<svg xmlns="http://www.w3.org/2000/svg" viewBox="0 0 31.92999267578125 24.20001220703125"><path d="M 557.49 275.18 557.51 275.18 557.53 275.17 557.55 275.17 557.58 275.18 557.64 275.21 557.73 275.27 557.87 275.42 558.05 275.49 558.12 275.54 558.18 275.62 558.19 275.75 558.18 275.81 558.14 275.93 558.12 276.02 558.08 276.1 558.05 276.21 557.99 276.34 557.97 276.41 557.95 276.47 557.95 276.5 557.96 276.54 557.97 276.54 557.98 276.54 558.01 276.54 558.09 276.61 558.14 276.63 558.18 276.6 558.22 276.57 558.49 276.48 558.57 276.49 558.64 276.53 558.71 276.61 558.69 276.63 558.7 276.67 558.7 276.73 558.7 276.79 558.69 276.84 558.66 276.89 558.58 276.95 558.56 277 558.56 277.02 558.58 277.08 558.59 277.11 558.58 277.14 558.56 277.23 558.55 277.31 558.54 277.34 558.53 277.37 558.5 277.4 558.5 277.42 558.49 277.54 558.52 277.76 558.5 277.88 558.47 277.94 558.46 277.98 558.48 278.08 558.48 278.2 558.48 278.26 558.46 278.29 558.46 278.37 558.38 278.51 558.39 278.58 558.37 278.6 558.36 278.64 558.34 278.76 558.34 278.93 558.34 278.96 558.36 278.99 558.4 279.05 558.4 279.08 558.4 279.19 558.41 279.25 558.43 279.3 558.55 279.51 558.58 279.56 558.59 279.69 558.61 279.75 558.63 279.8 558.66 279.85 558.74 279.92 558.83 279.97 558.93 280 559.04 280 559.15 279.98 559.24 279.94 559.88 279.46 559.94 279.4 560.01 279.36 560.03 279.33 560.07 279.29 560.09 279.26 560.18 279.2 560.4 279.11 560.5 279.09 560.65 279.12 560.73 279.08 561.06 279.03 561.08 279 561.09 278.95 561.18 278.81 561.29 278.59 561.35 278.5 561.44 278.45 561.54 278.43 561.6 278.41 561.65 278.35 561.81 278.25 561.97 278.24 562.01 278.21 562.04 278.17 562.07 278.09 562.11 278.05 562.19 277.98 562.21 277.97 562.26 277.99 562.29 277.98 562.39 277.86 562.43 277.84 562.47 277.82 562.53 277.82 562.58 277.82 562.62 277.85 562.66 277.86 562.79 277.78 562.89 277.78 563.16 277.88 563.31 277.92 563.41 277.91 563.49 277.92 563.47 277.99 563.47 278.02 563.47 278.13 563.46 278.17 563.42 278.22 563.38 278.25 563.35 278.27 563.26 278.27 563.22 278.29 563.17 278.33 563.14 278.39 563.15 278.44 563.19 278.47 563.28 278.44 563.33 278.44 563.34 278.46 563.37 278.5 563.39 278.51 563.41 278.51 563.45 278.48 563.47 278.47 563.52 278.48 563.55 278.49 563.59 278.48 563.67 278.4 563.72 278.39 563.81 278.38 563.93 278.32 563.98 278.31 564.15 278.25 564.4 278.2 564.45 278.17 564.49 278.13 564.49 278.03 564.53 277.99 564.59 277.99 564.65 278.01 564.71 278 564.73 277.93 564.74 277.96 564.77 277.95 564.8 277.94 564.82 277.96 564.85 278.01 564.87 278.02 564.9 278.02 564.96 278.03 565 278.02 565.04 278.02 565.09 278.04 565.17 278.07 565.19 278.07 565.21 278.07 565.43 278.06 565.5 278.02 565.78 278.19 565.84 278.26 565.95 278.43 566.01 278.47 565.84 278.51 565.79 278.52 565.77 278.5 565.68 278.31 565.67 278.29 565.63 278.29 565.61 278.31 565.58 278.33 565.53 278.38 565.52 278.39 565.48 278.39 565.47 278.41 565.46 278.42 565.43 278.45 565.42 278.46 565.41 278.47 565.4 278.48 565.38 278.47 565.36 278.44 565.34 278.44 565.31 278.44 565.21 278.47 565.14 278.47 565.11 278.49 565.09 278.53 565.07 278.59 565.05 278.62 565.01 278.64 564.97 278.65 564.88 278.63 564.85 278.65 564.84 278.7 564.88 278.76 564.95 278.81 565.09 278.88 565.13 278.93 565.15 278.98 565.18 279.03 565.24 279.05 565.25 279.07 565.25 279.09 565.25 279.11 565.24 279.13 565.22 279.21 565.19 279.23 565.15 279.19 565.11 279.13 565.1 279.12 565.09 279.11 565.05 279.1 565 279.1 564.91 279.13 564.85 279.17 564.66 279.29 564.56 279.38 564.5 279.4 564.36 279.38 564.32 279.39 564.29 279.42 564.27 279.45 564.26 279.55 564.24 279.58 564.11 279.62 564.05 279.62 563.98 279.59 563.92 279.58 563.73 279.46 563.67 279.43 563.53 279.41 563.39 279.4 563.39 279.4 563.39 279.4 563.39 279.4 563.24 279.4 562.95 279.45 562.87 279.43 562.8 279.42 562.66 279.44 562.55 279.44 562.44 279.47 562.41 279.48 562.38 279.47 562.31 279.46 562.24 279.45 561.91 279.49 561.87 279.5 561.82 279.54 561.8 279.55 561.77 279.55 561.7 279.52 561.64 279.53 561.59 279.56 561.52 279.58 561.33 279.59 561.14 279.56 561 279.57 560.85 279.61 560.75 279.66 560.61 279.78 560.56 279.79 560.46 279.78 560.37 279.81 560.27 279.82 560.07 279.86 559.98 279.91 559.94 279.93 559.93 279.97 559.96 280.02 559.98 280.07 559.94 280.09 559.81 280.11 559.76 280.12 559.73 280.14 559.71 280.16 559.72 280.18 559.72 280.21 559.72 280.23 559.69 280.27 559.6 280.29 559.55 280.31 559.51 280.35 559.41 280.41 559.38 280.44 559.35 280.47 559.32 280.49 559.29 280.5 559.14 280.51 559.1 280.54 559.1 280.63 559.14 280.7 559.14 280.74 559.12 280.77 559.08 280.78 559.05 280.79 559.02 280.77 558.95 280.7 558.82 280.62 558.78 280.6 558.74 280.6 558.71 280.63 558.69 280.71 558.67 280.76 558.65 280.78 558.6 280.84 558.59 280.88 558.61 280.92 558.62 280.96 558.58 280.98 558.52 280.99 558.48 281.01 558.45 281.03 558.28 281.22 558.23 281.26 558.09 281.31 558.08 281.33 558.07 281.38 558.05 281.41 558.03 281.42 557.96 281.46 557.88 281.51 557.87 281.53 557.85 281.59 557.84 281.62 557.77 281.69 557.75 281.73 557.76 281.77 557.76 281.78 557.79 281.8 557.87 281.85 557.9 281.87 557.95 281.93 558.01 281.96 558.08 281.97 558.14 282 558.17 282.04 558.18 282.13 558.21 282.17 558.31 282.24 558.34 282.28 558.41 282.41 558.43 282.45 558.43 282.48 558.43 282.5 558.43 282.53 558.44 282.56 558.45 282.58 558.48 282.6 558.5 282.62 558.53 282.67 558.54 282.72 558.52 282.76 558.48 282.82 558.45 282.87 558.48 282.92 558.52 282.95 558.64 283.01 558.68 283.04 558.7 283.08 558.7 283.13 558.68 283.18 558.67 283.23 558.69 283.29 558.7 283.31 558.71 283.33 558.74 283.37 558.76 283.4 558.76 283.46 558.74 283.5 558.63 283.59 558.56 283.68 558.56 283.75 558.6 283.82 558.72 283.96 558.79 284.02 558.8 284.05 558.78 284.11 558.72 284.19 558.57 284.3 558.51 284.37 558.51 284.49 558.52 284.52 558.52 284.54 558.5 284.56 558.48 284.58 558.48 284.58 558.48 284.58 558.48 284.58 558.46 284.61 558.44 284.67 558.42 284.7 558.4 284.72 558.37 284.73 558.1 284.84 558.03 284.9 557.98 284.98 557.95 285.07 557.83 285.24 557.8 285.27 557.72 285.32 557.56 285.44 557.54 285.47 557.54 285.52 557.55 285.58 557.56 285.63 557.55 285.7 557.53 285.75 557.49 285.77 557.4 285.76 557.35 285.76 557.35 285.76 557.31 285.77 557.29 285.82 557.29 285.88 557.3 285.94 557.32 285.99 557.36 286.06 557.43 286.14 557.5 286.2 557.65 286.29 557.66 286.36 557.6 286.54 557.6 286.59 557.62 286.68 557.63 286.74 557.62 286.8 557.61 286.84 557.55 286.91 557.52 286.96 557.52 287 557.53 287.05 557.52 287.1 557.49 287.13 557.38 287.15 557.33 287.17 557.31 287.2 557.28 287.23 557.25 287.24 557.21 287.23 557.15 287.22 557.13 287.22 557.12 287.26 557.08 287.33 556.92 287.36 556.62 287.36 556.32 287.4 556.26 287.4 556.07 287.36 555.89 287.35 555.85 287.34 555.78 287.3 555.65 287.29 555.17 287.12 555.1 287.12 554.98 287.14 554.92 287.16 554.88 287.19 554.88 287.24 554.89 287.28 554.88 287.32 554.84 287.36 554.81 287.4 554.83 287.44 554.89 287.5 554.91 287.53 554.94 287.64 554.96 287.68 555.01 287.76 555.03 287.79 555.05 287.85 555.07 287.9 555.11 287.92 555.16 287.93 555.19 287.93 555.31 287.98 555.41 287.96 555.43 287.99 555.45 288.1 555.46 288.14 555.47 288.15 555.49 288.17 555.53 288.19 555.54 288.2 555.55 288.22 555.55 288.28 555.51 288.45 555.5 288.5 555.51 288.55 555.53 288.6 555.56 288.64 555.58 288.65 555.64 288.67 555.66 288.68 555.67 288.73 555.68 288.75 555.8 288.88 555.84 288.96 555.82 289.05 555.44 289.36 555.4 289.39 555.35 289.38 555.3 289.36 555.27 289.37 555.2 289.52 555.18 289.54 555.16 289.55 555.09 289.54 555.07 289.55 554.9 289.65 554.81 289.66 554.66 289.58 554.57 289.6 554.47 289.67 554.43 289.68 554.41 289.68 554.39 289.67 554.37 289.66 554.3 289.68 554.25 289.68 554.16 289.69 554.09 289.74 554.03 289.81 554.01 289.86 553.99 289.9 554.03 290.19 554.01 290.26 554 290.27 553.94 290.32 553.88 290.39 553.81 290.45 553.78 290.48 553.79 290.54 553.8 290.56 553.82 290.57 553.83 290.59 553.85 290.59 553.87 290.61 553.87 290.63 553.88 290.67 553.9 290.76 553.89 290.79 553.87 290.84 553.75 291.02 553.71 291.05 553.62 291.08 553.58 291.11 553.51 291.19 553.47 291.29 553.46 291.4 553.48 291.51 553.54 291.66 553.54 291.72 553.54 291.77 553.53 291.88 553.53 291.99 553.51 292.1 553.51 292.16 553.55 292.41 553.62 292.6 553.63 292.64 553.62 292.65 553.61 292.66 553.51 292.74 553.45 292.81 553.2 293.18 553.17 293.22 553.14 293.24 553.11 293.28 553.04 293.35 552.96 293.41 552.9 293.43 552.82 293.42 552.74 293.45 552.6 293.52 552.52 293.53 552.46 293.49 552.35 293.34 552.3 293.28 552.28 293.24 552.27 293.13 552.26 293.1 552.23 293.09 552.11 293.06 551.98 292.99 551.9 292.96 551.85 292.96 551.8 292.98 551.7 293.03 551.66 293.06 551.67 293.09 551.71 293.11 551.76 293.11 551.89 293.11 551.93 293.12 551.95 293.14 551.92 293.17 551.88 293.2 551.84 293.21 551.76 293.2 551.52 293.12 551.43 293.11 551.35 293.11 551.3 293.11 551.27 293.08 551.25 293.05 551.19 293 551.14 292.97 551.09 292.95 551.04 292.96 551.01 292.99 550.97 293.1 550.95 293.13 550.94 293.15 550.87 293.21 550.86 293.24 550.85 293.29 550.84 293.31 550.72 293.37 550.68 293.4 550.66 293.44 550.63 293.45 550.54 293.46 550.48 293.45 550.45 293.45 550.38 293.48 550.25 293.63 550.18 293.68 550.13 293.72 550.06 293.74 549.99 293.75 549.85 293.72 549.78 293.72 549.75 293.76 549.77 293.8 549.8 293.84 549.83 293.89 549.84 293.99 549.87 294.03 549.92 294.05 549.96 294.07 550.14 294.04 550.22 294.07 550.23 294.18 550.21 294.23 550.18 294.24 550.09 294.24 550.05 294.25 550.02 294.27 549.99 294.3 549.85 294.39 549.81 294.4 549.69 294.42 549.61 294.46 549.48 294.48 549.32 294.54 549.28 294.55 549.14 294.54 549.03 294.54 548.99 294.54 548.94 294.52 548.86 294.48 548.82 294.46 548.78 294.47 548.69 294.49 548.65 294.49 548.59 294.48 548.57 294.47 548.55 294.46 548.55 294.44 548.56 294.42 548.57 294.4 548.57 294.38 548.57 294.33 548.55 294.29 548.52 294.27 548.39 294.28 548.31 294.3 548.16 294.37 548.09 294.43 548.04 294.49 547.98 294.53 547.9 294.54 547.85 294.58 547.77 294.87 547.73 294.93 547.52 295.15 547.47 295.17 547.17 295.23 547.13 295.25 547.11 295.28 546.89 296.11 546.89 296.22 546.92 296.32 546.98 296.39 547 296.42 547.01 296.48 547.01 296.53 546.97 296.87 546.98 297.02 546.97 297.07 546.82 297.36 546.79 297.46 546.79 297.5 546.8 297.53 546.88 297.59 546.97 297.68 547.04 297.73 547.05 297.76 547.05 297.77 547.03 297.77 547.01 297.78 546.97 297.86 546.91 297.94 546.73 298.06 546.54 298.12 546.42 298.16 546.29 298.19 546.16 298.23 546.03 298.27 545.9 298.31 545.77 298.34 545.64 298.38 545.52 298.42 545.39 298.46 545.26 298.49 545.13 298.53 545 298.57 544.87 298.61 544.74 298.64 544.61 298.68 544.49 298.72 544.16 298.81 544.05 298.81 543.68 298.74 543.38 298.74 542.97 298.74 542.93 298.74 542.33 298.91 542.25 298.95 542.2 299.02 542.12 299.18 542.06 299.2 541.8 299.09 541.4 299.01 540.91 298.92 540.57 298.95 540.46 298.96 540.35 298.97 540.25 298.98 540.14 298.99 540.03 299 539.92 299.01 539.81 299.02 539.7 299.03 539.59 299.04 539.49 299.05 539.38 299.06 539.27 299.07 539.16 299.09 539.05 299.1 538.94 299.11 538.83 299.12 538.77 299.12 538.49 299.15 538.26 299.1 538.05 299.04 537.87 298.98 537.68 298.92 537.5 298.86 537.31 298.8 537.13 298.74 536.95 298.68 536.76 298.62 536.58 298.56 536.39 298.5 536.21 298.44 536.02 298.39 535.84 298.33 535.65 298.27 535.47 298.21 535.28 298.15 535.1 298.09 534.94 298.04 534.87 298.01 535 297.86 535.17 297.66 535.17 297.66 535.51 297.25 535.69 297.03 535.82 296.88 536.06 296.6 536.24 296.38 536.24 296.38 536.49 296.08 536.77 295.74 536.96 295.52 537 295.48 536.99 295.47 536.99 295.46 536.99 295.42 537 295.4 537.01 295.39 537 295.22 536.99 295.19 537.03 295.1 537.05 295.05 537.05 295 537.04 294.95 537.01 294.86 536.97 294.78 536.97 294.75 536.96 294.68 536.94 294.62 536.88 294.52 536.86 294.47 536.86 294.42 536.88 294.31 536.86 294.26 536.78 294.16 536.74 294.12 536.68 294.1 536.56 294.08 536.3 294.05 535.87 293.98 535.49 293.93 535.49 293.93 535.12 293.87 534.9 293.84 534.82 293.81 534.8 293.57 534.76 293.44 534.76 293.38 534.79 293.19 534.75 292.95 534.75 292.82 534.77 292.66 534.76 292.61 534.75 292.58 534.74 292.55 534.74 292.53 534.76 292.47 534.74 292.46 534.73 292.45 534.72 292.43 534.73 292.39 534.79 292.31 534.81 292.27 534.84 292.06 534.84 291.85 534.77 291.57 534.67 291.21 534.58 290.91 534.5 290.63 534.42 290.37 534.34 290.12 534.28 289.9 534.25 289.73 534.24 289.52 534.26 289.49 534.37 289.34 534.49 289.18 534.59 289.03 534.68 288.92 534.74 288.86 534.81 288.82 534.84 288.79 534.85 288.74 534.85 288.69 534.84 288.65 534.84 288.61 534.88 288.58 534.99 288.57 535.02 288.56 535.04 288.53 535.04 288.53 535.02 288.49 534.98 288.46 534.95 288.44 534.88 288.42 534.79 288.41 534.63 288.42 534.45 288.41 534.27 288.33 534.13 288.2 534.08 288.01 534.1 287.92 534.17 287.77 534.17 287.66 534.11 287.26 534.08 287.03 534.08 286.99 534.09 286.87 534.15 286.75 534.22 286.65 534.3 286.57 534.41 286.52 534.44 286.48 534.43 286.42 534.58 286.41 534.81 286.4 534.97 286.39 534.95 286.34 534.78 286.13 534.75 286.06 534.73 286.03 534.7 286 534.65 285.98 534.63 285.96 534.61 285.9 534.59 285.88 534.57 285.87 534.55 285.86 534.58 285.81 534.64 285.78 534.76 285.76 534.82 285.75 534.86 285.72 534.96 285.6 534.97 285.58 534.98 285.56 535.01 285.55 535.05 285.54 535.07 285.54 535.1 285.54 535.12 285.51 535.13 285.44 535.13 285.37 535.13 285.31 535.17 285.26 535.24 285.21 535.28 285.13 535.29 285.09 535.36 285.06 535.38 284.97 535.39 284.88 535.39 284.86 535.38 284.81 535.38 284.78 535.38 284.74 535.41 284.69 535.42 284.67 535.43 284.62 535.46 284.51 535.47 284.4 535.49 284.36 535.54 284.29 535.52 284.26 535.52 284.24 535.52 284.22 535.53 284.19 535.52 284.18 535.44 284.07 535.43 284.04 535.44 284.03 535.47 284.02 535.47 283.99 535.46 283.97 535.44 283.96 535.44 283.93 535.44 283.87 535.46 283.81 535.49 283.79 535.54 283.79 535.59 283.78 535.63 283.75 535.65 283.71 535.64 283.57 535.65 283.51 535.66 283.48 535.71 283.42 535.72 283.39 535.74 283.31 535.76 283.25 535.82 283.19 535.85 283.14 535.86 283.08 535.85 283.03 535.83 282.92 535.81 282.89 535.84 282.88 535.96 282.86 535.98 282.86 536 282.87 536.02 282.89 536.01 282.89 536 282.92 536.02 282.95 536.03 282.95 536.03 282.95 536.07 282.98 536.07 282.99 536.06 283.02 536.06 283.03 536.07 283.05 536.09 283.07 536.11 283.08 536.13 283.08 536.15 283.09 536.16 283.1 536.31 283.23 536.41 283.34 536.56 283.4 536.86 283.45 536.99 283.44 537.25 283.34 537.38 283.35 537.45 283.38 537.51 283.42 537.74 283.64 537.8 283.68 537.92 283.74 537.95 283.77 537.98 283.81 537.99 283.86 537.99 283.91 537.99 284.02 538 284.06 538.04 284.16 538.07 284.19 538.1 284.17 538.32 283.87 538.39 283.81 538.45 283.8 538.6 283.94 538.62 283.95 538.64 283.95 538.66 283.94 538.69 283.94 538.75 283.97 538.77 283.97 538.81 283.96 538.97 283.89 539 283.87 539.03 283.85 539.06 283.81 539.12 283.75 539.26 283.68 539.27 283.68 539.47 283.52 539.62 283.45 539.66 283.43 539.75 283.43 539.8 283.42 539.83 283.38 539.84 283.33 539.85 283.23 539.87 283.15 539.87 283.12 539.83 283.09 539.82 283.05 539.82 282.92 539.82 282.88 539.88 282.82 540.05 282.76 540.11 282.72 540.12 282.69 540.13 282.67 540.11 282.66 540.06 282.64 540.04 282.63 540.01 282.58 539.9 282.48 539.88 282.45 539.87 282.4 539.85 282.36 539.84 282.33 539.85 282.28 539.88 282.25 539.93 282.24 540.41 282.25 540.6 282.21 540.78 282.12 540.82 282.09 540.87 282.02 540.9 281.99 540.94 281.97 540.99 281.96 541.26 281.94 541.35 281.92 541.56 281.79 541.62 281.77 541.66 281.77 541.69 281.76 541.76 281.78 541.97 281.86 541.97 281.82 541.95 281.7 541.95 281.65 541.97 281.6 541.99 281.57 542.14 281.46 542.22 281.42 542.3 281.4 542.39 281.42 542.43 281.43 542.46 281.44 542.48 281.42 542.51 281.31 542.54 281.28 542.57 281.25 542.61 281.24 542.78 281.2 542.85 281.17 542.93 281.11 542.97 281.06 543.14 280.79 543.18 280.7 543.21 280.59 543.22 280.48 543.21 280.43 543.18 280.32 543.17 280.27 543.17 280.21 543.18 280.15 543.21 280.05 543.24 279.96 543.48 279.52 543.56 279.37 543.59 279.28 543.58 279.17 543.54 278.96 543.55 278.85 543.59 278.78 543.66 278.74 544.06 278.52 544.22 278.47 545.16 278.44 545.19 278.44 545.27 278.4 545.38 278.26 545.44 278.19 545.47 278.15 545.48 278.1 545.48 278.04 545.46 277.92 545.47 277.86 545.49 277.8 545.52 277.74 545.52 277.74 545.52 277.74 545.52 277.74 545.54 277.7 545.57 277.67 545.59 277.65 545.63 277.64 545.72 277.64 545.75 277.62 545.77 277.55 545.77 277.51 545.8 277.52 545.85 277.53 545.87 277.54 545.9 277.63 545.92 277.65 545.94 277.67 545.98 277.7 546.48 277.89 546.52 277.92 546.58 278.01 546.62 278.04 546.66 278.07 546.69 278.07 546.76 278.07 546.78 278.07 546.82 278.1 546.84 278.1 546.86 278.11 546.87 278.12 546.91 278.16 546.95 278.19 547.01 278.2 547.16 278.15 547.22 278.14 547.24 278.15 547.27 278.2 547.3 278.22 547.32 278.21 547.34 278.2 547.38 278.16 547.41 278.13 547.45 278.1 547.49 278.09 547.55 278.08 547.6 278.09 547.75 278.15 547.78 278.16 547.84 278.16 547.86 278.15 547.91 278.11 547.93 278.1 548.22 278.09 548.42 278.04 548.53 278.05 548.57 278.07 548.66 278.13 548.71 278.14 548.73 278.17 548.77 278.29 548.79 278.33 548.83 278.36 548.93 278.4 548.98 278.44 549 278.48 549.02 278.54 549.04 278.58 549.09 278.6 549.14 278.59 549.23 278.53 549.28 278.52 549.34 278.52 549.38 278.5 549.43 278.48 549.47 278.45 549.55 278.37 549.59 278.34 549.63 278.33 549.68 278.36 549.72 278.47 549.76 278.5 549.79 278.49 549.8 278.47 549.82 278.44 549.83 278.43 549.85 278.42 549.9 278.41 549.92 278.41 549.95 278.42 549.99 278.45 550.02 278.46 550.05 278.47 550.13 278.46 550.17 278.48 550.21 278.5 550.24 278.54 550.25 278.59 550.23 278.77 550.23 278.81 550.26 278.84 550.31 278.88 550.36 278.91 550.46 278.93 550.49 278.97 550.52 279.02 550.55 279.07 550.58 279.09 550.63 279.12 550.65 279.14 550.72 279.23 550.74 279.26 550.75 279.28 550.76 279.3 550.78 279.32 550.79 279.32 550.81 279.32 550.83 279.31 550.86 279.29 551 279.17 551.03 279.15 551.07 279.13 551.11 279.09 551.15 279.06 551.2 279.05 551.3 279.08 551.35 279.08 551.37 279.04 551.36 278.93 551.36 278.87 551.37 278.83 551.41 278.79 551.46 278.8 551.5 278.82 551.54 278.83 551.6 278.82 551.65 278.8 551.66 278.76 551.63 278.69 551.77 278.68 551.87 278.66 551.89 278.66 551.91 278.64 551.94 278.59 551.96 278.58 552 278.57 552.08 278.55 552.12 278.54 552.13 278.52 552.14 278.47 552.17 278.43 552.22 278.43 552.21 278.39 552.2 278.38 552.19 278.37 552.22 278.34 552.26 278.34 552.34 278.35 552.39 278.35 552.42 278.35 552.44 278.36 552.53 278.41 552.55 278.42 552.56 278.39 552.56 278.33 552.53 278.25 552.54 278.22 552.59 278.2 552.63 278.21 552.66 278.25 552.68 278.29 552.71 278.33 552.74 278.34 552.76 278.34 552.78 278.31 552.77 278.27 552.76 278.26 552.72 278.23 552.71 278.22 552.7 278.18 552.7 278.17 552.71 278.18 552.72 278.18 552.87 278.2 552.92 278.22 552.96 278.26 553 278.31 553.03 278.41 553.07 278.45 553.12 278.49 553.16 278.52 553.2 278.62 553.22 278.64 553.27 278.68 553.28 278.68 553.49 278.82 553.54 278.82 553.58 278.8 553.63 278.79 553.64 278.79 553.67 278.78 553.69 278.75 553.73 278.71 553.82 278.66 553.85 278.62 553.93 278.49 553.94 278.46 553.9 278.45 553.86 278.43 553.88 278.37 553.86 278.34 553.84 278.25 553.82 278.21 553.81 278.19 553.81 278.17 553.8 278.14 553.8 278.11 553.81 278.11 553.81 278.1 553.82 278.1 553.82 278.08 553.81 278.07 553.79 278.07 553.79 278.06 553.78 277.95 553.79 277.9 553.8 277.85 553.81 277.84 553.85 277.82 553.86 277.8 553.87 277.79 553.89 277.75 553.89 277.74 553.99 277.67 554.04 277.62 554.08 277.51 554.12 277.49 554.42 277.51 554.47 277.5 554.57 277.46 554.62 277.46 554.64 277.46 554.69 277.47 554.71 277.49 554.73 277.5 554.75 277.49 554.77 277.47 554.8 277.46 554.84 277.44 554.93 277.4 554.99 277.4 555.02 277.43 555.04 277.48 555.07 277.51 555.11 277.53 555.14 277.54 555.15 277.55 555.16 277.57 555.18 277.58 555.18 277.59 555.2 277.6 555.27 277.61 555.26 277.59 555.32 277.6 555.39 277.62 555.45 277.63 555.52 277.61 555.59 277.51 555.61 277.5 555.61 277.48 555.65 277.4 555.65 277.4 555.69 277.4 555.7 277.4 555.71 277.39 555.72 277.38 555.73 277.36 555.73 277.34 555.73 277.32 555.73 277.29 555.74 277.28 555.75 277.28 555.78 277.24 555.78 277.2 555.79 277.18 555.79 277.15 555.79 277.11 555.77 277.03 555.76 276.99 555.78 276.96 555.76 276.94 555.74 276.91 555.72 276.88 555.71 276.84 555.7 276.81 555.63 276.79 555.6 276.78 555.56 276.72 555.53 276.64 555.52 276.55 555.55 276.48 555.59 276.52 555.64 276.53 555.69 276.52 555.75 276.5 555.73 276.48 555.72 276.45 555.72 276.43 555.73 276.4 555.75 276.4 555.77 276.39 555.8 276.38 555.81 276.36 555.82 276.34 555.83 276.33 555.87 276.31 555.89 276.3 555.99 276.17 556.09 276.06 556.11 276.05 556.19 276.02 556.21 275.99 556.24 275.94 556.29 275.79 556.36 275.66 556.38 275.59 556.41 275.58 556.44 275.57 556.46 275.56 556.49 275.46 556.49 275.44 556.49 275.41 556.49 275.38 556.5 275.36 556.52 275.34 556.57 275.35 556.59 275.34 556.67 275.28 556.68 275.24 556.64 275.21 556.64 275.19 556.68 275.17 556.81 275.15 556.84 275.1 556.85 275.08 556.89 275.08 556.96 275.08 556.98 275.08 557.02 275.09 557.04 275.09 557.05 275.09 557.06 275.07 557.07 275.06 557.1 275.06 557.19 275.1 557.24 275.11 557.27 275.08 557.26 275.02 557.27 275 557.33 275 557.35 275.01 557.38 275.02 557.4 275.04 557.42 275.07 557.44 275.09 557.46 275.14 557.47 275.16 557.49 275.18 Z" id="Afghanistan" transform="translate(-534.0800170898438,-275) "/></svg>