<svg xmlns="http://www.w3.org/2000/svg" viewBox="0 0 3.910003662109375 8.850006103515625"><path d="M 444.48 263.17 444.52 263.22 444.63 263.28 444.67 263.33 444.67 263.33 444.67 263.33 444.67 263.33 444.67 263.33 444.73 263.48 444.75 263.5 444.78 263.53 444.79 263.55 444.79 263.57 444.76 263.61 444.76 263.63 444.77 263.65 444.81 263.68 444.82 263.69 444.82 263.72 444.82 263.76 444.82 263.78 444.84 263.83 444.86 263.85 444.89 263.85 445.04 263.85 445.07 263.85 445.35 264.05 445.38 264.09 445.4 264.11 445.44 264.17 445.53 264.35 445.55 264.43 445.56 264.49 445.56 264.58 445.57 264.64 445.64 264.82 445.65 264.88 445.66 264.92 445.66 264.95 445.64 265.01 445.62 265.03 445.6 265.04 445.59 265.06 445.58 265.1 445.58 265.12 445.59 265.15 445.59 265.18 445.53 265.21 445.53 265.26 445.53 265.28 445.55 265.35 445.55 265.39 445.55 265.41 445.54 265.44 445.49 265.49 445.47 265.52 445.45 265.56 445.44 265.59 445.46 265.8 445.47 265.87 445.52 266 445.52 266.02 445.52 266.03 445.51 266.06 445.49 266.08 445.46 266.1 445.43 266.11 445.32 266.13 445.33 266.18 445.32 266.25 445.34 266.3 445.36 266.31 445.38 266.33 445.4 266.37 445.41 266.38 445.41 266.4 445.42 266.45 445.42 266.47 445.44 266.48 445.47 266.49 445.49 266.5 445.52 266.54 445.53 266.57 445.53 266.57 445.53 266.61 445.51 266.66 445.49 266.7 445.46 266.74 445.43 266.76 445.4 266.75 445.39 266.8 445.39 266.81 445.4 266.9 445.44 267.06 445.47 267.13 445.55 267.25 445.59 267.32 445.6 267.38 445.6 267.43 445.61 267.47 445.66 267.49 445.68 267.5 445.71 267.51 445.73 267.5 445.74 267.51 445.76 267.51 445.78 267.53 445.81 267.57 445.85 267.77 445.89 267.93 445.92 268 445.95 268.03 445.98 268.05 446.03 268.06 446.07 268.04 446.14 267.98 446.19 267.97 446.19 267.97 446.31 267.99 446.42 268.02 446.45 268.05 446.47 268.11 446.47 268.19 446.48 268.33 446.46 268.39 446.43 268.43 446.45 268.45 446.46 268.47 446.46 268.5 446.47 268.52 446.53 268.58 446.59 268.65 446.61 268.69 446.63 268.74 446.63 268.8 446.62 268.85 446.6 268.95 446.6 268.99 446.6 269.01 446.59 269.03 446.58 269.06 446.56 269.08 446.54 269.09 446.52 269.11 446.51 269.14 446.48 269.14 446.46 269.16 446.44 269.19 446.45 269.22 446.44 269.24 446.43 269.25 446.41 269.28 446.35 269.32 446.31 269.31 446.25 269.29 446.2 269.29 446.17 269.31 446.15 269.33 446.15 269.36 446.13 269.39 446.11 269.4 446.06 269.41 446.04 269.43 446.04 269.46 446.05 269.54 446.05 269.57 446.04 269.6 446.03 269.63 446.01 269.67 445.97 269.76 445.97 269.77 445.95 269.79 445.92 269.8 445.9 269.82 445.88 269.85 445.87 269.91 445.88 269.97 445.88 270.03 445.85 270.1 445.84 270.11 445.81 270.12 445.8 270.13 445.8 270.15 445.8 270.18 445.8 270.2 445.81 270.25 445.81 270.26 445.78 270.36 445.77 270.38 445.75 270.39 445.7 270.42 445.61 270.46 445.56 270.46 445.44 270.44 445.4 270.45 445.37 270.47 445.29 270.47 445.25 270.49 445.22 270.52 445.2 270.57 445.18 270.62 445.17 270.67 445.13 270.68 445.02 270.68 444.99 270.69 445 270.71 445.04 270.88 445.05 270.9 445.1 270.95 445.2 271.12 445.21 271.17 445.2 271.23 445.16 271.27 445.12 271.27 445.08 271.24 445 271.21 444.99 271.21 444.97 271.21 444.95 271.21 444.94 271.24 444.94 271.25 444.96 271.26 444.96 271.28 444.96 271.3 444.95 271.33 444.94 271.34 444.95 271.35 444.97 271.37 444.97 271.38 444.98 271.4 444.99 271.42 445 271.43 444.99 271.46 444.96 271.5 444.92 271.52 444.89 271.56 444.88 271.62 444.86 271.61 444.84 271.6 444.82 271.6 444.8 271.61 444.79 271.63 444.78 271.65 444.78 271.67 444.78 271.68 444.74 271.69 444.7 271.67 444.63 271.62 444.53 271.56 444.44 271.53 444.37 271.51 444.33 271.53 444.33 271.53 444.33 271.53 444.32 271.55 444.31 271.55 444.3 271.51 444.3 271.46 444.34 271.37 444.3 271.36 444.29 271.35 444.32 271.27 444.36 271.13 444.37 271.1 444.36 271.04 444.33 271.02 444.3 271.02 444.25 271 444.25 270.99 444.24 270.98 444.24 270.97 444.23 270.96 444.2 270.94 444.18 270.93 444.14 270.93 444.13 270.92 444.13 270.9 444.16 270.86 444.18 270.84 444.2 270.82 444.16 270.79 444.06 270.59 444.05 270.55 444.03 270.52 444.01 270.51 443.94 270.5 443.91 270.5 443.88 270.48 443.9 270.47 443.84 270.43 443.83 270.44 443.83 270.45 443.82 270.47 443.82 270.44 443.81 270.43 443.79 270.42 443.78 270.41 443.77 270.39 443.76 270.36 443.74 270.33 443.73 270.34 443.71 270.32 443.56 270.27 443.44 270.2 443.37 270.13 443.25 270.09 443.17 270.03 442.96 269.8 442.94 269.76 442.93 269.73 442.9 269.6 442.88 269.57 442.8 269.49 442.77 269.45 442.77 269.44 442.77 269.44 442.76 269.44 442.76 269.42 442.82 269.38 442.85 269.38 442.89 269.41 442.97 269.5 442.99 269.53 443.02 269.6 443.03 269.64 443.03 269.68 443.06 269.7 443.1 269.69 443.15 269.66 443.17 269.64 443.18 269.38 443.18 269.34 443.12 269.3 443.05 269.23 442.98 269.14 442.97 269.08 442.99 269.1 442.99 269.12 443 269.14 443.02 269.14 443.03 269.14 443.08 269.19 443.11 269.17 443.12 269.12 443.12 269.05 443.1 268.99 443.04 268.96 442.98 268.98 442.97 269.06 442.96 269.01 442.8 268.78 442.79 268.76 442.8 268.72 442.83 268.7 442.87 268.67 442.9 268.64 442.92 268.59 442.92 268.55 442.93 268.37 442.93 268.33 442.95 268.29 443 268.28 443.02 268.27 443.01 268.25 443 268.22 442.99 268.2 443 268.18 443.01 268.15 443.03 268.14 443.03 268.13 443.02 268.1 442.98 268.05 442.96 268.02 442.98 268 443.01 267.99 443.06 267.92 443.09 267.9 443.06 267.93 443.08 268 443.06 268.06 443.06 268.12 443.08 268.12 443.09 268.08 443.09 268.09 443.09 268.1 443.09 268.12 443.12 268.08 443.24 268.02 443.28 267.98 443.28 267.91 443.26 267.85 443.23 267.8 443.21 267.74 443.21 267.81 443.18 267.88 443.12 267.97 443.12 267.96 443.11 267.94 443.13 267.92 443.16 267.87 443.17 267.82 443.17 267.76 443.16 267.75 443.12 267.73 443.11 267.72 443.09 267.69 443.09 267.67 443.1 267.66 443.13 267.44 443.12 267.39 443.1 267.37 443.09 267.35 443.1 267.33 443.14 267.3 443.15 267.27 443.15 267.23 443.16 267.2 443.25 267.05 443.26 267 443.25 266.94 443.23 266.89 443.2 266.85 443.16 266.84 443.11 266.84 443.07 266.83 443.05 266.8 443.03 266.75 443.03 266.62 443.03 266.6 442.99 266.57 442.99 266.53 443.02 266.57 443.07 266.57 443.1 266.53 443.09 266.45 443.15 266.42 443.2 266.38 443.24 266.32 443.26 266.24 443.26 266.19 443.24 266.17 443.22 266.17 443.19 266.15 443.15 266.12 443.12 266.06 443.09 266.03 443.29 266.05 443.35 266.03 443.37 266.03 443.41 265.93 443.43 265.93 443.43 265.96 443.44 265.98 443.45 265.98 443.48 265.97 443.46 265.89 443.45 265.87 443.43 265.89 443.42 265.86 443.35 265.81 443.4 265.73 443.39 265.63 443.38 265.53 443.38 265.48 443.42 265.49 443.44 265.46 443.45 265.39 443.43 265.34 443.41 265.34 443.15 265.23 443.12 265.21 443.08 265.19 442.93 265.24 442.92 265.21 442.93 265.13 442.91 265.1 442.89 265.08 442.88 265.07 442.88 265.05 442.88 265.03 442.89 265.02 442.89 265 442.9 264.98 442.88 264.91 442.9 264.9 442.91 264.9 442.93 264.89 442.94 264.84 442.92 264.82 442.92 264.82 442.9 264.77 442.89 264.72 442.9 264.66 442.91 264.61 442.95 264.52 442.94 264.49 442.94 264.48 442.9 264.44 442.78 264.35 442.74 264.31 442.74 264.31 442.72 264.26 442.73 264.23 442.79 264.16 443 263.83 443.01 263.81 443 263.77 443.01 263.75 443.03 263.7 443.04 263.69 443.16 263.55 443.18 263.51 443.23 263.48 443.26 263.43 443.3 263.38 443.32 263.33 443.32 263.33 443.33 263.28 443.36 263.26 443.39 263.24 443.42 263.21 443.43 263.17 443.45 263.1 443.46 263.05 443.49 262.99 443.55 262.93 443.58 262.91 443.62 262.87 443.67 262.84 443.72 262.87 443.75 262.94 443.77 263.01 443.77 263.04 443.77 263.07 443.77 263.07 443.76 263.09 443.74 263.12 443.74 263.14 443.74 263.19 443.74 263.21 443.74 263.24 443.78 263.33 443.86 263.39 443.89 263.4 443.93 263.41 443.95 263.4 443.97 263.4 444.05 263.35 444.07 263.33 444.07 263.33 444.07 263.33 444.13 263.29 444.24 263.29 444.29 263.28 444.37 263.17 444.42 263.14 444.48 263.17 Z" id="Albania" transform="translate(-442.7200012207031,-262.8399963378906) "/></svg>