<svg xmlns="http://www.w3.org/2000/svg" viewBox="0 0 45.779998779296875 45.54998779296875"><path d="M 421.1 297.06 420.59 297.35 420.64 297.43 420.77 297.59 420.88 297.72 421.17 298.15 421.43 298.64 421.61 299.25 421.78 299.85 421.83 300.24 421.84 300.72 421.78 301.14 421.67 302.02 421.7 302.16 422.02 303.02 422.02 303.12 422.01 303.14 421.86 303.63 421.83 303.68 421.76 303.72 421.71 303.76 421.72 303.81 421.75 303.86 421.77 303.92 421.75 303.96 421.66 304.07 421.63 304.12 421.6 304.27 421.56 304.37 421.55 304.41 421.55 304.45 421.74 305.11 421.78 305.37 421.8 305.42 421.83 305.44 421.92 305.49 421.96 305.52 421.97 305.56 421.91 305.82 421.91 305.91 421.93 305.98 421.94 306.03 421.84 306.34 421.8 306.39 421.02 306.77 421.02 306.82 421.01 306.86 420.99 306.89 420.91 306.97 420.87 307.06 420.84 307.1 420.79 307.22 420.84 307.35 421.15 307.79 421.49 308.26 421.76 308.64 422.1 309.11 422.18 309.27 422.21 309.42 422.22 309.74 422.23 310.09 422.24 310.42 422.27 310.49 422.6 310.68 422.64 310.75 422.68 310.97 422.7 311.06 422.74 311.1 423.04 311.34 423.08 311.35 423.16 311.34 423.42 311.25 423.67 311.16 423.72 311.15 423.76 311.16 424.19 311.3 424.72 311.48 425.42 311.71 425.51 311.74 425.58 311.78 425.64 311.85 425.79 312.16 425.95 312.49 425.96 312.5 426.21 313 426.36 313.31 426.53 313.66 426.38 313.75 426.23 313.85 426.08 313.95 425.93 314.04 425.78 314.14 425.63 314.24 425.48 314.33 425.32 314.43 425.17 314.52 425.02 314.62 424.87 314.72 424.72 314.81 424.57 314.91 424.42 315 424.27 315.1 424.12 315.2 423.97 315.29 423.82 315.39 423.66 315.48 423.51 315.58 423.36 315.68 423.21 315.77 423.06 315.87 422.91 315.96 422.76 316.06 422.61 316.15 422.46 316.25 422.31 316.35 422.16 316.44 422.01 316.54 421.85 316.63 421.7 316.73 421.55 316.82 421.4 316.92 421.25 317.01 421.1 317.11 420.95 317.2 420.8 317.3 420.65 317.4 420.5 317.49 420.35 317.59 420.2 317.68 420.05 317.78 419.89 317.87 419.74 317.97 419.59 318.06 419.44 318.16 419.29 318.25 419.14 318.35 418.99 318.44 418.84 318.54 418.69 318.63 418.54 318.73 418.39 318.82 418.23 318.92 418.08 319.01 417.93 319.11 417.78 319.2 417.63 319.3 417.48 319.39 417.33 319.48 417.18 319.58 417.03 319.67 416.88 319.77 416.59 319.95 416.37 320.14 416.21 320.28 416.05 320.42 415.89 320.55 415.73 320.69 415.56 320.84 415.48 320.91 415.35 321.03 415.21 321.16 415.07 321.29 414.93 321.41 414.79 321.54 414.65 321.67 414.51 321.79 414.37 321.92 414.23 322.05 414.09 322.18 413.95 322.3 413.81 322.43 413.67 322.56 413.53 322.68 413.39 322.81 413.25 322.94 413.11 323.06 412.94 323.22 412.84 323.29 412.74 323.33 412.46 323.38 412.24 323.43 411.75 323.53 411.27 323.62 411.05 323.67 410.63 323.75 410.21 323.84 409.79 323.92 409.37 324.01 408.99 324.08 408.62 324.16 408.4 324.2 408.24 324.23 407.86 324.3 407.62 324.35 407.62 324.35 407.45 324.39 407.39 324.4 407.36 324.39 407.33 324.38 407.28 324.35 407.15 324.22 407.05 324.18 407 324.15 406.96 324.11 406.92 324.08 406.88 324.02 406.88 323.98 406.9 323.94 406.93 323.89 406.95 323.84 406.96 323.82 406.99 323.8 407.04 323.75 407.05 323.71 407.06 323.62 407.08 323.58 407.12 323.54 407.17 323.52 407.21 323.49 407.23 323.43 407.22 323.38 407.2 323.34 407.17 323.31 407.15 323.27 407.15 323.24 407.16 323.2 407.16 323.18 407.16 323.16 407.14 323.15 407.13 323.15 407.12 323.13 407.09 323.05 407.09 322.96 407.13 322.48 407.12 322.45 407.09 322.42 407.06 322.41 406.98 322.38 406.94 322.36 406.81 322.26 406.53 322.14 405.92 322.01 405.8 322.01 405.6 321.97 405.57 321.96 405.53 321.95 405.45 321.91 405.41 321.89 405.35 321.88 405.32 321.87 405.3 321.84 405.21 321.68 405.13 321.58 405.05 321.49 404.92 321.38 404.88 321.36 404.84 321.35 404.79 321.36 404.74 321.39 404.65 321.48 404.59 321.5 404.56 321.5 404.42 321.45 404.4 321.43 404.38 321.42 404.36 321.41 404.33 321.4 404.3 321.41 404.27 321.45 404.24 321.46 404.19 321.46 404.18 321.43 404.17 321.38 404.15 321.34 404.11 321.31 404.08 321.31 404.04 321.31 403.99 321.31 403.94 321.29 403.68 321.07 403.66 321.03 403.66 320.86 403.64 320.77 403.6 320.71 403.46 320.6 403.37 320.55 403.29 320.54 403.25 320.51 403.21 320.5 403.12 320.49 403.02 320.46 402.99 320.43 402.95 320.39 402.91 320.3 402.87 320.28 402.82 320.26 402.78 320.27 402.69 320.28 402.64 320.29 402.59 320.28 402.56 320.27 402.54 320.24 402.54 320.18 402.54 320.13 402.59 319.92 402.62 319.66 402.61 319.61 402.57 319.46 402.54 319.41 402.28 319.23 402.09 319.1 401.9 318.96 401.71 318.83 401.51 318.69 401.32 318.56 401.13 318.43 400.94 318.29 400.75 318.16 400.55 318.02 400.36 317.89 400.17 317.75 400.01 317.64 399.98 317.62 399.78 317.48 399.59 317.35 399.4 317.22 399.21 317.08 399.02 316.95 398.82 316.81 398.63 316.68 398.44 316.54 398.25 316.41 398.06 316.27 397.86 316.14 397.67 316 397.48 315.87 397.29 315.73 397.1 315.6 396.9 315.46 396.71 315.33 396.52 315.19 396.33 315.05 396.14 314.92 395.94 314.78 395.75 314.65 395.56 314.51 395.37 314.38 395.18 314.24 394.98 314.1 394.79 313.97 394.6 313.83 394.41 313.7 394.21 313.56 394.02 313.42 393.83 313.29 393.64 313.15 393.45 313.02 393.25 312.88 393.06 312.74 392.89 312.62 392.71 312.49 392.53 312.37 392.36 312.24 392.18 312.11 392 311.99 391.83 311.86 391.65 311.74 391.47 311.61 391.3 311.48 391.12 311.36 390.94 311.23 390.77 311.11 390.59 310.98 390.41 310.85 390.24 310.73 389.99 310.55 389.82 310.43 389.65 310.32 389.48 310.2 389.31 310.09 389.31 310.09 389.31 310.09 389.31 310.09 388.93 309.83 388.54 309.57 388.16 309.3 387.77 309.04 387.5 308.87 387.45 308.83 387.13 308.63 386.76 308.39 386.39 308.15 386.02 307.91 385.58 307.62 385.14 307.33 384.7 307.05 384.26 306.76 383.82 306.48 383.39 306.19 382.95 305.9 382.51 305.62 382.07 305.33 381.63 305.04 381.19 304.75 380.75 304.46 380.75 304.23 380.75 304 380.75 303.76 380.75 303.53 380.75 303.38 380.75 303.23 380.75 303.08 380.75 302.93 380.75 302.78 380.75 302.63 380.75 302.48 380.75 302.33 380.75 302.18 380.75 302.03 380.75 301.88 380.75 301.73 380.75 301.58 380.75 301.43 380.75 301.28 380.75 301.13 380.75 301.02 380.76 300.95 380.79 300.9 380.83 300.87 381.11 300.71 381.21 300.63 381.31 300.58 381.34 300.55 381.42 300.41 381.45 300.39 381.53 300.35 381.56 300.33 381.71 300.19 381.86 300.09 382.11 299.98 382.19 299.93 382.39 299.73 382.62 299.57 382.76 299.45 382.87 299.39 382.9 299.37 383.03 299.23 383.11 299.19 383.21 299.2 383.31 299.22 383.36 299.22 383.41 299.21 383.46 299.19 383.71 299.21 383.91 299 384.16 298.89 384.33 298.87 384.58 298.89 384.96 299.05 385.15 298.87 385.46 298.84 385.78 298.75 386.09 298.71 386.42 298.71 386.7 298.71 386.96 298.66 387.24 298.63 387.32 298.86 387.5 298.93 387.72 298.86 387.95 298.55 388.15 298.24 388.31 297.93 388.53 297.7 388.76 297.54 389.01 297.33 389.19 297.19 389.42 297.06 389.75 296.92 390.06 296.67 390.31 296.35 390.52 296.22 390.79 296.15 391.13 296.13 391.5 296.04 391.92 295.83 391.9 295.67 391.89 295.5 392 295.4 392.12 295.2 392 295.01 392 294.96 391.99 294.91 391.97 294.86 391.94 294.84 391.86 294.8 391.82 294.76 391.76 294.67 391.73 294.63 391.69 294.62 391.66 294.64 391.59 294.7 391.55 294.72 391.52 294.72 391.49 294.69 391.48 294.65 391.5 294.6 391.54 294.52 391.55 294.46 391.53 294.26 391.54 294.22 391.57 294.18 391.69 294.09 391.86 294.08 391.89 293.41 392.04 293.33 392.13 293.36 392.22 293.35 392.86 293.23 393.34 293.09 393.73 293.03 393.64 292.78 393.49 292.37 393.61 292.3 394.02 292.27 394.42 292.16 394.73 292.17 394.87 292.18 395.03 292.18 395.2 292.19 395.39 292.2 395.58 292.21 395.77 292.22 395.97 292.23 396.16 292.24 396.34 292.25 396.51 292.25 396.66 292.26 396.8 292.27 396.91 292.27 396.99 292.28 397.04 292.28 397.06 292.28 397.23 292.29 397.32 292.27 397.36 292.17 397.35 292.12 397.31 292.09 397.27 292.07 397.23 292.07 397.14 292.11 397.11 292.11 397.1 292.06 397.11 292.05 397.14 292.02 397.16 292.01 397.17 291.98 397.17 291.96 397.17 291.93 397.18 291.9 397.21 291.66 397.24 291.57 397.26 291.52 397.3 291.48 397.34 291.46 397.43 291.44 397.51 291.41 397.58 291.35 397.71 291.21 397.68 291.15 397.06 290.68 396.92 290.62 396.84 290.56 396.54 290.06 396.64 289.99 396.66 289.97 396.67 289.95 396.68 289.93 396.68 289.9 396.69 289.84 396.69 289.78 396.68 289.73 396.64 289.69 396.57 289.64 396.52 289.59 396.47 289.53 396.44 289.44 396.4 289.37 396.29 289.26 396.27 289.17 396.27 288.91 396.29 288.85 396.32 288.78 396.36 288.63 396.4 288.58 396.43 288.51 396.41 288.42 396.32 288.18 396.29 288.15 396.25 288.12 396.18 288.1 396.14 288.07 396.13 288.03 396.14 287.99 396.16 287.96 396.19 287.94 396.21 287.91 396.22 287.87 396.23 287.84 396.2 287.77 396.18 287.64 396.19 287.51 396.29 287.08 396.3 287.03 396.29 287 396.29 286.96 396.13 286.47 396.07 286.35 395.99 286.25 396.23 285.96 396.2 285.95 396.12 285.92 395.85 285.65 395.87 285.6 395.99 285.42 396.04 285.3 396.07 285.28 396.08 285.26 396.04 285.22 395.8 285.07 395.73 285 395.61 284.93 395.58 284.89 395.57 284.85 395.57 284.82 395.56 284.78 395.53 284.76 395.43 284.75 395.36 284.71 395.29 284.64 395.2 284.58 395.14 284.55 395.1 284.5 395.08 284.43 395.07 284.32 395.12 284.31 395.13 284.31 395.14 284.31 395.15 284.31 395.15 284.33 395.22 284.29 395.3 284.31 395.38 284.34 395.45 284.36 395.59 284.34 395.64 284.36 395.66 284.36 395.68 284.36 395.72 284.33 395.92 284.27 395.98 284.22 396 284.22 396.07 284.22 396.1 284.22 396.13 284.19 396.2 284.1 396.35 284.06 396.37 284.04 396.39 283.99 396.65 283.77 396.7 283.75 396.91 283.73 396.96 283.71 396.98 283.71 396.99 283.7 397.05 283.62 397.09 283.61 397.13 283.58 397.17 283.54 397.19 283.51 397.21 283.46 397.24 283.33 397.26 283.28 397.28 283.24 397.36 283.03 397.38 283.01 397.4 282.99 397.46 282.99 397.47 282.98 397.52 282.9 397.55 282.88 397.6 282.84 397.67 282.78 397.69 282.74 397.71 282.72 397.79 282.7 397.83 282.67 397.87 282.64 397.9 282.62 397.95 282.6 397.98 282.61 397.99 282.63 398.01 282.64 398.03 282.63 398.12 282.58 398.17 282.49 398.22 282.47 398.24 282.48 398.26 282.5 398.28 282.52 398.31 282.53 398.33 282.53 398.37 282.54 398.4 282.55 398.42 282.55 398.44 282.57 398.45 282.6 398.47 282.62 398.49 282.62 398.57 282.62 398.61 282.61 398.66 282.59 398.69 282.56 398.72 282.48 398.75 282.47 398.78 282.48 398.8 282.49 398.82 282.47 398.84 282.45 398.94 282.24 398.94 282.21 398.94 282.2 398.94 282.18 398.93 282.17 398.94 282.15 398.95 282.15 398.96 282.16 398.97 282.17 398.98 282.17 399 282.17 399.05 282.17 399.07 282.17 399.17 282.13 399.23 282.11 399.25 282.13 399.27 282.16 399.29 282.17 399.31 282.18 399.33 282.19 399.34 282.22 399.32 282.25 399.33 282.28 399.37 282.32 399.42 282.35 399.58 282.39 399.68 282.43 399.73 282.44 399.75 282.43 399.82 282.41 399.91 282.36 400.01 282.3 400.08 282.23 400.16 282.07 400.18 282 400.25 281.83 400.27 281.76 400.27 281.73 400.28 281.72 400.3 281.7 400.32 281.69 400.34 281.68 400.45 281.56 400.49 281.54 400.63 281.49 400.65 281.47 400.66 281.45 400.71 281.42 400.73 281.4 400.74 281.38 400.75 281.32 400.76 281.29 400.8 281.27 400.85 281.26 400.95 281.26 401 281.25 401.04 281.22 401.07 281.19 401.23 281.08 401.32 281.05 401.36 281.02 401.39 280.98 401.43 280.96 401.47 280.95 401.64 280.93 401.67 280.93 401.7 280.91 401.78 280.86 401.92 280.82 401.95 280.8 401.97 280.77 402.03 280.74 402.05 280.71 402.06 280.69 402.07 280.67 402.08 280.64 402.1 280.62 402.13 280.6 402.23 280.58 402.32 280.52 402.48 280.52 402.52 280.51 402.61 280.46 402.67 280.45 402.76 280.45 402.81 280.45 402.86 280.43 402.99 280.36 403.03 280.36 403.07 280.36 403.17 280.4 403.22 280.41 403.27 280.41 403.36 280.38 403.77 280.36 403.81 280.36 403.83 280.35 403.88 280.32 403.9 280.32 403.92 280.32 403.97 280.33 404 280.34 404.12 280.3 404.24 280.29 404.35 280.32 404.37 280.32 404.57 280.29 405.12 280.13 405.16 280.11 405.21 280.11 405.26 280.12 405.3 280.15 405.32 280.17 405.32 280.2 405.33 280.21 405.36 280.22 405.38 280.23 405.42 280.24 405.45 280.24 405.77 280.22 405.84 280.2 406.05 280.03 406.19 279.96 406.25 279.91 406.3 279.83 406.32 279.79 406.37 279.73 406.5 279.64 406.6 279.62 406.62 279.62 406.68 279.63 406.76 279.68 406.81 279.74 406.88 279.79 406.96 279.82 407.03 279.82 407.05 279.82 407.12 279.78 407.14 279.74 407.15 279.7 407.15 279.63 407.18 279.63 407.32 279.69 407.4 279.72 407.67 279.73 407.72 279.73 407.8 279.7 407.85 279.69 407.87 279.69 407.89 279.67 407.9 279.65 407.91 279.64 407.94 279.63 407.98 279.64 408.01 279.64 408.09 279.6 408.22 279.46 408.29 279.41 408.48 279.35 408.59 279.34 408.67 279.35 408.75 279.41 408.79 279.41 408.81 279.41 408.86 279.4 408.94 279.39 408.95 279.4 409.06 279.41 409.1 279.43 409.19 279.38 409.22 279.38 409.25 279.38 409.3 279.41 409.33 279.41 409.36 279.4 409.42 279.36 409.45 279.35 409.48 279.36 409.55 279.39 409.58 279.39 409.84 279.35 409.87 279.36 409.9 279.37 409.94 279.39 409.96 279.4 409.98 279.42 410.06 279.42 410.09 279.43 410.16 279.4 410.18 279.4 410.25 279.4 410.41 279.41 410.57 279.39 410.61 279.4 410.97 279.55 411.01 279.59 411.02 279.61 411.05 279.62 411.08 279.62 411.1 279.62 411.12 279.63 411.14 279.67 411.15 279.68 411.19 279.69 411.23 279.71 411.27 279.72 411.32 279.71 411.27 279.85 411.28 279.89 411.35 279.94 411.61 280.07 411.68 280.09 411.76 280.09 411.91 280.07 412.03 280.04 412.05 280.03 412.11 280.03 412.12 280.03 412.15 279.99 412.17 279.98 412.26 279.94 412.3 279.91 412.33 279.81 412.36 279.77 412.4 279.73 412.44 279.71 412.54 279.68 412.58 279.66 412.66 279.59 412.71 279.57 412.77 279.57 412.92 279.6 413.01 279.6 413.38 279.51 413.74 279.38 413.82 279.33 413.87 279.26 413.87 279.2 413.86 279.16 413.86 279.11 413.89 279.06 413.91 279.04 414 278.98 414.03 278.94 414.05 278.92 414.12 278.88 414.22 278.85 414.33 278.85 414.41 278.88 414.49 278.94 414.51 278.95 414.51 278.98 414.51 279 414.52 279.01 414.54 279.01 414.57 279.03 414.59 279.14 414.63 279.18 414.66 279.17 414.7 279.19 414.74 279.21 414.79 279.22 415.12 279.24 415.15 279.25 415.19 279.28 415.23 279.31 415.25 279.34 415.25 279.38 415.32 279.41 415.4 279.41 415.46 279.41 415.66 279.35 415.72 279.32 415.76 279.33 415.81 279.34 415.86 279.35 415.89 279.33 415.91 279.3 416 279.22 416.03 279.2 416.05 279.19 416.06 279.16 416.08 279.13 416.09 279.1 416.08 279.07 416.07 279.05 415.98 278.95 415.92 278.9 415.92 278.88 415.94 278.88 415.99 278.86 416.01 278.86 416.03 278.87 416.07 278.89 416.09 278.9 416.1 278.9 416.11 278.9 416.12 278.91 416.13 278.92 416.14 278.91 416.16 278.89 416.17 278.88 416.18 278.88 416.2 278.89 416.24 278.91 416.26 278.92 416.28 278.91 416.34 278.88 416.37 278.88 416.37 278.88 416.37 278.89 416.39 278.92 416.4 278.95 416.41 278.97 416.44 278.98 416.49 278.98 416.51 278.98 416.53 278.99 416.56 278.97 416.6 278.96 416.68 279.02 416.75 279.09 416.82 279.14 416.92 279.16 416.94 279.16 416.96 279.15 416.98 279.14 417.01 279.15 417.04 279.16 417.06 279.17 417.08 279.19 417.1 279.21 417.2 279.2 417.23 279.19 417.27 279.15 417.29 279.13 417.27 279.18 417.24 279.25 417.23 279.3 417.27 279.34 417.23 279.41 417.23 279.41 417.31 279.47 417.44 279.51 417.53 279.53 417.84 279.45 417.9 279.42 417.94 279.38 418.25 279.23 418.29 279.25 418.33 279.29 418.37 279.32 418.47 279.31 418.52 279.32 418.56 279.34 418.6 279.32 418.62 279.34 418.65 279.36 418.68 279.38 418.76 279.38 418.84 279.38 419.07 279.28 419.07 279.28 419.08 279.35 419.07 279.38 419.08 279.41 419.16 279.53 419.16 279.56 419.12 279.59 418.96 279.65 418.89 279.67 418.8 279.66 418.72 279.67 418.65 279.71 418.63 279.75 418.71 279.79 418.76 279.85 418.74 279.94 418.69 280.04 418.64 280.1 418.37 280.26 418.23 280.31 418.16 280.35 418.11 280.42 418.11 280.51 418.11 280.51 418.2 280.55 418.39 280.57 418.43 280.6 418.47 280.61 418.51 280.63 418.53 280.68 418.53 280.73 418.53 280.84 418.52 280.88 418.52 280.9 418.41 281.19 418.4 281.3 418.41 281.36 418.43 281.41 418.44 281.46 418.42 281.51 418.39 281.55 418.34 281.75 418.34 281.9 418.33 281.94 418.28 282.11 418.27 282.32 418.28 282.44 418.3 282.53 418.41 282.71 418.45 282.8 418.46 282.88 418.48 283.11 418.48 283.19 418.4 283.38 418.38 283.48 418.37 283.58 418.39 283.69 418.44 283.78 418.52 283.82 418.61 283.85 418.69 283.91 418.67 283.97 418.53 284.17 418.43 284.29 418.4 284.38 418.36 284.58 418.31 284.72 418.29 284.83 418.29 284.93 418.33 285.2 418.32 285.24 418.31 285.26 418.3 285.26 418.23 285.34 418.21 285.38 418.2 285.42 418.26 285.51 418.24 285.54 418.16 285.59 418.15 285.61 418.13 285.66 418.12 285.68 418.1 285.7 418.05 285.73 417.96 285.81 417.94 285.83 417.73 285.92 417.64 285.99 417.45 286.07 417.36 286.14 417.32 286.23 417.23 286.55 417.21 286.59 417.19 286.62 417.14 286.64 417 286.67 416.92 286.71 416.86 286.77 416.8 286.85 416.71 286.94 416.66 286.99 416.63 287.06 416.63 287.26 416.58 287.52 416.59 287.63 416.62 287.77 416.64 287.82 416.7 287.94 416.72 288.08 416.74 288.15 416.88 288.39 417.05 288.69 417.09 288.79 417.09 288.8 417.09 289.15 417.12 289.28 417.18 289.34 417.26 289.36 417.37 289.37 417.45 289.4 417.7 289.58 417.74 289.6 417.78 289.61 417.83 289.62 417.88 289.61 417.93 289.64 418.14 289.96 418.36 290.32 418.39 290.4 418.42 290.77 418.44 291.04 418.47 291.12 418.47 291.13 418.53 291.19 418.8 291.37 419.16 291.62 419.62 291.96 419.99 292.23 420.02 292.26 420.05 292.31 420.09 292.5 420.1 292.53 420.16 292.81 420.22 293.1 420.29 293.38 420.35 293.67 420.41 293.95 420.47 294.24 420.54 294.52 420.6 294.8 420.66 295.09 420.72 295.37 420.79 295.65 420.85 295.94 420.91 296.22 420.98 296.5 421.04 296.78 421.1 297.06 Z" id="Algeria" transform="translate(-380.75,-278.8500061035156) "/></svg>