<svg xmlns="http://www.w3.org/2000/svg" viewBox="0 0 798 480"><path d="M 403.24 93.12 422.43 77.8 414.67 84.27 403.24 93.12 Z M 423.72 65.94 438.82 61.4 505.25 58.38 517.33 61.19 527.68 70.9 540.84 76.72 562.62 74.78 596.7 65.29 666.79 88.16 698.5 85.78 699.36 89.02 676.71 113.83 678.22 135.83 756.08 154.82 786.49 152.01 799 165.82 736.89 176.17 700.87 187.82 687.93 243.7 669.38 284.25 670.03 308.85 664.63 326.54 642.2 345.74 625.17 351.13 597.99 340.34 571.89 338.83 553.56 320.07 536.74 342.93 534.58 371.84 536.52 385.22 522.29 397.73 500.5 396.43 489.07 400.96 477.43 399.89 466.43 407.65 452.19 403.55 413.16 405.06 396.55 399.02 373.04 411.53 365.06 421.89 360.53 436.99 348.88 433.11 330.55 417.58 325.16 417.36 318.04 418.22 308.98 428.58 314.81 440.66 304.46 445.4 300.57 451.01 299.5 472.59 241.69 475.39 212.58 481 174.4 473.23 92.45 467.41 81.66 463.96 65.49 450.58 71.31 450.37 70.02 440.87 60.53 429.44 72.82 415.2 56.86 405.93 58.8 381.98 42.41 368.39 11.78 364.07 26.02 343.15 63.98 339.48 119.19 306.04 138.39 314.24 122.64 309.06 111.21 299.36 99.78 278.43 86.62 270.66 82.09 254.91 83.82 246.72 64.62 237.22 56 234.85 20.2 247.36 1 247.8 11.78 231.83 12 222.34 26.88 202.49 66.57 185.23 66.13 173.8 41.76 166.03 29.25 149.85 31.63 139.71 58.15 139.07 73.04 129.36 75.62 115.77 96.98 111.67 123.72 101.31 141.84 89.88 142.7 71.33 136.88 54.5 140.54 38.54 151.97 24.73 154.13 12.22 162.33 1.86 177.21 5.75 202.23 19.55 257.01 15.67 300.36 1 338.53 7.26 348.45 11.14 364.84 37.03 404.74 55.15 412.51 63.56 423.72 65.94 Z" fill-rule="evenodd" transform="translate(-1,-1) "/></svg>