<svg xmlns="http://www.w3.org/2000/svg" viewBox="0 0 27.470001220703125 30.69000244140625"><path d="M 426.02 404.23 426.02 404.26 425.97 404.21 425.94 404.14 425.87 403.92 425.87 403.85 425.89 403.83 425.94 403.79 425.98 403.8 425.98 403.91 425.99 403.96 425.99 404.06 425.99 404.14 426.02 404.23 Z M 453.13 391.03 453.14 391.14 453.16 391.18 453.2 391.24 453.21 391.27 453.19 391.32 453.19 391.36 453.19 391.48 453.18 391.57 453.19 391.6 453.23 391.61 453.22 391.93 453.24 391.98 453.34 392.2 453.34 392.23 453.32 392.26 453.25 392.31 453.22 392.34 453.22 392.37 453.22 392.4 453.22 392.45 453.22 392.49 453.21 392.51 453.15 392.61 453.11 392.7 453.1 392.74 453.1 392.8 453.12 392.84 453.14 392.89 453.16 392.94 453.17 393.11 453.18 393.16 453.17 393.19 453.13 393.3 453.11 393.59 453.1 393.9 453.11 394 453.16 394.07 453.21 394.13 453.24 394.19 453.25 394.33 453.27 394.43 453.26 394.47 453.24 394.5 453.17 394.61 453.07 394.76 453.04 394.83 453 394.98 452.96 395.15 452.92 395.25 452.9 395.34 452.92 395.41 452.97 395.48 453.09 395.6 453.14 395.66 453.18 395.74 453.2 395.82 453.13 395.82 452.85 395.82 452.58 395.82 452.3 395.82 452.03 395.82 451.75 395.82 451.48 395.82 451.2 395.82 450.93 395.82 450.65 395.82 450.37 395.82 450.1 395.82 449.82 395.82 449.55 395.82 449.27 395.82 449 395.82 448.72 395.82 448.72 396.16 448.72 396.5 448.72 396.84 448.72 397.18 448.72 397.39 448.72 397.52 448.72 397.86 448.72 398.21 448.72 398.55 448.72 398.89 448.72 399.23 448.72 399.58 448.72 399.92 448.73 400.26 448.73 400.61 448.73 400.95 448.73 401.29 448.73 401.39 448.73 401.43 448.73 401.5 448.73 401.6 448.73 401.84 448.73 402.07 448.72 402.3 448.72 402.54 448.72 402.64 448.73 402.65 448.73 402.79 448.73 402.93 448.73 402.97 448.73 403.02 448.79 403.09 448.87 403.22 448.81 403.22 448.79 403.22 448.82 403.25 448.82 403.28 448.83 403.31 448.84 403.34 448.85 403.35 448.87 403.38 448.88 403.39 448.89 403.41 448.89 403.46 448.89 403.47 448.96 403.49 449 403.51 449 403.54 448.98 403.57 448.96 403.61 448.95 403.65 448.94 403.69 448.95 403.72 448.99 403.78 449 403.81 449 403.84 449 403.87 449.01 403.89 449.05 403.89 449.07 403.91 449.08 403.94 449.09 403.98 449.1 404.01 449.29 404.17 449.32 404.18 449.34 404.17 449.37 404.16 449.4 404.16 449.4 404.15 449.41 404.14 449.42 404.15 449.44 404.17 449.45 404.17 449.51 404.18 449.53 404.21 449.54 404.24 449.58 404.28 449.59 404.31 449.6 404.32 449.62 404.33 449.65 404.34 449.67 404.35 449.69 404.37 449.85 404.62 449.87 404.69 449.89 404.72 449.93 404.74 450 404.76 450.02 404.79 450.03 404.81 450.03 404.85 450.04 404.87 450.05 404.88 450.08 404.88 450.21 404.93 450.24 404.95 450.34 405.06 450.39 405.12 450.42 405.18 450.44 405.29 450.46 405.33 450.49 405.35 450.56 405.39 450.65 405.47 450.71 405.51 450.84 405.56 450.95 405.59 450.98 405.61 451.07 405.71 451.09 405.74 451.1 405.8 451.15 405.87 451.2 405.93 451.25 405.97 451.35 406.01 451.37 406.04 451.38 406.07 451.38 406.11 451.38 406.14 451.4 406.17 451.44 406.18 451.48 406.18 451.52 406.17 451.56 406.16 451.63 406.17 451.66 406.18 451.69 406.19 451.74 406.23 451.78 406.28 451.83 406.32 451.81 406.35 451.82 406.38 451.83 406.41 451.64 406.45 451.19 406.54 450.74 406.63 450.29 406.72 449.83 406.81 449.28 406.91 448.72 407.02 448.16 407.13 447.61 407.23 447.45 407.27 447.41 407.28 447.39 407.27 447.36 407.23 447.29 407.19 447.17 407.15 447.07 407.09 447.03 407.08 446.94 407.09 446.91 407.08 446.87 407.09 446.83 407.11 446.79 407.12 446.76 407.1 446.55 407.16 446.52 407.16 446.35 407.21 446.32 407.27 446.24 407.29 446.18 407.31 446.12 407.32 446.07 407.27 446.01 407.24 445.97 407.23 445.95 407.25 445.93 407.26 445.9 407.25 445.86 407.24 445.85 407.22 445.81 407.2 445.73 407.19 445.64 407.19 445.59 407.21 445.56 407.2 445.49 407.15 445.42 407.11 445.4 407.09 445.35 407.04 445.3 407 445.25 406.98 445.19 406.99 445.1 406.92 445.08 406.91 445 406.92 444.97 406.92 444.95 406.91 444.87 406.97 444.82 406.95 444.76 406.95 444.71 406.96 444.68 406.99 444.66 406.97 444.63 406.99 444.6 406.99 444.54 406.99 444.41 407 444.39 407 444.31 406.97 444.23 406.93 443.88 406.93 443.86 406.93 443.84 406.98 443.83 406.99 443.79 406.99 443.74 406.97 443.69 406.95 443.67 406.93 443.65 406.89 443.61 406.88 443.56 406.89 443.43 406.91 443.05 406.92 442.7 406.81 442.66 406.79 442.56 406.8 442.5 406.78 442.47 406.78 442.43 406.79 442.35 406.82 442.16 406.83 441.87 406.78 441.68 406.68 441.59 406.66 441.56 406.63 441.51 406.58 441.39 406.44 441.37 406.43 441.32 406.41 441.3 406.39 441.29 406.36 441.28 406.32 441.27 406.31 441.16 406.21 441.13 406.19 441.12 406.17 441.05 406.02 440.99 406.01 440.99 406 440.98 405.98 440.95 405.89 440.93 405.88 440.92 405.87 440.91 405.85 440.91 405.83 440.89 405.83 440.77 405.83 440.2 405.83 439.9 405.83 439.63 405.83 439.06 405.83 438.49 405.83 438.3 405.83 437.93 405.83 437.36 405.83 436.79 405.83 436.22 405.83 435.65 405.83 435.08 405.83 434.51 405.83 434.49 405.83 433.95 405.83 433.38 405.83 432.81 405.83 432.24 405.83 431.67 405.83 431.52 405.83 431.52 405.83 431.49 405.83 431.49 405.84 431.47 405.89 431.42 405.89 431.32 405.88 431.31 405.88 431.27 405.9 431.25 405.91 431.22 405.91 431.19 405.9 431.14 405.89 431.1 405.88 431.07 405.88 431.05 405.88 431.02 405.91 430.99 405.91 430.94 405.9 430.91 405.88 430.8 405.74 430.78 405.72 430.57 405.6 430.36 405.48 430.16 405.32 429.97 405.22 429.99 405.15 429.97 405.11 429.94 405.08 429.91 404.99 429.88 404.96 429.83 404.94 429.78 404.93 429.74 404.92 429.66 404.87 429.62 404.85 429.58 404.86 429.53 404.88 429.52 404.88 429.5 404.87 429.47 404.87 429.41 404.9 429.41 404.88 429.39 404.89 429.36 404.89 429.31 404.88 429.29 404.87 429.27 404.85 429.26 404.84 429.23 404.85 429.19 404.82 429.14 404.83 429.09 404.84 428.85 404.88 428.73 404.95 428.66 404.97 428.62 404.99 428.57 405 428.56 405.03 428.55 405.05 428.54 405.07 428.52 405.09 428.48 405.1 428.47 405.11 428.45 405.12 428.43 405.16 428.41 405.18 428.34 405.2 428.24 405.25 428.16 405.31 428.12 405.33 428.06 405.34 428.01 405.36 427.91 405.45 427.86 405.48 427.83 405.48 427.75 405.46 427.62 405.45 427.58 405.43 427.53 405.4 427.5 405.41 427.47 405.43 427.44 405.44 427.3 405.44 427.14 405.45 427.13 405.44 427.12 405.42 427.11 405.4 427.09 405.39 427.07 405.38 427.04 405.37 427.02 405.36 427.01 405.34 427 405.32 427 405.31 426.99 405.29 426.98 405.28 426.96 405.27 426.95 405.28 426.94 405.29 426.91 405.29 426.83 405.27 426.81 405.26 426.8 405.26 426.78 405.26 426.77 405.26 426.66 405.28 426.56 405.31 426.47 405.35 426.37 405.43 426.28 405.47 426.24 405.5 426.22 405.52 426.22 405.53 426.21 405.54 426.17 405.55 426.15 405.54 426.11 405.52 426.08 405.52 426.08 405.52 426.08 405.5 426.06 405.49 426.05 405.46 426.05 405.43 426.05 405.4 426.07 405.32 426.07 405.01 426.09 404.81 426.11 404.63 426.09 404.47 426.09 404.4 426.13 404.39 426.14 404.49 426.16 404.53 426.2 404.43 426.2 404.26 426.21 404.2 426.19 403.98 426.21 403.74 426.11 402.87 426.11 402.82 426.12 402.78 426.17 402.68 426.12 402.58 426.02 402.41 426.01 402.31 426.05 402.18 426.08 402.16 426.12 402.13 426.17 402.11 426.19 402.12 426.2 402.16 426.22 402.18 426.25 402.17 426.37 402.06 426.39 402.02 426.39 401.99 426.39 401.93 426.4 401.9 426.45 401.84 426.58 401.76 426.61 401.71 426.62 401.64 426.66 401.47 426.69 401.41 426.67 401.35 426.67 401.28 426.7 401.15 426.73 400.88 426.74 400.85 426.76 400.82 426.83 400.75 426.85 400.74 426.88 400.76 426.9 400.76 426.92 400.74 426.93 400.7 426.93 400.66 426.92 400.63 426.88 400.61 426.86 400.62 426.85 400.62 426.85 400.57 426.88 400.5 426.94 400.36 426.95 400.28 426.96 400.25 426.98 400.22 427 400.2 427.02 400.18 427.03 400.14 427.06 400.02 427.06 399.99 427.06 399.97 427.08 399.95 427.09 399.95 427.11 399.96 427.12 399.95 427.14 399.92 427.16 399.86 427.2 399.79 427.2 399.74 427.19 399.7 427.19 399.66 427.2 399.63 427.21 399.58 427.25 399.41 427.26 399.23 427.27 399.2 427.31 399.14 427.33 399.06 427.36 398.91 427.37 398.77 427.36 398.69 427.33 398.62 427.32 398.58 427.31 398.56 427.31 398.54 427.31 398.53 427.3 398.51 427.3 398.49 427.3 398.48 427.31 398.48 427.32 398.48 427.34 398.47 427.36 398.47 427.37 398.46 427.38 398.44 427.39 398.42 427.39 398.4 427.39 398.38 427.37 398.35 427.34 398.32 427.33 398.29 427.36 398.23 427.38 398.18 427.42 398.13 427.43 398.1 427.44 398.06 427.45 398.03 427.49 397.97 427.49 397.95 427.5 397.87 427.5 397.83 427.52 397.8 427.57 397.79 427.59 397.78 427.6 397.77 427.62 397.77 427.65 397.79 427.66 397.8 427.68 397.8 427.71 397.75 427.73 397.67 427.74 397.43 427.74 397.21 427.74 397.18 427.78 397.12 427.78 397.09 427.76 397.06 427.76 397.05 427.76 397.04 427.77 397.03 427.77 396.96 427.76 396.92 427.74 396.85 427.74 396.81 427.74 396.78 427.76 396.74 427.78 396.72 427.81 396.71 427.86 396.7 427.88 396.69 427.89 396.66 427.92 396.63 427.95 396.61 427.98 396.6 428.01 396.59 428.02 396.55 428.03 396.53 428.02 396.51 428.01 396.5 428.01 396.48 428.02 396.47 428.04 396.44 428.04 396.43 428.06 396.39 428.12 396.36 428.13 396.33 428.14 396.31 428.15 396.31 428.17 396.32 428.18 396.32 428.22 396.29 428.22 396.29 428.26 396.27 428.29 396.25 428.43 396.06 428.5 396.02 428.52 395.99 428.56 395.93 428.69 395.77 428.73 395.71 428.73 395.65 428.7 395.59 428.67 395.53 428.66 395.46 428.68 395.4 428.78 395.3 428.84 395.26 428.98 395.13 429.04 395.1 429.06 395.08 429.1 395.01 429.11 394.99 429.18 394.94 429.21 394.92 429.26 394.91 429.26 394.92 429.31 394.93 429.33 394.94 429.4 394.87 429.43 394.86 429.47 394.87 429.51 394.9 429.54 394.91 429.62 394.9 429.69 394.85 429.79 394.74 429.84 394.7 429.86 394.67 429.87 394.64 429.87 394.55 429.88 394.5 429.9 394.46 429.94 394.4 430.08 394.26 430.09 394.26 430.09 394.28 430.07 394.29 430.05 394.3 430.05 394.32 430.06 394.34 430.1 394.31 430.14 394.23 430.21 394.15 430.23 394.12 430.29 393.94 430.35 393.81 430.38 393.74 430.4 393.58 430.42 393.54 430.45 393.51 430.48 393.47 430.5 393.43 430.52 393.38 430.55 393.16 430.57 393.09 430.58 393.04 430.54 392.64 430.55 392.39 430.56 392.34 430.58 392.3 430.56 392.28 430.56 392.26 430.57 392.23 430.58 392.2 430.58 392.08 430.58 392.06 430.59 392.03 430.63 391.98 430.64 391.95 430.64 391.89 430.69 391.57 430.7 391.44 430.7 391.27 430.69 391.19 430.65 391.12 430.46 390.83 430.44 390.78 430.44 390.75 430.46 390.71 430.52 390.63 430.53 390.59 430.51 390.56 430.49 390.52 430.39 390.44 430.38 390.42 430.37 390.4 430.16 390.14 430.02 390.03 429.99 389.98 429.98 389.94 429.97 389.79 429.96 389.74 429.94 389.69 429.83 389.53 429.8 389.48 429.77 389.37 429.74 389.32 429.65 389.23 429.52 389.02 429.53 388.99 429.55 388.96 429.56 388.91 429.54 388.82 429.49 388.72 429.43 388.63 429.26 388.42 429.24 388.38 429.25 388.34 429.3 388.29 429.32 388.25 429.31 388.21 429.3 388.17 429.28 388.13 429.26 388.12 429.27 388.09 429.19 387.88 429.19 387.84 429.2 387.74 429.19 387.71 429.14 387.63 429.13 387.58 429.08 387.54 428.92 387.26 428.85 387.12 428.81 387.05 428.8 386.93 428.88 386.75 429.01 386.6 429.12 386.56 429.07 386.63 428.91 386.76 428.83 386.94 428.82 387 428.85 387.03 428.87 387.01 428.99 386.8 429 386.78 429.01 386.75 429.04 386.75 429.07 386.74 429.09 386.74 429.12 386.71 429.15 386.64 429.17 386.59 429.23 386.53 429.24 386.51 429.24 386.49 429.24 386.43 429.25 386.41 429.31 386.34 429.35 386.31 429.39 386.3 429.28 386.41 429.26 386.45 429.29 386.43 429.36 386.4 429.4 386.37 429.42 386.37 429.43 386.36 429.44 386.33 429.44 386.32 429.44 386.31 429.45 386.3 429.47 386.3 429.61 386.32 429.66 386.3 429.69 386.18 429.72 386.1 429.73 386.07 429.72 386.03 429.65 385.94 429.63 385.88 429.6 385.73 429.57 385.66 429.6 385.65 429.63 385.65 429.64 385.65 429.66 385.63 429.66 385.6 429.67 385.44 429.66 385.39 429.64 385.34 429.43 385.01 429.4 384.99 429.37 384.89 429.35 384.86 429.34 384.83 429.31 384.77 429.29 384.75 429.26 384.67 429.24 384.56 429.09 384.3 428.79 383.62 428.68 383.36 428.62 383.14 428.56 383.08 428.53 383.04 428.48 382.99 428.5 382.91 428.48 382.85 428.45 382.41 428.43 382.34 428.42 382.31 428.42 382.3 428.41 382.29 428.41 382.28 428.41 382.27 428.43 382.25 428.43 382.24 428.44 382.22 428.45 382.21 428.45 382.2 428.44 382.19 428.37 382.23 428.33 382.21 428.17 381.99 427.98 381.81 427.82 381.58 427.62 381.21 427.54 381.03 427.48 380.9 427.42 380.82 427.36 380.74 427.31 380.67 427.22 380.51 427.21 380.44 427.24 380.4 427.29 380.38 427.34 380.36 427.32 380.39 427.32 380.45 427.37 380.45 427.45 380.43 427.56 380.42 427.7 380.39 427.77 380.35 427.82 380.33 427.89 380.32 428 380.26 428.03 380.25 428.08 380.25 428.13 380.26 428.19 380.28 428.25 380.29 428.31 380.27 428.41 380.25 428.51 380.22 428.56 380.18 428.66 380.14 428.7 380.08 428.74 380.03 428.76 379.99 428.79 379.96 428.84 379.95 428.88 379.95 428.92 379.93 428.96 379.93 429.04 379.94 429.06 379.94 429.1 379.92 429.19 379.88 429.22 379.86 429.22 379.86 429.23 379.86 429.41 379.88 429.51 379.9 429.58 379.94 429.6 379.92 429.65 379.87 429.66 379.86 429.73 379.87 429.91 379.87 429.98 379.89 430 379.89 430.04 379.87 430.06 379.87 430.24 379.88 430.61 379.86 430.91 379.83 430.99 379.86 431.05 379.89 431.08 379.9 431.34 379.88 431.39 379.89 431.53 379.93 431.57 379.94 431.8 379.94 432 379.95 432.1 379.93 432.24 379.96 432.31 379.97 432.59 379.92 432.72 379.92 432.8 379.92 433 379.91 433.2 379.91 433.41 379.91 433.61 379.9 433.81 379.9 434.01 379.9 434.22 379.89 434.42 379.89 434.62 379.89 434.82 379.88 435.02 379.88 435.23 379.88 435.43 379.87 435.63 379.87 435.69 379.87 435.83 379.87 436.04 379.86 436.17 379.86 436.22 379.87 436.26 379.89 436.3 379.92 436.34 379.95 436.38 379.95 436.41 379.95 436.49 379.93 436.53 379.92 436.57 379.92 436.61 379.93 436.69 379.97 436.71 379.97 436.79 380.02 436.78 380.03 436.75 380.07 436.75 380.08 436.78 380.11 436.79 380.13 436.79 380.15 436.8 380.29 436.81 380.32 436.82 380.32 436.84 380.31 436.86 380.3 436.87 380.33 436.82 380.38 436.87 380.38 436.89 380.4 436.93 380.46 436.96 380.47 436.99 380.48 437.01 380.49 437.02 380.52 437.06 380.57 437.08 380.6 437.07 380.63 437.06 380.66 437.05 380.69 437.05 380.86 437.06 380.88 437.06 380.9 437.07 380.92 437.06 380.94 437.05 380.95 437.03 380.95 437.01 380.96 437 380.98 437 381.06 437.01 381.07 437.02 381.09 437.03 381.1 437.05 381.1 437.06 381.1 437.06 381.13 437.05 381.16 437.03 381.19 437.03 381.21 437.08 381.21 437.07 381.25 437.07 381.27 437.08 381.29 437.1 381.31 437.12 381.34 437.12 381.36 437.09 381.4 437.09 381.44 437.09 381.48 437.13 381.55 437.14 381.59 437.14 381.67 437.15 381.71 437.17 381.75 437.29 381.92 437.3 381.95 437.3 381.99 437.31 382.02 437.34 382.04 437.36 382.05 437.42 382.05 437.44 382.06 437.49 382.1 437.52 382.15 437.54 382.28 437.53 382.29 437.53 382.31 437.53 382.33 437.55 382.34 437.57 382.34 437.58 382.36 437.59 382.37 437.6 382.39 437.62 382.43 437.62 382.46 437.6 382.5 437.6 382.55 437.53 382.53 437.52 382.59 437.57 382.73 437.56 382.85 437.57 382.87 437.6 382.88 437.62 382.91 437.66 382.96 437.66 383 437.66 383.03 437.67 383.06 437.73 383.08 437.81 383.13 437.87 383.16 437.89 383.18 437.9 383.21 437.9 383.24 437.9 383.29 437.91 383.32 437.95 383.34 437.96 383.31 437.98 383.31 437.99 383.31 438.01 383.32 438.05 383.34 438.07 383.35 438.08 383.36 438.07 383.38 438.04 383.39 438.02 383.4 438.01 383.42 438.01 383.45 438.03 383.46 438.05 383.47 438.07 383.49 438.1 383.54 438.13 383.65 438.17 383.7 438.27 383.75 438.32 383.78 438.31 383.83 438.32 383.86 438.32 383.91 438.32 383.95 438.36 383.93 438.36 383.95 438.37 383.95 438.37 383.96 438.36 383.97 438.39 383.98 438.39 384 438.38 384.02 438.37 384.04 438.38 384.07 438.42 384.11 438.43 384.13 438.44 384.14 438.49 384.14 438.52 384.16 438.52 384.18 438.52 384.2 438.53 384.22 438.57 384.22 438.57 384.24 438.55 384.26 438.56 384.26 438.59 384.26 438.62 384.27 438.62 384.3 438.62 384.32 438.63 384.34 438.66 384.33 438.69 384.36 438.68 384.38 438.66 384.4 438.65 384.43 438.65 384.44 438.67 384.46 438.72 384.48 438.71 384.5 438.71 384.51 438.71 384.51 438.72 384.53 438.73 384.52 438.74 384.51 438.75 384.5 438.77 384.57 438.78 384.59 438.81 384.61 438.85 384.63 438.87 384.65 438.88 384.69 438.85 384.75 438.87 384.78 438.87 384.79 438.89 384.81 439.01 384.84 439.08 384.83 439.26 384.77 439.33 384.77 439.41 384.8 439.43 384.8 439.57 384.72 439.61 384.72 439.68 384.72 439.75 384.76 439.86 384.85 439.92 384.86 440.12 384.86 440.1 384.8 440.11 384.74 440.13 384.69 440.17 384.67 440.2 384.66 440.29 384.62 440.33 384.61 440.49 384.62 440.6 384.62 440.68 384.65 440.71 384.65 440.75 384.64 440.8 384.62 440.83 384.61 440.97 384.61 440.98 384.61 441.03 384.61 441.01 384.53 441.02 384.49 441.05 384.47 441.2 384.47 441.38 384.47 441.54 384.47 441.56 384.48 441.57 384.54 441.58 384.57 441.62 384.62 441.71 384.62 442 384.62 442.28 384.62 442.56 384.62 442.84 384.62 442.9 384.62 442.86 384.45 442.85 384.39 442.86 384.32 442.89 384.22 442.91 384.15 442.95 384.02 442.96 383.96 442.96 383.91 442.94 383.85 442.92 383.79 442.9 383.73 442.91 383.67 443.06 383.68 443.1 383.67 443.13 383.64 443.16 383.55 443.19 383.51 443.19 383.51 443.19 383.51 443.19 383.51 443.25 383.46 443.26 383.39 443.2 383.24 443.18 383.17 443.17 383.1 443.2 382.74 443.22 382.67 443.24 382.63 443.31 382.55 443.32 382.51 443.31 382.49 443.27 382.4 443.39 382.4 443.48 382.4 443.58 382.4 443.67 382.4 443.76 382.4 443.85 382.4 443.95 382.4 444.04 382.4 444.13 382.4 444.23 382.4 444.25 382.4 444.32 382.4 444.41 382.4 444.51 382.4 444.6 382.4 444.69 382.4 444.79 382.4 444.88 382.4 444.99 382.4 444.99 382.37 445 382.3 445.01 382.26 445.02 382.23 445.04 382.22 445.07 382.21 445.18 382.21 445.37 382.21 445.56 382.21 445.69 382.21 445.64 382.35 445.58 382.5 445.54 382.59 445.5 382.71 445.48 382.82 445.48 382.92 445.49 383.03 445.59 383.03 445.75 383.03 445.91 383.03 446.07 383.03 446.24 383.03 446.4 383.03 446.56 383.03 446.72 383.03 446.88 383.03 447.04 383.03 447.2 383.03 447.36 383.03 447.53 383.03 447.69 383.03 447.85 383.03 448.01 383.03 448.17 383.02 448.24 383.02 448.29 383.03 448.29 383.03 448.3 383.04 448.31 383.05 448.33 383.06 448.34 383.08 448.39 383.18 448.41 383.2 448.42 383.22 448.41 383.24 448.4 383.25 448.4 383.26 448.41 383.29 448.42 383.3 448.44 383.32 448.44 383.35 448.44 383.36 448.43 383.38 448.43 383.39 448.43 383.41 448.45 383.43 448.46 383.44 448.45 383.47 448.43 383.51 448.43 383.54 448.43 383.57 448.43 383.58 448.44 383.59 448.44 383.61 448.44 383.7 448.44 383.71 448.4 383.75 448.4 383.76 448.39 383.8 448.38 383.83 448.37 383.87 448.34 383.95 448.31 384.03 448.3 384.08 448.27 384.15 448.26 384.19 448.24 384.29 448.26 384.34 448.26 384.37 448.25 384.39 448.22 384.44 448.21 384.46 448.22 384.61 448.23 384.65 448.25 384.67 448.32 384.71 448.34 384.73 448.34 384.79 448.36 384.83 448.38 384.87 448.44 384.94 448.45 384.97 448.46 385 448.46 385.1 448.49 385.2 448.5 385.24 448.57 385.31 448.59 385.35 448.57 385.36 448.56 385.37 448.54 385.39 448.57 385.45 448.62 385.54 448.64 385.63 448.63 385.73 448.58 385.9 448.59 385.9 448.6 385.91 448.61 385.91 448.62 385.91 448.58 385.99 448.56 386.05 448.53 386.22 448.51 386.36 448.5 386.37 448.48 386.45 448.46 386.5 448.44 386.68 448.44 386.79 448.41 387.05 448.44 387.27 448.44 387.36 448.41 387.46 448.35 387.6 448.33 387.67 448.31 387.72 448.31 387.75 448.32 387.77 448.35 387.82 448.37 387.84 448.39 387.93 448.42 388.13 448.44 388.22 448.5 388.31 448.64 388.46 448.67 388.54 448.68 388.53 448.72 388.52 448.73 388.51 448.74 388.59 448.76 388.65 448.89 388.8 448.91 388.81 448.93 388.8 448.94 388.79 448.97 388.8 449.01 388.83 449.09 388.89 449.12 388.92 449.14 388.97 449.16 389.05 449.2 389.17 449.22 389.27 449.23 389.29 449.22 389.37 449.26 389.47 449.31 389.57 449.35 389.67 449.4 389.77 449.42 389.83 449.45 389.87 449.46 389.9 449.46 389.92 449.45 389.97 449.44 389.99 449.43 390.02 449.38 390.11 449.37 390.15 449.37 390.2 449.4 390.23 449.42 390.26 449.44 390.31 449.45 390.4 449.45 390.44 449.45 390.49 449.45 390.57 449.49 390.63 449.48 390.64 449.47 390.65 449.48 390.74 449.47 390.78 449.45 390.8 449.41 390.8 449.36 390.82 449.26 390.86 449.22 390.89 449.17 390.93 449.13 390.98 449.13 391.02 449.15 391.05 449.2 391.21 449.2 391.3 449.21 391.31 449.24 391.33 449.25 391.34 449.26 391.38 449.29 391.45 449.31 391.49 449.33 391.69 449.33 391.78 449.29 391.87 449.35 391.87 449.39 391.84 449.49 391.74 449.52 391.72 449.74 391.64 449.81 391.59 449.88 391.41 449.96 391.4 450.13 391.46 450.21 391.5 450.29 391.52 450.38 391.53 450.46 391.52 450.51 391.49 450.56 391.45 450.6 391.43 450.66 391.43 450.7 391.46 450.79 391.51 450.83 391.53 450.92 391.54 451.02 391.54 451.24 391.51 451.42 391.47 451.66 391.34 451.81 391.26 451.9 391.23 451.99 391.23 452.08 391.23 452.22 391.27 452.41 391.32 452.48 391.33 452.57 391.32 452.65 391.33 452.74 391.36 452.83 391.38 452.91 391.35 452.92 391.33 452.94 391.28 452.95 391.26 452.97 391.24 453.02 391.21 453.04 391.19 453.06 391.15 453.07 391.09 453.09 391.05 453.13 391.03 Z M 428.98 377.17 428.96 377.23 428.88 377.26 428.45 377.36 428.38 377.4 428.34 377.44 428.32 377.48 428.3 377.53 428.3 377.58 428.28 377.61 428.18 377.67 428.15 377.7 428.13 377.74 428.12 377.78 428.1 377.8 428.05 377.82 427.97 377.83 427.95 377.84 427.94 377.89 427.9 377.97 427.82 378.02 427.63 378.09 427.62 378.09 427.6 378.09 427.59 378.09 427.57 378.11 427.57 378.13 427.58 378.16 427.59 378.18 427.6 378.19 427.73 378.24 427.76 378.26 427.78 378.33 427.77 378.5 427.76 378.69 427.75 378.95 427.74 379.23 427.74 379.37 427.73 379.58 427.57 379.57 427.36 379.57 427.17 379.6 427.07 379.66 427.07 379.66 427.07 379.66 426.96 379.48 426.93 379.34 426.98 379.2 427 379.17 427.03 379.17 427.05 379.16 427.08 379.15 427.11 379.13 427.11 379.1 427.11 379.03 427.11 379 427.07 378.92 427.04 378.85 426.98 378.7 426.98 378.64 426.89 378.48 426.88 378.38 426.75 378.24 426.65 378.07 426.65 378.05 426.68 378.06 426.72 378.06 426.75 378.07 426.76 378.09 426.78 378.14 426.82 378.15 426.86 378.12 426.88 378.09 426.89 378.06 426.91 378.05 426.9 378 426.89 377.98 426.87 377.98 426.85 377.97 426.83 378 426.83 378.03 426.83 378.08 426.82 378.09 426.8 378.08 426.79 378.04 426.78 378.02 426.76 378.01 426.75 378.03 426.73 378.03 426.7 378.02 426.67 378.02 426.62 378.01 426.64 377.99 426.89 377.78 426.95 377.68 427.02 377.46 427.03 377.45 427.05 377.45 427.07 377.46 427.09 377.49 427.12 377.54 427.14 377.52 427.17 377.51 427.21 377.5 427.28 377.49 427.31 377.48 427.34 377.45 427.43 377.27 427.44 377.22 427.44 377.13 427.46 377.1 427.52 377.11 427.55 377.1 427.7 377.05 427.95 377.01 427.98 377 428.01 376.97 428.06 376.88 428.09 376.85 428.12 376.82 428.16 376.8 428.19 376.76 428.21 376.71 428.24 376.66 428.29 376.63 428.32 376.64 428.33 376.65 428.38 376.67 428.41 376.67 428.44 376.67 428.47 376.66 428.49 376.65 428.53 376.67 428.56 376.72 428.6 376.82 428.64 376.87 428.73 376.94 428.88 377.11 428.98 377.17 Z" fill-rule="evenodd" id="Angola" transform="translate(-425.8699951171875,-376.6300048828125) "/></svg>