<svg xmlns="http://www.w3.org/2000/svg" viewBox="0 0 798 1701"><path d="M 1 1695.03 1.46 1695.03 1.46 1695.49 1 1695.49 1 1695.03 Z M 345.42 202.88 353.78 231.92 350.53 250.04 342.87 212.64 342.87 202.42 345.42 202.88 Z M 310.58 32.59 319.64 37.01 316.39 51.41 324.06 68.84 322.89 75.11 312.44 84.17 311.98 93.93 316.39 105.54 325.45 114.6 312.44 111.35 306.64 89.28 302.22 86.26 298.28 71.39 284.81 70.69 283.41 75.81 289.92 94.62 300.83 104.15 306.64 93.93 304.08 108.79 318.95 116.46 321.5 130.63 330.56 133.19 328.7 148.75 333.11 151.31 332.42 156.42 343.56 167.57 347.28 166.87 342.17 175.93 344.03 195.91 331.25 162.23 315.69 148.75 305.48 113.21 284.11 92.53 268.55 83.7 264.83 76.5 284.81 60.24 301.53 33.29 310.58 32.59 Z M 363.54 1 398.37 39.1 416.95 65.58 420.9 60.24 423.46 63.49 440.88 59.78 453.18 74.64 458.99 68.14 477.57 66.75 486.16 80.45 504.74 97.88 513.1 115.3 526.81 126.22 529.83 133.88 550.5 146.2 584.87 180.35 597.64 200.33 609.25 228.2 615.76 275.13 622.72 288.84 622.26 300.45 626.67 304.87 622.72 310.67 624.81 318.57 619.01 321.83 616.92 334.6 608.56 342.97 608.56 357.14 613.67 372 606 387.57 606.7 395.24 615.06 404.3 613.67 416.61 625.98 426.83 622.26 432.64 596.95 412.66 586.03 408.94 576.97 410.8 553.75 400.35 550.5 402.9 559.55 406.85 560.25 410.8 553.05 414.52 551.19 423.58 542.83 433.34 541.44 404.99 525.41 381.07 498.94 365.04 477.11 364.34 458.29 346.22 437.62 337.16 421.6 322.99 413.7 326.94 415.1 320.43 409.29 321.83 398.37 315.79 384.67 317.18 333.81 346.92 327.31 344.36 324.06 337.16 327.31 319.04 345.42 267.46 349.37 268.86 347.28 277.92 351.23 280.47 362.14 279.78 371.2 272.57 378.87 275.13 386.07 271.41 391.17 260.96 391.17 250.04 390.01 235.17 384.67 227.51 403.48 191.27 406.74 191.96 401.63 184.3 402.79 180.35 398.84 182.2 398.84 176.63 391.17 173.84 390.48 170.12 387.23 171.98 389.32 162.23 385.37 163.62 381.65 155.26 385.37 155.95 384.67 150.61 390.01 148.75 394.43 140.39 391.87 124.82 395.82 112.05 391.87 113.21 380.26 105.54 366.09 83.7 359.59 91.37 356.34 87.42 334.97 83.7 340.31 80.92 336.36 75.81 328 83.7 321.5 80.45 325.45 73.95 326.15 66.05 317.78 50.02 321.5 38.4 320.8 29.34 324.75 26.79 334.97 30.74 338.92 24.93 350.53 29.34 354.48 23.53 350.53 20.28 347.28 25.63 346.12 17.03 344.73 22.84 340.31 23.53 342.87 14.47 337.06 12.62 342.17 6.11 363.54 1 Z M 385.37 136.44 386.76 148.75 384.67 149.45 383.51 143.64 380.26 144.8 380.26 135.97 385.37 136.44 Z M 460.85 1300.1 465.49 1312.87 473.16 1321.93 489.88 1327.05 488.02 1338.2 490.58 1341.91 496.38 1341.22 491.97 1347.02 493.83 1352.37 528.66 1370.26 522.16 1383.27 515.66 1381.87 517.75 1378.62 511.94 1376.06 507.99 1382.57 513.8 1383.27 509.39 1386.52 511.25 1392.33 492.43 1401.39 493.83 1410.91 498.94 1406.5 502.89 1407.66 497.08 1416.25 507.3 1408.36 518.91 1406.5 518.21 1415.56 522.86 1419.97 518.21 1423.22 517.52 1435.54 501.96 1435.54 522.16 1436.7 535.17 1427.17 543.53 1429.03 535.17 1438.09 557 1434.84 557.7 1416.72 555.14 1412.3 547.94 1414.16 547.24 1410.45 556.3 1402.08 566.06 1398.83 567.45 1394.18 572.56 1394.18 578.83 1386.52 578.83 1378.15 586.73 1375.6 586.03 1383.96 591.84 1389.77 591.84 1393.49 587.89 1393.02 572.56 1408.36 580.92 1430.43 588.58 1427.87 590.67 1413.7 593.69 1416.25 602.75 1412.3 611.81 1413.7 621.56 1402.55 626.67 1405.8 633.18 1402.08 635.03 1390.24 642.23 1388.38 642.7 1391.63 650.59 1391.63 655.7 1396.04 654.54 1400.69 639.68 1407.66 630.62 1417.42 590.67 1427.87 598.34 1440.65 629.23 1438.09 626.67 1443.2 631.32 1442.74 637.59 1448.31 625.28 1455.52 629.23 1463.88 621.56 1467.13 619.24 1489.67 616.92 1495.24 629.92 1471.54 664.06 1463.18 653.15 1477.58 657.56 1479.44 671.96 1468.52 669.87 1480.14 672.43 1480.14 674.52 1469.69 682.88 1473.64 678.23 1465.97 688.68 1467.13 691.93 1464.58 684.73 1465.27 685.43 1461.32 678.93 1461.32 679.63 1457.37 682.88 1458.77 680.79 1453.66 687.99 1459.46 692.4 1453.66 696.35 1456.91 704.01 1454.12 705.4 1459.46 710.51 1458.07 709.82 1465.97 711.91 1460.63 722.82 1465.97 729.33 1456.91 743.49 1458.07 727.24 1467.13 726.77 1470.38 734.44 1465.97 738.38 1468.52 745.35 1458.07 750.46 1458.07 742.8 1475.49 731.18 1478.05 732.58 1480.61 739.54 1479.44 739.54 1487.11 734.44 1492.92 736.29 1503.84 726.07 1500.58 720.27 1503.37 722.13 1497.56 718.41 1497.56 715.62 1487.81 715.62 1503.37 709.82 1501.98 704.71 1509.18 687.99 1509.18 691.93 1512.2 687.99 1513.59 691.93 1518.7 677.07 1531.02 669.17 1531.02 673.12 1536.13 691.24 1521.96 697.74 1520.8 701.46 1525.21 699.6 1529.62 706.57 1532.88 706.57 1537.52 715.62 1533.57 715.62 1540.08 721.43 1541.24 730.02 1534.97 736.99 1536.82 744.19 1527.76 749.3 1529.16 746.74 1538.68 753.71 1541.94 746.05 1544.49 750 1545.19 752.55 1551.69 762.07 1552.39 749.3 1557.5 751.16 1567.72 759.52 1570.97 750 1585.15 755.8 1587.93 760.91 1585.15 760.91 1587.93 750 1598.16 747.91 1592.35 739.54 1589.79 736.99 1602.57 723.52 1604.66 723.52 1611.63 734.44 1613.02 731.88 1619.53 717.71 1617.44 718.41 1625.8 700.3 1621.39 673.12 1623.25 657.1 1617.44 622.72 1596.76 610.65 1594.21 604.84 1598.16 597.87 1593.97 589.98 1545.42 606.24 1494.54 589.75 1545.89 567.68 1545.42 589.98 1545.42 597.87 1594.21 595.78 1603.27 601.59 1609.07 599.5 1616.28 606 1619.53 607.86 1633.7 613.67 1634.86 615.06 1639.51 620.17 1638.11 620.17 1642.76 626.67 1646.01 629.23 1652.28 620.17 1670.41 615.76 1663.9 618.31 1658.09 611.11 1658.09 607.86 1663.44 620.17 1676.91 620.87 1689.22 613.2 1692.47 607.86 1680.63 598.34 1682.02 600.2 1685.97 607.4 1684.58 607.4 1689.22 591.14 1700.84 578.83 1697.59 572.56 1702 562.8 1695.49 557.7 1697.59 554.44 1689.69 560.25 1689.22 558.39 1682.02 551.89 1681.32 553.05 1687.13 543.53 1686.67 537.72 1695.03 525.41 1691.78 524.02 1683.88 515.66 1683.41 513.8 1678.07 528.66 1667.85 532.38 1660.65 536.33 1662.04 535.17 1653.68 540.28 1649.73 536.33 1645.32 524.02 1646.01 522.16 1649.03 520.3 1645.32 510.55 1646.48 511.94 1649.73 504.74 1652.98 501.49 1663.9 495.69 1668.55 501.49 1681.32 486.63 1669.24 468.51 1667.85 466.65 1661.34 453.88 1664.6 451.09 1661.34 444.82 1662.04 437.62 1639.97 443.89 1611.17 424.62 1579.11 420.67 1570.51 443.89 1611.17 437.62 1629.29 437.86 1644.62 444.82 1662.04 440.18 1676.21 438.32 1673.66 431.12 1673.66 428.1 1677.61 419.04 1676.21 415.1 1680.16 393.73 1682.72 390.01 1687.13 386.76 1683.41 390.01 1680.63 391.17 1669.24 388.62 1666.46 392.57 1661.34 387.23 1658.09 383.51 1658.79 378.4 1668.55 373.76 1662.74 365.4 1667.85 361.45 1666.46 364.23 1658.09 360.29 1655.54 329.4 1656.93 329.4 1647.17 324.75 1643.92 317.55 1648.57 313.84 1643.92 294.56 1642.76 273.89 1646.01 269.25 1643.22 269.25 1638.81 262.74 1640.67 261.58 1634.86 255.08 1634.16 256.47 1626.5 246.72 1609.77 246.02 1596.3 251.13 1603.27 255.08 1599.32 253.22 1592.35 256.94 1594.21 256.94 1591.65 252.52 1586.54 250.67 1593.51 246.02 1594.21 241.61 1588.4 241.61 1577.48 237.66 1579.34 236.96 1574.92 242.77 1574.23 245.32 1568.42 252.52 1568.42 260.88 1544.49 259.03 1534.27 251.83 1529.16 244.86 1531.71 243.47 1526.6 248.58 1523.35 265.99 1532.88 267.39 1541.94 271.1 1542.63 269.94 1524.05 269.25 1530.32 265.53 1531.71 260.19 1527.07 264.14 1520.8 255.08 1525.21 256.47 1517.54 252.52 1511.74 242.07 1514.99 237.66 1509.18 224.65 1509.18 220.94 1513.59 218.38 1507.09 223.49 1503.84 225.35 1496.87 235.8 1494.78 239.52 1499.42 247.41 1498.73 254.38 1488.97 276.44 1492.92 284.81 1472.24 289.92 1471.08 292.47 1463.18 291.77 1454.82 283.64 1451.57 301.53 1441.34 278.3 1454.12 255.77 1456.91 253.68 1460.63 242.07 1457.37 234.41 1466.43 227.91 1467.83 220.24 1462.02 230.69 1451.57 224.19 1448.31 225.35 1442.74 233.71 1436.23 233.25 1432.28 236.27 1434.14 239.05 1430.43 238.36 1414.16 249.27 1413.47 255.08 1405.1 267.39 1404.64 265.99 1397.44 255.08 1398.83 252.52 1395.58 266.69 1392.33 273.19 1392.33 279 1397.44 282.95 1394.88 287.36 1404.64 300.83 1401.39 309.19 1409.05 308.73 1414.86 315 1417.42 322.2 1414.16 325.45 1418.11 335.67 1412.3 337.06 1417.42 347.28 1422.53 355.18 1418.11 361.45 1422.53 351.92 1407.66 330.56 1403.94 331.25 1399.3 342.87 1401.39 344.73 1393.49 329.4 1389.07 315.69 1393.49 315.69 1389.07 328 1376.06 325.45 1372.35 327.31 1365.15 338.22 1349.12 339.62 1341.91 335.67 1336.11 340.31 1334.94 341.01 1337.5 351.23 1331 357.03 1322.63 355.64 1308.93 366.09 1307.07 367.25 1301.96 372.59 1303.12 390.01 1292.9 414.4 1305.21 460.85 1300.1 Z M 486.16 1491.76 482.91 1511.97 477.57 1546.81 463.64 1548.21 445.29 1566.79 468.28 1547.05 521.7 1550.07 478.5 1546.58 479.43 1521.26 485.23 1507.09 486.16 1491.76 Z M 363.31 1527.53 384.21 1493.85 382.35 1488.97 366.79 1478.75 383.98 1490.83 363.31 1527.53 Z M 549.33 1347.02 554.44 1357.48 551.89 1365.15 546.08 1352.83 549.33 1347.02 Z M 564.66 1320.77 570.47 1326.35 573.72 1324.49 572.56 1320.77 579.53 1325.88 589.98 1326.35 592.53 1336.8 584.17 1337.5 577.67 1344.47 574.42 1342.61 573.72 1350.28 570 1342.61 558.39 1350.28 552.59 1342.61 558.39 1334.25 556.3 1328.44 560.95 1325.19 560.25 1317.99 566.06 1317.52 564.66 1320.77 Z M 669.17 1434.84 659.65 1445.29 646.65 1445.29 638.98 1449.01 640.84 1439.49 650.59 1443.9 651.29 1439.49 655.01 1442.04 655.7 1438.09 661.51 1439.95 669.17 1434.84 Z M 628.07 1376.06 627.37 1382.57 631.78 1381.87 629.23 1387.21 624.12 1383.27 624.12 1376.76 628.07 1376.06 Z M 644.09 1349.12 642.7 1362.59 640.14 1360.03 638.29 1363.98 633.87 1363.98 637.12 1360.73 634.34 1356.08 641.54 1358.18 640.84 1350.28 644.09 1349.12 Z M 746.74 1599.32 746.74 1602.57 742.8 1604.66 742.1 1598.16 746.74 1599.32 Z M 774.38 1573.07 766.02 1576.09 766.02 1569.12 773.69 1568.42 774.38 1573.07 Z M 764.16 1525.21 767.41 1528.46 791.8 1530.32 793.89 1534.97 799 1534.27 799 1538.22 781.58 1542.63 780.88 1532.41 774.38 1533.57 772.52 1538.68 766.02 1536.13 766.02 1532.41 755.8 1533.57 757.66 1525.21 764.16 1525.21 Z M 648.04 1463.88 646.65 1466.43 639.68 1468.52 643.39 1461.32 648.04 1463.88 Z M 682.88 1446.45 696.35 1447.85 698.9 1450.4 689.84 1453.66 684.04 1449.01 675.68 1451.57 675.68 1446.45 682.88 1446.45 Z" fill-rule="evenodd" transform="translate(-1,-1) "/></svg>