<svg xmlns="http://www.w3.org/2000/svg" viewBox="0 0 44.16998291015625 96.8599853515625"><path d="M 247.82 512.34 247.84 512.22 247.84 512.01 247.87 512.03 247.92 512.14 247.94 512.17 247.98 512.22 248 512.25 248.01 512.31 247.96 512.34 247.82 512.34 Z M 257.38 511.69 257.42 511.71 257.46 511.69 257.47 511.71 257.48 511.71 257.49 511.71 257.5 511.72 257.53 511.73 257.6 511.71 257.64 511.72 257.66 511.74 257.69 511.78 257.72 511.81 257.74 511.81 257.76 511.77 257.75 511.73 257.75 511.7 257.78 511.69 257.8 511.7 257.83 511.74 257.85 511.74 257.87 511.73 257.89 511.71 257.9 511.69 257.93 511.69 257.94 511.71 257.97 511.8 257.99 511.82 258.01 511.82 258.08 511.76 258.32 511.69 258.4 511.72 258.38 511.74 258.43 511.76 258.48 511.71 258.52 511.69 258.55 511.74 258.5 511.78 258.48 511.81 258.47 511.84 258.44 511.92 258.42 511.94 258.39 511.95 258.35 511.96 258.32 511.97 258.21 512.07 258.18 512.07 258.15 512.06 258.17 512.02 258.21 511.94 258.22 511.91 258.2 511.86 258.18 511.85 258.15 511.87 258.12 511.91 258.08 511.94 258.05 511.95 257.97 511.95 257.96 511.94 257.95 511.94 257.93 511.95 257.91 511.97 257.91 511.99 257.9 512.01 257.9 512.03 257.84 512.06 257.64 512.1 257.62 512.14 257.59 512.16 257.56 512.15 257.53 512.11 257.53 512.07 257.55 512.01 257.58 511.92 257.54 511.93 257.52 511.93 257.5 511.95 257.47 511.92 257.44 511.93 257.39 511.98 257.27 512.06 257.25 512.08 257.21 512.14 257.18 512.16 257.15 512.18 257.11 512.19 257.03 512.19 257.04 512.17 257.04 512.16 257.05 512.15 257.06 512.14 257.06 512.11 257.03 512.11 257.01 512.12 256.99 512.13 256.97 512.16 256.98 512.17 257 512.19 256.97 512.22 256.86 512.27 256.84 512.3 256.81 512.37 256.79 512.4 256.75 512.41 256.63 512.41 256.6 512.4 256.59 512.36 256.61 512.34 256.63 512.31 256.65 512.27 256.45 512.14 256.46 512.06 256.51 512.02 256.56 511.98 256.59 511.94 256.62 511.9 256.69 511.93 256.8 512.01 256.84 512 256.98 511.94 257.01 511.9 256.89 511.77 256.87 511.71 256.93 511.69 256.95 511.71 257 511.79 257.03 511.82 257.11 511.85 257.13 511.84 257.17 511.8 257.19 511.8 257.21 511.79 257.23 511.8 257.25 511.82 257.26 511.86 257.26 511.92 257.27 511.94 257.28 511.95 257.31 511.95 257.31 511.93 257.31 511.9 257.3 511.88 257.3 511.81 257.3 511.76 257.3 511.71 257.33 511.65 257.35 511.66 257.38 511.69 Z M 247.84 511.95 247.85 510.92 247.85 509.9 247.86 508.89 247.86 507.89 247.86 506.89 247.87 505.9 247.87 504.92 247.88 503.94 247.88 503.94 247.95 503.99 247.97 504.02 248.01 504.14 248.03 504.18 248.17 504.39 248.32 504.65 248.36 504.7 248.51 504.84 248.58 504.94 248.63 505.05 248.68 505.19 248.76 505.58 248.77 505.64 248.76 505.69 248.73 505.66 248.71 505.58 248.65 505.31 248.59 505.28 248.55 505.29 248.49 505.32 248.42 505.37 248.36 505.44 248.25 505.58 248.11 505.7 248.04 505.87 248.02 506 248.05 506.14 248.14 506.25 248.27 506.36 248.36 506.36 248.46 506.4 248.61 506.44 248.85 506.41 249.02 506.53 249.06 506.64 249.1 506.72 249.08 506.84 249.09 506.88 249.12 506.95 249.14 507.12 249.16 507.19 249.28 507.43 249.3 507.48 249.72 507.95 249.88 508.07 249.93 508.13 249.93 508.19 249.91 508.24 249.97 508.24 250.02 508.22 250.09 508.27 250.25 508.36 250.27 508.4 250.2 508.42 250.18 508.48 250.19 508.57 250.22 508.63 250.82 509.18 251.17 509.44 251.42 509.56 251.57 509.66 251.61 509.73 251.69 509.78 252 509.92 252.14 510.06 252.25 510.28 252.47 510.5 252.53 510.6 252.61 510.64 252.63 510.74 252.71 510.77 252.77 510.78 252.86 510.81 253.06 510.94 253.82 511.32 253.85 511.33 253.92 511.34 253.95 511.35 254.02 511.42 254.05 511.43 254.21 511.44 254.37 511.49 254.9 511.4 255.02 511.42 255.08 511.42 255.23 511.35 255.57 511.4 255.6 511.43 255.58 511.48 255.54 511.53 255.5 511.56 255.49 511.59 255.42 511.8 255.43 511.82 255.44 511.86 255.45 511.88 255.38 511.95 255.36 511.98 255.36 512.01 255.37 512.06 255.38 512.09 255.33 512.12 255.26 512.19 255.24 512.21 255.18 512.45 255.15 512.48 255.12 512.5 255.09 512.51 255.05 512.49 255.04 512.46 255.04 512.42 255.03 512.37 254.97 512.34 254.89 512.34 254.84 512.38 254.86 512.45 254.81 512.52 254.63 512.51 254.55 512.53 254.53 512.56 254.52 512.6 254.51 512.64 254.48 512.66 254.43 512.67 254.4 512.66 254.37 512.63 254.34 512.58 254.34 512.56 254.35 512.51 254.34 512.48 254.33 512.45 254.32 512.43 254.29 512.43 254.25 512.42 254.21 512.42 254.12 512.46 253.97 512.4 253.92 512.44 253.77 512.4 253.73 512.44 253.76 512.5 253.81 512.55 253.77 512.62 253.71 512.68 253.56 512.72 253.44 512.76 253.26 512.75 253 512.76 252.88 512.8 252.88 512.87 252.88 512.93 252.76 512.96 252.7 512.98 252.5 512.98 252.3 512.9 252.24 512.86 252.19 512.81 252.15 512.75 252.12 512.71 251.92 512.56 251.86 512.54 251.6 512.51 251.41 512.42 250.75 512.37 250.28 512.3 250 512.32 249.42 512.25 249.09 512.19 248.99 512.1 248.78 512.08 248.66 512.01 248.6 511.98 248.57 512.02 248.58 512.11 248.57 512.14 248.54 512.18 248.11 512.21 248.06 512.2 248.02 512.16 247.95 512.06 247.86 511.95 247.84 511.95 Z M 262.48 464.66 262.42 464.73 262.38 464.83 262.33 464.89 262.26 464.89 262.21 464.87 262.22 464.78 262.2 464.73 262.14 464.77 262.08 464.77 262.04 464.73 262.08 464.68 262.13 464.59 262.14 464.48 262.18 464.34 262.22 464.34 262.28 464.34 262.36 464.34 262.42 464.41 262.46 464.49 262.5 464.57 262.48 464.66 Z M 262.53 464.2 262.52 464.25 262.5 464.19 262.47 464.11 262.42 464.04 262.32 463.89 262.27 463.78 262.3 463.63 262.34 463.63 262.41 463.65 262.48 463.68 262.53 463.76 262.53 463.88 262.52 464.04 262.53 464.2 Z M 262.75 460.83 262.76 460.83 262.77 460.81 262.77 460.78 262.78 460.77 262.8 460.79 262.83 460.85 262.87 460.99 262.88 461.04 262.86 461.08 262.81 461.08 262.77 461.06 262.73 461.04 262.7 461 262.56 460.95 262.51 460.91 262.47 460.88 262.38 460.74 262.35 460.69 262.35 460.64 262.39 460.64 262.48 460.68 262.7 460.73 262.74 460.8 262.75 460.83 Z M 262.56 460.44 262.63 460.49 262.64 460.53 262.62 460.56 262.59 460.58 262.54 460.58 262.5 460.56 262.38 460.46 262.34 460.49 262.3 460.49 262.28 460.45 262.3 460.4 262.48 460.41 262.56 460.44 Z M 256.53 417.06 256.55 417.05 256.59 417.04 256.61 417.03 256.63 417.04 256.68 417.05 256.72 417.08 256.77 417.1 256.81 417.11 256.83 417.13 256.89 417.2 256.91 417.23 256.93 417.28 256.93 417.32 256.92 417.35 256.89 417.38 256.87 417.44 256.89 417.48 256.94 417.51 256.97 417.54 256.97 417.56 256.96 417.61 256.96 417.63 256.97 417.65 257.01 417.68 257.02 417.69 257.03 417.75 257.06 417.79 257.18 417.91 257.18 417.95 257.16 417.97 257.15 417.99 257.14 418.02 257.13 418.04 257.12 418.09 257.12 418.12 257.13 418.15 257.14 418.17 257.16 418.17 257.18 418.19 257.24 418.32 257.27 418.34 257.32 418.36 257.34 418.41 257.35 418.48 257.34 418.54 257.36 418.57 257.37 418.68 257.41 418.7 257.41 418.67 257.46 418.49 257.48 418.44 257.48 418.27 257.58 417.91 257.61 417.85 257.72 417.74 257.78 417.67 257.94 417.24 257.96 417.22 258 417.19 258.02 417.17 258.09 416.99 258.12 416.86 258.14 416.82 258.15 416.81 258.17 416.81 258.19 416.8 258.2 416.78 258.21 416.76 258.22 416.71 258.24 416.66 258.24 416.65 258.25 416.64 258.28 416.63 258.34 416.62 258.55 416.63 258.59 416.65 258.68 416.73 258.71 416.74 258.81 416.65 258.85 416.63 258.93 416.62 259.63 416.62 260.33 416.62 260.33 416.62 260.66 416.61 260.75 416.62 260.78 416.63 260.79 416.65 260.8 416.74 260.8 416.77 260.8 416.79 260.81 416.82 260.81 416.89 260.83 416.93 260.86 416.97 260.97 417.02 261.06 417.08 261.09 417.11 261.1 417.13 261.1 417.16 261.11 417.17 261.13 417.18 261.15 417.18 261.17 417.19 261.18 417.21 261.19 417.23 261.18 417.23 261.19 417.26 261.18 417.29 261.17 417.31 261.16 417.33 261.18 417.35 261.21 417.36 261.24 417.37 261.26 417.37 261.32 417.39 261.35 417.42 261.41 417.49 261.43 417.5 261.52 417.53 261.54 417.55 261.56 417.58 261.6 417.62 261.75 417.73 261.79 417.74 261.81 417.75 261.89 417.76 261.91 417.76 261.93 417.77 261.94 417.79 261.94 417.8 261.94 417.82 261.94 417.84 261.96 417.84 261.97 417.84 261.98 417.85 262.03 417.9 262.05 417.95 262.04 417.99 262.01 418.03 262.01 418.06 262.04 418.08 262.09 418.11 262.12 418.12 262.13 418.11 262.14 418.12 262.15 418.14 262.14 418.2 262.13 418.23 262.18 418.25 262.15 418.31 262.16 418.32 262.19 418.33 262.2 418.35 262.21 418.38 262.23 418.4 262.29 418.47 262.3 418.49 262.3 418.51 262.31 418.53 262.33 418.54 262.33 418.54 262.35 418.56 262.37 418.58 262.38 418.58 262.39 418.61 262.41 418.63 262.45 418.68 262.49 418.73 262.53 418.82 262.55 418.86 262.56 418.88 262.55 418.93 262.55 418.95 262.55 418.96 262.58 419 262.66 419.09 262.91 419.24 262.93 419.26 262.98 419.33 263 419.35 263.05 419.38 263.08 419.4 263.1 419.43 263.12 419.45 263.12 419.48 263.12 419.53 263.13 419.57 263.16 419.59 263.19 419.6 263.22 419.63 263.26 419.66 263.28 419.68 263.31 419.68 263.41 419.68 263.44 419.7 263.55 419.82 263.57 419.83 263.6 419.83 263.64 419.83 263.63 419.85 263.62 419.88 263.62 419.9 263.65 419.93 263.67 419.98 263.69 420 263.74 420 263.78 420.01 263.82 420.02 263.85 420.05 263.88 420.07 263.9 420.09 263.93 420.09 263.98 420.1 264.13 420.16 264.14 420.19 264.16 420.23 264.18 420.26 264.22 420.28 264.24 420.28 264.29 420.33 264.31 420.34 264.32 420.34 264.37 420.34 264.38 420.34 264.41 420.37 264.44 420.4 264.47 420.43 264.51 420.44 264.54 420.46 264.55 420.51 264.54 420.57 264.52 420.61 264.54 420.63 264.58 420.69 264.64 420.72 264.67 420.77 264.7 420.82 264.7 420.85 264.72 420.87 264.75 420.92 264.77 420.94 264.84 420.98 264.92 420.96 265.01 421 265.08 421.06 265.14 421.1 265.19 421.11 265.25 421.1 265.38 421.1 265.4 421.11 265.45 421.15 265.47 421.15 265.57 421.15 265.6 421.15 265.62 421.16 265.66 421.18 265.68 421.18 265.68 421.2 265.72 421.27 265.73 421.28 265.81 421.28 265.85 421.3 265.93 421.35 266.06 421.38 266.14 421.38 266.16 421.38 266.19 421.4 266.23 421.43 266.25 421.45 266.27 421.45 266.34 421.45 266.52 421.47 266.68 421.47 266.74 421.46 266.84 421.42 266.89 421.42 266.93 421.43 267.72 421.95 267.81 422.04 267.85 422.09 267.86 422.11 267.89 422.12 267.94 422.12 267.98 422.15 268.02 422.15 268.04 422.17 268.06 422.19 268.09 422.21 268.14 422.24 268.18 422.26 268.2 422.27 268.21 422.29 268.21 422.31 268.22 422.33 268.27 422.36 268.36 422.43 268.38 422.46 268.42 422.54 268.46 422.59 268.53 422.61 268.56 422.65 268.58 422.66 268.62 422.66 268.63 422.67 268.65 422.69 268.67 422.71 268.76 422.74 268.82 422.78 268.87 422.8 268.96 422.86 269 422.87 269.04 422.87 269.06 422.88 269.08 422.89 269.12 422.93 269.14 422.95 269.21 422.97 269.64 423.29 269.69 423.3 269.8 423.3 269.83 423.31 269.85 423.32 269.86 423.33 269.88 423.34 269.88 423.36 269.89 423.37 270.38 423.47 270.43 423.49 270.46 423.52 270.51 423.59 270.66 423.75 270.67 423.78 270.68 423.8 270.69 423.81 270.72 423.82 270.74 423.81 270.77 423.8 270.8 423.78 270.86 423.72 270.9 423.69 270.94 423.69 271.14 423.83 271.16 423.86 271.19 423.86 271.34 423.94 271.36 423.94 271.41 423.93 271.43 423.94 271.45 423.96 271.46 423.99 271.47 424.01 271.5 424.02 271.68 424.02 271.72 424.04 271.75 424.07 271.85 424.18 271.88 424.2 271.95 424.24 271.98 424.27 272.05 424.43 272.09 424.49 272.16 424.54 272.16 424.54 272.23 424.71 272.23 424.74 272.37 424.85 272.4 424.88 272.41 424.91 272.42 424.95 272.39 425.16 272.37 425.21 272.35 425.23 272.32 425.24 272.29 425.26 272.28 425.32 272.27 425.33 272.23 425.33 272.17 425.32 272.16 425.33 272.15 425.39 272.14 425.41 272.12 425.42 272.1 425.42 272.08 425.42 272.05 425.42 272.01 425.44 271.98 425.47 271.93 425.54 271.95 425.56 271.96 425.58 271.99 425.58 272.01 425.59 271.99 425.62 271.95 425.66 271.9 425.69 271.86 425.71 271.83 425.73 271.84 425.78 271.87 425.86 271.85 425.89 271.83 425.9 271.8 425.93 271.76 425.95 271.71 425.97 271.7 425.99 271.71 426 271.76 426.02 271.76 426.05 271.75 426.08 271.74 426.09 271.66 426.16 271.64 426.19 271.74 426.22 271.74 426.26 271.72 426.3 271.46 426.49 271.39 426.53 271.24 426.58 271.22 426.61 271.2 426.69 271.18 426.74 271.16 426.77 271.15 426.75 271.14 426.74 271.12 426.73 271.1 426.72 271.1 426.76 271.13 426.79 271.16 426.8 271.2 426.83 271.2 426.86 271.16 426.89 271.11 426.91 271.07 426.92 271.06 426.94 271.06 426.98 271.07 427.05 271.06 427.09 271.05 427.13 270.98 427.26 270.96 427.3 270.97 427.33 271.02 427.38 271.02 427.41 270.98 427.43 270.98 427.45 270.97 427.49 270.96 427.53 270.95 427.57 270.96 427.61 270.97 427.62 271.02 427.66 271.04 427.68 271.06 427.71 271.07 427.73 271.05 427.74 271.02 427.77 271.01 427.78 271.01 427.81 271.02 427.83 271.03 427.85 271.04 427.87 271.03 427.89 271 427.89 270.93 427.87 270.92 427.87 270.91 427.87 270.9 427.9 270.89 427.94 270.88 428.14 270.88 428.15 270.86 428.15 270.83 428.15 270.8 428.16 270.8 428.19 270.82 428.22 270.82 428.24 270.79 428.27 270.76 428.26 270.72 428.25 270.68 428.26 270.65 428.32 270.68 428.35 270.72 428.38 270.73 428.42 270.7 428.45 270.6 428.46 270.58 428.48 270.56 428.51 270.51 428.53 270.41 428.56 270.38 428.58 270.36 428.61 270.37 428.64 270.4 428.67 270.38 428.71 270.34 428.76 270.32 428.79 270.31 428.81 270.31 428.83 270.31 428.87 270.3 428.88 270.28 428.88 270.28 428.88 270.27 428.87 270.26 428.86 270.26 428.85 270.26 428.83 270.25 428.82 270.24 428.82 270.22 428.84 270.21 428.85 270.2 428.87 270.19 428.89 270.19 428.91 270.19 428.96 270.19 429 270.18 429.02 270.07 429.04 270.02 429.07 269.99 429.12 269.97 429.19 269.99 429.22 270.02 429.25 270.07 429.3 270.1 429.34 270.1 429.39 270.09 429.52 270.09 429.52 270.1 429.51 270.3 429.42 270.91 429.37 271.15 429.4 271.18 429.4 271.31 429.38 271.38 429.38 271.38 429.38 271.43 429.39 271.56 429.41 271.56 429.41 271.63 429.44 271.66 429.45 271.75 429.47 271.76 429.47 271.85 429.5 271.85 429.5 272.08 429.55 272.1 429.56 272.1 429.56 272.46 429.74 272.5 429.76 272.51 429.76 272.57 429.77 272.79 429.73 272.85 429.73 272.86 429.74 272.91 429.75 272.93 429.76 272.96 429.8 272.98 429.81 273 429.83 273.02 429.83 273.12 429.86 273.12 429.86 273.15 429.87 273.21 429.92 273.23 429.93 273.25 429.94 273.25 429.94 273.3 429.94 273.32 429.95 273.41 429.95 273.48 429.93 273.7 429.81 273.78 429.78 273.86 429.77 273.86 429.77 273.94 429.8 274.08 429.94 274.16 429.99 274.16 429.99 274.24 429.97 274.35 429.89 274.45 429.86 274.51 429.84 274.65 429.86 274.66 429.86 274.74 429.97 274.79 430.04 274.84 430.11 274.91 430.16 274.98 430.19 274.98 430.19 275.05 430.17 275.09 430.11 275.12 430.04 275.17 429.97 275.21 429.93 275.23 429.88 275.24 429.82 275.23 429.75 275.25 429.7 275.3 429.67 275.36 429.65 275.41 429.63 275.49 429.54 275.53 429.51 275.59 429.47 275.65 429.48 275.7 429.49 275.7 429.49 275.85 429.55 275.9 429.56 275.94 429.56 275.95 429.56 276.01 429.55 276.06 429.55 276.1 429.56 276.14 429.61 276.17 429.7 276.19 429.73 276.22 429.74 276.28 429.76 276.41 429.83 276.49 429.77 276.57 429.67 276.63 429.63 276.69 429.62 276.74 429.59 276.77 429.55 276.79 429.49 276.8 429.46 276.79 429.44 276.79 429.42 276.82 429.37 276.82 429.34 276.82 429.32 276.81 429.29 276.76 429.19 276.76 429.15 276.82 429.13 276.85 429.11 276.87 429.07 276.87 429.02 276.9 428.98 276.94 428.98 277.01 428.98 277.06 428.98 277.08 428.94 277.09 428.82 277.1 428.77 277.13 428.73 277.17 428.68 277.2 428.66 277.25 428.64 277.35 428.63 277.46 428.57 277.51 428.57 277.56 428.59 277.6 428.61 277.64 428.62 277.73 428.63 277.78 428.62 277.81 428.59 277.82 428.54 277.79 428.44 277.8 428.4 277.95 428.25 277.99 428.24 278.1 428.23 278.14 428.21 278.17 428.17 278.19 428.14 278.21 428.09 278.24 427.98 278.26 427.93 278.3 427.89 278.35 427.88 278.45 427.88 278.47 427.89 278.48 427.9 278.49 427.91 278.51 427.9 278.54 427.86 278.56 427.8 278.57 427.74 278.57 427.69 278.56 427.64 278.55 427.61 278.55 427.57 278.57 427.53 278.6 427.49 278.67 427.43 278.73 427.36 278.75 427.32 278.76 427.28 278.79 427.13 278.79 427.12 278.79 427.11 278.83 427.03 278.83 426.92 278.82 426.87 278.83 426.86 278.83 426.85 278.85 426.82 278.87 426.78 278.89 426.75 278.88 426.72 278.84 426.68 278.83 426.64 278.87 426.48 278.88 426.43 278.85 426.35 278.84 426.27 278.83 426.25 278.83 426.22 278.85 426.2 278.86 426.19 278.92 426.18 278.94 426.18 278.96 426.14 278.95 426.1 278.94 425.98 278.95 425.94 278.97 425.91 278.99 425.86 279 425.81 278.98 425.78 278.93 425.72 278.92 425.68 278.91 425.64 278.87 425.51 278.87 425.44 278.9 425.42 278.97 425.42 279.01 425.4 279 425.35 278.97 425.27 278.97 425.23 279.06 425.22 279.09 425.23 279.1 425.26 279.11 425.3 279.12 425.32 279.17 425.31 279.21 425.33 279.25 425.36 279.28 425.4 279.29 425.45 279.29 425.47 279.29 425.5 279.31 425.51 279.33 425.5 279.34 425.48 279.33 425.43 279.33 425.4 279.34 425.38 279.39 425.36 279.4 425.34 279.41 425.32 279.41 425.29 279.41 425.27 279.42 425.25 279.44 425.24 279.46 425.24 279.5 425.25 279.52 425.25 279.56 425.2 279.59 425.18 279.64 425.18 279.67 425.19 279.69 425.22 279.72 425.27 279.73 425.29 279.75 425.28 279.76 425.24 279.78 425.24 279.79 425.24 279.83 425.25 279.88 425.25 279.87 425.2 279.82 425.13 279.84 425.12 279.86 425.12 279.91 425.14 279.93 425.13 279.96 425.12 280.02 425.05 280.03 425.04 280.04 425.04 280.05 425.04 280.06 425.05 280.05 425.1 280.03 425.14 280.02 425.18 280.03 425.22 280.04 425.25 280.06 425.27 280.08 425.29 280.1 425.29 280.11 425.27 280.11 425.24 280.1 425.22 280.1 425.19 280.12 425.17 280.14 425.18 280.18 425.22 280.2 425.22 280.22 425.21 280.23 425.2 280.26 425.21 280.31 425.23 280.33 425.27 280.35 425.31 280.35 425.36 280.37 425.42 280.42 425.42 280.5 425.36 280.53 425.39 280.55 425.44 280.57 425.53 280.57 425.55 280.56 425.57 280.55 425.59 280.56 425.62 280.57 425.65 280.62 425.69 280.63 425.72 280.65 425.76 280.66 425.8 280.65 425.95 280.68 426.08 280.68 426.1 280.67 426.13 280.66 426.15 280.67 426.18 280.69 426.2 280.76 426.27 280.76 426.27 280.76 426.27 280.82 426.34 280.85 426.42 280.86 426.5 280.89 426.58 281 426.73 281.04 426.81 281.05 426.91 281.02 426.99 280.93 427.12 280.91 427.2 280.94 427.43 280.94 427.5 280.94 427.5 280.9 427.53 280.89 427.55 280.88 427.56 280.89 427.59 280.89 427.61 280.9 427.63 280.91 427.62 280.9 427.66 280.87 427.75 280.87 427.79 280.88 427.89 280.88 427.93 280.86 427.98 280.85 427.99 280.82 428 280.81 428 280.8 428.03 280.81 428.06 280.83 428.07 280.85 428.08 280.86 428.09 280.86 428.11 280.85 428.15 280.85 428.17 280.85 428.18 280.88 428.18 280.89 428.18 280.92 428.28 280.94 428.42 280.94 428.5 280.91 428.59 280.81 428.79 280.8 428.81 280.79 428.82 280.75 428.82 280.74 428.83 280.73 428.86 280.74 428.93 280.73 428.97 280.72 428.98 280.69 429 280.68 429.02 280.68 429.04 280.7 429.06 280.7 429.08 280.68 429.12 280.65 429.14 280.64 429.12 280.62 429.08 280.59 429.05 280.56 429.03 280.54 429.05 280.52 429.13 280.5 429.15 280.47 429.15 280.44 429.12 280.41 429.1 280.38 429.12 280.37 429.15 280.39 429.18 280.38 429.21 280.34 429.22 280.33 429.21 280.32 429.2 280.31 429.2 280.29 429.2 280.28 429.21 280.26 429.26 280.1 429.44 280.02 429.45 279.95 429.43 279.95 429.37 279.93 429.35 279.91 429.34 279.88 429.38 279.82 429.55 279.81 429.57 279.79 429.58 279.79 429.61 279.79 429.66 279.79 429.68 279.77 429.69 279.74 429.69 279.72 429.7 279.71 429.72 279.7 429.74 279.69 429.77 279.68 429.79 279.66 429.8 279.62 429.8 279.59 429.77 279.56 429.74 279.53 429.71 279.53 429.79 279.53 429.81 279.51 429.84 279.49 429.86 279.48 429.86 279.47 429.84 279.46 429.78 279.44 429.75 279.4 429.74 279.31 429.75 279.28 429.76 279.27 429.78 279.31 429.84 279.31 429.87 279.26 429.9 279.12 429.94 279.1 429.94 279.07 429.93 279.06 429.92 279.04 429.87 279.04 429.86 279.02 429.86 279.01 429.85 278.99 429.86 278.97 429.87 278.96 429.89 278.95 429.92 278.94 429.97 278.91 430.01 278.88 430.04 278.86 430.04 278.85 429.99 278.84 429.98 278.82 429.98 278.81 430 278.8 430.02 278.8 430.06 278.8 430.08 278.79 430.09 278.77 430.1 278.75 430.11 278.7 430.1 278.68 430.1 278.58 430.13 278.57 430.13 278.57 430.12 278.55 430.11 278.55 430.1 278.54 430.1 278.54 430.08 278.55 430.07 278.56 430.06 278.54 430.03 278.52 430.04 278.48 430.06 278.47 430.09 278.45 430.14 278.44 430.2 278.43 430.25 278.38 430.27 278.33 430.27 278.31 430.28 278.31 430.37 278.3 430.48 278.29 430.54 278.28 430.56 278.23 430.58 278.12 430.68 278.06 430.69 278.02 430.68 277.98 430.66 277.94 430.65 277.9 430.67 277.93 430.71 277.99 430.77 278.03 430.82 278.02 430.85 277.98 430.85 277.93 430.82 277.91 430.83 277.86 430.83 277.84 430.84 277.84 430.85 277.82 430.92 277.77 430.91 277.73 430.87 277.69 430.85 277.65 430.87 277.61 430.91 277.59 430.95 277.51 431.02 277.48 431.03 277.46 431.02 277.41 431 277.39 431.01 277.35 431.04 277.35 431.09 277.33 431.13 277.29 431.14 277.27 431.15 277.25 431.15 277.24 431.16 277.24 431.19 277.24 431.24 277.23 431.25 277.22 431.28 277.12 431.4 277.11 431.42 277.05 431.43 277.03 431.43 277.01 431.43 277 431.41 276.99 431.4 276.96 431.42 276.95 431.43 276.93 431.49 276.92 431.5 276.89 431.52 276.88 431.53 276.87 431.55 276.86 431.57 276.86 431.58 276.83 431.59 276.8 431.58 276.8 431.56 276.8 431.54 276.79 431.52 276.74 431.51 276.72 431.54 276.7 431.58 276.7 431.58 276.68 431.61 276.66 431.62 276.57 431.71 276.43 431.76 276.37 431.8 276.38 431.86 276.41 431.88 276.5 431.92 276.53 431.93 276.56 431.94 276.58 431.97 276.61 432.04 276.58 432.15 276.57 432.19 276.54 432.22 276.52 432.24 276.5 432.23 276.49 432.18 276.46 432.13 276.37 432.11 276.28 432.1 276.22 432.09 276.12 432.13 276.08 432.16 276.09 432.22 276.1 432.24 276.1 432.35 276.09 432.37 276.08 432.38 276.06 432.4 276.05 432.4 275.97 432.41 275.91 432.44 275.84 432.46 275.82 432.5 275.82 432.54 275.82 432.59 275.82 432.69 275.78 432.74 275.64 432.84 275.46 433.08 275.38 433.13 275.28 433.15 275.23 433.17 275.21 433.21 275.2 433.43 275.15 433.52 275 433.61 274.96 433.71 274.95 433.81 274.95 433.86 274.92 433.9 274.88 433.92 274.73 433.96 274.65 434 274.57 434.06 274.5 434.13 274.44 434.22 274.42 434.25 274.41 434.29 274.41 434.33 274.42 434.36 274.4 434.41 274.37 434.52 274.34 434.56 274.3 434.59 274.27 434.61 274.2 434.65 274.18 434.67 274.16 434.68 274.15 434.7 274.14 434.73 274.13 434.75 274.13 434.78 274.13 434.8 274.09 434.82 274.08 434.85 274.06 434.88 274.06 434.91 274.05 434.93 273.88 435.08 273.86 435.12 273.84 435.14 273.76 435.21 273.73 435.25 273.7 435.33 273.63 435.4 273.62 435.43 273.6 435.46 273.44 435.63 273.4 435.67 273.35 435.68 273.26 435.68 273.16 435.7 273.07 435.73 273 435.79 272.97 435.87 272.94 436.17 272.93 436.21 272.74 436.36 272.53 436.63 272.43 436.69 272.39 436.71 272.29 436.73 272.24 436.73 272.23 436.75 272.24 436.81 272.27 436.92 272.25 437.02 272.2 437.1 271.77 437.5 271.71 437.57 271.68 437.67 271.69 437.77 271.74 437.87 271.77 437.91 271.82 438.02 271.84 438.08 271.86 438.17 271.87 438.24 271.88 438.28 271.89 438.35 271.89 438.45 271.89 438.48 271.87 438.54 271.86 438.58 271.83 438.59 271.78 438.59 271.69 438.61 271.65 438.64 271.63 438.68 271.64 438.71 271.74 438.85 271.75 438.97 271.71 439.06 271.66 439.14 271.63 439.26 271.64 439.37 271.64 439.44 271.62 439.47 271.58 439.57 271.56 439.58 271.52 439.61 271.51 439.63 271.49 439.68 271.48 439.8 271.46 439.85 271.42 439.88 271.34 439.93 271.29 439.96 271.27 440.04 271.32 440.11 271.35 440.13 271.4 440.17 271.46 440.25 271.48 440.36 271.46 440.48 271.33 440.88 271.3 440.91 271.25 440.94 271.14 440.96 271.09 440.98 271.06 441 271 441.07 270.98 441.13 271.01 441.18 271.08 441.26 271.1 441.34 271.11 441.45 271.1 441.57 271.08 441.67 271.03 441.75 271.02 441.8 271.04 441.86 271.2 442.06 271.22 442.14 271.21 442.22 271.07 442.42 271.01 442.54 270.99 442.56 270.99 442.57 270.99 442.56 270.95 442.68 270.94 442.8 270.96 443.12 271.01 443.3 271.04 443.57 271.06 443.62 271.12 443.72 271.13 443.76 271.12 443.81 271.09 443.91 271.08 443.97 271.1 444.08 271.11 444.15 271.09 444.18 271.01 444.25 270.98 444.26 270.93 444.27 270.9 444.27 270.58 444.22 270.5 444.25 270.49 444.26 270.48 444.29 270.48 444.31 270.52 444.33 270.52 444.35 270.51 444.38 270.5 444.41 270.5 444.46 270.48 444.58 270.47 444.63 270.51 444.74 270.52 444.8 270.5 444.83 270.46 444.85 270.41 444.9 270.35 444.99 270.31 445.09 270.28 445.2 270.25 445.32 270.25 445.43 270.26 445.55 270.26 445.57 270.23 445.63 270.22 445.82 270.22 445.88 270.23 445.99 270.27 446.07 270.39 446.25 270.41 446.29 270.42 446.34 270.43 446.46 270.46 446.61 270.45 446.64 270.44 446.67 270.44 446.68 270.44 446.69 270.47 446.7 270.49 446.71 270.54 446.73 270.56 446.75 270.57 446.79 270.58 446.84 270.58 446.96 270.57 447.04 270.56 447.07 270.57 447.09 270.59 447.14 270.59 447.17 270.52 447.25 270.51 447.27 270.5 447.3 270.49 447.32 270.46 447.36 270.41 447.39 270.37 447.4 270.33 447.39 270.31 447.38 270.23 447.38 270.22 447.39 270.21 447.41 270.2 447.42 270.17 447.43 270.3 447.51 270.34 447.54 270.4 447.59 270.43 447.64 270.38 447.73 270.36 447.75 270.33 447.78 270.3 447.83 270.3 447.86 270.32 447.9 270.38 447.95 270.38 447.98 270.38 448.03 270.38 448.06 270.43 448.09 270.47 448.11 270.52 448.15 270.59 448.19 270.63 448.23 270.67 448.29 270.7 448.35 270.74 448.42 270.91 448.54 271.01 448.63 271.09 448.67 271.17 448.68 271.23 448.69 271.29 448.73 271.37 448.75 271.43 448.77 271.51 448.87 271.57 448.89 271.69 448.88 271.72 448.88 271.76 448.93 271.86 449 271.97 449.1 272.13 449.16 272.31 449.31 272.49 449.38 272.57 449.46 272.66 449.53 272.88 449.74 272.95 449.85 273.05 449.96 273.1 450.01 273.2 450.18 273.29 450.34 273.35 450.46 273.37 450.53 273.33 450.65 273.25 450.75 273.15 450.88 272.93 451.22 272.87 451.31 272.84 451.41 272.83 451.48 272.8 451.59 272.78 451.68 272.8 451.78 272.82 451.88 272.82 451.96 272.83 451.99 272.84 452.02 272.88 452.05 272.89 452.08 272.89 452.09 272.95 452.24 272.96 452.3 272.97 452.32 273 452.34 273.05 452.39 273.06 452.4 273.07 452.46 273.1 452.51 273.41 452.82 273.64 452.96 273.74 452.98 273.79 453.01 273.81 453.04 273.77 453.08 273.78 453.1 273.83 453.06 273.87 453.03 273.97 452.99 274.02 452.98 274.16 452.99 274.14 452.93 274.15 452.89 274.18 452.88 274.23 452.91 274.24 452.95 274.27 453.06 274.28 453.08 274.32 453.13 274.32 453.48 274.37 453.63 274.38 453.69 274.39 454.07 274.39 454.38 274.38 454.5 274.35 454.59 274.11 454.9 273.9 455.24 273.61 455.76 273.53 455.94 273.28 456.28 273.2 456.37 272.96 456.58 272.88 456.73 272.85 456.76 272.81 456.78 272.64 457 272.57 457.11 272.52 457.22 272.48 457.33 272.46 457.45 272.45 457.57 272.45 457.59 272.47 457.62 272.48 457.64 272.48 457.66 272.47 457.69 272.46 457.7 272.47 457.78 272.46 457.81 272.41 457.91 272.33 458 272.13 458.15 271.9 458.28 271.74 458.4 271.39 458.61 271.32 458.62 271.29 458.64 271.17 458.74 271.09 458.78 270.82 458.89 270.74 458.94 270.7 458.96 270.5 458.99 270.34 459.05 270.18 459.15 269.82 459.23 269.35 459.39 269.22 459.48 269.15 459.49 269.08 459.53 268.45 459.65 267.81 459.78 267.45 459.94 267.4 459.94 267.25 459.94 266.24 460.13 265.88 460.19 265.54 460.23 265.08 460.33 264.83 460.32 264.78 460.31 264.75 460.3 264.72 460.31 264.7 460.32 264.67 460.34 264.47 460.4 264.03 460.34 263.83 460.34 263.69 460.39 263.67 460.41 263.64 460.43 263.29 460.38 263.26 460.35 263.22 460.34 263.19 460.31 263.18 460.3 263.16 460.3 263.15 460.31 263.13 460.32 263.12 460.33 263.03 460.34 262.92 460.34 262.51 460.22 262.42 460.18 262.36 460.12 262.32 460.03 262.28 459.93 262.25 459.88 262.22 459.86 261.86 459.83 261.82 459.81 261.77 459.79 261.72 459.82 261.7 459.87 261.72 459.9 261.71 459.96 261.75 460.06 261.74 460.11 261.77 460.08 261.8 460.08 261.82 460.1 261.83 460.14 261.83 460.25 261.83 460.27 261.86 460.28 261.89 460.28 261.96 460.27 261.96 460.28 261.94 460.32 261.93 460.36 261.94 460.4 261.88 460.43 261.86 460.46 261.83 460.56 261.81 460.62 261.79 460.64 261.78 460.67 261.77 460.69 261.79 460.71 261.8 460.73 261.81 460.75 261.81 460.81 261.8 460.85 261.8 460.89 261.81 460.95 261.85 460.99 261.95 461.07 262 461.12 261.96 461.12 261.94 461.11 261.88 461.08 261.84 461.12 261.87 461.15 261.91 461.17 261.97 461.18 262.14 461.19 262.19 461.2 262.37 461.29 262.46 461.36 262.51 461.43 262.52 461.47 262.51 461.5 262.49 461.53 262.47 461.55 262.44 461.57 262.42 461.56 262.41 461.55 262.39 461.53 262.35 461.51 262.22 461.4 262.18 461.34 262.17 461.32 262.16 461.29 262.15 461.28 262.13 461.27 262.12 461.27 262.11 461.28 262.1 461.28 262.06 461.27 261.94 461.28 261.94 461.31 261.95 461.33 261.96 461.36 261.98 461.38 262 461.38 262.04 461.38 262.06 461.38 262.07 461.41 262.09 461.47 262.13 461.53 262.22 461.61 262.27 461.64 262.38 461.66 262.43 461.67 262.44 461.68 262.45 461.71 262.45 461.75 262.44 461.78 262.42 461.8 262.41 461.83 262.4 462.03 262.38 462.06 262.37 462.09 262.32 462.49 262.31 462.74 262.3 462.79 262.29 462.79 262.21 462.84 262.2 462.85 262.04 462.82 261.99 462.79 261.89 462.71 261.88 462.74 261.89 462.77 261.94 462.83 261.88 462.86 261.87 462.88 261.87 462.92 261.88 462.99 261.87 463.04 261.84 463.14 261.82 463.24 261.78 463.36 261.76 463.38 261.75 463.41 261.81 463.58 261.81 463.64 261.78 463.76 261.77 463.81 261.75 463.86 261.7 463.89 261.65 463.91 261.6 463.94 261.57 463.98 261.53 464.03 261.49 464.08 261.48 464.14 261.49 464.19 261.56 464.31 261.59 464.48 261.61 464.51 261.61 464.52 261.65 464.59 261.67 464.61 261.74 464.63 261.81 464.68 261.84 464.69 261.85 464.71 261.84 464.77 261.85 464.79 261.88 464.81 261.91 464.86 261.94 464.89 261.98 464.85 262.01 464.98 262.01 465.06 261.97 465.09 261.87 465.07 261.86 465.06 261.82 465 261.8 464.99 261.8 465.02 261.8 465.04 261.81 465.06 261.82 465.08 261.84 465.11 261.83 465.13 261.82 465.15 261.81 465.15 261.84 465.19 261.85 465.2 262.03 465.1 262.09 465.07 262.16 465.07 262.14 465.1 262.06 465.16 262.04 465.2 262.04 465.24 262.02 465.33 262.01 465.38 262 465.42 261.94 465.55 261.88 465.71 261.82 465.79 261.49 465.96 261.22 466.13 261.07 466.19 261.03 466.22 260.99 466.26 260.95 466.28 260.9 466.29 260.84 466.29 260.79 466.28 260.77 466.29 260.74 466.32 260.69 466.37 260.65 466.41 260.49 466.45 260.23 466.59 260.13 466.61 259.65 466.59 259.55 466.62 259.5 466.63 259.29 466.61 258.97 466.63 258.62 466.62 258.52 466.6 258.43 466.55 258.21 466.33 258.11 466.29 258.02 466.29 257.99 466.28 257.99 466.25 258 466.22 258.02 466.18 258 466.16 257.94 466.17 257.88 466.19 257.84 466.21 257.75 466.18 257.21 465.9 256.91 465.82 256.7 465.71 256.5 465.66 256.4 465.65 256.24 465.67 256.17 465.66 256.11 465.64 256.11 465.6 256.15 465.57 256.21 465.55 256.25 465.56 256.24 465.61 256.26 465.61 256.27 465.6 256.29 465.59 256.29 465.59 256.42 465.59 256.46 465.59 256.48 465.57 256.46 465.5 256.4 465.48 256.36 465.45 256.42 465.39 256.37 465.35 256.16 465.3 256.04 465.31 255.96 465.35 255.94 465.37 255.98 465.37 256.05 465.35 256.09 465.37 256.06 465.41 256.07 465.44 256.09 465.46 256.12 465.49 255.89 465.48 255.85 465.5 255.82 465.53 255.65 465.67 255.62 465.7 255.62 465.72 255.62 465.79 255.61 465.82 255.58 465.87 255.55 465.93 255.54 466 255.53 466.07 255.53 466.19 255.59 466.69 255.68 467.03 255.68 467.12 255.74 467.29 255.75 467.38 255.78 467.47 255.9 467.61 255.94 467.7 255.93 467.78 255.91 467.88 255.88 467.97 255.85 468.03 255.83 468.11 255.86 468.22 255.92 468.39 255.92 468.49 255.88 468.62 255.78 468.83 255.75 468.96 255.76 469.06 255.8 469.14 255.91 469.38 255.98 469.48 256.06 469.56 256.23 469.68 256.26 469.69 256.31 469.68 256.34 469.69 256.35 469.7 256.39 469.73 256.44 469.76 256.5 469.78 256.54 469.79 256.66 469.79 256.71 469.8 256.75 469.84 256.8 469.87 256.85 469.87 256.9 469.84 256.96 469.83 257.02 469.84 257.05 469.84 257.07 469.86 257.1 469.9 257.1 469.92 257.04 469.95 257 469.99 256.83 470.24 256.82 470.27 256.8 470.36 256.81 470.39 256.88 470.4 257.06 470.39 257.15 470.44 257.22 470.43 257.3 470.42 257.35 470.4 257.4 470.38 257.43 470.37 257.85 470.39 257.9 470.38 257.93 470.33 257.94 470.32 258 470.26 258.02 470.23 258.02 470.21 258.02 470.16 258.02 470.14 258 470.13 258 470.11 258.01 470.1 258.02 470.09 258.03 470.08 258.03 470.07 258.03 470.03 258.01 469.97 258 469.94 257.98 469.91 257.94 469.89 257.84 469.87 257.59 469.89 257.48 469.87 257.38 469.81 257.45 469.77 257.77 469.73 258.05 469.57 258.23 469.44 258.42 469.35 258.55 469.31 258.65 469.34 258.73 469.42 258.78 469.5 258.85 469.68 258.85 469.74 258.87 469.78 258.9 469.82 258.98 469.89 259.02 470 259.04 470.12 259.03 470.42 259.07 470.87 259.04 471 258.98 471.12 258.95 471.24 258.98 471.35 258.86 471.5 258.72 471.57 258.26 471.68 258.12 471.68 258.08 471.68 257.98 471.73 257.89 471.75 257.83 471.7 257.77 471.64 257.7 471.52 257.66 471.47 257.61 471.45 257.58 471.42 257.58 471.35 257.59 471.28 257.61 471.24 257.65 471.06 257.67 471.04 257.7 471.03 257.68 471 257.64 470.96 257.63 470.95 257.59 470.94 257.58 470.92 257.57 470.9 257.56 470.9 257.48 470.85 257.45 470.82 257.44 470.76 257.42 470.72 257.37 470.69 257.27 470.65 257.16 470.62 256.93 470.61 256.77 470.64 256.72 470.66 256.66 470.69 256.61 470.74 256.53 470.75 256.5 470.77 256.49 470.78 256.39 470.92 256.35 470.96 256.31 470.98 256.2 470.99 256.09 471.02 256.04 471.06 256.01 471.1 255.99 471.16 255.96 471.21 255.89 471.29 255.87 471.34 255.89 471.41 255.92 471.45 256.01 471.47 256.08 471.53 256.23 471.58 256.5 471.71 256.57 471.76 256.66 471.84 256.7 471.87 256.77 471.89 256.82 471.92 256.85 471.93 256.88 471.93 256.94 471.91 257 471.91 257.02 471.91 257.04 471.92 257.07 471.96 257.11 471.98 257.13 472 257.17 472.03 257.23 472.03 257.41 471.95 257.43 471.95 257.44 471.96 257.46 472.04 257.45 472.08 257.41 472.13 257.14 472.31 256.88 472.41 256.44 472.54 256.04 472.82 255.97 472.91 255.93 472.96 255.88 472.99 255.85 473 255.82 473.07 255.82 473.13 255.84 473.18 255.85 473.24 255.83 473.3 255.79 473.33 255.75 473.36 255.57 473.55 255.49 473.7 255.45 473.76 255.33 473.86 255.31 473.88 255.22 474.04 255.21 474.07 255.18 474.11 255.18 474.14 255.18 474.32 255.19 474.37 255.24 474.47 255.23 474.51 255.21 474.57 255.21 474.63 255.23 474.65 255.26 474.68 255.28 474.73 255.29 474.79 255.31 474.83 255.32 474.87 255.31 474.99 255.31 475.03 255.34 475.04 255.39 475.03 255.41 475.07 255.36 475.11 255.38 475.18 255.38 475.23 255.42 475.26 255.5 475.25 255.45 475.3 255.4 475.35 255.39 475.4 255.39 475.45 255.4 475.49 255.43 475.51 255.44 475.56 255.41 475.58 255.34 475.6 255.29 475.62 255.25 475.65 255.23 475.76 255.24 475.83 255.24 475.88 255.27 475.93 255.29 475.95 255.3 475.96 255.32 475.98 255.31 476.01 255.32 476.04 255.33 476.07 255.36 476.09 255.35 476.11 255.34 476.14 255.37 476.17 255.41 476.17 255.43 476.18 255.43 476.24 255.44 476.27 255.41 476.28 255.4 476.31 255.39 476.33 255.37 476.34 255.34 476.34 255.33 476.36 255.32 476.39 255.3 476.4 255.28 476.41 255.3 476.43 255.3 476.44 255.28 476.45 255.27 476.46 255.29 476.47 255.28 476.48 255.26 476.47 255.24 476.46 255.23 476.46 255.23 476.48 255.24 476.5 255.23 476.51 255.22 476.52 255.21 476.53 255.19 476.54 255.18 476.56 255.19 476.57 255.22 476.58 255.23 476.59 255.22 476.61 255.21 476.63 255.2 476.65 255.22 476.67 255.23 476.66 255.25 476.66 255.26 476.65 255.29 476.66 255.29 476.68 255.28 476.69 255.28 476.71 255.3 476.72 255.3 476.73 255.27 476.74 255.25 476.73 255.23 476.74 255.22 476.76 255.22 476.78 255.21 476.79 255.2 476.77 255.21 476.73 255.19 476.71 255.17 476.71 255.14 476.71 255.13 476.73 255.12 476.73 255.11 476.72 255.09 476.73 255.09 476.75 255.1 476.78 255.12 476.79 255.12 476.81 255.1 476.82 255.07 476.81 255.06 476.82 255.04 476.84 255.05 476.87 255.07 476.89 255.09 476.89 255.11 476.91 255.13 476.91 255.12 476.93 255.1 476.95 255.09 476.95 255.08 476.92 255.07 476.92 255.06 476.93 255.05 476.95 255.04 476.97 255.03 476.96 255.01 476.95 255.01 476.92 254.99 476.91 254.98 476.92 254.98 476.91 254.97 476.9 254.95 476.91 254.92 476.92 254.89 476.92 254.89 476.94 254.88 476.97 254.9 477 254.86 476.99 254.85 477.01 254.81 477.01 254.71 477.05 254.63 477.14 254.59 477.13 254.49 477.2 254.45 477.25 254.43 477.3 254.41 477.32 254.4 477.34 254.37 477.41 254.38 477.5 254.38 477.55 254.37 477.59 254.36 477.62 254.33 477.63 254.3 477.64 254.31 477.71 254.32 477.73 254.31 477.74 254.3 477.76 254.33 477.83 254.37 477.85 254.4 477.84 254.4 477.86 254.42 477.86 254.43 477.87 254.44 477.9 254.48 477.89 254.48 477.89 254.51 477.88 254.55 477.89 254.59 477.92 254.65 477.91 254.69 477.96 254.73 477.98 254.76 478.03 254.73 478.03 254.7 478.07 254.68 478.08 254.66 478.1 254.64 478.12 254.62 478.11 254.6 478.13 254.57 478.15 254.59 478.19 254.61 478.22 254.62 478.26 254.58 478.25 254.56 478.23 254.54 478.26 254.55 478.28 254.58 478.32 254.49 478.39 254.44 478.37 254.4 478.38 254.39 478.43 254.29 478.35 254.25 478.31 254.17 478.32 254.14 478.32 254.1 478.36 254.08 478.35 254.08 478.29 254.05 478.25 254.02 478.25 253.98 478.25 253.94 478.26 253.94 478.32 253.95 478.36 253.9 478.36 253.84 478.39 253.78 478.37 253.73 478.31 253.66 478.25 253.6 478.25 253.46 478.2 253.33 478.23 253.26 478.22 253.21 478.29 253.12 478.36 253.08 478.42 253.03 478.39 253 478.38 252.95 478.38 252.92 478.37 252.89 478.39 252.87 478.41 252.83 478.4 252.8 478.44 252.66 478.48 252.6 478.51 252.54 478.58 252.54 478.65 252.64 478.68 252.69 478.71 252.65 478.77 252.43 478.68 252.4 478.67 252.4 478.76 252.5 478.78 252.54 478.84 252.54 478.91 252.46 478.91 252.22 478.91 251.96 478.96 251.77 478.98 251.64 479.04 251.57 479.11 251.46 479.19 251.34 479.33 251.27 479.47 251.19 479.57 251.11 479.69 251.04 479.81 250.99 479.9 250.89 480 250.83 480.09 250.8 480.13 250.75 480.16 250.72 480.23 250.69 480.31 250.69 480.41 250.7 480.46 250.74 480.5 250.73 480.53 250.72 480.55 250.68 480.55 250.68 480.6 250.66 480.64 250.67 480.66 250.68 480.68 250.68 480.71 250.65 480.74 250.6 480.73 250.54 480.78 250.5 480.81 250.47 480.83 250.43 480.95 250.36 481 250.34 481.06 250.29 481.12 250.27 481.18 250.3 481.26 250.25 481.29 250.2 481.37 250.19 481.39 250.12 481.62 250.11 481.71 250.1 481.8 250.1 481.91 250.21 482.42 250.28 482.67 250.33 482.79 250.55 483.2 250.67 483.33 250.74 483.39 250.85 483.42 250.92 483.45 250.94 483.47 250.97 483.54 251.05 483.6 251.15 483.62 251.2 483.65 251.23 483.75 251.3 483.81 251.38 483.94 251.41 484.01 251.43 484.02 251.46 484.02 251.48 484.03 251.51 484.08 251.52 484.09 251.55 484.11 251.74 484.33 251.87 484.54 251.96 484.62 252.15 484.72 252.23 484.71 252.31 484.76 252.4 484.73 252.44 484.75 252.49 484.75 252.53 484.73 252.58 484.73 252.62 484.74 252.69 484.79 252.72 484.8 252.85 484.79 252.88 484.8 252.91 484.81 253.03 484.84 253.26 484.89 253.51 484.87 253.64 484.82 253.69 484.8 253.75 484.81 253.88 484.9 253.96 484.91 254.01 484.97 254.04 485.05 254.09 485.1 254.13 485.14 254.15 485.16 254.27 485.26 254.24 485.32 254.28 485.5 254.31 485.6 254.34 485.71 254.31 485.93 254.29 486.26 254.23 486.45 254.16 486.66 254.04 487.02 254 487.04 253.93 487.05 253.87 487.03 253.76 487.01 253.63 487.01 253.56 487.07 253.49 487.17 253.43 487.21 253.37 487.23 253.23 487.3 253.09 487.4 253.04 487.42 252.87 487.41 252.84 487.42 252.94 487.46 253.03 487.45 253.2 487.35 253.26 487.33 253.38 487.3 253.59 487.18 253.65 487.11 253.76 487.09 253.86 487.1 253.92 487.11 253.96 487.16 253.99 487.32 254.02 487.47 254.08 487.53 254.16 487.55 254.23 487.58 254.17 487.62 254.15 487.66 254.2 487.68 254.23 487.7 254.17 487.71 254.12 487.74 254.06 487.75 254.04 487.68 253.92 487.64 253.86 487.67 253.82 487.74 253.81 487.8 253.86 487.84 253.84 487.92 253.83 487.94 253.82 487.95 253.81 487.99 253.77 488.02 253.78 488.06 253.84 488.1 253.91 488.13 253.93 488.18 253.88 488.24 253.82 488.26 253.8 488.21 253.76 488.2 253.72 488.22 253.67 488.22 253.56 488.23 253.5 488.25 253.46 488.28 253.41 488.32 253.39 488.4 253.36 488.45 253.35 488.48 253.25 488.53 253.17 488.56 253.11 488.67 253.03 488.7 253 488.74 252.95 488.82 252.91 488.93 252.94 489.04 252.92 489.05 252.84 489.03 252.77 489.03 252.71 489.03 252.7 489.04 252.66 489.08 252.67 489.12 252.66 489.19 252.59 489.24 252.49 489.27 252.42 489.27 252.26 489.3 252.16 489.38 252.04 489.44 251.99 489.51 251.91 489.57 251.84 489.66 251.8 489.69 251.79 489.76 251.78 489.83 251.73 489.85 251.67 489.87 251.51 489.9 251.39 490.01 251.23 490.11 251.18 490.17 251.16 490.34 251.07 490.43 251.06 490.52 251.04 490.59 250.93 490.68 250.77 490.76 250.58 490.88 250.25 491.25 250.21 491.36 250.18 491.49 250.16 491.56 250.12 491.6 250.08 491.64 250.08 491.73 250.12 491.75 250.13 491.8 250.1 491.83 250.08 491.84 250.04 491.86 250.03 491.89 250.02 491.92 250 491.96 249.99 492.04 249.93 492.1 249.86 492.13 249.88 492.16 249.91 492.19 249.92 492.23 249.91 492.27 249.87 492.28 249.84 492.31 249.8 492.33 249.83 492.36 249.83 492.4 249.77 492.47 249.64 492.48 249.64 492.5 249.68 492.52 249.73 492.53 249.88 492.52 249.94 492.46 249.97 492.34 249.97 492.25 250 492.2 250.01 492.1 250.05 492.05 250.07 492.04 250.1 492.05 250.14 492.1 250.14 492.16 250.13 492.29 250.04 492.48 250.03 492.54 249.98 492.76 249.93 493.01 249.92 493.11 249.92 493.25 249.9 493.34 249.89 493.48 249.9 493.53 249.86 493.85 249.79 494.08 249.77 494.16 249.74 494.23 249.72 494.28 249.71 494.29 249.64 494.45 249.5 494.59 249.31 494.75 249.1 494.9 248.89 495 248.69 495.03 248.54 495.02 248.51 495.01 248.49 494.98 248.43 494.89 248.38 494.86 248.33 494.78 248.3 494.71 248.28 494.62 248.24 494.54 248.19 494.46 248.11 494.4 248.07 494.31 248.05 494.24 248.01 494.12 247.95 494.04 247.85 493.83 247.82 493.77 247.78 493.73 247.72 493.7 247.67 493.68 247.63 493.67 247.77 493.77 247.79 493.81 247.81 493.86 247.87 493.98 247.95 494.12 247.99 494.27 247.99 494.35 247.95 494.39 247.88 494.44 247.83 494.46 247.77 494.49 247.71 494.5 247.62 494.48 247.49 494.49 247.33 494.47 247.24 494.54 247.17 494.57 247.11 494.58 247.02 494.63 247.02 494.66 247.03 494.66 247.05 494.65 247.07 494.66 247.12 494.65 247.24 494.64 247.31 494.58 247.37 494.55 247.4 494.54 247.43 494.54 247.49 494.55 247.56 494.54 247.68 494.57 247.78 494.59 247.85 494.55 247.93 494.51 247.97 494.5 248.01 494.51 248.03 494.53 248.04 494.6 248.09 494.63 248.12 494.66 248.12 494.69 248.12 494.74 248.13 494.81 248.17 494.88 248.23 494.95 248.28 494.98 248.34 494.99 248.37 495.01 248.4 495.05 248.46 495.07 248.49 495.12 248.46 495.19 248.39 495.22 248.34 495.26 248.3 495.3 247.9 495.47 247.63 495.61 247.57 495.6 247.51 495.65 247.51 495.7 247.44 495.72 247.4 495.73 247.37 495.71 247.32 495.74 247.31 495.82 247.27 495.85 247.17 496 247.11 496.08 247.07 496.16 247.03 496.25 246.95 496.39 246.92 496.48 246.88 496.54 246.87 496.69 246.78 496.96 246.73 497.1 246.72 497.17 246.72 497.23 246.76 497.32 246.77 497.54 246.77 497.65 246.75 497.74 246.7 497.78 246.59 497.85 246.47 497.99 246.28 498.14 246.19 498.25 246.14 498.37 246.21 498.31 246.33 498.19 246.41 498.13 246.55 498.05 246.61 498.01 246.68 498 246.7 498.07 246.7 498.13 246.73 498.28 246.78 498.55 246.81 498.73 246.82 498.83 246.86 498.91 246.87 499.06 246.91 499.21 247.13 499.85 247.15 499.92 247.15 500 247.13 500.06 247.09 500.1 247.05 500.09 247.01 500.07 246.94 500.07 246.9 500.1 246.83 500.2 246.78 500.22 246.72 500.21 246.67 500.2 246.42 500.06 246.25 500.04 246.21 500.04 246.19 500.05 246.12 500.09 246 500.11 245.94 500.13 245.84 500.22 245.73 500.26 245.68 500.29 246.17 500.17 246.27 500.16 246.37 500.18 246.61 500.27 246.7 500.32 246.68 500.38 246.56 500.48 246.56 500.51 246.61 500.51 246.65 500.49 246.83 500.39 246.93 500.3 246.99 500.25 247.05 500.24 247.11 500.27 247.19 500.36 247.33 500.76 247.43 500.92 247.6 501.32 247.75 501.65 248.11 502.22 248.38 502.62 248.46 502.73 248.48 502.8 248.46 502.85 248.4 502.92 248.36 502.97 248.34 503.02 248.3 503.04 248.29 503 248.3 502.95 248.27 502.88 248.27 502.75 248.26 502.71 248.21 502.69 248.03 502.65 248 502.64 247.93 502.59 247.89 502.58 247.45 502.5 247.36 502.47 247.03 502.27 246.58 502.12 245.97 502.1 245.58 501.93 245.2 501.77 244.94 501.65 244.76 501.65 244.26 501.64 243.76 501.64 243.26 501.63 242.76 501.62 242.26 501.62 241.76 501.61 241.26 501.6 240.76 501.59 240.58 501.59 240.48 501.52 240.49 501.37 240.51 501.25 240.49 501.15 240.44 501.07 240.38 501.01 240.24 500.83 240.08 500.7 239.99 500.63 239.78 500.56 239.73 500.52 239.7 500.45 239.68 500.26 239.67 500.2 239.62 500.14 239.57 500.13 239.51 500.13 239.45 500.11 239.4 500.03 239.46 499.92 239.62 499.76 239.63 499.73 239.63 499.7 239.62 499.66 239.62 499.63 239.63 499.6 239.64 499.57 239.66 499.55 239.67 499.52 239.68 499.46 239.68 499.26 239.69 499.18 239.71 499.13 239.8 498.99 239.83 498.94 239.83 498.89 239.79 498.84 239.63 498.72 239.55 498.64 239.51 498.52 239.5 498.45 239.52 498.4 239.58 498.31 239.62 498.24 239.65 498.21 239.69 498.19 239.75 498.18 239.79 498.1 239.81 497.94 239.83 497.64 239.82 497.5 239.77 497.41 239.71 497.34 239.65 497.24 239.63 497.18 239.63 497.13 239.64 497.08 239.72 496.91 239.73 496.85 239.69 496.82 239.63 496.81 239.55 496.75 239.28 496.68 239.18 496.73 239.03 496.91 238.93 496.92 238.89 496.89 238.77 496.76 238.72 496.74 238.67 496.75 238.4 496.91 238.32 496.98 238.16 497.15 238.07 497.23 237.97 497.27 237.87 497.27 237.79 497.2 237.77 497.09 237.77 496.95 237.76 496.82 237.73 496.77 237.64 496.64 237.61 496.59 237.6 496.53 237.6 496.33 237.58 496.14 237.57 496.07 237.58 495.93 237.58 495.86 237.55 495.75 237.52 495.64 237.47 495.53 237.42 495.44 237.37 495.4 237.28 495.35 237.01 495.09 236.98 495 237.01 494.89 237.12 494.68 237.12 494.64 237.1 494.57 237.07 494.53 236.95 494.42 236.91 494.37 236.92 494.33 236.96 494.29 236.98 494.24 236.99 494.18 236.99 494.13 237 494.08 237.12 493.96 237.16 493.87 237.15 493.78 237.09 493.67 237.02 493.6 236.99 493.55 236.97 493.5 236.98 493.44 237.01 493.39 237.03 493.33 237.03 493.26 237 493.21 236.94 493.14 236.91 493.1 236.88 493.03 236.88 493 236.95 492.92 236.98 492.86 236.98 492.82 236.96 492.77 236.96 492.7 236.99 492.65 237.03 492.61 237.11 492.56 237.15 492.51 237.16 492.47 237.14 492.36 237.14 492.27 237.17 492.24 237.86 492.23 237.87 492.17 237.89 492.14 237.97 492.12 237.97 492.1 237.82 492.07 237.81 492.05 237.78 492.01 237.77 491.92 237.8 491.84 237.95 491.66 237.97 491.61 237.97 491.57 237.97 491.52 237.98 491.47 238.01 491.4 238.14 491.2 238.14 491.2 238.16 491.17 238.25 491.08 238.36 491.04 238.57 491.01 238.67 490.98 238.75 490.91 238.91 490.74 239.03 490.6 239.09 490.5 239.11 490.4 239.12 490.27 239.11 489.91 239.06 489.73 239.04 489.56 239.12 489.37 239.21 489.3 239.3 489.24 239.44 489.19 239.48 489.16 239.54 489.07 239.56 489.03 239.58 489.01 239.61 489 239.64 489.01 239.7 489.03 239.73 489.02 239.75 488.97 239.73 488.91 239.7 488.86 239.68 488.81 239.68 488.76 239.71 488.63 239.71 488.57 239.66 488.17 239.64 488.1 239.56 488.07 239.54 488.06 239.52 488.04 239.52 488.01 239.52 487.98 239.51 487.95 239.47 487.9 239.43 487.88 239.39 487.87 239.34 487.85 239.27 487.78 239.21 487.69 239.19 487.59 239.24 487.48 239.29 487.38 239.35 487.15 239.39 487.04 239.6 486.67 239.62 486.61 239.64 486.56 239.65 486.5 239.65 486.44 239.69 486.26 239.69 486.22 239.65 486.19 239.61 486.17 239.58 486.14 239.6 486.06 239.63 486.02 239.67 485.98 239.76 485.95 239.82 485.94 239.94 485.96 239.98 485.96 240.02 485.92 240.08 485.84 240.27 485.61 240.32 485.53 240.33 485.47 240.33 485.44 240.32 485.41 240.3 485.35 240.3 485.3 240.31 485.26 240.33 485.24 240.38 485.24 240.52 485.34 240.59 485.36 240.66 485.32 240.7 485.24 240.7 485.15 240.68 485.06 240.64 484.99 240.58 484.94 240.43 484.86 240.39 484.8 240.4 484.73 240.54 484.64 240.59 484.59 240.56 484.55 240.49 484.48 240.47 484.43 240.47 484.38 240.5 484.19 240.51 484.17 240.53 484.15 240.54 484.13 240.54 484.1 240.53 484.07 240.52 484.05 240.51 484.03 240.51 484 240.55 483.95 240.61 483.93 240.72 483.93 240.77 483.91 240.8 483.88 240.86 483.79 240.9 483.75 241.02 483.68 241.09 483.6 241.11 483.5 241.07 483.27 241.08 483.21 241.1 483.16 241.11 483.11 241.1 483.05 240.95 482.64 240.93 482.53 240.93 482.4 240.93 482.26 240.92 482.17 240.88 482.1 240.75 482.01 240.64 481.91 240.62 481.9 240.6 481.89 240.59 481.87 240.59 481.84 240.61 481.82 240.64 481.81 240.81 481.79 240.86 481.78 240.91 481.75 240.94 481.71 240.99 481.62 241.01 481.57 241.18 481.39 241.26 481.3 241.23 481.18 241.2 481.09 241.14 481.02 241.06 480.97 240.97 480.94 240.94 480.91 240.92 480.85 240.93 480.8 240.95 480.76 240.96 480.71 240.93 480.66 240.87 480.6 240.85 480.56 240.84 480.51 240.84 480.49 240.88 480.43 240.89 480.4 240.88 480.38 240.87 480.36 240.87 480.34 240.87 480.29 240.88 480.25 240.92 480.17 240.93 480.16 240.95 480.14 240.96 480.13 240.97 480.1 240.96 480.08 240.93 480.05 240.92 480.04 240.96 479.96 241.03 479.91 241.13 479.88 241.2 479.87 241.37 479.88 241.45 479.87 241.53 479.8 241.56 479.75 241.55 479.71 241.5 479.61 241.49 479.55 241.49 479.52 241.71 479.43 241.75 479.4 241.79 479.36 241.84 479.28 241.88 479.25 241.93 479.18 241.91 479.07 241.87 478.97 241.81 478.89 241.74 478.82 241.62 478.74 241.54 478.62 241.51 478.59 241.47 478.44 241.39 478.26 241.31 478.17 241.23 478.16 241.15 478.17 241.06 478.16 241.02 478.13 240.97 478.05 240.93 478.03 240.88 478.01 240.83 478.02 240.78 478.04 240.73 478.06 240.65 478.07 240.56 478.03 240.47 477.97 240.38 477.94 240.28 477.95 240.24 477.93 240.22 477.88 240.23 477.78 240.24 477.73 240.2 477.56 240.23 477.49 240.29 477.47 240.38 477.51 240.43 477.53 240.72 477.59 240.77 477.58 240.81 477.55 240.84 477.51 240.87 477.48 240.93 477.47 240.98 477.48 241.13 477.55 241.22 477.55 241.42 477.46 241.51 477.44 241.6 477.47 241.78 477.59 241.87 477.62 241.96 477.6 242.03 477.54 242.09 477.45 242.1 477.33 242.09 477.22 242.08 477.17 242.1 477.11 242.14 477.02 242.17 476.97 242.2 476.95 242.25 476.94 242.29 476.93 242.32 476.9 242.35 476.84 242.34 476.78 242.33 476.75 242.3 476.72 242.27 476.68 242.26 476.63 242.25 476.58 242.24 476.54 242.2 476.49 242.15 476.46 242.1 476.45 241.98 476.45 241.65 476.38 241.19 476.38 241.08 476.35 240.98 476.35 240.89 476.38 240.79 476.38 240.71 476.3 240.7 476.25 240.74 476.21 240.79 476.19 240.82 476.17 240.83 476.11 240.82 476.07 240.79 476.02 240.77 475.97 240.78 475.92 240.83 475.83 240.83 475.77 240.82 475.72 240.75 475.59 240.71 475.47 240.77 475.43 240.85 475.41 240.93 475.34 240.96 475.28 241.13 475.02 241.16 474.96 241.15 474.92 241.03 474.71 241 474.67 240.98 474.66 240.94 474.64 240.93 474.62 240.92 474.58 240.93 474.56 240.94 474.54 240.95 474.51 240.94 474.44 240.93 474.43 240.9 474.46 240.85 474.47 240.81 474.45 240.8 474.4 240.81 474.34 240.84 474.3 240.87 474.28 240.97 474.24 241.01 474.22 241.04 474.18 241.06 474.14 241.04 473.96 241.03 473.93 241.01 473.9 240.92 473.83 240.9 473.82 240.89 473.8 240.88 473.78 240.87 473.76 240.84 473.75 240.79 473.74 240.73 473.74 240.68 473.73 240.66 473.69 240.67 473.67 240.71 473.61 240.71 473.61 240.71 473.55 240.69 473.5 240.65 473.47 240.61 473.46 240.59 473.46 240.56 473.48 240.54 473.48 240.52 473.47 240.5 473.44 240.51 473.43 240.53 473.41 240.54 473.39 240.53 473.31 240.53 473.29 240.54 473.26 240.56 473.24 240.58 473.23 240.59 473.21 240.6 473.19 240.61 473.1 240.62 473.07 240.65 473.06 240.7 473.06 240.79 473.02 240.83 473.01 240.93 473.03 240.95 472.99 240.96 472.94 240.96 472.88 240.95 472.86 240.94 472.81 240.94 472.78 240.94 472.75 240.96 472.7 240.97 472.67 240.95 472.62 240.91 472.59 240.71 472.5 240.38 472.46 240.28 472.42 240.19 472.34 240.11 472.23 240.07 472.09 240.08 471.99 240.14 471.79 240.15 471.69 240.13 471.25 240.12 471.21 240.09 471.1 240.09 471.06 240.11 470.99 240.11 470.97 240.1 470.94 240.08 470.9 240.07 470.87 240.08 470.77 240.13 470.69 240.19 470.63 240.31 470.57 240.31 470.54 240.3 470.51 240.23 470.4 240.23 470.37 240.27 470.2 240.25 470.15 240.13 470.04 240.1 469.96 240.12 469.89 240.17 469.82 240.23 469.76 240.27 469.69 240.29 469.61 240.31 469.53 240.38 469.48 240.45 469.48 240.49 469.54 240.52 469.6 240.57 469.63 240.6 469.62 240.62 469.59 240.64 469.56 240.66 469.53 240.68 469.52 240.84 469.49 240.9 469.46 240.96 469.41 240.98 469.35 240.98 469.2 240.97 469.18 240.93 469.13 240.91 469.1 240.89 469.06 240.89 469.02 240.9 468.97 240.9 468.92 240.86 468.71 240.81 468.62 240.76 468.55 240.72 468.47 240.71 468.36 240.69 468.26 240.56 468.08 240.56 467.99 240.6 467.95 240.67 467.91 240.7 467.87 240.73 467.82 240.72 467.79 240.69 467.76 240.66 467.71 240.65 467.66 240.65 467.63 240.66 467.54 240.67 467.48 240.67 467.44 240.66 467.4 240.64 467.35 240.61 467.24 240.62 467.14 240.67 466.95 240.68 466.89 240.68 466.84 240.65 466.74 240.65 466.68 240.66 466.66 240.69 466.65 240.7 466.6 240.7 466.49 240.72 466.39 240.73 466.32 240.69 466.22 240.69 466.19 240.69 466.15 240.73 466.03 240.73 465.98 240.71 465.9 240.69 465.85 240.6 465.72 240.57 465.65 240.5 465.34 240.51 465.31 240.68 465.13 240.73 465.04 240.74 464.93 240.73 464.9 240.71 464.87 240.71 464.84 240.71 464.82 240.75 464.75 240.83 464.49 240.85 464.45 240.88 464.44 240.97 464.47 241 464.47 241.02 464.45 241.11 464.24 241.12 464.19 241.12 464.16 241.12 464.13 241.11 464.11 241.09 464.09 241.07 464.07 241.05 464.07 241.02 464.08 241.01 464.09 241.01 464.11 241 464.12 240.97 464.11 240.95 464.1 240.91 464.03 240.84 463.95 240.81 463.91 240.79 463.86 240.79 463.84 240.81 463.8 240.82 463.79 240.81 463.76 240.81 463.73 240.82 463.64 240.83 463.61 240.84 463.59 240.83 463.57 240.81 463.54 240.81 463.52 240.84 463.48 240.92 463.48 241.02 463.53 241.1 463.54 241.13 463.43 241.12 463.4 241.11 463.34 241.1 463.31 241.11 463.28 241.12 463.27 241.14 463.26 241.15 463.24 241.23 463.06 241.25 463 241.24 462.95 241.21 462.92 241.13 462.85 241.11 462.82 241.1 462.78 241.09 462.71 241.08 462.65 241.04 462.53 241.03 462.47 241.05 462.42 241.07 462.36 241.08 462.32 241.03 462.23 241.02 462.17 241.03 462.11 241.05 462.06 241.09 462.02 241.12 462.02 241.2 462.11 241.21 462.13 241.25 462.15 241.29 462.16 241.34 462.15 241.39 462.14 241.43 462.15 241.46 462.15 241.5 462.11 241.52 462.01 241.42 461.91 241.47 461.82 241.51 461.79 241.55 461.71 241.57 461.67 241.59 461.63 241.56 461.54 241.56 461.48 241.6 461.44 241.64 461.41 241.69 461.37 241.7 461.3 241.73 461.07 241.7 460.68 241.66 460.47 241.66 460.39 241.7 460.21 241.73 460.14 241.79 460.08 242 459.97 242.05 459.92 242.08 459.88 242.09 459.86 242.11 459.85 242.28 459.82 242.31 459.81 242.44 459.71 242.51 459.68 242.59 459.68 242.69 459.69 242.74 459.68 242.77 459.65 242.8 459.58 242.82 459.56 242.88 459.53 242.9 459.52 242.9 459.49 242.89 459.47 242.88 459.46 242.87 459.43 242.87 459.4 242.88 459.38 242.9 459.34 242.95 459.26 242.98 459.22 242.98 459.16 242.95 459.06 242.88 458.99 242.8 458.93 242.73 458.87 242.67 458.77 242.58 458.32 242.57 458.23 242.58 458.15 242.6 458.05 242.6 458.04 242.6 458.04 242.59 458.03 242.58 457.98 242.57 457.92 242.56 457.87 242.59 457.82 242.6 457.81 242.6 457.79 242.6 457.77 242.59 457.76 242.53 457.68 242.51 457.63 242.5 457.57 242.48 457.51 242.42 457.41 242.41 457.29 242.32 457.12 242.21 456.75 242.19 456.63 242.19 456.57 242.21 456.53 242.23 456.5 242.27 456.47 242.32 456.43 242.33 456.41 242.33 456.38 242.31 456.33 242.3 456.3 242.31 456.25 242.35 456.14 242.36 456.09 242.34 456.02 242.31 455.97 242.24 455.88 242.19 455.75 242.16 455.67 242.16 455.6 242.18 455.55 242.27 455.45 242.29 455.39 242.29 455.33 242.29 455.28 242.29 455.22 242.31 455.16 242.34 455.13 242.42 455.08 242.34 455.01 242.31 454.96 242.29 454.83 242.27 454.8 242.2 454.76 242.16 454.72 242.17 454.72 242.22 454.73 242.26 454.73 242.3 454.7 242.32 454.66 242.31 454.62 242.24 454.58 242.24 454.56 242.25 454.54 242.26 454.51 242.26 454.49 242.27 454.48 242.26 454.47 242.25 454.44 242.23 454.42 242.21 454.42 242.19 454.4 242.18 454.38 242.18 454.35 242.2 454.33 242.21 454.3 242.23 454.28 242.28 454.13 242.29 454.08 242.29 453.98 242.29 453.93 242.33 453.9 242.37 453.91 242.42 453.94 242.45 453.96 242.49 453.93 242.49 453.89 242.46 453.7 242.46 453.6 242.48 453.47 242.52 453.37 242.56 453.37 242.59 453.36 242.64 453.37 242.68 453.38 242.72 453.37 242.76 453.34 242.79 453.3 242.8 453.2 242.82 453.16 242.86 453.14 242.91 453.16 243 453.2 243.01 453.21 243.03 453.23 243.04 453.23 243.24 453.18 243.26 453.15 243.26 453.09 243.25 453.06 243.22 453 243.21 452.96 243.22 452.94 243.25 452.87 243.26 452.85 243.25 452.82 243.25 452.8 243.26 452.78 243.27 452.76 243.3 452.75 243.34 452.74 243.37 452.72 243.45 452.61 243.46 452.6 243.48 452.59 243.49 452.58 243.5 452.56 243.5 452.53 243.51 452.51 243.53 452.46 243.54 452.44 243.57 452.43 243.62 452.44 243.73 452.5 243.79 452.49 243.83 452.47 243.87 452.42 243.88 452.4 243.9 452.37 243.92 452.28 243.94 452.25 243.98 452.21 243.99 452.18 243.98 452.13 243.92 451.96 243.92 451.93 243.94 451.88 243.95 451.87 243.97 451.85 243.98 451.83 243.98 451.81 243.97 451.79 243.92 451.8 243.9 451.79 243.9 451.69 244.04 451.55 244.03 451.46 244 451.4 243.9 451.12 243.9 451.08 243.92 450.98 243.92 450.93 243.91 450.82 243.93 450.71 243.91 450.67 243.88 450.63 243.85 450.59 243.79 450.41 243.79 450.36 243.81 450.34 243.86 450.33 243.88 450.3 243.86 450.24 243.78 450.19 243.68 450.18 243.59 450.14 243.55 450.04 243.63 449.9 243.98 449.79 244.02 449.6 244.01 449.41 244.01 449.41 244.05 449.21 244.22 448.8 244.21 448.77 244.18 448.74 244.15 448.7 244.13 448.66 244.15 448.64 244.18 448.63 244.23 448.61 244.27 448.52 244.3 448.32 244.33 448.23 244.37 448.18 244.46 448.1 244.5 448.05 244.55 447.92 244.58 447.86 244.68 447.77 244.7 447.72 244.7 447.66 244.69 447.58 244.69 447.5 244.71 447.44 244.73 447.42 244.74 447.4 244.86 447.38 244.9 447.38 244.95 447.39 245.03 447.42 245.04 447.41 245.04 447.39 245.05 447.38 245.2 447.31 245.21 447.29 245.19 447.22 245.14 447.12 245.12 447.08 245.11 447.04 245.12 447.01 245.12 446.99 245.13 446.95 245.15 446.75 245.15 446.62 245.13 446.55 245.09 446.54 245.05 446.55 245.03 446.55 245.04 446.47 245.06 446.37 245.06 446.32 245.02 446.12 245.02 446.06 245.04 446.03 245.12 445.97 245.14 445.94 245.14 445.9 245.08 445.81 245.07 445.77 245.07 445.72 245.12 445.57 245.11 445.54 245.11 445.51 245.1 445.49 245.11 445.46 245.12 445.45 245.17 445.43 245.18 445.42 245.19 445.39 245.2 445.27 245.21 445.23 245.23 445.19 245.29 445.11 245.31 445.07 245.3 445.02 245.26 444.93 245.25 444.78 245.2 444.72 245.12 444.68 245.04 444.65 244.97 444.66 244.87 444.79 244.81 444.81 244.74 444.65 244.72 444.61 244.64 444.55 244.61 444.51 244.59 444.47 244.59 444.41 244.63 444.26 244.62 444.21 244.6 444.16 244.6 444.16 244.59 444.12 244.61 444.07 244.64 444.04 244.71 444.02 244.74 444 244.76 443.96 244.78 443.85 244.8 443.8 244.83 443.73 244.83 443.69 244.8 443.67 244.75 443.65 244.71 443.63 244.64 443.55 244.52 443.41 244.49 443.33 244.43 443.05 244.43 442.99 244.44 442.94 244.44 442.92 244.46 442.9 244.51 442.9 244.53 442.89 244.48 442.82 244.48 442.77 244.48 442.73 244.48 442.67 244.45 442.62 244.42 442.59 244.33 442.54 244.29 442.46 244.3 442.26 244.27 442.22 244.24 442.18 244.19 442.16 244.15 442.16 244.12 442.13 244.1 442.07 244.1 442.05 244.11 442 244.11 441.98 244.1 441.95 244.1 441.95 244.07 441.89 244.07 441.86 244.07 441.84 244.09 441.79 244.09 441.77 244.08 441.75 244.05 441.72 244.04 441.7 244.04 441.65 244.03 441.63 244.02 441.61 243.98 441.57 243.97 441.54 243.97 441.51 244.01 441.48 244.05 441.49 244.15 441.53 244.2 441.53 244.22 441.5 244.24 441.41 244.26 441.37 244.28 441.34 244.3 441.3 244.29 441.25 244.27 441.21 244.22 441.16 244.18 441.12 244.14 441.1 244.04 441.08 243.96 441.09 243.88 441.07 243.8 440.98 243.78 440.94 243.76 440.88 243.75 440.82 243.76 440.71 243.73 440.66 243.66 440.59 243.55 440.35 243.53 440.28 243.52 440.24 243.54 440.12 243.55 440.03 243.55 439.93 243.56 439.88 243.6 439.8 243.6 439.75 243.59 439.7 243.58 439.65 243.57 439.6 243.62 439.5 243.63 439.45 243.63 439.35 243.63 439.3 243.65 439.26 243.77 439.07 243.8 439.05 243.84 439.07 243.86 439.12 243.87 439.18 243.89 439.21 243.93 439.2 243.96 439.17 243.99 439.13 244.01 439.06 244.03 439.01 244.08 438.93 244.12 438.91 244.22 438.92 244.24 438.91 244.24 438.88 244.21 438.85 244.15 438.79 244.11 438.75 244.09 438.71 244.08 438.66 244.13 438.31 244.16 438.22 244.17 438.2 244.21 438.15 244.22 438.11 244.22 438.09 244.21 438.06 244.21 438.03 244.22 437.98 244.23 437.94 244.28 437.86 244.31 437.77 244.35 437.57 244.4 437.5 244.44 437.48 244.47 437.46 244.5 437.43 244.51 437.38 244.5 437.33 244.45 437.23 244.45 437.19 244.51 437.16 244.69 437.25 244.77 437.27 244.85 437.25 244.91 437.22 244.97 437.17 245.03 437.1 245.05 437.06 245.06 437.01 245.06 436.91 245.07 436.87 245.08 436.84 245.09 436.82 245.11 436.8 245.15 436.78 245.17 436.77 245.2 436.67 245.17 436.58 245.1 436.51 245.01 436.48 244.93 436.5 244.89 436.49 244.88 436.44 244.89 436.41 244.96 436.29 244.99 436.2 245.01 436.11 245.02 435.77 244.99 435.54 244.99 435.54 244.97 435.51 244.91 435.46 244.89 435.41 244.89 435.35 244.9 435.28 244.9 435.2 244.85 434.96 244.84 434.93 244.83 434.9 244.81 434.88 244.79 434.75 244.77 434.71 244.75 434.68 244.74 434.64 244.73 434.6 244.74 434.48 244.76 434.43 244.81 434.4 244.83 434.39 244.86 434.38 244.88 434.36 244.89 434.33 244.89 434.32 244.86 434.28 244.86 434.27 244.87 434.25 244.88 434.25 244.89 434.24 244.92 434.21 244.98 434.17 245.01 434.15 245.02 434.12 245.02 434.1 245.03 434.09 245.07 434.07 245.18 434.05 245.23 434.03 245.27 433.98 245.28 433.92 245.29 433.85 245.27 433.73 245.26 433.68 245.26 433.63 245.27 433.58 245.29 433.53 245.31 433.49 245.34 433.46 245.35 433.44 245.35 433.41 245.35 433.39 245.35 433.37 245.42 433.25 245.43 433.21 245.42 433.15 245.39 433.05 245.37 432.99 245.38 432.91 245.41 432.82 245.45 432.75 245.5 432.68 245.51 432.67 245.53 432.67 245.55 432.66 245.55 432.63 245.56 432.36 245.6 432.22 245.6 432.21 245.7 432.11 245.82 432.01 245.92 431.89 245.94 431.84 245.96 431.71 245.99 431.69 246.04 431.71 246.08 431.74 246.12 431.75 246.14 431.72 246.19 431.62 246.24 431.54 246.32 431.35 246.36 431.31 246.36 431.29 246.35 431.28 246.36 431.26 246.38 431.22 246.4 431.19 246.44 431.18 246.57 431.14 246.63 431.1 246.67 431.03 246.75 430.65 246.77 430.56 246.79 430.53 246.81 430.51 246.87 430.48 246.88 430.46 246.87 430.43 246.86 430.39 246.84 430.36 246.85 430.32 246.86 430.3 246.91 430.25 246.93 430.22 246.99 430.1 247.01 430.03 247.01 429.97 247.01 429.94 247 429.91 247.01 429.88 247.03 429.85 247.06 429.82 247.14 429.78 247.18 429.75 247.2 429.71 247.31 429.46 247.32 429.42 247.31 429.33 247.32 429.28 247.34 429.23 247.43 429.07 247.46 429.03 247.49 429.01 247.57 428.99 247.67 429 247.75 429.05 247.83 429.11 247.91 429.14 247.97 429.14 247.99 429.1 248.01 429.05 248.03 429 248.07 428.96 248.12 428.92 248.17 428.9 248.28 428.9 248.33 428.89 248.43 428.84 248.45 428.84 248.52 428.85 248.53 428.85 248.54 428.83 248.53 428.76 248.54 428.73 248.55 428.69 248.59 428.6 248.6 428.55 248.59 428.48 248.56 428.41 248.14 427.82 248.06 427.72 248 427.62 247.96 427.52 247.95 427.4 247.95 427.2 247.96 427.1 247.99 427.02 248.06 426.93 248.34 426.71 248.36 426.63 248.34 426.5 248.19 425.87 248.16 425.67 248.14 425.61 248.11 425.55 248.07 425.51 248.03 425.45 248.02 425.38 248.03 425.31 248.01 425.26 248.04 425.23 248.01 425.17 247.93 425.07 247.92 425.03 247.91 424.99 247.92 424.89 248.04 424.54 248.12 424.28 248.17 424.22 248.17 424.21 248.22 424.18 248.25 424.18 248.29 424.19 248.33 424.19 248.38 424.18 248.43 424.16 248.45 424.13 248.45 424.08 248.4 424.02 248.33 423.95 248.28 423.88 248.29 423.79 248.3 423.77 248.29 423.75 248.28 423.74 248.27 423.72 248.26 423.71 248.24 423.69 248.23 423.68 248.23 423.67 248.23 423.65 248.23 423.64 248.23 423.64 248.22 423.61 248.2 423.59 248.18 423.58 248.14 423.58 248.12 423.56 248.07 423.53 248.05 423.51 248.04 423.5 247.99 423.37 247.98 423.32 248 423.27 248.11 423.04 248.14 422.96 248.14 422.92 248.15 422.89 248.17 422.86 248.2 422.86 248.24 422.92 248.27 422.93 248.28 422.88 248.3 422.81 248.39 422.62 248.42 422.6 248.46 422.6 248.5 422.62 248.54 422.61 248.57 422.59 248.65 422.45 248.67 422.39 248.69 422.37 248.72 422.34 248.8 422.31 248.91 422.26 249.02 422.21 249.13 422.17 249.24 422.12 249.52 422 249.8 421.87 250.08 421.75 250.35 421.63 250.37 421.62 250.42 421.6 250.46 421.58 250.48 421.58 250.57 421.54 250.68 421.48 250.73 421.41 250.78 421.25 250.85 421.01 250.93 420.77 250.93 420.74 251.09 420.23 251.25 419.72 251.4 419.21 251.44 419.08 251.45 419.01 251.05 418.58 251.17 418.39 251.23 418.31 251.4 418.18 251.42 418.14 251.43 418.09 251.41 417.87 251.45 417.87 251.5 417.87 251.53 417.87 251.56 417.85 251.58 417.81 251.63 417.77 251.69 417.73 251.93 417.66 251.96 417.64 251.96 417.61 251.95 417.55 251.95 417.53 251.98 417.49 252 417.44 252.02 417.26 252.04 417.2 252.07 417.16 252.12 417.11 252.15 417.1 252.17 417.1 252.2 417.11 252.24 417.11 252.28 417.13 252.29 417.12 252.3 417.11 252.3 417.09 252.31 417.08 252.57 417.01 252.86 416.92 252.92 416.88 252.93 416.86 252.94 416.84 252.96 416.82 252.98 416.81 253 416.8 253.01 416.81 253.02 416.8 253.03 416.78 253.04 416.74 253.06 416.52 253.17 416.13 253.21 416.12 253.39 416.18 253.49 416.23 253.56 416.3 253.59 416.41 253.6 416.43 253.8 416.46 253.85 416.49 254.13 416.83 254.2 416.87 254.27 416.89 254.57 416.86 254.59 416.85 254.6 416.84 254.61 416.83 254.63 416.83 254.79 416.85 254.9 416.86 255.49 416.86 255.87 416.85 256.29 416.95 256.44 417.04 256.53 417.06 Z" fill-rule="evenodd" id="Argentina" transform="translate(-236.8800048828125,-416.1199951171875) "/></svg>