<svg xmlns="http://www.w3.org/2000/svg" viewBox="0 0 7.019989013671875 7"><path d="M 500.96 268.85 500.89 268.91 500.81 268.89 500.8 268.86 500.79 268.83 500.8 268.8 500.81 268.77 500.84 268.75 500.87 268.74 500.9 268.74 500.94 268.74 500.99 268.78 500.96 268.85 Z M 499.76 266.9 499.84 267.07 499.82 267.13 499.83 267.17 499.87 267.18 500.01 267.18 500.05 267.2 500.16 267.29 500.19 267.33 500.2 267.38 500.12 267.43 499.9 267.42 499.88 267.52 499.91 267.57 499.95 267.6 500 267.6 500.01 267.57 500.02 267.51 500.05 267.53 500.13 267.61 500.17 267.64 500.2 267.67 500.24 267.71 500.35 267.72 500.44 267.76 500.49 267.77 500.6 267.71 500.62 267.7 500.68 267.7 500.69 267.77 500.67 267.86 500.7 267.89 500.73 267.9 500.75 267.9 500.81 267.95 500.91 268.07 500.94 268.11 500.99 268.12 501.04 268.13 501.08 268.15 501.08 268.21 501.04 268.33 500.98 268.4 500.81 268.48 500.72 268.53 500.63 268.6 500.58 268.69 500.58 268.76 500.58 268.82 500.61 268.89 500.65 268.93 500.7 268.96 500.74 269.01 500.74 269.04 500.75 269.1 500.76 269.14 500.78 269.16 500.83 269.19 500.84 269.22 500.92 269.38 501.05 269.5 501.56 269.79 501.57 269.79 501.66 269.9 501.7 269.9 501.72 269.89 501.75 269.88 501.8 269.88 501.83 269.9 501.86 269.93 501.92 270 501.92 270.02 501.93 270.04 501.92 270.06 501.88 270.24 501.86 270.31 501.82 270.37 501.77 270.41 501.76 270.43 501.73 270.57 501.72 270.6 501.69 270.62 501.53 270.64 501.17 270.58 501.03 270.67 501.03 270.7 501.03 270.74 501.1 270.77 501.34 270.79 501.4 270.82 501.44 270.87 501.54 271.08 501.56 271.11 501.66 271.21 501.71 271.24 501.78 271.27 501.92 271.32 501.98 271.37 502.07 271.55 502.14 271.6 502.22 271.63 502.26 271.65 502.29 271.69 502.34 271.79 502.38 271.82 502.42 271.83 502.5 271.82 502.65 271.74 502.73 271.75 502.76 271.77 502.81 271.84 502.85 271.87 502.89 271.87 503.03 271.86 503.06 271.87 503.1 271.89 503.13 271.93 503.14 271.98 503.12 272.01 503.08 272.03 503.06 272.06 503.06 272.1 503.07 272.13 503.07 272.16 503.06 272.18 503.03 272.19 503.03 272.19 502.87 272.22 502.8 272.27 502.77 272.34 502.8 272.43 502.87 272.49 503.03 272.56 503.06 272.59 503.08 272.63 503.09 272.67 503.11 272.72 503.17 272.77 503.26 272.84 503.28 272.85 503.29 272.87 503.29 272.88 503.3 272.9 503.28 272.91 503.24 272.91 503.13 272.98 503.11 272.99 502.97 272.92 502.89 272.91 502.84 272.96 502.85 273.04 502.9 273.1 502.98 273.14 503.03 273.18 503.06 273.28 503.07 273.36 503.06 273.44 503.03 273.53 503.03 273.54 503.03 273.54 503.02 273.58 503.02 273.61 503.02 273.65 503.03 273.68 503.11 273.84 503.07 273.83 502.84 273.73 502.81 273.72 502.78 273.73 502.73 273.74 502.64 273.75 502.61 273.75 502.57 273.78 502.45 273.86 502.42 273.88 502.27 273.9 502.14 273.65 502.02 273.33 501.98 273.24 501.92 273.16 501.87 273.08 501.85 273 501.87 272.93 501.92 272.86 501.94 272.84 501.94 272.82 501.94 272.8 501.92 272.78 501.88 272.73 501.75 272.67 501.72 272.66 501.66 272.62 501.62 272.57 501.58 272.53 501.45 272.5 501.44 272.49 501.43 272.46 501.45 272.4 501.52 272.28 501.53 272.23 501.51 272.1 501.51 272.1 501.51 272.1 501.52 272.03 501.52 271.98 501.5 271.95 501.45 271.91 501.39 271.89 501.33 271.89 501.32 271.89 501.05 271.96 500.99 271.98 500.81 272.09 500.79 272.1 500.76 272.12 500.74 272.12 500.71 272.12 500.69 272.1 500.69 272.1 500.62 272.03 500.58 272.01 500.48 272 500.44 271.99 500.42 271.96 500.4 271.9 500.34 271.82 500.33 271.8 500.27 271.82 500.2 271.88 500.12 271.9 500.08 271.87 500.07 271.83 500.09 271.72 500.1 271.66 500.09 271.6 500.06 271.56 499.92 271.37 499.9 271.35 499.82 271.31 499.74 271.34 499.66 271.4 499.65 271.41 499.59 271.44 499.51 271.46 499.42 271.46 499.31 271.48 499.25 271.5 499.22 271.45 499.08 271.27 499.07 271.25 499.06 271.24 499.05 271.23 499.02 271.24 499.01 271.24 498.97 271.21 498.89 271.12 498.86 271.14 498.85 271.12 498.85 271.09 498.84 271.06 498.81 271.03 498.79 271.02 498.78 270.99 498.77 270.95 498.75 270.9 498.69 270.84 498.56 270.73 498.38 270.62 498.26 270.55 498.17 270.52 498.1 270.52 497.97 270.56 497.9 270.57 497.86 270.58 497.83 270.59 497.81 270.58 497.79 270.55 497.76 270.55 497.72 270.56 497.64 270.61 497.61 270.63 497.34 270.58 497.1 270.45 496.89 270.39 496.79 270.33 496.76 270.25 496.79 270.22 496.89 270.2 496.92 270.16 496.9 270.13 496.83 270.04 496.81 269.99 496.85 269.96 496.85 269.96 496.82 269.88 496.72 269.75 496.66 269.7 496.63 269.65 496.65 269.6 496.67 269.57 496.7 269.46 496.7 269.46 496.7 269.44 496.61 269.36 496.57 269.31 496.56 269.27 496.63 269.18 496.68 269.14 496.73 269.14 496.73 269.12 496.72 269.11 496.72 269.1 496.73 269.1 496.74 269.1 496.75 269.11 496.76 269.12 496.76 269.05 496.79 268.99 496.88 268.88 496.87 268.81 496.88 268.8 496.93 268.71 496.93 268.69 496.92 268.49 496.91 268.44 496.89 268.38 496.8 268.24 496.78 268.18 496.77 268.11 496.76 268.05 496.75 268 496.73 267.94 496.66 267.85 496.57 267.78 496.47 267.73 496.38 267.72 496.34 267.68 496.3 267.6 496.28 267.5 496.29 267.44 496.32 267.44 496.34 267.44 496.36 267.44 496.48 267.39 496.57 267.38 496.93 267.44 496.99 267.43 497.03 267.41 497.14 267.32 497.23 267.28 497.44 267.28 497.48 267.27 497.49 267.27 497.54 267.25 497.62 267.21 497.67 267.21 497.76 267.23 497.81 267.23 497.85 267.2 497.89 267.17 497.9 267.14 497.9 267.11 497.91 267.09 497.93 267.07 497.96 267.07 498.02 267.1 498.12 267.17 498.17 267.19 498.22 267.18 498.24 267.17 498.25 267.15 498.27 267.13 498.3 267.12 498.33 267.13 498.44 267.2 498.49 267.22 498.54 267.22 498.6 267.2 498.64 267.15 498.65 267.14 498.68 267.14 498.69 267.16 498.7 267.19 498.71 267.22 498.76 267.23 498.79 267.2 498.82 267.15 498.84 267.12 498.89 267.09 498.94 267.1 499.03 267.14 499.35 267.14 499.41 267.14 499.43 267.1 499.43 267.09 499.41 267.07 499.33 267.03 499.31 266.99 499.35 266.95 499.57 266.98 499.65 266.98 499.68 266.96 499.73 266.91 499.76 266.9 Z M 499.7 267.65 499.78 267.68 499.82 267.61 499.79 267.53 499.7 267.51 499.67 267.53 499.66 267.57 499.68 267.62 499.7 267.65 Z M 500.16 267.83 500.22 267.84 500.24 267.81 500.18 267.75 500.17 267.75 500.16 267.75 500.15 267.76 500.14 267.77 500.16 267.83 Z" fill-rule="evenodd" id="Armenia" transform="translate(-496.2799987792969,-266.8999938964844) "/></svg>