<svg xmlns="http://www.w3.org/2000/svg" viewBox="0 0 798 852"><path d="M 344.61 621.48 345.82 611.41 307.55 589.27 307.55 576.78 302.31 574.77 296.67 583.63 296.67 576.78 278.55 575.98 272.91 586.85 265.25 586.85 248.34 561.08 213.69 545.38 208.05 538.94 208.05 534.51 218.12 537.73 213.69 526.45 184.69 503.1 141.99 487.4 127.49 445.92 109.76 442.7 83.98 424.58 82.77 418.14 50.55 395.59 43.7 379.09 29.2 376.67 20.34 352.11 1 342.04 3.42 327.55 34.84 280.44 31.21 259.1 63.84 223.26 75.93 175.35 40.48 54.55 20.34 32 21.14 16.7 30 4.22 50.55 1 55.78 9.86 72.7 16.7 73.91 26.77 88.41 41.26 121.85 57.77 131.11 72.67 160.92 83.54 185.9 114.95 202.41 150.78 284.19 228.09 306.75 260.3 321.25 267.15 344.61 261.51 338.97 265.94 341.39 272.79 374.82 290.5 374.82 307.41 379.25 292.92 406.24 313.86 425.18 313.05 432.02 323.92 434.04 352.11 471.1 336.4 481.17 353.32 495.67 359.76 522.66 389.15 546.02 400.02 542.8 413.71 551.66 427 550.46 439.48 561.74 438.27 561.74 447.13 586.31 464.04 588.72 476.12 622.16 489.81 666.87 540.14 674.93 557.86 701.52 561.08 721.66 586.85 734.14 646.04 766.37 711.27 765.57 746.7 773.22 750.33 784.5 808.31 799 827.63 795.78 839.71 776.44 842.13 766.37 853 738.58 846.56 724.07 850.99 722.87 832.87 710.38 820.79 699.5 813.94 676.94 819.58 652.37 798.24 635.45 795.02 626.59 778.11 578.65 777.3 560.53 766.03 550.46 772.47 546.02 766.03 549.25 757.17 559.32 754.75 556.1 744.69 530.31 734.62 529.11 741.47 496.88 734.62 492.45 725.76 478.75 725.76 461.03 707.64 442.1 699.99 428.4 684.29 416.31 681.07 396.17 655.3 382.88 649.66 376.03 635.97 370.39 638.39 353.47 626.31 357.9 602.55 349.04 612.62 350.25 622.69 344.61 621.48 Z" transform="translate(-1,-1) "/></svg>