<svg xmlns="http://www.w3.org/2000/svg" viewBox="0 0 16.9000244140625 8.639999389648438"><path d="M 437.56 244.03 437.58 244.19 437.57 244.23 437.57 244.25 437.53 244.28 437.49 244.31 437.48 244.35 437.46 244.39 437.41 244.47 437.38 244.52 437.37 244.57 437.36 244.74 437.35 244.76 437.34 244.77 437.34 244.79 437.34 244.83 437.35 244.85 437.36 244.86 437.41 244.86 437.42 244.87 437.44 244.89 437.47 244.91 437.48 244.94 437.47 244.95 437.46 244.97 437.46 244.99 437.47 245 437.47 245 437.48 245.02 437.49 245.04 437.49 245.05 437.5 245.07 437.52 245.09 437.54 245.09 437.56 245.12 437.57 245.12 437.58 245.13 437.58 245.15 437.58 245.19 437.58 245.2 437.62 245.32 437.63 245.38 437.63 245.45 437.64 245.5 437.7 245.57 437.73 245.58 437.77 245.59 437.79 245.6 437.82 245.66 437.83 245.68 437.86 245.71 437.84 245.74 437.83 245.78 437.81 245.84 437.82 245.84 437.85 245.87 437.84 245.92 437.89 245.95 437.96 245.97 438.01 246.02 437.87 246.14 437.9 246.16 437.9 246.18 437.88 246.2 437.88 246.23 437.87 246.24 437.85 246.25 437.85 246.26 437.85 246.28 437.86 246.28 437.87 246.29 437.88 246.29 437.87 246.35 437.86 246.39 437.83 246.43 437.8 246.46 437.72 246.47 437.69 246.49 437.69 246.52 437.71 246.54 437.75 246.56 437.77 246.57 437.79 246.63 437.81 246.66 437.77 246.69 437.78 246.75 437.79 246.82 437.8 246.92 437.81 246.96 437.83 246.98 437.85 247 437.8 247.02 437.64 247.04 437.47 247.08 437.38 247.07 437.35 246.98 437.32 247.01 437.28 247.08 437.25 247.1 437.23 247.11 437.11 247.09 437.09 247.07 437.06 247.05 437.04 247.01 437.04 246.98 437.02 246.95 437 246.93 436.82 246.86 436.73 246.85 436.64 246.88 436.63 246.92 436.63 246.96 436.62 246.99 436.6 247 436.52 247.05 436.49 247.08 436.47 247.08 436.46 247.08 436.45 247.07 436.44 247.06 436.42 247.07 436.39 247.13 436.37 247.15 436.41 247.17 436.53 247.22 436.6 247.21 436.74 247.27 436.82 247.26 436.86 247.28 436.9 247.33 436.92 247.4 436.91 247.46 436.95 247.48 436.98 247.51 436.99 247.56 436.99 247.61 436.97 247.65 436.9 247.67 436.88 247.7 436.89 247.83 436.86 247.86 436.77 247.92 436.53 248.03 436.51 247.99 436.48 247.97 436.45 247.98 436.43 248.02 436.43 248.14 436.43 248.15 436.42 248.16 436.41 248.17 436.41 248.19 436.41 248.2 436.42 248.2 436.43 248.21 436.44 248.21 436.51 248.35 436.52 248.41 436.5 248.45 436.47 248.48 436.4 248.52 436.4 248.52 436.4 248.52 436.41 248.57 436.37 248.65 436.38 248.7 436.39 248.71 436.41 248.71 436.43 248.71 436.45 248.73 436.45 248.76 436.43 248.82 436.43 248.83 436.46 248.85 436.53 248.82 436.57 248.82 436.6 248.86 436.59 248.9 436.53 248.97 436.49 248.99 436.47 249.04 436.49 249.08 436.53 249.1 436.56 249.11 436.57 249.13 436.56 249.15 436.53 249.16 436.44 249.2 436.41 249.23 436.47 249.24 436.5 249.25 436.53 249.28 436.54 249.31 436.5 249.32 436.45 249.32 436.41 249.33 436.41 249.33 436.4 249.34 436.39 249.34 436.38 249.34 436.36 249.33 436.33 249.3 436.28 249.29 436.19 249.31 436.11 249.29 436.08 249.29 436.06 249.33 436.05 249.38 436.03 249.39 436.01 249.4 435.98 249.42 435.98 249.44 435.98 249.45 435.98 249.47 435.96 249.5 435.95 249.51 435.9 249.53 435.85 249.57 435.82 249.6 435.74 249.71 435.71 249.73 435.68 249.75 435.58 249.8 435.54 249.83 435.53 249.83 435.44 249.86 435.43 249.86 435.4 249.89 435.41 249.89 435.42 249.9 435.42 249.92 435.4 250.02 435.4 250.03 435.4 250.08 435.4 250.14 435.43 250.22 435.47 250.25 435.5 250.3 435.5 250.37 435.5 250.37 435.5 250.37 435.46 250.32 435.44 250.3 435.35 250.28 435.2 250.21 435.14 250.2 435.07 250.2 434.99 250.24 434.92 250.26 434.87 250.27 434.7 250.24 434.66 250.22 434.65 250.27 434.65 250.31 434.64 250.34 434.63 250.35 434.62 250.35 434.59 250.36 434.55 250.35 434.51 250.35 434.46 250.37 434.43 250.39 434.4 250.44 434.4 250.44 434.4 250.47 434.39 250.49 434.38 250.51 434.34 250.54 434.28 250.55 434.23 250.52 434.22 250.51 434.18 250.48 434.11 250.45 433.99 250.46 433.7 250.47 433.63 250.46 433.48 250.45 433.44 250.44 433.39 250.44 433.26 250.48 433.18 250.6 433.13 250.54 433.1 250.53 433.07 250.55 433.02 250.58 433.02 250.58 432.98 250.59 432.95 250.58 432.92 250.59 432.88 250.65 432.86 250.7 432.84 250.75 432.82 250.8 432.8 250.86 432.78 250.9 432.77 250.91 432.72 250.93 432.66 250.94 432.64 250.93 432.61 250.94 432.59 250.96 432.58 250.98 432.56 251.01 432.54 251.05 432.52 251.05 432.51 251.05 432.5 251.05 432.46 251.09 432.43 251.11 432.41 251.12 432.36 251.12 432.34 251.13 432.31 251.18 432.29 251.24 432.28 251.27 432.27 251.29 432.23 251.31 432.2 251.28 432.18 251.22 432.15 251.18 432.07 251.2 432.03 251.19 432 251.18 431.96 251.16 431.95 251.15 431.94 251.13 431.93 251.11 431.91 251.11 431.84 251.12 431.57 251.12 431.37 251.11 431.36 251.11 431.34 251.1 431.21 251 431.18 250.98 431.14 250.97 431.11 250.97 431.07 250.97 431.03 250.98 430.99 250.98 430.79 250.88 430.72 250.87 430.58 250.89 430.55 250.89 430.4 250.86 430.37 250.86 430.34 250.86 430.3 250.86 430.03 250.77 429.94 250.77 429.92 250.76 429.89 250.72 429.88 250.71 429.74 250.72 429.64 250.71 429.42 250.76 429.33 250.75 429.28 250.73 429.14 250.65 428.96 250.6 428.44 250.57 428.31 250.48 428.26 250.47 428.24 250.46 428.22 250.46 428.19 250.48 428.17 250.48 428.15 250.47 428.11 250.44 428.09 250.43 428.08 250.43 427.97 250.42 427.85 250.43 427.81 250.43 427.78 250.41 427.71 250.37 427.64 250.35 427.59 250.34 427.5 250.31 427.42 250.24 427.38 250.14 427.36 250.07 427.32 250.04 427.28 250.04 427.23 250.02 427.21 250 427.2 249.99 427.19 249.97 427.19 249.93 427.2 249.89 427.21 249.87 427.21 249.84 427.21 249.8 427.19 249.73 427.16 249.71 427.06 249.71 427.03 249.69 427.02 249.68 427.01 249.66 426.98 249.63 426.96 249.62 426.9 249.61 426.88 249.6 426.91 249.57 426.91 249.54 426.9 249.51 426.88 249.47 426.87 249.4 426.86 249.36 426.85 249.33 426.87 249.27 427 249.2 427.05 249.13 427.05 249.09 427.05 249.05 427 249.03 426.9 249.05 426.86 249.06 426.63 249.18 426.48 249.18 426.38 249.22 426.28 249.27 426.21 249.33 426.11 249.34 426.08 249.36 426.04 249.4 426.01 249.4 425.97 249.39 425.9 249.33 425.86 249.33 425.84 249.33 425.82 249.33 425.82 249.33 425.82 249.33 425.71 249.31 425.65 249.31 425.59 249.33 425.59 249.33 425.59 249.33 425.59 249.33 425.57 249.34 425.55 249.34 425.53 249.34 425.51 249.33 425.5 249.31 425.48 249.3 425.47 249.29 425.43 249.28 425.41 249.29 425.39 249.3 425.37 249.33 425.37 249.33 425.29 249.4 425.23 249.4 425.16 249.37 425.08 249.35 424.92 249.37 424.77 249.42 424.73 249.45 424.59 249.59 424.57 249.63 424.55 249.74 424.5 249.84 424.5 249.86 424.5 249.89 424.5 249.91 424.49 249.92 424.47 249.93 424.46 249.94 424.41 250.02 424.38 250.05 424.34 250.06 424.31 250.04 424.23 250.04 424.19 250.04 424.12 250.07 424.1 250.07 424.07 250.06 424.04 250.03 424.02 250.02 423.99 250.02 423.95 250.03 423.93 250.03 423.87 249.99 423.84 249.98 423.79 250 423.77 250 423.76 249.97 423.77 249.95 423.82 249.91 423.83 249.89 423.8 249.86 423.64 249.76 423.6 249.75 423.56 249.75 423.34 249.81 423.24 249.8 423.17 249.75 423.17 249.68 423.19 249.57 423.18 249.51 423.16 249.49 423.09 249.43 423.04 249.35 423.02 249.33 423.02 249.33 423.02 249.33 423.01 249.32 422.99 249.32 422.98 249.32 422.92 249.36 422.86 249.42 422.82 249.5 422.82 249.56 422.77 249.56 422.72 249.55 422.69 249.55 422.65 249.61 422.64 249.65 422.64 249.68 422.64 249.7 422.61 249.74 422.52 249.79 422.46 249.8 422.44 249.8 422.41 249.8 422.32 249.77 422.27 249.74 422.18 249.66 421.94 249.58 421.89 249.54 421.86 249.5 421.86 249.47 421.87 249.44 421.87 249.36 421.88 249.33 421.88 249.31 421.87 249.3 421.86 249.3 421.85 249.29 421.85 249.26 421.43 249.12 421.4 249.12 421.28 249.13 421.24 249.12 421.3 249.04 421.31 248.96 421.29 248.88 421.24 248.8 421.17 248.77 421.17 248.74 421.2 248.69 421.2 248.67 421.18 248.62 421.16 248.59 421.15 248.56 421.16 248.52 421.13 248.48 421.11 248.45 421.18 248.33 421.25 248.24 421.26 248.22 421.27 248.16 421.28 248.13 421.37 248.02 421.39 247.97 421.39 247.84 421.33 247.78 421.25 247.74 421.18 247.64 421.18 247.62 421.16 247.57 421.17 247.57 421.18 247.57 421.31 247.61 421.45 247.61 421.51 247.58 421.54 247.53 421.57 247.47 421.62 247.41 421.65 247.39 421.68 247.39 421.72 247.4 421.74 247.43 421.75 247.47 421.74 247.51 421.75 247.54 421.8 247.57 421.82 247.57 421.84 247.55 421.85 247.54 421.92 247.57 421.99 247.57 422.02 247.57 422.05 247.55 422.05 247.6 422.08 247.63 422.1 247.66 422.12 247.7 422.12 247.71 422.12 247.72 422.13 247.74 422.15 247.76 422.17 247.75 422.19 247.73 422.22 247.72 422.33 247.88 422.35 247.92 422.34 247.95 422.28 247.99 422.31 248.02 422.31 248.05 422.32 248.09 422.33 248.12 422.35 248.14 422.37 248.14 422.38 248.13 422.41 248.11 422.42 248.11 422.45 248.13 422.46 248.13 422.47 248.12 422.49 248.09 422.59 248.07 422.63 248.1 422.63 248.15 422.59 248.28 422.59 248.3 422.6 248.32 422.59 248.34 422.58 248.35 422.55 248.36 422.54 248.36 422.52 248.4 422.51 248.42 422.52 248.43 422.55 248.42 422.7 248.4 422.75 248.39 422.84 248.33 422.89 248.29 422.93 248.23 422.98 248.13 422.99 248.11 423.01 248.1 423.06 248.08 423.08 248.07 423.12 248.02 423.15 247.95 423.17 247.88 423.17 247.81 423.16 247.77 423.15 247.74 423.13 247.72 423.1 247.7 423.12 247.57 423.12 247.54 423.11 247.51 423.09 247.47 423.08 247.44 423.12 247.43 423.16 247.42 423.17 247.41 423.18 247.42 423.19 247.45 423.19 247.46 423.18 247.48 423.17 247.5 423.17 247.53 423.18 247.54 423.2 247.56 423.24 247.57 423.33 247.59 423.36 247.58 423.39 247.56 423.43 247.5 423.46 247.48 423.51 247.48 423.81 247.59 423.82 247.6 423.82 247.61 423.83 247.63 423.85 247.64 423.92 247.63 424.01 247.59 424.04 247.58 424.07 247.58 424.09 247.59 424.14 247.63 424.13 247.65 424.05 247.7 424.07 247.73 424.18 247.78 424.29 247.9 424.3 247.92 424.3 247.94 424.3 247.96 424.29 247.97 424.28 247.98 424.31 248.02 424.34 248.04 424.57 248.04 424.61 248.03 424.76 247.93 424.81 247.91 424.86 247.93 424.86 248.02 424.91 248.03 424.96 248 424.99 247.97 425.02 247.93 425.06 247.89 425.1 247.88 425.2 247.88 425.23 247.86 425.25 247.83 425.24 247.8 425.22 247.79 425.19 247.78 425.3 247.66 425.35 247.65 425.4 247.66 425.45 247.67 425.56 247.65 425.61 247.64 425.65 247.59 425.66 247.56 425.67 247.48 425.69 247.45 425.75 247.4 425.76 247.39 425.8 247.39 425.9 247.41 426.08 247.41 426.2 247.43 426.22 247.43 426.25 247.37 426.27 247.36 426.46 247.32 426.97 247.34 426.98 247.34 427.05 247.25 427.06 247.23 427.06 247.2 427.05 247.12 427.05 247.1 427.04 247.09 427.02 247.07 427 247.05 427 247.03 426.99 247.01 427.03 246.99 427.08 246.95 427.1 246.93 427.13 246.92 427.14 246.92 427.13 246.93 427.12 246.97 427.12 247 427.1 247.02 427.1 247.04 427.11 247.07 427.13 247.09 427.15 247.09 427.2 247.06 427.25 247.06 427.38 247.08 427.42 247.08 427.5 247.05 427.54 247.05 427.55 247.07 427.57 247.14 427.59 247.17 427.6 247.19 427.67 247.24 427.7 247.26 427.75 247.26 427.79 247.25 427.83 247.23 427.85 247.22 427.93 247.15 427.97 247.13 428.05 247.11 428.13 247.11 428.25 247.14 428.29 247.13 428.27 247.19 428.3 247.23 428.36 247.27 428.4 247.31 428.34 247.34 428.32 247.42 428.33 247.5 428.38 247.54 428.42 247.55 428.44 247.56 428.46 247.57 428.56 247.68 428.67 247.77 428.69 247.78 428.71 247.77 428.73 247.76 428.75 247.76 428.77 247.77 428.78 247.78 428.8 247.79 428.82 247.79 428.84 247.78 428.9 247.7 428.9 247.68 428.89 247.66 428.89 247.64 428.88 247.62 428.88 247.6 428.88 247.54 428.88 247.54 428.91 247.48 428.91 247.48 428.9 247.48 428.9 247.4 428.91 247.41 428.94 247.36 428.94 247.35 428.97 247.29 428.98 247.28 428.98 247.24 428.98 247.2 428.98 247.16 428.96 247.11 428.92 247.04 428.89 247 428.86 246.98 428.83 246.98 428.77 247 428.74 247.01 428.61 246.98 428.58 246.95 428.62 246.88 428.62 246.88 428.62 246.88 428.63 246.86 428.64 246.84 428.64 246.82 428.64 246.8 428.65 246.77 428.8 246.54 428.79 246.53 428.74 246.46 428.66 246.28 428.63 246.25 428.61 246.24 428.56 246.19 428.51 246.16 428.49 246.13 428.48 246.1 428.48 246.1 428.47 246.06 428.44 245.99 428.29 245.82 428.26 245.79 428.24 245.75 428.23 245.71 428.24 245.66 428.25 245.64 428.27 245.63 428.28 245.63 428.29 245.63 428.33 245.58 428.33 245.57 428.42 245.51 428.45 245.47 428.49 245.41 428.51 245.39 428.55 245.37 428.67 245.34 428.67 245.34 428.7 245.31 428.77 245.27 428.85 245.19 428.89 245.16 429.12 245.07 429.42 245.02 429.5 244.98 429.72 244.79 429.75 244.74 429.76 244.67 429.76 244.65 429.77 244.63 429.78 244.61 429.79 244.57 429.78 244.48 429.79 244.45 429.8 244.42 429.83 244.36 429.83 244.32 429.83 244.29 429.81 244.26 429.8 244.2 429.79 244.19 429.79 244.17 429.8 244.15 429.82 244.13 429.9 244.11 429.97 244.1 430.2 244.16 430.24 244.18 430.28 244.21 430.31 244.26 430.4 244.3 430.4 244.31 430.42 244.22 430.44 244.18 430.45 244.18 430.5 244.17 430.51 244.17 430.53 244.15 430.54 244.13 430.58 244.05 430.6 244.01 430.6 243.96 430.6 243.9 430.59 243.79 430.6 243.75 430.63 243.73 430.6 243.71 430.59 243.7 430.57 243.65 430.55 243.66 430.56 243.63 430.62 243.49 430.71 243.51 430.76 243.53 430.8 243.57 430.85 243.61 430.99 243.69 431.01 243.71 431.05 243.77 431.06 243.79 431.08 243.8 431.09 243.81 431.1 243.82 431.11 243.84 431.11 243.86 431.1 243.86 431.09 243.86 431.08 243.87 431.06 243.9 431.05 243.9 431.05 243.91 431.06 243.96 431.07 243.98 431.11 244.02 431.12 244.04 431.2 244.07 431.51 244.11 431.73 244.19 431.75 244.18 431.77 244.18 431.82 244.14 431.93 244.09 431.97 244.05 432.02 243.92 432.05 243.9 432.1 243.96 432.19 244.01 432.22 244.02 432.25 244.01 432.32 243.98 432.35 243.97 432.36 243.99 432.37 244.01 432.37 244.03 432.37 244.04 432.39 244.05 432.43 244.03 432.44 244.04 432.46 244.07 432.48 244.1 432.49 244.12 432.53 244.12 432.57 244.09 432.58 244.08 432.59 243.99 432.59 243.89 432.59 243.8 432.64 243.73 432.75 243.63 432.76 243.57 432.79 243.53 432.79 243.49 432.81 243.45 432.84 243.44 432.96 243.46 433.07 243.5 433.12 243.5 433.14 243.44 433.14 243.44 433.13 243.41 433.12 243.39 433.11 243.37 433.12 243.34 433.13 243.3 433.18 243.09 433.18 243 433.17 242.89 433.17 242.8 433.2 242.73 433.2 242.71 433.2 242.69 433.2 242.68 433.21 242.68 433.26 242.67 433.38 242.71 433.55 242.73 433.57 242.77 433.58 242.82 433.58 242.87 433.56 242.91 433.61 242.91 433.78 242.87 433.79 242.86 433.82 242.82 433.83 242.81 433.83 242.76 433.84 242.75 433.86 242.75 433.87 242.76 433.88 242.78 433.89 242.79 433.99 242.79 434.04 242.8 434.15 242.86 434.25 242.89 434.3 242.92 434.41 243.01 434.46 243.03 434.59 243.08 434.76 243.18 434.81 243.19 434.86 243.19 434.9 243.18 434.98 243.14 435 243.13 435.06 243.13 435.08 243.14 435.09 243.18 435.1 243.2 435.11 243.21 435.15 243.21 435.18 243.23 435.2 243.24 435.21 243.23 435.19 243.26 435.22 243.26 435.24 243.26 435.26 243.27 435.26 243.31 435.3 243.3 435.31 243.31 435.31 243.34 435.32 243.35 435.54 243.52 435.66 243.57 435.86 243.55 436.17 243.6 436.17 243.6 436.22 243.59 436.25 243.62 436.26 243.62 436.3 243.61 436.32 243.59 436.43 243.39 436.47 243.37 436.53 243.38 436.56 243.38 436.6 243.36 436.62 243.36 436.64 243.36 436.68 243.39 436.81 243.43 436.85 243.43 436.89 243.45 436.91 243.49 436.92 243.54 436.93 243.58 436.96 243.6 437 243.6 437.08 243.6 437.12 243.61 437.2 243.66 437.24 243.68 437.28 243.67 437.37 243.64 437.4 243.65 437.45 243.72 437.49 243.94 437.56 244.03 Z" id="Austria" transform="translate(-421.1099853515625,-242.6699981689453) "/></svg>