<svg xmlns="http://www.w3.org/2000/svg" viewBox="0 0 12.969970703125 10.100006103515625"><path d="M 502.27 273.9 502.25 273.9 502.12 273.87 501.97 273.8 501.5 273.7 501.45 273.68 501.34 273.64 501.14 273.64 501.02 273.61 500.95 273.6 500.94 273.6 500.93 273.6 500.88 273.57 500.85 273.56 500.82 273.55 500.77 273.53 500.72 273.5 500.7 273.47 500.69 273.44 500.7 273.41 500.71 273.39 500.71 273.36 500.7 273.34 500.65 273.32 500.63 273.3 500.62 273.28 500.6 273.22 500.59 273.19 500.57 273.17 500.55 273.16 500.53 273.15 500.52 273.12 500.53 273.07 500.52 273.04 500.49 273.03 500.46 273.02 500.44 273.01 500.44 272.98 500.45 272.96 500.44 272.94 500.42 272.94 500.4 272.95 500.38 272.96 500.38 272.96 500.15 272.88 500.09 272.9 500.07 272.86 500.05 272.72 500.04 272.69 500.02 272.66 500 272.63 499.96 272.54 499.95 272.51 499.92 272.5 499.9 272.47 499.88 272.44 499.88 272.42 499.86 272.41 499.78 272.35 499.78 272.34 499.77 272.33 499.76 272.32 499.75 272.31 499.72 272.32 499.71 272.31 499.65 272.27 499.65 272.25 499.66 272.22 499.62 272.18 499.59 272.12 499.52 271.84 499.5 271.78 499.45 271.75 499.46 271.74 499.47 271.73 499.42 271.73 499.37 271.72 499.36 271.71 499.33 271.69 499.32 271.68 499.3 271.65 499.27 271.54 499.25 271.5 499.31 271.48 499.42 271.46 499.51 271.46 499.59 271.44 499.65 271.41 499.66 271.4 499.74 271.34 499.82 271.31 499.9 271.35 499.92 271.37 500.06 271.56 500.09 271.6 500.1 271.66 500.09 271.72 500.07 271.83 500.08 271.87 500.12 271.9 500.2 271.88 500.27 271.82 500.33 271.8 500.34 271.82 500.4 271.9 500.42 271.96 500.44 271.99 500.48 272 500.58 272.01 500.62 272.03 500.69 272.1 500.69 272.1 500.71 272.12 500.74 272.12 500.76 272.12 500.79 272.1 500.81 272.09 500.99 271.98 501.05 271.96 501.32 271.89 501.33 271.89 501.39 271.89 501.45 271.91 501.5 271.95 501.52 271.98 501.52 272.03 501.51 272.1 501.51 272.1 501.51 272.1 501.53 272.23 501.52 272.28 501.45 272.4 501.43 272.46 501.44 272.49 501.45 272.5 501.58 272.53 501.62 272.57 501.66 272.62 501.72 272.66 501.75 272.67 501.88 272.73 501.92 272.78 501.94 272.8 501.94 272.82 501.94 272.84 501.92 272.86 501.87 272.93 501.85 273 501.87 273.08 501.92 273.16 501.98 273.24 502.02 273.33 502.14 273.65 502.27 273.9 Z M 512.18 269.67 512.21 269.71 512.22 269.75 512.21 269.78 512.16 269.77 512.14 269.78 512.1 269.75 512.08 269.71 512.09 269.67 512.12 269.7 512.14 269.69 512.16 269.68 512.18 269.67 Z M 511.56 269.26 511.58 269.27 511.62 269.26 511.63 269.28 511.64 269.34 511.66 269.37 511.69 269.4 511.71 269.44 511.71 269.47 511.69 269.49 511.66 269.5 511.62 269.49 511.63 269.42 511.56 269.33 511.56 269.26 Z M 500.16 267.83 500.14 267.77 500.15 267.76 500.16 267.75 500.17 267.75 500.18 267.75 500.24 267.81 500.22 267.84 500.16 267.83 Z M 499.7 267.65 499.68 267.62 499.66 267.57 499.67 267.53 499.7 267.51 499.79 267.53 499.82 267.61 499.78 267.68 499.7 267.65 Z M 502.92 265.13 502.97 265.14 503.03 265.14 503.13 265.15 503.17 265.17 503.18 265.23 503.17 265.35 503.19 265.4 503.22 265.43 503.27 265.43 503.31 265.41 503.38 265.34 503.42 265.33 503.51 265.31 503.54 265.29 503.55 265.28 503.59 265.24 503.61 265.24 503.62 265.27 503.64 265.39 503.65 265.43 503.67 265.47 503.82 265.6 503.86 265.62 503.88 265.63 503.94 265.64 503.97 265.65 503.98 265.67 503.99 265.72 504 265.75 504.03 265.79 504.14 265.88 504.19 265.97 504.21 266.06 504.24 266.11 504.25 266.11 504.34 266.1 504.38 266.08 504.42 266.07 504.46 266.08 504.5 266.13 504.51 266.18 504.52 266.23 504.54 266.27 504.58 266.3 504.58 266.3 504.6 266.32 504.61 266.35 504.62 266.38 504.63 266.41 504.7 266.49 504.71 266.53 504.72 266.6 504.72 266.75 504.74 266.82 504.78 266.86 504.95 266.96 505 266.98 505.02 266.99 505.25 267.01 505.29 267.03 505.36 267.11 505.4 267.15 505.44 267.15 505.52 267.09 505.56 267.08 505.61 267.08 505.72 267.14 505.79 267.17 505.83 267.18 505.99 267.17 506.02 267.17 506.11 267.14 506.17 267.11 506.18 267.08 506.16 267.04 506.15 266.98 506.16 266.92 506.18 266.89 506.21 266.87 506.24 266.83 506.26 266.77 506.27 266.73 506.3 266.7 506.35 266.71 506.4 266.69 506.48 266.48 506.52 266.39 506.59 266.35 506.85 266.3 506.91 266.26 507.03 266.16 507.22 266.04 507.27 265.99 507.32 265.9 507.41 265.65 507.42 265.63 507.58 265.43 507.68 265.26 507.71 265.28 507.77 265.32 507.85 265.39 508.05 265.66 508.12 265.74 508.16 265.79 508.17 265.86 508.32 266.03 508.4 266.21 508.45 266.23 508.49 266.27 508.51 266.31 508.53 266.35 508.58 266.43 508.59 266.44 508.6 266.46 508.66 266.47 508.68 266.48 508.71 266.53 508.79 266.7 508.86 266.84 508.89 266.89 508.92 266.94 508.93 267.01 508.96 267.26 508.97 267.31 509 267.34 509.01 267.37 509.05 267.58 509.16 267.76 509.42 268.06 509.44 268.09 509.46 268.14 509.51 268.18 509.61 268.24 509.66 268.23 509.7 268.26 509.74 268.31 509.79 268.34 509.81 268.37 509.8 268.43 509.76 268.54 509.75 268.6 509.75 268.63 509.75 268.66 509.76 268.68 509.79 268.71 509.79 268.73 509.8 268.73 509.81 268.76 509.85 268.79 509.89 268.83 509.92 268.84 510.02 268.85 510.06 268.86 510.1 268.88 510.18 268.95 510.22 268.97 510.33 268.98 510.43 269.01 510.48 269.02 510.52 269.01 510.64 268.96 510.7 268.95 510.95 268.96 510.97 268.98 510.98 269 510.98 269.02 510.99 269.04 511.03 269.09 511.08 269.13 511.12 269.15 511.32 269.19 511.36 269.22 511.38 269.26 511.41 269.33 511.44 269.39 511.49 269.42 511.54 269.43 511.58 269.48 511.61 269.54 511.63 269.6 511.66 269.83 511.67 269.86 511.69 269.91 511.7 269.97 511.69 270.01 511.65 269.93 511.6 269.86 511.55 269.79 511.44 269.7 511.39 269.68 511.34 269.66 511.24 269.65 511.16 269.62 511.12 269.61 511.09 269.62 511.06 269.63 511.04 269.63 510.96 269.63 510.92 269.65 510.84 269.71 510.8 269.71 510.78 269.7 510.75 269.65 510.74 269.63 510.71 269.63 510.66 269.62 510.6 269.58 510.55 269.61 510.48 269.67 510.49 269.74 510.43 269.81 510.34 269.85 510.19 269.89 510.07 269.96 509.9 270.02 509.86 270.05 509.77 270.15 509.73 270.17 509.71 270.21 509.7 270.27 509.72 270.35 509.72 270.38 509.6 270.42 509.58 270.47 509.58 270.53 509.61 270.58 509.63 270.61 509.66 270.63 509.68 270.65 509.69 270.68 509.68 270.7 509.65 270.72 509.62 270.75 509.6 270.76 509.58 270.77 509.57 270.8 509.56 270.84 509.55 270.86 509.57 270.92 509.59 270.98 509.6 271.01 509.59 271.05 509.57 271.07 509.55 271.08 509.54 271.1 509.54 271.13 509.54 271.14 509.55 271.16 509.55 271.18 509.55 271.2 509.54 271.21 509.51 271.24 509.49 271.28 509.49 271.29 509.51 271.31 509.5 271.35 509.51 271.39 509.56 271.46 509.56 271.49 509.53 271.51 509.47 271.54 509.41 271.61 509.36 271.67 509.32 271.74 509.32 271.79 509.3 271.83 509.28 271.9 509.26 271.96 509.25 272.02 509.25 272.1 509.27 272.15 509.48 272.34 509.51 272.37 509.52 272.41 509.52 272.42 509.51 272.43 509.5 272.53 509.5 272.56 509.52 272.59 509.49 272.57 509.47 272.56 509.46 272.54 509.44 272.51 509.43 272.51 509.44 272.55 509.46 272.6 509.48 272.64 509.52 272.67 509.52 272.69 509.47 272.67 509.44 272.64 509.41 272.6 509.3 272.52 509.22 272.55 509.16 272.63 509.14 272.72 509.14 273.03 509.14 273.07 509.13 273.12 509.09 273.21 509.08 273.25 509.08 273.35 509.07 273.41 509.05 273.46 508.88 273.58 508.79 273.61 508.73 273.56 508.74 273.53 508.74 273.51 508.74 273.49 508.76 273.47 508.86 273.45 508.89 273.43 508.92 273.39 508.94 273.33 508.94 273.27 508.92 273.22 508.87 273.2 508.77 273.19 508.77 273.17 508.76 273.05 508.75 273.02 508.71 272.99 508.67 272.97 508.57 272.98 508.54 272.99 508.53 273.01 508.52 273.04 508.5 273.08 508.5 273.09 508.5 273.13 508.5 273.15 508.49 273.15 508.48 273.15 508.47 273.16 508.47 273.29 508.48 273.36 508.51 273.42 508.5 273.49 508.44 273.69 508.44 273.71 508.39 273.81 508.39 273.82 508.32 273.9 508.24 273.88 508.25 273.98 508.25 274.02 508.26 274.07 508.31 274.2 508.33 274.64 508.34 275.11 508.34 275.11 508.19 275.08 508.12 275.08 508.07 275.11 508.03 275.15 507.97 275.19 507.91 275.21 507.86 275.23 507.76 275.22 507.75 275.22 507.68 275.15 507.62 275.05 507.59 275.01 507.53 274.94 507.5 274.9 507.46 274.85 507.43 274.8 507.39 274.77 507.36 274.73 507.35 274.65 507.32 274.59 507.27 274.59 507.16 274.64 507.09 274.64 507.05 274.6 507.01 274.55 506.91 274.47 506.9 274.42 506.91 274.36 506.9 274.32 506.89 274.3 506.87 274.28 506.57 274.13 506.43 274.02 506.38 273.94 506.38 273.82 506.4 273.79 506.52 273.71 506.52 273.7 506.52 273.67 506.53 273.66 506.94 273.58 507.03 273.53 507.03 273.53 507.03 273.53 507.03 273.53 507.03 273.53 507.05 273.5 507.07 273.46 507.07 273.46 507.08 273.42 507.08 273.38 507.07 273.35 507 273.2 506.97 273.17 506.84 273.12 506.72 272.99 506.66 272.92 506.63 272.84 506.64 272.74 506.68 272.66 506.74 272.6 506.82 272.56 506.95 272.54 507.07 272.46 507.13 272.44 507.15 272.43 507.1 272.33 507.04 272.24 506.89 272.1 506.52 271.66 506.38 271.53 506.34 271.5 506.31 271.49 506.31 271.49 506.28 271.53 506.26 271.55 506.23 271.56 506.06 271.55 506.01 271.57 505.97 271.6 505.93 271.63 505.84 271.73 505.57 271.88 505.53 271.9 505.41 272.02 505.38 272.04 505.33 272.05 505.18 272.1 505.09 272.15 505.01 272.21 504.9 272.35 504.9 272.35 504.83 272.43 504.76 272.47 504.74 272.48 504.52 272.57 504.41 272.63 504.39 272.66 504.38 272.69 504.3 272.81 504.26 272.92 504.25 272.94 504.23 272.97 504.21 272.98 504.08 273.05 504.05 273.06 504.02 273.05 503.96 273.02 503.92 273.02 503.89 273.04 503.89 273.04 503.85 273.07 503.82 273.1 503.77 273.2 503.75 273.22 503.74 273.23 503.7 273.25 503.68 273.27 503.65 273.31 503.62 273.4 503.58 273.43 503.45 273.5 503.41 273.53 503.38 273.57 503.32 273.7 503.29 273.74 503.26 273.77 503.23 273.8 503.19 273.82 503.15 273.84 503.11 273.84 503.03 273.68 503.02 273.65 503.02 273.61 503.02 273.58 503.03 273.54 503.03 273.54 503.03 273.53 503.06 273.44 503.07 273.36 503.06 273.28 503.03 273.18 502.98 273.14 502.9 273.1 502.85 273.04 502.84 272.96 502.89 272.91 502.97 272.92 503.11 272.99 503.13 272.98 503.24 272.91 503.28 272.91 503.3 272.9 503.29 272.88 503.29 272.87 503.28 272.85 503.26 272.84 503.17 272.77 503.11 272.72 503.09 272.67 503.08 272.63 503.06 272.59 503.03 272.56 502.87 272.49 502.8 272.43 502.77 272.34 502.8 272.27 502.87 272.22 503.03 272.19 503.03 272.19 503.06 272.18 503.07 272.16 503.07 272.13 503.06 272.1 503.06 272.06 503.08 272.03 503.12 272.01 503.14 271.98 503.13 271.93 503.1 271.89 503.06 271.87 503.03 271.86 502.89 271.87 502.85 271.87 502.81 271.84 502.76 271.77 502.73 271.75 502.65 271.74 502.5 271.82 502.42 271.83 502.38 271.82 502.34 271.79 502.29 271.69 502.26 271.65 502.22 271.63 502.14 271.6 502.07 271.55 501.98 271.37 501.92 271.32 501.78 271.27 501.71 271.24 501.66 271.21 501.56 271.11 501.54 271.08 501.44 270.87 501.4 270.82 501.34 270.79 501.1 270.77 501.03 270.74 501.03 270.7 501.03 270.67 501.17 270.58 501.53 270.64 501.69 270.62 501.72 270.6 501.73 270.57 501.76 270.43 501.77 270.41 501.82 270.37 501.86 270.31 501.88 270.24 501.92 270.06 501.93 270.04 501.92 270.02 501.92 270 501.86 269.93 501.83 269.9 501.8 269.88 501.75 269.88 501.72 269.89 501.7 269.9 501.66 269.9 501.57 269.79 501.56 269.79 501.05 269.5 500.92 269.38 500.84 269.22 500.83 269.19 500.78 269.16 500.76 269.14 500.75 269.1 500.74 269.04 500.74 269.01 500.7 268.96 500.65 268.93 500.61 268.89 500.58 268.82 500.58 268.76 500.58 268.69 500.63 268.6 500.72 268.53 500.81 268.48 500.98 268.4 501.04 268.33 501.08 268.21 501.08 268.15 501.04 268.13 500.99 268.12 500.94 268.11 500.91 268.07 500.81 267.95 500.75 267.9 500.73 267.9 500.7 267.89 500.67 267.86 500.69 267.77 500.68 267.7 500.62 267.7 500.6 267.71 500.49 267.77 500.44 267.76 500.35 267.72 500.24 267.71 500.2 267.67 500.17 267.64 500.13 267.61 500.05 267.53 500.02 267.51 500.01 267.57 500 267.6 499.95 267.6 499.91 267.57 499.88 267.52 499.9 267.42 500.12 267.43 500.2 267.38 500.19 267.33 500.16 267.29 500.05 267.2 500.01 267.18 499.87 267.18 499.83 267.17 499.82 267.13 499.84 267.07 499.76 266.9 499.97 266.72 500.3 266.44 500.37 266.42 500.45 266.42 500.49 266.44 500.6 266.5 500.63 266.51 500.67 266.5 500.75 266.48 500.78 266.49 500.81 266.52 500.88 266.59 501.2 266.71 501.35 266.74 501.4 266.76 501.4 266.78 501.37 266.8 501.32 266.82 501.27 266.88 501.32 266.96 501.41 267.04 501.46 267.07 501.57 267.14 501.9 267.25 502.01 267.27 502.06 267.26 502.1 267.25 502.16 267.21 502.22 267.17 502.27 267.16 502.43 267.16 502.47 267.18 502.51 267.21 502.57 267.29 502.7 267.41 502.75 267.44 502.88 267.48 502.92 267.51 502.98 267.59 503.02 267.62 503.07 267.62 503.09 267.59 503.1 267.54 503.12 267.49 503.17 267.46 503.21 267.47 503.26 267.48 503.3 267.47 503.33 267.43 503.34 267.41 503.36 267.32 503.37 267.22 503.4 267.14 503.41 267.12 503.44 267.09 503.45 267.07 503.46 267.05 503.46 267 503.46 266.98 503.48 266.96 503.5 266.96 503.51 266.96 503.49 266.91 503.42 266.81 503.38 266.76 503.37 266.73 503.36 266.73 503.35 266.72 503.31 266.74 503.28 266.65 503.17 266.59 502.95 266.5 502.85 266.4 502.8 266.39 502.78 266.38 502.66 266.3 502.62 266.25 502.6 266.18 502.59 266.07 502.58 266.05 502.53 265.95 502.53 265.94 502.5 265.94 502.48 265.96 502.47 265.99 502.45 266 502.39 265.95 502.37 265.82 502.36 265.67 502.39 265.57 502.43 265.52 502.48 265.52 502.58 265.54 502.63 265.54 502.66 265.52 502.69 265.49 502.79 265.38 502.84 265.3 502.92 265.13 Z M 500.96 268.85 500.99 268.78 500.94 268.74 500.9 268.74 500.87 268.74 500.84 268.75 500.81 268.77 500.8 268.8 500.79 268.83 500.8 268.86 500.81 268.89 500.89 268.91 500.96 268.85 Z" fill-rule="evenodd" id="Azerbaijan" transform="translate(-499.25,-265.1300048828125) "/></svg>