<svg xmlns="http://www.w3.org/2000/svg" viewBox="0 0 798 654"><path fill-rule="evenodd" d="M681 574Zm26-95v2l-1 1-1 1h-1v-2h1v-1h1v-1h1Zm9 0 1 1h2v1h1v1h-1v-1h-2l-2-1h-4v-1h5Zm-39-9h1-1Zm-12 0v1h-1v-1h1Zm-1-1v1-1 1l-1-1h1Zm9-1Zm-1 0Zm7-1v2h-1l-1 1v-1 1-1l1-1v-1h1Zm0 0h1v-1l1 1h2-2l-1 2v1h-1v-1 1l-1-1h2l-1-1v-1Zm-5 1h1-1Zm-62 64v1h-1l1-1Zm3-3v1h-1l1-1Zm18-1h2v1h-3l1-1Zm3-1-1 1 1-1Zm-25 0v1-1Zm38-18-1 1v-1h1Zm6-7v2-2Zm8-23v-1h-1 1-1v1h-1v-1 1-2h1v1h1l-1-1v-1h2v-1l1-1v1h1v-1 1l-1-1h1v-1 1h-1v-1h-1l-1-1v-1h1v1h1-1l1-1v1h1v1l1-1h1-1v1h1l1-1h-1l1-1h-1v1h-1v-1h-2 1v1l-1-1v1-1h3l1-1h-1 1v1-1h5-4l1-1-2 1 1-1v-2l1 1v1h1l1 1 2-1v-1h2v1h-1 1v1-1 2l1-1h1-1v4h-1v-2 1-1l-1-2h-1l1 1h-1v1l1-1v1h-1v1l1 2 1-1v1-1l1 1v-2l1 1v4l1 4v1l1 3h1v1h-2v2l-1 1v2l-1 1h-1v1l-2 1-1 1v1l-1-1v1l-1 1-1 1v1l-1 1-1 1v1l-1 2-1 2-1 1-2 1h-1l-1 1h-3l-1 1h-1l-2 1-1 1v-1h-2l-2 2v1l-1 1v2h-1l-1 1v1h-1l-1 1h-2l-2 1v-1l-1 1-2 1-1 2h-1v-2l1-1v-1h-1v-1l1-1h1l1-1h1l1 1h3l2-1v-2h-1v-1h1-1l1-1v1h1v-2h1l-1-1-1 1v-1l1-1 1-1h-1v1h-1l1-1h2v-1h1v-1l1 1v-1 1l1-1h2-1v1l1-1h1l1-1v-1h1v-2h-1v-2 1-1h-1 3v-1h4l3-1v-1l1-1-1-2 3-1h3l1-1h3v-1h1v-1l1-1v-1h1v-3l-1-2h1l-1-1 1 1v-1h-1v-1 1l-1-1h-1v-1h-1v-1l-1-1-1 1v-1 1-1 1l-1-1v1-1l-1 1h1l-1 1v-1h-1 1-1v1-1 1h-1l1-1h-1l-1 1h1-1v-1 1h-1v-1 1-1h-2 1v-1h1v-1 1-1h-1 1v1h-1v-1h-1v1h-1v-1Zm0 0v1h-1v-1h1Zm-2-5h2l-1 1-1-1v1-1Zm3-1h1l-1 1v-1h-1 1Zm0-2v1-1ZM274 191Zm5-3v3h-1l-1 1h-1v1h-1v-2l1 1 1-1h1l1-1v-1h-1 1v-1Zm-1 1Zm2-2-1 1v-1h1Zm-4-1v1l-1-1h1v-1 1Zm1-1v-1 1Zm-3-3h-1 1Zm1 0h1-2 1Zm9-2-1 1v3h-1v1h-1v-1h1l1-1v-3h1Zm0-3v2-1h-1 1v-1Zm-1-3v2-2Zm-1 0h1l-1 1v-2 1Zm1-1 1 2v1l-1-1v-2h-1 1Zm0-2v2l-1-1v-1h1Zm-1 0h-1 1Zm0 0Zm-15 22Zm-4-1h-1 1Zm1-2h1l-1 1v-1Zm8-2v2h-1v1h-1v1h-3v-1h-2l-1 1v-1l1-1 3 1h2l1-1v-2h1Zm2 3v2h-3 2l1-2Zm-4-4-1 1 1-1Zm1-2v1h-1v-1h1Zm1 0h-1 1Zm-10 4v1-1Zm8-3-1 1 1-1Zm-19 0v-1 1Zm16-31h1l-1 1v-1Zm6 28Zm-2-19 1 2 1 1h-1l-1-1h1l-1-1h-1 1v-1Zm1-1-1 1v-1h1Zm-1-1h1-1 1-1Zm11 8v1-1Zm-2-4 1 2v1l1 1h-1v-2h-1v-2Zm0 0v-1 1Zm-1-2 1 1h-1 1l-1-1Zm-1 0h-1 1Zm-1 0Zm-5-3h1v1l-1-1Zm1-4v-1 1Zm-7-7h1v1l1 3 1 1h1v1l1 1 1 1h1-1 1v-1 3l1 2-1-1v1l-1-1h-1v-1h-1v-1h-1v-1h1l-1-1h-1v-1h-1 1v-1l-1-1h1v2l1 1v-1h-1 1l-1-1v-2h-1v-1 2l1 1h-1v-1 1h-1v-2h-1v-2l1 1v1-1 1-3Zm6 4v1-1 1h-1v-1h1Zm-5 1Zm-3-5h1-1Zm-2-1h-1v1h-1l1-1h1Zm2-1 1 1h-3 1v-1h1ZM91 379v2h1l1 1 1 1 1 2h1-1v-1h-1v-1h-1v-1h-1l-1-1v-1l-1-1h1Zm-1 0Zm0-1v1l-1-1h1Zm-8-10 1 1-1-1Zm-73-1 1 1v1H9v-2Zm-7-25-1 1-1 1v1l1-2 1-1Zm3-1H3h2Zm2 0v-1 1Zm67 12v-1 1Zm-2-3 1 1-1-1Zm0-2v1l-1-1h1Zm-1-2Zm-64-6v1H5l2-1Zm2 0-1 1H7v-1l1 1v-1l1 1v-1Zm2-1h1-1Zm4-2h-1l-1 1 1-1h1Zm1-1Zm1 0Zm0 0Zm44-6h1-1Zm5 3 1 1h-1 1-1v-1Zm0 0Zm-2-2h-1 1Zm-1 0h-1 1Zm180 134h-1 1ZM138 240h-1v-1l1 1Zm0-1h-1 1Zm14-5Zm-50 155h-1 1Zm-6-3h1v2h2v1h2-3v-1l-1-1-1-1v-1 1Zm29-204 1 1-1-1Zm-1-4 1 1v1-1l-1-1Zm12 27v2-2Zm-4-10v1-1Zm-1-2v-1 1Zm-1-3h1v1h-1v-1Zm-8-15 1 2v-1 1-1h1l-1 1 1 1-1-1-1-2Zm-1-2v2-2Zm-1-2v1-1Zm0-2h-1 1Zm0-3v-1 1Zm3-7h-1 1Zm3-5v1l1 2v1h-1 1-1v-1 1h-1v1h-1v-2h1v-3l-1 1v1h-1v1l-1 1-1 1 1 1 1 1h2l1 1v1h-1l-1-1h-3v1h-1v-1l1-1v-2l1-1v-1l1-1v-1h1l1-1v-1l1 1Zm-2 4h-1 1Zm2 25Zm26-52Zm-9-3h-1l2-1-1 1Zm347 137h2v1-1l1 1 2 1v1h1l1 1 1 1v1h1v6l1 1 1 1v1h1l1 1v1l1 1 1 2 1 1v1l3 6 3 3 1 1v1h1v1h1l1 1 2 1 1 1 1 1h1l1 1v1h2v2l1 1 1 1v1l1 1v1h1v1h1l1 2v1l2 3v2h1v1h-1v1-2h-1v1l-2-1v-1h-2l-1 1h-3l-1 1h-1v1-1l-1-1h-1l-1 1-1 1-1 1-1 1v-1l-1-1h-2v1l-1-1h-1v-1l-2-1v-1h2l4-2 1-1h2l1-1h2-1 2l1-1v-1l-1 1v1l-1-1h1l1-1v-4h-1v-2l-1-2h-4l-1-1-1-1v-3l-2-1-3-4-1-1v-3l-1-1-1-1v-1l-1-1-1-1v-2l-1-1-1-1v-1h-6v-1h1v-5h-1v-2l-2-1-2-1-1-1-1-1h-2l-1 1v-3h-2v-1h2l1-1 1-1h1Zm-10 13-1 1-1-1h2Zm20-2Zm-27 1h1v1l-1-1h-1 1Zm-10-1h3l3 1h2v1h-3l-1 1-1-1h-1v-1l-1-1h-1Zm8-1h1-1ZM352 82Zm-17 0Zm2 1Zm-4 0Zm4 0h-1 1Zm0 0Zm-3 1Zm-1 0Zm3 0Zm0-1h-1 1Zm-1-2v1h-1 1l1 1h-1v1h-1l1-1h-1v-1 1-2h1-1 1Zm-7 1Zm9 0h-1 1Zm-3 0Zm-9-2 1 1h-1v-1Zm2 2v-1 1Zm-1-1h1l-1 1v-1Zm10 1h-1v-1l1 1Zm0-1Zm-7 0Zm2 0h-1 1Zm-5 0Zm0 0Zm-2-1 1 1-1-1Zm12 0h1v1h-1 1v1l1 1h-1v-2 1l-1-1v-1Zm-4 0Zm0 0Zm7 0h-1 1Zm-6 0Zm3 0h-1 1Zm5-1v1h-1v-1h1Zm8 23h1v1h-1v-1Zm-20 0h-1v-1h1v1Zm6 0h1-1v-1 1Zm0 0v-1 1Zm21-1h-1 1Zm-4-1v1l-1-1h1Zm1 0-1 1 1-1Zm4-5v-1 1Zm-2 2Zm-22-1-1 1v-1h1Zm-5 4v1l-1-1h1Zm24 0Zm-20-7v-1 1Zm2-2h-1 1Zm-6 0-1 1h1l-1 1h2-2v-2h1Zm3 0Zm-3 0Zm0 3v2h1l-1 1v2h-1l1-1v-2h-1v-1h-1v1h-1l-1-1h2v-1h1v1l1-1Zm-2 2h1l1 1-2-1Zm6-1v1h-1v-1h1Zm5 0v-1 1Zm17-1h1l-1 1v-1Zm-16 0h1l-1 1v-1Zm2 0Zm-10-1v2h1-2l1-1h-1l1-1Zm0-4v-1l1 1h-1Zm23-3v2h1-1v-2Zm-17 2Zm-1 0v-1h1l-1 1Zm-3-1h-1 1Zm21-1h-1 1v1-1Zm-14 0v1-1Zm-6 2v-1 1h-2 1v-1h1v-1 1h1-1 1v-1 1h1v1h-1l1-1h-1v1h-1Zm2-1v-1 1Zm4 0h-1v-1h1v1Zm-6-1h-1 1Zm1 0Zm0-1v1h-1v-1h1Zm6 1h-1v-1l1 1Zm-4-1Zm-2-1v1-1Zm-7 5v2-1 1h-1v1h-1v-1l1-1v1-2h1Zm6 1v1l-1-1h1Zm-5 0Zm1 0h-1l1-1v1Zm2-1v1-1 1h-1v-1h1Zm3 1-1 1v2-2l1 1v-1 1h-1 2v1l-1 1h1v-1 1l-1 1h1v1l-1-1h-1v1-2l-1 1v-1l1-1h-1v1-2h1v-1l-1 1v-1 1h-1v1-1h-1v-1h-1v-1h1v1-1 1h1v1-1h1v-1l-1 1v-1h1v1h1v-1h1Zm-2-1Zm-4-1v1h-1v-1h1Zm5 0h-1l1 1h-1v-1h1Zm0-3v1h-1v-1 2-1 1h-1v-1 1h-1 1v1h-1v-1 1h-2v2h-1v-1h1v-1h1v-1l1-1h1-1l-1 1 1-1v-1l1 1 1-1 1-1v1Zm4-1v1-1Zm-4 0v1-1Zm2 0Zm-15-7v1-1Zm-1-1Zm-1-1h1-1Zm1 0v1h1-1v-1Zm-3-3h1v1h-1v-1Zm1-8 1 1-1 1v-2Zm2 1v-1 1Zm-2 3h1-1Zm-1-2Zm-2 1v-1 1Zm3 0Zm-2 0h1v1h-1v-1 1-1h-1 1Zm0 2h-1 1Zm0-1v1-1Zm1 0h-1 1Zm-1 0h-1 1Zm3-1 1 1h-1v-1Zm-5-3h-1v1l1 1v1-1 1h1v-1 3l-1-1-1-1v-3h1v-1 1Zm3 5v1l-1-1h1Zm0 1Zm4 0v1-1Zm-3-1-1 1 1-1Zm-1 0v1-1Zm1 0Zm-1 0h-1 1Zm3-2h1v2-1h-1v-1Zm0 6h-1 1v-1 1Zm-1 0 1-1v1h-1Zm4 6Zm20-1Zm-15 1h-1 1Zm-4 0h-1l1-1v1Zm10 0v-1 1Zm-9 1-1-1h1v1Zm10-1h1v1h-1 1-1v-1Zm1 0Zm3 0h-1 1Zm-17-1h1-1Zm12 0Zm-5-1h1v1-1 1h-1v-1Zm1 1h-1 1Zm1 0Zm9 25-3 1-1-1v-1h1v-1h-1 1-1v-1h-1v-1l-1-1-1 1h-1v-1h3v-1h1v-2l1-1v1h1-1 5-1l1-1h-2v1-1h1-2v-1 1h-2v-1h-1v-2 1l1-1h-1l1-1h-2l1-1h-1v1-1h-1v-1h1v1h1v1-1h1-1v-1 1h1v-2h1v1-1 1l1-1h2v-2h-1v1h-1v1l-1-1v1h-1l1-1h-2v-1h-1 1l1 1v-1 1l1-1 1-1v-1h-1 1v-1h1l-1-1h1v-2h-1v-1l-1 1v-1 2h-1v-1h1-3v-1h1-1v-1h2v-1h-1l-1 1v-1h1v-1l1 1h1v-1 1l1-1v1h-1 1l1-1v1h-1 1v1-1l1 1v-1h1l-1 1 1 1v-1h1v1h1-1 1v-1 1h-2 1v1h-1 1-1v-1h-1v1h1-1v1h1v-1h1l1-1 1-1h-1 1v-3l-1-2h-1v1h-3v-2l-1 1-1-1h-1v1l-1-1v1l-1-1v1h-1l-1-1v1-1l-1 1h-2v-1h-2v-1h-1 1v-3 2l-3 1v-1h-1v-1h-1v-2l-1-1 2-1v-1h2v-1h-2v1h-1l1-1h-1l-1 1v-1h2v-1h1-1v-1 1h-1v-1 1h1-2v-2l-1-1-1 1v1h-3v1-1h-1v1l-1-1v-1h-1v-1h-1v-1h-1v-8l-2-1v-1h-1l-1 1v-1h2l-1-1v-1h-1v-1l-1-1h-1v-1l-2-1v-1l-1-1h-1v1h-2v-1h1l-2 1-1-1h1v-1l-1 1v1h1-1l1 1v-1 1-1h4v1h-4v1-1h-2l-2 1h-4v-1h-1l-1-1-1-1v1-1h-1l-2-1h-1l1 1h-1l-1 1h-1l-1-1h2v-1h-1v1l-1-1h-2l-1-1v1h-2l-1-1h-2l2-1h4l1 1h4l1 1v-1l5 1h2-1l2 1h1v-1h4-1 1v1-1h1-1v-2l3 2h1l1 1h1v1h1l4 3 4 4 3 3h1v1l1 1v1l2 1v1h2l1 1 1 1 2 1h1v2l2 1h2v1h-2 1-2v1l-1-2-1-1v1l1 1v1l1 1 1 1h-1v-1 1l1 1 1-1h-1 1v1h1v1l2 1h1v1-1l1 1h6v1h1l1 1h1v1l1-1h1v1h1v1l2 1 1 1h3v-1h-1l-1-1 1 1h3l1-1-1 1h-1v1h-1 1-1v4h1-1 1v2-1h-1v1h1l-1 1-1 1h1-1v1l1-1v1-1 2-1 3-3h-1v3l1 1v-1 1-1h1v2h1v1-1l1 1h-1v-1h-1v-1 1l1 1h-1v-1 2-1h1v2h3v2h1-4 1-1v2-1 1-1 1l1 1h-1 1-1 1v1h1-1v-1h1-1 2v-1 1h1-1v2l-1 1v1-1h-2v2h-1l-1 1v-1l-1-1h2v-2h-2l-1 1h-2 1v1h-3l-1 1-1 1-2 2-1 1v1h-1v2h-1v6l-1 1v1l1 1v5h-1v1l-1 1v3l1 1v5l1 2v4l-1 2h1-1v2l1 2-1-1-1 1h-1v1h-1v-1h-1v-1l-2-2v-2h-1l-1-1v-1h-2v-1h1-1v-2h1v-1l-1-2h-2v-1l1 1v-1h-2v1l1-1v1h-3v-1h-2v-1l-1 1h1-2l-3-1v-3h1v2l2-1h1l1-1-1-1 1-1 2-1h1-1l1-1v-1 1l1-1v1-1l1 1v-1h1v-1l-1 1 1-1 1-1h1l1-1v1-1l1-1h-1v1-1h2v-1h1v-1 1l2-1v-1l1-1-1-1v1-1h-1l-1 1v-1h1v-1l1-1h-1v-2h-1v-1h-1v1h-1 2l-1 1v-1 1l-1-1v-1h2v-2h1v-1 1l1-1v-1h1v-1h1l2-1Zm-6-23v1h1l-1 1h1v1h-1v-1h-1v1h1-1 1v1l-1 1h-2v-2 1l-1-1v1-1h-1v-1h1v1h1v-1 1l1-1h-2v-2 1-1 1-1l-1 1v-1 1h-1l1-1h-1l1-1-1 1h-1l1-1h-1 1v-1h1l-1 1h1v-1h1l1 1h-1 1v1-2h1v3h-1v1h1v-1h1l-1-1h1v1h1-1v-1h1v1-1Zm10-3h-1 1Zm-16 0h-1 1Zm-6 0Zm13 0Zm-6 0h-1 1Zm6-1Zm-11 0v1-1Zm6 0v1h-1v-1 1-1h1Zm-4 1h1-1Zm2 0Zm-4-1h1-1Zm20 0v-1 1Zm-1 0Zm-15 0Zm2 0Zm0 0v-1 1Zm26-2v1-1h-1 1l1-1v1h-1Zm-5 0h1-1Zm-9 0Zm-14 0Zm12-1 1 1h-2 1v-1Zm-3 1h-1 1Zm-6 0Zm8-1v1-1Zm-5 2-1 1h1v-1 1l1-1v1h-1 1v1h-1v1h-1v1h1-1v-1h-1v-2h1v-1h1Zm-12 0h1v1h1v1h-1v-1h-1v-1Zm10 0v2h-1v-1 1-1l1-1v1h-1 1v-1Zm8 0Zm-12 0v1-1 1h1-1l-1 1v-1 1l-1-1v1-1 1-1h-1v-1l-1 1 1-1h1v1h-1 1v-1l1 1v-1h1Zm-6 0v1l-1-1h1Zm12 0Zm7 0v1-2 1Zm-6 0Zm2 0Zm-2 0Zm-1 0-1-1v1-1h1v1Zm6 0h-1v-1l1 1Zm4 0v-1 1Zm-7 0h-1 1Zm-1-1v1h-1l1-1Zm-1 0-1 1v-1h1Zm4 0v1h-1v-1h1Zm-3 0h-1l1-1v1Zm-10-2v-1 1Zm0 0Zm1-1v-1 1Zm-4-8v1h-1v1h-1v-1l1-1h1Zm1-2Zm0 1Zm-2 8 1 1h-1v-1Zm1-1h1v1h1v2-1h-1v-1h-1v-1 1h-1v-1h1-1 1Zm2 1h1-1Zm2 0h-1 1Zm-5-2v2h-1v-1h1v-1Zm15 5Zm1 0h1v1h-1l1-1h-1v2h-1v-1h1l-1-1v1-1h1Zm19-1v1h-1l1-1Zm-32 1h1-1v-1 1Zm0 0v-1 1Zm-57 236v1l1-1v1l1-1 1 1 1-1h2l2 1-1 1-1 1h-2v-1h-2l-1 1h-1l1 1v-1l1 1h1l1 1h-1v1h-1v3h-2v1h-1l-3 1h-2v1h-3l-1-1-1-1h-1v-1l1-1h1l1 1h1v-2h2l1-1-1 1 1 1v-1h4v-1l-1-1 1-1v-1h1l1-1h-1 1-2l-1 1-2 1v1-1h1v-1l1-1v-2h2Zm-5 6h-1v-1h2-1v1Zm-3-7h-1l-1 1v1h-3v1h-1v1h1v1l1-1h1v-1l2-1h1-1v-1h2v-1 1h2v1h1-2v1l-2 1 1 1v1h1l1-1-1 1v1l-1-1v1h-2v-1 1h-1v1h-1l-1-1h-1v-1h-1l-1-1h-1v-2h-1v-2h1v2h1l-1 1h1v-1h1l-1-1 1-1h2l2-1h1v-1 1h1v-1 1Zm-7 2h-1 1Zm12-1h-1 1Zm-3-2h-1 1Zm5-3v1h1-1l-2 1h-3 1l2-1h1v-1h1Zm-4-1h1v1h1-1l-1 1v-1h-2l1-1h1Zm9 5h-1 1Zm-3-1h1-1v1h-1v-1h1Zm4-2h-1 1v1h-1v-1h1Zm-1-1Zm0-4h1v1h-1v2h-2l-1 1h-1v-1h-1v-2l1-1v1h-1 3l1-1h1Zm-3 0Zm2-1h-2 2Zm1-2v1h-1l1-1Zm9 9-1 1h-1l-1 1h-1l-1 1h-1l-1-1h-1 3-1l1-1h2l1-1h2Zm-7 0h1-1l-1 1-1-1h-1 1v1h1v-1h1Zm5 0h-1 1Zm0 0Zm-2-1v1l-1-1h-1v1h-2l1-1h3Zm-3-1h-1 1Zm2-5-1 1-1 1v-2h1l1-1v1Zm4-4h-1l1 1h-1 1l-1 1v-1h-1l1-1h1Zm5 8h-1v1h-4 1l1-1h1-1 1l2-1v1Zm3-1h1v1h-1v-1Zm-3-9 1 1v2l1 1v1l1 3v1h-2l-1-1h-1v-1h-3l-1 1v-1l-1 1h2l1-1 1 1h2l1 1h-1v-1h-1l-2 1h-1v-1 2l1-1h1l1-1h1l1 1h-3l-1 1h-1l-1 1-2 1v-1h-1l1 1h-1v-1h-2v-1l1-1h1v-1h-1v1h-2l1-1 2-1h-1v-1h1v1h1v-1h-1 2l-1-1h3-1 3v-1l-1 1-1-1v1l-1-1-1 1h-2v-1h3v-1h2v-2h1l2-1Zm-5 5h-1 1Zm-4-5h1l-1 1v-1 1l-1-1h1Zm-1 0h-1 1Zm3-2v1h-4v1-1h-1l2-1h3Zm-5 3h1v1h-1v1h-2v-1h1v-1h1Zm-4 1h-1 1Zm4-3v1h-1l1-1Zm-7 10 1 1-1 1-1-1 1-1Zm1-8v1-1Zm13-20v1h1v1h1v-1 1h-1v1h1v1l-1-1 1 1-1 1v1l1 1 1 1h1v1h1l-1 2 1 1h-1v1l-1 1v1h-3v1h-3v1h-4l-1 1h-1v1h-1v-1 2h-1v-1 1h-1 1l-1 1v-1h-1 1v-1h-1v1h-2v1h1-1 3-1 1l-1 1h1l1-1v2l-1 1h-1v2h-1 1l-1-1v2l-2 1v1l-1-1v1h-4v-1h1-1v-1h-1v2h-3l-1 2h-2v1h1-1l1 1h1l1 1v-1l-1 1v1-1h-2v1h-1l-1-1v-1h-1v-3l-1-1-1-1-1-1-1-1v-1l1-1h1-2v1h-1v-3 1l-1 1h-1l-2-1-2-1-1-1v-3l1-1 2-2 1-1 1-1 1-3v-1l1-1-1 1v1l-1 2-1 1-2 1h-1v1h-1l-2 2-1 1-1-1 1-1-1 1h-2l-1-1-2-1h-1l-1-1-2-1-2-2-3-1-1-1-1-1h-1v-4l-1-3v5h-1v-1h-1l-2-2-2-1v-1h-1v-1h1l1-1h1l1-1h1l1-1 1-1h1v-1h-1v-1h3v-1h-2v-1h-1v-1h1v-1h1v-1h1v3l1 1 1 1v1-1l-1-1h1l-1-1v-2l1 1v-1h1l1-1-1-1h2v-2 1h1v-1l-1-1v-1h1v-1h2v-1l-1-1h2v-1h1v-1h1v-1h1l-1-1 1-1v-1l1 1h1l1-1v-1h1v-1l1-1v-1h1v-1l1-1v-1l-1-1v-1l-1-1 1-1 1-1 1-1v-2h-1v-1h1v-1h1-1v-3h1-1v-1l-1-2v-2l-1-2h-1v-2h-1v-2h-1v-1l-1-1v-3h2l1-1 2 1h2v1h-1 3l-1 1h-4v-1l-1 1h-1v-1 1h1v1-1h5l1 1h1v2h1v1-1h2-1 2-1l1-1 1 1h3v-1h-3v-1h2l-1 1h2-2l1-1v-1h1l1 1 1-1v1h1v-1l1 2 1 1v1h1v1l1 1h-1v1h-1v1h1v1h-1l1 1h1v-1 1h1l1 1 1 2h-2v3h-1v2h1l-1 1-1 1h2v1h-1 2v1h-1v1h2l-1-1v-1h1v-1l-1 1v-1h1l-1-1h1v1h2v1h-1v2l1 1 1 1v-1 1h-1v-1l-1-1v1l1 1v2h1v3h1v2l1 1v1l1 1h-1 1v-2h-1v-1h-1v-1h1l1 2v1l1 1v1l1 1h1v1h1v1l1 1v1h1l1 1v1h1v1h1v1l1 1v-1l1 1 2 2v1h1l1 1v1h-1 1v2-2 1-1 3h1v3h-1v2h-1Zm0 21v-1 1Zm1-1Zm3-14h-1 1Zm0-2Zm3-2v1-1Zm163-53Zm-14-10v-2 1h1v1h1l2 1v1h2l2 1 2 1 1 1v1h1v1l1 1v-1 2h-1v-1l-1 1v1l1 1v1l1 1v-2h-1 1l-1-1 1 1v6-1h-1v-1h1-1v-1h1-1v6l-1 1-1 1v1l1 1h-1v1l-1-1v2h1v1h-2v1l1 1h1l-1-1 1-1v2l1 2v6l-1 1v1h-1v2h-1v2h-1l-1 1h1l-1 1v1h-1v1h1l-1 1 1 1h-1l1 1v1h1v2h1v1l1 2 1 2v2h-1l-1-1-1-1-1-1v-1l-1-1-1-1v-1h-1 1l-1-1v-1l-1-1v-2h-1l-1-1v-1h-2v-1h-1l-1-1h1l1 1v-1h-2l-1-1 1 1h-3v-1h-2v-1l-1-1v-2l-1-1 1-1v1h1l2 1v1h1v1h2-1 1l1 1h1l1 1h3l2-1v-1l1-1h-1v-1h1l1 1v-1h1l1-1 1-1v-2l-1-1v-1l-1-1h-2v4h1-1v-1h-1v-1h-1v-2l1-3v-2l1-2v-1l3-2 1-1h1-1l1-1v-2l1-7h-1v-1h-1v-1l1-1h-1v-1h-1v-1l-1-1h-2l-2-1h-1v-1l-1-1v-1h-2 1v-1Zm6 6h-1 1Zm7-1h-1 1ZM194 76l-2 1h-1l-1 1h-1l-1 1-1 1h-4l-1 1v-1h-3l-1-1h-2v-1h-1v-1h-1 1-2v-1l-2-1-2-1-3-2v-1l-1-1-2-1v-1l-3-2-2-2-1-1-1-1-1-1-2-1h-1v-2h1v1h1l1 1 1 1 1 1 3 1h1v-1h-1v-1l-1-1h-1 1l1 1h1-1v1h2v2h1v1-1l1 1h1-1l1-1v2l1 1v1h2v1h1v1-2h1v1-1 1h1-1v1h1v1h-1v1h-1v-1 1l1 1v-1l1 1v-1l1 1v-1 2h1v-1l1 1h-1l1 1v-1h1l1 1h1l1 1 1-2h1-1v-1 1l-1 1v-2h2v-1h1l1 1v-1h-1v-1l1 1h1v1-1h1l1-1v-2 1-1h3v1-1 1-1h1v-1h1l-1-1h1v-1h1v-1l1-1v-1h1v-1h1v1-1h-1v-1h1v-1h2-2 1-1l1-1v-1h1-1v-1h-1l-1 1v1-3h1-1l-1 1v-1l-1 1h-1v1-1h-1v-1h1v1h1v-1 1-1h2l-1-1h-1 3-1 1v1h1-1 1v1-1h1-1v-1 1-1h-1 1-1v-1h-2 1v-1h1v-1h-1 1l-1-1h1-1 1v-1 1-1h1v-1h1-1 2v1l1-1v1l-1 1h1v1l-1 1 1-1v1-1h1v1h-1v1l1-1v1-1 1l-1 1v2h1l-1-1h1v1-1h1l-1 1 1-1v1l1-1h1-1 1l1-1v1h1v-1h2v1h-2l-1 1h2v-1h2l-1 1h1-1v1l1-1h1v1-1h1v1h1l-1 1 1-1v1-1 1-1h1v-2h1v2h1-1 1v1h2l-1-1v-1l1 1v1h1v1h4v-1h1-1v1h1v-1h1v1h-1 1l1-1v1-1h1v1h1v-1l1 1v-1h-1 1v-1h1-1l1-1h1v-1h1v1h-1l1 1h1l-1-1h1v1h1l1 1h1v-1l1 1v-1h1-1v1h1v-2h1v1l1-1h1v-2 1l1 1h2v1l1 1h1v-1h2-1v-1h1v-1l1 1 1-1h2v-1h2v1h2v-1l1 1h3l1 1v-1h-1 1l1-1h-1 1v1h1v-2 1h-1l1-1h1-1 1v1-1h2v-1h-1l1-1v-1h1v1l-1-1v2h1l-1 1h1v-1 1-1h1v1h-1 1v1h-1v4l1-1v1h-1l1 1v1h2l1 1 1 1h1v1h-1 1l-1-1v1l-1-1v1h1l-1 1 1-1h1l-1 2h-3l-1 1h-1l-1-1-1-1h-1 1l1 1h3v-1l1-1 1-1h1l-1-1v1-1l-1 1-1 2h-4l1-1h1l1-1 1-1h1-1l-1 1-3 1h-1v1l-1-1h-3v-1h-6l-1 1h-6l-1 1-1-1-1 1h-1l-5 1h-3v1h-1v-1 1h1-10l-3 1h-1l-2 1h-5l-1 1h-2l-1 1-2 1h-2l-1 1h-2l-1 1h-2v1h-2l-1 1Zm448 424h-1 1Zm0-6v1-1Zm-2-3 1 1-1 1-1-1v-1h1Zm6-17v1-1 1h-1v-1l1 1v-1Zm-10 14v1h-1v-1h1Zm0-14h1l-1 1-1 2-1 1-1 1v1l-1 1h-1l-1 2h-1v1l-1 2-1 1v-1l-1-1 1-1v-2l2-1 1-1 2-1 1-1h1v-1l1-1 1-3v1Zm0-1Zm1 0Zm-1-1 1 1h-1v-1Zm-7-17h-1 1Zm16 18 1 1h-1v-1Zm0-1v1h-1v-1h1Zm-12-16h2l1 1 2 1h1l2 1h1l1 1 2 3v1l1 1h2v-1 1h2v1l1 1h1v-1h2v1l1-1h3l1 1h1l1 1h4l-1 1h-2v1h-1v2h-2l-1 1v1h-3v-1l-1-1v-1l-1 1h-2v1h-2v1h-2l1-1v-1 1h-1l1-1h-1l-1 1v-1h1v-1l-1 1h-1l-1-1v-1 1-1h-1v2l-1-1h1v-1h-1v-1 1-1h-1v1h-1 1v-2 1h-1v1-1l-1 1-1 1h-1v1h-1v-6l-2-2-1-1-1-1-1-1v-2l-1-2v-1h3Zm33-17Zm26-6Zm14-2h1-1Zm-11-2h3v1h2v1l-2-1-3 1-1 1h-1l-2 1v-1h-4v-1h-1l-2-1h1v-1h10Zm7 1h1l-1 1-1-1h1ZM277 87v-1 1Zm2-1h-1l1-1v1Zm2-6h-1 1Zm-6-4h-1 1Zm-4-1Zm2-1v2h-1v-2h1Zm0-4h-1 1l-1 1v1h1-1v1l-1 1v1l-1 1-1-1v-2l1 1v-2h1l-1 1h1l-1 1h1v-3l1-1-1 1h1-1v1h1l-1-1h1v2-3h1Zm-1 2Zm2-1v1l-1 1h-1 1v-2l1 1h-1 1v-1h-1 1Zm3 1v-1 1Zm-4-2Zm1 0Zm-2-3h-1v1-1l-1 1v1l1-1h1v-1 2l-1 1h-1v1-1h-1v1h1v-1l1 1h-1l-1 2h-1v-1l-1-1-1-1-1-2h5l1-1h1v-1 1Zm0 2v1-1 1-1Zm0-2Zm1-1-1 1v-1h1Zm0 3v1-1Zm-1-3h-1 1Zm-1-2v1h-1 1v1l-1-1-1 1 1-1v-1h1Zm0 2v1l-1 1h-6v-1h4v-1 1-1h3Zm-5 0v1-1Zm-6-1v-1 1Zm6-5v1-1Zm-41 0-1-1h1v1Zm16-2h1-1v-1 1Zm-6 0Zm1-1h1l-1 1v-1Zm-6 0h-1 1Zm-21 0Zm15-3h1v1h-1 1v-1h1v1-1 1h1v1h1l-1 1h-2v-1h-1v-1h-1l1-1h-1 1Zm19 4-1 1v-1h1Zm17-5Zm3-1-1 1v-1h1Zm-2 0h1l-1 1v-1Zm1 0Zm1-2Zm-26-25v2h-1v-1l-1 1-1 1-1 2v3l-1 1v-1l1-4h-1v-1l-1 1v1-1l1-1 3-2h1v-1l1-1v1Zm0 3-1-1h1v1Zm279 371h1-1Zm2-1v1-1Zm0 0Zm-7 0h3l1 1h1-1l-1 1v-1h-2l-1-1h-1 1-1 1Zm7 0Zm-38-16h1-1Zm-3-2v1-1Zm1 0v1-1Zm-25 0Zm1 0Zm0-1v1h-1l1-1Zm0 0Zm21 0h-1 1Zm-20-2Zm12-4v-1 1Zm-2-3h-1 1Zm0-1v1h-1v-1h1Zm0 1 1 1h-1v-1Zm-8-1v2h-2l1-1h-1l1-1h1Zm-11-2h1v1h-1v-1Zm2 1h1-2 1Zm2 0h1l-1 1v-1h-1 1Zm2 0h-1v-1h1v1Zm12 1h-1 1Zm-1-1h-1 1Zm0 1-1-1 1 1Zm-2-2h-1l1-1v1Zm-1-1v1-1h-1 1Zm2 1v1l-1-1h1Zm-9 1h-1v-1h1v1Zm7-1v1h-1v-1h1Zm22 28v1-1Zm15 0h-1 1Zm-9 0Zm-23 0v-1 1Zm9 0Zm-2 0Zm11 0h-1 1Zm10 0Zm-25-1Zm13 0v1h-1 1v-1Zm-6 0-1 1 1-1Zm21 0Zm-8 0h-1 1Zm-23 0Zm3 0h1-1Zm1 0Zm8 0h1-1Zm-21-1Zm10-1h1l-1 1h-1v-1h1Zm0 0h1l-1-1v1Zm4 0h-1 1Zm-1-1v1h-2l2-1Zm30 0-1-1 1 1Zm-2-1h-1 1Zm-14-7 3 3h1v1h2v1l-1-1h-1l-1-1h-1l-1-1-1-1-1-1h1Zm-9 1Zm8-1Zm14 6v1-1Zm-1 0Zm-4-1h-1 1Zm-1 0h-1v-1l1 1Zm-4-1v1-1Zm9 5v1h-1l1-1Zm-7 0Zm-13 0v-1 1Zm0-2v2h-1v-2h1Zm-2 1v1h-1v-1h1Zm-2 0h1v1h-2v-1h1Zm2 0v1-1h-1l1-1v1Zm-1 0v-1 1Zm4-1v1h1v1h-1l-1-1h1v-1Zm16 0h-1v1l1 1h-1v-2 1-2l1 1Zm-14-2v1h2v1h-1v1l1-1v1l-1 1v-1l-1 1v-1l-1 1v-1h-1v-1h1v-1l1-1v1-1Zm-22 6h-1 1Zm4 0h-2l1-1h1v1Zm2 0Zm16 0Zm-8 0h1-1Zm-3 0h-1 1Zm20 0h-1v-1l1 1Zm-9-1-1 1h-1l1-1h1Zm-14 0h1-2v1-1h1Zm16 0v-1 1Zm-1 0Zm4-1v1h-2v-1h2Zm-26-24v1h2-1v1h1-1l1 1v-1h1-1v-1h1v1-1 1h1v-1h-1v-1l1 1 1 1v1h2l1 1 1 1 1 1h1l1 1 1-1v1h-1v1h1l2 2 1 2h1l1 2h1v1l2 1h1l1 1 1-1h-1 1v1h1v1h1v1h1v1h1-1l1 1h1l-1-1h1l1 1h-1 2v1h-1v-1h-1l1 1h-1v-1h-1 1-1 1v1l-1-1 1 1h1v1-1l-1 1v-1 1h5v1l1 1h3v-1h-1v1l-1-1-1 1v-1h2v-1l3 1 1 1h2v1h3l1 1h2l1 1h1l1 1v1h1-2l1-1h-6v-1h-1l-2 1-1-1v-2h-1v1h1v1h-1l-1 1v-2h-1v-1 1h1l-1-1h1-1v-1h-2v1-1h1l1 1h-1l-1 1-1-1-1 1-1-1-1 1v-1l-1 1v-1h2l-1-1h-1v-1h-8v-1h-1 1-1v-3h1-1v1h-1l-1-1h1-1v-2h1-2l-1 1v-1h-1v-1l-1-1v-1 2l-1-1-1-1h-1l-1-2h-2v-1 1l-1-1h-1l-1-1h-2l-1-1h-3l-2-1-1 1v1h1v1h-1v-2h-1 1v-1h2l-1-1-1-1v-2l-1 1v-1h1v-1h1v-2h1l-1-1v-1 1-1Zm0-4 1 1-1-1Zm-2 0v1-1Zm0-1 1 1h1-2v-1Zm-14 1h1v1h-1v-1Zm-2-1Zm3-1h1v1l-1-1v1h-1v-1h1Zm-2 0Zm1 0Zm-1 1Zm1 0-1 1v-1h1Zm8-4h1v1h1v1h1l1 1h1v1h1-2v-1h-2v-1h-1v-1h-2l1-1Zm-1-1h-1l1-1v1Zm-45-54v1h1-1 1l-1 1h-1v-1l1-1Zm0 0h-1 1Zm0-3v2h1v1h-1v-3Zm43 56v1-1Zm1 0Zm-46-57h1-1Zm-3-1Zm-4-3h1-1Zm1 2v1-1Zm3 0v1-1Zm-3-3v1l2 1h-1l1 1h1-2v-2h-1v-1Zm5 3v1h1l-1 1h1v2h1v1l-1-2-1-1v-1l-1-1h1Zm46 60 1 1 1 2h-1l-1-2-1-1h1Zm2 0h1-1Zm-1 0 1 1-1-1h-1 1Zm-54-64Zm-1 0h1-1Zm-3-1h1-1Zm-1-1v1-1Zm-1 0h-1 1Zm-1 0v1l-1-1h1Zm-1-2v2h1-1v-2Zm-3 0v-1 1Zm2-1v1-1Zm-2-4v-1 1Zm0 4Zm-1-5v3l1 1 1 1-1-1-1 1v-5Zm-2-6v1-1Zm-3-2h1-1Zm2-3v1-1Zm-2-4v1-1Zm1 0v1-1Zm-1-2h-1 1Zm1 1Zm0 0-1-1h1v1Zm1 7h-1v-1l1 1Zm0-1v1-1Zm0 0Zm0 2v1h1-1l-1-1h1Zm-1-6v2h1-1v2h-1v2-6h1Zm0 14h-1v-1l1 1Zm2-1v1l-1-1h1Zm0-4h1v1h1v2h-1 1v1l-1 1h1l-1-1h-2l1-1h-1 1-1v-1l1-1v-1Zm13 15 1 1h-1l-1-1h1Zm2 0v1l-1-1h1Zm-19-29v1-1Zm-1-5Zm1 4v1-1Zm1-3v3l-1-1v1-2h1v-1l1-1-1 1Zm-1-2Zm-1 0v1-1 1-1Zm0 0h1-1Zm1-2v-1 1Zm0-2v-1 1Zm0 4v-1 1Zm-1-1v-1 1Zm3-9Zm0 0Zm0 0v-1 1Zm-2-1Zm0-2Zm3-3Zm3-4h1-1Zm0 0-1 1v1-1l1-1Zm0 0h-1 1Zm2-1h-1 1Zm1-18v1h-1l1-1Zm-6 23Zm0-1-1 1v-1h1Zm-3 12v2-2Zm1-2v1h-1v1h-1 1v-2l1-1 1-2v1h-1v2Zm1 14v2-2Zm-2 1Zm1-1Zm68 100 1 1h1l-1 1v-1h-1v-1Zm9-1 1 1 1 1h1v1l1-1v1h-1v1l-1 1v2-1h1v2h-1v-1h-1v-2h-1v-4h1l-1-1Zm6 1Zm-1-1h1v1l-1-1Zm-16-1v1h2l-1 1h-1v-2Zm-61-187h1l2 1h-7v-1l2 1 1-1h1Zm0-1Zm-22-81Zm1-4-1 1v3-4h1Zm0-2v1h-1v-1h1Zm-1-1Zm-2 2h-1 1Zm1-1v1-1Zm0-1v1h-1l1-1h-1 1Zm0-10v3h-1v-2h1v-1Zm1 9Zm0-7v7-1l-1-1 1-1h-1v-3 1-1l1-1Zm2-7 1 1v2l-1 1h-1v2h-1v1-2h1v-2h1-1l1-1v-2Zm-1 3v-1 1Zm0-1h-1 1Zm0 0h-1 1Zm0-3Zm-3-1h-1 1Zm-1-1v1-1Zm-1-3 1 2h1v1h1v1l-1-1h-1v-2h-1v-1Zm-1 0v-1 1Zm-2-2v1-1Zm-3-1 1 1h1-1l-1-1Zm-3 0v1h-1l1-1Zm3 0h-1 1Zm-8-6v1l2 1 1 1 1 1h2l1 1v1l-1-1h-1v-1l-1 1v-1h1-2v-1h-2v-1l-1-1h-1l1-1Zm-2 2v1-1Zm0-1Zm-7-2 1 1h2-2l-1-1Zm-5-4 1 1v1l-1-1h-1l1-1h-1 1Zm-1-1v1-1Zm-4-3 1 1 1 1v1h1l-1 1h1v1-1h-2v-1 1h1l-1-1h1v1-1h-1v-2l-1 1h1-1v-1h1v-1h-1Zm0-1Zm-1-1h-1 2-1l-1 1v-2l1 1Zm-3-3 1 1 2 1v1-1h-3l1-1h-2l1-1h-1 1Zm-1 0Zm0 0Zm-4-3 1 1-1-1Zm0-1v1l-1-1h1Zm-2-1h1-1Zm-1-1v1-1Zm-2-1h1v1h-1l1 1h-1v-1l-1-1h1Zm1 1Zm-8-6 1 1 1 1h1-1 1v1-1h-1l-2-1v-1Zm-7 1Zm2 0Zm-1 0Zm1 0h-1 1Zm4-1Zm-6-1h1-2 1Zm-3-1h1-1Zm-4-1h1v1h1v1l1-1v1l1-1v1h1-2l-2-1h-1 1v-1h-2 1Zm-1-1Zm-3-1h1l1 1-1-1h-1Zm-5-4v1-1Zm-3 2h1-2 1Zm-2-1h1-1Zm-8 0Zm-1 0h-1v-1h1v1Zm9-1v1l-1-1h1Zm-36 0 1 1h-1l-1-1h1Zm34 0h1-1Zm-16-4 1 1-1-1h-1 1-1 1Zm-3-1v1h2l-1 1h-1v-1l-1-1h1Zm-1 0v1-1Zm-2 0h-1 1Zm-5-3h2v1h1-1l-1-1h-1l-1-1 1 1Zm-8-2 1 1-1-1h-1 1Zm-3-3h-1 1Zm504 638v1h-1v-1h1Zm30-38v1h1l-1 2 1 1h-1v2h1v1l-1 3v5l-1 2-1 2-1 1-1 1-1 1-1 1-1 1-2 3-1 2-1 3-2 1v1h-1v2l-1 2v1h-1v-1h-2l-1 1h-2l-1 1v-1h-1l-1 1h-1v-1h-1l-1-1h-1l-1 1-2 2v-2h1l1-1h-2v1l-2-1h-1l-1 1-1 1h-1v1l-1 1h-5l-1-1-1 1h-2l-2 1h-1l-1-1-1-1h-2l-2-1h-2l-1 1-1-1-1 1h-2l-1 1-1 2h-1l-1-1-1-1v-2l-1-1 1-1-1-2-1-1v-1h-1v-2h4l1-1 1-1v-4l-1-1h-1v-2l2 2h2l1-1h2l1-1v-1l1 1 1-1h2v-1l1-1h-1v-1h2v-1l1-1v-1h2l3-1h4l1-1h1l1-1v-1l1-1h1v1l1 1v1l1 1 1 2v1h1l1 1 3 1 2 1v-1l2 1 2-1h1l1-1h2l1-1h4v-1h1l1-1 1-2v-2h1v-2h1v-1h1v-1h1l1-2v-1l1-1v-1l1-1h1v-1h1l1-1h2Zm-59 21v1-1Zm60 14Zm1-58 1 1h1v1h1v1l1 1h3v1-1 1l1 1v2h-1v1h-4v1h-1l-1 1-1 1v-1h-1l-2 1-1 1-1 1h-1v-3l-2-3v-3h1l3-1 2-2 1-1 1-1ZM548 423v1-1Zm0-1h2v1h-1 1-2v-1h1-1Zm-3 0Zm-5-1v-1 1Zm-1-1h1l-1 1h-2v-1h2Zm-4 0h2l-1 1v-1h-1Zm0 0h-1 1Zm4 0h1-1Zm-5-1v1h-1 1v-1Zm3 1h1v-1 1h-1Zm-4 0h-1l1-1v1Zm-1-1h1l-1 1v-1Zm16 0v2h1-1v1-1h-2v-1l1-1h1Zm-4 1h1-2 1Zm-1-5h1-2 1Zm7-10v1h-1l1-1Zm29 40Zm0-1v-1 1Zm0-3h-1 1Zm-1 0Zm-15-2Zm-7-10v1-1Zm13 0h-1 1Zm-1-2 1 1h-1v-1Zm-19-1h1-1v-1 1Zm-1-1Zm1-1Zm0 0Zm6 3v1h-1v-1l1 1v-1Zm-26-58 1 1 1 1h1l1 1v1h1v1l1 2v2l3 3 3 3h1v5l1 2v1l1 1 1 1v1l2 2 1 2 1 1v1h1v1l1 1v1h1v1l1 1h-1l1 1v1l1 3v2h1-1v6l1 3 1 2 1 1 2 1v1h1v1h2-1 1v1h1v-1h1l1 1h2v1h3-1 1-1v-1l1 1 1 1 1 2h1v1h1l1 2 1 1 1 1 1 1v1l-1 1 1 1h1v1h-1v2h1v2-1 1h1-1l1 1v3l1 1-1 2h-2l-1 1v-2l-1-1h-1v-2l-1-1v-1l-1-1v-2l-1-1v-2l-1-2v-1h-1l-1-2v-1h-1v-1l-1-1-1-1-1-1h-2l-1-1h-6l-1-1h-1l-1-1h-1l-3-2-1-1-2-1-1-1h-1l-1-1h-1l-1-1-2-1h1l1-2 1-1v1l1 2h2v-1h1v1l1 1h1-1v1-1h-2 1-1v-1h1-4 2v1-1h1-1l1 1h-1l1 1h1v1-1h-1v-1 1l1-1v1h1l-1-1 1 1h1-1 1-1v1-1 1-1 1h1-3v-1h-1l-1-1h-2 2v1l3 1h2v2h1v1h1l1 1 1-1v1h-1l1 1h1v-1h-1v-1l-1-1v1-2h-1l-1-1-1 1v-1h1l1 1h1v1h1l-1-2h-1v-1l-1 1v-1l-1 1v-1h2l1 1 1 2 1 1v1h-1 1v-1h1v2-1h1v1h1l-1 1h1-1 1v1h2l-1-1-1-1v-1h-1v-1h-1v-1h-2 3v1l1 1v-1l1 1h-1 1v-1h-1v-1h-1v-1h-1v-1h-1l1-1h-2l-1-1h-1l1-1h-2v-1h-1 1l-1-1v-1h1v-1h-1v-2h-1 1v-1h1l1-1 1-1h1v-3h-2 1v-1h-1v-1h1v-1l-1-1v-2l-1-1h-1l-1 1h-1l1-1v-1h1v-1h-1l-1-1h-2v-1h-3l1-1v-1l-1-1h-1l-1-1h1-1v-1h1v-1l-1-1-1-1v-1h-2l1-2v-2l-1-2-1-1h-1v-1l1-1h-1 1l-1-1h-2v1h-1l-1 1 1-3 1-1-1-1h1-1 1v-2h-1l-1 1h-1v1l-1-1h1v-1h1v-2l-1 2v1h-1v1h-1v-1l1-1 1-1v-2h-1v1-1 1l-1-1h1v-1h-1l1-1h1Zm24 39v-1 1Zm-14 11Zm0-4h1-2 1Zm-10-33Zm-1-6 1 1h-1v1l-1-1h1v-1Zm-243-55 1 1h1v1h-1 1v-1h1v1h1-2l-1 1h-1v-1h-1l1-1h-1l1-1Zm-2 1h1l-1 1v1h-2v-1h2-3 1v-1h2Zm4 0v1-1Zm-1-1h-1 1Zm2-15v1h1v2l1 1v1l1 1h2v1l-1 1-2 1h-2l-1 1v1h-1v1h-1v1h-2l-1 1v-1h-1l-1 1h-1v1-1h1l1-1 2 1v-1 3h-3 1l-1 1-1-1h-1l-1-1h-1l-2 1-1-1 1 1h1l1-1 1 1h2l1 1h-1 1v1h1-1 2l1 1 1-1h2l-1 1v3h-1v4h-2v1-1h-1l-2-1h-1v-1h-1v1l-1-1v1h3v1h-2l-1-1v1l-1-1v1h-1l1 1v-1l1 1v1h-2v1-1h2l-1 1h1v-1l1-1v-1h1v1l-1 1-1 1-1 1h-3l-1-2h1l1-1-1 1h-1v1l-1-1-2-1v-1h1v-2h-4l-1-1h-2v-2h1l2 1h1v-1l-1-1-1-1-1-2v-1h1l2 1 2-1 1-1 1-1v-1h1v-2h-1l1-1 1-1h1v-1h-1l1-1h1v-1h2v-1 1h1v-2l2-1h1l1-1h2v-1h1v-1h3v-1l1 1Zm-1 14h1-1l1 1h-1 1l-1 1h-1v-1h-1l-1 1v-2 1h-1l1-1h2-1 2Zm5-5h-1l-1 2v1h1-1v1h-5 1l1-1v-1h1-1l1-2h4Zm-5 2Zm4 1v2l-1 1h-1v-1h-1v-1h2l1-1Zm2-4h-1 1Zm0 0Zm0-1Zm-3-4Zm-1-4h-1 1Zm1-1v1h-1v-1h1Zm478 238Zm5-41v-1 1Zm0-1Zm-16-6h1-1Zm41 14v1h-2 1v-1h1Zm-43-13 1 1 1 1h1v1h3v-2h1v1h3l1 1h1l2 2h4l-1 1h3-1 1v-1h-2v-1l4 2h5l1 1h2l1 1h1v1h3v1l1 1h4v1h1v2l-1 1-1 1h-1l-1 1v1h-1l-2-1-1-1h-1v-1l-3-2-1-1v-1h-1l-1-1h-7l-2 1-1-1v-1h-4l-1 1-2 2-2 1-3-2-1-1h-7l1-2 2-2v-2l1-1v-3Zm19 5v1-1Zm-1 0h1-1ZM299 106v1h-2v-1h2v-1 1Zm1 0Zm0 0-1-1h1v1Zm0-1h-1 1Zm1 2v1h-1v-1h1Zm-1-1v1-1Zm-1-9 1 1h1l1 1v2l-1 1h-1v1-1l-1 1v1-1l-1 1v1l-1-1h1v-1h-1 2l1-2h-1v-1l-1-1v-2h-1l1-1 1 1Zm14 139h-1 1Zm3 0Zm-17-5v1l-1-1h1Zm21-7 1 1h2l1 1h2v1l1 1h1l1 1 1-1v1h1v1l-1 1v1l-1-1v1h-3l-1 1h-4v1h-1l-1 1h-1l-1 1h-1v-1h-1 1v-1h-1v1h-3v1h-3l-1-1v-1h-1l-1-1-4 1v-1h-1l-1-1h1l1-1h-2v-1h2l1 1v-1h2v-1l1-1v-1h4l1-1h1l1-1v1h5v-1h2-1v-1h1Zm4 0v1h4l-1 1-2-1v1l-2-1h-2 3l-1-1h1Zm-6 0h1-1Zm-2 0h-1 1Zm14-1-1 1h-3l1-1h1l1 1v-1h1Zm3 0h1-1Zm5 0h-1l1-1v1Zm-9 2h1v1h1-3v-1h1Zm1 0h-1 1Zm7 0h-1 1Zm-6-1h1-1Zm26 10Zm-8-14-1 1-5 1-3 1-1 1-1 1h-5l-1-1 1 1 1-1h1v1h1v-1l1 1 1-1h1l1-1h1l1-1h2l2-1h2v-1h1Zm4-3-1 1h-2 2l1-1Zm-2-1h1-1Zm6-1h-1 1Zm-4 0h-1 1Zm7-2 1-1-1 1ZM314 63Zm1 0Zm0-1h-1 1v2-1h-1l1-1h-1v-1l1 1Zm-2 0h1v1h-1v-1Zm2-1h1v1h-1v-1Zm-1 0v1h-1v-1l1-1v1Zm2 0h-1 1Zm4-2v-1 1Zm-4-8h1v1l-1-1Zm-10-4v1h1l1 1h-2 1l-1-1v1l-1-1v-1h1v1-1Zm-1-1 1 1h-1v-1Zm-3-5 1 1h-1 1l1 1v-1 1h-1v-1h-1v1h1v1h1l1 1h-1v-1 1l-1-1-1-1-1-1h1-1l1-1Zm1 0v1-1Zm-11-3h-1 1Zm-29 10v1-1Zm1 0h-1 1Zm-4-2v1l-1 1v-2h1Zm2 0 1 1h-1v-1Zm-1-1 1 2h-2v-1h1v-1Zm2 0 1 1v1h1v1l-1-1-1-1h1l-1-1v2-2Zm1 0 1 1h-1v-2 1Zm-1-1Zm11-1Zm1 0v-1 1Zm4-2Zm5-1v1h-1v-1h1Zm-19 1v1l2 1h-1v-1h-3v-1l1 1v-1 1-1h-1 2Zm2 0h1l-1 1v-1Zm3-1h-1 1Zm2-3h-3l-4 1-4 1h-2v-1h3l4-1h6Zm20 1Zm2 0h-1 1Zm2 0h-2 2Zm0-1h-1v1-1h1Zm0 0h1-1Zm-1 0h1-1Zm-11 0h1-1Zm11-2 2 1h-1l-1-1Zm-25 4Zm0 0v-1 1Zm9 0v-1 1Zm-8-1h1l1 1h1-2l-1-1v-1 1Zm0 0v1-1h-1 1Zm1-1 1 1h1-1l-1-1Zm9-1h1-1Zm-5-2 1 1h1-2l-1-1h1Zm5 239Zm1-1v1h-1l1-1Zm4-1Zm-4-2v1h1-1v2-3Zm-1 1h1-1Zm5 0v-1 1Zm-4-2v1h-1 1l-1-1h1Zm-4-8v1l-1-1h1Zm-16-19v1h-1v-1h1Zm0-1v1-1h-1 1Zm-1 0Zm16 20Zm0 0Zm-1 0h1l-1-1v1Zm-12-16Zm-56 23 1 1h1l1 1v1h-3v1h-1l-2-1v-2l1 1 1-1h1v-2 1Zm-7 0v1h1v2h-1v-2h-1 1v-1Zm18-5h-1 1Zm11-43v1h-1v-1h1Zm12-2v-1 1Zm1-1Zm-1 0Zm-1-1Zm-10 3v1-1Zm2-6h-1 1Zm-3-1h1-1Zm6-1h-1 1Zm7 4h-1v-1l1 1Zm-3-2h-1 1Zm1-4v1h-1v-1h1Zm-1 0Zm23 36v-1 1Zm0-3v-1 1Zm-5-5Zm2-2Zm-1-2h1v2l-1-1h1-1v-1Zm0-1v1-1Zm0 0Zm-16-15v1h2l-1 1h-1v-2Zm1-2h-1 1Zm7-1h-1v-1h1v1Zm-6-1v1l-1-1h1Zm1 0h1-1Zm-9-4Zm-1 0Zm0-1Zm0-1Zm5 0h1v1h1-2v-1Zm-1-1h-1 1Zm2-2 1 1v1h-2l-1-1h2-1v-1 1l-1-1h2Zm-2-2h-1 1Zm-5 2Zm0-1v1-1Zm5-2 1 1v2h-1l1-1h-1v-2Zm-2 1h-1 1Zm195 11h-1 1Zm-8-7h1-1Zm10 8h-1v-1h-1v-1h-1l-1-1v-1h-1l-1-1h-1v-1h-1v-1l-1-1-1-1v-1l-1-1-1-2h-2l-4-1-1 1v-1h-3v-1h-5l-1-1v-1h-1l-1-1h-1l-1-2h-1l-1-1h-2v-2h-1l1-1h-1l-1-1h-1l-2 1h-1l-3-1h-4l-3 1-2 2h-1v1h-1v1-1 2h-1v2h-1l-2 2-2 2-1 2v-1l1-1 1-1 2-3 1-1 1-2 1-1h-1l3-3v-1l1-2v-1l1-1 1-2v-1l1-1 1-1v-1h-1v-1h-1v-1h6-1l1 1h2-2l-1 1h-2 1-1v1l1-1v2h-1l1 1h-1l1 1h1v1h-1 2-1v-1h1v-1h-1v1l-1-1h3v1h1v2l1 2h1l1 1h1v-1l-1-1h1l1 1v2h1l1 1 1 1h2l3 4h1l1 1h1l1 1h2l1 1 3 1 1 1h5v-1h1v-1 1l2 1v1l1 1v2l1-1v2h1l1 2 1 1h1l1 1v1h1v1l1 1 2 1v1Zm-40-33v4h1l-1 1v-1l-1-1h1l-1-1h1-1v-1h1l-1-1h1Zm-3 0Zm-3-2h-1 1Zm3-2h1v1l-1-1Zm3 3v1-1Zm0 0Zm-2-3 1 1v1h1-1v-1h-1v-1Zm-25 29h-1l1-1v1Zm2-4-1 1 1-1Zm2-4-1 3-1 1 1-1v-1l1-2Zm1-5v1l-1-1h1Zm8-6Zm0-3v1-1Zm0 0Zm9-3Zm-11 6Zm2-5v1l-1-1h1Zm-1-1v1-1Zm105 391Zm1-57v3h1l-1 1h-1v-1 1h1v-3h-1v-1h1Zm-4-2v1h1-1v-1Zm2 0h-1 1Zm0-1v1h-1l-1-1h2Zm0-2h1v3l1 1h-1 1v1h-1v-2 1-2h-1l1-1-1-1Zm0 1h-1 1Zm0-1Zm-3 0Zm1-1v1-1Zm1 0Zm0-1v1h-1v-1l1 1v-1Zm60 32 1 1h-1v-1Zm-52-15v2h1v1h-1v-1h-2l1-1h-1l1-1v1-1h1-1 1Zm-4-6v1l1 1v1h1v2h1v1h-3v1-2h-1l1-1h-1l-1-1h2l1 1v-1h-1v-3Zm4-83-1 1-1 2-2 2v-1h1v-1l1-2h1v-1h1Zm-12 67v1l1 1v1l1 1v1h-1v-1h-1v-2h-1 1l-1-1v-1h1Zm-1-1Zm0-2v1-1Zm0 0v-1 1-1 1Zm0-3v3h-1v-3h1Zm-1-1v1-1Zm-1-2 1 1v1h-1v-2Zm0-1Zm-4-14h-1 1Zm-1-1h1-1v-1 1Zm-2-9Zm1 0Zm6 23v1-1Zm0 0v1-1Zm0 0v-1 1Zm0-44v1h-1l1-1Zm5 60Zm1-65-1 1 1-1Zm3-2 1-1-1 1Zm2-1v-1 1Zm5-4h-1 1Zm2-1v1-1Zm0 0 1-1-1 1Zm-1 0v-1h1l-1 1Zm2-2Zm4-3h-1 1Zm5-2h-2v1-1l2-1v1Zm1-1-1 1 1-1Zm4 0h-1 1Zm3-1h-1 1Zm-42 43Zm0-1Zm0-1v1-1Zm0 0h-1 1Zm0-1v1-1Zm1-6v1-1Zm0 0v-1 1Zm1-1h-1 1Zm0-1h-1 1Zm0-2 1 1h-1v-1h1-1Zm1-2v2-2Zm0-3 1 1v-1 3h-1l1-1h-1 1l-1-1h1-1v-1Zm3-3Zm3-2Zm1-1h-1 1Zm1-1v1h-1l1-1Zm99-77h3l1 1v5h-1v1h-1l-2 1v-1l-2-1h-1l-1-1-2 1h-6v-2h2v-1h1v-1h3v-1h3l2-1h1Zm2 0h-1 1Zm-28-10 1 1-1-1Zm-4-5h1l1 1v1-1l1 1-1 1-1 1 1 1h-1v-1h-1v-1h-1l2-2v-1h-1Zm4 2h-1 1Zm62-11v1-1Zm3-19v1h1-1v1l1 1v1l1 1v1l1 1h-1l-1 1v1h1v1h-1l-1 1v1l-1 2h-1v3h-1v-3h1l1-1v-1h-1v1l-1 2-1 1 1 1h-1 1l-1 1 1 1h-4v-1h-1l-2 1h-2l1-1 1-1v-1l1-1v-2h1v-1h1v-2l-1-1v-1h-1v-1l2-2h-1l1-1v-2h1v-1h6v-1h-1 1Zm-5-1h-1 1Zm3 20Zm0-1v1h-1v-1h1Zm0-21ZM317 127v1-1Zm3 0h-1 1Zm1-3Zm-19-2v1-1Zm31-5Zm1-4h-1 1Zm0-1v1-1Zm-32 10v1-1Zm1-2v1h1v1l-1 1-1-1h-1 1-1v-1h1v-1h1Zm-3-1Zm2 0Zm32-7Zm-1-1h1-1v-1 1Zm2-6h-1v1-1h1Zm-48 268v1-1Zm1-1v1l-1-1h1Zm2 0v1l-1-1 1 1h-1v-1h1Zm-4-1h1v1h1-2v1-1h-1v1-1h2-1v-1Zm2 1Zm1-1v1-1Zm-2-2Zm-1 0v-1 1Zm-1 1h-1 1Zm0 0Zm0-1v1-1Zm-1 0v1-1Zm5-1Zm-3 0Zm3-1v1-1Zm-2 0h-1 1Zm-7 10v1h-1v-1h1Zm1-7h1-2 1Zm0 0h-1 1Zm-2-1 1 1h-1v-1Zm-2 7Zm0-8v1-1Zm0 0v-1 1Zm-3-4v1l-1-1h1Zm6 5Zm2-1v1-1 1h-1v-1h1Zm-2 0v1l-1-1h1Zm1-2h1-1Zm-11-3v1l-1-1h1Zm4 0h1v1l-1-1Zm-8-2v1-1Zm6 0h2l-1 1h-1l-1-1h1Zm14 8h-1v-1h1v1Zm-3-4 1 1 1 1v2h-1v-1l1-1h-1v2h-1v1h-1v-1 1l1-1h-1v-1h2-1v-2l1 1v-1h-1v-1Zm2 1Zm0-1h-1 1Zm4 1 1 1h-1v-1Zm-2 1Zm1-2v1h1v1h-1v-2h-1 1Zm2-7v1h-2v-1h2Zm-8 1h1v1h1-1 1v1h2v-1l-2 1 1-1h2v1h3v2h2v1h1-1v1-1h-1v1h1v3h-1l1-1-1-1h1l-1 1h-1v-1h-1v-1h-1 1l-1-1h-5v-1l-1 1-1-1-1 1-1-1v1l-1-1v-1h-1l-1-1v-1h1v1h1v1-1l1 1h1l2-1h-1v-1h1-1v-1h1-1 1Zm5-4-1 1h1l1-1h2v3h-5 1l1 1h1v1h1l-1 1v-1h-1 1l-1-1v1-1l-1 1v-1 1h-1l-1-1h-2l1-1v-1 1h-1v-1h-3v-1l1-1v1-1h1v1h2v-1h-1 4l1-1v1Zm-2-1v1-1Zm-1 0v1l-1-1h1Zm1 0v1h-1l1-1Zm1 0h-1 1Zm-2 0h-1 1Zm2-1v1l-1-1h-1 2Zm-8 8h1v1-1h-1Zm2-2Zm2-1h-1v1-1h1-1 1Zm-2 0h1-2 1Zm-2 0h1v1h1-1l1 1h-1 2-1l1 1h-3l-1-1h-1 1l1-1h-1l-1-1h2Zm-4 0h1l-1 1h-1v-1h1Zm1-2v1h1v1h-1v-1h-2l1-1h1Zm2 1h-1 1Zm3 0v1-1Zm-1 0Zm0-2v-1 1Zm1-1h1-1v1h-1v-1h1Zm-2 2-1 1v-1h1Zm0-2v1h1v1h-1v1-1h-3v-1l1 1 1-1v-1h1Zm0 0h1l-1 1v-1Zm2-1-1 1h-2v1h-2v-1h1v-1l1 1v-1 1l2-1h1Zm41 23Zm-1-2Zm0-1Zm-1-4v1h-1v-1h1Zm-29 2h1v1h-1v-1Zm1 0Zm2-1-1 1v-1h1Zm-2 0h1l-1 1v-1Zm0 0Zm-1 0v-1h1v1h-1Zm4-1v1-1Zm0 0h1-1Zm1 0h-1 1Zm-1-1h-1 1Zm-1 0h-1 1Zm2-1Zm-4-4Zm7-10v1l1 1 1 1 1 1h1v1h1l-1 1-1 2v2l-1 1-1 1h-3v-1h-1 1-1v1l1 1h-1v-1h-1 1v-1h-1v1l-1-1 1 1 1 1h-2v-3h-1v-1h-1l1 1-1-1h-1v-2h-1v-1h1v-1h1v-1h1l1-1h1v1-1h2-1 1v-1h-1 1v-1l1 1v-1l1-1Zm3 3v1h1-1l-1-1h1Zm5-4h-1v2l-1-1h1v-1h1Zm12 17v-1 1Zm-4-8v1-1Zm0 0v-1 1Zm-7-14h-1l1-1v1Zm42-6h-1 1Zm-2 0h-1 1Zm10-5Zm-17-4h1v1h-2v-1h-1 2Zm24-8h-1 1Zm3 0Zm1 0Zm1 0Zm-85 29Zm1 0h-1 1Zm-1-2h-1l1-1v1Zm2-24 1 1h-1l-1 2h-1l1-1v-1l1-1v-1 1Zm3 25h-1 1Zm7-37 1 1v4l1 1v1l1 1h1v1l1 1v4l1 1 1 3v2l1 1h-1v1h-1l1 1v2l1 1v4h1v3l-1 1v2l1 1h-1v3h-1v2l-1 1-1-2h-1v-1h-1v-1h1-1v-1 1l-1-1h-1v1-1l-1 1h-1v1h-1v1h-1l-2 1v-1h-1v-1h-1l-1-1h-2v-1h1v-1h2l1-1v-1l1-1v1h-1v1h-1v1h-3v1l-1-1h1v-1l-2 1v-1l-1 1h-1l-1 1h-6v-1h1-1v-1l1 1v-1h-2v-2h1v1l1-1v1l1-1h2v1h1-1v1h2l1 1 1-1h4-1l-1-1v1-1h-2v1l-1 1-1-1v-1h-1l-1-1h-4v-1h1l1-1 2-1-1 1-1-1-1 1h-1v-1h3v-1h-2l-1 1-1-1h-1v-1l1-1h2l-1-1h1v-1h1-1l-1 1v1h-1l-1-1v-1l1-1v-1 1h-1v-1l-2-1 1-1v1h1v-1l-1 1 1-1h1v1h2v-1 1l-1-1v1-1h1-1 1v-2l1-1h1v1-1l1-1h3l1 1 1-1v-1h1l1 1-1-1v-2h1v-1h1-1l1-1v-1l1-1v-1l1-1 2-1 1-2v-1 1-2h1v-3h1v-1h2-1 1Zm-9 11Zm3-4Zm13 6Zm-1-2Zm0-1v1-1Zm-7-11h1-1Zm-20 39v1h-1 1v-1Zm1-6v1l-1-1h1Zm1 0Zm0-1h1-2 1Zm5 7 1 1h-1l-1-1h1Zm1 0h-1 1Zm0 0v-1 1Zm-3-21h1v1h-2l1-1Zm150-78Zm-8-10Zm2-1v1-1Zm-4-2h-1 1Zm-51-57Zm1-2v1h-1v-1h1Zm7-3-1 1-1 1-1-1v1-1h-1v1l-1 1-2-1v1-1h2l1-1h3l1-1Zm-4 0h-1 1ZM175 79Zm0 0-1-1 1 1Zm1-8v1h-1l1 1h-1v1l-1-1 1-1-1 1 1 1h-1v-1l-1-1 1-1v1h1v-1 1-1h1Zm-4 2v-1h1v-1l1-1v1-1h1-1 1v1h-2v2h-1 1-1Zm6-3v1-1 1h-1l-1 1 1 1 1 1v1h-1l-2-1 1-1v-2h1v-1h1Zm0 2h1v1l-1-1Zm0-1-1 1h1v1h-1v-2h1Zm5 0Zm-11 0h-1 1Zm0 0Zm0 0h1-1Zm1-1Zm11 1Zm-5 0h-1 1Zm6 0h-1 1-1 1Zm-1-1h-1 1-1v1-1 1h-1l1-1h1Zm-13 2h-1 1Zm1 0h-1l1-1v1Zm-1 0h-1v-1l1 1Zm0-1v-1 1Zm-5 0v1l-1-1h1Zm3-2v-1 1Zm-3-2Zm2 0Zm3 3Zm0-1h-1 1Zm0 0Zm-1-1h1-1Zm1 0Zm-1-1v1l-1-1h1Zm2 0v1-1h-1 1Zm-3 0Zm2-1v1h-1l1-1Zm-1 0Zm1 0h1-1Zm-1 0Zm-2 0v1l-1-1h1Zm-1-1Zm0 0Zm-3-1v1-1Zm6 1v1-1Zm1-1v2l-1-1h1l-1-1h1Zm-2 0v1h-1v-1h1Zm-2 0Zm1 0v1-1Zm-5 0Zm2-1v1h-1v-1l1 1-1-1h1Zm8 7Zm-1 0v-1 1Zm1 0h1-1Zm-1 0h-1v-1h1v1Zm1 0v-1h1l-1 1Zm-1-2v1l1-1v1h-1v-1l-1 1v-1h1Zm1 0h-1v-1l1 1Zm1 0v-1 1Zm-1-1Zm-1-1h-1 1Zm0-2h1v1h-1v1h1-1 1-1v-1h-1v-1 1l1-1v1-1Zm9 6-1 1v-1h1Zm5-1Zm0-2h1v1h1v1h-1v-1h-1v1h-1v-1l1-1Zm-18-4h-1 1Zm0-1 1 1h-1v-1Zm-4 0v1-1 1h-1l1-1Zm3 0h1-1Zm-15-5v1-1Zm-2-3v1-1Zm0-6v1-1Zm44 11h1-1Zm5-3Zm1 0h-1 1Zm-5 0Zm13 0Zm-6-1v1h-2 1v-1 1l1-1Zm5 1v-1 1Zm1-1h-1l1-1v1Zm-8 0v1h-1v-1h1Zm-1 0v1l-1-1h1Zm2-1h1-1 1v1h-2v-1h1Zm0-1h-1 1Zm7 1h1-1 1-1v2h-1v-1h1v1-2Zm-6-1v1l-1-1h1Zm4 0Zm-3-2 1 2h-1v1h-1v-3h1v-1 1Zm-9 11h-1 1Zm-1-1v1l-1-1h1Zm-1-8Zm0-5Zm2-2Zm-1-2 1 1v1l-1-1h1-1v-1Zm-2-8h1v1h-1v-1Zm8 17Zm1 0Zm0-1h1-1Zm-2 0v-1h1v1h-1Zm8-1v2h-2v-1h-1v-1h1v1h2-1l1-1v1-1Zm-5-3v-1 1Zm2-1v-1l1 1v1l-1-1h-1l1-1v1Zm-1 0Zm-4 4v-1 1h-1 1Zm-3-3h1-1v-1 1Zm5-2v-1 1Zm0-2 1 1h-1 1-1v-1Zm3 1v1h-2l1-1h1Zm-2 0Zm-3 0v-1 1Zm-3-1Zm3 0 1-1-1 1Zm247 313Zm0 0Zm1 0h-1 1Zm-2 0v-1 1Zm-6-1Zm0-1v1l-1-1h1Zm-3 0Zm0 0v-1 1Zm7 1v1l-1-1h1Zm1-1h1v1h-1 1v1h-1l-1-1h1v-1Zm-2 1Zm-1-3 1 1 1 1h-1 1-1 1l-1 1v-1h-1l1-1h-1v-1Zm-1-1 1 1h-1v-1Zm0 0h-1 1Zm-1 1 1 1h-1v-1Zm-1-2h1l1 1h-1l-1-1 1 1h-1l1 1h-2 1l-1-1v-1h1Zm-1-1Zm1 0Zm-4-1 1 1h-1v-1Zm0 0Zm1-1h1v1h1v1h1-1v-1h-1l-1-1Zm0 0v1-1Zm-1-1h1l-1 1v-1Zm0 0Zm0 1v1l-1-1h1Zm-1 0Zm0-3v1h1v1l-1-1-1-1h1Zm-2 0Zm0 0h-1v-1h1v1Zm0-1h1-1Zm0 0h-1v-3h-1v-1l1 1v1l1 1v1-1h1v1h-1Zm-3-4v1-1l1 1-1 1v-1h-1l1-1h-1 1Zm-8-16v2h1v1l1 2 1 1v1l1 1 1 3h1l1 1v2h1v1h1v1h-1v-1h-1v-2h-1v-1l-1-1v-1h-1v-1 1-1h-2l1-1-1-1h1l-1-1v-2h-2l-1-1 1-1-1-1 1-1Zm-2-3v1l1 1 1 1h-1v-1h-1v-1l-1-1h1Zm-1 0Zm1 0h-1 1Zm-1-1v1-1Zm0 0Zm-4 1h-1 1Zm4-1v-1 1Zm-1-2v1h1l-1 1v-1h-1l1-1v-1 1Zm-2-2 1 1v1h-1v-2Zm-2 4-1 1h1-1v-1h2-1Zm-2-7h1-1Zm0-1v1h-1v-1h1Zm-3 0Zm5 5Zm1-1h1v1h-1v-1Zm1 0h1v1-1h-1Zm0 0Zm0-1 1 1h-1v-1Zm-2 1v-1 1Zm0-1h1v1l-1-1Zm1 0Zm-1 0v-1h-1 2v2-2h-1v1h1-1Zm0-2v1-1h-1 1Zm-1-2v2h1-1v-1l-1-1h1Zm-3-1v1h1-1v1h1v1h-1v-1l-1-1h1-1v-1h1Zm2 1h1-1v-1 1Zm-1 0Zm0 0Zm-1-4v2h1v1h-2v-1h1-1v-2h1Zm-2 1v1h-1v-1l1 1v-1Zm0 0h-1 1Zm0-4v1l1 1h-1v1-2h-1 1v-1Zm-6-2v-1 1ZM226 7l1 1h1-1l1 1-3-1V7l2 1h-1V7Zm3 1Zm-7-3 1 1h1-1l-1-1 1 1-1-1v1h-1V5l1 1V5h-1 1V4v1Zm-2-1h1v1h-2l1-1Zm-1-1V2l1 1h-1Zm-3-2h1v1l-1-1Zm-3 0h1v1l-1-1Zm5 0Zm-6 0V0v1Zm0-1Z"/></svg>