<svg xmlns="http://www.w3.org/2000/svg" viewBox="0 0 798 1060"><path d="M 501.67 279.66 503.27 279.23 503.27 280.97 501.72 280.24 502.4 282.13 501.24 284.16 506.46 286.62 503.27 287.35 498.77 293.73 501.24 302.28 499.64 305.47 505.3 307.07 506.89 314.32 509.65 316.35 500.37 319.97 501.96 340.12 499.64 342.59 502.83 354.62 509.65 353.75 512.55 358.68 516.18 357.38 518.06 358.97 519.37 362.6 516.18 369.56 512.84 367.96 511.68 372.75 508.92 371.88 510.95 373.91 508.05 391.74 510.08 398.84 508.92 402.9 502.4 404.93 500.37 427.12 493.55 457.71 499.64 460.46 491.95 462.2 493.11 476.27 490.36 479.89 495.58 485.84 491.95 488.3 493.98 496.71 489.49 500.77 489.49 509.32 492.82 513.24 490.36 515.7 487.89 531.36 482.24 543.11 487.89 548.33 487.46 555.58 485.14 556.45 485.14 572.97 483.54 565.29 479.48 568.91 483.83 575.73 479.92 592.98 481.95 608.79 477.45 621.25 483.83 634.88 473.82 643.44 464.98 659.53 456.42 663.88 456.42 668.38 448.88 670.7 430.75 688.96 424.66 700.56 425.53 708.68 424.66 710.57 407.4 679.25 402.18 656.2 402.18 641.41 397.24 629.66 360.55 574.13 358.23 563.26 351.7 556.01 353.01 559.2 350.54 559.64 355.76 569.64 354.89 571.23 329.22 541.95 318.78 533.1 316.75 528.61 286 512.95 265.98 482.65 263.52 473.37 264.68 461.77 261.92 449.3 259.46 446.84 263.95 447.27 269.18 433.5 286.87 413.78 288.03 391.74 286.44 389.71 289.34 387.68 287.74 385.65 291.37 385.65 293.69 382.46 295.72 374.34 306.16 358.68 306.16 353.03 303.4 350.42 300.94 347.37 303.4 333.6 298.91 328.38 299.78 311.85 295.72 310.26 301.81 308.66 301.37 303.01 298.91 300.25 296.15 300.69 298.18 299.09 296.15 297.79 298.62 297.35 296.15 276.91 292.09 274.45 292.53 272.42 289.77 272.42 292.53 270.82 290.93 268.07 287.31 269.66 285.71 267.63 286.87 264.44 283.68 264.01 285.27 261.54 281.65 262.85 278.89 260.82 279.18 253.57 275.12 253.86 275.56 249.94 277.59 250.67 278.89 247.91 274.4 247.04 267.58 235.01 265.55 230.22 267.58 226.16 261.05 224.13 261.05 220.51 254.24 223.26 251.05 221.67 250.61 217.61 259.89 214.86 255.11 191.95 251.05 183.83 251.77 176.14 256.27 172.23 250.61 170.63 211.89 176.14 212.76 184.26 207.1 208.77 210.29 213.7 207.97 215.29 209.56 221.67 212.32 221.24 212.32 224.57 215.95 224.57 217.98 228.19 215.22 232.98 216.38 242.69 212.76 244.29 199.12 239.07 199.85 241.82 197.38 242.98 197.82 238.63 192.6 238.63 178.53 243.42 160.4 239.07 162.43 226.89 156.77 224.86 158.37 213.99 151.98 209.64 150.68 202.39 152.27 200.36 151.11 190.64 154.74 187.45 157.5 173.39 161.56 173.39 159.53 180.2 161.99 181.36 165.18 177.45 168.37 177.45 169.24 174.11 174.03 176.58 173.6 172.52 177.37 171.36 147.92 158.46 87.01 154.83 80.63 157.73 72.21 153.67 72.94 148.74 74.1 150.48 84.25 149.18 87.44 153.67 143.43 155.99 159.96 160.49 174.47 168.89 188.24 172.23 192.16 160.05 191 142.8 188.97 140.33 186.94 141.93 187.37 139.61 181.72 139.61 180.12 134.68 182.15 133.95 194.63 137.87 199.85 137.14 199.12 140.33 201.44 141.2 200.72 143.23 196.22 141.2 192.16 144.83 193.47 158.46 192.16 169.33 210.29 168.17 211.89 174.98 242.2 170.63 236.54 169.76 237.7 168.17 250.61 169.76 261.92 154.11 262.65 147.15 259.89 146.42 259.02 142.8 263.08 131.05 259.46 123.37 254.67 125.11 248.15 111.77 253.08 113.36 249.45 106.99 251.48 102.49 255.83 102.93 254.67 99.74 263.52 99.74 261.49 96.4 266.27 96.84 271.21 93.65 269.9 88.43 272.37 87.99 271.93 83.93 275.56 86.83 282.08 83.5 282.52 80.31 285.27 79.15 286 81.61 293.69 79.15 300.65 79.15 302.97 81.18 305.87 77.55 346.48 76.68 354.02 86.98 349.38 77.55 360.55 77.12 359.82 81.18 355.76 82.34 360.98 82.77 362.29 77.12 371.14 78.71 374.33 77.12 375.49 81.18 377.52 78.28 377.52 83.5 379.98 85.53 377.08 87.12 384.34 87.56 385.21 91.62 388.83 92.05 387.24 90.02 391.15 90.46 392.89 86.4 396.81 85.53 404.5 89.59 402.9 93.65 407.4 90.46 405.66 92.49 411.02 93.21 414.21 88.43 413.05 84.8 419.44 83.93 423.06 81.18 421.9 79.15 428.28 78.71 430.31 72.62 435.1 76.68 441.19 69.43 455.69 64.21 466.14 45.37 460.48 62.62 461.35 65.37 471.79 68.27 474.26 74.65 472.23 78.28 474.69 88.43 471.79 90.02 469.33 98.43 470.63 100.03 480.21 98.43 480.64 100.9 481.08 97.71 486.3 98.87 489.2 106.12 491.08 100.03 495.58 99.74 493.55 103.36 495.15 106.99 498.77 104.96 505.3 106.12 506.89 116.55 495.58 126.99 505.3 133.95 493.55 130.33 491.95 127.86 488.33 130.62 482.67 128.3 481.95 131.49 485.86 131.92 485.43 134.24 472.66 133.08 464.98 137.87 458.45 135.11 458.16 131.05 453.23 131.05 454.1 125.4 446.85 124.67 443.22 121.48 441.63 123.8 439.16 122.64 434.81 126.27 430.31 126.7 428.72 129.46 417.84 127.43 417.4 131.49 421.9 132.65 416.97 134.68 421.9 134.24 422.63 139.17 420.31 141.2 419 138.3 417.4 138.3 417.84 142.36 420.31 143.23 419.44 146.42 423.93 147.15 420.6 150.48 422.63 154.83 425.09 155.27 424.66 159.76 431.18 162.95 435.1 168.6 438 168.6 443.95 179.04 450.47 179.77 452.07 183.1 460.92 187.89 464.54 192.24 466.14 199.49 470.49 201.52 469.76 204.42 485.14 202.39 489.2 203.55 491.95 208.04 495.15 207.17 496.31 210.07 501.24 209.2 497.61 208.48 495.58 203.11 486.73 199.2 484.7 195.57 479.05 193.98 480.21 186.73 477.45 186.29 475.86 178.61 472.66 174.98 476.58 171.36 470.2 166.14 487.46 148.45 492.82 146.42 508.92 147.58 508.49 151.21 510.52 152.8 503.7 161.36 507.18 161.65 509.21 168.89 513.71 172.95 514.15 180.2 512.84 178.61 510.95 178.61 512.11 183.83 507.18 186.29 511.68 207.61 516.32 210.51 514.87 216.45 504.86 229.35 503.27 226.6 500.8 227.76 501.96 225.29 498.05 215.73 493.98 213.99 492.39 216.02 500.95 233.85 495 238.92 501.24 233.85 506.02 242.98 512.11 247.91 515.31 256.32 501.67 266.76 502.83 271.26 498.77 271.98 501.53 279.69 501.67 279.66 Z M 453.66 142.8 451.63 145.99 454.82 151.21 460.48 151.64 460.48 162.52 452.5 158.89 447.57 163.24 442.35 163.24 442.35 155.7 445.25 155.27 442.79 150.05 449.31 143.96 449.31 141.49 453.66 142.8 Z M 406.09 84.37 405.66 86.83 402.9 86.4 404.06 81.9 406.09 84.37 Z M 382.02 78.71 387.24 79.15 387.96 83.93 392.02 83.21 392.46 86.83 386.37 87.99 383.61 83.21 382.31 84.8 378.68 83.21 379.98 77.55 382.02 78.71 Z M 384.34 63.49 385.64 65.81 388.83 63.49 388.4 66.68 379.11 70.3 379.11 63.78 384.34 63.49 Z M 563.6 83.93 569.69 87.12 568.53 90.46 595.51 91.18 595.51 105.68 586.95 106.55 586.66 122.21 591.02 122.21 601.17 138.74 601.6 143.23 599.14 143.23 595.95 137.58 583.76 143.52 581.73 148.45 588.26 155.99 573.76 155.99 572.16 151.21 568.1 151.21 568.82 149.18 563.6 141.93 560.85 124.67 554.32 120.61 554.03 114.96 546.34 105.39 546.78 101.33 552.44 102.49 552.44 97.71 549.1 97.27 548.81 92.49 554.76 93.21 558.38 87.99 557.66 84.37 563.6 83.93 Z M 514.58 1 523.43 1.87 529.81 10.71 535.03 13.03 557.66 19.12 555.19 23.62 552.44 23.18 556.06 25.94 556.06 30.87 552.73 37.25 554.47 46.96 550.84 48.12 552 50.15 554.76 49.28 556.35 59.86 561.72 59.86 562.44 62.18 556.35 64.65 556.79 77.55 559.69 77.12 561.72 80.02 556.79 79.15 556.06 87.99 549.1 85.96 553.16 80.31 548.81 83.21 548.81 79.58 546.34 78.28 548.37 74.65 543.88 74.36 542.28 71.03 547.5 73.06 547.94 61.02 545.47 61.02 546.34 69.87 542.28 69.14 541.85 63.49 536.19 63.78 536.19 60.59 528.65 61.02 523.43 64.65 524.15 67.11 530.24 63.78 532.27 64.65 525.46 69.43 526.18 74.36 523.43 75.09 522.12 65.81 517.77 65.37 518.5 61.46 514.87 62.18 510.95 52.18 513.71 48.99 511.24 50.15 507.62 48.12 508.92 45.66 505.3 48.56 503.27 63.05 498.34 68.71 489.92 69.43 481.95 59.86 477.89 58.12 477.89 34.49 475.86 31.16 479.48 24.78 477.02 23.62 477.02 16.37 473.82 14.77 478.61 13.47 487.17 17.53 492.82 8.25 494.71 9.12 492.39 12.31 495.15 11.87 497.18 10.71 495.58 7.81 503.7 6.65 503.27 2.59 514.58 1 Z M 69.75 154.25 70.47 154.11 71.34 153.96 70.91 155.12 69.75 154.25 Z M 63.66 152.8 63.22 152.8 63.22 152.51 63.37 152.66 63.66 152.8 Z M 61.63 149.61 61.34 148.89 62.21 150.19 62.35 150.48 61.63 149.61 Z M 54.81 159.33 58.44 162.08 51.62 165.27 52.78 158.46 54.81 159.33 Z M 60.9 148.74 60.9 148.45 61.19 148.74 60.9 148.74 Z M 60.47 148.02 60.76 148.45 60.47 148.45 60.47 148.02 Z M 60.47 148.02 60.03 148.02 60.03 147.58 60.32 147.87 60.47 148.02 Z M 72.5 148.6 72.36 148.02 72.5 148.02 72.5 148.6 Z M 65.98 146.86 64.53 146.42 69.75 145.26 72.21 147.58 65.98 146.86 Z M 236.98 126.7 239.01 131.92 236.11 133.52 233.35 124.67 236.54 124.24 236.98 126.7 Z M 58.44 146.86 57.71 145.99 58.87 146.28 59.74 147.15 58.44 146.86 Z M 56.84 145.99 56.84 145.84 57.56 145.99 56.84 145.99 Z M 55.97 145.55 44.37 139.17 1 118.15 2.45 116.99 63.22 146.57 55.97 145.55 Z M 753.02 979.23 750.12 980.1 748.96 978.5 753.02 977.63 753.02 979.23 Z M 754.62 911.66 756.21 918.91 749.83 914.42 746.93 921.67 748.96 923.7 748.96 919.2 753.02 918.91 752.15 922.1 755.05 927.32 748.96 926.45 751.43 930.95 755.49 931.67 759.4 925.73 765.06 923.26 773.91 926.89 780.87 924.86 783.63 930.95 788.85 932.54 790.88 936.6 784.06 945.45 788.41 949.51 786.82 952.7 774.78 954.72 769.56 957.91 765.5 956.32 768.69 951.54 759.11 951.83 750.99 957.91 746.64 955.45 746.64 949.51 742.15 940.95 745.77 941.82 746.21 938.2 750.56 935.44 742.58 929.79 744.9 923.7 740.11 924.86 737.65 923.26 733.3 914.85 736.92 913.26 742.15 915.29 743.74 911.66 746.93 910.79 754.62 911.66 Z M 784.79 872.95 784.06 877.3 792.04 879.77 797.4 884.7 793.78 886.58 790.01 897.45 780 899.92 771.59 905.14 767.53 902.67 769.12 899.05 764.77 897.16 762.31 890.21 764.34 890.21 764.77 885.86 768.69 882.23 779.13 880.64 779.13 871.36 784.79 872.95 Z M 761.87 863.67 761.44 864.54 758.24 864.54 759.11 862.8 761.87 863.67 Z M 718.36 881.36 719.52 882.23 718.79 884.7 715.89 882.96 716.76 880.64 718.36 881.36 Z M 752.15 811.77 751.86 814.09 748.24 813.36 750.99 810.46 752.15 811.77 Z M 745.34 773.93 750.99 775.52 751.86 781.18 748.53 784.8 736.05 787.55 734.46 790.02 730.4 789.58 730.11 783.93 724.45 780.31 725.18 776.25 730.83 773.93 733.73 773.93 733.73 776.25 740.55 775.09 740.11 773.06 745.34 773.93 Z M 765.5 853.96 763.9 855.55 759.4 854.39 759.84 853.23 765.5 853.96 Z M 799 795.24 798.13 797.56 794.5 797.27 796.1 794.37 799 795.24 Z M 736.49 970.82 733.3 970.38 732.86 968.35 736.49 968.35 736.49 970.82 Z M 737.65 949.8 740.55 952.7 738.95 956.32 735.33 955.88 736.49 953.85 734.02 956.75 729.24 954.72 733.73 949.07 737.65 949.8 Z M 728.8 901.08 733.73 908.33 725.61 910.07 723.58 912.82 719.52 906.01 724.45 905.14 725.61 899.92 728.8 901.08 Z M 742.58 889.05 739.24 891.8 737.36 888.18 741.27 887.89 742.58 889.05 Z M 666.44 1055.78 673.25 1058.97 673.69 1061 666.73 1060.57 663.97 1056.65 664.84 1053.32 666.44 1055.78 Z M 721.55 973.57 723.58 977.2 724.45 974.88 726.48 975.6 725.61 985.32 719.95 985.32 707.05 993.73 705.89 997.35 710.24 1001.41 705.45 1004.17 706.76 1005.91 704.29 1007.07 703.86 1011.12 699.07 1013.15 697.04 1017.5 705.45 1025.19 713.57 1028.38 724.45 1035.63 728.37 1035.63 730.4 1039.69 715.17 1030.84 695.88 1026.06 693.41 1022.29 687.76 1021.56 687.32 1018.37 684.13 1017.94 681.37 1013.15 682.53 1003.01 685.29 1002.57 683.69 996.63 689.35 992.57 689.35 987.35 694.57 979.66 699.07 979.66 705.89 975.31 706.76 978.07 710.24 974.88 714.01 976.04 716.33 971.25 720.82 970.82 721.55 973.57 Z M 762.31 810.46 764.34 812.93 755.49 821.77 759.4 823.37 757.81 826.56 759.11 834.68 750.99 842.36 748.96 848.74 738.95 850.77 741.27 855.55 737.65 854.39 734.46 862.08 736.92 865.7 740.98 863.67 742.58 859.18 745.34 860.05 746.93 868.46 757.81 871.79 759.11 879.04 750.56 880.2 750.12 883.83 743.74 885.42 741.27 884.7 744.61 880.64 735.33 880.93 733.73 884.7 728.37 887.45 725.18 886.58 727.64 885.86 727.21 881.8 717.92 879.33 715.89 876.58 712.27 879.77 703.86 875.71 697.76 875.71 688.92 880.93 688.92 884.7 695.88 889.48 710.67 887.89 711.54 885.86 714.73 885.86 715.6 888.18 724.45 887.02 723.15 890.64 714.73 889.48 711.54 893.11 705.02 894.27 701.82 906.01 706.76 908.76 707.48 913.26 709.95 911.95 714.01 912.82 710.24 915.58 711.98 920.94 709.51 921.23 709.08 924.86 719.23 922.83 719.52 928.48 724.45 930.51 722.42 938.92 726.48 938.2 728.37 941.39 724.89 946.17 721.98 943.85 715.17 944.29 715.6 949.8 712.7 948.64 707.92 954.72 707.48 960.38 714.01 961.97 715.17 965.16 707.05 968.79 699.07 978.5 690.51 978.07 692.54 966.03 687.32 957.91 689.79 956.75 687.76 954.72 691.38 951.83 692.54 947.48 691.82 937.76 683.69 928.48 675.72 928.05 678.04 922.1 674.12 918.04 667.16 921.67 674.12 914.42 676.88 915.29 677.6 911.95 680.07 911.95 676.01 911.23 675.72 908.76 678.91 898.76 682.1 897.16 678.91 891.08 677.6 893.54 676.01 888.18 681.66 880.2 682.1 870.92 692.54 856.86 700.66 851.93 702.69 846.42 705.02 846.71 708.64 842.79 711.54 834.68 716.76 832.21 715.17 829.02 717.49 829.02 718.79 825.83 724.45 823.37 735.33 823.37 738.52 828.59 742.58 826.27 740.98 819.74 743.31 819.74 744.9 816.12 753.46 814.52 754.18 811.33 758.24 810.9 759.11 807.27 763.9 804.52 762.31 810.46 Z M 717.92 771.9 720.39 772.62 724.02 783.06 721.55 785.52 705.89 784.37 704.29 778.28 714.01 773.49 715.89 770.3 717.92 771.9 Z M 514.87 216.45 515.74 218.48 516.18 224.13 521.4 227.76 518.5 229.79 517.34 235.88 522.99 237.47 529.81 252.7 528.21 254.73 524.59 254.29 525.02 257.63 527.34 257.19 525.46 261.54 521.4 259.51 521.4 256.32 517.77 256.76 517.77 252.26 515.74 251.97 506.02 230.22 514.87 216.45 Z M 514.87 216.45 518.06 209.64 520.53 209.64 521.83 214.42 527.78 212.1 527.05 210.07 535.9 206.01 535.9 197.6 566.94 183.1 567.23 177.45 573.32 184.7 568.53 182.67 564.47 188.32 560.41 189.48 562.88 192.67 576.95 185.86 580.14 189.48 577.38 191.51 583.76 193.98 558.82 196.73 549.53 195.14 539.53 199.49 539.53 203.98 545.18 212.1 533.44 217.61 530.68 217.32 528.65 212.83 520.53 216.89 514.87 216.45 Z" fill-rule="evenodd" transform="translate(-1,-1) "/></svg>