<svg xmlns="http://www.w3.org/2000/svg" viewBox="0 0 10.239990234375 14.16998291015625"><path d="M 603.8 317.96 603.88 318.12 603.9 318.21 603.89 318.26 603.87 318.36 603.87 318.41 603.85 318.45 603.8 318.46 603.74 318.45 603.7 318.45 603.7 318.47 603.71 318.48 603.71 318.5 603.68 318.52 603.66 318.51 603.64 318.5 603.63 318.48 603.62 318.44 603.61 318.42 603.61 318.41 603.65 318.36 603.65 318.33 603.65 318.27 603.64 318.18 603.6 318.02 603.61 317.93 603.63 317.89 603.65 317.86 603.67 317.87 603.71 317.89 603.72 317.92 603.71 317.96 603.69 318 603.68 318.03 603.72 317.99 603.73 317.93 603.73 317.87 603.71 317.82 603.75 317.81 603.79 317.8 603.79 317.84 603.79 317.85 603.8 317.96 Z M 597.6 317.9 597.58 317.94 597.51 317.91 597.4 317.77 597.4 317.76 597.41 317.75 597.43 317.71 597.42 317.66 597.4 317.58 597.4 317.54 597.38 317.5 597.38 317.48 597.41 317.48 597.42 317.48 597.43 317.5 597.43 317.51 597.44 317.54 597.46 317.7 597.49 317.77 597.54 317.8 597.59 317.84 597.6 317.9 Z M 603.58 317.91 603.56 317.93 603.54 317.89 603.58 317.7 603.56 317.58 603.57 317.53 603.59 317.5 603.64 317.44 603.65 317.45 603.65 317.46 603.65 317.48 603.68 317.57 603.68 317.6 603.68 317.64 603.65 317.7 603.63 317.78 603.58 317.91 Z M 600.81 317.44 600.79 317.49 600.77 317.48 600.75 317.48 600.74 317.53 600.7 317.58 600.66 317.61 600.62 317.61 600.62 317.59 600.63 317.59 600.66 317.58 600.68 317.58 600.66 317.55 600.65 317.54 600.63 317.53 600.65 317.51 600.65 317.49 600.64 317.47 600.65 317.44 600.66 317.43 600.67 317.42 600.82 317.31 600.82 317.36 600.82 317.37 600.83 317.39 600.84 317.43 600.81 317.44 Z M 600.24 317.64 600.22 317.65 600.21 317.65 600.21 317.54 600.21 317.48 600.24 317.43 600.28 317.34 600.32 317.3 600.37 317.28 600.37 317.33 600.31 317.43 600.26 317.61 600.24 317.64 Z M 600.27 317.35 600.25 317.35 600.27 317.3 600.29 317.23 600.33 317.17 600.36 317.17 600.34 317.23 600.28 317.3 600.27 317.35 Z M 600.46 317.5 600.42 317.52 600.39 317.5 600.37 317.47 600.37 317.43 600.39 317.39 600.4 317.37 600.41 317.34 600.42 317.29 600.41 317.21 600.42 317.19 600.45 317.17 600.46 317.18 600.55 317.27 600.58 317.34 600.56 317.41 600.51 317.44 600.46 317.5 Z M 600.86 316.89 600.82 317.04 600.82 317.02 600.81 317 600.8 316.97 600.77 317.05 600.76 317.14 600.74 317.23 600.69 317.28 600.65 317.3 600.63 317.28 600.62 317.26 600.62 317.23 600.63 317.2 600.71 317.14 600.69 317.12 600.6 317.18 600.59 317.2 600.57 317.2 600.58 317.14 600.59 317.09 600.62 317.05 600.65 317.04 600.68 317.02 600.74 316.96 600.77 316.96 600.79 316.93 600.81 316.9 600.84 316.89 600.86 316.89 Z M 601.61 316.79 601.62 316.81 601.62 316.94 601.6 316.99 601.56 317 601.54 316.97 601.54 316.9 601.56 316.83 601.57 316.78 601.59 316.8 601.6 316.78 601.61 316.78 601.61 316.79 Z M 601.69 316.82 601.66 316.84 601.67 316.71 601.68 316.67 601.71 316.68 601.71 316.72 601.71 316.77 601.69 316.82 Z M 601.69 316.61 601.61 316.74 601.58 316.73 601.58 316.7 601.61 316.66 601.62 316.62 601.63 316.51 601.64 316.46 601.66 316.42 601.68 316.44 601.69 316.47 601.7 316.52 601.7 316.56 601.69 316.61 Z M 601.9 317.04 601.86 317.07 601.8 317.07 601.77 317.06 601.74 317.04 601.73 317.01 601.79 316.93 601.83 316.87 601.85 316.83 601.87 316.71 601.87 316.54 601.88 316.36 601.92 316.35 602 316.39 602.05 316.43 602.06 316.49 602.1 316.52 602.12 316.61 602.12 316.66 602.13 316.74 602.09 316.81 602.07 316.85 602.06 316.88 602.03 316.94 601.98 316.97 601.95 316.99 601.92 317 601.9 317.04 Z M 600.9 316.26 600.94 316.31 600.96 316.38 600.97 316.44 600.94 316.39 600.94 316.37 600.92 316.41 600.93 316.51 600.92 316.55 600.91 316.53 600.91 316.5 600.91 316.48 600.9 316.45 600.92 316.45 600.9 316.41 600.89 316.31 600.87 316.27 600.86 316.26 600.85 316.27 600.83 316.26 600.83 316.23 600.83 316.22 600.85 316.21 600.86 316.21 600.87 316.22 600.9 316.26 Z M 600.95 316.26 600.94 316.27 600.95 316.13 600.95 316.14 600.97 316.14 600.97 316.17 600.98 316.19 600.98 316.24 600.96 316.25 600.95 316.26 Z M 602.07 316.21 602.01 316.21 601.97 316.18 601.99 316.12 602.07 316.08 602.16 316.06 602.18 316.1 602.16 316.16 602.12 316.19 602.07 316.21 Z M 602.95 316.33 602.84 316.34 602.77 316.3 602.71 316.2 602.67 316.11 602.66 316.03 602.71 315.91 602.75 315.89 602.95 316.14 602.97 316.25 602.95 316.33 Z M 601.34 316.92 601.22 317.1 601.18 317.14 601.18 317.13 601.16 317.1 601.11 317.16 601.09 317.17 601.03 317.27 601.01 317.27 600.99 317.29 600.96 317.3 600.94 317.3 600.92 317.24 600.94 317.18 600.99 317.1 601.01 317.04 600.89 317.22 600.85 317.23 600.84 317.18 600.85 317.11 600.87 317.04 600.9 316.99 600.88 316.94 600.9 316.85 600.99 316.65 601 316.61 601.01 316.56 601.01 316.43 601.03 316.38 601.01 316.31 601 316.27 601.01 316.24 601.01 316.22 600.99 316.18 600.96 316.03 600.94 315.98 600.9 315.95 600.77 315.86 600.74 315.85 600.73 315.76 600.73 315.68 600.78 315.48 600.8 315.45 600.82 315.44 600.86 315.42 600.9 315.41 600.94 315.41 600.96 315.48 600.99 315.56 601.02 315.63 601.05 315.71 601.09 315.76 601.12 315.81 601.16 315.86 601.17 315.98 601.2 316.05 601.25 316.1 601.35 316.19 601.4 316.25 601.35 316.47 601.35 316.86 601.34 316.92 Z M 600.84 315.19 600.89 315.24 600.93 315.26 600.97 315.31 601 315.36 600.97 315.36 600.89 315.35 600.81 315.34 600.75 315.4 600.71 315.42 600.68 315.45 600.67 315.51 600.69 315.55 600.65 315.59 600.63 315.56 600.6 315.53 600.6 315.51 600.59 315.49 600.57 315.47 600.51 315.45 600.53 315.43 600.53 315.4 600.53 315.34 600.53 315.3 600.53 315.25 600.55 315.22 600.58 315.21 600.66 315.22 600.69 315.22 600.71 315.18 600.73 315.18 600.81 315.18 600.84 315.19 Z M 600.93 314.96 600.98 315 600.98 315.01 600.92 315.01 600.9 315.01 600.93 315.03 600.95 315.05 600.97 315.07 600.98 315.09 600.91 315.09 600.89 315.08 600.87 315.06 600.85 315.01 600.83 315 600.8 314.99 600.8 314.99 600.79 315 600.77 315.01 600.75 315.01 600.68 315.01 600.66 315.01 600.63 314.96 600.67 314.88 600.74 314.82 600.8 314.81 600.85 314.85 600.93 314.96 Z M 600.56 314.87 600.54 314.88 600.52 314.78 600.51 314.75 600.6 314.75 600.61 314.74 600.63 314.73 600.65 314.76 600.64 314.77 600.61 314.81 600.56 314.87 Z M 600.7 314.06 600.78 314.12 600.8 314.18 600.72 314.12 600.67 314.1 600.66 314.13 600.62 314.15 600.58 314.13 600.54 314.1 600.47 314.03 600.45 314 600.45 313.98 600.51 313.98 600.59 314 600.7 314.06 Z M 605.21 317.34 605.24 317.48 605.25 317.55 605.21 317.91 605.24 318.48 605.25 318.54 605.27 318.66 605.35 318.9 605.35 318.92 605.36 318.95 605.34 318.98 605.3 319.03 605.24 319.06 605.2 319.07 605.17 319.04 605.16 318.99 605.14 318.89 605.1 318.8 605.04 318.78 604.97 318.8 604.87 318.79 604.82 318.77 604.8 318.76 604.78 318.74 604.76 318.7 604.76 318.66 604.75 318.62 604.72 318.58 604.65 318.56 604.56 318.66 604.49 318.66 604.46 318.66 604.43 318.71 604.4 318.81 604.34 318.9 604.33 318.94 604.33 318.99 604.34 319.08 604.34 319.13 604.33 319.2 604.32 319.24 604.33 319.28 604.35 319.31 604.4 319.36 604.42 319.39 604.43 319.43 604.52 319.51 604.51 319.6 604.5 319.69 604.51 319.79 604.54 319.88 604.6 319.97 604.61 320 604.62 320.04 604.66 320.17 604.67 320.2 604.68 320.22 604.67 320.25 604.65 320.27 604.64 320.26 604.63 320.24 604.62 320.23 604.6 320.21 604.55 320.09 604.4 319.81 604.36 319.66 604.35 319.64 604.23 319.54 604.21 319.51 604.17 319.44 604.15 319.4 604.05 319.28 604.03 319.25 604.03 319.2 604.05 319.04 604.05 318.99 604.03 318.94 603.91 318.72 603.89 318.7 603.87 318.68 603.84 318.65 603.83 318.61 603.82 318.57 603.84 318.57 603.84 318.58 603.84 318.58 603.85 318.58 603.85 318.58 603.87 318.54 603.9 318.49 603.93 318.47 603.97 318.48 603.95 318.46 603.92 318.42 603.91 318.37 603.91 318.32 603.93 318.3 603.96 318.27 603.98 318.23 603.97 318.19 604.01 318.15 604.01 318.14 604 318.11 604.02 318.09 604.01 318.07 604 318.05 603.98 318.05 603.99 318.02 604 318 604 317.98 603.99 317.96 603.99 317.98 603.98 317.99 603.97 318 603.99 318 603.96 318.08 603.93 318.11 603.9 318.11 603.88 318.08 603.89 318.05 603.9 318.01 603.9 317.98 603.88 317.98 603.87 318.02 603.85 318.02 603.83 317.99 603.82 317.96 603.83 317.9 603.85 317.89 603.88 317.88 603.91 317.85 603.9 317.84 603.86 317.86 603.85 317.84 603.86 317.81 603.91 317.79 603.91 317.77 603.81 317.78 603.77 317.79 603.73 317.8 603.71 317.78 603.71 317.73 603.74 317.68 603.78 317.66 603.76 317.63 603.77 317.61 603.79 317.59 603.82 317.58 603.82 317.56 603.8 317.56 603.78 317.57 603.76 317.59 603.75 317.61 603.73 317.58 603.72 317.53 603.71 317.44 603.71 317.41 603.68 317.38 603.67 317.36 603.67 317.27 603.61 317.02 603.61 316.94 603.63 316.95 603.64 316.96 603.63 316.92 603.61 316.93 603.59 316.96 603.59 317 603.58 317 603.55 316.96 603.53 316.91 603.52 316.85 603.52 316.8 603.53 316.76 603.55 316.74 603.57 316.72 603.58 316.7 603.58 316.66 603.56 316.64 603.53 316.63 603.52 316.61 603.51 316.55 603.55 316.53 603.61 316.51 603.65 316.48 603.68 316.44 603.73 316.27 603.72 316.27 603.68 316.27 603.68 316.31 603.66 316.4 603.66 316.42 603.65 316.43 603.62 316.46 603.59 316.49 603.55 316.5 603.54 316.51 603.49 316.54 603.47 316.56 603.48 316.6 603.5 316.62 603.53 316.63 603.55 316.65 603.55 316.69 603.51 316.72 603.46 316.72 603.43 316.66 603.39 316.39 603.37 316.3 603.22 316.01 602.93 315.61 602.86 315.59 602.82 315.55 602.79 315.51 602.77 315.47 602.76 315.48 602.74 315.47 602.73 315.44 602.73 315.41 602.73 315.38 602.75 315.35 602.77 315.28 602.8 315.18 602.8 315.13 602.79 315.13 602.78 315.17 602.74 315.3 602.72 315.32 602.67 315.34 602.64 315.38 602.63 315.43 602.64 315.49 602.6 315.46 602.57 315.45 602.53 315.44 602.48 315.44 602.48 315.45 602.53 315.47 602.54 315.49 602.51 315.51 602.48 315.52 602.36 315.52 602.4 315.54 602.44 315.55 602.45 315.57 602.45 315.6 602.42 315.62 602.38 315.63 602.35 315.63 602.35 315.63 602.28 315.62 602.27 315.62 602.26 315.62 602.26 315.61 602.26 315.57 602.26 315.57 602.23 315.56 602.2 315.55 602.12 315.55 602.12 315.57 602.15 315.59 602.16 315.62 602.14 315.64 602.09 315.63 602.09 315.65 602.22 315.68 602.28 315.71 602.3 315.76 602.3 315.79 602.28 315.82 602.25 315.91 602.21 315.96 602.17 315.99 602.11 316.01 602 316.03 601.91 315.99 601.87 315.92 601.85 315.82 601.82 315.79 601.8 315.75 601.78 315.68 601.76 315.66 601.73 315.67 601.76 315.7 601.79 315.77 601.81 315.84 601.8 315.88 601.76 315.9 601.68 315.92 601.62 315.91 601.59 315.89 601.57 315.85 601.51 315.81 601.5 315.79 601.49 315.77 601.46 315.72 601.44 315.66 601.42 315.65 601.35 315.65 601.34 315.64 601.32 315.55 601.3 315.54 601.28 315.53 601.26 315.52 601.25 315.47 601.22 315.43 601.21 315.41 601.21 315.39 601.18 315.32 601.16 315.24 601.14 315.2 601.12 315.16 601.11 315.12 601.1 315.07 601.09 315.04 600.92 314.81 600.9 314.74 600.89 314.72 600.89 314.69 600.92 314.54 600.92 314.45 600.93 314.39 600.96 314.35 600.97 314.3 600.97 314.26 600.98 314.26 600.94 314.18 600.94 314.15 600.97 314.13 600.96 314.12 600.95 314.12 600.95 314.12 600.95 314.11 600.89 314.13 600.86 314.08 600.83 314.01 600.83 313.96 600.83 313.82 600.85 313.76 600.9 313.73 601.03 313.73 601.09 313.7 601.09 313.61 601.08 313.58 601.06 313.57 601.04 313.57 601 313.57 601 313.58 601.02 313.6 601.06 313.63 601.04 313.68 601 313.66 600.98 313.66 600.94 313.68 600.88 313.7 600.85 313.72 600.84 313.71 600.8 313.62 600.81 313.55 600.85 313.49 600.9 313.47 600.89 313.45 600.89 313.46 600.89 313.46 600.88 313.46 600.87 313.47 600.86 313.44 600.82 313.45 600.74 313.48 600.75 313.52 600.74 313.54 600.71 313.55 600.68 313.55 600.64 313.55 600.61 313.54 600.56 313.5 600.57 313.54 600.6 313.56 600.64 313.58 600.68 313.58 600.76 313.59 600.78 313.6 600.78 313.82 600.78 313.85 600.76 313.86 600.74 313.9 600.73 313.94 600.72 313.98 600.65 313.94 600.21 313.86 600.13 313.83 600.05 313.78 600.05 313.81 600.07 313.83 600.36 314.01 600.4 314.03 600.42 314.06 600.43 314.09 600.45 314.12 600.52 314.13 600.58 314.16 600.62 314.18 600.76 314.19 600.78 314.21 600.84 314.31 600.85 314.35 600.86 314.43 600.85 314.42 600.84 314.39 600.82 314.37 600.83 314.42 600.84 314.56 600.83 314.62 600.77 314.7 600.75 314.72 600.73 314.71 600.72 314.69 600.73 314.67 600.75 314.65 600.75 314.63 600.74 314.63 600.71 314.67 600.69 314.69 600.66 314.71 600.62 314.72 600.53 314.71 600.51 314.73 600.5 314.76 600.5 314.78 600.51 314.83 600.54 314.91 600.58 314.98 600.62 315.04 600.63 315.05 600.63 315.08 600.63 315.09 600.64 315.1 600.65 315.1 600.65 315.1 600.66 315.11 600.69 315.13 600.7 315.15 600.69 315.17 600.65 315.18 600.62 315.18 600.59 315.17 600.56 315.18 600.51 315.23 600.49 315.31 600.47 315.38 600.4 315.39 600.44 315.42 600.43 315.45 600.4 315.46 600.37 315.44 600.33 315.47 600.36 315.49 600.42 315.51 600.46 315.54 600.49 315.49 600.52 315.5 600.56 315.53 600.59 315.57 600.59 315.59 600.6 315.67 600.63 315.74 600.64 315.83 600.63 315.84 600.61 315.87 600.59 315.88 600.54 315.89 600.52 315.9 600.51 315.94 600.48 316.07 600.48 316.11 600.49 316.08 600.5 316.07 600.52 316.06 600.53 316.04 600.53 316.02 600.52 315.97 600.53 315.94 600.55 315.91 600.58 315.89 600.62 315.89 600.66 315.89 600.74 315.94 600.78 316.01 600.81 316.09 600.84 316.17 600.81 316.16 600.8 316.16 600.8 316.21 600.82 316.25 600.86 316.34 600.87 316.39 600.87 316.44 600.86 316.53 600.79 316.72 600.74 316.8 600.69 316.81 600.63 316.84 600.61 316.86 600.6 316.88 600.6 316.92 600.58 316.95 600.52 317.06 600.5 317.09 600.47 317.1 600.44 317.1 600.41 317.08 600.37 317.06 600.36 317.04 600.37 316.98 600.43 316.87 600.43 316.81 600.41 316.74 600.4 316.71 600.42 316.64 600.41 316.61 600.37 316.6 600.38 316.65 600.36 316.75 600.37 316.79 600.38 316.8 600.4 316.81 600.41 316.82 600.42 316.84 600.42 316.86 600.4 316.88 600.39 316.89 600.38 316.9 600.38 316.9 600.38 316.91 600.37 316.94 600.36 316.94 600.35 316.94 600.34 316.94 600.34 316.97 600.33 317.04 600.32 317.07 600.31 317.09 600.27 317.15 600.24 317.18 600.24 317.19 600.23 317.23 600.18 317.32 600.17 317.36 600.17 317.45 600.14 317.54 600.13 317.59 600.1 317.62 599.98 317.73 599.95 317.75 599.91 317.76 599.86 317.75 599.78 317.71 599.74 317.71 599.71 317.69 599.7 317.65 599.71 317.62 599.75 317.62 599.73 317.59 599.75 317.57 599.77 317.55 599.78 317.52 599.78 317.5 599.77 317.48 599.77 317.47 599.78 317.44 599.76 317.47 599.72 317.57 599.7 317.59 599.68 317.6 599.65 317.63 599.63 317.64 599.61 317.64 599.58 317.61 599.55 317.61 599.57 317.55 599.58 317.42 599.6 317.36 599.62 317.35 599.65 317.33 599.67 317.31 599.69 317.28 599.7 317.25 599.71 317.22 599.71 317.19 599.73 317.15 599.83 317.07 599.84 317.06 599.85 317.03 599.86 317.01 599.88 317 599.9 317.01 599.92 317.02 599.93 317.02 599.98 316.99 600.01 316.94 600.03 316.87 600.02 316.81 599.98 316.91 599.96 316.97 599.92 316.99 599.87 317 599.83 317.02 599.7 317.16 599.68 317.19 599.66 317.24 599.64 317.28 599.63 317.3 599.62 317.31 599.58 317.31 599.56 317.31 599.49 317.28 599.5 317.25 599.51 317.21 599.52 317.18 599.54 317.17 599.56 317.16 599.58 317.14 599.58 317.1 599.58 317.03 599.59 317.01 599.59 316.97 599.62 316.95 599.64 316.94 599.66 316.92 599.67 316.89 599.62 316.91 599.59 316.95 599.55 317.07 599.53 317.1 599.47 317.16 599.46 317.18 599.47 317.28 599.46 317.31 599.43 317.34 599.39 317.33 599.35 317.29 599.34 317.24 599.34 317.22 599.32 317.16 599.31 317.14 599.31 316.96 599.29 316.86 599.28 316.8 599.27 316.78 599.25 316.73 599.23 316.71 599.23 316.68 599.22 316.65 599.23 316.63 599.23 316.6 599.28 316.49 599.46 316.22 599.47 316.19 599.48 316.16 599.5 316.14 599.52 316.12 599.46 316.16 599.45 316.16 599.38 316.24 599.35 316.27 599.34 316.31 599.32 316.35 599.29 316.34 599.22 316.29 599.22 316.34 599.24 316.38 599.24 316.42 599.23 316.47 599.14 316.65 599.17 316.7 599.19 316.78 599.22 316.94 599.22 317.02 599.21 317.06 599.2 317.09 599.16 317.11 599.13 317.11 599.09 317.1 599.05 317.1 599.05 317.12 599.1 317.14 599.14 317.17 599.16 317.2 599.17 317.26 599.17 317.28 599.16 317.32 599.16 317.35 599.17 317.37 599.2 317.42 599.22 317.46 599.24 317.49 599.25 317.52 599.23 317.56 599.22 317.56 599.17 317.57 599.11 317.62 599.1 317.64 599.1 317.65 599.09 317.66 599.07 317.67 599.03 317.69 599 317.69 598.99 317.68 598.98 317.65 598.95 317.65 598.92 317.68 598.89 317.69 598.86 317.69 598.81 317.68 598.78 317.66 598.75 317.64 598.74 317.62 598.73 317.6 598.73 317.57 598.75 317.53 598.75 317.51 598.72 317.46 598.66 317.59 598.68 317.64 598.72 317.7 598.77 317.75 598.82 317.77 598.84 317.79 598.81 317.84 598.76 317.87 598.71 317.86 598.68 317.84 598.66 317.84 598.6 317.85 598.6 317.87 598.62 317.93 598.63 317.95 598.58 317.99 598.54 317.96 598.47 317.87 598.48 317.83 598.45 317.73 598.46 317.67 598.48 317.64 598.52 317.59 598.53 317.56 598.54 317.52 598.53 317.35 598.55 317.21 598.56 317.16 598.61 317.07 598.63 317.01 598.62 316.96 598.6 316.91 598.57 316.87 598.54 316.83 598.54 316.8 598.61 316.71 598.63 316.67 598.63 316.62 598.64 316.57 598.65 316.53 598.67 316.48 598.65 316.5 598.63 316.53 598.6 316.6 598.57 316.62 598.56 316.64 598.58 316.7 598.57 316.72 598.53 316.75 598.5 316.79 598.5 316.83 598.55 316.91 598.56 316.94 598.57 316.96 598.57 317.01 598.56 317.04 598.54 317.09 598.53 317.11 598.52 317.26 598.51 317.3 598.46 317.32 598.45 317.28 598.44 317.18 598.45 317.15 598.47 317.1 598.47 317.07 598.37 316.83 598.37 316.79 598.38 316.68 598.38 316.63 598.35 316.58 598.34 316.58 598.32 316.74 598.34 317.04 598.35 317.04 598.36 317.01 598.37 316.97 598.38 316.96 598.38 316.96 598.39 316.98 598.4 317.01 598.41 317.04 598.42 317.06 598.43 317.09 598.43 317.12 598.41 317.18 598.4 317.2 598.37 317.2 598.37 317.21 598.37 317.23 598.38 317.24 598.38 317.25 598.39 317.28 598.42 317.33 598.44 317.36 598.44 317.37 598.42 317.5 598.4 317.53 598.37 317.55 598.34 317.58 598.31 317.62 598.31 317.65 598.32 317.69 598.32 317.75 598.32 317.8 598.29 317.85 598.26 317.88 598.18 317.95 598.16 317.96 598.1 317.89 598.09 317.86 598.09 317.8 598.09 317.69 598.11 317.65 598.14 317.57 598.14 317.52 598.13 317.47 598.09 317.39 598.08 317.35 598.06 317.35 598.05 317.38 598.06 317.42 598.07 317.45 598.08 317.48 598.08 317.52 598.07 317.54 598.04 317.58 598.01 317.6 598 317.63 597.96 317.72 597.95 317.74 597.94 317.74 597.93 317.71 597.91 317.71 597.91 317.77 597.94 317.86 597.93 317.92 597.89 318 597.9 318.02 597.94 318.05 597.92 318.08 597.88 318.1 597.83 318.12 597.79 318.13 597.75 318.1 597.74 318.06 597.75 318.02 597.77 318 597.77 317.97 597.7 317.78 597.7 317.76 597.7 317.73 597.69 317.72 597.67 317.73 597.65 317.76 597.64 317.78 597.63 317.79 597.6 317.78 597.55 317.76 597.53 317.73 597.52 317.72 597.46 317.53 597.46 317.49 597.46 317.44 597.49 317.34 597.49 317.28 597.47 317.23 597.42 317.17 597.41 317.13 597.42 317.02 597.42 316.97 597.42 316.97 597.46 316.92 597.45 316.87 597.44 316.82 597.42 316.78 597.32 316.65 597.3 316.6 597.34 316.58 597.3 316.52 597.29 316.49 597.26 316.36 597.26 316.34 597.27 316.31 597.29 316.28 597.29 316.26 597.28 316.21 597.24 316.11 597.22 316.03 597.19 316 597.12 315.98 597.17 315.94 597.19 315.89 597.18 315.83 597.16 315.76 597.13 315.71 597.12 315.66 597.11 315.63 597.09 315.56 597.08 315.52 597.09 315.49 597.12 315.46 597.14 315.42 597.15 315.39 597.16 315.34 597.17 315.29 597.16 315.26 597.14 315.24 597.07 315.22 597.05 315.19 597 315.07 596.98 315.04 596.93 314.98 596.93 314.96 596.93 314.91 596.95 314.84 596.95 314.72 596.98 314.66 597.1 314.53 597.16 314.48 597.18 314.46 597.19 314.43 597.19 314.41 597.18 314.4 597.12 314.4 597.1 314.4 597.08 314.39 596.93 314.34 596.89 314.33 596.86 314.33 596.84 314.35 596.83 314.36 596.81 314.37 596.79 314.37 596.64 314.32 596.61 314.29 596.59 314.25 596.59 314.2 596.61 314.15 596.66 314.06 596.77 313.78 596.77 313.73 596.74 313.7 596.72 313.72 596.69 313.77 596.66 313.78 596.63 313.71 596.6 313.7 596.54 313.66 596.5 313.62 596.45 313.52 596.42 313.49 596.4 313.48 596.36 313.49 596.33 313.48 596.31 313.45 596.31 313.44 596.32 313.42 596.32 313.39 596.31 313.38 596.29 313.38 596.27 313.37 596.26 313.34 596.31 313.12 596.31 313.1 596.29 313.06 596.29 313.04 596.3 313.01 596.34 312.96 596.35 312.93 596.35 312.91 596.34 312.89 596.34 312.87 596.35 312.84 596.38 312.82 596.43 312.81 596.47 312.82 596.51 312.81 596.54 312.79 596.63 312.7 596.65 312.68 596.66 312.63 596.65 312.58 596.64 312.54 596.62 312.51 596.65 312.46 596.67 312.43 596.67 312.4 596.62 312.39 596.61 312.36 596.57 312.32 596.56 312.3 596.56 312.27 596.58 312.22 596.58 312.2 596.57 312.15 596.57 312.12 596.58 312.09 596.6 312.07 596.65 312.05 596.69 312.04 596.69 312.04 596.7 312.02 596.72 311.98 596.73 311.96 596.72 311.95 596.72 311.91 596.71 311.9 596.7 311.8 596.65 311.73 596.58 311.69 596.53 311.68 596.51 311.73 596.47 311.79 596.42 311.79 596.31 311.75 596.17 311.74 596.12 311.73 595.96 311.6 595.37 311.3 595.31 311.29 595.31 311.27 595.29 311.23 595.27 311.21 595.26 311.2 595.26 311.19 595.26 311.06 595.25 311.05 595.22 311.01 595.19 310.96 595.16 310.95 595.12 310.93 595.13 310.86 595.15 310.82 595.17 310.78 595.18 310.67 595.21 310.66 595.24 310.65 595.25 310.63 595.26 310.6 595.26 310.57 595.28 310.55 595.31 310.56 595.33 310.51 595.36 310.48 595.38 310.45 595.37 310.41 595.34 310.32 595.33 310.3 595.32 310.29 595.32 310.28 595.43 310.22 595.47 310.2 595.52 310.21 595.55 310.23 595.58 310.27 595.6 310.32 595.6 310.36 595.63 310.37 595.72 310.39 595.76 310.39 595.78 310.38 595.82 310.31 595.9 310.21 595.93 310.15 595.93 310.09 595.98 310.02 596.01 309.95 596.03 309.79 596.02 309.65 596.04 309.61 596.12 309.6 596.16 309.61 596.23 309.64 596.29 309.65 596.3 309.66 596.31 309.66 596.33 309.65 596.35 309.64 596.37 309.61 596.39 309.6 596.47 309.61 596.54 309.62 596.67 309.67 596.8 309.68 596.82 309.67 596.85 309.62 596.86 309.6 596.88 309.6 596.89 309.6 596.91 309.61 597.06 309.66 597.12 309.67 597.08 309.61 597.12 309.61 597.13 309.58 597.12 309.55 597.13 309.52 597.15 309.49 597.23 309.43 597.24 309.41 597.25 309.38 597.25 309.36 597.23 309.34 597.12 309.34 597.07 309.34 597.03 309.3 597.02 309.29 596.97 309.28 596.95 309.28 596.93 309.26 596.88 309.2 596.87 309.17 596.87 309.15 596.86 309.13 596.84 309.11 596.84 309.1 596.88 309.01 596.87 308.96 596.85 308.93 596.82 308.9 596.8 308.87 596.78 308.85 596.71 308.83 596.71 308.87 596.69 308.88 596.67 308.88 596.65 308.87 596.63 308.88 596.61 308.9 596.59 308.92 596.57 308.94 596.54 308.95 596.5 308.94 596.43 308.89 596.38 308.87 596.29 308.86 596.24 308.86 596.22 308.83 596.2 308.8 596.14 308.75 596.12 308.7 596.04 308.66 596.01 308.63 596 308.48 595.94 308.41 595.78 308.31 595.64 308.15 595.57 308.11 595.47 308.14 595.44 308.16 595.39 308.18 595.35 308.18 595.32 308.15 595.31 308.11 595.3 308.09 595.26 308.05 595.26 308.02 595.26 308 595.25 307.97 595.23 307.86 595.24 307.85 595.25 307.84 595.26 307.82 595.3 307.68 595.35 307.6 595.4 307.56 595.42 307.51 595.41 307.48 595.4 307.47 595.39 307.46 595.38 307.45 595.38 307.42 595.38 307.41 595.39 307.4 595.41 307.32 595.43 307.29 595.5 307.24 595.52 307.22 595.54 307.21 595.55 307.19 595.58 307.18 595.62 307.17 595.75 307.13 595.79 307.1 595.81 307.07 595.8 306.98 595.81 306.94 595.85 306.89 595.88 306.86 595.98 306.8 596 306.78 596.01 306.75 596.02 306.74 596.05 306.76 596.06 306.77 596.08 306.77 596.1 306.76 596.12 306.76 596.17 306.77 596.16 306.7 596.12 306.57 596.09 306.52 596.03 306.49 595.9 306.47 595.85 306.44 595.83 306.44 595.83 306.46 595.82 306.52 595.81 306.53 595.78 306.52 595.77 306.49 595.76 306.45 595.77 306.42 595.77 306.42 595.8 306.37 595.85 306.21 595.87 306.18 595.89 306.13 595.92 306.1 595.94 306.11 595.94 306.16 595.94 306.21 595.95 306.26 595.98 306.29 596.06 306.32 596.09 306.33 596.12 306.37 596.15 306.39 596.17 306.42 596.19 306.43 596.23 306.46 596.29 306.49 596.3 306.49 596.35 306.49 596.38 306.5 596.39 306.52 596.4 306.55 596.42 306.57 596.45 306.59 596.47 306.6 596.52 306.61 596.51 306.63 596.51 306.65 596.51 306.67 596.53 306.68 596.55 306.69 596.55 306.73 596.56 306.75 596.61 306.77 596.64 306.8 596.65 306.83 596.63 306.87 596.6 306.9 596.51 306.94 596.5 306.96 596.54 306.98 596.72 306.91 596.8 306.95 596.82 306.98 596.84 307.02 596.86 307.06 596.9 307.08 596.93 307.06 596.96 306.98 597.01 306.95 597.07 306.96 597.17 307.06 597.23 307.08 597.33 307.06 597.37 307.03 597.36 306.98 597.34 306.97 597.31 306.97 597.29 306.96 597.3 306.9 597.28 306.92 597.26 306.92 597.24 306.92 597.23 306.9 597.21 306.83 597.15 306.8 597.09 306.78 597.04 306.73 597.04 306.69 597.06 306.64 597.09 306.6 597.12 306.57 597.15 306.55 597.17 306.56 597.19 306.58 597.23 306.61 597.25 306.62 597.29 306.66 597.31 306.67 597.33 306.68 597.38 306.7 597.4 306.71 597.41 306.74 597.4 306.76 597.41 306.78 597.44 306.8 597.5 306.81 597.51 306.83 597.51 306.86 597.49 306.87 597.46 306.86 597.44 306.86 597.44 306.93 597.45 306.97 597.5 307.04 597.51 307.08 597.53 307.23 597.55 307.27 597.58 307.3 597.72 307.37 597.75 307.39 597.78 307.42 597.79 307.47 597.81 307.49 597.89 307.53 597.94 307.59 597.98 307.62 598.03 307.64 598.06 307.64 598.1 307.62 598.13 307.6 598.15 307.6 598.18 307.65 598.2 307.65 598.21 307.65 598.22 307.65 598.23 307.65 598.23 307.65 598.23 307.65 598.23 307.65 598.35 307.63 598.36 307.64 598.37 307.64 598.38 307.65 598.41 307.7 598.43 307.73 598.45 307.74 598.48 307.73 598.5 307.71 598.51 307.68 598.5 307.65 598.52 307.58 598.62 307.5 598.64 307.46 598.62 307.43 598.59 307.42 598.56 307.43 598.54 307.42 598.54 307.39 598.56 307.37 598.6 307.35 598.62 307.34 598.58 307.33 598.55 307.31 598.53 307.28 598.55 307.24 598.57 307.23 598.58 307.22 598.6 307.22 598.65 307.23 598.65 307.22 598.63 307.19 598.63 307.12 598.64 307.09 598.69 307.08 598.73 307.09 598.74 307.12 598.74 307.17 598.74 307.23 598.74 307.24 598.74 307.24 598.77 307.25 598.79 307.26 598.83 307.25 598.85 307.25 598.88 307.28 598.89 307.31 598.9 307.35 598.92 307.39 598.95 307.43 598.95 307.46 598.94 307.49 598.95 307.53 598.96 307.55 599 307.61 599.02 307.64 599.03 307.66 599.05 307.67 599.06 307.66 599.08 307.64 599.08 307.64 599.08 307.64 599.08 307.64 599.08 307.64 599.09 307.64 599.09 307.64 599.12 307.68 599.11 307.72 599.08 307.74 599.04 307.76 599.08 307.78 599.12 307.79 599.13 307.8 599.12 307.86 599.03 308.03 599.02 308.09 599.06 308.31 599.11 308.43 599.13 308.53 599.11 308.7 599.11 308.88 599.08 309 599.06 309.07 599.05 309.09 599.05 309.16 599.05 309.25 599.07 309.33 599.1 309.38 599.13 309.39 599.21 309.35 599.3 309.35 599.79 309.56 600.14 309.64 600.31 309.71 600.39 309.71 600.61 309.66 600.79 309.68 600.88 309.66 600.91 309.66 600.94 309.67 600.99 309.69 601.07 309.7 601.09 309.7 601.1 309.69 601.12 309.67 601.14 309.66 601.17 309.67 601.2 309.68 601.23 309.7 601.26 309.72 601.32 309.73 601.57 309.69 601.59 309.69 601.66 309.67 602.02 309.61 602.14 309.61 602.17 309.61 602.22 309.58 602.24 309.58 602.35 309.64 602.67 309.74 602.76 309.75 602.78 309.75 602.83 309.73 602.85 309.73 602.88 309.72 602.91 309.69 602.93 309.68 602.97 309.69 602.99 309.7 603 309.73 603.04 309.76 603.08 309.77 603.13 309.77 603.18 309.76 603.21 309.74 603.22 309.7 603.24 309.7 603.27 309.72 603.29 309.72 603.31 309.71 603.32 309.68 603.34 309.67 603.37 309.66 603.48 309.67 603.71 309.64 603.84 309.66 603.88 309.65 603.94 309.63 604.01 309.63 604.08 309.65 604.14 309.67 604.16 309.69 604.18 309.72 604.19 309.74 604.21 309.74 604.24 309.74 604.26 309.75 604.27 309.76 604.3 309.75 604.32 309.75 604.33 309.77 604.36 309.81 604.39 309.84 604.42 309.85 604.45 309.87 604.49 309.88 604.61 309.89 604.63 309.91 604.66 309.96 604.72 309.98 604.78 310.02 604.79 310.06 604.79 310.09 604.79 310.09 604.79 310.09 604.81 310.09 604.85 310.1 604.85 310.1 604.85 310.11 604.85 310.11 604.85 310.11 604.92 310.17 604.92 310.17 604.94 310.18 604.94 310.18 604.95 310.19 604.95 310.19 604.93 310.2 604.93 310.2 604.93 310.2 604.98 310.23 604.98 310.23 605.01 310.25 605.02 310.29 605.02 310.29 605.03 310.33 605.02 310.36 604.99 310.4 604.91 310.43 604.78 310.47 604.76 310.47 604.74 310.46 604.74 310.46 604.73 310.45 604.73 310.45 604.73 310.43 604.73 310.43 604.58 310.34 604.58 310.34 604.49 310.31 604.43 310.34 604.42 310.38 604.42 310.42 604.42 310.42 604.45 310.5 604.45 310.5 604.46 310.54 604.46 310.58 604.45 310.61 604.34 310.93 604.32 311.02 604.31 311.11 604.3 311.14 604.27 311.18 604.27 311.19 604.24 311.21 604.21 311.23 604.18 311.25 604.17 311.3 604.18 311.45 604.17 311.52 604.13 311.57 604.07 311.6 604.01 311.6 603.82 311.59 603.82 311.62 603.87 311.7 603.87 311.73 603.83 311.72 603.78 311.68 603.76 311.66 603.71 311.68 603.7 311.72 603.73 311.82 603.72 311.87 603.68 312.07 603.66 312.11 603.63 312.13 603.59 312.12 603.52 312.05 603.52 312.03 603.51 311.98 603.51 311.96 603.48 311.96 603.34 311.93 603.32 311.96 603.33 312.01 603.34 312.06 603.34 312.1 603.32 312.14 603.28 312.15 603.23 312.14 603.19 312.12 603.17 312.08 603.13 311.98 603.11 311.98 603.1 312 603.08 312.16 603.06 312.21 603.04 312.24 603.01 312.26 602.96 312.28 602.86 312.29 602.78 312.28 602.61 312.25 602.52 312.25 602.49 312.32 602.49 312.41 602.47 312.51 602.44 312.52 602.42 312.52 602.4 312.51 602.39 312.51 602.36 312.51 602.32 312.52 602.29 312.55 602.27 312.58 602.2 312.72 602.19 312.75 602.19 312.78 602.21 312.84 602.22 312.87 602.22 312.91 602.17 313.05 602.15 313.09 602.11 313.11 602.07 313.11 602.03 313.12 602.01 313.17 602.02 313.22 602.05 313.24 602.09 313.25 602.11 313.29 602.09 313.33 602.05 313.33 602.03 313.33 602.02 313.39 602.03 313.43 602.09 313.55 602.11 313.59 602.13 313.67 602.15 313.71 602.17 313.73 602.21 313.75 602.22 313.77 602.23 313.79 602.24 313.85 602.27 313.95 602.29 314 602.32 314.02 602.35 314.03 602.35 314.05 602.34 314.07 602.32 314.09 602.31 314.11 602.31 314.13 602.32 314.15 602.33 314.17 602.38 314.56 602.41 314.66 602.46 314.73 602.54 314.75 602.55 314.67 602.51 314.47 602.51 314.36 602.52 314.31 602.54 314.27 602.59 314.27 602.63 314.3 602.67 314.35 602.68 314.38 602.68 314.38 602.69 314.36 602.69 314.36 602.71 314.38 602.71 314.4 602.7 314.41 602.71 314.42 602.74 314.46 602.74 314.46 602.76 314.53 602.77 314.56 602.82 314.73 602.83 314.79 602.84 314.8 602.86 314.81 602.87 314.81 602.87 314.88 602.88 314.91 602.91 314.94 602.94 314.95 602.96 314.96 603 314.97 603.01 315 603.01 315.02 603.02 315.03 603.05 315.01 603.07 314.99 603.07 314.97 603.08 314.95 603.1 314.94 603.12 314.95 603.14 314.95 603.15 314.95 603.17 314.95 603.2 314.94 603.26 314.93 603.28 314.91 603.3 314.89 603.34 314.86 603.35 314.84 603.39 314.78 603.39 314.77 603.39 314.76 603.39 314.75 603.4 314.74 603.41 314.74 603.43 314.74 603.44 314.74 603.47 314.71 603.48 314.68 603.47 314.66 603.44 314.58 603.41 314.42 603.38 314.34 603.37 314.25 603.41 314.13 603.47 314.02 603.53 313.94 603.56 313.91 603.69 313.85 603.72 313.83 603.75 313.8 603.8 313.71 603.81 313.62 603.75 313.34 603.74 313.25 603.75 313.19 603.76 313.16 603.79 313.16 603.82 313.19 603.85 313.24 603.94 313.34 603.98 313.36 604.03 313.35 604.07 313.32 604.14 313.22 604.17 313.17 604.27 313.14 604.31 313.21 604.33 313.3 604.36 313.34 604.4 313.31 604.43 313.2 604.46 313.18 604.51 313.2 604.51 313.21 604.51 313.25 604.49 313.36 604.49 313.44 604.58 313.71 604.59 313.83 604.6 313.86 604.61 313.88 604.64 313.91 604.65 313.93 604.66 313.95 604.65 313.98 604.66 314 604.67 314.01 604.7 314.04 604.71 314.05 604.71 314.07 604.7 314.12 604.7 314.14 604.71 314.18 604.72 314.21 604.73 314.23 604.71 314.27 604.67 314.36 604.66 314.39 604.66 314.49 604.72 314.83 604.71 314.99 604.73 315.07 604.77 315.14 604.85 315.17 604.88 315.21 604.9 315.39 604.91 315.46 604.94 315.5 605 315.55 605.02 315.59 605.03 315.63 605.05 315.81 605.04 315.95 605.05 315.99 605.08 316.06 605.08 316.1 605.21 316.88 605.21 316.94 605.18 316.95 605.15 316.95 605.12 316.98 605.17 317.14 605.2 317.29 605.21 317.31 605.21 317.34 Z" fill-rule="evenodd" id="Bangladesh" transform="translate(-595.1199951171875,-306.1000061035156) "/></svg>