<svg xmlns="http://www.w3.org/2000/svg" viewBox="0 0 798 1001"><path d="M 26.86 380.3 29.62 348.92 22.04 336.51 24.11 313.4 20.31 308.58 24.11 298.92 20.31 281.68 26.86 260.65 25.14 250.3 19.28 250.3 25.83 239.61 21 237.54 14.45 213.75 15.37 213.43 2.03 175.48 6.86 150.65 1 98.93 42.38 46.17 46.87 28.93 59.28 22.38 95.84 12.72 106.53 2.03 115.15 5.83 134.12 1 144.81 9.62 151.36 8.93 170.67 28.93 179.29 25.14 179.29 32.72 197.57 42.38 221.36 69.96 237.57 72.03 258.61 97.89 253.09 106.51 266.54 117.89 263.44 125.48 254.31 128.73 271.02 142.72 271.02 142.72 274.13 156.17 288.27 174.44 284.47 189.96 293.09 220.65 301.72 228.92 301.72 236.85 311.37 238.58 311.37 263.75 329.65 284.78 322.06 294.09 333.44 293.4 351.72 308.58 378.62 349.61 387.93 367.88 408.97 381.33 404.48 385.12 417.59 400.64 442.76 417.88 468.63 421.68 474.14 428.23 490.35 432.02 540.36 475.12 562.43 473.4 570.01 496.5 596.91 502.02 598.64 508.91 632.43 535.46 646.57 534.77 662.09 523.05 669.68 527.88 669.09 528.45 689.68 554.77 697.61 550.98 693.47 560.64 701.41 574.77 710.72 575.81 715.54 583.39 727.96 583.39 726.24 588.22 732.79 590.29 757.62 583.39 759.69 595.81 770.38 593.05 777.96 616.15 799 617.88 789.34 628.56 796.93 642.01 789.34 671.67 761.76 729.94 727.96 765.46 706.92 804.77 691.75 808.56 681.06 840.28 647.61 868.9 611.05 890.28 558.63 928.21 536.56 926.49 507.94 976.14 501.04 972.35 455.18 999.24 445.52 995.45 434.14 1002 403.45 993.38 388.96 952.35 373.79 938.9 367.93 941.66 336.2 929.24 296.2 936.14 284.47 926.49 270.33 927.52 212.74 902.35 183.08 903.38 147.91 890.97 132.39 887.18 130.32 882.35 142.74 869.94 141.01 843.04 121.7 827.87 100.66 826.83 94.11 818.21 61.35 803.73 62.38 792.35 72.04 804.77 71.01 786.49 86.18 785.46 85.15 775.11 69.97 776.84 69.97 769.25 78.59 766.49 81.35 758.91 57.56 722.35 48.94 697.53 51 686.84 42.38 660.29 47.9 579.6 42.38 573.05 46.87 559.6 39.28 545.12 39.28 526.15 45.14 505.81 33.42 497.19 28.93 473.4 36.52 456.16 37.55 431.33 26.86 380.3 Z" transform="translate(-1,-1) "/></svg>