<svg xmlns="http://www.w3.org/2000/svg" viewBox="0 0 21.17999267578125 18.399993896484375"><path d="M 462.4 216.66 462.44 216.72 462.6 216.89 462.66 216.99 462.71 217.03 462.76 217.05 462.81 217.02 462.88 216.91 462.93 216.87 463.26 216.83 463.39 216.85 463.42 216.87 463.44 216.89 463.48 216.96 463.56 217.07 463.58 217.11 463.6 217.2 463.61 217.3 463.63 217.38 463.69 217.43 463.86 217.48 463.91 217.47 463.91 217.37 463.97 217.31 464.11 217.25 464.11 217.25 464.11 217.25 464.11 217.25 464.24 217.17 464.35 217.12 464.48 217.13 464.61 217.17 464.71 217.25 464.78 217.31 465.12 217.4 465.16 217.43 465.2 217.46 465.24 217.52 465.26 217.56 465.27 217.59 465.26 217.61 465.24 217.62 465.23 217.61 465.21 217.62 465.19 217.64 465.17 217.65 465.15 217.66 465.13 217.69 465.13 217.73 465.12 217.82 465.11 217.86 465.06 218 465.05 218.06 465.06 218.14 465.09 218.2 465.2 218.29 465.31 218.45 465.35 218.48 465.41 218.46 465.58 218.25 465.8 218.12 465.86 218.11 466.01 218.15 466.07 218.12 466.16 217.96 466.21 217.89 466.3 217.84 466.38 217.82 466.47 217.82 466.74 217.92 466.79 217.9 466.89 217.81 466.94 217.78 466.98 217.79 467.06 217.86 467.1 217.89 467.54 218.03 467.56 218.06 467.56 218.09 467.55 218.12 467.54 218.15 467.57 218.19 467.76 218.29 467.79 218.3 467.8 218.33 467.81 218.38 467.8 218.41 467.79 218.45 467.79 218.48 467.82 218.54 467.87 218.57 467.92 218.58 468.01 218.57 468.04 218.59 468.06 218.63 468.08 218.69 468.15 218.81 468.21 218.83 468.28 218.78 468.38 218.75 468.46 218.79 468.51 218.88 468.52 218.9 468.54 219.05 468.49 219.19 468.53 219.21 468.54 219.21 468.52 219.26 468.47 219.31 468.45 219.37 468.47 219.44 468.51 219.49 468.54 219.54 468.54 219.62 468.51 219.67 468.37 219.76 468.3 219.87 468.27 219.95 468.26 220.02 468.28 220.07 468.32 220.1 468.4 220.14 468.43 220.19 468.47 220.33 468.5 220.38 468.6 220.46 468.63 220.5 468.63 220.51 468.62 220.55 468.63 220.57 468.63 220.57 468.66 220.58 468.66 220.58 468.67 220.6 468.68 220.62 468.68 220.64 468.67 220.68 468.66 220.7 468.65 220.73 468.66 220.76 468.67 220.79 468.7 220.86 468.73 220.96 468.73 221.03 468.67 221.05 468.57 221.02 468.52 221.03 468.51 221.07 468.53 221.14 468.56 221.18 468.58 221.23 468.53 221.3 468.49 221.33 468.36 221.36 468.31 221.4 468.31 221.44 468.33 221.5 468.33 221.59 468.3 221.66 468.25 221.71 468.2 221.78 468.19 221.88 468.21 221.95 468.24 221.97 468.33 222 468.67 222.25 468.71 222.31 468.71 222.38 468.76 222.38 468.95 222.4 469 222.5 469.09 222.57 469.03 222.72 468.92 222.9 468.86 223.07 468.92 223.12 469.09 223.16 469.11 223.22 469.11 223.22 469.18 223.24 469.22 223.31 469.27 223.51 469.3 223.55 469.32 223.58 469.35 223.62 469.36 223.68 469.38 223.9 469.4 224.01 469.44 224.07 469.78 224.34 469.84 224.39 469.89 224.41 470.01 224.44 470.2 224.55 470.26 224.56 470.33 224.56 470.35 224.58 470.38 224.61 470.39 224.65 470.41 224.7 470.43 224.75 470.45 224.76 470.51 224.72 470.52 224.72 470.54 224.73 470.54 224.74 470.54 224.76 470.59 224.96 470.58 224.99 470.58 225.02 470.58 225.04 470.57 225.07 470.55 225.15 470.51 225.37 470.47 225.47 470.39 225.61 470.37 225.7 470.46 225.7 470.65 225.77 471.12 225.64 471.17 225.65 471.3 225.75 471.58 225.83 471.66 225.88 471.73 225.98 471.76 226 471.87 226 471.91 226 471.96 226.03 472 226.08 472.01 226.11 472.02 226.14 472.01 226.17 472 226.19 471.83 226.28 471.82 226.3 471.82 226.32 471.82 226.39 471.85 226.49 471.89 226.57 471.94 226.63 472 226.67 472.11 226.72 472.16 226.76 472.2 226.83 472.2 226.83 472.21 226.85 472.23 226.86 472.25 226.85 472.26 226.83 472.3 226.82 472.34 226.83 472.37 226.85 472.37 226.88 472.36 226.91 472.37 226.96 472.39 226.96 472.46 226.94 472.49 226.94 472.53 227.02 472.52 227.06 472.49 227.29 472.52 227.41 472.48 227.44 472.44 227.44 472.41 227.42 472.37 227.42 472.22 227.45 472.23 227.46 472.25 227.5 472.25 227.51 472.2 227.54 472.12 227.56 472.05 227.55 472 227.52 471.94 227.54 471.92 227.58 471.94 227.62 472 227.63 471.97 227.71 471.94 227.77 471.87 227.89 471.83 227.94 471.8 227.96 471.72 227.98 471.64 228.05 471.59 228.13 471.53 228.19 471.41 228.18 471.4 228.2 471.4 228.22 471.39 228.23 471.39 228.24 471.39 228.26 471.39 228.28 471.38 228.29 471.37 228.29 471.35 228.28 471.27 228.29 471.21 228.34 471.19 228.35 471.12 228.34 470.96 228.28 470.89 228.29 470.83 228.32 470.78 228.32 470.73 228.31 470.61 228.24 470.58 228.23 470.51 228.24 470.48 228.23 470.45 228.18 470.42 228.02 470.39 227.96 470.35 227.94 470.26 227.94 470.21 227.93 470.08 227.87 470.03 227.87 469.99 227.88 469.9 227.93 469.85 227.93 469.75 227.91 469.64 227.91 469.56 227.98 469.51 228.15 469.52 228.2 469.52 228.2 469.53 228.24 469.53 228.28 469.52 228.32 469.5 228.34 469.45 228.35 469.42 228.37 469.31 228.54 469.26 228.59 469.43 228.73 469.47 228.8 469.53 228.98 469.58 229.06 469.64 229.12 469.72 229.17 469.78 229.19 469.84 229.2 469.85 229.23 469.86 229.28 469.88 229.34 469.91 229.38 469.94 229.4 469.96 229.43 469.98 229.5 469.98 229.65 469.93 229.72 469.78 229.81 469.78 229.81 469.81 229.86 469.91 230 469.97 230.14 470 230.19 470.08 230.26 470.11 230.3 470.1 230.33 470.07 230.34 469.99 230.32 469.96 230.32 469.97 230.34 469.99 230.38 469.95 230.4 469.94 230.43 469.94 230.46 469.97 230.5 470.02 230.54 470.02 230.62 470.01 230.73 470.01 230.82 470.03 230.86 470.05 230.89 470.06 230.93 470.07 231 470.05 231.05 470.03 231.09 470 231.13 469.97 231.16 470.04 231.25 470.08 231.29 470.12 231.32 470.15 231.34 470.23 231.35 470.27 231.37 470.24 231.4 470.23 231.45 470.22 231.5 470.23 231.55 470.25 231.59 470.27 231.61 470.38 231.69 470.41 231.74 470.42 231.81 470.41 231.92 470.16 231.93 469.77 231.85 469.57 231.85 469.39 231.93 469.35 231.99 469.31 232.06 469.28 232.12 469.22 232.14 469.17 232.12 469.07 232.03 469.02 232 468.93 231.99 468.63 232.01 468.57 232.03 468.54 232.06 468.55 232.13 468.54 232.14 468.53 232.16 468.53 232.18 468.52 232.2 468.58 232.2 468.61 232.25 468.59 232.3 468.53 232.3 468.51 232.28 468.5 232.28 468.49 232.28 468.47 232.3 468.45 232.32 468.45 232.34 468.45 232.36 468.45 232.37 468.43 232.4 468.4 232.43 468.37 232.45 468.34 232.47 468.28 232.5 468.28 232.51 468.28 232.53 468.3 232.55 468.3 232.57 468.27 232.61 468.25 232.63 468.23 232.64 468.16 232.64 468.14 232.64 468.14 232.67 468.13 232.7 468.13 232.73 468.08 232.75 468.07 232.78 468.06 232.8 468.05 232.81 468.04 232.82 467.99 232.89 467.98 232.91 467.97 232.92 467.97 232.94 467.98 232.97 467.99 233.03 467.95 233.07 467.9 233.1 467.87 233.13 467.91 233.15 467.93 233.16 467.93 233.18 467.91 233.21 467.9 233.25 467.9 233.29 467.89 233.33 467.86 233.34 467.79 233.34 467.76 233.35 467.78 233.4 467.75 233.47 467.76 233.52 467.75 233.54 467.73 233.56 467.72 233.57 467.73 233.59 467.73 233.62 467.71 233.63 467.64 233.69 467.64 233.72 467.68 233.76 467.7 233.77 467.7 233.79 467.69 233.8 467.68 233.8 467.67 233.81 467.66 233.82 467.66 233.84 467.68 233.87 467.76 233.89 467.79 233.91 467.78 233.95 467.77 233.97 467.75 233.98 467.77 234 467.8 234.03 467.81 234.05 467.79 234.08 467.81 234.13 467.82 234.15 467.85 234.17 467.87 234.18 467.87 234.2 467.84 234.2 467.82 234.21 467.8 234.23 467.79 234.28 467.8 234.32 467.82 234.33 467.84 234.33 467.87 234.35 467.88 234.37 467.9 234.47 467.91 234.49 467.93 234.51 467.93 234.53 467.9 234.54 467.91 234.64 467.85 234.71 467.79 234.76 467.78 234.81 467.74 234.88 467.73 234.89 467.73 234.97 467.73 234.97 467.72 234.99 467.7 235 467.68 234.97 467.65 234.94 467.63 234.92 467.6 234.91 467.57 234.92 467.53 234.9 467.48 234.83 467.45 234.8 467.42 234.79 467.35 234.79 467.32 234.78 467.29 234.75 467.22 234.66 467.2 234.63 467.21 234.62 467.23 234.55 467.23 234.52 467.23 234.48 467.23 234.46 467.22 234.43 467.21 234.41 467.18 234.38 467.07 234.33 467.04 234.29 466.96 234.18 466.89 234.13 466.83 234.12 466.52 234.13 466.47 234.14 466.33 234.21 466.31 234.21 466.27 234.19 466.25 234.19 466.22 234.21 466.18 234.28 466.16 234.3 466.12 234.31 465.92 234.28 465.89 234.24 465.87 234.18 465.83 234.12 465.8 234.09 465.75 234.09 465.7 234.09 465.65 234.11 465.61 234.15 465.58 234.2 465.54 234.24 465.49 234.26 465.43 234.27 465.4 234.28 465.38 234.33 465.35 234.41 465.32 234.47 465.27 234.47 465.18 234.43 465.13 234.45 465.07 234.5 465.04 234.52 464.99 234.54 464.94 234.51 464.91 234.45 464.9 234.37 464.87 234.3 464.83 234.25 464.79 234.22 464.77 234.18 464.79 234.09 464.79 233.99 464.76 233.94 464.69 233.82 464.64 233.69 464.61 233.65 464.56 233.62 464.47 233.6 464.42 233.6 464.38 233.61 464.34 233.66 464.28 233.77 464.24 233.81 464.18 233.84 464.05 233.84 463.98 233.85 463.91 233.89 463.84 233.95 463.78 234.02 463.73 234.12 463.73 234.18 463.73 234.31 463.72 234.37 463.68 234.41 463.66 234.38 463.64 234.31 463.63 234.27 463.6 234.26 463.57 234.28 463.54 234.3 463.5 234.28 463.48 234.24 463.47 234.19 463.43 233.99 463.42 233.92 463.41 233.87 463.35 233.85 463.15 233.81 463.09 233.81 463.03 233.83 462.92 233.9 462.86 233.96 462.84 233.97 462.81 233.96 462.79 233.93 462.77 233.83 462.76 233.8 462.73 233.77 462.66 233.73 462.64 233.7 462.62 233.66 462.62 233.63 462.62 233.6 462.61 233.56 462.58 233.52 462.53 233.52 462.48 233.55 462.44 233.59 462.39 233.66 462.32 233.79 462.27 233.84 462.22 233.86 462.01 233.86 461.97 233.85 461.92 233.82 461.79 233.68 461.74 233.65 461.69 233.66 461.65 233.7 461.62 233.76 461.61 233.83 461.61 233.88 461.62 233.91 461.62 233.95 461.61 234 461.6 234.02 461.49 234.16 461.47 234.19 461.43 234.19 461.4 234.18 461.37 234.15 461.34 234.12 461.33 234.1 461.32 234.09 461.4 233.91 461.41 233.82 461.39 233.74 461.35 233.72 461.23 233.72 460.99 233.62 460.99 233.62 460.91 233.62 460.87 233.64 460.81 233.71 460.76 233.74 460.71 233.74 460.58 233.72 460.49 233.75 460.44 233.75 460.41 233.72 460.43 233.66 460.46 233.59 460.47 233.52 460.4 233.51 460.35 233.52 460.3 233.51 460.27 233.48 460.25 233.41 460.25 233.31 460.26 233.24 460.24 233.18 460.18 233.15 460.09 233.13 459.9 233.12 459.67 233.2 459.53 233.17 459.11 232.99 458.62 232.97 458.59 232.96 458.56 232.92 458.56 232.88 458.56 232.85 458.56 232.83 458.54 232.81 458.02 232.79 457.96 232.76 457.81 232.63 457.75 232.62 457.59 232.62 457.12 232.53 456.93 232.57 456.63 232.57 456.2 232.56 455.82 232.46 455.72 232.46 455.62 232.49 455.42 232.6 454.8 232.7 454.75 232.7 454.62 232.66 454.07 232.71 454.02 232.72 453.97 232.77 453.89 232.89 453.86 232.96 453.8 233.2 453.74 233.29 453.49 233.46 453.16 233.76 453.07 233.77 453.01 233.71 452.94 233.64 452.86 233.6 452.8 233.6 452.65 233.55 452.59 233.55 452.38 233.6 452.35 233.62 452.33 233.64 452.3 233.69 452.3 233.72 452.31 233.75 452.37 233.92 452.38 233.95 452.37 234.01 452.35 234.02 452.33 234 452.32 233.95 452.29 233.93 452.25 233.92 452.23 233.87 452.24 233.87 452.26 233.87 452.21 233.78 452.19 233.73 452.18 233.68 452.19 233.58 452.19 233.55 452.16 233.52 452.16 233.5 452.18 233.49 452.2 233.49 452.23 233.45 452.21 233.43 452.2 233.41 452.19 233.39 452.2 233.38 452.22 233.37 452.22 233.35 452.2 233.32 452.2 233.3 452.21 233.22 452.22 233.18 452.23 233.16 452.26 233.11 452.31 233.08 452.35 233.04 452.38 232.96 452.34 232.9 452.3 232.84 452.33 232.81 452.34 232.73 452.36 232.72 452.36 232.7 452.36 232.7 452.36 232.7 452.35 232.69 452.36 232.65 452.36 232.54 452.38 232.47 452.42 232.37 452.45 232.32 452.48 232.3 452.46 232.24 452.43 232.1 452.41 232.06 452.41 232.01 452.4 231.97 452.37 231.95 452.35 231.95 452.34 231.92 452.32 231.89 452.31 231.87 452.27 231.84 452.16 231.84 452.12 231.83 452.06 231.71 452.07 231.69 452.07 231.65 452.06 231.62 452.03 231.66 452.01 231.64 451.99 231.62 451.98 231.61 451.95 231.65 451.93 231.64 451.91 231.62 451.88 231.61 451.85 231.62 451.84 231.61 451.86 231.58 451.86 231.56 451.81 231.55 451.68 231.5 451.65 231.47 451.61 231.49 451.45 231.44 451.4 231.41 451.42 231.35 451.41 231.3 451.39 231.26 451.37 231.25 451.36 231.24 451.35 231.23 451.45 231.02 451.49 230.96 451.58 230.85 451.85 230.44 452.05 230.27 452.24 230.16 452.62 230.05 452.91 229.85 453 229.74 453.03 229.59 453.02 229.48 453.01 229.04 453 229.01 452.99 228.99 452.98 228.97 452.98 228.93 452.99 228.9 453.01 228.85 453.02 228.83 453.02 228.8 453 228.7 453 228.67 453 228.63 453 228.6 452.97 228.55 452.91 228.46 452.89 228.4 452.89 228.32 452.91 228.27 452.94 228.23 452.96 228.18 452.96 228.09 452.94 228.04 452.9 228.01 452.86 227.97 452.84 227.91 452.82 227.86 452.8 227.81 452.76 227.75 452.72 227.65 452.63 227.3 452.59 227.18 452.48 226.96 452.29 226.39 452.24 226.12 452.24 225.9 452.24 225.9 452.24 225.9 452.18 225.82 452.16 225.74 452.14 225.54 452.11 225.45 452.09 225.36 452.06 225.27 452.06 225.16 452.14 225.18 452.34 225.3 452.37 225.31 452.41 225.31 452.52 225.26 452.66 225.24 452.69 225.21 452.73 225.2 452.74 225.2 452.78 225.23 452.8 225.23 452.82 225.23 452.99 225.13 453.02 225.13 453.06 225.14 453.12 225.18 453.16 225.19 453.3 225.19 453.37 225.17 453.5 225.1 453.58 225.08 453.65 225.11 453.71 225.18 453.75 225.29 453.77 225.33 453.81 225.34 453.89 225.33 453.96 225.35 454.04 225.35 454.12 225.31 454.37 225.09 454.48 225.02 454.63 224.99 454.68 224.95 454.69 224.95 454.69 224.95 454.7 224.96 454.73 225.03 454.76 225.06 454.8 225.07 454.95 225.04 454.99 225.02 455.02 224.96 455.02 224.96 455.02 224.96 455.02 224.96 455.02 224.86 455 224.78 454.97 224.72 454.94 224.64 454.93 224.58 454.94 224.57 454.95 224.57 454.97 224.54 455.01 224.52 455.01 224.5 455.01 224.48 455.01 224.45 455.02 224.42 455.09 224.38 455.1 224.38 455.2 224.37 455.3 224.38 455.48 224.45 455.58 224.43 455.67 224.37 455.76 224.27 455.8 224.19 455.85 224.01 455.87 223.96 455.91 223.95 456.05 224.01 456.24 223.99 456.29 223.96 456.38 223.83 456.43 223.8 456.46 223.81 456.48 223.82 456.49 223.84 456.64 224.06 456.63 224.07 456.57 224.07 456.53 224.09 456.52 224.13 456.58 224.16 456.59 224.19 456.57 224.22 456.51 224.24 456.49 224.27 456.51 224.34 456.56 224.38 456.62 224.41 456.82 224.45 456.87 224.45 456.89 224.43 456.92 224.38 456.95 224.37 457.03 224.38 457.06 224.38 457.11 224.34 457.13 224.28 457.13 224.11 457.13 224.09 457.16 224.06 457.17 224.04 457.16 224.02 457.15 224.01 457.14 224 457.13 223.99 457.11 223.95 457.1 223.92 457.08 223.89 457.06 223.86 457.05 223.86 457.02 223.87 457.01 223.87 457 223.85 456.98 223.79 456.97 223.75 456.96 223.72 456.93 223.7 456.9 223.71 456.76 223.78 456.67 223.79 456.62 223.77 456.59 223.72 456.59 223.62 456.63 223.54 456.73 223.42 456.77 223.34 456.78 223.26 456.78 223.18 456.79 223.08 456.82 223.01 456.85 222.96 456.98 222.88 457.03 222.84 457.06 222.78 457.07 222.7 457.06 222.63 457 222.49 456.99 222.42 456.99 222.37 457 222.33 457.01 222.29 457.02 222.25 457.02 222.21 457.02 222.02 457.02 221.97 457.05 221.93 457.09 221.89 457.12 221.88 457.13 221.88 457.14 221.87 457.15 221.84 457.15 221.81 457.13 221.73 457.13 221.7 457.15 221.62 457.2 221.58 457.25 221.54 457.29 221.48 457.31 221.44 457.31 221.41 457.32 221.38 457.35 221.36 457.43 221.32 457.47 221.32 457.55 221.34 457.59 221.34 457.86 221.29 457.94 221.24 457.97 221.21 458.01 221.15 458.05 221.09 458.13 220.91 458.14 220.88 458.15 220.83 458.14 220.74 458.15 220.69 458.22 220.58 458.32 220.56 458.57 220.63 458.58 220.63 458.61 220.62 458.62 220.61 458.63 220.58 458.65 220.56 458.68 220.56 458.92 220.67 458.97 220.66 459 220.6 459.02 220.49 459.04 220.38 459.05 220.34 459.09 220.29 459.15 220.23 459.19 220.21 459.27 220.18 459.33 220.17 459.38 220.13 459.41 220.07 459.39 220 459.34 219.96 458.97 219.9 458.84 219.93 458.8 219.93 458.67 219.88 458.63 219.86 458.62 219.82 458.64 219.74 458.7 219.65 458.71 219.61 458.74 219.46 458.76 219.42 458.84 219.34 458.84 219.3 458.8 219.21 458.81 219.12 458.86 219.05 458.91 218.99 458.95 218.92 458.97 218.83 458.98 218.73 458.97 218.62 458.95 218.53 459 218.45 459.05 218.42 459.11 218.42 459.23 218.47 459.28 218.47 459.46 218.38 459.5 218.33 459.63 218.09 459.76 217.93 459.8 217.9 459.81 217.9 460.1 217.87 460.19 217.88 460.23 217.91 460.37 218.02 460.43 218.06 460.48 218.04 460.58 217.94 460.63 217.89 460.68 217.95 460.75 217.99 460.82 218.01 461.1 218.04 461.16 218.03 461.18 217.97 461.2 217.89 461.22 217.7 461.28 217.52 461.5 217.38 461.57 217.25 461.58 217.15 461.65 217.08 461.8 216.97 461.83 216.91 461.85 216.87 461.87 216.82 461.91 216.79 461.93 216.77 462.02 216.75 462.12 216.71 462.18 216.66 462.22 216.63 462.31 216.6 462.4 216.66 Z" id="Belarus" transform="translate(-451.3500061035156,-216.60000610351562) "/></svg>