<svg xmlns="http://www.w3.org/2000/svg" viewBox="0 0 8.540008544921875 6.9499969482421875"><path d="M 413.29 236.7 413.29 236.71 413.28 236.72 413.28 236.72 413.29 236.73 413.32 236.75 413.33 236.78 413.32 236.82 413.33 236.85 413.35 236.85 413.44 236.83 413.48 236.83 413.52 236.87 413.66 237.08 413.63 237.1 413.65 237.15 413.7 237.17 413.85 237.18 413.86 237.2 413.84 237.23 413.82 237.26 413.82 237.27 413.77 237.3 413.7 237.36 413.66 237.42 413.69 237.47 413.68 237.5 413.68 237.51 413.7 237.52 413.72 237.52 413.7 237.55 413.72 237.57 413.74 237.61 413.76 237.62 413.78 237.62 413.86 237.6 413.86 237.59 413.87 237.59 413.87 237.59 413.88 237.6 413.91 237.61 414.01 237.64 414.05 237.64 414.02 237.66 414.02 237.69 414.02 237.72 414.04 237.76 414.05 237.79 414.07 237.79 414.08 237.8 414.08 237.86 414.06 237.94 414.05 237.99 414.05 238.03 414.13 238.16 414.13 238.19 414.13 238.21 414.1 238.24 414.04 238.25 414.01 238.25 413.99 238.24 413.96 238.24 413.93 238.25 413.91 238.28 413.9 238.31 413.89 238.35 413.9 238.38 413.86 238.42 413.77 238.44 413.72 238.46 413.7 238.5 413.65 238.53 413.63 238.56 413.66 238.6 413.67 238.64 413.67 238.67 413.65 238.71 413.64 238.72 413.59 238.72 413.57 238.73 413.57 238.74 413.56 238.78 413.56 238.8 413.58 238.82 413.59 238.84 413.58 238.86 413.56 238.89 413.53 238.87 413.52 238.84 413.52 238.81 413.52 238.78 413.49 238.75 413.47 238.75 413.46 238.77 413.44 238.78 413.39 238.79 413.36 238.79 413.35 238.78 413.33 238.77 413.32 238.75 413.31 238.71 413.3 238.7 413.26 238.73 413.21 238.73 413.2 238.76 413.19 238.81 413.17 238.86 413.14 238.89 413.05 238.93 413.02 238.97 413.01 238.99 413 239.05 413 239.07 412.99 239.09 412.95 239.12 412.94 239.14 412.94 239.18 412.94 239.21 412.94 239.24 412.92 239.25 412.88 239.27 412.86 239.29 412.86 239.34 412.88 239.36 412.88 239.38 412.86 239.43 412.84 239.44 412.81 239.45 412.79 239.46 412.78 239.48 412.77 239.5 412.76 239.52 412.75 239.54 412.68 239.67 412.67 239.71 412.69 239.72 412.74 239.76 412.76 239.79 412.71 239.78 412.71 239.8 412.7 239.81 412.7 239.82 412.69 239.83 412.72 239.85 412.69 239.87 412.68 239.9 412.68 239.94 412.7 239.99 412.72 240.03 412.74 240.04 412.77 240.04 412.79 240.06 412.81 240.08 412.86 240.18 412.86 240.2 412.87 240.25 412.87 240.25 412.88 240.27 412.91 240.28 412.93 240.28 412.94 240.28 412.95 240.28 412.97 240.28 412.98 240.3 412.98 240.31 412.98 240.33 412.98 240.34 412.96 240.35 412.96 240.37 412.96 240.39 412.95 240.41 412.95 240.42 412.96 240.44 412.97 240.45 413.02 240.46 413.03 240.47 413.05 240.52 413.03 240.55 413.01 240.57 412.99 240.59 412.97 240.67 412.95 240.71 412.92 240.73 412.96 240.75 412.94 240.8 412.89 240.86 412.84 240.88 412.81 240.88 412.76 240.85 412.74 240.84 412.71 240.86 412.69 240.89 412.66 240.9 412.61 240.9 412.56 240.87 412.51 240.86 412.46 240.89 412.43 240.93 412.43 240.95 412.42 240.96 412.39 240.97 412.37 240.96 412.3 240.93 412.26 240.95 412.2 240.99 412.14 241.03 412.09 241.01 412.08 240.98 412.08 240.95 412.09 240.92 412.09 240.89 412.08 240.86 411.97 240.66 411.95 240.64 411.93 240.62 411.86 240.6 411.84 240.58 411.83 240.58 411.82 240.59 411.81 240.61 411.8 240.63 411.78 240.63 411.74 240.63 411.73 240.61 411.73 240.58 411.73 240.53 411.75 240.52 411.76 240.51 411.75 240.46 411.7 240.4 411.66 240.36 411.61 240.36 411.51 240.39 411.46 240.37 411.42 240.34 411.39 240.31 411.29 240.17 411.26 240.15 411.19 240.13 411.14 240.1 411.06 240.02 411.02 240 411.01 240 410.97 240 410.88 240.03 410.83 240.04 410.77 240.03 410.75 240.01 410.75 239.88 410.74 239.86 410.72 239.82 410.72 239.81 410.72 239.78 410.74 239.76 410.75 239.74 410.76 239.7 410.77 239.67 410.78 239.64 410.77 239.6 410.74 239.54 410.63 239.49 410.6 239.44 410.61 239.39 410.7 239.18 410.7 239.14 410.7 239.11 410.7 239.08 410.74 238.99 410.76 238.99 410.78 239.01 410.78 238.95 410.8 238.88 410.8 238.82 410.78 238.79 410.71 238.81 410.68 238.8 410.67 238.75 410.61 238.77 410.38 239.01 410.37 239.04 410.36 239.07 410.36 239.09 410.37 239.11 410.38 239.13 410.36 239.24 410.34 239.3 410.32 239.34 410.3 239.35 410.21 239.37 409.9 239.52 409.83 239.53 409.81 239.53 409.48 239.44 409.35 239.46 409.31 239.46 409.28 239.45 409.16 239.39 409.16 239.39 409.18 239.39 409.17 239.34 409.16 239.29 409.15 239.28 409.16 239.24 409.17 239.21 409.19 239.2 409.23 239.16 409.28 239.12 409.33 239.09 409.33 239.07 409.32 239.04 409.3 239.01 409.27 238.86 409.24 238.85 409.22 238.86 409.18 238.88 409.15 238.86 409.15 238.8 409.19 238.66 409.21 238.6 409.22 238.57 409.24 238.53 409.29 238.49 409.31 238.47 409.32 238.43 409.3 238.41 409.28 238.39 409.25 238.37 409.23 238.36 409.2 238.37 409.2 238.39 409.2 238.42 409.19 238.43 409.14 238.41 409.08 238.28 409.04 238.24 408.99 238.22 408.92 238.13 408.87 238.11 408.83 238.12 408.69 238.18 408.64 238.18 408.6 238.16 408.56 238.13 408.51 238.11 408.42 238.1 408.32 238.11 408.29 238.12 408.28 238.14 408.24 238.21 408.23 238.23 408.22 238.24 408.21 238.25 408.21 238.25 408.2 238.25 408.19 238.27 408.12 238.2 408.1 238.06 408.1 237.9 408.08 237.76 408.04 237.7 408 237.65 407.95 237.63 407.9 237.62 407.76 237.62 407.73 237.6 407.75 237.56 407.75 237.53 407.74 237.51 407.71 237.5 407.68 237.51 407.65 237.52 407.63 237.54 407.6 237.57 407.5 237.6 407.45 237.61 407.41 237.6 407.31 237.55 407.29 237.52 407.25 237.48 407.24 237.44 407.24 237.33 407.18 237.13 407.16 237.03 407.19 236.97 407.17 236.89 407.15 236.86 407.12 236.85 407.09 236.84 407.07 236.82 407.04 236.76 407.01 236.7 407.01 236.7 406.97 236.64 406.94 236.6 406.88 236.58 406.7 236.64 406.59 236.68 406.54 236.71 406.5 236.75 406.43 236.87 406.4 236.89 406.36 236.88 406.35 236.88 406.18 236.8 406.14 236.76 406.12 236.74 406.09 236.67 406.08 236.65 406 236.57 405.99 236.54 405.98 236.52 405.97 236.5 405.94 236.48 405.92 236.48 405.88 236.48 405.86 236.48 405.82 236.48 405.81 236.47 405.8 236.45 405.78 236.41 405.77 236.39 405.74 236.38 405.73 236.37 405.74 236.35 405.75 236.31 405.76 236.29 405.71 236.14 405.73 236.11 405.78 236.05 405.79 236.03 405.78 235.96 405.75 235.91 405.67 235.82 405.65 235.76 405.62 235.6 405.59 235.52 405.63 235.49 405.72 235.46 406.02 235.23 406.48 234.96 406.93 234.67 407.42 234.5 407.42 234.5 407.44 234.64 407.43 234.73 407.43 234.81 407.46 234.9 407.52 234.96 407.53 234.97 407.59 234.99 407.66 235 407.76 234.98 407.77 234.95 407.76 234.9 407.77 234.86 407.79 234.84 407.82 234.83 407.86 234.83 407.95 234.81 408 234.8 408.06 234.81 408.33 234.9 408.37 234.93 408.38 234.98 408.38 235.02 408.38 235.05 408.42 235.09 408.44 235.1 408.7 235.1 408.75 235.09 408.86 235.01 409.13 234.87 409.24 234.78 409.33 234.66 409.34 234.63 409.36 234.54 409.36 234.53 409.36 234.53 409.36 234.53 409.4 234.57 409.42 234.61 409.43 234.67 409.47 234.71 409.51 234.75 409.54 234.78 409.55 234.81 409.55 234.83 409.54 234.85 409.53 234.88 409.52 234.88 409.55 234.87 409.57 234.85 409.6 234.78 409.53 234.75 409.51 234.74 409.5 234.71 409.5 234.63 409.49 234.59 409.48 234.56 409.45 234.52 409.45 234.52 409.49 234.53 409.51 234.53 409.59 234.57 409.63 234.59 409.74 234.59 409.78 234.57 409.79 234.51 409.78 234.47 409.73 234.41 409.71 234.38 409.71 234.35 409.72 234.32 409.73 234.29 409.7 234.26 409.82 234.2 409.94 234.15 410 234.14 410.03 234.15 410.05 234.18 410.05 234.24 410.03 234.28 410.02 234.31 410.07 234.35 410.09 234.35 410.16 234.34 410.23 234.35 410.26 234.35 410.29 234.34 410.32 234.32 410.49 234.11 410.56 234.08 410.59 234.08 410.63 234.09 410.67 234.12 410.69 234.15 410.7 234.2 410.68 234.25 410.67 234.31 410.69 234.37 410.59 234.32 410.57 234.33 410.56 234.37 410.6 234.39 410.76 234.39 410.8 234.41 410.88 234.45 410.93 234.43 410.99 234.38 411.04 234.31 411.07 234.25 411.09 234.21 411.1 234.17 411.11 234.15 411.14 234.14 411.15 234.15 411.22 234.2 411.26 234.28 411.25 234.34 411.23 234.4 411.22 234.47 411.23 234.51 411.31 234.59 411.32 234.62 411.35 234.7 411.36 234.72 411.39 234.74 411.48 234.74 411.52 234.74 411.56 234.79 411.56 234.92 411.6 234.93 411.61 234.92 411.68 234.91 411.95 234.92 411.99 234.9 412.09 234.83 412.13 234.81 412.18 234.82 412.23 234.85 412.27 234.9 412.29 234.97 412.29 235.05 412.31 235.06 412.34 235.1 412.47 235.13 412.5 235.16 412.52 235.18 412.54 235.2 412.58 235.2 412.68 235.18 412.7 235.18 412.74 235.2 412.79 235.27 412.82 235.29 412.88 235.27 412.92 235.28 412.94 235.32 412.95 235.34 412.92 235.37 412.91 235.41 412.96 235.46 412.94 235.48 412.92 235.49 412.89 235.49 412.87 235.49 412.87 235.51 412.88 235.52 412.88 235.54 412.87 235.59 412.85 235.61 412.84 235.63 412.81 235.61 412.79 235.62 412.78 235.66 412.78 235.7 412.81 235.74 412.77 235.83 412.68 235.97 412.73 235.96 412.76 235.96 412.78 235.97 412.75 236.01 412.71 236.09 412.68 236.14 412.67 236.15 412.65 236.15 412.62 236.16 412.46 236.34 412.47 236.42 412.5 236.48 412.54 236.5 412.55 236.51 412.6 236.53 412.64 236.54 412.63 236.58 412.61 236.66 412.65 236.69 412.67 236.69 412.7 236.69 412.71 236.67 412.73 236.64 412.75 236.62 412.77 236.63 412.82 236.68 412.84 236.69 413.03 236.69 413.06 236.7 413.06 236.7 413.08 236.71 413.24 236.71 413.29 236.7 Z" id="Belgium" transform="translate(-405.5899963378906,-234.0800018310547) "/></svg>