<svg xmlns="http://www.w3.org/2000/svg" viewBox="0 0 3.220001220703125 6.02001953125"><path d="M 205.37 328.24 205.37 328.3 205.35 328.3 205.35 328.27 205.35 328.26 205.34 328.27 205.33 328.28 205.33 328.28 205.32 328.3 205.32 328.16 205.32 328.1 205.29 328.07 205.32 328.05 205.35 328.09 205.38 328.2 205.37 328.22 205.37 328.24 Z M 204.76 327.81 204.78 327.84 204.78 327.86 204.77 327.87 204.77 327.89 204.76 327.91 204.75 327.9 204.74 327.89 204.74 327.84 204.74 327.83 204.72 327.83 204.7 327.82 204.69 327.81 204.68 327.79 204.67 327.79 204.67 327.77 204.69 327.76 204.72 327.78 204.76 327.81 Z M 205.4 327.74 205.41 327.79 205.41 327.82 205.36 327.91 205.33 327.95 205.31 327.99 205.28 328.01 205.23 327.98 205.21 328.02 205.18 328.04 205.15 328.07 205.14 328.12 205.13 328.23 205.12 328.24 205.11 328.27 205.1 328.3 205.1 328.33 205.06 328.3 205.07 328.29 205.08 328.28 205.08 328.27 205.08 328.26 205.09 328.22 205.11 328.13 205.12 328.02 205.13 327.99 205.16 327.96 205.2 327.93 205.25 327.89 205.27 327.88 205.3 327.9 205.33 327.9 205.35 327.88 205.37 327.84 205.37 327.79 205.35 327.76 205.33 327.78 205.31 327.79 205.29 327.79 205.29 327.77 205.32 327.71 205.34 327.71 205.37 327.72 205.4 327.74 Z M 204.84 327.69 204.82 327.69 204.81 327.67 204.79 327.62 204.76 327.49 204.79 327.52 204.81 327.57 204.84 327.69 Z M 204.63 327.42 204.56 327.43 204.56 327.42 204.57 327.41 204.58 327.39 204.62 327.37 204.75 327.29 204.78 327.28 204.76 327.35 204.7 327.4 204.63 327.42 Z M 205 326.49 204.97 326.5 204.97 326.48 204.98 326.46 205 326.45 205 326.45 205.01 326.44 205.02 326.45 205.02 326.48 205 326.49 Z M 205.06 326.44 205.04 326.46 205.04 326.46 205.03 326.44 205.03 326.44 205.03 326.43 205.04 326.42 205.06 326.41 205.06 326.4 205.06 326.39 205.07 326.39 205.07 326.4 205.07 326.42 205.06 326.44 Z M 205.27 326.3 205.27 326.35 205.24 326.38 205.22 326.4 205.18 326.53 205.16 326.57 205.14 326.56 205.13 326.55 205.12 326.58 205.11 326.59 205.1 326.61 205.08 326.62 205.08 326.63 205.1 326.67 205.12 326.63 205.12 326.62 205.13 326.6 205.14 326.6 205.12 326.7 205.08 326.79 205.01 326.86 204.91 326.89 204.91 326.87 204.94 326.87 204.94 326.87 205.02 326.81 205.05 326.77 205.06 326.71 205.03 326.71 205.04 326.64 205.08 326.5 205.08 326.49 205.09 326.48 205.11 326.47 205.11 326.45 205.11 326.43 205.14 326.31 205.17 326.29 205.2 326.3 205.25 326.27 205.27 326.3 Z M 205.21 326.19 205.21 326.2 205.2 326.23 205.18 326.25 205.17 326.24 205.18 326.2 205.18 326.19 205.19 326.19 205.19 326.19 205.19 326.18 205.19 326.18 205.2 326.18 205.2 326.18 205.21 326.18 205.21 326.19 Z M 204.26 325.54 204.26 325.55 204.3 325.59 204.25 325.64 204.08 325.77 204.07 325.8 204.09 325.84 204.12 325.84 204.23 325.79 204.22 325.83 204.2 325.86 204.15 325.93 204.13 325.95 204.14 325.96 204.16 325.96 204.18 325.94 204.21 325.9 204.29 325.85 204.32 325.83 204.36 325.82 204.41 325.83 204.47 325.86 204.5 325.87 204.55 325.86 204.62 325.82 204.69 325.79 204.72 325.79 204.73 325.8 204.73 325.83 204.71 325.85 204.67 325.89 204.62 325.91 204.61 325.92 204.61 325.94 204.62 325.95 204.64 325.94 204.66 325.91 204.68 325.9 204.7 325.89 204.72 325.89 204.73 325.9 204.75 326.17 204.73 326.39 204.72 326.42 204.69 326.48 204.69 326.51 204.6 326.73 204.56 326.75 204.56 326.75 204.47 326.93 204.49 326.99 204.46 327.19 204.4 327.38 204.39 327.42 204.33 327.48 204.31 327.53 204.3 327.58 204.31 327.63 204.33 327.66 204.41 327.7 204.43 327.73 204.45 327.75 204.54 327.77 204.56 327.79 204.54 327.83 204.48 327.83 204.42 327.82 204.4 327.85 204.39 327.88 204.36 327.99 204.3 328.19 204.28 328.42 204.28 328.47 204.27 328.56 204.28 328.61 204.29 328.65 204.29 328.66 204.29 328.68 204.31 328.73 204.31 328.76 204.34 328.77 204.38 328.79 204.41 328.82 204.43 328.87 204.44 328.92 204.44 328.99 204.46 329.05 204.45 329.07 204.44 329.08 204.42 329.08 204.4 329.09 204.37 329.11 204.34 329.14 204.32 329.18 204.31 329.22 204.32 329.26 204.36 329.33 204.37 329.37 204.37 329.37 204.38 329.38 204.38 329.39 204.38 329.4 204.37 329.4 204.34 329.4 204.34 329.4 204.31 329.42 204.3 329.44 204.29 329.46 204.29 329.47 204.28 329.48 204.26 329.5 204.26 329.52 204.26 329.55 204.27 329.58 204.28 329.61 204.25 329.77 204.24 329.79 204.22 329.81 204.2 329.84 204.17 329.94 204.16 329.96 204.15 330.01 204.17 330.06 204.16 330.08 204.14 330.1 204.13 330.11 204.12 330.07 204.19 329.81 204.23 329.77 204.24 329.75 204.18 329.78 204.13 329.93 204.08 329.98 204.09 329.99 204.12 330 204.11 330.01 204.1 330.01 204.08 330.01 204.06 330 204.07 330.02 204.07 330.03 204.08 330.03 204.11 330.03 204.11 330.05 204.08 330.06 204.07 330.09 204.06 330.11 204.07 330.13 204.08 330.14 204.04 330.17 203.99 330.26 203.95 330.28 203.94 330.3 203.94 330.35 203.94 330.36 203.93 330.37 203.92 330.37 203.91 330.37 203.91 330.36 203.89 330.37 203.89 330.38 203.89 330.38 203.88 330.39 203.85 330.46 203.84 330.47 203.82 330.48 203.77 330.56 203.76 330.57 203.75 330.6 203.74 330.61 203.74 330.62 203.75 330.64 203.74 330.64 203.74 330.65 203.72 330.64 203.71 330.64 203.7 330.65 203.68 330.66 203.67 330.66 203.66 330.67 203.65 330.71 203.65 330.61 203.64 330.61 203.62 330.66 203.59 330.67 203.56 330.65 203.55 330.62 203.54 330.61 203.52 330.61 203.5 330.61 203.49 330.61 203.49 330.62 203.49 330.66 203.48 330.68 203.47 330.68 203.39 330.69 203.38 330.7 203.37 330.71 203.35 330.72 203.32 330.72 203.29 330.74 203.28 330.77 203.29 330.86 203.28 330.91 203.26 330.95 203.23 330.97 203.19 330.97 203.18 330.98 203.17 331 203.15 331.01 203.14 331.05 203.13 331.06 203.11 331.07 203.09 331.08 203.07 331.11 203.05 331.12 203.04 331.13 203.04 331.16 203.04 331.18 203.04 331.2 202.98 331.22 202.94 331.24 202.9 331.27 202.88 331.3 202.87 331.36 202.92 331.46 202.91 331.51 202.82 331.54 202.63 331.49 202.56 331.49 202.49 331.5 202.32 331.49 202.28 331.51 202.26 331.51 202.24 331.52 202.22 331.53 202.21 331.54 202.19 331.51 202.19 331.48 202.2 331.37 202.25 330.84 202.29 330.37 202.31 330.13 202.35 329.48 202.39 328.89 202.38 328.23 202.37 327.59 202.36 327.09 202.36 326.89 202.38 326.8 202.42 326.73 202.61 326.66 202.65 326.68 202.69 326.71 202.72 326.75 202.76 326.78 202.79 326.78 202.81 326.78 202.83 326.78 202.86 326.85 202.89 326.87 202.98 326.92 203 326.91 203.02 326.89 203.03 326.84 203.04 326.83 203.15 326.74 203.17 326.72 203.2 326.63 203.21 326.61 203.24 326.58 203.27 326.56 203.3 326.54 203.32 326.51 203.33 326.48 203.34 326.43 203.34 326.41 203.4 326.31 203.4 326.29 203.4 326.25 203.39 326.25 203.45 326.2 203.52 326.17 203.54 326.15 203.57 326.12 203.57 326.09 203.57 326.08 203.58 326.04 203.59 326 203.61 325.97 203.68 325.89 203.7 325.84 203.71 325.82 203.72 325.76 203.74 325.7 203.75 325.63 203.76 325.61 203.78 325.59 203.85 325.54 203.87 325.54 203.89 325.55 203.91 325.56 203.93 325.55 203.98 325.54 204 325.53 204.02 325.52 204.03 325.53 204.05 325.55 204.07 325.56 204.08 325.56 204.09 325.55 204.11 325.54 204.25 325.54 204.26 325.54 Z" fill-rule="evenodd" id="Belize" transform="translate(-202.19000244140625,-325.5199890136719) "/></svg>