<svg xmlns="http://www.w3.org/2000/svg" viewBox="0 0 6.83001708984375 13.79998779296875"><path d="M 407.97 341.03 407.92 341.08 407.77 341.34 407.74 341.44 407.73 341.48 407.68 341.6 407.69 341.65 407.72 341.71 408.12 342.27 408.17 342.32 408.19 342.32 408.21 342.32 408.21 342.32 408.23 342.32 408.25 342.34 408.23 342.43 408.23 342.47 408.24 342.52 408.25 342.56 408.28 342.6 408.28 342.6 408.32 342.8 408.32 342.87 408.27 342.98 408.27 343.02 408.28 343.05 408.3 343.07 408.32 343.08 408.33 343.1 408.34 343.13 408.37 343.2 408.39 343.23 408.41 343.23 408.45 343.24 408.47 343.26 408.49 343.3 408.51 343.36 408.51 343.42 408.51 343.49 408.49 343.55 408.43 343.66 408.41 343.72 408.41 343.84 408.4 343.88 408.36 343.92 408.33 343.92 408.19 343.85 408.14 343.84 408.1 343.86 408.05 343.9 408.04 343.92 408.03 343.93 408.03 343.98 408.02 344 407.96 344.09 407.92 344.19 407.92 344.23 407.95 344.28 408.1 344.44 408.12 344.47 408.13 344.5 408.12 344.54 408.12 344.56 408.1 344.6 408.07 344.62 408.04 344.64 408.01 344.67 407.99 344.71 407.98 344.9 407.96 344.94 407.89 345.03 407.83 345.14 407.79 345.17 407.65 345.16 407.57 345.18 407.41 345.25 407.37 345.27 407.35 345.32 407.35 345.37 407.36 345.41 407.38 345.48 407.4 345.55 407.39 345.61 407.31 345.65 407.27 345.65 407.23 345.64 407.19 345.65 407.18 345.7 407.18 345.72 407.19 345.75 407.19 345.76 407.05 345.93 407.04 345.95 407 345.96 406.99 345.97 406.94 346.04 406.94 346.1 406.95 346.17 406.98 346.24 406.99 346.27 406.99 346.42 406.97 346.46 406.93 346.55 406.85 346.78 406.82 346.85 406.76 346.89 406.61 346.93 406.59 346.93 406.56 346.92 406.54 346.9 406.52 346.89 406.49 346.89 406.43 346.89 406.4 346.89 406.38 346.91 406.36 346.93 406.34 346.94 406.31 346.95 406.14 346.93 406.15 346.99 406.14 347.14 406.13 347.2 406.12 347.21 406.1 347.25 406.09 347.25 406.09 347.27 406.1 347.27 406.12 347.28 406.12 347.29 406.12 347.33 406.1 347.39 406.09 347.43 406.09 347.45 406.1 347.48 406.1 347.5 406.09 347.51 406.05 347.53 406.04 347.55 406.04 347.57 406.04 347.57 406.08 348.11 406.08 348.18 406.07 348.25 406.05 348.28 406.01 348.33 405.99 348.36 405.99 348.38 406 348.42 406 348.44 405.98 348.53 405.98 348.57 405.99 348.63 406 348.68 406.05 348.77 406.06 348.82 406.06 348.87 406.04 348.91 406.02 348.94 406 348.98 406 349.02 405.99 349.15 405.96 349.3 405.96 349.44 405.95 349.46 405.93 349.5 405.92 349.51 405.92 349.52 405.92 349.53 405.94 349.56 405.97 349.62 406.02 349.68 406.04 349.71 406.05 349.75 406.02 350.05 406.02 350.12 406.03 350.21 406.08 350.29 406.14 350.37 406.19 350.45 406.18 350.54 406.18 350.56 406.18 350.57 406.17 350.58 406.12 350.57 406.1 350.57 406.08 350.58 406.08 350.6 406.12 351.15 406.12 351.18 406.11 351.2 406.1 351.22 406.08 351.26 406.07 351.28 406.06 351.29 406.07 351.32 406.09 351.35 406.15 351.4 406.16 351.42 406.15 351.44 406.13 351.45 406.1 351.46 406.08 351.47 406.02 351.55 406.03 351.63 406.06 351.72 406.07 351.81 406.04 351.9 406.04 351.95 406.05 352 406.07 352.02 406.08 352.03 406.11 352.04 406.13 352.04 406.15 352.05 406.15 352.07 406.16 352.18 406.15 352.2 406.12 352.22 406.08 352.25 406.05 352.3 406.05 352.35 406.07 352.44 406.07 352.49 406.03 352.61 406.02 352.63 406.01 352.67 405.99 352.77 405.99 352.91 405.99 352.91 405.11 352.99 404.94 353.03 404.18 353.11 403.59 353.25 403.57 353.2 403.62 353.18 403.9 353.11 403.95 353.11 403.91 352.95 403.87 352.78 403.81 352.69 403.79 352.67 403.74 352.65 403.73 352.64 403.72 352.62 403.73 352.57 403.73 352.55 403.71 352.53 403.67 352.5 403.67 352.48 403.67 352.46 403.65 352.45 403.63 352.46 403.61 352.45 403.59 352.44 403.57 352.43 403.55 352.41 403.54 352.39 403.53 352.37 403.54 352.35 403.54 352.33 403.54 352.31 403.51 352.27 403.49 352.25 403.47 352.22 403.49 352.17 403.52 352.13 403.54 352.1 403.55 352.07 403.54 352.02 403.52 351.97 403.51 351.93 403.51 351.89 403.52 351.8 403.52 351.77 403.5 351.75 403.47 351.72 403.46 351.72 403.44 351.68 403.4 351.53 403.56 351.53 403.6 351.51 403.6 351.19 403.6 350.87 403.6 350.54 403.6 350.32 403.6 350.13 403.6 350.09 403.6 349.65 403.59 349.3 403.6 348.94 403.6 348.69 403.58 348.5 403.57 348.47 403.56 348.47 403.56 348.47 403.55 348.46 403.56 348.41 403.56 348.37 403.56 348.35 403.64 348.23 403.64 348.19 403.64 348.17 403.58 348.1 403.57 348.07 403.56 348.04 403.56 347.98 403.56 347.68 403.56 347.47 403.55 347.23 403.55 346.95 403.54 346.89 403.52 346.84 403.47 346.76 403.34 346.61 403.16 346.43 403.15 346.41 403.11 346.35 403.07 346.26 403.06 346.03 403.03 345.97 403 345.99 402.96 345.95 402.94 345.9 402.93 345.85 402.94 345.82 402.98 345.76 403 345.73 403 345.71 403 345.67 403 345.64 403.01 345.62 402.99 345.51 402.99 345.34 402.98 345.1 402.98 344.93 402.98 344.91 402.95 344.84 402.72 344.68 402.4 344.47 402.21 344.35 402.08 344.26 401.87 344.12 401.7 344.01 401.69 343.98 401.68 343.92 401.72 343.69 401.75 343.57 401.75 343.48 401.73 343.28 401.76 343.2 401.88 343.09 401.91 343.05 401.92 343.03 401.92 342.97 401.93 342.95 401.96 342.88 401.96 342.86 401.94 342.81 401.94 342.79 401.94 342.75 402 342.61 402.07 342.64 402.1 342.65 402.14 342.65 402.14 342.64 402.15 342.61 402.15 342.58 402.14 342.57 402.12 342.56 402.11 342.54 402.11 342.52 402.11 342.5 402.12 342.49 402.14 342.46 402.15 342.44 402.17 342.42 402.18 342.41 402.19 342.42 402.23 342.42 402.25 342.43 402.26 342.44 402.27 342.45 402.28 342.45 402.29 342.48 402.29 342.48 402.31 342.48 402.33 342.47 402.34 342.47 402.41 342.47 402.43 342.48 402.44 342.49 402.45 342.51 402.47 342.53 402.48 342.52 402.48 342.48 402.45 342.46 402.44 342.43 402.44 342.41 402.44 342.38 402.43 342.36 402.43 342.36 402.41 342.35 402.4 342.34 402.4 342.33 402.4 342.3 402.4 342.3 402.38 342.29 402.37 342.3 402.36 342.31 402.35 342.27 402.37 342.27 402.44 342.25 402.45 342.24 402.47 342.2 402.48 342.19 402.5 342.19 402.54 342.21 402.57 342.22 402.56 342.18 402.55 342.1 402.51 342.04 402.52 342.01 402.54 341.99 402.56 341.95 402.58 341.97 402.6 341.99 402.6 342 402.62 342 402.63 342 402.64 341.99 402.66 341.99 402.7 341.99 402.74 342 402.81 342.04 402.84 341.98 402.84 341.97 402.84 341.94 402.82 341.92 402.81 341.9 402.82 341.88 402.85 341.89 402.87 341.92 402.89 341.94 402.9 341.92 402.92 341.92 402.93 341.92 402.95 341.94 402.99 341.91 402.98 341.88 402.96 341.85 402.95 341.81 402.97 341.77 403.01 341.74 403.06 341.72 403.1 341.7 403.08 341.65 403.08 341.63 403.1 341.6 403.13 341.58 403.15 341.57 403.16 341.57 403.18 341.56 403.19 341.53 403.23 341.55 403.27 341.56 403.48 341.57 403.47 341.59 403.47 341.62 403.47 341.64 403.5 341.63 403.55 341.72 403.59 341.7 403.63 341.68 403.73 341.66 403.78 341.64 403.81 341.63 403.91 341.64 403.95 341.64 404.04 341.6 404.08 341.59 404.12 341.6 404.14 341.59 404.17 341.59 404.22 341.62 404.32 341.66 404.4 341.66 404.46 341.63 404.47 341.62 404.76 341.33 404.92 341.19 405.04 341.13 405.07 341.1 405.08 341.08 405.08 341.05 405.08 341.01 405.1 340.95 405.19 340.85 405.22 340.8 405.3 340.58 405.29 340.55 405.27 340.52 405.27 340.49 405.28 340.46 405.3 340.46 405.32 340.46 405.34 340.45 405.35 340.44 405.37 340.41 405.38 340.39 405.41 340.39 405.43 340.4 405.45 340.39 405.45 340.35 405.44 340.33 405.43 340.31 405.41 340.31 405.38 340.3 405.36 340.28 405.34 340.26 405.33 340.24 405.26 340.03 405.24 339.9 405.23 339.85 405.25 339.81 405.31 339.79 405.34 339.78 405.39 339.79 405.42 339.78 405.42 339.78 405.44 339.75 405.45 339.74 405.47 339.75 405.48 339.76 405.49 339.76 405.5 339.74 405.52 339.71 405.53 339.71 405.55 339.71 405.58 339.71 405.58 339.72 405.59 339.73 405.59 339.74 405.61 339.74 405.62 339.73 405.64 339.71 405.65 339.7 405.73 339.68 405.74 339.68 405.76 339.7 405.77 339.7 405.78 339.69 405.81 339.67 405.83 339.67 405.9 339.69 405.93 339.68 405.96 339.63 405.96 339.61 405.97 339.59 405.97 339.58 405.99 339.56 406.01 339.55 406.03 339.57 406.06 339.56 406.08 339.55 406.11 339.5 406.14 339.49 406.16 339.48 406.2 339.49 406.23 339.48 406.28 339.48 406.3 339.45 406.41 339.54 406.46 339.56 406.48 339.59 406.5 339.62 406.51 339.67 406.53 339.69 406.55 339.7 406.58 339.71 406.65 339.72 406.67 339.72 406.68 339.73 406.7 339.78 406.79 339.91 407.17 340.26 407.18 340.27 407.21 340.29 407.22 340.3 407.22 340.35 407.23 340.4 407.25 340.44 407.3 340.53 407.33 340.56 407.35 340.58 407.38 340.6 407.41 340.61 407.44 340.59 407.47 340.58 407.49 340.58 407.52 340.59 407.54 340.6 407.64 340.66 407.72 340.69 407.75 340.71 407.77 340.73 407.84 340.83 407.86 340.85 407.87 340.85 407.88 340.86 407.89 340.88 407.9 340.92 407.91 340.93 407.91 340.95 407.92 340.97 407.94 340.98 407.96 341.02 407.97 341.03 Z" id="Benin" transform="translate(-401.67999267578125,-339.45001220703125) "/></svg>