<svg xmlns="http://www.w3.org/2000/svg" viewBox="0 0 798 762"><path d="M 484.17 578.53 481.52 591.43 464.98 599.69 461.35 597.05 443.16 613.24 400.83 645.64 383.3 667.46 329.72 696.22 262.92 724.65 235.8 741.51 227.87 747.46 220.59 743.83 216.95 752.09 198.43 759.36 177.6 763 169.33 763 165.36 757.71 133.28 755.73 93.93 761.35 61.85 747.46 34.07 722.67 35.73 715.86 31.43 718.04 14.89 667.46 1 647.3 24.81 634.4 42.34 609.61 34.07 583.16 14.89 567.62 51.6 573.91 62.51 556.38 87.32 542.83 89.3 546.47 72.76 562 76.4 573.91 84.67 572.91 103.19 564.65 122.37 544.48 127 550.1 125.02 557.38 100.21 571.26 90.95 584.15 103.85 596.05 89.3 597.71 82.02 607.96 67.14 611.59 57.88 638.37 64.5 647.3 43.33 659.2 59.87 672.09 76.4 673.08 86.65 679.69 125.02 678.7 135.27 685.97 112.12 692.26 87.32 682.34 78.39 694.24 82.02 701.51 75.41 719.03 86.65 729.28 97.57 725.31 104.84 741.18 109.47 734.57 120.39 739.2 148.83 737.55 179.25 718.04 185.54 715.4 186.15 715.85 193.14 694.24 224.23 691.59 247.38 676.72 271.19 671.43 300.43 651.29 299.99 650.61 307.9 647.3 315.17 636.39 333.69 639.03 344.61 635.39 347.25 631.76 338.98 625.48 371.39 621.18 363.13 620.85 366.76 606.3 364.12 615.56 339.98 615.23 331.71 623.49 304.59 618.86 296.98 612.58 292.35 620.85 285.08 613.58 274.83 616.22 267.55 611.59 265.57 600.68 270.2 594.07 265.57 586.8 257.3 584.15 245.39 591.43 249.03 581.18 235.47 577.54 234.48 565.64 223.24 554.73 237.13 562 269.2 559.36 306.91 569.28 351.88 565.64 369.41 558.37 369.67 559.24 412.73 553.74 459.03 530.27 475.24 516.05 475.9 508.78 505 510.1 484.17 507.79 476.89 501.51 491.77 482 489.79 476.71 482.51 475.72 497.06 452.58 498.06 442.66 543.03 425.14 546.67 415.22 561.55 406.96 570.48 386.46 581.72 394.73 569.82 398.69 569.82 402.99 585.36 409.6 593.63 401.34 598.26 403.98 590.98 419.52 599.91 430.76 597.27 440.68 604.54 448.28 613.8 443.65 630.67 456.55 649.52 461.84 659.77 473.74 689.2 468.45 715.66 448.94 724.92 462.83 703.76 462.83 697.47 472.08 681.93 473.74 666.06 485.64 657.79 482.99 650.51 489.61 620.14 497.11 621.41 499.19 588.48 516.31 589.66 517.38 576.1 534.57 554.94 540.85 494.42 581.18 484.17 578.53 Z M 539.39 421.51 534.76 422.5 532.12 420.51 539.39 415.89 539.39 421.51 Z M 175.61 678.7 171.98 675.73 176.61 668.45 180.24 675.06 175.61 678.7 Z M 233.49 663.16 235.47 669.44 211.33 677.71 202.4 666.8 204.06 662.17 214.97 669.44 233.49 663.16 Z M 184.87 619.86 203.06 629.11 226.21 630.77 239.77 625.48 242.75 632.75 251.02 635.39 257.3 626.14 269.2 636.39 297.65 643.66 293.35 652.92 284.09 656.55 267.55 638.37 260.28 647.3 254.65 642.67 238.12 644.65 236.13 634.4 226.21 651.92 212.32 652.92 197.77 646.63 207.69 642.67 208.69 631.76 193.14 640.02 194.13 630.77 179.25 620.85 184.87 619.86 Z M 302.61 632.42 298.64 635.72 282.76 625.81 283.76 623.82 302.61 632.42 Z M 253.66 621.84 243.74 619.86 258.29 605.31 258.29 588.78 262.92 587.79 263.91 608.95 253.66 621.84 Z M 787.09 436.05 797.68 419.52 799 419.52 793.38 434.07 787.09 436.05 Z M 778.5 423.16 781.14 431.75 777.17 436.05 770.23 428.78 758.98 436.05 767.25 423.16 780.81 415.89 778.5 423.16 Z M 752.7 430.43 751.38 441.67 742.45 432.41 735.17 439.03 736.83 445.31 723.93 454.56 739.8 427.79 749.72 426.13 752.7 430.43 Z M 679.16 329.2 678.95 329.6 657.79 340.84 670.69 350.76 700.12 353.73 705.74 348.11 729.55 356.38 733.19 354.4 721.28 349.11 713.02 333.24 720.29 334.23 723.27 340.84 736.83 340.84 755.35 349.11 789.41 348.11 797.68 363.65 784.78 386.46 758.98 384.81 755.35 389.44 754.35 401.34 762.62 406.96 770.23 395.72 776.51 395.72 768.24 417.87 757 427.13 741.46 403.98 749.72 392.08 733.85 384.81 726.91 390.43 714.01 382.83 680.94 378.2 675.32 385.8 675.32 407.62 669.03 410.6 662.42 380.18 643.9 374.56 633.98 380.18 631.33 388.45 613.8 396.71 605.54 394.07 598.26 400.35 602.89 390.1 596.28 377.54 636.95 361.01 643.24 351.75 603.55 366.3 578.75 385.8 567.83 382.17 582.72 362.66 658.78 320.35 699.13 285.63 711.03 286.63 708.39 290.26 765.27 343.49 744.1 337.87 726.57 324.64 725.81 321.85 709.38 318.69 679.16 329.2 Z M 398.18 4.31 394.21 9.93 390.57 7.28 396.86 1 398.18 4.31 Z M 188.51 488.61 187.52 500.52 196.78 489.61 200.42 492.25 189.5 505.14 203.06 519.69 200.42 523.33 179.25 506.14 156.43 523.33 150.81 533.57 152.8 545.47 127.99 544.48 174.62 487.62 188.51 488.61 Z M 146.18 734.57 144.53 731.93 148.17 729.28 149.82 732.92 146.18 734.57 Z" fill-rule="evenodd" transform="translate(-1,-1) "/></svg>