<svg xmlns="http://www.w3.org/2000/svg" viewBox="0 0 7.45001220703125 4.1300048828125"><path d="M 603.12 303.29 603.11 303.39 603 303.54 602.99 303.63 603.04 303.82 603.06 303.85 603.12 303.9 603.14 303.94 603.17 303.98 603.22 304 603.28 304.01 603.33 304.03 603.33 304.03 603.37 304.08 603.37 304.12 603.38 304.14 603.44 304.13 603.62 304.07 603.68 304.06 603.76 304.07 603.79 304.06 603.85 304.01 603.88 304 603.93 304.06 604.12 304.42 604.13 304.45 604.11 304.49 604.05 304.55 604.01 304.58 604.01 304.61 604 304.65 603.99 304.68 603.98 304.7 603.95 304.73 603.95 304.73 603.94 304.74 603.92 304.78 603.91 304.82 603.91 304.87 603.91 304.91 603.93 304.99 604.04 305.1 604.08 305.18 604.08 305.18 604.12 305.33 604.11 305.36 604.09 305.45 604.01 305.53 603.88 305.55 603.84 305.53 603.77 305.47 603.73 305.45 603.7 305.46 603.7 305.5 603.7 305.53 603.65 305.56 603.68 305.59 603.68 305.63 603.66 305.66 603.63 305.65 603.61 305.62 603.6 305.58 603.59 305.54 603.55 305.52 603.48 305.53 603.34 305.62 603.27 305.66 603.17 305.67 603.13 305.67 603.03 305.64 602.99 305.64 602.91 305.67 602.87 305.67 602.84 305.64 602.79 305.53 602.77 305.5 602.74 305.49 602.65 305.49 602.62 305.49 602.58 305.52 602.55 305.56 602.54 305.6 602.51 305.65 602.48 305.68 602.45 305.7 602.41 305.72 602.37 305.73 602.33 305.73 602.3 305.72 602.23 305.68 602.16 305.66 602 305.66 601.92 305.65 601.85 305.65 601.75 305.7 601.73 305.71 601.59 305.72 601.09 305.75 600.8 305.71 600.55 305.58 600.35 305.44 600.27 305.43 600.23 305.44 600.2 305.47 600.17 305.5 600.13 305.52 600.09 305.54 600.01 305.53 599.97 305.54 599.89 305.59 599.84 305.73 599.78 305.78 599.7 305.81 599.45 305.83 599.31 305.87 599.26 305.87 599.23 305.87 599.19 305.86 599.19 305.86 599.17 305.85 599.16 305.85 599.14 305.83 599.13 305.83 599.12 305.84 599.12 305.86 599.12 305.87 599.12 305.87 599.12 305.88 599.11 305.89 599.11 305.91 599.1 305.92 599.09 305.92 599.07 305.91 599.06 305.91 598.97 305.91 598.96 305.91 598.92 305.9 598.8 305.85 598.75 305.85 598.68 305.88 598.64 305.88 598.61 305.86 598.64 305.79 598.64 305.75 598.58 305.7 598.49 305.67 598.4 305.66 598.27 305.67 598.19 305.63 598.1 305.57 598.04 305.53 597.95 305.55 597.92 305.55 597.89 305.56 597.87 305.57 597.84 305.6 597.82 305.62 597.76 305.63 597.69 305.64 597.57 305.63 597.5 305.61 597.47 305.58 597.45 305.53 597.42 305.46 597.38 305.42 597.33 305.39 597.28 305.36 597.23 305.36 597.21 305.38 597.18 305.39 597.16 305.38 597.13 305.37 597.12 305.35 597.12 305.32 597.12 305.3 597.12 305.27 597.08 305.22 597.03 305.22 596.99 305.26 596.95 305.31 596.94 305.18 596.94 305.18 596.94 305.05 596.93 304.98 596.9 304.93 596.85 304.89 596.71 304.82 596.69 304.8 596.68 304.8 596.7 304.73 596.74 304.64 596.79 304.57 596.84 304.54 596.98 304.5 597.01 304.48 597.03 304.46 597.04 304.39 597.1 304.35 597.17 304.36 597.22 304.4 597.28 304.35 597.24 304.29 597.2 304.2 597.17 304.1 597.19 304.04 597.21 303.99 597.25 303.95 597.24 303.94 597.23 303.91 597.22 303.89 597.24 303.86 597.27 303.84 597.29 303.81 597.29 303.78 597.32 303.74 597.36 303.73 597.37 303.7 597.4 303.66 597.43 303.64 597.49 303.62 597.51 303.62 597.52 303.63 597.53 303.63 597.55 303.64 597.56 303.65 597.57 303.61 597.63 303.52 597.72 303.36 597.76 303.26 597.78 303.16 597.86 303.12 597.95 303.07 598.03 303.01 598.1 302.91 598.21 302.71 598.22 302.7 598.22 302.7 598.27 302.61 598.3 302.57 598.34 302.53 598.38 302.52 598.42 302.48 598.53 302.35 598.57 302.32 598.61 302.31 598.87 302.26 598.96 302.23 599 302.15 599.01 302.11 599.05 302.09 599.12 302.04 599.14 302.02 599.18 301.97 599.2 301.95 599.22 301.93 599.24 301.94 599.31 301.9 599.39 301.92 599.44 301.89 599.48 301.88 599.66 301.82 599.77 301.85 599.84 301.88 599.89 301.87 599.94 301.81 600 301.79 600.08 301.85 600.08 301.94 600.15 302.03 600.23 302.05 600.28 301.94 600.36 301.94 600.42 301.98 600.51 301.98 600.62 302.06 600.72 302.07 600.8 302.1 600.82 302.19 600.76 302.21 600.72 302.29 600.64 302.3 600.58 302.37 600.55 302.51 600.59 302.5 600.63 302.5 600.78 302.52 600.82 302.51 600.88 302.5 600.94 302.47 600.98 302.46 601.02 302.47 601.11 302.53 601.17 302.55 601.25 302.57 601.39 302.58 601.52 302.6 601.63 302.7 601.66 302.73 601.74 302.77 601.83 302.78 601.92 302.76 601.98 302.7 601.98 302.7 601.98 302.7 602.01 302.65 602.11 302.54 602.15 302.51 602.21 302.5 602.26 302.51 602.31 302.5 602.36 302.46 602.4 302.54 602.47 302.61 602.65 302.7 602.68 302.71 602.71 302.72 602.74 302.72 602.82 302.73 602.91 302.76 603 302.77 603.05 302.79 603.09 302.81 603.13 302.84 603.16 302.89 603.16 302.94 603.13 302.99 603.11 303.05 603.11 303.11 603.12 303.29 Z" id="Bhutan" transform="translate(-596.6799926757812,-301.7900085449219) "/></svg>