<svg xmlns="http://www.w3.org/2000/svg" viewBox="0 0 27.04998779296875 30.4000244140625"><path d="M 261.66 396.1 261.67 396.1 261.7 396.12 261.72 396.13 261.82 396.14 261.85 396.14 261.88 396.12 261.92 396.14 261.96 396.13 261.99 396.11 262.08 396.09 262.1 396.09 262.12 396.09 262.18 396.13 262.18 396.08 262.21 396.09 262.26 396.15 262.28 396.16 262.3 396.15 262.31 396.15 262.32 396.19 262.32 396.34 262.32 396.38 262.35 396.41 262.39 396.44 262.49 396.55 262.52 396.57 262.53 396.58 262.56 396.63 262.57 396.64 262.62 396.66 262.66 396.69 262.77 396.79 262.79 396.81 262.83 396.83 262.85 396.85 262.86 396.86 262.9 397.02 262.93 397.04 262.98 397.05 263.02 397.04 263.07 397.02 263.11 397.01 263.15 397.03 263.2 397.01 263.25 396.99 263.3 396.97 263.46 396.96 263.47 396.96 263.48 396.96 263.54 397.02 263.56 397.03 263.67 397.05 263.77 397.04 263.86 397.01 264.01 396.93 264.05 396.93 264.08 396.95 264.16 396.96 264.21 396.99 264.23 397 264.26 397 264.31 396.99 264.45 396.99 264.47 396.98 264.49 396.93 264.52 396.91 264.61 396.9 264.62 396.89 264.65 396.87 264.68 396.87 264.69 396.89 264.69 396.98 264.73 397.03 264.83 397.04 264.94 397.05 265.01 397.07 265.05 397.11 265.07 397.12 265.22 397.18 265.39 397.31 265.55 397.44 265.63 397.48 265.68 397.49 265.7 397.5 265.7 397.51 265.72 397.54 265.73 397.55 265.75 397.56 265.91 397.6 265.95 397.62 265.97 397.66 265.97 397.72 265.99 397.79 266.01 397.84 266.03 397.89 266.05 397.91 266.09 397.95 266.1 397.97 266.09 397.99 266.1 398 266.12 398.01 266.14 398.02 266.14 398.04 266.14 398.05 266.12 398.1 266.09 398.2 266.07 398.25 266.03 398.29 265.98 398.3 265.96 398.31 265.95 398.35 265.94 398.4 265.94 398.45 265.95 398.48 265.98 398.53 265.98 398.59 265.97 398.65 265.97 398.71 265.99 398.75 266.11 398.85 266.13 398.89 266.17 399.03 266.24 399.19 266.25 399.29 266.18 399.31 266.22 399.39 266.33 399.46 266.35 399.51 266.36 399.65 266.37 399.84 266.38 400.02 266.39 400.21 266.4 400.4 266.4 400.54 266.39 400.57 266.14 400.57 265.71 400.58 265.83 400.68 265.98 400.86 266.22 401.15 266.42 401.39 266.45 401.44 266.47 401.5 266.5 401.84 266.54 402.3 266.57 402.64 266.59 402.89 266.6 403.15 266.64 403.25 266.71 403.26 266.87 403.27 267.29 403.29 267.71 403.3 268.13 403.32 268.55 403.33 268.98 403.35 269.4 403.36 269.82 403.38 270.24 403.39 270.4 403.4 270.45 403.39 270.5 403.37 270.52 403.35 270.55 403.29 270.56 403.28 270.66 403.28 270.68 403.3 270.69 403.52 270.68 403.56 270.63 403.6 270.63 403.64 270.67 403.72 270.64 403.81 270.42 404.06 270.39 404.13 270.37 404.21 270.38 404.31 270.42 404.48 270.43 404.57 270.42 404.59 270.4 404.63 270.4 404.65 270.4 404.68 270.42 404.79 270.46 404.86 270.47 404.9 270.49 405.06 270.5 405.1 270.52 405.14 270.53 405.19 270.54 405.39 270.55 405.48 270.59 405.55 270.67 405.6 270.74 405.61 270.76 405.61 270.79 405.63 270.83 405.66 270.85 405.67 270.87 405.68 270.9 405.68 270.92 405.69 270.95 405.73 270.98 405.8 271.02 405.83 271.05 405.84 271.07 405.84 271.1 405.85 271.12 405.87 271.19 405.93 271.21 405.95 271.29 405.99 271.31 406 271.41 406.08 271.47 406.11 271.56 406.13 271.64 406.13 271.71 406.12 271.76 406.11 271.8 406.11 271.84 406.13 271.88 406.17 271.9 406.22 271.9 406.27 271.9 406.33 271.9 406.37 271.9 406.45 271.91 406.5 271.93 406.54 271.95 406.57 271.98 406.6 272.01 406.62 272.04 406.63 272.03 406.71 272.03 406.73 272.07 406.78 272.11 406.84 272.1 406.88 272.03 406.89 272.24 407.25 272.35 407.53 272.43 407.67 272.52 407.72 272.56 407.72 272.6 407.73 272.62 407.75 272.62 407.8 272.46 407.8 272.42 407.81 272.39 407.84 272.36 407.95 272.25 408.28 272.15 408.61 272.05 408.95 271.94 409.28 271.92 409.36 272 409.37 272.03 409.38 272.04 409.43 272.05 409.57 272.06 409.67 271.94 409.68 271.9 409.7 271.85 409.81 271.78 409.96 271.63 410.27 271.48 410.59 271.41 410.73 271.41 410.73 271.41 410.73 271.41 410.73 271.38 410.79 271.32 410.92 271.26 411.05 271.23 411.11 271.16 411.27 271.17 411.34 271.34 411.49 271.52 411.65 271.74 411.86 271.72 411.89 271.7 411.92 271.66 411.96 271.62 411.98 271.56 411.97 271.52 411.96 271.51 411.98 271.5 412 271.49 412.01 271.47 412.03 271.44 412.03 271.38 412.06 271.31 412.16 271.26 412.18 271.24 412.19 271.22 412.23 271.2 412.24 271.18 412.26 271.08 412.29 271.08 412.23 271.11 412.1 271.12 412.06 271.11 411.96 271.12 411.9 271.11 411.83 271.07 411.7 271.07 411.62 271.08 411.54 271.07 411.51 271.04 411.48 270.96 411.43 270.75 411.3 270.54 411.17 270.34 411.05 270.13 410.92 269.92 410.79 269.72 410.66 269.51 410.53 269.3 410.41 269.19 410.34 269.13 410.29 269.06 410.25 269.02 410.23 268.84 410.24 268.42 410.24 268 410.25 267.59 410.25 267.17 410.26 266.99 410.26 266.65 410.33 265.9 410.5 265.15 410.66 264.4 410.82 263.65 410.98 263.6 410.99 263.5 411.01 263.39 411.02 263.35 411.03 263.15 411.06 263.11 411.07 263.1 411.1 263.05 411.22 262.99 411.39 262.93 411.56 262.87 411.73 262.8 411.9 262.8 411.9 262.78 411.97 262.75 412.03 262.73 412.06 262.72 412.09 262.69 412.15 262.65 412.2 262.62 412.26 262.58 412.31 262.54 412.37 262.44 412.51 262.34 412.66 262.25 412.8 262.15 412.94 262.1 413.01 262.05 413.08 261.97 413.2 261.95 413.26 261.95 413.48 261.96 413.69 261.96 413.91 261.96 414.26 261.96 414.26 261.96 414.41 261.88 414.65 261.81 414.9 261.73 415.16 261.65 415.44 261.58 415.69 261.47 416.03 261.39 416.3 261.3 416.62 261.24 416.84 261.18 417.06 261.13 417.18 261.11 417.17 261.1 417.16 261.1 417.13 261.09 417.11 261.06 417.08 260.97 417.02 260.86 416.97 260.83 416.93 260.81 416.89 260.81 416.82 260.8 416.79 260.8 416.77 260.8 416.74 260.79 416.65 260.78 416.63 260.75 416.62 260.66 416.61 260.33 416.62 260.33 416.62 259.63 416.62 258.93 416.62 258.85 416.63 258.81 416.65 258.71 416.74 258.68 416.73 258.59 416.65 258.55 416.63 258.34 416.62 258.28 416.63 258.25 416.64 258.24 416.65 258.24 416.66 258.22 416.71 258.21 416.76 258.2 416.78 258.19 416.8 258.17 416.81 258.15 416.81 258.14 416.82 258.12 416.86 258.09 416.99 258.02 417.17 258 417.19 257.96 417.22 257.94 417.24 257.78 417.67 257.72 417.74 257.61 417.85 257.58 417.91 257.48 418.27 257.48 418.44 257.46 418.49 257.41 418.67 257.41 418.7 257.37 418.68 257.36 418.57 257.34 418.54 257.35 418.48 257.34 418.41 257.32 418.36 257.27 418.34 257.24 418.32 257.18 418.19 257.16 418.17 257.14 418.17 257.13 418.15 257.12 418.12 257.12 418.09 257.13 418.04 257.14 418.02 257.15 417.99 257.16 417.97 257.18 417.95 257.18 417.91 257.06 417.79 257.03 417.75 257.02 417.69 257.01 417.68 256.97 417.65 256.96 417.63 256.96 417.61 256.97 417.56 256.97 417.54 256.94 417.51 256.89 417.48 256.87 417.44 256.89 417.38 256.92 417.35 256.93 417.32 256.93 417.28 256.91 417.23 256.89 417.2 256.83 417.13 256.81 417.11 256.77 417.1 256.72 417.08 256.68 417.05 256.63 417.04 256.61 417.03 256.59 417.04 256.55 417.05 256.53 417.06 256.44 417.04 256.29 416.95 255.87 416.85 255.49 416.86 254.9 416.86 254.79 416.85 254.63 416.83 254.61 416.83 254.6 416.84 254.59 416.85 254.57 416.86 254.27 416.89 254.2 416.87 254.13 416.83 253.85 416.49 253.8 416.46 253.6 416.43 253.59 416.41 253.56 416.3 253.49 416.23 253.39 416.18 253.21 416.12 253.17 416.13 253.06 416.52 253.04 416.74 253.03 416.78 253.02 416.8 253.01 416.81 253 416.8 252.98 416.81 252.96 416.82 252.94 416.84 252.93 416.86 252.92 416.88 252.86 416.92 252.57 417.01 252.31 417.08 252.3 417.09 252.3 417.11 252.29 417.12 252.28 417.13 252.24 417.11 252.2 417.11 252.17 417.1 252.15 417.1 252.12 417.11 252.07 417.16 252.04 417.2 252.02 417.26 252 417.44 251.98 417.49 251.95 417.53 251.95 417.55 251.96 417.61 251.96 417.64 251.93 417.66 251.69 417.73 251.63 417.77 251.58 417.81 251.56 417.85 251.53 417.87 251.5 417.87 251.45 417.87 251.41 417.87 251.43 418.09 251.42 418.14 251.4 418.18 251.23 418.31 251.17 418.39 251.05 418.58 250.35 418.73 250.27 418.75 250.12 418.76 249.77 418.74 249.7 418.72 249.69 418.7 249.64 418.62 249.63 418.63 249.54 418.61 249.52 418.57 249.51 418.51 249.51 418.33 249.58 417.97 249.58 417.92 249.51 417.79 249.49 417.67 249.47 417.62 249.39 417.46 249.37 417.42 249.37 417.37 249.41 417.22 249.41 417.17 249.39 417.12 249.33 417.03 249.32 417 249.33 416.98 249.35 416.94 249.36 416.92 249.35 416.87 249.33 416.81 249.29 416.76 249.24 416.73 249.14 416.62 249.08 416.58 249.06 416.55 249.05 416.51 249.03 416.12 248.98 415.94 248.84 415.69 248.83 415.61 248.84 415.03 248.81 414.93 248.34 414.16 248.31 414.12 248.26 414.11 248.17 414.12 248.14 414.11 248.09 414.08 248.04 414.05 248 413.95 248 413.65 248.01 413.59 248.05 413.54 248.2 413.41 248.2 413.37 248.14 413.32 248.08 413.29 247.97 413.22 247.75 413.12 247.7 413.08 247.65 413.03 247.6 412.96 247.57 412.89 247.56 412.82 247.59 412.76 247.64 412.72 247.76 412.67 247.68 412.52 247.65 412.44 247.65 412.35 247.66 412.28 247.66 412.26 247.58 412.24 247.52 412.2 247.51 412.15 247.55 412.11 247.82 412.03 247.89 412.02 247.92 412.03 247.94 412.04 247.96 412.03 247.98 412.01 247.99 411.99 248.01 411.9 248.01 411.86 248.06 411.75 248.07 411.72 248.06 411.7 248.05 411.69 248.04 411.66 248.04 411.59 248.04 411.57 248.02 411.54 248 411.52 247.93 411.49 247.89 411.47 247.83 411.39 247.72 411.31 247.7 411.28 247.71 411.24 247.74 411.19 247.83 411.11 247.87 411.06 247.99 410.88 248.09 410.73 248.09 410.73 248.14 410.67 248.17 410.64 248.26 410.6 248.27 410.58 248.26 410.54 248.22 410.49 248.17 410.45 247.94 410.27 247.86 410.24 247.8 410.2 247.72 410.07 247.67 410.01 247.46 409.83 247.39 409.78 247.28 409.74 247.25 409.72 247.23 409.69 247.18 409.57 247.13 409.5 247.11 409.46 247.07 409.44 247.14 409.35 247.16 409.31 247.16 409.26 247.15 409.23 247.03 408.97 247.03 408.97 247.03 408.97 247.03 408.97 247.04 408.94 247.05 408.91 247.04 408.87 247.03 408.84 246.98 408.75 246.96 408.64 246.96 408.52 246.97 408.41 246.97 408.35 246.96 408.31 246.88 408.17 246.87 408.13 246.87 408 246.87 407.98 246.84 407.89 246.84 407.86 246.84 407.84 246.83 407.79 246.8 407.75 246.74 407.68 246.71 407.57 246.77 407.5 246.85 407.44 246.87 407.34 246.87 407.33 246.85 407.3 246.82 407.3 246.78 407.31 246.74 407.32 246.7 407.3 246.66 407.29 246.6 407.25 246.55 407.23 246.53 407.23 246.51 407.21 246.47 407.16 246.43 407.17 246.41 407.19 246.38 407.19 246.35 407.13 246.33 407.05 246.32 406.88 246.31 406.79 246.25 406.69 246.17 406.6 246 406.44 245.95 406.37 245.93 406.28 245.92 406.1 245.92 406.1 245.92 405.94 245.92 405.85 245.89 405.79 245.86 405.74 245.82 405.7 245.73 405.63 245.69 405.61 245.58 405.6 245.57 405.6 245.61 405.54 245.65 405.41 245.67 405.36 245.68 405.36 245.72 405.35 245.73 405.35 245.85 405.24 245.92 405.19 245.98 405.17 246.04 405.16 246.1 405.13 246.15 405.08 246.16 405.04 246.15 405.03 246.13 405.02 246.13 405.01 246.13 404.99 246.15 404.97 246.24 404.91 246.27 404.88 246.33 404.76 246.55 404.52 246.58 404.47 246.63 404.34 246.65 404.31 246.68 404.29 246.76 404.28 246.8 404.27 246.93 404.2 246.97 404.18 247 404.13 247.03 404.09 246.97 404.01 246.96 403.97 246.97 403.9 246.96 403.77 246.97 403.72 246.99 403.68 247.05 403.61 247.12 403.57 247.37 403.47 247.42 403.39 247.4 403.33 247.35 403.3 247.23 403.25 247.14 403.15 247.09 403.12 247.03 403.14 246.96 403.12 246.93 403.12 246.91 403.12 246.86 403.16 246.84 403.17 246.78 403.17 246.73 403.15 246.68 403.12 246.64 403.09 246.56 402.99 246.51 402.86 246.42 402.63 246.32 402.39 246.23 402.16 246.14 401.92 246.11 401.85 246.1 401.78 246.12 401.71 246.26 401.5 246.27 401.45 246.28 401.41 246.29 401.36 246.32 401.32 246.34 401.31 246.4 401.29 246.42 401.28 246.42 401.26 246.39 401.19 246.4 401.15 246.44 401.11 246.48 401.07 246.56 401.04 246.59 400.95 246.63 400.95 246.68 400.96 246.72 400.93 246.72 400.89 246.67 400.83 246.61 400.76 246.58 400.72 246.45 400.62 246.41 400.59 246.28 400.39 246.25 400.36 246.2 400.31 246.18 400.27 246.19 400.23 246.23 400.14 246.23 400.13 246.23 399.94 246.23 399.9 246.25 399.87 246.3 399.84 246.42 399.81 246.46 399.79 246.49 399.72 246.5 399.43 246.53 399.38 246.57 399.38 246.62 399.39 246.67 399.39 246.69 399.37 246.68 399.26 246.69 399.22 246.7 399.21 246.74 399.2 246.75 399.19 246.84 399.09 246.88 399.06 247.03 398.98 247.07 398.94 247.06 398.89 247.03 398.85 247.01 398.81 247.01 398.72 247.02 398.68 247.03 398.64 247.08 398.6 247.16 398.58 247.31 398.56 247.35 398.51 247.34 398.43 247.29 398.28 247.27 398.2 247.26 398.17 247.24 398.14 247.12 398.06 247.09 398.02 247.07 397.94 247.07 397.86 247.07 397.78 247.03 397.73 247 397.64 247 397.61 247 397.57 247.01 397.55 247.01 397.52 246.99 397.49 246.87 397.39 246.82 397.32 246.86 397.27 246.88 397.27 246.95 397.28 246.98 397.28 247 397.25 247 397.22 246.99 397.2 247 397.17 247.02 397.14 247.06 397.09 247.08 397.06 247.1 397.01 247.11 396.95 247.11 396.9 247.13 396.46 247.1 396.28 247.1 396.19 247.11 395.92 247.11 395.89 247.08 395.66 247.08 395.57 247.09 395.52 247.16 395.46 247.19 395.41 247.21 395.37 247.26 395.37 247.29 395.31 247.32 395.26 247.37 395.23 247.55 395.18 247.57 395.16 247.62 395.06 247.6 395.04 247.53 395.02 247.51 394.99 247.51 394.96 247.53 394.92 247.56 394.9 247.63 394.86 247.66 394.83 247.68 394.8 247.7 394.77 247.71 394.72 247.73 394.7 247.75 394.69 247.74 394.67 247.68 394.57 247.45 394.17 247.22 393.76 246.99 393.35 246.76 392.94 246.53 392.54 246.3 392.13 246.06 391.72 245.83 391.32 245.83 391.3 245.82 391.29 245.81 391.28 245.8 391.26 245.79 391.25 245.79 391.23 245.78 391.22 245.77 391.21 245.94 391.21 246.02 391.2 246.17 391.17 246.25 391.18 246.32 391.2 246.4 391.21 246.53 391.21 246.7 391.23 246.78 391.25 246.86 391.24 246.89 391.25 247.06 391.32 247.07 391.32 247.09 391.32 247.1 391.32 247.15 391.31 247.25 391.34 247.31 391.35 247.36 391.34 247.42 391.31 247.48 391.3 247.55 391.32 247.59 391.34 247.55 391.39 247.53 391.45 247.51 391.5 247.52 391.6 247.53 391.62 247.55 391.63 247.59 391.63 247.9 391.57 247.96 391.53 248.08 391.45 248.17 391.42 248.21 391.41 248.25 391.41 248.29 391.42 248.32 391.41 248.39 391.35 248.43 391.32 248.53 391.31 248.57 391.3 248.62 391.27 248.66 391.22 248.7 391.18 248.73 391.13 248.78 391 248.82 390.95 248.94 390.82 249.02 390.67 249.05 390.64 249.1 390.6 249.17 390.57 249.21 390.56 249.24 390.55 249.31 390.56 249.57 390.55 249.6 390.55 249.64 390.56 249.68 390.59 249.77 390.66 249.81 390.67 249.88 390.65 249.92 390.59 249.94 390.51 249.97 390.44 249.99 390.42 250.06 390.36 250.09 390.33 250.13 390.26 250.15 390.23 250.19 390.2 250.23 390.18 250.31 390.14 250.4 390.11 250.45 390.09 250.48 390.05 250.52 390.01 250.53 389.98 250.53 389.96 250.53 389.95 250.56 389.93 250.58 389.92 250.67 389.92 250.7 389.92 250.72 389.91 250.74 389.89 250.74 389.87 250.73 389.82 250.73 389.8 250.77 389.79 250.82 389.78 250.91 389.78 250.95 389.78 251.04 389.81 251.07 389.81 251.1 389.79 251.12 389.76 251.13 389.74 251.15 389.72 251.17 389.71 251.22 389.71 251.24 389.71 251.34 389.65 251.7 389.28 251.99 389.06 252.03 389.04 252.21 388.97 252.24 388.95 252.25 388.93 252.25 388.91 252.26 388.89 252.28 388.87 252.3 388.86 252.56 388.82 252.7 388.83 252.74 388.82 252.78 388.8 252.88 388.75 252.91 388.74 253.13 388.71 253.17 388.69 253.24 388.65 253.28 388.63 253.4 388.62 253.41 388.62 253.42 388.63 253.43 388.64 253.44 388.64 253.45 388.63 253.46 388.61 253.47 388.6 253.51 388.59 253.52 388.6 253.55 388.61 253.61 388.64 253.63 388.65 253.68 388.64 253.78 388.58 253.82 388.56 253.86 388.56 253.89 388.56 253.98 388.59 254 388.59 254.03 388.57 254.07 388.53 254.07 388.55 254.08 388.57 254.09 388.59 254.11 388.6 254.13 388.59 254.14 388.57 254.13 388.55 254.14 388.53 254.16 388.49 254.17 388.48 254.18 388.51 254.19 388.53 254.19 388.55 254.2 388.56 254.22 388.57 254.31 388.53 254.34 388.53 254.33 388.58 254.33 388.61 254.34 388.61 254.35 388.61 254.37 388.61 254.38 388.61 254.4 388.61 254.41 388.6 254.43 388.61 254.45 388.63 254.46 388.64 254.52 388.69 254.55 388.7 254.6 388.71 254.62 388.71 254.63 388.7 254.64 388.69 254.65 388.67 254.65 388.66 254.65 388.64 254.66 388.63 254.67 388.63 254.7 388.62 254.7 388.62 254.73 388.59 254.75 388.56 254.76 388.54 254.77 388.5 254.78 388.48 254.89 388.4 254.92 388.36 254.94 388.36 254.99 388.36 255.03 388.37 255.1 388.43 255.13 388.5 255.13 388.5 255.16 388.6 255.18 388.63 255.21 388.66 255.24 388.68 255.25 388.72 255.24 388.77 255.2 388.86 255.18 388.91 255.17 389 255.18 389.09 255.2 389.18 255.24 389.29 255.25 389.34 255.25 389.44 255.26 389.46 255.28 389.51 255.29 389.54 255.28 389.56 255.24 389.62 255.22 389.73 255.19 389.78 255.11 389.82 255.08 389.86 255.05 389.91 255.04 389.95 255.04 389.95 255.05 389.97 255.05 389.98 255.06 389.98 255.01 390.08 254.97 390.11 254.92 390.12 254.92 390.14 254.95 390.18 254.95 390.19 254.95 390.2 254.94 390.22 254.94 390.24 254.94 390.26 254.94 390.28 254.95 390.3 254.96 390.31 254.97 390.33 254.95 390.44 254.95 390.47 254.99 390.52 255.03 390.54 255.06 390.57 255.07 390.64 255.07 390.68 255.05 390.76 255.02 390.86 255.03 390.89 255.12 390.92 255.16 390.94 255.19 390.98 255.21 391.01 255.22 391.2 255.23 391.22 255.24 391.23 255.25 391.25 255.25 391.27 255.25 391.29 255.23 391.31 255.21 391.32 255.19 391.33 255.16 391.39 255.16 391.43 255.17 391.47 255.18 391.51 255.16 391.55 255.08 391.62 255.04 391.66 255.03 391.71 255.06 391.75 255.1 391.77 255.12 391.8 255.11 391.84 255.08 391.86 255.06 391.88 255.06 391.94 255.09 391.98 255.13 392.01 255.17 392.03 255.19 392.05 255.19 392.08 255.15 392.12 255.13 392.15 255.13 392.17 255.13 392.19 255.21 392.38 255.27 392.45 255.35 392.43 255.4 392.45 255.42 392.47 255.44 392.5 255.44 392.53 255.42 392.57 255.42 392.6 255.43 392.63 255.44 392.63 255.46 392.63 255.48 392.64 255.53 392.67 255.55 392.7 255.49 392.71 255.49 392.73 255.5 392.79 255.49 392.81 255.47 392.84 255.47 392.87 255.47 392.95 255.48 392.98 255.51 393.01 255.55 393.04 255.58 393.05 255.6 393.03 255.61 392.92 255.62 392.89 255.63 392.87 255.67 392.86 255.67 392.88 255.66 392.94 255.7 392.97 255.74 392.98 255.77 393 255.79 393.08 255.82 393.13 255.83 393.15 255.83 393.17 255.83 393.22 255.83 393.24 255.84 393.29 255.85 393.31 255.88 393.32 255.88 393.32 255.91 393.33 255.92 393.35 255.92 393.38 255.91 393.4 255.88 393.45 255.88 393.49 255.9 393.52 255.92 393.55 255.95 393.57 255.99 393.58 256.08 393.58 256.13 393.59 256.17 393.61 256.22 393.62 256.27 393.6 256.3 393.61 256.34 393.62 256.38 393.63 256.39 393.67 256.4 393.71 256.43 393.75 256.5 393.83 256.48 393.86 256.49 393.89 256.52 393.9 256.55 393.89 256.55 393.87 256.56 393.81 256.57 393.8 256.6 393.79 256.61 393.81 256.62 393.84 256.62 393.86 256.61 393.89 256.61 393.91 256.61 393.92 256.63 393.94 256.64 393.94 256.66 393.97 256.71 394 256.82 394.05 256.85 394.05 256.9 394.05 256.92 394.05 256.95 394.08 257 394.11 257 394.1 257 394.09 257.01 394.09 257.04 394.1 257.05 394.1 257.08 394.13 257.09 394.15 257.1 394.17 257.09 394.22 257.08 394.27 257.04 394.36 257.05 394.4 257.06 394.41 257.11 394.43 257.13 394.44 257.15 394.46 257.17 394.51 257.19 394.53 257.22 394.56 257.26 394.59 257.3 394.61 257.35 394.62 257.44 394.6 257.47 394.61 257.5 394.68 257.52 394.68 257.54 394.68 257.55 394.68 257.56 394.67 257.59 394.64 257.61 394.63 257.66 394.63 257.7 394.64 257.73 394.66 257.79 394.72 257.81 394.73 257.83 394.71 257.87 394.66 257.9 394.7 258.03 394.71 258.08 394.77 258.12 394.77 258.19 394.74 258.22 394.75 258.24 394.77 258.27 394.79 258.31 394.79 258.33 394.76 258.35 394.74 258.36 394.72 258.44 394.63 258.44 394.62 258.48 394.61 258.54 394.59 258.57 394.58 258.89 394.63 258.9 394.64 259.02 394.7 259.11 394.78 259.15 394.79 259.2 394.8 259.23 394.8 259.25 394.81 259.27 394.82 259.29 394.83 259.31 394.86 259.31 394.88 259.32 394.9 259.32 394.92 259.34 394.94 259.36 394.95 259.38 394.96 259.39 394.98 259.39 395 259.48 395.06 259.53 395.07 259.55 395.08 259.62 395.13 259.65 395.14 259.8 395.14 259.83 395.13 259.84 395.12 259.86 395.1 259.9 395.06 259.91 395.06 259.94 395.07 259.95 395.06 259.96 395.06 259.97 395.03 259.98 395.02 260.04 394.99 260.05 394.99 260.07 394.99 260.12 395.01 260.18 395.03 260.21 395.06 260.22 395.14 260.23 395.16 260.25 395.17 260.25 395.18 260.24 395.21 260.23 395.22 260.24 395.23 260.24 395.24 260.29 395.29 260.32 395.31 260.33 395.34 260.33 395.39 260.35 395.43 260.38 395.46 260.4 395.48 260.43 395.49 260.45 395.49 260.47 395.49 260.49 395.47 260.51 395.47 260.52 395.48 260.53 395.5 260.64 395.65 260.65 395.67 260.66 395.68 260.68 395.68 260.71 395.69 260.72 395.69 260.73 395.7 260.74 395.72 260.75 395.76 260.78 395.79 260.82 395.82 260.86 395.84 260.86 395.79 260.89 395.78 260.92 395.78 260.97 395.78 260.99 395.76 261.02 395.74 261.04 395.74 261.09 395.76 261.11 395.78 261.12 395.8 261.13 395.82 261.14 395.87 261.14 395.88 261.34 395.97 261.47 395.96 261.52 395.97 261.55 395.99 261.61 396.06 261.62 396.07 261.62 396.1 261.63 396.1 261.66 396.1 Z" id="Bolivia" transform="translate(-245.57000732421875,-388.3599853515625) "/></svg>