<svg xmlns="http://www.w3.org/2000/svg" viewBox="0 0 8.649993896484375 8.350006103515625"><path d="M 442.15 256.09 442.22 256.06 442.27 256.06 442.3 256.04 442.5 255.9 442.53 255.89 442.54 255.91 442.55 255.94 442.56 255.95 442.59 255.95 442.63 255.94 442.65 255.93 442.75 255.95 442.77 255.95 442.78 255.94 442.8 255.94 442.85 255.98 442.87 255.99 442.89 255.99 442.9 255.98 442.9 255.98 442.91 255.99 442.92 256.01 442.93 256.02 442.94 256.04 442.95 256.06 442.95 256.09 442.94 256.1 442.93 256.11 442.92 256.12 442.84 256.5 442.82 256.55 442.8 256.58 442.76 256.62 442.73 256.65 442.72 256.68 442.68 256.77 442.58 256.95 442.57 256.96 442.55 256.97 442.53 256.99 442.53 257.01 442.53 257.06 442.53 257.08 442.51 257.1 442.5 257.12 442.48 257.14 442.4 257.16 442.4 257.21 442.43 257.35 442.43 257.43 442.4 257.48 442.37 257.52 442.35 257.58 442.36 257.64 442.38 257.7 442.42 257.81 442.46 257.86 442.51 257.88 442.6 257.9 442.65 257.92 442.67 257.93 442.7 257.93 442.77 257.91 442.8 257.92 442.84 257.95 442.87 258.01 442.9 258.07 442.91 258.13 442.92 258.17 442.96 258.22 443.06 258.29 443.08 258.31 443.1 258.32 443.11 258.32 443.14 258.29 443.15 258.29 443.17 258.32 443.17 258.37 443.19 258.39 443.22 258.42 443.26 258.48 443.27 258.5 443.35 258.54 443.38 258.59 443.4 258.6 443.41 258.6 443.42 258.58 443.44 258.57 443.47 258.59 443.49 258.65 443.47 258.7 443.43 258.74 443.34 258.81 443.29 258.83 443.23 258.84 443.11 258.82 442.99 258.83 442.96 258.84 442.92 258.84 442.9 258.83 442.84 258.77 442.78 258.73 442.75 258.72 442.72 258.72 442.68 258.74 442.66 258.76 442.64 258.79 442.64 258.81 442.66 258.85 442.65 258.87 442.63 258.89 442.65 258.91 442.73 258.97 442.79 259.05 442.91 259.25 443.14 259.49 443.18 259.59 443.24 259.76 443.24 259.84 443.18 259.9 443.18 259.93 443.17 259.98 443.17 260.02 443.18 260.05 443.2 260.07 443.21 260.08 443.2 260.09 443.18 260.11 443.1 260.07 443.07 260.07 443.05 260.14 443.03 260.17 443.01 260.14 442.99 260.09 442.96 260.03 442.92 259.98 442.88 259.96 442.86 259.97 442.81 260.01 442.78 260.02 442.76 260.02 442.7 260.01 442.68 260.02 442.65 260.07 442.63 260.14 442.6 260.19 442.55 260.19 442.44 260.17 442.39 260.18 442.33 260.25 442.29 260.27 442.24 260.27 442.2 260.26 442.17 260.22 442.15 260.18 442.12 260.14 442.07 260.15 442.03 260.17 441.98 260.23 441.94 260.25 441.92 260.27 441.91 260.29 441.91 260.32 441.93 260.33 441.96 260.34 441.98 260.35 442.01 260.4 442.01 260.42 442 260.45 442 260.46 442.05 260.45 442.06 260.46 442.14 260.56 442.2 260.74 442.27 260.87 442.26 260.88 442.2 260.89 442.17 260.9 442.17 260.91 442.15 260.92 442.14 260.95 442.12 260.98 442.1 261 442.09 260.98 442.09 260.98 442.05 260.92 442.03 260.89 442.02 260.86 442.02 260.84 442.02 260.82 442.01 260.8 441.95 260.76 441.89 260.74 441.76 260.75 441.72 260.77 441.73 260.78 441.74 260.81 441.75 260.82 441.69 260.84 441.41 261.05 441.37 261.1 441.43 261.13 441.33 261.26 441.29 261.34 441.28 261.43 441.28 261.44 441.28 261.51 441.32 261.74 441.23 261.73 441.09 261.73 440.97 261.76 440.9 261.83 440.86 261.94 440.86 262 440.88 262.06 440.94 262.16 440.95 262.22 440.93 262.25 440.91 262.27 440.88 262.3 440.89 262.36 440.91 262.43 440.94 262.5 441.01 262.63 441.06 262.67 441.1 262.72 441.12 262.81 441.12 262.89 441.1 262.93 441.09 262.95 441.05 263 441.02 263.01 440.98 263.04 440.99 263.07 441 263.1 440.99 263.12 440.97 263.12 440.94 263.1 440.92 263.1 440.89 263.11 440.87 263.13 440.83 263.12 440.75 263.11 440.72 263.09 440.72 263.09 440.72 263.09 440.68 263.02 440.65 263 440.59 263.01 440.47 262.96 440.4 262.93 440.01 262.66 439.89 262.59 439.84 262.54 439.74 262.44 439.69 262.39 439.61 262.37 439.59 262.36 439.52 262.25 439.51 262.21 439.51 262.14 439.51 262.11 439.48 262.08 439.46 262.08 439.44 262.09 439.43 262.1 439.38 262.1 439.29 262.06 439.24 262.05 439.19 262.06 439.16 262.09 439.13 262.13 439.13 262.13 438.92 262 438.96 262 439.02 262.03 439.05 262.04 439.02 262.01 438.97 261.98 439.09 261.96 439.15 261.91 439.14 261.83 439.14 261.83 439.14 261.83 439.14 261.83 439.08 261.67 439.01 261.59 438.99 261.56 438.68 261.36 438.66 261.35 438.63 261.3 438.6 261.25 438.59 261.18 438.57 261.15 438.55 261.13 438.5 261.1 438.41 261.02 438.33 260.89 438.28 260.74 438.32 260.48 438.28 260.4 438.21 260.36 438 260.32 437.87 260.25 437.82 260.21 437.75 260.14 437.64 260.02 437.29 259.66 437.05 259.46 437.01 259.41 437 259.35 436.99 259.29 436.97 259.25 436.88 259.17 436.81 259.07 436.7 258.95 436.64 258.86 436.61 258.82 436.58 258.78 436.54 258.75 436.44 258.72 436.42 258.68 436.41 258.64 436.38 258.59 436.36 258.58 436.3 258.59 436.28 258.58 436.26 258.57 436.23 258.55 436.19 258.51 436.16 258.45 436.11 258.33 436.08 258.28 435.98 258.17 435.95 258.12 435.9 257.99 435.88 257.89 435.88 257.85 435.89 257.81 435.91 257.76 435.92 257.74 435.92 257.69 435.92 257.68 435.92 257.65 435.89 257.63 435.85 257.6 435.81 257.59 435.78 257.59 435.77 257.6 435.77 257.58 435.79 257.56 435.81 257.55 435.82 257.53 435.82 257.48 435.81 257.42 435.75 257.27 435.74 257.21 435.72 257.15 435.7 257.12 435.65 257.11 435.57 257.15 435.53 257.14 435.48 257.09 435.5 257.04 435.53 257 435.54 256.96 435.56 256.95 435.57 256.94 435.56 256.9 435.55 256.86 435.53 256.83 435.5 256.82 435.45 256.81 435.42 256.8 435.4 256.79 435.37 256.75 435.35 256.67 435.33 256.63 435.31 256.63 435.29 256.64 435.27 256.65 435.26 256.63 435.25 256.6 435.24 256.57 435.24 256.54 435.22 256.53 435.19 256.52 435.18 256.54 435.16 256.57 435.15 256.59 435.13 256.6 435.09 256.6 435.07 256.61 435.04 256.61 435.02 256.59 435 256.56 434.99 256.53 434.93 256.49 434.92 256.48 434.86 256.39 434.84 256.33 434.84 256.28 434.87 256.24 434.92 256.22 434.95 256.2 434.96 256.15 434.94 256.09 434.91 256.03 434.88 255.97 434.87 255.89 434.88 255.87 434.89 255.84 434.94 255.74 434.95 255.69 434.92 255.59 434.93 255.53 434.98 255.4 434.99 255.35 434.98 255.16 434.98 255.14 435.01 255.07 435.03 255.05 435.08 255.01 435.2 254.99 435.41 254.99 435.46 254.98 435.49 254.98 435.51 255 435.53 255.02 435.53 255.05 435.52 255.08 435.52 255.09 435.54 255.1 435.59 255.11 435.62 255.14 435.65 255.19 435.7 255.31 435.74 255.37 435.94 255.57 436 255.61 436.09 255.64 436.17 255.66 436.22 255.65 436.23 255.6 436.26 255.51 436.3 255.43 436.31 255.4 436.32 255.37 436.31 255.35 436.31 255.33 436.33 255.3 436.35 255.29 436.41 255.27 436.43 255.25 436.46 255.2 436.53 255.04 436.64 254.97 436.77 254.98 437.21 255.11 437.27 255.1 437.29 255.07 437.3 255.05 437.3 255.02 437.31 254.99 437.33 254.97 437.36 254.95 437.38 254.94 437.39 254.9 437.41 254.89 437.43 254.87 437.45 254.84 437.46 254.83 437.52 254.78 437.53 254.79 437.55 254.86 437.56 254.88 437.55 254.91 437.57 254.93 437.61 254.92 437.61 254.9 437.6 254.88 437.63 254.89 437.66 254.93 437.68 254.94 437.7 254.9 437.71 254.93 437.71 254.94 437.71 254.96 437.7 254.99 437.72 254.98 437.75 254.96 437.76 254.95 437.81 255.04 437.9 255.11 437.96 255.14 438.1 255.2 438.12 255.19 438.23 255.18 438.24 255.17 438.28 255.07 438.37 255.13 438.41 255.15 438.48 255.2 438.5 255.21 438.53 255.23 438.57 255.23 438.65 255.2 438.65 255.19 438.66 255.17 438.67 255.16 438.68 255.17 438.7 255.19 438.7 255.21 438.69 255.23 438.68 255.25 438.7 255.26 438.73 255.25 438.78 255.22 438.76 255.29 438.75 255.31 438.77 255.3 438.88 255.29 438.93 255.29 438.95 255.29 439 255.26 439.08 255.17 439.13 255.15 439.2 255.15 439.27 255.19 439.33 255.25 439.45 255.41 439.49 255.45 439.54 255.46 439.56 255.46 439.62 255.43 439.68 255.42 439.7 255.41 439.74 255.38 439.87 255.22 439.91 255.2 439.94 255.2 439.98 255.22 440.1 255.33 440.15 255.35 440.19 255.36 440.22 255.36 440.24 255.36 440.29 255.35 440.33 255.33 440.34 255.29 440.34 255.25 440.35 255.22 440.37 255.19 440.43 255.17 440.48 255.2 440.58 255.27 440.61 255.28 440.77 255.3 440.81 255.31 440.85 255.35 440.9 255.4 440.9 255.4 440.93 255.43 440.97 255.46 440.99 255.47 441.05 255.49 441.1 255.49 441.1 255.45 441.08 255.41 441.09 255.39 441.09 255.38 441.12 255.37 441.14 255.37 441.17 255.38 441.19 255.38 441.2 255.37 441.24 255.36 441.25 255.35 441.27 255.36 441.28 255.38 441.29 255.42 441.3 255.44 441.32 255.46 441.34 255.47 441.36 255.46 441.37 255.44 441.37 255.43 441.38 255.41 441.39 255.39 441.4 255.39 441.42 255.4 441.43 255.42 441.51 255.58 441.54 255.62 441.56 255.63 441.62 255.63 441.64 255.64 441.65 255.65 441.66 255.66 441.66 255.68 441.66 255.69 441.66 255.7 441.66 255.71 441.67 255.72 441.68 255.74 441.68 255.75 441.68 255.78 441.63 255.82 441.61 255.85 441.64 255.94 441.71 256.02 441.77 256.05 441.77 256.05 441.8 256.08 441.87 256.1 442.06 256.09 442.13 256.09 442.15 256.09 Z" id="Bosnia and Herzegovina" transform="translate(-434.8399963378906,-254.77999877929688) "/></svg>