<svg xmlns="http://www.w3.org/2000/svg" viewBox="0 0 20.769989013671875 21.730010986328125"><path d="M 455.99 406.77 455.9 406.97 455.9 407.03 455.92 407.09 455.98 407.25 456.07 407.4 456.13 407.47 456.21 407.51 456.28 407.57 456.32 407.65 456.39 407.83 456.47 407.95 456.48 407.99 456.5 408.09 456.52 408.12 456.54 408.17 456.69 408.32 456.77 408.37 456.8 408.41 456.9 408.56 456.96 408.61 457.05 408.66 457.11 408.71 457.13 408.79 457.14 408.96 457.22 409.13 457.5 409.38 457.56 409.57 457.56 409.57 457.55 409.62 457.52 409.7 457.51 409.75 457.52 409.81 457.54 409.85 457.59 409.94 457.66 410.03 457.71 410.13 457.92 410.74 457.98 410.82 458.06 410.87 458.16 410.9 458.28 410.9 458.31 410.91 458.33 410.93 458.35 410.95 458.37 410.98 458.37 411 458.36 411.05 458.34 411.07 458.33 411.08 458.33 411.09 458.35 411.1 458.37 411.11 458.44 411.12 458.49 411.15 458.55 411.25 458.59 411.29 458.63 411.3 458.72 411.32 458.76 411.34 458.85 411.4 458.89 411.44 458.91 411.48 458.92 411.53 458.95 411.56 458.99 411.58 459.1 411.61 459.13 411.63 459.13 411.64 459.15 411.66 459.18 411.7 459.22 411.73 459.25 411.75 459.3 411.76 459.35 411.76 459.43 411.78 459.68 411.9 459.76 411.92 459.84 411.92 459.91 411.93 459.98 411.97 460 411.99 460.04 412.04 460.07 412.06 460.09 412.07 460.12 412.08 460.14 412.07 460.16 412.07 460.21 412.08 460.26 412.1 460.3 412.12 460.33 412.16 460.44 412.45 460.48 412.73 460.44 413.07 460.53 413.02 460.61 413.01 460.86 413.01 461.03 413.04 461.16 413.01 461.24 413.05 461.33 413.05 461.37 413.07 461.4 413.1 461.41 413.14 461.41 413.23 461.38 413.32 461.36 413.4 461.42 413.59 461.42 413.68 461.39 413.87 461.38 413.9 461.36 413.92 461.35 413.94 461.35 413.97 461.35 414 461.34 414.05 461.34 414.07 461.36 414.21 461.36 414.26 461.33 414.38 461.33 414.42 461.35 414.47 461.42 414.57 461.46 414.61 461.61 414.72 461.68 414.8 461.73 414.89 461.81 414.99 461.83 415.02 461.84 415.04 461.84 415.08 461.84 415.09 461.85 415.12 461.89 415.15 461.96 415.29 461.96 415.31 461.96 415.33 461.94 415.36 461.93 415.38 461.94 415.39 461.96 415.39 461.97 415.41 461.95 415.44 461.96 415.46 461.97 415.46 461.99 415.46 462 415.47 462.01 415.49 462.03 415.54 462.05 415.56 462.07 415.59 462.1 415.61 462.14 415.62 462.27 415.63 462.43 415.66 462.7 415.67 462.78 415.68 462.87 415.71 463.05 415.81 463.1 415.82 463.13 415.81 463.17 415.8 463.25 415.77 463.27 415.76 463.29 415.76 463.37 415.78 463.43 415.78 463.46 415.79 463.55 415.86 463.65 415.89 463.97 416.05 464.04 416.06 464.18 416.07 464.24 416.09 464.28 416.11 464.37 416.14 464.41 416.17 464.41 416.22 464.38 416.27 464.35 416.33 464.32 416.38 464.31 416.48 464.33 416.58 464.37 416.67 464.44 416.74 464.52 416.79 464.6 416.8 464.81 416.79 464.83 416.8 464.85 416.83 464.86 416.85 464.88 416.9 464.89 416.92 465.06 417.07 465.02 417.08 464.95 417.07 464.83 417.05 464.78 417.05 464.73 417.08 464.7 417.12 464.66 417.13 464.39 417.15 464.37 417.15 464.32 417.22 464.32 417.23 464.29 417.25 464.25 417.29 464.2 417.36 464.21 417.53 464.2 417.55 464.18 417.58 464.13 417.67 464.09 417.7 463.99 417.69 463.94 417.69 463.92 417.72 463.91 417.77 463.88 417.8 463.83 417.81 463.78 417.82 463.69 417.85 463.53 417.94 463.45 417.96 463.39 417.96 463.35 417.96 463.31 417.96 463.26 418 463.22 418.01 463.09 417.98 462.9 417.99 462.82 418.01 462.74 418.06 462.7 418.09 462.62 418.18 462.6 418.2 462.55 418.2 462.52 418.21 462.5 418.22 462.43 418.31 462.42 418.33 462.42 418.36 462.42 418.39 462.43 418.41 462.43 418.43 462.41 418.46 462.39 418.48 462.37 418.49 462.35 418.49 462.33 418.5 462.32 418.52 462.31 418.55 462.3 418.57 462.26 418.58 462.21 418.6 462.17 418.62 462.17 418.64 462.19 418.69 462.18 418.75 462.15 418.79 462.12 418.83 462.09 418.85 462.04 418.87 462 418.89 461.95 418.9 461.93 418.92 461.93 418.97 461.95 419.08 461.91 419.14 461.84 419.2 461.74 419.24 461.66 419.26 461.67 419.3 461.64 419.31 461.59 419.31 461.57 419.31 461.56 419.32 461.57 419.34 461.58 419.36 461.58 419.37 461.59 419.38 461.6 419.39 461.6 419.4 461.59 419.4 461.59 419.41 461.57 419.42 461.57 419.42 461.53 419.51 461.52 419.54 461.49 419.55 461.46 419.54 461.4 419.47 461.31 419.54 461.28 419.55 461.25 419.54 461.22 419.53 461.2 419.53 461.18 419.59 461.14 419.64 461.13 419.68 461.13 419.69 461.12 419.7 461.11 419.71 461.1 419.72 461.1 419.72 461.1 419.74 461.11 419.76 461.11 419.77 461.1 419.83 461.07 419.87 461.02 419.9 460.97 419.91 460.88 419.92 460.85 419.93 460.83 419.95 460.81 419.98 460.79 420 460.76 419.98 460.78 419.94 460.76 419.94 460.73 419.95 460.7 419.96 460.69 419.98 460.67 420.01 460.65 420.02 460.63 419.94 460.59 419.97 460.54 420.05 460.51 420.09 460.47 420.12 460.38 420.16 460.3 420.19 460.27 420.21 460.31 420.26 460.28 420.27 460.26 420.27 460.25 420.26 460.23 420.24 460.22 420.26 460.21 420.28 460.2 420.29 460.18 420.27 460.16 420.26 460.13 420.27 460.12 420.28 460.13 420.31 460.15 420.33 460.16 420.35 460.15 420.37 460.13 420.36 460.1 420.36 460.08 420.38 460.06 420.41 460.08 420.41 460.04 420.44 460.02 420.45 460.02 420.47 460 420.46 459.99 420.46 459.99 420.5 460 420.55 460.01 420.58 459.97 420.61 459.93 420.6 459.92 420.58 459.9 420.55 459.88 420.54 459.86 420.56 459.82 420.65 459.78 420.73 459.77 420.78 459.77 420.8 459.78 420.82 459.71 420.93 459.73 420.98 459.72 421.05 459.56 421.69 459.56 421.8 459.52 422.01 459.49 422.05 459.46 422.08 459.41 422.11 459.22 422.17 459.17 422.2 459.15 422.23 459.02 422.37 458.87 422.47 458.81 422.52 458.76 422.59 458.69 422.76 458.67 422.79 458.53 422.94 458.53 422.94 458.48 422.93 458.44 422.93 458.4 422.92 458.36 422.91 458.25 422.93 458 423.01 457.66 423.11 457.59 423.17 457.56 423.18 457.44 423.18 457.37 423.2 457.35 423.21 457.34 423.22 457.34 423.28 457.36 423.46 457.36 423.55 457.34 423.63 457.27 423.78 457.27 423.87 457.2 423.99 457.15 424.15 456.96 424.58 456.89 424.9 456.86 424.96 456.77 425.19 456.72 425.34 456.43 425.56 456.27 425.64 455.81 425.69 455.72 425.68 455.62 425.64 455.53 425.63 455.45 425.64 455.35 425.69 455.21 425.79 455.17 425.81 455.04 425.85 454.97 425.85 454.91 425.84 454.84 425.82 454.67 425.84 454.6 425.82 454.48 425.74 454.31 425.68 454.21 425.64 454.17 425.65 454.12 425.67 454.06 425.68 453.95 425.66 453.86 425.59 453.7 425.41 453.61 425.36 453.49 425.36 453.26 425.42 453.21 425.43 453.21 425.41 453.22 425.39 453.22 425.37 453.2 425.35 453.17 425.34 453.15 425.34 453.03 425.36 452.99 425.34 452.96 425.29 452.86 425.22 452.77 425.11 452.75 425.09 452.71 425.08 452.69 425.07 452.67 425.04 452.65 424.99 452.63 424.98 452.51 424.94 452.48 424.91 452.46 424.88 452.23 424.7 452.17 424.67 452.11 424.64 452.08 424.62 452.06 424.59 452.02 424.54 452 424.52 451.97 424.51 451.94 424.51 451.87 424.54 451.83 424.54 451.79 424.53 451.69 424.5 451.57 424.47 451.46 424.48 451.36 424.51 451.19 424.59 451.17 424.61 451.14 424.62 451.13 424.61 451.12 424.59 451.1 424.57 451.05 424.56 451 424.59 450.91 424.67 450.9 424.7 450.9 424.72 450.89 424.74 450.86 424.75 450.83 424.77 450.81 424.78 450.79 424.8 450.77 424.83 450.73 424.93 450.71 424.96 450.65 424.98 450.64 425 450.59 425.15 450.58 425.19 450.57 425.21 450.57 425.23 450.58 425.26 450.6 425.28 450.61 425.31 450.59 425.33 450.56 425.35 450.56 425.37 450.57 425.4 450.57 425.42 450.57 425.46 450.56 425.48 450.55 425.51 450.45 425.62 450.42 425.67 450.41 425.73 450.41 425.76 450.42 425.77 450.43 425.77 450.45 425.8 450.46 425.83 450.46 425.85 450.44 425.89 450.41 425.92 450.36 425.96 450.34 426 450.37 426.05 450.38 426.08 450.38 426.13 450.37 426.19 450.36 426.23 450.34 426.26 450.32 426.28 450.26 426.3 450.23 426.32 450.23 426.34 450.24 426.37 450.24 426.4 450.15 426.54 450.14 426.55 450.12 426.57 450.08 426.6 450.05 426.63 450.02 426.72 449.98 426.78 449.94 426.8 449.84 426.77 449.77 426.79 449.72 426.83 449.64 426.94 449.53 427.05 449.47 427.08 449.44 427.09 449.34 427.11 449.32 427.12 449.29 427.17 449.2 427.26 449.16 427.35 449.09 427.55 449.01 427.68 448.89 427.79 448.76 427.87 448.62 427.9 448.41 427.91 448.34 427.92 448.28 427.94 448.25 427.97 448.25 428 448.27 428.11 448.27 428.16 448.26 428.21 448.24 428.25 448.2 428.29 448.07 428.38 448.02 428.4 447.98 428.39 447.84 428.36 447.66 428.35 447.55 428.31 447.5 428.3 447.39 428.3 447.21 428.35 447.18 428.35 447.11 428.34 447.08 428.34 446.89 428.4 446.82 428.4 446.53 428.34 446.44 428.28 446.35 428.24 446.22 428.26 446.16 428.29 446.06 428.36 445.92 428.43 445.87 428.46 445.86 428.47 445.85 428.44 445.83 428.36 445.81 428.34 445.78 428.31 445.76 428.3 445.75 428.28 445.72 428.21 445.7 428.12 445.68 428.03 445.68 427.96 445.73 427.79 445.74 427.73 445.72 427.7 445.69 427.65 445.68 427.62 445.67 427.55 445.68 427.48 445.7 427.35 445.71 427.32 445.78 427.27 445.81 427.23 445.88 427.11 446 426.95 446.05 426.86 446.1 426.77 446.19 426.63 446.2 426.59 446.12 426.45 446.11 426.4 446.11 426.22 446.09 426.01 446.03 425.87 446.03 425.86 446.01 425.83 446 425.83 445.97 425.84 445.94 425.85 445.95 425.83 445.97 425.78 445.92 425.62 445.9 425.57 445.88 425.55 445.82 425.53 445.8 425.5 445.8 425.48 445.82 425.42 445.82 425.4 445.8 425.38 445.78 425.38 445.75 425.37 445.75 425.34 445.76 425.32 445.81 425.3 445.82 425.27 445.8 425.21 445.7 425.12 445.71 425.05 445.72 425.01 445.79 424.97 445.76 424.94 445.74 424.95 445.72 424.96 445.7 424.97 445.68 424.96 445.68 424.93 445.69 424.9 445.69 424.88 445.66 424.88 445.65 424.84 445.64 424.81 445.57 424.78 445.54 424.76 445.52 424.73 445.51 424.66 445.5 424.64 445.47 424.61 445.47 424.59 445.46 424.57 445.47 424.56 445.48 424.54 445.48 424.52 445.46 424.51 445.42 424.49 445.41 424.47 445.41 424.45 445.4 424.39 445.36 424.37 445.32 424.35 445.3 424.32 445.32 424.28 445.32 424.24 445.3 424.19 445.24 424.09 445.17 423.94 445.14 423.91 444.86 423.67 444.69 423.57 444.66 423.57 444.62 423.56 444.6 423.56 444.57 423.54 444.51 423.47 444.4 423.38 444.36 423.32 444.32 423.29 444.3 423.27 444.29 423.23 444.29 422.81 444.29 422.4 444.29 421.98 444.29 421.56 444.29 421.15 444.29 421.08 444.29 420.74 444.29 420.32 444.29 419.91 444.29 419.75 444.29 419.5 444.29 419.08 444.29 418.67 444.29 418.26 444.29 417.9 444.29 417.54 444.29 417.19 444.29 416.83 444.29 416.62 444.8 416.62 445.32 416.62 445.84 416.62 446.36 416.62 446.49 416.62 446.52 416.54 446.52 416.44 446.52 416.3 446.52 416.17 446.51 416.03 446.51 415.89 446.51 415.76 446.51 415.62 446.51 415.48 446.51 415.35 446.51 415.21 446.51 415.07 446.51 414.94 446.51 414.8 446.51 414.66 446.51 414.53 446.51 414.39 446.51 414.26 446.51 414.25 446.51 413.96 446.51 413.67 446.51 413.37 446.51 413.08 446.5 412.78 446.5 412.73 446.5 412.49 446.5 412.2 446.5 411.9 446.5 411.61 446.5 411.32 446.5 411.03 446.5 410.73 446.5 410.44 446.5 410.15 446.5 409.97 446.5 409.86 446.49 409.57 446.49 409.47 446.49 409.38 446.49 409.28 446.49 409.19 446.49 409.09 446.49 409 446.49 408.9 446.49 408.81 446.49 408.71 446.49 408.62 446.49 408.52 446.49 408.43 446.49 408.33 446.49 408.24 446.49 408.14 446.49 408.05 446.49 407.98 446.54 407.98 446.6 407.98 446.73 407.97 446.85 407.97 446.98 407.96 447.1 407.96 447.21 407.95 447.31 407.95 447.42 407.95 447.52 407.94 447.56 407.94 447.6 407.94 447.64 407.93 447.68 407.92 447.72 407.92 447.76 407.91 447.94 407.87 448.13 407.84 448.32 407.8 448.5 407.76 448.69 407.73 448.88 407.69 449.07 407.65 449.25 407.62 449.44 407.58 449.63 407.55 449.81 407.51 450 407.47 450.19 407.44 450.37 407.4 450.56 407.36 450.75 407.33 450.94 407.29 451.2 407.27 451.4 407.25 451.55 407.24 451.63 407.24 451.66 407.26 451.67 407.27 451.68 407.28 451.68 407.31 451.68 407.33 451.7 407.33 451.72 407.34 451.72 407.34 451.72 407.4 451.72 407.42 451.73 407.43 451.75 407.46 451.78 407.52 451.85 407.6 451.86 407.62 451.86 407.64 451.86 407.68 451.86 407.69 451.87 407.69 451.89 407.7 451.91 407.7 451.94 407.68 451.97 407.71 452 407.75 452.01 407.77 452.04 407.78 452.07 407.78 452.1 407.79 452.1 407.82 452.12 407.85 452.14 407.87 452.15 407.89 452.13 407.92 452.21 408 452.23 408.05 452.2 408.1 452.21 408.13 452.25 408.23 452.27 408.33 452.3 408.35 452.34 408.35 452.41 408.32 452.42 408.32 452.44 408.31 452.49 408.24 452.54 408.24 452.57 408.22 452.78 407.99 452.81 407.98 452.84 407.95 452.88 407.89 452.91 407.87 452.97 407.82 453.01 407.79 453.01 407.71 453.09 407.66 453.1 407.65 453.12 407.66 453.13 407.66 453.14 407.67 453.14 407.65 453.15 407.64 453.18 407.62 453.24 407.6 453.26 407.58 453.33 407.52 453.34 407.51 453.43 407.5 453.5 407.44 453.61 407.31 453.68 407.27 453.73 407.27 453.77 407.27 453.8 407.28 453.84 407.3 453.86 407.3 453.88 407.29 453.94 407.18 453.98 407.14 454.01 407.13 454.09 407.13 454.13 407.14 454.16 407.17 454.2 407.24 454.22 407.26 454.23 407.26 454.24 407.28 454.25 407.31 454.32 407.38 454.35 407.38 454.45 407.37 454.47 407.36 454.48 407.35 454.51 407.31 454.52 407.3 454.53 407.29 454.64 407.16 454.67 407.13 454.75 407.08 454.81 407 454.82 406.99 454.84 406.98 454.86 406.98 454.88 406.97 454.89 406.97 454.91 406.93 454.92 406.93 454.97 406.92 455.02 406.87 455.06 406.86 455.1 406.86 455.26 406.81 455.28 406.8 455.3 406.78 455.3 406.77 455.31 406.75 455.34 406.75 455.32 406.78 455.35 406.8 455.36 406.82 455.38 406.83 455.41 406.81 455.43 406.84 455.46 406.84 455.52 406.8 455.54 406.85 455.61 406.84 455.68 406.81 455.76 406.74 455.85 406.74 455.99 406.77 Z" id="Botswana" transform="translate(-444.2900085449219,-406.739990234375) "/></svg>