<svg xmlns="http://www.w3.org/2000/svg" viewBox="0 0 798 306"><path d="M 125.55 257.96 131.05 263.85 105.91 269.73 110.23 261.49 125.55 257.96 Z M 291.36 20.61 317.69 27.28 400.59 22.58 428.88 39.05 490.17 48.86 533.79 79.07 584.86 63.38 631.62 93.19 689.77 103.39 759.71 131.25 799 181.46 783.68 190.49 773.46 205.79 764.03 225.79 761.28 254.04 721.99 275.22 568.75 287.39 477.99 284.25 452.85 292.88 397.05 299.16 349.51 289.35 296.08 290.92 296.08 265.02 271.32 244.23 250.1 250.51 280.36 287.78 203.35 304.65 150.7 307 140.88 260.32 129.87 243.84 53.65 192.84 20.25 188.52 27.72 181.85 29.29 167.73 10.82 151.25 20.25 146.15 10.04 137.13 10.04 129.68 18.68 126.15 14.36 123.01 18.68 112.02 1 84.95 5.71 70.83 38.33 57.49 25.36 48.86 31.65 40.23 62.29 53.18 160.52 50.04 206.49 35.91 230.46 40.23 254.43 19.44 252.07 2.96 265.43 1 279.97 4.53 291.36 20.61 Z" fill-rule="evenodd" transform="translate(-1,-1) "/></svg>