<svg xmlns="http://www.w3.org/2000/svg" viewBox="0 0 798 611"><path d="M 711.45 1 735.82 9.82 740.08 9.4 742.84 15.6 749.58 15.6 756.6 24.69 764.17 26.62 775.6 37.78 780.55 46.59 787.85 51.55 797.07 64.5 799 72.62 797.49 83.23 789.36 85.57 777.94 76.34 775.32 71.38 768.72 69.87 754.95 59.95 742.84 56.92 743.11 54.58 740.91 54.58 739.67 51.96 732.51 50.03 729.76 47 710.21 45.35 708.01 47.28 706.77 44.66 690.8 45.76 675.8 38.88 665.89 38.46 661.34 34.75 645.24 38.46 642.9 34.33 637.25 32.4 621.56 38.19 617.71 30.06 612.06 27.45 607.79 19.73 597.88 14.36 598.57 9.82 603.25 5.96 606.97 5.55 612.06 9.13 617.71 6.37 627.34 7.89 636.15 2.1 648.68 3.76 662.44 11.33 680.48 8.3 686.95 11.74 696.17 12.57 703.05 3.76 711.45 1 Z M 10.91 437.63 7.47 444.51 1 443 2.1 440.24 8.57 436.8 10.91 437.63 Z M 35.41 410.77 43.4 425.37 32.66 428.81 30.05 426.88 32.25 419.99 28.12 413.52 35.41 410.77 Z M 133.98 402.36 141.69 402.36 150.08 406.22 159.31 403.88 161.92 406.63 168.39 407.32 168.8 411.18 172.66 415.31 169.22 418.48 172.66 421.92 178.03 421.92 179.13 431.43 174.59 431.84 168.8 427.57 165.78 428.81 165.36 432.53 156.97 434.46 145.82 430.74 136.73 421.1 133.56 424.13 133.56 429.5 130.95 431.01 127.51 429.5 125.58 424.54 117.6 423.85 113.74 427.98 103 427.57 98.05 426.06 95.85 422.61 99.98 418.76 110.71 419.99 112.23 414.62 122.55 413.52 122.55 409.66 126.68 409.25 127.09 403.47 133.98 402.36 Z M 196.34 431.84 198.95 433.77 192.89 434.46 192.48 431.84 196.34 431.84 Z M 196.75 406.91 197.44 410.77 194.82 411.87 194 406.63 196.75 406.91 Z M 181.47 401.95 179.95 404.71 190.55 406.91 192.89 409.66 185.32 409.66 181.88 413.11 172.25 411.87 170.73 404.71 175.69 405.12 175 402.36 178.3 400.44 181.47 401.95 Z M 339.77 587.21 346.66 589.41 358.91 589.14 359.18 597.54 356.98 598.64 353.95 594.78 351.2 597.54 347.76 597.12 346.66 593.27 343.22 592.85 339.36 595.61 339.36 598.23 334.41 596.3 333.58 600.15 330.96 599.47 330.14 602.08 333.99 605.94 330.96 609.38 327.11 606.35 324.08 606.35 323.67 610.48 317.61 607.87 318.3 612 314.17 608.97 312.93 611.31 310.73 611.31 309.08 608.28 305.64 609.38 312.24 604.42 311.42 597.12 314.86 597.12 319.13 600.57 324.77 597.12 321.74 593.68 317.61 593.68 317.61 589.14 314.45 586.79 320.23 587.48 324.77 592.17 329.45 588.31 334.41 591.75 337.43 590.24 337.85 586.79 339.77 587.21 Z M 311.42 574.95 312.24 578.8 307.56 576.46 308.8 573.71 311.42 574.95 Z M 369.51 534.04 374.19 536.24 375.29 539.41 381.35 538.17 384.1 544.37 387.96 544.37 389.47 539.69 391.4 540.1 393.32 573.02 395.94 579.49 386.03 578.8 382.17 575.64 381.76 570.4 385.2 565.72 380.66 559.94 380.66 551.53 376.8 548.92 370.33 551.26 366.07 548.92 364.28 551.26 358.91 550.02 357.67 552.77 353.95 552.77 352.03 560.35 350.1 559.94 350.37 554.29 341.98 551.26 338.54 556.22 336.75 552.77 328.21 548.92 333.58 546.57 343.63 547.81 342.39 544.65 344.32 541.2 356.57 540.1 360.7 544.65 372.68 543.96 372.95 542.03 366.48 535.83 367.31 532.8 369.51 534.04 Z M 397.45 528.26 399.79 528.26 401.31 531.29 399.79 535.83 398.69 532.11 392.91 533.21 393.32 528.26 397.45 528.26 Z M 455.27 517.51 449.07 521.37 449.07 527.15 452.1 525.91 453.34 527.84 451 534.04 448.66 533.63 443.43 523.99 437.65 527.15 434.9 526.33 435.72 518.61 440.68 519.85 445.63 514.48 455.54 514.48 455.27 517.51 Z M 466.7 496.44 467.8 500.71 477.02 504.84 472.48 516.41 476.61 519.03 484.32 518.34 486.52 521.78 483.9 529.77 475.92 523.71 473.58 523.3 471.24 526.33 470.14 517.51 464.77 514.48 464.77 511.45 460.23 510.63 463.67 496.16 466.7 496.44 Z M 525.61 492.31 526.3 495.75 519.83 501.4 522.86 503.33 521.76 507.6 511.02 505.67 508.82 499.88 500.28 503.05 496.84 501.4 497.26 499.61 503.45 498.37 512.53 491.89 525.61 492.31 Z M 191.79 507.6 191.79 509.94 187.94 511.04 179.13 509.11 184.5 506.08 191.38 505.67 191.79 507.6 Z M 173.35 495.34 175 498.78 158.48 501.81 156.55 505.25 158.89 508.7 154.35 509.11 150.91 505.67 134.8 506.49 137.42 503.05 148.98 497.68 166.19 496.85 170.73 493.82 173.35 495.34 Z M 396.77 400.85 403.23 402.78 407.36 420.68 411.22 419.17 411.22 417.65 407.78 417.65 410.12 411.18 416.17 411.18 417.69 413.11 416.17 418.48 419.34 419.99 423.88 416.14 436.82 418.07 437.24 415.73 441.09 414.21 443.02 418.48 444.12 413.8 447.15 414.62 460.5 425.64 462.84 430.74 462.43 438.31 456.78 440.24 451.83 446.03 449.07 434.87 441.5 428.4 434.62 426.88 435.72 428.81 428.01 427.98 427.33 430.33 422.37 429.91 419.62 426.06 412.73 424.95 410.12 422.34 405.44 433.36 403.92 433.36 403.23 428.4 389.88 430.74 388.64 437.21 394.84 439.42 395.53 444.51 385.61 456.36 380.66 460.49 378.04 460.21 374.46 464.35 371.44 462.42 367.99 465.17 366.89 460.9 363.04 460.9 364.55 466.27 356.57 466.69 346.66 458.29 341.7 457.46 335.92 449.06 328.62 444.1 327.94 447.96 322.15 447.96 330.14 453.33 325.6 452.91 321.33 455.53 321.74 458.97 326.7 462.42 328.21 461.32 329.73 464.35 322.98 475.5 307.29 474.26 304.12 477.71 300.68 473.57 301.51 470.13 298.75 469.72 297.65 473.16 301.09 483.49 299.99 487.35 295.31 488.04 294.21 485.83 291.59 491.48 282.78 494.65 273.15 492.31 269.71 498.09 259.11 502.22 257.87 506.08 255.25 507.18 244.52 506.08 239.56 499.19 230.34 496.44 229.24 499.88 219.32 498.09 212.44 500.71 217.81 503.33 214.37 508.7 197.44 509.11 198.68 503.05 202.81 500.71 183.67 498.09 198.26 492.31 198.68 490.38 204.73 491.89 207.49 483.49 211.62 483.49 214.37 486.52 220.43 486.52 236.94 481.98 245.62 471.23 247.27 457.05 257.59 454.43 265.99 448.23 265.99 443 263.65 443.27 264.06 449.06 261.31 448.23 261.03 443 255.94 436.8 256.35 430.74 262.14 427.98 262.55 421.1 273.97 427.57 279.34 426.47 279.34 417.65 274.39 418.07 272.05 415.04 282.37 415.73 285.4 408.15 295.72 409.66 296.55 412.28 299.58 410.35 306.46 414.21 313.34 411.18 316.1 411.59 318.3 415.31 326.01 413.11 328.62 416.14 336.75 413.52 338.95 407.32 341.7 406.63 342.8 413.11 345.42 413.11 349.27 418.07 355.05 416.96 357.67 419.58 362.35 411.18 366.07 413.8 372.26 413.52 379.56 408.84 378.73 405.12 383.27 404.71 386.44 401.26 396.77 400.85 Z M 375.7 359.12 380.66 365.59 381.76 372.2 385.61 372.89 388.64 369.45 392.08 369.03 396.77 374.82 399.38 372.48 402.41 373.72 403.65 383.63 394.84 386.66 389.47 394.38 386.03 394.38 381.07 381.7 378.04 379.09 372.68 382.12 368.41 379.36 369.23 375.92 373.78 373.99 375.7 369.86 373.78 365.31 369.51 365.31 367.31 362.97 370.33 358.43 375.7 359.12 Z M 401.31 444.51 406.26 449.06 406.68 452.91 400.48 450.99 398.69 444.1 401.31 444.51 Z M 425.4 398.51 426.5 404.29 424.3 406.91 420.86 404.29 420.44 398.92 424.3 396.99 425.4 398.51 Z M 481.56 384.73 482.8 387.08 474.4 392.45 464.77 393.14 454.86 390.52 450.59 393.96 448.39 389.42 450.59 385.15 458.71 389 464.35 383.63 467.11 385.97 481.56 384.73 Z M 442.19 351.13 439.99 358.43 443.71 363.39 445.63 362.15 448.66 362.97 445.63 365.31 440.26 385.97 445.22 386.25 447.56 391.35 444.95 396.3 449.9 398.09 443.71 401.95 441.5 401.95 443.02 397.41 437.65 398.51 437.24 403.19 430.35 405.39 427.74 392.03 433.11 391.35 436.82 383.63 430.77 383.63 430.77 381.29 435.72 378.26 428.43 373.3 431.87 363.66 428.84 353.33 442.19 351.13 Z M 544.75 483.49 545.02 485.42 540.07 488.86 539.38 483.9 544.75 483.49 Z M 545.02 476.6 545.44 480.05 541.31 477.29 542.41 474.68 545.02 476.6 Z M 551.22 453.6 554.25 454.84 552.73 460.21 549.29 464.76 546.54 464.76 547.78 454.02 551.22 453.6 Z M 541.99 366 545.85 368.76 551.63 367.52 551.22 372.2 540.07 371.37 537.45 373.99 533.6 373.99 536.63 365.31 541.99 366 Z M 626.1 340.38 629.54 341.49 632.99 348.1 642.9 346.17 647.58 348.37 647.99 352.23 644.82 355.67 646.48 358.7 659.83 357.19 662.03 359.53 669.74 354.57 678.96 356.09 677.72 346.17 680.89 341.21 692.73 341.9 692.32 345.75 688.46 349.2 689.56 351.54 700.71 342.72 711.86 341.49 718.61 344.24 720.54 339.97 730.86 339.56 722.19 345.75 720.54 351.54 714.07 350.3 703.33 356.09 697.68 352.23 684.61 355.26 681.17 359.12 683.09 363.66 680.89 365.31 674.28 364.9 670.15 367.93 662.44 365.31 655.56 371.37 649.09 366.83 639.18 365.31 635.33 371.79 636.43 375.23 634.22 376.33 633.81 380.19 635.33 383.63 635.33 381.7 638.35 382.12 639.87 390.11 608.21 388.18 602.43 395.89 585.63 400.85 580.26 426.88 582.6 432.53 587.15 433.36 589.49 438.31 581.78 443 572.28 440.24 565.4 447.13 556.17 447.13 555.76 443.69 559.2 438.73 560.72 423.03 566.5 419.58 568.42 412.28 567.6 407.32 560.03 403.19 560.03 401.26 570.35 396.3 575.31 400.85 579.16 399.33 577.92 395.48 581.36 394.65 582.19 390.93 586.32 394.38 591.69 394.38 601.32 387.08 599.4 382.53 602.43 377.16 598.57 371.79 602.01 363.39 599.81 358.7 605.45 351.13 605.87 345.75 599.81 343.83 597.88 338.45 601.74 340.8 609.31 340.8 612.34 338.87 618.12 339.97 625 336.53 626.1 340.38 Z M 677.45 348.37 677.72 350.71 673.87 351.54 674.7 345.34 676.62 345.34 677.45 348.37 Z M 659.42 326.61 663.96 326.61 667.4 335.42 675.8 336.53 676.62 339.28 672.36 341.49 663.55 341.49 661.34 334.32 654.87 328.95 655.15 325.78 659.42 326.61 Z M 681.17 328.95 678.55 334.32 675.11 333.5 674.7 330.47 678.96 327.71 681.17 328.95 Z M 522.86 367.52 525.61 369.03 518.32 370.27 519.83 364.9 522.45 364.9 522.86 367.52 Z M 544.33 352.23 546.95 354.16 541.99 358.7 536.63 354.16 539.38 351.54 544.33 352.23 Z M 574.48 334.6 572.55 337.35 570.35 335.42 572.55 333.08 574.48 334.6 Z M 634.5 327.44 627.62 335.42 624.59 335.84 619.63 330.47 620.46 328.54 626.1 328.12 628.86 323.58 634.91 323.17 634.5 327.44 Z M 682.68 304.85 684.61 306.78 681.17 308.57 680.48 312.42 674.28 311.73 673.87 307.05 676.21 304.02 682.68 304.85 Z" fill-rule="evenodd" transform="translate(-1,-1) "/></svg>