<svg xmlns="http://www.w3.org/2000/svg" viewBox="0 0 798 655"><path d="M 476.49 452.1 469.39 464.32 447.9 488.83 446.75 493.95 446.62 498.74 448.09 502.77 453.53 502.26 460.24 496.89 464.46 490.94 468.69 487.61 470.6 488.83 469.84 493.43 463.82 508.92 449.69 531.05 439.97 544.17 431.85 551.52 429.8 559.91 430.89 562.27 435.49 562.53 444.89 560.61 443.62 564.9 439.97 570.46 419.12 585.24 408.63 602.58 397.63 616.46 382.86 630.54 353.57 647.87 327.61 656 321.98 655.55 317.12 653.44 317.95 648.96 328.82 637.06 326.77 630.47 324.09 629.26 305.8 626.95 296.01 622.09 290.39 617.29 276.25 594.71 271.71 582.17 268 576.8 261.67 571.87 239.03 569.31 223.68 543.78 218.31 529.71 213.13 520.88 210.32 508.66 209.36 492.6 205.39 487.68 200.15 486.01 195.1 487.61 187.87 497.85 182.88 499.7 160.75 492.73 156.4 493.75 149.31 499.51 142.91 501.17 126.92 497.21 122.32 493.69 121.23 484.28 121.49 472.83 123.09 465.28 127.75 453.26 129.35 444.75 127.43 441.42 115.92 432.4 114.39 428.88 114.45 421.59 116.43 403.23 109.27 389.34 96.03 369.7 88.04 353.9 80.3 342.26 70.77 331.44 63.74 326.45 58.05 323.19 51.97 321.46 44.42 324.02 42.25 322.61 36.24 312.19 29.39 304.51 19.42 299.13 1 294.72 16.22 293.44 15.9 294.72 17.12 296.83 18.01 293.44 33.3 291.65 35.92 293.76 37.58 292.93 56.57 291.65 82.48 287.04 117.33 276.93 119.63 277.96 119.44 276.74 120.91 275.65 143.1 267.53 144.32 267.85 165.68 258.76 195.67 248.14 196.89 248.85 200.85 245.27 201.68 245.65 214.35 239.44 212.75 234.77 203.67 218.65 202.45 217.95 202.58 216.16 203.67 216.67 215.94 238.55 245.23 221.47 257.71 212.19 276.83 197.15 295.69 179.88 298.89 179.69 300.49 177.96 302.28 178.79 304.39 177.39 307.2 177.39 310.59 173.68 310.79 170.48 309 170.67 303.69 175.59 301.9 176.36 301.7 175.27 310.27 166.89 327.29 153.33 350.56 131.19 359.13 124.99 396.61 101.89 424.17 82.32 426.09 80.91 426.41 78.92 427.88 79.63 429.1 77.01 430.19 77.77 431.59 76.62 431.59 74.7 433.51 75.21 433.19 74.13 433.89 72.91 435.11 73.04 435.3 70.93 436.71 71.5 439.59 69.33 437.28 67.22 435.3 62.61 434.98 60.44 436.01 58.32 436.71 58.84 435.88 59.6 435.88 61.91 437.8 66.51 440.29 65.81 441.89 64.02 442.98 64.4 442.4 66.13 443.3 66.51 445.98 64.21 443.3 59.73 440.1 57.81 437.28 58.13 437.28 57.11 439.08 56.72 442.08 58 446.88 63.51 448.99 63.12 451.48 60.82 450.27 59.92 450.59 58.84 452.38 58.13 452.19 59.41 453.78 59.73 453.46 58.13 455.19 57.81 458.39 54.04 459.48 54.81 460.69 53.53 459.99 52.12 463.19 50.33 464.08 48.22 467.66 51.03 468.37 48.02 470.16 47.13 471.05 47.83 469.58 48.73 469.45 51.03 472.78 50.13 473.87 45.53 474.95 45.53 475.98 47.83 479.05 46.94 479.37 44.63 478.15 44.12 478.28 43.23 480.77 43.61 480.26 46.42 482.31 45.78 523.94 26.72 539.35 21.54 566.6 10.53 593.65 1.58 596.53 1 598.06 5.73 599.4 6.25 617.63 4.97 618.08 5.86 615.14 8.87 612.71 10.15 610.85 9.57 610.4 11.36 608.42 11.81 601.51 16.87 600.68 27.1 599.4 29.34 602.73 37.79 602.09 38.43 598.7 29.98 596.85 31.01 591.79 29.53 584.44 29.47 580.54 34.52 583.16 35.87 584.44 39.32 587.57 41.43 586.23 41.95 583.03 40.73 581.43 41.69 583.48 41.37 585.33 42.78 584.06 42.78 583.1 44.12 584.06 46.94 583.48 47.45 589.75 47.32 590.13 48.6 587.51 50.07 586.93 52.89 577.34 60.63 575.17 66.13 565 81.48 561.48 90.63 553.68 93.32 530.08 112.19 526.24 107.97 525.09 108.55 525.09 109.89 524.45 115.65 531.1 123.45 531.29 119.93 533.02 116.29 536.28 112.51 545.04 107.2 548.69 99.65 554.19 96.58 558.79 97.16 563.78 91.98 567.36 84.49 571.14 79.44 574.65 92.49 565.83 98.18 559.05 104.26 549.71 124.03 543.38 134.84 534.94 139.32 500.02 144.25 488.45 146.36 479.94 149.49 471.63 154.93 465.3 173.23 461.97 179.37 454.94 185.32 436.77 187.05 431.21 188.77 427.37 192.68 426.86 196.64 424.62 204.96 425.07 216.67 438.95 239.89 440.16 246.74 447.96 315.26 446.88 338.61 448.22 365.99 450.46 379.68 454.94 388 461.84 392.16 483.01 396.96 486.98 399.45 487.81 409.43 486.08 430.86 476.49 452.1 Z M 588.66 101.19 584.82 103.88 580.15 105.16 582.14 100.55 583.22 100.93 588.72 96.65 591.92 97.16 591.6 99.91 588.66 101.19 Z M 581.69 95.62 581.56 92.81 584.12 90.63 584.95 88.14 586.36 87.88 587.13 92.68 583.35 95.75 581.69 95.62 Z M 585.97 86.47 587.44 81.68 589.11 80.91 589.49 83.08 587.51 87.43 586.55 87.69 585.97 86.47 Z M 574.59 75.02 575.1 74.32 574.08 76.88 574.21 75.21 574.59 75.02 Z M 596.46 45.91 597.42 42.2 599.28 41.56 599.98 42.84 599.15 44.95 597.42 46.49 596.46 45.91 Z M 586.49 43.03 587 42.52 588.02 42.27 587.57 44.31 586.49 43.03 Z M 585.01 32.73 585.46 31.58 586.55 32.22 585.46 34.01 585.01 32.73 Z M 632.85 22.11 635.22 22.43 639.44 31.84 641.55 33.12 640.97 34.27 639.25 34.91 628.37 33.18 623.26 34.4 616.42 33.24 614.18 31.39 613.54 28.7 607.33 23.46 606.95 20.64 607.85 17.19 618.91 22.75 623.45 23.84 631.51 23.33 632.85 22.11 Z M 597.68 162.99 594.86 161.9 596.14 157.42 596.08 146.55 597.87 145.33 596.08 144.5 596.08 143.35 597.42 140.85 599.66 139.7 600.04 138.23 604.01 134.46 614.62 128.64 620.83 127.74 622.75 131.45 623.71 127.48 624.92 126.52 630.17 128.83 632.6 125.18 631.76 122.75 633.81 122.75 632.08 118.72 636.62 120 633.3 114.94 627.22 112.64 625.56 109.51 626.39 106.82 623.71 104.84 625.18 104.13 622.87 103.75 621.28 101.57 621.79 99.85 631.19 91.78 637.39 88.84 644.11 89.42 655.62 86.92 661.18 87.63 663.87 98.12 672.69 110.21 681.14 112.58 681.9 114.94 679.98 117.82 679.92 119.74 689.45 128.12 701.22 135.03 714.26 146.23 717.27 151.35 714.77 161.39 713.3 173.36 715.03 178.54 725.26 187.56 728.72 193.44 729.8 203.42 727.69 208.54 726.8 216.35 729.1 223.13 734.34 226.65 735.81 229.4 736.45 234.07 734.86 239.12 730.7 245.27 731.34 247.25 735.24 250.58 747.84 259.4 750.72 277.77 748.35 285.25 749.31 289.47 747.84 297.66 743.11 302.59 737.8 312.06 737.93 315.96 739.91 319.74 738.44 325.49 738.12 333.94 738.5 336.31 742.66 339.82 743.23 342.58 742.27 346.54 743.43 349.36 742.59 354.54 746.18 363.82 742.98 374.82 745.6 383.65 749.37 390.81 765.81 407.7 779.49 416.15 783.2 420.05 790.49 434.25 795.87 438.92 799 443.98 798.36 455.43 789.15 464.26 779.81 469.76 775.66 470.91 771.63 470.34 768.24 468.93 764.34 465.48 760.56 459.53 758.97 453.96 751.87 448.39 746.11 446.09 729.16 449.29 726.22 448.59 724.75 444.68 722.96 431.57 718.04 427.79 703.58 429.65 693.22 429.65 664.32 418.64 656.51 417.81 643.4 420.76 636.18 418.84 631.57 415 629.33 410.84 631.83 401.95 632.08 396.25 626.9 375.91 629.53 361.32 629.4 355.18 621.98 329.59 610.21 296.58 608.49 287.36 600.24 273.86 597.42 264.46 596.97 250.77 594.61 245.07 593.26 230.23 588.4 220.06 590.9 202.4 585.14 187.17 585.46 178.35 583.48 172.4 582.9 162.73 588.47 164.46 591.28 162.73 592.94 165.55 594.42 164.21 596.72 164.53 597.68 162.99 Z M 584.18 146.87 586.29 148.53 590.07 148.6 592.56 149.94 593.2 161.33 584.44 160.82 582.26 149.3 583.35 145.27 584.18 146.87 Z M 622.17 110.21 620.76 109.19 620.96 108.42 622.36 109.19 622.17 110.21 Z M 307.4 175.79 304.39 175.98 308.8 172.78 309 174.38 307.4 175.79 Z" fill-rule="evenodd" transform="translate(-1,-1) "/></svg>