<svg xmlns="http://www.w3.org/2000/svg" viewBox="0 0 13.8699951171875 8.989990234375"><path d="M 463.35 259.55 463.34 259.6 463.34 259.97 463.34 260.01 463.37 260.06 463.39 260.1 463.4 260.13 463.4 260.17 463.38 260.25 463.35 260.35 463.31 260.43 463.28 260.47 463.25 260.48 463.15 260.57 463.13 260.6 463.12 260.64 463.12 260.7 463.09 260.65 462.99 260.6 462.96 260.58 462.94 260.55 462.88 260.53 462.78 260.51 462.73 260.52 462.65 260.56 462.61 260.57 462.46 260.56 462.42 260.57 462.33 260.62 462.27 260.7 462.26 260.73 462.14 261.05 462.11 261.1 462.07 261.13 461.92 261.17 461.89 261.19 461.88 261.19 461.85 261.19 461.85 261.21 461.93 261.27 461.95 261.3 461.94 261.33 461.9 261.46 461.87 261.61 461.85 261.64 461.84 261.66 461.82 261.68 461.81 261.71 461.81 261.78 461.85 261.92 461.85 261.98 461.84 262.18 461.85 262.23 461.81 262.26 461.81 262.31 461.83 262.38 461.84 262.46 461.84 262.6 461.83 262.66 461.83 262.68 461.71 262.68 461.6 262.66 461.5 262.66 461.47 262.67 461.46 262.68 461.44 262.73 461.44 262.76 461.44 262.79 461.46 262.81 461.49 262.83 461.43 262.84 461.33 262.88 461.28 262.89 461.24 262.92 461.25 263 461.27 263.08 461.29 263.14 461.26 263.12 461.05 263.11 460.98 263.15 460.96 263.21 460.94 263.29 460.91 263.36 460.87 263.34 460.85 263.37 460.86 263.41 460.88 263.44 460.87 263.46 460.87 263.48 460.88 263.52 460.89 263.5 460.89 263.5 460.89 263.5 460.88 263.48 460.9 263.42 460.97 263.5 460.99 263.5 461.02 263.48 461.03 263.44 461.06 263.43 461.1 263.46 461.12 263.43 461.13 263.44 461.15 263.45 461.17 263.46 461.2 263.46 461.22 263.44 461.25 263.43 461.28 263.44 461.27 263.46 461.27 263.46 461.27 263.46 461.26 263.46 461.27 263.52 461.3 263.55 461.33 263.56 461.38 263.52 461.39 263.55 461.4 263.57 461.42 263.57 461.44 263.56 461.44 263.59 461.43 263.59 461.4 263.61 461.41 263.64 461.42 263.64 461.44 263.65 461.42 263.68 461.42 263.72 461.43 263.76 461.46 263.79 461.49 263.8 461.52 263.8 461.54 263.79 461.58 263.79 461.58 263.81 461.57 263.83 461.57 263.84 461.58 263.86 461.6 263.87 461.54 263.92 461.52 263.98 461.53 264.03 461.58 264.08 461.57 264.08 461.57 264.09 461.57 264.1 461.64 264.15 461.66 264.17 461.67 264.19 461.69 264.22 461.72 264.25 461.75 264.26 461.74 264.27 461.74 264.29 461.73 264.3 461.8 264.34 461.82 264.36 461.85 264.44 461.97 264.52 461.99 264.55 462.01 264.58 462.04 264.59 462.03 264.62 462.04 264.65 462.06 264.67 462.08 264.69 462.08 264.7 462.08 264.71 462.07 264.71 462.07 264.71 462.09 264.74 462.11 264.77 462.11 264.82 462.1 264.85 462.1 264.88 462.1 264.88 462.02 264.86 461.99 264.85 461.88 264.87 461.85 264.86 461.79 264.83 461.74 264.81 461.72 264.81 461.68 264.82 461.67 264.82 461.66 264.81 461.65 264.82 461.64 264.82 461.63 264.85 461.63 264.89 461.63 264.92 461.66 264.94 461.66 264.96 461.63 264.97 461.6 264.97 461.57 264.96 461.45 264.9 461.37 264.89 461.2 264.94 461.2 264.97 461.19 264.98 461.18 264.98 461.16 264.97 461.14 264.99 461.12 265.01 461.07 265.03 461.07 265.03 461.08 265.04 461.09 265.04 461.09 265.04 461.09 265.05 461.07 265.06 461.07 265.06 461.1 265.08 461.06 265.09 461.03 265.07 460.98 265 460.95 264.97 460.78 264.88 460.73 264.83 460.68 264.77 460.59 264.63 460.53 264.57 460.46 264.53 460.38 264.51 460.33 264.52 460.3 264.54 460.25 264.6 460.25 264.62 460.24 264.63 460.24 264.63 460.18 264.62 460.13 264.61 460.11 264.62 460.07 264.59 460.04 264.57 460 264.55 459.96 264.55 459.95 264.55 459.9 264.58 459.85 264.67 459.81 264.7 459.78 264.72 459.76 264.75 459.74 264.78 459.71 264.81 459.7 264.82 459.65 264.81 459.63 264.82 459.61 264.84 459.59 264.84 459.57 264.84 459.54 264.84 459.52 264.85 459.49 264.87 459.47 264.89 459.45 264.9 459.43 264.9 459.38 264.86 459.36 264.85 459.34 264.86 459.29 264.91 459.27 264.92 459.22 264.93 459.02 264.89 458.98 264.9 458.94 264.92 458.88 264.99 458.86 265 458.85 265.02 458.84 265.04 458.84 265.05 458.87 265.07 458.87 265.08 458.87 265.09 458.86 265.12 458.86 265.13 458.86 265.15 458.86 265.17 458.85 265.23 458.83 265.28 458.8 265.32 458.69 265.35 458.47 265.34 458.37 265.42 458.34 265.5 458.33 265.56 458.35 265.62 458.37 265.65 458.29 265.66 458.24 265.65 458.21 265.62 458.15 265.55 458.13 265.54 458.1 265.54 458.05 265.59 457.93 265.59 457.87 265.61 457.81 265.66 457.8 265.66 457.78 265.66 457.77 265.67 457.75 265.68 457.74 265.72 457.74 265.76 457.74 265.81 457.76 265.84 457.77 265.86 457.78 265.88 457.81 265.89 457.84 265.9 457.87 265.91 457.89 265.94 457.9 265.96 457.92 266.04 457.92 266.06 457.92 266.1 457.92 266.12 457.94 266.13 457.97 266.14 457.98 266.15 458 266.19 458 266.23 457.99 266.26 457.99 266.3 457.96 266.32 457.96 266.34 457.98 266.4 457.99 266.41 458.02 266.44 458.03 266.46 458.02 266.48 458.01 266.49 458 266.49 457.99 266.51 457.96 266.58 457.93 266.66 457.9 266.7 457.89 266.71 457.87 266.7 457.68 266.75 457.65 266.76 457.59 266.8 457.54 266.82 457.52 266.83 457.49 266.82 457.46 266.82 457.4 266.85 457.37 266.86 457.33 266.84 457.26 266.77 457.21 266.75 457.19 266.76 457.11 266.81 457.03 266.82 457.01 266.83 456.98 266.85 456.96 266.86 456.95 266.87 456.92 266.88 456.9 266.87 456.86 266.84 456.83 266.84 456.64 266.82 456.61 266.83 456.59 266.86 456.58 266.89 456.56 266.92 456.54 266.93 456.52 266.92 456.5 266.92 456.48 266.92 456.42 266.93 456.05 267.05 456 267.05 455.95 267.04 455.9 267.02 455.81 266.89 455.77 266.85 455.76 266.85 455.68 266.81 455.67 266.8 455.65 266.77 455.64 266.76 455.63 266.76 455.59 266.77 455.23 266.61 455.16 266.57 455.14 266.57 455.11 266.57 455.07 266.59 454.98 266.6 454.97 266.63 454.98 266.69 454.96 266.73 454.92 266.73 454.87 266.68 454.79 266.59 454.75 266.55 454.71 266.53 454.67 266.52 454.61 266.52 454.63 266.49 454.55 266.49 454.52 266.49 454.49 266.45 454.49 266.44 454.49 266.41 454.49 266.4 454.48 266.39 454.46 266.37 454.45 266.36 454.44 266.35 454.43 266.34 454.42 266.32 454.41 266.3 454.4 266.22 454.38 266.14 454.33 266.1 454.27 266.12 454.22 266.13 454.17 266.2 454.14 266.21 454.09 266.2 454.06 266.2 453.98 266.22 453.96 266.23 453.91 266.22 453.89 266.22 453.87 266.23 453.86 266.23 453.84 266.23 453.83 266.21 453.84 266.19 453.83 266.16 453.79 266.13 453.76 266.09 453.72 266.1 453.68 266.12 453.64 266.14 453.64 266.14 453.6 266.17 453.59 266.19 453.58 266.23 453.58 266.25 453.56 266.24 453.55 266.23 453.54 266.21 453.52 266.2 453.46 266.18 453.37 266.17 453.31 266.2 453.31 266.3 453.32 266.36 453.32 266.39 453.3 266.41 453.28 266.42 453.25 266.42 453.2 266.39 453.19 266.41 453.18 266.41 453.17 266.42 453.16 266.42 453.12 266.46 453.09 266.46 452.98 266.39 452.97 266.38 452.91 266.44 452.87 266.46 452.83 266.47 452.78 266.47 452.74 266.47 452.71 266.49 452.66 266.57 452.62 266.58 452.55 266.56 452.47 266.57 452.43 266.58 452.37 266.64 452.37 266.64 452.34 266.66 452.27 266.66 452.12 266.58 451.9 266.57 451.86 266.59 451.79 266.64 451.75 266.66 451.71 266.66 451.68 266.64 451.66 266.61 451.62 266.58 451.58 266.58 451.53 266.6 451.48 266.64 451.45 266.67 451.44 266.69 451.44 266.74 451.43 266.77 451.41 266.79 451.38 266.81 451.33 266.82 451.24 266.83 450.8 266.76 450.85 266.72 450.86 266.67 450.85 266.61 450.84 266.54 450.85 266.52 450.88 266.49 450.88 266.48 450.88 266.46 450.87 266.43 450.86 266.42 450.86 266.21 450.86 266.17 450.87 266.12 450.87 266.1 450.86 266.08 450.84 266.05 450.84 266.03 450.83 265.99 450.83 265.95 450.84 265.91 450.85 265.87 450.86 265.86 450.9 265.85 450.91 265.85 450.92 265.83 450.93 265.79 450.95 265.76 450.98 265.71 451 265.64 451 265.57 450.96 265.51 450.94 265.5 450.89 265.49 450.86 265.48 450.85 265.46 450.8 265.35 450.78 265.25 450.76 265.21 450.75 265.2 450.73 265.19 450.72 265.18 450.72 265.18 450.71 265.16 450.71 265.11 450.71 265.09 450.69 265.02 450.67 264.95 450.67 264.88 450.66 264.85 450.64 264.82 450.64 264.82 450.64 264.78 450.64 264.78 450.64 264.76 450.62 264.74 450.6 264.73 450.59 264.72 450.55 264.74 450.54 264.74 450.52 264.72 450.51 264.7 450.51 264.68 450.5 264.67 450.47 264.67 450.37 264.67 450.36 264.67 450.35 264.66 450.34 264.64 450.33 264.63 450.26 264.62 450.16 264.57 450.14 264.55 449.94 264.42 449.9 264.37 449.89 264.36 449.86 264.31 449.83 264.23 449.75 264.16 449.53 263.87 449.57 263.84 449.67 263.84 449.71 263.83 449.74 263.79 449.77 263.68 449.81 263.63 449.84 263.62 449.87 263.61 449.89 263.59 449.92 263.55 449.95 263.44 449.96 263.37 449.95 263.33 449.95 263.33 449.93 263.29 449.9 263.25 449.83 263.2 449.72 263.1 449.71 263.09 449.72 263.03 449.74 262.91 449.75 262.88 449.76 262.81 449.75 262.76 449.8 262.65 449.83 262.63 449.84 262.62 449.84 262.61 449.84 262.6 449.83 262.59 449.8 262.56 449.77 262.52 449.72 262.39 449.71 262.38 449.71 262.37 449.72 262.36 449.73 262.34 449.75 262.32 449.81 262.29 449.83 262.27 449.87 262.21 449.89 262.2 449.92 262.2 449.96 262.2 449.97 262.19 449.97 262.19 449.99 262.18 450.02 262.15 450.08 262.15 450.24 262.19 450.31 262.18 450.38 262.15 450.4 262.12 450.41 262.11 450.42 262.08 450.46 261.93 450.47 261.89 450.49 261.87 450.51 261.85 450.58 261.84 450.6 261.83 450.6 261.83 450.6 261.83 450.6 261.83 450.63 261.78 450.73 261.7 450.74 261.67 450.75 261.62 450.77 261.6 450.78 261.58 450.82 261.56 450.84 261.55 450.89 261.48 450.93 261.38 450.95 261.28 450.95 261.24 450.94 261.2 450.91 261.19 450.8 261.16 450.76 261.14 450.73 261.11 450.67 261.03 450.61 260.97 450.6 260.95 450.59 260.93 450.59 260.88 450.58 260.85 450.55 260.81 450.39 260.65 450.37 260.64 450.36 260.63 450.32 260.61 450.3 260.61 450.26 260.61 450.24 260.6 450.23 260.59 450.22 260.58 450.2 260.53 450.18 260.51 450.16 260.51 450.11 260.51 450.09 260.51 450.07 260.49 450.04 260.45 450.02 260.43 449.95 260.4 449.92 260.37 449.9 260.31 449.85 260.17 449.83 260.11 449.83 260.09 449.83 260.08 449.83 260.06 449.84 260.06 449.84 260.05 449.84 260.04 449.83 260.03 449.83 260.02 449.82 260.01 449.83 260 449.83 259.99 449.83 259.99 449.84 259.99 449.83 259.99 449.83 259.98 449.82 259.95 449.81 259.88 449.8 259.84 449.78 259.81 449.71 259.78 449.68 259.75 449.66 259.72 449.65 259.68 449.63 259.64 449.62 259.6 449.62 259.58 449.63 259.53 449.63 259.5 449.57 259.43 449.54 259.35 449.55 259.28 449.58 259.21 449.6 259.12 449.61 259.03 449.61 259.01 449.64 258.97 449.64 258.96 449.65 258.91 449.65 258.82 449.65 258.78 449.68 258.74 449.73 258.72 449.8 258.71 449.83 258.7 449.88 258.7 449.91 258.67 449.93 258.62 449.95 258.59 450 258.57 450.04 258.57 450.08 258.57 450.11 258.52 450.11 258.49 450.09 258.43 450.09 258.4 450.09 258.36 450.12 258.27 450.11 258.27 450.11 258.26 450.11 258.24 450.11 258.23 450.12 258.22 450.15 258.18 450.19 258.12 450.2 258.1 450.3 258.06 450.78 258.38 450.86 258.42 450.96 258.43 451 258.45 451.05 258.48 451.07 258.57 451.03 258.66 450.96 258.71 450.91 258.71 450.82 258.74 450.77 258.75 450.73 258.78 450.71 258.85 450.65 259.08 450.65 259.15 450.68 259.21 450.74 259.25 450.81 259.27 451.1 259.24 451.28 259.23 451.34 259.2 451.42 259.18 451.5 259.14 451.7 259.11 452.06 259.13 452.3 259.26 452.36 259.27 452.39 259.28 452.58 259.23 452.63 259.24 452.76 259.32 453.53 259.51 453.55 259.52 453.95 259.5 453.99 259.5 454.03 259.49 454.16 259.39 454.23 259.37 454.31 259.38 454.67 259.51 454.76 259.55 454.87 259.56 455.34 259.53 455.6 259.62 455.89 259.64 455.98 259.67 456.05 259.71 456.06 259.71 456.13 259.77 456.21 259.82 456.31 259.83 456.36 259.82 456.45 259.78 456.49 259.77 456.5 259.77 456.6 259.78 456.65 259.77 456.69 259.75 456.73 259.74 456.78 259.72 456.83 259.69 456.87 259.66 456.9 259.63 457.04 259.62 457.06 259.62 457.15 259.58 457.2 259.5 457.2 259.49 457.28 259.41 457.34 259.37 457.45 259.24 457.47 259.2 457.49 259.16 457.75 258.96 457.77 258.92 457.81 258.86 457.89 258.77 457.97 258.72 458.15 258.68 458.32 258.6 458.37 258.59 458.56 258.57 458.99 258.5 459.07 258.48 459.11 258.47 459.13 258.46 459.18 258.44 459.2 258.43 459.3 258.43 459.38 258.41 459.59 258.28 459.85 258.25 459.91 258.22 460.07 258.32 460.31 258.36 460.35 258.39 460.41 258.39 460.41 258.39 460.45 258.42 460.44 258.49 460.48 258.54 460.61 258.6 460.63 258.62 460.68 258.7 460.7 258.72 461.12 258.71 461.25 258.67 461.3 258.69 461.35 258.78 461.36 258.8 461.45 258.92 461.6 258.88 461.75 258.8 461.87 258.78 461.87 258.78 461.92 258.87 462.02 259.22 462.1 259.28 462.56 259.49 463.03 259.57 463.35 259.55 Z" id="Bulgaria" transform="translate(-449.5299987792969,-258.05999755859375) "/></svg>