<svg xmlns="http://www.w3.org/2000/svg" viewBox="0 0 17.53997802734375 12.82000732421875"><path d="M 400.48 333.75 400.49 333.81 400.47 333.84 400.44 333.86 400.41 333.9 400.41 333.96 400.47 334.09 400.49 334.16 400.34 334.58 400.35 334.7 400.42 334.81 400.45 334.84 400.77 335.13 400.86 335.25 400.87 335.27 400.87 335.29 400.84 335.31 400.84 335.33 400.82 335.4 400.81 335.43 400.76 335.51 400.75 335.54 400.76 335.57 400.79 335.61 400.8 335.62 400.82 335.63 400.83 335.65 400.84 335.67 400.84 335.68 400.82 335.72 400.82 335.74 400.84 335.76 400.87 335.77 400.89 335.79 400.9 335.83 400.91 335.87 400.95 335.9 400.99 335.92 401.01 335.95 401.01 335.97 400.99 336.01 400.99 336.03 401.01 336.05 401.05 336.08 401.07 336.1 401.09 336.14 401.11 336.16 401.12 336.18 401.15 336.21 401.23 336.26 401.25 336.29 401.27 336.31 401.32 336.33 401.33 336.35 401.32 336.39 401.3 336.44 401.29 336.47 401.32 336.53 401.38 336.55 401.67 336.54 401.69 336.55 401.7 336.56 401.7 336.58 401.7 336.59 401.7 336.6 401.69 336.61 401.69 336.63 401.72 336.65 401.76 336.67 401.8 336.68 401.89 336.67 401.99 336.7 402.11 336.77 402.2 336.87 402.21 336.97 402.25 337.04 402.32 337.09 402.57 337.2 402.6 337.21 402.7 337.23 402.74 337.24 402.77 337.26 402.81 337.31 402.75 337.33 402.71 337.31 402.67 337.28 402.63 337.27 402.62 337.28 402.61 337.3 402.59 337.38 402.57 337.39 402.52 337.37 402.4 337.34 402.23 337.26 402.18 337.26 402.15 337.35 402.15 337.54 402.15 337.75 402.15 337.9 402.15 337.94 402.16 337.98 402.18 338.02 402.24 338.05 402.4 338.06 402.47 338.1 402.6 338.2 402.73 338.32 402.89 338.45 402.95 338.5 403.13 338.65 403.25 338.76 403.4 338.89 403.47 338.92 403.54 338.94 403.77 338.96 404.05 338.98 404.09 338.98 404.12 338.95 404.15 338.92 404.17 338.87 404.21 338.82 404.23 338.79 404.24 338.77 404.26 338.77 404.27 338.78 404.29 338.78 404.31 338.77 404.35 338.72 404.37 338.71 404.59 338.73 404.68 338.75 404.73 338.82 404.75 338.87 404.75 338.88 404.78 338.9 404.8 338.92 404.84 338.95 404.86 338.97 404.88 339 404.88 339.03 404.9 339.17 404.91 339.2 404.93 339.23 404.94 339.25 404.97 339.28 404.98 339.3 404.98 339.3 404.97 339.33 404.97 339.34 404.98 339.39 404.96 339.41 404.93 339.42 404.8 339.43 404.79 339.43 404.76 339.42 404.75 339.42 404.74 339.43 404.72 339.45 404.71 339.45 404.59 339.48 404.55 339.51 404.55 339.57 404.59 339.65 404.69 339.79 404.85 340.02 405.01 340.23 405.18 340.48 405.3 340.58 405.22 340.8 405.19 340.85 405.1 340.95 405.08 341.01 405.08 341.05 405.08 341.08 405.07 341.1 405.04 341.13 404.92 341.19 404.76 341.33 404.47 341.62 404.46 341.63 404.4 341.66 404.32 341.66 404.22 341.62 404.17 341.59 404.14 341.59 404.12 341.6 404.08 341.59 404.04 341.6 403.95 341.64 403.91 341.64 403.81 341.63 403.78 341.64 403.73 341.66 403.63 341.68 403.59 341.7 403.55 341.72 403.5 341.63 403.47 341.64 403.47 341.62 403.47 341.59 403.48 341.57 403.27 341.56 403.23 341.55 403.19 341.53 403.18 341.56 403.16 341.57 403.15 341.57 403.13 341.58 403.1 341.6 403.08 341.63 403.08 341.65 403.1 341.7 403.06 341.72 403.01 341.74 402.97 341.77 402.95 341.81 402.96 341.85 402.98 341.88 402.99 341.91 402.95 341.94 402.93 341.92 402.92 341.92 402.9 341.92 402.89 341.94 402.87 341.92 402.85 341.89 402.82 341.88 402.81 341.9 402.82 341.92 402.84 341.94 402.84 341.97 402.84 341.98 402.81 342.04 402.74 342 402.7 341.99 402.66 341.99 402.64 341.99 402.63 342 402.62 342 402.6 342 402.6 341.99 402.58 341.97 402.56 341.95 402.54 341.99 402.52 342.01 402.51 342.04 402.55 342.1 402.56 342.18 402.57 342.22 402.54 342.21 402.5 342.19 402.48 342.19 402.47 342.2 402.45 342.24 402.44 342.25 402.37 342.27 402.35 342.27 402.36 342.31 402.37 342.3 402.38 342.29 402.4 342.3 402.4 342.3 402.4 342.33 402.4 342.34 402.41 342.35 402.43 342.36 402.43 342.36 402.44 342.38 402.44 342.41 402.44 342.43 402.45 342.46 402.48 342.48 402.48 342.52 402.47 342.53 402.45 342.51 402.44 342.49 402.43 342.48 402.41 342.47 402.34 342.47 402.33 342.47 402.31 342.48 402.29 342.48 402.29 342.48 402.28 342.45 402.27 342.45 402.26 342.44 402.25 342.43 402.23 342.42 402.19 342.42 402.18 342.41 402.17 342.42 402.15 342.44 402.14 342.46 402.12 342.49 402.11 342.5 402.11 342.52 402.11 342.54 402.12 342.56 402.14 342.57 402.15 342.58 402.15 342.61 402.14 342.64 402.14 342.65 402.1 342.65 402.07 342.64 402 342.61 401.71 342.61 401.5 342.62 401.36 342.64 401.08 342.74 401.11 342.65 401.07 342.64 401.08 342.63 401.08 342.62 401.08 342.61 401.09 342.6 401.09 342.59 401.08 342.59 401.08 342.58 400.83 342.53 400.64 342.49 400.13 342.39 399.86 342.34 399.74 342.31 399.63 342.29 399.33 342.23 399.33 342.26 399.33 342.28 399.34 342.3 399.32 342.34 399.29 342.36 399.18 342.45 399.14 342.4 399.1 342.36 399.06 342.36 399.01 342.42 399 342.45 399 342.5 398.99 342.52 398.96 342.55 398.9 342.57 398.88 342.6 398.88 342.6 398.88 342.61 398.87 342.61 398.86 342.61 398.86 342.62 398.77 342.61 398.72 342.62 398.69 342.63 398.67 342.67 398.65 342.72 398.63 342.77 398.59 342.8 398.49 342.7 398.49 342.68 398.51 342.66 398.52 342.64 398.51 342.63 398.49 342.63 398.47 342.63 398.46 342.63 398.46 342.6 398.44 342.6 398.19 342.6 398.19 342.6 398.18 342.58 398.17 342.58 398.15 342.58 398.14 342.6 398.09 342.61 398.04 342.66 398 342.67 398.02 342.64 398 342.64 397.98 342.63 397.97 342.6 397.95 342.59 397.93 342.58 397.63 342.56 397.56 342.57 397.54 342.6 397.28 342.6 397 342.6 396.94 342.59 396.87 342.56 396.84 342.55 396.82 342.54 396.54 342.53 396.5 342.54 396.48 342.58 396.46 342.6 396.11 342.6 395.63 342.61 395.13 342.61 394.59 342.62 394.16 342.62 393.95 342.62 393.9 342.62 393.9 342.6 393.71 342.6 393.71 342.61 393.71 342.62 393.72 342.67 393.75 342.71 393.76 342.75 393.75 342.8 393.72 342.83 393.68 342.86 393.65 342.9 393.63 342.94 393.61 343.05 393.57 343.11 393.56 343.16 393.55 343.18 393.53 343.2 393.52 343.22 393.53 343.24 393.53 343.25 393.53 343.25 393.54 343.25 393.55 343.26 393.56 343.27 393.56 343.28 393.56 343.29 393.55 343.3 393.54 343.34 393.51 343.39 393.5 343.41 393.51 343.45 393.58 343.57 393.58 343.59 393.58 343.64 393.59 343.66 393.6 343.68 393.63 343.71 393.64 343.72 393.64 343.76 393.66 343.79 393.74 343.86 393.77 343.87 393.8 343.88 393.86 343.88 393.87 343.89 393.86 343.91 393.84 343.93 393.81 343.94 393.78 343.94 393.76 343.95 393.74 343.96 393.73 343.98 393.71 344.02 393.7 344.06 393.7 344.11 393.72 344.15 393.74 344.15 393.76 344.16 393.78 344.16 393.79 344.18 393.79 344.2 393.81 344.21 393.83 344.21 393.85 344.21 393.87 344.23 393.89 344.24 393.89 344.25 393.89 344.28 393.89 344.31 393.87 344.33 393.83 344.36 393.8 344.41 393.8 344.45 393.82 344.55 393.82 344.74 393.83 344.79 393.88 344.86 393.89 344.9 393.89 344.96 393.87 345.06 393.88 345.12 393.93 345.2 393.94 345.23 393.93 345.25 393.85 345.33 393.81 345.41 393.8 345.46 393.82 345.5 393.84 345.52 393.85 345.52 393.86 345.52 393.88 345.53 393.89 345.55 393.89 345.57 393.9 345.59 393.92 345.6 393.93 345.61 393.9 345.63 393.88 345.67 393.87 345.7 393.86 345.74 393.87 345.78 393.88 345.8 393.96 345.87 394.04 345.97 393.97 346.04 393.92 346.15 393.87 346.19 393.82 346.18 393.77 346.15 393.55 345.85 393.44 345.64 393.4 345.53 393.37 345.48 393.34 345.45 393.3 345.44 393.22 345.46 393.18 345.46 393.14 345.42 393.12 345.37 393.09 345.27 393.05 345.21 393 345.2 392.95 345.2 392.91 345.18 392.9 345.13 392.9 345.08 392.9 345.04 392.87 345.02 392.84 345.04 392.76 345.15 392.73 345.18 392.68 345.19 392.66 345.16 392.65 345.11 392.66 345.07 392.65 345.05 392.62 345.06 392.6 345.08 392.58 345.08 392.55 345.07 392.52 345.03 392.49 345.02 392.14 345 392.01 345.01 391.97 345 391.94 344.99 391.93 344.97 391.91 344.95 391.88 344.94 391.88 344.95 391.86 344.97 391.84 344.98 391.83 344.98 391.8 344.96 391.78 344.96 391.68 344.97 391.64 344.98 391.62 345 391.59 345.04 391.57 345.05 391.52 345.06 391.38 345.07 391.37 345.07 391.33 345.08 391.25 345.13 391.2 345.15 391.17 345.16 391.16 345.2 391.15 345.23 391.07 345.23 391.06 345.24 391.02 345.25 391.02 345.26 391.02 345.27 391.01 345.28 391 345.29 390.99 345.28 390.96 345.27 390.84 345.23 390.8 345.24 390.76 345.27 390.7 345.36 390.66 345.38 390.57 345.39 390.53 345.4 390.5 345.43 390.51 345.43 390.54 345.44 390.47 345.51 390.46 345.53 390.46 345.55 390.47 345.6 390.46 345.63 390.43 345.69 390.42 345.7 390.42 345.7 390.36 345.68 390.32 345.67 390.32 345.7 390.32 345.74 390.31 345.76 390.28 345.75 390.27 345.72 390.25 345.65 390.23 345.62 390.17 345.6 390.09 345.61 390.02 345.6 389.99 345.55 389.99 345.51 390.02 345.46 390.02 345.42 390.02 345.41 390 345.4 389.99 345.4 389.95 345.4 389.94 345.4 389.94 345.41 389.93 345.42 389.92 345.46 389.92 345.49 389.91 345.51 389.88 345.52 389.85 345.51 389.82 345.46 389.79 345.44 389.77 345.47 389.74 345.48 389.71 345.49 389.68 345.49 389.68 345.49 389.67 345.51 389.66 345.52 389.64 345.53 389.62 345.54 389.62 345.54 389.62 345.53 389.61 345.52 389.58 345.51 389.57 345.5 389.56 345.48 389.56 345.45 389.55 345.44 389.53 345.42 389.52 345.4 389.51 345.39 389.5 345.38 389.47 345.38 389.45 345.38 389.44 345.39 389.45 345.4 389.46 345.41 389.43 345.42 389.4 345.37 389.37 345.38 389.36 345.36 389.36 345.35 389.34 345.33 389.34 345.32 389.36 345.32 389.38 345.32 389.41 345.3 389.39 345.27 389.38 345.22 389.36 345.18 389.32 345.2 389.31 345.15 389.27 345.12 389.23 345.11 389.18 345.1 389.16 345.1 389.15 345.09 389.14 345.08 389.12 345.07 389.1 345.08 389.09 345.1 389.08 345.12 389.06 345.11 388.99 345.05 388.99 345.03 389.02 344.93 389.02 344.92 388.99 344.87 388.97 344.84 388.96 344.81 389 344.81 389.01 344.78 389 344.74 388.97 344.71 388.95 344.69 388.92 344.67 388.89 344.65 388.88 344.61 388.86 344.63 388.83 344.64 388.81 344.64 388.79 344.61 388.82 344.6 388.81 344.59 388.79 344.59 388.78 344.58 388.76 344.58 388.78 344.57 388.83 344.55 388.83 344.53 388.77 344.49 388.76 344.47 388.77 344.43 388.72 344.43 388.72 344.41 388.74 344.37 388.73 344.32 388.72 344.34 388.71 344.35 388.7 344.36 388.68 344.37 388.66 344.36 388.65 344.36 388.66 344.34 388.67 344.33 388.67 344.21 388.65 344.17 388.65 344.17 388.62 344.15 388.58 344.15 388.56 344.18 388.54 344.18 388.43 344.11 388.4 344.12 388.3 344.11 388.26 344.11 388.24 344.12 388.23 344.13 388.22 344.15 388.19 344.15 388.17 344.15 388.15 344.15 388.14 344.15 388.13 344.14 388.13 344.15 388.12 344.16 388.11 344.17 388.06 344.17 388.02 344.16 387.99 344.14 387.97 344.12 387.96 344.11 387.96 344.09 387.95 344.07 387.93 344.06 387.91 344.06 387.9 344.06 387.87 344.05 387.86 344.01 387.84 343.95 387.8 343.9 387.76 343.88 387.77 343.85 387.79 343.73 387.8 343.71 387.85 343.63 387.88 343.51 387.87 343.49 387.86 343.48 387.86 343.44 387.87 343.41 387.9 343.39 387.86 343.37 387.86 343.36 387.85 343.32 387.85 343.3 387.87 343.18 387.88 343.15 387.89 343.13 387.91 343.12 387.93 343.11 387.93 343.09 387.93 343.07 387.96 342.94 387.95 342.91 387.93 342.86 387.88 342.71 387.85 342.65 387.8 342.66 387.82 342.6 387.8 342.48 387.79 342.46 387.8 342.43 387.83 342.41 388.05 342.38 388.09 342.37 388.13 342.35 388.18 342.32 388.2 342.29 388.22 342.2 388.24 342.14 388.31 342.07 388.33 342.03 388.34 341.99 388.32 341.76 388.33 341.72 388.37 341.69 388.41 341.66 388.43 341.64 388.43 341.61 388.42 341.56 388.42 341.38 388.4 341.3 388.32 341.24 388.29 341.23 388.27 341.23 388.25 341.23 388.23 341.2 388.23 341.18 388.25 341.15 388.26 341.13 388.28 341.11 388.29 341.02 388.3 340.97 388.3 340.93 388.28 340.89 388.25 340.86 388.22 340.83 388.18 340.82 388.15 340.81 388.13 340.81 388.1 340.81 388.09 340.81 388.03 340.77 388.02 340.77 388 340.74 388 340.73 388.02 340.73 388.05 340.72 388.06 340.73 388.08 340.74 388.1 340.75 388.11 340.75 388.13 340.73 388.13 340.72 388.21 340.71 388.22 340.71 388.23 340.7 388.24 340.69 388.25 340.69 388.27 340.7 388.28 340.71 388.29 340.71 388.31 340.71 388.32 340.7 388.37 340.64 388.45 340.57 388.51 340.5 388.54 340.47 388.61 340.45 388.69 340.41 388.72 340.39 388.75 340.39 388.84 340.39 388.88 340.39 388.91 340.39 388.93 340.38 388.95 340.37 388.97 340.35 389.02 340.33 389.07 340.34 389.11 340.35 389.16 340.35 389.26 340.32 389.3 340.32 389.34 340.35 389.38 340.34 389.45 340.33 389.48 340.31 389.5 340.29 389.51 340.26 389.53 340.23 389.55 340.21 389.57 340.21 389.62 340.21 389.64 340.21 389.68 340.19 389.69 340.18 389.7 340.16 389.7 340.12 389.72 340.08 389.8 340.04 389.87 340.03 389.89 340.01 389.84 339.9 390.03 339.74 390.04 339.73 390.04 339.72 390.04 339.69 390.05 339.66 390.05 339.64 390.05 339.62 390.08 339.61 390.11 339.61 390.13 339.62 390.15 339.65 390.17 339.67 390.23 339.65 390.21 339.56 390.13 339.36 390.15 339.31 390.19 339.26 390.23 339.22 390.26 339.18 390.28 339.15 390.27 339.14 390.26 339.13 390.24 339.1 390.2 339 390.16 338.96 390.06 338.89 390.04 338.85 390.06 338.73 390.07 338.73 390.08 338.73 390.1 338.73 390.1 338.73 390.17 338.7 390.24 338.68 390.32 338.68 390.38 338.69 390.44 338.73 390.47 338.74 390.52 338.73 390.56 338.72 390.59 338.7 390.59 338.7 390.61 338.67 390.66 338.53 390.66 338.5 390.64 338.4 390.64 338.27 390.63 338.21 390.58 338.15 390.52 338.1 390.49 338.06 390.43 337.93 390.37 337.87 390.36 337.85 390.36 337.82 390.37 337.8 390.38 337.78 390.41 337.71 390.45 337.69 390.59 337.7 390.61 337.69 390.63 337.67 390.62 337.65 390.58 337.63 390.56 337.61 390.57 337.57 390.6 337.53 390.64 337.5 390.68 337.47 390.7 337.47 390.72 337.47 390.74 337.47 390.77 337.46 390.81 337.41 390.84 337.36 390.88 337.27 390.9 337.22 390.94 337.19 390.96 337.18 391.02 337.16 391.04 337.15 391.07 337.11 391.1 337.1 391.12 337.1 391.16 337.07 391.18 337.05 391.2 337.03 391.18 337.01 391.15 337.01 391.14 337 391.17 336.97 391.17 336.96 391.18 336.96 391.19 336.96 391.2 336.97 391.21 336.98 391.21 336.99 391.22 337.03 391.23 337.05 391.25 337.05 391.3 337.06 391.32 337.07 391.31 337.09 391.3 337.1 391.28 337.11 391.26 337.11 391.22 337.16 391.2 337.17 391.17 337.19 391.2 337.22 391.25 337.23 391.29 337.23 391.34 337.23 391.37 337.23 391.45 337.26 391.54 337.29 391.58 337.3 391.74 337.44 391.85 337.5 392.03 337.64 392.04 337.64 392.07 337.64 392.09 337.65 392.12 337.68 392.14 337.7 392.16 337.7 392.21 337.7 392.3 337.71 392.33 337.72 392.35 337.71 392.38 337.67 392.37 337.63 392.35 337.55 392.36 337.49 392.4 337.47 392.77 337.45 392.8 337.43 392.72 336.86 392.75 336.78 392.77 336.73 392.77 336.6 392.76 336.55 392.71 336.51 392.76 336.47 392.82 336.49 392.92 336.56 392.98 336.57 393.03 336.56 393.07 336.56 393.13 336.59 393.17 336.63 393.18 336.65 393.18 336.68 393.2 336.72 393.23 336.71 393.26 336.67 393.29 336.65 393.31 336.65 393.36 336.65 393.38 336.66 393.4 336.67 393.41 336.68 393.43 336.67 393.5 336.65 393.58 336.62 393.52 336.4 393.51 336.28 393.54 336.19 393.58 336.13 393.67 335.83 393.67 335.83 393.66 335.83 393.66 335.82 393.64 335.82 393.7 335.73 394.03 335.55 394.07 335.5 394.19 335.36 394.24 335.32 394.42 335.22 394.54 335.19 394.71 335.22 395.23 335.47 395.3 335.49 395.34 335.48 395.38 335.46 395.49 335.41 395.51 335.4 395.51 335.37 395.56 334.82 395.57 334.76 395.64 334.73 395.75 334.72 395.93 334.74 396.08 334.73 396.24 334.7 397.01 334.2 397.1 334.16 397.52 334.05 397.61 334.02 397.69 333.97 397.69 333.97 398.15 333.56 398.15 333.56 398.26 333.44 398.29 333.42 398.33 333.39 398.4 333.37 398.89 333.37 398.96 333.37 398.98 333.38 399.03 333.52 399.06 333.55 399.12 333.55 399.2 333.51 399.34 333.43 399.48 333.4 399.63 333.44 399.93 333.56 399.93 333.56 400.48 333.75 Z" id="Burkina Faso" transform="translate(-387.760009765625,-333.3699951171875) "/></svg>