<svg xmlns="http://www.w3.org/2000/svg" viewBox="0 0 4.100006103515625 4.77001953125"><path d="M 467.73 372.24 467.66 372.33 467.63 372.38 467.54 372.58 467.52 372.65 467.51 372.67 467.49 372.7 467.44 372.75 467.42 372.78 467.41 372.83 467.44 372.85 467.48 372.86 467.53 372.84 467.61 372.8 467.66 372.79 467.64 372.83 467.52 372.96 467.5 372.99 467.49 373.02 467.49 373.08 467.44 373.14 467.42 373.19 467.42 373.23 467.48 373.3 467.51 373.33 467.55 373.34 467.54 373.37 467.55 373.39 467.57 373.41 467.58 373.43 467.58 373.43 467.59 373.43 467.64 373.37 467.66 373.35 467.69 373.34 467.71 373.34 467.86 373.42 467.89 373.44 467.9 373.44 467.9 373.46 467.91 373.49 467.91 373.5 467.94 373.51 467.97 373.5 467.99 373.49 468.02 373.49 468.04 373.5 468.09 373.53 468.12 373.54 468.17 373.54 468.28 373.51 468.33 373.51 468.32 373.54 468.31 373.55 468.24 373.63 468.23 373.66 468.24 373.69 468.29 373.75 468.31 373.78 468.31 373.79 468.3 373.82 468.3 373.83 468.31 373.85 468.34 373.87 468.35 373.88 468.35 373.91 468.34 373.94 468.33 373.99 468.29 374.04 468.3 374.05 468.31 374.09 468.31 374.1 468.27 374.16 468.22 374.2 468.16 374.21 468.1 374.18 468.09 374.2 468.08 374.22 468.06 374.24 468.03 374.24 467.97 374.26 467.92 374.29 467.88 374.33 467.84 374.38 467.85 374.39 467.92 374.42 467.92 374.48 467.86 374.54 467.75 374.59 467.73 374.62 467.71 374.64 467.69 374.64 467.63 374.65 467.63 374.66 467.63 374.68 467.62 374.68 467.58 374.69 467.58 374.68 467.58 374.68 467.54 374.69 467.53 374.7 467.53 374.72 467.52 374.73 467.46 374.77 467.45 374.8 467.45 374.85 467.45 374.89 467.43 374.93 467.34 375.07 467.33 375.11 467.33 375.11 467.32 375.15 467.33 375.19 467.35 375.22 467.35 375.26 467.35 375.3 467.25 375.26 467.19 375.3 467.11 375.45 466.99 375.56 466.96 375.61 466.92 375.77 466.89 375.85 466.88 375.86 466.83 375.95 466.77 376.04 466.61 376.16 466.59 376.19 466.53 376.33 466.51 376.36 466.46 376.39 466.44 376.41 466.36 376.45 466.28 376.53 466.16 376.58 466.14 376.59 466.11 376.58 466.08 376.57 466.06 376.57 466.02 376.59 466.02 376.6 466.01 376.63 466 376.65 465.96 376.67 465.95 376.68 465.94 376.71 465.94 376.74 465.93 376.77 465.91 376.79 465.9 376.78 465.81 376.77 465.7 376.75 465.18 376.76 465.11 376.22 465.1 376.18 465.04 375.97 464.9 375.74 464.81 375.65 464.78 375.6 464.76 375.54 464.74 375.28 464.76 375.12 464.78 375.03 464.78 374.86 464.74 374.3 464.75 374.23 464.76 374.2 464.81 374.15 464.82 374.14 464.78 374.11 464.76 374.07 464.76 373.92 464.77 373.88 464.78 373.84 464.81 373.83 464.82 373.8 464.82 373.79 464.8 373.66 464.78 373.63 464.75 373.6 464.71 373.59 464.67 373.59 464.63 373.57 464.61 373.53 464.6 373.48 464.59 373.45 464.56 373.43 464.52 373.41 464.48 373.39 464.47 373.36 464.46 373.32 464.46 373.3 464.42 373.25 464.4 373.2 464.39 373.18 464.36 373.16 464.31 373.16 464.27 373.15 464.25 373.11 464.26 373.06 464.27 373.03 464.3 373 464.35 373 464.32 372.94 464.36 372.72 464.41 372.67 464.53 372.66 464.57 372.67 464.71 372.73 464.76 372.74 464.85 372.75 464.9 372.77 464.94 372.79 464.96 372.81 464.96 372.82 464.96 372.85 464.97 372.87 464.97 372.88 465.02 372.92 465.03 372.95 465.03 372.97 465 373.01 464.99 373.03 464.99 373.06 465.01 373.11 465.02 373.13 465.04 373.18 465.09 373.17 465.19 373.13 465.23 373.12 465.27 373.13 465.35 373.15 465.4 373.18 465.44 373.16 465.48 373.14 465.53 373.13 465.56 373.13 465.57 373.12 465.59 373.11 465.66 373.09 465.67 373.09 465.7 373.1 465.79 373.13 465.83 373.14 465.88 373.13 465.9 373.12 465.91 373.1 465.92 373.05 465.93 373.03 465.96 373.03 466.01 373.04 466.06 373.05 466.11 373.04 466.15 373.01 466.2 372.97 466.23 372.93 466.25 372.88 466.27 372.83 466.29 372.78 466.29 372.76 466.3 372.53 466.34 372.37 466.33 372.2 466.34 372.09 466.34 372.07 466.35 372.05 466.37 372.05 466.39 372.06 466.4 372.08 466.41 372.08 466.45 372.11 466.46 372.11 466.48 372.11 466.5 372.11 466.53 372.12 466.56 372.14 466.63 372.22 466.66 372.26 466.71 372.29 466.76 372.31 466.81 372.3 466.85 372.28 466.95 372.15 466.95 372.14 466.95 372.12 466.96 372.1 466.99 372.1 467.05 372.14 467.08 372.14 467.12 372.14 467.16 372.13 467.2 372.12 467.23 372.1 467.26 372.08 467.27 372.06 467.28 372.05 467.3 372.03 467.34 372.02 467.35 372.03 467.42 372.04 467.43 372.04 467.44 372.05 467.45 372.08 467.46 372.1 467.58 372.2 467.66 372.23 467.73 372.24 Z" id="Burundi" transform="translate(-464.25,-372.0199890136719) "/></svg>