<svg xmlns="http://www.w3.org/2000/svg" viewBox="0 0 11.75 9.67999267578125"><path d="M 630.1 343.79 630.08 343.82 630.04 343.82 630.01 343.81 629.98 343.79 629.96 343.75 629.98 343.75 629.99 343.74 630.01 343.72 630 343.7 630 343.68 630.02 343.67 630.06 343.68 630.09 343.7 630.1 343.75 630.1 343.79 Z M 629.02 343.55 629.04 343.55 629.05 343.53 629.06 343.52 629.06 343.52 629.07 343.53 629.07 343.55 629.06 343.57 629.05 343.59 629.03 343.61 629.01 343.6 628.96 343.53 628.95 343.49 628.96 343.46 628.99 343.45 629.01 343.44 629.02 343.45 629.03 343.46 629.01 343.5 629.01 343.51 629.01 343.52 629.01 343.53 629.02 343.55 Z M 628.93 343.17 628.94 343.18 628.96 343.17 628.97 343.18 628.98 343.19 628.98 343.2 629 343.21 629.02 343.22 629.02 343.25 628.99 343.26 628.97 343.27 628.95 343.29 628.93 343.32 628.91 343.31 628.9 343.28 628.9 343.26 628.89 343.25 628.89 343.24 628.82 343.22 628.79 343.19 628.76 343.16 628.76 343.12 628.78 343.09 628.82 343.08 628.86 343.09 628.89 343.11 628.92 343.14 628.92 343.15 628.93 343.16 628.93 343.17 Z M 628.3 341.66 628.31 341.67 628.33 341.64 628.35 341.64 628.37 341.66 628.4 341.71 628.4 341.74 628.4 341.76 628.4 341.79 628.41 341.81 628.42 341.83 628.42 341.85 628.41 341.86 628.42 341.9 628.42 341.94 628.41 341.98 628.4 342 628.37 342.02 628.33 342.02 628.31 342.01 628.32 341.99 628.3 341.96 628.29 341.92 628.29 341.83 628.28 341.74 628.28 341.68 628.29 341.63 628.3 341.64 628.3 341.66 Z M 628.39 341.62 628.38 341.63 628.36 341.63 628.36 341.61 628.37 341.56 628.35 341.52 628.32 341.48 628.31 341.44 628.34 341.4 628.38 341.43 628.38 341.43 628.39 341.45 628.39 341.46 628.39 341.46 628.38 341.46 628.4 341.49 628.42 341.52 628.43 341.54 628.43 341.56 628.42 341.57 628.39 341.62 Z M 631.53 343.89 631.53 343.89 631.53 343.88 631.49 343.83 631.47 343.82 631.44 343.83 631.36 343.75 631.34 343.74 631.27 343.74 631.23 343.75 631.21 343.76 631.19 343.75 631.18 343.72 631.17 343.62 631.14 343.6 631.13 343.6 631.1 343.56 631.09 343.55 631.07 343.56 631.06 343.57 631.04 343.57 631.03 343.55 630.99 343.6 630.93 343.6 630.82 343.57 630.78 343.58 630.73 343.59 630.69 343.59 630.48 343.53 630.44 343.52 630.41 343.51 630.35 343.46 630.35 343.45 630.3 343.36 630.29 343.36 630.26 343.36 630.25 343.35 630.25 343.34 630.26 343.33 630.25 343.32 630.25 343.31 630.24 343.28 630.24 343.27 630.22 343.31 630.22 343.36 630.24 343.44 630.23 343.48 630.21 343.52 630.16 343.59 630.14 343.61 630.11 343.63 630.07 343.63 630.02 343.63 629.99 343.63 629.98 343.62 629.97 343.6 629.95 343.59 629.93 343.58 629.89 343.58 629.87 343.57 629.87 343.59 629.92 343.61 629.96 343.65 629.97 343.69 629.93 343.71 629.85 343.7 629.77 343.72 629.73 343.72 629.7 343.71 629.68 343.68 629.68 343.65 629.68 343.63 629.68 343.63 629.67 343.6 629.66 343.59 629.64 343.58 629.63 343.59 629.63 343.6 629.62 343.6 629.6 343.6 629.58 343.59 629.56 343.57 629.54 343.52 629.52 343.5 629.48 343.46 629.44 343.48 629.43 343.45 629.44 343.41 629.47 343.39 629.49 343.37 629.51 343.33 629.53 343.29 629.54 343.26 629.57 343.2 629.66 343.18 629.83 343.17 629.83 343.17 629.84 343.17 629.84 343.17 629.84 343.17 629.84 343.16 629.81 343.15 629.81 343.13 629.82 343.04 629.83 343.02 629.85 343 629.87 342.99 629.9 342.97 629.92 342.94 629.92 342.91 629.92 342.83 629.88 342.75 629.82 342.64 629.78 342.52 629.81 342.45 629.77 342.42 629.75 342.41 629.68 342.4 629.66 342.39 629.64 342.37 629.61 342.29 629.56 342.25 629.5 342.23 629.43 342.22 629.44 342.23 629.44 342.23 629.44 342.23 629.45 342.23 629.42 342.28 629.4 342.28 629.39 342.26 629.38 342.26 629.36 342.25 629.36 342.26 629.37 342.29 629.35 342.32 629.31 342.39 629.35 342.37 629.36 342.39 629.34 342.43 629.29 342.54 629.27 342.58 629.27 342.63 629.24 342.69 629.24 342.71 629.24 342.73 629.25 342.77 629.25 342.8 629.24 342.83 629.21 342.85 629.17 342.86 629.14 342.85 629.13 342.86 629.12 342.87 629.1 342.88 629.08 342.83 629.03 342.79 628.98 342.77 628.93 342.74 628.84 342.8 628.8 342.83 628.81 342.86 628.78 342.86 628.75 342.87 628.73 342.88 628.72 342.9 628.68 342.87 628.62 342.87 628.6 342.86 628.63 342.82 628.56 342.77 628.54 342.76 628.53 342.74 628.54 342.7 628.56 342.67 628.57 342.66 628.56 342.59 628.54 342.47 628.54 342.41 628.54 342.39 628.56 342.37 628.57 342.34 628.58 342.3 628.58 342.26 628.57 342.23 628.54 342.17 628.53 342.16 628.53 342.14 628.52 342.12 628.51 342.1 628.5 342.1 628.45 342.1 628.44 342.1 628.45 342.07 628.47 342.06 628.49 342.04 628.47 342.02 628.47 342 628.49 341.98 628.55 341.92 628.61 341.88 628.64 341.91 628.66 341.91 628.65 341.88 628.63 341.82 628.63 341.79 628.6 341.8 628.58 341.81 628.57 341.82 628.54 341.79 628.53 341.77 628.53 341.74 628.52 341.7 628.51 341.66 628.47 341.62 628.46 341.59 628.48 341.59 628.48 341.59 628.49 341.6 628.49 341.62 628.51 341.62 628.52 341.59 628.54 341.58 628.57 341.56 628.6 341.56 628.63 341.57 628.67 341.62 628.7 341.63 628.63 341.5 628.61 341.48 628.62 341.46 628.63 341.45 628.61 341.45 628.61 341.46 628.6 341.48 628.61 341.5 628.6 341.52 628.59 341.54 628.57 341.54 628.54 341.53 628.52 341.49 628.46 341.46 628.44 341.41 628.44 341.36 628.44 341.31 628.43 341.33 628.44 341.28 628.44 341.26 628.42 341.26 628.41 341.26 628.4 341.23 628.4 341.31 628.4 341.35 628.38 341.37 628.37 341.37 628.34 341.36 628.31 341.37 628.28 341.39 628.26 341.4 628.22 341.34 628.26 341.31 628.27 341.33 628.31 341.36 628.32 341.36 628.32 341.34 628.29 341.31 628.28 341.28 628.28 341.19 628.3 341.16 628.33 341.17 628.37 341.19 628.41 341.19 628.41 341.17 628.39 341.17 628.36 341.17 628.35 341.16 628.34 341.14 628.34 341.13 628.35 341.13 628.35 341.11 628.33 341.12 628.32 341.13 628.31 341.13 628.3 341.11 628.29 341.08 628.28 341.08 628.28 341.13 628.26 341.11 628.26 341.16 628.25 341.16 628.25 341.1 628.26 341.05 628.29 341.01 628.32 340.99 628.35 340.98 628.36 340.97 628.38 340.98 628.41 340.99 628.43 341.01 628.46 341 628.49 340.98 628.51 340.96 628.49 340.96 628.47 340.99 628.44 340.98 628.41 340.96 628.38 340.94 628.37 340.94 628.28 340.99 628.27 340.97 628.25 340.95 628.24 340.91 628.23 340.89 628.22 340.87 628.17 340.84 628.09 340.73 628.08 340.73 628.11 340.8 628.22 340.91 628.25 340.99 628.24 341.03 628.22 341.09 628.22 341.13 628.24 341.22 628.24 341.26 628.22 341.31 628.21 341.28 628.19 341.24 628.19 341.21 628.18 341.2 628.14 341.16 628.13 341.14 628.16 341.09 628.15 340.96 628.13 340.87 628.06 340.78 627.97 340.65 627.87 340.45 627.84 340.34 627.81 340.26 627.8 340.24 627.77 340.21 627.65 340.03 627.63 339.94 627.68 339.57 627.7 339.53 627.72 339.49 627.78 339.44 627.8 339.41 627.79 339.39 627.79 339.36 627.76 339.33 627.69 339.3 627.66 339.26 627.66 339.25 627.65 339.21 627.64 339.19 627.63 339.17 627.57 339.14 627.4 338.97 627.34 338.92 627.21 338.88 627.2 338.87 627.18 338.85 627.16 338.82 627.16 338.77 627.16 338.72 627.17 338.69 627.2 338.66 627.2 338.66 627.22 338.59 627.22 338.57 627.22 338.54 627.21 338.53 627.2 338.51 627.19 338.49 627.17 338.44 627.16 338.36 627.15 338.3 627.14 338.28 627.13 338.25 627.13 338.23 627.16 338.2 627.16 338.19 627.16 338.19 627.14 338.17 627.14 338.16 627.14 338.15 627.15 338.14 627.17 338.13 627.18 338.12 627.19 338.11 627.19 338.1 627.19 338.1 627.15 338.08 627.13 338.05 627.09 337.97 626.99 337.86 626.95 337.78 626.83 337.47 626.83 337.47 626.83 337.31 626.84 337.17 626.83 337 626.83 336.99 626.83 336.97 626.83 336.95 626.82 336.93 626.8 336.89 626.79 336.87 626.84 336.81 626.92 336.8 627.1 336.82 627.24 336.81 627.28 336.79 627.38 336.73 627.42 336.72 627.35 336.67 627.3 336.62 627.3 336.57 627.37 336.52 627.6 336.41 627.65 336.37 627.66 336.34 627.66 336.3 627.67 336.27 627.68 336.26 627.72 336.21 627.73 336.17 627.77 336.04 627.81 335.97 627.87 335.92 628 335.82 628.03 335.78 628.04 335.75 628.03 335.72 628.04 335.66 628.06 335.63 628.1 335.56 628.12 335.53 628.13 335.48 628.13 335.45 628.13 335.44 628.14 335.4 628.17 335.37 628.21 335.35 628.29 335.33 628.33 335.31 628.35 335.28 628.51 335.15 628.58 335.11 628.62 335.1 628.76 335.08 628.86 335.05 628.92 335.03 629.07 335.03 629.12 335.02 629.16 335.01 629.22 334.96 629.25 334.95 629.26 334.96 629.27 334.97 629.29 334.98 629.31 334.98 629.33 334.98 629.41 334.92 629.5 334.87 629.54 334.87 629.58 334.88 629.61 334.9 629.64 334.91 629.68 334.88 629.7 334.87 629.7 334.85 629.71 334.83 629.73 334.82 629.75 334.82 629.77 334.82 629.79 334.84 629.81 334.85 629.81 334.87 629.81 334.93 629.81 334.95 629.83 334.95 629.91 334.96 630.04 334.99 630.08 335 630.11 334.99 630.12 334.99 630.14 334.99 630.18 335 630.2 335.01 630.22 335.03 630.25 335.05 630.28 335.05 630.32 335.05 630.33 335.03 630.34 335.02 630.36 335 630.48 334.99 630.54 335.04 630.61 335.02 630.63 335.01 630.63 335.01 630.7 334.98 630.78 334.96 630.79 334.97 630.8 334.98 630.82 334.99 630.85 334.99 630.86 334.99 630.92 334.93 630.92 334.91 630.93 334.91 630.94 334.91 630.94 334.92 630.94 334.94 630.95 334.96 630.98 334.97 631.02 334.96 631.05 334.93 631.08 334.91 631.13 334.92 631.25 334.97 631.51 335 631.52 335.01 631.54 335.02 631.55 335.01 631.56 335.01 631.57 335.01 631.58 335 631.6 334.98 631.63 334.98 631.67 334.98 631.7 335 631.74 335.01 631.78 334.99 631.81 334.96 631.83 334.93 631.85 334.89 631.89 334.87 631.92 334.87 631.98 334.9 632.01 334.9 632.03 334.88 632.05 334.85 632.07 334.84 632.09 334.85 632.1 334.89 632.11 334.9 632.15 334.89 632.21 334.84 632.24 334.83 632.28 334.83 632.31 334.85 632.34 334.87 632.38 334.89 632.39 334.89 632.43 334.89 632.45 334.89 632.47 334.89 632.51 334.92 632.52 334.93 632.56 334.93 632.65 334.95 632.69 334.96 632.7 334.99 632.7 335.02 632.69 335.12 632.7 335.14 632.77 335.27 632.81 335.32 632.85 335.34 632.97 335.3 633.04 335.19 633.09 335.08 633.16 335.04 633.16 335.11 633.17 335.16 633.19 335.21 633.32 335.41 633.36 335.45 633.38 335.46 633.41 335.47 633.42 335.48 633.48 335.56 633.5 335.58 633.52 335.58 633.56 335.59 633.62 335.59 633.69 335.58 633.75 335.56 633.8 335.52 633.84 335.51 633.87 335.5 633.93 335.45 633.95 335.46 633.97 335.48 633.98 335.49 633.99 335.51 634.03 335.5 634.07 335.52 634.1 335.55 634.12 335.59 634.15 335.57 634.18 335.57 634.2 335.58 634.23 335.6 634.27 335.6 634.31 335.59 634.34 335.6 634.4 335.63 634.43 335.68 634.46 335.75 634.49 335.8 634.69 335.97 634.74 336 634.74 336 634.8 336.01 634.85 336.01 634.91 335.99 634.96 335.99 635.08 336.02 635.12 336.01 635.15 335.98 635.15 335.87 635.18 335.83 635.21 335.8 635.25 335.78 635.28 335.75 635.3 335.7 635.29 335.66 635.26 335.63 635.22 335.6 635.19 335.56 635.14 335.43 635.1 335.39 635.02 335.34 634.99 335.31 634.98 335.27 634.98 335.21 634.98 335.17 634.95 335.13 634.91 335.1 634.9 335.07 634.9 335.05 634.9 335.02 634.91 334.99 634.95 335 635.05 335.04 635.09 335.03 635.1 335.02 635.1 334.99 635.11 334.98 635.12 334.98 635.14 334.98 635.18 334.98 635.23 334.99 635.31 334.99 635.35 334.99 635.39 334.97 635.42 334.92 635.43 334.87 635.46 334.75 635.48 334.71 635.49 334.73 635.62 334.81 635.65 334.81 635.68 334.82 635.71 334.81 635.72 334.81 635.84 334.79 635.9 334.77 635.92 334.72 635.93 334.72 635.94 334.71 635.95 334.69 635.93 334.68 635.93 334.66 635.93 334.65 635.93 334.64 635.95 334.62 635.98 334.63 636.01 334.63 636.04 334.64 636.04 334.62 636.03 334.62 636.02 334.6 636.01 334.59 636.01 334.57 636.01 334.54 636.02 334.54 636.04 334.54 636.06 334.53 636.1 334.48 636.12 334.5 636.14 334.54 636.15 334.57 636.16 334.64 636.17 334.66 636.19 334.67 636.24 334.69 636.26 334.7 636.31 334.77 636.35 334.79 636.37 334.8 636.53 334.85 636.54 334.86 636.56 334.88 636.57 334.89 636.59 334.92 636.67 335.03 636.72 335.09 636.76 335.12 636.79 335.13 636.82 335.13 636.91 335.08 636.92 335.07 636.93 335.06 636.95 335.06 636.97 335.07 637.01 335.09 637.04 335.1 637.06 335.09 637.07 335.08 637.07 335.07 637.1 335.01 637.12 335 637.13 335 637.18 334.93 637.24 334.85 637.24 334.84 637.25 334.84 637.28 334.85 637.31 334.88 637.33 334.9 637.36 334.92 637.41 334.9 637.47 334.85 637.54 334.8 637.55 334.76 637.57 334.73 637.58 334.7 637.62 334.7 637.62 334.7 637.62 334.7 637.62 334.7 637.65 334.7 637.67 334.69 637.69 334.65 637.7 334.6 637.7 334.59 637.71 334.58 637.74 334.56 637.75 334.55 637.79 334.5 637.82 334.47 637.86 334.47 637.92 334.51 637.96 334.55 637.98 334.56 638.03 334.57 638.08 334.59 638.1 334.59 638.13 334.57 638.14 334.55 638.14 334.53 638.14 334.51 638.14 334.49 638.14 334.48 638.16 334.45 638.17 334.44 638.18 334.39 638.2 334.37 638.23 334.36 638.31 334.25 638.34 334.22 638.36 334.28 638.35 334.34 638.3 334.46 638.3 334.49 638.31 334.56 638.3 334.6 638.29 334.62 638.26 334.67 638.25 334.7 638.25 334.72 638.24 334.75 638.21 334.81 638.19 334.84 638.17 334.86 638.12 334.87 638.11 334.87 638.1 334.85 638.09 334.84 638.06 334.85 638.04 334.87 638.03 334.89 638.03 334.91 638.02 334.93 637.98 335.01 637.96 335.05 637.96 335.1 637.96 335.12 637.98 335.16 637.99 335.18 637.99 335.2 637.98 335.28 637.9 335.5 637.89 335.55 637.9 335.58 637.92 335.6 637.95 335.64 637.95 335.69 637.94 335.73 637.94 335.78 637.97 335.82 638.01 335.83 638.09 335.83 638.12 335.84 638.14 335.86 638.14 335.88 638.14 335.9 638.14 335.93 638.17 335.99 638.17 336 638.18 336.03 638.17 336.06 638.16 336.08 638.15 336.12 638.17 336.19 638.17 336.21 638.16 336.26 638.15 336.28 638.17 336.32 638.21 336.37 638.23 336.4 638.23 336.41 638.28 336.47 638.32 336.52 638.51 336.88 638.52 336.96 638.54 337.18 638.53 337.25 638.46 337.43 638.43 337.5 638.2 338.04 638.21 338.07 638.24 338.1 638.25 338.12 638.25 338.13 638.25 338.14 638.23 338.15 638.22 338.17 638.22 338.2 638.22 338.22 638.25 338.28 638.25 338.35 638.26 338.38 638.28 338.41 638.34 338.48 638.37 338.54 638.38 338.6 638.38 338.66 638.38 338.73 638.44 338.98 638.44 339.05 638.43 339.12 638.42 339.15 638.41 339.17 638.4 339.2 638.42 339.23 638.42 339.23 638.42 339.23 638.42 339.28 638.35 339.46 638.34 339.52 638.32 339.57 638.29 339.61 638.23 339.63 638.18 339.67 638.11 339.77 638.05 339.78 638.01 339.74 637.95 339.64 637.89 339.6 637.8 339.61 637.69 339.65 637.65 339.66 637.52 339.72 637.46 339.79 637.44 339.82 637.41 339.85 637.36 339.89 637.29 339.97 637.13 340.13 637.08 340.16 637 340.19 636.92 340.2 636.75 340.19 636.72 340.19 636.68 340.2 636.63 340.23 636.59 340.28 636.57 340.35 636.52 340.41 636.48 340.42 636.36 340.4 636.38 340.43 636.19 340.41 636.09 340.4 636.02 340.45 635.99 340.45 635.98 340.44 635.97 340.42 635.95 340.4 635.92 340.4 635.89 340.4 635.84 340.41 635.84 340.42 635.86 340.47 635.93 340.6 635.94 340.65 635.93 340.66 635.9 340.71 635.9 340.73 635.9 340.77 635.89 340.79 635.88 340.82 635.86 340.85 635.85 340.88 635.85 340.92 635.91 341.02 635.93 341.07 635.93 341.07 635.91 341.1 635.88 341.11 635.85 341.09 635.8 341.06 635.77 341.05 635.75 341.04 635.73 341.04 635.6 341.08 635.57 341.07 635.55 341.06 635.52 341.01 635.51 340.99 635.46 340.96 635.31 340.92 635.22 340.91 635.1 340.88 635 340.86 634.95 340.92 634.95 340.95 634.94 340.98 634.93 341 634.87 341.07 634.85 341.12 634.82 341.15 634.76 341.14 634.65 341.11 634.61 341.11 634.57 341.15 634.56 341.16 634.53 341.19 634.51 341.23 634.5 341.27 634.51 341.28 634.53 341.32 634.56 341.33 634.62 341.35 634.64 341.36 634.65 341.39 634.65 341.42 634.65 341.48 634.68 341.6 634.69 341.63 634.68 341.66 634.66 341.74 634.62 341.91 634.62 341.94 634.65 341.96 634.69 341.97 634.72 341.99 634.72 342.04 634.72 342.04 634.74 342.1 634.79 342.14 634.91 342.16 634.94 342.19 635 342.28 635.03 342.32 635.11 342.38 635.14 342.42 635.16 342.46 635.18 342.42 635.22 342.4 635.26 342.4 635.3 342.43 635.32 342.47 635.36 342.6 635.38 342.64 635.37 342.66 635.34 342.66 635.3 342.66 635.26 342.66 635.25 342.67 635.24 342.69 635.24 342.7 635.24 342.75 635.24 342.76 635.25 342.8 635.3 342.9 635.36 343.11 635.31 343.07 635.25 343.06 635.13 343.05 635.07 343.03 635.01 343 634.95 342.95 634.91 342.91 634.89 342.88 634.81 342.82 634.81 342.86 634.79 342.91 634.76 342.95 634.74 342.98 634.7 342.98 634.66 342.95 634.63 342.92 634.61 342.88 634.59 342.81 634.57 342.77 634.5 342.67 634.46 342.6 634.42 342.56 634.36 342.55 634.3 342.57 634.24 342.6 634.24 342.6 634.2 342.63 634.15 342.65 634.12 342.66 633.91 342.7 633.8 342.72 633.78 342.72 633.73 342.7 633.67 342.68 633.66 342.67 633.63 342.69 633.54 342.8 633.48 342.93 633.45 342.95 633.42 342.94 633.35 342.87 633.31 342.85 633.21 342.83 633 342.79 632.97 342.78 632.94 342.75 632.94 342.72 632.92 342.71 632.87 342.74 632.84 342.76 632.84 342.76 632.81 342.78 632.79 342.82 632.78 342.85 632.78 342.93 632.82 343.01 632.9 343.16 632.9 343.23 632.84 343.28 632.63 343.39 632.6 343.42 632.57 343.45 632.48 343.59 632.43 343.64 632.35 343.67 632.25 343.68 632.14 343.66 632.09 343.66 631.92 343.64 631.82 343.64 631.79 343.65 631.76 343.67 631.74 343.7 631.72 343.74 631.63 343.87 631.61 343.9 631.57 343.9 631.53 343.89 Z" fill-rule="evenodd" id="Cambodia" transform="translate(-626.7899780273438,-334.2200012207031) "/></svg>