<svg xmlns="http://www.w3.org/2000/svg" viewBox="0 0 17.079986572265625 25.399993896484375"><path d="M 434.32 350.35 434.3 350.38 434.18 350.54 434.17 350.57 434.21 350.61 434.21 350.64 434.2 350.65 434.16 350.65 434.14 350.65 434.13 350.66 434.11 350.7 434.1 350.71 434 350.79 433.83 350.89 433.8 350.92 433.75 350.96 433.7 351.06 433.67 351.11 433.66 351.14 433.66 351.16 433.67 351.29 433.67 351.31 433.65 351.33 433.6 351.36 433.58 351.37 433.55 351.41 433.54 351.45 433.5 351.59 433.43 351.78 433.38 351.87 433.34 351.97 433.33 352 433.3 352.03 433.17 352.09 433.13 352.12 433.1 352.15 433.08 352.2 432.82 352.78 432.77 352.85 432.76 352.88 432.77 352.93 432.77 352.95 432.77 352.98 432.75 353.02 432.66 353.12 432.63 353.15 432.31 353.3 432.22 353.3 432.2 353.34 432.17 353.38 432.1 353.44 432.07 353.45 432.02 353.5 431.99 353.53 431.99 353.54 431.99 353.55 431.99 353.56 431.98 353.58 431.98 353.59 431.97 353.61 431.96 353.62 431.95 353.62 431.93 353.6 431.91 353.6 431.9 353.62 431.89 353.64 431.9 353.65 431.91 353.68 431.93 353.7 431.96 353.73 431.99 353.76 432.02 353.79 432.04 353.82 432.05 353.86 432.07 353.9 432.1 353.92 432.14 353.92 432.21 353.93 432.24 353.93 432.3 353.89 432.33 353.89 432.36 353.94 432.37 353.98 432.4 354.02 432.42 354.26 432.43 354.3 432.42 354.33 432.39 354.45 432.35 354.56 432.34 354.59 432.34 354.63 432.36 354.66 432.39 354.71 432.4 354.75 432.41 354.77 432.4 354.84 432.39 354.86 432.36 354.92 432.36 354.96 432.36 355.02 432.35 355.05 432.32 355.06 432.32 355.08 432.3 355.11 432.28 355.15 432.27 355.16 432.26 355.19 432.25 355.23 432.23 355.26 432.2 355.29 432.19 355.29 432.19 355.32 432.23 355.36 432.28 355.38 432.37 355.42 432.42 355.44 432.45 355.47 432.48 355.52 432.49 355.57 432.5 355.62 432.5 355.73 432.51 355.82 432.5 355.9 432.5 355.91 432.5 355.94 432.5 355.97 432.52 355.98 432.53 356.01 432.52 356.06 432.53 356.09 432.54 356.11 432.56 356.14 432.59 356.34 432.59 356.37 432.58 356.42 432.57 356.44 432.56 356.46 432.58 356.5 432.59 356.66 432.62 356.77 432.68 356.86 432.76 356.94 433.11 357.18 433.21 357.21 433.24 357.23 433.25 357.25 433.27 357.31 433.28 357.34 433.36 357.43 433.39 357.49 433.41 357.55 433.43 357.69 433.44 357.81 433.45 357.87 433.48 357.89 433.51 357.89 433.54 357.9 433.56 357.93 433.57 357.96 433.58 357.98 433.61 357.98 433.64 357.98 433.67 358 433.68 358.03 433.63 358.05 433.58 358.06 433.5 358.1 433.45 358.11 433.42 358.1 433.35 358.08 433.31 358.08 433.44 358.39 433.63 358.67 433.81 358.86 433.83 358.89 433.98 359.04 434.17 359.24 434.4 359.48 434.62 359.71 434.83 359.93 434.99 360.11 435.01 360.12 435.03 360.12 435.05 360.13 435.06 360.13 435.09 360.11 435.1 360.11 435.11 360.11 435.14 360.13 435.14 360.13 435.24 360.12 435.28 360.13 435.32 360.17 435.36 360.21 435.37 360.26 435.4 360.37 435.41 360.38 435.42 360.39 435.43 360.4 435.46 360.39 435.48 360.38 435.5 360.38 435.52 360.39 435.54 360.41 435.59 360.48 435.62 360.55 435.65 360.6 435.67 360.65 435.68 360.71 435.66 360.76 435.6 360.82 435.59 360.88 435.6 360.95 435.6 360.98 435.61 361 435.63 361 435.66 361 435.69 361 435.71 361 435.69 361.03 435.67 361.07 435.67 361.09 435.67 361.14 435.71 361.21 435.71 361.26 435.7 361.3 435.67 361.38 435.67 361.43 435.68 361.45 435.7 361.51 435.71 361.55 435.71 361.63 435.72 361.65 435.73 361.69 435.76 361.75 435.8 361.79 435.82 361.82 435.83 361.84 435.83 361.86 435.83 361.9 435.84 361.91 435.87 361.93 435.88 361.94 435.88 361.96 435.87 361.98 435.87 362.01 435.89 362.02 435.9 362.03 435.92 362.04 435.93 362.06 435.91 362.08 435.82 362.15 435.78 362.11 435.73 362.1 435.7 362.12 435.68 362.17 435.66 362.22 435.65 362.25 435.66 362.27 435.67 362.29 435.67 362.31 435.67 362.35 435.66 362.35 435.65 362.35 435.64 362.35 435.64 362.36 435.63 362.37 435.63 362.38 435.64 362.39 435.64 362.39 435.64 362.41 435.65 362.43 435.65 362.45 435.61 362.49 435.61 362.51 435.61 362.6 435.62 362.61 435.63 362.61 435.65 362.63 435.69 362.7 435.77 362.89 435.82 363.13 435.81 363.17 435.79 363.18 435.74 363.16 435.72 363.17 435.62 363.31 435.53 363.2 435.52 363.16 435.52 363.14 435.52 363.12 435.53 363.1 435.52 363.07 435.5 363.05 435.47 363.04 435.45 363.04 435.42 363.05 435.39 363.04 435.34 363.03 435.31 363.01 435.3 362.98 435.28 362.99 435.25 363 435.22 363 435.21 362.99 435.21 362.95 435.19 362.94 435.17 362.93 435.12 362.89 435.06 362.87 435.03 362.86 434.95 362.75 434.93 362.74 434.88 362.73 434.85 362.72 434.83 362.71 434.82 362.7 434.61 362.68 434.42 362.62 434.32 362.6 434.22 362.62 434.11 362.68 434.07 362.7 434.02 362.72 434 362.72 434 362.72 433.95 362.69 433.94 362.69 433.92 362.67 433.92 362.67 433.92 362.65 433.92 362.62 433.92 362.61 433.9 362.59 433.89 362.58 433.81 362.55 433.8 362.54 433.79 362.53 433.78 362.49 433.77 362.48 433.72 362.46 433.69 362.47 433.66 362.49 433.59 362.46 433.56 362.52 433.52 362.51 433.51 362.51 433.49 362.55 433.45 362.58 433.42 362.6 433.39 362.56 433.35 362.57 433.31 362.56 433.21 362.48 433.19 362.47 433.17 362.53 433.15 362.54 433.1 362.54 433.01 362.54 433.02 362.48 433.04 362.42 433 362.39 432.99 362.37 432.97 362.33 432.93 362.29 432.92 362.31 432.92 362.34 432.91 362.36 432.9 362.38 432.87 362.39 432.73 362.41 432.72 362.4 432.72 362.35 432.72 362.33 432.71 362.33 432.69 362.34 432.67 362.34 432.65 362.33 432.66 362.33 432.69 362.3 432.63 362.27 432.62 362.28 432.63 362.33 432.6 362.32 432.55 362.27 432.52 362.25 432.47 362.26 432.44 362.25 432.46 362.21 432.41 362.19 432.34 362.11 432.28 362.09 432.27 362.1 432.25 362.12 432.25 362.14 432.25 362.16 432.25 362.18 432.23 362.19 432.05 362.23 432.01 362.25 431.99 362.26 431.96 362.25 431.92 362.21 431.88 362.19 431.74 362.17 431.65 362.21 431.63 362.21 431.39 362.21 431.04 362.21 430.64 362.21 430.28 362.2 430.19 362.2 429.85 362.2 429.47 362.2 429.47 362.14 429.48 362.07 429.47 362.04 429.45 362.02 429.41 361.99 429.38 361.96 429.36 361.95 429.34 361.96 429.31 361.97 429.29 361.97 429.27 361.96 429.24 361.94 429.18 361.93 429.11 361.92 429.09 361.93 429.07 361.95 429.02 361.99 429 362 428.91 362.01 428.85 361.99 428.81 361.98 428.78 361.99 428.76 362 428.72 361.99 428.65 361.97 428.63 361.99 428.6 362 428.57 362 428.54 361.98 428.52 362.01 428.48 362 428.43 361.98 428.39 361.97 428.36 361.98 428.34 362 428.31 362.02 428.26 362.03 427.96 361.98 427.91 361.96 427.87 361.94 427.82 361.95 427.78 361.94 427.66 361.9 427.58 361.89 427.45 361.92 427.41 361.91 427.34 361.87 427.31 361.86 427.29 361.86 427.25 361.89 427.22 361.89 427.18 361.9 427.09 361.93 427.05 361.93 426.95 361.93 426.86 361.92 426.82 361.91 426.69 361.92 426.53 361.91 426.36 361.93 426.16 361.92 426.09 361.93 426.05 361.93 425.94 361.89 425.89 361.86 425.87 361.84 425.84 361.84 425.81 361.85 425.75 361.87 425.16 361.89 425.16 361.91 425.17 361.94 425.17 361.97 425.16 362 425.14 362.02 425.13 362.05 425.12 362.08 425.12 362.11 425.12 362.14 425.11 362.16 425.1 362.18 424.43 362.18 423.77 362.18 423.11 362.18 423.07 362.18 422.59 362.19 422.45 362.19 422.15 362.19 422.1 362.18 421.96 362.11 421.92 362.1 421.88 362.08 421.83 362.05 421.78 362 421.75 361.97 421.74 361.92 421.75 361.88 421.75 361.83 421.72 361.8 421.75 361.77 421.75 361.76 421.77 361.72 421.77 361.31 421.84 361.01 421.88 360.92 421.89 360.89 421.9 360.61 421.92 360.51 421.95 360.42 421.99 360.35 422.04 360.3 422.07 360.24 422.07 360.17 421.99 359.84 421.95 359.79 421.95 359.78 421.97 359.78 421.98 359.77 422.01 359.76 422.01 359.75 421.98 359.75 421.95 359.75 421.93 359.73 421.92 359.72 421.9 359.7 421.85 359.59 421.68 359.38 421.59 359.3 421.37 359.16 421.42 359.15 421.48 359.12 421.66 358.98 421.71 358.96 421.77 358.96 421.7 358.94 421.63 358.97 421.58 359 421.52 359.02 421.37 359.04 421.34 359.02 421.33 359 421.34 358.97 421.37 358.95 421.31 358.79 421.2 358.65 421.17 358.59 421.16 358.54 421.22 358.59 421.23 358.6 421.24 358.61 421.26 358.66 421.27 358.68 421.3 358.69 421.33 358.69 421.42 358.69 421.4 358.68 421.33 358.66 421.3 358.65 421.3 358.64 421.29 358.63 421.27 358.61 421.26 358.56 421.26 358.51 421.29 358.45 421.33 358.42 421.41 358.49 421.46 358.5 421.48 358.45 421.55 358.49 421.58 358.51 421.6 358.54 421.61 358.52 421.61 358.49 421.6 358.47 421.59 358.45 421.59 358.45 421.62 358.45 421.51 358.41 421.46 358.38 421.45 358.34 421.48 358.31 421.54 358.29 421.6 358.28 421.64 358.28 421.64 358.27 421.64 358.27 421.63 358.25 421.64 358.25 421.64 358.25 421.64 358.25 421.64 358.24 421.42 358.27 421.36 358.27 421.32 358.23 421.33 358.17 421.37 358.12 421.41 358.1 421.45 358.07 421.54 357.92 421.61 357.89 421.62 357.88 421.63 357.86 421.62 357.84 421.59 357.86 421.54 357.89 421.53 357.91 421.51 357.93 421.49 357.93 421.49 357.89 421.45 357.92 421.38 358.03 421.34 358.07 421.29 358.1 421.23 358.11 421.19 358.1 421.19 358.05 421.16 358.09 421.12 358.06 421.08 358.02 421.06 357.97 421.07 357.92 421.04 357.89 421.01 357.9 420.95 357.96 420.95 357.97 420.96 357.98 420.98 357.99 421 358 421.02 358.01 421.03 358.02 421.05 358.07 421.07 358.1 421.11 358.13 421.13 358.17 421.1 358.21 421.07 358.19 421.05 358.19 421.04 358.18 421.01 358.16 420.98 358.12 420.97 358.11 420.96 358.1 420.95 358.09 420.95 358.07 420.92 358.07 420.9 358.08 420.89 358.1 420.89 358.12 420.95 358.16 420.96 358.18 420.97 358.2 420.96 358.22 420.95 358.24 420.95 358.27 420.95 358.29 420.99 358.31 421.01 358.33 420.98 358.34 420.94 358.35 420.86 358.36 420.82 358.35 420.75 358.33 420.71 358.33 420.65 358.29 420.62 358.22 420.63 358.14 420.67 358.09 420.67 358.07 420.62 358.08 420.59 358.12 420.58 358.16 420.5 358.23 420.44 358.22 420.42 358.22 420.42 358.18 420.42 358.15 420.42 358.12 420.39 358.1 420.36 358.1 420.32 358.1 420.28 358.1 420.26 358.11 420.22 358.1 420.11 358.03 419.91 357.94 419.89 357.92 419.88 357.86 419.92 357.72 419.93 357.66 419.86 357.6 419.81 357.52 419.77 357.44 419.72 357.13 419.73 357.07 419.79 356.97 419.81 356.92 419.76 356.98 419.73 356.99 419.72 356.96 419.72 356.93 419.73 356.91 419.74 356.88 419.73 356.85 419.71 356.83 419.67 356.81 419.65 356.78 419.63 356.75 419.61 356.73 419.59 356.72 419.59 356.75 419.65 356.86 419.67 356.91 419.66 356.94 419.64 356.95 419.62 356.93 419.61 356.9 419.5 356.82 419.5 356.84 419.51 356.87 419.52 356.88 419.54 356.89 419.51 356.95 419.5 356.95 419.48 356.95 419.44 356.92 419.43 356.91 419.41 356.89 419.37 356.88 419.34 356.86 419.32 356.82 419.3 356.74 419.2 356.6 419.19 356.51 419.15 356.57 419.16 356.63 419.2 356.7 419.25 356.9 419.27 356.92 419.3 356.93 419.32 356.95 419.34 357.01 419.29 357.04 419.01 357.06 418.99 357.04 419 357.02 419.03 356.99 419.05 356.97 419.02 356.95 419 356.95 418.98 356.97 418.97 357.01 418.95 357.02 418.92 357.02 418.9 357.01 418.86 356.98 418.85 356.93 418.86 356.89 418.9 356.89 418.91 356.86 418.96 356.79 418.93 356.81 418.9 356.81 418.88 356.79 418.87 356.75 418.87 356.72 418.89 356.69 418.93 356.65 418.99 356.61 419 356.59 419 356.56 419 356.53 418.99 356.51 419 356.48 419.02 356.5 419.01 356.41 419.02 356.37 419.04 356.35 419.05 356.34 419.05 356.34 419.09 356.31 419.08 356.27 419.08 356.24 419.07 356.2 419.09 356.16 419.15 356.12 419.16 356.08 419.25 355.94 419.25 355.94 419.28 355.89 419.3 355.85 419.34 355.75 419.35 355.73 419.39 355.66 419.41 355.64 419.44 355.62 419.47 355.62 419.49 355.61 419.5 355.58 419.56 355.28 419.56 355.26 419.54 355.2 419.54 355.17 419.55 355.12 419.6 355.03 419.62 354.98 419.62 354.93 419.61 354.89 419.6 354.85 419.62 354.8 419.65 354.75 419.69 354.72 419.73 354.67 419.74 354.62 419.71 354.56 419.67 354.52 419.62 354.48 419.58 354.43 419.55 354.38 419.57 354.35 419.61 354.32 419.64 354.27 419.65 354.22 419.63 354.18 419.61 354.14 419.61 354.1 419.63 354.06 419.71 354.01 419.74 353.97 419.78 353.93 419.82 353.94 419.87 353.96 419.91 353.95 419.92 353.92 419.92 353.86 419.94 353.85 419.97 353.83 420 353.8 420.05 353.73 420.05 353.73 420.25 353.52 420.56 353.27 420.61 353.2 420.68 353.06 420.71 353.03 420.74 353.01 420.76 353.01 420.79 353.01 420.83 353.01 420.89 352.97 420.95 352.84 421.02 352.8 421.03 352.8 421.12 352.76 421.17 352.74 421.2 352.71 421.25 352.61 421.29 352.58 421.35 352.57 421.38 352.57 421.46 352.57 421.49 352.55 421.49 352.54 421.66 352.01 421.7 351.96 421.75 351.97 421.79 351.99 421.84 352 421.89 351.98 422.43 351.52 422.48 351.49 422.51 351.5 422.53 351.53 422.56 351.7 422.59 351.74 422.63 351.78 422.7 351.79 423.27 351.79 423.27 351.74 423.28 351.7 423.29 351.67 423.32 351.63 423.34 351.62 423.35 351.62 423.36 351.61 423.37 351.44 423.39 351.36 423.42 351.28 423.45 351.22 423.49 351.27 423.5 351.38 423.54 351.41 423.6 351.43 423.76 351.51 423.94 351.58 424.01 351.63 424.05 351.72 424.07 351.82 424.11 351.92 424.18 351.99 424.39 352.02 424.46 352.08 424.51 352.17 424.51 352.28 424.51 352.37 424.52 352.45 424.56 352.62 424.6 352.73 424.64 352.76 424.69 352.77 424.83 352.76 424.9 352.75 424.91 352.75 424.93 352.77 424.95 352.77 424.96 352.77 424.99 352.74 424.99 352.74 425.02 352.74 425.07 352.75 425.09 352.75 425.15 352.74 425.2 352.71 425.25 352.67 425.26 352.62 425.27 352.53 425.31 352.46 425.37 352.41 425.45 352.4 425.51 352.37 425.57 352.29 425.63 352.15 425.64 352.09 425.65 352.03 425.64 351.99 425.59 351.93 425.58 351.9 425.59 351.84 425.63 351.78 425.76 351.66 425.89 351.58 425.9 351.57 425.91 351.54 425.92 351.53 425.93 351.52 425.95 351.53 425.98 351.52 426.01 351.52 426.03 351.51 426.04 351.5 426.04 351.47 426.05 351.45 426.08 351.43 426.18 351.35 426.2 351.33 426.23 351.32 426.26 351.33 426.28 351.34 426.3 351.34 426.32 351.33 426.34 351.28 426.31 351.23 426.22 351.13 426.11 350.97 426.08 350.95 426.03 350.94 426.02 350.92 426.03 350.9 426.07 350.87 426.12 350.83 426.26 350.63 426.39 350.5 426.53 350.37 426.58 350.28 426.62 350.25 426.65 350.23 426.66 350.18 426.62 350.05 426.62 350.01 426.63 349.96 426.64 349.91 426.72 349.77 426.94 349.46 427.03 349.38 427.04 349.34 427.03 349.31 427.02 349.25 427.01 349.17 427 349.08 427.02 349.03 427.11 348.9 427.12 348.87 427.12 348.85 427.13 348.81 427.09 348.63 427.09 348.52 427.1 348.43 427.15 348.36 427.2 348.34 427.29 348.35 427.33 348.34 427.36 348.33 427.38 348.3 427.39 348.27 427.41 348.25 427.48 348.2 427.5 348.18 427.49 348.12 427.49 348.09 427.44 347.96 427.42 347.93 427.48 347.95 427.51 347.96 427.54 347.95 427.58 347.94 427.6 347.92 427.63 347.91 427.67 347.9 427.7 347.91 427.77 347.94 427.8 347.95 427.84 347.94 428.06 347.82 428.1 347.78 428.14 347.71 428.16 347.64 428.17 347.62 428.2 347.6 428.23 347.61 428.26 347.61 428.28 347.61 428.31 347.6 428.36 347.53 428.39 347.44 428.44 347.02 428.42 346.94 428.42 346.85 428.47 346.74 428.57 346.56 428.58 346.52 428.59 346.48 428.59 346.39 428.58 346.32 428.55 346.28 428.49 346.27 428.48 346.26 428.5 346.22 428.51 346.21 428.64 346.15 428.66 346.13 428.68 346.11 428.75 346.03 428.78 346 428.93 345.94 429.11 345.91 429.25 345.85 429.31 345.69 429.32 345.55 429.35 345.4 429.37 345.35 429.39 345.31 429.4 345.27 429.38 345.22 429.31 345.16 429.29 345.12 429.28 345.07 429.3 345.02 429.35 344.94 429.36 344.89 429.35 344.85 429.33 344.77 429.33 344.73 429.37 344.65 429.44 344.62 429.61 344.61 429.66 344.59 429.69 344.57 429.71 344.56 429.75 344.52 429.78 344.49 429.82 344.41 429.82 344.38 429.82 344.36 429.8 344.31 429.8 344.28 429.85 344.14 429.93 343.72 430.01 343.44 430.07 343.31 430.47 342.75 430.48 342.72 430.49 342.68 430.48 342.6 430.49 342.55 430.51 342.52 430.55 342.48 430.63 342.44 430.66 342.4 430.7 342.31 430.75 342.22 430.83 342.12 430.91 342.04 430.99 341.97 431.06 341.97 431.15 342 431.31 342.06 431.35 342.07 431.4 342.06 431.45 342.03 431.49 342 431.55 341.94 431.57 341.93 431.63 341.92 431.65 341.91 431.85 341.73 431.89 341.71 432.02 341.67 432.07 341.64 432.15 341.57 432.2 341.54 432.31 341.5 432.35 341.48 432.38 341.44 432.4 341.38 432.42 341.33 432.42 341.28 432.42 341.22 432.41 341.18 432.39 341.14 432.35 341.1 432.34 341.09 432.33 341.07 432.32 341.06 432.3 341.05 432.27 341.05 432.26 341.04 432.24 341.02 432.23 341 432.24 340.98 432.33 340.87 432.34 340.83 432.39 340.6 432.42 340.53 432.42 340.46 432.42 340.44 432.42 340.42 432.38 340.32 432.37 340.28 432.41 340.25 432.41 340.23 432.45 340.07 432.46 340.04 432.47 340.03 432.48 340.01 432.52 339.97 432.51 339.94 432.5 339.92 432.48 339.91 432.46 339.92 432.43 339.93 432.4 339.94 432.39 339.93 432.37 339.88 432.34 339.86 432.29 339.83 432.25 339.8 432.27 339.79 432.28 339.79 432.28 339.77 432.26 339.76 432.19 339.71 432.17 339.69 432.17 339.67 432.18 339.64 432.17 339.62 432.11 339.58 431.97 339.55 431.52 339.54 431.48 339.53 431.45 339.51 431.43 339.48 431.43 339.45 431.44 339.38 431.44 339.34 431.43 339.3 431.43 339.29 431.43 339.12 431.3 338.51 431.18 337.91 431.96 337.91 432 337.93 432.1 338.09 432.1 338.09 432.13 338.13 432.15 338.16 432.16 338.2 432.16 338.24 432.12 338.35 432.12 338.38 432.14 338.41 432.21 338.46 432.25 338.5 432.25 338.59 432.25 338.61 432.26 338.62 432.28 338.62 432.3 338.61 432.3 338.63 432.3 338.65 432.31 338.67 432.33 338.66 432.37 338.63 432.39 338.63 432.4 338.63 432.41 338.65 432.41 338.66 432.42 338.67 432.46 338.7 432.47 338.71 432.51 338.73 432.57 338.71 432.61 338.73 432.62 338.76 432.59 338.84 432.62 338.87 432.65 338.82 432.66 338.81 432.68 338.82 432.7 338.84 432.72 338.86 432.72 338.88 432.74 338.92 432.78 338.92 432.85 338.91 432.87 338.95 432.95 339.23 432.94 339.24 432.92 339.28 432.92 339.29 432.92 339.32 432.92 339.32 432.93 339.32 432.95 339.34 432.94 339.33 432.95 339.33 432.97 339.33 432.98 339.34 432.98 339.35 432.98 339.37 432.98 339.38 433.01 339.44 433.05 339.61 433.04 339.63 433.04 339.79 433.04 339.81 433.02 339.85 433.02 339.88 433.03 339.89 433.04 339.9 433.05 339.92 433.05 339.94 433.04 339.95 433.03 339.96 433.02 339.97 433.02 340 433.04 340.02 433.09 340.06 433.14 340.11 433.17 340.14 433.2 340.13 433.24 340.1 433.28 340.1 433.32 340.12 433.36 340.15 433.35 340.17 433.34 340.19 433.34 340.22 433.35 340.24 433.37 340.26 433.37 340.27 433.36 340.29 433.36 340.32 433.38 340.35 433.42 340.38 433.43 340.41 433.37 340.42 433.36 340.43 433.36 340.45 433.37 340.47 433.38 340.49 433.39 340.51 433.38 340.53 433.35 340.55 433.34 340.56 433.35 340.62 433.36 340.66 433.39 340.67 433.43 340.68 433.44 340.7 433.5 340.83 433.48 340.86 433.45 340.89 433.44 340.91 433.44 340.92 433.46 340.94 433.47 340.96 433.46 340.97 433.44 340.97 433.43 340.97 433.42 340.97 433.4 341.02 433.4 341.06 433.4 341.11 433.44 341.21 433.46 341.25 433.52 341.33 433.55 341.4 433.52 341.46 433.42 341.57 433.4 341.61 433.38 341.66 433.37 341.77 433.36 341.81 433.36 341.83 433.37 341.85 433.38 341.86 433.39 341.87 433.39 341.9 433.38 341.93 433.32 342.01 433.31 342.04 433.3 342.18 433.31 342.41 433.33 342.6 433.39 342.75 433.41 342.78 433.43 342.82 433.42 342.87 433.39 342.97 433.4 343.06 433.57 343.38 433.58 343.44 433.58 343.47 433.56 343.51 433.54 343.57 433.54 343.62 433.56 343.66 433.57 343.68 433.59 343.68 433.62 343.69 433.64 343.69 433.66 343.7 433.68 343.71 433.69 343.72 433.73 343.74 433.75 343.78 433.78 343.86 433.82 343.9 433.85 343.92 433.87 343.95 433.88 343.99 433.88 344.05 433.89 344.09 433.92 344.13 434.22 344.42 434.31 344.53 434.34 344.55 434.34 344.56 434.44 344.65 434.59 344.74 434.66 344.76 434.76 344.85 434.72 344.86 434.22 344.98 434.1 344.99 433.73 344.87 433.59 344.86 433.49 344.87 433.47 344.88 433.45 344.89 433.41 344.93 433.39 344.94 433.32 344.96 433.26 344.95 433.13 344.92 433.02 344.92 432.75 345 432.66 345 432.01 344.84 431.47 344.88 431.44 344.88 431.42 344.89 431.41 344.9 431.41 344.92 431.41 344.95 431.3 345.16 431.23 345.26 431.05 345.41 430.91 345.61 430.92 345.64 431.11 345.79 431.75 346.52 431.77 346.62 431.81 346.69 432.3 347.08 432.79 347.48 432.83 347.49 432.85 347.48 432.87 347.48 432.89 347.48 432.91 347.48 432.94 347.5 433.03 347.56 433.05 347.59 433.06 347.61 433.07 347.62 433.09 347.63 433.1 347.64 433.12 347.66 433.14 347.72 433.14 347.75 433.14 347.77 433.15 347.78 433.18 347.79 433.26 347.8 433.32 347.82 433.37 347.86 433.4 347.9 433.5 348.05 433.62 348.18 433.66 348.22 433.72 348.35 434.02 348.99 434.15 349.46 434.23 349.64 434.33 349.72 434.38 349.72 434.45 349.74 434.5 349.75 434.5 349.98 434.47 350.11 434.41 350.23 434.32 350.35 Z" id="Cameroon" transform="translate(-418.8500061035156,-337.9100036621094) "/></svg>