<svg xmlns="http://www.w3.org/2000/svg" viewBox="0 0 28.939971923828125 19.44000244140625"><path d="M 450.68 342.77 450.68 342.83 451 343.29 451.23 343.46 451.63 343.85 452 344.44 452.37 345.04 452.41 345.14 452.48 345.52 452.47 345.61 452.44 345.67 452.35 345.8 452.33 345.86 452.33 345.89 452.35 345.94 452.35 345.97 452.35 346.04 452.36 346.06 452.37 346.09 452.39 346.09 452.4 346.1 452.42 346.11 452.42 346.13 452.36 346.3 452.36 346.34 452.38 346.41 452.38 346.44 452.37 346.47 452.34 346.49 452.25 346.6 452.2 346.65 452.18 346.66 452.14 346.67 452.07 346.67 452.03 346.68 452.01 346.72 452 346.74 451.95 347.02 451.95 347.07 451.98 347.12 452.04 347.15 452.1 347.15 452.19 347.07 452.23 347.07 452.24 347.12 452.24 347.2 452.21 347.32 452.17 347.38 452.08 347.49 452.05 347.54 452.05 347.6 452.07 347.66 452.1 347.71 452.15 347.73 452.18 347.72 452.23 347.68 452.26 347.66 452.31 347.65 452.34 347.66 452.38 347.67 452.41 347.7 452.44 347.71 452.51 347.71 452.58 347.73 452.62 347.71 452.69 347.68 452.76 347.68 452.9 347.71 453.03 347.7 453.12 347.74 453.16 347.74 453.22 347.73 453.45 347.77 453.58 347.75 453.6 347.75 453.68 347.75 453.72 347.77 453.72 347.8 453.68 347.86 453.67 347.89 453.68 347.92 453.74 347.97 453.76 348 453.74 348.02 453.65 348.08 453.63 348.1 453.5 348.31 453.48 348.39 453.47 348.46 453.49 348.52 453.54 348.58 453.6 348.63 453.66 348.66 453.69 348.67 453.77 348.69 453.78 348.69 453.82 348.69 453.86 348.69 453.87 348.7 453.89 348.71 453.92 348.73 453.94 348.74 454.08 348.69 454.16 348.68 454.21 348.73 454.22 348.75 454.23 348.77 454.25 348.78 454.27 348.78 454.34 348.83 454.41 348.83 454.56 348.8 454.69 348.83 454.73 348.83 454.78 348.83 454.85 348.87 454.97 348.89 455.04 348.92 455.23 349.09 455.26 349.13 455.26 349.21 455.31 349.26 455.31 349.3 455.32 349.31 455.34 349.33 455.36 349.34 455.38 349.35 455.48 349.47 455.55 349.52 455.62 349.54 455.65 349.54 455.71 349.53 455.75 349.53 455.8 349.54 455.82 349.55 455.83 349.56 455.84 349.57 455.9 349.59 455.93 349.62 455.95 349.65 455.97 349.72 456 349.78 456.02 349.82 456.02 349.85 456.01 349.95 456.02 349.98 456.03 350.01 456.04 350.04 456.03 350.08 455.98 350.13 455.83 350.18 455.78 350.22 455.78 350.25 455.79 350.28 455.84 350.4 455.97 350.46 456 350.48 456.01 350.5 456.04 350.54 456.05 350.55 456.07 350.56 456.1 350.57 456.12 350.58 456.14 350.61 456.15 350.68 456.16 350.71 456.19 350.74 456.21 350.76 456.34 350.82 456.43 350.89 456.48 350.92 456.53 350.9 456.56 350.91 456.6 350.93 456.69 351.02 456.73 351.04 456.87 351.07 456.91 351.09 456.96 351.13 456.98 351.14 457.02 351.14 457.04 351.15 457.08 351.18 457.1 351.19 457.16 351.19 457.17 351.21 457.17 351.24 457.19 351.27 457.23 351.29 457.32 351.3 457.36 351.31 457.37 351.33 457.38 351.37 457.39 351.39 457.46 351.43 457.48 351.44 457.52 351.44 457.55 351.45 457.56 351.47 457.56 351.49 457.57 351.5 457.59 351.51 457.69 351.52 457.7 351.57 457.71 351.68 457.73 351.73 457.75 351.74 457.76 351.74 457.77 351.73 457.79 351.73 457.8 351.74 457.8 351.75 457.79 351.77 457.79 351.78 457.8 351.81 457.8 351.83 457.81 351.86 457.84 351.88 457.89 351.91 457.93 351.93 457.96 351.94 458.03 352.03 458.12 352.09 458.16 352.13 458.23 352.17 458.36 352.22 458.47 352.28 458.47 352.32 458.48 352.35 458.46 352.37 458.42 352.44 458.35 352.53 458.31 352.62 458.29 352.64 458.27 352.65 458.25 352.67 458.23 352.69 458.27 352.71 458.28 352.74 458.27 352.78 458.26 352.82 458.28 352.87 458.3 352.89 458.33 352.9 458.38 352.92 458.41 352.96 458.47 353.03 458.51 353.06 458.6 353.08 458.64 353.1 458.64 353.16 458.64 353.21 458.66 353.23 458.7 353.22 458.73 353.23 458.76 353.27 458.76 353.31 458.74 353.35 458.71 353.38 458.66 353.4 458.62 353.43 458.58 353.47 458.57 353.52 458.58 353.56 458.61 353.55 458.7 353.49 458.74 353.5 458.76 353.54 458.78 353.59 458.8 353.63 458.84 353.65 458.97 353.7 459.04 353.71 459.2 353.7 459.35 353.76 459.39 353.79 459.42 353.82 459.43 353.92 459.45 353.96 459.5 353.98 459.55 353.98 459.59 353.96 459.62 353.97 459.64 354.02 459.66 354.06 459.71 354.06 459.81 354.03 459.83 354.06 459.86 354.12 459.9 354.15 459.92 354.19 459.93 354.2 459.95 354.2 459.99 354.19 460.01 354.18 460.1 354.22 460.12 354.23 460.14 354.27 460.14 354.29 460.15 354.31 460.2 354.33 460.23 354.34 460.25 354.37 460.27 354.4 460.28 354.44 460.28 354.46 460.29 354.47 460.3 354.48 460.33 354.51 460.34 354.52 460.33 354.53 460.33 354.57 460.32 354.6 460.32 354.62 460.33 354.64 460.34 354.64 460.35 354.64 460.36 354.64 460.37 354.63 460.38 354.63 460.4 354.62 460.42 354.64 460.43 354.66 460.42 354.7 460.43 354.72 460.34 354.96 460.33 354.99 460.34 355.02 460.36 355.08 460.37 355.19 460.38 355.22 460.44 355.36 460.47 355.42 460.52 355.48 460.64 355.57 460.71 355.62 460.74 355.7 460.81 355.75 460.83 355.78 460.77 355.76 460.75 355.75 460.72 355.73 460.69 355.73 460.65 355.72 460.63 355.72 460.61 355.71 460.58 355.69 460.55 355.66 460.52 355.64 460.48 355.63 460.43 355.63 460.38 355.61 460.2 355.52 460.11 355.49 460.01 355.48 459.91 355.51 459.83 355.56 459.77 355.6 459.7 355.65 459.64 355.73 459.63 355.74 459.61 355.8 459.59 355.82 459.57 355.84 459.56 355.85 459.52 355.85 459.51 355.84 459.51 355.83 459.49 355.82 459.48 355.82 459.46 355.82 459.44 355.85 459.43 355.85 459.41 355.84 459.32 355.74 459.3 355.73 459.27 355.73 459.17 355.73 459.14 355.74 459.11 355.76 459.09 355.77 459.06 355.76 459.04 355.76 459.03 355.79 459.02 355.79 459 355.76 458.96 355.76 458.92 355.77 458.89 355.8 458.88 355.79 458.86 355.8 458.83 355.82 458.8 355.83 458.79 355.83 458.75 355.83 458.69 355.81 458.66 355.8 458.65 355.79 458.61 355.7 458.59 355.68 458.55 355.66 458.52 355.64 458.5 355.6 458.45 355.62 458.44 355.63 458.42 355.61 458.38 355.61 458.34 355.61 458.28 355.6 458.24 355.58 458.2 355.55 458.18 355.51 458.17 355.52 458.14 355.52 458.13 355.53 458.13 355.49 458.13 355.48 458.11 355.49 458.09 355.48 458.07 355.41 458.07 355.42 458.04 355.44 458.04 355.43 458.02 355.42 458.01 355.41 457.98 355.42 457.97 355.4 457.95 355.38 457.92 355.36 457.91 355.38 457.9 355.4 457.88 355.41 457.87 355.41 457.85 355.4 457.84 355.4 457.83 355.39 457.84 355.45 457.84 355.47 457.82 355.46 457.8 355.46 457.79 355.47 457.78 355.49 457.77 355.49 457.75 355.49 457.72 355.5 457.69 355.51 457.66 355.49 457.63 355.45 457.6 355.44 457.57 355.43 457.55 355.44 457.54 355.46 457.54 355.5 457.51 355.48 457.47 355.49 457.44 355.51 457.44 355.56 457.4 355.52 457.38 355.48 457.35 355.45 457.3 355.45 457.29 355.47 457.27 355.49 457.25 355.5 457.23 355.46 457.22 355.44 457.22 355.42 457.22 355.39 457.21 355.4 457.19 355.4 457.18 355.41 457.17 355.35 457.14 355.34 457.12 355.35 457.15 355.36 457.13 355.39 457.1 355.39 457.07 355.38 457.04 355.36 456.98 355.29 456.95 355.27 456.9 355.26 456.9 355.26 456.89 355.25 456.87 355.23 456.86 355.23 456.83 355.23 456.82 355.24 456.8 355.25 456.77 355.23 456.77 355.21 456.78 355.2 456.78 355.2 456.79 355.19 456.8 355.18 456.75 355.18 456.73 355.16 456.72 355.13 456.71 355.11 456.69 355.11 456.66 355.11 456.62 355.1 456.6 355.11 456.62 355.15 456.59 355.16 456.53 355.18 456.52 355.17 456.49 355.15 456.49 355.15 456.48 355.15 456.38 355.21 456.33 355.22 456.29 355.2 456.27 355.22 456.24 355.23 456.22 355.25 456.25 355.29 456.21 355.3 456.18 355.33 456.16 355.38 456.16 355.43 456.15 355.46 456.12 355.49 456.1 355.52 456.11 355.57 456.13 355.58 456.17 355.59 456.19 355.6 456.19 355.62 456.18 355.66 456.18 355.69 456.17 355.7 456.14 355.74 456.13 355.76 456.13 355.82 456.12 355.84 456.1 355.86 456.06 355.87 455.97 355.88 455.95 355.9 455.92 355.91 455.78 355.92 455.76 355.91 455.74 355.9 455.73 355.89 455.7 355.89 455.69 355.91 455.67 355.93 455.65 355.94 455.64 355.95 455.62 355.99 455.6 356.04 455.59 356.04 455.51 356.02 455.43 355.98 455.35 355.95 455.32 355.95 455.31 355.96 455.27 355.99 455.26 356 455.2 356.01 455.12 356.06 455.08 356.07 455.06 356.07 455.03 356.06 455.02 356.06 455 356.07 454.97 356.09 454.95 356.11 454.93 356.11 454.9 356.09 454.86 356.11 454.82 356.12 454.67 356.1 454.65 356.09 454.66 356.07 454.69 356.03 454.66 356.01 454.59 355.99 454.56 355.97 454.55 355.94 454.55 355.9 454.53 355.88 454.5 355.87 454.45 355.86 454.43 355.85 454.41 355.83 454.39 355.79 454.38 355.77 454.34 355.74 454.28 355.71 454.27 355.71 454.22 355.7 454.17 355.71 454.16 355.74 454.16 355.77 454.15 355.79 454.12 355.77 454.11 355.75 454.09 355.69 454.08 355.66 454.05 355.7 454.02 355.75 454 355.79 454.02 355.82 454.08 355.83 454.08 355.85 454.06 355.88 454.02 355.91 453.86 355.93 453.84 355.94 453.83 355.95 453.81 356.01 453.8 356.04 453.8 356.06 453.79 356.08 453.77 356.09 453.76 356.09 453.75 356.04 453.71 356.02 453.66 356.03 453.62 356.06 453.56 356.14 453.54 356.15 453.51 356.14 453.47 356.11 453.44 356.1 453.4 356.11 453.36 356.13 453.3 356.18 453.19 356.23 453.15 356.26 453.12 356.22 453.11 356.22 453.09 356.23 453.08 356.24 453.07 356.26 453.07 356.29 453.08 356.31 453.09 356.34 453.03 356.34 452.94 356.32 452.92 356.32 452.9 356.34 452.88 356.35 452.86 356.34 452.82 356.33 452.79 356.33 452.75 356.34 452.67 356.4 452.62 356.42 452.52 356.43 452.47 356.45 452.39 356.5 452.29 356.52 452.24 356.54 452.11 356.65 452.07 356.66 452.01 356.67 451.98 356.69 451.95 356.71 451.94 356.75 451.93 356.78 451.93 356.8 451.93 356.81 451.92 356.83 451.9 356.84 451.86 356.84 451.84 356.85 451.81 356.82 451.77 356.81 451.73 356.8 451.68 356.8 451.68 356.79 451.65 356.77 451.65 356.76 451.64 356.76 451.59 356.75 451.57 356.74 451.54 356.68 451.48 356.64 451.47 356.63 451.45 356.62 451.39 356.54 451.36 356.51 451.26 356.56 451.2 356.57 451.15 356.55 451.13 356.53 451.11 356.51 451.08 356.5 451.05 356.5 451.02 356.49 451.01 356.46 451 356.42 450.98 356.38 450.95 356.32 450.93 356.3 450.91 356.3 450.88 356.31 450.85 356.32 450.83 356.33 450.8 356.33 450.77 356.32 450.76 356.32 450.74 356.35 450.72 356.37 450.72 356.4 450.73 356.43 450.75 356.45 450.73 356.47 450.68 356.51 450.66 356.57 450.62 356.57 450.58 356.54 450.55 356.53 450.51 356.54 450.49 356.57 450.46 356.65 450.45 356.68 450.43 356.71 450.4 356.73 450.37 356.75 450.37 356.78 450.38 356.82 450.39 356.85 450.38 356.86 450.36 356.9 450.36 356.91 450.35 356.93 450.32 356.95 450.31 356.96 450.31 357.01 450.31 357.04 450.3 357.06 450.26 357.07 450.22 357.08 450.12 357.07 450.08 357.1 450.07 357.15 450.07 357.21 450.08 357.25 450.12 357.3 450.13 357.32 450.12 357.34 450.1 357.36 450.07 357.38 450.04 357.39 450.03 357.41 449.96 357.53 449.96 357.55 449.98 357.6 449.98 357.62 449.96 357.64 449.92 357.68 449.92 357.69 449.9 357.72 449.86 357.76 449.78 357.81 449.77 357.82 449.72 357.84 449.7 357.84 449.44 357.86 449.23 357.81 449.18 357.78 449.13 357.76 449.1 357.75 449.06 357.7 449.05 357.69 449.01 357.68 448.89 357.66 448.85 357.64 448.79 357.61 448.77 357.6 448.74 357.6 448.73 357.61 448.72 357.61 448.7 357.62 448.66 357.63 448.53 357.62 448.47 357.61 448.44 357.59 448.41 357.56 448.37 357.54 448.35 357.54 448.28 357.54 448.26 357.54 448.25 357.53 448.24 357.52 448.23 357.51 448.18 357.49 448.15 357.49 448.08 357.5 447.99 357.49 447.96 357.49 447.74 357.6 447.72 357.59 447.68 357.59 447.65 357.59 447.64 357.58 447.62 357.56 447.6 357.55 447.57 357.54 447.47 357.55 447.43 357.54 447.38 357.53 447.34 357.51 447.24 357.44 447.23 357.43 447.21 357.41 447.19 357.41 447.16 357.41 447.14 357.41 447.12 357.42 447.11 357.43 447.09 357.45 447.08 357.47 447.07 357.48 447.05 357.5 447.02 357.5 447 357.49 446.98 357.47 446.96 357.47 446.92 357.46 446.9 357.46 446.88 357.42 446.86 357.41 446.8 357.39 446.78 357.36 446.74 357.29 446.72 357.27 446.68 357.26 446.47 357.18 446.27 357.14 446.18 357.15 446.15 357.16 446.12 357.18 446.09 357.2 446.04 357.21 445.86 357.21 445.67 357.24 445.62 357.23 445.57 357.2 445.35 356.98 445.34 356.97 445.31 356.93 445.32 356.88 445.35 356.85 445.36 356.82 445.35 356.77 445.31 356.72 445.27 356.68 445.23 356.66 445.21 356.65 445.16 356.54 445.12 356.47 445.08 356.44 445.05 356.42 445 356.42 444.9 356.38 444.86 356.36 444.81 356.33 444.71 356.2 444.67 356.18 444.52 356.12 444.45 356.07 444.4 356.03 444.34 355.99 444.15 355.95 444.09 355.93 444.07 355.9 444.06 355.87 444.02 355.8 444 355.77 443.98 355.74 443.94 355.72 443.84 355.67 443.78 355.66 443.73 355.64 443.71 355.63 443.46 355.63 443.38 355.59 443.33 355.6 443.26 355.63 443.22 355.64 443.07 355.63 443.02 355.65 442.99 355.68 442.94 355.74 442.75 355.86 442.64 355.91 442.63 355.93 442.59 355.99 442.55 356.04 442.51 356.05 442.41 356.05 442.37 356.07 442.35 356.09 442.3 356.13 442.27 356.17 442.24 356.23 442.23 356.3 442.21 356.32 442.2 356.34 442.18 356.35 442.16 356.37 442.14 356.45 442.11 356.48 442.07 356.51 442.03 356.54 441.96 356.67 441.95 356.68 441.91 356.69 441.9 356.7 441.89 356.71 441.87 356.77 441.79 356.83 441.74 356.91 441.62 357.19 441.57 357.26 441.5 357.31 441.39 357.34 441.35 357.35 441.31 357.36 441.26 357.35 441.22 357.32 441.18 357.32 441.13 357.36 441.1 357.42 441.09 357.47 441.11 357.5 441.17 357.56 441.18 357.58 441.19 357.62 441.27 357.77 441.3 357.85 441.33 358.04 441.33 358.18 441.32 358.23 441.31 358.28 441.26 358.36 441.26 358.41 441.26 358.44 441.26 358.51 441.21 358.78 441.29 359.3 441.19 359.29 441.16 359.27 441.13 359.19 441.04 359.04 441 359 440.95 358.95 440.92 358.95 440.89 358.98 440.85 359.02 440.83 359.03 440.79 359.03 440.77 359.03 440.76 359.04 440.75 359.07 440.74 359.08 440.73 359.08 440.7 359.07 440.69 359.06 440.51 359.08 440.49 359.08 440.47 359.07 440.45 359.08 440.44 359.11 440.42 359.18 440.41 359.2 440.39 359.24 440.35 359.27 440.3 359.29 440.25 359.29 440.23 359.26 440.2 359.17 440.16 359.13 440.08 359.1 440 359.11 439.93 359.13 439.86 359.16 439.83 359.16 439.81 359.15 439.73 359.1 439.72 359.1 439.71 359.11 439.62 359.15 439.58 359.16 439.55 359.16 439.54 359.12 439.52 359.08 439.5 359.04 439.48 359.01 439.44 358.99 439.42 358.98 439.38 358.99 439.36 358.99 439.35 358.98 439.32 358.96 439.31 358.95 439.29 358.95 439.27 358.96 439.26 358.97 439.07 358.97 438.98 358.95 438.9 358.92 438.82 358.85 438.81 358.84 438.78 358.84 438.77 358.83 438.76 358.8 438.75 358.79 438.7 358.79 438.66 358.8 438.63 358.83 438.6 358.84 438.52 358.88 438.47 358.94 438.42 358.98 438.34 358.99 438.29 358.97 438.26 358.97 438.23 358.98 438.2 359 438.18 359.03 438.16 359.05 438.12 359.06 438.09 359.07 438 359.07 437.97 359.07 437.91 359.1 437.88 359.1 437.82 359.1 437.8 359.1 437.76 359.12 437.75 359.13 437.72 359.15 437.7 359.16 437.69 359.16 437.66 359.16 437.64 359.16 437.61 359.17 437.6 359.16 437.58 359.14 437.56 359.13 437.53 359.13 437.47 359.13 437.45 359.13 437.41 359.11 437.39 359.11 437.36 359.11 437.35 359.13 437.36 359.15 437.36 359.17 437.31 359.19 437.27 359.2 437.08 359.15 437.04 359.15 436.99 359.15 436.88 359.18 436.79 359.24 436.73 359.32 436.69 359.42 436.67 359.61 436.61 359.74 436.61 359.8 436.6 359.85 436.52 359.95 436.5 360 436.5 360.06 436.51 360.1 436.54 360.15 436.55 360.2 436.54 360.28 436.45 360.44 436.46 360.54 436.49 360.58 436.52 360.61 436.54 360.65 436.53 360.71 436.47 360.84 436.41 360.95 436.38 361.01 436.29 361.21 436.19 361.43 436.12 361.58 436.02 361.79 435.9 362.03 435.89 362.02 435.87 362.01 435.87 361.98 435.88 361.96 435.88 361.94 435.87 361.93 435.84 361.91 435.83 361.9 435.83 361.86 435.83 361.84 435.82 361.82 435.8 361.79 435.76 361.75 435.73 361.69 435.72 361.65 435.71 361.63 435.71 361.55 435.7 361.51 435.68 361.45 435.67 361.43 435.67 361.38 435.7 361.3 435.71 361.26 435.71 361.21 435.67 361.14 435.67 361.09 435.67 361.07 435.69 361.03 435.71 361 435.69 361 435.66 361 435.63 361 435.61 361 435.6 360.98 435.6 360.95 435.59 360.88 435.6 360.82 435.66 360.76 435.68 360.71 435.67 360.65 435.65 360.6 435.62 360.55 435.59 360.48 435.54 360.41 435.52 360.39 435.5 360.38 435.48 360.38 435.46 360.39 435.43 360.4 435.42 360.39 435.41 360.38 435.4 360.37 435.37 360.26 435.36 360.21 435.32 360.17 435.28 360.13 435.24 360.12 435.14 360.13 435.14 360.13 435.11 360.11 435.1 360.11 435.09 360.11 435.06 360.13 435.05 360.13 435.03 360.12 435.01 360.12 434.99 360.11 434.83 359.93 434.62 359.71 434.4 359.48 434.17 359.24 433.98 359.04 433.83 358.89 433.81 358.86 433.63 358.67 433.44 358.39 433.31 358.08 433.35 358.08 433.42 358.1 433.45 358.11 433.5 358.1 433.58 358.06 433.63 358.05 433.68 358.03 433.67 358 433.64 357.98 433.61 357.98 433.58 357.98 433.57 357.96 433.56 357.93 433.54 357.9 433.51 357.89 433.48 357.89 433.45 357.87 433.44 357.81 433.43 357.69 433.41 357.55 433.39 357.49 433.36 357.43 433.28 357.34 433.27 357.31 433.25 357.25 433.24 357.23 433.21 357.21 433.11 357.18 432.76 356.94 432.68 356.86 432.62 356.77 432.59 356.66 432.58 356.5 432.56 356.46 432.57 356.44 432.58 356.42 432.59 356.37 432.59 356.34 432.56 356.14 432.54 356.11 432.53 356.09 432.52 356.06 432.53 356.01 432.52 355.98 432.5 355.97 432.5 355.94 432.5 355.91 432.5 355.9 432.51 355.82 432.5 355.73 432.5 355.62 432.49 355.57 432.48 355.52 432.45 355.47 432.42 355.44 432.37 355.42 432.28 355.38 432.23 355.36 432.19 355.32 432.19 355.29 432.2 355.29 432.23 355.26 432.25 355.23 432.26 355.19 432.27 355.16 432.28 355.15 432.3 355.11 432.32 355.08 432.32 355.06 432.35 355.05 432.36 355.02 432.36 354.96 432.36 354.92 432.39 354.86 432.4 354.84 432.41 354.77 432.4 354.75 432.39 354.71 432.36 354.66 432.34 354.63 432.34 354.59 432.35 354.56 432.39 354.45 432.42 354.33 432.43 354.3 432.42 354.26 432.4 354.02 432.37 353.98 432.36 353.94 432.33 353.89 432.3 353.89 432.24 353.93 432.21 353.93 432.14 353.92 432.1 353.92 432.07 353.9 432.05 353.86 432.04 353.82 432.02 353.79 431.99 353.76 431.96 353.73 431.93 353.7 431.91 353.68 431.9 353.65 431.89 353.64 431.9 353.62 431.91 353.6 431.93 353.6 431.95 353.62 431.96 353.62 431.97 353.61 431.98 353.59 431.98 353.58 431.99 353.56 431.99 353.55 431.99 353.54 431.99 353.53 432.02 353.5 432.07 353.45 432.1 353.44 432.17 353.38 432.2 353.34 432.22 353.3 432.31 353.3 432.63 353.15 432.66 353.12 432.75 353.02 432.77 352.98 432.77 352.95 432.77 352.93 432.76 352.88 432.77 352.85 432.82 352.78 433.08 352.2 433.1 352.15 433.13 352.12 433.17 352.09 433.3 352.03 433.33 352 433.34 351.97 433.38 351.87 433.43 351.78 433.5 351.59 433.54 351.45 433.55 351.41 433.58 351.37 433.6 351.36 433.65 351.33 433.67 351.31 433.67 351.29 433.66 351.16 433.66 351.14 433.67 351.11 433.7 351.06 433.75 350.96 433.8 350.92 433.83 350.89 434 350.79 434.1 350.71 434.11 350.7 434.13 350.66 434.14 350.65 434.16 350.65 434.2 350.65 434.21 350.64 434.21 350.61 434.17 350.57 434.18 350.54 434.3 350.38 434.32 350.35 434.39 350.37 434.47 350.38 434.64 350.35 434.73 350.36 434.85 350.47 434.93 350.5 435.01 350.49 435.3 350.42 435.34 350.41 435.41 350.36 435.45 350.33 435.49 350.26 435.53 350.23 435.56 350.21 435.61 350.2 435.75 350.18 435.83 350.15 435.88 350.15 435.93 350.15 435.97 350.12 436.05 350.06 436.09 350.04 436.29 350.02 436.32 350 436.32 349.97 436.32 349.82 436.34 349.77 436.37 349.74 436.39 349.74 436.41 349.75 436.44 349.76 436.47 349.75 436.48 349.73 436.51 349.67 436.52 349.65 436.56 349.62 436.6 349.6 436.68 349.58 436.69 349.59 436.69 349.61 436.69 349.64 436.67 349.7 436.68 349.74 436.71 349.78 436.74 349.8 436.77 349.81 436.79 349.82 436.81 349.83 436.83 349.85 436.84 349.88 436.83 349.9 436.82 349.92 436.82 349.95 436.83 350 436.85 350.02 436.94 350.05 436.99 350.07 437.04 350.11 437.12 350.21 437.17 350.29 437.2 350.31 437.25 350.3 437.27 350.29 437.27 350.29 437.32 350.25 437.33 350.25 437.35 350.25 437.36 350.25 437.36 350.23 437.36 350.22 437.35 350.21 437.34 350.19 437.36 350.15 437.39 350.12 437.42 350.1 437.51 350.08 437.6 350.06 437.64 350.07 437.66 350.04 437.68 350.03 437.7 350.03 437.77 350.04 437.78 350.03 437.77 350.01 437.78 349.99 437.81 349.96 437.86 349.98 437.88 349.99 437.9 350 437.91 350 437.94 349.98 437.98 349.94 438.06 349.85 438.1 349.81 438.12 349.81 438.14 349.81 438.15 349.8 438.16 349.76 438.17 349.74 438.2 349.71 438.2 349.71 438.24 349.68 438.54 349.58 438.58 349.55 438.61 349.51 438.72 349.55 438.74 349.53 438.76 349.48 438.8 349.45 438.84 349.44 438.92 349.43 438.97 349.42 439.01 349.4 439.06 349.33 439.1 349.32 439.15 349.32 439.19 349.32 439.49 349.37 439.59 349.38 439.67 349.36 439.85 349.29 440.06 349.24 441.03 349.22 441.21 349.18 441.27 349.09 441.27 348.98 441.32 348.89 441.39 348.83 441.49 348.78 441.62 348.73 441.65 348.72 441.7 348.67 441.8 348.53 441.87 348.46 441.9 348.42 441.92 348.37 441.94 348.33 442.16 348.07 442.25 347.9 442.28 347.88 442.3 347.87 442.32 347.84 442.39 347.79 442.35 347.73 442.28 347.68 442.24 347.66 442.22 347.63 441.96 347.52 441.93 347.5 441.92 347.47 441.92 347.43 441.9 347.41 441.87 347.43 441.83 347.4 441.83 347.36 441.88 347.29 441.9 347.3 441.92 347.3 441.93 347.29 441.94 347.27 441.95 347.24 441.96 347.24 441.98 347.23 442.01 347.21 442.05 347.2 442.06 347.19 442.07 347.17 442.08 347.16 442.12 347.13 442.17 347.09 442.25 347.05 442.34 347.03 442.4 347.05 442.41 347.05 442.43 347.04 442.49 347.06 442.5 347.05 442.51 347.03 442.54 347.02 442.63 347.01 442.68 347 442.7 347 442.73 347.01 442.75 347.03 442.77 347.04 442.79 347.02 442.82 347.03 442.86 347.05 442.9 347.06 442.94 347.06 442.96 347.05 443.05 347.02 443.07 347.03 443.24 347.03 443.25 347.03 443.26 347.04 443.27 347.04 443.29 347.03 443.34 347.03 443.41 347.01 443.48 346.99 443.54 347.03 443.57 347.01 443.67 347.02 443.69 347.01 443.7 347 443.75 346.97 443.77 346.97 443.8 346.97 443.86 346.95 443.9 346.95 444.09 346.96 444.12 346.95 444.14 346.91 444.18 346.92 444.18 346.92 444.21 346.92 444.26 346.88 444.28 346.87 444.3 346.88 444.32 346.87 444.33 346.86 444.33 346.84 444.33 346.83 444.34 346.82 444.35 346.82 444.37 346.82 444.37 346.86 444.39 346.86 444.4 346.85 444.4 346.84 444.4 346.83 444.4 346.82 444.47 346.76 444.49 346.75 444.5 346.76 444.53 346.77 444.55 346.77 444.56 346.76 444.55 346.75 444.56 346.73 444.58 346.72 444.59 346.74 444.61 346.76 444.64 346.79 444.68 346.8 444.71 346.79 444.77 346.75 444.8 346.74 444.83 346.75 444.85 346.76 444.9 346.8 444.95 346.79 445.13 346.8 445.17 346.79 445.19 346.79 445.23 346.76 445.25 346.75 445.27 346.74 445.3 346.75 445.34 346.71 445.37 346.65 445.4 346.61 445.46 346.59 445.47 346.56 445.45 346.51 445.43 346.46 445.47 346.43 445.5 346.43 445.52 346.42 445.52 346.39 445.53 346.37 445.53 346.34 445.55 346.35 445.6 346.37 445.6 346.37 445.65 346.38 445.65 346.37 445.68 346.39 445.7 346.39 445.81 346.39 445.79 346.3 445.88 346.25 445.98 346.22 446 346.2 446.01 346.22 446.03 346.2 446.04 346.17 446.05 346.15 446.08 346.14 446.09 346.14 446.1 346.12 446.11 346.11 446.12 346.12 446.14 346.13 446.14 346.13 446.15 346.13 446.16 346.13 446.18 346.09 446.18 346.03 446.2 345.98 446.25 345.96 446.27 345.94 446.36 345.85 446.38 345.82 446.38 345.79 446.4 345.77 446.45 345.75 446.46 345.73 446.47 345.71 446.48 345.7 446.51 345.72 446.51 345.69 446.51 345.68 446.5 345.67 446.5 345.65 446.53 345.64 446.54 345.62 446.54 345.54 446.55 345.51 446.58 345.45 446.59 345.4 446.59 345.39 446.61 345.38 446.62 345.37 446.63 345.36 446.64 345.36 446.64 345.36 446.64 345.35 446.66 345.35 446.67 345.35 446.69 345.37 446.7 345.38 446.71 345.37 446.73 345.36 446.76 345.33 446.77 345.33 446.78 345.33 446.78 345.34 446.79 345.33 446.78 345.3 446.79 345.29 446.82 345.21 446.84 345.17 446.97 345.09 446.98 345.08 446.99 345.05 447.01 345.02 447.12 344.88 447.15 344.86 447.18 344.88 447.27 344.91 447.3 344.92 447.38 344.89 447.45 344.82 447.51 344.73 447.63 344.46 447.69 344.38 447.76 344.34 447.78 344.34 447.81 344.35 447.83 344.36 447.86 344.35 447.87 344.35 447.94 344.33 447.95 344.32 448 344.31 448.03 344.27 448.05 344.23 448.08 344.18 448.1 344.18 448.12 344.17 448.14 344.17 448.15 344.15 448.15 344.13 448.14 344.09 448.14 344.07 448.15 344.02 448.21 343.91 448.2 343.89 448.2 343.88 448.2 343.86 448.2 343.85 448.19 343.83 448.15 343.78 448.14 343.76 448.13 343.73 448.11 343.64 448.11 343.59 448.11 343.55 448.13 343.48 448.14 343.44 448.15 343.41 448.18 343.38 448.22 343.37 448.25 343.37 448.27 343.36 448.28 343.35 448.29 343.33 448.31 343.33 448.33 343.32 448.37 343.31 448.4 343.31 448.44 343.33 448.46 343.34 448.47 343.32 448.48 343.31 448.53 343.27 448.6 343.22 448.64 343.2 448.78 343.17 448.8 343.14 448.78 343.09 448.79 343.06 448.81 343.02 448.83 342.98 448.87 342.96 449.06 342.98 449.1 342.97 449.16 343 449.19 342.96 449.21 342.89 449.28 342.83 449.3 342.8 449.33 342.78 449.36 342.8 449.38 342.8 449.4 342.78 449.44 342.74 449.47 342.73 449.52 342.71 449.57 342.7 449.58 342.69 449.64 342.68 449.67 342.67 449.7 342.66 449.74 342.61 449.76 342.6 449.79 342.59 449.82 342.6 449.85 342.61 449.88 342.61 449.9 342.59 449.95 342.63 450 342.64 450.05 342.62 450.1 342.62 450.12 342.62 450.16 342.64 450.18 342.65 450.26 342.65 450.28 342.65 450.36 342.67 450.42 342.72 450.55 342.76 450.68 342.77 Z" id="Central African Republic" transform="translate(-431.8900146484375,-342.5899963378906) "/></svg>