<svg xmlns="http://www.w3.org/2000/svg" viewBox="0 0 23.360015869140625 36.670013427734375"><path d="M 453.16 323.18 453.16 323.72 453.16 324.26 453.16 324.81 453.16 325.35 453.16 325.88 453.16 326.42 453.16 326.96 453.16 327.5 453.16 328.03 453.16 328.57 453.16 329.11 453.16 329.64 453.16 330.17 453.16 330.71 453.17 331.24 453.17 331.77 453.17 331.9 453.17 331.9 453.14 331.97 453.08 331.97 452.82 331.88 452.55 331.84 452.3 331.84 452.15 331.87 451.86 331.98 451.69 332 451.35 331.92 451.25 331.94 451.19 331.94 451.14 331.98 450.99 332.16 450.82 332.26 450.78 332.32 450.76 332.39 450.78 332.45 450.81 332.51 450.86 332.56 450.91 332.63 450.93 332.7 450.94 332.78 450.91 333.04 450.89 333.09 450.79 333.27 450.77 333.29 450.7 333.32 450.65 333.35 450.6 333.39 450.4 333.6 450.38 333.64 450.37 333.7 450.36 333.74 450.35 333.78 450.31 333.82 450.23 333.88 450.21 333.91 450.21 333.97 450.23 334.1 450.24 334.14 450.27 334.21 450.28 334.23 450.27 334.26 450.24 334.28 449.8 334.4 449.7 334.44 449.61 334.51 449.57 334.59 449.62 334.67 449.69 334.73 449.71 334.76 449.74 335 449.75 335.02 449.76 335.03 449.77 335.04 449.76 335.06 449.75 335.07 449.72 335.08 449.71 335.09 449.69 335.13 449.69 335.15 449.7 335.18 449.72 335.22 449.74 335.26 449.78 335.28 449.91 335.3 449.95 335.32 449.97 335.37 449.98 335.44 449.98 335.51 449.94 335.55 449.89 335.57 449.83 335.58 449.78 335.61 449.7 335.68 449.66 335.71 449.31 335.88 449.24 335.92 449.19 335.98 449.17 336.01 448.99 336.24 448.93 336.32 448.93 336.34 448.98 336.39 449.02 336.44 449.02 336.47 449.02 336.51 449.02 336.56 449.06 336.64 449.2 336.78 449.23 336.86 449.23 336.99 449.24 337.04 449.27 337.09 449.35 337.19 449.38 337.24 449.36 337.33 449.28 337.44 449.08 337.65 449.04 337.68 448.8 337.77 448.76 337.79 448.69 337.87 448.62 337.96 448.44 338.3 448.39 338.47 448.35 338.54 448.34 338.56 448.35 338.58 448.41 338.66 448.5 338.82 448.55 338.87 448.62 338.9 448.72 338.92 448.81 338.92 448.9 338.91 449 338.88 449.09 338.83 449.16 338.76 449.22 338.67 449.5 338.85 449.73 338.94 449.75 338.97 449.64 339.23 449.59 339.3 449.6 339.33 449.67 339.44 449.83 339.95 449.84 339.97 449.84 340 449.84 340.03 449.78 340.28 449.8 340.27 449.81 340.26 449.83 340.25 449.98 340.2 450.06 340.18 450.09 340.2 450.11 340.17 450.12 340.18 450.13 340.22 450.12 340.26 450.08 340.37 449.96 341.06 449.97 341.17 450.01 341.28 450.08 341.37 450.16 341.45 450.24 341.48 450.41 341.55 450.47 341.6 450.48 341.62 450.48 341.69 450.5 341.7 450.71 341.67 450.76 341.68 450.79 341.7 450.82 341.86 450.88 342.03 450.88 342.06 450.89 342.12 450.88 342.16 450.84 342.24 450.83 342.28 450.82 342.33 450.82 342.37 450.81 342.4 450.78 342.43 450.76 342.46 450.68 342.77 450.55 342.76 450.42 342.72 450.36 342.67 450.28 342.65 450.26 342.65 450.18 342.65 450.16 342.64 450.12 342.62 450.1 342.62 450.05 342.62 450 342.64 449.95 342.63 449.9 342.59 449.88 342.61 449.85 342.61 449.82 342.6 449.79 342.59 449.76 342.6 449.74 342.61 449.7 342.66 449.67 342.67 449.64 342.68 449.58 342.69 449.57 342.7 449.52 342.71 449.47 342.73 449.44 342.74 449.4 342.78 449.38 342.8 449.36 342.8 449.33 342.78 449.3 342.8 449.28 342.83 449.21 342.89 449.19 342.96 449.16 343 449.1 342.97 449.06 342.98 448.87 342.96 448.83 342.98 448.81 343.02 448.79 343.06 448.78 343.09 448.8 343.14 448.78 343.17 448.64 343.2 448.6 343.22 448.53 343.27 448.48 343.31 448.47 343.32 448.46 343.34 448.44 343.33 448.4 343.31 448.37 343.31 448.33 343.32 448.31 343.33 448.29 343.33 448.28 343.35 448.27 343.36 448.25 343.37 448.22 343.37 448.18 343.38 448.15 343.41 448.14 343.44 448.13 343.48 448.11 343.55 448.11 343.59 448.11 343.64 448.13 343.73 448.14 343.76 448.15 343.78 448.19 343.83 448.2 343.85 448.2 343.86 448.2 343.88 448.2 343.89 448.21 343.91 448.15 344.02 448.14 344.07 448.14 344.09 448.15 344.13 448.15 344.15 448.14 344.17 448.12 344.17 448.1 344.18 448.08 344.18 448.05 344.23 448.03 344.27 448 344.31 447.95 344.32 447.94 344.33 447.87 344.35 447.86 344.35 447.83 344.36 447.81 344.35 447.78 344.34 447.76 344.34 447.69 344.38 447.63 344.46 447.51 344.73 447.45 344.82 447.38 344.89 447.3 344.92 447.27 344.91 447.18 344.88 447.15 344.86 447.12 344.88 447.01 345.02 446.99 345.05 446.98 345.08 446.97 345.09 446.84 345.17 446.82 345.21 446.79 345.29 446.78 345.3 446.79 345.33 446.78 345.34 446.78 345.33 446.77 345.33 446.76 345.33 446.73 345.36 446.71 345.37 446.7 345.38 446.69 345.37 446.67 345.35 446.66 345.35 446.64 345.35 446.64 345.36 446.64 345.36 446.63 345.36 446.62 345.37 446.61 345.38 446.59 345.39 446.59 345.4 446.58 345.45 446.55 345.51 446.54 345.54 446.54 345.62 446.53 345.64 446.5 345.65 446.5 345.67 446.51 345.68 446.51 345.69 446.51 345.72 446.48 345.7 446.47 345.71 446.46 345.73 446.45 345.75 446.4 345.77 446.38 345.79 446.38 345.82 446.36 345.85 446.27 345.94 446.25 345.96 446.2 345.98 446.18 346.03 446.18 346.09 446.16 346.13 446.15 346.13 446.14 346.13 446.14 346.13 446.12 346.12 446.11 346.11 446.1 346.12 446.09 346.14 446.08 346.14 446.05 346.15 446.04 346.17 446.03 346.2 446.01 346.22 446 346.2 445.98 346.22 445.88 346.25 445.79 346.3 445.81 346.39 445.7 346.39 445.68 346.39 445.65 346.37 445.65 346.38 445.6 346.37 445.6 346.37 445.55 346.35 445.53 346.34 445.53 346.37 445.52 346.39 445.52 346.42 445.5 346.43 445.47 346.43 445.43 346.46 445.45 346.51 445.47 346.56 445.46 346.59 445.4 346.61 445.37 346.65 445.34 346.71 445.3 346.75 445.27 346.74 445.25 346.75 445.23 346.76 445.19 346.79 445.17 346.79 445.13 346.8 444.95 346.79 444.9 346.8 444.85 346.76 444.83 346.75 444.8 346.74 444.77 346.75 444.71 346.79 444.68 346.8 444.64 346.79 444.61 346.76 444.59 346.74 444.58 346.72 444.56 346.73 444.55 346.75 444.56 346.76 444.55 346.77 444.53 346.77 444.5 346.76 444.49 346.75 444.47 346.76 444.4 346.82 444.4 346.83 444.4 346.84 444.4 346.85 444.39 346.86 444.37 346.86 444.37 346.82 444.35 346.82 444.34 346.82 444.33 346.83 444.33 346.84 444.33 346.86 444.32 346.87 444.3 346.88 444.28 346.87 444.26 346.88 444.21 346.92 444.18 346.92 444.18 346.92 444.14 346.91 444.12 346.95 444.09 346.96 443.9 346.95 443.86 346.95 443.8 346.97 443.77 346.97 443.75 346.97 443.7 347 443.69 347.01 443.67 347.02 443.57 347.01 443.54 347.03 443.48 346.99 443.41 347.01 443.34 347.03 443.29 347.03 443.27 347.04 443.26 347.04 443.25 347.03 443.24 347.03 443.07 347.03 443.05 347.02 442.96 347.05 442.94 347.06 442.9 347.06 442.86 347.05 442.82 347.03 442.79 347.02 442.77 347.04 442.75 347.03 442.73 347.01 442.7 347 442.68 347 442.63 347.01 442.54 347.02 442.51 347.03 442.5 347.05 442.49 347.06 442.43 347.04 442.41 347.05 442.4 347.05 442.34 347.03 442.25 347.05 442.17 347.09 442.12 347.13 442.08 347.16 442.07 347.17 442.06 347.19 442.05 347.2 442.01 347.21 441.98 347.23 441.96 347.24 441.95 347.24 441.94 347.27 441.93 347.29 441.92 347.3 441.9 347.3 441.88 347.29 441.83 347.36 441.83 347.4 441.87 347.43 441.9 347.41 441.92 347.43 441.92 347.47 441.93 347.5 441.96 347.52 442.22 347.63 442.24 347.66 442.28 347.68 442.35 347.73 442.39 347.79 442.32 347.84 442.3 347.87 442.28 347.88 442.25 347.9 442.16 348.07 441.94 348.33 441.92 348.37 441.9 348.42 441.87 348.46 441.8 348.53 441.7 348.67 441.65 348.72 441.62 348.73 441.49 348.78 441.39 348.83 441.32 348.89 441.27 348.98 441.27 349.09 441.21 349.18 441.03 349.22 440.06 349.24 439.85 349.29 439.67 349.36 439.59 349.38 439.49 349.37 439.19 349.32 439.15 349.32 439.1 349.32 439.06 349.33 439.01 349.4 438.97 349.42 438.92 349.43 438.84 349.44 438.8 349.45 438.76 349.48 438.74 349.53 438.72 349.55 438.61 349.51 438.58 349.55 438.54 349.58 438.24 349.68 438.2 349.71 438.2 349.71 438.17 349.74 438.16 349.76 438.15 349.8 438.14 349.81 438.12 349.81 438.1 349.81 438.06 349.85 437.98 349.94 437.94 349.98 437.91 350 437.9 350 437.88 349.99 437.86 349.98 437.81 349.96 437.78 349.99 437.77 350.01 437.78 350.03 437.77 350.04 437.7 350.03 437.68 350.03 437.66 350.04 437.64 350.07 437.6 350.06 437.51 350.08 437.42 350.1 437.39 350.12 437.36 350.15 437.34 350.19 437.35 350.21 437.36 350.22 437.36 350.23 437.36 350.25 437.35 350.25 437.33 350.25 437.32 350.25 437.27 350.29 437.27 350.29 437.25 350.3 437.2 350.31 437.17 350.29 437.12 350.21 437.04 350.11 436.99 350.07 436.94 350.05 436.85 350.02 436.83 350 436.82 349.95 436.82 349.92 436.83 349.9 436.84 349.88 436.83 349.85 436.81 349.83 436.79 349.82 436.77 349.81 436.74 349.8 436.71 349.78 436.68 349.74 436.67 349.7 436.69 349.64 436.69 349.61 436.69 349.59 436.68 349.58 436.6 349.6 436.56 349.62 436.52 349.65 436.51 349.67 436.48 349.73 436.47 349.75 436.44 349.76 436.41 349.75 436.39 349.74 436.37 349.74 436.34 349.77 436.32 349.82 436.32 349.97 436.32 350 436.29 350.02 436.09 350.04 436.05 350.06 435.97 350.12 435.93 350.15 435.88 350.15 435.83 350.15 435.75 350.18 435.61 350.2 435.56 350.21 435.53 350.23 435.49 350.26 435.45 350.33 435.41 350.36 435.34 350.41 435.3 350.42 435.01 350.49 434.93 350.5 434.85 350.47 434.73 350.36 434.64 350.35 434.47 350.38 434.39 350.37 434.32 350.35 434.41 350.23 434.47 350.11 434.5 349.98 434.5 349.75 434.45 349.74 434.38 349.72 434.33 349.72 434.23 349.64 434.15 349.46 434.02 348.99 433.72 348.35 433.66 348.22 433.62 348.18 433.5 348.05 433.4 347.9 433.37 347.86 433.32 347.82 433.26 347.8 433.18 347.79 433.15 347.78 433.14 347.77 433.14 347.75 433.14 347.72 433.12 347.66 433.1 347.64 433.09 347.63 433.07 347.62 433.06 347.61 433.05 347.59 433.03 347.56 432.94 347.5 432.91 347.48 432.89 347.48 432.87 347.48 432.85 347.48 432.83 347.49 432.79 347.48 432.3 347.08 431.81 346.69 431.77 346.62 431.75 346.52 431.11 345.79 430.92 345.64 430.91 345.61 431.05 345.41 431.23 345.26 431.3 345.16 431.41 344.95 431.41 344.92 431.41 344.9 431.42 344.89 431.44 344.88 431.47 344.88 432.01 344.84 432.66 345 432.75 345 433.02 344.92 433.13 344.92 433.26 344.95 433.32 344.96 433.39 344.94 433.41 344.93 433.45 344.89 433.47 344.88 433.49 344.87 433.59 344.86 433.73 344.87 434.1 344.99 434.22 344.98 434.72 344.86 434.76 344.85 434.66 344.76 434.59 344.74 434.44 344.65 434.34 344.56 434.34 344.55 434.31 344.53 434.22 344.42 433.92 344.13 433.89 344.09 433.88 344.05 433.88 343.99 433.87 343.95 433.85 343.92 433.82 343.9 433.78 343.86 433.75 343.78 433.73 343.74 433.69 343.72 433.68 343.71 433.66 343.7 433.64 343.69 433.62 343.69 433.59 343.68 433.57 343.68 433.56 343.66 433.54 343.62 433.54 343.57 433.56 343.51 433.58 343.47 433.58 343.44 433.57 343.38 433.4 343.06 433.39 342.97 433.42 342.87 433.43 342.82 433.41 342.78 433.39 342.75 433.33 342.6 433.31 342.41 433.3 342.18 433.31 342.04 433.32 342.01 433.38 341.93 433.39 341.9 433.39 341.87 433.38 341.86 433.37 341.85 433.36 341.83 433.36 341.81 433.37 341.77 433.38 341.66 433.4 341.61 433.42 341.57 433.52 341.46 433.55 341.4 433.52 341.33 433.46 341.25 433.44 341.21 433.4 341.11 433.4 341.06 433.4 341.02 433.42 340.97 433.43 340.97 433.44 340.97 433.46 340.97 433.47 340.96 433.46 340.94 433.44 340.92 433.44 340.91 433.45 340.89 433.48 340.86 433.5 340.83 433.44 340.7 433.43 340.68 433.39 340.67 433.36 340.66 433.35 340.62 433.34 340.56 433.35 340.55 433.38 340.53 433.39 340.51 433.38 340.49 433.37 340.47 433.36 340.45 433.36 340.43 433.37 340.42 433.43 340.41 433.42 340.38 433.38 340.35 433.36 340.32 433.36 340.29 433.37 340.27 433.37 340.26 433.35 340.24 433.34 340.22 433.34 340.19 433.35 340.17 433.36 340.15 433.32 340.12 433.28 340.1 433.24 340.1 433.2 340.13 433.17 340.14 433.14 340.11 433.09 340.06 433.04 340.02 433.02 340 433.02 339.97 433.03 339.96 433.04 339.95 433.05 339.94 433.05 339.92 433.04 339.9 433.03 339.89 433.02 339.88 433.02 339.85 433.04 339.81 433.04 339.79 433.04 339.63 433.05 339.61 433.01 339.44 432.98 339.38 432.98 339.37 432.98 339.35 432.98 339.34 432.97 339.33 432.95 339.33 432.94 339.33 432.95 339.34 432.93 339.32 432.92 339.32 432.92 339.32 432.92 339.29 432.92 339.28 432.94 339.24 432.95 339.23 432.87 338.95 432.85 338.91 432.78 338.92 432.74 338.92 432.72 338.88 432.72 338.86 432.7 338.84 432.68 338.82 432.66 338.81 432.65 338.82 432.62 338.87 432.59 338.84 432.62 338.76 432.61 338.73 432.57 338.71 432.51 338.73 432.47 338.71 432.46 338.7 432.42 338.67 432.41 338.66 432.41 338.65 432.4 338.63 432.39 338.63 432.37 338.63 432.33 338.66 432.31 338.67 432.3 338.65 432.3 338.63 432.3 338.61 432.28 338.62 432.26 338.62 432.25 338.61 432.25 338.59 432.25 338.5 432.21 338.46 432.14 338.41 432.12 338.38 432.12 338.35 432.16 338.24 432.16 338.2 432.15 338.16 432.13 338.13 432.1 338.09 432.1 338.09 432 337.93 431.96 337.91 431.18 337.91 430.67 337.21 430.16 336.5 430.15 336.42 430.13 336.35 430.12 336.28 430.1 336.21 430.08 336.14 430.07 336.06 430.05 335.99 430.04 335.92 430.02 335.85 430 335.77 429.99 335.7 429.97 335.63 429.96 335.56 429.94 335.48 429.92 335.41 429.91 335.34 429.89 335.24 429.85 335.12 429.81 334.96 429.81 334.83 429.89 334.73 429.94 334.7 430.02 334.67 430.11 334.66 430.16 334.65 430.2 334.64 430.27 334.58 430.29 334.54 430.29 334.5 430.28 334.41 430.27 334.39 430.25 334.37 430.25 334.36 430.25 334.35 430.3 334.32 430.37 334.24 430.39 334.22 430.43 334.21 430.48 334.21 430.51 334.19 430.53 334.14 430.53 334.09 430.5 333.99 430.49 333.95 430.49 333.9 430.5 333.86 430.54 333.79 430.61 333.63 430.67 333.51 430.73 333.42 430.8 333.32 430.86 333.23 430.93 333.14 430.99 333.05 431.06 332.95 431.13 332.86 431.19 332.77 431.26 332.67 431.33 332.58 431.39 332.49 431.46 332.39 431.52 332.3 431.59 332.21 431.66 332.11 431.72 332.02 431.79 331.93 431.85 331.84 431.97 331.71 432.1 331.57 432.19 331.48 432.31 331.34 432.44 331.21 432.56 331.08 432.69 330.94 432.81 330.81 432.93 330.68 433.06 330.54 433.18 330.41 433.31 330.27 433.43 330.14 433.56 330.01 433.68 329.87 433.8 329.74 433.93 329.6 434.05 329.47 434.18 329.34 434.25 329.25 434.28 329.21 434.29 329.19 434.3 329.16 434.3 329.1 434.31 329 434.32 328.89 434.33 328.79 434.34 328.68 434.35 328.58 434.35 328.47 434.36 328.37 434.37 328.26 434.38 328.16 434.39 328.05 434.4 327.95 434.41 327.84 434.42 327.74 434.43 327.63 434.44 327.52 434.44 327.42 434.45 327.31 434.46 327.21 434.47 327.1 434.48 327 434.49 326.89 434.5 326.79 434.51 326.68 434.51 326.66 434.52 326.57 434.52 326.47 434.53 326.36 434.54 326.26 434.55 326.15 434.56 326.05 434.57 325.94 434.58 325.83 434.59 325.73 434.6 325.62 434.61 325.52 434.61 325.41 434.62 325.31 434.63 325.2 434.64 325.09 434.65 324.99 434.66 324.88 434.67 324.77 434.68 324.67 434.69 324.56 434.69 324.46 434.7 324.35 434.71 324.24 434.72 324.14 434.73 324.03 434.74 323.92 434.75 323.82 434.76 323.71 434.77 323.61 434.78 323.5 434.78 323.39 434.79 323.29 434.8 323.18 434.81 323.07 434.82 322.97 434.83 322.86 434.84 322.75 434.85 322.65 434.86 322.54 434.86 322.43 434.87 322.33 434.88 322.23 434.95 322.04 434.98 321.98 435.07 321.82 435.16 321.66 435.25 321.5 435.34 321.34 435.38 321.25 435.4 321.21 435.4 321.17 435.36 321.12 435.31 321.06 435.18 320.92 435.05 320.78 434.92 320.64 434.8 320.49 434.73 320.42 434.55 320.28 434.51 320.24 434.48 320.18 434.46 320.12 434.44 320.02 434.46 319.91 434.51 319.82 434.6 319.77 434.56 319.71 434.53 319.65 434.49 319.59 434.45 319.54 434.42 319.48 434.38 319.42 434.34 319.36 434.3 319.31 434.27 319.25 434.23 319.19 434.19 319.13 434.16 319.07 434.12 319.02 434.08 318.96 434.04 318.9 434.01 318.84 433.97 318.78 433.92 318.7 433.84 318.61 433.8 318.58 433.69 318.52 433.66 318.49 433.65 318.45 433.65 318.39 433.65 318.34 433.65 318.22 433.64 318.04 433.64 317.84 433.64 317.64 433.63 317.47 433.63 317.35 433.63 317.3 433.61 317.2 433.6 317.1 433.58 317 433.55 316.85 433.53 316.7 433.5 316.55 433.47 316.4 433.45 316.25 433.42 316.11 433.39 315.96 433.37 315.81 433.34 315.66 433.31 315.51 433.29 315.36 433.26 315.21 433.23 315.06 433.21 314.91 433.24 314.89 433.37 314.83 433.5 314.76 433.63 314.7 433.76 314.64 433.88 314.58 434.01 314.51 434.14 314.45 434.27 314.39 434.39 314.33 434.52 314.26 434.65 314.2 434.78 314.14 434.91 314.07 435.03 314.01 435.16 313.95 435.29 313.89 435.39 313.84 435.43 313.83 435.64 313.94 435.91 314.09 436.18 314.23 436.46 314.38 436.73 314.53 437 314.67 437.28 314.82 437.55 314.96 437.83 315.11 438.1 315.26 438.37 315.4 438.65 315.55 438.92 315.69 439.2 315.84 439.47 315.98 439.74 316.13 440.02 316.27 440.29 316.42 440.56 316.56 440.84 316.71 441.11 316.86 441.39 317 441.66 317.15 441.93 317.29 442.21 317.44 442.48 317.58 442.53 317.61 442.75 317.72 443.03 317.87 443.3 318.01 443.58 318.16 443.85 318.3 444.12 318.45 444.4 318.59 444.67 318.74 444.94 318.88 445.22 319.02 445.49 319.17 445.77 319.31 446.04 319.46 446.31 319.6 446.59 319.74 446.86 319.89 447.14 320.03 447.41 320.18 447.68 320.32 447.96 320.46 448.23 320.61 448.5 320.75 448.78 320.89 449.05 321.04 449.33 321.18 449.6 321.32 449.87 321.47 450.15 321.61 450.42 321.75 450.69 321.9 450.97 322.04 451.24 322.18 451.52 322.32 451.79 322.47 452.06 322.61 452.34 322.75 452.61 322.9 452.88 323.04 453.16 323.18 Z" id="Chad" transform="translate(-429.80999755859375,-313.8299865722656) "/></svg>