<svg xmlns="http://www.w3.org/2000/svg" viewBox="0 0 32.90998840332031 39.5"><path d="M 226.65 361.04 226.68 361.06 226.73 361.04 226.78 361.07 226.79 361.11 226.81 361.13 226.81 361.15 226.81 361.17 226.81 361.18 226.86 361.24 226.88 361.29 226.89 361.36 226.86 361.42 226.8 361.44 226.75 361.41 226.69 361.35 226.64 361.28 226.62 361.24 226.63 361.2 226.64 361.19 226.66 361.18 226.67 361.16 226.65 361.13 226.62 361.07 226.62 361.05 226.65 361.04 Z M 227.52 361.28 227.45 361.28 227.39 361.26 227.35 361.24 227.36 361.23 227.35 361.21 227.39 361.17 227.39 361.14 227.36 361.13 227.32 361.12 227.29 361.1 227.28 361.05 227.29 361.01 227.32 361.02 227.35 361.04 227.43 361.14 227.47 361.17 227.54 361.21 227.58 361.24 227.52 361.28 Z M 227.39 360.98 227.41 360.99 227.42 360.97 227.42 360.97 227.43 360.96 227.44 360.95 227.5 361.02 227.51 361.03 227.52 361.08 227.53 361.09 227.62 361.16 227.65 361.19 227.63 361.22 227.6 361.23 227.54 361.2 227.44 361.12 227.38 361.04 227.36 361.02 227.36 360.99 227.35 360.96 227.36 360.95 227.38 360.97 227.39 360.98 Z M 226.67 360.49 226.64 360.5 226.61 360.49 226.61 360.47 226.65 360.47 226.66 360.43 226.67 360.39 226.69 360.37 226.72 360.34 226.74 360.34 226.73 360.37 226.73 360.4 226.73 360.44 226.7 360.47 226.67 360.49 Z M 219.16 358.16 219.17 358.19 219.16 358.19 219.15 358.2 219.14 358.21 219.13 358.21 219.11 358.23 219.09 358.23 219.09 358.23 219.08 358.22 219.09 358.21 219.1 358.2 219.11 358.19 219.11 358.19 219.12 358.17 219.13 358.16 219.14 358.16 219.15 358.16 219.16 358.16 Z M 228.53 357.56 228.58 357.58 228.63 357.57 228.67 357.56 228.71 357.57 228.67 357.64 228.65 357.66 228.62 357.65 228.58 357.6 228.52 357.62 228.47 357.63 228.35 357.63 228.31 357.62 228.28 357.62 228.25 357.62 228.23 357.64 228.22 357.66 228.2 357.68 228.12 357.7 228.11 357.71 228.1 357.69 228.1 357.66 228.11 357.63 228.13 357.62 228.16 357.61 228.21 357.57 228.24 357.56 228.27 357.56 228.32 357.57 228.35 357.57 228.34 357.55 228.31 357.53 228.29 357.51 228.37 357.51 228.31 357.5 228.32 357.48 228.36 357.45 228.4 357.43 228.38 357.43 228.38 357.43 228.37 357.42 228.35 357.42 228.35 357.41 228.36 357.4 228.37 357.39 228.43 357.42 228.46 357.45 228.48 357.48 228.5 357.51 228.53 357.56 Z M 232.56 344.05 232.54 344.07 232.52 344.07 232.49 344.06 232.47 344.07 232.47 344.1 232.46 344.12 232.44 344.12 232.43 344.09 232.43 344.05 232.44 344.02 232.45 344.01 232.47 343.98 232.49 344 232.52 344.01 232.56 344.02 232.56 344.05 Z M 241.89 340.68 241.82 340.68 241.78 340.7 241.71 340.77 241.62 340.8 241.56 340.82 241.43 340.85 241.3 340.89 241.17 340.92 241.04 340.96 240.91 340.99 240.78 341.02 240.65 341.06 240.52 341.09 240.46 341.11 240.42 341.13 240.38 341.19 240.36 341.23 240.29 341.35 240.23 341.48 240.16 341.6 240.1 341.72 240.03 341.85 239.96 341.97 239.9 342.09 239.83 342.21 239.81 342.24 239.77 342.25 239.69 342.23 239.64 342.23 239.6 342.24 239.48 342.28 239.38 342.29 239.33 342.29 239.29 342.32 239.28 342.34 239.28 342.38 239.28 342.41 239.26 342.43 239.22 342.47 239.2 342.5 239.12 342.69 239.08 342.74 239.04 342.78 238.94 342.85 238.89 342.91 238.83 343.01 238.73 343.32 238.67 343.42 238.53 343.58 238.49 343.69 238.46 343.73 238.42 343.77 238.39 343.82 238.37 343.86 238.37 343.87 238.37 343.9 238.37 343.95 238.33 344.44 238.21 344.83 238.21 344.92 238.19 345.01 238.19 345.05 238.2 345.11 238.22 345.15 238.23 345.19 238.22 345.25 238.15 345.39 238.02 345.58 237.97 345.73 237.94 345.77 237.91 345.81 237.82 345.87 237.79 345.9 237.75 345.99 237.57 346.26 237.49 346.45 237.46 346.49 237.42 346.53 237.34 346.59 237.32 346.63 237.32 346.68 237.35 346.69 237.38 346.69 237.62 346.69 237.71 346.68 237.79 346.64 237.87 346.56 237.91 346.54 237.96 346.52 238.01 346.5 238.11 346.41 238.16 346.4 238.18 346.42 238.2 346.5 238.2 346.51 238.19 346.53 238.19 346.54 238.2 346.55 238.22 346.57 238.23 346.58 238.24 346.63 238.23 346.73 238.24 346.78 238.28 346.83 238.32 346.84 238.37 346.82 238.44 346.77 238.46 346.76 238.49 346.76 238.52 346.76 238.53 346.76 238.55 346.76 238.57 346.75 238.61 346.79 238.65 346.81 238.66 346.83 238.63 346.88 238.66 346.93 238.68 346.97 238.7 347.07 238.73 347.17 238.75 347.26 238.78 347.36 238.8 347.46 238.83 347.55 238.85 347.65 238.88 347.75 238.9 347.84 238.95 347.91 238.99 347.96 239.03 348 239.08 348.05 239.12 348.1 239.16 348.14 239.21 348.19 239.25 348.24 239.29 348.29 239.34 348.33 239.39 348.39 239.41 348.41 239.44 348.42 239.46 348.43 239.48 348.44 239.48 348.44 239.51 348.46 239.53 348.5 239.54 348.53 239.55 348.57 239.54 348.61 239.52 348.68 239.52 348.72 239.53 348.77 239.61 348.9 239.66 349.06 239.66 349.14 239.62 349.19 239.59 349.19 239.54 349.18 239.5 349.19 239.48 349.23 239.46 349.27 239.45 349.31 239.42 349.34 239.39 349.37 239.36 349.38 239.34 349.39 239.32 349.4 239.31 349.43 239.32 349.45 239.37 349.5 239.38 349.52 239.39 349.56 239.4 349.66 239.39 349.7 239.35 349.83 239.33 350.07 239.34 350.11 239.37 350.2 239.37 350.24 239.36 350.29 239.35 350.33 239.33 350.38 239.34 350.43 239.4 350.53 239.48 350.59 239.52 350.6 239.58 350.62 239.69 350.64 239.87 350.64 239.94 350.66 240.02 350.76 240.03 350.77 240.04 350.78 240.02 350.87 240.01 350.89 240.02 350.95 240.04 351.02 240.06 351.08 240.18 351.32 240.22 351.36 240.25 351.38 240.31 351.4 240.34 351.42 240.39 351.47 240.41 351.48 240.41 351.48 240.48 351.49 240.66 351.54 240.74 351.54 240.77 351.54 240.79 351.52 240.82 351.51 240.84 351.49 240.87 351.49 240.89 351.49 240.91 351.48 240.9 351.44 240.96 351.44 241.02 351.43 241.07 351.43 241.13 351.45 241.12 351.41 241.14 351.39 241.17 351.39 241.24 351.39 241.26 351.4 241.27 351.42 241.3 351.44 241.31 351.44 241.33 351.44 241.36 351.42 241.38 351.42 241.39 351.42 241.4 351.44 241.4 351.44 241.4 351.44 241.44 351.45 241.44 351.44 241.45 351.44 241.49 351.43 241.54 351.44 241.58 351.48 241.61 351.47 241.66 351.45 241.7 351.44 241.73 351.44 241.81 351.46 241.84 351.46 241.93 351.45 241.97 351.45 241.99 351.47 241.99 351.49 241.99 351.52 242.01 351.54 242.04 351.55 242.14 351.56 242.17 351.57 242.19 351.58 242.21 351.59 242.25 351.58 242.28 351.56 242.29 351.54 242.32 351.53 242.47 351.54 242.59 351.53 242.7 351.49 242.8 351.42 242.82 351.39 242.83 351.37 242.85 351.36 242.89 351.35 242.98 351.33 243.08 351.32 243.21 351.29 243.27 351.29 243.29 351.29 243.32 351.32 243.34 351.33 243.42 351.34 243.45 351.34 243.52 351.32 243.55 351.32 243.57 351.33 243.68 351.47 243.7 351.49 243.74 351.5 243.76 351.5 243.81 351.49 243.83 351.49 243.84 351.5 243.86 351.52 243.86 351.52 243.9 351.53 244.13 351.64 244.2 351.65 244.32 351.58 244.4 351.56 244.48 351.55 244.55 351.57 244.62 351.63 244.66 351.68 244.83 351.89 244.99 352.1 245.16 352.31 245.33 352.53 245.5 352.74 245.67 352.95 245.83 353.16 246 353.37 246.07 353.45 246.09 353.45 246.09 353.45 246.15 353.44 246.26 353.39 246.32 353.38 246.36 353.4 246.45 353.51 246.5 353.54 246.63 353.47 246.76 353.35 246.81 353.32 246.87 353.26 246.91 353.24 246.97 353.24 247.01 353.25 247.1 353.29 247.14 353.27 247.19 353.29 247.24 353.31 247.29 353.31 247.43 353.31 247.48 353.31 247.62 353.36 247.67 353.36 247.71 353.37 247.81 353.42 247.86 353.42 247.89 353.41 247.95 353.36 247.97 353.35 248.11 353.34 248.27 353.29 248.32 353.29 248.37 353.29 248.51 353.33 248.59 353.33 248.84 353.24 248.94 353.23 249.22 353.25 249.32 353.24 249.39 353.21 249.41 353.21 249.43 353.2 249.45 353.19 249.46 353.16 249.47 353.14 249.48 353.11 249.5 353.11 249.53 353.11 249.56 353.1 249.58 353.08 249.62 353.04 249.65 353.03 249.67 353.03 249.71 353.04 249.86 353.05 250.21 353.13 250.28 353.17 250.33 353.23 250.4 353.28 250.48 353.28 250.49 353.28 250.47 353.3 250.43 353.33 250.4 353.35 250.39 353.38 250.39 353.47 250.48 353.6 250.53 353.64 250.55 353.68 250.56 353.73 250.55 353.77 250.52 353.79 250.44 353.83 250.41 353.85 250.3 353.96 250.28 354 250.15 354.12 250.1 354.2 250.06 354.29 250.04 354.38 250.04 354.48 250.07 354.61 250.07 354.66 250.08 354.67 250.11 354.7 250.12 354.71 250.12 354.74 250.1 354.76 250.09 354.77 250.07 354.79 250.05 354.87 250.04 354.88 250.01 354.88 249.99 354.9 249.95 354.95 249.93 354.96 249.86 354.98 249.85 354.99 249.83 355.02 249.82 355.03 249.81 355.03 249.78 355.03 249.77 355.03 249.69 355.1 249.63 355.18 249.61 355.28 249.63 355.36 249.65 355.4 249.67 355.43 249.68 355.47 249.68 355.52 249.68 355.54 249.66 355.59 249.65 355.62 249.65 355.65 249.65 355.67 249.66 355.69 249.66 355.71 249.68 355.73 249.72 355.78 249.73 355.79 249.72 355.82 249.71 355.83 249.7 355.84 249.7 355.86 249.7 355.95 249.7 356 249.67 356.08 249.65 356.17 249.65 356.22 249.65 356.23 249.67 356.27 249.68 356.29 249.68 356.31 249.67 356.33 249.67 356.34 249.68 356.36 249.66 356.4 249.66 356.5 249.64 356.54 249.62 356.57 249.61 356.62 249.6 356.74 249.59 356.8 249.59 356.87 249.59 356.89 249.58 356.91 249.56 356.92 249.55 356.94 249.54 356.97 249.55 356.99 249.57 357.01 249.58 357.03 249.6 357.04 249.6 357.03 249.65 357.06 249.66 357.09 249.68 357.16 249.69 357.17 249.72 357.18 249.73 357.2 249.73 357.21 249.71 357.24 249.71 357.26 249.72 357.29 249.75 357.34 249.76 357.37 249.75 357.39 249.71 357.47 249.7 357.55 249.71 357.62 249.73 357.69 249.74 357.76 249.76 357.8 249.8 357.84 249.84 357.88 249.86 357.95 249.89 357.98 249.9 358.02 249.89 358.05 249.89 358.06 249.91 358.06 249.93 358.12 249.93 358.25 249.95 358.3 250.03 358.45 250.05 358.51 250.07 358.62 250.08 358.67 250.12 358.71 250.16 358.74 250.21 358.74 250.25 358.73 250.29 358.73 250.38 358.76 250.44 358.85 250.59 359.23 250.62 359.28 250.65 359.3 250.73 359.33 250.81 359.41 250.8 359.5 250.74 359.59 250.61 359.76 250.58 359.78 250.56 359.79 250.51 359.8 250.48 359.81 250.44 359.85 250.34 359.94 250.25 360.02 250.15 360.11 250.06 360.2 249.96 360.28 249.87 360.37 249.77 360.46 249.68 360.55 249.62 360.6 249.59 360.66 249.59 360.81 249.62 360.78 249.64 360.75 249.66 360.73 249.7 360.72 249.75 360.72 249.78 360.72 249.82 360.69 249.84 360.7 249.86 360.73 249.95 360.77 250.01 360.78 250.05 360.77 250.09 360.76 250.13 360.79 250.17 360.84 250.18 360.88 250.19 360.98 250.21 361.03 250.23 361.05 250.33 361.05 250.37 361.06 250.41 361.09 250.42 361.11 250.43 361.15 250.44 361.17 250.46 361.18 250.51 361.21 250.52 361.22 250.52 361.24 250.56 361.28 250.57 361.29 250.6 361.3 250.61 361.32 250.62 361.34 250.64 361.37 250.66 361.38 250.71 361.41 250.73 361.43 250.74 361.45 250.75 361.48 250.76 361.5 250.78 361.52 250.81 361.52 250.83 361.54 250.87 361.58 250.89 361.59 250.97 361.62 251.05 361.66 251.06 361.68 251.07 361.7 251.07 361.74 251.08 361.76 251.1 361.81 251.07 361.85 251.03 361.89 251 361.92 251 361.96 251.04 362.05 251.05 362.12 251.09 362.21 251.11 362.24 251.14 362.26 251.18 362.27 251.22 362.29 251.23 362.32 251.24 362.44 251.23 362.48 251.22 362.5 251.18 362.54 251.19 362.57 251.21 362.59 251.22 362.61 251.24 362.64 251.28 362.67 251.29 362.68 251.3 362.71 251.34 362.78 251.53 363.29 251.53 363.33 251.53 363.43 251.54 363.47 251.56 363.52 251.61 363.6 251.63 363.65 251.64 363.7 251.62 363.79 251.63 363.82 251.65 363.84 251.68 363.86 251.7 363.88 251.72 363.93 251.74 363.98 251.74 364.03 251.7 364.12 251.71 364.17 251.76 364.26 251.68 364.28 251.53 364.32 251.34 364.37 251.29 364.36 251.27 364.31 251.27 364.19 251.32 363.56 251.3 363.42 251.22 363.19 251.14 363.02 250.9 362.7 250.84 362.61 250.77 362.43 250.73 362.35 250.67 362.3 250.64 362.28 250.54 362.25 250.51 362.24 250.49 362.25 250.45 362.29 250.43 362.3 250.35 362.31 250.31 362.34 250.25 362.39 250.17 362.43 250 362.61 249.73 362.96 249.66 363.03 249.58 363.07 249.5 363.1 249.42 363.12 249.34 363.12 249.27 363.1 249.2 363.04 249.14 362.95 249.09 362.86 249.04 362.72 249.02 362.68 248.99 362.65 248.94 362.63 248.89 362.62 248.87 362.61 248.86 362.59 248.85 362.58 248.85 362.53 248.84 362.52 248.82 362.53 248.69 362.86 248.65 362.93 248.66 362.93 248.72 362.94 248.74 362.97 248.73 363.02 248.74 363.06 248.82 363.06 248.84 363.07 248.84 363.09 248.84 363.12 248.85 363.13 248.87 363.14 248.9 363.16 248.74 363.16 248.63 363.16 248.35 363.16 247.96 363.16 247.5 363.16 247.05 363.17 246.65 363.17 246.38 363.17 246.27 363.17 246.18 363.15 246.01 363.08 245.85 363.05 245.76 363.06 245.61 363.12 245.52 363.13 245.47 363.13 245.43 363.12 245.4 363.13 245.3 363.18 245.26 363.19 245.19 363.19 245.15 363.19 245.17 363.28 245.17 363.43 245.17 363.58 245.17 363.73 245.17 363.88 245.16 364.04 245.16 364.19 245.16 364.34 245.16 364.49 245.16 364.62 245.21 364.63 245.3 364.57 245.36 364.55 245.39 364.55 245.42 364.56 245.44 364.57 245.44 364.62 245.46 364.62 245.68 364.59 245.73 364.59 245.82 364.63 245.85 364.63 245.92 364.63 245.99 364.62 246.01 364.62 246.03 364.63 246.04 364.64 246.05 364.65 246.06 364.66 246.1 364.68 246.12 364.69 246.23 364.61 246.26 364.6 246.3 364.61 246.41 364.67 246.44 364.69 246.48 364.74 246.52 364.76 246.53 364.78 246.54 364.8 246.54 364.82 246.55 364.85 246.6 364.88 246.58 364.95 246.62 364.99 246.67 365.01 246.7 365.02 246.71 365.04 246.71 365.07 246.7 365.08 246.67 365.09 246.66 365.09 246.66 365.14 246.68 365.24 246.68 365.29 246.66 365.31 246.64 365.33 246.62 365.35 246.63 365.38 246.65 365.4 246.7 365.42 246.71 365.43 246.74 365.48 246.75 365.52 246.73 365.55 246.69 365.56 246.67 365.56 246.63 365.54 246.61 365.54 246.59 365.56 246.56 365.59 246.55 365.6 246.51 365.6 246.43 365.59 246.39 365.59 246.4 365.53 246.38 365.51 246.34 365.51 246.29 365.52 246.25 365.54 246.23 365.53 246.08 365.38 246.04 365.35 245.99 365.34 245.93 365.35 245.89 365.37 245.82 365.41 245.78 365.42 245.73 365.44 245.71 365.48 245.68 365.52 245.61 365.51 245.54 365.48 245.51 365.48 245.43 365.55 245.35 365.59 245.26 365.62 245.17 365.63 245.02 365.64 244.98 365.66 244.94 365.66 244.89 365.65 244.84 365.65 244.79 365.68 244.75 365.69 244.71 365.66 244.71 365.81 244.71 365.87 244.7 366.02 244.7 366.22 244.69 366.46 244.68 366.7 244.68 366.91 244.67 367.06 244.67 367.12 244.67 367.23 244.68 367.3 244.71 367.35 244.79 367.45 244.91 367.55 244.96 367.62 244.98 367.64 245.02 367.66 245.11 367.68 245.15 367.7 245.16 367.72 245.18 367.77 245.2 367.8 245.22 367.81 245.27 367.83 245.3 367.85 245.36 367.92 245.4 367.95 245.57 368.02 245.61 368.04 245.65 368.07 245.68 368.11 245.69 368.15 245.7 368.2 245.71 368.27 245.71 368.29 245.72 368.31 245.74 368.33 245.75 368.34 245.76 368.37 245.74 368.42 245.67 368.53 245.66 368.57 245.68 368.62 245.76 368.71 245.78 368.74 245.77 368.8 245.78 368.82 245.8 368.85 245.81 368.87 245.83 368.87 245.85 368.89 245.86 368.91 245.86 368.94 245.86 368.96 245.85 368.98 245.87 369.01 245.89 369.02 245.94 369.04 245.96 369.06 246.01 369.13 246.02 369.14 246.04 369.14 246.05 369.15 246.06 369.16 246.07 369.17 246.06 369.18 246.08 369.26 246.07 369.28 246.06 369.33 246.06 369.36 246.14 369.49 246.16 369.56 246.12 369.68 246.12 369.68 246.12 369.78 246.09 369.98 246.09 370.08 246.05 370.23 246.05 370.28 246.02 370.39 245.99 370.52 245.93 370.88 245.86 371.23 245.8 371.59 245.73 371.94 245.67 372.3 245.6 372.65 245.54 373.01 245.47 373.36 245.41 373.72 245.34 374.07 245.28 374.43 245.21 374.78 245.15 375.14 245.08 375.5 245.02 375.85 244.95 376.21 244.95 376.21 244.95 376.22 244.94 376.22 244.94 376.23 244.94 376.23 244.94 376.24 244.93 376.24 244.93 376.25 244.93 376.25 244.93 376.26 244.92 376.26 244.92 376.27 244.92 376.27 244.92 376.27 244.91 376.28 244.91 376.28 244.85 376.16 244.81 376.11 244.77 376.05 244.7 376 244.47 375.89 244.42 375.83 244.39 375.75 244.38 375.67 244.35 375.6 244.3 375.52 244.23 375.45 244.14 375.39 244.06 375.36 244 375.36 243.95 375.39 243.86 375.47 243.8 375.5 243.75 375.49 243.63 375.47 243.6 375.45 243.3 375.29 243.21 375.28 243.28 375.17 243.45 374.9 243.63 374.63 243.8 374.36 243.98 374.09 244.15 373.82 244.32 373.55 244.5 373.28 244.67 373.01 244.72 372.93 244.72 372.93 244.71 372.92 244.68 372.9 244.67 372.88 244.65 372.85 244.62 372.75 244.6 372.73 244.55 372.76 244.54 372.78 244.53 372.81 244.52 372.82 244.5 372.83 244.48 372.82 244.48 372.8 244.48 372.78 244.47 372.75 244.43 372.72 244.39 372.73 244.35 372.75 244.31 372.73 244.29 372.69 244.25 372.6 244.23 372.56 244.18 372.53 244.13 372.55 244.09 372.58 244.04 372.59 244.03 372.58 244.01 372.57 244 372.55 244 372.53 244.01 372.52 244.05 372.5 244.06 372.5 244.07 372.45 244.04 372.43 243.99 372.42 243.95 372.42 243.92 372.43 243.87 372.45 243.85 372.45 243.82 372.44 243.81 372.42 243.8 372.4 243.79 372.37 243.76 372.35 243.72 372.33 243.68 372.32 243.64 372.31 243.61 372.3 243.58 372.27 243.55 372.25 243.51 372.27 243.51 372.29 243.51 372.32 243.51 372.34 243.49 372.35 243.4 372.35 243.38 372.34 243.38 372.31 243.38 372.28 243.38 372.26 243.36 372.23 243.29 372.17 243.28 372.17 243.28 372.11 243.28 372.09 243.27 372.08 243.21 372.07 243.17 372.06 243.09 372.03 243.01 371.98 242.9 371.86 242.83 371.82 242.78 371.84 242.73 371.83 242.63 371.79 242.57 371.79 242.55 371.82 242.55 371.87 242.57 371.93 242.55 371.94 242.52 371.94 242.5 371.93 242.44 371.9 242.41 371.9 242.35 371.91 242.3 371.93 242.26 372.04 242.19 372.07 242.15 372.1 242.13 372.11 242.11 372.1 242.08 372.08 242.06 372.07 242.02 372.09 241.98 372.11 241.93 372.12 241.92 372.09 241.76 372.17 241.68 372.18 241.66 372.14 241.67 372.12 241.7 372.09 241.7 372.07 241.7 372.05 241.64 371.99 241.6 371.92 241.58 371.91 241.55 371.94 241.53 372.02 241.51 372.05 241.48 372.03 241.46 372 241.46 371.91 241.45 371.86 241.42 371.85 241.3 371.82 241.25 371.8 241.21 371.76 241.16 371.74 241.11 371.73 241.04 371.77 241 371.77 240.98 371.74 240.98 371.66 240.96 371.65 240.91 371.67 240.79 371.75 240.76 371.75 240.75 371.77 240.67 371.9 240.57 371.98 240.55 371.99 240.54 372.04 240.51 372.07 240.47 372.08 240.34 372.06 240.26 372.06 240.2 372.08 240.14 372.14 240.04 372.25 240.01 372.26 239.87 372.23 239.84 372.23 239.79 372.24 239.78 372.25 239.78 372.29 239.77 372.31 239.75 372.31 239.7 372.32 239.61 372.34 239.56 372.35 239.52 372.34 239.48 372.32 239.45 372.29 239.44 372.26 239.42 372.25 239.19 372.21 239.15 372.2 239.05 372.12 239.01 372.1 238.97 372.09 238.94 372.13 238.89 372.25 238.86 372.27 238.82 372.28 238.81 372.28 238.8 372.22 238.79 372.2 238.78 372.18 238.77 372.16 238.75 372.18 238.73 372.19 238.72 372.21 238.71 372.24 238.65 372.2 238.62 372.19 238.56 372.21 238.5 372.24 238.47 372.26 238.44 372.27 238.35 372.29 238.33 372.29 238.31 372.28 238.29 372.24 238.25 372.14 238.22 372.11 238.21 372.1 238.06 372.02 238.05 372.04 238.03 372.09 238 372.11 237.98 372.07 237.96 372.05 237.87 372.02 237.83 372 237.83 371.98 237.81 371.92 237.81 371.91 237.78 371.88 237.77 371.87 237.77 371.86 237.74 371.83 237.74 371.8 237.74 371.78 237.75 371.77 237.77 371.74 237.85 371.67 237.87 371.62 237.94 371.52 237.91 371.49 237.89 371.44 237.88 371.39 237.86 371.35 237.82 371.29 237.81 371.27 237.8 371.23 237.8 371.2 237.83 371.14 237.83 371.12 237.82 371.09 237.77 371.03 237.75 371 237.77 370.91 237.76 370.89 237.74 370.88 237.72 370.87 237.7 370.85 237.64 370.79 237.61 370.79 237.6 370.85 237.59 370.85 237.52 370.83 237.48 370.84 237.45 370.87 237.43 370.9 237.41 370.89 237.35 370.85 237.33 370.83 237.3 370.82 237.27 370.83 237.24 370.82 237.22 370.83 237.21 370.82 237.2 370.82 237.2 370.79 237.19 370.78 237.05 370.69 237.01 370.64 237.01 370.55 237.04 370.48 237.06 370.45 237.11 370.41 237.11 370.37 237.09 370.28 237.09 370.25 237.09 370.23 237.08 370.21 237.06 370.18 237.02 370.15 236.99 370.11 236.91 370.07 236.89 370.04 236.92 370 236.94 369.97 236.9 369.96 236.89 369.94 236.88 369.92 236.87 369.91 236.87 369.86 236.87 369.84 236.86 369.83 236.85 369.83 236.82 369.83 236.81 369.83 236.81 369.82 236.81 369.79 236.79 369.76 236.78 369.73 236.77 369.71 236.72 369.7 236.68 369.67 236.65 369.66 236.6 369.65 236.56 369.63 236.53 369.6 236.51 369.56 236.48 369.57 236.44 369.62 236.4 369.65 236.38 369.64 236.34 369.64 236.28 369.62 236.25 369.6 236.23 369.57 236.19 369.51 236.16 369.42 236.14 369.4 236.11 369.39 236.04 369.41 236.01 369.39 236.01 369.37 236.03 369.33 236.02 369.31 236 369.3 235.99 369.3 235.99 369.32 235.98 369.33 235.95 369.34 235.94 369.35 235.93 369.35 235.9 369.34 235.88 369.33 235.87 369.31 235.82 369.16 235.8 369.13 235.76 369.2 235.7 369.2 235.57 369.15 235.43 369.12 235.38 369.09 235.33 369.03 235.29 368.93 235.27 368.9 235.22 368.86 235.2 368.84 235.22 368.82 235.25 368.81 235.28 368.82 235.31 368.82 235.33 368.79 235.31 368.77 235.29 368.74 235.28 368.72 235.3 368.68 235.28 368.67 235.24 368.67 235.22 368.67 235.2 368.66 235.13 368.57 235.11 368.54 235.11 368.5 235.12 368.48 235.15 368.46 235.16 368.44 235.05 368.21 235.05 368.19 235.05 368.19 235.04 368.17 235.04 368.15 235.03 368.14 235 368.14 234.99 368.13 234.97 368.1 234.94 368.07 234.91 368.04 234.78 367.96 234.72 367.92 234.63 367.82 234.56 367.72 234.54 367.7 234.52 367.7 234.5 367.72 234.49 367.73 234.48 367.73 234.44 367.73 234.43 367.72 234.42 367.71 234.41 367.7 234.4 367.69 234.39 367.68 234.37 367.67 234.32 367.67 234.28 367.66 234.25 367.65 234.21 367.64 234.23 367.61 234.29 367.56 234.22 367.41 234.19 367.37 234.14 367.33 234.11 367.33 234.06 367.42 234.03 367.44 234.01 367.44 233.97 367.43 233.9 367.41 233.85 367.39 233.82 367.37 233.73 367.27 233.72 367.26 233.7 367.26 233.66 367.25 233.64 367.25 233.61 367.22 233.52 367.1 233.48 367.07 233.44 367.05 233.34 367.02 233.29 367.02 233.26 367.02 233.24 367.05 233.23 367.09 233.22 367.12 233.19 367.15 233.16 367.18 233.12 367.19 233.08 367.16 232.94 367.11 232.82 367.09 232.77 367.06 232.72 367.04 232.59 366.96 232.49 366.87 232.45 366.86 232.42 366.84 232.4 366.81 232.36 366.78 232.32 366.76 232.27 366.77 232.18 366.79 232.13 366.8 232.08 366.79 232.04 366.78 232 366.77 231.94 366.73 231.85 366.67 231.83 366.64 231.69 366.55 231.64 366.5 231.62 366.47 231.61 366.43 231.59 366.4 231.45 366.21 231.44 366.19 231.41 366.15 231.36 366.16 231.31 366.18 231.27 366.18 231.26 366.16 231.24 366.1 231.23 366.08 231.21 366.07 231.19 366.07 231.14 366.07 231.09 366.07 231.04 366.06 230.99 366.04 230.95 366.01 230.89 365.95 230.87 365.94 230.84 365.94 230.8 365.97 230.79 365.98 230.78 365.99 230.72 366.06 230.7 366.06 230.68 366.07 230.63 366.07 230.61 366.07 230.61 366.08 230.61 366.25 230.63 366.39 230.59 366.42 230.37 366.44 230.31 366.47 230.28 366.48 230.24 366.46 230.18 366.41 230.14 366.38 230.11 366.37 230 366.36 229.93 366.34 229.9 366.35 229.91 366.44 229.87 366.44 229.79 366.4 229.76 366.4 229.61 366.43 229.58 366.42 229.55 366.41 229.51 366.38 229.46 366.34 229.44 366.32 229.4 366.31 229.37 366.3 229.28 366.3 229.22 366.28 229.13 366.18 229.09 366.17 229.06 366.17 229.02 366.17 228.91 366.21 228.86 366.22 228.82 366.21 228.79 366.19 228.75 366.17 228.51 366.13 228.44 366.1 228.38 366.05 228.35 366 228.34 365.93 228.32 365.86 228.31 365.63 228.28 365.52 228.19 365.5 228.18 365.5 228.11 365.51 228.03 365.48 227.89 365.38 227.84 365.31 227.82 365.15 227.76 365.1 227.7 365.1 227.53 365.16 227.48 365.17 227.44 365.17 227.39 365.16 227.34 365.14 227.31 365.12 227.31 365.1 227.31 365.07 227.3 365.05 227.28 365.03 227.27 365.03 227.26 365.03 227.24 365.03 227.08 364.98 226.93 364.97 226.83 364.92 226.55 364.71 226.5 364.68 226.37 364.65 226.33 364.63 226.27 364.59 226.07 364.36 226.04 364.34 226.02 364.33 225.9 364.3 225.87 364.3 225.84 364.32 225.82 364.28 225.78 364.24 225.77 364.21 225.77 364.17 225.74 364.16 225.71 364.17 225.68 364.18 225.63 364.16 225.58 364.13 225.55 364.09 225.53 364.04 225.51 364 225.44 363.95 225.39 363.88 225.26 363.8 225.3 363.78 225.28 363.74 225.26 363.72 225.23 363.7 225.21 363.67 225.2 363.64 225.21 363.6 225.21 363.56 225.19 363.52 225.18 363.52 225.15 363.53 225.11 363.55 225.09 363.53 225.06 363.51 225.04 363.51 225.01 363.49 224.97 363.46 224.95 363.45 224.89 363.41 224.86 363.38 224.84 363.35 224.85 363.31 224.86 363.29 224.9 363.28 224.94 363.26 224.98 363.23 225.02 363.16 225.05 363.12 225.1 363.06 225.15 363.01 225.18 362.98 225.22 362.94 225.33 362.92 225.38 362.93 225.42 362.92 225.47 362.93 225.51 362.95 225.55 362.96 225.63 362.97 225.68 362.98 225.74 362.99 225.75 362.99 225.77 363.01 225.79 363.03 225.81 363.03 225.83 363.03 225.83 363 225.84 362.98 225.84 362.95 225.87 362.91 225.89 362.86 225.87 362.82 225.87 362.79 225.88 362.78 225.89 362.77 225.89 362.76 225.89 362.74 225.88 362.72 225.88 362.73 225.86 362.76 225.83 362.78 225.79 362.78 225.78 362.75 225.77 362.71 225.78 362.66 225.79 362.63 225.8 362.58 225.8 362.55 225.79 362.53 225.78 362.51 225.75 362.49 225.73 362.48 225.71 362.49 225.69 362.52 225.66 362.59 225.64 362.6 225.62 362.59 225.62 362.54 225.61 362.48 225.59 362.41 225.57 362.3 225.55 362.23 225.54 362.13 225.57 362.08 225.59 362.02 225.61 361.96 225.67 361.94 225.69 361.87 225.75 361.76 225.8 361.66 225.83 361.6 225.86 361.56 225.85 361.6 225.84 361.63 225.85 361.67 225.86 361.71 225.89 361.61 225.91 361.5 225.94 361.46 225.98 361.47 226.03 361.4 226.09 361.33 226.14 361.26 226.19 361.24 226.23 361.2 226.28 361.16 226.33 361.12 226.36 361.12 226.38 361.18 226.4 361.23 226.44 361.29 226.48 361.35 226.54 361.36 226.51 361.28 226.5 361.22 226.5 361.15 226.52 361.12 226.55 361.09 226.58 361.13 226.59 361.19 226.58 361.24 226.6 361.28 226.62 361.33 226.64 361.37 226.67 361.4 226.69 361.42 226.77 361.45 226.81 361.46 226.83 361.46 226.86 361.44 226.91 361.43 226.91 361.41 226.91 361.4 226.91 361.38 226.91 361.38 226.92 361.37 226.92 361.36 226.92 361.28 226.91 361.25 226.9 361.21 226.88 361.17 226.87 361.14 226.89 361.11 226.94 361.13 226.96 361.11 227.01 361.11 227.05 361.11 227.09 361.11 227.12 361.09 227.17 361.06 227.21 361.06 227.24 361.09 227.27 361.13 227.28 361.16 227.31 361.16 227.35 361.15 227.33 361.19 227.31 361.23 227.31 361.27 227.36 361.29 227.38 361.29 227.43 361.3 227.46 361.3 227.51 361.29 227.54 361.29 227.59 361.28 227.63 361.25 227.65 361.21 227.65 361.17 227.64 361.14 227.61 361.1 227.58 361.07 227.55 361.06 227.55 361.05 227.59 361.05 227.59 361.03 227.56 361.03 227.55 361.01 227.55 360.99 227.56 360.97 227.54 360.97 227.53 360.95 227.53 360.93 227.55 360.91 227.53 360.91 227.52 360.9 227.51 360.89 227.52 360.87 227.55 360.88 227.59 360.87 227.61 360.85 227.64 360.83 227.66 360.83 227.68 360.83 227.69 360.82 227.68 360.81 227.66 360.8 227.63 360.82 227.61 360.82 227.57 360.8 227.58 360.78 227.61 360.77 227.62 360.75 227.64 360.76 227.67 360.77 227.71 360.77 227.74 360.76 227.75 360.78 227.77 360.79 227.77 360.81 227.79 360.81 227.77 360.76 227.69 360.74 227.71 360.7 227.75 360.68 227.78 360.68 227.81 360.67 227.84 360.64 227.86 360.65 227.87 360.66 227.89 360.67 227.89 360.69 227.91 360.63 227.86 360.62 227.79 360.63 227.74 360.65 227.73 360.62 227.73 360.57 227.74 360.53 227.77 360.5 227.8 360.51 227.82 360.52 227.84 360.55 227.87 360.56 227.89 360.57 227.9 360.57 227.9 360.55 227.91 360.53 227.93 360.51 227.94 360.51 227.94 360.5 227.94 360.47 227.93 360.46 227.9 360.45 227.89 360.44 227.89 360.43 227.91 360.42 227.92 360.4 227.93 360.39 227.94 360.39 227.93 360.37 227.91 360.36 227.89 360.36 227.88 360.36 227.87 360.34 227.86 360.35 227.86 360.36 227.86 360.36 227.87 360.37 227.84 360.38 227.82 360.39 227.8 360.38 227.79 360.35 227.73 360.4 227.71 360.41 227.72 360.39 227.8 360.29 227.85 360.22 227.88 360.18 228.05 360.04 228.09 359.96 228.12 359.91 228.15 359.9 228.19 359.92 228.2 359.9 228.2 359.88 228.2 359.85 228.22 359.85 228.24 359.86 228.25 359.85 228.24 359.82 228.21 359.81 228.17 359.82 228.12 359.82 228.12 359.8 228.14 359.77 228.2 359.72 228.23 359.7 228.29 359.68 228.26 359.66 228.26 359.61 228.28 359.59 228.3 359.56 228.33 359.55 228.35 359.55 228.39 359.54 228.42 359.54 228.43 359.53 228.47 359.49 228.52 359.58 228.55 359.62 228.61 359.64 228.6 359.62 228.53 359.53 228.51 359.5 228.5 359.46 228.51 359.43 228.53 359.4 228.54 359.42 228.56 359.44 228.57 359.45 228.58 359.44 228.57 359.42 228.55 359.39 228.55 359.39 228.56 359.34 228.58 359.3 228.59 359.27 228.58 359.22 228.6 359.22 228.62 359.22 228.62 359.23 228.61 359.24 228.61 359.25 228.61 359.27 228.62 359.29 228.63 359.29 228.65 359.27 228.69 359.28 228.7 359.28 228.72 359.3 228.73 359.31 228.73 359.29 228.72 359.27 228.71 359.26 228.69 359.25 228.69 359.25 228.71 359.24 228.71 359.23 228.67 359.22 228.65 359.22 228.66 359.2 228.67 359.19 228.68 359.2 228.7 359.2 228.71 359.17 228.68 359.16 228.63 359.16 228.59 359.17 228.6 359.14 228.63 359.13 228.66 359.14 228.7 359.14 228.69 359.14 228.67 359.12 228.65 359.11 228.67 359.11 228.67 359.1 228.68 359.1 228.7 359.1 228.69 359.09 228.69 359.07 228.73 359.06 228.78 359.05 228.78 359.07 228.77 359.09 228.79 359.09 228.85 359.07 228.82 359.06 228.81 359.04 228.82 359.02 228.86 358.98 228.88 358.95 228.9 358.89 228.92 358.9 228.94 358.91 228.96 358.9 228.98 358.88 229.01 358.87 229.04 358.86 229.05 358.85 229.02 358.84 228.99 358.85 228.96 358.86 228.94 358.85 228.93 358.82 228.94 358.81 228.98 358.81 229.02 358.79 229.04 358.77 229 358.77 228.91 358.8 228.88 358.78 228.87 358.75 228.87 358.71 228.88 358.68 228.95 358.72 228.98 358.73 229.03 358.73 229.04 358.73 229.03 358.72 229.02 358.71 229 358.71 228.97 358.71 228.95 358.7 228.94 358.69 228.93 358.68 228.97 358.68 229 358.67 229.02 358.66 229.04 358.63 229 358.61 228.98 358.58 228.98 358.55 229.02 358.52 229.04 358.54 229.05 358.55 229.05 358.56 229.05 358.58 229.08 358.55 229.07 358.51 229.06 358.47 229.16 358.43 229.19 358.4 229.21 358.36 229.25 358.33 229.25 358.31 229.11 358.34 229.11 358.33 229.13 358.32 229.14 358.31 229.08 358.31 229.06 358.31 229.04 358.3 229.04 358.39 228.92 358.47 228.76 358.49 228.67 358.45 228.67 358.43 228.71 358.41 228.71 358.39 228.71 358.39 228.67 358.37 228.64 358.35 228.63 358.35 228.63 358.34 228.62 358.32 228.63 358.3 228.63 358.29 228.64 358.27 228.65 358.21 228.66 358.19 228.69 358.18 228.72 358.17 228.74 358.18 228.74 358.2 228.71 358.22 228.82 358.2 228.85 358.19 228.85 358.18 228.78 358.19 228.79 358.16 228.8 358.14 228.86 358.07 228.9 357.99 228.87 357.99 228.86 357.99 228.86 357.98 228.85 357.96 228.82 357.97 228.79 357.95 228.77 357.93 228.73 357.9 228.74 357.92 228.74 357.95 228.74 357.97 228.73 357.99 228.71 357.98 228.69 357.98 228.67 357.98 228.65 357.99 228.65 358.01 228.66 358.02 228.67 358.02 228.66 358.02 228.65 358.04 228.64 358.03 228.64 358.03 228.63 358.03 228.61 358.02 228.62 358.07 228.61 358.13 228.59 358.18 228.57 358.21 228.56 358.22 228.56 358.28 228.55 358.3 228.51 358.3 228.49 358.28 228.47 358.25 228.49 358.22 228.37 358.13 228.36 358.11 228.35 358.08 228.36 358.04 228.41 358.04 228.39 358.01 228.38 357.99 228.36 357.93 228.35 357.87 228.35 357.8 228.36 357.77 228.37 357.74 228.4 357.72 228.43 357.72 228.46 357.72 228.48 357.71 228.49 357.69 228.5 357.67 228.52 357.65 228.55 357.65 228.57 357.66 228.61 357.7 228.62 357.7 228.65 357.69 228.69 357.67 228.73 357.64 228.79 357.56 228.61 357.55 228.57 357.55 228.54 357.51 228.46 357.38 228.52 357.29 228.53 357.25 228.55 357.16 228.57 357.12 228.62 357.1 228.62 357.09 228.58 357.1 228.58 357.04 228.61 356.94 228.61 356.63 228.62 356.65 228.63 356.67 228.64 356.68 228.65 356.69 228.66 356.67 228.67 356.64 228.66 356.6 228.61 356.58 228.6 356.55 228.6 356.51 228.59 356.48 228.64 356.49 228.68 356.51 228.71 356.55 228.73 356.59 228.74 356.59 228.72 356.52 228.62 356.4 228.61 356.33 228.6 356.33 228.57 356.34 228.56 356.35 228.54 356.26 228.52 355.97 228.5 355.94 228.49 355.6 228.5 355.53 228.52 355.46 228.55 355.39 228.52 355.37 228.52 355.33 228.52 355.28 228.51 355.25 228.49 355.24 228.48 355.19 228.47 355.11 228.44 355.12 228.42 355.11 228.41 355.08 228.41 355.04 228.43 355.04 228.44 355.05 228.44 355.06 228.45 355.06 228.47 355.04 228.45 355.03 228.44 355.01 228.42 354.94 228.43 354.93 228.43 354.92 228.41 354.91 228.4 354.9 228.37 354.9 228.35 354.89 228.33 354.87 228.31 354.85 228.29 354.83 228.26 354.82 228.23 354.82 228.21 354.82 228.19 354.84 228.18 354.86 228.16 354.84 228.13 354.84 228.11 354.85 228.09 354.85 228.08 354.82 228.08 354.8 228.1 354.79 228.13 354.79 228.15 354.76 228.2 354.65 228.23 354.62 228.25 354.61 228.3 354.61 228.32 354.6 228.35 354.59 228.37 354.57 228.39 354.55 228.42 354.55 228.46 354.56 228.49 354.58 228.53 354.59 228.58 354.57 228.59 354.56 228.6 354.55 228.6 354.53 228.61 354.51 228.61 354.5 228.61 354.48 228.61 354.47 228.62 354.47 228.63 354.47 228.65 354.47 228.65 354.46 228.66 354.44 228.69 354.42 228.72 354.4 228.74 354.38 228.75 354.36 228.76 354.34 228.77 354.31 228.78 354.29 228.77 354.19 228.74 354.12 228.65 353.97 228.64 353.96 228.62 353.95 228.62 353.9 228.53 353.66 228.52 353.66 228.52 353.73 228.5 353.73 228.47 353.63 228.41 353.54 228.28 353.38 228.25 353.34 228.24 353.31 228.25 353.22 228.26 353.14 228.26 353.1 228.25 353.07 228.26 353.06 228.34 353.13 228.4 353.19 228.42 353.18 228.44 353.14 228.47 353.06 228.48 353.02 228.48 352.98 228.48 352.94 228.47 352.92 228.43 352.86 228.44 352.85 228.49 352.83 228.49 352.84 228.5 352.85 228.51 352.85 228.52 352.86 228.53 352.83 228.52 352.79 228.5 352.77 228.47 352.75 228.47 352.74 228.51 352.68 228.52 352.65 228.52 352.6 228.55 352.57 228.56 352.52 228.55 352.47 228.53 352.43 228.46 352.37 228.44 352.36 228.43 352.34 228.42 352.33 228.4 352.31 228.4 352.29 228.41 352.24 228.41 352.21 228.41 352.19 228.39 352.18 228.37 352.17 228.29 352.13 228.24 352.14 228.2 352.17 228.17 352.21 228.18 352.22 228.18 352.24 228.17 352.24 228.15 352.24 228.14 352.25 228.12 352.25 228.12 352.2 228.13 352.17 228.14 352.15 228.05 351.95 228 351.89 227.94 351.83 227.91 351.81 227.85 351.79 227.84 351.78 227.83 351.77 227.8 351.78 227.8 351.8 227.8 351.81 227.79 351.83 227.77 351.84 227.76 351.69 227.78 351.62 227.84 351.6 227.87 351.56 227.84 351.47 227.77 351.34 227.76 351.34 227.77 351.37 227.78 351.38 227.79 351.39 227.79 351.4 227.77 351.4 227.74 351.35 227.57 351.18 227.55 351.16 227.51 351.16 227.49 351.15 227.47 351.12 227.46 351.09 227.42 351.08 227.44 351.07 227.41 351.06 227.39 351.04 227.35 350.99 227.33 350.99 227.42 350.7 227.5 350.45 227.55 350.46 227.6 350.45 227.64 350.43 227.68 350.39 227.7 350.33 227.69 350.28 227.64 350.19 227.62 350.12 227.61 350.02 227.62 349.94 227.68 349.91 227.7 349.92 227.81 350.02 227.83 350.04 227.83 350.05 227.82 350.07 227.82 350.08 227.83 350.08 227.85 350.09 227.85 350.09 227.91 350.17 227.93 350.2 227.96 350.32 227.98 350.34 228.03 350.34 228.09 350.29 228.19 350.19 228.5 350 228.56 349.94 228.55 349.9 228.5 349.85 228.47 349.79 228.48 349.76 228.55 349.68 228.6 349.55 228.65 349.51 228.72 349.47 228.79 349.44 228.86 349.43 228.94 349.43 228.95 349.42 228.94 349.39 228.92 349.37 228.89 349.35 228.87 349.33 228.86 349.3 228.85 349.24 228.8 349.07 228.74 348.95 228.72 348.91 228.66 348.83 228.61 348.73 228.6 348.71 228.57 348.69 228.54 348.69 228.51 348.68 228.49 348.64 228.47 348.57 228.45 348.41 228.42 348.33 228.38 348.27 228.36 348.25 228.32 348.24 228.25 348.25 228.23 348.23 228.23 348.18 228.25 348.12 228.28 348.09 228.34 348.02 228.37 347.97 228.36 347.93 228.35 347.91 228.35 347.89 228.39 347.87 228.43 347.86 228.46 347.86 228.49 347.84 228.49 347.81 228.49 347.8 228.49 347.79 228.5 347.79 228.5 347.78 228.54 347.8 228.56 347.88 228.59 347.92 228.61 347.95 228.64 347.98 228.65 348.01 228.67 348.05 228.69 348.14 228.71 348.18 228.85 348.28 228.96 348.33 229 348.35 229.02 348.38 229.2 348.67 229.25 348.71 229.28 348.71 229.34 348.72 229.35 348.72 229.37 348.72 229.38 348.69 229.4 348.69 229.41 348.72 229.41 348.75 229.4 348.75 229.39 348.75 229.38 348.74 229.38 348.8 229.4 348.83 229.43 348.85 229.46 348.83 229.46 348.88 229.49 348.84 229.5 348.87 229.48 348.9 229.48 348.94 229.47 348.93 229.44 348.93 229.43 348.92 229.44 349 229.5 349.03 229.55 349.03 229.55 348.98 229.69 348.98 229.68 349 229.66 349.03 229.66 349.05 229.66 349.08 229.67 349.08 229.68 349.07 229.7 349.06 229.7 349.08 229.63 349.1 229.63 349.12 229.65 349.12 229.66 349.13 229.68 349.15 229.68 349.15 229.68 349.16 229.67 349.17 229.66 349.16 229.65 349.15 229.63 349.15 229.61 349.15 229.63 349.17 229.65 349.18 229.67 349.2 229.69 349.23 229.63 349.2 229.57 349.18 229.52 349.19 229.49 349.23 229.49 349.24 229.49 349.24 229.5 349.24 229.5 349.24 229.46 349.37 229.52 349.44 229.64 349.48 229.78 349.48 229.81 349.48 229.83 349.47 229.85 349.46 229.87 349.44 229.88 349.42 229.88 349.41 229.87 349.39 229.87 349.37 229.87 349.35 229.9 349.33 229.9 349.31 229.91 349.17 229.91 349.11 229.88 349.06 229.88 349.08 229.88 349.09 229.88 349.1 229.88 349.12 229.87 349.12 229.86 349.08 229.85 349.03 229.85 348.98 229.88 348.91 229.87 348.86 229.84 348.79 229.83 348.71 229.83 348.4 229.82 348.36 229.79 348.34 229.76 348.33 229.74 348.3 229.73 348.26 229.72 348.22 229.67 348.17 229.6 348.13 229.52 348.09 229.46 348.08 229.46 348.1 229.43 348.07 229.47 348.02 229.52 347.95 229.55 347.91 229.77 347.84 229.83 347.83 230.04 347.77 230.07 347.76 230.08 347.74 230.08 347.72 230.09 347.69 230.1 347.67 230.11 347.66 230.11 347.64 230.1 347.64 230.1 347.62 230.14 347.62 230.29 347.56 230.32 347.54 230.42 347.44 230.53 347.36 230.58 347.32 230.58 347.31 230.57 347.28 230.59 347.26 230.72 347.23 230.77 347.2 230.82 347.19 230.83 347.18 230.85 347.16 230.87 347.13 230.95 347.07 230.97 347.05 230.95 346.97 230.97 346.9 231.01 346.85 231.09 346.79 231.11 346.76 231.12 346.73 231.15 346.54 231.16 346.51 231.17 346.51 231.24 346.49 231.25 346.48 231.27 346.47 231.28 346.45 231.28 346.4 231.29 346.37 231.3 346.34 231.32 346.32 231.34 346.3 231.36 346.3 231.45 346.27 231.52 346.25 231.58 346.21 231.64 346.16 231.64 346.11 231.66 346.08 231.71 346.08 231.73 346.11 231.81 346.1 231.88 346.09 231.94 346.07 231.95 346.07 231.97 346.08 231.98 346.1 231.98 346.13 231.95 346.12 231.92 346.11 231.89 346.12 231.86 346.14 231.88 346.16 231.89 346.16 231.9 346.16 231.92 346.14 231.93 346.16 231.94 346.16 231.95 346.17 231.95 346.19 232.02 346.14 232.06 346.12 232.11 346.11 232.16 346.12 232.2 346.13 232.2 346.13 232.26 346.15 232.29 346.13 232.37 346.05 232.43 345.95 232.47 345.81 232.47 345.68 232.45 345.62 232.42 345.58 232.41 345.57 232.38 345.52 232.35 345.52 232.32 345.5 232.29 345.49 232.25 345.49 232.22 345.5 232.19 345.52 232.19 345.5 232.31 345.37 232.33 345.31 232.37 345.19 232.37 345.14 232.38 345.09 232.41 345.03 232.43 344.96 232.44 344.91 232.44 344.86 232.47 344.74 232.48 344.66 232.45 344.59 232.44 344.54 232.46 344.53 232.46 344.52 232.48 344.52 232.5 344.51 232.51 344.49 232.53 344.44 232.54 344.42 232.55 344.41 232.56 344.38 232.56 344.36 232.56 344.34 232.56 344.31 232.57 344.29 232.5 344.33 232.41 344.39 232.32 344.48 232.23 344.54 232.19 344.53 232.22 344.45 232.29 344.42 232.32 344.4 232.34 344.37 232.35 344.35 232.36 344.33 232.38 344.3 232.39 344.27 232.38 344.25 232.39 344.23 232.44 344.23 232.43 344.21 232.42 344.19 232.43 344.17 232.44 344.15 232.46 344.2 232.5 344.19 232.58 344.14 232.61 344.12 232.61 344.07 232.59 344.01 232.59 343.95 232.57 343.95 232.55 343.97 232.54 343.95 232.53 343.89 232.51 343.89 232.51 343.91 232.5 343.93 232.49 343.94 232.47 343.94 232.48 343.92 232.49 343.88 232.5 343.86 232.51 343.85 232.54 343.84 232.55 343.82 232.61 343.75 232.64 343.74 232.62 343.78 232.6 343.82 232.59 343.86 232.63 343.88 232.66 343.86 232.67 343.81 232.67 343.75 232.67 343.71 232.66 343.7 232.64 343.7 232.62 343.69 232.62 343.68 232.63 343.65 232.64 343.65 232.63 343.62 232.63 343.6 232.62 343.58 232.6 343.57 232.59 343.56 232.6 343.54 232.62 343.52 232.64 343.51 232.67 343.51 232.7 343.5 232.72 343.48 232.74 343.46 232.74 343.45 232.72 343.43 232.73 343.42 232.73 343.41 232.75 343.41 232.76 343.4 232.78 343.39 232.79 343.4 232.81 343.39 232.82 343.36 232.82 343.36 232.84 343.34 232.86 343.32 232.85 343.31 232.87 343.3 232.92 343.28 233.07 343.24 233.09 343.22 233.11 343.19 233.13 343.17 233.14 343.16 233.15 343.17 233.17 343.17 233.18 343.18 233.18 343.19 233.18 343.2 233.17 343.21 233.17 343.22 233.18 343.23 233.18 343.24 233.18 343.25 233.2 343.25 233.21 343.23 233.26 343.19 233.25 343.17 233.24 343.15 233.24 343.13 233.24 343.11 233.21 343.14 233.2 343.16 233.15 343.13 233.14 343.09 233.16 343.05 233.24 343.02 233.27 342.98 233.3 342.97 233.32 342.97 233.35 342.96 233.37 342.95 233.51 342.86 233.6 342.84 233.64 342.81 233.67 342.78 233.67 342.74 233.68 342.72 233.69 342.67 233.7 342.65 233.72 342.64 233.75 342.62 233.79 342.62 233.83 342.6 233.86 342.57 233.91 342.53 233.92 342.49 233.98 342.49 234.06 342.48 234.09 342.45 234.09 342.41 234.09 342.37 234.08 342.36 234.1 342.35 234.15 342.37 234.2 342.39 234.32 342.43 234.54 342.52 234.7 342.57 234.81 342.6 234.92 342.61 235.07 342.63 235.22 342.62 235.31 342.61 235.27 342.63 235.16 342.65 234.95 342.65 234.93 342.64 234.9 342.64 234.88 342.64 234.85 342.65 234.85 342.67 234.85 342.69 234.85 342.72 234.83 342.73 234.82 342.76 234.84 342.82 234.9 342.93 234.86 342.91 234.83 342.87 234.8 342.85 234.78 342.88 234.76 342.86 234.71 342.86 234.68 342.84 234.66 342.85 234.64 342.89 234.63 342.93 234.63 342.96 234.62 343.03 234.63 343.06 234.64 343.08 234.67 343.07 234.68 343.03 234.69 342.99 234.72 342.97 234.72 342.99 234.72 343.01 234.74 343.02 234.76 343.02 234.76 343.04 234.76 343.12 234.8 343.14 234.83 343.14 234.86 343.12 234.87 343.08 234.84 343.09 234.82 343.09 234.81 343.07 234.81 343.03 234.82 343 234.83 342.98 234.84 342.96 234.84 342.94 234.88 342.95 234.91 342.98 234.92 343.02 234.93 343.13 234.95 343.16 234.99 343.16 235.08 343.16 235.09 343.15 235.11 343.14 235.15 343.1 235.16 343.09 235.17 343.07 235.23 342.96 235.24 342.94 235.23 342.88 235.26 342.83 235.26 342.81 235.27 342.8 235.3 342.76 235.31 342.75 235.32 342.66 235.35 342.61 235.48 342.41 235.49 342.4 235.48 342.37 235.45 342.33 235.44 342.31 235.44 342.29 235.46 342.25 235.46 342.23 235.46 342.2 235.44 342.16 235.43 342.14 235.43 342.13 235.46 342.11 235.46 342.1 235.46 342.09 235.45 342.08 235.45 342.08 235.44 342.07 235.45 342.05 235.46 342.03 235.49 341.99 235.5 341.97 235.51 341.97 235.52 341.96 235.52 341.93 235.55 341.88 235.59 341.88 235.61 341.88 235.63 341.87 235.63 341.82 235.64 341.82 235.64 341.83 235.65 341.84 235.66 341.86 235.68 341.83 235.69 341.82 235.69 341.82 235.7 341.83 235.7 341.83 235.7 341.83 235.72 341.83 235.72 341.79 235.74 341.81 235.76 341.84 235.78 341.85 235.8 341.84 235.81 341.82 235.82 341.8 235.84 341.82 235.86 341.82 235.86 341.8 235.87 341.8 235.88 341.79 235.9 341.79 235.96 341.79 236 341.81 236.04 341.84 236.08 341.87 236.09 341.88 236.19 341.9 236.27 341.94 236.35 341.97 236.62 341.99 236.87 341.97 236.93 341.97 237.29 341.97 237.54 341.93 237.56 341.92 237.57 341.9 237.64 341.85 237.7 341.82 237.71 341.81 237.72 341.79 237.75 341.74 237.76 341.73 237.79 341.72 237.81 341.7 237.84 341.66 237.86 341.64 237.94 341.6 238.06 341.48 238.33 341.34 238.72 341.03 238.76 341 238.84 340.97 238.97 340.94 239.01 340.93 239.07 340.88 239.12 340.89 239.17 340.87 239.22 340.84 239.27 340.82 239.4 340.81 239.44 340.8 239.47 340.78 239.53 340.74 239.6 340.72 239.7 340.65 239.82 340.6 239.84 340.57 239.89 340.53 239.89 340.5 239.9 340.48 239.93 340.4 240.01 340.28 240.03 340.2 240.08 340.14 240.09 340.11 240.1 340.07 240.09 339.94 240.08 339.89 240.07 339.88 240.04 339.86 240.02 339.85 240.02 339.85 240.02 339.82 240.04 339.8 240.09 339.77 240.16 339.79 240.39 339.75 240.47 339.77 240.46 339.81 240.37 339.91 240.4 339.93 240.43 339.98 240.47 340 240.54 339.97 240.55 339.96 240.56 339.93 240.57 339.91 240.59 339.89 240.61 339.88 240.64 339.88 240.67 339.88 240.69 339.88 240.7 339.85 240.69 339.83 240.68 339.81 240.67 339.79 240.69 339.77 240.66 339.75 240.65 339.73 240.64 339.72 240.61 339.71 240.58 339.71 240.55 339.71 240.53 339.72 240.52 339.74 240.5 339.74 240.49 339.71 240.59 339.64 240.67 339.57 240.68 339.56 240.69 339.53 240.69 339.52 240.73 339.52 240.74 339.52 240.78 339.5 240.8 339.49 240.82 339.51 240.78 339.53 240.75 339.55 240.75 339.58 240.78 339.62 240.79 339.62 240.8 339.63 240.84 339.62 240.84 339.61 240.84 339.6 240.84 339.59 240.84 339.58 240.88 339.59 240.88 339.58 240.92 339.56 240.95 339.54 240.97 339.52 240.97 339.48 240.97 339.47 240.96 339.47 240.95 339.46 240.96 339.45 240.97 339.43 240.99 339.42 241.01 339.42 241.04 339.41 241.02 339.45 241.03 339.47 241.06 339.49 241.07 339.52 241.08 339.52 241.09 339.51 241.09 339.5 241.1 339.48 241.09 339.48 241.07 339.47 241.08 339.46 241.1 339.45 241.11 339.45 241.14 339.43 241.17 339.42 241.2 339.41 241.22 339.38 241.19 339.39 241.17 339.4 241.15 339.41 241.13 339.41 241.11 339.41 241.12 339.39 241.13 339.37 241.16 339.35 241.13 339.35 241.11 339.36 241.09 339.37 241.08 339.38 241.08 339.35 241.09 339.33 241.1 339.32 241.07 339.34 241.01 339.39 240.99 339.41 240.97 339.4 241 339.36 241.03 339.32 241.07 339.3 241.12 339.29 241.16 339.3 241.23 339.33 241.28 339.34 241.44 339.34 241.48 339.35 241.53 339.37 241.6 339.41 241.63 339.44 241.64 339.45 241.67 339.46 241.75 339.46 241.77 339.47 241.82 339.5 241.86 339.52 241.96 339.54 242.04 339.57 242.08 339.61 242.1 339.64 242.11 339.66 242.12 339.68 242.13 339.72 242.27 339.95 242.28 340.01 242.36 340.13 242.38 340.18 242.36 340.23 242.34 340.27 242.31 340.31 242.25 340.35 242.1 340.44 242.05 340.49 242.02 340.5 241.98 340.52 241.95 340.52 241.94 340.54 241.9 340.66 241.89 340.68 241.89 340.68 Z M 218.89 339.21 218.86 339.21 218.85 339.19 218.87 339.17 218.85 339.12 218.86 339.08 218.88 339.04 218.92 339.01 218.93 339.04 218.89 339.21 Z M 219.64 337.36 219.6 337.37 219.59 337.32 219.61 337.27 219.64 337.24 219.67 337.26 219.68 337.3 219.67 337.33 219.64 337.36 Z M 222.47 336.78 222.47 336.78 222.47 336.78 222.47 336.78 222.47 336.79 222.47 336.78 222.47 336.78 222.47 336.78 222.47 336.78 Z" fill-rule="evenodd" id="Colombia" transform="translate(-218.85000610351562,-336.7799987792969) "/></svg>