<svg xmlns="http://www.w3.org/2000/svg" viewBox="0 0 10.100006103515625 12.67999267578125"><path d="M 206.93 354.79 206.89 354.8 206.92 354.75 206.94 354.73 206.98 354.71 207.01 354.7 207.01 354.72 207 354.75 206.98 354.78 206.93 354.79 Z M 214.09 347.73 214.07 347.73 214.04 347.73 214.03 347.72 214.06 347.7 214.09 347.7 214.09 347.73 Z M 211.26 344.6 211.28 344.61 211.29 344.61 211.31 344.61 211.33 344.63 211.34 344.63 211.37 344.63 211.37 344.64 211.34 344.65 211.31 344.66 211.27 344.66 211.23 344.66 211.19 344.64 211.17 344.62 211.14 344.57 211.18 344.55 211.2 344.55 211.27 344.56 211.34 344.58 211.34 344.6 211.26 344.6 Z M 214.59 342.76 214.63 342.81 214.69 342.91 214.73 343.02 214.72 343.09 214.69 343.05 214.63 342.91 214.67 343.09 214.67 343.16 214.6 343.22 214.64 343.21 214.66 343.19 214.68 343.18 214.71 343.16 214.7 343.17 214.7 343.18 214.7 343.2 214.71 343.22 214.72 343.19 214.73 343.14 214.74 343.11 214.85 343.41 214.98 343.72 215.14 343.99 215.57 344.54 215.6 344.57 215.74 344.74 215.83 344.83 215.88 344.8 215.9 344.81 215.96 344.82 215.97 344.84 215.97 344.88 215.98 344.91 216 344.94 216.02 344.97 216.13 345.13 216.16 345.15 216.29 345.32 216.39 345.41 216.44 345.39 216.45 345.43 216.47 345.52 216.49 345.56 216.52 345.59 216.67 345.64 216.72 345.64 216.77 345.64 216.82 345.65 216.87 345.67 216.92 345.75 216.96 345.78 216.96 345.78 216.99 345.86 216.97 345.86 216.93 345.84 216.9 345.84 216.89 345.86 216.88 345.95 216.86 345.98 216.83 345.98 216.79 345.97 216.75 345.96 216.73 345.95 216.71 345.93 216.68 345.87 216.66 345.85 216.64 345.85 216.62 345.85 216.52 345.77 216.4 345.72 216.35 345.72 216.31 345.76 216.29 345.79 216.28 345.81 216.31 345.86 216.33 345.92 216.34 345.93 216.35 345.94 216.36 345.95 216.36 345.96 216.32 345.98 216.21 346 216.16 346.01 216.15 346.04 216.14 346.09 216.14 346.27 216.15 346.54 216.15 346.9 216.15 346.93 216.22 346.9 216.24 346.9 216.25 346.91 216.26 346.93 216.27 346.95 216.28 346.96 216.29 346.97 216.34 346.99 216.44 347.07 216.54 347.1 216.57 347.12 216.63 347.22 216.64 347.24 216.64 347.24 216.61 347.29 216.54 347.33 216.31 347.42 216.29 347.44 216.26 347.47 216.27 347.48 216.29 347.49 216.29 347.52 216.27 347.55 216.21 347.59 216.19 347.61 216.18 347.64 216.2 347.67 216.22 347.7 216.29 347.78 216.32 347.83 216.35 347.89 216.37 347.95 216.38 348.11 216.37 348.19 216.35 348.25 216.3 348.31 216.25 348.34 216.18 348.36 216.12 348.39 216.02 348.49 215.92 348.54 215.9 348.56 215.9 348.59 215.92 348.61 215.98 348.64 215.99 348.66 216.01 348.69 216.03 348.7 216.04 348.7 216.07 348.69 216.09 348.69 216.13 348.71 216.14 348.73 216.15 348.81 216.27 349.06 216.26 349.16 216.24 349.21 216.21 349.19 216.22 349.15 216.23 349.12 216.24 349.08 216.24 349.05 216.09 348.8 216.03 348.74 215.76 348.54 215.68 348.47 215.75 348.39 215.76 348.38 215.77 348.36 215.8 348.33 215.81 348.29 215.8 348.26 215.72 348.17 215.71 348.14 215.71 348.11 215.73 348.1 215.75 348.09 215.79 348.07 215.76 348.06 215.7 348.06 215.67 348.05 215.65 348.03 215.61 347.95 215.61 347.94 215.62 347.93 215.62 347.92 215.64 347.92 215.66 347.95 215.66 347.97 215.67 348 215.68 348 215.74 347.98 215.74 347.96 215.71 347.95 215.68 347.92 215.65 347.9 215.64 347.87 215.62 347.87 215.6 347.9 215.56 347.9 215.52 347.89 215.48 347.9 215.47 347.87 215.44 347.84 215.41 347.82 215.38 347.84 215.31 347.8 215.29 347.76 215.3 347.72 215.29 347.72 215.27 347.72 215.28 347.68 215.25 347.66 215.2 347.65 215.17 347.64 215.15 347.67 215.14 347.67 215.13 347.66 215.1 347.66 215.09 347.67 215.09 347.68 215.08 347.7 215.05 347.7 214.98 347.69 214.95 347.7 214.94 347.75 214.95 347.73 214.95 347.73 214.97 347.73 215.05 347.85 215.06 347.88 215.1 347.96 215.12 347.98 215.15 347.99 215.23 348.02 215.26 348.02 215.3 348.04 215.32 348.08 215.35 348.1 215.38 348.08 215.38 348.14 215.38 348.16 215.36 348.17 215.36 348.19 215.4 348.24 215.41 348.31 215.4 348.39 215.38 348.45 215.33 348.45 215.25 348.43 215.17 348.39 215.14 348.36 215.15 348.36 215.16 348.37 215.17 348.37 215.2 348.37 215.16 348.35 215.14 348.34 215.12 348.33 215.12 348.36 214.99 348.3 214.95 348.3 214.81 348.31 214.77 348.31 214.74 348.3 214.71 348.27 214.66 348.2 214.46 348.02 214.45 348 214.44 348 214.4 347.98 214.38 347.97 214.38 347.9 214.44 347.8 214.46 347.78 214.49 347.76 214.52 347.75 214.53 347.75 214.54 347.77 214.55 347.75 214.61 347.67 214.62 347.66 214.59 347.62 214.63 347.58 214.69 347.55 214.74 347.53 214.74 347.52 214.69 347.51 214.67 347.52 214.65 347.53 214.63 347.56 214.6 347.57 214.59 347.55 214.6 347.51 214.63 347.47 214.69 347.45 214.71 347.43 214.72 347.4 214.71 347.38 214.68 347.37 214.66 347.34 214.65 347.31 214.69 347.33 214.71 347.33 214.74 347.33 214.73 347.32 214.71 347.31 214.68 347.29 214.67 347.28 214.66 347.27 214.65 347.26 214.62 347.26 214.65 347.24 214.64 347.23 214.63 347.22 214.62 347.21 214.63 347.19 214.64 347.17 214.66 347.16 214.68 347.14 214.62 346.98 214.61 346.96 214.57 346.92 214.56 346.94 214.51 346.87 214.46 346.8 214.4 346.74 214.32 346.72 214.32 346.67 214.27 346.62 214.21 346.58 214.16 346.57 213.98 346.4 213.81 346.33 213.78 346.3 213.57 346.22 213.56 346.22 213.54 346.23 213.53 346.23 213.52 346.22 213.51 346.2 213.48 346.22 213.46 346.2 213.44 346.18 213.4 346.17 213.43 346.13 213.4 346.08 213.34 346.02 213.28 346.01 213.28 346.02 213.3 346.02 213.32 346.03 213.34 346.05 213.29 346.04 213.2 345.99 213.14 345.98 213.08 345.97 212.79 345.89 212.73 345.88 212.7 345.89 212.67 345.9 212.64 345.9 212.61 345.9 212.59 345.88 212.58 345.85 212.57 345.83 212.54 345.82 212.54 345.83 212.55 345.84 212.55 345.85 212.52 345.83 212.43 345.77 212.42 345.74 212.41 345.71 212.39 345.69 212.37 345.68 212.34 345.67 212.33 345.65 212.34 345.62 212.33 345.61 212.3 345.61 212.31 345.58 212.3 345.56 212.3 345.54 212.3 345.52 212.31 345.49 212.35 345.45 212.36 345.42 212.38 345.4 212.39 345.37 212.4 345.34 212.39 345.31 212.38 345.29 212.34 345.26 212.25 345.12 212.23 345.1 212.19 345.09 212.2 345.05 212.23 345 212.17 344.96 212.16 344.94 212.17 344.9 212.11 344.88 211.91 344.9 211.91 344.89 211.94 344.88 211.98 344.87 212.05 344.87 212.05 344.86 211.98 344.85 211.92 344.84 211.86 344.82 211.81 344.8 211.74 344.74 211.73 344.73 211.72 344.73 211.69 344.71 211.67 344.69 211.68 344.68 211.64 344.66 211.55 344.57 211.5 344.55 211.48 344.53 211.47 344.52 211.46 344.53 211.45 344.53 211.43 344.54 211.41 344.52 211.43 344.5 211.43 344.48 211.42 344.48 211.41 344.47 211.38 344.44 211.34 344.46 211.19 344.46 211.15 344.45 211.12 344.43 211.06 344.37 211.06 344.35 211.08 344.31 211.04 344.27 210.94 344.2 210.96 344.24 211.02 344.29 211.03 344.35 211.04 344.45 211.05 344.51 211.08 344.55 211.05 344.57 211.06 344.6 211.08 344.63 211.15 344.65 211.17 344.68 211.2 344.74 211.22 344.74 211.23 344.73 211.24 344.73 211.25 344.75 211.23 344.75 211.21 344.75 211.19 344.74 211.17 344.74 211.17 344.75 211.21 344.79 211.26 344.83 211.4 344.89 211.41 344.9 211.43 344.89 211.47 344.9 211.55 344.95 211.59 344.97 211.63 344.97 211.67 344.95 211.7 344.97 211.75 345.01 211.78 345.03 211.78 345.04 211.74 345.05 211.74 345.08 211.76 345.12 211.79 345.15 211.78 345.16 211.76 345.17 211.73 345.2 211.76 345.21 211.8 345.21 211.88 345.21 211.88 345.23 211.85 345.25 211.81 345.26 211.78 345.29 211.76 345.33 211.76 345.33 211.7 345.36 211.69 345.38 211.68 345.42 211.67 345.44 211.6 345.4 211.57 345.4 211.55 345.43 211.56 345.45 211.59 345.49 211.59 345.5 211.52 345.54 211.51 345.54 211.5 345.55 211.44 345.58 211.43 345.6 211.39 345.75 211.37 345.79 211.34 345.82 211.32 345.82 211.26 345.7 211.08 345.45 211.06 345.42 211.05 345.41 211.03 345.39 210.98 345.37 210.97 345.35 210.97 345.33 210.97 345.32 210.92 345.26 210.85 345.22 210.61 345.13 210.59 345.14 210.56 345.16 210.54 345.16 210.52 345.16 210.49 345.14 210.46 345.13 210.45 345.13 210.45 345.13 210.44 345.12 210.43 345.11 210.42 345.1 210.41 345.11 210.4 345.11 210.4 345.12 210.27 345.08 210.21 345.07 210.2 345.06 210.19 345.05 210.17 345.04 210.14 345.04 210.13 345.05 210.11 345.05 210.09 345.03 210.11 344.99 210.08 344.93 209.86 344.65 209.84 344.63 209.83 344.57 209.8 344.52 209.71 344.31 209.7 344.25 209.7 344.21 209.68 344.18 209.71 344.15 209.73 344.13 209.72 344.11 209.67 344.05 209.64 344.04 209.66 344.01 209.7 343.98 209.72 343.95 209.74 343.91 209.78 343.92 209.8 343.9 209.82 343.87 209.86 343.83 209.85 343.79 209.81 343.75 209.79 343.72 209.8 343.71 209.81 343.71 209.82 343.71 209.82 343.69 209.79 343.69 209.79 343.68 209.81 343.67 209.83 343.66 209.85 343.62 209.87 343.62 209.9 343.64 209.94 343.62 209.98 343.6 210.02 343.6 210.03 343.6 210.03 343.57 210.04 343.56 210.05 343.55 210.06 343.54 210.08 343.51 210.09 343.51 210.12 343.51 210.18 343.44 210.18 343.42 210.17 343.41 210.14 343.39 210.05 343.48 210.04 343.47 210.04 343.47 210.04 343.46 210.03 343.46 210.03 343.45 210.06 343.42 210.07 343.41 210.09 343.4 210.08 343.39 210.08 343.39 210.07 343.39 210.07 343.4 210.06 343.4 210.07 343.38 210.07 343.38 210.09 343.37 210.09 343.36 210.08 343.36 210.08 343.34 210.11 343.31 210.12 343.23 210.11 343.09 210.08 343.05 210 343.02 209.93 343 209.9 343.03 209.88 343.03 209.82 342.98 209.8 342.96 209.81 342.96 209.83 342.95 209.83 342.94 209.82 342.93 209.8 342.92 209.76 342.93 209.74 342.93 209.68 342.9 209.63 342.87 209.57 342.85 209.49 342.84 209.49 342.82 209.54 342.81 209.63 342.76 209.68 342.76 209.67 342.74 209.67 342.74 209.66 342.73 209.64 342.73 209.64 342.71 209.75 342.71 209.77 342.71 209.79 342.73 209.78 342.75 209.78 342.77 209.78 342.77 209.79 342.78 209.82 342.8 209.83 342.8 209.85 342.79 209.85 342.77 209.82 342.75 209.85 342.73 209.9 342.72 209.94 342.73 209.96 342.73 209.98 342.75 209.99 342.76 210.01 342.75 210.01 342.74 210.01 342.72 210 342.71 210 342.69 210.03 342.68 210.04 342.66 210.04 342.63 210.02 342.6 210 342.59 209.96 342.58 209.95 342.56 209.93 342.54 209.93 342.54 209.94 342.54 209.96 342.53 209.99 342.5 210.01 342.51 210.03 342.53 210.08 342.53 210.1 342.5 210.1 342.47 210.07 342.44 210.05 342.42 210.03 342.41 210.08 342.32 210.12 342.24 210.18 342.15 210.26 342.12 210.32 342.15 210.38 342.21 210.46 342.25 210.68 342.33 210.98 342.44 211.06 342.47 211.38 342.59 211.74 342.72 211.79 342.73 211.84 342.71 212.07 342.56 212.23 342.45 212.3 342.43 212.34 342.45 212.42 342.51 212.46 342.52 212.51 342.51 212.56 342.53 212.67 342.58 212.68 342.58 212.7 342.59 212.71 342.59 212.72 342.6 212.77 342.66 212.79 342.68 212.81 342.69 212.83 342.7 212.85 342.7 212.87 342.69 212.99 342.61 213.01 342.6 213.03 342.61 213.04 342.63 213.04 342.65 213.04 342.68 213.05 342.7 213.08 342.73 213.09 342.75 213.11 342.77 213.21 342.81 213.24 342.83 213.26 342.85 213.3 342.87 213.34 342.9 213.35 342.96 213.32 342.97 213.31 342.98 213.3 343 213.3 343.01 213.31 343.02 213.31 343.03 213.36 343.07 213.38 343.08 213.4 343.06 213.43 343.06 213.45 343.07 213.47 343.07 213.5 343.06 213.54 343.1 213.56 343.11 213.59 343.09 213.6 343.09 213.63 343.12 213.69 343.09 213.72 343.09 213.75 343.07 213.78 343.06 213.8 343.08 213.81 343.12 213.95 343.22 213.96 343.23 213.98 343.23 214.01 343.23 214.04 343.21 214.05 343.2 214.11 343.21 214.12 343.21 214.17 343.16 214.31 343.1 214.32 343.1 214.47 343.06 214.55 343.02 214.55 342.96 214.53 342.88 214.53 342.79 214.53 342.78 214.53 342.76 214.55 342.75 214.56 342.76 214.57 342.76 214.59 342.76 Z" fill-rule="evenodd" id="Costa Rica" transform="translate(-206.88999938964844,-342.1199951171875) "/></svg>