<svg xmlns="http://www.w3.org/2000/svg" viewBox="0 0 13.089996337890625 12.789993286132812"><path d="M 437.54 262.5 437.54 262.54 437.52 262.58 437.47 262.61 437.43 262.62 437.42 262.6 437.4 262.6 437.37 262.58 437.35 262.61 437.32 262.62 437.29 262.6 437.26 262.56 437.29 262.54 437.29 262.52 437.28 262.5 437.26 262.52 437.25 262.52 437.26 262.48 437.3 262.47 437.37 262.46 437.51 262.48 437.54 262.5 Z M 438.53 262.42 438.51 262.44 438.53 262.43 438.56 262.44 438.58 262.44 438.6 262.46 438.61 262.44 438.65 262.46 438.76 262.46 438.84 262.51 438.96 262.54 439.01 262.56 439 262.57 439 262.57 438.99 262.58 439.12 262.59 439.14 262.58 439.19 262.62 439.3 262.67 439.34 262.73 438.54 262.5 438.51 262.53 438.47 262.51 438.42 262.47 438.4 262.44 438.44 262.43 438.51 262.4 438.55 262.4 438.54 262.41 438.53 262.42 Z M 437.17 261.89 437.29 261.92 437.41 261.92 437.45 261.91 437.5 261.88 437.75 261.86 437.93 261.91 437.98 261.9 438.01 261.95 438.05 261.98 438.13 262.04 438.11 262.06 438.07 262.04 438.02 262.04 437.92 262.06 437.72 262.02 437.62 262.03 437.46 262.09 437.35 262.11 437.11 262.06 437 262.02 436.96 262.03 436.96 262.04 436.92 262.03 436.88 262 437.03 261.92 437.03 261.9 436.99 261.88 436.9 261.87 436.87 261.86 436.91 261.83 436.96 261.83 437.01 261.84 437.06 261.84 437.11 261.86 437.17 261.89 Z M 439.13 262.13 439.16 262.09 439.19 262.06 439.24 262.05 439.29 262.06 439.38 262.1 439.43 262.1 439.44 262.09 439.46 262.08 439.48 262.08 439.51 262.11 439.51 262.14 439.51 262.21 439.52 262.25 439.59 262.36 439.61 262.37 439.69 262.39 439.74 262.44 439.84 262.54 439.89 262.59 440.01 262.66 440.4 262.93 440.47 262.96 440.59 263.01 440.65 263 440.68 263.02 440.72 263.09 440.72 263.09 440.72 263.09 440.75 263.11 440.83 263.12 440.87 263.13 440.88 263.18 440.87 263.28 440.87 263.33 440.88 263.38 440.91 263.41 440.94 263.45 440.95 263.46 440.99 263.48 441 263.52 441 263.56 440.95 263.48 440.92 263.46 440.85 263.44 440.82 263.42 440.81 263.38 440.43 263.13 440.39 263.07 440.39 263.04 440.39 263 440.4 262.97 440.38 262.95 440.27 262.93 440.18 262.88 440.14 262.87 440.1 262.86 440.07 262.86 440.04 262.84 440.03 262.81 440.07 262.81 440.02 262.76 440.01 262.74 440 262.7 439.96 262.74 439.91 262.71 439.81 262.62 439.68 262.55 439.64 262.5 439.66 262.44 439.6 262.44 439.53 262.39 439.47 262.37 439.46 262.38 439.44 262.38 439.42 262.39 439.41 262.42 439.4 262.41 439.39 262.4 439.38 262.4 439.37 262.39 439.31 262.34 439.28 262.33 439.32 262.37 439.34 262.4 439.37 262.47 439.37 262.49 439.36 262.5 439.34 262.49 439.34 262.47 439.35 262.45 439.34 262.44 439.3 262.41 439.19 262.36 439.09 262.34 438.97 262.28 438.85 262.26 438.66 262.19 438.66 262.11 438.61 262.07 438.46 262.04 438.28 261.92 438.21 261.89 438.17 261.87 438.16 261.86 438.13 261.85 437.89 261.85 437.82 261.84 437.79 261.82 437.74 261.8 437.72 261.76 437.75 261.73 437.75 261.71 437.73 261.7 437.71 261.69 437.7 261.67 437.69 261.65 437.73 261.66 437.81 261.72 437.85 261.73 438.04 261.71 438.22 261.74 438.55 261.87 438.63 261.92 438.69 261.98 438.69 261.99 438.69 262.01 438.7 262.03 438.7 262.04 438.71 262.05 438.74 262.04 438.75 262.04 438.79 262.07 438.81 262.08 438.83 262.08 438.84 262.08 438.84 262.05 438.85 262.04 438.86 262.05 438.88 262.06 438.89 262.06 438.92 262.07 438.94 262.08 438.98 262.11 439.06 262.13 439.11 262.15 439.13 262.19 439.14 262.19 439.18 262.18 439.27 262.28 439.33 262.29 439.26 262.24 439.24 262.2 439.27 262.17 439.25 262.15 439.19 262.17 439.13 262.13 Z M 435.9 261.58 435.89 261.59 435.95 261.57 435.97 261.57 436 261.59 436.01 261.58 436.02 261.57 436.03 261.57 436.03 261.6 436.03 261.62 436.01 261.63 435.98 261.65 435.96 261.68 435.93 261.71 435.74 261.77 435.66 261.77 435.61 261.75 435.65 261.73 435.66 261.68 435.64 261.64 435.62 261.65 435.61 261.65 435.57 261.61 435.58 261.6 435.59 261.59 435.6 261.59 435.62 261.59 435.67 261.56 435.76 261.54 435.84 261.54 435.91 261.57 435.9 261.58 Z M 436.71 261.11 436.76 261.15 436.77 261.15 436.79 261.14 436.81 261.13 436.83 261.13 436.9 261.14 436.93 261.15 436.94 261.17 436.96 261.19 436.98 261.22 437 261.24 437 261.25 437 261.25 437 261.25 436.99 261.26 437.03 261.29 437.08 261.31 437.13 261.32 437.35 261.32 437.38 261.3 437.41 261.33 437.45 261.34 437.59 261.35 437.72 261.38 437.93 261.37 438.03 261.38 438.11 261.42 437.56 261.42 437 261.42 436.95 261.43 436.71 261.37 436.52 261.3 436.45 261.29 436.41 261.26 436.39 261.26 436.29 261.21 436.3 261.2 436.31 261.2 436.33 261.19 436.36 261.21 436.39 261.21 436.44 261.17 436.46 261.19 436.46 261.18 436.49 261.15 436.49 261.17 436.57 261.15 436.63 261.19 436.7 261.24 436.76 261.24 436.7 261.17 436.64 261.14 436.62 261.11 436.65 261.12 436.71 261.11 Z M 437.26 260.77 437.28 260.78 437.29 260.77 437.31 260.76 437.33 260.77 437.37 260.82 437.39 260.83 437.41 260.83 437.43 260.83 437.44 260.86 437.42 260.92 437.4 260.93 437.38 260.92 437.34 260.98 437.27 261 436.86 261.01 436.72 260.99 436.58 260.95 436.4 260.84 436.37 260.8 436.38 260.81 436.4 260.82 436.41 260.82 436.41 260.8 436.42 260.8 436.43 260.8 436.44 260.8 436.43 260.78 436.43 260.76 436.45 260.74 436.47 260.74 436.44 260.68 436.41 260.61 436.46 260.61 436.47 260.61 436.56 260.65 436.99 260.66 437.26 260.74 437.26 260.76 437.23 260.76 437.26 260.77 Z M 436.13 260.58 436.14 260.63 436.2 260.63 436.24 260.66 436.28 260.71 436.33 260.76 436.3 260.8 436.24 260.78 436.09 260.69 435.98 260.64 435.93 260.63 435.92 260.62 435.93 260.62 435.93 260.62 435.94 260.61 435.92 260.59 435.91 260.57 435.92 260.56 435.95 260.55 436.08 260.56 436.13 260.58 Z M 436.21 260.29 436.3 260.32 436.29 260.34 436.21 260.35 436.09 260.33 436.06 260.33 436.04 260.34 436.01 260.35 435.98 260.34 435.95 260.33 435.94 260.32 435.94 260.3 435.95 260.3 435.96 260.3 435.98 260.3 436.01 260.31 436.03 260.29 436.02 260.27 436.05 260.25 436.15 260.27 436.21 260.29 Z M 434.75 259.84 434.89 259.9 434.76 259.86 434.74 259.87 434.72 259.85 434.62 259.78 434.59 259.76 434.61 259.74 434.61 259.75 434.62 259.76 434.69 259.76 434.72 259.79 434.73 259.82 434.75 259.84 Z M 434.06 259.41 434.13 259.46 434.11 259.45 433.98 259.39 433.93 259.36 433.89 259.3 433.83 259.25 433.8 259.22 433.77 259.18 433.75 259.15 433.78 259.13 433.83 259.17 433.84 259.2 434.01 259.34 434.04 259.37 434.06 259.41 Z M 434.23 259.07 434.24 259.11 434.22 259.1 434.21 259.09 434.19 259.09 434.17 259.09 434.15 259.08 434.14 259.07 434.14 259.05 434.13 259.04 434.07 259.03 434.05 259.01 434.03 258.98 434.04 258.97 434.04 258.96 434.01 258.95 433.97 258.92 433.94 258.89 433.92 258.87 433.91 258.83 433.85 258.76 433.83 258.73 433.87 258.73 433.91 258.74 434.03 258.83 434.09 258.85 434.1 258.85 434.11 258.87 434.11 258.92 434.12 258.94 434.13 258.95 434.16 258.97 434.18 258.98 434.2 259 434.22 259.03 434.23 259.07 Z M 433.75 258.56 433.8 258.62 433.81 258.71 433.79 258.68 433.76 258.63 433.75 258.61 433.72 258.62 433.71 258.62 433.71 258.61 433.7 258.6 433.7 258.59 433.69 258.58 433.67 258.62 433.63 258.58 433.58 258.53 433.52 258.48 433.44 258.38 433.4 258.35 433.41 258.34 433.41 258.34 433.41 258.34 433.42 258.33 433.41 258.31 433.39 258.26 433.75 258.56 Z M 432.89 258.3 432.9 258.31 432.92 258.29 432.93 258.29 432.95 258.31 432.96 258.33 432.93 258.34 432.88 258.33 432.85 258.29 432.86 258.24 432.87 258.28 432.89 258.3 Z M 433.22 258.48 433.24 258.49 433.27 258.48 433.26 258.51 433.25 258.52 433.28 258.52 433.3 258.54 433.31 258.57 433.31 258.61 433.32 258.65 433.34 258.68 433.45 258.79 433.47 258.81 433.5 258.81 433.51 258.83 433.57 258.92 433.73 259.03 433.74 259.07 433.68 259.08 433.57 259 433.55 259 433.56 259.01 433.56 259.03 433.57 259.04 433.63 259.08 433.64 259.1 433.66 259.11 433.67 259.11 433.69 259.11 433.69 259.14 433.68 259.15 433.66 259.14 433.64 259.12 433.63 259.11 433.55 259.06 433.52 259.03 433.49 258.99 433.4 258.86 433.34 258.79 433.26 258.6 433.21 258.56 433.15 258.53 432.96 258.33 432.96 258.29 432.95 258.27 432.92 258.22 432.93 258.22 432.94 258.22 432.95 258.22 432.99 258.27 433.12 258.37 433.13 258.39 433.14 258.42 433.15 258.45 433.17 258.46 433.2 258.47 433.22 258.48 Z M 432.73 257.95 432.72 257.96 432.69 257.96 432.67 257.92 432.67 257.9 432.7 257.9 432.7 257.89 432.7 257.87 432.72 257.86 432.75 257.88 432.79 257.92 432.78 257.94 432.75 257.94 432.73 257.95 Z M 432.5 257.81 432.49 257.82 432.45 257.8 432.36 257.72 432.35 257.69 432.39 257.71 432.46 257.76 432.5 257.81 Z M 432.83 257.68 432.81 257.71 432.77 257.69 432.75 257.68 432.71 257.64 432.71 257.62 432.74 257.58 432.73 257.48 432.73 257.48 432.74 257.47 432.77 257.47 432.8 257.49 432.81 257.51 432.82 257.54 432.81 257.57 432.8 257.59 432.8 257.6 432.82 257.63 432.83 257.68 Z M 431.63 256.87 431.62 256.88 431.59 256.86 431.56 256.85 431.55 256.83 431.55 256.8 431.56 256.78 431.57 256.72 431.62 256.66 431.66 256.67 431.65 256.7 431.64 256.72 431.61 256.73 431.61 256.73 431.6 256.73 431.6 256.75 431.61 256.76 431.6 256.78 431.6 256.8 431.61 256.81 431.62 256.83 431.63 256.87 Z M 432.91 256.91 432.99 256.97 432.98 256.88 433.04 256.88 433.11 256.93 433.18 256.99 433.23 257.08 433.26 257.11 433.34 257.14 433.36 257.17 433.39 257.22 433.42 257.27 433.37 257.26 433.31 257.21 433.27 257.21 433.28 257.17 433.28 257.16 433.19 257.11 433.15 257.09 433.12 257.07 433.09 257.06 433.05 257.06 433.05 257.08 433.17 257.15 433.36 257.41 433.46 257.48 433.43 257.45 433.39 257.41 433.36 257.36 433.34 257.29 433.43 257.34 433.64 257.56 433.69 257.59 433.72 257.63 433.79 257.68 433.81 257.72 433.77 257.73 433.72 257.7 433.67 257.65 433.62 257.63 433.62 257.65 433.66 257.66 433.69 257.69 433.73 257.72 433.75 257.76 433.71 257.76 433.71 257.77 433.72 257.79 433.73 257.79 433.74 257.8 433.69 257.79 433.59 257.74 433.54 257.74 433.54 257.76 433.63 257.82 433.63 257.84 433.58 257.83 433.54 257.8 433.5 257.76 433.46 257.72 433.46 257.7 433.49 257.7 433.49 257.67 433.48 257.66 433.47 257.65 433.45 257.61 433.47 257.61 433.49 257.61 433.5 257.59 433.51 257.57 433.45 257.53 433.43 257.53 433.41 257.53 433.38 257.55 433.36 257.55 433.34 257.52 433.3 257.44 433.16 257.32 433.14 257.32 433.02 257.25 433.02 257.23 433.04 257.23 433.06 257.21 433.07 257.21 433.04 257.16 432.98 257.06 432.98 257.04 432.95 257.02 432.72 256.73 432.68 256.66 432.66 256.59 432.67 256.59 432.68 256.6 432.76 256.7 432.91 256.91 Z M 431.94 256.91 432.02 257.02 432.2 257.21 432.22 257.27 432.17 257.28 432.11 257.22 432.04 257.12 432 257.1 432 257.08 432.05 257.09 432.07 257.1 432 257.02 431.97 256.99 431.93 256.97 431.91 257.01 431.89 257.02 431.86 257.01 431.84 256.99 431.84 256.97 431.85 256.97 431.85 256.97 431.85 256.97 431.84 256.95 431.88 256.9 431.87 256.84 431.81 256.74 431.8 256.7 431.78 256.6 431.78 256.55 431.82 256.58 431.88 256.6 431.91 256.65 431.9 256.72 431.91 256.75 431.92 256.79 431.93 256.88 431.94 256.91 Z M 432.7 256.15 432.71 256.18 432.67 256.21 432.67 256.23 432.69 256.24 432.78 256.32 432.83 256.35 432.86 256.38 432.92 256.48 432.94 256.55 432.92 256.59 432.85 256.54 432.75 256.41 432.67 256.36 432.67 256.38 432.68 256.4 432.7 256.42 432.68 256.4 432.64 256.39 432.61 256.39 432.58 256.4 432.49 256.29 432.52 256.29 432.55 256.29 432.57 256.3 432.6 256.31 432.6 256.29 432.59 256.28 432.59 256.28 432.59 256.27 432.58 256.25 432.62 256.28 432.63 256.29 432.64 256.29 432.62 256.23 432.6 256.21 432.57 256.19 432.56 256.18 432.55 256.14 432.6 256.15 432.64 256.16 432.64 256.15 432.63 256.12 432.67 256.12 432.7 256.15 Z M 432.08 255.81 432.06 255.87 432.04 255.91 432.05 255.93 432.03 255.98 432.03 256.03 432.04 256.13 432.06 256.22 432.07 256.27 432.04 256.29 432.05 256.33 432.07 256.37 432.08 256.4 432.08 256.43 432.07 256.47 432.07 256.51 432.08 256.58 432.11 256.63 432.14 256.67 432.17 256.72 432.16 256.75 432.16 256.77 432.17 256.78 432.2 256.76 432.22 256.8 432.2 256.83 432.19 256.84 432.17 256.85 432.15 256.85 432.08 256.85 431.98 256.74 431.91 256.58 431.91 256.44 431.9 256.44 431.9 256.43 431.89 256.43 431.88 256.42 431.86 256.43 431.85 256.41 431.84 256.37 431.84 256.27 431.83 256.24 431.82 256.23 431.8 256.23 431.76 256.18 431.73 256 431.69 255.95 431.69 255.94 431.69 255.93 431.7 255.91 431.68 255.85 431.7 255.84 431.75 255.86 431.77 255.88 431.81 255.94 431.83 255.95 431.87 255.95 431.89 255.95 431.91 255.93 431.91 255.89 431.91 255.87 431.9 255.82 431.9 255.79 431.93 255.82 431.95 255.8 431.9 255.76 431.87 255.71 431.8 255.52 431.79 255.49 431.67 255.35 431.65 255.31 431.65 255.27 431.67 255.2 431.7 255.16 431.73 255.13 431.77 255.12 431.82 255.14 431.84 255.17 431.83 255.3 431.84 255.37 431.85 255.43 431.89 255.54 431.95 255.65 431.96 255.67 431.99 255.7 432.04 255.7 432.07 255.72 432.08 255.76 432.08 255.81 Z M 432.28 254.88 432.35 254.92 432.33 254.92 432.32 254.92 432.33 254.95 432.33 254.96 432.34 254.98 432.35 254.99 432.39 255.05 432.42 255.12 432.36 255.15 432.39 255.17 432.46 255.18 432.51 255.16 432.52 255.22 432.49 255.33 432.51 255.39 432.54 255.42 432.58 255.44 432.67 255.44 432.67 255.53 432.81 255.65 432.84 255.74 432.83 255.74 432.8 255.76 432.77 255.76 432.75 255.76 432.72 255.74 432.69 255.76 432.69 255.78 432.72 255.81 432.71 255.83 432.68 255.84 432.64 255.84 432.6 255.83 432.49 255.76 432.43 255.73 432.42 255.71 432.42 255.66 432.42 255.55 432.41 255.52 432.37 255.54 432.37 255.57 432.4 255.59 432.34 255.59 432.17 255.57 432.11 255.55 432.05 255.5 432.01 255.45 431.98 255.39 431.99 255.37 432.01 255.35 432.03 255.35 432.06 255.35 432.07 255.34 432.07 255.31 432.07 255.28 432.09 255.26 432.17 255.26 432.21 255.24 432.19 255.2 432.22 255.16 432.23 255.13 432.23 255.11 432.23 255.08 432.22 255.06 432.22 255.04 432.25 255.01 432.25 254.97 432.25 254.95 432.24 254.93 432.22 254.92 432.25 254.89 432.28 254.88 Z M 441.9 252.73 441.91 252.78 441.87 252.81 441.86 252.82 441.83 252.85 441.88 252.88 441.9 252.91 441.91 252.93 441.89 252.96 441.87 252.96 441.8 252.97 441.79 253.05 441.78 253.07 441.78 253.09 441.77 253.1 441.78 253.12 441.82 253.15 441.83 253.18 441.9 253.26 441.91 253.31 441.91 253.41 441.93 253.45 441.96 253.47 442 253.49 442.03 253.52 442.05 253.57 442.03 253.59 441.97 253.68 441.95 253.7 441.92 253.72 441.91 253.78 441.91 253.84 441.9 253.87 441.92 253.88 441.97 253.95 441.99 253.98 442.03 253.97 442.06 253.95 442.08 253.93 442.12 253.9 442.14 253.89 442.16 253.89 442.18 253.9 442.19 253.93 442.2 253.94 442.21 253.96 442.23 253.98 442.27 253.99 442.3 254 442.33 254.02 442.35 254.06 442.29 254.12 442.16 254.1 442.14 254.1 442.11 254.18 442.12 254.24 442.14 254.26 442.19 254.31 442.2 254.34 442.18 254.37 442.06 254.43 442.09 254.48 442.12 254.52 442.16 254.55 442.21 254.56 442.3 254.56 442.32 254.57 442.33 254.6 442.33 254.64 442.34 254.66 442.39 254.73 442.48 254.77 442.92 254.89 442.95 254.95 443 254.97 443.02 255.03 443.02 255.1 442.99 255.13 442.98 255.14 442.79 255.15 442.78 255.14 442.76 255.11 442.75 255.1 442.74 255.11 442.73 255.13 442.72 255.14 442.71 255.15 442.62 255.16 442.57 255.16 442.53 255.14 442.5 255.12 442.46 255.06 442.44 255.04 442.39 255.05 442.4 255.1 442.43 255.16 442.42 255.21 442.37 255.22 442.25 255.21 442.22 255.24 442.22 255.26 442.24 255.29 442.26 255.31 442.28 255.33 442.29 255.37 442.3 255.4 442.31 255.48 442.33 255.57 442.33 255.6 442.32 255.63 442.31 255.67 442.31 255.71 442.31 255.74 442.33 255.76 442.38 255.74 442.4 255.76 442.41 255.81 442.39 255.83 442.37 255.85 442.35 255.86 442.31 255.92 442.29 255.94 442.26 255.96 442.23 255.96 442.19 255.91 442.16 255.9 442.1 255.93 442.1 255.99 442.15 256.09 442.13 256.09 442.06 256.09 441.87 256.1 441.8 256.08 441.77 256.05 441.77 256.05 441.71 256.02 441.64 255.94 441.61 255.85 441.63 255.82 441.68 255.78 441.68 255.75 441.68 255.74 441.67 255.72 441.66 255.71 441.66 255.7 441.66 255.69 441.66 255.68 441.66 255.66 441.65 255.65 441.64 255.64 441.62 255.63 441.56 255.63 441.54 255.62 441.51 255.58 441.43 255.42 441.42 255.4 441.4 255.39 441.39 255.39 441.38 255.41 441.37 255.43 441.37 255.44 441.36 255.46 441.34 255.47 441.32 255.46 441.3 255.44 441.29 255.42 441.28 255.38 441.27 255.36 441.25 255.35 441.24 255.36 441.2 255.37 441.19 255.38 441.17 255.38 441.14 255.37 441.12 255.37 441.09 255.38 441.09 255.39 441.08 255.41 441.1 255.45 441.1 255.49 441.05 255.49 440.99 255.47 440.97 255.46 440.93 255.43 440.9 255.4 440.9 255.4 440.85 255.35 440.81 255.31 440.77 255.3 440.61 255.28 440.58 255.27 440.48 255.2 440.43 255.17 440.37 255.19 440.35 255.22 440.34 255.25 440.34 255.29 440.33 255.33 440.29 255.35 440.24 255.36 440.22 255.36 440.19 255.36 440.15 255.35 440.1 255.33 439.98 255.22 439.94 255.2 439.91 255.2 439.87 255.22 439.74 255.38 439.7 255.41 439.68 255.42 439.62 255.43 439.56 255.46 439.54 255.46 439.49 255.45 439.45 255.41 439.33 255.25 439.27 255.19 439.2 255.15 439.13 255.15 439.08 255.17 439 255.26 438.95 255.29 438.93 255.29 438.88 255.29 438.77 255.3 438.75 255.31 438.76 255.29 438.78 255.22 438.73 255.25 438.7 255.26 438.68 255.25 438.69 255.23 438.7 255.21 438.7 255.19 438.68 255.17 438.67 255.16 438.66 255.17 438.65 255.19 438.65 255.2 438.57 255.23 438.53 255.23 438.5 255.21 438.48 255.2 438.41 255.15 438.37 255.13 438.28 255.07 438.24 255.17 438.23 255.18 438.12 255.19 438.1 255.2 437.96 255.14 437.9 255.11 437.81 255.04 437.76 254.95 437.75 254.96 437.72 254.98 437.7 254.99 437.71 254.96 437.71 254.94 437.71 254.93 437.7 254.9 437.68 254.94 437.66 254.93 437.63 254.89 437.6 254.88 437.61 254.9 437.61 254.92 437.57 254.93 437.55 254.91 437.56 254.88 437.55 254.86 437.53 254.79 437.52 254.78 437.46 254.83 437.45 254.84 437.43 254.87 437.41 254.89 437.39 254.9 437.38 254.94 437.36 254.95 437.33 254.97 437.31 254.99 437.3 255.02 437.3 255.05 437.29 255.07 437.27 255.1 437.21 255.11 436.77 254.98 436.64 254.97 436.53 255.04 436.46 255.2 436.43 255.25 436.41 255.27 436.35 255.29 436.33 255.3 436.31 255.33 436.31 255.35 436.32 255.37 436.31 255.4 436.3 255.43 436.26 255.51 436.23 255.6 436.22 255.65 436.17 255.66 436.09 255.64 436 255.61 435.94 255.57 435.74 255.37 435.7 255.31 435.65 255.19 435.62 255.14 435.59 255.11 435.54 255.1 435.52 255.09 435.52 255.08 435.53 255.05 435.53 255.02 435.51 255 435.49 254.98 435.46 254.98 435.41 254.99 435.2 254.99 435.08 255.01 435.03 255.05 435.01 255.07 434.98 255.14 434.98 255.16 434.99 255.35 434.98 255.4 434.93 255.53 434.92 255.59 434.95 255.69 434.94 255.74 434.89 255.84 434.88 255.87 434.87 255.89 434.88 255.97 434.91 256.03 434.94 256.09 434.96 256.15 434.95 256.2 434.92 256.22 434.87 256.24 434.84 256.28 434.84 256.33 434.86 256.39 434.92 256.48 434.93 256.49 434.99 256.53 435 256.56 435.02 256.59 435.04 256.61 435.07 256.61 435.09 256.6 435.13 256.6 435.15 256.59 435.16 256.57 435.18 256.54 435.19 256.52 435.22 256.53 435.24 256.54 435.24 256.57 435.25 256.6 435.26 256.63 435.27 256.65 435.29 256.64 435.31 256.63 435.33 256.63 435.35 256.67 435.37 256.75 435.4 256.79 435.42 256.8 435.45 256.81 435.5 256.82 435.53 256.83 435.55 256.86 435.56 256.9 435.57 256.94 435.56 256.95 435.54 256.96 435.53 257 435.5 257.04 435.48 257.09 435.53 257.14 435.57 257.15 435.65 257.11 435.7 257.12 435.72 257.15 435.74 257.21 435.75 257.27 435.81 257.42 435.82 257.48 435.82 257.53 435.81 257.55 435.79 257.56 435.77 257.58 435.77 257.6 435.78 257.59 435.81 257.59 435.85 257.6 435.89 257.63 435.92 257.65 435.92 257.68 435.92 257.69 435.92 257.74 435.91 257.76 435.89 257.81 435.88 257.85 435.88 257.89 435.9 257.99 435.95 258.12 435.98 258.17 436.08 258.28 436.11 258.33 436.16 258.45 436.19 258.51 436.23 258.55 436.26 258.57 436.28 258.58 436.3 258.59 436.36 258.58 436.38 258.59 436.41 258.64 436.42 258.68 436.44 258.72 436.54 258.75 436.58 258.78 436.61 258.82 436.64 258.86 436.7 258.95 436.81 259.07 436.88 259.17 436.97 259.25 436.99 259.29 437 259.35 437.01 259.41 437.05 259.46 437.29 259.66 437.64 260.02 437.75 260.14 437.82 260.21 437.87 260.25 438 260.32 438.21 260.36 438.28 260.4 438.32 260.48 438.28 260.74 438.33 260.89 438.41 261.02 438.5 261.1 438.55 261.13 438.57 261.15 438.59 261.18 438.6 261.25 438.63 261.3 438.66 261.35 438.68 261.36 438.99 261.56 439.01 261.59 439.08 261.67 439.14 261.83 439.14 261.83 439.14 261.83 439.14 261.83 439.15 261.91 439.09 261.96 438.97 261.98 438.97 261.98 438.9 261.94 438.87 261.95 438.83 261.93 438.79 261.89 438.77 261.86 438.74 261.8 438.73 261.77 438.75 261.74 438.8 261.71 438.77 261.7 438.73 261.71 438.69 261.74 438.64 261.75 438.66 261.75 438.7 261.71 438.68 261.71 438.66 261.71 438.64 261.7 438.63 261.67 438.64 261.65 438.63 261.62 438.63 261.61 438.58 261.65 438.51 261.58 438.38 261.42 438.07 261.26 437.99 261.19 437.95 261.17 437.94 261.16 437.92 261.12 437.91 261.11 437.88 261.09 437.86 261.09 437.85 261.08 437.83 261.07 437.81 261.03 437.8 261.02 437.8 260.98 437.79 260.96 437.78 260.96 437.76 260.95 437.75 260.95 437.54 260.67 437.48 260.63 437.45 260.61 437.44 260.59 437.42 260.58 437.13 260.54 437 260.48 436.85 260.45 436.65 260.3 436.65 260.29 436.65 260.28 436.64 260.26 436.63 260.26 436.62 260.26 436.6 260.27 436.58 260.28 436.5 260.26 436.33 260.26 436.33 260.24 436.38 260.24 436.43 260.22 436.48 260.2 436.52 260.17 436.48 260.15 436.43 260.14 436.21 260.13 436.19 260.14 436.15 260.17 436.13 260.17 436.09 260.18 436 260.21 435.73 260.22 435.73 260.24 435.8 260.26 435.83 260.28 435.85 260.32 435.71 260.32 435.72 260.35 435.69 260.35 435.61 260.32 435.55 260.32 435.53 260.31 435.5 260.28 435.48 260.28 435.48 260.3 435.46 260.28 435.41 260.28 435.39 260.26 435.39 260.26 435.39 260.27 435.39 260.28 435.38 260.28 435.38 260.24 435.39 260.24 435.41 260.24 435.43 260.23 435.44 260.21 435.43 260.19 435.43 260.18 435.44 260.15 435.4 260.16 435.39 260.16 435.38 260.17 435.37 260.14 435.35 260.13 435.3 260.11 435.34 260.11 435.34 260.09 435.32 260.07 435.28 260.07 435.28 260.05 435.3 260.04 435.31 260.03 435.32 260.03 435.29 260.01 435.28 260.01 435.3 259.99 435.28 259.97 435.3 259.94 435.29 259.9 435.31 259.88 435.39 259.88 435.39 259.86 435.29 259.84 435.26 259.84 435.28 259.82 435.3 259.82 435.32 259.83 435.34 259.84 435.36 259.83 435.36 259.81 435.34 259.79 435.32 259.78 435.35 259.77 435.36 259.74 435.36 259.72 435.33 259.69 435.33 259.75 435.31 259.75 435.26 259.71 435.23 259.68 435.21 259.68 435.19 259.68 435.18 259.67 435.17 259.66 435.14 259.61 435.12 259.59 435.03 259.54 435.01 259.51 434.96 259.5 434.82 259.49 434.79 259.45 434.76 259.38 434.71 259.36 434.65 259.34 434.62 259.3 434.68 259.33 434.72 259.34 434.75 259.34 434.75 259.32 434.74 259.31 434.73 259.31 434.73 259.31 434.73 259.32 434.67 259.26 434.52 259.19 434.46 259.14 434.46 259.14 434.41 259.07 434.39 259.03 434.35 259.02 434.32 259.02 434.3 259.01 434.28 259 434.26 258.98 434.25 258.96 434.24 258.94 434.22 258.92 434.1 258.77 434.04 258.68 434 258.64 433.96 258.62 433.87 258.51 433.87 258.5 433.77 258.39 433.74 258.38 433.72 258.36 433.71 258.34 433.72 258.31 433.69 258.28 433.57 258.16 433.61 258.11 433.59 258.04 433.54 257.98 433.49 257.95 433.52 257.92 433.56 257.89 433.6 257.9 433.62 257.96 433.64 257.99 433.69 257.97 433.71 257.92 433.66 257.88 433.68 257.88 433.68 257.87 433.68 257.87 433.69 257.88 433.71 257.88 433.7 257.85 433.69 257.83 433.8 257.91 433.85 257.97 433.87 257.99 433.9 257.99 433.87 257.88 433.89 257.88 433.9 257.87 433.91 257.86 433.92 257.84 433.89 257.83 433.87 257.81 433.85 257.78 433.83 257.74 433.87 257.75 433.93 257.81 434 257.83 434.16 257.92 434.19 257.94 434.37 257.96 434.41 257.96 434.42 257.93 434.39 257.91 434.25 257.88 434.23 257.87 434.17 257.79 434.15 257.78 433.93 257.67 433.9 257.64 433.59 257.32 433.49 257.18 433.43 257.11 433.37 257.08 433.36 257.06 433.28 257.01 433.27 257 433.25 256.98 433.03 256.63 432.99 256.53 433.02 256.49 433.01 256.44 433 256.39 432.99 256.32 432.99 256.15 432.99 256.1 433.04 255.9 433.06 255.85 433.08 255.79 433.06 255.72 432.93 255.43 432.92 255.37 432.9 255.34 432.87 255.31 432.73 255.24 432.49 255.05 432.38 254.9 432.35 254.88 432.31 254.85 432.29 254.8 432.32 254.77 432.3 254.75 432.22 254.69 432.26 254.73 432.26 254.74 432.26 254.76 432.24 254.78 432.21 254.78 432.2 254.76 432.17 254.73 431.93 254.61 431.84 254.59 431.8 254.56 431.76 254.56 431.72 254.59 431.68 254.66 431.64 254.76 431.61 254.87 431.58 255.08 431.55 255.18 431.55 255.19 431.55 255.2 431.5 255.27 431.43 255.25 431.47 255.29 431.46 255.34 431.43 255.38 431.4 255.42 431.38 255.39 431.38 255.42 431.37 255.44 431.38 255.5 431.38 255.49 431.36 255.49 431.35 255.48 431.35 255.5 431.39 255.54 431.4 255.61 431.4 255.68 431.37 255.74 431.34 255.76 431.33 255.75 431.31 255.74 431.28 255.74 431.26 255.75 431.23 255.77 431.21 255.8 431.2 255.82 431.19 255.82 431.19 255.76 431.21 255.74 431.22 255.71 431.2 255.65 431.15 255.61 431.15 255.58 431.15 255.56 431.15 255.55 431.12 255.54 431.13 255.58 431.12 255.64 431.13 255.66 431.15 255.68 431.18 255.68 431.19 255.69 431.2 255.72 431.18 255.74 431.15 255.8 431.13 255.82 431.12 255.8 431.11 255.8 431.12 255.82 431.12 255.85 431.12 255.88 431.11 255.91 431.09 255.9 431.08 255.9 431.08 255.91 431.1 255.93 431.1 255.95 431.08 255.95 431.08 255.96 431.08 255.96 431.08 255.97 431.06 255.96 431.01 255.98 430.97 255.97 430.99 255.99 431 256 431.02 256.04 431 256.04 431 256.06 431.02 256.06 431.02 256.08 431 256.09 430.99 256.1 430.97 256.14 430.98 256.17 430.98 256.17 430.98 256.18 430.97 256.21 431 256.21 431.01 256.21 431.02 256.23 431.03 256.25 430.95 256.25 430.91 256.25 430.88 256.23 430.88 256.24 430.88 256.24 430.87 256.25 430.85 256.2 430.83 256.19 430.81 256.2 430.79 256.19 430.77 256.21 430.8 256.22 430.82 256.24 430.83 256.26 430.82 256.29 430.84 256.34 430.85 256.36 430.82 256.38 430.81 256.35 430.81 256.3 430.81 256.25 430.79 256.24 430.72 256.21 430.7 256.21 430.7 256.2 430.71 256.17 430.71 256.16 430.71 256.16 430.69 256.16 430.68 256.16 430.7 256.14 430.68 256.12 430.66 256.13 430.62 256.11 430.59 256.09 430.56 256.06 430.58 256.04 430.6 256.07 430.63 256.08 430.66 256.06 430.68 256.02 430.62 256.03 430.6 256.02 430.58 255.99 430.58 255.97 430.59 255.97 430.6 255.95 430.61 255.93 430.58 255.9 430.53 255.78 430.44 255.68 430.33 255.52 430.31 255.51 430.28 255.47 430.24 255.45 430.2 255.44 430.21 255.42 430.22 255.39 430.23 255.37 430.17 255.3 430.23 255.26 430.43 255.25 430.38 255.23 430.33 255.22 430.23 255.22 430.17 255.24 430.15 255.24 430.14 255.21 430.14 255.18 430.15 255.15 430.15 255.13 430.12 255.12 430.13 255.1 430.13 255.08 430.13 255.07 430.11 255.05 430.11 255.03 430.13 255.02 430.13 255 430.13 254.98 430.12 254.94 430.14 254.91 430.14 254.88 430.12 254.85 430.09 254.84 430.1 254.82 430.11 254.8 430.13 254.79 430.15 254.79 430.15 254.77 430.13 254.76 430.11 254.75 430.1 254.73 430.09 254.71 430.12 254.7 430.13 254.69 430.17 254.66 430.14 254.65 430.08 254.65 430.06 254.64 430.04 254.62 430.02 254.58 430.01 254.55 430.05 254.54 430.05 254.52 430.02 254.49 429.95 254.3 429.96 254.29 429.97 254.29 429.97 254.28 429.96 254.26 429.96 254.26 429.96 254.26 429.97 254.23 429.94 254.15 429.93 254.1 429.94 254.06 429.95 254.06 429.98 254.08 430.08 254.13 430.12 254.13 430.21 254.23 430.28 254.22 430.5 254.21 430.6 254.28 430.63 254.31 430.67 254.32 430.79 254.34 430.81 254.32 430.83 254.29 430.86 254.26 430.97 254.21 430.99 254.18 430.95 254.12 430.95 254.09 430.96 254.06 430.97 254.05 431.01 254.06 431.06 254.07 431.1 254.09 431.13 254.12 431.13 254.12 431.18 254.16 431.24 254.18 431.29 254.18 431.29 254.18 431.3 254.18 431.36 254.17 431.46 254.12 431.52 254.11 431.57 254.12 431.65 254.16 431.76 254.18 431.86 254.17 431.94 254.12 431.99 254.08 432.07 254.02 432.1 253.96 432.11 253.92 432.12 253.85 432.12 253.83 432.14 253.79 432.16 253.76 432.22 253.7 432.24 253.67 432.27 253.6 432.28 253.58 432.29 253.58 432.32 253.57 432.35 253.58 432.35 253.63 432.35 253.69 432.35 253.73 432.37 253.77 432.4 253.8 432.47 253.86 432.49 253.87 432.5 253.88 432.51 253.88 432.52 253.89 432.52 253.92 432.51 253.97 432.52 253.99 432.56 254.03 432.76 254.12 432.77 254.12 432.77 254.12 432.77 254.12 432.8 254.21 432.89 254.23 432.99 254.19 433.03 254.12 433.04 254.05 433.08 254.05 433.13 254.08 433.17 254.12 433.2 254.12 433.22 254.13 433.24 254.14 433.27 254.16 433.37 254.16 433.4 254.18 433.56 254.32 433.66 254.33 433.75 254.3 433.87 254.25 433.95 254.25 433.97 254.25 433.99 254.23 434.03 254.17 434.05 254.15 433.94 254.08 433.91 254.03 433.89 253.96 433.88 253.88 433.88 253.87 433.86 253.84 433.85 253.8 433.85 253.78 433.87 253.76 433.89 253.75 433.9 253.72 433.91 253.7 433.97 253.68 434 253.67 434.03 253.66 434.08 253.66 434.07 253.63 434.03 253.57 434.03 253.56 433.99 253.52 433.98 253.52 433.98 253.52 433.95 253.53 433.94 253.54 433.94 253.55 433.93 253.55 433.9 253.54 433.88 253.53 433.87 253.51 433.84 253.47 433.82 253.45 433.81 253.44 433.8 253.43 433.8 253.42 433.82 253.39 433.83 253.37 433.92 253.32 433.98 253.3 434.2 253.23 434.2 253.23 434.23 253.21 434.22 253.18 434.22 253.14 434.23 253.11 434.25 253.1 434.28 253.11 434.3 253.11 434.33 253.12 434.35 253.11 434.39 253.08 434.41 253.07 434.47 253.08 434.55 253.09 434.64 253.09 434.68 253.07 434.73 253.05 434.75 253.02 434.75 252.97 434.72 252.91 434.71 252.87 434.72 252.83 434.74 252.79 434.75 252.75 434.75 252.7 434.75 252.6 434.74 252.54 434.74 252.54 434.76 252.47 434.79 252.43 434.8 252.4 434.79 252.38 434.77 252.35 434.74 252.33 434.68 252.31 434.65 252.29 434.63 252.27 434.59 252.23 434.56 252.15 434.56 252.07 434.59 251.98 434.63 251.9 434.64 251.89 434.67 251.85 434.72 251.83 434.75 251.83 434.91 251.84 434.95 251.82 435 251.74 435.02 251.72 435.03 251.72 435.06 251.7 435.1 251.69 435.2 251.69 435.2 251.69 435.21 251.69 435.29 251.65 435.35 251.61 435.43 251.6 435.45 251.59 435.46 251.59 435.51 251.56 435.55 251.53 435.58 251.51 435.58 251.5 435.6 251.46 435.6 251.41 435.59 251.37 435.6 251.31 435.66 251.33 435.68 251.33 435.7 251.32 435.72 251.31 435.74 251.28 435.76 251.26 435.79 251.26 435.81 251.27 435.86 251.32 435.89 251.34 435.93 251.34 435.95 251.34 436.03 251.32 436.08 251.32 436.09 251.32 436.09 251.31 436.08 251.28 436.07 251.26 436.04 251.24 436.02 251.22 436.02 251.2 436.02 251.14 436.02 251.12 435.99 251.03 435.98 250.99 435.99 250.97 435.99 250.94 436.05 250.87 436.05 250.87 436.12 250.84 436.16 250.82 436.2 250.8 436.22 250.78 436.23 250.77 436.25 250.79 436.25 250.79 436.26 250.77 436.29 250.79 436.31 250.79 436.34 250.79 436.37 250.79 436.39 250.8 436.42 250.84 436.44 250.86 436.46 250.86 436.51 250.85 436.53 250.86 436.56 250.87 436.61 250.91 436.62 250.92 436.72 250.98 436.75 251.01 436.76 251.01 436.77 250.98 436.78 250.97 436.8 250.98 436.82 250.99 436.88 251 436.93 251.03 436.97 251.08 437 251.14 437.05 251.2 437.11 251.24 437.14 251.3 437.16 251.3 437.17 251.25 437.19 251.26 437.25 251.28 437.26 251.28 437.27 251.29 437.28 251.3 437.29 251.31 437.3 251.32 437.31 251.31 437.31 251.3 437.32 251.3 437.35 251.33 437.37 251.35 437.39 251.37 437.41 251.42 437.4 251.47 437.42 251.52 437.44 251.58 437.45 251.6 437.47 251.62 437.55 251.71 437.61 251.82 437.63 251.84 437.75 251.94 437.76 251.96 437.77 252 437.8 252.03 437.91 252.11 437.94 252.12 438.12 252.13 438.15 252.14 438.23 252.26 438.25 252.29 438.27 252.39 438.28 252.42 438.29 252.48 438.33 252.49 438.37 252.5 438.39 252.52 438.37 252.53 438.34 252.54 438.33 252.54 438.33 252.56 438.36 252.58 438.36 252.58 438.39 252.6 438.41 252.6 438.43 252.56 438.45 252.62 438.44 252.65 438.45 252.66 438.49 252.65 438.55 252.63 438.57 252.64 438.58 252.69 438.6 252.69 438.6 252.68 438.61 252.66 438.63 252.65 438.82 252.66 438.91 252.68 438.99 252.72 439.1 252.83 439.11 252.86 439.12 252.88 439.13 252.93 439.13 252.97 439.13 252.98 439.14 253.01 439.16 253.02 439.21 253.02 439.48 253.1 439.54 253.15 439.59 253.23 439.59 253.24 439.61 253.23 439.62 253.21 439.64 253.19 439.66 253.17 439.69 253.17 439.85 253.17 440.08 253.24 440.1 253.24 440.13 253.23 440.17 253.2 440.19 253.2 440.37 253.2 440.41 253.21 440.48 253.26 440.53 253.26 440.57 253.3 440.6 253.32 440.64 253.3 440.68 253.28 440.71 253.28 440.75 253.33 440.75 253.33 440.77 253.33 440.78 253.34 440.8 253.33 440.81 253.33 440.85 253.3 440.93 253.2 440.97 253.18 441.02 253.2 441.08 253.18 441.17 253.1 441.2 253.06 441.25 252.97 441.28 252.93 441.28 252.93 441.29 252.91 441.29 252.87 441.3 252.86 441.35 252.81 441.39 252.8 441.5 252.84 441.59 252.88 441.62 252.89 441.64 252.87 441.65 252.85 441.66 252.82 441.68 252.79 441.71 252.82 441.72 252.82 441.74 252.81 441.77 252.79 441.82 252.78 441.84 252.76 441.87 252.74 441.9 252.73 Z" fill-rule="evenodd" id="Croatia" transform="translate(-429.92999267578125,-250.77000427246094) "/></svg>