<svg xmlns="http://www.w3.org/2000/svg" viewBox="0 0 23.970001220703125 8.149993896484375"><path d="M 226.25 320.68 226.29 320.7 226.29 320.66 226.31 320.66 226.34 320.67 226.36 320.7 226.38 320.75 226.37 320.78 226.35 320.79 226.31 320.76 226.28 320.74 226.25 320.73 226.22 320.72 226.19 320.65 226.15 320.63 226.07 320.59 226.1 320.56 226.14 320.57 226.17 320.59 226.2 320.62 226.23 320.66 226.25 320.68 Z M 225.82 320.46 225.82 320.48 225.8 320.49 225.78 320.49 225.77 320.49 225.76 320.47 225.74 320.47 225.74 320.46 225.75 320.45 225.76 320.46 225.81 320.47 225.81 320.46 225.81 320.45 225.81 320.45 225.82 320.46 Z M 225.7 320.47 225.67 320.47 225.65 320.46 225.65 320.44 225.66 320.44 225.67 320.44 225.7 320.45 225.7 320.47 Z M 226.04 320.29 226.04 320.3 226.07 320.28 226.09 320.28 226.13 320.3 226.1 320.33 226 320.35 225.97 320.38 225.93 320.36 225.89 320.35 225.92 320.33 226 320.31 226.03 320.28 226.04 320.29 226.04 320.29 Z M 225.44 320.3 225.4 320.33 225.34 320.31 225.29 320.27 225.27 320.23 225.31 320.22 225.36 320.24 225.44 320.3 Z M 232.67 320.24 232.68 320.27 232.64 320.27 232.57 320.25 232.53 320.24 232.49 320.22 232.47 320.19 232.47 320.15 232.58 320.13 232.6 320.14 232.62 320.15 232.66 320.21 232.67 320.24 Z M 225.05 320.07 225.05 320.1 225.16 320.1 225.2 320.12 225.22 320.19 225.21 320.19 225.17 320.16 225.01 320.14 224.96 320.09 224.99 320.05 225.01 320.03 225.03 320.03 225.04 320.05 225.05 320.07 Z M 224.92 320.02 224.91 320.03 224.9 320.01 224.89 320.01 224.84 319.99 224.73 319.92 224.71 319.89 224.73 319.89 224.78 319.89 224.81 319.9 224.83 319.92 224.85 319.93 224.91 319.93 224.95 319.95 224.94 319.98 224.92 320.02 Z M 224.48 319.63 224.58 319.69 224.66 319.78 224.72 319.84 224.71 319.84 224.67 319.84 224.68 319.86 224.69 319.89 224.63 319.86 224.59 319.82 224.51 319.73 224.51 319.72 224.55 319.73 224.58 319.76 224.6 319.79 224.63 319.81 224.6 319.77 224.55 319.71 224.5 319.66 224.45 319.65 224.45 319.67 224.45 319.68 224.46 319.68 224.46 319.69 224.46 319.7 224.44 319.69 224.42 319.68 224.4 319.66 224.39 319.64 224.48 319.63 Z M 224.15 319.38 224.23 319.47 224.2 319.49 224.16 319.49 224.13 319.48 224.1 319.46 224.11 319.46 224.16 319.46 224.15 319.43 224.13 319.41 224.11 319.41 224.1 319.42 224.04 319.38 224.02 319.36 224.09 319.35 224.15 319.38 Z M 218.04 318.31 217.99 318.31 217.98 318.3 218.01 318.29 218.05 318.26 218.08 318.25 218.1 318.24 218.11 318.22 218.13 318.21 218.19 318.18 218.22 318.18 218.24 318.17 218.26 318.15 218.27 318.13 218.27 318.12 218.28 318.12 218.29 318.14 218.29 318.18 218.26 318.21 218.17 318.24 218.1 318.28 218.09 318.28 218.08 318.29 218.07 318.3 218.04 318.31 Z M 218.52 318.14 218.45 318.19 218.41 318.2 218.38 318.16 218.38 318.13 218.38 318.14 218.41 318.16 218.44 318.16 218.47 318.13 218.48 318.12 218.47 318.12 218.48 318.11 218.55 318.09 218.56 318.08 218.59 318.07 218.59 318.09 218.56 318.11 218.52 318.14 Z M 219.52 318.07 219.35 318.19 219.28 318.22 219.21 318.22 219.21 318.18 219.23 318.17 219.29 318.18 219.31 318.16 219.33 318.12 219.36 318.1 219.38 318.1 219.41 318.12 219.44 318.11 219.47 318.09 219.48 318.07 219.49 318.03 219.53 318 219.59 317.96 219.61 317.95 219.63 317.96 219.63 317.97 219.62 317.98 219.62 317.99 219.52 318.07 Z M 216.33 317.44 216.51 317.48 216.63 317.52 216.67 317.54 216.7 317.56 216.72 317.6 216.71 317.64 216.7 317.67 216.7 317.7 216.73 317.74 216.83 317.82 216.86 317.82 216.88 317.83 216.9 317.86 216.91 317.89 216.92 317.91 216.92 317.93 216.91 317.95 216.88 318 216.87 318 216.88 318.02 216.88 318.04 216.88 318.06 216.87 318.08 216.92 318.11 216.94 318.12 216.97 318.13 216.97 318.15 216.96 318.17 216.98 318.2 217.01 318.23 217.03 318.24 217.01 318.28 216.97 318.33 216.92 318.37 216.88 318.39 216.83 318.4 216.55 318.54 216.38 318.6 216.22 318.62 216.2 318.61 216.18 318.58 216.03 318.58 216.01 318.58 215.97 318.56 215.94 318.55 215.86 318.55 215.84 318.54 215.77 318.45 215.74 318.42 215.68 318.38 215.66 318.35 215.64 318.31 215.62 318.24 215.6 318.18 215.59 318.16 215.61 318.16 215.63 318.18 215.74 318.27 215.76 318.3 215.79 318.33 215.83 318.35 215.87 318.35 215.96 318.35 215.97 318.34 216.03 318.29 216.07 318.27 216.08 318.25 216.09 318.23 216.1 318.24 216.11 318.25 216.11 318.27 216.09 318.31 216.11 318.32 216.15 318.25 216.14 318.22 216.07 318.21 216.04 318.18 215.85 317.85 215.83 317.76 215.85 317.66 215.94 317.58 215.96 317.55 215.98 317.53 216.02 317.49 216.07 317.47 216.11 317.46 216.08 317.45 216.06 317.44 216.03 317.44 216.01 317.43 216.01 317.43 216.02 317.42 216.04 317.41 216.33 317.44 Z M 216.9 317.47 216.84 317.47 216.78 317.44 216.75 317.4 216.8 317.39 216.89 317.43 216.92 317.46 216.9 317.47 Z M 214.76 317.36 214.79 317.37 214.8 317.37 214.81 317.37 214.8 317.38 214.75 317.38 214.7 317.38 214.67 317.36 214.69 317.35 214.76 317.36 Z M 219.23 317.14 219.24 317.18 219.22 317.18 219.2 317.16 219.17 317.17 219.16 317.16 219.15 317.15 219.14 317.13 219.14 317.11 219.16 317.1 219.18 317.11 219.21 317.12 219.22 317.13 219.23 317.14 Z M 227.35 317.1 227.38 317.1 227.41 317.09 227.43 317.07 227.46 317.05 227.49 317.04 227.52 317.05 227.55 317.06 227.58 317.07 227.58 317.08 227.61 317.11 227.62 317.12 227.63 317.11 227.67 317.09 227.68 317.09 227.71 317.1 227.78 317.14 227.8 317.15 227.83 317.14 227.85 317.12 227.87 317.12 227.91 317.15 227.93 317.18 227.93 317.21 227.93 317.24 227.88 317.35 227.89 317.37 227.91 317.41 227.88 317.41 227.85 317.42 227.8 317.46 227.81 317.42 227.8 317.4 227.78 317.41 227.76 317.44 227.76 317.45 227.77 317.47 227.78 317.48 227.76 317.49 227.75 317.49 227.74 317.48 227.73 317.47 227.7 317.43 227.69 317.41 227.68 317.38 227.65 317.36 227.62 317.38 227.57 317.37 227.52 317.35 227.49 317.32 227.49 317.3 227.5 317.28 227.51 317.25 227.52 317.23 227.51 317.21 227.48 317.2 227.44 317.18 227.45 317.21 227.45 317.23 227.45 317.25 227.44 317.27 227.42 317.22 227.41 317.22 227.39 317.25 227.35 317.26 227.32 317.25 227.3 317.21 227.28 317.18 227.25 317.15 227.22 317.11 227.23 317.05 227.21 317.04 227.25 317.04 227.29 317.06 227.31 317.08 227.35 317.1 Z M 227.64 316.86 227.58 316.86 227.53 316.8 227.44 316.66 227.46 316.63 227.43 316.6 227.39 316.57 227.36 316.55 227.42 316.54 227.47 316.58 227.5 316.64 227.53 316.74 227.57 316.78 227.61 316.82 227.64 316.86 Z M 227.13 316.72 227.15 316.73 227.2 316.72 227.23 316.73 227.24 316.75 227.25 316.77 227.27 316.79 227.3 316.8 227.27 316.78 227.28 316.76 227.29 316.75 227.3 316.74 227.32 316.73 227.33 316.76 227.36 316.77 227.38 316.77 227.39 316.74 227.41 316.78 227.39 316.8 227.35 316.81 227.32 316.83 227.34 316.83 227.36 316.85 227.38 316.86 227.39 316.87 227.42 316.88 227.46 316.89 227.49 316.91 227.44 317.01 227.4 317.05 227.38 317.02 227.37 317.03 227.34 317.03 227.33 317.04 227.33 317.02 227.32 317.01 227.3 316.99 227.29 316.94 227.25 316.93 227.21 316.94 227.23 317 227.2 316.99 227.12 316.95 227.11 316.93 227.09 316.9 227.02 316.85 227 316.81 227.03 316.8 227.06 316.77 227.08 316.73 227.09 316.69 227.09 316.6 227.08 316.57 227.06 316.53 227.09 316.54 227.13 316.55 227.16 316.57 227.17 316.61 227.15 316.63 227.13 316.65 227.11 316.68 227.13 316.72 Z M 226.66 316.24 226.68 316.27 226.72 316.25 226.78 316.26 226.84 316.3 226.88 316.34 226.9 316.37 226.92 316.4 226.93 316.44 226.94 316.52 226.95 316.54 227 316.6 227.02 316.6 227.05 316.61 227.08 316.61 227.04 316.65 226.99 316.64 226.88 316.56 226.83 316.56 226.78 316.56 226.72 316.54 226.66 316.5 226.71 316.47 226.69 316.43 226.65 316.41 226.62 316.43 226.62 316.45 226.61 316.47 226.59 316.49 226.57 316.48 226.56 316.46 226.56 316.43 226.57 316.41 226.59 316.42 226.59 316.38 226.55 316.33 226.5 316.31 226.45 316.34 226.44 316.33 226.43 316.32 226.42 316.32 226.41 316.32 226.44 316.28 226.48 316.27 226.56 316.27 226.63 316.24 226.66 316.24 Z M 225.48 315.99 225.47 316.02 225.46 316.03 225.42 316.05 225.4 316.05 225.4 316.03 225.4 315.99 225.41 315.99 225.44 316 225.46 315.99 225.46 315.98 225.47 315.97 225.49 315.98 225.48 315.99 Z M 226.32 315.99 226.35 316.02 226.34 316.02 226.32 316.01 226.33 316.04 226.47 316.19 226.48 316.21 226.48 316.24 226.46 316.24 226.44 316.23 226.42 316.22 226.15 316.29 226.15 316.27 226.15 316.26 226.16 316.26 226.16 316.25 226.16 316.23 226.17 316.22 226.18 316.22 226.2 316.23 226.21 316.22 226.21 316.2 226.2 316.18 226.18 316.17 226.16 316.18 226.11 316.2 226.05 316.21 225.95 316.21 225.9 316.19 225.84 316.15 225.75 316.13 225.68 316.11 225.65 316.09 225.68 316.06 225.64 316.02 225.6 316.06 225.56 316.07 225.56 315.99 225.56 316 225.59 316.01 225.59 315.96 225.61 315.96 225.64 315.97 225.65 315.97 225.68 315.97 225.78 315.99 225.83 316.02 225.89 316.02 225.96 316.02 226.01 316.02 226.07 316.02 226.1 315.99 226.13 315.96 226.17 315.94 226.22 315.95 226.27 315.96 226.32 315.99 Z M 217.08 315.94 217.07 315.95 217.06 315.94 217.07 315.79 217.06 315.77 217.06 315.76 217.07 315.76 217.08 315.77 217.09 315.78 217.09 315.79 217.1 315.82 217.11 315.88 217.09 315.92 217.08 315.94 Z M 224.43 315.8 224.41 315.8 224.41 315.78 224.4 315.77 224.39 315.76 224.41 315.75 224.49 315.75 224.46 315.77 224.43 315.8 Z M 224.97 315.74 224.92 315.76 224.91 315.73 224.87 315.72 224.74 315.71 224.72 315.7 224.69 315.68 224.73 315.68 224.94 315.69 224.97 315.71 224.97 315.74 Z M 223.62 315.37 223.74 315.5 223.78 315.54 223.89 315.57 223.97 315.64 224.06 315.67 224.1 315.72 224.14 315.77 224.16 315.81 224.11 315.77 224.09 315.76 224.07 315.76 224.05 315.75 224.02 315.73 223.99 315.7 223.91 315.62 223.87 315.63 223.83 315.63 223.8 315.61 223.74 315.57 223.73 315.57 223.72 315.56 223.72 315.53 223.71 315.52 223.68 315.49 223.66 315.49 223.65 315.47 223.64 315.44 223.62 315.4 223.57 315.39 223.51 315.42 223.48 315.42 223.48 315.37 223.54 315.35 223.58 315.35 223.62 315.37 Z M 223.38 315.23 223.41 315.25 223.42 315.27 223.4 315.29 223.36 315.3 223.35 315.28 223.35 315.26 223.34 315.26 223.33 315.25 223.32 315.25 223.31 315.25 223.26 315.22 223.24 315.2 223.25 315.17 223.27 315.16 223.27 315.15 223.27 315.13 223.28 315.12 223.3 315.15 223.29 315.19 223.31 315.19 223.35 315.2 223.36 315.22 223.38 315.23 Z M 222.86 314.98 222.9 315 222.92 314.99 222.92 315.03 222.89 315.05 222.84 315.02 222.82 315.03 222.8 315.06 222.78 315.07 222.76 315.01 222.79 314.99 222.83 314.98 222.86 314.98 Z M 223.03 315.11 223.01 315.11 222.98 315.1 222.97 315.08 222.97 315.06 222.99 315.05 222.99 315.04 222.97 315.03 222.95 315.02 222.97 314.99 223.02 314.97 223.05 314.98 223.07 315.01 223.07 315.02 223.06 315.04 223.03 315.04 223.02 315.06 223.03 315.07 223.05 315.08 223.05 315.09 223.03 315.11 Z M 222.11 314.93 222.13 314.94 222.14 314.95 222.15 314.97 222.15 315 221.93 314.96 221.9 314.93 221.91 314.92 221.92 314.91 221.94 314.92 221.96 314.93 222.06 314.88 222.11 314.87 222.15 314.9 222.14 314.9 222.12 314.92 222.11 314.93 Z M 222.52 314.76 222.53 314.78 222.54 314.8 222.55 314.83 222.54 314.83 222.53 314.82 222.52 314.81 222.51 314.81 222.5 314.81 222.48 314.81 222.46 314.8 222.46 314.78 222.46 314.78 222.46 314.78 222.47 314.77 222.47 314.74 222.5 314.73 222.52 314.76 Z M 222.35 314.72 222.31 314.74 222.26 314.73 222.17 314.68 222.17 314.66 222.18 314.64 222.2 314.62 222.21 314.6 222.23 314.6 222.24 314.63 222.27 314.66 222.3 314.68 222.33 314.68 222.36 314.69 222.38 314.69 222.37 314.7 222.35 314.72 Z M 222.12 314.69 222.11 314.7 222.1 314.68 222.09 314.67 222.08 314.65 222.06 314.64 222.03 314.63 222.02 314.62 222.01 314.61 222.01 314.6 222 314.6 221.99 314.58 222.01 314.56 222.03 314.56 222.04 314.56 222.06 314.56 222.06 314.58 222.08 314.59 222.11 314.62 222.12 314.64 222.13 314.65 222.14 314.66 222.14 314.68 222.12 314.69 Z M 221.83 314.54 221.81 314.55 221.79 314.55 221.74 314.55 221.72 314.57 221.68 314.59 221.65 314.59 221.65 314.59 221.64 314.57 221.65 314.57 221.67 314.57 221.67 314.55 221.68 314.54 221.71 314.53 221.73 314.53 221.78 314.53 221.8 314.53 221.83 314.53 221.83 314.54 Z M 220.8 314.47 220.83 314.5 220.83 314.47 220.85 314.47 220.87 314.5 220.88 314.52 220.88 314.53 220.86 314.55 220.83 314.57 220.8 314.57 220.78 314.56 220.75 314.55 220.68 314.56 220.62 314.58 220.51 314.63 220.54 314.61 220.67 314.52 220.71 314.51 220.75 314.51 220.8 314.52 220.79 314.51 220.78 314.48 220.77 314.47 220.79 314.45 220.8 314.47 Z M 221.5 314.44 221.52 314.44 221.58 314.44 221.59 314.43 221.6 314.43 221.62 314.43 221.62 314.45 221.62 314.46 221.61 314.47 221.59 314.48 221.57 314.5 221.55 314.49 221.51 314.47 221.46 314.46 221.43 314.47 221.42 314.46 221.41 314.45 221.38 314.47 221.39 314.44 221.4 314.42 221.43 314.41 221.46 314.4 221.47 314.41 221.49 314.43 221.5 314.44 Z M 221.2 314.42 221.19 314.43 221.18 314.43 221.17 314.43 221.17 314.45 221.16 314.45 221.13 314.45 221.12 314.46 221.11 314.47 221.11 314.47 221.1 314.44 221.13 314.41 221.16 314.39 221.18 314.39 221.19 314.4 221.2 314.42 Z M 233.54 322.24 233.54 322.07 233.45 322.07 233.45 322.06 233.46 322.05 233.5 322.02 233.52 322.02 233.55 321.97 233.56 321.94 233.55 321.92 233.55 321.86 233.5 321.87 233.48 321.9 233.46 321.92 233.45 321.95 233.43 321.94 233.41 321.93 233.37 321.94 233.36 321.97 233.36 321.99 233.36 322.02 233.38 322.02 233.39 322.02 233.4 322.02 233.41 322.01 233.41 322 233.41 322.01 233.42 322.04 233.4 322.05 233.39 322.07 233.35 322.07 233.24 322.15 233.23 322.24 233.12 322.26 232.9 322.28 232.88 322.27 232.8 322.26 232.78 322.25 232.76 322.24 232.76 322.25 232.74 322.27 232.73 322.28 232.67 322.29 232.6 322.28 232.53 322.27 232.48 322.24 232.41 322.25 232.32 322.21 232.23 322.14 232.15 322.1 232.1 322.1 231.94 322.1 231.9 322.1 231.81 322.07 231.77 322.07 231.68 322.08 231.64 322.09 231.61 322.11 231.58 322.11 231.29 322.04 231.09 322.02 230.98 322.02 230.81 322.07 230.72 322.08 230.56 322.08 230.51 322.09 230.42 322.12 230.37 322.13 230.09 322.12 229.8 322.14 229.76 322.16 229.71 322.16 229.66 322.15 229.61 322.15 229.58 322.16 229.51 322.22 229.46 322.24 229.41 322.26 229.12 322.27 229.07 322.26 228.95 322.22 228.9 322.21 228.87 322.23 228.85 322.23 228.84 322.21 228.81 322.21 228.79 322.22 228.78 322.24 228.72 322.23 228.66 322.22 228.6 322.24 228.56 322.28 228.62 322.28 228.62 322.29 228.58 322.3 228.52 322.32 228.48 322.33 228.27 322.33 228.13 322.37 228.05 322.37 227.96 322.37 227.82 322.4 227.78 322.41 227.75 322.4 227.72 322.39 227.7 322.37 227.68 322.34 227.69 322.3 227.73 322.22 227.73 322.2 227.75 322.19 227.77 322.19 227.79 322.18 227.8 322.17 227.82 322.14 227.84 322.13 227.83 322.11 227.84 322.09 227.88 322.05 227.93 321.98 227.93 321.97 227.94 321.95 228.05 321.86 228.04 321.84 228.01 321.81 228.02 321.79 228.04 321.8 228.1 321.81 228.12 321.79 228.16 321.78 228.17 321.77 228.18 321.76 228.22 321.7 228.25 321.67 228.35 321.62 228.39 321.57 228.43 321.54 228.65 321.43 228.69 321.43 228.73 321.41 228.76 321.32 228.79 321.3 228.8 321.3 228.81 321.29 228.82 321.3 228.81 321.32 228.82 321.34 228.85 321.34 228.88 321.33 228.91 321.31 228.94 321.28 228.95 321.25 228.96 321.21 228.97 321.19 229.07 321.14 229.07 321.02 229.09 321.01 229.1 320.99 229.13 320.91 229.07 320.8 229.04 320.78 228.98 320.74 228.9 320.71 228.88 320.71 228.9 320.73 228.88 320.75 228.84 320.72 228.81 320.7 228.78 320.68 228.78 320.63 228.78 320.61 228.8 320.6 228.82 320.6 228.84 320.59 228.88 320.52 228.88 320.51 228.8 320.46 228.76 320.45 228.74 320.49 228.7 320.45 228.66 320.39 228.62 320.34 228.56 320.31 228.49 320.32 228.42 320.34 228.36 320.36 228.34 320.39 228.32 320.38 228.3 320.38 228.29 320.39 228.28 320.39 228.25 320.4 228.24 320.41 228.22 320.41 228.2 320.41 228.16 320.4 228.05 320.36 227.96 320.41 227.94 320.41 227.91 320.39 227.89 320.38 227.88 320.37 227.81 320.38 227.79 320.38 227.75 320.36 227.74 320.35 227.73 320.36 227.7 320.36 227.59 320.36 227.55 320.34 227.49 320.3 227.45 320.29 227.37 320.28 227.32 320.29 227.29 320.32 227.26 320.35 227.23 320.36 227.08 320.37 227.01 320.35 226.98 320.3 226.97 320.3 226.95 320.33 226.88 320.24 226.86 320.23 226.81 320.22 226.78 320.2 226.74 320.12 226.72 320.09 226.68 320.06 226.63 320.03 226.6 320.03 226.57 320.04 226.57 320.03 226.56 320.01 226.56 319.99 226.53 319.96 226.52 319.94 226.51 319.92 226.5 319.88 226.34 319.77 226.31 319.76 226.23 319.77 226.2 319.75 226.18 319.71 226.15 319.65 226.12 319.62 226.04 319.56 226.02 319.56 226 319.54 225.99 319.46 225.98 319.3 225.96 319.24 225.93 319.17 225.91 319.1 225.92 319.04 225.94 319.06 225.97 319.06 225.99 319.05 226 319.01 225.98 318.99 225.91 318.96 225.89 318.95 225.89 318.91 225.87 318.83 225.86 318.78 225.85 318.74 225.81 318.67 225.8 318.64 225.79 318.56 225.75 318.48 225.71 318.42 225.66 318.37 225.63 318.35 225.59 318.33 225.47 318.32 225.45 318.31 225.44 318.29 225.45 318.26 225.47 318.27 225.5 318.28 225.56 318.27 225.57 318.26 225.56 318.24 225.53 318.2 225.52 318.19 225.5 318.17 225.45 318.15 225.42 318.14 225.4 318.14 225.39 318.15 225.36 318.16 225.26 318.18 225.15 318.19 225.14 318.2 225.13 318.21 225.12 318.22 225.12 318.23 225.11 318.24 225.09 318.24 225.02 318.24 225 318.23 224.97 318.23 224.95 318.24 224.93 318.22 224.9 318.25 224.85 318.26 224.76 318.26 224.72 318.26 224.6 318.32 224.51 318.35 224.42 318.35 224.33 318.35 224.15 318.29 224.12 318.27 224.08 318.23 224.04 318.23 223.93 318.24 223.89 318.24 223.84 318.23 223.82 318.21 223.79 318.19 223.76 318.14 223.74 318.12 223.73 318.14 223.73 318.16 223.71 318.18 223.69 318.18 223.66 318.17 223.64 318.15 223.63 318.14 223.54 318.12 223.52 318.11 223.51 318.1 223.49 318.07 223.48 318.05 223.47 318.02 223.44 318.01 223.28 318.01 223.13 317.97 223.08 317.97 223.05 318.01 223.04 318.05 223 318.04 222.95 318.02 222.9 318 222.9 317.98 222.94 317.96 222.94 317.95 222.91 317.94 222.9 317.92 222.9 317.88 222.9 317.85 222.86 317.88 222.82 317.89 222.78 317.89 222.73 317.88 222.68 317.87 222.66 317.86 222.64 317.87 222.63 317.88 222.65 317.9 222.67 317.91 222.69 317.92 222.66 317.95 222.62 317.93 222.58 317.88 222.56 317.84 222.56 317.79 222.54 317.75 222.52 317.72 222.48 317.71 222.43 317.7 222.34 317.66 222.25 317.64 222.18 317.59 222.07 317.55 222 317.49 221.76 317.23 221.75 317.22 221.75 317.21 221.75 317.2 221.74 317.18 221.73 317.18 221.71 317.19 221.7 317.18 221.67 317.16 221.67 317.15 221.67 317.12 221.7 317.13 221.74 317.12 221.78 317.11 221.8 317.09 221.77 317.1 221.76 317.1 221.77 317.08 221.78 317.06 221.79 317.04 221.79 317.02 221.77 317.02 221.74 317.02 221.72 317.02 221.73 316.99 221.68 316.99 221.65 316.97 221.65 316.94 221.68 316.91 221.63 316.87 221.61 316.85 221.59 316.83 221.58 316.85 221.55 316.86 221.52 316.85 221.49 316.84 221.47 316.89 221.49 316.92 221.56 316.97 221.59 317.02 221.62 317.07 221.64 317.13 221.62 317.18 221.53 317.15 221.25 317.16 220.98 317.14 220.66 317.17 220.47 317.15 220.42 317.14 220.34 317.1 220.25 317.08 220.22 317.05 220.2 317.02 220.14 316.9 220.13 316.87 220.13 316.84 220.15 316.74 220.14 316.73 220.08 316.64 220.05 316.62 220.02 316.61 220 316.62 219.98 316.65 219.98 316.68 220.01 316.78 220.01 317.07 220 317.14 219.95 317.14 219.98 317.08 219.97 317.01 219.94 316.94 219.92 316.92 219.86 316.95 219.84 316.96 219.84 316.98 219.84 317.02 219.83 317.04 219.8 317.05 219.79 317.04 219.77 317.03 219.75 317.02 219.74 317.03 219.73 317.05 219.73 317.06 219.7 317.07 219.62 317.04 219.57 316.88 219.49 316.84 219.38 316.84 219.36 316.83 219.31 316.8 219.29 316.8 219.27 316.8 219.24 316.83 219.21 316.84 219.21 316.84 219.2 316.85 219.2 316.86 219.18 316.86 219.18 316.85 219.17 316.83 219.16 316.83 219.07 316.8 219.06 316.79 219.03 316.78 219.01 316.78 218.99 316.8 218.97 316.81 218.92 316.81 218.87 316.81 218.84 316.8 218.83 316.8 218.82 316.82 218.81 316.83 218.77 316.83 218.77 316.84 218.78 316.84 218.78 316.86 218.76 316.86 218.65 316.85 218.62 316.83 218.57 316.77 218.55 316.74 218.54 316.7 218.5 316.66 218.19 316.54 218.15 316.52 218.12 316.49 218.1 316.48 218.06 316.48 218.04 316.47 218.03 316.46 218 316.41 218 316.4 217.97 316.4 217.93 316.4 217.89 316.38 217.87 316.34 217.88 316.3 217.91 316.28 217.94 316.26 217.97 316.26 218.23 316.26 218.31 316.24 218.37 316.25 218.44 316.25 218.48 316.24 218.54 316.25 218.59 316.26 218.7 316.24 218.79 316.2 218.81 316.21 218.84 316.19 218.88 316.19 218.9 316.19 218.93 316.18 218.96 316.15 218.98 316.13 219.01 316.12 219 316.07 219.01 316.05 219.01 316.01 219.03 315.94 219.02 315.92 218.99 315.91 218.96 315.91 218.9 315.86 218.86 315.82 218.78 315.76 218.7 315.73 218.5 315.66 218.43 315.67 218.25 315.68 218.01 315.72 217.94 315.69 217.79 315.65 217.62 315.65 217.53 315.66 217.48 315.67 217.44 315.66 217.37 315.64 217.22 315.66 217.1 315.63 217.08 315.64 217.03 315.66 217.01 315.67 216.91 315.64 216.83 315.66 216.6 315.6 216.55 315.6 216.5 315.62 216.48 315.66 216.47 315.71 216.47 315.76 216.46 315.8 216.43 315.82 216.35 315.85 216.22 315.96 216.19 315.98 216.14 315.98 216.11 315.99 215.96 316.07 215.89 316.12 215.83 316.18 215.7 316.42 215.65 316.48 215.57 316.48 215.5 316.46 215.47 316.46 215.44 316.47 215.44 316.47 215.44 316.51 215.44 316.52 215.43 316.52 215.42 316.51 215.4 316.52 215.39 316.52 215.38 316.52 215.38 316.52 215.38 316.56 215.38 316.56 215.3 316.62 215.27 316.65 215.26 316.67 215.26 316.68 215.26 316.69 215.26 316.7 215.24 316.73 215.23 316.75 215.21 316.76 215.2 316.75 215.2 316.75 215.2 316.77 215.18 316.79 215.17 316.77 215.15 316.76 215.13 316.76 215.13 316.8 215.1 316.84 214.99 316.85 214.87 316.84 214.77 316.8 214.79 316.78 214.79 316.75 214.77 316.72 214.76 316.7 214.74 316.7 214.71 316.76 214.65 316.82 214.59 316.86 214.53 316.87 214.53 316.87 214.54 316.85 214.54 316.84 214.3 316.88 214.29 316.87 214.28 316.87 214.27 316.85 214.27 316.83 214.27 316.83 214.25 316.83 214.22 316.87 214.19 316.87 214.01 316.87 213.97 316.87 213.87 316.96 213.87 316.98 213.85 317.05 213.84 317.07 213.86 317.09 213.86 317.1 213.86 317.14 213.84 317.12 213.81 317.12 213.8 317.15 213.8 317.18 213.82 317.22 213.84 317.23 213.86 317.22 213.89 317.2 213.88 317.25 213.8 317.31 213.78 317.36 213.79 317.37 213.81 317.38 213.82 317.4 213.81 317.42 213.78 317.44 213.76 317.46 213.73 317.47 213.71 317.48 213.67 317.47 213.58 317.42 213.53 317.41 213.48 317.42 213.4 317.48 213.36 317.49 213.34 317.5 213.29 317.49 213.27 317.49 213.24 317.5 213.19 317.54 213.12 317.56 212.86 317.78 212.77 317.83 212.67 317.84 212.64 317.79 212.73 317.6 212.75 317.51 212.7 317.44 212.61 317.42 212.51 317.44 212.34 317.49 212.25 317.53 212.03 317.68 211.94 317.7 211.84 317.7 211.75 317.67 211.72 317.65 211.7 317.61 211.7 317.58 211.7 317.54 211.71 317.52 211.72 317.5 211.74 317.49 211.75 317.48 211.76 317.49 211.77 317.5 211.77 317.51 211.78 317.52 211.8 317.54 211.82 317.54 211.83 317.55 211.85 317.54 211.89 317.53 211.92 317.5 211.92 317.47 211.88 317.44 211.92 317.42 211.95 317.42 211.98 317.45 211.98 317.49 212.16 317.4 212.32 317.35 212.51 317.26 212.63 317.18 212.64 317.17 212.67 317.17 212.7 317.17 212.71 317.18 212.7 317.2 212.77 317.23 212.83 317.22 212.88 317.19 212.94 317.17 212.97 317.18 213.01 317.2 213.04 317.23 213.06 317.26 213.07 317.27 213.13 317.23 213.16 317.23 213.19 317.1 213.17 317.13 213.14 317.17 213.12 317.2 213.09 317.17 213.07 317.12 213.08 317.09 213.07 317.06 213.02 317.04 213.04 316.99 213.06 316.97 213.01 316.97 212.97 316.95 212.93 316.93 212.9 316.91 212.88 316.87 212.87 316.83 212.85 316.8 212.81 316.8 212.83 316.77 212.86 316.74 212.88 316.69 212.89 316.65 212.89 316.6 212.9 316.55 212.93 316.44 212.94 316.44 212.97 316.38 212.98 316.37 213.01 316.37 213.02 316.36 213.03 316.35 213.04 316.32 213.04 316.3 213.09 316.24 213.12 316.2 213.16 316.17 213.16 316.16 213.11 316.16 213.15 316.13 213.25 316.11 213.29 316.08 213.32 316.05 213.34 315.99 213.35 315.94 213.33 315.91 213.33 315.89 213.35 315.9 213.37 315.91 213.41 315.89 213.44 315.88 213.46 315.9 213.48 315.93 213.5 315.84 213.51 315.81 213.53 315.81 213.59 315.8 213.6 315.79 213.6 315.77 213.61 315.72 213.63 315.7 213.65 315.71 213.68 315.73 213.71 315.71 213.73 315.69 213.75 315.67 213.74 315.64 213.71 315.62 213.68 315.62 213.65 315.62 213.66 315.6 213.67 315.58 213.69 315.57 213.71 315.57 213.75 315.58 213.77 315.61 213.78 315.64 213.81 315.65 213.84 315.65 213.86 315.63 214 315.54 214.03 315.57 214.05 315.52 214.08 315.49 214.18 315.49 214.22 315.48 214.37 315.4 214.44 315.37 214.48 315.37 214.51 315.38 214.53 315.39 214.56 315.39 214.57 315.38 214.6 315.36 214.62 315.36 214.62 315.34 214.6 315.35 214.59 315.36 214.59 315.35 214.59 315.34 214.58 315.34 214.57 315.34 214.62 315.31 214.67 315.29 214.78 315.29 214.79 315.28 214.82 315.2 214.83 315.19 214.92 315.19 214.92 315.21 214.91 315.22 214.91 315.22 214.95 315.23 214.98 315.21 214.99 315.17 215.01 315.14 215.05 315.13 215.07 315.14 215.1 315.16 215.14 315.18 215.12 315.2 215.14 315.19 215.18 315.17 215.2 315.15 215.21 315.11 215.24 315.06 215.29 315.02 215.33 315 215.36 314.99 215.47 314.91 215.52 314.89 215.56 314.89 215.59 314.9 215.62 314.93 215.62 314.95 215.6 314.96 215.59 314.99 215.6 315.02 215.61 315.05 215.64 315.07 215.66 315.05 215.68 315.03 215.7 315.01 215.66 314.98 215.66 314.95 215.69 314.92 215.74 314.9 215.84 314.88 215.85 314.87 215.88 314.85 215.89 314.85 215.92 314.85 215.95 314.87 215.97 314.88 215.98 314.87 216 314.86 216.01 314.85 216.03 314.86 216.05 314.89 216.03 314.9 216.01 314.9 216 314.91 216.01 314.94 216.02 314.95 216.04 314.94 216.06 314.91 216.06 314.96 216.1 314.96 216.14 314.93 216.14 314.93 216.17 314.87 216.2 314.82 216.27 314.82 216.35 314.83 216.4 314.82 216.45 314.81 216.65 314.81 216.86 314.79 216.91 314.77 216.96 314.77 217.05 314.71 217.1 314.7 217.12 314.69 217.14 314.66 217.15 314.65 217.18 314.65 217.2 314.64 217.23 314.62 217.3 314.57 217.33 314.55 217.42 314.53 217.52 314.49 217.68 314.46 217.75 314.43 217.9 314.47 217.95 314.46 218.01 314.45 218.04 314.44 218.09 314.44 218.11 314.43 218.14 314.42 218.16 314.42 218.18 314.43 218.26 314.49 218.33 314.51 218.47 314.52 218.54 314.54 218.59 314.52 218.93 314.52 218.99 314.52 219.03 314.52 219.06 314.5 219.08 314.52 219.11 314.52 219.13 314.52 219.16 314.52 219.18 314.53 219.22 314.56 219.26 314.59 219.27 314.64 219.26 314.69 219.25 314.73 219.24 314.75 219.23 314.76 219.23 314.77 219.25 314.78 219.28 314.79 219.3 314.78 219.34 314.77 219.34 314.75 219.36 314.7 219.37 314.67 219.38 314.66 219.4 314.65 219.42 314.65 219.61 314.62 219.63 314.61 219.66 314.58 219.71 314.57 219.82 314.55 219.85 314.54 219.93 314.5 219.98 314.46 220.08 314.4 220.12 314.39 220.16 314.41 220.13 314.43 220.07 314.46 219.97 314.48 219.85 314.56 219.82 314.59 219.82 314.6 219.91 314.63 220.04 314.77 220.12 314.81 220.16 314.82 220.18 314.8 220.2 314.78 220.23 314.74 220.24 314.72 220.27 314.66 220.28 314.65 220.3 314.65 220.35 314.64 220.36 314.63 220.45 314.65 220.47 314.65 220.48 314.64 220.48 314.65 220.48 314.69 220.5 314.74 220.54 314.76 220.59 314.75 220.64 314.73 220.98 314.67 221.04 314.66 221.14 314.69 221.2 314.68 221.24 314.66 221.28 314.63 221.3 314.58 221.26 314.54 221.28 314.52 221.31 314.52 221.34 314.52 221.36 314.54 221.36 314.55 221.35 314.57 221.29 314.68 221.35 314.73 221.35 314.74 221.43 314.88 221.48 314.91 221.51 314.92 221.6 314.93 221.64 314.95 221.66 314.96 221.68 314.99 221.71 315.02 221.75 315.03 221.88 315.03 221.9 315.04 221.94 315.07 221.97 315.09 222.01 315.1 222.05 315.11 222.12 315.11 222.19 315.1 222.32 315.04 222.3 314.99 222.34 314.99 222.46 315.05 222.51 315.06 222.56 315.05 222.56 315 222.59 315.01 222.61 315.03 222.63 315.05 222.64 315.07 222.69 315.16 222.69 315.18 222.78 315.22 222.79 315.23 222.83 315.22 222.84 315.23 222.85 315.24 222.85 315.25 222.85 315.26 222.9 315.24 222.97 315.18 223.11 315.14 223.13 315.14 223.13 315.16 223.1 315.18 223.06 315.21 223.01 315.18 222.99 315.2 222.96 315.29 222.98 315.33 223 315.34 223.02 315.36 223.04 315.36 223.13 315.37 223.17 315.38 223.3 315.48 223.31 315.49 223.32 315.5 223.33 315.5 223.34 315.5 223.36 315.49 223.37 315.47 223.37 315.47 223.42 315.46 223.44 315.48 223.49 315.72 223.49 315.72 223.53 315.73 223.55 315.74 223.58 315.76 223.6 315.79 223.63 315.83 223.66 315.9 223.68 315.94 223.74 316 223.75 316.01 223.78 316.02 223.85 316.02 223.87 316.02 223.93 316.12 223.94 316.14 223.96 316.16 224.13 316.3 224.19 316.33 224.25 316.32 224.27 316.34 224.31 316.37 224.35 316.39 224.37 316.36 224.4 316.36 224.51 316.38 224.55 316.38 224.58 316.37 224.58 316.35 224.59 316.34 224.62 316.34 224.64 316.34 224.67 316.37 224.7 316.37 224.75 316.36 224.83 316.33 224.87 316.32 224.92 316.32 225.04 316.33 225.26 316.36 225.37 316.35 225.38 316.38 225.42 316.52 225.43 316.51 225.45 316.5 225.47 316.53 225.49 316.51 225.53 316.44 225.5 316.4 225.48 316.38 225.46 316.37 225.46 316.35 225.53 316.36 225.6 316.43 225.84 316.52 225.87 316.54 225.89 316.57 225.94 316.61 225.99 316.64 226.03 316.66 226.08 316.68 226.21 316.7 226.25 316.7 226.25 316.71 226.26 316.75 226.25 316.76 226.28 316.75 226.29 316.74 226.3 316.77 226.32 316.81 226.34 316.83 226.36 316.85 226.4 316.87 226.41 316.88 226.43 316.89 226.45 316.89 226.48 316.89 226.5 316.89 226.57 316.92 226.61 316.93 226.72 316.94 226.74 316.95 226.74 316.97 226.74 317 226.76 317.02 226.77 317.03 226.83 317.03 226.82 317.03 226.82 317.04 226.84 317.06 226.87 317.07 226.9 317.08 226.92 317.09 226.92 317.09 226.96 317.08 226.98 317.1 227.01 317.16 227.05 317.2 227.06 317.22 227.08 317.26 227.12 317.33 227.13 317.35 227.16 317.36 227.19 317.38 227.29 317.49 227.3 317.51 227.33 317.57 227.35 317.59 227.37 317.59 227.39 317.56 227.4 317.39 227.41 317.36 227.43 317.35 227.49 317.36 227.53 317.36 227.51 317.39 227.44 317.4 227.42 317.42 227.43 317.46 227.44 317.5 227.45 317.52 227.47 317.54 227.49 317.57 227.51 317.58 227.57 317.58 227.59 317.59 227.61 317.63 227.62 317.67 227.62 317.7 227.63 317.73 227.65 317.75 227.68 317.76 227.74 317.78 227.76 317.78 227.79 317.77 227.81 317.78 227.82 317.79 227.84 317.8 227.98 317.78 228.02 317.79 228.05 317.8 228.15 317.87 228.15 317.83 228.17 317.82 228.23 317.8 228.23 317.83 228.25 317.84 228.27 317.84 228.29 317.84 228.29 317.83 228.28 317.81 228.28 317.8 228.31 317.81 228.34 317.84 228.38 317.88 228.35 317.89 228.33 317.88 228.31 317.87 228.31 317.92 228.31 317.96 228.34 318.03 228.35 318.07 228.36 318.1 228.39 318.1 228.46 318.11 228.51 318.14 228.53 318.15 228.55 318.14 228.56 318.13 228.56 318.12 228.57 318.11 228.57 318.1 228.56 318.07 228.54 318.04 228.48 318.02 228.45 317.99 228.43 317.92 228.41 317.86 228.4 317.84 228.39 317.84 228.35 317.82 228.34 317.81 228.33 317.79 228.32 317.75 228.3 317.74 228.26 317.76 228.23 317.72 228.2 317.75 228.17 317.73 228.11 317.66 228.02 317.58 228 317.55 227.99 317.54 227.95 317.56 227.97 317.52 228.01 317.47 228.05 317.45 228.08 317.45 228.16 317.52 228.17 317.54 228.18 317.6 228.19 317.61 228.43 317.78 228.47 317.8 228.59 317.84 228.62 317.86 228.65 317.89 228.72 317.95 228.75 317.96 228.88 318.06 228.92 318.08 228.95 318.09 228.98 318.09 229.02 318.08 229 318.12 229.01 318.15 229.04 318.17 229.05 318.19 229.04 318.24 228.99 318.3 228.97 318.34 228.95 318.33 228.92 318.28 228.91 318.27 228.76 318.21 228.73 318.2 228.69 318.19 228.69 318.2 228.68 318.21 228.67 318.21 228.67 318.22 228.67 318.23 228.65 318.22 228.64 318.21 228.62 318.21 228.6 318.18 228.58 318.18 228.53 318.18 228.51 318.2 228.52 318.23 228.54 318.24 228.57 318.25 228.59 318.26 228.6 318.28 228.62 318.29 228.65 318.3 228.71 318.29 228.75 318.31 228.76 318.35 228.75 318.39 228.71 318.41 228.7 318.42 228.72 318.47 228.73 318.51 228.74 318.52 228.77 318.53 228.82 318.52 228.85 318.53 228.84 318.57 228.86 318.56 228.91 318.53 228.92 318.53 228.94 318.52 228.96 318.52 228.98 318.48 229 318.35 229.06 318.25 229.08 318.22 229.12 318.22 229.16 318.24 229.4 318.53 229.43 318.57 229.44 318.57 229.47 318.59 229.55 318.63 229.67 318.66 229.7 318.68 229.69 318.71 229.73 318.71 229.72 318.76 229.7 318.78 229.68 318.79 229.6 318.8 229.57 318.81 229.54 318.83 229.54 318.87 229.57 318.92 229.68 318.86 229.67 318.92 229.69 318.91 229.7 318.88 229.71 318.86 229.72 318.83 229.7 318.83 229.73 318.78 229.74 318.76 229.75 318.73 229.88 318.78 229.9 318.77 229.91 318.76 229.92 318.77 229.96 318.79 230.02 318.81 230.04 318.81 230.08 318.82 230.11 318.86 230.12 318.89 230.11 318.91 230.07 318.91 229.95 318.97 229.95 318.94 229.93 318.91 229.91 318.91 229.92 318.94 229.9 318.98 229.93 318.99 229.98 319 230.01 319.01 230.05 319.04 230.09 319.06 230.13 319.06 230.17 319.07 230.17 319.05 230.13 319.04 230.11 319.03 230.1 319 230.08 318.97 230.08 318.96 230.13 318.94 230.17 318.94 230.22 318.95 230.27 318.98 230.3 319.02 230.31 319.02 230.31 318.97 230.33 318.97 230.32 319.07 230.29 319.1 230.17 319.1 230.17 319.12 230.22 319.12 230.2 319.13 230.19 319.13 230.21 319.16 230.23 319.16 230.25 319.15 230.28 319.15 230.3 319.17 230.32 319.21 230.34 319.21 230.35 319.21 230.37 319.2 230.38 319.18 230.39 319.17 230.39 319.17 230.41 319.17 230.42 319.17 230.43 319.17 230.5 319.13 230.52 319.12 230.49 319.11 230.42 319.1 230.39 319.09 230.36 319.05 230.35 319.02 230.37 318.98 230.41 318.97 230.67 318.98 230.73 319 230.76 319.02 230.83 319.05 230.84 319.06 230.89 319.1 230.92 319.12 231.16 319.21 231.23 319.26 231.24 319.31 231.25 319.33 231.24 319.38 231.25 319.41 231.27 319.43 231.29 319.43 231.31 319.41 231.35 319.39 231.37 319.38 231.4 319.39 231.43 319.41 231.44 319.42 231.45 319.44 231.45 319.47 231.46 319.47 231.47 319.46 231.48 319.45 231.48 319.44 231.5 319.48 231.52 319.48 231.53 319.47 231.53 319.42 231.55 319.43 231.6 319.43 231.63 319.42 231.65 319.41 231.68 319.38 231.7 319.38 231.73 319.38 231.76 319.38 231.78 319.4 231.8 319.44 231.81 319.44 231.83 319.43 231.81 319.41 231.93 319.33 231.94 319.33 231.97 319.35 231.98 319.35 231.99 319.37 232.01 319.37 232.05 319.36 232.13 319.36 232.19 319.37 232.23 319.41 232.25 319.49 232.34 319.47 232.39 319.5 232.47 319.62 232.42 319.72 232.41 319.73 232.38 319.75 232.38 319.77 232.37 319.78 232.37 319.82 232.36 319.83 232.34 319.86 232.31 319.89 232.28 319.91 232.24 319.91 232.23 319.89 232.22 319.85 232.21 319.83 232.18 319.84 232.16 319.83 232.15 319.83 232.13 319.84 232.12 319.84 232.14 319.85 232.15 319.85 232.16 319.86 232.16 319.88 232.1 319.88 232.1 319.91 232.13 319.95 232.15 319.99 232.16 319.99 232.19 319.95 232.25 319.94 232.31 319.93 232.36 319.94 232.45 319.99 232.47 320 232.47 320.03 232.48 320.06 232.5 320.07 232.53 320.07 232.51 320.13 232.48 320.13 232.44 320.1 232.41 320.09 232.4 320.08 232.39 320.07 232.39 320.05 232.38 320.04 232.36 320.02 232.35 320.02 232.23 320.04 232.19 320.05 232.04 320.04 232.05 320.06 232.05 320.09 232.03 320.15 232.03 320.17 232.03 320.2 232.02 320.22 232.01 320.25 232.03 320.27 232.06 320.32 232.14 320.37 232.18 320.38 232.19 320.35 232.22 320.3 232.32 320.21 232.35 320.17 232.38 320.2 232.4 320.23 232.41 320.27 232.39 320.31 232.45 320.31 232.47 320.31 232.46 320.34 232.46 320.36 232.48 320.38 232.53 320.39 232.52 320.34 232.65 320.37 232.68 320.33 232.69 320.33 232.71 320.34 232.72 320.36 232.74 320.37 232.76 320.38 232.77 320.33 232.74 320.32 232.72 320.31 232.69 320.31 232.72 320.28 232.78 320.26 232.83 320.26 232.88 320.27 232.92 320.28 232.96 320.31 232.98 320.34 232.92 320.35 232.94 320.38 232.95 320.41 232.97 320.41 232.97 320.4 232.98 320.38 233 320.43 233.06 320.44 233.18 320.43 233.14 320.4 233.06 320.36 233.02 320.35 233.04 320.32 233.1 320.3 233.16 320.3 233.2 320.31 233.18 320.3 233.22 320.3 233.32 320.32 233.35 320.34 233.35 320.35 233.32 320.36 233.32 320.38 233.38 320.39 233.38 320.39 233.38 320.39 233.39 320.38 233.39 320.38 233.42 320.4 233.46 320.39 233.49 320.39 233.51 320.44 233.52 320.43 233.53 320.41 233.53 320.39 233.55 320.41 233.57 320.42 233.59 320.42 233.61 320.41 233.58 320.38 233.75 320.36 233.8 320.37 233.82 320.38 233.84 320.39 233.86 320.4 233.87 320.42 233.88 320.43 233.92 320.43 233.97 320.43 234.01 320.45 234.04 320.48 234.08 320.51 234.26 320.53 234.3 320.55 234.34 320.57 234.31 320.58 234.3 320.59 234.34 320.64 234.34 320.67 234.34 320.68 234.35 320.68 234.37 320.68 234.38 320.7 234.39 320.71 234.47 320.73 234.48 320.76 234.52 320.8 234.63 320.86 234.64 320.88 234.67 320.93 234.74 321.03 234.75 321.04 234.76 321.05 234.87 321.17 234.89 321.18 234.92 321.18 234.97 321.2 235.03 321.23 235.08 321.28 235.1 321.33 235.11 321.33 235.14 321.3 235.19 321.3 235.24 321.31 235.28 321.31 235.32 321.3 235.35 321.27 235.4 321.25 235.44 321.25 235.47 321.26 235.49 321.27 235.54 321.31 235.61 321.36 235.64 321.39 235.66 321.43 235.67 321.48 235.67 321.52 235.65 321.57 235.61 321.6 235.56 321.62 235.53 321.65 235.48 321.68 235.47 321.68 235.46 321.7 235.44 321.78 235.37 321.84 235.29 321.84 235.2 321.82 235.1 321.81 234.96 321.84 234.86 321.85 234.68 321.89 234.6 321.87 234.53 321.9 234.39 321.88 234.22 321.91 234.16 321.91 234.11 321.94 234.07 321.97 234.04 322.01 234 322.04 233.95 322.05 233.9 322.05 233.87 322.06 233.85 322.08 233.84 322.13 233.8 322.18 233.73 322.21 233.65 322.22 233.64 322.19 233.62 322.18 233.61 322.19 233.6 322.2 233.6 322.22 233.55 322.24 233.54 322.24 Z M 221.09 314.42 221.09 314.43 221.09 314.44 221.08 314.45 221.06 314.44 221.04 314.44 221.03 314.45 221.02 314.46 220.98 314.44 220.95 314.43 220.94 314.42 220.9 314.43 220.87 314.43 220.81 314.4 220.79 314.4 220.77 314.38 220.76 314.37 220.77 314.36 220.81 314.36 220.87 314.39 220.95 314.4 221.09 314.42 Z M 220.64 314.26 220.7 314.3 220.72 314.3 220.73 314.3 220.74 314.32 220.72 314.34 220.69 314.34 220.67 314.33 220.64 314.33 220.62 314.32 220.61 314.3 220.6 314.29 220.58 314.28 220.59 314.27 220.64 314.26 Z" fill-rule="evenodd" id="Cuba" transform="translate(-211.6999969482422,-314.260009765625) "/></svg>