<svg xmlns="http://www.w3.org/2000/svg" viewBox="0 0 4.04998779296875 1.510009765625"><path d="M 474.87 284.59 474.87 284.61 474.88 284.61 474.89 284.61 474.9 284.61 474.91 284.62 474.91 284.62 474.9 284.63 474.89 284.63 474.88 284.63 474.88 284.63 474.88 284.63 474.88 284.62 474.87 284.62 474.86 284.62 474.86 284.61 474.85 284.6 474.83 284.59 474.84 284.59 474.85 284.59 474.87 284.59 Z M 474.81 284.56 474.8 284.56 474.79 284.56 474.79 284.55 474.79 284.54 474.79 284.53 474.8 284.52 474.82 284.53 474.82 284.55 474.81 284.56 Z M 475.42 284.41 475.42 284.41 475.45 284.44 475.48 284.48 475.5 284.55 475.53 284.6 475.56 284.64 475.59 284.66 475.56 284.66 475.5 284.65 475.44 284.64 475.42 284.61 475.39 284.6 475.27 284.61 475.17 284.64 475.14 284.66 475.13 284.68 475.07 284.66 475.02 284.67 475.01 284.66 475.04 284.64 475.05 284.63 475.05 284.59 475.01 284.58 474.99 284.56 474.99 284.5 474.97 284.48 474.92 284.46 474.93 284.43 474.95 284.41 474.98 284.4 475 284.41 475.01 284.43 475.05 284.42 475.07 284.4 475.09 284.38 475.1 284.37 475.14 284.4 475.17 284.41 475.19 284.42 475.21 284.43 475.24 284.43 475.28 284.41 475.32 284.41 475.34 284.42 475.37 284.44 475.39 284.43 475.41 284.42 475.42 284.41 Z M 474.71 284.6 474.71 284.64 474.66 284.66 474.6 284.71 474.58 284.75 474.57 284.79 474.56 284.84 474.55 284.89 474.56 284.94 474.55 284.96 474.53 284.97 474.52 284.98 474.5 285.03 474.49 285.04 474.46 285.05 474.38 285.05 474.36 285.06 474.34 285.08 474.31 285.11 474.29 285.14 474.26 285.15 474.19 285.17 474.12 285.2 474.07 285.21 474.04 285.17 474.03 285.25 473.97 285.29 473.81 285.32 473.77 285.34 473.75 285.35 473.73 285.37 473.69 285.38 473.53 285.36 473.38 285.38 473.34 285.38 473.31 285.41 473.21 285.5 473.18 285.55 473.13 285.55 473.08 285.55 473.07 285.57 473.05 285.56 473.05 285.52 473.07 285.5 473.08 285.52 473.13 285.52 473.12 285.44 473.05 285.43 473.02 285.46 473.01 285.48 472.99 285.47 472.97 285.46 472.96 285.48 472.89 285.46 472.85 285.43 472.84 285.4 472.84 285.37 472.83 285.37 472.81 285.37 472.8 285.37 472.79 285.37 472.78 285.37 472.77 285.38 472.76 285.39 472.75 285.4 472.72 285.41 472.7 285.45 472.66 285.44 472.63 285.43 472.62 285.45 472.62 285.5 472.59 285.51 472.5 285.52 472.41 285.5 472.32 285.46 472.21 285.39 472.17 285.37 472.12 285.36 472.03 285.35 471.99 285.34 471.95 285.31 471.86 285.24 471.85 285.23 471.84 285.15 471.83 285.14 471.83 285.11 471.77 284.97 471.75 284.95 471.7 284.92 471.68 284.9 471.66 284.87 471.65 284.84 471.65 284.8 471.67 284.77 471.63 284.7 471.62 284.67 471.62 284.61 471.61 284.56 471.56 284.48 471.55 284.44 471.54 284.37 471.54 284.32 471.57 284.3 471.61 284.33 471.68 284.41 471.72 284.44 471.76 284.45 471.85 284.45 471.93 284.41 472 284.34 472.05 284.27 472.08 284.19 472.1 284.14 472.14 284.12 472.14 284.1 472.15 284.09 472.16 284.08 472.17 284.09 472.19 284.1 472.19 284.1 472.21 284.1 472.23 284.1 472.25 284.13 472.28 284.15 472.31 284.16 472.34 284.15 472.37 284.13 472.38 284.09 472.4 284.06 472.4 284.06 472.47 284.07 472.48 284.14 472.49 284.18 472.51 284.2 472.55 284.22 472.61 284.24 472.65 284.27 472.7 284.29 472.72 284.31 472.73 284.35 472.73 284.37 472.74 284.4 472.76 284.41 472.78 284.41 472.84 284.39 472.87 284.37 472.88 284.36 472.89 284.33 472.91 284.32 472.93 284.33 472.94 284.35 472.98 284.37 473.01 284.37 473.04 284.35 473.08 284.31 473.12 284.27 473.16 284.25 473.21 284.22 473.23 284.2 473.25 284.19 473.31 284.2 473.37 284.21 473.42 284.21 473.45 284.2 473.47 284.19 473.48 284.16 473.54 284.13 473.57 284.13 473.6 284.14 473.63 284.15 473.66 284.15 473.68 284.16 473.71 284.2 473.73 284.22 473.77 284.25 473.82 284.26 473.84 284.25 473.85 284.24 473.85 284.22 473.88 284.2 473.92 284.15 473.94 284.14 473.98 284.14 474.03 284.14 474.07 284.13 474.08 284.14 474.08 284.17 474.09 284.21 474.11 284.23 474.13 284.26 474.16 284.29 474.17 284.31 474.17 284.36 474.17 284.4 474.17 284.45 474.15 284.51 474.14 284.56 474.15 284.6 474.17 284.62 474.19 284.62 474.23 284.61 474.24 284.57 474.25 284.49 474.26 284.48 474.28 284.46 474.3 284.45 474.32 284.46 474.32 284.53 474.33 284.57 474.36 284.58 474.4 284.56 474.42 284.53 474.44 284.51 474.46 284.51 474.49 284.53 474.51 284.53 474.52 284.52 474.55 284.53 474.57 284.54 474.62 284.56 474.64 284.57 474.67 284.57 474.7 284.59 474.71 284.6 Z" fill-rule="evenodd" id="Cyprus" transform="translate(-471.5400085449219,-284.05999755859375) "/></svg>