<svg xmlns="http://www.w3.org/2000/svg" viewBox="0 0 14.990020751953125 8.5"><path d="M 432.83 236.32 432.88 236.32 432.96 236.3 433.21 236.32 433.21 236.29 433.21 236.17 433.21 236.16 433.21 236.15 433.21 236.13 433.22 236.11 433.24 236.09 433.25 236.07 433.24 235.97 433.21 235.92 433.17 235.89 433.16 235.85 433.16 235.85 433.17 235.84 433.19 235.83 433.2 235.83 433.21 235.82 433.24 235.8 433.25 235.78 433.26 235.75 433.3 235.79 433.41 235.82 433.43 235.85 433.46 235.88 433.49 235.89 433.51 235.89 433.52 235.85 433.52 235.85 433.54 235.81 433.57 235.79 433.6 235.8 433.61 235.85 433.63 235.9 433.75 235.91 433.81 235.94 433.85 235.99 433.85 236.03 433.83 236.06 433.81 236.13 433.82 236.18 433.84 236.24 433.86 236.3 433.89 236.34 433.93 236.37 433.97 236.39 434.01 236.42 434.03 236.48 434.03 236.52 434.03 236.55 434.03 236.58 434.04 236.61 434.07 236.62 434.07 236.62 434.1 236.6 434.12 236.56 434.14 236.53 434.23 236.53 434.67 236.68 434.7 236.7 434.73 236.74 434.74 236.76 434.77 236.77 434.95 236.72 435.01 236.73 435.01 236.75 435.02 236.77 435.13 236.96 435.14 236.97 435.21 236.97 435.34 236.92 435.37 236.92 435.4 236.95 435.43 237.01 435.45 237.05 435.46 237.1 435.46 237.14 435.43 237.17 435.42 237.18 435.42 237.19 435.42 237.2 435.43 237.21 435.52 237.2 435.66 237.06 435.75 237.07 435.82 237.13 435.86 237.14 435.89 237.13 435.92 237.1 435.94 237.05 435.95 237.02 435.98 237.01 436.06 237.02 436.13 237.03 436.2 237.07 436.39 237.27 436.41 237.34 436.34 237.37 436.35 237.39 436.35 237.4 436.34 237.41 436.33 237.43 436.33 237.45 436.33 237.48 436.33 237.5 436.33 237.5 436.31 237.52 436.27 237.57 436.25 237.6 436.21 237.61 436.14 237.59 436.1 237.6 436.09 237.64 436.05 237.67 436.02 237.69 435.98 237.72 435.97 237.73 435.95 237.74 435.93 237.74 435.95 237.78 435.95 237.79 435.91 237.78 435.89 237.84 435.91 237.9 435.98 237.91 436.01 238 436.02 238.02 436.05 238.04 436.06 238.04 436.08 238.03 436.11 238.02 436.21 238.02 436.23 238.02 436.24 238.06 436.25 238.09 436.24 238.12 436.25 238.15 436.29 238.2 436.39 238.24 436.44 238.27 436.47 238.32 436.53 238.42 436.56 238.46 436.59 238.52 436.65 238.59 436.68 238.65 436.7 238.77 436.72 238.81 436.76 238.86 436.84 238.93 436.93 238.98 437.02 238.97 437.09 238.88 437.14 238.85 437.17 238.81 437.19 238.76 437.23 238.7 437.28 238.66 437.32 238.65 437.37 238.65 437.39 238.65 437.42 238.64 437.44 238.62 437.48 238.57 437.5 238.55 437.52 238.55 437.56 238.57 437.58 238.57 437.59 238.55 437.59 238.51 437.6 238.5 437.63 238.5 437.64 238.51 437.65 238.53 437.68 238.57 437.7 238.58 437.72 238.55 437.71 238.5 437.68 238.46 437.68 238.38 437.66 238.32 437.62 238.27 437.56 238.24 437.52 238.2 437.5 238.13 437.48 238.06 437.46 238 437.39 237.89 437.39 237.84 437.45 237.81 437.5 237.81 437.56 237.85 437.59 237.87 437.64 237.86 437.87 237.93 437.9 237.94 437.95 237.99 437.98 238 438.01 238 438.07 237.99 438.1 237.99 438.09 238 438.1 238.04 438.12 238.09 438.13 238.12 438.15 238.14 438.23 238.19 438.28 238.21 438.39 238.2 438.43 238.22 438.39 238.24 438.4 238.25 438.4 238.26 438.41 238.27 438.42 238.28 438.42 238.33 438.43 238.37 438.44 238.41 438.47 238.43 438.49 238.36 438.54 238.36 438.59 238.4 438.61 238.46 438.62 238.47 438.64 238.47 438.65 238.47 438.66 238.46 438.72 238.39 438.83 238.38 439.03 238.41 439.08 238.4 439.12 238.37 439.18 238.28 439.2 238.25 439.2 238.22 439.22 238.21 439.25 238.23 439.27 238.24 439.31 238.3 439.31 238.3 439.31 238.31 439.31 238.32 439.31 238.33 439.28 238.4 439.28 238.43 439.28 238.46 439.31 238.49 439.34 238.55 439.32 238.6 439.27 238.64 439.18 238.7 439.12 238.72 439.01 238.73 438.99 238.74 438.97 238.77 438.98 238.8 439.09 238.94 439.12 238.95 439.14 238.95 439.16 238.94 439.19 238.93 439.21 238.94 439.27 238.97 439.31 238.97 439.31 238.98 439.31 238.98 439.31 238.98 439.31 238.99 439.29 239 439.28 239.02 439.29 239.04 439.31 239.06 439.33 239.09 439.35 239.13 439.36 239.17 439.38 239.21 439.4 239.25 439.54 239.39 439.62 239.41 439.71 239.38 439.77 239.33 439.81 239.32 439.9 239.31 439.97 239.29 439.98 239.28 439.98 239.24 439.96 239.22 439.94 239.22 439.93 239.22 439.92 239.22 439.91 239.14 439.94 239.15 439.97 239.16 440.1 239.24 440.09 239.31 440.12 239.34 440.26 239.37 440.29 239.38 440.36 239.44 440.39 239.46 440.44 239.47 440.47 239.49 440.48 239.51 440.49 239.56 440.5 239.58 440.55 239.62 440.58 239.61 440.64 239.56 440.64 239.55 440.64 239.55 440.63 239.55 440.63 239.55 440.72 239.53 440.8 239.56 440.97 239.66 441.02 239.66 441.11 239.6 441.14 239.62 441.15 239.68 441.15 239.73 441.16 239.78 441.22 239.81 441.16 239.88 441.16 239.97 441.19 240.07 441.25 240.18 441.27 240.28 441.28 240.31 441.31 240.33 441.38 240.33 441.41 240.34 441.44 240.37 441.49 240.42 441.51 240.44 441.55 240.43 441.58 240.42 441.61 240.41 441.65 240.44 441.66 240.46 441.67 240.58 441.68 240.61 441.71 240.67 441.72 240.7 441.75 240.85 441.76 240.92 441.75 240.98 441.66 240.98 441.61 240.99 441.52 241.08 441.46 241.08 441.4 241.06 441.32 241.03 441.31 241.02 441.29 241.03 441.23 241.06 441.13 241.04 441.09 241.07 441.08 241.1 441.07 241.16 441.06 241.19 441.04 241.21 440.97 241.25 440.87 241.37 440.82 241.4 440.76 241.39 440.75 241.55 440.7 241.59 440.62 241.65 440.32 241.77 440.26 241.83 440.2 241.92 440.16 242.02 440.13 242.13 440.12 242.22 440.13 242.24 440.13 242.39 440.11 242.47 440.07 242.54 440 242.6 439.93 242.64 439.81 242.63 439.76 242.64 439.71 242.67 439.68 242.73 439.67 242.78 439.65 242.88 439.63 242.93 439.59 242.97 439.55 242.97 439.5 242.96 439.45 242.97 439.41 243 439.33 243.13 439.3 243.16 438.87 243.33 438.79 243.32 438.72 243.25 438.69 243.23 438.64 243.25 438.59 243.27 438.55 243.3 438.51 243.31 438.26 243.18 438.15 243.15 438.05 243.17 437.94 243.26 437.92 243.29 437.9 243.36 437.87 243.4 437.79 243.46 437.74 243.56 437.63 243.88 437.6 243.92 437.57 243.97 437.56 244.03 437.49 243.94 437.45 243.72 437.4 243.65 437.37 243.64 437.28 243.67 437.24 243.68 437.2 243.66 437.12 243.61 437.08 243.6 437 243.6 436.96 243.6 436.93 243.58 436.92 243.54 436.91 243.49 436.89 243.45 436.85 243.43 436.81 243.43 436.68 243.39 436.64 243.36 436.62 243.36 436.6 243.36 436.56 243.38 436.53 243.38 436.47 243.37 436.43 243.39 436.32 243.59 436.3 243.61 436.26 243.62 436.25 243.62 436.22 243.59 436.17 243.6 436.17 243.6 435.86 243.55 435.66 243.57 435.54 243.52 435.32 243.35 435.31 243.34 435.31 243.31 435.3 243.3 435.26 243.31 435.26 243.27 435.24 243.26 435.22 243.26 435.19 243.26 435.21 243.23 435.2 243.24 435.18 243.23 435.15 243.21 435.11 243.21 435.1 243.2 435.09 243.18 435.08 243.14 435.06 243.13 435 243.13 434.98 243.14 434.9 243.18 434.86 243.19 434.81 243.19 434.76 243.18 434.59 243.08 434.46 243.03 434.41 243.01 434.3 242.92 434.25 242.89 434.15 242.86 434.04 242.8 433.99 242.79 433.89 242.79 433.88 242.78 433.87 242.76 433.86 242.75 433.84 242.75 433.83 242.76 433.83 242.81 433.82 242.82 433.79 242.86 433.78 242.87 433.61 242.91 433.56 242.91 433.58 242.87 433.58 242.82 433.57 242.77 433.55 242.73 433.38 242.71 433.26 242.67 433.21 242.68 433.2 242.68 433.2 242.69 433.2 242.71 433.2 242.73 433.17 242.8 433.17 242.89 433.18 243 433.18 243.09 433.13 243.3 433.12 243.34 433.11 243.37 433.12 243.39 433.13 243.41 433.14 243.44 433.14 243.44 433.12 243.5 433.07 243.5 432.96 243.46 432.84 243.44 432.81 243.45 432.79 243.49 432.79 243.53 432.76 243.57 432.75 243.63 432.64 243.73 432.59 243.8 432.59 243.89 432.59 243.99 432.58 244.08 432.57 244.09 432.53 244.12 432.49 244.12 432.48 244.1 432.46 244.07 432.44 244.04 432.43 244.03 432.39 244.05 432.37 244.04 432.37 244.03 432.37 244.01 432.36 243.99 432.35 243.97 432.32 243.98 432.25 244.01 432.22 244.02 432.19 244.01 432.1 243.96 432.05 243.9 432.02 243.92 431.97 244.05 431.93 244.09 431.82 244.14 431.77 244.18 431.75 244.18 431.73 244.19 431.51 244.11 431.2 244.07 431.12 244.04 431.11 244.02 431.07 243.98 431.06 243.96 431.05 243.91 431.05 243.9 431.06 243.9 431.08 243.87 431.09 243.86 431.1 243.86 431.11 243.86 431.11 243.84 431.1 243.82 431.09 243.81 431.08 243.8 431.06 243.79 431.05 243.77 431.01 243.71 430.99 243.69 430.85 243.61 430.8 243.57 430.76 243.53 430.71 243.51 430.62 243.49 430.58 243.44 430.47 243.23 430.42 243.15 430.39 243.13 430.31 243.12 430.27 243.1 430.23 243.06 430.2 243.01 430.17 242.95 430.17 242.88 430.13 242.89 430.09 242.87 430.05 242.84 430.01 242.81 429.97 242.81 429.96 242.8 429.93 242.82 429.91 242.85 429.89 242.91 429.83 242.89 429.76 242.84 429.7 242.78 429.67 242.73 429.67 242.63 429.64 242.57 429.55 242.48 429.48 242.39 429.45 242.36 429.41 242.35 429.28 242.34 429.21 242.3 429.18 242.25 429.15 242.18 428.94 241.9 428.91 241.88 428.91 241.88 428.91 241.88 428.84 241.8 428.83 241.77 428.83 241.73 428.82 241.71 428.78 241.69 428.72 241.63 428.68 241.6 428.65 241.58 428.56 241.56 428.53 241.57 428.54 241.61 428.5 241.61 428.37 241.6 428.32 241.58 428.29 241.54 428.22 241.38 428.17 241.33 428.07 241.29 428.03 241.25 428 241.2 427.99 241.15 427.98 241.03 427.98 240.98 427.96 240.96 427.94 240.97 427.92 240.96 427.89 240.93 427.87 240.91 427.86 240.88 427.85 240.84 427.84 240.8 427.83 240.72 427.81 240.69 427.79 240.66 427.74 240.63 427.71 240.6 427.71 240.59 427.72 240.57 427.71 240.56 427.7 240.55 427.72 240.51 427.72 240.47 427.7 240.43 427.67 240.42 427.6 240.38 427.56 240.36 427.53 240.33 427.48 240.26 427.46 240.22 427.45 240.18 427.48 240.13 427.57 240.09 427.6 240.06 427.61 240 427.61 239.93 427.63 239.88 427.67 239.89 427.69 239.84 427.74 239.75 427.75 239.69 427.76 239.63 427.75 239.6 427.72 239.59 427.63 239.54 427.63 239.5 427.64 239.45 427.64 239.4 427.6 239.37 427.52 239.36 427.48 239.33 427.48 239.33 427.15 239.15 427.14 239.12 427.14 239.09 427.14 239.06 427.12 239.02 427.08 239 427.05 238.98 427.02 238.95 427 238.89 427 238.84 427.01 238.76 427.01 238.71 426.99 238.67 426.96 238.63 426.91 238.57 426.8 238.51 426.78 238.46 426.8 238.42 426.83 238.41 426.84 238.39 426.85 238.35 426.84 238.3 426.82 238.27 426.77 238.21 426.82 238.22 426.93 238.23 426.97 238.26 426.99 238.29 426.99 238.35 426.99 238.37 427.02 238.4 427.05 238.41 427.12 238.41 427.13 238.42 427.14 238.43 427.14 238.45 427.13 238.46 427.12 238.47 427.12 238.47 427.12 238.47 427.12 238.47 427.11 238.48 427.11 238.48 427.11 238.49 427.12 238.5 427.15 238.54 427.16 238.55 427.17 238.57 427.18 238.59 427.18 238.61 427.21 238.71 427.23 238.74 427.27 238.75 427.3 238.72 427.3 238.69 427.28 238.66 427.28 238.61 427.28 238.55 427.3 238.52 427.34 238.46 427.35 238.41 427.36 238.38 427.39 238.37 427.41 238.34 427.48 238.21 427.51 238.19 427.57 238.15 427.6 238.13 427.61 238.13 427.63 238.13 427.63 238.12 427.64 238.11 427.64 238.1 427.64 238.08 427.63 238.08 427.64 238.06 427.65 238.04 427.65 238.03 427.67 238.01 427.73 237.96 427.82 237.93 427.99 237.92 428.1 237.94 428.13 237.94 428.16 237.91 428.21 237.84 428.24 237.81 428.27 237.8 428.31 237.8 428.35 237.8 428.36 237.8 428.39 237.78 428.41 237.77 428.43 237.78 428.64 237.9 428.71 237.91 428.73 237.89 428.78 237.84 428.81 237.8 428.82 237.74 428.84 237.6 428.86 237.59 428.87 237.58 428.89 237.59 428.91 237.6 428.93 237.6 428.95 237.61 428.97 237.6 428.99 237.6 428.99 237.6 428.99 237.6 429.05 237.58 429.17 237.58 429.23 237.54 429.26 237.49 429.33 237.29 429.37 237.29 429.41 237.32 429.45 237.33 429.49 237.31 429.52 237.24 429.53 237.22 429.61 237.16 429.63 237.14 429.63 237.13 429.63 237.13 429.66 237.14 429.67 237.15 429.7 237.2 429.72 237.22 429.77 237.25 429.81 237.23 429.85 237.2 429.89 237.15 429.91 237.14 429.92 237.12 429.92 237.1 429.91 237.07 429.95 237.05 429.98 237.01 429.99 236.96 429.96 236.91 430.05 236.85 430.15 236.83 430.35 236.84 430.39 236.83 430.48 236.8 430.53 236.79 430.63 236.8 430.67 236.79 430.73 236.75 430.74 236.75 430.76 236.75 430.77 236.73 430.77 236.71 430.77 236.68 430.77 236.66 430.77 236.62 430.8 236.6 430.81 236.6 430.84 236.6 430.86 236.6 430.89 236.58 430.92 236.54 430.94 236.52 430.99 236.51 431.07 236.52 431.11 236.52 431.46 236.36 431.48 236.33 431.52 236.27 431.55 236.25 431.63 236.23 431.8 236.25 431.87 236.19 431.88 236.1 431.82 236.07 431.74 236.05 431.68 235.99 431.68 235.95 431.7 235.94 431.71 235.93 431.66 235.92 431.59 235.91 431.56 235.89 431.59 235.85 431.62 235.75 431.67 235.7 431.74 235.69 431.82 235.71 431.84 235.73 431.85 235.75 431.87 235.77 431.89 235.78 431.92 235.78 431.98 235.75 432.06 235.76 432.08 235.74 432.1 235.7 432.11 235.73 432.12 235.75 432.13 235.77 432.15 235.8 432.18 235.82 432.24 235.83 432.26 235.85 432.29 235.89 432.31 235.91 432.31 235.95 432.31 236 432.29 236.04 432.27 236.09 432.25 236.14 432.28 236.16 432.4 236.1 432.43 236.11 432.44 236.14 432.43 236.19 432.39 236.28 432.38 236.34 432.39 236.37 432.47 236.39 432.5 236.41 432.59 236.47 432.67 236.49 432.72 236.49 432.75 236.48 432.77 236.46 432.79 236.42 432.83 236.32 Z" id="Czech Republic" transform="translate(-426.7699890136719,-235.69000244140625) "/></svg>