<svg xmlns="http://www.w3.org/2000/svg" viewBox="0 0 42.269989013671875 41.75"><path d="M 428.8 379.89 428.75 379.93 428.69 379.95 428.56 379.98 428.53 380 428.46 380.02 428.39 380.08 428.34 380.09 428.29 380.09 428.25 380.05 428.3 380 428.36 379.95 428.44 379.9 428.49 379.89 428.61 379.89 428.67 379.9 428.71 379.9 428.76 379.89 428.8 379.89 Z M 460.83 355.78 460.83 355.81 460.82 355.91 460.83 355.92 460.84 355.93 460.86 355.93 460.87 355.94 460.94 355.99 460.96 356.02 460.97 356.04 460.98 356.08 460.99 356.11 461.03 356.14 461.08 356.15 461.27 356.17 461.31 356.2 461.34 356.25 461.36 356.34 461.37 356.38 461.4 356.4 461.42 356.4 461.46 356.39 461.48 356.39 461.5 356.4 461.52 356.43 461.53 356.45 461.54 356.47 461.55 356.52 461.53 356.65 461.54 356.74 461.55 356.79 461.56 356.83 461.57 356.83 461.63 356.84 461.64 356.84 461.67 356.86 461.71 356.91 461.73 356.92 461.75 356.92 461.81 356.91 461.83 356.92 461.86 356.93 461.88 356.93 461.88 356.92 461.88 356.91 461.88 356.9 461.88 356.9 461.89 356.89 461.91 356.88 461.92 356.89 461.94 356.91 461.96 356.91 461.98 356.91 462.1 356.93 462.1 356.95 462.09 356.99 462.09 357.04 462.09 357.06 462.09 357.08 462.1 357.1 462.11 357.12 462.18 357.22 462.2 357.21 462.24 357.18 462.26 357.16 462.29 357.17 462.31 357.18 462.32 357.23 462.38 357.3 462.42 357.35 462.46 357.38 462.55 357.39 462.65 357.37 462.74 357.36 462.81 357.42 462.83 357.47 462.84 357.5 462.86 357.52 462.91 357.53 462.96 357.53 463.01 357.5 463.05 357.46 463.14 357.35 463.17 357.33 463.22 357.32 463.24 357.32 463.26 357.32 463.28 357.32 463.3 357.32 463.32 357.3 463.32 357.27 463.33 357.25 463.36 357.23 463.45 357.21 463.48 357.19 463.52 357.14 463.61 356.97 463.63 356.96 463.67 356.96 463.7 356.95 463.72 356.93 463.74 356.92 463.77 356.93 463.8 356.97 463.81 357.02 463.82 357.06 463.87 357.09 463.9 357.09 463.96 357.08 464.07 357.09 464.12 357.08 464.25 357.05 464.27 357.07 464.38 357.14 464.4 357.15 464.41 357.18 464.41 357.18 464.5 357.21 464.53 357.23 464.67 357.37 464.72 357.4 464.77 357.39 464.79 357.35 464.8 357.31 464.82 357.29 464.88 357.29 464.92 357.3 464.96 357.29 464.99 357.23 465.01 357.18 465.03 357.15 465.15 357.05 465.18 357.01 465.19 356.97 465.21 356.92 465.22 356.89 465.26 356.85 465.27 356.83 465.27 356.81 465.27 356.77 465.28 356.69 465.3 356.66 465.33 356.66 465.38 356.67 465.39 356.67 465.41 356.7 465.42 356.7 465.46 356.69 465.47 356.68 465.49 356.69 465.56 356.72 465.63 356.72 465.65 356.73 465.75 356.77 465.77 356.79 465.84 356.84 465.87 356.86 465.89 356.87 465.94 356.85 465.95 356.86 466 356.89 466.02 356.9 466.05 356.91 466.04 356.94 466.03 356.95 466.02 356.96 466.01 356.99 466.01 357 466.02 357.04 466.03 357.06 466.02 357.08 466.01 357.15 466 357.25 466.03 357.33 466.09 357.38 466.19 357.38 466.24 357.38 466.3 357.42 466.35 357.46 466.37 357.51 466.36 357.53 466.34 357.55 466.33 357.57 466.33 357.6 466.35 357.62 466.37 357.63 466.4 357.63 466.42 357.63 466.48 357.66 466.51 357.7 466.56 357.8 466.6 357.85 466.63 357.87 466.72 357.89 466.77 357.92 466.79 357.96 466.81 358.01 466.83 358.06 466.88 358.12 466.89 358.15 466.9 358.17 466.9 358.2 466.9 358.22 466.92 358.24 466.96 358.25 467.1 358.25 467.25 358.3 467.43 358.41 467.51 358.43 467.53 358.44 467.58 358.44 467.6 358.44 467.62 358.43 467.64 358.43 467.66 358.43 467.69 358.49 467.75 358.81 467.75 358.86 467.73 358.94 467.72 358.97 467.7 358.98 467.7 359 467.73 359.01 467.75 359.02 467.77 359.02 467.81 359.02 467.84 359.01 467.91 358.97 467.95 358.96 467.98 358.95 468.04 358.95 468.08 358.93 468.12 358.88 468.16 358.86 468.2 358.89 468.21 358.91 468.21 358.99 468.23 359.02 468.26 359.04 468.32 359.07 468.36 359.11 468.33 359.22 468.36 359.27 468.41 359.25 468.45 359.21 468.49 359.2 468.52 359.25 468.52 359.27 468.5 359.34 468.5 359.36 468.53 359.41 468.53 359.43 468.52 359.48 468.51 359.5 468.49 359.52 468.43 359.59 468.38 359.67 468.38 359.68 468.37 359.7 468.37 359.71 468.36 359.72 468.33 359.72 468.32 359.73 468.28 359.8 468.19 360.07 468.16 360.18 468.15 360.22 468.15 360.27 468.18 360.3 468.28 360.37 468.32 360.41 468.37 360.49 468.39 360.58 468.39 360.67 468.34 360.82 468.32 360.84 468.31 360.84 468.29 360.85 468.28 360.86 468.27 360.87 468.27 360.89 468.27 360.9 468.19 361.1 468.19 361.13 468.19 361.14 468.18 361.15 468.14 361.22 468.13 361.24 468.13 361.28 468.14 361.37 468.13 361.41 468.12 361.44 468.09 361.49 468.07 361.53 468.08 361.57 468.11 361.58 468.26 361.58 468.28 361.59 468.29 361.62 468.29 361.65 468.29 361.69 468.32 361.72 468.35 361.76 468.4 361.8 468.43 361.82 468.5 361.79 468.53 361.72 468.56 361.66 468.65 361.66 468.68 361.68 468.81 361.82 468.81 361.83 468.82 361.85 468.82 361.86 468.8 361.86 468.8 361.87 468.81 361.89 468.84 361.91 468.94 361.93 468.97 361.93 469 361.92 469.11 361.88 469.11 361.98 469.12 362.02 469.14 362.06 469.18 362.1 469.31 362.17 469.33 362.21 469.34 362.21 469.34 362.22 469.32 362.32 469.25 362.44 469.12 362.6 468.98 362.78 468.93 362.84 468.77 363.04 468.62 363.16 468.31 363.41 468.01 363.65 467.82 363.89 467.73 364.01 467.56 364.23 467.52 364.26 467.49 364.28 467.46 364.3 467.41 364.31 467.39 364.31 467.33 364.3 467.31 364.31 467.27 364.34 467.24 364.38 467.22 364.41 467.18 364.39 467.16 364.37 467.14 364.37 467.12 364.37 467.1 364.38 467.03 364.45 467.02 364.47 467.02 364.51 467.01 364.54 467.01 364.56 466.98 364.58 466.98 364.62 466.99 364.71 466.97 364.75 466.92 364.81 466.91 364.84 466.91 364.85 466.87 364.92 466.84 364.95 466.82 364.96 466.59 365.02 466.49 365.06 466.46 365.08 466.41 365.12 466.38 365.14 466.34 365.22 466.34 365.25 466.35 365.36 466.32 365.55 466.32 365.59 466.36 365.77 466.37 365.86 466.34 365.92 466.33 365.94 466.29 365.99 466.17 366.12 466.14 366.16 466.13 366.21 466.06 366.57 466.05 366.59 466.03 366.6 466.01 366.6 466 366.58 465.97 366.57 465.96 366.6 465.86 366.73 465.84 366.79 465.84 366.83 465.86 366.93 465.87 366.97 465.86 367.01 465.82 367.09 465.78 367.32 465.77 367.39 465.73 367.61 465.73 367.65 465.68 367.93 465.68 367.97 465.69 367.98 465.71 368.03 465.72 368.06 465.73 368.2 465.73 368.23 465.71 368.24 465.68 368.24 465.66 368.25 465.66 368.27 465.66 368.28 465.68 368.31 465.68 368.32 465.68 368.34 465.67 368.35 465.66 368.36 465.65 368.37 465.62 368.54 465.62 368.59 465.64 368.68 465.64 368.72 465.64 368.85 465.63 368.89 465.61 368.92 465.54 368.94 465.52 368.98 465.51 369 465.51 369.02 465.52 369.06 465.53 369.09 465.52 369.11 465.51 369.13 465.51 369.13 465.5 369.16 465.51 369.2 465.54 369.28 465.55 369.32 465.54 369.36 465.52 369.5 465.52 369.55 465.54 369.59 465.56 369.62 465.57 369.67 465.57 369.69 465.55 369.74 465.55 369.77 465.58 369.81 465.58 369.84 465.59 369.88 465.56 370.01 465.48 370.04 465.39 370.1 465.31 370.18 465.27 370.25 465.26 370.26 465.26 370.26 465.25 370.27 465.25 370.27 465.08 370.28 465.04 370.29 465.02 370.32 464.96 370.45 464.93 370.48 464.83 370.56 464.8 370.6 464.75 370.69 464.7 370.78 464.61 370.91 464.57 371.01 464.56 371.09 464.57 371.17 464.63 371.51 464.63 371.59 464.62 371.69 464.58 371.79 464.53 371.88 464.45 371.94 464.35 371.96 464.29 371.96 464.27 371.97 464.25 371.99 464.24 372.01 464.24 372.03 464.22 372.06 464.19 372.1 464.16 372.13 464.12 372.16 464.08 372.17 464.02 372.19 463.99 372.22 463.97 372.28 463.97 372.32 463.98 372.37 464.01 372.41 464.01 372.43 463.97 372.47 463.97 372.5 463.98 372.52 463.99 372.54 464.02 372.55 464.04 372.57 464.06 372.62 464.04 372.79 464.06 372.81 464.14 372.86 464.17 372.88 464.24 372.88 464.28 372.9 464.32 372.94 464.35 373 464.3 373 464.27 373.03 464.26 373.06 464.25 373.11 464.27 373.15 464.31 373.16 464.36 373.16 464.39 373.18 464.4 373.2 464.42 373.25 464.46 373.3 464.46 373.32 464.47 373.36 464.48 373.39 464.52 373.41 464.56 373.43 464.59 373.45 464.6 373.48 464.61 373.53 464.63 373.57 464.67 373.59 464.71 373.59 464.75 373.6 464.78 373.63 464.8 373.66 464.82 373.79 464.82 373.8 464.81 373.83 464.78 373.84 464.77 373.88 464.76 373.92 464.76 374.07 464.78 374.11 464.82 374.14 464.81 374.15 464.76 374.2 464.75 374.23 464.74 374.3 464.78 374.86 464.78 375.03 464.76 375.12 464.74 375.28 464.76 375.54 464.78 375.6 464.81 375.65 464.9 375.74 465.04 375.97 465.1 376.18 465.11 376.22 465.18 376.76 465.19 376.78 465.19 376.87 465.17 377.06 465.04 377.42 465 377.61 465 377.79 465.04 377.97 465.05 377.98 465.12 378.16 465.29 378.48 465.38 378.84 465.6 379.34 465.64 379.53 465.62 379.7 465.55 379.82 465.38 380.05 465.34 380.19 465.34 380.27 465.41 380.52 465.45 380.79 465.48 380.87 465.54 380.98 465.69 381.17 465.8 381.47 465.85 381.55 465.92 381.63 466.22 381.85 466.43 381.96 466.53 382.01 466.7 382.15 467.02 382.52 467.15 382.73 467.32 383.09 467.4 383.36 467.42 383.51 467.48 383.72 467.95 384.46 468.11 384.85 468.17 385.05 467.79 385.11 467.22 385.19 466.77 385.26 466.19 385.35 465.6 385.44 465.56 385.45 465.09 385.52 464.74 385.57 464.36 385.63 464.1 385.67 464.04 385.69 464.05 385.73 464.14 385.93 464.13 386.13 464.05 386.32 463.76 386.7 463.39 387.06 463.19 387.21 462.99 387.3 462.89 387.37 462.85 387.45 462.88 387.53 462.98 387.57 463.09 387.59 463.16 387.63 463.21 387.69 463.22 387.73 463.21 387.77 463.21 387.8 463.22 387.84 463.25 387.86 463.3 387.9 463.31 387.92 463.32 387.95 463.33 387.98 463.33 388.02 463.34 388.05 463.37 388.06 463.44 388.05 463.42 388.07 463.37 388.09 463.36 388.1 463.37 388.12 463.41 388.17 463.42 388.2 463.43 388.22 463.45 388.27 463.45 388.29 463.45 388.39 463.47 388.44 463.5 388.48 463.52 388.5 463.54 388.5 463.55 388.52 463.56 388.55 463.62 388.61 463.61 388.62 463.57 388.64 463.55 388.68 463.53 388.77 463.46 388.92 463.45 388.97 463.47 389.13 463.46 389.3 463.44 389.39 463.41 389.46 463.35 389.52 463.33 389.57 463.41 389.63 463.41 389.64 463.41 389.66 463.42 389.68 463.43 389.68 463.45 389.69 463.45 389.69 463.46 389.74 463.46 389.77 463.44 389.81 463.44 389.85 463.44 389.91 463.46 389.95 463.48 389.98 463.5 390.03 463.5 390.06 463.5 390.08 463.49 390.11 463.47 390.13 463.46 390.15 463.48 390.18 463.47 390.21 463.47 390.24 463.5 390.28 463.56 390.34 463.56 390.36 463.55 390.41 463.54 390.44 463.55 390.46 463.61 390.5 463.62 390.51 463.61 390.56 463.58 390.6 463.54 390.64 463.51 390.66 463.5 390.66 463.47 390.66 463.46 390.67 463.45 390.68 463.41 390.73 463.4 390.78 463.38 390.8 463.34 390.84 463.32 390.89 463.3 390.94 463.28 391 463.28 391.1 463.28 391.12 463.26 391.17 463.25 391.19 463.24 391.21 463.21 391.25 463.19 391.27 463.19 391.3 463.19 391.34 463.19 391.37 463.18 391.39 463.15 391.44 463.12 391.49 463.12 391.51 463.15 391.63 463.15 391.66 463.14 391.68 463.12 391.71 463.12 391.72 463.11 391.74 463.12 391.82 463.08 391.9 463.05 391.93 463.03 391.96 463.02 392.01 463.04 392.09 463.03 392.1 462.98 392.14 462.97 392.15 462.86 392.32 462.85 392.36 462.86 392.48 462.87 392.51 462.88 392.53 462.9 392.6 462.92 392.62 462.95 392.65 462.97 392.67 463 392.81 463 392.83 462.99 392.84 463.01 392.86 463.04 392.89 463.05 392.91 463.07 393.07 463.09 393.1 463.12 393.11 463.15 393.13 463.17 393.24 463.19 393.27 463.22 393.26 463.25 393.26 463.26 393.27 463.28 393.29 463.3 393.3 463.32 393.34 463.33 393.37 463.38 393.34 463.41 393.36 463.45 393.44 463.48 393.46 463.59 393.52 463.63 393.54 463.71 393.52 463.73 393.54 463.74 393.61 463.75 393.64 463.78 393.66 463.86 393.71 463.89 393.73 463.92 393.77 463.94 393.81 463.95 393.85 463.97 393.88 464.1 393.95 464.16 394.02 464.34 394.35 464.35 394.38 464.35 394.41 464.36 394.41 464.38 394.41 464.4 394.42 464.43 394.43 464.47 394.41 464.51 394.4 464.53 394.45 464.57 394.42 464.61 394.4 464.67 394.39 464.85 394.38 464.87 394.4 464.91 394.44 464.94 394.46 464.96 394.47 464.98 394.48 465.07 394.48 465.09 394.48 465.18 394.53 465.24 394.55 465.26 394.56 465.29 394.55 465.3 394.55 465.31 394.56 465.32 394.57 465.33 394.58 465.35 394.58 465.39 394.58 465.42 394.56 465.45 394.53 465.45 394.48 465.44 394.44 465.42 394.43 465.38 394.43 465.35 394.42 465.28 394.33 465.27 394.31 465.28 394.3 465.28 394.28 465.29 394.22 465.32 394.13 465.33 394.11 465.37 394.08 465.47 394.05 465.51 394.02 465.54 393.99 465.56 393.98 465.59 393.98 465.62 393.99 465.66 394.03 465.68 394.05 465.72 394.04 465.84 393.99 465.91 393.93 465.96 393.91 466.06 393.91 466.06 393.91 466.06 393.92 466.06 393.92 466.06 394.16 466.05 394.42 466.05 394.8 466.05 395.13 466.05 395.53 466.05 395.87 466.05 396.19 466.05 396.52 466.05 396.77 466.02 396.85 465.98 396.85 465.84 396.85 465.75 396.83 465.71 396.81 465.67 396.79 465.65 396.77 465.64 396.74 465.63 396.72 465.62 396.69 465.62 396.66 465.63 396.65 465.66 396.65 465.67 396.64 465.67 396.62 465.67 396.57 465.67 396.55 465.69 396.54 465.73 396.53 465.74 396.51 465.75 396.5 465.76 396.47 465.77 396.45 465.76 396.43 465.74 396.4 465.72 396.4 465.7 396.41 465.68 396.41 465.64 396.38 465.6 396.35 465.56 396.32 465.5 396.32 465.45 396.34 465.33 396.47 465.28 396.49 464.97 396.61 464.84 396.7 464.79 396.72 464.76 396.74 464.72 396.79 464.69 396.8 464.66 396.8 464.64 396.77 464.62 396.74 464.6 396.71 464.55 396.68 464.5 396.68 464.45 396.69 464.43 396.69 464.39 396.69 464.35 396.71 464.31 396.72 464.27 396.71 464.24 396.67 464.17 396.61 464.14 396.51 464.07 396.18 464.04 396.15 464.02 396.14 463.98 396.14 463.96 396.12 463.94 396.05 463.93 396.04 463.92 396.04 463.91 396.03 463.9 396.02 463.89 396.01 463.9 395.99 463.9 395.98 463.9 395.97 463.91 395.94 463.91 395.93 463.9 395.92 463.87 395.91 463.86 395.9 463.84 395.82 463.83 395.8 463.79 395.76 463.64 395.57 463.55 395.47 463.44 395.45 463.41 395.47 463.38 395.54 463.36 395.56 463.33 395.58 463.29 395.58 463.27 395.56 463.26 395.44 463.23 395.39 463.18 395.34 463.13 395.28 463.12 395.22 463.14 395.19 463.18 395.16 463.2 395.12 463.2 395.07 463.18 395.02 463.1 394.94 463.08 394.89 463.03 394.78 463 394.73 462.82 394.57 462.78 394.55 462.74 394.54 462.7 394.54 462.65 394.54 462.59 394.54 462.55 394.52 462.52 394.49 462.48 394.47 462.42 394.48 462.39 394.51 462.36 394.53 462.3 394.48 462.29 394.46 462.29 394.44 462.28 394.42 462.26 394.41 462.1 394.39 462.06 394.4 462.02 394.4 461.98 394.39 461.96 394.34 461.95 394.28 461.92 394.24 461.79 394.17 461.75 394.15 461.69 394.15 461.66 394.16 461.64 394.19 461.6 394.23 461.53 394.25 461.43 394.25 461.33 394.24 461.26 394.22 461.17 394.12 461.16 394.11 461.04 394.01 461 393.96 460.9 393.65 460.89 393.56 460.78 393.38 460.37 393.13 460.32 392.93 460.32 392.86 460.31 392.75 460.29 392.65 460.25 392.59 460.23 392.59 460.17 392.62 460.08 392.63 459.99 392.65 459.97 392.65 459.92 392.65 459.9 392.65 459.87 392.68 459.87 392.73 459.9 392.82 459.9 392.88 459.87 392.91 459.84 392.95 459.81 393 459.79 393.08 459.78 393.27 459.73 393.36 459.66 393.43 459.57 393.48 459.48 393.5 459.37 393.49 459.32 393.49 459.28 393.52 459.26 393.56 459.22 393.59 459.18 393.6 459.14 393.58 459.1 393.55 459.06 393.53 458.98 393.51 458.8 393.5 458.72 393.47 458.68 393.44 458.64 393.41 458.61 393.38 458.55 393.36 458.47 393.36 458.39 393.38 458.36 393.39 458.32 393.42 458.29 393.43 458.27 393.43 458.22 393.4 458.14 393.41 458.1 393.39 458.05 393.36 458 393.34 457.62 393.35 457.59 393.34 457.55 393.32 457.52 393.25 457.49 393.23 457.44 393.21 457.32 393.11 457.31 393.1 457.3 393.1 457.28 393.09 457.26 393.1 457.22 393.12 457.19 393.12 457.07 393.12 457.03 393.11 456.94 393.06 456.87 393 456.79 392.95 456.69 392.95 456.68 392.96 456.67 392.98 456.66 393 456.64 393.01 456.61 393.02 456.59 393.03 456.58 393.04 456.56 393.06 456.52 393.06 456.48 393.04 456.47 393.01 456.49 392.96 456.49 392.94 456.49 392.93 456.48 392.92 456.44 392.89 456.32 392.82 456.3 392.81 456.29 392.79 456.27 392.77 456.24 392.77 456.22 392.77 456.2 392.76 456.18 392.76 456.16 392.74 456.14 392.7 456.08 392.51 456.08 392.47 456.08 392.45 456.09 392.43 456.12 392.4 456.12 392.37 456.1 392.34 456.05 392.25 456.04 392.2 456.03 392.15 456.05 392.12 456.08 392.1 456.1 392.06 456.08 392.04 456.06 392.02 456.05 392 456.07 391.98 456.12 391.97 456.14 391.95 456.14 391.93 456.13 391.88 456.14 391.82 456.13 391.77 456.1 391.75 456.03 391.76 455.82 391.87 455.69 391.89 455.38 391.92 455.29 391.92 455.2 391.94 455.03 392.03 454.95 392.04 454.78 392.04 454.69 392.08 454.67 392.1 454.63 392.16 454.61 392.18 454.58 392.19 454.54 392.2 454.52 392.21 454.5 392.23 454.48 392.25 454.47 392.27 454.47 392.29 454.45 392.31 454.43 392.32 454.4 392.31 454.38 392.31 454.29 392.35 454.24 392.36 454.19 392.35 454.15 392.33 454.07 392.26 454.02 392.23 453.98 392.23 453.89 392.23 453.85 392.21 453.83 392.17 453.86 392.14 453.95 392.12 453.98 392.09 454.05 391.98 454.07 391.94 454.08 391.9 454.08 391.85 454.08 391.8 454.07 391.76 454.05 391.74 454.01 391.71 454 391.68 454 391.65 454.02 391.63 454.04 391.61 454.05 391.58 454.02 391.54 453.97 391.49 453.9 391.45 453.85 391.43 453.81 391.42 453.73 391.42 453.68 391.41 453.6 391.39 453.56 391.39 453.52 391.4 453.48 391.41 453.46 391.38 453.46 391.31 453.46 391.28 453.44 391.24 453.44 391.21 453.44 391.19 453.45 391.15 453.45 391.13 453.4 391.08 453.31 391.05 453.2 391.03 453.13 391.03 453.09 391.05 453.07 391.09 453.06 391.15 453.04 391.19 453.02 391.21 452.97 391.24 452.95 391.26 452.94 391.28 452.92 391.33 452.91 391.35 452.83 391.38 452.74 391.36 452.65 391.33 452.57 391.32 452.48 391.33 452.41 391.32 452.22 391.27 452.08 391.23 451.99 391.23 451.9 391.23 451.81 391.26 451.66 391.34 451.42 391.47 451.24 391.51 451.02 391.54 450.92 391.54 450.83 391.53 450.79 391.51 450.7 391.46 450.66 391.43 450.6 391.43 450.56 391.45 450.51 391.49 450.46 391.52 450.38 391.53 450.29 391.52 450.21 391.5 450.13 391.46 449.96 391.4 449.88 391.41 449.81 391.59 449.74 391.64 449.52 391.72 449.49 391.74 449.39 391.84 449.35 391.87 449.29 391.87 449.33 391.78 449.33 391.69 449.31 391.49 449.29 391.45 449.26 391.38 449.25 391.34 449.24 391.33 449.21 391.31 449.2 391.3 449.2 391.21 449.15 391.05 449.13 391.02 449.13 390.98 449.17 390.93 449.22 390.89 449.26 390.86 449.36 390.82 449.41 390.8 449.45 390.8 449.47 390.78 449.48 390.74 449.47 390.65 449.48 390.64 449.49 390.63 449.45 390.57 449.45 390.49 449.45 390.44 449.45 390.4 449.44 390.31 449.42 390.26 449.4 390.23 449.37 390.2 449.37 390.15 449.38 390.11 449.43 390.02 449.44 389.99 449.45 389.97 449.46 389.92 449.46 389.9 449.45 389.87 449.42 389.83 449.4 389.77 449.35 389.67 449.31 389.57 449.26 389.47 449.22 389.37 449.23 389.29 449.22 389.27 449.2 389.17 449.16 389.05 449.14 388.97 449.12 388.92 449.09 388.89 449.01 388.83 448.97 388.8 448.94 388.79 448.93 388.8 448.91 388.81 448.89 388.8 448.76 388.65 448.74 388.59 448.73 388.51 448.72 388.52 448.68 388.53 448.67 388.54 448.64 388.46 448.5 388.31 448.44 388.22 448.42 388.13 448.39 387.93 448.37 387.84 448.35 387.82 448.32 387.77 448.31 387.75 448.31 387.72 448.33 387.67 448.35 387.6 448.41 387.46 448.44 387.36 448.44 387.27 448.41 387.05 448.44 386.79 448.44 386.68 448.46 386.5 448.48 386.45 448.5 386.37 448.51 386.36 448.53 386.22 448.56 386.05 448.58 385.99 448.62 385.91 448.61 385.91 448.6 385.91 448.59 385.9 448.58 385.9 448.63 385.73 448.64 385.63 448.62 385.54 448.57 385.45 448.54 385.39 448.56 385.37 448.57 385.36 448.59 385.35 448.57 385.31 448.5 385.24 448.49 385.2 448.46 385.1 448.46 385 448.45 384.97 448.44 384.94 448.38 384.87 448.36 384.83 448.34 384.79 448.34 384.73 448.32 384.71 448.25 384.67 448.23 384.65 448.22 384.61 448.21 384.46 448.22 384.44 448.25 384.39 448.26 384.37 448.26 384.34 448.24 384.29 448.26 384.19 448.27 384.15 448.3 384.08 448.31 384.03 448.34 383.95 448.37 383.87 448.38 383.83 448.39 383.8 448.4 383.76 448.4 383.75 448.44 383.71 448.44 383.7 448.44 383.61 448.44 383.59 448.43 383.58 448.43 383.57 448.43 383.54 448.43 383.51 448.45 383.47 448.46 383.44 448.45 383.43 448.43 383.41 448.43 383.39 448.43 383.38 448.44 383.36 448.44 383.35 448.44 383.32 448.42 383.3 448.41 383.29 448.4 383.26 448.4 383.25 448.41 383.24 448.42 383.22 448.41 383.2 448.39 383.18 448.34 383.08 448.33 383.06 448.31 383.05 448.3 383.04 448.29 383.03 448.29 383.03 448.24 383.02 448.17 383.02 448.01 383.03 447.85 383.03 447.69 383.03 447.53 383.03 447.36 383.03 447.2 383.03 447.04 383.03 446.88 383.03 446.72 383.03 446.56 383.03 446.4 383.03 446.24 383.03 446.07 383.03 445.91 383.03 445.75 383.03 445.59 383.03 445.49 383.03 445.48 382.92 445.48 382.82 445.5 382.71 445.54 382.59 445.58 382.5 445.64 382.35 445.69 382.21 445.56 382.21 445.37 382.21 445.18 382.21 445.07 382.21 445.04 382.22 445.02 382.23 445.01 382.26 445 382.3 444.99 382.37 444.99 382.4 444.88 382.4 444.79 382.4 444.69 382.4 444.6 382.4 444.51 382.4 444.41 382.4 444.32 382.4 444.25 382.4 444.23 382.4 444.13 382.4 444.04 382.4 443.95 382.4 443.85 382.4 443.76 382.4 443.67 382.4 443.58 382.4 443.48 382.4 443.39 382.4 443.27 382.4 443.31 382.49 443.32 382.51 443.31 382.55 443.24 382.63 443.22 382.67 443.2 382.74 443.17 383.1 443.18 383.17 443.2 383.24 443.26 383.39 443.25 383.46 443.19 383.51 443.19 383.51 443.19 383.51 443.19 383.51 443.16 383.55 443.13 383.64 443.1 383.67 443.06 383.68 442.91 383.67 442.9 383.73 442.92 383.79 442.94 383.85 442.96 383.91 442.96 383.96 442.95 384.02 442.91 384.15 442.89 384.22 442.86 384.32 442.85 384.39 442.86 384.45 442.9 384.62 442.84 384.62 442.56 384.62 442.28 384.62 442 384.62 441.71 384.62 441.62 384.62 441.58 384.57 441.57 384.54 441.56 384.48 441.54 384.47 441.38 384.47 441.2 384.47 441.05 384.47 441.02 384.49 441.01 384.53 441.03 384.61 440.98 384.61 440.97 384.61 440.83 384.61 440.8 384.62 440.75 384.64 440.71 384.65 440.68 384.65 440.6 384.62 440.49 384.62 440.33 384.61 440.29 384.62 440.2 384.66 440.17 384.67 440.13 384.69 440.11 384.74 440.1 384.8 440.12 384.86 439.92 384.86 439.86 384.85 439.75 384.76 439.68 384.72 439.61 384.72 439.57 384.72 439.43 384.8 439.41 384.8 439.33 384.77 439.26 384.77 439.08 384.83 439.01 384.84 438.89 384.81 438.87 384.79 438.87 384.78 438.85 384.75 438.88 384.69 438.87 384.65 438.85 384.63 438.81 384.61 438.78 384.59 438.77 384.57 438.75 384.5 438.74 384.51 438.73 384.52 438.72 384.53 438.71 384.51 438.71 384.51 438.71 384.5 438.72 384.48 438.67 384.46 438.65 384.44 438.65 384.43 438.66 384.4 438.68 384.38 438.69 384.36 438.66 384.33 438.63 384.34 438.62 384.32 438.62 384.3 438.62 384.27 438.59 384.26 438.56 384.26 438.55 384.26 438.57 384.24 438.57 384.22 438.53 384.22 438.52 384.2 438.52 384.18 438.52 384.16 438.49 384.14 438.44 384.14 438.43 384.13 438.42 384.11 438.38 384.07 438.37 384.04 438.38 384.02 438.39 384 438.39 383.98 438.36 383.97 438.37 383.96 438.37 383.95 438.36 383.95 438.36 383.93 438.32 383.95 438.32 383.91 438.32 383.86 438.31 383.83 438.32 383.78 438.27 383.75 438.17 383.7 438.13 383.65 438.1 383.54 438.07 383.49 438.05 383.47 438.03 383.46 438.01 383.45 438.01 383.42 438.02 383.4 438.04 383.39 438.07 383.38 438.08 383.36 438.07 383.35 438.05 383.34 438.01 383.32 437.99 383.31 437.98 383.31 437.96 383.31 437.95 383.34 437.91 383.32 437.9 383.29 437.9 383.24 437.9 383.21 437.89 383.18 437.87 383.16 437.81 383.13 437.73 383.08 437.67 383.06 437.66 383.03 437.66 383 437.66 382.96 437.62 382.91 437.6 382.88 437.57 382.87 437.56 382.85 437.57 382.73 437.52 382.59 437.53 382.53 437.6 382.55 437.6 382.5 437.62 382.46 437.62 382.43 437.6 382.39 437.59 382.37 437.58 382.36 437.57 382.34 437.55 382.34 437.53 382.33 437.53 382.31 437.53 382.29 437.54 382.28 437.52 382.15 437.49 382.1 437.44 382.06 437.42 382.05 437.36 382.05 437.34 382.04 437.31 382.02 437.3 381.99 437.3 381.95 437.29 381.92 437.17 381.75 437.15 381.71 437.14 381.67 437.14 381.59 437.13 381.55 437.09 381.48 437.09 381.44 437.09 381.4 437.12 381.36 437.12 381.34 437.1 381.31 437.08 381.29 437.07 381.27 437.07 381.25 437.08 381.21 437.03 381.21 437.03 381.19 437.05 381.16 437.06 381.13 437.06 381.1 437.05 381.1 437.03 381.1 437.02 381.09 437.01 381.07 437 381.06 437 380.98 437.01 380.96 437.03 380.95 437.05 380.95 437.06 380.94 437.07 380.92 437.06 380.9 437.06 380.88 437.05 380.86 437.05 380.69 437.06 380.66 437.07 380.63 437.08 380.6 437.06 380.57 437.02 380.52 437.01 380.49 436.99 380.48 436.96 380.47 436.93 380.46 436.89 380.4 436.87 380.38 436.82 380.38 436.87 380.33 436.86 380.3 436.84 380.31 436.82 380.32 436.81 380.32 436.8 380.29 436.79 380.15 436.79 380.13 436.78 380.11 436.75 380.08 436.75 380.07 436.78 380.03 436.79 380.02 436.71 379.97 436.69 379.97 436.61 379.93 436.57 379.92 436.53 379.92 436.49 379.93 436.41 379.95 436.38 379.95 436.34 379.95 436.3 379.92 436.26 379.89 436.22 379.87 436.17 379.86 436.04 379.86 435.83 379.87 435.69 379.87 435.63 379.87 435.43 379.87 435.23 379.88 435.02 379.88 434.82 379.88 434.62 379.89 434.42 379.89 434.22 379.89 434.01 379.9 433.81 379.9 433.61 379.9 433.41 379.91 433.2 379.91 433 379.91 432.8 379.92 432.72 379.92 432.59 379.92 432.31 379.97 432.24 379.96 432.1 379.93 432 379.95 431.8 379.94 431.57 379.94 431.53 379.93 431.39 379.89 431.34 379.88 431.08 379.9 431.05 379.89 430.99 379.86 430.91 379.83 430.61 379.86 430.24 379.88 430.06 379.87 430.04 379.87 430 379.89 429.98 379.89 429.91 379.87 429.73 379.87 429.66 379.86 429.65 379.87 429.6 379.92 429.58 379.94 429.51 379.9 429.41 379.88 429.23 379.86 429.22 379.86 429.23 379.86 429.2 379.85 429.16 379.85 429.09 379.88 429.06 379.88 429.02 379.87 428.97 379.88 428.9 379.87 428.79 379.82 428.76 379.81 428.69 379.78 428.65 379.77 428.59 379.77 428.5 379.78 428.42 379.81 428.37 379.84 428.35 379.85 428.3 379.88 428.27 379.92 428.25 379.96 428.19 380.03 428.2 380.14 428.09 380.18 427.95 380.18 427.83 380.24 427.66 380.28 427.6 380.3 427.56 380.29 427.56 380.26 427.57 380.24 427.61 380.21 427.61 380.16 427.61 380.14 427.59 380.13 427.55 380.13 427.52 380.13 427.51 380.15 427.5 380.16 427.48 380.19 427.45 380.15 427.44 380.11 427.43 380.09 427.42 380.08 427.4 380.07 427.39 380.06 427.34 380 427.19 379.85 427.15 379.8 427.07 379.66 427.17 379.6 427.36 379.57 427.57 379.57 427.73 379.58 427.74 379.37 427.74 379.23 427.75 378.95 427.76 378.69 427.77 378.5 427.78 378.33 427.76 378.26 427.73 378.24 427.6 378.19 427.59 378.18 427.58 378.16 427.57 378.13 427.57 378.11 427.59 378.09 427.6 378.09 427.62 378.09 427.63 378.09 427.82 378.02 427.9 377.97 427.94 377.89 427.95 377.84 427.97 377.83 428.05 377.82 428.1 377.8 428.12 377.78 428.13 377.74 428.15 377.7 428.18 377.67 428.28 377.61 428.3 377.58 428.3 377.53 428.32 377.48 428.34 377.44 428.38 377.4 428.45 377.36 428.88 377.26 428.96 377.23 428.98 377.17 428.98 377.09 429.01 377.04 429.07 377.04 429.11 377.09 429.13 377.13 429.17 377.18 429.2 377.26 429.22 377.28 429.28 377.31 429.38 377.4 429.42 377.43 429.56 377.48 429.59 377.5 429.61 377.52 429.62 377.54 429.64 377.62 429.69 377.72 429.71 377.7 429.77 377.62 429.89 377.54 429.91 377.53 429.92 377.51 429.91 377.49 429.89 377.47 429.96 377.43 429.98 377.43 430.01 377.44 430.06 377.49 430.08 377.5 430.1 377.49 430.13 377.48 430.18 377.39 430.22 377.36 430.24 377.37 430.29 377.38 430.31 377.38 430.33 377.36 430.32 377.32 430.33 377.3 430.35 377.29 430.36 377.29 430.38 377.3 430.4 377.28 430.37 377.18 430.37 377.13 430.41 377.04 430.42 377 430.39 376.79 430.4 376.76 430.43 376.75 430.57 376.7 430.61 376.7 430.66 376.74 430.68 376.76 430.71 376.82 430.74 376.84 430.76 376.85 430.82 376.84 430.82 376.84 430.89 376.86 430.91 376.86 430.93 376.85 430.97 376.8 431.01 376.78 431.01 376.77 431.01 376.77 431.08 376.68 431.16 376.65 431.36 376.62 431.44 376.6 431.53 376.56 431.61 376.48 431.65 376.45 431.75 376.43 431.85 376.38 431.89 376.37 431.9 376.38 431.91 376.4 431.91 376.43 431.91 376.45 431.9 376.49 431.89 376.5 431.89 376.51 431.9 376.54 431.94 376.6 431.98 376.65 432.06 376.7 432.07 376.71 432.07 376.75 432.04 376.8 432 376.84 431.97 376.87 431.95 376.9 431.86 376.93 431.83 376.96 431.81 377 431.81 377.01 431.83 377.06 431.84 377.15 431.88 377.19 431.91 377.22 431.94 377.25 431.94 377.31 431.94 377.33 431.92 377.37 431.92 377.39 431.92 377.42 431.93 377.44 431.94 377.46 431.95 377.48 431.91 377.65 431.92 377.72 431.96 377.71 432 377.71 432.03 377.69 432.08 377.64 432.1 377.63 432.14 377.62 432.19 377.62 432.2 377.64 432.21 377.65 432.26 377.65 432.28 377.65 432.29 377.66 432.31 377.69 432.32 377.7 432.35 377.71 432.42 377.75 432.44 377.76 432.52 377.75 432.59 377.73 432.74 377.64 432.84 377.59 432.88 377.56 432.9 377.53 432.92 377.49 433.1 377.19 433.27 377.02 433.28 376.99 433.3 376.97 433.42 376.91 433.47 376.87 433.58 376.7 433.67 376.58 433.68 376.55 433.7 376.51 433.76 376.48 433.82 376.45 433.86 376.43 434.11 376.3 434.19 376.27 434.25 376.24 434.27 376.23 434.28 376.22 434.33 376.17 434.34 376.15 434.41 375.93 434.43 375.89 434.47 375.86 434.51 375.85 434.83 375.75 434.92 375.73 435.02 375.72 435.12 375.69 435.21 375.64 435.22 375.63 435.27 375.58 435.31 375.45 435.33 375.43 435.34 375.41 435.41 375.29 435.45 375.19 435.48 375.16 435.49 375.11 435.58 374.92 435.72 374.76 435.77 374.66 435.82 374.54 435.93 374.36 435.96 374.29 435.97 374.25 435.97 374.2 435.96 374.17 435.93 374.16 435.91 374.13 435.9 374.08 435.91 373.99 435.91 373.94 435.89 373.9 435.88 373.86 435.89 373.74 435.88 373.62 435.88 373.51 435.87 373.43 435.86 373.3 435.86 373.27 435.87 373.24 435.92 373.08 435.97 372.75 435.89 372.23 435.89 372.12 435.89 372.1 435.88 372.09 435.86 372.06 435.85 372.02 435.86 371.99 435.89 371.89 435.89 371.87 435.88 371.86 435.88 371.81 435.9 371.76 435.93 371.71 435.98 371.64 436.03 371.59 436.1 371.55 436.22 371.43 436.31 371.36 436.45 371.22 436.49 371.18 436.51 371.16 436.52 371.16 436.55 371.14 436.59 371.11 436.61 371.11 436.61 371.08 436.63 371.05 436.63 371.04 436.81 370.81 436.83 370.76 436.85 370.69 436.85 370.62 436.85 370.59 436.86 370.56 436.88 370.52 436.92 370.45 436.95 370.41 437 370.3 437.07 370.21 437.16 370.05 437.19 369.99 437.23 369.91 437.28 369.82 437.3 369.76 437.31 369.75 437.33 369.73 437.38 369.7 437.48 369.62 437.55 369.54 437.64 369.46 437.69 369.4 437.7 369.39 437.71 369.38 437.73 369.37 437.75 369.36 437.82 369.35 437.92 369.32 438.07 369.26 438.12 369.25 438.23 369.23 438.34 369.2 438.37 369.19 438.41 369.14 438.42 369.12 438.48 369.09 438.49 369.08 438.54 369.03 438.6 368.97 438.89 368.62 439.02 368.47 439.06 368.43 439.09 368.4 439.12 368.38 439.13 368.37 439.13 368.37 439.13 368.33 439.14 368.32 439.16 368.3 439.3 368.17 439.33 368.13 439.34 368.1 439.33 367.71 439.27 367.49 439.27 367.44 439.27 367.38 439.36 366.97 439.4 366.89 439.58 366.42 439.77 366.16 439.78 366.12 439.79 365.91 439.79 365.87 439.78 365.83 439.75 365.79 439.72 365.77 439.68 365.67 439.66 365.61 439.66 365.55 439.7 365.38 439.7 365.32 439.63 365.04 439.63 364.87 439.6 364.71 439.62 364.66 439.66 364.58 439.71 364.53 439.8 364.37 439.82 364.33 439.83 364.19 439.9 363.95 439.91 363.87 439.93 363.82 440.06 363.54 440.06 363.49 440.05 362.86 440.05 362.82 440.07 362.75 440.08 362.71 440.08 362.68 440.07 362.58 440.08 362.36 440.07 362.3 440.06 362.23 440.06 362.2 440.15 361.97 440.16 361.94 440.22 361.88 440.23 361.85 440.26 361.84 440.29 361.81 440.32 361.73 440.34 361.69 440.36 361.65 440.37 361.61 440.4 361.48 440.42 361.44 440.45 361.41 440.57 361.29 440.6 361.28 440.6 361.26 440.77 360.98 440.83 360.83 440.84 360.77 440.84 360.74 440.9 360.63 440.94 360.57 440.95 360.55 440.95 360.5 440.96 360.48 441 360.42 441.07 360.2 441.1 360.16 441.15 360.13 441.22 360.09 441.26 360.06 441.27 360.03 441.28 360 441.3 359.95 441.32 359.63 441.31 359.36 441.29 359.3 441.21 358.78 441.26 358.51 441.26 358.44 441.26 358.41 441.26 358.36 441.31 358.28 441.32 358.23 441.33 358.18 441.33 358.04 441.3 357.85 441.27 357.77 441.19 357.62 441.18 357.58 441.17 357.56 441.11 357.5 441.09 357.47 441.1 357.42 441.13 357.36 441.18 357.32 441.22 357.32 441.26 357.35 441.31 357.36 441.35 357.35 441.39 357.34 441.5 357.31 441.57 357.26 441.62 357.19 441.74 356.91 441.79 356.83 441.87 356.77 441.89 356.71 441.9 356.7 441.91 356.69 441.95 356.68 441.96 356.67 442.03 356.54 442.07 356.51 442.11 356.48 442.14 356.45 442.16 356.37 442.18 356.35 442.2 356.34 442.21 356.32 442.23 356.3 442.24 356.23 442.27 356.17 442.3 356.13 442.35 356.09 442.37 356.07 442.41 356.05 442.51 356.05 442.55 356.04 442.59 355.99 442.63 355.93 442.64 355.91 442.75 355.86 442.94 355.74 442.99 355.68 443.02 355.65 443.07 355.63 443.22 355.64 443.26 355.63 443.33 355.6 443.38 355.59 443.46 355.63 443.71 355.63 443.73 355.64 443.78 355.66 443.84 355.67 443.94 355.72 443.98 355.74 444 355.77 444.02 355.8 444.06 355.87 444.07 355.9 444.09 355.93 444.15 355.95 444.34 355.99 444.4 356.03 444.45 356.07 444.52 356.12 444.67 356.18 444.71 356.2 444.81 356.33 444.86 356.36 444.9 356.38 445 356.42 445.05 356.42 445.08 356.44 445.12 356.47 445.16 356.54 445.21 356.65 445.23 356.66 445.27 356.68 445.31 356.72 445.35 356.77 445.36 356.82 445.35 356.85 445.32 356.88 445.31 356.93 445.34 356.97 445.35 356.98 445.57 357.2 445.62 357.23 445.67 357.24 445.86 357.21 446.04 357.21 446.09 357.2 446.12 357.18 446.15 357.16 446.18 357.15 446.27 357.14 446.47 357.18 446.68 357.26 446.72 357.27 446.74 357.29 446.78 357.36 446.8 357.39 446.86 357.41 446.88 357.42 446.9 357.46 446.92 357.46 446.96 357.47 446.98 357.47 447 357.49 447.02 357.5 447.05 357.5 447.07 357.48 447.08 357.47 447.09 357.45 447.11 357.43 447.12 357.42 447.14 357.41 447.16 357.41 447.19 357.41 447.21 357.41 447.23 357.43 447.24 357.44 447.34 357.51 447.38 357.53 447.43 357.54 447.47 357.55 447.57 357.54 447.6 357.55 447.62 357.56 447.64 357.58 447.65 357.59 447.68 357.59 447.72 357.59 447.74 357.6 447.96 357.49 447.99 357.49 448.08 357.5 448.15 357.49 448.18 357.49 448.23 357.51 448.24 357.52 448.25 357.53 448.26 357.54 448.28 357.54 448.35 357.54 448.37 357.54 448.41 357.56 448.44 357.59 448.47 357.61 448.53 357.62 448.66 357.63 448.7 357.62 448.72 357.61 448.73 357.61 448.74 357.6 448.77 357.6 448.79 357.61 448.85 357.64 448.89 357.66 449.01 357.68 449.05 357.69 449.06 357.7 449.1 357.75 449.13 357.76 449.18 357.78 449.23 357.81 449.44 357.86 449.7 357.84 449.72 357.84 449.77 357.82 449.78 357.81 449.86 357.76 449.9 357.72 449.92 357.69 449.92 357.68 449.96 357.64 449.98 357.62 449.98 357.6 449.96 357.55 449.96 357.53 450.03 357.41 450.04 357.39 450.07 357.38 450.1 357.36 450.12 357.34 450.13 357.32 450.12 357.3 450.08 357.25 450.07 357.21 450.07 357.15 450.08 357.1 450.12 357.07 450.22 357.08 450.26 357.07 450.3 357.06 450.31 357.04 450.31 357.01 450.31 356.96 450.32 356.95 450.35 356.93 450.36 356.91 450.36 356.9 450.38 356.86 450.39 356.85 450.38 356.82 450.37 356.78 450.37 356.75 450.4 356.73 450.43 356.71 450.45 356.68 450.46 356.65 450.49 356.57 450.51 356.54 450.55 356.53 450.58 356.54 450.62 356.57 450.66 356.57 450.68 356.51 450.73 356.47 450.75 356.45 450.73 356.43 450.72 356.4 450.72 356.37 450.74 356.35 450.76 356.32 450.77 356.32 450.8 356.33 450.83 356.33 450.85 356.32 450.88 356.31 450.91 356.3 450.93 356.3 450.95 356.32 450.98 356.38 451 356.42 451.01 356.46 451.02 356.49 451.05 356.5 451.08 356.5 451.11 356.51 451.13 356.53 451.15 356.55 451.2 356.57 451.26 356.56 451.36 356.51 451.39 356.54 451.45 356.62 451.47 356.63 451.48 356.64 451.54 356.68 451.57 356.74 451.59 356.75 451.64 356.76 451.65 356.76 451.65 356.77 451.68 356.79 451.68 356.8 451.73 356.8 451.77 356.81 451.81 356.82 451.84 356.85 451.86 356.84 451.9 356.84 451.92 356.83 451.93 356.81 451.93 356.8 451.93 356.78 451.94 356.75 451.95 356.71 451.98 356.69 452.01 356.67 452.07 356.66 452.11 356.65 452.24 356.54 452.29 356.52 452.39 356.5 452.47 356.45 452.52 356.43 452.62 356.42 452.67 356.4 452.75 356.34 452.79 356.33 452.82 356.33 452.86 356.34 452.88 356.35 452.9 356.34 452.92 356.32 452.94 356.32 453.03 356.34 453.09 356.34 453.08 356.31 453.07 356.29 453.07 356.26 453.08 356.24 453.09 356.23 453.11 356.22 453.12 356.22 453.15 356.26 453.19 356.23 453.3 356.18 453.36 356.13 453.4 356.11 453.44 356.1 453.47 356.11 453.51 356.14 453.54 356.15 453.56 356.14 453.62 356.06 453.66 356.03 453.71 356.02 453.75 356.04 453.76 356.09 453.77 356.09 453.79 356.08 453.8 356.06 453.8 356.04 453.81 356.01 453.83 355.95 453.84 355.94 453.86 355.93 454.02 355.91 454.06 355.88 454.08 355.85 454.08 355.83 454.02 355.82 454 355.79 454.02 355.75 454.05 355.7 454.08 355.66 454.09 355.69 454.11 355.75 454.12 355.77 454.15 355.79 454.16 355.77 454.16 355.74 454.17 355.71 454.22 355.7 454.27 355.71 454.28 355.71 454.34 355.74 454.38 355.77 454.39 355.79 454.41 355.83 454.43 355.85 454.45 355.86 454.5 355.87 454.53 355.88 454.55 355.9 454.55 355.94 454.56 355.97 454.59 355.99 454.66 356.01 454.69 356.03 454.66 356.07 454.65 356.09 454.67 356.1 454.82 356.12 454.86 356.11 454.9 356.09 454.93 356.11 454.95 356.11 454.97 356.09 455 356.07 455.02 356.06 455.03 356.06 455.06 356.07 455.08 356.07 455.12 356.06 455.2 356.01 455.26 356 455.27 355.99 455.31 355.96 455.32 355.95 455.35 355.95 455.43 355.98 455.51 356.02 455.59 356.04 455.6 356.04 455.62 355.99 455.64 355.95 455.65 355.94 455.67 355.93 455.69 355.91 455.7 355.89 455.73 355.89 455.74 355.9 455.76 355.91 455.78 355.92 455.92 355.91 455.95 355.9 455.97 355.88 456.06 355.87 456.1 355.86 456.12 355.84 456.13 355.82 456.13 355.76 456.14 355.74 456.17 355.7 456.18 355.69 456.18 355.66 456.19 355.62 456.19 355.6 456.17 355.59 456.13 355.58 456.11 355.57 456.1 355.52 456.12 355.49 456.15 355.46 456.16 355.43 456.16 355.38 456.18 355.33 456.21 355.3 456.25 355.29 456.22 355.25 456.24 355.23 456.27 355.22 456.29 355.2 456.33 355.22 456.38 355.21 456.48 355.15 456.49 355.15 456.49 355.15 456.52 355.17 456.53 355.18 456.59 355.16 456.62 355.15 456.6 355.11 456.62 355.1 456.66 355.11 456.69 355.11 456.71 355.11 456.72 355.13 456.73 355.16 456.75 355.18 456.8 355.18 456.79 355.19 456.78 355.2 456.78 355.2 456.77 355.21 456.77 355.23 456.8 355.25 456.82 355.24 456.83 355.23 456.86 355.23 456.87 355.23 456.89 355.25 456.9 355.26 456.9 355.26 456.95 355.27 456.98 355.29 457.04 355.36 457.07 355.38 457.1 355.39 457.13 355.39 457.15 355.36 457.12 355.35 457.14 355.34 457.17 355.35 457.18 355.41 457.19 355.4 457.21 355.4 457.22 355.39 457.22 355.42 457.22 355.44 457.23 355.46 457.25 355.5 457.27 355.49 457.29 355.47 457.3 355.45 457.35 355.45 457.38 355.48 457.4 355.52 457.44 355.56 457.44 355.51 457.47 355.49 457.51 355.48 457.54 355.5 457.54 355.46 457.55 355.44 457.57 355.43 457.6 355.44 457.63 355.45 457.66 355.49 457.69 355.51 457.72 355.5 457.75 355.49 457.77 355.49 457.78 355.49 457.79 355.47 457.8 355.46 457.82 355.46 457.84 355.47 457.84 355.45 457.83 355.39 457.84 355.4 457.85 355.4 457.87 355.41 457.88 355.41 457.9 355.4 457.91 355.38 457.92 355.36 457.95 355.38 457.97 355.4 457.98 355.42 458.01 355.41 458.02 355.42 458.04 355.43 458.04 355.44 458.07 355.42 458.07 355.41 458.09 355.48 458.11 355.49 458.13 355.48 458.13 355.49 458.13 355.53 458.14 355.52 458.17 355.52 458.18 355.51 458.2 355.55 458.24 355.58 458.28 355.6 458.34 355.61 458.38 355.61 458.42 355.61 458.44 355.63 458.45 355.62 458.5 355.6 458.52 355.64 458.55 355.66 458.59 355.68 458.61 355.7 458.65 355.79 458.66 355.8 458.69 355.81 458.75 355.83 458.79 355.83 458.8 355.83 458.83 355.82 458.86 355.8 458.88 355.79 458.89 355.8 458.92 355.77 458.96 355.76 459 355.76 459.02 355.79 459.03 355.79 459.04 355.76 459.06 355.76 459.09 355.77 459.11 355.76 459.14 355.74 459.17 355.73 459.27 355.73 459.3 355.73 459.32 355.74 459.41 355.84 459.43 355.85 459.44 355.85 459.46 355.82 459.48 355.82 459.49 355.82 459.51 355.83 459.51 355.84 459.52 355.85 459.56 355.85 459.57 355.84 459.59 355.82 459.61 355.8 459.63 355.74 459.64 355.73 459.7 355.65 459.77 355.6 459.83 355.56 459.91 355.51 460.01 355.48 460.11 355.49 460.2 355.52 460.38 355.61 460.43 355.63 460.48 355.63 460.52 355.64 460.55 355.66 460.58 355.69 460.61 355.71 460.63 355.72 460.65 355.72 460.69 355.73 460.72 355.73 460.75 355.75 460.77 355.76 460.83 355.78 Z" fill-rule="evenodd" id="Democratic Republic of the Congo" transform="translate(-427.07000732421875,-355.1000061035156) "/></svg>