<svg xmlns="http://www.w3.org/2000/svg" viewBox="0 0 15.649993896484375 12.649993896484375"><path d="M 424.95 221.3 425.06 221.38 425.1 221.4 425.13 221.43 425.2 221.58 425.25 221.61 425.31 221.63 425.7 221.85 425.68 221.78 425.65 221.74 425.65 221.71 425.7 221.67 425.76 221.67 425.82 221.64 425.84 221.64 425.82 221.6 425.81 221.55 425.82 221.5 425.82 221.46 425.99 221.61 426.01 221.67 426.06 221.73 426.09 221.76 426.13 221.77 426.11 221.79 426.1 221.8 426.13 221.87 426.24 221.96 426.26 221.99 426.27 222.06 426.28 222.09 426.28 222.11 426.26 222.15 426.23 222.18 426.21 222.19 426.19 222.2 426.17 222.24 426.26 222.28 426.25 222.37 426.18 222.45 426.08 222.48 425.74 222.4 425.62 222.43 425.52 222.48 425.43 222.56 425.38 222.55 425.18 222.43 425.04 222.31 424.8 222.15 424.69 222.13 424.57 222.07 424.45 222.04 424.4 222 424.38 221.94 424.4 221.88 424.45 221.85 424.52 221.86 424.58 221.85 424.62 221.77 424.59 221.76 424.56 221.73 424.44 221.59 424.43 221.56 424.43 221.49 424.46 221.43 424.55 221.32 424.58 221.34 424.9 221.27 424.95 221.3 Z M 422.94 221.52 422.97 221.53 423.01 221.53 423.03 221.53 423.04 221.49 423.03 221.43 423.06 221.48 423.09 221.59 423.11 221.61 423.16 221.61 423.19 221.61 423.19 221.58 423.16 221.51 423.2 221.54 423.24 221.57 423.27 221.61 423.27 221.67 423.29 221.68 423.32 221.69 423.14 221.73 423.09 221.79 423.07 221.8 423.02 221.77 422.64 221.36 422.6 221.27 422.59 221.21 422.62 221.25 422.81 221.35 422.86 221.4 422.91 221.49 422.94 221.52 Z M 427.79 221.11 427.83 221.25 427.82 221.29 427.8 221.31 427.77 221.32 427.71 221.32 427.45 221.27 427.37 221.28 427.3 221.31 427.22 221.37 427.1 221.54 427.06 221.56 427 221.55 426.85 221.48 426.85 221.46 426.89 221.46 426.88 221.42 426.89 221.39 426.91 221.36 426.93 221.35 426.92 221.34 426.9 221.31 426.89 221.3 426.94 221.24 426.96 221.23 426.99 221.25 427.01 221.22 426.99 221.16 427.03 221.17 427.08 221.21 427.11 221.22 427.14 221.21 427.21 221.18 427.24 221.16 427.22 221.13 427.22 221.1 427.23 221.07 427.25 221.06 427.25 221.03 427.18 220.98 427.16 220.95 427.15 220.92 427.16 220.89 427.18 220.87 427.22 220.87 427.27 220.96 427.34 220.99 427.52 221.01 427.72 221.05 427.79 221.11 Z M 421.71 220.81 421.84 220.97 421.91 221.01 422.01 221.02 422.08 221.06 422.14 221.13 422.19 221.22 422.22 221.28 422.31 221.54 422.31 221.58 422.28 221.59 422.22 221.59 422.18 221.6 422.14 221.64 422.1 221.66 422.06 221.65 422.03 221.62 421.93 221.59 421.89 221.56 421.89 221.53 421.95 221.51 422.02 221.54 422.09 221.58 422.15 221.61 422.15 221.59 422.04 221.49 421.94 221.46 421.92 221.46 421.9 221.46 421.86 221.5 421.84 221.51 421.76 221.5 421.68 221.44 421.64 221.34 421.64 221.22 421.63 221.22 421.63 221.19 421.68 221.23 421.73 221.29 421.78 221.33 421.83 221.32 421.82 221.31 421.8 221.28 421.8 221.26 421.8 221.25 421.82 221.24 421.8 221.22 421.71 221.15 421.69 221.12 421.72 221.09 421.72 221.06 421.55 221.08 421.52 221.07 421.49 221.06 421.47 221.05 421.44 221.04 421.43 221.01 421.44 220.99 421.48 220.96 421.49 220.93 421.45 220.93 421.42 220.94 421.38 220.95 421.34 220.93 421.34 220.9 421.54 220.81 421.62 220.79 421.71 220.81 Z M 424.02 221.36 423.81 222.07 423.79 222.12 423.76 222.14 423.7 222.14 423.68 222.1 423.62 221.88 423.6 221.84 423.57 221.8 423.5 221.74 423.55 221.74 423.59 221.73 423.62 221.69 423.65 221.64 423.67 221.57 423.68 221.55 423.7 221.57 423.72 221.58 423.77 221.56 423.77 221.52 423.76 221.48 423.74 221.5 423.72 221.5 423.7 221.5 423.68 221.48 423.71 221.39 423.76 221.32 423.88 221.17 423.94 221.14 424.06 220.95 424.08 220.84 424.15 220.65 424.24 220.51 424.29 220.53 424.18 221.01 424.14 221.13 424.02 221.36 Z M 433 220.22 433.09 220.29 433.15 220.28 433.19 220.29 433.23 220.37 433.25 220.39 433.28 220.41 433.44 220.53 433.54 220.56 433.59 220.61 433.58 220.63 433.57 220.64 433.57 220.65 433.56 220.66 433.57 220.72 433.58 220.75 433.57 220.79 433.55 220.83 433.5 220.91 433.49 220.95 433.49 220.98 433.49 221.01 433.5 221.05 433.47 221.09 433.44 221.13 433.41 221.16 433.3 221.13 433.21 221.12 433.09 221.07 432.94 220.98 432.76 220.93 432.58 220.78 432.55 220.73 432.58 220.65 432.59 220.49 432.6 220.25 432.61 220.21 432.62 220.17 432.67 220.09 432.69 220.03 432.7 219.97 432.72 219.93 432.75 219.95 432.84 220.08 432.87 220.11 432.92 220.16 433 220.22 Z M 418.65 219.42 418.68 219.44 418.73 219.44 418.76 219.47 418.76 219.51 418.73 219.6 418.74 219.64 418.75 219.68 418.77 219.75 418.79 219.79 418.73 219.81 418.68 219.75 418.63 219.65 418.56 219.47 418.54 219.38 418.56 219.33 418.64 219.31 418.65 219.42 Z M 422.92 218.75 423.07 218.86 423.1 218.9 423.13 218.95 423.15 218.98 423.17 218.99 423.21 218.99 423.25 219.01 423.32 219.05 423.28 219.04 423.25 219.04 423.22 219.06 423.21 219.1 423.22 219.12 423.25 219.15 423.26 219.17 423.24 219.2 423.23 219.21 423.2 219.21 423.18 219.22 423.1 219.34 423.13 219.41 423.21 219.41 423.26 219.32 423.28 219.33 423.42 219.25 423.51 219.22 423.52 219.21 423.51 219.19 423.5 219.16 423.49 219.15 423.47 219.14 423.45 219.13 423.43 219.11 423.42 219.09 423.43 219.06 423.46 219.07 423.49 219.1 423.5 219.12 423.53 219.07 423.52 219.01 423.5 218.94 423.48 218.88 423.49 218.9 423.53 218.93 423.53 218.87 423.52 218.77 423.52 218.74 423.56 218.74 423.62 218.81 423.73 218.99 423.73 219.01 423.73 219.05 423.74 219.08 423.75 219.09 423.76 219.1 423.8 219.15 423.82 219.2 423.81 219.23 423.79 219.25 423.73 219.3 423.62 219.34 423.47 219.33 423.43 219.33 423.41 219.36 423.39 219.41 423.42 219.43 423.45 219.43 423.48 219.41 423.47 219.39 423.47 219.38 423.49 219.34 423.53 219.35 423.68 219.39 423.71 219.42 423.93 219.73 423.95 219.77 424 219.94 424.02 220 424 220 423.97 219.96 423.93 219.93 423.9 219.94 423.88 220.01 423.89 220.06 423.95 220.15 423.97 220.21 423.97 220.3 423.97 220.37 423.95 220.44 423.92 220.52 423.91 220.55 423.91 220.62 423.9 220.64 423.85 220.72 423.83 220.76 423.81 220.81 423.79 220.85 423.76 220.87 423.73 220.88 423.64 220.87 423.54 220.87 423.51 220.88 423.47 220.9 423.43 220.93 423.4 220.97 423.36 221.01 423.31 221 423.23 220.95 423.08 220.94 423.03 220.93 423.01 220.91 422.99 220.9 422.97 220.88 422.94 220.87 422.89 220.88 422.86 220.88 422.69 220.77 422.62 220.76 422.6 220.79 422.6 220.87 422.57 220.85 422.52 220.79 422.48 220.77 422.44 220.77 422.35 220.79 422.31 220.77 422.48 220.64 422.51 220.58 422.47 220.53 422.45 220.46 422.42 220.41 422.38 220.39 422.34 220.4 422.32 220.42 422.29 220.43 422.25 220.42 422.2 220.37 422.17 220.36 422.15 220.39 422.15 220.46 422.23 220.57 422.22 220.64 422.21 220.64 422.13 220.63 422.13 220.62 422.13 220.6 422.13 220.58 422.14 220.58 422.14 220.57 422.14 220.54 422.11 220.45 422.1 220.41 422.11 220.37 422.12 220.33 422.12 220.3 422.09 220.28 422 220.26 421.97 220.24 421.95 220.22 421.93 220.2 421.93 220.18 421.91 220.14 421.9 220.12 421.91 220.1 421.93 220.06 421.93 220.04 421.93 220 421.91 219.93 421.9 219.91 421.91 219.77 421.89 219.75 421.85 219.75 421.79 219.76 421.76 219.75 421.73 219.72 421.67 219.65 421.71 219.64 421.75 219.63 421.79 219.62 421.81 219.57 421.69 219.52 421.71 219.52 421.77 219.52 421.74 219.47 421.7 219.45 421.62 219.44 421.58 219.42 421.51 219.33 421.51 219.31 421.57 219.33 421.63 219.39 421.69 219.43 421.75 219.41 421.53 219.22 421.45 219.2 421.47 219.16 421.49 219.14 421.51 219.14 421.54 219.12 421.62 219.01 421.74 218.99 421.78 218.99 421.79 219.02 421.79 219.05 421.81 219.09 421.92 219.15 422.03 219.11 422.25 218.96 422.54 218.86 422.64 218.79 422.69 218.77 422.75 218.77 422.77 218.77 422.77 218.78 422.79 218.84 422.79 218.85 422.82 218.84 422.83 218.81 422.82 218.73 422.85 218.72 422.92 218.75 Z M 427.88 218.97 427.83 218.99 427.79 218.91 427.75 218.81 427.75 218.72 427.78 218.67 427.81 218.63 427.83 218.61 427.86 218.58 427.88 218.53 427.92 218.43 427.95 218.4 427.96 218.42 427.96 218.43 427.96 218.45 428.09 218.77 428.1 218.79 428.02 218.88 427.98 218.89 427.94 218.91 427.91 218.94 427.88 218.97 Z M 423.54 217.69 423.58 217.75 423.61 217.73 423.63 217.69 423.64 217.67 423.65 217.69 423.62 217.75 423.56 217.83 423.55 217.9 423.55 218.03 423.53 218.1 423.46 218.17 423.38 218.14 423.32 218.05 423.3 217.91 423.31 217.83 423.34 217.8 423.37 217.78 423.41 217.75 423.44 217.7 423.45 217.64 423.45 217.57 423.42 217.5 423.38 217.47 423.34 217.45 423.31 217.41 423.32 217.31 423.34 217.26 423.37 217.23 423.4 217.24 423.42 217.4 423.45 217.47 423.5 217.51 423.56 217.53 423.54 217.57 423.53 217.61 423.53 217.65 423.54 217.69 Z M 427.33 216.72 427.52 216.83 427.68 216.83 427.72 216.85 427.8 216.92 427.86 216.95 427.98 217.05 427.95 217.11 427.86 217.23 427.83 217.3 427.77 217.46 427.74 217.5 427.74 217.53 427.8 217.62 427.83 217.68 427.84 217.73 427.85 217.81 427.88 217.89 427.91 217.97 427.93 218.02 427.93 218.06 427.92 218.11 427.92 218.19 427.91 218.26 427.9 218.29 427.91 218.31 427.91 218.33 427.93 218.37 427.89 218.43 427.8 218.6 427.72 218.66 427.7 218.71 427.68 218.75 427.63 218.77 427.59 218.76 427.57 218.74 427.54 218.72 427.49 218.72 427.33 218.81 427.29 218.86 427.15 219 427.15 219 427.04 219.23 427.1 219.44 427.21 219.53 427.24 219.55 427.38 219.56 427.42 219.57 427.51 219.65 427.56 219.71 427.59 219.77 427.59 219.84 427.6 219.9 427.63 220 427.6 220.04 427.59 220.05 427.47 220.14 427.01 220.24 426.97 220.28 426.91 220.32 426.87 220.38 426.84 220.46 426.85 220.53 426.84 220.56 426.82 220.58 426.8 220.57 426.78 220.56 426.8 220.47 426.77 220.42 426.73 220.41 426.68 220.44 426.66 220.46 426.64 220.46 426.63 220.48 426.63 220.52 426.64 220.53 426.7 220.58 426.89 220.6 426.97 220.63 426.99 220.72 426.98 220.75 426.97 220.77 426.95 220.78 426.93 220.79 426.88 220.82 426.86 220.84 426.88 220.85 426.96 221.03 426.96 221.11 426.93 221.15 426.88 221.16 426.83 221.16 426.8 221.18 426.72 221.24 426.67 221.25 426.6 221.21 426.48 221.1 426.4 221.09 426.4 221.1 426.4 221.11 426.41 221.11 426.42 221.11 426.4 221.12 426.4 221.13 426.39 221.14 426.37 221.14 426.38 221.21 426.37 221.26 426.35 221.3 426.34 221.35 426.36 221.39 426.39 221.42 426.42 221.42 426.45 221.4 426.44 221.39 426.43 221.35 426.45 221.35 426.51 221.32 426.52 221.34 426.56 221.41 426.56 221.43 426.58 221.45 426.65 221.52 426.69 221.53 426.73 221.53 426.77 221.52 426.81 221.52 426.85 221.55 426.91 221.64 426.98 221.72 426.98 221.74 426.78 221.91 426.75 221.94 426.66 222.11 426.65 222.14 426.63 222.16 426.57 222.23 426.55 222.24 426.51 222.3 426.51 222.42 426.54 222.64 426.53 222.77 426.49 222.78 426.44 222.72 426.43 222.66 426.4 222.62 426.33 222.48 426.31 222.43 426.31 222.35 426.34 222.29 426.4 222.19 426.36 222.18 426.32 222.16 426.32 222.12 426.34 222.06 426.32 222.04 426.3 222.02 426.28 221.98 426.18 221.87 426.17 221.86 426.16 221.82 426.15 221.79 426.16 221.77 426.16 221.75 426.14 221.72 426.1 221.68 426.07 221.65 426.05 221.61 426.04 221.53 426.04 221.46 426.03 221.41 426.01 221.37 425.96 221.35 425.96 221.32 426.05 221.25 426.07 221.25 426.1 221.26 426.14 221.31 426.17 221.32 426.19 221.31 426.24 221.25 426.25 221.26 426.26 221.28 426.3 221.26 426.34 221.22 426.34 221.19 426.32 221.16 426.28 221.05 426.25 221.01 426.1 220.94 426.06 220.93 426.05 220.92 426.02 220.88 426 220.87 425.86 220.87 425.82 220.84 425.78 220.81 425.75 220.77 425.87 220.79 426.1 220.9 426.22 220.93 426.17 220.84 426.03 220.73 425.97 220.64 426.17 220.6 426.18 220.59 426.17 220.56 426.12 220.52 426 220.53 425.96 220.47 425.99 220.44 426.01 220.39 426.01 220.35 425.97 220.32 425.92 220.32 425.89 220.35 425.85 220.4 425.82 220.42 425.79 220.42 425.71 220.38 425.55 220.34 425.51 220.32 425.47 220.33 425.32 220.27 425.29 220.27 425.23 220.31 425.2 220.32 425.05 220.32 425.05 220.34 425.09 220.37 425.02 220.37 424.96 220.35 424.93 220.29 424.91 220.19 424.94 220.21 424.98 220.21 425 220.19 425.02 220.13 425 220.15 424.97 220.16 424.92 220.16 424.91 220.14 424.92 220.05 424.9 220.02 424.86 220 424.74 219.89 424.72 219.85 424.74 219.84 424.77 219.84 424.8 219.83 424.8 219.79 424.79 219.77 424.76 219.76 424.72 219.76 424.7 219.76 424.68 219.78 424.67 219.81 424.66 219.84 424.62 219.84 424.61 219.82 424.58 219.73 424.58 219.71 424.64 219.71 424.67 219.71 424.69 219.69 424.71 219.67 424.74 219.65 424.76 219.63 424.79 219.63 424.84 219.61 424.86 219.56 424.86 219.51 424.83 219.49 424.84 219.45 424.82 219.36 424.77 219.22 424.75 219.18 424.72 219.14 424.68 219.12 424.64 219.12 424.6 219.15 424.57 219.15 424.56 219.13 424.57 219.08 424.58 219.05 424.6 219.04 424.63 219.04 424.69 219.02 424.71 218.96 424.71 218.89 424.68 218.81 424.58 218.69 424.47 218.62 424.23 218.56 424.23 218.53 424.58 218.56 424.54 218.49 424.4 218.43 424.35 218.4 424.33 218.36 424.31 218.33 424.3 218.31 424.26 218.29 424.14 218.28 424.11 218.26 424.11 218.23 424.46 218.29 424.53 218.27 424.67 218.22 424.74 218.21 424.74 218.23 424.72 218.23 424.7 218.23 424.67 218.24 424.65 218.26 424.69 218.33 424.75 218.38 424.81 218.4 424.87 218.37 424.77 218.29 424.8 218.26 424.83 218.28 424.86 218.29 424.94 218.29 424.98 218.27 425.05 218.22 425.13 218.2 425.16 218.18 425.19 218.15 425.2 218.09 425.2 218.06 425.21 218 425.22 217.98 425.21 217.95 425.17 217.89 425.16 217.86 425.21 217.89 425.27 217.9 425.32 217.88 425.37 217.83 425.44 217.84 425.5 217.74 425.52 217.58 425.44 217.45 425.38 217.42 425.24 217.41 425.06 217.35 425.01 217.3 424.99 217.23 425.27 217.37 425.33 217.36 425.67 217.41 425.71 217.45 425.8 217.44 425.96 217.39 426.04 217.34 426.09 217.34 426.11 217.37 426.1 217.41 426.04 217.48 426.02 217.53 426.05 217.57 426.03 217.6 426 217.61 425.96 217.59 425.97 217.57 425.97 217.53 425.9 217.54 425.87 217.55 425.85 217.59 425.96 217.78 426.01 217.89 425.97 217.96 425.94 217.97 425.87 217.95 425.84 217.96 425.8 218.02 425.77 218.05 425.73 218.05 425.73 218.07 425.77 218.09 425.88 218.07 425.91 218.06 425.94 218.03 425.98 218.01 426.02 218.02 426.04 218.05 426.06 218.11 426.08 218.18 426.07 218.21 425.9 218.24 425.86 218.26 425.84 218.28 425.87 218.31 425.9 218.32 426 218.31 426.02 218.3 426.04 218.28 426.07 218.32 426.13 218.4 426.14 218.45 426.14 218.47 426.13 218.49 426.11 218.56 426.15 218.52 426.18 218.48 426.27 218.28 426.28 218.27 426.28 218.27 426.27 218.24 426.25 218.19 426.25 218.18 426.26 218.13 426.27 218.08 426.31 217.99 426.34 217.95 426.42 217.93 426.46 217.91 426.5 217.8 426.45 217.67 426.4 217.55 426.42 217.48 426.46 217.48 426.53 217.56 426.57 217.59 426.6 217.6 426.6 217.64 426.59 217.69 426.58 217.72 426.59 217.77 426.6 217.79 426.61 217.8 426.63 217.83 426.67 217.94 426.71 218.11 426.72 218.26 426.66 218.34 426.58 218.31 426.54 218.32 426.52 218.38 426.51 218.43 426.43 218.5 426.4 218.56 426.45 218.57 426.51 218.54 426.56 218.48 426.57 218.42 426.6 218.41 426.64 218.42 426.67 218.45 426.69 218.5 426.62 218.48 426.61 218.49 426.63 218.52 426.66 218.55 426.73 218.58 426.75 218.5 426.8 218.37 426.81 218.29 426.72 217.86 426.72 217.72 426.71 217.66 426.66 217.45 426.62 217.4 426.58 217.38 426.54 217.38 426.37 217.45 426.3 217.46 426.26 217.42 426.3 217.33 426.42 217.23 426.63 217.1 426.97 216.81 427.14 216.71 427.33 216.72 Z M 425.67 214.5 425.63 214.52 425.59 214.51 425.55 214.49 425.52 214.44 425.51 214.39 425.54 214.36 425.73 214.34 425.82 214.31 425.82 214.34 425.81 214.34 425.81 214.34 425.79 214.36 425.75 214.38 425.72 214.42 425.7 214.47 425.67 214.5 Z M 419.75 213.39 419.75 213.42 419.75 213.44 419.77 213.49 419.78 213.53 419.77 213.54 419.75 213.67 419.73 213.72 419.72 213.74 419.7 213.75 419.7 213.7 419.69 213.67 419.67 213.65 419.66 213.64 419.6 213.69 419.59 213.7 419.59 213.74 419.59 213.77 419.6 213.79 419.61 213.81 419.63 213.94 419.65 213.98 419.69 214 419.67 214.02 419.66 214.03 419.64 214.03 419.62 214.03 419.64 214.04 419.66 214.06 419.63 214.1 419.59 214.2 419.56 214.25 419.53 214.29 419.44 214.36 419.43 214.43 419.25 214.48 419.19 214.51 419.17 214.5 419.11 214.37 419.09 214.34 419.03 214.28 418.98 214.25 418.97 214.25 418.9 214.28 418.87 214.27 418.88 214.22 418.89 214.2 418.91 214.19 418.93 214.17 418.95 214.17 418.96 214.15 418.96 214.11 418.95 214.07 418.94 214.06 419 214.01 419.16 213.99 419.22 213.92 419.19 213.92 419.16 213.92 419.13 213.91 419.11 213.89 419.12 213.85 419.17 213.8 419.19 213.75 419.18 213.76 419.17 213.72 419.17 213.66 419.18 213.64 419.19 213.64 419.21 213.64 419.23 213.64 419.29 213.62 419.42 213.6 419.49 213.56 419.54 213.58 419.58 213.52 419.66 213.36 419.71 213.4 419.74 213.35 419.76 213.3 419.79 213.31 419.78 213.34 419.75 213.39 Z M 424.8 211.89 424.82 211.94 424.82 211.98 424.8 212.01 424.75 212 424.7 211.98 424.53 212.03 424.57 212.06 424.59 212.12 424.59 212.18 424.53 212.24 424.5 212.29 424.48 212.35 424.45 212.39 424.38 212.41 424.33 212.37 424.28 212.26 424.2 212.25 424.14 212.21 424.1 212.18 424.06 212.13 424.06 212.11 424.14 212.09 424.21 212.02 424.27 211.97 424.35 211.97 424.41 211.95 424.44 211.91 424.61 211.91 424.7 211.86 424.76 211.86 424.79 211.87 424.8 211.89 Z M 420.92 221.85 420.92 221.85 420.89 221.86 420.85 221.86 420.8 221.82 420.76 221.83 420.74 221.85 420.71 221.86 420.69 221.88 420.65 221.89 420.49 221.89 420.45 221.87 420.44 221.82 420.43 221.77 420.42 221.73 420.38 221.7 419.91 221.59 419.74 221.52 419.56 221.49 419.51 221.49 419.36 221.55 419.28 221.55 419.2 221.52 419.22 221.46 419.2 221.43 419.23 221.32 419.21 221.23 419.18 221.13 419.15 221.03 419.16 220.91 419.19 220.8 419.22 220.71 419.24 220.61 419.01 220.57 418.98 220.57 418.97 220.6 418.97 220.75 418.96 220.77 418.93 220.77 418.91 220.81 418.87 220.85 418.84 220.87 418.81 220.86 418.78 220.82 418.75 220.72 418.75 220.63 418.77 220.54 418.78 220.44 418.82 220.36 418.91 220.35 419 220.37 419.05 220.42 419.02 220.43 419 220.45 418.96 220.5 418.96 220.55 419.1 220.57 419.22 220.59 419.26 220.58 419.26 220.5 419.22 220.37 419.19 220.2 419.17 220.04 419.18 219.99 419.19 219.94 419.2 219.91 419.2 219.86 419.17 219.76 419.15 219.58 419.13 219.5 419.1 219.43 419.05 219.38 418.97 219.36 418.82 219.36 418.71 219.32 418.62 219.24 418.42 218.94 418.42 218.91 418.47 218.9 418.47 218.88 418.43 218.86 418.38 218.86 418.33 218.87 418.29 218.9 418.26 218.96 418.27 218.99 418.34 219.06 418.32 219.07 418.3 219.08 418.27 219.12 418.32 219.13 418.38 219.17 418.44 219.22 418.46 219.29 418.43 219.3 418.16 219.08 418.11 219.05 417.98 219.03 417.94 218.99 417.94 218.93 418.07 218.6 418.11 218.45 418.14 218.29 418.14 218.13 418.03 217.35 418.02 217.31 418.02 217.31 418.01 217.29 418.02 217.27 418.02 217.26 418.04 217.26 418.04 217.27 418.05 217.28 418.05 217.29 418.07 217.31 418.12 217.61 418.16 217.72 418.17 217.76 418.16 217.8 418.14 217.85 418.14 217.9 418.14 217.95 418.16 217.96 418.26 217.91 418.37 217.82 418.42 217.8 418.5 217.74 418.59 217.64 418.61 217.58 418.59 217.51 418.56 217.44 418.52 217.38 418.44 217.27 418.44 217.15 418.42 217.01 418.36 216.92 418.28 216.86 418.11 216.79 418.07 216.78 418.05 216.81 418.05 216.98 418.04 217.06 418.03 217.15 418.04 217.22 418.03 217.24 418 217.23 417.99 217.21 417.98 217.17 417.97 217.12 417.96 216.84 417.97 216.75 418.02 216.5 418.03 216.4 418 215.02 418.01 214.96 418.03 214.89 418.13 214.54 418.17 214.43 418.21 214.38 418.22 214.39 418.23 214.42 418.25 214.44 418.25 214.47 418.2 214.6 418.18 214.64 418.18 214.67 418.2 214.68 418.21 214.69 418.25 214.69 418.26 214.71 418.27 214.75 418.28 214.79 418.3 214.8 418.39 214.82 418.41 214.84 418.38 214.86 418.39 214.89 418.38 214.96 418.39 215 418.41 215.01 418.43 215 418.44 214.97 418.43 214.94 418.43 214.91 418.49 214.89 418.6 214.89 418.7 214.91 418.74 214.95 418.76 214.96 418.87 215.05 418.9 215.04 418.93 215 418.96 214.96 418.97 214.91 418.99 214.91 419.05 215.1 419.06 215.13 419.05 215.15 419.05 215.19 419.07 215.22 419.1 215.25 419.15 215.31 419.17 215.33 419.21 215.33 419.34 215.3 419.36 215.29 419.37 215.27 419.38 215.24 419.38 215.2 419.38 215.14 419.38 215.1 419.4 215.02 419.41 215 419.42 214.99 419.42 214.98 419.41 214.94 419.34 214.89 419.32 214.88 419.3 214.87 419.29 214.85 419.29 214.82 419.28 214.78 419.24 214.76 419.24 214.72 419.27 214.69 419.38 214.69 419.52 214.44 419.55 214.42 419.64 214.4 419.77 214.39 419.77 214.38 419.72 214.36 419.62 214.36 419.6 214.34 419.62 214.26 419.65 214.2 419.68 214.17 419.75 214.11 419.85 214.01 419.89 214 419.92 214.01 419.96 214.03 419.98 214.03 420.01 214.02 420.02 214.01 420.03 213.99 420.05 213.97 420.09 213.97 420.14 213.99 420.18 214.02 420.2 214.07 420.22 214.17 420.25 214.22 420.28 214.26 420.31 214.31 420.34 214.39 420.28 214.41 420.21 214.51 420.16 214.53 420.16 214.56 420.17 214.59 420.14 214.63 420.08 214.69 420.06 214.75 420.06 214.8 420.07 214.93 420.08 214.97 420.12 214.96 420.16 214.92 420.19 214.78 420.22 214.78 420.26 214.78 420.29 214.78 420.28 214.74 420.26 214.72 420.24 214.73 420.22 214.75 420.24 214.7 420.25 214.67 420.27 214.64 420.28 214.58 420.29 214.58 420.28 214.67 420.34 214.69 420.42 214.67 420.47 214.68 420.5 214.7 420.53 214.69 420.56 214.7 420.58 214.75 420.58 214.79 420.53 214.86 420.5 214.91 420.53 214.92 420.53 214.94 420.54 214.97 420.55 215 420.57 215.02 420.63 215.05 420.64 215.07 420.64 215.09 420.65 215.11 420.67 215.11 420.71 215.04 420.72 215.02 420.75 215.05 420.78 215.02 420.78 214.97 420.73 214.94 420.66 214.98 420.65 214.99 420.64 215 420.62 215 420.6 214.98 420.6 214.96 420.61 214.94 420.61 214.94 420.62 214.79 420.65 214.66 420.67 214.55 420.67 214.55 420.63 214.44 420.61 214.42 420.59 214.41 420.55 214.42 420.46 214.46 420.44 214.49 420.39 214.52 420.34 214.52 420.32 214.47 420.35 214.42 420.45 214.36 420.48 214.29 420.49 214.24 420.48 214.21 420.43 214.19 420.41 214.17 420.39 214.14 420.37 214.11 420.36 214.09 420.35 214.05 420.34 214 420.34 213.95 420.35 213.94 420.4 213.85 420.41 213.84 420.42 213.81 420.42 213.77 420.41 213.72 420.39 213.7 420.37 213.69 420.35 213.68 420.31 213.64 420.35 213.54 420.39 213.46 420.44 213.4 420.51 213.32 420.52 213.32 420.54 213.31 420.56 213.31 420.57 213.29 420.58 213.24 420.59 213.22 420.92 213.11 420.99 213.12 421.25 213.22 421.25 213.25 421.22 213.27 421.22 213.3 421.24 213.32 421.27 213.34 421.3 213.34 421.32 213.31 421.4 213.19 421.44 213.11 421.48 213.05 421.56 213.02 421.64 212.97 421.74 213 421.98 212.97 421.85 212.85 421.78 212.83 421.74 212.79 421.71 212.78 421.7 212.79 421.62 212.9 421.58 212.94 421.53 212.96 421.49 212.93 421.45 212.89 421.4 212.9 421.33 212.97 421.24 213.01 421.05 213.02 420.54 213.2 420.49 213.2 420.45 213.18 420.2 212.97 420.22 213.03 420.2 213.06 420.13 213.09 420.07 213.13 420.04 213.14 420.01 213.14 420.02 213.12 419.98 213.09 419.94 213.1 419.9 213.13 419.87 213.17 419.83 213.17 419.79 213.21 419.75 213.26 419.73 213.27 419.71 213.21 419.67 213.19 419.62 213.2 419.58 213.22 419.61 213.26 419.53 213.34 419.42 213.39 419.34 213.37 419.29 213.38 419.24 213.41 419.22 213.43 419.2 213.51 419.17 213.56 419.14 213.6 419.11 213.64 419.1 213.76 419.1 213.77 419.09 213.8 419.08 213.82 419.07 213.84 419 213.95 418.95 213.95 418.92 213.96 418.91 213.99 418.9 214 418.86 214.02 418.82 214.05 418.81 214.1 418.82 214.24 418.82 214.3 418.79 214.34 418.79 214.36 418.88 214.35 418.9 214.36 418.91 214.41 418.9 214.45 418.87 214.47 418.84 214.47 418.82 214.46 418.77 214.43 418.74 214.42 418.71 214.42 418.67 214.46 418.64 214.47 418.64 214.5 418.74 214.47 418.78 214.48 418.82 214.52 418.84 214.53 419 214.46 419.03 214.47 419.04 214.5 419.03 214.58 419.03 214.61 419.07 214.67 419.08 214.7 419.05 214.76 419.03 214.79 419 214.8 418.96 214.81 418.95 214.82 418.95 214.84 418.97 214.86 418.93 214.86 418.87 214.8 418.81 214.73 418.79 214.68 418.77 214.62 418.72 214.57 418.66 214.54 418.6 214.53 418.56 214.51 418.51 214.45 418.47 214.39 418.44 214.34 418.42 214.19 418.4 214.17 418.37 214.16 418.31 214.12 418.27 214.11 418.31 214.26 418.32 214.35 418.31 214.4 418.28 214.41 418.26 214.33 418.26 214.14 418.28 213.97 418.33 213.85 418.73 213.2 418.85 213.07 419.03 212.78 419.1 212.71 419.18 212.71 419.37 212.78 419.47 212.79 419.67 212.74 419.76 212.69 419.87 212.58 419.91 212.56 420.46 212.64 420.66 212.61 420.86 212.54 421.05 212.41 421.22 212.22 421.7 211.34 421.78 211.21 421.93 211.04 422.01 210.89 422.04 210.87 422.09 210.79 422.2 210.77 422.41 210.79 422.6 210.75 422.79 210.67 422.94 210.55 423.21 210.27 423.36 210.16 423.42 210.14 423.49 210.13 423.55 210.15 423.61 210.19 423.48 210.24 423.37 210.35 423.19 210.63 423.12 210.88 423.18 211.06 423.29 211.23 423.38 211.44 423.31 211.62 423.31 211.83 423.36 212.25 423.32 212.31 423.21 212.39 423.16 212.46 423.08 212.63 423.04 212.74 423.02 212.91 422.96 213.11 422.94 213.17 422.92 213.2 422.9 213.22 422.88 213.22 422.77 213.22 422.74 213.23 422.7 213.24 422.51 213.12 422.38 212.97 422.28 212.93 422.21 212.85 422.15 212.84 422.11 212.86 422.05 212.96 422 212.97 422.05 212.98 422.09 212.92 422.13 212.89 422.17 212.87 422.22 212.89 422.44 213.12 422.51 213.16 422.59 213.24 422.64 213.25 422.82 213.26 422.86 213.28 422.8 213.36 422.79 213.39 422.78 213.45 422.76 213.56 422.76 213.59 422.77 213.65 422.8 213.86 422.81 214.02 422.82 214.11 422.88 214.28 422.89 214.31 422.92 214.33 422.92 214.36 422.89 214.39 422.87 214.39 422.82 214.37 422.79 214.36 422.69 214.36 422.66 214.38 422.62 214.42 422.58 214.38 422.54 214.35 422.49 214.34 422.44 214.36 422.39 214.4 422.37 214.41 422.33 214.42 422.3 214.43 422.23 214.49 422.15 214.52 422.05 214.59 421.74 214.64 421.74 214.67 421.84 214.68 422.17 214.58 422.24 214.54 422.28 214.53 422.28 214.52 422.29 214.5 422.29 214.48 422.31 214.47 422.32 214.48 422.35 214.5 422.37 214.5 422.39 214.5 422.42 214.48 422.44 214.46 422.45 214.43 422.47 214.38 422.5 214.37 422.57 214.39 422.57 214.41 422.56 214.44 422.59 214.45 422.7 214.47 422.8 214.47 422.85 214.43 422.91 214.41 422.95 214.5 422.96 214.63 422.92 214.75 422.77 214.86 422.66 214.99 422.64 215 422.63 215.13 422.62 215.16 422.64 215.21 422.63 215.27 422.6 215.32 422.57 215.35 422.64 215.35 422.67 215.33 422.66 215.17 422.67 215.06 422.69 215.01 422.79 214.94 422.86 214.84 422.9 214.82 422.94 214.84 422.95 214.87 422.96 214.96 422.97 214.98 422.98 215 423.04 215.05 423.21 215.15 423.39 215.17 423.92 215.08 423.99 215.09 424.06 215.13 424.09 215.17 424.17 215.3 424.3 215.44 424.3 215.46 424.25 215.51 424.22 215.6 424.21 215.71 424.21 215.8 424.19 215.89 423.98 216.18 423.88 216.26 423.84 216.31 423.83 216.36 423.84 216.49 423.8 216.61 423.73 216.62 423.66 216.56 423.61 216.47 423.66 216.46 423.69 216.44 423.7 216.39 423.69 216.34 423.67 216.32 423.64 216.32 423.61 216.3 423.56 216.28 423.51 216.34 423.46 216.43 423.38 216.51 423.4 216.61 423.43 216.71 423.44 216.77 423.42 216.8 423.38 216.82 423.34 216.82 423.32 216.81 423.29 216.78 423.27 216.7 423.26 216.66 423.27 216.65 423.31 216.62 423.33 216.61 423.32 216.57 423.3 216.55 423.2 216.52 423.18 216.52 423.13 216.55 423.07 216.57 423.03 216.54 423 216.48 422.95 216.42 423 216.41 423.08 216.35 423.12 216.34 423.15 216.36 423.19 216.4 423.23 216.42 423.26 216.36 423.22 216.3 423.22 216.25 423.29 216.12 423.26 216.12 423.22 216.1 423.19 216.08 423.17 216.05 423.15 216.03 423.09 216.06 423.06 216.04 423.05 216.09 423.04 216.12 423.02 216.14 422.99 216.14 422.97 216.17 422.91 216.3 422.86 216.37 422.74 216.47 422.69 216.54 422.65 216.63 422.67 216.69 422.71 216.75 422.74 216.83 422.76 216.93 422.75 217 422.72 217.07 422.68 217.15 422.73 217.13 422.77 217.12 422.78 217.15 422.73 217.27 422.72 217.32 422.72 217.42 422.72 217.49 422.72 217.52 422.71 217.56 422.66 217.63 422.65 217.65 422.64 217.65 422.61 217.67 422.59 217.69 422.57 217.72 422.58 217.73 422.6 217.77 422.61 217.81 422.59 217.84 422.58 217.86 422.57 217.88 422.55 217.88 422.52 217.88 422.5 217.86 422.47 217.8 422.46 217.78 422.45 217.75 422.44 217.72 422.42 217.69 422.39 217.68 422.18 217.69 422.15 217.7 422.13 217.73 422.12 217.75 422.1 217.77 422.04 217.8 421.93 217.79 421.87 217.8 421.93 217.87 422.25 217.94 422.27 217.95 422.26 217.99 422.22 218.07 422.21 218.14 422.21 218.17 422.24 218.18 422.3 218.18 422.3 218.21 422.21 218.26 422.18 218.3 422.21 218.37 422.2 218.37 422.18 218.4 422.13 218.36 421.88 218.44 421.77 218.5 421.71 218.5 421.57 218.45 421.49 218.38 421.47 218.37 421.24 218.37 421.19 218.34 421.18 218.36 421.18 218.37 421.18 218.38 421.18 218.4 421.22 218.42 421.38 218.42 421.41 218.44 421.52 218.56 421.55 218.6 421.56 218.65 421.59 218.68 421.63 218.69 421.84 218.69 421.81 218.73 421.69 218.82 421.63 218.9 421.6 218.92 421.55 218.93 421.53 218.95 421.53 218.98 421.52 219.02 421.52 219.04 421.38 219.07 421.33 219.11 421.3 219.12 421.27 219.11 421.22 219.09 421.19 219.09 421.2 219.11 421.21 219.12 421.17 219.16 421.09 219.19 421.05 219.22 421.09 219.25 421.13 219.25 421.24 219.22 421.26 219.21 421.29 219.2 421.41 219.27 421.42 219.31 421.41 219.37 421.39 219.41 421.36 219.43 421.28 219.45 421.25 219.47 421.26 219.51 421.29 219.57 421.3 219.6 421.29 219.64 421.28 219.68 421.28 219.71 421.33 219.73 421.35 219.76 421.38 219.8 421.39 219.83 421.36 219.87 421.36 219.89 421.38 219.92 421.46 220.06 421.49 220.07 421.52 220.1 421.52 220.16 421.52 220.21 421.5 220.23 421.49 220.27 421.48 220.33 421.47 220.36 421.44 220.38 421.4 220.39 421.37 220.39 421.24 220.37 421.21 220.38 421.19 220.4 421.18 220.43 421.16 220.45 421.11 220.48 421.07 220.5 421.05 220.5 421.03 220.52 421.03 220.55 421.05 220.58 421.08 220.58 421.08 220.61 421.02 220.61 420.99 220.61 420.96 220.64 420.98 220.65 421.01 220.66 421.08 220.66 421.11 220.68 421.14 220.71 421.19 220.79 421.13 220.87 421.1 220.9 421.05 220.93 420.95 220.95 420.91 220.98 420.93 221.03 420.96 221.03 421.08 220.98 421.14 220.99 421.16 220.98 421.18 220.97 421.19 220.95 421.21 220.93 421.24 220.93 421.28 220.95 421.37 221.05 421.42 221.09 421.54 221.12 421.57 221.14 421.59 221.2 421.64 221.49 421.64 221.51 421.64 221.52 421.62 221.53 421.58 221.54 421.55 221.52 421.53 221.51 421.51 221.56 421.54 221.57 421.56 221.59 421.59 221.61 421.6 221.64 421.61 221.67 421.61 221.71 421.6 221.75 421.57 221.77 421.55 221.75 421.51 221.68 421.49 221.67 421.4 221.67 421.37 221.67 421.33 221.64 421.33 221.63 421.35 221.61 421.36 221.59 421.32 221.53 421.3 221.5 421.32 221.48 421.38 221.46 421.37 221.41 421.31 221.38 421.25 221.4 421.24 221.42 421.21 221.5 421.18 221.55 421.17 221.57 421.16 221.59 421.14 221.59 421.11 221.59 421.09 221.6 421.05 221.64 420.96 221.72 420.93 221.77 420.92 221.85 420.92 221.85 Z" fill-rule="evenodd" id="Denmark" transform="translate(-417.94000244140625,-210.1300048828125) "/></svg>