<svg xmlns="http://www.w3.org/2000/svg" viewBox="0 0 3.699981689453125 4"><path d="M 495.85 341.5 495.74 341.68 495.15 342.59 495.11 342.58 495.09 342.6 495.07 342.63 495.04 342.64 495.01 342.64 494.95 342.62 494.86 342.61 494.81 342.6 494.77 342.57 494.72 342.45 494.67 342.43 494.62 342.43 494.46 342.39 494.45 342.39 494.36 342.4 494.16 342.46 494.02 342.56 493.97 342.58 493.93 342.58 493.9 342.56 493.85 342.56 493.78 342.58 493.76 342.58 493.72 342.58 493.7 342.58 493.62 342.62 493.59 342.63 493.55 342.63 493.44 342.6 493.31 342.61 493.25 342.63 493.19 342.7 493.12 342.72 493 342.72 492.98 342.73 492.97 342.74 492.96 342.75 492.94 342.75 492.93 342.73 492.92 342.72 492.92 342.71 492.65 342.66 492.6 342.64 492.58 342.61 492.57 342.6 492.61 342.54 492.62 342.44 492.63 342.01 492.6 341.76 492.55 341.51 492.54 341.38 492.61 341.18 492.64 341.01 492.67 340.94 492.71 340.92 492.79 340.88 492.82 340.85 492.83 340.82 492.85 340.8 492.87 340.8 492.9 340.78 492.93 340.76 492.96 340.73 493.04 340.61 493.23 340.35 493.32 340.19 493.34 340.16 493.39 340.13 493.41 340.11 493.44 340.02 493.74 339.62 493.81 339.47 493.94 339.3 494.06 339.17 494.09 339.17 494.15 339.18 494.26 339.23 494.6 339.53 494.63 339.49 494.64 339.49 494.71 339.47 494.74 339.43 494.76 339.41 494.83 339.39 494.86 339.38 494.87 339.32 494.85 339.25 494.84 339.18 494.94 339.09 494.99 338.97 495.03 338.93 495.05 338.94 495.07 338.96 495.1 338.96 495.58 338.75 495.61 338.77 495.63 338.81 495.65 338.86 495.68 338.9 495.89 339.14 495.94 339.23 495.98 339.26 496.01 339.27 496.05 339.24 496.05 339.32 496.05 339.36 496.06 339.4 496.08 339.43 496.1 339.45 496.12 339.48 496.12 339.52 496.13 339.61 496.13 339.65 496.15 339.69 496.23 339.8 496.24 339.84 496.23 339.97 496.24 340.14 496.23 340.21 496.2 340.28 496.15 340.33 496.09 340.37 496.08 340.38 496.02 340.39 495.96 340.42 495.91 340.43 495.82 340.43 495.77 340.44 495.7 340.49 495.53 340.69 495.52 340.7 495.51 340.71 495.49 340.72 495.47 340.73 495.46 340.74 495.45 340.77 495.44 340.79 495.41 340.8 495.29 340.8 495.26 340.82 495.22 340.84 495.19 340.85 495.13 340.83 495.09 340.84 494.88 340.91 494.82 340.95 494.77 341 494.62 341.28 494.6 341.3 494.58 341.32 494.51 341.34 494.49 341.34 494.44 341.33 494.38 341.33 494.36 341.33 494.35 341.32 494.33 341.29 494.32 341.28 494.27 341.28 494.24 341.3 494.24 341.32 494.27 341.31 494.28 341.36 494.28 341.36 494.28 341.42 494.29 341.46 494.37 341.49 494.41 341.53 494.44 341.54 494.47 341.54 494.5 341.5 494.53 341.5 494.55 341.5 494.57 341.51 494.59 341.51 494.61 341.5 494.62 341.48 494.61 341.46 494.59 341.45 494.57 341.43 494.59 341.4 494.64 341.37 494.74 341.33 494.89 341.31 494.94 341.3 494.96 341.28 494.98 341.26 495 341.25 495.02 341.27 495.04 341.28 495.1 341.28 495.41 341.28 495.45 341.27 495.5 341.27 495.55 341.3 495.59 341.29 495.61 341.25 495.63 341.23 495.65 341.22 495.67 341.24 495.7 341.37 495.7 341.38 495.72 341.41 495.75 341.43 495.82 341.46 495.85 341.5 Z" id="Djibouti" transform="translate(-492.5400085449219,-338.75) "/></svg>