<svg xmlns="http://www.w3.org/2000/svg" viewBox="0 0 798 1442"><path d="M 350.79 1228.93 353.78 1216.96 348.13 1207.65 352.79 1199.34 346.14 1170.76 314.88 1147.82 303.91 1147.82 296.26 1132.86 304.9 1081.34 287.28 1065.38 281.63 1038.79 275.98 1035.13 293.6 1009.2 288.95 952.69 280.63 943.72 283.63 938.07 253.04 907.49 247.38 883.55 229.1 864.27 230.76 854.96 222.45 843 195.85 832.69 176.23 807.76 179.22 753.58 172.57 738.62 165.26 734.96 161.6 721 148.63 709.04 146.97 687.76 100.75 655.52 100.75 643.55 112.72 624.27 101.42 605.66 83.13 591.03 82.13 576.07 72.82 566.1 69.16 535.52 59.85 528.2 59.19 519.89 53.54 519.89 47.88 498.62 32.26 478.34 35.91 461.72 44.23 452.41 43.23 437.46 28.6 408.87 28.6 395.24 18.29 376.62 20.29 366.65 11.97 358.34 4.66 358.34 1 345.38 11.97 319.45 30.59 307.48 40.57 307.48 56.2 294.52 68.17 256.62 79.47 240 81.13 230.03 73.82 203.11 58.19 186.49 39.57 185.49 28.6 193.8 11.97 193.8 6.32 187.48 9.98 167.87 44.23 167.21 59.85 151.25 63.51 139.28 45.22 111.69 54.53 100.72 44.23 92.41 43.23 77.45 53.54 33.24 72.82 6.32 180.88 5.32 192.85 1 193.85 13.96 198.51 9.97 209.48 12.97 211.47 29.59 237.41 45.21 244.72 77.45 259.35 83.11 265.01 107.04 269.66 113.69 278.97 111.69 284.29 120 283.63 131.97 289.94 130.31 288.95 135.63 299.25 141.28 299.25 154.24 320.53 144.93 326.85 155.24 334.17 145.93 338.82 155.9 343.48 147.59 350.13 155.9 361.1 141.28 370.41 146.93 378.72 134.63 387.03 131.97 394.35 142.94 408.31 143.94 409.98 154.91 415.63 157.9 446.88 154.24 455.2 142.27 464.51 153.24 480.13 142.27 482.13 150.58 490.44 146.93 485.79 164.21 500.42 167.21 497.76 175.52 507.07 171.53 511.72 179.17 533.67 181.83 544.97 168.87 562.59 180.83 580.88 179.17 591.85 184.49 581.88 222.39 594.85 230.7 591.85 242 607.81 244.66 605.82 254.96 618.79 301.83 626.1 303.83 630.76 316.79 641.73 320.45 642.73 329.42 656.69 328.76 659.35 324.1 674.31 329.42 686.28 327.76 697.26 340.72 693.6 357.34 697.26 361 681.63 389.59 686.95 403.55 700.91 408.87 718.54 398.9 726.85 406.21 737.82 399.89 736.82 407.21 747.13 407.21 744.47 439.45 736.82 453.41 742.48 461.72 761.76 468.04 756.44 480 774.06 492.97 768.41 509.59 780.38 521.56 774.73 528.2 775.73 545.82 779.38 551.14 787.7 549.48 783.04 569.76 795.34 576.07 793.35 581.72 778.39 586.38 776.72 597.35 784.04 603 778.39 617.62 771.07 622.28 774.06 634.24 760.1 637.9 750.79 666.49 741.48 676.79 751.79 694.41 779.38 684.11 769.41 694.41 774.06 706.38 764.75 712.69 766.42 732.97 775.73 735.96 768.41 744.94 777.72 749.59 776.72 760.89 769.41 769.2 761.76 766.21 760.1 775.52 750.79 782.83 759.1 791.14 793.35 786.82 796.01 797.79 792.35 802.44 799 815.41 787.7 823.72 763.76 825.38 759.1 832.03 764.75 842 760.1 855.96 783.04 861.28 786.7 870.59 774.73 878.23 764.75 877.24 759.1 915.13 769.41 977.96 777.72 987.93 783.04 1009.2 796.01 1023.16 796.01 1038.79 786.7 1050.75 781.38 1073.69 778.39 1131.2 771.07 1134.85 772.07 1141.17 780.38 1144.16 777.72 1155.13 784.04 1164.44 779.38 1164.44 776.72 1172.75 782.38 1173.41 749.79 1188.37 759.1 1198.35 750.79 1203 752.78 1213.3 742.48 1228.93 740.81 1274.14 733.17 1282.45 736.16 1293.42 698.25 1318.68 677.97 1323 654.03 1318.68 633.42 1331.31 619.78 1316.68 580.88 1314.02 567.91 1319.34 554.95 1339.62 554.95 1366.55 547.63 1375.85 514.38 1384.83 497.76 1397.13 493.1 1409.09 496.76 1410.76 494.1 1414.41 501.41 1416.41 501.41 1424.72 496.09 1421.06 481.13 1428.37 467.17 1425.71 458.19 1428.37 457.19 1435.69 440.57 1432.03 431.26 1440.34 415.63 1443 352.79 1419.07 356.44 1412.75 367.42 1421.06 382.38 1414.41 383.38 1404.44 397.01 1386.82 400.67 1360.89 366.75 1341.61 355.45 1327.65 357.44 1314.02 340.82 1269.48 341.81 1251.2 350.79 1228.93 Z" transform="translate(-1,-1) "/></svg>