<svg xmlns="http://www.w3.org/2000/svg" viewBox="0 0 8.159988403320312 5.55999755859375"><path d="M 241.49 327.7 241.45 327.71 241.42 327.69 241.42 327.64 241.44 327.58 241.46 327.54 241.49 327.55 241.52 327.58 241.58 327.63 241.55 327.64 241.49 327.7 Z M 247.69 326.25 247.79 326.27 247.91 326.27 247.94 326.28 247.96 326.31 247.99 326.35 248 326.39 248 326.41 247.97 326.4 247.89 326.37 247.86 326.36 247.82 326.37 247.75 326.39 247.71 326.4 247.63 326.37 247.58 326.32 247.54 326.26 247.52 326.21 247.56 326.2 247.59 326.2 247.63 326.22 247.67 326.25 247.69 326.25 Z M 240.9 326.57 240.92 326.5 240.93 326.46 240.93 326.39 240.93 326.35 240.92 326.33 240.9 326.26 240.89 326.24 240.9 326.19 240.92 326.15 241.02 325.98 241.02 325.98 241.04 325.93 241.04 325.93 241.02 325.91 240.99 325.89 240.87 325.84 240.78 325.79 240.77 325.77 240.73 325.72 240.71 325.7 240.63 325.68 240.59 325.66 240.58 325.62 240.59 325.59 240.61 325.58 240.62 325.57 240.61 325.54 240.6 325.51 240.4 325.31 240.38 325.27 240.42 325.24 240.5 325.23 240.67 325.26 240.75 325.23 240.78 325.2 240.83 325.12 240.86 325.08 240.86 325.08 240.88 325.07 240.94 325.04 240.97 325.01 240.99 324.97 241.01 324.93 241.02 324.88 241.02 324.84 241.01 324.75 241 324.65 240.99 324.61 240.97 324.59 240.92 324.54 240.9 324.52 240.87 324.45 240.85 324.44 240.8 324.44 240.74 324.46 240.7 324.46 240.7 324.42 240.74 324.4 240.85 324.36 240.88 324.35 240.98 324.24 241.04 324.15 241.08 324.12 241.15 324.06 241.18 324.02 241.19 323.98 241.2 323.84 241.17 323.83 241.03 323.76 240.96 323.69 240.95 323.68 240.91 323.62 240.9 323.57 240.91 323.56 240.97 323.53 240.99 323.51 241.02 323.44 241.03 323.42 241.06 323.37 241.06 323.27 241.03 323.08 240.97 322.94 240.96 322.88 240.96 322.82 240.97 322.79 240.96 322.75 240.94 322.68 240.98 322.69 241.02 322.71 241.01 322.66 240.97 322.57 240.97 322.55 240.97 322.53 240.92 322.53 240.91 322.51 240.93 322.47 240.97 322.43 240.98 322.42 240.99 322.42 241.01 322.42 241.03 322.42 241.05 322.38 241.07 322.37 241.09 322.36 241.11 322.36 241.13 322.35 241.16 322.33 241.14 322.3 241.14 322.27 241.15 322.25 241.18 322.24 241.2 322.25 241.22 322.26 241.24 322.26 241.25 322.26 241.26 322.23 241.27 322.23 241.5 322.21 241.56 322.22 241.61 322.24 241.82 322.35 241.89 322.36 241.95 322.34 241.99 322.37 242.02 322.39 242.12 322.39 242.15 322.38 242.15 322.37 242.15 322.34 242.17 322.32 242.19 322.31 242.21 322.33 242.23 322.39 242.25 322.38 242.27 322.37 242.27 322.36 242.28 322.34 242.26 322.33 242.26 322.33 242.26 322.33 242.25 322.31 242.28 322.32 242.31 322.32 242.34 322.31 242.38 322.31 242.4 322.29 242.44 322.21 242.47 322.2 242.5 322.19 242.58 322.15 242.61 322.15 242.65 322.16 242.68 322.18 242.7 322.21 242.69 322.24 242.73 322.26 242.75 322.26 242.74 322.23 242.73 322.21 242.84 322.23 242.87 322.23 242.94 322.21 242.96 322.21 242.99 322.23 243.09 322.35 243.1 322.37 243.09 322.39 243.17 322.39 243.2 322.41 243.29 322.48 243.37 322.52 243.45 322.55 243.55 322.56 243.68 322.56 243.69 322.56 243.71 322.54 243.73 322.52 243.76 322.51 243.79 322.5 243.87 322.53 244.01 322.67 244.09 322.76 244.13 322.78 244.17 322.8 244.21 322.82 244.31 322.83 244.39 322.86 244.54 322.89 244.58 322.89 244.6 322.88 244.62 322.86 244.7 322.77 244.74 322.75 244.86 322.76 244.92 322.75 244.95 322.75 244.98 322.77 245.06 322.85 245.08 322.91 245.08 322.97 245.05 323.1 245.09 323.11 245.11 323.16 245.11 323.26 245.11 323.31 245.13 323.35 245.27 323.57 245.34 323.63 245.35 323.64 245.42 323.67 245.47 323.66 245.56 323.63 245.6 323.62 245.7 323.62 245.74 323.61 245.79 323.59 245.85 323.55 245.88 323.54 245.9 323.55 245.95 323.57 245.98 323.57 246.03 323.56 246.06 323.56 246.07 323.56 246.08 323.56 246.09 323.57 246.09 323.58 246.1 323.59 246.12 323.59 246.14 323.57 246.27 323.63 246.31 323.65 246.33 323.6 246.37 323.57 246.47 323.51 246.54 323.49 246.55 323.52 246.54 323.57 246.5 323.64 246.55 323.66 246.6 323.66 246.65 323.64 246.69 323.62 246.7 323.67 246.67 323.71 246.63 323.75 246.61 323.79 246.6 323.83 246.57 323.87 246.54 323.9 246.49 323.91 246.31 323.88 246.12 323.89 246.08 323.88 246 323.84 245.71 323.8 245.68 323.81 245.67 323.84 245.66 323.96 245.65 324.05 245.65 324.09 245.67 324.1 245.7 324.12 245.82 324.1 245.87 324.12 245.92 324.1 246.02 324.14 246.08 324.13 246.06 324.12 246.05 324.11 246.03 324.1 246 324.1 246 324.09 246.12 324.08 246.15 324.09 246.19 324.11 246.22 324.19 246.26 324.21 246.3 324.22 246.37 324.23 246.58 324.29 246.67 324.31 246.7 324.31 246.74 324.29 246.73 324.27 246.7 324.25 246.7 324.23 246.74 324.22 246.78 324.25 246.82 324.33 246.85 324.34 246.89 324.35 246.91 324.37 246.93 324.39 246.96 324.37 247.01 324.34 247.04 324.33 247.02 324.31 247.03 324.3 247.05 324.3 247.07 324.3 247.09 324.27 247.1 324.26 247.1 324.26 247.18 324.27 247.23 324.27 247.27 324.29 247.31 324.31 247.31 324.32 247.31 324.32 247.32 324.33 247.32 324.34 247.37 324.36 247.37 324.36 247.45 324.37 247.5 324.38 247.52 324.38 247.53 324.39 247.54 324.4 247.56 324.41 247.6 324.41 247.63 324.42 247.88 324.66 247.98 324.77 248.11 324.88 248.21 324.94 248.24 324.96 248.25 324.96 248.35 325.06 248.48 325.14 248.54 325.23 248.53 325.32 248.32 325.64 248.3 325.65 248.29 325.67 248.28 325.69 248.29 325.77 248.28 325.79 248.26 325.83 248.22 325.85 248.17 325.86 248.12 325.86 248.08 325.84 247.99 325.78 247.96 325.77 247.92 325.8 247.93 325.84 247.94 325.88 247.92 325.93 247.9 325.96 247.88 326 247.84 326.14 247.83 326.16 247.81 326.17 247.62 326.19 247.58 326.17 247.58 326.09 247.52 325.98 247.45 325.87 247.38 325.79 247.31 325.74 247.22 325.7 247.13 325.69 247.02 325.74 246.86 325.74 246.82 325.74 246.72 325.7 246.68 325.7 246.64 325.68 246.58 325.63 246.53 325.62 246.48 325.63 246.44 325.64 246.4 325.64 246.35 325.62 246.31 325.66 246.02 325.68 245.93 325.71 245.89 325.71 245.76 325.63 245.72 325.6 245.68 325.6 245.67 325.62 245.67 325.65 245.67 325.67 245.67 325.7 245.65 325.7 245.62 325.7 245.59 325.7 245.58 325.69 245.54 325.62 245.52 325.61 245.5 325.6 245.16 325.57 245.1 325.57 245.09 325.57 245.06 325.58 244.99 325.61 244.93 325.65 244.91 325.66 244.85 325.68 244.82 325.69 244.8 325.71 244.75 325.75 244.71 325.81 244.7 325.88 244.68 325.9 244.63 325.92 244.62 325.94 244.61 325.97 244.54 326.04 244.48 326.1 244.45 326.12 244.44 326.12 244.39 326.12 244.34 326.13 244.32 326.14 244.28 326.12 244.24 326.11 243.95 326.11 243.9 326.13 243.81 326.18 243.76 326.19 243.61 326.19 243.57 326.17 243.57 326.15 243.59 326.14 243.61 326.12 243.62 326.11 243.61 326.08 243.59 326.07 243.58 326.06 243.56 326.04 243.52 326.01 243.51 325.99 243.52 325.97 243.53 325.96 243.54 325.95 243.56 325.93 243.57 325.89 243.57 325.84 243.56 325.79 243.55 325.77 243.5 325.71 243.47 325.69 243.42 325.67 243.38 325.65 243.32 325.65 243.27 325.66 243.25 325.7 243.26 325.75 243.26 325.77 243.19 325.84 243.17 325.85 243.15 325.86 243.12 325.85 243.08 325.84 243.05 325.84 243.04 325.84 243.01 325.87 242.99 325.87 242.96 325.87 242.95 325.87 242.93 325.89 242.92 325.9 242.91 325.93 242.9 325.94 242.9 325.95 242.87 325.96 242.86 325.97 242.8 326.04 242.77 326.05 242.71 326.06 242.69 326.05 242.68 326.03 242.67 326.01 242.65 325.99 242.63 325.97 242.61 325.96 242.51 325.94 242.47 325.94 242.43 325.96 242.42 325.99 242.41 326.01 242.39 326.04 242.39 326.07 242.39 326.1 242.4 326.12 242.42 326.13 242.43 326.16 242.47 326.28 242.48 326.3 242.48 326.33 242.44 326.4 242.4 326.49 242.19 326.8 242.17 326.85 242.16 326.87 242.14 326.88 242.1 326.9 242.07 326.93 242.05 326.95 242.04 326.98 242.02 327.02 242.01 327.01 242 327.01 241.99 327 241.99 327.02 241.98 327.02 241.98 327.03 241.99 327.03 241.98 327.05 241.97 327.06 241.96 327.07 241.94 327.08 241.93 327.09 241.92 327.13 241.91 327.15 241.88 327.19 241.81 327.4 241.78 327.45 241.69 327.57 241.67 327.56 241.65 327.55 241.65 327.54 241.63 327.52 241.48 327.27 241.44 327.23 241.36 327.2 241.19 327.22 241.11 327.2 241.13 327.19 241.2 327.11 241.22 327.08 241.21 327.03 241.21 327 241.17 326.93 241.15 326.9 241.14 326.88 241.14 326.86 241.16 326.77 241.14 326.73 241.1 326.68 241.02 326.62 240.9 326.57 Z" fill-rule="evenodd" id="Dominican Republic" transform="translate(-240.3800048828125,-322.1499938964844) "/></svg>