<svg xmlns="http://www.w3.org/2000/svg" viewBox="0 0 37.21000671386719 14.709991455078125"><path d="M 222.41 373.55 222.38 373.6 222.3 373.6 222.25 373.62 222.22 373.63 222.16 373.63 222.11 373.62 222.08 373.6 222.06 373.55 222.08 373.47 222.09 373.21 222.09 373.18 222.17 373.04 222.2 372.95 222.23 372.93 222.37 372.89 222.49 372.83 222.53 372.81 222.63 372.82 222.79 372.91 222.88 372.94 222.88 372.95 222.87 372.97 222.86 372.98 222.85 373 222.83 373.02 222.72 373.06 222.71 373.08 222.68 373.11 222.67 373.12 222.66 373.16 222.64 373.19 222.62 373.21 222.62 373.21 222.59 373.25 222.57 373.3 222.54 373.36 222.52 373.39 222.49 373.41 222.46 373.44 222.46 373.49 222.43 373.52 222.41 373.55 Z M 223.04 372.76 222.98 372.79 222.94 372.79 222.93 372.74 222.96 372.65 223.01 372.53 223.07 372.43 223.09 372.48 223.14 372.5 223.17 372.55 223.12 372.62 223.05 372.66 223.04 372.76 Z M 201.25 369.9 201.31 369.92 201.35 369.97 201.36 370.02 201.29 370.04 201.22 370.03 201.04 369.95 201.08 369.9 201.12 369.91 201.22 369.91 201.25 369.9 Z M 199.45 369.63 199.47 369.66 199.52 369.65 199.58 369.66 199.63 369.69 199.66 369.71 199.66 369.72 199.67 369.73 199.68 369.74 199.69 369.75 199.69 369.77 199.68 369.78 199.68 369.78 199.67 369.79 199.67 369.8 199.64 369.81 199.63 369.81 199.62 369.82 199.63 369.85 199.63 369.86 199.61 369.87 199.54 369.91 199.53 369.92 199.45 369.91 199.42 369.88 199.38 369.85 199.34 369.83 199.36 369.8 199.38 369.77 199.39 369.74 199.41 369.68 199.43 369.64 199.45 369.63 Z M 202.03 368.46 202.06 368.48 202.09 368.48 202.12 368.47 202.15 368.45 202.15 368.54 202.11 368.62 202.05 368.7 201.98 368.76 201.9 368.78 201.89 368.79 201.89 368.81 201.86 368.88 201.82 368.94 201.79 368.98 201.75 369 201.72 369.01 201.68 369.01 201.61 369.01 201.59 369.02 201.54 369.05 201.51 369.06 201.49 369.05 201.44 369.02 201.42 369.01 201.34 369 201.32 368.99 201.32 368.97 201.33 368.95 201.36 368.91 201.38 368.9 201.46 368.85 201.49 368.83 201.52 368.76 201.54 368.75 201.63 368.73 201.66 368.71 201.69 368.64 201.71 368.61 201.77 368.56 201.78 368.54 201.8 368.52 201.88 368.49 201.9 368.47 201.94 368.47 202.01 368.45 202.03 368.46 Z M 199.97 368.07 199.96 368.09 199.97 368.11 199.98 368.12 200.01 368.13 200.05 368.13 200.07 368.14 200.1 368.16 200.09 368.21 200.07 368.3 200.07 368.33 200.08 368.36 200.08 368.39 200.08 368.39 200.06 368.44 200.06 368.45 200.02 368.47 200 368.5 199.97 368.54 199.95 368.57 199.92 368.59 199.91 368.59 199.8 368.59 199.79 368.6 199.78 368.64 199.75 368.66 199.71 368.67 199.67 368.67 199.6 368.64 199.55 368.63 199.53 368.62 199.52 368.61 199.51 368.6 199.5 368.59 199.45 368.52 199.43 368.5 199.4 368.5 199.36 368.49 199.32 368.47 199.29 368.45 199.29 368.42 199.29 368.32 199.31 368.26 199.33 368.21 199.36 368.16 199.4 368.12 199.42 368.11 199.48 368.08 199.5 368.08 199.53 368.08 199.58 368.09 199.6 368.09 199.62 368.09 199.64 368.07 199.66 368.06 199.87 368.04 199.91 368.02 199.93 368.02 199.94 368.03 199.95 368.04 199.96 368.05 199.97 368.07 Z M 197.27 367.52 197.35 367.6 197.37 367.61 197.4 367.63 197.4 367.68 197.39 367.76 197.39 367.95 197.37 367.96 197.22 368.02 197.18 368.03 197.16 368.03 197.14 368.02 197.09 367.99 197.05 367.98 196.98 367.96 196.97 367.96 196.95 367.96 196.94 367.96 196.93 367.95 196.93 367.94 196.93 367.93 196.92 367.93 196.89 367.89 196.86 367.84 196.84 367.79 196.82 367.69 196.8 367.61 196.8 367.58 197 367.58 197.08 367.54 197.18 367.52 197.23 367.5 197.25 367.5 197.27 367.52 Z M 198.78 367.28 198.82 367.31 198.97 367.36 199.03 367.37 199.1 367.4 199.21 367.52 199.28 367.56 199.27 367.57 199.26 367.57 199.25 367.58 199.28 367.6 199.26 367.64 199.22 367.71 199.2 367.75 199.16 367.77 199.11 367.76 199.01 367.73 198.86 367.73 198.82 367.72 198.78 367.69 198.74 367.68 198.69 367.7 198.66 367.66 198.64 367.61 198.62 367.56 198.56 367.55 198.66 367.42 198.66 367.39 198.65 367.35 198.67 367.31 198.7 367.29 198.75 367.28 198.76 367.29 198.77 367.29 198.78 367.28 Z M 197.53 366.61 197.57 366.65 197.58 366.7 197.59 366.74 197.6 366.76 197.63 366.79 197.65 366.88 197.67 366.9 197.69 366.91 197.72 366.95 197.73 366.96 197.78 366.96 197.8 366.97 197.82 366.98 197.84 367.01 197.84 367.07 197.83 367.17 197.87 367.42 197.9 367.46 197.99 367.54 198 367.55 198 367.56 198 367.59 198.01 367.61 198.02 367.62 198.04 367.63 198.05 367.63 198.27 367.77 198.29 367.8 198.29 367.82 198.31 367.84 198.34 367.87 198.35 367.87 198.38 367.88 198.38 367.89 198.38 367.91 198.37 367.92 198.37 367.93 198.39 368.01 198.4 368.1 198.38 368.14 198.32 368.19 198.31 368.23 198.35 368.19 198.37 368.21 198.37 368.25 198.38 368.29 198.47 368.31 198.52 368.33 198.52 368.38 198.55 368.38 198.57 368.39 198.59 368.41 198.61 368.44 198.59 368.47 198.62 368.48 198.7 368.56 198.72 368.57 198.74 368.57 198.74 368.58 198.75 368.61 198.73 368.62 198.68 368.65 198.66 368.66 198.59 368.87 198.6 368.93 198.6 368.97 198.55 368.95 198.52 368.99 198.47 369.05 198.44 369.09 198.4 369.07 198.37 369.07 198.3 369.07 198.25 369.08 198.18 369.14 197.93 369.22 197.88 369.21 197.85 369.22 197.65 369.19 197.4 369.19 197.35 369.18 197.32 369.15 197.31 369.12 197.3 369.1 197.3 369.05 197.3 369.02 197.27 369.02 197.25 369.02 197.23 369.01 197.17 368.92 197.19 368.82 197.25 368.73 197.32 368.67 197.58 368.5 197.59 368.48 197.59 368.47 197.6 368.46 197.63 368.45 197.69 368.43 197.76 368.41 197.79 368.41 197.81 368.42 197.83 368.42 197.84 368.43 197.85 368.44 197.89 368.45 197.91 368.45 197.93 368.45 197.94 368.43 197.97 368.4 197.98 368.39 197.98 368.37 198 368.32 198.03 368.29 198.06 368.3 198.09 368.27 198.09 368.23 198.07 368.21 198.05 368.18 198.02 368.17 197.95 368.15 197.93 368.14 197.87 368.09 197.82 368.02 197.78 367.94 197.76 367.87 197.76 367.8 197.75 367.78 197.73 367.76 197.71 367.75 197.68 367.75 197.67 367.74 197.66 367.74 197.64 367.7 197.5 367.63 197.45 367.57 197.45 367.5 197.41 367.48 197.38 367.43 197.39 367.38 197.44 367.37 197.4 367.31 197.38 367.28 197.38 367.24 197.38 367.16 197.38 367.14 197.37 367.11 197.36 367.09 197.35 367.02 197.3 366.98 197.23 366.98 197.15 367.01 197.07 367.06 197.04 367.07 196.99 367.04 196.95 366.98 196.94 366.97 196.94 366.95 196.96 366.94 196.97 366.93 197.12 366.85 197.17 366.81 197.18 366.72 197.24 366.74 197.28 366.72 197.32 366.7 197.39 366.68 197.41 366.66 197.42 366.64 197.44 366.63 197.47 366.62 197.51 366.62 197.53 366.61 Z M 199.49 366.36 199.45 366.37 199.42 366.36 199.39 366.33 199.36 366.33 199.34 366.32 199.32 366.3 199.3 366.28 199.29 366.27 199.3 366.22 199.33 366.18 199.38 366.16 199.43 366.15 199.48 366.16 199.53 366.19 199.58 366.22 199.6 366.27 199.58 366.3 199.54 366.34 199.49 366.36 Z M 198.85 365.66 198.81 365.73 198.72 365.69 198.73 365.65 198.72 365.55 198.73 365.51 198.82 365.56 198.85 365.66 Z M 225.11 364.15 225.08 364.21 225.02 364.19 225 364.21 224.98 364.23 224.93 364.2 224.9 364.16 224.89 364.12 224.93 364.07 225.1 363.93 225.1 363.95 225.1 363.96 225.12 363.99 225.12 364.06 225.11 364.15 Z M 196.48 363.93 196.47 363.94 196.46 363.93 196.45 363.92 196.45 363.91 196.47 363.9 196.48 363.9 196.49 363.92 196.48 363.93 Z M 196.47 363.88 196.46 363.89 196.46 363.88 196.47 363.88 Z M 233.12 367.19 233.1 367.22 233.05 367.26 233.02 367.27 232.99 367.28 232.95 367.28 232.88 367.27 232.86 367.27 232.8 367.31 232.74 367.31 232.58 367.22 232.55 367.22 232.52 367.22 232.48 367.22 232.45 367.21 232.41 367.2 232.37 367.19 232.34 367.2 232.32 367.24 232.33 367.28 232.36 367.33 232.38 367.35 232.4 367.36 232.45 367.35 232.47 367.35 232.49 367.37 232.54 367.41 232.57 367.43 232.61 367.44 232.65 367.47 232.68 367.5 232.75 367.75 232.79 367.84 232.85 367.93 232.89 367.96 232.92 367.98 232.94 367.98 232.97 367.98 232.98 367.99 232.99 368 233.08 368.07 233.08 368.08 233.1 368.1 233.11 368.11 233.12 368.12 233.14 368.11 233.15 368.11 233.17 368.15 233.18 368.19 233.17 368.28 233.18 368.29 233.18 368.31 233.18 368.33 233.18 368.35 233.16 368.37 233.16 368.37 233.13 368.38 233.11 368.4 233.1 368.42 233.1 368.44 233.11 368.48 233.11 368.51 233.11 368.53 233.09 368.57 233.09 368.6 233.19 368.93 233.19 368.95 233.19 368.99 233.19 369.01 233.21 369.03 233.23 369.05 233.25 369.07 233.25 369.09 233.23 369.09 233.12 369.09 233.03 369.1 232.98 369.1 232.96 369.08 232.94 369.06 232.91 369.02 232.85 368.97 232.84 368.99 232.81 369.09 232.74 369.35 232.67 369.61 232.61 369.87 232.54 370.13 232.51 370.26 232.48 370.34 232.46 370.36 232.43 370.4 232.31 370.51 232.22 370.61 232.11 370.74 232 370.87 231.88 371 231.77 371.13 231.66 371.25 231.55 371.38 231.44 371.51 231.33 371.64 231.2 371.74 231.07 371.84 230.93 371.94 230.8 372.04 230.67 372.14 230.54 372.24 230.41 372.34 230.27 372.44 230.15 372.54 230.05 372.6 230.02 372.62 229.81 372.69 229.53 372.79 229.25 372.88 228.98 372.98 228.7 373.08 228.42 373.17 228.14 373.27 227.86 373.37 227.58 373.46 227.52 373.49 227.43 373.52 227.39 373.54 227.23 373.68 227.01 373.98 226.9 374.06 226.87 374.1 226.8 374.23 226.77 374.27 226.69 374.33 226.66 374.36 226.66 374.41 226.69 374.45 226.72 374.47 226.75 374.5 226.76 374.56 226.74 374.61 226.7 374.62 226.66 374.63 226.63 374.66 226.6 374.68 226.58 374.64 226.55 374.49 226.53 374.46 226.5 374.44 226.41 374.41 226.36 374.41 226.32 374.42 226.3 374.46 226.3 374.47 226.31 374.52 226.31 374.54 226.3 374.64 226.27 374.72 226.26 374.73 226.22 374.82 226.21 374.87 226.2 374.91 226.2 374.99 226.21 375.04 226.21 375.06 226.19 375.07 226.17 375.07 226.16 375.08 226.15 375.09 226.15 375.12 226.18 375.26 226.17 375.3 226.12 375.35 226.1 375.37 226.07 375.38 226.06 375.39 226.03 375.43 226.02 375.47 226 375.64 226 375.65 225.99 375.66 225.96 375.68 225.93 375.69 225.9 375.69 225.88 375.69 225.85 375.72 225.84 375.75 225.85 375.89 225.82 375.98 225.69 376.26 225.67 376.36 225.65 376.4 225.61 376.44 225.59 376.48 225.59 376.57 225.61 376.65 225.63 376.69 225.69 376.72 225.68 376.76 225.65 376.8 225.62 376.85 225.61 376.89 225.61 376.94 225.61 376.98 225.59 377.01 225.53 377.05 225.5 377.07 225.3 377.15 225.21 377.2 225.11 377.3 225.07 377.35 225.04 377.41 225.04 377.47 225.09 377.57 225.1 377.63 225.08 377.67 225.03 377.68 224.97 377.68 224.93 377.69 224.9 377.73 224.88 377.84 224.86 377.88 224.81 377.94 224.74 378 224.7 377.96 224.68 377.94 224.65 377.93 224.63 377.92 224.59 377.93 224.57 377.93 224.53 377.92 224.46 377.9 224.42 377.89 224.37 377.89 224.26 377.9 224.21 377.88 224.18 377.85 224.16 377.8 224.13 377.76 224.11 377.75 224.06 377.73 224.05 377.72 224.03 377.7 224.02 377.65 224.01 377.63 223.97 377.61 223.92 377.58 223.88 377.55 223.87 377.5 223.86 377.46 223.86 377.46 223.8 377.35 223.78 377.22 223.71 377.13 223.71 377.08 223.77 376.99 223.77 376.96 223.76 376.94 223.71 376.91 223.66 376.91 223.65 376.9 223.62 376.88 223.6 376.87 223.49 376.76 223.42 376.73 223.34 376.74 223.27 376.79 223.12 376.83 223.04 376.82 222.98 376.76 222.94 376.69 222.88 376.64 222.82 376.63 222.76 376.63 222.71 376.62 222.65 376.59 222.6 376.56 222.53 376.48 222.49 376.44 222.45 376.43 222.41 376.42 222.37 376.41 222.36 376.39 222.35 376.39 222.26 376.4 222.23 376.41 222.21 376.42 222.19 376.44 222.17 376.47 222.15 376.54 222.14 376.58 222.1 376.62 221.93 376.75 221.84 376.79 221.82 376.81 221.8 376.82 221.76 376.82 221.72 376.8 221.62 376.75 221.59 376.72 221.58 376.67 221.58 376.64 221.88 376.25 221.9 376.2 221.8 376.21 221.7 376.24 221.63 376.23 221.58 376.14 221.58 376.12 221.59 376.07 221.59 376.05 221.57 376.02 221.54 375.97 221.53 375.95 221.53 375.91 221.53 375.9 221.55 375.85 221.58 375.8 221.6 375.76 221.63 375.74 221.67 375.72 221.72 375.72 221.76 375.72 221.81 375.74 221.9 375.79 221.95 375.8 221.99 375.77 222.03 375.73 222.06 375.68 222.09 375.64 222.27 375.56 222.3 375.52 222.3 375.5 222.3 375.5 222.29 375.48 222.27 375.47 222.25 375.45 222.24 375.43 222.24 375.39 222.24 375.37 222.22 375.32 222.18 375.25 222.17 375.21 222.17 375.19 222.18 375.18 222.19 375.16 222.18 375.14 222.17 375.1 222.17 375.08 222.17 375.06 222.17 375.04 222.19 375 222.19 374.97 222.19 374.95 222.17 374.91 222.17 374.88 222.17 374.86 222.15 374.85 222.13 374.85 222.11 374.83 222.11 374.81 222.13 374.75 222.13 374.71 222.13 374.69 222.13 374.67 222.11 374.66 222.08 374.64 222.06 374.63 222.06 374.58 222.07 374.54 222.08 374.5 222.05 374.47 221.96 374.45 221.93 374.43 221.91 374.43 221.91 374.41 221.9 374.39 221.91 374.37 221.94 374.35 221.95 374.33 221.97 374.3 221.99 374.26 221.96 374.33 221.96 374.34 221.97 374.39 222 374.37 222.01 374.3 222.03 374.26 222.09 374.33 222.12 374.31 222.28 374.28 222.31 374.28 222.33 374.29 222.34 374.29 222.37 374.28 222.42 374.22 222.43 374.21 222.51 374.04 222.53 374.01 222.58 374.02 222.59 374.07 222.58 374.17 222.6 374.16 222.62 374.14 222.63 374.11 222.65 374.09 222.67 374.07 222.74 374.03 222.77 373.99 222.79 373.95 222.8 373.9 222.81 373.81 222.85 373.73 222.93 373.61 222.94 373.57 222.92 373.53 222.93 373.48 222.96 373.4 222.96 373.36 223.03 373.13 223.08 373.05 223.09 373.03 223.11 372.99 223.12 372.94 223.16 372.81 223.19 372.77 223.25 372.7 223.27 372.66 223.28 372.61 223.26 372.51 223.23 372.43 223.22 372.42 223.18 372.43 223.15 372.42 223.13 372.41 223.11 372.37 223.06 372.26 223.04 372.21 223.02 372.19 223.02 372.15 223.02 372.03 223.01 371.92 223 371.89 223.02 371.85 223.02 371.82 223.01 371.8 223.01 371.79 222.98 371.76 222.97 371.75 222.97 371.74 222.96 371.72 222.96 371.71 222.96 371.68 222.97 371.66 222.98 371.64 222.99 371.62 222.97 371.59 223.01 371.56 223.04 371.55 223.07 371.53 223.08 371.48 223.1 371.45 223.13 371.44 223.17 371.41 223.19 371.37 223.05 371.44 223.04 371.45 223.03 371.47 223.03 371.51 223.02 371.52 222.95 371.52 222.93 371.54 222.93 371.56 222.91 371.61 222.89 371.7 222.88 371.76 222.9 371.83 222.97 371.94 222.97 372.01 222.94 372.44 222.91 372.53 222.9 372.55 222.84 372.62 222.81 372.63 222.78 372.64 222.7 372.69 222.67 372.69 222.65 372.68 222.63 372.65 222.62 372.65 222.57 372.65 222.55 372.65 222.53 372.63 222.51 372.59 222.54 372.56 222.61 372.51 222.63 372.47 222.64 372.43 222.66 372.41 222.72 372.41 222.74 372.42 222.75 372.43 222.77 372.45 222.79 372.45 222.81 372.44 222.82 372.42 222.82 372.4 222.81 372.37 222.8 372.42 222.77 372.41 222.72 372.36 222.67 372.37 222.62 372.39 222.59 372.4 222.58 372.37 222.59 372.32 222.63 372.23 222.64 372.17 222.65 372.15 222.67 372.13 222.69 372.13 222.72 372.12 222.73 372.1 222.78 372.03 222.76 372.04 222.75 372.04 222.72 372.07 222.7 372.08 222.66 372.07 222.64 372.07 222.61 372.09 222.59 372.12 222.5 372.36 222.35 372.57 222.28 372.65 222.21 372.68 222.19 372.71 222.17 372.73 222.15 372.74 222.13 372.74 222.12 372.73 222.11 372.72 222.1 372.7 222.07 372.69 222.05 372.7 222.04 372.74 222.05 372.78 222.06 372.79 222.12 372.85 222.12 372.87 222.13 372.9 222.12 372.94 222.1 372.96 222.05 372.96 221.96 372.92 221.86 372.84 221.83 372.82 221.8 372.79 221.79 372.78 221.77 372.78 221.73 372.78 221.71 372.77 221.63 372.72 221.39 372.44 221.21 372.27 221.14 372.25 221.08 372.22 221 372.22 220.89 372.18 220.84 372.16 220.75 372.08 220.7 372.06 220.67 372.06 220.64 372.06 220.62 372.04 220.61 371.96 220.59 371.93 220.56 371.88 220.53 371.85 220.45 371.78 220.44 371.77 220.43 371.74 220.42 371.72 220.43 371.71 220.45 371.72 220.46 371.73 220.46 371.74 220.47 371.74 220.52 371.76 220.55 371.76 220.56 371.76 220.57 371.8 220.6 371.83 220.66 371.83 220.74 371.8 220.85 371.71 220.94 371.67 221.02 371.58 221.03 371.45 221 371.38 220.98 371.32 220.98 371.3 220.99 371.27 221.01 371.27 221.04 371.25 221.05 371.2 221.04 371.14 220.98 370.91 220.95 370.82 220.93 370.78 220.91 370.74 220.89 370.72 220.87 370.68 220.81 370.55 220.78 370.51 220.77 370.48 220.77 370.45 220.78 370.42 220.86 370.37 220.85 370.32 220.85 370.25 220.87 370.24 220.89 370.21 220.92 370.2 220.96 370.21 220.97 370.18 220.97 370.15 220.97 370.1 220.98 370.06 220.97 370.01 220.98 369.98 221.02 369.96 221.02 369.91 220.95 369.82 220.82 369.66 220.71 369.47 220.66 369.36 220.64 369.3 220.65 369.25 220.68 369.23 220.71 369.2 220.74 369.17 220.75 369.15 220.77 369.13 220.8 369.09 220.83 369.06 220.83 369.04 220.86 369.04 220.89 369.04 220.92 369.04 220.95 369.03 220.98 369.01 221.01 369.02 221.04 369.01 221.07 369 221.06 369.02 221.1 369.04 221.14 369.04 221.16 369.02 221.18 369.01 221.2 368.99 221.22 368.98 221.24 369.01 221.26 369.02 221.3 369.02 221.36 369 221.4 368.96 221.45 368.91 221.49 368.77 221.49 368.73 221.52 368.59 221.56 368.48 221.61 368.38 221.64 368.31 221.65 368.3 221.67 368.29 221.7 368.28 221.73 368.27 221.74 368.33 221.77 368.37 221.83 368.4 221.88 368.41 222 368.41 222 368.38 221.94 368.37 221.87 368.35 221.83 368.35 221.8 368.33 221.77 368.27 221.75 368.22 221.71 368.2 221.7 368.18 221.7 368.13 221.67 368.07 221.66 368 221.63 367.93 221.59 367.88 221.57 367.79 221.59 367.76 221.64 367.76 221.71 367.7 221.78 367.59 221.8 367.56 221.8 367.53 221.82 367.48 221.84 367.44 221.89 367.43 221.92 367.38 221.95 367.33 221.99 367.37 222.04 367.35 222.09 367.3 222.15 367.26 222.28 367.12 222.39 366.98 222.43 366.94 222.44 366.89 222.45 366.87 222.46 366.86 222.47 366.85 222.52 366.84 222.55 366.75 222.57 366.68 222.58 366.57 222.58 366.51 222.56 366.42 222.56 366.25 222.58 366.19 222.58 366.17 222.59 366.17 222.61 366.18 222.62 366.19 222.63 366.21 222.64 366.24 222.66 366.24 222.66 366.21 222.68 366.17 222.69 366.15 222.68 366.12 222.67 366.1 222.64 366.07 222.59 365.99 222.57 365.94 222.56 365.9 222.57 365.85 222.59 365.82 222.61 365.8 222.62 365.77 222.63 365.72 222.62 365.68 222.6 365.64 222.59 365.58 222.57 365.55 222.53 365.53 222.49 365.53 222.47 365.52 222.45 365.49 222.43 365.46 222.43 365.42 222.43 365.33 222.45 365.23 222.5 365.16 222.56 365.1 222.6 365.12 222.63 365.13 222.71 365.12 222.74 365.11 222.78 365.07 222.81 365.06 222.85 365.06 222.9 365.04 222.97 365.02 223.01 364.99 223.04 364.99 223.06 364.98 223.13 364.92 223.14 364.91 223.17 364.87 223.19 364.85 223.24 364.83 223.37 364.78 223.43 364.74 223.44 364.77 223.44 364.79 223.4 364.92 223.41 364.96 223.43 364.98 223.45 364.99 223.48 365.02 223.5 365.08 223.52 365.09 223.48 364.99 223.46 364.97 223.45 364.96 223.45 364.94 223.46 364.92 223.46 364.91 223.46 364.85 223.46 364.81 223.48 364.78 223.52 364.76 223.62 364.79 223.72 364.73 223.87 364.59 223.92 364.58 224.08 364.59 224.09 364.59 224.14 364.57 224.17 364.56 224.23 364.56 224.26 364.56 224.28 364.55 224.33 364.57 224.4 364.57 224.46 364.54 224.52 364.53 224.56 364.51 224.72 364.29 224.76 364.27 224.81 364.29 224.85 364.33 224.88 364.37 224.9 364.43 224.9 364.49 224.94 364.47 224.97 364.43 224.98 364.39 224.98 364.29 225 364.27 225.02 364.25 225.04 364.22 225.05 364.23 225.06 364.24 225.08 364.24 225.1 364.23 225.12 364.21 225.12 364.2 225.12 364.18 225.13 364.16 225.17 364.12 225.2 364.11 225.3 364.14 225.28 364.11 225.24 364.1 225.2 364.09 225.16 364.08 225.15 364.05 225.15 364.02 225.17 363.99 225.26 363.91 225.27 363.88 225.27 363.85 225.26 363.82 225.26 363.8 225.26 363.8 225.39 363.88 225.44 363.95 225.51 364 225.53 364.04 225.55 364.09 225.58 364.13 225.63 364.16 225.68 364.18 225.71 364.17 225.74 364.16 225.77 364.17 225.77 364.21 225.78 364.24 225.82 364.28 225.84 364.32 225.87 364.3 225.9 364.3 226.02 364.33 226.04 364.34 226.07 364.36 226.27 364.59 226.33 364.63 226.37 364.65 226.5 364.68 226.55 364.71 226.83 364.92 226.93 364.97 227.08 364.98 227.24 365.03 227.26 365.03 227.27 365.03 227.28 365.03 227.3 365.05 227.31 365.07 227.31 365.1 227.31 365.12 227.34 365.14 227.39 365.16 227.44 365.17 227.48 365.17 227.53 365.16 227.7 365.1 227.76 365.1 227.82 365.15 227.84 365.31 227.89 365.38 228.03 365.48 228.11 365.51 228.18 365.5 228.19 365.5 228.28 365.52 228.31 365.63 228.32 365.86 228.34 365.93 228.35 366 228.38 366.05 228.44 366.1 228.51 366.13 228.75 366.17 228.79 366.19 228.82 366.21 228.86 366.22 228.91 366.21 229.02 366.17 229.06 366.17 229.09 366.17 229.13 366.18 229.22 366.28 229.28 366.3 229.37 366.3 229.4 366.31 229.44 366.32 229.46 366.34 229.51 366.38 229.55 366.41 229.58 366.42 229.61 366.43 229.76 366.4 229.79 366.4 229.87 366.44 229.91 366.44 229.9 366.35 229.93 366.34 230 366.36 230.11 366.37 230.14 366.38 230.18 366.41 230.24 366.46 230.28 366.48 230.31 366.47 230.37 366.44 230.59 366.42 230.63 366.39 230.61 366.25 230.61 366.08 230.61 366.07 230.63 366.07 230.68 366.07 230.7 366.06 230.72 366.06 230.78 365.99 230.79 365.98 230.8 365.97 230.84 365.94 230.87 365.94 230.89 365.95 230.95 366.01 230.99 366.04 231.04 366.06 231.09 366.07 231.14 366.07 231.19 366.07 231.21 366.07 231.23 366.08 231.24 366.1 231.26 366.16 231.27 366.18 231.31 366.18 231.36 366.16 231.41 366.15 231.44 366.19 231.45 366.21 231.59 366.4 231.61 366.43 231.62 366.47 231.64 366.5 231.69 366.55 231.83 366.64 231.85 366.67 231.94 366.73 232 366.77 232.04 366.78 232.08 366.79 232.13 366.8 232.18 366.79 232.27 366.77 232.32 366.76 232.36 366.78 232.4 366.81 232.42 366.84 232.45 366.86 232.49 366.87 232.59 366.96 232.72 367.04 232.77 367.06 232.82 367.09 232.94 367.11 233.08 367.16 233.12 367.19 Z M 196.07 363.32 196.05 363.32 196.04 363.3 196.05 363.29 196.07 363.3 196.07 363.32 Z" fill-rule="evenodd" id="Ecuador" transform="translate(-196.0399932861328,-363.2900085449219) "/></svg>