<svg xmlns="http://www.w3.org/2000/svg" viewBox="0 0 27.05999755859375 23.90997314453125"><path d="M 475.37 305.83 475.37 305.89 475.34 305.86 475.33 305.83 475.27 305.69 475.3 305.69 475.3 305.69 475.31 305.69 475.36 305.78 475.37 305.83 Z M 475.38 303.91 475.43 303.93 475.44 303.97 475.45 304.01 475.48 304.04 475.48 304.06 475.46 304.06 475.44 304.05 475.4 304.01 475.38 303.99 475.34 303.98 475.31 303.96 475.29 303.94 475.27 303.92 475.27 303.92 475.22 303.94 475.2 303.93 475.18 303.9 475.18 303.87 475.18 303.87 475.19 303.86 475.2 303.85 475.22 303.84 475.24 303.84 475.29 303.85 475.3 303.86 475.32 303.87 475.34 303.89 475.35 303.9 475.38 303.91 Z M 476.99 302.89 476.93 302.91 476.88 302.9 476.83 302.86 476.88 302.79 476.99 302.79 476.99 302.89 Z M 476.57 302.7 476.52 302.71 476.49 302.72 476.48 302.75 476.49 302.76 476.5 302.77 476.54 302.77 476.6 302.76 476.63 302.75 476.64 302.76 476.64 302.76 476.65 302.77 476.66 302.79 476.66 302.8 476.66 302.8 476.7 302.83 476.74 302.87 476.74 302.88 476.66 302.89 476.58 302.89 476.52 302.86 476.47 302.8 476.47 302.8 476.47 302.76 476.46 302.71 476.45 302.7 476.46 302.68 476.46 302.68 476.46 302.68 476.47 302.7 476.47 302.7 476.48 302.68 476.49 302.66 476.5 302.65 476.51 302.64 476.51 302.64 476.55 302.67 476.56 302.68 476.57 302.7 Z M 473.12 294.87 473.13 294.9 473.1 294.88 473.09 294.86 473.08 294.86 473.1 294.85 473.11 294.85 473.12 294.87 Z M 474.11 294.64 474.21 294.72 474.16 294.69 473.81 294.54 473.75 294.53 473.82 294.53 473.93 294.58 473.98 294.6 474.05 294.61 474.11 294.64 Z M 473.38 294.47 473.73 294.51 473.72 294.52 473.69 294.52 473.62 294.51 473.56 294.5 473.49 294.49 473.41 294.51 473.38 294.5 473.32 294.52 473.05 294.67 473.01 294.71 473.03 294.67 473.08 294.64 473.13 294.62 473.15 294.6 473.18 294.58 473.3 294.53 473.32 294.5 473.38 294.47 Z M 475.81 294.28 475.86 294.38 475.88 294.42 475.92 294.54 475.94 294.61 476.03 294.88 476.1 295.1 476.18 295.32 476.3 295.62 476.43 295.98 476.48 296.19 476.48 296.29 476.5 296.33 476.53 296.38 476.53 296.38 476.56 296.41 476.55 296.45 476.53 296.53 476.53 296.57 476.53 296.6 476.55 296.62 476.67 296.73 476.7 296.77 476.77 296.98 476.9 297.35 476.99 297.6 476.99 297.61 477 297.63 477 297.64 477 297.66 477.01 297.8 477.11 298.06 477.19 298.3 477.25 298.56 477.25 298.74 477.26 298.8 477.31 298.9 477.33 298.94 477.31 298.95 477.29 298.97 477.27 298.98 477.26 299.01 477.24 299.04 477.24 299.06 477.22 299.08 477.2 299.1 477.2 299.1 477.21 299.1 477.21 299.1 477.21 299.11 477.19 299.12 477.18 299.14 477.17 299.15 477.18 299.17 477.16 299.17 477.15 299.18 477.15 299.19 477.17 299.2 477.14 299.22 477.09 299.3 477.08 299.31 477.06 299.33 477.04 299.34 477.04 299.35 477.03 299.37 477.02 299.38 477 299.39 477 299.41 477.02 299.44 477.01 299.48 476.99 299.51 476.98 299.55 476.98 299.68 476.97 299.71 476.95 299.73 476.92 299.75 476.91 299.76 476.9 299.8 476.9 299.84 476.88 299.88 476.86 299.91 476.87 299.94 476.86 300.09 476.87 300.11 476.89 300.15 476.89 300.18 476.89 300.21 476.87 300.22 476.85 300.23 476.8 300.26 476.79 300.27 476.79 300.31 476.79 300.32 476.8 300.37 476.8 300.52 476.74 300.57 476.74 300.58 476.75 300.6 476.76 300.64 476.76 300.68 476.74 300.7 476.75 300.71 476.76 300.72 476.77 300.75 476.75 300.77 476.75 300.78 476.75 300.8 476.76 300.82 476.75 300.84 476.74 300.86 476.73 300.87 476.73 300.88 476.71 300.93 476.66 301 476.63 301.12 476.54 301.25 476.51 301.32 476.51 301.33 476.51 301.34 476.51 301.34 476.5 301.34 476.53 301.42 476.5 301.47 476.45 301.5 476.41 301.55 476.41 301.55 476.41 301.55 476.42 301.57 476.39 301.58 476.37 301.61 476.35 301.72 476.34 301.75 476.32 301.79 476.31 301.8 476.31 301.82 476.28 301.89 476.27 301.92 476.27 301.96 476.28 301.99 476.29 302.02 476.3 302.05 476.3 302.06 476.28 302.1 476.3 302.14 476.33 302.17 476.35 302.22 476.37 302.24 476.38 302.25 476.38 302.27 476.37 302.28 476.36 302.29 476.36 302.29 476.36 302.32 476.34 302.41 476.31 302.48 476.35 302.55 476.31 302.73 476.33 302.75 476.27 302.76 476.25 302.76 476.25 302.78 476.24 302.8 476.23 302.82 476.2 302.84 476.19 302.88 476.17 302.88 476.15 302.89 476.12 302.9 476.1 302.9 476.11 302.91 476.11 302.91 476.11 302.91 476.12 302.92 476.1 302.96 476.08 303.03 476.06 303.05 476.04 303.05 476.03 303.04 476.02 303.04 476 303.02 475.99 303.04 475.97 303.09 475.95 303.12 475.97 303.15 475.94 303.18 475.9 303.2 475.87 303.21 475.85 303.2 475.84 303.21 475.85 303.24 475.86 303.26 475.94 303.26 475.94 303.28 475.92 303.28 475.92 303.29 475.93 303.3 475.94 303.31 475.95 303.34 475.93 303.33 475.92 303.33 475.92 303.34 475.92 303.34 475.93 303.34 475.94 303.34 475.94 303.36 475.92 303.36 475.91 303.34 475.87 303.29 475.83 303.24 475.81 303.23 475.79 303.22 475.75 303.21 475.54 303.18 475.49 303.15 475.34 302.97 475.33 302.96 475.31 302.96 475.18 302.85 475.15 302.83 475.12 302.83 475.1 302.85 475.07 302.78 475.05 302.8 475.03 302.77 474.96 302.71 474.94 302.7 474.93 302.7 474.92 302.68 474.92 302.66 474.91 302.65 474.89 302.64 474.88 302.63 474.84 302.63 474.84 302.56 474.74 302.5 474.74 302.45 474.7 302.43 474.67 302.38 474.64 302.32 474.65 302.28 474.63 302.28 474.63 302.27 474.62 302.26 474.61 302.25 474.6 302.25 474.6 302.27 474.58 302.27 474.58 302.26 474.56 302.23 474.55 302.22 474.52 302.1 474.51 302.08 474.49 302.1 474.48 302.06 474.42 301.98 474.4 301.94 474.11 301.77 474.1 301.74 474.09 301.74 474.04 301.65 473.99 301.61 473.97 301.58 473.97 301.57 473.83 301.46 473.8 301.44 473.79 301.42 473.79 301.4 473.77 301.37 473.74 301.34 473.72 301.32 473.73 301.31 473.73 301.32 473.75 301.32 473.73 301.24 473.7 301.24 473.68 301.27 473.72 301.31 473.68 301.29 473.66 301.26 473.64 301.21 473.64 301.11 473.62 301.07 473.58 301 473.6 300.95 473.63 300.83 473.66 300.77 473.63 300.74 473.62 300.72 473.6 300.67 473.59 300.66 473.57 300.65 473.55 300.63 473.54 300.59 473.53 300.48 473.52 300.44 473.52 300.43 473.54 300.4 473.54 300.38 473.53 300.33 473.53 300.31 473.52 300.28 473.52 300.24 473.53 300.22 473.54 300.2 473.53 300.17 473.5 300.14 473.49 300.14 473.48 300.12 473.47 300.1 473.45 300.09 473.43 300.1 473.41 300.07 473.35 300.04 473.32 300.01 473.3 299.95 473.29 299.94 473.29 299.92 473.25 299.9 473.25 299.88 473.24 299.88 473.2 299.82 473.2 299.82 473.18 299.81 473.17 299.81 473.17 299.8 473.16 299.78 473.16 299.77 473.06 299.67 473.02 299.66 472.97 299.63 472.93 299.59 472.9 299.56 472.88 299.52 472.87 299.47 472.86 299.43 472.83 299.41 472.81 299.4 472.79 299.38 472.75 299.27 472.75 299.27 472.75 299.17 472.74 299.13 472.69 299.1 472.58 299.03 472.59 299.03 472.59 299.01 472.58 299 472.56 298.99 472.55 298.99 472.55 298.99 472.56 298.98 472.56 298.97 472.56 298.96 472.55 298.96 472.54 298.98 472.53 299 472.54 299.01 472.55 299.03 472.52 299.03 472.53 298.93 472.54 298.81 472.51 298.71 472.44 298.66 472.44 298.65 472.46 298.61 472.45 298.58 472.45 298.54 472.44 298.51 472.45 298.47 472.47 298.42 472.47 298.39 472.47 298.35 472.46 298.32 472.46 298.3 472.44 298.28 472.39 298.21 472.38 298.18 472.37 298.17 472.32 298.11 472.27 298.09 472.28 298.07 472.31 298.04 472.32 298.04 472.32 297.96 472.29 297.92 472.2 297.83 472.22 297.81 472.23 297.8 472.23 297.79 472.21 297.77 472.23 297.77 472.23 297.77 472.23 297.76 472.21 297.76 472.21 297.74 472.19 297.73 472.18 297.71 472.18 297.7 472.18 297.7 472.19 297.69 472.2 297.69 472.21 297.69 472.21 297.67 472.21 297.65 472.21 297.64 472.21 297.62 472.2 297.62 472.17 297.68 472.17 297.7 472.17 297.72 472.19 297.74 472.2 297.76 472.2 297.79 472.18 297.79 472.18 297.76 472.16 297.74 472.14 297.74 472.11 297.76 472.07 297.74 472.03 297.77 471.99 297.82 471.97 297.86 471.97 297.91 471.98 297.94 472.01 297.97 472.06 297.98 472.02 298.02 471.84 298.28 471.83 298.3 471.8 298.32 471.74 298.44 471.73 298.48 471.73 298.58 471.71 298.63 471.68 298.66 471.68 298.68 471.71 298.7 471.73 298.73 471.75 298.77 471.77 298.82 471.79 298.85 471.91 298.92 471.93 298.95 472.04 299.07 472.11 299.11 472.17 299.17 472.22 299.25 472.24 299.3 472.25 299.36 472.28 299.44 472.3 299.52 472.34 299.56 472.34 299.58 472.33 299.63 472.39 299.87 472.39 299.9 472.4 299.95 472.38 299.97 472.36 299.99 472.35 300.02 472.33 300.03 472.32 300.06 472.34 300.08 472.32 300.16 472.32 300.25 472.33 300.27 472.4 300.34 472.43 300.38 472.43 300.4 472.43 300.45 472.44 300.48 472.49 300.53 472.5 300.54 472.59 300.67 472.67 300.68 472.72 300.74 472.75 300.81 472.85 301.18 472.86 301.24 472.88 301.25 472.99 301.31 473.04 301.36 473.07 301.39 473.09 301.44 473.11 301.44 473.14 301.45 473.16 301.46 473.16 301.48 473.18 301.53 473.24 301.65 473.26 301.67 473.26 301.68 473.26 301.68 473.25 301.68 473.25 301.68 473.34 301.76 473.39 301.82 473.38 301.87 473.4 301.89 473.42 301.91 473.43 301.94 473.43 301.97 473.44 301.98 473.49 302.05 473.59 302.16 473.62 302.21 473.64 302.22 473.67 302.24 473.69 302.25 473.7 302.28 473.7 302.31 473.7 302.33 473.74 302.34 473.78 302.35 473.85 302.44 473.9 302.47 473.9 302.49 473.9 302.51 473.9 302.52 473.9 302.54 473.91 302.56 473.94 302.57 473.96 302.56 473.98 302.6 474.03 302.62 474.13 302.64 474.29 302.79 474.34 302.89 474.36 302.92 474.38 302.94 474.43 303.06 474.43 303.09 474.43 303.1 474.44 303.12 474.45 303.17 474.46 303.19 474.46 303.21 474.45 303.21 474.42 303.21 474.39 303.15 474.34 303.12 474.28 303.1 474.23 303.07 474.22 303.07 474.21 303.11 474.2 303.13 474.2 303.14 474.22 303.17 474.26 303.22 474.28 303.25 474.29 303.28 474.31 303.3 474.34 303.29 474.37 303.28 474.39 303.28 474.38 303.32 474.37 303.35 474.36 303.39 474.34 303.41 474.35 303.42 474.36 303.44 474.37 303.45 474.41 303.48 474.42 303.48 474.43 303.49 474.45 303.54 474.46 303.55 474.46 303.57 474.44 303.55 474.39 303.48 474.37 303.48 474.37 303.5 474.38 303.51 474.39 303.53 474.37 303.53 474.36 303.49 474.32 303.49 474.27 303.52 474.25 303.57 474.3 303.59 474.34 303.64 474.4 303.75 474.39 303.77 474.39 303.79 474.38 303.81 474.39 303.84 474.42 303.87 474.52 303.91 474.55 303.94 474.56 303.96 474.56 304.02 474.57 304.04 474.58 304.06 474.62 304.1 474.64 304.13 474.65 304.18 474.67 304.29 474.68 304.32 474.76 304.39 474.84 304.45 474.94 304.5 474.98 304.53 475.01 304.57 475.01 304.6 475.01 304.69 475 304.7 474.98 304.71 474.98 304.72 474.98 304.74 474.99 304.76 474.99 304.77 475 304.83 475 304.87 475.03 304.91 475.07 304.93 475.11 304.97 475.15 305.02 475.16 305.07 475.13 305.06 475.13 305.1 475.15 305.14 475.19 305.2 475.21 305.23 475.24 305.31 475.26 305.34 475.29 305.36 475.32 305.38 475.35 305.4 475.36 305.43 475.37 305.5 475.37 305.54 475.36 305.57 475.32 305.57 475.3 305.55 475.28 305.54 475.25 305.59 475.25 305.62 475.25 305.66 475.25 305.71 475.26 305.74 475.26 305.8 475.22 305.95 475.24 306.03 475.27 306.05 475.34 306.07 475.37 306.09 475.4 306.13 475.42 306.21 475.49 306.3 475.52 306.37 475.6 306.58 475.63 306.65 475.68 306.72 475.71 306.78 475.76 306.86 475.95 307.29 476.03 307.42 476.12 307.63 476.29 307.87 476.31 307.9 476.33 307.97 476.48 308.19 476.56 308.28 476.58 308.31 476.77 308.69 476.8 308.8 476.85 308.91 476.88 309.03 476.92 309.1 477.01 309.22 477.03 309.25 477.05 309.32 477.06 309.35 477.13 309.46 477.16 309.56 477.26 309.74 477.45 310.07 477.46 310.14 477.48 310.21 477.52 310.25 477.56 310.31 477.57 310.35 477.57 310.44 477.58 310.49 477.59 310.52 477.61 310.55 477.63 310.57 477.67 310.59 477.72 310.65 477.76 310.72 477.81 310.91 477.83 310.94 477.86 311 477.91 311.08 477.94 311.11 477.94 311.15 477.9 311.22 477.9 311.29 478 311.32 478.11 311.53 478.4 311.76 478.45 311.81 478.53 312.05 478.59 312.11 478.68 312.23 478.72 312.23 478.7 312.19 478.68 312.16 478.7 312.16 478.75 312.2 478.81 312.23 478.89 312.31 478.92 312.38 478.93 312.45 478.99 312.49 479.06 312.48 479.12 312.49 479.17 312.51 479.22 312.54 479.25 312.57 479.3 312.68 479.34 312.73 479.33 312.75 479.29 312.71 479.25 312.66 479.21 312.66 479.13 312.69 479.1 312.71 479.06 312.69 479.01 312.68 478.97 312.67 478.94 312.67 478.91 312.67 478.87 312.65 478.85 312.63 478.83 312.6 478.81 312.59 478.8 312.58 478.77 312.56 478.72 312.55 478.7 312.57 478.67 312.62 478.66 312.69 478.67 312.81 478.65 312.91 478.64 312.98 478.65 313.04 478.7 313.05 478.71 313.08 478.71 313.12 478.71 313.14 478.71 313.18 478.71 313.2 478.71 313.26 478.7 313.36 478.7 313.57 478.69 313.6 478.67 313.67 478.67 313.71 478.68 313.74 478.7 313.78 478.75 313.85 478.78 313.92 478.8 313.95 478.81 313.99 478.8 314.11 478.82 314.22 478.84 314.31 478.86 314.39 478.96 314.56 478.99 314.63 479.03 314.72 479.06 314.94 479.08 314.98 479.12 315.06 479.22 315.18 479.28 315.21 479.25 315.17 479.19 315.06 479.23 315.06 479.26 315.08 479.28 315.12 479.29 315.16 479.32 315.28 479.32 315.3 479.36 315.32 479.38 315.35 479.39 315.38 479.42 315.41 479.46 315.46 479.55 315.53 479.63 315.56 479.67 315.58 479.67 315.58 479.7 315.6 479.73 315.62 479.77 315.63 479.89 315.64 480.07 315.67 480.24 315.73 480.3 315.77 480.41 315.87 480.44 315.93 480.46 316.04 480.49 316.11 480.56 316.17 480.63 316.22 480.66 316.24 480.7 316.25 480.69 316.22 480.7 316.22 480.75 316.27 480.74 316.34 480.77 316.43 480.93 316.5 481 316.54 481.05 316.58 481.18 316.69 481.38 316.88 481.42 316.9 481.46 316.9 481.47 316.89 481.47 316.87 481.48 316.86 481.5 316.87 481.53 316.89 481.55 316.91 481.56 316.92 481.59 317 481.61 317.02 481.65 317.05 481.73 317.11 481.78 317.13 481.79 317.21 481.79 317.24 481.78 317.27 481.76 317.29 481.76 317.29 481.24 317.29 480.72 317.29 480.21 317.29 479.69 317.29 479.18 317.29 478.66 317.29 478.15 317.29 477.63 317.29 477.11 317.29 476.6 317.29 476.08 317.29 475.57 317.29 475.55 317.29 475.05 317.29 474.54 317.29 474.02 317.29 473.55 317.29 473.5 317.29 473.5 317.29 473.28 317.29 473.05 317.29 472.82 317.29 472.6 317.29 472.37 317.29 472.14 317.29 472.1 317.29 471.92 317.29 471.69 317.29 471.46 317.29 471.23 317.29 471.01 317.29 470.78 317.29 470.55 317.29 470.33 317.29 470.1 317.29 469.87 317.29 469.81 317.29 469.68 317.29 469.75 317.08 469.8 316.93 469.81 316.87 469.79 316.82 469.74 316.77 469.7 316.75 469.65 316.74 469.61 316.75 469.57 316.77 469.51 316.84 469.41 317.04 469.41 317.06 469.3 317.28 469.27 317.3 469.18 317.3 468.97 317.3 468.75 317.3 468.54 317.3 468.32 317.3 468.1 317.3 467.89 317.3 467.67 317.3 467.46 317.3 467.24 317.3 467.03 317.3 466.81 317.3 466.59 317.3 466.38 317.3 466.16 317.3 465.95 317.3 465.73 317.3 465.51 317.3 465.3 317.3 465.08 317.3 464.87 317.3 464.65 317.3 464.44 317.3 464.22 317.3 464 317.3 463.79 317.3 463.57 317.3 463.36 317.3 463.14 317.3 462.93 317.3 462.71 317.3 462.49 317.29 462.28 317.29 462.06 317.29 461.85 317.29 461.63 317.29 461.42 317.29 461.2 317.29 460.98 317.29 460.77 317.29 460.55 317.29 460.34 317.29 460.12 317.29 459.91 317.29 459.69 317.29 459.47 317.29 459.26 317.29 459.04 317.29 458.83 317.29 458.61 317.29 458.4 317.29 458.18 317.29 457.96 317.29 457.75 317.29 457.53 317.29 457.32 317.29 457.1 317.29 456.89 317.29 456.67 317.29 456.45 317.29 456.24 317.29 456.02 317.29 455.81 317.29 455.59 317.29 455.38 317.29 455.38 316.6 455.38 315.9 455.38 315.21 455.38 314.51 455.38 313.81 455.38 313.11 455.38 312.4 455.38 311.7 455.38 310.99 455.38 310.28 455.38 309.57 455.38 308.86 455.38 308.15 455.38 307.43 455.38 306.72 455.38 306 455.38 305.52 455.38 305.05 455.38 304.83 455.38 303.99 455.38 303.61 455.38 303.52 455.38 302.64 455.38 302.44 455.38 301.46 455.38 300.45 455.38 300.03 455.38 299.72 455.36 299.57 455.32 299.44 455.14 298.99 455.11 298.91 455.11 298.81 455.13 298.63 455.13 298.56 455.1 298.46 454.98 298.27 454.97 298.16 455.01 298.03 455.01 297.98 455 297.92 454.81 297.45 454.75 297.33 454.73 297.28 454.73 297.18 454.76 297.09 454.85 296.92 454.89 296.84 454.91 296.8 454.97 296.72 455.04 296.66 455.17 296.46 455.21 296.37 455.23 296.29 455.24 296.23 455.31 296.06 455.33 295.92 455.36 295.81 455.39 295.73 455.41 295.64 455.38 295.53 455.28 295.33 455.25 295.2 455.17 295.04 455.16 294.99 455.11 294.71 455.1 294.5 455.08 294.28 455.08 294.19 455.11 294.11 455.47 293.81 455.55 293.59 455.61 293.5 455.75 293.39 455.75 293.41 455.78 293.58 455.8 293.66 455.84 293.71 455.89 293.73 456 293.74 456.09 293.78 456.13 293.78 456.23 293.76 456.25 293.77 456.28 293.78 456.31 293.79 456.35 293.76 456.4 293.75 456.47 293.74 456.83 293.64 457.24 293.5 457.34 293.48 457.56 293.49 458.44 293.74 459.08 293.83 459.11 293.85 459.15 293.86 459.26 293.85 459.3 293.85 459.46 293.93 459.55 293.96 459.65 293.96 459.73 293.93 459.77 293.93 459.81 293.95 459.84 293.98 459.86 293.99 459.89 293.99 459.91 294 459.97 294.03 460.11 294.08 460.26 294.1 460.32 294.11 460.35 294.14 460.37 294.13 460.39 294.11 460.4 294.1 460.42 294.11 460.56 294.1 460.58 294.11 460.59 294.12 460.61 294.14 460.61 294.15 460.6 294.16 460.61 294.17 460.63 294.21 460.64 294.22 460.65 294.23 460.65 294.23 460.66 294.27 460.66 294.29 460.68 294.32 460.7 294.39 460.72 294.43 460.78 294.48 460.84 294.51 460.91 294.54 461.05 294.56 461.1 294.58 461.15 294.59 461.2 294.56 461.31 294.62 461.44 294.6 461.7 294.47 461.74 294.47 461.76 294.48 461.78 294.52 461.78 294.57 461.78 294.59 461.82 294.69 461.83 294.77 461.84 294.79 461.9 294.83 462.01 294.85 462.41 294.85 462.44 294.85 462.46 294.87 462.47 294.88 462.49 294.9 462.52 294.9 462.58 294.9 462.63 294.9 462.73 294.93 462.77 294.93 462.82 294.92 462.91 294.87 462.96 294.86 463.01 294.87 463.05 294.89 463.08 294.91 463.11 294.94 463.13 294.95 463.21 294.95 463.24 294.96 463.26 294.97 463.3 294.99 463.69 295.13 463.77 295.17 463.81 295.19 463.87 295.2 463.88 295.21 463.9 295.28 463.9 295.3 463.92 295.32 463.96 295.33 464.35 295.53 464.7 295.51 464.77 295.5 465.07 295.36 465.4 295.2 465.52 295.11 465.61 295.06 465.62 295.06 465.64 295.03 465.65 295.01 465.98 294.77 466.02 294.71 466.08 294.72 466.14 294.69 466.24 294.6 466.22 294.57 466.22 294.57 466.2 294.58 466.21 294.55 466.23 294.54 466.24 294.54 466.26 294.56 466.27 294.56 466.3 294.53 466.4 294.44 466.43 294.42 466.46 294.41 466.51 294.35 466.52 294.33 466.56 294.33 466.57 294.31 466.59 294.29 466.61 294.28 466.6 294.28 466.6 294.28 466.59 294.27 466.59 294.26 466.65 294.23 466.65 294.3 466.71 294.35 466.72 294.35 466.8 294.38 466.88 294.39 466.86 294.4 466.84 294.43 466.82 294.44 466.82 294.45 466.82 294.45 466.83 294.45 466.84 294.46 466.81 294.47 466.82 294.5 466.84 294.51 466.87 294.53 466.96 294.47 466.95 294.5 466.96 294.52 466.98 294.52 466.99 294.52 467 294.5 467.06 294.44 467.07 294.45 467.07 294.45 467.08 294.46 467.08 294.44 467.09 294.43 467.09 294.42 467.1 294.4 467.11 294.4 467.11 294.43 467.11 294.45 467.12 294.47 467.14 294.47 467.15 294.46 467.17 294.39 467.14 294.37 467.11 294.38 467.07 294.39 467.03 294.4 467.03 294.39 467.04 294.39 467.06 294.39 467.06 294.39 467.06 294.37 467.03 294.38 466.9 294.39 466.9 294.37 466.98 294.35 467.06 294.3 467.19 294.18 467.24 294.1 467.27 294 467.28 293.89 467.26 293.8 467.28 293.8 467.29 293.85 467.31 293.9 467.34 293.93 467.38 293.94 467.32 293.9 467.29 293.82 467.3 293.77 467.38 293.82 467.44 293.86 467.51 293.89 467.59 293.9 467.69 293.89 468 293.81 468.66 293.57 468.66 293.59 468.63 293.59 468.42 293.67 468.25 293.77 468.13 293.83 468.04 293.89 468.02 293.9 467.99 293.9 467.98 293.91 467.89 293.97 467.85 293.98 467.77 293.99 467.75 294 467.74 294 467.7 294.05 467.7 294.07 467.75 294.08 467.76 294.08 467.78 294.07 467.79 294.07 467.83 294.09 467.89 294.08 467.95 294.07 467.98 294.04 468 294 468.04 294.01 468.09 294.05 468.11 294.09 468.13 294.09 468.14 294.04 468.18 294 468.22 293.96 468.25 293.94 468.27 293.93 468.29 293.95 468.32 293.97 468.36 293.98 468.38 293.98 468.41 293.97 468.44 293.97 468.46 293.98 468.46 293.98 468.45 293.98 468.45 293.99 468.45 294 468.48 294.01 468.52 293.99 468.55 293.97 468.58 293.94 468.58 293.94 468.57 293.94 468.57 293.94 468.57 293.93 468.58 293.92 468.58 293.92 468.58 293.92 468.58 293.91 468.66 293.94 468.67 293.96 468.69 293.94 468.71 293.92 468.73 293.87 468.72 293.85 468.73 293.83 468.76 293.8 468.77 293.79 468.77 293.77 468.77 293.76 468.78 293.75 468.79 293.75 468.87 293.75 468.9 293.76 468.93 293.78 468.94 293.79 468.94 293.81 468.94 293.82 468.96 293.82 468.98 293.81 468.99 293.8 469 293.78 468.96 293.76 468.98 293.76 468.99 293.75 469.01 293.75 468.96 293.69 468.87 293.63 468.77 293.58 468.67 293.58 468.69 293.57 468.74 293.55 468.93 293.52 469 293.52 469.21 293.59 469.49 293.72 469.56 293.75 469.65 293.82 469.88 293.93 469.95 293.94 469.98 293.94 470.04 293.94 470.38 293.84 470.57 293.73 470.65 293.7 470.74 293.71 470.81 293.74 470.84 293.81 470.85 293.84 470.92 293.94 470.95 294.01 470.99 294.05 471.06 294.12 471.08 294.13 471.14 294.14 471.14 294.14 471.16 294.15 471.22 294.22 471.23 294.23 471.27 294.24 471.35 294.31 471.38 294.33 471.31 294.31 471.09 294.17 471.1 294.18 471.11 294.17 471.12 294.18 471.13 294.19 471.13 294.17 471.12 294.16 471.1 294.16 471.06 294.15 471.05 294.14 471.04 294.13 471.03 294.12 470.97 294.09 470.95 294.07 470.94 294.07 470.92 294.07 470.92 294.03 470.9 294 470.88 293.98 470.86 293.96 470.89 293.96 470.92 293.96 470.81 293.82 470.78 293.78 470.75 293.73 470.73 293.72 470.73 293.73 470.69 293.71 470.67 293.72 470.66 293.75 470.63 293.73 470.63 293.74 470.64 293.76 470.63 293.76 470.63 293.76 470.61 293.75 470.6 293.75 470.6 293.77 470.6 293.78 470.59 293.8 470.63 293.8 470.62 293.83 470.66 293.89 470.65 293.93 470.66 293.93 470.66 293.94 470.65 293.94 470.65 293.95 470.66 293.97 470.66 293.98 470.65 293.98 470.64 293.95 470.63 293.92 470.61 293.91 470.57 293.91 470.58 293.89 470.57 293.89 470.56 293.9 470.54 293.94 470.56 293.94 470.56 293.94 470.57 293.93 470.59 293.94 470.6 293.94 470.62 293.94 470.62 293.96 470.6 293.96 470.6 293.98 470.61 294 470.62 294.01 470.64 294.01 470.66 294.01 470.65 294.03 470.63 294.04 470.6 294.03 470.59 294.01 470.57 294.01 470.58 294.03 470.57 294.03 470.56 294.03 470.56 294.03 470.57 294.04 470.58 294.05 470.59 294.07 470.56 294.11 470.55 294.14 470.57 294.15 470.62 294.15 470.62 294.17 470.59 294.17 470.57 294.16 470.55 294.16 470.53 294.17 470.51 294.17 470.5 294.16 470.48 294.16 470.47 294.17 470.47 294.2 470.48 294.21 470.49 294.22 470.5 294.23 470.47 294.24 470.47 294.26 470.48 294.28 470.47 294.29 470.44 294.3 470.42 294.32 470.42 294.35 470.43 294.38 470.46 294.38 470.48 294.37 470.48 294.37 470.48 294.36 470.47 294.36 470.47 294.36 470.47 294.35 470.5 294.36 470.51 294.37 470.54 294.37 470.55 294.38 470.56 294.4 470.56 294.43 470.57 294.44 470.59 294.44 470.63 294.46 470.66 294.49 470.68 294.51 470.7 294.47 470.71 294.45 470.73 294.44 470.72 294.46 470.71 294.48 470.72 294.49 470.73 294.51 470.7 294.51 470.7 294.53 470.73 294.53 470.72 294.53 470.71 294.54 470.71 294.55 470.71 294.56 470.72 294.56 470.73 294.56 470.73 294.55 470.74 294.54 470.74 294.55 470.74 294.55 470.75 294.56 470.76 294.56 470.76 294.54 470.77 294.54 470.76 294.58 470.77 294.6 470.79 294.6 470.8 294.56 470.83 294.56 470.86 294.52 470.9 294.49 470.95 294.51 470.92 294.51 470.92 294.53 470.95 294.54 470.96 294.53 470.97 294.52 470.98 294.51 471.02 294.53 471.02 294.54 471.01 294.56 471 294.56 471 294.6 471.02 294.59 471.03 294.58 471.03 294.6 471.02 294.62 471.01 294.63 471 294.63 471 294.65 471.01 294.67 471.02 294.7 470.97 294.74 470.97 294.76 470.99 294.76 471.01 294.75 471.02 294.74 471.03 294.72 471.04 294.72 471.05 294.75 471.05 294.75 471.05 294.77 471.07 294.78 471.09 294.79 471.09 294.81 471.07 294.82 471.05 294.83 471.04 294.84 471.03 294.86 471.04 294.87 471.06 294.88 471.08 294.87 471.1 294.86 471.12 294.87 471.13 294.88 471.13 294.9 471.12 294.9 471.12 294.92 471.14 294.94 471.17 294.95 471.2 294.95 471.23 294.93 471.23 294.92 471.19 294.92 471.17 294.9 471.16 294.87 471.15 294.85 471.18 294.85 471.23 294.88 471.25 294.88 471.26 294.88 471.24 294.85 471.28 294.84 471.29 294.85 471.29 294.83 471.28 294.82 471.27 294.82 471.28 294.82 471.27 294.81 471.28 294.81 471.3 294.79 471.3 294.81 471.31 294.81 471.32 294.81 471.33 294.81 471.32 294.78 471.34 294.76 471.37 294.76 471.39 294.8 471.42 294.82 471.45 294.82 471.48 294.81 471.54 294.78 471.56 294.73 471.56 294.69 471.52 294.65 471.57 294.65 471.57 294.65 471.58 294.65 471.59 294.57 471.59 294.54 471.58 294.49 471.54 294.45 471.53 294.42 471.56 294.4 471.53 294.38 471.48 294.37 471.44 294.36 471.41 294.37 471.39 294.33 471.42 294.33 471.45 294.33 471.5 294.34 471.6 294.36 471.63 294.38 471.64 294.38 471.67 294.39 471.67 294.43 471.7 294.46 471.73 294.48 471.8 294.5 471.82 294.53 471.86 294.58 471.96 294.67 472 294.7 472.06 294.81 472.12 294.86 472.19 294.9 472.26 294.93 472.27 294.93 472.36 294.93 472.46 294.92 472.62 294.88 472.82 294.78 472.86 294.75 472.95 294.7 472.97 294.69 472.99 294.69 472.99 294.71 472.92 294.73 472.79 294.83 472.72 294.85 472.6 294.9 472.41 294.95 472.52 294.95 472.52 294.97 472.49 294.99 472.55 294.99 472.58 294.98 472.59 294.95 472.61 294.95 472.61 294.97 472.62 294.97 472.63 294.97 472.64 294.97 472.78 294.88 472.89 294.85 472.91 294.83 472.93 294.83 472.94 294.84 472.97 294.85 472.96 294.86 472.94 294.86 472.94 294.88 472.97 294.87 473.02 294.85 473.02 294.83 472.96 294.83 472.96 294.81 472.99 294.8 473.03 294.81 473.06 294.83 473.08 294.86 473.09 294.88 473.09 294.9 473.09 294.92 473.06 294.92 473.14 294.94 473.17 294.94 473.2 294.92 473.2 294.9 473.18 294.88 473.17 294.88 473.17 294.86 473.26 294.84 473.28 294.83 473.27 294.81 473.27 294.79 473.28 294.77 473.29 294.74 473.28 294.74 473.26 294.76 473.22 294.79 473.21 294.8 473.2 294.81 473.2 294.82 473.22 294.83 473.19 294.83 473.14 294.83 473.08 294.82 473.05 294.81 473.12 294.8 473.15 294.76 473.18 294.71 473.22 294.67 473.24 294.66 473.3 294.65 473.32 294.63 473.37 294.59 473.39 294.58 473.43 294.58 473.43 294.6 473.37 294.6 473.37 294.61 473.4 294.63 473.48 294.74 473.5 294.78 473.49 294.8 473.46 294.8 473.43 294.83 473.43 294.82 473.43 294.81 473.42 294.81 473.41 294.81 473.41 294.83 473.45 294.85 473.47 294.89 473.47 294.93 473.45 294.97 473.52 294.94 473.57 294.93 473.6 294.93 473.61 294.93 473.62 294.93 473.64 294.93 473.64 294.92 473.61 294.9 473.6 294.9 473.6 294.92 473.58 294.92 473.58 294.9 473.7 294.85 473.73 294.83 473.75 294.83 473.73 294.85 473.75 294.86 473.76 294.85 473.78 294.85 473.8 294.86 473.81 294.88 473.82 294.88 473.83 294.86 473.83 294.83 473.82 294.83 473.85 294.83 473.83 294.82 473.81 294.82 473.79 294.82 473.76 294.81 474.01 294.79 473.99 294.74 474.02 294.74 474.05 294.73 474.05 294.69 474.07 294.7 474.08 294.71 474.1 294.71 474.13 294.7 474.22 294.74 474.26 294.76 474.42 294.77 474.46 294.79 474.46 294.77 474.51 294.79 474.59 294.78 475.04 294.67 475.47 294.5 475.81 294.28 475.81 294.28 Z" fill-rule="evenodd" id="Egypt" transform="translate(-454.7300109863281,-293.3900146484375) "/></svg>