<svg xmlns="http://www.w3.org/2000/svg" viewBox="0 0 5.3600006103515625 2.920013427734375"><path d="M 205.61 337.69 205.61 337.71 205.59 337.72 205.57 337.71 205.55 337.72 205.55 337.69 205.54 337.67 205.54 337.64 205.54 337.61 205.55 337.6 205.58 337.61 205.6 337.65 205.61 337.69 Z M 205.47 337.59 205.46 337.61 205.43 337.58 205.42 337.54 205.43 337.53 205.45 337.53 205.47 337.54 205.48 337.57 205.47 337.59 Z M 201.92 334.88 201.95 334.89 202.03 334.9 202.1 334.93 202.22 334.96 202.27 335 202.38 335.03 202.4 335.01 202.43 334.95 202.45 334.93 202.47 334.92 202.48 334.93 202.49 334.94 202.5 334.95 202.51 334.97 202.52 335 202.52 335.02 202.51 335.04 202.53 335.06 202.61 335.07 202.64 335.09 202.66 335.12 202.67 335.19 202.68 335.21 202.73 335.25 202.75 335.28 202.77 335.31 202.78 335.34 202.78 335.35 202.78 335.37 202.79 335.39 202.81 335.41 202.83 335.4 202.86 335.39 202.89 335.37 202.93 335.37 202.98 335.41 203.03 335.47 203.06 335.53 203.07 335.6 203.11 335.59 203.21 335.6 203.24 335.59 203.26 335.57 203.28 335.57 203.29 335.6 203.29 335.64 203.28 335.67 203.28 335.71 203.31 335.73 203.36 335.74 203.37 335.74 203.39 335.75 203.4 335.77 203.4 335.79 203.4 335.8 203.4 335.8 203.42 335.8 203.47 335.79 203.53 335.79 203.7 335.85 203.79 335.85 203.82 335.86 203.84 335.88 203.83 335.89 203.83 335.89 203.83 335.9 203.83 335.9 203.83 335.9 203.82 335.9 203.82 335.9 203.83 335.93 203.83 335.95 203.82 335.98 203.82 336.01 203.83 336.04 203.85 336.09 203.85 336.13 203.83 336.16 203.89 336.16 203.93 336.14 203.97 336.12 204.06 336.1 204.08 336.1 204.12 336.11 204.14 336.12 204.14 336.11 204.14 336.1 204.14 336.08 204.15 336.07 204.16 336.07 204.18 336.08 204.2 336.08 204.21 336.09 204.23 336.06 204.25 336.05 204.28 336.05 204.3 336.04 204.32 336.02 204.33 336.01 204.33 335.99 204.35 335.98 204.38 335.97 204.4 335.97 204.41 335.97 204.42 335.93 204.42 335.93 204.4 335.91 204.39 335.9 204.39 335.86 204.39 335.85 204.41 335.84 204.45 335.85 204.45 335.85 204.5 335.86 204.54 335.86 204.66 335.85 204.71 335.85 204.74 335.87 204.77 335.95 204.8 335.99 204.84 336.03 204.88 336.07 204.9 336.13 205 336.08 205.03 336.07 205.04 336.07 205.05 336.07 205.08 336.09 205.1 336.1 205.11 336.09 205.14 336.07 205.15 336.07 205.18 336.07 205.22 336.08 205.24 336.07 205.26 336.06 205.28 336.04 205.3 336.02 205.34 336.02 205.36 336.03 205.38 336.09 205.4 336.12 205.41 336.13 205.44 336.14 205.45 336.15 205.49 336.18 205.55 336.23 205.59 336.25 205.57 336.28 205.53 336.38 205.51 336.42 205.53 336.46 205.52 336.48 205.5 336.5 205.48 336.53 205.47 336.57 205.47 336.65 205.47 336.69 205.41 336.82 205.4 336.88 205.42 336.94 205.45 336.94 205.49 336.93 205.52 336.94 205.54 336.96 205.55 336.99 205.56 337.02 205.55 337.05 205.51 337.09 205.34 337.17 205.34 337.17 205.34 337.17 205.32 337.16 205.31 337.14 205.29 337.09 205.23 337.2 205.21 337.26 205.25 337.29 205.28 337.3 205.35 337.37 205.4 337.4 205.4 337.41 205.4 337.44 205.38 337.49 205.34 337.52 205.17 337.61 205.13 337.64 205.12 337.68 205.17 337.71 205.09 337.73 204.79 337.71 204.72 337.7 204.7 337.7 204.66 337.71 204.47 337.73 204.27 337.7 204.21 337.71 204.18 337.7 204.15 337.7 204.15 337.68 204.2 337.68 204.21 337.64 204.18 337.6 204.14 337.57 204.15 337.59 204.17 337.63 204.18 337.65 204.1 337.65 204.06 337.65 204.03 337.67 204.05 337.67 204.07 337.67 204.09 337.67 204.12 337.67 204.12 337.68 204.07 337.7 204.01 337.7 203.97 337.67 203.96 337.62 203.98 337.63 203.99 337.63 204.02 337.6 204.02 337.59 203.98 337.57 203.94 337.51 203.91 337.5 203.92 337.53 203.93 337.56 203.94 337.58 203.93 337.6 203.89 337.59 203.8 337.56 203.76 337.54 203.72 337.48 203.71 337.46 203.68 337.46 203.61 337.45 203.57 337.45 203.48 337.46 203.36 337.47 203.33 337.48 203.35 337.49 203.36 337.5 203.38 337.5 203.39 337.5 203.46 337.51 203.63 337.49 203.65 337.5 203.68 337.51 203.7 337.53 203.73 337.56 203.74 337.57 203.74 337.59 203.7 337.58 203.67 337.58 203.61 337.56 203.61 337.57 203.79 337.61 203.88 337.64 203.93 337.68 203.91 337.71 203.87 337.7 203.83 337.68 203.8 337.66 203.76 337.64 203.19 337.54 203.12 337.5 202.57 337.25 202.31 337.09 202.16 337.02 202 336.98 201.92 336.98 201.86 336.97 201.55 336.97 201.41 336.94 201.35 336.93 201.21 336.88 201.14 336.9 200.93 336.9 200.89 336.87 200.87 336.79 200.86 336.74 200.83 336.72 200.79 336.69 200.61 336.59 200.45 336.52 200.29 336.44 200.25 336.29 200.25 336.25 200.25 336.22 200.26 336.18 200.28 336.15 200.31 336.12 200.37 336.09 200.4 336.07 200.42 336.03 200.43 336 200.45 335.97 200.48 335.94 200.69 335.79 200.74 335.74 200.77 335.73 200.86 335.69 200.9 335.69 200.94 335.7 200.99 335.74 201.03 335.76 201.06 335.74 201.06 335.73 201.06 335.72 201.04 335.69 201.04 335.67 201.05 335.65 201.14 335.49 201.19 335.44 201.24 335.4 201.3 335.37 201.54 335.31 201.55 335.3 201.55 335.26 201.55 335.25 201.52 335.24 201.51 335.23 201.5 335.22 201.5 335.18 201.5 335.17 201.48 335.15 201.48 335.14 201.47 335.13 201.45 335.12 201.4 335.11 201.39 335.08 201.4 335.06 201.43 335.05 201.44 335.02 201.43 335 201.42 334.97 201.41 334.95 201.42 334.91 201.45 334.89 201.49 334.89 201.51 334.92 201.52 334.96 201.55 334.94 201.6 334.87 201.62 334.87 201.64 334.85 201.68 334.86 201.7 334.87 201.73 334.88 201.76 334.87 201.81 334.82 201.83 334.81 201.84 334.86 201.85 334.84 201.85 334.84 201.92 334.88 Z" fill-rule="evenodd" id="El Salvador" transform="translate(-200.25,-334.80999755859375) "/></svg>