<svg xmlns="http://www.w3.org/2000/svg" viewBox="0 0 12.69000244140625 11.55999755859375"><path d="M 412.51 370.17 412.48 370.2 412.44 370.17 412.45 370.17 412.46 370.16 412.47 370.16 412.46 370.13 412.45 370.11 412.46 370.08 412.49 370.07 412.52 370.12 412.51 370.17 Z M 425.1 362.18 425.11 362.27 425.12 362.45 425.12 363.02 425.12 363.14 425.12 363.6 425.13 364.18 425.13 364.75 424.47 364.75 424.3 364.75 423.8 364.75 423.14 364.75 423.09 364.75 422.47 364.74 422.23 364.74 422.17 364.75 422.12 364.76 422.11 364.79 422.11 364.85 422.1 364.88 422.08 364.91 422.04 364.92 422 364.91 421.96 364.89 421.93 364.87 421.87 364.8 421.83 364.78 421.8 364.76 421.73 364.76 421.73 364.75 421.74 364.74 421.73 364.71 421.72 364.65 421.72 364.62 421.74 364.61 421.77 364.6 421.8 364.59 421.83 364.59 421.82 364.58 421.79 364.57 421.76 364.57 421.73 364.56 421.71 364.56 421.65 364.52 421.62 364.52 421.53 364.54 421.51 364.53 421.5 364.51 421.51 364.49 421.53 364.47 421.54 364.46 421.5 364.48 421.45 364.52 421.41 364.57 421.39 364.6 421.37 364.62 421.3 364.63 421.25 364.66 421.23 364.63 421.19 364.53 421.17 364.5 421.15 364.48 421.11 364.46 421.07 364.45 421.04 364.46 421.02 364.47 420.95 364.48 420.88 364.51 420.85 364.52 420.83 364.51 420.78 364.45 420.75 364.43 420.75 364.41 420.75 364.39 420.72 364.35 420.75 364.34 420.78 364.31 420.8 364.28 420.83 364.17 420.85 364.13 420.88 364.11 420.91 364.09 420.94 364.05 420.97 364 420.98 363.96 420.97 363.87 420.98 363.84 421.04 363.81 421.13 363.73 421.17 363.68 421.18 363.68 421.18 363.67 421.19 363.66 421.2 363.64 421.21 363.62 421.23 363.56 421.27 363.49 421.31 363.46 421.34 363.47 421.37 363.49 421.41 363.51 421.47 363.5 421.51 363.48 421.55 363.45 421.6 363.43 421.56 363.43 421.47 363.49 421.43 363.48 421.33 363.39 421.3 363.33 421.32 363.27 421.45 363.14 421.46 363.14 421.47 363.11 421.48 363.1 421.52 363.07 421.54 363.05 421.55 363.04 421.57 362.99 421.58 362.98 421.59 362.97 421.6 362.96 421.61 362.9 421.62 362.89 421.63 362.88 421.63 362.87 421.64 362.84 421.72 362.77 421.74 362.69 421.74 362.6 421.67 362.42 421.65 362.38 421.65 362.36 421.64 362.34 421.65 362.31 421.66 362.3 421.67 362.29 421.67 362.28 421.69 362 421.69 361.95 421.67 361.92 421.65 361.87 421.68 361.83 421.72 361.8 421.75 361.83 421.75 361.88 421.74 361.92 421.75 361.97 421.78 362 421.83 362.05 421.88 362.08 421.92 362.1 421.96 362.11 422.1 362.18 422.15 362.19 422.45 362.19 422.59 362.19 423.07 362.18 423.11 362.18 423.77 362.18 424.43 362.18 425.1 362.18 Z M 419.44 358.69 419.47 358.69 419.49 358.68 419.54 358.69 419.61 358.7 419.69 358.7 419.75 358.68 419.75 358.68 419.76 358.69 419.78 358.69 419.84 358.76 419.86 358.8 419.87 358.85 419.86 358.89 419.86 358.93 419.84 358.96 419.82 358.99 419.74 359.06 419.72 359.12 419.65 359.21 419.64 359.22 419.6 359.34 419.56 359.37 419.55 359.42 419.54 359.43 419.54 359.44 419.47 359.48 419.47 359.51 419.46 359.61 419.45 359.65 419.35 359.76 419.28 359.89 419.25 359.91 419.23 359.9 419.18 359.88 419.17 359.86 419.16 359.87 419.12 359.86 419.06 359.82 419.05 359.83 419 359.84 418.97 359.84 418.95 359.83 418.9 359.8 418.87 359.79 418.83 359.79 418.77 359.78 418.73 359.75 418.71 359.68 418.7 359.66 418.68 359.63 418.67 359.6 418.68 359.57 418.68 359.55 418.7 359.46 418.71 359.42 418.74 359.36 418.78 359.33 418.84 359.34 418.86 359.32 418.9 359.33 418.98 359.34 419.02 359.33 419.03 359.29 419.02 359.25 419 359.22 419.03 359.2 419.07 359.18 419.1 359.15 419.11 359.12 419.13 358.92 419.15 358.84 419.21 358.75 419.29 358.67 419.38 358.64 419.38 358.65 419.37 358.68 419.44 358.69 Z" fill-rule="evenodd" id="Equatorial Guinea" transform="translate(-412.44000244140625,-358.6400146484375) "/></svg>