<svg xmlns="http://www.w3.org/2000/svg" viewBox="0 0 14.850006103515625 12.8800048828125"><path d="M 488.72 331.54 488.81 331.57 488.85 331.6 488.87 331.61 488.89 331.64 488.9 331.66 488.9 331.66 488.89 331.69 488.87 331.72 488.86 331.74 488.88 331.76 488.9 331.76 488.92 331.75 488.94 331.74 488.94 331.73 488.92 331.72 488.92 331.7 488.95 331.7 488.95 331.7 488.97 331.71 488.97 331.74 488.97 331.74 488.96 331.93 488.97 331.96 488.98 331.99 488.98 332 489.02 332.06 489.03 332.08 489.05 332.08 489.18 332.12 489.22 332.06 489.23 332.04 489.25 332.04 489.22 332.03 489.17 332.01 489.15 331.99 489.15 331.99 489.17 331.96 489.21 331.95 489.26 331.95 489.3 331.95 489.33 331.95 489.35 331.96 489.36 331.96 489.37 331.97 489.38 331.98 489.39 332 489.39 332.02 489.4 332.03 489.42 332.04 489.45 332.05 489.49 332.08 489.52 332.09 489.56 332.09 489.57 332.09 489.58 332.19 489.57 332.23 489.54 332.24 489.54 332.24 489.49 332.22 489.48 332.22 489.46 332.21 489.35 332.24 489.3 332.24 489.26 332.23 489.18 332.19 489.13 332.18 489.02 332.21 489 332.2 488.98 332.2 488.98 332.19 488.96 332.17 488.95 332.16 488.95 332.16 488.94 332.15 488.94 332.15 488.92 332.19 488.89 332.21 488.86 332.21 488.8 332.2 488.71 332.16 488.7 332.16 488.67 332.16 488.62 332.17 488.62 332.17 488.6 332.14 488.59 332.12 488.53 331.95 488.55 331.95 488.57 331.95 488.57 331.96 488.57 331.96 488.56 331.98 488.58 331.99 488.59 332 488.59 332.01 488.6 332.02 488.6 332.04 488.6 332.04 488.62 332.04 488.64 332.03 488.67 332.05 488.7 332.06 488.73 332.07 488.73 332.07 488.75 332.07 488.85 332.04 488.81 331.97 488.75 331.91 488.69 331.87 488.61 331.85 488.54 331.87 488.51 331.86 488.5 331.82 488.5 331.78 488.52 331.75 488.55 331.75 488.6 331.78 488.62 331.79 488.64 331.79 488.65 331.77 488.63 331.74 488.61 331.7 488.61 331.69 488.61 331.69 488.66 331.67 488.71 331.66 488.74 331.66 488.74 331.66 488.75 331.64 488.75 331.64 488.73 331.6 488.71 331.57 488.69 331.55 488.69 331.55 488.61 331.56 488.59 331.55 488.56 331.51 488.56 331.51 488.64 331.52 488.72 331.54 Z M 488.92 331.3 488.88 331.31 488.82 331.29 488.76 331.26 488.67 331.25 488.64 331.23 488.65 331.19 488.66 331.15 488.7 331.14 488.75 331.13 488.77 331.12 488.76 331.1 488.76 331.08 488.76 331.06 488.76 331.03 488.78 331.02 488.83 331.06 488.85 331.07 488.87 331.08 488.91 331.1 488.93 331.12 488.91 331.15 488.88 331.16 488.85 331.19 488.84 331.22 488.85 331.24 488.87 331.25 488.89 331.26 488.91 331.28 488.92 331.3 Z M 480.97 335.23 480.92 334.81 480.88 334.53 480.85 334.24 480.82 334.02 480.81 333.9 480.76 333.51 480.74 333.3 480.74 333.25 480.76 333.21 480.92 333.05 480.96 332.99 481.08 332.65 481.12 332.58 481.19 332.53 481.16 332.43 481.17 332.34 481.29 331.9 481.31 331.85 481.42 331.74 481.48 331.64 481.59 331.34 481.69 331.05 481.76 330.84 481.8 330.78 481.89 330.69 481.92 330.63 481.91 330.58 481.87 330.49 481.86 330.44 481.86 330.39 481.87 330.35 481.87 330.31 481.86 330.27 481.85 330.26 481.82 330.22 481.79 330.18 481.76 330.14 481.74 330.09 481.74 330.06 481.77 329.97 481.78 329.92 481.77 329.85 481.78 329.81 481.8 329.76 481.83 329.73 481.91 329.68 481.93 329.65 481.98 329.51 481.99 329.37 482 329.36 482.01 329.34 482.02 329.33 482.01 329.32 482 329.3 482 329.29 482 329.2 482 329.17 481.98 329.14 481.95 329.12 481.95 329.09 482 329.02 482.01 328.97 482 328.93 481.96 328.87 481.95 328.85 481.96 328.83 481.96 328.83 481.97 328.81 482.02 328.8 482.05 328.82 482.09 328.84 482.13 328.86 482.18 328.87 482.21 328.88 482.29 328.93 482.31 328.93 482.43 328.91 482.47 328.92 482.53 328.91 482.64 328.85 482.7 328.84 482.91 328.9 483.04 328.75 483.05 328.71 483.06 328.65 483.11 328.57 483.13 328.52 483.14 328.42 483.14 328.38 483.11 328.28 483.12 328.25 483.14 328.24 483.43 328.14 483.52 328.13 483.61 328.08 483.71 327.91 483.79 327.87 483.83 327.88 483.9 327.95 483.95 327.96 484 327.95 484.05 327.92 484.12 327.83 484.27 327.73 484.27 327.72 484.32 327.71 484.37 327.71 484.39 327.73 484.39 327.77 484.39 327.81 484.4 327.86 484.44 327.86 484.47 327.83 484.5 327.79 484.5 327.76 484.49 327.75 484.49 327.73 484.5 327.71 484.51 327.71 484.59 327.68 484.63 327.71 484.66 327.74 484.7 327.77 484.75 327.76 484.79 327.72 484.79 327.67 484.79 327.63 484.8 327.58 484.84 327.54 484.95 327.49 485 327.46 485.06 327.36 485.19 327 485.25 326.91 485.57 326.65 485.57 326.67 485.59 326.7 485.61 326.77 485.7 326.9 485.71 326.93 485.71 326.97 485.72 327 485.76 327.06 485.76 327.07 485.78 327.11 485.98 327.43 486.14 327.79 486.29 328.05 486.35 328.25 486.37 328.3 486.35 328.39 486.39 328.46 486.45 328.52 486.48 328.59 486.49 328.68 486.51 328.76 486.57 328.89 486.58 328.94 486.59 329.03 486.6 329.08 486.64 329.14 486.65 329.24 486.66 329.27 486.73 329.44 486.78 329.62 486.75 329.61 486.8 329.71 486.81 329.76 486.81 329.83 486.77 329.87 486.81 329.97 486.8 330.03 486.78 330.02 486.78 330.05 486.81 330.06 486.83 330.06 486.84 330.07 486.84 330.15 486.84 330.17 486.85 330.19 486.86 330.21 486.87 330.23 486.87 330.26 486.87 330.35 486.87 330.38 486.88 330.4 486.9 330.44 486.9 330.46 486.9 330.49 486.89 330.55 486.89 330.58 486.96 330.88 486.96 330.98 486.97 331.02 487.02 331.13 487.1 331.43 487.14 331.51 487.28 331.59 487.3 331.63 487.32 331.64 487.4 331.68 487.42 331.7 487.42 331.73 487.41 331.75 487.4 331.77 487.39 331.8 487.4 331.83 487.43 331.86 487.43 331.88 487.44 331.94 487.45 331.97 487.51 332.04 487.47 332.05 487.44 332.07 487.44 332.1 487.45 332.14 487.46 332.12 487.48 332.09 487.5 332.08 487.52 332.1 487.52 332.15 487.48 332.17 487.43 332.17 487.4 332.17 487.41 332.2 487.45 332.26 487.46 332.34 487.46 332.35 487.5 332.37 487.55 332.37 487.6 332.36 487.62 332.35 487.63 332.32 487.67 332.31 487.72 332.32 487.75 332.34 487.81 332.41 487.92 332.78 487.93 332.79 487.97 332.81 487.98 332.82 487.99 332.86 488 332.89 488.02 332.93 488.04 332.95 488.01 333.07 488 333.27 488 333.28 488.02 333.29 488.03 333.3 488.04 333.34 488.06 333.35 488.09 333.36 488.12 333.34 488.14 333.38 488.17 333.39 488.2 333.38 488.25 333.37 488.26 333.36 488.28 333.33 488.28 333.3 488.28 333.29 488.27 333.26 488.28 333.25 488.3 333.23 488.34 333.16 488.35 333.11 488.3 333.03 488.28 332.94 488.26 332.91 488.23 332.91 488.22 332.94 488.2 332.96 488.18 332.92 488.18 332.87 488.18 332.75 488.18 332.73 488.17 332.69 488.16 332.66 488.17 332.63 488.18 332.62 488.2 332.62 488.21 332.61 488.22 332.53 488.24 332.5 488.27 332.53 488.29 332.53 488.29 332.51 488.3 332.46 488.32 332.46 488.32 332.47 488.32 332.49 488.34 332.48 488.37 332.43 488.39 332.4 488.42 332.46 488.47 332.51 488.68 332.68 488.71 332.7 488.76 332.71 488.78 332.72 488.8 332.73 488.83 332.75 488.84 332.77 488.85 332.8 488.85 332.82 488.83 332.85 488.79 332.88 488.77 332.9 488.76 332.92 488.73 333.01 488.75 333.01 488.77 333.01 488.78 333.03 488.79 333.05 488.78 333.06 488.76 333.07 488.75 333.07 488.76 333.08 488.77 333.09 488.77 333.1 488.78 333.12 488.84 333.16 488.85 333.18 488.85 333.21 488.88 333.26 488.89 333.29 488.89 333.32 488.89 333.35 488.88 333.38 488.89 333.4 488.92 333.39 488.95 333.4 488.97 333.42 488.98 333.44 488.99 333.46 489 333.46 489.01 333.47 489.01 333.48 489.01 333.5 489 333.54 489 333.55 489.02 333.59 489.07 333.62 489.24 333.68 489.27 333.69 489.29 333.71 489.3 333.75 489.34 333.74 489.39 333.7 489.44 333.68 489.47 333.63 489.5 333.58 489.53 333.54 489.53 333.58 489.54 333.61 489.56 333.63 489.59 333.62 489.6 333.6 489.6 333.58 489.6 333.55 489.64 333.54 489.67 333.54 489.67 333.54 489.7 333.56 489.69 333.57 489.69 333.58 489.69 333.6 489.72 333.6 489.74 333.61 489.74 333.63 489.75 333.64 489.77 333.64 489.79 333.63 489.8 333.62 489.81 333.6 489.82 333.59 489.81 333.57 489.8 333.55 489.8 333.51 489.82 333.52 489.83 333.55 489.83 333.56 489.9 333.57 489.9 333.59 489.9 333.61 489.9 333.63 489.91 333.65 489.93 333.66 489.94 333.66 489.95 333.66 489.97 333.65 490.01 333.66 490.03 333.67 490.04 333.69 490.05 333.78 490.06 333.8 490.12 333.82 490.11 333.79 490.13 333.77 490.19 333.78 490.21 333.79 490.21 333.81 490.2 333.82 490.17 333.81 490.15 333.82 490.26 333.93 490.26 333.93 490.27 333.93 490.28 333.93 490.29 333.95 490.29 333.97 490.29 334.03 490.27 334.08 490.27 334.1 490.29 334.14 490.35 334.18 490.37 334.2 490.37 334.25 490.39 334.23 490.41 334.22 490.43 334.22 490.46 334.23 490.46 334.18 490.51 334.21 490.63 334.2 490.69 334.24 490.76 334.29 490.82 334.3 490.97 334.31 491.23 334.37 491.25 334.38 491.28 334.41 491.32 334.5 491.35 334.53 491.44 334.6 491.51 334.65 491.56 334.71 491.6 334.79 491.61 334.88 491.63 334.91 491.66 334.93 491.7 334.95 491.72 334.97 491.73 334.99 491.77 335.04 491.8 335.13 491.84 335.18 491.95 335.27 492 335.34 492.02 335.37 492.04 335.41 492.06 335.49 492.07 335.51 492.08 335.54 492.11 335.56 492.19 335.61 492.23 335.64 492.26 335.68 492.34 335.83 492.36 335.93 492.38 335.96 492.52 336 492.55 336.01 492.62 335.98 492.65 335.97 492.67 335.99 492.71 336.06 492.75 336.1 492.77 336.11 492.8 336.11 492.82 336.11 492.87 336.1 492.89 336.1 492.93 336.11 493 336.16 493.03 336.18 493.06 336.19 493.07 336.24 493.08 336.28 493.09 336.32 493.18 336.39 493.19 336.42 493.2 336.42 493.25 336.49 493.27 336.52 493.27 336.52 493.29 336.53 493.3 336.53 493.31 336.56 493.32 336.61 493.34 336.63 493.36 336.64 493.39 336.63 493.41 336.62 493.42 336.62 493.43 336.63 493.46 336.66 493.48 336.67 493.49 336.69 493.5 336.75 493.51 336.77 493.56 336.8 493.57 336.81 493.58 336.84 493.6 336.84 493.61 336.82 493.61 336.81 493.6 336.81 493.57 336.76 493.56 336.75 493.55 336.75 493.55 336.74 493.54 336.74 493.54 336.72 493.55 336.72 493.58 336.72 493.59 336.72 493.59 336.66 493.56 336.63 493.52 336.61 493.47 336.61 493.45 336.6 493.46 336.59 493.48 336.58 493.51 336.58 493.59 336.64 493.67 336.75 493.7 336.77 493.74 336.79 493.75 336.85 493.75 336.94 493.78 337.01 493.8 337.05 493.82 337.06 493.84 337.09 493.86 337.14 493.89 337.41 493.93 337.46 493.94 337.57 493.94 337.58 493.94 337.59 494.01 337.63 494.06 337.64 494.16 337.65 494.2 337.64 494.23 337.62 494.24 337.59 494.25 337.56 494.28 337.56 494.29 337.58 494.29 337.6 494.3 337.62 494.31 337.63 494.33 337.64 494.34 337.65 494.35 337.67 494.36 337.7 494.48 337.8 494.55 337.93 494.58 337.94 494.63 337.95 494.66 337.97 494.69 337.99 494.72 338.01 494.74 338.05 494.76 338.18 494.79 338.26 494.8 338.3 494.81 338.37 494.82 338.4 494.83 338.42 494.86 338.43 494.89 338.42 494.92 338.41 494.95 338.39 494.98 338.46 495.03 338.49 495.09 338.51 495.17 338.52 495.16 338.53 495.14 338.56 495.16 338.56 495.17 338.56 495.2 338.55 495.19 338.54 495.24 338.52 495.24 338.52 495.27 338.49 495.29 338.46 495.29 338.43 495.29 338.42 495.3 338.41 495.32 338.39 495.31 338.37 495.3 338.35 495.31 338.33 495.32 338.32 495.38 338.36 495.41 338.39 495.42 338.42 495.43 338.44 495.46 338.46 495.49 338.48 495.51 338.49 495.52 338.52 495.53 338.59 495.53 338.63 495.59 338.73 495.58 338.75 495.1 338.96 495.07 338.96 495.05 338.94 495.03 338.93 494.99 338.97 494.94 339.09 494.84 339.18 494.85 339.25 494.87 339.32 494.86 339.38 494.83 339.39 494.76 339.41 494.74 339.43 494.71 339.47 494.64 339.49 494.63 339.49 494.6 339.53 494.26 339.23 494.15 339.18 494.09 339.17 494.06 339.17 493.94 339.3 493.84 339.18 493.65 338.94 493.51 338.69 493.4 338.6 493.28 338.53 493.15 338.48 492.98 338.37 492.87 338.21 492.69 337.83 492.62 337.72 492.55 337.62 492.46 337.53 492.29 337.39 492.06 337.2 491.67 336.95 491.38 336.76 491.31 336.7 491.15 336.42 490.98 336.11 490.75 335.85 490.51 335.59 490.38 335.49 490.23 335.43 490.03 335.4 489.97 335.38 489.73 335.27 489.6 335.2 489.45 335.06 489.28 334.91 489.19 334.85 489.1 334.82 488.9 334.77 488.86 334.77 488.75 334.8 488.72 334.8 488.67 334.79 488.62 334.78 488.58 334.79 488.51 334.85 488.47 334.86 488.43 334.86 488.39 334.84 488.28 334.74 488.22 334.7 488.15 334.68 488.08 334.68 488.05 334.69 487.95 334.7 487.89 334.7 487.78 334.66 487.77 334.66 487.75 334.64 487.71 334.59 487.67 334.56 487.63 334.54 487.59 334.54 487.57 334.58 487.53 334.63 487.44 334.68 487.26 334.73 487.22 334.73 487.1 334.71 487.05 334.72 487.02 334.75 486.97 334.83 486.91 334.83 486.87 334.74 486.8 334.55 486.77 334.5 486.73 334.46 486.69 334.42 486.64 334.39 486.62 334.38 486.55 334.36 486.47 334.35 486.47 334.35 486.44 334.37 486.44 334.41 486.44 334.45 486.44 334.5 486.4 334.54 486.36 334.57 486.27 334.61 486.19 334.68 486.15 334.7 486.05 334.71 485.92 334.77 485.88 334.78 485.84 334.78 485.8 334.78 485.76 334.76 485.72 334.76 485.58 334.83 485.5 334.86 485.33 334.88 485.22 334.87 485.2 334.88 485.18 334.88 485.15 334.86 485.14 334.84 485.13 334.79 485.11 334.77 484.99 334.71 484.95 334.68 484.93 334.65 484.91 334.61 484.89 334.52 484.87 334.49 484.85 334.47 484.83 334.46 484.8 334.44 484.79 334.42 484.78 334.35 484.78 334.34 484.76 334.31 484.74 334.28 484.71 334.27 484.66 334.26 484.53 334.29 484.49 334.28 484.25 334.18 484.23 334.16 484.22 334.14 484.22 334.12 484.21 334.1 484.19 334.09 484.16 334.08 484.15 334.07 484.15 334.06 484.14 334.04 484.14 334.03 484.14 334.01 484.14 334 484.13 333.99 484.11 333.99 484.1 333.98 484.06 333.9 484.03 333.86 483.99 333.83 483.9 334.04 483.76 334.39 483.62 334.73 483.48 335.06 483.35 335.37 483.27 335.56 483.24 335.59 483.2 335.56 483.18 335.53 483.17 335.5 483.17 335.44 483.16 335.42 483.14 335.4 483.12 335.39 483.1 335.38 483.07 335.37 483.06 335.35 483.05 335.29 483.03 335.25 483.02 335.23 482.93 335.16 482.9 335.14 482.89 335.12 482.89 335.06 482.89 335.03 482.88 335.01 482.85 334.98 482.76 334.86 482.72 334.83 482.67 334.79 482.64 334.79 482.59 334.81 482.43 334.8 482.35 334.82 482.29 334.87 482.25 334.92 482.23 334.96 482.23 335.01 482.22 335.06 482.22 335.11 482.2 335.15 482.18 335.18 482.15 335.2 482.13 335.2 482.09 335.2 482.07 335.2 482.04 335.22 482.03 335.23 482.01 335.23 481.99 335.22 481.97 335.21 481.95 335.2 481.91 335.14 481.9 335.13 481.83 335.12 481.68 335.08 481.61 335.07 481.46 335.07 481.44 335.08 481.4 335.1 481.38 335.1 481.28 335.1 481.24 335.11 481.17 335.14 481.14 335.15 481.09 335.15 481.05 335.16 481.03 335.18 481.01 335.23 480.97 335.23 Z" fill-rule="evenodd" id="Eritrea" transform="translate(-480.739990234375,-326.6499938964844) "/></svg>