<svg xmlns="http://www.w3.org/2000/svg" viewBox="0 0 14.08001708984375 9.150009155273438"><path d="M 451.58 209.99 451.54 209.99 451.49 209.96 451.47 209.93 451.47 209.89 451.47 209.86 451.48 209.83 451.51 209.84 451.56 209.87 451.58 209.9 451.59 209.93 451.58 209.99 Z M 453.21 208.64 453.14 208.68 453.07 208.62 453.06 208.52 453.1 208.46 453.17 208.44 453.23 208.46 453.25 208.55 453.21 208.64 Z M 450.19 206.62 450.2 206.63 450.23 206.62 450.26 206.58 450.28 206.57 450.32 206.58 450.36 206.61 450.4 206.62 450.45 206.6 450.52 206.51 450.57 206.47 450.64 206.51 450.76 206.49 450.81 206.5 450.86 206.53 450.96 206.56 451.06 206.64 451.19 206.7 451.23 206.76 451.26 206.85 451.28 206.87 451.31 206.9 451.4 206.95 451.49 206.98 451.55 207 451.62 207.05 451.69 207.11 451.72 207.18 451.7 207.24 451.56 207.14 451.51 207.18 451.54 207.19 451.56 207.2 451.58 207.22 451.6 207.26 451.5 207.25 451.46 207.22 451.42 207.18 451.41 207.16 451.4 207.13 451.39 207.1 451.36 207.09 451.33 207.09 451.33 207.1 451.31 207.12 451.31 207.14 451.3 207.2 451.29 207.22 451.27 207.25 451.26 207.27 451.22 207.3 451.21 207.29 451.19 207.29 451.17 207.29 451.16 207.34 451.16 207.37 451.17 207.39 451.17 207.42 451.18 207.44 451.12 207.48 451.08 207.54 451.03 207.57 450.93 207.5 450.88 207.5 450.87 207.53 450.92 207.59 450.77 207.79 450.73 207.81 450.7 207.82 450.66 207.85 450.6 207.93 450.56 207.95 450.51 207.96 450.41 207.95 450.37 207.96 450.34 208.02 450.44 208.08 450.37 208.15 450.25 208.17 450.22 208.07 450.18 208.05 450.14 208.04 450.1 208.04 450.07 208.06 450.03 208.09 450.02 208.11 450.01 208.1 449.98 208.06 449.95 208.03 449.93 208.06 449.91 208.13 449.9 208.15 449.89 208.16 449.88 208.16 449.87 208.16 449.87 208.15 449.86 208.09 449.86 208.07 449.82 208.07 449.78 208.09 449.75 208.12 449.73 208.15 449.7 208.17 449.68 208.16 449.65 208.14 449.63 208.15 449.61 208.16 449.57 208.19 449.55 208.19 449.48 208.23 449.42 208.29 449.39 208.33 449.38 208.35 449.37 208.37 449.36 208.52 449.36 208.62 449.34 208.71 449.27 208.88 449.26 208.92 449.23 208.95 449.21 208.99 449.21 209.03 449.22 209.12 449.19 209.16 448.87 209.45 448.8 209.45 448.74 209.37 448.75 209.32 448.75 209.27 448.72 209.24 448.69 209.22 448.69 209.22 448.68 209.2 448.68 209.18 448.69 209.16 448.74 209.17 448.76 209.16 448.78 209.13 448.8 209.05 448.81 209.01 448.9 208.88 448.94 208.79 448.96 208.75 448.98 208.74 449.01 208.75 449.04 208.76 449.07 208.78 449.09 208.76 449.11 208.74 449.12 208.65 449.13 208.61 449.22 208.48 449.17 208.42 449.08 208.39 448.93 208.36 448.88 208.32 448.8 208.12 448.75 208.07 448.61 208.07 448.54 208.05 448.47 207.99 448.44 207.92 448.42 207.87 448.42 207.83 448.45 207.81 448.56 207.85 448.54 207.78 448.5 207.72 448.49 207.66 448.53 207.64 448.57 207.67 448.61 207.73 448.64 207.76 448.69 207.73 448.67 207.65 448.7 207.61 448.75 207.6 448.79 207.61 448.77 207.56 448.74 207.47 448.65 207.28 448.6 207.22 448.55 207.13 448.52 207.09 448.46 207.03 448.4 206.95 448.51 207 448.55 207 448.58 206.99 448.59 206.98 448.59 206.95 448.61 206.92 448.69 206.92 448.76 206.94 448.81 207 448.91 207.18 448.92 207.22 448.93 207.28 448.93 207.3 448.94 207.32 448.95 207.32 448.96 207.32 448.99 207.31 448.99 207.27 448.97 207.21 448.99 207.1 449 207.05 449.02 207 449.05 206.98 449.12 206.94 449.15 206.9 449.17 206.85 449.18 206.81 449.2 206.8 449.24 206.8 449.24 206.81 449.25 206.83 449.26 206.86 449.26 206.88 449.27 206.93 449.27 206.95 449.31 206.98 449.37 206.99 449.39 206.9 449.4 206.79 449.41 206.7 449.48 206.64 449.79 206.6 449.99 206.45 450.06 206.43 450.08 206.45 450.12 206.55 450.15 206.57 450.16 206.58 450.19 206.62 Z M 451.76 206.46 451.75 206.51 451.75 206.54 451.77 206.58 451.81 206.63 451.83 206.66 451.86 206.73 451.87 206.76 451.83 206.79 451.81 206.83 451.79 206.86 451.75 206.85 451.72 206.82 451.68 206.81 451.6 206.8 451.57 206.81 451.5 206.85 451.48 206.85 451.28 206.66 451.17 206.61 451.11 206.56 451.12 206.47 451.15 206.45 451.22 206.47 451.25 206.45 451.26 206.43 451.27 206.34 451.28 206.31 451.33 206.25 451.37 206.23 451.42 206.23 451.62 206.29 451.72 206.35 451.75 206.38 451.76 206.42 451.76 206.46 Z M 451.44 204.67 451.6 204.72 451.7 204.7 451.75 204.7 451.79 204.74 451.85 204.83 451.86 204.88 451.84 204.95 451.81 204.97 451.79 204.96 451.76 204.94 451.74 204.93 451.71 204.94 451.65 204.99 451.6 204.99 451.53 204.94 451.48 204.93 451.47 204.94 451.46 204.96 451.45 204.98 451.37 205 451.35 205 451.31 204.98 451.25 204.79 451.24 204.77 451.25 204.72 451.27 204.69 451.31 204.67 451.36 204.67 451.44 204.67 Z M 450.36 204.81 450.4 204.84 450.62 204.83 450.84 204.93 450.87 204.99 450.88 205.03 450.87 205.1 450.87 205.14 450.89 205.18 450.94 205.22 450.96 205.24 450.97 205.27 451 205.3 451.02 205.33 451.02 205.35 451.03 205.37 451.02 205.42 451.03 205.45 451.05 205.45 451.06 205.46 451.07 205.46 451.07 205.55 451.06 205.59 451.03 205.6 450.93 205.53 450.91 205.52 450.89 205.52 450.87 205.53 450.87 205.56 450.86 205.57 450.83 205.55 450.79 205.57 450.75 205.57 450.72 205.58 450.69 205.63 450.71 205.64 450.72 205.65 450.73 205.67 450.74 205.71 450.73 205.76 450.72 205.77 450.7 205.77 450.68 205.8 450.64 205.82 450.58 205.82 450.52 205.8 450.49 205.75 450.52 205.71 450.56 205.67 450.6 205.64 450.58 205.59 450.55 205.59 450.49 205.62 450.44 205.66 450.4 205.69 450.35 205.8 450.28 206.04 450.22 206.13 450.12 206.19 450 206.2 449.88 206.17 449.79 206.08 449.81 206.06 449.83 206.04 449.87 205.99 449.84 205.94 449.8 205.86 449.76 205.78 449.75 205.71 449.75 205.6 449.74 205.54 449.72 205.5 449.61 205.37 449.55 205.33 449.49 205.31 449.41 205.31 449.27 205.35 449.2 205.34 448.91 205.18 448.87 205.14 448.89 205.07 448.98 205.05 449.14 205.08 449.79 204.99 449.75 204.96 449.75 204.93 449.77 204.92 449.82 204.95 449.85 204.94 449.85 204.79 449.88 204.75 449.93 204.75 449.97 204.73 450.01 204.7 450.04 204.64 450.04 204.6 450.04 204.56 450.05 204.53 450.07 204.49 450.09 204.48 450.19 204.49 450.19 204.49 450.24 204.5 450.31 204.52 450.35 204.56 450.3 204.69 450.32 204.76 450.36 204.81 Z M 454.4 202.49 454.34 202.51 454.28 202.44 454.28 202.36 454.31 202.28 454.34 202.27 454.38 202.33 454.42 202.45 454.4 202.49 Z M 462.11 202.78 462.15 202.86 462.25 202.91 462.3 202.97 462.35 203.1 462.37 203.13 462.4 203.17 462.46 203.22 462.48 203.25 462.47 203.33 462.42 203.29 462.32 203.37 462.14 203.39 462.07 203.42 462.23 203.49 462.28 203.49 462.24 203.55 461.98 203.54 461.85 203.61 461.81 203.68 461.82 203.75 461.79 203.84 461.72 204.17 461.59 204.53 461.55 204.62 461.46 204.8 461.43 204.9 461.39 204.96 461.39 204.97 461.19 205.14 460.91 205.4 460.84 205.64 460.76 205.91 460.8 206.11 460.85 206.32 460.96 206.85 461.08 207.44 460.95 207.76 460.92 207.97 460.95 208.17 461 208.28 461.05 208.38 461.14 208.57 461.25 208.73 461.26 208.85 461.25 208.96 461.25 209.08 461.29 209.1 461.33 209.13 461.35 209.23 461.34 209.28 461.32 209.33 461.31 209.38 461.32 209.44 461.34 209.46 461.57 209.55 461.6 209.59 461.62 209.68 461.59 209.73 461.54 209.77 461.4 209.83 461.08 209.88 461.04 209.88 461.01 209.9 461.03 209.91 461.08 209.95 461.02 209.98 460.99 210.01 460.96 210.04 460.95 210.11 460.98 210.23 460.98 210.28 460.94 210.32 460.75 210.39 460.72 210.43 460.7 210.45 460.69 210.48 460.69 210.52 460.69 210.54 460.69 210.56 460.7 210.61 460.7 210.63 460.71 210.64 460.7 210.73 460.7 210.75 460.68 210.77 460.65 210.78 460.62 210.78 460.6 210.79 460.58 210.83 460.58 210.88 460.59 210.95 460.61 211.01 460.63 211.06 460.56 211.1 460.22 210.98 460.04 210.97 459.99 210.94 459.94 210.89 459.86 210.76 459.81 210.72 459.73 210.69 459.69 210.69 459.65 210.7 459.62 210.7 459.6 210.67 459.57 210.64 459.53 210.66 459.49 210.72 459.47 210.78 459.44 210.83 459.4 210.88 459.36 210.89 459.19 210.88 459.11 210.9 459.04 210.95 458.97 211 458.96 211.03 458.95 211.06 458.94 211.09 458.92 211.1 458.9 211.09 458.86 211.06 458.84 211.05 458.81 211.07 458.78 211.1 458.74 211.1 458.7 211.06 458.63 210.95 458.59 210.91 458.59 210.91 458.41 210.84 458.38 210.83 458.29 210.76 458.22 210.67 458.01 210.33 457.93 210.24 457.69 210.04 457.67 209.98 457.66 209.9 457.67 209.86 457.68 209.84 457.69 209.81 457.68 209.77 457.67 209.75 457.64 209.74 457.17 209.7 457.12 209.64 457.09 209.56 457.07 209.48 457.04 209.42 457 209.42 456.98 209.42 456.86 209.47 456.8 209.47 456.75 209.46 456.7 209.43 456.65 209.37 456.64 209.34 456.64 209.31 456.64 209.31 456.64 209.28 456.62 209.25 456.6 209.24 456.52 209.22 456.43 209.16 456.3 209 456.21 208.95 456.18 208.95 456.17 208.96 456.16 208.96 456.14 208.95 456.12 208.93 456.1 208.85 456.08 208.82 456.04 208.79 456 208.78 455.97 208.81 455.97 208.88 456.03 209 456.05 209.06 456 209.12 455.93 209.16 455.9 209.16 455.86 209.13 455.84 209.04 455.82 208.94 455.79 208.85 455.73 208.81 455.63 208.82 455.57 208.83 455.52 208.86 455.49 208.89 455.36 209.03 455.3 209.07 455.13 209.1 455.08 209.13 455.03 209.17 455.01 209.19 454.95 209.18 454.9 209.15 454.83 209.13 454.79 209.17 454.75 209.29 454.72 209.32 454.58 209.33 454.43 209.32 454.38 209.33 454.27 209.43 454.18 209.48 454.15 209.51 454.11 209.61 454.09 209.65 454.04 209.68 453.98 209.69 453.88 209.65 453.88 209.65 453.9 209.61 453.92 209.57 453.93 209.52 453.93 209.47 453.94 209.42 454.04 209.16 454.08 209 454.19 208.87 454.23 208.8 454.23 208.59 454.25 208.5 454.25 208.45 454.24 208.41 454.22 208.37 454.21 208.32 454.21 208.27 454.24 208.19 454.24 208.14 454.24 208.09 454.24 208.05 454.29 207.98 454.36 207.94 454.42 207.88 454.44 207.79 454.42 207.7 454.37 207.63 454.18 207.48 454.09 207.44 454 207.43 453.92 207.47 453.9 207.5 453.88 207.55 453.86 207.61 453.85 207.66 453.84 207.72 453.84 207.76 453.77 207.88 453.74 207.92 453.71 207.95 453.67 207.96 453.59 207.94 453.55 207.94 453.51 207.97 453.47 208.07 453.45 208.09 453.41 208.07 453.39 208.05 453.32 207.93 453.22 207.84 453.16 207.76 453.01 207.7 452.92 207.69 452.88 207.67 452.87 207.66 452.84 207.62 452.83 207.61 452.81 207.61 452.8 207.62 452.79 207.64 452.77 207.64 452.75 207.63 452.73 207.62 452.71 207.61 452.69 207.63 452.67 207.65 452.66 207.67 452.64 207.68 452.63 207.66 452.61 207.62 452.6 207.57 452.59 207.52 452.59 207.48 452.58 207.42 452.55 207.39 452.52 207.36 452.5 207.32 452.48 207.27 452.49 207.23 452.5 207.12 452.5 207 452.49 206.89 452.45 206.84 452.39 206.88 452.36 206.87 452.32 206.84 452.28 206.81 452.25 206.78 452.24 206.72 452.24 206.67 452.23 206.64 452.19 206.66 452.16 206.7 452.15 206.74 452.13 206.76 452.09 206.73 452.09 206.69 452.1 206.64 452.12 206.6 452.13 206.56 452.12 206.48 452.09 206.37 452.08 206.26 452.09 206.16 452.11 206.12 452.12 206.12 452.17 206.13 452.19 206.13 452.2 206.11 452.19 206.09 452.16 206.05 452.15 205.99 452.16 205.94 452.19 205.94 452.28 205.99 452.36 205.97 452.44 205.94 452.53 205.93 452.57 205.95 452.66 206 452.69 206.02 452.76 206.02 452.77 206 452.77 205.97 452.77 205.94 452.75 205.93 452.72 205.91 452.71 205.86 452.72 205.81 452.76 205.78 452.79 205.79 452.88 205.83 452.92 205.84 452.86 205.77 452.79 205.72 452.72 205.72 452.66 205.78 452.62 205.73 452.58 205.72 452.48 205.75 452.32 205.74 452.27 205.75 452.23 205.78 452.2 205.8 452.19 205.83 452.17 205.83 452.1 205.81 452.06 205.82 451.94 205.87 452.02 205.72 452.06 205.68 452.13 205.67 452.15 205.64 452.01 205.45 451.99 205.37 451.92 205.26 451.92 205.17 451.97 205.1 452.11 205.11 452.16 205.05 452.2 205.07 452.24 205.08 452.28 205.06 452.35 205 452.37 204.98 452.37 204.95 452.38 204.9 452.36 204.8 452.33 204.72 452.28 204.67 452.22 204.64 452.25 204.69 452.32 204.76 452.35 204.82 452.33 204.83 452.29 204.83 452.27 204.84 452.22 204.9 452.22 204.92 452.22 204.94 452.21 204.99 452.19 204.99 452.17 204.97 452.16 204.95 452.15 204.93 452.01 204.9 451.95 204.85 451.89 204.75 451.9 204.76 451.94 204.75 451.95 204.75 451.93 204.68 451.95 204.62 452.05 204.5 452.07 204.48 452.09 204.5 452.13 204.55 452.13 204.33 452.06 204.11 452.03 203.95 452.15 203.87 452.17 203.87 452.22 203.89 452.25 203.9 452.27 203.89 452.3 203.85 452.35 203.82 452.37 203.79 452.41 203.75 452.45 203.75 452.57 203.87 452.58 203.87 452.6 203.87 452.63 203.83 452.63 203.79 452.61 203.75 452.59 203.72 452.61 203.67 452.66 203.64 452.86 203.64 452.95 203.66 453.06 203.65 453.17 203.61 453.29 203.6 453.38 203.69 453.42 203.59 453.4 203.52 453.26 203.32 453.24 203.28 453.25 203.23 453.28 203.19 453.31 203.16 453.34 203.15 453.38 203.16 453.44 203.2 453.57 203.34 453.63 203.36 453.69 203.33 453.67 203.26 453.62 203.18 453.56 203.13 453.61 203.1 453.8 203.08 453.88 203.05 453.9 203 453.93 202.86 453.94 202.83 454.09 202.79 454.14 202.8 454.18 202.83 454.26 202.93 454.3 202.95 454.35 202.93 454.38 202.89 454.42 202.86 454.46 202.88 454.59 202.97 454.62 202.98 454.66 202.96 454.66 202.92 454.62 202.88 454.58 202.86 454.58 202.83 454.64 202.84 454.66 202.82 454.67 202.78 454.68 202.74 454.7 202.72 454.72 202.72 454.75 202.74 454.79 202.81 454.81 202.88 454.85 202.93 454.91 202.92 454.94 202.9 454.95 202.88 455 202.77 455.01 202.75 454.99 202.68 454.97 202.65 454.95 202.64 454.94 202.61 454.93 202.57 454.93 202.53 454.93 202.5 454.92 202.47 454.91 202.44 454.98 202.39 455.07 202.46 455.22 202.65 455.27 202.67 455.44 202.62 455.5 202.63 455.59 202.7 455.63 202.71 455.67 202.69 455.66 202.57 455.69 202.53 455.74 202.53 455.85 202.6 456.32 202.74 456.32 202.74 456.31 202.64 456.34 202.58 456.39 202.56 456.6 202.56 456.62 202.55 456.62 202.52 456.61 202.49 456.58 202.47 456.52 202.39 456.49 202.22 456.48 202.04 456.49 201.96 456.53 201.99 456.6 202.14 456.64 202.17 456.69 202.19 456.73 202.24 456.8 202.35 456.85 202.39 456.92 202.41 456.98 202.4 457.01 202.32 456.99 202.24 456.96 202.2 456.93 202.14 456.95 202.05 456.93 202.04 456.91 202.03 456.9 202.02 456.96 201.95 457.02 201.98 457.15 202.11 457.13 202.14 457.16 202.2 457.18 202.3 457.21 202.35 457.25 202.37 457.27 202.37 457.29 202.36 457.33 202.33 457.36 202.26 457.34 202.23 457.37 202.13 457.42 202.16 457.47 202.24 457.51 202.29 457.56 202.28 457.56 202.25 457.55 202.21 457.55 202.17 457.58 202.13 457.61 202.11 457.64 202.12 457.71 202.16 457.8 202.25 457.81 202.26 457.81 202.29 457.81 202.32 457.84 202.33 458.25 202.32 458.3 202.33 458.39 202.39 458.52 202.43 458.65 202.5 458.74 202.53 458.79 202.53 458.82 202.51 458.9 202.45 458.93 202.44 459.02 202.45 459.11 202.47 459.19 202.52 459.27 202.59 459.36 202.69 459.47 202.8 459.57 202.84 459.67 202.9 459.71 202.92 460.11 202.95 460.46 202.93 460.76 202.91 461.1 203 461.44 203.02 461.79 203.1 461.88 203.07 461.96 203.01 462.03 202.93 462.11 202.78 Z" fill-rule="evenodd" id="Estonia" transform="translate(-448.3999938964844,-201.9499969482422) "/></svg>