<svg xmlns="http://www.w3.org/2000/svg" viewBox="0 0 33.220001220703125 25.6300048828125"><path d="M 493.94 339.3 493.81 339.47 493.74 339.62 493.44 340.02 493.41 340.11 493.39 340.13 493.34 340.16 493.32 340.19 493.23 340.35 493.04 340.61 492.96 340.73 492.93 340.76 492.9 340.78 492.87 340.8 492.85 340.8 492.83 340.82 492.82 340.85 492.79 340.88 492.71 340.92 492.67 340.94 492.64 341.01 492.61 341.18 492.54 341.38 492.55 341.51 492.6 341.76 492.63 342.01 492.62 342.44 492.61 342.54 492.57 342.6 492.58 342.61 492.6 342.64 492.65 342.66 492.92 342.71 492.92 342.72 492.93 342.73 492.94 342.75 492.96 342.75 492.97 342.74 492.98 342.73 493 342.72 493.12 342.72 493.19 342.7 493.25 342.63 493.31 342.61 493.44 342.6 493.55 342.63 493.59 342.63 493.62 342.62 493.7 342.58 493.72 342.58 493.76 342.58 493.78 342.58 493.85 342.56 493.9 342.56 493.93 342.58 493.97 342.58 494.02 342.56 494.16 342.46 494.36 342.4 494.45 342.39 494.46 342.39 494.62 342.43 494.67 342.43 494.72 342.45 494.77 342.57 494.81 342.6 494.86 342.61 494.95 342.62 495.01 342.64 495.04 342.64 495.07 342.63 495.09 342.6 495.11 342.58 495.15 342.59 495.12 342.64 495.1 342.73 495.08 342.77 495.04 342.8 494.95 342.84 494.92 342.88 494.9 342.92 494.89 342.96 494.88 342.99 494.84 343.03 494.76 343.09 494.74 343.13 494.72 343.18 494.69 343.28 494.68 343.32 494.65 343.36 494.61 343.38 494.56 343.39 494.53 343.42 494.54 343.46 494.58 343.56 494.64 343.66 494.76 343.78 494.8 343.82 494.82 343.88 494.85 344.08 494.89 344.23 494.95 344.36 495.01 344.43 495.22 344.57 495.28 344.63 495.32 344.69 495.34 344.76 495.36 344.84 495.41 344.94 495.47 345 495.55 345.04 495.65 345.05 495.73 345.09 495.77 345.16 495.84 345.52 495.87 345.61 495.92 345.66 495.98 345.68 495.99 345.68 496.02 345.71 496.04 345.76 496.05 345.78 496.07 345.8 496.12 345.83 496.14 345.85 496.19 345.95 496.2 345.99 496.21 346.06 496.22 346.11 496.25 346.14 496.36 346.21 496.53 346.31 496.57 346.32 496.63 346.3 496.66 346.29 496.69 346.31 496.86 346.47 497.06 346.65 497.34 346.9 497.5 347.04 497.59 347.09 497.76 347.15 497.96 347.22 498.15 347.28 498.35 347.35 498.55 347.41 498.74 347.48 498.94 347.54 499.13 347.6 499.33 347.67 499.52 347.73 499.72 347.8 499.91 347.86 500.11 347.93 500.3 347.99 500.5 348.05 500.69 348.12 500.89 348.18 500.89 348.18 501.08 348.25 501.26 348.31 501.45 348.37 501.63 348.43 501.82 348.5 502.01 348.56 502.19 348.62 502.38 348.68 502.56 348.75 502.75 348.81 502.94 348.87 503.12 348.93 503.31 349 503.5 349.06 503.68 349.12 503.87 349.18 504.01 349.23 504.14 349.3 504.33 349.3 504.65 349.3 504.99 349.3 505.34 349.3 505.63 349.3 506.04 349.3 506.35 349.3 506.25 349.4 506.14 349.5 506.03 349.61 505.92 349.71 505.81 349.82 505.71 349.92 505.6 350.02 505.49 350.13 505.38 350.23 505.36 350.25 505.28 350.34 505.17 350.44 505.06 350.54 504.95 350.65 504.85 350.75 504.74 350.86 504.63 350.96 504.52 351.06 504.41 351.17 504.31 351.27 504.2 351.38 504.09 351.48 503.98 351.58 503.88 351.69 503.77 351.79 503.66 351.9 503.55 352 503.45 352.1 503.34 352.21 503.29 352.25 503.19 352.35 503.09 352.44 503.05 352.49 503 352.53 502.91 352.62 502.77 352.76 502.64 352.9 502.5 353.04 502.37 353.18 502.23 353.32 502.09 353.45 501.96 353.59 501.82 353.73 501.59 353.99 501.35 354.25 501.11 354.51 500.9 354.74 500.87 354.77 500.64 355.03 500.4 355.29 500.16 355.54 499.92 355.8 499.8 355.94 499.8 355.94 499.62 356.13 499.56 356.16 499.44 356.15 499.32 356.14 499.21 356.14 499.09 356.13 498.98 356.12 498.86 356.12 498.86 356.12 498.75 356.11 498.63 356.1 498.52 356.1 498.4 356.09 498.29 356.08 498.17 356.08 498.06 356.07 497.94 356.06 497.83 356.06 497.71 356.05 497.6 356.04 497.46 356.04 497.38 356.06 497.19 356.12 497.12 356.14 496.9 356.19 496.74 356.23 496.49 356.28 496.33 356.36 496.09 356.47 495.83 356.59 495.58 356.71 495.4 356.86 495.23 357 495.21 357.02 495.2 357.05 495.17 357.12 495.13 357.27 495.09 357.34 495.03 357.42 495.03 357.42 494.94 357.47 494.85 357.51 494.69 357.54 494.36 357.59 494.02 357.65 493.76 357.7 493.59 357.7 493.4 357.7 493.33 357.72 493.25 357.76 493.13 357.86 492.97 357.95 492.93 357.99 492.92 358.03 492.92 358.1 492.91 358.12 492.87 358.15 492.85 358.19 492.74 358.25 492.64 358.23 492.54 358.18 492.43 358.15 492.34 358.2 492.31 358.21 492.28 358.2 492.22 358.18 492.18 358.18 492.01 358.22 491.95 358.22 491.84 358.25 491.59 358.27 491.36 358.28 491.24 358.27 491.14 358.22 491.04 358.15 490.9 357.95 490.84 357.9 490.8 357.88 490.7 357.84 490.66 357.82 490.63 357.8 490.6 357.73 490.54 357.67 490.41 357.58 490.36 357.51 490.22 357.6 490.04 357.67 489.8 357.76 489.51 357.87 489.5 357.89 489.49 357.92 489.48 357.93 489.3 357.99 489.08 358.07 489.07 358.07 489.07 358.07 489.06 358.07 489.04 358.06 489.04 358.07 489.04 358.09 489.03 358.1 488.93 358.15 488.71 358.25 488.52 358.34 488.33 358.43 488.29 358.49 488.24 358.6 488.18 358.77 488.14 358.84 488.1 358.89 487.93 359.05 487.78 359.18 487.72 359.25 487.68 359.4 487.64 359.45 487.57 359.46 487.53 359.43 487.52 359.4 487.5 359.38 487.49 359.35 487.42 359.33 487.14 359.32 487.16 359.28 487.15 359.26 487.12 359.25 487.11 359.26 487.02 359.31 486.94 359.31 486.85 359.3 486.65 359.2 486.62 359.19 486.6 359.19 486.47 359.21 486.44 359.21 486.41 359.2 486.37 359.2 486.28 359.21 486.22 359.21 486.05 359.17 485.83 359.11 485.79 359.09 485.76 359.05 485.7 358.98 485.7 358.99 485.7 359.02 485.7 359.04 485.57 359.03 485.56 359.02 485.55 359.01 485.55 359 485.52 359.01 485.51 359.01 485.48 359.01 485.45 359 485.44 358.99 485.43 358.97 485.42 358.95 485.37 358.92 485.36 358.91 485.34 358.92 485.34 358.94 485.34 358.96 485.33 358.97 485.22 359.02 485.1 359.03 484.86 359 484.63 358.98 484.56 358.98 484.49 359 484.46 359 484.41 358.95 484.34 358.93 484.31 358.92 484.28 358.88 484.22 358.79 484.18 358.75 484.11 358.7 483.89 358.56 483.68 358.43 483.45 358.28 483.25 358.15 483.07 358.03 482.82 357.87 482.6 357.73 482.38 357.6 482.26 357.52 482.25 357.52 482.24 357.52 482.23 357.51 482.22 357.5 482.21 357.45 482.2 357.43 482.18 357.41 482.17 357.41 482.12 357.41 482.11 357.4 482.07 357.34 482.05 357.32 481.96 357.3 481.8 357.22 481.67 357.19 481.24 357.19 481.24 357.19 481.23 357.19 481.19 357.17 481.17 357.16 480.83 357.17 480.41 357.18 480.39 357.17 480.35 357.16 480.32 357.15 480.3 357.15 480.22 357.16 479.9 357.16 479.89 357.16 479.84 357.15 479.79 357.12 479.71 357.05 479.67 357.02 479.65 356.99 479.65 356.95 479.66 356.91 479.66 356.86 479.63 356.81 479.62 356.77 479.32 356.45 479.27 356.36 479.25 356.26 479.26 355.79 479.27 355.77 479.35 355.66 479.37 355.61 479.37 355.57 479.35 355.52 479.31 355.43 479.3 355.39 479.32 355.34 479.38 355.25 479.37 355.23 479.24 355.18 479.1 355.1 479.04 355.08 479 355.09 478.96 355.11 478.91 355.12 478.86 355.1 478.76 355.03 478.71 355 478.67 354.99 478.62 354.98 478.58 354.98 478.54 354.99 478.49 355.02 478.4 355.12 478.35 355.16 478.29 355.16 478.25 355.14 478.22 355.11 478.15 354.99 478.14 354.97 478.14 354.95 478.16 354.92 478.18 354.9 478.19 354.87 478.18 354.85 478.16 354.8 478.08 354.73 477.9 354.63 477.8 354.56 477.78 354.52 477.76 354.39 477.73 354.33 477.55 354.07 477.53 354.03 477.52 354 477.53 353.97 477.53 353.95 477.54 353.92 477.53 353.89 477.5 353.85 477.48 353.83 477.49 353.8 477.49 353.78 477.52 353.73 477.51 353.7 477.49 353.59 477.48 353.54 477.44 353.5 477.4 353.46 477.36 353.42 477.32 353.31 477.24 353.17 477.23 353.13 477.23 353 477.21 352.94 477.12 352.79 477.11 352.74 477.09 352.62 477.04 352.49 477.01 352.4 476.99 352.31 476.98 352.3 476.95 352.27 476.94 352.23 476.93 352.21 476.78 352.11 476.74 352.09 476.69 352.09 476.59 352.09 476.56 352.08 476.53 352.06 476.51 351.96 476.51 351.96 476.5 351.93 476.5 351.92 476.5 351.92 476.53 351.9 476.53 351.9 476.53 351.85 476.52 351.81 476.5 351.78 476.48 351.75 476.34 351.65 476.03 351.58 476.02 351.57 476 351.56 475.99 351.55 475.98 351.51 475.97 351.5 475.88 351.43 475.85 351.41 475.84 351.39 475.82 351.39 475.81 351.36 475.8 351.31 475.8 351.29 475.8 351.22 475.79 351.18 475.77 351.14 475.74 351.12 475.7 351.14 475.66 351.15 475.62 351.11 475.56 351.04 475.46 350.96 475.44 350.95 475.44 350.94 475.43 350.73 475.42 350.66 475.38 350.6 475.11 350.32 475.04 350.28 475.02 350.27 474.97 350.27 474.95 350.26 474.84 350.18 474.77 350.08 474.74 350.05 474.72 350.04 474.65 350.02 474.59 349.98 474.56 349.97 474.42 349.99 474.37 349.97 474.35 349.96 474.32 349.92 474.3 349.9 474.27 349.89 474.23 349.87 474.21 349.86 474.17 349.84 474.12 349.85 474.02 349.87 474 349.88 473.95 349.91 473.92 349.91 473.8 349.88 473.76 349.84 473.72 349.8 473.69 349.77 473.67 349.77 473.6 349.76 473.53 349.73 473.51 349.73 473.44 349.75 473.43 349.75 473.42 349.77 473.39 349.76 473.34 349.74 473.28 349.74 473.26 349.73 473.26 349.72 473.25 349.7 473.24 349.68 473.2 349.65 473.18 349.62 473.13 349.47 473.14 349.45 473.17 349.42 473.17 349.41 473.18 349.39 473.19 349.38 473.2 349.36 473.21 349.32 473.22 349.3 473.25 349.26 473.37 349.13 473.39 349.11 473.4 349.09 473.4 349.07 473.41 349.06 473.48 349.05 473.52 349.03 473.54 349.01 473.56 348.97 473.57 348.93 473.56 348.92 473.53 348.9 473.52 348.88 473.52 348.85 473.53 348.83 473.54 348.81 473.55 348.79 473.57 348.77 473.59 348.76 473.61 348.75 473.61 348.72 473.58 348.71 473.56 348.7 473.55 348.67 473.53 348.66 473.51 348.64 473.51 348.61 473.51 348.59 473.53 348.55 473.54 348.52 473.53 348.52 473.51 348.5 473.51 348.5 473.51 348.48 473.52 348.47 473.52 348.46 473.52 348.42 473.53 348.4 473.54 348.39 473.57 348.37 473.6 348.37 473.62 348.35 473.61 348.34 473.61 348.33 473.67 348.27 473.71 348.27 473.95 348.32 473.97 348.31 474 348.29 474.02 348.28 474.04 348.28 474.07 348.29 474.22 348.27 474.24 348.26 474.24 348.25 474.22 348.23 474.27 348.23 474.31 348.25 474.34 348.28 474.37 348.29 474.42 348.29 474.45 348.27 474.48 348.26 474.53 348.26 474.59 348.32 474.64 348.4 474.69 348.46 474.79 348.47 474.82 348.47 474.83 348.46 474.92 348.39 474.94 348.37 474.98 348.35 475.01 348.34 475.09 348.34 475.22 348.34 475.26 348.32 475.3 348.3 475.52 348.1 475.57 348.05 475.6 348 475.6 347.95 475.61 347.89 475.58 347.25 475.55 346.6 475.52 346.05 475.51 345.88 475.58 345.55 475.86 344.77 475.99 344.65 476.04 344.58 476.04 344.55 476.04 344.5 476.04 344.47 476.04 344.46 476.06 344.44 476.07 344.42 476.09 344.33 476.09 344.23 475.98 343.74 475.97 343.64 475.99 343.56 476.18 343.3 476.26 343.13 476.3 343.08 476.34 343.05 476.6 342.87 476.64 342.85 476.67 342.86 476.94 343.1 477 343.14 477.03 343.17 477.04 343.2 477.04 343.27 477.04 343.3 477.06 343.31 477.08 343.29 477.11 343.22 477.14 343.2 477.17 343.19 477.2 343.2 477.23 343.2 477.25 343.16 477.27 343.12 477.27 343.09 477.28 343.07 477.32 343.03 477.44 342.94 477.47 342.88 477.49 342.81 477.48 342.77 477.41 342.73 477.39 342.7 477.39 342.67 477.54 342.24 477.55 342.17 477.52 342.13 477.48 342.08 477.46 342.02 477.47 341.97 477.75 341.36 477.75 341.31 477.75 341.27 477.7 341.18 477.69 341.14 477.69 341.04 477.67 340.96 477.67 340.91 477.69 340.86 477.71 340.8 477.74 340.75 477.78 340.71 477.86 340.65 477.91 340.63 478.06 340.58 478.13 340.5 478.13 340.48 478.13 340.44 478.13 340.43 478.14 340.41 478.16 340.39 478.24 340.34 478.29 340.29 478.31 340.24 478.33 340.11 478.37 340.02 478.38 339.99 478.41 339.97 478.45 339.95 478.48 339.93 478.5 339.9 478.5 339.87 478.51 339.81 478.53 339.74 478.95 339.05 478.97 339.03 478.99 339.02 479.03 339.02 479.05 339.01 479.07 338.98 479.08 338.96 479.09 338.94 479.1 338.88 479.1 338.87 479.11 338.86 479.14 338.85 479.14 338.84 479.2 338.83 479.87 338.73 479.89 338.73 479.91 338.73 479.93 338.74 479.94 338.75 479.96 338.76 480.02 338.78 480.06 338.76 480.07 338.72 480.12 338.47 480.12 338.41 480.11 338.38 480.06 338.29 480.05 338.24 480.08 338.2 480.11 338.17 480.13 338.13 480.13 338.12 480.12 338.1 480.11 338.06 480.1 338.02 480.32 337.27 480.65 336.8 480.67 336.73 480.68 336.61 480.68 336.56 480.78 336.33 480.82 336.23 480.81 336.12 480.77 336.01 480.76 335.95 480.76 335.89 480.77 335.85 480.97 335.23 481.01 335.23 481.03 335.18 481.05 335.16 481.09 335.15 481.14 335.15 481.17 335.14 481.24 335.11 481.28 335.1 481.38 335.1 481.4 335.1 481.44 335.08 481.46 335.07 481.61 335.07 481.68 335.08 481.83 335.12 481.9 335.13 481.91 335.14 481.95 335.2 481.97 335.21 481.99 335.22 482.01 335.23 482.03 335.23 482.04 335.22 482.07 335.2 482.09 335.2 482.13 335.2 482.15 335.2 482.18 335.18 482.2 335.15 482.22 335.11 482.22 335.06 482.23 335.01 482.23 334.96 482.25 334.92 482.29 334.87 482.35 334.82 482.43 334.8 482.59 334.81 482.64 334.79 482.67 334.79 482.72 334.83 482.76 334.86 482.85 334.98 482.88 335.01 482.89 335.03 482.89 335.06 482.89 335.12 482.9 335.14 482.93 335.16 483.02 335.23 483.03 335.25 483.05 335.29 483.06 335.35 483.07 335.37 483.1 335.38 483.12 335.39 483.14 335.4 483.16 335.42 483.17 335.44 483.17 335.5 483.18 335.53 483.2 335.56 483.24 335.59 483.27 335.56 483.35 335.37 483.48 335.06 483.62 334.73 483.76 334.39 483.9 334.04 483.99 333.83 484.03 333.86 484.06 333.9 484.1 333.98 484.11 333.99 484.13 333.99 484.14 334 484.14 334.01 484.14 334.03 484.14 334.04 484.15 334.06 484.15 334.07 484.16 334.08 484.19 334.09 484.21 334.1 484.22 334.12 484.22 334.14 484.23 334.16 484.25 334.18 484.49 334.28 484.53 334.29 484.66 334.26 484.71 334.27 484.74 334.28 484.76 334.31 484.78 334.34 484.78 334.35 484.79 334.42 484.8 334.44 484.83 334.46 484.85 334.47 484.87 334.49 484.89 334.52 484.91 334.61 484.93 334.65 484.95 334.68 484.99 334.71 485.11 334.77 485.13 334.79 485.14 334.84 485.15 334.86 485.18 334.88 485.2 334.88 485.22 334.87 485.33 334.88 485.5 334.86 485.58 334.83 485.72 334.76 485.76 334.76 485.8 334.78 485.84 334.78 485.88 334.78 485.92 334.77 486.05 334.71 486.15 334.7 486.19 334.68 486.27 334.61 486.36 334.57 486.4 334.54 486.44 334.5 486.44 334.45 486.44 334.41 486.44 334.37 486.47 334.35 486.47 334.35 486.55 334.36 486.62 334.38 486.64 334.39 486.69 334.42 486.73 334.46 486.77 334.5 486.8 334.55 486.87 334.74 486.91 334.83 486.97 334.83 487.02 334.75 487.05 334.72 487.1 334.71 487.22 334.73 487.26 334.73 487.44 334.68 487.53 334.63 487.57 334.58 487.59 334.54 487.63 334.54 487.67 334.56 487.71 334.59 487.75 334.64 487.77 334.66 487.78 334.66 487.89 334.7 487.95 334.7 488.05 334.69 488.08 334.68 488.15 334.68 488.22 334.7 488.28 334.74 488.39 334.84 488.43 334.86 488.47 334.86 488.51 334.85 488.58 334.79 488.62 334.78 488.67 334.79 488.72 334.8 488.75 334.8 488.86 334.77 488.9 334.77 489.1 334.82 489.19 334.85 489.28 334.91 489.45 335.06 489.6 335.2 489.73 335.27 489.97 335.38 490.03 335.4 490.23 335.43 490.38 335.49 490.51 335.59 490.75 335.85 490.98 336.11 491.15 336.42 491.31 336.7 491.38 336.76 491.67 336.95 492.06 337.2 492.29 337.39 492.46 337.53 492.55 337.62 492.62 337.72 492.69 337.83 492.87 338.21 492.98 338.37 493.15 338.48 493.28 338.53 493.4 338.6 493.51 338.69 493.65 338.94 493.84 339.18 493.94 339.3 Z" id="Ethiopia" transform="translate(-473.1300048828125,-333.8299865722656) "/></svg>