<svg xmlns="http://www.w3.org/2000/svg" viewBox="0 0 798 407"><path fill-rule="evenodd" d="M483 401v2l-1 1-1 1h1-1v2h-2l1-1-1-1 1-1h-1v-1l1-1 1-1h2Zm-41-113h-1 1Zm-1 0h-1l1-1v1Zm-4-1h-1v-1h1v1Zm67 20h-2 2v-1 1Zm17-1v1h-2v-1h2Zm3 0v1l-2-1h2Zm-18-4 2 1-3 1-1 1h-2l-1 1-3-1-1 1v1h-4l-4-1-1-1 2-1 3-1h5v-1h6v-1l2 1Zm-69-17h-1v-1l1 1Zm-19-12h-2 2Zm-4 0h-2 2Zm-11-5h1v1h-1v-1h-1l1 1 1 1 3-1v1h1v1h-3v1l-1 1v-1l-1-1v-1h-1l-1-1 1-1h1Zm61-1-1-1h1v1Zm-11-2h1v1h-3 1l-1-1h2Zm3 0-1 1v-1h1Zm2 0-1 1-1-1h2Zm-77 22h-1v2l1 1h2l1 1h-5v1h-3v1h-2v2l-1 1h-8l-1-1-1-1v-1h2v-1l1-1 1 1 1 1h-1 1v-2h2l3-1v1h-1l-1 1h4v-2h4l1-1-1-1-2 1h-1 1l1-1v-1l3-1v1Zm-11 3v-1h1l-1 1Zm8-21-1 1-2-1-1 1 1-1 2-1 1 1Zm9-6h1-2 1Zm-19 27h1-1Zm9-13h-2v2h-1l-1 1-2-1h-2v1h-1v1h1-1v1h1l-1 1v1l-1-1-2 1v1h-1l-3 1v1l1 1 2 1 1-1v1l-2 1h1v1h-2v1l-3 2h-2l-1-1h-2l-1-1v-1l1-1h-3v-1h-4l1-1 1-1h2v-1l3-2 1 1h2l1 1 1-1v-2l-1 1v-1l1-1h-1l1-1h-1l1-1h-1l3-2 2-1 1 1h-1l1 1-1 1h1v-1l2-1h3l2-1h3v1l2-2h1v1Zm-21-33 1 1v2l1 1-1 1h5v-1h1v1h1v-1h3v1h1l1-1 1 1 2-1h1v1h1v1h1v1h1l-1 1h1v1l-1 1v1l-2 1 1 1h-1v1h1v1h1l1-1 3 1-2 2h-2l1 1v1h-2 1l1 1v1h-2v1h-2v1h-2l-1 2h-1v-1h-2l-1 1v2l1-1v1h-1v3l-1 1h-2v-1l-1-1v-1l-1-1h1l-1-1h-1v-1l1-1v-2h-1v-1h1l1 1h1l2-1v-1h-2l1-1-2-1v-1h-1l3-1h1v-1h-1v-1h1l1-1-1-1-2-1h1l-1-1h1l1-1h-2l-1-1v-1h-3v1l-2-1-1 1h-2l1-1h-1v-2h-4v-1h1l1-1h1v-2h2v-2l1-1h1v2Zm-12 4Zm2-1h-1 1-1v1l-1-1h1v-1l1 1Zm-3-1-1 1v-2h2l-1 1Zm1-1v-1h1l-1 1Zm-3-6v1h1v1l-2 1-1-1v-2h2Zm11 1-1-1h2l-1 1Zm11-5h-1v-1h1v1Zm6-13-1 1 1 1v1l-2 1 1 2v1l-1 1-1 2-1 1v-1h-3v-3h1v-1h1v-1h-1v-1h1v-1h1l1-1h1l1-2h1Zm-29-4v1l1 1-1 1-2-1v-2l1-1h1v1Zm115 45v1h-2v-1h2Zm-59-2v1l-1-1h-1l1-1h1v1Zm70-5-2 1v-1h-1l1-1h2v1Zm25-41h-2l1-1h1v1Zm-115 42h-2l2-1v1Zm10-1h-1l1-1v1Zm-5-35h-1l-1-1h1l1-1 2-1v1l-2 1v1Zm-6-1h-1v-1h1v1Zm92-6h-1l1-1h1l-1 1Zm-67 0h-1l1-1v1Zm14-17h-1l1-1v1Zm-7-1h-1v-1h1v1Zm-24-1h1v1h2l-1 2h-1l-1-1h-1l-1-1 1-1-1-1h2v1Zm-6-1v-1h2v1h-2Zm6-1-1 1-2-1h3Zm-4-1h-2l1-1 1 1Zm17-9-1 2-3 2h-1v-2h-3l1-1v-1h5l2-1v1Zm17-7v-1h1v1h-1Zm6-1h-1l1-1v1Zm0-3h-1 1Zm-39 17h-1v2l-2 1v-1h-2v-1l2-1h1l1-1 1 1Zm7-2h1v1l-1 1h-1v-1l-1-1h2Zm-4-1h1l-1 1h-1v-1h-1 2Zm6-22-1 1-2 2-2 1-1 1-2 1h-1l-1-1 1-1 4-2 1-1 1-1h3Zm57 3-1 1h-1l1-1h1Zm-39-6-3 3-1 1v6l-1 1-2-1h-5l-2 1h-2l-1 1h-1l-1-1-1-1v-1l1-2 3-1h1l2 1 1-1 1-1 1 1h1l1-2h1v-1h1l3-3h3Zm38 5h-1 1Zm-37-5h-1v-1h1v1Zm5-5h1l-1 1v1l-2 1h-2l-1 1v-1l1-1 1-1 1-1 1-1 1 1Zm66-4-1 1h1-1v-1h1Zm13-20h1-1Zm-2-3h-1 1Zm21 174h1l1 1h-1l-4-1h3Zm7-34h-1 1Zm-3-1h1-1Zm-6-1h1-1Zm35 39-2 2h-4 1l1-1 2-1 1-1 1 1Zm6-49h-1 1Zm-1 0h-1v-1l1 1Zm-2-1h-1v-1l1 1Zm-40 11v-1 1Zm12-12v-1h1v1h-1Zm-5-2h-2 2Zm8-1h-1 1Zm41 1v1h-2v-1h2Zm-6-12v1h-1l1 1-1 1h2v1l-2 2h-2v1h-1l1 1h-2 1l1 1-1 1v1l1 1h2v-1l1 1h-1l1 2v1h-2 1l-1 1h-3v1h1-2v1h-2l1 1-1 1h-1l-1-1h-2v1l-1 1-1-1v1h-2l-3 1h-4v1h-2v-1l-1 1h-3l-5-1v1h-1l-1 1h-1v-1h-1v-1h3v-1l1-1-2-1h5v3h3l-1-1h2l1-1-1-1h2v2h3l1-1h1v-2h2l-1-1h1l1 1v-1h2l2 2 1-1v-1h1v-1h2l2 1h1l1-2h-1v-1h-1l1-1v-2l-1-1-1-1h2v-1l1-1v-1h2v-1h-1l1-1h-1l1-1 1-1h1v-2h1Zm-11 11v1l-1-1h1Zm59-6h-1v-1h1v1Zm-91 2v1h-1v-1h1Zm13-5h-1 1Zm-4-1-2 1-1 1h-3v-1l2-1 4-1v1Zm-6-1-1-1h2l-1 1Zm66 5h-1l1-1h1l-1 1Zm-1-2v1h-1v-1l1-1 1 1h-1Zm-31-2h1v1h-3l1-1h1Zm31-2h1v1h-1v1h-4l1-1h-2l-1-1 1-1 3 1 1-1 1 1Zm-45 0-1-1h1v1Zm-17-9h-2v-1h2v1Zm-17-3 1 1-1 1-1-1h-1v-1l2-1v1Zm-2-8h-1l1-1v1Zm99 16 2 1v1h1l-2 1v1l1 1h3v1h1v1h-1v1l-3 1-1-1 2-1v-1h-1v-1h-3v-4h1l-1-1h1Zm-63 2h2v1h-2l-1-1h1Zm69-17h-2v-1h-1 3v1Zm-2-8h-1 1Zm31 22h-1v-1h1v1Zm8-1h-1 1v1-1Zm-10-1h1-1Zm-14-7v1l-1-1h1Zm24-16-1 1h1l2 1h1-1v1l1 1v1h1v1h-1l-2 1v1h-1l-1-1h1-1 2v-1h-1l-3-1-2-1h-2l-1 1 1 1h2-3v1h2l1 1 1 1h-2l1 1h-1l-1-1h-2l-2-1 1 1 2 1v1h-2 3l1-1 1 1h-1 2v-1l1-1 2-1h-2 3l-1 1h-1l-2 1v1h1l-2 2h2l-1 1 2 1h-1l-2 1h1l1 1h1v-1l1 1h-1l1 1-1 1h-1v3h2l2 1h1-2v1l-1-1-1 1h-7v-1h-1v-2h5l-1-1v-1h1l-2-1-2 1 3 1h-3l-3 1 1-1-2-2h-1l-2-1v-1h-1v1h-1l-1-1h-2v-1l-1 1-1-1 2-1v-1l-1-1 1-1h-1v-1h-3l-2-1h-1l-1-1h1v-1l1-1 1 1h1v-1h1v-1h2v-1h3l2-1 2 1-1-1h1v-1h3v1h2-1l-1-1-3-1h1v-1h3v1h5v1h-1v1h1v1h1l2-1v1h2l2-1h-1v-2l-2 1v-1h1v-1h-1 2Zm-7 9v1l-1-1h1Zm10-2-1-1h1v1Zm6-2h4l2 1-1 1-1-1h-5v-1h1Zm-2 1h-1v-1h1v1Zm-30-1v-1h1v1h-1Zm31-1 1 1-2-1h1Zm-1 0-1 1v-1l1-1v1Zm1-2h2v1h2v-2h1v1h2-2l1 1h1v1h-6l-1-1h-2v-1l1-1 1 1Zm-3 1h-2l2-1v1Zm-27-2v1l-1-1h1Zm12-1h-2 3-1Zm-29 1h-1v-1h1v1Zm-1 0h-1v-1h1v1Zm-1-4h-1l1-1v1Zm-1-1h-1v-1h1v1Zm-13-3-1 1-1-1h2Zm3-1v1h3-2l-2-1h1Zm-19-1-2 1-2-1h4Zm-5 0h-1 1Zm23-1 4 1-5-1v1h1-2v-1h-1 2v-1l1 1Zm12 0h-1 1Zm-23-4v1h-1 3v1h-2 3v1l-6-1 3-1h-2l-1-1h4-1Zm4 1h1-3l1-1 1 1Zm-17-4h2-5 3Zm25 0h1-1Zm-41 0-1-1h1v1Zm10-2-1-1h1v1Zm70 19h-1l1-1v1Zm-1-1h1-3l-1-1h2l1 1Zm1-3h1v1h3l1 1 1 1 2-1h-1 3-1l1 1h1l-1 1h-2l-2-1h-5l-1-1h-4v-1h-2l1-1h1v1h2v-1h2Zm6 2h-2l1-1 1 1Zm-30-1-1 1v-1h-2l2-1 1 1Zm19-3v1h-3l2-1h1Zm13-2h-1l-2 1v1h-1v1h-2v-2h-6l4-1 2 1v-1l1 1 2-1h4-1Zm-14 1h-2 2Zm16-1h-1 1Zm-29-1h1-2 1Zm1-8 2-1v1h-3v-1h1v1Zm6-2h5l-1 1-3-1-1 1h4v1h3-1v1l-1 1-2-1h-1l1-1h-3v-1l-3-1 1-1 2 1Zm53-5h2-1v1h-4v-1h-1 4Zm3-1h3l1 1h-6l-1-1h1v-1h2l-1 1h1Zm16 0h-2 2Zm-13-1h-1 1Zm-124 7h-1v-1h1v1Zm-8-2-1 1v-1h1Zm7 0h1-2 1Zm-9 0h-2 2Zm-10-6 3 2h2-2l-2-1-2-1h1Zm1-2 1 1v1l-3-1v-1h2Zm-4-1h-4 2v-1h2v1Zm1-1 1 1h-2v-1h1Zm2-1h1v1h-1v-1l-2-1 2 1Zm-2-1v1h-1l1 1h-2v-1l1-1h1Zm-17-6h-1 1Zm2-4v-1l1 1h-1Zm24 18 2 1h-2l-1-1h-1 2ZM528 51h1l1 1 2 1h1l1 1 1 1h1v1h1v1h3v2h2l1 1h3l1 1h5l1 1h3v1h1v1h2v1h6v1l1 1h4l3 1h2v-1h2v1h2v2h7-1 1v1h3v1l3-1v-1h4v-1l1 1 1 1 1 2h-2l1 1 1 1 1 1h1v1l1-1v1h1l1-2h2v2-1l1-1 2-1h1v1l-1 1h1v-1l1-1h-1v-1h-1v-1h1l-1-1h1v-1h-2 1v2l-1 1h-1l-2 1h-1l-1 1h-2l-1-1h-1v-1l2-1v-1l-1-1h-1v-2h-2v-1h3v1l1 1h3l4-2 1-1-1-1v-1h5v1h4l1-1h1v-1h1l1 1v1h2v1h2-1 1l1-1 1 1v-1h1l2 1 1-1h1v-1h2v3h1v1l1-1h2v1h8v2l1-1h1v2h4v1l-2 1v1l2 1h2v-1l1 1-1 1h1l2 1h1l1-1h1v1h-1v1h-1v1h1l1 1 2 1-1 1 1 1h-1l-2 1-1-1-2 1-1-1-2 1h2l2-1 2 1 1-1v1h1l1 1v1l2 1v1l1 1v1h-2v1h-1 2l1 1-2 1h-6v-1l-1 1h1l-1 1h6-2l1 1h-2v1h1v1h-2v2h-3v1l-1-1 2-1-1-1h1l-3-1v-1h1v-1l1-1h-1l-1 1h1v1h-4l-1-1h-1v1h-4l-6 1-2 1h-1l-1-1v-2l-2-1-1-1v-1h1v-1l-1-2v-2l-2-1h-2v2l-1 2h-1v2l-3-1v-1h1l-1-1v-1h1l1-1h1v-1h1v-1l1-1h1v-1h-3l-1 1-1 1-1 1-1 1-1 1h-2l-2-1h-2l2 1 3 1h1l-1 1h-2l1 1-2 1-10 3 5-1 2-1h4l1-1h3v1h-1l-1 1-2-1-2 1-2 1-1 1h1l-1 1h-1v-1h-1l-1 1v-1l-1 1-1 1v1h-3l-1 1h2v-1h2v-1l1-1 1-1v1h1l1-1v1h3v-1h-1l1-1h2v-1h4l2-1h1l-1 1h1l-1 1h-3l-2 1h5v-1h2v-1l1 1-2 1h1l-1 1h2-1 2l-1 1h-1v1h-2v-1h-1l1 1-2-1h-2v1l1-1 2 1h-1 1v2h1l-1 1h-4v-1h-1v1h-1 1v1h3v1h2l1-1h-1l1-1 1 1 1 1h-3l-1 1v1l-2-1 1 1v1l2 1h-1v2-1h3l1-1-1-1h-2v-1l1-1h1v1h1v-1h1l1-1 2-1h-1l1-1v-1h4l-1 1 1 1h-1 2v2l2-2 3-1h-1l1-1h4v1h-2v2h1v-1h1v1h1v1h-1l1 1h2v3h-1v1l-1 1h-1v1l-2 1 1 1 2 1-2 1h1v1h-3l-2 1h2v1h2l-1 1 2 1h2v-1h-1v-2h2l-1-1h1v-2h1l-1-1h4v1h-1l2 1 1-1v-1h1v1l-2 1v1h-1l1 1h-1v1h1l2-2h2v2h-2v1h1l-2 1h-1 4l1-1h3v2h-1l1 1v-1h1v-1h1v1h3v-1h-2l-1-1h-1v-1h1v-1h2v1h1v-1l-1-1 1-1h1v1h3-1v2h1v1h1v-1h1l1-1 1 1h3v1h-1v1h2l1 1v1l-1 1-2-1v1h1-1v1h3v1h-2l2 1v1h-2v-1l-1 1-2-1 1 1h-1l-1 1h-1l-1 1-1 1h1v-1h1l1-1 1-1h1l3 1v1h1v1l1 1h2l-1 1h-2l-2 1h1l3-1-1 1 1 1h-1 1l-1 1v1h1-1l1 1h-1l1 1-1 1h-1 1-1 5-4v-1h2l-1-1h1-1l1-1h-1v-1l2 1-2-1 1-1h-1v-1l1-1h1l2 1-1 1 1 1h1l-2 1h1v1l3 1h-1 1v1h-1l1 1h1v-1l1-1h1-2v-1l-2-1h2l1 1 4 1 1-1h2-2l-1-1-1 1-2-1-1 1v-1l-2-1h3v-1h-1l-2 1-2-2h3-3l-3-2h1l-1-1h1l-1-1-3-1v-1l1-1h1l-1-1 1-1 1 1h3-1v1h2l3 1h1v1h2v1h6l-1-1h1l1 1h2v1h1l-1-1-2-1h-4v-1h-2v-1h-1l-1-1h-2l1-1h4-7l-2-1-2-1v-1l2 1 2-1-2-1v1h-1l1-1h-2l-2-1-1-1h-2l1-1h3-1v-1h5l2-1h-1l2-1h1v-1h1v-1h-1l-2 1h-4l-3 1h-6l1-2-2 1h-4v-2h1l1-2 2-1-1-1 1-1h-1v-1l-2-1-1 1 1 1h-1l-3 1v2h-1l1 1h-1l-3 1v-1h-1l-3 1v-1h-5v-1h2l-1-1v-1h-1v-1h4l-1-1 1-1-2 1-1-1v1h-1l-1-1-1-1h1l3-1h3v-1h2v-1l2 1h1l-2-1v-1h1v-1h2v-1h1v-2l1-1 3-1 1-1h1l1-1h-1v-1h-1v-1h1l1-1 1-1h-1v-1h1l1-1v-1h-1v-1h2l1 1 1-1h2l1-1h1l1 1 1-1h1l3 1h3v-1h4v1h2v-1h3v-1l1-1 2 1h1l1 1v-2h1v1h5l2 1 1-1h1v-1h2l3-1h3l-1 1 1 1h2v-1h5l-1 1 3 1v-1h1v-1h2v1l1-1h2v-1h5v-1h1v-1h2v1h-1 2v1h3l3 1v1h2-1l1 1h-1 3-1l2 1h-3l1 1h1l-1 1h2v1h2v1h5l-1 1h2-1v1l-1 1h1v1l-1-1v1h-2 1l-2 1v1l1 1h1l1 1h3v1h1-1l1 1h-1l2 1v1l-1 1v1l1 1h3v1l2 1 2-1 2 1h1v1h1l2 1v-1 1h1v1h1l1 1 4 1 4 1h1-4l-1-1-1 1-1-1-1 1-3-1h-1l-2 1h-1v-1h-2 1l-1-1h-8l-3-1-3-1v-1h1l4-1v-1l-1-1v-1l-2 1 1 1-3 1 1 1h-1l-1 1h-6 1v1h2v1l1 1h11v1l2-1h1v1h2v1h6l2 1v2h-1l1 1h-1 1l-3 1h-6v1h-4l-2-1h-17l-2-1h-2 1-6l-1-1h-3l-1-1h-2v-3l-1-1v-1h-3l-1 1h-1l-2-1h-3l1-1h-1l-4-1-2-1-1 1h3v1h1l1 1 2 1-1 1h-1 1v1h1l-1 1 1 1 5 1h-4l-3-1-4-1h-3l-2-1h1l-4-1v-1h-2l1 1v1h2v1l1-1 1 1-1 1 1 1-2-1v1l-3 1-1-1h1v-1l-1-1-1 1 1 1v1h-8l-1 1v1h1v1h5v1h4l3 1v1h-3 2-6l4 1v1h3-1 1v1h1v-1h5-5l-2-1v-1h1-1 8v3l1 1 1 1h5l7 1 4-1 1-1h2l1 1h1l1 1 2-1h1-1l1 1h3l1 1 2-1 2 1h7l1 1h5l4 1h1l1 1 1-1 1 1h5v1h3v1h1v2h2v1h1-1l1-1h2l1 1h-2l4 1h1-1l-1 1-2-1-1 1h-1l-1-1h-2l1 1h-4v1h2l-1 1h-2l-1 1h-1l-2-2h-1v-1l1 1v-1h-2l-1 1h1l1 2-2-1v1h-5v1h-2v1h-2v1h-2v-1h-6v-1h-1l-2-1h-2v-1l1-1h-2l-1-1-4 1h-3v1h3l3-1 1-1v1h1l1 1v2h1v-1h1l2 1h1l-2 1h-1l3 1h2v-1h3l-1 1h2l1 1 2-1 5 1h-1l-2 1h-5l-3-1-3 1h-5l2 1 2-1 1 1h8l5 1h3l-1-1h1v1h1v-1l2 1-1-1h2v-1h-3l-3-1h1l1-1h-1 1l1-1h2l-1 1h1-1l1 1h2l2-1 4 1h12l-1 1h-4v1h-1 1v1h-6l-1-1h-1l-1 1-1 1h1-1l-1 1h-4v1h-2l-1 1 2 1h-3 1l-1 1-4-1h-2 1l-1 1h-1l-1 1h-2 1-6l1-1h-1l-2-1h-2 3l1 1h-1v1l-7-1-3 1-1-1v2h-12l-1 1h6l3-1v1h2v-1h4v1h21-1l-1 1v-1l-3 1h-3v1h-8v-1l-1 1-1-1v1h-2l-8 1h2v1h-18l1-1v-1h-1v-1h1v-1h-6l-2 1h5-1l1 1 1-1 1 1h1v1h-2v1h1l-3 1-1 1v1h2-1l-14-1h-4l-1-1h-2v-1h1l-1-1 2-1-1-1h2-4l-1 1-1-1-1 1h1l3 1h-1l1 1v1h-4l1-1h-2v1h-1v1h1-5l1-1-1-1-3 1-2-1h1-1l-3-1h-3v-1h-7v1l1-1 2 1h4v1h1v1l2-1h3l-2 1 2 1h2v1h1l4 1v1h-4l-2 1 2-1v1h3l2-1h6l3 1h10v1h-6v1h4v1h-4l-1-1v1l-10-1-7 1v-1h-2l1-1h-3v1h2v1h-2l1-1h-2l-1 1h-3 2l-1 1h-2v-1h-3v1h-1v2h-2v2h-17l1 1h6v1l1-1h-1 3l-2 1h1v1h3v1h-2 2v-1h1-1v-1h3v-1h5-3v-1h1-1l1-1v-1l3-1h-1 7-1v-1l3 1h4l3 1h9v1h-2l-1 1-2 1h-10l-1 2h3v1h1l2 1-1 1v2h1l-1 1h-4v1h-1l-1 1h-1l1-1h-2l-1-1h2l3-1h1v-1h1v-1l-1 1v-1h1-2v-1l2 1v-1h-5 1l-3 1h1l-1 1h3l-1 1v-1h-3v-1h-3l2 1-2 1-1-1-1 1h3l-4 1-3 1-1-1v1l-1-1v1h1v2l3 1h-4v-1h-3l-1 1h-8l-1 1h2-3v1l-2 1-1 1 1 1h-1v2h-3v1h2-7l-2 1h-2v-1h-3v-1l-1-1h1v-1h-1 7l1 1v1h1-3l2 1 3-1h-1v-1h5v-1h-6v-1h7v-1h-8v1h-2v-1l-1 1-1-1-1 1h-1l-3-1h-2v-1l1 1 1-1h-1 2v-1l-6 1h-6l-1-1-2 1-3-1-3 1-4-1 4 1 3 1h-1 1l-2 1-2-1-1 1-1-1h-1l1 1h-2v-1h1-3l-2 1-2-1v-1l-1 1h1l-2 1h4l1 1-3-1-3 1-1-1h1v-2h-1l-1 1h-3v1h-5l-1-2h5l1-1h4v1h1v-1l1-1h1l-2-1v2l-3-1-1 1-2-1v1h-4l-1-2-5-1 2 1h2l1 1v2h-9l-1-1 2-1h-4 1v1h1-2l-1 1v1h-2l-4-1h1-3 1l-1-1-2-1h-3l1-1h-1 3l-1-1h-2l-2-1h-4l-3-1v-3l4 2h3l1-1h-2l1 1-3-1-3-1h-1l-2-1-3-1v1h3v1h1l1 1h-1l1 1h-2 1l-1 1-3-1-4-1v-1h-1 1l-3-1h-1l-3-1v-1l1-1h-1l-1-1v-1h2-1l-1-1h-1v-1l-2-1v-2h1v-1h1l-1-1h1-3 1v1h-1 1v1h-1l-1 1-1-1v1l1 1v-1h1l-1 2-1 1h-1l-1 1 2 1v1h-2v-1l-1 1-2 2 2 1v-1l1-1h1l-2 2 1 1-3 1v-1l-4 1h-2v-1h-3v1l-4 1h-3v-1h-5l1-1v-1l-2-1h-2v-1 2h1l1 1h-1l1 1h-1l-1 1v1l-1 1-3 1h-1l-2 1h1l2-1v2h1v-2h2l1-1 1-1 1-1h1l1-1 2 1 1-1 1 1h6l1-1 1-1h1l1 1 2 1-1 2 1-1h1v-1h-1l1-1h2l1 1h2l-1-1h1l1 1h-1l1 1h3-1v1h1l1 1h1l1 1 3-1v1h2l1 1h1l1 1v1h1l2 1h-1l1 1h3l1-1v1l3 2h3l2 1h4v1l3 1 1 1h4l1 1h3-4l-1 1v-1h-1v1h-1l1 1h-3v-1h1-2l-1-1h-2v-1l-2-1h1-1l1-1h-2 1v1l-2-1v-1h-1l1 1h-4v-1 1h-1l-5-1v-1h2l-1-1h-2v-1h-3v-1l-1 1 4 1h2l-1 1h-2l1 1h-1l1 2 5 1h6l-1 1h-2v1h4v-1h1v1h1l1 1h2l2 1v1l-3-1v1h2l1 1h1v-1h6l1 1h-1v1-1l-1-1-1 1v1h1l1 1h1v2h1v-1h1l-1-1h2v-1h-2l1-1h3-1v-1h2l1-1v1h1v-1l6 1 2 1-1 1h1l-2 1 1 1h1l-1-1 2-1-1-1 3 1-1-1h1l1 1h1l1-1h-1 3v1h-1l1 1v1h1l1-1h1l1-1 2 1h-1v1h1v1h-1v1h2l-1-1h1l1-1 1 1v1l-1 1h-2l1 1h1v1h-3l1 1v1l1-1 1 1h1l1 1h1l2-1h1l-1 1h1v1h-2l-1 1-1-1-1 1h-2v-1h-1l-2 2h-10l1 1h1v1l-1 1h1v-1l1-1 2 1h2l1 2h1v1h-1l-1 1h-1v-1h-1l-1 1v2h1l-1 2h1l1 1v1h-1l1 1h1l1 1-2 1h1l-1 1v1h3l-1 1v1h-3v2h1l-1 1 1 1v1l-2 1v-1l-2-1v-1l1-1-3-1h-1v1h-2v-1h1v-2h1v-1h-1v-1h1v1h1l1-1v-1h-1 1v-1l-3-1h-3l1-1-1-1h-2l1-1 1-1-2-1h-2l-1 1-1 1h1l-1 1h-1l-2-1 2-1v-1h1v-2l-1-1-2-1h-2l-2 1h-2v-1l-1 1-1-1v-1h-3v-1h-3l-1 1 1 1 1 1-1 1-1 1v-1h-6l-1-1-1 1-1-1-1-1-1-1-1 1h-1l-2-1v1h1v1h1v1-1h1v1l1 1 1 2h-1l-1 1h1l-1 1h2l1 2h-3v-2h-1l-1-1-1 1v1l-2 1h-2l-1 1v1l-2 1h1l-1 1-1 2h-2l1-1-1-2v-1h-1v-2h-2v-2 1h1l-1-1h1-1v-1h1v-1h-2l1-1v-1h-1l-1 1-1 1v2l-1 1v-1h-1v2h-2v2h-2l1-1-1-1h1v-1l-1-1v-2l-1-1h-1v-1h1-1l-1-1h2-1v-1l-1-1 3 1 1-1h-1l-2-1-2 1h-2l1-1-1-2 1-2-3 1h1l-1 1-1-1-1 1v1h-1v1h-3v-1l-2-1h-1 1l-1-1h2v-1l-2-1h-2l-1 1h-2v1h2l-1 1-1-1v1h-1l-1-1v-1l-2-1h-1l1-1 1-2h-1v1h-1v-2l-2 1h-1l-1-2v-1l1-1h-1l-1 1v1l-2 1h-1v-1l-2-1-2-1v1h2l1 1v1h1l-1 1v1l-2 1h-11l-2-1v1h-2v-2l-1-1h-2 1l-2-1-1 1h-2v-1l-1 1h2v1l-1 1-1 1h-8l3 1 2-1h2l-1 1h1l-1 1-1 1h-1l1 1 1-1 1-1 1-1h1v1-2h1v-1h2l-1 1h3l1-1v1h-1 1v1h5v1h3v-1 1h3l-1 1v1l1-1h3l-1 1h-1v2h1l-1 1-2 1h-2l-4 1 4-1v1l1-1 1 1 1 1h-1v1h2l-1 1-2 1v1l3-2v-1h2l1-1 1-1 1 1v1-1h1-1l1-1 1-1h-1l1-1h2v-1l1-1h2v2h-1l-1 1h-1v2l1 1h1v-1h-1v-1h1l1 1v1h1l1 1 2 1h1l2 1v1l-1-1-2 1h-2l-1 1h-2v1h-2l-5 1-1-1 1 1h-1v1l2-1h2l1 1h1-1v1l3-1v-1l1-1v1l2 1h1v-1h1v3h1l1-2h3l1 1h2l1-1h1v1l-2 1v1h1v1l-2-1-1 1h-2l-1 1h-2v-1l-1-1-2 2v1l-1 1h-1l-1 1h-3l-1 1h-2 1l-1 1 1-1h4-1v2l-2 1v1l1-1h1v1-1h1l4-2 2-2h1v-1l1 1-1 1 1 1h1l-1 1-1 1-1 1 1-1h1l2-1v1l1-1 1-1 1 1v-1l1-1v-1l1-1v2h1v-1h3v-1l1 1 5 1h-1v2h1v1h-5v1l2 1h-7v2h2l1 1h-1l-1 1h-2l-1-1h-1l-1 1-2 1v1h-1l1 1h1l1-1v2l-1 1h1v1h1l1-1v-1h1l1-1h8v1h3l-1 1h-1v-1h-1l-1 1h-1l-1 1-1 1 1 1-1 1v1l1 1 3-2h2l-4 2h-2v1h5l1 1 1 1h1l1 1h-3l-1-1h-1l-1-1h-4v-1h-2l1-1v-1l-2 1h-1l-3-1-1 1h-1v1h-1v-2l-2-1h-2l-1-1h-5 1l-1-1v-1h-1v-1h-1l-2 1h-1l-1-1h-3v-1h1-3v2h-2v1h1l-1 1h-3v-2h-1l-2 1v-1h2v-1h-2v-1l-2-1 1-2h-3v-1h1l2 1v-2h-1v-1h1l-1-1h-1l-1 1h-1v-3h1-1v1h-2l-1 1h-1l-1-2h-2v1h-2v1l-1 3h-1l-2-1v-1l1-1h-1l1-1 1-1h2l2-1 1-2h1v-2l-2 1h-1v1l-4 1h-4v1l-2 1v-2h-1v-3h1l-1-1v-1l-1 1h-1v-3 1l-1 1h1l-2 1h1-1l1 1v1h-2l-1-1h-2v-2h-1v-1l-1-1v-1h-1v1h1l-1 1h1l-1 1 1 1 1 3 1 1h1v1l2-1v1h-6v1h-1l-1-1v-3h1l-4-1-1-1h1-2l-3-1h1l2 1h-1l-1 1h-1 2v1l1-1h1l-1 1 1 1v1h-1v1h-4v-1h-1 1l-2 1v1h-1v1h-3 2l3-1h3v1h6l1 1v1h1l1-1h1l1 1v1l-2 1h-1v-1h-4v1h-2v1h-4 8v1h-2l-1 1 2 1-2 1v1h-2l-3 2h1l1-1h2l3-1h-1v-1h4v-1h1v1h1l-3 1-1 1-2 1h2v-1h1l-1 1v1h-2v1h1-1l1 1 1-1h1v-1l3-1 1-1h2v-1l1-1v-1h1l3 1h-1l2 1 2-1h5v1h-1l-4 1h-2l-1 1-5 1h2l1 1h1v1h6l1 1-1 2-2 1v1h-1l-3 1h-1 1v1h-1l-1 1-1-1 1 1h-1l-2 1h-3l-1 1 3-1h1l-1 1h1v-1h1l2-1h2l2-1 3-1 1 2v2l1-1v1l-1 1h-1v1h-4v-1l-2 1h1l-3 2h-1 1l-1 2 1 1 1 1h3v1l2 1 1 1 1-1 3 1-2 1 1 1h3l-1-2h1l2-2h2l2 1-2 1h-1v1l-1 1h1l-2 1-1-1-1 1h-1l-2 1h-2l-3 1-1-1 1-1v-1h-1l-2 1v-1h-3l5-1v-1l-1-1-5 1-2-1h-3v-1l3-1v-2h-2l1-1h-13v1h-5v-2h-1l1-1 2-1 1-1 1-1h1l-2-1 1-1h-6l-1-1 2-1 2-1h-1v-1h-2l-2-1h2l-1-1 1-1h-1v1h-4l-2 2h-1l-1 1-1-1h-1l1-1h-2l-2 1-1 1h-1v-3l-1 1-1-1-1-1 2-1v-1l2 1v-1l1-1h-1v-1l3-2v-1h1v-1h-1l-1 1-1 1h-2l-3-1-1 1h-2v-1h-4v-1l2-1-1-1 1-1 1-1h-2l-1 1-2-1-1-1h1v-1l1 1v-1h2v-1h-2l-1-1h-1v-2l-1 1-1-1v2l-1 1-1-1h-1l1-1-2-1h-1l-2-1v-1h2v-1h-3v-1h-3v-1h-4l-2-1 3-1v-1l-1-1h3l-1-1 1-1h1-2v-1l-2 1-1-1v-1h8v1l1 2 2-1 1-1h1v1l1 1-1 1-2 1v1h2l1 1v-2h1l1-1h2l1-1v4h2v-1h2l-1-1h2v1l1-1h2l-2-2-1-1-3-1 1-1-2-1 1-1h-2v-1h1l1-1h1v1h2v-1l1 1-1 1 1 1h2v-1l1-1h1l2-1v-1h1l1 1h-1l-1 1h2v-1 1l2-1v-1l2-1-1-1-1 1h-2v-1h1v-2l-1 1-1-1h-5l-1-1h1-3v-1l1-1-1-1h1-1v-1h2-1l1 1v-1h1l1 1h1v-1h1-1v-1l-1-1-3 1-1-1h-5l-1-1v-1h-1l-1-1 1-1v-1h3v1h-1v1h1l3-1h1l1-1h1l1 1h1l1 1 1-1h1l2 1h1v1l1-1 1 1h1v-1h1-1v-1l-1 1-1-1h-2v-1h-3l1-1h-1l-2 1-1-1h1v-1h-1l-1-1v-1h-4v-1h2-1v-1l-3 1 1-1h-1v-1h-3l1-1h2l1 1h2v1h2l1 1 2 1v1h1l2-1h2l2-1h4v1-1h1v-1h1l1-1v1h1v-1h1-3v-1h-1l-1 1h-2v-1h-1l1-1-1-1h-1l-1 1-1 1h-2v-1l-1-1-2 1h-2l-1-1h-1v-1l1-1v-5h2v-1l2-1v-1l2 1h1l1 1h1l-1 1h-1l1 1h4v1h2v1h2v-1l2-1-1 1 2 1h1v1h4l-1-1v-1h1l2 1 1-1 1 1h1l-2-1v-1h1l2 1-2-1 1-1-2-1h-7l1-1h-1v-1h-2v-1l1-1-1-1v-1h-3l1-1h2v-1l1-1 1 1v1l-1 1h2l1-1h1v1l-1 1h1l-1 1 2-1v1h4v1-1l1 1 2-2h4l-2-1h-7l3-2v-1h3v-1h-4 1-1l-2 1h-1l1-1v-1l-6-1h3v-1l-1 1v-1l2-1h-2l1-1h1l-1-1h1l2-1 2 1 2-1 3-1 1-1h1l-1 1-2 2h1v2l1-1 1-1 3-2 1-2 1 1-1 1h1l2-2v-1h1v1h1v2l-2 2v1h1l3-2v1l-1 1h2l1 1-1 1 3-2h1-1l-1-1v-1l1-1h1l1-1v1h2l-1-1v-1l1-1h-1l1-1-1-1v-1l1-1h1v-1l2-1h1v2l-1 1h1l1-1h1v2l1 1 1-1h-1l1-1h2l1-1v-1h3l-2 3 1-2h2l-1 1 2-1 2 1v-1h-2v-1l1-1h-2l-1-1h-1 1v-1h-1l-1 1h-1l2-2h-2l1-2h-1l2-1-1 1 4-1v-2l3-1v1h-2l1 1h1l1-1h1l-1 1h1-1v1h2l-1 1h-1 1-1v1h3l1-2h1v-1h-3v-1l1-1-1-1 1-1 1-1h1l1-1 4-1h1v2l-1 1h-1 1v4l-1 1 1 1 1-2v-3h1l1-1v-2h1l1 1 2 1 1-1 2-1 1-1h1-1l1-1h-1v-1h1l-1-1h4l2-1h1l1-1 1 2h5v-2h2v-1h2l1 1h3-1v-1h2v1h-1 1v2h1v-1 2l1 1h-1v1h-2v1h1l1 1v-1l1 1v1l1 1h-1l1 1h-1v-1l-1 1 2 1v-1l1 1v1l-2-1-1 1h-1l1 1 2-1 1 1h1v1h1l-1 1h1v2h1-2 1l-1-1v2h-1v-1h-2l1 1h-2v1h1l-1 2h1v1h1v1h1l1 1v1h-1l-1-1h-1v1h1l-2 1v2h4v1h2v-1h-1v-1l-1 1-1-1h1v-1h2v-1h-1 1v-1h-1v-1h1v1l1-1v2l-1 1v1h3v-1h-1l-1-1h1l1 1h1l1-2 2-2 1-1-1-1 1-1h-1 1l2 1v-1l2-1h-1l-1 1h-1l-1-1v1h-2l-2-2h-1l1-1h1l-1-1-1 1v-2h1v1l2 1h1l-2-1h1l-1-2v1h-1l-1-1 1-2-2 1v-1h1v-1l-1-2h1-1v-3h-1l1-1-1-1-2 1v1h1-1v2-2l-1-1v-1l-1 1h-1l1-1h-1v-3 1h1l1-2v-1h2l-1-1h-1l-1-1h3l2 1h-2l2 1 1-1-4-1v-1h2l1 1h2v1h1v-1l-3-1h-1l-1-1-5-2-1-1 4 1 4 1 3 1h1l1 1h1l1 1v-1h-2v-1l-4-2-4-1-3-1h-1l-3-1h-2v1l-1-1-2-1h1v-1h-1l-1-1-3-1v-1h-1v1l-1-1h1v-1l-4-1v-1h-2l-2-1h-1l-1-1h-2l-3-2h-1l2-2h3l1-1v-1l2-2v-1l1-1 1-2h1v-1l3-1v-3l-1-1-2-2v-1l2 1h2l1 2h1v1h1l3 3-1 1 1 1-1 1h1v1l1 1h1v1l-1 1v1h1l2 1-2 1-1 1v1-1h4l1 1h1v1h1v1h1v1h1v-1h1l3 1h-1v-1h-2l-2-1v-1h1v-1h2l-1-1h-4v-1h2-1l-1-1 1-1v-1l1 1h1v-1l1 1v-1l-1-1-4-3-1-1h-1v-1h1l-1-2h-1l1-1h1l1-1h1v-1l2-1 5 2h7l-1-1h-1l-5-1-2-1h2-1l-3-1-4-2h-1l-2-1-2-1h-3v-1h-3l1 1-1 1h-3l-1-1h1l-1-1-3 1-1-2v-1h1v-1l-1-1h1-1l1-1 3-2h2-1 1v-1h1-1v-1h1-1l2-1v-2h3l1 1 1 1h2l-1 1h4l1 1 1 1 2-1 6-1h1l1 1 1-1h5v2h-1l-1 1v1h3l1 1 1-1-1-1v-3l-1-1h-5l-3 1-3-1v-1h1l1-1h2l1-1-2-1 2-1v-1h-1l-1-1v-1h5l2-1 2 1h3l1 1h1l1-1 1-1h2l1 1 2-1v1h2l1-1 3 1h1l1-1 1-2v-1l1-1v-1l-4-2v-1l-3-2-1-1h-2v-1h1l-1-1h-1v-1h-2 1v-1h-1v-1h1v-1l-2-2-3-1-1-1v-1l-1-1h-1l-2-2v1h2l1-1v-1l-1-1h-2v-3h-1l-1-1h1l1 1Zm-13 115h1-1Zm2-1 1 1h-2v-1h1Zm0-5h-2v-1h1l1 1Zm0-3-1 1v-1h1Zm0-1h-1l-1-1 1 1 1-1v1Zm-4-9h-1 1Zm-9-1 1 1h-2v-1h-1 1v-1l1 1Zm3-1v1h1v1l-2-1v-1h-1 2Zm183 39h-1 1Zm-15-1h-1 1Zm2 0h-1v-1h1v1Zm15-1h-1l1-1v1Zm-25-6h-3 3Zm27-5h1v1h-10l-1-1h10Zm8 0v1l-1-1h1Zm-4 0h-1v-1l1 1Zm14-1h-1 1Zm2-1v-1h1v1h-1Zm3-2h2l2 1h1-2v1h-5v-1h-2l3-1h1Zm-25-2h-2 2Zm-35 26v-1h1v1h-1Zm2-75v1l-1-1h1Zm-1-3 1 1h-1l-2 1v1l-1-1v-1l2-1h1Zm1-1h-1l1-1v1Zm139 32h-2 2Zm-8-1v1h-1l-1-1h3-1Zm-12 0-1 1-1-1h2Zm5 0h1-3 2Zm4 0h-2 2Zm-3-11h2v1h-1 1l-2 1v-1h-2v-1h2Zm-9-3h3-5l1-1 1 1Zm-59-12 2 1h2l1 1h1l1 1h1-8l-3-1h-1v-1h3v-1h1Zm2-1h1-2l1-1v1Zm-44-1h1l-2 1 1 1h-3l1-1h-1v-1h3Zm40 0 2 1h-2l-2-1h2Zm64-11h-1 1Zm-154-4h-1 1Zm30 0h1-1l-1-1 1 1Zm-6-1 3 1h-2l-1-1v1h-1v-1h1Zm-20-3h1l1 1-2 1-1-1h1l-1-1h1Zm143 5 1 1-2-1h1ZM667 90l1 1h-1v1h-1v-1h-1l1-1h1Zm-5 6h-1l1-1v1Zm3-12h1v1h-2v-1h1ZM210 260l-1 2h-3v-1l-1 1h-2v-1h1l2-1h2v1l1-1h1Zm-8 1v1-1h-1l1-1h1l-1 1Zm1-4v1h-1l-1-1h2Zm18-2-1 1-1 1v1h-2l-2 1-2 1-1-1v-1l-1-1v-1h2l1 1h2l2-1h1l3-1h-1Zm-57 1h-1v-1l1 1Zm-25-2h1-1Zm24 0h-1 1Zm-15-1h2l2 1-1 1h-2v-2l-1 1-1-1-2 1v-1h-1 1l2-1 1 1Zm79 7v-1h1v1h-1Zm1-2v1h-2l1-1h1Zm108-18h1-1v1h1-2l-1-1h2Zm-84-5v1h-1l-1-1 1-1 1 1Zm-42 22h1-1v1h-1v-2h1v1Zm-37-1h-1 1Zm35-5 1 1h-2l-1-1 1-1 1 1Zm-20-43-1 1h-1v-1h2Zm-27 46h1-1Zm1-2h1l1 1h-1l-4-1h-1v-1h2v1h2Zm-47-5-1 1h2l1 1h-7v-1h2l1-1h2Zm32-5 1 1-1 1-3-1v-1l1-1h1l1 1Zm-4-2Zm-27-2v-1h1v1h-1Zm8-33h1v1h2l1 1-2 1h1l1 1-2 2h3-1l-3 1h2l-1 2h2v-1h2v1h-1v2h-2l-2-1h-1l-2-1h-7v-2h-1l-1-1-1 1-1 1h-1l-1-1h-1l2-1h2l1-1v-1h1v1h2v-1l2-1v1l1-1h2l-1-1h2v-2l1-1v1h1Zm-2-2 1-1v1h-1Zm-17 13 1 1 1-1h1l-1 1-4 1-1-1-2 1v-1h3l1-1v-1h1v1Zm-26-3v1h-4v-1h4Zm0-13h1l-2 1 1-1Zm-16-10v2h1l1-1 1-1h1v1l-2 1-1 1h-2l-2 1h-2l-1-1v-1l2-1 4-2v1Zm61 9v1l-1-1v-1h1v1Zm0-15 1 1v1h-1l-1-1v-1h1Zm-17-6h1v1h-1v-1Zm6-4h-1l1-1v1Zm-52 12h2l-1 1h-1v2l-2 1-1 1h-2v2l-3 1-2-1h1l-1-1h2l1-1 1-2 2-1 1-1h-1v-1h3v-1l1 1Zm7 3-1-1h2l-1 1Zm59-27v2h-1l1 2h-1l1 1h-1l1 1h1v1h-2l1 1h-2v1h2l-1 2-2 1-2 1h1v1h1v1l-1 1v1l-1 1v1l1 2-1 1v1l1 1-4 2h2l1-1v1l2 1h1l-3 1h-1l-1 1-1-1h-1l-1 1h-1 1v2l1-1h2v2l3-2 2-1v4h-3l-1 1v3h-1l-4 1-1-1h-2 1v1h2v1h2v1h2l-2 1-3 1h-1v-1l-2 1-1-1-1 1-2 1h-3l1 1-3 3h2l1-1-1 1-1 1v-1h-2l-2 1v1l-1-1-2 1-1-1v-1l-1-1v-1h-4v-2h-4l-2 1v-1l5-1-5-2v-1l-3-1v-1l5-2h2-3l-1 1h-1l-1 1-1-1h-2v-2h1l1-1-1-1-1 1h-1 1v1h-2v1l-1 1h-2l-1-2 2-1h-1v-1l1-2h-1l-2 2-2-1v-1h-2v-2l2-1 1-2-1 1h-2l-1-1v-2h1v-2l2-1 2-1h1l1 1 1 1 1-2v-1l-1 1v-1h-3l-1 1h-4v-1h2v-1h1-1l-2 1h-3l-2 1v-1h-1 1v-2h-1v-1h2l-1 1h3l-1-1h3v-1h1v-2h-2l-1-1v-1h1l1 1v1l2-1 1 1h3v-1h1v-1h2l1 2h-2v1h-1v1l-2 2 1-1 2-1h1v-1h1l3 1v1l1-1h1v1h1v1h1l2 1h1l-2-1 1-1h-2v-1h-1v-1h1v-2h1l1-1 2 1h1l-2-1v-2h2v-2l-1-1 2-1 2-1 1 1 1 1h4l2-1h2l-2 1 1 1 1 1-2 2 2-1h1l1 1 2-1h3v2l-1 1v1h2l-2 1v-1h-4l-1 1h2v1l-2 1h-2l-2 1-1 1h-1l-1 2h-4l-1 1h-1v1h-1l1 1v1l-1 2h-1l-1 1 1-1h1l2-1h2v-1h5-1l2-1v1l1 1v-1l1-1 2-1h3l-1 1h1l1-1v-1h-1v-1h1l-1-1 1-1 1-1 1 1v2h1l1-1v-2h2v-1h1l1-1v3h-1 1l1-1v2l1 1v-3h1v-1h-1l-1 1v-1l1-1 1-1 1-1v1h1l2-2 1-1-1-1-1 1h-1v1l-1 1v-1l-1-1v-1l-2-2-1-1v-1l-1-1 1-2h1l2 1 1-1-1-1h-1v-1l4 1 2-1 1 1v-1h2Zm-73 23-1 1h-1v-1h3-1Zm10-1 1 1h-2l-1-1v-1l2 1Zm38-2-1 1-1 1v-1l1-1 1-1h1v1h-1Zm-44-2h1l-1 1h2l1 1h1l-1 1h-2l-1 1h-4 1-1v-1h2-1v-1h1v-1l1-1v-1l1 1Zm4 1h1-1l-1-1 1 1Zm-10-3 1 1h-1l-1-1v-1l1 1Zm-3-9h1l1 1-1 1h1v1h1v1h1v1h2l2 1v1h-1v-1h-2v1l-1 1-2-1-1-1h-4l-1 1v1h-1v1h3l2 1h-1l-1 2h-2v1h-2 3l1 1v-1l2-2 1 1v-1h2l1 1h1l-1 1 1 1h-4 2l-1 1-2 1-1 1h1v-1h2l-2 1-3 1-2-2h-3l-1-1-2 1v-1h-2v-1h-2l-1-1v-1h-1l-1-1-1-1h1l-1-1h-6v-3l6-1-1-1h-1v-1h2l1 1h1l-1 1h-1l1 1v-1h2v1h1l-2-2-1-1v-1l1-1h1v1l2 2 1 1h1l1 1 1 1 1 1h2v-1h1v-2h-2v-2h3l1 1h2v-1h-1v-3h3Zm5 8h-1 2-1Zm12-1-1-1h1v1Zm20-6v1l-1 1h-2 1v-1h1v-1h1Zm-30 0-1 1h2v1h-1l-2-1v-1h2Zm17-1v1h2l-2 1v1h-3l1-1v-1h1l-1-1h2Zm-38 1h-1 1Zm156 37v1h-2l-1-1h3Zm11-10h1-1Zm0-13-1 1h1-2l1-1h-1l1-1 1 1Zm-3-1-1 1h-2l2-1h1Zm13-2v1h-2l1-1h1Zm-2-1h1-1Zm-13 0h-1 1l-1-1h2-1v1Zm-4-6-1 1-1-1 1-1h1v1Zm46-4v1l-1-1v-1h1v1Zm199-98h2v2h1l1 1h1l1 1 2 1h2l2 1 2 1h2v1l2 1 2-1 2 1v1h4v1h5l1 1v1l3 1h3v-1h4v1h-1l-1 1h-2l-2 1v1h-1l-3 1-4 1-3-1v2h-1l-1-1v1l-1 1-1-1v1l1 1h2l1 1h1l-1 1h-2v1h-1 3-1l1 1h-3l-2 1h6l6-3 4-1 4-2v1h-1l-1 1-3 2h-1l-1 1-3 1v1h-3v1l-3 1v1h-2l-1 2-3 2-1 1-5 4h-2v-3l2-1 1-1v-1h-1 1-1v-1h-1v1h-2v-1h-1l1 1h-1l-2-1 2 2v1h-2l-1-1-2-1-5 2-2 1h-1l-6 1h5l4-2 4-1h1l1 1 1 1h1v-1l2 1-1 1-2 2h-1v-1l-1 1h-2l1 1h-1l-1 1 2-1h1-1 1l1-1 1 1-1 1-3 3 2-2 2-1v-1h1l1-1 2-1 2 1v1h-1l-2 3-5 4-1 2h1-1v1h-1l-1 3 1 1v1h-1l-1 1-3 1-4 2-3 3-1 1h-7v-1l1-2 2-2v-1l1-1v-2h4-1l1-1h-1l1-1h-1v1h-2l-2 1-1 1v2l-1 1h-2v1h-1l-1 1h-1v1h-4l-2 2v1l-2 1h-1v-1l1-2 3-3 3-1v-1l1-1h-1v1l-1 1-1 1h-2l-2 1-1 1-1 1h-1v1h-1v1l-3 1v1l-2 1-3 1v1h2l-2 1h-1v1l-1 1v1l1-1 1-1h1l1-2h1l1-1 3-2 2-1 1-1 1 1-1 1-1 1v1h1l2-1-1 1-2 1v1h-2l1-1h1v-1h-1v1l-2 1v1h1l-1 1v-1l-2 1h2l-3 3h-1l1-1h-1v1h-1l-1 1 1 1 1-1-1 1-1 1 1-1h-1l-1 1h1l-1 1h-1v2l-1 1v1h-2 1v-1 1h-2v1h-1l-1 1h-1v1h1l2-1v1h-1v1l-4 2-1 1-3 2-6 3-6 5-2-1h1v-1l-5 2 1 1h-1l-2 2-3 3-4 3-1 1-1 1-1 1v1h-1l-6 5 1 1h-1l-1 2v2l-1 1-1 1v2l1 1-1 1h1l-2 1v2h-3l-1 1-3 1-2 1h-1l1-2h-1l-2-1-1 1-7 4-5 3h-5l-1 1-3-2 3-1 1-1h1v1l2-1h-2l-1-1h-1v-1h-2 2-1v-1l-1-1h-1l2-1v1h1v-1h-3l1-1h-1l-1 1-2-1v1h-1v1h-3v-1h-1v-1l-1 1v-1h-1l-1 1-1-1v-2h3l1-1h-1v1h-1v-1h-3l1-2h-1v1l-1-1 1 1h-1v2h-1v2h1v1h-2 1v2h-1v1-1l1 1-2 1v1h1l2 1-1 1-2 2-1 1h-4v-1h-6v-1l-5 1h-4l-7 1-3 1v-1l1-1 3-2h1l3-1 1-1h1v-1l2-1h-1l-2 1h-1l-1 1h-1v1h-3l2-1 2-1v-1h-1l-2 2-2 1h-2l1-2 2-1h-1l-2 2h-2 1l-1 1h-3v1h-3v1h1l-1 1h-1l-1 1v1h-1v-2h-1l-3-1-3-1v-2h-1v1h-1l-2 1h-1 2l1-1v1h3v1h1l1 1h2l1 1h-2l3 1-1 1v1h1l1-2h1v2h1l-1 1 1 1-1 1 1 1v1-2h1v2l-1 3v4h1l1-1 1-4v-4l1-3 1-1 1-1h1l1 1-2 1h-1v5h-1l1 1-1 1v2l-2 5-1 1-1-1-1 2h-1v1l-1 1v1h-2l-2 3-2 2v1l-2 1v1h-1l-3 1-1 1-1-1v-1h-1l-1 2v-1h-1l-2-1 1-3h-1l-1-1 1-1h-1v1h-1v1l-1-1v1h1l2 1-1 1v2h1l1 1h2l1 1v1l-1 1h-6l1-1h-3l-2-1 1-2 1-1-1-1h-1v-1l-2 1-5 1-4 2 2 1h3v1l-2 2-3-1-1-1h-1l-1-1 1-1v-2l-1 1h-1 1v2h-2l-1-1h-1l-2-1-1-1-2-1-1-1h1l-2-1v-1h-1l-1-1v-3l-1 1h-3l-2 1h-3v1l-1 1h7v1l-2 2h1l-3 1 1 1v1-1h1v-1h1l1-1 1-1h1v-1l1-1v1l1 1 1 1v1h2l-1 2h-1 2l1-1 3 1v1h2l1 1v1h1l-1 1v1l-4-1h1v1l-3 1h-3l-1-1-1 1h1v1l1-1 3 1h4l-1 1h1v1h-3v1l-4 1-1 2h-3l-1 1h-1l-2 1v1l-2-1h-3v1h-1v2h-1v1l-2-1v-1h1-1l-1-2h-1v1h1v1h-1l2 2v2h-1l-3-1-2 1-2-1h-1v-1h-1v-1h-1v-1l-2-1-1-1-1-1h1l2-1h1l-1-1h-5v-1h-1v-1l2-1 2 1v-1h-1l2-1 1 1v-1h2v1l2 1 1 1h3l-2-1v-1h2-1l-4-1v-1h-1l-1-1h1l2-1v-1h4-4v1h-3l-1 1h-2l-2-1v-1h-1l-1-1h3l2-3h2-2l-4 2h-2l-1-1h-1v-1h1v-2l2-1h-1l-2 2h-1l-1 1-1-1 1-1h-3v-1h-2l1-1h-1 2v-1h3l-2-1 1-1h3v1l1-1 1 1 3-1 3 1-1-1h1-2l-2-1h-2v-1h-2l-1-2 1-1-1 1-2-1 1 1v1l-3 1-1 1h-2l-2-1h-1v-1l-1-1h1-7l-2 1-2-1v-1h-1v-1l2-1-2 1-2-1v2h-2 1l-1 1-1-1h-1v3l1 1 1 1h2l1 1h1v1h6l1 1 1 2h1l2 1v1l-1 1h4l1 1 2-1h1v1h-1l2 1h3l-1 1h-2 3v1h-3l-1-1v1h-4v-1 1h-5l-1 1h-3l-2-1h-2v-2l-2-1 1-1 2-1-1-2h-2l-2-1h-1l-2-1-1 1h-1v-1h1v-1h-1l-1-1 1-1h1l-1-1h-1l-1 1-1-1-2-2-2 1-2-1h-3l-2 1-2-1 1-1h-2l-2-1v-2h1l-1-1h-1v-1h-5v-1l1-1h-4l-2-1v-1h1v-1l-1-1h1-2l-1-1h-1l-1-1-1-1-1 1h1l1 1v1h1v1h2v2l-3 2-1-1-1-1h-4l1-2v-1h-2 1-1v-1l1-1v-1h1v-1l-1-2 1-2v-1h-4l-2 1-2-1 1-1 1-1h2v1h1l2-1h1l1 1 1-1h3v1h1l1 1h1l-1-1-1-2h5v1l-1 1h1v1-1l1 1-1 1-1 1h-1v-1h1l-1-1v1l-1 1 1 1-1 2h1v-1h1v1l1 1h1v-1 1l2-1 1 1 1-1 1 1 2-1v1h1l1-1h2l1-1h1l1 1 1-1 2-1-1 1h1l1 1 1-1 1 1v2l1 1h-1v2h-2l-1 1 1-1h3v1l1 1-2 1h3v-1h2l1 1h2l1-1h2l-1-1h2l1-1h1-2l-1 1-1-1-1 1-3 1h-2v-1h-2v-1l1-1 1 1-1-1h1-2v-1h-1v-1l1-2h-1v-1h1-2l-1-1v-1h4l2 1 1 1 1 1h3l2-1h6l-1-1h2v-1l1-1h2l1 1 1-1h3l2 1 2-2-1-1v-2h1-10v-2l-5 2h-2v-1l2-1-1-1-4-1v-1l2 1v-1l-4-1-1-1v-1h-1l1-1h1l1-1h-1 2l7 1 6-1 2 1v1h-1v1l1-1 2-1h4l-1 1v1-1h2l2-1 5 1-1 1v2l-2 1h2v3l-1 1h-3l4 1h-1l-1 1 2-1 1-1h2l-2-1v-1h1v-1l-1-1h1v-1l-1-1 1-1h2v1h1v1h1v4h-1 1v1l-1 1 1 1v1h-2l-1 1h2v1h1v2h1v1h4-3v-1h-1v-2h2l1-1h1-1l-1-1h-1v-1l2-1 1 1v-1h-3v-1l1-2h-1l1-2h-1v-1h-1v-1h1v-1h7-1l-1 1h4l1 1h-1l-1 1h3v-1h4l2 1h2l1 1-1 1v1l-1 1-1 1h-3 2l-1 1-1 1v1l-1 1h1l1-1h1v-1h1l1-2 1 1v1l1-1 1 1h1-1l1 1 1 1v-2l-1-1h-1l-1-1h-1v-1l1-1 1-1h-1l1-1h1v1l3 1h2l1 1h1l-1 1h-2l1 1-2 1 1 1v1l1-1v-1l1-1 1 1-1-1v-1h1l3 2v1h1-1 3l-2-1-3-2v-1l1 1 1-1h-4l-1-1v-1h-3l-1-1h-2v-1h4l-1-1 2-1 2 1h7v-1h8l1-1h1l1-1 2-1 3-2 5-2v-1h-1v-1l1-1h1-3l-1 1h-4l-1 1h-3v1l-3 2-1-1-1 1-1-1 1-1h-2v1h-1v1l-1 1h-4v-1h-2l-3 1-2-1-2-1 1-1h-3l-1-1h-1l-3-1-2 1-3-1-1 1h-1l-1-2h-3l2-1h1-1l1-1h1l1 1h2v1h2v1l3-1h2l1 1h5v1h1-1l1 1h1v-1h2l2-1 1 1h1l1-1v1h1v-1h1v-1l1-1h1l-1-1 1-1h-1v1h-2 1v-1l1-1v-1h4l1-2h1l-1-1h1l1-1 2-2v-1l-1 1-1-1-3 1-1-1h1l1-1h1l1-1 1-1 2-1v-1h-1l-2-1-1-1 1-1h-1l-1-1h-1l1 1 1 1-2 1 1 1h-1l2 1h-3l-1 1-1 1h-1v-1h-2l1-1h1v-1l-1-1h-1v-1h-1l-1 1h-1 1l1-1-1-1v1l-1-1h2l1-1v-1l1-1h1l-1 2h1l1 1h2v-1h1v-1l-1-1h1v-1l1 1 2-1-1-1h-1l2-2v-1l1-1h-1v-1h2v-1l1-1 2 1 5-3 1 1-3 1h-1v2l-1 1h3v-1l1-1h1v-1h1v-1h1l-1 1v1h1l1-1-1-1h1l-1-1h1v-1h2l-1 1v1l2-1h2v1l1 1v1l-1 1-1 1-2 2v-1h-2v1l-1-1h-1l-1 2h-1v1l-1 2 2-1 1-1 1-1v-1h1v1l-1 1 2 1 1-1h1v-2h3v1h1v1l2 1h-1l-3 1v1l1 1-2 1h1-1v1l-1 1-1-1v1h-3l1 1-1 1h-1l1 1-2 1-1 1 2-1h1v-1l1-1 3-1v2l1-1v1l1-1h-1 1l1 1h2v1h2v1h-2v2l1-1h2v-1h1l-1-1h3l-1-1h-2l1-2 1-1 1-1v-2l-2-1 1-1h2v1l2 1v1-1h2v1l1 1h-1 1v-1h1v-2h-1l1-1-2-1h1-2l-2-1 2-1-2 1-2-1h1l1-1 1-1h2-1l1-1 1-1v-1h1-5v-1h2-1v-1h-2v2h-2v-1l2-1 1-1h-1v-1h4l1-1h2l5-2h1v1h-1v1h-1 1v-1l-3 2h2-1 1l1 1-2 1h1l2-2 2 1v1h-1l-2 2h2l1 1h-1l1 1v-1l1-1h3v-1l1-1h1l1 1 1 3 1 1v-3h-1v-2h-3v-2l2-1h-1 1l2 3v3h1l-1-3h1v2h1l2-2v-1l1-1 1-2v-4h-1v-4h2v-1h-1l-1-1-1-1h-1l-1 1-4-1h-2l-2-1h-2l-3 2v2l-3 1-2 1-1-1h-2l-2-1-1-1v-3l-1 1v2l-3 1h-1l-1 1-3-1v-1l-1 1h-4l2 1-1 1v2h2-1v2l1 2 1-1h1l1 1-1 1-2 1h-1l-1-1h-1 1-3l1-2h-5 1v1l-2 1-1 1h-2l-2 1v1h-3l-1 1h-5l-1-1 1-1 1-1h-2 1-1v3h-1l-1-1h-2l-3-1v1h-1l-1 1-1-1-1 1-1 1 1 1h2-1 1v1l1 1v2l-1 1h-2l-2-2-2 1-3-1 1-1-1-1v-2h1l1-1v-1l-6 1-1-2v-1l-3-1v-2h-1l-2-2h-1v-2h-3v-2h-1v-1h-1v-1l1-2h-1l-1-1-1-1v-1h-1l1-1v-1h1l1-1v-1h3v1h1v1h2l1 1 1 1-1-1v-1h2l1 1h2l1 1 4 1v1h1l1 1h2l1 1h7l1 1h2l3-1h4v-1l5-1h1l6-2h1l3-1 1-1h3l1-1h1l8 1 1 1h8l2-1h2l3-1 1-2-1-1h3l4 1 2 1h1l2 2 2 1h1l2 2h2l3 1 2 1h3l5 1 1 2h2v1h1v1h3l1 1h2l-3-1-1-1h-1v-1h-3v-1l-1-2-1-1v-1h2l-1-2h-1l1-1-1-1v1l-1-1h-2l1 1v1h-1v-1l-1 1v1h1-1v-1h2l-1 1v1h-1l-1-1v-1l-1-1v1h-1v1h-1l-2-1-1-1h-1v-1l-2 1v-1h-3v-1h-1v1-1l-2-2-1-2-4-2-1-1h-2l-2-1h-3l-1-1 1-1h2l1 1h1v-1h3v-1h-1l-1-1h-9l-4-1-1-1v-1h-2l1-1h-1v-2l-1-1 3 1h-1l-1-1-3 1 2-1v-1h1v-1l1-1v-2h1-1l-2-1v-1h-1v1l-1-1h-3l-2-1 2 2 2-1 1 1h1l2 1v1h1v1l-2 1v1h-1v1h-1l-3 1h-4l-5-1-2-1-2-1-1-1v-1h-1v1l-5-3-9-2-1-1h-2 1-1v1h-1 1v1h-1l-2-2-1-1-2-1h2l-1-1 1-1h-1l-1-1v-1l1-1 2-1h3v-1h1-1 6l7 1 5 2 1-1 2 1v-1h1l-1-1 1-1h-1l1-1h-1l-1-1h-2l-1-1h1l1-1h-3v-1l-2-1v-2l-3 1-3-1v-2l-1-1h-7v1l-1 1h-3l-3 1-3-1-3-1h-3v-1h-8v-1l-2-1v-1l-2-1-2-1-1 1-1-1h-3v-1h1l2-2h2l-1-1v-1l-1-1 1-2v-1h-1l-1 1h-1v-1h-1l-3-2v-1l1-1h2l1 1h3v1l1-1 3 1h1v-1h-2l-1-1-2-1-3-1-2-1h-2 6l5 1 7 3 4 1-1 1h7l3 1 1 1v1-1h2l4 2h1l1 1 6 2-1 2h1v-2l3 1 1 1h2l1 1 2 1 3 2 1 1h1v1h1l4 2v1h1l10 4 6 2 7 2h3v1h9l2-1 1-1h-1 2l-1-1h5l-1 1h-3l-1 1h1v1h1v1h9v-1h-3 5l-1 1 2 1v-1h4v-1h-1l1-1h-1 1l1-1 1-1 1 1h1v-1h2l-1 1 1 1h2v-1h1l-1-1 2-1h9l4-1-1-1h-3v-1h-1v-1l-2-1h-13l-3-1v-1l-1-1h-1v-1h3l-1-1h3v-1h-1v-1h3v-1h-3v-1l-1-1h1l6 2h5l-2-1 1-1h-2 2v-1l-3-1h2l-2-1h1l-2-1h1l2-1h4l1-1 2 1 1-1h1l1 1h-3l1 1h3l-3 1v1h-1l-3 1 1 1h-1l1 1v1l3 1h4v-1h-1v-2l3-1 1 1v-1h1v-1l1-1v1h2-1v-2h1v1h1l1 1h1l-1-1v-1l1 1 3 1 2-1h1l-1-1h-1l-1-1h1l1 1v-1h1l1-1 1 1h3l2 1 2 1h-2l-1 1-5-1 2 1-1 1h5l-4 1h-2v-1h-1 1v1h2l2-1v1l-3 1-2 1 1 2h1l-1-1 1-1 1-1h1l1-1 3-1h5l3-1h7-6v1l-4 1h-4l-2 1h-1l2 1 2-1 1 1 2-1v1h4v-1h1-1v-1h1l3 1h2l2 1h1l1 1h1l1-1h-1l2-1v-1h1v2h1v-1h3v1h-1v1l1-1 2 1v1l-1 1h-1l-3-1h1-2v1l2 1h-1l-2-1h1-3v2h-1 1v1l-1 1-1-1 1-1h-2l2-1h1l-1-1-3 1h-8v1h3l1-1 1 1h-4v1l2-1 1 1v1h1l-1 1h1v1h3v-1l1 1 1-1h1v1h3v-1l1-1h1l-1 1h1l1 1h4v-1h3l1-1h1l1 1v-1h2l2-1 2 1v-1h2l4-1 1-1h1v1h2v1l-1 2h1v-2h1l-1-1h1l-1-1h3l2 1h2l4-1 3-2h1l2-2 3-1 1-1h1v-2h2l1-1 4 1v2h-1 1l-1 1 2-1 1 1h-1l1 1h-4l-1 1h-3v1l-3 2h-2v1h-1l-1-1-3 1h-2l-4 1h-2v1l3 2h2l5 1h3l-1 1 2 1h1l2 1v-1l-2-1v-1h-1l-1-2-1-2h1l1 1h2v1h2l2 1h1l1-1 2 1h3l1 1h1l2-1h2v-2h1v-1l3 1 2-1h1l1-1 2-1 3 1v-2l-2-1-6-2-3-2h-8l-1-1 2-1 5-1h1l1-1v-3l-2-1-1-2h-1v-1l2-1 2 1v1l1-1 2 1h-2 1l4 1-1-1h1l2 1v-1h-3l1-1h1l-1-1-2-1v-2l3 1v-1h1l1 1v-1h1Zm-184 89v-1l1 1h-1Zm10-1v1h-1v-1h-2 2v-1l1 1Zm-56 11h1-1Zm-8-4Zm9 0v-1h1l-1 1Zm14-5h1-1Zm138 56h-1l1-1v1Zm-15-2h-2l1-1h1v1Zm21 0v-1h1l-1 1Zm-21-1h-1v-1h1v1Zm31 1v1h1l1-1h1v1l-1 1h-3l-2-1h1l1-1h1Zm1-1-1 1 1-1h1-1Zm6-5v2h-6 2l1-1h-1v-1h4Zm-10-11v1h1l1 1 1-1v1l-4 2h-1v1h1v1l3-1 1 1v1h2v1h1l-2 2-1 1h-3l-1 1-1-1h1v-1h-1l1-1h-5l-1-1 1-1h-1 2l1-1v-1h-1v-4l1-1h2l1-1 1 1Zm-23 15v-1h1l-1 1Zm4-31-1 1h-1v1h-1v1h-1l-1-1 5-3v1h-1 1Zm6-6v1h-1v1l-3 2h-1l1-1 1-1h1l1-1 1-1 1-1-1 1h1-1Zm5-83h-3 1v-1h2v1Zm4 0h-1v-1h1v1Zm8-3h1v1h1v1h-3 1-1l1-1h-1l-1-1h2Zm-8 1v1h-1l-1-1h3-1Zm7-1h-1l1-1v1Zm104 36h-1l1-1v1Zm-6-3h2l1 1h-1l-2 2-1-1v-1l1-1Zm5 0 1 1 1 1h-2l-1-1v-2l1 1Zm8-9h-1l1-1v1Zm22-11v1h-1v-1h1Zm-3-1 1 1-3-1h-1l1 1h-5 3l1-1h3Zm-39-7-2 1h-1l2-1h1Zm-77-11h-1l1-1v1Zm-7 3h-1l1 1h-1 1l-1 1h-2 1l-1-1h1-2l1-1h3Zm9-1h2l-1 1v1l1 1v1h-2l-4-1-1-1-1 1h-3v-1h1v-2h4l2-1h2v1Zm-24-4h2v1l5-1-1 1v1h-2 3v2l-1 1-1-1v1l-4 2h-3v-1h-1v-1h-2v-1l1-1 1-1-1-1h1v-1h3Zm15 0h1-4l-2 1 1 2-2 1h-1l1-1-1-1h1l-1-1h1v-1h3v-1h3v1Zm-23 9h1-1Zm2 0-1-1 1 1Zm0-8-1 1-1 1-1 1 1-2-1-1h3Zm-8 0h-2 2Zm-7 0h1l-3 1h-2v-1h4Zm12 0h-4 4v-1 1Zm-12-2-2 1v-1h2Zm9 0v1h-1l1-1h1-1Zm-43 0h-1 1Zm-7-1h-1v-1h1v1Zm10-1v1h-3l1-1 1-1 1 1Zm9-1 1 1 1 1-1-1-1-1Zm33 3 1-1-1 1Zm2-2v1h-2l2-1h-3 3Zm8 0h-2 2Zm-24-1h1-1v1h-2l1 1h-2v-1h-1v1h-2l-1-1 1 1h-1l-2-1-1 1-1 1-2-1h2l1-1h2l-1-1 2-1h1v1l2-1 4 1Zm-12 0v1h-2v1h-1l-1-1v-1h2l1-1 1 1Zm-10 0h-1v-1l1 1Zm8-1-2 1h-1l1-1h2Zm-55 0h-2v-1h2v1Zm101 3h1l-1 2-1-1h-7l-5 1h-3 1l3-1 3-1h9v-1 1Zm10-2h2l7 1h-4 1l-3 1h5l-6 1h-2l-4-1-1 1h-3v-1l-1-1h3v-1h6Zm-16 0 1 1h-2l-1-1h2Zm19-5h1-2 1Zm-23 4 1-1v1h-1Zm-24-4 1 1 1 1h-3v-1h-2 1-2l2-1h2Zm21-6-1 1v3l1 1h1v-3l1 1v1l-1 1 3 1 4 3 4 1h4l1 1h-5l-3-1-3-1-2-1-1 1h1l-1 1-2-1h-1v2l-1 1 1 1-2 1v-1h1v-1l-4-1-1-1-1 1v-1h2l2 1 1-1h1-4l-1-1h-1l-1-1h1l-2-1-1 1 1 1h-1v-1h-1l-3 1h-2l4 1 1 1h-1v1h-2l1-1h-1v-1l-3-1-1 1v-1h-1v-1h4l-1-1h2l3 1 1-1h-2v-1l1 1 1-1h3l1 1 1-1 3 1v-1l-1-1h-1l-1 1-2-1 1-1h-1l-1-1h1l-1-1h1-1l-1-1h1l1 1h2v1h3l-1-1h1-1v-2l1 1 1-1h1Zm-23 4v1h-3l1-1h2Zm-4 2h-2l1-1h1v1Zm-90-18h-1l1 1h1v-1l2 1-1 1h4v2l2 2h1v2l2 1 3 1h2l7 2h5l3-1h2l5-2h6l-1 1v1h6v1h-1l-2 2h-2v-1h-1l-1 1h2l4 1h4v2h-2v1l-1 2h-1 1l-4 2h-1l1 1h1-1l1 1-3-1 1 1-1 1h1l1 1h-1l-1-1-1 1-2-1v1h1l-3 1-1 1h-1v1h2l1 1 2 1-4-1-4 1-5-1-1 1-2-1h-2 1v-1l-1 1-1 1h-2v-1h1l-1-1h-1v1h-4l-1 1-3 2h-5l-3-1-1-1v-1l-2-1h-1l-4-1v-1h2l1 1h3l2 1 1-1-2-2-1-1v-2l4-1h2l3-1 1-1h1v-2h-2 1v-1h1v-1h1l1 1 4 1 4 4v1h1v1l1 1h-1 3v1h-3v1l1 1h1l1 1 1-1h6l-1-1-1-1v-1l1 1 2 1h1-1v-2l1-1v-1h1-2l2-1-1-1h-1l-2 1h-3v-1l3 1v-2h-1l-1 1-3-1-4-1h-2l-4-3h-1l-4-3v-1l-1-1v-1h-9l-4-3h-1l-3-3v-3h-1v-1h2l-1 1h1l3 1 2-1h-1v-1h1Zm71 5v1h1l1 1v1l2 1h2l1 1v2h4l-2 2h-3v-1h1l-1-1h-5 1v1l2-1 2 1h-1l-1 1v1l2 1h2l-1 1v1l-1 1v1l-5 1-1-2h-4l-3-1-5-4h-2l-3-2-1-1v-1h-1v-1l4-1h7l-1-1h1v-1h1v-1l2 1v1h2v-1h1v-1l2-1v1Zm8-3v1-1ZM66 167h1v-1l1 1v3l-1-1v1h-1l1-1h-4 1v-1h-1v-1l2-1h1v1Zm23 1h-1 1Zm-8-3h1v1h4l2-1h2v1l-3 1h-1l-1 1-2 1-1 1h-1l-1 1h-1l-1-1 3-1v1h1v-2h-1v-1h1v-1l-3 1-1-1v-1h3Zm-5 1 2 1v1l-2 1h-1v-1h-1v-2h2Zm-41 0 2 1h-1l-1-1h-1v-1l1 1Zm8-9h1v1l-3-1h1l1-1v1Zm-3-2v1l-1-1h1Zm8-2v1h-1l1-1Zm-5-9 1 1h1l-1 1h-1 1v1h1l2-1 3 2h1v-1h2v1l-1 1h1v1h-3l-2-1-3 1-1-1h-1l1 2 3 1v1h-1l-1-1-2-1-1-1-2-1h-2l-1 1h-2v2h2v1h1v1h-4l2 1h-2l1 1h-1v1h-1l1 1h5v2h-2v1h2l-1 1h-2v1h-2l-1-2-2-1-1-1v-1l1-1v-2l1-1-1-1-1-1h1v-1l-1-1-2-1v-1h-1l1-1h-1 3l1 2 4-1h4l1-1h1v-2l-1-1h3Zm-4 7h-2 2Zm9-8h-3v-1h2l1 1Zm1-5v1l1 1v1h-2v-1l-1-1h-1l1-1h2Zm63 35h-2l2-1v1Zm-7-8v1h-1l1-1Zm57-36 1 1 1 1h1v2l1 2v3h1v1h2v1h1v1h-2v1l-4 2h-1v-1l-1-1v-1l1-1v-2l1-1-1-1v-2h1l-1-1v-1l-2-1v-1h-1l1-1h1Zm-6-3h-2v-1l2 1Zm61 3h1v1l-1 1 4 3h-2l-4-1 1-1h-2l-3-2v-1h1l3 1v-1h2Zm-7-1h1-1Zm-3-3h1v1h-1v-1Zm0-2v1-1l-1-1 1 1Zm47 18h-1l1-1v1Zm-9-3 1 1h-2v-2l1 1Zm-8-4 1 1-1 1v1h-2l-3-1 1-1 1-1h3Zm43-31h-2l2-1v1Zm-74 13v1l1 1-1 1-1 1v1l-2-1h-1l-1-2h2v-1h2v-1h1Zm-5-13 3 1h-4v1h1l-1 1h-1l-2 1-1-1v-2l1 1 1-1h1v-1h2Zm22-1h-1 1Zm-33 0v1l-2-1 2-1v1Zm88-13h1l1-1h2v2h3l-1 1h2v1h-2v-1h-1l-8-3h2l1 1Zm-12-3v1h-2l1-1h1Zm24 0h-1 1Zm0-3h1-2 1Zm-152 38h4l1 1 2-1 3 1h2l1 1h1l1 1 1 1h-10l-1-1h-4l-2-1h-1v-2h2Zm-6 0v1h-1 2v1h-4v-2h3v-1 1Zm-10-2h3l1 1h2l-1 1h-4l-1-1-2-1 1-1 1 1Zm33-20h2l1 1 3 1 2 1h-1v1h-2l-2-1-1-1h-2v-1h-1v-1h1Zm-33-38h1-2l1-1v1Zm7-6h1v1h2-3l-1-1 1-1v1Zm43-4-1 1-1-1h1v-1l1 1Zm-41-9-2 1-7 2-4 1h-8l5-1h2l2-1 3-1h4l3-1h2Zm-12-5h-1 1Zm14-4 1 1v1h-4l-1 2h-6l-2 1-1-1h4l2-1v-1h1v-1h1v-1h3v-1l1 1h1Zm20-5-1 1h-4l1-1h-1 2l1-1h3l-1 1Zm-12-2h1l1 1h-1l-2-1h1Zm-4-2 3 2-3-1h-1v-1h1Zm-19-4h1v1l1 1h2v1l1 1h2v1h2v2h-3v-1h-2l-1-1-1-2h-1l-5-3 1-1 2 1v-1h1v1Zm107 56 3 1 1 1h1l1 1-1 1-3-1-6-2 1-1h3Zm-11-3 1 1h-1v-1Zm-6-1h-1 1Zm3-1v1h2l-4 1 1-1h-1v-1l1-1 1 1Zm-56-1 2 1v1h1l-1-1h2v1h3l1 1h2v2h-1v1h2v-1h3l-4 3-1 2-2 1h-3l-2-2v-1h1-1l1-2h-1l1-1h-2l-3-2v-1l1-1v-1h1Zm-3-1h-1 1Zm-2 0h-1v-1l1 1Zm-2-1v1h-2v-1h2Zm51 2h2-1l-2-1 1 1Zm-13-4 2 1h-1l-3-1h2Zm-4-14v1l2 1h1l-1-1v-1l1 1 1 1 1 1 2 1 1 2 3 1 5 2 2 2v1l1 1v1h-1l-2 1h1-1l1 1h-2 1l-1-1h-1l-1-1h2v-1l-1-1-3-1h-2l1 1h-4l-1-1h-1v-1h-1l-1-1-1-1-3-2h2-1 1l-1-1h1l-2-1h1v-1h1-1l1-1h1-1l-1-1v-1h1Zm-9 0 1 1v1h-1v-1h-1v-1h1Zm62 2h-1 1Zm98-3 2 1h1l2 1v1l3 1 1 1h1v1h-4 1-1l-1-1h-2l-1-1h-1l-1 1h-1l1-1h-1v-2h-1l-1-1-1-1h4Zm-6-5h1l1 1h1v1h-1l-4-1h-2v-1h1l2-1 1 1Zm-26-2h1l2 1h-1l-3-1h1Zm70 27 1 1 1-1v1l-2 1 1 1 1-1v2h3l-1-2h1v-1h2l2 1h4v1h1v-1l1 1h-1l1 1h-1v1h-1l-1 1h-1l-11-2-1-1v-1l-1-1 1-1h1Zm17 2 1 1h-2l1-2v1Zm-7-1h-1 1Zm-7-2-1 1v-1h1Zm1 0h-1 2-1Zm-15-17 2 1v3h2l1-1 1-1h1v2h-1l1 1v-1l3 1h3v1l3-1v1l2-1h1l1-1h4l1 1 1-1 4 1 1-2 2 1v1l2-1 1 1-1 1v1h-2v2h1l1-1v-1l1 1v1h-1v1h-1l1 1-2 1v1l3 1 6-1 3-1 1-1v-1h-2l-1-1 1 1 1-1h1v-1l-2-1h2l5 1h1v-1l-1-1 2 1 1-1h1l2 1h2l1 1-1 1 1 1v2h2v1h3l1 1-1 1v1l2-1v1h1v1l3 1v1h-1l-2 1v-1h-2l-1-1-2-1v-1h-1v-1l-1-1-1-1-1-1v1l1 1h-1l1 1h1v1l-2 1-1 1 2 1 2 1v1h1v1l-5-1h-6l-2 1-3-1h-11l-3-2v-4h-1v-1h-1l-2-2-3 1-3-1h-3l-3-2-2 1h-4l-1 1h-2v-2h-1v3h3-3l-1 2v-1h-1l1-1-1-1h1v-2h-1l-3 1v-1h-2l-1-1-1-1-4-1h-6l-2-1-1-1-1-1h-1 1v-1l1 1 1-1v-1l2-1 3 1v-1h7l1-1h1Zm-19 17h-1l1-1v1Zm16-20h-2 2Zm-29 8h1-2v-1l1 1Zm2-1 2 1h-2l-1-1h1Zm-2 0h1-3 2Zm6-1h2-2Zm-159-6h-1v1l-1-1h2Zm51-19 2 1h2l-1 1h-3v1l-2-1-1 1v-1l-4 1-1-1h-4 1l1-1h5l2-1h3Zm74 12h-1 1Zm-47-9 5 1h-5l-2-1h2ZM65 13v1l-2-1v-1h1l1 1Zm37-2v2h1l1 1h-2v-1h-1v-1h-1 1v-1h1ZM73 6v1h4l-1-1h2v1h-1v1h1v1h-1l1 1h1v1l2 1v1h1v2h3l1 1v1h2v1h-1 1-2l-1-1h-1l-1 1h-1v-1h-5v-1l-1-1h-4l-1 1h-1v-1l1-1h-3 1v-1h1l3-1v-1h1l-2-1h1l-2-1V8h-1V7h-1l1-1h3ZM42 3l4 1h1l1 1h3v1l1 1 1 1 2 1h2v1h3l2 1v1l1 1h-2l-1 1-3-1-1-1h-1l-1-1h-1V9h-4l-2-1V7h-2l-2-1V5h1l-1-1-1-1ZM32 1h1l1 1h1l-2 1-2-2h1ZM1 0l3 1v1L1 1 0 0h1Z"/></svg>