<svg xmlns="http://www.w3.org/2000/svg" viewBox="0 0 798 1175"><path d="M 315.61 109.99 314.84 106.29 318.89 102.47 317.11 98.77 318.89 97.58 319.44 93.76 324.94 90.65 330.44 91.37 332.77 93.76 332.16 99.96 337.66 100.68 342.33 95.67 355.04 95.67 360.54 92.56 359.93 86.35 363.15 83.25 366.32 82.65 366.87 78.83 370.04 75.73 373.43 74.77 375.54 72.62 377.04 68.32 379.31 70.83 382.48 70.11 384.81 67.72 386.25 63.3 390.92 63.3 398.97 68.32 402.47 68.32 407.08 73.34 412.86 73.34 414.3 77.64 416.08 78.83 416.63 82.65 421.85 86.35 422.41 90.05 429.07 90.65 431.41 93.16 434.85 93.16 436.02 95.67 435.74 97.58 432.57 100.68 427.91 100.68 422.41 103.78 420.13 106.29 419.52 109.99 415.47 111.18 413.19 113.69 411.75 117.98 408.52 116.19 407.97 119.89 406.69 120.84 403.92 123.59 405.08 134.8 407.97 136.11 408.25 137.9 407.97 144.69 406.25 146 406.8 149.7 405.08 151.01 405.91 152.8 409.14 152.2 409.69 148.51 411.41 147.2 410.86 143.5 414.91 137.3 413.19 134.8 414.02 132.89 418.69 132.89 420.96 130.5 423.3 132.89 427.91 128 430.24 130.5 432.57 128 438.35 128 445.29 122.99 447.57 125.5 449.9 125.5 452.23 122.99 454.51 125.5 458.01 125.5 462.62 120.49 465.78 121.2 466.39 124.9 469.56 128 473.06 125.5 474.22 128 474.22 132.89 472.72 137.3 465.23 138.49 465.78 142.31 464.06 143.5 463.51 147.2 461.78 149.22 464.95 152.8 467.28 147.91 469.56 150.29 473.06 150.29 477.67 145.41 480 147.91 482.28 147.91 484.61 145.41 486.94 147.91 491.27 148.51 495.05 152.8 505.44 155.3 509.77 158.4 510.38 164.59 513.27 168.29 512.38 170.19 509.21 170.79 508.88 177.58 509.77 181.98 504.27 187.58 498.49 187.58 491.55 182.58 488.05 182.58 483.44 177.58 482 181.98 480.28 183.18 480.28 186.99 483.17 188.18 483.72 194.37 488.05 194.96 490.11 197.22 495.88 200.56 497.6 204.25 500.83 204.96 506.6 209.84 515.88 209.84 520.49 204.96 523.93 204.96 530.87 209.84 534.37 209.84 538.98 214.84 544.76 214.84 549.42 219.83 562.14 219.83 564.47 222.33 567.91 222.33 572.52 227.21 579.19 230.3 579.8 233.99 582.69 237.79 582.96 247.06 581.8 249.56 574.86 249.56 562.14 242.07 558.64 242.07 551.7 237.2 523.1 237.79 523.93 244.57 521.65 249.56 521.93 253.84 523.1 256.33 528.59 259.42 534.37 259.42 538.09 263.7 544.76 269.28 551.42 272.37 556.03 277.36 557.81 283.54 560.08 286.03 565.3 287.22 571.41 294.1 577.19 294.1 589.91 301.46 593.35 301.46 598.01 306.45 601.18 307.04 602.35 310.72 600.29 311.43 598.01 308.94 587.57 306.45 574.86 298.97 559.81 298.97 552.86 294.1 549.42 294.1 546.2 297.19 546.81 300.87 545.09 303.36 552.59 307.04 556.36 311.43 565.3 314.51 571.08 321.87 571.69 325.55 579.24 331.95 579.8 335.51 587.3 339.18 586.41 340.96 579.47 343.45 577.19 345.94 572.52 345.94 570.25 348.43 567.91 348.43 565.58 345.94 560.08 345.94 554.31 346.53 554.31 350.33 557.2 352.7 555.47 354 555.2 360.64 554.01 359.57 556.03 363.84 554.03 368.22 554.92 377.46 553.9 378.16 553.92 378.17 553.64 378.34 553.14 378.68 553.14 382.31 554.92 383.62 553.37 385.59 553.47 385.87 553.14 389.77 556.03 390.96 554.03 395.34 554.92 402.08 550.59 402.68 541.59 397.11 538.7 388.59 535.81 387.29 535.2 378.64 532.32 377.46 531.76 373.79 526.54 370 524.26 344.16 525.98 342.86 526.54 339.18 530.59 337.88 531.09 334.8 532.93 333.02 532.32 329.34 534.09 328.04 534.37 321.28 532.93 312.02 530.04 308.23 529.43 302.06 527.15 299.68 525.98 294.7 524.26 293.39 523.65 289.71 520.76 288.52 520.21 284.84 514.99 278.55 514.38 274.87 511.49 273.68 508.6 265.01 499.94 258.83 499.38 255.14 497.05 252.65 492.72 251.94 485.78 244.57 482.28 244.57 477.67 239.57 474.22 239.57 469.56 234.7 466.39 235.29 466.39 241.48 471.61 247.66 472.17 251.34 491.27 267.5 491.83 271.18 497.05 274.87 497.6 278.55 502.83 282.35 503.44 286.03 505.16 287.22 506.88 293.39 508.55 294.58 509.21 298.38 514.38 302.06 515.88 308.94 515.88 316.29 518.15 333.61 516.15 336.69 515.54 340.37 513.82 341.67 514.38 345.35 512.66 346.53 512.38 353.41 513.27 357.67 509.21 360.16 507.43 354 499.94 345.35 499.38 341.67 486.05 330.53 485.5 326.85 478.83 321.28 475.33 321.28 469.28 314.51 466.39 313.21 466.12 306.45 464.67 299.68 457.12 291.02 456.56 287.22 452.23 286.62 447.57 281.64 444.12 281.64 439.46 276.77 436.02 276.77 433.68 274.27 420.96 274.27 419.52 270 414.3 263.7 413.75 260.02 406.53 252.29 412.41 259.42 380.48 239.57 365.43 239.57 364.6 240.29 364.6 243.97 366.6 247.06 379.31 249.56 388.31 255.14 406.8 272.37 410.25 277.36 410.86 281.04 413.75 282.35 414.3 286.03 423.3 286.62 429.3 290.78 436.02 291.61 442.68 297.19 450.79 307.04 452.23 316.29 451.9 325.55 431.41 326.14 428.8 330.53 417.8 341.67 417.8 345.35 424.46 348.43 428.18 344.16 433.68 340.96 446.46 340.96 453.4 345.94 459.17 345.94 466.12 350.92 469.56 350.92 480.83 361.35 481.44 365.14 484.33 368.81 484.89 374.97 487.78 378.64 488.39 382.31 491.27 383.62 493.55 387.29 490.39 390.37 485.78 390.37 484.33 394.75 474.22 400.19 459.17 400.19 454.51 395.34 446.46 395.34 444.12 397.82 441.79 397.82 433.68 392.85 431.41 392.85 430.52 394.75 439.51 400.19 454.51 402.68 460.34 407.65 464.95 407.65 467.28 410.13 480 410.13 482.28 407.65 485.78 410.13 488.11 407.65 492.72 407.65 495.05 405.16 499.66 410.13 507.77 410.13 510.93 413.21 509.21 416.88 512.1 418.18 512.66 424.33 515.54 425.51 516.15 431.66 517.88 432.96 516.15 435.33 516.99 444.67 514.99 447.74 515.54 453.89 512.38 456.96 506.88 457.55 506.32 463.69 504.55 466.17 509.77 472.32 511.49 478.46 516.15 483.42 520.49 484.01 529.43 492.04 525.37 496.88 526.26 506.08 523.93 511.04 525.37 517.76 527.15 519.06 527.15 522.72 525.37 525.2 528.26 526.38 528.26 532.51 524.26 536.28 524.82 539.94 523.93 540.53 520.49 538.05 515.88 538.05 513.54 535.57 507.77 535.57 502.27 530.03 500.49 526.38 490.66 522.72 479.67 509.15 476.78 507.97 473.89 499.36 458.29 490.74 447.29 479.64 444.4 478.46 443.85 474.8 441.51 472.32 437.18 471.73 430.52 466.17 428.18 463.69 429.96 460.03 427.07 456.25 426.46 452.58 424.74 451.4 425.3 442.77 423.58 441.47 421.85 432.96 420.13 431.66 418.35 423.03 416.08 420.54 402.47 422.43 400.14 424.92 393.2 424.92 388.87 421.84 388.31 418.18 383.09 411.91 382.48 408.24 379.59 404.57 379.59 398.41 383.26 396.99 380.26 397.94 381.37 397.11 380.76 390.96 382.48 389.77 382.81 385.51 380.2 366.32 378.48 365.14 377.87 361.35 374.98 357.67 374.43 354 371.54 352.7 370.93 349.02 365.71 345.35 365.15 341.67 362.82 339.18 356.21 333.61 341.16 331.12 335.66 334.2 330.44 340.37 327.28 340.96 314.5 333.61 311.06 333.61 304.12 328.63 300.62 328.63 291.73 320.68 291.12 316.89 288.23 315.7 288.23 307.04 289.96 305.85 288.29 296.83 275.18 296.6 260.47 288.52 258.13 286.03 257.52 282.35 254.63 281.04 254.08 272.37 251.19 271.18 245.97 265.01 241.64 264.41 234.97 258.83 241.36 251.34 238.47 246.47 238.47 242.66 241.64 242.07 244.8 238.98 244.25 227.8 245.97 226.61 247.69 212.93 249.47 211.74 248.58 204.96 250.58 201.87 251.75 194.37 249.86 190.68 250.02 188.18 251.75 186.99 250.91 182.58 251.19 178.29 255.24 173.29 250.91 172.69 247.69 169.6 247.69 165.9 249.47 163.4 246.58 162.09 246.25 160.31 246.58 158.4 250.58 157.21 247.69 151.01 251.75 149.7 250.02 146 254.08 142.31 252.36 126.09 254.36 122.99 252.36 118.7 256.41 114.88 258.13 108.67 263.63 105.57 276.35 108.08 281.85 104.98 283.29 100.68 287.9 100.68 296.01 108.08 300.34 108.67 300.67 115.59 299.78 122.39 302.95 122.99 309.89 117.98 318 117.98 319.44 122.39 324.67 126.09 325.22 129.79 329.55 130.5 332.77 133.6 332.77 137.3 331 138.49 331 142.31 333.88 146 335.66 152.2 337.38 153.39 335.66 157.21 337.38 158.4 339.1 164.59 341.99 168.29 340.27 172.1 349.27 182.58 351.93 179.84 352.43 175.79 349.55 174.48 351.27 172.1 351.27 168.29 348.38 164.59 347.77 160.9 346.05 159.59 344.32 148.51 341.44 144.69 341.16 137.9 339.72 131.1 337.94 129.79 337.38 126.09 334.5 124.9 336.22 122.39 336.22 118.7 327.28 113.09 323.5 115 316.83 113.09 315.61 109.99 Z M 771.57 50.87 774.73 53.98 773.84 55.89 770.68 56.49 771.57 58.28 775.01 58.28 777.34 60.79 779.67 60.79 781.95 58.28 787.73 58.28 792.39 63.3 795.56 63.9 797.28 70.11 799 71.43 799 75.13 795.83 78.23 788.89 78.23 782.84 85.04 779.67 85.76 775.01 90.65 772.73 88.26 770.4 88.26 768.07 90.65 759.96 90.65 748.68 82.65 750.74 78.23 749.85 73.93 751.57 72.62 749.85 70.11 749.3 63.9 746.41 62.7 747.24 60.79 750.41 60.2 748.68 57.69 748.68 53.98 762.01 52.79 761.12 50.87 757.96 50.28 757.96 46.57 758.85 45.85 768.07 45.85 771.57 50.87 Z M 525.47 99.77 526.04 99.13 526.54 104.98 531.76 108.67 532.32 112.49 539.87 121.2 541.59 127.4 543.31 128.6 543.92 132.29 546.81 133.6 547.37 137.3 550.25 141 550.25 149.7 548.53 152.2 556.03 158.4 557.81 164.59 561.86 163.4 563.58 169.6 565.3 170.79 565.91 174.48 568.8 175.79 570.25 187.58 569.91 194.37 564.47 199.96 549.42 199.96 536.98 184.49 535.81 173.29 537.54 172.1 538.7 158.4 536.98 157.21 536.37 151.01 531.2 144.69 529.43 138.49 524.26 134.8 523.65 131.1 521.32 128.6 518.43 127.4 517.88 121.2 512.38 113.09 512.1 108.79 507.77 108.08 504.55 104.98 506.32 101.28 501.1 99.96 502.83 96.26 501.1 95.07 499.38 88.86 497.6 87.55 499.38 83.85 491.83 77.64 493.55 73.93 490.66 70.11 490.11 66.41 487.22 65.21 487.22 61.51 488.94 59 486.05 55.18 485.5 44.06 482.61 40.24 481.44 34.02 483.17 32.82 483.72 29.12 485.5 27.8 486.94 23.49 499.38 34.02 499.94 37.84 507.43 41.55 505.44 45.85 508.93 53.38 506.88 57.69 508.6 59 509.21 62.7 512.1 63.9 512.66 67.72 515.54 71.43 516.15 80.14 517.32 82.65 524.82 91.37 524.82 95.07 523.1 97.58 525.98 98.77 525.47 99.77 Z M 704.72 107.38 707.64 106.29 711.09 112.49 707.03 113.69 706.48 117.38 697.81 126.09 698.65 130.5 698.37 134.8 696.65 136.11 695.2 140.4 692.87 137.9 684.76 137.9 682.43 135.39 680.15 137.9 672.04 132.89 665.1 132.89 659.33 128 656.99 128 654.72 125.5 648.89 125.5 646.61 122.99 645.44 125.5 645.72 129.79 646.89 132.29 651.5 137.3 655.83 137.9 659.6 142.31 668.6 147.91 672.93 148.51 673.49 152.2 676.65 155.3 682.43 152.8 692.87 162.81 697.48 162.81 701.81 172.1 697.81 175.79 698.37 179.48 696.65 180.79 696.31 183.06 696.04 186.99 688.26 190.08 683.6 194.96 673.21 194.96 670.88 192.46 666.27 192.46 653.83 184.49 651.5 181.98 650.94 178.29 643.39 172.1 645.16 168.29 640.83 167.69 639.67 170.19 641.11 181.98 644 185.68 644.55 189.37 657.88 205.55 659.6 209.24 665.1 212.34 677.82 214.84 680.43 219.12 683.6 219.83 686.82 222.93 687.93 225.42 687.93 229.11 683.93 232.8 683.32 236.48 681.6 238.98 684.48 240.29 682.76 242.66 682.76 246.47 690.26 247.66 690.26 253.84 684.76 256.93 676.65 256.93 674.38 254.43 672.04 256.93 669.71 256.93 667.43 254.43 659.33 254.43 656.16 251.34 655.55 247.66 644.55 238.98 644 235.29 638.78 233.99 638.5 224.71 637.06 220.43 624.89 209.24 623.17 203.06 619.12 203.06 619.12 211.74 622.01 215.43 622.56 219.12 625.45 220.43 626.06 224.11 627.78 225.42 629.23 232.2 629.5 238.98 635.89 250.15 636.45 256.33 639.33 260.02 637.61 262.51 637.06 268.69 631.56 269.28 627.23 266.2 624.34 257.52 621.45 256.33 620.84 252.65 615.62 248.85 612.73 240.29 609.84 238.98 609.29 232.8 606.4 231.61 603.51 222.93 600.62 221.62 600.01 217.93 594.79 211.74 594.24 205.55 591.35 201.87 589.63 190.68 587.85 189.37 587.85 185.68 604.96 185.08 607.23 182.58 611.57 181.98 610.45 170.79 609.29 168.29 606.9 167.69 605.23 168.29 603.79 172.69 601.46 170.19 599.18 172.69 594.52 172.69 586.41 167.69 580.63 167.69 577.47 164.59 576.86 160.9 573.41 155.9 569.36 152.2 568.19 149.7 567.64 143.5 564.75 139.8 566.75 135.39 563.58 129.79 562.97 123.59 561.25 122.39 559.53 116.19 555.47 114.88 554.31 112.49 553.75 106.29 548.53 102.47 546.81 86.35 545.09 85.04 545.64 81.34 543.92 80.14 542.76 72.62 540.42 70.11 542.15 67.72 542.76 63.9 544.48 62.7 542.48 45.85 542.76 41.55 544.48 40.24 545.92 35.93 548.25 35.93 550.53 33.42 555.2 33.42 556.64 37.84 563.3 38.44 564.75 42.75 567.64 44.06 568.19 47.77 569.91 48.96 568.19 52.79 571.41 58.28 567.03 65.21 572.25 68.92 572.86 72.62 575.74 73.93 576.3 80.14 578.02 81.34 576.3 85.04 581.52 88.86 582.08 92.56 584.96 93.76 585.57 97.58 590.74 101.28 591.35 104.98 593.68 107.48 596.57 108.67 594.79 112.49 596.57 113.69 598.01 120.49 598.29 127.4 601.18 131.1 602.35 138.49 600.62 142.31 604.46 144.93 604.96 140.4 604.07 136.11 605.79 134.8 606.12 125.5 605.79 123.59 602.9 121.2 604.96 117.98 603.79 105.57 605.79 101.28 602.9 99.96 602.35 93.76 599.46 90.05 598.85 86.35 593.68 82.65 593.07 78.83 591.35 77.64 592.24 70.83 590.18 67.72 591.91 65.21 592.52 61.51 594.24 60.2 593.07 53.98 591.35 51.47 599.13 43.34 601.46 47.29 602.22 47.6 601.51 45.85 606.07 40.95 610.73 40.95 613.01 43.34 617.4 44.06 615.62 46.57 615.06 52.79 613.34 55.18 617.95 67.72 619.67 68.92 617.95 72.62 623.17 76.44 623.73 80.14 626.89 83.25 633.01 82.63 633.89 80.74 632.39 71.43 627.23 67.72 627.23 61.51 628.95 59 625.78 53.38 627.78 50.28 628.39 46.57 631.28 42.75 631.28 36.53 615.06 21.58 610.73 20.98 604.07 15.36 604.07 9.14 608.12 5.43 609.57 1 614.18 1 616.51 3.51 618.84 3.51 621.12 1 629.23 1 631.56 3.51 635.89 4.11 638.22 6.62 638.78 10.33 641.67 11.65 641.67 15.36 639.94 17.87 644 19.07 645.72 25.29 650.94 29.12 651.5 35.33 653.22 37.84 651.5 39.04 652.38 45.85 650.33 50.28 653.22 51.47 653.83 57.69 659.05 61.51 659.6 65.21 667.1 71.43 667.71 75.13 670.6 76.44 672.04 88.26 670.04 91.37 670.04 97.58 674.38 100.68 681.32 100.68 682.15 99.96 682.76 93.76 684.48 92.56 685.93 88.26 688.26 90.65 693.76 91.37 695.48 95.07 699.53 98.77 701.26 104.98 706.92 105.69 704.72 107.38 Z M 661.94 206.74 662.77 204.96 663.66 205.55 663.66 206.74 661.94 206.74 Z M 670.04 199.37 667.71 195.68 670.88 194.96 672.93 198.06 672.04 199.96 670.04 199.37 Z M 753.02 105.57 756.51 105.57 760.85 108.67 761.4 112.49 764.62 115.59 773.56 116.19 774.18 119.89 777.06 121.2 778.17 131.1 776.45 133.6 778.17 136.11 777.34 137.9 762.29 137.9 759.96 135.39 757.68 137.9 754.18 137.9 751.91 135.39 746.41 141 747.24 142.9 751.57 143.5 762.01 153.39 759.13 158.4 758.51 169.6 756.79 170.79 757.68 175.2 757.35 179.48 755.07 181.98 749.57 185.08 734.52 185.08 727.58 192.46 722.97 192.46 719.75 189.37 720.36 185.68 716.31 184.49 716.31 180.79 720.36 176.98 717.47 174.48 719.19 172.1 719.19 168.29 716.31 164.59 715.7 160.9 713.97 159.59 712.25 153.39 709.09 150.29 705.87 149.7 704.76 147.2 704.76 143.5 705.59 142.9 707.92 142.9 724.14 132.89 729.91 132.89 733.08 129.79 732.52 123.59 738.85 117.38 739.47 113.69 743.46 112.49 742.91 106.29 747.24 105.57 749.57 103.07 753.02 105.57 Z M 676.65 152.8 675.82 151.01 677.54 151.01 677.54 152.2 676.65 152.8 Z M 628.39 80.14 628.39 78.83 630.11 78.83 630.11 80.14 628.39 80.14 Z M 568.02 687.48 564.75 688.18 564.14 691.82 562.42 694.29 566.75 694.87 573.41 700.39 573.69 704.73 571.69 707.78 572.25 713.89 563.58 722.45 563.3 724.33 563.58 726.09 566.47 727.38 567.03 731.01 568.8 732.18 568.8 735.82 567.03 738.28 569.91 739.57 569.91 748.13 565.91 749.3 559.53 757.86 555.2 758.44 549.7 752.94 549.09 749.3 543.92 748.13 543.31 744.38 541.59 743.21 542.15 739.57 538.98 736.52 535.81 735.82 531.76 729.72 524.26 723.62 525.98 721.16 525.98 717.52 520.76 713.89 520.21 710.25 514.99 708.96 516.71 706.49 516.99 699.8 515.54 695.58 513.82 694.29 512.66 685.72 514.38 683.37 512.66 682.08 511.99 675.85 506.88 674.79 506.32 668.69 495.05 660.7 486.05 661.28 487.78 663.75 486.94 667.98 488.94 671.04 488.05 672.92 482.61 672.33 482 668.69 475.33 663.16 464.95 663.16 452.51 671.04 453.06 677.14 449.9 680.31 445.57 677.14 447.29 673.5 443.24 672.33 442.68 668.69 437.46 664.93 436.9 661.28 434.02 657.64 434.02 654 438.01 649.06 432.85 642.95 432.24 639.3 429.35 638.01 428.18 626.96 430.24 623.9 427.07 618.37 426.74 609.19 425.63 603.07 425.3 600.01 417.8 593.89 417.19 590.24 414.3 588.95 413.75 585.3 412.02 584.12 413.75 580.47 412.58 578 408.52 576.7 407.36 570.58 410.58 567.51 414.02 567.51 425.63 574.93 429.07 572.46 433.68 572.46 443.35 579.29 446.46 577.41 449.62 578 450.18 581.65 453.06 582.83 454.51 587.18 456.84 587.18 459.17 584.71 467.28 584.71 474.17 589.65 476.5 587.18 478.83 589.65 486.94 589.65 488.39 593.89 491.27 595.19 496.99 602.37 499.94 606.13 503.99 607.43 507.43 612.25 508.88 616.61 511.21 614.14 513.54 616.61 519.32 616.61 528.26 622.14 532.04 626.37 535.54 626.37 537.81 628.84 550.59 628.84 551.42 629.43 552.03 635.54 557.2 639.3 557.81 647.77 560.69 649.06 563.58 657.64 570.25 663.16 573.69 663.16 583.8 668.69 582.69 674.79 578.63 675.97 578.02 679.61 573.97 680.9 568.02 687.48 Z M 405.08 566.92 405.08 565.75 406.8 565.75 406.8 566.92 405.08 566.92 Z M 401.58 564.45 402.47 562.57 404.47 563.27 403.64 565.04 401.58 564.45 Z M 515.88 816.99 521.32 817.57 519.6 821.32 522.49 822.49 523.1 828.57 524.82 829.85 523.1 833.48 525.98 834.65 525.98 840.73 522.82 838.98 520.49 841.31 518.15 838.98 511.49 838.27 510.93 832.19 508.05 828.57 508.05 820.03 509.77 818.86 509.21 815.23 510.05 814.53 513.54 814.53 515.88 816.99 Z M 463.78 719.4 466.12 719.4 468.39 721.86 470.73 719.4 476.5 719.4 482 722.45 482.61 726.09 486.94 726.67 490.11 729.72 491.27 735.82 489.55 738.28 491.27 739.57 491.83 745.67 494.72 746.84 495.33 755.4 498.22 756.69 498.22 760.32 492.72 763.37 485.78 763.37 483.44 765.83 481.17 763.37 476.78 762.78 476.22 759.03 460.62 745.67 460.01 742.03 457.12 740.74 461.45 731.6 461.17 729.72 458.29 727.38 460.01 726.09 460.62 717.52 463.78 719.4 Z M 417.8 507.97 417.8 506.79 419.52 506.79 418.69 508.56 417.8 507.97 Z M 420.13 501.83 420.96 501.24 421.85 503.01 420.13 503.01 420.13 501.83 Z M 397.53 477.28 398.14 480.94 403.3 484.6 405.64 488.26 402.47 491.33 400.14 491.33 398.69 487.08 389.75 481.53 385.42 480.94 387.14 477.28 383.98 476.57 383.09 474.8 393.2 474.09 397.53 477.28 Z M 437.46 507.97 439.51 511.04 442.68 511.63 440.96 515.29 445.29 515.99 448.46 519.06 449.01 525.2 451.9 526.38 452.51 532.51 455.4 533.8 455.95 539.94 457.73 541.12 458.84 544.77 455.68 547.83 449.01 547.25 448.46 543.59 440.96 537.46 440.35 531.33 435.13 530.03 434.57 526.38 424.74 517.76 420.96 511.04 421.24 509.15 425.3 507.97 422.41 505.49 423.3 503.6 433.68 503.6 437.46 507.97 Z M 567.03 451.4 567.64 453.89 565.58 456.96 565.91 463.69 571.08 464.87 571.69 471.02 576.86 472.32 579.19 474.8 580.91 480.94 584.96 484.6 586.41 491.33 584.41 495.7 587.85 500.54 591.91 501.83 592.52 505.49 595.4 506.79 596.57 520.24 593.35 520.83 589.63 525.2 584.13 528.26 579.8 525.2 579.8 521.54 581.52 519.06 578.63 515.29 578.02 509.15 572.86 505.49 572.25 501.83 564.75 495.7 564.14 492.04 561.25 490.74 560.08 479.64 561.86 477.28 559.81 474.09 561.86 471.02 561.25 464.87 562.97 463.69 562.97 457.55 557.81 453.89 557.2 450.1 554.31 448.92 554.03 447.03 555.2 444.67 560.97 444.67 567.03 451.4 Z M 438.46 1049.29 434.02 1043.59 437.18 1043.01 440.35 1039.99 439.46 1028.47 439.79 1026.61 443.85 1025.45 440.96 1023.01 440.62 1021.15 442.68 1016.96 436.02 1016.38 434.57 1012.07 427.07 1008.46 424.74 1006.02 426.46 1003.58 424.74 999.97 426.46 997.52 420.96 994.5 425.63 994.15 419.8 994.5 415.47 991.47 414.91 980.52 412.02 978.43 413.75 975.75 403.92 972.02 403.3 968.41 399.31 967.24 397.53 961.19 393.47 959.9 394.36 958.16 397.53 957.46 396.97 951.4 398.69 948.95 396.97 947.78 396.36 944.17 391.2 942.89 385.42 935.66 385.42 932.04 388.59 928.89 391.75 928.31 391.75 924.69 388.87 923.53 388.31 919.8 385.98 917.46 383.09 916.18 382.48 912.56 380.76 911.28 379.59 905.21 386.25 904.63 387.14 904.04 386.53 900.42 390.59 899.14 391.2 895.52 393.2 892.49 392.92 890.62 390.03 889.45 390.03 885.83 402.47 882.79 404.75 880.34 415.19 880.34 416.08 879.76 415.47 876.02 416.36 875.44 420.69 876.02 422.13 880.34 424.46 875.44 427.63 878.47 428.18 882.09 434.85 882.79 438.01 885.83 439.18 889.45 433.68 894.94 429.07 894.94 424.46 899.84 421.24 900.42 420.69 904.04 417.52 904.63 416.63 906.49 423.3 907.08 425.63 909.53 432.57 904.63 439.46 904.63 441.79 902.18 444.12 902.18 447.29 905.21 446.46 907.08 438.63 910.11 439.18 913.73 433.68 919.21 430.52 919.8 423.58 927.14 423.02 930.76 418.63 933.79 409.69 934.37 410.86 938.11 415.47 942.89 423.3 941.14 427.91 936.24 436.02 941.14 438.35 938.69 460.73 938.69 467.28 938.69 469.28 944.17 467.56 946.62 467.56 950.23 470.73 953.26 473.06 950.81 475.06 951.4 477.39 953.84 475.67 956.29 476.5 958.16 484.61 960.49 488.11 955.71 493.88 955.71 498.49 960.49 500.83 958.16 503.1 958.16 517.88 968.41 520.21 972.02 516.15 973.3 516.15 976.91 521.32 984.13 518.15 984.83 517.32 986.58 523.93 987.16 525.1 989.61 524.82 993.91 523.1 995.08 522.49 998.69 520.49 1001.71 510.05 1001.71 507.77 999.39 506.88 999.97 506.32 1006.02 500.83 1006.6 497.6 1003.58 497.05 999.97 495.33 999.97 494.72 1008.46 491.55 1009.05 490.66 1010.91 495.94 1012.19 497.33 1013.93 504.27 1013.93 505.71 1018.12 514.71 1023.59 523.65 1021.73 525.98 1024.17 526.54 1027.78 528.26 1029.06 527.43 1033.24 527.71 1037.55 529.43 1038.71 530.04 1042.31 532.93 1043.59 533.2 1045.45 532.04 1047.78 520.49 1047.78 518.15 1050.22 512.49 1043.59 513.77 1046.15 514.99 1054.52 522.49 1058.12 526.26 1062.3 534.37 1062.3 536.65 1064.74 543.59 1064.74 544.76 1067.18 544.48 1069.04 541.31 1069.62 533.2 1076.83 525.1 1076.83 524.26 1077.52 524.82 1081.12 518.82 1084.14 516.15 1084.72 515.54 1090.76 514.71 1091.34 499.66 1088.9 492.72 1084.14 483.72 1084.72 484.61 1086.58 488.94 1087.16 494.16 1093.2 497.05 1094.36 505.32 1105.04 505.71 1110.15 507.77 1113.16 510.93 1110.15 510.38 1106.55 512.66 1104.11 522.76 1098.66 536.37 1099.24 538.7 1101.67 538.98 1105.85 537.54 1114.9 535.81 1116.18 535.81 1119.78 538.98 1120.36 541.31 1118.04 550.25 1118.62 550.86 1122.21 553.75 1125.81 552.03 1129.4 554.03 1132.42 553.75 1136.71 550.86 1141.58 556.36 1146.91 560.69 1147.61 561.25 1153.64 563.58 1156.07 564.75 1160.82 566.47 1162.1 566.47 1165.69 562.42 1166.85 565.3 1170.56 561.25 1171.71 559.81 1176 547.09 1176 545.64 1171.71 541.59 1170.56 536.65 1163.84 519.32 1159.08 517.88 1154.8 510.38 1148.77 511.21 1142.16 509.21 1137.87 510.93 1135.55 505.71 1131.84 503.44 1129.4 502.83 1125.81 497.05 1121.05 487.28 1117.46 486.61 1113.74 482.61 1112.58 476.22 1104.11 471 1102.83 471 1099.24 472.72 1096.8 470.45 1094.36 461.45 1093.78 460.01 1089.6 450.18 1081.12 451.9 1078.68 449.01 1076.25 450.79 1073.81 450.79 1067.77 447.9 1066.6 447.29 1063 439.79 1056.84 438.46 1049.29 Z M 542.48 894.94 545.92 894.94 549.09 899.14 547.37 900.42 545.92 904.63 538.98 902.18 535.81 899.14 538.7 896.69 540.15 892.49 542.48 894.94 Z M 150.5 379.95 151.39 378.05 154.56 378.64 153.72 380.54 150.5 379.95 Z M 248.8 441.36 247.69 439.11 241.64 434.73 237.31 434.14 236.7 427.99 230.09 422.43 224.31 422.43 217.37 417.47 215.04 419.95 212.7 417.47 206.93 417.47 201.99 410.72 196.54 407.65 188.43 407.65 186.1 405.16 180.33 405.16 177.99 402.68 173.38 402.68 167.61 397.82 164.39 397.11 166.16 393.44 161.83 392.85 156.33 387.29 155.17 384.8 155.17 381.13 167.61 373.08 169.89 373.08 180.33 380.54 186.1 378.05 188.43 380.54 198.82 380.54 201.15 383.02 204.32 378.64 199.99 378.05 195.38 373.08 189.6 373.08 187.27 370.71 179.16 370.71 174.55 365.73 164.11 365.73 156 358.27 147.06 357.67 138.95 347.84 137.23 341.67 133.18 340.37 132.57 336.69 129.68 335.51 123.9 328.04 123.9 321.87 125.62 319.38 124.51 312.02 122.74 310.72 123.35 307.04 121.62 305.85 121.62 299.68 129.4 298.97 131.73 296.6 144.45 296.6 147.62 299.68 148.23 303.36 152.56 303.95 159.22 309.53 160.67 313.8 173.38 313.8 175.72 318.79 183.77 318.79 186.99 315.7 186.38 313.09 186.38 307.04 188.43 303.95 187.55 299.68 190.71 296.6 203.49 294.1 205.76 291.61 217.37 291.61 219.65 289.12 221.98 291.61 225.42 291.61 228.64 288.52 225.76 286.03 228.03 282.35 233.53 279.26 241.64 279.26 242.8 281.64 243.08 288.52 245.97 289.71 246.58 293.39 255.52 301.46 259.02 301.46 267.96 307.04 270.3 309.53 270.85 313.21 273.74 314.51 274.35 318.19 279.51 321.87 280.13 325.55 289.96 334.2 296.29 342.86 302.95 343.45 305.28 345.94 315.67 345.94 318 348.43 326.11 348.43 333.05 353.41 336.49 353.41 339.72 356.49 341.44 370 344.32 371.3 344.32 377.46 340.27 383.62 340.83 387.29 336.83 390.96 336.49 395.34 337.38 399.6 335.66 400.9 335.05 407.05 332.77 409.54 327.28 412.62 318 412.62 315.67 414.98 311.06 414.98 307.62 417.47 305.28 414.98 300.62 414.98 296.29 411.91 295.73 405.75 294.84 405.16 291.68 408.24 290.23 412.62 280.96 412.62 280.13 414.39 283.29 414.98 289.07 419.95 293.73 419.95 298.06 423.03 298.06 429.18 292.57 432.25 290.23 432.25 287.9 429.77 283.29 434.73 276.35 437.22 269.41 442.18 261.3 442.18 259.02 439.7 256.69 439.7 254.36 442.18 248.8 441.36 Z M 138.67 373.08 145.62 373.08 146.45 374.97 141.01 375.56 138.67 378.05 136.34 375.56 132.01 374.97 135.18 370.71 138.67 373.08 Z M 13.72 350.92 11.39 348.43 9.11 353.41 2.17 353.41 1 350.92 1.28 349.02 6.78 345.94 16.88 346.53 13.72 350.92 Z M 58.81 331.12 66.92 338.59 71.25 339.18 79.97 350.33 83.14 350.92 87.47 355.19 84.3 358.27 81.97 358.27 79.64 355.78 73.86 355.78 71.59 358.27 64.64 353.41 58.81 353.41 56.54 350.92 54.2 353.41 31.05 353.41 24.1 348.43 20.66 348.43 17.49 345.35 17.16 343.45 18.33 340.96 29.93 336.1 32.21 333.61 39.15 333.61 41.49 331.12 47.26 333.61 50.76 328.63 58.81 331.12 Z" fill-rule="evenodd" transform="translate(-1,-1) "/></svg>