<svg xmlns="http://www.w3.org/2000/svg" viewBox="0 0 24.27001953125 54.37998962402344"><path d="M 449.75 201.16 449.71 201.17 449.69 201.15 449.68 201.12 449.7 201.1 449.71 201.1 449.73 201.09 449.78 201.07 449.83 201.06 449.85 201.05 449.87 201.05 449.9 201.05 449.9 201.06 449.89 201.09 449.75 201.16 Z M 453.02 200.69 453 200.71 452.97 200.71 452.97 200.72 452.97 200.73 452.95 200.74 452.91 200.74 452.88 200.71 452.87 200.72 452.86 200.71 452.88 200.67 452.91 200.63 452.96 200.61 453.01 200.62 453.03 200.64 453.02 200.65 453.02 200.69 Z M 450.72 200.46 450.7 200.48 450.67 200.46 450.65 200.38 450.66 200.32 450.72 200.31 450.73 200.29 450.71 200.28 450.68 200.28 450.66 200.26 450.68 200.23 450.73 200.21 450.8 200.2 450.82 200.22 450.81 200.25 450.8 200.29 450.79 200.32 450.78 200.34 450.76 200.34 450.75 200.36 450.73 200.42 450.72 200.46 Z M 449.76 200.21 449.76 200.38 449.76 200.45 449.75 200.52 449.73 200.52 449.71 200.48 449.67 200.46 449.64 200.48 449.63 200.53 449.62 200.54 449.59 200.49 449.56 200.41 449.55 200.36 449.54 200.3 449.54 200.23 449.55 200.17 449.59 200.15 449.61 200.18 449.62 200.23 449.63 200.28 449.67 200.27 449.66 200.17 449.68 200.13 449.72 200.14 449.76 200.21 Z M 450.9 200.08 450.89 200.11 450.87 200.13 450.84 200.13 450.83 200.13 450.84 200.11 450.82 200.11 450.8 200.13 450.76 200.15 450.7 200.14 450.68 200.15 450.64 200.14 450.64 200.13 450.67 200.1 450.68 200.06 450.7 200.02 450.72 200 450.74 199.98 450.8 199.95 450.85 199.95 450.87 199.98 450.89 200.01 450.9 200.04 450.9 200.08 Z M 448.74 200.01 448.7 200.01 448.64 200 448.63 199.99 448.61 199.95 448.62 199.92 448.66 199.9 448.68 199.89 448.72 199.93 448.75 199.93 448.77 199.94 448.79 199.96 448.78 199.99 448.74 200.01 Z M 447.96 199.89 447.91 199.93 447.95 199.94 447.96 199.96 447.96 199.99 447.94 200.03 447.91 200.05 447.88 200.05 447.82 200.03 447.8 200.03 447.73 200.06 447.71 200.07 447.69 200.07 447.67 200.05 447.64 200.02 447.62 200 447.66 199.97 447.7 199.96 447.79 199.97 447.77 199.91 447.73 199.9 447.65 199.91 447.72 199.8 447.82 199.75 447.91 199.76 448 199.81 447.99 199.86 447.96 199.89 Z M 448.52 199.69 448.52 199.72 448.49 199.72 448.47 199.72 448.45 199.73 448.43 199.75 448.44 199.76 448.47 199.81 448.3 199.81 448.38 199.84 448.36 199.86 448.34 199.87 448.32 199.88 448.33 199.89 448.34 199.91 448.29 199.96 448.22 200 448.15 200 448.09 199.97 448.11 199.94 448.12 199.93 448.11 199.88 448.14 199.85 448.15 199.84 448.15 199.81 448.11 199.79 448.12 199.74 448.15 199.69 448.2 199.66 448.32 199.63 448.44 199.63 448.52 199.69 Z M 449.48 199.85 449.43 199.85 449.41 199.84 449.41 199.83 449.41 199.81 449.41 199.78 449.42 199.75 449.43 199.74 449.43 199.73 449.43 199.7 449.44 199.67 449.46 199.65 449.6 199.6 449.62 199.64 449.58 199.72 449.53 199.76 449.48 199.78 449.47 199.8 449.51 199.82 449.51 199.85 449.48 199.85 Z M 447.42 199.66 447.55 199.66 447.55 199.69 447.46 199.69 447.42 199.71 447.41 199.78 447.39 199.78 447.38 199.75 447.34 199.73 447.27 199.72 447.24 199.71 447.22 199.68 447.19 199.66 447.15 199.66 447.18 199.6 447.23 199.58 447.33 199.57 447.37 199.63 447.42 199.66 Z M 448.79 199.9 448.72 199.91 448.66 199.84 448.62 199.72 448.66 199.7 448.76 199.66 448.83 199.59 448.86 199.57 448.9 199.57 448.93 199.63 448.79 199.75 448.81 199.76 448.84 199.8 448.85 199.81 448.79 199.9 Z M 457.31 199.62 457.27 199.64 457.24 199.63 457.22 199.58 457.24 199.55 457.28 199.53 457.36 199.54 457.33 199.6 457.31 199.62 Z M 449.36 199.64 449.28 199.69 449.23 199.6 449.26 199.51 449.31 199.43 449.37 199.38 449.41 199.42 449.42 199.52 449.36 199.64 Z M 447.87 199.36 447.88 199.37 447.92 199.37 447.94 199.38 447.93 199.43 447.9 199.46 447.89 199.49 447.88 199.52 447.86 199.52 447.85 199.52 447.83 199.52 447.8 199.5 447.8 199.44 447.82 199.37 447.85 199.31 447.89 199.31 447.9 199.35 447.87 199.36 Z M 456.82 199.54 456.83 199.6 456.77 199.57 456.75 199.55 456.76 199.52 456.8 199.45 456.73 199.43 456.68 199.36 456.67 199.27 456.71 199.19 456.74 199.21 456.93 199.42 456.92 199.45 456.88 199.46 456.84 199.49 456.82 199.54 Z M 450.61 199.65 450.62 199.7 450.63 199.75 450.61 199.76 450.6 199.76 450.59 199.78 450.58 199.78 450.6 199.79 450.63 199.81 450.62 199.86 450.61 199.88 450.64 200.01 450.57 200.14 450.39 200.3 450.39 200.33 450.41 200.33 450.42 200.34 450.45 200.36 450.43 200.39 450.4 200.47 450.38 200.48 450.33 200.48 450.31 200.48 450.28 200.52 450.25 200.43 450.22 200.36 450.2 200.41 450.13 200.5 450.12 200.51 450.11 200.52 450.11 200.57 450.1 200.57 450.1 200.51 450.09 200.47 450.08 200.46 450.05 200.48 450.04 200.43 450.05 200.4 450.07 200.36 450.08 200.3 450.06 200.33 449.98 200.41 449.94 200.47 449.84 200.5 449.81 200.52 449.81 200.4 449.81 200.35 449.82 200.3 449.81 200.24 449.82 200.19 449.82 200.14 449.82 200.1 449.79 200.07 449.73 200.04 449.7 200 449.75 199.98 449.83 199.92 449.88 199.91 450.1 199.91 450.1 199.88 449.69 199.84 449.71 199.75 449.73 199.62 449.76 199.52 449.82 199.51 449.78 199.62 449.77 199.67 449.8 199.69 450.02 199.65 450.1 199.59 450.14 199.57 450.57 199.5 450.64 199.43 450.69 199.33 450.74 199.24 450.81 199.19 450.89 199.2 450.87 199.3 450.83 199.36 450.78 199.41 450.73 199.46 450.71 199.5 450.7 199.55 450.69 199.59 450.63 199.61 450.61 199.65 Z M 448.73 199.24 448.72 199.24 448.71 199.24 448.72 199.22 448.76 199.19 448.79 199.18 448.78 199.21 448.76 199.23 448.73 199.24 Z M 448.68 199.12 448.71 199.13 448.71 199.16 448.67 199.26 448.64 199.27 448.6 199.27 448.57 199.26 448.54 199.22 448.51 199.22 448.49 199.15 448.5 199.13 448.53 199.13 448.56 199.13 448.6 199.12 448.68 199.12 Z M 449.52 199.23 449.51 199.29 449.5 199.31 449.46 199.33 449.44 199.32 449.43 199.3 449.41 199.29 449.39 199.31 449.38 199.32 449.36 199.35 449.35 199.36 449.24 199.38 449.21 199.38 449.25 199.33 449.22 199.28 449.17 199.26 449.11 199.25 449.08 199.27 449.17 199.27 449.13 199.35 449.07 199.34 449.01 199.3 448.96 199.31 448.94 199.31 448.94 199.25 448.95 199.17 449 199.11 449.06 199.1 449.32 199.12 449.48 199.19 449.52 199.23 Z M 449.72 199.02 449.75 199.02 449.78 199.02 449.81 199.03 449.82 199.08 449.77 199.13 449.71 199.18 449.64 199.2 449.58 199.2 449.6 199.18 449.61 199.15 449.63 199.08 449.59 199.11 449.54 199.11 449.46 199.08 449.5 199.01 449.54 198.96 449.6 198.93 449.65 198.93 449.66 198.94 449.66 198.96 449.65 198.98 449.66 198.99 449.72 199.02 Z M 449.21 198.98 449.19 198.99 449.14 198.98 449.12 198.94 449.11 198.91 449.13 198.9 449.33 198.84 449.4 198.84 449.43 198.87 449.41 198.91 449.21 198.98 Z M 449.23 198.83 449.02 198.94 449 198.93 449.04 198.85 449.07 198.82 449.09 198.81 449.22 198.8 449.23 198.83 Z M 447.33 198.86 447.34 198.91 447.34 198.94 447.33 198.94 447.32 198.93 447.3 198.94 447.29 198.92 447.29 198.89 447.28 198.88 447.27 198.87 447.22 198.89 447.2 198.86 447.21 198.83 447.22 198.8 447.23 198.77 447.26 198.76 447.3 198.8 447.33 198.86 Z M 458.85 198.82 458.83 198.82 458.8 198.79 458.76 198.71 458.77 198.67 458.88 198.65 458.91 198.63 458.92 198.6 458.92 198.57 458.93 198.54 458.95 198.52 458.97 198.52 459.06 198.58 459.08 198.6 459.07 198.63 459.04 198.66 458.9 198.7 458.87 198.74 458.85 198.82 Z M 448.66 198.72 448.66 198.74 448.59 198.72 448.56 198.72 448.53 198.74 448.56 198.77 448.63 198.8 448.66 198.83 448.64 198.87 448.71 198.86 448.74 198.88 448.76 198.93 448.71 198.96 448.69 198.96 448.72 198.98 448.74 198.99 448.76 198.99 448.76 199.02 448.72 199.04 448.68 199.05 448.64 199.04 448.59 199.02 448.59 199.03 448.58 199.04 448.56 199.05 448.55 199.05 448.55 199.04 448.55 199 448.55 198.99 448.5 198.95 448.48 198.93 448.41 198.92 448.36 198.89 448.31 198.84 448.29 198.79 448.31 198.74 448.34 198.7 448.39 198.68 448.43 198.68 448.43 198.65 448.32 198.53 448.33 198.47 448.34 198.43 448.36 198.4 448.4 198.41 448.43 198.44 448.53 198.5 448.55 198.54 448.56 198.58 448.57 198.61 448.6 198.62 448.62 198.62 448.66 198.72 Z M 448.1 198.46 448.08 198.48 448.06 198.43 448.08 198.35 448.13 198.24 448.19 198.16 448.24 198.16 448.24 198.22 448.21 198.27 448.16 198.36 448.14 198.41 448.1 198.46 Z M 447.27 198.36 447.26 198.36 447.22 198.33 447.14 198.32 447.1 198.28 447.13 198.19 447.11 198.14 447.08 198.09 447.06 198.01 447.1 198.01 447.17 198.09 447.23 198.19 447.23 198.23 447.27 198.36 Z M 447.57 198.1 447.62 198.16 447.61 198.16 447.6 198.17 447.59 198.17 447.58 198.16 447.57 198.2 447.56 198.25 447.56 198.28 447.58 198.31 447.54 198.31 447.51 198.33 447.5 198.36 447.53 198.41 447.48 198.38 447.42 198.32 447.37 198.24 447.35 198.13 447.32 198.17 447.3 198.19 447.28 198.16 447.27 198.08 447.29 198.02 447.33 198 447.42 198.01 447.46 198.08 447.57 198.1 Z M 447.21 197.97 447.17 197.98 447.16 197.95 447.15 197.91 447.14 197.88 447.09 197.87 447.07 197.85 447.04 197.82 447.02 197.75 447.04 197.72 447.09 197.7 447.1 197.67 447.11 197.63 447.12 197.61 447.15 197.63 447.15 197.67 447.16 197.71 447.17 197.74 447.2 197.76 447.18 197.82 447.17 197.89 447.17 197.94 447.21 197.94 447.21 197.97 Z M 447.05 196.69 447.05 196.71 447.07 196.7 447.09 196.7 447.1 196.71 447.11 196.71 447.13 196.68 447.14 196.69 447.14 196.75 447.13 196.79 447.1 196.77 447.02 196.72 447.01 196.73 447 196.72 447 196.7 446.98 196.69 446.96 196.67 446.97 196.65 447.01 196.64 447.04 196.66 447.05 196.69 Z M 447.27 196.52 447.26 196.56 447.21 196.56 447.16 196.54 447.14 196.55 447.06 196.55 447.03 196.54 447 196.52 447.05 196.47 447.16 196.52 447.21 196.49 447.2 196.47 447.2 196.46 447.2 196.44 447.2 196.42 447.21 196.41 447.23 196.38 447.24 196.36 447.18 196.27 447.14 196.24 447.09 196.24 447.15 196.16 447.18 196.14 447.23 196.14 447.26 196.21 447.3 196.26 447.38 196.33 447.34 196.38 447.3 196.39 447.28 196.42 447.27 196.52 Z M 447.41 195.13 447.49 195.2 447.5 195.22 447.51 195.23 447.49 195.23 447.41 195.19 447.37 195.21 447.33 195.21 447.32 195.2 447.32 195.2 447.33 195.2 447.32 195.18 447.31 195.14 447.32 195.11 447.33 195.11 447.34 195.1 447.34 195.09 447.35 195.06 447.39 195.03 447.42 195.05 447.41 195.09 447.41 195.13 Z M 447.68 193.17 447.66 193.17 447.61 193.15 447.57 193.13 447.57 193.11 447.59 193.11 447.62 193.06 447.71 193.09 447.71 193.09 447.72 193.11 447.71 193.13 447.69 193.13 447.68 193.15 447.68 193.17 Z M 447.03 186.71 447.04 186.77 447.04 186.82 447.03 186.84 447.01 186.85 446.97 186.81 446.96 186.83 446.92 186.85 446.88 186.81 446.85 186.76 446.85 186.74 446.86 186.74 446.88 186.75 446.88 186.76 446.89 186.74 446.9 186.7 446.89 186.68 446.86 186.66 446.84 186.62 446.84 186.58 446.85 186.55 446.87 186.53 446.89 186.53 446.89 186.55 446.9 186.56 446.96 186.59 446.98 186.61 447.01 186.65 447.03 186.71 Z M 446.73 185.17 446.82 185.25 446.9 185.24 446.99 185.21 447.09 185.21 447.09 185.24 447.05 185.25 447.03 185.29 446.98 185.41 446.99 185.45 446.99 185.46 446.99 185.46 446.98 185.48 447.01 185.5 447.14 185.51 447.15 185.52 447.17 185.54 447.19 185.55 447.2 185.53 447.21 185.49 447.2 185.46 447.19 185.44 447.2 185.41 447.25 185.35 447.34 185.31 447.43 185.31 447.49 185.38 447.47 185.44 447.47 185.51 447.48 185.56 447.5 185.61 447.45 185.64 447.39 185.65 447.36 185.64 447.39 185.58 447.35 185.58 447.2 185.71 447.2 185.75 447.21 185.75 447.26 185.78 447.22 185.82 447.18 185.84 447.09 185.85 447.06 185.81 447.04 185.76 447.01 185.69 446.97 185.65 446.94 185.66 446.91 185.69 446.88 185.69 446.85 185.61 446.89 185.61 446.89 185.58 446.86 185.55 446.8 185.47 446.78 185.43 446.76 185.38 446.73 185.23 446.73 185.17 Z M 448.84 185.01 448.9 185.1 448.9 185.14 448.87 185.2 448.83 185.23 448.8 185.22 448.78 185.21 448.78 185.17 448.78 185.16 448.76 185.17 448.76 185.19 448.75 185.21 448.74 185.23 448.73 185.23 448.72 185.21 448.71 185.18 448.72 185.12 448.74 185.06 448.77 185.05 448.82 185.08 448.83 185.07 448.82 185.05 448.79 185.01 448.78 184.99 448.79 184.99 448.81 184.99 448.82 185 448.82 185.01 448.84 185.01 Z M 449.3 185.05 449.31 185.08 449.31 185.1 449.29 185.15 449.26 185.21 449.23 185.25 449.18 185.25 449.11 185.17 449.02 185.19 449.02 185.2 449.07 185.22 449.12 185.24 449.13 185.3 449.12 185.33 449.1 185.33 449.09 185.34 449.09 185.35 449.07 185.36 448.96 185.3 448.94 185.28 448.95 185.26 448.94 185.24 448.92 185.22 448.92 185.19 448.93 185.18 448.95 185.17 448.96 185.14 448.95 185.09 448.93 185.05 448.92 185.02 448.94 185.01 448.97 185 449.01 184.97 449.04 184.98 449.06 184.99 449.08 185.01 449.09 185.04 449.12 185.06 449.13 185.06 449.13 185.03 449.14 185.02 449.16 185.03 449.18 185.04 449.19 185.06 449.2 185.07 449.22 185.05 449.23 185.03 449.23 184.99 449.24 184.95 449.26 184.92 449.27 184.91 449.28 184.92 449.29 184.96 449.29 184.99 449.3 185.05 Z M 447.34 185.04 447.26 185.17 447.25 185.09 447.23 185.09 447.2 185.1 447.17 185.11 447.06 184.97 447.07 184.95 447.08 184.95 447.1 184.94 447.16 184.91 447.24 184.84 447.32 184.8 447.38 184.87 447.38 184.95 447.34 185.04 Z M 448.92 184.69 448.94 184.7 448.96 184.7 448.98 184.7 448.98 184.72 448.96 184.73 448.94 184.74 448.94 184.75 448.96 184.78 448.94 184.82 448.9 184.83 448.83 184.79 448.79 184.8 448.77 184.85 448.76 184.88 448.73 184.91 448.69 184.95 448.67 184.96 448.65 184.95 448.65 184.93 448.65 184.92 448.66 184.9 448.67 184.87 448.68 184.85 448.69 184.82 448.7 184.79 448.72 184.78 448.73 184.75 448.74 184.73 448.76 184.7 448.8 184.69 448.83 184.7 448.87 184.68 448.9 184.68 448.91 184.69 448.92 184.69 Z M 450.53 182.74 450.54 182.75 450.55 182.74 450.56 182.73 450.59 182.73 450.6 182.75 450.6 182.77 450.59 182.77 450.58 182.79 450.58 182.81 450.57 182.85 450.57 182.86 450.56 182.9 450.54 182.94 450.53 182.93 450.5 182.91 450.49 182.92 450.5 182.96 450.49 182.99 450.46 183 450.44 183.02 450.41 183.03 450.36 183 450.32 182.95 450.3 182.88 450.29 182.86 450.28 182.84 450.28 182.81 450.32 182.78 450.34 182.76 450.36 182.74 450.4 182.7 450.46 182.67 450.5 182.68 450.52 182.71 450.53 182.74 Z M 455.14 176.14 455.16 176.17 455.21 176.17 455.28 176.17 455.4 176.2 455.49 176.18 455.55 176.26 455.48 176.3 455.33 176.3 455.14 176.25 455.02 176.26 454.98 176.36 454.8 176.47 454.86 176.61 455 176.59 455.03 176.63 455.01 176.65 454.98 176.66 454.96 176.65 454.93 176.66 454.91 176.67 454.89 176.71 454.87 176.73 454.83 176.74 454.78 176.74 454.75 176.7 454.78 176.63 454.77 176.61 454.75 176.55 454.72 176.5 454.66 176.63 454.6 176.65 454.52 176.52 454.48 176.43 454.46 176.36 454.45 176.29 454.5 176.23 454.65 176.06 454.84 176.05 455.05 175.99 455.16 176.03 455.19 176.1 455.14 176.14 Z M 464.18 153.6 463.91 153.87 463.65 153.97 463.08 154.38 462.98 154.39 462.98 154.51 463.01 154.57 463.05 154.6 463.5 154.56 463.68 154.6 463.84 154.78 463.72 155.24 463.65 155.44 463.09 156.57 463.06 156.64 463.06 156.73 463.09 156.88 463.13 157.05 463.54 158.6 463.6 158.72 463.68 158.79 464.31 159.06 464.95 159.33 465.02 159.38 465.08 159.47 465.26 159.86 465.26 159.86 465.35 160.04 465.73 160.85 465.87 161.03 466.52 161.65 466.47 161.73 466.45 161.79 466.44 161.87 466.42 162.24 466.41 162.32 466.35 162.58 466.31 162.69 465.44 163.9 465.41 163.95 465.39 164.06 465.37 164.1 465.35 164.13 465.24 164.27 464.51 165.64 464.51 165.65 464.5 165.65 464.5 165.65 464.4 166.12 464.48 166.51 465 167.4 465.09 167.69 465.09 167.71 465.15 167.81 465.16 167.86 465.16 167.92 465.17 167.98 465.19 168.02 465.45 168.45 465.47 168.54 465.49 168.78 465.51 168.88 465.55 169.07 465.6 169.25 465.73 169.57 466.04 170.16 466.22 170.42 466.28 170.56 466.32 170.77 466.39 171.19 466.41 171.29 466.5 171.52 466.52 171.6 466.59 171.88 466.67 172.11 466.69 172.21 466.75 172.7 466.76 172.84 466.75 172.96 466.72 173 466.64 172.98 466.51 172.89 465.98 173.05 465.84 173.15 465.91 173.26 466.07 173.39 466.14 173.49 466.11 173.56 465.94 173.78 465.9 173.86 465.89 173.89 465.89 173.89 465.88 174.09 465.9 174.56 465.88 174.75 465.65 175.07 465.57 175.25 465.67 175.35 465.98 175.34 466.13 175.41 466.14 175.61 466.12 175.65 466.1 175.68 466.08 175.72 466.07 175.77 466.1 175.82 466.14 175.83 466.17 175.85 466.16 175.92 466.1 175.99 465.76 176.08 465.67 176.16 465.61 176.3 465.59 176.53 465.69 176.97 465.83 177.32 466.01 177.55 466.23 177.61 466.64 177.61 466.73 177.65 466.76 177.69 466.77 177.73 466.75 177.76 466.75 177.82 466.74 177.88 466.74 177.91 466.74 177.94 466.77 178 466.79 178.04 466.88 178.14 466.92 178.24 466.9 178.34 466.86 178.43 466.8 178.48 466.42 178.67 466.41 178.69 466.4 178.72 466.41 178.74 466.42 178.75 466.43 178.75 466.43 178.84 466.44 178.89 466.46 178.94 466.45 178.95 466.45 178.97 466.45 178.98 466.46 179 466.48 179.01 466.49 179.02 466.48 179.06 466.58 179.12 466.66 179.22 466.64 179.34 466.59 179.47 466.57 179.61 466.62 179.7 466.71 179.79 466.86 179.89 467.21 180.01 467.32 180.1 467.39 180.19 467.43 180.28 467.49 180.35 467.62 180.39 467.69 180.44 467.74 180.51 467.72 180.62 467.68 180.72 467.68 180.8 467.71 180.88 467.75 180.98 467.8 181.2 467.79 181.37 467.72 181.52 467.63 181.67 467.63 181.67 467.63 181.67 467.23 182.15 467.09 182.48 466.95 182.67 466.61 182.81 466.5 182.9 466.46 182.92 466.5 183.05 467.04 183.72 467.34 183.97 467.48 184.17 467.52 184.26 467.58 184.31 468.32 184.74 468.66 185.17 469.11 185.48 469.17 185.54 469.22 185.63 469.23 185.73 469.24 185.82 469.25 185.92 469.27 186.02 469.3 186.09 469.36 186.17 469.5 186.28 469.56 186.35 469.7 186.57 469.75 186.63 469.78 186.65 469.84 186.74 469.87 186.86 469.9 186.98 469.98 187.04 469.78 187.43 469.69 187.61 469.63 187.81 469.52 188.27 469.49 188.38 469.39 188.54 469.35 188.65 469.29 188.88 469.26 188.98 469.21 189.04 469.21 189.04 469.21 189.04 469.09 189.12 469.06 189.16 469.03 189.21 468.99 189.31 468.67 189.68 468.64 189.73 468.59 189.89 468.55 189.95 468.51 189.99 468.26 190.18 468.06 190.38 467.98 190.43 467.94 190.47 467.91 190.51 467.85 190.66 467.57 191.06 467.25 191.42 467.25 191.42 467.25 191.42 466.82 192.08 466.45 192.65 466.15 192.97 466.11 193.04 466.05 193.2 466.01 193.28 465.69 193.66 465.62 193.72 465.48 193.78 465.43 193.83 465.39 193.9 465.35 194.02 465.31 194.11 464.99 194.46 464.92 194.56 464.9 194.62 464.86 194.68 464.73 194.89 464.57 195.04 464.24 195.24 464.12 195.34 463.96 195.5 463.83 195.57 463.8 195.62 463.73 195.73 463.59 195.89 463.55 195.96 463.52 196.05 463.52 196.05 463.52 196.05 463.52 196.05 463.43 196.19 463.23 196.24 463.13 196.32 462.81 196.65 462.61 196.96 462.4 197.11 462.08 197.54 462.02 197.6 461.83 197.81 461.64 198.04 461.6 198 461.57 197.95 461.54 197.92 461.49 197.94 461.5 197.96 461.51 197.99 461.52 198.01 461.48 198.03 461.48 198.08 461.49 198.14 461.52 198.19 461.49 198.22 461.47 198.22 461.5 198.25 461.52 198.25 461.44 198.33 461.41 198.34 461.26 198.31 461.28 198.26 461.35 198.23 461.38 198.19 461.29 198.18 461.25 198.18 461.22 198.22 461.2 198.28 461.2 198.31 461.22 198.35 461.25 198.41 461.16 198.38 460.98 198.21 460.9 198.25 460.92 198.26 460.93 198.27 460.94 198.31 460.93 198.32 460.91 198.36 460.9 198.38 460.92 198.39 460.94 198.41 460.96 198.44 460.97 198.47 460.86 198.44 460.67 198.29 460.57 198.25 460.4 198.24 460.37 198.22 460.36 198.16 460.42 198.14 460.53 198.16 460.48 198.11 460.32 198.01 460.35 197.92 460.33 197.89 460.28 197.92 460.24 197.97 460.26 198.04 460.29 198.11 460.29 198.17 460.24 198.22 460.24 198.16 460.23 198.15 460.18 198.16 460.16 198.15 460.12 198.08 460.1 198.07 460.08 198.08 460.06 198.15 460.05 198.16 460.03 198.15 459.99 198.08 459.97 198.07 459.95 198.07 459.92 198.09 459.9 198.11 459.9 198.14 459.91 198.19 459.9 198.21 459.88 198.23 459.85 198.33 459.8 198.35 459.7 198.34 459.75 198.41 459.77 198.46 459.77 198.51 459.75 198.5 459.68 198.43 459.66 198.39 459.46 198.47 459.39 198.47 459.41 198.44 459.42 198.41 459.44 198.34 459.4 198.34 459.35 198.35 459.31 198.38 459.28 198.42 459.27 198.45 459.28 198.53 459.27 198.56 459.26 198.58 459.21 198.61 459.19 198.64 459.16 198.64 459.12 198.6 459.08 198.54 459.04 198.5 459 198.49 458.95 198.49 458.91 198.51 458.91 198.56 458.86 198.58 458.8 198.55 458.75 198.49 458.7 198.42 458.69 198.33 458.72 198.29 458.78 198.25 458.82 198.21 458.88 198.08 458.89 198.05 458.88 197.95 458.89 197.91 458.92 197.87 459.02 197.78 459.11 197.8 459.3 197.94 459.26 197.77 459.18 197.65 459.09 197.59 459 197.63 458.95 197.7 458.86 197.86 458.67 198.24 458.64 198.39 458.71 198.53 458.67 198.6 458.65 198.63 458.63 198.65 458.57 198.65 458.56 198.67 458.57 198.74 458.55 198.73 458.53 198.71 458.48 198.65 458.49 198.7 458.48 198.73 458.46 198.74 458.44 198.74 458.41 198.76 458.41 198.79 458.41 198.82 458.39 198.83 458.35 198.8 458.32 198.73 458.3 198.65 458.28 198.62 458.25 198.59 458.22 198.54 458.18 198.5 458.15 198.5 458.14 198.55 458.17 198.62 458.24 198.72 458.03 198.68 458.01 198.68 457.97 198.73 457.95 198.74 457.93 198.71 457.84 198.62 457.77 198.58 457.74 198.56 457.66 198.44 457.59 198.39 457.51 198.35 457.45 198.34 457.45 198.38 457.57 198.43 457.59 198.47 457.64 198.54 457.7 198.58 457.71 198.61 457.72 198.66 457.72 198.7 457.71 198.72 457.67 198.72 457.65 198.72 457.66 198.78 457.68 198.81 457.77 198.87 457.81 198.95 457.83 198.98 457.86 198.99 457.87 199.01 457.87 199.07 457.85 199.12 457.84 199.14 457.72 199.17 457.72 199.07 457.63 198.93 457.65 198.87 457.62 198.87 457.6 198.89 457.58 198.91 457.56 198.93 457.54 198.92 457.52 198.91 457.39 198.77 457.34 198.74 457.28 198.72 457.36 198.82 457.41 198.87 457.45 198.9 457.43 198.99 457.38 199.08 457.37 199.14 457.39 199.21 457.46 199.33 457.48 199.42 457.43 199.41 457.4 199.4 457.37 199.37 457.34 199.33 457.36 199.3 457.33 199.24 457.28 199.23 457.24 199.22 457.19 199.2 457.12 199.11 457.09 199.08 457.05 199.11 457.07 199.19 457.15 199.25 457.3 199.33 457.15 199.39 457.15 199.42 457.11 199.44 457.05 199.41 456.87 199.2 456.86 199.17 456.86 199.11 456.88 199.07 456.9 199.05 456.86 199.02 456.86 198.99 456.98 198.99 456.95 198.89 456.9 198.88 456.85 198.92 456.81 198.96 456.75 199 456.58 199.05 456.58 199.08 456.62 199.1 456.63 199.15 456.63 199.21 456.61 199.27 456.6 199.28 456.59 199.29 456.57 199.3 456.56 199.38 456.55 199.4 456.53 199.41 456.22 199.42 456.22 199.35 456.19 199.32 456.11 199.3 456.12 199.32 456.12 199.37 456.13 199.39 456.06 199.41 455.85 199.42 455.84 199.42 455.84 199.44 455.84 199.49 455.84 199.49 455.83 199.52 455.8 199.51 455.76 199.48 455.76 199.51 455.84 199.56 455.87 199.6 455.85 199.61 455.82 199.62 455.85 199.66 455.81 199.69 455.68 199.73 455.63 199.72 455.63 199.69 455.64 199.68 455.64 199.66 455.55 199.72 455.52 199.76 455.57 199.78 455.55 199.81 455.52 199.81 455.48 199.85 455.44 199.83 455.41 199.78 455.44 199.75 455.46 199.69 455.47 199.62 455.46 199.57 455.41 199.56 455.38 199.62 455.33 199.83 455.31 199.87 455.12 199.88 455.07 199.87 455.05 199.81 455.13 199.79 455.13 199.71 455.07 199.64 454.99 199.66 455.03 199.78 455 199.8 454.94 199.86 454.91 199.88 454.8 199.89 454.72 199.92 454.71 199.93 454.69 199.95 454.69 199.98 454.7 200.04 454.69 200.06 454.66 200.06 454.64 200.02 454.63 199.97 454.62 199.93 454.6 199.9 454.46 199.82 454.43 199.81 454.42 199.83 454.44 199.88 454.48 199.91 454.51 199.92 454.52 199.94 454.5 200 454.47 200.03 454.44 200.04 454.41 200.06 454.4 200.12 454.55 200.06 454.54 200.1 454.52 200.13 454.47 200.18 454.52 200.21 454.52 200.24 454.37 200.35 454.28 200.48 454.24 200.52 454.19 200.54 454.12 200.54 454.14 200.48 454.2 200.34 454.23 200.3 454.19 200.3 454.13 200.35 454.03 200.48 454.02 200.41 453.98 200.43 453.93 200.49 453.89 200.52 453.91 200.44 453.93 200.41 453.96 200.39 453.99 200.35 454 200.31 454 200.28 454 200.23 454.02 200.18 453.91 200.17 453.86 200.19 453.82 200.24 453.85 200.27 453.78 200.32 453.76 200.33 453.73 200.33 453.65 200.3 453.59 200.29 453.55 200.32 453.55 200.35 453.61 200.39 453.56 200.42 453.53 200.41 453.49 200.38 453.45 200.36 453.43 200.36 453.35 200.41 453.33 200.42 453.3 200.39 453.26 200.46 453.22 200.46 453.21 200.41 453.24 200.36 453.24 200.33 453.2 200.34 453.18 200.37 453.16 200.41 453.14 200.45 453.1 200.49 453.07 200.51 452.92 200.54 452.76 200.7 452.69 200.65 452.33 200.7 452.3 200.68 452.28 200.62 452.25 200.6 452.23 200.6 452.08 200.65 451.99 200.69 451.94 200.7 451.96 200.63 452.06 200.46 452.09 200.42 452.15 200.4 452.18 200.38 452.19 200.35 452.17 200.31 452.17 200.27 452.17 200.23 452.19 200.18 452.11 200.21 452.09 200.23 452.07 200.26 452.06 200.31 452.04 200.35 452.01 200.36 451.99 200.38 451.98 200.43 451.97 200.48 451.96 200.53 451.94 200.56 451.89 200.59 451.87 200.62 451.79 200.75 451.71 200.85 451.51 200.96 451.48 201.01 451.48 201.09 451.5 201.16 451.54 201.18 451.54 201.21 451.16 201.27 451.13 201.3 451 201.27 450.95 201.28 450.91 201.31 450.77 201.34 450.74 201.33 450.78 201.3 450.83 201.2 450.86 201.18 450.95 201.16 451.27 201.01 451.36 201 451.34 200.9 451.35 200.87 451.38 200.87 451.4 200.88 451.48 200.88 451.53 200.85 451.58 200.79 451.63 200.69 451.67 200.6 451.71 200.46 451.72 200.37 451.68 200.41 451.54 200.73 451.48 200.82 451.43 200.82 451.44 200.8 451.44 200.77 451.45 200.76 451.43 200.73 451.4 200.73 451.38 200.73 451.36 200.76 451.36 200.79 451.28 200.76 451.25 200.8 451.24 200.84 451.23 200.84 451.21 200.82 451.21 200.77 451.23 200.64 451.23 200.62 451.27 200.58 451.43 200.52 451.47 200.47 451.52 200.36 451.55 200.33 451.44 200.29 451.22 200.33 451.12 200.33 451.06 200.31 451.01 200.28 450.98 200.23 450.96 200.16 450.98 200.11 451.01 200.05 451.09 199.97 451.04 199.91 451.03 199.93 451 200.01 450.99 200.03 450.98 200.05 450.93 200.07 450.92 200.09 450.91 200.01 450.89 199.97 450.86 199.94 450.78 199.92 450.73 199.86 450.71 199.84 450.73 199.8 450.73 199.75 450.72 199.72 450.69 199.69 450.81 199.48 450.86 199.42 451 199.28 451.04 199.2 451.05 199.16 451.07 199.09 451.09 199.05 451.14 199 451.17 198.97 451.16 198.93 451.12 198.92 451.06 198.98 451.01 199.07 450.98 199.14 450.85 199.1 450.71 199.17 450.4 199.45 450.12 199.53 449.99 199.6 449.93 199.6 449.96 199.56 450.08 199.48 450.04 199.46 450.03 199.43 450.08 199.34 450.1 199.31 450.2 199.27 450.09 199.28 450.04 199.3 449.94 199.39 449.88 199.41 449.76 199.42 449.78 199.38 449.78 199.36 449.78 199.33 449.79 199.3 449.81 199.28 449.85 199.24 449.89 199.17 449.96 199.09 449.98 199.02 450.09 198.89 450.16 198.84 450.17 198.77 450.15 198.73 450.05 198.83 449.97 198.85 449.79 198.83 449.84 198.72 449.49 198.8 449.41 198.8 449.39 198.79 449.32 198.7 449.17 198.59 449.12 198.57 449.03 198.56 449.01 198.53 449.01 198.47 448.99 198.45 448.95 198.51 448.91 198.56 448.87 198.55 448.81 198.47 448.81 198.46 448.81 198.42 448.81 198.41 448.8 198.4 448.77 198.41 448.76 198.41 448.74 198.39 448.73 198.38 448.72 198.36 448.73 198.31 448.62 198.31 448.63 198.28 448.65 198.22 448.66 198.19 448.62 198.16 448.55 198.15 448.49 198.14 448.44 198.16 448.42 198.21 448.43 198.26 448.49 198.38 448.39 198.34 448.34 198.34 448.29 198.38 448.3 198.3 448.33 198.16 448.34 198.07 448.34 198 448.34 197.94 448.37 197.89 448.43 197.88 448.4 197.84 448.39 197.8 448.39 197.75 448.41 197.7 448.27 197.81 448.22 197.87 448.17 197.91 448.06 197.93 448.02 197.97 448.01 198.01 448.03 198.07 448.02 198.11 448.01 198.14 448 198.16 448 198.19 448 198.24 447.97 198.3 447.91 198.33 447.84 198.33 447.79 198.31 447.84 198.25 447.81 198.16 447.7 197.97 447.73 197.97 447.83 198.01 447.83 197.97 447.78 197.95 447.63 197.94 447.56 197.97 447.53 197.97 447.51 197.96 447.48 197.92 447.46 197.92 447.46 197.88 447.47 197.88 447.48 197.87 447.5 197.85 447.47 197.79 447.54 197.82 447.58 197.82 447.59 197.79 447.48 197.7 447.44 197.67 447.39 197.61 447.35 197.54 447.33 197.48 447.33 197.46 447.34 197.45 447.34 197.45 447.33 197.42 447.49 197.47 447.52 197.46 447.54 197.41 447.53 197.36 447.51 197.32 447.49 197.26 447.59 197.26 447.59 197.23 447.54 197.23 447.5 197.21 447.45 197.18 447.41 197.14 447.44 197.11 447.46 197.11 447.49 197.11 447.44 197.04 447.41 197.02 447.38 197.02 447.39 196.95 447.38 196.89 447.35 196.85 447.32 196.86 447.3 196.85 447.29 196.82 447.28 196.8 447.27 196.76 447.3 196.72 447.26 196.63 447.29 196.61 447.4 196.64 447.45 196.63 447.5 196.58 447.48 196.56 447.45 196.55 447.39 196.55 447.38 196.54 447.33 196.46 447.36 196.45 447.4 196.4 447.42 196.39 447.44 196.4 447.45 196.43 447.47 196.45 447.5 196.46 447.49 196.41 447.48 196.36 447.47 196.32 447.45 196.3 447.42 196.29 447.41 196.27 447.4 196.24 447.39 196.21 447.29 195.99 447.26 195.96 447.29 195.9 447.3 195.89 447.24 195.84 447.22 195.8 447.21 195.74 447.26 195.74 447.36 195.81 447.41 195.83 447.46 195.82 447.45 195.79 447.45 195.78 447.42 195.75 447.36 195.74 447.43 195.7 447.56 195.76 447.62 195.74 447.59 195.71 447.56 195.66 447.55 195.6 447.58 195.55 447.55 195.44 447.54 195.4 447.51 195.36 447.54 195.36 447.59 195.33 447.58 195.33 447.56 195.33 447.55 195.32 447.53 195.3 447.56 195.24 447.53 195.24 447.56 195.21 447.59 195.2 447.67 195.2 447.66 195.16 447.65 195.14 447.72 195.1 447.79 195.08 447.75 194.98 447.71 194.94 447.61 194.89 447.63 194.84 447.66 194.82 447.68 194.79 447.67 194.73 447.76 194.73 447.76 194.7 447.75 194.67 447.76 194.59 447.76 194.54 447.75 194.51 447.73 194.5 447.73 194.48 447.72 194.45 447.73 194.41 447.73 194.38 447.71 194.29 447.7 194.26 447.67 194.23 447.64 194.21 447.57 194.18 447.55 194.16 447.61 194.12 447.75 194.14 447.82 194.1 447.79 194.03 447.75 193.98 447.68 193.91 447.53 193.83 447.49 193.78 447.78 193.83 447.86 193.78 447.82 193.65 447.8 193.62 447.77 193.61 447.71 193.63 447.68 193.62 447.59 193.5 447.57 193.45 447.57 193.42 447.58 193.41 447.62 193.4 447.68 193.39 447.93 193.5 448.07 193.6 448.14 193.62 448.14 193.59 447.99 193.43 447.91 193.32 447.86 193.12 447.82 193.08 447.77 193.06 447.74 193.02 447.74 192.98 447.76 192.91 447.75 192.88 447.7 192.76 447.7 192.73 447.74 192.74 447.81 192.81 447.85 192.79 447.79 192.72 447.63 192.61 447.59 192.5 447.6 192.45 447.62 192.38 447.63 192.32 447.63 192.26 447.6 192.24 447.56 192.22 447.54 192.19 447.55 192.12 447.48 192.02 447.44 191.96 447.42 191.9 447.44 191.88 447.46 191.85 447.47 191.81 447.42 191.78 447.41 191.75 447.41 191.7 447.39 191.67 447.37 191.66 447.27 191.67 447.25 191.66 447.24 191.66 447.19 191.62 447.17 191.6 447.2 191.51 447.17 191.47 447.07 191.45 447.16 191.14 447.18 191.02 447.19 190.8 447.21 190.76 447.24 190.86 447.28 190.72 447.29 190.66 447.27 190.6 447.3 190.55 447.37 190.49 447.4 190.46 447.41 190.39 447.39 190.35 447.33 190.28 447.38 190.11 447.33 190.12 447.3 190.17 447.28 190.23 447.24 190.28 447.25 190.2 447.28 190.06 447.29 189.98 447.29 189.76 447.3 189.69 447.18 189.74 447.15 189.72 447.13 189.67 447.13 189.61 447.14 189.55 447.17 189.5 447.15 189.43 447 189.67 447 189.72 447.03 189.79 446.98 189.78 446.97 189.71 446.98 189.61 447 189.53 446.99 189.52 446.96 189.5 446.95 189.5 446.97 189.44 446.98 189.42 447 189.39 446.96 189.37 446.92 189.38 446.88 189.41 446.85 189.46 446.84 189.4 446.88 189.25 446.89 189.17 446.85 189.2 446.83 189.22 446.81 189.19 446.8 189.1 446.81 189.02 446.83 188.95 446.86 188.9 446.89 188.87 446.88 188.83 446.83 188.74 446.88 188.7 446.92 188.64 446.97 188.59 447.01 188.61 446.98 188.52 446.82 188.48 446.79 188.41 446.76 188.43 446.73 188.46 446.69 188.54 446.7 188.42 446.73 188.24 446.73 188.14 446.77 188.13 446.83 188.09 446.88 188.02 446.91 187.95 446.91 187.89 446.89 187.89 446.88 187.89 446.86 187.88 446.82 187.83 446.81 187.8 446.79 187.72 446.8 187.65 446.84 187.6 446.88 187.58 446.93 187.63 446.96 187.64 446.97 187.6 446.98 187.59 447.01 187.52 447.03 187.48 447.04 187.41 447.04 187.33 447.05 187.27 447.09 187.22 447.14 187.22 447.29 187.29 447.34 187.27 447.36 187.24 447.4 187.19 447.42 187.17 447.43 187.13 447.44 187.07 447.46 187 447.48 186.9 447.49 186.87 447.5 186.86 447.58 186.82 447.54 186.65 447.53 186.56 447.53 186.45 447.53 186.42 447.53 186.4 447.53 186.38 447.56 186.35 447.59 186.35 447.6 186.37 447.62 186.37 447.62 186.3 447.65 186.23 447.71 186.27 447.8 186.39 447.87 186.41 447.94 186.47 448.01 186.5 448.08 186.45 447.98 186.31 447.83 186.18 447.79 186.12 447.78 186.05 447.82 185.98 447.79 186 447.76 186.01 447.73 186 447.7 185.97 447.7 185.91 447.7 185.86 447.69 185.82 447.67 185.81 447.68 185.76 447.71 185.74 447.77 185.75 447.77 185.71 447.69 185.68 447.66 185.64 447.65 185.56 447.67 185.52 447.71 185.48 447.76 185.45 447.79 185.45 447.91 185.59 447.98 185.62 448.03 185.51 448.08 185.56 448.13 185.59 448.2 185.61 448.24 185.58 448.21 185.55 448.14 185.53 448.11 185.51 448.11 185.48 448.2 185.41 448.23 185.4 448.32 185.41 448.37 185.39 448.48 185.31 448.53 185.31 448.51 185.38 448.51 185.43 448.53 185.62 448.52 185.66 448.5 185.71 448.56 185.73 448.73 185.88 448.71 185.78 448.67 185.68 448.73 185.65 448.75 185.62 448.78 185.58 448.79 185.53 448.79 185.49 448.8 185.45 448.82 185.41 448.86 185.38 448.89 185.41 448.9 185.45 448.93 185.48 448.96 185.48 449.02 185.43 449.05 185.41 449.08 185.42 449.12 185.45 449.15 185.45 449.17 185.43 449.17 185.41 449.17 185.39 449.17 185.38 449.18 185.38 449.2 185.39 449.21 185.4 449.22 185.41 449.31 185.28 449.36 185.19 449.38 185.11 449.4 185.11 449.45 185.23 449.5 185.19 449.55 185.09 449.6 185.01 449.57 184.98 449.56 184.95 449.54 184.87 449.51 184.82 449.44 184.76 449.33 184.59 449.32 184.57 449.28 184.56 449.25 184.55 449.22 184.52 449.2 184.47 449.19 184.33 449.24 184.27 449.31 184.28 449.38 184.35 449.44 184.44 449.51 184.47 449.58 184.48 449.66 184.53 449.47 184.32 449.39 184.19 449.37 184.06 449.39 184 449.41 183.98 449.47 183.99 449.51 184.01 449.51 184.06 449.5 184.11 449.51 184.16 449.55 184.19 449.61 184.2 449.65 184.24 449.64 184.36 449.67 184.34 449.71 184.29 449.73 184.26 449.73 184.23 449.72 184.18 449.72 184.14 449.74 184.09 449.75 184.04 449.75 184.04 449.79 183.85 449.81 183.82 449.84 183.79 449.86 183.76 449.87 183.7 449.88 183.69 449.98 183.75 449.96 183.69 449.87 183.52 449.91 183.45 449.92 183.43 449.95 183.41 449.94 183.38 449.94 183.36 449.93 183.34 450.02 183.36 450.07 183.35 450.08 183.26 450.08 183.16 450.07 183.11 450.08 183.11 450.13 183.13 450.16 183.19 450.18 183.22 450.19 183.19 450.2 183.14 450.22 183.11 450.24 183.11 450.26 183.12 450.3 183.16 450.32 183.21 450.33 183.27 450.32 183.34 450.35 183.38 450.39 183.49 450.41 183.52 450.44 183.51 450.48 183.49 450.52 183.47 450.55 183.43 450.56 183.41 450.59 183.41 450.6 183.4 450.61 183.36 450.61 183.32 450.61 183.29 450.62 183.27 450.63 183.24 450.66 183.2 450.73 183.16 450.77 183.1 450.73 183.07 450.61 183 450.77 183 450.72 182.92 450.71 182.9 450.76 182.93 450.79 182.94 450.82 182.91 450.82 182.89 450.83 182.85 450.83 182.81 450.82 182.79 450.78 182.77 450.76 182.71 450.77 182.66 450.81 182.62 450.86 182.63 450.88 182.66 450.92 182.78 450.96 182.82 450.98 182.81 450.99 182.76 450.96 182.69 450.96 182.69 450.97 182.63 450.97 182.6 450.96 182.55 451.09 182.42 451.12 182.37 451.15 182.34 451.25 182.38 451.28 182.37 451.3 182.34 451.32 182.31 451.32 182.31 451.3 182.28 451.3 182.25 451.33 182.21 451.35 182.19 451.42 182.18 451.59 182.18 451.66 182.16 451.71 182.07 451.76 182.13 451.81 182.13 451.86 182.07 451.91 182 451.84 181.94 451.81 181.89 451.81 181.85 451.82 181.78 451.82 181.73 451.81 181.69 451.8 181.64 451.8 181.61 451.83 181.38 451.86 181.34 451.9 181.34 451.98 181.38 452 181.4 452.02 181.43 452.04 181.45 452.06 181.44 452.08 181.43 452.11 181.41 452.18 181.46 452.32 181.49 452.36 181.43 452.33 181.32 452.27 181.2 452.24 181.14 452.25 181.08 452.28 181.08 452.35 181.1 452.36 181.08 452.41 181 452.44 180.97 452.45 180.9 452.49 180.84 452.54 180.78 452.55 180.77 452.59 180.72 452.57 180.72 452.58 180.64 452.59 180.57 452.61 180.53 452.66 180.56 452.7 180.57 452.8 180.51 452.83 180.48 452.85 180.43 452.89 180.27 452.94 180.28 453.03 180.33 453.07 180.37 453.06 180.31 453.04 180.25 453.03 180.18 453.04 180.1 453.07 180.02 453.14 179.92 453.17 179.85 453.19 179.69 453.21 179.65 453.26 179.6 453.35 179.56 453.39 179.52 453.38 179.43 453.41 179.44 453.43 179.43 453.46 179.41 453.48 179.37 453.49 179.38 453.58 179.32 453.66 179.32 453.67 179.3 453.67 179.22 453.67 179.18 453.68 179.14 453.71 179.13 453.77 179.15 453.8 179.13 453.81 179.09 453.82 179.03 453.83 179 453.88 178.96 453.92 178.95 453.96 178.92 454 178.83 454 178.79 453.99 178.75 453.99 178.71 454.03 178.67 454.03 178.63 454.02 178.59 454.02 178.58 454.03 178.47 454.05 178.42 454.11 178.3 454.12 178.26 454.13 178.21 454.14 178.17 454.15 178.16 454.18 178.14 454.24 178.05 454.33 177.99 454.38 177.95 454.41 177.87 454.39 177.82 454.38 177.8 454.38 177.77 454.41 177.71 454.44 177.68 454.5 177.63 454.42 177.55 454.39 177.5 454.43 177.48 454.48 177.49 454.66 177.59 454.68 177.58 454.7 177.55 454.7 177.53 454.68 177.49 454.67 177.46 454.69 177.37 454.73 177.35 454.82 177.34 454.83 177.24 454.91 177.19 455.19 177.15 455.58 176.92 455.63 176.91 455.67 176.93 455.69 176.98 455.7 177.04 455.73 177.09 455.75 177.09 455.77 177.08 455.79 177.07 455.81 177.09 455.82 177.11 455.82 177.19 455.83 177.21 455.87 177.27 455.9 177.31 455.94 177.33 455.99 177.34 455.99 177.37 455.97 177.37 455.95 177.38 455.92 177.41 455.99 177.44 456.2 177.37 456.22 177.36 456.19 177.26 456.2 177.21 456.23 177.05 456.23 177.01 456.21 176.95 456.19 176.95 456.16 176.97 456.13 176.98 456.1 176.96 456.04 176.89 455.95 176.86 455.91 176.8 455.84 176.66 455.85 176.64 455.87 176.6 455.89 176.59 455.87 176.55 455.91 176.53 456.13 176.57 456.17 176.6 456.25 176.69 456.3 176.74 456.35 176.75 456.39 176.73 456.4 176.66 456.38 176.59 456.36 176.54 456.34 176.49 456.35 176.41 456.34 176.38 456.33 176.36 456.33 176.33 456.34 176.3 456.29 176.23 456.26 176.19 456.25 176.14 456.25 176.08 456.24 176.04 456.22 176.01 456.2 175.98 456.14 175.91 455.89 175.83 455.9 175.72 455.92 175.66 455.99 175.58 456.02 175.54 456.04 175.48 456.05 175.41 456.04 175.33 456.06 175.33 456.09 175.33 456.12 175.32 456.14 175.29 456.13 175.28 456.1 175.26 456.08 175.26 456.1 175.17 456.11 175.15 456.08 175.12 456.06 175.11 456.04 175.11 456.07 175.06 456.1 174.89 456.13 174.82 456.12 174.8 456.11 174.76 456.1 174.75 456.12 174.74 456.13 174.73 456.16 174.67 456.01 174.49 456.04 174.47 456.1 174.47 456.13 174.45 456.15 174.42 456.19 174.34 456.2 174.31 456.18 174.22 456.21 174.02 456.2 173.93 456.13 173.8 456.07 173.71 455.9 173.54 455.85 173.51 455.79 173.51 455.74 173.53 455.69 173.51 455.64 173.43 455.63 173.39 455.62 173.35 455.62 173.33 455.61 173.28 455.58 173.23 455.55 173.21 455.5 173.23 455.47 173.19 455.43 173.16 455.32 173.18 455.28 173.18 455.25 173.14 455.21 173.06 455.19 173.03 455.1 172.99 455.02 172.97 454.93 172.99 454.85 173.03 454.79 173.1 454.77 173.13 454.72 173.14 454.7 173.12 454.69 173.07 454.69 172.86 454.68 172.82 454.66 172.8 454.52 172.72 454.49 172.68 454.46 172.6 454.43 172.53 454.42 172.43 454.44 172.29 454.48 172.19 454.6 171.9 454.63 171.8 454.65 171.77 454.69 171.74 454.75 171.72 454.77 171.69 454.78 171.62 454.74 171.67 454.62 171.74 454.61 171.74 454.59 171.74 454.57 171.75 454.56 171.79 454.56 171.85 454.56 171.87 454.56 171.88 454.5 171.94 454.41 172.18 454.35 172.25 454.3 172.26 454.25 172.25 454.2 172.25 454.15 172.29 454.15 172.31 454.14 172.33 454.14 172.36 454.12 172.38 454.1 172.4 453.99 172.34 453.93 172.24 453.9 172.22 453.82 172.18 453.73 172.11 453.75 172.18 453.76 172.26 453.74 172.33 453.7 172.37 453.66 172.35 453.62 172.28 453.58 172.21 453.56 172.15 453.56 172.11 453.56 172.01 453.48 171.86 453.43 171.64 453.37 171.54 453.32 171.43 453.33 171.31 453.32 171.23 453.27 170.96 453.24 170.88 453.22 170.84 453.17 170.79 453.14 170.75 453.12 170.7 453 170.34 452.95 170.27 452.72 170.18 452.65 170.11 452.59 170.02 452.51 169.74 452.49 169.6 452.46 169.47 452.45 169.41 452.46 169.36 452.48 169.29 452.48 169.23 452.48 169.15 452.47 169.05 452.47 168.98 452.46 168.92 452.42 168.82 452.41 168.75 452.43 168.63 452.48 168.54 452.55 168.49 452.6 168.47 452.6 168.38 452.66 168.33 452.73 168.3 452.77 168.24 452.77 168.18 452.89 168.1 452.94 168.05 452.96 167.96 452.96 167.86 452.95 167.76 452.94 167.67 452.96 167.58 452.98 167.47 452.99 167.36 452.98 167.25 452.96 167.04 452.96 167 453.03 166.88 453.07 166.77 453.11 166.76 453.17 166.76 453.2 166.74 453.21 166.69 453.2 166.65 453.11 166.38 453.05 166.22 453.01 166.14 452.92 166.02 452.79 165.73 452.74 165.66 452.67 165.63 452.63 165.59 452.58 165.5 452.5 165.31 452.48 165.26 452.47 165.22 452.47 165.17 452.47 165.1 452.46 165.04 452.44 165 452.42 164.98 452.36 164.86 452.31 164.8 452.27 164.73 452.26 164.61 452.28 164.57 452.31 164.51 452.33 164.45 452.35 164.38 452.31 164.36 452.29 164.31 452.3 164.2 452.32 164.11 452.36 164.06 452.61 163.94 452.68 163.85 452.72 163.67 452.65 163.62 452.65 163.49 452.68 163.32 452.68 163.19 452.65 163.15 452.6 163.13 452.45 163.1 452.3 163 452.21 163.01 452.12 163.05 452.04 163.06 451.97 162.96 451.94 162.82 451.97 162.71 452.02 162.6 452.06 162.48 452.03 162.41 452.09 162.35 452.17 162.29 452.21 162.23 452.2 162.09 452.19 162 452.13 161.85 452.12 161.75 452.09 161.52 452.07 161.43 452.06 161.35 452.06 161.01 452.05 160.89 452.04 160.74 452.05 160.61 452.09 160.5 452.16 160.44 452.32 160.38 452.39 160.32 452.45 160.21 452.45 160.1 452.41 160.03 452.26 159.97 452.06 159.72 452 159.67 451.83 159.51 451.81 159.46 451.81 159.41 451.72 159.05 451.69 158.99 451.66 158.95 451.59 158.95 451.4 159.09 451.35 159.09 451.34 159.05 451.33 159.05 451.32 159.04 451.31 158.98 451.32 158.95 451.33 158.9 451.34 158.75 451.33 158.7 451.31 158.66 451.33 158.52 451.29 158.42 451.19 158.29 451.16 158.23 451.15 158.18 451.15 158.13 451.13 158.08 451.1 158.04 450.77 157.81 450.71 157.72 450.61 157.52 450.56 157.46 450.43 157.51 450.36 157.43 450.3 157.33 450.23 157.26 450.19 157.26 450.15 157.28 450.11 157.28 450.02 157.21 449.92 157.2 449.78 157.11 449.6 157.1 449.6 157.09 449.6 157.03 449.59 157.01 449.44 156.97 448.93 156.96 448.85 156.89 448.85 156.87 448.85 156.82 448.85 156.78 448.83 156.77 448.82 156.76 448.79 156.72 448.76 156.67 448.7 156.58 448.69 156.54 448.59 156.41 448.18 156.29 448.14 156.1 448.02 156.01 447.82 155.81 447.65 155.76 447.58 155.69 447.55 155.63 447.48 155.44 447.47 155.37 447.45 155.31 447.41 155.28 447.25 155.28 447.23 155.27 447.22 155.25 447.2 155.19 447.19 155.18 447.16 155.14 447.03 154.89 446.89 154.74 446.71 154.57 446.34 154.42 446.29 154.34 446.3 154.22 446.37 154.18 446.4 154.08 446.41 153.97 446.35 153.89 446.25 153.85 446.1 153.7 445.83 153.66 445.71 153.54 445.92 153.16 445.98 153.12 446.62 153.52 446.71 153.54 446.77 153.5 446.9 153.23 446.62 152.65 446.69 152.44 446.73 152.34 446.77 152.28 447.25 151.96 447.97 152.08 448.02 152.13 448.65 153.36 448.82 153.7 449.12 154.04 449.15 154.12 449.18 154.27 449.21 154.33 449.38 154.65 449.56 154.8 449.59 154.86 449.65 155.42 449.67 155.53 449.72 155.55 449.97 155.45 450.03 155.45 450.09 155.46 450.65 155.76 451.03 155.69 451.14 155.73 451.2 155.79 451.37 156.09 451.42 156.11 452.05 155.7 452.41 155.64 452.61 155.52 452.69 155.27 452.73 155 452.87 154.9 453.04 154.9 453.49 155.15 453.56 155.28 453.61 155.34 453.94 155.56 454.27 155.68 454.67 155.82 454.87 155.99 455.04 156.25 455.11 156.44 455.15 156.49 455.21 156.48 455.26 156.4 455.28 156.29 455.31 156.19 455.38 156.13 455.43 156.13 455.57 156.03 455.63 156.01 455.68 155.99 455.71 155.93 455.74 155.8 455.71 155.75 455.71 155.72 455.72 155.68 455.73 155.63 455.74 155.35 455.75 155.22 455.78 155.09 455.86 154.92 456.28 154.54 456.38 154.48 456.48 154.46 456.75 154.56 456.81 154.54 456.86 154.49 456.89 154.4 456.92 154.31 456.96 154.23 457.03 154.12 457.05 154.06 457.06 153.98 457.09 153.9 457.18 153.81 457.2 153.73 457.19 153.69 457.17 153.66 457.13 153.61 457.11 153.58 457.11 153.55 457.11 153.53 457.11 153.5 457.08 153.4 457.08 153.36 457.1 153.3 457.1 153.26 457.1 153.06 457.11 153.03 457.12 153.01 457.12 152.98 457.13 152.93 457.12 152.89 457.09 152.78 457.08 152.75 457.04 152.58 457.05 152.41 457.13 151.91 457.16 151.82 457.36 151.46 457.35 151.41 457.28 151.16 457.34 151.02 457.36 150.98 457.38 150.93 457.38 150.78 457.39 150.7 457.43 150.63 457.41 150.59 457.39 150.55 457.38 150.51 457.41 150.44 457.55 150.34 457.6 150.23 457.64 150.09 457.64 149.94 457.59 149.8 457.55 149.74 457.55 149.68 457.56 149.61 457.59 149.54 457.64 149.44 457.7 149.4 458.04 149.3 458.07 149.28 458.1 149.23 458.13 149.17 458.23 149 458.34 148.77 458.56 148.51 458.63 148.38 458.6 148.26 458.62 148.21 458.7 148.1 458.74 147.97 458.82 147.93 459.2 147.87 459.34 147.91 459.55 147.85 459.62 147.87 459.74 147.96 459.81 147.94 459.87 147.95 460.03 148.07 460.07 148.08 460.54 147.9 460.63 147.78 460.61 147.77 460.58 147.72 460.57 147.71 460.59 147.65 460.62 147.63 460.66 147.63 460.69 147.61 460.84 147.43 461.1 147.29 461.12 147.18 461.21 147.04 461.32 147 461.61 147.06 461.77 146.96 461.84 146.99 461.91 147.1 462.02 147.38 462.44 148.13 462.49 148.18 462.91 148.37 462.91 148.59 462.96 148.72 463.05 148.79 463.13 148.83 463.85 149.18 464.57 149.54 464.61 149.6 464.73 150.1 465.05 150.87 464.79 151.42 463.98 152.42 463.96 152.51 463.94 152.65 463.9 153.11 463.9 153.21 463.93 153.27 464.18 153.6 Z" fill-rule="evenodd" id="Finland" transform="translate(-445.7099914550781,-146.9600067138672) "/></svg>