<svg xmlns="http://www.w3.org/2000/svg" viewBox="0 0 798 766"><path fill-rule="evenodd" d="m608 384 2 1h1v1l2 1h1v1l-1 2h-1v2l-1 1v1h-1l1 2v2h-1v-1l-1 1h-1l-1 1v-1l-1 1h-2v1h-1v1l1 1v1l-1 2v1h-1v1l2-1v-1l2 1h1v-1h3l2 1 1-1 1-1h1v-1l2-2h1l2-1 1-1 1-1v-1h-1v-1l-1 1h-1l-1-2v-2l-1-1 2-4 4-3 5-1 5-3h9l6 2h2l-1 1v2h-1l1 1-1 1h-1v3h1v1h1l1 1 1 1h1v2l-1 1v1h-1v1l-1 1v3l-1 1v2h3v1h3v1l-1 1 1 1h-1v3h1l1-1v-1h1v2h1v1l1 1 1 1v1h1v2l1 1h1l-1 2v1h-1v3h-1l-2 2-1 1h-3l-1 1h-3v5l1 3 2 3v1h2l1 2h5v1h-1l-1 1v2l1 2v2l1 1-1 1v1h3v2h2v1h1l1 2 3 2v2h-1v2l-2 1v2h-1l1 3v3h-1l-1 2-1 1-1-1h-3v1h-1l-1 2-1 1h-2l-1 1 1 1h-1l-2 1-3-2h-1l-2 1h-3l-1 2h-1l-1 1 1 2 1 1v2l1 1h3v1l1 1-1 1 1 1v5l3 2 1 1 2 1 2 1 1-1h1v-1l1 1 3 1h-1v1h1v6l1 2 2 1v2h-4l-1 1-1 1 1 2v1h-1l-1 3-1 2h-2l-1 2 1 3 2 1v1l1 2h1-1l-1 1h-1v4l1 1 1 2 1 1v1l1 1h1v1l1 2-1 1h1l1 1 2-1 1 1 1 1 2 1 1-1 2 1v1l1 1h1l1 1v1h5v1l1 1 1-1 1 1h1l1-1h1l3-1h1v-1h4l1-1 1-1h2v3l-1 1 2 2 1 1v2l-1 2-2 1v2l-1 2-2 1-2 1v1l-1 1 1 1-3 2h-1v2l1 1v3l1 1h-1v1h-1l-1 1h1v1h-1l-1-1-1 1v-1 1-1l-2 2h1l-1 1h-4v2h1v1l-1-1v1l-1-1h1v-1h-1v1h-2 1-3v2h-1v1h-1v-1l-1 1h-2v1l-1 1v3-1 2h1v1h-1 1v1h-2l1-1h-1v-1h-1l-1 1v-1 1l-1 1h-1v1-1h-4l-1 1v2h1l-1 1v1-1h-1v3h-1l-1 1v1h-1v-1h-1v2h-1v-1h-1v1h-2v-1h-2v1h-1 1-1v1-1 1l1 1h-1v1h-1l1 1v1h-2l-1 1v1l-1 1h-1l-1 1h-1l-1 1h1v1h2v-1h1v1h1v-1h1l1 1h-1v1h-1v3l1 1h-2v2h-1v1h-1v-1l-1-1h1-3v-1l-1 1v1h-1l-1 1h-3v1-1h-1v1l-1-1-1 1h-1v2l-1-1v1h1-1v1h1v1h-2v-1h-1v1-2h-1v1-1 1l-1-1v-1h-1l-1 1h-3l-1 1v1h-1 1-1v4h1-4v-1h1v1-1h1v-2l-1-1h-3v1h-2v-2h-2l-1-1v1l-1-1v1-1 1-1 1h-1v-2 1-1h-1v1-1 1h-1v1h1l-1 1h1l1 1v-1h1v1h-2v1-1h-2v1h-1v1h-1l-1-1h-1v-2h1v-1h-1 1v-1h-3l1-1v-1h-1v1h-1v-1 1l-1-1-1-1v1h-1v-3h-2v-1 1l-1-1v1h-1v1h-1 1-1 1l-1 1v-1h-2v-2h-1v-1h-2v1h-1v-1h-4 1-5v-2h1v-1h1v-1l-1-1h-1v-1h1v-1 1-3 1-1h-1 1-1v-1h-1 1l-1-1h-2v1h-2v1h-12v-1h-1 1v-1h-1v-1h-1v-3 1h-1v-2l-2-1v1-1h-1v1h-1v1-1 1h-1 1-1l1-1v-1 1h-1v-1h-1v-1h-1 1v2h1v1h-2l-1-1 2 2h-1v-1 1h1v1-1h1l-1 1h-1l-1 1 1-1v1-1l1 1h1v1-1l1 1v-1h1v-1 1l-2 1h-1 1-1v2h-1l1-1h-2v1h1l-1-1h-2l-2-1h-2v1h-3l-4-1v-1l-2-1 1-1h1v-3l-2-1h-1l-2-1h-2l-1 1h-3l-8-1h-3l-2-1-1-1v-1h-1l1-1v-1l1 1v-1l-1-1-1-1h-5l-2 1-1 1h-1v1l-1-1v1h-1l-2 1-2 2-1 1-1 2h-1l-1 1h-2v2h-3l-1 1-2 2-2 1v1l-1 1-1 1v1h-1v1l-1 1v-1h1v-1h-1v1h-2l-1-1v1-1h-2l-2 1v-1 1h-1l-1-1v1h1l-2 2-3 1-1 1v1l-2 1v-1h-1 1v2h-1v1l-1 1-1 1v1h-1v1l-1 1v1l-1 2 1-2h-1v2l-1-1h1-1l-1-1h-1l1-1-1 1v-1 1l-1 1v-1 1-3h-1v-1h1v-1h-1v-1h-1v2h1l-1 1h-1v1h1v1h-1 1v-1l-1 1v1h-1 2v1l1 1v-1 1h1v1-1 1h-1 2v-2h-1 1v-1 1h1v1l1-1v2h-1 1-1v1h1-1 1v1l-1-1v2l-1 1v4h1v4h-1v1-1l1-1v-1l-1-1v1h-1v-2h-1v4h-1v1h-1v1h-1v1h1v1l1 1h2v-3h1v-2h1l-1 4v16-1 1l1 4v1h3v1h2-1v2l1 1 1 1v2l1-1v1h-4v1h-1l-1-1-1-2-1-1-1 1-1-1h-1v1h-1l-1-1h-1v1h-4v1l-1-1v2h-1l-1 1h-1v1l-1-1h-2l-2 1h-1v2l-1-1v1l1 1v2l-3-1h-3v1h-4v-1h-1l-1-1-1-1v-1h-3l-1-1h-1v-1h-1v-1l-1 1-2-1h-1l-1 1h-4l-1 1h-1v2h-1l-1 1-1 1h-2l-2-1-1-1v-1l-1-1v-3h-4v-1h-2v-1l-1-1h-5v-4l1-2h2v-1h-3v-2l-2-1-1 1h-1v-1h-3l-1-1v-1h-2l-1 1h-1l-1-1v1h-1v3h-1l-1 1 1-1h-1v-1l-1-1v-2h-1v-1h-1l1-1h-1v-1h-1v-2h-6l-1-1-1 1h-1l-1 1h-1l-1-2h-1l1-1h-1v-1h-1v-1h-1v-1h-1l-1 1v-1h-3l-2-1-1 1h-1l-1-1-1-1h-1v-1h-2l-1-1h-4v-1h-3v1h-1v1h1v1h-1l1 1h-1v1h-1l1 1v1h-1l1 1 1 1v3h-3l-1-1h-1v1h-1l-2-1-1 1h-6l-1-1v-1h-2v1h-1v2h-2l-2-1h1v-1l-1-1h-2l-1-1h-1l-1 1h-2l-1 1-1-1h-1v1l-1 1-1-1h-1v1l-1 1h-1l-2-1-1-2h-2v-2h-1v-1l-1-1v-2l-1 1h-2v-1h-2v-2 1h-1l-1-1-1-1h-1v1h-1v-1 1h-1l-1 1-1 1h-3l-2-1h-1v-1h-1v2l-1 1h-1v1h-1v-2h-1l-1-2v-1l-1-1h-1l-1-1-1-1h-2v-1h-1v-1l1-1-1-1v-1l-1-1h-1l-2 1h-5v-1l-1 1h-1l-2-1-1-1v-1h-4v-1h-1l-1-1-1 1h-1v-1l-1-1h-1l-1-1h-1l-1-1-1 1-1-1-2-1v-1h1v-1l1-1h-3v1h-1v5l-5-1-2-3 1-1 1-1h1v-2h1l-1-1h1v-2h1v-5l-1-1v-1h-1v1h-1l-2-1v-1h-5l1 1h-1v2h-2l-1-1v-3h-1l-1-1h-2v1h-2v-2h-1v-1h-1l-1-1h1v-1h-1 1l1-1h2l2-1v1h1v-2h2v-1h1v-1h1v-1l1-2v-1h1v-1l1-1v-1h1-1 1l2-5 2-3v-5l1-4 1-6 1-1v-1l1-5v-2l1-3 1-7 1-5 2-15 1-10v-5l1-1 1-1v-1l1-2v-3h3v1h6v-1 1-1h1v-1l-1-1v1l-1-1h1-1l-1-1h2-1v-1h-1v-1h-1v-1h-1v-1h-1l-1-1h-2v1h1-1v1h-1 1l-1 1v1h-1l-1 1v5-1 2h-1v-6l2-12 1-8 1-13 1-13v-9l1-2v-1l-1-1 1-1v-2l1-1 1-1v-1h1v-2h2v1h-1l1 1h1v1h-1v1h-1v1h1l1 1h1v1l1 1h1v1h1l1 1h1v1l1 1v1h1l1 1 1 1 3 2v2l1 3 1 1 1 3v5l1 1v1l1 1v1l1 3h1v1l1 1v1h1l1 2h1v-2h-1v-1l-1-2-1-2-1-1v-4l-1-4v-1l-1-1v-3l-1-5-1-2v-2l-1-1-1-2-1-1-2-3-1-1-1-1h-1 1-1v-1h-1v-1h-1v-1h-1v1l-1-1h-1v-1h-1v-1h1l-1-1h-1v-2h-1 1l-1 1v-1h-1l-1-1h-1v-1h-2v-1h-1l-1-1-1-1h-1v-1 1-1h-1l-1 1h1v1h2-2l-1-1v-8h3l1-1h1v1l1-1-1-1h1-1v-1l-1-1v-1h1-1v-1h1l1 1 1-1v-1l1-1 1-1v-2l-1-1h-1 2v-1l-1-1v-2h-2v-1h1v1h3v-4h-2v-2l-1-2h-1v-1l-1 1v-1h1v-1h-1v-1h-2 1l-1-1h2-5 1v-1h-1 1-1 1v-2h1v-2h1v-1h1v-1h1v-1h1v-6 1h2-1v-1h-1v2l-2-1h-1v1h-1v2h-1l1 1-1-1h-1l-1-1-1-1-1-1h-1v-1 1h1v1h1v1h-1l-1-1v-1l-1-1-1-1h-7v-2l-1-1v-1l-1-1h-4l-1-1h-3v-1h1v-1 1h-1v-1h-2l-1-1-1-1h-1v-1h-1v-1h-1v1-1h-1v-1h-1v-3l-1-2v-1l-1-2v-1h-1 1l-1-1h-1v-2h-1v-1l-1-1-1-1h1-2v-2l-2-2-3-2-3-3-1-1v-4l-1-1h1v-1 1l1-1v-1l1-1 1-1h1v-1l1-1v-1l1-1-1-1h1v-1h2l1-1h-1 1l-1-1-1-2h-1v-1h-1v-1l-1-1h-2v-1 1h-1v-1h-3v-1h-4v-1h1v-1h1v-1 1-1 1h1v-1l1 1 1-1v-4l-1-1v-3h2v-1h5v-2h-5l-1 1h-1v-1 1l-1 1v1h-2l1 1h-2l-1 1h-2v1-1h-1v-1h-1v-1l-1-1h-3v2l-1-1v1-1h-2v-1h-2v-1h-2v-1h2v1l1 1v-1 1l1-1v1h1v-1 1h1-1 1v-1h2-1v-1l-1 1v-1h-1v-1h-1 1l-1-1h-1 1l-1 1v-2h-1l1 1v1h-1v1-4h-1v-1h-1l-1-1h1v-1 1h1v-1h1v-1h1v-1h1v-1 1h2v-1l-1 1v-3h-1v1h-1v-1h-1l1-1v-1l-1-1h1-1l1-1v1h2v-1l-1-1h-2v-1h-2v1h-3v1h-2v-1 1l1-1h1l-1-1h2v-2 1l-1 1v-1l-1 1 1-1h-1v1l-1-1v1h-1 2v1h-2v-1h-1v1l1-1v1h-1 1l-1 1v1l-1-1h-2v-1 1h-2l-1 1h-3l-1-1 1-1h-1v-1l-1-1h-2 1-1v-2h1v1-1l1 1v-1 1-1h1l-1 1h1v1h1-1v-1h1v1l1-1v1-1h1v1-1h1v1-1h1l-1 1h3v-2l1-1v-1 1-1 1h1-1v-1h1v-2 1-2 2h-1 1-1v1h-1v-1 1h1v-1h-2v-1h-2v-1h1l1 1h1l-1-1v1-1h-1l1-1h-1v1l-1-1 1 1h-1v1-1 1h-1v-1l-1 1h-1 1-2v-1 2h-2v2-1 1h-1v-1h1-1v1l-1-1v-1 1l-1-1v-2h1-1v-1h-1 1v-1h1l1-1h-1v1h-1v1-1 1h-1v-1 2-1l1 1v1h-1v1h1v1h-1l1 1 1 1v1h-1v-1 1-1l-1 1v-2h-1 1-1v-1h-1 1v2-1l-1 1h1-1v-1h-1v-2 3-1h-2v1-1h-1v1h-1v-2h-1v-1h-1v1h1-1v1h1v1l-1 1v2l1 1h-1 1v2h1v1l1 1h-1v-1 1-1l-1 1v-1h-2l1-1h-1 1-1v-3h-1 1v-1h1v-3l-1-2v-1h-1l-1-1v1-1h-1 1l-1-1v-3h1v-1 1h1v-1 1h1-1l1-1h-1 1v-1h2-2 1-1v1h-1v-1h1v-1h1v1-1h1v-1h1-2l-1 1v1-1h-1 1v-1h1-1v-1l1-1-1 1v-1 2h-1v-1h-1v-1 1h1v3h-1v1-1 1h-1v-1 1h1l-1 1v1h-1 1v2l-2-2-1-1-1-1h-2v-1 1l-1-1h-1v1-1h2v1-1l1 1h1v-1h-2 1-1l1-1-1 1v-1l-1 1v-1 1h-1v-1h1v-1h-1 1-1v-1h1v1-1h1v-1h1v-1h-1v1-1 1h-1v1h-1v1h-2v-1 1h1v1-1 2-1 1h-5v-1h-1 1-1v-1h-1v-2h-1v-4 1h-1 1l-1 1h1l-1 1h-4v-1 1-1l-1 1v-1h-1v-1 1h-2v-1h-1l-1-1v-1l1 1v-1h1v-1h-1v1h-1v1l-1-1v-2h-1l1 1v1h-1 1v1l-1 1h-3v-1l-1 1v-1 1h-1v-2h-1v-1h-1v-1h-1 1v-1h-2v-1h1v1-2 1l-1-1-1-1v-1 1h-1v-1h-1v-1 2-1 1h1-1v3h-3v1-1h-1l-1-1h1-3l1-1h-1v1h-2l-1 1v1-2 1-1l-1-1h1-1v1l1 1h-1v-1 2h1l1 1h-1v2h-3v1h-4v-1h-3v1-1 1h-1v-1l-1 1 1-1h-1 1v-1h-1v-1h2v-2l-1-3-1-3-1-1v-1l-1-1-1-1v-1h-2l-1-1-1-1v1l-1-1v-2h2-2v2h-1v1h-1l-1-1h-2v-1h-4l-1-1h-1 1l1-1h-1v-1h3v-1h4v-1h1l1 1v-1h3v-1 1h1v-1h3v-1h1v1-1h2l1 1h2-1 1v1h1v-1l1-1v-4h-1v-3h-1v-1l-1 1v-1h-2v-1h-3v-1l-1 1v-1h1-4v2h-1v2h-1v1h-1v-5h-1 1v-1h1-1v-1h-1v1l-1-1v1-1h-2l1-1-1-1h2v1l1-1v-3h-1 1v-1h1v-1h1l-1 2h1-1 1l-1 1v1h1v1l1-1h-1 1v-1h1l-1 1 1 1h-1 3v-1h1-1 2v1h1-1 1v1h1l1-1h2v-1h4v1h-1v-1 2h1v1h1v1h1v-1l1 1h3v1h1l-1-1h-3v-1h-2l-1-1-1-1h2v-1h1v1-1h2-3v-1 1-1h-2v-1h1l1-1-1 1h-1l-1 1-1-1h-1v1-1 1-1h1v-1h1-1v-1h2-1v-1h2-2v1h-2v-1 1h-1v-1l-1 1v2h-3l1-1 1-1-1 1h-2v1l-1-1h1v-2l1-1h1v-1h1l1-1 1-1h1l1-1h1v-1h-1v1h-1l-1 1h-1l-1 1h-2l-1 1h-3v1h-2v1h-2v1h-1l-1 1v-1 1-1l-1 1v-1h-2l-1-1-1 1v1h-4v-3l1 1v-1h-1l-1 1v-1h2v-1h-1 1-1v-2h-1v-3h1v-2h2l-1-1v1l-1-1v-3h1-1 1-1v-1l1 1v-1h-1 1v-1 1-1l1-1h1v-1 1h1v-2 1l1-1h-1 1v1h1v-1h4v2-1h2v1h2-1v-1l-1 1v-1h-2v-1h-1v-2l1-1v2l1-1h2l1 1h1v1h1l-1-1h-1l-1-1h-1v-1h-1v1-2 1l1-1h-1 2-1v-1 1-1 1-1 1-1h1-1 1v1-1 1l1-1v1-1l1 1h-1 3v-1h1v-1 1l1 1v-1h-1l1-1v1h1-1v-1h-1 1-1v-1l1 1 1-1v1h1v-1h1v-1h3-1v1h1v-1 1h1v1h-1v1h2v-1h4v-1l-1 1v-2h1l1-1h1l1-1h3v1-1 1-1h1v1h1-1 1v-1l-1-1v1-1h1v1-1l1 1v-1h1v-1h1v1h1l-1-1h1v-1 1h1v1l-1 1h1v2h1v1l-1 1h1-1 1v1-2h1v-3 1h1l-1 1h2v1h-1l1 1v1h2v1h1-1v-3l-1-1h1v1-3h1v-1h1l-1 1h1v-2 1h1l1 1v-1h3l1 1h-1 1v1h2v-1h1v2h1-1v1-1h1v-1h1v1h2l1-1h-1v-3h-1 2v-1 1-1l1 1v-1h1-2l1-1h-1v-1h-1v-1h-1 1v-2 1-1h-1l1-1h-1 2v1h1v-1h-1 1v-1h1v-2l1 1v-1 2-1 1-1h1v1-1h1v1h2v1h-1v1h3v-2h3v-1h1v-1 1h2v-1l-1-1v1h1-1v-1h1v1h1-1 1v1-1l1-1 1-1h-1 2-1 1v2-1 2h-1 1v-1 2h1v-2h1v-1h2v-1h2l1-1v1h-1 1v2h-1l1 1h-1 2-1v2-1h4l-1 1h1v1h-1l-1 1h2-1v1h1l1 1h2v-1 1h1v2l-1 1h1v1l1 1h1l1 1h-1 1v1h1v1h2v3l1 1h-1v2h2l1 1v1h2v1h1-1l1 1-1 1h1v-1 2h1v1h1v-3h1v1h1v-1h1l1-1v-1h1v-1h1v-1h1v-1h-1 2l2-1 1-1v-1h-1v-1h4v1h1v-1h1v-1h1v1-1h1v-1h1v-1h1v2l1-1v2h-1v1l-1 1v1h1v-1h1v-1h1v-1h1v2h1-1v1h1l1 1-1 1h1v1h1v-3l1 1v2-1h1-1v-1h1v-1l1-1v1l1 1-1-1v-1h-1v-1h2v-1h1v1h3v1h1v2h1-1 1v1h1v1h-1v1h1v2h1l1-1h-1v-2l-1-1h1v1h1l-1-1h1-2v-1h-1v-1h-1l1-1-1-1h1-1v-1h1v-1h1v-1h1-1v-1h3-1v-1 1l1-1 1 1v-1 1h1l1-1h1v-1h1v2l1 1h-1l-1 1v2l1 1v1-1 1h2v1l1-1h1v1-1h3v1l2-1h2v-1h2v-1h2v-1 1l1-1v1h2v1-1 1h1l-1-1h6v-1h1l1 1v-1h-2v-2l-1 1v1h-1v-1l-1-1h-2v-1h-1v-3h-1v-1h-2v-7h-1v-1h-1v-1h1l1-3v-4h1v-1 2-2h-1v-3l1-1-1-1h1l-1-1h1v-1l1-1 1 1-1-1h-1l-1 1v2h-1l-1-2v-6l1-3-1-3v-4h1-1v-1h-1v2h1-1l-1-1v-1l-1-1v-1l-1-2v-1 1h1l-1-1-2-2v-1h1v-1h-1l1 1h-2v-1l-2-2v-1h-1 1-2l-1-1v-7h-1v-3h-2v-3h1v-1h1v-6l-1-2h-1v-1h-2l-1-1h-1l1-1v-1l-1-1h1-1 1v-1h2v1h1v1-1h3v2h2l1 1h3l1 1 1-1v2h2v-1h1v2-1l1 1v-1 1-1h4v-1l1 1v-1h1v-1 1l1-1v-2h1v1h1v-1h7v1h2v-1 1-1 2h1v1l1 1v2h1l-1 1v1l-1-1-1 2h1v1h-2l-1 1v3l1 1 1 2 1 1 2 3 2 2 1 1v3h-1v1h1v1-1h2v2h1v-2l1-1v-1h4v-1h4l1 1 1 1h1v1h2l1 1h8v1l1-1v1l1-1v1h4l1-1 2 1h6l1 1h2l1 1v1h1l1 1h3v1h1v1h-1 1v-1h1l3-1h3l1-1h1l1-1h1l1-1 2-1 1-1 1-1 1-1 1-2h1l1-1h1l3-1h4v-1l-1-1v1l-1-1h-5v-1h-1l-2-1h4-4v-1h-1v-1l-1-1v-2l1-1v-2l1-1 2-3v-4h-1l1-1v1h1v-2l1-1h1v-1h1l1-1h1l2-1h2v-1l2-1v-1h1l3-1v-1l2-1h1v-1h2v-1l1-1 2-1h2l1-1h7l1-1 2-1h3l3-1 1-1h4l1-1h2v-1h2l2-1 1-1h1l1-1h-1 1v-1 1-1h1v-1h1v-1l2-1 1-1 1-1 2-1v-1l1 1v-1l1-1 2-1 1-1 2-6 1-2 1-1h1l1-1 1 1h-1 1v1h1l2 1 1 1v-1h1-2v-1h-1v-1 1-1h2-1 1l-1-1v1h-1v-1l-1-1v-1h-1v-1h-2v-9h4l-1-1h-1v-1h-1v-6l1-1v-6l1 1 1 1v-1l-1-1v-1h-1v-7l-1-3v-4h1-1v-1 1-1h1l-1 1h1v-1h1v-8h-1v-4h2l1-1 2-1v-1l1-1 1-1 1-1 2-1 1-1h3v-1 1h1l-1-1h2-2 1l2-1h1l1-1h5l4-1V6v1l1-1h2-1l1-1V4l1 1h-1v1h1v1l1 1V7l-1-1h1-1l1-1V4h-2 2l1 1 3-1v1-1h2l2-1 1 1h-1 2-1 1v1-1h-1V3h3l5-2 2-1 1 2 1 4v2l2 1 1 3-2 3h1v4l-1 1v1h1l1 1v2h1l1-1 1 1h2v1l1 2h1v1l1 1 1 2 1 1h2l1 1h1l1 1v-1h1v-2h1v-1l1-1h1l2-1v-1h5v-2l1 1h1l1 1 1 2v1h1v1h-1l1 1 2 1 1 1v1l-1 1v2l1 2 1 1v6l1 1 1 1 1 1h2v1h2l2-1 1-1v-1h3v1l-1 1v2l1-1 3-1 1 1h1l1 1 1 2h1v2l1 2-1 2v3l1 1v2l2 1v-1 1l1-1v-3h4v1h1v-1h2v1h1v1h2l2-2v1h2v-1h2v1h1l1 2 1 1 1-1v1h1v3h1v1h1v-1l-1-1h2v1h1l1 1-1 2h-1l-1 2h-1l1 1v1l-1 1 1 1-1 1-1 1 1 1 1-1h2v4l2 1v1h-1l-1 1v1h-2l-1 2v2h1v1l-1 1h2l1 1v1l2-1h3l1-1 1 1 1 1h4l1 1 2-1h3l1-1 1-1 1-1h3l1-1h2l-1-1h1v-4l-1-1 1-2h1v-1l2-1 1-2h1l1-1 1-1v1h3v1h1l-1 1-1 1 1 2h-1l-1-1v3h-1v2h1l-1 2-1 2v1h-1v2l3 1 1 1 1 1v2l-1 3h-1l1 2 1 2-1 2v1l1-1v1h3v-1h4v1l2 1 1 1h2l1 3v1h2l1 2 1-1v1h3l1-1 1 1v1l2 1 1 1h-1l-1 2 1 1h1v-1l3 1 2 2v2h1v1h-1l2 2v1h-1l1 1v1l1-1h2l1-1 1-1 2 1v1h1v-2l1-1h1v-1l1 1h5v-1h2l1 1h-1l1 1 1-1v2l1 2h5l1 1v2h1v1l1-1 1 1h1l1-1h1l1 1v-1l1-1 1-2 1 1v-1l1-1h6v2h1l1 1 1 1v-1l1 1v-1l1 1h1l1-1h1l1 1v-1l1 1 1 1h1l1 1h1l1 1v1h-1v1h1v1h2l-1 2 1-1v2h-2l1 1v1l1-1v2h1v1h1v1h1v1h1v2h1v3h2v1l-1 2 1 1 1 1v-1l1 1 1-1h1v1h1l1 1 1-1v-1l1-1h-1v-1l-1-1 1-1h1l1 1h1v-1h2v1h2l1 1h1v1-1 1l1-1v4l1 1-1 1 1 1h1v-1l1-1v-1h-1 1l1-1v2l1-1v2h3v-1 1h1v1-1h1l1-1 1 1h1v1h1l1-1v-1l1-1h2v-2l4-1v2-1h1v1l1-1h1v1h1v1h-1v1-1 2h1v1l1 1 2 2 2-1 1 1v2l3 1v-1h1v-1 1h2v1-1h2v-1h2v1h2v1l1 1 1-1v-1l1 1v-1 1h1l1-2v1h1v1h1v1h2v1-1l1 1h1v1h1v1h3v1h4v1h1v-1h1v1l-2 1-1 2-2 2-1 2v1l-1 2v2l-1 1v1h-1v1l-1-1-1 1v1l-1 1h-2v3h-1l-4 5-1 1h-1v1l-1 1-1 3h-1v1l1 1v4l-1 1-1 1v3l-2 5v6l-2 1-1 1v1l-1 5-1 1-1 2-1 2v2h-1v1h-1l1 1-1 1v5l2 3 1 1v1l-1 2-1 1v3l-1 1-1 1v1l1 1v1h-1v1l-1 4 1 3v1l-1 1-1 1v3l1 1 2 1v2l1 1v2h-2v1l-2 2h-1v1h2l-1 1h-1v-1l1 2-2 2-2-2-1 2h2l-1 1h-1v1l-1 1-1 1-2-1h-2l-4 2v-2h-4l1-1v-2l1-1h-2l-1-1h-1l-1 1h-2l-2-1h-1l-2 1v1h1v2h-2v1h-1v3h-2v1l-1 1v2l1-1 1 1 4-1 1-1 1 1h1v2l-1 1h-1v2h-2v1h-2v3l1 1h-1v1h-1l-2 2-1 1-1 1v1l-3 3-2 1h-1v2h-2v2l1 1-1 1h-1l-2 1-1 2-1 1h-1l-2 1-3 1v-1l-2 1-1 2-1 1 2 3v3l-1 2v1h-1v1l2 1-1 1-1 1-2 1v1h-1v1h-1l-1 1-4 2v1l-5 5-2 1-1 1v1l2 2v1h-1l-1 1-1 3-1 1v2l-1 2ZM387 683v-1h1-2v1l-1 1 1 1h2l-1-1v-1ZM125 312Zm-1-2v1h-1v1h-1v-2l1 1 1-1Zm-21 3Zm5 2-1-1-1 1-1-1v1h-1v-1h-1v-1 1-3h-1v-3h1v-1 1h2-1 1l1 1h2v2l1 1h1v1h3v1l-1 1v1h-1v-1h-3Zm10-5Zm0 0Zm1-1Zm-3-4h-1 1Zm-1 0Zm2 1h1v1h2-1v2-2l-1 1v-1h-2 1v-1Zm-1 0h1-1ZM15 254v1h2v1l-1-1v1-1h-2l1-1v1-1Zm1 1v-1 1Zm28-5Zm-11-17Zm0 0Zm4-1Zm-21-3v1h-1l1-1Zm-5-1v-1h1v1h-1Zm3 0Zm0 0h-1v-1 1-1l1 1Zm0-1v1-1Zm-1 0v-1 1Zm-2 0Zm49 53Zm1 0Zm0 0Zm-18-4Zm30-1v1-1Zm-32 0v-1 1Zm11-5h1v1h-1v-1Zm-9 5Zm1 0v-1 1Zm7 0Zm22 1v1-1Zm-29 0Zm17 0h-1 1ZM9 224H8h1Zm-2-1v1-1Zm-1-2Zm-4 1H1h1Zm2-3h1-1 1v1h1v1H4v1l-1-1v1l-1 1v-1l-1 1v-1h1l1-1H1v1H0v-1 1-1h1v-1h1v-1h2v-1 1Zm-2 0h1-1Zm8 6v1-1Zm1 0v1h-1v-1h1Zm8-2Zm0-1Zm1-3v-1 1Zm0-4Zm4-3Zm-1 0h-1 1Zm1-1Zm5-1h-1 1Zm-2 0Zm2-1Zm0 1Zm1-1h1-1Zm110 0Zm-111-1v1-1Zm0 0h-1 1Zm1 1v-1 1Zm-1 0h-1 1Zm0 0Zm0 0Zm-1 0h-1 1Zm-3 2h1-1Zm1 0Zm-1 0Zm1 0v-1 1Zm86 90Zm24-3Zm-17-2Zm10-1Zm-16 6Zm-6-7Zm0 0h1-1Zm22-3Zm-14-1v1-1Zm12 0Zm-1 0Zm3-1v1l1-1v1h-1v-1Zm-1 3Zm-8-1Zm7-1v1-1h1-1 1v1h1-2v1h-1 1v-2Zm-21 0-1-1h1v1Zm22-1h1-1Zm-38-3h1l1 1h2v2h-1v-1h-1v1h-1v-1h-1l-1-1-1-1h2Zm17-3Zm-1 0v-1 1Zm-45-1v-1 1Zm1-1h-1 1Zm3-1v1h-1v-1h1Zm-3 1h1v1h-1v-1Zm2 0Zm43 2Zm-1 0Zm1 0Zm20 7v-1 1Zm-2-1h-1 1Zm0 5v-1 1Zm1 0-1-1h1v1Zm2-1h-1 1Zm-7-1h-1 1Zm-7 0Zm7 0v1-1Zm7 0v1h-1v-1h1Zm-12 1Zm11 0Zm-9 0v1-1h-1 1Zm7 0h-1 1Zm-2 0h-1 1Zm0 0h-1v-1h1v1Zm8-1v-1 1Zm-1 0Zm-10 0Zm1 0Zm1 0Zm2 0h-1 1Zm-1 0h-1 1Zm2-2v1h1-1l-1 1v1h1-1v-3h1Zm-28-10Zm-35 0h-1 1Zm1 0h-1 1Zm28-95Zm22 0Zm1 0Zm-21 0h-1v-1h1v1Zm21 0v-1 1Zm-2-1h-1 1Zm14-16v-1 1Zm-97 40Zm131 0v-1 1Zm-1 0Zm-128 0Zm-1-1Zm130 0Zm2-1Zm-125 0Zm-6 0Zm131 1Zm-1 0h-1 1-1 1l-1-1h1v1Zm-130 0h-1l1-1v1Zm4-1v1-1Zm-4 0Zm138-1v-1 1Zm-128-1Zm24 0v-1 1Zm-18 0Zm-4-1h-1v-1l1 1Zm26 0Zm98 0h-1 1Zm13-1v1-1Zm-8 0Zm-118-1Zm122 0Zm-109 0Zm106 0Zm-91 0h-1 1Zm98 2Zm-11 2Zm-2 0Zm-109-5Zm2 0Zm11 0Zm109 0h-1 1Zm-120-1Zm-1 1Zm7 0Zm-5 0Zm-2-1Zm26-1v1-1Zm-22 0Zm-1-1Zm22-2v1-1Zm-24 2v-1h1v1h-1Zm4 1Zm-2-1h1v1h-1v-1h-1v1-1l-1 1v-1 1-1h1v-1 1h1Zm57-2Zm-35-1Zm35 1v-1 1Zm-36-1Zm0 1v-1 1Zm1-1Zm-1 0v1-1Zm33-1Zm-32 1v-1 1Zm31-1v1-1Zm-31 0Zm1-1v-1 1Zm1-1Zm0 0v1-1Zm10 0v-1 1Zm-8-1h-1 1Zm7 1h1-1Zm-7 0h-1l1-1v1Zm-2 0v-1 1Zm29-4v1h-1v-1h1Zm2 1Zm-16 0v-1 1Zm0 0h-1v-1h1v1Zm4-1Zm8 0v1-1Zm-4 1h-1v-1h1v1Zm-6-1v1-1Zm3 0v1-1h-1 1Zm-17 0v-1 1Zm2-1h-2 2Zm-2 0h1-1Zm16 0Zm1 0h1v1h-1 1l-1 1v-2 1-1Zm-2 1Zm13 2v1-1Zm0 0Zm-3 0Zm4 0h-1 1Zm-19 0Zm0 0Zm13 0Zm0 0Zm-12-1v1h-1v-1h1v1-1Zm2 1Zm-12 1Zm8 0Zm18 0h-1 1Zm-1 0Zm-1 0Zm0 0v-1 1Zm-25 0v-1 1Zm5-1v1-1Zm7 0v1h-1v-1h1Zm14 0h1l-1 1v-1Zm-13-1v1-1Zm13 1Zm2-2v3h-1v-1 1-2 1-2h1Zm-12 1h1-1v1-1Zm7 0v1-1Zm-9 0h-1 1Zm15 5h-1 1Zm-34-1v1h-1 1l-1-1h1v1-1Zm-1 1v-1 1Zm0 0h1-1Zm0-1v1-1Zm4 0Zm-1 0v1-1Zm687 567Zm-4-2Zm3-1Zm0 0h-1v1h-1v-1h-1v1-1h-1l1-1-1 1h-1v-1 1l-1-1h-2v-1 1h-1v-2 1l-1-1v1-1l-1 1v-1h1-1v-1l-1 1v-1 1h-1v-1l1-1h-1 1-2l-1-1h1-2v-1h1-1v-1h-1v-1h1v-3h1v1h1v-1h1l1-1h1v-1h1v-1h1v-1h-4l-1-1-1-1v1h-1 1-1v1-1h-1v-1h1v-1h-3v1h-2l1-1h-2v-1h-1v1-1h2v-1h1l1-1v-1h-1v-1h1v1l1-1h-1 1v-1 1h1v-1 1-1l1-1h-1v-1h-1 2v-3h1v-1l-1-1v-1h-2v1h-2v1l-1-1-1 1v-1 1l-1-1h-1v1h-2 1-1v-1h1v-2h-1v-1h-1v-1h4v-1h1v-1h-1v-1l1-1h2v-1h2v-2h-2 1l-1-2-1 1 1-1v-1h-1v-1 1h-2v-1h-2v-1h-2l1-1h-2v-1 1-1h1l1-1h-1l-1 1v-1h1v-2h-1v-1h1-1v-1h-1v-1l1 1v-1h2v-1h5v-2h-1v-1h-3l1-1h-2v-1h1v-2h-2v1h-1v1-1 1-1h-1 1-1v-1h1-1 1l-1-1h-1 1v-1 1h1v-1h1-1 2v-1 1-3h2v1h1v-2l-1-1h2-1v-1h1v-1h-1v-3h2v-1h1v1-3h1-1v-2h1v2-1h2-1v1h2l1-1v-3h1v1-1 1h1v-1h2v-1h2v-1h1v-1 1h5v-1h1l1-1-1-1h1v-1h1v-2h2v-1h4v1l1-1h1v1h2l-1 1h1v1-1 1h1v1h1v-1h1v-2h1v-7h-1v-1h-1l1-1v-1h1v-1h-1v-3h2v-3h-1v-1h1-1 1v-1h-1v-2h4v-1l1 1h1v1h1v1h-1v2h1v5h1-1v1h1v7h-1v3l-1 1v2-1 4l1 2 2 3 1 1v2h1v1h-1 1-1l1 1-1 1v1l1 1v6l-1 1v1l1 2v2h1v14l-1 1-1 2-3 5-1 1-1 1-1 1v2-1h-1 1l-1 1h1v3h-1v3h1-1v1h1-1l1 1v1h-1v3h1v2h-1 1l-1 1 1 1h-1l1 1h-1v1l-1 1v1h1v-1 1h-1 1v1h-1l1 1h-1v-1 1h-1 1-1l-1 1h1v1-1l-1 1v-1l-1 1v-1h-1v1h-1v2h1l1-1v-1 1h3v1l-1-1v2h-1 1l-1 1h-2v1l-1 1h-1 1v2h-1 1v2h-1 1v1h-1v-1 1h-1v1h-2 1v2h-1 1l-1 1h1l1-1v-1h1v1h-1v2h-1v2h-3v-2h-3l1-1h-1l-1 1v-1h-1 1v-1h1-1v-1h1v-1h-1 1-3v-2h1Zm-18-25v1-1Zm-8-5v1h-1l1-1Zm0 0Zm0 0Zm36 39h-1 1v1h-1v-1h1Zm-1 0Zm1 0h-1 1Zm0-2v1-1l1 1h-2l1-1Zm-2 0Zm1 0Zm7-10v1-1Zm-1-3v1-1Zm1 0h-1 1Zm0-1v1-1Zm-1 2Zm0-7Zm6-98Zm-3-4v1-1Zm-4 5ZM406 3ZM197 204Zm-16-17Zm2 0Zm-2 0Zm-1-1v1h-1 1-1v-1 1-1h1Zm3 1v-1 1Zm-5 0v-1 1Zm3-1Zm1 0v1-1h-1 1Zm-2 0h1v1l-1-1h-1 1Zm-2 0h1-1Zm1 0Zm3 0Zm-3 0Zm2 0h-1 1Zm-1 0v-1 1Zm1-1Zm0 0Zm-1 0h-1 1Zm-2 0Zm2 0Zm-13-6Zm28-5v-1 1Zm21-39h1-1Zm1 0Zm69-14Zm-76 7v1-1Zm2-1v1l-1-1h1Zm4 390h-1v-1l1 1Zm31-25v1h-1l-1-2-1-1v-1l-1-1-1-1h1v1h1l1 2 1 1 1 1Zm-33-63v1l-1 1v1h-1l-1-2v-3l-1-1v-1l-1-1v1h-1v-1h-1l-1-1-1-1v-1h-1v-2l-1-1h1-1 1v-2h-1v-2l-1-1h1-1 2l1 1v1h1l1 1 1 1h-1 1l1 1 2-1 1 1v2-1 2h1v1h-1 1-1v1h1v1h1v1l1 1h-1v3Zm30 61Zm-2-5h1-1Zm0-2v1l-1-2v-1l1-1v3Zm-1-3v2l-1-2h1Zm0-2v3-1l-1-1v-1l1-1v1Zm-1-1Zm-24-48Zm3-9h1-1v1-1h-1 1Zm-1-1v1-1h-1 1-1 1Zm-2-4h1-1v1h-1v-1h1Zm-6-12v1h1l-1 1h-1v1-1l-1 1v-1h-2l-1-1-1-1h-1l-1-1h-1l-1-1h-1l-1 1h-1v-1h-1v-1h-1v-1l-1-1 1-1v1h1l1-1v-1 1l1-1v1h1v2h-1v-1 1h-1v1h1v1l1-1 1-1h-1 4-1v1h-1l1 1h3v-1 1h2v1h2v1h1Zm233 253v-1 1Zm-1-4h1-1Zm0-13h1l-1 1v-1Zm0-1v1-1Zm38-23Zm-34 25h1-1ZM178 369Zm-28-10h1v1h2v1h1l1 1v1-1h-1v1h-2v-1 1l-1-1h-1v-1h-1v-2l1 1v-1Zm-1 1h-1l1-1v1Zm12-19 1 1v1h1-1v1h1-1l1 1h-1l1 1h-1l-1-1v-2h-1v-1l-1-1h-3l-1-1-1-1v-1l1-1h-1v-1h3l1 1h1v2l-1-1v2h1l2 1Zm-10-6Zm-1-16h-1 1Zm2-1v-1 1Zm-5-3Zm17 0h-1 1Zm-20-1Zm1-1h-1 1Zm-8-8Zm481 338v2h-2v1h-1v-1h-1v-1 1l-1-1h4v-1 1l1-1Zm-4 1h-1 1Zm-1-1h-1 1Zm13 2Zm-8 0v-1h1v1h-1Zm9-2v1-1h1l-1 1v1h-2v-1h1-1l1-1h1Zm-2 0v1h-1v-1h1Zm7-3v1h1-2v1l-1 1h-1v1h-1v-1l1-1h1v-1h2v-1Zm30-33Zm0 0h-1l1-1v1Zm1-1Zm-1 0h1-2v-1 1-1l1 1Zm-69 33h1-1Zm0-1v1h1-1v-1Zm-1 0v1-1Zm-1-3Zm-7-3v1-1Zm-13-1h1v1h-1v-1Zm0-1 1 1-1-1Zm-1-1v1h1-1v-1Zm-2 0h1-1v-1 1Zm0-6v1h-1l-1 1 1-1h-1 1v-1 1-1h1Zm0 1Zm0-5h1v1h1v2-1l-1-1-1-1Zm0-1Zm-24-1v1-1Z"/></svg>