<svg xmlns="http://www.w3.org/2000/svg" viewBox="0 0 798 985"><path d="M 293.76 53.35 293.85 52.61 297.43 53.04 302.24 52.99 308.66 52.53 309.12 52.06 311.32 52.23 315.92 53.8 316.68 53.59 318.93 54.27 319.83 55.03 322.49 55.76 329.34 56.9 333.2 58.78 338.04 59.62 343.7 57.88 343.94 56.44 341.9 55.33 342.5 53.97 343.99 53.42 344.08 53.04 345.3 52.99 345.82 52.23 347.77 52.53 348.02 51.93 356.99 56.39 358.64 56.74 363.27 59.32 366.72 60.22 370.74 62.21 374.52 63.02 374.57 63.62 375.8 64.3 376.77 64 378.13 64.9 379.87 65.14 380.25 65.82 380.85 65.66 381.45 66.26 382.29 66.26 383.27 67.1 384.47 67.1 384.63 67.78 385.31 67.86 385.91 69.98 387.27 70.58 387.73 71.7 390.36 72.32 392.7 75.12 396.7 76.83 399.28 78.82 399.96 78.74 405.48 81.29 412.19 80.48 415.04 80.78 419.96 83.58 425.4 84.86 430.92 87.28 431.82 88.34 438.83 91.95 442.77 94.97 443.58 94.89 445.02 96.17 448.72 97.77 448.64 98.37 450.24 98.97 452.72 101.17 454.62 100.79 457.34 104.02 457.72 103.81 456.96 102.61 457.42 101.77 458.48 101.17 458.78 101.77 460.44 102.61 462.18 104.19 462.86 105.33 462.31 106.53 462.86 106.06 463.92 106.36 466.01 107.97 468.21 110.52 468.43 111.5 467.99 112.35 467.23 113.02 465.87 112.73 466.31 113.24 467.99 113.62 468.35 114.09 469.03 113.62 469.87 113.7 470.68 114.68 473.18 115.15 477.26 118.16 477.42 119.82 477.8 119.66 477.86 117.57 479.76 118.08 480.06 119.31 481.42 120.64 481.26 121.56 481.58 121.94 482.48 121.7 484.06 123.98 484.3 125.86 484.98 127.14 485.71 127.9 486.64 127.46 487.62 128.96 488.51 129.26 489.49 132.19 489.41 134.61 490.72 135.97 492.21 136.06 493.11 136.6 495.77 140.73 497.57 141.57 498.63 142.93 500.15 143.61 503 146.03 505.67 147.09 507.32 148.83 508.68 149.22 509.74 150.33 511.7 150.19 513.44 154.49 518.41 159.93 519.61 160.74 520.45 160.69 521.65 161.75 521.51 162.35 520.83 161.89 519.99 162.1 518.71 163.71 519.01 164.17 520.37 164.69 522.35 166.45 524.23 167.11 525.37 168 526.27 168.09 529.67 170.64 534.56 176.84 535.56 177.3 536.46 178.74 539.34 180.7 540.84 182.52 544.4 183.94 545.68 184.02 548.31 185.3 549.37 186.36 549.67 187.42 551.55 189.32 553.91 190.06 555.71 191.8 556.25 191.66 556.63 192.48 559.7 194.38 560.33 193.7 562.45 195.87 561.9 196.17 562.07 196.64 563.26 196.72 564.32 197.45 564.32 198.38 566.36 199.35 567.34 201.39 570.06 203.22 571.2 204.71 572.31 205.17 572.69 204.63 573.83 205.61 573.92 206.75 576.39 206.61 576.09 208.35 577.69 209.25 579.05 208.87 580.03 210.75 579.65 211.97 581.91 213.33 582.12 214.15 582.51 213.93 583.13 214.47 587.94 222.77 592.4 226.63 595.2 227.9 599.36 227.99 600.42 226.76 600.93 225.02 600.85 223.61 599.82 222 600.42 221.7 600.5 220.73 602.67 220.73 603.22 220.51 603.14 219.88 603.52 220.35 604.55 219.96 605.01 220.43 607.73 218.47 610.07 218.52 610.45 220.05 612.02 221.32 613.25 221.62 614.01 220.94 614.44 221.11 615.07 221.95 614.61 222.93 615.07 223.96 617.49 225.4 619.82 227.82 621.86 229.1 621.86 230.11 620.8 229.78 620.42 230.32 620.5 232.66 622.98 234.84 624.96 235.84 625.61 238.4 631.76 244.22 635.67 244.82 636.27 245.71 638.01 246.39 639.29 248.76 640.43 249.74 640.64 251.99 641.49 252.16 642.38 253.27 643.44 253.74 643.44 252.59 643.74 252.59 644.8 254.2 646.62 254.12 647.06 253.65 648.42 255.23 649.86 255.77 650.92 257.98 650.92 259.69 651.46 260.75 652.36 261.73 654.86 262.95 655.59 265.29 655.76 264.23 655 262.03 653.94 261.21 653.64 259.93 656.44 261.35 657.55 262.87 658.69 263.17 658.77 264.45 658.26 264.91 659.07 265.81 659.37 265.07 660.05 264.75 660.3 265.29 661.71 265.97 662.99 267.49 662.47 267.49 662.93 268.69 663.99 268.53 664.29 269.67 665.65 271.19 666.25 271.41 665.65 270.05 664.81 269.45 665.27 268.99 673.89 275.11 675.93 275.41 676.14 276.09 678.1 277.36 678.94 277.36 681.8 278.89 682.1 279.65 682.64 279.19 683.75 279.4 683.84 280.08 684.3 280.25 683.75 280.54 684.6 281.01 685.36 282.58 684.76 283.05 684.05 282.5 684.76 283.56 687.45 284.41 688.84 286.15 689.14 285.52 689.49 285.77 689.57 287.04 690.25 287.34 690.93 288.7 691.31 291.34 691.99 292.56 693.13 292.62 691.99 293.19 692.1 293.46 695.17 295.64 700.39 299.03 709.55 299.58 716.02 295.5 717.38 293.38 720.31 293.16 720.45 293.68 721.59 293.98 723.33 293.92 727.7 295.8 727.87 296.64 729.91 297.08 730.29 298.06 731.48 298.3 733.98 300.09 735.26 300.42 736.08 301.54 738.06 302.84 739.18 304.55 741.16 305.61 740.62 306.59 742.36 307.9 744.31 308.5 744.18 309.31 746.43 312.58 747.49 313.39 746.89 311.9 747.03 311.65 747.93 312.79 749.37 316.49 749.07 316.74 748.31 315.89 748.55 317.03 749.61 317.93 749.75 319.37 750.73 319.67 751.27 320.65 750.51 323.53 751.79 326.55 752.55 331.74 752.93 331.99 752.93 333.4 754.04 336.96 753.69 338.03 754.12 342.1 753.69 344.14 754.67 345.88 754.29 347.08 754.89 348.82 757.01 351.92 758.45 353.14 759.04 354.42 761.08 355.54 760.4 356.6 760.54 357.87 759.26 358.55 759.64 360.08 759.04 361.06 759.34 363.09 760.62 362.88 760.4 363.64 761.3 363.86 763.42 366.87 767.71 369.97 769.24 370.27 770.3 371.63 772.63 371.17 773.45 369.51 775.19 369.67 775.87 370.27 775.35 372.31 775.57 373.29 774.21 372.91 771.96 374.35 771.19 375.33 770.43 378.05 769.84 378.27 770.22 378.89 769.16 378.95 768.26 381.15 768.48 385.23 771.66 394.45 773.83 398.44 774.81 399.04 776.79 402.44 778.21 404.04 779.27 404.13 779.51 404.72 778.97 405.02 778.97 406.22 779.89 407.96 781.77 409.62 783.21 409.92 784.1 410.9 784.49 412.8 785.08 413.56 799 412.88 797.21 424.35 796.69 424.87 796.99 429.77 795.79 433.76 791.53 441.81 789.95 445.81 788.56 454.56 784.89 463.37 782.83 465.98 780.71 467.1 774.73 468.65 770.05 470.82 765.49 474.06 759.02 477.84 754.12 484.94 751.3 490.94 751.22 495.81 749.69 502.74 747.49 507.23 741.73 512.4 739.23 516.01 736.24 518.92 735.23 519.3 725.86 529.58 720.88 531.95 716.07 535.73 713.68 536.73 713.33 538.69 714.96 546.14 714.66 549.29 714.09 550.25 710.04 552.04 705.36 552.58 703.19 553.84 700.28 556.72 696.53 566.56 695.06 574.72 693.7 579.75 688.35 585.89 684.54 589.26 676.66 605.63 676.61 606.91 675.79 607.97 673.94 608.98 672.47 611.56 669.59 620.23 668.26 622.25 663.67 626.3 660.3 631.03 649.23 649.6 647.28 654.33 642.17 660.26 641.11 662.87 641.27 665.56 639.67 668.69 638.09 670.1 629.91 680.95 627.98 681.82 626.97 681.82 623.87 679.94 622.81 680.11 615.91 684.78 611.13 693.97 611.43 699.98 608.14 699.96 606.15 700.58 603.41 702.4 601.5 706.81 599.41 709.45 601.15 710.94 600.5 711.59 598.54 711.78 597.7 712.27 597.37 714.42 599.82 715.05 600.44 716.33 599 719.37 599.17 720.95 599.9 722.36 603.03 724.94 602.92 728.67 602.13 731.74 597.59 738.84 596.64 740.99 594.79 743.33 594.33 746.18 592.02 750.07 589.41 760.56 585.06 764.04 584.54 767.69 585.06 770.62 585.69 770.95 587.64 770.68 588.38 772.53 587.23 774.4 584.41 776.77 583.51 777.1 580.49 777.04 579.6 778.24 577.91 778.46 575.6 780.47 570.46 789.66 561.11 808.42 562.12 810.95 561.77 812.17 560.11 814.46 560.84 816.14 558.04 820.98 555.35 824.54 553.39 829.82 550.3 834.9 547.71 842.38 546.79 843.33 543.53 843.11 541.84 843.9 541.08 845.04 540.62 846.89 540.92 847.95 543.83 850.1 543.88 851.41 542.66 852.88 542.5 853.77 543.39 855.21 545.29 856.19 547.14 858.1 547.74 860.62 546.84 863.02 544.94 865.79 544.34 868.37 541.82 867.48 540.18 870.03 539.89 873.81 540.27 874.74 541.33 874.82 541.79 876.56 541.11 878.68 534.18 884.88 531.65 887.6 530.48 890.02 528.55 892.11 525.56 891.76 522.84 893.63 522.68 894.2 523.74 895.1 524.75 895.27 524.94 896.57 524.28 898.75 520.61 899.7 519.94 900.49 518.6 899.94 517.92 900.11 515.69 903.8 516.1 905.19 513.49 908.97 512.81 910.98 512.98 913.29 512 916.17 509.2 918.92 504.82 919.63 501.7 920.63 497.78 922.78 496.67 924.3 496.12 925.99 493.84 927 492.37 928.25 491.53 927.98 484.17 931.56 482.7 931.86 481.53 933.03 479.63 933.66 476.96 936.65 475.11 937.17 473.05 938.53 467.69 939.59 466.74 940.32 464.32 940.62 463.7 942.11 463.78 943.04 460.08 943.04 459.54 943.72 460.3 946.46 459.43 948.5 455.41 950.49 454.05 954.4 453.21 955.49 451.47 956.47 451.22 959.38 450.57 960.96 448.15 964.27 446.93 968.33 445.98 969.01 444.54 968.95 442.01 967.95 440.35 968.52 437.6 967.56 436.82 968.79 437.5 970.31 435.59 971.72 433.74 972.3 430.84 972.35 423.69 974.39 419.88 972.11 417.65 971.94 414.04 970.5 408.41 969.69 407.14 969.09 404.34 966.88 400.12 960.28 397.57 959.57 394.28 959.43 392.29 958.54 386.83 959.46 385.01 959.03 382.21 959.52 380.42 960.44 377.86 959.9 376.64 960.69 372.29 960.69 369.05 959.92 366.31 958.54 358.7 946.63 355.68 944.94 350.63 943.8 345.92 941.11 341.96 940.65 337.17 941.14 329.07 943.66 321.92 946.17 318.09 946.76 312.25 946.52 305.42 943.17 299.09 934.09 294.93 930.83 292.02 930.26 288.36 930.69 284.44 932.19 278.46 935.86 272.48 937.71 266.04 938.58 262.37 940.1 256.39 941.68 246.14 941.65 235.65 943.2 231.55 942.58 229.18 941.76 224.34 939.04 217.09 933.47 215.54 930.97 213.25 925.09 212.38 924.01 209.29 921.83 205.62 921.69 203.44 922.86 200.07 926.67 199.2 930.99 199.2 933.11 197.76 934.61 194.66 935.43 186.7 935.29 181.97 936.65 172.89 943.64 171.72 943.12 169.55 939.8 165.55 940.62 163.81 942.5 163.38 944.04 163.57 950.19 162.89 952.56 159.27 956.55 155.03 958.62 151.69 959.35 146.85 961.47 143.48 964.9 139.84 966.67 138.7 966.88 137.15 966.4 134.21 964.63 131.85 964.63 129.57 965.39 127.2 967.05 125.22 969.01 123.29 974.8 122.39 978.93 120.73 982.87 118.34 985.95 117.31 986 114.32 983.61 111.46 983.04 106.49 982.85 103.25 979.28 101.11 973.9 99.04 972.27 96.95 971.89 93.39 972.32 74.25 978.3 69.85 978.47 63.03 977.65 58 976.46 56.26 974.96 54.44 971.02 50.85 969.06 50.41 968 50.22 964.95 47.07 962.13 37.07 962.67 32.72 961.56 24.21 960.41 20.6 959.08 14.26 951.14 11.93 949.56 8.88 948.99 8.07 948.37 3.39 947.63 1.3 945.81 1 944.37 2.17 942.25 7.58 941.95 7.9 941.33 7.47 939.99 5.38 938.47 6.16 937.49 14.97 936.89 18.4 934.88 19.7 933.39 21.01 932.76 24.1 932.76 25.92 932.22 30.57 928.46 31.09 927.02 30.41 924.9 27.42 920.88 27.12 915.44 27.42 906.01 28.18 902.74 29.19 901.76 32.67 902.5 35 901.33 39.98 893.96 42.91 892.33 43.13 890.24 49.65 885.2 51.15 882.84 54.79 873.02 54.27 868.97 54.63 868.13 57.4 866.36 58.51 864.73 60.39 858.2 61.5 855.54 63.03 853.88 61.94 850.59 62.21 849.97 67.05 843.77 72.13 838.68 74.03 835.07 76.02 827.7 77.08 825.71 78.63 824.54 79.69 822.78 81.86 821.88 84.36 818.1 86.05 816.47 88.28 815.38 87.98 814.21 88.33 813.07 89.34 813.4 90.07 813.12 92 809.81 92.11 807.14 92.76 805.46 94.39 803.36 93.5 800.26 94.04 798.2 93.63 796.1 94.01 794.88 94.86 794.2 96.59 794.06 98.23 793.33 100.16 788.22 100.16 787.43 99.15 786.07 97.3 785.85 96.16 785.06 95.78 783.05 96.05 781.07 98.14 775.19 98.09 773.02 97.46 771.33 98.04 770.54 99.42 770.19 100.64 768.78 101.43 766.68 101.35 764.78 102.09 763.15 101.46 761.52 102.68 759.99 104.94 759.99 105.32 759.12 104.26 757.63 102.63 757.27 99.77 754.94 98.52 751.84 99.12 749.99 101.43 748.74 102.19 747.16 100.73 743.22 99.58 738.27 96.95 734.05 97.33 732.2 101.3 729.13 101.24 727.75 100.29 725.08 101.79 722.61 100.59 717.98 99.23 715.29 97.33 713.77 95.59 714.01 94.2 715.65 93.09 716 91.62 715.1 91.13 714.01 91.95 712.84 94.18 711.43 92.95 710.32 91.48 710.07 91.05 709.12 91.7 708.06 93.28 707.16 94.77 701.02 96.7 697.18 95.81 695.25 96.27 694.57 97.17 694.14 101.19 694.06 101.9 693.49 103.42 690.39 104.53 689.46 107.44 684.13 108.74 680.76 113.04 676.93 116.22 672.44 120.89 669.64 125 669.07 127.47 667.82 130.08 665.07 131.33 662.13 134.1 651.26 134.48 646.2 135.35 644.43 139.62 640.38 142.04 637.39 144.46 633.48 145.09 630.78 144.81 625.94 147.26 616.94 148.29 599.76 149.54 593.45 150.74 591.36 153.16 588.97 154.38 585.65 154.11 583.53 152.02 580.21 150.55 575.37 147.88 572.65 145.41 572.05 141.17 576.7 138.43 576.43 136.25 574.83 134.84 570.31 130.73 567.43 127.17 561.91 127.69 554.71 124.07 548.59 121.11 541.82 114.83 531.87 113.58 530.72 110.97 530.48 98.91 530.45 95.86 529.01 95.18 527 95.56 524.69 97.41 521.07 97.25 518.57 94.69 516.75 86.4 514.22 82.54 511.23 80.31 507.34 79.44 504.78 77.65 502.01 74.42 499.56 71.48 496.44 69.44 493.26 67.46 488.69 66.4 481.24 62.1 473.9 59.38 471.29 53.11 468.7 49.74 464.62 49.68 461.55 53.4 456.11 54.85 453.26 56.18 446.24 60.04 441.43 60.96 438.3 60.34 436.73 57.62 434.61 53.87 433.35 49.65 430.15 43.97 427.7 42.48 425.58 42.61 421.39 44.63 415.38 44.92 411.68 44.49 405.76 42.26 399.23 42.53 389.47 42.04 386.64 38.62 379.27 35.9 377.97 34.43 375.77 34.32 371.77 31.52 365.38 30.76 361.82 30.41 355.86 31.23 353.61 31.23 349.99 26.93 335.28 28.7 332.59 33.64 328.56 34.95 325.82 36.44 320.13 35.95 311.13 34.51 308.74 30.46 304.01 31.52 298.87 32.88 296.12 32.15 293.38 31.85 286.61 32.83 284 32.58 282.99 28.86 279.54 27.85 279.1 25.25 279.54 23.18 278.97 21.49 276.22 23.32 264.09 21.77 257.13 21.28 247.43 21.47 241.74 19.18 233.48 19.37 231.49 21.3 228.99 23.29 224.91 26.47 222.06 27.66 219.37 28.15 215.67 27.85 210.8 28.43 206.34 29.73 201.53 35.36 187.28 38.73 181.79 43.4 178.77 46.53 174.53 48.02 169.66 49.6 167.73 52.15 166.24 53.59 162.65 59.76 151.42 66.51 140.16 73.87 132.98 84.61 125.56 89.66 123 92.9 120.56 99.2 113.38 100.59 112.37 106.71 110.52 110.02 108.13 111.27 105.9 112.2 98.26 113.83 95.08 121.95 85.21 127.39 77.51 138.26 66.77 141.69 62.42 144.32 57.42 145.49 49.78 145.11 36.32 147.23 35.34 148.4 28.71 149.57 24.98 151.34 21.77 153.97 18.48 155.03 18.05 155.5 18.35 156.07 16.91 155.6 15.68 155.77 12.18 156.37 10.71 159.33 7.5 160.9 3.28 161.56 2.6 162.86 2.31 165.91 2.22 170.5 3.37 176.83 6 188.47 6.38 192.03 5.54 195.26 6.52 198.14 6.68 203.58 8.42 209.39 11.52 210.97 12.88 214.15 14.24 216.41 15.98 221.93 18.92 224.78 21.09 230.08 23.51 234.67 26.53 240.95 29.03 243.07 29.33 244.57 30.47 247.15 30.86 257.78 36.05 259.3 36.13 264.49 38.09 267.75 40.51 269.25 40.81 270.99 42.41 271.53 42.41 272.81 43.53 273.87 43.69 274.25 44.53 274.93 44.37 278.46 46.87 282.1 48.58 284.06 48.91 293.71 52.53 293.76 53.35 Z M 533.74 128.36 534.64 128.44 534.64 128.88 533.15 129.48 532.98 128.36 533.74 128.36 Z M 531.92 126.78 532.68 126.7 532.76 127.82 530.51 127.38 530.81 126.54 531.92 126.78 Z M 534.34 124.96 533.06 126.4 532.55 126.32 533.36 124.66 534.21 124.42 534.34 124.96 Z M 416.57 79.72 416.78 79.72 417.16 80.86 415.64 79.88 416.57 79.72 Z M 765.08 353.58 763.72 354.34 763.12 355.54 761.6 355.48 762.22 354.86 762.52 353.58 764.32 352.98 765.16 353.06 765.08 353.58 Z M 742.44 306.21 744.01 307.27 744.01 307.44 743.5 307.52 742.19 306.21 741.51 306.46 741.68 306 742.44 306.21 Z M 730.42 295.58 731.18 295.72 731.27 296.26 729.74 296.18 729.28 295.36 730.42 295.58 Z M 709.44 253.14 709.06 253.27 708.76 252.51 709.44 252.67 709.44 253.14 Z M 646.16 235.98 645.56 236.22 645.35 235.76 646.08 235.52 646.16 235.98 Z M 646.71 235.22 647.14 234.84 647.44 234.84 646.92 235.76 646.54 235.76 646.71 235.22 Z M 642.98 235.22 642.47 235.6 641.57 235.38 640.35 234.62 640.13 234.02 641.62 234.32 642 233.94 642.68 234.16 643.15 233.64 642.98 235.22 Z M 636.13 223.53 637.25 224.21 637.25 225.57 636.57 225.65 636.05 225.02 635.75 223.23 636.13 223.53 Z M 622.92 216.13 623.14 215.89 623.74 215.75 623.44 216.43 622.92 216.13 Z M 179.33 1 185.15 2.6 190.67 4.78 191.27 5.41 185.23 3.5 177.21 3.88 174.58 2.99 174.41 2.06 175.17 1.16 179.33 1 Z" fill-rule="evenodd" transform="translate(-1,-1) "/></svg>