<svg xmlns="http://www.w3.org/2000/svg" viewBox="0 0 12.860015869140625 13.779998779296875"><path d="M 420 368.62 419.96 368.63 419.93 368.63 419.9 368.6 419.88 368.58 419.88 368.55 419.89 368.52 419.89 368.48 419.88 368.46 419.85 368.43 419.84 368.41 419.84 368.38 419.84 368.37 419.87 368.33 419.89 368.31 419.94 368.28 419.96 368.26 419.97 368.28 419.97 368.3 419.96 368.31 419.94 368.32 419.94 368.33 420.02 368.35 420.04 368.43 420.03 368.52 420.04 368.59 420 368.62 Z M 420.8 365.17 420.79 365.18 420.79 365.17 420.8 365.17 Z M 421.73 364.76 421.8 364.76 421.83 364.78 421.87 364.8 421.93 364.87 421.96 364.89 422 364.91 422.04 364.92 422.08 364.91 422.1 364.88 422.11 364.85 422.11 364.79 422.12 364.76 422.17 364.75 422.23 364.74 422.47 364.74 423.09 364.75 423.14 364.75 423.8 364.75 424.3 364.75 424.47 364.75 425.13 364.75 425.13 364.18 425.12 363.6 425.12 363.14 425.12 363.02 425.12 362.45 425.11 362.27 425.1 362.18 425.11 362.16 425.12 362.14 425.12 362.11 425.12 362.08 425.13 362.05 425.14 362.02 425.16 362 425.17 361.97 425.17 361.94 425.16 361.91 425.16 361.89 425.75 361.87 425.81 361.85 425.84 361.84 425.87 361.84 425.89 361.86 425.94 361.89 426.05 361.93 426.09 361.93 426.16 361.92 426.36 361.93 426.53 361.91 426.69 361.92 426.82 361.91 426.86 361.92 426.95 361.93 427.05 361.93 427.09 361.93 427.18 361.9 427.22 361.89 427.25 361.89 427.29 361.86 427.31 361.86 427.34 361.87 427.41 361.91 427.45 361.92 427.58 361.89 427.66 361.9 427.78 361.94 427.82 361.95 427.87 361.94 427.91 361.96 427.96 361.98 428.26 362.03 428.31 362.02 428.34 362 428.36 361.98 428.39 361.97 428.43 361.98 428.48 362 428.52 362.01 428.54 361.98 428.57 362 428.6 362 428.63 361.99 428.65 361.97 428.72 361.99 428.76 362 428.78 361.99 428.81 361.98 428.85 361.99 428.91 362.01 429 362 429.02 361.99 429.07 361.95 429.09 361.93 429.11 361.92 429.18 361.93 429.24 361.94 429.27 361.96 429.29 361.97 429.31 361.97 429.34 361.96 429.36 361.95 429.38 361.96 429.41 361.99 429.45 362.02 429.47 362.04 429.48 362.07 429.47 362.14 429.47 362.2 429.47 362.33 429.46 362.4 429.44 362.45 429.36 362.49 429.35 362.5 429.31 362.55 429.3 362.56 429.28 362.56 429.27 362.58 429.29 362.62 429.28 362.65 429.27 362.66 429.26 362.68 429.24 362.69 429.23 362.72 429.21 362.75 429.19 362.76 429.18 362.77 429.2 362.81 429.22 362.85 429.23 362.87 429.24 362.89 429.24 362.93 429.22 363.01 429.2 363.04 429.18 363.07 429.15 363.09 429.17 363.12 429.16 363.16 429.14 363.2 429.14 363.25 429.15 363.35 429.14 363.4 429.1 363.45 429.14 363.51 429.18 363.57 429.2 363.55 429.22 363.57 429.24 363.6 429.24 363.63 429.23 363.66 429.27 363.68 429.31 363.79 429.35 363.81 429.35 363.83 429.35 363.93 429.35 363.95 429.35 363.97 429.36 363.98 429.37 364.01 429.37 364.02 429.36 364.03 429.33 364.07 429.3 364.09 429.27 364.11 429.23 364.11 429.22 364.12 429.21 364.16 429.19 364.18 429.15 364.19 429.17 364.21 429.2 364.22 429.22 364.23 429.23 364.26 429.23 364.26 429.25 364.26 429.3 364.26 429.37 364.26 429.42 364.25 429.46 364.24 429.5 364.19 429.54 364.18 429.58 364.17 429.59 364.13 429.61 364.12 429.65 364.1 429.7 364.1 429.73 364.1 429.81 364.13 429.88 364.14 429.95 364.14 430.02 364.13 430.05 364.11 430.1 364.04 430.18 364.01 430.21 363.99 430.24 363.96 430.28 363.96 430.31 363.96 430.33 363.96 430.37 363.95 430.38 363.95 430.41 363.93 430.42 363.92 430.43 363.92 430.46 363.93 430.47 363.94 430.49 363.93 430.5 363.92 430.52 363.87 430.55 363.81 430.55 363.8 430.58 363.8 431 363.83 431.04 363.84 431.08 363.87 431.11 363.9 431.14 363.92 431.19 363.93 431.27 363.9 431.31 363.88 431.35 363.89 431.44 363.91 431.46 363.93 431.47 363.94 431.49 363.95 431.52 363.96 431.52 363.97 431.52 363.98 431.54 363.99 431.57 364 431.59 364.02 431.61 364.05 431.64 364.19 431.64 364.24 431.64 364.41 431.66 364.46 431.7 364.51 431.8 364.56 431.83 364.6 431.87 364.72 431.89 364.77 431.92 364.82 431.96 364.86 432 364.9 432.05 364.92 432.07 364.94 432.07 364.97 432.05 364.99 432.02 365.01 432 365.03 432.01 365.05 432.03 365.16 431.95 365.25 431.85 365.33 431.78 365.43 431.78 365.54 431.76 365.59 431.6 365.73 431.59 365.74 431.58 365.75 431.55 365.76 431.44 365.76 431.31 365.75 431.2 365.77 431.13 365.86 431.16 365.9 431.17 365.95 431.16 365.99 431.12 366.04 430.96 366.13 430.91 366.18 430.83 366.36 430.76 366.47 430.75 366.52 430.76 366.58 430.78 366.64 430.79 366.7 430.8 366.86 430.81 366.87 430.84 366.87 430.87 366.88 430.88 366.9 430.88 366.93 430.85 366.97 430.84 366.99 430.84 367.02 430.86 367.05 430.86 367.07 430.84 367.1 430.81 367.12 430.79 367.15 430.68 367.29 430.66 367.34 430.66 367.4 430.76 367.53 430.77 367.54 430.79 367.53 430.82 367.52 430.83 367.51 430.83 367.5 430.84 367.48 430.86 367.48 430.94 367.48 430.96 367.49 430.98 367.51 430.99 367.53 431.07 367.51 431.16 367.52 431.24 367.56 431.3 367.62 431.34 367.69 431.37 367.78 431.38 367.87 431.39 367.95 431.42 367.93 431.46 367.92 431.5 367.92 431.54 367.94 431.58 367.95 431.61 367.93 431.64 367.92 431.68 367.91 431.74 367.93 431.83 367.97 431.9 368.01 431.95 368.08 432.04 368.14 432.07 368.17 432.12 368.27 432.14 368.34 432.12 368.41 432.03 368.61 432.02 368.66 432.02 368.71 432.04 368.77 432.05 368.84 432.02 368.88 431.98 368.93 431.95 368.98 431.94 369.03 431.93 369.13 431.9 369.17 431.9 369.2 431.97 369.38 431.99 369.42 432 369.45 431.99 369.47 431.98 369.51 431.98 369.53 432 369.55 432.01 369.56 432.05 369.6 432.06 369.63 432.07 369.65 432.06 369.72 432.05 369.77 432.05 369.79 432.03 369.81 432.02 369.83 432 369.84 431.98 369.86 431.98 369.88 431.99 369.92 432.02 369.96 432.1 370.01 432.11 370.05 432.1 370.08 432.07 370.1 432.04 370.12 432.04 370.14 432.03 370.2 432.01 370.26 432.03 370.29 432.06 370.33 432.06 370.36 431.99 370.37 431.97 370.39 431.96 370.42 431.95 370.44 431.93 370.46 431.91 370.47 431.86 370.48 431.84 370.5 431.86 370.52 431.9 370.54 431.93 370.63 431.96 370.64 432.01 370.65 432.03 370.66 431.98 370.7 431.95 370.72 431.93 370.77 431.93 370.95 431.91 371 431.91 371.02 431.93 371.12 431.91 371.15 431.86 371.18 431.85 371.18 431.59 371.28 431.58 371.3 431.57 371.32 431.56 371.34 431.56 371.36 431.55 371.38 431.55 371.39 431.56 371.41 431.58 371.42 431.59 371.44 431.59 371.46 431.57 371.5 431.56 371.62 431.55 371.65 431.54 371.67 431.5 371.68 431.49 371.69 431.48 371.71 431.5 371.75 431.5 371.77 431.47 371.8 431.39 371.83 431.36 371.85 431.37 371.93 431.54 372.07 431.55 372.14 431.54 372.13 431.44 372.16 431.42 372.17 431.4 372.18 431.35 372.21 431.33 372.23 431.32 372.26 431.33 372.31 431.31 372.33 431.29 372.35 431.27 372.37 431.26 372.41 431.25 372.44 431.23 372.45 431.21 372.46 431.19 372.45 431.16 372.43 431.13 372.43 431.12 372.43 431.02 372.46 431 372.46 430.99 372.45 430.98 372.41 430.96 372.39 430.94 372.39 430.92 372.4 430.88 372.42 430.83 372.43 430.78 372.43 430.73 372.41 430.69 372.38 430.69 372.37 430.7 372.29 430.71 372.27 430.76 372.24 430.79 372.18 430.82 372.16 430.83 372.15 430.8 372.11 430.77 372.09 430.75 372.08 430.73 372.06 430.72 372 430.71 371.98 430.67 371.94 430.64 371.9 430.59 371.8 430.57 371.71 430.55 371.66 430.53 371.62 430.49 371.59 430.47 371.57 430.46 371.57 430.46 371.58 430.41 371.65 430.39 371.69 430.38 371.72 430.38 371.76 430.37 371.78 430.35 371.81 430.19 371.97 430.17 371.99 430.16 372.04 430.15 372.06 430.13 372.07 430.08 372.09 430.05 372.1 430.03 372.12 430 372.16 429.98 372.18 429.91 372.23 429.89 372.25 429.87 372.27 429.87 372.3 429.86 372.31 429.83 372.33 429.82 372.32 429.8 372.3 429.79 372.29 429.76 372.3 429.75 372.3 429.7 372.29 429.66 372.3 429.62 372.3 429.23 372.16 429.21 372.15 429.18 372.16 429.14 372.18 429.12 372.19 429.07 372.17 428.93 372.11 428.87 372.1 428.84 372.11 428.8 372.15 428.78 372.17 428.75 372.18 428.74 372.16 428.75 372.14 428.78 372.12 428.79 372.11 428.8 372.09 428.8 372.07 428.8 372.05 428.81 372.03 428.82 372.01 428.84 371.99 428.83 371.96 428.82 371.96 428.81 371.96 428.79 371.95 428.79 371.93 428.78 371.87 428.76 371.84 428.72 371.78 428.7 371.76 428.64 371.78 428.61 371.79 428.6 371.75 428.6 371.72 428.59 371.71 428.56 371.68 428.56 371.66 428.56 371.65 428.57 371.63 428.57 371.62 428.58 371.61 428.58 371.6 428.54 371.59 428.54 371.57 428.54 371.56 428.54 371.55 428.54 371.55 428.54 371.5 428.53 371.49 428.49 371.45 428.48 371.44 428.46 371.39 428.41 371.23 428.38 371.18 428.35 371.15 428.25 371.12 428.24 371.11 428.1 371.01 428 370.97 427.89 370.97 427.87 370.98 427.76 371.05 427.75 371.07 427.74 371.08 427.72 371.11 427.72 371.13 427.72 371.15 427.71 371.17 427.68 371.19 427.64 371.18 427.6 371.13 427.57 371.11 427.55 371.1 427.54 371.13 427.56 371.37 427.58 371.46 427.62 371.53 427.71 371.57 427.7 371.6 427.66 371.67 427.64 371.7 427.64 371.73 427.65 371.82 427.64 371.89 427.61 371.96 427.59 372.03 427.62 372.08 426.74 372.27 426.67 372.26 426.6 372.22 426.53 372.12 426.49 372.09 426.46 372.08 426.39 372.11 426.3 372.14 426.22 372.16 426.17 372.18 426.1 372.25 426.06 372.27 426.02 372.27 425.98 372.24 425.91 372.19 425.89 372.17 425.88 372.15 425.87 372.13 425.84 372.12 425.73 372.08 425.64 372.08 425.64 372.08 425.62 372.12 425.67 372.25 425.68 372.3 425.66 372.42 425.66 372.46 425.68 372.51 425.73 372.6 425.76 372.65 425.77 372.7 425.77 372.75 425.76 372.79 425.74 372.85 425.57 373.11 425.57 373.13 425.55 373.21 425.56 373.26 425.6 373.26 425.69 373.2 425.75 373.18 425.79 373.19 425.83 373.23 425.91 373.34 426.08 373.52 426.11 373.57 426.11 373.62 426.05 373.65 426 373.66 425.97 373.65 425.95 373.67 425.92 373.72 425.91 373.76 425.91 373.91 425.9 373.93 425.91 373.93 425.93 373.95 425.94 373.97 426.07 374.02 426.12 374.05 426.21 374.12 426.29 374.16 426.39 374.19 426.48 374.23 426.5 374.3 426.47 374.34 426.37 374.42 426.34 374.47 426.22 374.77 426.21 374.82 426.23 374.86 426.28 374.89 426.33 374.91 426.38 374.93 426.39 374.98 426.37 375.03 426.33 375.07 426.29 375.11 426.25 375.12 426.24 375.13 426.2 375.12 426.07 375.09 426.03 375.08 425.91 375.1 425.86 375.08 425.82 375.04 425.65 374.76 425.56 374.7 425.45 374.68 425.39 374.72 425.35 374.79 425.3 374.85 425.22 374.88 425.13 374.9 425.05 374.94 424.99 375 424.91 375.05 424.85 375.1 424.82 375.16 424.67 375.56 424.64 375.62 424.59 375.6 424.54 375.56 424.43 375.45 424.4 375.31 424.38 375.27 424.36 375.23 424.35 375.18 424.35 375.13 424.3 375.08 424.23 375.03 423.96 374.8 423.6 374.55 423.58 374.45 423.58 374.42 423.6 374.38 423.61 374.33 423.6 374.29 423.58 374.25 423.54 374.22 423.49 374.19 423.43 374.15 423.39 374.13 423.38 374.08 423.3 373.99 423.27 373.96 423.23 373.91 423.17 373.85 422.94 373.66 422.65 373.44 422.54 373.35 422.25 373.14 422.12 373.02 421.95 372.9 421.56 372.42 421.51 372.33 421.55 372.36 421.61 372.43 421.66 372.45 421.71 372.46 421.74 372.44 421.77 372.4 421.81 372.36 421.81 372.39 421.8 372.42 421.79 372.44 421.8 372.47 421.81 372.46 421.82 372.46 421.82 372.45 421.83 372.44 421.83 372.48 421.83 372.52 421.85 372.54 421.89 372.53 421.97 372.56 421.98 372.57 421.98 372.57 422.02 372.62 422.03 372.66 422.04 372.66 422.04 372.64 422.05 372.63 422.07 372.63 422.09 372.65 422.09 372.64 422.09 372.64 422.09 372.63 422.1 372.63 422.11 372.71 422.12 372.74 422.13 372.72 422.15 372.71 422.17 372.71 422.19 372.71 422.18 372.74 422.19 372.75 422.21 372.74 422.24 372.72 422.25 372.71 422.27 372.66 422.28 372.65 422.32 372.64 422.36 372.63 422.41 372.63 422.44 372.63 422.49 372.63 422.51 372.62 422.53 372.59 422.48 372.56 422.47 372.56 422.47 372.52 422.43 372.49 422.37 372.47 422.34 372.44 422.33 372.44 422.34 372.48 422.38 372.59 422.34 372.58 422.33 372.57 422.32 372.55 422.31 372.54 422.29 372.53 422.26 372.49 422.25 372.48 422.23 372.48 422.2 372.47 422.19 372.47 422.18 372.47 422.18 372.49 422.18 372.5 422.18 372.51 422.16 372.53 422.15 372.55 422.14 372.57 422.13 372.59 422.1 372.58 422.07 372.56 422.08 372.54 422.07 372.49 422.07 372.47 422.09 372.46 422.12 372.46 422.14 372.46 422.15 372.44 422.12 372.42 422.06 372.4 422 372.39 421.96 372.39 421.91 372.29 421.91 372.27 421.89 372.26 421.88 372.26 421.87 372.28 421.86 372.28 421.83 372.3 421.83 372.3 421.77 372.29 421.72 372.33 421.67 372.38 421.62 372.39 421.6 372.38 421.58 372.36 421.56 372.33 421.55 372.31 421.56 372.3 421.59 372.28 421.59 372.27 421.61 372.27 421.59 372.25 421.56 372.24 421.55 372.24 421.55 372.22 421.55 372.2 421.55 372.19 421.54 372.18 421.52 372.18 421.51 372.18 421.5 372.19 421.49 372.2 421.52 372.25 421.53 372.29 421.51 372.31 421.47 372.3 421.38 372.19 421.34 372.16 421.36 372.2 421.41 372.25 421.43 372.29 421.38 372.25 421.32 372.2 421.27 372.13 421.25 372.07 421.25 372.06 421.23 372.01 421.22 371.81 421.2 371.78 420.98 371.56 420.92 371.53 420.86 371.45 420.83 371.43 420.83 371.42 420.84 371.4 420.79 371.38 420.77 371.34 420.74 371.26 420.64 371.17 420.63 371.15 420.62 371.14 420.6 371.12 420.58 371.1 420.57 371.09 420.55 371.08 420.56 371.06 420.57 371.05 420.58 371.06 420.6 371.1 420.64 371.13 420.69 371.14 420.74 371.14 420.73 371.15 420.73 371.15 420.72 371.15 420.72 371.16 420.75 371.17 420.76 371.16 420.78 371.11 420.79 371.11 420.81 371.16 420.8 371.16 420.79 371.17 420.78 371.18 420.78 371.19 420.79 371.2 420.8 371.2 420.81 371.18 420.81 371.17 420.92 371.17 420.99 371.18 421.02 371.22 421.01 371.27 420.96 371.31 420.99 371.33 421 371.35 421.02 371.35 421.06 371.36 421.08 371.36 421.08 371.37 421.08 371.41 421.08 371.43 421.13 371.46 421.13 371.47 421.14 371.49 421.15 371.51 421.16 371.49 421.17 371.48 421.2 371.47 421.21 371.46 421.2 371.42 421.19 371.38 421.17 371.35 421.14 371.35 421.12 371.32 421.07 371.29 421.05 371.26 421.08 371.22 421.1 371.21 421.1 371.19 421.03 371.07 420.98 371.03 420.96 371.05 420.93 371.03 420.92 371.02 420.91 371.04 420.91 371.06 420.92 371.11 420.88 371.08 420.82 370.97 420.78 370.96 420.76 370.97 420.75 371 420.75 371.02 420.74 371.03 420.72 371.04 420.71 371.06 420.7 371.08 420.7 371.11 420.69 371.09 420.67 371.08 420.65 371.08 420.63 371.08 420.65 371.03 420.65 371.01 420.6 370.97 420.55 371 420.52 370.99 420.5 370.95 420.49 370.88 420.49 370.86 420.5 370.82 420.5 370.8 420.5 370.71 420.5 370.69 420.48 370.64 420.48 370.61 420.48 370.54 420.48 370.52 420.44 370.43 420.39 370.36 420.26 370.23 419.99 369.85 419.97 369.81 419.94 369.76 419.92 369.71 419.91 369.66 419.94 369.72 419.97 369.79 419.99 369.82 420.04 369.87 420.07 369.87 420.1 369.88 420.13 369.91 420.16 369.98 420.21 370.03 420.22 370.08 420.23 370.1 420.3 370.18 420.33 370.2 420.35 370.22 420.45 370.3 420.47 370.31 420.54 370.33 420.56 370.61 420.57 370.64 420.6 370.63 420.6 370.6 420.58 370.57 420.59 370.56 420.61 370.55 420.63 370.56 420.64 370.58 420.64 370.6 420.68 370.56 420.73 370.53 420.79 370.51 420.84 370.51 420.83 370.54 420.83 370.58 420.84 370.61 420.87 370.63 420.89 370.55 420.89 370.52 420.87 370.49 420.94 370.48 421.12 370.51 421.19 370.49 421.1 370.46 421.06 370.43 421.04 370.39 421.02 370.3 421.01 370.26 421.02 370.22 421.01 370.21 420.96 370.19 420.95 370.19 420.92 370.19 420.91 370.19 420.91 370.21 420.92 370.24 420.91 370.26 420.91 370.28 420.9 370.28 420.84 370.36 420.79 370.39 420.73 370.41 420.66 370.42 420.64 370.42 420.63 370.42 420.61 370.42 420.6 370.42 420.59 370.4 420.58 370.36 420.57 370.33 420.57 370.31 420.57 370.27 420.56 370.26 420.54 370.26 420.52 370.25 420.5 370.25 420.5 370.21 420.52 370.19 420.55 370.18 420.59 370.17 420.61 370.16 420.61 370.13 420.6 370.1 420.58 370.08 420.58 370.07 420.6 370.06 420.66 370.06 420.67 370.05 420.69 370.03 420.7 369.99 420.74 369.92 420.73 369.89 420.69 369.81 420.7 369.8 420.7 369.79 420.69 369.78 420.67 369.77 420.67 369.81 420.69 369.92 420.68 369.95 420.67 369.97 420.64 369.99 420.62 369.99 420.6 369.99 420.58 369.95 420.57 369.95 420.53 369.96 420.51 369.99 420.49 370.02 420.47 370.04 420.36 370.06 420.32 370.05 420.3 370.02 420.29 369.98 420.3 369.93 420.3 369.92 420.3 369.91 420.28 369.9 420.27 369.88 420.26 369.89 420.25 369.9 420.23 369.91 420.23 369.91 420.22 369.92 420.19 369.92 420.16 369.9 420.08 369.84 420.04 369.83 420.02 369.81 420 369.78 419.99 369.73 420.01 369.69 420 369.68 420 369.68 419.99 369.66 420.03 369.63 420.02 369.58 419.99 369.53 419.94 369.49 419.97 369.56 419.96 369.62 419.95 369.64 419.94 369.64 419.93 369.61 419.91 369.48 419.88 369.38 419.66 369.1 419.71 369.16 419.75 369.17 419.78 369.16 419.75 369.15 419.76 369.12 419.78 369.09 419.8 369.08 419.81 369.07 419.78 369.06 419.72 369.11 419.68 369.1 419.66 369.06 419.65 369.01 419.63 368.97 419.61 368.98 419.59 368.98 419.58 368.9 419.56 368.88 419.53 368.82 419.47 368.69 419.42 368.61 419.4 368.49 419.33 368.41 419.28 368.24 419.31 368.2 419.32 368.21 419.3 368.26 419.33 368.27 419.4 368.29 419.39 368.31 419.39 368.32 419.39 368.33 419.4 368.35 419.45 368.35 419.48 368.4 419.5 368.47 419.51 368.57 419.52 368.6 419.54 368.63 419.57 368.64 419.59 368.65 419.59 368.68 419.61 368.71 419.64 368.72 419.62 368.69 419.62 368.65 419.63 368.61 419.64 368.57 419.65 368.54 419.68 368.53 419.72 368.54 419.76 368.54 419.76 368.53 419.74 368.52 419.72 368.5 419.7 368.48 419.7 368.45 419.72 368.44 419.74 368.44 419.79 368.46 419.81 368.5 419.83 368.53 419.84 368.57 419.85 368.61 419.93 368.68 419.96 368.72 419.96 368.77 419.95 368.85 419.96 368.88 419.98 368.88 419.99 368.84 419.99 368.7 420 368.66 420.06 368.6 420.07 368.57 420.07 368.54 420.06 368.52 420.07 368.52 420.08 368.5 420.09 368.49 420.13 368.48 420.14 368.47 420.15 368.45 420.14 368.42 420.15 368.4 420.17 368.39 420.2 368.45 420.2 368.4 420.17 368.37 420.16 368.33 420.17 368.27 420.3 368.16 420.34 368.08 420.54 367.86 420.6 367.77 420.63 367.68 420.63 367.4 420.64 367.35 420.69 367.25 420.7 367.21 420.71 367.19 420.72 367.14 420.72 367.11 420.71 367.09 420.69 367.04 420.69 367.01 420.7 366.98 420.71 366.96 420.73 366.94 420.74 366.92 420.73 366.9 420.72 366.88 420.72 366.86 420.72 366.82 420.64 366.4 420.61 366.33 420.62 366.31 420.63 366.25 420.64 366.24 420.64 366.23 420.72 366.17 420.74 366.16 420.76 366.18 420.78 366.22 420.79 366.28 420.78 366.32 420.76 366.4 420.77 366.43 420.78 366.45 420.78 366.47 420.76 366.48 420.74 366.49 420.74 366.51 420.74 366.53 420.75 366.55 420.77 366.54 420.78 366.52 420.79 366.5 420.82 366.49 420.89 366.49 420.9 366.5 420.91 366.53 420.97 366.59 420.99 366.63 421 366.71 421.01 366.72 421.03 366.74 421.05 366.74 421.05 366.71 421.04 366.62 421.04 366.58 421.07 366.54 421.18 366.57 421.21 366.58 421.22 366.61 421.24 366.68 421.25 366.71 421.26 366.69 421.32 366.63 421.34 366.61 421.38 366.62 421.4 366.63 421.42 366.67 421.53 366.66 421.61 366.74 421.68 366.84 421.75 366.9 421.67 366.75 421.64 366.71 421.63 366.68 421.67 366.66 421.73 366.66 421.77 366.69 421.79 366.67 421.83 366.62 421.86 366.6 421.94 366.55 421.96 366.54 422 366.54 422.07 366.56 422.1 366.57 422.13 366.57 422.22 366.54 422.22 366.52 422.11 366.52 422.07 366.51 422.03 366.48 421.99 366.5 421.95 366.52 421.91 366.53 421.74 366.54 421.71 366.55 421.61 366.52 421.58 366.5 421.55 366.47 421.53 366.46 421.46 366.46 421.43 366.45 421.33 366.37 421.25 366.33 421.22 366.3 421.21 366.25 421.19 366.25 421.18 366.28 421.17 366.29 421.14 366.28 421.12 366.29 421.07 366.31 421.05 366.31 421.04 366.29 421.02 366.21 421 366.19 420.97 366.16 420.86 365.92 420.83 365.88 420.77 365.81 420.73 365.79 420.69 365.79 420.66 365.79 420.63 365.75 420.63 365.72 420.63 365.6 420.65 365.57 420.7 365.57 420.75 365.56 420.77 365.55 420.82 365.52 420.84 365.51 420.87 365.51 420.89 365.52 420.91 365.52 420.94 365.53 420.96 365.52 420.99 365.5 421.03 365.49 421.06 365.46 421.1 365.45 421.14 365.45 421.18 365.49 421.2 365.54 421.19 365.58 421.15 365.6 421.06 365.58 421.01 365.59 420.98 365.63 421.03 365.62 421.09 365.62 421.15 365.65 421.16 365.71 421.19 365.7 421.21 365.69 421.22 365.66 421.22 365.63 421.25 365.67 421.25 365.73 421.24 365.8 421.22 365.83 421.24 365.89 421.26 365.91 421.3 365.92 421.29 365.88 421.29 365.84 421.3 365.8 421.32 365.78 421.33 365.76 421.36 365.67 421.37 365.63 421.34 365.59 421.34 365.55 421.34 365.44 421.32 365.18 421.24 364.97 421.24 364.92 421.23 364.88 421.21 364.86 421.19 364.83 421.21 364.79 421.23 364.74 421.26 364.72 421.29 364.71 421.33 364.71 421.37 364.7 421.4 364.68 421.41 364.65 421.43 364.62 421.47 364.62 421.6 364.62 421.64 364.63 421.67 364.68 421.69 364.77 421.71 364.82 421.72 364.78 421.73 364.76 Z" fill-rule="evenodd" id="Gabon" transform="translate(-419.2799987792969,-361.8399963378906) "/></svg>