<svg xmlns="http://www.w3.org/2000/svg" viewBox="0 0 14.8699951171875 7.55999755859375"><path d="M 502.92 265.13 502.84 265.3 502.79 265.38 502.69 265.49 502.66 265.52 502.63 265.54 502.58 265.54 502.48 265.52 502.43 265.52 502.39 265.57 502.36 265.67 502.37 265.82 502.39 265.95 502.45 266 502.47 265.99 502.48 265.96 502.5 265.94 502.53 265.94 502.53 265.95 502.58 266.05 502.59 266.07 502.6 266.18 502.62 266.25 502.66 266.3 502.78 266.38 502.8 266.39 502.85 266.4 502.95 266.5 503.17 266.59 503.28 266.65 503.31 266.74 503.35 266.72 503.36 266.73 503.37 266.73 503.38 266.76 503.42 266.81 503.49 266.91 503.51 266.96 503.5 266.96 503.48 266.96 503.46 266.98 503.46 267 503.46 267.05 503.45 267.07 503.44 267.09 503.41 267.12 503.4 267.14 503.37 267.22 503.36 267.32 503.34 267.41 503.33 267.43 503.3 267.47 503.26 267.48 503.21 267.47 503.17 267.46 503.12 267.49 503.1 267.54 503.09 267.59 503.07 267.62 503.02 267.62 502.98 267.59 502.92 267.51 502.88 267.48 502.75 267.44 502.7 267.41 502.57 267.29 502.51 267.21 502.47 267.18 502.43 267.16 502.27 267.16 502.22 267.17 502.16 267.21 502.1 267.25 502.06 267.26 502.01 267.27 501.9 267.25 501.57 267.14 501.46 267.07 501.41 267.04 501.32 266.96 501.27 266.88 501.32 266.82 501.37 266.8 501.4 266.78 501.4 266.76 501.35 266.74 501.2 266.71 500.88 266.59 500.81 266.52 500.78 266.49 500.75 266.48 500.67 266.5 500.63 266.51 500.6 266.5 500.49 266.44 500.45 266.42 500.37 266.42 500.3 266.44 499.97 266.72 499.76 266.9 499.73 266.91 499.68 266.96 499.65 266.98 499.57 266.98 499.35 266.95 499.31 266.99 499.33 267.03 499.41 267.07 499.43 267.09 499.43 267.1 499.41 267.14 499.35 267.14 499.03 267.14 498.94 267.1 498.89 267.09 498.84 267.12 498.82 267.15 498.79 267.2 498.76 267.23 498.71 267.22 498.7 267.19 498.69 267.16 498.68 267.14 498.65 267.14 498.64 267.15 498.6 267.2 498.54 267.22 498.49 267.22 498.44 267.2 498.33 267.13 498.3 267.12 498.27 267.13 498.25 267.15 498.24 267.17 498.22 267.18 498.17 267.19 498.12 267.17 498.02 267.1 497.96 267.07 497.93 267.07 497.91 267.09 497.9 267.11 497.9 267.14 497.89 267.17 497.85 267.2 497.81 267.23 497.76 267.23 497.67 267.21 497.62 267.21 497.54 267.25 497.49 267.27 497.48 267.27 497.44 267.28 497.23 267.28 497.14 267.32 497.03 267.41 496.99 267.43 496.93 267.44 496.57 267.38 496.48 267.39 496.36 267.44 496.34 267.44 496.32 267.44 496.29 267.44 496.32 267.36 496.29 267.29 496.23 267.23 496.17 267.2 496.1 267.18 496.03 267.18 495.83 267.24 495.8 267.22 495.74 267.09 495.7 267.04 495.65 267.03 495.61 267.04 495.55 267.02 495.67 266.96 495.7 266.93 495.73 266.89 495.72 266.87 495.66 266.86 495.59 266.83 495.48 266.74 495.32 266.62 495.29 266.59 495.22 266.47 495.21 266.45 495.19 266.44 495.18 266.43 495.17 266.41 495.15 266.4 495.09 266.38 495.07 266.37 495.05 266.33 495.04 266.3 495.02 266.28 494.99 266.3 494.94 266.36 494.9 266.35 494.86 266.3 494.8 266.27 494.82 266.24 494.86 266.2 494.88 266.18 494.89 266.15 494.89 266.12 494.9 266.09 494.92 266.07 494.88 266.05 494.57 266.02 494.45 266.03 494.41 266.04 494.4 266.05 494.4 266.05 494.35 266.08 494.33 266.13 494.31 266.25 494.29 266.3 494.24 266.35 494.17 266.45 494.13 266.48 494.1 266.48 494.07 266.48 493.68 266.33 493.57 266.34 493.52 266.33 493.48 266.3 493.45 266.28 493.42 266.28 493.35 266.3 493.32 266.28 493.29 266.28 493.25 266.28 493.22 266.3 493.14 266.32 492.98 266.26 492.9 266.3 492.87 266.32 492.8 266.42 492.71 266.5 492.69 266.51 492.66 266.5 492.57 266.42 492.54 266.41 492.48 266.4 492.45 266.39 492.44 266.37 492.44 266.35 492.44 266.32 492.44 266.31 492.42 266.31 492.37 266.34 492.3 266.34 492.27 266.34 492.04 266.24 492.18 265.98 492.25 265.89 492.38 265.8 492.42 265.71 492.52 265.54 492.53 265.51 492.53 265.48 492.53 265.46 492.55 265.43 492.58 265.38 492.59 265.36 492.6 265.33 492.6 265.09 492.6 265.08 492.57 264.89 492.57 264.82 492.56 264.78 492.47 264.62 492.4 264.51 492.38 264.49 492.36 264.46 492.34 264.4 492.34 264.3 492.32 264.17 492.2 263.76 492.2 263.74 492.18 263.72 492.12 263.66 492.11 263.64 492.11 263.59 492.11 263.59 491.99 262.89 491.95 262.77 491.9 262.67 491.82 262.59 491.73 262.54 491.56 262.51 491.53 262.49 491.49 262.45 491.44 262.42 491.38 262.4 491.34 262.4 491.31 262.4 491.27 262.43 491.24 262.44 491.22 262.42 491.12 262.27 491.06 262.08 490.97 261.92 490.93 261.84 490.88 261.84 490.79 261.88 490.74 261.86 490.67 261.76 490.63 261.73 490.63 261.72 490.58 261.63 490.56 261.62 490.4 261.55 490.18 261.52 490.08 261.53 490.01 261.54 489.98 261.55 489.95 261.54 489.91 261.49 489.89 261.49 489.88 261.48 489.84 261.44 489.82 261.42 489.8 261.41 489.73 261.4 489.55 261.32 489.47 261.31 489.41 261.38 489.39 261.36 489.35 261.27 489.33 261.24 489.28 261.18 489.26 261.15 489.27 261.06 489.24 260.97 489.19 260.88 489.15 260.84 489.08 260.81 488.96 260.77 488.89 260.7 488.86 260.68 488.76 260.67 488.69 260.64 488.64 260.63 488.64 260.63 488.65 260.58 488.8 260.18 488.83 260.13 488.88 260.1 489.03 260.06 489.18 260.06 489.73 260.26 489.82 260.27 489.89 260.26 490.03 260.18 490.11 260.17 490.18 260.2 490.2 260.22 490.31 260.3 490.53 260.38 490.61 260.43 490.91 260.67 490.98 260.69 491.21 260.66 491.28 260.67 491.36 260.71 491.42 260.76 491.5 260.8 491.66 260.77 491.73 260.79 491.75 260.82 491.78 260.89 491.8 260.92 491.83 260.95 491.95 260.99 492.01 261.02 492.1 261.12 492.16 261.15 492.24 261.16 492.41 261.14 492.49 261.15 492.63 261.19 492.7 261.2 492.86 261.18 492.92 261.18 492.99 261.2 493.06 261.24 493.13 261.26 493.2 261.26 493.27 261.25 493.44 261.15 493.45 261.14 493.51 261.12 493.89 261.09 493.9 261.09 494.04 261.11 494.16 261.2 494.22 261.26 494.29 261.31 494.42 261.38 494.46 261.39 494.5 261.38 494.55 261.32 494.59 261.3 494.66 261.3 494.77 261.27 494.85 261.27 494.94 261.3 495 261.34 495.06 261.4 495.13 261.44 495.32 261.51 495.32 261.55 495.3 261.6 495.29 261.65 495.31 261.68 495.42 261.75 495.66 261.98 495.71 262 495.75 262.03 496.17 262.15 496.38 262.21 496.46 262.23 496.62 262.3 496.65 262.33 496.75 262.44 496.79 262.47 496.99 262.52 497.05 262.55 497.09 262.57 497.12 262.66 497.07 262.73 496.99 262.79 496.93 262.85 496.92 262.93 496.98 263.01 497.08 263.04 497.19 263.05 497.28 263.07 497.33 263.11 497.36 263.13 497.4 263.15 497.44 263.15 497.47 263.12 497.53 263.04 497.56 263.01 497.66 262.96 497.87 262.95 497.95 262.93 497.97 262.92 498 262.89 498.04 262.85 498.08 262.76 498.14 262.7 498.33 262.7 498.42 262.67 498.6 262.58 498.66 262.56 498.77 262.55 498.87 262.56 498.95 262.59 498.96 262.59 499.04 262.64 499.07 262.67 499.14 262.74 499.17 262.78 499.22 262.95 499.25 262.98 499.27 262.96 499.3 262.79 499.37 262.66 499.38 262.61 499.44 262.53 499.53 262.55 499.78 262.72 499.82 262.74 499.86 262.75 499.9 262.74 499.92 262.74 499.98 262.71 500.02 262.7 500.09 262.73 500.16 262.78 500.38 263.05 500.4 263.09 500.42 263.13 500.44 263.18 500.47 263.22 500.54 263.25 500.63 263.24 500.81 263.18 500.94 263.19 501.13 263.22 501.3 263.29 501.39 263.39 501.39 263.4 501.38 263.47 501.13 264.13 501.15 264.2 501.22 264.24 501.31 264.29 501.55 264.46 501.7 264.5 501.73 264.53 501.8 264.68 501.82 264.72 501.85 264.73 501.89 264.73 501.91 264.73 501.94 264.71 501.96 264.7 501.97 264.71 502.01 264.74 502.03 264.75 502.07 264.75 502.1 264.74 502.12 264.75 502.13 264.82 502.19 264.84 502.25 264.85 502.38 264.82 502.39 264.82 502.39 264.82 502.4 264.81 502.42 264.81 502.44 264.81 502.46 264.82 502.52 264.87 502.62 264.98 502.68 265.01 502.81 265.02 502.87 265.05 502.92 265.13 Z" id="Georgia" transform="translate(-488.6400146484375,-260.05999755859375) "/></svg>