<svg xmlns="http://www.w3.org/2000/svg" viewBox="0 0 20.329986572265625 27.55999755859375"><path d="M 414.95 226.51 414.96 226.53 414.98 226.57 414.96 226.55 414.93 226.52 414.91 226.51 414.89 226.52 414.85 226.53 414.84 226.54 414.8 226.52 414.77 226.47 414.76 226.43 414.79 226.41 414.96 226.36 415.04 226.35 415.07 226.41 415.02 226.42 414.94 226.45 414.9 226.46 414.9 226.48 414.93 226.49 414.95 226.51 Z M 415.71 226.1 415.24 226.16 415.32 226.12 415.62 226.08 415.71 226.1 Z M 416.29 225.97 416.28 225.97 416.28 225.97 416.17 226.01 415.9 226.05 415.81 226.02 415.91 225.96 416.03 225.94 416.28 225.95 416.29 225.97 Z M 416.45 225.93 416.48 225.95 416.48 225.96 416.47 225.97 416.45 225.98 416.36 225.95 416.33 225.95 416.37 225.92 416.41 225.92 416.45 225.93 Z M 418.11 225.96 418.08 225.99 418.07 226 418.05 226 418.04 225.99 418.02 225.99 418 226 418 225.98 418.03 225.93 418.07 225.91 418.12 225.92 418.17 225.95 418.14 225.95 418.11 225.96 Z M 416.91 225.86 416.9 225.87 416.9 225.87 416.89 225.87 416.73 225.87 416.66 225.88 416.65 225.95 416.59 225.95 416.57 225.94 416.56 225.88 416.57 225.84 416.6 225.82 416.66 225.82 416.86 225.82 416.91 225.85 416.91 225.86 Z M 417.29 225.77 417.24 225.8 417.18 225.83 417.11 225.83 417.06 225.79 417.04 225.82 417.02 225.84 417 225.84 416.98 225.82 417.04 225.75 417.13 225.73 417.32 225.74 417.32 225.77 417.29 225.77 Z M 417.58 225.71 417.63 225.74 417.61 225.74 417.59 225.74 417.5 225.72 417.46 225.72 417.45 225.77 417.41 225.74 417.42 225.71 417.46 225.7 417.51 225.69 417.54 225.7 417.58 225.71 Z M 425.49 224.84 425.42 225.04 425.4 225.08 425.37 225.08 425.37 225.05 425.38 224.98 425.37 224.94 425.36 224.94 425.34 224.97 425.35 225.02 425.32 225.05 425.29 225.05 425.25 225.03 425.22 225 425.25 224.91 425.33 224.84 425.42 224.81 425.49 224.84 Z M 425.58 224.72 425.57 224.72 425.55 224.65 425.56 224.64 425.57 224.61 425.72 224.54 425.75 224.51 425.71 224.56 425.61 224.65 425.58 224.72 Z M 431 224.66 431.07 224.7 431.46 225.13 431.5 225.16 431.5 225.16 431.46 225.26 431.44 225.28 431.42 225.28 431.46 225.33 431.48 225.39 431.23 225.42 431.18 225.41 431.14 225.38 431.09 225.44 431.02 225.48 430.9 225.51 430.76 225.52 430.68 225.49 430.64 225.44 430.67 225.43 430.71 225.39 430.78 225.37 430.86 225.33 430.88 225.31 430.9 225.2 430.82 225.04 430.82 224.95 430.93 224.95 430.97 224.97 430.96 225 430.96 225.02 430.95 225.09 430.94 225.15 430.98 225.09 431.01 225.08 431.1 225.08 431.08 225.08 431.07 225.09 431.07 225.11 431.07 225.13 431.14 225.15 431.12 225.1 431.15 225.01 431.15 224.91 431.12 224.85 431.07 224.87 431.05 224.81 431.02 224.76 430.99 224.72 430.96 224.69 430.91 224.68 430.87 224.69 430.85 224.72 430.87 224.76 430.87 224.79 430.85 224.8 430.83 224.83 430.81 224.86 430.81 224.88 430.79 224.89 430.71 224.92 430.72 224.87 430.74 224.84 430.75 224.82 430.76 224.79 430.75 224.75 430.73 224.74 430.71 224.76 430.64 224.79 430.61 224.83 430.58 224.86 430.53 224.84 430.55 224.77 430.61 224.65 430.62 224.55 430.6 224.49 430.51 224.4 430.49 224.35 430.51 224.31 430.54 224.27 430.58 224.26 430.62 224.28 430.64 224.31 430.69 224.44 430.71 224.48 430.77 224.54 430.92 224.63 431 224.66 Z M 417.52 224.25 417.51 224.26 417.51 224.24 417.5 224.24 417.49 224.22 417.48 224.21 417.47 224.2 417.5 224.2 417.51 224.21 417.52 224.25 Z M 417.59 224.21 417.55 224.23 417.54 224.21 417.58 224.19 417.59 224.21 Z M 419.7 223.16 419.61 223.17 419.56 223.15 419.54 223.11 419.56 223.09 419.56 223.07 419.55 223.05 419.54 223.03 419.61 222.96 419.68 222.93 419.77 222.92 419.87 222.95 419.86 222.95 419.85 222.96 419.85 222.98 419.85 223 419.81 223.04 419.79 223.09 419.75 223.13 419.7 223.16 Z M 424.95 223.12 425.08 223.37 424.8 223.32 424.76 223.34 424.77 223.36 424.78 223.36 424.69 223.37 424.63 223.36 424.61 223.33 424.61 223.25 424.6 223.22 424.57 223.21 424.51 223.21 424.49 223.22 424.47 223.24 424.46 223.24 424.45 223.21 424.44 223.19 424.43 223.19 424.4 223.21 424.4 223.16 424.46 223 424.55 222.92 424.65 222.9 424.84 222.98 424.9 223.03 424.92 223.06 424.95 223.12 Z M 419.22 223.03 419.15 223.07 419.11 223.07 419.08 223.04 419.05 222.99 419.07 222.92 419.11 222.89 419.12 222.89 419.14 222.88 419.28 222.81 419.29 222.86 419.27 222.95 419.22 223.03 Z M 429.17 222.66 429.16 222.7 429.16 222.7 429.16 222.69 429.15 222.69 429.15 222.74 429.13 222.74 429.13 222.66 429.08 222.71 429.07 222.77 429.07 222.85 429.04 222.92 429.03 222.95 429 222.97 428.98 223 428.98 223.04 428.97 223.08 428.97 223.16 428.95 223.16 428.95 223.11 428.96 223.02 429.03 222.77 429.04 222.67 429.06 222.65 429.1 222.64 429.13 222.63 429.15 222.64 429.17 222.66 Z M 429.68 222.46 429.67 222.52 429.67 222.59 429.69 222.64 429.72 222.68 429.76 222.71 429.85 222.75 430.14 222.69 430.24 222.71 430.3 222.79 430.32 222.88 430.26 222.98 430.16 223.04 430.11 223.09 430.09 223.15 430.1 223.21 430.12 223.28 430.14 223.33 430.17 223.37 430.21 223.39 430.32 223.42 430.36 223.45 430.42 223.56 430.46 223.61 430.52 223.63 430.49 223.65 430.46 223.68 430.44 223.73 430.43 223.8 430.43 223.86 430.42 223.88 430.4 223.88 430.35 223.86 430.37 223.86 430.39 223.85 430.4 223.82 430.39 223.78 430.38 223.78 430.36 223.81 430.32 223.82 430.29 223.82 430.26 223.81 430.26 223.78 430.34 223.75 430.38 223.72 430.39 223.68 430.28 223.68 430.23 223.7 430.18 223.73 430.31 223.64 430.35 223.63 430.35 223.6 430.29 223.6 430.26 223.6 430.24 223.61 430.21 223.65 430.19 223.64 430.17 223.62 430.15 223.6 429.92 223.63 429.88 223.65 429.77 223.76 429.74 223.8 429.72 223.85 429.66 223.86 429.61 223.89 429.61 223.99 429.64 223.97 429.64 223.95 429.63 223.94 429.63 223.94 429.62 223.94 429.73 223.92 429.74 223.93 429.76 224.01 429.75 224.05 429.72 224.07 429.66 224.06 429.59 224.03 429.51 223.98 429.52 223.96 429.54 223.92 429.56 223.86 429.53 223.88 429.51 223.89 429.5 223.91 429.51 223.92 429.51 223.94 429.47 223.93 429.45 223.94 429.43 223.95 429.41 223.96 429.39 223.95 429.37 223.93 429.35 223.91 429.32 223.91 429.28 223.89 429.26 223.86 429.27 223.81 429.24 223.8 429.17 223.83 429.15 223.83 429.13 223.81 429.15 223.78 429.18 223.77 429.21 223.78 429.21 223.76 429.07 223.65 429.1 223.57 429.15 223.5 429.2 223.48 429.27 223.52 429.29 223.5 429.31 223.52 429.34 223.52 429.41 223.47 429.37 223.47 429.35 223.44 429.34 223.41 429.35 223.37 429.35 223.34 429.32 223.34 429.3 223.32 429.29 223.3 429.26 223.29 429.16 223.32 429.2 223.24 429.22 223.22 429.28 223.2 429.35 223.17 429.39 223.16 429.39 223.13 429.39 223.13 429.41 223.12 429.42 223.11 429.36 223.08 429.33 223.06 429.32 223.03 429.32 223.02 429.33 223.02 429.33 223 429.33 222.98 429.27 223 429.23 223.01 429.21 222.99 429.21 222.98 429.2 222.97 429.18 222.97 429.18 222.94 429.18 222.9 429.17 222.88 429.15 222.87 429.13 222.87 429.19 222.85 429.36 222.82 429.39 222.83 429.4 222.86 429.43 222.87 429.46 222.89 429.47 222.94 429.48 222.96 429.49 222.95 429.5 222.91 429.48 222.85 429.52 222.8 429.56 222.76 429.6 222.73 429.64 222.71 429.61 222.79 429.59 222.82 429.57 222.85 429.59 222.85 429.6 222.85 429.61 222.86 429.62 222.87 429.61 222.89 429.59 222.95 429.62 222.95 429.65 222.94 429.67 222.92 429.68 222.87 429.66 222.87 429.64 222.85 429.62 222.85 429.62 222.82 429.65 222.79 429.68 222.84 429.72 222.89 429.74 222.94 429.73 223 429.77 223.07 429.83 223.09 429.94 223.08 429.92 223.05 429.95 223 429.96 222.99 429.97 222.98 429.97 222.95 429.95 222.9 429.94 222.87 429.92 222.85 429.92 222.82 429.94 222.81 429.94 222.8 429.95 222.8 429.97 222.79 429.97 222.77 429.94 222.77 429.93 222.79 429.91 222.81 429.9 222.82 429.87 222.82 429.8 222.82 429.78 222.81 429.77 222.78 429.76 222.75 429.74 222.74 429.7 222.73 429.69 222.72 429.68 222.69 429.67 222.66 429.64 222.63 429.64 222.61 429.61 222.64 429.59 222.65 429.55 222.7 429.5 222.73 429.46 222.78 429.42 222.81 429.38 222.79 429.37 222.75 429.39 222.68 429.41 222.61 429.45 222.58 429.45 222.57 429.46 222.53 429.47 222.5 429.46 222.48 429.36 222.51 429.33 222.53 429.31 222.52 429.32 222.48 429.33 222.45 429.35 222.43 429.38 222.41 429.68 222.32 429.74 222.32 429.8 222.35 429.8 222.37 429.77 222.4 429.72 222.43 429.68 222.46 Z M 418.53 222.24 418.53 222.24 418.52 222.24 418.52 222.24 418.49 222.27 418.47 222.3 418.58 222.51 418.62 222.53 418.59 222.56 418.52 222.58 418.47 222.54 418.42 222.46 418.38 222.4 418.44 222.28 418.48 222.24 418.53 222.22 418.53 222.24 Z M 419.01 222.3 418.99 222.32 418.96 222.33 418.92 222.33 418.89 222.31 418.87 222.3 418.81 222.32 418.74 222.3 418.61 222.22 418.65 222.14 418.7 222.09 418.76 222.07 418.84 222.06 418.96 222.07 419.01 222.1 419.05 222.17 419.05 222.19 419.03 222.22 419.01 222.3 Z M 420.92 221.85 420.95 221.85 421.08 221.79 421.12 221.73 421.18 221.71 421.21 221.66 421.24 221.64 421.24 221.78 421.35 221.82 421.49 221.82 421.58 221.86 421.62 221.89 421.67 221.92 421.73 221.96 421.75 222.02 421.78 222.06 421.83 222.05 421.93 222.01 421.93 221.93 421.98 221.93 422.05 221.97 422.1 222.04 422.13 222.17 422.15 222.2 422.17 222.23 422.21 222.27 422.18 222.29 422.15 222.29 422.12 222.28 422.1 222.27 422.1 222.28 422.05 222.32 422.04 222.32 422.03 222.33 422.02 222.33 422.01 222.34 422.01 222.37 422.04 222.38 422.1 222.36 422.16 222.36 422.19 222.4 422.22 222.38 422.24 222.38 422.25 222.4 422.24 222.46 422.25 222.51 422.25 222.58 422.24 222.74 422.23 222.81 422.21 222.86 422.19 222.91 422.16 222.95 422.09 223.01 422 223.06 421.91 223.1 421.81 223.11 421.81 223.13 421.91 223.18 422.44 223.05 422.48 223.07 422.62 223.19 422.57 223.23 422.57 223.27 422.59 223.32 422.6 223.38 422.59 223.43 422.56 223.48 422.52 223.51 422.48 223.52 422.49 223.53 422.49 223.54 422.5 223.55 422.48 223.58 422.5 223.6 422.51 223.63 422.5 223.67 422.48 223.71 422.53 223.69 422.57 223.64 422.62 223.52 422.65 223.4 422.66 223.37 422.69 223.35 422.77 223.34 422.8 223.32 422.82 223.3 422.83 223.28 422.85 223.26 422.87 223.25 422.97 223.26 423.02 223.29 423.15 223.39 423.5 223.55 423.7 223.74 423.79 223.76 423.89 223.74 423.96 223.69 424.09 223.58 424.16 223.53 424.24 223.5 424.43 223.47 424.43 223.5 424.39 223.5 424.33 223.5 424.37 223.52 424.41 223.5 424.46 223.54 424.61 223.45 424.68 223.47 424.6 223.56 424.58 223.6 424.56 223.59 424.53 223.58 424.55 223.64 424.58 223.79 424.59 223.86 424.58 223.91 424.58 223.97 424.59 224.08 424.58 224.15 424.56 224.18 424.54 224.2 424.53 224.24 424.27 224.4 424.18 224.52 424.15 224.54 424.06 224.57 424.04 224.57 424.02 224.59 424.01 224.58 423.99 224.56 423.97 224.56 423.95 224.57 423.94 224.58 423.86 224.72 423.84 224.74 423.84 224.76 423.86 224.84 423.9 224.89 423.94 224.93 424 224.95 424.09 224.94 424.11 224.95 424.12 224.99 424.13 225.03 424.13 225.07 424.17 225.08 424.18 225.08 424.2 225.08 424.21 225.08 424.24 225.05 424.31 224.98 424.34 224.97 424.38 224.96 424.5 224.9 424.77 224.86 424.79 224.87 424.81 224.89 424.82 224.94 424.84 224.97 424.92 224.99 424.93 225.01 424.92 225.1 424.92 225.14 424.95 225.15 425.02 225.16 425.03 225.15 425.12 225.08 425.14 225.09 425.16 225.14 425.18 225.15 425.27 225.15 425.27 225.16 425.36 225.27 425.37 225.28 425.4 225.28 425.4 225.24 425.42 225.18 425.44 225.11 425.43 225.05 425.45 225.02 425.47 225 425.49 225 425.48 224.98 425.48 224.94 425.47 224.92 425.55 224.84 425.55 224.82 425.53 224.82 425.53 224.79 425.59 224.82 425.61 224.82 425.65 224.78 425.69 224.68 425.72 224.66 425.74 224.66 425.76 224.64 425.77 224.62 425.78 224.59 425.78 224.57 425.76 224.56 425.76 224.54 425.77 224.52 425.78 224.5 425.79 224.49 425.84 224.39 425.91 224.35 426 224.33 426.18 224.37 426.71 224.25 426.8 224.2 426.81 224.31 426.8 224.41 426.8 224.5 426.85 224.56 426.83 224.52 426.82 224.42 426.81 224.38 426.83 224.34 426.9 224.3 426.92 224.25 426.89 224.25 426.87 224.25 426.85 224.26 426.82 224.28 426.84 224.24 426.92 224.14 426.96 224.1 427.01 224.01 427.05 223.99 427.07 223.98 427.24 223.89 427.33 223.82 427.36 223.78 427.44 223.63 427.57 223.43 427.59 223.4 427.68 223.24 427.71 223.14 427.74 223.11 427.78 223.08 427.78 223.11 427.77 223.11 427.82 223.18 427.91 223.22 428.42 223.22 428.5 223.26 428.55 223.23 428.61 223.25 428.64 223.29 428.59 223.34 428.53 223.35 428.29 223.33 428.2 223.3 428.14 223.29 428.12 223.3 428.1 223.33 428.09 223.34 428.04 223.34 427.98 223.33 427.96 223.34 427.95 223.39 427.93 223.37 427.92 223.37 427.9 223.39 427.89 223.39 427.89 223.43 427.9 223.44 427.92 223.45 427.93 223.45 427.93 223.45 427.92 223.45 427.92 223.46 427.92 223.47 427.88 223.45 427.83 223.45 427.79 223.48 427.77 223.52 427.73 223.48 427.69 223.46 427.61 223.45 427.57 223.47 427.54 223.51 427.53 223.57 427.54 223.63 427.51 223.62 427.5 223.62 427.48 223.6 427.46 223.63 427.48 223.67 427.47 223.72 427.44 223.75 427.4 223.76 427.42 223.81 427.44 223.85 427.44 223.88 427.42 223.91 427.51 223.98 427.57 224 427.62 223.97 427.58 223.97 427.56 223.95 427.51 223.91 427.52 223.87 427.54 223.84 427.6 223.78 427.61 223.77 427.64 223.77 427.65 223.76 427.65 223.74 427.66 223.69 427.66 223.68 427.7 223.64 427.84 223.58 427.81 223.55 427.8 223.55 427.8 223.52 427.84 223.51 427.85 223.51 427.87 223.52 427.87 223.5 427.91 223.53 427.98 223.52 428.1 223.45 428.1 223.44 428.09 223.41 428.09 223.39 428.11 223.38 428.14 223.37 428.16 223.36 428.19 223.37 428.19 223.39 428.16 223.4 428.13 223.43 428.12 223.48 428.12 223.52 428.14 223.48 428.15 223.45 428.16 223.42 428.18 223.46 428.2 223.49 428.23 223.5 428.25 223.47 428.28 223.5 428.3 223.49 428.33 223.48 428.34 223.45 428.35 223.48 428.36 223.51 428.38 223.53 428.41 223.58 428.42 223.58 428.43 223.58 428.45 223.58 428.49 223.58 428.52 223.57 428.54 223.55 428.56 223.52 428.58 223.46 428.6 223.42 428.66 223.36 428.75 223.31 428.84 223.27 428.89 223.29 428.86 223.32 428.86 223.36 428.88 223.41 428.91 223.45 429 223.5 429.03 223.52 428.99 223.6 429 223.66 429.06 223.76 429.07 223.8 429.07 223.84 429.07 223.87 429.1 223.89 429.2 223.89 429.2 223.91 429.17 223.91 429.16 223.92 429.13 223.94 429.21 223.93 429.32 224 429.4 224.02 429.46 224.05 429.53 224.2 429.59 224.25 429.56 224.27 429.53 224.3 429.58 224.3 429.67 224.26 429.71 224.28 429.69 224.32 429.68 224.34 429.67 224.35 429.69 224.37 429.71 224.36 429.72 224.35 429.74 224.35 429.75 224.37 429.79 224.46 429.82 224.51 429.85 224.56 429.89 224.59 429.94 224.59 429.94 224.56 429.92 224.54 429.9 224.5 429.88 224.48 429.88 224.46 430.15 224.4 430.22 224.37 430.33 224.3 430.39 224.28 430.4 224.3 430.4 224.31 430.39 224.32 430.36 224.33 430.36 224.35 430.43 224.39 430.61 224.54 430.61 224.56 430.58 224.62 430.56 224.69 430.53 224.76 430.47 224.79 430.5 224.81 430.56 224.9 430.58 224.93 430.6 224.94 430.66 224.97 430.68 224.98 430.69 225.01 430.69 225.03 430.7 225.05 430.7 225.07 430.7 225.08 430.7 225.1 430.71 225.1 430.74 225.1 430.75 225.1 430.76 225.11 430.77 225.12 430.79 225.13 430.8 225.13 430.83 225.14 430.83 225.18 430.81 225.22 430.79 225.26 430.63 225.39 430.61 225.44 430.63 225.48 430.67 225.5 430.71 225.51 430.73 225.53 430.74 225.57 430.78 225.61 430.81 225.65 430.84 225.64 431 225.78 431.07 225.79 431.11 225.84 431.12 225.85 431.17 225.84 431.19 225.85 431.24 225.88 431.27 225.89 431.45 225.91 431.51 225.89 431.54 225.83 431.55 225.82 431.59 225.83 431.62 225.86 431.63 225.92 431.61 225.95 431.5 226.02 431.53 226.04 431.57 226.05 431.6 226.06 431.62 226.05 431.62 226.05 431.62 226.16 431.61 226.22 431.65 226.29 431.69 226.44 431.7 226.47 431.69 226.61 431.69 226.69 431.71 226.77 431.76 226.85 431.78 226.93 431.83 227.01 431.85 227.2 431.9 227.41 431.92 227.48 431.92 227.52 431.92 227.58 431.93 227.62 431.94 227.64 431.97 227.67 431.98 227.69 432.01 227.72 431.95 227.83 431.94 227.86 431.91 227.87 431.89 227.9 431.88 227.95 431.87 228 431.88 228.06 431.89 228.11 431.9 228.16 431.83 228.37 431.82 228.4 431.79 228.47 431.73 228.54 431.6 228.64 431.46 228.71 431.35 228.79 431.35 228.82 431.37 228.85 431.39 228.98 431.4 229.03 431.39 229.1 431.37 229.14 431.31 229.19 431.33 229.25 431.37 229.28 431.42 229.29 431.47 229.29 431.51 229.31 431.58 229.4 431.65 229.43 431.88 229.6 431.91 229.65 431.99 229.79 432.01 229.82 432.06 229.84 432.12 229.92 432.25 229.98 432.38 230.12 432.39 230.14 432.46 230.19 432.4 230.32 432.38 230.41 432.42 230.45 432.44 230.48 432.4 230.57 432.34 230.65 432.23 230.76 432.24 230.9 432.3 231.06 432.34 231.16 432.33 231.23 432.38 231.28 432.45 231.32 432.52 231.34 432.58 231.36 432.61 231.43 432.61 231.5 432.57 231.56 432.57 231.58 432.6 231.63 432.59 231.68 432.57 231.75 432.55 231.84 432.58 231.89 432.72 232 432.68 232.05 432.66 232.08 432.66 232.12 432.65 232.15 432.64 232.18 432.59 232.27 432.58 232.3 432.58 232.52 432.56 232.59 432.52 232.66 432.48 232.71 432.35 232.84 432.33 232.9 432.33 232.98 432.37 233.03 432.41 233.06 432.44 233.1 432.45 233.2 432.47 233.29 432.52 233.35 432.63 233.44 432.66 233.5 432.68 233.59 432.68 233.68 432.66 233.75 432.61 233.82 432.6 233.89 432.6 233.92 432.61 233.95 432.66 234.01 432.8 234.05 432.85 234.09 432.85 234.09 432.9 234.12 433 234.15 433.05 234.17 433.09 234.2 433.13 234.24 433.15 234.29 433.13 234.34 433.14 234.43 433.15 234.58 433.15 234.58 433.16 234.65 433.17 234.67 433.21 234.74 433.26 234.8 433.29 234.87 433.28 234.97 433.29 234.98 433.3 234.99 433.26 235.07 433.23 235.16 433.21 235.26 433.21 235.35 433.21 235.4 433.19 235.42 433.17 235.44 433.16 235.46 433.16 235.49 433.16 235.56 433.15 235.6 433.05 235.85 432.94 236.12 432.86 236.21 432.83 236.26 432.83 236.32 432.79 236.42 432.77 236.46 432.75 236.48 432.72 236.49 432.67 236.49 432.59 236.47 432.5 236.41 432.47 236.39 432.39 236.37 432.38 236.34 432.39 236.28 432.43 236.19 432.44 236.14 432.43 236.11 432.4 236.1 432.28 236.16 432.25 236.14 432.27 236.09 432.29 236.04 432.31 236 432.31 235.95 432.31 235.91 432.29 235.89 432.26 235.85 432.24 235.83 432.18 235.82 432.15 235.8 432.13 235.77 432.12 235.75 432.11 235.73 432.1 235.7 432.08 235.74 432.06 235.76 431.98 235.75 431.92 235.78 431.89 235.78 431.87 235.77 431.85 235.75 431.84 235.73 431.82 235.71 431.74 235.69 431.67 235.7 431.62 235.75 431.59 235.85 431.56 235.89 431.59 235.91 431.66 235.92 431.71 235.93 431.7 235.94 431.68 235.95 431.68 235.99 431.74 236.05 431.82 236.07 431.88 236.1 431.87 236.19 431.8 236.25 431.63 236.23 431.55 236.25 431.52 236.27 431.48 236.33 431.46 236.36 431.11 236.52 431.07 236.52 430.99 236.51 430.94 236.52 430.92 236.54 430.89 236.58 430.86 236.6 430.84 236.6 430.81 236.6 430.8 236.6 430.77 236.62 430.77 236.66 430.77 236.68 430.77 236.71 430.77 236.73 430.76 236.75 430.74 236.75 430.73 236.75 430.67 236.79 430.63 236.8 430.53 236.79 430.48 236.8 430.39 236.83 430.35 236.84 430.15 236.83 430.05 236.85 429.96 236.91 429.99 236.96 429.98 237.01 429.95 237.05 429.91 237.07 429.92 237.1 429.92 237.12 429.91 237.14 429.89 237.15 429.85 237.2 429.81 237.23 429.77 237.25 429.72 237.22 429.7 237.2 429.67 237.15 429.66 237.14 429.63 237.13 429.63 237.13 429.63 237.14 429.61 237.16 429.53 237.22 429.52 237.24 429.49 237.31 429.45 237.33 429.41 237.32 429.37 237.29 429.33 237.29 429.26 237.49 429.23 237.54 429.17 237.58 429.05 237.58 428.99 237.6 428.99 237.6 428.99 237.6 428.97 237.6 428.95 237.61 428.93 237.6 428.91 237.6 428.89 237.59 428.87 237.58 428.86 237.59 428.84 237.6 428.82 237.74 428.81 237.8 428.78 237.84 428.73 237.89 428.71 237.91 428.64 237.9 428.43 237.78 428.41 237.77 428.39 237.78 428.36 237.8 428.35 237.8 428.31 237.8 428.27 237.8 428.24 237.81 428.21 237.84 428.16 237.91 428.13 237.94 428.1 237.94 427.99 237.92 427.82 237.93 427.73 237.96 427.67 238.01 427.65 238.03 427.65 238.04 427.64 238.06 427.63 238.08 427.64 238.08 427.64 238.1 427.64 238.11 427.63 238.12 427.63 238.13 427.61 238.13 427.6 238.13 427.57 238.15 427.51 238.19 427.48 238.21 427.41 238.34 427.39 238.37 427.36 238.38 427.35 238.41 427.34 238.46 427.3 238.52 427.28 238.55 427.28 238.61 427.28 238.66 427.3 238.69 427.3 238.72 427.27 238.75 427.23 238.74 427.21 238.71 427.18 238.61 427.18 238.59 427.17 238.57 427.16 238.55 427.15 238.54 427.12 238.5 427.11 238.49 427.11 238.48 427.11 238.48 427.12 238.47 427.12 238.47 427.12 238.47 427.12 238.47 427.13 238.46 427.14 238.45 427.14 238.43 427.13 238.42 427.12 238.41 427.05 238.41 427.02 238.4 426.99 238.37 426.99 238.35 426.99 238.29 426.97 238.26 426.93 238.23 426.82 238.22 426.77 238.21 426.82 238.27 426.84 238.3 426.85 238.35 426.84 238.39 426.83 238.41 426.8 238.42 426.78 238.46 426.8 238.51 426.91 238.57 426.96 238.63 426.99 238.67 427.01 238.71 427.01 238.76 427 238.84 427 238.89 427.02 238.95 427.05 238.98 427.08 239 427.12 239.02 427.14 239.06 427.14 239.09 427.14 239.12 427.15 239.15 427.48 239.33 427.48 239.33 427.52 239.36 427.6 239.37 427.64 239.4 427.64 239.45 427.63 239.5 427.63 239.54 427.72 239.59 427.75 239.6 427.76 239.63 427.75 239.69 427.74 239.75 427.69 239.84 427.67 239.89 427.63 239.88 427.61 239.93 427.61 240 427.6 240.06 427.57 240.09 427.48 240.13 427.45 240.18 427.46 240.22 427.48 240.26 427.53 240.33 427.56 240.36 427.6 240.38 427.67 240.42 427.7 240.43 427.72 240.47 427.72 240.51 427.7 240.55 427.71 240.56 427.72 240.57 427.71 240.59 427.71 240.6 427.74 240.63 427.79 240.66 427.81 240.69 427.83 240.72 427.84 240.8 427.85 240.84 427.86 240.88 427.87 240.91 427.89 240.93 427.92 240.96 427.94 240.97 427.96 240.96 427.98 240.98 427.98 241.03 427.99 241.15 428 241.2 428.03 241.25 428.07 241.29 428.17 241.33 428.22 241.38 428.29 241.54 428.32 241.58 428.37 241.6 428.5 241.61 428.54 241.61 428.53 241.57 428.56 241.56 428.65 241.58 428.68 241.6 428.72 241.63 428.78 241.69 428.82 241.71 428.83 241.73 428.83 241.77 428.84 241.8 428.91 241.88 428.91 241.88 428.91 241.88 428.94 241.9 429.15 242.18 429.18 242.25 429.21 242.3 429.28 242.34 429.41 242.35 429.45 242.36 429.48 242.39 429.55 242.48 429.64 242.57 429.67 242.63 429.67 242.73 429.7 242.78 429.76 242.84 429.83 242.89 429.89 242.91 429.91 242.85 429.93 242.82 429.96 242.8 429.97 242.81 430.01 242.81 430.05 242.84 430.09 242.87 430.13 242.89 430.17 242.88 430.17 242.95 430.2 243.01 430.23 243.06 430.27 243.1 430.31 243.12 430.39 243.13 430.42 243.15 430.47 243.23 430.58 243.44 430.62 243.49 430.56 243.63 430.55 243.66 430.57 243.65 430.59 243.7 430.6 243.71 430.63 243.73 430.6 243.75 430.59 243.79 430.6 243.9 430.6 243.96 430.6 244.01 430.58 244.05 430.54 244.13 430.53 244.15 430.51 244.17 430.5 244.17 430.45 244.18 430.44 244.18 430.42 244.22 430.4 244.31 430.4 244.3 430.31 244.26 430.28 244.21 430.24 244.18 430.2 244.16 429.97 244.1 429.9 244.11 429.82 244.13 429.8 244.15 429.79 244.17 429.79 244.19 429.8 244.2 429.81 244.26 429.83 244.29 429.83 244.32 429.83 244.36 429.8 244.42 429.79 244.45 429.78 244.48 429.79 244.57 429.78 244.61 429.77 244.63 429.76 244.65 429.76 244.67 429.75 244.74 429.72 244.79 429.5 244.98 429.42 245.02 429.12 245.07 428.89 245.16 428.85 245.19 428.77 245.27 428.7 245.31 428.67 245.34 428.67 245.34 428.55 245.37 428.51 245.39 428.49 245.41 428.45 245.47 428.42 245.51 428.33 245.57 428.33 245.58 428.29 245.63 428.28 245.63 428.27 245.63 428.25 245.64 428.24 245.66 428.23 245.71 428.24 245.75 428.26 245.79 428.29 245.82 428.44 245.99 428.47 246.06 428.48 246.1 428.48 246.1 428.49 246.13 428.51 246.16 428.56 246.19 428.61 246.24 428.63 246.25 428.66 246.28 428.74 246.46 428.79 246.53 428.8 246.54 428.65 246.77 428.64 246.8 428.64 246.82 428.64 246.84 428.63 246.86 428.62 246.88 428.62 246.88 428.62 246.88 428.58 246.95 428.61 246.98 428.74 247.01 428.77 247 428.83 246.98 428.86 246.98 428.89 247 428.92 247.04 428.96 247.11 428.98 247.16 428.98 247.2 428.98 247.24 428.98 247.28 428.97 247.29 428.94 247.35 428.94 247.36 428.91 247.41 428.9 247.4 428.9 247.48 428.91 247.48 428.91 247.48 428.88 247.54 428.88 247.54 428.88 247.6 428.88 247.62 428.89 247.64 428.89 247.66 428.9 247.68 428.9 247.7 428.84 247.78 428.82 247.79 428.8 247.79 428.78 247.78 428.77 247.77 428.75 247.76 428.73 247.76 428.71 247.77 428.69 247.78 428.67 247.77 428.56 247.68 428.46 247.57 428.44 247.56 428.42 247.55 428.38 247.54 428.33 247.5 428.32 247.42 428.34 247.34 428.4 247.31 428.36 247.27 428.3 247.23 428.27 247.19 428.29 247.13 428.25 247.14 428.13 247.11 428.05 247.11 427.97 247.13 427.93 247.15 427.85 247.22 427.83 247.23 427.79 247.25 427.75 247.26 427.7 247.26 427.67 247.24 427.6 247.19 427.59 247.17 427.57 247.14 427.55 247.07 427.54 247.05 427.5 247.05 427.42 247.08 427.38 247.08 427.25 247.06 427.2 247.06 427.15 247.09 427.13 247.09 427.11 247.07 427.1 247.04 427.1 247.02 427.12 247 427.12 246.97 427.13 246.93 427.14 246.92 427.13 246.92 427.1 246.93 427.08 246.95 427.03 246.99 426.99 247.01 427 247.03 427 247.05 427.02 247.07 427.04 247.09 427.05 247.1 427.05 247.12 427.06 247.2 427.06 247.23 427.05 247.25 426.98 247.34 426.97 247.34 426.46 247.32 426.27 247.36 426.25 247.37 426.22 247.43 426.2 247.43 426.08 247.41 425.9 247.41 425.8 247.39 425.76 247.39 425.75 247.4 425.69 247.45 425.67 247.48 425.66 247.56 425.65 247.59 425.61 247.64 425.56 247.65 425.45 247.67 425.4 247.66 425.35 247.65 425.3 247.66 425.19 247.78 425.22 247.79 425.24 247.8 425.25 247.83 425.23 247.86 425.2 247.88 425.1 247.88 425.06 247.89 425.02 247.93 424.99 247.97 424.96 248 424.91 248.03 424.86 248.02 424.86 247.93 424.81 247.91 424.76 247.93 424.61 248.03 424.57 248.04 424.34 248.04 424.31 248.02 424.28 247.98 424.29 247.97 424.3 247.96 424.3 247.94 424.3 247.92 424.29 247.9 424.18 247.78 424.07 247.73 424.05 247.7 424.13 247.65 424.14 247.63 424.09 247.59 424.07 247.58 424.04 247.58 424.01 247.59 423.92 247.63 423.85 247.64 423.83 247.63 423.82 247.61 423.82 247.6 423.81 247.59 423.51 247.48 423.46 247.48 423.43 247.5 423.39 247.56 423.36 247.58 423.33 247.59 423.24 247.57 423.2 247.56 423.18 247.54 423.17 247.53 423.17 247.5 423.18 247.48 423.19 247.46 423.19 247.45 423.18 247.42 423.17 247.41 423.16 247.42 423.12 247.43 423.08 247.44 423.09 247.47 423.11 247.51 423.12 247.54 423.12 247.57 423.1 247.7 423.13 247.72 423.15 247.74 423.16 247.77 423.17 247.81 423.17 247.88 423.15 247.95 423.12 248.02 423.08 248.07 423.06 248.08 423.01 248.1 422.99 248.11 422.98 248.13 422.93 248.23 422.89 248.29 422.84 248.33 422.75 248.39 422.7 248.4 422.55 248.42 422.52 248.43 422.51 248.42 422.52 248.4 422.54 248.36 422.55 248.36 422.58 248.35 422.59 248.34 422.6 248.32 422.59 248.3 422.59 248.28 422.63 248.15 422.63 248.1 422.59 248.07 422.49 248.09 422.47 248.12 422.46 248.13 422.45 248.13 422.42 248.11 422.41 248.11 422.38 248.13 422.37 248.14 422.35 248.14 422.33 248.12 422.32 248.09 422.31 248.05 422.31 248.02 422.28 247.99 422.34 247.95 422.35 247.92 422.33 247.88 422.22 247.72 422.19 247.73 422.17 247.75 422.15 247.76 422.13 247.74 422.12 247.72 422.12 247.71 422.12 247.7 422.1 247.66 422.08 247.63 422.05 247.6 422.05 247.55 422.02 247.57 421.99 247.57 421.92 247.57 421.85 247.54 421.84 247.55 421.82 247.57 421.8 247.57 421.75 247.54 421.74 247.51 421.75 247.47 421.74 247.43 421.72 247.4 421.68 247.39 421.65 247.39 421.62 247.41 421.57 247.47 421.54 247.53 421.51 247.58 421.45 247.61 421.31 247.61 421.18 247.57 421.17 247.57 421.16 247.57 420.56 247.19 420.47 247.17 420.39 247.17 420.36 247.12 420.23 247.12 419.99 247.09 419.94 247.11 419.91 247.15 419.83 247.17 419.74 247.18 419.69 247.17 419.62 247.12 419.62 247.12 419.59 247.09 419.59 247.06 419.63 247.06 419.57 247 419.5 246.96 419.44 246.96 419.42 247.02 419.44 247.04 419.32 247.04 419.32 247.02 419.31 247 419.3 246.97 419.29 246.95 419.29 246.93 419.32 246.88 419.33 246.87 419.31 246.84 419.29 246.83 419.27 246.84 419.24 246.83 419.23 246.81 419.21 246.77 419.19 246.74 419.16 246.73 419.14 246.75 419.13 246.82 419.1 246.84 419.08 246.82 419.07 246.78 419.07 246.74 419.07 246.71 419.03 246.7 418.97 246.69 418.94 246.71 418.96 246.76 418.92 246.78 418.8 246.81 418.78 246.8 418.76 246.81 418.73 246.86 418.72 246.88 418.7 246.95 418.68 246.97 418.62 247 418.6 247.03 418.6 247.05 418.61 247.07 418.61 247.1 418.6 247.14 418.64 247.15 418.65 247.15 418.7 247.2 418.75 247.22 418.79 247.22 418.82 247.2 418.85 247.18 418.89 247.16 418.99 247.15 419.02 247.15 419.05 247.16 419.06 247.17 419.08 247.17 419.07 247.25 419.05 247.24 419.05 247.22 419.05 247.21 419.04 247.21 419.03 247.22 419.02 247.22 419.01 247.24 419.02 247.26 419.02 247.27 419.02 247.28 419.02 247.3 419.02 247.33 419.02 247.35 419.01 247.37 419.01 247.38 418.98 247.39 418.96 247.36 418.95 247.36 418.93 247.31 418.89 247.28 418.82 247.29 418.76 247.33 418.73 247.39 418.73 247.4 418.67 247.41 418.66 247.42 418.52 247.41 418.43 247.39 418.41 247.38 418.4 247.35 418.38 247.31 418.37 247.3 418.35 247.3 418.29 247.28 418.25 247.28 418.13 247.3 418.12 247.31 418.11 247.32 418.09 247.34 418.05 247.35 418 247.38 417.99 247.39 417.97 247.41 417.96 247.43 417.95 247.44 417.93 247.46 417.83 247.48 417.54 247.48 417.53 247.47 417.53 247.44 417.52 247.41 417.51 247.39 417.36 247.38 417.33 247.37 417.29 247.43 417.26 247.47 417.22 247.5 417.13 247.51 417.03 247.54 416.98 247.53 416.95 247.51 416.87 247.47 416.87 247.47 416.93 247.47 416.95 247.45 416.98 247.36 416.93 247.37 416.82 247.4 416.82 247.37 416.83 247.36 416.83 247.33 416.81 247.31 416.8 247.3 416.79 247.28 416.74 247.18 416.71 247.14 416.67 247.12 416.66 247.11 416.66 247.07 416.65 247 416.66 246.98 416.7 246.94 416.71 246.92 416.71 246.87 416.68 246.75 416.69 246.71 416.72 246.6 416.73 246.58 416.76 246.57 416.77 246.53 416.76 246.47 416.76 246.45 416.75 246.45 416.75 246.44 416.76 246.42 416.76 246.41 416.78 246.4 416.79 246.38 416.8 246.35 416.8 246.33 416.8 246.28 416.81 246.23 416.87 246.17 416.89 246.13 416.89 246.03 416.79 245.86 416.79 245.72 416.8 245.66 416.81 245.61 416.83 245.58 416.85 245.56 416.86 245.53 416.86 245.48 416.88 245.44 417.02 245.25 417.04 245.2 417.05 245.14 417.06 245.08 417.07 245.01 417.11 244.98 417.15 244.96 417.18 244.91 417.18 244.86 417.17 244.82 417.16 244.77 417.15 244.73 417.15 244.69 417.17 244.6 417.18 244.56 417.2 244.53 417.21 244.51 417.22 244.48 417.23 244.41 417.24 244.38 417.26 244.36 417.32 244.31 417.32 244.29 417.29 244.22 417.29 244.1 417.31 243.99 417.41 243.85 417.43 243.83 417.47 243.82 417.5 243.79 417.56 243.72 417.59 243.7 417.62 243.67 417.64 243.64 417.65 243.61 417.66 243.55 417.67 243.52 417.69 243.51 417.75 243.51 417.77 243.5 417.78 243.49 417.79 243.47 417.79 243.44 417.8 243.42 417.81 243.41 417.82 243.41 417.84 243.41 417.92 243.36 417.93 243.35 417.96 243.3 418.06 243.03 418.13 242.9 418.18 242.84 418.18 242.84 418.15 242.82 417.93 242.77 417.58 242.59 417.54 242.58 417.42 242.59 417.23 242.54 417.21 242.55 417.16 242.58 417.13 242.58 417.11 242.58 417.06 242.56 417.04 242.56 417.01 242.56 416.98 242.58 416.95 242.58 416.95 242.58 416.92 242.58 416.9 242.56 416.88 242.51 416.87 242.49 416.82 242.47 416.72 242.45 416.67 242.42 416.64 242.38 416.59 242.3 416.56 242.27 416.56 242.26 416.57 242.25 416.59 242.24 416.57 242.19 416.53 242.18 416.44 242.17 416.43 242.13 416.38 242.13 416.34 242.14 416.33 242.15 416.29 242.17 416.28 242.18 416.27 242.23 416.26 242.25 416.24 242.26 416.2 242.26 416.18 242.27 416.16 242.29 416.14 242.34 416.12 242.35 416.11 242.35 416.05 242.32 415.86 242.32 415.83 242.31 415.79 242.29 415.71 242.23 415.69 242.22 415.67 242.24 415.68 242.26 415.68 242.28 415.68 242.3 415.61 242.34 415.56 242.3 415.54 242.21 415.54 242.09 415.49 242.09 415.35 242.01 415.33 242.01 415.26 242.01 415.17 241.99 415.15 242 415.13 242.04 415.15 242.1 415.16 242.15 415.12 242.2 415.09 242.21 415.01 242.18 414.91 242.18 414.88 242.17 414.85 242.12 414.86 242.08 414.87 242.04 414.86 241.98 414.85 241.98 414.82 242 414.81 242 414.8 241.99 414.8 241.96 414.8 241.96 414.79 241.94 414.77 241.88 414.76 241.87 414.73 241.86 414.72 241.85 414.72 241.84 414.72 241.8 414.72 241.79 414.57 241.65 414.53 241.6 414.52 241.56 414.53 241.53 414.57 241.53 414.58 241.5 414.57 241.48 414.47 241.37 414.45 241.34 414.45 241.34 414.45 241.32 414.45 241.29 414.43 241.27 414.4 241.23 414.19 241.13 414.17 241.12 414.15 241.13 414.11 241.16 414.08 241.16 414.07 241.16 414.07 241.14 414.06 241.03 414.07 240.92 414.08 240.89 414.08 240.78 414.09 240.75 414.12 240.69 414.18 240.62 414.2 240.58 414.22 240.55 414.23 240.54 414.22 240.51 414.21 240.5 414.2 240.49 414.19 240.48 414.23 240.43 414.39 240.33 414.39 240.32 414.37 240.3 414.38 240.28 414.39 240.28 414.41 240.29 414.39 240.27 414.38 240.24 414.38 240.21 414.38 240.18 414.4 240.16 414.4 240.15 414.39 240.14 414.39 240.11 414.41 240.04 414.41 240.03 414.41 240.01 414.41 240 414.41 240 414.4 239.99 414.39 239.99 414.33 239.97 414.22 239.97 414.18 239.96 414.14 239.93 414.08 239.87 414.04 239.85 414.02 239.85 413.99 239.87 413.97 239.87 413.97 239.86 413.96 239.82 413.95 239.8 413.94 239.78 413.9 239.76 413.83 239.72 413.79 239.69 413.72 239.51 413.68 239.45 413.66 239.5 413.64 239.47 413.61 239.37 413.57 239.31 413.56 239.29 413.57 239.25 413.55 239.18 413.54 239.15 413.51 239.13 413.53 239.09 413.54 239.08 413.54 239.08 413.52 239.08 413.52 239.08 413.53 238.98 413.55 238.94 413.56 238.89 413.58 238.86 413.59 238.84 413.58 238.82 413.56 238.8 413.56 238.78 413.57 238.74 413.57 238.73 413.59 238.72 413.64 238.72 413.65 238.71 413.67 238.67 413.67 238.64 413.66 238.6 413.63 238.56 413.65 238.53 413.7 238.5 413.72 238.46 413.77 238.44 413.86 238.42 413.9 238.38 413.89 238.35 413.9 238.31 413.91 238.28 413.93 238.25 413.96 238.24 413.99 238.24 414.01 238.25 414.04 238.25 414.1 238.24 414.13 238.21 414.13 238.19 414.13 238.16 414.05 238.03 414.05 237.99 414.06 237.94 414.08 237.86 414.08 237.8 414.07 237.79 414.05 237.79 414.04 237.76 414.02 237.72 414.02 237.69 414.02 237.66 414.05 237.64 414.01 237.64 413.91 237.61 413.88 237.6 413.87 237.59 413.87 237.59 413.86 237.59 413.86 237.6 413.78 237.62 413.76 237.62 413.74 237.61 413.72 237.57 413.7 237.55 413.72 237.52 413.7 237.52 413.68 237.51 413.68 237.5 413.69 237.47 413.66 237.42 413.7 237.36 413.77 237.3 413.82 237.27 413.82 237.26 413.84 237.23 413.86 237.2 413.85 237.18 413.7 237.17 413.65 237.15 413.63 237.1 413.66 237.08 413.52 236.87 413.48 236.83 413.44 236.83 413.35 236.85 413.33 236.85 413.32 236.82 413.33 236.78 413.32 236.75 413.29 236.73 413.28 236.72 413.28 236.72 413.29 236.71 413.29 236.7 413.29 236.66 413.28 236.64 413.26 236.62 413.24 236.59 413.23 236.55 413.26 236.56 413.3 236.53 413.31 236.48 413.3 236.45 413.3 236.42 413.32 236.39 413.35 236.37 413.4 236.37 413.43 236.34 413.44 236.31 413.44 236.28 413.42 236.21 413.43 236.18 413.44 236.17 413.44 236.15 413.37 236.13 413.32 236.09 413.3 236.07 413.29 236.05 413.29 236 413.3 235.97 413.31 235.94 413.31 235.92 413.23 235.93 413.17 235.91 413.14 235.91 413.11 235.91 413.05 235.94 413.02 235.95 413.02 235.86 412.99 235.76 412.97 235.68 413.04 235.64 413.07 235.66 413.09 235.7 413.12 235.72 413.16 235.72 413.19 235.69 413.23 235.6 413.26 235.56 413.47 235.4 413.59 235.34 413.63 235.29 413.58 235.25 413.63 235.21 413.65 235.2 413.6 235.18 413.49 235.25 413.43 235.23 413.42 235.16 413.43 235.08 413.44 235.01 413.47 234.97 413.51 234.92 413.63 234.71 413.65 234.68 413.71 234.64 413.73 234.61 413.74 234.57 413.75 234.49 413.76 234.46 413.73 234.42 413.73 234.35 413.75 234.28 413.76 234.21 413.74 234.14 413.73 234.03 413.64 233.93 413.49 233.72 413.48 233.68 413.49 233.63 413.52 233.55 413.37 233.48 413.32 233.42 413.35 233.32 413.33 233.29 413.28 233.26 413.25 233.24 413.19 233.25 413.17 233.24 413.17 233.2 413.18 233.19 413.22 233.15 413.22 233.08 413.19 233.01 413.14 232.97 413.15 232.94 413.18 232.91 413.28 232.9 413.32 232.88 413.36 232.84 413.4 232.83 413.49 232.8 413.56 232.82 413.61 232.83 413.65 232.84 413.62 232.8 413.53 232.71 413.51 232.69 413.58 232.65 413.65 232.68 413.72 232.74 413.8 232.77 413.87 232.75 413.89 232.76 413.9 232.77 413.93 232.82 413.94 232.83 414.02 232.84 414.06 232.86 414.06 232.92 414.15 232.89 414.16 232.86 414.14 232.78 414.28 232.82 414.33 232.82 414.36 232.8 414.47 232.72 414.69 232.64 414.89 232.64 414.95 232.61 415 232.54 415.05 232.45 415.07 232.43 415.09 232.43 415.1 232.42 415.1 232.37 415.09 232.35 415.08 232.33 415.02 232.27 414.88 232.19 414.83 232.18 414.8 232.15 414.79 232.1 414.81 232.06 414.83 232.05 414.85 232.05 414.88 232.04 414.89 232.01 414.91 231.97 414.92 231.95 414.96 231.91 415 231.89 415.01 231.89 415.14 231.87 415.17 231.85 415.22 231.75 415.26 231.7 415.36 231.66 415.4 231.62 415.45 231.53 415.48 231.51 415.58 231.45 415.58 231.43 415.58 231.42 415.56 231.39 415.54 231.32 415.54 231.25 415.56 231.2 415.6 231.09 415.62 230.96 415.59 230.87 415.46 230.65 415.44 230.65 415.43 230.68 415.41 230.7 415.35 230.72 415.3 230.72 415.23 230.71 415.12 230.66 414.94 230.64 414.88 230.61 414.84 230.56 414.83 230.51 414.82 230.44 414.82 230.38 414.79 230.32 414.83 230.32 414.95 230.25 414.88 230.19 414.86 230.17 414.86 230.14 414.87 230.11 414.87 230.08 414.86 230.04 414.89 230.01 414.93 229.98 415.01 229.96 415.22 229.96 415.34 229.99 415.45 229.98 415.48 229.99 415.56 230.01 415.6 229.94 415.61 229.81 415.63 229.41 415.65 229.29 415.68 229.23 415.69 229.18 415.88 228.89 415.92 228.77 415.94 228.65 415.95 228.52 415.93 228.26 415.92 228.23 415.91 228.21 415.9 228.18 415.9 228.14 415.9 228.11 415.93 228.03 415.95 227.97 415.96 227.91 415.95 227.85 415.95 227.74 415.97 227.73 416 227.7 416.01 227.68 416.03 227.64 416.04 227.59 416.03 227.55 416.08 227.47 416.11 227.45 416.16 227.45 416.21 227.46 416.29 227.51 416.33 227.53 416.28 227.45 416.19 227.42 415.68 227.4 415.6 227.36 415.57 227.26 415.57 226.98 415.58 226.92 415.62 226.81 415.63 226.75 415.65 226.72 415.69 226.72 415.78 226.74 415.79 226.71 415.81 226.7 415.83 226.66 415.83 226.61 415.81 226.59 415.74 226.55 415.71 226.52 415.71 226.48 415.74 226.43 415.81 226.39 415.89 226.29 415.94 226.26 416.02 226.18 416.19 226.11 416.53 226.07 416.56 226.09 416.58 226.12 416.63 226.13 416.96 226.07 417.63 225.97 417.8 226.02 417.8 226.05 417.79 226.16 417.85 226.29 417.94 226.41 418.02 226.46 418.02 226.48 418 226.53 418.03 226.55 418.08 226.56 418.11 226.6 418.1 226.67 418.08 226.7 418.03 226.74 417.99 226.76 417.9 226.77 417.86 226.79 417.9 226.92 417.92 226.96 417.95 226.99 417.98 226.98 418.01 226.97 418.05 226.97 418.07 226.99 418.11 227.03 418.13 227.05 418.15 227.06 418.17 227.1 418.19 227.13 418.22 227.15 418.26 227.15 418.28 227.14 418.31 227.12 418.34 227.1 418.38 227.02 418.43 226.89 418.44 226.76 418.38 226.69 418.29 226.71 418.25 226.71 418.25 226.65 418.27 226.59 418.29 226.46 418.3 226.41 418.33 226.38 418.37 226.36 418.46 226.36 418.51 226.38 418.54 226.42 418.57 226.48 418.59 226.51 418.68 226.56 418.87 226.6 418.96 226.64 418.96 226.66 418.9 226.71 418.86 226.77 418.82 226.85 418.81 226.96 418.81 227.17 418.82 227.26 418.85 227.33 418.86 227.23 418.83 227 418.84 226.89 418.87 226.81 418.92 226.78 418.97 226.73 418.99 226.63 418.98 226.61 418.92 226.46 418.9 226.44 418.88 226.39 418.86 226.33 418.84 226.26 418.81 226.18 418.81 226.12 418.81 226.05 418.82 226 418.91 225.79 418.97 225.56 419 225.46 419.04 225.42 419.08 225.37 419.13 225.35 419.18 225.33 419.22 225.34 419.25 225.35 419.31 225.41 419.38 225.48 419.47 225.52 419.64 225.56 419.74 225.56 419.9 225.52 419.99 225.53 420.03 225.48 420.2 225.44 420.38 225.44 420.42 225.41 420.45 225.43 420.48 225.44 420.56 225.44 420.58 225.45 420.63 225.51 420.84 225.9 420.93 226 420.99 226.05 421.02 226.09 421.05 226.2 421.21 226.43 421.24 226.46 421.28 226.48 421.33 226.48 421.36 226.5 421.49 226.59 421.64 226.62 421.77 226.65 421.79 226.64 421.77 226.59 421.68 226.54 421.48 226.52 421.4 226.48 421.24 226.38 421.17 226.3 421.14 226.18 421.14 226.08 421.13 226.01 421.11 225.99 421 225.93 420.97 225.92 420.92 225.87 420.86 225.76 420.83 225.64 420.83 225.56 420.75 225.53 420.61 225.41 420.52 225.36 420.44 225.34 420.16 225.33 420.07 225.29 420.02 225.28 419.99 225.3 419.97 225.33 419.92 225.32 419.84 225.26 419.76 225.17 419.58 224.79 419.67 224.75 419.71 224.75 419.76 224.76 419.85 224.82 419.9 224.84 419.94 224.82 419.96 224.78 419.98 224.7 419.99 224.62 419.99 224.56 419.96 224.52 419.92 224.49 419.89 224.45 419.9 224.4 419.9 224.38 419.85 224.36 419.77 224.38 419.7 224.41 419.66 224.46 419.64 224.46 419.58 224.35 419.54 224.27 419.54 224.25 419.55 224.17 419.59 224.11 419.61 224.05 419.59 223.99 419.59 223.97 419.62 223.95 419.72 223.92 419.75 223.91 419.78 223.9 419.81 223.85 419.85 223.79 419.87 223.73 419.82 223.74 419.73 223.81 419.69 223.83 419.69 223.82 419.7 223.79 419.7 223.78 419.63 223.79 419.52 223.83 419.45 223.83 419.37 223.82 419.34 223.83 419.26 223.91 419.24 223.91 419.18 223.89 419.12 223.84 419.07 223.75 419.06 223.65 419.09 223.61 419.16 223.59 419.22 223.57 419.28 223.58 419.28 223.55 419.24 223.54 419.2 223.51 419.18 223.5 419.14 223.55 419.12 223.51 419.13 223.47 419.15 223.43 419.17 223.39 419.22 223.42 419.4 223.37 419.64 223.37 419.7 223.35 419.74 223.32 419.84 223.24 419.92 223.2 419.96 223.17 419.98 223.11 419.98 223.01 419.92 222.93 419.74 222.73 419.71 222.69 419.7 222.65 419.68 222.63 419.64 222.63 419.59 222.65 419.56 222.66 419.55 222.64 419.62 222.58 419.55 222.38 419.52 222.32 419.46 222.28 419.34 222.18 419.26 222.14 419.26 222.11 419.27 222.04 419.24 221.97 419.2 221.89 419.17 221.82 419.16 221.72 419.17 221.63 419.2 221.52 419.28 221.55 419.36 221.55 419.51 221.49 419.56 221.49 419.74 221.52 419.91 221.59 420.38 221.7 420.42 221.73 420.43 221.77 420.44 221.82 420.45 221.87 420.49 221.89 420.65 221.89 420.69 221.88 420.71 221.86 420.74 221.85 420.76 221.83 420.8 221.82 420.85 221.86 420.89 221.86 420.92 221.85 420.92 221.85 Z M 418.59 221.53 418.7 221.56 419.18 221.53 419.13 221.58 418.85 221.56 418.82 221.58 418.76 221.63 418.72 221.64 418.57 221.64 418.55 221.63 418.54 221.6 418.52 221.59 418.5 221.59 418.48 221.59 418.41 221.64 418.4 221.65 418.4 221.68 418.39 221.76 418.39 221.77 418.39 221.98 418.39 222.05 418.38 222.1 418.36 222.11 418.35 222.06 418.35 221.96 418.37 221.54 418.39 221.46 418.56 220.99 418.66 220.87 418.76 220.93 418.63 220.93 418.61 220.95 418.67 220.96 418.69 221.01 418.67 221.06 418.58 221.11 418.54 221.17 418.51 221.25 418.53 221.32 418.52 221.46 418.59 221.53 Z" fill-rule="evenodd" id="Germany" transform="translate(-412.9700012207031,-220.8699951171875) "/></svg>