<svg xmlns="http://www.w3.org/2000/svg" viewBox="0 0 9.860015869140625 14.279998779296875"><path d="M 399.63 342.29 399.65 342.33 399.69 342.36 399.73 342.38 399.77 342.39 399.81 342.39 399.89 342.37 399.93 342.37 400 342.4 400.04 342.45 400.04 342.52 400.04 342.6 400.03 342.63 400.02 342.64 400 342.66 399.98 342.67 399.97 342.7 399.92 342.92 399.92 342.94 399.93 342.99 399.93 343.01 399.91 343.03 399.86 343.06 399.83 343.1 399.82 343.14 399.8 343.23 399.8 343.26 399.78 343.32 399.78 343.37 399.8 343.41 399.82 343.43 399.85 343.44 399.87 343.45 399.93 343.45 399.94 343.46 399.96 343.48 399.98 343.49 400.05 343.51 400.07 343.53 400.08 343.55 400.11 343.6 400.13 343.62 400.24 343.69 400.28 343.73 400.39 343.94 400.4 343.95 400.42 343.95 400.43 343.93 400.43 343.92 400.44 343.91 400.5 343.94 400.52 343.94 400.54 343.93 400.56 343.92 400.58 343.92 400.61 343.92 400.63 343.94 400.63 343.97 400.62 343.99 400.62 344.01 400.64 344.05 400.68 344.08 400.7 344.12 400.68 344.17 400.72 344.17 400.81 344.15 400.83 344.16 400.88 344.2 400.82 344.24 400.81 344.27 400.81 344.31 400.79 344.34 400.8 344.41 400.78 344.57 400.81 344.63 400.83 344.65 400.86 344.65 400.88 344.67 400.88 344.71 400.87 344.75 400.87 344.76 400.85 344.76 400.81 344.76 400.78 344.77 400.79 344.79 400.79 344.8 400.78 344.82 400.78 344.84 400.78 344.85 400.81 344.9 400.82 344.95 400.82 344.97 400.8 344.98 400.78 345.01 400.76 345.05 400.75 345.08 400.76 345.17 400.76 345.19 400.71 345.36 400.72 345.41 400.73 345.43 400.75 345.45 400.76 345.47 400.77 345.5 400.78 345.54 400.77 345.58 400.75 345.61 400.71 345.62 400.67 345.59 400.61 345.53 400.58 345.6 400.58 345.66 400.62 345.71 400.68 345.72 400.77 345.69 400.82 345.7 400.84 345.75 400.82 345.78 400.79 345.79 400.75 345.78 400.71 345.76 400.68 345.79 400.62 345.79 400.51 345.78 400.5 345.79 400.49 345.85 400.5 345.87 400.5 345.88 400.52 345.89 400.54 345.91 400.56 345.92 400.62 345.9 400.65 345.91 400.67 345.93 400.66 345.95 400.63 345.97 400.6 345.99 400.51 346 400.51 346.04 400.52 346.07 400.5 346.1 400.51 346.13 400.55 346.13 400.6 346.12 400.7 346.09 400.71 346.07 400.72 346.06 400.73 346.01 400.74 345.99 400.77 345.98 400.82 345.97 400.91 345.96 400.95 345.97 401.07 346.01 401.09 346.03 401.09 346.06 401.08 346.08 401.07 346.1 401.07 346.11 401.07 346.11 401.07 346.11 401.14 346.13 401.18 346.17 401.19 346.22 401.17 346.33 401.17 346.4 401.16 346.43 401.14 346.45 401.11 346.46 401.09 346.49 401.09 346.53 401.12 346.61 401.12 346.64 401.09 346.69 401.04 346.73 401.03 346.76 401.03 346.79 401.02 346.86 400.98 346.93 400.96 347 400.99 347.07 400.99 347.07 400.99 347.07 401.09 347.25 401.12 347.36 401.07 347.43 401.07 347.43 401.06 347.46 401.06 347.49 401.05 347.52 401.03 347.53 401 347.53 400.97 347.52 400.95 347.52 400.93 347.53 400.94 347.54 400.93 347.57 400.9 347.6 400.88 347.55 400.85 347.54 400.83 347.54 400.81 347.56 400.82 347.59 400.83 347.68 400.89 347.81 400.98 347.94 401.07 348 401.11 348.04 401.16 348.09 401.22 348.13 401.37 348.2 401.4 348.28 401.43 348.37 401.52 348.44 401.52 348.46 401.52 348.49 401.53 348.52 401.53 348.54 401.53 348.55 401.54 348.56 401.56 348.56 401.57 348.57 401.58 348.63 401.56 348.66 401.53 348.68 401.43 348.72 401.39 348.75 401.32 348.81 401.3 348.82 401.28 348.83 401.27 348.83 401.27 348.86 401.28 348.89 401.3 348.9 401.31 348.92 401.32 348.95 401.3 348.98 401.29 348.99 401.27 349.01 401.29 349.07 401.29 349.17 401.31 349.25 401.32 349.3 401.31 349.38 401.34 349.53 401.34 349.54 401.34 349.67 401.36 349.8 401.35 349.91 401.36 349.96 401.29 349.94 401.26 349.99 401.26 350.06 401.26 350.12 401.25 350.15 401.22 350.16 401.18 350.17 401.15 350.19 401.13 350.21 401.12 350.23 401.11 350.26 401.1 350.39 401.11 350.5 401.15 350.6 401.22 350.66 401.26 350.66 401.3 350.65 401.38 350.62 401.4 350.64 401.43 350.79 401.43 350.84 401.4 350.92 401.38 351.02 401.32 351.16 401.32 351.24 401.33 351.34 401.33 351.44 401.28 351.51 401.25 351.53 401.16 351.55 401.13 351.56 401.1 351.57 401.12 351.6 401.18 351.65 401.21 351.7 401.21 351.73 401.16 351.81 401.14 351.86 401.15 351.88 401.17 351.89 401.2 351.91 401.26 352.03 401.28 352.05 401.32 352.06 401.36 352.08 401.39 352.11 401.41 352.15 401.41 352.18 401.39 352.29 401.4 352.34 401.43 352.37 401.46 352.39 401.48 352.43 401.5 352.43 401.56 352.43 401.58 352.43 401.61 352.46 401.61 352.48 401.6 352.5 401.58 352.53 401.58 352.54 401.58 352.59 401.59 352.64 401.62 352.69 401.65 352.75 401.7 352.79 401.81 352.85 401.86 352.88 401.94 352.97 401.97 352.99 402.01 353 402.18 353 402.24 353.18 402.27 353.23 402.29 353.24 402.31 353.25 402.32 353.26 402.34 353.28 402.37 353.32 402.39 353.35 402.42 353.37 402.61 353.39 402.63 353.42 402.63 353.5 402.63 353.5 402.61 353.51 402.51 353.56 402.44 353.62 402.32 353.74 402.3 353.78 402.24 353.89 402.23 353.93 402.23 353.98 402.21 354.08 402.19 354.12 402.12 354.19 402.03 354.22 401.6 354.26 400.81 354.21 400.71 354.21 400.66 354.22 400.63 354.23 400.62 354.25 400.61 354.25 400.56 354.26 400.54 354.26 400.5 354.29 400.35 354.33 400.32 354.36 400.25 354.41 400.17 354.44 400.14 354.47 400.11 354.51 400.08 354.55 399.9 354.6 399.89 354.61 399.86 354.64 399.85 354.65 399.83 354.66 399.79 354.66 399.32 354.81 399.22 354.83 399.2 354.83 399.18 354.85 399.01 354.98 399 355.01 398.98 355.04 398.95 355.07 398.88 355.12 398.72 355.16 398.69 355.16 398.68 355.17 398.64 355.2 398.6 355.21 398.59 355.18 398.47 355.26 398.44 355.27 398.31 355.38 398.26 355.44 398.23 355.46 398.06 355.48 398.01 355.48 397.98 355.45 397.96 355.47 397.94 355.48 397.89 355.48 397.84 355.5 397.81 355.49 397.8 355.48 397.79 355.46 397.77 355.46 397.74 355.48 397.71 355.49 397.67 355.5 397.44 355.59 397.42 355.63 397.4 355.65 397.35 355.67 397.27 355.71 397.22 355.72 397.08 355.73 397.05 355.73 397 355.76 396.98 355.77 396.95 355.77 396.91 355.77 396.89 355.77 396.84 355.79 396.76 355.82 396.61 355.85 396.56 355.86 396.52 355.89 396.52 355.89 396.49 355.88 396.45 355.88 396.41 355.88 396.39 355.91 396.38 355.92 396.4 355.96 396.39 355.97 396.38 355.99 396.37 356 396.22 356.07 396.19 356.09 396.13 356.16 396.12 356.18 396.13 356.19 396.12 356.21 396.1 356.21 396.08 356.21 395.93 356.25 395.76 356.33 395.73 356.36 395.67 356.44 395.64 356.47 395.61 356.48 395.46 356.5 395.43 356.51 395.37 356.51 395.35 356.51 395.34 356.5 395.33 356.47 395.33 356.45 395.33 356.43 395.3 356.42 395.28 356.42 395.25 356.41 395.22 356.41 395.22 356.4 395.2 356.37 395.11 356.3 395.06 356.28 395.04 356.27 395.03 356.25 395.03 356.23 395.02 356.21 395.01 356.2 394.78 356.11 394.4 356.03 394.04 355.91 393.75 355.89 393.43 355.83 393.12 355.74 393.08 355.73 393.09 355.7 393.11 355.69 393.13 355.68 393.16 355.68 393.31 355.68 393.36 355.7 393.38 355.71 393.4 355.75 393.41 355.76 393.44 355.75 393.49 355.73 393.51 355.73 393.51 355.66 393.57 355.64 393.65 355.63 393.7 355.6 393.7 355.6 393.78 355.61 393.84 355.6 393.87 355.58 393.89 355.54 393.88 355.52 393.85 355.5 393.84 355.49 393.84 355.47 393.85 355.42 393.85 355.4 393.84 355.38 393.81 355.33 393.8 355.3 393.82 355.17 393.89 355.18 393.92 355.18 393.94 355.15 393.95 355.11 393.94 355.07 393.88 354.93 393.84 354.77 393.83 354.65 393.83 354.62 393.81 354.59 393.78 354.57 393.62 354.53 393.59 354.54 393.51 354.58 393.47 354.59 393.42 354.56 393.41 354.5 393.43 354.37 393.28 354.38 393.31 354.12 393.3 354.04 393.27 353.96 393.19 353.81 393.16 353.73 393.09 353.36 393.04 353.24 392.98 353.18 392.97 353.17 392.94 353.14 392.77 352.36 392.77 352.32 392.79 352.3 392.83 352.27 392.84 352.26 392.88 352.14 392.88 352.12 392.85 352.07 392.82 352.03 392.81 352.01 392.81 351.93 392.85 351.84 393.11 351.4 393.13 351.39 393.14 351.39 393.14 351.39 393.25 351.35 393.26 351.33 393.28 351.22 393.29 351.2 393.39 351.07 393.41 351.03 393.41 351 393.4 350.98 393.39 350.96 393.37 350.93 393.37 350.91 393.48 350.23 393.51 350.14 393.67 349.8 393.68 349.78 393.7 349.75 393.71 349.74 393.71 349.73 393.7 349.7 393.7 349.69 393.72 349.67 393.77 349.64 393.79 349.62 393.8 349.6 393.81 349.43 393.81 349.41 393.83 349.41 393.84 349.42 393.85 349.43 393.86 349.44 393.89 349.41 393.99 349.29 394.04 349.27 394.17 349.22 394.21 349.2 394.24 349.17 394.24 349.13 394.22 349.08 394.19 349.01 394.19 348.99 394.2 348.95 394.21 348.92 394.23 348.91 394.25 348.91 394.27 348.92 394.3 348.92 394.33 348.91 394.43 348.86 394.44 348.82 394.34 348.2 394.24 347.58 394.23 347.54 394.21 347.55 394.21 347.55 394.2 347.53 394.2 347.5 394.22 347.49 394.24 347.48 394.25 347.45 394.2 347.29 394.2 347.25 394.19 347.23 394.18 347.23 394.17 347.22 394.15 347.21 394.12 347.11 394.12 347.06 394.1 347.03 394.05 347 393.99 346.99 393.93 346.98 393.9 346.98 393.89 346.97 393.87 346.95 393.85 346.94 393.87 346.91 393.88 346.87 393.88 346.76 393.89 346.74 393.94 346.69 393.98 346.62 394 346.58 394.07 346.54 394.1 346.5 394.1 346.45 394.07 346.43 394.03 346.43 394 346.4 393.98 346.37 393.99 346.33 394.01 346.3 394.04 346.28 394.06 346.27 394.08 346.23 394.08 346.17 394.07 346.13 394.06 346.11 394.07 346.04 394.07 346.01 394.04 345.97 393.96 345.87 393.88 345.8 393.87 345.78 393.86 345.74 393.87 345.7 393.88 345.67 393.9 345.63 393.93 345.61 393.92 345.6 393.9 345.59 393.89 345.57 393.89 345.55 393.88 345.53 393.86 345.52 393.85 345.52 393.84 345.52 393.82 345.5 393.8 345.46 393.81 345.41 393.85 345.33 393.93 345.25 393.94 345.23 393.93 345.2 393.88 345.12 393.87 345.06 393.89 344.96 393.89 344.9 393.88 344.86 393.83 344.79 393.82 344.74 393.82 344.55 393.8 344.45 393.8 344.41 393.83 344.36 393.87 344.33 393.89 344.31 393.89 344.28 393.89 344.25 393.89 344.24 393.87 344.23 393.85 344.21 393.83 344.21 393.81 344.21 393.79 344.2 393.79 344.18 393.78 344.16 393.76 344.16 393.74 344.15 393.72 344.15 393.7 344.11 393.7 344.06 393.71 344.02 393.73 343.98 393.74 343.96 393.76 343.95 393.78 343.94 393.81 343.94 393.84 343.93 393.86 343.91 393.87 343.89 393.86 343.88 393.8 343.88 393.77 343.87 393.74 343.86 393.66 343.79 393.64 343.76 393.64 343.72 393.63 343.71 393.6 343.68 393.59 343.66 393.58 343.64 393.58 343.59 393.58 343.57 393.51 343.45 393.5 343.41 393.51 343.39 393.54 343.34 393.55 343.3 393.56 343.29 393.56 343.28 393.56 343.27 393.55 343.26 393.54 343.25 393.53 343.25 393.53 343.25 393.53 343.24 393.52 343.22 393.53 343.2 393.55 343.18 393.56 343.16 393.57 343.11 393.61 343.05 393.63 342.94 393.65 342.9 393.68 342.86 393.72 342.83 393.75 342.8 393.76 342.75 393.75 342.71 393.72 342.67 393.71 342.62 393.71 342.61 393.71 342.6 393.9 342.6 393.9 342.62 393.95 342.62 394.16 342.62 394.59 342.62 395.13 342.61 395.63 342.61 396.11 342.6 396.46 342.6 396.48 342.58 396.5 342.54 396.54 342.53 396.82 342.54 396.84 342.55 396.87 342.56 396.94 342.59 397 342.6 397.28 342.6 397.54 342.6 397.56 342.57 397.63 342.56 397.93 342.58 397.95 342.59 397.97 342.6 397.98 342.63 398 342.64 398.02 342.64 398 342.67 398.04 342.66 398.09 342.61 398.14 342.6 398.15 342.58 398.17 342.58 398.18 342.58 398.19 342.6 398.19 342.6 398.44 342.6 398.46 342.6 398.46 342.63 398.47 342.63 398.49 342.63 398.51 342.63 398.52 342.64 398.51 342.66 398.49 342.68 398.49 342.7 398.59 342.8 398.63 342.77 398.65 342.72 398.67 342.67 398.69 342.63 398.72 342.62 398.77 342.61 398.86 342.62 398.86 342.61 398.87 342.61 398.88 342.61 398.88 342.6 398.88 342.6 398.9 342.57 398.96 342.55 398.99 342.52 399 342.5 399 342.45 399.01 342.42 399.06 342.36 399.1 342.36 399.14 342.4 399.18 342.45 399.29 342.36 399.32 342.34 399.34 342.3 399.33 342.28 399.33 342.26 399.33 342.23 399.63 342.29 Z" id="Ghana" transform="translate(-392.7699890136719,-342.2300109863281) "/></svg>