<svg xmlns="http://www.w3.org/2000/svg" viewBox="0 0 798 1335"><path d="M 785.29 69.53 799 401.23 746.9 513.62 755.12 667.13 708.51 727.44 755.12 856.28 692.05 963.19 708.51 1108.47 648.18 1168.78 639.95 1297.62 571.39 1336 456.22 1229.09 472.67 1086.54 382.18 946.74 44.88 628.75 327.33 842.57 327.33 612.3 250.55 530.07 280.71 453.31 176.51 384.78 168.28 286.09 138.11 338.18 75.04 286.09 61.33 362.85 31.16 316.25 69.56 201.11 190.22 217.56 275.23 132.58 442.51 132.58 387.66 1 785.29 69.53 Z M 6.48 423.16 86.01 543.77 83.27 590.37 1 436.86 6.48 423.16 Z" fill-rule="evenodd" transform="translate(-1,-1) "/></svg>