<svg xmlns="http://www.w3.org/2000/svg" viewBox="0 0 19.089996337890625 19.519989013671875"><path d="M 453.5 285.04 453.5 285.06 453.44 285.06 453.39 285.03 453.3 284.97 453.3 284.95 453.33 284.95 453.35 284.95 453.36 284.93 453.38 284.92 453.41 284.92 453.43 284.92 453.48 284.93 453.48 284.95 453.47 284.98 453.47 285.01 453.48 285.03 453.5 285.04 Z M 459.85 283.42 459.87 283.47 459.87 283.49 459.83 283.49 459.78 283.5 459.76 283.51 459.73 283.53 459.71 283.55 459.69 283.56 459.66 283.57 459.64 283.58 459.6 283.61 459.58 283.62 459.55 283.61 459.53 283.58 459.51 283.56 459.52 283.55 459.54 283.54 459.58 283.49 459.6 283.47 459.61 283.47 459.62 283.43 459.63 283.42 459.65 283.42 459.67 283.44 459.68 283.44 459.76 283.4 459.8 283.4 459.86 283.38 459.88 283.38 459.88 283.4 459.87 283.41 459.85 283.42 Z M 452.98 283.14 453.04 283.16 453.08 283.15 453.2 283.16 453.26 283.16 453.28 283.15 453.3 283.14 453.31 283.12 453.32 283.09 453.33 283.07 453.35 283.06 453.41 283.07 453.38 282.97 453.46 282.94 453.56 282.95 453.61 282.98 453.65 283.1 453.64 283.12 453.63 283.13 453.62 283.17 453.61 283.18 453.58 283.19 453.56 283.19 453.52 283.19 453.43 283.18 453.38 283.17 453.35 283.19 453.36 283.22 453.4 283.24 453.44 283.26 453.5 283.28 453.58 283.33 453.61 283.34 453.65 283.34 453.69 283.32 453.73 283.3 453.76 283.27 453.79 283.39 453.79 283.45 453.78 283.54 453.79 283.57 453.81 283.58 453.85 283.58 453.87 283.59 453.95 283.62 454.15 283.57 454.23 283.59 454.28 283.56 454.46 283.53 454.52 283.51 454.65 283.44 454.7 283.42 454.75 283.41 454.8 283.41 455.02 283.45 455.06 283.47 455.08 283.46 455.12 283.44 455.19 283.42 455.32 283.47 455.34 283.46 455.34 283.45 455.35 283.44 455.35 283.42 455.46 283.44 455.48 283.48 455.52 283.47 455.53 283.47 455.54 283.49 455.53 283.51 455.52 283.52 455.52 283.54 455.54 283.61 455.59 283.63 455.65 283.64 455.76 283.63 455.82 283.62 455.85 283.62 455.86 283.63 455.87 283.64 455.89 283.65 455.91 283.66 455.97 283.66 456.1 283.64 456.15 283.66 456.18 283.66 456.22 283.64 456.23 283.66 456.25 283.64 456.29 283.68 456.32 283.72 456.36 283.76 456.42 283.77 456.49 283.76 456.83 283.63 456.88 283.62 456.9 283.63 456.95 283.65 456.99 283.66 457.12 283.66 457.1 283.7 457.07 283.73 457.02 283.77 457.04 283.79 457.03 283.81 457.02 283.83 457.03 283.85 457.05 283.86 457.05 283.82 457.06 283.79 457.08 283.8 457.1 283.82 457.09 283.84 457.09 283.85 457.1 283.86 457.09 283.88 457.08 283.87 457.07 283.87 457.06 283.88 457.04 283.9 457.05 283.92 457.03 283.95 457.01 283.99 457.02 284.05 457 284.07 457 284.1 457.01 284.12 457.02 284.15 457.03 284.21 457.05 284.21 457.09 284.21 457.12 284.22 457.15 284.25 457.18 284.25 457.23 284.25 457.26 284.23 457.3 284.16 457.32 284.14 457.34 284.14 457.35 284.14 457.37 284.12 457.4 284.07 457.4 284.07 457.43 284.06 457.5 284.05 457.59 284.04 457.6 284.03 457.67 283.99 457.69 283.97 457.71 283.96 457.73 283.95 457.74 283.95 457.76 283.95 457.77 283.94 457.78 283.94 457.81 283.96 457.9 283.98 457.87 284.01 457.92 284.04 457.98 284.03 458.03 284.01 458.07 283.97 458.06 283.97 458.06 283.97 458.06 283.96 458.12 283.9 458.16 283.84 458.21 283.8 458.28 283.79 458.27 283.75 458.29 283.75 458.3 283.75 458.3 283.74 458.29 283.72 458.28 283.71 458.35 283.71 458.33 283.76 458.29 283.8 458.26 283.82 458.22 283.86 458.26 284 458.3 284.06 458.35 284.03 458.32 284.07 458.29 284.12 458.27 284.16 458.28 284.2 458.27 284.25 458.25 284.29 458.22 284.34 458.2 284.37 458.19 284.39 458.17 284.46 458.16 284.47 458.13 284.48 458.11 284.49 458.09 284.5 457.96 284.56 457.93 284.57 457.87 284.57 457.86 284.56 457.83 284.52 457.81 284.51 457.76 284.5 457.72 284.51 457.68 284.51 457.64 284.48 457.62 284.46 457.6 284.46 457.58 284.46 457.56 284.48 457.55 284.49 457.47 284.47 457.37 284.49 457.21 284.55 456.75 284.53 456.61 284.57 456.58 284.59 456.54 284.61 456.34 284.58 456.19 284.59 456.14 284.6 456.09 284.61 456.07 284.62 456.04 284.64 455.91 284.69 455.88 284.7 455.75 284.68 455.7 284.7 455.69 284.7 455.67 284.73 455.66 284.73 455.63 284.73 455.62 284.72 455.61 284.72 455.59 284.71 455.55 284.72 455.52 284.72 455.46 284.75 455.42 284.73 455.38 284.73 454.84 284.75 454.84 284.73 454.87 284.71 454.87 284.68 454.87 284.58 454.87 284.54 454.88 284.49 454.88 284.45 454.88 284.43 454.86 284.39 454.85 284.36 454.83 284.34 454.82 284.34 454.81 284.32 454.79 284.31 454.77 284.31 454.57 284.3 454.52 284.29 454.49 284.27 454.47 284.27 454.45 284.28 454.43 284.26 454.38 284.2 454.35 284.18 454.31 284.15 454.27 284.14 454.23 284.16 454.1 284.09 454.09 284.07 454.09 284.05 453.85 284.07 453.68 284.05 453.67 284.04 453.66 284.03 453.65 284.02 453.65 284.01 453.64 284.01 453.63 284.02 453.62 284.03 453.61 284.03 453.45 284.03 453.41 284.01 453.39 284.01 453.38 284.04 453.37 284.04 453.31 284.05 453.27 284.03 453.21 283.95 453.17 283.94 452.98 283.94 452.89 283.93 452.82 283.88 452.8 283.9 452.78 283.9 452.77 283.9 452.76 283.9 452.72 283.93 452.56 283.93 452.5 283.96 452.47 283.92 452.34 283.93 452.28 283.92 452.27 283.9 452.28 283.88 452.27 283.86 452.25 283.85 452.22 283.85 452.21 283.84 452.19 283.83 452.18 283.81 452.16 283.79 452.13 283.77 452.15 283.75 452.14 283.75 452.13 283.75 452.13 283.75 452.13 283.73 452.16 283.72 452.18 283.71 452.19 283.71 452.2 283.71 452.2 283.7 452.2 283.7 452.21 283.7 452.2 283.68 452.18 283.66 452.18 283.63 452.19 283.6 452.18 283.55 452.2 283.49 452.24 283.43 452.25 283.39 452.25 283.37 452.24 283.36 452.23 283.34 452.22 283.34 452.23 283.33 452.25 283.26 452.26 283.23 452.27 283.21 452.24 283.19 452.24 283.18 452.25 283.16 452.25 283.16 452.25 283.15 452.24 283.14 452.27 283.07 452.28 283.04 452.27 283.01 452.31 282.93 452.32 282.91 452.33 282.96 452.33 283.07 452.35 283.12 452.36 283.15 452.37 283.16 452.38 283.16 452.4 283.16 452.4 283.17 452.4 283.19 452.41 283.19 452.43 283.2 452.45 283.21 452.5 283.22 452.54 283.21 452.58 283.18 452.6 283.13 452.6 283.07 452.59 283.01 452.57 282.96 452.56 282.92 452.59 282.9 452.57 282.85 452.56 282.81 452.57 282.78 452.6 282.74 452.63 282.71 452.65 282.71 452.67 282.73 452.71 282.75 452.71 282.77 452.69 282.8 452.69 282.83 452.71 282.92 452.71 282.99 452.71 283.01 452.76 283.09 452.79 283.12 452.98 283.14 Z M 460.36 282.38 460.33 282.43 460.32 282.46 460.32 282.53 460.32 282.55 460.33 282.58 460.33 282.6 460.32 282.62 460.3 282.65 460.27 282.68 460.26 282.72 460.25 282.74 460.23 282.77 460.21 282.8 460.2 282.85 460.2 282.89 460.2 282.91 460.26 282.95 460.31 283.05 460.33 283.07 460.34 283.08 460.33 283.09 460.31 283.11 460.3 283.12 460.3 283.14 460.3 283.14 460.31 283.14 460.32 283.16 460.37 283.2 460.38 283.23 460.37 283.29 460.31 283.27 460.25 283.3 460.21 283.35 460.2 283.42 460.2 283.41 460.21 283.4 460.21 283.4 460.23 283.4 460.22 283.42 460.2 283.44 460.18 283.46 460.15 283.47 460.17 283.43 460.15 283.41 460.12 283.41 460.09 283.4 460.07 283.38 460.06 283.34 460.06 283.32 460.09 283.31 460.09 283.29 460.08 283.29 460.08 283.27 460.11 283.26 460.12 283.23 460.09 283.16 460.09 283.12 460.1 283.1 460.1 283.08 460.09 283.05 460.07 283.03 460.02 283 460 282.97 460 282.94 460.02 282.9 460.04 282.87 460.05 282.86 460.11 282.83 460.12 282.76 460.13 282.69 460.19 282.62 460.21 282.54 460.21 282.46 460.2 282.41 460.2 282.4 460.23 282.38 460.24 282.38 460.24 282.4 460.26 282.4 460.27 282.38 460.3 282.34 460.32 282.32 460.34 282.32 460.35 282.33 460.37 282.34 460.36 282.38 Z M 451.72 282.32 451.71 282.32 451.69 282.29 451.64 282.24 451.62 282.21 451.61 282.18 451.59 282.12 451.6 282.11 451.6 282.12 451.6 282.13 451.6 282.13 451.64 282.17 451.68 282.18 451.72 282.22 451.72 282.32 Z M 461.21 281.26 461.2 281.26 461.19 281.26 461.14 281.27 461.11 281.27 461.07 281.27 461.03 281.28 461 281.26 461 281.22 461.02 281.2 461.03 281.19 461.07 281.19 461.1 281.19 461.22 281.19 461.22 281.21 461.22 281.23 461.21 281.26 Z M 451.1 281.3 451.1 281.46 451.09 281.46 451.05 281.46 451.02 281.45 450.99 281.45 450.96 281.48 450.96 281.44 450.93 281.42 450.87 281.4 450.87 281.4 450.87 281.38 450.87 281.37 450.86 281.37 450.83 281.37 450.83 281.37 450.81 281.35 450.79 281.31 450.78 281.29 450.8 281.14 450.8 281.08 450.78 281.01 450.77 280.98 450.76 280.96 450.77 280.93 450.83 280.81 450.86 280.79 450.89 280.81 450.98 280.97 451.01 281.01 451.15 281.12 451.19 281.16 451.21 281.21 451.2 281.22 451.17 281.22 451.13 281.24 451.11 281.26 451.1 281.3 Z M 457.31 280.86 457.29 280.9 457.27 280.89 457.25 280.87 457.23 280.86 457.19 280.87 457.17 280.88 457.14 280.89 457.08 280.88 457.07 280.88 457.06 280.87 457.05 280.85 457.04 280.84 457.04 280.82 457.05 280.81 457.08 280.8 457.1 280.77 457.12 280.76 457.2 280.79 457.27 280.85 457.31 280.86 Z M 462.6 280.67 462.57 280.71 462.59 280.84 462.55 280.86 462.53 280.88 462.52 280.97 462.5 281 462.46 281.06 462.45 281.1 462.44 281.17 462.43 281.21 462.41 281.22 462.4 281.24 462.37 281.32 462.36 281.35 462.35 281.35 462.31 281.35 462.3 281.35 462.29 281.36 462.29 281.38 462.28 281.4 462.26 281.4 462.2 281.54 462.22 281.55 462.24 281.56 462.26 281.57 462.28 281.57 462.27 281.6 462.27 281.61 462.25 281.63 462.24 281.65 462.24 281.66 462.27 281.7 462.15 281.67 462.1 281.67 462.05 281.69 461.95 281.75 461.92 281.79 461.83 281.93 461.76 282.02 461.68 282.09 461.58 282.15 461.49 282.09 461.47 282.09 461.47 282.07 461.43 281.98 461.46 281.94 461.52 281.75 461.53 281.69 461.53 281.62 461.51 281.59 461.48 281.57 461.42 281.51 461.42 281.49 461.43 281.47 461.43 281.46 461.41 281.44 461.39 281.45 461.38 281.45 461.37 281.42 461.4 281.41 461.49 281.35 461.54 281.33 461.56 281.31 461.55 281.29 461.57 281.28 461.57 281.26 461.57 281.24 461.58 281.22 461.59 281.19 461.61 281.16 461.63 281.12 461.64 281.11 461.71 281.09 461.72 281.08 461.73 281.05 461.81 280.98 461.82 280.95 461.84 280.93 461.98 280.88 462.22 280.75 462.26 280.72 462.33 280.69 462.47 280.69 462.54 280.61 462.56 280.61 462.58 280.63 462.6 280.66 462.6 280.67 Z M 456.5 280.82 456.48 280.88 456.45 280.92 456.41 280.94 456.36 280.93 456.26 280.9 456.22 280.88 456.24 280.87 456.3 280.87 456.32 280.86 456.35 280.84 456.37 280.8 456.38 280.79 456.37 280.71 456.36 280.69 456.34 280.67 456.34 280.66 456.35 280.62 456.32 280.6 456.23 280.58 456.23 280.56 456.24 280.56 456.25 280.55 456.26 280.54 456.34 280.57 456.42 280.62 456.48 280.69 456.51 280.77 456.5 280.82 Z M 460.67 280.56 460.7 280.64 460.73 280.66 460.71 280.7 460.74 280.73 460.78 280.74 460.82 280.71 460.83 280.72 460.83 280.73 460.84 280.75 460.82 280.78 460.8 280.8 460.77 280.82 460.75 280.81 460.74 280.82 460.71 280.81 460.69 280.81 460.66 280.78 460.64 280.73 460.65 280.69 460.63 280.68 460.6 280.68 460.58 280.71 460.56 280.73 460.55 280.73 460.54 280.71 460.51 280.69 460.5 280.66 460.5 280.61 460.51 280.58 460.52 280.56 460.54 280.6 460.57 280.59 460.61 280.56 460.64 280.54 460.67 280.56 Z M 460.24 280.32 460.21 280.32 460.16 280.31 460.14 280.3 460.13 280.27 460.15 280.21 460.22 280.17 460.26 280.17 460.28 280.19 460.31 280.25 460.29 280.3 460.24 280.32 Z M 458.65 280.22 458.67 280.26 458.65 280.27 458.64 280.28 458.63 280.27 458.62 280.24 458.59 280.27 458.56 280.28 458.49 280.28 458.46 280.29 458.44 280.31 458.41 280.37 458.4 280.41 458.41 280.44 458.39 280.46 458.34 280.47 458.3 280.45 458.26 280.38 458.22 280.36 458.23 280.34 458.23 280.33 458.24 280.32 458.22 280.29 458.21 280.25 458.22 280.22 458.25 280.24 458.29 280.22 458.32 280.25 458.36 280.28 458.39 280.3 458.41 280.29 458.43 280.25 458.44 280.24 458.47 280.25 458.49 280.25 458.51 280.25 458.53 280.24 458.5 280.23 458.49 280.2 458.5 280.18 458.5 280.17 458.47 280.16 458.45 280.15 458.44 280.13 458.44 280.11 458.51 280.11 458.59 280.16 458.65 280.22 Z M 461.67 280.15 461.66 280.19 461.68 280.18 461.69 280.18 461.7 280.21 461.78 280.15 461.78 280.16 461.78 280.16 461.79 280.16 461.79 280.17 461.78 280.18 461.77 280.19 461.77 280.2 461.76 280.21 461.78 280.19 461.79 280.2 461.78 280.21 461.78 280.24 461.78 280.27 461.78 280.3 461.79 280.32 461.77 280.33 461.76 280.34 461.77 280.34 461.78 280.35 461.79 280.36 461.79 280.37 461.74 280.4 461.72 280.41 461.69 280.41 461.69 280.39 461.7 280.39 461.72 280.37 461.73 280.36 461.64 280.32 461.61 280.3 461.64 280.28 461.53 280.28 461.55 280.25 461.57 280.22 461.59 280.2 461.6 280.17 461.61 280.17 461.61 280.16 461.63 280.15 461.63 280.17 461.66 280.12 461.72 280.09 461.76 280.08 461.76 280.11 461.7 280.13 461.67 280.15 Z M 455.34 280.21 455.34 280.22 455.28 280.22 455.25 280.21 455.19 280.15 455.15 280.12 455.11 280.11 455.08 280.08 455.06 280.03 455.11 280.03 455.12 280.03 455.3 280.15 455.34 280.21 Z M 455.7 280.05 455.62 280.11 455.57 280.11 455.65 279.94 455.67 279.93 455.72 279.89 455.74 279.88 455.83 279.89 455.82 279.89 455.82 279.9 455.82 279.92 455.7 280.05 Z M 448.27 279.88 448.27 279.94 448.26 279.92 448.25 279.92 448.25 279.91 448.24 279.88 448.21 279.9 448.23 279.82 448.23 279.79 448.24 279.79 448.28 279.81 448.28 279.84 448.27 279.88 Z M 454.2 279.79 454.25 279.81 454.34 279.76 454.38 279.75 454.41 279.79 454.4 279.82 454.41 279.97 454.39 279.99 454.35 280.01 454.27 280.03 454.01 280.04 453.92 280.07 453.92 280.03 453.93 279.97 453.92 279.94 453.93 279.93 453.94 279.92 453.96 279.9 453.93 279.89 453.92 279.88 453.95 279.86 453.96 279.81 453.99 279.79 454 279.8 454.01 279.82 454.03 279.83 454.05 279.85 454.08 279.84 454.1 279.92 454.15 279.94 454.22 279.94 454.25 279.93 454.24 279.9 454.22 279.86 454.2 279.85 454.17 279.86 454.15 279.84 454.13 279.81 454.11 279.79 454.11 279.77 454.13 279.74 454.16 279.76 454.2 279.79 Z M 454.66 279.8 454.63 279.81 454.6 279.78 454.55 279.71 454.58 279.68 454.62 279.68 454.63 279.68 454.62 279.69 454.65 279.71 454.68 279.73 454.68 279.76 454.66 279.8 Z M 456.3 279.86 456.32 279.9 456.3 279.91 456.28 279.93 456.28 279.95 456.29 279.98 456.29 280 456.24 280.06 456.17 280.02 456.02 279.88 456.03 279.88 456.03 279.88 456.03 279.87 456.04 279.86 456.02 279.87 455.97 279.86 455.99 279.84 456 279.8 456 279.77 456 279.75 456.1 279.68 456.12 279.71 456.16 279.78 456.19 279.81 456.23 279.83 456.27 279.84 456.3 279.86 Z M 448.14 279.67 448.15 279.68 448.17 279.68 448.17 279.69 448.16 279.7 448.15 279.71 448.14 279.71 448.14 279.74 448.12 279.77 448.11 279.79 448.09 279.83 448.09 279.73 448.1 279.69 448.12 279.66 448.13 279.66 448.14 279.67 Z M 452.95 279.57 452.94 279.57 452.93 279.56 452.93 279.54 452.94 279.54 452.95 279.56 452.95 279.57 Z M 454.49 279.56 454.5 279.56 454.51 279.56 454.53 279.54 454.54 279.55 454.54 279.56 454.54 279.56 454.55 279.56 454.55 279.58 454.53 279.6 454.47 279.71 454.43 279.72 454.4 279.71 454.38 279.68 454.37 279.65 454.36 279.63 454.36 279.61 454.37 279.58 454.38 279.56 454.41 279.55 454.45 279.54 454.47 279.54 454.49 279.56 Z M 456.43 279.59 456.38 279.6 456.35 279.57 456.37 279.54 456.41 279.5 456.46 279.47 456.48 279.47 456.46 279.49 456.47 279.49 456.48 279.5 456.48 279.57 456.43 279.59 Z M 460.27 279.63 460.14 279.77 460.09 279.78 460.03 279.77 459.98 279.75 459.96 279.73 459.83 279.79 459.8 279.83 459.82 279.88 459.79 279.89 459.77 279.92 459.78 279.96 459.79 280 459.75 279.99 459.71 279.96 459.68 279.92 459.67 279.89 459.67 279.8 459.69 279.76 459.71 279.77 459.72 279.76 459.75 279.73 459.76 279.71 459.77 279.72 459.82 279.75 459.85 279.72 459.87 279.7 459.9 279.64 459.97 279.57 459.99 279.55 460.21 279.41 460.44 279.38 460.47 279.36 460.5 279.41 460.61 279.44 460.64 279.49 460.57 279.53 460.32 279.6 460.27 279.63 Z M 456.91 279.44 456.87 279.44 456.82 279.43 456.77 279.43 456.78 279.4 456.8 279.39 456.83 279.38 456.86 279.35 456.88 279.37 456.93 279.41 456.91 279.44 Z M 452.02 279.37 452.01 279.38 452 279.37 451.99 279.35 451.99 279.34 451.99 279.34 451.99 279.33 451.98 279.31 451.99 279.31 452 279.33 452.01 279.34 452.02 279.37 Z M 457.8 279.39 457.8 279.41 457.8 279.41 457.79 279.41 457.78 279.41 457.74 279.4 457.7 279.4 457.67 279.42 457.65 279.41 457.61 279.44 457.52 279.51 457.49 279.53 457.46 279.55 457.4 279.65 457.37 279.68 457.19 279.74 457.09 279.75 457.05 279.68 457.09 279.69 457.1 279.66 457.13 279.64 457.17 279.64 457.19 279.66 457.21 279.66 457.22 279.64 457.24 279.64 457.29 279.64 457.3 279.63 457.33 279.56 457.3 279.58 457.29 279.56 457.29 279.54 457.29 279.53 457.32 279.52 457.57 279.39 457.57 279.38 457.56 279.37 457.55 279.36 457.54 279.36 457.52 279.35 457.52 279.34 457.59 279.32 457.61 279.3 457.63 279.28 457.65 279.28 457.68 279.32 457.71 279.35 457.75 279.38 457.8 279.39 Z M 455.58 279.21 455.6 279.24 455.56 279.23 455.52 279.2 455.48 279.14 455.47 279.09 455.5 279.05 455.53 279.02 455.58 278.99 455.61 278.99 455.57 279.14 455.55 279.18 455.56 279.2 455.58 279.21 Z M 454.65 278.98 454.71 279.02 454.73 279.03 454.75 279.01 454.76 279.01 454.79 279.06 454.87 279.15 454.9 279.23 454.9 279.25 454.89 279.26 454.86 279.28 454.85 279.29 454.78 279.38 454.74 279.32 454.7 279.24 454.68 279.17 454.7 279.13 454.7 279.11 454.68 279.09 454.65 279.04 454.62 279.03 454.62 279.02 454.63 279.01 454.64 278.99 454.63 278.99 454.63 278.99 454.62 278.99 454.62 278.98 454.65 278.98 Z M 459.79 278.99 459.81 279.03 459.84 279.05 459.86 279.07 459.87 279.11 459.88 279.09 459.9 279.08 459.92 279.08 459.94 279.09 459.95 279.12 459.93 279.17 459.94 279.2 459.93 279.22 459.93 279.23 459.93 279.24 459.94 279.24 459.94 279.22 459.96 279.22 459.94 279.26 459.9 279.26 459.84 279.24 459.82 279.26 459.82 279.28 459.81 279.31 459.8 279.32 459.78 279.31 459.76 279.3 459.74 279.3 459.73 279.32 459.71 279.29 459.69 279.27 459.68 279.26 459.65 279.26 459.67 279.22 459.68 279.21 459.7 279.2 459.68 279.16 459.69 279.13 459.71 279.1 459.73 279.07 459.73 279.07 459.74 279.05 459.75 279.03 459.74 279.01 459.73 279 459.71 279 459.69 279.01 459.68 279.01 459.67 279 459.66 278.98 459.64 278.94 459.62 278.92 459.6 278.91 459.6 278.9 459.61 278.86 459.63 278.9 459.82 278.98 459.82 278.99 459.79 278.99 Z M 457.25 278.77 457.27 278.8 457.28 278.81 457.27 278.83 457.25 278.84 457.23 278.84 457.21 278.82 457.2 278.84 457.2 278.84 457.2 278.84 457.19 278.85 457.15 278.77 457.18 278.77 457.21 278.76 457.27 278.73 457.26 278.75 457.25 278.77 Z M 456.04 278.77 456 278.86 456 278.9 456.04 278.92 456.04 278.94 456.01 278.94 456.01 278.96 456.04 278.96 456.04 278.98 456.01 278.98 456 279 455.99 279.02 455.97 279.05 455.96 279.07 455.93 279.1 455.87 279.14 455.83 279.15 455.76 279.15 455.73 279.14 455.69 279.1 455.66 279.09 455.65 279.08 455.65 279.04 455.67 278.94 455.69 278.9 455.76 278.86 455.75 278.85 455.73 278.85 455.72 278.85 455.75 278.81 455.81 278.75 455.88 278.71 455.95 278.69 455.91 278.74 455.93 278.76 455.99 278.77 456.02 278.73 456.02 278.72 456.01 278.69 456.04 278.69 456.07 278.69 456.06 278.71 456.06 278.73 456.05 278.75 456.04 278.77 Z M 459.44 278.57 459.46 278.58 459.47 278.57 459.48 278.58 459.48 278.58 459.5 278.59 459.52 278.59 459.52 278.61 459.51 278.64 459.5 278.66 459.53 278.67 459.55 278.69 459.56 278.72 459.57 278.74 459.58 278.75 459.6 278.79 459.6 278.82 459.58 278.82 459.57 278.82 459.57 278.83 459.56 278.84 459.54 278.84 459.52 278.84 459.49 278.82 459.49 278.8 459.51 278.78 459.52 278.77 459.5 278.76 459.47 278.78 459.44 278.78 459.43 278.75 459.44 278.73 459.44 278.71 459.42 278.69 459.4 278.68 459.38 278.66 459.35 278.64 459.35 278.61 459.37 278.58 459.4 278.58 459.41 278.58 459.41 278.56 459.43 278.56 459.44 278.57 Z M 456.74 278.83 456.73 278.89 456.71 279 456.7 279.06 456.64 279.2 456.63 279.21 456.61 279.21 456.58 279.22 456.51 279.3 456.48 279.31 456.44 279.32 456.41 279.34 456.41 279.32 456.4 279.31 456.38 279.3 456.38 279.28 456.36 279.22 456.35 279.2 456.34 279.18 456.28 279.15 456.29 279.13 456.29 279.12 456.28 279.1 456.27 279.08 456.26 279.06 456.26 279.04 456.26 279.02 456.26 279.01 456.23 278.95 456.2 278.91 456.17 278.9 456.17 278.88 456.19 278.87 456.2 278.86 456.21 278.87 456.22 278.88 456.24 278.86 456.32 278.77 456.47 278.66 456.48 278.65 456.51 278.59 456.53 278.58 456.57 278.58 456.58 278.57 456.6 278.56 456.64 278.57 456.69 278.62 456.72 278.67 456.73 278.72 456.74 278.83 Z M 454.28 278.54 454.3 278.56 454.32 278.56 454.33 278.54 454.34 278.54 454.35 278.55 454.37 278.56 454.38 278.6 454.39 278.65 454.38 278.7 454.38 278.75 454.37 278.71 454.35 278.71 454.35 278.75 454.34 278.77 454.33 278.79 454.3 278.81 454.3 278.8 454.3 278.79 454.3 278.79 454.29 278.79 454.29 278.77 454.29 278.77 454.3 278.77 454.3 278.77 454.29 278.76 454.27 278.75 454.25 278.76 454.23 278.77 454.22 278.74 454.22 278.73 454.21 278.73 454.2 278.75 454.18 278.74 454.16 278.74 454.15 278.75 454.14 278.77 454.13 278.74 454.14 278.73 454.15 278.71 454.14 278.7 454.14 278.68 454.15 278.67 454.17 278.65 454.16 278.63 454.16 278.63 454.18 278.62 454.17 278.6 454.24 278.55 454.28 278.54 Z M 451.34 278.43 451.32 278.45 451.27 278.44 451.25 278.41 451.23 278.38 451.19 278.35 451.21 278.33 451.23 278.32 451.25 278.31 451.27 278.31 451.28 278.32 451.32 278.34 451.33 278.36 451.34 278.38 451.35 278.41 451.34 278.43 Z M 452.2 278.14 452.14 278.15 452.1 278.14 452.11 278.2 452.08 278.22 452.04 278.23 451.99 278.23 451.86 278.27 451.81 278.27 451.81 278.25 452.01 278.12 452.06 278.1 452.16 278.1 452.21 278.08 452.28 278.08 452.25 278.12 452.2 278.14 Z M 458.89 278.07 458.92 278.09 458.94 278.1 458.96 278.12 458.96 278.13 458.97 278.14 458.98 278.17 458.97 278.18 458.95 278.16 458.94 278.16 458.93 278.15 458.92 278.15 458.9 278.15 458.88 278.16 458.87 278.18 458.87 278.2 458.86 278.2 458.85 278.21 458.86 278.23 458.89 278.26 458.89 278.35 458.87 278.36 458.84 278.34 458.85 278.33 458.84 278.31 458.81 278.3 458.81 278.28 458.82 278.21 458.82 278.19 458.83 278.17 458.82 278.15 458.82 278.11 458.82 278.08 458.84 278.08 458.87 278.08 458.89 278.07 Z M 454.24 277.93 454.27 277.97 454.26 278.03 454.23 278.02 454.2 278.05 454.19 278.1 454.18 278.14 454.15 278.17 454.11 278.21 454.06 278.24 454.02 278.25 454.04 278.16 454.05 278.11 454.09 278.08 454.09 278.07 454.08 278.06 454.07 278.05 454.06 278.05 454.06 278.03 454.08 278 454.08 277.97 454.05 277.96 454.02 277.97 454.03 277.9 454.08 277.84 454.13 277.8 454.17 277.76 454.18 277.76 454.18 277.8 454.18 277.82 454.16 277.86 454.15 277.87 454.24 277.93 Z M 456.19 277.7 456.25 277.82 456.26 277.81 456.27 277.75 456.29 277.74 456.36 277.76 456.37 277.77 456.38 277.78 456.4 277.79 456.44 277.81 456.45 277.83 456.44 277.85 456.43 277.87 456.4 277.89 456.36 277.89 456.32 277.9 456.31 277.95 456.29 277.95 456.26 277.95 456.1 277.97 456.1 277.95 456.1 277.94 456.1 277.93 456.1 277.92 456.1 277.9 456.11 277.9 456.12 277.9 456.13 277.89 456.14 277.83 456.13 277.81 456.1 277.8 456.11 277.76 456.14 277.74 456.17 277.73 456.19 277.7 Z M 455.34 278 455.32 278.01 455.19 278.08 455.15 278.1 455.15 278.08 455.16 278.06 455.16 278.04 455.17 278.03 455.17 278.01 455.16 278.01 455.11 278.01 455.12 277.98 455.12 277.96 455.14 277.95 455.15 277.93 455.15 277.93 455.12 277.91 455.17 277.9 455.19 277.87 455.2 277.82 455.2 277.78 455.19 277.72 455.18 277.7 455.21 277.69 455.26 277.7 455.28 277.73 455.3 277.76 455.32 277.81 455.32 277.84 455.32 277.86 455.3 277.88 455.29 277.9 455.3 277.91 455.31 277.92 455.33 277.93 455.34 277.95 455.34 277.98 455.34 278 Z M 452.11 277.69 452.05 277.7 451.99 277.69 451.95 277.66 451.95 277.65 452.01 277.63 452.04 277.61 452.04 277.57 452.05 277.57 452.05 277.57 452.05 277.58 452.06 277.59 452.07 277.62 452.09 277.63 452.12 277.64 452.15 277.65 452.15 277.66 452.11 277.69 Z M 454.84 277.46 454.79 277.46 454.69 277.45 454.66 277.43 454.7 277.42 454.74 277.4 454.76 277.38 454.79 277.36 454.82 277.36 454.84 277.37 454.84 277.41 454.84 277.42 454.84 277.46 Z M 455.6 277.31 455.61 277.32 455.65 277.3 455.69 277.3 455.73 277.33 455.75 277.36 455.78 277.32 455.84 277.33 455.91 277.36 455.96 277.38 455.95 277.4 455.96 277.4 455.98 277.42 455.99 277.45 455.99 277.47 455.94 277.55 455.92 277.62 455.9 277.63 455.79 277.62 455.73 277.58 455.69 277.57 455.67 277.56 455.65 277.51 455.62 277.49 455.6 277.48 455.52 277.4 455.44 277.36 455.41 277.34 455.4 277.32 455.38 277.28 455.38 277.25 455.38 277.23 455.41 277.22 455.53 277.23 455.54 277.23 455.57 277.24 455.57 277.26 455.55 277.26 455.55 277.28 455.57 277.29 455.59 277.29 455.6 277.31 Z M 454.03 277.21 454.09 277.29 454.08 277.38 454.02 277.46 453.96 277.53 453.89 277.62 453.85 277.65 453.81 277.64 453.81 277.6 453.82 277.46 453.82 277.43 453.82 277.38 453.84 277.32 453.88 277.28 453.91 277.28 453.93 277.27 453.94 277.24 453.92 277.25 453.91 277.24 453.91 277.23 453.93 277.21 453.95 277.21 453.97 277.21 453.99 277.23 454 277.23 454 277.21 454.01 277.21 454.02 277.21 454.03 277.21 Z M 458.34 277.35 458.14 277.53 458.11 277.54 457.92 277.57 457.87 277.59 457.85 277.61 457.81 277.65 457.78 277.66 457.76 277.67 457.75 277.67 457.73 277.67 457.7 277.66 457.61 277.69 457.58 277.68 457.57 277.63 457.59 277.59 457.66 277.52 457.68 277.48 457.69 277.44 457.73 277.4 457.77 277.36 457.8 277.34 457.85 277.34 457.98 277.36 458.03 277.34 458.07 277.36 458.14 277.34 458.2 277.3 458.26 277.24 458.33 277.21 458.44 277.21 458.4 277.28 458.34 277.35 Z M 452.08 277.21 452.06 277.23 452.04 277.21 452.03 277.2 452 277.19 452 277.17 452.02 277.15 452.02 277.13 452 277.1 451.97 277.09 451.95 277.07 451.93 277.03 451.92 277 451.93 276.98 452.19 276.96 452.23 276.98 452.22 277.01 452.19 277.04 452.19 277.07 452.16 277.1 452.16 277.13 452.16 277.16 452.15 277.19 452.13 277.2 452.08 277.21 Z M 459.75 277.01 459.77 277.03 459.78 277 459.77 276.98 459.75 276.95 459.73 276.92 459.76 276.93 459.79 276.93 459.81 276.92 459.84 276.9 459.84 276.93 459.9 276.95 460 276.96 459.94 276.99 459.93 277 459.92 277.02 459.93 277.04 459.94 277.06 459.96 277.09 459.98 277.07 459.99 277.09 460 277.12 459.99 277.15 459.93 277.13 459.85 277.15 459.65 277.23 459.63 277.24 459.61 277.26 459.59 277.28 459.59 277.3 459.58 277.31 459.56 277.32 459.54 277.33 459.4 277.32 459.38 277.31 459.37 277.3 459.36 277.28 459.36 277.25 459.32 277.2 459.3 277.18 459.25 277.16 459.22 277.14 459.2 277.13 459.18 277.13 459.15 277.15 459.09 277.15 459.05 277.17 459.03 277.19 459.01 277.23 459 277.23 459 277.21 458.98 277.21 458.96 277.23 458.94 277.2 458.93 277.16 458.92 277.12 458.92 277.05 458.93 277.02 458.95 277 458.99 276.98 459.03 276.98 459.06 276.97 459.07 276.93 459.09 276.91 459.34 276.85 459.42 276.85 459.5 276.86 459.53 276.88 459.59 276.93 459.67 276.95 459.75 277.01 Z M 446 276.74 446.06 276.77 446.13 276.75 446.22 276.79 446.3 276.85 446.33 276.91 446.37 276.99 446.52 277.08 446.54 277.17 446.51 277.13 446.45 277.1 446.37 277.08 446.31 277.07 446.28 277.09 446.26 277.11 446.25 277.14 446.23 277.15 446.2 277.16 446.2 277.2 446.22 277.23 446.22 277.24 446.22 277.28 446.21 277.3 446.19 277.3 446.14 277.3 446.12 277.29 446.06 277.21 445.95 277.12 445.89 277.06 445.89 277.02 445.84 276.97 445.76 276.86 445.71 276.83 445.72 276.79 445.71 276.75 445.72 276.73 445.71 276.71 445.8 276.58 445.85 276.53 445.9 276.54 445.91 276.55 445.91 276.55 445.92 276.57 445.92 276.57 445.96 276.66 445.98 276.71 446 276.74 Z M 455.08 276.57 455.14 276.59 455.31 276.59 455.34 276.62 455.33 276.68 455.29 276.77 455.38 276.84 455.37 276.86 455.36 276.86 455.35 276.86 455.35 276.9 455.34 276.92 455.32 276.94 455.32 276.96 455.34 276.98 455.37 276.96 455.4 276.98 455.4 277.02 455.38 277.07 455.35 277.12 455.32 277.15 455.33 277.16 455.34 277.21 455.32 277.21 455.31 277.18 455.25 277.14 455.23 277.11 455.19 277 455.18 276.98 455.14 276.97 455.12 276.96 455.1 276.94 455.07 276.91 455.04 276.84 455.01 276.82 454.97 276.84 454.96 276.77 454.92 276.71 454.87 276.68 454.84 276.63 454.82 276.63 454.81 276.66 454.79 276.67 454.78 276.65 454.79 276.61 454.77 276.59 454.74 276.54 454.72 276.52 454.74 276.51 454.74 276.5 454.74 276.48 454.73 276.45 454.74 276.43 454.76 276.41 454.88 276.34 454.93 276.33 454.96 276.35 454.96 276.38 454.96 276.39 454.97 276.4 455 276.4 455.02 276.41 455.04 276.43 455.05 276.45 455.04 276.46 455.04 276.48 455.06 276.54 455.06 276.56 455.08 276.57 Z M 452.16 276.38 452.16 276.4 452.17 276.42 452.18 276.43 452.2 276.44 452.19 276.45 452.19 276.46 452.25 276.46 452.18 276.5 452.19 276.53 452.14 276.57 452.13 276.61 452.12 276.61 452.09 276.59 452.07 276.61 452.05 276.64 452.02 276.65 451.99 276.65 451.92 276.63 451.89 276.61 451.87 276.59 451.87 276.58 451.89 276.55 451.92 276.52 451.96 276.5 452.02 276.52 452.05 276.49 452.07 276.45 452.09 276.42 452.06 276.42 452.04 276.44 452.02 276.45 452 276.46 451.98 276.46 451.94 276.44 451.92 276.44 452 276.4 451.97 276.39 451.94 276.36 451.96 276.36 451.98 276.36 452.01 276.37 452.03 276.38 452.03 276.36 452.04 276.36 452.04 276.36 452.03 276.35 452.04 276.33 452.06 276.33 452.08 276.32 452.13 276.33 452.16 276.34 452.17 276.36 452.16 276.38 Z M 445.6 275 445.72 275.34 445.72 275.37 445.72 275.41 445.71 275.43 445.69 275.45 445.66 275.48 445.68 275.51 445.73 275.61 445.76 275.62 445.79 275.59 445.82 275.56 445.84 275.54 445.84 275.55 445.83 275.57 445.83 275.58 445.87 275.59 445.88 275.62 445.89 275.65 445.9 275.69 446 275.78 446.02 275.85 446.1 275.96 446.12 276.01 446.12 276.05 446.12 276.1 446.09 276.14 446.08 276.15 446.03 276.13 446.01 276.14 445.98 276.15 445.96 276.15 445.93 276.14 445.9 276.12 445.84 276.06 445.78 276.02 445.7 275.99 445.62 276.01 445.59 276.08 445.54 276.04 445.46 276.02 445.43 275.98 445.43 275.96 445.42 275.9 445.42 275.88 445.38 275.82 445.37 275.79 445.4 275.8 445.44 275.83 445.46 275.85 445.46 275.83 445.43 275.79 445.41 275.75 445.35 275.6 445.32 275.55 445.3 275.55 445.28 275.6 445.28 275.64 445.3 275.73 445.3 275.79 445.28 275.84 445.25 275.86 445.22 275.87 445.19 275.9 445.18 275.9 445.16 275.86 445.1 275.82 445.08 275.77 445.09 275.75 445.11 275.72 445.12 275.69 445.12 275.66 445.11 275.64 445.12 275.62 445.13 275.6 445.14 275.6 445.17 275.56 445.2 275.49 445.22 275.4 445.22 275.31 445.23 275.35 445.24 275.37 445.25 275.37 445.28 275.31 445.3 275.33 445.31 275.38 445.34 275.42 445.36 275.4 445.37 275.42 445.38 275.45 445.4 275.46 445.42 275.45 445.46 275.41 445.51 275.38 445.53 275.34 445.53 275.28 445.51 275.23 445.56 275.25 445.53 275.15 445.53 275.13 445.53 275.1 445.54 275.07 445.54 275.04 445.53 275.02 445.53 275 445.6 275 Z M 445.83 274.97 445.81 275.01 445.8 275.03 445.84 275.03 445.86 275.04 445.88 275.06 445.9 275.08 445.89 275.13 445.87 275.18 445.83 275.27 445.85 275.28 445.87 275.29 445.89 275.29 445.92 275.29 445.92 275.27 445.89 275.25 445.93 275.25 445.92 275.23 445.95 275.24 445.97 275.25 446.01 275.29 446 275.29 445.97 275.29 445.98 275.36 446 275.39 446.03 275.4 446.03 275.42 445.97 275.43 445.93 275.44 445.9 275.44 445.86 275.38 445.87 275.37 445.84 275.33 445.81 275.29 445.77 275.19 445.76 275.17 445.76 275.11 445.75 275.08 445.74 275.06 445.71 275.04 445.7 275.02 445.71 274.98 445.74 275 445.76 274.98 445.78 274.92 445.82 274.93 445.83 274.97 Z M 446.35 274.79 446.31 274.79 446.31 274.77 446.4 274.63 446.42 274.63 446.37 274.7 446.35 274.75 446.35 274.79 Z M 457.78 274.69 457.87 274.8 457.88 274.79 457.88 274.78 457.89 274.77 457.9 274.77 457.91 274.75 457.9 274.75 457.9 274.75 457.89 274.75 457.92 274.74 457.95 274.74 457.98 274.77 458 274.8 457.97 274.84 457.96 274.9 457.95 274.94 457.9 274.96 457.92 274.99 457.93 274.99 457.95 275 457.94 275.02 457.97 275.02 457.98 275.03 457.95 275.08 457.94 275.12 457.94 275.15 457.97 275.37 458 275.48 457.94 275.49 457.89 275.53 457.86 275.6 457.88 275.66 457.88 275.71 457.83 275.73 457.72 275.77 457.7 275.8 457.69 275.86 457.68 275.88 457.66 275.89 457.61 275.87 457.58 275.86 457.55 275.85 457.51 275.78 457.5 275.78 457.49 275.78 457.47 275.76 457.44 275.73 457.43 275.69 457.42 275.7 457.4 275.71 457.39 275.71 457.39 275.69 457.39 275.65 457.39 275.63 457.35 275.66 457.34 275.64 457.34 275.6 457.36 275.56 457.38 275.54 457.41 275.53 457.45 275.52 457.46 275.51 457.49 275.48 457.54 275.48 457.55 275.48 457.57 275.45 457.57 275.41 457.58 275.38 457.62 275.37 457.6 275.33 457.61 275.26 457.6 275.23 457.6 275.24 457.6 275.24 457.59 275.24 457.58 275.25 457.57 275.23 457.56 275.21 457.54 275.2 457.52 275.19 457.54 275.17 457.53 275.13 457.52 275.09 457.51 275.06 457.48 275.03 457.46 275.02 457.43 275.01 457.39 275 457.36 274.97 457.29 274.88 457.27 274.84 457.26 274.8 457.27 274.77 457.29 274.74 457.3 274.7 457.62 274.63 457.67 274.64 457.78 274.67 457.78 274.69 Z M 456.72 274.61 456.74 274.63 456.8 274.69 456.8 274.7 456.79 274.71 456.79 274.71 456.78 274.71 456.76 274.81 456.76 274.83 456.73 274.82 456.7 274.81 456.68 274.81 456.66 274.83 456.65 274.8 456.66 274.78 456.66 274.76 456.66 274.75 456.65 274.73 456.63 274.71 456.61 274.69 456.59 274.67 456.58 274.65 456.58 274.63 456.6 274.62 456.61 274.63 456.62 274.64 456.63 274.65 456.64 274.63 456.66 274.62 456.68 274.61 456.69 274.63 456.7 274.63 456.7 274.61 456.72 274.61 Z M 446.28 274.69 446.26 274.69 446.26 274.66 446.26 274.63 446.3 274.56 446.34 274.52 446.38 274.51 446.43 274.49 446.44 274.5 446.45 274.53 446.42 274.57 446.39 274.59 446.36 274.61 446.34 274.61 446.32 274.63 446.3 274.65 446.28 274.69 Z M 446.08 274.44 446.09 274.45 446.1 274.44 446.11 274.45 446.1 274.46 446.11 274.46 446.12 274.46 446.12 274.47 446.11 274.48 446.1 274.5 446.08 274.52 446.02 274.53 446.02 274.57 446.05 274.59 446.07 274.61 446.07 274.62 446.09 274.63 446.11 274.66 446.08 274.64 446 274.57 445.97 274.5 445.99 274.46 446.02 274.46 446.07 274.43 446.08 274.44 Z M 445.88 274.41 445.9 274.42 445.91 274.39 445.92 274.36 445.93 274.34 445.94 274.38 445.93 274.53 445.92 274.57 445.91 274.57 445.89 274.53 445.87 274.53 445.88 274.55 445.89 274.59 445.88 274.59 445.86 274.57 445.86 274.59 445.85 274.61 445.85 274.61 445.84 274.63 445.81 274.61 445.77 274.62 445.75 274.64 445.77 274.67 445.77 274.69 445.75 274.69 445.73 274.68 445.73 274.66 445.74 274.63 445.69 274.62 445.67 274.57 445.63 274.59 445.61 274.62 445.59 274.66 445.56 274.73 445.54 274.73 445.54 274.66 445.58 274.38 445.62 274.29 445.63 274.23 445.67 274.13 445.69 274.12 445.71 274.09 445.74 274.03 445.76 274 445.81 273.96 445.85 273.94 445.86 273.95 445.86 273.96 445.89 273.97 445.92 274.01 445.93 274.06 445.94 274.1 445.95 274.13 445.94 274.16 445.94 274.19 445.95 274.21 445.95 274.23 445.95 274.26 445.95 274.27 445.94 274.29 445.89 274.37 445.88 274.39 445.88 274.41 Z M 454.47 273.83 454.48 273.86 454.49 273.88 454.53 273.89 454.62 273.96 454.67 274 454.7 274.05 454.7 274.06 454.71 274.06 454.71 274.08 454.72 274.1 454.71 274.12 454.71 274.12 454.7 274.12 454.69 274.13 454.67 274.15 454.66 274.16 454.64 274.17 454.62 274.15 454.61 274.15 454.59 274.16 454.56 274.15 454.54 274.13 454.53 274.1 454.52 274.1 454.49 274.11 454.46 274.14 454.46 274.18 454.38 274.09 454.47 274.05 454.45 273.97 454.43 273.95 454.41 273.97 454.4 273.97 454.39 273.94 454.37 273.93 454.35 273.94 454.32 273.95 454.32 273.92 454.27 273.9 454.26 273.86 454.25 273.86 454.24 273.88 454.23 273.85 454.21 273.84 454.19 273.84 454.17 273.86 454.16 273.83 454.17 273.8 454.19 273.78 454.21 273.78 454.22 273.76 454.23 273.73 454.21 273.68 454.21 273.64 454.22 273.6 454.24 273.58 454.29 273.56 454.44 273.67 454.47 273.7 454.48 273.73 454.47 273.8 454.47 273.83 Z M 451.96 273.8 451.98 273.83 451.98 273.87 452.01 273.92 452.05 273.97 452.15 274.01 452.24 274.09 452.3 274.11 452.3 274.13 452.29 274.15 452.3 274.16 452.31 274.16 452.33 274.15 452.36 274.17 452.42 274.19 452.45 274.2 452.47 274.19 452.5 274.2 452.54 274.18 452.59 274.18 452.62 274.22 452.63 274.27 452.65 274.31 452.7 274.34 452.79 274.38 452.88 274.41 452.99 274.42 453.04 274.43 453.08 274.45 453.13 274.44 453.17 274.4 453.21 274.42 453.26 274.42 453.31 274.42 453.36 274.42 453.5 274.47 453.54 274.49 453.52 274.5 453.5 274.52 453.48 274.54 453.47 274.57 453.47 274.62 453.48 274.65 453.68 274.81 453.71 274.86 453.66 274.91 453.62 275 453.61 275.09 453.65 275.15 453.65 275.17 453.61 275.19 453.62 275.21 453.67 275.27 453.67 275.3 453.67 275.35 453.68 275.39 453.73 275.45 453.73 275.48 453.74 275.49 453.75 275.5 453.76 275.51 453.76 275.56 453.76 275.58 453.77 275.6 453.75 275.64 453.74 275.65 453.76 275.69 453.79 275.72 453.85 275.77 453.92 275.81 453.93 275.82 453.94 275.85 453.95 275.87 453.96 275.88 454.04 275.87 454.07 275.87 454.13 275.92 454.22 275.93 454.26 275.94 454.3 275.92 454.5 275.88 454.48 276.02 454.49 276.09 454.52 276.15 454.5 276.19 454.48 276.32 454.46 276.36 454.42 276.39 454.38 276.42 454.33 276.43 454.28 276.44 454.26 276.43 454.25 276.42 454.24 276.38 454.19 276.3 454.18 276.3 454.15 276.27 454.09 276.3 454.06 276.34 454.09 276.36 454.09 276.38 454.06 276.41 454.02 276.41 453.99 276.38 453.95 276.34 453.94 276.32 453.92 276.29 453.91 276.26 453.9 276.25 453.9 276.23 453.92 276.21 453.9 276.15 453.88 276.13 453.85 276.13 453.83 276.09 453.8 276.06 453.75 276.06 453.71 276.08 453.68 276.06 453.67 276.06 453.65 276.08 453.65 276.06 453.65 276.06 453.66 276.06 453.67 276.06 453.67 275.98 453.65 275.96 453.61 275.97 453.61 275.95 453.61 275.93 453.66 275.89 453.67 275.86 453.66 275.83 453.63 275.79 453.61 275.72 453.58 275.69 453.55 275.69 453.52 275.69 453.53 275.73 453.48 275.72 453.49 275.67 453.53 275.61 453.56 275.58 453.54 275.54 453.52 275.54 453.51 275.56 453.48 275.58 453.48 275.59 453.48 275.6 453.48 275.61 453.46 275.62 453.44 275.61 453.44 275.6 453.45 275.58 453.45 275.58 453.45 275.56 453.42 275.56 453.47 275.46 453.42 275.44 453.38 275.42 453.32 275.41 453.26 275.4 453.31 275.39 453.33 275.37 453.35 275.34 453.33 275.32 453.33 275.29 453.33 275.28 453.33 275.27 453.31 275.22 453.29 275.2 453.29 275.22 453.16 275.21 453.01 275.23 452.96 275.22 452.89 275.2 452.85 275.19 452.81 275.19 452.74 275.21 452.71 275.21 452.56 275.17 452.52 275.17 452.45 275.19 452.42 275.19 452.4 275.16 452.35 275.03 452.34 275.05 452.33 275.05 452.32 275.06 452.3 275.06 452.32 275.01 452.36 274.97 452.39 274.92 452.38 274.88 452.38 274.86 452.39 274.86 452.39 274.84 452.34 274.76 452.31 274.72 452.28 274.71 452.18 274.69 452.13 274.67 452.1 274.65 452.1 274.63 452.09 274.58 452.09 274.56 452.03 274.51 452.03 274.5 452.02 274.49 452 274.49 451.99 274.48 451.98 274.45 451.97 274.43 451.95 274.41 451.88 274.37 451.83 274.34 451.77 274.27 451.75 274.26 451.73 274.25 451.71 274.2 451.7 274.18 451.65 274.16 451.43 273.99 451.36 273.95 451.3 273.93 451.27 273.93 451.24 273.93 451.17 273.95 451.14 273.95 451.11 273.92 451.06 273.87 451.05 273.86 451.02 273.86 450.98 273.85 450.95 273.83 450.92 273.82 450.89 273.83 450.89 273.86 450.92 273.86 450.95 273.87 450.97 273.89 450.96 273.93 450.94 273.95 450.91 273.96 450.66 273.98 450.61 274.01 450.61 273.98 450.61 273.95 450.62 273.92 450.64 273.91 450.65 273.9 450.71 273.86 450.73 273.86 450.78 273.84 450.88 273.79 450.95 273.77 451.01 273.74 451.06 273.72 451.07 273.71 451.08 273.67 451.09 273.66 451.11 273.65 451.16 273.65 451.18 273.64 451.19 273.62 451.2 273.59 451.2 273.56 451.19 273.54 451.23 273.53 451.27 273.49 451.29 273.48 451.43 273.48 451.47 273.47 451.59 273.4 451.65 273.39 451.67 273.4 451.7 273.44 451.71 273.45 451.74 273.45 451.78 273.46 451.81 273.48 451.83 273.51 451.81 273.56 451.84 273.6 451.88 273.63 451.93 273.64 451.93 273.67 451.96 273.8 Z M 452.12 273 452.1 273.06 452.07 273.03 452.04 273.06 452 273.14 451.99 273.13 451.97 273.11 451.95 273.09 451.93 273.09 451.9 273.08 451.88 273.09 451.86 273.09 451.87 273.04 451.89 273.03 451.92 273.02 451.94 273.01 451.95 272.98 451.97 272.95 452 272.92 452.03 272.9 452.06 272.92 452.1 272.96 452.12 273 Z M 452.32 272.92 452.32 272.92 452.33 272.92 452.35 272.92 452.4 272.98 452.46 273.03 452.53 273.07 452.6 273.09 452.59 273.14 452.64 273.14 452.7 273.14 452.74 273.16 452.74 273.17 452.67 273.25 452.63 273.28 452.57 273.29 452.55 273.28 452.52 273.26 452.46 273.25 452.44 273.23 452.44 273.21 452.47 273.19 452.47 273.17 452.44 273.16 452.37 273.09 452.36 273.07 452.35 273.03 452.28 272.92 452.32 272.9 452.32 272.92 Z M 444.75 272.93 444.78 273 444.74 273 444.71 272.99 444.69 272.97 444.64 272.91 444.62 272.88 444.61 272.84 444.64 272.82 444.68 272.86 444.72 272.89 444.75 272.93 Z M 452.97 273.05 452.9 273.1 452.83 273.09 452.86 273.05 452.89 273.03 452.92 273 452.95 272.89 453.07 272.71 453.1 272.69 453.1 272.7 453.1 272.71 453.1 272.72 453.09 272.73 453.14 272.74 453.13 272.8 453.09 272.86 453.06 272.88 453.03 272.97 452.97 273.05 Z M 453.35 272.5 453.35 272.53 453.36 272.52 453.38 272.51 453.4 272.52 453.41 272.53 453.41 272.57 453.38 272.64 453.34 272.66 453.32 272.64 453.32 272.62 453.33 272.62 453.32 272.6 453.3 272.59 453.29 272.57 453.3 272.54 453.31 272.51 453.33 272.48 453.35 272.48 453.35 272.5 Z M 458.55 272.6 458.47 272.71 458.48 272.72 458.57 272.81 458.65 272.84 458.67 272.86 458.68 272.87 458.75 272.98 458.78 273.01 458.83 273.04 458.8 273.06 458.81 273.08 458.83 273.1 458.85 273.13 458.85 273.15 458.85 273.17 458.87 273.18 458.89 273.17 458.89 273.23 458.92 273.3 458.96 273.35 458.99 273.37 458.99 273.4 458.99 273.44 458.96 273.48 458.89 273.45 458.86 273.47 458.83 273.46 458.81 273.43 458.78 273.41 458.8 273.39 458.78 273.38 458.78 273.36 458.78 273.35 458.78 273.33 458.79 273.32 458.8 273.29 458.8 273.27 458.78 273.25 458.77 273.24 458.75 273.2 458.72 273.19 458.64 273.19 458.6 273.22 458.64 273.26 458.72 273.33 458.81 273.45 458.85 273.48 458.85 273.51 458.84 273.52 458.84 273.52 458.84 273.52 458.85 273.54 458.79 273.57 458.72 273.59 458.57 273.6 458.54 273.6 458.47 273.57 458.39 273.56 458.35 273.54 458.3 273.51 458.25 273.48 458.11 273.45 458 273.45 457.98 273.44 457.96 273.42 457.89 273.32 457.86 273.3 457.83 273.29 457.83 273.27 457.84 273.27 457.86 273.25 457.88 273.25 457.89 273.25 457.89 273.25 457.9 273.25 457.99 273.23 458 273.22 458.03 273.17 458.06 273.15 458.08 273.14 458.11 273.14 458.13 273.14 458.19 273.08 458.26 273.03 458.26 273.02 458.28 273.01 458.28 272.98 458.25 272.95 458.23 272.94 458.16 272.92 458.13 272.92 458.09 272.92 458.05 272.94 458.02 272.96 457.99 272.99 457.96 273.07 457.95 273.07 457.85 273.21 457.82 273.24 457.78 273.25 457.73 273.25 457.54 273.18 457.51 273.16 457.48 273.13 457.46 273.12 457.43 273.12 457.39 273.1 457.31 273.02 457.27 273 457.27 272.98 457.29 272.97 457.3 272.94 457.3 272.91 457.31 272.88 457.3 272.88 457.3 272.87 457.29 272.87 457.28 272.86 457.3 272.85 457.31 272.84 457.31 272.82 457.31 272.79 457.32 272.77 457.34 272.76 457.36 272.75 457.37 272.74 457.44 272.69 457.45 272.67 457.47 272.67 457.49 272.72 457.56 272.72 457.65 272.7 457.71 272.71 457.72 272.69 457.72 272.68 457.73 272.67 457.74 272.65 457.75 272.67 457.75 272.69 457.77 272.69 457.8 272.65 457.84 272.63 457.94 272.61 457.99 272.59 458.02 272.56 458.01 272.5 458 272.43 458.39 272.42 458.44 272.43 458.42 272.5 458.46 272.52 458.52 272.54 458.56 272.57 458.55 272.6 Z M 455.4 272.18 455.38 272.18 455.36 272.04 455.36 271.98 455.41 271.94 455.4 271.92 455.41 271.91 455.42 271.9 455.44 271.9 455.52 271.96 455.51 272.03 455.4 272.18 Z M 444.18 271.25 444.19 271.27 444.2 271.27 444.2 271.25 444.22 271.25 444.21 271.34 444.19 271.39 444.14 271.43 444 271.48 443.98 271.5 443.97 271.53 443.98 271.57 444 271.6 444.02 271.61 444.02 271.63 443.99 271.63 443.99 271.65 444.12 271.72 444.17 271.73 444.16 271.79 444.15 271.8 444.11 271.79 444.14 271.85 444.18 272.15 444.19 272.16 444.22 272.18 444.25 272.19 444.31 272.2 444.34 272.22 444.39 272.25 444.41 272.26 444.45 272.26 444.48 272.24 444.5 272.23 444.51 272.24 444.54 272.28 444.55 272.31 444.57 272.39 444.59 272.43 444.59 272.45 444.57 272.47 444.55 272.46 444.49 272.44 444.44 272.4 444.41 272.39 444.37 272.38 444.33 272.37 444.31 272.36 444.26 272.31 444.23 272.3 444.2 272.29 444.16 272.29 444.14 272.28 444.13 272.27 444.14 272.27 444.16 272.26 444.17 272.24 444.1 272.21 444.07 272.2 444.07 272.2 444.06 272.21 444.06 272.22 444.04 272.18 444.01 272.12 444 272.06 443.98 271.94 443.95 271.88 443.91 271.83 443.86 271.79 443.8 271.76 443.78 271.74 443.72 271.61 443.71 271.59 443.67 271.59 443.65 271.59 443.63 271.57 443.61 271.53 443.62 271.46 443.61 271.44 443.56 271.47 443.57 271.43 443.56 271.39 443.54 271.37 443.51 271.37 443.53 271.35 443.58 271.27 443.6 271.24 443.62 271.24 443.82 271.23 443.89 271.22 443.95 271.19 444 271.15 444.04 271.16 444.06 271.18 444.07 271.2 444.1 271.22 444.15 271.23 444.18 271.25 Z M 456.38 270.58 456.38 270.6 456.4 270.6 456.4 270.61 456.4 270.62 456.4 270.64 456.41 270.67 456.41 270.68 456.36 270.71 456.31 270.75 456.27 270.81 456.28 270.88 456.25 270.88 456.22 270.89 456.2 270.9 456.19 270.92 456.22 270.94 456.23 270.94 456.2 270.96 456.17 270.98 456.17 271.01 456.2 271.04 456.18 271.07 456.19 271.1 456.22 271.13 456.23 271.15 456.24 271.18 456.23 271.18 456.22 271.18 456.2 271.2 456.2 271.22 456.2 271.24 456.19 271.26 456.17 271.24 456.15 271.24 456.09 271.22 456.07 271.2 456.07 271.18 456.07 271.15 456.06 271.14 456.02 271.12 455.99 271.06 455.95 271.06 456 271.02 456.02 271 456.04 270.97 456.03 270.93 456 270.9 455.97 270.88 455.95 270.88 455.85 270.96 455.87 270.96 455.89 270.96 455.9 270.97 455.92 270.98 455.88 270.99 455.85 271.01 455.83 271.05 455.81 271.1 455.83 271.09 455.83 271.08 455.84 271.08 455.86 271.11 455.89 271.15 455.91 271.2 455.89 271.22 455.84 271.21 455.8 271.21 455.73 271.18 455.78 271.1 455.79 271.09 455.78 271.06 455.76 271.07 455.73 271.09 455.72 271.12 455.7 271.12 455.7 271.09 455.7 271.08 455.69 271.07 455.69 271.06 455.56 271.1 455.53 271.12 455.52 271.12 455.53 271.1 455.54 271.08 455.55 271.07 455.57 271.06 455.55 271.05 455.54 271.04 455.52 271.04 455.52 271.01 455.52 271 455.53 270.99 455.55 270.98 455.55 270.96 455.53 270.96 455.53 270.94 455.54 270.94 455.55 270.93 455.57 270.92 455.55 270.92 455.57 270.88 455.56 270.85 455.54 270.83 455.52 270.8 455.52 270.76 455.52 270.72 455.52 270.69 455.49 270.68 455.49 270.66 455.57 270.66 455.71 270.62 455.73 270.63 455.75 270.64 455.76 270.66 455.76 270.66 455.8 270.66 455.92 270.62 455.96 270.64 456 270.68 456.02 270.72 456.05 270.76 456.05 270.78 456.1 270.77 456.16 270.73 456.19 270.7 456.19 270.68 456.24 270.61 456.26 270.58 456.27 270.59 456.33 270.58 456.35 270.58 456.41 270.55 456.39 270.57 456.38 270.58 Z M 456.91 269.24 456.94 269.28 456.96 269.32 456.95 269.36 456.96 269.4 456.93 269.43 456.72 269.5 456.67 269.49 456.6 269.45 456.45 269.33 456.42 269.3 456.4 269.26 456.44 269.26 456.57 269.18 456.63 269.16 456.69 269.16 456.87 269.22 456.91 269.24 Z M 454.93 268.86 454.93 268.88 454.91 268.88 454.88 268.86 454.87 268.87 454.85 268.89 454.81 268.9 454.74 268.92 454.71 268.93 454.66 268.98 454.62 269 454.61 268.97 454.6 268.95 454.56 268.92 454.56 268.92 454.54 268.92 454.53 268.92 454.53 268.91 454.53 268.89 454.53 268.88 454.5 268.85 454.49 268.84 454.42 268.83 454.38 268.82 454.35 268.8 454.33 268.72 454.35 268.64 454.38 268.57 454.46 268.46 454.62 268.32 454.7 268.36 454.79 268.37 454.82 268.38 454.83 268.4 454.84 268.43 454.85 268.45 454.87 268.46 454.9 268.47 454.92 268.48 454.93 268.5 454.94 268.52 454.9 268.52 454.88 268.55 454.9 268.59 454.94 268.6 454.94 268.66 454.91 268.67 454.9 268.71 454.91 268.8 454.93 268.83 454.93 268.86 Z M 458.37 265.65 458.43 265.65 458.47 265.66 458.53 265.71 458.61 265.74 458.65 265.75 458.69 265.76 458.68 265.8 458.66 265.84 458.79 265.94 458.89 265.99 458.91 266.01 458.95 265.95 458.95 265.97 458.96 265.99 458.96 266.01 458.97 266.03 458.96 266.06 458.97 266.14 458.95 266.17 458.98 266.21 458.99 266.26 459 266.37 459.03 266.52 459.04 266.58 459.04 266.64 459.03 266.7 459.01 266.75 458.98 266.78 458.94 266.78 458.9 266.77 458.85 266.75 458.83 266.72 458.72 266.84 458.69 266.84 458.69 266.85 458.68 266.86 458.67 266.88 458.61 266.92 458.55 266.97 458.51 266.99 458.37 267 458.34 267.03 458.38 267.08 458.35 267.14 458.35 267.2 458.35 267.25 458.38 267.3 458.34 267.37 458.34 267.39 458.37 267.4 458.39 267.41 458.35 267.49 458.35 267.53 458.38 267.6 458.4 267.63 458.46 267.66 458.46 267.69 458.45 267.72 458.43 267.74 458.4 267.74 458.38 267.76 458.37 267.77 458.38 267.8 458.4 267.83 458.42 267.84 458.43 267.85 458.41 267.88 458.38 267.9 458.31 267.93 458.29 267.96 458.29 267.97 458.31 267.99 458.31 268.01 458.28 268.02 458.26 268.02 458.24 268.01 458.23 268 458.22 267.98 458.21 267.98 458.19 268.04 458.18 268.06 458.16 268.08 458.15 268.08 458.15 268.07 458.13 268.04 458.13 268.07 458.13 268.09 458.12 268.09 458.1 268.1 458.1 268.11 458.1 268.12 458.11 268.12 458.12 268.12 458.1 268.13 458.09 268.14 458.09 268.16 458.1 268.19 457.98 268.3 457.95 268.35 457.93 268.43 457.88 268.49 457.81 268.52 457.73 268.51 457.74 268.5 457.71 268.45 457.71 268.39 457.69 268.34 457.65 268.32 457.65 268.3 457.68 268.3 457.72 268.29 457.75 268.28 457.77 268.27 457.75 268.24 457.72 268.24 457.68 268.25 457.66 268.26 457.65 268.24 457.65 268.22 457.63 268.22 457.63 268.24 457.64 268.26 457.65 268.28 457.63 268.28 457.6 268.24 457.53 268.2 457.45 268.18 457.4 268.2 457.37 268.19 457.25 268.19 457.22 268.17 457.2 268.17 457.04 268.18 456.95 268.16 456.85 268.13 456.76 268.11 456.67 268.14 456.66 268.14 456.61 268.13 456.56 268.1 456.53 268.07 456.5 268.05 456.38 268.02 456.35 268.02 456.27 267.98 456.17 267.92 456.08 267.89 456.01 267.96 455.99 267.96 455.99 267.95 455.82 267.91 455.77 267.89 455.74 267.87 455.72 267.86 455.71 267.86 455.72 267.82 455.73 267.8 455.75 267.78 455.77 267.76 455.79 267.76 455.75 267.73 455.72 267.72 455.54 267.72 455.5 267.73 455.5 267.78 455.46 267.82 455.43 267.84 455.4 267.84 455.41 267.89 455.39 267.92 455.36 267.92 455.31 267.92 455.29 267.93 455.21 267.97 455.18 267.98 455.11 268.02 455.05 268.11 454.98 268.18 454.9 268.14 454.81 268.18 454.77 268.18 454.73 268.16 454.74 268.15 454.74 268.15 454.75 268.14 454.67 268.1 454.62 268.14 454.61 268.16 454.59 268.16 454.57 268.11 454.55 268.07 454.52 268.04 454.53 268 454.5 267.98 454.48 267.96 454.46 267.93 454.46 267.89 454.35 267.87 454.32 267.86 454.3 267.88 454.27 267.88 454.25 267.89 454.23 267.92 454.18 267.9 454.12 267.91 454.07 267.93 454.03 268 453.93 268.08 453.89 268.1 453.92 268.12 453.94 268.15 453.93 268.17 453.89 268.18 453.88 268.19 453.88 268.21 453.89 268.23 453.9 268.24 453.94 268.23 453.96 268.24 453.67 268.41 453.44 268.54 453.36 268.56 453.27 268.55 453.17 268.53 452.92 268.4 452.88 268.39 452.85 268.38 452.78 268.39 452.65 268.44 452.61 268.47 452.56 268.51 452.53 268.56 452.52 268.64 452.54 268.7 452.58 268.74 452.63 268.76 452.66 268.78 452.7 268.83 452.73 268.9 452.74 268.95 452.75 268.95 452.83 269.02 452.86 269.03 452.9 269.03 452.93 269.03 452.95 269.02 452.97 269.05 453.01 269.09 453.01 269.12 452.99 269.13 452.84 269.15 452.81 269.18 452.8 269.24 452.82 269.32 452.91 269.46 452.93 269.48 453 269.51 453.01 269.52 453.1 269.54 453.12 269.55 453.15 269.54 453.21 269.53 453.23 269.52 453.23 269.49 453.21 269.45 453.18 269.4 453.2 269.38 453.18 269.36 453.23 269.35 453.26 269.4 453.32 269.52 453.34 269.55 453.39 269.59 453.44 269.62 453.48 269.6 453.51 269.61 453.58 269.63 453.6 269.63 453.61 269.65 453.64 269.71 453.65 269.73 453.72 269.73 453.79 269.82 453.91 269.99 454.05 270.13 454.07 270.21 454 270.27 453.91 270.29 453.87 270.28 453.85 270.24 453.83 270.19 453.8 270.16 453.76 270.14 453.73 270.11 453.67 270.02 453.63 269.93 453.57 269.86 453.48 269.81 453.31 269.78 453.24 269.75 453.19 269.71 453.11 269.63 453.06 269.6 453.03 269.58 452.95 269.6 452.86 269.57 452.83 269.58 452.72 269.63 452.67 269.64 452.6 269.61 452.6 269.63 452.58 269.65 452.57 269.65 452.53 269.71 452.52 269.76 452.53 269.8 452.56 269.9 452.57 269.91 452.59 269.93 452.66 269.98 452.68 270.03 452.71 270.07 452.74 270.08 452.76 270.08 452.91 270.15 452.93 270.14 452.97 270.16 453.01 270.18 453.04 270.22 453.07 270.24 453.16 270.27 453.18 270.31 453.18 270.33 453.15 270.36 453.15 270.39 453.16 270.41 453.2 270.43 453.21 270.46 453.2 270.48 453.19 270.48 453.17 270.48 453.17 270.5 453.17 270.53 453.19 270.54 453.2 270.54 453.23 270.52 453.23 270.55 453.23 270.57 453.23 270.59 453.24 270.6 453.18 270.65 453.17 270.68 453.2 270.7 453.2 270.72 453.15 270.72 453.13 270.74 453.14 270.76 453.18 270.76 453.18 270.78 453.07 270.79 453.02 270.78 453.03 270.74 453.03 270.72 453.01 270.72 453 270.74 452.98 270.73 452.97 270.71 452.98 270.68 452.91 270.64 452.89 270.63 452.88 270.6 452.86 270.58 452.83 270.57 452.81 270.59 452.81 270.6 452.82 270.62 452.73 270.49 452.72 270.46 452.74 270.41 452.74 270.38 452.73 270.37 452.71 270.36 452.7 270.33 452.69 270.31 452.68 270.29 452.48 270.02 452.41 269.97 452.36 269.96 452.18 269.94 452.06 269.87 451.96 269.84 451.87 269.85 451.79 269.89 451.74 269.99 451.73 270.05 451.75 270.1 451.77 270.15 451.78 270.2 451.79 270.22 451.81 270.22 451.85 270.23 451.87 270.23 451.88 270.25 451.91 270.29 452.02 270.46 452.09 270.53 452.32 270.65 452.47 270.69 452.47 270.71 452.47 270.73 452.48 270.76 452.5 270.8 452.53 270.82 452.56 270.84 452.61 270.84 452.64 270.85 452.62 270.87 452.58 270.89 452.54 270.9 452.35 270.87 452.03 270.73 451.97 270.72 451.81 270.75 451.78 270.76 451.79 270.73 451.82 270.68 451.83 270.64 451.82 270.62 451.79 270.57 451.78 270.56 451.77 270.49 451.73 270.44 451.69 270.39 451.66 270.35 451.69 270.26 451.7 270.15 451.69 270.04 451.65 269.97 451.56 269.92 451.51 269.9 451.43 269.88 451.39 269.86 451.35 269.84 451.31 269.85 451.2 269.77 451.18 269.76 451.15 269.74 451.1 269.73 451.05 269.71 451.01 269.64 450.9 269.55 450.86 269.53 450.82 269.53 450.74 269.53 450.76 269.49 450.74 269.44 450.67 269.36 450.68 269.35 450.69 269.35 450.69 269.35 450.69 269.34 450.61 269.25 450.59 269.2 450.64 269.18 450.78 269.17 450.85 269.15 450.89 269.13 450.9 269.1 450.93 269.08 450.95 269.05 450.93 269 450.88 268.96 450.86 268.96 450.85 268.95 450.86 268.93 450.87 268.9 450.84 268.82 450.78 268.78 450.72 268.78 450.66 268.8 450.68 268.85 450.67 268.9 450.65 268.93 450.63 268.96 450.59 268.98 450.57 268.99 450.58 269 450.53 269 450.51 268.99 450.49 268.98 450.45 269.01 450.42 269.04 450.41 269.09 450.43 269.14 450.42 269.14 450.4 269.12 450.4 269.16 450.39 269.16 450.39 269.14 450.37 269.14 450.36 269.17 450.34 269.17 450.32 269.15 450.29 269.14 450.29 269.12 450.26 269.13 450.22 269.16 450.22 269.19 450.26 269.22 450.24 269.22 450.23 269.22 450.22 269.24 450.22 269.27 450.21 269.28 450.19 269.28 450.16 269.26 450.1 269.26 450.08 269.27 450.05 269.3 450.08 269.33 450.11 269.37 450.12 269.41 450.11 269.45 450.14 269.48 450.16 269.51 450.19 269.54 450.23 269.55 450.23 269.58 450.2 269.65 450.14 269.75 450.08 269.95 450.08 269.99 449.99 270.17 449.99 270.24 450 270.28 450.03 270.33 450.04 270.4 450.03 270.46 450.03 270.49 450.06 270.51 450.07 270.52 450.1 270.6 450.21 270.7 450.23 270.71 450.25 270.72 450.3 270.74 450.31 270.75 450.32 270.76 450.34 270.76 450.34 270.77 450.34 270.83 450.34 270.84 450.34 270.84 450.37 270.94 450.39 270.98 450.41 271.01 450.49 271.08 450.54 271.11 450.57 271.14 450.63 271.22 450.65 271.25 450.67 271.3 450.68 271.36 450.69 271.42 450.7 271.47 450.77 271.63 450.82 271.8 450.85 271.85 450.88 271.88 450.99 271.96 451.11 272.01 451.19 272.07 451.2 272.08 451.21 272.09 451.24 272.18 451.26 272.22 451.45 272.43 451.48 272.49 451.58 272.59 451.63 272.74 451.74 272.96 451.75 273 451.72 273.01 451.65 273.08 451.61 273.09 451.52 273.11 451.48 273.12 451.45 273.14 451.46 273.14 451.47 273.15 451.48 273.15 451.49 273.16 451.49 273.17 451.47 273.18 451.46 273.19 451.45 273.2 451.43 273.21 451.41 273.2 451.36 273.21 451.31 273.22 451.28 273.24 451.24 273.26 451.19 273.26 451.1 273.23 451.12 273.19 451.15 273.16 451.13 273.12 451.16 273.09 451.24 273.06 451.24 273.09 451.21 273.21 451.36 273.13 451.39 273.09 451.37 273.07 451.39 273.06 451.41 273.06 451.42 273.07 451.43 273.08 451.44 273.06 451.46 273.03 451.46 273 451.45 272.97 451.4 272.87 451.37 272.84 451.38 272.8 451.36 272.75 451.32 272.7 451.28 272.67 451.24 272.64 451.2 272.62 451.03 272.61 451.03 272.6 451.03 272.58 451.02 272.57 451.01 272.55 450.99 272.51 450.98 272.49 450.96 272.49 450.9 272.49 450.85 272.48 450.84 272.48 450.86 272.51 450.86 272.53 450.83 272.55 450.83 272.59 450.83 272.62 450.86 272.65 450.8 272.66 450.72 272.67 450.63 272.69 450.6 272.74 450.59 272.85 450.6 272.88 450.66 273.06 450.67 273.06 450.69 273.03 450.72 273 450.71 272.97 450.72 272.97 450.74 272.99 450.75 273.02 450.77 273 450.79 273.05 450.79 273.1 450.81 273.15 450.84 273.19 450.84 273.18 450.84 273.18 450.85 273.18 450.86 273.17 450.85 273.15 450.84 273.14 450.9 273.17 450.92 273.22 450.94 273.27 450.98 273.31 450.97 273.35 450.97 273.35 450.98 273.37 450.91 273.41 450.89 273.44 450.9 273.48 451.02 273.42 451.08 273.4 451.15 273.39 451.15 273.41 451.13 273.43 451.05 273.47 451.03 273.49 451.03 273.51 451.01 273.56 451 273.58 450.98 273.61 450.98 273.61 450.97 273.62 450.95 273.64 450.94 273.64 450.9 273.64 450.89 273.64 450.87 273.65 450.86 273.66 450.84 273.66 450.85 273.69 450.86 273.7 450.83 273.7 450.78 273.73 450.76 273.74 450.73 273.73 450.7 273.72 450.67 273.71 450.64 273.72 450.63 273.74 450.62 273.8 450.61 273.82 450.55 273.82 450.53 273.83 450.52 273.86 450.49 273.85 450.44 273.87 450.39 273.87 450.37 273.85 450.36 273.82 450.34 273.83 450.29 273.86 450.28 273.85 450.24 273.82 450.23 273.82 450.22 273.81 450.14 273.75 450.13 273.76 450.09 273.79 450.07 273.8 450.05 273.81 450.03 273.82 450.01 273.82 449.99 273.82 449.98 273.84 449.96 273.86 449.95 273.85 449.93 273.83 449.93 273.91 450.04 273.89 450.04 273.91 449.99 273.94 450.02 273.97 450.06 273.99 450.08 273.95 450.1 273.95 450.08 273.99 450.11 273.99 450.14 273.98 450.17 273.98 450.19 273.99 450.3 273.94 450.32 273.93 450.38 274.02 450.42 274.08 450.45 274.09 450.47 274.12 450.49 274.13 450.51 274.13 450.55 274.11 450.58 274.11 450.6 274.12 450.64 274.14 450.67 274.17 450.69 274.2 450.73 274.16 450.76 274.15 450.79 274.15 450.82 274.16 450.86 274.2 450.9 274.2 451.02 274.21 451.08 274.23 451.12 274.28 451.18 274.5 451.22 274.53 451.26 274.54 451.28 274.53 451.31 274.5 451.33 274.49 451.36 274.49 451.39 274.49 451.42 274.46 451.38 274.43 451.36 274.42 451.4 274.4 451.44 274.41 451.51 274.46 451.55 274.47 451.62 274.48 451.66 274.49 451.69 274.52 451.72 274.56 451.73 274.6 451.72 274.63 451.7 274.66 451.66 274.67 451.63 274.7 451.62 274.77 451.64 274.73 451.66 274.73 451.69 274.75 451.71 274.78 451.74 274.8 451.8 274.81 451.83 274.83 451.83 274.84 451.81 274.85 451.76 274.85 451.74 274.86 451.72 274.88 451.71 274.9 451.73 274.91 451.76 274.92 451.91 274.91 452.13 274.95 452.16 274.93 452.19 274.89 452.24 274.92 452.32 275 452.27 275.03 452.25 275.03 452.25 275.06 452.28 275.06 452.3 275.07 452.31 275.09 452.3 275.11 452.3 275.13 452.37 275.17 452.47 275.33 452.56 275.38 452.59 275.39 452.72 275.37 452.77 275.4 452.79 275.4 453.01 275.49 453.05 275.5 453.09 275.51 453.13 275.55 453.18 275.62 453.29 275.7 453.3 275.72 453.31 275.74 453.35 275.76 453.36 275.78 453.36 275.8 453.35 275.82 453.35 275.84 453.38 275.86 453.36 275.87 453.34 275.89 453.34 275.93 453.33 275.96 453.32 275.92 453.28 275.93 453.18 275.99 453.18 276.04 453.21 276.16 453.22 276.22 453.24 276.25 453.26 276.28 453.27 276.31 453.27 276.33 453.24 276.39 453.23 276.42 453.23 276.45 453.23 276.47 453.24 276.5 453.23 276.54 453.25 276.54 453.28 276.55 453.3 276.56 453.3 276.59 453.29 276.61 453.23 276.63 453.24 276.65 453.26 276.66 453.29 276.67 453.32 276.67 453.3 276.69 453.32 276.69 453.35 276.71 453.33 276.73 453.33 276.75 453.34 276.77 453.35 276.79 453.34 276.79 453.33 276.8 453.32 276.81 453.32 276.83 453.37 276.86 453.39 276.88 453.39 276.93 453.39 276.99 453.38 277.02 453.33 277.07 453.36 277.09 453.36 277.11 453.33 277.11 453.33 277.13 453.35 277.13 453.35 277.14 453.35 277.15 453.35 277.17 453.35 277.16 453.34 277.15 453.34 277.15 453.33 277.17 453.36 277.2 453.34 277.23 453.3 277.26 453.27 277.3 453.25 277.29 453.16 277.25 453.13 277.24 453.09 277.23 453.07 277.2 453.07 277.09 453.06 277.09 453.03 277.11 453.01 277.06 452.98 276.94 452.98 276.95 452.95 276.96 452.94 276.91 452.9 276.87 452.86 276.84 452.83 276.84 452.82 276.83 452.81 276.83 452.81 276.82 452.8 276.81 452.79 276.81 452.77 276.86 452.75 276.87 452.73 276.85 452.71 276.88 452.71 276.86 452.7 276.85 452.7 276.84 452.68 276.84 452.69 276.81 452.68 276.78 452.63 276.73 452.63 276.67 452.54 276.54 452.53 276.5 452.49 276.48 452.45 276.49 452.42 276.51 452.38 276.52 452.37 276.5 452.38 276.5 452.4 276.49 452.4 276.48 452.41 276.46 452.37 276.48 452.35 276.46 452.34 276.44 452.31 276.42 452.28 276.42 452.25 276.42 452.23 276.41 452.21 276.38 452.29 276.31 452.31 276.27 452.29 276.22 452.27 276.2 452.26 276.2 452.24 276.21 452.22 276.21 452.14 276.21 452.12 276.22 452.1 276.23 452.09 276.24 452.08 276.25 452.03 276.25 452 276.26 451.98 276.27 451.9 276.35 451.86 276.36 451.94 276.38 451.89 276.4 451.71 276.38 451.49 276.4 451.4 276.44 451.34 276.5 451.3 276.53 451.19 276.58 451.1 276.54 451.08 276.55 451.06 276.55 451.04 276.54 451.02 276.54 451.01 276.55 451.01 276.59 451.01 276.62 450.99 276.63 450.97 276.66 450.98 276.71 451.01 276.76 451.05 276.75 451.09 276.77 451.15 276.77 451.2 276.77 451.24 276.75 451.31 276.82 451.35 276.85 451.39 276.86 451.38 276.89 451.37 276.92 451.38 276.94 451.39 276.96 451.36 276.97 451.32 276.99 451.27 277 451.26 277.01 451.26 277.03 451.25 277.05 451.31 277.1 451.34 277.11 451.37 277.11 451.35 277.18 451.35 277.22 451.35 277.26 451.37 277.32 451.34 277.32 451.35 277.38 451.36 277.41 451.4 277.43 451.49 277.49 451.51 277.47 451.59 277.55 451.6 277.56 451.61 277.56 451.63 277.57 451.68 277.61 451.7 277.62 451.73 277.63 451.78 277.59 451.78 277.52 451.74 277.45 451.68 277.42 451.68 277.4 451.71 277.37 451.75 277.35 451.87 277.34 451.89 277.37 451.88 277.45 451.85 277.53 451.81 277.57 451.84 277.59 451.86 277.61 451.89 277.62 451.92 277.63 451.92 277.65 451.88 277.66 451.86 277.66 451.86 277.68 451.87 277.68 451.89 277.69 451.95 277.7 452 277.74 452.05 277.75 452.15 277.84 452.14 277.85 452.13 277.86 452.14 277.86 452.15 277.87 452.15 277.89 452.1 277.92 451.97 277.96 451.96 277.96 451.7 277.98 451.66 277.97 451.66 277.98 451.67 277.99 451.67 278 451.68 278.01 451.6 278 451.57 278 451.57 278.03 451.49 278.05 451.49 278.07 451.51 278.09 451.53 278.09 451.55 278.08 451.54 278.1 451.54 278.12 451.56 278.12 451.6 278.14 451.56 278.16 451.52 278.16 451.44 278.16 451.4 278.17 451.39 278.19 451.41 278.23 451.43 278.27 451.39 278.28 451.36 278.28 451.33 278.27 451.3 278.25 451.3 278.23 451.34 278.23 451.34 278.22 451.32 278.21 451.29 278.21 451.26 278.21 451.24 278.18 451.28 278.2 451.27 278.17 451.25 278.15 451.21 278.12 451.19 278.14 451.17 278.14 451.15 278.13 451.15 278.12 451.14 278.03 451.14 278 451.17 278.02 451.19 278.03 451.22 278.01 451.23 277.97 451.24 277.93 451.28 277.96 451.3 277.97 451.3 277.95 451.29 277.93 451.28 277.91 451.28 277.88 451.28 277.87 451.26 277.86 451.24 277.86 451.23 277.85 451.2 277.83 451.12 277.85 451.09 277.84 451.12 277.82 451.09 277.76 451.03 277.79 451.01 277.81 450.99 277.84 450.96 277.74 450.94 277.7 450.9 277.66 450.89 277.66 450.87 277.67 450.86 277.66 450.85 277.66 450.84 277.64 450.84 277.63 450.84 277.63 450.81 277.61 450.79 277.61 450.77 277.61 450.79 277.62 450.8 277.63 450.81 277.65 450.77 277.63 450.73 277.63 450.69 277.65 450.66 277.68 450.64 277.67 450.58 277.63 450.59 277.62 450.6 277.59 450.57 277.58 450.54 277.56 450.53 277.53 450.54 277.51 450.51 277.48 450.49 277.46 450.44 277.48 450.4 277.5 450.38 277.54 450.37 277.61 450.37 277.62 450.4 277.66 450.4 277.67 450.4 277.69 450.39 277.72 450.39 277.74 450.4 277.77 450.41 277.79 450.42 277.8 450.43 277.82 450.43 277.83 450.43 277.88 450.44 277.89 450.46 277.91 450.46 277.94 450.45 277.98 450.45 278.01 450.56 278.15 450.58 278.16 450.57 278.2 450.6 278.2 450.6 278.22 450.58 278.22 450.58 278.23 450.61 278.26 450.66 278.35 450.67 278.4 450.75 278.54 450.76 278.55 450.78 278.57 450.79 278.6 450.77 278.62 450.76 278.63 450.76 278.67 450.75 278.74 450.77 278.78 450.81 278.78 450.86 278.78 450.89 278.77 450.89 278.78 450.89 278.79 450.9 278.8 450.9 278.81 450.89 278.82 450.89 278.82 450.9 278.82 450.89 278.85 450.92 278.86 450.94 278.88 450.94 278.9 450.9 278.88 450.92 278.93 450.98 279.02 450.98 279.05 451 279.1 451.01 279.15 451 279.15 450.97 279.15 450.96 279.15 450.97 279.16 450.99 279.19 450.99 279.2 451 279.19 451 279.19 451 279.19 451.01 279.18 451.02 279.21 451.02 279.23 451.02 279.26 451.01 279.28 451.03 279.32 451.08 279.43 451.09 279.45 451.09 279.47 451.11 279.52 451.18 279.58 451.19 279.61 451.2 279.64 451.19 279.67 451.16 279.68 451.16 279.69 451.19 279.69 451.2 279.7 451.24 279.71 451.23 279.73 451.2 279.75 451.19 279.77 451.19 279.79 451.19 279.79 451.19 279.8 451.19 279.82 451.18 279.85 451.15 279.84 451.12 279.83 451.1 279.81 451.08 279.84 451.05 279.87 451.04 279.89 451.07 279.92 451.07 279.93 451.06 279.95 451.05 279.96 451.12 279.96 451.06 280.01 451.06 280.08 451.1 280.15 451.14 280.22 451.16 280.27 451.17 280.28 451.22 280.3 451.24 280.32 451.28 280.34 451.29 280.35 451.3 280.36 451.31 280.37 451.33 280.37 451.31 280.39 451.3 280.39 451.3 280.41 451.31 280.43 451.31 280.44 451.3 280.45 451.28 280.47 451.32 280.52 451.39 280.56 451.43 280.61 451.42 280.67 451.34 280.63 451.32 280.66 451.29 280.67 451.19 280.64 451.17 280.61 451.16 280.58 451.13 280.56 451.13 280.54 451.14 280.51 451.13 280.46 451.1 280.43 451.06 280.41 450.97 280.43 450.92 280.43 450.9 280.4 450.89 280.36 450.84 280.25 450.83 280.22 450.8 280.2 450.71 280.13 450.74 280.1 450.73 280.06 450.63 279.98 450.62 279.97 450.61 280 450.58 280.03 450.57 280.02 450.57 279.99 450.58 279.93 450.58 279.89 450.56 279.83 450.54 279.73 450.51 279.68 450.46 279.65 450.4 279.64 450.29 279.64 450.15 279.65 450.05 279.71 450.05 279.83 449.98 279.88 449.95 279.92 449.93 279.98 449.96 279.98 449.99 280 449.99 280.03 449.99 280.07 449.98 280.07 449.97 280.05 449.96 280.03 449.95 280.02 449.93 280.02 449.91 280.03 449.9 280.06 449.9 280.08 449.91 280.09 449.94 280.12 449.93 280.18 449.9 280.21 449.89 280.15 449.85 280.17 449.84 280.19 449.84 280.36 449.85 280.42 449.86 280.47 449.9 280.58 449.89 280.59 449.9 280.62 449.87 280.64 449.86 280.67 449.87 280.7 449.89 280.73 449.89 280.75 449.86 280.75 449.86 280.75 449.86 280.77 449.86 280.79 449.83 280.76 449.82 280.71 449.82 280.66 449.81 280.62 449.78 280.59 449.7 280.56 449.67 280.52 449.66 280.52 449.63 280.55 449.61 280.54 449.59 280.52 449.57 280.5 449.55 280.45 449.55 280.42 449.57 280.39 449.58 280.36 449.62 280.37 449.63 280.33 449.62 280.29 449.6 280.26 449.61 280.25 449.63 280.21 449.58 280.21 449.59 280.17 449.58 280.13 449.59 280.1 449.63 280.09 449.63 280.07 449.58 280.06 449.59 280.01 449.63 279.92 449.56 279.93 449.52 279.86 449.48 279.78 449.44 279.73 449.45 279.68 449.41 279.61 449.26 279.39 449.21 279.37 449.15 279.41 449.1 279.37 449.07 279.34 449.06 279.3 449.07 279.3 449.08 279.28 449.09 279.26 449.09 279.23 449.1 279.2 449.11 279.15 449.11 279.07 449.11 279.05 448.96 279.02 448.87 279.01 448.83 279.02 448.75 279.08 448.67 279.1 448.64 279.13 448.63 279.17 448.61 279.43 448.59 279.46 448.59 279.49 448.6 279.52 448.62 279.54 448.62 279.57 448.61 279.6 448.65 279.64 448.67 279.65 448.7 279.66 448.7 279.68 448.67 279.68 448.64 279.69 448.63 279.71 448.64 279.73 448.62 279.76 448.53 279.84 448.52 279.86 448.51 279.86 448.49 279.86 448.45 279.79 448.44 279.78 448.37 279.64 448.33 279.64 448.3 279.65 448.24 279.68 448.22 279.65 448.17 279.63 448.15 279.6 448.14 279.6 448.12 279.61 448.11 279.59 448.09 279.56 448.08 279.53 448.08 279.5 448.08 279.48 448.08 279.45 448.08 279.41 448.08 279.39 448.11 279.34 448.12 279.32 448.12 279.27 448.11 279.23 448.08 279.21 448.03 279.22 448.05 279.21 448.06 279.2 448.06 279.18 448.04 279.18 448.03 279.19 448.02 279.22 448 279.13 447.94 279.05 447.88 278.98 447.83 278.9 447.81 278.79 447.81 278.68 447.82 278.58 447.86 278.5 448 278.39 448.06 278.32 448.09 278.23 448.08 278.12 448.06 278.06 448.05 278.01 447.9 277.73 447.81 277.6 447.77 277.55 447.58 277.42 447.53 277.39 447.51 277.37 447.46 277.31 447.44 277.29 447.31 277.25 447.27 277.27 447.26 277.34 447.24 277.34 447.24 277.31 447.24 277.29 447.23 277.26 447.21 277.24 447.24 277.19 447.25 277.14 447.24 277.09 447.2 276.97 447.18 276.93 447.15 276.91 447.05 276.86 446.82 276.78 446.8 276.77 446.79 276.73 446.8 276.69 446.79 276.67 446.85 276.48 446.86 276.48 446.91 276.53 447.01 276.48 447.11 276.4 447.17 276.33 447.2 276.34 447.22 276.32 447.25 276.29 447.27 276.27 447.27 276.25 447.26 276.24 447.26 276.24 447.26 276.24 447.26 276.23 447.23 276.24 447.21 276.26 447.19 276.27 447.18 276.29 447.28 276.13 447.28 276.12 447.36 275.99 447.37 275.96 447.38 275.92 447.38 275.76 447.38 275.71 447.4 275.74 447.43 275.79 447.46 275.81 447.45 275.77 447.45 275.75 447.44 275.73 447.45 275.75 447.48 275.76 447.52 275.77 447.57 275.77 447.6 275.78 447.71 275.86 447.89 275.9 447.93 275.9 447.97 275.88 448.05 275.83 448.1 275.75 448.19 275.57 448.24 275.5 448.41 275.39 448.43 275.37 448.58 275.4 448.63 275.4 448.65 275.4 448.67 275.38 448.69 275.4 448.72 275.42 448.75 275.44 448.78 275.44 448.81 275.45 448.83 275.48 448.83 275.51 448.85 275.54 448.87 275.56 448.94 275.59 448.96 275.6 448.98 275.59 449.01 275.58 449.02 275.58 449.04 275.6 449.05 275.61 449.07 275.62 449.08 275.63 449.11 275.7 449.12 275.73 449.14 275.74 449.22 275.77 449.23 275.77 449.24 275.79 449.25 275.8 449.27 275.81 449.34 275.81 449.43 275.83 449.46 275.85 449.5 275.83 449.54 275.85 449.57 275.89 449.64 275.91 449.66 275.93 449.69 275.94 449.71 275.93 449.73 275.93 449.9 275.97 450.14 276.1 450.28 276.14 450.29 276.16 450.32 276.17 450.49 276.33 450.53 276.39 450.55 276.4 450.59 276.42 450.66 276.48 450.69 276.5 450.72 276.5 450.76 276.5 450.81 276.48 450.83 276.48 450.85 276.48 450.86 276.48 450.88 276.47 450.92 276.4 450.93 276.39 450.91 276.36 450.87 276.32 450.85 276.31 450.81 276.3 450.76 276.25 450.72 276.25 450.73 276.24 450.73 276.24 450.66 276.23 450.71 276.19 450.73 276.18 450.76 276.17 450.79 276.16 450.84 276.11 450.86 276.1 450.92 276.1 451.03 276.15 451.07 276.13 451.14 276.16 451.21 276.15 451.37 276.11 451.4 276.07 451.44 276.06 451.46 276.04 451.45 276.01 451.41 275.97 451.37 275.96 451.37 275.95 451.37 275.92 451.4 275.92 451.45 275.91 451.48 275.9 451.48 275.88 451.46 275.88 451.3 275.86 451.27 275.85 451.31 275.81 451.26 275.75 451.23 275.74 451.16 275.81 451.13 275.82 451.05 275.81 451.05 275.79 451.1 275.79 451.07 275.75 451.04 275.72 451.01 275.71 450.88 275.7 450.84 275.71 450.81 275.75 450.84 275.74 450.87 275.74 450.9 275.76 450.92 275.79 450.88 275.79 450.81 275.78 450.78 275.79 450.75 275.65 450.74 275.65 450.72 275.69 450.72 275.68 450.71 275.67 450.71 275.65 450.67 275.67 450.58 275.68 450.55 275.69 450.46 275.63 450.48 275.61 450.52 275.57 450.54 275.54 450.5 275.52 450.41 275.5 450.36 275.46 450.32 275.45 450.31 275.44 450.3 275.43 450.26 275.37 450.28 275.32 450.25 275.26 450.2 275.23 450.16 275.29 450.2 275.29 450.2 275.31 450.18 275.33 450.15 275.32 450.12 275.31 450.1 275.33 450.08 275.36 450.07 275.38 450.07 275.4 450.08 275.41 450.09 275.41 450.09 275.42 450.11 275.42 450.11 275.44 450.09 275.45 450.09 275.46 450.1 275.46 450.1 275.48 450.07 275.51 450.04 275.52 450.01 275.51 449.98 275.48 449.98 275.47 449.95 275.42 449.95 275.42 449.94 275.41 449.93 275.4 449.94 275.39 449.96 275.38 449.93 275.32 449.82 275.19 449.81 275.15 449.79 275.13 449.78 275.13 449.76 275.12 449.66 275.06 449.66 275.09 449.67 275.14 449.67 275.16 449.61 275.21 449.6 275.23 449.61 275.25 449.62 275.26 449.63 275.26 449.64 275.25 449.65 275.27 449.65 275.3 449.63 275.31 449.61 275.33 449.63 275.34 449.61 275.37 449.58 275.37 449.54 275.35 449.48 275.34 449.4 275.35 449.39 275.34 449.36 275.32 449.33 275.32 449.31 275.33 449.29 275.33 449.27 275.32 449.23 275.34 449.2 275.38 449.19 275.42 449.17 275.4 449.16 275.37 449.14 275.34 449.12 275.34 449.1 275.34 449.09 275.34 449.09 275.31 449.06 275.28 448.99 275.26 448.88 275.21 448.83 275.21 448.79 275.23 448.74 275.18 448.67 275.17 448.61 275.2 448.52 275.26 448.5 275.27 448.47 275.27 448.45 275.26 448.44 275.24 448.43 275.22 448.41 275.21 448.39 275.22 448.28 275.31 448.27 275.34 448.26 275.39 448.24 275.41 448.2 275.38 448.14 275.33 448.01 275.33 447.97 275.33 447.94 275.35 447.91 275.36 447.88 275.34 447.74 275.45 447.71 275.5 447.7 275.5 447.68 275.48 447.65 275.47 447.62 275.47 447.61 275.47 447.59 275.45 447.5 275.4 447.54 275.39 447.57 275.41 447.61 275.44 447.64 275.46 447.64 275.44 447.63 275.43 447.62 275.42 447.62 275.41 447.64 275.38 447.61 275.37 447.61 275.37 447.61 275.34 447.61 275.34 447.64 275.33 447.59 275.33 447.61 275.29 447.59 275.3 447.57 275.3 447.55 275.3 447.53 275.29 447.52 275.3 447.51 275.3 447.49 275.31 447.5 275.25 447.47 275.22 447.43 275.21 447.39 275.21 447.37 275.18 447.35 275.02 447.3 274.96 447.28 274.94 447.26 274.94 447.26 274.94 447.23 274.94 447.24 274.96 447.33 275.11 447.3 275.11 447.31 275.12 447.31 275.13 447.31 275.13 447.32 275.13 447.31 275.16 447.3 275.19 447.3 275.22 447.28 275.23 447.26 275.23 447.21 275.26 447.2 275.27 447.2 275.28 447.2 275.28 447.21 275.29 447.2 275.31 447.17 275.29 447.15 275.3 447.14 275.32 447.14 275.33 447.15 275.33 447.14 275.36 447.1 275.38 447.08 275.4 447.07 275.41 447.02 275.4 447 275.39 446.99 275.37 446.97 275.37 446.95 275.4 446.96 275.41 446.98 275.42 446.99 275.42 446.98 275.43 446.96 275.43 446.94 275.45 446.94 275.48 446.89 275.48 446.88 275.45 446.87 275.41 446.86 275.38 446.83 275.37 446.77 275.37 446.74 275.37 446.76 275.35 446.78 275.34 446.79 275.32 446.79 275.29 446.76 275.3 446.76 275.31 446.77 275.26 446.79 275.25 446.78 275.27 446.8 275.28 446.83 275.26 446.85 275.24 446.86 275.21 446.82 275.18 446.8 275.18 446.79 275.21 446.76 275.2 446.74 275.18 446.73 275.15 446.73 275.11 446.73 275.11 446.73 275.11 446.74 275.11 446.74 275.09 446.76 275.12 446.79 275.13 446.81 275.13 446.82 275.09 446.79 275.11 446.8 275.08 446.77 275.02 446.79 275 446.79 274.98 446.76 274.98 446.75 274.97 446.73 274.96 446.75 274.95 446.76 274.94 446.77 274.94 446.76 274.93 446.75 274.92 446.74 274.92 446.76 274.87 446.77 274.85 446.76 274.83 446.74 274.82 446.72 274.83 446.71 274.85 446.69 274.86 446.68 274.87 446.65 274.89 446.63 274.91 446.62 274.89 446.61 274.87 446.59 274.83 446.59 274.8 446.6 274.68 446.6 274.62 446.56 274.57 446.52 274.46 446.5 274.44 446.42 274.44 446.39 274.43 446.36 274.4 446.34 274.36 446.29 274.14 446.27 274.09 446.24 274.07 446.21 274.08 446.17 274.11 446.15 274.15 446.13 274.18 446.12 274.15 446.1 274.16 446.09 274.17 446.07 274.17 446.05 274.19 446.04 274.18 446.03 274.15 446.03 274.13 445.95 274.07 445.95 274.05 445.97 274.01 445.98 273.96 445.99 273.91 446.03 273.89 446.08 273.9 446.11 273.89 446.12 273.89 446.11 273.87 446.09 273.85 446.08 273.84 446.03 273.82 446.01 273.77 446 273.72 446.01 273.68 446.04 273.63 446.05 273.65 446.07 273.69 446.1 273.72 446.14 273.73 446.19 273.71 446.22 273.67 446.24 273.62 446.25 273.62 446.26 273.64 446.26 273.66 446.26 273.67 446.25 273.68 446.26 273.68 446.27 273.69 446.27 273.7 446.25 273.72 446.3 273.72 446.34 273.71 446.36 273.69 446.37 273.64 446.39 273.64 446.41 273.67 446.43 273.67 446.46 273.66 446.5 273.66 446.53 273.67 446.55 273.69 446.57 273.7 446.61 273.7 446.62 273.72 446.61 273.76 446.61 273.8 446.63 273.82 446.66 273.82 446.68 273.84 446.74 273.89 446.74 273.87 446.75 273.85 446.76 273.85 446.77 273.83 446.77 273.82 446.75 273.78 446.78 273.76 446.82 273.76 446.85 273.79 446.91 273.85 446.91 273.86 446.92 273.86 446.93 273.87 446.94 273.86 446.95 273.83 446.93 273.82 446.93 273.81 446.92 273.76 446.91 273.76 446.9 273.76 446.89 273.76 446.86 273.71 446.86 273.68 446.88 273.64 446.86 273.62 446.87 273.59 446.89 273.58 446.91 273.58 446.9 273.52 446.85 273.44 446.74 273.33 446.72 273.35 446.71 273.37 446.72 273.39 446.73 273.41 446.69 273.39 446.68 273.4 446.67 273.4 446.63 273.45 446.68 273.48 446.56 273.47 446.56 273.45 446.53 273.44 446.5 273.42 446.48 273.4 446.47 273.4 446.45 273.41 446.43 273.4 446.41 273.37 446.41 273.35 446.41 273.35 446.42 273.34 446.44 273.33 446.44 273.31 446.42 273.31 446.4 273.33 446.37 273.33 446.35 273.31 446.33 273.29 446.31 273.29 446.3 273.32 446.26 273.34 446.25 273.36 446.26 273.39 446.29 273.39 446.3 273.41 446.21 273.41 446.24 273.39 446.24 273.37 446.23 273.34 446.23 273.32 446.21 273.33 446.21 273.32 446.21 273.31 446.21 273.31 446.21 273.31 446.21 273.29 446.19 273.29 446.18 273.29 446.17 273.3 446.16 273.31 446.19 273.25 446.18 273.2 446.16 273.18 446.13 273.21 446.12 273.19 446.11 273.21 446.1 273.23 446.08 273.24 446.06 273.25 446.06 273.27 446.09 273.28 446.08 273.3 446.08 273.34 446.07 273.37 446.06 273.39 446.04 273.4 446.02 273.42 446.01 273.45 445.98 273.43 445.98 273.46 445.99 273.47 445.99 273.47 446.01 273.47 446.12 273.55 446.16 273.57 446.17 273.59 446.18 273.61 446.17 273.62 446.15 273.62 446.11 273.59 446.05 273.57 446.03 273.57 446.01 273.58 446.01 273.6 445.99 273.63 445.96 273.65 445.95 273.63 445.94 273.6 445.93 273.58 445.91 273.57 445.9 273.55 445.9 273.54 445.9 273.53 445.89 273.52 445.89 273.51 445.89 273.5 445.91 273.48 445.92 273.48 445.92 273.47 445.9 273.37 445.86 273.3 445.8 273.25 445.72 273.21 445.65 273.16 445.48 272.94 445.42 272.89 445.39 272.87 445.4 272.84 445.39 272.82 445.39 272.78 445.39 272.75 445.4 272.73 445.4 272.71 445.38 272.72 445.35 272.72 445.34 272.71 445.33 272.69 445.29 272.71 445.26 272.7 445.23 272.69 445.21 272.67 445.14 272.69 445.05 272.65 444.98 272.56 444.98 272.47 444.95 272.44 444.93 272.41 444.91 272.38 444.86 272.37 444.86 272.35 444.87 272.35 444.87 272.34 444.85 272.31 444.83 272.27 444.81 272.26 444.85 272.24 444.9 272.24 444.93 272.24 444.92 272.2 444.9 272.17 444.81 272.12 444.81 272.1 444.85 272.1 444.88 272.11 444.9 272.11 444.92 272.08 444.92 272.06 444.9 272.04 444.86 272.03 444.83 272.02 444.83 272.06 444.81 272.04 444.78 272.03 444.76 272.02 444.78 272 444.74 271.99 444.7 271.99 444.66 271.99 444.63 272 444.65 271.98 444.66 271.95 444.66 271.92 444.66 271.88 444.67 271.9 444.69 271.9 444.71 271.89 444.72 271.87 444.72 271.86 444.72 271.82 444.72 271.8 444.72 271.8 444.75 271.79 444.75 271.79 444.74 271.73 444.7 271.7 444.66 271.69 444.64 271.68 444.64 271.67 444.6 271.64 444.59 271.63 444.57 271.62 444.55 271.61 444.53 271.59 444.43 271.57 444.38 271.55 444.36 271.53 444.34 271.53 444.33 271.53 444.37 271.51 444.44 271.53 444.53 271.56 444.63 271.62 444.7 271.67 444.74 271.69 444.78 271.68 444.78 271.67 444.78 271.65 444.79 271.63 444.8 271.61 444.82 271.6 444.84 271.6 444.86 271.61 444.88 271.62 444.89 271.56 444.92 271.52 444.96 271.5 444.99 271.46 445 271.43 444.99 271.42 444.98 271.4 444.97 271.38 444.97 271.37 444.95 271.35 444.94 271.34 444.95 271.33 444.96 271.3 444.96 271.28 444.96 271.26 444.94 271.25 444.94 271.24 444.95 271.21 444.97 271.21 444.99 271.21 445 271.21 445.08 271.24 445.12 271.27 445.16 271.27 445.2 271.23 445.21 271.17 445.2 271.12 445.1 270.95 445.05 270.9 445.04 270.88 445 270.71 444.99 270.69 445.02 270.68 445.13 270.68 445.17 270.67 445.18 270.62 445.2 270.57 445.22 270.52 445.25 270.49 445.29 270.47 445.37 270.47 445.4 270.45 445.44 270.44 445.56 270.46 445.61 270.46 445.7 270.42 445.75 270.39 445.77 270.38 445.78 270.36 445.81 270.26 445.81 270.25 445.8 270.2 445.8 270.18 445.8 270.15 445.8 270.13 445.81 270.12 445.84 270.11 445.85 270.1 445.88 270.03 445.88 269.97 445.87 269.91 445.88 269.85 445.9 269.82 445.92 269.8 445.95 269.79 445.97 269.77 445.97 269.76 446.01 269.67 446.03 269.63 446.04 269.6 446.05 269.57 446.05 269.54 446.04 269.46 446.04 269.43 446.06 269.41 446.11 269.4 446.13 269.39 446.15 269.36 446.15 269.33 446.17 269.31 446.2 269.29 446.25 269.29 446.31 269.31 446.35 269.32 446.41 269.28 446.43 269.25 446.44 269.24 446.45 269.22 446.44 269.19 446.46 269.16 446.48 269.14 446.51 269.14 446.52 269.11 446.54 269.09 446.56 269.08 446.58 269.06 446.59 269.03 446.6 269.01 446.6 268.99 446.6 268.95 446.62 268.85 446.63 268.8 446.63 268.74 446.61 268.69 446.59 268.65 446.53 268.58 446.47 268.52 446.46 268.5 446.46 268.47 446.45 268.45 446.43 268.43 446.46 268.39 446.48 268.33 446.47 268.19 446.8 268.17 446.96 268.13 447.01 268.13 447.09 268.15 447.13 268.15 447.2 268.15 447.28 268.14 447.31 268.12 447.4 268.04 447.45 268.01 447.5 268.01 447.67 268.04 447.68 268.04 447.78 268.13 447.84 268.14 447.86 268.13 447.91 268.07 447.93 268.06 447.95 268.05 447.98 268.06 447.99 268.05 448 268.04 448 268 448.01 267.99 448.07 267.96 448.18 267.98 448.23 267.97 448.25 267.97 448.27 267.94 448.28 267.91 448.28 267.88 448.29 267.85 448.31 267.82 448.39 267.77 448.39 267.77 448.39 267.77 448.39 267.77 448.42 267.71 448.5 267.64 448.53 267.59 448.54 267.57 448.54 267.56 448.54 267.51 448.55 267.48 448.57 267.46 448.6 267.44 448.62 267.42 448.69 267.38 448.83 267.34 448.84 267.33 448.86 267.31 448.87 267.3 448.89 267.31 448.9 267.32 448.9 267.34 448.91 267.35 448.98 267.39 449 267.39 449.04 267.38 449.12 267.3 449.17 267.28 449.22 267.27 449.24 267.28 449.27 267.28 449.35 267.31 449.42 267.32 449.44 267.32 449.44 267.33 449.45 267.37 449.45 267.38 449.47 267.38 449.48 267.37 449.53 267.37 449.58 267.36 449.61 267.36 449.63 267.37 449.68 267.4 449.7 267.41 449.77 267.41 449.8 267.41 449.83 267.4 449.88 267.39 449.91 267.39 449.98 267.4 450.03 267.4 450.07 267.38 450.07 267.38 450.11 267.35 450.15 267.3 450.16 267.28 450.15 267.25 450.16 267.23 450.2 267.22 450.22 267.23 450.22 267.23 450.23 267.24 450.24 267.27 450.26 267.29 450.3 267.32 450.33 267.34 450.35 267.32 450.38 267.26 450.4 267.15 450.41 266.92 450.41 266.91 450.43 266.82 450.46 266.8 450.5 266.77 450.53 266.76 450.6 266.75 450.8 266.76 451.24 266.83 451.33 266.82 451.38 266.81 451.41 266.79 451.43 266.77 451.44 266.74 451.44 266.69 451.45 266.67 451.48 266.64 451.53 266.6 451.58 266.58 451.62 266.58 451.66 266.61 451.68 266.64 451.71 266.66 451.75 266.66 451.79 266.64 451.86 266.59 451.9 266.57 452.12 266.58 452.27 266.66 452.34 266.66 452.37 266.64 452.37 266.64 452.43 266.58 452.47 266.57 452.55 266.56 452.62 266.58 452.66 266.57 452.71 266.49 452.74 266.47 452.78 266.47 452.83 266.47 452.87 266.46 452.91 266.44 452.97 266.38 452.98 266.39 453.09 266.46 453.12 266.46 453.16 266.42 453.17 266.42 453.18 266.41 453.19 266.41 453.2 266.39 453.25 266.42 453.28 266.42 453.3 266.41 453.32 266.39 453.32 266.36 453.31 266.3 453.31 266.2 453.37 266.17 453.46 266.18 453.52 266.2 453.54 266.21 453.55 266.23 453.56 266.24 453.58 266.25 453.58 266.23 453.59 266.19 453.6 266.17 453.64 266.14 453.64 266.14 453.68 266.12 453.72 266.1 453.76 266.09 453.79 266.13 453.83 266.16 453.84 266.19 453.83 266.21 453.84 266.23 453.86 266.23 453.87 266.23 453.89 266.22 453.91 266.22 453.96 266.23 453.98 266.22 454.06 266.2 454.09 266.2 454.14 266.21 454.17 266.2 454.22 266.13 454.27 266.12 454.33 266.1 454.38 266.14 454.4 266.22 454.41 266.3 454.42 266.32 454.43 266.34 454.44 266.35 454.45 266.36 454.46 266.37 454.48 266.39 454.49 266.4 454.49 266.41 454.49 266.44 454.49 266.45 454.52 266.49 454.55 266.49 454.63 266.49 454.61 266.52 454.67 266.52 454.71 266.53 454.75 266.55 454.79 266.59 454.87 266.68 454.92 266.73 454.96 266.73 454.98 266.69 454.97 266.63 454.98 266.6 455.07 266.59 455.11 266.57 455.14 266.57 455.16 266.57 455.23 266.61 455.59 266.77 455.63 266.76 455.64 266.76 455.65 266.77 455.67 266.8 455.68 266.81 455.76 266.85 455.77 266.85 455.81 266.89 455.9 267.02 455.95 267.04 456 267.05 456.05 267.05 456.42 266.93 456.48 266.92 456.5 266.92 456.52 266.92 456.54 266.93 456.56 266.92 456.58 266.89 456.59 266.86 456.61 266.83 456.64 266.82 456.83 266.84 456.86 266.84 456.9 266.87 456.92 266.88 456.95 266.87 456.96 266.86 456.98 266.85 457.01 266.83 457.03 266.82 457.11 266.81 457.19 266.76 457.21 266.75 457.26 266.77 457.33 266.84 457.37 266.86 457.4 266.85 457.46 266.82 457.49 266.82 457.52 266.83 457.54 266.82 457.59 266.8 457.65 266.76 457.68 266.75 457.87 266.7 457.89 266.71 457.9 266.7 457.93 266.66 457.96 266.58 457.99 266.51 458 266.49 458.01 266.49 458.02 266.48 458.03 266.46 458.02 266.44 457.99 266.41 457.98 266.4 457.96 266.34 457.96 266.32 457.99 266.3 457.99 266.26 458 266.23 458 266.19 457.98 266.15 457.97 266.14 457.94 266.13 457.92 266.12 457.92 266.1 457.92 266.06 457.92 266.04 457.9 265.96 457.89 265.94 457.87 265.91 457.84 265.9 457.81 265.89 457.78 265.88 457.77 265.86 457.76 265.84 457.74 265.81 457.74 265.76 457.74 265.72 457.75 265.68 457.77 265.67 457.78 265.66 457.8 265.66 457.81 265.66 457.87 265.61 457.93 265.59 458.05 265.59 458.1 265.54 458.13 265.54 458.15 265.55 458.21 265.62 458.24 265.65 458.29 265.66 458.37 265.65 Z" fill-rule="evenodd" id="Greece" transform="translate(-443.510009765625,-265.5400085449219) "/></svg>