<svg xmlns="http://www.w3.org/2000/svg" viewBox="0 0 798 1047"><path d="M 591.06 244.04 597.85 251.96 595.21 261.38 585.97 257.61 581.07 251.39 587.48 242.91 591.06 244.04 Z M 608.97 228.95 613.12 235.18 617.27 231.4 618.4 242.53 604.26 242.53 607.28 239.32 607.84 226.69 608.97 228.95 Z M 623.68 201.61 627.82 203.69 623.68 211.04 618.4 208.4 619.91 205.2 617.83 203.69 614.25 204.82 623.68 201.61 Z M 607.28 198.41 606.9 202.75 603.13 200.48 604.64 195.39 607.28 198.41 Z M 586.35 97.91 584.28 104.14 579.56 104.14 580.7 99.04 586.35 97.91 Z M 688.53 20.99 687.4 24.57 694.37 29.85 701.16 27.77 704.74 30.41 700.59 37.2 702.1 57.56 720.39 73.78 718.88 77.55 714.73 78.12 710.58 89.62 711.53 97.91 715.3 100.55 703.8 102.06 696.45 116.2 697.39 139.77 701.16 143.54 702.1 153.91 689.09 155.99 684.76 160.32 677.97 154.48 667.04 160.32 661.38 158.63 659.12 153.91 654.41 153.91 637.25 162.4 625.75 178.61 606.33 172.2 592.76 172.77 577.49 184.83 578.62 195.39 570.7 197.47 573.91 192.75 571.83 188.6 575.42 185.4 573.91 175.41 586.35 163.34 597.85 163.34 601.06 157.12 595.21 142.98 584.84 146.56 582.2 144.48 588.05 140.34 580.13 143.54 572.21 136.19 575.42 127.7 571.27 122.99 574.85 120.92 574.29 116.77 577.49 116.2 576.92 124.69 583.33 127.7 602.56 128.83 611.61 122.61 611.99 114.69 630.46 115.64 644.6 109.98 645.55 105.83 654.03 101.12 656.1 94.33 654.41 81.7 663.46 74.34 666.09 67.56 662.89 59.07 663.83 43.99 668.55 41.35 668.55 35.69 681.18 30.41 685.89 18.35 688.53 20.99 Z M 758.09 58.13 758.09 64.92 756.02 66.05 752.44 60.77 753.38 57 758.09 58.13 Z M 791.65 26.08 799 37.77 798.43 50.78 789.57 55.49 785.43 52.85 780.15 53.98 776 46.06 769.78 43.42 767.52 39.28 771.85 39.28 782.22 26.64 791.65 26.08 Z M 787.5 1 793.72 2.51 796.93 13.07 782.22 7.41 780.71 1.57 787.5 1 Z M 375.4 692.59 376.91 700.32 371.25 703.9 362.77 763.67 366.54 780.26 375.4 779.89 375.96 782.9 373.32 789.31 365.97 782.9 357.49 786.67 343.92 784.03 335.06 796.1 330.34 807.04 329.78 818.16 339.2 826.46 334.49 830.61 332.42 840.03 339.77 849.46 341.84 857.38 339.2 860.4 349.19 874.16 345.42 874.16 343.92 878.87 337.69 874.16 330.91 876.8 329.78 895.65 335.62 898.11 332.42 899.24 332.98 902.44 327.7 901.88 328.27 906.59 320.35 901.88 319.41 907.16 324.12 914.51 317.71 913.38 310.92 916.96 320.35 926.58 310.92 924.88 310.36 931.1 314.13 934.31 307.91 936.38 307.34 943.17 302.06 940.72 295.28 944.86 290 940.72 288.49 946.94 283.78 945.81 284.72 949.01 292.64 949.01 294.71 953.73 292.07 958.44 287.93 957.31 283.21 961.08 278.5 957.87 275.86 959.38 281.14 969.38 270.2 968.43 267.94 971.45 261.16 967.3 263.23 978.8 257.01 977.86 255.5 981.44 248.71 977.29 247.58 973.15 244 973.52 241.74 980.5 244.38 979.37 246.07 983.52 240.8 983.52 237.59 988.8 239.29 993.51 236.08 990.3 232.88 975.79 229.86 975.79 228.17 982.57 221.38 984.08 225.15 998.22 216.1 988.8 211.01 989.93 205.73 986.72 201.96 992.38 197.81 992.57 192.54 987.85 187.82 989.93 178.02 987.85 182.17 996.72 190.08 995.02 193.67 999.35 196.87 998.79 195.17 1006.14 190.46 1007.09 188.95 1001.43 179.53 1000.86 175.38 997.66 173.31 987.85 162.75 975.41 171.61 988.42 165.95 990.87 176.32 1007.65 182.17 1010.29 179.53 1015.95 183.67 1020.28 178.02 1021.23 177.45 1030.65 171.23 1030.09 171.23 1020.28 168.03 1018.21 171.23 1013.5 166.9 1011.23 161.24 996.72 155.4 995.02 150.68 997.66 150.68 994.08 146.54 990.87 145.03 994.64 147.48 1000.3 150.68 998.22 157.09 999.73 160.11 1010.29 156.53 1011.23 157.66 1018.59 154.83 1019.72 147.48 1010.29 144.46 1015 140.69 1013.5 138.62 1010.29 140.32 1003.5 135.6 1000.86 132.96 1004.45 122.97 995.02 117.13 994.08 121.46 1002.37 109.78 1013.87 109.4 1020.28 102.05 1025 102.99 1009.16 100.92 1007.65 98.28 1010.86 94.69 1006.52 93.56 1018.21 95.64 1020.28 92.62 1023.3 96.2 1036.5 88.47 1039.7 88.85 1035.37 84.14 1033.86 84.7 1038.57 77.92 1042.72 74.33 1041.21 82.63 1015.95 73.2 1015 72.64 1006.14 67.92 1010.29 69.62 1025.37 66.42 1031.78 62.83 1030.65 65.28 1023.87 61.7 1016.51 59.06 1017.08 60.57 1025.37 56.99 1027.07 56.99 1020.66 53.79 1025.94 50.2 1023.3 48.13 1013.5 43.79 1015.57 39.65 1012.36 33.43 1012.93 32.86 1022.36 26.07 1021.79 26.07 1018.21 20.42 1014.44 14.01 1015.95 14.57 1012.36 6.09 1015.95 4.02 1012.93 1 1014.44 1 1010.29 7.22 1005.01 31.92 997.66 49.07 982.95 54.35 983.52 56.42 978.24 50.77 973.52 66.98 977.29 88.85 963.15 91.11 956.93 87.34 953.73 89.42 942.23 92.62 934.87 99.41 931.1 95.64 925.44 91.11 929.59 87.34 929.03 89.98 909.23 88.85 903.38 83.76 898.67 88.85 893.01 93.56 878.87 73.2 860.4 77.92 858.32 75.84 850.97 87.34 845.88 86.78 839.09 91.11 838.52 93.19 834.38 93.19 820.24 99.41 812.88 102.99 809.68 103.75 809.74 100.54 807.04 98.84 796.1 92.05 791.95 96.2 786.67 96.2 780.26 99.97 777.81 98.84 773.1 109.4 761.03 112.04 745.76 117.69 744.25 126.55 733.32 132.4 715.97 131.83 704.84 141.26 697.68 145.97 681.09 145.97 672.98 155.96 667.32 158.04 660.35 164.82 654.69 184.24 647.34 196.31 630.56 196.87 624.34 208.37 620.56 214.03 608.12 228.17 603.78 238.16 593.98 258.52 582.86 260.78 576.63 263.8 577.58 265.87 575.12 270.2 578.14 277.93 575.12 290 588.13 299.99 593.98 303.57 590.77 314.13 593.98 333.92 584.55 351.83 584.55 357.49 589.64 364.84 590.77 364.46 594.92 370.12 593.98 371.63 600.2 366.54 603.78 361.82 622.26 363.9 631.12 370.12 636.78 370.12 651.49 372.19 655.26 377.47 656.2 372.76 668.83 375.4 692.59 Z M 30.79 1039.7 31.92 1044.79 26.07 1048 26.07 1041.78 30.79 1039.7 Z M 146.54 1019.15 143.9 1025.37 150.68 1030.65 149.74 1039.14 141.26 1034.42 138.62 1027.64 140.69 1019.72 146.54 1019.15 Z M 125.05 1010.86 123.54 1016.51 127.12 1019.15 122.41 1025.94 112.98 1021.79 112.6 1018.21 117.69 1016.51 120.33 1010.29 125.05 1010.86 Z M 406.32 596.05 409.9 598.69 408.95 603.78 404.62 599.07 404.24 594.92 406.32 596.05 Z M 390.48 584.93 395.19 586.06 390.1 590.77 386.33 583.99 388.41 578.71 390.48 584.93 Z M 372.76 582.48 372.19 588.13 368.05 588.7 366.54 582.86 370.12 579.27 372.76 582.48 Z M 477.95 624.71 478.52 627.35 473.24 632.07 475.31 629.43 472.67 626.41 477.95 624.71 Z M 431.95 471.42 434.59 476.14 430.45 479.15 434.03 481.23 427.81 483.87 427.24 480.85 421.96 480.29 423.47 485.94 420.83 486.51 420.83 490.28 406.32 482.36 407.26 471.8 414.61 473.88 424.6 468.22 429.88 468.22 431.95 471.42 Z M 487.38 419.95 483.8 424.66 479.65 423.16 484.36 419.01 487.38 419.95 Z M 470.22 413.16 472.86 416.37 471.73 422.02 477.01 424.29 474.37 430.51 470.6 426.36 462.87 426.74 465.89 413.16 470.22 413.16 Z M 409.9 416.93 413.1 425.23 421.4 424.66 420.83 418.44 424.04 417.88 427.24 424.29 423.09 431.08 415.18 431.64 416.31 437.86 425.17 441.45 421.96 446.72 424.6 452.57 419.32 455.02 418.76 449.93 415.18 454.08 412.54 466.71 408.95 467.65 399.91 457.66 391.05 456.72 388.97 452.57 404.24 436.73 406.88 425.8 402.55 419.57 409.9 416.93 Z M 415.18 394.31 418.38 395.44 418.38 400.72 415.18 405.43 411.03 405.81 407.82 401.1 411.03 400.15 411.03 394.87 415.18 394.31 Z" fill-rule="evenodd" transform="translate(-1,-1) "/></svg>