<svg xmlns="http://www.w3.org/2000/svg" viewBox="0 0 798 673"><path d="M 198.23 666.81 199.61 669.57 203.46 670.46 199.42 671.74 196.07 667.99 196.85 665.73 198.23 666.81 Z M 173.9 636.48 173.9 638.45 184.34 639.24 185.72 641.7 183.75 643.57 183.75 646.62 191.73 647.71 194.19 650.17 190.35 654.5 189.27 654.5 188.38 650.46 186.81 651.25 186.51 654.3 182.67 658.34 181.58 662.18 174.98 666.02 158.04 658.64 162.18 648.79 161.59 644.46 164.64 645.24 170.35 640.32 171.73 635.4 173.6 635.1 173.9 636.48 Z M 209.76 628.31 213.6 628.8 213.6 627.42 216.07 627.42 217.45 630.18 214.39 634.61 212.81 634.61 211.93 632.64 206.21 629.88 207.89 626.93 209.76 628.31 Z M 194.19 526.28 188.68 529.83 188.38 531.5 190.65 533.37 190.06 536.43 184.05 537.51 181.88 536.13 179.12 538.3 179.42 541.25 176.36 540.76 174.2 542.63 168.48 539.68 164.64 541.55 159.42 538.59 156.95 541.55 153.9 542.14 150.65 548.15 147.4 545.98 146.81 543.22 139.12 546.18 136.46 549.52 136.17 552.48 128.78 557.4 120.31 557.99 112.33 561.24 108.48 560.75 106.02 558.58 101.98 559.86 102.18 555.83 99.72 553.36 101.09 546.77 100.6 539.09 97.25 529.24 95.97 529.53 90.45 523.53 84.74 521.06 75.68 511.81 74.3 507.97 67.99 503.53 63.66 498.12 61.19 478.62 55.97 472.42 55.38 468.57 53.81 468.77 48.58 461.19 45.33 459.81 39.52 447.2 41.79 437.65 40.9 429.38 42.57 427.8 42.57 424.75 41.2 424.75 40.6 422.59 43.36 419.34 39.03 420.12 37.06 418.25 36.86 416.28 39.23 413.53 36.27 411.95 38.14 409.19 37.65 407.52 35.68 407.81 35.48 405.65 37.65 404.27 37.35 400.43 35.97 399.64 37.06 397.67 35.68 393.34 36.27 383.19 39.82 382.11 40.41 379.94 38.44 374.13 34.89 371.18 29.96 370.29 34.89 362.42 34.89 344.3 33.02 341.05 34.4 338.29 32.13 336.42 27.5 336.91 26.12 333.66 27.21 333.17 26.71 324.6 28.09 322.53 22.87 316.43 23.95 314.75 23.17 311.01 24.74 310.62 25.04 306.87 27.5 304.12 28.29 297.32 25.63 293.18 25.83 287.18 23.95 283.04 18.24 276.54 15.19 275.46 13.81 271.82 8.88 268.57 7.8 260.39 4.55 254.38 5.33 248.08 3.66 245.62 4.74 243.65 2.08 243.16 1 239.81 6.12 237.15 8.09 234.39 6.71 229.76 8.88 226.71 7.5 218.24 8.88 209.48 16.27 207.02 15.48 203.96 9.18 200.71 9.47 197.96 22.28 190.37 23.36 184.27 20.9 180.53 24.25 175.6 28.29 174.72 32.72 170.87 31.84 167.92 34.59 163 36.27 164.08 42.57 162.41 43.95 160.24 50.26 157.48 56.56 159.94 57.06 158.56 59.52 159.45 61.49 158.37 61.19 156.99 63.66 156.4 63.66 151.77 66.61 151.47 71.34 153.15 71.05 155.02 77.84 157.19 80.6 155.91 82.47 158.56 85.53 158.86 85.23 161.32 88.29 163.29 87.99 165.75 90.45 165.46 92.33 168.41 94.59 168.22 92.13 170.87 93.71 173.93 101.39 176.88 104.64 176.09 108.29 178.56 109.07 177.18 112.33 178.85 115.68 178.26 118.34 182.1 123.06 184.07 124.35 187.91 127.4 187.32 127.4 183.78 129.27 182.99 132.92 187.32 135.87 188.11 137.55 192.24 139.12 190.37 140.8 192.24 144.34 191.46 144.34 194.71 145.72 192.24 152.82 193.62 158.83 191.46 159.12 192.84 167.89 196.87 164.05 199.63 165.13 203.47 170.65 202.88 175.57 208.39 179.91 208.1 184.05 211.35 198.83 208.1 206.21 208.99 205.92 213.32 197.45 218.74 196.07 227.01 193.31 229.76 187.3 229.17 190.85 225.63 190.06 221.3 187.89 220.11 188.97 225.92 182.08 229.96 182.08 233.8 183.75 235.97 196.85 233.01 197.15 236.26 193.31 241.48 193.31 243.16 195.77 244.73 201.29 243.45 202.96 239.81 205.62 239.02 208.38 229.96 211.14 230.55 209.17 234.69 211.14 237.94 210.55 239.81 207.59 240.7 208.09 243.95 210.06 245.92 214.98 245.92 217.45 245.62 223.95 240.7 223.45 237.64 228.68 233.8 227.79 229.96 226.51 229.96 227.59 228.09 230.06 228.58 232.22 227.01 232.52 231.04 237.44 230.85 238.53 227.5 243.65 225.63 245.92 228.88 247 227.3 245.92 226.22 248.87 225.33 253.31 228.88 250.55 224.55 254.39 222.58 256.56 223.95 258.72 219.33 262.07 219.33 261.78 215.78 259.61 213.61 260.1 210.07 263.35 208.1 262.27 209.77 262.86 211.64 263.95 209.48 265.92 209.48 271.93 199.93 272.71 196.58 270.74 194.21 273.5 190.08 271.33 181.61 278.13 175.8 276.85 173.34 280.4 173.63 283.65 167.13 285.82 169.5 297.05 169.79 298.43 171.17 299.22 167.13 300.89 167.92 301.19 167.33 297.05 164.87 296.56 163 299.51 163.49 299.02 162.41 301.68 161.62 312.61 159.65 306.6 158.37 309.95 155.02 307.98 153.94 309.07 151.47 304.73 149.31 309.07 146.55 310.45 143.3 308.87 141.33 310.45 138.08 308.87 133.16 300.4 124.69 297.64 128.82 294.09 124.39 280.69 119.17 280.1 115.43 278.13 113.46 276.85 103.32 273.31 99.28 272.42 92.98 273.5 90.52 272.42 86.97 269.17 83.62 269.46 77.91 268.58 76.83 265.62 77.62 265.03 76.24 269.17 70.82 271.33 60.38 275.18 55.16 283.65 51.13 287.49 43.94 293.8 43.74 299.22 41.28 302.57 30.84 307.79 30.35 309.07 28.08 311.33 28.67 312.61 25.62 319.51 23.75 323.35 18.53 325.52 18.04 327.98 10.06 329.66 10.65 332.12 5.43 334.58 5.92 335.08 3.76 338.92 5.14 341.68 1 339.71 8.98 344.63 10.36 342.47 13.11 343.35 15.57 346.01 14.2 347.98 16.07 352.02 14.98 353.4 18.04 358.92 14.98 362.17 15.57 363.55 26.21 366.31 24.34 369.85 27.59 372.32 27.88 372.91 31.72 377.83 32.51 377.54 34.68 380.79 39.11 386.5 40.39 387.69 43.74 389.06 42.85 390.94 45.61 393.4 45.31 395.07 47.58 394.78 54.67 396.65 54.67 398.03 60.68 397.24 63.73 399.11 63.73 398.03 66.98 399.41 68.85 401.08 67.77 401.87 71.9 403.55 71.9 407.09 92.39 406.5 96.82 403.25 98.39 404.63 100.36 403.25 106.57 399.7 108.24 401.08 117.01 399.11 118.68 400.2 121.44 399.11 129.02 402.46 132.07 402.66 139.16 406.5 143.01 406.5 145.17 409.85 147.44 416.95 159.94 419.9 161.62 425.71 169.3 429.56 172.25 436.65 173.93 436.35 178.06 438.52 175.31 442.66 175.6 451.43 179.64 458.03 177.18 462.36 183.78 465.42 179.64 474.38 179.34 486.4 182.99 492.51 181.02 497.14 183.78 500.09 187.91 505.91 184.86 507.29 188.99 509.16 188.4 509.65 190.37 513.49 191.95 517.34 191.16 522.06 195.79 526.4 196.68 528.07 200.22 530.73 198.55 535.96 201.5 536.55 208.1 538.71 207.02 543.05 208.1 546.89 215.19 546.1 217.65 547.97 217.65 551.32 221.3 557.83 235.77 560.09 236.26 564.13 242.27 570.14 245.62 582.46 248.57 586 253.01 594.77 257.04 601.08 257.93 603.54 256.55 603.83 254.38 607.38 258.13 613.69 257.04 616.94 258.72 620.48 263.35 624.62 264.23 626 262.56 625.71 265.51 628.46 265.02 630.43 265.51 624.92 270.53 622.45 266.69 619.4 267.19 610.44 261.97 597.83 263.05 580.88 258.42 572.6 259.51 563.84 258.42 561.96 256.85 549.65 256.85 547.78 255.47 533.79 261.97 522.56 261.47 520.88 263.64 519.31 263.05 518.22 265.51 513.49 265.81 509.45 268.57 502.26 267.78 486.99 271.82 481.47 270.24 480.39 267.78 479.01 267.78 480.19 270.73 478.81 271.32 476.84 269.65 475.76 271.03 465.42 269.65 465.42 272.11 460.98 271.82 450.34 276.74 444.04 276.25 433.59 279.5 432.22 283.93 424.33 289.64 414.78 287.47 411.23 289.94 410.64 294.27 406.21 291.51 400 294.86 400.2 296.43 396.45 299.78 389.06 300.87 387.69 299.49 385.42 302.24 383.84 301.36 383.55 303.33 381.38 301.95 380.79 303.82 379.11 303.33 378.92 301.16 367.09 302.24 363.25 304.41 362.46 308.55 353.7 311.21 350.45 311.21 348.77 309.34 340.89 314.75 338.13 312.09 335.37 313.18 331.53 310.12 325.52 309.83 320.59 306.58 299.51 305 298.43 304.41 298.72 297.32 295.67 295.15 288.08 296.24 285.52 298.9 278.72 294.56 276.85 295.65 273.8 290.43 275.18 288.85 276.56 290.72 276.85 288.85 273.5 286.39 274.39 284.12 271.93 281.17 272.71 277.33 269.17 277.63 267 274.08 267.49 272.11 265.33 271.82 263.95 266.69 256.56 259.8 254.39 261.77 258.72 269.94 257.15 273.49 257.94 277.92 262.86 277.33 265.33 279.5 261.19 283.93 262.07 287.97 256.85 287.77 260.69 290.72 257.94 289.34 253.6 289.94 252.22 287.47 254.09 286.59 253.6 283.93 250.55 282.55 252.22 280.88 251.63 279.2 247.79 276.25 245.03 277.63 244.83 280.58 241.29 278.71 240.1 275.95 235.18 275.66 232.52 277.63 228.38 274.28 225.92 275.16 223.45 278.41 222.08 286.09 218.82 292.4 219.12 295.35 221.78 296.24 220.2 303.33 224.54 307.17 219.32 312.88 217.45 318.59 219.12 325.49 221.78 327.95 221.48 330.71 226.51 330.9 227.59 332.28 228.38 337.5 223.95 339.47 222.86 343.8 223.45 348.43 225.62 349.81 226.21 355.52 231.43 356.7 233.01 359.36 231.63 361.04 231.93 365.37 229.76 366.75 233.31 372.56 240.1 375.51 243.45 375.22 247 379.35 244.24 383.98 238.23 387.82 237.15 394.13 239.32 400.13 245.33 402.89 243.95 405.94 246.71 408.11 246.41 413.53 248.58 415.49 247.3 423.37 247.3 429.68 248.58 430.76 246.71 437.36 247.3 448.58 252.22 454.59 249.96 455.18 250.55 458.73 243.65 466.11 243.45 475.07 238.53 479.51 238.82 483.05 227.59 490.14 225.33 494.47 219.91 496.74 219.61 499.4 217.45 499.2 216.56 501.86 211.14 504.13 209.76 507.38 205.92 508.16 204.54 512.59 200.7 514.47 200.99 516.14 196.07 516.63 193.9 520.28 194.19 526.28 Z M 23.17 341.34 22.87 344.89 18.44 343.51 20.7 340.55 23.17 341.34 Z M 539.31 635.99 534.87 638.45 523.64 639.53 520.69 636.18 515.17 635.99 511.33 633.23 500.69 631.26 496.25 627.42 486.99 626.34 485.32 622.79 480.19 618.75 477.44 611.07 472.21 606.64 474.97 603.39 474.97 600.34 470.24 588.62 466.7 566.17 480.98 557.7 484.23 554.15 485.91 542.93 485.12 531.7 495.46 529.53 497.63 525.4 497.34 520.28 499.6 520.77 499.31 519.68 502.26 519.09 505.91 510.62 512.21 506 512.71 504.13 521.77 504.42 525.02 503.24 527.19 499.99 528.07 503.24 529.65 501.86 529.95 503.83 536.25 504.91 541.97 507.97 550.73 515.35 552.9 514.47 554.08 516.44 555.66 514.27 555.66 517.22 560.88 516.63 560.09 520.77 563.34 519.09 563.64 521.56 570.14 522.44 569.94 525.4 572.6 526.78 571.03 530.91 573.49 530.62 572.11 533.87 573.2 536.62 575.36 537.71 575.66 539.97 579.8 539.38 577.83 542.93 583.64 545.09 584.92 550.31 593.19 553.07 601.96 561.83 605.71 575.72 607.09 576.61 605.21 580.45 606 584.48 604.13 591.87 597.83 605.85 584.92 611.07 581.37 617.08 560.88 631.56 553.79 634.02 539.31 635.99 Z M 690.83 338.29 693.88 338.88 693.88 340.75 681.57 343.8 671.71 341.64 670.33 339.47 672.01 337.2 674.47 338.29 682.35 337.5 682.65 338.88 688.95 336.12 690.83 336.71 690.83 338.29 Z M 217.94 664.35 224.24 670.16 222.08 674 209.17 669.57 216.36 662.77 217.94 664.35 Z M 236.56 623.38 237.64 623.09 236.56 624.96 237.64 626.63 239.02 626.14 239.32 628.01 236.26 633.53 238.82 634.81 241.48 630.18 241.29 634.61 236.26 638.45 230.55 640.03 228.68 646.92 231.63 648.3 229.46 650.96 227.3 650.46 227.79 648.79 221.29 649.38 219.91 647.12 215.28 653.42 207.59 651.55 205.13 648.3 201.29 649.68 202.67 645.84 207.3 645.84 208.68 640.32 210.55 642.29 215.77 642.29 217.74 640.03 219.91 641.7 223.45 638.15 222.08 636.48 222.08 631.26 225.13 626.34 227.59 625.25 228.38 630.18 230.25 632.34 233.6 622.3 236.56 623.38 Z M 265.92 293.97 266.41 295.94 271.04 295.65 272.71 298.11 263.16 297.32 263.65 292.1 265.92 293.97 Z M 697.72 331.79 696.05 332.08 695.26 334.74 686.49 334.25 687.08 332.58 694.37 331.2 694.96 329.52 696.93 329.33 697.72 331.79 Z M 791.81 165.16 791.61 166.84 794.86 168.22 793.48 169.59 795.45 170.87 794.27 173.14 796.24 172.84 796.54 175.31 798.11 174.42 796.73 176.39 799 178.26 798.11 180.72 796.24 180.53 794.57 182.99 792.4 182.1 790.43 185.15 789.35 184.07 786.69 185.15 786.39 183.48 785.8 183.48 785.6 186.73 780.08 185.65 771.91 189.49 763.93 194.71 752.4 205.34 734.37 210.07 730.04 209.77 727.77 211.35 725.11 210.27 723.73 213.32 720.68 212.73 719.3 214.11 719.59 216.08 710.04 216.86 706.98 218.24 705.11 222.87 702.94 222.38 701.76 217.95 704.03 212.73 702.06 209.77 706.98 206.23 710.04 199.93 713.88 201.01 722.65 199.93 722.35 195.79 723.73 196.28 723.73 194.21 726.19 192.24 728.07 191.95 729.74 194.21 735.46 192.54 736.54 190.37 739.89 190.87 743.14 185.94 748.85 184.86 750.82 180.72 753.58 181.51 757.13 178.26 763.93 175.6 764.22 173.93 768.56 176.09 768.36 172.84 770.73 173.34 772.1 170.68 775.45 169 779.49 169.79 782.55 164.38 784.71 165.46 788.26 163 792.1 163 791.81 165.16 Z M 220.7 159.94 228.38 163 227.79 167.62 224.83 169 216.36 166.84 213.9 171.17 211.44 171.76 210.55 170.38 216.07 163.78 216.07 160.24 217.45 158.86 220.7 159.94 Z M 30.26 143.6 33.81 145.17 33.02 150.1 28.59 147.63 28.29 142.71 30.26 143.6 Z M 158.63 176.39 158.83 177.47 155.87 176.68 157.25 175.6 158.63 176.39 Z M 135.28 167.92 136.66 169.3 134.2 170.87 130.95 170.09 132.03 167.62 135.28 167.92 Z M 125.53 165.95 128.48 166.54 128.78 167.33 126.81 168.22 123.26 166.54 123.85 164.67 125.53 165.95 Z M 282.27 163.49 283.35 164.67 281.48 165.46 276.26 162.7 281.48 161.91 282.27 163.49 Z" fill-rule="evenodd" transform="translate(-1,-1) "/></svg>