<svg xmlns="http://www.w3.org/2000/svg" viewBox="0 0 798 987"><path d="M 64.11 988 68.11 983.76 94.95 972.46 94.95 977.17 76.59 986.82 64.11 988 Z M 236.94 951.73 224.93 960.21 205.39 961.39 167 950.08 160.41 940.19 154.76 945.14 140.63 942.08 134.04 935.72 130.98 925.36 110.49 912.4 104.13 903.22 107.67 887.91 102.72 870.01 96.13 867.42 92.83 852.11 106.25 838.93 96.36 838.22 92.36 833.74 94.48 821.5 87.65 819.38 81.77 806.43 84.12 801.01 90.71 801.24 93.07 797.01 78 789 76.59 780.28 80.35 769.22 74.47 767.33 62.69 747.31 33.26 736.48 50.21 733.65 60.57 718.35 81.53 662.53 78.94 652.88 90.01 633.33 84.83 629.8 90.71 630.74 101.31 620.61 107.43 597.77 96.13 571.86 82.94 564.33 67.17 568.57 70.23 558.44 60.1 557.97 52.57 551.37 48.09 528.29 15.6 511.57 6.42 501.92 1 487.08 11.13 484.02 53.27 500.74 63.4 496.5 67.64 498.86 92.83 495.56 111.67 501.21 112.38 508.04 107.2 512.05 107.2 539.13 117.32 554.67 122.27 556.08 124.15 545.25 136.63 530.41 136.63 521.23 129.09 510.4 116.14 512.05 116.14 500.51 126.27 490.38 140.63 496.97 148.4 494.85 151.93 485.9 150.52 468.95 137.34 466.36 128.39 474.13 117.79 466.83 116.61 477.19 112.61 474.6 113.79 464.71 119.44 461.88 151.7 463.3 149.11 461.41 151.23 453.88 156.64 455.52 159.23 451.99 150.05 450.81 140.16 458.11 114.26 458.59 111.67 454.35 101.78 460.71 105.78 454.58 103.43 449.64 97.31 452.93 92.6 449.4 72.82 452.23 67.64 449.17 49.74 449.64 24.08 464.94 17.48 473.42 14.19 471.54 17.48 466.12 44.33 447.28 107.2 443.98 135.92 450.58 145.11 443.98 167.24 438.33 170.3 439.27 163 444.93 171.95 448.69 204.44 434.56 210.57 420.2 232.94 426.79 249.42 416.19 260.01 415.02 262.6 409.84 269.2 413.84 288.04 412.43 296.51 416.43 310.64 415.49 319.59 408.19 330.18 415.25 355.14 409.37 370.68 385.81 368.57 379.22 361.27 378.28 356.09 370.98 362.91 353.55 368.8 348.37 387.64 343.19 403.18 353.55 419.43 350.25 428.61 345.07 441.09 326 443.44 316.81 436.62 313.51 435.91 288.32 432.85 282.19 452.86 254.4 457.1 240.74 454.04 235.33 470.05 225.67 481.12 198.82 501.84 180.69 503.72 165.38 514.32 149.37 517.15 136.89 511.96 110.04 513.38 71.18 534.81 48.57 555.76 11.36 569.89 1 587.08 3.36 618.87 24.79 642.41 57.29 663.37 77.3 680.32 114.28 728.12 128.41 740.13 125.35 758.5 128.64 793.11 127.7 799 131.23 796.41 142.3 789.35 151.96 778.04 190.11 759.68 206.12 755.67 217.19 757.56 244.98 741.55 272.54 739.9 285.02 727.18 313.75 719.88 319.64 670.91 334 654.66 348.37 646.65 349.31 643.59 356.38 645.71 370.74 633.23 383.46 610.63 389.11 596.97 396.88 553.41 447.99 526.33 460.47 509.37 477.19 508.43 485.2 490.54 500.74 472.41 502.62 452.86 520.52 447.45 535.83 436.14 538.19 423.43 533.24 412.6 541.48 398.47 541.72 392.82 546.9 392.11 556.79 403.89 569.74 391.88 577.04 383.4 603.19 374.45 611.66 362.91 613.55 373.98 629.56 364.33 667.48 358.68 674.07 364.8 691.97 362.68 735.54 365.74 739.54 360.32 746.61 348.31 743.31 342.43 746.61 356.32 749.67 354.2 755.09 361.5 753.44 365.74 770.86 366.45 788.76 362.91 796.77 365.27 827.15 360.09 843.87 344.08 857.29 345.49 869.54 341.96 875.43 331.83 875.66 333.48 886.03 321.47 894.27 307.58 885.32 306.64 889.79 314.64 895.45 314.64 899.45 284.97 911.93 298.63 916.17 291.57 922.77 284.27 923.24 283.56 930.3 270.85 947.26 258.84 954.56 258.13 961.39 254.13 958.09 248.24 963.04 236.94 951.73 Z" fill-rule="evenodd" transform="translate(-1,-1) "/></svg>