<svg xmlns="http://www.w3.org/2000/svg" viewBox="0 0 8.919998168945312 9.350006103515625"><path d="M 202.36 327.09 202.37 327.59 202.38 328.23 202.39 328.89 202.35 329.48 202.31 330.13 202.29 330.37 202.25 330.84 202.2 331.37 202.19 331.48 202.19 331.51 202.21 331.54 202.22 331.53 202.24 331.52 202.26 331.51 202.28 331.51 202.32 331.49 202.49 331.5 202.56 331.49 202.63 331.49 202.82 331.54 202.91 331.51 202.94 331.52 203.01 331.59 203.09 331.57 203.19 331.59 203.26 331.63 203.27 331.68 203.32 331.69 203.55 331.83 203.52 331.93 203.52 331.95 203.58 331.95 203.61 331.94 203.61 331.92 203.61 331.9 203.61 331.9 203.61 331.89 203.6 331.88 203.59 331.87 203.59 331.85 203.6 331.85 203.62 331.85 203.64 331.85 203.65 331.83 203.66 331.79 203.68 331.77 203.7 331.75 203.71 331.73 203.72 331.69 203.7 331.64 203.7 331.6 203.71 331.6 203.71 331.63 203.71 331.63 203.73 331.63 203.75 331.62 203.82 331.63 203.85 331.62 203.8 331.57 203.77 331.55 203.73 331.53 203.71 331.51 203.7 331.48 203.68 331.46 203.59 331.41 203.56 331.37 203.59 331.34 203.63 331.36 203.69 331.38 203.71 331.4 203.78 331.47 203.82 331.49 203.94 331.59 204.17 331.7 204.24 331.76 204.27 331.78 204.37 331.86 204.44 331.89 204.44 331.89 204.42 331.9 204.41 331.92 204.41 331.95 204.4 331.98 204.38 331.96 204.35 331.98 204.31 332 204.28 332.01 204.23 332.01 204.22 332.03 204.15 332.14 204.05 332.24 203.9 332.36 203.83 332.42 203.83 332.42 203.63 332.57 203.44 332.72 203.25 332.87 203.06 333.01 202.78 333.23 202.7 333.27 202.47 333.34 202.41 333.38 202.39 333.39 202.36 333.41 202.33 333.46 202.3 333.56 202.34 333.6 202.34 333.66 202.31 333.73 202.3 333.75 202.28 333.78 202.22 333.83 202.2 333.85 202.2 333.9 202.21 333.93 202.23 333.96 202.28 334.01 202.3 334.05 202.34 334.15 202.36 334.18 202.38 334.2 202.39 334.21 202.4 334.22 202.4 334.25 202.39 334.27 202.37 334.3 202.36 334.31 202.37 334.43 202.37 334.47 202.36 334.5 202.34 334.53 202.31 334.53 202.25 334.51 202.23 334.51 202.19 334.51 202.17 334.52 202.16 334.54 202.14 334.57 202.07 334.63 202.04 334.66 202.02 334.7 202 334.72 201.95 334.73 201.93 334.75 201.91 334.78 201.91 334.81 201.92 334.88 201.85 334.84 201.85 334.84 201.84 334.86 201.83 334.81 201.81 334.82 201.76 334.87 201.73 334.88 201.7 334.87 201.68 334.86 201.64 334.85 201.62 334.87 201.6 334.87 201.55 334.94 201.52 334.96 201.51 334.92 201.49 334.89 201.45 334.89 201.42 334.91 201.41 334.95 201.42 334.97 201.43 335 201.44 335.02 201.43 335.05 201.4 335.06 201.39 335.08 201.4 335.11 201.45 335.12 201.47 335.13 201.48 335.14 201.48 335.15 201.5 335.17 201.5 335.18 201.5 335.22 201.51 335.23 201.52 335.24 201.55 335.25 201.55 335.26 201.55 335.3 201.54 335.31 201.3 335.37 201.24 335.4 201.19 335.44 201.14 335.49 201.05 335.65 201.04 335.67 201.04 335.69 201.06 335.72 201.06 335.73 201.06 335.74 201.03 335.76 200.99 335.74 200.94 335.7 200.9 335.69 200.86 335.69 200.77 335.73 200.74 335.74 200.69 335.79 200.48 335.94 200.45 335.97 200.43 336 200.42 336.03 200.4 336.07 200.37 336.09 200.31 336.12 200.28 336.15 200.26 336.18 200.25 336.22 200.25 336.25 200.25 336.29 200.29 336.44 200.28 336.43 199.96 336.3 199.61 336.15 199.39 336.06 199.21 336.02 199.09 336 198.93 335.99 198.76 336 198.74 336.01 198.48 336.03 198.19 336.02 197.92 335.99 197.58 335.93 197.06 335.7 196.87 335.59 196.59 335.42 196.27 335.18 195.96 334.9 195.52 334.58 195.57 334.58 195.61 334.53 195.65 334.4 195.7 334.31 195.71 334.27 195.71 334.23 195.67 334.12 195.67 334.1 195.67 334.07 195.67 334.05 195.65 333.99 195.64 333.97 195.64 333.93 195.65 333.9 195.7 333.85 195.72 333.78 195.72 333.64 195.72 333.56 195.75 333.53 195.78 333.53 195.81 333.52 195.84 333.51 195.86 333.48 195.9 333.38 195.62 333.01 195.6 332.97 195.6 332.93 195.61 332.89 195.65 332.82 195.76 332.63 195.83 332.51 195.91 332.37 196.09 332.07 196.26 331.77 196.42 331.5 196.53 331.32 196.57 331.25 196.62 331.16 196.64 331.13 196.68 331.11 196.78 331.11 197.09 331.11 197.39 331.11 197.7 331.11 198 331.11 198.29 331.11 198.31 331.11 198.61 331.11 198.92 331.11 199.22 331.1 199.42 331.1 199.47 331.1 199.51 331.08 199.51 331.08 199.51 331.08 199.52 331.07 199.53 331.04 199.54 331.02 199.52 331.03 199.52 331.03 199.51 331.03 199.51 331.04 199.49 331.04 199.48 331 199.54 330.95 199.51 330.93 199.51 330.91 199.56 330.89 199.54 330.87 199.48 330.83 199.47 330.79 199.48 330.76 199.51 330.74 199.54 330.72 199.51 330.71 199.49 330.7 199.48 330.67 199.51 330.64 199.52 330.65 199.52 330.66 199.55 330.66 199.54 330.65 199.53 330.62 199.52 330.61 199.53 330.61 199.53 330.61 199.53 330.6 199.54 330.6 199.55 330.61 199.57 330.61 199.58 330.61 199.58 330.58 199.57 330.59 199.54 330.58 199.51 330.56 199.53 330.55 199.57 330.54 199.6 330.51 199.62 330.47 199.6 330.44 199.58 330.44 199.58 330.46 199.57 330.46 199.57 330.42 199.59 330.41 199.62 330.41 199.66 330.42 199.63 330.38 199.63 330.37 199.63 330.34 199.62 330.31 199.61 330.3 199.59 330.31 199.57 330.31 199.55 330.31 199.54 330.3 199.52 330.29 199.45 330.28 199.44 330.27 199.44 330.25 199.43 330.22 199.42 330.21 199.4 330.19 199.37 330.19 199.32 330.21 199.31 330.19 199.29 330.14 199.27 330.14 199.22 330.16 199.2 330.16 199.19 330.16 199.16 330.15 199.12 330.15 199.1 330.16 199.11 330.14 199.13 330.12 199.14 330.1 199.14 330.08 199.12 330.06 199.08 330.06 199.06 330.05 199.08 330.02 199.07 329.98 199.09 329.94 199.1 329.91 199.07 329.89 199.06 329.9 199.05 329.91 199.04 329.92 199.02 329.92 199.02 329.91 199.05 329.85 199.02 329.77 198.87 329.55 198.84 329.53 198.76 329.49 198.73 329.46 198.73 329.43 198.73 329.42 198.7 329.4 198.68 329.42 198.66 329.42 198.5 329.37 198.46 329.35 198.4 329.28 198.35 329.26 198.39 329.22 198.38 329.2 198.35 329.2 198.31 329.2 198.31 329.21 198.32 329.23 198.32 329.25 198.3 329.26 198.29 329.25 198.26 329.22 198.25 329.21 198.16 329.18 198.14 329.16 198.13 329.11 198.11 329.09 198.03 328.99 198.03 328.97 198.01 328.93 198 328.91 197.98 328.91 197.93 328.91 197.9 328.91 197.83 328.82 197.8 328.79 197.8 328.76 197.78 328.72 197.77 328.71 197.75 328.7 197.71 328.68 197.7 328.67 197.7 328.63 197.68 328.59 197.66 328.55 197.64 328.53 197.58 328.53 197.52 328.54 197.47 328.53 197.46 328.48 197.42 328.46 197.35 328.45 197.3 328.42 197.31 328.39 197.33 328.38 198.3 328.39 198.3 327.75 198.3 327.12 198.32 327.1 198.37 327.09 198.46 327.09 198.95 327.09 199.44 327.09 199.92 327.09 200.41 327.09 200.9 327.09 201.39 327.09 201.87 327.09 202.36 327.09 Z" id="Guatemala" transform="translate(-195.52000427246094,-327.0899963378906) "/></svg>