<svg xmlns="http://www.w3.org/2000/svg" viewBox="0 0 16.44000244140625 12.260009765625"><path d="M 374.76 339.44 374.76 339.48 374.71 339.48 374.66 339.48 374.63 339.5 374.62 339.55 374.63 339.64 374.63 339.69 374.59 339.78 374.53 339.85 374.49 339.91 374.53 340 374.57 340.04 374.71 340.1 374.75 340.13 374.84 340.25 374.87 340.29 374.92 340.31 374.96 340.34 375.01 340.35 375.05 340.35 375.12 340.32 375.16 340.32 375.19 340.31 375.23 340.28 375.25 340.24 375.26 340.17 375.28 340.16 375.3 340.16 375.31 340.15 375.35 340.1 375.36 340.09 375.36 340.09 375.43 340.04 375.46 340.01 375.48 339.91 375.5 339.89 375.53 339.88 375.58 339.88 375.68 339.85 375.72 339.85 375.78 339.87 375.82 339.89 375.91 340.03 375.96 340.07 376.01 340.1 376.05 340.13 376.06 340.19 376.06 340.21 376.04 340.25 376.03 340.27 376.04 340.29 376.1 340.35 376.19 340.53 376.26 340.59 376.35 340.59 376.38 340.57 376.4 340.55 376.43 340.51 376.45 340.47 376.46 340.44 376.47 340.42 376.51 340.39 376.56 340.37 376.59 340.36 376.58 340.31 376.6 340.28 376.65 340.26 376.69 340.23 376.69 340.21 376.69 340.19 376.69 340.16 376.71 340.15 376.72 340.15 376.7 340.1 376.7 340.08 376.74 340.06 376.85 340.07 376.87 340.04 376.88 340.02 376.96 339.96 376.99 339.94 377 339.95 377.02 339.96 377.05 339.97 377.05 339.94 377.06 339.93 377.08 339.93 377.1 339.92 377.11 339.89 377.12 339.89 377.13 339.9 377.14 339.91 377.14 339.91 377.16 339.89 377.24 339.85 377.26 339.86 377.27 339.88 377.28 339.89 377.36 339.91 377.43 339.94 377.48 339.95 377.53 339.95 377.55 339.95 377.57 339.96 377.6 339.99 377.62 340 377.63 340 377.64 340.01 377.68 340.01 377.7 340.01 377.73 340.03 377.77 340.06 377.8 340.07 377.84 340.09 377.92 340.13 377.96 340.14 378 340.15 378.08 340.21 378.12 340.23 378.14 340.23 378.19 340.22 378.2 340.22 378.23 340.23 378.26 340.26 378.28 340.27 378.32 340.28 378.45 340.29 378.5 340.23 378.53 340.19 378.54 340.16 378.53 340.12 378.54 340.08 378.55 340.04 378.59 340.01 378.66 339.96 378.91 339.88 378.95 339.84 378.99 339.81 379.08 339.77 379.12 339.77 379.25 339.79 379.3 339.74 379.31 339.71 379.31 339.65 379.34 339.65 379.36 339.61 379.37 339.57 379.36 339.54 379.35 339.53 379.31 339.52 379.3 339.51 379.29 339.49 379.29 339.47 379.28 339.45 379.22 339.42 379.18 339.38 379.15 339.34 379.14 339.32 379.17 339.28 379.27 339.25 379.31 339.23 379.32 339.22 379.34 339.23 379.37 339.24 379.4 339.25 379.42 339.25 379.43 339.23 379.46 339.23 379.63 339.27 379.72 339.3 379.99 339.43 380.06 339.47 380.1 339.51 380.13 339.56 380.13 339.61 380.11 339.66 380.08 339.71 380.06 339.76 380.06 339.82 380.06 339.84 380.08 339.87 380.09 339.9 380.11 339.92 380.13 339.92 380.18 339.9 380.21 339.92 380.24 339.96 380.26 340.01 380.26 340.06 380.22 340.15 380.21 340.2 380.22 340.24 380.26 340.28 380.31 340.28 380.36 340.27 380.41 340.28 380.45 340.32 380.46 340.35 380.46 340.4 380.46 340.45 380.47 340.47 380.49 340.49 380.5 340.51 380.5 340.54 380.39 341.11 380.43 341.11 380.47 341.13 380.5 341.15 380.54 341.16 380.59 341.16 380.63 341.14 380.66 341.13 380.69 341.15 380.74 341.32 380.74 341.36 380.76 341.4 380.79 341.44 380.81 341.48 380.93 341.53 380.99 341.54 381.05 341.49 381.06 341.52 381.07 341.57 381.08 341.61 381.1 341.64 381.12 341.65 381.18 341.65 381.32 341.69 381.39 341.73 381.43 341.77 381.39 341.78 381.35 341.8 381.32 341.83 381.34 341.86 381.38 341.87 381.42 341.86 381.44 341.87 381.43 341.93 381.41 341.96 381.37 341.97 381.32 341.98 381.28 341.97 381.2 341.95 381.17 341.97 381.15 342.02 381.15 342.03 381.16 342.04 381.16 342.05 381.16 342.07 381.15 342.07 381.13 342.07 381.12 342.08 381.1 342.09 381.06 342.11 381.04 342.12 381.02 342.16 381 342.24 380.99 342.27 380.97 342.28 380.92 342.28 380.9 342.29 380.88 342.32 380.88 342.34 380.89 342.36 380.89 342.39 380.86 342.43 380.76 342.53 380.74 342.56 380.72 342.6 380.71 342.64 380.72 342.67 380.76 342.7 380.79 342.69 380.83 342.67 380.87 342.66 380.91 342.67 380.95 342.67 380.99 342.67 381.03 342.65 381.07 342.63 381.09 342.59 381.15 342.47 381.18 342.47 381.23 342.49 381.27 342.49 381.3 342.48 381.32 342.48 381.36 342.5 381.38 342.49 381.42 342.47 381.45 342.47 381.5 342.49 381.54 342.54 381.58 342.59 381.59 342.64 381.59 342.87 381.59 342.91 381.58 342.93 381.56 342.95 381.51 343.08 381.51 343.12 381.57 343.14 381.58 343.18 381.61 343.63 381.64 343.69 381.7 343.78 381.76 343.88 381.8 343.9 381.85 343.9 381.9 343.89 381.93 343.88 381.95 343.87 381.97 343.87 381.99 343.91 382 343.94 382 344 382.01 344.02 382.05 344.05 382.11 344.07 382.23 344.07 382.27 344.1 382.31 344.14 382.33 344.2 382.35 344.25 382.35 344.31 382.34 344.36 382.29 344.47 382.27 344.49 382.25 344.52 382.24 344.55 382.23 344.58 382.19 344.64 382.14 344.67 382.03 344.71 381.98 344.75 381.94 344.81 381.92 344.86 381.94 344.89 381.96 344.9 381.96 344.92 381.93 344.94 381.88 344.96 381.88 344.98 381.89 345 381.89 345.02 381.9 345.03 381.91 345.03 381.93 345.03 381.94 345.04 381.94 345.08 381.94 345.09 381.94 345.1 381.93 345.1 381.92 345.11 381.93 345.13 381.94 345.13 381.98 345.13 381.99 345.18 381.91 345.76 381.91 345.78 381.91 345.83 381.92 345.88 381.93 345.92 381.94 345.95 382.07 346.14 382.11 346.18 382.15 346.19 382.2 346.2 382.24 346.21 382.29 346.2 382.33 346.19 382.42 346.14 382.46 346.13 382.55 346.13 382.57 346.15 382.51 346.33 382.5 346.38 382.42 346.57 382.42 346.65 382.54 346.7 382.56 346.69 382.59 346.68 382.6 346.69 382.63 346.74 382.66 346.77 382.71 346.81 382.8 346.86 382.83 346.89 382.82 346.89 382.79 346.92 382.74 346.93 382.69 346.93 382.65 346.93 382.45 347.03 382.42 347.07 382.42 347.07 382.42 347.07 382.42 347.07 382.4 347.12 382.39 347.18 382.38 347.29 382.34 347.48 382.36 347.55 382.46 347.58 382.51 347.58 382.64 347.62 382.65 347.62 382.67 347.61 382.69 347.61 382.7 347.62 382.72 347.65 382.73 347.66 382.77 347.7 382.79 347.72 382.84 347.81 382.86 347.84 382.92 347.88 382.94 347.9 382.95 347.94 382.95 348.02 382.95 348.07 382.98 348.16 382.98 348.2 382.96 348.26 382.95 348.31 382.97 348.36 383.01 348.45 382.89 348.47 382.82 348.46 382.77 348.43 382.7 348.29 382.66 348.22 382.61 348.23 382.6 348.27 382.61 348.3 382.6 348.33 382.56 348.35 382.53 348.35 382.49 348.34 382.46 348.32 382.44 348.3 382.42 348.27 382.41 348.24 382.39 348.21 382.36 348.19 382.33 348.18 382.3 348.19 382.23 348.2 382.21 348.2 382.17 348.2 382.15 348.2 382.14 348.2 382.12 348.17 382.1 348.17 382.05 348.17 381.98 348.2 381.93 348.21 381.85 348.19 381.82 348.19 381.72 348.28 381.7 348.29 381.7 348.32 381.71 348.35 381.73 348.37 381.74 348.4 381.75 348.44 381.72 348.57 381.72 348.61 381.72 348.65 381.72 348.68 381.68 348.72 381.68 348.74 381.86 348.86 382.08 348.93 382.1 348.92 382.23 348.88 382.26 348.88 382.26 348.9 382.25 348.93 382.23 348.96 382.22 349.03 382.22 349.06 382.23 349.09 382.27 349.12 382.31 349.16 382.34 349.21 382.34 349.23 382.35 349.25 382.31 349.25 382.28 349.23 382.26 349.22 382.24 349.21 382.15 349.22 382.11 349.22 382.12 349.24 382.11 349.3 382.09 349.38 381.98 349.55 381.98 349.64 381.99 349.66 382.04 349.7 382.05 349.73 382.05 349.75 382.04 349.76 382.02 349.77 382.01 349.78 382 349.82 381.99 349.89 381.98 349.93 381.91 350.01 381.91 350.02 381.92 350.04 381.92 350.05 381.91 350.06 381.88 350.07 381.87 350.08 381.83 350.14 381.82 350.16 381.82 350.18 381.82 350.21 381.82 350.23 381.76 350.3 381.68 350.26 381.59 350.2 381.52 350.18 381.44 350.2 381.4 350.21 381.35 350.15 381.29 350.18 381.19 350.27 381.12 350.23 381.05 350.17 381.01 350.12 381 350.06 381.01 349.98 380.74 349.97 380.73 350.01 380.67 350.08 380.65 350.13 380.65 350.2 380.65 350.22 380.63 350.24 380.63 350.25 380.63 350.27 380.64 350.27 380.65 350.27 380.66 350.28 380.66 350.33 380.65 350.38 380.63 350.42 380.59 350.46 380.53 350.5 380.51 350.51 380.51 350.53 380.5 350.57 380.5 350.59 380.48 350.61 380.44 350.62 380.42 350.63 380.38 350.68 380.36 350.71 380.35 350.74 380.35 350.78 380.37 350.82 380.38 350.86 380.37 350.9 380.34 350.92 380.24 350.95 380.22 350.96 380.17 350.89 380.14 350.87 380.13 350.92 380.11 350.91 380.1 350.92 380.09 350.95 380.08 350.95 380.03 350.97 380.02 350.98 379.98 350.97 379.95 350.99 379.92 351.02 379.89 351.04 379.86 351.05 379.83 351.05 379.81 351.06 379.8 351.06 379.77 351.09 379.79 351.01 379.78 350.98 379.74 350.96 379.72 350.94 379.72 350.91 379.71 350.9 379.66 350.9 379.65 350.9 379.59 350.85 379.56 350.71 379.53 350.66 379.5 350.66 379.42 350.68 379.39 350.67 379.37 350.66 379.36 350.61 379.34 350.59 379.32 350.58 379.31 350.58 379.28 350.57 379.24 350.57 379.22 350.58 379.21 350.59 379.2 350.61 379.19 350.62 379.18 350.62 379.15 350.67 379.12 350.65 379.08 350.57 379.05 350.61 378.99 350.67 378.97 350.68 378.97 350.68 378.96 350.67 378.99 350.65 379 350.63 379.01 350.6 379.01 350.57 379.02 350.55 379.04 350.52 379.08 350.49 379.13 350.42 379.15 350.37 379.14 350.34 379.18 350.29 379.2 350.27 379.21 350.21 379.22 350.17 379.24 350.14 379.27 350.13 379.22 350.07 379.22 350 379.24 349.92 379.26 349.86 379.21 349.79 379.19 349.75 379.13 349.68 379.08 349.58 379.06 349.49 379.06 349.4 379.09 349.3 379.09 349.3 379.11 349.27 379.11 349.25 379.11 349.23 379.1 349.21 379.07 349.18 379.05 349.17 379.03 349.19 379 349.22 379 349.2 379.03 349.16 379.03 349.13 378.99 348.97 378.99 348.95 378.98 348.92 378.96 348.91 378.91 348.9 378.87 348.88 378.87 348.82 378.89 348.75 378.91 348.72 378.92 348.71 378.92 348.7 378.92 348.69 378.91 348.68 378.89 348.66 378.89 348.63 378.87 348.61 378.85 348.59 378.88 348.56 378.89 348.55 378.91 348.54 378.92 348.54 378.94 348.52 378.93 348.52 378.92 348.5 378.88 348.47 378.77 348.43 378.74 348.39 378.72 348.37 378.7 348.39 378.69 348.41 378.68 348.41 378.66 348.42 378.64 348.41 378.6 348.42 378.57 348.42 378.55 348.42 378.55 348.38 378.57 348.35 378.6 348.33 378.62 348.3 378.61 348.25 378.58 348.22 378.53 348.2 378.49 348.2 378.46 348.23 378.46 348.28 378.46 348.31 378.45 348.32 378.42 348.29 378.4 348.25 378.39 348.21 378.37 348.1 378.36 348.06 378.34 348.04 378.3 348.03 378.3 348.06 378.29 348.08 378.27 348.09 378.26 348.11 378.26 348.13 378.26 348.15 378.26 348.16 378.21 348.18 378.17 348.2 378.15 348.2 378.14 348.19 378.13 348.18 378.12 348.17 378.08 348.18 378.07 348.18 378.03 348.19 377.99 348.19 377.96 348.2 377.92 348.22 377.83 348.29 377.74 348.34 377.7 348.35 377.67 348.34 377.66 348.31 377.68 348.2 377.66 348.17 377.63 348.15 377.51 348.12 377.47 348.12 377.43 348.13 377.36 348.21 377.32 348.23 377.3 348.19 377.26 348.21 377.23 348.21 377.21 348.21 377.18 348.21 377.16 348.21 377.15 348.2 377.09 348.18 377.07 348.18 377 348.19 376.97 348.2 376.94 348.22 376.92 348.24 376.89 348.27 376.84 348.38 376.81 348.42 376.68 348.54 376.6 348.59 376.56 348.61 376.54 348.61 376.48 348.56 376.44 348.55 376.37 348.55 376.31 348.57 376.26 348.61 376.25 348.69 376.2 348.65 376.23 348.58 376.28 348.5 376.32 348.45 376.35 348.4 376.38 348.21 376.41 348.2 376.41 348.19 376.41 348.16 376.42 348.13 376.43 348.1 376.47 348.07 376.5 348.01 376.54 347.96 376.58 347.92 376.62 347.92 376.68 347.91 376.72 347.88 376.75 347.84 376.77 347.79 376.67 347.66 376.66 347.64 376.62 347.62 376.53 347.5 376.53 347.49 376.51 347.48 376.5 347.47 376.5 347.47 376.51 347.44 376.5 347.43 376.48 347.37 376.48 347.35 376.48 347.18 376.49 347.11 376.52 346.97 376.52 346.97 376.52 346.96 376.52 346.94 376.49 346.92 376.44 346.91 376.35 346.9 376.26 346.9 376.18 346.88 376.16 346.79 376.19 346.7 376.23 346.63 376.25 346.61 376.27 346.6 376.3 346.59 376.31 346.56 376.32 346.54 376.31 346.5 376.31 346.48 376.32 346.46 376.33 346.43 376.34 346.41 376.34 346.38 376.24 346.3 376.22 346.29 376.19 346.27 376.16 346.24 376.14 346.2 376.12 346.2 376.09 346.2 376.07 346.2 376.06 346.2 376.02 346.2 375.99 346.19 376.01 346.17 376.03 346.15 376.03 346.14 376 346.12 375.96 346.08 375.94 346.05 375.93 346.01 375.94 345.95 375.94 345.92 375.93 345.91 375.9 345.89 375.89 345.87 375.88 345.81 375.87 345.79 375.85 345.77 375.79 345.73 375.77 345.71 375.76 345.65 375.75 345.64 375.73 345.62 375.7 345.61 375.69 345.6 375.67 345.58 375.65 345.51 375.59 345.4 375.52 345.31 375.43 345.22 375.26 345.11 375.25 345.09 375.21 344.94 375.2 344.89 375.17 344.87 375.14 344.87 375.07 344.84 375.01 344.84 374.54 344.84 373.6 344.85 373.59 344.98 373.57 345 373.16 345.09 373.09 345.11 373.05 345.11 373.01 345.1 372.97 345.08 372.92 345.05 372.88 345.02 372.84 344.99 372.79 344.99 372.45 345.06 372.35 345.1 372.27 345.14 372.26 345.16 372.26 345.18 372.26 345.19 372.26 345.21 372.23 345.38 372.23 345.39 372.24 345.41 372.24 345.42 372.24 345.43 372.22 345.43 372.21 345.43 372.21 345.44 372.21 345.47 372.21 345.47 372.2 345.48 372.13 345.52 372.11 345.54 372.07 345.6 372.07 345.61 372.06 345.7 372.05 345.72 372.04 345.72 372.02 345.72 372 345.73 371.98 345.75 371.97 345.82 371.96 345.83 371.95 345.84 371.95 345.84 371.93 345.84 371.92 345.85 371.92 345.86 371.92 345.87 371.92 345.88 371.84 346.12 371.83 346.14 371.82 346.15 371.81 346.16 371.81 346.17 371.8 346.19 371.79 346.19 371.78 346.18 371.77 346.18 371.73 346.2 371.72 346.21 371.7 346.23 371.7 346.25 371.71 346.27 371.71 346.29 371.68 346.3 371.64 346.31 371.58 346.4 371.55 346.43 371.5 346.44 371.46 346.44 371.41 346.44 371.37 346.47 371.32 346.42 371.28 346.45 371.24 346.52 371.23 346.59 371.24 346.61 371.27 346.65 371.27 346.67 371.27 346.67 371.23 346.67 371.22 346.68 371.2 346.71 371.18 346.74 371.15 346.81 371.12 346.85 371.08 346.87 370.99 346.91 370.93 346.96 370.89 346.97 370.84 346.95 370.76 346.9 370.72 346.89 370.67 346.9 370.57 346.93 370.52 346.97 370.49 346.95 370.47 346.94 370.46 346.91 370.47 346.88 370.48 346.88 370.51 346.88 370.52 346.87 370.52 346.87 370.51 346.86 370.52 346.85 370.58 346.79 370.62 346.72 370.64 346.68 370.68 346.66 370.72 346.66 370.79 346.67 370.83 346.66 370.83 346.65 370.7 346.65 370.64 346.65 370.61 346.62 370.61 346.62 370.63 346.6 370.64 346.59 370.64 346.56 370.66 346.51 370.67 346.47 370.62 346.52 370.6 346.57 370.58 346.63 370.56 346.69 370.51 346.67 370.48 346.66 370.47 346.63 370.49 346.62 370.49 346.6 370.49 346.54 370.49 346.54 370.49 346.53 370.5 346.52 370.5 346.5 370.5 346.5 370.47 346.48 370.47 346.48 370.46 346.43 370.46 346.37 370.48 346.33 370.52 346.36 370.51 346.31 370.51 346.29 370.52 346.27 370.5 346.27 370.49 346.28 370.47 346.29 370.45 346.3 370.42 346.3 370.4 346.31 370.39 346.33 370.37 346.43 370.35 346.45 370.3 346.43 370.28 346.42 370.27 346.41 370.29 346.37 370.27 346.35 370.24 346.32 370.23 346.28 370.23 346.23 370.24 346.19 370.29 346.13 370.3 346.08 370.29 346.08 370.23 346.12 370.15 346.13 370.08 346.11 370.04 346.06 370.03 345.99 370.03 345.96 370.05 345.92 370.07 345.9 370.09 345.87 370.1 345.83 370.1 345.79 370.09 345.79 370.04 345.89 370.01 345.93 369.97 345.95 369.94 345.93 369.91 345.89 369.89 345.84 369.88 345.79 369.81 345.82 369.76 345.85 369.68 345.9 369.62 345.91 369.62 345.92 369.6 345.93 369.58 345.93 369.57 345.92 369.58 345.9 369.59 345.9 369.6 345.89 369.62 345.88 369.69 345.78 369.74 345.73 369.76 345.67 369.8 345.62 369.8 345.58 369.8 345.46 369.8 345.44 369.81 345.43 369.84 345.42 369.85 345.4 369.86 345.38 369.9 345.36 369.93 345.34 369.94 345.3 369.89 345.33 369.87 345.33 369.84 345.32 369.75 345.21 369.74 345.18 369.73 345.18 369.72 345.19 369.71 345.2 369.73 345.27 369.74 345.33 369.72 345.38 369.65 345.41 369.57 345.4 369.53 345.35 369.52 345.28 369.54 345.21 369.64 345.1 369.67 345.02 369.66 344.95 369.65 344.93 369.64 344.96 369.63 345.01 369.63 345.03 369.6 345.04 369.56 345.11 369.53 345.12 369.53 345.13 369.52 345.14 369.44 345.16 369.44 345.17 369.39 345.16 369.35 345.15 369.32 345.14 369.3 345.13 369.29 345.1 369.26 345.06 369.22 345.03 369.19 345.01 369.13 344.97 369.11 344.96 369.09 344.9 369.07 344.9 369.03 344.89 369.01 344.89 369 344.87 368.95 344.83 368.92 344.81 368.9 344.81 368.87 344.8 368.84 344.77 368.83 344.72 368.86 344.65 368.92 344.62 368.98 344.66 368.96 344.63 368.93 344.6 368.9 344.57 368.89 344.58 368.87 344.6 368.84 344.59 368.82 344.57 368.82 344.55 368.87 344.53 368.91 344.49 368.97 344.38 368.93 344.4 368.91 344.42 368.87 344.47 368.84 344.48 368.78 344.51 368.77 344.52 368.76 344.55 368.77 344.65 368.76 344.68 368.74 344.7 368.72 344.72 368.68 344.72 368.63 344.71 368.59 344.67 368.57 344.63 368.57 344.58 368.61 344.55 368.66 344.51 368.69 344.47 368.66 344.43 368.65 344.46 368.63 344.48 368.59 344.49 368.56 344.49 368.56 344.54 368.52 344.58 368.47 344.59 368.45 344.58 368.44 344.56 368.43 344.54 368.41 344.52 368.4 344.48 368.41 344.47 368.43 344.45 368.43 344.44 368.43 344.42 368.41 344.42 368.4 344.42 368.39 344.43 368.39 344.44 368.37 344.47 368.32 344.45 368.19 344.32 368.16 344.31 368.13 344.31 368.1 344.31 368.07 344.32 368.04 344.32 368.01 344.31 367.96 344.35 367.94 344.33 367.93 344.27 367.93 344.22 367.95 344.15 367.95 344.12 367.94 344.09 367.93 344.08 367.91 344.07 367.78 343.93 367.75 343.88 367.75 343.83 367.75 343.77 367.76 343.72 367.78 343.69 367.78 343.69 367.78 343.69 367.74 343.7 367.72 343.71 367.7 343.74 367.67 343.75 367.64 343.77 367.61 343.77 367.57 343.76 367.55 343.74 367.54 343.74 367.52 343.77 367.51 343.76 367.5 343.72 367.49 343.69 367.5 343.65 367.5 343.62 367.52 343.55 367.55 343.56 367.58 343.54 367.61 343.5 367.64 343.48 367.59 343.48 367.57 343.45 367.58 343.41 367.6 343.28 367.62 343.25 367.64 343.27 367.66 343.27 367.66 343.23 367.68 343.21 367.7 343.2 367.71 343.19 367.74 343.09 367.79 342.99 367.82 342.97 367.84 342.94 367.84 342.91 367.83 342.88 367.84 342.87 367.86 342.84 367.81 342.85 367.81 342.87 367.82 342.89 367.81 342.93 367.74 342.98 367.73 342.99 367.7 343.01 367.66 343.07 367.63 343.13 367.6 343.2 367.57 343.25 367.51 343.32 367.45 343.38 367.42 343.39 367.4 343.36 367.41 343.33 367.42 343.3 367.44 343.29 367.46 343.28 367.45 343.28 367.43 343.28 367.42 343.28 367.4 343.29 367.37 343.27 367.4 343.18 367.42 343.14 367.44 343.1 367.45 343.09 367.49 343.07 367.5 343.06 367.51 343.04 367.52 343.02 367.52 343.02 367.51 343.01 367.49 343 367.46 343.04 367.36 343.12 367.34 343.16 367.31 343.24 367.28 343.27 367.26 343.22 367.23 343.19 367.21 343.16 367.2 343.11 367.23 343.11 367.26 343.09 367.28 343.06 367.3 343.03 367.31 343 367.31 342.97 367.32 342.94 367.31 342.93 367.32 342.91 367.32 342.9 367.33 342.88 367.28 342.91 367.27 342.93 367.26 342.95 367.25 342.96 367.19 342.99 367.17 342.99 367.17 342.96 367.17 342.94 367.18 342.92 367.19 342.9 367.18 342.87 367.18 342.85 367.18 342.84 367.2 342.82 367.16 342.81 367.15 342.79 367.16 342.75 367.17 342.73 367.2 342.71 367.24 342.69 367.28 342.68 367.32 342.68 367.34 342.67 367.36 342.63 367.37 342.6 367.38 342.59 367.42 342.58 367.46 342.53 367.49 342.51 367.48 342.5 367.47 342.48 367.45 342.45 367.44 342.47 367.44 342.49 367.43 342.5 367.41 342.51 367.4 342.51 367.36 342.53 367.36 342.53 367.35 342.58 367.32 342.62 367.29 342.63 367.25 342.62 367.24 342.63 367.23 342.63 367.21 342.64 367.19 342.63 367.2 342.59 367.19 342.56 367.17 342.56 367.16 342.58 367.1 342.66 367.03 342.65 366.98 342.52 366.93 342.53 366.97 342.57 366.97 342.61 366.96 342.65 366.95 342.68 366.9 342.65 366.87 342.64 366.84 342.63 366.91 342.69 366.94 342.72 366.95 342.76 366.93 342.8 366.88 342.84 366.84 342.87 366.82 342.87 366.82 342.87 366.81 342.86 366.8 342.87 366.79 342.87 366.8 342.89 366.81 342.91 366.81 342.92 366.81 342.99 366.82 343.01 366.84 343.02 366.86 343.03 366.87 343.06 366.87 343.07 366.84 343.11 366.8 343.09 366.72 343.08 366.68 343.06 366.63 343.01 366.6 342.96 366.57 342.91 366.57 342.86 366.59 342.82 366.62 342.78 366.64 342.77 366.68 342.76 366.69 342.75 366.69 342.73 366.7 342.72 366.71 342.7 366.72 342.69 366.72 342.68 366.71 342.68 366.7 342.68 366.71 342.67 366.7 342.66 366.77 342.6 366.77 342.6 366.84 342.51 367.05 342.1 367.1 341.92 367.13 341.84 367.35 341.52 367.39 341.47 367.44 341.44 367.54 341.44 367.72 341.46 367.81 341.44 368.01 341.33 368.21 341.22 368.24 341.2 368.26 341.18 368.28 341.12 368.3 341.1 368.32 341.09 368.34 341.09 368.35 341.1 368.53 341.11 368.59 341.1 368.61 341.11 368.63 341.12 368.65 341.14 368.67 341.15 368.7 341.16 368.73 341.16 368.8 341.15 368.84 341.15 368.93 341.16 368.97 341.15 369.07 341.09 369.09 341.07 369.14 341.1 369.18 341.1 369.22 341.07 369.25 341.03 369.25 341.01 369.26 340.96 369.25 340.93 369.25 340.92 369.29 340.92 369.31 340.94 369.31 340.98 369.33 340.99 369.37 341 369.37 341.02 369.36 341.03 369.38 341.05 369.42 341.06 369.48 341.04 369.53 341.02 369.57 341 369.58 340.97 369.59 340.87 369.59 340.83 369.55 340.57 369.56 340.47 369.58 340.38 369.58 340.34 369.55 340.3 369.53 340.29 369.46 340.28 369.42 340.26 369.39 340.25 369.34 340.19 369.33 340.17 369.33 340.15 369.32 340.14 369.26 340.12 369.23 340.1 369.19 340.06 369.15 340.03 369.1 340.02 369.04 340.01 369.03 340 369.04 339.98 369.04 339.93 369.04 339.91 369.09 339.85 369.23 339.79 369.28 339.75 369.32 339.72 369.38 339.71 369.42 339.72 369.39 339.77 369.54 339.77 369.61 339.74 369.64 339.69 369.65 339.63 369.67 339.58 369.67 339.56 369.66 339.49 369.67 339.46 369.67 339.44 369.71 339.35 369.72 339.31 369.71 339.27 369.69 339.23 369.58 339.09 369.55 339.03 369.55 338.98 369.57 338.83 370.29 338.85 370.39 338.88 370.39 338.88 370.4 338.89 370.42 338.9 370.43 338.9 370.45 338.9 370.45 338.9 370.46 338.89 370.47 338.89 370.53 338.87 370.55 338.87 370.57 338.88 370.6 338.9 370.62 338.9 370.64 338.9 370.68 338.88 370.69 338.88 370.7 338.89 370.73 338.91 370.74 338.92 370.74 338.92 370.77 338.91 370.79 338.91 370.81 338.91 370.82 338.91 370.84 338.92 370.86 338.89 370.9 338.91 370.94 338.91 370.98 338.91 371.01 338.91 371.04 338.94 371.05 338.99 371.05 339.03 371.04 339.07 371.01 339.15 371 339.18 371.01 339.23 371.04 339.26 371.07 339.28 371.11 339.28 371.15 339.28 371.19 339.3 371.23 339.29 371.25 339.27 371.26 339.23 371.3 339.14 371.38 339.14 371.46 339.18 371.52 339.23 371.52 339.24 371.51 339.25 371.52 339.27 371.54 339.29 371.56 339.3 371.63 339.31 371.66 339.32 371.67 339.35 371.69 339.36 371.73 339.37 371.87 339.36 371.92 339.37 371.96 339.39 372 339.42 372.06 339.48 372.07 339.51 372.08 339.52 372.08 339.53 372.12 339.53 372.12 339.53 372.14 339.53 372.2 339.49 372.24 339.47 372.28 339.47 372.32 339.47 372.37 339.48 372.46 339.51 372.5 339.54 372.56 339.64 372.6 339.66 372.97 339.56 373.06 339.51 373.13 339.45 373.17 339.43 373.22 339.43 373.36 339.47 373.41 339.47 373.43 339.47 373.52 339.42 373.54 339.41 373.55 339.4 373.57 339.4 373.57 339.4 373.58 339.41 373.71 339.46 373.76 339.47 373.94 339.48 374.02 339.47 374.19 339.4 374.28 339.39 374.47 339.37 374.55 339.38 374.69 339.43 374.76 339.44 Z" id="Guinea" transform="translate(-366.57000732421875,-338.8299865722656) "/></svg>