<svg xmlns="http://www.w3.org/2000/svg" viewBox="0 0 6.79998779296875 3.94000244140625"><path d="M 364.75 342.27 364.77 342.37 364.78 342.39 364.8 342.41 364.8 342.43 364.79 342.46 364.77 342.47 364.74 342.47 364.71 342.47 364.7 342.48 364.67 342.47 364.61 342.47 364.61 342.47 364.6 342.48 364.58 342.48 364.58 342.47 364.57 342.45 364.58 342.44 364.58 342.44 364.6 342.43 364.62 342.43 364.68 342.4 364.7 342.39 364.69 342.36 364.66 342.35 364.64 342.37 364.64 342.4 364.62 342.39 364.61 342.37 364.63 342.34 364.64 342.31 364.64 342.29 364.64 342.25 364.63 342.2 364.63 342.17 364.65 342.14 364.7 342.17 364.73 342.22 364.75 342.27 Z M 364.59 342.23 364.6 342.3 364.59 342.33 364.57 342.36 364.52 342.42 364.5 342.44 364.48 342.41 364.48 342.38 364.46 342.35 364.46 342.32 364.48 342.28 364.43 342.28 364.41 342.26 364.41 342.22 364.42 342.19 364.46 342.16 364.58 342.13 364.58 342.15 364.59 342.18 364.59 342.23 Z M 364.39 342.2 364.38 342.23 364.38 342.26 364.39 342.28 364.42 342.33 364.39 342.33 364.39 342.34 364.42 342.39 364.41 342.43 364.4 342.46 364.41 342.48 364.36 342.51 364.33 342.51 364.29 342.51 364.24 342.53 364.23 342.51 364.23 342.49 364.23 342.47 364.24 342.45 364.23 342.45 364.2 342.5 364.21 342.53 364.18 342.52 364.18 342.51 364.17 342.5 364.12 342.5 364.06 342.47 364.01 342.41 363.98 342.36 364.01 342.33 364.05 342.3 364.09 342.29 364.12 342.3 364.09 342.31 364.08 342.31 364.08 342.32 364.08 342.33 364.08 342.33 364.09 342.34 364.11 342.32 364.14 342.31 364.16 342.29 364.17 342.22 364.19 342.21 364.21 342.2 364.23 342.17 364.24 342.18 364.27 342.2 364.28 342.15 364.31 342.12 364.36 342.13 364.39 342.16 364.41 342.18 364.4 342.19 364.39 342.2 Z M 364.87 342.14 364.82 342.14 364.76 342.1 364.76 342.03 364.8 341.96 364.85 341.91 364.91 341.91 364.92 341.93 364.9 342.02 364.89 342.11 364.87 342.14 Z M 365.28 341.95 365.29 342.03 365.29 342.07 365.28 342.08 365.27 342.05 365.25 342.02 365.21 342.02 365.21 342.03 365.23 342.03 365.23 342.05 365.21 342.08 365.2 342.1 365.18 342.11 365.17 342.09 365.17 342.09 365.14 342.1 365.15 342.12 365.15 342.15 365.15 342.19 365.14 342.22 365.13 342.21 365.13 342.2 365.12 342.19 365.11 342.19 365.1 342.19 365.1 342.19 365.09 342.19 365.08 342.19 365.06 342.21 365.04 342.2 365.02 342.17 365.02 342.14 365.03 342.13 365.06 342.11 365.07 342.09 365.03 342.08 365.03 342.07 365.08 342.02 365.08 342.01 365.08 341.98 365.08 341.97 365.09 341.97 365.1 341.97 365.12 341.97 365.12 341.97 365.15 341.92 365.2 341.91 365.26 341.91 365.29 341.91 365.28 341.95 Z M 364.08 341.9 364.1 341.92 364.12 341.92 364.15 341.92 364.18 341.93 364.19 341.94 364.2 341.97 364.2 342 364.2 342.02 364.17 342.03 364.15 342.04 364.14 342.06 364.15 342.1 364 342.11 363.98 342.1 363.92 342.07 363.91 342.07 363.91 342.05 363.92 342.02 363.93 342.01 363.95 342 363.95 341.97 363.98 341.93 364.03 341.91 364.06 341.91 364.08 341.9 Z M 365.28 341.48 365.28 341.49 365.28 341.49 365.29 341.5 365.31 341.5 365.3 341.51 365.3 341.51 365.29 341.53 365.3 341.55 365.29 341.56 365.24 341.6 365.23 341.58 365.23 341.57 365.21 341.57 365.19 341.6 365.15 341.6 365.12 341.58 365.11 341.56 365.12 341.54 365.14 341.54 365.16 341.54 365.17 341.54 365.18 341.52 365.2 341.51 365.21 341.49 365.21 341.46 365.23 341.48 365.24 341.47 365.28 341.45 365.29 341.46 365.29 341.46 365.28 341.48 Z M 364.08 341.58 364.07 341.59 364.06 341.6 364.04 341.6 363.97 341.59 363.92 341.59 363.9 341.58 363.86 341.57 363.89 341.56 363.93 341.53 363.97 341.51 363.98 341.47 364.01 341.45 364.07 341.43 364.13 341.43 364.17 341.43 364.18 341.46 364.17 341.48 364.1 341.55 364.09 341.56 364.08 341.57 364.08 341.58 Z M 364 341.29 364 341.31 363.99 341.35 363.97 341.39 363.94 341.43 363.93 341.45 363.93 341.47 363.92 341.48 363.91 341.48 363.89 341.48 363.86 341.5 363.85 341.5 363.85 341.51 363.84 341.51 363.82 341.5 363.8 341.47 363.79 341.46 363.78 341.47 363.67 341.46 363.65 341.48 363.63 341.49 363.6 341.5 363.61 341.48 363.62 341.46 363.61 341.44 363.61 341.43 363.62 341.42 363.6 341.41 363.59 341.4 363.67 341.36 363.76 341.36 363.85 341.35 363.91 341.28 363.92 341.28 363.92 341.29 363.92 341.29 363.92 341.3 363.94 341.3 363.96 341.29 363.97 341.29 363.98 341.28 363.99 341.29 364 341.29 Z M 364.69 341.29 364.71 341.29 364.71 341.26 364.74 341.29 364.73 341.35 364.76 341.37 364.73 341.42 364.73 341.47 364.74 341.53 364.76 341.57 364.72 341.59 364.66 341.62 364.61 341.63 364.59 341.59 364.58 341.59 364.57 341.6 364.57 341.61 364.56 341.62 364.55 341.61 364.54 341.6 364.53 341.59 364.52 341.61 364.5 341.63 364.48 341.64 364.46 341.65 364.43 341.62 364.36 341.57 364.35 341.54 364.42 341.5 364.48 341.44 364.48 341.44 364.49 341.4 364.51 341.36 364.53 341.31 364.55 341.3 364.59 341.28 364.64 341.23 364.67 341.23 364.67 341.27 364.69 341.29 Z M 365.7 341.17 365.7 341.2 365.68 341.23 365.67 341.26 365.68 341.28 365.7 341.3 365.7 341.32 365.66 341.33 365.63 341.32 365.61 341.31 365.59 341.31 365.59 341.32 365.55 341.36 365.54 341.36 365.49 341.36 365.49 341.37 365.53 341.39 365.53 341.43 365.49 341.45 365.47 341.42 365.45 341.43 365.42 341.42 365.39 341.42 365.38 341.41 365.37 341.42 365.35 341.4 365.35 341.38 365.37 341.37 365.4 341.36 365.42 341.32 365.45 341.29 365.5 341.3 365.51 341.26 365.53 341.24 365.56 341.22 365.58 341.19 365.62 341.2 365.65 341.19 365.68 341.17 365.7 341.17 Z M 364.57 340.6 364.56 340.66 364.54 340.68 364.52 340.71 364.5 340.74 364.48 340.83 364.47 340.86 364.44 340.9 364.42 340.88 364.39 340.88 364.37 340.89 364.35 340.9 364.32 340.88 364.26 340.8 364.24 340.78 364.21 340.78 364.19 340.78 364.18 340.75 364.18 340.69 364.18 340.66 364.17 340.63 364.21 340.62 364.25 340.62 364.33 340.63 364.36 340.63 364.39 340.62 364.46 340.59 364.45 340.58 364.45 340.58 364.45 340.57 364.48 340.57 364.51 340.57 364.54 340.57 364.56 340.59 364.57 340.6 Z M 369.71 339.35 369.67 339.44 369.67 339.46 369.66 339.49 369.67 339.56 369.67 339.58 369.65 339.63 369.64 339.69 369.61 339.74 369.54 339.77 369.39 339.77 369.42 339.72 369.38 339.71 369.32 339.72 369.28 339.75 369.23 339.79 369.09 339.85 369.04 339.91 369.04 339.93 369.04 339.98 369.03 340 369.04 340.01 369.1 340.02 369.15 340.03 369.19 340.06 369.23 340.1 369.26 340.12 369.32 340.14 369.33 340.15 369.33 340.17 369.34 340.19 369.39 340.25 369.42 340.26 369.46 340.28 369.53 340.29 369.55 340.3 369.58 340.34 369.58 340.38 369.56 340.47 369.55 340.57 369.59 340.83 369.59 340.87 369.58 340.97 369.57 341 369.53 341.02 369.48 341.04 369.42 341.06 369.38 341.05 369.36 341.03 369.37 341.02 369.37 341 369.33 340.99 369.31 340.98 369.31 340.94 369.29 340.92 369.25 340.92 369.25 340.93 369.26 340.96 369.25 341.01 369.25 341.03 369.22 341.07 369.18 341.1 369.14 341.1 369.09 341.07 369.07 341.09 368.97 341.15 368.93 341.16 368.84 341.15 368.8 341.15 368.73 341.16 368.7 341.16 368.67 341.15 368.65 341.14 368.63 341.12 368.61 341.11 368.59 341.1 368.53 341.11 368.35 341.1 368.34 341.09 368.32 341.09 368.3 341.1 368.28 341.12 368.26 341.18 368.24 341.2 368.21 341.22 368.01 341.33 367.81 341.44 367.72 341.46 367.54 341.44 367.44 341.44 367.39 341.47 367.35 341.52 367.13 341.84 367.1 341.92 367.05 342.1 366.84 342.51 366.77 342.6 366.77 342.6 366.7 342.66 366.62 342.72 366.56 342.75 366.54 342.75 366.54 342.72 366.56 342.71 366.58 342.69 366.6 342.68 366.63 342.63 366.64 342.62 366.64 342.6 366.63 342.6 366.62 342.62 366.61 342.64 366.59 342.66 366.57 342.66 366.54 342.67 366.52 342.66 366.5 342.65 366.49 342.63 366.53 342.46 366.54 342.43 366.57 342.42 366.58 342.39 366.59 342.36 366.6 342.33 366.62 342.33 366.64 342.33 366.66 342.33 366.66 342.32 366.66 342.29 366.66 342.28 366.75 342.27 366.74 342.25 366.73 342.24 366.72 342.23 366.7 342.22 366.73 342.19 366.75 342.14 366.75 342.1 366.72 342.08 366.7 342.14 366.66 342.18 366.62 342.21 366.57 342.22 366.58 342.25 366.57 342.28 366.55 342.28 366.52 342.26 366.52 342.28 366.51 342.29 366.51 342.3 366.51 342.31 366.5 342.3 366.47 342.3 366.47 342.34 366.46 342.36 366.44 342.37 366.41 342.4 366.38 342.43 366.35 342.49 366.29 342.57 366.27 342.59 366.24 342.6 366.21 342.59 366.18 342.56 366.15 342.53 366.15 342.5 366.17 342.49 366.24 342.45 366.26 342.43 366.27 342.41 366.29 342.31 366.27 342.12 366.29 342.07 366.24 342.07 366.23 342.11 366.24 342.15 366.25 342.19 366.25 342.22 366.25 342.28 366.23 342.32 366.18 342.29 366.1 342.3 366.07 342.29 366.06 342.28 366.04 342.27 366.03 342.26 365.98 342.27 365.96 342.27 365.94 342.24 365.94 342.22 365.92 342.2 365.9 342.19 365.88 342.19 365.84 342.17 365.83 342.11 365.84 342 365.84 341.98 365.84 341.96 365.83 341.96 365.82 341.96 365.81 341.96 365.81 341.95 365.8 341.93 365.81 341.91 365.82 341.88 365.82 341.86 365.83 341.84 365.89 341.76 365.91 341.74 365.93 341.75 365.97 341.77 366 341.77 366.02 341.76 366.05 341.73 366.07 341.73 366.1 341.71 366.12 341.68 366.14 341.65 366.16 341.62 366.03 341.72 365.99 341.74 365.96 341.72 365.95 341.7 365.96 341.63 365.97 341.61 366 341.58 366.02 341.55 366 341.54 365.97 341.55 365.94 341.58 365.92 341.62 365.91 341.66 365.9 341.68 365.87 341.7 365.83 341.71 365.8 341.73 365.78 341.76 365.77 341.79 365.75 341.81 365.71 341.82 365.68 341.83 365.65 341.84 365.64 341.84 365.63 341.79 365.63 341.76 365.67 341.68 365.68 341.67 365.68 341.65 365.75 341.56 365.71 341.56 365.69 341.54 365.69 341.51 365.7 341.48 365.72 341.49 365.74 341.49 365.76 341.48 365.78 341.46 365.78 341.48 365.79 341.51 365.8 341.48 365.82 341.46 365.84 341.45 365.85 341.48 365.87 341.48 365.87 341.46 365.86 341.44 365.85 341.42 365.84 341.4 365.85 341.4 365.85 341.4 365.85 341.4 365.85 341.39 365.87 341.4 365.9 341.4 365.93 341.4 365.96 341.41 365.98 341.41 365.96 341.37 365.97 341.36 365.97 341.33 365.99 341.33 366.01 341.35 366.04 341.35 366.06 341.35 366.07 341.39 366.11 341.37 366.11 341.34 366.08 341.31 366.05 341.28 366.04 341.29 366.03 341.29 366 341.3 366 341.28 366.05 341.26 366.08 341.25 366.1 341.23 366.11 341.26 366.14 341.29 366.18 341.31 366.22 341.3 366.19 341.29 366.19 341.28 366.19 341.26 366.19 341.23 366.17 341.22 366.15 341.22 366.14 341.22 366.13 341.19 366.15 341.2 366.2 341.21 366.22 341.22 366.25 341.2 366.24 341.22 366.24 341.25 366.23 341.26 366.29 341.3 366.3 341.3 366.32 341.26 366.31 341.24 366.28 341.21 366.28 341.2 366.28 341.18 366.3 341.16 366.32 341.15 366.34 341.14 366.34 341.15 366.36 341.16 366.38 341.17 366.41 341.17 366.42 341.18 366.43 341.2 366.43 341.22 366.43 341.25 366.47 341.23 366.47 341.23 366.46 341.21 366.46 341.2 366.49 341.2 366.52 341.22 366.53 341.24 366.55 341.26 366.46 341.28 366.43 341.28 366.44 341.29 366.45 341.3 366.45 341.31 366.47 341.31 366.46 341.35 366.48 341.37 366.5 341.36 366.52 341.31 366.54 341.3 366.57 341.31 366.58 341.3 366.65 341.3 366.67 341.3 366.7 341.28 366.72 341.27 366.73 341.25 366.73 341.22 366.71 341.23 366.69 341.24 366.66 341.25 366.59 341.25 366.57 341.25 366.57 341.23 366.57 341.22 366.58 341.21 366.6 341.2 366.61 341.2 366.6 341.18 366.6 341.17 366.61 341.14 366.59 341.14 366.57 341.15 366.55 341.17 366.55 341.2 366.52 341.17 366.5 341.16 366.47 341.16 366.47 341.14 366.49 341.13 366.52 341.1 366.52 341.08 366.51 341.05 366.49 341.05 366.46 341.13 366.43 341.13 366.4 341.11 366.37 341.11 366.39 341.08 366.42 341.06 366.45 341.04 366.46 341 366.44 341.02 366.42 341.03 366.4 341.03 366.38 341.02 366.37 341.02 366.37 341.04 366.36 341.05 366.35 341.06 366.32 341.06 366.33 341.1 366.31 341.11 366.29 341.09 366.28 341.06 366.24 341.11 366.23 341.1 366.24 341.06 366.29 341.03 366.27 341.02 366.26 341 366.27 340.98 366.28 340.96 366.29 340.96 366.3 340.96 366.31 340.97 366.34 340.97 366.33 340.94 366.31 340.92 366.26 340.9 366.25 340.9 366.24 340.93 366.23 340.96 366.21 340.99 366.22 341.03 366.19 341.04 366.18 341.07 366.16 341.08 366.14 341.07 366.15 341.05 366.17 341.02 366.15 341.01 366.14 340.98 366.16 340.91 366.13 340.92 366.12 340.94 366.11 340.97 366.11 340.99 366.1 341 366.06 341 366.03 341 366.07 341.02 366.07 341.03 366.09 341.05 366.12 341.07 366.13 341.09 366.12 341.12 366.1 341.12 366.08 341.12 366.07 341.1 366.05 341.11 366.05 341.13 366.04 341.15 366.03 341.17 366.02 341.09 366 341.05 365.99 341.06 365.97 341.06 365.99 341.1 365.96 341.1 365.97 341.15 365.98 341.18 366 341.2 365.99 341.23 365.96 341.21 365.93 341.18 365.88 341.11 365.88 341.15 365.89 341.19 365.91 341.22 365.93 341.26 365.92 341.26 365.88 341.25 365.87 341.28 365.85 341.28 365.84 341.26 365.84 341.22 365.82 341.22 365.81 341.24 365.81 341.26 365.8 341.29 365.8 341.31 365.79 341.3 365.78 341.3 365.78 341.34 365.75 341.33 365.75 341.31 365.74 341.28 365.72 341.26 365.71 341.23 365.72 341.21 365.75 341.2 365.76 341.16 365.78 341.13 365.8 341.09 365.8 341.03 365.73 341.1 365.69 341.12 365.66 341.1 365.67 341.08 365.67 341.03 365.67 341 365.64 341 365.62 341.01 365.61 341.02 365.59 341.03 365.59 341.04 365.58 341.06 365.56 341.07 365.55 341.06 365.54 341.02 365.53 340.98 365.53 340.95 365.57 340.88 365.59 340.83 365.6 340.81 365.69 340.73 365.71 340.71 365.72 340.7 365.73 340.7 365.73 340.67 365.74 340.65 365.75 340.63 365.78 340.6 365.79 340.6 365.8 340.62 365.8 340.62 365.81 340.63 365.82 340.63 365.83 340.61 365.84 340.61 365.85 340.61 365.87 340.6 365.92 340.6 366.01 340.63 366.06 340.63 366.33 340.63 366.34 340.63 366.38 340.59 366.39 340.59 366.45 340.57 366.49 340.54 366.52 340.5 366.55 340.48 366.6 340.48 366.61 340.51 366.6 340.56 366.57 340.59 366.56 340.64 366.56 340.69 366.57 340.75 366.6 340.79 366.64 340.81 366.7 340.82 366.74 340.83 366.77 340.87 366.79 340.9 366.84 340.91 366.89 340.9 366.92 340.86 366.86 340.88 366.82 340.85 366.79 340.8 366.76 340.77 366.69 340.76 366.67 340.76 366.65 340.74 366.63 340.73 366.62 340.71 366.6 340.69 366.59 340.66 366.61 340.63 366.64 340.61 366.66 340.58 366.7 340.47 366.7 340.45 366.71 340.45 366.74 340.45 366.76 340.44 366.76 340.43 366.75 340.41 366.73 340.4 366.73 340.39 366.71 340.39 366.69 340.38 366.66 340.39 366.65 340.4 366.6 340.38 366.57 340.37 366.54 340.38 366.47 340.42 366.44 340.43 366.42 340.45 366.36 340.52 366.32 340.54 366.27 340.55 366.23 340.54 366.14 340.51 366.06 340.5 366.03 340.48 366 340.46 365.96 340.43 365.91 340.42 365.85 340.42 365.8 340.43 365.79 340.44 365.75 340.47 365.74 340.48 365.69 340.48 365.67 340.48 365.65 340.49 365.58 340.56 365.56 340.56 365.53 340.58 365.52 340.59 365.45 340.68 365.44 340.69 365.39 340.71 365.29 340.77 365.25 340.78 365.24 340.79 365.1 340.81 365.08 340.83 365.06 340.84 364.95 340.9 364.91 340.91 364.95 340.73 365 340.65 365.05 340.65 365.06 340.66 365.08 340.66 365.1 340.67 365.12 340.66 365.12 340.65 365.08 340.65 365.03 340.6 364.99 340.6 364.95 340.63 364.94 340.67 364.94 340.71 364.87 340.85 364.84 340.86 364.8 340.85 364.79 340.82 364.8 340.74 364.77 340.76 364.76 340.79 364.76 340.84 364.74 340.88 364.73 340.89 364.68 340.91 364.66 340.92 364.64 340.94 364.62 340.94 364.62 340.93 364.61 340.91 364.6 340.87 364.61 340.82 364.65 340.74 364.68 340.62 364.7 340.59 364.71 340.58 364.72 340.57 364.74 340.56 364.75 340.56 364.76 340.55 364.77 340.49 364.83 340.41 364.85 340.39 364.88 340.37 364.93 340.35 364.98 340.34 365.02 340.34 365.03 340.35 365.04 340.37 365.05 340.39 365.07 340.4 365.11 340.4 365.13 340.41 365.15 340.42 365.16 340.39 365.18 340.35 365.18 340.33 365.17 340.31 365.16 340.32 365.13 340.34 365.1 340.36 365.06 340.36 365.05 340.35 365.03 340.32 365.02 340.31 365 340.3 364.99 340.3 364.98 340.31 364.89 340.31 364.87 340.31 364.85 340.28 364.84 340.28 364.82 340.32 364.78 340.34 364.73 340.35 364.68 340.36 364.69 340.37 364.69 340.38 364.7 340.39 364.69 340.39 364.68 340.39 364.68 340.39 364.68 340.4 364.66 340.39 364.65 340.38 364.65 340.39 364.66 340.42 364.66 340.45 364.64 340.48 364.6 340.51 364.57 340.52 364.41 340.52 364.39 340.53 364.34 340.55 364.33 340.56 364.31 340.56 364.3 340.58 364.28 340.6 364.26 340.6 364.24 340.59 364.22 340.58 364.18 340.54 364.13 340.55 364.06 340.54 363.99 340.51 363.97 340.49 363.92 340.39 363.9 340.38 363.84 340.37 363.82 340.36 363.8 340.33 363.78 340.31 363.78 340.27 363.77 340.21 363.75 340.15 363.74 340.12 363.8 339.99 363.83 339.96 363.85 339.94 363.88 339.92 363.91 339.91 363.91 339.93 363.92 339.95 363.94 339.96 363.95 339.94 363.96 339.92 363.94 339.89 363.94 339.86 363.96 339.83 364 339.8 364.04 339.79 364.2 339.69 364.24 339.66 364.26 339.64 364.28 339.6 364.3 339.58 364.32 339.57 364.37 339.56 364.39 339.55 364.33 339.55 364.3 339.57 364.26 339.6 364.23 339.64 364.19 339.67 364.08 339.69 364.03 339.71 363.95 339.76 363.93 339.78 363.86 339.86 363.81 339.84 363.82 339.8 363.83 339.75 363.83 339.71 363.82 339.74 363.79 339.79 363.78 339.87 363.76 339.9 363.72 339.91 363.68 339.89 363.67 339.91 363.66 339.9 363.63 339.88 363.63 339.91 363.61 339.92 363.58 339.92 363.55 339.92 363.55 339.93 363.53 339.95 363.52 339.96 363.51 339.95 363.51 339.94 363.5 339.93 363.49 339.93 363.44 339.92 363.42 339.9 363.41 339.88 363.41 339.85 363.39 339.84 363.34 339.78 363.34 339.77 363.32 339.76 363.28 339.72 363.26 339.71 363.25 339.71 363.21 339.72 363.2 339.72 363.18 339.71 363.16 339.68 363.15 339.66 363.07 339.6 363.04 339.58 363.01 339.58 362.98 339.59 362.96 339.61 362.94 339.62 362.92 339.6 362.92 339.6 362.97 339.56 363.05 339.54 363.35 339.56 363.39 339.56 363.51 339.53 363.62 339.53 363.69 339.5 363.86 339.41 364.02 339.32 364.04 339.32 364.06 339.32 364.11 339.34 364.13 339.35 364.14 339.34 364.15 339.33 364.17 339.33 364.33 339.3 364.41 339.31 364.55 339.35 364.59 339.36 364.77 339.35 364.79 339.35 365.17 339.37 365.25 339.36 365.81 339.09 365.82 339.09 365.93 339 366.07 338.94 366.2 338.85 366.25 338.82 366.32 338.81 366.43 338.81 367.03 338.82 367.21 338.82 368 338.82 368.21 338.82 368.78 338.82 369.57 338.83 369.55 338.98 369.55 339.03 369.58 339.09 369.69 339.23 369.71 339.27 369.72 339.31 369.71 339.35 Z" fill-rule="evenodd" id="Guinea Bissau" transform="translate(-362.9200134277344,-338.80999755859375) "/></svg>