<svg xmlns="http://www.w3.org/2000/svg" viewBox="0 0 10.899993896484375 16.290008544921875"><path d="M 270.46 351.72 270.41 351.77 270.41 351.73 270.42 351.68 270.44 351.63 270.48 351.61 270.5 351.58 270.5 351.57 270.53 351.57 270.59 351.57 270.69 351.58 270.69 351.59 270.57 351.69 270.46 351.72 Z M 273.42 360.92 273.43 360.95 273.49 361.01 273.51 361.05 273.53 361.13 273.54 361.15 273.59 361.12 273.6 361.15 273.6 361.18 273.59 361.2 273.59 361.24 273.6 361.26 273.66 361.33 273.66 361.34 273.65 361.42 273.66 361.44 273.69 361.43 273.74 361.39 273.76 361.41 273.76 361.44 273.74 361.46 273.74 361.48 273.75 361.51 273.76 361.53 273.79 361.57 273.8 361.59 273.8 361.61 273.79 361.64 273.8 361.68 273.88 361.75 273.91 361.8 273.91 361.88 273.92 361.9 273.94 361.91 273.99 361.92 274.01 361.93 274.04 361.97 274.06 362.07 274.07 362.12 274.09 362.18 274.3 362.48 274.36 362.51 274.58 362.51 274.67 362.56 274.68 362.57 274.69 362.59 274.71 362.6 274.76 362.62 274.78 362.63 274.79 362.65 274.8 362.68 274.7 362.72 274.63 362.76 274.59 362.76 274.56 362.74 274.53 362.72 274.49 362.69 274.45 362.69 274.41 362.7 274.38 362.73 274.35 362.74 274.31 362.74 274.26 362.73 274.23 362.74 274.14 362.82 274.11 362.83 274.08 362.83 273.92 362.8 273.89 362.79 273.86 362.76 273.84 362.74 273.82 362.73 273.78 362.73 273.7 362.74 273.67 362.74 273.63 362.73 273.57 362.7 273.53 362.66 273.5 362.62 273.49 362.56 273.42 362.5 273.31 362.54 273.12 362.66 273.08 362.65 273 362.61 272.94 362.6 272.89 362.62 272.86 362.65 272.83 362.68 272.8 362.71 272.75 362.74 272.72 362.75 272.7 362.77 272.64 362.92 272.62 362.96 272.47 363.14 272.41 363.19 272.3 363.22 272.23 363.22 272.05 363.18 271.97 363.18 271.9 363.2 271.72 363.28 271.64 363.32 271.61 363.34 271.57 363.34 271.5 363.31 271.47 363.3 271.45 363.32 271.46 363.35 271.47 363.42 271.46 363.46 271.45 363.5 271.41 363.57 271.37 363.61 271.28 363.63 271.18 363.63 271.1 363.61 271.09 363.59 271.07 363.54 271.06 363.52 271.02 363.5 271 363.51 270.97 363.52 270.95 363.53 270.9 363.53 270.86 363.52 270.81 363.5 270.77 363.49 270.75 363.47 270.73 363.43 270.72 363.43 270.7 363.45 270.68 363.47 270.67 363.51 270.65 363.53 270.63 363.55 270.58 363.57 270.57 363.58 270.57 363.6 270.58 363.65 270.58 363.67 270.52 363.71 270.49 363.72 270.33 363.74 270.32 363.75 270.29 363.79 270.31 363.83 270.35 363.92 270.37 363.96 270.37 364.02 270.35 364.05 270.28 364.16 270.26 364.16 270.25 364.15 270.23 364.15 270.23 364.14 270.22 364.13 270.21 364.12 270.2 364.12 270.19 364.12 270.16 364.15 270.15 364.15 269.92 364.13 269.89 364.13 269.86 364.15 269.8 364.24 269.76 364.28 269.72 364.31 269.67 364.33 269.62 364.34 269.58 364.34 269.54 364.34 269.5 364.32 269.44 364.27 269.42 364.23 269.41 364.18 269.38 364.13 269.34 364.09 269.29 364.07 269.28 364.06 269.19 364.03 268.82 363.97 268.68 363.92 268.64 363.9 268.61 363.86 268.57 363.76 268.55 363.73 268.51 363.71 268.5 363.67 268.49 363.63 268.47 363.6 268.45 363.59 268.4 363.61 268.37 363.6 268.37 363.59 268.35 363.55 268.34 363.54 268.33 363.54 268.3 363.53 268.29 363.53 268.27 363.51 268.23 363.43 268.21 363.41 268.14 363.35 268.1 363.3 268.04 363.2 267.99 363.17 267.95 363.15 267.91 363.16 267.87 363.17 267.82 363.17 267.8 363.16 267.78 363.15 267.76 363.14 267.71 363.08 267.7 363.07 267.74 363.02 267.79 362.93 267.78 362.9 267.78 362.9 267.76 362.9 267.74 362.9 267.65 362.86 267.63 362.86 267.58 362.88 267.55 362.88 267.53 362.85 267.52 362.81 267.52 362.76 267.52 362.72 267.53 362.7 267.56 362.66 267.57 362.63 267.57 362.61 267.56 362.56 267.57 362.54 267.58 362.5 267.58 362.48 267.58 362.46 267.55 362.41 267.55 362.38 267.55 362.36 267.58 362.32 267.59 362.3 267.59 362.28 267.57 362.21 267.56 362.13 267.58 362.04 267.57 361.97 267.52 361.92 267.5 361.91 267.46 361.91 267.44 361.91 267.41 361.89 267.35 361.83 267.26 361.79 267.21 361.76 267.19 361.72 267.2 361.7 267.22 361.66 267.22 361.63 267.21 361.61 267.21 361.56 267.21 361.54 267.14 361.4 267.13 361.35 267.13 361.33 267.13 361.31 267.11 361.27 267.1 361.26 267.08 361.25 267.06 361.24 267.07 361.24 267.08 361.21 267.08 361.2 267.01 361.06 267 361.02 267.01 360.66 267.06 360.48 267.07 360.43 267.06 360.31 267.07 360.25 267.09 360.2 267.15 360.1 267.16 360.09 267.18 360.09 267.19 360.08 267.2 360.07 267.19 360.05 267.18 360.03 267.17 360.02 267.18 360.01 267.21 360.01 267.21 360 267.21 359.98 267.19 359.96 267.18 359.95 267.18 359.92 267.2 359.9 267.21 359.89 267.23 359.87 267.26 359.77 267.27 359.75 267.32 359.65 267.35 359.58 267.35 359.58 267.37 359.57 267.38 359.57 267.4 359.56 267.4 359.55 267.38 359.52 267.38 359.5 267.39 359.4 267.35 359.41 267.36 359.37 267.4 359.28 267.38 359.22 267.34 359.18 267.3 359.13 267.3 359.06 267.36 359 267.54 358.94 267.63 358.86 267.68 358.84 267.7 358.83 267.71 358.8 267.71 358.78 267.71 358.76 267.71 358.73 267.73 358.68 267.76 358.65 267.85 358.61 267.89 358.58 267.9 358.55 267.89 358.51 267.88 358.46 267.89 358.42 267.93 358.36 267.97 358.32 268.01 358.31 268.03 358.3 268.04 358.29 268.05 358.28 268.04 358.25 268.03 358.24 268 358.23 267.93 358.21 267.91 358.22 267.89 358.21 267.9 358.15 267.89 358.14 267.87 358.13 267.84 358.07 267.77 358 267.75 357.97 267.75 357.91 267.78 357.88 267.78 357.85 267.74 357.81 267.64 357.78 267.61 357.75 267.58 357.69 267.58 357.67 267.58 357.65 267.58 357.61 267.59 357.6 267.61 357.57 267.61 357.56 267.61 357.54 267.58 357.52 267.58 357.51 267.6 357.47 267.68 357.39 267.69 357.34 267.69 357.32 267.69 357.3 267.69 357.29 267.66 357.29 267.64 357.28 267.62 357.26 267.6 357.24 267.58 357.22 267.45 357.15 267.42 357.11 267.4 357.13 267.39 357.14 267.34 357.13 267.33 357.12 267.3 357.13 267.29 357.12 267.28 357.11 267.29 357.08 267.28 357.07 267.25 357.07 267.21 357.09 267.19 357.09 267.18 357.08 267.15 357.04 267.13 357.03 267.1 357.03 267.08 357.02 267.06 357.03 267.05 357.05 267.03 357.06 267.01 357.06 266.95 357.04 266.91 357.05 266.88 357.06 266.85 357.05 266.84 357.01 266.83 356.99 266.81 356.98 266.78 356.98 266.77 357 266.76 357.02 266.75 357.03 266.73 357.03 266.71 357.03 266.67 357.01 266.65 356.98 266.63 356.94 266.64 356.89 266.7 356.83 266.72 356.83 266.76 356.83 266.78 356.82 266.81 356.8 266.81 356.78 266.82 356.76 266.82 356.73 266.83 356.71 266.9 356.61 266.91 356.58 266.93 356.54 266.93 356.5 266.92 356.4 266.95 356.3 266.96 356.17 266.98 356.11 266.99 356.07 267 356.03 267 355.94 267.04 355.81 267.04 355.74 266.98 355.71 266.88 355.66 266.83 355.62 266.8 355.59 266.8 355.58 266.73 355.42 266.71 355.4 266.61 355.43 266.58 355.4 266.56 355.35 266.53 355.34 266.43 355.37 266.39 355.39 266.3 355.48 266.26 355.51 266.21 355.51 266.12 355.47 266.07 355.48 266.05 355.49 266.03 355.53 266 355.55 265.99 355.55 265.97 355.54 265.96 355.52 265.94 355.51 265.9 355.5 265.77 355.52 265.74 355.51 265.72 355.5 265.69 355.49 265.67 355.48 265.64 355.47 265.51 355.46 265.46 355.47 265.36 355.49 265.19 355.3 265.02 355.12 264.85 354.93 264.69 354.75 264.52 354.57 264.35 354.38 264.18 354.2 264.01 354.01 263.94 353.93 263.9 353.84 263.93 353.82 264 353.78 264.03 353.75 264.14 353.59 264.17 353.52 264.19 353.49 264.22 353.47 264.29 353.46 264.33 353.44 264.35 353.43 264.37 353.4 264.4 353.34 264.43 353.32 264.46 353.31 264.49 353.32 264.51 353.31 264.52 353.27 264.52 353.24 264.53 353.16 264.53 353.14 264.52 353.13 264.51 353.13 264.51 353.11 264.5 353.1 264.46 353.07 264.45 353.05 264.43 352.99 264.43 352.97 264.44 352.86 264.45 352.83 264.47 352.8 264.48 352.78 264.48 352.76 264.47 352.75 264.47 352.73 264.44 352.69 264.42 352.63 264.4 352.6 264.37 352.56 264.34 352.55 264.32 352.53 264.31 352.48 264.33 352.4 264.36 352.32 264.4 352.24 264.47 352.16 264.5 352.14 264.54 352.13 264.59 352.13 264.63 352.15 264.65 352.11 264.69 352.11 264.74 352.13 264.78 352.1 264.88 352.11 264.93 352.1 264.94 352.09 265 352.03 265.01 352.02 265.01 352 265 351.98 264.98 351.95 264.98 351.93 264.99 351.92 265.02 351.92 265.07 351.93 265.08 351.94 265.1 351.96 265.12 351.97 265.14 351.98 265.16 351.98 265.21 351.97 265.24 351.96 265.29 351.98 265.37 352.03 265.4 352.04 265.45 352.02 265.48 351.99 265.55 351.9 265.58 351.87 265.62 351.85 265.78 351.81 266.07 351.64 266.13 351.62 266.16 351.64 266.18 351.53 266.2 351.5 266.24 351.47 266.27 351.44 266.31 351.42 266.33 351.39 266.34 351.35 266.35 351.31 266.35 351.27 266.34 351.24 266.31 351.21 266.23 351.17 266.23 351.17 266.2 351.14 266.18 351.13 266.15 351.12 266.11 351.13 266.08 351.13 266.05 351.12 266.03 351.1 266 351.09 265.95 351.09 265.9 351.11 265.86 351.14 265.81 351.23 265.79 351.23 265.63 351.11 265.61 351.08 265.57 351.02 265.57 350.95 265.6 350.89 265.65 350.84 265.67 350.83 265.67 350.81 265.67 350.79 265.67 350.78 265.65 350.75 265.62 350.68 265.61 350.65 265.59 350.64 265.57 350.63 265.55 350.62 265.54 350.6 265.54 350.58 265.55 350.57 265.55 350.56 265.54 350.54 265.51 350.52 265.47 350.51 265.45 350.5 265.4 350.41 265.38 350.38 265.38 350.34 265.41 350.28 265.51 350.25 265.55 350.21 265.58 350.15 265.6 350.12 265.61 350.11 265.65 350.12 265.67 350.1 265.68 350.07 265.67 350.04 265.7 349.98 265.7 349.96 265.7 349.91 265.7 349.89 265.71 349.87 265.76 349.81 265.8 349.73 265.83 349.7 265.88 349.69 266.07 349.69 266.17 349.68 266.22 349.64 266.24 349.59 266.29 349.54 266.4 349.47 266.41 349.46 266.44 349.43 266.46 349.4 266.49 349.37 266.59 349.33 266.63 349.29 266.67 349.26 266.71 349.22 266.76 349.21 266.85 349.22 266.9 349.21 266.93 349.19 266.96 349.15 266.98 349.06 267 349.03 267 349.01 267 348.98 267 348.95 267.01 348.91 267.07 348.87 267.1 348.84 267.13 348.82 267.24 348.8 267.29 348.8 267.34 348.78 267.38 348.74 267.41 348.69 267.41 348.65 267.32 348.5 267.09 348.25 266.95 348.05 266.95 348.05 267 348.07 267.07 348.11 267.15 348.19 267.28 348.39 267.36 348.47 267.42 348.5 267.53 348.53 267.59 348.56 267.71 348.64 267.77 348.68 267.84 348.69 267.86 348.73 267.86 348.73 267.86 348.75 267.87 348.75 267.89 348.75 268.01 348.78 268.03 348.79 268.06 348.83 268.26 349 268.2 348.92 268.13 348.84 268.03 348.78 267.87 348.71 267.66 348.57 267.53 348.5 267.51 348.47 267.48 348.41 267.49 348.38 267.54 348.37 267.58 348.39 267.66 348.45 267.75 348.48 267.79 348.51 267.86 348.57 268.01 348.66 268.21 348.75 268.45 348.92 268.85 349.16 268.98 349.26 269.02 349.29 269.05 349.33 269.17 349.44 269.47 349.78 269.59 349.87 269.65 349.96 269.71 350.04 269.76 350.15 269.8 350.2 269.81 350.19 269.78 350.13 269.79 350.11 269.82 350.11 269.87 350.13 269.92 350.17 269.96 350.21 270 350.25 270.04 350.31 270.08 350.38 270.14 350.45 270.17 350.5 270.35 350.67 270.39 350.74 270.4 350.82 270.38 350.89 270.4 350.87 270.39 350.97 270.4 351.25 270.36 351.48 270.33 351.52 270.28 351.56 270.25 351.58 270.21 351.62 270.19 351.67 270.17 351.71 270.16 351.8 270.11 351.93 270.1 351.98 270.11 352.12 270.1 352.15 270.08 352.18 270.08 352.2 270.08 352.59 270.07 352.64 270.06 352.67 269.91 352.88 269.92 352.88 269.93 352.89 270 352.83 270.02 352.81 270.02 352.81 270.03 352.79 270.04 352.79 270.07 352.8 270.09 352.8 270.1 352.8 270.1 352.8 270.13 352.8 270.11 352.79 270.15 352.7 270.15 352.41 270.18 352.31 270.41 351.9 270.47 351.82 270.55 351.77 270.65 351.74 270.74 351.75 270.83 351.77 270.96 351.84 271 351.88 271.01 351.89 271.02 351.9 271.04 351.91 271.05 351.92 271.06 351.92 271.07 351.91 271.07 351.89 271.09 351.88 271.28 351.9 271.42 351.97 271.46 352.01 271.53 352.06 271.61 352.14 271.67 352.18 271.79 352.29 271.86 352.37 271.88 352.4 271.92 352.42 271.97 352.47 272.1 352.57 272.17 352.62 272.22 352.66 272.25 352.7 272.28 352.73 272.32 352.78 272.37 352.89 272.44 353.04 272.46 353.07 272.47 353.12 272.48 353.13 272.5 353.11 272.5 353.09 272.5 353.06 272.5 353.03 272.53 352.99 272.55 352.98 272.56 352.97 272.57 352.97 272.62 352.97 272.66 352.99 272.7 353.01 272.74 353.03 272.81 353.07 272.84 353.09 272.92 353.14 273.01 353.2 273.19 353.39 273.24 353.45 273.28 353.53 273.3 353.62 273.31 353.68 273.31 353.71 273.32 353.73 273.33 353.75 273.33 353.77 273.3 353.73 273.28 353.71 273.32 353.79 273.34 353.82 273.34 353.87 273.34 353.9 273.35 353.98 273.31 354.06 273.3 354.1 273.28 354.14 273.27 354.17 273.27 354.21 273.25 354.27 273.24 354.32 273.3 354.4 273.29 354.52 273.27 354.59 273.24 354.64 273.21 354.69 273.1 354.85 273.1 354.86 273.08 354.91 273.07 354.94 273.07 354.99 273.06 355.04 273.04 355.08 272.93 355.19 272.91 355.21 272.91 355.23 272.91 355.25 272.93 355.25 272.97 355.24 272.99 355.25 273 355.25 273.01 355.25 273.01 355.41 273.02 355.42 273.03 355.44 273.05 355.44 273.07 355.44 273.08 355.43 273.09 355.41 273.06 355.39 273.05 355.37 273.06 355.35 273.08 355.33 273.1 355.33 273.12 355.34 273.13 355.35 273.13 355.36 273.15 355.4 273.22 355.49 273.24 355.53 273.23 355.56 273.2 355.59 273.17 355.61 273.13 355.62 273.12 355.58 273.1 355.55 273.07 355.54 273.03 355.54 273.01 355.56 272.99 355.59 272.98 355.65 272.95 355.72 272.94 355.75 272.94 355.78 272.95 355.8 273.03 355.88 273.01 355.89 272.99 355.89 272.97 355.88 272.95 355.88 272.92 355.88 272.9 355.89 272.88 355.9 272.86 355.91 272.8 355.92 272.63 355.94 272.59 355.95 272.56 355.95 272.55 355.95 272.51 355.91 272.5 355.91 272.45 355.91 272.39 355.92 272.3 355.95 272.21 355.92 272.13 355.92 272.05 355.96 271.99 356.01 271.96 356.08 271.93 356.1 271.88 356.1 271.85 356.1 271.83 356.09 271.81 356.08 271.78 356.09 271.77 356.1 271.72 356.18 271.69 356.22 271.65 356.26 271.61 356.31 271.6 356.38 271.62 356.41 271.65 356.43 271.69 356.46 271.72 356.55 271.78 356.62 271.8 356.66 271.79 356.71 271.78 356.74 271.74 356.8 271.7 356.91 271.66 356.98 271.62 357.07 271.61 357.15 271.59 357.18 271.56 357.2 271.54 357.24 271.53 357.28 271.54 357.31 271.55 357.35 271.55 357.38 271.55 357.44 271.54 357.48 271.51 357.52 271.32 357.72 271.29 357.76 271.28 357.81 271.31 357.9 271.34 358.09 271.36 358.17 271.42 358.24 271.56 358.35 271.6 358.39 271.71 358.56 271.76 358.66 271.77 358.7 271.77 358.8 271.79 358.85 271.81 358.89 271.85 358.91 271.96 358.95 272.04 359.01 272.05 359.02 272.06 359.06 272.08 359.1 272.08 359.1 272.08 359.11 272.09 359.12 272.1 359.13 272.13 359.13 272.13 359.14 272.14 359.14 272.19 359.17 272.22 359.21 272.22 359.25 272.19 359.31 272.19 359.33 272.19 359.35 272.19 359.37 272.18 359.41 272.18 359.43 272.18 359.45 272.19 359.48 272.2 359.49 272.21 359.5 272.23 359.5 272.29 359.52 272.33 359.54 272.33 359.54 272.4 359.58 272.42 359.58 272.44 359.58 272.46 359.54 272.49 359.54 272.52 359.56 272.53 359.57 272.55 359.57 272.57 359.57 272.58 359.58 272.59 359.59 272.59 359.6 272.61 359.59 272.63 359.58 272.63 359.57 272.69 359.55 272.71 359.53 272.71 359.49 272.78 359.52 272.84 359.54 272.9 359.53 272.97 359.48 273.02 359.59 273.03 359.62 273.02 359.7 273.02 359.71 273 359.74 273.01 359.76 273.02 359.77 273.03 359.8 273.03 359.83 273.01 359.87 273.01 359.9 273.02 359.92 273.04 359.97 273.03 360 273.02 360.02 273.02 360.03 273.04 360.05 273.06 360.05 273.08 360.05 273.1 360.03 273.12 360.02 273.12 360.03 273.12 360.03 273.13 360.03 273.13 360.03 273.1 360.1 273.12 360.14 273.16 360.17 273.18 360.22 273.18 360.24 273.19 360.27 273.19 360.28 273.19 360.29 273.16 360.29 273.15 360.3 273.15 360.33 273.16 360.35 273.16 360.36 273.15 360.38 273.13 360.41 273.16 360.43 273.23 360.44 273.24 360.47 273.22 360.5 273.18 360.53 273.16 360.55 273.19 360.66 273.2 360.69 273.22 360.7 273.23 360.72 273.24 360.74 273.26 360.75 273.28 360.74 273.33 360.72 273.35 360.72 273.37 360.73 273.33 360.81 273.35 360.85 273.35 360.85 273.43 360.83 273.45 360.85 273.45 360.87 273.43 360.9 273.42 360.92 Z" fill-rule="evenodd" id="Guyana" transform="translate(-263.8999938964844,-348.04998779296875) "/></svg>