<svg xmlns="http://www.w3.org/2000/svg" viewBox="0 0 6.3199920654296875 4.80999755859375"><path d="M 236.64 326.41 236.66 326.43 236.68 326.41 236.7 326.42 236.71 326.43 236.72 326.44 236.79 326.44 236.83 326.44 236.87 326.45 236.9 326.47 236.9 326.51 236.87 326.52 236.83 326.53 236.74 326.52 236.7 326.51 236.67 326.49 236.61 326.44 236.62 326.42 236.63 326.41 236.64 326.41 Z M 236.6 325.27 236.55 325.3 236.48 325.3 236.42 325.26 236.42 325.2 236.47 325.18 236.54 325.18 236.6 325.21 236.6 325.27 Z M 238.58 325.03 238.56 325.04 238.54 325.03 238.52 324.99 238.5 324.97 238.49 324.97 238.44 324.96 238.24 324.92 238.17 324.92 238.1 324.9 237.91 324.77 237.71 324.72 237.65 324.68 237.61 324.62 237.57 324.59 237.56 324.58 237.54 324.56 237.53 324.54 237.52 324.51 237.53 324.49 237.55 324.46 237.59 324.43 237.64 324.41 237.69 324.41 237.74 324.41 238.05 324.54 238.2 324.59 238.37 324.67 238.52 324.74 238.59 324.82 238.61 324.87 238.61 324.93 238.61 324.99 238.58 325.03 Z M 240.94 322.68 240.96 322.75 240.97 322.79 240.96 322.82 240.96 322.88 240.97 322.94 241.03 323.08 241.06 323.27 241.06 323.37 241.03 323.42 241.02 323.44 240.99 323.51 240.97 323.53 240.91 323.56 240.9 323.57 240.91 323.62 240.95 323.68 240.96 323.69 241.03 323.76 241.17 323.83 241.2 323.84 241.19 323.98 241.18 324.02 241.15 324.06 241.08 324.12 241.04 324.15 240.98 324.24 240.88 324.35 240.85 324.36 240.74 324.4 240.7 324.42 240.7 324.46 240.74 324.46 240.8 324.44 240.85 324.44 240.87 324.45 240.9 324.52 240.92 324.54 240.97 324.59 240.99 324.61 241 324.65 241.01 324.75 241.02 324.84 241.02 324.88 241.01 324.93 240.99 324.97 240.97 325.01 240.94 325.04 240.88 325.07 240.86 325.08 240.86 325.08 240.83 325.12 240.78 325.2 240.75 325.23 240.67 325.26 240.5 325.23 240.42 325.24 240.38 325.27 240.4 325.31 240.6 325.51 240.61 325.54 240.62 325.57 240.61 325.58 240.59 325.59 240.58 325.62 240.59 325.66 240.63 325.68 240.71 325.7 240.73 325.72 240.77 325.77 240.78 325.79 240.87 325.84 240.99 325.89 241.02 325.91 241.04 325.93 241.04 325.93 241.02 325.98 241.02 325.98 240.92 326.15 240.9 326.19 240.89 326.24 240.9 326.26 240.92 326.33 240.93 326.35 240.93 326.39 240.93 326.46 240.92 326.5 240.9 326.57 240.86 326.55 240.7 326.34 240.64 326.28 240.56 326.23 240.39 326.18 240.31 326.14 240.24 326.11 240.15 326.11 239.98 326.14 239.75 326.14 239.42 326.14 239.25 326.17 239.21 326.15 239.18 326.14 239.17 326.15 239.18 326.24 239.16 326.26 239.14 326.26 239.07 326.24 239.04 326.23 238.78 326.26 238.73 326.25 238.73 326.26 238.74 326.29 238.74 326.3 238.71 326.3 238.7 326.29 238.68 326.28 238.62 326.32 238.5 326.31 238.44 326.33 238.38 326.3 238.3 326.27 238.22 326.25 237.98 326.22 237.92 326.22 237.91 326.22 237.84 326.18 237.82 326.17 237.53 326.13 237.39 326.14 237.37 326.13 237.39 326.1 237.42 326.09 237.5 326.09 237.5 326.08 237.35 326.06 237.17 326.06 237.12 326.08 237.04 326.12 237.02 326.13 237 326.12 236.98 326.07 236.96 326.06 236.93 326.08 236.92 326.12 236.9 326.16 236.87 326.14 236.86 326.14 236.83 326.16 236.81 326.15 236.8 326.12 236.81 326.08 236.78 326.09 236.75 326.15 236.72 326.17 236.72 326.14 236.73 326.11 236.75 326.06 236.73 326.08 236.71 326.11 236.69 326.13 236.69 326.12 236.68 326.12 236.65 326.11 236.64 326.11 236.64 326.12 236.65 326.13 236.64 326.14 236.55 326.22 236.39 326.29 236.35 326.33 236.31 326.4 236.4 326.49 236.42 326.53 236.43 326.58 236.42 326.59 236.39 326.6 236.25 326.6 236.23 326.6 236.2 326.59 236.19 326.57 236.18 326.54 236.04 326.33 236.03 326.33 236.01 326.32 236.01 326.32 236 326.31 236 326.3 236 326.29 235.99 326.28 235.95 326.24 235.73 326.09 235.7 326.07 235.63 326.06 235.6 326.05 235.58 326.03 235.56 326.01 235.56 325.98 235.55 325.97 235.53 325.97 235.51 325.97 235.45 325.94 235.43 325.93 235.41 325.95 235.37 325.94 235.33 325.95 235.28 325.98 235.23 326 235.19 325.99 235.14 325.97 235.1 325.95 235.08 325.93 235.06 325.9 234.98 325.86 234.96 325.82 234.95 325.77 234.94 325.74 234.88 325.67 234.96 325.55 234.95 325.54 234.94 325.52 234.98 325.49 235.01 325.38 235.04 325.36 235.05 325.35 235.04 325.32 235.04 325.29 235.03 325.27 235.02 325.25 235.04 325.23 235.11 325.18 235.21 325.14 235.25 325.14 235.31 325.15 235.33 325.15 235.34 325.13 235.35 325.11 235.37 325.11 235.4 325.11 235.52 325.11 235.61 325.13 235.9 325.26 236.03 325.27 236.03 325.27 236.05 325.29 236.05 325.29 236.06 325.31 236.07 325.31 236.08 325.3 236.1 325.3 236.16 325.33 236.19 325.34 236.29 325.35 236.31 325.35 236.34 325.36 236.39 325.4 236.4 325.41 236.43 325.41 236.44 325.41 236.44 325.4 236.46 325.39 236.48 325.4 236.51 325.41 236.53 325.41 236.54 325.4 236.57 325.38 236.58 325.38 236.58 325.37 236.61 325.34 236.62 325.33 236.64 325.33 236.66 325.33 236.68 325.33 236.78 325.3 236.8 325.3 236.88 325.32 236.88 325.36 236.84 325.39 236.78 325.38 236.78 325.39 236.73 325.38 236.69 325.37 236.65 325.38 236.6 325.39 236.61 325.4 236.65 325.42 236.69 325.43 236.69 325.44 236.69 325.46 236.7 325.48 236.74 325.5 236.81 325.49 236.84 325.51 236.92 325.46 237.02 325.45 237.37 325.47 237.41 325.48 237.5 325.53 237.55 325.54 237.73 325.53 237.81 325.54 237.89 325.57 237.93 325.59 237.97 325.61 238 325.61 238.06 325.6 238.22 325.57 238.41 325.62 238.4 325.65 238.44 325.65 238.5 325.63 238.54 325.62 238.57 325.64 238.73 325.67 238.81 325.65 238.87 325.59 238.92 325.52 238.95 325.44 239.01 325.38 239.08 325.36 239.45 325.39 239.46 325.39 239.47 325.38 239.47 325.37 239.48 325.36 239.49 325.36 239.5 325.37 239.5 325.38 239.51 325.38 239.56 325.43 239.58 325.44 239.62 325.43 239.63 325.39 239.64 325.34 239.64 325.2 239.64 325.17 239.65 325.14 239.67 325.12 239.68 325.1 239.67 325.08 239.65 325.06 239.55 325.01 239.52 325.01 239.47 325.01 239.44 325 239.39 324.96 239.35 324.91 239.31 324.88 239.26 324.88 239.18 324.84 239.16 324.82 239.14 324.77 239.03 324.6 239 324.56 238.95 324.53 238.91 324.5 238.87 324.49 238.83 324.47 238.6 324.21 238.59 324.16 238.68 324.12 238.76 324.11 238.81 324.1 238.83 324.06 238.82 324.02 238.79 324 238.75 323.98 238.71 323.96 238.69 323.93 238.63 323.83 238.62 323.8 238.63 323.79 238.64 323.78 238.63 323.78 238.64 323.77 238.66 323.75 238.68 323.69 238.7 323.67 238.72 323.66 238.76 323.65 238.79 323.65 238.82 323.65 238.79 323.59 238.76 323.58 238.72 323.57 238.69 323.55 238.68 323.51 238.69 323.46 238.7 323.43 238.71 323.45 238.73 323.46 238.75 323.47 238.77 323.46 238.8 323.44 238.8 323.43 238.79 323.41 238.79 323.35 238.78 323.34 238.79 323.35 238.82 323.35 238.83 323.36 238.84 323.37 238.87 323.38 238.89 323.38 238.85 323.3 238.83 323.29 238.71 323.28 238.68 323.26 238.66 323.23 238.64 323.19 238.59 323.16 238.45 323.1 238.34 323.02 238.29 323.01 238.26 323 238.18 322.93 238.16 322.93 238.14 322.94 238 322.89 237.98 322.88 237.94 322.87 237.92 322.87 237.91 322.87 237.9 322.88 237.89 322.89 237.88 322.9 237.85 322.9 237.82 322.9 237.77 322.87 237.72 322.85 237.69 322.82 237.65 322.87 237.55 322.88 237.34 322.87 237.3 322.86 237.28 322.85 237.26 322.84 237.22 322.8 237.2 322.79 237.17 322.77 237.16 322.72 237.15 322.67 237.15 322.65 237.22 322.52 237.24 322.49 237.26 322.49 237.37 322.44 237.37 322.42 237.25 322.42 237.29 322.39 237.33 322.39 237.37 322.39 237.42 322.39 237.69 322.27 237.77 322.21 237.81 322.15 237.84 322.18 237.86 322.19 237.93 322.18 237.96 322.19 238.02 322.21 238.05 322.21 238.08 322.21 238.09 322.21 238.13 322.2 238.17 322.19 238.2 322.2 238.23 322.21 238.26 322.23 238.27 322.19 238.31 322.17 238.36 322.17 238.41 322.18 238.47 322.16 238.54 322.14 238.61 322.13 238.68 322.13 238.91 322.19 238.96 322.22 239.01 322.24 239.14 322.28 239.15 322.29 239.19 322.35 239.25 322.39 239.31 322.41 239.35 322.39 239.39 322.41 239.46 322.44 239.52 322.45 239.55 322.45 239.56 322.48 239.67 322.58 239.67 322.6 239.66 322.59 239.62 322.58 239.65 322.65 239.66 322.66 239.7 322.67 239.71 322.67 239.7 322.65 239.73 322.61 239.72 322.61 239.71 322.61 239.7 322.61 239.7 322.61 239.7 322.6 239.71 322.59 239.71 322.6 239.71 322.58 239.71 322.58 239.7 322.55 239.71 322.55 239.75 322.57 239.79 322.57 239.83 322.56 239.85 322.53 239.87 322.5 239.92 322.5 239.95 322.53 239.93 322.58 239.96 322.6 240 322.61 240.09 322.59 240.1 322.59 240.11 322.6 240.12 322.61 240.16 322.64 240.18 322.65 240.25 322.65 240.27 322.65 240.28 322.66 240.29 322.67 240.31 322.68 240.34 322.71 240.36 322.71 240.38 322.7 240.39 322.68 240.4 322.67 240.43 322.66 240.47 322.63 240.53 322.63 240.64 322.66 240.7 322.67 240.72 322.68 240.7 322.71 240.68 322.72 240.66 322.73 240.59 322.73 240.62 322.77 240.66 322.77 240.7 322.76 240.73 322.76 240.77 322.79 240.8 322.81 240.81 322.8 240.82 322.77 240.81 322.75 240.77 322.74 240.75 322.72 240.74 322.7 240.74 322.68 240.76 322.66 240.79 322.67 240.84 322.68 240.94 322.68 Z M 238.71 321.84 238.92 321.93 239.01 321.98 238.98 322.04 238.95 322.02 238.76 322 238.67 321.96 238.57 321.94 238.53 321.92 238.5 321.93 238.48 321.94 238.45 321.94 238.41 321.93 238.35 321.91 238.3 321.89 238.27 321.86 238.28 321.86 238.29 321.86 238.3 321.84 238.4 321.81 238.51 321.79 238.58 321.79 238.62 321.8 238.66 321.81 238.71 321.84 Z" fill-rule="evenodd" id="Haiti" transform="translate(-234.8800048828125,-321.7900085449219) "/></svg>