<svg xmlns="http://www.w3.org/2000/svg" viewBox="0 0 798 181"><path d="M 483.37 111.05 481.7 110.49 484.98 110.18 485.1 110.49 483.37 111.05 Z M 451.41 46.59 457.28 45.72 459.32 47.46 458.64 48.63 464.45 49.87 466.19 51.42 466.31 53.46 469.65 55.87 473.05 61.56 480.59 65.33 485.78 71.33 485.41 72.39 486.46 73.56 494.69 76.47 494.38 78.01 497.78 79.07 501.92 77.71 502.91 76.34 502.23 74.43 499.14 74.12 498.15 72.88 498.46 71.02 502.6 65.64 507.73 62.43 509.84 62.43 512.37 60.88 513.73 64.22 517.38 66.69 516.02 67.56 516.7 71.02 510.08 74.06 509.34 75.42 516.27 78.57 527.77 80.12 542.85 79.56 560.84 75.79 565.11 73.56 562.7 71.71 562.7 70.65 566.78 68.55 573.02 69.6 572.34 71.71 574.75 72.88 584.03 72.32 590.89 69.85 598.8 74.18 607.4 74.24 612.9 73.19 614.94 74.86 619.27 76.22 620.26 77.64 630.4 80.98 633.55 83.89 643.07 84.2 647.9 86.3 646.84 86.8 642.02 85.44 637.57 89.58 636.21 92.12 636.46 93.67 640.6 97.25 644.25 98.12 647.52 96.08 658.53 92.3 658.22 90.39 660.94 91.13 662.3 95.03 666.07 98.86 667.37 101.52 676.03 108.26 678.13 114.82 683.63 118.22 694.27 121.69 683.26 125.46 686.72 128.74 691.17 130.59 692.91 129.6 692.22 129.05 693.15 128.24 700.94 126.76 700.39 125.58 701.13 125.46 709.72 129.05 716.21 133.19 722.21 135.11 739.58 135.79 759.86 134.06 795.91 127.5 799 128.43 789.11 131.03 768.09 133.19 757.82 135.61 743.73 136.1 736.86 136.97 735.81 137.83 730 137.15 720.91 138.64 719.06 140.12 711.64 142.16 704.28 147.05 696.31 147.54 684.06 150.7 681.84 151.56 679.74 154.35 671.14 152.55 666.75 149.71 659.21 147.11 656.8 153.67 659.21 155.21 658.53 157.75 659.58 158.8 659.52 161.4 655.81 161.71 653.77 163.32 653.15 165.17 646.6 166.29 645.3 168.39 630.71 177.36 612.59 180.33 594.41 176.93 582.67 176.43 577.23 178.04 575.43 180.64 573.08 181.75 565.48 182 559.3 178.72 547.61 175.32 541.61 168.95 528.26 164 523.19 160.16 517.69 152.25 510.64 148.04 509.84 145.26 507.05 142.29 507.42 138.88 506.74 138.51 507.42 137.83 506.74 134.06 504.7 132.95 505.32 131.65 504.7 127.07 502.29 121.13 502.6 116.55 499.57 114.45 498.03 111.42 494.38 109.32 486.09 110 483.68 108.45 484.92 107.09 490.55 105.54 492.65 104 495.06 101.4 495.99 97.5 495.24 94.04 496.17 92.68 495 91.87 494.44 89.46 491.1 87.54 487.15 89.4 485.1 88.72 484.73 87.17 487.95 85.93 488.51 84.2 486.09 83.03 483.37 83.52 481.27 82.16 482.26 80.86 485.1 79.93 488.75 80.37 489.37 78.26 487.45 75.97 483 74.67 469.09 74.8 456.91 72.57 447.2 74.49 441.7 76.78 440.96 74.92 432.18 71.33 421.42 70.28 419.75 68.55 418.39 64.53 415.61 63.17 416.54 62.06 416.72 57.66 413.94 54.94 414.44 53.21 418.27 50.3 422.29 48.76 424.95 49 426.25 47.33 429.46 48.14 430.45 47.64 430.14 46.59 432.55 45.54 442.14 43.87 445.91 41.46 445.29 38.61 448.07 37.5 450.73 39.72 449 43.68 449.37 45.23 451.41 46.59 Z M 9.84 83.15 14.6 84.2 17.57 85.93 16.58 88.16 17.26 89.03 16.09 89.71 17.01 91.31 16.21 92.8 14.11 93.36 7.62 92.12 2.36 89.52 1 87.23 2.11 83.33 9.84 83.15 Z M 610.55 1.68 609.38 1.25 609.13 1 611.66 1.93 610.55 1.68 Z M 653.4 88.04 652.35 87.66 650.62 86.61 653.03 85.93 654.08 87.17 653.4 88.04 Z M 622.98 17.7 620.75 17.02 620.2 15.85 623.91 16.03 624.15 17.95 622.98 17.7 Z M 616.36 13.31 618.9 11.02 619.27 7.99 621.31 8.79 621.43 12.14 617.72 13.68 616.36 13.31 Z" fill-rule="evenodd" transform="translate(-1,-1) "/></svg>