<svg xmlns="http://www.w3.org/2000/svg" viewBox="0 0 13.819992065429688 10.1400146484375"><path d="M 205.77 337.52 205.72 337.53 205.69 337.52 205.68 337.52 205.67 337.51 205.67 337.5 205.69 337.5 205.68 337.49 205.66 337.46 205.66 337.45 205.69 337.44 205.72 337.43 205.79 337.43 205.79 337.45 205.79 337.49 205.77 337.52 Z M 205.77 337.26 205.79 337.26 205.85 337.25 205.88 337.25 205.88 337.26 205.85 337.28 205.87 337.37 205.84 337.4 205.74 337.37 205.69 337.34 205.69 337.3 205.72 337.26 205.74 337.25 205.77 337.26 Z M 215.73 333.56 215.7 333.56 215.62 333.56 215.59 333.56 215.53 333.59 215.44 333.59 215.43 333.59 215.4 333.58 215.38 333.57 215.39 333.56 215.41 333.54 215.31 333.53 215.28 333.54 215.24 333.56 215.23 333.53 215.21 333.51 215.18 333.5 215.15 333.48 215.13 333.52 215.1 333.56 215.05 333.59 215 333.59 214.98 333.58 214.95 333.54 214.94 333.53 214.91 333.52 214.89 333.53 214.88 333.54 214.9 333.56 214.88 333.57 214.88 333.59 214.88 333.62 214.86 333.6 214.84 333.61 214.84 333.64 214.85 333.67 214.84 333.66 214.8 333.65 214.81 333.66 214.81 333.68 214.82 333.68 214.79 333.69 214.73 333.74 214.68 333.76 214.67 333.78 214.66 333.81 214.65 333.84 214.64 333.84 214.62 333.82 214.58 333.81 214.53 333.8 214.48 333.81 214.44 333.83 214.43 333.85 214.45 333.92 214.44 333.92 214.43 333.9 214.41 333.89 214.39 333.89 214.36 333.89 214.37 333.92 214.32 333.94 214.2 333.95 214.21 333.98 214.22 333.99 214.24 334 214.2 334 214.16 334.01 214.12 334.03 214.09 334.06 214.08 334.04 214.07 334.04 214.06 334.03 214.04 334.03 214.05 334.05 214.06 334.06 214.03 334.05 213.99 334.01 213.97 334 213.96 334.05 213.96 334.07 213.97 334.09 213.75 334.1 213.71 334.1 213.71 334.08 213.69 334.07 213.66 334.07 213.63 334.07 213.62 334.06 213.62 334.05 213.57 334.02 213.55 334.02 213.53 334.04 213.55 334.1 213.57 334.12 213.59 334.14 213.59 334.15 213.57 334.16 213.56 334.16 213.55 334.16 213.53 334.15 213.51 334.16 213.5 334.17 213.49 334.18 213.48 334.18 213.43 334.2 213.39 334.2 213.37 334.19 213.32 334.14 213.3 334.12 213.28 334.11 213.25 334.1 213.22 334.1 213.21 334.13 213.22 334.24 213.21 334.29 213.16 334.31 213.14 334.31 213.08 334.3 213.05 334.29 213.03 334.28 213.02 334.22 213 334.2 212.97 334.24 212.94 334.3 212.89 334.35 212.81 334.38 212.75 334.41 212.73 334.42 212.7 334.41 212.67 334.39 212.65 334.38 212.62 334.39 212.62 334.34 212.63 334.32 212.47 334.32 212.42 334.31 212.33 334.27 212.29 334.27 212.25 334.29 212.22 334.21 212.19 334.18 212.15 334.15 212.15 334.12 212.14 334.09 212.1 334.08 212.1 334.08 212.12 334.06 212.13 334.05 212.09 334 212.04 333.96 211.99 333.94 211.93 333.94 211.8 333.97 211.76 333.99 211.66 334.09 211.62 334.12 211.58 334.14 211.58 334.14 211.55 334.17 211.53 334.21 211.52 334.29 211.51 334.3 211.5 334.31 211.46 334.32 211.48 334.34 211.54 334.39 211.49 334.43 211.48 334.45 211.53 334.45 211.53 334.46 211.52 334.49 211.44 334.57 211.39 334.59 211.35 334.56 211.32 334.52 211.28 334.51 211.26 334.54 211.25 334.61 211.25 334.72 211.24 334.74 211.19 334.79 211.19 334.81 211.19 334.84 211.19 334.85 211.13 334.9 211.16 334.92 211.2 334.96 211.23 335.01 211.23 335.06 211.21 335.09 211.16 335.12 211.11 335.14 211.05 335.15 210.97 335.15 210.94 335.16 210.89 335.18 210.87 335.19 210.86 335.2 210.85 335.21 210.83 335.23 210.83 335.25 210.82 335.26 210.81 335.26 210.79 335.26 210.78 335.26 210.76 335.28 210.73 335.31 210.71 335.35 210.69 335.41 210.68 335.45 210.65 335.49 210.63 335.52 210.57 335.57 210.53 335.59 210.45 335.61 210.44 335.64 210.43 335.68 210.41 335.71 210.37 335.72 210.34 335.73 210.32 335.73 210.27 335.75 210.25 335.78 210.22 335.8 210.15 335.83 210.15 335.85 210.15 335.85 210.14 335.85 210.14 335.86 210.14 335.87 210.13 335.87 210.11 335.86 210.06 335.9 210.03 335.91 209.99 335.91 209.97 335.9 209.96 335.92 209.96 335.97 209.94 336.04 209.93 336.08 209.93 336.1 209.97 336.11 209.98 336.14 209.98 336.17 209.96 336.21 209.94 336.22 209.94 336.23 209.94 336.22 209.93 336.22 209.9 336.19 209.86 336.19 209.81 336.19 209.76 336.17 209.72 336.13 209.7 336.08 209.67 336.04 209.62 336.02 209.59 336.02 209.57 336.03 209.55 336.04 209.52 336.02 209.51 336.01 209.46 335.95 209.3 335.83 209.3 335.77 209.32 335.73 209.32 335.7 209.15 335.73 209.12 335.74 209.1 335.76 209.09 335.78 209.08 335.81 209.06 335.83 209.03 335.86 209.01 335.88 208.98 335.89 208.96 335.9 208.88 336.02 208.74 336.18 208.7 336.23 208.68 336.3 208.67 336.33 208.65 336.36 208.61 336.38 208.57 336.39 208.46 336.39 208.44 336.39 208.42 336.39 208.41 336.38 208.37 336.34 208.34 336.35 208.31 336.36 208.28 336.37 208.24 336.36 208.17 336.32 208.08 336.32 207.9 336.36 207.8 336.35 207.75 336.35 207.7 336.38 207.68 336.39 207.67 336.4 207.66 336.42 207.66 336.45 207.66 336.49 207.65 336.61 207.66 336.63 207.66 336.64 207.67 336.65 207.69 336.66 207.7 336.68 207.7 336.71 207.69 336.79 207.69 336.82 207.76 337.1 207.76 337.13 207.73 337.19 207.73 337.23 207.73 337.25 207.75 337.26 207.76 337.26 207.78 337.27 207.79 337.3 207.8 337.31 207.81 337.38 207.81 337.41 207.79 337.44 207.76 337.47 207.74 337.48 207.73 337.49 207.71 337.5 207.69 337.49 207.56 337.43 207.52 337.43 207.48 337.44 207.45 337.46 207.35 337.55 207.33 337.57 207.31 337.6 207.3 337.66 207.29 337.67 207.3 337.68 207.32 337.72 207.32 337.73 207.3 337.84 207.31 337.86 207.32 337.86 207.33 337.87 207.32 337.89 207.31 337.91 207.28 337.92 207.26 337.93 207.21 338.01 207.19 338.04 207.13 338.08 207.08 338.1 207.07 338.14 207.05 338.13 207 338.1 206.96 338.1 206.45 338.13 206.45 338.13 206.48 338.12 206.48 338.09 206.5 338.06 206.52 338.05 206.55 338.04 206.55 338.02 206.49 338.02 206.45 338.01 206.41 337.99 206.39 337.96 206.37 337.94 206.37 337.93 206.37 337.89 206.39 337.88 206.45 337.87 206.48 337.87 206.35 337.83 206.28 337.83 206.23 337.84 206.22 337.84 206.21 337.75 206.18 337.66 206.14 337.58 206.1 337.53 206.08 337.49 206.08 337.49 206.08 337.48 206.06 337.48 206.05 337.48 206.04 337.48 206.02 337.46 206.01 337.44 206.02 337.42 206.04 337.4 206.06 337.39 206.09 337.37 206.11 337.36 206.16 337.29 206.17 337.28 206.2 337.28 206.24 337.28 206.31 337.25 206.31 337.23 206.31 337.22 206.31 337.2 206.28 337.17 206.26 337.16 206.24 337.16 206.2 337.16 206.18 337.16 206.16 337.14 206.12 337.17 206.11 337.18 206.1 337.2 206.09 337.23 206.1 337.25 206.1 337.26 206.08 337.28 206.07 337.28 205.99 337.28 205.96 337.29 205.94 337.29 205.92 337.28 205.92 337.26 205.95 337.26 205.95 337.25 205.9 337.24 205.86 337.22 205.82 337.22 205.79 337.25 205.78 337.25 205.78 337.23 205.81 337.17 205.78 337.16 205.77 337.13 205.78 337.07 205.77 337.04 205.74 337.04 205.71 337.07 205.69 337.09 205.71 337.16 205.67 337.22 205.61 337.26 205.55 337.28 205.51 337.27 205.46 337.24 205.42 337.22 205.41 337.21 205.41 337.19 205.41 337.19 205.39 337.19 205.37 337.18 205.34 337.17 205.51 337.09 205.55 337.05 205.56 337.02 205.55 336.99 205.54 336.96 205.52 336.94 205.49 336.93 205.45 336.94 205.42 336.94 205.4 336.88 205.41 336.82 205.47 336.69 205.47 336.65 205.47 336.57 205.48 336.53 205.5 336.5 205.52 336.48 205.53 336.46 205.51 336.42 205.53 336.38 205.57 336.28 205.59 336.25 205.55 336.23 205.49 336.18 205.45 336.15 205.44 336.14 205.41 336.13 205.4 336.12 205.38 336.09 205.36 336.03 205.34 336.02 205.3 336.02 205.28 336.04 205.26 336.06 205.24 336.07 205.22 336.08 205.18 336.07 205.15 336.07 205.14 336.07 205.11 336.09 205.1 336.1 205.08 336.09 205.05 336.07 205.04 336.07 205.03 336.07 205 336.08 204.9 336.13 204.88 336.07 204.84 336.03 204.8 335.99 204.77 335.95 204.74 335.87 204.71 335.85 204.66 335.85 204.54 335.86 204.5 335.86 204.45 335.85 204.45 335.85 204.41 335.84 204.39 335.85 204.39 335.86 204.39 335.9 204.4 335.91 204.42 335.93 204.42 335.93 204.41 335.97 204.4 335.97 204.38 335.97 204.35 335.98 204.33 335.99 204.33 336.01 204.32 336.02 204.3 336.04 204.28 336.05 204.25 336.05 204.23 336.06 204.21 336.09 204.2 336.08 204.18 336.08 204.16 336.07 204.15 336.07 204.14 336.08 204.14 336.1 204.14 336.11 204.14 336.12 204.12 336.11 204.08 336.1 204.06 336.1 203.97 336.12 203.93 336.14 203.89 336.16 203.83 336.16 203.85 336.13 203.85 336.09 203.83 336.04 203.82 336.01 203.82 335.98 203.83 335.95 203.83 335.93 203.82 335.9 203.82 335.9 203.83 335.9 203.83 335.9 203.83 335.9 203.83 335.89 203.83 335.89 203.84 335.88 203.82 335.86 203.79 335.85 203.7 335.85 203.53 335.79 203.47 335.79 203.42 335.8 203.4 335.8 203.4 335.8 203.4 335.79 203.4 335.77 203.39 335.75 203.37 335.74 203.36 335.74 203.31 335.73 203.28 335.71 203.28 335.67 203.29 335.64 203.29 335.6 203.28 335.57 203.26 335.57 203.24 335.59 203.21 335.6 203.11 335.59 203.07 335.6 203.06 335.53 203.03 335.47 202.98 335.41 202.93 335.37 202.89 335.37 202.86 335.39 202.83 335.4 202.81 335.41 202.79 335.39 202.78 335.37 202.78 335.35 202.78 335.34 202.77 335.31 202.75 335.28 202.73 335.25 202.68 335.21 202.67 335.19 202.66 335.12 202.64 335.09 202.61 335.07 202.53 335.06 202.51 335.04 202.52 335.02 202.52 335 202.51 334.97 202.5 334.95 202.49 334.94 202.48 334.93 202.47 334.92 202.45 334.93 202.43 334.95 202.4 335.01 202.38 335.03 202.27 335 202.22 334.96 202.1 334.93 202.03 334.9 201.95 334.89 201.92 334.88 201.91 334.81 201.91 334.78 201.93 334.75 201.95 334.73 202 334.72 202.02 334.7 202.04 334.66 202.07 334.63 202.14 334.57 202.16 334.54 202.17 334.52 202.19 334.51 202.23 334.51 202.25 334.51 202.31 334.53 202.34 334.53 202.36 334.5 202.37 334.47 202.37 334.43 202.36 334.31 202.37 334.3 202.39 334.27 202.4 334.25 202.4 334.22 202.39 334.21 202.38 334.2 202.36 334.18 202.34 334.15 202.3 334.05 202.28 334.01 202.23 333.96 202.21 333.93 202.2 333.9 202.2 333.85 202.22 333.83 202.28 333.78 202.3 333.75 202.31 333.73 202.34 333.66 202.34 333.6 202.3 333.56 202.33 333.46 202.36 333.41 202.39 333.39 202.41 333.38 202.47 333.34 202.7 333.27 202.78 333.23 203.06 333.01 203.25 332.87 203.44 332.72 203.63 332.57 203.83 332.42 203.83 332.42 203.9 332.36 204.05 332.24 204.15 332.14 204.22 332.03 204.23 332.01 204.28 332.01 204.31 332 204.35 331.98 204.38 331.96 204.4 331.98 204.41 331.95 204.41 331.92 204.42 331.9 204.44 331.89 204.46 331.9 204.56 331.97 204.61 331.99 204.67 331.96 204.8 331.83 204.85 331.79 204.84 331.75 204.86 331.75 204.95 331.76 205.08 331.68 205.1 331.65 205.1 331.63 205.09 331.62 205.06 331.61 205.04 331.59 205.03 331.58 205.04 331.57 205.14 331.57 205.17 331.56 205.21 331.53 205.27 331.51 205.47 331.5 205.51 331.49 205.52 331.45 205.54 331.45 205.55 331.44 205.59 331.45 205.63 331.46 205.72 331.52 205.76 331.52 205.76 331.51 205.74 331.49 205.76 331.46 205.84 331.41 205.8 331.47 205.78 331.51 205.8 331.52 205.81 331.54 206.02 331.73 206.09 331.76 206.16 331.74 206.17 331.73 206.19 331.69 206.2 331.68 206.23 331.68 206.28 331.68 206.29 331.67 206.31 331.63 206.34 331.61 206.39 331.61 206.61 331.66 206.81 331.73 207.02 331.75 207.26 331.81 207.33 331.81 207.42 331.81 207.55 331.77 207.59 331.76 207.6 331.75 207.64 331.72 207.65 331.72 207.66 331.71 207.69 331.72 207.71 331.73 207.72 331.74 207.82 331.75 208.25 331.71 208.32 331.71 208.39 331.74 208.4 331.75 208.45 331.78 208.48 331.79 208.54 331.79 208.58 331.78 208.62 331.77 208.83 331.64 208.88 331.58 208.91 331.55 208.98 331.52 209.06 331.51 209.38 331.49 209.41 331.49 209.43 331.47 209.51 331.41 209.56 331.36 209.58 331.3 209.55 331.26 209.41 331.24 209.34 331.22 209.35 331.2 209.41 331.19 209.58 331.22 209.7 331.25 209.78 331.26 209.88 331.29 209.99 331.31 210.02 331.32 210.05 331.33 210.06 331.36 210.05 331.39 210.06 331.41 210.08 331.41 210.08 331.4 210.08 331.39 210.09 331.39 210.09 331.38 210.13 331.38 210.15 331.41 210.19 331.44 210.23 331.48 210.33 331.52 210.5 331.57 210.62 331.56 210.78 331.54 211.02 331.53 211.15 331.48 211.31 331.36 211.42 331.3 211.58 331.29 211.69 331.33 211.91 331.43 212.17 331.51 212.3 331.55 212.33 331.57 212.32 331.6 212.29 331.64 212.29 331.68 212.29 331.74 212.34 331.78 212.38 331.79 212.44 331.77 212.44 331.72 212.45 331.7 212.47 331.71 212.49 331.73 212.52 331.76 212.58 331.75 212.63 331.76 212.74 331.77 212.76 331.75 212.8 331.73 212.75 331.71 212.69 331.7 212.52 331.67 212.45 331.64 212.4 331.62 212.38 331.58 212.47 331.6 212.77 331.66 212.97 331.68 213.1 331.68 213.15 331.7 213.27 331.8 213.43 331.93 213.67 332.14 213.9 332.34 214.03 332.44 214.2 332.55 214.25 332.57 214.29 332.59 214.36 332.6 214.38 332.61 214.4 332.64 214.4 332.65 214.39 332.66 214.35 332.67 214.31 332.65 214.23 332.59 214.17 332.57 214.12 332.54 214.1 332.53 214.04 332.53 214.01 332.52 213.98 332.49 213.99 332.49 214 332.48 214.01 332.48 213.99 332.45 213.92 332.37 213.9 332.37 213.88 332.38 213.85 332.36 213.82 332.34 213.79 332.32 213.75 332.33 213.72 332.34 213.71 332.36 213.68 332.39 213.66 332.38 213.6 332.35 213.63 332.33 213.64 332.32 213.65 332.3 213.64 332.29 213.61 332.29 213.59 332.29 213.57 332.29 213.56 332.32 213.58 332.36 213.6 332.4 213.63 332.43 213.63 332.44 213.62 332.44 213.62 332.44 213.62 332.45 213.6 332.45 213.54 332.32 213.51 332.29 213.49 332.29 213.46 332.29 213.42 332.31 213.39 332.31 213.35 332.3 213.33 332.29 213.35 332.35 213.36 332.36 213.4 332.38 213.4 332.4 213.39 332.42 213.39 332.45 213.4 332.45 213.41 332.41 213.46 332.39 213.48 332.33 213.5 332.32 213.52 332.34 213.55 332.41 213.58 332.47 213.6 332.52 213.55 332.54 213.52 332.57 213.54 332.63 213.58 332.69 213.62 332.73 213.67 332.76 213.72 332.77 213.74 332.75 213.72 332.68 213.75 332.71 213.78 332.74 213.79 332.77 213.77 332.81 213.8 332.85 213.84 332.85 213.95 332.84 213.95 332.86 213.93 332.86 213.92 332.86 213.89 332.87 213.89 332.89 213.91 332.92 213.94 332.96 213.97 332.99 214.02 333 214.06 332.99 214.11 332.98 214.16 332.96 214.19 332.93 214.17 332.91 214.07 332.86 214.06 332.84 214.05 332.83 214.04 332.81 214.02 332.81 214 332.81 213.83 332.75 213.8 332.73 213.75 332.66 213.72 332.64 213.74 332.62 213.76 332.61 213.81 332.59 214.01 332.68 214.04 332.72 214.05 332.75 214.09 332.77 214.12 332.79 214.19 332.8 214.21 332.82 214.23 332.84 214.25 332.87 214.24 332.88 214.22 332.9 214.21 332.9 214.21 332.92 214.25 332.93 214.28 332.9 214.3 332.9 214.32 332.97 214.31 333.05 214.32 333.07 214.33 333.09 214.35 333.09 214.36 333.07 214.36 333.04 214.38 333.04 214.4 333.09 214.41 333.08 214.45 333.01 214.49 332.99 214.53 332.98 214.61 332.97 214.62 332.96 214.62 332.9 214.62 332.89 214.63 332.88 214.65 332.88 214.67 332.88 214.81 332.91 214.85 332.9 214.85 332.92 214.83 332.93 214.84 332.94 214.84 332.95 214.85 332.97 214.85 333.04 214.84 333.07 214.81 333.08 214.78 333.07 214.77 333.04 214.76 333.02 214.75 333.02 214.72 333.01 214.7 333.01 214.69 333.02 214.68 333.04 214.66 333.07 214.65 333.09 214.64 333.09 214.64 333.1 214.63 333.13 214.64 333.15 214.65 333.15 214.67 333.15 214.68 333.14 214.67 333.12 214.67 333.1 214.67 333.09 214.68 333.07 214.7 333.07 214.7 333.13 214.72 333.17 214.74 333.19 214.79 333.17 214.8 333.15 214.82 333.12 214.83 333.11 214.85 333.1 214.95 333.06 214.95 333.05 214.94 333.03 214.93 333.01 214.92 333 214.9 332.99 214.89 332.97 214.89 332.93 214.87 332.89 214.84 332.86 214.8 332.89 214.74 332.85 214.7 332.84 214.66 332.86 214.65 332.84 214.66 332.83 214.66 332.81 214.63 332.8 214.53 332.77 214.51 332.75 214.49 332.73 214.44 332.71 214.41 332.69 214.42 332.65 214.46 332.63 214.49 332.65 214.52 332.68 214.55 332.7 214.57 332.71 214.81 332.83 215.11 332.94 215.23 333.03 215.25 333.07 215.29 333.22 215.33 333.31 215.39 333.4 215.45 333.45 215.73 333.56 Z M 207.41 331.03 207.42 331.05 207.38 331.05 207.34 331.06 207.28 331.08 207.23 331.11 207.2 331.09 207.16 331.07 207.18 331.05 207.27 331 207.33 330.99 207.36 330.98 207.39 330.97 207.42 330.97 207.43 330.99 207.41 331.03 Z M 208.92 330.3 208.87 330.32 208.83 330.31 208.76 330.32 208.71 330.31 208.67 330.32 208.66 330.33 208.63 330.35 208.62 330.35 208.6 330.35 208.56 330.36 208.52 330.39 208.44 330.43 208.36 330.46 208.28 330.52 208.2 330.54 208.15 330.55 208.12 330.58 208.08 330.62 208.04 330.65 208.02 330.61 208.04 330.56 208.1 330.5 208.19 330.45 208.26 330.42 208.39 330.36 208.53 330.31 208.63 330.28 208.7 330.27 208.79 330.28 208.85 330.28 208.96 330.28 208.92 330.3 Z M 209.6 330.27 209.48 330.34 209.48 330.32 209.5 330.28 209.53 330.22 209.56 330.21 209.6 330.15 209.62 330.11 209.7 330.08 209.74 330.1 209.77 330.12 209.76 330.15 209.71 330.16 209.7 330.19 209.67 330.23 209.63 330.23 209.6 330.27 Z M 213.99 328.02 213.97 328.03 213.95 328.03 213.94 328.02 213.93 328 213.95 328.01 213.96 328.01 213.98 328.02 213.99 328.02 Z" fill-rule="evenodd" id="Honduras" transform="translate(-201.91000366210938,-328) "/></svg>