<svg xmlns="http://www.w3.org/2000/svg" viewBox="0 0 15.029998779296875 9.19000244140625"><path d="M 449.06 244.7 449.11 244.7 449.12 244.7 449.12 244.7 449.12 244.7 449.14 244.68 449.21 244.65 449.29 244.66 449.37 244.7 449.34 244.8 449.34 244.85 449.4 244.85 449.41 244.85 449.43 244.88 449.43 244.91 449.42 244.95 449.43 245 449.45 245.06 449.56 245.23 449.57 245.25 449.59 245.25 449.61 245.25 449.62 245.23 449.63 245.23 449.64 245.23 449.65 245.23 449.69 245.25 449.73 245.25 449.76 245.25 449.81 245.23 449.82 245.23 449.82 245.23 449.83 245.23 450 245.45 450.03 245.52 450.06 245.62 450.1 245.7 450.11 245.72 450.11 245.72 450.14 245.7 450.3 245.7 450.34 245.69 450.38 245.66 450.42 245.65 450.46 245.68 450.46 245.69 450.54 245.74 450.61 245.8 450.64 245.84 450.66 245.88 450.68 245.94 450.67 245.98 450.65 246.01 450.65 246.06 450.61 246.11 450.63 246.15 450.71 246.21 450.68 246.26 450.62 246.36 450.58 246.39 450.49 246.43 450.46 246.45 450.44 246.49 450.44 246.52 450.45 246.54 450.45 246.57 450.43 246.61 450.42 246.61 450.37 246.62 450.33 246.64 450.3 246.66 450.25 246.73 450.18 246.79 450.1 246.82 450.01 246.84 449.94 246.82 449.77 246.74 449.71 246.75 449.67 246.88 449.64 246.91 449.61 246.92 449.58 246.92 449.48 246.91 449.45 246.91 449.41 246.92 449.37 246.95 449.35 246.97 449.3 247.05 449.28 247.06 449.24 247.09 449.23 247.11 449.22 247.14 449.21 247.2 449.2 247.22 449.15 247.3 449.14 247.32 449.14 247.35 449.14 247.37 449.14 247.37 449.13 247.4 449.11 247.41 449.1 247.42 448.99 247.45 448.85 247.55 448.78 247.62 448.74 247.7 448.75 247.8 448.77 247.92 448.77 248.03 448.73 248.12 448.63 248.15 448.59 248.17 448.55 248.22 448.46 248.34 448.45 248.38 448.42 248.5 448.41 248.53 448.38 248.57 448.38 248.61 448.38 248.65 448.38 248.68 448.38 248.71 448.37 248.75 448.35 248.77 448.3 248.82 448.28 248.85 448.27 248.88 448.26 248.94 448.24 248.97 448.2 249.01 448.09 249.08 448.04 249.13 447.95 249.23 447.96 249.24 447.96 249.26 447.98 249.27 448 249.27 448.02 249.29 448.04 249.32 448.04 249.33 448.03 249.33 447.99 249.49 447.97 249.51 447.87 249.6 447.86 249.6 447.85 249.61 447.85 249.65 447.85 249.69 447.86 249.72 447.86 249.76 447.84 249.8 447.82 249.82 447.74 249.84 447.69 249.88 447.66 249.94 447.62 250.07 447.61 250.08 447.6 250.1 447.59 250.12 447.59 250.14 447.6 250.15 447.6 250.15 447.61 250.16 447.67 250.2 447.66 250.26 447.62 250.32 447.58 250.35 447.52 250.36 447.49 250.4 447.49 250.41 447.47 250.45 447.43 250.51 447.38 250.54 447.3 250.53 447.25 250.54 447.22 250.58 447.2 250.65 447.2 250.77 447.17 250.83 447.13 250.88 447.1 250.93 447.09 250.99 447.16 251.12 447.17 251.19 447.12 251.23 447.03 251.23 446.98 251.25 446.95 251.29 446.92 251.36 446.91 251.5 446.9 251.56 446.87 251.61 446.85 251.63 446.78 251.63 446.77 251.63 446.66 251.76 446.62 251.78 446.58 251.74 446.57 251.72 446.55 251.71 446.53 251.71 446.51 251.72 446.47 251.72 446.38 251.69 446.34 251.68 446.33 251.68 446.3 251.7 446.27 251.7 446.26 251.7 446.22 251.66 446.19 251.65 446.15 251.65 446.1 251.66 446.08 251.68 446.06 251.69 445.97 251.76 445.96 251.78 445.96 251.81 445.98 251.88 445.98 251.9 445.97 251.92 445.95 251.92 445.92 251.91 445.91 251.92 445.9 251.94 445.89 251.98 445.89 251.99 445.88 252.02 445.85 252.05 445.81 252.08 445.68 252.1 445.66 252.1 445.64 252.09 445.61 252.08 445.55 252.02 445.46 251.98 445.37 251.96 445.32 252.05 444.96 252.06 444.87 252.17 444.75 252.07 444.71 252.05 444.66 252.08 444.64 252.08 444.62 252.07 444.6 252.04 444.59 252.03 444.55 252.02 444.53 252.02 444.47 252.05 444.41 252.06 444.32 252.01 444.18 251.99 444.09 252.01 444.05 252.03 443.87 252.1 443.83 252.1 443.69 252.01 443.65 251.98 443.6 251.96 443.55 251.96 443.42 251.99 443.38 251.99 443.34 251.99 443.28 252.02 443.23 252.05 443.2 252.09 443.2 252.11 443.22 252.14 443.22 252.17 443.17 252.2 443.15 252.22 443.14 252.25 443.12 252.27 443.09 252.3 443.07 252.31 443.04 252.31 443.01 252.32 443 252.35 442.98 252.38 442.96 252.41 442.92 252.42 442.84 252.42 442.8 252.43 442.78 252.45 442.75 252.46 442.74 252.5 442.73 252.54 442.7 252.57 442.64 252.59 442.44 252.57 442.4 252.54 442.4 252.54 442.36 252.47 442.31 252.46 442.26 252.48 442.23 252.54 442.22 252.63 442.19 252.64 442.13 252.63 442.08 252.67 442.07 252.68 442.07 252.69 442.07 252.71 442.09 252.73 442.09 252.75 442.09 252.76 442.08 252.76 442.03 252.74 441.9 252.73 441.87 252.74 441.84 252.76 441.82 252.78 441.77 252.79 441.74 252.81 441.72 252.82 441.71 252.82 441.68 252.79 441.66 252.82 441.65 252.85 441.64 252.87 441.62 252.89 441.59 252.88 441.5 252.84 441.39 252.8 441.35 252.81 441.3 252.86 441.29 252.87 441.29 252.91 441.28 252.93 441.28 252.93 441.25 252.97 441.2 253.06 441.17 253.1 441.08 253.18 441.02 253.2 440.97 253.18 440.93 253.2 440.85 253.3 440.81 253.33 440.8 253.33 440.78 253.34 440.77 253.33 440.75 253.33 440.75 253.33 440.71 253.28 440.68 253.28 440.64 253.3 440.6 253.32 440.57 253.3 440.53 253.26 440.48 253.26 440.41 253.21 440.37 253.2 440.19 253.2 440.17 253.2 440.13 253.23 440.1 253.24 440.08 253.24 439.85 253.17 439.69 253.17 439.66 253.17 439.64 253.19 439.62 253.21 439.61 253.23 439.59 253.24 439.59 253.23 439.54 253.15 439.48 253.1 439.21 253.02 439.16 253.02 439.14 253.01 439.13 252.98 439.13 252.97 439.13 252.93 439.12 252.88 439.11 252.86 439.1 252.83 438.99 252.72 438.91 252.68 438.82 252.66 438.63 252.65 438.61 252.66 438.6 252.68 438.6 252.69 438.58 252.69 438.57 252.64 438.55 252.63 438.49 252.65 438.45 252.66 438.44 252.65 438.45 252.62 438.43 252.56 438.41 252.6 438.39 252.6 438.36 252.58 438.36 252.58 438.33 252.56 438.33 252.54 438.34 252.54 438.37 252.53 438.39 252.52 438.37 252.5 438.33 252.49 438.29 252.48 438.28 252.42 438.27 252.39 438.25 252.29 438.23 252.26 438.15 252.14 438.12 252.13 437.94 252.12 437.91 252.11 437.8 252.03 437.77 252 437.76 251.96 437.75 251.94 437.63 251.84 437.61 251.82 437.55 251.71 437.47 251.62 437.45 251.6 437.44 251.58 437.42 251.52 437.4 251.47 437.41 251.42 437.39 251.37 437.37 251.35 437.35 251.33 437.32 251.3 437.31 251.3 437.31 251.31 437.3 251.32 437.29 251.31 437.28 251.3 437.27 251.29 437.26 251.28 437.25 251.28 437.19 251.26 437.17 251.25 437.16 251.3 437.14 251.3 437.11 251.24 437.05 251.2 437 251.14 436.97 251.08 436.93 251.03 436.88 251 436.82 250.99 436.8 250.98 436.78 250.97 436.77 250.98 436.76 251.01 436.75 251.01 436.72 250.98 436.62 250.92 436.61 250.91 436.58 250.77 436.5 250.71 436.42 250.58 436.34 250.54 436.3 250.5 436.29 250.48 436.28 250.46 436.3 250.43 436.35 250.41 436.36 250.39 436.38 250.38 436.36 250.32 436.33 250.29 436.29 250.29 436.28 250.29 436.28 250.29 436.26 250.28 436.26 250.22 436.23 250.23 436.21 250.21 436.19 250.17 436.16 250.14 436.13 250.04 436.13 250.03 436.13 250.02 436.14 250 436.16 249.96 436.16 249.95 436.18 249.91 436.19 249.87 436.2 249.84 436.19 249.83 436.16 249.82 436.14 249.81 436.13 249.8 436.09 249.76 436.07 249.75 435.86 249.76 435.77 249.77 435.76 249.77 435.68 249.75 435.71 249.73 435.74 249.71 435.82 249.6 435.85 249.57 435.9 249.53 435.95 249.51 435.96 249.5 435.98 249.47 435.98 249.45 435.98 249.44 435.98 249.42 436.01 249.4 436.03 249.39 436.05 249.38 436.06 249.33 436.08 249.29 436.11 249.29 436.19 249.31 436.28 249.29 436.33 249.3 436.36 249.33 436.38 249.34 436.39 249.34 436.4 249.34 436.41 249.33 436.41 249.33 436.45 249.32 436.5 249.32 436.54 249.31 436.53 249.28 436.5 249.25 436.47 249.24 436.41 249.23 436.44 249.2 436.53 249.16 436.56 249.15 436.57 249.13 436.56 249.11 436.53 249.1 436.49 249.08 436.47 249.04 436.49 248.99 436.53 248.97 436.59 248.9 436.6 248.86 436.57 248.82 436.53 248.82 436.46 248.85 436.43 248.83 436.43 248.82 436.45 248.76 436.45 248.73 436.43 248.71 436.41 248.71 436.39 248.71 436.38 248.7 436.37 248.65 436.41 248.57 436.4 248.52 436.4 248.52 436.4 248.52 436.47 248.48 436.5 248.45 436.52 248.41 436.51 248.35 436.44 248.21 436.43 248.21 436.42 248.2 436.41 248.2 436.41 248.19 436.41 248.17 436.42 248.16 436.43 248.15 436.43 248.14 436.43 248.02 436.45 247.98 436.48 247.97 436.51 247.99 436.53 248.03 436.77 247.92 436.86 247.86 436.89 247.83 436.88 247.7 436.9 247.67 436.97 247.65 436.99 247.61 436.99 247.56 436.98 247.51 436.95 247.48 436.91 247.46 436.92 247.4 436.9 247.33 436.86 247.28 436.82 247.26 436.74 247.27 436.6 247.21 436.53 247.22 436.41 247.17 436.37 247.15 436.39 247.13 436.42 247.07 436.44 247.06 436.45 247.07 436.46 247.08 436.47 247.08 436.49 247.08 436.52 247.05 436.6 247 436.62 246.99 436.63 246.96 436.63 246.92 436.64 246.88 436.73 246.85 436.82 246.86 437 246.93 437.02 246.95 437.04 246.98 437.04 247.01 437.06 247.05 437.09 247.07 437.11 247.09 437.23 247.11 437.25 247.1 437.28 247.08 437.32 247.01 437.35 246.98 437.38 247.07 437.47 247.08 437.64 247.04 437.8 247.02 437.85 247 437.83 246.98 437.81 246.96 437.8 246.92 437.79 246.82 437.78 246.75 437.77 246.69 437.81 246.66 437.79 246.63 437.77 246.57 437.75 246.56 437.71 246.54 437.69 246.52 437.69 246.49 437.72 246.47 437.8 246.46 437.83 246.43 437.86 246.39 437.87 246.35 437.88 246.29 437.87 246.29 437.86 246.28 437.85 246.28 437.85 246.26 437.85 246.25 437.87 246.24 437.88 246.23 437.88 246.2 437.9 246.18 437.9 246.16 437.87 246.14 438.01 246.02 438.09 245.97 438.17 245.99 438.26 246.01 438.29 246.02 438.43 246.04 438.5 246.1 438.73 246.4 438.75 246.42 438.77 246.43 438.83 246.45 438.85 246.46 438.93 246.57 438.95 246.6 438.98 246.6 439 246.59 439.02 246.58 439.06 246.6 439.1 246.63 439.14 246.67 439.16 246.71 439.18 246.73 439.28 246.78 439.33 246.81 439.51 246.86 439.64 246.85 440.15 246.82 440.42 246.85 440.51 246.84 440.67 246.77 441.12 246.72 441.22 246.73 441.31 246.76 441.37 246.78 441.44 246.77 441.49 246.74 441.56 246.65 441.6 246.62 441.65 246.61 441.71 246.59 441.71 246.59 441.62 246.53 441.56 246.46 441.55 246.4 441.55 246.33 441.57 246.2 441.57 246.16 441.55 246.14 441.55 246.13 441.58 246.1 441.6 246.09 441.64 246.08 441.66 246.06 441.72 245.94 441.76 245.9 441.97 245.86 442.08 245.83 442.11 245.82 442.16 245.82 442.2 245.82 442.34 245.8 442.61 245.84 442.63 245.83 442.77 245.75 443.07 245.75 443.18 245.67 443.19 245.65 443.19 245.63 443.19 245.62 443.18 245.6 443.18 245.6 443.18 245.59 443.18 245.59 443.18 245.59 443.21 245.54 443.23 245.41 443.26 245.36 443.29 245.34 443.5 245.29 443.52 245.29 443.54 245.29 443.57 245.31 443.62 245.37 443.64 245.39 443.74 245.37 443.79 245.37 443.83 245.42 443.83 245.45 443.82 245.48 443.82 245.51 443.84 245.54 443.86 245.55 443.94 245.51 443.99 245.53 444.08 245.61 444.12 245.63 444.18 245.61 444.28 245.51 444.33 245.48 444.41 245.46 444.42 245.45 444.51 245.4 444.55 245.38 444.57 245.37 444.58 245.34 444.6 245.28 444.6 245.25 444.63 245.22 444.65 245.22 444.67 245.23 444.71 245.23 444.75 245.21 444.82 245.15 444.84 245.14 444.89 245.16 444.91 245.19 444.94 245.2 444.99 245.18 445.05 245.11 445.11 245.03 445.15 244.93 445.24 244.67 445.27 244.61 445.3 244.57 445.37 244.5 445.37 244.49 445.4 244.45 445.4 244.44 445.4 244.43 445.4 244.41 445.4 244.4 445.4 244.34 445.4 244.32 445.4 244.29 445.47 244.27 445.6 244.26 446.07 244.15 446.11 244.15 446.14 244.17 446.21 244.23 446.24 244.23 446.31 244.24 446.43 244.32 446.51 244.32 446.56 244.32 446.63 244.33 446.69 244.36 446.74 244.4 446.79 244.41 446.96 244.33 447.04 244.32 447.08 244.33 447.11 244.36 447.13 244.37 447.16 244.35 447.19 244.31 447.2 244.28 447.22 244.25 447.26 244.22 447.3 244.21 447.38 244.21 447.49 244.17 447.52 244.18 447.6 244.23 447.64 244.24 447.66 244.26 447.67 244.29 447.69 244.35 447.71 244.38 447.74 244.39 447.82 244.39 447.86 244.4 447.88 244.44 447.91 244.58 447.93 244.61 448.05 244.8 448.1 244.86 448.16 244.91 448.23 244.93 448.3 244.93 448.41 244.87 448.51 244.85 448.58 244.81 448.61 244.8 448.73 244.8 448.77 244.78 448.81 244.78 448.94 244.79 448.98 244.78 449.02 244.75 449.06 244.7 Z" id="Hungary" transform="translate(-435.67999267578125,-244.14999389648438) "/></svg>