<svg xmlns="http://www.w3.org/2000/svg" viewBox="0 0 24.470001220703125 16.600006103515625"><path d="M 355.07 184.58 355.05 184.61 355.03 184.59 355.02 184.55 355.01 184.51 354.99 184.45 355 184.39 355.04 184.37 355.09 184.37 355.1 184.38 355.09 184.4 355.09 184.42 355.11 184.48 355.09 184.53 355.07 184.58 Z M 360.67 183.12 360.66 183.17 360.62 183.22 360.61 183.23 360.62 183.21 360.63 183.18 360.63 183.15 360.61 183.14 360.59 183.14 360.49 183.17 360.5 183.13 360.57 183.07 360.6 183.04 360.62 183.04 360.65 183.04 360.67 183.07 360.67 183.12 Z M 359.31 171.25 359.28 171.27 359.25 171.26 359.23 171.24 359.22 171.2 359.22 171.16 359.2 171.1 359.18 171.02 359.19 171 359.24 171.05 359.26 171.08 359.28 171.11 359.31 171.18 359.31 171.25 Z M 364.48 168.2 364.67 168.38 364.77 168.43 364.74 168.48 364.71 168.5 364.68 168.53 364.67 168.62 364.69 168.62 364.7 168.62 364.7 168.65 364.65 168.7 364.66 168.71 364.69 168.76 364.7 168.77 364.67 168.82 364.7 168.83 364.78 168.81 364.87 168.83 364.91 168.81 364.91 168.83 364.9 168.9 364.9 168.92 365.11 168.92 365.15 168.94 365.18 168.98 365.2 169.03 365.2 169.08 365.2 169.11 365.24 169.26 365.15 169.44 365.1 169.51 365.03 169.56 365.06 169.64 365.09 169.61 365.12 169.63 365.15 169.66 365.22 169.69 365.23 169.73 365.22 169.79 365.2 169.87 365.23 169.9 365.4 169.9 365.47 169.87 365.5 169.88 365.51 169.9 365.53 169.94 365.54 169.94 365.56 169.93 365.58 169.9 365.58 169.96 365.6 170.01 365.62 170.05 365.68 170.07 365.75 170.15 365.82 170.21 365.86 170.28 365.91 170.33 365.96 170.28 365.94 170.27 365.93 170.26 365.93 170.24 365.97 170.21 366 170.15 366.01 170.07 366.02 169.96 366.01 169.85 366 169.77 366.02 169.72 366.08 169.68 366.35 169.68 366.51 169.62 366.52 169.58 366.52 169.53 366.54 169.49 366.69 169.38 366.72 169.32 366.73 169.23 366.77 169.17 366.86 169.08 366.92 169.03 367.11 169 367.16 169.01 367.24 169.09 367.3 169.11 367.72 169.04 367.61 169.16 367.22 169.34 367.04 169.47 366.84 169.52 366.77 169.58 366.72 169.68 366.77 169.7 366.8 169.73 366.81 169.77 366.82 169.78 366.87 169.88 366.88 169.9 366.89 169.93 366.88 170 366.86 170.09 366.84 170.13 366.63 170.34 366.59 170.36 366.45 170.37 366.39 170.42 366.35 170.54 366.42 170.59 366.45 170.61 366.59 170.62 366.61 170.66 366.63 170.76 366.6 170.78 366.56 170.82 366.54 170.84 366.58 170.88 366.83 170.89 366.98 170.95 367.08 170.94 367.26 170.78 367.37 170.76 367.42 170.79 367.47 170.84 367.5 170.92 367.51 171.05 367.52 171.11 367.55 171.13 367.58 171.14 367.6 171.16 367.6 171.22 367.63 171.34 367.63 171.4 367.62 171.42 367.59 171.45 367.58 171.48 367.58 171.5 367.59 171.56 367.58 171.58 367.53 171.72 367.52 171.75 367.5 171.78 367.36 171.96 367.19 172.08 367.14 172.15 367.15 172.24 367.1 172.32 366.99 172.44 367.06 172.44 367.12 172.39 367.22 172.25 367.19 172.36 367.12 172.48 367.1 172.58 367.17 172.62 367.25 172.6 367.43 172.5 367.9 172.37 368.07 172.27 368.17 172.25 368.24 172.33 368.14 172.55 368.09 172.61 368.09 172.65 368.11 172.7 368.12 172.72 368.13 172.73 368.18 172.77 368.32 172.87 368.36 172.92 368.24 172.95 368.17 173.01 368.12 173.14 368 173.28 367.96 173.4 367.79 173.6 367.76 173.67 367.73 173.75 367.72 173.83 367.75 173.79 367.8 173.68 367.82 173.65 367.84 173.64 367.92 173.56 367.94 173.53 367.98 173.44 368.26 173.03 368.31 172.99 368.36 173.01 368.54 173.14 368.51 173.09 368.44 173.02 368.42 172.96 368.9 173.25 368.97 173.26 369.21 173.2 369.25 173.2 369.28 173.23 369.29 173.29 369.3 173.35 369.28 173.39 369.26 173.4 369.26 173.43 369.33 173.43 369.36 173.44 369.38 173.47 369.38 173.51 369.37 173.56 369.36 173.62 369.38 173.66 369.4 173.69 369.44 173.73 369.54 173.57 369.6 173.53 369.66 173.55 369.68 173.57 369.68 173.6 369.68 173.64 369.68 173.65 369.69 173.66 369.73 173.65 369.74 173.65 369.82 173.74 369.83 173.77 369.84 173.88 369.8 173.96 369.76 174.01 369.74 174.06 369.75 174.09 369.77 174.19 369.77 174.23 369.76 174.26 369.68 174.31 369.7 174.34 369.7 174.38 369.7 174.43 369.7 174.49 369.62 174.55 369.42 174.52 369.33 174.56 369.39 174.61 369.56 174.67 369.57 174.76 369.51 174.82 369.44 174.85 369.33 174.85 369.29 174.87 369.19 174.93 369.01 174.96 368.95 175 368.99 175.05 369.34 174.92 369.44 174.93 369.66 174.87 369.73 174.89 369.84 174.96 369.89 175.03 369.91 175.08 369.92 175.11 369.87 175.15 369.78 175.3 369.73 175.33 369.45 175.4 369.16 175.4 369.03 175.43 368.89 175.43 368.96 175.49 369.22 175.43 369.56 175.47 369.71 175.43 369.79 175.43 369.82 175.45 369.81 175.49 369.77 175.55 369.77 175.58 369.77 175.6 369.77 175.62 369.76 175.65 369.67 175.69 369.6 175.69 369.53 175.72 369.53 175.76 369.7 175.73 369.74 175.76 369.74 175.79 369.72 175.8 369.7 175.82 369.68 175.84 369.66 175.87 369.73 175.87 369.75 175.88 369.77 175.9 369.79 175.93 369.79 175.94 369.82 175.92 369.85 175.85 369.87 175.83 369.88 175.81 369.94 175.69 370.03 175.58 370.04 175.66 370.04 175.77 370.03 175.88 370.02 175.94 370.02 175.98 370.06 176.01 370.07 176.06 370.05 176.12 370.02 176.19 369.97 176.23 369.88 176.26 369.83 176.3 369.87 176.37 369.89 176.42 369.89 176.44 369.85 176.46 369.78 176.54 369.75 176.55 369.59 176.52 369.45 176.54 369.41 176.52 369.38 176.47 369.37 176.39 369.34 176.33 369.31 176.3 369.27 176.29 369.2 176.24 369.08 176.2 368.96 176.08 368.89 176.05 368.91 176.11 368.93 176.15 368.96 176.18 368.98 176.19 368.9 176.28 368.45 176.3 368.45 176.34 369.15 176.41 369.17 176.43 369.2 176.47 369.23 176.52 369.24 176.57 369.26 176.6 369.36 176.69 369.59 176.8 369.64 176.88 369.54 176.95 369.43 176.93 369.24 176.84 369.02 176.88 368.88 176.82 368.85 176.84 368.98 176.93 369.29 177.01 369.44 177.12 369.46 177.16 369.48 177.2 369.48 177.25 369.46 177.27 369.42 177.28 369.37 177.36 369.34 177.37 369.11 177.28 369.04 177.34 369.28 177.44 369.32 177.48 369.32 177.53 369.26 177.55 369.01 177.54 368.94 177.52 368.92 177.54 368.9 177.56 368.86 177.59 368.86 177.63 368.93 177.71 368.96 177.77 369 177.84 368.96 177.85 368.86 177.94 368.37 178.05 368.29 178.02 368.24 178 368.21 177.96 368.15 177.76 368.09 177.7 368.03 177.58 368 177.55 367.83 177.52 367.85 177.55 367.87 177.56 367.93 177.55 367.96 177.58 367.95 177.63 367.94 177.69 367.93 177.73 367.97 177.77 368.08 177.83 368.12 177.84 368.12 177.87 368.11 177.94 368.14 178.02 368.19 178.09 368.21 178.12 368.33 178.16 368.37 178.2 368.34 178.26 368.36 178.3 367.99 178.17 367.87 178.26 367.91 178.31 368 178.35 368.04 178.4 368.06 178.46 368.06 178.51 368.04 178.55 367.99 178.58 367.7 178.58 367.67 178.61 367.7 178.68 367.74 178.74 367.77 178.74 367.79 178.79 367.84 178.83 367.88 178.83 367.89 178.79 367.98 178.77 368.12 178.56 368.19 178.51 368.2 178.53 368.17 178.59 367.96 178.84 367.93 178.9 367.93 178.95 367.92 179.05 367.91 179.09 367.84 179.22 367.83 179.27 367.83 179.3 367.83 179.32 367.84 179.35 367.84 179.37 367.82 179.39 367.81 179.4 367.8 179.41 367.8 179.45 367.79 179.47 367.77 179.55 367.76 179.57 367.53 179.59 367.37 179.65 367.31 179.67 367.41 179.6 367.61 179.54 367.71 179.5 367.65 179.46 367.4 179.42 367.39 179.43 367.38 179.45 367.39 179.52 367.38 179.53 367.36 179.54 367.32 179.59 367.29 179.6 367.28 179.62 367.23 179.71 367.21 179.73 367.08 179.81 367.03 179.86 366.99 179.93 366.96 179.99 366.97 179.93 366.98 179.9 366.99 179.88 366.99 179.85 366.98 179.85 366.96 179.9 366.93 179.94 366.89 179.98 366.86 179.99 366.85 180 366.86 180.04 366.88 180.08 366.9 180.1 366.95 180.09 366.97 180.08 366.99 180.06 367 180.13 367.02 180.2 366.97 180.2 366.91 180.28 366.86 180.3 366.76 180.29 366.71 180.27 366.67 180.23 366.6 180.15 366.56 180.11 366.51 180.1 366.49 180.11 366.45 180.18 366.43 180.2 366.4 180.19 366.38 180.17 366.35 180.16 366.32 180.2 366.35 180.23 366.33 180.26 366.3 180.27 366.25 180.27 366.29 180.13 366.29 180.1 366.22 180.12 366.19 180.11 366.17 180.08 366.16 180 366.14 179.94 366.11 179.93 366.08 179.95 366.08 179.99 366.1 180.01 366.11 180.04 366.12 180.07 366.13 180.13 366.1 180.11 366.03 180.08 366 180.06 366 180.03 366.03 179.95 365.99 179.85 365.94 179.75 365.89 179.71 365.84 179.65 365.76 179.62 365.7 179.6 365.74 179.63 365.81 179.67 365.86 179.69 365.88 179.75 365.92 179.87 365.94 179.91 365.93 179.94 365.91 179.95 365.89 179.94 365.87 179.91 365.87 179.95 365.91 179.99 365.92 180.07 365.9 180.16 365.87 180.23 365.81 180.26 365.69 180.23 365.64 180.27 365.67 180.29 365.7 180.3 365.78 180.3 365.72 180.35 365.58 180.4 365.45 180.41 365.32 180.47 365.26 180.51 365.25 180.49 365.24 180.46 365.23 180.44 365.17 180.53 364.97 180.69 365.16 180.62 365.2 180.65 365.13 180.72 364.55 180.89 364.47 180.97 364.58 180.97 364.58 181 364.43 181.12 364.39 181.14 364.36 181.15 364.29 181.24 364.24 181.28 364.22 181.3 364.2 181.35 364.17 181.3 364.15 181.29 364.13 181.31 364.11 181.35 364.11 181.38 364.14 181.38 364.14 181.41 364 181.51 363.95 181.52 363.97 181.45 363.85 181.54 363.79 181.61 363.76 181.69 363.79 181.69 363.82 181.67 363.84 181.64 363.79 181.76 363.76 181.8 363.6 181.94 363.49 182.1 363.42 182.14 363.45 182.13 363.48 182.1 363.5 182.06 363.51 182 363.18 182.28 362.88 182.37 362.84 182.36 362.8 182.31 362.82 182.34 362.83 182.37 362.85 182.38 362.88 182.38 362.83 182.41 362.8 182.42 362.81 182.47 362.8 182.54 362.79 182.6 362.77 182.62 362.76 182.61 362.75 182.57 362.75 182.5 362.75 182.49 362.71 182.45 362.62 182.34 362.6 182.31 362.57 182.3 362.55 182.32 362.54 182.36 362.54 182.43 362.55 182.53 362.55 182.59 362.53 182.62 362.5 182.6 362.5 182.56 362.51 182.43 362.5 182.39 362.49 182.33 362.47 182.3 362.46 182.33 362.47 182.46 362.46 182.53 362.45 182.58 362.48 182.63 362.47 182.66 362.43 182.69 362.39 182.69 362.42 182.58 362.42 182.53 362.4 182.49 362.41 182.44 362.42 182.42 362.43 182.42 362.45 182.4 362.45 182.37 362.44 182.35 362.43 182.35 362.45 182.21 362.45 182.14 362.44 182.11 362.43 182.09 362.41 182.05 362.39 182.03 362.37 182.05 362.37 182.18 362.37 182.24 362.39 182.28 362.35 182.32 362.31 182.31 362.28 182.32 362.25 182.38 362.28 182.43 362.29 182.49 362.31 182.55 362.34 182.58 362.3 182.64 362.22 182.66 362.06 182.66 362.03 182.64 361.95 182.58 361.92 182.61 361.89 182.64 361.87 182.64 361.86 182.55 361.58 182.72 361.28 182.83 361.07 182.88 361.1 182.84 361.11 182.8 361.11 182.74 361.1 182.69 361.08 182.76 361.06 182.81 361.02 182.83 360.99 182.79 361 182.82 361 182.83 361 182.84 361.01 182.86 361.01 182.9 360.72 183.1 360.74 182.99 360.8 182.93 360.87 182.9 360.93 182.9 360.93 182.86 360.79 182.78 360.73 182.72 360.72 182.79 360.72 182.82 360.73 182.86 360.68 182.9 360.62 182.89 360.57 182.86 360.51 182.86 360.55 182.9 360.55 182.93 360.49 182.93 360.47 182.94 360.45 182.97 360.41 182.95 360.37 182.98 360.34 183.03 360.32 183.09 360.31 183.17 360.28 183.24 360.24 183.25 360.2 183.21 360.17 183.25 360.16 183.29 360.17 183.33 360.21 183.34 360.24 183.33 360.28 183.28 360.32 183.27 360.49 183.29 360.55 183.27 360.46 183.46 360.4 183.51 360.34 183.48 360.35 183.47 360.35 183.47 360.35 183.47 360.35 183.45 360.26 183.45 360.27 183.49 360.2 183.49 360.17 183.52 360.2 183.51 360.22 183.53 360.23 183.56 360.22 183.62 360.38 183.61 360.41 183.58 360.36 183.75 360.28 183.9 360.18 184.01 359.95 184.12 359.81 184.23 359.67 184.26 359.59 184.16 359.62 184.12 359.68 184.1 359.71 184.07 359.74 184.02 359.77 184 359.84 183.99 359.84 183.96 359.77 183.96 359.65 183.99 359.59 183.99 359.44 183.9 359.4 183.89 359.41 183.92 359.39 183.93 359.39 183.94 359.38 183.96 359.4 183.99 359.45 184.07 359.47 184.09 359.49 184.12 359.5 184.19 359.5 184.26 359.51 184.29 359.6 184.3 359.66 184.3 359.69 184.31 359.22 184.38 358.94 184.51 358.48 184.64 358.36 184.63 357.94 184.5 357.76 184.55 357.7 184.53 357.72 184.53 357.73 184.52 357.74 184.5 357.66 184.48 357.62 184.46 357.59 184.43 357.54 184.49 357.25 184.43 357.22 184.42 357.1 184.33 356.92 184.29 356.66 184.12 356.31 184.02 356.24 183.96 356.27 183.95 356.28 183.93 356.28 183.91 356.25 183.89 356.23 183.88 356.19 183.91 356.16 183.92 355.95 183.89 355.95 183.91 356.18 183.96 355.59 183.92 355.55 183.85 355.54 183.86 355.54 183.87 355.53 183.88 355.52 183.89 355.51 183.86 355.51 183.86 355.49 183.85 355.51 183.92 355.34 183.93 355.26 183.91 354.92 183.62 354.88 183.58 354.92 183.61 354.95 183.62 354.99 183.61 355.02 183.58 354.99 183.57 354.94 183.55 354.92 183.55 354.93 183.47 354.93 183.45 354.89 183.51 354.85 183.53 354.81 183.52 354.76 183.48 354.76 183.45 354.84 183.48 354.81 183.4 354.77 183.36 354.73 183.32 354.69 183.27 354.65 183.19 354.63 183.13 354.61 183.1 354.55 183.1 354.55 183.13 354.63 183.25 354.67 183.33 354.7 183.41 354.56 183.28 354.49 183.19 354.45 183.07 354.45 183.06 354.48 183.03 354.46 183.01 354.43 182.93 354.49 182.86 354.56 182.82 354.71 182.79 354.78 182.83 354.9 182.96 354.98 182.97 354.94 182.92 354.89 182.83 354.86 182.79 354.69 182.69 354.75 182.57 354.76 182.52 354.76 182.45 354.73 182.43 354.71 182.45 354.72 182.49 354.72 182.52 354.69 182.57 354.6 182.69 354.53 182.77 354.49 182.81 354.44 182.83 354.42 182.85 354.42 182.89 354.42 182.95 354.41 183 354.4 183.05 354.39 183.06 354.29 183 354.19 182.92 354.11 182.88 353.96 182.76 354.1 182.76 354.13 182.77 354.18 182.82 354.22 182.83 354.22 182.8 354.25 182.79 354.32 182.79 354.32 182.76 354.26 182.76 354.26 182.72 354.27 182.72 354.29 182.73 354.29 182.72 354.29 182.69 354.14 182.73 354.08 182.72 354.08 182.69 354.16 182.59 354.18 182.44 354.15 182.31 354.06 182.28 354.06 182.31 354.13 182.34 354.12 182.41 354.08 182.49 353.99 182.6 353.94 182.64 353.88 182.66 353.82 182.62 353.85 182.7 353.85 182.72 353.76 182.63 353.56 182.49 353.28 182.39 353.18 182.32 353.13 182.29 353.08 182.25 353.03 182.17 353.04 182.13 353.04 182.08 353.02 181.97 353.19 181.98 353.29 181.96 353.35 181.9 353.18 181.9 353.08 181.84 353.04 181.83 352.93 181.86 352.9 181.88 352.88 181.91 352.81 181.99 352.79 182 352.79 182.04 352.9 182.09 352.96 182.13 352.99 182.21 352.94 182.19 352.84 182.17 352.74 182.18 352.67 182.21 352.64 182.26 352.67 182.35 352.66 182.35 352.65 182.36 352.65 182.37 352.64 182.38 351.99 182.47 351.91 182.42 351.83 182.34 351.77 182.29 351.69 182.28 351.32 182.41 351.23 182.42 351.2 182.41 351.09 182.45 350.49 182.31 350.44 182.35 350.4 182.41 350.36 182.45 350.31 182.42 350.34 182.38 350.29 182.38 350.21 182.44 350.14 182.46 350.09 182.5 350.07 182.52 350.05 182.52 349.83 182.5 349.78 182.52 349.77 182.53 349.76 182.56 349.75 182.58 349.73 182.58 349.7 182.57 349.67 182.5 349.64 182.49 349.66 182.44 349.67 182.4 349.69 182.37 349.69 182.31 349.68 182.26 349.66 182.23 349.64 182.21 349.61 182.17 349.65 182.12 349.69 181.94 349.71 181.9 349.81 181.9 349.83 181.88 349.82 181.83 349.79 181.83 349.74 181.86 349.7 181.85 349.65 181.82 349.62 181.75 349.6 181.66 349.63 181.56 349.64 181.52 349.65 181.46 349.64 181.36 349.64 181.31 349.64 181.27 349.65 181.23 349.68 181.19 349.7 181.17 349.74 181.18 349.8 181.26 349.88 181.31 349.94 181.4 350 181.53 350.03 181.66 349.99 181.66 350.03 181.71 350.08 181.73 350.3 181.74 350.35 181.73 350.39 181.69 350.36 181.65 350.38 181.61 350.41 181.58 350.43 181.55 350.47 181.54 350.57 181.52 350.65 181.46 350.68 181.45 350.7 181.46 350.76 181.51 350.79 181.52 350.85 181.5 350.96 181.4 351.14 181.37 351.2 181.33 351.26 181.24 351.27 181.27 351.29 181.27 351.3 181.26 351.31 181.24 351.31 181.21 351.28 181.17 351.22 181.13 351.17 181.11 351.13 181.14 351.16 181.05 351.21 181.01 351.27 181.01 351.31 181.03 351.3 181.04 351.26 181.07 351.3 181.09 351.34 181.1 351.38 181.09 351.42 181.07 351.42 181.03 351.38 181.03 351.41 181 351.42 181 351.28 180.87 351.21 180.83 351.13 180.82 351.2 180.77 351.53 180.83 351.55 180.85 351.56 180.88 351.57 180.89 351.64 180.93 351.68 180.93 351.71 180.89 351.69 180.9 351.66 180.9 351.64 180.88 351.62 180.86 351.64 180.82 351.66 180.8 351.68 180.79 351.64 180.76 351.69 180.73 351.77 180.76 351.8 180.76 351.85 180.76 351.89 180.65 351.82 180.7 351.77 180.7 351.76 180.67 351.77 180.61 351.81 180.58 351.88 180.54 351.83 180.52 351.77 180.51 351.7 180.52 351.65 180.54 351.66 180.46 351.64 180.42 351.59 180.41 351.53 180.41 351.51 180.42 351.49 180.43 351.47 180.46 351.39 180.44 351.46 180.38 351.48 180.34 351.47 180.27 351.6 180.17 351.67 180.09 351.72 180.01 351.76 179.9 351.78 179.87 351.82 179.85 351.86 179.84 351.96 179.85 352 179.85 351.96 179.83 351.94 179.81 351.92 179.81 352.01 179.74 352.06 179.71 352.11 179.71 352.42 179.79 352.47 179.77 352.51 179.71 352.53 179.67 352.43 179.73 352.38 179.71 352.38 179.67 352.4 179.67 352.42 179.67 352.45 179.64 352.46 179.62 352.45 179.61 352.45 179.61 352.44 179.6 352.45 179.6 352.05 179.58 351.86 179.62 351.69 179.77 351.69 179.8 351.68 179.82 351.67 179.85 351.65 179.88 351.63 179.9 351.59 179.91 351.57 179.91 351.53 179.93 351.43 180 351.4 180.04 351.32 180.12 351.21 180.1 351.01 180.03 351.01 179.99 351.1 179.93 351.19 179.85 351.27 179.74 351.31 179.71 351.36 179.74 351.4 179.7 351.5 179.67 351.54 179.64 351.35 179.62 351.29 179.64 351.24 179.67 351.21 179.68 351.17 179.65 351.13 179.57 351.16 179.52 351.17 179.46 351.17 179.38 351.19 179.3 351.2 179.3 351.22 179.31 351.23 179.31 351.25 179.23 351.26 179.18 351.29 179.11 351.29 179.06 351.34 179.01 351.59 178.88 351.73 178.86 351.72 178.82 351.69 178.79 351.67 178.78 351.64 178.79 351.64 178.76 351.68 178.72 351.76 178.6 351.83 178.57 351.87 178.53 351.89 178.51 351.92 178.5 352.01 178.51 352.01 178.6 352.05 178.62 352.11 178.62 352.14 178.67 352.16 178.71 352.35 178.72 352.31 178.69 352.24 178.7 352.2 178.69 352.16 178.65 352.12 178.57 352.08 178.55 352.17 178.51 352.17 178.48 351.94 178.48 351.94 178.44 352.06 178.36 352.11 178.32 352.14 178.31 352.32 178.34 352.32 178.3 352.15 178.26 352.09 178.26 351.95 178.4 351.89 178.4 351.89 178.37 351.95 178.31 351.97 178.27 351.98 178.22 351.9 178.32 351.87 178.34 351.85 178.36 351.84 178.48 351.81 178.51 351.79 178.52 351.69 178.61 351.58 178.66 351.54 178.69 351.56 178.76 351.49 178.74 351.43 178.75 351.3 178.86 351.25 178.93 351.21 178.95 351.18 178.93 351.15 178.88 351.16 178.83 351.19 178.72 351.15 178.74 351.13 178.79 351.12 178.87 351.12 178.95 351.11 178.98 351.06 179.07 351.05 179.12 351.05 179.16 351.04 179.19 351.03 179.22 350.95 179.22 350.93 179.24 350.93 179.25 350.91 179.27 350.89 179.28 350.87 179.29 350.83 179.27 350.79 179.22 350.76 179.16 350.74 179.07 350.72 179.11 350.7 179.13 350.68 179.14 350.66 179.14 350.69 179.08 350.72 179 350.73 178.92 350.71 178.86 350.72 178.86 350.74 178.83 350.72 178.81 350.7 178.8 350.68 178.79 350.66 178.79 350.67 178.77 350.69 178.72 350.69 178.69 350.59 178.76 350.53 178.8 350.48 178.79 350.44 178.73 350.42 178.64 350.43 178.56 350.46 178.51 350.46 178.48 350.43 178.47 350.4 178.43 350.38 178.39 350.37 178.37 350.34 178.35 350.31 178.32 350.28 178.27 350.25 178.22 350.31 178.25 350.37 178.31 350.42 178.34 350.48 178.3 350.43 178.3 350.45 178.24 350.47 178.2 350.5 178.17 350.52 178.16 350.5 178.13 350.49 178.12 350.49 178.09 350.75 177.96 350.82 177.87 350.82 177.84 350.68 177.96 350.6 178 350.53 178.01 350.47 178.05 350.4 178.12 350.34 178.17 350.3 178.12 350.33 178.1 350.39 178.01 350.43 177.96 350.46 177.93 350.48 177.87 350.46 177.84 350.48 177.83 350.5 177.81 350.52 177.77 350.48 177.71 350.41 177.69 350.27 177.7 350.3 177.63 350.25 177.63 350.27 177.57 350.31 177.47 350.33 177.41 350.31 177.42 350.28 177.44 350.27 177.47 350.25 177.52 350.24 177.47 350.22 177.45 350.2 177.45 350.18 177.48 350.18 177.52 350.05 177.48 350.02 177.5 349.95 177.57 349.92 177.59 349.92 177.63 349.94 177.63 349.98 177.66 349.77 177.7 349.72 177.66 349.77 177.67 349.8 177.66 349.82 177.64 349.81 177.61 349.79 177.57 349.76 177.53 349.74 177.52 349.51 177.52 349.54 177.55 349.66 177.63 349.66 177.66 349.6 177.66 349.5 177.57 349.43 177.55 349.45 177.55 349.17 177.53 348.91 177.53 348.6 177.51 348.47 177.37 348.35 177.36 348.13 177.41 348.13 177.42 348.09 177.49 348.08 177.52 348.05 177.54 348.03 177.55 348 177.56 347.75 177.48 347.77 177.46 347.8 177.44 347.82 177.44 347.79 177.42 347.7 177.47 347.63 177.56 347.62 177.66 347.58 177.78 347.52 177.83 347.36 177.84 347.31 177.85 347.21 177.91 347.17 177.91 347.01 177.82 346.97 177.77 346.94 177.76 346.92 177.73 346.91 177.64 346.9 177.6 346.8 177.44 346.76 177.36 346.73 177.28 346.67 177.05 346.68 177.01 346.73 177.06 346.77 177.04 346.85 176.94 346.89 176.92 347.13 176.85 347.18 176.85 347.36 176.97 347.6 177.01 347.62 177 347.66 176.93 347.68 176.91 347.78 176.92 347.8 176.89 347.88 176.76 347.97 176.73 348.17 176.77 348.17 176.73 348.16 176.71 348.15 176.7 348.15 176.68 348.14 176.66 348.23 176.65 348.26 176.68 348.25 176.77 348.28 176.79 348.3 176.76 348.31 176.73 348.34 176.73 348.35 176.78 348.35 176.85 348.36 176.89 348.4 176.84 348.43 176.87 348.47 176.85 348.51 176.8 348.52 176.75 348.51 176.7 348.5 176.63 348.48 176.55 348.49 176.48 348.55 176.4 348.64 176.38 348.82 176.41 348.81 176.47 348.78 176.51 348.72 176.55 348.72 176.57 348.73 176.63 348.71 176.63 348.69 176.65 348.67 176.68 348.66 176.73 348.78 176.91 348.77 176.83 348.76 176.77 348.77 176.71 348.8 176.66 348.81 176.65 348.85 176.64 348.87 176.63 348.88 176.6 348.9 176.53 348.91 176.5 348.97 176.42 349.03 176.41 349.09 176.46 349.14 176.55 349.18 176.5 349.22 176.47 349.36 176.43 349.49 176.34 349.46 176.32 349.3 176.34 349.3 176.3 349.39 176.28 349.56 176.11 349.64 176.09 349.63 176.11 349.61 176.12 349.65 176.13 349.69 176.16 349.69 176.2 349.69 176.2 349.69 176.21 349.69 176.23 349.66 176.27 349.59 176.31 349.57 176.34 349.6 176.35 349.63 176.35 349.67 176.33 349.7 176.3 349.72 176.4 349.74 176.44 349.81 176.48 349.91 176.57 349.95 176.59 349.95 176.55 349.92 176.54 349.9 176.5 349.84 176.41 349.9 176.33 349.93 176.3 349.98 176.3 349.98 176.23 350.02 176.21 350.21 176.22 350.39 176.18 350.69 176.24 350.89 176.34 350.91 176.33 350.95 176.28 350.97 176.26 351.13 176.26 351.18 176.29 351.23 176.32 351.27 176.34 351.28 176.34 351.31 176.3 351.37 176.34 351.62 176.3 351.68 176.25 351.68 176.19 351.64 176.13 351.57 176.12 351.6 176.05 351.62 176.03 351.65 176.02 351.69 175.98 351.72 175.92 351.82 175.65 351.82 175.47 351.75 175.39 351.66 175.4 351.59 175.47 351.59 175.51 351.6 175.51 351.6 175.55 351.27 175.83 351.16 175.88 350.53 175.76 350.37 175.63 350.34 175.62 350.33 175.62 350.3 175.64 350.1 175.67 350.04 175.65 350 175.6 350.03 175.57 350.1 175.55 350.15 175.51 350.16 175.53 350.18 175.55 350.22 175.55 350.22 175.51 350.17 175.47 350.12 175.47 350.01 175.51 350.03 175.43 350.07 175.35 350.15 175.26 350.25 175.21 350.29 175.16 350.28 175.07 350.32 175.06 350.4 175.07 350.42 175.05 350.48 174.93 350.54 174.88 350.79 174.81 351 174.65 351.08 174.55 351.22 174.47 351.27 174.42 351.26 174.41 351.26 174.41 351.25 174.41 351.26 174.38 351.29 174.39 351.34 174.45 351.38 174.45 351.36 174.37 351.35 174.34 351.48 174.26 351.77 174.17 351.86 174.12 351.91 174.09 351.7 174.16 351.62 174.16 351.46 174.13 351.33 174.17 351.29 174.16 351.33 174.08 351.38 174.02 351.3 173.94 351.27 173.88 351.26 173.8 351.23 173.82 351.2 173.83 351.16 173.84 351.13 173.83 351.15 173.91 351.13 173.93 351.09 173.93 351.07 173.91 351.05 173.86 351.01 173.73 350.98 173.69 350.99 173.78 350.99 173.85 350.97 173.92 350.93 173.98 350.9 174.03 350.87 174.05 350.85 174.06 350.84 174.08 350.83 174.13 350.81 174.18 350.79 174.2 350.71 174.21 350.67 174.19 350.61 174.1 350.48 173.98 350.39 173.93 350.38 173.89 350.42 173.8 350.47 173.76 350.71 173.71 350.82 173.64 350.87 173.62 350.89 173.6 350.9 173.54 350.9 173.48 350.9 173.43 350.92 173.39 350.95 173.36 351 173.32 350.93 173.34 350.77 173.58 350.69 173.64 350.62 173.68 350.46 173.69 350.46 173.65 350.56 173.58 350.59 173.55 350.59 173.51 350.54 173.51 350.51 173.54 350.45 173.62 350.4 173.64 350.38 173.62 350.35 173.59 350.31 173.58 350.31 173.62 350.34 173.66 350.33 173.71 350.29 173.75 350.17 173.8 350.14 173.78 350.12 173.69 350.11 173.6 350.12 173.54 350.12 173.47 350.09 173.38 350.05 173.19 350.02 173.12 350 173.17 350 173.2 350 173.26 350 173.32 350.03 173.43 350.03 173.48 350.02 173.52 349.98 173.61 349.96 173.65 349.93 173.65 349.89 173.6 349.85 173.5 349.83 173.49 349.82 173.63 349.8 173.67 349.78 173.69 349.75 173.69 349.73 173.67 349.72 173.62 349.66 173.46 349.66 173.37 349.67 173.28 349.72 173.18 349.7 173.15 349.69 173.16 349.68 173.17 349.66 173.18 349.6 173.14 349.56 173.14 349.55 173.15 349.54 173.18 349.54 173.21 349.56 173.32 349.58 173.39 349.64 173.8 349.61 173.83 349.57 173.82 349.53 173.8 349.49 173.8 349.49 173.77 349.51 173.72 349.49 173.68 349.47 173.66 349.44 173.65 349.37 173.68 349.34 173.67 349.34 173.62 349.32 173.62 349.27 173.62 349.27 173.58 349.32 173.53 349.42 173.39 349.48 173.36 349.46 173.3 349.42 173.26 349.34 173.21 349.33 173.33 349.28 173.43 349.23 173.48 349.18 173.45 349.17 173.39 349.16 173.33 349.14 173.27 349.12 173.25 349.11 173.29 349.1 173.46 349.1 173.51 349.05 173.57 348.92 173.6 348.85 173.64 348.73 173.58 348.67 173.51 348.67 173.43 348.67 173.4 348.61 173.43 348.57 173.54 348.57 173.66 348.61 173.73 348.61 173.77 348.58 173.8 348.53 173.88 348.5 173.91 348.47 173.92 348.32 173.9 348.26 173.87 348.22 173.87 348.19 173.85 348.16 173.81 348.14 173.76 348.13 173.77 348.11 173.77 348.1 173.78 348.08 173.8 348.09 173.81 348.09 173.81 348.11 173.83 348.05 173.86 347.93 173.96 347.63 174.02 347.56 173.98 347.56 174.04 347.55 174.07 347.54 174.07 347.52 174.09 347.43 174.23 347.03 174.35 346.92 174.34 346.83 174.27 346.83 174.23 346.85 174.19 346.84 174.15 346.82 174.12 346.79 174.09 346.83 174.09 346.85 174.1 346.87 174.13 346.87 174.03 346.83 173.98 346.78 173.99 346.76 174.06 346.7 173.98 346.36 173.83 345.73 173.9 345.65 173.89 345.6 173.8 345.7 173.74 345.75 173.69 345.77 173.64 345.8 173.6 345.93 173.52 345.97 173.47 345.98 173.39 345.98 173.29 345.99 173.21 346.06 173.17 346.1 173.11 346.13 173.1 346.18 173.11 346.4 173.24 346.46 173.25 346.5 173.27 346.62 173.43 346.71 173.49 346.86 173.53 346.9 173.58 346.93 173.64 346.97 173.69 347.04 173.72 347.1 173.72 347.23 173.65 347.13 173.66 347.07 173.64 347.03 173.62 347 173.57 346.97 173.51 346.93 173.45 346.89 173.43 346.78 173.31 346.72 173.2 346.65 173.11 346.61 173.03 346.94 173.1 347.16 173.23 347.23 173.25 347.19 173.17 347.13 173.1 347.06 173.05 346.97 173.01 346.85 172.94 346.75 172.9 346.7 172.85 346.62 172.74 346.53 172.55 346.52 172.48 346.53 172.42 346.52 172.35 346.5 172.29 346.59 172.21 346.69 172.21 347.62 172.74 347.65 172.76 347.68 172.84 347.75 172.89 347.76 172.92 347.78 173.01 347.77 173.07 347.75 173.13 347.73 173.21 347.77 173.23 347.82 173.19 347.91 173.06 347.92 173.09 347.96 173.14 347.98 173.09 348.1 173.12 348.16 173.1 348.16 173.06 348.14 173.05 348.13 173.04 348.11 172.99 348.15 172.99 348.25 172.92 348.28 172.91 348.32 172.92 348.35 172.91 348.38 172.88 348.12 172.9 348 172.86 347.91 172.81 347.88 172.77 347.84 172.71 347.82 172.65 347.84 172.62 347.98 172.56 348.01 172.57 348.05 172.6 348.23 172.57 348.28 172.52 348.33 172.51 348.43 172.55 348.47 172.55 348.52 172.51 348.49 172.48 348.48 172.47 348.46 172.47 348.46 172.44 348.56 172.37 348.6 172.33 348.47 172.34 348.4 172.38 348.31 172.46 347.71 172.45 347.59 172.4 347.52 172.33 347.4 172.37 347.37 172.35 347.34 172.29 347.21 172.15 347.14 172 347.1 171.82 347.1 171.66 347.2 171.55 347.24 171.55 347.37 171.62 347.53 171.66 347.57 171.69 347.64 171.78 347.68 171.81 347.73 171.81 347.87 171.77 348.14 171.88 348.23 171.88 348.39 172 348.47 172.04 348.55 172 348.37 171.94 348.31 171.86 348.13 171.85 348.07 171.81 347.97 171.72 347.74 171.66 347.68 171.62 347.56 171.46 347.5 171.42 347.47 171.37 347.43 171.35 347.32 171.26 347.23 171.13 347.21 171.08 347.21 170.92 347.23 170.83 347.26 170.76 347.35 170.73 347.47 170.76 347.87 171 347.99 171.03 348.06 170.99 348.08 171.07 348.1 171.15 348.14 171.2 348.19 171.21 348.19 171.18 348.15 171.12 348.08 170.95 348.03 170.92 347.98 170.9 347.88 170.85 347.83 170.84 347.8 170.82 347.74 170.73 347.61 170.61 347.53 170.51 347.6 170.45 347.8 170.43 347.94 170.45 348.14 170.61 348.09 170.57 348 170.42 347.95 170.39 347.74 170.4 347.68 170.36 347.68 170.32 347.71 170.27 347.74 170.22 347.78 170.18 347.8 170.17 347.81 170.17 347.91 170.16 347.94 170.13 347.94 170.06 347.99 170.03 348.34 170.13 348.57 170.3 348.63 170.32 348.68 170.35 348.73 170.43 348.77 170.53 348.76 170.61 348.78 170.73 348.89 170.56 348.93 170.54 348.96 170.55 348.98 170.59 349.01 170.65 349.05 170.71 349.05 170.74 349.05 170.82 349.06 170.91 349.07 170.96 349.05 171 349.02 171.07 349.01 171.08 348.91 171.27 348.89 171.33 348.9 171.33 348.95 171.25 349.07 171.1 349.11 171.03 349.13 170.98 349.14 170.93 349.15 170.89 349.17 170.88 349.2 170.9 349.22 170.94 349.25 171.06 349.24 171.09 349.23 171.11 349.27 171.07 349.3 171.02 349.34 170.99 349.37 171.03 349.33 171.15 349.28 171.28 349.22 171.38 349.14 171.44 349.23 171.43 349.27 171.41 349.31 171.36 349.35 171.22 349.38 171.14 349.41 171.12 349.44 171.27 349.43 171.42 349.41 171.55 349.42 171.62 349.49 171.36 349.49 171.24 349.5 171.1 349.52 170.97 349.54 170.88 349.56 170.84 349.57 170.83 349.72 170.84 349.74 170.86 349.74 170.93 349.75 170.98 349.77 171.01 349.86 171.1 349.94 171.25 349.95 171.27 349.95 171.29 349.94 171.41 349.93 171.47 349.92 171.52 349.9 171.55 349.91 171.57 349.92 171.58 349.8 171.9 349.78 172 349.8 172.05 349.83 172.04 349.88 171.83 350.02 171.44 350.04 171.33 350.04 171.29 350.09 171.28 350.12 171.33 350.14 171.41 350.18 171.48 350.19 171.48 350.21 171.47 350.22 171.47 350.24 171.51 350.24 171.56 350.22 171.6 350.22 171.64 350.25 171.66 350.26 171.63 350.27 171.58 350.28 171.54 350.3 171.55 350.3 171.59 350.28 171.77 350.26 171.83 350.21 171.94 350.19 172 350.19 172.03 350.28 171.98 350.36 171.68 350.43 171.62 350.43 171.58 350.39 171.53 350.36 171.43 350.35 171.31 350.33 171.21 350.3 171.14 350.25 171.06 350.21 171.01 350.16 170.99 350.18 170.92 350.19 170.85 350.21 170.79 350.24 170.73 350.28 170.71 350.32 170.71 350.36 170.69 350.39 170.61 350.34 170.62 350.23 170.67 350.19 170.71 350.15 170.73 349.97 170.64 349.84 170.51 349.31 170.28 349.16 170.11 349.07 169.87 349.17 169.8 349.5 169.71 349.57 169.71 349.8 169.79 349.87 169.79 349.89 169.8 349.9 169.82 349.91 169.85 349.92 169.87 349.98 169.93 350.01 169.94 350.04 169.9 350.02 169.89 350.01 169.86 349.99 169.79 350.1 169.79 350.16 169.77 350.26 169.69 350.37 169.68 350.42 169.64 350.12 169.69 350.03 169.64 349.98 169.59 349.99 169.59 350.03 169.58 350.06 169.55 350.09 169.5 350.12 169.47 350.16 169.45 350.19 169.45 350.19 169.41 350.14 169.38 350.11 169.39 350.03 169.49 349.91 169.55 349.78 169.56 349.68 169.54 349.66 169.53 349.66 169.47 349.68 169.43 349.72 169.37 349.73 169.34 349.74 169.22 349.75 169.19 349.78 169.16 349.89 169.11 349.79 169.13 349.72 169.18 349.54 169.37 349.5 169.4 349.41 169.41 349.38 169.38 349.4 169.31 349.43 169.23 349.46 169.19 349.46 169.15 349.39 169.18 349.35 169.21 349.31 169.26 349.22 169.42 349.2 169.43 349.15 169.5 348.8 169.4 348.71 169.35 348.65 169.27 348.61 169.24 348.6 169.2 348.63 169.15 348.71 169.14 348.82 169.18 348.91 169.17 348.96 169 348.9 168.99 348.83 168.93 348.76 168.86 348.72 168.77 348.78 168.72 348.85 168.75 348.92 168.81 348.99 168.85 348.97 168.78 348.96 168.76 348.95 168.73 349.19 168.69 349.2 168.7 349.22 168.72 349.24 168.79 349.25 168.81 349.3 168.82 349.32 168.78 349.31 168.72 349.27 168.7 349.24 168.68 349.13 168.58 349.35 168.58 349.39 168.6 349.47 168.68 349.57 168.72 349.65 168.82 349.69 168.85 349.75 168.84 349.83 168.73 349.89 168.7 349.88 168.68 349.87 168.62 349.96 168.59 350.03 168.65 350.1 168.73 350.25 168.81 350.29 168.8 350.3 168.73 350.28 168.68 350.22 168.63 350.21 168.58 350.28 168.59 350.35 168.66 350.4 168.77 350.42 168.9 350.46 168.99 350.64 169.09 350.69 169.19 350.66 169.24 350.69 169.28 350.78 169.3 350.78 169.34 350.74 169.32 350.73 169.35 350.72 169.39 350.72 169.45 350.74 169.48 350.75 169.52 350.76 169.56 350.72 169.6 350.72 169.64 350.75 169.68 350.78 169.65 350.82 169.62 350.86 169.6 350.89 169.6 350.91 169.62 350.93 169.66 350.95 169.68 350.97 169.64 351 169.57 351.03 169.56 351.06 169.6 351.04 169.68 351.2 169.66 351.24 169.68 351.26 169.64 351.28 169.64 351.3 169.66 351.31 169.68 351.33 169.7 351.41 169.83 351.39 169.87 351.26 169.98 351.28 170 351.31 169.98 351.34 169.95 351.38 169.94 351.41 169.95 351.51 170.03 351.54 170.08 351.56 170.09 351.58 170.09 351.62 170.06 351.65 170.06 351.79 170.13 351.78 170.15 351.77 170.2 351.81 170.23 351.83 170.29 351.83 170.36 351.8 170.39 351.81 170.42 351.83 170.48 351.83 170.51 351.83 170.5 351.84 170.59 351.85 170.7 351.86 170.74 351.89 170.76 351.92 170.76 351.96 170.73 352 170.72 352.03 170.76 352.03 170.84 352.01 170.91 351.99 170.97 351.97 171.03 352 171.02 352.03 170.99 352.06 170.96 352.08 170.93 352.08 170.84 352.07 170.8 352.03 170.69 352.06 170.66 352.14 170.62 352.23 170.61 352.25 170.63 352.26 170.67 352.27 170.71 352.28 170.73 352.32 170.75 352.29 170.8 352.25 170.83 352.23 170.84 352.21 170.89 352.22 170.93 352.26 171.01 352.32 171.05 352.56 170.99 352.62 171 352.68 171.03 352.72 171.1 352.74 171.21 352.43 171.24 352.37 171.29 352.14 171.36 352.11 171.36 352.15 171.44 352.21 171.43 352.33 171.36 352.54 171.32 352.61 171.36 352.58 171.41 352.48 171.48 352.48 171.51 352.72 171.44 352.78 171.49 352.81 171.6 352.82 171.7 352.79 171.77 352.73 171.81 352.83 171.88 352.83 171.92 352.72 172.18 352.68 172.25 352.62 172.31 352.39 172.4 352.39 172.44 352.44 172.44 352.52 172.43 352.56 172.44 352.68 172.52 352.71 172.55 352.53 172.77 352.47 172.82 352.17 172.81 352.14 172.78 352.11 172.71 352.1 172.7 352.06 172.67 352.02 172.59 351.99 172.52 351.98 172.47 351.93 172.4 351.86 172.36 351.79 172.36 351.73 172.4 351.77 172.41 351.87 172.48 351.91 172.51 351.91 172.52 351.96 172.61 351.97 172.62 351.98 172.69 351.97 172.73 351.95 172.76 351.92 172.81 351.96 172.84 351.98 172.87 351.98 172.9 352 172.97 352.02 173.01 352.05 173.03 352.06 173.05 352.1 173.08 352.47 173.07 352.53 173.11 352.56 173.18 352.54 173.24 352.42 173.42 352.38 173.47 352.38 173.51 352.49 173.45 352.62 173.32 352.74 173.3 352.79 173.53 352.74 173.72 352.63 173.91 352.5 174.05 352.39 174.09 352.39 174.13 352.62 174.04 352.7 173.96 352.75 173.94 352.8 173.95 352.83 173.98 352.9 174.09 352.98 174.17 353 174.22 352.99 174.31 353.02 174.33 353.02 174.37 353.02 174.43 353.02 174.49 353.03 174.61 353.03 174.69 353.02 174.8 353.02 174.85 353.11 175.13 353.14 175.18 353.13 175.19 353.13 175.2 353.13 175.2 353.12 175.22 353.17 175.26 353.21 175.35 353.23 175.45 353.21 175.55 353.21 175.58 353.25 175.61 353.26 175.6 353.29 175.58 353.31 175.51 353.27 175.38 353.27 175.29 353.26 175.26 353.24 175.2 353.2 175.12 353.18 175.07 353.22 175.02 353.23 175 353.22 174.95 353.24 174.92 353.26 174.89 353.28 174.86 353.29 174.78 353.29 174.7 353.24 174.3 353.23 174.13 353.26 174.06 353.33 174.1 353.38 174.19 353.44 174.42 353.51 174.55 353.52 174.58 353.53 174.62 353.61 174.65 353.64 174.67 353.65 174.63 353.6 174.51 353.54 174.35 353.51 174.17 353.49 174.02 353.48 173.89 353.48 173.8 353.49 173.73 353.5 173.7 353.52 173.65 353.53 173.62 353.56 173.46 353.56 173.43 353.63 173.3 353.88 173.1 354.02 172.92 354.06 172.89 354.1 172.88 354.13 172.86 354.14 172.81 354.17 172.8 354.19 172.82 354.23 172.88 354.24 172.88 354.27 172.88 354.28 172.88 354.28 172.93 354.28 172.94 354.27 172.94 354.26 172.96 354.25 173.17 354.24 173.28 354.26 173.36 354.24 173.45 354.23 173.54 354.26 173.6 354.31 173.58 354.28 173.48 354.29 173.4 354.32 173.35 354.37 173.4 354.39 173.43 354.39 173.45 354.39 173.48 354.4 173.55 354.39 173.59 354.38 173.62 354.38 173.65 354.39 173.65 354.43 173.68 354.45 173.69 354.46 173.73 354.47 173.77 354.48 173.8 354.51 173.83 354.53 173.86 354.56 173.87 354.58 173.87 354.61 173.87 354.62 173.86 354.66 173.83 354.68 173.78 354.69 173.69 354.72 173.58 354.69 173.56 354.66 173.49 354.63 173.47 354.56 173.48 354.52 173.47 354.49 173.43 354.56 173.4 354.63 173.4 354.66 173.39 354.72 173.33 354.76 173.32 354.78 173.37 354.78 173.61 354.81 173.69 354.8 173.6 354.82 173.54 354.83 173.48 354.81 173.4 354.83 173.33 354.9 173.22 354.94 173.16 354.95 173.12 354.95 173.03 354.96 172.99 354.98 172.97 355.02 172.97 355.07 172.96 355.02 172.95 354.99 172.88 354.98 172.81 355.01 172.77 355.04 172.75 355.06 172.69 355.08 172.62 355.08 172.53 355.07 172.39 355.02 172.27 354.97 172.17 354.92 172.11 354.92 172.07 354.97 172.01 354.95 171.86 354.89 171.68 354.81 171.49 354.79 171.44 354.78 171.25 354.77 171.16 354.74 171.09 354.71 171.03 354.67 170.99 354.71 170.93 354.74 170.85 354.75 170.76 354.72 170.69 354.76 170.65 354.82 170.64 354.91 170.65 354.93 170.65 354.97 170.6 354.99 170.58 355.02 170.57 355.1 170.58 355.14 170.56 355.22 170.45 355.26 170.43 355.37 170.47 355.39 170.47 355.42 170.48 355.46 170.43 355.47 170.55 355.5 170.62 355.55 170.66 355.6 170.69 355.58 170.73 355.61 170.75 355.62 170.8 355.64 170.88 355.67 170.96 355.77 171.14 355.78 171.19 355.79 171.23 355.8 171.26 355.83 171.29 355.82 171.3 355.8 171.34 355.8 171.36 355.84 171.43 355.9 171.49 355.94 171.56 355.93 171.66 355.97 171.7 356.09 171.72 356.18 171.78 356.21 171.78 356.23 171.78 356.26 171.83 356.27 171.84 356.3 171.84 356.31 171.85 356.33 171.89 356.33 171.92 356.34 171.96 356.34 172 356.39 172.11 356.41 172.15 356.41 172.21 356.43 172.36 356.44 172.42 356.49 172.49 356.6 172.52 356.65 172.59 356.66 172.47 356.68 172.43 356.75 172.44 356.75 172.45 356.78 172.49 356.8 172.51 356.83 172.52 356.89 172.51 356.87 172.53 356.85 172.54 356.85 172.57 356.85 172.61 356.87 172.61 356.91 172.59 356.94 172.55 356.96 172.48 356.98 172.33 357 172.17 357 172.03 356.98 171.91 356.95 171.77 356.89 171.58 356.88 171.55 356.75 171.4 356.75 171.36 356.76 171.31 356.78 171.27 356.81 171.25 356.85 171.24 356.89 171.21 356.93 171.17 356.97 171.11 356.94 171.07 356.92 171.03 356.9 170.98 356.88 170.86 356.88 170.84 356.89 170.83 356.91 170.78 356.95 170.73 357.08 170.67 357.38 170.61 357.48 170.69 357.53 170.7 357.53 170.61 357.55 170.59 357.56 170.58 357.58 170.57 357.6 170.58 357.6 170.6 357.59 170.65 357.63 170.67 357.71 170.75 357.75 170.76 357.73 170.74 357.71 170.71 357.69 170.67 357.68 170.61 357.7 170.61 357.7 170.58 357.68 170.57 357.66 170.55 357.65 170.54 357.65 170.51 357.67 170.47 357.69 170.34 357.71 170.28 357.73 170.25 357.81 170.18 358.01 170.11 358.08 170.14 358.06 170.32 358.1 170.3 358.13 170.25 358.18 170.13 358.17 170.08 358.17 170.06 358.21 170.02 358.27 170.04 358.38 170.09 358.36 170.17 358.32 170.29 358.32 170.37 358.34 170.37 358.5 170.2 358.57 170.22 358.62 170.28 358.66 170.36 358.71 170.39 358.73 170.43 358.7 170.52 358.64 170.65 358.67 170.66 358.7 170.65 358.73 170.63 358.75 170.6 358.78 170.58 358.81 170.6 358.83 170.64 358.86 170.65 358.89 170.7 358.91 170.79 358.93 170.9 358.96 170.99 358.92 171.15 358.9 171.25 358.9 171.29 359.06 171.33 359.16 171.39 359.33 171.42 359.35 171.44 359.37 171.48 359.41 171.57 359.46 171.61 359.48 171.66 359.49 171.73 359.51 171.8 359.52 171.82 359.52 171.84 359.54 171.85 359.58 171.84 359.6 171.84 359.62 171.86 359.64 171.93 359.64 171.98 359.64 172.13 359.65 172.19 359.69 172.28 359.7 172.33 359.7 172.55 359.71 172.59 359.73 172.6 359.79 172.7 359.9 172.81 359.89 172.88 359.9 172.97 359.92 173.05 359.96 173.06 359.99 173 359.99 172.9 359.97 172.8 359.94 172.74 359.93 172.72 359.88 172.68 359.87 172.66 359.86 172.6 359.86 172.56 359.88 172.54 359.88 172.51 359.88 172.46 359.88 172.42 359.87 172.38 359.88 172.33 359.89 172.3 359.93 172.27 359.94 172.25 359.96 172.15 359.95 172.07 359.88 171.81 359.88 171.79 359.88 171.72 359.88 171.7 359.86 171.7 359.85 171.7 359.84 171.7 359.79 171.6 359.78 171.58 359.77 171.58 359.77 171.57 359.76 171.56 359.75 171.55 359.74 171.56 359.72 171.61 359.72 171.62 359.69 171.6 359.62 171.52 359.59 171.48 359.62 171.4 359.61 171.33 359.58 171.27 359.51 171.23 359.47 171.12 359.44 171.06 359.44 171.03 359.46 171.03 359.46 170.99 359.4 170.83 359.37 170.58 359.38 170.32 359.44 170.17 359.47 170.15 359.67 170.17 359.7 170.18 359.75 170.23 359.78 170.24 359.88 170.23 359.91 170.24 359.91 170.26 359.91 170.27 359.91 170.27 359.9 170.28 359.98 170.33 360.2 170.27 360.29 170.32 360.31 170.36 360.33 170.47 360.35 170.51 360.38 170.52 360.47 170.51 360.51 170.53 360.58 170.63 360.62 170.65 360.65 170.68 360.74 170.82 360.76 170.88 360.8 171.04 360.82 171.11 360.9 171.16 360.93 171.22 360.99 171.33 361.07 171.55 361.1 171.62 361.11 171.52 361.09 171.44 361.06 171.37 361.04 171.29 361.08 171.29 361.13 171.28 361.18 171.25 361.22 171.21 361.02 171.22 360.96 171.18 361.31 171.17 361.34 171.2 361.36 171.26 361.39 171.36 361.4 171.36 361.41 171.32 361.42 171.28 361.41 171.25 361.39 171.21 361.39 171.18 361.42 171.15 361.44 171.11 361.45 171.06 361.45 170.99 361.48 170.95 361.5 170.92 361.51 170.88 361.51 170.85 361.5 170.76 361.51 170.69 361.54 170.62 361.59 170.55 361.66 170.49 361.71 170.47 361.74 170.44 361.75 170.38 361.75 170.31 361.74 170.28 361.72 170.27 361.73 170.23 361.77 170.15 361.83 170.09 361.97 170.03 361.99 169.94 362.05 169.99 362.28 170.02 362.33 170.06 362.34 170.06 362.38 170.16 362.46 170.39 362.46 170.42 362.46 170.43 362.46 170.44 362.46 170.47 362.43 170.47 362.43 170.51 362.46 170.53 362.49 170.54 362.52 170.54 362.54 170.51 362.53 170.5 362.49 170.47 362.57 170.41 362.85 170.33 362.94 170.36 362.9 170.36 362.86 170.37 362.83 170.39 362.8 170.43 362.83 170.45 362.87 170.53 362.88 170.52 362.93 170.41 362.95 170.37 362.98 170.36 363.04 170.42 363.09 170.51 363.14 170.6 363.21 170.61 363.21 170.58 363.14 170.53 363.1 170.49 363.08 170.45 363.06 170.38 363.06 170.32 363.05 170.28 363.01 170.24 363.11 170.17 363.26 170.12 363.36 170.06 363.41 170.06 363.21 170.17 363.15 170.24 363.34 170.16 363.39 170.17 363.44 170.22 363.53 170.35 363.59 170.36 363.59 170.32 363.51 170.23 363.47 170.17 363.45 170.11 363.46 170.03 363.49 169.96 363.52 169.9 363.56 169.87 363.56 169.84 363.56 169.83 363.56 169.81 363.58 169.76 363.6 169.71 363.6 169.66 363.6 169.58 363.58 169.53 363.56 169.49 363.53 169.41 363.52 169.39 363.5 169.38 363.49 169.37 363.48 169.35 363.47 169.31 363.47 169.26 363.47 169.23 363.41 169.18 363.39 169.13 363.41 169.04 363.4 169.03 363.38 169.04 363.38 169.02 363.4 168.98 363.41 168.96 363.39 168.94 363.38 168.92 363.36 168.85 363.41 168.85 363.41 168.81 363.37 168.76 363.33 168.58 363.26 168.5 363.28 168.43 363.33 168.36 363.38 168.35 363.39 168.38 363.39 168.43 363.4 168.46 363.42 168.47 363.43 168.44 363.44 168.39 363.45 168.34 363.48 168.31 363.54 168.29 363.58 168.29 363.58 168.33 363.57 168.39 363.58 168.45 363.6 168.48 363.62 168.5 363.62 168.47 363.61 168.45 363.61 168.42 363.6 168.39 363.64 168.38 363.7 168.32 363.72 168.31 363.76 168.34 363.78 168.39 363.81 168.42 363.85 168.43 363.82 168.46 363.8 168.47 363.84 168.5 363.88 168.49 363.92 168.47 363.94 168.47 363.94 168.43 363.96 168.39 363.99 168.33 364.01 168.3 364.02 168.31 364.03 168.38 364.06 168.39 364.08 168.35 364.1 168.25 364.12 168.22 364.17 168.2 364.23 168.2 364.35 168.25 364.38 168.24 364.48 168.2 Z M 360.14 168.18 360.1 168.21 360.06 168.15 360.06 168.06 360.08 168.04 360.14 168.12 360.15 168.13 360.14 168.18 Z" fill-rule="evenodd" id="Iceland" transform="translate(-345.6000061035156,-168.0399932861328) "/></svg>