<svg xmlns="http://www.w3.org/2000/svg" viewBox="0 0 42.78997802734375 38.6199951171875"><path d="M 522.04 307.96 522.02 307.98 522 307.98 521.99 307.99 521.97 307.97 521.96 307.98 521.96 307.96 521.95 307.95 521.94 307.92 521.98 307.91 522.01 307.9 522.02 307.91 522.03 307.94 522.04 307.96 Z M 520.93 307.88 520.9 307.9 520.87 307.89 520.84 307.87 520.83 307.84 520.86 307.83 520.91 307.81 520.92 307.83 520.93 307.88 Z M 520.87 307.01 520.85 307.02 520.83 307.01 520.8 307 520.79 306.98 520.79 306.95 520.78 306.92 520.78 306.9 520.78 306.9 520.79 306.87 520.8 306.85 520.82 306.84 520.84 306.85 520.87 306.87 520.88 306.88 520.89 306.89 520.91 306.9 520.91 306.92 520.87 307.01 Z M 519.81 306.42 519.78 306.43 519.62 306.42 519.6 306.42 519.53 306.39 519.48 306.32 519.51 306.28 519.54 306.26 519.58 306.24 519.62 306.25 519.66 306.26 519.74 306.27 519.77 306.28 519.77 306.28 519.78 306.29 519.78 306.3 519.78 306.3 519.78 306.32 519.78 306.32 519.78 306.32 519.78 306.34 519.78 306.34 519.8 306.35 519.81 306.36 519.81 306.36 519.81 306.37 519.82 306.39 519.81 306.4 519.81 306.42 Z M 523.89 306.1 523.84 306.13 523.81 306.11 523.81 306.05 523.84 305.99 523.88 305.97 523.9 305.96 523.92 305.99 523.92 306.05 523.89 306.1 Z M 518.94 305.99 518.92 306.02 518.88 306.01 518.84 305.99 518.82 305.96 518.83 305.93 518.88 305.93 518.9 305.94 518.93 305.95 518.94 305.99 Z M 518.33 305.66 518.3 305.67 518.21 305.66 518.19 305.66 518.15 305.69 518.1 305.69 517.98 305.67 517.94 305.65 517.93 305.65 517.9 305.63 517.83 305.57 517.81 305.55 517.82 305.54 517.84 305.53 517.86 305.53 517.88 305.52 518.07 305.58 518.23 305.59 518.28 305.61 518.31 305.64 518.33 305.66 Z M 524.97 305.57 524.89 305.6 524.85 305.58 524.86 305.51 524.89 305.47 524.95 305.44 525.03 305.43 525.04 305.51 524.97 305.57 Z M 524.51 305.4 524.46 305.51 524.44 305.55 524.35 305.65 524.33 305.68 524.31 305.7 524.23 305.74 524.21 305.77 524.19 305.78 524.08 305.88 524.02 305.92 523.96 305.9 523.92 305.85 523.86 305.81 523.71 305.88 523.67 305.92 523.63 305.94 523.58 305.94 523.48 305.92 523.44 305.93 523.39 305.96 523.27 306.04 523.15 306.09 523.07 306.15 523.03 306.17 522.89 306.19 522.8 306.21 522.76 306.24 522.74 306.25 522.74 306.25 522.73 306.25 522.72 306.24 522.69 306.23 522.67 306.23 522.66 306.26 522.65 306.27 522.63 306.29 522.6 306.29 522.58 306.3 522.58 306.3 522.57 306.29 522.56 306.28 522.55 306.26 522.54 306.2 522.55 306.15 522.56 306.12 522.55 306.11 522.52 306.04 522.55 306.01 522.65 306.05 522.68 306.04 522.69 306.04 522.7 306.04 522.7 306.04 522.81 305.98 523.11 305.88 523.15 305.87 523.18 305.86 523.19 305.86 523.19 305.86 523.29 305.8 523.34 305.76 523.48 305.71 523.5 305.7 523.55 305.71 523.57 305.71 523.59 305.7 523.61 305.68 523.63 305.67 523.63 305.66 523.62 305.64 523.65 305.6 523.66 305.55 523.65 305.44 523.63 305.4 523.59 305.36 523.56 305.34 523.54 305.32 523.6 305.28 523.91 305.4 523.99 305.38 524.22 305.23 524.52 305.16 524.6 305.16 524.65 305.17 524.7 305.2 524.74 305.23 524.75 305.24 524.77 305.28 524.73 305.3 524.7 305.32 524.56 305.36 524.51 305.4 Z M 525.2 305.06 525.17 305.06 525.1 305.03 525.1 304.97 525.14 304.92 525.18 304.91 525.21 304.92 525.23 304.93 525.25 304.95 525.25 304.96 525.26 304.99 525.25 305.02 525.23 305.04 525.22 305.05 525.2 305.06 Z M 511.56 299.65 511.54 299.65 511.51 299.63 511.49 299.58 511.48 299.53 511.46 299.5 511.49 299.48 511.51 299.49 511.55 299.51 511.58 299.52 511.57 299.57 511.57 299.61 511.56 299.65 Z M 502.27 273.9 502.42 273.88 502.45 273.86 502.57 273.78 502.61 273.75 502.64 273.75 502.73 273.74 502.78 273.73 502.81 273.72 502.84 273.73 503.07 273.83 503.11 273.84 503.15 273.84 503.19 273.82 503.23 273.8 503.26 273.77 503.29 273.74 503.32 273.7 503.38 273.57 503.41 273.53 503.45 273.5 503.58 273.43 503.62 273.4 503.65 273.31 503.68 273.27 503.7 273.25 503.74 273.23 503.75 273.22 503.77 273.2 503.82 273.1 503.85 273.07 503.89 273.04 503.89 273.04 503.92 273.02 503.96 273.02 504.02 273.05 504.05 273.06 504.08 273.05 504.21 272.98 504.23 272.97 504.25 272.94 504.26 272.92 504.3 272.81 504.38 272.69 504.39 272.66 504.41 272.63 504.52 272.57 504.74 272.48 504.76 272.47 504.83 272.43 504.9 272.35 504.9 272.35 505.01 272.21 505.09 272.15 505.18 272.1 505.33 272.05 505.38 272.04 505.41 272.02 505.53 271.9 505.57 271.88 505.84 271.73 505.93 271.63 505.97 271.6 506.01 271.57 506.06 271.55 506.23 271.56 506.26 271.55 506.28 271.53 506.31 271.49 506.31 271.49 506.34 271.5 506.38 271.53 506.52 271.66 506.89 272.1 507.04 272.24 507.1 272.33 507.15 272.43 507.13 272.44 507.07 272.46 506.95 272.54 506.82 272.56 506.74 272.6 506.68 272.66 506.64 272.74 506.63 272.84 506.66 272.92 506.72 272.99 506.84 273.12 506.97 273.17 507 273.2 507.07 273.35 507.08 273.38 507.08 273.42 507.07 273.46 507.07 273.46 507.05 273.5 507.03 273.53 507.03 273.53 507.03 273.53 507.03 273.53 507.03 273.53 506.94 273.58 506.53 273.66 506.52 273.67 506.52 273.7 506.52 273.71 506.4 273.79 506.38 273.82 506.38 273.94 506.43 274.02 506.57 274.13 506.87 274.28 506.89 274.3 506.9 274.32 506.91 274.36 506.9 274.42 506.91 274.47 507.01 274.55 507.05 274.6 507.09 274.64 507.16 274.64 507.27 274.59 507.32 274.59 507.35 274.65 507.36 274.73 507.39 274.77 507.43 274.8 507.46 274.85 507.5 274.9 507.53 274.94 507.59 275.01 507.62 275.05 507.68 275.15 507.75 275.22 507.76 275.22 507.86 275.23 507.91 275.21 507.97 275.19 508.03 275.15 508.07 275.11 508.12 275.08 508.19 275.08 508.34 275.11 508.34 275.36 508.32 275.44 508.33 275.5 508.34 275.65 508.38 275.75 508.41 276.1 508.5 276.42 508.49 276.48 508.48 276.54 508.49 276.6 508.51 276.64 508.59 276.77 508.59 276.8 508.58 276.82 508.58 276.84 508.6 276.95 508.65 277.06 508.76 277.23 508.91 277.38 509.07 277.5 509.43 277.68 509.6 277.74 510.45 277.85 510.54 277.84 510.62 277.81 510.69 277.8 510.77 277.84 510.74 277.84 510.72 277.83 510.71 277.83 510.69 277.85 510.87 277.93 511.16 277.99 511.27 278.03 511.34 278.1 511.33 278.2 511.35 278.24 511.38 278.34 511.4 278.38 511.43 278.43 511.48 278.58 511.55 278.69 511.63 278.76 511.79 278.88 511.89 279.01 511.93 279.03 511.97 279.05 512.22 279.21 512.26 279.22 512.29 279.24 512.36 279.31 512.39 279.34 512.74 279.53 513.06 279.75 513.25 279.84 513.87 279.96 514.26 280.07 514.67 280.15 515.07 280.26 515.48 280.21 515.84 280.07 516.22 279.98 516.62 279.9 516.99 279.83 517.37 279.71 517.74 279.6 518.48 279.44 518.57 279.42 519.45 279.37 519.61 279.33 519.71 279.24 519.71 279.35 519.58 279.39 519.43 279.41 519.32 279.44 519.3 279.45 519.27 279.45 519.21 279.43 519.17 279.44 519.11 279.46 519.08 279.47 518.95 279.45 518.83 279.45 518.85 279.48 518.88 279.49 518.95 279.49 518.91 279.5 518.89 279.51 518.95 279.58 519.04 279.62 519.38 279.65 519.42 279.67 519.45 279.68 519.73 279.6 519.76 279.58 519.77 279.54 519.77 279.25 519.76 279.2 519.73 279.18 519.69 279.17 519.69 279.13 519.74 279.03 519.69 278.95 519.66 278.85 519.61 278.62 519.54 278.44 519.53 278.4 519.51 278.16 520.11 278.21 520.16 278.21 520.2 278.19 520.24 278.16 520.28 278.13 520.33 278.13 520.38 278.13 520.43 278.13 520.51 278.11 520.88 277.89 520.93 277.88 521.07 277.91 521.12 277.91 521.15 277.89 521.2 277.84 521.25 277.82 521.28 277.79 521.38 277.72 521.44 277.68 521.45 277.66 521.45 277.61 521.48 277.54 521.49 277.5 521.49 277.44 521.49 277.42 521.48 277.4 521.46 277.38 521.45 277.36 521.45 277.3 521.48 277.22 521.49 277.16 521.5 277.12 521.53 277.07 521.6 277 521.93 276.77 522.04 276.65 522.05 276.62 522.06 276.59 522.09 276.57 522.12 276.57 522.15 276.56 522.16 276.54 522.19 276.48 522.21 276.46 522.25 276.45 522.38 276.42 522.4 276.41 522.42 276.37 522.47 276.34 522.57 276.31 522.6 276.3 522.64 276.27 522.69 276.24 522.85 276.12 522.91 276.1 523.05 276.09 523.49 276 523.55 276 523.69 276.03 523.78 276.08 523.81 276.09 523.92 276.09 523.96 276.1 524.02 276.13 524.05 276.14 524.09 276.14 524.4 276.09 524.49 276.1 524.5 276.1 524.57 276.13 524.61 276.14 524.8 276.1 524.83 276.08 524.85 276.03 524.86 275.98 524.85 275.93 524.79 275.86 524.81 275.83 524.95 275.7 525.02 275.64 525.1 275.61 525.3 275.61 525.34 275.62 525.37 275.64 525.4 275.66 525.43 275.67 525.47 275.67 525.64 275.59 525.75 275.57 525.77 275.57 525.86 275.64 525.93 275.69 525.97 275.7 526.3 275.76 526.39 275.8 526.44 275.8 526.48 275.78 526.51 275.75 526.58 275.71 526.6 275.68 526.65 275.6 526.66 275.59 526.67 275.57 526.71 275.55 526.74 275.55 526.76 275.55 526.81 275.57 526.83 275.59 526.84 275.6 526.84 275.63 526.85 275.65 526.9 275.74 526.94 275.83 526.97 275.87 527.04 275.95 527.07 276.04 527.11 276.1 527.12 276.15 527.12 276.2 527.08 276.35 527.13 276.42 527.45 276.55 527.49 276.54 527.52 276.53 527.56 276.53 527.59 276.53 527.71 276.56 527.82 276.56 527.85 276.55 527.88 276.55 527.91 276.57 527.94 276.6 527.97 276.61 527.98 276.61 527.99 276.61 528.02 276.61 528.04 276.61 528.06 276.63 528.08 276.67 528.09 276.69 528.12 276.7 528.16 276.7 528.2 276.69 528.23 276.69 528.31 276.71 528.66 276.87 528.8 276.91 528.88 276.91 528.91 276.92 528.95 276.94 528.97 276.96 528.97 276.98 528.96 277 528.97 277.02 529 277.09 529.01 277.11 529.01 277.16 529.01 277.2 529.03 277.23 529.06 277.26 529.1 277.27 529.27 277.3 529.3 277.31 529.36 277.35 529.39 277.36 529.59 277.34 529.63 277.32 529.66 277.28 529.68 277.23 529.71 277.19 529.74 277.17 529.78 277.16 529.82 277.18 529.93 277.28 530.03 277.32 530.08 277.33 530.13 277.32 530.15 277.31 530.16 277.29 530.18 277.28 530.2 277.28 530.25 277.29 530.27 277.29 530.3 277.28 530.32 277.24 530.33 277.2 530.34 277.18 530.48 277.26 530.65 277.3 530.73 277.34 530.77 277.36 530.8 277.37 530.86 277.38 530.88 277.39 530.96 277.47 531.25 277.68 531.3 277.68 531.42 277.63 531.48 277.64 531.52 277.68 531.56 277.74 531.57 277.78 531.57 277.84 531.58 277.87 531.59 277.89 531.58 277.92 531.56 277.95 531.56 277.98 531.56 278.03 531.6 278.23 531.63 278.26 531.77 278.38 531.81 278.43 531.82 278.44 531.82 278.46 531.81 278.47 531.81 278.48 531.81 278.49 531.8 278.52 531.81 278.54 531.84 278.55 531.86 278.56 531.88 278.58 531.89 278.58 531.91 278.59 531.98 278.56 532.02 278.56 532.05 278.6 532.07 278.65 532.08 278.7 532.09 278.74 532.12 278.77 532.15 278.76 532.16 278.75 532.19 278.71 532.21 278.7 532.23 278.7 532.55 278.8 532.7 278.92 532.78 278.97 532.96 279 533.04 279.04 533.11 279.13 533.19 279.3 533.29 279.46 533.53 279.75 533.58 279.82 533.64 279.99 533.69 280.07 533.76 280.11 534.11 280.1 534.42 280.1 534.89 280.09 535.16 280.09 535.38 280.08 535.49 280.1 535.58 280.11 535.6 280.21 535.62 280.25 535.63 280.27 535.63 280.31 535.63 280.34 535.62 280.37 535.61 280.4 535.6 280.42 535.59 280.45 535.59 280.48 535.6 280.52 535.55 280.74 535.54 280.88 535.57 280.96 535.57 280.97 535.56 280.98 535.56 280.99 535.58 281 535.6 281.02 535.61 281.03 535.62 281.05 535.63 281.08 535.63 281.11 535.63 281.17 535.64 281.2 535.67 281.25 535.71 281.42 535.71 281.5 535.71 281.52 535.71 281.53 535.69 281.56 535.68 281.58 535.67 281.61 535.67 281.63 535.66 281.66 535.66 281.69 535.64 281.7 535.62 281.71 535.6 281.72 535.6 281.76 535.6 281.81 535.6 281.84 535.58 281.87 535.53 281.9 535.5 281.94 535.53 281.95 535.59 281.96 535.63 281.98 535.67 282.02 535.71 282.06 535.73 282.1 535.75 282.14 535.77 282.19 535.78 282.29 535.78 282.33 535.78 282.37 535.77 282.44 535.78 282.46 535.78 282.48 535.77 282.55 535.77 282.56 535.77 282.61 535.76 282.63 535.73 282.66 535.72 282.68 535.73 282.75 535.76 282.81 535.81 282.89 535.83 282.92 535.85 283.03 535.86 283.08 535.85 283.14 535.82 283.19 535.76 283.25 535.74 283.31 535.72 283.39 535.71 283.42 535.66 283.48 535.65 283.51 535.64 283.57 535.65 283.71 535.63 283.75 535.59 283.78 535.54 283.79 535.49 283.79 535.46 283.81 535.44 283.87 535.44 283.93 535.44 283.96 535.46 283.97 535.47 283.99 535.47 284.02 535.44 284.03 535.43 284.04 535.44 284.07 535.52 284.18 535.53 284.19 535.52 284.22 535.52 284.24 535.52 284.26 535.54 284.29 535.49 284.36 535.47 284.4 535.46 284.51 535.43 284.62 535.42 284.67 535.41 284.69 535.38 284.74 535.38 284.78 535.38 284.81 535.39 284.86 535.39 284.88 535.38 284.97 535.36 285.06 535.29 285.09 535.28 285.13 535.24 285.21 535.17 285.26 535.13 285.31 535.13 285.37 535.13 285.44 535.12 285.51 535.1 285.54 535.07 285.54 535.05 285.54 535.01 285.55 534.98 285.56 534.97 285.58 534.96 285.6 534.86 285.72 534.82 285.75 534.76 285.76 534.64 285.78 534.58 285.81 534.55 285.86 534.57 285.87 534.59 285.88 534.61 285.9 534.63 285.96 534.65 285.98 534.7 286 534.73 286.03 534.75 286.06 534.78 286.13 534.95 286.34 534.97 286.39 534.81 286.4 534.58 286.41 534.43 286.42 534.44 286.48 534.41 286.52 534.3 286.57 534.22 286.65 534.15 286.75 534.09 286.87 534.08 286.99 534.08 287.03 534.11 287.26 534.17 287.66 534.17 287.77 534.1 287.92 534.08 288.01 534.13 288.2 534.27 288.33 534.45 288.41 534.63 288.42 534.79 288.41 534.88 288.42 534.95 288.44 534.98 288.46 535.02 288.49 535.04 288.53 535.04 288.53 535.02 288.56 534.99 288.57 534.88 288.58 534.84 288.61 534.84 288.65 534.85 288.69 534.85 288.74 534.84 288.79 534.81 288.82 534.74 288.86 534.68 288.92 534.59 289.03 534.49 289.18 534.37 289.34 534.26 289.49 534.24 289.52 534.25 289.73 534.28 289.9 534.34 290.12 534.42 290.37 534.5 290.63 534.58 290.91 534.67 291.21 534.77 291.57 534.84 291.85 534.84 292.06 534.81 292.27 534.79 292.31 534.73 292.39 534.72 292.43 534.73 292.45 534.74 292.46 534.76 292.47 534.74 292.53 534.74 292.55 534.75 292.58 534.76 292.61 534.77 292.66 534.75 292.82 534.75 292.95 534.79 293.19 534.76 293.38 534.76 293.44 534.8 293.57 534.82 293.81 534.9 293.84 535.12 293.87 535.49 293.93 535.49 293.93 535.87 293.98 536.3 294.05 536.56 294.08 536.68 294.1 536.74 294.12 536.78 294.16 536.86 294.26 536.88 294.31 536.86 294.42 536.86 294.47 536.88 294.52 536.94 294.62 536.96 294.68 536.97 294.75 536.97 294.78 537.01 294.86 537.04 294.95 537.05 295 537.05 295.05 537.03 295.1 536.99 295.19 537 295.22 537.01 295.39 537 295.4 536.99 295.42 536.99 295.46 536.99 295.47 537 295.48 536.96 295.52 536.77 295.74 536.49 296.08 536.24 296.38 536.24 296.38 536.06 296.6 535.82 296.88 535.69 297.03 535.51 297.25 535.17 297.66 535.17 297.66 535 297.86 534.87 298.01 535.05 298.22 535.17 298.35 535.31 298.53 535.48 298.73 535.65 298.93 535.84 299.15 535.88 299.19 535.93 299.2 535.96 299.23 535.98 299.3 535.98 299.35 535.95 299.43 535.95 299.48 535.98 299.54 536.05 299.61 536.07 299.66 536.08 299.68 536.09 299.75 536.1 299.78 536.12 299.8 536.14 299.81 536.16 299.81 536.19 299.83 536.21 299.86 536.22 299.9 536.24 299.94 536.28 299.96 536.3 299.97 536.3 300 536.3 300.02 536.28 300.04 536.26 300.06 536.25 300.07 536.26 300.09 536.28 300.1 536.3 300.11 536.33 300.13 536.35 300.16 536.44 300.37 536.46 300.42 536.46 300.46 536.47 300.5 536.54 300.57 536.6 300.71 536.66 300.79 536.89 301 536.98 301.12 537.13 301.25 537.2 301.33 537.24 301.35 537.37 301.39 537.48 301.45 537.54 301.47 537.69 301.48 537.76 301.5 537.94 301.58 538.24 301.64 538.3 301.67 538.32 301.7 538.34 301.73 538.37 301.76 538.4 301.78 538.44 301.8 538.46 301.81 538.48 301.84 538.49 301.88 538.52 301.93 538.66 302.08 538.71 302.11 539.07 302.04 539.12 302.07 539.13 302.16 539.1 302.41 539.06 302.7 539.11 302.87 539.16 303.11 539.18 303.26 539.19 303.46 539.21 303.58 539.23 303.81 539.24 303.94 539.23 304.05 539.11 304.31 539.15 304.36 539.16 304.39 539.16 304.43 539.15 304.46 539.14 304.49 539.11 304.51 539.08 304.51 539.17 304.59 539.21 304.61 539.23 304.61 539.26 304.59 539.27 304.59 539.29 304.6 539.34 304.63 539.41 304.64 539.47 304.64 539.6 304.61 539.66 304.6 539.77 304.57 539.83 304.57 539.87 304.57 539.9 304.57 540.02 304.53 540.04 304.53 540.07 304.54 540.13 304.59 540.15 304.61 540.21 304.63 540.23 304.64 540.25 304.67 540.28 304.71 540.36 304.88 540.32 304.87 540.27 304.87 540.23 304.88 540.2 304.92 540.2 304.95 540.17 304.98 540.16 305.01 540.16 305.04 540.17 305.32 540.19 305.36 540.22 305.4 540.24 305.44 540.23 305.49 540.2 305.52 540.11 305.53 540.07 305.55 540.05 305.59 540.04 305.95 540.01 306.05 539.96 306.1 539.94 306.09 539.92 306.09 539.91 306.07 539.89 306.07 539.87 306.06 539.8 306.08 539.72 306.08 539.63 306.06 539.43 306.06 539.25 306.05 539.1 306.05 539.08 306.06 539.06 306.08 539.04 306.12 539.02 306.13 539.01 306.14 538.99 306.15 538.92 306.16 538.9 306.16 538.88 306.15 538.85 306.15 538.83 306.16 538.82 306.18 538.8 306.19 538.75 306.21 538.38 306.24 538.36 306.25 538.34 306.26 538.33 306.3 538.31 306.31 538.29 306.31 538.24 306.31 538.22 306.31 538.2 306.32 538.18 306.34 538.16 306.35 538.11 306.37 538.09 306.38 538.08 306.4 538.08 306.42 538.08 306.44 538.09 306.45 538.09 306.47 538.07 306.51 538 306.58 537.99 306.61 538 306.67 538.02 306.71 538.02 306.75 537.97 306.77 537.89 306.76 537.79 306.73 537.71 306.71 537.67 306.77 537.66 306.83 537.64 306.86 537.55 306.88 537.5 306.89 537.46 306.91 537.38 306.96 537.12 307.04 537.06 307.08 537.03 307.15 537.01 307.22 536.99 307.37 536.97 307.5 536.95 307.66 536.92 307.86 536.9 308.03 536.89 308.07 536.86 308.11 536.82 308.12 536.77 308.12 536.73 308.13 536.68 308.2 536.69 308.29 536.72 308.39 536.71 308.47 536.7 308.49 536.66 308.52 536.65 308.54 536.64 308.58 536.63 308.72 536.62 308.93 536.6 309.17 536.59 309.38 536.52 309.58 536.52 309.58 536.51 309.55 536.5 309.51 536.46 309.48 536.46 309.46 536.45 309.46 536.42 309.47 536.42 309.48 536.41 309.52 536.41 309.54 536.42 309.55 536.44 309.58 536.45 309.59 536.41 309.58 536.37 309.57 536.33 309.57 536.29 309.6 536.34 309.62 536.36 309.63 536.38 309.65 536.37 309.68 536.33 309.72 536.32 309.75 536.32 309.76 536.32 309.77 536.3 309.79 536.27 309.8 536.15 309.84 536.18 309.86 536.13 309.93 535.76 309.8 535.63 309.77 535.63 309.73 535.59 309.67 535.28 309.56 534.92 309.5 534.61 309.43 534.4 309.4 534.37 309.39 534.4 309.35 534.35 309.28 534.34 309.24 534.34 309.11 534.33 309.09 534.25 309.01 534.22 308.99 534.18 308.98 534.14 308.98 533.99 309.03 533.95 309.05 533.93 309.09 533.89 309.13 533.88 309.15 533.88 309.17 533.88 309.19 533.89 309.24 533.9 309.24 533.92 309.24 533.94 309.26 533.96 309.26 533.97 309.26 533.98 309.28 534 309.3 533.98 309.3 533.98 309.3 534.04 309.34 534.04 309.37 534.01 309.36 533.94 309.33 533.85 309.29 533.8 309.27 533.71 309.27 533.64 309.22 533.66 309.18 533.67 309.17 533.64 309.16 533.6 309.15 533.52 309.15 533.46 309.17 533.45 309.17 533.43 309.19 533.43 309.21 533.43 309.22 533.48 309.25 533.46 309.3 533.4 309.3 533.36 309.27 533.33 309.26 533.26 309.25 533.24 309.23 533.22 309.2 533.18 309.18 533.1 309.19 532.99 309.21 532.87 309.21 532.79 309.27 532.69 309.24 532.6 309.15 532.5 309.12 532.24 309.14 532.14 309.14 531.98 309.1 531.87 308.99 531.79 308.95 531.66 308.97 531.4 309.02 531.34 309.03 531.22 309.04 531.09 309.1 531.04 309.11 531.02 309.11 531.01 309.09 530.99 309.08 530.97 309.09 530.95 309.1 530.93 309.1 530.88 309.1 530.84 309.09 530.8 309.08 530.77 309.05 530.67 308.89 530.61 308.82 530.53 308.78 530.45 308.79 530.43 308.78 530.42 308.75 530.41 308.73 530.4 308.71 530.37 308.7 530.18 308.7 529.78 308.63 529.64 308.65 529.52 308.64 529.48 308.62 529.5 308.58 529.43 308.59 529.36 308.6 529.33 308.62 529.28 308.66 529.24 308.67 529.23 308.66 529.22 308.65 529.21 308.65 529.19 308.68 529.17 308.69 529.14 308.7 529.13 308.69 529.12 308.68 529.1 308.68 529.03 308.74 528.94 308.75 528.87 308.73 528.8 308.71 528.73 308.7 528.67 308.67 528.62 308.61 528.55 308.47 528.49 308.38 528.4 308.36 528.31 308.39 528.22 308.43 528.14 308.5 528.1 308.53 528.06 308.52 528.07 308.42 528.08 308.39 528.08 308.38 528.09 308.37 528.08 308.35 528.06 308.29 528.03 308.26 527.98 308.25 527.92 308.25 527.87 308.25 527.75 308.28 527.72 308.28 527.68 308.25 527.65 308.25 527.63 308.25 527.58 308.26 527.56 308.27 527.5 308.26 527.35 308.21 527.37 308.2 527.07 308.18 527.04 308.16 527.02 308.12 527.01 308 526.96 307.88 526.93 307.78 526.91 307.73 526.89 307.71 526.89 307.7 526.84 307.65 526.83 307.64 526.8 307.65 526.79 307.65 526.79 307.63 526.78 307.61 526.75 307.52 526.74 307.48 526.72 307.43 526.71 307.4 526.73 307.35 526.8 307.27 526.82 307.23 526.79 307.15 526.65 306.99 526.66 306.92 526.64 306.9 526.63 306.79 526.61 306.74 526.59 306.69 526.54 306.65 526.53 306.63 526.53 306.61 526.52 306.56 526.52 306.53 526.56 306.23 526.55 306.11 526.41 305.54 526.37 305.49 526.3 305.43 526.27 305.39 526.28 305.35 526.21 305.31 526.18 305.28 526.22 305.28 526.24 305.27 526.26 305.26 526.29 305.25 526.27 305.23 526.27 305.21 526.28 305.18 526.29 305.16 526.22 305.19 526.2 305.2 526.18 305.19 526.17 305.18 526.16 305.17 526.15 305.16 526.14 305.15 526.12 305.14 526.11 305.13 526.06 305.15 526.05 305.14 526.05 305.12 526.05 305.1 526.02 305.1 526 305.09 526 305.07 526.03 305.06 526.04 305.05 526.08 305.01 526.09 305 526.09 304.98 526.03 304.97 525.98 304.93 525.94 304.88 525.93 304.83 525.9 304.85 525.87 304.86 525.81 304.86 525.78 304.85 525.76 304.83 525.74 304.8 525.72 304.79 525.49 304.79 525.44 304.77 525.43 304.79 525.37 304.76 525.3 304.75 525.17 304.74 525.1 304.73 524.98 304.68 524.92 304.67 524.78 304.68 524.71 304.7 524.66 304.73 524.61 304.75 524.47 304.76 524.41 304.77 524.39 304.78 524.35 304.82 524.35 304.83 524.34 304.86 524.33 304.87 524.31 304.87 524.29 304.88 524.25 304.92 524.11 305.01 524.05 305.05 524.05 305.06 524.04 305.07 524 305.1 523.97 305.11 523.88 305.12 523.78 305.15 523.76 305.15 523.69 305.15 523.66 305.15 523.63 305.17 523.61 305.18 523.53 305.18 523.46 305.16 523.43 305.16 523.39 305.18 523.32 305.25 523.29 305.27 523.27 305.28 523.15 305.42 523.18 305.41 523.19 305.4 523.21 305.38 523.22 305.44 523.2 305.52 523.18 305.59 523.15 305.64 523.07 305.7 522.99 305.74 522.9 305.76 522.8 305.76 522.62 305.7 522.52 305.68 522.43 305.72 522.41 305.77 522.39 305.81 522.37 305.85 522.32 305.86 522.28 305.86 522.18 305.89 522.15 305.91 522 306.04 521.98 306.05 521.76 306.23 521.52 306.37 521.51 306.38 521.49 306.39 521.48 306.41 521.45 306.41 521.43 306.41 521.39 306.39 521.36 306.38 521.17 306.4 521.07 306.38 521.04 306.33 521.01 306.26 520.94 306.2 520.85 306.18 520.64 306.18 520.56 306.15 520.52 306.08 520.49 306 520.45 305.93 520.38 305.87 520.34 305.87 520.29 305.87 520.25 305.88 520.08 305.9 520.03 305.89 519.88 305.85 519.84 305.84 519.82 305.83 519.78 305.8 519.76 305.79 519.74 305.79 519.69 305.8 519.54 305.87 519.44 305.88 519.35 305.91 519.3 305.91 519.2 305.88 519.15 305.87 519.1 305.9 519.07 305.89 518.95 305.79 518.79 305.69 518.57 305.53 518.54 305.49 518.53 305.44 518.52 305.33 518.51 305.28 518.47 305.23 518.4 305.19 517.64 304.93 517.59 304.93 517.55 304.91 517.52 304.88 517.49 304.84 517.47 304.81 517.33 304.77 517.31 304.75 517.29 304.7 517.25 304.67 517.15 304.64 516.97 304.48 516.89 304.42 516.77 304.37 516.6 304.3 516.55 304.25 516.55 304.2 516.57 304.17 516.61 304.15 516.65 304.14 516.7 304.15 516.74 304.14 516.77 304.12 516.75 304.06 516.72 304.03 516.63 303.99 516.59 303.97 516.58 303.94 516.54 303.85 516.52 303.83 516.36 303.66 516.29 303.6 516.2 303.57 515.81 303.48 515.73 303.44 515.46 303.2 515.38 303.14 515.29 303.1 515.19 303.09 515.03 303.11 515 303.1 514.96 303.07 514.88 303.08 514.79 303.1 514.65 303.12 514.57 303.11 514.37 303.07 514.35 303.06 514.34 303.05 514.33 303.02 514.33 303 514.31 302.99 514.25 302.98 514.15 302.95 514.1 302.9 514.05 302.82 514 302.78 513.98 302.85 513.94 302.86 513.89 302.71 513.85 302.64 513.82 302.55 513.73 302.42 513.69 302.38 513.65 302.33 513.64 302.28 513.69 302.15 513.68 302.08 513.64 302.01 513.56 301.94 513.53 301.91 513.45 301.79 513.38 301.71 513.36 301.68 513.23 301.35 513.21 301.27 513.21 300.95 513.18 300.84 513.13 300.75 513.07 300.68 513 300.64 512.91 300.62 512.82 300.61 512.78 300.6 512.76 300.57 512.74 300.52 512.64 300.39 512.62 300.34 512.6 300.28 512.61 300.21 512.66 300.19 512.7 300.2 512.75 300.24 512.78 300.28 512.8 300.33 512.83 300.3 512.82 300.29 512.81 300.27 512.82 300.24 512.83 300.22 512.88 300.18 512.89 300.15 512.9 300.1 512.89 300.04 512.87 300 512.83 300.01 512.81 299.94 512.8 299.92 512.77 299.89 512.76 299.89 512.74 299.91 512.72 299.91 512.71 299.9 512.71 299.86 512.7 299.84 512.7 299.82 512.64 299.81 512.47 299.82 512.43 299.83 512.37 299.87 512.31 299.86 512.26 299.82 512.24 299.75 512.24 299.68 512.24 299.65 512.26 299.62 512.28 299.59 512.29 299.55 512.31 299.53 512.35 299.56 512.36 299.46 512.36 299.44 512.34 299.44 512.33 299.42 512.3 299.37 512.32 299.31 512.31 299.21 512.3 299.11 512.29 299.04 512.26 298.99 512.21 298.93 512.18 298.92 512.18 298.99 512.17 298.96 512.1 298.87 511.99 298.77 511.97 298.74 511.95 298.7 511.92 298.65 511.84 298.57 511.71 298.52 511.69 298.5 511.68 298.45 511.65 298.4 511.59 298.33 511.53 298.24 511.43 298.06 511.37 297.98 511.33 297.95 511.24 297.89 511.15 297.8 511.15 297.79 511.14 297.76 511.14 297.71 511.13 297.69 511.17 297.68 511.17 297.67 511.16 297.65 511.13 297.63 511.15 297.55 511.1 297.4 511.12 297.34 511.09 297.31 511.05 297.27 511.02 297.21 511.01 297.17 511 297.15 510.96 297.12 510.95 297.12 510.89 297.09 510.81 297.08 510.72 297.1 510.64 297.13 509.95 297.57 509.87 297.6 509.8 297.59 509.73 297.5 509.73 297.45 509.73 297.34 509.71 297.29 509.69 297.27 509.69 297.26 509.68 297.25 509.66 297.23 509.63 297.22 509.61 297.22 509.57 297.22 509.54 297.22 509.49 297.23 509.47 297.23 509.44 297.23 509.41 297.2 509.39 297.2 509.35 297.21 509.26 297.24 509.22 297.25 509.16 297.25 509.14 297.22 509.14 297.12 509.14 297.11 509.1 297.09 509.1 297.07 509.09 297.06 509.1 297.02 509.1 297 509.11 296.99 509.11 296.97 509.08 296.95 509.07 297 509.04 297.04 509.01 297.07 508.97 297.07 508.93 297.05 508.92 297.02 508.89 296.99 508.85 296.99 508.8 296.97 508.66 296.88 508.62 296.86 508.61 296.77 508.57 296.72 508.51 296.69 508.44 296.67 508.47 296.63 508.5 296.62 508.59 296.64 508.64 296.63 508.71 296.61 508.75 296.6 508.8 296.61 508.89 296.66 508.92 296.67 508.97 296.68 509.01 296.69 509.04 296.72 509.07 296.76 509.08 296.73 509.12 296.65 509.19 296.57 509.2 296.54 509.2 296.5 509.16 296.51 509.12 296.49 509.1 296.45 509.08 296.35 509.06 296.36 509.02 296.4 508.99 296.43 508.99 296.39 509 296.39 509 296.38 508.99 296.35 508.97 296.35 508.94 296.37 508.91 296.38 508.9 296.37 508.88 296.33 508.86 296.32 508.85 296.33 508.83 296.34 508.81 296.34 508.77 296.33 508.73 296.32 508.69 296.32 508.66 296.34 508.58 296.33 508.51 296.37 508.5 296.42 508.56 296.45 508.63 296.46 508.68 296.5 508.7 296.54 508.66 296.59 508.62 296.59 508.5 296.57 508.47 296.58 508.35 296.69 508.34 296.7 508.32 296.73 508.31 296.76 508.34 296.79 508.33 296.8 508.31 296.82 508.31 296.84 508.32 296.89 508.36 296.93 508.41 296.97 508.44 297.01 508.46 297.05 508.47 297.11 508.49 297.22 508.48 297.26 508.46 297.31 508.46 297.34 508.46 297.36 508.47 297.41 508.47 297.44 508.46 297.49 508.43 297.54 508.39 297.57 508.34 297.58 508.19 297.56 508.15 297.58 508.11 297.56 507.96 297.56 507.86 297.51 507.83 297.5 507.82 297.55 507.83 297.58 507.86 297.63 507.87 297.66 507.86 297.69 507.84 297.71 507.82 297.73 507.8 297.74 507.75 297.75 507.59 297.74 507.59 297.72 507.58 297.74 507.58 297.74 507.56 297.74 507.49 297.72 507.46 297.7 507.43 297.67 507.41 297.66 507.4 297.64 507.38 297.59 507.38 297.56 507.34 297.43 507.33 297.43 507.32 297.4 507.28 297.35 507.25 297.29 507.24 297.27 507.25 297.25 507.27 297.22 507.29 297.21 507.3 297.18 507.31 297.16 507.31 297.13 507.29 297.1 507.28 297.08 507.19 297 507.12 296.92 507.08 296.85 507.06 296.83 507.03 296.82 507 296.82 506.92 296.83 506.89 296.83 506.87 296.83 506.84 296.82 506.83 296.8 506.82 296.78 506.8 296.66 506.78 296.61 506.75 296.56 506.71 296.52 506.69 296.5 506.66 296.49 506.43 296.46 506.43 296.38 506.43 296.38 506.43 295.15 506.43 295.11 506.4 295.1 505.68 295.1 505.68 294.48 505.69 294.03 506.03 293.12 506.04 293.06 506.03 293 506 292.96 505.92 292.89 505.88 292.85 505.87 292.83 505.86 292.79 505.85 292.76 505.83 292.75 505.79 292.72 505.78 292.7 505.7 292.56 505.69 292.51 505.69 292.51 505.66 292.47 505.59 292.43 505.55 292.39 505.5 292.28 505.47 292.23 505.46 292.22 505.42 292.21 505.39 292.2 505.37 292.18 505.35 292.15 505.32 292.13 505.29 292.12 505.27 292.11 505.27 292.09 505.28 292.06 505.28 292.03 505.3 292.01 505.31 291.98 505.31 291.94 505.3 291.91 505.26 291.88 505.25 291.84 505.22 291.83 505.21 291.82 505.17 291.76 505.16 291.75 505.15 291.74 505.09 291.67 505.08 291.66 505.06 291.62 505.06 291.61 505.07 291.6 505.09 291.55 505.1 291.54 505.11 291.52 505.11 291.49 505.09 291.47 505.03 291.42 505 291.38 504.97 291.34 504.94 291.3 504.9 291.28 504.77 291.24 504.74 291.23 504.64 291.29 504.6 291.31 504.52 291.31 504.45 291.3 504.38 291.26 504.31 291.21 504.31 291.21 504.31 291.21 503.65 290.63 503.55 290.53 503.41 290.44 503.31 290.36 503.3 290.35 503.09 290.23 503.03 290.17 502.81 290.06 502.57 289.99 502.31 290.02 502.18 290.01 502.13 289.9 502.13 289.9 502.16 289.87 502.2 289.84 502.23 289.8 502.25 289.76 502.23 289.72 502.2 289.69 502.16 289.68 502.06 289.67 502.03 289.64 502.03 289.61 502.08 289.58 502.13 289.58 502.16 289.58 502.2 289.57 502.25 289.54 502.31 289.48 502.34 289.44 502.35 289.41 502.35 289.38 502.33 289.37 502.32 289.34 502.32 289.32 502.33 289.27 502.33 289.24 502.31 289.2 502.28 289.17 502.21 289.11 502.12 288.99 502.05 288.92 502.04 288.88 502.03 288.83 502.03 288.78 502.01 288.73 501.98 288.68 501.91 288.59 501.9 288.59 501.9 288.58 501.89 288.58 501.89 288.58 501.87 288.57 501.86 288.58 501.85 288.58 501.81 288.62 501.74 288.63 501.68 288.61 501.64 288.58 501.67 288.54 501.78 288.47 501.81 288.43 501.79 288.37 501.74 288.34 501.71 288.3 501.71 288.22 501.67 288.23 501.56 288.23 501.52 288.25 501.45 288.31 501.42 288.34 501.38 288.35 501.36 288.33 501.36 288.23 501.36 288.21 501.35 288.19 501.24 288.12 501.21 288.09 501.18 288.04 501.16 288 501.14 287.95 501.13 287.9 501.12 287.86 501.09 287.82 501.05 287.79 501.02 287.76 500.83 287.4 500.82 287.4 500.82 287.4 500.81 287.4 500.75 287.41 500.69 287.4 500.64 287.38 500.59 287.31 500.64 287.29 500.66 287.27 500.68 287.26 500.68 287.26 500.68 287.26 500.71 287.18 500.73 287.11 500.76 287.05 500.81 287.01 500.84 286.97 500.93 286.9 500.96 286.87 500.96 286.84 500.94 286.82 500.93 286.79 500.92 286.76 500.92 286.74 500.95 286.69 500.96 286.66 500.99 286.54 501 286.47 500.99 286.41 500.95 286.36 500.91 286.33 500.86 286.33 500.81 286.36 500.77 286.33 500.74 286.28 500.67 286.06 500.7 286.02 500.81 285.99 500.83 285.98 500.84 285.96 500.86 285.94 500.87 285.92 500.87 285.84 500.85 285.73 500.86 285.66 500.95 285.69 501.02 285.73 501.09 285.74 501.24 285.76 501.29 285.77 501.31 285.77 501.31 285.75 501.32 285.72 501.32 285.69 501.31 285.68 501.29 285.64 501.28 285.6 501.28 285.55 501.27 285.5 501.27 285.48 501.25 285.46 501.24 285.45 501.24 285.42 501.23 285.4 501.21 285.38 501.19 285.36 501.17 285.35 501.14 285.31 501.16 285.27 501.22 285.2 501.23 285.17 501.22 285.12 501.23 285.08 501.25 285.05 501.28 285.04 501.34 285.03 501.4 284.99 501.41 284.93 501.41 284.86 501.42 284.81 501.48 284.8 501.51 284.83 501.54 284.84 501.6 284.86 501.63 284.82 501.65 284.75 501.67 284.7 501.68 284.65 501.66 284.58 501.66 284.58 501.65 284.54 501.65 284.51 501.66 284.48 501.68 284.45 501.7 284.45 501.73 284.44 501.74 284.44 501.75 284.43 501.74 284.39 501.74 284.38 501.77 284.33 501.79 284.32 501.82 284.33 501.87 284.36 501.89 284.37 501.92 284.37 501.99 284.4 502.02 284.39 502.05 284.36 502.11 284.33 502.14 284.32 502.18 284.33 502.23 284.31 502.26 284.31 502.28 284.3 502.3 284.26 502.26 284.21 502.29 284.13 502.33 284.05 502.34 283.98 502.31 283.95 502.22 283.95 502.19 283.93 502.19 283.89 502.21 283.86 502.23 283.82 502.24 283.8 502.25 283.78 502.23 283.71 502.18 283.64 502.06 283.53 501.92 283.31 501.89 283.23 501.89 283.2 501.89 283.18 501.9 283.17 501.92 283.15 501.93 283.14 501.93 283.13 501.93 283.12 501.92 283.11 501.9 283.06 501.88 283 501.89 283 501.9 283 501.97 283.02 501.97 282.98 501.95 282.88 501.95 282.83 501.96 282.78 501.98 282.74 502 282.71 502.05 282.69 502.2 282.7 502.25 282.69 502.36 282.63 502.45 282.63 502.49 282.63 502.53 282.6 502.56 282.55 502.63 282.51 502.66 282.48 502.69 282.43 502.69 282.39 502.68 282.35 502.64 282.33 502.59 282.32 502.55 282.34 502.51 282.37 502.47 282.38 502.38 282.4 502.33 282.41 502.28 282.39 502.27 282.37 502.25 282.36 502.24 282.34 502.23 282.28 502.22 282.27 502.21 282.27 502.14 282.24 502.1 282.24 502.06 282.26 502.02 282.28 501.98 282.3 501.84 282.29 501.77 282.31 501.74 282.31 501.72 282.3 501.7 282.3 501.64 282.35 501.6 282.37 501.55 282.37 501.52 282.35 501.49 282.34 501.41 282.37 501.37 282.36 501.34 282.32 501.29 282.18 501.18 282.04 501.12 281.98 501.06 281.96 501.03 281.95 500.95 281.87 500.86 281.84 500.81 281.82 500.75 281.82 500.68 281.86 500.64 281.87 500.64 281.87 500.64 281.87 500.64 281.87 500.64 281.87 500.6 281.9 500.55 281.92 500.5 281.91 500.46 281.87 500.46 281.87 500.46 281.87 500.46 281.87 500.46 281.87 500.45 281.83 500.46 281.77 500.49 281.71 500.51 281.67 500.52 281.62 500.49 281.56 500.43 281.47 500.41 281.41 500.42 281.29 500.41 281.24 500.38 281.2 500.34 281.17 500.32 281.14 500.38 281.1 500.34 281.05 500.32 281 500.31 280.89 500.3 280.82 500.28 280.75 500.24 280.7 500.18 280.7 500.06 280.75 500 280.75 499.94 280.73 499.91 280.7 499.9 280.67 499.9 280.65 499.89 280.61 499.87 280.58 499.85 280.57 499.84 280.54 499.83 280.5 499.81 280.47 499.77 280.44 499.76 280.44 499.73 280.39 499.74 280.35 499.75 280.34 499.77 280.33 499.78 280.33 499.78 280.27 499.81 280.18 499.85 280.08 499.85 280.03 499.83 279.97 499.77 279.87 499.74 279.82 499.7 279.8 499.68 279.8 499.65 279.79 499.63 279.78 499.61 279.75 499.58 279.73 499.55 279.72 499.48 279.73 499.42 279.71 499.38 279.68 499.36 279.64 499.38 279.57 499.46 279.47 499.49 279.42 499.5 279.36 499.49 279.29 499.47 279.25 499.46 279.2 499.47 279.13 499.5 279.1 499.5 279.07 499.49 279.04 499.44 279.02 499.41 278.99 499.4 278.98 499.38 278.98 499.33 278.99 499.31 278.99 499.3 278.98 499.29 278.93 499.28 278.92 499.26 278.9 499.25 278.9 499.23 278.89 499.22 278.87 499.2 278.82 499.2 278.8 499.23 278.72 499.25 278.66 499.23 278.62 499.21 278.57 499.2 278.51 499.22 278.47 499.25 278.44 499.28 278.42 499.3 278.39 499.31 278.3 499.26 278.24 499.13 278.16 499.11 278.12 499.1 278.08 499.08 278.06 499 278.07 498.98 278.05 498.95 277.97 498.91 277.94 498.83 277.93 498.8 277.92 498.79 277.87 498.82 277.79 498.81 277.74 498.81 277.74 498.8 277.68 498.8 277.62 498.82 277.55 498.84 277.49 498.83 277.44 498.78 277.41 498.73 277.36 498.74 277.27 498.76 277.25 498.84 277.18 498.86 277.15 498.85 277.12 498.77 277.02 498.72 276.97 498.66 276.95 498.6 276.95 498.57 276.97 498.53 276.98 498.5 276.98 498.48 276.95 498.49 276.93 498.49 276.89 498.49 276.87 498.48 276.86 498.46 276.86 498.45 276.87 498.43 276.86 498.41 276.83 498.39 276.8 498.38 276.76 498.37 276.74 498.35 276.72 498.27 276.68 498.24 276.67 498.1 276.69 498.02 276.68 497.98 276.62 497.99 276.6 497.99 276.59 498.01 276.56 498.03 276.53 498.03 276.49 498.02 276.45 498.02 276.42 498.04 276.38 498.06 276.35 498.06 276.35 498.06 276.35 498.08 276.31 498.13 276.25 498.15 276.2 498.17 276.14 498.19 276.11 498.22 276.09 498.26 276.06 498.27 276.05 498.26 275.99 498.26 275.97 498.28 275.95 498.32 275.94 498.33 275.92 498.35 275.87 498.36 275.82 498.37 275.76 498.36 275.63 498.42 275.56 498.5 275.5 498.55 275.42 498.55 275.38 498.53 275.34 498.51 275.3 498.47 275.27 498.44 275.26 498.41 275.26 498.34 275.31 498.23 275.29 498.2 275.27 498.18 275.26 498.17 275.23 498.18 275.19 498.18 275.16 498.17 275.09 498.17 275.06 498.2 274.94 498.2 274.89 498.18 274.75 498.19 274.64 498.19 274.58 498.18 274.53 498.16 274.51 498.14 274.5 498.1 274.49 498.07 274.48 498.08 274.46 498.1 274.44 498.11 274.42 498.1 274.37 498.09 274.33 498.08 274.3 498.09 274.24 498.15 274.04 498.14 273.95 498.03 273.9 497.99 273.86 497.96 273.82 497.94 273.76 497.93 273.74 497.92 273.71 497.92 273.69 497.92 273.66 497.9 273.65 497.88 273.63 497.87 273.61 497.86 273.57 497.85 273.55 497.84 273.53 497.84 273.53 497.87 273.47 497.91 273.44 497.93 273.41 497.91 273.3 497.92 273.25 497.97 273.17 497.95 273.1 497.86 273.04 497.76 272.99 497.71 272.94 497.7 272.92 497.72 272.86 497.72 272.84 497.69 272.78 497.68 272.76 497.68 272.73 497.69 272.71 497.69 272.69 497.66 272.64 497.65 272.58 497.64 272.55 497.64 272.55 497.58 272.48 497.57 272.44 497.59 272.41 497.64 272.38 497.67 272.37 497.7 272.37 497.75 272.38 497.8 272.37 497.92 272.34 497.98 272.34 498.13 272.42 498.19 272.42 498.24 272.41 498.35 272.36 498.39 272.33 498.43 272.27 498.43 272.22 498.42 272.17 498.43 272.1 498.43 272.1 498.44 272.1 498.46 272.07 498.46 272.04 498.45 272 498.45 271.96 498.45 271.91 498.46 271.87 498.53 271.72 498.55 271.69 498.55 271.68 498.55 271.64 498.54 271.55 498.55 271.52 498.79 271.32 498.84 271.31 498.88 271.33 498.94 271.42 498.97 271.46 499.1 271.52 499.14 271.55 499.32 271.68 499.33 271.69 499.36 271.71 499.37 271.72 499.42 271.73 499.47 271.73 499.46 271.74 499.45 271.75 499.5 271.78 499.52 271.84 499.59 272.12 499.62 272.18 499.66 272.22 499.65 272.25 499.65 272.27 499.71 272.31 499.72 272.32 499.75 272.31 499.76 272.32 499.77 272.33 499.78 272.34 499.78 272.35 499.86 272.41 499.88 272.42 499.88 272.44 499.9 272.47 499.92 272.5 499.95 272.51 499.96 272.54 500 272.63 500.02 272.66 500.04 272.69 500.05 272.72 500.07 272.86 500.09 272.9 500.15 272.88 500.38 272.96 500.38 272.96 500.4 272.95 500.42 272.94 500.44 272.94 500.45 272.96 500.44 272.98 500.44 273.01 500.46 273.02 500.49 273.03 500.52 273.04 500.53 273.07 500.52 273.12 500.53 273.15 500.55 273.16 500.57 273.17 500.59 273.19 500.6 273.22 500.62 273.28 500.63 273.3 500.65 273.32 500.7 273.34 500.71 273.36 500.71 273.39 500.7 273.41 500.69 273.44 500.7 273.47 500.72 273.5 500.77 273.53 500.82 273.55 500.85 273.56 500.88 273.57 500.93 273.6 500.94 273.6 500.95 273.6 501.02 273.61 501.14 273.64 501.34 273.64 501.45 273.68 501.5 273.7 501.97 273.8 502.12 273.87 502.25 273.9 502.27 273.9 Z" fill-rule="evenodd" id="Iran" transform="translate(-497.57000732421875,-271.30999755859375) "/></svg>