<svg xmlns="http://www.w3.org/2000/svg" viewBox="0 0 21.69000244140625 21.949981689453125"><path d="M 499.23 278.72 499.2 278.8 499.2 278.82 499.22 278.87 499.23 278.89 499.25 278.9 499.26 278.9 499.28 278.92 499.29 278.93 499.3 278.98 499.31 278.99 499.33 278.99 499.38 278.98 499.4 278.98 499.41 278.99 499.44 279.02 499.49 279.04 499.5 279.07 499.5 279.1 499.47 279.13 499.46 279.2 499.47 279.25 499.49 279.29 499.5 279.36 499.49 279.42 499.46 279.47 499.38 279.57 499.36 279.64 499.38 279.68 499.42 279.71 499.48 279.73 499.55 279.72 499.58 279.73 499.61 279.75 499.63 279.78 499.65 279.79 499.68 279.8 499.7 279.8 499.74 279.82 499.77 279.87 499.83 279.97 499.85 280.03 499.85 280.08 499.81 280.18 499.78 280.27 499.78 280.33 499.77 280.33 499.75 280.34 499.74 280.35 499.73 280.39 499.76 280.44 499.77 280.44 499.81 280.47 499.83 280.5 499.84 280.54 499.85 280.57 499.87 280.58 499.89 280.61 499.9 280.65 499.9 280.67 499.91 280.7 499.94 280.73 500 280.75 500.06 280.75 500.18 280.7 500.24 280.7 500.28 280.75 500.3 280.82 500.31 280.89 500.32 281 500.34 281.05 500.38 281.1 500.32 281.14 500.34 281.17 500.38 281.2 500.41 281.24 500.42 281.29 500.41 281.41 500.43 281.47 500.49 281.56 500.52 281.62 500.51 281.67 500.49 281.71 500.46 281.77 500.45 281.83 500.46 281.87 500.46 281.87 500.46 281.87 500.46 281.87 500.46 281.87 500.5 281.91 500.55 281.92 500.6 281.9 500.64 281.87 500.64 281.87 500.64 281.87 500.64 281.87 500.64 281.87 500.68 281.86 500.75 281.82 500.81 281.82 500.86 281.84 500.95 281.87 501.03 281.95 501.06 281.96 501.12 281.98 501.18 282.04 501.29 282.18 501.34 282.32 501.37 282.36 501.41 282.37 501.49 282.34 501.52 282.35 501.55 282.37 501.6 282.37 501.64 282.35 501.7 282.3 501.72 282.3 501.74 282.31 501.77 282.31 501.84 282.29 501.98 282.3 502.02 282.28 502.06 282.26 502.1 282.24 502.14 282.24 502.21 282.27 502.22 282.27 502.23 282.28 502.24 282.34 502.25 282.36 502.27 282.37 502.28 282.39 502.33 282.41 502.38 282.4 502.47 282.38 502.51 282.37 502.55 282.34 502.59 282.32 502.64 282.33 502.68 282.35 502.69 282.39 502.69 282.43 502.66 282.48 502.63 282.51 502.56 282.55 502.53 282.6 502.49 282.63 502.45 282.63 502.36 282.63 502.25 282.69 502.2 282.7 502.05 282.69 502 282.71 501.98 282.74 501.96 282.78 501.95 282.83 501.95 282.88 501.97 282.98 501.97 283.02 501.9 283 501.89 283 501.88 283 501.9 283.06 501.92 283.11 501.93 283.12 501.93 283.13 501.93 283.14 501.92 283.15 501.9 283.17 501.89 283.18 501.89 283.2 501.89 283.23 501.92 283.31 502.06 283.53 502.18 283.64 502.23 283.71 502.25 283.78 502.24 283.8 502.23 283.82 502.21 283.86 502.19 283.89 502.19 283.93 502.22 283.95 502.31 283.95 502.34 283.98 502.33 284.05 502.29 284.13 502.26 284.21 502.3 284.26 502.28 284.3 502.26 284.31 502.23 284.31 502.18 284.33 502.14 284.32 502.11 284.33 502.05 284.36 502.02 284.39 501.99 284.4 501.92 284.37 501.89 284.37 501.87 284.36 501.82 284.33 501.79 284.32 501.77 284.33 501.74 284.38 501.74 284.39 501.75 284.43 501.74 284.44 501.73 284.44 501.7 284.45 501.68 284.45 501.66 284.48 501.65 284.51 501.65 284.54 501.66 284.58 501.66 284.58 501.68 284.65 501.67 284.7 501.65 284.75 501.63 284.82 501.6 284.86 501.54 284.84 501.51 284.83 501.48 284.8 501.42 284.81 501.41 284.86 501.41 284.93 501.4 284.99 501.34 285.03 501.28 285.04 501.25 285.05 501.23 285.08 501.22 285.12 501.23 285.17 501.22 285.2 501.16 285.27 501.14 285.31 501.17 285.35 501.19 285.36 501.21 285.38 501.23 285.4 501.24 285.42 501.24 285.45 501.25 285.46 501.27 285.48 501.27 285.5 501.28 285.55 501.28 285.6 501.29 285.64 501.31 285.68 501.32 285.69 501.32 285.72 501.31 285.75 501.31 285.77 501.29 285.77 501.24 285.76 501.09 285.74 501.02 285.73 500.95 285.69 500.86 285.66 500.85 285.73 500.87 285.84 500.87 285.92 500.86 285.94 500.84 285.96 500.83 285.98 500.81 285.99 500.7 286.02 500.67 286.06 500.74 286.28 500.77 286.33 500.81 286.36 500.86 286.33 500.91 286.33 500.95 286.36 500.99 286.41 501 286.47 500.99 286.54 500.96 286.66 500.95 286.69 500.92 286.74 500.92 286.76 500.93 286.79 500.94 286.82 500.96 286.84 500.96 286.87 500.93 286.9 500.84 286.97 500.81 287.01 500.76 287.05 500.73 287.11 500.71 287.18 500.68 287.26 500.68 287.26 500.68 287.26 500.66 287.27 500.64 287.29 500.59 287.31 500.64 287.38 500.69 287.4 500.75 287.41 500.81 287.4 500.82 287.4 500.82 287.4 500.83 287.4 501.02 287.76 501.05 287.79 501.09 287.82 501.12 287.86 501.13 287.9 501.14 287.95 501.16 288 501.18 288.04 501.21 288.09 501.24 288.12 501.35 288.19 501.36 288.21 501.36 288.23 501.36 288.33 501.38 288.35 501.42 288.34 501.45 288.31 501.52 288.25 501.56 288.23 501.67 288.23 501.71 288.22 501.71 288.3 501.74 288.34 501.79 288.37 501.81 288.43 501.78 288.47 501.67 288.54 501.64 288.58 501.68 288.61 501.74 288.63 501.81 288.62 501.85 288.58 501.86 288.58 501.87 288.57 501.89 288.58 501.89 288.58 501.9 288.58 501.9 288.59 501.91 288.59 501.98 288.68 502.01 288.73 502.03 288.78 502.03 288.83 502.04 288.88 502.05 288.92 502.12 288.99 502.21 289.11 502.28 289.17 502.31 289.2 502.33 289.24 502.33 289.27 502.32 289.32 502.32 289.34 502.33 289.37 502.35 289.38 502.35 289.41 502.34 289.44 502.31 289.48 502.25 289.54 502.2 289.57 502.16 289.58 502.13 289.58 502.08 289.58 502.03 289.61 502.03 289.64 502.06 289.67 502.16 289.68 502.2 289.69 502.23 289.72 502.25 289.76 502.23 289.8 502.2 289.84 502.16 289.87 502.13 289.9 502.13 289.9 502.18 290.01 502.31 290.02 502.57 289.99 502.81 290.06 503.03 290.17 503.09 290.23 503.3 290.35 503.31 290.36 503.41 290.44 503.55 290.53 503.65 290.63 504.31 291.21 504.31 291.21 504.31 291.21 504.38 291.26 504.45 291.3 504.52 291.31 504.6 291.31 504.64 291.29 504.74 291.23 504.77 291.24 504.9 291.28 504.94 291.3 504.97 291.34 505 291.38 505.03 291.42 505.09 291.47 505.11 291.49 505.11 291.52 505.1 291.54 505.09 291.55 505.07 291.6 505.06 291.61 505.06 291.62 505.08 291.66 505.09 291.67 505.15 291.74 505.16 291.75 505.17 291.76 505.21 291.82 505.22 291.83 505.25 291.84 505.26 291.88 505.3 291.91 505.31 291.94 505.31 291.98 505.3 292.01 505.28 292.03 505.28 292.06 505.27 292.09 505.27 292.11 505.29 292.12 505.32 292.13 505.35 292.15 505.37 292.18 505.39 292.2 505.42 292.21 505.46 292.22 505.47 292.23 505.5 292.28 505.55 292.39 505.59 292.43 505.66 292.47 505.69 292.51 505.69 292.51 505.7 292.56 505.78 292.7 505.79 292.72 505.83 292.75 505.85 292.76 505.86 292.79 505.87 292.83 505.88 292.85 505.92 292.89 506 292.96 506.03 293 506.04 293.06 506.03 293.12 505.69 294.03 505.68 294.48 505.68 295.1 506.4 295.1 506.43 295.11 506.43 295.15 506.43 296.38 506.43 296.38 506.43 296.46 506.66 296.49 506.69 296.5 506.71 296.52 506.75 296.56 506.78 296.61 506.8 296.66 506.82 296.78 506.83 296.8 506.84 296.82 506.87 296.83 506.89 296.83 506.92 296.83 507 296.82 507.03 296.82 507.06 296.83 507.08 296.85 507.12 296.92 507.19 297 507.28 297.08 507.29 297.1 507.31 297.13 507.31 297.16 507.3 297.18 507.29 297.21 507.27 297.22 507.25 297.25 507.24 297.27 507.25 297.29 507.28 297.35 507.32 297.4 507.33 297.43 507.34 297.43 507.38 297.56 507.38 297.59 507.4 297.64 507.41 297.66 507.43 297.67 507.46 297.7 507.49 297.72 507.56 297.74 507.58 297.74 507.58 297.74 507.58 297.74 507.58 297.76 507.63 297.76 507.64 297.78 507.61 297.81 507.55 297.83 507.31 297.8 507.14 297.74 507.06 297.68 506.99 297.66 506.86 297.58 506.77 297.55 506.66 297.53 506.57 297.53 506.48 297.55 506.33 297.63 506.32 297.57 506.31 297.49 506.29 297.42 506.26 297.37 506.28 297.45 506.29 297.49 506.28 297.52 506.27 297.55 506.27 297.58 506.29 297.6 506.28 297.66 505.8 297.42 505.68 297.39 505.11 297.39 504.98 297.41 504.62 297.56 504.5 297.64 504.43 297.74 504.24 298.22 504.16 298.38 504.15 298.41 504.14 298.49 504.13 298.51 504.09 298.61 503.92 298.88 503.86 299.05 503.83 299.1 503.68 299.26 503.54 299.49 503.21 299.86 503.15 299.94 503.05 299.96 502.95 299.98 502.91 299.99 502.86 300 502.76 300.02 502.53 300 502.36 299.98 502.19 299.97 502.02 299.95 501.85 299.94 501.62 299.92 501.4 299.9 501.17 299.87 500.94 299.85 500.71 299.83 500.49 299.81 500.26 299.79 500.03 299.77 499.86 299.76 499.68 299.74 499.5 299.72 499.33 299.71 499.12 299.69 499.11 299.68 499.1 299.68 499.08 299.67 499.07 299.67 498.9 299.53 498.69 299.36 498.47 299.19 498.26 299.02 498.05 298.85 497.8 298.65 497.54 298.44 497.29 298.24 497.14 298.12 497.04 298.03 496.78 297.83 496.53 297.62 496.27 297.41 496.02 297.21 495.82 297.05 495.63 296.89 495.43 296.73 495.24 296.57 495 296.38 495 296.38 495 296.38 495 296.38 494.84 296.24 494.79 296.2 494.58 296.02 494.37 295.84 494.16 295.65 493.98 295.49 493.79 295.33 493.6 295.17 493.41 295.01 493.27 294.88 493.07 294.76 492.88 294.65 492.68 294.53 492.49 294.42 492.29 294.3 492.1 294.19 491.9 294.07 491.71 293.96 491.51 293.84 491.32 293.73 491.13 293.61 490.93 293.49 490.74 293.38 490.54 293.26 490.35 293.15 490.15 293.03 489.96 292.91 489.73 292.78 489.61 292.71 489.49 292.66 488.73 292.51 488.73 292.51 488.73 292.51 488.73 292.51 488.55 292.48 488.11 292.41 487.68 292.33 487.24 292.26 486.8 292.18 486.79 292.19 486.79 292.19 486.78 292.19 486.77 292.19 486.77 292.17 487.04 291.95 487.1 291.86 487.05 291.69 487.02 291.61 486.97 291.58 486.55 291.7 486.53 291.68 486.51 291.64 486.41 291.27 486.4 291.27 486.4 291.26 486.4 291.26 486.41 291.26 486.58 291.21 486.43 290.66 486.32 290.27 486.22 289.9 486.15 289.62 486.05 289.28 485.95 288.91 486.2 288.76 486.44 288.61 486.69 288.47 486.93 288.32 487.18 288.17 487.42 288.03 487.67 287.88 487.91 287.73 488.16 287.59 488.4 287.44 488.65 287.29 488.89 287.14 489.05 287.05 489.14 287 489.38 286.85 489.63 286.7 489.87 286.55 490.2 286.36 490.74 286.21 490.81 286.17 490.86 286.1 490.94 285.92 490.94 285.92 491.32 285.19 491.34 285.12 491.34 285.05 491.32 284.58 491.31 284.14 491.31 284.07 491.33 283.91 491.42 283.58 491.44 283.31 491.46 283.23 491.46 283.23 491.46 283.23 491.46 283.23 491.57 283.07 491.64 282.96 491.68 282.88 491.69 282.79 491.68 282.42 491.67 282.33 491.65 282.24 491.47 281.87 491.47 281.87 491.47 281.87 491.42 281.74 491.41 281.69 491.41 281.64 491.48 280.96 491.5 280.89 491.69 280.5 491.69 280.5 491.69 280.5 491.69 280.5 491.74 280.44 491.8 280.41 491.95 280.39 492.63 280.24 492.7 280.21 492.75 280.16 493.05 279.85 493.5 279.37 493.72 279.13 493.72 279.13 493.72 279.13 493.72 279.13 493.87 278.99 493.94 278.94 493.94 278.94 493.94 278.9 493.92 278.87 493.91 278.84 493.89 278.81 493.99 278.8 494.12 278.75 494.31 278.72 494.34 278.71 494.35 278.69 494.38 278.61 494.66 278.21 494.67 278.19 494.67 278.17 494.67 278.15 494.69 278.13 494.7 278.12 494.81 278.07 494.83 278.07 494.86 278.07 494.88 278.09 494.89 278.14 494.9 278.15 495.09 278.21 495.18 278.22 495.27 278.19 495.33 278.15 495.41 278.11 495.5 278.09 495.57 278.08 495.61 278.09 495.9 278.25 495.92 278.26 495.93 278.26 495.95 278.25 495.97 278.23 495.99 278.22 496.04 278.22 496.06 278.22 496.12 278.27 496.15 278.29 496.24 278.34 496.34 278.42 496.38 278.44 496.41 278.43 496.46 278.41 496.49 278.41 496.52 278.41 496.54 278.42 496.58 278.45 496.63 278.48 496.69 278.48 496.91 278.47 496.97 278.47 497.02 278.49 497.05 278.5 497.09 278.55 497.11 278.56 497.14 278.55 497.18 278.51 497.3 278.49 497.37 278.41 497.43 278.31 497.51 278.25 497.61 278.23 497.69 278.24 497.73 278.25 497.94 278.34 497.99 278.37 498.03 278.41 498.05 278.46 498.07 278.52 498.08 278.58 498.09 278.61 498.08 278.64 498.07 278.67 498.04 278.68 498.02 278.69 497.99 278.71 497.95 278.75 497.93 278.81 497.93 278.87 497.95 278.93 498.04 279.13 498.05 279.16 498.07 279.17 498.16 279.2 498.19 279.19 498.21 279.17 498.23 279.13 498.23 279.13 498.23 279.13 498.23 279.13 498.27 279.07 498.28 279.02 498.29 278.99 498.48 278.93 498.54 278.9 498.6 278.86 498.65 278.79 498.73 278.71 498.82 278.65 498.89 278.62 498.93 278.62 499.16 278.65 499.2 278.67 499.23 278.72 Z" id="Iraq" transform="translate(-485.95001220703125,-278.07000732421875) "/></svg>