<svg xmlns="http://www.w3.org/2000/svg" viewBox="0 0 9.94000244140625 14.6199951171875"><path d="M 378.22 233.57 378.24 233.57 378.26 233.56 378.28 233.58 378.26 233.6 378.25 233.61 378.07 233.67 378.05 233.66 378.02 233.64 378.02 233.6 378.05 233.58 378.1 233.56 378.15 233.56 378.22 233.57 Z M 377.11 232.53 377.13 232.55 377.14 232.54 377.16 232.55 377.17 232.57 377.16 232.6 377.12 232.62 377.03 232.66 376.96 232.67 376.93 232.69 376.89 232.7 376.88 232.67 376.92 232.62 377.03 232.54 377.05 232.52 377.09 232.53 377.11 232.53 Z M 378.38 228.15 378.41 228.15 378.46 228.14 378.51 228.14 378.56 228.17 378.58 228.19 378.56 228.22 378.56 228.24 378.61 228.27 378.62 228.27 378.63 228.27 378.63 228.3 378.59 228.31 378.32 228.19 378.25 228.14 378.27 228.11 378.33 228.11 378.38 228.15 Z M 378.59 227.79 378.52 227.81 378.48 227.77 378.47 227.71 378.46 227.69 378.45 227.67 378.48 227.63 378.5 227.61 378.53 227.61 378.56 227.61 378.58 227.63 378.64 227.72 378.59 227.79 Z M 377.93 224.87 377.97 224.97 377.93 224.97 377.93 225 377.93 225.03 377.93 225.06 377.91 225.08 377.91 225.1 377.94 225.09 377.97 225.08 377.99 225.08 378 225.1 378 225.13 377.99 225.16 377.97 225.22 377.97 225.28 377.97 225.33 377.93 225.38 377.88 225.35 377.84 225.3 377.79 225.26 377.76 225.25 377.73 225.26 377.71 225.25 377.7 225.22 377.71 225.16 377.71 225.12 377.71 225.08 377.69 225.05 377.64 225.04 377.47 225.08 377.41 225.07 377.3 225.03 377.24 225.02 377.24 225 377.3 225 377.35 224.98 377.39 224.94 377.41 224.87 377.43 224.89 377.45 224.9 377.47 224.89 377.49 224.87 377.54 224.93 377.59 224.91 377.65 224.87 377.69 224.84 377.89 224.85 377.93 224.87 Z M 381.19 221.22 381.1 221.25 381.05 221.24 381.01 221.22 381.01 221.19 381.02 221.18 381.02 221.18 381.02 221.17 381.01 221.14 381.05 221.12 381.06 221.11 381.05 221.1 381.05 221.09 381.04 221.09 381.06 221.06 381.08 221.06 381.09 221.07 381.1 221.09 381.14 221.1 381.17 221.12 381.18 221.15 381.19 221.22 Z M 383.94 220.86 383.89 220.87 383.87 220.9 383.86 220.92 383.84 220.94 383.7 220.97 383.67 220.99 383.65 221.01 383.59 221.11 383.59 221.14 383.59 221.15 383.58 221.15 383.57 221.18 383.58 221.28 383.58 221.31 383.56 221.34 383.56 221.34 383.51 221.36 383.5 221.38 383.49 221.43 383.5 221.53 383.5 221.57 383.47 221.65 383.44 221.72 383.28 221.92 383.26 221.97 383.26 222.07 383.27 222.09 383.28 222.11 383.28 222.12 383.25 222.13 383.23 222.13 383.19 222.1 383.12 222.12 383.04 222.1 383 222.13 382.93 222.2 382.85 222.25 382.78 222.25 382.7 222.21 382.64 222.16 382.61 222.16 382.53 222.23 382.42 222.29 382.46 222.32 382.47 222.33 382.46 222.38 382.47 222.42 382.51 222.45 382.55 222.46 382.57 222.47 382.59 222.52 382.61 222.54 382.63 222.54 382.66 222.51 382.68 222.51 382.71 222.52 382.78 222.59 382.81 222.6 382.85 222.58 382.88 222.56 382.91 222.56 382.91 222.64 382.91 222.64 382.91 222.64 382.82 222.67 382.6 222.88 382.52 222.92 382.43 222.91 382.26 222.87 382.22 222.93 382.17 222.99 382.14 223.05 382.13 223.06 382.11 223.09 382.05 223.12 381.93 223.15 381.89 223.18 381.88 223.18 381.91 223.21 381.92 223.24 381.92 223.27 381.94 223.3 382 223.36 382.09 223.49 382.14 223.55 382.2 223.58 382.26 223.58 382.31 223.7 382.34 223.75 382.38 223.79 382.4 223.8 382.41 223.81 382.5 223.82 382.53 223.85 382.55 223.91 382.56 224.07 382.58 224.13 382.63 224.16 382.75 224.18 382.88 224.17 382.92 224.17 383.08 224.29 383.1 224.32 383.1 224.35 383.11 224.38 383.13 224.4 383.37 224.46 383.42 224.45 383.51 224.38 383.56 224.38 383.54 224.41 383.55 224.42 383.57 224.42 383.59 224.42 383.6 224.45 383.61 224.47 383.62 224.47 383.65 224.47 383.76 224.5 383.78 224.5 383.8 224.5 383.74 224.39 383.74 224.37 383.76 224.35 383.83 224.31 383.84 224.32 383.83 224.34 383.83 224.38 383.83 224.42 383.82 224.46 383.83 224.47 383.86 224.45 383.88 224.43 383.9 224.4 383.91 224.36 383.9 224.32 383.94 224.3 383.94 224.28 383.92 224.26 383.9 224.25 383.92 224.21 383.93 224.19 383.95 224.17 383.97 224.15 384.1 224.12 384.14 224.08 384.13 224.02 384.16 223.98 384.08 223.91 384.09 223.86 384.02 223.82 384.01 223.78 384.03 223.78 384.04 223.78 384.05 223.77 384.06 223.77 384.07 223.73 384.07 223.73 384.07 223.73 384.06 223.71 384.05 223.68 384.06 223.67 384.06 223.66 384.07 223.66 384.11 223.66 384.13 223.66 384.2 223.61 384.31 223.44 384.37 223.37 384.44 223.37 384.52 223.41 384.66 223.52 384.67 223.55 384.69 223.61 384.71 223.62 384.74 223.62 384.75 223.64 384.77 223.7 384.8 223.77 384.8 223.82 384.78 223.86 384.74 223.88 384.82 223.92 384.84 223.95 384.85 223.98 384.86 224.02 384.87 224.05 384.91 224.11 384.95 224.16 385 224.2 385.05 224.24 385.08 224.24 385.09 224.22 385.11 224.19 385.13 224.18 385.16 224.18 385.18 224.2 385.23 224.24 385.26 224.28 385.28 224.3 385.29 224.36 385.27 224.43 385.22 224.5 385.25 224.54 385.24 224.58 385.21 224.67 385.24 224.7 385.3 224.77 385.33 224.79 385.35 224.78 385.36 224.76 385.37 224.75 385.38 224.73 385.4 224.73 385.43 224.74 385.45 224.75 385.64 224.68 385.7 224.67 385.7 224.68 385.71 224.69 385.72 224.71 385.74 224.72 385.75 224.72 385.81 224.7 385.86 224.69 385.88 224.68 385.89 224.65 385.89 224.62 385.88 224.59 385.88 224.56 385.91 224.51 385.93 224.52 385.95 224.54 385.97 224.56 386 224.55 386.04 224.54 386.07 224.53 386.1 224.56 386.1 224.56 386.24 224.7 386.28 224.72 386.29 224.73 386.32 224.78 386.34 224.79 386.38 224.8 386.4 224.8 386.42 224.82 386.46 224.88 386.45 224.93 386.38 225.01 386.34 225.03 386.29 225.01 386.24 224.97 386.21 224.95 386.17 224.95 386.02 224.89 385.9 224.87 385.9 224.9 385.93 224.92 385.92 224.95 385.89 225 385.87 225.06 385.86 225.17 385.86 225.24 385.87 225.31 385.92 225.38 386 225.41 386.16 225.44 386.16 225.46 386.14 225.53 386.13 225.6 386.16 225.65 386.21 225.69 386.16 225.75 386.15 225.85 386.16 225.94 386.17 226.11 386.18 226.16 386.19 226.22 386.21 226.26 386.23 226.28 386.26 226.3 386.29 226.31 386.32 226.41 386.38 226.45 386.45 226.48 386.5 226.51 386.51 226.55 386.53 226.6 386.53 226.65 386.52 226.7 386.48 226.76 386.47 226.79 386.47 226.82 386.45 226.85 386.42 226.92 386.4 226.94 386.39 226.91 386.35 226.9 386.3 226.92 386.27 226.94 386.41 227.01 386.42 227.05 386.43 227.1 386.45 227.12 386.44 227.14 386.43 227.16 386.42 227.17 386.46 227.19 386.55 227.2 386.59 227.22 386.56 227.29 386.53 227.29 386.5 227.27 386.47 227.25 386.46 227.24 386.44 227.21 386.43 227.2 386.41 227.2 386.37 227.22 386.35 227.22 386.22 227.33 386.22 227.37 386.23 227.4 386.28 227.45 386.33 227.52 386.36 227.54 386.42 227.56 386.44 227.58 386.46 227.58 386.49 227.59 386.49 227.62 386.47 227.65 386.47 227.67 386.46 227.75 386.47 227.8 386.48 227.86 386.5 227.89 386.5 227.9 386.53 227.93 386.54 227.97 386.53 228.03 386.56 228.08 386.63 228.24 386.63 228.25 386.63 228.25 386.63 228.25 386.62 228.26 386.63 228.32 386.63 228.41 386.61 228.5 386.59 228.55 386.59 228.61 386.61 228.67 386.71 228.78 386.71 228.8 386.69 228.82 386.67 228.83 386.65 228.9 386.64 228.92 386.62 228.94 386.54 229.12 386.56 229.14 386.46 229.23 386.44 229.27 386.41 229.32 386.36 229.49 386.37 229.58 386.37 229.59 386.33 229.68 386.22 229.87 386.21 229.94 386.21 229.99 386.24 230.09 386.24 230.15 386.24 230.31 386.21 230.37 386.07 230.59 386.03 230.64 386 230.66 385.96 230.71 385.91 230.8 385.89 230.86 385.89 230.92 385.89 230.99 385.89 231.04 385.87 231.01 385.86 230.99 385.84 230.98 385.71 230.99 385.66 230.98 385.67 230.91 385.65 230.92 385.63 230.93 385.62 230.95 385.6 230.96 385.6 230.99 385.63 231 385.66 231.03 385.69 231.07 385.71 231.11 385.69 231.15 385.76 231.17 385.78 231.2 385.79 231.24 385.82 231.2 385.87 231.11 385.87 231.14 385.84 231.21 385.88 231.3 385.99 231.41 385.93 231.57 385.9 231.61 385.88 231.63 385.86 231.64 385.84 231.63 385.81 231.61 385.82 231.59 385.84 231.57 385.86 231.53 385.85 231.51 385.83 231.51 385.81 231.52 385.79 231.55 385.77 231.57 385.76 231.58 385.76 231.58 385.66 231.58 385.66 231.56 385.71 231.56 385.68 231.53 385.65 231.53 385.61 231.56 385.51 231.58 385.41 231.64 385.38 231.63 385.32 231.57 385.28 231.55 385.11 231.5 384.96 231.52 384.91 231.51 384.91 231.48 384.95 231.47 384.98 231.44 385 231.39 385.01 231.34 384.98 231.37 384.94 231.41 384.9 231.43 384.86 231.41 384.84 231.43 384.84 231.46 384.85 231.47 384.85 231.48 384.84 231.51 384.86 231.49 384.87 231.48 384.89 231.48 384.88 231.54 384.87 231.56 384.86 231.58 384.87 231.58 384.89 231.58 384.89 231.61 384.88 231.61 384.86 231.61 384.86 231.61 384.87 231.63 384.71 231.73 384.69 231.75 384.66 231.8 384.63 231.83 384.6 231.81 384.62 231.76 384.64 231.74 384.67 231.72 384.7 231.69 384.7 231.66 384.66 231.51 384.65 231.49 384.62 231.45 384.6 231.42 384.57 231.41 384.55 231.39 384.52 231.27 384.49 231.24 384.5 231.28 384.5 231.32 384.5 231.33 384.51 231.37 384.51 231.39 384.54 231.45 384.55 231.48 384.52 231.57 384.53 231.61 384.58 231.61 384.58 231.63 384.55 231.66 384.48 231.75 384.45 231.78 384.4 231.79 384.3 231.79 384.25 231.81 384.26 231.77 384.32 231.68 384.28 231.66 384.25 231.65 384.22 231.66 384.22 231.68 384.23 231.69 384.24 231.7 384.24 231.71 384.25 231.73 384.23 231.73 384.2 231.71 384.18 231.71 384.15 231.71 384.14 231.74 384.13 231.76 384.11 231.78 384.07 231.8 384.03 231.8 383.94 231.78 383.52 231.83 383.37 231.91 383.28 231.93 383.27 231.94 383.26 231.95 383.25 231.97 383.23 231.98 383.21 231.96 383.21 231.94 383.2 231.91 383.19 231.9 383.15 231.91 383.11 231.95 383.08 231.99 383.09 232.05 383.11 232.02 383.15 232.02 383.19 232.03 383.26 232.06 383.27 232.06 383.27 232.08 383.26 232.12 383.19 232.17 383.18 232.28 383.18 232.31 383.16 232.32 383.14 232.32 383.12 232.33 383.07 232.36 382.96 232.35 382.91 232.37 382.89 232.42 382.89 232.46 382.88 232.48 382.65 232.44 382.64 232.43 382.63 232.4 382.62 232.36 382.6 232.35 382.6 232.36 382.59 232.37 382.59 232.45 382.58 232.48 382.56 232.53 382.52 232.57 382.49 232.59 382.44 232.59 382.5 232.65 382.53 232.66 382.51 232.7 382.46 232.72 382.36 232.74 382.25 232.79 382.22 232.84 382.26 232.89 382.22 232.91 382.05 232.94 381.97 232.98 381.83 232.99 381.77 232.98 381.74 232.99 381.72 232.98 381.71 232.97 381.72 232.95 381.73 232.93 381.75 232.91 381.77 232.91 381.77 232.9 381.76 232.86 381.79 232.86 381.82 232.84 381.85 232.82 381.88 232.79 381.86 232.78 381.85 232.77 381.84 232.77 381.82 232.76 381.83 232.72 381.84 232.7 381.86 232.69 381.85 232.66 381.84 232.65 381.82 232.66 381.8 232.69 381.77 232.67 381.73 232.66 381.64 232.66 381.64 232.64 381.62 232.62 381.58 232.63 381.54 232.65 381.5 232.66 381.41 232.66 381.36 232.66 381.31 232.69 381.39 232.72 381.48 232.73 381.54 232.77 381.5 232.89 381.58 232.88 381.61 232.89 381.61 232.91 381.59 232.91 381.59 232.94 381.61 232.95 381.62 232.96 381.59 232.97 381.57 232.97 381.56 232.98 381.64 232.98 381.6 233.04 381.59 233.06 381.59 233.08 381.6 233.09 381.61 233.11 381.6 233.14 381.52 233.22 381.5 233.26 381.44 233.29 381.36 233.32 381.33 233.34 381.3 233.38 381.29 233.34 381.26 233.31 381.22 233.29 381.19 233.3 381.23 233.33 381.24 233.37 381.23 233.41 381.19 233.43 381.18 233.35 381.13 233.33 381.03 233.33 381.03 233.35 381.05 233.36 381.1 233.37 381.12 233.38 381.14 233.35 381.15 233.35 381.16 233.38 381.16 233.4 381.14 233.41 381.13 233.42 381.11 233.43 381.08 233.51 381.07 233.53 381.07 233.57 381.08 233.63 381.09 233.67 381.06 233.64 381.03 233.57 381 233.55 380.96 233.54 380.85 233.57 380.59 233.55 380.62 233.58 380.66 233.59 380.74 233.6 380.74 233.62 380.72 233.63 380.71 233.65 380.75 233.67 380.73 233.69 380.72 233.72 380.71 233.75 380.72 233.79 380.64 233.78 380.62 233.79 380.6 233.78 380.59 233.76 380.57 233.74 380.49 233.74 380.47 233.74 380.45 233.73 380.43 233.72 380.42 233.74 380.37 233.72 380.34 233.76 380.32 233.82 380.3 233.86 380.22 233.89 380.21 233.9 380.2 233.94 380.18 233.93 380.16 233.9 380.15 233.89 380.14 233.88 380.09 233.85 380.07 233.84 380.04 233.84 380.01 233.86 379.89 233.89 379.86 233.88 379.81 233.85 379.78 233.84 379.78 233.86 379.79 233.87 379.81 233.89 379.79 233.93 379.77 233.96 379.73 233.98 379.7 233.98 379.64 233.97 379.62 233.97 379.63 234.01 379.63 234.03 379.6 234.03 379.58 234.06 379.57 234.08 379.55 234.11 379.53 234.11 379.51 234.1 379.49 234.09 379.46 234.11 379.46 234.08 379.46 234.07 379.45 234.05 379.45 234.03 379.39 234.07 379.38 234.1 379.37 234.11 379.35 234.11 379.33 234.12 379.31 234.14 379.28 234.15 379.2 234.16 379.23 234.14 379.25 234.12 379.27 234.09 379.28 234.06 379.25 234.08 379.22 234.09 379.21 234.08 379.23 234.03 379.26 234 379.31 233.96 379.34 233.94 379.33 233.93 379.33 233.93 379.33 233.92 379.32 233.91 379.31 233.93 379.23 233.97 379.23 233.99 379.21 234.02 379.16 234.06 379.13 234.02 379.14 233.99 379.15 233.95 379.16 233.9 379.14 233.88 379.11 233.86 379.07 233.85 379.04 233.86 379.06 233.91 378.99 233.94 378.84 233.97 378.83 233.99 378.82 234.02 378.82 234.03 378.78 234.03 378.76 234.03 378.72 234.07 378.69 234.08 378.66 234.08 378.65 234.05 378.63 234.01 378.6 233.99 378.58 234.02 378.46 234.13 378.47 234.15 378.48 234.15 378.49 234.16 378.34 234.23 378.35 234.19 378.33 234.2 378.26 234.25 378.25 234.23 378.23 234.25 378.23 234.21 378.24 234.19 378.25 234.18 378.25 234.16 378.23 234.15 378.22 234.14 378.2 234.11 378.25 234.09 378.29 234.06 378.37 233.98 378.41 233.96 378.49 233.93 378.54 233.91 378.58 233.88 378.67 233.77 378.71 233.73 378.79 233.7 378.84 233.67 378.74 233.66 378.31 233.88 378.17 233.89 378.26 233.82 378.29 233.82 378.31 233.8 378.32 233.77 378.34 233.73 378.43 233.7 378.7 233.56 378.73 233.51 378.8 233.5 378.89 233.46 378.97 233.44 379.03 233.41 379.04 233.35 379.05 233.33 379.06 233.31 379.07 233.3 379.07 233.28 379.04 233.26 379 233.28 378.96 233.3 378.91 233.26 378.89 233.26 378.89 233.25 378.88 233.24 378.89 233.2 378.89 233.18 378.87 233.17 378.85 233.15 378.83 233.14 378.81 233.13 378.82 233.18 378.81 233.21 378.82 233.24 378.84 233.28 378.8 233.29 378.77 233.31 378.7 233.38 378.66 233.4 378.61 233.42 378.47 233.43 378.39 233.47 378.11 233.51 378.02 233.55 377.99 233.57 377.98 233.58 377.98 233.6 377.98 233.61 377.97 233.62 377.96 233.63 377.82 233.68 377.77 233.72 377.74 233.71 377.7 233.7 377.68 233.69 377.58 233.71 377.53 233.73 377.49 233.77 377.47 233.74 377.49 233.73 377.49 233.71 377.49 233.69 377.5 233.67 377.52 233.66 377.67 233.62 377.7 233.6 377.7 233.58 377.7 233.58 377.69 233.58 377.69 233.57 377.69 233.53 377.68 233.5 377.64 233.49 377.61 233.5 377.64 233.45 377.69 233.44 377.78 233.45 377.83 233.43 377.93 233.33 377.93 233.3 377.84 233.3 377.88 233.24 377.95 233.18 378.02 233.14 378.08 233.13 378.07 233.15 378.06 233.18 378.05 233.2 378.09 233.2 378.13 233.18 378.15 233.14 378.16 233.08 378.19 233.1 378.22 233.11 378.31 233.11 378.31 233.08 378.29 233.08 378.25 233.06 378.25 233.04 378.28 233.02 378.33 232.95 378.38 232.93 378.4 232.88 378.41 232.86 378.43 232.86 378.49 232.86 378.56 232.84 378.69 232.77 378.76 232.74 378.76 232.72 378.6 232.74 378.37 232.83 378.33 232.85 378.31 232.87 378.3 232.9 378.22 232.9 378.19 232.91 378.2 232.94 378.14 232.98 378.11 232.98 378.12 232.97 378.12 232.93 378.13 232.91 378.09 232.91 378.08 232.92 378.06 232.94 378.05 232.96 378.02 232.97 377.97 232.98 377.94 232.98 377.85 233.06 377.8 233.08 377.75 233.06 377.7 233.11 377.65 233.15 377.59 233.19 377.53 233.2 377.55 233.16 377.34 233.06 377.42 233.03 377.44 232.94 377.4 232.85 377.31 232.81 377.29 232.83 377.23 232.92 377.21 232.94 377.18 232.95 377.11 233.01 377.08 233.04 377.07 232.99 377.09 232.89 377.08 232.84 377.04 232.83 377 232.83 376.97 232.83 376.99 232.79 376.99 232.77 376.98 232.77 376.97 232.77 376.97 232.76 376.98 232.75 376.98 232.74 376.98 232.73 376.99 232.72 376.98 232.71 376.96 232.72 376.96 232.72 376.96 232.69 377.03 232.68 377.21 232.62 377.25 232.62 377.27 232.6 377.28 232.58 377.28 232.56 377.27 232.54 377.24 232.53 377.22 232.49 377.19 232.45 377.15 232.44 377.15 232.42 377.18 232.41 377.23 232.39 377.26 232.37 377.24 232.32 377.29 232.29 377.35 232.28 377.41 232.24 377.55 232.17 377.76 232.13 377.85 232.08 377.9 231.95 377.91 231.95 377.91 232.02 377.93 232.05 377.97 232.05 378 232.05 377.99 232.02 378.04 231.81 378.1 231.85 378.17 231.85 378.34 231.83 378.32 231.81 378.3 231.79 378.29 231.78 378.37 231.73 377.93 231.75 377.96 231.83 377.94 231.87 377.93 231.89 377.92 231.83 377.9 231.8 377.87 231.79 377.84 231.78 377.77 231.77 377.47 231.85 377.42 231.88 377.4 231.86 377.37 231.83 377.35 231.81 377.33 231.82 377.31 231.84 377.3 231.85 377.24 231.79 377.22 231.79 377.15 231.81 377.15 231.83 377.18 231.83 377.19 231.83 377.23 231.85 377.23 231.88 377.17 231.87 377.07 231.83 377.02 231.83 377.02 231.85 377.03 231.86 377.05 231.88 377 231.88 376.91 231.92 376.87 231.93 376.81 231.91 376.8 231.86 376.79 231.8 376.77 231.73 376.79 231.72 376.83 231.68 376.83 231.66 376.81 231.63 376.84 231.6 376.88 231.57 376.93 231.56 376.91 231.61 376.96 231.65 376.99 231.66 377.01 231.65 377.01 231.62 377.01 231.59 377.01 231.57 377.03 231.53 377.01 231.52 377 231.51 377.02 231.46 377.05 231.44 377.08 231.44 377.12 231.43 377.15 231.41 377.2 231.33 377.22 231.31 377.45 231.24 377.49 231.27 377.46 231.41 377.46 231.43 377.61 231.41 377.68 231.37 377.73 231.31 377.75 231.23 377.7 231.16 377.78 231.16 377.8 231.17 377.79 231.21 377.8 231.26 377.8 231.32 377.81 231.36 377.85 231.38 377.88 231.39 377.95 231.42 378.02 231.44 378.12 231.44 378.15 231.42 378.19 231.36 378.22 231.35 378.25 231.36 378.23 231.37 378.22 231.38 378.25 231.41 378.41 231.38 378.38 231.35 378.35 231.34 378.28 231.34 378.21 231.3 378.17 231.29 378.14 231.31 378.12 231.29 378.11 231.27 378.1 231.24 378.1 231.21 378.12 231.24 378.14 231.25 378.17 231.25 378.2 231.24 378.17 231.22 378.16 231.21 378.14 231.21 378.14 231.18 378.16 231.18 378.22 231.16 378.19 231.1 378.2 230.92 378.16 230.89 378.05 230.87 377.98 230.84 377.94 230.79 377.98 230.76 378.02 230.74 378.17 230.73 378.39 230.63 378.42 230.6 378.45 230.55 378.49 230.53 378.55 230.53 378.61 230.55 378.64 230.57 378.63 230.52 378.61 230.49 378.57 230.49 378.54 230.49 378.55 230.47 378.55 230.45 378.55 230.44 378.54 230.42 378.54 230.39 378.55 230.37 378.56 230.35 378.55 230.31 378.56 230.28 378.61 230.22 378.63 230.23 378.64 230.22 378.66 230.2 378.68 230.19 378.77 230.22 378.95 230.22 378.96 230.22 378.99 230.24 379.01 230.25 379.03 230.23 379.05 230.21 379.06 230.19 379.08 230.19 379.25 230.2 379.25 230.2 379.27 230.2 379.31 230.19 379.45 230.19 379.53 230.18 379.56 230.16 379.59 230.13 379.62 230.11 379.89 230.02 379.93 229.99 379.95 230.03 379.99 230.04 380.04 230.03 380.07 230.02 380.08 230 380.1 229.96 380.11 229.93 380.14 229.92 380.53 229.87 380.6 229.84 380.56 229.84 380.42 229.78 380.34 229.77 380.2 229.79 380.16 229.78 380.14 229.77 380.13 229.74 380.16 229.72 380.16 229.69 380.15 229.66 380.16 229.62 380.15 229.58 380.12 229.57 380.14 229.54 380.16 229.49 380.18 229.47 380.12 229.49 380.05 229.52 380 229.57 379.99 229.62 379.92 229.76 379.72 230.02 379.68 230.04 379.49 230.07 379.47 230.08 379.44 230.13 379.42 230.14 379.39 230.15 379.36 230.14 379.33 230.13 379.31 230.12 379.35 230.09 379.4 230.05 379.43 230.01 379.43 229.97 379.36 230.01 379.2 230.06 379.09 230.06 379.04 230.06 379 230.04 378.98 230.01 378.96 229.98 378.89 229.97 378.86 229.94 378.87 229.89 378.84 229.87 378.76 229.87 378.76 229.89 378.78 229.9 378.8 229.92 378.82 229.94 378.82 229.97 378.66 230.04 378.56 230.07 378.51 230.09 378.49 230.13 378.48 230.18 378.47 230.19 378.45 230.17 378.43 230.17 378.37 230.21 377.97 230.27 377.97 230.24 378.01 230.22 378.11 230.16 378.22 230.13 378.67 229.69 378.67 229.68 378.66 229.64 378.68 229.63 378.71 229.61 378.73 229.59 378.76 229.59 378.83 229.59 378.86 229.59 378.9 229.57 378.92 229.57 378.94 229.55 378.95 229.52 378.96 229.48 378.98 229.44 378.97 229.43 378.97 229.43 378.97 229.42 378.98 229.39 378.96 229.37 378.98 229.35 379.01 229.33 379.03 229.3 379.05 229.27 379.06 229.24 379.07 229.21 379.08 229.18 379.1 229.17 379.1 229.14 379.1 229.09 379.24 228.96 379.27 228.89 379.22 228.88 379.05 228.89 378.99 228.87 379.05 228.8 379.08 228.77 379.15 228.66 379.17 228.63 379.19 228.61 379.17 228.59 379.29 228.36 379.34 228.31 379.38 228.25 379.41 228.17 379.45 228.11 379.49 228.09 379.55 228.12 379.65 228.22 379.7 228.24 379.74 228.22 379.79 228.19 379.84 228.18 379.89 228.21 379.89 228.15 379.86 228.12 379.77 228.09 379.77 228.06 379.9 228.03 379.93 228.05 380 228.1 380.04 228.11 380.04 228.09 379.95 228.03 379.95 228.01 380 228.03 380.03 228.04 380.05 228.01 380.08 227.99 380.1 228 380.09 228.03 380.11 228.07 380.13 228.09 380.16 228.1 380.19 228.11 380.17 228.03 380.16 228.01 380.15 227.98 380.17 227.93 380.21 227.89 380.28 227.83 380.26 227.83 380.22 227.85 380.2 227.86 379.98 227.85 379.95 227.83 379.99 227.81 380.09 227.78 380.13 227.78 380.13 227.76 380.07 227.76 380.07 227.73 380.09 227.71 380.15 227.7 380.18 227.68 380.18 227.66 380 227.63 379.96 227.64 379.88 227.67 379.16 227.73 379.09 227.77 379.06 227.79 379.01 227.81 378.92 227.81 378.87 227.78 378.84 227.75 378.82 227.71 378.79 227.68 378.84 227.62 378.82 227.57 378.78 227.58 378.76 227.64 378.75 227.72 378.73 227.77 378.69 227.78 378.66 227.73 378.66 227.7 378.7 227.63 378.68 227.46 378.73 227.43 378.73 227.43 378.76 227.45 378.77 227.45 378.78 227.44 378.79 227.41 378.8 227.4 378.81 227.39 378.72 227.3 378.74 227.27 378.82 227.22 378.74 227.22 378.71 227.23 378.67 227.25 378.7 227.29 378.71 227.36 378.69 227.41 378.64 227.43 378.6 227.39 378.61 227.32 378.64 227.25 378.63 227.22 378.62 227.22 378.61 227.2 378.6 227.2 378.59 227.21 378.56 227.25 378.53 227.26 378.51 227.29 378.49 227.35 378.44 227.44 378.4 227.49 378.3 227.53 378.26 227.53 378.22 227.49 378.18 227.45 378.08 227.48 378.05 227.45 378.06 227.44 378.07 227.39 378.08 227.35 378.08 227.32 378.1 227.31 378.12 227.3 378.15 227.3 378.19 227.29 378.28 227.23 378.31 227.2 378.31 227.17 378.23 227.17 378.23 227.15 378.28 227.12 378.28 227.1 378.25 227.1 378.22 227.11 378.17 227.15 378.17 227.17 378.14 227.19 378.11 227.19 378.1 227.15 378.11 227.11 378.15 227.08 378.17 227.05 378.14 227.05 378.13 227.07 378.11 227.09 378.09 227.1 378.07 227.09 378.05 227.08 378.03 227.07 378 227.1 378 227.13 378 227.18 378.01 227.21 377.98 227.22 377.96 227.23 377.92 227.25 377.83 227.25 377.8 227.24 377.78 227.22 377.75 227.19 377.74 227.16 377.72 227.13 377.69 227.12 377.6 227.14 377.55 227.13 377.52 227.1 377.5 227.11 377.48 227.12 377.44 227.12 377.46 227.06 377.49 227.02 377.52 227 377.56 226.99 377.65 227.01 377.68 227.01 377.72 226.97 377.72 226.94 377.69 226.94 377.67 226.93 377.65 226.9 377.64 226.87 377.69 226.88 377.74 226.9 377.79 226.91 377.81 226.87 377.76 226.87 377.68 226.86 377.6 226.82 377.55 226.77 377.55 226.74 377.53 226.7 377.52 226.66 377.49 226.64 377.43 226.66 377.4 226.66 377.38 226.64 377.43 226.59 377.49 226.59 377.54 226.61 377.59 226.61 377.59 226.6 377.58 226.55 377.58 226.54 377.68 226.54 377.78 226.57 377.79 226.58 377.82 226.64 377.84 226.63 377.87 226.58 377.9 226.57 377.76 226.47 377.73 226.43 377.81 226.41 377.99 226.43 378.05 226.41 378.13 226.36 378.16 226.36 378.18 226.37 378.23 226.4 378.33 226.42 378.51 226.43 378.51 226.41 378.47 226.39 378.31 226.4 378.22 226.37 378.04 226.26 378 226.09 378.02 226.01 378.04 225.95 378.06 225.89 378.04 225.82 378.06 225.81 378.14 225.79 378.2 225.77 378.25 225.76 378.28 225.75 378.3 225.73 378.31 225.73 378.36 225.76 378.38 225.77 378.79 225.69 378.79 225.67 378.76 225.66 378.67 225.62 378.68 225.61 378.69 225.6 378.7 225.59 378.72 225.59 378.72 225.56 378.71 225.53 378.73 225.5 378.81 225.44 378.79 225.43 378.75 225.41 378.77 225.4 378.78 225.37 378.79 225.34 378.79 225.31 378.78 225.31 378.77 225.31 378.76 225.32 378.75 225.33 378.69 225.31 378.37 225.31 378.15 225.43 378.03 225.46 377.96 225.38 377.99 225.36 378 225.26 378.04 225.23 378.03 225.19 378.03 225.18 378.04 225.15 378.04 225.13 378.02 225.13 378.02 225.1 378.13 225.08 378.15 225.09 378.19 225.12 378.22 225.13 378.25 225.15 378.26 225.24 378.29 225.26 378.3 225.25 378.3 225.21 378.3 225.17 378.31 225.13 378.29 225.11 378.27 225.08 378.25 225.06 378.22 225.05 378.22 225.08 378.23 225.1 378.21 225.09 378.19 225.07 378.17 224.97 378.17 224.96 378.17 224.94 378.16 224.92 378.14 224.92 378.1 224.92 378.1 224.91 378.09 224.89 378.07 224.87 378.06 224.83 378.05 224.78 378.06 224.72 378.08 224.71 378.11 224.7 378.14 224.66 378.11 224.65 378.11 224.63 378.13 224.6 378.16 224.59 378.14 224.56 378.2 224.51 378.18 224.49 378.15 224.49 378.1 224.51 378.1 224.54 378.1 224.55 378.09 224.56 378.07 224.56 378.07 224.59 378.08 224.59 378.02 224.67 377.95 224.68 377.9 224.63 377.85 224.54 377.9 224.54 378 224.51 378.04 224.48 377.97 224.43 377.94 224.4 377.93 224.35 377.94 224.36 377.97 224.37 377.99 224.38 377.96 224.34 377.88 224.25 377.91 224.27 377.94 224.27 377.96 224.26 377.97 224.22 377.86 224.13 377.81 224.11 377.78 224.15 377.81 224.19 377.8 224.22 377.76 224.23 377.72 224.22 377.74 224.26 377.75 224.28 377.75 224.3 377.71 224.3 377.69 224.3 377.64 224.33 377.64 224.35 377.67 224.36 377.68 224.39 377.69 224.46 377.67 224.46 377.62 224.48 377.65 224.5 377.68 224.54 377.69 224.57 377.65 224.59 377.61 224.58 377.57 224.57 377.55 224.53 377.55 224.46 377.56 224.41 377.61 224.31 377.62 224.26 377.63 224.19 377.65 224.16 377.68 224.14 377.7 224.09 377.63 224.09 377.6 224.08 377.58 224.04 377.62 224.04 377.64 224.01 377.65 223.96 377.67 223.91 377.69 223.89 377.79 223.83 377.8 223.82 377.81 223.8 377.82 223.78 377.84 223.78 377.85 223.8 377.86 223.82 377.86 223.84 377.87 223.86 377.9 223.88 377.93 223.9 377.97 223.91 378 223.89 378.02 223.92 378.04 223.93 378.06 223.93 378.08 223.91 378.08 223.93 378.08 223.93 378.09 223.93 378.1 223.94 378.05 224.03 377.99 224.07 377.94 224.07 377.88 224.02 377.87 224.09 377.9 224.11 377.96 224.12 378 224.13 378.03 224.16 378.06 224.13 378.09 224.09 378.13 224.07 378.1 224.02 378.11 223.96 378.15 223.91 378.18 223.89 378.23 223.9 378.31 223.96 378.35 223.97 378.34 223.93 378.32 223.91 378.28 223.89 378.28 223.86 378.3 223.85 378.32 223.85 378.37 223.86 378.33 223.84 378.21 223.81 378.19 223.77 378.17 223.72 378.18 223.69 378.31 223.65 378.36 223.67 378.44 223.72 378.48 223.73 378.86 223.76 378.89 223.75 378.93 223.74 378.95 223.73 378.97 223.74 379 223.77 379.02 223.78 379.2 223.81 379.22 223.8 379.25 223.79 379.27 223.77 379.29 223.74 379.31 223.73 379.34 223.73 379.44 223.78 379.46 223.78 379.47 223.8 379.49 223.87 379.5 223.89 379.54 223.88 379.56 223.87 379.57 223.86 379.58 223.89 379.59 223.92 379.58 223.95 379.57 223.97 379.57 223.99 379.62 224.02 379.62 224.04 379.57 224.07 379.58 224.11 379.69 224.21 379.72 224.25 379.74 224.31 379.74 224.38 379.75 224.38 379.75 224.31 379.76 224.25 379.76 224.2 379.75 224.15 379.8 224.13 379.85 224.08 379.89 224 379.9 223.9 379.94 223.84 380.01 223.83 380.15 223.86 380.16 223.85 380.17 223.84 380.19 223.84 380.21 223.86 380.25 223.88 380.28 223.89 380.33 223.93 380.37 223.94 380.48 223.94 380.53 223.92 380.57 223.89 380.63 223.93 380.77 223.91 380.83 223.94 380.84 223.97 380.85 224.02 380.86 224.05 380.93 224.08 380.95 224.1 381 224.17 381.03 224.15 381.06 224.14 381.13 224.15 381.13 224.12 381.1 224.1 381.06 224.09 381.03 224.07 381.01 224.03 381 224 380.96 223.98 380.92 223.97 380.89 223.97 380.89 223.94 380.91 223.92 380.93 223.87 380.95 223.86 381 223.88 381.03 223.89 381.04 223.87 381.07 223.86 381.22 223.89 381.19 223.84 381.15 223.81 381.11 223.79 381.06 223.78 381.02 223.79 381 223.78 381 223.74 381.01 223.71 381.04 223.72 381.09 223.76 381.13 223.73 381.12 223.7 381.07 223.67 381.02 223.65 380.8 223.65 380.79 223.64 380.79 223.6 380.8 223.57 380.82 223.55 380.84 223.53 380.91 223.51 381.17 223.33 381.2 223.32 381.22 223.3 381.22 223.27 381.22 223.2 381.23 223.13 381.25 223.15 381.27 223.19 381.27 223.21 381.28 223.21 381.28 223.22 381.28 223.24 381.35 223.19 381.42 223.16 381.42 223.16 381.6 223.12 381.63 223.12 381.73 223.05 381.8 223.03 381.8 223 381.73 223 381.69 222.98 381.67 222.95 381.79 222.85 381.78 222.77 381.88 222.68 381.88 222.58 381.9 222.6 381.92 222.62 381.93 222.63 381.96 222.64 381.99 222.51 382 222.48 381.99 222.47 381.99 222.47 381.99 222.47 381.98 222.46 381.94 222.5 381.9 222.52 381.75 222.54 381.67 222.61 381.62 222.64 381.62 222.61 381.64 222.58 381.65 222.54 381.63 222.52 381.6 222.51 381.56 222.52 381.51 222.6 381.45 222.62 381.35 222.74 381.32 222.76 381.29 222.78 381.25 222.79 381.25 222.77 381.31 222.7 381.34 222.68 381.38 222.66 381.41 222.64 381.41 222.58 381.38 222.55 381.35 222.58 381.33 222.58 381.34 222.5 381.31 222.5 381.27 222.55 381.25 222.62 381.24 222.65 381.22 222.63 381.2 222.6 381.19 222.57 381.19 222.55 381.19 222.54 381.17 222.53 381.16 222.53 381.13 222.55 381.12 222.56 381.07 222.56 381.04 222.57 381.02 222.62 380.99 222.62 380.94 222.58 380.78 222.58 380.74 222.56 380.76 222.52 380.73 222.5 380.55 222.43 380.51 222.43 380.52 222.41 380.52 222.4 380.53 222.39 380.54 222.37 380.54 222.35 380.51 222.33 380.5 222.31 380.5 222.28 380.53 222.27 380.57 222.27 380.59 222.25 380.61 222.22 380.62 222.18 380.64 222.15 380.8 222.04 380.86 222.01 381.08 222.02 381.19 222.06 381.25 222.06 381.25 222.04 381.1 222 381.06 221.95 381.09 221.94 381.19 221.93 381.22 221.94 381.25 221.99 381.28 222.03 381.32 222.06 381.36 222.04 381.24 221.92 381.16 221.89 381.08 221.83 381.03 221.82 381.04 221.79 381.05 221.78 381.08 221.78 381.1 221.77 381.12 221.75 381.15 221.71 381.18 221.69 381.22 221.74 381.27 221.74 381.38 221.72 381.5 221.77 381.54 221.77 381.54 221.74 381.51 221.74 381.46 221.72 381.42 221.68 381.42 221.61 381.45 221.58 381.54 221.6 381.57 221.59 381.54 221.56 381.52 221.49 381.49 221.48 381.45 221.48 381.44 221.48 381.43 221.5 381.42 221.52 381.42 221.55 381.42 221.56 381.36 221.56 381.31 221.5 381.27 221.42 381.24 221.35 381.27 221.33 381.29 221.34 381.31 221.36 381.34 221.37 381.37 221.37 381.4 221.36 381.45 221.32 381.39 221.3 381.34 221.25 381.25 221.14 381.25 221.11 381.27 221.09 381.3 221.09 381.32 221.09 381.35 221.11 381.37 221.07 381.38 221.06 381.36 221.06 381.37 221 381.39 221 381.41 221 381.44 220.98 381.48 220.89 381.5 220.87 381.52 220.9 381.52 220.99 381.54 221.01 381.56 220.99 381.57 220.92 381.59 220.9 381.57 220.79 381.56 220.72 381.57 220.69 381.59 220.66 381.63 220.54 381.65 220.5 381.68 220.5 381.81 220.56 381.85 220.55 381.92 220.51 381.95 220.5 381.94 220.54 381.92 220.56 381.91 220.59 381.91 220.62 381.92 220.64 381.95 220.62 382.01 220.53 382.15 220.44 382.19 220.42 382.22 220.39 382.24 220.33 382.27 220.27 382.32 220.27 382.38 220.31 382.36 220.35 382.26 220.42 382.26 220.45 382.35 220.4 382.36 220.41 382.38 220.43 382.41 220.43 382.45 220.41 382.47 220.39 382.5 220.45 382.5 220.47 382.49 220.52 382.51 220.51 382.54 220.49 382.58 220.47 382.57 220.51 382.55 220.54 382.53 220.55 382.5 220.56 382.5 220.58 382.54 220.58 382.57 220.59 382.58 220.59 382.61 220.56 382.63 220.49 382.63 220.44 382.58 220.37 382.56 220.29 382.6 220.24 382.66 220.2 382.71 220.13 382.72 220.15 382.72 220.15 382.73 220.16 382.68 220.34 382.68 220.37 382.68 220.38 382.69 220.39 382.7 220.41 382.71 220.42 382.73 220.42 382.75 220.4 382.77 220.39 382.8 220.41 382.85 220.44 382.89 220.48 382.91 220.52 382.92 220.53 382.93 220.58 382.94 220.61 382.94 220.64 382.93 220.71 382.93 220.74 382.94 220.71 382.98 220.6 382.99 220.58 383 220.55 382.99 220.49 382.97 220.43 382.96 220.41 382.95 220.37 382.94 220.32 382.92 220.28 382.9 220.27 382.88 220.29 382.88 220.35 382.9 220.41 382.91 220.45 382.88 220.44 382.86 220.42 382.84 220.39 382.82 220.37 382.76 220.35 382.73 220.33 382.74 220.28 382.8 220.15 382.8 220.13 382.88 220.15 382.91 220.13 382.99 220.06 383.02 220.05 383.06 220.07 383.08 220.11 383.1 220.14 383.12 220.16 383.13 220.19 383.12 220.25 383.11 220.31 383.11 220.33 383.12 220.37 383.15 220.39 383.21 220.42 383.21 220.47 383.23 220.52 383.26 220.56 383.28 220.58 383.31 220.61 383.32 220.67 383.3 220.74 383.28 220.77 383.25 220.78 383.22 220.8 383.18 220.85 383.06 220.93 383.06 220.95 383.2 220.93 383.24 220.95 383.21 221.03 383.19 221.06 383.08 221.14 383 221.25 382.97 221.27 382.97 221.3 383.02 221.28 383.06 221.26 383.27 221.05 383.29 221.05 383.31 221 383.35 220.98 383.41 220.97 383.44 220.95 383.47 220.91 383.49 220.84 383.48 220.79 383.44 220.77 383.42 220.75 383.43 220.72 383.46 220.66 383.46 220.57 383.44 220.56 383.35 220.42 383.3 220.38 383.28 220.36 383.27 220.33 383.27 220.29 383.27 220.25 383.32 220.21 383.34 220.14 383.34 220.06 383.32 220 383.36 220 383.39 220.02 383.42 220.02 383.46 220 383.45 219.99 383.45 219.98 383.45 219.97 383.44 219.95 383.49 219.99 383.53 220.01 383.58 220.01 383.67 219.92 383.71 219.91 383.76 219.93 383.79 220 383.74 220 383.73 220 383.77 220.03 383.82 220.05 383.87 220.06 383.91 220.02 383.77 219.91 383.71 219.83 383.7 219.73 383.64 219.7 383.62 219.68 383.6 219.65 383.63 219.63 383.67 219.64 383.75 219.68 383.9 219.73 383.94 219.74 384.02 219.79 384.05 219.81 384.16 219.99 384.2 220.02 384.31 220.07 384.39 220.08 384.49 220.13 384.54 220.16 384.59 220.14 384.62 220.2 384.61 220.28 384.54 220.32 384.48 220.33 384.41 220.36 384.34 220.41 384.26 220.48 384.19 220.52 384.13 220.54 384.1 220.57 384 220.7 383.97 220.77 383.94 220.84 383.94 220.86 Z" fill-rule="evenodd" id="Ireland" transform="translate(-376.7699890136719,-219.6300048828125) "/></svg>