<svg xmlns="http://www.w3.org/2000/svg" viewBox="0 0 798 569"><path d="M 3.69 568.21 4.73 570 1 568.51 1.9 567.61 3.69 568.21 Z M 55.46 533.45 60.39 534.34 63.67 538.07 62.92 544.34 44.72 555.53 42.93 560.9 39.65 555.53 23.98 557.47 18.91 547.62 13.98 544.64 14.88 542.25 27.26 536.73 50.39 531.81 55.46 533.45 Z M 65.01 529.72 66.36 531.21 66.06 533 63.52 532.11 65.01 529.72 Z M 137.53 521.96 136.64 527.63 131.71 529.27 132.46 531.81 130.07 533.9 124.25 535.54 108.43 534.34 106.05 536.73 106.05 541.8 92.77 542.25 89.48 540.46 90.23 537.18 86.05 533.45 78.59 535.09 77.85 532.26 71.13 532.26 69.49 529.72 71.13 522.71 78.59 520.17 77.85 515.7 82.77 512.41 94.41 511.07 97.69 504.95 103.51 501.52 102.62 498.69 115.15 496.6 120.07 498.69 122.61 496.6 123.36 494.06 116.79 491.23 115.9 488.69 94.41 488.69 90.23 485.41 90.23 480.94 97.69 479.59 96.05 475.86 101.87 474.67 104.41 470.04 115.15 462.59 130.07 460.2 134.25 463.93 136.64 452.74 154.09 436.48 154.84 428.72 164.09 419.17 165.73 410.82 159.91 407.54 163.2 393.81 158.27 385.9 148.27 380.53 147.38 370.69 152.45 363.23 166.48 358.15 180.65 344.58 180.65 339.51 183.04 339.21 182.3 331.6 188.12 325.93 188.86 320.86 188.12 317.13 181.4 313.4 181.4 308.47 189.76 305.64 197.22 294.45 207.96 290.27 211.24 284.9 219.6 284.46 219.6 286.1 216.32 285.65 216.32 288.19 226.16 289.38 245.26 278.64 255.26 278.19 267.65 272.82 290.03 255.07 301.67 250.44 318.23 237.61 327.33 233.88 333.15 227.17 343.9 222.24 374.63 189.13 391.94 154.36 409.4 135.27 415.22 133.18 424.32 124.08 434.32 94.99 466.55 68.88 496.39 58.14 532.95 39.94 571 27.56 620.84 20.84 687.98 3.83 715.29 1 718.57 7.56 716.19 44.56 709.47 51.57 706.93 62.32 693.8 80.07 682.91 106.62 682.91 117.81 687.98 139.45 694.55 142.28 697.09 147.2 702.01 150.19 699.47 153.47 703.65 156.01 721.86 160.93 733.49 159.74 741.85 165.11 758.41 165.85 785.72 171.37 796.46 178.68 799 183.75 788.26 185.84 782.44 191.96 771.69 190.02 770.05 193.75 774.98 204.49 746.77 222.24 745.13 231.35 739.31 231.79 740.21 235.07 736.03 235.97 730.21 243.88 716.19 249.99 716.93 253.72 707.08 259.54 706.19 262.82 711.11 264.61 712.01 267.45 706.93 270.28 706.93 277 682.91 288.93 671.42 289.83 663.96 295.64 663.96 298.93 658.89 302.66 655.6 309.22 658.89 314.29 658.89 319.66 669.63 321.31 677.99 327.57 679.63 332.94 672.17 341.59 665.6 342.04 656.5 350.69 657.25 353.23 649.79 357.86 626.66 363.53 627.4 367.7 615.02 373.52 602.48 374.71 593.38 372.63 586.82 377.7 569.36 376.5 559.51 378.44 542.8 392.17 544.59 400.08 560.26 405 561.9 402.91 565.18 403.81 562.79 411.26 552.05 417.53 528.77 424.54 524.59 428.72 516.39 430.66 507.29 436.93 493.11 434.09 476.55 435.73 465.8 440.21 465.8 451.1 448.35 458.11 447.6 465.12 439.24 472.58 400.3 474.22 394.48 472.13 397.02 474.22 382.09 477.5 377.02 482.13 366.28 482.87 367.92 486.31 362.1 487.95 355.53 495.41 343.9 501.97 342.25 505.7 328.23 507.34 328.23 511.97 335.69 517.34 340.61 517.34 351.36 510.77 355.53 511.07 357.18 514.05 353.89 518.08 344.79 521.51 338.08 530.17 337.33 535.54 333.9 535.54 327.33 544.64 310.77 543.44 318.98 540.16 318.98 535.99 325.69 523.16 325.69 520.62 321.51 519.43 322.41 515.7 313.31 511.07 289.13 511.52 286.75 512.71 286.75 516.44 279.29 518.08 270.93 524.35 272.57 526.44 270.93 529.27 264.36 532.7 251.08 531.36 239.45 524.35 234.52 516.44 233.63 510.77 223.78 506.6 225.42 504.06 223.78 500.78 212.88 496.6 204.68 498.24 206.32 495.7 203.78 496.15 203.78 498.69 193.93 499.43 173.19 498.24 167.37 500.78 166.48 504.51 163.2 504.51 168.12 508.24 162.3 508.98 159.02 506.89 155.74 508.68 155.74 514.8 162.3 518.98 158.27 522.71 149.92 523.9 143.35 519.87 137.53 521.96 Z" fill-rule="evenodd" transform="translate(-1,-1) "/></svg>