<svg xmlns="http://www.w3.org/2000/svg" viewBox="0 0 3.629974365234375 10.1300048828125"><path d="M 479.26 290.56 479.26 290.56 479.22 290.57 479.1 290.64 479.03 290.71 478.99 290.73 478.94 290.72 478.94 290.72 478.9 290.75 478.87 290.79 478.85 290.81 478.83 290.82 478.83 290.83 478.82 290.85 478.83 290.87 478.85 290.88 478.85 290.9 478.84 290.9 478.84 290.92 478.85 290.94 478.86 291.01 478.87 291.04 478.86 291.05 478.86 291.05 478.86 291.05 478.85 291.04 478.85 291.05 478.84 291.08 478.82 291.06 478.83 291.11 478.84 291.13 478.81 291.13 478.81 291.15 478.82 291.15 478.83 291.15 478.84 291.17 478.85 291.18 478.87 291.2 478.87 291.22 478.85 291.22 478.84 291.24 478.83 291.26 478.82 291.27 478.83 291.28 478.84 291.28 478.84 291.29 478.85 291.29 478.85 291.31 478.84 291.32 478.82 291.33 478.84 291.34 478.81 291.36 478.81 291.37 478.82 291.37 478.82 291.37 478.82 291.38 478.81 291.38 478.81 291.4 478.82 291.41 478.82 291.42 478.81 291.43 478.79 291.43 478.8 291.46 478.81 291.47 478.82 291.48 478.83 291.5 478.65 291.45 478.6 291.44 478.54 291.44 478.49 291.42 478.47 291.35 478.47 291.27 478.45 291.21 478.39 291.17 478.32 291.16 478.18 291.17 478.14 291.15 478.08 291.1 478.05 291.09 478.05 291.08 478.01 291.09 477.98 291.11 477.92 291.18 477.85 291.22 477.78 291.25 477.73 291.29 477.68 291.37 477.66 291.5 477.65 291.55 477.63 291.6 477.62 291.61 477.59 291.62 477.58 291.63 477.58 291.66 477.57 291.74 477.56 291.77 477.59 291.78 477.6 291.8 477.61 291.83 477.6 291.86 477.58 291.9 477.5 291.98 477.47 292.01 477.46 292.04 477.5 292.12 477.51 292.16 477.54 292.41 477.54 292.46 477.54 292.51 477.54 292.52 477.54 292.52 477.54 292.52 477.54 292.52 477.54 292.53 477.54 292.54 477.54 292.55 477.54 292.56 477.53 292.63 477.57 292.74 477.6 292.82 477.54 292.86 477.48 292.88 477.47 292.91 477.46 292.92 477.48 292.97 477.56 292.98 477.59 292.98 477.61 292.98 477.63 292.96 477.67 292.92 477.68 292.91 477.72 292.92 477.83 292.97 477.99 293.01 478.02 293.03 478.04 293.06 478.04 293.11 478.04 293.16 478.03 293.18 478.02 293.18 478.01 293.18 478 293.16 477.86 293.19 477.82 293.21 477.78 293.25 477.7 293.32 477.52 293.46 477.48 293.51 477.48 293.52 477.44 293.58 477.43 293.65 477.43 293.73 477.42 293.81 477.32 293.98 477.29 294.06 477.31 294.15 477.36 294.19 477.42 294.2 477.48 294.19 477.54 294.17 477.67 294.15 477.95 294.15 478.08 294.1 478.32 293.9 478.45 293.83 478.6 293.82 478.6 293.82 478.6 293.97 478.6 293.99 478.59 294.05 478.55 294.16 478.51 294.23 478.52 294.25 478.52 294.31 478.49 294.36 478.46 294.42 478.47 294.49 478.49 294.56 478.52 294.61 478.55 294.68 478.57 294.75 478.56 294.82 478.45 295.02 478.44 295.1 478.44 295.18 478.41 295.23 478.35 295.28 478.33 295.31 478.3 295.37 478.29 295.43 478.29 295.48 478.29 295.54 478.27 295.57 478.23 295.6 478.22 295.62 478.2 295.65 478.2 295.68 478.19 295.74 478.17 295.81 478.17 295.81 478.04 296.07 477.94 296.38 477.93 296.44 477.89 296.55 477.89 296.61 477.9 296.63 477.94 296.69 477.94 296.72 477.94 296.76 477.93 296.79 477.91 296.81 477.9 296.84 477.88 296.98 477.86 297.02 477.86 297.09 477.91 297.25 477.91 297.33 477.87 297.42 477.77 297.56 477.75 297.66 477.75 297.69 477.74 297.71 477.73 297.73 477.72 297.75 477.7 297.84 477.7 297.99 477.69 298.05 477.59 298.32 477.57 298.39 477.56 298.53 477.54 298.59 477.51 298.64 477.49 298.7 477.48 298.76 477.48 298.8 477.46 298.82 477.42 298.87 477.41 298.9 477.4 298.91 477.39 298.93 477.39 298.94 477.37 298.94 477.35 298.94 477.33 298.94 477.31 298.9 477.26 298.8 477.25 298.74 477.25 298.56 477.19 298.3 477.11 298.06 477.01 297.8 477 297.66 477 297.64 477 297.63 476.99 297.61 476.99 297.6 476.9 297.35 476.77 296.98 476.7 296.77 476.67 296.73 476.55 296.62 476.53 296.6 476.53 296.57 476.53 296.53 476.55 296.45 476.56 296.41 476.53 296.38 476.53 296.38 476.5 296.33 476.48 296.29 476.48 296.19 476.43 295.98 476.3 295.62 476.18 295.32 476.1 295.1 476.03 294.88 475.94 294.61 475.92 294.54 475.95 294.51 476.07 294.42 476.14 294.34 476.15 294.3 476.13 294.21 476.13 294.16 476.18 294.07 476.43 293.83 476.47 293.81 476.47 293.81 476.54 293.74 476.54 293.69 476.5 293.64 476.43 293.58 476.43 293.58 476.45 293.54 476.51 293.47 476.7 293.13 476.72 293.11 476.84 292.83 476.9 292.69 476.94 292.63 477.01 292.4 477.02 292.38 477.01 292.36 477.01 292.34 477.04 292.33 477.22 291.77 477.3 291.38 477.37 291.04 477.38 291.01 477.4 290.9 477.41 290.86 477.4 290.82 477.45 290.61 477.47 290.37 477.48 290.32 477.52 290.3 477.55 290.31 477.59 290.34 477.62 290.35 477.64 290.34 477.72 290.26 477.73 290.24 477.75 290.17 477.76 290.13 477.76 290.1 477.73 290.09 477.74 290.05 477.76 289.89 477.79 289.8 477.8 289.75 477.79 289.71 477.8 289.7 477.81 289.68 477.82 289.67 477.8 289.65 477.81 289.65 477.82 289.65 477.99 289.66 478 289.66 478.03 289.64 478.04 289.64 478.06 289.64 478.09 289.65 478.1 289.65 478.19 289.62 478.21 289.62 478.22 289.62 478.24 289.63 478.26 289.65 478.28 289.68 478.3 289.71 478.32 289.74 478.35 289.74 478.47 289.71 478.58 289.66 478.65 289.66 478.66 289.62 478.7 289.54 478.72 289.5 478.73 289.43 478.74 289.3 478.75 289.24 478.77 289.21 478.79 289.17 478.8 289.15 478.83 289.14 478.84 289.16 478.88 289.22 478.91 289.24 478.91 289.24 478.91 289.24 478.92 289.25 478.92 289.25 478.92 289.24 478.92 289.24 478.92 289.24 478.92 289.19 478.94 289.17 478.97 289.17 479 289.16 479.05 289.12 479.13 289.04 479.17 289.02 479.2 289.02 479.23 289.01 479.26 289 479.29 288.98 479.33 288.94 479.37 288.85 479.4 288.81 479.41 288.83 479.39 288.84 479.39 288.89 479.38 288.9 479.38 288.94 479.34 288.96 479.33 288.98 479.28 289 479.36 289.06 479.29 289.17 479.3 289.19 479.36 289.23 479.37 289.35 479.42 289.39 479.43 289.46 479.41 289.51 479.38 289.55 479.38 289.59 479.47 289.63 479.46 289.66 479.49 289.91 479.5 289.94 479.55 290.03 479.52 290.09 479.5 290.09 479.47 290.16 479.44 290.24 479.45 290.27 479.43 290.34 479.32 290.47 479.26 290.56 Z" id="Israel" transform="translate(-475.9200134277344,-288.80999755859375) "/></svg>