<svg xmlns="http://www.w3.org/2000/svg" viewBox="0 0 26.40997314453125 34.209991455078125"><path d="M 427.98 283.23 427.95 283.24 427.94 283.24 427.93 283.23 427.92 283.23 427.83 283.19 427.79 283.18 427.77 283.17 427.78 283.16 427.83 283.16 427.86 283.16 427.96 283.17 427.98 283.18 427.98 283.18 427.98 283.19 427.98 283.19 427.98 283.21 427.98 283.23 Z M 428.53 282.26 428.5 282.26 428.49 282.25 428.48 282.23 428.48 282.21 428.49 282.21 428.51 282.2 428.52 282.2 428.54 282.22 428.54 282.25 428.53 282.26 Z M 426.56 279.59 426.57 279.6 426.58 279.59 426.6 279.56 426.68 279.64 426.71 279.69 426.72 279.75 426.67 279.82 426.59 279.81 426.51 279.76 426.46 279.69 426.45 279.67 426.43 279.63 426.43 279.58 426.45 279.56 426.46 279.56 426.48 279.55 426.49 279.54 426.51 279.55 426.53 279.58 426.54 279.58 426.56 279.59 Z M 427.31 276.5 427.35 276.52 427.39 276.53 427.42 276.54 427.39 276.57 427.36 276.57 427.32 276.56 427.3 276.54 427.26 276.56 427.24 276.55 427.22 276.53 427.21 276.5 427.24 276.5 427.26 276.49 427.28 276.48 427.3 276.48 427.31 276.5 Z M 426.77 276.44 426.78 276.47 426.74 276.47 426.71 276.44 426.68 276.4 426.67 276.37 426.68 276.35 426.72 276.35 426.74 276.37 426.76 276.42 426.77 276.44 Z M 434.67 275.59 434.66 275.6 434.63 275.6 434.54 275.66 434.51 275.69 434.5 275.73 434.49 275.77 434.53 275.77 434.42 275.95 434.36 276.09 434.12 276.4 433.92 276.71 433.88 276.8 433.84 276.86 433.78 276.9 433.72 277 433.71 277.03 433.71 277.06 433.73 277.12 433.74 277.15 433.73 277.18 433.7 277.21 433.69 277.24 433.69 277.29 433.66 277.37 433.65 277.43 433.61 277.54 433.51 277.66 433.46 277.74 433.45 277.79 433.45 277.84 433.45 278.11 433.46 278.16 433.48 278.2 433.5 278.22 433.65 278.31 433.73 278.32 433.77 278.35 433.81 278.4 433.83 278.46 433.79 278.43 433.77 278.44 433.76 278.47 433.74 278.5 433.74 278.45 433.73 278.43 433.71 278.43 433.68 278.45 433.69 278.48 433.66 278.54 433.68 278.62 433.73 278.68 433.77 278.65 433.8 278.67 433.8 278.69 433.76 278.7 433.76 278.74 433.8 278.78 433.84 278.81 433.89 278.81 433.92 278.83 433.93 278.87 433.92 278.94 433.89 278.92 433.88 278.94 433.88 278.98 433.9 278.99 433.94 278.99 433.96 279 433.98 279.03 433.99 279.08 433.97 279.09 433.95 279.08 433.93 279.06 433.92 279.07 433.84 279.11 433.86 279.13 433.84 279.14 433.83 279.15 433.84 279.16 433.84 279.18 433.79 279.19 433.75 279.21 433.72 279.23 433.68 279.24 433.64 279.27 433.6 279.32 433.49 279.61 433.49 279.64 433.46 279.66 433.47 279.72 433.51 279.81 433.55 279.97 433.55 280.01 433.5 280.05 433.46 280.06 433.41 280.05 433.37 280.02 433.34 279.97 433.32 279.95 433.3 279.94 433.27 279.93 433.25 279.93 433.24 279.95 433.21 279.97 433.16 279.94 433.07 279.88 432.99 279.85 432.91 279.87 432.76 279.94 432.75 279.92 432.75 279.91 432.72 279.92 432.68 279.89 432.55 279.87 432.52 279.82 432.49 279.79 432.36 279.74 432.32 279.71 432.29 279.72 432.11 279.68 432.09 279.65 431.91 279.26 431.85 279.18 431.65 278.99 431.5 278.89 431.31 278.8 431.23 278.79 430.98 278.81 430.96 278.81 430.92 278.84 430.9 278.85 430.8 278.83 430.66 278.72 430.58 278.69 430.48 278.67 430.4 278.64 430.33 278.59 430.14 278.4 430.08 278.35 430 278.33 429.9 278.31 429.82 278.28 429.75 278.24 429.64 278.15 429.55 278.1 429.51 278.06 429.49 278.04 429.46 278.03 429.43 278.02 429.38 277.91 429.36 277.9 429.32 277.87 429.29 277.84 429.27 277.83 429.25 277.82 429.24 277.81 429.21 277.77 429.2 277.76 428.93 277.72 428.9 277.74 428.88 277.74 428.85 277.73 428.84 277.71 428.83 277.65 428.82 277.63 428.76 277.56 428.69 277.53 428.51 277.51 428.33 277.52 428.15 277.55 428.06 277.54 428.01 277.5 427.92 277.34 427.88 277.3 427.85 277.29 427.76 277.28 427.72 277.26 427.68 277.22 427.65 277.16 427.63 277.11 427.62 277.07 427.62 277.03 427.61 277 427.59 276.97 427.57 276.94 427.55 276.9 427.55 276.86 427.59 276.84 427.59 276.86 427.62 276.84 427.63 276.83 427.63 276.82 427.64 276.74 427.65 276.74 427.66 276.69 427.66 276.66 427.66 276.65 427.64 276.62 427.63 276.59 427.63 276.57 427.63 276.57 427.64 276.56 427.69 276.46 427.7 276.38 427.71 276.34 427.72 276.3 427.69 276.27 427.76 276.24 427.82 276.18 427.88 276.13 427.95 276.15 428.02 276.11 428.04 276.07 428.06 276.03 428.07 276 428.1 276 428.13 276.02 428.16 276.02 428.21 275.98 428.2 275.91 428.2 275.84 428.22 275.79 428.24 275.82 428.26 275.82 428.29 275.82 428.3 275.87 428.35 276 428.41 276.11 428.44 276.13 428.5 276.17 428.53 276.19 428.53 276.21 428.6 276.25 428.69 276.24 428.88 276.15 428.95 276.1 428.97 276.07 428.97 276.06 428.97 276.05 428.97 276.01 428.96 275.98 428.94 275.96 428.94 275.93 429.01 275.86 429 275.84 429.02 275.82 429.04 275.8 429.07 275.79 429.09 275.79 429.16 275.83 429.21 275.84 429.28 275.84 429.33 275.81 429.35 275.75 429.38 275.76 429.41 275.75 429.43 275.74 429.47 275.73 429.5 275.71 429.52 275.71 429.53 275.72 429.54 275.74 429.54 275.76 429.54 275.77 429.63 275.83 429.64 275.85 429.64 275.94 429.65 275.96 429.68 276.04 429.96 276.02 430.02 276.07 430.01 276.11 430.02 276.14 430.03 276.17 430.05 276.19 430.12 276.22 430.2 276.29 430.26 276.33 430.36 276.35 430.39 276.36 430.39 276.37 430.38 276.37 430.38 276.38 430.43 276.38 430.57 276.4 430.62 276.39 430.72 276.34 430.81 276.32 430.84 276.29 430.87 276.27 430.9 276.25 431.05 276.22 431.08 276.19 431.17 276.24 431.22 276.26 431.27 276.27 431.3 276.27 431.37 276.25 431.64 276.29 431.77 276.28 431.89 276.25 431.99 276.19 432.06 276.23 432.17 276.21 432.44 276.1 432.51 276.05 432.58 275.99 432.66 275.89 432.68 275.88 432.76 275.88 432.8 275.88 432.97 275.84 433 275.82 433.02 275.81 433.04 275.8 433.11 275.81 433.13 275.82 433.17 275.87 433.18 275.88 433.21 275.89 433.27 275.9 433.34 275.9 433.36 275.9 433.37 275.91 433.39 275.95 433.4 275.96 433.44 275.97 433.48 275.96 433.52 275.93 433.64 275.89 433.7 275.82 433.78 275.65 433.78 275.63 433.77 275.63 433.78 275.62 433.78 275.6 433.78 275.59 433.79 275.59 433.8 275.62 433.78 275.68 433.79 275.72 433.82 275.74 433.86 275.75 433.9 275.75 433.96 275.74 434.14 275.68 434.19 275.64 434.21 275.62 434.3 275.58 434.39 275.49 434.42 275.48 434.49 275.49 434.62 275.54 434.69 275.56 434.69 275.58 434.67 275.59 Z M 433.25 275.29 433.22 275.31 433.17 275.26 433.14 275.22 433.13 275.17 433.16 275.11 433.18 275.11 433.18 275.15 433.21 275.17 433.24 275.2 433.25 275.23 433.27 275.27 433.25 275.29 Z M 433.18 275.06 433.14 275.06 433.11 275.04 433.08 275.01 433.05 275 433.03 274.98 433.03 274.93 433.05 274.88 433.08 274.86 433.16 274.86 433.17 274.88 433.16 274.92 433.17 274.93 433.19 274.95 433.2 274.96 433.2 274.98 433.15 274.98 433.16 275.01 433.16 275.02 433.18 275.03 433.18 275.06 Z M 431.83 274.81 431.8 274.83 431.79 274.79 431.83 274.78 431.83 274.81 Z M 432.95 274.79 432.94 274.81 432.86 274.78 432.79 274.72 432.84 274.69 432.92 274.69 432.96 274.7 432.98 274.73 432.97 274.74 432.96 274.75 432.95 274.79 Z M 432.33 274.76 432.3 274.77 432.26 274.75 432.24 274.71 432.24 274.68 432.24 274.68 432.28 274.69 432.31 274.71 432.32 274.74 432.33 274.75 432.33 274.76 Z M 429.21 274.38 429.18 274.39 429.16 274.37 429.16 274.35 429.17 274.33 429.19 274.31 429.23 274.31 429.25 274.33 429.25 274.34 429.21 274.38 Z M 433.75 274.14 433.73 274.15 433.71 274.15 433.66 274.11 433.66 274.1 433.68 274.08 433.7 274.07 433.71 274.06 433.72 274.05 433.73 274.04 433.75 274.05 433.77 274.05 433.78 274.07 433.78 274.09 433.77 274.11 433.76 274.13 433.75 274.14 Z M 418.53 273.17 418.59 273.21 418.66 273.21 418.72 273.22 418.74 273.3 418.75 273.32 418.76 273.32 418.77 273.32 418.79 273.31 418.79 273.31 418.8 273.3 418.81 273.31 418.76 273.35 418.75 273.37 418.76 273.39 418.74 273.43 418.72 273.53 418.7 273.6 418.69 273.62 418.67 273.62 418.64 273.62 418.63 273.6 418.63 273.58 418.62 273.56 418.54 273.43 418.51 273.33 418.52 273.27 418.52 273.25 418.5 273.25 418.5 273.23 418.53 273.17 Z M 418.41 273.21 418.38 273.23 418.33 273.23 418.3 273.21 418.3 273.17 418.3 273.16 418.25 273.1 418.23 273.06 418.24 273.02 418.28 273 418.38 272.97 418.41 272.96 418.41 273.05 418.43 273.17 418.41 273.21 Z M 430.94 268.59 430.91 268.62 430.89 268.61 430.86 268.61 430.82 268.62 430.79 268.64 430.77 268.62 430.72 268.6 430.7 268.58 430.71 268.52 430.73 268.49 430.75 268.48 430.74 268.47 430.73 268.44 430.77 268.44 430.91 268.49 430.96 268.52 430.95 268.54 430.95 268.56 430.96 268.58 430.94 268.59 Z M 429.76 268.36 429.74 268.37 429.75 268.34 429.76 268.33 429.77 268.33 429.76 268.36 Z M 418.47 267.44 418.49 267.46 418.5 267.5 418.49 267.53 418.47 267.56 418.34 267.58 418.29 267.62 418.29 267.7 418.28 267.77 418.2 267.76 418.22 267.73 418.22 267.71 418.23 267.68 418.23 267.65 418.24 267.63 418.27 267.6 418.31 267.56 418.34 267.54 418.35 267.51 418.34 267.47 418.35 267.44 418.36 267.43 418.4 267.44 418.41 267.43 418.42 267.41 418.43 267.4 418.46 267.38 418.46 267.4 418.46 267.42 418.47 267.44 Z M 420.99 267.19 421 267.21 421 267.22 420.99 267.24 420.98 267.24 420.96 267.22 420.94 267.2 420.93 267.21 420.92 267.2 420.94 267.15 420.93 267.13 420.94 267.1 420.96 267.06 420.97 267.04 420.99 267.04 421 267.06 421.01 267.08 421.01 267.09 421.01 267.11 420.99 267.19 Z M 420.91 267.11 420.83 267.13 420.79 267.12 420.78 267.1 420.78 267.07 420.79 267.06 420.8 267.05 420.82 267.04 420.83 267.02 420.83 267 420.84 266.99 420.85 266.99 420.87 266.98 420.89 266.98 420.9 267 420.9 267.03 420.9 267.05 420.9 267.08 420.91 267.09 420.91 267.1 420.91 267.11 Z M 420.48 267.02 420.5 267.02 420.52 267.02 420.54 267.05 420.54 267.16 420.57 267.18 420.56 267.16 420.56 267.15 420.56 267.13 420.57 267.1 420.58 267.1 420.59 267.14 420.59 267.14 420.58 267.16 420.58 267.18 420.61 267.17 420.63 267.17 420.64 267.16 420.65 267.17 420.69 267.2 420.69 267.13 420.73 267.14 420.81 267.22 420.81 267.2 420.83 267.21 420.85 267.22 420.86 267.22 420.89 267.22 420.89 267.24 420.87 267.25 420.87 267.25 420.86 267.27 420.86 267.28 420.88 267.29 420.9 267.31 420.91 267.34 420.93 267.36 420.92 267.38 420.92 267.41 420.93 267.48 420.96 267.42 420.97 267.39 420.99 267.38 420.98 267.36 420.98 267.35 420.98 267.34 420.96 267.34 420.99 267.32 421.02 267.32 421.05 267.33 421.08 267.34 421.09 267.33 421.1 267.31 421.11 267.31 421.13 267.34 421.11 267.36 421.13 267.37 421.15 267.39 421.16 267.39 421.18 267.38 421.19 267.38 421.19 267.39 421.2 267.39 421.2 267.39 421.21 267.4 421.2 267.43 421.2 267.46 421.18 267.49 421.16 267.52 421.16 267.51 421.15 267.49 421.14 267.48 421.11 267.65 421.08 267.7 421.13 267.7 421.11 267.66 421.15 267.64 421.18 267.65 421.19 267.67 421.18 267.72 421.19 267.72 421.19 267.72 421.19 267.71 421.19 267.7 421.2 267.72 421.21 267.72 421.22 267.72 421.25 267.69 421.31 267.69 421.38 267.71 421.42 267.74 421.39 267.77 421.36 267.77 421.32 267.75 421.29 267.74 421.25 267.76 421.24 267.81 421.23 267.86 421.21 267.9 421.22 267.94 421.19 267.95 421.08 267.94 421.08 267.95 421.09 267.96 421.07 267.96 421.08 268 421.1 268 421.12 267.98 421.14 267.98 421.17 267.99 421.21 268.02 421.22 268.02 421.26 268.01 421.3 267.99 421.33 267.97 421.37 267.98 421.36 268.01 421.35 268.03 421.33 268.04 421.31 268.04 421.31 268.06 421.39 268.1 421.4 268.11 421.41 268.14 421.42 268.16 421.44 268.16 421.46 268.14 421.48 268.17 421.5 268.19 421.53 268.19 421.55 268.2 421.48 268.23 421.46 268.24 421.48 268.28 421.48 268.3 421.45 268.29 421.42 268.31 421.41 268.33 421.43 268.36 421.43 268.33 421.45 268.36 421.51 268.45 421.52 268.49 421.53 268.54 421.6 268.68 421.61 268.72 421.62 268.9 421.63 268.93 421.64 268.95 421.65 268.96 421.68 268.97 421.69 268.98 421.69 269.01 421.71 269.04 421.77 269.1 421.78 269.12 421.78 269.15 421.76 269.2 421.75 269.23 421.74 269.29 421.72 269.33 421.67 269.42 421.64 269.52 421.61 269.56 421.56 269.58 421.53 269.59 421.5 269.63 421.46 269.71 421.44 269.75 421.38 269.8 421.36 269.83 421.34 269.89 421.34 269.93 421.34 270.06 421.35 270.08 421.4 270.23 421.42 270.27 421.46 270.29 421.47 270.3 421.52 270.37 421.57 270.41 421.57 270.45 421.49 270.67 421.47 270.76 421.49 270.84 421.51 270.83 421.52 270.82 421.54 270.82 421.54 270.84 421.53 270.87 421.52 270.87 421.5 270.87 421.49 270.88 421.48 270.92 421.47 270.95 421.47 270.99 421.48 271.02 421.46 271.02 421.46 271.04 421.47 271.04 421.48 271.05 421.49 271.06 421.49 271.08 421.47 271.11 421.45 271.17 421.44 271.24 421.43 271.31 421.44 271.35 421.45 271.42 421.45 271.46 421.44 271.49 421.42 271.54 421.42 271.58 421.41 271.6 421.4 271.62 421.39 271.65 421.39 271.69 421.4 271.81 421.4 271.89 421.34 272.08 421.38 272.13 421.37 272.22 421.31 272.37 421.28 272.5 421.28 272.54 421.29 272.58 421.31 272.61 421.36 272.65 421.36 272.67 421.3 272.69 421.24 272.75 421.21 272.83 421.22 272.9 421.2 272.93 421.21 272.94 421.23 272.96 421.24 272.98 421.23 273 421.21 273.06 421.21 273.09 421.19 273.11 421.15 273.13 421.11 273.15 421.1 273.21 421.08 273.2 421.07 273.19 421.08 273.18 421.08 273.16 421.05 273.13 421.02 273.12 420.98 273.14 420.95 273.16 420.93 273.16 420.92 273.13 420.9 273.12 420.86 273.09 420.8 273.03 420.79 273.02 420.77 273.01 420.71 272.95 420.7 272.94 420.67 272.93 420.64 272.92 420.61 272.9 420.6 272.88 420.58 272.9 420.55 272.88 420.51 272.87 420.43 272.86 420.39 272.88 420.35 272.92 420.33 272.96 420.32 272.98 420.25 272.96 420.2 272.91 420.11 272.8 420.09 272.82 420.07 272.81 420.06 272.78 420.04 272.76 420 272.76 419.98 272.76 419.98 272.77 420.01 272.78 420.01 272.8 420 272.83 420.01 272.84 420.03 272.85 420.03 272.86 420.04 272.86 420.06 272.87 420.12 272.86 420.13 272.87 420.13 272.89 420.13 272.91 420.04 273 420.01 273.04 419.99 273.09 419.99 273.16 419.99 273.21 420 273.27 420.02 273.31 420.03 273.33 420.05 273.34 420.05 273.36 420.02 273.42 419.99 273.52 420.01 273.52 419.98 273.54 419.98 273.54 419.96 273.52 419.94 273.56 419.72 273.79 419.7 273.79 419.68 273.8 419.67 273.8 419.64 273.84 419.62 273.86 419.6 273.85 419.57 273.83 419.52 273.78 419.52 273.83 419.49 273.78 419.43 273.74 419.37 273.71 419.32 273.7 419.27 273.72 419.22 273.76 419.18 273.82 419.19 273.88 419.15 273.89 419.14 273.88 419.16 273.82 419.14 273.81 419.1 273.81 419.06 273.8 419.06 273.78 419.1 273.73 419.1 273.66 419.07 273.61 419.02 273.62 419 273.47 418.97 273.35 418.96 273.35 418.94 273.36 418.89 273.34 418.85 273.33 418.86 273.32 418.88 273.27 418.85 273.25 418.8 273.28 418.8 273.27 418.79 273.25 418.78 273.2 418.76 273.17 418.74 273.15 418.71 273.17 418.7 273.14 418.71 273.07 418.7 273.04 418.68 273.02 418.66 273.01 418.65 273.01 418.65 273.04 418.64 273.03 418.63 273.01 418.63 272.99 418.62 272.97 418.62 272.94 418.6 272.93 418.59 272.93 418.58 272.92 418.56 272.88 418.56 272.85 418.57 272.83 418.68 272.7 418.69 272.65 418.65 272.59 418.66 272.55 418.58 272.49 418.56 272.43 418.57 272.41 418.61 272.36 418.62 272.34 418.63 272.29 418.63 272.27 418.6 272.19 418.59 272.18 418.59 272.17 418.61 272.14 418.67 272.06 418.7 272.01 418.73 271.92 418.76 271.87 418.74 271.84 418.76 271.81 418.76 271.75 418.73 271.63 418.72 271.5 418.71 271.47 418.71 271.45 418.72 271.42 418.72 271.35 418.72 271.33 418.75 271.34 418.77 271.35 418.84 271.47 418.88 271.51 418.93 271.52 418.99 271.51 418.87 271.47 418.85 271.45 418.86 271.4 418.89 271.35 418.92 271.31 418.94 271.27 418.93 271.27 418.92 271.29 418.91 271.31 418.9 271.32 418.88 271.33 418.91 271.3 418.93 271.26 418.95 271.2 418.96 271.17 418.96 271.07 418.96 271.04 418.94 271 418.89 270.94 418.83 270.9 418.76 270.9 418.7 270.94 418.71 270.96 418.72 270.94 418.73 270.94 418.74 270.94 418.76 270.94 418.73 270.96 418.72 270.99 418.7 271.06 418.68 271.04 418.7 271 418.69 270.98 418.66 270.96 418.63 270.93 418.62 270.93 418.62 270.92 418.61 270.9 418.61 270.88 418.61 270.86 418.62 270.84 418.62 270.82 418.61 270.72 418.61 270.68 418.63 270.62 418.64 270.59 418.61 270.55 418.58 270.56 418.57 270.55 418.59 270.53 418.62 270.51 418.63 270.51 418.7 270.5 418.74 270.49 418.75 270.48 418.77 270.47 418.8 270.44 418.81 270.39 418.82 270.35 418.81 270.31 418.77 270.23 418.76 270.18 418.75 270.03 418.79 269.89 418.79 269.81 418.76 269.74 418.71 269.69 418.65 269.65 418.64 269.67 418.59 269.63 418.58 269.58 418.61 269.43 418.6 269.37 418.58 269.3 418.54 269.23 418.51 269.2 418.47 269.17 418.45 269.11 418.44 269.04 418.43 268.98 418.38 268.93 418.33 268.93 418.21 269 418.17 268.98 418.19 268.92 418.21 268.88 418.16 268.86 418.12 268.89 418.1 268.95 418.09 269.02 418.07 268.98 418.06 268.93 418.05 268.86 418.05 268.84 418.08 268.82 418.12 268.79 418.14 268.75 418.15 268.68 418.16 268.68 418.17 268.67 418.17 268.65 418.16 268.64 418.13 268.64 418.12 268.63 418.11 268.62 418.07 268.57 418.06 268.55 418.03 268.54 418.2 268.14 418.21 268.09 418.21 268.04 418.2 268 418.16 267.98 418.13 267.96 418.14 267.91 418.16 267.85 418.18 267.82 418.2 267.82 418.2 267.85 418.22 267.86 418.24 267.86 418.26 267.88 418.26 267.9 418.25 267.94 418.24 267.98 418.25 268.01 418.35 268.14 418.42 268.18 418.67 268.22 418.79 268.26 418.84 268.26 418.89 268.25 419.06 268.18 419.1 268.14 419.14 268.09 419.15 268.05 419.31 267.98 419.36 267.98 419.4 267.98 419.43 268 419.56 267.9 419.59 267.86 419.67 267.72 419.7 267.7 419.7 267.69 419.7 267.69 419.7 267.68 419.69 267.68 419.76 267.65 419.78 267.64 419.79 267.62 419.82 267.57 419.83 267.56 419.86 267.54 419.9 267.51 419.93 267.46 419.96 267.39 420 267.37 420.16 267.35 420.19 267.34 420.25 267.28 420.26 267.3 420.3 267.25 420.31 267.21 420.31 267.09 420.33 267.04 420.37 267.01 420.42 267 420.46 266.98 420.47 267 420.48 267.02 Z M 422.87 263.79 422.86 263.84 422.82 263.82 422.83 263.77 422.85 263.75 422.87 263.79 Z M 424.25 263.82 424.21 263.85 424.18 263.83 424.1 263.75 424.08 263.71 424.11 263.68 424.11 263.65 424.12 263.63 424.15 263.65 424.19 263.68 424.22 263.75 424.23 263.79 424.25 263.82 Z M 422.38 263.08 422.36 263.09 422.33 263.09 422.3 263.08 422.28 263.06 422.28 263.04 422.31 263.03 422.33 263.01 422.34 262.97 422.35 262.97 422.36 263 422.37 263.02 422.38 263.04 422.38 263.05 422.38 263.06 422.38 263.08 Z M 423.12 262.36 423.13 262.4 423.12 262.45 423.1 262.48 423.07 262.5 423.03 262.52 423.07 262.54 423.11 262.59 423.12 262.64 423.09 262.68 423.08 262.66 423.06 262.65 423.04 262.65 423.01 262.64 423 262.63 422.98 262.57 422.97 262.56 422.95 262.54 422.92 262.51 422.89 262.51 422.86 262.58 422.84 262.53 422.76 262.58 422.71 262.54 422.7 262.58 422.69 262.6 422.68 262.6 422.49 262.6 422.44 262.58 422.4 262.54 422.39 262.46 422.41 262.4 422.46 262.37 422.52 262.36 422.56 262.35 422.59 262.36 422.64 262.39 422.66 262.4 422.7 262.4 422.76 262.4 422.75 262.38 422.75 262.38 422.75 262.38 422.74 262.37 422.77 262.35 422.77 262.33 422.77 262.33 422.81 262.33 422.89 262.33 422.88 262.37 422.9 262.39 422.94 262.39 422.95 262.38 422.96 262.36 422.98 262.34 423 262.33 423.01 262.31 423.04 262.23 423.05 262.2 423.08 262.19 423.1 262.2 423.12 262.21 423.14 262.24 423.15 262.27 423.13 262.29 423.12 262.32 423.12 262.36 Z M 421.77 261.78 421.73 261.78 421.69 261.72 421.74 261.61 421.78 261.58 421.81 261.61 421.82 261.61 421.82 261.62 421.83 261.63 421.84 261.67 421.82 261.73 421.77 261.78 Z M 427.5 254.32 427.56 254.36 427.53 254.35 427.5 254.34 427.43 254.34 427.31 254.58 427.31 254.56 427.33 254.5 427.38 254.4 427.42 254.33 427.46 254.31 427.5 254.32 Z M 427.38 254.31 427.35 254.33 427.31 254.32 427.3 254.28 427.33 254.23 427.37 254.23 427.41 254.26 427.4 254.29 427.38 254.31 Z M 416.63 259.4 416.59 259.25 416.58 259.17 416.61 259.11 416.71 259.01 416.75 258.93 416.87 258.84 416.92 258.78 416.93 258.75 416.95 258.68 416.97 258.64 416.99 258.61 417.02 258.59 417.05 258.56 417.05 258.5 417.04 258.48 417.02 258.43 416.97 258.38 416.94 258.32 416.97 258.22 416.9 258.21 416.81 258.27 416.75 258.27 416.36 258.38 416.27 258.38 416.25 258.38 416.23 258.36 416.22 258.33 416.2 258.31 416.17 258.3 416.12 258.29 416.07 258.27 415.84 258.12 415.75 258.09 415.62 258.02 415.59 258.01 415.56 258.02 415.53 258.03 415.51 258.03 415.48 258.02 415.46 257.99 415.45 257.97 415.44 257.94 415.43 257.91 415.41 257.88 415.36 257.85 415.34 257.83 415.33 257.81 415.3 257.75 415.29 257.72 415.24 257.66 415.23 257.64 415.22 257.62 415.22 257.6 415.23 257.58 415.24 257.49 415.26 257.46 415.33 257.42 415.28 257.37 415.21 257.3 415.16 257.21 415.15 257.12 415.18 257.07 415.29 256.99 415.37 256.86 415.4 256.83 415.37 256.77 415.39 256.7 415.43 256.65 415.48 256.62 415.52 256.62 415.6 256.65 415.64 256.65 415.63 256.61 415.56 256.48 415.55 256.45 415.54 256.38 415.51 256.31 415.51 256.31 415.53 256.26 415.53 256.25 415.53 256.24 415.53 256.23 415.53 256.22 415.53 256.2 415.52 256.19 415.48 256.14 415.37 256.1 415.33 256.09 415.22 256.12 415.18 256.11 415.02 256.02 414.95 255.95 414.91 255.89 414.92 255.71 414.9 255.62 414.85 255.58 414.77 255.57 414.74 255.55 414.72 255.51 414.71 255.48 414.71 255.46 414.71 255.43 414.68 255.4 414.64 255.34 414.66 255.31 414.7 255.28 414.7 255.27 414.78 255.23 414.8 255.23 414.84 255.23 414.86 255.22 414.88 255.21 414.92 255.18 414.93 255.17 415.01 255.19 415.09 255.23 415.17 255.26 415.24 255.22 415.25 255.21 415.23 255.19 415.22 255.17 415.24 255.15 415.25 255.14 415.31 255.14 415.33 255.13 415.36 255.1 415.4 255.04 415.43 255.01 415.5 254.97 415.58 254.95 415.6 254.96 415.63 254.99 415.64 255 415.65 254.98 415.7 254.91 415.76 254.85 415.76 254.81 415.73 254.74 415.72 254.65 415.73 254.63 415.81 254.55 415.85 254.47 415.87 254.42 415.87 254.38 415.86 254.37 415.76 254.32 415.73 254.3 415.71 254.27 415.7 254.23 415.68 254.2 415.68 254.19 415.58 254.12 415.48 254.06 415.46 254.02 415.45 253.89 415.44 253.86 415.42 253.83 415.41 253.8 415.42 253.77 415.44 253.72 415.45 253.7 415.44 253.65 415.41 253.63 415.34 253.62 415.31 253.59 415.26 253.54 415.23 253.53 415.17 253.52 415.11 253.48 415.06 253.41 415.04 253.28 415.03 253.22 415.04 253.17 415.05 253.11 415.08 253.07 415.11 253.05 415.17 253.03 415.19 253.04 415.2 253.04 415.22 253.06 415.23 253.06 415.23 253.05 415.23 253.02 415.24 253.01 415.25 253.01 415.31 253.01 415.35 252.99 415.4 252.97 415.45 252.93 415.48 252.88 415.49 252.84 415.51 252.8 415.53 252.77 415.57 252.75 415.67 252.86 415.72 252.89 415.78 252.91 415.86 252.91 415.92 252.9 416.06 252.84 416.12 252.8 416.15 252.79 416.32 252.81 416.39 252.78 416.52 252.69 416.59 252.66 416.63 252.65 416.66 252.62 416.68 252.59 416.72 252.57 416.94 252.62 416.98 252.64 417.01 252.67 417.05 252.73 417.06 252.74 417.08 252.75 417.1 252.75 417.12 252.74 417.14 252.74 417.25 252.78 417.31 252.77 417.35 252.79 417.36 252.79 417.39 252.77 417.39 252.76 417.39 252.74 417.4 252.71 417.4 252.71 417.45 252.7 417.45 252.64 417.48 252.6 417.51 252.57 417.66 252.54 417.69 252.53 417.7 252.52 417.73 252.48 417.73 252.47 417.75 252.43 417.76 252.42 417.77 252.33 417.77 252.29 417.77 252.26 417.79 252.23 417.81 252.21 417.86 252.2 417.88 252.2 417.98 252.11 418.03 252.01 418.02 251.89 417.95 251.76 417.9 251.72 417.9 251.71 417.9 251.68 417.93 251.65 417.97 251.61 418.02 251.58 418.11 251.56 418.16 251.53 418.27 251.39 418.33 251.35 418.36 251.33 418.38 251.31 418.39 251.28 418.39 251.25 418.38 251.24 418.37 251.22 418.39 251.18 418.43 251.13 418.49 251.1 418.59 251.08 418.62 251.07 418.68 251.08 418.71 251.13 418.72 251.2 418.72 251.3 418.72 251.39 418.68 251.55 418.67 251.64 418.68 251.71 418.7 251.77 418.75 251.8 418.8 251.82 418.86 251.85 418.93 251.92 419.07 252.12 419.09 252.14 419.13 252.15 419.24 252.21 419.27 252.21 419.29 252.2 419.32 252.17 419.34 252.17 419.35 252.17 419.36 252.17 419.37 252.2 419.39 252.21 419.43 252.22 419.49 252.22 419.53 252.23 419.58 252.3 419.55 252.38 419.49 252.46 419.45 252.55 419.44 252.56 419.44 252.57 419.47 252.57 419.51 252.58 419.63 252.65 419.65 252.66 419.66 252.68 419.69 252.73 419.72 252.8 419.74 252.84 419.76 252.89 419.76 252.94 419.75 252.98 419.74 253.02 419.73 253.07 419.82 253.04 419.89 253.07 419.96 253.08 420.03 253 420.08 252.89 420.09 252.84 420.06 252.78 420.04 252.77 420 252.76 419.97 252.75 419.95 252.72 419.94 252.66 419.91 252.64 419.91 252.63 419.91 252.62 419.91 252.61 419.91 252.6 419.98 252.54 419.95 252.43 419.95 252.39 420.01 252.35 420.06 252.33 420.08 252.32 420.1 252.29 420.11 252.25 420.1 252.18 420.11 252.14 420.15 252.08 420.31 251.97 420.31 251.96 420.33 251.93 420.34 251.9 420.35 251.87 420.38 251.85 420.4 251.84 420.43 251.81 420.45 251.78 420.48 251.66 420.55 251.53 420.56 251.46 420.56 251.42 420.53 251.3 420.53 251.26 420.53 251.22 420.53 251.19 420.5 251.17 420.48 251.12 420.49 251.04 420.53 250.97 420.58 250.93 420.68 250.91 420.73 250.93 420.73 250.97 420.79 251.02 420.8 251.03 420.83 251.02 420.84 251 420.85 250.97 420.86 250.95 420.9 250.93 420.91 250.92 420.92 250.94 420.93 251.25 420.93 251.3 420.94 251.32 420.95 251.33 421 251.36 421.02 251.38 421.06 251.49 421.09 251.53 421.14 251.56 421.19 251.58 421.44 251.59 421.49 251.57 421.52 251.52 421.52 251.5 421.52 251.46 421.52 251.42 421.55 251.4 421.57 251.4 421.62 251.43 421.65 251.44 421.7 251.42 421.85 251.34 421.94 251.33 421.99 251.33 422.03 251.34 422.09 251.38 422.1 251.43 422.1 251.5 422.12 251.57 422.15 251.61 422.24 251.69 422.26 251.74 422.26 251.81 422.33 251.81 422.43 251.78 422.49 251.74 422.52 251.68 422.49 251.62 422.4 251.53 422.38 251.49 422.37 251.47 422.37 251.44 422.38 251.39 422.4 251.36 422.45 251.32 422.46 251.3 422.48 251.23 422.46 251.19 422.42 251.18 422.32 251.16 422.26 251.13 422.23 251.09 422.26 251.02 422.25 251.01 422.23 250.99 422.23 250.97 422.23 250.94 422.24 250.91 422.24 250.84 422.24 250.81 422.26 250.78 422.31 250.74 422.32 250.71 422.35 250.61 422.36 250.58 422.38 250.57 422.59 250.51 422.65 250.51 422.68 250.54 422.69 250.58 422.68 250.64 422.69 250.68 422.78 250.71 422.8 250.72 422.81 250.74 422.82 250.75 422.85 250.77 422.87 250.77 422.95 250.76 423.11 250.81 423.15 250.8 423.17 250.77 423.18 250.75 423.2 250.67 423.2 250.58 423.18 250.52 423.14 250.48 423.04 250.47 423 250.43 422.99 250.36 423 250.33 423.02 250.31 423.04 250.27 423.05 250.23 423.04 250.19 423.05 250.16 423.09 250.14 423.12 250.1 423.11 250.05 423.1 250 423.09 249.96 423.14 249.9 423.15 249.88 423.16 249.85 423.17 249.75 423.24 249.8 423.34 249.81 423.56 249.75 423.6 249.75 423.64 249.76 423.8 249.86 423.83 249.89 423.82 249.91 423.77 249.95 423.76 249.97 423.77 250 423.79 250 423.84 249.98 423.87 249.99 423.93 250.03 423.95 250.03 423.99 250.02 424.02 250.02 424.04 250.03 424.07 250.06 424.1 250.07 424.12 250.07 424.19 250.04 424.23 250.04 424.31 250.04 424.34 250.06 424.38 250.05 424.41 250.02 424.46 249.94 424.47 249.93 424.49 249.92 424.5 249.91 424.5 249.89 424.5 249.86 424.5 249.84 424.55 249.74 424.57 249.63 424.59 249.59 424.73 249.45 424.77 249.42 424.92 249.37 425.08 249.35 425.16 249.37 425.23 249.4 425.29 249.4 425.37 249.33 425.37 249.33 425.39 249.3 425.41 249.29 425.43 249.28 425.47 249.29 425.48 249.3 425.5 249.31 425.51 249.33 425.53 249.34 425.55 249.34 425.57 249.34 425.59 249.33 425.59 249.33 425.59 249.33 425.59 249.33 425.65 249.31 425.71 249.31 425.82 249.33 425.82 249.33 425.82 249.33 425.84 249.33 425.86 249.33 425.9 249.33 425.97 249.39 426.01 249.4 426.04 249.4 426.08 249.36 426.11 249.34 426.21 249.33 426.28 249.27 426.38 249.22 426.48 249.18 426.63 249.18 426.86 249.06 426.9 249.05 427 249.03 427.05 249.05 427.05 249.09 427.05 249.13 427 249.2 426.87 249.27 426.85 249.33 426.86 249.36 426.87 249.4 426.88 249.47 426.9 249.51 426.91 249.54 426.91 249.57 426.88 249.6 426.9 249.61 426.96 249.62 426.98 249.63 427.01 249.66 427.02 249.68 427.03 249.69 427.06 249.71 427.16 249.71 427.19 249.73 427.21 249.8 427.21 249.84 427.21 249.87 427.2 249.89 427.19 249.93 427.19 249.97 427.2 249.99 427.21 250 427.23 250.02 427.28 250.04 427.32 250.04 427.36 250.07 427.38 250.14 427.42 250.24 427.5 250.31 427.59 250.34 427.64 250.35 427.71 250.37 427.78 250.41 427.81 250.43 427.85 250.43 427.97 250.42 428.08 250.43 428.09 250.43 428.11 250.44 428.15 250.47 428.17 250.48 428.19 250.48 428.22 250.46 428.24 250.46 428.26 250.47 428.31 250.48 428.44 250.57 428.96 250.6 429.14 250.65 429.28 250.73 429.33 250.75 429.42 250.76 429.64 250.71 429.74 250.72 429.88 250.71 429.89 250.72 429.92 250.76 429.94 250.77 430.03 250.77 430.3 250.86 430.34 250.86 430.37 250.86 430.37 250.88 430.37 250.9 430.36 250.92 430.35 250.94 430.34 251.02 430.34 251.03 430.32 251.07 430.28 251.09 430.22 251.09 430.15 251.1 430.09 251.15 430.05 251.22 429.99 251.28 429.89 251.33 429.84 251.37 429.81 251.38 429.78 251.39 429.75 251.42 429.73 251.48 429.69 251.54 429.68 251.55 429.63 251.59 429.64 251.62 429.66 251.66 429.67 251.74 429.67 251.74 429.67 251.74 429.7 251.78 429.71 251.83 429.73 251.85 429.79 251.84 429.75 251.79 429.79 251.8 429.85 251.8 429.89 251.82 429.95 251.83 429.99 251.86 430.06 251.93 430.11 251.94 430.18 251.93 430.21 251.94 430.23 251.94 430.24 251.97 430.25 252 430.18 252.12 429.98 252.28 429.94 252.31 429.89 252.37 429.9 252.39 429.91 252.41 429.9 252.43 429.89 252.46 429.87 252.46 429.84 252.5 429.87 252.53 429.88 252.54 429.88 252.54 429.88 252.54 429.88 252.55 429.89 252.55 429.95 252.62 430.01 252.61 430.08 252.58 430.15 252.56 430.16 252.56 430.2 252.62 430.18 252.69 430.16 252.75 430.15 252.79 430.08 252.95 430.07 253.05 430.09 253.09 430.11 253.12 430.17 253.15 430.24 253.16 430.28 253.18 430.37 253.24 430.39 253.26 430.54 253.33 430.72 253.63 430.74 253.65 430.78 253.67 430.8 253.67 430.8 253.68 430.8 253.68 430.78 253.72 430.74 253.78 430.7 253.83 430.59 253.84 430.5 253.79 430.39 253.8 430.41 253.78 430.44 253.74 430.49 253.74 430.56 253.75 430.61 253.74 430.58 253.73 430.56 253.71 430.54 253.67 430.46 253.63 430.5 253.61 430.49 253.55 430.46 253.49 430.43 253.45 430.25 253.27 430.21 253.24 430.09 253.18 430.04 253.17 430 253.21 429.98 253.28 429.99 253.34 430.05 253.35 429.97 253.39 429.95 253.4 429.94 253.42 429.88 253.43 429.86 253.44 429.82 253.49 429.77 253.53 429.71 253.54 429.65 253.52 429.68 253.51 429.72 253.49 429.76 253.47 429.77 253.44 429.75 253.39 429.66 253.37 429.64 253.33 429.6 253.34 429.38 253.29 429.36 253.28 429.31 253.23 429.29 253.22 429.27 253.22 429.19 253.25 429.17 253.29 429.15 253.3 429.13 253.29 429.11 253.25 429.08 253.24 429.06 253.25 429.06 253.28 429.06 253.31 429.09 253.33 429.09 253.35 429.04 253.35 429 253.38 428.97 253.42 428.98 253.48 429.02 253.5 429.06 253.49 429.15 253.45 429.12 253.5 429.05 253.56 429.03 253.62 429.03 253.62 429.01 253.65 428.95 253.67 428.78 253.67 428.69 253.69 428.33 253.93 427.96 254.11 427.74 254.19 427.7 254.22 427.68 254.23 427.6 254.25 427.54 254.29 427.51 254.3 427.53 254.25 427.55 254.21 427.57 254.18 427.56 254.15 427.58 254.15 427.59 254.15 427.6 254.13 427.6 254.1 427.62 254.1 427.63 254.13 427.64 254.14 427.65 254.14 427.66 254.13 427.63 254.08 427.66 254.09 427.68 254.08 427.7 254.08 427.71 254.08 427.71 254.08 427.72 254.09 427.72 254.1 427.72 254.1 427.72 254.1 427.69 254.1 427.69 254.13 427.74 254.12 427.75 254.08 427.76 254.04 427.78 254.02 427.82 254.01 427.85 254 427.87 253.97 427.89 253.93 427.86 253.94 427.81 253.98 427.79 253.98 427.75 253.94 427.73 253.91 427.72 253.87 427.68 253.89 427.62 253.95 427.58 254 427.6 254.04 427.6 254.06 427.56 254.06 427.53 254.02 427.51 254.04 427.49 254.04 427.48 253.97 427.45 254.03 427.47 254.05 427.54 254.08 427.54 254.1 427.51 254.12 427.47 254.12 427.44 254.11 427.45 254.08 427.38 254.08 427.29 254.13 427.2 254.21 427.16 254.3 427.16 254.32 427.17 254.32 427.15 254.35 427.15 254.38 427.15 254.4 427.17 254.43 427.15 254.46 427.15 254.48 427.15 254.5 427.14 254.54 427.13 254.55 427.11 254.55 427.1 254.56 427.11 254.6 427.09 254.64 427.08 254.68 427.06 254.7 427.02 254.71 426.99 254.69 426.96 254.68 426.94 254.68 426.93 254.75 426.95 254.78 426.97 254.85 427 254.86 427.02 254.84 427.04 254.81 427.05 254.76 427.04 254.73 427.08 254.75 427.09 254.78 427.09 254.82 427.1 254.88 427.07 254.89 427.07 254.91 427.08 254.93 427.1 254.94 427.09 254.99 427.11 255.03 427.15 255.05 427.19 255.05 427.18 255.04 427.18 255.04 427.17 255.03 427.21 255.01 427.26 254.96 427.28 254.94 427.26 254.99 427.27 255.04 427.3 255.08 427.31 255.13 427.31 255.23 427.33 255.35 427.31 255.34 427.28 255.33 427.28 255.31 427.28 255.28 427.28 255.26 427.26 255.33 427.26 255.39 427.28 255.42 427.33 255.42 427.32 255.4 427.32 255.4 427.31 255.37 427.36 255.41 427.38 255.46 427.41 255.5 427.43 255.54 427.43 255.57 427.42 255.57 427.41 255.57 427.4 255.58 427.39 255.59 427.42 255.63 427.45 255.58 427.46 255.55 427.44 255.51 427.42 255.46 427.45 255.49 427.49 255.51 427.52 255.53 427.51 255.57 427.54 255.6 427.56 255.62 427.59 255.63 427.63 255.69 427.68 255.74 427.71 255.72 427.7 255.72 427.68 255.72 427.68 255.72 427.68 255.69 427.71 255.69 427.75 255.7 427.77 255.73 427.78 255.76 427.78 255.79 427.76 255.82 427.77 255.84 427.75 255.87 427.74 255.89 427.74 255.91 427.72 255.91 427.71 255.91 427.7 255.95 427.69 256.05 427.68 256.1 427.65 256.15 427.59 256.23 427.58 256.21 427.57 256.18 427.56 256.15 427.54 256.12 427.57 256.05 427.58 256.01 427.57 255.97 427.55 255.96 427.52 255.98 427.5 256.01 427.49 256.03 427.47 256.08 427.47 256.11 427.52 256.13 427.52 256.15 427.5 256.18 427.48 256.19 427.48 256.21 427.5 256.21 427.52 256.22 427.54 256.23 427.52 256.28 427.48 256.31 427.43 256.31 427.39 256.28 427.37 256.24 427.31 256.19 427.27 256.16 427.25 256.15 427.19 256.21 427.19 256.23 427.22 256.23 427.16 256.44 427.15 256.56 427.16 256.7 427.19 256.8 427.21 256.85 427.23 256.87 427.23 256.9 427.22 257.12 427.23 257.26 427.3 257.57 427.31 257.65 427.31 257.67 427.32 257.69 427.35 257.73 427.36 257.75 427.36 257.81 427.38 257.88 427.42 257.99 427.46 258.08 427.52 258.16 427.62 258.25 427.66 258.33 427.73 258.41 427.81 258.48 427.87 258.5 428 258.67 428.07 258.74 428.13 258.79 428.17 258.81 428.27 258.85 428.28 258.85 428.38 258.86 428.42 258.89 428.51 258.96 428.66 259.02 428.68 259.05 428.7 259.08 429.38 259.67 429.64 259.83 429.68 259.85 429.7 259.88 429.81 259.91 429.87 259.95 429.89 259.94 429.9 259.91 429.92 259.9 429.92 259.9 429.93 259.89 429.93 259.89 429.95 259.88 429.96 259.89 429.97 259.9 429.97 259.92 429.98 259.92 430.02 259.95 430.05 260 430.08 260.05 430.1 260.07 430.14 260.08 430.18 260.11 430.2 260.15 430.18 260.19 430.5 261.01 430.54 261.07 430.55 261.09 430.56 261.2 430.57 261.23 430.6 261.27 430.67 261.42 430.7 261.53 430.74 261.78 430.82 262.1 430.91 262.41 430.99 262.62 431.04 262.71 431.17 262.93 431.19 262.98 431.2 263.01 431.52 263.4 431.66 263.52 431.82 263.63 431.89 263.69 431.98 263.84 432.28 264.13 432.35 264.18 432.48 264.23 432.57 264.25 432.61 264.28 432.62 264.32 432.64 264.45 432.65 264.51 432.68 264.55 432.71 264.57 432.73 264.57 432.76 264.58 432.81 264.6 432.89 264.67 432.96 264.71 433.14 264.74 433.24 264.77 433.27 264.8 433.33 264.88 433.35 264.89 433.39 264.91 433.48 264.97 433.52 265 433.57 265 433.62 265.01 433.87 265.01 434.14 265.07 434.24 265.08 434.61 265.01 434.97 265.03 435.53 264.97 435.71 265.01 435.71 265.02 435.78 265.04 435.82 265.12 435.86 265.12 435.86 265.16 435.87 265.22 435.89 265.33 435.89 265.37 435.89 265.42 435.88 265.45 435.84 265.5 435.79 265.54 435.75 265.56 435.7 265.58 435.67 265.61 435.61 265.68 435.53 265.75 435.3 265.87 435.25 265.94 435.23 266.05 435.24 266.17 435.27 266.27 435.32 266.34 435.38 266.4 435.51 266.49 435.66 266.54 435.69 266.56 435.72 266.59 436.13 266.79 436.49 266.98 436.62 267.01 436.66 267.05 436.7 267.08 436.78 267.14 437.31 267.32 437.35 267.36 437.37 267.36 437.37 267.34 437.38 267.34 437.43 267.38 437.81 267.51 438.13 267.69 438.3 267.81 438.37 267.88 438.45 268 438.48 268.02 438.52 268.03 438.6 268.09 438.74 268.24 438.77 268.26 438.82 268.27 438.9 268.33 439.09 268.38 439.11 268.39 439.34 268.48 439.55 268.64 439.73 268.67 439.8 268.71 439.8 268.78 439.83 268.78 439.88 268.76 439.92 268.77 439.92 268.79 439.93 268.81 439.94 268.84 439.99 268.89 440 268.91 439.98 269.04 440.17 269.19 440.37 269.31 440.41 269.32 440.43 269.33 440.47 269.41 440.5 269.43 440.57 269.49 440.63 269.59 440.66 269.63 440.7 269.65 440.72 269.67 440.87 269.88 441.01 270.21 441.02 270.23 441.03 270.24 441.04 270.25 441.03 270.28 441.04 270.3 441.05 270.32 441.04 270.35 441.03 270.38 440.99 270.41 440.97 270.49 440.94 270.52 440.86 270.58 440.81 270.71 440.8 270.74 440.8 270.8 440.78 270.86 440.77 270.89 440.79 270.97 440.79 271 440.76 271.15 440.76 271.18 440.75 271.19 440.73 271.23 440.72 271.24 440.67 271.23 440.65 271.23 440.63 271.22 440.53 271.13 440.49 271.12 440.4 271.12 440.37 271.11 440.31 271.08 440.26 271.05 440.19 270.99 440.11 270.93 440.08 270.92 440.06 270.9 439.92 270.69 439.89 270.66 439.89 270.64 439.92 270.64 439.94 270.62 439.95 270.59 439.94 270.55 439.91 270.52 439.85 270.5 439.83 270.48 439.91 270.44 439.92 270.37 439.89 270.3 439.83 270.23 439.77 270.18 439.74 270.14 439.72 270.1 439.72 270.04 439.72 270 439.7 269.96 439.68 269.93 439.71 269.93 439.71 269.91 439.6 269.83 439.56 269.81 438.82 269.77 438.78 269.76 438.66 269.69 438.64 269.69 438.59 269.7 438.57 269.69 438.55 269.68 438.51 269.64 438.5 269.63 438.46 269.63 438.34 269.55 438.22 269.51 438.16 269.48 438.13 269.44 438.18 269.41 438.22 269.37 438.23 269.33 438.19 269.28 438.23 269.26 438.34 269.28 438.38 269.26 438.4 269.21 438.36 269.21 438.26 269.24 438.27 269.23 438.28 269.22 438.23 269.2 438.19 269.21 438.15 269.24 438.1 269.26 438.09 269.25 438.07 269.22 438.06 269.2 438.05 269.18 438.03 269.17 437.98 269.17 437.96 269.16 437.79 269.15 437.63 269.23 437.49 269.36 437.38 269.52 437.2 269.78 437.15 269.87 437.1 270.04 437.09 270.07 437.05 270.09 436.97 270.23 436.89 270.31 436.85 270.34 436.81 270.41 436.79 270.52 436.8 270.55 436.83 270.66 436.87 270.75 436.84 270.78 436.81 270.81 436.77 270.88 436.67 270.98 436.59 271.12 436.56 271.21 436.55 271.3 436.58 271.38 436.64 271.45 436.64 271.47 436.61 271.54 436.68 271.62 436.78 271.69 436.85 271.73 437.13 271.74 437.2 271.77 437.24 271.79 437.28 271.82 437.31 271.87 437.32 271.91 437.34 271.93 437.48 272 437.58 272.09 437.62 272.1 437.67 272.11 437.71 272.12 437.74 272.16 437.76 272.2 437.81 272.25 437.88 272.31 437.96 272.35 438.04 272.35 437.95 272.55 437.94 272.71 437.94 272.74 437.94 272.78 437.96 272.81 438 272.88 438.01 272.91 437.99 273 437.95 273.17 437.96 273.25 438.01 273.36 438.02 273.38 438.03 273.4 438.11 273.42 438.14 273.43 438.1 273.46 438.07 273.48 438.07 273.5 438.06 273.61 438.07 273.62 437.99 273.69 437.98 273.7 437.97 273.71 437.95 273.74 437.91 273.8 437.89 273.74 437.84 273.73 437.78 273.75 437.73 273.78 437.68 273.71 437.64 273.69 437.59 273.68 437.54 273.68 437.33 273.74 437.08 273.85 436.99 273.92 436.97 273.94 436.95 273.96 436.82 274.03 436.76 274.08 436.74 274.12 436.72 274.2 436.69 274.24 436.66 274.29 436.65 274.36 436.68 274.38 436.68 274.39 436.68 274.44 436.71 274.65 436.75 274.84 436.75 274.92 436.73 275.12 436.71 275.16 436.62 275.24 436.59 275.29 436.57 275.29 436.5 275.35 436.43 275.38 436.22 275.49 436.15 275.55 435.84 275.93 435.8 276.02 435.74 276.32 435.71 276.4 435.69 276.44 435.67 276.47 435.64 276.5 435.61 276.52 435.5 276.54 435.47 276.56 435.34 276.52 434.94 276.54 434.88 276.52 434.82 276.49 434.77 276.46 434.73 276.42 434.68 276.36 434.66 276.3 434.67 276.25 434.71 276.21 434.65 276.12 434.63 276.07 434.64 276.03 434.67 275.98 434.69 275.93 434.68 275.88 434.66 275.81 434.65 275.71 434.69 275.65 434.77 275.62 434.99 275.55 435.01 275.53 435.02 275.51 435.05 275.49 435.06 275.47 435.09 275.34 435.26 275 435.28 274.88 435.28 274.78 435.25 274.7 435.18 274.63 435.16 274.62 435.13 274.6 435.12 274.59 435.1 274.56 435.1 274.55 435.1 274.53 435.1 274.5 435.12 274.47 435.16 274.45 435.26 274.42 435.4 274.32 435.47 274.29 435.57 274.28 435.73 274.3 435.77 274.29 435.8 274.27 435.86 274.22 435.91 274.14 435.94 274.04 435.96 273.92 435.95 273.8 435.94 273.74 435.92 273.7 435.89 273.67 435.84 273.66 435.81 273.64 435.78 273.58 435.65 273.3 435.56 272.63 435.54 272.53 435.46 272.26 435.37 272.15 435.32 272.05 435.26 271.98 435.19 271.94 435.17 271.9 435.16 271.83 435.13 271.76 435.1 271.65 435.06 271.57 435.04 271.53 435 271.24 435 271.25 434.99 271.2 434.98 271.17 434.96 271.15 434.96 271.14 434.98 271.03 434.97 270.96 434.89 270.85 434.88 270.81 434.86 270.75 434.83 270.7 434.75 270.62 434.69 270.52 434.65 270.48 434.63 270.46 434.63 270.43 434.6 270.44 434.44 270.43 434.39 270.45 434.35 270.52 434.27 270.57 434.2 270.65 434.16 270.67 434.05 270.65 434.01 270.64 433.95 270.55 433.92 270.55 433.9 270.56 433.88 270.56 433.85 270.57 433.83 270.57 433.83 270.55 433.87 270.51 433.83 270.44 433.77 270.36 433.71 270.33 433.67 270.31 433.53 270.16 433.5 270.15 433.46 270.15 433.4 270.17 433.35 270.16 433.33 270.14 433.3 270.09 433.26 270.04 433.2 270.02 433.18 270 433.15 269.98 433.11 269.99 433.08 269.96 433.05 269.95 433.04 269.9 433.1 269.83 433.12 269.76 433.1 269.71 433.1 269.69 433.12 269.67 433.15 269.67 433.17 269.65 433.19 269.63 433.24 269.61 433.25 269.58 433.25 269.5 433.2 269.4 433 268.99 432.94 268.89 432.89 268.82 432.83 268.76 432.77 268.71 432.7 268.69 432.63 268.72 432.56 268.77 432.54 268.78 432.42 268.77 432.39 268.78 432.3 268.86 432.24 268.87 432.18 268.86 432.11 268.82 432.08 268.84 431.97 268.87 431.92 268.91 431.82 268.96 431.79 269 431.76 268.96 431.76 268.9 431.78 268.84 431.83 268.82 431.88 268.82 431.89 268.81 431.92 268.79 431.93 268.75 432.02 268.66 432.09 268.64 432.1 268.59 432.08 268.54 432.05 268.49 432.01 268.46 431.97 268.47 431.93 268.46 431.91 268.44 431.88 268.41 431.85 268.39 431.81 268.34 431.73 268.25 431.69 268.22 431.64 268.21 431.58 268.22 431.53 268.24 431.5 268.27 431.48 268.33 431.44 268.33 431.4 268.29 431.33 268.28 431.28 268.25 431.25 268.23 431.22 268.24 431.2 268.27 431.2 268.3 431.21 268.34 431.22 268.38 431.2 268.37 431.14 268.36 431.12 268.34 431.15 268.22 431.13 268.12 431.08 267.98 430.96 267.76 430.88 267.71 430.85 267.68 430.84 267.65 430.84 267.59 430.84 267.56 430.78 267.44 430.7 267.32 430.57 267.14 430.42 267.01 430.39 267 430.32 267.01 430.29 267.01 430.27 266.99 430.13 267.01 430.07 267.05 430.09 267.14 430.02 267.14 430 267.14 429.98 267.12 429.97 267.09 429.96 267.07 429.94 267.1 429.92 267.1 429.88 267.05 429.54 266.88 429.45 266.88 429.27 266.92 429.23 266.93 429.15 266.98 429.07 267.01 429.02 267.08 428.97 267.1 428.92 267.08 428.9 267.04 428.89 266.99 428.87 266.95 428.84 266.91 428.8 266.82 428.77 266.78 428.65 266.63 428.58 266.58 428.51 266.53 428.47 266.52 428.29 266.51 428.26 266.5 428.1 266.4 428.05 266.38 428.02 266.4 428.01 266.43 427.97 266.4 427.81 266.15 427.59 265.89 427.36 265.68 427.33 265.66 427.27 265.64 427.23 265.61 427.21 265.6 427.15 265.59 427.13 265.58 427.1 265.54 427.08 265.49 427.07 265.43 427.07 265.37 427.06 265.31 427.03 265.25 426.98 265.16 426.93 265.09 426.71 264.92 426.69 264.9 426.67 264.88 426.66 264.84 426.65 264.82 426.58 264.81 426.56 264.8 426.53 264.77 426.5 264.73 426.46 264.71 426.42 264.69 426.24 264.69 426.22 264.7 426.21 264.66 426.18 264.6 426.14 264.55 426.11 264.53 426.09 264.48 426.05 264.42 426.04 264.39 426.03 264.35 426.02 264.3 425.9 264.05 425.84 263.97 425.58 263.76 425.47 263.73 425.32 263.65 425.26 263.63 425.26 263.61 425.24 263.6 425.22 263.59 425.19 263.58 425.17 263.59 425.19 263.61 425.12 263.61 424.96 263.55 424.93 263.54 424.89 263.54 424.85 263.55 424.84 263.58 424.83 263.62 424.8 263.67 424.79 263.71 424.77 263.7 424.75 263.7 424.73 263.7 424.73 263.71 424.71 263.69 424.68 263.66 424.62 263.63 424.59 263.6 424.58 263.55 424.58 263.52 424.6 263.48 424.63 263.47 424.7 263.49 424.75 263.49 424.78 263.44 424.8 263.37 424.8 263.29 424.8 263.25 424.75 263.17 424.73 263.12 424.71 263.12 424.69 263.13 424.67 263.14 424.64 263.09 424.62 263.04 424.6 262.99 424.56 262.97 424.56 262.91 424.5 262.87 424.4 262.81 424.38 262.77 424.37 262.72 424.36 262.68 424.34 262.66 424.32 262.65 424.26 262.58 424.14 262.52 423.79 262.4 423.84 262.35 423.86 262.3 423.87 262.25 423.86 262.18 423.87 262.16 423.88 262.14 423.89 262.12 423.88 262.08 423.86 262.05 423.83 262.03 423.68 261.96 423.57 261.93 423.46 261.93 423.36 261.96 423.37 261.99 423.38 262 423.32 262.03 423.27 261.99 423.23 261.84 423.28 261.79 423.31 261.73 423.36 261.57 423.35 261.53 423.35 261.47 423.36 261.4 423.38 261.36 423.36 261.31 423.35 261.25 423.35 261.12 423.34 261.06 423.31 261 423.14 260.63 422.99 260.43 422.96 260.4 422.89 260.36 422.87 260.31 422.82 260.08 422.75 259.35 422.72 259.23 422.63 259.01 422.57 258.9 422.47 258.83 422.4 258.71 422.37 258.68 422.33 258.67 422.25 258.62 422.2 258.6 422.16 258.58 422.14 258.58 422.13 258.59 422.12 258.61 422.11 258.62 422.08 258.62 422.06 258.61 422.03 258.58 421.95 258.52 421.92 258.48 421.89 258.49 421.82 258.43 421.78 258.43 421.8 258.46 421.79 258.46 421.78 258.47 421.77 258.48 421.78 258.5 421.79 258.52 421.81 258.53 421.83 258.54 421.83 258.56 421.82 258.57 421.81 258.58 421.8 258.6 421.83 258.62 421.82 258.64 421.79 258.63 421.78 258.59 421.77 258.57 421.66 258.52 421.55 258.41 421.52 258.4 421.46 258.34 421.44 258.33 421.38 258.32 421.35 258.32 421.33 258.31 421.25 258.22 421.24 258.21 421.22 258.17 421.18 258.15 421.08 258.1 421.06 258.08 421.04 258.05 421.02 258.01 421 258.02 420.96 258.03 420.92 258.03 420.9 258 420.89 257.97 420.78 257.93 420.77 257.86 420.53 257.73 420.46 257.67 420.44 257.7 420.42 257.74 420.42 257.77 420.42 257.82 420.32 257.78 420.28 257.75 420.28 257.72 420.24 257.64 420.18 257.61 419.95 257.57 419.85 257.53 419.78 257.49 419.76 257.5 419.66 257.5 419.61 257.49 419.59 257.48 419.57 257.44 419.42 257.43 419.37 257.44 419.34 257.46 419.28 257.51 419.25 257.54 419.24 257.55 419.22 257.55 419.2 257.54 419.19 257.55 419.05 257.65 419.01 257.65 418.99 257.66 418.93 257.72 418.77 257.83 418.72 257.89 418.73 257.95 418.71 257.98 418.7 258 418.7 258.02 418.69 258.03 418.66 258.05 418.65 258.06 418.63 258.1 418.64 258.13 418.64 258.17 418.61 258.2 418.55 258.23 418.43 258.27 418.36 258.31 418.33 258.34 418.3 258.37 418.25 258.44 418.24 258.47 418.25 258.52 418.24 258.54 418.23 258.59 418.21 258.62 418.11 258.74 418.07 258.81 418.11 258.88 418.11 258.9 418.05 258.91 417.99 258.98 417.93 259.01 417.91 259.02 417.9 259.04 417.9 259.05 417.88 259.08 417.86 259.09 417.8 259.11 417.64 259.21 417.26 259.31 417.15 259.38 417.06 259.4 416.78 259.4 416.72 259.42 416.69 259.42 416.68 259.41 416.65 259.4 416.63 259.4 Z M 427.49 259.06 427.55 259.09 427.62 259.08 427.66 259.02 427.66 259.01 427.66 259 427.66 258.99 427.67 258.98 427.67 258.98 427.69 258.95 427.69 258.9 427.68 258.84 427.67 258.82 427.6 258.83 427.53 258.86 427.51 258.89 427.48 258.92 427.45 258.99 427.49 259.06 Z M 427.6 265.09 427.6 265.09 427.61 265.09 427.61 265.09 427.6 265.09 427.6 265.09 427.6 265.09 Z" fill-rule="evenodd" id="Italy" transform="translate(-414.6400146484375,-249.02999877929688) "/></svg>