<svg xmlns="http://www.w3.org/2000/svg" viewBox="0 0 13.540008544921875 14.17999267578125"><path d="M 392.94 355.64 392.99 355.66 393 355.66 393.01 355.65 393.03 355.67 393.06 355.7 393.09 355.7 393.09 355.7 393.09 355.7 393.08 355.73 393.08 355.73 393.08 355.73 392.99 355.71 392.77 355.69 392.74 355.67 392.75 355.64 392.79 355.6 392.83 355.57 392.89 355.59 392.91 355.6 392.91 355.61 392.92 355.62 392.92 355.63 392.94 355.64 Z M 389.39 345.27 389.41 345.3 389.38 345.32 389.36 345.32 389.34 345.32 389.34 345.33 389.36 345.35 389.36 345.36 389.37 345.38 389.4 345.37 389.43 345.42 389.46 345.41 389.45 345.4 389.44 345.39 389.45 345.38 389.47 345.38 389.5 345.38 389.51 345.39 389.52 345.4 389.53 345.42 389.55 345.44 389.56 345.45 389.56 345.48 389.57 345.5 389.58 345.51 389.61 345.52 389.62 345.53 389.62 345.54 389.62 345.54 389.64 345.53 389.66 345.52 389.67 345.51 389.68 345.49 389.68 345.49 389.71 345.49 389.74 345.48 389.77 345.47 389.79 345.44 389.82 345.46 389.85 345.51 389.88 345.52 389.91 345.51 389.92 345.49 389.92 345.46 389.93 345.42 389.94 345.41 389.94 345.4 389.95 345.4 389.99 345.4 390 345.4 390.02 345.41 390.02 345.42 390.02 345.46 389.99 345.51 389.99 345.55 390.02 345.6 390.09 345.61 390.17 345.6 390.23 345.62 390.25 345.65 390.27 345.72 390.28 345.75 390.31 345.76 390.32 345.74 390.32 345.7 390.32 345.67 390.36 345.68 390.42 345.7 390.42 345.7 390.43 345.69 390.46 345.63 390.47 345.6 390.46 345.55 390.46 345.53 390.47 345.51 390.54 345.44 390.51 345.43 390.5 345.43 390.53 345.4 390.57 345.39 390.66 345.38 390.7 345.36 390.76 345.27 390.8 345.24 390.84 345.23 390.96 345.27 390.99 345.28 391 345.29 391.01 345.28 391.02 345.27 391.02 345.26 391.02 345.25 391.06 345.24 391.07 345.23 391.15 345.23 391.16 345.2 391.17 345.16 391.2 345.15 391.25 345.13 391.33 345.08 391.37 345.07 391.38 345.07 391.52 345.06 391.57 345.05 391.59 345.04 391.62 345 391.64 344.98 391.68 344.97 391.78 344.96 391.8 344.96 391.83 344.98 391.84 344.98 391.86 344.97 391.88 344.95 391.88 344.94 391.91 344.95 391.93 344.97 391.94 344.99 391.97 345 392.01 345.01 392.14 345 392.49 345.02 392.52 345.03 392.55 345.07 392.58 345.08 392.6 345.08 392.62 345.06 392.65 345.05 392.66 345.07 392.65 345.11 392.66 345.16 392.68 345.19 392.73 345.18 392.76 345.15 392.84 345.04 392.87 345.02 392.9 345.04 392.9 345.08 392.9 345.13 392.91 345.18 392.95 345.2 393 345.2 393.05 345.21 393.09 345.27 393.12 345.37 393.14 345.42 393.18 345.46 393.22 345.46 393.3 345.44 393.34 345.45 393.37 345.48 393.4 345.53 393.44 345.64 393.55 345.85 393.77 346.15 393.82 346.18 393.87 346.19 393.92 346.15 393.97 346.04 394.04 345.97 394.07 346.01 394.07 346.04 394.06 346.11 394.07 346.13 394.08 346.17 394.08 346.23 394.06 346.27 394.04 346.28 394.01 346.3 393.99 346.33 393.98 346.37 394 346.4 394.03 346.43 394.07 346.43 394.1 346.45 394.1 346.5 394.07 346.54 394 346.58 393.98 346.62 393.94 346.69 393.89 346.74 393.88 346.76 393.88 346.87 393.87 346.91 393.85 346.94 393.87 346.95 393.89 346.97 393.9 346.98 393.93 346.98 393.99 346.99 394.05 347 394.1 347.03 394.12 347.06 394.12 347.11 394.15 347.21 394.17 347.22 394.18 347.23 394.19 347.23 394.2 347.25 394.2 347.29 394.25 347.45 394.24 347.48 394.22 347.49 394.2 347.5 394.2 347.53 394.21 347.55 394.21 347.55 394.23 347.54 394.24 347.58 394.34 348.2 394.44 348.82 394.43 348.86 394.33 348.91 394.3 348.92 394.27 348.92 394.25 348.91 394.23 348.91 394.21 348.92 394.2 348.95 394.19 348.99 394.19 349.01 394.22 349.08 394.24 349.13 394.24 349.17 394.21 349.2 394.17 349.22 394.04 349.27 393.99 349.29 393.89 349.41 393.86 349.44 393.85 349.43 393.84 349.42 393.83 349.41 393.81 349.41 393.81 349.43 393.8 349.6 393.79 349.62 393.77 349.64 393.72 349.67 393.7 349.69 393.7 349.7 393.71 349.73 393.71 349.74 393.7 349.75 393.68 349.78 393.67 349.8 393.51 350.14 393.48 350.23 393.37 350.91 393.37 350.93 393.39 350.96 393.4 350.98 393.41 351 393.41 351.03 393.39 351.07 393.29 351.2 393.28 351.22 393.26 351.33 393.25 351.35 393.14 351.39 393.14 351.39 393.13 351.39 393.11 351.4 392.85 351.84 392.81 351.93 392.81 352.01 392.82 352.03 392.85 352.07 392.88 352.12 392.88 352.14 392.84 352.26 392.83 352.27 392.79 352.3 392.77 352.32 392.77 352.36 392.94 353.14 392.97 353.17 392.98 353.18 393.04 353.24 393.09 353.36 393.16 353.73 393.19 353.81 393.27 353.96 393.3 354.04 393.31 354.12 393.28 354.38 393.43 354.37 393.41 354.5 393.42 354.56 393.47 354.59 393.51 354.58 393.59 354.54 393.62 354.53 393.78 354.57 393.81 354.59 393.83 354.62 393.83 354.65 393.84 354.77 393.88 354.93 393.94 355.07 393.95 355.11 393.94 355.15 393.92 355.18 393.89 355.18 393.82 355.17 393.8 355.3 393.81 355.33 393.84 355.38 393.85 355.4 393.85 355.42 393.84 355.47 393.84 355.49 393.85 355.5 393.88 355.52 393.89 355.54 393.87 355.58 393.84 355.6 393.78 355.61 393.7 355.6 393.69 355.54 393.62 355.53 393.53 355.54 393.47 355.54 393.49 355.59 393.48 355.63 393.44 355.67 393.4 355.68 393.36 355.67 393.25 355.62 393.21 355.59 393.17 355.6 393.08 355.6 393.04 355.62 393.02 355.58 392.99 355.53 392.95 355.49 392.91 355.47 392.9 355.45 392.92 355.42 392.95 355.38 392.97 355.38 392.98 355.35 392.98 355.28 393 355.25 393.03 355.24 393.05 355.23 393.07 355.22 393.07 355.17 393.07 355.14 393.05 355.12 393.03 355.12 392.99 355.12 392.98 355.12 392.97 355.13 392.95 355.15 392.93 355.15 392.91 355.15 392.88 355.14 392.86 355.13 392.84 355.14 392.8 355.17 392.77 355.18 392.79 355.23 392.8 355.28 392.79 355.31 392.72 355.31 392.73 355.33 392.73 355.35 392.72 355.36 392.71 355.38 392.73 355.39 392.74 355.39 392.72 355.39 392.74 355.4 392.77 355.41 392.79 355.41 392.82 355.41 392.82 355.42 392.8 355.43 392.76 355.43 392.74 355.44 392.72 355.45 392.7 355.47 392.69 355.49 392.68 355.51 392.65 355.5 392.64 355.51 392.64 355.53 392.68 355.54 392.67 355.57 392.68 355.59 392.71 355.6 392.74 355.6 392.66 355.67 392.51 355.66 391.95 355.54 391.85 355.54 391.78 355.52 391.76 355.52 391.75 355.51 391.75 355.49 391.76 355.47 391.76 355.45 391.73 355.44 391.75 355.41 391.73 355.43 391.71 355.45 391.7 355.49 391.69 355.51 391.68 355.51 391.65 355.5 391.61 355.49 391.52 355.5 391.49 355.49 391.39 355.44 391.23 355.42 391.16 355.39 391.13 355.35 391.17 355.36 391.22 355.35 391.26 355.33 391.28 355.3 391.31 355.34 391.33 355.36 391.35 355.36 391.36 355.36 391.37 355.34 391.37 355.33 391.36 355.31 391.36 355.3 391.39 355.31 391.46 355.34 391.48 355.34 391.5 355.33 391.55 355.35 391.63 355.39 391.63 355.38 391.62 355.36 391.62 355.35 391.65 355.35 391.71 355.35 391.73 355.35 391.76 355.31 391.75 355.29 391.72 355.27 391.71 355.25 391.68 355.17 391.68 355.14 391.67 355.12 391.65 355.11 391.63 355.11 391.6 355.12 391.59 355.11 391.57 355.1 391.55 355.11 391.54 355.13 391.55 355.14 391.59 355.17 391.65 355.25 391.68 355.28 391.72 355.3 391.7 355.33 391.67 355.33 391.63 355.32 391.6 355.33 391.58 355.33 391.56 355.3 391.54 355.29 391.51 355.29 391.48 355.29 391.46 355.28 391.43 355.26 391.41 355.24 391.4 355.21 391.39 355.22 391.38 355.23 391.37 355.24 391.36 355.22 391.36 355.21 391.35 355.19 391.36 355.16 391.34 355.16 391.34 355.2 391.33 355.22 391.31 355.24 391.28 355.23 391.26 355.24 391.24 355.24 391.21 355.24 391.19 355.23 391.14 355.23 391.11 355.24 391.13 355.26 391.17 355.27 391.21 355.27 391.23 355.25 391.27 355.29 391.24 355.31 391.2 355.33 391.16 355.34 391.12 355.32 391.09 355.31 391.04 355.29 391 355.27 390.98 355.28 390.96 355.3 390.92 355.29 390.86 355.25 390.83 355.26 390.8 355.28 390.78 355.29 390.75 355.27 390.74 355.28 390.72 355.28 390.7 355.27 390.69 355.25 390.63 355.3 390.6 355.31 390.57 355.3 390.57 355.29 390.58 355.26 390.58 355.25 390.52 355.24 390.5 355.25 390.47 355.27 390.46 355.26 390.44 355.25 390.42 355.25 390.41 355.28 390.37 355.31 390.35 355.33 390.34 355.32 390.31 355.29 390.28 355.28 390.26 355.27 390.24 355.28 390.22 355.3 390.19 355.31 390.17 355.29 390.18 355.28 390.18 355.28 390.18 355.28 390.19 355.27 390.11 355.27 390.07 355.29 390.07 355.33 390.09 355.32 390.11 355.32 390.12 355.34 390.13 355.36 390.09 355.35 389.93 355.35 389.92 355.32 389.91 355.31 389.88 355.27 389.87 355.29 389.87 355.31 389.88 355.32 389.9 355.33 389.9 355.35 389.86 355.35 389.83 355.37 389.78 355.41 389.74 355.38 389.69 355.38 389.65 355.4 389.63 355.42 389.61 355.42 389.6 355.42 389.58 355.4 389.56 355.39 389.55 355.38 389.58 355.37 389.6 355.37 389.62 355.38 389.65 355.38 389.65 355.36 389.64 355.34 389.63 355.33 389.61 355.33 389.61 355.31 389.63 355.3 389.65 355.29 389.65 355.27 389.65 355.24 389.64 355.24 389.61 355.29 389.58 355.32 389.53 355.33 389.47 355.33 389.53 355.38 389.49 355.42 389.41 355.45 389.35 355.48 389.34 355.51 389.34 355.54 389.36 355.55 389.4 355.56 389.44 355.56 389.48 355.55 389.5 355.54 389.49 355.51 389.49 355.5 389.54 355.48 389.57 355.47 389.58 355.48 389.59 355.49 389.61 355.5 389.64 355.49 389.68 355.47 389.72 355.47 389.78 355.47 389.81 355.47 389.82 355.48 389.83 355.49 389.84 355.5 389.87 355.5 389.89 355.5 389.94 355.48 389.92 355.49 389.89 355.48 389.87 355.47 389.87 355.45 389.88 355.44 389.96 355.42 389.96 355.45 389.97 355.45 390.02 355.43 390.15 355.44 390.22 355.41 390.23 355.44 390.25 355.43 390.26 355.4 390.28 355.38 390.32 355.38 390.35 355.39 390.38 355.4 390.41 355.38 390.46 355.39 390.5 355.39 390.54 355.37 390.63 355.35 390.69 355.32 390.73 355.31 391 355.31 391.07 355.33 391.05 355.34 391.03 355.35 391 355.35 390.98 355.35 391.14 355.42 390.45 355.48 389.76 355.53 389.39 355.62 389.19 355.63 389.15 355.65 389.13 355.64 389.1 355.63 388.99 355.63 388.96 355.63 388.96 355.62 388.96 355.62 388.98 355.62 388.99 355.62 388.99 355.6 388.92 355.61 388.91 355.58 388.91 355.54 388.89 355.5 388.92 355.46 388.9 355.46 388.77 355.47 388.73 355.48 388.7 355.5 388.67 355.53 388.63 355.5 388.57 355.47 388.49 355.45 388.43 355.47 388.42 355.46 388.4 355.45 388.4 355.44 388.39 355.44 388.38 355.44 388.36 355.46 388.32 355.45 388.27 355.43 388.24 355.44 388.23 355.44 388.2 355.43 388.19 355.43 388.19 355.46 388.2 355.48 388.19 355.48 388.17 355.47 388.17 355.49 388.17 355.5 388.19 355.49 388.19 355.5 388.2 355.51 388.2 355.51 388.21 355.51 388.23 355.5 388.26 355.5 388.26 355.51 388.24 355.53 388.19 355.56 388.17 355.57 388.17 355.53 388.14 355.62 388.12 355.65 388.05 355.54 388.03 355.54 388.03 355.55 388.03 355.57 388 355.56 388.03 355.62 388.12 355.66 388.23 355.67 388.32 355.65 388.28 355.62 388.25 355.62 388.21 355.63 388.17 355.62 388.17 355.6 388.19 355.61 388.21 355.6 388.22 355.6 388.24 355.59 388.25 355.58 388.28 355.55 388.29 355.54 388.32 355.55 388.36 355.57 388.39 355.58 388.43 355.56 388.45 355.57 388.48 355.58 388.5 355.57 388.52 355.54 388.48 355.55 388.46 355.53 388.44 355.51 388.41 355.5 388.41 355.48 388.44 355.5 388.51 355.49 388.65 355.57 388.71 355.55 388.74 355.53 388.77 355.52 388.84 355.53 388.85 355.55 388.86 355.58 388.88 355.62 388.91 355.65 388.35 355.67 388.26 355.7 387.82 355.72 387.75 355.71 387.7 355.68 387.63 355.73 387.68 355.74 387.7 355.74 387.52 355.79 387.03 355.87 387.01 355.87 386.76 355.95 386.73 355.97 386.71 355.99 386.68 355.99 386.57 356.03 386.39 356.12 385.79 356.32 385.77 356.34 385.75 356.37 385.72 356.39 385.49 356.45 385.44 356.45 385.41 356.46 385.35 356.52 385.31 356.54 385.03 356.62 384.81 356.64 384.75 356.67 384.7 356.68 384.67 356.69 384.61 356.77 384.49 356.87 384.35 356.95 384.26 356.98 384.1 357 383.97 357.05 383.94 357.07 383.92 357.11 383.89 357.12 383.87 357.12 383.84 357.13 383.81 357.16 383.69 357.22 383.51 357.37 383.47 357.38 383.42 357.38 383.32 357.36 383.28 357.36 383.21 357.31 383.2 357.29 383.2 357.27 383.23 357.22 383.23 357.2 383.23 357.18 383.21 357.14 383.22 357.08 383.21 357.06 383.21 357.04 383.2 357.02 383.21 356.55 383.2 356.43 383.2 356.41 383.19 356.39 383.17 356.38 383.15 356.37 383.14 356.34 383.14 356.34 383.14 356.32 383.15 356.27 383.16 356.25 383.14 356.18 383.14 356.16 383.21 356.11 383.24 356.11 383.26 356.12 383.27 356.12 383.27 356.09 383.25 356.05 383.23 356.02 383.22 355.99 383.22 355.94 383.22 355.94 383.2 355.81 383.21 355.77 383.23 355.73 383.27 355.72 383.31 355.72 383.34 355.73 383.4 355.62 383.41 355.58 383.41 355.55 383.4 355.44 383.42 355.37 383.43 355.35 383.45 355.33 383.5 355.3 383.51 355.29 383.53 355.3 383.53 355.31 383.52 355.32 383.52 355.33 383.53 355.34 383.53 355.36 383.53 355.37 383.56 355.36 383.57 355.34 383.57 355.31 383.58 355.29 383.61 355.26 383.62 355.23 383.62 355.21 383.62 355.17 383.6 355.12 383.59 355.12 383.56 355.13 383.53 355.11 383.51 355.08 383.49 355.04 383.49 355 383.49 354.96 383.52 354.98 383.53 354.96 383.52 354.87 383.54 354.84 383.57 354.82 383.58 354.8 383.57 354.8 383.55 354.78 383.57 354.78 383.61 354.78 383.58 354.74 383.57 354.7 383.59 354.67 383.63 354.68 383.6 354.64 383.56 354.55 383.53 354.49 383.49 354.32 383.49 354.23 383.5 354.14 383.49 354.06 383.42 354.03 383.42 354.1 383.4 354.13 383.39 354.15 383.37 354.14 383.36 354.11 383.34 354.08 383.31 354.07 383.31 354.04 383.3 354.04 383.27 354.06 383.24 354.08 383.23 354.07 383.2 354.03 383.18 354.02 383.2 353.99 383.19 353.98 383.14 353.96 383.13 353.96 383.09 353.93 383.09 353.93 383.05 353.92 383.01 353.89 382.99 353.87 382.97 353.85 382.95 353.88 382.92 353.93 382.89 353.94 382.85 353.89 382.83 353.86 382.74 353.82 382.71 353.78 382.71 353.76 382.71 353.7 382.72 353.69 382.74 353.68 382.74 353.67 382.73 353.65 382.72 353.65 382.71 353.64 382.7 353.64 382.7 353.59 382.69 353.57 382.67 353.55 382.65 353.54 382.62 353.55 382.6 353.56 382.6 353.57 382.57 353.54 382.57 353.5 382.57 353.45 382.58 353.4 382.61 353.32 382.61 353.29 382.57 353.24 382.47 353.17 382.47 353.15 382.46 353.13 382.46 353.12 382.44 353.12 382.43 353.12 382.42 353.12 382.41 353.12 382.27 353.09 382.23 353.06 382.19 353.05 382.13 353.06 382.03 353.07 382 353.08 381.96 353.11 381.92 353.12 381.89 353.12 381.87 353.11 381.86 353.1 381.83 353.09 381.8 353.08 381.63 353.04 381.61 353.03 381.61 353.02 381.61 353 381.61 352.99 381.6 352.97 381.58 352.96 381.57 352.97 381.56 352.98 381.55 352.98 381.53 352.96 381.51 352.93 381.48 352.92 381.46 352.95 381.43 352.94 381.4 352.94 381.38 352.95 381.35 352.97 381.33 352.94 381.34 352.93 381.36 352.92 381.37 352.9 381.36 352.88 381.34 352.84 381.34 352.82 381.35 352.78 381.37 352.77 381.37 352.76 381.34 352.72 381.27 352.69 381.24 352.65 381.23 352.64 381.22 352.66 381.21 352.7 381.19 352.75 381.16 352.77 381.12 352.75 381.06 352.67 381.03 352.64 381.01 352.64 380.95 352.64 380.93 352.63 380.9 352.63 380.95 352.56 380.96 352.56 380.99 352.55 381 352.55 381 352.54 381.01 352.51 381.01 352.5 381.01 352.5 381.05 352.48 381.05 352.48 381.08 352.45 381.24 352.32 381.29 352.27 381.49 352.05 381.52 352 381.55 351.94 381.56 351.87 381.57 351.84 381.57 351.81 381.56 351.8 381.54 351.78 381.53 351.77 381.56 351.71 381.56 351.67 381.55 351.64 381.56 351.6 381.57 351.58 381.61 351.54 381.63 351.52 381.64 351.47 381.6 351.26 381.6 351.2 381.59 351.18 381.58 351.16 381.54 351.13 381.54 351.11 381.53 351.1 381.54 351.07 381.54 351.06 381.53 351.04 381.5 351 381.49 350.99 381.47 350.92 381.46 350.89 381.42 350.84 381.41 350.81 381.4 350.77 381.37 350.55 381.32 350.39 381.28 350.32 381.19 350.27 381.29 350.18 381.35 350.15 381.4 350.21 381.44 350.2 381.52 350.18 381.59 350.2 381.68 350.26 381.76 350.3 381.82 350.23 381.82 350.21 381.82 350.18 381.82 350.16 381.83 350.14 381.87 350.08 381.88 350.07 381.91 350.06 381.92 350.05 381.92 350.04 381.91 350.02 381.91 350.01 381.98 349.93 381.99 349.89 382 349.82 382.01 349.78 382.02 349.77 382.04 349.76 382.05 349.75 382.05 349.73 382.04 349.7 381.99 349.66 381.98 349.64 381.98 349.55 382.09 349.38 382.11 349.3 382.12 349.24 382.11 349.22 382.15 349.22 382.24 349.21 382.26 349.22 382.28 349.23 382.31 349.25 382.35 349.25 382.34 349.23 382.34 349.21 382.31 349.16 382.27 349.12 382.23 349.09 382.22 349.06 382.22 349.03 382.23 348.96 382.25 348.93 382.26 348.9 382.26 348.88 382.23 348.88 382.1 348.92 382.08 348.93 381.86 348.86 381.68 348.74 381.68 348.72 381.72 348.68 381.72 348.65 381.72 348.61 381.72 348.57 381.75 348.44 381.74 348.4 381.73 348.37 381.71 348.35 381.7 348.32 381.7 348.29 381.72 348.28 381.82 348.19 381.85 348.19 381.93 348.21 381.98 348.2 382.05 348.17 382.1 348.17 382.12 348.17 382.14 348.2 382.15 348.2 382.17 348.2 382.21 348.2 382.23 348.2 382.3 348.19 382.33 348.18 382.36 348.19 382.39 348.21 382.41 348.24 382.42 348.27 382.44 348.3 382.46 348.32 382.49 348.34 382.53 348.35 382.56 348.35 382.6 348.33 382.61 348.3 382.6 348.27 382.61 348.23 382.66 348.22 382.7 348.29 382.77 348.43 382.82 348.46 382.89 348.47 383.01 348.45 382.97 348.36 382.95 348.31 382.96 348.26 382.98 348.2 382.98 348.16 382.95 348.07 382.95 348.02 382.95 347.94 382.94 347.9 382.92 347.88 382.86 347.84 382.84 347.81 382.79 347.72 382.77 347.7 382.73 347.66 382.72 347.65 382.7 347.62 382.69 347.61 382.67 347.61 382.65 347.62 382.64 347.62 382.51 347.58 382.46 347.58 382.36 347.55 382.34 347.48 382.38 347.29 382.39 347.18 382.4 347.12 382.42 347.07 382.42 347.07 382.42 347.07 382.42 347.07 382.45 347.03 382.65 346.93 382.69 346.93 382.74 346.93 382.79 346.92 382.82 346.89 382.83 346.89 382.8 346.86 382.71 346.81 382.66 346.77 382.63 346.74 382.6 346.69 382.59 346.68 382.56 346.69 382.54 346.7 382.42 346.65 382.42 346.57 382.5 346.38 382.51 346.33 382.57 346.15 382.55 346.13 382.46 346.13 382.42 346.14 382.33 346.19 382.29 346.2 382.24 346.21 382.2 346.2 382.15 346.19 382.11 346.18 382.07 346.14 381.94 345.95 381.93 345.92 381.92 345.88 381.91 345.83 381.91 345.78 381.91 345.76 381.99 345.18 381.98 345.13 381.94 345.13 381.93 345.13 381.92 345.11 381.93 345.1 381.94 345.1 381.94 345.09 381.94 345.08 381.94 345.04 381.93 345.03 381.91 345.03 381.9 345.03 381.89 345.02 381.89 345 381.88 344.98 381.88 344.96 381.93 344.94 381.96 344.92 381.96 344.9 381.94 344.89 381.92 344.86 381.94 344.81 381.98 344.75 382.03 344.71 382.14 344.67 382.19 344.64 382.23 344.58 382.24 344.55 382.25 344.52 382.27 344.49 382.29 344.47 382.33 344.48 382.38 344.48 382.42 344.47 382.46 344.45 382.51 344.42 382.53 344.4 382.58 344.4 382.6 344.39 382.62 344.37 382.65 344.36 382.7 344.29 382.71 344.27 382.72 344.25 382.73 344.24 382.75 344.23 382.76 344.21 382.76 344.18 382.79 344.13 382.76 344.09 382.8 344.08 382.85 344.05 382.88 344.02 382.85 343.98 382.87 343.97 382.88 343.97 382.88 343.95 382.91 343.93 382.93 343.93 382.96 343.93 382.98 343.92 382.99 343.9 383 343.87 383.01 343.85 383.06 343.84 383.14 343.89 383.19 343.9 383.21 343.9 383.25 343.9 383.27 343.89 383.29 343.87 383.34 343.81 383.37 343.8 383.4 343.81 383.42 343.82 383.44 343.84 383.45 343.87 383.45 343.9 383.45 343.92 383.45 343.94 383.46 343.96 383.5 344.02 383.5 344.05 383.5 344.07 383.5 344.08 383.53 344.08 383.55 344.08 383.61 344.06 383.66 344.06 383.67 344.09 383.66 344.18 383.66 344.24 383.68 344.27 383.71 344.28 383.85 344.28 384.03 344.31 384.25 344.37 384.29 344.39 384.32 344.43 384.35 344.48 384.39 344.52 384.45 344.52 384.5 344.5 384.55 344.46 384.57 344.42 384.57 344.36 384.55 344.33 384.52 344.31 384.49 344.29 384.49 344.26 384.54 344.09 384.57 344.06 384.62 344.05 384.74 344.07 384.79 344.06 384.92 344 384.97 344 385.01 344.01 385.1 344.06 385.15 344.07 385.2 344.05 385.22 344.02 385.22 344.01 385.23 343.94 385.24 343.92 385.25 343.91 385.26 343.89 385.26 343.86 385.25 343.85 385.23 343.84 385.2 343.83 385.19 343.82 385.16 343.78 385.15 343.74 385.18 343.67 385.19 343.56 385.18 343.55 385.17 343.53 385.17 343.51 385.17 343.47 385.18 343.43 385.19 343.43 385.22 343.37 385.22 343.37 385.27 343.35 385.29 343.37 385.34 343.45 385.37 343.48 385.42 343.51 385.51 343.56 385.54 343.57 385.66 343.59 385.71 343.59 385.77 343.58 385.81 343.56 385.82 343.5 385.8 343.48 385.77 343.47 385.75 343.45 385.73 343.42 385.74 343.34 385.75 343.29 385.79 343.28 385.84 343.27 385.89 343.28 385.94 343.28 385.99 343.26 386.03 343.23 386.08 343.21 386.13 343.2 386.16 343.22 386.16 343.25 386.15 343.34 386.15 343.36 386.2 343.37 386.22 343.39 386.24 343.4 386.25 343.42 386.24 343.45 386.21 343.46 386.19 343.47 386.17 343.49 386.18 343.52 386.19 343.55 386.19 343.58 386.17 343.6 386.13 343.63 386.12 343.65 386.12 343.68 386.13 343.69 386.15 343.68 386.17 343.68 386.18 343.69 386.19 343.71 386.21 343.72 386.22 343.73 386.25 343.72 386.27 343.72 386.28 343.73 386.29 343.75 386.28 343.77 386.26 343.81 386.26 343.83 386.26 343.85 386.3 343.89 386.27 343.96 386.26 344 386.29 344.03 386.24 344.09 386.24 344.1 386.24 344.11 386.25 344.12 386.24 344.14 386.22 344.14 386.21 344.14 386.2 344.13 386.19 344.12 386.17 344.15 386.16 344.18 386.17 344.27 386.2 344.26 386.23 344.28 386.27 344.33 386.3 344.35 386.47 344.41 386.66 344.41 386.71 344.36 386.73 344.32 386.75 344.27 386.76 344.22 386.78 344.2 386.89 344.23 386.91 344.21 386.9 344.09 386.91 344.05 386.94 344.01 386.97 343.99 387.13 343.91 387.41 343.84 387.54 343.83 387.6 343.81 387.62 343.81 387.65 343.82 387.7 343.86 387.76 343.88 387.8 343.9 387.84 343.95 387.86 344.01 387.87 344.05 387.9 344.06 387.91 344.06 387.93 344.06 387.95 344.07 387.96 344.09 387.96 344.11 387.97 344.12 387.99 344.14 388.02 344.16 388.06 344.17 388.11 344.17 388.12 344.16 388.13 344.15 388.13 344.14 388.14 344.15 388.15 344.15 388.17 344.15 388.19 344.15 388.22 344.15 388.23 344.13 388.24 344.12 388.26 344.11 388.3 344.11 388.4 344.12 388.43 344.11 388.54 344.18 388.56 344.18 388.58 344.15 388.62 344.15 388.65 344.17 388.65 344.17 388.67 344.21 388.67 344.33 388.66 344.34 388.65 344.36 388.66 344.36 388.68 344.37 388.7 344.36 388.71 344.35 388.72 344.34 388.73 344.32 388.74 344.37 388.72 344.41 388.72 344.43 388.77 344.43 388.76 344.47 388.77 344.49 388.83 344.53 388.83 344.55 388.78 344.57 388.76 344.58 388.78 344.58 388.79 344.59 388.81 344.59 388.82 344.6 388.79 344.61 388.81 344.64 388.83 344.64 388.86 344.63 388.88 344.61 388.89 344.65 388.92 344.67 388.95 344.69 388.97 344.71 389 344.74 389.01 344.78 389 344.81 388.96 344.81 388.97 344.84 388.99 344.87 389.02 344.92 389.02 344.93 388.99 345.03 388.99 345.05 389.06 345.11 389.08 345.12 389.09 345.1 389.1 345.08 389.12 345.07 389.14 345.08 389.15 345.09 389.16 345.1 389.18 345.1 389.23 345.11 389.27 345.12 389.31 345.15 389.32 345.2 389.36 345.18 389.38 345.22 389.39 345.27 Z" fill-rule="evenodd" id="Ivory Coast" transform="translate(-380.8999938964844,-343.20001220703125) "/></svg>