<svg xmlns="http://www.w3.org/2000/svg" viewBox="0 0 4.8499908447265625 1.910003662109375"><path d="M 230.95 326.63 230.96 326.67 230.98 326.71 231.01 326.77 231.06 326.81 231.12 326.86 231.09 326.88 230.98 326.9 230.9 326.95 230.85 326.96 230.81 326.95 230.83 326.94 230.83 326.93 230.84 326.9 230.8 326.92 230.77 326.97 230.73 326.98 230.69 326.97 230.65 326.95 230.61 326.94 230.55 326.97 230.37 326.98 230.25 326.97 230.23 326.97 230.22 326.97 230.2 326.97 230.17 326.95 230.16 326.93 230.16 326.9 230.15 326.88 230.14 326.87 230.12 326.87 230.11 326.85 230.1 326.84 230.08 326.82 230.02 326.81 230 326.8 229.96 326.79 229.92 326.79 229.84 326.81 229.8 326.81 229.69 326.81 229.69 326.79 229.93 326.78 229.92 326.76 229.91 326.75 229.88 326.75 229.81 326.74 229.76 326.75 229.72 326.72 229.68 326.69 229.65 326.68 229.64 326.7 229.63 326.73 229.6 326.76 229.6 326.78 229.57 326.77 229.56 326.79 229.55 326.84 229.51 326.98 229.48 327.02 229.44 327.05 229.42 327.05 229.4 327.04 229.38 327.03 229.35 327.02 229.23 327.02 229.23 327 229.28 326.98 229.25 326.96 229.22 326.92 229.2 326.9 229.17 326.89 229.11 326.89 229.05 326.91 229 326.94 228.97 327.01 228.96 327.03 228.97 327.09 228.96 327.1 228.93 327.12 228.91 327.12 228.92 327.14 228.92 327.16 228.93 327.17 228.91 327.16 228.88 327.16 228.86 327.17 228.84 327.19 228.88 327.21 228.92 327.22 228.96 327.22 229 327.2 229.03 327.29 229.02 327.33 228.97 327.35 228.92 327.35 228.88 327.34 228.84 327.32 228.65 327.14 228.61 327.09 228.44 327 228.39 326.98 228.34 326.97 228.3 326.99 228.25 327.02 228.2 327.03 228.11 327 228.01 326.98 227.71 327 227.7 327 227.65 326.97 227.57 326.93 227.55 326.91 227.54 326.89 227.52 326.83 227.52 326.82 227.51 326.8 227.47 326.79 227.46 326.78 227.45 326.73 227.46 326.67 227.44 326.62 227.39 326.6 227.23 326.6 227.2 326.59 227.14 326.46 227.13 326.44 227.11 326.43 227.09 326.42 227.07 326.41 227.05 326.4 227.04 326.37 227.03 326.32 226.99 326.23 226.93 326.2 226.77 326.21 226.67 326.19 226.63 326.19 226.61 326.21 226.6 326.22 226.58 326.21 226.53 326.19 226.52 326.19 226.49 326.18 226.42 326.16 226.38 326.16 226.34 326.15 226.31 326.12 226.28 326.09 226.27 326.05 226.28 326.03 226.31 326 226.33 325.98 226.34 325.95 226.33 325.88 226.34 325.86 226.35 325.84 226.36 325.82 226.36 325.81 226.4 325.81 226.42 325.79 226.44 325.77 226.46 325.75 226.5 325.76 226.52 325.69 226.59 325.63 226.67 325.6 226.72 325.65 226.76 325.61 226.79 325.61 226.83 325.62 226.88 325.63 227.03 325.62 227.08 325.62 227.1 325.63 227.12 325.63 227.14 325.64 227.17 325.63 227.19 325.62 227.19 325.6 227.19 325.58 227.2 325.56 227.25 325.5 227.28 325.48 227.32 325.46 227.41 325.44 227.51 325.45 227.69 325.49 227.84 325.52 228.06 325.52 228.15 325.55 228.31 325.56 228.37 325.57 228.41 325.6 228.48 325.58 228.6 325.58 228.71 325.6 228.79 325.62 228.8 325.63 228.81 325.66 228.82 325.67 228.83 325.67 228.85 325.66 228.85 325.65 228.85 325.65 228.95 325.67 228.96 325.67 229 325.71 229.01 325.71 229.08 325.72 229.16 325.7 229.2 325.7 229.23 325.7 229.27 325.72 229.3 325.73 229.43 325.72 229.46 325.71 229.49 325.71 229.52 325.71 229.55 325.71 229.57 325.73 229.56 325.76 229.56 325.79 229.58 325.81 229.66 325.86 229.73 325.9 229.74 325.92 229.76 325.98 229.78 326 229.8 326.02 229.84 326.03 229.95 326.04 229.99 326.05 230.02 326.06 230.07 326.11 230.1 326.13 230.14 326.14 230.21 326.13 230.25 326.16 230.26 326.16 230.27 326.17 230.29 326.18 230.3 326.19 230.47 326.19 230.48 326.19 230.5 326.23 230.51 326.24 230.67 326.27 230.76 326.3 230.77 326.35 230.83 326.41 230.88 326.48 230.95 326.63 Z" id="Jamaica" transform="translate(-226.27000427246094,-325.44000244140625) "/></svg>