<svg xmlns="http://www.w3.org/2000/svg" viewBox="0 0 68.82000732421875 57.95001220703125"><path d="M 713.59 311.98 713.58 311.98 713.56 311.97 713.55 311.96 713.57 311.95 713.59 311.95 713.59 311.97 713.59 311.98 Z M 741.33 311.81 741.32 311.81 741.3 311.81 741.31 311.8 741.33 311.78 741.33 311.79 741.33 311.81 Z M 741.29 311.75 741.26 311.79 741.24 311.74 741.26 311.73 741.29 311.75 Z M 674.4 311.51 674.46 311.55 674.5 311.54 674.58 311.55 674.67 311.58 674.72 311.61 674.72 311.67 674.68 311.75 674.59 311.87 674.54 311.88 674.3 311.82 674.17 311.81 674.13 311.78 674.17 311.71 674.17 311.72 674.18 311.73 674.2 311.73 674.22 311.7 674.24 311.71 674.27 311.73 674.3 311.72 674.31 311.7 674.32 311.62 674.35 311.53 674.35 311.51 674.36 311.49 674.37 311.48 674.39 311.49 674.4 311.51 Z M 672.66 311.35 672.69 311.36 672.69 311.39 672.67 311.41 672.65 311.43 672.62 311.42 672.53 311.43 672.51 311.42 672.51 311.4 672.53 311.37 672.55 311.35 672.58 311.36 672.66 311.35 Z M 675.44 311.42 675.43 311.53 675.4 311.62 675.34 311.68 675.26 311.69 675.18 311.67 675.14 311.62 675.18 311.57 675.16 311.55 675.15 311.52 675.14 311.49 675.1 311.48 675.06 311.48 675.04 311.46 675.04 311.44 675.08 311.43 675.09 311.42 675.12 311.38 675.12 311.37 675.15 311.36 675.16 311.37 675.16 311.39 675.18 311.4 675.19 311.42 675.21 311.43 675.24 311.43 675.29 311.43 675.31 311.43 675.34 311.42 675.36 311.38 675.38 311.34 675.4 311.3 675.44 311.28 675.46 311.26 675.53 311.12 675.56 311.08 675.58 311.07 675.6 311.08 675.6 311.12 675.59 311.14 675.57 311.16 675.55 311.2 675.47 311.32 675.44 311.42 Z M 713.22 310.72 713.19 310.74 713.19 310.66 713.2 310.62 713.21 310.59 713.24 310.58 713.28 310.57 713.32 310.58 713.34 310.59 713.36 310.61 713.34 310.62 713.31 310.63 713.28 310.64 713.26 310.66 713.22 310.72 Z M 677.54 310.55 677.46 310.56 677.42 310.55 677.39 310.52 677.4 310.49 677.42 310.48 677.43 310.48 677.44 310.45 677.45 310.43 677.48 310.42 677.51 310.44 677.53 310.45 677.55 310.47 677.56 310.52 677.54 310.55 Z M 677.88 310.6 677.89 310.61 677.94 310.6 677.98 310.61 678.03 310.64 678.07 310.67 678.09 310.69 678.07 310.71 678.02 310.72 677.93 310.74 677.75 310.74 677.66 310.72 677.65 310.68 677.66 310.65 677.69 310.51 677.69 310.42 677.68 310.4 677.66 310.35 677.67 310.36 677.69 310.36 677.72 310.37 677.73 310.38 677.74 310.39 677.75 310.42 677.78 310.49 677.8 310.52 677.81 310.53 677.88 310.6 Z M 713.21 309.04 713.19 309.06 713.16 309.03 713.15 309 713.16 308.98 713.19 308.97 713.21 308.99 713.21 309.02 713.21 309.04 Z M 673.99 308.27 673.99 308.27 673.98 308.27 673.99 308.26 673.99 308.27 Z M 673.82 308.22 673.78 308.23 673.79 308.2 673.83 308.19 673.84 308.19 673.86 308.22 673.82 308.22 Z M 690.94 308.08 690.92 308.08 690.89 308.07 690.85 308.05 690.85 308.02 690.87 307.99 690.91 307.95 690.92 307.94 690.93 307.93 690.95 307.94 691 307.98 690.98 307.99 690.97 308.01 690.96 308.03 690.95 308.06 690.94 308.08 Z M 674.14 307.81 674.14 307.81 674.14 307.81 674.14 307.81 Z M 691.09 307.82 691.07 307.82 691.05 307.81 691.03 307.78 691.03 307.75 691.05 307.75 691.1 307.76 691.11 307.79 691.1 307.81 691.09 307.82 Z M 682.32 307.23 682.3 307.26 682.28 307.24 682.28 307.22 682.28 307.19 682.28 307.18 682.28 307.13 682.3 307.1 682.32 307.09 682.34 307.11 682.34 307.12 682.34 307.13 682.33 307.17 682.32 307.2 682.32 307.23 Z M 681.06 306.88 681.05 306.89 681.03 306.89 681.02 306.88 681.01 306.86 681 306.85 680.98 306.81 680.94 306.79 680.9 306.78 680.86 306.76 680.85 306.73 680.87 306.7 680.9 306.69 680.94 306.68 680.97 306.67 681.01 306.68 681.04 306.7 681.08 306.73 681.1 306.77 681.1 306.79 681.09 306.82 681.08 306.84 681.06 306.85 681.06 306.86 681.06 306.87 681.06 306.88 Z M 682.06 306.19 682.04 306.21 682.02 306.21 681.99 306.21 681.98 306.2 681.99 306.18 682.01 306.16 682.03 306.16 682.05 306.17 682.06 306.19 Z M 715.08 305.91 715.11 305.91 715.13 305.91 715.13 305.92 715.11 305.94 715.11 305.96 715.13 305.97 715.17 305.98 715.17 305.99 715.16 306 715.15 306.01 715.15 306.01 715.15 306.03 715.17 306.02 715.18 306.02 715.19 306.02 715.19 306.04 715.17 306.05 715.16 306.06 715.15 306.08 715.17 306.11 715.12 306.08 715.07 306 715.01 305.86 715.03 305.86 715.04 305.86 715.06 305.87 715.07 305.89 715.08 305.91 Z M 683.31 305.82 683.31 305.89 683.26 305.9 683.2 305.88 683.19 305.84 683.22 305.83 683.28 305.83 683.31 305.82 Z M 684.42 305.9 684.42 305.91 684.41 305.91 684.4 305.9 684.39 305.91 684.32 306.03 684.27 306.08 684.21 306.09 684.12 306.1 684.09 306.11 684.07 306.13 684.05 306.15 684.03 306.18 684.03 306.2 684.03 306.21 684.05 306.22 684.06 306.22 684.06 306.25 684.05 306.27 684.04 306.27 684.03 306.27 683.97 306.29 683.93 306.3 683.89 306.3 683.86 306.28 683.81 306.34 683.7 306.46 683.67 306.47 683.64 306.48 683.62 306.49 683.62 306.52 683.6 306.53 683.45 306.53 683.42 306.54 683.4 306.55 683.38 306.59 683.39 306.61 683.41 306.62 683.43 306.63 683.44 306.67 683.45 306.74 683.46 306.77 683.49 306.8 683.53 306.84 683.56 306.87 683.52 306.88 683.47 306.87 683.43 306.85 683.38 306.84 683.35 306.86 683.24 307.06 683.23 307.1 683.22 307.15 683.24 307.18 683.27 307.18 683.31 307.17 683.34 307.17 683.32 307.23 683.28 307.29 683.24 307.33 683.19 307.33 683.16 307.35 683.12 307.41 683.09 307.43 682.96 307.43 682.97 307.33 682.93 307.16 682.93 307.11 682.98 307.11 683.02 307.07 683.05 307 683.07 306.96 683.11 306.96 683.14 306.92 683.16 306.87 683.16 306.85 683.15 306.79 683.12 306.69 683.11 306.63 683.12 306.58 683.14 306.55 683.17 306.55 683.25 306.55 683.28 306.55 683.3 306.53 683.31 306.51 683.32 306.51 683.35 306.45 683.36 306.43 683.43 306.39 683.52 306.36 683.59 306.33 683.65 306.25 683.65 306.2 683.64 306.17 683.6 306.15 683.5 306.14 683.48 306.11 683.48 306.07 683.48 306.03 683.46 305.94 683.46 305.92 683.48 305.92 683.56 305.92 683.65 305.92 683.71 305.93 683.74 305.96 683.73 305.98 683.72 306 683.71 306.03 683.72 306.06 683.74 306.07 683.77 306.07 683.86 306.05 683.98 305.98 683.96 305.93 683.98 305.9 684.07 305.83 684.08 305.82 684.09 305.77 684.11 305.76 684.12 305.76 684.13 305.75 684.15 305.71 684.23 305.66 684.25 305.63 684.26 305.58 684.3 305.51 684.3 305.45 684.47 305.63 684.48 305.67 684.47 305.68 684.47 305.7 684.46 305.71 684.47 305.73 684.48 305.75 684.47 305.77 684.46 305.79 684.45 305.8 684.42 305.86 684.42 305.87 684.42 305.9 Z M 684.74 305.1 684.73 305.12 684.69 305.12 684.64 305.09 684.63 305.08 684.62 305.08 684.61 305.07 684.61 305.05 684.62 305.04 684.64 305.04 684.65 305.02 684.68 305.01 684.72 305.02 684.73 305.04 684.74 305.05 684.74 305.1 Z M 683.63 305.13 683.57 305.15 683.59 305.11 683.7 304.98 683.72 304.94 683.74 304.94 683.72 305.01 683.68 305.07 683.63 305.13 Z M 715.3 304.96 715.29 305.05 715.25 305.07 715.21 305.04 715.17 304.98 715.24 305.01 715.23 304.99 715.22 304.97 715.21 304.95 715.19 304.94 715.22 304.93 715.26 304.93 715.28 304.94 715.3 304.96 Z M 715.2 304.79 715.19 304.81 715.18 304.78 715.18 304.74 715.19 304.71 715.21 304.72 715.22 304.74 715.21 304.77 715.2 304.79 Z M 712.28 304.59 712.26 304.63 712.26 304.59 712.27 304.58 712.28 304.59 Z M 685.22 304.13 685.19 304.15 685.15 304.22 685.13 304.24 685.1 304.23 685.09 304.27 685.07 304.27 685.05 304.27 685.04 304.27 685.01 304.3 684.97 304.3 684.94 304.29 684.91 304.27 684.9 304.25 684.9 304.22 684.9 304.19 684.91 304.16 684.92 304.14 684.93 304.14 684.94 304.13 684.98 304.13 685.06 304.14 685.11 304.14 685.14 304.12 685.18 304.09 685.29 304.04 685.29 304.05 685.29 304.05 685.29 304.05 685.3 304.06 685.28 304.09 685.22 304.13 Z M 715.19 303.64 715.2 303.68 715.16 303.65 715.17 303.63 715.19 303.64 Z M 715.01 303.37 715 303.39 715 303.37 715.01 303.36 715.01 303.37 Z M 714.96 303.37 714.95 303.39 714.94 303.37 714.95 303.36 714.96 303.37 Z M 684.27 303.04 684.27 303.07 684.25 303.05 684.24 303.01 684.26 303.02 684.26 303.03 684.27 303.04 Z M 685.86 303.47 685.83 303.48 685.79 303.47 685.78 303.43 685.77 303.39 685.76 303.38 685.72 303.36 685.71 303.33 685.73 303.26 685.68 303.12 685.69 303.09 685.7 303.05 685.72 302.96 685.73 302.95 685.76 302.93 685.83 302.9 685.87 302.95 685.9 303.09 685.93 303.16 685.95 303.18 685.98 303.2 686 303.22 686.02 303.25 686 303.29 685.95 303.36 685.93 303.41 685.9 303.44 685.86 303.47 Z M 686.44 302.25 686.47 302.26 686.55 302.25 686.54 302.27 686.52 302.29 686.51 302.31 686.51 302.33 686.54 302.35 686.59 302.37 686.61 302.39 686.67 302.38 686.72 302.42 686.73 302.47 686.67 302.49 686.63 302.45 686.62 302.45 686.62 302.43 686.6 302.44 686.59 302.45 686.59 302.45 686.59 302.46 686.58 302.48 686.57 302.49 686.56 302.48 686.56 302.48 686.54 302.45 686.53 302.44 686.51 302.44 686.46 302.44 686.44 302.44 686.43 302.42 686.43 302.36 686.42 302.34 686.36 302.25 686.35 302.21 686.38 302.2 686.45 302.2 686.44 302.25 Z M 688.16 301.96 688.12 301.98 688.07 301.97 687.98 301.94 688.11 301.83 688.21 301.77 688.23 301.75 688.24 301.79 688.21 301.86 688.18 301.92 688.16 301.96 Z M 687.55 301.6 687.54 301.61 687.52 301.61 687.5 301.61 687.49 301.61 687.46 301.63 687.37 301.67 687.34 301.68 687.32 301.68 687.32 301.69 687.31 301.71 687.3 301.73 687.28 301.73 687.24 301.76 687.18 301.86 687.13 301.89 687.12 301.9 687.06 301.97 687.03 301.98 686.97 301.96 686.94 301.96 686.96 301.99 686.94 302.02 686.92 302.04 686.9 302.05 686.88 302.06 686.91 302.08 686.96 302.12 686.99 302.15 686.87 302.22 686.85 302.22 686.84 302.28 686.81 302.28 686.77 302.27 686.73 302.28 686.76 302.3 686.78 302.34 686.79 302.37 686.78 302.39 686.76 302.38 686.7 302.32 686.59 302.24 686.57 302.21 686.57 302.17 686.57 302.14 686.55 302.11 686.52 302.15 686.49 302.15 686.41 302.11 686.33 302.1 686.3 302.08 686.27 302.06 686.27 302.05 686.29 302.04 686.31 302.03 686.33 302.03 686.35 302.05 686.41 302.03 686.49 302.05 686.55 302.05 686.59 301.98 686.51 301.97 686.48 301.96 686.45 301.92 686.49 301.9 686.51 301.88 686.54 301.86 686.59 301.85 686.61 301.84 686.65 301.81 686.68 301.78 686.68 301.77 686.74 301.76 686.79 301.77 686.84 301.76 686.87 301.7 686.91 301.72 686.95 301.71 686.98 301.67 687 301.63 687.02 301.66 687.04 301.67 687.07 301.69 687.09 301.7 687.13 301.61 687.19 301.56 687.34 301.48 687.31 301.57 687.32 301.59 687.35 301.6 687.38 301.59 687.4 301.55 687.44 301.48 687.44 301.47 687.43 301.45 687.43 301.43 687.44 301.41 687.47 301.41 687.5 301.45 687.52 301.53 687.53 301.55 687.54 301.56 687.55 301.57 687.55 301.6 Z M 687.31 299.06 687.28 299.06 687.26 299.04 687.25 299.02 687.26 299 687.28 298.98 687.28 298.99 687.29 298.99 687.3 298.99 687.3 299 687.31 299.03 687.31 299.06 Z M 687.6 298.6 687.55 298.65 687.53 298.59 687.53 298.55 687.53 298.52 687.6 298.51 687.62 298.55 687.6 298.6 Z M 687.84 297.93 687.89 297.95 687.9 297.95 687.91 297.95 687.92 297.96 687.93 297.96 687.94 298.03 688.01 298.09 687.99 298.09 687.99 298.1 687.86 298.09 687.84 298.05 687.81 298.03 687.8 297.97 687.84 297.93 Z M 687.17 297.92 687.15 297.92 687.13 297.92 687.12 297.89 687.12 297.88 687.14 297.87 687.15 297.88 687.17 297.89 687.18 297.91 687.17 297.92 Z M 688.05 297.75 688.04 297.76 688 297.75 687.97 297.74 687.95 297.72 687.95 297.71 687.94 297.71 687.95 297.69 687.95 297.68 687.97 297.67 687.97 297.65 687.97 297.64 687.99 297.63 688.01 297.66 688.02 297.69 688.04 297.73 688.05 297.74 688.05 297.75 688.05 297.75 Z M 689.27 296.45 689.33 296.5 689.43 296.53 689.5 296.59 689.58 296.62 689.66 296.69 689.65 296.78 689.6 296.9 689.51 297 689.45 297.04 689.38 297.05 689.31 297.06 689.24 297.07 689.14 297.04 689.11 296.99 689.08 296.9 689.02 296.78 689.01 296.71 689 296.64 689.02 296.63 689.11 296.63 689.14 296.57 689.19 296.52 689.2 296.48 689.25 296.48 689.27 296.45 Z M 688.53 296.39 688.59 296.43 688.62 296.41 688.65 296.44 688.71 296.46 688.75 296.5 688.75 296.53 688.7 296.54 688.68 296.56 688.64 296.57 688.59 296.52 688.6 296.49 688.59 296.47 688.55 296.49 688.53 296.45 688.5 296.43 688.48 296.4 688.53 296.39 Z M 711.04 296.43 711.01 296.44 711 296.42 711 296.4 711.02 296.39 711.04 296.39 711.06 296.41 711.04 296.43 Z M 690.46 296.22 690.42 296.24 690.39 296.24 690.37 296.29 690.34 296.32 690.34 296.38 690.31 296.42 690.31 296.46 690.31 296.48 690.32 296.5 690.33 296.53 690.32 296.56 690.32 296.58 690.33 296.62 690.3 296.66 690.3 296.69 690.26 296.69 690.22 296.7 690.18 296.71 690.14 296.74 690.13 296.77 690.1 296.77 690.09 296.74 690.07 296.71 690.07 296.68 690.09 296.63 690.08 296.56 690.06 296.52 690.05 296.47 690.05 296.45 690.08 296.46 690.1 296.46 690.11 296.42 690.16 296.36 690.23 296.26 690.26 296.19 690.27 296.13 690.28 296.09 690.27 296.01 690.26 295.97 690.26 295.95 690.25 295.93 690.28 295.89 690.31 295.85 690.35 295.78 690.35 295.75 690.38 295.74 690.4 295.68 690.4 295.63 690.44 295.55 690.47 295.52 690.48 295.51 690.5 295.5 690.52 295.5 690.52 295.54 690.55 295.6 690.58 295.64 690.54 295.68 690.54 295.76 690.56 295.86 690.5 295.95 690.51 296 690.51 296.08 690.5 296.12 690.47 296.14 690.47 296.18 690.46 296.22 Z M 686.91 295.49 686.9 295.49 686.9 295.48 686.91 295.48 686.91 295.49 Z M 688.03 295.57 688.01 295.57 687.97 295.55 687.97 295.54 687.97 295.53 687.95 295.51 687.96 295.5 687.98 295.49 688 295.47 688.02 295.47 688.03 295.47 688.05 295.49 688.07 295.5 688.08 295.53 688.06 295.55 688.03 295.57 Z M 710.43 293.94 710.43 293.94 710.43 293.94 710.43 293.94 Z M 710.43 293.94 710.43 293.94 710.42 293.94 710.43 293.93 710.43 293.94 Z M 687.54 293.44 687.49 293.48 687.45 293.46 687.41 293.43 687.4 293.38 687.45 293.36 687.48 293.28 687.54 293.2 687.57 293.18 687.62 293.17 687.65 293.12 687.67 293.07 687.69 293.02 687.7 293.06 687.72 293.11 687.72 293.16 687.69 293.18 687.67 293.2 687.59 293.34 687.57 293.42 687.54 293.44 Z M 687.87 292.82 687.95 292.89 687.97 292.9 687.97 292.88 687.96 292.86 687.97 292.84 688.01 292.84 688.02 292.84 688.01 292.85 688.01 292.87 688.01 292.88 688.01 292.9 688.01 292.91 688.01 292.93 688.01 292.93 688.01 292.95 687.99 292.97 687.97 292.97 687.95 292.97 687.92 292.99 687.89 292.99 687.88 292.97 687.86 292.97 687.85 292.96 687.85 292.95 687.84 292.93 687.83 292.91 687.83 292.89 687.84 292.88 687.84 292.87 687.81 292.88 687.79 292.91 687.78 292.91 687.77 292.9 687.77 292.88 687.77 292.86 687.79 292.83 687.82 292.81 687.87 292.82 Z M 688.54 292.2 688.5 292.21 688.47 292.19 688.45 292.16 688.46 292.11 688.44 292.09 688.42 292.04 688.41 292 688.42 291.96 688.44 291.95 688.46 291.95 688.51 291.97 688.56 291.97 688.58 291.99 688.6 292.04 688.59 292.07 688.55 292.18 688.54 292.2 Z M 688.66 291.83 688.64 291.84 688.63 291.84 688.63 291.81 688.64 291.78 688.65 291.75 688.66 291.74 688.67 291.74 688.68 291.73 688.68 291.72 688.71 291.71 688.74 291.73 688.76 291.75 688.75 291.77 688.73 291.79 688.71 291.82 688.68 291.83 688.66 291.83 Z M 709.79 291.27 709.83 291.35 709.79 291.32 709.79 291.27 Z M 689.02 291.17 689.04 291.17 689.08 291.17 689.14 291.13 689.18 291.13 689.21 291.17 689.13 291.22 689.04 291.47 688.97 291.52 688.96 291.51 688.96 291.48 688.96 291.42 688.95 291.39 688.93 291.4 688.89 291.43 688.8 291.44 688.75 291.45 688.7 291.47 688.66 291.4 688.64 291.36 688.64 291.33 688.65 291.31 688.67 291.31 688.7 291.3 688.72 291.29 688.76 291.24 688.81 291.2 688.84 291.19 688.92 291.16 688.97 291.13 688.99 291.13 689 291.14 689.01 291.16 689.02 291.17 Z M 688.59 291.14 688.61 291.25 688.61 291.47 688.62 291.49 688.63 291.51 688.63 291.53 688.62 291.6 688.62 291.62 688.61 291.63 688.59 291.66 688.57 291.67 688.52 291.69 688.51 291.71 688.46 291.81 688.45 291.82 688.4 291.84 688.38 291.86 688.33 291.93 688.3 291.95 688.25 291.98 688.19 292 688.16 292 688.15 291.98 688.19 291.84 688.16 291.86 688.14 291.86 688.11 291.86 688.07 291.88 688.07 291.87 688.08 291.84 688.09 291.83 688.16 291.77 688.2 291.74 688.23 291.73 688.26 291.73 688.28 291.73 688.31 291.7 688.29 291.7 688.27 291.7 688.23 291.68 688.19 291.7 688.15 291.68 688.12 291.63 688.11 291.57 688.11 291.55 688.12 291.52 688.14 291.5 688.16 291.49 688.14 291.45 688.15 291.39 688.18 291.34 688.21 291.3 688.23 291.24 688.22 291.19 688.17 291.11 688.2 291.11 688.22 291.12 688.24 291.14 688.26 291.15 688.29 291.14 688.34 291.12 688.39 291.1 688.43 291.08 688.48 291.07 688.52 291.08 688.59 291.14 Z M 689.17 290.91 689.16 290.93 689.16 290.94 689.17 290.96 689.17 290.99 689.17 291.03 689.15 291.06 689.12 291.07 689.11 291.07 689.11 291.1 689.1 291.09 689.07 291.07 689.07 291.04 689.08 291 689.07 290.98 689.05 290.97 689.05 290.95 689.08 290.9 689.09 290.9 689.09 290.91 689.1 290.9 689.12 290.89 689.13 290.88 689.16 290.89 689.17 290.91 Z M 693.85 290.65 693.82 290.66 693.8 290.65 693.8 290.62 693.8 290.58 693.81 290.55 693.82 290.54 693.83 290.55 693.84 290.55 693.85 290.56 693.86 290.58 693.87 290.61 693.87 290.63 693.85 290.65 Z M 685.6 290.52 685.62 290.56 685.6 290.66 685.63 290.7 685.68 290.74 685.71 290.78 685.73 290.81 685.73 290.81 685.73 290.82 685.69 290.82 685.64 290.82 685.55 290.84 685.54 290.81 685.49 290.8 685.48 290.81 685.46 290.81 685.45 290.82 685.45 290.85 685.45 290.86 685.46 290.87 685.5 290.91 685.49 290.94 685.48 290.97 685.45 291.01 685.41 290.99 685.36 290.93 685.31 290.92 685.2 290.93 685.18 290.96 685.1 290.91 685.06 290.9 685.07 290.85 685.09 290.82 685.09 290.8 685.1 290.78 685.12 290.76 685.13 290.75 685.14 290.76 685.14 290.82 685.15 290.84 685.15 290.83 685.18 290.76 685.18 290.73 685.18 290.7 685.18 290.67 685.18 290.65 685.17 290.64 685.16 290.63 685.16 290.61 685.16 290.6 685.16 290.59 685.18 290.56 685.16 290.51 685.18 290.48 685.2 290.46 685.24 290.46 685.25 290.49 685.28 290.56 685.3 290.55 685.33 290.53 685.38 290.52 685.46 290.47 685.47 290.44 685.53 290.41 685.53 290.46 685.53 290.48 685.53 290.5 685.57 290.51 685.6 290.52 Z M 685.75 290.41 685.74 290.43 685.72 290.46 685.69 290.5 685.67 290.51 685.65 290.5 685.61 290.48 685.6 290.47 685.58 290.44 685.59 290.36 685.58 290.34 685.59 290.32 685.61 290.32 685.63 290.33 685.65 290.36 685.65 290.39 685.66 290.41 685.67 290.41 685.67 290.41 685.67 290.4 685.67 290.39 685.66 290.37 685.65 290.34 685.65 290.32 685.66 290.31 685.71 290.35 685.73 290.36 685.73 290.37 685.75 290.41 Z M 685.85 290.25 685.86 290.3 685.85 290.33 685.83 290.34 685.83 290.35 685.83 290.36 685.84 290.38 685.83 290.4 685.82 290.4 685.81 290.38 685.8 290.37 685.78 290.36 685.77 290.36 685.78 290.35 685.78 290.33 685.77 290.32 685.76 290.31 685.75 290.3 685.72 290.26 685.71 290.26 685.69 290.26 685.69 290.25 685.71 290.22 685.75 290.24 685.78 290.28 685.79 290.28 685.79 290.25 685.79 290.24 685.81 290.25 685.82 290.24 685.82 290.21 685.83 290.2 685.84 290.21 685.85 290.22 685.85 290.25 Z M 686.02 290.17 686.02 290.18 686.01 290.26 686 290.28 685.99 290.28 685.99 290.26 685.98 290.26 685.96 290.24 685.94 290.24 685.91 290.25 685.9 290.24 685.89 290.23 685.88 290.22 685.88 290.22 685.87 290.18 685.87 290.15 685.89 290.15 685.93 290.17 685.94 290.17 685.94 290.16 685.93 290.15 685.91 290.13 685.91 290.12 685.9 290.1 685.9 290.1 685.91 290.09 685.92 290.08 685.92 290.07 685.93 290.07 685.97 290.08 686 290.1 686 290.13 686.01 290.15 686.02 290.17 Z M 709.99 289.76 709.97 289.78 709.94 289.78 709.9 289.76 709.86 289.73 709.84 289.68 709.76 289.57 709.76 289.53 709.78 289.5 709.82 289.49 709.87 289.53 709.92 289.56 709.98 289.58 710.03 289.6 710.06 289.65 710.04 289.69 709.99 289.76 Z M 686.17 289.79 686.17 289.84 686.17 289.92 686.19 289.93 686.33 289.87 686.36 289.93 686.34 289.97 686.3 289.99 686.25 290.05 686.21 290.05 686.17 290.1 686.16 290.13 686.15 290.17 686.17 290.21 686.17 290.23 686.16 290.26 686.14 290.26 686.1 290.25 686.09 290.28 686.1 290.31 686.1 290.34 686.09 290.36 686.05 290.35 686.05 290.3 686.04 290.25 686.04 290.16 686.06 290.12 686.02 290.06 686 290.05 685.93 290.03 685.9 290.02 685.91 289.99 685.95 289.97 686 289.94 686.03 289.97 686.07 289.94 686.04 289.89 686.06 289.78 686.09 289.77 686.1 289.84 686.12 289.83 686.14 289.82 686.14 289.77 686.13 289.74 686.14 289.68 686.18 289.67 686.19 289.62 686.17 289.58 686.16 289.56 686.19 289.45 686.21 289.47 686.21 289.52 686.2 289.54 686.19 289.56 686.21 289.59 686.22 289.6 686.21 289.65 686.2 289.7 686.18 289.74 686.17 289.79 Z M 686.28 289.18 686.25 289.2 686.23 289.23 686.21 289.24 686.18 289.23 686.15 289.21 686.14 289.2 686.13 289.2 686.12 289.2 686.12 289.18 686.15 289.14 686.18 289.12 686.2 289.12 686.23 289.09 686.25 289.1 686.27 289.14 686.28 289.16 686.28 289.18 Z M 687.18 288.8 687.2 288.92 687.18 288.96 687.15 289 687.12 289.03 687.14 289.05 687.12 289.09 687.09 289.1 687.09 289.13 687.06 289.15 687.06 289.19 687.04 289.24 686.94 289.36 686.86 289.42 686.78 289.44 686.74 289.42 686.71 289.41 686.71 289.38 686.73 289.32 686.75 289.36 686.8 289.4 686.84 289.4 686.85 289.37 686.84 289.37 686.83 289.35 686.8 289.35 686.79 289.32 686.8 289.28 686.82 289.25 686.87 289.26 686.86 289.22 686.85 289.16 686.92 289.1 686.93 289.03 686.93 288.97 687.05 288.94 687.08 288.88 687.09 288.89 687.11 288.91 687.15 288.89 687.11 288.86 687.11 288.82 687.18 288.8 Z M 687.18 288.57 687.18 288.58 687.22 288.58 687.23 288.6 687.21 288.62 687.18 288.64 687.15 288.63 687.12 288.62 687.1 288.62 687.09 288.64 687.08 288.64 687.07 288.64 687.07 288.61 687.11 288.57 687.15 288.55 687.17 288.55 687.18 288.57 Z M 708.78 288.17 708.78 288.17 708.77 288.17 708.78 288.17 Z M 693.16 287.81 693.21 287.85 693.21 287.86 693.17 287.86 693.12 287.86 693.05 287.82 693.02 287.83 693.03 287.79 693.06 287.77 693.1 287.77 693.14 287.79 693.16 287.81 Z M 687.64 287.71 687.64 287.74 687.65 287.77 687.68 287.79 687.72 287.81 687.7 287.81 687.68 287.82 687.67 287.83 687.67 287.84 687.72 287.87 687.72 287.9 687.69 287.94 687.64 287.94 687.58 287.94 687.55 287.99 687.55 288.04 687.52 288.04 687.48 288 687.45 287.96 687.46 287.92 687.44 287.9 687.41 287.92 687.39 287.89 687.38 287.84 687.45 287.88 687.47 287.88 687.47 287.86 687.41 287.82 687.41 287.76 687.41 287.73 687.45 287.73 687.44 287.69 687.46 287.64 687.47 287.61 687.48 287.58 687.5 287.61 687.65 287.65 687.65 287.67 687.64 287.71 Z M 709.5 287.62 709.47 287.63 709.43 287.63 709.41 287.61 709.4 287.56 709.43 287.52 709.47 287.52 709.49 287.53 709.5 287.54 709.51 287.58 709.51 287.6 709.5 287.62 Z M 693.26 287.43 693.32 287.52 693.35 287.51 693.38 287.5 693.43 287.46 693.44 287.46 693.48 287.47 693.49 287.46 693.5 287.45 693.51 287.42 693.52 287.41 693.55 287.4 693.61 287.41 693.64 287.41 693.61 287.43 693.57 287.5 693.55 287.5 693.53 287.49 693.47 287.51 693.45 287.52 693.44 287.54 693.44 287.61 693.44 287.63 693.43 287.66 693.4 287.65 693.36 287.65 693.34 287.64 693.33 287.62 693.33 287.6 693.33 287.57 693.31 287.55 693.29 287.57 693.26 287.55 693.25 287.56 693.24 287.59 693.23 287.61 693.2 287.61 693.16 287.6 693.14 287.61 693.12 287.59 693.11 287.6 693.1 287.61 693.08 287.63 693.06 287.57 693.03 287.51 693.01 287.45 693.05 287.39 693.1 287.37 693.16 287.37 693.22 287.4 693.26 287.43 Z M 690.37 287.51 690.39 287.54 690.38 287.58 690.35 287.58 690.36 287.6 690.36 287.62 690.35 287.64 690.34 287.66 690.3 287.68 690.3 287.72 690.3 287.73 690.31 287.74 690.35 287.75 690.4 287.74 690.39 287.83 690.4 287.85 690.41 287.92 690.43 287.97 690.5 288.09 690.53 288.16 690.56 288.21 690.61 288.24 690.65 288.23 690.71 288.25 690.8 288.26 690.87 288.28 690.95 288.29 691.01 288.35 691.1 288.35 691.2 288.37 691.31 288.35 691.32 288.33 691.4 288.26 691.44 288.22 691.46 288.16 691.49 288.12 691.54 288.1 691.61 288.09 691.66 288.09 691.69 288.08 691.73 288.1 691.77 288.12 691.82 288.12 691.86 288.12 691.91 288.19 691.96 288.29 692 288.35 692.02 288.41 692.02 288.46 692 288.53 692.02 288.61 692 288.66 691.96 288.75 691.95 288.81 691.93 288.81 691.88 288.79 691.84 288.77 691.8 288.79 691.79 288.83 691.8 288.87 691.79 288.9 691.73 288.91 691.72 288.92 691.71 288.96 691.66 288.97 691.62 288.97 691.6 288.96 691.56 288.92 691.51 288.93 691.49 288.99 691.51 289.17 691.55 289.2 691.6 289.21 691.74 289.22 691.83 289.17 691.94 289.22 691.96 289.17 692.07 289.22 692.21 289.24 692.27 289.22 692.34 289.18 692.38 289.18 692.34 289.26 692.32 289.32 692.32 289.36 692.3 289.38 692.26 289.39 692.23 289.44 692.22 289.48 692.18 289.55 692.25 289.59 692.31 289.55 692.38 289.55 692.4 289.56 692.34 289.6 692.31 289.64 692.3 289.67 692.34 289.69 692.36 289.68 692.39 289.68 692.41 289.7 692.44 289.71 692.45 289.68 692.45 289.64 692.47 289.64 692.49 289.69 692.51 289.71 692.53 289.72 692.55 289.73 692.57 289.72 692.58 289.7 692.59 289.64 692.63 289.72 692.62 289.75 692.56 289.77 692.48 289.76 692.44 289.76 692.43 289.81 692.39 289.85 692.39 289.93 692.41 289.95 692.46 289.99 692.49 289.99 692.51 290.03 692.53 290.02 692.55 290.02 692.57 290.02 692.58 290.04 692.6 290.05 692.62 290.03 692.62 290.05 692.63 290.06 692.65 290.05 692.68 290.01 692.73 290.02 692.78 290.03 692.79 290.06 692.74 290.05 692.7 290.08 692.66 290.09 692.59 290.14 692.56 290.18 692.57 290.19 692.59 290.21 692.6 290.22 692.58 290.27 692.56 290.28 692.54 290.29 692.52 290.31 692.5 290.34 692.53 290.34 692.6 290.33 692.61 290.35 692.59 290.38 692.56 290.41 692.52 290.43 692.48 290.43 692.44 290.47 692.34 290.45 692.32 290.51 692.32 290.58 692.32 290.59 692.31 290.6 692.3 290.61 692.29 290.62 692.29 290.63 692.28 290.67 692.28 290.71 692.26 290.72 692.23 290.68 692.21 290.67 692.19 290.7 692.16 290.72 692.13 290.77 692.1 290.79 692.09 290.81 692.09 290.82 692.09 290.82 692.09 290.83 692.09 290.85 692.08 290.88 692.04 290.95 692.03 290.97 692 290.98 691.95 290.97 691.95 290.98 691.93 291.03 691.9 291.1 691.9 291.14 691.93 291.17 691.96 291.17 691.98 291.17 692.02 291.22 691.97 291.27 691.93 291.28 691.89 291.26 691.85 291.26 691.84 291.31 691.88 291.35 691.91 291.4 691.85 291.44 691.83 291.45 691.81 291.46 691.79 291.47 691.78 291.49 691.76 291.56 691.76 291.62 691.75 291.63 691.74 291.64 691.72 291.66 691.7 291.71 691.67 291.84 691.63 291.93 691.6 292.06 691.56 292.22 691.48 292.47 691.4 292.75 691.37 292.82 691.38 292.87 691.38 292.9 691.39 292.96 691.42 293.01 691.48 293.03 691.48 293.05 691.44 293.1 691.44 293.12 691.38 293.41 691.39 293.48 691.32 293.54 691.3 293.57 691.29 293.62 691.28 293.62 691.25 293.67 691.24 293.7 691.24 293.73 691.24 293.74 691.25 293.75 691.26 293.76 691.26 293.82 691.25 293.83 691.22 293.86 691.21 293.88 691.19 294 691.18 294.03 691.15 294.07 691.14 294.09 691.14 294.11 691.13 294.13 691.12 294.14 691.11 294.13 691.1 294.13 691.09 294.12 691.1 294.1 691.1 294.1 691.1 294.09 691.01 294.1 690.97 294.1 690.94 294.09 690.93 294.07 690.93 294.02 690.92 294 690.91 293.98 690.87 293.93 690.85 293.91 690.84 293.91 690.83 293.91 690.78 293.92 690.74 293.89 690.72 293.87 690.67 293.88 690.63 293.89 690.54 293.93 690.51 293.95 690.48 293.98 690.45 294.05 690.41 294.15 690.44 294.17 690.52 294.2 690.57 294.21 690.61 294.24 690.62 294.27 690.61 294.29 690.57 294.32 690.55 294.36 690.59 294.37 690.66 294.34 690.68 294.37 690.52 294.51 690.46 294.5 690.4 294.52 690.4 294.57 690.38 294.61 690.34 294.68 690.31 294.72 690.29 294.75 690.25 294.77 690.21 294.8 690.18 294.81 690.1 294.84 690.04 294.85 689.98 294.86 689.92 294.89 689.88 294.92 689.87 294.94 689.77 294.96 689.71 295.04 689.67 295.07 689.62 295.08 689.64 294.91 689.69 294.85 689.78 294.8 689.81 294.77 689.86 294.61 689.84 294.56 689.9 294.46 689.92 294.38 689.93 294.25 689.93 294.2 689.9 294.13 689.87 294.05 689.82 293.96 689.73 293.9 689.7 293.83 689.73 293.72 689.71 293.68 689.58 293.65 689.54 293.63 689.52 293.62 689.49 293.61 689.48 293.57 689.53 293.51 689.58 293.48 689.63 293.49 689.69 293.49 689.74 293.5 689.77 293.54 689.76 293.61 689.77 293.63 689.8 293.64 689.83 293.64 689.85 293.63 689.89 293.59 689.94 293.51 689.96 293.41 689.95 293.31 689.89 293.25 689.8 293.26 689.69 293.21 689.6 293.24 689.53 293.32 689.52 293.35 689.51 293.42 689.5 293.44 689.44 293.51 689.42 293.54 689.4 293.62 689.37 293.69 689.34 293.76 689.32 293.87 689.31 293.92 689.32 293.97 689.39 294.12 689.41 294.22 689.44 294.28 689.47 294.3 689.5 294.31 689.55 294.38 689.63 294.39 689.63 294.42 689.61 294.51 689.6 294.55 689.58 294.61 689.55 294.63 689.5 294.64 689.47 294.69 689.44 294.65 689.41 294.66 689.39 294.67 689.36 294.67 689.32 294.65 689.31 294.63 689.31 294.6 689.29 294.54 689.26 294.5 689.17 294.44 688.83 294.43 688.78 294.43 688.72 294.46 688.66 294.45 688.64 294.41 688.63 294.37 688.62 294.33 688.59 294.27 688.56 294.24 688.59 294.24 688.62 294.25 688.63 294.22 688.6 294.17 688.54 294.11 688.48 294.06 688.43 294.03 688.49 294 688.51 294 688.53 294 688.56 294.01 688.57 294.01 688.6 294.02 688.64 294.08 688.67 294.1 688.71 294.04 688.82 293.94 688.84 293.86 688.87 293.81 688.89 293.72 688.91 293.64 688.89 293.57 688.92 293.52 688.91 293.47 688.89 293.43 688.83 293.36 688.74 293.22 688.71 293.2 688.61 293.14 688.57 293.13 688.57 293.1 688.55 293.05 688.57 292.95 688.59 292.93 688.66 292.96 688.69 292.97 688.63 292.91 688.6 292.87 688.64 292.8 688.66 292.68 688.64 292.63 688.62 292.57 688.6 292.55 688.59 292.54 688.55 292.5 688.55 292.45 688.58 292.43 688.62 292.37 688.62 292.31 688.57 292.26 688.63 292.19 688.72 292.15 688.78 292.24 688.83 292.22 688.88 292.19 688.9 292.17 688.91 292.15 688.93 292.08 688.93 292.08 688.94 292.07 688.96 292.06 688.96 292.05 688.96 292.01 688.96 292 689.12 291.83 689.14 291.76 689.15 291.75 689.18 291.73 689.19 291.72 689.19 291.69 689.19 291.67 689.19 291.65 689.21 291.6 689.22 291.59 689.28 291.65 689.3 291.62 689.31 291.59 689.3 291.51 689.31 291.49 689.36 291.42 689.41 291.39 689.43 291.32 689.42 291.25 689.39 291.22 689.41 291.19 689.43 291.18 689.49 291.18 689.48 291.15 689.43 291.11 689.42 291.08 689.43 291.05 689.59 290.92 689.62 290.87 689.65 290.81 689.59 290.81 689.23 290.88 689.19 290.89 689.16 290.88 689.18 290.84 689.22 290.81 689.37 290.73 689.42 290.69 689.44 290.68 689.48 290.68 689.51 290.67 689.53 290.66 689.55 290.66 689.55 290.64 689.52 290.63 689.5 290.6 689.48 290.57 689.48 290.55 689.48 290.53 689.49 290.51 689.52 290.47 689.53 290.46 689.52 290.45 689.51 290.44 689.51 290.42 689.48 290.37 689.31 290.23 689.21 290.12 689.14 290.09 689.13 290.04 689.11 289.87 689.12 289.75 689.1 289.7 689.1 289.67 689.1 289.65 689.09 289.64 689.07 289.64 689.06 289.64 689.05 289.64 689.01 289.6 688.99 289.58 688.98 289.55 688.98 289.53 688.98 289.52 688.91 289.51 688.86 289.49 688.83 289.49 688.81 289.49 688.74 289.42 688.7 289.39 688.65 289.47 688.56 289.53 688.5 289.59 688.45 289.57 688.46 289.62 688.49 289.66 688.52 289.74 688.62 289.91 688.66 289.95 688.65 290 688.62 290.01 688.62 290.07 688.58 290.11 688.53 290.12 688.5 290.16 688.47 290.18 688.42 290.2 688.4 290.21 688.44 290.23 688.46 290.26 688.51 290.3 688.56 290.3 688.6 290.29 688.71 290.21 688.85 290.21 688.92 290.26 688.95 290.32 688.99 290.43 689 290.46 689 290.55 689 290.57 688.95 290.63 688.94 290.66 688.97 290.7 688.92 290.76 688.84 290.8 688.76 290.8 688.74 290.82 688.74 290.85 688.73 290.87 688.69 290.88 688.68 290.91 688.66 290.92 688.61 290.93 688.57 290.95 688.53 290.95 688.55 290.93 688.54 290.88 688.51 290.87 688.49 290.85 688.45 290.83 688.45 290.77 688.45 290.72 688.48 290.72 688.51 290.71 688.54 290.68 688.56 290.66 688.59 290.64 688.61 290.61 688.63 290.59 688.63 290.54 688.6 290.52 688.58 290.51 688.57 290.49 688.58 290.48 688.59 290.45 688.56 290.43 688.5 290.42 688.47 290.44 688.45 290.44 688.37 290.42 688.31 290.45 688.28 290.48 688.24 290.52 688.19 290.53 688.15 290.55 688.1 290.56 688.08 290.53 688.08 290.51 688.07 290.5 688.05 290.52 688.07 290.55 688.04 290.6 687.98 290.68 687.95 290.72 687.93 290.77 687.89 290.81 687.85 290.83 687.81 290.83 687.81 290.85 687.79 290.89 687.74 290.94 687.69 290.98 687.69 291 687.67 291 687.64 290.99 687.61 291.01 687.59 291.02 687.58 290.98 687.61 290.96 687.64 290.95 687.67 290.93 687.69 290.92 687.71 290.85 687.73 290.81 687.76 290.77 687.76 290.73 687.75 290.72 687.73 290.73 687.72 290.71 687.72 290.69 687.74 290.69 687.76 290.67 687.78 290.66 687.8 290.69 687.82 290.67 687.85 290.61 687.78 290.62 687.78 290.58 687.73 290.48 687.71 290.46 687.69 290.45 687.68 290.43 687.67 290.4 687.66 290.37 687.62 290.36 687.6 290.38 687.57 290.4 687.55 290.34 687.5 290.31 687.47 290.27 687.45 290.23 687.45 290.2 687.44 290.17 687.43 290.14 687.42 290.11 687.4 290.09 687.37 290.08 687.35 290 687.35 289.94 687.38 289.91 687.4 289.87 687.39 289.84 687.4 289.8 687.41 289.78 687.42 289.7 687.46 289.64 687.55 289.68 687.58 289.73 687.58 289.73 687.58 289.76 687.58 289.76 687.59 289.76 687.6 289.75 687.61 289.74 687.62 289.74 687.63 289.76 687.62 289.78 687.59 289.84 687.58 289.88 687.59 289.91 687.62 289.9 687.65 289.84 687.72 289.86 687.75 289.9 687.77 289.94 687.76 289.96 687.75 289.99 687.76 290.05 687.76 290.09 687.74 290.11 687.73 290.09 687.71 290.02 687.69 290.02 687.7 290.12 687.73 290.14 687.74 290.19 687.71 290.21 687.76 290.24 687.77 290.26 687.79 290.28 687.82 290.29 687.82 290.31 687.84 290.3 687.85 290.29 687.88 290.27 687.89 290.25 687.91 290.21 688.02 290.25 688.14 290.3 688.17 290.29 688.13 290.25 688.01 290.07 688.01 290 688.03 289.96 688.05 289.9 688.05 289.84 687.97 289.79 687.9 289.72 687.84 289.74 687.8 289.77 687.78 289.77 687.77 289.72 687.72 289.68 687.69 289.7 687.67 289.73 687.64 289.74 687.6 289.71 687.6 289.68 687.58 289.62 687.59 289.62 687.61 289.63 687.6 289.58 687.6 289.56 687.64 289.54 687.63 289.52 687.61 289.52 687.56 289.56 687.55 289.54 687.55 289.5 687.55 289.47 687.52 289.46 687.53 289.51 687.52 289.57 687.51 289.59 687.49 289.58 687.46 289.58 687.44 289.61 687.43 289.62 687.42 289.55 687.47 289.54 687.47 289.51 687.46 289.48 687.44 289.46 687.42 289.45 687.4 289.44 687.4 289.41 687.4 289.4 687.4 289.38 687.38 289.37 687.36 289.38 687.34 289.38 687.32 289.37 687.28 289.34 687.26 289.33 687.2 289.33 687.17 289.29 687.2 289.21 687.2 289.17 687.22 289.16 687.24 289.16 687.26 289.14 687.26 289.12 687.25 289.09 687.22 289.04 687.23 288.97 687.24 288.91 687.26 288.88 687.33 288.94 687.38 288.93 687.44 288.84 687.46 288.86 687.45 288.93 687.5 288.96 687.6 288.93 687.74 288.97 687.76 289.01 687.76 289.01 687.77 289.08 687.78 289.11 687.81 289.13 687.84 289.15 687.83 289.11 687.81 289.05 687.83 288.97 687.85 288.92 687.88 288.89 687.86 288.86 687.88 288.84 687.76 288.76 687.72 288.71 687.7 288.69 687.72 288.65 687.73 288.62 687.76 288.61 687.8 288.66 687.81 288.69 687.83 288.72 687.86 288.73 687.88 288.72 687.87 288.68 687.82 288.62 687.81 288.53 687.84 288.48 687.84 288.43 687.88 288.46 687.91 288.47 687.97 288.44 688.04 288.48 688.08 288.53 688.07 288.56 688.05 288.59 688.04 288.62 688.06 288.64 688.08 288.61 688.09 288.64 688.09 288.66 688.11 288.69 688.14 288.7 688.2 288.71 688.23 288.7 688.26 288.67 688.27 288.6 688.29 288.58 688.36 288.55 688.4 288.54 688.42 288.54 688.45 288.52 688.45 288.52 688.48 288.51 688.51 288.5 688.54 288.48 688.55 288.44 688.53 288.44 688.45 288.46 688.43 288.45 688.43 288.42 688.41 288.41 688.38 288.4 688.37 288.39 688.37 288.37 688.39 288.35 688.41 288.33 688.43 288.33 688.45 288.33 688.48 288.32 688.51 288.29 688.51 288.25 688.52 288.22 688.55 288.23 688.57 288.23 688.59 288.22 688.61 288.21 688.62 288.2 688.63 288.13 688.66 288.14 688.68 288.16 688.69 288.19 688.67 288.21 688.68 288.25 688.71 288.27 688.72 288.28 688.77 288.27 688.78 288.29 688.76 288.33 688.77 288.35 688.8 288.36 688.81 288.37 688.82 288.36 688.84 288.36 688.84 288.34 688.87 288.31 688.9 288.31 688.96 288.31 688.99 288.29 689.03 288.29 689.05 288.26 689.06 288.22 689.07 288.17 689.06 288.15 689.05 288.12 689.01 288.15 688.97 288.18 688.94 288.19 688.91 288.18 688.89 288.16 688.87 288.15 688.85 288.16 688.82 288.13 688.81 288.09 688.82 288.07 688.84 288.07 688.86 288.11 688.89 288.13 688.93 288.14 689.02 288.1 689.06 288.07 689.09 288.03 689.12 288 689.15 287.99 689.17 287.96 689.2 287.92 689.21 287.87 689.2 287.82 689.18 287.82 689.16 287.8 689.16 287.77 689.17 287.75 689.19 287.74 689.21 287.73 689.23 287.71 689.25 287.63 689.27 287.64 689.29 287.64 689.34 287.61 689.36 287.59 689.37 287.57 689.38 287.56 689.42 287.55 689.52 287.56 689.57 287.55 689.62 287.52 689.68 287.42 689.7 287.41 689.73 287.4 689.76 287.41 689.79 287.42 689.84 287.39 689.92 287.39 690 287.4 689.99 287.45 690.02 287.44 690.08 287.44 690.1 287.47 690.12 287.52 690.16 287.54 690.19 287.53 690.22 287.51 690.25 287.46 690.27 287.41 690.33 287.35 690.4 287.33 690.42 287.36 690.42 287.41 690.4 287.45 690.39 287.46 690.39 287.48 690.37 287.51 Z M 693.98 287.36 693.93 287.37 693.91 287.36 693.9 287.32 693.92 287.29 693.94 287.27 693.96 287.26 693.97 287.25 693.98 287.24 694.01 287.22 694.02 287.2 694.03 287.21 694.03 287.24 694.02 287.27 694.02 287.28 694.01 287.3 694.01 287.31 694.01 287.33 693.98 287.36 Z M 709.3 287.14 709.24 287.15 709.2 287.08 709.21 286.99 709.28 286.94 709.35 286.94 709.39 287 709.36 287.09 709.3 287.14 Z M 693.82 286.92 693.82 286.95 693.88 286.92 693.89 286.98 693.86 287.04 693.83 287.05 693.78 287.02 693.66 287.03 693.61 287.01 693.65 286.96 693.7 286.93 693.73 286.89 693.7 286.82 693.72 286.79 693.75 286.78 693.78 286.77 693.8 286.77 693.82 286.79 693.82 286.8 693.81 286.81 693.81 286.82 693.79 286.82 693.81 286.85 693.82 286.89 693.82 286.92 Z M 695 286.77 695.02 286.78 695.04 286.77 695.04 286.79 695.03 286.81 694.92 286.93 694.88 286.94 694.85 286.92 694.85 286.88 694.86 286.84 694.87 286.83 694.89 286.83 694.9 286.83 694.89 286.81 694.87 286.77 694.89 286.74 694.94 286.73 694.98 286.74 694.99 286.76 695 286.77 Z M 694.29 286.77 694.28 286.79 694.26 286.81 694.24 286.82 694.23 286.81 694.23 286.79 694.22 286.78 694.2 286.79 694.15 286.76 694.13 286.74 694.14 286.71 694.17 286.7 694.22 286.71 694.24 286.72 694.27 286.74 694.29 286.77 Z M 694.67 286.51 694.66 286.57 694.64 286.62 694.63 286.65 694.61 286.67 694.56 286.69 694.51 286.69 694.48 286.67 694.47 286.63 694.48 286.6 694.49 286.59 694.5 286.59 694.56 286.56 694.59 286.56 694.61 286.54 694.64 286.5 694.66 286.48 694.67 286.51 Z M 694.93 286.65 694.89 286.69 694.82 286.69 694.74 286.73 694.72 286.71 694.73 286.66 694.75 286.65 694.79 286.64 694.8 286.62 694.8 286.6 694.79 286.58 694.77 286.57 694.75 286.57 694.79 286.51 694.84 286.46 694.88 286.45 694.92 286.51 694.94 286.6 694.93 286.65 Z M 693.26 286.59 693.22 286.61 693.19 286.59 693.19 286.57 693.24 286.5 693.26 286.46 693.3 286.44 693.33 286.42 693.35 286.43 693.36 286.45 693.37 286.48 693.36 286.49 693.32 286.54 693.26 286.59 Z M 686.45 286.46 686.46 286.46 686.48 286.44 686.5 286.44 686.53 286.42 686.56 286.42 686.55 286.4 686.55 286.38 686.57 286.38 686.59 286.39 686.62 286.42 686.62 286.47 686.64 286.5 686.65 286.46 686.71 286.46 686.72 286.48 686.71 286.5 686.67 286.52 686.66 286.55 686.66 286.6 686.67 286.63 686.64 286.66 686.61 286.66 686.61 286.67 686.62 286.68 686.61 286.71 686.61 286.76 686.61 286.79 686.6 286.8 686.59 286.8 686.58 286.82 686.58 286.85 686.56 286.9 686.54 286.91 686.53 286.94 686.51 286.95 686.5 286.97 686.47 286.97 686.46 286.99 686.44 287 686.43 286.98 686.42 286.97 686.39 286.95 686.37 286.94 686.34 286.95 686.33 286.96 686.33 286.85 686.35 286.79 686.34 286.72 686.35 286.64 686.37 286.62 686.37 286.58 686.38 286.51 686.39 286.4 686.41 286.36 686.45 286.37 686.46 286.39 686.45 286.41 686.45 286.46 Z M 697.39 286.27 697.39 286.35 697.4 286.37 697.44 286.39 697.46 286.37 697.5 286.32 697.51 286.29 697.56 286.33 697.61 286.35 697.63 286.38 697.6 286.46 697.69 286.51 697.72 286.51 697.75 286.52 697.79 286.57 697.83 286.58 697.88 286.57 697.91 286.58 697.92 286.59 697.93 286.62 697.95 286.64 698.01 286.69 698.07 286.69 698.13 286.64 698.28 286.65 698.32 286.63 698.35 286.62 698.38 286.57 698.39 286.6 698.36 286.63 698.35 286.67 698.39 286.67 698.43 286.62 698.47 286.6 698.45 286.64 698.42 286.68 698.42 286.71 698.42 286.73 698.42 286.74 698.38 286.75 698.41 286.76 698.43 286.77 698.46 286.76 698.44 286.8 698.42 286.84 698.41 286.87 698.41 286.88 698.37 286.95 698.37 287.01 698.38 287.06 698.37 287.07 698.35 287.12 698.35 287.14 698.35 287.16 698.36 287.22 698.37 287.24 698.39 287.25 698.42 287.25 698.42 287.22 698.45 287.21 698.48 287.28 698.5 287.32 698.58 287.37 698.56 287.39 698.59 287.41 698.59 287.45 698.59 287.49 698.56 287.52 698.56 287.54 698.53 287.56 698.5 287.57 698.47 287.63 698.5 287.65 698.62 287.64 698.62 287.66 698.6 287.66 698.58 287.68 698.56 287.68 698.56 287.7 698.63 287.68 698.67 287.67 698.7 287.68 698.66 287.7 698.59 287.74 698.51 287.78 698.48 287.81 698.4 287.82 698.38 287.86 698.32 287.87 698.3 287.94 698.24 287.95 698.23 287.99 698.05 288.11 697.93 288.16 697.87 288.21 697.89 288.24 697.84 288.3 697.83 288.33 697.82 288.35 697.79 288.36 697.76 288.35 697.73 288.38 697.73 288.42 697.73 288.45 697.69 288.48 697.64 288.55 697.58 288.67 697.51 288.89 697.49 288.99 697.47 289.07 697.47 289.1 697.46 289.17 697.46 289.23 697.42 289.26 697.38 289.18 697.35 289.12 697.32 289.12 697.27 289.11 697.27 289.06 697.21 288.99 697.12 288.87 697.09 288.79 697.03 288.77 696.96 288.74 696.91 288.68 696.87 288.58 696.71 288.57 696.51 288.51 696.46 288.47 696.31 288.49 696.16 288.53 696.12 288.56 696.03 288.6 695.85 288.69 695.82 288.75 695.83 288.79 695.79 288.83 695.74 288.85 695.68 288.86 695.65 288.86 695.63 288.86 695.61 288.88 695.59 288.9 695.54 288.95 695.53 288.96 695.54 288.91 695.52 288.91 695.51 288.9 695.46 288.92 695.41 288.97 695.38 289.03 695.39 289.08 695.38 289.11 695.38 289.13 695.39 289.15 695.4 289.17 695.41 289.18 695.41 289.19 695.42 289.2 695.41 289.22 695.4 289.23 695.39 289.24 695.39 289.25 695.38 289.31 695.35 289.34 695.32 289.37 695.29 289.39 695.3 289.45 695.32 289.47 695.28 289.49 695.27 289.46 695.24 289.46 695.18 289.52 695.11 289.65 695.05 289.72 695.03 289.76 695.04 289.8 695.03 289.82 695.02 289.83 694.98 289.81 694.93 289.78 694.86 289.82 694.82 289.92 694.8 290.02 694.84 290.14 694.82 290.23 694.79 290.25 694.73 290.24 694.72 290.27 694.72 290.32 694.72 290.37 694.75 290.39 694.77 290.42 694.78 290.44 694.83 290.48 694.86 290.52 694.88 290.57 694.88 290.62 694.82 290.64 694.78 290.62 694.76 290.61 694.75 290.59 694.73 290.54 694.72 290.52 694.68 290.49 694.63 290.47 694.58 290.48 694.55 290.54 694.53 290.49 694.5 290.49 694.47 290.51 694.44 290.55 694.4 290.57 694.35 290.57 694.31 290.55 694.28 290.54 694.22 290.48 694.18 290.44 694.07 290.47 693.99 290.54 693.97 290.48 693.98 290.41 694.03 290.34 694.07 290.26 694.14 290.19 694.16 290.16 694.17 290.12 694.02 290.12 693.99 290.13 693.97 290.13 693.88 290.06 693.84 290.05 693.87 290.09 693.83 290.08 693.79 290.07 693.76 290.07 693.75 290.12 693.76 290.13 693.78 290.15 693.79 290.16 693.75 290.18 693.72 290.17 693.69 290.15 693.65 290.06 693.7 290.02 693.67 289.96 693.7 289.92 693.71 289.9 693.67 289.82 693.65 289.78 693.58 289.77 693.53 289.75 693.48 289.84 693.45 289.83 693.49 289.77 693.48 289.73 693.5 289.7 693.6 289.75 693.65 289.74 693.67 289.71 693.63 289.71 693.64 289.67 693.64 289.63 693.63 289.61 693.6 289.6 693.6 289.58 693.65 289.59 693.65 289.58 693.66 289.57 693.68 289.56 693.69 289.54 693.66 289.53 693.6 289.53 693.58 289.51 693.57 289.48 693.57 289.44 693.62 289.43 693.6 289.4 693.57 289.38 693.54 289.36 693.52 289.39 693.48 289.39 693.47 289.35 693.53 289.33 693.59 289.35 693.62 289.35 693.62 289.38 693.66 289.41 693.68 289.44 693.72 289.41 693.71 289.36 693.74 289.32 693.79 289.31 693.82 289.29 693.79 289.25 693.76 289.23 693.8 289.19 693.76 289.19 693.73 289.21 693.71 289.18 693.69 289.17 693.67 289.16 693.67 289.12 693.72 289.09 693.76 289.08 693.77 289.06 693.68 289.05 693.53 289.08 693.49 289.07 693.47 289.05 693.44 289.04 693.45 289.01 693.47 289 693.5 289 693.52 288.99 693.53 288.97 693.53 288.9 693.49 288.93 693.47 288.9 693.47 288.84 693.5 288.79 693.5 288.77 693.47 288.77 693.48 288.75 693.5 288.73 693.51 288.72 693.53 288.71 693.44 288.66 693.4 288.65 693.36 288.65 693.34 288.67 693.31 288.68 693.28 288.66 693.22 288.71 693.16 288.72 693.08 288.77 693 288.81 692.93 288.86 692.91 288.9 692.89 288.93 692.85 288.93 692.83 288.91 692.84 288.87 692.76 288.92 692.66 288.98 692.62 288.97 692.67 288.92 692.71 288.89 692.81 288.81 692.9 288.78 692.94 288.79 692.97 288.78 692.95 288.76 692.94 288.73 692.98 288.71 693.04 288.69 693.09 288.69 693.13 288.66 693.19 288.66 693.25 288.61 693.51 288.47 693.55 288.44 693.57 288.4 693.58 288.37 693.64 288.3 693.66 288.28 693.71 288.24 693.93 288.14 693.97 288.11 694.03 288.07 694.1 288 694.15 287.89 694.14 287.81 694.13 287.74 694.15 287.64 694.17 287.57 694.18 287.49 694.27 287.48 694.28 287.41 694.31 287.36 694.31 287.25 694.37 287.21 694.48 287.13 694.51 287.09 694.64 287.06 694.64 287.01 694.66 286.99 694.65 286.94 694.61 286.94 694.58 286.94 694.59 286.91 694.63 286.92 694.66 286.92 694.69 286.86 694.71 286.91 694.73 286.92 694.74 286.94 694.76 286.95 694.89 287.1 694.95 287.26 694.97 287.31 694.99 287.35 695.01 287.38 695.06 287.4 695.1 287.42 695.14 287.42 695.2 287.4 695.28 287.38 695.36 287.36 695.37 287.31 695.44 287.29 695.48 287.29 695.53 287.27 695.57 287.27 695.61 287.29 695.74 287.28 695.79 287.29 695.89 287.33 695.95 287.33 696 287.32 696.03 287.29 696.06 287.26 696.09 287.22 696.12 287.19 696.19 287.12 696.22 287.08 696.24 287.03 696.25 286.91 696.25 286.8 696.24 286.75 696.22 286.71 696.19 286.68 696.16 286.65 696.12 286.62 696.09 286.6 696.05 286.55 696.1 286.58 696.17 286.6 696.23 286.62 696.27 286.6 696.31 286.65 696.37 286.62 696.44 286.57 696.49 286.52 696.55 286.47 696.69 286.41 696.75 286.37 696.77 286.34 696.79 286.3 696.81 286.27 696.84 286.26 696.86 286.25 696.89 286.24 696.91 286.24 696.94 286.24 696.97 286.27 697.01 286.28 697.04 286.3 697.06 286.31 697.08 286.31 697.12 286.3 697.14 286.29 697.21 286.31 697.23 286.29 697.26 286.24 697.29 286.28 697.31 286.26 697.31 286.23 697.32 286.2 697.35 286.2 697.37 286.21 697.38 286.24 697.39 286.27 Z M 696.38 286.3 696.38 286.3 696.36 286.29 696.34 286.26 696.35 286.23 696.38 286.2 696.39 286.18 696.4 286.18 696.42 286.22 696.43 286.25 696.41 286.27 696.4 286.28 696.38 286.3 Z M 708.75 286.34 708.71 286.38 708.68 286.33 708.68 286.3 708.71 286.2 708.72 286.18 708.74 286.17 708.76 286.14 708.78 286.13 708.79 286.17 708.77 286.26 708.75 286.34 Z M 699.82 286.08 699.75 286.13 699.72 286.12 699.7 286.09 699.78 286.03 699.82 286.08 Z M 697.26 285.96 697.22 286.01 697.2 286.01 697.18 286 697.18 285.99 697.14 285.98 697.12 285.96 697.11 285.96 697.12 285.95 697.14 285.94 697.15 285.94 697.19 285.91 697.22 285.9 697.23 285.91 697.24 285.93 697.26 285.93 697.27 285.93 697.26 285.96 Z M 703.44 285.96 703.42 285.97 703.41 285.95 703.4 285.93 703.44 285.92 703.46 285.9 703.48 285.9 703.48 285.92 703.47 285.94 703.44 285.96 Z M 703.4 285.87 703.36 285.88 703.35 285.87 703.39 285.85 703.44 285.82 703.45 285.8 703.48 285.8 703.47 285.82 703.47 285.84 703.44 285.85 703.4 285.87 Z M 697.86 285.87 697.85 285.95 697.8 286.09 697.79 286.07 697.77 286.05 697.74 286.05 697.71 286.05 697.71 286.04 697.75 286.03 697.76 286.01 697.74 285.99 697.7 286 697.66 286.03 697.64 286.08 697.61 286.12 697.58 286.13 697.58 286.03 697.57 286 697.53 285.98 697.49 285.98 697.45 286 697.41 286 697.39 285.96 697.41 285.94 697.42 285.92 697.41 285.88 697.42 285.85 697.49 285.87 697.54 285.86 697.63 285.8 697.66 285.79 697.74 285.78 697.82 285.76 697.85 285.76 697.84 285.79 697.84 285.81 697.85 285.84 697.86 285.87 Z M 699.06 286.34 699.07 286.39 699.09 286.42 699.14 286.48 699.16 286.52 699.11 286.54 699.05 286.56 698.99 286.59 698.93 286.61 698.88 286.64 698.81 286.71 698.7 286.73 698.65 286.73 698.64 286.68 698.6 286.66 698.59 286.65 698.62 286.6 698.64 286.57 698.56 286.59 698.51 286.53 698.49 286.47 698.52 286.44 698.55 286.37 698.6 286.38 698.63 286.36 698.8 286.05 698.86 286.01 698.9 285.99 698.92 285.97 698.93 285.95 698.95 285.9 698.96 285.88 698.99 285.83 699.08 285.78 699.11 285.77 699.17 285.69 699.21 285.63 699.26 285.62 699.31 285.66 699.32 285.7 699.29 285.73 699.26 285.77 699.24 285.83 699.21 285.89 699.15 285.95 699.1 286.03 699.03 286.12 699.02 286.22 699.02 286.25 699.03 286.28 699.03 286.31 699.06 286.34 Z M 686.98 285.37 686.99 285.39 687.02 285.41 687.03 285.43 687.02 285.47 687.01 285.49 686.99 285.5 687.01 285.5 687.03 285.52 687.03 285.54 687.02 285.59 687 285.59 686.97 285.58 686.95 285.59 686.98 285.61 687.01 285.65 687 285.67 687 285.69 686.98 285.76 686.94 285.87 686.84 285.96 686.79 286.03 686.8 286.11 686.75 286.16 686.75 286.2 686.78 286.19 686.82 286.15 686.82 286.17 686.81 286.2 686.8 286.22 686.81 286.26 686.84 286.29 686.85 286.3 686.84 286.34 686.81 286.36 686.79 286.38 686.77 286.42 686.71 286.44 686.67 286.43 686.63 286.37 686.66 286.35 686.71 286.37 686.72 286.29 686.69 286.28 686.65 286.33 686.63 286.33 686.62 286.28 686.63 286.25 686.64 286.22 686.61 286.24 686.59 286.27 686.6 286.31 686.58 286.32 686.55 286.29 686.5 286.3 686.46 286.29 686.47 286.26 686.53 286.26 686.55 286.24 686.56 286.14 686.55 286.09 686.56 286.06 686.59 286.06 686.6 286.07 686.61 286.05 686.64 286.01 686.63 286 686.6 286.03 686.57 286.04 686.56 286.01 686.59 285.94 686.63 285.85 686.67 285.81 686.67 285.79 686.63 285.75 686.59 285.76 686.59 285.72 686.62 285.67 686.63 285.63 686.67 285.51 686.7 285.51 686.75 285.51 686.79 285.52 686.82 285.49 686.86 285.44 686.89 285.43 686.88 285.41 686.89 285.38 686.92 285.39 686.95 285.37 686.98 285.37 Z M 709.12 285.43 709.1 285.43 709.05 285.43 708.91 285.36 708.9 285.32 708.9 285.19 708.91 285.11 709 285.13 709.04 285.15 709.09 285.18 709.11 285.22 709.13 285.27 709.13 285.33 709.13 285.4 709.12 285.43 Z M 703.27 285 703.26 285 703.24 284.9 703.26 284.9 703.29 284.94 703.3 284.97 703.27 284.98 703.27 285 Z M 694.96 281.84 694.99 281.87 694.96 281.87 694.88 281.87 694.86 281.87 694.85 281.85 694.85 281.83 694.84 281.81 694.87 281.79 694.92 281.8 694.96 281.84 Z M 695.04 281.75 694.99 281.8 694.99 281.72 695 281.64 695.02 281.57 695.09 281.56 695.12 281.61 695.09 281.68 695.04 281.75 Z M 695.07 281.55 695.02 281.56 695.02 281.53 695.02 281.52 695.07 281.55 Z M 694.9 281.5 694.94 281.51 694.98 281.51 695.01 281.51 695.01 281.53 695.01 281.55 694.98 281.56 694.95 281.57 694.93 281.62 694.94 281.65 694.94 281.67 694.94 281.69 694.92 281.7 694.9 281.71 694.88 281.7 694.86 281.69 694.85 281.68 694.85 281.65 694.85 281.64 694.84 281.63 694.82 281.63 694.8 281.64 694.8 281.67 694.83 281.72 694.81 281.75 694.78 281.75 694.74 281.72 694.7 281.69 694.75 281.63 694.85 281.55 694.9 281.5 Z M 695.66 281.29 695.64 281.32 695.62 281.33 695.6 281.3 695.58 281.3 695.56 281.31 695.54 281.33 695.57 281.35 695.57 281.38 695.56 281.4 695.54 281.42 695.52 281.42 695.43 281.4 695.38 281.4 695.37 281.4 695.27 281.3 695.24 281.29 695.23 281.26 695.25 281.1 695.28 281.04 695.46 280.92 695.47 280.95 695.48 280.96 695.51 280.97 695.53 280.98 695.53 280.99 695.54 281.01 695.55 281.02 695.56 281.03 695.59 281.04 695.6 281.05 695.61 281.07 695.62 281.09 695.63 281.11 695.66 281.15 695.66 281.29 Z M 703.78 278.71 703.78 278.73 703.79 278.76 703.77 278.78 703.73 278.79 703.69 278.8 703.65 278.81 703.62 278.83 703.6 278.83 703.57 278.84 703.56 278.84 703.54 278.81 703.5 278.76 703.47 278.71 703.49 278.69 703.51 278.7 703.51 278.72 703.52 278.73 703.54 278.72 703.55 278.71 703.57 278.71 703.59 278.7 703.61 278.69 703.62 278.69 703.64 278.69 703.66 278.71 703.68 278.72 703.7 278.72 703.72 278.71 703.74 278.68 703.78 278.67 703.79 278.69 703.78 278.71 Z M 706.87 276.15 706.88 276.18 706.9 276.18 706.92 276.13 707 276.14 707.1 276.11 707.18 276.12 707.18 276.23 707.15 276.28 707.06 276.43 707.04 276.48 707.01 276.59 706.98 276.63 706.72 276.81 706.49 276.89 706.44 276.9 706.42 276.9 706.39 276.88 706.38 276.86 706.37 276.83 706.38 276.8 706.4 276.79 706.5 276.77 706.53 276.75 706.54 276.72 706.54 276.59 706.56 276.55 706.63 276.46 706.66 276.42 706.6 276.34 706.45 276.39 706.42 276.31 706.42 276.24 706.42 276.18 706.44 276.13 706.46 276.08 706.55 275.95 706.59 275.86 706.63 275.82 706.67 275.79 706.69 275.76 706.79 275.65 706.85 275.61 706.94 275.45 706.96 275.43 706.99 275.42 707.04 275.42 707.05 275.44 707.05 275.47 707.02 275.65 706.98 275.82 706.88 276.04 706.87 276.1 706.87 276.15 Z M 708.89 266.21 708.91 266.21 708.94 266.21 708.96 266.22 708.96 266.24 708.95 266.27 708.88 266.3 708.87 266.29 708.86 266.25 708.86 266.23 708.87 266.21 708.89 266.21 Z M 713.16 266.71 713.25 266.71 713.32 266.69 713.4 266.65 713.46 266.6 713.51 266.56 713.54 266.52 713.57 266.49 713.58 266.5 713.59 266.52 713.57 266.53 713.58 266.56 713.57 266.57 713.56 266.58 713.56 266.6 713.57 266.61 713.56 266.64 713.54 266.67 713.53 266.72 713.51 266.78 713.49 266.83 713.46 267 713.45 267.07 713.45 267.1 713.42 267.28 713.42 267.34 713.43 267.37 713.42 267.41 713.43 267.45 713.43 267.48 713.41 267.66 713.41 267.81 713.42 267.94 713.42 267.98 713.45 268.28 713.49 268.55 713.52 268.71 713.59 268.93 713.62 268.99 713.64 269.02 713.7 269.09 713.73 269.11 713.77 269.11 713.79 269.09 713.83 269.08 713.84 269.11 713.86 269.14 713.93 269.2 714.06 269.35 714.08 269.37 714.14 269.46 714.16 269.51 714.2 269.54 714.22 269.58 714.23 269.61 714.26 269.69 714.27 269.7 714.28 269.74 714.29 269.76 714.33 269.81 714.39 269.93 714.42 270 714.4 270.03 714.38 270.04 714.36 270.06 714.35 270.09 714.35 270.12 714.38 270.14 714.44 270.17 714.47 270.19 714.49 270.25 714.47 270.28 714.43 270.32 714.41 270.38 714.42 270.45 714.45 270.49 714.59 270.62 714.61 270.64 714.64 270.65 714.65 270.66 714.67 270.72 714.68 270.75 714.68 270.78 714.67 270.81 714.64 270.85 714.64 270.87 714.66 270.92 714.68 270.94 714.69 270.96 714.7 270.99 714.71 271.08 714.72 271.11 714.77 271.29 714.78 271.3 714.78 271.32 714.78 271.34 714.79 271.36 714.78 271.38 714.75 271.41 714.75 271.43 714.73 271.49 714.72 271.62 714.72 271.66 714.69 271.73 714.68 271.77 714.69 271.8 714.79 271.7 714.85 271.69 714.84 271.71 714.83 271.73 714.83 271.75 714.85 271.77 714.83 271.81 714.83 271.84 714.9 271.91 714.91 271.91 714.92 271.92 714.92 271.94 714.92 271.97 714.91 271.98 714.9 271.99 714.89 272.01 714.88 272.02 714.8 272.12 714.77 272.14 714.69 272.17 714.66 272.2 714.7 272.25 714.76 272.24 714.81 272.2 714.83 272.15 714.85 272.13 714.88 272.15 714.9 272.18 714.87 272.2 714.86 272.21 714.85 272.26 714.85 272.3 714.84 272.32 714.79 272.33 714.77 272.33 714.75 272.33 714.72 272.34 714.7 272.35 714.66 272.4 714.63 272.41 714.69 272.44 714.66 272.48 714.6 272.52 714.56 272.57 714.6 272.59 714.65 272.57 714.69 272.54 714.72 272.51 714.73 272.58 714.69 272.62 714.58 272.67 714.6 272.68 714.61 272.7 714.62 272.73 714.6 272.73 714.56 272.73 714.54 272.73 714.54 272.76 714.54 272.8 714.61 272.81 714.65 272.8 714.65 272.8 714.65 272.86 714.61 272.91 714.55 272.93 714.5 272.92 714.5 272.96 714.53 272.98 714.6 272.98 714.58 273.03 714.53 273.06 714.48 273.07 714.42 273.08 714.46 273.12 714.56 273.2 714.57 273.23 714.52 273.26 714.4 273.21 714.36 273.25 714.46 273.3 714.48 273.33 714.46 273.34 714.43 273.35 714.4 273.35 714.37 273.35 714.37 273.37 714.4 273.38 714.43 273.41 714.45 273.44 714.43 273.45 714.34 273.43 714.25 273.44 714.2 273.44 714.16 273.41 714.16 273.45 714.18 273.48 714.19 273.51 714.21 273.54 714.18 273.54 714.16 273.55 714.13 273.58 714.16 273.6 714.18 273.62 714.17 273.65 714.14 273.66 714.11 273.65 714.08 273.62 714.06 273.59 714.04 273.56 714.07 273.55 714.09 273.52 713.99 273.52 713.97 273.55 713.97 273.61 713.98 273.73 714.03 273.87 714.04 273.93 714 273.89 713.99 273.88 713.98 273.84 713.97 273.83 713.96 273.82 713.95 273.82 713.94 273.83 713.92 273.83 713.88 273.84 713.85 273.84 713.85 273.87 713.84 273.92 713.85 273.98 713.86 274 713.85 274.02 713.82 274.06 713.73 274.13 713.71 274.17 713.73 274.18 713.74 274.2 713.77 274.24 713.81 274.28 713.82 274.31 713.81 274.35 713.79 274.36 713.78 274.35 713.77 274.34 713.75 274.34 713.74 274.35 713.71 274.39 713.69 274.4 713.64 274.42 713.62 274.44 713.58 274.47 713.58 274.49 713.6 274.51 713.63 274.53 713.73 274.53 713.74 274.55 713.72 274.59 713.7 274.63 713.68 274.65 713.59 274.73 713.62 274.76 713.66 274.81 713.69 274.83 713.72 274.79 713.75 274.83 713.76 274.87 713.76 274.92 713.75 274.98 713.73 274.97 713.71 274.95 713.7 274.93 713.69 274.9 713.66 275.01 713.65 275.03 713.66 275.04 713.67 275.05 713.67 275.06 713.68 275.08 713.62 275.09 713.6 275.11 713.59 275.12 713.61 275.15 713.61 275.18 713.61 275.2 713.63 275.23 713.66 275.21 713.7 275.2 713.74 275.21 713.77 275.25 713.73 275.24 713.7 275.23 713.68 275.25 713.66 275.29 713.71 275.32 713.72 275.38 713.72 275.44 713.75 275.48 713.74 275.5 713.71 275.58 713.7 275.57 713.64 275.51 713.62 275.5 713.59 275.5 713.58 275.49 713.57 275.47 713.58 275.45 713.59 275.44 713.59 275.42 713.56 275.4 713.49 275.37 713.51 275.35 713.52 275.29 713.5 275.26 713.48 275.26 713.46 275.27 713.43 275.27 713.41 275.26 713.38 275.25 713.33 275.2 713.29 275.18 713.22 275.18 713.06 275.22 713 275.25 712.95 275.29 712.93 275.35 712.94 275.42 712.93 275.42 712.89 275.42 712.88 275.4 712.84 275.29 712.82 275.3 712.8 275.31 712.78 275.3 712.77 275.29 712.73 275.32 712.69 275.36 712.67 275.41 712.66 275.46 712.68 275.45 712.7 275.45 712.73 275.46 712.74 275.48 712.73 275.5 712.71 275.52 712.69 275.53 712.67 275.55 712.59 275.64 712.52 275.75 712.48 275.85 712.39 276.19 712.37 276.31 712.37 276.43 712.4 276.63 712.4 276.64 712.46 276.75 712.54 276.89 712.56 276.99 712.57 277.03 712.59 277.06 712.6 277.09 712.6 277.15 712.59 277.17 712.57 277.21 712.57 277.23 712.58 277.25 712.61 277.29 712.61 277.31 712.64 278.07 712.63 278.16 712.58 278.36 712.58 278.45 712.57 278.48 712.57 278.74 712.56 278.77 712.52 278.86 712.49 279.11 712.46 279.2 712.39 279.28 712.37 279.29 712.31 279.3 712.24 279.35 712.18 279.36 712.15 279.4 712.13 279.41 712.12 279.43 712.11 279.46 712.11 279.51 712.1 279.53 712.09 279.56 712 279.7 711.98 279.75 711.87 280.16 711.75 280.38 711.72 280.47 711.69 280.67 711.69 280.71 711.72 280.82 711.72 280.86 711.7 280.93 711.62 281.02 711.58 281.08 711.59 281.18 711.62 281.42 711.69 281.6 711.77 281.82 712.08 282.38 712.18 282.51 712.2 282.56 712.22 282.57 712.24 282.58 712.25 282.58 712.27 282.59 712.28 282.62 712.26 282.68 712.24 282.7 712.21 282.68 712.2 282.66 712.17 282.63 712.11 282.65 712.04 282.68 711.93 282.72 711.92 282.67 711.8 282.7 711.65 282.8 711.41 283.04 711.27 283.24 711.19 283.54 711.23 283.68 711.25 283.75 711.23 283.86 711.22 283.97 711.21 284.03 711.17 284.09 711.11 284.08 711.07 284.14 711.07 284.18 711.05 284.21 711.01 284.2 710.99 284.17 710.95 284.21 710.89 284.2 710.86 284.26 710.78 284.25 710.68 284.25 710.63 284.23 710.57 284.3 710.56 284.36 710.5 284.4 710.46 284.41 710.38 284.46 710.31 284.51 710.29 284.54 710.28 284.59 710.25 284.63 710.26 284.67 710.25 284.72 710.23 284.76 710.21 284.78 710.17 284.81 710.11 284.83 710.07 284.83 710.05 284.82 710.01 284.83 709.99 284.83 709.97 284.82 709.94 284.8 709.95 284.78 709.94 284.74 709.91 284.72 709.84 284.69 709.79 284.68 709.78 284.66 709.79 284.63 709.81 284.63 709.85 284.63 709.88 284.64 709.91 284.63 709.94 284.61 709.95 284.59 709.98 284.59 710.02 284.6 710.04 284.59 710.05 284.57 710.04 284.53 710.01 284.51 709.97 284.49 709.97 284.46 709.99 284.44 710 284.41 710 284.38 709.97 284.33 709.97 284.3 709.97 284.2 709.93 284.14 709.94 284.1 709.93 284.07 709.94 284.03 710.01 283.99 710.03 283.96 710.04 283.9 710 283.83 710 283.77 709.91 283.74 709.85 283.72 709.85 283.71 709.89 283.71 709.94 283.68 709.94 283.63 709.98 283.59 709.99 283.55 710.1 283.58 710.13 283.54 710.13 283.51 710.11 283.42 710.14 283.39 710.2 283.37 710.24 283.33 710.29 283.33 710.35 283.29 710.38 283.24 710.43 283.18 710.49 283.1 710.53 283.1 710.55 283.06 710.56 283.03 710.52 283.03 710.52 282.98 710.51 282.93 710.47 282.9 710.44 282.86 710.41 282.83 710.35 282.78 710.32 282.79 710.3 282.76 710.22 282.75 710.16 282.77 710.2 282.84 710.14 282.88 710.11 282.9 710.09 282.88 710.07 282.87 710.05 282.86 710.03 282.86 710 282.84 709.99 282.86 709.97 282.9 709.94 282.88 709.94 282.84 709.91 282.84 709.89 282.89 709.87 282.93 709.83 282.9 709.84 282.83 709.81 282.8 709.8 282.86 709.82 282.94 709.86 283 709.86 283.03 709.89 283.11 709.86 283.14 709.86 283.18 709.86 283.18 709.84 283.21 709.77 283.26 709.7 283.31 709.64 283.32 709.6 283.3 709.56 283.31 709.54 283.34 709.58 283.36 709.63 283.38 709.64 283.4 709.63 283.43 709.64 283.48 709.61 283.48 709.56 283.46 709.53 283.48 709.54 283.52 709.57 283.55 709.57 283.65 709.56 283.68 709.56 283.73 709.55 283.76 709.57 283.79 709.59 283.76 709.62 283.78 709.66 283.84 709.74 283.85 709.77 283.89 709.73 283.94 709.73 283.95 709.74 283.96 709.74 283.96 709.73 284.01 709.64 284 709.59 284.04 709.58 284.08 709.6 284.13 709.62 284.16 709.64 284.19 709.61 284.2 709.59 284.2 709.54 284.19 709.5 284.21 709.48 284.2 709.47 284.18 709.48 284.15 709.48 284.1 709.45 284.02 709.5 283.99 709.49 283.97 709.46 283.96 709.44 283.92 709.38 283.84 709.37 283.82 709.36 283.79 709.33 283.79 709.32 283.73 709.28 283.75 709.24 283.74 709.2 283.75 709.15 283.72 709.04 283.7 708.85 283.74 708.74 283.77 708.63 283.79 708.52 283.85 708.44 283.93 708.43 284.07 708.47 284.2 708.38 284.16 708.31 284.27 708.29 284.36 708.28 284.42 708.35 284.43 708.34 284.48 708.33 284.53 708.31 284.57 708.34 284.63 708.41 284.66 708.43 284.72 708.45 284.82 708.43 284.91 708.38 284.92 708.34 284.95 708.31 284.99 708.3 285.03 708.28 285.08 708.25 285.12 708.23 285.16 708.21 285.19 708.18 285.2 708.16 285.23 708.14 285.25 708.11 285.28 708.12 285.31 708.11 285.33 708.09 285.37 708.08 285.42 708.09 285.47 708.1 285.51 708.08 285.52 708.06 285.52 708.04 285.5 707.99 285.48 707.89 285.56 707.81 285.6 707.75 285.65 707.72 285.63 707.69 285.6 707.66 285.57 707.61 285.51 707.62 285.47 707.62 285.45 707.6 285.43 707.58 285.43 707.57 285.42 707.55 285.39 707.55 285.35 707.55 285.29 707.58 285.27 707.59 285.24 707.62 285.23 707.58 285.15 707.56 285.07 707.58 285.02 707.59 284.98 707.59 284.97 707.59 284.92 707.57 284.89 707.59 284.85 707.62 284.82 707.65 284.82 707.63 284.77 707.62 284.75 707.59 284.68 707.59 284.62 707.62 284.56 707.64 284.49 707.73 284.5 707.8 284.51 707.84 284.51 707.88 284.51 707.91 284.48 707.79 284.35 707.76 284.3 707.68 284.24 707.55 284.2 707.44 284.19 707.37 284.22 707.31 284.25 707.2 284.26 707.13 284.31 707.07 284.43 707 284.48 707 284.56 707.02 284.59 707.02 284.53 707.05 284.51 707.08 284.52 707.04 284.62 706.94 284.67 706.85 284.71 706.79 284.75 706.71 284.79 706.68 284.82 706.67 284.87 706.65 284.9 706.63 284.95 706.63 284.98 706.66 285.03 706.62 285.08 706.6 285.11 706.55 285.19 706.45 285.27 706.38 285.34 706.35 285.48 706.33 285.53 706.35 285.58 706.4 285.6 706.43 285.63 706.42 285.65 706.32 285.64 706 285.49 705.83 285.46 705.66 285.46 705.44 285.53 705.2 285.45 705 285.43 704.9 285.43 704.63 285.46 704.44 285.51 704 285.67 703.9 285.66 703.78 285.69 703.75 285.69 703.72 285.7 703.74 285.66 703.75 285.64 703.78 285.59 703.8 285.51 703.84 285.47 703.91 285.53 703.92 285.55 703.93 285.57 703.95 285.55 703.95 285.54 703.99 285.52 704.02 285.5 704.06 285.49 704.12 285.44 704.22 285.38 704.26 285.36 704.31 285.29 704.34 285.3 704.35 285.35 704.34 285.39 704.36 285.4 704.37 285.35 704.37 285.3 704.42 285.32 704.44 285.3 704.38 285.27 704.39 285.22 704.4 285.19 704.4 285.17 704.34 285.11 704.3 285.08 704.27 285.09 704.23 285.08 704.18 285.06 704.14 285.1 704.11 285.08 704.11 285.13 704.1 285.18 704.06 285.2 704.06 285.15 704.03 285.15 703.99 285.14 703.95 285.13 703.91 285.14 703.88 285.17 703.84 285.14 703.79 285.16 703.75 285.16 703.72 285.15 703.69 285.1 703.67 285.08 703.63 285.03 703.59 285.02 703.6 284.95 703.64 284.84 703.64 284.77 703.62 284.8 703.59 284.87 703.55 284.94 703.53 284.98 703.52 285.03 703.5 285.17 703.52 285.2 703.54 285.25 703.6 285.28 703.62 285.33 703.62 285.38 703.56 285.37 703.49 285.34 703.41 285.29 703.36 285.26 703.34 285.23 703.34 285.19 703.36 285.14 703.37 285.09 703.38 285.04 703.38 285 703.36 284.95 703.34 284.91 703.3 284.91 703.29 284.85 703.29 284.78 703.29 284.73 703.29 284.69 703.31 284.64 703.34 284.59 703.37 284.54 703.39 284.5 703.42 284.45 703.42 284.37 703.43 284.32 703.4 284.31 703.37 284.4 703.35 284.46 703.34 284.4 703.34 284.36 703.31 284.35 703.33 284.48 703.27 284.49 703.26 284.43 703.24 284.43 703.24 284.5 703.19 284.51 703.13 284.49 703.12 284.5 703.08 284.49 702.98 284.56 702.93 284.61 702.91 284.65 702.9 284.67 702.89 284.69 702.89 284.7 702.9 284.72 702.93 284.72 702.9 284.75 702.9 284.8 702.88 284.86 702.83 284.96 702.72 285.1 702.65 285.19 702.64 285.31 702.62 285.37 702.62 285.42 702.62 285.43 702.65 285.48 702.66 285.49 702.68 285.5 702.68 285.53 702.67 285.57 702.66 285.6 702.69 285.63 702.73 285.65 702.82 285.65 702.87 285.66 702.9 285.69 702.94 285.73 702.97 285.76 703.13 285.87 703.25 285.92 703.27 285.94 703.3 285.93 703.33 285.94 703.36 285.95 703.38 285.96 703.39 285.99 703.4 286.02 703.4 286.05 703.42 286.07 703.45 286.08 703.48 286.08 703.5 286.08 703.52 286.11 703.52 286.14 703.5 286.24 703.47 286.22 703.45 286.22 703.42 286.23 703.41 286.26 703.42 286.27 703.43 286.29 703.46 286.3 703.48 286.29 703.45 286.33 703.44 286.34 703.42 286.37 703.44 286.39 703.46 286.44 703.46 286.49 703.45 286.53 703.43 286.55 703.35 286.58 703.32 286.58 703.28 286.58 703.23 286.57 703.18 286.54 703.18 286.51 703.21 286.5 703.26 286.51 703.31 286.53 703.33 286.55 703.33 286.53 703.32 286.51 703.32 286.49 703.35 286.51 703.36 286.46 703.34 286.42 703.3 286.41 703.26 286.42 703.26 286.44 703.26 286.45 703.26 286.46 703.26 286.48 703.18 286.42 703.14 286.45 703.08 286.47 703.02 286.45 703.04 286.41 703.07 286.36 703.03 286.35 702.97 286.37 702.91 286.4 702.95 286.42 702.95 286.45 702.92 286.48 702.85 286.51 702.81 286.54 702.78 286.54 702.74 286.49 702.73 286.51 702.72 286.52 702.71 286.53 702.71 286.55 702.65 286.52 702.63 286.51 702.61 286.54 702.6 286.57 702.59 286.58 702.61 286.63 702.58 286.63 702.51 286.6 702.41 286.67 702.39 286.7 702.32 286.7 702.21 286.75 702.13 286.83 702.13 286.91 702.15 286.93 702.17 286.94 702.17 286.95 702.16 286.99 702.15 287 702.13 287.01 702.11 287.02 702.1 287.02 702.07 287.01 702.04 286.96 702.03 286.95 702.01 286.96 701.98 287.02 701.95 287.04 701.95 287.06 701.98 287.06 702.01 287.07 702.02 287.09 702.03 287.13 702.07 287.17 702.09 287.19 702.08 287.21 702.08 287.22 702.08 287.29 702.07 287.32 702.04 287.33 702.01 287.32 702 287.29 701.98 287.26 701.95 287.29 701.92 287.32 701.92 287.33 701.97 287.34 701.99 287.38 701.97 287.4 701.93 287.39 701.92 287.44 701.91 287.45 701.83 287.46 701.82 287.47 701.81 287.49 701.78 287.52 701.77 287.53 701.75 287.53 701.7 287.53 701.62 287.65 701.5 287.95 701.45 288.07 701.45 288.08 701.42 288.16 701.38 288.19 701.37 288.23 701.33 288.26 701.33 288.29 701.38 288.32 701.35 288.36 701.27 288.44 701.23 288.46 701.21 288.49 701.09 288.53 701.04 288.55 701.02 288.58 700.99 288.64 701 288.69 701 288.72 700.96 288.71 700.93 288.74 700.92 288.69 700.96 288.65 700.95 288.62 700.73 288.59 700.66 288.58 700.34 288.46 700.24 288.43 700.16 288.37 700.13 288.35 700.11 288.32 700.11 288.28 700.12 288.25 700.09 288.2 700.08 288.19 700.07 288.18 700.05 288.16 700.01 288.15 699.98 288.11 700.01 288.05 700.09 288.04 700.14 288.03 700.12 288 700.01 287.92 699.96 287.9 699.94 287.86 699.9 287.87 699.84 287.82 699.77 287.82 699.76 287.78 699.69 287.73 699.63 287.67 699.59 287.57 699.51 287.53 699.47 287.53 699.4 287.54 699.38 287.56 699.39 287.53 699.4 287.52 699.38 287.5 699.39 287.49 699.43 287.49 699.42 287.46 699.4 287.43 699.44 287.39 699.47 287.36 699.46 287.35 699.42 287.35 699.42 287.3 699.45 287.26 699.5 287.26 699.53 287.24 699.59 287.21 699.61 287.17 699.61 287.14 699.59 287.11 699.55 287.09 699.5 287.07 699.46 287.06 699.5 286.97 699.51 286.97 699.53 286.96 699.54 286.95 699.54 286.94 699.54 286.91 699.52 286.88 699.58 286.87 699.66 286.88 699.67 286.84 699.65 286.8 699.62 286.74 699.58 286.75 699.55 286.63 699.52 286.6 699.46 286.55 699.39 286.53 699.41 286.48 699.48 286.39 699.71 286.33 699.82 286.24 699.87 286.18 699.96 286.1 700.03 285.99 700.08 285.95 700.08 285.89 700.08 285.86 700.12 285.84 700.13 285.82 700.16 285.8 700.17 285.75 700.17 285.69 700.17 285.61 700.15 285.55 700.14 285.48 700.17 285.39 700.13 285.41 700.1 285.42 700.06 285.4 700.01 285.35 699.95 285.35 699.89 285.36 699.89 285.42 699.81 285.43 699.82 285.37 699.74 285.4 699.79 285.5 699.72 285.49 699.7 285.43 699.66 285.44 699.66 285.5 699.5 285.53 699.43 285.56 699.35 285.57 699.29 285.53 699.2 285.53 699.16 285.52 699.11 285.46 699.05 285.43 699 285.39 698.88 285.31 698.81 285.29 698.72 285.22 698.68 285.19 698.58 285.17 698.29 285.19 698.27 285.19 698.26 285.18 698.25 285.17 698.24 285.18 698.23 285.19 698.21 285.2 698.2 285.21 698.18 285.21 698.15 285.21 698.13 285.2 698.12 285.18 698.12 285.14 698.11 285.14 698.09 285.15 698.08 285.16 698.08 285.18 698.08 285.2 698.07 285.21 698.06 285.2 698.05 285.21 697.99 285.29 697.97 285.3 697.94 285.3 697.92 285.29 697.9 285.27 697.88 285.26 697.85 285.27 697.83 285.3 697.81 285.33 697.82 285.36 697.76 285.36 697.65 285.33 697.58 285.32 697.52 285.29 697.5 285.3 697.51 285.34 697.54 285.35 697.65 285.38 697.63 285.38 697.59 285.39 697.58 285.39 697.53 285.46 697.52 285.47 697.5 285.47 697.47 285.5 697.43 285.51 697.41 285.52 697.38 285.54 697.39 285.55 697.41 285.56 697.43 285.55 697.45 285.54 697.43 285.6 697.36 285.65 697.28 285.68 697.22 285.69 697.19 285.68 697.14 285.63 697.1 285.62 697.02 285.62 696.99 285.62 696.93 285.66 696.89 285.67 696.87 285.7 696.88 285.74 696.91 285.76 696.94 285.73 697 285.67 697.04 285.65 697.08 285.65 697.11 285.66 697.14 285.69 697.13 285.74 697.11 285.77 697.07 285.79 697.04 285.82 697.05 285.83 697.05 285.83 697.06 285.85 697 285.83 696.96 285.89 696.93 285.98 696.89 286.04 696.72 286.01 696.64 286.01 696.65 286.07 696.58 286.06 696.55 286 696.52 285.94 696.47 285.89 696.45 285.9 696.44 285.89 696.43 285.86 696.42 285.83 696.41 285.85 696.37 285.84 696.34 285.85 696.3 285.88 696.24 285.9 696.14 285.95 696.12 285.97 696.11 285.99 696.1 286 696.08 286.01 696.04 286.02 696.02 286.03 696.01 286.04 696 286.05 695.86 286.11 695.95 286.01 695.97 285.95 695.93 285.93 695.9 285.93 695.86 285.97 695.83 285.98 695.77 285.98 695.75 285.99 695.74 286.04 695.75 286.05 695.73 286.11 695.57 286.31 695.54 286.34 695.47 286.37 695.44 286.38 695.41 286.38 695.4 286.36 695.41 286.34 695.44 286.33 695.47 286.32 695.49 286.31 695.51 286.26 695.49 286.23 695.44 286.22 695.39 286.22 695.39 286.2 695.43 286.17 695.41 286.12 695.36 286.1 695.33 286.24 695.29 286.27 695.25 286.3 695.22 286.33 695.26 286.37 695.28 286.42 695.27 286.47 695.23 286.49 695.21 286.49 695.18 286.46 695.17 286.46 695.16 286.46 695.14 286.49 695.09 286.5 695.04 286.56 695.02 286.57 694.99 286.55 694.97 286.5 694.98 286.39 694.99 286.4 695.01 286.37 695.05 286.32 695.07 286.3 695.08 286.33 695.08 286.37 695.07 286.4 695.11 286.39 695.14 286.3 695.19 286.29 695.19 286.27 695.15 286.24 695.11 286.22 695.09 286.22 695.07 286.22 695.05 286.22 695.02 286.2 694.99 286.22 695.01 286.31 694.95 286.35 694.86 286.38 694.62 286.4 694.56 286.43 694.49 286.48 694.45 286.41 694.41 286.43 694.37 286.48 694.32 286.51 694.29 286.52 694.29 286.54 694.31 286.57 694.32 286.59 694.31 286.61 694.28 286.62 694.21 286.62 694.16 286.64 694.05 286.71 693.99 286.71 693.98 286.7 693.97 286.68 693.96 286.67 693.96 286.66 693.94 286.66 693.93 286.68 693.92 286.69 693.91 286.7 693.86 286.73 693.83 286.73 693.81 286.7 693.84 286.66 693.82 286.63 693.78 286.59 693.75 286.52 693.72 286.49 693.72 286.48 693.72 286.44 693.72 286.42 693.73 286.4 693.72 286.37 693.73 286.36 693.76 286.35 693.78 286.35 693.77 286.32 693.75 286.3 693.7 286.27 693.67 286.3 693.62 286.31 693.58 286.31 693.5 286.26 693.45 286.27 693.37 286.31 693.29 286.37 693.09 286.6 693.11 286.64 693.13 286.7 693.13 286.74 693.14 286.8 693.13 286.86 693.1 286.89 693.07 286.91 693.05 286.95 693.04 287.07 693.07 287.17 693.07 287.27 693 287.35 692.95 287.38 692.92 287.38 692.9 287.4 692.9 287.47 692.91 287.52 692.95 287.62 692.96 287.66 692.93 287.69 692.83 287.75 692.77 287.81 692.72 287.83 692.69 287.84 692.7 287.79 692.75 287.75 692.75 287.74 692.77 287.7 692.77 287.68 692.79 287.71 692.82 287.71 692.84 287.69 692.85 287.65 692.84 287.61 692.82 287.58 692.79 287.56 692.77 287.54 692.73 287.52 692.59 287.47 692.54 287.46 692.53 287.45 692.47 287.37 692.45 287.36 692.39 287.33 692.36 287.32 692.31 287.27 692.27 287.25 692.23 287.25 692.18 287.32 692.22 287.32 692.22 287.33 692.14 287.34 692.11 287.32 692.11 287.28 692.17 287.23 692.21 287.19 692.21 287.17 692.19 287.16 692.16 287.14 692.03 287.09 691.94 287.12 691.91 287.12 691.88 287.13 691.81 287.16 691.79 287.17 691.73 287.17 691.72 287.16 691.71 287.14 691.7 287.14 691.68 287.17 691.7 287.2 691.71 287.23 691.7 287.26 691.67 287.28 691.65 287.28 691.64 287.28 691.64 287.27 691.64 287.25 691.63 287.23 691.62 287.23 691.61 287.24 691.6 287.24 691.53 287.22 691.52 287.21 691.48 287.17 691.45 287.16 691.42 287.17 691.43 287.19 691.43 287.2 691.42 287.22 691.42 287.22 691.4 287.24 691.39 287.26 691.39 287.27 691.38 287.28 691.38 287.29 691.36 287.3 691.35 287.29 691.33 287.28 691.32 287.26 691.32 287.24 691.3 287.27 691.29 287.29 691.28 287.29 691.26 287.28 691.27 287.24 691.28 287.19 691.27 287.15 691.25 287.14 691.23 287.15 691.17 287.27 691.12 287.34 691.1 287.37 690.99 287.44 690.96 287.44 690.94 287.41 690.92 287.42 690.9 287.42 690.88 287.41 690.88 287.4 690.87 287.37 690.86 287.37 690.85 287.38 690.83 287.39 690.83 287.39 690.81 287.41 690.8 287.42 690.78 287.43 690.77 287.42 690.76 287.4 690.74 287.37 690.74 287.34 690.75 287.31 690.75 287.3 690.73 287.3 690.66 287.24 690.61 287.16 690.54 287.14 690.46 287.11 690.41 287.2 690.31 287.32 690.23 287.39 690.22 287.45 690.2 287.47 690.16 287.44 690.15 287.42 690.12 287.41 690.12 287.37 690.16 287.37 690.18 287.31 690.18 287.28 690.19 287.24 690.2 287.21 690.19 287.18 690.17 287.16 690.19 287.1 690.17 287.07 690.11 287.06 690.1 287.03 690.09 287 690.08 286.97 690.08 286.94 690.1 286.9 690.13 286.87 690.16 286.85 690.19 286.83 690.21 286.79 690.21 286.75 690.21 286.73 690.2 286.71 690.18 286.64 690.15 286.59 690.15 286.56 690.14 286.55 690.11 286.52 690.1 286.5 690.11 286.48 690.12 286.46 690.13 286.44 690.14 286.36 690.15 286.33 690.16 286.29 690.19 286.31 690.22 286.31 690.25 286.31 690.27 286.28 690.28 286.28 690.37 286.26 690.41 286.24 690.46 286.22 690.42 286.19 690.39 286.19 690.31 286.17 690.28 286.16 690.27 286.19 690.26 286.19 690.24 286.18 690.25 286.15 690.27 286.12 690.29 286.1 690.33 286.07 690.36 286.08 690.39 286.1 690.39 286.13 690.41 286.15 690.43 286.15 690.47 286.14 690.5 286.13 690.52 286.12 690.55 286.11 690.6 286.14 690.64 286.15 690.68 286.14 690.7 286.23 690.72 286.26 690.77 286.26 690.78 286.23 690.81 286.19 690.77 286.15 690.76 286.13 690.76 286.1 690.81 286.11 690.84 286.1 690.9 286.08 690.94 286.07 690.97 286.1 691.01 286.15 690.97 286.15 690.94 286.12 690.92 286.12 690.89 286.13 690.88 286.15 690.86 286.18 690.85 286.22 690.85 286.26 690.86 286.25 690.89 286.23 690.91 286.22 691.01 286.22 691.1 286.19 691.13 286.13 691.19 286.13 691.3 286.11 691.3 286.03 691.33 286 691.39 285.93 691.41 285.91 691.39 285.86 691.41 285.84 691.45 285.83 691.54 285.77 691.57 285.73 691.6 285.69 691.61 285.66 691.62 285.6 691.64 285.59 691.68 285.59 691.7 285.59 691.7 285.57 691.7 285.53 691.71 285.48 691.75 285.46 691.78 285.48 691.84 285.5 691.87 285.47 691.88 285.45 691.89 285.44 691.96 285.45 692.04 285.44 692.14 285.41 692.21 285.38 692.25 285.36 692.29 285.33 692.3 285.27 692.3 285.25 692.32 285.21 692.37 285.2 692.38 285.18 692.43 285.13 692.5 285.07 692.59 285 692.65 284.93 692.68 284.9 692.72 284.91 692.73 284.87 692.74 284.81 692.85 284.72 692.89 284.68 692.95 284.63 693.08 284.53 693.12 284.47 693.2 284.46 693.25 284.43 693.3 284.4 693.32 284.32 693.39 284.26 693.44 284.23 693.46 284.2 693.46 284.17 693.49 284.13 693.5 284.09 693.64 283.99 693.7 283.94 693.77 283.9 693.78 283.87 693.82 283.86 693.88 283.83 693.98 283.8 694.02 283.77 694.04 283.72 694.07 283.68 694.09 283.61 694.09 283.56 694.09 283.52 694.09 283.49 694.05 283.47 694 283.43 693.98 283.4 694.01 283.37 694.05 283.37 694.11 283.35 694.15 283.35 694.23 283.35 694.26 283.35 694.27 283.33 694.25 283.31 694.21 283.29 694.23 283.29 694.27 283.28 694.32 283.27 694.38 283.23 694.46 283.2 694.52 283.18 694.64 283.18 694.7 283.16 694.75 283.17 694.76 283.1 694.8 283.09 694.85 283.1 694.89 283.09 694.91 283.05 694.93 283.01 694.96 283 695 283.01 695.02 282.98 695.02 282.94 695.05 282.95 695.08 282.98 695.13 283.02 695.16 283.04 695.24 283.02 695.28 283.02 695.31 282.99 695.33 283 695.31 283.03 695.32 283.04 695.35 283.04 695.36 283.03 695.41 283.01 695.45 283.01 695.5 283 695.54 283.03 695.51 283.05 695.48 283.06 695.45 283.07 695.42 283.08 695.39 283.12 695.38 283.12 695.38 283.15 695.39 283.19 695.4 283.22 695.47 283.27 695.55 283.31 695.62 283.32 695.66 283.33 695.7 283.34 695.74 283.33 695.79 283.24 695.91 283.19 695.98 283.15 696.1 283.12 696.22 283.16 696.44 283.21 696.84 283.17 697.05 283.11 697.11 283.16 697.42 283.12 697.56 283.09 697.61 283.07 697.66 283.04 697.68 282.98 697.79 282.96 697.81 282.96 697.83 282.95 697.87 282.91 697.95 282.89 698.07 282.84 698.14 282.8 698.22 282.75 698.34 282.78 698.47 282.77 698.57 282.77 698.73 282.76 698.8 282.76 698.84 282.77 698.88 282.79 698.9 282.82 698.95 282.78 698.99 282.79 699 282.82 699.02 282.81 699.06 282.82 699.09 282.83 699.13 282.79 699.15 282.79 699.17 282.78 699.16 282.74 699.22 282.7 699.27 282.7 699.31 282.69 699.35 282.67 699.44 282.6 699.44 282.57 699.55 282.53 699.66 282.51 699.72 282.5 699.75 282.47 699.81 282.51 699.83 282.56 699.86 282.59 699.9 282.64 699.92 282.7 699.93 282.75 699.91 282.79 699.87 282.76 699.82 282.79 699.8 282.85 699.79 282.88 699.77 282.9 699.7 282.98 699.67 283.04 699.67 283.09 699.68 283.11 699.71 283.1 699.71 283.05 699.74 283.03 699.77 282.98 699.8 282.97 699.81 283.02 699.84 283.03 699.85 283.04 699.83 283.06 699.81 283.06 699.78 283.06 699.78 283.1 699.92 283.18 699.95 283.16 699.97 283.15 699.99 283.19 699.98 283.23 699.97 283.25 699.95 283.3 699.94 283.33 699.96 283.36 699.98 283.34 700 283.29 700.03 283.25 700.07 283.25 700.13 283.28 700.14 283.26 700.14 283.19 700.08 283.21 700.03 283.19 700 283.11 700.05 283.07 700.08 283.06 700.14 283.06 700.17 283.05 700.19 283.02 700.22 283 700.22 282.97 700.28 282.93 700.27 282.98 700.25 283.02 700.29 283.04 700.32 283.05 700.31 283.1 700.32 283.12 700.31 283.14 700.31 283.15 700.33 283.16 700.35 283.15 700.36 283.13 700.39 283.08 700.39 283.13 700.38 283.18 700.38 283.22 700.42 283.23 700.49 283.24 700.51 283.23 700.53 283.22 700.57 283.2 700.59 283.17 700.64 283.13 700.69 283.1 700.73 283.12 700.72 283.13 700.67 283.16 700.66 283.23 700.63 283.25 700.68 283.27 700.79 283.24 700.86 283.24 700.89 283.22 700.91 283.18 700.91 283.12 700.85 283.15 700.82 283.1 700.78 283.09 700.82 283.05 700.89 283.02 700.91 283.04 700.93 283.08 700.97 283.08 701.01 283.13 701.05 283.14 701.1 283.12 701.08 283.11 701.06 283.09 701.03 283.03 701.03 283.01 701.06 283 701.08 283.03 701.11 283.01 701.14 283 701.14 282.98 701.12 282.97 701.11 282.95 701.1 282.91 701.09 282.9 701.06 282.86 701.05 282.83 701.07 282.82 701.11 282.85 701.14 282.88 701.17 282.89 701.25 282.88 701.27 282.9 701.29 282.92 701.33 282.89 701.36 282.86 701.4 282.87 701.42 282.86 701.43 282.82 701.39 282.79 701.41 282.74 701.41 282.7 701.4 282.66 701.37 282.67 701.37 282.59 701.43 282.56 701.51 282.49 701.54 282.55 701.54 282.57 701.55 282.61 701.57 282.66 701.56 282.69 701.54 282.69 701.53 282.72 701.56 282.75 701.57 282.78 701.62 282.77 701.63 282.73 701.65 282.71 701.65 282.7 701.65 282.66 701.67 282.63 701.67 282.6 701.67 282.55 701.69 282.51 701.69 282.47 701.66 282.41 701.64 282.37 701.62 282.33 701.57 282.29 701.49 282.21 701.45 282.17 701.46 282.09 701.45 282.03 701.4 281.96 701.37 281.93 701.39 281.86 701.44 281.82 701.47 281.79 701.51 281.7 701.54 281.63 701.56 281.55 701.67 281.41 701.71 281.35 701.73 281.31 701.77 281.24 701.73 281.18 701.74 281.16 701.79 281.16 701.83 281.17 701.9 281.13 702.08 280.97 702.13 280.91 702.24 280.86 702.31 280.79 702.42 280.67 702.89 280.04 703 279.85 703.15 279.47 703.16 279.42 703.16 279.35 703.15 279.33 703.13 279.32 703.13 279.29 703.15 279.24 703.17 279.16 703.15 279.11 703.11 279.07 703.09 278.98 703.06 278.96 703.06 278.9 703.08 278.76 703.06 278.72 703.04 278.7 703.01 278.7 703.01 278.73 702.97 278.73 702.95 278.7 702.96 278.63 702.98 278.56 703 278.52 703.03 278.48 703.01 278.45 703.05 278.42 703.08 278.36 703.09 278.32 703.07 278.29 703.07 278.21 703.13 278.12 703.2 278.08 703.33 278 703.42 277.98 703.47 278.01 703.54 278 703.78 277.87 703.84 277.86 703.89 277.8 703.94 277.76 704.25 277.66 704.34 277.64 704.44 277.68 704.46 277.71 704.45 277.76 704.45 277.79 704.48 277.82 704.47 277.85 704.46 277.88 704.4 277.89 704.37 277.89 704.32 277.88 704.28 277.9 704.25 277.92 704.23 277.96 704.21 278.06 704.24 278.12 704.28 278.13 704.27 278.17 704.27 278.21 704.25 278.24 704.21 278.28 704.19 278.3 704.15 278.3 704.05 278.28 703.92 278.33 703.89 278.39 703.84 278.45 703.84 278.51 703.8 278.53 703.76 278.54 703.74 278.58 703.71 278.6 703.64 278.57 703.6 278.54 703.56 278.51 703.59 278.48 703.59 278.46 703.57 278.46 703.55 278.49 703.53 278.5 703.52 278.52 703.5 278.56 703.45 278.63 703.42 278.71 703.45 278.73 703.45 278.79 703.43 278.81 703.39 278.8 703.39 278.86 703.38 278.9 703.41 278.92 703.45 278.91 703.49 278.88 703.54 278.89 703.6 278.97 703.64 278.98 703.69 278.96 703.74 278.85 703.77 278.83 703.79 278.84 703.8 278.89 703.79 279.05 703.8 279.2 703.74 279.28 703.74 279.35 703.66 279.47 703.7 279.56 703.8 279.63 703.86 279.69 703.97 279.73 704.03 279.77 704.12 279.78 704.22 279.76 704.35 279.78 704.42 279.77 704.46 279.71 704.53 279.66 704.56 279.59 704.59 279.54 704.6 279.49 704.61 279.45 704.6 279.4 704.63 279.33 704.68 279.29 704.79 279.23 704.98 279.19 705.2 279.14 705.47 279.03 705.67 278.95 705.9 278.8 706.02 278.75 706.07 278.7 706.12 278.64 706.26 278.66 706.36 278.64 706.44 278.6 706.62 278.47 706.87 278.22 707.12 278.06 707.18 277.99 707.22 277.9 707.28 277.79 707.36 277.66 707.49 277.54 707.55 277.46 707.6 277.35 707.69 277 707.73 276.9 707.8 276.81 707.96 276.68 708.25 276.48 708.27 276.46 708.32 276.46 708.41 276.44 708.6 276.36 708.65 276.32 708.79 276.21 709.02 275.96 709.06 275.91 709.08 275.86 709.14 275.28 709.16 275.17 709.21 275.05 709.29 274.9 709.4 274.62 709.44 274.51 709.51 274.41 709.7 274.23 709.77 274.14 709.83 274.03 709.92 273.68 710.02 273.42 710.04 273.33 710.05 273.23 710.07 273.18 710.09 273.13 710.1 273.08 710.11 272.96 710.12 272.87 710.15 272.76 710.18 272.69 710.25 272.66 710.32 272.58 710.38 272.35 710.44 272.07 710.46 271.52 710.46 271.43 710.42 271.31 710.42 271.24 710.39 271.15 710.34 271.08 710.26 271 710.16 270.94 710.06 270.96 710.03 270.99 710.01 271.02 709.99 271.05 709.95 271.06 709.8 271.06 709.78 271.03 709.75 270.96 709.74 270.93 709.69 270.87 709.68 270.81 709.71 270.79 709.67 270.76 709.66 270.68 709.67 270.63 709.76 270.7 709.89 270.76 709.94 270.76 710.04 270.7 710.12 270.6 710.28 270.29 710.32 270.16 710.31 270.1 710.34 270.01 710.36 269.97 710.38 269.69 710.39 269.62 710.36 269.59 710.33 269.56 710.25 269.48 710.21 269.44 710.21 269.39 710.21 269.27 710.21 269.14 710.21 269.07 710.18 269.05 710.17 269 710.15 268.95 710.06 268.96 710.02 268.94 710.02 268.89 710.07 268.84 710.11 268.79 710.17 268.78 710.2 268.71 710.24 268.69 710.27 268.64 710.3 268.57 710.33 268.5 710.44 268.43 710.49 268.43 710.54 268.48 710.57 268.49 710.6 268.49 710.64 268.48 710.68 268.44 710.77 268.37 710.82 268.39 710.87 268.38 710.91 268.34 710.93 268.3 710.99 268.12 711.02 267.93 711.03 267.88 711.03 267.81 711.04 267.75 711.05 267.67 711.05 267.67 711.09 267.73 711.11 267.75 711.14 267.77 711.15 267.79 711.18 267.78 711.17 267.71 711.15 267.68 711.17 267.67 711.19 267.66 711.21 267.67 711.24 267.67 711.23 267.65 711.22 267.63 711.17 267.64 711.15 267.64 711.11 267.63 711.1 267.62 711.09 267.6 711.07 267.61 711.06 267.63 711.05 267.61 711.05 267.54 711.05 267.5 711 267.42 710.96 267.4 710.92 267.39 710.88 267.39 710.88 267.36 710.9 267.34 710.96 267.34 711.01 267.35 711.04 267.31 711.06 267.24 711.07 267.19 711.06 267.16 711.07 267.13 711.07 267.05 711.09 267.03 711.08 266.99 711.09 266.97 711.13 267 711.17 267.03 711.2 267.04 711.24 267.09 711.3 267.17 711.36 267.21 711.41 267.21 711.47 267.17 711.5 267.1 711.55 267.08 711.65 267.1 711.74 267.18 711.76 267.25 711.75 267.32 711.74 267.41 711.73 267.44 711.73 267.48 711.75 267.54 711.75 267.63 711.78 267.72 711.83 268.05 711.89 268.18 712 268.23 712.1 268.22 712.17 268.14 712.22 268.09 712.26 268 712.25 267.97 712.25 267.94 712.25 267.92 712.26 267.91 712.25 267.9 712.23 267.91 712.21 267.9 712.2 267.88 712.22 267.88 712.24 267.87 712.24 267.85 712.24 267.83 712.26 267.81 712.26 267.79 712.27 267.78 712.29 267.72 712.3 267.72 712.33 267.72 712.36 267.76 712.41 267.76 712.44 267.77 712.46 267.81 712.48 267.84 712.51 267.87 712.51 267.88 712.51 267.89 712.5 267.89 712.5 267.9 712.49 267.93 712.51 267.94 712.53 267.94 712.57 267.95 712.63 267.99 712.65 268 712.68 267.99 712.7 268.01 712.71 268.04 712.74 268.08 712.76 268.09 712.8 268.12 712.83 268.12 712.88 268.1 712.91 268.07 712.96 268.01 713.05 267.78 713.07 267.7 713.09 267.51 713.1 267.46 713.1 267.43 713.11 267.4 713.13 267.38 713.15 267.35 713.17 267.29 713.15 267.21 713.12 267.13 713.07 267.05 713.01 266.97 712.96 266.94 712.91 266.93 712.89 266.97 712.87 267 712.85 267.02 712.86 267.04 712.87 267.04 712.88 267.02 712.9 267 712.9 267 712.9 267.01 712.9 267.02 712.88 267.06 712.8 267.12 712.76 267.13 712.71 267.17 712.68 267.21 712.63 267.2 712.56 267.17 712.53 267.18 712.5 267.17 712.47 267.19 712.43 267.24 712.35 267.24 712.31 267.27 712.27 267.26 712.25 267.27 712.17 267.32 712.14 267.37 712.1 267.37 712.03 267.32 712.03 267.21 712.03 267.17 712.06 267.14 712.07 267.06 712.06 267.01 712.09 266.93 712.11 266.86 712.11 266.81 712.11 266.78 712.14 266.76 712.16 266.68 712.17 266.61 712.19 266.52 712.22 266.48 712.29 266.38 712.32 266.35 712.33 266.34 712.34 266.28 712.34 266.24 712.33 266.21 712.34 266.2 712.34 266.17 712.36 266.14 712.39 266.18 712.44 266.21 712.47 266.25 712.5 266.29 712.53 266.31 712.56 266.32 712.6 266.33 712.69 266.34 712.79 266.39 712.87 266.48 712.9 266.52 712.95 266.56 712.96 266.58 712.98 266.61 713.07 266.67 713.16 266.71 Z M 709.21 264.57 709.13 264.65 709.1 264.64 709.08 264.61 709.07 264.58 709.08 264.55 709.06 264.52 709.06 264.49 709.06 264.43 709.05 264.41 709.03 264.37 709.03 264.34 709.04 264.29 709.06 264.23 709.09 264.18 709.12 264.16 709.14 264.16 709.19 264.14 709.22 264.14 709.25 264.13 709.31 264.08 709.33 264.08 709.37 264.11 709.34 264.17 709.27 264.28 709.26 264.36 709.25 264.43 709.24 264.5 709.21 264.57 Z M 722.08 260.22 722.05 260.24 722.02 260.22 722.03 260.17 722.05 260.15 722.12 260.11 722.15 260.09 721.87 259.94 722.05 259.98 722.11 260.01 722.18 260.06 722.22 260.09 722.22 260.12 722.19 260.14 722.11 260.16 722.09 260.18 722.08 260.22 Z M 720.21 258.94 720.2 258.94 720.19 258.94 720.21 258.94 Z M 719.15 258.31 719.07 258.33 718.97 258.31 718.79 258.24 718.8 258.22 718.84 258.22 718.89 258.23 718.94 258.25 718.97 258.28 719 258.29 719.11 258.29 719.15 258.31 Z M 713.15 255.35 713.11 255.36 713.07 255.35 712.95 255.27 712.88 255.21 712.84 255.13 712.87 255.07 712.86 255.05 712.85 255.02 712.84 255.01 712.92 254.92 712.95 254.9 713 254.89 713.07 254.91 713.14 254.96 713.2 255.02 713.28 255.13 713.29 255.17 713.28 255.2 713.25 255.23 713.24 255.28 713.22 255.29 713.15 255.35 Z M 712.56 254.29 712.59 254.29 712.63 254.27 712.67 254.25 712.7 254.28 712.71 254.33 712.68 254.66 712.66 254.75 712.63 254.84 712.61 254.79 712.62 254.78 712.63 254.75 712.57 254.64 712.55 254.57 712.54 254.5 712.55 254.35 712.54 254.32 712.48 254.21 712.49 254.2 712.51 254.2 712.52 254.2 712.53 254.21 712.53 254.23 712.56 254.29 Z M 714.81 254.24 714.89 254.41 714.98 254.5 715.17 254.65 715.26 254.73 715.96 255.61 716.13 255.97 716.16 256.03 716.24 256.08 716.35 256.27 716.78 256.76 716.85 256.8 716.94 256.95 717.08 257.05 717.25 257.23 717.44 257.38 717.48 257.4 717.52 257.42 717.6 257.51 717.64 257.55 717.74 257.57 717.76 257.59 717.8 257.68 717.8 257.7 717.86 257.77 717.88 257.79 718.21 257.99 718.7 258.18 718.7 258.2 718.52 258.18 718.49 258.2 718.5 258.22 718.55 258.28 718.57 258.3 718.6 258.41 718.62 258.4 718.63 258.39 718.66 258.42 718.69 258.44 718.72 258.45 719.04 258.46 719.06 258.47 719.12 258.39 719.16 258.36 719.2 258.35 719.46 258.37 719.54 258.4 719.58 258.44 719.58 258.45 719.55 258.45 719.51 258.48 719.48 258.52 719.43 258.67 719.51 258.7 719.54 258.7 719.57 258.68 719.59 258.65 719.62 258.61 719.64 258.56 719.65 258.51 719.68 258.42 719.74 258.4 719.78 258.43 719.77 258.52 719.79 258.61 719.82 258.65 719.85 258.67 719.87 258.69 719.91 258.79 719.93 258.81 719.95 258.82 720.04 258.9 720.08 258.91 720.15 258.94 720.46 258.99 720.84 259.02 720.95 259 721.04 258.94 721.3 258.66 721.5 258.42 721.52 258.39 721.68 258.29 721.79 258.18 721.83 258.16 721.86 258.13 721.97 257.93 722.06 257.84 722.1 257.79 722.12 257.73 722.13 257.71 722.15 257.7 722.17 257.7 722.19 257.76 722.23 257.83 722.24 257.86 722.24 258 722.19 258.11 722.06 258.29 722.04 258.35 722.01 258.5 721.99 258.55 721.79 258.81 721.74 258.91 721.69 259.02 721.65 259.13 721.67 259.18 721.66 259.25 721.64 259.31 721.61 259.37 721.58 259.42 721.58 259.45 721.58 259.49 721.58 259.52 721.67 259.72 721.71 259.77 721.85 259.92 721.88 259.96 721.9 260.02 721.92 260.08 721.92 260.14 721.93 260.17 721.96 260.2 721.98 260.25 722 260.32 722.06 260.58 722.11 260.7 722.18 260.8 722.29 260.88 722.22 260.89 722.08 260.77 722.02 260.76 721.99 260.78 721.99 260.82 722 260.85 722.04 260.86 722.08 260.87 722.12 260.89 722.13 260.91 722.09 260.92 722.13 260.97 722.19 261 722.27 261.02 722.46 261.04 722.51 261.07 722.56 261.11 722.57 261.08 722.55 261.05 722.53 261.03 722.52 260.99 722.53 260.97 722.62 260.89 722.71 260.79 722.74 260.77 722.79 260.75 722.82 260.74 722.84 260.72 722.84 260.7 722.86 260.67 722.88 260.66 722.92 260.65 723.02 260.66 723.04 260.65 723.07 260.62 723.08 260.61 723.09 260.62 723.1 260.62 723.11 260.63 723.12 260.63 723.15 260.64 723.22 260.66 723.25 260.67 723.23 260.7 723.21 260.71 723.16 260.71 723.14 260.73 723.1 260.79 723.07 260.8 722.99 260.82 722.97 260.83 722.93 260.87 722.91 260.87 722.84 260.86 722.81 260.87 722.79 260.89 722.78 260.91 722.76 260.95 722.7 261 722.69 261.03 722.67 261.06 722.65 261.14 722.64 261.17 722.63 261.2 722.56 261.28 722.59 261.3 722.57 261.3 722.52 261.3 722.48 261.29 722.42 261.25 722.38 261.26 722.31 261.28 722.09 261.28 722.04 261.31 721.99 261.35 721.93 261.38 721.76 261.41 721.72 261.42 721.69 261.44 721.68 261.49 721.69 261.54 721.72 261.55 721.75 261.55 721.79 261.57 721.77 261.59 721.75 261.61 721.66 261.61 721.66 261.63 721.65 261.65 721.64 261.67 721.58 261.7 721.53 261.71 721.42 261.67 721.47 261.74 721.48 261.78 721.47 261.82 721.45 261.84 721.42 261.85 721.27 261.87 721.19 261.87 721.13 261.84 721.07 261.78 721.06 261.75 721.07 261.72 721.06 261.68 721.02 261.67 721 261.67 720.98 261.67 720.97 261.66 720.95 261.67 720.94 261.69 720.91 261.72 720.9 261.73 720.88 261.75 720.86 261.79 720.84 261.83 720.83 261.87 720.84 261.91 720.87 261.94 720.91 261.97 720.94 262 720.84 262.03 720.53 261.96 720.36 261.97 720.3 262.01 720.23 262 720.07 261.94 720.05 261.92 720.03 261.9 720.02 261.87 720.01 261.84 719.99 261.81 719.97 261.79 719.92 261.8 719.61 261.88 719.29 262.03 718.95 262.28 718.74 262.54 718.4 262.83 718.26 263 717.98 263.44 717.76 263.85 717.72 263.97 717.7 264.12 717.73 264.29 717.73 264.35 717.73 264.41 717.72 264.48 717.66 264.72 717.63 264.78 717.57 264.84 717.54 264.97 717.52 265.01 717.48 265 717.43 264.96 717.39 264.91 717.37 264.88 717.35 264.83 717.29 264.77 717.24 264.72 716.89 264.49 716.45 264.33 715.98 264.05 715.79 263.99 715.39 263.71 715.26 263.57 715.14 263.43 714.91 263.4 714.72 263.28 714.6 263.13 714.57 263.11 714.52 263.1 714.36 263.01 714.16 262.96 713.96 262.96 713.77 263.01 713.5 263.12 713.13 263.4 713.07 263.43 713.03 263.48 713 263.48 712.97 263.49 712.95 263.5 712.92 263.51 712.75 263.63 712.71 263.68 712.59 263.86 712.55 263.89 712.53 263.9 712.5 263.91 712.47 263.91 712.44 263.89 712.43 263.88 712.41 263.85 712.4 263.82 712.41 263.81 712.5 263.83 712.51 263.82 712.52 263.79 712.49 263.77 712.43 263.75 712.39 263.71 712.37 263.69 712.36 263.67 712.33 263.55 711.96 263.12 711.85 263.07 711.8 263.07 711.66 263.09 711.5 263.07 711.44 263.07 711.35 263.12 711.26 263.19 711.18 263.29 711.05 263.51 711.01 263.63 710.97 263.76 710.96 263.89 710.98 264.03 711.05 264.1 711.27 264.23 711.35 264.29 711.51 264.47 711.55 264.49 711.6 264.48 711.69 264.45 711.83 264.44 711.87 264.43 711.92 264.4 712.05 264.5 712.08 264.58 712.19 264.73 712.23 264.77 712.31 264.83 712.35 264.86 712.49 265.06 712.53 265.09 712.58 265.12 712.62 265.13 712.68 265.14 712.73 265.15 712.79 265.18 712.96 265.34 712.99 265.39 712.97 265.42 712.87 265.44 712.82 265.45 712.78 265.48 712.65 265.62 712.56 265.65 712.46 265.62 712.27 265.52 712.16 265.48 712.05 265.48 711.95 265.54 711.9 265.55 711.88 265.51 711.9 265.47 711.93 265.44 711.96 265.41 711.95 265.36 711.9 265.32 711.85 265.3 711.8 265.31 711.76 265.35 711.73 265.4 711.7 265.53 711.67 265.58 711.54 265.65 711.52 265.67 711.49 265.69 711.38 265.73 711.34 265.75 711.29 265.85 711.32 266.09 711.29 266.19 711.22 266.24 710.94 266.33 710.91 266.36 710.87 266.41 710.83 266.46 710.82 266.52 710.8 266.57 710.74 266.56 710.64 266.51 710.61 266.51 710.58 266.53 710.56 266.53 710.53 266.52 710.47 266.48 710.45 266.47 710.42 266.45 710.4 266.39 710.36 266.27 710.3 266.1 710.29 266.04 710.3 265.98 710.34 265.88 710.38 265.7 710.49 265.51 710.52 265.39 710.53 265.38 710.58 265.38 710.59 265.38 710.61 265.35 710.62 265.32 710.62 265.26 710.62 265.24 710.61 265.22 710.61 265.2 710.62 265.18 710.63 265.17 710.65 265.16 710.66 265.12 710.66 265.07 710.67 265.06 710.66 265.01 710.64 264.95 710.64 264.9 710.65 264.85 710.58 264.77 710.47 264.56 710.39 264.49 710.17 264.39 710.13 264.33 710.13 264.32 710.12 264.31 710.08 264.22 710.05 264.21 709.99 264.18 709.89 264.1 709.86 264.07 709.84 263.99 709.82 263.87 709.83 263.82 709.86 263.76 709.95 263.6 709.97 263.54 710 263.4 710 263.27 709.96 263.04 709.99 262.93 710.06 262.82 710.15 262.78 710.36 262.76 710.42 262.75 710.45 262.73 710.55 262.61 710.57 262.59 710.59 262.58 710.62 262.58 710.63 262.57 710.65 262.54 710.71 262.42 710.74 262.38 710.78 262.37 710.83 262.4 710.88 262.49 710.91 262.53 710.96 262.54 711.01 262.5 711.02 262.43 711.02 262.36 711.04 262.33 711.08 262.31 711.11 262.25 711.17 262.13 711.2 262.08 711.36 261.93 711.45 261.87 711.49 261.82 711.5 261.76 711.48 261.72 711.45 261.67 711.43 261.6 711.41 261.56 711.31 261.4 711.23 261.32 711.15 261.25 711.08 261.17 711.06 261.05 711.13 260.82 711.24 260.82 711.3 260.81 711.34 260.78 711.35 260.75 711.36 260.72 711.36 260.69 711.38 260.67 711.41 260.68 711.44 260.7 711.46 260.73 711.48 260.74 711.52 260.75 711.71 260.89 711.75 260.93 711.82 261.02 711.86 261.05 712.02 261.13 712.04 261.15 712.08 261.2 712.1 261.21 712.13 261.22 712.36 261.19 712.52 261.12 712.57 261.11 712.6 261.13 712.58 261.17 712.56 261.22 712.6 261.28 712.62 261.29 712.7 261.3 712.8 261.33 712.85 261.35 712.9 261.37 712.92 261.38 712.97 261.38 713 261.37 713.05 261.34 713.22 261.21 713.37 261.05 713.43 260.96 713.49 260.84 713.53 260.71 713.52 260.57 713.5 260.49 713.37 260.3 713.35 260.22 713.35 260.16 713.38 260.11 713.42 260.05 713.38 259.93 713.36 259.9 713.36 259.84 713.31 259.71 713.3 259.64 713.31 259.58 713.34 259.51 713.4 259.4 713.44 259.36 713.49 259.33 713.54 259.31 713.64 259.29 713.68 259.28 713.72 259.25 713.85 259.14 713.91 259.06 713.97 258.95 714.01 258.81 714.03 258.69 714.04 258.56 714 257.91 714.03 257.8 714.21 257.46 714.31 256.92 714.31 256.78 714.29 256.4 714.22 256.02 714.15 255.81 713.85 255.15 713.82 255.02 713.84 254.88 713.86 254.86 713.9 254.8 713.92 254.77 713.93 254.74 713.93 254.71 713.94 254.68 713.99 254.6 713.99 254.55 713.97 254.45 713.96 254.4 713.97 254.35 713.99 254.3 714.03 254.25 714.05 254.27 714.07 254.3 714.07 254.33 714.07 254.37 714.08 254.41 714.11 254.41 714.16 254.38 714.27 254.37 714.37 254.34 714.45 254.29 714.48 254.28 714.49 254.26 714.49 254.22 714.49 254.18 714.5 254.15 714.53 254.1 714.59 254.05 714.64 254.03 714.68 254.07 714.72 254.16 714.74 254.2 714.77 254.21 714.81 254.24 Z" fill-rule="evenodd" id="Japan" transform="translate(-672.510009765625,-254.02999877929688) "/></svg>