<svg xmlns="http://www.w3.org/2000/svg" viewBox="0 0 798 352"><path d="M 230.86 264.4 224.83 266.57 222.89 261.74 232.31 261.74 230.86 264.4 Z M 226.28 239.05 217.58 241.7 210.1 249.67 216.86 259.81 210.1 263.91 213.48 272.61 209.37 278.64 222.89 285.4 220.96 291.44 223.62 294.09 223.62 302.06 218.79 301.33 210.82 310.03 198.75 306.89 202.85 301.33 196.09 301.33 191.99 295.3 182.09 294.82 176.54 302.06 159.88 302.06 158.43 296.75 163.26 294.09 157.22 287.33 161.81 287.33 160.6 282.5 170.5 279.85 163.98 270.43 156.5 271.16 155.05 265.85 149.25 263.19 133.07 261.26 130.42 263.19 133.07 268.5 124.87 272.61 124.87 278.64 116.9 276.71 110.14 285.4 98.79 280.57 75.37 289.99 57.26 285.4 45.91 274.54 38.43 279.85 31.66 272.61 26.35 272.61 25.15 268.5 36.49 261.74 46.63 261.74 41.81 252.33 54.6 253.77 64.74 247.74 64.02 240.5 68.61 240.5 65.95 237.6 69.33 238.32 69.33 228.91 74.64 227.7 77.3 219.49 76.09 202.83 68.61 190.04 65.23 172.65 56.53 165.17 53.15 156.48 35.77 142.48 35.77 136.44 24.42 128.47 8.97 131.61 10.18 126.3 7.04 124.37 10.18 120.26 1 107.71 2.21 97.57 19.59 83.33 34.32 83.33 54.6 90.09 58.47 88.88 59.91 80.19 70.78 76.81 71.26 83.33 101.44 94.91 105.55 93.47 130.9 110.85 137.66 107.71 145.15 109.64 147.08 104.81 173.88 107.71 181.36 102.16 193.44 103.61 196.09 97.57 214.93 84.78 230.38 84.78 228.93 74.15 240.28 80.67 249.7 74.64 264.42 82.12 267.8 89.6 285.91 94.91 304.02 92.74 314.16 95.4 323.58 92.26 328.89 95.4 328.89 101.43 334.93 103.61 346.28 98.29 354.49 103.61 361.73 103.61 365.11 99.5 363.66 94.19 368.49 91.53 393.84 93.47 397.95 95.64 400.6 106.26 414.13 110.37 412.68 115.68 422.82 127.02 420.89 132.34 428.85 131.13 440.93 137.16 452.27 134.99 453.72 131.13 471.11 130.4 493.32 118.33 502.5 128.47 514.09 127.75 513.36 137.65 526.16 137.65 527.37 141.03 533.4 139.82 546.2 146.58 560.2 144.41 556.82 150.44 560.93 152.62 562.38 160.58 593.04 171.21 583.62 171.93 570.34 166.62 567.69 170 559.48 169.27 553.68 174.1 554.89 178.69 546.2 180.62 556.34 196.07 561.65 196.07 559 202.83 569.62 203.56 565.03 213.46 573.73 214.9 577.59 219.49 575.66 228.91 565.03 234.22 561.65 231.56 565.52 227.7 548.86 231.56 536.06 251.84 546.2 298.68 553.68 303.99 548.13 311.47 544.27 309.54 536.06 315.58 504.67 302.06 481.01 300.13 468.45 306.89 454.21 307.37 447.69 316.06 432.72 316.06 384.43 282.02 363.18 283.23 357.14 301.33 357.14 297.47 349.66 298.68 347.73 294.82 336.14 292.64 340.96 299.4 351.11 302.78 343.62 303.99 332.27 291.92 340.24 290.71 334.93 288.06 339.52 282.5 332.27 283.23 328.17 276.71 329.62 265.12 334.2 261.26 330.82 252.33 291.23 234.94 258.39 232.29 226.28 239.05 Z M 503.95 350.34 501.29 353 492.6 348.9 502.01 348.41 503.95 350.34 Z M 319.48 288.54 318.03 291.92 311.51 289.99 322.13 286.61 322.13 289.99 319.48 288.54 Z M 320.2 283.23 314.16 286.61 308.13 285.88 314.89 277.19 322.13 275.26 320.2 283.23 Z M 795.14 15.73 799 23.69 792.24 27.07 791.76 13.07 795.14 15.73 Z M 789.1 2.93 792.24 7.76 781.62 4.38 783.55 1 789.1 2.93 Z" fill-rule="evenodd" transform="translate(-1,-1) "/></svg>