<svg xmlns="http://www.w3.org/2000/svg" viewBox="0 0 9.6300048828125 10.790008544921875"><path d="M 486.55 291.7 486.97 291.58 487.02 291.61 487.05 291.69 487.1 291.86 487.04 291.95 486.77 292.17 486.77 292.19 486.75 292.2 486.71 292.23 486.45 292.48 486.37 292.51 486.37 292.51 486.37 292.51 486.12 292.59 485.62 292.73 485.12 292.88 484.62 293.02 484.2 293.14 484.12 293.16 483.7 293.29 483.57 293.33 483.03 293.49 482.48 293.66 482.01 293.79 481.93 293.82 482.22 294.13 482.5 294.44 482.51 294.45 482.79 294.76 483.08 295.07 483.09 295.08 483.09 295.08 483.1 295.09 483.11 295.1 483.35 295.39 483.6 295.67 483.84 295.96 484.08 296.24 484.19 296.37 484.19 296.37 484.19 296.37 484.19 296.37 484.17 296.38 484.01 296.47 483.74 296.62 483.5 296.76 483.45 296.8 483.42 296.85 483.36 297.01 483.28 297.2 483.21 297.38 483.11 297.62 483.06 297.66 482.8 297.71 482.5 297.77 482.18 297.84 481.87 297.91 481.67 297.95 481.48 297.99 481.42 298.02 481.36 298.07 481.24 298.28 481.14 298.45 481 298.69 480.86 298.93 480.69 299.07 480.43 299.28 480.19 299.47 479.95 299.67 479.9 299.7 479.84 299.7 479.61 299.66 479.35 299.61 479.22 299.59 478.96 299.55 478.63 299.49 478.33 299.44 477.98 299.38 477.72 299.33 477.47 299.29 477.47 299.29 477.5 299.27 477.51 299.04 477.53 298.97 477.58 298.87 477.58 298.83 477.53 298.78 477.5 298.78 477.5 298.77 477.5 298.77 477.5 298.76 477.48 298.76 477.49 298.7 477.51 298.64 477.54 298.59 477.56 298.53 477.57 298.39 477.59 298.32 477.69 298.05 477.7 297.99 477.7 297.84 477.72 297.75 477.73 297.73 477.74 297.71 477.75 297.69 477.75 297.66 477.77 297.56 477.87 297.42 477.91 297.33 477.91 297.25 477.86 297.09 477.86 297.02 477.88 296.98 477.9 296.84 477.91 296.81 477.93 296.79 477.94 296.76 477.94 296.72 477.94 296.69 477.9 296.63 477.89 296.61 477.89 296.55 477.93 296.44 477.94 296.38 478.04 296.07 478.17 295.81 478.17 295.81 478.19 295.74 478.2 295.68 478.2 295.65 478.22 295.62 478.23 295.6 478.27 295.57 478.29 295.54 478.29 295.48 478.29 295.43 478.3 295.37 478.33 295.31 478.35 295.28 478.41 295.23 478.44 295.18 478.44 295.1 478.45 295.02 478.56 294.82 478.57 294.75 478.55 294.68 478.52 294.61 478.49 294.56 478.47 294.49 478.46 294.42 478.49 294.36 478.52 294.31 478.52 294.25 478.51 294.23 478.55 294.16 478.59 294.05 478.6 293.99 478.6 293.97 478.6 293.82 478.6 293.82 478.6 293.82 478.6 293.82 478.6 293.82 478.6 293.81 478.61 293.62 478.65 293.43 478.7 293.32 478.75 293.19 478.82 293.11 478.78 292.97 478.78 292.95 478.8 292.92 478.75 292.71 478.75 292.69 478.77 292.68 478.78 292.68 478.79 292.66 478.79 292.64 478.78 292.62 478.78 292.59 478.78 292.56 478.77 292.53 478.75 292.47 478.74 292.35 478.75 292.3 478.79 292.27 478.77 292.24 478.77 292.21 478.81 292.15 478.8 292.13 478.8 292.12 478.81 292.11 478.82 292.1 478.82 292.08 478.81 292.05 478.82 292 478.85 291.88 478.82 291.88 478.83 291.87 478.83 291.86 478.84 291.85 478.85 291.84 478.83 291.81 478.83 291.76 478.83 291.71 478.84 291.68 478.82 291.65 478.82 291.57 478.81 291.54 478.81 291.52 478.82 291.52 478.82 291.54 478.84 291.54 478.83 291.52 478.83 291.5 478.82 291.48 478.81 291.47 478.8 291.46 478.79 291.43 478.81 291.43 478.82 291.42 478.82 291.41 478.81 291.4 478.81 291.38 478.82 291.38 478.82 291.37 478.82 291.37 478.81 291.37 478.81 291.36 478.84 291.34 478.82 291.33 478.84 291.32 478.85 291.31 478.85 291.29 478.84 291.29 478.84 291.28 478.83 291.28 478.82 291.27 478.83 291.26 478.84 291.24 478.85 291.22 478.87 291.22 478.87 291.2 478.85 291.18 478.84 291.17 478.83 291.15 478.82 291.15 478.81 291.15 478.81 291.13 478.84 291.13 478.83 291.11 478.82 291.06 478.84 291.08 478.85 291.05 478.85 291.04 478.86 291.05 478.86 291.05 478.86 291.05 478.87 291.04 478.86 291.01 478.85 290.94 478.84 290.92 478.84 290.9 478.85 290.9 478.85 290.88 478.83 290.87 478.82 290.85 478.83 290.83 478.83 290.82 478.85 290.81 478.87 290.79 478.9 290.75 478.94 290.72 478.94 290.72 478.99 290.73 479.03 290.71 479.1 290.64 479.22 290.57 479.26 290.56 479.26 290.56 479.28 290.55 479.29 290.55 479.3 290.55 479.31 290.56 479.31 290.56 479.31 290.56 479.31 290.56 479.33 290.58 479.57 290.64 479.59 290.65 479.63 290.69 479.64 290.69 479.67 290.69 479.68 290.7 479.68 290.71 479.68 290.73 479.67 290.74 479.66 290.74 479.68 290.77 479.7 290.78 479.72 290.79 479.76 290.79 479.81 290.79 479.82 290.82 479.81 290.86 479.81 290.91 479.83 290.96 479.93 291.11 479.95 291.14 479.95 291.15 479.95 291.15 479.98 291.15 480.01 291.15 480.1 291.14 480.11 291.15 480.13 291.15 480.15 291.16 480.16 291.15 480.18 291.13 480.19 291.12 480.22 291.14 480.29 291.21 480.43 291.31 480.63 291.49 480.66 291.51 480.7 291.52 480.83 291.54 480.86 291.56 480.95 291.57 481.25 291.61 481.33 291.67 481.37 291.64 481.42 291.65 481.56 291.68 481.59 291.68 481.62 291.67 481.97 291.43 482.31 291.21 482.31 291.21 482.31 291.21 482.31 291.21 482.56 291.05 482.94 290.81 483.11 290.7 483.32 290.57 483.7 290.33 484.08 290.08 484.36 289.9 484.36 289.9 484.75 289.66 484.93 289.54 485.41 289.24 485.95 288.91 486.05 289.28 486.15 289.62 486.22 289.9 486.32 290.27 486.43 290.66 486.58 291.21 486.41 291.26 486.4 291.26 486.4 291.26 486.4 291.27 486.41 291.27 486.51 291.64 486.53 291.68 486.55 291.7 Z" id="Jordan" transform="translate(-477.4700012207031,-288.9100036621094) "/></svg>