<svg xmlns="http://www.w3.org/2000/svg" viewBox="0 0 90.54000854492188 49.519989013671875"><path d="M 512.3 255.86 512.34 255.87 512.37 255.85 512.39 255.83 512.4 255.81 512.42 255.81 512.42 255.83 512.43 255.85 512.45 255.85 512.46 255.88 512.47 255.95 512.47 255.99 512.48 256.02 512.51 256.07 512.52 256.09 512.47 256.08 512.44 256.08 512.41 256.1 512.38 256.11 512.37 256.09 512.39 256.06 512.39 256.04 512.37 256.03 512.36 256.01 512.37 255.98 512.36 255.94 512.25 255.87 512.22 255.82 512.23 255.77 512.24 255.77 512.26 255.81 512.3 255.86 Z M 510.9 255.88 510.93 255.9 510.96 255.89 510.96 255.97 510.97 256.04 511 256.1 511.05 256.12 511.07 256.13 511.09 256.15 511.11 256.16 511.15 256.16 511.22 256.11 511.25 256.1 511.21 256.2 511.15 256.23 511.08 256.23 511.01 256.19 510.98 256.15 510.96 256.12 510.96 256.09 510.95 256.04 510.93 255.99 510.84 255.91 510.8 255.83 510.8 255.77 510.93 255.49 510.95 255.46 510.98 255.44 511.08 255.42 511.08 255.47 510.95 255.55 510.92 255.62 510.91 255.66 510.88 255.74 510.87 255.79 510.88 255.84 510.9 255.88 Z M 511.61 255.4 511.62 255.44 511.6 255.5 511.58 255.53 511.56 255.54 511.56 255.56 511.57 255.68 511.55 255.75 511.51 255.79 511.46 255.81 511.42 255.78 511.4 255.71 511.41 255.64 511.43 255.56 511.44 255.49 511.45 255.44 511.47 255.42 511.5 255.42 511.51 255.42 511.52 255.41 511.56 255.42 511.58 255.41 511.6 255.4 511.61 255.4 Z M 516.82 254.4 516.77 254.42 516.66 254.38 516.57 254.31 516.51 254.23 516.49 254.17 516.52 254.12 516.56 254.09 516.58 254.07 516.59 254.04 516.59 254.02 516.6 254.01 516.68 254.02 516.72 254.03 516.76 254.09 516.79 254.18 516.8 254.22 516.82 254.28 516.82 254.33 516.82 254.4 Z M 510.44 251.82 510.4 251.84 510.35 251.8 510.32 251.73 510.21 251.44 510.21 251.38 510.28 251.38 510.37 251.43 510.42 251.47 510.44 251.51 510.48 251.6 510.48 251.68 510.44 251.82 Z M 593.57 242.42 593.29 242.34 593.21 242.29 593.11 242.27 592.8 242.39 592.73 242.38 592.6 242.34 592.54 242.35 592.49 242.39 592.44 242.51 592.4 242.56 592.32 242.64 592.28 242.68 592.25 242.74 592.22 242.8 592.21 242.86 592.21 242.91 592.23 243 592.28 243.11 592.35 243.18 592.38 243.24 592.33 243.35 592.29 243.4 592.27 243.43 592.27 243.47 592.3 243.61 592.3 243.66 592.28 243.7 592.12 243.93 592.01 244.03 591.98 244.08 591.95 244.13 591.91 244.25 591.89 244.29 591.84 244.32 591.59 244.43 591.37 244.41 591.31 244.43 591.27 244.48 591.18 244.59 591.06 244.65 590.65 244.61 590.15 244.69 590.07 244.74 590.01 244.85 589.72 245.57 589.66 245.94 589.63 246.06 589.59 246.15 589.56 246.22 589.56 246.3 589.74 247.27 589.74 247.38 589.7 247.6 589.71 247.7 589.71 247.7 589.75 247.8 589.9 248.06 589.92 248.12 589.91 248.19 589.9 248.25 589.9 248.3 589.92 248.36 589.92 248.41 589.9 248.52 589.89 248.59 589.88 248.64 589.85 248.66 589.75 248.68 589.7 248.69 589.65 248.73 589.63 248.78 589.62 248.84 589.61 248.89 589.59 248.94 589.56 248.98 589.54 249.04 589.54 249.1 589.52 249.14 589.37 249.13 589.09 249.18 588.96 249.16 588.92 249.17 588.87 249.2 588.84 249.23 588.79 249.33 588.74 249.38 588.59 249.49 588.52 249.56 588.5 249.58 588.4 249.61 588.36 249.62 588.33 249.66 588.28 249.76 588.23 249.79 588.06 249.83 587.9 249.89 587.84 249.91 587.8 249.88 587.79 249.84 587.81 249.79 587.84 249.74 587.86 249.69 587.87 249.57 587.82 249.48 587.75 249.4 587.67 249.36 587.57 249.35 587.35 249.4 587.25 249.39 587.14 249.33 587.1 249.33 587.06 249.33 587.06 249.33 586.79 249.31 586.55 249.33 586.55 249.33 586.55 249.33 586.55 249.33 586.41 249.41 586.35 249.42 586.2 249.39 585.99 249.39 585.15 249.09 584.77 248.84 584.68 248.79 584.48 248.75 584.43 248.72 584.32 248.62 584.26 248.6 584.2 248.59 584.14 248.6 584.09 248.61 584.03 248.64 584.01 248.68 584.02 248.81 584.01 248.84 583.99 248.91 583.98 248.95 583.98 248.98 584 249.05 584 249.08 583.96 249.2 583.95 249.27 583.96 249.33 583.97 249.39 583.97 249.44 583.95 249.49 583.63 250.17 583.42 250.94 583.34 251.13 583.32 251.19 583.29 251.36 583.26 251.46 583.11 251.7 583.03 251.89 582.97 252.1 582.91 252.54 582.91 252.54 582.85 252.83 582.82 252.92 582.76 253.07 582.59 253.36 582.51 253.67 582.44 253.84 582.43 253.93 582.41 253.99 582.49 254.12 582.49 254.12 582.49 254.12 582.57 254.16 582.9 254.21 583.13 254.3 583.17 254.36 583.18 254.48 583.17 254.6 583.13 254.89 583.06 255.11 582.96 255.28 582.82 255.3 582.71 255.24 582.52 255.03 582.42 254.95 582.31 254.94 582.19 254.97 581.77 255.19 581.66 255.21 581.57 255.17 581.53 255.12 581.49 255.1 581.34 255.08 581.31 255.05 581.3 255.01 581.3 254.94 581.28 254.83 581.25 254.7 581.19 254.61 581.11 254.6 581.02 254.58 580.93 254.62 580.75 254.75 579.87 255.03 579.69 255.13 579.6 255.16 579.5 255.16 579.23 255.27 579.17 255.27 578.99 255.22 578.88 255.22 578.52 255.35 578.37 255.33 578.32 255.34 578.28 255.38 578.23 255.49 578.2 255.52 578.14 255.53 577.98 255.52 577.82 255.58 577.66 255.56 577.56 255.57 577.47 255.61 577.39 255.69 577.39 255.69 577.17 255.88 577.06 255.93 577.02 255.97 576.99 256.06 577.04 256.14 577.32 256.31 577.42 256.32 577.82 256.23 577.88 256.24 577.92 256.26 578.03 256.35 578.39 256.49 578.42 256.51 578.44 256.55 578.42 256.6 578.39 256.62 578.24 256.65 578.17 256.69 578.12 256.75 578.12 256.78 578.13 256.81 578.17 256.86 578.18 256.9 578.18 256.94 578.14 257 578.08 257.24 578.07 257.37 578.07 257.48 578.16 257.93 578.16 258.05 578.1 258.27 578.08 258.39 578.1 258.45 578.13 258.49 578.2 258.56 578.23 258.61 578.24 258.66 578.25 258.72 578.25 258.78 578.25 258.78 578.27 258.85 578.31 258.92 578.39 259.04 578.65 259.73 578.91 260.42 578.91 260.52 578.87 260.61 578.76 260.82 578.79 260.87 578.88 260.89 578.96 260.93 578.99 260.97 579.01 261.03 579.02 261.09 579.02 261.14 579.03 261.2 579.08 261.3 579.09 261.35 579.08 261.42 579.05 261.46 579 261.49 578.95 261.5 578.91 261.49 578.8 261.4 578.7 261.4 578.61 261.45 578.44 261.58 578.24 261.66 578.15 261.72 578.12 261.8 578.16 261.88 578.24 261.94 578.39 262.02 578.49 262.03 578.54 262.06 578.56 262.11 578.55 262.17 578.5 262.2 578.39 262.22 578.22 262.28 578.18 262.31 578.07 262.36 578.04 262.36 577.96 262.34 577.92 262.34 577.88 262.36 577.84 262.44 577.79 262.62 577.75 262.7 577.67 262.83 577.65 262.88 577.64 262.94 577.66 262.99 577.67 263.03 577.69 263.15 577.72 263.2 577.78 263.28 577.8 263.34 577.8 263.37 577.79 263.41 577.77 263.47 577.77 263.5 577.82 263.74 577.83 263.79 577.86 263.83 577.89 263.88 577.93 264.09 577.91 264.16 577.89 264.19 577.8 264.24 577.7 264.18 577.64 264.09 577.58 263.99 577.5 263.89 577.36 263.76 577.28 263.63 577.24 263.6 577.15 263.54 576.66 263.43 576.56 263.43 576.38 263.46 576.17 263.45 576.06 263.4 576 263.32 575.9 263.08 575.83 263 575.65 262.92 575.57 262.84 575.54 262.78 575.52 262.73 575.51 262.67 575.5 262.6 575.52 262.48 575.5 262.45 575.45 262.44 575.36 262.45 575.19 262.54 575.1 262.54 575.02 262.5 574.87 262.5 574.69 262.42 574.42 262.39 574.39 262.38 574.31 262.31 574.22 262.26 574 262.18 573.85 262.17 573.75 262.17 573.71 262.19 573.63 262.24 573.59 262.26 573.54 262.25 573.45 262.22 573.41 262.21 573.31 262.23 573.21 262.22 572.97 262.24 572.87 262.23 572.74 262.15 572.69 262.13 572.64 262.13 572.59 262.14 572.57 262.14 572.54 262.17 572.48 262.19 572.45 262.18 572.44 262.16 572.43 262.14 572.42 262.12 572.27 262.08 572.12 262.08 572.07 262.09 571.96 262.14 571.92 262.14 571.88 262.12 571.84 262.09 571.8 262.06 571.71 262.06 571.65 262.04 571.61 262.04 571.58 262.05 571.48 262.09 571.41 262.11 571.19 262.08 571.15 262.08 571.12 262.08 571.08 262.07 571.05 262.04 570.98 261.95 570.96 261.93 570.88 261.9 570.63 261.86 570.59 261.84 570.54 261.85 570.46 261.88 570.36 261.88 570.31 261.89 570.27 261.92 570.22 261.98 570.21 261.99 570.19 261.99 570.15 261.98 570.14 261.98 570.13 262 570.13 262.01 570.12 262.02 570.04 262.07 569.99 262.08 569.9 262.07 569.81 262.11 569.76 262.12 569.71 262.11 569.59 262.06 569.53 262.06 569.49 262.07 569.42 262.14 569.38 262.15 569.36 262.14 569.34 262.09 569.32 262.08 569.29 262.08 569.25 262.1 569.22 262.1 569.03 262.04 568.83 262.04 568.67 262 568.61 262.01 568.46 262.05 568.41 262.05 568.24 262 568.15 261.99 568.04 262 568.02 262 567.98 262.01 567.96 262.03 567.89 262.22 567.86 262.26 567.81 262.32 567.75 262.36 567.68 262.39 567.63 262.39 567.48 262.33 567.44 262.33 567.35 262.34 566.85 262.27 566.7 262.27 566.65 262.26 566.51 262.18 566.46 262.14 566.4 262.1 566.26 262.06 566.2 262.03 566.14 261.97 565.95 261.88 565.69 261.84 565.62 261.81 565.39 261.63 565.36 261.59 565.3 261.5 565.27 261.46 565.23 261.43 565.14 261.41 565.06 261.36 564.97 261.35 564.92 261.32 564.81 261.23 564.74 261.2 564.67 261.18 564.61 261.15 564.49 261.05 564.43 261.01 564.49 261.1 564.51 261.15 564.51 261.19 564.47 261.21 564.12 261.26 564.08 261.24 564 261.17 563.96 261.15 563.89 261.2 563.82 261.41 563.73 261.46 563.64 261.45 563.6 261.46 563.22 261.62 563.12 261.68 563.08 261.71 563.06 261.75 562.97 262 562.93 262.08 562.91 262.12 562.9 262.17 562.91 262.23 562.93 262.33 562.94 262.38 562.93 262.43 562.87 262.56 562.76 262.82 562.73 262.93 562.73 263.04 562.74 263.14 562.78 263.23 562.94 263.54 562.94 263.55 562.94 263.6 562.87 263.61 562.74 263.56 562.54 263.52 562.51 263.48 562.51 263.42 562.52 263.33 562.48 263.29 562.43 263.27 562.28 263.26 562.24 263.25 562.2 263.23 562.16 263.19 562.07 263.16 561.97 263.15 561.69 263.2 561.61 263.2 561.54 263.18 561.46 263.14 561.41 263.09 561.33 262.95 561.28 262.89 561.21 262.85 560.89 262.77 560.73 262.78 560.66 262.76 560.39 262.58 560.25 262.53 559.96 262.51 559.93 262.52 559.87 262.55 559.83 262.56 559.76 262.54 559.5 262.39 559.37 262.36 559.33 262.34 559.3 262.32 559.26 262.31 559.23 262.31 559.15 262.34 558.99 262.35 558.92 262.37 558.68 262.53 558.64 262.54 558.61 262.53 558.52 262.45 558.5 262.44 558.48 262.44 558.44 262.46 558.33 262.42 558.28 262.42 558.24 262.46 558.22 262.5 558.19 262.55 558.15 262.58 558.11 262.6 558.07 262.59 558.01 262.56 557.97 262.55 557.93 262.57 557.88 262.66 557.85 262.69 557.82 262.72 557.73 262.75 557.71 262.78 557.71 262.84 557.71 262.96 557.7 263 557.66 263.04 557.47 263.07 557.39 263.12 557.41 263.23 557.43 263.26 557.51 263.33 557.51 263.33 557.51 263.33 557.51 263.33 557.53 263.36 557.53 263.4 557.5 263.43 557.47 263.44 557.44 263.44 557.33 263.37 557.3 263.4 557.27 263.45 557.24 263.51 557.23 263.57 557.23 263.6 557.24 263.62 557.25 263.64 557.23 263.68 557.16 263.77 557.14 263.79 557.08 263.84 557.06 263.89 557.07 263.93 557.16 264.02 557.2 264.05 557.27 264.06 557.19 264.12 557.12 264.18 557.08 264.21 557.03 264.23 556.99 264.23 556.95 264.24 556.9 264.23 556.85 264.21 556.82 264.21 556.79 264.21 556.78 264.23 556.76 264.26 556.75 264.28 556.74 264.31 556.73 264.33 556.72 264.35 556.69 264.39 556.66 264.43 556.63 264.47 556.61 264.52 556.59 264.58 556.57 264.63 556.54 264.67 556.52 264.72 556.48 264.74 556.45 264.75 556.42 264.75 556.4 264.74 556.37 264.74 556.35 264.73 556.33 264.71 556.32 264.69 556.31 264.66 556.3 264.64 556.29 264.62 556.28 264.6 556.27 264.58 556.25 264.56 556.23 264.54 556.21 264.53 556.19 264.52 556.18 264.52 556.07 264.57 555.96 264.62 555.91 264.66 555.87 264.7 555.84 264.76 555.81 264.82 555.8 264.84 555.79 264.87 555.78 264.89 555.77 264.9 555.75 264.91 555.73 264.92 555.71 264.93 555.69 264.94 555.67 264.95 555.65 264.96 555.64 264.97 555.62 264.99 555.54 265.12 555.47 265.25 555.44 265.28 555.41 265.32 555.32 265.38 555.23 265.45 555.17 265.48 555.1 265.5 555.09 265.51 555.07 265.53 555.06 265.55 555.04 265.57 555.01 265.61 554.97 265.65 554.93 265.67 554.88 265.69 554.76 265.69 554.63 265.7 554.48 265.74 554.33 265.78 554.32 265.8 554.3 265.81 554.26 265.85 554.23 265.89 554.12 265.98 554.01 266.06 553.94 266.08 553.88 266.1 553.85 266.13 553.82 266.15 553.81 266.19 553.79 266.22 553.8 266.24 553.8 266.26 553.82 266.29 553.84 266.32 553.84 266.34 553.84 266.35 553.83 266.36 553.82 266.37 553.75 266.36 553.68 266.34 553.67 266.35 553.65 266.35 553.61 266.38 553.57 266.41 553.55 266.41 553.53 266.41 553.5 266.4 553.47 266.39 553.45 266.39 553.43 266.4 553.37 266.44 553.31 266.47 553.28 266.5 553.26 266.53 553.25 266.56 553.23 266.59 553.21 266.58 553.19 266.57 553.17 266.58 553.15 266.58 553.1 266.61 553.05 266.64 553.04 266.64 553.03 266.65 553.03 266.66 553.02 266.67 553.02 266.68 553.03 266.7 553.04 266.71 553.05 266.72 553.05 266.73 553.06 266.73 553.06 266.73 553.06 266.74 553.07 266.76 553.07 266.77 553.07 266.8 553.07 266.82 553.05 266.96 553.04 267.1 553.03 267.12 553.02 267.14 553 267.15 552.98 267.17 552.94 267.2 552.91 267.23 552.87 267.24 552.83 267.26 552.78 267.27 552.73 267.28 552.71 267.28 552.68 267.29 552.67 267.31 552.66 267.33 552.63 267.38 552.6 267.43 552.52 267.46 552.45 267.49 552.42 267.53 552.39 267.56 552.35 267.68 552.31 267.79 552.28 267.82 552.26 267.85 552.19 267.88 552.17 267.89 552.13 267.91 552.09 267.93 552.06 267.95 552.05 267.99 552.04 268.02 552.03 268.02 552.03 268.01 552.02 268.01 552.01 268.01 552 268 552 268 552 268.02 552 268.03 552 268.06 552 268.1 552 268.11 552 268.13 551.99 268.14 551.99 268.16 551.98 268.16 551.97 268.17 551.97 268.18 551.96 268.18 551.96 268.21 551.95 268.23 551.96 268.35 551.97 268.47 551.98 268.5 551.99 268.53 552 268.54 552.01 268.55 552.02 268.56 552.03 268.56 552.06 268.57 552.08 268.58 552.08 268.59 552.08 268.61 552.09 268.63 552.09 268.65 552.1 268.67 552.11 268.69 552.11 268.7 552.12 268.72 552.12 268.73 552.12 268.74 552.09 268.78 552.07 268.83 552.09 268.84 552.11 268.85 552.1 268.87 552.09 268.89 552.07 268.9 552.05 268.92 552.02 268.91 551.99 268.91 551.94 268.88 551.9 268.86 551.89 268.86 551.87 268.86 551.86 268.87 551.85 268.87 551.85 268.88 551.84 268.9 551.83 268.91 551.82 268.92 551.81 268.92 551.79 268.92 551.78 268.93 551.76 268.94 551.76 268.95 551.76 268.96 551.5 268.82 551.32 268.73 551.23 268.68 551.16 268.63 551.09 268.57 550.98 268.47 550.88 268.37 550.85 268.35 550.82 268.33 550.77 268.32 550.73 268.31 550.72 268.3 550.71 268.3 550.72 268.29 550.72 268.28 550.73 268.27 550.74 268.26 550.78 268.24 550.82 268.22 550.84 268.21 550.85 268.19 550.87 268.18 550.89 268.16 550.9 268.14 550.91 268.12 550.93 268.08 550.95 268.04 550.96 267.99 550.98 267.95 550.99 267.9 551 267.85 551 267.81 551 267.77 550.99 267.75 550.98 267.73 550.98 267.72 550.97 267.72 550.96 267.71 550.95 267.71 550.96 267.7 550.97 267.7 551 267.68 551.02 267.66 551.02 267.66 551.02 267.65 551.01 267.65 551 267.65 551 267.63 551 267.62 551 267.62 551 267.61 551 267.58 550.99 267.55 550.97 267.55 550.95 267.56 550.93 267.59 550.92 267.62 550.9 267.61 550.89 267.59 550.88 267.59 550.86 267.59 550.85 267.59 550.84 267.6 550.82 267.61 550.81 267.62 550.79 267.6 550.78 267.57 550.77 267.52 550.76 267.46 550.75 267.44 550.74 267.41 550.69 267.34 550.64 267.28 550.63 267.26 550.63 267.25 550.62 267.25 550.62 267.24 550.61 267.2 550.59 267.16 550.57 267.18 550.54 267.2 550.47 267.24 550.41 267.28 550.39 267.29 550.37 267.29 550.34 267.28 550.32 267.27 550.27 267.25 550.23 267.22 550.2 267.22 550.18 267.21 549.89 267.23 549.6 267.24 549.42 267.25 549.14 267.27 548.9 267.28 548.58 267.3 548.36 267.32 548.11 267.33 548.02 267.31 547.98 267.3 547.92 267.28 547.88 267.22 547.83 267.16 547.73 266.73 547.64 266.3 547.57 265.93 547.49 265.57 547.46 265.19 547.42 264.82 547.41 264.82 547.41 264.81 547.4 264.81 547.39 264.81 547.38 264.81 547.37 264.81 547.37 264.81 547.36 264.81 547.09 264.81 546.85 264.81 546.61 264.81 546.34 264.81 546.33 264.8 546.32 264.79 546.32 264.78 546.31 264.76 546.32 264.18 546.33 263.69 546.33 263.6 546.34 263.58 546.34 263.56 546.37 263.55 546.4 263.54 546.41 263.51 546.42 263.49 546.42 263.41 546.43 263.33 546.48 262.58 546.52 261.84 546.2 262.01 545.88 262.18 545.87 262.18 545.85 262.18 545.7 261.88 545.54 261.54 545.42 261.29 545.23 260.91 545.19 260.87 545.14 260.83 544.91 260.69 544.68 260.54 544.57 260.43 544.46 260.31 544.23 260 543.99 259.69 543.95 259.66 543.91 259.62 543.88 259.62 543.84 259.61 543.8 259.63 543.76 259.64 543.55 259.76 543.33 259.88 543.11 260 542.89 260.12 542.85 260.14 542.81 260.15 542.69 260.14 542.38 260.11 542.08 260.08 541.77 260.05 541.46 260.02 541.12 259.99 540.79 259.96 540.45 259.93 540.11 259.9 539.91 259.94 539.71 259.97 539.5 260 539.3 260.03 539.1 260.07 538.9 260.1 538.69 260.13 538.49 260.17 538.37 260.19 538.24 260.21 538.12 260.23 537.99 260.26 537.91 260.27 537.84 260.29 537.76 260.3 537.68 260.31 537.5 260.35 537.49 260.35 537.45 260.33 537.4 260.31 537.24 260.12 537.11 259.98 536.99 259.83 536.86 259.69 536.74 259.55 536.61 259.4 536.48 259.25 536.35 259.11 536.23 258.96 536.07 258.78 535.95 258.65 535.83 258.52 535.58 258.25 535.44 258.04 535.42 257.96 535.41 257.8 535.39 257.73 535.35 257.65 535.3 257.58 535.16 257.49 534.96 257.36 534.7 257.19 534.38 256.97 534.01 256.73 533.6 256.46 533.17 256.17 532.73 255.87 532.28 255.58 531.85 255.28 531.43 255.01 531.05 254.75 530.91 254.65 530.71 254.52 530.43 254.33 530.21 254.19 530.08 254.09 530.03 254.06 529.86 253.94 529.8 253.92 529.74 253.91 529.57 253.96 529.43 254 529.3 254.04 529.16 254.08 529.03 254.12 528.9 254.16 528.77 254.2 528.65 254.23 528.52 254.27 528.24 254.36 527.96 254.44 527.69 254.53 527.41 254.61 527.2 254.68 526.99 254.74 526.79 254.81 526.58 254.88 526.37 254.95 526.16 255.01 525.96 255.08 525.75 255.15 525.7 255.16 525.54 255.21 525.33 255.28 525.12 255.35 524.92 255.41 524.71 255.48 524.5 255.54 524.29 255.61 524.09 255.68 524.09 255.68 524.09 255.68 524.08 255.68 524.08 255.68 524.08 255.68 524.08 255.68 524.08 255.68 524.08 255.68 524.08 255.68 524.08 255.68 524.08 255.68 524.08 255.68 524.08 255.68 524.08 255.68 524.08 255.68 524.08 255.68 524.08 255.68 524.08 255.68 524.08 255.68 524.08 255.68 524.08 255.68 524.08 255.68 524.08 255.68 524.08 255.68 524.08 255.68 524.08 255.68 524.08 255.68 524.08 255.68 524.08 255.68 524.08 255.68 524.08 255.68 524.08 255.68 524.08 255.68 524.08 255.68 524.08 255.68 524.08 255.68 524.08 255.68 524.08 255.68 524.08 255.68 524.08 255.68 524.08 255.68 524.08 255.68 524.08 255.68 524.08 255.68 524.08 255.68 524.08 255.68 524.08 255.68 524.08 255.68 524.08 255.68 524.08 255.69 524.08 255.69 524.08 255.69 524.08 255.69 524.08 255.69 524.08 255.69 524.08 255.69 524.08 255.69 524.08 255.69 524.08 255.69 524.08 255.69 524.08 256.4 524.08 257.11 524.08 257.82 524.08 258.53 524.08 259.23 524.08 259.94 524.08 260.63 524.08 261.33 524.08 262.02 524.08 262.71 524.08 263.4 524.08 264.09 524.08 264.77 524.08 265.45 524.09 266.13 524.09 266.8 523.93 266.79 523.86 266.8 523.66 266.89 523.46 266.92 523.33 266.97 523.05 266.99 522.98 266.97 522.91 266.93 522.87 266.9 522.83 266.84 522.77 266.7 522.74 266.65 522.71 266.61 522.57 266.51 522.49 266.44 522.42 266.36 522.28 266.11 522.14 265.85 522.04 265.72 521.81 265.41 521.78 265.35 521.77 265.29 521.78 265.23 521.78 265.18 521.79 265.13 521.76 265.07 521.71 265 521.34 264.66 521.07 264.48 520.85 264.33 520.48 264.08 520.13 263.85 519.97 263.79 519.8 263.77 519.27 263.87 518.93 263.93 518.54 264 518.4 264.03 517.91 264.23 517.78 264.3 517.44 264.42 516.96 264.82 516.96 264.82 516.96 264.82 516.67 265.11 516.33 265.45 516.24 265.54 516.23 265.49 516.25 265.42 516.34 265.2 516.36 265.09 516.34 264.97 516.32 264.91 516.29 264.86 516.27 264.84 516.25 264.82 516.23 264.8 516.22 264.76 516.24 264.66 516.23 264.63 516.22 264.6 516.16 264.53 516.18 264.48 516.2 264.43 516.22 264.37 516.22 264.31 516.23 264.27 516.27 264.24 516.3 264.23 516.34 264.2 516.45 263.99 516.57 263.83 516.58 263.8 516.59 263.77 516.6 263.74 516.6 263.67 516.6 263.64 516.61 263.62 516.67 263.55 516.69 263.52 516.7 263.5 516.7 263.45 516.71 263.42 516.74 263.3 516.77 263.19 516.77 263.09 516.74 262.97 516.68 262.84 516.64 262.77 516.54 262.71 516.52 262.65 516.52 262.58 516.54 262.56 516.56 262.59 516.57 262.65 516.6 262.72 516.64 262.74 516.66 262.75 516.74 262.81 516.75 262.83 516.75 262.85 516.76 262.87 516.77 262.87 516.8 262.98 516.82 263.03 516.84 263.05 516.87 263.03 516.89 262.97 516.91 262.9 516.92 262.84 516.9 262.71 516.85 262.62 516.77 262.57 516.66 262.56 516.65 262.48 516.54 262.41 516.31 262.33 516.09 262.31 516.06 262.31 516.03 262.32 516.01 262.33 515.98 262.35 515.97 262.37 515.94 262.42 515.93 262.44 515.87 262.41 515.72 262.21 515.64 262.15 515.59 262.14 515.4 262.17 515.25 262.23 515.17 262.29 515.12 262.3 515.07 262.28 514.94 262.13 514.91 262.08 514.86 261.98 514.83 261.93 514.81 261.88 514.78 261.77 514.76 261.71 514.66 261.59 514.63 261.53 514.6 261.52 514.57 261.52 514.55 261.5 514.54 261.47 514.54 261.44 514.56 261.42 514.56 261.38 514.56 261.32 514.53 261.26 514.49 261.23 514.41 261.27 514.3 261.26 514.25 261.28 514.23 261.29 514.22 261.31 514.2 261.33 514.18 261.34 514.15 261.33 514.1 261.3 514.07 261.3 513.87 261.34 513.66 261.34 513.63 261.31 513.64 261.24 513.72 260.99 513.74 260.86 513.76 260.47 513.75 260.4 513.68 260.26 513.67 260.24 513.66 260.21 513.66 260.14 513.66 260.11 513.62 260.07 513.53 260.01 513.52 259.95 513.51 259.91 513.49 259.91 513.47 259.92 513.44 259.92 513.41 259.92 513.4 259.91 513.36 259.88 513.3 259.8 513.1 259.37 513.08 259.32 513.08 259.26 513.07 259.24 513.05 259.21 513.04 259.19 513.03 259.17 513.03 259.14 513.03 259.07 513.03 259.04 513.01 259.01 512.95 258.95 512.93 258.92 512.91 258.87 512.88 258.81 512.85 258.75 512.83 258.73 512.81 258.71 512.76 258.7 512.74 258.68 512.72 258.64 512.73 258.62 512.74 258.59 512.74 258.55 512.73 258.29 512.72 258.23 512.71 258.18 512.65 258.1 512.57 258.04 512.38 257.95 511.6 257.8 511.5 257.76 511.45 257.73 511.4 257.68 511.36 257.62 511.34 257.56 511.36 257.42 511.36 257.35 511.34 257.29 511.36 257.27 511.34 257.21 511.33 257.11 511.33 257.01 511.36 256.95 511.4 257.04 511.43 257 511.45 256.92 511.46 256.87 511.48 256.85 511.49 256.81 511.49 256.77 511.5 256.74 511.52 256.72 511.54 256.73 511.56 256.75 511.59 256.76 511.94 256.83 512.04 256.83 512.15 256.79 512.2 256.79 512.22 256.84 512.26 256.85 512.45 256.85 512.49 256.88 512.51 256.9 512.54 256.88 512.55 256.85 512.56 256.82 512.57 256.81 512.6 256.8 512.71 256.81 512.77 256.82 512.82 256.85 512.9 256.92 512.96 257 512.98 257.02 513.04 257.01 513.06 257.02 513.07 257.04 513.07 257.06 513.05 257.08 513.03 257.08 513.07 257.13 513.12 257.17 513.3 257.26 513.37 257.27 513.43 257.27 513.5 257.25 513.55 257.22 513.67 257.1 513.67 257.09 513.68 257.08 513.68 257.07 513.7 257.06 513.71 257.05 513.77 257.06 513.8 257.05 513.86 257.03 513.9 257.04 513.88 257.13 513.94 257.15 514.09 257.12 514.24 257.19 514.29 257.19 514.32 257.15 514.31 257.1 514.28 257.06 514.25 257.04 514.11 256.96 514.02 256.88 513.97 256.87 513.87 256.91 513.76 256.92 513.7 256.87 513.62 256.64 513.57 256.54 513.5 256.47 513.32 256.36 513.3 256.33 513.28 256.31 513.26 256.3 513.18 256.29 513.16 256.28 513.15 256.26 513.13 256.23 512.99 256.14 512.97 256.09 512.96 256.02 512.97 255.96 513.01 255.93 513.03 255.92 513.04 255.89 513.04 255.86 513.03 255.84 513 255.83 512.97 255.82 512.95 255.82 512.94 255.78 512.96 255.73 513.01 255.7 513.07 255.68 513.11 255.67 513.17 255.68 513.19 255.68 513.23 255.65 513.24 255.63 513.27 255.59 513.29 255.57 513.38 255.5 513.44 255.47 513.49 255.46 513.52 255.49 513.56 255.54 513.61 255.58 513.66 255.59 513.67 255.55 513.66 255.49 513.63 255.43 513.6 255.38 513.59 255.35 513.6 255.31 513.61 255.28 513.62 255.25 513.62 255.22 513.6 255.18 513.59 255.16 513.61 255.12 513.63 255.06 513.7 254.96 513.71 254.91 513.74 254.86 513.93 254.62 513.95 254.57 513.96 254.5 513.97 254.44 514 254.47 514.06 254.58 514.14 254.62 514.26 254.62 514.36 254.59 514.44 254.54 514.51 254.46 514.53 254.45 514.58 254.45 514.6 254.44 514.63 254.38 514.66 254.32 514.69 254.27 514.73 254.23 514.76 254.26 514.78 254.3 514.8 254.35 514.81 254.4 515 254.43 515.03 254.44 515.09 254.5 515.13 254.52 515.17 254.5 515.24 254.44 515.29 254.43 515.34 254.43 515.43 254.46 515.48 254.47 516.16 254.38 516.25 254.41 516.42 254.38 516.52 254.41 516.9 254.58 517.12 254.61 517.23 254.67 517.28 254.69 517.49 254.66 517.55 254.68 517.67 254.72 517.72 254.73 517.77 254.71 517.86 254.66 517.91 254.64 517.93 254.64 517.95 254.61 517.97 254.6 518.02 254.62 518.03 254.62 518.04 254.61 518.06 254.59 518.08 254.57 518.07 254.54 518.03 254.51 517.8 254.46 517.78 254.45 517.77 254.42 517.75 254.41 517.73 254.39 517.66 254.38 517.56 254.35 517.28 254.21 517.23 254.2 517.21 254.19 517.17 254.13 517.15 254.12 517.13 254.11 517.05 254.09 516.94 254.04 516.9 254.02 516.91 253.98 516.9 253.95 516.89 253.93 516.9 253.9 516.91 253.87 516.91 253.84 516.91 253.82 516.9 253.79 516.91 253.72 516.92 253.66 516.94 253.62 516.99 253.61 517.02 253.58 517.05 253.53 517.09 253.41 517.17 253.26 517.21 253.22 517.23 253.2 517.29 253.18 517.31 253.16 517.38 253.05 517.41 253 517.45 252.88 517.49 252.81 517.55 252.75 517.57 252.72 517.58 252.69 517.6 252.62 517.62 252.59 517.66 252.5 517.68 252.45 517.66 252.39 517.66 252.41 517.65 252.36 517.67 252.32 517.72 252.25 517.74 252.2 517.75 252.15 517.77 251.93 517.83 251.65 517.83 251.43 517.77 251.26 517.67 251.13 517.56 251.01 517.6 251.02 517.67 251.08 517.71 251.1 517.71 251.08 517.67 251.05 517.65 251 517.65 250.94 517.66 250.88 517.62 250.9 517.57 250.95 517.52 250.99 517.48 250.97 517.48 250.9 517.5 250.82 517.57 250.68 517.58 250.74 517.6 250.77 517.64 250.77 517.68 250.75 517.7 250.7 517.71 250.58 517.72 250.53 517.74 250.59 517.76 250.58 517.78 250.52 517.8 250.48 517.82 250.48 517.87 250.48 517.89 250.48 517.92 250.47 517.93 250.46 517.94 250.42 517.94 250.29 517.9 250.22 517.83 250.18 517.76 250.17 517.72 250.16 517.7 250.11 517.71 250.01 517.67 249.78 517.63 249.7 517.62 249.66 517.6 249.64 517.5 249.65 517.47 249.65 517.43 249.6 517.34 249.47 517.31 249.44 517.21 249.45 517 249.49 516.88 249.47 516.63 249.47 516.58 249.45 516.53 249.43 516.46 249.34 516.42 249.33 516.28 249.3 516.23 249.31 516.21 249.34 516.21 249.37 516.2 249.46 516.2 249.49 516.1 249.62 516.06 249.65 515.85 249.73 515.79 249.73 515.71 249.68 515.69 249.68 515.67 249.71 515.67 249.75 515.69 249.76 515.75 249.79 515.76 249.8 515.78 249.82 515.79 249.85 515.8 249.88 515.81 249.92 515.8 249.93 515.52 249.91 515.46 249.89 515.44 249.87 515.43 249.86 515.42 249.83 515.42 249.79 515.4 249.79 515.38 249.77 515.3 249.69 515.28 249.68 515.27 249.66 515.26 249.62 515.27 249.6 515.3 249.57 515.32 249.55 515.31 249.51 515.26 249.5 515.23 249.55 515.18 249.68 515.14 249.7 515.07 249.69 514.99 249.67 514.94 249.65 515.01 249.55 515.04 249.53 514.99 249.52 514.93 249.54 514.84 249.6 514.79 249.6 514.74 249.58 514.7 249.54 514.66 249.5 514.58 249.43 514.55 249.38 514.59 249.24 514.59 249.17 514.56 249.12 514.5 249.11 514.46 249.15 514.44 249.21 514.43 249.28 514.4 249.34 514.36 249.35 514.32 249.29 514.26 249.18 514.22 249.14 514.16 249.11 514.02 249.08 513.9 249.04 513.61 248.97 513.52 248.91 513.46 248.93 513.36 249 513.28 249.05 512.99 249.11 512.94 249.14 512.88 249.23 512.84 249.25 512.81 249.23 512.76 249.19 512.73 249.18 512.71 249.19 512.7 249.21 512.69 249.23 512.7 249.25 512.69 249.27 512.51 249.58 512.47 249.61 512.45 249.55 512.46 249.52 512.5 249.45 512.51 249.41 512.5 249.39 512.47 249.41 512.39 249.49 512.34 249.52 512.28 249.54 512.23 249.52 512.2 249.52 512.19 249.58 512.18 249.73 512.16 249.78 512.13 249.83 512.09 249.86 512.06 249.84 512.1 249.78 512.12 249.73 512.11 249.7 512.06 249.69 511.99 249.71 511.97 249.72 511.95 249.75 511.93 249.74 511.91 249.72 511.84 249.66 511.82 249.65 511.8 249.64 511.79 249.64 511.78 249.65 511.76 249.69 511.68 249.9 511.65 249.93 511.66 249.89 511.66 249.78 511.63 249.8 511.62 249.84 511.6 249.88 511.59 249.91 511.57 249.92 511.53 249.92 511.51 249.93 511.5 249.95 511.49 249.96 511.39 250.14 511.35 250.19 511.31 250.18 511.31 250.15 511.32 250.11 511.33 250.08 511.31 250.06 511.28 250.07 511.21 250.12 511.01 250.33 510.95 250.44 510.91 250.48 510.86 250.5 510.78 250.49 510.75 250.5 510.73 250.52 510.69 250.57 510.68 250.59 510.6 250.63 510.57 250.67 510.54 250.68 510.48 250.66 510.45 250.69 510.44 250.75 510.43 250.79 510.37 250.77 510.34 250.72 510.33 250.7 510.3 250.72 510.3 250.78 510.3 250.82 510.27 250.8 510.23 250.74 510.2 250.72 510.17 250.73 510.17 250.75 510.18 250.83 510.17 250.86 510.03 250.67 510 250.65 509.99 250.71 510.01 250.86 509.96 250.83 509.94 250.85 509.92 250.89 509.9 250.92 509.88 250.85 509.85 250.81 509.72 250.75 509.68 250.72 509.66 250.68 509.66 250.62 509.66 250.72 509.66 250.77 509.69 250.81 509.72 250.89 509.73 250.92 509.71 250.92 509.67 250.9 509.65 250.9 509.63 250.89 509.63 250.86 509.64 250.83 509.64 250.81 509.63 250.8 509.59 250.76 509.57 250.74 509.56 250.76 509.55 250.78 509.55 250.79 509.48 250.78 509.4 250.75 509.33 250.7 509.29 250.64 509.31 250.72 509.46 250.89 509.49 250.99 509.45 250.97 509.37 250.97 509.36 250.97 509.32 250.93 509.3 250.88 509.28 250.84 509.23 250.84 509.23 250.86 509.27 250.89 509.28 250.96 509.29 251.03 509.35 251.06 509.43 251.14 509.44 251.17 509.44 251.21 509.44 251.24 509.43 251.27 509.34 251.21 509.3 251.16 509.26 251.12 509.23 251.07 509.21 251.03 509.17 251.02 509.11 251.01 509.14 251.03 509.16 251.05 509.17 251.08 509.17 251.13 509.18 251.16 509.26 251.25 509.25 251.26 509.23 251.27 509.2 251.25 509.03 251.19 509 251.2 508.99 251.21 508.99 251.24 509.01 251.26 509.04 251.27 509.06 251.27 509.1 251.3 509.11 251.36 509.11 251.42 509.12 251.45 509.12 251.47 509.12 251.47 508.69 251.22 508.53 251.09 508.43 251 508.39 250.98 508.33 250.98 508.27 250.99 508.22 250.99 508.08 250.88 508.02 250.81 507.96 250.76 507.87 250.73 507.67 250.73 507.6 250.7 507.65 250.63 507.61 250.6 507.6 250.55 507.6 250.51 507.57 250.47 507.49 250.43 507.45 250.41 507.41 250.4 507.46 250.33 507.52 250.17 507.63 250.08 507.77 250.05 507.9 250.09 507.95 250.13 507.98 250.18 508.04 250.31 508.09 250.33 508.43 250.27 508.5 250.21 508.63 250.05 507.95 248.98 507.61 248.11 507.59 248.03 507.56 247.97 507.53 247.95 507.45 247.94 507.37 247.91 507.31 247.86 507.2 247.7 507.2 247.7 506.79 246.98 506.65 246.87 506.5 246.8 505.62 246.81 505.15 246.58 505.1 246.58 505.06 246.61 505.05 246.66 505.05 246.86 505.03 247.01 505.01 247.07 504.98 247.08 504.57 246.79 504.49 246.72 504.46 246.67 504.45 246.63 504.46 246.59 504.49 246.53 504.51 246.51 504.52 246.5 504.53 246.49 504.54 246.46 504.53 246.44 504.45 246.32 504.3 246.12 504.28 246.08 504.31 246.06 504.49 245.95 504.58 245.87 504.61 245.8 504.57 245.76 504.45 245.75 504.41 245.7 504.41 245.64 504.43 245.59 504.44 245.53 504.42 245.46 504.41 245.44 504.36 245.39 504.35 245.36 504.36 245.34 504.39 245.32 504.4 245.3 504.43 245.24 504.43 245.24 504.43 245.21 504.4 245.16 504.36 245.13 504.14 245.06 503.58 244.87 503.03 244.68 503.03 244.68 503.03 244.68 503.03 244.67 503.03 244.67 503.34 243.81 503.64 242.99 503.69 242.92 503.77 242.86 503.94 242.77 503.99 242.73 504.03 242.69 504.14 242.54 504.23 242.38 504.27 242.2 504.25 242.02 504.14 241.88 503.81 241.63 503.68 241.58 503.82 240.75 503.96 239.92 504.01 239.78 504.09 239.7 504.58 239.48 504.73 239.33 504.87 239.15 504.91 239.05 504.91 238.92 504.79 238.76 504.77 238.66 504.8 238.61 504.88 238.53 504.9 238.48 504.89 238.43 504.86 238.39 504.84 238.35 504.86 238.28 504.9 238.25 505.05 238.19 505.08 238.15 505.15 238 505.16 237.98 505.22 237.88 505.32 237.79 505.42 237.74 505.51 237.74 505.57 237.78 505.71 237.97 505.81 238.02 505.84 238.06 505.87 238.1 505.88 238.14 505.9 238.16 505.95 238.18 505.97 238.2 506.08 238.32 506.12 238.38 506.21 238.46 506.3 238.6 506.39 238.67 506.4 238.72 506.41 238.76 506.43 238.81 506.45 238.85 506.57 238.94 506.61 239.03 506.63 239.13 506.65 239.23 506.68 239.33 506.69 239.36 506.72 239.43 506.73 239.46 506.76 239.48 506.84 239.56 506.89 239.64 506.9 239.71 506.93 239.77 507.01 239.77 507.07 239.76 507.09 239.77 507.2 239.87 507.33 239.95 507.35 239.95 507.38 239.94 507.43 239.86 507.46 239.84 507.92 239.66 508.14 239.53 508.31 239.33 508.35 239.27 508.36 239.23 508.36 239.2 508.34 239.06 508.32 239 508.29 238.97 508.14 238.92 508.13 238.83 508.15 238.71 508.11 238.57 508.02 238.39 507.95 238.15 507.9 237.65 507.9 237.4 507.89 237.3 507.84 237.22 507.72 237.2 507.67 237.17 507.66 237.1 507.69 237.05 507.75 237.06 508.04 237.23 508.14 237.26 508.24 237.24 508.64 236.93 508.84 236.67 508.94 236.59 509.25 236.51 509.44 236.43 509.52 236.36 509.56 236.24 509.52 236.13 509.44 236.04 509.39 235.95 509.41 235.85 509.47 235.76 509.49 235.71 509.51 235.59 509.53 235.53 509.55 235.47 509.58 235.43 509.64 235.42 509.81 235.47 510.34 235.47 510.38 235.44 510.48 235.3 510.8 235.02 510.9 234.97 511.29 234.89 511.55 234.76 511.59 234.73 511.61 234.69 511.6 234.65 511.59 234.58 511.58 234.52 511.6 234.48 511.64 234.46 511.67 234.43 511.66 234.41 511.64 234.39 511.63 234.37 511.65 234.35 511.67 234.34 511.81 234.33 511.85 234.32 511.88 234.29 511.9 234.23 511.95 234.22 511.98 234.2 512 234.17 512.01 234.09 511.99 233.88 512 233.83 512.04 233.79 512.08 233.78 512.11 233.75 512.11 233.66 512.12 233.58 512.16 233.58 512.25 233.65 512.35 233.65 512.37 233.67 512.33 233.73 512.29 233.79 512.32 233.82 512.38 233.83 512.43 233.82 512.53 233.78 512.59 233.72 512.59 233.61 512.49 233.32 512.48 233.2 512.53 233.14 512.65 233.16 512.69 233.19 512.73 233.22 512.77 233.27 512.79 233.33 512.83 233.4 512.88 233.42 513.43 233.46 513.47 233.44 513.52 233.42 513.57 233.4 513.61 233.43 513.66 233.52 513.69 233.55 513.73 233.57 513.83 233.58 513.87 233.6 513.9 233.67 513.89 233.75 513.88 233.81 513.85 233.84 513.8 233.87 513.59 233.91 513.57 233.93 513.6 233.99 513.63 234.04 513.66 234.09 513.66 234.09 513.72 234.16 513.89 234.18 514.07 234.15 514.19 234.09 514.23 234.03 514.26 233.98 514.29 233.94 514.35 233.94 514.4 233.96 514.43 234 514.43 234.05 514.43 234.13 514.49 234.23 514.59 234.22 514.7 234.16 514.78 234.09 514.79 233.96 514.75 233.84 514.75 233.73 514.87 233.59 514.94 233.49 514.98 233.45 515.04 233.42 515.1 233.43 515.16 233.45 515.22 233.49 515.28 233.51 515.34 233.52 515.41 233.52 515.47 233.5 515.51 233.46 515.56 233.34 515.59 233.29 515.65 233.26 515.78 233.27 515.84 233.26 515.89 233.22 515.91 233.12 515.95 233.08 516.01 233.12 516.05 233.24 516.07 233.38 516.1 233.49 516.25 233.78 516.31 234.01 516.33 234.04 516.35 234.09 516.39 234.14 516.43 234.18 516.48 234.21 516.49 234.21 516.54 234.18 516.74 234.19 516.75 234.22 516.77 234.21 516.8 234.17 516.82 234.14 516.84 234.13 516.87 234.11 516.92 234.11 516.93 234.1 516.95 234.07 516.96 234.04 517 234.03 517.02 234.04 517.06 234.09 517.09 234.11 517.21 234.1 517.25 234.11 517.22 234.18 517.27 234.19 517.33 234.22 517.36 234.23 517.39 234.22 517.42 234.19 517.45 234.16 517.48 234.13 517.57 234.1 517.83 234.11 517.81 234.04 517.82 234.02 517.85 234.01 517.88 234.01 517.91 234.02 517.92 234.03 517.92 234.05 517.94 234.07 517.96 234.08 517.97 234.07 517.98 234.06 518 234.06 518.16 234.08 518.2 234.08 518.25 234.05 518.3 234.08 518.3 234.08 518.39 234.12 518.41 234.15 518.46 234.24 518.49 234.27 518.71 234.36 518.81 234.43 518.84 234.46 518.85 234.52 518.83 234.54 518.76 234.58 518.8 234.63 518.8 234.69 518.79 234.75 518.8 234.81 518.88 234.88 518.91 234.93 518.92 234.99 518.98 235.05 519.38 235.18 519.5 235.16 519.56 235.17 519.64 235.24 519.69 235.29 519.74 235.41 519.79 235.44 519.9 235.46 519.95 235.49 519.97 235.54 519.99 235.68 520.01 235.73 520.02 235.76 520.03 235.79 520.02 235.85 520.09 235.94 520.13 235.97 520.22 236.03 520.25 236.07 520.28 236.12 520.31 236.16 520.37 236.2 520.54 236.23 520.57 236.25 520.61 236.29 520.63 236.3 520.73 236.32 520.76 236.34 520.78 236.37 520.78 236.4 520.78 236.44 520.76 236.47 520.64 236.64 520.62 236.71 520.61 236.86 520.6 236.93 520.55 237.09 520.54 237.16 520.55 237.23 520.59 237.3 520.67 237.41 520.71 237.45 520.76 237.48 520.81 237.49 520.91 237.47 520.92 237.46 521.01 237.43 521.14 237.32 521.2 237.22 521.19 237.11 521.12 236.85 521.12 236.78 521.14 236.65 521.14 236.58 521.13 236.55 521.1 236.51 521.09 236.49 521.1 236.46 521.13 236.4 521.14 236.37 521.11 236.23 520.99 236.16 520.87 236.12 520.81 236.08 520.84 236.05 520.89 236.02 520.91 235.99 520.86 235.86 520.88 235.82 520.93 235.79 521.11 235.73 521.17 235.73 521.22 235.74 521.27 235.77 521.35 235.85 521.5 235.92 521.54 235.97 521.61 236.06 521.68 236.13 522.02 236.23 522.06 236.31 522.05 236.45 522.1 236.54 522.59 237 522.65 237.03 522.69 237.05 522.73 237.04 522.84 237.01 522.9 237.01 522.95 237.03 523.01 237.07 523.04 237.12 523.06 237.18 523.08 237.22 523.18 237.27 523.22 237.3 523.28 237.4 523.38 237.47 523.46 237.44 523.61 237.27 523.98 237.06 524.31 236.79 524.36 236.71 524.44 236.29 524.46 236.2 524.48 236.16 524.52 236.15 524.71 236.23 524.77 236.25 524.83 236.23 524.88 236.19 524.9 236.14 524.91 236.01 524.94 235.97 525.05 235.96 525.09 235.91 525.09 235.86 525.07 235.76 525.07 235.71 525.09 235.67 525.12 235.63 525.19 235.57 525.26 235.59 525.46 235.88 525.5 235.9 525.66 235.94 525.7 235.93 525.71 235.89 525.69 235.83 525.65 235.72 525.64 235.65 525.67 235.6 525.72 235.57 525.76 235.55 525.82 235.55 525.85 235.56 525.94 235.63 525.99 235.65 526.05 235.65 526.11 235.63 526.16 235.6 526.22 235.59 526.41 235.61 526.51 235.58 526.66 235.49 526.69 235.48 526.72 235.5 526.75 235.57 526.77 235.7 526.79 235.77 526.82 235.79 526.88 235.79 526.92 235.81 526.96 235.84 526.99 235.89 527.01 235.95 527.04 236.07 527.06 236.13 527.09 236.19 527.13 236.23 527.28 236.31 527.33 236.33 527.39 236.32 527.44 236.29 527.48 236.24 527.5 236.19 527.53 236.14 527.58 236.11 527.67 236.12 527.88 236.19 527.95 236.15 527.98 236.04 527.99 235.93 527.96 235.7 527.98 235.57 528.02 235.48 528.05 235.41 528.11 235.39 528.22 235.46 528.25 235.46 528.37 235.46 528.4 235.48 528.42 235.5 528.46 235.55 528.48 235.55 528.54 235.52 528.57 235.51 528.74 235.48 528.75 235.49 528.76 235.5 528.77 235.53 528.77 235.55 528.77 235.56 528.82 235.6 528.88 235.63 528.94 235.63 528.99 235.6 529.02 235.53 529.04 235.46 529.06 235.39 529.11 235.37 529.16 235.35 529.25 235.3 529.28 235.33 529.35 235.4 529.38 235.44 529.39 235.49 529.39 235.54 529.4 235.58 529.45 235.6 529.72 235.61 529.82 235.65 529.89 235.74 529.9 235.89 529.89 235.96 529.86 236.01 529.83 236.05 529.8 236.09 529.78 236.14 529.79 236.2 529.81 236.26 529.83 236.31 529.88 236.31 529.99 236.31 530.01 236.34 529.99 236.48 530 236.52 530.04 236.56 530.1 236.57 530.16 236.55 530.22 236.54 530.27 236.59 530.31 236.7 530.33 236.75 530.37 236.79 530.53 236.92 530.62 236.95 531.22 237.01 531.27 237.02 531.31 237.07 531.33 237.12 531.36 237.15 531.39 237.17 531.43 237.17 531.64 237.12 531.75 237.12 531.84 237.18 531.89 237.23 532 237.27 532.03 237.3 532.03 237.39 531.97 237.41 531.84 237.39 531.78 237.44 531.78 237.5 531.82 237.55 531.94 237.66 532.01 237.63 532.09 237.55 532.16 237.49 532.28 237.47 532.39 237.48 532.5 237.46 532.59 237.35 532.69 237.15 532.72 237.1 532.79 237.02 532.81 236.97 532.82 236.91 532.81 236.79 532.81 236.72 532.82 236.66 532.92 236.42 532.93 236.4 532.95 236.37 533.05 236.34 533.18 236.33 533.3 236.37 533.34 236.5 533.34 236.63 533.39 236.73 533.46 236.81 533.54 236.87 533.67 236.93 534.59 237.04 534.81 237.01 535.43 236.8 536.04 236.59 536.11 236.52 536.16 236.41 536.2 236.27 536.23 235.95 536.25 235.85 536.35 235.27 536.4 235.1 536.47 235 536.57 234.95 536.69 234.92 536.65 234.9 536.53 234.85 536.46 234.79 536.41 234.69 536.32 234.41 536.28 234.34 536.27 234.32 536.19 234.3 536.09 234.24 536.01 234.2 535.98 234.21 535.92 234.23 535.89 234.23 535.86 234.22 535.79 234.18 535.73 234.17 535.58 234.18 535.53 234.17 535.44 234.14 535.4 234.13 535.32 234.14 535.3 234.13 535.28 234.12 535.27 234.11 535.26 234.1 535.25 234.09 535.24 234.08 535.23 234.06 535.15 234.01 535.13 233.97 535.09 233.9 535.08 233.86 535.07 233.83 535.07 233.71 535.08 233.67 535.04 233.67 534.14 233.64 534.12 233.64 534.11 233.61 534.1 233.57 534.1 233.54 534.07 233.52 533.83 233.48 533.79 233.45 533.79 233.38 533.82 233.33 533.93 233.28 533.97 233.25 533.98 233.22 533.98 233.16 533.99 233.14 534.03 233.1 534.05 233.08 534.06 233.05 534 232.97 533.61 232.88 533.38 232.71 533.31 232.68 533.28 232.71 533.26 232.77 533.2 232.8 533.13 232.78 533.09 232.74 532.99 232.51 532.97 232.45 532.97 232.39 533.01 232.3 533.01 232.3 533.07 232.3 533.45 232.3 533.77 231.95 533.94 231.81 534.12 231.73 534.25 231.74 534.37 231.76 534.49 231.76 534.6 231.67 534.69 231.52 534.73 231.48 534.94 231.39 534.99 231.36 535.1 231.23 535.14 231.2 535.24 231.14 535.31 231.07 535.17 230.88 535.13 230.83 535.12 230.76 535.11 230.61 535.09 230.55 535.08 230.51 535.05 230.49 534.84 230.42 534.81 230.39 534.8 230.33 534.81 230.16 534.8 230.09 534.79 230.03 534.78 230.01 534.76 230 534.64 230.02 534.61 230.01 534.58 229.99 534.57 229.96 534.56 229.94 534.55 229.92 534.52 229.9 534.5 229.88 534.49 229.85 534.49 229.81 534.49 229.77 534.54 229.62 534.64 229.56 534.75 229.53 534.84 229.48 534.87 229.44 534.92 229.33 534.96 229.29 535.35 228.93 535.16 228.75 535.16 228.75 535.16 228.75 535.33 228.75 535.41 228.73 535.49 228.67 535.49 228.67 535.49 228.67 535.49 228.67 535.56 228.61 535.64 228.6 535.72 228.62 535.79 228.67 535.85 228.7 535.92 228.71 535.99 228.7 536.05 228.67 536.16 228.58 536.21 228.57 536.28 228.6 536.36 228.67 536.49 228.81 536.56 228.84 536.63 228.79 536.67 228.75 536.71 228.74 536.81 228.76 537.03 228.73 537.12 228.76 537.26 228.87 537.34 228.88 537.51 228.82 537.59 228.76 537.64 228.67 537.64 228.67 537.69 228.49 537.69 228.41 537.67 228.32 537.62 228.23 537.55 228.19 537.07 228.09 536.91 228.02 536.78 227.9 536.69 227.77 536.64 227.75 536.43 227.87 536.36 227.88 536.28 227.85 536.06 227.68 535.98 227.65 535.77 227.65 535.67 227.63 535.58 227.54 535.53 227.46 535.51 227.36 535.52 227.27 535.56 227.18 535.66 227.04 535.68 226.99 535.69 226.94 535.7 226.83 535.74 226.79 535.8 226.77 535.85 226.79 535.9 226.83 535.94 226.91 536 226.99 536.06 227.04 536.13 227.04 536.19 227 536.3 226.88 536.36 226.83 536.45 226.78 536.39 226.53 536.36 226.48 536.33 226.47 536.08 226.47 536.02 226.49 535.92 226.63 535.84 226.64 535.53 226.57 535.49 226.54 535.47 226.52 535.45 226.46 535.43 226.43 535.32 226.4 535.01 226.38 534.95 226.3 535.01 226.21 535.23 226.29 535.31 226.22 535.32 226.18 535.31 226.13 535.32 226.09 535.33 226.04 535.37 226.02 535.45 226.01 535.47 225.97 535.5 225.88 535.55 225.81 535.61 225.75 535.66 225.69 535.66 225.61 535.61 225.56 535.53 225.52 535.47 225.48 535.43 225.42 535.41 225.4 535.36 225.39 535.22 225.38 535.17 225.37 535.15 225.33 535.15 225.29 535.15 225.25 535.17 225.21 535.21 225.15 535.26 225.12 535.36 225.1 535.43 225.09 535.54 225.12 535.55 225.13 535.56 225.16 535.58 225.2 535.61 225.24 535.64 225.28 535.68 225.28 535.72 225.21 535.73 225.14 535.72 225.08 535.67 224.96 535.66 224.94 535.65 224.86 535.77 224.85 535.83 224.82 535.87 224.76 535.91 224.7 535.97 224.69 536.14 224.72 536.18 224.75 536.24 224.89 536.28 224.92 536.44 224.96 536.45 225.08 536.47 225.11 536.51 225.13 536.55 225.12 536.57 225.08 536.58 225.03 536.59 224.96 536.8 224.96 536.83 224.99 536.86 225 536.89 224.99 536.94 224.93 536.97 224.93 537 224.94 537.04 224.96 537.05 225.03 537.06 225.08 537.07 225.11 537.12 225.15 537.19 225.17 537.44 225.19 537.44 224.96 537.44 224.94 537.44 224.86 538.35 224.83 538.39 224.84 538.42 224.88 538.42 224.96 538.42 224.96 538.32 225.03 538.29 225.08 538.3 225.15 538.34 225.21 538.45 225.27 538.49 225.32 538.51 225.36 538.54 225.39 538.57 225.41 538.6 225.41 538.63 225.39 538.64 225.37 538.62 225.25 538.61 225.22 538.61 225.19 538.64 225.14 538.73 225.04 538.7 224.98 538.68 224.96 538.65 224.83 538.72 224.73 538.83 224.66 538.92 224.64 539.11 224.62 539.23 224.57 539.28 224.58 539.37 224.63 539.43 224.63 539.62 224.58 539.84 224.61 539.9 224.58 539.93 224.51 539.93 224.46 539.91 224.4 539.89 224.33 539.92 224.27 540 224.25 540.13 224.26 540.38 224.32 540.39 224.32 540.47 224.32 540.53 224.29 540.65 224.19 540.71 224.16 540.86 224.15 541.22 223.99 541.3 223.99 541.36 224.03 541.55 224.17 541.61 224.19 541.64 224.2 541.66 224.15 541.73 224.12 541.81 224.1 541.88 224.07 541.92 223.97 541.85 223.87 541.82 223.81 541.82 223.78 541.84 223.77 541.86 223.74 541.88 223.72 541.92 223.77 541.94 223.78 541.97 223.79 542 223.78 542.02 223.77 542.05 223.72 542.07 223.71 542.11 223.7 542.2 223.73 542.26 223.72 542.37 223.67 542.43 223.65 542.48 223.63 542.49 223.62 542.52 223.6 542.55 223.6 542.61 223.63 542.83 223.6 542.85 223.59 542.87 223.56 542.89 223.54 542.9 223.52 542.93 223.53 542.98 223.55 543 223.55 543.06 223.54 543.15 223.47 543.18 223.5 543.31 223.62 543.38 223.66 543.46 223.67 543.61 223.6 543.74 223.48 543.89 223.41 544.03 223.47 544.21 223.71 544.24 223.74 544.27 223.77 544.31 223.78 544.34 223.77 544.36 223.76 544.39 223.74 544.4 223.73 544.47 223.76 544.49 223.76 544.56 223.63 544.49 223.23 544.53 223.14 544.53 223.08 544.52 223.07 544.52 222.98 544.56 222.93 544.84 222.8 544.9 222.8 545.03 222.84 545.08 222.82 545.09 222.74 545.07 222.6 545.08 222.55 545.14 222.53 545.36 222.56 545.66 222.67 545.73 222.65 545.79 222.59 545.85 222.47 545.92 222.38 545.99 222.33 546.15 222.27 546.19 222.3 546.21 222.55 546.25 222.61 546.52 222.52 547.29 222.23 547.43 222.21 547.71 222.22 547.85 222.2 547.9 222.17 547.99 222.08 548.03 222.05 548.47 222.03 548.53 222.01 548.67 221.94 548.74 221.92 548.9 221.92 548.99 221.9 549.05 221.84 549.09 221.75 549.15 221.69 549.21 221.66 549.35 221.7 549.5 221.67 549.9 221.69 550.07 221.63 550.2 221.52 550.28 221.36 550.33 221.31 550.39 221.26 550.47 221.24 550.54 221.24 550.75 221.34 551.1 221.29 551.14 221.25 551.16 221.15 551.21 221.13 551.23 221.09 551.23 221.04 551.25 220.97 551.3 220.95 551.36 220.94 551.41 220.92 551.42 220.84 551.24 220.73 551.16 220.64 551.19 220.53 551.14 220.48 551.13 220.46 551.27 220.38 551.31 220.37 551.35 220.39 551.38 220.41 551.41 220.42 551.46 220.42 551.57 220.37 551.62 220.37 551.79 220.42 551.94 220.36 551.99 220.36 552.05 220.37 552.08 220.37 552.1 220.33 552.1 220.29 552.09 220.22 552.09 220.18 552.13 220.14 552.23 220.07 552.25 220.01 552.24 219.92 552.25 219.86 552.26 219.79 552.29 219.73 552.33 219.76 552.36 219.76 552.56 219.79 552.61 219.82 552.65 219.86 552.74 220 552.78 220.05 552.83 220.08 552.88 220.05 552.91 220 552.91 219.93 552.9 219.78 552.84 219.75 552.8 219.73 552.77 219.69 552.74 219.55 552.73 219.52 552.73 219.5 552.75 219.47 552.79 219.44 552.82 219.44 553.22 219.58 553.28 219.66 553.31 219.78 553.36 219.86 553.45 219.83 553.64 219.65 553.69 219.63 554.01 219.77 554.44 219.83 554.73 219.99 554.79 220.05 554.97 220.31 555.03 220.35 555.21 220.37 555.3 220.4 555.6 220.61 555.64 220.61 555.68 220.58 555.75 220.45 555.8 220.42 555.99 220.35 556.01 220.33 556.02 220.3 556.02 220.26 556.03 220.23 556.05 220.17 556.14 220.03 556.19 220.01 556.21 220.02 556.36 220.08 556.41 220.08 556.46 220.07 556.51 220.04 556.55 219.99 556.64 219.93 556.77 219.91 556.89 219.94 556.99 219.98 556.95 220.03 556.92 220.1 556.9 220.16 556.92 220.22 557.08 220.43 557.29 220.72 557.33 220.82 557.33 220.87 557.33 220.92 557.33 220.92 557.33 220.94 557.33 220.95 557.32 221.05 557.32 221.1 557.3 221.15 557.29 221.23 557.33 221.33 557.31 221.37 557.28 221.42 557.27 221.48 557.26 221.55 557.28 221.61 557.36 221.71 557.38 221.76 557.37 221.86 557.4 221.99 557.49 222.09 557.6 222.15 557.69 222.17 557.78 222.17 557.83 222.18 557.87 222.22 557.94 222.34 557.97 222.42 557.97 222.51 557.94 222.56 557.89 222.59 557.78 222.62 557.71 222.69 557.7 222.8 557.71 223.07 557.71 223.09 557.71 223.11 557.71 223.13 557.75 223.18 557.76 223.22 557.75 223.35 557.76 223.38 557.77 223.39 557.81 223.4 557.82 223.42 557.82 223.45 557.82 223.52 557.82 223.57 557.81 223.73 557.68 223.75 557.64 223.75 557.6 223.74 557.52 223.69 557.47 223.68 557.39 223.67 557.34 223.7 557.32 223.78 557.33 223.91 557.47 223.92 557.5 223.94 557.51 224 557.51 224.09 557.5 224.17 557.48 224.23 557.57 224.27 557.6 224.31 557.63 224.36 557.7 224.5 557.74 224.55 557.79 224.55 557.87 224.49 557.93 224.42 558.04 224.22 558.09 224.17 558.16 224.18 558.23 224.22 558.3 224.23 558.37 224.23 558.39 224.25 558.41 224.28 558.42 224.33 558.44 224.52 558.49 224.51 558.6 224.45 558.65 224.44 558.68 224.46 558.72 224.5 558.75 224.52 558.79 224.53 558.82 224.52 558.89 224.48 558.95 224.43 558.97 224.38 558.96 224.21 558.97 224.14 558.99 224.07 559.03 224.02 559.07 224 559.51 224.04 559.56 224.06 559.61 224.08 559.64 224.12 559.77 224.37 559.82 224.43 559.89 224.46 559.94 224.45 559.99 224.42 560.02 224.36 560.02 224.25 559.98 224.19 559.92 224.16 559.85 224.15 559.79 224.13 559.75 224.09 559.75 224.07 559.75 224.02 559.75 223.98 559.76 223.94 559.77 223.9 559.82 223.8 559.83 223.75 559.81 223.72 559.76 223.67 559.69 223.62 559.66 223.59 559.65 223.53 559.7 223.5 559.94 223.54 560.01 223.58 560.09 223.67 560.16 223.78 560.19 223.9 560.22 223.94 560.32 223.97 560.35 224.04 560.34 224.09 560.26 224.26 560.46 224.34 560.67 224.42 560.67 224.43 560.67 224.45 560.66 224.46 560.63 224.52 560.61 224.53 560.57 224.52 560.54 224.52 560.53 224.53 560.51 224.58 560.5 224.59 560.48 224.59 560.42 224.57 560.39 224.58 560.39 224.62 560.4 224.67 560.41 224.71 560.45 224.77 560.5 224.81 560.53 224.87 560.5 224.96 560.5 224.96 560.45 225.09 560.43 225.17 560.43 225.23 560.47 225.27 560.54 225.29 560.61 225.29 560.66 225.26 560.75 225.14 560.81 225.04 560.83 225.02 560.87 225.02 561.09 225.12 561.15 225.09 561.14 224.96 561.1 224.85 561.05 224.77 561 224.73 560.92 224.72 560.73 224.77 560.72 224.74 560.73 224.67 560.75 224.6 560.77 224.55 560.87 224.45 560.98 224.42 561.28 224.46 561.56 224.49 561.69 224.47 561.72 224.49 561.75 224.54 561.76 224.6 561.77 224.75 561.87 224.8 561.89 224.85 561.92 224.96 561.96 225.01 562.24 225.07 562.62 225.16 562.65 225.15 562.66 225.12 562.66 225.08 562.67 225.04 562.69 225.03 562.76 225.03 562.78 225.04 562.81 225.07 562.86 225.13 562.88 225.14 562.94 225.12 562.97 225.1 562.97 225.05 562.97 224.96 562.97 224.96 562.99 224.89 563.12 224.86 563.16 224.8 563.15 224.75 563.13 224.71 563.12 224.68 563.15 224.66 563.27 224.63 563.3 224.64 563.31 224.66 563.31 224.74 563.33 224.75 563.46 224.71 563.36 225.3 563.33 225.4 563.28 225.45 563.22 225.47 562.89 225.4 562.83 225.4 562.77 225.44 562.73 225.49 562.68 225.57 562.79 225.65 562.59 225.73 562.55 225.77 562.5 226.11 562.4 226.12 562.36 226.15 562.33 226.19 562.31 226.27 562.32 226.32 562.39 226.4 562.33 226.53 562.68 226.72 562.59 226.95 562.73 227.06 562.76 227.05 562.82 226.99 562.98 226.83 562.98 226.83 562.98 226.83 563.03 226.77 563.05 226.74 563.07 226.7 563.09 226.64 563.09 226.6 563.11 226.58 563.15 226.57 563.16 226.56 563.22 226.57 563.24 226.56 563.24 226.54 563.24 226.5 563.26 226.45 563.26 226.42 563.26 226.39 563.28 226.38 563.45 226.39 563.49 226.4 563.56 226.45 563.6 226.43 563.75 226.31 563.82 226.28 563.89 226.28 563.98 226.3 564.13 226.32 564.16 226.34 564.17 226.39 564.17 226.47 564.17 226.53 564.2 226.55 564.27 226.56 564.3 226.54 564.34 226.45 564.36 226.43 564.51 226.44 564.53 226.45 564.55 226.49 564.57 226.55 564.59 226.59 564.63 226.6 564.62 226.69 564.63 226.74 564.71 226.83 564.71 226.83 564.71 226.83 564.83 226.92 564.89 226.94 564.94 226.88 565.05 226.54 565.04 226.51 565.02 226.48 564.98 226.44 564.97 226.42 564.99 226.23 565.01 226.15 565.04 226.11 565.4 226.13 565.42 226.1 565.46 225.92 565.48 225.87 565.5 225.85 565.53 225.84 565.64 225.83 565.66 225.81 565.68 225.76 565.71 225.65 565.72 225.6 565.74 225.56 565.82 225.54 566 225.54 566.08 225.56 566.25 225.66 566.31 225.65 566.6 225.44 566.87 225.24 567.21 224.98 567.05 224.71 567.2 224.59 567.28 224.55 567.36 224.54 567.59 224.57 567.67 224.56 567.78 224.5 567.92 224.44 568.17 224.32 568.56 224.13 568.87 223.98 568.85 223.89 568.84 223.83 568.86 223.77 568.9 223.7 568.94 223.64 568.99 223.62 569.43 223.73 569.52 223.71 569.66 223.6 569.71 223.58 569.75 223.58 569.81 223.59 569.85 223.59 569.89 223.55 569.9 223.48 569.9 223.4 569.91 223.33 569.96 223.28 570.02 223.27 570.15 223.28 570.2 223.27 570.36 223.19 570.4 223.17 570.45 223.18 570.48 223.21 570.47 223.29 570.43 223.33 570.25 223.38 570.21 223.41 570.16 223.45 570.14 223.51 570.16 223.55 570.28 223.59 570.32 223.62 570.34 223.71 570.32 223.81 570.29 223.88 570.24 223.95 570.2 224.02 570.17 224.13 570.16 224.17 570.13 224.2 570.08 224.25 570.05 224.29 569.94 224.42 569.81 224.42 569.52 224.31 569.38 224.31 569.34 224.32 569.3 224.35 569.3 224.37 569.52 224.77 569.54 224.82 569.56 224.96 569.63 225.08 569.82 225.23 570.09 225.45 570.5 225.78 570.92 226.11 571.33 226.44 571.74 226.77 572.04 227.01 572.31 227.31 572.42 227.44 572.6 227.64 572.85 228.03 573 228.29 573.24 228.71 573.48 229.13 573.72 229.55 573.96 229.97 574.27 230.56 574.58 231.14 574.9 231.72 575.21 232.3 575.21 232.3 575.21 232.3 575.21 232.3 575.45 232.75 575.68 233.2 575.79 233.4 575.92 233.64 576.16 234.09 576.36 234.51 576.55 234.94 576.75 235.36 576.95 235.78 577.05 236 577.17 236.25 577.23 236.44 577.26 236.49 577.31 236.57 577.38 236.64 577.46 236.69 577.52 236.69 577.4 236.5 577.37 236.39 577.44 236.34 577.48 236.36 577.56 236.45 577.6 236.48 577.65 236.47 577.68 236.43 577.71 236.32 577.74 236.26 577.77 236.24 577.85 236.2 577.87 236.18 577.91 236.14 577.93 236.12 577.95 236.12 578.04 236.13 578.13 236.11 578.23 236.06 578.31 235.97 578.35 235.85 578.36 235.8 578.36 235.74 578.36 235.67 578.36 235.62 578.33 235.57 578.27 235.5 578.24 235.46 578.24 235.41 578.24 235.35 578.25 235.23 578.27 235.17 578.3 235.12 578.34 235.1 578.39 235.09 578.58 235.12 578.66 235.09 578.69 235 578.69 234.95 578.71 234.9 578.74 234.85 578.76 234.81 578.81 234.77 578.85 234.76 579.14 234.91 579.2 234.92 579.23 234.9 579.25 234.86 579.29 234.82 579.34 234.83 579.36 234.88 579.36 235 579.38 235.07 579.41 235.1 579.5 235.15 579.6 235.2 579.65 235.22 579.71 235.22 579.77 235.16 579.8 235.14 579.84 235.14 579.89 235.17 579.9 235.21 579.9 235.27 579.88 235.35 579.73 235.72 579.67 235.93 579.66 235.98 579.68 236.01 579.72 236.04 579.78 236.05 579.9 236.04 580.17 235.96 580.44 235.97 580.44 236.1 580.47 236.21 580.52 236.32 580.58 236.41 580.54 236.48 580.49 236.57 580.48 236.66 580.51 236.73 580.57 236.77 581.04 236.75 581.1 236.72 581.16 236.62 581.2 236.58 581.24 236.58 581.33 236.64 581.37 236.65 581.53 236.62 581.65 236.64 581.75 236.67 581.79 236.7 581.93 236.82 581.98 236.85 582.09 236.87 582.15 236.87 582.21 236.85 582.25 236.81 582.29 236.76 582.33 236.72 582.37 236.73 582.41 236.75 582.43 236.73 582.46 236.71 582.49 236.7 582.52 236.7 582.55 236.72 582.57 236.73 582.67 236.71 582.72 236.73 582.82 236.83 583.11 236.64 583.26 236.56 583.31 236.49 583.32 236.24 583.38 236.18 583.46 236.15 583.64 236.21 583.93 236.24 584.03 236.21 584.11 236.12 584.17 235.99 584.22 235.85 584.24 235.85 584.27 235.84 584.29 235.85 584.35 235.87 584.38 235.87 584.42 235.87 584.45 235.85 584.7 235.82 584.95 235.85 585.01 235.95 585.04 235.99 585.09 236.02 585.34 236.07 585.39 236.09 585.51 236.21 585.56 236.24 585.61 236.25 585.71 236.25 585.76 236.26 585.8 236.29 585.84 236.33 585.91 236.45 585.94 236.49 586.03 236.53 586.09 236.6 586.09 236.81 586.15 236.92 586.4 237.1 586.43 237.13 586.49 237.22 586.52 237.29 586.52 237.34 586.54 237.39 586.61 237.48 586.63 237.53 586.64 237.6 586.59 237.78 586.63 237.89 586.68 238 586.73 238.11 586.74 238.19 586.73 238.27 586.73 238.34 586.75 238.41 586.78 238.43 586.85 238.45 586.87 238.46 586.89 238.49 586.92 238.54 586.93 238.57 587.02 238.57 587.1 238.51 587.18 238.46 587.25 238.52 587.32 238.6 587.39 238.64 587.46 238.66 587.54 238.66 587.62 238.66 587.68 238.72 587.73 238.78 587.8 238.83 587.84 238.83 587.91 238.82 587.95 238.84 587.98 238.88 588.03 239 588.06 239.02 588.1 239.01 588.14 238.98 588.17 238.97 588.22 238.97 588.36 239.04 588.39 239.07 588.46 239.19 588.48 239.23 588.47 239.29 588.44 239.31 588.34 239.33 588.34 239.33 588.33 239.33 588.32 239.33 588.31 239.53 588.32 239.62 588.36 239.66 588.49 239.7 588.54 239.74 588.57 239.81 588.59 239.94 588.6 239.99 588.63 240.05 588.78 240.21 588.83 240.31 588.85 240.58 588.91 240.68 589 240.73 589.09 240.7 589.13 240.67 589.17 240.64 589.22 240.62 589.27 240.62 589.32 240.64 589.42 240.71 589.47 240.73 589.55 240.72 589.59 240.71 589.63 240.69 589.7 240.62 589.74 240.6 589.78 240.61 589.81 240.65 589.84 240.75 589.87 240.79 589.91 240.81 589.95 240.8 590.03 240.76 590.07 240.76 590.11 240.78 590.14 240.82 590.18 240.87 590.21 240.89 590.25 240.87 590.32 240.82 590.37 240.8 590.41 240.79 590.5 240.81 590.51 240.84 590.48 240.98 590.48 241.04 590.51 241.07 590.55 241.08 590.59 241.07 590.62 241.04 590.62 241.04 590.69 240.96 590.79 240.92 590.88 240.94 590.94 241.03 591.03 241.14 591.11 241.02 591.18 240.84 591.24 240.73 591.36 240.64 591.5 240.59 591.65 240.45 591.69 240.43 591.7 240.41 591.7 240.38 591.7 240.34 591.68 240.3 591.79 240.24 591.8 240.23 591.82 240.19 591.84 240.18 591.86 240.18 591.87 240.19 591.89 240.18 591.93 240.12 591.95 240.05 591.99 240 592.06 240.01 592.15 240.06 592.19 240.06 592.25 240.05 592.29 240.05 592.32 240.06 592.32 240.1 592.3 240.14 592.28 240.18 592.27 240.21 592.27 240.25 592.3 240.29 592.35 240.35 592.31 240.39 592.27 240.42 592.22 240.44 592.11 240.45 592.07 240.49 591.99 240.6 591.95 240.66 591.95 240.71 591.96 240.76 592 240.81 592.06 240.85 592.11 240.85 592.21 240.83 592.26 240.84 592.41 240.94 592.46 240.98 592.46 241.04 592.44 241.1 592.44 241.18 592.47 241.24 592.53 241.28 592.64 241.33 592.7 241.38 592.7 241.42 592.66 241.45 592.64 241.51 592.66 241.56 592.7 241.61 592.85 241.73 592.88 241.76 592.89 241.78 592.89 241.83 592.9 241.86 592.93 241.88 592.96 241.9 593.02 241.9 593.21 241.89 593.27 241.9 593.33 241.93 593.45 242.01 593.49 242.08 593.53 242.32 593.57 242.42 Z M 539.23 252.32 539.21 252.45 539.21 252.58 539.21 252.72 539.23 252.85 539.27 252.97 539.31 253.09 539.36 253.21 539.43 253.32 539.5 253.42 539.59 253.51 539.68 253.59 539.78 253.67 539.88 253.73 540 253.79 540.12 253.83 540.24 253.86 540.37 253.88 540.5 253.89 540.63 253.88 540.76 253.86 540.89 253.83 541 253.79 541.12 253.73 541.22 253.67 541.32 253.59 541.42 253.51 541.5 253.42 541.57 253.32 541.64 253.21 541.69 253.09 541.74 252.97 541.77 252.85 541.79 252.72 541.79 252.58 541.79 252.45 541.77 252.32 541.74 252.19 541.69 252.07 541.64 251.96 541.57 251.85 541.5 251.75 541.42 251.65 541.32 251.57 541.22 251.49 541.12 251.43 541 251.37 540.89 251.33 540.76 251.3 540.63 251.28 540.5 251.27 540.37 251.28 540.24 251.3 540.12 251.33 540 251.37 539.88 251.43 539.78 251.49 539.68 251.57 539.59 251.65 539.5 251.75 539.43 251.85 539.36 251.96 539.31 252.07 539.27 252.19 539.23 252.32 Z" fill-rule="evenodd" id="Kazakhstan" transform="translate(-503.0299987792969,-219.44000244140625) "/></svg>