<svg xmlns="http://www.w3.org/2000/svg" viewBox="0 0 17.730010986328125 21.3900146484375"><path d="M 491.24 371.56 491.23 371.6 491.19 371.61 491.16 371.56 491.16 371.59 491.16 371.61 491.15 371.63 491.13 371.64 491.13 371.64 491.12 371.64 491.12 371.65 491.1 371.65 491.09 371.65 491.07 371.64 491.07 371.63 491.06 371.62 491.04 371.63 491 371.64 490.91 371.68 490.89 371.67 490.87 371.67 490.86 371.69 490.85 371.72 490.86 371.74 490.89 371.75 490.91 371.77 490.9 371.79 490.87 371.79 490.85 371.78 490.84 371.75 490.84 371.73 490.79 371.74 490.79 371.69 490.82 371.62 490.85 371.57 490.89 371.55 490.94 371.53 490.98 371.51 491 371.46 491.03 371.43 491.09 371.44 491.16 371.46 491.2 371.49 491.24 371.56 Z M 479.62 356.77 479.63 356.81 479.66 356.86 479.66 356.91 479.65 356.95 479.65 356.99 479.67 357.02 479.71 357.05 479.79 357.12 479.84 357.15 479.89 357.16 479.9 357.16 480.22 357.16 480.3 357.15 480.32 357.15 480.35 357.16 480.39 357.17 480.41 357.18 480.83 357.17 481.17 357.16 481.19 357.17 481.23 357.19 481.24 357.19 481.24 357.19 481.67 357.19 481.8 357.22 481.96 357.3 482.05 357.32 482.07 357.34 482.11 357.4 482.12 357.41 482.17 357.41 482.18 357.41 482.2 357.43 482.21 357.45 482.22 357.5 482.23 357.51 482.24 357.52 482.25 357.52 482.26 357.52 482.38 357.6 482.6 357.73 482.82 357.87 483.07 358.03 483.25 358.15 483.45 358.28 483.68 358.43 483.89 358.56 484.11 358.7 484.18 358.75 484.22 358.79 484.28 358.88 484.31 358.92 484.34 358.93 484.41 358.95 484.46 359 484.49 359 484.56 358.98 484.63 358.98 484.86 359 485.1 359.03 485.22 359.02 485.33 358.97 485.34 358.96 485.34 358.94 485.34 358.92 485.36 358.91 485.37 358.92 485.42 358.95 485.43 358.97 485.44 358.99 485.45 359 485.48 359.01 485.51 359.01 485.52 359.01 485.55 359 485.55 359.01 485.56 359.02 485.57 359.03 485.7 359.04 485.7 359.02 485.7 358.99 485.7 358.98 485.76 359.05 485.79 359.09 485.83 359.11 486.05 359.17 486.22 359.21 486.28 359.21 486.37 359.2 486.41 359.2 486.44 359.21 486.47 359.21 486.6 359.19 486.62 359.19 486.65 359.2 486.85 359.3 486.94 359.31 487.02 359.31 487.11 359.26 487.12 359.25 487.15 359.26 487.16 359.28 487.14 359.32 487.42 359.33 487.49 359.35 487.5 359.38 487.52 359.4 487.53 359.43 487.57 359.46 487.64 359.45 487.68 359.4 487.72 359.25 487.78 359.18 487.93 359.05 488.1 358.89 488.14 358.84 488.18 358.77 488.24 358.6 488.29 358.49 488.33 358.43 488.52 358.34 488.71 358.25 488.93 358.15 489.03 358.1 489.04 358.09 489.04 358.07 489.04 358.06 489.06 358.07 489.07 358.07 489.07 358.07 489.08 358.07 489.3 357.99 489.48 357.93 489.49 357.92 489.5 357.89 489.51 357.87 489.8 357.76 490.04 357.67 490.22 357.6 490.36 357.51 490.41 357.58 490.54 357.67 490.6 357.73 490.63 357.8 490.66 357.82 490.7 357.84 490.8 357.88 490.84 357.9 490.9 357.95 491.04 358.15 491.14 358.22 491.24 358.27 491.36 358.28 491.59 358.27 491.84 358.25 491.95 358.22 492.01 358.22 492.18 358.18 492.22 358.18 492.28 358.2 492.31 358.21 492.34 358.2 492.43 358.15 492.54 358.18 492.64 358.23 492.74 358.25 492.85 358.19 492.66 358.46 492.47 358.72 492.29 358.99 492.1 359.25 491.99 359.41 491.87 359.58 491.76 359.74 491.64 359.9 491.46 360.08 491.28 360.26 491.1 360.44 490.91 360.62 490.84 360.7 490.81 360.76 490.81 360.87 490.81 361.16 490.81 361.45 490.81 361.62 490.81 361.85 490.81 362.09 490.81 362.32 490.81 362.56 490.81 362.83 490.81 363.11 490.81 363.38 490.81 363.66 490.81 363.93 490.81 364.21 490.81 364.24 490.81 364.48 490.81 364.76 490.81 365.03 490.81 365.31 490.81 365.58 490.81 365.86 490.81 366.13 490.81 366.41 490.81 366.68 490.81 366.96 490.82 367.14 490.82 367.29 490.82 367.44 490.82 367.67 490.83 367.91 490.83 368.15 490.83 368.39 490.83 368.55 490.84 368.7 490.84 368.87 490.9 368.94 490.95 369.01 491.01 369.09 491.06 369.16 491.17 369.3 491.29 369.45 491.41 369.6 491.51 369.73 491.62 369.87 491.73 370.02 491.85 370.16 491.96 370.3 492.04 370.41 492.07 370.46 492.08 370.5 492.07 370.64 492.07 370.69 492.07 370.69 492.07 370.69 491.9 370.86 491.82 370.98 491.81 371.02 491.76 371.05 491.64 371.16 491.56 371.26 491.51 371.29 491.48 371.24 491.43 371.26 491.4 371.26 491.37 371.23 491.37 371.18 491.32 371.23 491.32 371.28 491.3 371.33 491.23 371.33 491.14 371.31 491.13 371.31 491.1 371.32 491.05 371.37 490.99 371.4 490.97 371.43 490.95 371.45 490.91 371.45 490.88 371.43 490.86 371.42 490.85 371.4 490.84 371.37 490.84 371.33 490.86 371.27 490.86 371.25 490.85 371.21 490.86 371.19 490.9 371.14 490.82 371.2 490.81 371.46 490.76 371.52 490.72 371.49 490.68 371.35 490.64 371.32 490.62 371.31 490.6 371.28 490.58 371.27 490.55 371.31 490.56 371.34 490.57 371.37 490.56 371.4 490.6 371.38 490.63 371.39 490.65 371.41 490.65 371.45 490.65 371.46 490.63 371.47 490.62 371.49 490.63 371.51 490.65 371.51 490.66 371.52 490.67 371.53 490.68 371.69 490.69 371.78 490.72 371.83 490.74 371.84 490.76 371.84 490.79 371.84 490.82 371.86 490.84 371.89 490.84 371.91 490.82 371.97 490.76 372.04 490.71 372.05 490.7 372.02 490.78 371.98 490.74 371.97 490.71 371.95 490.65 371.89 490.65 371.88 490.65 371.87 490.65 371.86 490.62 371.85 490.63 371.85 490.61 371.86 490.58 371.86 490.52 371.89 490.47 371.95 490.43 371.99 490.38 371.97 490.38 371.99 490.39 372.01 490.4 372.03 490.42 372.03 490.43 372.04 490.43 372.05 490.41 372.08 490.43 372.11 490.49 372.15 490.5 372.18 490.48 372.23 490.42 372.29 490.35 372.34 490.24 372.38 490.11 372.54 490.03 372.57 489.96 372.56 489.9 372.53 489.83 372.51 489.75 372.52 489.53 372.59 489.44 372.65 489.38 372.67 489.32 372.71 489.21 372.8 489.18 372.83 489.16 372.86 489.12 372.95 489.05 373.03 489.05 373.07 489.05 373.09 489.08 373.13 489.08 373.15 489.08 373.18 489.07 373.2 489.03 373.34 489.03 373.41 489.07 373.45 489.06 373.51 489.09 373.53 489.14 373.53 489.18 373.49 489.18 373.52 489.17 373.54 489.09 373.62 489.04 373.68 489.03 373.71 489.02 373.82 489.01 373.86 488.93 373.96 488.93 373.99 488.95 374.07 488.95 374.11 488.94 374.15 488.92 374.18 488.89 374.21 488.86 374.23 488.75 374.28 488.73 374.29 488.67 374.36 488.64 374.38 488.6 374.39 488.62 374.35 488.64 374.27 488.65 374.23 488.61 374.24 488.59 374.27 488.59 374.29 488.59 374.33 488.59 374.35 488.57 374.4 488.58 374.41 488.59 374.42 488.59 374.44 488.55 374.5 488.51 374.62 488.45 374.71 488.42 374.84 488.4 374.89 488.37 374.92 488.35 374.92 488.3 374.9 488.29 374.89 488.26 374.86 488.25 374.86 488.19 374.85 488.2 374.83 488.2 374.83 488.18 374.81 488.16 374.85 488.17 374.88 488.2 374.9 488.24 374.9 488.21 374.93 488.22 374.96 488.25 374.97 488.33 374.94 488.36 374.95 488.37 374.99 488.38 375.02 488.37 375.09 488.19 375.58 488.14 375.63 488.07 375.64 488.03 375.61 488.03 375.54 487.98 375.56 487.97 375.58 487.97 375.6 487.99 375.62 488 375.65 488.01 375.67 488.03 375.69 488.08 375.68 488.1 375.69 488.1 375.73 488.05 375.78 488.04 375.8 488.04 375.82 488.02 375.85 488 375.87 487.98 375.88 487.96 375.87 487.95 375.82 487.93 375.81 487.91 375.78 487.92 375.73 487.91 375.7 487.88 375.73 487.82 375.7 487.79 375.7 487.77 375.72 487.79 375.74 487.82 375.75 487.88 375.76 487.86 375.8 487.84 375.82 487.77 375.83 487.75 375.84 487.72 375.83 487.7 375.84 487.69 375.85 487.69 375.9 487.7 375.92 487.71 375.94 487.74 375.9 487.81 375.89 487.89 375.92 487.93 375.96 487.93 376.01 487.82 376.2 487.74 376.38 487.67 376.65 487.65 376.71 487.63 376.68 487.61 376.69 487.59 376.7 487.57 376.73 487.57 376.74 487.57 376.77 487.56 376.78 487.53 376.81 487.52 376.82 487.45 377.05 487.44 377.01 487.44 376.94 487.43 376.91 487.41 376.93 487.39 376.96 487.38 377 487.36 377.03 487.35 377.03 487.33 377.02 487.32 377.02 487.31 377.05 487.32 377.07 487.35 377.12 487.33 377.15 487.25 377.16 487.17 377.14 487.12 377.08 487.11 377.09 487.1 377.12 487.04 377.1 486.99 377.15 486.95 377.21 486.9 377.24 486.89 377.24 486.89 377.25 486.88 377.25 486.87 377.26 486.68 377.12 486.5 376.99 486.31 376.85 486.12 376.72 485.93 376.58 485.74 376.44 485.55 376.31 485.36 376.17 485.17 376.04 485.16 376.03 484.98 375.9 484.79 375.77 484.6 375.63 484.41 375.5 484.22 375.36 484.04 375.22 483.85 375.09 483.73 375 483.7 374.96 483.67 374.92 483.63 374.78 483.62 374.75 483.59 374.72 483.54 374.7 483.5 374.69 483.45 374.68 483.34 374.69 483.34 374.66 483.36 374.62 483.36 374.58 483.35 374.56 483.32 374.56 483.3 374.54 483.3 374.52 483.3 374.49 483.31 374.47 483.33 374.45 483.36 374.41 483.41 374.37 483.46 374.35 483.5 374.34 483.5 374.3 483.51 374.27 483.53 374.25 483.57 374.25 483.52 373.98 483.52 373.95 483.48 373.71 483.45 373.66 483.26 373.56 482.96 373.39 482.79 373.29 482.31 373.03 481.84 372.77 481.36 372.5 480.88 372.24 480.41 371.97 479.93 371.71 479.46 371.45 478.98 371.18 478.5 370.92 478.13 370.71 478.03 370.65 477.55 370.39 477.08 370.13 476.96 370.06 476.6 369.86 476.13 369.6 475.65 369.33 475.48 369.24 475.4 369.24 475.37 369.22 475.37 369.16 475.33 369.16 475.32 369.16 475.15 369.16 475.14 368.71 475.13 368.41 475.17 368.1 475.22 367.64 475.26 367.29 475.26 367.21 475.19 366.98 475.12 366.75 475.13 366.71 475.26 366.54 475.28 366.52 475.46 366.28 475.54 366.22 475.56 366.19 475.56 366.14 475.54 366.06 475.53 366.02 475.54 366 475.58 365.96 475.6 365.93 475.61 365.92 475.66 365.7 475.66 365.69 475.7 365.62 475.76 365.58 475.85 365.55 475.93 365.51 475.98 365.45 476.01 365.36 476.02 365.31 476.03 365.28 476.05 365.26 476.19 365.19 476.23 365.16 476.26 365.07 476.32 364.99 476.38 364.84 476.39 364.8 476.39 364.7 476.41 364.65 476.42 364.61 476.45 364.57 476.49 364.53 476.53 364.53 476.56 364.55 476.61 364.55 476.61 364.55 476.62 364.52 476.63 364.51 476.64 364.46 476.65 364.42 476.76 364.39 476.84 364.32 476.88 364.29 477.06 364.27 477.14 364.24 477.16 364.15 477.14 364.06 477.1 363.97 477.1 363.93 477.09 363.9 477.23 363.79 477.27 363.61 477.32 363.54 477.35 363.52 477.39 363.52 477.41 363.51 477.44 363.48 477.45 363.46 477.52 363.31 477.54 363.26 477.54 362.84 477.55 362.81 477.59 362.76 477.6 362.73 477.59 362.71 477.53 362.66 477.52 362.64 477.5 362.6 477.49 362.55 477.49 362.51 477.49 362.47 477.51 362.37 477.51 362.33 477.41 362.09 477.37 361.99 477.29 361.78 477.27 361.7 477.29 361.64 477.33 361.61 477.38 361.59 477.41 361.55 477.41 361.5 477.39 361.46 477.33 361.4 477.32 361.36 477.31 361.25 477.29 361.22 477.27 361.22 477.25 361.24 477.23 361.26 477.2 361.25 477.18 361.23 477.09 361.04 477.05 360.85 477.01 360.71 477 360.69 476.99 360.67 476.97 360.67 476.91 360.64 476.91 360.63 476.9 360.63 476.9 360.62 476.89 360.61 476.89 360.61 476.88 360.61 476.87 360.63 476.86 360.63 476.86 360.64 476.83 360.66 476.82 360.66 476.79 360.66 476.77 360.63 476.73 360.58 476.66 360.5 476.64 360.47 476.58 360.13 476.58 360.13 476.55 360.09 476.5 360.06 476.4 360.03 476.35 360 476.33 359.95 476.31 359.67 476.28 359.59 476.26 359.56 476.24 359.54 476.22 359.52 476.22 359.49 476.22 359.47 476.25 359.41 476.25 359.39 476.24 359.37 476.21 359.32 476.21 359.3 476.22 359.28 476.24 359.27 476.27 359.26 476.29 359.25 476.33 359.19 476.35 359.1 476.36 358.92 476.34 358.87 476.31 358.85 476.27 358.84 476.23 358.82 476.15 358.74 476.11 358.73 476.05 358.74 476.03 358.77 476.02 358.79 476.01 358.8 475.98 358.78 475.95 358.69 475.9 358.63 475.9 358.62 475.88 358.62 475.83 358.63 475.79 358.64 475.75 358.65 475.73 358.65 475.7 358.64 475.72 358.62 475.76 358.59 475.74 358.56 475.7 358.55 475.7 358.53 475.8 358.48 475.83 358.45 475.82 358.42 475.77 358.39 475.73 358.39 475.64 358.42 475.61 358.43 475.55 358.41 475.56 358.37 475.59 358.32 475.61 358.27 475.6 358.23 475.58 358.21 475.55 358.18 475.52 358.16 475.5 358.12 475.5 358.1 475.51 358.08 475.52 358.05 475.53 358 475.53 357.97 475.52 357.95 475.5 357.92 475.48 357.9 475.46 357.88 475.45 357.85 475.46 357.78 475.43 357.73 475.38 357.69 475.32 357.66 475.54 357.44 475.76 357.22 475.99 356.99 476.21 356.77 476.39 356.68 476.54 356.6 476.69 356.53 476.84 356.45 477.06 356.38 477.24 356.31 477.41 356.24 477.59 356.18 477.79 356.1 477.97 356.03 478.13 355.97 478.17 356.05 478.32 355.96 478.5 355.87 478.54 355.93 478.46 356.1 478.68 356.1 478.85 356.15 478.74 356.42 478.83 356.58 478.94 356.77 478.94 356.77 479.14 356.84 479.15 356.77 479.15 356.77 479.16 356.68 479.22 356.64 479.31 356.64 479.32 356.77 479.48 356.77 479.62 356.77 Z" fill-rule="evenodd" id="Kenya" transform="translate(-475.1199951171875,-355.8699951171875) "/></svg>