<svg xmlns="http://www.w3.org/2000/svg" viewBox="0 0 3.8699951171875 4.25"><path d="M 447.8 264.07 447.8 264.06 447.7 264.09 447.66 264.09 447.62 264.06 447.6 264.09 447.59 264.1 447.56 264.09 447.54 264.07 447.52 264.07 447.48 264.09 447.48 264.11 447.5 264.14 447.5 264.16 447.48 264.16 447.4 264.13 447.36 264.13 447.35 264.15 447.33 264.16 447.2 264.36 447.2 264.38 447.21 264.4 447.21 264.42 447.22 264.44 447.22 264.5 447.22 264.51 447.21 264.53 447.19 264.53 447.09 264.51 447.08 264.51 447.06 264.49 447.05 264.48 447.03 264.44 446.99 264.38 446.91 264.3 446.83 264.24 446.8 264.22 446.79 264.22 446.77 264.22 446.71 264.25 446.64 264.32 446.61 264.35 446.56 264.38 446.49 264.4 446.34 264.45 446.13 264.52 446.07 264.56 446.03 264.61 446.01 264.67 445.98 264.82 445.98 264.89 446 264.98 446.01 265.01 446 265.07 446 265.08 445.97 265.13 445.94 265.2 445.92 265.22 445.89 265.25 445.84 265.26 445.82 265.25 445.78 265.19 445.76 265.18 445.75 265.18 445.72 265.23 445.7 265.24 445.67 265.25 445.64 265.23 445.59 265.18 445.59 265.15 445.58 265.12 445.58 265.1 445.59 265.06 445.6 265.04 445.62 265.03 445.64 265.01 445.66 264.95 445.66 264.92 445.65 264.88 445.64 264.82 445.57 264.64 445.56 264.58 445.56 264.49 445.55 264.43 445.53 264.35 445.44 264.17 445.4 264.11 445.38 264.09 445.35 264.05 445.07 263.85 445.04 263.85 444.89 263.85 444.86 263.85 444.84 263.83 444.82 263.78 444.82 263.76 444.82 263.72 444.82 263.69 444.81 263.68 444.77 263.65 444.76 263.63 444.76 263.61 444.79 263.57 444.79 263.55 444.78 263.53 444.75 263.5 444.73 263.48 444.67 263.33 444.67 263.33 444.67 263.33 444.67 263.33 444.67 263.33 444.63 263.28 444.52 263.22 444.48 263.17 444.5 263.13 444.51 263.09 444.5 263.05 444.5 263 444.51 262.98 444.53 262.93 444.56 262.85 444.56 262.84 444.54 262.81 444.42 262.69 444.41 262.69 444.39 262.64 444.39 262.58 444.41 262.55 444.46 262.52 444.48 262.5 444.5 262.49 444.58 262.51 444.66 262.56 444.74 262.58 444.8 262.52 444.8 262.49 444.8 262.46 444.8 262.43 444.82 262.4 444.83 262.39 444.92 262.36 445.1 262.33 445.28 262.29 445.39 262.24 445.44 262.17 445.43 262.15 445.42 262.11 445.37 262.08 445.33 262.04 445.35 261.96 445.39 261.91 445.43 261.9 445.47 261.9 445.51 261.88 445.53 261.86 445.54 261.84 445.56 261.8 445.58 261.78 445.6 261.78 445.63 261.79 445.66 261.78 445.7 261.74 445.76 261.65 445.81 261.55 445.82 261.47 445.8 261.46 445.78 261.45 445.75 261.46 445.73 261.45 445.72 261.43 445.71 261.4 445.69 261.34 445.66 261.28 445.66 261.25 445.67 261.21 445.69 261.19 445.76 261.19 445.81 261.17 445.99 261.04 446.04 261.02 446.09 261.01 446.13 261.02 446.15 261.03 446.19 261.06 446.21 261.09 446.23 261.11 446.25 261.15 446.24 261.15 446.22 261.14 446.2 261.16 446.2 261.18 446.19 261.22 446.19 261.26 446.18 261.27 446.19 261.29 446.36 261.39 446.54 261.49 446.56 261.51 446.61 261.52 446.76 261.53 446.79 261.56 446.82 261.63 446.86 261.79 446.88 261.83 446.92 261.85 446.95 261.83 446.98 261.81 447.02 261.82 447.05 261.89 447.05 261.98 447.07 262.07 447.13 262.15 447.15 262.15 447.2 262.15 447.23 262.16 447.25 262.17 447.3 262.21 447.32 262.23 447.39 262.24 447.43 262.24 447.46 262.27 447.46 262.28 447.46 262.35 447.45 262.4 447.42 262.5 447.41 262.54 447.4 262.56 447.39 262.57 447.39 262.58 447.41 262.59 447.45 262.6 447.48 262.6 447.53 262.6 447.75 262.63 447.8 262.65 447.84 262.68 447.91 262.77 447.95 262.79 447.98 262.79 448.07 262.75 448.12 262.75 448.19 262.76 448.2 262.77 448.24 262.8 448.26 262.87 448.25 262.89 448.23 262.91 448.2 262.92 448.18 262.94 448.18 262.95 448.17 263.01 448.17 263.01 448.16 263.02 448.15 263.03 448.14 263.04 448.15 263.05 448.16 263.08 448.16 263.09 448.14 263.16 448.03 263.34 447.94 263.43 447.92 263.46 447.92 263.51 447.93 263.6 447.92 263.65 447.87 263.69 447.74 263.73 447.69 263.78 447.69 263.85 447.78 263.98 447.8 264.07 Z" id="Kosovo" transform="translate(-444.3900146484375,-261.010009765625) "/></svg>