<svg xmlns="http://www.w3.org/2000/svg" viewBox="0 0 4.209991455078125 3.959991455078125"><path d="M 507.24 299.08 507.26 299.1 507.29 299.17 507.28 299.2 507.25 299.19 507.23 299.18 507.21 299.17 507.14 299.12 507.1 299.1 507.04 299.09 507 299.09 507 299.03 507 299.03 507.02 298.99 507.06 298.98 507.15 299.01 507.18 299.02 507.2 299.04 507.23 299.06 507.24 299.08 Z M 506.82 297.69 507.16 298.18 507.2 298.27 507.18 298.38 507.14 298.46 507.07 298.55 506.99 298.62 506.91 298.66 506.89 298.66 506.81 298.65 506.76 298.59 506.68 298.4 506.59 298.24 506.58 298.22 506.56 298.2 506.52 298.18 506.5 298.15 506.5 298.15 506.54 298.12 506.57 298.11 506.62 298.08 506.64 298.07 506.65 298.05 506.66 297.97 506.63 297.95 506.61 297.95 506.59 297.95 506.59 297.95 506.61 297.91 506.64 297.92 506.7 297.95 506.72 297.95 506.75 297.95 506.77 297.93 506.76 297.9 506.8 297.88 506.83 297.86 506.84 297.83 506.8 297.81 506.8 297.81 506.78 297.81 506.75 297.82 506.73 297.81 506.72 297.79 506.71 297.77 506.71 297.74 506.71 297.74 506.71 297.72 506.71 297.72 506.67 297.72 506.67 297.72 506.66 297.71 506.67 297.69 506.7 297.67 506.73 297.66 506.76 297.66 506.79 297.67 506.82 297.69 Z M 506.47 297.72 506.45 297.72 506.44 297.71 506.42 297.69 506.42 297.68 506.45 297.66 506.5 297.6 506.52 297.58 506.61 297.57 506.61 297.57 506.64 297.57 506.64 297.6 506.57 297.63 506.56 297.65 506.54 297.68 506.53 297.69 506.47 297.72 Z M 507.36 301.33 506.97 301.34 506.57 301.34 506.18 301.35 505.78 301.35 505.66 301.35 505.65 301.28 505.6 301.24 505.55 301.21 505.51 301.16 505.47 301.1 505.44 301.03 505.42 300.95 505.41 300.82 505.4 300.76 505.28 300.42 505.17 300.24 505.15 300.19 505.15 300.19 505.14 300.19 505.14 300.19 505.02 300.17 504.8 300.15 504.58 300.12 504.36 300.09 504.14 300.06 503.89 300.03 503.64 300 503.39 299.97 503.15 299.94 503.21 299.86 503.54 299.49 503.68 299.26 503.83 299.1 503.86 299.05 503.92 298.88 504.09 298.61 504.13 298.51 504.14 298.49 504.15 298.41 504.16 298.38 504.24 298.22 504.43 297.74 504.5 297.64 504.62 297.56 504.98 297.41 505.11 297.39 505.68 297.39 505.8 297.42 506.28 297.66 506.3 297.7 506.32 297.74 506.35 297.79 506.36 297.84 506.35 297.94 506.36 298 506.39 298.08 506.45 298.2 506.52 298.3 506.57 298.3 506.61 298.41 506.66 298.52 506.76 298.66 506.8 298.76 506.79 298.81 506.74 298.82 506.65 298.78 506.61 298.75 506.59 298.72 506.55 298.72 506.49 298.71 506.45 298.7 506.32 298.72 506.26 298.78 506.2 298.83 506.07 298.91 505.97 299 505.92 299.07 505.88 299.13 505.78 299.18 505.77 299.22 505.75 299.26 505.79 299.26 505.88 299.25 505.94 299.24 505.99 299.22 506.04 299.2 506.07 299.22 506.01 299.26 506.01 299.29 505.99 299.33 506.05 299.36 506.09 299.36 506.13 299.35 506.18 299.33 506.19 299.27 506.22 299.26 506.27 299.27 506.31 299.24 506.33 299.2 506.37 299.18 506.38 299.2 506.42 299.25 506.42 299.25 506.46 299.28 506.48 299.29 506.54 299.31 506.62 299.29 506.61 299.41 506.6 299.45 506.61 299.53 506.64 299.64 506.65 299.69 506.68 299.74 506.7 299.79 506.75 300.13 506.79 300.22 506.9 300.38 506.93 300.42 507.02 300.44 507.03 300.48 507.02 300.53 507.01 300.58 507.03 300.63 507.09 300.72 507.11 300.75 507.13 300.78 507.18 300.8 507.27 300.82 507.25 300.86 507.24 300.91 507.24 300.95 507.26 301 507.22 300.97 507.21 300.96 507.21 300.98 507.21 300.99 507.22 301 507.24 301.01 507.23 301.04 507.22 301.04 507.21 301.04 507.2 301.03 507.18 301.03 507.18 301.08 507.2 301.09 507.23 301.08 507.26 301.05 507.26 301.07 507.27 301.19 507.28 301.23 507.3 301.26 507.33 301.31 507.36 301.33 507.36 301.33 Z" fill-rule="evenodd" id="Kuwait" transform="translate(-503.1499938964844,-297.3900146484375) "/></svg>