<svg xmlns="http://www.w3.org/2000/svg" viewBox="0 0 24.45001220703125 11.959991455078125"><path d="M 566.7 262.27 566.85 262.27 567.35 262.34 567.44 262.33 567.48 262.33 567.63 262.39 567.68 262.39 567.75 262.36 567.81 262.32 567.86 262.26 567.89 262.22 567.96 262.03 567.98 262.01 568.02 262 568.04 262 568.15 261.99 568.24 262 568.41 262.05 568.46 262.05 568.61 262.01 568.67 262 568.83 262.04 569.03 262.04 569.22 262.1 569.25 262.1 569.29 262.08 569.32 262.08 569.34 262.09 569.36 262.14 569.38 262.15 569.42 262.14 569.49 262.07 569.53 262.06 569.59 262.06 569.71 262.11 569.76 262.12 569.81 262.11 569.9 262.07 569.99 262.08 570.04 262.07 570.12 262.02 570.13 262.01 570.13 262 570.14 261.98 570.15 261.98 570.19 261.99 570.21 261.99 570.22 261.98 570.27 261.92 570.31 261.89 570.36 261.88 570.46 261.88 570.54 261.85 570.59 261.84 570.63 261.86 570.88 261.9 570.96 261.93 570.98 261.95 571.05 262.04 571.08 262.07 571.12 262.08 571.15 262.08 571.19 262.08 571.41 262.11 571.48 262.09 571.58 262.05 571.61 262.04 571.65 262.04 571.71 262.06 571.8 262.06 571.84 262.09 571.88 262.12 571.92 262.14 571.96 262.14 572.07 262.09 572.12 262.08 572.27 262.08 572.42 262.12 572.43 262.14 572.44 262.16 572.45 262.18 572.48 262.19 572.54 262.17 572.57 262.14 572.59 262.14 572.64 262.13 572.69 262.13 572.74 262.15 572.87 262.23 572.97 262.24 573.21 262.22 573.31 262.23 573.41 262.21 573.45 262.22 573.54 262.25 573.59 262.26 573.63 262.24 573.71 262.19 573.75 262.17 573.85 262.17 574 262.18 574.22 262.26 574.31 262.31 574.39 262.38 574.42 262.39 574.69 262.42 574.87 262.5 575.02 262.5 575.1 262.54 575.19 262.54 575.36 262.45 575.45 262.44 575.5 262.45 575.52 262.48 575.5 262.6 575.51 262.67 575.52 262.73 575.54 262.78 575.57 262.84 575.65 262.92 575.83 263 575.9 263.08 576 263.32 576.06 263.4 576.17 263.45 576.38 263.46 576.56 263.43 576.66 263.43 577.15 263.54 577.24 263.6 577.28 263.63 577.36 263.76 577.5 263.89 577.58 263.99 577.64 264.09 577.7 264.18 577.8 264.24 577.81 264.28 577.82 264.38 577.83 264.43 577.85 264.47 577.88 264.51 577.9 264.55 577.9 264.61 577.85 264.7 577.74 264.74 577.18 264.73 577.07 264.76 576.99 264.79 576.95 264.82 576.92 264.87 576.9 264.92 576.87 265.03 576.85 265.08 576.77 265.16 576.67 265.17 576.57 265.17 576.47 265.19 576.35 265.28 576.2 265.34 576.03 265.46 575.98 265.47 575.93 265.48 575.79 265.43 575.74 265.44 575.7 265.47 575.6 265.57 575.55 265.6 575.5 265.62 575.4 265.65 575.31 265.68 575.06 265.86 574.93 265.89 574.89 265.91 574.69 266.05 574.39 266.17 574.36 266.18 574.33 266.21 574.31 266.24 574.29 266.32 574.27 266.34 574.19 266.38 574.03 266.41 573.83 266.57 573.74 266.61 573.7 266.64 573.66 266.69 573.65 266.74 573.69 266.85 573.7 266.9 573.67 266.96 573.63 266.99 573.55 267.04 573.51 267.08 573.45 267.16 573.41 267.24 573.35 267.36 573.32 267.4 573.29 267.44 573.07 267.63 573.03 267.65 572.98 267.64 572.89 267.6 572.6 267.56 572.53 267.56 572.45 267.59 572.16 267.74 572.12 267.76 572.08 267.76 571.97 267.75 571.8 267.8 571.74 267.8 571.67 267.77 571.55 267.71 571.42 267.69 571.35 267.69 571.22 267.73 570.95 267.71 570.88 267.69 570.76 267.63 570.7 267.62 570.46 267.67 570.38 267.71 570.32 267.77 570.29 267.81 570.2 267.87 570.17 267.91 570.15 267.96 570.15 268.02 570.17 268.08 570.18 268.14 570.16 268.19 570.12 268.23 570.03 268.28 569.96 268.34 569.9 268.43 569.87 268.54 569.85 268.83 569.84 268.88 569.82 268.92 569.7 269.01 569.64 269.1 569.57 269.31 569.52 269.39 569.46 269.45 569.27 269.58 569.2 269.64 569.16 269.66 569.13 269.62 569.09 269.44 569.07 269.4 569.01 269.37 568.94 269.45 568.88 269.54 568.8 269.59 568.76 269.58 568.68 269.53 568.64 269.52 568.58 269.52 568.38 269.62 568.35 269.66 568.33 269.71 568.29 269.76 568.25 269.79 568.2 269.8 568.15 269.79 568.01 269.76 567.96 269.75 567.91 269.76 567.81 269.8 567.76 269.81 567.72 269.77 567.7 269.72 567.67 269.59 567.66 269.53 567.68 269.48 567.71 269.44 567.73 269.4 567.73 269.35 567.71 269.32 567.64 269.26 567.62 269.22 567.6 269.17 567.59 269 567.55 268.88 567.49 268.82 567.41 268.82 567.32 268.87 566.83 269.26 566.81 269.27 566.79 269.28 566.76 269.29 566.75 269.31 566.74 269.34 566.72 269.36 566.68 269.37 566.64 269.35 566.6 269.33 566.56 269.31 566.5 269.32 566.39 269.37 566.34 269.38 566.26 269.36 566.17 269.32 565.98 269.19 565.93 269.17 565.89 269.17 565.88 269.18 565.85 269.22 565.84 269.25 565.84 269.26 565.82 269.32 565.79 269.38 565.78 269.43 565.79 269.48 565.9 269.58 565.93 269.61 565.94 269.71 565.88 269.73 565.69 269.68 565.64 269.68 565.6 269.69 565.48 269.81 565.45 269.84 565.36 269.88 565.29 269.94 565.09 270.15 564.85 270.34 564.77 270.38 564.7 270.39 564.64 270.38 564.56 270.35 564.48 270.33 564.4 270.34 564.33 270.38 564.26 270.42 564.19 270.45 564.04 270.47 563.98 270.52 563.96 270.55 563.94 270.59 563.93 270.63 563.92 270.67 563.91 270.74 563.87 270.78 563.83 270.83 563.8 270.89 563.78 271.01 563.77 271.04 563.75 271.06 563.69 271.12 563.66 271.16 563.64 271.21 563.63 271.27 563.63 271.32 563.66 271.38 563.69 271.4 563.72 271.41 563.77 271.43 563.8 271.48 563.81 271.54 563.82 271.67 563.87 271.82 563.86 271.85 563.81 271.88 563.77 271.91 563.75 271.95 563.72 272.02 563.7 272.11 563.67 272.15 563.64 272.18 563.22 272.23 563.16 272.2 562.95 272.18 562.87 272.19 562.63 272.25 562.58 272.28 562.56 272.33 562.56 272.37 562.54 272.4 562.41 272.42 562.19 272.5 562.12 272.5 562.04 272.48 562 272.46 561.97 272.45 561.95 272.46 561.84 272.52 561.8 272.52 561.77 272.51 561.63 272.48 561.58 272.47 561.49 272.49 561.45 272.5 561.04 272.39 561 272.39 560.97 272.4 560.94 272.42 560.9 272.47 560.88 272.49 560.84 272.49 560.78 272.45 560.75 272.44 560.73 272.45 560.66 272.52 560.62 272.53 560.58 272.53 560.51 272.51 560.47 272.51 560.39 272.55 560.34 272.56 560.3 272.57 560.27 272.62 560.22 272.77 560.13 272.97 560.11 272.97 560.11 272.97 560.08 272.94 560.06 272.89 560.06 272.86 560.06 272.84 560.05 272.83 560 272.8 559.97 272.77 559.95 272.76 559.86 272.75 559.81 272.73 559.79 272.68 559.79 272.62 559.77 272.55 559.75 272.49 559.71 272.46 559.67 272.47 559.59 272.51 559.51 272.53 559.47 272.54 559.25 272.7 559.17 272.73 559.09 272.74 559.05 272.73 559.01 272.7 558.98 272.65 558.96 272.6 558.96 272.54 558.99 272.5 559.02 272.47 559.04 272.43 559.05 272.37 559.04 272.3 559.02 272.23 558.99 272.2 558.95 272.2 558.72 272.25 558.61 272.24 558.52 272.2 558.47 272.1 558.49 272.06 558.55 271.98 558.56 271.93 558.55 271.89 558.52 271.84 558.51 271.84 558.48 271.81 558.4 271.76 558.36 271.77 558.28 271.8 558.22 271.82 558.2 271.82 558.18 271.83 558.15 271.87 558.14 271.88 558.06 271.92 558.03 271.95 557.96 272.03 557.94 272.04 557.91 272.04 557.78 272.02 557.69 272.02 557.6 272.05 557.52 272.1 557.48 272.18 557.44 272.27 557.4 272.35 557.33 272.39 557.27 272.37 557.22 272.33 557.17 272.31 557.13 272.33 557.1 272.36 557.08 272.37 557.06 272.37 557.03 272.37 557 272.38 556.93 272.41 556.87 272.42 556.81 272.41 556.75 272.38 556.71 272.32 556.72 272.28 556.73 272.24 556.73 272.2 556.72 272.16 556.7 272.14 556.64 272.12 556.62 272.1 556.62 272.1 556.62 272.1 556.62 272.1 556.58 271.96 556.55 271.9 556.49 271.86 556.45 271.86 556.37 271.87 556.33 271.87 556.3 271.85 556.26 271.81 556.22 271.8 556.19 271.8 556.11 271.83 556.08 271.83 556.06 271.84 556.04 271.86 556.03 271.87 556.02 271.88 556 271.88 555.95 271.87 555.93 271.87 555.9 271.88 555.7 272.02 555.66 272.03 555.62 272.02 555.62 271.98 555.64 271.87 555.64 271.82 555.63 271.77 555.61 271.74 555.58 271.77 555.52 271.9 555.5 271.93 555.46 271.94 555.42 271.93 555.35 271.89 555.3 271.88 555.26 271.87 555.21 271.89 555.17 271.92 555.14 271.97 555.12 271.99 555.05 271.96 554.96 271.95 554.79 271.98 554.7 271.96 554.61 271.9 554.52 271.87 554.43 271.86 554.24 271.87 554.2 271.89 554.13 271.95 554.09 271.98 554.05 271.99 554.01 272 553.96 272 553.86 272.01 553.82 272 553.76 271.94 553.75 271.93 553.73 271.94 553.72 271.96 553.72 271.98 553.7 272 553.62 272.04 553.58 271.97 553.6 271.63 553.59 271.58 553.57 271.53 553.54 271.49 553.5 271.46 553.47 271.42 553.45 271.37 553.46 271.25 553.48 271.14 553.59 270.83 553.63 270.74 553.64 270.71 553.64 270.69 553.65 270.69 553.68 270.69 553.74 270.77 553.85 270.95 554.06 270.87 554.06 270.84 554.01 270.74 554.01 270.72 554.01 270.7 554 270.69 553.99 270.67 553.98 270.58 553.99 270.5 554.03 270.44 554.07 270.37 554.08 270.35 554.09 270.3 554.1 270.29 554.12 270.29 554.14 270.34 554.15 270.35 554.19 270.36 554.23 270.35 555.1 270.04 555.18 270.05 555.49 270.25 555.54 270.27 555.65 270.26 555.7 270.27 555.75 270.29 555.78 270.33 555.81 270.37 555.85 270.41 555.89 270.43 555.96 270.44 556.05 270.47 556.22 270.5 556.28 270.52 556.33 270.55 556.35 270.6 556.32 270.67 556.29 270.69 556.25 270.71 556.22 270.74 556.19 270.78 556.17 270.83 556.16 270.88 556.18 270.92 556.22 270.94 556.24 270.91 556.26 270.85 556.28 270.82 556.3 270.81 556.4 270.8 556.44 270.79 556.49 270.76 556.53 270.72 556.56 270.67 556.58 270.57 556.57 270.48 556.58 270.41 556.64 270.35 556.78 270.3 556.81 270.28 556.9 270.21 556.92 270.19 556.92 270.18 556.93 270.18 556.95 270.19 556.95 270.2 556.95 270.2 557 270.18 557.01 270.16 557.04 270.15 557.16 270.18 557.23 270.16 557.3 270.1 557.34 270.03 557.29 269.96 557.37 269.88 557.5 269.86 557.76 269.9 557.83 269.89 557.86 269.84 557.88 269.78 557.91 269.72 557.95 269.71 557.97 269.73 557.99 269.76 558.01 269.79 558.04 269.8 558.08 269.8 558.15 269.8 558.19 269.8 558.26 269.87 558.36 269.9 558.38 269.93 558.4 269.97 558.44 270.01 558.49 270.04 558.54 270.06 558.64 270.08 558.7 270.08 558.72 270.04 558.72 269.99 558.74 269.94 558.78 269.9 558.82 269.94 558.85 270 558.86 270.06 558.86 270.18 558.88 270.22 558.92 270.24 558.95 270.23 559.07 270.17 559.1 270.13 559.13 270.09 559.17 270 559.24 269.93 559.32 269.93 559.41 269.95 559.49 269.95 559.52 269.95 559.53 269.94 559.55 269.95 559.58 269.96 559.61 269.97 559.64 269.96 559.66 269.93 559.64 269.9 559.63 269.89 559.61 269.88 559.55 269.85 559.51 269.82 559.49 269.78 559.49 269.78 559.5 269.74 559.7 269.64 559.75 269.58 559.79 269.5 559.8 269.45 559.82 269.42 559.97 269.34 560.01 269.33 560.11 269.32 560.12 269.32 560.16 269.33 560.18 269.34 560.18 269.34 560.18 269.37 560.14 269.38 560.11 269.39 560.08 269.39 560.07 269.42 560.07 269.42 560.1 269.43 560.2 269.42 560.23 269.44 560.36 269.51 560.42 269.54 560.47 269.52 560.52 269.46 560.54 269.39 560.54 269.32 560.54 269.32 560.53 269.29 560.52 269.26 560.52 269.26 560.43 269.19 560.41 269.17 560.41 269.17 560.41 269.14 560.42 269.09 560.42 269.04 560.42 269.04 560.37 268.96 560.37 268.96 560.38 268.91 560.45 268.88 560.52 268.94 560.59 269.03 560.66 269.06 560.74 269.07 560.9 269.18 560.99 269.17 561.02 269.15 561.04 269.11 561.05 269.07 561.06 269.03 561.07 268.98 561.11 268.98 561.19 269.02 561.26 268.99 561.28 268.79 561.34 268.71 561.42 268.68 561.58 268.64 561.77 268.52 561.97 268.44 562.08 268.38 562.15 268.29 562.13 268.23 562.13 268.23 562.12 268.23 562.07 268.22 561.94 268.23 561.89 268.19 561.86 268.15 561.82 268.13 561.66 268.2 561.56 268.27 561.53 268.28 561.54 268.23 561.53 268.14 561.44 268.12 561.15 268.15 561.06 268.14 560.97 268.1 560.9 268.02 560.81 267.87 560.77 267.86 560.71 267.85 560.67 267.83 560.67 267.77 560.68 267.75 560.67 267.73 560.67 267.72 560.66 267.71 560.54 267.7 560.48 267.68 560.43 267.65 560.37 267.55 560.34 267.53 560.3 267.57 560.28 267.59 560.26 267.67 560.24 267.68 560.16 267.69 560.03 267.73 559.97 267.75 560 267.68 560.01 267.63 560.01 267.57 559.99 267.42 559.99 267.33 559.98 267.25 559.95 267.2 559.89 267.16 559.84 267.17 559.79 267.21 559.74 267.25 559.67 267.29 559.64 267.27 559.6 267.22 559.55 267.18 559.37 267.21 559.32 267.18 559.3 267.05 559.31 266.93 559.3 266.83 559.26 266.75 559.05 266.43 559.04 266.42 559.02 266.41 559 266.42 559 266.49 558.98 266.5 558.96 266.49 558.95 266.44 558.93 266.43 558.92 266.45 558.91 266.48 558.89 266.51 558.87 266.5 558.87 266.46 558.91 266.3 558.91 266.24 558.9 266.18 558.87 266.14 558.82 266.13 558.77 266.15 558.75 266.18 558.7 266.3 558.7 266.3 558.7 266.3 558.7 266.3 558.73 266.35 558.79 266.43 558.8 266.48 558.79 266.54 558.76 266.64 558.68 266.8 558.62 266.86 558.54 266.88 558.45 266.84 558.34 266.74 558.31 266.73 558.3 266.77 558.32 267.27 558.31 267.37 558.26 267.42 558.1 267.29 558.05 267.36 558.03 267.41 558 267.42 557.97 267.39 557.95 267.34 557.92 267.23 557.89 267.2 557.84 267.19 557.79 267.22 557.79 267.26 557.8 267.31 557.8 267.37 557.78 267.43 557.75 267.41 557.69 267.31 557.66 267.28 557.57 267.27 557.53 267.25 557.49 267.21 557.44 267.19 557.33 267.17 557.24 267.19 557.19 267.18 557.15 267.14 557.12 267.1 557.09 267.06 557.05 267.04 557 267.02 556.95 267.02 556.91 267.04 556.87 267.05 556.85 267.01 556.84 266.96 556.88 266.78 556.87 266.71 556.85 266.65 556.73 266.44 556.69 266.39 556.65 266.36 556.57 266.38 556.3 266.53 556.22 266.56 556.21 266.56 556.17 266.56 556.14 266.53 556.08 266.42 556.05 266.38 556.01 266.35 555.93 266.3 555.93 266.3 555.93 266.3 555.93 266.3 555.62 266.26 555.54 266.22 555.5 266.12 555.54 266.05 555.9 265.84 556.03 265.73 556.11 265.7 556.17 265.65 556.22 265.58 556.29 265.44 556.39 265.32 556.61 265.13 556.67 265.09 556.89 265.07 556.97 265.04 557 264.99 557 264.82 557.04 264.71 557.13 264.69 557.24 264.69 557.33 264.67 557.65 264.43 557.83 264.38 557.91 264.32 557.94 264.21 557.94 264.21 557.87 264.19 557.56 263.96 557.48 263.93 557.41 263.94 557.32 264.02 557.27 264.06 557.2 264.05 557.16 264.02 557.07 263.93 557.06 263.89 557.08 263.84 557.14 263.79 557.16 263.77 557.23 263.68 557.25 263.64 557.24 263.62 557.23 263.6 557.23 263.57 557.24 263.51 557.27 263.45 557.3 263.4 557.33 263.37 557.44 263.44 557.47 263.44 557.5 263.43 557.53 263.4 557.53 263.36 557.51 263.33 557.51 263.33 557.51 263.33 557.51 263.33 557.43 263.26 557.41 263.23 557.39 263.12 557.47 263.07 557.66 263.04 557.7 263 557.71 262.96 557.71 262.84 557.71 262.78 557.73 262.75 557.82 262.72 557.85 262.69 557.88 262.66 557.93 262.57 557.97 262.55 558.01 262.56 558.07 262.59 558.11 262.6 558.15 262.58 558.19 262.55 558.22 262.5 558.24 262.46 558.28 262.42 558.33 262.42 558.44 262.46 558.48 262.44 558.5 262.44 558.52 262.45 558.61 262.53 558.64 262.54 558.68 262.53 558.92 262.37 558.99 262.35 559.15 262.34 559.23 262.31 559.26 262.31 559.3 262.32 559.33 262.34 559.37 262.36 559.5 262.39 559.76 262.54 559.83 262.56 559.87 262.55 559.93 262.52 559.96 262.51 560.25 262.53 560.39 262.58 560.66 262.76 560.73 262.78 560.89 262.77 561.21 262.85 561.28 262.89 561.33 262.95 561.41 263.09 561.46 263.14 561.54 263.18 561.61 263.2 561.69 263.2 561.97 263.15 562.07 263.16 562.16 263.19 562.2 263.23 562.24 263.25 562.28 263.26 562.43 263.27 562.48 263.29 562.52 263.33 562.51 263.42 562.51 263.48 562.54 263.52 562.74 263.56 562.87 263.61 562.94 263.6 562.94 263.55 562.94 263.54 562.78 263.23 562.74 263.14 562.73 263.04 562.73 262.93 562.76 262.82 562.87 262.56 562.93 262.43 562.94 262.38 562.93 262.33 562.91 262.23 562.9 262.17 562.91 262.12 562.93 262.08 562.97 262 563.06 261.75 563.08 261.71 563.12 261.68 563.22 261.62 563.6 261.46 563.64 261.45 563.73 261.46 563.82 261.41 563.89 261.2 563.96 261.15 564 261.17 564.08 261.24 564.12 261.26 564.47 261.21 564.51 261.19 564.51 261.15 564.49 261.1 564.43 261.01 564.49 261.05 564.61 261.15 564.67 261.18 564.74 261.2 564.81 261.23 564.92 261.32 564.97 261.35 565.06 261.36 565.14 261.41 565.23 261.43 565.27 261.46 565.3 261.5 565.36 261.59 565.39 261.63 565.62 261.81 565.69 261.84 565.95 261.88 566.14 261.97 566.2 262.03 566.26 262.06 566.4 262.1 566.46 262.14 566.51 262.18 566.65 262.26 566.7 262.27 Z M 557.4 270.19 557.33 270.23 557.29 270.32 557.28 270.37 557.28 270.42 557.29 270.47 557.35 270.59 557.37 270.62 557.4 270.64 557.46 270.65 557.48 270.67 557.5 270.76 557.4 270.91 557.4 270.98 557.43 270.99 557.46 270.97 557.49 270.94 557.52 270.93 557.56 270.93 557.57 270.95 557.58 270.98 557.6 271.01 557.64 271.01 557.74 270.98 557.81 270.98 557.85 270.97 557.87 270.94 557.87 270.85 557.78 270.74 557.77 270.67 557.81 270.63 557.91 270.56 557.92 270.52 557.91 270.49 557.88 270.48 557.82 270.5 557.81 270.51 557.79 270.52 557.78 270.53 557.76 270.53 557.75 270.52 557.74 270.51 557.62 270.46 557.56 270.42 557.52 270.38 557.49 270.3 557.45 270.23 557.4 270.19 Z M 559.03 270.94 559.06 270.93 559.08 270.89 559.13 270.71 559.12 270.68 559.07 270.7 558.99 270.76 558.95 270.78 558.89 270.78 558.86 270.82 558.88 270.86 558.93 270.9 558.97 270.92 559.03 270.94 Z M 556.27 270.99 556.24 270.99 556.24 271.03 556.25 271.08 556.28 271.12 556.36 271.18 556.38 271.2 556.44 271.31 556.46 271.32 556.57 271.23 556.63 271.2 556.71 271.18 556.73 271.16 556.73 271.11 556.72 271.06 556.69 271.05 556.62 271.08 556.54 271.08 556.27 270.99 Z" fill-rule="evenodd" id="Kyrgyzstan" transform="translate(-553.4500122070312,-261.010009765625) "/></svg>