<svg xmlns="http://www.w3.org/2000/svg" viewBox="0 0 16.77996826171875 19.91998291015625"><path d="M 625.81 316.38 625.83 316.35 625.84 316.3 625.86 316.26 625.9 316.25 626 316.24 626.04 316.22 626.09 316.22 626.13 316.22 626.27 316.25 626.29 316.26 626.31 316.28 626.32 316.3 626.32 316.32 626.34 316.34 626.36 316.34 626.38 316.37 626.39 316.39 626.41 316.47 626.42 316.48 626.44 316.49 626.45 316.5 626.45 316.52 626.44 316.54 626.44 316.56 626.47 316.59 626.51 316.62 626.54 316.65 626.56 316.7 626.6 316.74 626.74 316.81 626.89 316.96 626.96 317 626.98 317.02 627 317.05 627.02 317.11 627.04 317.13 627.08 317.17 627.14 317.2 627.17 317.23 627.15 317.26 627.14 317.27 627.14 317.28 627.14 317.28 627.13 317.29 627.16 317.38 627.24 317.43 627.34 317.46 627.41 317.52 627.49 317.69 627.51 317.79 627.5 317.93 627.5 317.98 627.51 318.03 627.53 318.07 627.54 318.09 627.55 318.1 627.56 318.09 627.67 318.09 627.7 318.09 627.77 318.04 627.82 317.98 627.84 317.9 627.85 317.71 627.89 317.67 627.93 317.71 627.95 317.82 627.94 317.91 627.95 317.96 627.98 317.98 628.02 317.98 628.18 317.91 628.19 317.9 628.2 317.91 628.22 317.94 628.23 317.96 628.23 317.99 628.23 318.15 628.24 318.21 628.26 318.26 628.26 318.27 628.26 318.28 628.26 318.28 628.26 318.29 628.21 318.33 628.13 318.44 628.08 318.48 627.98 318.65 628.02 318.63 628.06 318.6 628.1 318.58 628.14 318.59 628.13 318.61 628.06 318.73 628.05 318.78 628.05 318.89 628.04 318.93 628.01 318.96 627.94 318.98 627.9 319 627.88 319.05 627.89 319.06 627.94 319.05 627.98 319.06 628.02 319.07 628.05 319.09 628.07 319.11 628.08 319.14 628.08 319.16 628.06 319.21 628.06 319.23 628.07 319.26 628.09 319.26 628.1 319.26 628.13 319.28 628.15 319.32 628.15 319.32 628.17 319.41 628.19 319.45 628.2 319.47 628.21 319.49 628.23 319.5 628.26 319.49 628.31 319.51 628.35 319.55 628.4 319.66 628.47 319.81 628.51 319.88 628.57 319.96 628.6 319.99 628.62 320 628.64 320.01 628.68 320.02 628.71 320.02 628.72 320.03 628.75 320.06 628.78 320.06 628.8 320.06 628.82 320.06 628.84 320.05 628.86 320.05 628.9 320.06 629.03 320.13 629.09 320.15 629.11 320.15 629.12 320.15 629.18 320.14 629.18 320.13 629.23 320.11 629.24 320.09 629.25 320.08 629.26 320.07 629.29 320.08 629.32 320.11 629.36 320.19 629.38 320.22 629.4 320.23 629.42 320.24 629.44 320.25 629.46 320.25 629.46 320.25 629.46 320.25 629.46 320.25 629.6 320.28 629.64 320.3 629.73 320.4 629.78 320.44 629.78 320.45 629.79 320.46 629.82 320.46 629.84 320.46 629.86 320.45 629.89 320.44 629.9 320.42 629.9 320.4 629.88 320.36 629.87 320.34 629.88 320.31 629.9 320.3 629.92 320.29 629.94 320.28 629.99 320.26 630 320.24 629.99 320.22 629.99 320.17 629.99 320.13 630.01 320.08 630.04 320.04 630.06 320.01 630.08 320.01 630.13 320.01 630.15 320.01 630.17 320 630.2 319.97 630.22 319.96 630.38 319.91 630.43 319.89 630.45 319.88 630.48 319.88 630.56 319.87 630.66 319.75 630.74 319.74 630.75 319.75 630.79 319.78 630.81 319.78 630.83 319.79 630.88 319.79 630.9 319.79 630.96 319.82 630.98 319.83 630.99 319.84 631.02 319.89 631.02 319.9 631.04 319.9 631.09 319.89 631.11 319.89 631.13 319.9 631.15 319.91 631.17 319.92 631.19 319.93 631.21 319.97 631.25 320.04 631.28 320.08 631.3 320.09 631.33 320.1 631.35 320.11 631.36 320.13 631.38 320.17 631.4 320.19 631.44 320.2 631.49 320.2 631.54 320.21 631.57 320.24 631.59 320.31 631.62 320.35 631.74 320.41 631.86 320.45 631.9 320.48 631.89 320.49 631.88 320.55 631.74 320.74 631.69 320.78 631.63 320.8 631.57 320.79 631.52 320.75 631.47 320.84 631.47 320.84 631.35 320.93 631.33 320.97 631.4 321.01 631.49 321.04 631.81 321.03 631.84 321.05 631.89 321.12 631.93 321.14 632.01 321.18 632.04 321.2 632.05 321.22 632.06 321.25 632.06 321.27 632.06 321.3 632.04 321.33 632.03 321.33 632.01 321.33 631.99 321.35 631.98 321.38 631.98 321.42 631.98 321.47 631.99 321.5 632.06 321.54 632.16 321.52 632.26 321.49 632.35 321.48 632.55 321.59 632.55 321.61 632.54 321.63 632.54 321.69 632.57 321.73 632.65 321.79 632.67 321.82 632.66 321.83 632.63 321.84 632.63 321.84 632.63 321.86 632.63 321.88 632.64 321.92 632.64 321.95 632.65 321.98 632.64 322.01 632.63 322.02 632.61 322.04 632.58 322.04 632.51 322.04 632.47 322.04 632.46 322.05 632.46 322.07 632.44 322.11 632.39 322.15 632.26 322.22 632.22 322.27 632.21 322.31 632.22 322.33 632.29 322.33 632.33 322.34 632.34 322.36 632.34 322.38 632.34 322.42 632.32 322.49 632.27 322.52 632.22 322.55 632.17 322.6 632.12 322.61 632.09 322.61 632.07 322.62 632.03 322.65 632 322.68 631.98 322.71 631.91 322.9 631.9 322.92 631.87 322.92 631.84 322.9 631.82 322.9 631.8 322.9 631.76 322.93 631.74 322.93 631.69 322.94 631.65 322.93 631.53 322.86 631.47 322.83 631.45 322.82 631.42 322.79 631.4 322.76 631.38 322.74 631.33 322.73 631.29 322.74 631.19 322.81 631.15 322.74 631.07 322.72 631.04 322.69 630.98 322.71 630.88 322.73 630.84 322.73 630.82 322.75 630.81 322.76 630.79 322.8 630.78 322.81 630.73 322.82 630.69 322.8 630.58 322.75 630.56 322.74 630.54 322.75 630.52 322.79 630.53 322.82 630.57 322.94 630.6 322.97 630.67 323.01 630.69 323.03 630.71 323.07 630.71 323.11 630.72 323.15 630.74 323.18 630.74 323.18 630.74 323.18 630.74 323.18 630.73 323.21 630.71 323.22 630.69 323.23 630.67 323.24 630.65 323.26 630.64 323.32 630.64 323.34 630.62 323.37 630.62 323.38 630.61 323.37 630.58 323.37 630.53 323.39 630.48 323.42 630.43 323.43 630.4 323.45 630.36 323.52 630.32 323.54 630.25 323.58 630.22 323.6 630.2 323.64 630.22 323.65 630.26 323.65 630.3 323.65 630.32 323.71 630.34 323.73 630.35 323.74 630.41 323.77 630.47 323.81 630.48 323.81 630.52 323.79 630.57 323.79 630.61 323.8 630.86 323.91 630.95 323.97 630.97 324 630.98 324.04 630.98 324.08 631 324.1 631.06 324.08 631.11 324.1 631.11 324.1 631.14 324.12 631.17 324.15 631.2 324.18 631.25 324.2 631.29 324.21 631.32 324.23 631.36 324.26 631.42 324.36 631.45 324.38 631.49 324.39 631.56 324.38 631.6 324.39 631.64 324.41 631.66 324.44 631.74 324.56 631.77 324.58 631.84 324.62 631.87 324.64 631.93 324.71 631.97 324.73 631.99 324.73 632.03 324.74 632.05 324.75 632.06 324.76 632.09 324.8 632.11 324.81 632.13 324.82 632.22 324.84 632.31 324.86 632.34 324.87 632.47 324.86 632.53 324.87 632.55 324.93 632.57 324.95 632.61 324.96 632.65 324.96 632.69 324.95 632.73 324.96 632.84 325.02 632.89 325.04 632.92 325.04 632.95 325.04 632.97 325.03 633 325.04 633.06 325.15 633.11 325.18 633.13 325.2 633.13 325.23 633.13 325.23 633.11 325.27 633.09 325.28 633.06 325.27 633.03 325.27 633 325.31 632.97 325.38 632.94 325.51 632.93 325.61 632.95 325.67 633 325.72 633.07 325.77 633.11 325.81 633.11 325.84 633.1 325.87 633.1 325.92 633.12 325.95 633.23 326.02 633.24 326.03 633.26 326.07 633.27 326.08 633.3 326.09 633.32 326.09 633.38 326.08 633.39 326.07 633.4 326.08 633.41 326.1 633.42 326.13 633.4 326.18 633.4 326.21 633.43 326.24 633.46 326.27 633.5 326.28 633.54 326.29 633.56 326.3 633.56 326.31 633.57 326.31 633.59 326.3 633.6 326.28 633.61 326.23 633.62 326.21 633.66 326.19 633.71 326.2 633.75 326.21 633.78 326.24 633.8 326.26 633.82 326.33 633.82 326.34 633.81 326.35 633.81 326.36 633.81 326.37 633.82 326.37 633.84 326.38 633.85 326.39 633.89 326.47 633.9 326.48 633.94 326.51 633.96 326.52 633.97 326.55 633.98 326.6 633.99 326.63 634.01 326.64 634.06 326.67 634.06 326.67 634.09 326.73 634.09 326.74 634.07 326.92 634.09 327 634.18 327.08 634.23 327.19 634.28 327.25 634.3 327.29 634.33 327.38 634.35 327.42 634.38 327.44 634.5 327.49 634.57 327.54 634.63 327.59 634.77 327.78 634.82 327.83 634.82 327.83 635.01 328.06 635.38 328.38 635.43 328.4 635.46 328.41 635.48 328.39 635.52 328.36 635.53 328.34 635.53 328.32 635.54 328.3 635.57 328.3 635.6 328.31 635.6 328.33 635.6 328.36 635.61 328.38 635.62 328.4 635.65 328.43 635.66 328.45 635.65 328.47 635.64 328.5 635.63 328.53 635.65 328.56 635.71 328.67 635.82 328.77 635.84 328.81 635.84 328.83 635.83 328.85 635.82 328.86 635.86 328.94 635.87 328.96 635.88 328.98 635.88 328.98 635.9 329 635.94 329.01 635.98 329.03 636.02 329.04 636.07 329.05 636.13 328.99 636.15 329.03 636.15 329.08 636.15 329.7 636.17 329.75 636.19 329.8 636.24 329.86 636.28 329.88 636.32 329.9 636.35 329.9 636.39 329.92 636.39 329.95 636.38 330.07 636.39 330.1 636.42 330.19 636.45 330.25 636.5 330.29 636.57 330.27 636.57 330.3 636.58 330.31 636.59 330.31 636.61 330.3 636.63 330.28 636.63 330.28 636.64 330.27 636.64 330.25 636.65 330.23 636.71 330.19 636.73 330.17 636.74 330.13 636.79 330.05 636.84 330.05 636.88 330.11 636.89 330.2 636.88 330.28 636.88 330.29 636.87 330.29 636.86 330.3 636.86 330.32 636.87 330.32 636.89 330.32 636.9 330.31 636.91 330.31 636.94 330.37 636.96 330.4 636.99 330.43 637.05 330.46 637.06 330.47 637.07 330.5 637.08 330.55 637.09 330.56 637.11 330.58 637.14 330.58 637.22 330.58 637.3 330.59 637.33 330.6 637.34 330.6 637.38 330.62 637.42 330.65 637.44 330.68 637.47 330.81 637.48 330.84 637.48 330.84 637.5 330.86 637.53 330.89 637.56 330.91 637.59 330.92 637.62 330.92 637.66 330.93 637.71 330.97 637.79 331.07 637.85 331.12 637.91 331.14 637.97 331.13 638.1 331.1 638.14 331.1 638.15 331.11 638.14 331.13 638.14 331.14 638.14 331.18 638.15 331.2 638.17 331.22 638.17 331.24 638.14 331.28 638.11 331.3 638.05 331.41 638.02 331.45 637.98 331.47 637.9 331.48 637.86 331.5 637.71 331.6 637.69 331.6 637.67 331.6 637.65 331.59 637.62 331.58 637.6 331.59 637.57 331.61 637.52 331.74 637.51 331.79 637.54 331.82 637.66 331.89 637.68 331.91 637.69 331.95 637.7 332.04 637.71 332.08 637.73 332.11 637.77 332.14 637.86 332.18 637.88 332.21 638 332.42 638.03 332.44 638.04 332.43 638.06 332.41 638.08 332.39 638.1 332.39 638.14 332.4 638.15 332.4 638.17 332.39 638.18 332.39 638.19 332.42 638.19 332.42 638.2 332.44 638.2 332.45 638.22 332.45 638.23 332.44 638.26 332.45 638.27 332.5 638.27 332.55 638.28 332.59 638.32 332.62 638.41 332.6 638.45 332.61 638.46 332.63 638.46 332.64 638.47 332.73 638.48 332.77 638.51 332.8 638.61 332.87 638.64 332.91 638.66 332.94 638.66 332.97 638.64 333.08 638.63 333.1 638.62 333.1 638.61 333.09 638.59 333.08 638.57 333.1 638.57 333.12 638.56 333.2 638.55 333.24 638.53 333.28 638.51 333.29 638.48 333.31 638.47 333.33 638.47 333.35 638.49 333.39 638.49 333.42 638.46 333.44 638.43 333.45 638.37 333.44 638.33 333.44 638.3 333.45 638.23 333.47 638.19 333.47 638.17 333.49 638.17 333.52 638.18 333.56 638.18 333.59 638.19 333.62 638.21 333.65 638.23 333.67 638.27 333.69 638.4 333.79 638.42 333.81 638.41 333.83 638.38 333.88 638.29 333.97 638.27 334 638.28 334.03 638.3 334.07 638.31 334.1 638.29 334.13 638.3 334.15 638.32 334.17 638.34 334.19 638.34 334.22 638.31 334.25 638.23 334.36 638.2 334.37 638.18 334.39 638.17 334.44 638.16 334.45 638.14 334.48 638.14 334.49 638.14 334.51 638.14 334.53 638.14 334.55 638.13 334.57 638.1 334.59 638.08 334.59 638.03 334.57 637.98 334.56 637.96 334.55 637.92 334.51 637.86 334.47 637.82 334.47 637.79 334.5 637.75 334.55 637.74 334.56 637.71 334.58 637.7 334.59 637.7 334.6 637.69 334.65 637.67 334.69 637.65 334.7 637.62 334.7 637.62 334.7 637.62 334.7 637.62 334.7 637.58 334.7 637.57 334.73 637.55 334.76 637.54 334.8 637.47 334.85 637.41 334.9 637.36 334.92 637.33 334.9 637.31 334.88 637.28 334.85 637.25 334.84 637.24 334.84 637.24 334.85 637.18 334.93 637.13 335 637.12 335 637.1 335.01 637.07 335.07 637.07 335.08 637.06 335.09 637.04 335.1 637.01 335.09 636.97 335.07 636.95 335.06 636.93 335.06 636.92 335.07 636.91 335.08 636.82 335.13 636.79 335.13 636.76 335.12 636.72 335.09 636.67 335.03 636.59 334.92 636.57 334.89 636.56 334.88 636.54 334.86 636.53 334.85 636.37 334.8 636.35 334.79 636.31 334.77 636.26 334.7 636.24 334.69 636.19 334.67 636.17 334.66 636.16 334.64 636.15 334.57 636.14 334.54 636.12 334.5 636.1 334.48 636.06 334.53 636.04 334.54 636.02 334.54 636.01 334.54 636.01 334.57 636.01 334.59 636.02 334.6 636.03 334.62 636.04 334.62 636.04 334.64 636.01 334.63 635.98 334.63 635.95 334.62 635.93 334.64 635.93 334.65 635.93 334.66 635.93 334.68 635.95 334.69 635.94 334.71 635.93 334.72 635.92 334.72 635.9 334.77 635.84 334.79 635.72 334.81 635.71 334.81 635.68 334.82 635.65 334.81 635.62 334.81 635.49 334.73 635.48 334.71 635.46 334.75 635.43 334.87 635.42 334.92 635.39 334.97 635.35 334.99 635.31 334.99 635.23 334.99 635.18 334.98 635.14 334.98 635.12 334.98 635.11 334.98 635.1 334.99 635.1 335.02 635.09 335.03 635.05 335.04 634.95 335 634.91 334.99 634.9 335.02 634.9 335.05 634.9 335.07 634.91 335.1 634.95 335.13 634.98 335.17 634.98 335.21 634.98 335.27 634.99 335.31 635.02 335.34 635.1 335.39 635.14 335.43 635.19 335.56 635.22 335.6 635.26 335.63 635.29 335.66 635.3 335.7 635.28 335.75 635.25 335.78 635.21 335.8 635.18 335.83 635.15 335.87 635.15 335.98 635.12 336.01 635.08 336.02 634.96 335.99 634.91 335.99 634.85 336.01 634.8 336.01 634.74 336 634.74 336 634.69 335.97 634.49 335.8 634.46 335.75 634.43 335.68 634.4 335.63 634.34 335.6 634.31 335.59 634.27 335.6 634.23 335.6 634.2 335.58 634.18 335.57 634.15 335.57 634.12 335.59 634.1 335.55 634.07 335.52 634.03 335.5 633.99 335.51 633.98 335.49 633.97 335.48 633.95 335.46 633.93 335.45 633.87 335.5 633.84 335.51 633.8 335.52 633.75 335.56 633.69 335.58 633.62 335.59 633.56 335.59 633.52 335.58 633.5 335.58 633.48 335.56 633.42 335.48 633.41 335.47 633.38 335.46 633.36 335.45 633.32 335.41 633.19 335.21 633.17 335.16 633.16 335.11 633.16 335.04 633.19 335.04 633.31 335.01 633.35 335 633.36 334.98 633.39 334.93 633.4 334.92 633.43 334.92 633.46 334.95 633.49 334.95 633.51 334.94 633.55 334.9 633.57 334.88 633.59 334.88 633.65 334.86 633.67 334.85 633.68 334.84 633.7 334.78 633.71 334.76 633.73 334.75 633.78 334.7 633.85 334.61 633.88 334.54 633.88 334.48 633.85 334.33 633.85 334.26 633.87 334.15 633.86 334.13 633.84 334.09 633.83 334.04 633.84 333.99 633.86 333.94 633.87 333.94 633.9 333.93 633.91 333.92 633.91 333.91 633.9 333.88 633.89 333.84 633.9 333.83 633.91 333.83 633.94 333.83 633.95 333.82 633.97 333.77 633.93 333.7 633.96 333.66 634.04 333.6 634.06 333.57 634.01 333.56 634.01 333.56 634.01 333.56 634.01 333.56 633.98 333.54 633.91 333.45 633.91 333.44 633.91 333.41 633.9 333.4 633.9 333.4 633.87 333.4 633.85 333.4 633.8 333.34 633.75 333.34 633.73 333.3 633.73 333.25 633.74 333.2 633.76 333.15 633.78 333.12 633.87 333.02 633.93 332.97 633.99 332.93 634 332.93 634 332.87 633.99 332.82 633.99 332.81 633.94 332.82 633.9 332.82 633.86 332.81 633.82 332.79 633.81 332.75 633.83 332.7 633.87 332.67 633.98 332.63 634.05 332.58 634.06 332.58 634.09 332.55 634.1 332.51 634.11 332.41 634.12 332.36 634.17 332.22 634.19 332.1 634.17 331.99 634.11 331.9 634.01 331.84 633.91 331.81 633.87 331.8 633.77 331.81 633.74 331.8 633.72 331.79 633.69 331.76 633.66 331.72 633.58 331.54 633.55 331.45 633.55 331.37 633.61 331.31 633.65 331.29 633.68 331.28 633.69 331.26 633.69 331.25 633.69 331.24 633.67 331.23 633.65 331.22 633.39 331.16 633.3 331.15 633.28 331.15 632.99 331.05 632.93 331.02 632.88 330.99 632.84 330.94 632.82 330.89 632.81 330.83 632.82 330.73 632.81 330.68 632.78 330.63 632.77 330.62 632.72 330.59 632.7 330.58 632.69 330.57 632.64 330.52 632.63 330.51 632.57 330.47 632.55 330.46 632.53 330.44 632.52 330.41 632.5 330.34 632.48 330.3 632.46 330.26 632.43 330.22 632.39 330.19 632.27 330.13 632.23 330.09 632.21 330.05 632.19 330.01 632.19 329.95 632.2 329.86 632.23 329.76 632.26 329.67 632.26 329.65 632.26 329.62 632.21 329.43 632.21 329.41 632.21 329.39 632.21 329.38 632.23 329.33 632.23 329.3 632.23 329.27 632.22 329.25 632.2 329.2 632.2 329.18 632.19 329.1 632.17 328.96 632.19 328.91 632.33 328.57 632.34 328.52 632.35 328.42 632.34 328.28 632.35 328.17 632.35 328.14 632.34 328.11 632.29 327.99 632.28 327.98 632.27 327.97 632.23 327.95 632.21 327.93 632.2 327.91 632.16 327.85 632.12 327.78 632.09 327.75 631.99 327.69 631.94 327.67 631.6 327.49 631.54 327.43 631.47 327.36 631.46 327.34 631.45 327.29 631.44 327.28 631.43 327.26 631.4 327.22 631.35 327.12 631.32 327.08 631.17 326.99 631.16 326.98 631.15 326.97 631.13 326.95 631.12 326.93 631.1 326.86 631 326.64 630.98 326.62 630.97 326.6 630.83 326.48 630.8 326.44 630.78 326.4 630.68 326.16 630.57 325.97 630.53 325.92 630.48 325.89 630.43 325.89 630.38 325.9 630.33 325.93 630.3 325.97 630.29 325.99 630.28 326 630.27 326 630.25 326 630.22 326 630.2 325.97 630.18 325.94 630.16 325.92 630.13 325.9 630.09 325.88 630.06 325.86 630.02 325.86 629.89 325.85 629.86 325.84 629.73 325.78 629.71 325.77 629.69 325.75 629.66 325.73 629.53 325.7 629.48 325.69 629.42 325.68 629.4 325.68 629.37 325.68 629.36 325.68 629.32 325.67 629.2 325.64 629.17 325.64 629 325.67 628.94 325.7 628.89 325.73 628.86 325.78 628.84 325.84 628.83 325.85 628.84 325.86 628.84 325.87 628.85 325.88 628.87 325.89 628.96 325.95 628.97 325.97 628.97 325.99 628.95 326.01 628.92 326.02 628.84 326.04 628.79 326.05 628.73 326.06 628.71 326.07 628.69 326.08 628.67 326.11 628.65 326.15 628.64 326.23 628.62 326.27 628.6 326.31 628.56 326.33 628.51 326.35 628.51 326.35 628.52 326.35 628.52 326.34 628.52 326.33 628.52 326.33 628.51 326.34 628.49 326.35 628.47 326.37 628.46 326.4 628.46 326.44 628.48 326.58 628.47 326.6 628.45 326.62 628.43 326.65 628.4 326.68 628.36 326.7 628.33 326.69 628.26 326.64 628.22 326.63 628.18 326.64 627.99 326.73 627.96 326.74 627.94 326.77 627.82 326.84 627.73 326.91 627.7 326.93 627.62 326.95 627.59 326.97 627.58 327.01 627.59 327.05 627.61 327.08 627.61 327.1 627.56 327.09 627.45 327.04 627.42 327.03 627.42 327.01 627.46 326.86 627.43 326.76 627.36 326.73 627.17 326.73 627.09 326.71 627.01 326.67 626.95 326.62 626.91 326.57 626.85 326.57 626.78 326.54 626.67 326.44 626.62 326.37 626.6 326.36 626.59 326.36 626.52 326.31 626.5 326.27 626.5 326.23 626.48 326.2 626.44 326.17 626.34 326.17 626.27 326.17 626.26 326.18 626.22 326.21 625.89 326.57 625.84 326.59 625.76 326.54 625.67 326.52 625.65 326.49 625.64 326.49 625.6 326.52 625.58 326.57 625.56 326.67 625.51 326.82 625.5 326.86 625.29 326.9 625.26 326.93 625.24 326.97 625.21 327 625.16 326.97 625.16 327 625.16 327.03 625.15 327.06 625.13 327.08 625.09 327.09 625.07 327.1 625.12 327.14 625.07 327.17 625 327.2 624.95 327.25 624.95 327.27 624.93 327.28 624.93 327.3 624.92 327.31 624.9 327.26 624.9 327.25 624.89 327.24 624.89 327.24 624.88 327.24 624.87 327.25 624.84 327.28 624.81 327.28 624.77 327.28 624.74 327.29 624.73 327.31 624.74 327.31 624.77 327.32 624.78 327.32 624.78 327.33 624.77 327.34 624.73 327.39 624.72 327.39 624.7 327.39 624.68 327.4 624.43 327.6 624.39 327.66 624.35 327.74 624.33 327.76 624.31 327.77 624.28 327.78 624.25 327.79 624.25 327.83 624.25 327.83 624.21 327.88 624.2 327.89 624.18 327.91 624.17 327.91 624.16 327.9 624.1 327.87 624.03 327.83 623.99 327.83 623.96 327.79 623.93 327.76 623.89 327.73 623.84 327.71 623.75 327.69 623.67 327.67 623.63 327.65 623.63 327.6 623.66 327.55 623.73 327.46 623.78 327.36 623.79 327.34 623.8 327.3 623.79 327.25 623.79 327.23 623.79 327.21 623.81 327.19 623.83 327.18 623.83 327.18 623.83 327.17 623.83 327.17 623.83 327.16 623.81 327.14 623.81 327.13 623.81 327.11 623.83 327.1 623.87 327.08 623.88 327.05 623.88 326.97 623.89 326.93 623.9 326.9 623.97 326.86 624.03 326.81 624.07 326.76 624.09 326.7 624.13 326.63 624.16 326.61 624.23 326.57 624.25 326.54 624.24 326.5 624.2 326.42 624.2 326.37 624.21 326.33 624.24 326.24 624.24 326.21 624.24 326.19 624.22 326.18 624.21 326.17 624.19 326.15 624.18 326.11 624.17 326.09 624.17 326.01 624.17 325.99 624.18 325.97 624.22 325.93 624.23 325.91 624.21 325.88 624.07 325.82 624.05 325.8 624 325.75 623.97 325.71 623.95 325.67 623.96 325.62 624.03 325.56 624.04 325.51 624.05 325.49 624.06 325.48 624.2 325.4 624.23 325.37 624.24 325.34 624.23 325.29 624.24 325.27 624.26 325.25 624.29 325.24 624.31 325.23 624.38 325.17 624.4 325.13 624.42 325.1 624.4 325.06 624.35 325.01 624.34 324.97 624.35 324.93 624.38 324.85 624.39 324.81 624.38 324.67 624.38 324.63 624.4 324.59 624.45 324.53 624.48 324.49 624.5 324.42 624.51 324.38 624.61 324.29 624.59 324.22 624.53 324.15 624.43 324.07 624.41 324.04 624.39 324 624.39 323.95 624.39 323.81 624.35 323.62 624.35 323.6 624.35 323.59 624.35 323.58 624.34 323.56 624.33 323.55 624.29 323.54 624.28 323.53 624.27 323.46 624.28 323.37 624.31 323.28 624.36 323.25 624.41 323.24 624.44 323.18 624.45 323.12 624.45 323.06 624.44 323.03 624.43 323.01 624.41 322.99 624.38 322.97 624.34 322.96 624.32 322.97 624.3 322.98 624.28 323 624.22 323.01 624.16 323.02 624.1 323.01 624.03 322.99 623.94 322.93 623.89 322.91 623.83 322.91 623.63 322.91 623.62 322.91 623.61 322.91 623.58 322.92 623.58 322.93 623.55 322.98 623.46 323.09 623.36 323.18 623.34 323.21 623.32 323.21 623.3 323.18 623.28 323.16 623.25 323.14 623.07 323.07 623.01 323.08 622.97 323.11 622.94 323.15 622.92 323.18 622.88 323.18 622.82 323.17 622.76 323.14 622.72 323.11 622.69 323.09 622.68 323.05 622.68 323.01 622.68 322.97 622.66 322.94 622.61 322.89 622.6 322.86 622.58 322.82 622.58 322.74 622.57 322.7 622.55 322.68 622.53 322.65 622.52 322.63 622.51 322.6 622.52 322.55 622.57 322.48 622.6 322.45 622.62 322.38 622.64 322.36 622.66 322.35 622.7 322.33 622.72 322.32 622.74 322.28 622.75 322.24 622.76 322.16 622.82 322.01 622.82 322.01 622.87 321.85 622.89 321.75 622.88 321.63 622.88 321.61 622.87 321.61 622.86 321.64 622.84 321.65 622.8 321.64 622.77 321.62 622.75 321.6 622.74 321.58 622.71 321.57 622.69 321.55 622.68 321.54 622.67 321.51 622.66 321.49 622.6 321.41 622.47 321.14 622.43 321.09 622.35 321.06 622.27 321.08 622.2 321.13 622.16 321.18 622.13 321.27 622.13 321.27 622.11 321.27 622.06 321.29 622.06 321.3 622.04 321.32 622.04 321.41 622 321.44 621.97 321.44 621.93 321.42 621.89 321.38 621.88 321.34 621.89 321.26 621.88 321.22 621.88 321.18 621.89 321.15 621.91 321.12 621.93 321.09 621.94 321.05 621.95 321 621.97 320.92 622 320.71 622.02 320.63 622.05 320.57 622.05 320.54 622.07 320.5 622.12 320.43 622.13 320.4 622.14 320.36 622.16 320.33 622.22 320.28 622.28 320.21 622.31 320.18 622.4 320.15 622.42 320.12 622.45 320.09 622.48 320.06 622.52 320.05 622.71 320.08 622.8 320.11 622.86 320.1 622.93 320.08 622.99 320.04 623.01 320.03 623.06 320 623.11 319.94 623.11 319.93 623.05 319.91 622.85 319.95 622.81 319.92 622.81 319.87 622.84 319.78 622.84 319.72 622.85 319.71 622.89 319.68 622.9 319.67 622.9 319.65 622.87 319.59 622.91 319.57 623.01 319.55 623.05 319.52 623.08 319.49 623.19 319.27 623.27 318.99 623.27 318.96 623.27 318.93 623.27 318.91 623.3 318.91 623.32 318.91 623.34 318.91 623.36 318.92 623.38 318.93 623.42 318.95 623.47 318.94 623.55 318.91 623.58 318.89 623.65 318.81 623.68 318.8 623.89 318.69 624.2 318.44 624.23 318.42 624.24 318.39 624.24 318.34 624.27 318.35 624.3 318.38 624.3 318.45 624.26 318.65 624.26 318.7 624.28 318.71 624.34 318.74 624.39 318.77 624.39 318.77 624.4 318.77 624.4 318.79 624.38 318.86 624.34 318.91 624.35 318.92 624.37 318.94 624.37 318.95 624.37 318.98 624.35 319.07 624.37 319.1 624.4 319.16 624.42 319.19 624.46 319.23 624.49 319.24 624.53 319.23 624.58 319.21 624.69 319.14 624.73 319.12 624.98 319.08 625.03 319.08 625.08 319.09 625.15 319.11 625.17 319.11 625.18 319.12 625.19 319.15 625.18 319.17 625.17 319.19 625.16 319.21 625.17 319.24 625.21 319.24 625.29 319.2 625.34 319.2 625.37 319.23 625.41 319.31 625.44 319.33 625.47 319.33 625.52 319.33 625.56 319.31 625.58 319.29 625.59 319.27 625.59 319.25 625.58 319.21 625.57 319.19 625.6 319.16 625.65 319.17 625.67 319.17 625.69 319.16 625.7 319.14 625.7 319.13 625.71 319.12 625.71 319.1 625.7 319.07 625.68 319.04 625.66 319.02 625.63 319 625.52 318.96 625.48 318.93 625.47 318.89 625.47 318.85 625.49 318.76 625.5 318.53 625.53 318.48 625.54 318.43 625.51 318.34 625.52 318.3 625.55 318.28 625.6 318.27 625.64 318.26 625.67 318.22 625.67 318.17 625.63 318.15 625.59 318.14 625.56 318.12 625.55 318.09 625.56 318.04 625.56 318.02 625.54 318 625.51 317.97 625.5 317.95 625.5 317.92 625.51 317.87 625.55 317.74 625.55 317.72 625.49 317.67 625.48 317.65 625.45 317.59 625.4 317.52 625.4 317.5 625.4 317.48 625.39 317.47 625.38 317.45 625.3 317.42 625.25 317.39 625.23 317.36 625.21 317.26 625.2 317.22 625.14 317.12 625.11 317.07 625.11 317.02 625.13 316.97 625.14 316.93 625.13 316.86 625.1 316.82 625.03 316.74 625.03 316.7 625.06 316.66 625.08 316.64 625.1 316.62 625.13 316.62 625.16 316.63 625.19 316.64 625.22 316.62 625.23 316.61 625.26 316.51 625.26 316.47 625.27 316.46 625.3 316.42 625.31 316.42 625.31 316.37 625.31 316.32 625.31 316.27 625.33 316.22 625.37 316.18 625.41 316.14 625.46 316.11 625.53 316.1 625.55 316.1 625.56 316.1 625.62 316.16 625.7 316.32 625.75 316.37 625.81 316.38 Z" id="Laos" transform="translate(-621.8800048828125,-316.1000061035156) "/></svg>