<svg xmlns="http://www.w3.org/2000/svg" viewBox="0 0 16.069976806640625 9.75"><path d="M 462.4 216.66 462.31 216.6 462.22 216.63 462.18 216.66 462.12 216.71 462.02 216.75 461.93 216.77 461.91 216.79 461.87 216.82 461.85 216.87 461.83 216.91 461.8 216.97 461.65 217.08 461.58 217.15 461.57 217.25 461.5 217.38 461.28 217.52 461.22 217.7 461.2 217.89 461.18 217.97 461.16 218.03 461.1 218.04 460.82 218.01 460.75 217.99 460.68 217.95 460.63 217.89 460.58 217.94 460.48 218.04 460.43 218.06 460.37 218.02 460.23 217.91 460.19 217.88 460.1 217.87 459.81 217.9 459.8 217.9 459.76 217.93 459.63 218.09 459.5 218.33 459.46 218.38 459.28 218.47 459.23 218.47 459.11 218.42 459.05 218.42 459 218.45 458.95 218.53 458.82 218.52 458.7 218.49 458.39 218.34 458.25 218.23 458.14 218.02 458.09 217.9 458.03 217.81 457.81 217.62 457.67 217.47 457.55 217.38 457.35 217.25 457.18 217.06 457.12 216.99 456.99 216.9 456.96 216.87 456.94 216.83 456.9 216.7 456.88 216.66 456.86 216.65 456.72 216.66 456.69 216.65 456.58 216.6 456.42 216.63 456.19 216.59 455.66 216.49 455.58 216.44 455.51 216.32 455.47 216.19 455.45 216.15 455.38 216.07 455.36 216.03 455.33 215.95 455.28 215.71 455.22 215.54 455.18 215.47 455.13 215.46 455.1 215.49 455.09 215.53 455.09 215.57 455.08 215.61 455.06 215.61 455.01 215.59 454.99 215.6 454.79 215.68 454.7 215.72 454.62 215.79 454.44 216.03 454.39 216.08 454.27 216.15 454.19 216.19 454.12 216.17 453.98 216.06 453.91 216.03 453.84 216.05 453.57 216.19 453.51 216.2 453.51 216.2 453.44 216.19 453.37 216.14 453.16 215.98 452.91 215.9 452.89 215.89 452.81 215.89 452.66 215.93 452.59 215.91 452.59 215.9 452.59 215.88 452.59 215.85 452.57 215.82 452.55 215.81 452.49 215.82 452.34 215.81 452.26 215.83 452.13 215.91 452.05 215.91 451.82 215.81 451.67 215.75 451.62 215.74 451.37 215.8 451.33 215.82 451.34 215.87 451.23 215.99 451.12 216.01 451.02 215.93 450.94 215.74 450.89 215.62 450.82 215.58 450.74 215.6 450.67 215.64 450.59 215.7 450.28 215.83 450.24 215.83 450.21 215.82 450.11 215.71 450.05 215.68 450.04 215.68 449.9 215.65 449.24 215.67 449.2 215.65 449.12 215.59 449.08 215.57 448.98 215.56 448.73 215.68 448.69 215.69 448.07 215.99 447.87 216 447.79 216.04 447.48 216.28 447.44 216.29 447.34 216.29 447.28 216.33 447.19 216.4 447.11 216.49 447.06 216.57 447.02 216.7 447.01 216.81 446.97 216.89 446.88 216.91 446.75 216.91 446.67 216.93 446.67 216.93 446.67 216.93 446.67 216.91 446.64 216.77 446.61 216.64 446.51 216.39 446.49 216.3 446.48 216.21 446.49 216.19 446.51 216.11 446.51 216.07 446.51 216.02 446.51 215.99 446.49 215.83 446.48 215.75 446.48 215.67 446.5 215.61 446.53 215.56 446.55 215.53 446.56 215.49 446.56 215.45 446.56 215.37 446.57 215.33 446.56 215.26 446.55 215.19 446.56 215.15 446.6 215.19 446.62 215.23 446.63 215.33 446.65 215.38 446.62 215.44 446.63 215.45 446.65 215.46 446.65 215.52 446.65 215.55 446.62 215.6 446.67 215.67 446.69 215.68 446.71 215.67 446.72 215.65 446.73 215.62 446.7 215.53 446.7 215.46 446.7 215.39 446.71 215.35 446.7 215.32 446.69 215.25 446.68 215.21 446.67 215.19 446.66 215.17 446.62 215.13 446.59 215.12 446.57 215.12 446.56 215.11 446.54 215.08 446.53 215.03 446.54 215.02 446.55 215 446.57 214.83 446.65 214.6 446.68 214.47 446.69 214.13 446.69 214.05 446.67 213.97 446.67 213.91 446.69 213.84 446.88 213.71 446.9 213.68 447.04 213.59 447.08 213.54 447.17 213.42 447.19 213.39 447.22 213.38 447.28 213.32 447.35 213.25 447.4 213.18 447.44 213.06 447.47 212.92 447.47 212.75 447.46 212.71 447.44 212.6 447.44 212.55 447.46 212.5 447.47 212.46 447.46 212.19 447.47 212.11 447.48 212.04 447.51 211.96 447.55 211.91 447.58 211.89 447.61 211.85 447.7 211.63 447.86 211.42 448.1 210.94 448.17 210.87 448.26 210.81 448.67 210.79 448.77 210.76 449.2 210.52 449.84 210.17 449.93 210.14 449.98 210.13 450.01 210.13 450.04 210.11 450.07 210.1 450.1 210.1 450.12 210.12 450.12 210.12 450.11 210.13 450.1 210.16 450.08 210.32 450.07 210.49 450.08 210.57 450.1 210.63 450.22 210.82 450.71 211.25 450.87 211.45 451.05 211.6 451.17 211.67 451.24 211.69 451.27 211.7 451.28 211.73 451.28 211.77 451.29 211.81 451.34 211.91 451.35 211.93 451.37 212 451.39 212.08 451.4 212.23 451.42 212.3 451.46 212.33 451.48 212.37 451.54 212.75 451.56 212.81 451.59 212.84 451.63 212.85 451.74 212.97 451.92 213.05 452.11 213.09 452.14 213.11 452.25 213.27 452.27 213.29 452.28 213.3 452.38 213.33 452.52 213.35 452.9 213.25 453.04 213.19 453.1 213.16 453.18 213.09 453.22 213.03 453.25 212.97 453.28 212.93 453.37 212.91 453.45 212.85 453.67 212.71 453.69 212.65 453.73 212.6 453.78 212.57 453.82 212.56 453.82 212.51 453.84 212.48 453.89 212.45 454.04 212.28 454.09 212.16 454.11 212 454.1 211.81 454.05 211.29 454.04 211.14 454.03 211.05 454.01 211.01 453.99 210.96 454 210.85 454.03 210.7 454 210.46 453.99 210.4 453.9 210.24 453.86 210.16 453.86 210.09 453.84 209.89 453.83 209.79 453.84 209.74 453.86 209.69 453.88 209.65 453.98 209.69 454.04 209.68 454.09 209.65 454.11 209.61 454.15 209.51 454.18 209.48 454.27 209.43 454.38 209.33 454.43 209.32 454.58 209.33 454.72 209.32 454.75 209.29 454.79 209.17 454.83 209.13 454.9 209.15 454.95 209.18 455.01 209.19 455.03 209.17 455.08 209.13 455.13 209.1 455.3 209.07 455.36 209.03 455.49 208.89 455.52 208.86 455.57 208.83 455.63 208.82 455.73 208.81 455.79 208.85 455.82 208.94 455.84 209.04 455.86 209.13 455.9 209.16 455.93 209.16 456 209.12 456.05 209.06 456.03 209 455.97 208.88 455.97 208.81 456 208.78 456.04 208.79 456.08 208.82 456.1 208.85 456.12 208.93 456.14 208.95 456.16 208.96 456.17 208.96 456.18 208.95 456.21 208.95 456.3 209 456.43 209.16 456.52 209.22 456.6 209.24 456.62 209.25 456.64 209.28 456.64 209.31 456.64 209.31 456.64 209.34 456.65 209.37 456.7 209.43 456.75 209.46 456.8 209.47 456.86 209.47 456.98 209.42 457 209.42 457.04 209.42 457.07 209.48 457.09 209.56 457.12 209.64 457.17 209.7 457.64 209.74 457.67 209.75 457.68 209.77 457.69 209.81 457.68 209.84 457.67 209.86 457.66 209.9 457.67 209.98 457.69 210.04 457.93 210.24 458.01 210.33 458.22 210.67 458.29 210.76 458.38 210.83 458.41 210.84 458.59 210.91 458.59 210.91 458.63 210.95 458.7 211.06 458.74 211.1 458.78 211.1 458.81 211.07 458.84 211.05 458.86 211.06 458.9 211.09 458.92 211.1 458.94 211.09 458.95 211.06 458.96 211.03 458.97 211 459.04 210.95 459.11 210.9 459.19 210.88 459.36 210.89 459.4 210.88 459.44 210.83 459.47 210.78 459.49 210.72 459.53 210.66 459.57 210.64 459.6 210.67 459.62 210.7 459.65 210.7 459.69 210.69 459.73 210.69 459.81 210.72 459.86 210.76 459.94 210.89 459.99 210.94 460.04 210.97 460.22 210.98 460.56 211.1 460.63 211.06 461.02 211.05 461.01 211.2 461.02 211.3 460.99 211.38 460.98 211.46 461.04 211.52 461.27 211.63 461.39 211.76 461.42 211.79 461.64 211.93 461.68 211.97 461.71 212.03 461.73 212.12 461.71 212.35 461.7 212.48 461.68 212.57 461.61 212.63 461.4 212.73 461.36 212.79 461.39 212.87 461.45 212.9 461.5 212.94 461.51 213.04 461.5 213.09 461.47 213.17 461.45 213.22 461.45 213.26 461.44 213.34 461.44 213.39 461.29 213.7 461.24 213.84 461.28 213.85 461.32 213.86 461.5 213.76 461.59 213.73 461.69 213.76 461.74 213.8 461.83 213.9 461.88 213.94 461.89 214 461.85 214.09 461.79 214.19 461.77 214.25 461.81 214.32 462.02 214.48 462.05 214.55 462.05 214.73 462.06 214.81 462.09 214.88 462.13 214.92 462.31 215.01 462.35 215.04 462.36 215.09 462.34 215.12 462.29 215.18 462.27 215.22 462.28 215.26 462.3 215.3 462.41 215.44 462.43 215.48 462.44 215.52 462.43 215.66 462.44 215.75 462.45 215.83 462.54 216.1 462.55 216.15 462.54 216.2 462.53 216.24 462.51 216.26 462.49 216.3 462.48 216.4 462.46 216.49 462.44 216.58 462.4 216.66 Z" id="Latvia" transform="translate(-446.4800109863281,-208.77999877929688) "/></svg>