<svg xmlns="http://www.w3.org/2000/svg" viewBox="0 0 3.34002685546875 4.339996337890625"><path d="M 480.67 285.58 480.72 285.58 480.78 285.56 480.77 285.64 480.75 285.66 480.73 285.64 480.69 285.63 480.66 285.65 480.66 285.68 480.66 285.72 480.65 285.76 480.61 285.8 480.55 285.83 480.51 285.87 480.53 285.91 480.54 285.92 480.54 285.92 480.55 285.92 480.56 285.92 480.56 285.92 480.6 285.91 480.67 285.91 480.73 285.91 480.76 285.92 480.76 285.92 480.78 285.97 480.8 286 480.83 286.03 480.86 286.04 480.9 286.08 480.91 286.09 480.93 286.09 480.96 286.11 480.98 286.14 480.97 286.17 480.97 286.21 480.96 286.23 480.95 286.24 480.95 286.25 480.94 286.28 480.95 286.3 480.96 286.32 481.01 286.39 481.03 286.41 481.05 286.42 481.06 286.42 481.08 286.42 481.09 286.44 481.09 286.48 481.06 286.51 481.05 286.54 481.06 286.59 481.07 286.63 481.13 286.68 481.14 286.71 481.14 286.71 481.08 286.78 481.03 286.87 480.93 286.95 480.88 287 480.87 287.04 480.87 287.07 480.85 287.1 480.82 287.12 480.79 287.12 480.74 287.1 480.71 287.1 480.67 287.12 480.59 287.22 480.5 287.29 480.47 287.34 480.44 287.38 480.39 287.48 480.4 287.49 480.41 287.51 480.42 287.53 480.49 287.58 480.58 287.6 480.61 287.62 480.62 287.67 480.59 287.71 480.55 287.72 480.47 287.7 480.35 287.64 480.31 287.63 480.28 287.65 480.25 287.67 480.21 287.69 480.17 287.69 480.15 287.68 480.12 287.65 480.11 287.64 480.03 287.69 479.99 287.7 479.95 287.71 479.91 287.73 479.89 287.76 479.86 287.81 479.79 287.88 479.76 287.92 479.74 287.95 479.7 287.99 479.69 288.01 479.68 288.04 479.69 288.08 479.68 288.11 479.67 288.12 479.64 288.13 479.63 288.14 479.63 288.2 479.66 288.21 479.7 288.22 479.76 288.25 479.79 288.26 479.83 288.28 479.87 288.31 479.89 288.34 479.88 288.39 479.84 288.43 479.8 288.46 479.76 288.48 479.7 288.48 479.65 288.49 479.63 288.53 479.66 288.58 479.62 288.67 479.55 288.72 479.51 288.75 479.46 288.78 479.4 288.81 479.37 288.85 479.33 288.94 479.29 288.98 479.26 289 479.23 289.01 479.2 289.02 479.17 289.02 479.13 289.04 479.05 289.12 479 289.16 478.97 289.17 478.94 289.17 478.92 289.19 478.92 289.24 478.92 289.24 478.92 289.24 478.92 289.25 478.92 289.25 478.91 289.24 478.91 289.24 478.91 289.24 478.88 289.22 478.84 289.16 478.83 289.14 478.8 289.15 478.79 289.17 478.77 289.21 478.75 289.24 478.74 289.3 478.73 289.43 478.72 289.5 478.7 289.54 478.66 289.62 478.65 289.66 478.58 289.66 478.47 289.71 478.35 289.74 478.32 289.74 478.3 289.71 478.28 289.68 478.26 289.65 478.24 289.63 478.22 289.62 478.21 289.62 478.19 289.62 478.1 289.65 478.09 289.65 478.06 289.64 478.04 289.64 478.03 289.64 478 289.66 477.99 289.66 477.82 289.65 477.82 289.65 477.82 289.64 477.81 289.64 477.81 289.63 477.81 289.63 477.8 289.62 477.82 289.59 477.84 289.56 477.86 289.54 477.91 289.52 477.93 289.49 477.94 289.46 477.96 289.44 477.94 289.42 477.96 289.42 477.96 289.42 477.97 289.44 478.04 289.29 478.05 289.21 478 289.15 478.05 289.11 478.08 289.06 478.12 288.95 478.13 288.91 478.13 288.84 478.14 288.81 478.18 288.75 478.19 288.71 478.18 288.68 478.3 288.59 478.36 288.53 478.38 288.45 478.39 288.42 478.47 288.19 478.46 288.17 478.49 288.14 478.52 288.03 478.56 288.01 478.55 287.98 478.64 287.76 478.65 287.71 478.65 287.6 478.65 287.58 478.65 287.55 478.63 287.52 478.63 287.5 478.64 287.48 478.66 287.47 478.69 287.48 478.72 287.49 478.73 287.5 478.75 287.5 478.77 287.49 478.8 287.49 478.82 287.49 478.85 287.48 478.87 287.46 478.89 287.41 478.9 287.39 478.9 287.38 478.9 287.37 478.88 287.37 478.9 287.35 478.93 287.29 478.94 287.26 478.96 287.25 478.99 287.25 479 287.24 479 287.22 478.99 287.21 478.98 287.2 478.97 287.19 478.97 287.12 479.01 287.01 479.02 286.92 479.01 286.89 478.98 286.83 478.97 286.8 478.97 286.71 478.98 286.69 479.01 286.66 479.02 286.65 479.02 286.57 479.03 286.48 479.06 286.41 479.11 286.37 479.15 286.4 479.18 286.34 479.22 286.26 479.25 286.2 479.37 286.13 479.41 286.08 479.37 286.02 479.37 286 479.41 286.01 479.59 285.97 479.7 285.85 479.74 285.83 479.76 285.8 479.78 285.77 479.78 285.64 479.77 285.58 479.76 285.54 479.73 285.51 479.76 285.5 479.78 285.51 479.8 285.52 479.84 285.55 479.88 285.56 479.93 285.56 479.99 285.56 480.05 285.56 480.15 285.57 480.16 285.56 480.18 285.55 480.2 285.54 480.21 285.55 480.23 285.57 480.25 285.57 480.38 285.57 480.4 285.56 480.42 285.53 480.43 285.51 480.43 285.46 480.44 285.44 480.48 285.4 480.52 285.43 480.57 285.52 480.61 285.56 480.67 285.58 Z" id="Lebanon" transform="translate(-477.79998779296875,-285.3999938964844) "/></svg>