<svg xmlns="http://www.w3.org/2000/svg" viewBox="0 0 5.399993896484375 5.290008544921875"><path d="M 464.24 433.5 464.27 433.5 464.33 433.51 464.37 433.53 464.39 433.56 464.39 433.61 464.41 433.64 464.44 433.66 464.49 433.67 464.56 433.71 464.75 433.9 464.82 433.92 464.91 433.93 464.97 433.95 464.99 434.1 465.01 434.13 465.05 434.16 465.08 434.19 465.09 434.23 465.12 434.32 465.18 434.41 465.2 434.46 465.2 434.48 465.2 434.51 465.2 434.53 465.21 434.55 465.24 434.58 465.25 434.59 465.24 434.63 465.2 434.69 465.2 434.73 465.2 434.76 465.19 434.79 465.17 434.81 465.14 434.83 465.09 434.86 465.02 434.88 464.96 434.91 464.91 434.95 464.89 435.01 464.89 435.06 464.89 435.07 464.91 435.13 464.94 435.17 464.9 435.2 464.9 435.24 464.9 435.28 464.88 435.31 464.71 435.36 464.64 435.41 464.6 435.48 464.58 435.55 464.54 435.62 464.54 435.63 464.53 435.69 464.52 435.76 464.52 435.82 464.55 435.86 464.58 435.88 464.58 435.9 464.58 435.92 464.59 435.96 464.61 436.01 464.62 436.03 464.6 436.06 464.58 436.07 464.52 436.09 464.49 436.1 464.32 436.21 464.23 436.26 463.97 436.43 463.83 436.49 463.68 436.52 463.48 436.59 463.41 436.59 463.3 436.55 463.26 436.55 463.23 436.56 463.13 436.61 463.08 436.63 462.97 436.62 462.92 436.63 462.87 436.67 462.85 436.7 462.82 436.77 462.78 436.81 462.76 436.82 462.73 436.86 462.72 436.88 462.7 436.89 462.63 436.9 462.59 436.91 462.55 436.94 462.51 436.98 462.51 437.03 462.53 437.06 462.56 437.08 462.59 437.1 462.6 437.16 462.58 437.21 462.55 437.25 462.36 437.4 462.34 437.43 462.35 437.45 462.38 437.49 462.38 437.52 462.38 437.54 462.34 437.66 462.33 437.67 462.32 437.7 462.3 437.71 462.28 437.72 462.26 437.73 462.25 437.76 462.23 437.81 462.24 437.85 462.24 437.89 462.24 437.94 462.19 437.92 461.93 437.9 461.88 437.88 461.84 437.86 461.81 437.84 461.8 437.82 461.78 437.81 461.75 437.8 461.73 437.8 461.69 437.83 461.67 437.83 461.58 437.82 461.5 437.79 461.43 437.75 461.31 437.61 461.18 437.51 461.16 437.49 461.16 437.47 461.16 437.44 461.15 437.42 461.1 437.35 461.04 437.29 461.03 437.26 461.02 437.23 460.94 437.2 460.91 437.17 460.88 437.13 460.87 437.07 460.85 437.05 460.82 437.05 460.77 437.07 460.75 437.07 460.73 437.07 460.69 437.06 460.69 437.06 460.66 437.05 460.67 437.01 460.62 436.88 460.61 436.8 460.66 436.68 460.69 436.65 460.7 436.62 460.67 436.61 460.64 436.6 460.59 436.6 460.56 436.6 460.54 436.6 460.52 436.55 460.5 436.52 460.47 436.4 460.44 436.34 460.33 436.25 460.29 436.21 460.23 436.06 460.05 435.62 460.05 435.62 460.05 435.62 460.03 435.59 459.96 435.49 459.93 435.46 459.9 435.45 459.87 435.42 459.85 435.41 459.88 435.35 459.88 435.31 459.9 435.28 459.92 435.28 459.94 435.31 459.96 435.3 459.98 435.25 459.99 435.24 460.01 435.24 460.02 435.26 460.02 435.27 460.04 435.28 460.05 435.27 460.12 435.2 460.13 435.19 460.2 435.16 460.26 435.16 460.28 435.15 460.32 435.13 460.39 435.11 460.43 435.09 460.51 435.05 460.52 435.04 460.52 435.04 460.54 435.01 460.55 434.99 460.55 434.96 460.56 434.95 460.61 434.95 460.63 434.94 460.64 434.89 460.66 434.86 460.75 434.75 460.77 434.74 460.78 434.73 460.78 434.7 460.77 434.68 460.76 434.66 460.75 434.65 460.76 434.63 460.78 434.61 460.8 434.61 460.82 434.59 460.84 434.57 460.84 434.54 460.85 434.48 460.85 434.46 460.89 434.44 460.98 434.41 461 434.4 461.02 434.39 461.02 434.36 461 434.3 461.01 434.27 461.02 434.25 461.04 434.24 461.07 434.23 461.08 434.22 461.21 434.06 461.26 433.97 461.26 433.96 461.25 433.91 461.26 433.89 461.28 433.91 461.29 433.91 461.31 433.9 461.32 433.89 461.3 433.87 461.28 433.84 461.27 433.82 461.3 433.81 461.33 433.79 461.36 433.77 461.4 433.7 461.41 433.7 461.42 433.7 461.43 433.7 461.43 433.69 461.43 433.68 461.43 433.67 461.44 433.66 461.44 433.65 461.45 433.63 461.45 433.59 461.46 433.57 461.5 433.56 461.52 433.54 461.51 433.5 461.76 433.51 461.82 433.49 461.84 433.45 461.85 433.41 461.87 433.38 461.9 433.36 461.94 433.36 461.97 433.39 461.99 433.41 462.02 433.43 462.08 433.43 462.1 433.42 462.1 433.41 462.1 433.39 462.11 433.37 462.19 433.25 462.29 433.15 462.3 433.14 462.36 433.05 462.39 433.01 462.41 432.98 462.43 432.99 462.55 432.97 462.58 432.97 462.62 432.99 462.67 433 462.73 432.99 462.77 432.97 462.81 432.93 462.87 432.83 462.92 432.79 462.96 432.77 463.27 432.75 463.31 432.74 463.44 432.65 463.47 432.65 463.51 432.68 463.54 432.71 463.56 432.76 463.58 432.8 463.59 432.91 463.62 432.94 463.72 432.95 463.75 432.97 463.81 433.09 463.83 433.11 463.9 433.12 463.9 433.12 463.94 433.13 463.97 433.16 463.97 433.16 464 433.18 464.03 433.22 464.12 433.37 464.24 433.5 Z" id="Lesotho" transform="translate(-459.8500061035156,-432.6499938964844) "/></svg>