<svg xmlns="http://www.w3.org/2000/svg" viewBox="0 0 9.07000732421875 9.350006103515625"><path d="M 381.19 350.27 381.28 350.32 381.32 350.39 381.37 350.55 381.4 350.77 381.41 350.81 381.42 350.84 381.46 350.89 381.47 350.92 381.49 350.99 381.5 351 381.53 351.04 381.54 351.06 381.54 351.07 381.53 351.1 381.54 351.11 381.54 351.13 381.58 351.16 381.59 351.18 381.6 351.2 381.6 351.26 381.64 351.47 381.63 351.52 381.61 351.54 381.57 351.58 381.56 351.6 381.55 351.64 381.56 351.67 381.56 351.71 381.53 351.77 381.54 351.78 381.56 351.8 381.57 351.81 381.57 351.84 381.56 351.87 381.55 351.94 381.52 352 381.49 352.05 381.29 352.27 381.24 352.32 381.08 352.45 381.05 352.48 381.05 352.48 381.01 352.5 381.01 352.5 381.01 352.51 381 352.54 381 352.55 380.99 352.55 380.96 352.56 380.95 352.56 380.9 352.63 380.93 352.63 380.95 352.64 381.01 352.64 381.03 352.64 381.06 352.67 381.12 352.75 381.16 352.77 381.19 352.75 381.21 352.7 381.22 352.66 381.23 352.64 381.24 352.65 381.27 352.69 381.34 352.72 381.37 352.76 381.37 352.77 381.35 352.78 381.34 352.82 381.34 352.84 381.36 352.88 381.37 352.9 381.36 352.92 381.34 352.93 381.33 352.94 381.35 352.97 381.38 352.95 381.4 352.94 381.43 352.94 381.46 352.95 381.48 352.92 381.51 352.93 381.53 352.96 381.55 352.98 381.56 352.98 381.57 352.97 381.58 352.96 381.6 352.97 381.61 352.99 381.61 353 381.61 353.02 381.61 353.03 381.63 353.04 381.8 353.08 381.83 353.09 381.86 353.1 381.87 353.11 381.89 353.12 381.92 353.12 381.96 353.11 382 353.08 382.03 353.07 382.13 353.06 382.19 353.05 382.23 353.06 382.27 353.09 382.41 353.12 382.42 353.12 382.43 353.12 382.44 353.12 382.46 353.12 382.46 353.13 382.47 353.15 382.47 353.17 382.57 353.24 382.61 353.29 382.61 353.32 382.58 353.4 382.57 353.45 382.57 353.5 382.57 353.54 382.6 353.57 382.6 353.56 382.62 353.55 382.65 353.54 382.67 353.55 382.69 353.57 382.7 353.59 382.7 353.64 382.71 353.64 382.72 353.65 382.73 353.65 382.74 353.67 382.74 353.68 382.72 353.69 382.71 353.7 382.71 353.76 382.71 353.78 382.74 353.82 382.83 353.86 382.85 353.89 382.89 353.94 382.92 353.93 382.95 353.88 382.97 353.85 382.99 353.87 383.01 353.89 383.05 353.92 383.09 353.93 383.09 353.93 383.13 353.96 383.14 353.96 383.19 353.98 383.2 353.99 383.18 354.02 383.2 354.03 383.23 354.07 383.24 354.08 383.27 354.06 383.3 354.04 383.31 354.04 383.31 354.07 383.34 354.08 383.36 354.11 383.37 354.14 383.39 354.15 383.4 354.13 383.42 354.1 383.42 354.03 383.49 354.06 383.5 354.14 383.49 354.23 383.49 354.32 383.53 354.49 383.56 354.55 383.6 354.64 383.63 354.68 383.59 354.67 383.57 354.7 383.58 354.74 383.61 354.78 383.57 354.78 383.55 354.78 383.57 354.8 383.58 354.8 383.57 354.82 383.54 354.84 383.52 354.87 383.53 354.96 383.52 354.98 383.49 354.96 383.49 355 383.49 355.04 383.51 355.08 383.53 355.11 383.56 355.13 383.59 355.12 383.6 355.12 383.62 355.17 383.62 355.21 383.62 355.23 383.61 355.26 383.58 355.29 383.57 355.31 383.57 355.34 383.56 355.36 383.53 355.37 383.53 355.36 383.53 355.34 383.52 355.33 383.52 355.32 383.53 355.31 383.53 355.3 383.51 355.29 383.5 355.3 383.45 355.33 383.43 355.35 383.42 355.37 383.4 355.44 383.41 355.55 383.41 355.58 383.4 355.62 383.34 355.73 383.31 355.72 383.27 355.72 383.23 355.73 383.21 355.77 383.2 355.81 383.22 355.94 383.22 355.94 383.22 355.99 383.23 356.02 383.25 356.05 383.27 356.09 383.27 356.12 383.26 356.12 383.24 356.11 383.21 356.11 383.14 356.16 383.14 356.18 383.16 356.25 383.15 356.27 383.14 356.32 383.14 356.34 383.14 356.34 383.15 356.37 383.17 356.38 383.19 356.39 383.2 356.41 383.2 356.43 383.21 356.55 383.2 357.02 383.21 357.04 383.21 357.06 383.22 357.08 383.21 357.14 383.23 357.18 383.23 357.2 383.23 357.22 383.2 357.27 383.2 357.29 383.21 357.31 383.28 357.36 383.28 357.36 383.17 357.38 383.14 357.37 383.08 357.35 383.05 357.34 382.9 357.34 382.89 357.34 382.88 357.32 382.87 357.31 382.86 357.3 382.82 357.3 382.74 357.26 382.71 357.25 382.68 357.22 382.67 357.2 382.66 357.17 382.64 357.14 382.57 357.12 382.52 357.08 382.49 357.07 382.46 357.07 382.43 357.06 382.42 357.04 382.4 357.03 382.36 357.01 382.26 356.99 382.18 356.97 382.04 356.92 381.77 356.89 381.7 356.86 381.6 356.76 381.57 356.74 381.52 356.73 381.29 356.65 381.05 356.48 380.92 356.4 380.61 356.29 380.54 356.26 380.39 356.13 380.33 356.09 380.26 356.06 380.24 356.05 380.19 356.03 380.12 356.02 380.07 356.01 380.02 355.98 379.98 355.95 379.99 355.95 379.99 355.95 379.99 355.94 379.99 355.94 379.9 355.91 379.82 355.86 379.69 355.76 379.66 355.73 379.58 355.7 379.51 355.65 379.47 355.63 379.43 355.61 379.4 355.57 379.43 355.57 379.4 355.53 379.36 355.51 379.31 355.49 379.27 355.47 379.01 355.23 378.99 355.19 378.97 355.11 378.95 355.07 378.92 355.05 378.89 355.03 378.85 355.01 378.82 355 378.81 354.99 378.75 354.98 378.73 354.98 378.73 354.96 378.76 354.93 378.76 354.91 378.73 354.85 378.51 354.73 378.18 354.42 377.88 354.17 377.8 354.08 377.78 354.07 377.74 354.05 377.73 354.03 377.72 354.01 377.73 353.98 377.73 353.95 377.71 353.92 377.68 353.89 377.64 353.87 377.6 353.86 377.58 353.85 377.42 353.72 377.33 353.63 377.21 353.55 377.17 353.53 377.09 353.52 377.05 353.5 377.03 353.47 377.03 353.44 377.05 353.45 377.07 353.45 377.08 353.44 377.09 353.42 377.05 353.41 377.02 353.39 376.99 353.36 376.96 353.33 376.88 353.29 376.85 353.27 376.8 353.27 376.8 353.29 376.92 353.34 376.97 353.39 376.99 353.44 376.95 353.4 376.89 353.36 376.82 353.33 376.37 353.22 376.09 353.07 376.04 353.03 376.06 353 376.07 353.02 376.08 353.03 376.1 353.04 376.12 353.04 376.08 352.98 376.08 352.93 376.1 352.88 376.15 352.83 376.12 352.83 376.1 352.83 376.08 352.85 376.06 352.86 376.01 352.75 375.93 352.68 375.85 352.62 375.5 352.43 375.1 352.29 374.83 352.17 374.79 352.11 374.78 352.02 374.8 351.98 374.8 351.95 374.8 351.93 374.77 351.87 374.76 351.86 374.72 351.85 374.68 351.82 374.64 351.79 374.62 351.77 374.56 351.69 374.63 351.65 374.65 351.64 374.64 351.59 374.65 351.55 374.71 351.52 374.74 351.48 374.75 351.44 374.75 351.4 374.75 351.36 374.75 351.34 374.8 351.34 374.82 351.33 374.83 351.32 374.83 351.3 374.83 351.27 374.8 351.22 374.79 351.2 374.8 351.19 374.84 351.15 374.91 351.03 374.95 351.03 375.13 350.94 375.15 350.93 375.3 350.74 375.34 350.69 375.67 350.43 375.76 350.38 375.84 350.36 375.87 350.35 375.89 350.33 375.92 350.3 376.21 349.94 376.3 349.87 376.4 349.81 376.42 349.81 376.47 349.8 376.46 349.26 376.47 349.24 376.48 349.22 376.5 349.2 376.55 349.17 376.58 349.15 376.63 349.05 376.66 349.01 376.71 348.99 376.76 348.98 376.94 348.98 376.98 348.97 377.02 348.96 377.07 348.93 377.12 348.88 377.13 348.84 377.11 348.8 377.09 348.73 377.1 348.68 377.14 348.6 377.21 348.32 377.21 348.21 377.23 348.21 377.26 348.21 377.3 348.19 377.32 348.23 377.36 348.21 377.43 348.13 377.47 348.12 377.51 348.12 377.63 348.15 377.66 348.17 377.68 348.2 377.66 348.31 377.67 348.34 377.7 348.35 377.74 348.34 377.83 348.29 377.92 348.22 377.96 348.2 377.99 348.19 378.03 348.19 378.07 348.18 378.08 348.18 378.12 348.17 378.13 348.18 378.14 348.19 378.15 348.2 378.17 348.2 378.21 348.18 378.26 348.16 378.26 348.15 378.26 348.13 378.26 348.11 378.27 348.09 378.29 348.08 378.3 348.06 378.3 348.03 378.34 348.04 378.36 348.06 378.37 348.1 378.39 348.21 378.4 348.25 378.42 348.29 378.45 348.32 378.46 348.31 378.46 348.28 378.46 348.23 378.49 348.2 378.53 348.2 378.58 348.22 378.61 348.25 378.62 348.3 378.6 348.33 378.57 348.35 378.55 348.38 378.55 348.42 378.57 348.42 378.6 348.42 378.64 348.41 378.66 348.42 378.68 348.41 378.69 348.41 378.7 348.39 378.72 348.37 378.74 348.39 378.77 348.43 378.88 348.47 378.92 348.5 378.93 348.52 378.94 348.52 378.92 348.54 378.91 348.54 378.89 348.55 378.88 348.56 378.85 348.59 378.87 348.61 378.89 348.63 378.89 348.66 378.91 348.68 378.92 348.69 378.92 348.7 378.92 348.71 378.91 348.72 378.89 348.75 378.87 348.82 378.87 348.88 378.91 348.9 378.96 348.91 378.98 348.92 378.99 348.95 378.99 348.97 379.03 349.13 379.03 349.16 379 349.2 379 349.22 379.03 349.19 379.05 349.17 379.07 349.18 379.1 349.21 379.11 349.23 379.11 349.25 379.11 349.27 379.09 349.3 379.09 349.3 379.06 349.4 379.06 349.49 379.08 349.58 379.13 349.68 379.19 349.75 379.21 349.79 379.26 349.86 379.24 349.92 379.22 350 379.22 350.07 379.27 350.13 379.24 350.14 379.22 350.17 379.21 350.21 379.2 350.27 379.18 350.29 379.14 350.34 379.15 350.37 379.13 350.42 379.08 350.49 379.04 350.52 379.02 350.55 379.01 350.57 379.01 350.6 379 350.63 378.99 350.65 378.96 350.67 378.97 350.68 378.97 350.68 378.99 350.67 379.05 350.61 379.08 350.57 379.12 350.65 379.15 350.67 379.18 350.62 379.19 350.62 379.2 350.61 379.21 350.59 379.22 350.58 379.24 350.57 379.28 350.57 379.31 350.58 379.32 350.58 379.34 350.59 379.36 350.61 379.37 350.66 379.39 350.67 379.42 350.68 379.5 350.66 379.53 350.66 379.56 350.71 379.59 350.85 379.65 350.9 379.66 350.9 379.71 350.9 379.72 350.91 379.72 350.94 379.74 350.96 379.78 350.98 379.79 351.01 379.77 351.09 379.8 351.06 379.81 351.06 379.83 351.05 379.86 351.05 379.89 351.04 379.92 351.02 379.95 350.99 379.98 350.97 380.02 350.98 380.03 350.97 380.08 350.95 380.09 350.95 380.1 350.92 380.11 350.91 380.13 350.92 380.14 350.87 380.17 350.89 380.22 350.96 380.24 350.95 380.34 350.92 380.37 350.9 380.38 350.86 380.37 350.82 380.35 350.78 380.35 350.74 380.36 350.71 380.38 350.68 380.42 350.63 380.44 350.62 380.48 350.61 380.5 350.59 380.5 350.57 380.51 350.53 380.51 350.51 380.53 350.5 380.59 350.46 380.63 350.42 380.65 350.38 380.66 350.33 380.66 350.28 380.65 350.27 380.64 350.27 380.63 350.27 380.63 350.25 380.63 350.24 380.65 350.22 380.65 350.2 380.65 350.13 380.67 350.08 380.73 350.01 380.74 349.97 381.01 349.98 381 350.06 381.01 350.12 381.05 350.17 381.12 350.23 381.19 350.27 Z" id="Liberia" transform="translate(-374.55999755859375,-348.0299987792969) "/></svg>