<svg xmlns="http://www.w3.org/2000/svg" viewBox="0 0 35.170013427734375 33.769989013671875"><path d="M 453.16 323.18 452.88 323.04 452.61 322.9 452.34 322.75 452.06 322.61 451.79 322.47 451.52 322.32 451.24 322.18 450.97 322.04 450.69 321.9 450.42 321.75 450.15 321.61 449.87 321.47 449.6 321.32 449.33 321.18 449.05 321.04 448.78 320.89 448.5 320.75 448.23 320.61 447.96 320.46 447.68 320.32 447.41 320.18 447.14 320.03 446.86 319.89 446.59 319.74 446.31 319.6 446.04 319.46 445.77 319.31 445.49 319.17 445.22 319.02 444.94 318.88 444.67 318.74 444.4 318.59 444.12 318.45 443.85 318.3 443.58 318.16 443.3 318.01 443.03 317.87 442.75 317.72 442.53 317.61 442.48 317.58 442.21 317.44 441.93 317.29 441.66 317.15 441.39 317 441.11 316.86 440.84 316.71 440.56 316.56 440.29 316.42 440.02 316.27 439.74 316.13 439.47 315.98 439.2 315.84 438.92 315.69 438.65 315.55 438.37 315.4 438.1 315.26 437.83 315.11 437.55 314.96 437.28 314.82 437 314.67 436.73 314.53 436.46 314.38 436.18 314.23 435.91 314.09 435.64 313.94 435.43 313.83 435.39 313.84 435.29 313.89 435.16 313.95 435.03 314.01 434.91 314.07 434.78 314.14 434.65 314.2 434.52 314.26 434.39 314.33 434.27 314.39 434.14 314.45 434.01 314.51 433.88 314.58 433.76 314.64 433.63 314.7 433.5 314.76 433.37 314.83 433.24 314.89 433.21 314.91 433.2 314.91 433.2 314.91 432.82 315.12 432.45 315.32 432.07 315.53 431.69 315.74 431.55 315.81 431.51 315.82 431.48 315.8 431.38 315.71 431.1 315.46 430.83 315.22 430.55 314.97 430.27 314.72 430.15 314.61 429.89 314.47 429.66 314.41 429.46 314.37 429.27 314.32 429.07 314.27 428.88 314.22 428.68 314.18 428.49 314.13 428.29 314.08 428.1 314.04 427.9 313.99 427.7 313.94 427.51 313.89 427.31 313.85 427.12 313.8 426.92 313.75 426.73 313.71 426.53 313.66 426.36 313.31 426.21 313 425.96 312.5 425.95 312.49 425.79 312.16 425.64 311.85 425.58 311.78 425.51 311.74 425.42 311.71 424.72 311.48 424.19 311.3 423.76 311.16 423.72 311.15 423.67 311.16 423.42 311.25 423.16 311.34 423.08 311.35 423.04 311.34 422.74 311.1 422.7 311.06 422.68 310.97 422.64 310.75 422.6 310.68 422.27 310.49 422.24 310.42 422.23 310.09 422.22 309.74 422.21 309.42 422.18 309.27 422.1 309.11 421.76 308.64 421.49 308.26 421.15 307.79 420.84 307.35 420.79 307.22 420.84 307.1 420.87 307.06 420.91 306.97 420.99 306.89 421.01 306.86 421.02 306.82 421.02 306.77 421.8 306.39 421.84 306.34 421.94 306.03 421.93 305.98 421.91 305.91 421.91 305.82 421.97 305.56 421.96 305.52 421.92 305.49 421.83 305.44 421.8 305.42 421.78 305.37 421.74 305.11 421.55 304.45 421.55 304.41 421.56 304.37 421.6 304.27 421.63 304.12 421.66 304.07 421.75 303.96 421.77 303.92 421.75 303.86 421.72 303.81 421.71 303.76 421.76 303.72 421.83 303.68 421.86 303.63 422.01 303.14 422.02 303.12 422.02 303.02 421.7 302.16 421.67 302.02 421.78 301.14 421.84 300.72 421.83 300.24 421.78 299.85 421.61 299.25 421.43 298.64 421.17 298.15 420.88 297.72 420.77 297.59 420.64 297.43 420.59 297.35 421.1 297.06 421.6 296.8 421.66 296.78 421.82 296.77 421.88 296.74 422.16 296.38 422.39 296.01 422.59 295.78 422.73 295.49 422.76 295.39 422.77 295.3 422.71 295.12 422.7 295.03 422.71 294.93 422.71 294.88 422.64 294.74 422.57 294.47 422.41 294.02 422.4 293.98 422.43 293.81 422.46 293.75 422.6 293.59 422.75 293.33 422.87 293.24 423.11 293.24 423.24 293.19 423.27 293.16 423.31 293.13 423.33 293.09 423.37 293 423.46 292.91 423.49 292.83 423.51 292.62 423.56 292.57 423.6 292.57 423.64 292.6 423.68 292.61 423.73 292.6 423.8 292.54 423.88 292.49 423.95 292.42 424.04 292.21 424.1 292.14 424.79 291.82 425.37 291.54 425.52 291.44 425.55 291.41 425.59 291.37 425.63 291.29 425.63 291.18 425.57 291.08 425.43 290.94 425.38 290.84 425.38 290.69 425.41 290.41 425.4 290.14 425.44 289.96 425.44 289.82 425.44 289.78 425.51 289.53 425.5 289.41 425.5 289.41 425.55 289.42 425.63 289.45 425.66 289.47 425.69 289.54 425.72 289.57 425.79 289.6 426.06 289.64 426.14 289.67 426.1 289.62 425.95 289.58 425.92 289.53 426.02 289.59 426.26 289.67 426.78 290 426.87 290.09 426.96 290.12 427.1 290.21 427.27 290.3 427.37 290.33 428.22 290.41 428.43 290.4 428.98 290.24 429.07 290.2 429.14 290.14 429.18 290.11 429.23 290.11 429.39 290.1 429.6 290.14 429.62 290.15 429.64 290.17 430.08 290.4 430.18 290.43 430.56 290.41 430.66 290.43 430.85 290.48 431.01 290.56 431.42 290.63 431.44 290.63 431.48 290.67 431.5 290.68 431.54 290.7 431.62 290.78 431.74 290.86 431.93 291.02 432.03 291.13 432.07 291.15 432.43 291.21 432.47 291.23 432.5 291.26 432.6 291.31 432.64 291.33 433.05 291.34 433.5 291.42 433.6 291.46 433.65 291.47 433.68 291.48 433.77 291.6 433.85 291.64 433.88 291.67 433.9 291.77 433.92 291.82 433.97 291.92 434.06 292.05 434.07 292.09 434.07 292.14 434.05 292.23 434.04 292.34 434.04 292.4 434.05 292.59 434.07 292.68 434.34 293.37 434.39 293.46 434.63 293.8 434.77 293.96 434.94 294.09 435.57 294.38 436.26 294.5 437.08 294.51 437.55 294.61 438.04 294.78 438.42 294.86 438.49 294.86 438.51 294.87 438.53 294.88 438.61 294.93 438.67 294.99 438.7 295 438.72 295.01 439.04 295.11 439.22 295.19 439.4 295.25 439.56 295.28 439.59 295.31 439.65 295.4 439.69 295.44 439.74 295.46 439.94 295.5 440.29 295.64 440.36 295.68 440.42 295.74 440.62 295.97 441.16 296.37 441.28 296.51 441.35 296.57 441.49 296.65 441.59 296.66 441.63 296.69 441.95 296.9 442.05 296.94 442.24 296.97 442.44 296.97 442.65 296.95 442.76 296.91 442.87 296.88 443.05 296.79 443.29 296.63 443.34 296.61 443.44 296.59 443.48 296.57 443.78 296.34 444.14 295.9 444.24 295.73 444.29 295.65 444.37 295.59 444.41 295.55 444.55 295.25 444.66 294.97 444.67 294.86 444.66 294.53 444.62 294.46 444.56 294.29 444.52 294.22 444.42 294.12 444.38 294.06 444.23 293.64 444.22 293.54 444.22 293.42 444.21 293.38 444.17 293.28 444.16 293.23 444.15 293.13 444.16 293.01 444.19 292.79 444.22 292.69 444.21 292.67 444.2 292.64 444.2 292.61 444.21 292.58 444.24 292.54 444.44 292.12 444.49 292.04 444.91 291.62 444.95 291.56 445.05 291.43 445.1 291.41 445.19 291.37 445.23 291.33 445.26 291.3 445.58 291.05 446.1 290.82 446.4 290.61 446.66 290.48 446.76 290.46 447.19 290.49 447.29 290.48 447.47 290.43 447.56 290.38 447.9 290.07 447.93 290.05 448.04 290.04 448.14 290.02 448.2 290.07 448.3 290.11 448.4 290.13 448.5 290.14 448.98 290.09 448.99 290.08 449.01 290.04 449.03 290.03 449.07 290.02 449.1 290.02 449.12 290.03 449.14 290.05 449.15 290.06 449.15 290.08 449.15 290.11 449.23 290.18 449.31 290.2 449.52 290.2 449.61 290.23 449.82 290.39 449.87 290.42 449.91 290.43 449.95 290.44 450.05 290.45 450.57 290.61 450.69 290.69 450.73 290.7 450.75 290.7 450.83 290.73 450.86 290.74 450.93 290.73 450.98 290.75 451.08 290.8 451.17 290.81 451.22 290.83 451.25 290.86 451.25 290.89 451.24 290.92 451.2 290.97 451.19 290.99 451.21 291.15 451.23 291.19 451.27 291.23 451.31 291.25 451.3 291.3 451.27 291.47 451.22 291.45 451.23 291.43 451.23 291.4 451.21 291.38 451.19 291.36 451.16 291.58 451.16 291.63 451.2 291.66 451.33 291.71 451.38 291.72 451.42 291.74 451.46 291.79 451.5 291.85 451.52 291.93 451.55 291.94 451.59 291.95 451.62 291.97 451.63 292 451.65 292.06 451.68 292.08 451.67 292.03 451.65 291.92 451.69 291.93 451.79 291.93 451.81 291.94 451.87 291.99 451.88 292 452.16 292.03 452.47 292.02 452.85 292.11 453.2 292.26 453.15 292.31 453.14 292.33 453.15 292.34 453.21 292.36 453.35 292.47 453.4 292.49 453.82 292.48 454.41 292.52 454.61 292.46 454.66 292.43 454.69 292.42 454.78 292.43 454.79 292.43 454.81 292.42 454.83 292.41 454.84 292.42 454.85 292.43 454.88 292.45 454.91 292.46 454.96 292.48 455.03 292.49 455.12 292.53 455.38 292.58 455.46 292.63 455.49 292.72 455.47 292.82 455.47 292.88 455.48 292.92 455.56 293.01 455.68 293.18 455.69 293.22 455.72 293.3 455.76 293.37 455.75 293.38 455.75 293.39 455.61 293.5 455.55 293.59 455.47 293.81 455.11 294.11 455.08 294.19 455.08 294.28 455.1 294.5 455.11 294.71 455.16 294.99 455.17 295.04 455.25 295.2 455.28 295.33 455.38 295.53 455.41 295.64 455.39 295.73 455.36 295.81 455.33 295.92 455.31 296.06 455.24 296.23 455.23 296.29 455.21 296.37 455.17 296.46 455.04 296.66 454.97 296.72 454.91 296.8 454.89 296.84 454.85 296.92 454.76 297.09 454.73 297.18 454.73 297.28 454.75 297.33 454.81 297.45 455 297.92 455.01 297.98 455.01 298.03 454.97 298.16 454.98 298.27 455.1 298.46 455.13 298.56 455.13 298.63 455.11 298.81 455.11 298.91 455.14 298.99 455.32 299.44 455.36 299.57 455.38 299.72 455.38 300.03 455.38 300.45 455.38 301.46 455.38 302.44 455.38 302.64 455.38 303.52 455.38 303.61 455.38 303.99 455.38 304.83 455.38 305.05 455.38 305.52 455.38 306 455.38 306.72 455.38 307.43 455.38 308.15 455.38 308.86 455.38 309.57 455.38 310.28 455.38 310.99 455.38 311.7 455.38 312.4 455.38 313.11 455.38 313.81 455.38 314.51 455.38 315.21 455.38 315.9 455.38 316.6 455.38 317.29 455.38 317.59 455.37 317.89 455.37 318.18 455.37 318.48 455.37 318.77 455.37 319.07 455.37 319.36 455.37 319.65 455.37 319.95 455.37 320.24 455.37 320.53 455.37 320.83 455.37 321.05 455.37 321.27 455.37 321.5 455.37 321.72 455.37 321.98 455.37 322 455.37 322 455.37 322 455.37 322.01 455.37 322.01 455.36 322.01 455.36 322.01 455.35 322.01 455.35 322.01 455.12 322.01 454.8 322.01 454.53 322.01 454.25 322.01 453.96 322.01 453.71 322.01 453.52 322.01 453.16 322.01 453.16 322.31 453.16 322.6 453.16 322.89 453.16 323.18 Z" id="Libya" transform="translate(-420.5899963378906,-289.4100036621094) "/></svg>