<svg xmlns="http://www.w3.org/2000/svg" viewBox="0 0 798 1089"><path d="M 728.19 781.72 736.98 791 763.84 793.44 762.37 803.7 792.65 824.71 799 848.65 788.74 911.19 739.42 915.58 715.98 937.08 680.81 930.73 675.93 951.25 690.09 979.1 678.86 992.29 681.79 1003.52 661.28 1020.14 581.19 1053.85 486.93 1068.5 436.14 1090 413.67 1076.81 403.91 1036.26 340.91 1010.36 238.84 1033.82 207.09 1050.43 154.84 1054.82 136.28 1063.13 105.02 1056.78 71.81 1084.14 49.84 1062.15 18.58 1060.69 6.86 1043.59 1 1015.25 7.35 997.17 112.84 962.49 205.63 919.49 231.51 896.53 249.09 861.35 249.09 814.45 225.65 764.13 227.6 735.31 202.7 663 99.65 533.53 68.88 433.38 85 356.67 132.37 289.74 152.4 231.11 246.16 119.72 287.19 43.51 284.74 7.84 292.07 1 330.65 23.47 329.19 41.55 426.86 94.8 464.47 136.82 389.26 225.74 406.84 225.25 406.84 231.6 422.47 223.78 471.3 244.79 505.98 274.59 519.65 298.04 550.91 315.63 532.84 341.53 528.44 362.05 490.84 386.47 499.14 448.52 493.28 460.73 464.95 472.46 451.77 487.12 491.81 490.54 524.53 482.72 609.02 522.78 629.05 542.81 625.63 552.58 650.53 589.71 693.02 598.02 725.74 577.99 738.44 599.97 751.14 605.84 735.02 627.82 746.74 641.99 745.28 670.82 795.58 692.8 747.72 736.77 745.28 759.24 728.19 781.72 Z" transform="translate(-1,-1) "/></svg>