<svg xmlns="http://www.w3.org/2000/svg" viewBox="0 0 13.029998779296875 9.889999389648438"><path d="M 446.53 220.07 446.38 220.03 446.38 220.03 446.55 219.74 446.64 219.51 446.73 219.19 446.76 218.86 446.77 218.8 446.76 218.78 446.77 218.74 446.75 218.66 446.76 218.42 446.74 218.31 446.81 218.4 446.84 218.58 446.85 218.92 446.84 218.97 446.82 219.03 446.82 219.08 446.82 219.22 446.79 219.29 446.76 219.35 446.74 219.41 446.79 219.47 446.79 219.49 446.75 219.53 446.71 219.61 446.68 219.69 446.66 219.77 446.63 219.85 446.53 220 446.53 220.07 Z M 450.47 223.58 450.33 223.35 450.27 223.22 450.26 223.07 450.28 222.77 450.33 222.59 450.34 222.52 450.33 222.48 450.32 222.39 450.32 222.35 450.33 222.33 450.38 222.25 450.38 222.24 450.37 222.22 450.37 222.2 450.37 222.19 450.38 222.18 450.4 222.17 450.42 222.15 450.46 222.13 450.48 222.11 450.51 222.06 450.58 222.01 450.61 221.97 450.64 221.91 450.65 221.84 450.64 221.77 450.61 221.61 450.59 221.56 450.56 221.53 450.43 221.47 450.41 221.44 450.43 221.39 450.4 221.38 450.38 221.35 450.37 221.33 450.35 221.31 450.33 221.3 450.21 221.3 450.17 221.28 450.14 221.24 450.12 221.15 450.08 220.98 450.05 220.9 450.03 220.88 450.02 220.86 449.97 220.83 449.73 220.9 449.36 220.85 449.32 220.85 449.08 220.91 449.05 220.94 449.03 220.98 448.99 221.01 448.94 221.01 448.88 220.99 448.83 220.95 448.81 220.89 448.81 220.82 448.8 220.78 448.77 220.76 448.72 220.77 448.66 220.81 448.64 220.82 448.62 220.81 448.56 220.78 448.49 220.76 448.44 220.73 448.37 220.66 448.21 220.63 448.18 220.6 448.14 220.55 447.98 220.42 447.89 220.38 447.67 220.37 447.59 220.31 447.45 220.07 447.38 220 447.33 220.01 447.14 220.16 447.15 220.14 447.14 220.05 447.14 220.02 447.15 220.01 447.17 220.01 447.18 220.01 447.2 219.97 447.19 219.94 447.18 219.9 447.16 219.86 447.14 219.84 447.13 219.82 447.12 219.78 447.12 219.69 447.1 219.69 446.97 219.81 446.96 219.78 446.96 219.77 446.96 219.77 447.05 219.58 447.07 219.55 447.1 219.5 447.1 219.41 447.07 219.25 447.05 219.14 447.04 219.1 447.03 219.09 447.01 219.07 446.99 219.04 446.98 219 446.98 218.95 446.99 218.92 446.99 218.89 446.98 218.85 446.9 218.63 446.88 218.56 446.88 218.49 446.86 218.45 446.77 218.29 446.75 218.26 446.73 218.25 446.71 218.22 446.7 218.13 446.68 218.05 446.65 217.72 446.65 217.54 446.65 217.5 446.67 217.45 446.68 217.41 446.68 217.07 446.67 216.93 446.75 216.91 446.88 216.91 446.97 216.89 447.01 216.81 447.02 216.7 447.06 216.57 447.11 216.49 447.19 216.4 447.28 216.33 447.34 216.29 447.44 216.29 447.48 216.28 447.79 216.04 447.87 216 448.07 215.99 448.69 215.69 448.73 215.68 448.98 215.56 449.08 215.57 449.12 215.59 449.2 215.65 449.24 215.67 449.9 215.65 450.04 215.68 450.05 215.68 450.11 215.71 450.21 215.82 450.24 215.83 450.28 215.83 450.59 215.7 450.67 215.64 450.74 215.6 450.82 215.58 450.89 215.62 450.94 215.74 451.02 215.93 451.12 216.01 451.23 215.99 451.34 215.87 451.33 215.82 451.37 215.8 451.62 215.74 451.67 215.75 451.82 215.81 452.05 215.91 452.13 215.91 452.26 215.83 452.34 215.81 452.49 215.82 452.55 215.81 452.57 215.82 452.59 215.85 452.59 215.88 452.59 215.9 452.59 215.91 452.66 215.93 452.81 215.89 452.89 215.89 452.91 215.9 453.16 215.98 453.37 216.14 453.44 216.19 453.51 216.2 453.51 216.2 453.57 216.19 453.84 216.05 453.91 216.03 453.98 216.06 454.12 216.17 454.19 216.19 454.27 216.15 454.39 216.08 454.44 216.03 454.62 215.79 454.7 215.72 454.79 215.68 454.99 215.6 455.01 215.59 455.06 215.61 455.08 215.61 455.09 215.57 455.09 215.53 455.1 215.49 455.13 215.46 455.18 215.47 455.22 215.54 455.28 215.71 455.33 215.95 455.36 216.03 455.38 216.07 455.45 216.15 455.47 216.19 455.51 216.32 455.58 216.44 455.66 216.49 456.19 216.59 456.42 216.63 456.58 216.6 456.69 216.65 456.72 216.66 456.86 216.65 456.88 216.66 456.9 216.7 456.94 216.83 456.96 216.87 456.99 216.9 457.12 216.99 457.18 217.06 457.35 217.25 457.55 217.38 457.67 217.47 457.81 217.62 458.03 217.81 458.09 217.9 458.14 218.02 458.25 218.23 458.39 218.34 458.7 218.49 458.82 218.52 458.95 218.53 458.97 218.62 458.98 218.73 458.97 218.83 458.95 218.92 458.91 218.99 458.86 219.05 458.81 219.12 458.8 219.21 458.84 219.3 458.84 219.34 458.76 219.42 458.74 219.46 458.71 219.61 458.7 219.65 458.64 219.74 458.62 219.82 458.63 219.86 458.67 219.88 458.8 219.93 458.84 219.93 458.97 219.9 459.34 219.96 459.39 220 459.41 220.07 459.38 220.13 459.33 220.17 459.27 220.18 459.19 220.21 459.15 220.23 459.09 220.29 459.05 220.34 459.04 220.38 459.02 220.49 459 220.6 458.97 220.66 458.92 220.67 458.68 220.56 458.65 220.56 458.63 220.58 458.62 220.61 458.61 220.62 458.58 220.63 458.57 220.63 458.32 220.56 458.22 220.58 458.15 220.69 458.14 220.74 458.15 220.83 458.14 220.88 458.13 220.91 458.05 221.09 458.01 221.15 457.97 221.21 457.94 221.24 457.86 221.29 457.59 221.34 457.55 221.34 457.47 221.32 457.43 221.32 457.35 221.36 457.32 221.38 457.31 221.41 457.31 221.44 457.29 221.48 457.25 221.54 457.2 221.58 457.15 221.62 457.13 221.7 457.13 221.73 457.15 221.81 457.15 221.84 457.14 221.87 457.13 221.88 457.12 221.88 457.09 221.89 457.05 221.93 457.02 221.97 457.02 222.02 457.02 222.21 457.02 222.25 457.01 222.29 457 222.33 456.99 222.37 456.99 222.42 457 222.49 457.06 222.63 457.07 222.7 457.06 222.78 457.03 222.84 456.98 222.88 456.85 222.96 456.82 223.01 456.79 223.08 456.78 223.18 456.78 223.26 456.77 223.34 456.73 223.42 456.63 223.54 456.59 223.62 456.59 223.72 456.62 223.77 456.67 223.79 456.76 223.78 456.9 223.71 456.93 223.7 456.96 223.72 456.97 223.75 456.98 223.79 457 223.85 457.01 223.87 457.02 223.87 457.05 223.86 457.06 223.86 457.08 223.89 457.1 223.92 457.11 223.95 457.13 223.99 457.14 224 457.15 224.01 457.16 224.02 457.17 224.04 457.16 224.06 457.13 224.09 457.13 224.11 457.13 224.28 457.11 224.34 457.06 224.38 457.03 224.38 456.95 224.37 456.92 224.38 456.89 224.43 456.87 224.45 456.82 224.45 456.62 224.41 456.56 224.38 456.51 224.34 456.49 224.27 456.51 224.24 456.57 224.22 456.59 224.19 456.58 224.16 456.52 224.13 456.53 224.09 456.57 224.07 456.63 224.07 456.64 224.06 456.49 223.84 456.48 223.82 456.46 223.81 456.43 223.8 456.38 223.83 456.29 223.96 456.24 223.99 456.05 224.01 455.91 223.95 455.87 223.96 455.85 224.01 455.8 224.19 455.76 224.27 455.67 224.37 455.58 224.43 455.48 224.45 455.3 224.38 455.2 224.37 455.1 224.38 455.09 224.38 455.02 224.42 455.01 224.45 455.01 224.48 455.01 224.5 455.01 224.52 454.97 224.54 454.95 224.57 454.94 224.57 454.93 224.58 454.94 224.64 454.97 224.72 455 224.78 455.02 224.86 455.02 224.96 455.02 224.96 455.02 224.96 455.02 224.96 454.99 225.02 454.95 225.04 454.8 225.07 454.76 225.06 454.73 225.03 454.7 224.96 454.69 224.95 454.69 224.95 454.68 224.95 454.63 224.99 454.48 225.02 454.37 225.09 454.12 225.31 454.04 225.35 453.96 225.35 453.89 225.33 453.81 225.34 453.77 225.33 453.75 225.29 453.71 225.18 453.65 225.11 453.58 225.08 453.5 225.1 453.37 225.17 453.3 225.19 453.16 225.19 453.12 225.18 453.06 225.14 453.02 225.13 452.99 225.13 452.82 225.23 452.8 225.23 452.78 225.23 452.74 225.2 452.73 225.2 452.69 225.21 452.66 225.24 452.52 225.26 452.41 225.31 452.37 225.31 452.34 225.3 452.14 225.18 452.06 225.16 452.07 225.14 452.07 225.12 452.06 225.1 452.05 225.08 452.03 225.06 452.01 225.03 452 225 452 224.96 452.01 224.94 452.02 224.93 452.05 224.91 452.08 224.85 452.08 224.76 452.05 224.59 452.03 224.51 452.01 224.42 451.98 224.35 451.94 224.29 451.92 224.28 451.87 224.27 451.85 224.25 451.83 224.22 451.79 224.14 451.77 224.11 451.73 224.08 451.68 224.04 451.51 223.97 451.42 223.92 451.28 223.8 451.24 223.78 451.2 223.79 451.15 223.82 451.09 223.82 451.05 223.76 451.05 223.72 451.07 223.68 451.08 223.64 451.06 223.62 450.99 223.61 450.96 223.6 450.95 223.57 450.94 223.54 450.92 223.51 450.9 223.49 450.88 223.48 450.83 223.49 450.8 223.49 450.67 223.42 450.62 223.41 450.57 223.44 450.57 223.45 450.51 223.55 450.47 223.58 Z" fill-rule="evenodd" id="Lithuania" transform="translate(-446.3800048828125,-215.4600067138672) "/></svg>