<svg xmlns="http://www.w3.org/2000/svg" viewBox="0 0 1.739990234375 2.510009765625"><path d="M 413.39 238.79 413.44 238.78 413.46 238.77 413.47 238.75 413.49 238.75 413.52 238.78 413.52 238.81 413.52 238.84 413.53 238.87 413.56 238.89 413.55 238.94 413.53 238.98 413.52 239.08 413.52 239.08 413.54 239.08 413.54 239.08 413.53 239.09 413.51 239.13 413.54 239.15 413.55 239.18 413.57 239.25 413.56 239.29 413.57 239.31 413.61 239.37 413.64 239.47 413.66 239.5 413.68 239.45 413.72 239.51 413.79 239.69 413.83 239.72 413.9 239.76 413.94 239.78 413.95 239.8 413.96 239.82 413.97 239.86 413.97 239.87 413.99 239.87 414.02 239.85 414.04 239.85 414.08 239.87 414.14 239.93 414.18 239.96 414.22 239.97 414.33 239.97 414.39 239.99 414.4 239.99 414.41 240 414.41 240 414.41 240.01 414.41 240.03 414.41 240.04 414.39 240.11 414.39 240.14 414.4 240.15 414.4 240.16 414.38 240.18 414.38 240.21 414.38 240.24 414.39 240.27 414.41 240.29 414.39 240.28 414.38 240.28 414.37 240.3 414.39 240.32 414.39 240.33 414.23 240.43 414.19 240.48 414.2 240.49 414.21 240.5 414.22 240.51 414.23 240.54 414.22 240.55 414.2 240.58 414.18 240.62 414.12 240.69 414.09 240.75 414.08 240.78 414.08 240.89 414.07 240.92 414.06 241.03 414.07 241.14 414.07 241.16 414.02 241.16 413.96 241.13 413.86 241.05 413.85 241.04 413.79 241.02 413.73 241.01 413.6 241.03 413.62 241.06 413.55 241.06 413.54 241.07 413.53 241.09 413.53 241.11 413.52 241.13 413.49 241.14 413.47 241.17 413.44 241.19 413.25 241.2 413.21 241.21 413.18 241.11 413.14 241.07 413 241.04 412.94 241.01 412.91 240.97 412.84 240.88 412.89 240.86 412.94 240.8 412.96 240.75 412.92 240.73 412.95 240.71 412.97 240.67 412.99 240.59 413.01 240.57 413.03 240.55 413.05 240.52 413.03 240.47 413.02 240.46 412.97 240.45 412.96 240.44 412.95 240.42 412.95 240.41 412.96 240.39 412.96 240.37 412.96 240.35 412.98 240.34 412.98 240.33 412.98 240.31 412.98 240.3 412.97 240.28 412.95 240.28 412.94 240.28 412.93 240.28 412.91 240.28 412.88 240.27 412.87 240.25 412.87 240.25 412.86 240.2 412.86 240.18 412.81 240.08 412.79 240.06 412.77 240.04 412.74 240.04 412.72 240.03 412.7 239.99 412.68 239.94 412.68 239.9 412.69 239.87 412.72 239.85 412.69 239.83 412.7 239.82 412.7 239.81 412.71 239.8 412.71 239.78 412.76 239.79 412.74 239.76 412.69 239.72 412.67 239.71 412.68 239.67 412.75 239.54 412.76 239.52 412.77 239.5 412.78 239.48 412.79 239.46 412.81 239.45 412.84 239.44 412.86 239.43 412.88 239.38 412.88 239.36 412.86 239.34 412.86 239.29 412.88 239.27 412.92 239.25 412.94 239.24 412.94 239.21 412.94 239.18 412.94 239.14 412.95 239.12 412.99 239.09 413 239.07 413 239.05 413.01 238.99 413.02 238.97 413.05 238.93 413.14 238.89 413.17 238.86 413.19 238.81 413.2 238.76 413.21 238.73 413.26 238.73 413.3 238.7 413.31 238.71 413.32 238.75 413.33 238.77 413.35 238.78 413.36 238.79 413.39 238.79 Z" id="Luxembourg" transform="translate(-412.6700134277344,-238.6999969482422) "/></svg>