<svg xmlns="http://www.w3.org/2000/svg" viewBox="0 0 5.67999267578125 4.489990234375"><path d="M 449.53 263.87 449.75 264.16 449.83 264.23 449.86 264.31 449.89 264.36 449.9 264.37 449.94 264.42 450.14 264.55 450.16 264.57 450.26 264.62 450.33 264.63 450.34 264.64 450.35 264.66 450.36 264.67 450.37 264.67 450.47 264.67 450.5 264.67 450.51 264.68 450.51 264.7 450.52 264.72 450.54 264.74 450.55 264.74 450.59 264.72 450.6 264.73 450.62 264.74 450.64 264.76 450.64 264.78 450.64 264.78 450.64 264.82 450.64 264.82 450.66 264.85 450.67 264.88 450.67 264.95 450.69 265.02 450.71 265.09 450.71 265.11 450.71 265.16 450.72 265.18 450.72 265.18 450.73 265.19 450.75 265.2 450.76 265.21 450.78 265.25 450.8 265.35 450.85 265.46 450.86 265.48 450.89 265.49 450.94 265.5 450.96 265.51 451 265.57 451 265.64 450.98 265.71 450.95 265.76 450.93 265.79 450.92 265.83 450.91 265.85 450.9 265.85 450.86 265.86 450.85 265.87 450.84 265.91 450.83 265.95 450.83 265.99 450.84 266.03 450.84 266.05 450.86 266.08 450.87 266.1 450.87 266.12 450.86 266.17 450.86 266.21 450.86 266.42 450.87 266.43 450.88 266.46 450.88 266.48 450.88 266.49 450.85 266.52 450.84 266.54 450.85 266.61 450.86 266.67 450.85 266.72 450.8 266.76 450.6 266.75 450.53 266.76 450.5 266.77 450.46 266.8 450.43 266.82 450.41 266.91 450.41 266.92 450.4 267.15 450.38 267.26 450.35 267.32 450.33 267.34 450.3 267.32 450.26 267.29 450.24 267.27 450.23 267.24 450.22 267.23 450.22 267.23 450.2 267.22 450.16 267.23 450.15 267.25 450.16 267.28 450.15 267.3 450.11 267.35 450.07 267.38 450.07 267.38 450.03 267.4 449.98 267.4 449.91 267.39 449.88 267.39 449.83 267.4 449.8 267.41 449.77 267.41 449.7 267.41 449.68 267.4 449.63 267.37 449.61 267.36 449.58 267.36 449.53 267.37 449.48 267.37 449.47 267.38 449.45 267.38 449.45 267.37 449.44 267.33 449.44 267.32 449.42 267.32 449.35 267.31 449.27 267.28 449.24 267.28 449.22 267.27 449.17 267.28 449.12 267.3 449.04 267.38 449 267.39 448.98 267.39 448.91 267.35 448.9 267.34 448.9 267.32 448.89 267.31 448.87 267.3 448.86 267.31 448.84 267.33 448.83 267.34 448.69 267.38 448.62 267.42 448.6 267.44 448.57 267.46 448.55 267.48 448.54 267.51 448.54 267.56 448.54 267.57 448.53 267.59 448.5 267.64 448.42 267.71 448.39 267.77 448.39 267.77 448.39 267.77 448.39 267.77 448.31 267.82 448.29 267.85 448.28 267.88 448.28 267.91 448.27 267.94 448.25 267.97 448.23 267.97 448.18 267.98 448.07 267.96 448.01 267.99 448 268 448 268.04 447.99 268.05 447.98 268.06 447.95 268.05 447.93 268.06 447.91 268.07 447.86 268.13 447.84 268.14 447.78 268.13 447.68 268.04 447.67 268.04 447.5 268.01 447.45 268.01 447.4 268.04 447.31 268.12 447.28 268.14 447.2 268.15 447.13 268.15 447.09 268.15 447.01 268.13 446.96 268.13 446.8 268.17 446.47 268.19 446.47 268.11 446.45 268.05 446.42 268.02 446.31 267.99 446.19 267.97 446.19 267.97 446.14 267.98 446.07 268.04 446.03 268.06 445.98 268.05 445.95 268.03 445.92 268 445.89 267.93 445.85 267.77 445.81 267.57 445.78 267.53 445.76 267.51 445.74 267.51 445.73 267.5 445.71 267.51 445.68 267.5 445.66 267.49 445.61 267.47 445.6 267.43 445.6 267.38 445.59 267.32 445.55 267.25 445.47 267.13 445.44 267.06 445.4 266.9 445.39 266.81 445.39 266.8 445.4 266.75 445.43 266.76 445.46 266.74 445.49 266.7 445.51 266.66 445.53 266.61 445.53 266.57 445.53 266.57 445.52 266.54 445.49 266.5 445.47 266.49 445.44 266.48 445.42 266.47 445.42 266.45 445.41 266.4 445.41 266.38 445.4 266.37 445.38 266.33 445.36 266.31 445.34 266.3 445.32 266.25 445.33 266.18 445.32 266.13 445.43 266.11 445.46 266.1 445.49 266.08 445.51 266.06 445.52 266.03 445.52 266.02 445.52 266 445.47 265.87 445.46 265.8 445.44 265.59 445.45 265.56 445.47 265.52 445.49 265.49 445.54 265.44 445.55 265.41 445.55 265.39 445.55 265.35 445.53 265.28 445.53 265.26 445.53 265.21 445.59 265.18 445.64 265.23 445.67 265.25 445.7 265.24 445.72 265.23 445.75 265.18 445.76 265.18 445.78 265.19 445.82 265.25 445.84 265.26 445.89 265.25 445.92 265.22 445.94 265.2 445.97 265.13 446 265.08 446 265.07 446.01 265.01 446 264.98 445.98 264.89 445.98 264.82 446.01 264.67 446.03 264.61 446.07 264.56 446.13 264.52 446.34 264.45 446.49 264.4 446.56 264.38 446.61 264.35 446.64 264.32 446.71 264.25 446.77 264.22 446.79 264.22 446.8 264.22 446.83 264.24 446.91 264.3 446.99 264.38 447.03 264.44 447.05 264.48 447.06 264.49 447.08 264.51 447.09 264.51 447.19 264.53 447.21 264.53 447.22 264.51 447.22 264.5 447.22 264.44 447.21 264.42 447.21 264.4 447.2 264.38 447.2 264.36 447.33 264.16 447.35 264.15 447.36 264.13 447.4 264.13 447.48 264.16 447.5 264.16 447.5 264.14 447.48 264.11 447.48 264.09 447.52 264.07 447.54 264.07 447.56 264.09 447.59 264.1 447.6 264.09 447.62 264.06 447.66 264.09 447.7 264.09 447.8 264.06 447.8 264.07 447.82 264.08 447.93 264.08 448.01 264.1 448.05 264.1 448.05 264.1 448.08 264.08 448.12 264.04 448.14 264.02 448.36 263.89 448.41 263.88 448.49 263.88 448.51 263.88 448.59 263.81 448.61 263.8 448.64 263.81 448.76 263.87 448.83 263.9 448.87 263.9 448.9 263.9 448.98 263.89 449.28 263.76 449.34 263.7 449.36 263.7 449.37 263.71 449.37 263.76 449.38 263.78 449.41 263.82 449.45 263.85 449.49 263.86 449.53 263.87 Z" id="Macedonia" transform="translate(-445.32000732421875,-263.70001220703125) "/></svg>