<svg xmlns="http://www.w3.org/2000/svg" viewBox="0 0 16.1400146484375 31.860015869140625"><path d="M 510.49 405.1 510.45 405.15 510.43 405.09 510.44 405.03 510.49 404.92 510.5 404.88 510.51 404.85 510.51 404.79 510.52 404.75 510.54 404.72 510.59 404.66 510.74 404.43 510.74 404.39 510.75 404.36 510.75 404.32 510.77 404.29 510.8 404.27 510.89 404.22 510.88 404.28 510.8 404.44 510.74 404.62 510.63 404.86 510.55 404.97 510.49 405.1 Z M 507.12 396.38 507.14 396.43 507.16 396.48 507.16 396.51 507.19 396.52 507.17 396.56 507.15 396.6 507.14 396.63 507.15 396.65 507.18 396.67 507.21 396.69 507.21 396.72 507.2 396.74 507.18 396.75 507.15 396.75 507.13 396.75 507.12 396.75 507.11 396.74 507.11 396.73 507.11 396.72 507.09 396.72 507.06 396.74 506.98 396.72 506.95 396.71 506.92 396.69 506.91 396.69 506.91 396.72 506.9 396.72 506.89 396.72 506.89 396.71 506.88 396.71 506.86 396.68 506.84 396.63 506.83 396.54 506.84 396.49 506.85 396.45 506.85 396.42 506.82 396.41 506.84 396.38 506.87 396.39 506.91 396.41 506.94 396.4 506.95 396.41 506.97 396.42 507 396.42 507.01 396.41 507.02 396.39 507.01 396.38 506.99 396.36 506.98 396.34 506.99 396.3 507 396.27 507.02 396.26 507.07 396.26 507.11 396.27 507.12 396.3 507.12 396.33 507.1 396.37 507.12 396.38 Z M 509.4 393.76 509.39 393.82 509.4 393.89 509.44 393.97 509.44 394.01 509.43 394.01 509.35 393.91 509.33 393.91 509.31 393.93 509.29 393.95 509.28 393.97 509.25 393.96 509.22 393.94 509.21 393.91 509.2 393.88 509.18 393.89 509.16 393.9 509.15 393.93 509.14 393.95 509.17 393.97 509.16 393.99 509.13 394.06 509.16 394.06 509.21 394.07 509.25 394.08 509.26 394.1 509.26 394.11 509.22 394.14 509.22 394.15 509.22 394.17 509.23 394.19 509.24 394.2 509.26 394.18 509.28 394.14 509.3 394.13 509.32 394.15 509.34 394.18 509.34 394.2 509.33 394.21 509.32 394.22 509.35 394.23 509.39 394.23 509.41 394.23 509.43 394.22 509.44 394.18 509.41 394.11 509.42 394.08 509.46 394.06 509.49 394.08 509.55 394.18 509.56 394.2 509.56 394.23 509.57 394.26 509.59 394.3 509.61 394.32 509.63 394.35 509.63 394.4 509.64 394.37 509.66 394.35 509.69 394.34 509.72 394.34 509.75 394.35 509.76 394.36 509.77 394.37 509.81 394.41 509.83 394.44 509.83 394.47 509.81 394.48 509.78 394.47 509.75 394.46 509.73 394.45 509.7 394.48 509.76 394.52 509.79 394.56 509.81 394.56 509.85 394.51 509.92 394.65 509.93 394.69 509.94 394.75 509.93 394.78 509.91 394.78 509.89 394.75 509.88 394.73 509.88 394.66 509.87 394.72 509.9 394.85 509.89 394.9 509.87 394.93 509.87 394.95 509.86 394.97 509.87 395 509.89 395.04 509.91 395.04 509.92 395.02 509.95 395.02 509.98 395.04 510.03 395.08 510.06 395.13 510.08 395.16 510.09 395.19 510.11 395.24 510.11 395.27 510.11 395.3 510.08 395.34 510.07 395.37 510.09 395.36 510.11 395.36 510.13 395.36 510.14 395.37 510.16 395.35 510.17 395.33 510.18 395.31 510.2 395.25 510.21 395.23 510.24 395.22 510.27 395.24 510.26 395.26 510.25 395.27 510.28 395.27 510.31 395.29 510.34 395.31 510.39 395.36 510.4 395.37 510.39 395.43 510.39 395.45 510.42 395.51 510.44 395.54 510.47 395.54 510.5 395.54 510.53 395.54 510.55 395.56 510.56 395.61 510.54 395.62 510.51 395.63 510.51 395.64 510.54 395.68 510.57 395.7 510.6 395.71 510.62 395.73 510.63 395.78 510.64 395.81 510.69 395.87 510.71 395.89 510.71 396.01 510.69 396.19 510.69 396.23 510.7 396.27 510.71 396.31 510.71 396.34 510.77 396.43 510.78 396.47 510.77 396.56 510.78 396.6 510.81 396.62 510.84 396.61 510.86 396.59 510.89 396.6 510.91 396.63 510.9 396.67 510.89 396.75 510.89 396.81 510.92 396.94 510.95 397 510.96 397.01 510.98 397.03 510.99 397.05 511 397.06 510.99 397.1 510.99 397.12 511 397.17 511.01 397.19 511.01 397.19 511.02 397.2 511.03 397.2 511.04 397.2 511.05 397.21 511.06 397.22 511.06 397.23 511.06 397.24 511.07 397.27 511.05 397.34 511.06 397.38 511.08 397.41 511.13 397.51 511.15 397.59 511.17 398.04 511.22 398.21 511.22 398.27 511.22 398.35 511.2 398.42 511.2 398.46 511.19 398.54 511.2 398.59 511.21 398.61 511.27 398.66 511.31 398.73 511.31 398.8 511.28 398.97 511.26 399.04 511.25 399.08 511.26 399.12 511.28 399.22 511.3 399.48 511.36 399.6 511.37 399.68 511.35 399.76 511.3 399.79 511.32 399.81 511.38 399.84 511.4 399.86 511.42 399.89 511.44 399.93 511.46 400.08 511.62 400.43 511.66 400.49 511.77 400.62 511.79 400.66 511.81 400.74 511.83 400.76 511.86 400.78 511.89 400.8 511.92 400.85 511.94 400.93 511.95 401.07 511.95 401.09 511.94 401.12 511.91 401.16 511.91 401.18 511.92 401.19 511.92 401.21 511.92 401.23 511.9 401.29 511.89 401.31 511.9 401.33 511.9 401.35 511.9 401.37 511.9 401.38 511.87 401.41 511.86 401.43 511.84 401.51 511.8 401.62 511.8 401.66 511.79 401.72 511.59 402.1 511.57 402.16 511.59 402.18 511.58 402.21 511.42 402.41 511.37 402.54 511.34 402.57 511.31 402.58 511.27 402.58 511.24 402.58 511.21 402.6 511.16 402.49 511.12 402.45 511.07 402.46 510.96 402.37 510.92 402.32 510.9 402.25 510.89 402.13 510.89 402.11 510.86 402.1 510.83 402.08 510.8 402.05 510.78 402.02 510.77 401.99 510.76 401.96 510.75 401.92 510.75 401.88 510.76 401.84 510.78 401.81 510.78 401.78 510.76 401.75 510.74 401.74 510.73 401.73 510.72 401.73 510.7 401.73 510.69 401.72 510.62 401.64 510.62 401.61 510.63 401.54 510.63 401.49 510.61 401.38 510.62 401.37 510.63 401.35 510.63 401.34 510.61 401.32 510.6 401.31 510.56 401.31 510.5 401.34 510.42 401.35 510.28 401.35 510.21 401.37 510.16 401.42 510.03 401.6 510.03 401.66 510.08 401.79 510.08 401.82 510.08 401.85 510.06 401.91 510.05 401.91 510.07 401.94 510.09 401.97 510.12 402 510.14 402.07 510.17 402.15 510.18 402.26 510.2 402.33 510.24 402.4 510.24 402.42 510.24 402.46 510.22 402.5 510.15 402.62 510.13 402.68 510.13 402.76 510.15 402.84 510.17 402.9 510.23 402.96 510.38 403.01 510.44 403.05 510.49 403.12 510.5 403.19 510.45 403.4 510.45 403.49 510.46 403.57 510.5 403.61 510.52 403.62 510.53 403.66 510.52 403.75 510.51 403.78 510.51 403.8 510.51 403.88 510.5 403.91 510.38 404.11 510.32 404.18 510.22 404.26 510.22 404.37 510.24 404.42 510.27 404.47 510.32 404.51 510.37 404.54 510.42 404.54 510.48 404.54 510.41 404.58 510.34 404.6 510.21 404.62 510.16 404.65 510.05 404.66 510 404.67 509.97 404.7 509.94 404.73 509.79 405.03 509.69 405.32 509.57 405.59 509.55 405.75 509.56 405.79 509.63 405.9 509.73 406.46 509.75 406.61 509.72 406.77 509.64 407.05 509.53 407.4 509.53 407.44 509.53 407.48 509.54 407.51 509.55 407.53 509.58 407.56 509.59 407.57 509.59 407.6 509.58 407.61 509.56 407.62 509.54 407.64 509.47 407.77 509.41 408.23 509.4 408.26 509.36 408.31 509.34 408.34 509.29 408.5 509.16 408.77 509.04 409.2 508.87 409.6 508.79 409.72 508.59 410.45 508.31 411.16 508.23 411.53 508.22 411.59 508.23 411.67 508.15 411.89 508.14 411.86 508.11 411.82 508.08 411.8 508.06 411.82 508.07 411.85 508.13 411.92 508.14 411.96 508.13 411.99 507.95 412.37 507.82 412.71 507.77 412.89 507.65 413.26 507.43 414.09 507.4 414.13 507.37 414.17 507.35 414.21 507.36 414.24 507.39 414.21 507.41 414.22 507.41 414.25 507.41 414.29 507.4 414.32 507.36 414.39 507.35 414.43 507.34 414.51 507.32 414.59 507.24 414.78 507.23 414.82 507.23 414.89 507.19 415.09 507.16 415.18 507.13 415.23 506.85 416.14 506.57 416.79 506.28 417.45 506.25 417.61 506.18 417.77 506.09 418.4 506.04 418.54 506.03 418.77 505.96 419.04 505.87 419.27 505.82 419.62 505.56 420.42 505.53 420.39 505.52 420.36 505.51 420.36 505.48 420.39 505.46 420.44 505.47 420.46 505.51 420.46 505.55 420.48 505.56 420.54 505.44 421.05 505.32 421.38 505.28 421.45 505.27 421.46 505.23 421.49 505.22 421.5 505.22 421.5 505.19 421.5 505.19 421.51 505.18 421.52 505.18 421.52 505.19 421.53 505.19 421.55 505.19 421.55 505.18 421.61 505.14 421.69 505.13 421.71 505.01 422.06 504.99 422.08 504.96 422.07 504.91 422.05 504.9 422.06 504.93 422.19 504.88 422.58 504.69 423.05 504.63 423.14 504.63 423.18 504.63 423.25 504.61 423.29 504.5 423.38 504.47 423.45 504.49 423.61 504.46 423.67 504.44 423.64 504.43 423.61 504.42 423.57 504.42 423.54 504.4 423.57 504.4 423.61 504.4 423.64 504.4 423.69 504.39 423.73 504.38 423.75 504.31 423.78 504.27 423.8 504.21 423.86 504.11 423.99 504.08 424 504.08 423.99 504.05 423.94 504.03 423.93 504.02 423.94 504.02 423.94 503.89 424.04 503.84 424.08 503.82 424.1 503.75 424.13 503.73 424.14 503.7 424.18 503.67 424.2 503.66 424.2 503.63 424.19 503.61 424.19 503.59 424.22 503.57 424.24 503.42 424.28 503.38 424.28 503.31 424.25 503.08 424.22 502.82 424.23 502.49 424.31 502.05 424.51 501.78 424.65 501.47 424.82 501.24 425.03 501.2 425.07 501.16 425.08 501.11 425.09 500.99 425.19 500.84 425.23 500.21 425.26 500.18 425.26 500.14 425.28 500.11 425.29 500.07 425.28 500.05 425.25 500.03 425.16 500.01 425.12 499.94 425.07 499.71 424.98 499.64 424.93 499.61 424.9 499.59 424.82 499.55 424.79 499.38 424.67 499.23 424.6 499.15 424.57 498.91 424.54 498.68 424.52 498.35 424.46 498.31 424.43 498.28 424.34 498.21 424.26 498.19 424.2 498.23 424.22 498.27 424.26 498.34 424.34 498.38 424.37 498.42 424.37 498.44 424.34 498.43 424.29 498.4 424.3 498.37 424.28 498.31 424.22 498.27 424.2 498.24 424.18 498.2 424.17 498.16 424.17 498.08 424.14 497.95 423.99 497.87 423.95 497.8 423.95 497.77 423.95 497.6 423.83 497.57 423.77 497.56 423.58 497.54 423.5 497.37 423.28 497.35 423.2 497.37 422.99 497.35 422.91 497.33 422.86 497.24 422.76 497.22 422.75 497.21 422.74 497.2 422.72 497.19 422.7 497.19 422.65 497.18 422.63 497.1 422.57 496.95 422.46 496.88 422.39 496.81 422.22 496.77 421.86 496.8 421.44 496.76 421.21 496.77 421.18 496.79 421.14 496.79 421.12 496.79 421.09 496.76 421.02 496.74 420.92 496.73 420.88 496.7 420.84 496.73 420.79 496.73 420.62 496.74 420.54 496.79 420.49 496.94 420.43 496.98 420.37 496.97 420.33 496.94 420.27 496.95 420.23 496.98 420.19 496.99 420.18 497 420.14 497 420.12 497 420.09 496.97 420.06 496.91 420.01 496.87 419.95 496.78 419.86 496.76 419.86 496.75 419.85 496.73 419.85 496.72 419.83 496.71 419.82 496.7 419.77 496.68 419.68 496.67 419.47 496.64 419.29 496.61 419.19 496.55 419.12 496.4 419.01 496.37 418.98 496.34 418.9 496.31 418.87 496.26 418.84 496.19 418.76 496.14 418.68 496.12 418.63 496.11 418.6 496.1 418.5 496.07 418.44 496.06 418.31 496.03 418.24 496.02 418.16 496.01 418.14 495.98 418.1 495.96 418.08 495.95 418.02 495.95 417.96 495.96 417.85 495.93 417.64 495.9 417.52 495.85 417.41 495.85 417.39 495.85 417.36 495.85 417.34 495.84 417.28 495.81 417.23 495.82 417.18 495.86 417.14 495.92 417.14 495.97 417.18 495.99 417.14 495.98 417.1 495.97 417.06 495.97 417.02 495.9 417.02 495.86 416.92 495.86 416.71 495.87 416.68 495.89 416.63 495.9 416.61 495.9 416.55 495.9 416.53 495.91 416.52 495.92 416.51 495.93 416.49 495.93 416.49 495.94 416.49 495.95 416.48 495.96 416.48 495.94 416.41 495.94 416.38 495.95 416.35 495.97 416.32 495.99 416.3 496.01 416.33 496.02 416.37 496 416.46 496.05 416.4 496.06 416.29 496.05 416.16 496.06 416.07 496.09 416.03 496.24 415.85 496.27 415.82 496.32 415.81 496.36 415.84 496.36 415.21 496.38 415.15 496.43 415.04 496.44 414.99 496.46 415.03 496.48 415.03 496.52 414.99 496.58 414.95 496.61 414.91 496.62 414.9 496.74 414.91 496.82 414.88 496.87 414.89 496.9 414.91 496.95 414.92 497 414.9 497.06 414.85 497.12 414.78 497.14 414.73 497.15 414.66 497.23 414.43 497.32 413.98 497.45 413.71 497.5 413.66 497.57 413.64 497.61 413.61 497.73 413.38 497.76 413.29 497.78 413.18 497.81 413.07 497.87 413 497.87 413.02 497.87 413.03 497.88 413.06 497.94 412.93 497.97 412.89 498.07 412.82 498.1 412.79 498.09 412.71 498.11 412.62 498.27 412.3 498.32 412.23 498.45 412.1 498.51 412.03 498.55 411.96 498.58 411.87 498.6 411.8 498.6 411.7 498.58 411.62 498.54 411.61 498.52 411.55 498.51 411.53 498.49 411.52 498.46 411.52 498.45 411.52 498.42 411.49 498.39 411.45 498.36 411.41 498.36 411.37 498.36 411.34 498.41 411.26 498.42 411.24 498.44 411.2 498.45 411.16 498.45 411.08 498.44 411.06 498.43 411.04 498.43 411.02 498.43 410.99 498.44 410.98 498.48 410.96 498.49 410.94 498.5 410.9 498.51 410.86 498.53 410.84 498.58 410.83 498.61 410.79 498.6 410.7 498.55 410.54 498.52 410.47 498.48 410.4 498.37 410.3 498.36 410.27 498.34 410.19 498.3 410.12 498.09 409.85 498.05 409.77 498.04 409.69 498.05 409.56 498.08 409.48 498.08 409.34 498.08 409.34 498.07 409.32 498.07 409.31 498.07 409.29 498.09 409.28 498.1 409.26 498.11 409.21 498.11 409.18 498.1 409.11 498.05 408.95 497.95 408.66 497.79 408.44 497.64 408.23 497.63 408.16 497.63 407.7 497.54 407.25 497.54 407.1 497.6 406.81 497.61 406.71 497.6 406.68 497.55 406.63 497.52 406.52 497.38 406.32 497.36 406.27 497.36 406.2 497.38 406.05 497.41 405.99 497.52 405.8 497.56 405.7 497.57 405.7 497.6 405.71 497.61 405.69 497.63 405.63 497.8 405.36 497.84 405.33 497.86 405.29 497.86 405.26 497.87 405.15 497.93 405.15 497.99 405.07 498.06 404.87 498.08 404.84 498.14 404.78 498.15 404.76 498.17 404.71 498.18 404.69 498.22 404.65 498.25 404.6 498.29 404.51 498.35 404.42 498.42 404.34 498.49 404.25 498.51 404.14 498.5 404.1 498.46 404 498.45 403.95 498.46 403.9 498.48 403.87 498.51 403.88 498.51 403.94 498.54 403.88 498.56 403.82 498.56 403.75 498.54 403.69 498.46 403.56 498.42 403.49 498.42 403.42 498.43 403.39 498.44 403.36 498.46 403.33 498.48 403.3 498.5 403.28 498.51 403.25 498.51 403.12 498.52 403.09 498.54 403.07 498.57 403.06 498.65 403.06 498.72 403.04 499.21 403.09 499.27 403.08 499.29 403.08 499.35 403.12 499.39 403.14 499.43 403.15 499.46 403.14 499.48 403.12 499.49 403.1 499.51 403.08 499.54 403.06 499.57 403.05 499.63 403.04 499.66 403.03 499.65 403.01 499.77 402.95 499.84 402.91 499.88 402.85 499.96 402.73 500.01 402.66 500.06 402.62 500.12 402.58 500.25 402.52 500.34 402.46 500.36 402.48 500.36 402.51 500.36 402.58 500.4 402.71 500.41 402.72 500.41 402.74 500.41 402.76 500.39 402.81 500.39 402.85 500.39 402.88 500.41 402.89 500.45 402.9 500.48 402.89 500.5 402.87 500.52 402.84 500.54 402.81 500.62 402.79 500.65 402.76 500.67 402.73 500.66 402.71 500.62 402.69 500.59 402.66 500.57 402.63 500.57 402.6 500.59 402.58 500.95 402.54 500.97 402.53 500.98 402.53 501.01 402.51 501.03 402.57 501.05 402.6 501.06 402.6 501.06 402.61 501.06 402.64 501.04 402.71 501.04 402.73 501.08 402.71 501.09 402.76 501.11 402.75 501.13 402.71 501.11 402.59 501.11 402.57 501.15 402.53 501.17 402.51 501.16 402.5 501.17 402.44 501.17 402.42 501.18 402.41 501.18 402.39 501.18 402.37 501.16 402.34 501.14 402.32 501.13 402.3 501.14 402.27 501.22 402.19 501.29 402.14 501.31 402.14 501.35 402.15 501.38 402.16 501.42 402.16 501.45 402.17 501.53 402.22 501.58 402.21 501.71 402.13 501.74 402.12 501.77 402.12 501.8 402.11 501.85 402.12 501.87 402.14 501.87 402.22 501.87 402.25 501.88 402.27 501.89 402.28 501.93 402.29 501.94 402.29 501.98 402.29 502 402.29 502.06 402.32 502.11 402.32 502.11 402.31 502.09 402.28 502.08 402.24 502.09 402.22 502.11 402.2 502.12 402.17 502.12 402.13 502.07 402.16 502.02 402.2 501.99 402.21 502 402.16 502.03 402.11 502.08 402.06 502.13 402.02 502.18 401.99 502.23 401.97 502.29 401.96 502.4 401.96 502.45 401.97 502.48 401.98 502.49 401.99 502.49 402.02 502.49 402.04 502.5 402.06 502.52 402.08 502.49 402.13 502.48 402.16 502.47 402.19 502.43 402.22 502.47 402.26 502.51 402.3 502.54 402.34 502.62 402.5 502.65 402.55 502.7 402.59 502.7 402.56 502.7 402.53 502.7 402.51 502.72 402.49 502.73 402.5 502.76 402.54 502.78 402.55 502.82 402.54 502.84 402.5 502.84 402.46 502.82 402.41 502.88 402.41 502.92 402.45 502.96 402.5 503.01 402.54 503.03 402.52 503 402.46 502.95 402.37 502.91 402.35 502.82 402.26 502.76 402.24 502.69 402.24 502.67 402.24 502.63 402.22 502.63 402.2 502.66 402.19 502.69 402.16 502.75 402.07 502.76 402.03 502.73 401.99 502.71 401.99 502.68 401.99 502.65 401.99 502.64 401.97 502.65 401.94 502.68 401.88 502.7 401.79 502.75 401.75 502.84 401.67 502.98 401.51 503.04 401.47 503.04 401.49 503.04 401.5 503.05 401.51 503.05 401.52 503.07 401.51 503.13 401.45 503.23 401.38 503.26 401.36 503.31 401.32 503.37 401.32 503.42 401.32 503.48 401.3 503.45 401.28 503.38 401.26 503.37 401.24 503.39 401.22 503.52 401.18 503.75 401.02 503.92 400.87 504.01 400.84 504.07 400.81 504.11 400.8 504.12 400.81 504.13 400.82 504.13 400.84 504.13 400.9 504.13 400.92 504.16 400.97 504.18 401 504.2 401.02 504.24 401.04 504.31 401.07 504.35 401.09 504.35 401.12 504.33 401.15 504.29 401.21 504.27 401.23 504.23 401.25 504.21 401.28 504.11 401.48 504.08 401.55 504.09 401.61 504.11 401.61 504.13 401.58 504.15 401.51 504.18 401.48 504.22 401.47 504.3 401.46 504.37 401.43 504.44 401.39 504.51 401.37 504.58 401.4 504.66 401.37 504.7 401.34 504.71 401.3 504.7 401.29 504.68 401.28 504.66 401.28 504.64 401.28 504.63 401.27 504.62 401.26 504.58 401.19 504.55 401.04 504.55 401.03 504.54 401.02 504.52 401.02 504.5 401.02 504.43 401.05 504.43 401.02 504.43 401 504.45 400.94 504.42 400.95 504.39 400.94 504.38 400.93 504.36 400.89 504.33 400.87 504.31 400.85 504.31 400.79 504.33 400.75 504.39 400.66 504.46 400.6 504.56 400.53 504.64 400.46 504.69 400.32 504.72 400.28 504.83 400.18 504.88 400.15 504.93 400.13 504.98 400.13 505.01 400.1 505.01 400.05 505 400 504.96 400 504.94 400.02 504.93 400.05 504.9 400.07 504.87 400.07 504.85 400.06 504.81 400 504.83 400 504.89 399.9 505.17 399.61 505.2 399.58 505.21 399.59 505.22 399.62 505.24 399.64 505.28 399.7 505.29 399.72 505.28 399.86 505.28 399.89 505.29 399.9 505.31 399.91 505.32 399.92 505.33 399.94 505.32 399.95 505.3 400 505.17 400.15 505.14 400.21 505.12 400.27 505.09 400.55 505.1 400.58 505.13 400.6 505.16 400.59 505.23 400.55 505.25 400.54 505.29 400.47 505.31 400.41 505.34 400.35 505.41 400.3 505.43 400.32 505.44 400.3 505.44 400.24 505.45 400.2 505.61 399.9 505.62 399.83 505.63 399.8 505.7 399.73 505.71 399.71 505.71 399.67 505.71 399.65 505.73 399.64 505.77 399.62 505.78 399.61 505.83 399.56 505.85 399.52 505.86 399.49 505.88 399.46 505.91 399.44 505.94 399.41 505.95 399.37 506.04 399.5 506.09 399.54 506.12 399.55 506.19 399.57 506.21 399.58 506.22 399.61 506.22 399.66 506.22 399.69 506.26 399.66 506.26 399.61 506.24 399.56 506.21 399.54 506.27 399.49 506.33 399.49 506.37 399.54 506.39 399.61 506.39 399.77 506.4 399.81 506.44 399.75 506.45 399.69 506.45 399.59 506.43 399.51 506.38 399.47 506.35 399.46 506.33 399.44 506.28 399.39 506.24 399.37 506.2 399.37 506.13 399.41 506.1 399.42 506.08 399.43 506.05 399.42 506.01 399.4 505.99 399.36 505.98 399.33 505.97 399.32 505.9 399.4 505.87 399.43 505.85 399.44 505.84 399.43 505.79 399.34 505.78 399.32 505.79 399.31 505.81 399.29 505.81 399.27 505.81 399.25 505.8 399.24 505.79 399.23 505.75 399.15 505.75 399.13 505.76 399.13 505.77 399.12 505.74 399.1 505.74 399.09 505.74 398.99 505.76 398.92 505.78 398.85 505.83 398.79 505.88 398.76 505.9 398.74 505.9 398.7 505.91 398.63 505.92 398.61 505.94 398.59 505.99 398.57 506.09 398.64 506.16 398.64 506.19 398.63 506.24 398.64 506.26 398.63 506.27 398.61 506.29 398.57 506.3 398.53 506.3 398.5 506.29 398.45 506.27 398.39 506.24 398.33 506.19 398.31 506.22 398.27 506.27 398.29 506.36 398.35 506.38 398.36 506.4 398.37 506.42 398.38 506.43 398.4 506.43 398.43 506.42 398.45 506.4 398.47 506.39 398.5 506.38 398.56 506.35 398.67 506.35 398.73 506.34 398.75 506.35 398.79 506.36 398.82 506.39 398.82 506.41 398.8 506.41 398.77 506.4 398.75 506.41 398.73 506.42 398.71 506.45 398.69 506.48 398.67 506.48 398.66 506.46 398.63 506.44 398.61 506.43 398.58 506.42 398.55 506.44 398.5 506.5 398.42 506.51 398.37 506.51 398.32 506.51 398.27 506.49 398.23 506.4 398.2 506.35 398.17 506.27 398.09 506.44 398 506.44 397.97 506.33 397.9 506.24 397.87 506.22 397.85 506.16 397.74 506.12 397.59 506.14 397.46 506.24 397.42 506.22 397.38 506.19 397.37 506.17 397.35 506.16 397.29 506.17 397.25 506.19 397.18 506.22 397.13 506.26 397.15 506.3 397.15 506.31 397.09 506.32 396.99 506.34 396.98 506.37 396.96 506.39 396.96 506.41 396.99 506.4 397 506.38 397.02 506.36 397.04 506.38 397.08 506.39 397.07 506.41 397.07 506.42 397.06 506.41 397.09 506.42 397.12 506.43 397.13 506.46 397.12 506.47 397.1 506.47 397.08 506.48 397.06 506.51 397.05 506.47 397 506.47 396.98 506.55 396.99 506.59 397.01 506.6 397.07 506.61 397.13 506.62 397.17 506.68 397.14 506.72 397.16 506.73 397.21 506.74 397.26 506.78 397.37 506.79 397.4 506.79 397.42 506.79 397.44 506.8 397.45 506.83 397.46 506.82 397.48 506.8 397.5 506.83 397.55 506.88 397.59 506.95 397.63 507 397.64 507.06 397.62 507.13 397.58 507.16 397.52 507.12 397.47 507.13 397.43 507.14 397.31 507.15 397.27 507.19 397.2 507.2 397.17 507.15 397.09 507.14 397.05 507.18 397.03 507.21 397.04 507.27 397.14 507.28 397.1 507.3 397.06 507.33 397.02 507.35 397 507.38 396.99 507.42 396.98 507.46 396.98 507.49 396.99 507.49 396.97 507.49 396.95 507.49 396.94 507.54 396.98 507.56 397 507.58 396.99 507.58 396.97 507.54 396.89 507.52 396.83 507.48 396.78 507.47 396.75 507.46 396.72 507.46 396.69 507.47 396.63 507.5 396.64 507.52 396.66 507.54 396.68 507.56 396.71 507.56 396.74 507.6 396.77 507.72 396.82 507.74 396.82 507.76 396.82 507.79 396.81 507.82 396.8 507.85 396.8 507.87 396.81 507.9 396.82 507.98 396.79 508.06 396.75 508.13 396.68 508.18 396.61 508.15 396.57 508.18 396.5 508.26 396.4 508.25 396.38 508.22 396.32 508.21 396.29 508.21 396.21 508.22 396.18 508.27 396 508.3 395.93 508.36 395.85 508.38 395.82 508.39 395.78 508.4 395.75 508.41 395.73 508.43 395.69 508.46 395.66 508.49 395.65 508.48 395.6 508.51 395.45 508.52 395.39 508.5 395.36 508.46 395.31 508.44 395.28 508.43 395.25 508.42 395.22 508.41 395.12 508.4 395.1 508.37 395.05 508.35 395.04 508.34 395.04 508.33 395.04 508.32 395.02 508.32 395 508.33 394.98 508.34 394.97 508.35 394.96 508.35 394.94 508.34 394.91 508.34 394.89 508.36 394.84 508.37 394.83 508.35 394.81 508.32 394.8 508.29 394.81 508.26 394.83 508.26 394.77 508.24 394.73 508.17 394.66 508.13 394.57 508.12 394.54 508.11 394.58 508.02 394.54 508.04 394.52 508.08 394.46 508.11 394.45 508.14 394.47 508.16 394.47 508.21 394.48 508.29 394.49 508.34 394.53 508.4 394.66 508.43 394.67 508.46 394.66 508.5 394.64 508.52 394.62 508.53 394.58 508.53 394.46 508.54 394.45 508.56 394.4 508.56 394.39 508.56 394.36 508.56 394.34 508.58 394.31 508.61 394.29 508.64 394.28 508.67 394.29 508.68 394.25 508.71 394.23 508.74 394.22 508.76 394.18 508.79 394.22 508.82 394.19 508.85 394.14 508.88 394.11 508.92 394.14 508.95 394.12 508.98 394.09 508.99 394.05 508.99 394.03 508.98 394.01 508.97 393.99 508.97 393.97 508.99 393.94 509 393.93 509.02 393.92 509.04 393.91 509.06 393.9 509.06 393.89 509.05 393.86 509.03 393.84 509.02 393.83 509 393.84 508.97 393.83 508.96 393.82 508.96 393.81 508.95 393.79 508.93 393.78 508.9 393.78 508.82 393.78 508.85 393.74 508.94 393.71 508.97 393.67 509.01 393.7 509.08 393.8 509.1 393.78 509.11 393.8 509.11 393.75 509.1 393.71 509.06 393.67 509.02 393.66 509.03 393.64 509.04 393.62 509.06 393.61 509.07 393.6 509.09 393.59 509.1 393.58 509.09 393.57 509.09 393.56 509.08 393.54 509.09 393.53 509.15 393.46 509.19 393.43 509.23 393.44 509.26 393.46 509.32 393.53 509.33 393.56 509.33 393.62 509.35 393.65 509.39 393.71 509.4 393.76 Z" fill-rule="evenodd" id="Madagascar" transform="translate(-495.80999755859375,-393.42999267578125) "/></svg>