<svg xmlns="http://www.w3.org/2000/svg" viewBox="0 0 43.52001953125 14.3599853515625"><path d="M 646.96 361.7 646.97 361.72 646.96 361.73 646.94 361.72 646.92 361.71 646.9 361.72 646.88 361.74 646.87 361.76 646.85 361.73 646.81 361.64 646.79 361.62 646.74 361.6 646.73 361.55 646.75 361.46 646.75 361.37 646.71 361 646.72 360.89 646.75 360.82 646.83 360.85 646.87 360.92 646.89 361.01 646.9 361.4 646.92 361.56 646.96 361.69 646.96 361.7 Z M 630.96 360.99 630.91 360.99 630.88 360.98 630.84 360.93 630.82 360.91 630.82 360.89 630.82 360.88 630.81 360.84 630.81 360.82 630.83 360.81 630.85 360.79 630.87 360.78 630.89 360.75 630.89 360.72 630.88 360.68 630.87 360.65 630.88 360.62 630.89 360.6 630.91 360.59 630.94 360.59 630.95 360.6 630.95 360.61 630.95 360.64 630.96 360.65 630.99 360.7 631 360.73 631.03 360.82 631.03 360.93 631.03 360.95 631 360.97 630.96 360.99 Z M 624.46 360.28 624.42 360.29 624.41 360.27 624.43 360.24 624.47 360.22 624.48 360.24 624.48 360.27 624.46 360.28 Z M 624.49 360.42 624.48 360.42 624.47 360.41 624.48 360.39 624.53 360.25 624.56 360.21 624.6 360.19 624.63 360.2 624.63 360.23 624.63 360.25 624.63 360.28 624.63 360.33 624.6 360.36 624.55 360.37 624.52 360.39 624.51 360.41 624.49 360.42 Z M 661.36 357.8 661.24 357.79 661.09 357.79 660.99 357.79 660.91 357.78 660.9 357.77 660.78 357.67 660.77 357.64 660.79 357.61 660.83 357.58 660.87 357.56 660.91 357.55 660.95 357.55 661.03 357.58 661.07 357.59 661.09 357.6 661.11 357.62 661.14 357.67 661.16 357.69 661.18 357.7 661.2 357.71 661.23 357.71 661.34 357.74 661.35 357.76 661.35 357.76 661.36 357.8 Z M 663.08 357.18 663.06 357.18 663.05 357.17 663.05 357.16 663.05 357.12 663.04 357.11 663.01 357.08 663 357.07 662.99 357.05 663 357.04 663.03 357.04 663.03 357.04 663.06 357.04 663.18 357.06 663.23 357.07 663.25 357.1 663.24 357.13 663.19 357.15 663.11 357.15 663.08 357.18 Z M 662.66 356.68 662.7 356.71 662.73 356.67 662.78 356.67 662.85 356.7 662.9 356.72 662.9 356.74 662.86 356.74 662.84 356.76 662.83 356.78 662.84 356.82 662.79 356.78 662.78 356.77 662.77 356.78 662.76 356.8 662.75 356.81 662.74 356.81 662.7 356.78 662.67 356.76 662.63 356.76 662.6 356.75 662.59 356.75 662.57 356.73 662.56 356.72 662.49 356.71 662.33 356.66 662.33 356.65 662.51 356.65 662.53 356.64 662.55 356.63 662.56 356.61 662.58 356.6 662.62 356.61 662.64 356.64 662.66 356.68 Z M 655.49 355.29 655.45 355.33 655.43 355.33 655.39 355.3 655.37 355.31 655.33 355.34 655.27 355.38 655.27 355.34 655.34 355.17 655.35 355.15 655.42 355.09 655.45 355.08 655.47 355.13 655.49 355.24 655.49 355.29 Z M 622.35 354.94 622.37 354.97 622.41 354.99 622.43 355.01 622.39 355.09 622.38 355.17 622.37 355.21 622.31 355.31 622.31 355.35 622.19 355.33 622.1 355.33 622.1 355.34 622.09 355.34 622.09 355.35 622.08 355.34 622.07 355.33 622.06 355.32 622.09 355.3 622.1 355.27 622.09 355.16 622.09 355.05 622.09 355.03 622.08 355.01 622.07 355 622.06 354.99 622.07 354.97 622.08 354.95 622.08 354.94 622.06 354.92 622.09 354.91 622.1 354.92 622.11 354.94 622.13 354.95 622.15 354.95 622.16 354.93 622.17 354.92 622.19 354.91 622.23 354.9 622.27 354.9 622.32 354.91 622.35 354.94 Z M 662 354.12 661.99 354.12 661.97 354.12 661.95 354.11 661.93 354.1 661.93 354.09 661.94 354.07 661.97 354.05 661.99 354.04 662.05 354.04 662.08 354.05 662.09 354.07 662.08 354.09 662.05 354.1 662.04 354.11 662 354.12 Z M 621.26 353.33 621.24 353.34 621.2 353.31 621.19 353.28 621.17 353.27 621.15 353.23 621.19 353.19 621.22 353.12 621.28 353.1 621.31 353.07 621.31 353.11 621.29 353.13 621.28 353.15 621.28 353.18 621.27 353.19 621.28 353.23 621.29 353.27 621.28 353.3 621.26 353.33 Z M 621.37 352.77 621.4 352.79 621.44 352.81 621.44 352.83 621.46 352.84 621.47 352.86 621.47 352.89 621.45 352.92 621.47 352.95 621.48 352.97 621.48 352.99 621.46 353 621.43 353.01 621.41 353.03 621.38 353.05 621.37 353.08 621.33 353.06 621.32 353 621.28 353.01 621.24 353.02 621.21 353.06 621.17 353.1 621.14 353.1 621.11 353.12 621.08 353.14 621.07 353.14 621.04 353.04 621.05 353 621.04 352.94 621.01 352.93 620.95 352.92 620.91 352.92 620.89 352.89 620.88 352.85 620.88 352.76 620.93 352.78 620.98 352.76 621.05 352.76 621.08 352.78 621.16 352.79 621.19 352.79 621.23 352.76 621.26 352.72 621.28 352.72 621.31 352.72 621.3 352.7 621.3 352.68 621.32 352.68 621.34 352.69 621.35 352.74 621.37 352.77 Z M 626.26 353.15 626.32 353.19 626.44 353.27 626.46 353.29 626.51 353.27 626.52 353.25 626.51 353.23 626.47 353.24 626.49 353.21 626.54 353.21 626.8 353.3 626.85 353.33 626.94 353.43 627.21 353.95 627.25 354.01 627.3 354.04 627.32 354.06 627.44 354.13 627.49 354.17 627.53 354.23 627.56 354.3 627.58 354.33 627.64 354.36 628.04 354.67 628.14 354.72 628.23 354.74 628.26 354.76 628.38 354.86 628.58 355.09 628.81 355.45 628.89 355.63 629.11 356 629.24 356.24 629.25 356.28 629.26 356.29 629.3 356.34 629.31 356.36 629.31 356.39 629.29 356.45 629.3 356.5 629.32 356.59 629.36 356.93 629.35 356.98 629.33 357.02 629.32 357.06 629.34 357.16 629.34 357.19 629.41 357.4 629.42 357.47 629.41 357.49 629.38 357.57 629.36 357.59 629.35 357.61 629.32 357.64 629.31 357.66 629.31 357.68 629.32 357.74 629.31 357.76 629.3 357.77 629.29 357.77 629.28 357.78 629.26 357.79 629.21 357.85 629.19 357.89 629.19 357.92 629.21 357.99 629.29 358.2 629.28 358.25 629.23 358.22 629.19 358.29 629.17 358.38 629.16 358.46 629.16 358.54 629.16 358.58 629.12 358.58 629.09 358.61 629.08 358.64 629.07 358.68 629.07 358.72 629.08 358.76 629.17 358.94 629.17 358.97 629.21 359.02 629.29 359.1 629.34 359.17 629.31 359.23 629.39 359.22 629.28 359.45 629.27 359.54 629.3 359.81 629.32 359.85 629.33 359.9 629.28 360.43 629.29 360.52 629.37 360.68 629.47 360.81 629.73 361.07 629.74 361.07 629.76 361.08 629.8 361.09 629.84 361.09 629.85 361.1 629.88 361.13 629.9 361.14 629.93 361.13 629.98 361.11 630.01 361.12 630.02 361.14 630.01 361.15 630.02 361.18 630.09 361.24 630.12 361.27 630.18 361.39 630.16 361.44 630.16 361.49 630.17 361.53 630.34 361.73 630.36 361.75 630.4 361.79 630.42 361.8 630.43 361.82 630.43 361.87 630.44 361.89 630.45 361.92 630.49 361.96 630.5 361.99 630.49 362.01 630.47 362.06 630.47 362.08 630.48 362.13 630.58 362.25 630.64 362.39 630.68 362.45 630.71 362.5 630.72 362.53 630.77 362.58 630.78 362.6 630.8 362.65 630.8 362.69 630.8 362.79 630.81 362.83 630.83 362.88 630.86 362.91 630.89 362.89 630.9 362.89 630.97 362.99 630.99 363.09 631.03 363.15 631.04 363.18 631.04 363.26 631.06 363.29 631.08 363.32 631.1 363.35 631.09 363.37 631.1 363.4 631.12 363.49 631.16 363.61 631.18 363.71 631.19 363.77 631.17 363.79 631.15 363.81 631.16 363.91 631.15 363.94 631.06 363.94 631.05 363.95 631.03 363.98 631.02 363.99 630.92 363.98 630.88 363.98 630.79 363.94 630.77 363.93 630.77 363.9 630.77 363.86 630.76 363.83 630.73 363.81 630.7 363.79 630.68 363.76 630.67 363.68 630.72 363.64 630.81 363.61 630.86 363.55 630.82 363.54 630.78 363.55 630.74 363.57 630.67 363.63 630.65 363.64 630.64 363.62 630.63 363.58 630.56 363.44 630.51 363.36 630.46 363.33 630.45 363.35 630.47 363.41 630.55 363.54 630.55 363.57 630.54 363.64 630.55 363.66 630.56 363.7 630.56 363.73 630.55 363.76 630.48 363.83 630.37 363.8 630.18 363.7 630.12 363.71 630.03 363.75 629.99 363.76 629.9 363.76 629.86 363.76 629.83 363.78 629.71 363.92 629.65 363.97 629.57 363.96 629.56 363.95 629.55 363.93 629.53 363.91 629.52 363.92 629.53 363.95 629.54 363.98 629.54 364 629.53 364.02 629.49 364.08 629.46 364.16 629.43 364.11 629.36 364.05 629.32 364 629.31 363.96 629.23 363.72 629.19 363.64 629.13 363.57 629.04 363.51 628.77 363.41 628.4 363.18 628.31 363.13 628.26 363.12 628.21 363.11 628.17 363.11 628.15 363.08 628.11 363.02 628.07 362.97 628.01 362.93 627.95 362.89 627.88 362.86 627.85 362.87 627.74 362.89 627.7 362.89 627.65 362.86 627.62 362.82 627.58 362.72 627.54 362.68 627.36 362.54 627.34 362.51 627.32 362.48 627.34 362.48 627.34 362.47 627.34 362.46 627.34 362.45 627.31 362.42 627.27 362.39 627.18 362.35 626.87 362.22 626.52 362.07 626.44 362.03 626.38 361.98 626.21 361.8 626.19 361.79 626.14 361.78 626.1 361.75 626.07 361.72 626.08 361.68 626.04 361.67 626 361.66 625.94 361.62 625.9 361.65 625.83 361.65 625.8 361.68 625.79 361.63 625.78 361.56 625.77 361.49 625.73 361.47 625.72 361.46 625.7 361.44 625.66 361.41 625.62 361.28 625.6 361.26 625.57 361.25 625.46 361.24 625.44 361.22 625.41 361.2 625.38 361.17 625.25 361.15 625.21 361.13 625.13 361.11 625.09 361.09 625 361.03 624.95 360.97 624.84 360.8 624.77 360.75 624.67 360.72 624.57 360.71 624.52 360.68 624.56 360.58 624.51 360.57 624.51 360.54 624.62 360.41 624.65 360.38 624.68 360.37 624.71 360.34 624.71 360.28 624.69 360.18 624.68 360.15 624.61 360.1 624.6 360.07 624.56 359.79 624.54 359.74 624.51 359.71 624.43 359.64 624.43 359.62 624.42 359.6 624.41 359.59 624.36 359.58 624.34 359.57 624.32 359.55 624.31 359.54 624.3 359.51 624.19 359.37 624.12 359.3 624.11 359.28 624.09 359.23 624.05 359.17 624.03 359.07 624.01 359.02 623.97 358.98 623.81 358.87 623.76 358.84 623.74 358.83 623.72 358.81 623.69 358.75 623.63 358.68 623.59 358.65 623.49 358.64 623.47 358.61 623.47 358.57 623.49 358.52 623.53 358.49 623.54 358.47 623.52 358.46 623.47 358.47 623.44 358.48 623.43 358.49 623.41 358.5 623.35 358.48 623.3 358.45 623.26 358.43 623.24 358.4 623.23 358.36 623.22 358.32 623.22 358.21 623.23 358.18 623.26 358.16 623.4 358.17 623.44 358.16 623.48 358.12 623.52 358.1 623.56 358.09 623.6 358.1 623.58 358.05 623.52 358.06 623.47 358.08 623.45 358.1 623.39 358.09 623.38 358.06 623.39 358.01 623.39 357.95 623.36 357.92 623.25 357.84 623.21 357.81 623.17 357.78 623.12 357.77 623.07 357.8 623.05 357.75 623.03 357.68 623.02 357.62 623.03 357.59 623 357.58 622.99 357.55 622.99 357.51 622.98 357.48 622.95 357.46 622.93 357.45 622.92 357.44 622.93 357.39 622.95 357.33 622.96 357.3 622.96 357.26 622.97 357.23 623.01 357.2 623.02 357.17 623.03 357.11 623.07 356.97 623.1 356.91 623.06 356.92 623.02 356.91 622.99 356.88 622.98 356.84 622.98 356.79 623.01 356.75 623.03 356.73 623.07 356.75 623.08 356.72 623.1 356.7 623.12 356.68 623.14 356.66 623.09 356.65 623.04 356.67 623.01 356.67 622.99 356.61 622.98 356.5 623.01 356.47 623.07 356.47 623.07 356.45 623.06 356.45 623.02 356.44 623.04 356.41 623.04 356.39 622.99 356.38 622.97 356.37 622.96 356.38 622.94 356.38 622.93 356.35 622.93 356.32 622.95 356.28 622.95 356.26 622.93 356.25 622.91 356.25 622.89 356.24 622.89 356.21 622.86 356.22 622.84 356.23 622.79 356.23 622.76 356.22 622.77 356.2 622.8 356.18 622.81 356.18 622.81 356.15 622.8 356.14 622.78 356.13 622.76 356.11 622.73 356.1 622.71 356.11 622.69 356.12 622.67 356.14 622.65 356.1 622.63 356.08 622.63 356.05 622.61 356.01 622.56 355.95 622.54 355.9 622.51 355.83 622.49 355.8 622.47 355.75 622.48 355.73 622.49 355.73 622.5 355.73 622.51 355.73 622.53 355.7 622.55 355.68 622.57 355.65 622.59 355.58 622.62 355.51 622.63 355.47 622.62 355.44 622.6 355.4 622.6 355.38 622.6 355.36 622.62 355.32 622.63 355.29 622.62 355.26 622.57 355.16 622.52 355.1 622.51 355.07 622.51 355.02 622.52 354.83 622.51 354.78 622.46 354.69 622.44 354.64 622.43 354.45 622.45 354.46 622.48 354.47 622.5 354.47 622.52 354.45 622.52 354.43 622.51 354.42 622.49 354.41 622.47 354.4 622.5 354.14 622.44 353.69 622.42 353.66 622.39 353.61 622.36 353.57 622.32 353.47 622.24 353.32 622.22 353.23 622.18 353.2 622.11 353.15 622.05 353.08 622.01 352.98 621.97 352.88 621.96 352.79 621.95 352.74 621.97 352.71 621.99 352.66 622 352.61 621.99 352.59 621.99 352.55 621.99 352.53 622 352.51 622.02 352.49 622.04 352.47 622.03 352.44 622.02 352.39 622.01 352.35 622.03 352.26 622.03 352.21 622.04 352.18 622.05 352.17 622.08 352.16 622.1 352.17 622.11 352.17 622.12 352.19 622.14 352.2 622.17 352.2 622.17 352.19 622.2 352.17 622.22 352.17 622.25 352.17 622.27 352.18 622.29 352.2 622.37 352.45 622.4 352.49 622.44 352.53 622.5 352.56 622.53 352.57 622.57 352.58 622.61 352.59 622.67 352.58 622.7 352.59 622.77 352.64 622.81 352.66 622.95 352.7 623.02 352.73 623.06 352.74 623.1 352.73 623.25 352.63 623.28 352.63 623.29 352.64 623.29 352.69 623.29 352.71 623.31 352.73 623.33 352.73 623.36 352.73 623.38 352.73 623.43 352.76 623.45 352.8 623.46 352.91 623.46 352.94 623.47 352.96 623.5 353 623.5 353.02 623.5 353.04 623.49 353.06 623.49 353.06 623.49 353.08 623.49 353.15 623.49 353.17 623.51 353.2 623.52 353.2 623.53 353.18 623.56 353.17 623.59 353.18 623.68 353.2 623.73 353.19 623.78 353.13 623.83 353.12 623.9 353.18 623.93 353.19 624.04 353.17 624.06 353.18 624.08 353.21 624.09 353.25 624.08 353.3 624.06 353.32 624.03 353.34 624 353.37 624 353.43 624.04 353.46 624.08 353.49 624.09 353.53 624.08 353.62 624.08 353.75 624.06 353.82 624.06 353.86 624.04 353.9 624 353.92 623.95 353.92 623.92 353.95 623.83 354.13 623.81 354.16 623.81 354.18 623.81 354.21 623.82 354.23 623.84 354.25 623.87 354.3 623.88 354.32 623.9 354.33 623.94 354.33 623.97 354.33 624.02 354.37 624.06 354.41 624.09 354.47 624.12 354.52 624.15 354.54 624.22 354.52 624.32 354.46 624.35 354.43 624.38 354.39 624.4 354.34 624.41 354.29 624.44 354.19 624.5 354.16 624.59 354.14 624.68 354.1 624.75 354.05 624.99 353.96 625.07 353.93 625.12 353.92 625.17 353.93 625.2 353.98 625.21 354 625.22 354.02 625.24 354.03 625.27 354.03 625.29 354.04 625.29 354.06 625.28 354.08 625.28 354.1 625.33 354.2 625.36 354.24 625.41 354.25 625.43 354.24 625.43 354.24 625.47 354.2 625.49 354.2 625.52 354.2 625.54 354.23 625.56 354.25 625.57 354.28 625.62 354.3 625.66 354.3 625.68 354.27 625.7 354.22 625.71 354.21 625.78 354.17 625.79 354.15 625.8 354.13 625.81 354.11 625.83 354.1 625.91 354.03 625.92 353.95 625.92 353.86 625.96 353.76 626.01 353.7 626.17 353.57 626.23 353.51 626.26 353.44 626.25 353.27 626.26 353.15 Z M 660.33 352.32 660.26 352.32 660.2 352.31 660.14 352.29 660.12 352.27 660.11 352.25 660.12 352.23 660.14 352.22 660.16 352.21 660.27 352.21 660.31 352.2 660.33 352.18 660.34 352.14 660.32 352.12 660.24 352.12 660.24 352.09 660.26 352.06 660.35 352.05 660.39 352.02 660.44 352.09 660.48 352.16 660.47 352.23 660.39 352.3 660.33 352.32 Z M 660.61 357.79 660.59 357.77 660.55 357.76 660.49 357.76 660.45 357.76 660.38 357.75 660.32 357.73 660.27 357.7 660.14 357.57 659.96 357.48 659.88 357.42 659.86 357.4 659.85 357.38 659.83 357.36 659.8 357.36 659.77 357.36 659.74 357.4 659.72 357.41 659.31 357.41 659.18 357.38 659.09 357.38 658.92 357.41 658.83 357.39 658.75 357.34 658.71 357.33 658.64 357.39 658.6 357.4 658.56 357.41 658.5 357.38 658.44 357.41 658.41 357.41 658.32 357.27 658.29 357.27 658.28 357.29 658.23 357.34 658.21 357.37 658.21 357.39 658.22 357.41 658.23 357.42 658.21 357.44 658.17 357.45 658.15 357.44 658.12 357.44 658.07 357.5 658.05 357.5 658.02 357.5 658 357.49 657.94 357.4 657.94 357.37 657.93 357.36 657.91 357.35 657.9 357.35 657.88 357.35 657.82 357.3 657.77 357.31 657.7 357.34 657.64 357.36 657.61 357.35 657.51 357.33 657.46 357.32 657.44 357.32 657.41 357.31 657.39 357.35 657.38 357.38 657.35 357.4 657.31 357.42 657.21 357.53 657.18 357.54 657.14 357.53 657.12 357.5 657.11 357.47 657.1 357.43 657.08 357.42 657.06 357.4 657 357.38 656.91 357.38 656.86 357.36 656.84 357.33 656.83 357.3 656.81 357.28 656.79 357.28 656.76 357.31 656.74 357.38 656.74 357.46 656.73 357.52 656.64 357.59 656.64 357.62 656.63 357.64 656.59 357.65 656.57 357.64 656.56 357.62 656.54 357.61 656.45 357.7 656.43 357.72 656.42 357.74 656.37 357.75 656.35 357.77 656.33 357.82 656.32 357.86 656.3 358.05 656.27 358.15 656.23 358.23 656.2 358.26 656.13 358.3 656.11 358.32 656.11 358.37 656.15 358.4 656.19 358.42 656.22 358.46 656.22 358.53 656.14 358.79 656.12 358.87 656.12 358.96 656.13 359.01 656.19 359.15 656.19 359.17 656.19 359.21 656.19 359.24 656.19 359.26 656.23 359.33 656.25 359.37 656.25 359.4 656.24 359.42 656.21 359.43 656.19 359.42 656.17 359.41 656.15 359.41 656.1 359.46 656.06 359.56 655.99 359.89 655.99 359.93 656.02 359.97 656.06 359.98 656.06 360 655.99 360.1 655.97 360.14 655.96 360.24 655.95 360.28 655.91 360.29 655.82 360.3 655.67 360.37 655.6 360.38 655.54 360.35 655.48 360.26 655.45 360.26 655.42 360.31 655.38 360.39 655.35 360.42 655.22 360.5 655.19 360.54 655.16 360.58 655.15 360.61 655.14 360.63 655.14 360.66 655.12 360.68 655.09 360.71 655.07 360.72 655.07 360.73 655.08 360.76 655.13 360.83 655.15 360.87 655.12 360.93 655.1 360.94 655.08 360.95 655.06 360.96 655.04 360.98 655.04 361 655.07 361.05 655.08 361.07 655.07 361.12 655.05 361.16 655.04 361.21 655.08 361.24 655.1 361.24 655.15 361.22 655.17 361.21 655.2 361.21 655.23 361.22 655.25 361.23 655.28 361.25 655.31 361.29 655.34 361.34 655.37 361.39 655.37 361.43 655.34 361.47 655.3 361.49 655.2 361.49 655.15 361.52 655.07 361.62 655.03 361.64 654.99 361.65 654.9 361.74 654.86 361.76 654.77 361.76 654.74 361.77 654.73 361.82 654.73 361.86 654.74 361.9 654.72 361.92 654.67 361.94 654.49 361.97 654.43 362.01 654.39 362.09 654.37 362.21 654.37 362.25 654.38 362.27 654.4 362.31 654.41 362.33 654.41 362.4 654.41 362.42 654.43 362.47 654.46 362.47 654.49 362.46 654.54 362.45 654.56 362.47 654.57 362.49 654.57 362.53 654.57 362.56 654.55 362.6 654.54 362.64 654.54 362.68 654.55 362.72 654.54 362.76 654.52 362.79 654.39 362.84 654.27 362.85 654.25 362.86 654.23 362.88 654.21 362.9 654.19 362.92 654.19 362.94 654.19 362.96 654.2 362.98 654.2 363 654.21 363.07 654.18 363.22 654.14 363.34 654.08 363.43 654.05 363.47 653.97 363.53 653.95 363.57 653.95 363.62 653.96 363.67 653.96 363.72 653.94 363.76 653.91 363.79 653.86 363.81 653.81 363.79 653.63 363.67 653.58 363.64 653.53 363.64 653.49 363.65 653.16 363.78 653.15 363.79 653.11 363.82 653.08 363.83 653.06 363.82 653.03 363.8 653.01 363.77 652.99 363.75 652.91 363.73 652.82 363.73 652.5 363.78 652.46 363.79 652.41 363.84 652.27 364 651.92 364.24 651.87 364.25 651.81 364.22 651.69 364.09 651.65 364.06 651.6 364.06 651.55 364.07 651.47 364.11 651.36 364.1 651.2 363.98 651.1 363.94 650.97 363.91 650.87 363.91 650.83 363.9 650.76 363.84 650.68 363.8 650.6 363.79 650.51 363.81 650.42 363.84 650.39 363.84 650.38 363.82 650.4 363.8 650.46 363.75 650.5 363.71 650.52 363.67 650.54 363.62 650.54 363.57 650.51 363.54 650.48 363.52 650.42 363.5 650.39 363.49 650.28 363.5 650.24 363.49 650.2 363.47 650.16 363.47 650.12 363.48 650.1 363.5 650.09 363.52 650.07 363.54 650.04 363.55 650.03 363.55 649.97 363.54 649.31 363.5 649.26 363.51 649.22 363.54 649.19 363.57 649.15 363.6 649.11 363.61 648.97 363.62 648.92 363.64 648.67 363.76 648.62 363.79 648.61 363.85 648.62 363.87 648.67 363.87 648.68 363.89 648.68 363.92 648.67 363.94 648.61 364.08 648.49 364.41 648.47 364.44 648.44 364.45 648.39 364.46 648.21 364.46 648.07 364.5 647.87 364.73 647.74 364.77 647.68 364.75 647.56 364.7 647.5 364.68 647.46 364.68 647.43 364.68 647.24 364.76 647.19 364.83 647.17 364.84 647.14 364.79 647.13 364.76 647.12 364.72 647.1 364.7 647.06 364.7 646.97 364.73 646.93 364.74 646.88 364.73 646.83 364.72 646.53 364.59 646.49 364.59 645.99 364.71 645.85 364.72 645.78 364.73 645.72 364.76 645.6 364.86 645.58 364.9 645.58 364.94 645.57 364.95 645.56 364.96 645.54 364.96 645.52 364.94 645.51 364.94 645.49 364.95 645.48 364.96 645.44 364.98 645.43 364.98 645.41 364.97 645.39 364.97 645.37 364.98 645.33 365.02 645.3 365.03 645.27 365.03 645.25 365.01 645.23 365 645.22 364.99 645.19 364.98 645.18 364.99 645.18 365.01 645.15 365.04 645.06 365.08 644.96 365.07 644.85 365.02 644.77 364.95 644.68 364.82 644.64 364.79 644.61 364.78 644.5 364.76 644.47 364.76 644.44 364.77 644.42 364.76 644.41 364.72 644.4 364.67 644.29 364.51 644.24 364.41 644.21 364.37 644.17 364.35 644.04 364.33 644 364.31 643.95 364.28 643.9 364.19 643.86 364.16 643.78 364.12 643.75 364.09 643.73 364.05 643.68 363.92 643.66 363.88 643.62 363.86 643.57 363.86 643.53 363.87 643.49 363.86 643.45 363.83 643.41 363.74 643.39 363.72 643.35 363.75 643.34 363.74 643.33 363.68 643.32 363.66 643.12 363.49 643.08 363.44 643.05 363.39 643.04 363.35 643.04 363.25 643.05 363.07 643.04 363.03 643 363.02 642.9 363.02 642.87 363.01 642.85 362.99 642.83 362.96 642.81 362.93 642.8 362.9 642.8 362.89 642.8 362.87 642.79 362.79 642.79 362.76 642.81 362.73 642.89 362.66 642.91 362.64 642.95 362.59 643.01 362.48 643.05 362.37 643.05 362.37 643.06 362.41 643.06 362.45 643.08 362.54 643.09 362.59 643.08 362.62 643.07 362.65 643.07 362.69 643.09 362.74 643.15 362.83 643.19 362.87 643.24 362.9 643.38 362.96 643.45 363.01 643.54 363.05 643.58 363.08 643.61 363.12 643.65 363.19 643.67 363.23 643.7 363.23 643.81 363.23 643.84 363.23 643.87 363.21 643.92 363.2 644.21 363.21 644.23 363.21 644.28 363.24 644.3 363.25 644.31 363.24 644.35 363.22 644.36 363.21 644.38 363.2 644.4 363.2 644.41 363.2 644.46 363.26 644.48 363.27 644.49 363.23 644.51 363.2 644.52 363.19 644.51 363.18 644.5 363.15 644.5 363.14 644.5 363.08 644.5 363.05 644.53 363.01 644.56 362.98 644.59 363 644.61 363.06 644.63 363.09 644.64 363.1 644.64 363.11 644.64 363.15 644.64 363.16 644.65 363.18 644.66 363.19 644.67 363.2 644.68 363.21 644.7 363.21 644.72 363.22 644.77 363.22 644.79 363.21 644.82 363.17 644.88 363.15 644.92 363.12 644.96 363.12 644.99 363.16 644.96 363.19 644.94 363.22 644.93 363.26 644.93 363.3 644.92 363.32 644.88 363.36 644.87 363.39 644.92 363.36 644.96 363.36 644.99 363.37 645.01 363.39 645.01 363.42 645.02 363.44 645.05 363.45 645.07 363.44 645.11 363.42 645.14 363.42 645.17 363.43 645.26 363.48 645.39 363.51 645.44 363.55 645.47 363.6 645.46 363.65 645.42 363.69 645.34 363.75 645.34 363.76 645.39 363.76 645.44 363.75 645.48 363.73 645.53 363.7 645.55 363.65 645.55 363.61 645.53 363.57 645.53 363.54 645.59 363.49 645.69 363.51 645.88 363.58 645.98 363.64 646.15 363.81 646.23 363.87 646.36 363.93 646.39 363.94 646.45 363.94 646.52 363.9 646.57 363.88 646.64 363.91 646.72 363.98 646.8 364.02 646.9 363.97 646.86 363.97 646.8 363.95 646.77 363.94 646.76 363.93 646.74 363.87 646.73 363.85 646.69 363.85 646.63 363.83 646.6 363.82 646.57 363.83 646.49 363.87 646.44 363.87 646.4 363.86 646.36 363.83 646.33 363.8 646.29 363.77 646.19 363.73 646.16 363.7 646.12 363.6 646.07 363.56 646.07 363.53 646.06 363.46 646.07 363.45 646.1 363.37 646.11 363.29 646.13 363.26 646.26 363.24 646.31 363.23 646.35 363.25 646.38 363.29 646.41 363.34 646.45 363.37 646.5 363.35 646.53 363.34 646.56 363.36 646.59 363.38 646.64 363.37 646.6 363.36 646.58 363.35 646.54 363.32 646.52 363.31 646.5 363.32 646.45 363.3 646.44 363.31 646.43 363.3 646.43 363.27 646.41 363.24 646.4 363.23 646.39 363.22 646.35 363.21 646.34 363.21 646.33 363.2 646.28 363.11 646.27 363.08 646.26 363.05 646.27 363.03 646.32 363.02 646.34 363.01 646.34 363 646.3 362.97 646.29 362.96 646.3 362.91 646.32 362.87 646.37 362.8 646.44 362.65 646.5 362.45 646.51 362.4 646.52 362.39 646.55 362.39 646.59 362.41 646.64 362.4 646.59 362.35 646.58 362.3 646.61 362.27 646.65 362.28 646.7 362.29 646.78 362.31 646.8 362.3 646.83 362.28 646.84 362.27 646.88 362.21 646.89 362.19 646.87 362.18 646.84 362.18 646.82 362.21 646.8 362.26 646.78 362.27 646.76 362.26 646.7 362.22 646.65 362.21 646.49 362.23 646.46 362.23 646.45 362.21 646.45 362.16 646.46 362.12 646.49 362.09 646.54 362.06 646.58 362.07 646.56 362.03 646.52 362.02 646.48 362.01 646.46 361.99 646.46 361.95 646.49 361.85 646.51 361.69 646.54 361.63 646.6 361.59 646.61 361.63 646.64 361.64 646.72 361.67 646.74 361.69 646.8 361.76 646.82 361.77 646.83 361.78 646.84 361.79 646.86 361.8 646.88 361.79 646.95 361.75 646.97 361.74 647.04 361.73 647.06 361.73 647.1 361.76 647.14 361.79 647.13 361.75 647.08 361.7 647.01 361.64 646.99 361.61 646.96 361.52 646.95 361.48 647.02 361.49 647.08 361.5 647.13 361.51 647.17 361.47 647.19 361.47 647.19 361.48 647.19 361.48 647.21 361.47 647.16 361.45 647.07 361.43 647.04 361.41 647.01 361.39 646.99 361.36 646.97 361.33 646.98 361.27 647.01 361.14 647.03 361.05 647.04 361.02 647.06 361 647.22 360.87 647.47 360.73 647.53 360.69 647.96 360.61 648.3 360.6 648.93 360.43 649.54 360.27 649.88 360.2 650.02 360.15 650.04 360.15 650.43 360.03 650.5 359.99 650.62 359.86 650.67 359.78 650.64 359.73 650.65 359.71 650.71 359.67 650.82 359.58 650.84 359.57 650.85 359.55 650.93 359.43 651.1 359.28 651.14 359.22 651.15 359.2 651.15 359.18 651.15 359.14 651.17 359.11 651.22 359.07 651.23 359.06 651.25 359.04 651.35 358.92 651.4 358.83 651.42 358.78 651.43 358.73 651.45 358.69 651.49 358.65 651.58 358.6 652.12 358.14 652.58 357.54 652.63 357.43 652.61 357.34 652.66 357.27 652.68 357.18 652.68 357.07 652.63 356.86 652.65 356.83 652.7 356.82 652.84 356.88 652.96 356.9 653.01 356.93 653.08 356.98 653.14 357 653.16 357.02 653.18 357.07 653.19 357.07 653.23 357.07 653.24 357.08 653.25 357.09 653.25 357.11 653.26 357.13 653.28 357.15 653.3 357.18 653.31 357.24 653.31 357.3 653.34 357.34 653.36 357.44 653.35 357.46 653.32 357.49 653.31 357.5 653.32 357.54 653.33 357.56 653.4 357.56 653.5 357.58 653.59 357.57 653.63 357.57 653.66 357.6 653.7 357.74 653.73 357.78 653.76 357.82 653.9 357.95 653.94 357.98 653.96 358 653.97 358.02 653.99 358.08 654 358.09 654.09 358.11 654.2 358.04 654.4 357.85 654.42 357.82 654.43 357.73 654.44 357.68 654.5 357.61 654.51 357.57 654.5 357.53 654.43 357.56 654.43 357.51 654.45 357.49 654.46 357.48 654.51 357.43 654.54 357.39 654.55 357.35 654.57 357.27 654.58 357.21 654.56 357.2 654.53 357.2 654.49 357.19 654.45 357.12 654.43 357.04 654.42 356.79 654.42 356.74 654.4 356.69 654.36 356.61 654.34 356.57 654.34 356.53 654.35 356.53 654.37 356.51 654.45 356.48 654.49 356.45 654.56 356.39 654.6 356.36 654.65 356.35 654.69 356.35 654.73 356.36 654.77 356.36 654.8 356.33 654.82 356.3 654.82 356.26 654.83 356.23 654.88 356.18 654.9 356.17 654.92 356.15 654.94 356.14 654.95 356.12 654.97 356.16 654.97 356.25 654.98 356.33 654.98 356.33 654.97 356.51 654.98 356.68 655 356.77 655.07 356.94 655.09 357.03 655.12 357.25 655.14 357.28 655.17 357.3 655.29 357.34 655.34 357.35 655.41 357.35 655.42 357.35 655.46 357.38 655.48 357.39 655.52 357.39 655.54 357.4 655.58 357.43 655.64 357.45 655.68 357.45 655.72 357.41 655.71 357.37 655.68 357.32 655.6 357.25 655.55 357.18 655.52 357.09 655.51 357 655.51 356.91 655.53 356.83 655.53 356.79 655.52 356.74 655.38 356.32 655.32 356.24 655.29 356.22 655.26 356.21 655.24 356.19 655.24 356.14 655.28 356.14 655.31 356.13 655.34 356.12 655.36 356.04 655.38 356.02 655.41 356.03 655.44 356.06 655.45 356.07 655.46 356.08 655.51 356.07 655.53 356.08 655.55 356.09 655.57 356.1 655.59 356.14 655.63 356.15 655.68 356.16 655.71 356.15 655.74 356.13 655.81 356.06 655.82 356.04 655.91 355.97 655.98 355.88 656.01 355.86 656.05 355.85 656.1 355.84 656.13 355.81 656.15 355.79 656.16 355.75 656.18 355.66 656.18 355.58 656.19 355.56 656.21 355.51 656.23 355.5 656.25 355.48 656.26 355.47 656.24 355.44 656.16 355.47 656.08 355.47 656 355.44 655.8 355.27 655.8 355.25 655.8 355.23 655.8 355.22 655.78 355.21 655.77 355.22 655.73 355.25 655.71 355.23 655.72 355.2 655.73 355.16 655.75 355.09 655.76 355.06 655.78 355.04 655.79 355.02 655.81 355 655.93 354.93 655.95 354.88 655.98 354.85 656.14 354.74 656.21 354.57 656.26 354.53 656.29 354.58 656.21 354.72 656.26 354.79 656.27 354.76 656.28 354.7 656.29 354.68 656.36 354.74 656.41 354.76 656.61 354.78 656.67 354.77 656.73 354.76 656.8 354.7 656.85 354.61 656.9 354.51 656.93 354.42 656.94 354.33 656.96 354.28 656.98 354.25 657.01 354.22 657.21 354.11 657.25 354.07 657.26 354.02 657.27 353.92 657.28 353.88 657.42 353.66 657.45 353.56 657.41 353.5 657.36 353.51 657.35 353.48 657.37 353.44 657.44 353.42 657.47 353.4 657.58 353.24 657.63 353.2 657.66 353.18 657.69 353.18 657.72 353.19 657.75 353.2 657.78 353.21 657.79 353.19 657.78 353.11 657.76 353.11 657.71 353.13 657.66 353.13 657.66 353.12 657.72 353.09 657.75 353.05 657.76 353.04 657.78 353.04 657.82 353.04 657.84 353.03 657.85 353.02 657.85 353.01 657.87 352.94 657.87 352.92 657.88 352.91 657.9 352.88 658.1 352.73 658.13 352.7 658.17 352.67 658.22 352.65 658.25 352.63 658.26 352.58 658.26 352.54 658.27 352.5 658.29 352.46 658.32 352.45 658.36 352.42 658.49 352.24 658.53 352.21 658.55 352.17 658.56 352.14 658.57 352.08 658.56 352 658.57 351.98 658.58 351.96 658.6 351.93 658.61 351.9 658.61 351.82 658.62 351.78 658.68 351.75 658.7 351.72 658.72 351.63 658.72 351.58 658.73 351.56 658.74 351.55 658.75 351.55 658.78 351.51 658.79 351.48 658.81 351.47 658.83 351.45 658.86 351.45 658.86 351.46 658.89 351.51 658.98 351.57 658.99 351.59 659.02 351.75 658.98 351.73 658.96 351.72 658.95 351.73 658.93 351.8 658.93 351.81 658.96 351.83 658.99 351.85 659.02 351.87 659.04 351.91 659.03 352 659 352.06 658.93 352.16 658.89 352.24 658.86 352.34 658.87 352.41 658.96 352.43 659.01 352.41 659.04 352.37 659.07 352.33 659.09 352.31 659.12 352.3 659.22 352.21 659.29 352.15 659.31 352.13 659.31 352.05 659.33 352.04 659.34 352.04 659.36 352.02 659.39 351.96 659.47 351.88 659.48 351.85 659.46 351.8 659.42 351.71 659.42 351.66 659.44 351.63 659.45 351.63 659.47 351.64 659.5 351.65 659.52 351.64 659.53 351.62 659.54 351.61 659.53 351.6 659.52 351.59 659.51 351.56 659.52 351.54 659.52 351.52 659.55 351.52 659.57 351.53 659.6 351.54 659.62 351.54 659.64 351.53 659.67 351.5 659.68 351.5 659.7 351.51 659.76 351.53 659.77 351.54 659.78 351.55 659.9 351.62 659.91 351.63 659.92 351.65 659.92 351.68 659.91 351.79 659.9 351.81 659.87 351.83 659.86 351.87 659.86 351.91 659.87 351.95 659.95 352.05 659.97 352.09 659.97 352.23 659.98 352.27 660.01 352.31 660.03 352.33 660.12 352.33 660.16 352.34 660.19 352.36 660.24 352.42 660.29 352.47 660.33 352.5 660.37 352.51 660.4 352.5 660.43 352.48 660.48 352.39 660.51 352.35 660.53 352.35 660.54 352.38 660.54 352.44 660.55 352.44 660.6 352.5 660.59 352.49 660.59 352.5 660.59 352.52 660.59 352.53 660.6 352.53 660.62 352.54 660.63 352.54 660.67 352.57 660.69 352.58 660.72 352.59 660.75 352.57 660.77 352.57 660.79 352.58 660.85 352.64 660.87 352.68 660.89 352.72 660.91 352.72 660.91 352.7 660.93 352.7 660.94 352.7 660.95 352.71 660.96 352.72 660.96 352.74 660.96 352.76 660.97 352.79 660.97 352.81 660.99 352.84 661 352.86 660.99 352.88 660.98 352.9 660.96 352.92 660.99 352.98 660.97 353.13 660.95 353.16 660.92 353.16 660.85 353.15 660.8 353.16 660.76 353.19 660.7 353.25 660.68 353.29 660.69 353.32 660.74 353.38 660.78 353.46 660.81 353.48 660.82 353.49 660.82 353.51 660.82 353.53 660.83 353.55 660.82 353.57 660.8 353.59 660.78 353.6 660.76 353.61 660.75 353.63 660.77 353.67 660.8 353.68 660.83 353.69 660.85 353.75 660.83 353.78 660.8 353.81 660.72 353.86 660.44 353.96 660.39 354.01 660.43 354.01 660.56 353.95 660.61 353.94 660.77 353.94 660.92 353.92 661.03 353.93 661.07 353.93 661.08 353.9 661.06 353.85 661.08 353.83 661.11 353.83 661.13 353.84 661.17 353.85 661.2 353.84 661.31 353.82 661.33 353.81 661.35 353.78 661.38 353.75 661.44 353.71 661.51 353.62 661.55 353.6 661.56 353.59 661.57 353.58 661.6 353.59 661.68 353.66 661.68 353.69 661.68 353.71 661.69 353.73 661.72 353.75 661.73 353.78 661.73 353.82 661.74 353.87 661.83 354 661.84 354.01 661.84 354.02 661.78 354.11 661.75 354.13 661.7 354.15 661.65 354.15 661.6 354.13 661.57 354.15 661.43 354.13 661.39 354.15 661.37 354.17 661.36 354.2 661.38 354.21 661.39 354.23 661.46 354.4 661.48 354.42 661.49 354.42 661.5 354.41 661.53 354.41 661.56 354.4 661.65 354.36 661.69 354.35 661.71 354.35 661.72 354.37 661.74 354.38 661.76 354.37 661.78 354.36 661.8 354.36 661.82 354.37 661.85 354.4 661.86 354.41 661.89 354.4 661.9 354.38 661.9 354.36 661.89 354.33 661.91 354.29 661.92 354.28 661.93 354.26 661.94 354.24 661.92 354.2 661.92 354.18 661.96 354.15 662.06 354.14 662.15 354.1 662.2 354.11 662.31 354.17 662.32 354.18 662.33 354.17 662.36 354.14 662.38 354.13 662.4 354.14 662.42 354.16 662.43 354.16 662.48 354.17 662.7 354.31 662.78 354.37 662.81 354.39 662.85 354.4 662.88 354.43 662.9 354.45 662.89 354.48 662.87 354.49 662.86 354.5 662.85 354.51 662.83 354.63 662.81 354.68 662.81 354.73 662.82 354.77 662.84 354.77 662.86 354.72 662.87 354.69 662.89 354.67 662.9 354.65 662.89 354.59 662.9 354.57 662.96 354.53 663.01 354.53 663.05 354.56 663.16 354.68 663.2 354.72 663.24 354.74 663.3 354.75 663.34 354.78 663.37 354.82 663.38 354.88 663.4 354.87 663.41 354.85 663.41 354.84 663.41 354.82 663.52 354.9 663.56 354.91 663.6 354.93 663.64 354.97 663.65 355.02 663.61 355.04 663.63 355.06 663.67 355.08 663.7 355.08 663.73 355.06 663.74 355.03 663.72 355.01 663.72 354.99 663.75 354.97 663.8 354.97 663.91 355.03 663.97 355.03 664.15 354.95 664.2 354.94 664.24 354.95 664.27 354.99 664.32 355.06 664.37 355.11 664.39 355.14 664.4 355.17 664.39 355.22 664.37 355.29 664.37 355.33 664.38 355.43 664.38 355.49 664.32 355.53 664.22 355.65 664.13 355.7 663.72 355.85 663.31 355.96 663.23 356.01 663.18 356.04 663.12 356.05 663.08 356.06 663.04 356.05 662.97 356.02 662.91 356.01 662.86 356 662.84 356 662.81 356.01 662.74 356.06 662.7 356.09 662.67 356.09 662.64 356.07 662.63 356.05 662.59 355.98 662.52 355.89 662.45 355.86 662.4 355.84 662.38 355.85 662.36 355.85 662.31 355.88 662.24 355.94 662.22 355.92 662.21 355.93 662.21 355.95 662.21 355.98 662.13 355.96 662.05 356.01 661.92 356.15 661.89 356.18 661.87 356.19 661.86 356.22 661.87 356.24 661.87 356.25 661.89 356.26 661.95 356.3 661.96 356.31 661.97 356.33 662 356.39 662.05 356.47 662.11 356.54 662.18 356.61 662.26 356.66 662.29 356.69 662.31 356.7 662.33 356.71 662.35 356.71 662.39 356.72 662.41 356.72 662.42 356.74 662.44 356.78 662.45 356.79 662.46 356.8 662.48 356.81 662.52 356.83 662.52 356.79 662.55 356.78 662.59 356.8 662.62 356.82 662.65 356.84 662.65 356.87 662.64 356.9 662.62 356.93 662.61 356.96 662.63 356.98 662.65 357 662.67 357.02 662.69 357.03 662.73 357.01 662.79 356.97 662.82 356.98 662.87 356.99 662.9 357 662.88 357.03 662.91 357.07 663 357.16 663 357.18 662.98 357.2 662.95 357.22 662.94 357.21 662.91 357.2 662.88 357.19 662.89 357.23 662.88 357.26 662.86 357.29 662.84 357.32 662.8 357.34 662.77 357.35 662.68 357.34 662.65 357.35 662.57 357.37 662.53 357.38 662.44 357.38 662.38 357.37 662.35 357.34 662.32 357.38 662.3 357.39 662.1 357.45 661.92 357.47 661.87 357.48 661.58 357.63 661.53 357.63 661.39 357.59 661.35 357.59 661.33 357.57 661.24 357.5 661.21 357.48 661.19 357.47 661.17 357.47 661.17 357.46 661.15 357.42 661.14 357.41 661.11 357.4 661.04 357.38 660.99 357.37 660.97 357.36 660.92 357.33 660.89 357.29 660.87 357.24 660.84 357.2 660.8 357.21 660.76 357.24 660.71 357.27 660.69 357.3 660.7 357.32 660.74 357.34 660.75 357.37 660.75 357.46 660.76 357.48 660.8 357.51 660.8 357.54 660.79 357.57 660.77 357.59 660.72 357.62 660.71 357.63 660.7 357.65 660.68 357.67 660.68 357.69 660.69 357.7 660.73 357.73 660.74 357.75 660.72 357.75 660.7 357.75 660.61 357.79 Z M 659.4 350.8 659.4 350.85 659.37 350.89 659.33 350.85 659.3 350.86 659.29 350.91 659.31 350.95 659.1 351 659.11 351.02 659.13 351.03 659.14 351.04 659.13 351.07 659.11 351.08 659.08 351.08 659.04 351.08 659.02 351.07 659.13 350.87 659.16 350.86 659.23 350.84 659.27 350.82 659.36 350.72 659.39 350.75 659.4 350.8 Z M 659.93 351.06 659.9 351.1 659.86 351.08 659.82 351.1 659.69 351.12 659.66 351.14 659.65 351.15 659.59 351.18 659.57 351.19 659.55 351.21 659.54 351.24 659.53 351.26 659.51 351.28 659.49 351.23 659.48 351.06 659.49 351.02 659.49 351.01 659.49 350.91 659.5 350.89 659.51 350.88 659.55 350.86 659.57 350.85 659.62 350.8 659.67 350.76 659.7 350.75 659.73 350.75 659.9 350.72 659.95 350.73 659.97 350.77 659.98 350.82 659.96 350.99 659.93 351.06 Z" fill-rule="evenodd" id="Malaysia" transform="translate(-620.8800048828125,-350.7200012207031) "/></svg>