<svg xmlns="http://www.w3.org/2000/svg" viewBox="0 0 7.19000244140625 17.55999755859375"><path d="M 476.84 393.68 476.88 393.58 476.91 393.56 476.95 393.56 477 393.58 477.04 393.61 477.06 393.65 477.05 393.71 477.03 393.76 476.99 393.81 476.94 393.83 476.89 393.84 476.85 393.83 476.82 393.78 476.82 393.73 476.84 393.68 Z M 476.69 393.72 476.66 393.69 476.63 393.65 476.57 393.59 476.57 393.55 476.61 393.51 476.61 393.51 476.69 393.49 476.76 393.53 476.79 393.6 476.77 393.68 476.72 393.72 476.69 393.72 Z M 477.5 392.6 476.81 392.59 476.73 392.61 476.71 392.64 476.71 392.68 476.73 392.78 476.72 392.87 476.71 392.96 476.62 393.18 476.45 393.43 476.21 393.79 476.16 393.91 476.15 394.01 476.15 394.02 476.21 394.22 476.34 394.68 476.46 395.11 476.49 395.36 476.53 395.68 476.56 395.95 476.58 396.17 476.57 396.37 476.58 396.55 476.65 396.72 476.65 396.72 476.66 396.73 476.7 396.77 476.72 396.8 476.77 396.88 476.78 396.91 476.78 396.92 476.79 396.93 476.81 396.94 476.85 396.95 477.13 396.94 477.21 396.95 477.28 396.98 477.28 396.98 477.35 397.02 477.58 397.23 477.77 397.41 477.96 397.64 478.2 397.92 478.4 398.16 478.59 398.39 478.74 398.68 478.93 398.92 479.17 399.21 479.25 399.31 479.33 399.41 479.44 399.52 479.46 399.56 479.47 399.6 479.5 400.07 479.51 400.09 479.54 400.1 479.59 400.1 479.5 400.29 479.44 400.44 479.34 400.69 479.32 400.75 479.32 400.8 479.33 400.84 479.38 401.05 479.45 401.31 479.44 401.4 479.44 401.4 479.43 401.58 479.41 401.87 479.39 402.07 479.37 402.4 479.35 402.49 479.33 402.54 479.33 402.58 479.35 402.65 479.34 402.69 479.32 402.74 479.29 402.77 479.13 402.88 479.11 402.9 479.09 402.9 479.04 402.89 479.02 402.89 478.81 402.96 478.76 402.96 478.75 402.97 478.74 403.01 478.72 403.03 478.7 403.03 478.67 403.02 478.65 403 478.63 402.96 478.59 402.93 478.55 402.92 478.51 402.92 478.46 402.93 478.41 402.96 478.26 403.1 478.25 403.12 478.2 403.17 478.16 403.26 478.14 403.37 478.15 403.39 478.17 403.46 478.16 403.48 478.11 403.54 478.11 403.55 478.1 403.58 478.1 403.68 478.09 403.72 478.06 403.75 477.9 403.85 477.88 403.87 477.91 403.97 477.95 404.03 477.96 404.05 477.97 404.07 477.99 404.08 478.01 404.08 478.06 404.1 478.08 404.11 478.09 404.12 478.1 404.15 478.11 404.16 478.11 404.16 478.13 404.17 478.14 404.18 478.19 404.23 478.2 404.25 478.21 404.4 478.22 404.44 478.26 404.53 478.27 404.59 478.22 404.64 478.21 404.69 478.22 404.77 478.21 404.78 478.19 404.79 478.18 404.81 478.18 404.82 478.2 404.83 478.27 404.87 478.28 404.89 478.27 404.92 478.25 404.97 478.24 405 478.26 405.09 478.27 405.14 478.26 405.17 478.25 405.21 478.23 405.23 478.23 405.23 478.1 405.25 477.88 405.24 477.76 405.22 477.73 405.19 477.74 405.13 477.66 405.02 477.68 404.95 477.73 404.91 477.79 404.88 477.83 404.84 477.86 404.78 477.87 404.71 477.87 404.62 477.85 404.55 477.8 404.51 477.72 404.51 477.66 404.52 477.59 404.51 477.53 404.46 477.49 404.4 477.47 404.38 477.44 404.36 477.42 404.35 477.39 404.35 477.37 404.34 477.36 404.32 477.36 404.28 477.35 404.26 477.33 404.25 477.31 404.23 477.27 404.22 477.24 404.19 477.22 404.16 477.2 404.11 477.18 404.08 477.08 403.99 477.06 403.96 477.02 403.88 476.99 403.85 476.85 403.78 476.83 403.77 476.82 403.76 476.79 403.69 476.78 403.67 476.76 403.66 476.69 403.6 476.67 403.57 476.64 403.54 476.58 403.38 476.53 403.33 476.43 403.31 476.36 403.31 476.31 403.27 476.22 403.07 476.23 402.99 476.27 402.84 476.26 402.78 476.23 402.72 476.04 402.53 476.01 402.51 475.94 402.47 475.91 402.45 475.88 402.39 475.88 402.3 475.89 402.22 475.91 402.17 475.98 402.1 476.02 402.07 476.05 402.05 476.1 402.04 476.12 402.02 476.13 402.02 476.26 401.83 476.29 401.76 476.3 401.67 476.28 401.53 476.28 401.45 476.3 401.41 476.34 401.39 476.39 401.32 476.43 401.3 476.45 401.27 476.46 401.21 476.47 401.18 476.49 401.15 476.52 401.13 476.55 401.11 476.58 401.09 476.62 401.03 476.63 400.97 476.61 400.81 476.58 400.64 476.59 400.6 476.61 400.57 476.6 400.55 476.59 400.52 476.58 400.48 476.6 400.45 476.64 400.39 476.66 400.36 476.66 400.32 476.65 400.28 476.62 400.25 476.6 400.21 476.59 400.17 476.58 400.13 476.58 399.96 476.57 399.89 476.55 399.82 476.51 399.75 476.49 399.67 476.52 399.54 476.52 399.46 476.48 399.39 476.36 399.27 476.31 399.21 476.24 399.06 476.21 399.02 476.19 398.99 476.13 398.96 476.11 398.96 476.09 398.97 476.08 398.99 476.06 399 476.04 399 476.01 399 475.99 399 475.77 399.08 475.61 399.08 475.54 399.11 475.52 399.14 475.5 399.19 475.48 399.2 475.25 399.17 475.18 399.17 475.12 399.19 474.99 399.27 474.93 399.29 474.87 399.28 474.75 399.19 474.7 399.21 474.67 399.26 474.65 399.32 474.65 399.4 474.64 399.44 474.62 399.46 474.58 399.45 474.55 399.42 474.53 399.39 474.52 399.36 474.49 399.27 474.47 399.24 474.45 399.22 474.39 399.19 474.36 399.17 474.34 399.14 474.33 399.12 474.32 399.09 474.29 399.06 474.19 399.02 474.16 399 474.12 398.94 474.01 398.72 473.97 398.66 473.94 398.6 473.94 398.59 473.92 398.58 473.9 398.57 473.87 398.55 473.85 398.53 473.79 398.44 473.78 398.39 473.8 398.28 473.77 398.22 473.72 398.18 473.6 398.11 473.56 398.07 473.49 397.94 473.46 397.91 473.44 397.92 473.42 397.98 473.4 398 473.32 398.02 473.29 398.04 473.26 398.07 473.19 398.18 473.15 398.19 473.1 398.13 473.09 398.09 473.09 397.98 473.1 397.97 473.1 397.95 473.08 397.93 473.07 397.92 473.03 397.93 473.01 397.91 473 397.88 472.99 397.84 472.98 397.81 472.87 397.67 472.84 397.64 472.77 397.62 472.69 397.6 472.62 397.57 472.61 397.51 472.64 397.49 472.72 397.45 472.74 397.42 472.72 397.4 472.64 397.28 472.58 397.25 472.5 397.25 472.43 397.24 472.4 397.16 472.41 397.12 472.43 397.1 472.47 397.1 472.51 397.12 472.54 397.11 472.6 397.06 472.63 397.04 472.71 397.03 472.74 397.01 472.75 396.96 472.74 396.92 472.75 396.88 472.77 396.86 472.81 396.85 472.87 396.82 472.91 396.73 472.94 396.61 472.97 396.48 473.01 396.39 473.07 396.32 473.13 396.3 473.15 396.27 473.14 396.25 473.1 396.19 473.09 396.16 473.08 396.12 473.07 396.08 473.11 395.83 473.17 395.69 473.18 395.63 473.16 395.57 473.11 395.52 473.05 395.49 473.03 395.46 473.02 395.3 473.03 395.26 473.06 395.19 473.14 395.08 473.21 394.94 473.23 394.91 473.26 394.88 473.28 394.87 473.29 394.88 473.31 394.89 473.31 394.91 473.33 394.92 473.35 394.91 473.37 394.9 473.39 394.89 473.42 394.88 473.44 394.88 473.46 394.88 473.48 394.9 473.5 394.95 473.51 394.96 473.53 394.96 473.54 394.95 473.55 394.93 473.57 394.92 473.58 394.91 473.59 394.9 473.6 394.89 473.62 394.89 473.65 394.86 473.69 394.79 473.72 394.76 473.73 394.75 473.79 394.74 473.82 394.74 473.84 394.75 473.86 394.77 473.88 394.77 473.93 394.76 473.98 394.73 474.02 394.68 474.06 394.63 474.08 394.61 474.15 394.58 474.17 394.55 474.17 394.5 474.18 394.48 474.22 394.48 474.23 394.44 474.29 394.4 474.3 394.4 474.32 394.36 474.32 394.31 474.29 394.31 474.25 394.31 474.17 394.28 474 394.33 473.92 394.3 473.88 394.23 473.84 394.07 473.81 394 473.79 393.97 473.73 393.91 473.71 393.87 473.71 393.8 473.72 393.72 473.8 393.52 473.82 393.4 473.84 393.37 473.84 393.33 473.83 393.3 473.81 393.25 473.81 393.21 473.84 393.13 473.85 393.05 473.82 392.68 473.81 392.65 473.78 392.61 473.74 392.61 473.7 392.61 473.67 392.61 473.63 392.6 473.62 392.58 473.65 392.51 473.67 392.47 473.67 392.44 473.66 392.25 473.68 392.22 473.74 392.26 473.76 392.23 473.76 392.2 473.75 392.17 473.76 392.14 473.77 392.13 473.8 392.12 473.81 392.11 473.82 392.09 473.81 392.07 473.81 392.05 473.97 391.81 474 391.75 474.02 391.68 473.95 391.56 473.9 391.51 473.86 391.45 473.82 391.39 473.8 391.32 473.8 391.26 473.79 391.19 473.77 391.12 473.74 391.09 473.71 391.1 473.68 391.1 473.66 391.08 473.67 391.05 473.69 391.01 473.71 391.01 473.73 391.01 473.76 391.01 473.79 390.99 473.83 390.93 473.86 390.91 473.89 390.9 473.94 390.88 473.97 390.87 474 390.87 474.08 390.88 474.11 390.88 474.14 390.87 474.18 390.83 474.22 390.82 474.26 390.8 474.28 390.76 474.32 390.67 474.43 390.55 474.46 390.53 474.49 390.51 474.57 390.45 474.61 390.42 474.64 390.37 474.64 390.36 474.64 390.35 474.64 390.33 474.63 390.29 474.63 390.23 474.56 390.22 474.53 390.18 474.49 390.08 474.47 390.06 474.41 390 474.39 389.98 474.33 389.84 474.32 389.79 474.34 389.66 474.33 389.59 474.3 389.56 474.26 389.52 474.22 389.47 474.16 389.45 474.12 389.42 474.08 389.38 474.03 389.34 473.85 389.26 473.82 389.22 473.83 389.16 473.84 389.1 473.88 389 473.94 388.9 473.96 388.85 473.95 388.79 473.91 388.7 473.9 388.68 473.81 388.65 473.79 388.64 473.76 388.61 473.74 388.59 473.71 388.52 473.69 388.5 473.63 388.46 473.61 388.43 473.6 388.4 473.61 388.38 473.62 388.36 473.63 388.34 473.63 388.3 473.62 388.27 473.58 388.22 473.54 388.19 473.42 388.18 473.37 388.16 473.36 388.21 473.35 388.28 473.33 388.32 473.28 388.3 473.27 388.28 473.26 388.25 473.25 388.23 473.23 388.22 473.2 388.23 473.17 388.24 473.15 388.25 473.12 388.24 473.09 388.18 473.13 388.02 473.13 387.96 473.11 387.95 473.08 387.92 473.07 387.91 473.04 387.92 473.03 387.93 473.01 387.93 472.99 387.91 472.98 387.88 472.97 387.75 473.01 387.72 473.05 387.69 473.09 387.69 473.13 387.72 473.24 387.83 473.38 387.93 473.4 387.94 473.46 387.95 473.53 387.98 473.53 387.98 473.55 387.98 473.58 387.95 473.6 387.94 473.63 387.94 473.68 387.96 473.7 387.96 473.72 387.95 473.76 387.93 473.78 387.93 473.82 387.94 473.94 388.03 473.98 388.07 474.02 388.15 474.05 388.19 474.08 388.22 474.12 388.23 474.22 388.24 474.28 388.22 474.34 388.19 474.39 388.17 474.47 388.17 474.53 388.2 474.59 388.21 474.59 388.21 474.65 388.2 474.71 388.17 474.78 388.15 474.84 388.18 474.9 388.24 474.95 388.28 475.01 388.3 475.07 388.34 475.12 388.38 475.15 388.43 475.17 388.44 475.21 388.4 475.21 388.39 475.24 388.37 475.26 388.35 475.27 388.32 475.27 388.28 475.28 388.21 475.29 388.17 475.25 388.07 475.28 388.01 475.33 387.97 475.36 387.94 475.39 387.91 475.47 387.94 475.54 387.98 475.54 387.98 475.56 388.01 475.6 388.02 475.67 388.12 475.69 388.12 475.73 388.17 475.79 388.2 476.01 388.42 476.07 388.45 476.09 388.48 476.09 388.52 476.1 388.56 476.11 388.58 476.16 388.63 476.17 388.63 476.21 388.67 476.22 388.68 476.44 388.95 476.46 389 476.53 389.09 476.56 389.17 476.56 389.19 476.55 389.22 476.53 389.26 476.53 389.29 476.55 389.36 476.62 389.53 476.64 389.65 476.66 389.7 476.66 389.72 476.66 389.75 476.62 389.99 476.63 390.04 476.67 390.11 476.68 390.15 476.68 390.17 476.66 390.22 476.65 390.25 476.65 390.26 476.65 390.28 476.67 390.31 476.68 390.34 476.7 390.37 476.72 390.38 476.74 390.38 476.74 390.38 476.75 390.38 476.76 390.41 476.76 390.45 476.76 390.46 476.81 390.52 476.83 390.56 476.83 390.61 476.8 390.66 476.82 390.68 476.82 390.69 476.83 390.7 476.84 390.71 476.86 390.73 476.86 390.76 476.84 390.78 476.82 390.8 476.83 390.86 476.8 391 476.8 391.1 476.8 391.12 476.76 391.21 476.74 391.24 476.69 391.29 476.68 391.35 476.69 391.4 476.72 391.49 476.73 391.54 476.74 391.58 476.85 391.67 476.86 391.69 476.87 391.71 476.88 391.73 476.92 391.74 476.94 391.75 476.95 391.77 476.96 391.79 476.96 391.84 476.98 391.88 477.01 391.92 477.05 391.94 477.05 391.95 477.03 391.96 477.01 391.97 477 391.98 477.05 392.07 477.06 392.09 477.08 392.09 477.11 392.06 477.12 392.06 477.14 392.06 477.24 392.09 477.29 392.12 477.33 392.16 477.35 392.2 477.36 392.22 477.4 392.25 477.42 392.31 477.44 392.34 477.46 392.36 477.47 392.37 477.47 392.39 477.49 392.41 477.5 392.43 477.5 392.46 477.5 392.58 477.5 392.6 Z" fill-rule="evenodd" id="Malawi" transform="translate(-472.3999938964844,-387.69000244140625) "/></svg>