<svg xmlns="http://www.w3.org/2000/svg" viewBox="0 0 798 5554"><path d="M 364.23 5543.34 367 5545.11 375.89 5547.32 377.46 5548.67 376.89 5551.44 374.76 5553.22 368.57 5552.8 368 5555 361.88 5549.88 360.68 5547.46 361.1 5542.55 364.23 5543.34 Z M 388.12 5545.54 389.76 5545.33 389.33 5547.67 387.34 5548.24 387.34 5544.12 388.12 5545.54 Z M 348.66 5538.57 349.65 5539.99 349.01 5541.2 347.45 5540.56 347.66 5539 345.32 5538.43 345.32 5537.22 346.1 5536.65 348.66 5538.57 Z M 351.22 5544.55 350.44 5544.9 350.22 5542.77 352.21 5541.99 352.57 5543.91 351.22 5544.55 Z M 397.87 5533.45 399 5535.8 398.22 5537.79 390.68 5545.9 395.45 5539.78 395.88 5534.87 394.67 5532.88 397.87 5533.45 Z M 353.21 5537.43 358.76 5540.56 359.54 5541.99 352.21 5541.77 350.65 5537.79 351.22 5536.44 353.21 5537.43 Z M 337.42 5524.21 336.78 5524.56 336.78 5523.21 338.77 5523 337.42 5524.21 Z M 365.01 5489.79 364.66 5491.56 362.88 5491.78 362.67 5488.65 365.01 5489.79 Z M 410.88 5465.32 413.23 5466.1 416.21 5469.45 417 5468.66 415.22 5466.46 417.35 5466.67 417.56 5467.88 426.45 5466.67 428.87 5467.67 428.66 5470.23 425.32 5476.2 420.76 5480.9 418.56 5481.54 419.34 5483.46 418.99 5495.12 420.12 5498.46 416.78 5512.12 418.77 5498.89 417.56 5484.24 416.21 5480.68 418.99 5477.13 418.56 5472.43 415 5470.87 411.66 5466.32 406.68 5465.11 405.12 5465.89 404.55 5464.54 410.88 5465.32 Z M 321.42 5468.24 320.43 5471.01 321.78 5472.65 322.77 5479.76 321 5476.98 320.78 5472.65 317.44 5471.44 316.23 5475.56 318.01 5476.56 318.01 5478.91 319.79 5481.89 324.34 5483.88 324.13 5487.44 328.46 5492.56 330.31 5506.57 333.23 5510.91 334.65 5517.24 337.99 5521.22 336.57 5522.43 329.46 5505.22 322.21 5495.76 312.11 5474.99 312.32 5470.23 313.32 5469.23 322.35 5466.32 321.42 5468.24 Z M 354.56 5492.2 353.99 5492.56 353.57 5490.99 354.99 5491.35 354.56 5492.2 Z M 358.54 5489.22 360.53 5489.79 357.76 5491.56 357.76 5490.78 358.54 5489.22 Z M 330.7 5482.57 328.46 5483.88 329.32 5482.89 330.7 5482.57 Z M 330.7 5482.57 332.23 5481.68 330.88 5482.53 330.7 5482.57 Z M 411.66 5524.99 410.88 5524.21 413.01 5522.78 413.23 5524.35 411.66 5524.99 Z M 341.12 5524.78 350.22 5534.66 350.01 5536.23 348.45 5536.44 341.55 5529.68 339.34 5523.57 341.12 5524.78 Z M 556.87 5252.97 559.43 5259.08 571.45 5272.74 571.45 5275.3 569.67 5277.08 566.54 5277.08 562.77 5275.3 557.65 5266.41 551.89 5262.99 549.76 5259.87 549.76 5256.67 551.32 5254.75 554.66 5251.97 556.87 5252.97 Z M 418.77 4915.73 419.2 4914.95 420.55 4915.16 420.12 4916.16 418.77 4915.73 Z M 402.77 4918.72 404.34 4918.86 400.43 4920.28 400 4921.63 397.01 4920.64 398.01 4917.08 400 4917.72 400 4918.72 400.78 4917.08 401.99 4917.08 402.77 4918.72 Z M 389.9 4913.95 390.12 4913.17 391.32 4913.17 390.68 4915.16 389.76 4914.95 389.9 4913.95 Z M 396.87 4917.08 395.66 4919.5 394.45 4919.5 395.09 4918.08 393.88 4918.29 393.1 4916.94 394.1 4915.73 398.44 4915.52 396.87 4917.08 Z M 370.2 4898.52 368.21 4902.08 369.42 4906.27 371.2 4906.84 372.91 4904.64 376.32 4903.5 374.9 4906.63 372.91 4906.63 371.56 4908.83 369.42 4908.05 367.43 4903.86 367.43 4898.17 370.77 4897.38 370.2 4898.52 Z M 412.87 4895.39 411.09 4895.39 410.88 4894.18 414.01 4894.4 412.87 4895.39 Z M 349.87 4888.85 353.42 4892.41 354.77 4892.19 356.34 4895.61 358.12 4896.39 357.76 4900.51 359.68 4902.5 359.32 4903.29 356.76 4902.5 351.43 4895.18 349.87 4894.82 350.01 4893.4 347.66 4892.26 347.88 4891.05 346.67 4890.49 347.24 4887.5 349.87 4888.85 Z M 459.66 4889.28 459.45 4891.62 455.54 4896.39 451.13 4898.17 445.8 4896.74 449.99 4890.06 456.46 4888.28 459.66 4889.28 Z M 380.66 4906.63 380.02 4908.26 378.24 4907.41 378.88 4905.28 380.87 4904.64 380.66 4906.63 Z M 382.01 4908.26 382.65 4906.06 384.57 4906.06 383.22 4908.83 382.01 4908.26 Z M 387.98 4910.18 391.54 4910.04 391.32 4912.18 392.89 4910.97 393.32 4912.18 395.45 4912.39 392.89 4916.94 390.68 4916.3 392.11 4912.96 387.98 4913.17 387.77 4911.18 385 4910.97 384.57 4909.4 387.34 4908.62 387.98 4910.18 Z M 512.99 4856.63 513.35 4859.41 511 4859.62 510.79 4855.28 512.21 4855.07 512.99 4856.63 Z M 586.45 4845.18 586.1 4844.62 588.66 4844.83 588.44 4845.61 586.45 4845.18 Z M 591.64 4844.4 592.42 4845.61 590.43 4845.18 589.79 4843.62 591.64 4844.4 Z M 287.43 4842.27 286.65 4842.84 285.44 4840.63 287.43 4841.27 287.43 4842.27 Z M 279.89 4837.08 278.69 4838.85 276.13 4839.85 276.55 4836.51 275.34 4835.94 277.76 4835.3 280.32 4836.29 279.89 4837.08 Z M 555.09 4841.84 553.67 4842.06 554.31 4838.5 555.45 4839.07 555.09 4841.84 Z M 585.67 4847.18 580.98 4852.72 579.77 4852.94 580.34 4848.38 583.11 4847.74 584.89 4845.61 585.67 4847.18 Z M 290.56 4849.17 290.21 4848.38 291.56 4846.96 291.56 4849.38 290.56 4849.17 Z M 282.88 4840.06 282.45 4841.27 283.88 4841.06 283.66 4843.83 284.87 4844.4 285.87 4842.62 286.22 4843.83 290.35 4845.82 289.21 4849.17 284.02 4847.39 284.45 4845.04 281.1 4845.97 280.89 4843.62 279.68 4843.05 280.68 4841.63 278.54 4842.27 277.12 4841.49 278.54 4839.49 280.11 4839.71 279.54 4840.63 280.53 4839.49 281.67 4839.49 281.46 4840.49 282.88 4840.06 Z M 276.77 4829.97 277.12 4830.39 274.77 4830.39 274.77 4829.82 276.77 4829.97 Z M 529.78 4827.62 529.21 4828.83 527.64 4828.83 528.99 4826.41 530.35 4826.84 529.78 4827.62 Z M 276.55 4812.26 277.9 4812.26 278.33 4813.04 275.77 4813.04 276.55 4812.26 Z M 275.77 4811.62 276.13 4810.62 278.33 4811.05 278.12 4811.83 275.77 4811.62 Z M 628.34 4812.04 626.77 4814.04 618.66 4818.37 616.53 4822.5 615.11 4822.71 613.9 4819.72 616.53 4818.52 616.53 4817.16 615.11 4817.16 616.32 4815.17 624 4811.62 627.98 4811.05 628.34 4812.04 Z M 606.65 4822.07 602.24 4824.63 602.24 4826.62 602.88 4825.06 604.87 4825.84 605.01 4824.06 606.65 4824.06 606.43 4823.07 608.42 4822.28 610.98 4823.71 611.13 4825.06 609.21 4824.84 608.42 4825.84 606.22 4825.06 605.22 4828.83 602.24 4828.26 600.67 4826.62 600.89 4823.71 604.09 4820.29 608.21 4818.73 606.65 4822.07 Z M 275.56 4824.28 275.34 4822.85 277.12 4822.85 277.76 4824.49 275.56 4824.28 Z M 274.77 4821.93 275.77 4819.72 277.9 4819.72 277.55 4821.93 274.77 4821.93 Z M 613.12 4823.71 612.76 4822.71 609.56 4822.5 610.77 4819.72 609.21 4818.94 611.98 4816.95 614.9 4816.6 613.12 4819.72 613.9 4820.93 613.9 4823.71 613.12 4823.71 Z M 569.67 4817.16 568.67 4818.73 567.54 4818.52 568.1 4815.6 570.31 4815.74 569.67 4817.16 Z M 552.53 4836.51 551.11 4836.72 550.9 4835.51 551.54 4834.37 553.46 4834.16 552.53 4836.51 Z M 595.55 4834.16 593.21 4837.93 591.64 4839.49 592.78 4835.94 596.12 4832.17 595.55 4834.16 Z M 274.99 4834.94 275.56 4833.73 277.9 4834.16 277.9 4834.94 274.99 4834.94 Z M 276.55 4832.74 274.56 4833.52 274.77 4831.6 276.98 4831.6 276.55 4832.74 Z M 500.91 4875.84 501.55 4877.19 500.34 4877.61 500.55 4875.84 500.91 4875.84 Z M 494.79 4875.27 491.23 4877.61 488.32 4877.19 489.67 4875.62 490.1 4872.28 492.09 4874.48 498.2 4872.07 494.79 4875.27 Z M 470.75 4873.63 471.32 4875.62 470.11 4876.19 466.56 4871.71 469.9 4870.93 470.75 4873.63 Z M 323.13 4865.38 324.13 4865.17 326.76 4868.3 327.89 4867.73 327.54 4869.72 330.88 4870.72 331.45 4872.28 332.87 4872.07 332.23 4873.28 335.79 4875.05 335.79 4878.61 337.21 4877.83 336.78 4880.39 338.35 4878.18 338.99 4879.75 340.55 4880.17 340.13 4882.52 341.55 4881.17 344.68 4882.73 344.32 4883.73 345.67 4883.3 347.09 4884.51 345.89 4888.49 345.1 4888.28 346.1 4886.72 344.32 4887.07 341.9 4884.16 336.57 4881.95 335.57 4879.6 333.65 4880.6 334.65 4877.4 332.23 4878.18 331.66 4876.19 328.68 4873.49 329.1 4872.71 327.33 4872.49 327.11 4870.08 325.9 4870.5 325.76 4869.29 324.34 4869.51 324.55 4868.16 323.13 4868.72 322.35 4867.3 320 4866.95 319.43 4864.6 323.13 4865.38 Z M 504.32 4867.3 504.11 4870.72 501.33 4872.49 504.67 4874.63 505.31 4871.28 507.45 4871.28 505.67 4876.83 501.76 4874.06 500.12 4874.63 499.34 4873.06 502.54 4870.93 502.54 4865.52 504.32 4867.3 Z M 317.44 4862.39 319.65 4863.6 316.45 4865.52 314.67 4862.96 315.66 4861.4 317.44 4862.39 Z M 573.65 4853.29 567.54 4861.83 562.2 4866.73 560.99 4866.73 560 4861.97 561.99 4854.5 565.76 4851.73 576 4851.37 576.21 4852.72 573.65 4853.29 Z M 526.79 4866.16 524.87 4866.52 525.87 4866.16 524.87 4865.17 527.64 4863.18 526.79 4866.16 Z M 295.33 4849.17 299.09 4850.16 300.02 4852.15 303.22 4853.93 304.57 4855.85 303.79 4856.85 305 4856.85 306.35 4859.62 311.11 4860.4 309.76 4862.39 311.68 4861.4 315.24 4861.97 310.54 4864.6 308.98 4864.6 309.33 4863.39 307.77 4864.17 308.77 4862.82 305.78 4863.75 302.79 4859.62 303.22 4857.49 301.65 4857.49 301.65 4856.28 299.45 4855.28 299.66 4852.51 297.67 4853.08 297.46 4851.94 294.69 4850.94 294.9 4849.52 294.33 4850.73 292.98 4850.38 292.98 4847.39 293.9 4847.18 293.76 4848.17 295.33 4849.17 Z M 275.98 4798.82 276.34 4798.39 277.55 4798.6 277.12 4799.39 275.56 4799.39 275.98 4798.82 Z M 275.34 4791.28 276.98 4791.28 276.77 4792.27 274.35 4792.27 275.34 4791.28 Z M 274.35 4789.93 274.35 4790.07 276.13 4789.93 276.34 4790.5 273.99 4791.06 273.57 4788.72 275.34 4788.29 274.35 4789.93 Z M 646.68 4796.82 645.12 4798.6 644.12 4798.39 647.32 4794.26 646.68 4796.82 Z M 276.13 4793.62 274.77 4793.84 276.77 4792.49 277.9 4793.27 276.13 4793.62 Z M 658.34 4779.05 657.21 4779.05 656.78 4777.05 658.34 4777.48 658.34 4779.05 Z M 263.89 4769.73 262.9 4770.94 260.77 4771.29 260.77 4768.59 263.33 4768.38 263.89 4769.73 Z M 261.9 4766.39 260.55 4766.6 260.55 4765.96 262.54 4765.82 261.9 4766.39 Z M 662.68 4766.39 662.11 4765.6 663.89 4763.83 664.1 4765.82 662.68 4766.39 Z M 662.54 4763.4 661.9 4765.6 660.33 4765.6 661.76 4760.48 662.54 4763.4 Z M 654.79 4781.96 655.57 4783.74 653.86 4789.29 650.45 4790.71 652.44 4791.28 652.66 4793.84 649.1 4794.83 648.89 4794.05 650.45 4794.05 650.88 4791.85 648.67 4792.63 647.68 4790.85 650.24 4784.95 652.44 4784.38 651.45 4785.94 651.87 4788.72 652.44 4789.5 654.22 4779.83 654.79 4781.96 Z M 267.88 4783.17 268.02 4781.82 270.44 4781.04 269.87 4782.96 267.88 4783.17 Z M 652.44 4781.96 651.09 4783.95 651.23 4781.04 655.21 4773.93 655.57 4776.7 652.44 4781.96 Z M 266.31 4773.29 266.88 4773.93 264.89 4774.28 266.1 4774.71 265.46 4775.49 267.09 4776.06 268.45 4774.07 269.65 4774.07 271.22 4777.27 267.88 4778.41 267.09 4781.96 265.67 4781.96 266.31 4779.4 262.69 4778.62 265.32 4776.27 262.9 4776.49 264.53 4774.49 262.9 4775.49 261.33 4774.71 261.55 4772.29 265.1 4772.29 266.31 4773.29 Z M 262.33 4757.07 262.69 4757.92 260.34 4757.5 260.34 4757.07 262.33 4757.07 Z M 262.69 4754.51 262.54 4755.93 260.34 4755.15 260.34 4754.51 262.69 4754.51 Z M 262.33 4751.81 259.77 4751.17 259.56 4749.18 261.76 4749.18 262.33 4751.81 Z M 663.89 4746.83 662.68 4747.26 662.33 4744.84 664.53 4745.27 663.89 4746.83 Z M 664.32 4738.51 664.89 4741.71 660.55 4745.27 661.12 4735.81 663.53 4735.38 664.32 4738.51 Z M 657.35 4724.14 656.99 4722.51 657.99 4721.73 658.56 4723.29 657.35 4724.14 Z M 660.33 4725.49 660.76 4728.84 658.56 4728.84 657.21 4725.28 658.98 4724.5 660.33 4725.49 Z M 369.56 4725.49 369.21 4727.06 366.79 4726.06 367.22 4724.5 369.56 4725.49 Z M 655.78 4712.48 657.35 4716.61 657.21 4720.16 656 4719.95 654.22 4715.82 651.45 4713.05 649.67 4712.84 649.67 4712.05 653.01 4711.27 655.78 4712.48 Z M 253.66 4701.81 257.78 4701.81 256.21 4701.96 256.21 4703.59 257.99 4712.05 254.44 4715.4 251.88 4715.61 249.32 4707.72 250.24 4705.16 248.54 4704.94 251.88 4702.38 250.1 4702.6 248.68 4701.39 252.66 4700.82 253.66 4701.81 Z M 380.23 4703.59 380.44 4701.96 381.44 4701.96 381.23 4703.73 380.23 4703.59 Z M 260.34 4733.39 261.33 4733.18 263.54 4737.51 262.12 4740.5 262.12 4744.84 258.77 4744.63 257 4739.36 258.99 4738.51 258.56 4736.16 255.43 4736.38 256.21 4733.6 258.99 4732.39 259.77 4733.03 258.77 4734.17 260.34 4733.39 Z M 637.44 4733.39 637.44 4733.03 639.57 4732.39 638.79 4734.38 637.44 4733.39 Z M 258.21 4726.06 259.34 4729.83 260.98 4730.62 255.57 4732.39 255.57 4731.4 257.35 4731.26 254.79 4730.83 255.22 4725.07 258.21 4726.06 Z M 666.09 4760.27 666.88 4761.48 663.32 4763.04 665.1 4758.71 666.09 4758.71 666.09 4760.27 Z M 665.67 4751.38 666.45 4753.37 665.88 4756.72 663.11 4760.27 662.11 4759.06 662.89 4750.39 665.67 4751.38 Z M 362.24 4692.28 362.24 4691.5 363.66 4690.93 363.45 4692.5 362.24 4692.28 Z M 254.79 4686.38 255.01 4688.16 252.02 4688.73 251.66 4685.39 254.79 4686.38 Z M 642.56 4683.61 643.2 4684.39 643.2 4685.95 641.78 4685.81 641.21 4682.26 642.56 4683.61 Z M 644.55 4689.15 644.55 4691.93 643.98 4691.93 643.2 4687.59 644.55 4689.15 Z M 640.78 4677.7 640.78 4679.27 639.78 4679.27 639.22 4675.5 640.78 4677.7 Z M 394.45 4674.93 394.88 4676.71 393.32 4676.71 391.89 4673.72 394.45 4674.93 Z M 311.89 4683.82 310.33 4684.03 310.9 4681.47 312.11 4681.83 311.89 4683.82 Z M 257.99 4673.51 259.34 4677.28 257.21 4680.05 257.57 4683.04 255.79 4683.25 255.57 4682.04 252.23 4681.26 252.23 4679.84 254.01 4678.49 252.87 4676.28 256.21 4674.5 253.44 4673.51 254.22 4672.58 257.99 4673.51 Z M 345.32 4670.17 345.67 4669.38 347.45 4669.38 346.67 4670.81 345.32 4670.17 Z M 504.32 4670.95 503.68 4669.81 505.46 4669.95 505.46 4671.16 504.32 4670.95 Z M 627.34 4650.61 626.98 4649.04 628.9 4649.04 629.12 4650.61 627.34 4650.61 Z M 395.66 4648.83 394.1 4649.83 393.1 4648.26 394.67 4647.48 395.66 4648.83 Z M 623.43 4637.59 623.57 4639.37 625.99 4641.58 623.57 4642.15 620.87 4636.6 623.43 4637.59 Z M 325.33 4637.95 323.98 4638.59 323.98 4636.39 325.55 4636.81 325.33 4637.95 Z M 615.11 4631.69 613.9 4632.62 612.76 4631.27 614.54 4630.06 615.11 4631.69 Z M 603.87 4624.15 607.22 4625.5 607.22 4627.14 605.79 4627.5 601.67 4625.72 600.46 4623.73 603.87 4624.15 Z M 479.22 4624.94 479 4625.72 477.23 4625.5 477.65 4623.73 479.22 4624.94 Z M 432.57 4658.15 432.57 4659.5 429.8 4660.92 428.66 4657.72 430.79 4657.15 432.57 4658.15 Z M 632.53 4653.03 634.24 4655.59 634.1 4657.37 632.32 4657.15 630.11 4653.38 630.33 4652.03 632.53 4653.03 Z M 326.76 4670.95 326.12 4672.58 324.77 4672.16 325.76 4668.39 326.76 4670.95 Z M 639 4667.39 639.22 4672.37 638.65 4673.15 637.22 4665.47 639 4667.39 Z M 646.54 4694.27 654.22 4704.94 652.44 4706.36 647.89 4704.37 644.9 4699.25 644.34 4693.71 646.54 4694.27 Z M 252.23 4699.04 251.45 4699.82 249.89 4698.26 250.67 4698.04 252.23 4699.04 Z M 613.76 4695.84 611.77 4696.27 611.13 4694.91 613.12 4694.49 613.76 4695.84 Z M 582.75 4695.27 582.54 4696.27 580.55 4696.48 579.98 4694.49 582.75 4695.27 Z M 252.87 4694.27 252.23 4695.06 253.23 4696.27 249.32 4696.05 250.24 4693.07 252.87 4694.27 Z M 644.34 4803.3 642.56 4808.06 639.78 4808.27 640.21 4804.15 641.78 4801.73 643.77 4800.95 644.34 4803.3 Z M 485.76 4801.52 484.91 4800.95 485.55 4799.6 486.75 4800.17 485.76 4801.52 Z M 587.23 4612.13 589.44 4614.7 586.88 4615.69 584.32 4611.92 585.67 4611.14 587.23 4612.13 Z M 504.32 4607.37 502.9 4607.58 502.54 4606.16 503.68 4605.95 504.32 4607.37 Z M 571.23 4590.37 571.45 4588.81 573.22 4589.02 573.44 4590.37 571.23 4590.37 Z M 575 4598.69 579.13 4603.39 578.98 4606.37 576.99 4606.8 571.66 4599.69 572.23 4597.7 575 4598.69 Z M 570.66 4585.61 571.66 4586.39 571.66 4588.6 569.1 4587.39 569.1 4583.47 570.66 4585.61 Z M 570.1 4579.28 569.31 4579.71 569.31 4575.72 570.88 4574.59 570.1 4579.28 Z M 573.01 4563.92 572.87 4567.47 572.09 4569.04 570.66 4569.04 571.23 4557.59 572.87 4557.59 572.09 4558.8 573.01 4563.92 Z M 572.23 4555.38 572.23 4556.38 570.88 4556.38 569.88 4552.61 571.23 4552.61 572.23 4555.38 Z M 571.23 4543.58 572.23 4544.93 572.44 4549.91 569.88 4552.47 568.46 4543.58 569.1 4542.37 571.23 4543.58 Z M 460.44 4547.49 459.87 4546.35 461.79 4546.71 461.79 4547.92 460.44 4547.49 Z M 460.44 4538.6 459.87 4537.6 461.01 4536.82 461.79 4538.24 460.44 4538.6 Z M 568.67 4535.26 568.89 4536.47 570.66 4536.61 569.46 4539.38 565.76 4538.24 564.76 4532.91 562.98 4530.71 563.55 4528.93 567.68 4527.36 568.67 4535.26 Z M 570.31 4511.93 566.68 4513.71 569.46 4518.47 569.1 4520.04 570.66 4521.25 568.89 4523.59 568.46 4522.39 566.54 4522.39 564.55 4512.14 570.31 4511.93 Z M 564.34 4508.8 563.77 4510.79 562.2 4507.24 563.34 4507.24 564.34 4508.8 Z M 417.35 4489.6 418.56 4489.03 418.99 4490.45 417.78 4490.45 417.35 4489.6 Z M 402.35 4471.04 403.56 4472.25 403.98 4473.6 402.35 4473.81 400 4470.26 402.35 4471.04 Z M 548.34 4450.7 550.33 4454.04 548.76 4456.82 546.35 4449.92 548.34 4450.7 Z M 387.2 4456.25 390.12 4456.46 392.68 4460.37 392.89 4462.79 391.11 4463.15 390.68 4460.59 388.55 4461.37 384.78 4455.68 387.77 4454.47 388.34 4455.68 387.2 4456.25 Z M 384.78 4454.47 385 4453.26 387.2 4452.9 387.34 4453.9 384.78 4454.47 Z M 406.54 4448.57 406.12 4447.14 408.53 4447.36 407.89 4448.57 406.54 4448.57 Z M 387.56 4444.8 386.77 4445.94 384.43 4445.15 385.21 4443.8 387.56 4444.8 Z M 393.67 4439.82 393.1 4439.04 392.11 4438.47 394.1 4438.04 394.67 4439.46 393.67 4439.82 Z M 386.56 4451.13 386.99 4452.12 384 4452.12 384.43 4451.13 386.56 4451.13 Z M 432 4450.91 431.22 4452.26 429.44 4451.34 430.01 4449.35 432 4450.91 Z M 433.21 4434.34 433.35 4435.91 431.79 4436.12 431.22 4432.92 432.21 4432.71 433.21 4434.34 Z M 439.11 4433.56 439.54 4432.57 440.89 4432.71 440.46 4433.7 439.11 4433.56 Z M 498.77 4425.45 497.56 4426.59 495.79 4424.6 497.56 4424.46 498.77 4425.45 Z M 507.87 4417.49 506.45 4417.92 506.1 4416.92 507.23 4416.35 507.87 4417.49 Z M 478.43 3781.85 478.22 3780.64 479.79 3779.07 479 3781.85 478.43 3781.85 Z M 475.66 3779.29 476.44 3780.64 473.1 3779.43 473.1 3778.43 475.66 3779.29 Z M 461.65 3768.19 460.23 3769.19 460.44 3770.54 458.45 3769.4 460.87 3766.77 462.22 3767.2 461.65 3768.19 Z M 464.57 3767.98 462.79 3768.98 462.65 3767.2 463.22 3766.98 464.57 3767.98 Z M 466.99 3772.74 468.34 3772.53 470.54 3774.52 473.88 3773.53 472.32 3778.29 470.9 3778.43 471.32 3777.08 470.11 3777.51 467.98 3776.3 467.77 3774.88 464.43 3773.74 464.57 3770.97 465.78 3770.54 465.56 3771.96 466.99 3772.74 Z M 608.99 3762.29 607.43 3762.65 607.22 3762.08 608.42 3760.87 608.99 3762.29 Z M 604.66 3764.21 604.09 3764.64 603.09 3764.64 603.87 3763.07 604.87 3763.22 604.66 3764.21 Z M 551.68 3765.99 550.11 3766.42 550.11 3764.99 551.54 3765.21 551.68 3765.99 Z M 548.98 3765.85 546.77 3766.2 545.35 3764.85 546.56 3765.42 548.98 3765.85 Z M 606.65 3762.29 607.43 3763.07 605.65 3763.64 604.87 3761.08 606.65 3762.29 Z M 457.46 3763.22 456.89 3763.86 454.75 3763.64 455.89 3761.86 457.67 3761.86 457.46 3763.22 Z M 546.99 3761.65 548.34 3763.86 547.55 3764.99 545.99 3764.21 544.43 3761.08 546.99 3761.65 Z M 503.32 3787.32 503.11 3785.19 503.68 3784.41 503.89 3786.97 503.32 3787.32 Z M 512.99 3790.31 512 3789.74 512.21 3788.53 514.35 3790.1 512.99 3790.31 Z M 510.65 3787.75 511.57 3789.74 508.23 3789.74 508.23 3787.32 510.65 3787.75 Z M 526.65 3785.19 526.01 3786.54 523.23 3787.75 522.24 3790.31 517.55 3788.96 514.56 3789.53 513.99 3788.53 514.56 3785.76 519.32 3785.55 520.11 3784.19 523.87 3784.76 525.44 3783.2 526.65 3785.19 Z M 540.02 3774.74 540.66 3776.66 531.98 3781.85 535.11 3785.55 532.12 3784.98 527.64 3787.96 526.65 3789.88 526.43 3787.32 528 3784.76 527 3780.21 528 3778.43 534.33 3773.74 540.02 3774.74 Z M 484.12 3782.63 482.56 3783.2 481.99 3780.64 484.34 3780.43 484.12 3782.63 Z M 484.91 3784.41 485.55 3781.21 486.54 3780.85 485.9 3783.63 484.91 3784.41 Z M 488.89 3783.63 489.1 3785.55 486.75 3785.19 487.32 3781.85 489.67 3781.63 488.89 3783.63 Z M 509.65 3783.98 508.44 3784.41 506.24 3782.99 510.43 3782.63 509.65 3783.98 Z M 501.55 3786.19 500.76 3785.19 502.33 3783.77 502.33 3784.98 501.55 3786.19 Z M 499.77 3783.2 499.98 3785.4 499.2 3786.19 498.2 3785.19 498.77 3782.42 502.33 3782.2 499.77 3783.2 Z M 496.21 3781.42 494.79 3784.76 492.44 3783.63 491.87 3784.98 490.67 3784.19 489.88 3785.55 490.1 3783.41 492.09 3782.99 494.01 3780.07 496.78 3780.07 496.21 3781.42 Z M 442.67 3745.29 441.46 3745.86 440.46 3744.65 442.45 3744.08 442.67 3745.29 Z M 441.46 3743.52 440.68 3744.3 439.68 3744.3 440.68 3742.09 441.46 3743.52 Z M 434.56 3713.86 434.56 3715.21 432.21 3717.06 430.65 3714.64 427.45 3714.64 427.24 3712.51 431 3712.86 433.35 3711.3 434.56 3713.86 Z M 440.11 3697.43 440.32 3700.85 439.54 3700.99 438.76 3698.29 439.68 3694.73 440.11 3697.43 Z M 627.55 3743.09 626.34 3744.87 624.78 3743.87 625.21 3742.88 626.56 3743.09 626.56 3741.1 627.98 3741.31 627.55 3743.09 Z M 441.32 3739.96 441.46 3740.74 437.55 3741.74 439.32 3738.96 440.68 3738.54 441.32 3739.96 Z M 443.24 3669.06 444.66 3665.29 445.65 3665.29 444.44 3668.42 443.24 3669.06 Z M 642.56 3667.63 641.99 3667.42 641.78 3665.29 642.98 3666.07 642.56 3667.63 Z M 640.99 3648.29 640.21 3649.5 642.56 3652.2 645.33 3653.41 643.55 3657.39 644.9 3660.1 643.77 3660.52 644.55 3661.3 642.77 3662.3 642.77 3663.51 639.78 3662.09 640.99 3657.18 638.79 3649.86 639.57 3646.09 640.99 3646.73 640.99 3648.29 Z M 477.23 3639.97 479 3639.61 479 3640.4 476.44 3641.53 477.23 3639.97 Z M 641.21 3638.41 642.77 3638.97 641.21 3639.76 643.2 3641.75 643.2 3643.74 640.99 3642.74 639.43 3644.17 637.44 3641.39 638.79 3640.61 638.43 3637.62 639.57 3636.84 640 3638.41 641.21 3638.41 Z M 638.22 3635.06 637.65 3631.86 639.22 3631.51 639.43 3635.06 638.22 3635.06 Z M 642.98 3672.97 645.33 3672.97 649.1 3674.96 651.45 3681.64 651.23 3685.98 643.98 3699.42 644.55 3700.21 642.98 3701.2 640.57 3706.18 640.21 3710.73 636.44 3717.84 635.45 3717.98 636.66 3721.54 635.45 3725.88 637.22 3728.3 631.68 3724.95 632.32 3728.3 631.11 3732.21 631.89 3733.2 629.9 3736.97 630.75 3738.32 629.76 3738.32 625.42 3736.55 627.34 3733.42 629.12 3726.09 631.32 3724.53 631.32 3720.76 635.45 3713.86 638.43 3705.75 640.78 3693.09 642.2 3669.84 643.2 3670.41 642.98 3672.97 Z M 439.54 3690.32 438.12 3691.53 437.76 3688.97 438.54 3688.97 439.54 3690.32 Z M 639 3607.4 637.01 3608.75 638.65 3610.74 640 3616.07 636.23 3616.5 634.88 3608.61 637.01 3606.4 639 3607.4 Z M 637.86 3601.64 637.01 3603.2 636.09 3603.06 636.23 3599.5 637.44 3599.5 637.86 3601.64 Z M 637.86 3596.73 637.44 3598.3 635.66 3598.51 636.09 3595.74 637.86 3596.73 Z M 642.2 3586.28 642.77 3588.2 641.21 3589.19 641.78 3590.19 640.57 3593.18 638.79 3595.17 637.22 3595.17 637.22 3589.97 639.43 3590.4 638.65 3589.05 641.21 3588.41 639 3585.42 640.21 3584.85 640.78 3586.42 642.2 3586.28 Z M 647.54 3560.39 647.68 3565.3 644.55 3572.41 642.98 3572.62 646.33 3575.4 644.12 3576.75 644.55 3579.73 643.55 3581.73 641.99 3581.87 640.99 3581.51 640.57 3577.53 641.56 3576.18 641.42 3572.84 642.77 3572.62 645.33 3565.3 644.34 3559.61 646.54 3558.97 647.54 3560.39 Z M 642.56 3586.28 640.21 3584.07 640.99 3582.86 643.77 3583.29 643.55 3585.85 642.56 3586.28 Z M 639.43 3583.08 638.79 3581.87 638.79 3580.52 640.42 3582.29 639.43 3583.08 Z M 645.76 3550.72 644.12 3551.86 642.2 3551.5 641.78 3550.08 644.12 3549.08 645.76 3550.72 Z M 675.2 3540.98 673.21 3545.53 662.89 3549.94 657.77 3554.06 656.21 3556.98 652.66 3557.62 652.87 3553.28 650.66 3548.73 654.22 3546.95 666.88 3544.39 671 3541.83 673.77 3538.06 675.2 3540.98 Z M 637.86 3628.31 636.66 3620.2 639 3620.06 638.79 3629.3 637.86 3628.31 Z M 514.99 3620.63 512.57 3620.98 512.43 3620.06 513.78 3618.63 514.99 3620.63 Z M 453.55 3759.87 452.55 3760.65 451.77 3760.65 452.76 3758.73 454.54 3758.73 453.55 3759.87 Z M 452.34 3751.41 452.55 3752.19 450.56 3751.98 448 3754.18 450.56 3750.41 452.34 3751.41 Z M 459.87 3757.74 459.09 3758.52 457.88 3756.96 458.45 3756.74 459.87 3757.74 Z M 453.12 3755.53 451.98 3755.32 449.21 3757.53 450.77 3754.97 454.12 3753.97 453.12 3755.53 Z M 457.1 3756.32 455.32 3756.32 455.11 3754.75 456.89 3755.18 457.1 3756.32 Z M 535.89 3761.29 536.11 3762.43 537.67 3764.99 535.32 3764.42 533.55 3762.43 534.54 3759.52 535.89 3761.29 Z M 584.67 3757.31 581.33 3759.09 580.34 3763.29 574.43 3763.07 574.22 3759.52 577.78 3759.52 583.89 3755.53 585.46 3755.75 584.67 3757.31 Z M 554.66 3759.3 554.88 3760.51 555.45 3761.51 553.31 3758.73 553.46 3757.31 554.66 3759.3 Z M 539.23 3759.52 537.46 3759.52 539.09 3757.31 539.87 3757.88 539.23 3759.52 Z M 622.01 3742.31 621.22 3745.86 613.33 3755.75 607.78 3759.73 604.23 3759.09 604.66 3757.1 612.55 3752.55 613.76 3750.77 613.33 3749.21 614.54 3749.21 619.45 3743.73 620.87 3740.32 622.01 3742.31 Z M 237.02 3495.18 237.87 3496.17 234.24 3495.96 235.45 3493.97 237.02 3495.18 Z M 334.79 3490.27 340.34 3493.19 341.55 3494.96 343.54 3494.61 344.11 3496.74 342.33 3498.52 339.13 3498.52 334.65 3495.75 331.88 3491.41 334.65 3493.61 332.45 3490.06 333.65 3489.27 334.79 3490.27 Z M 327.54 3497.52 329.89 3500.72 329.1 3502.86 326.12 3501.29 321.99 3501.51 323.98 3496.53 327.54 3497.52 Z M 240.78 3498.52 243.34 3499.16 242.56 3501.08 239.43 3500.08 240 3498.16 238.79 3498.52 239.22 3496.95 240.78 3498.52 Z M 351.43 3490.62 353 3493.4 349.23 3494.39 347.45 3491.62 348.09 3489.63 349.44 3489.27 351.43 3490.62 Z M 403.56 3458.27 402.56 3457.41 404.55 3456.28 404.55 3457.63 403.56 3458.27 Z M 362.24 3483.3 361.67 3484.08 365.23 3483.3 366.01 3483.94 360.32 3488.28 361.1 3488.85 359.11 3489.63 356.12 3488.85 356.12 3487.07 357.9 3487.28 358.54 3484.3 361.67 3482.16 362.88 3482.73 362.24 3483.3 Z M 364.66 3482.73 363.45 3483.16 363.45 3481.74 365.44 3480.74 365.87 3482.3 364.66 3482.73 Z M 411.24 3453.93 410.67 3455.07 409.46 3454.5 407.54 3455.71 406.9 3453.5 410.45 3450.94 411.24 3453.93 Z M 414.01 3449.16 413.23 3449.73 411.88 3449.73 414.44 3447.17 414.01 3449.16 Z M 416.78 3445.82 415.79 3444.83 417.99 3444.04 418.2 3445.61 416.78 3445.82 Z M 420.98 3441.41 421.9 3440.84 421.76 3443.05 420.34 3441.84 420.98 3441.41 Z M 211.34 3438.07 212.13 3439.28 210.56 3439.28 210.56 3441.41 207.43 3440.49 207.79 3437.29 211.34 3438.07 Z M 440.32 3433.94 439.32 3434.3 437.55 3431.6 440.32 3430.82 440.32 3433.94 Z M 418.99 3443.4 420.12 3442.41 419.98 3444.61 418.99 3444.61 418.99 3443.4 Z M 453.55 3423.49 453.55 3422.5 455.54 3421.5 455.68 3424.06 453.55 3423.49 Z M 460.23 3419.72 459.87 3418.37 461.65 3417.52 461.65 3419.29 460.23 3419.72 Z M 465.99 3415.74 465.99 3415.95 464.21 3415.95 466.35 3414.17 465.99 3415.74 Z M 200.11 3400.16 201.32 3409.27 202.67 3409.41 201.46 3411.19 198.12 3410.26 196.55 3402.94 197.34 3398.96 198.76 3398.6 200.11 3400.16 Z M 488.11 3399.95 489.1 3401.37 488.53 3402.51 486.75 3401.73 484.34 3403.51 481.99 3403.29 482.2 3400.95 484.55 3399.17 488.11 3399.95 Z M 220.09 3407.49 219.1 3410.41 216.89 3410.83 216.68 3407.49 218.88 3406.28 220.09 3406.28 220.09 3407.49 Z M 475.87 3408.06 475.09 3409.41 474.1 3409.41 476.87 3406.49 475.87 3408.06 Z M 471.54 3412.04 470.33 3413.18 468.12 3412.97 470.75 3410.05 472.11 3410.41 471.54 3412.04 Z M 219.1 3422.85 218.46 3424.84 219.66 3426.41 218.46 3428.18 215.11 3427.26 215.33 3422.5 219.1 3422.85 Z M 503.54 3386.72 503.54 3388.29 497.78 3394.05 495 3393.62 496.21 3388.93 498.56 3388.07 499.77 3386.15 500.91 3386.72 502.54 3383.38 503.54 3386.72 Z M 518.11 3373.28 517.9 3374.06 516.34 3373.71 516.55 3376.84 513.56 3377.26 515.55 3372.07 518.11 3373.28 Z M 193.99 3372.07 193.57 3373.71 192.78 3370.94 193.42 3371.15 193.99 3372.07 Z M 512.21 3377.48 511.57 3381.96 510.22 3382.17 508.66 3379.26 511.22 3376.27 511.22 3374.7 512.21 3377.48 Z M 193.42 3369.51 192.57 3368.38 192.57 3367.59 193.99 3368.73 193.42 3369.51 Z M 507.45 3317.95 513.21 3330.83 515.77 3346.61 517.55 3348.82 515.34 3362.61 514.56 3362.05 513.56 3338.15 511 3328.05 505.46 3316.96 507.45 3317.95 Z M 482.99 3284.6 482.2 3285.6 481.21 3282.82 482.35 3283.25 482.99 3284.6 Z M 481.21 3281.61 480.43 3281.83 480 3279.83 481.21 3280.47 481.21 3281.61 Z M 479.22 3273.72 480.57 3276.49 477.65 3277.84 475.23 3276.07 474.67 3272.51 478.43 3272.37 479.22 3273.72 Z M 442.31 3273.15 439.54 3273.72 438.33 3272.51 441.1 3271.94 442.31 3273.15 Z M 424.32 3266.82 422.9 3267.82 423.54 3264.83 424.11 3264.83 424.32 3266.82 Z M 420.76 3263.05 418.77 3263.05 418.56 3261.7 420.55 3262.06 420.76 3263.05 Z M 248.89 3255.37 248.32 3254.38 250.24 3254.38 250.1 3255.16 248.89 3255.37 Z M 385.35 3250.82 385 3249.25 386.77 3248.83 386.56 3250.61 385.35 3250.82 Z M 369 3244.13 367.43 3244.49 367.43 3241.93 369.21 3242.29 369 3244.13 Z M 383 3250.04 382.44 3248.61 384 3247.83 384.21 3249.4 383 3250.04 Z M 337.57 3236.17 335.57 3236.81 328.68 3235.17 331.66 3233.82 337 3233.82 338.35 3234.6 337.57 3236.17 Z M 157.8 3141.94 160.78 3143.93 161 3145.5 157.02 3143.72 155.66 3141.16 157.8 3141.94 Z M 183.9 3152.46 185.89 3155.03 185.89 3158.37 179.56 3157.37 178.99 3155.38 181.34 3152.25 182.9 3151.47 183.9 3152.46 Z M 213.12 3146.49 210.99 3149.48 208 3150.69 207.01 3154.03 205.8 3154.24 204.87 3151.47 205.44 3149.48 208 3149.05 214.54 3145.14 213.12 3146.49 Z M 236.09 3137.03 235.45 3138.6 228.91 3139.59 231.54 3136.25 236.09 3137.03 Z M 153.1 3136.82 153.67 3139.02 151.68 3138.03 150.9 3135.61 152.11 3135.47 153.1 3136.82 Z M 246.33 3128.57 246.9 3131.13 244.77 3131.91 245.55 3128.14 247.11 3127.15 246.33 3128.57 Z M 251.45 3125.58 249.32 3128.14 247.54 3127.93 252.02 3123.8 251.45 3125.58 Z M 262.54 3115.91 260.34 3118.26 258.35 3118.26 259.34 3115.13 262.54 3115.91 Z M 273.57 3099.27 274.21 3100.91 269.23 3110.79 267.09 3113.35 264.68 3113.14 264.68 3110.79 266.45 3111.15 269.23 3107.8 272.21 3098.27 273.57 3099.27 Z M 179.13 3099.7 177.78 3100.05 177.42 3098.49 179.13 3098.27 179.13 3099.7 Z M 179.34 3113.92 178.21 3113.92 177.99 3112.14 179.34 3112.36 179.34 3113.92 Z M 272.78 3096.5 273.78 3093.79 275.56 3093.37 275.34 3096.71 272.78 3096.5 Z M 276.55 3088.46 274.35 3088.6 274.35 3085.83 276.77 3086.68 276.55 3088.46 Z M 277.12 3079.71 276.98 3080.71 274.99 3080.35 275.2 3075.37 277.33 3075.59 277.12 3079.71 Z M 563.13 3067.48 564.12 3069.26 560.99 3068.05 561.35 3066.48 563.13 3067.48 Z M 277.12 3065.92 277.55 3068.69 276.13 3069.05 275.77 3063.92 277.12 3064.14 277.12 3065.92 Z M 562.98 3076.16 561.21 3083.48 559.22 3085.47 557.65 3085.47 559 3089.24 556.66 3089.81 557.01 3086.47 555.09 3083.91 556.44 3083.91 556.02 3082.7 559 3078.15 559 3074.24 560.57 3071.82 560.57 3069.69 563.13 3069.69 562.98 3076.16 Z M 521.67 3073.81 522.67 3076.16 524.87 3077.79 524.23 3079.71 522.88 3079.93 523.09 3081.13 524.44 3081.35 523.66 3082.91 521.88 3081.7 520.11 3073.38 520.53 3069.83 521.46 3069.83 521.67 3073.81 Z M 278.12 3071.82 277.76 3074.24 275.77 3074.24 275.2 3069.69 277.33 3069.69 278.12 3071.82 Z M 574.65 3050.27 573.65 3052.47 572.23 3052.47 575.22 3048.14 574.65 3050.27 Z M 578.77 3046.15 579.34 3044.79 581.33 3043.37 580.12 3046.71 578.34 3046.93 578.77 3046.15 Z M 584.32 3041.59 585.1 3041.03 584.89 3042.59 583.68 3043.02 584.32 3041.59 Z M 637.65 3027.16 638.22 3025.59 639 3025.24 639 3027.37 637.65 3027.16 Z M 567.54 3061.58 566.54 3062.72 566.68 3066.27 563.34 3067.12 563.77 3064.14 564.98 3063.57 566.9 3058.24 567.89 3058.8 567.54 3061.58 Z M 275.77 3063.36 276.13 3060.8 277.33 3060.37 277.33 3063.36 275.77 3063.36 Z M 144.22 3002.12 144 3005.82 141.44 3006.46 141.23 3001.13 144.22 3002.12 Z M 667.87 3004.47 666.31 3006.25 667.23 2999.35 668.44 2999.71 667.87 3004.47 Z M 277.33 3005.68 277.12 3006.25 274.77 3006.04 275.77 3004.26 277.55 3004.68 277.33 3005.68 Z M 654.01 3024.24 654.22 3021.47 655.43 3021.04 655.57 3023.6 654.01 3024.24 Z M 152.68 3021.68 152.32 3023.03 147.35 3024.24 144.57 3022.46 148.98 3020.69 152.68 3021.68 Z M 651.45 3022.82 651.23 3021.47 652.66 3021.04 652.23 3022.82 651.45 3022.82 Z M 669.86 2996.01 670.01 2997.93 667.66 2998.78 668.01 2992.24 669.22 2992.81 669.86 2996.01 Z M 527.64 2995.37 526.01 2993.38 528.43 2992.03 529.35 2995.23 527.64 2995.37 Z M 669.86 2990.25 669.22 2990.03 670.43 2988.04 670.65 2989.47 669.86 2990.25 Z M 164.34 2985.48 161.78 2985.48 161.57 2983.56 163.98 2983.56 164.34 2985.48 Z M 177 2979.79 177.42 2980.93 175.65 2981.36 174.01 2979.01 177 2979.79 Z M 277.76 2976.02 276.77 2976.81 276.77 2974.46 278.69 2974.82 277.76 2976.02 Z M 185.46 2974.67 186.1 2976.45 184.32 2976.81 182.12 2975.81 181.76 2974.03 185.46 2974.67 Z M 675.55 2973.68 672.78 2977.45 670.43 2983.92 668.01 2984.13 670.43 2980.79 670.79 2974.67 674.34 2972.68 675.55 2973.68 Z M 635.09 3026.23 635.23 3024.81 636.23 3024.03 636.09 3028.37 635.09 3028.37 635.09 3026.23 Z M 642.98 3024.24 642.56 3026.59 639.78 3025.24 639.78 3024.45 641.99 3024.6 641.21 3022.04 642.98 3024.24 Z M 650.1 3025.59 649.67 3025.59 649.46 3023.03 650.45 3024.24 650.1 3025.59 Z M 276.55 3024.03 274.77 3024.24 275.77 3023.25 275.2 3022.25 276.34 3022.46 276.55 3024.03 Z M 650.45 3021.68 650.1 3022.68 649.88 3020.47 651.09 3020.69 650.45 3021.68 Z M 230.54 2970.12 229.76 2969.91 230.33 2967.35 231.11 2967.92 230.54 2970.12 Z M 198.54 2959.03 197.12 2959.67 195.98 2957.89 197.9 2957.46 198.54 2959.03 Z M 253.23 2965.57 253.02 2968.13 250.67 2968.49 249.32 2967.35 250.1 2964.79 251.66 2964.36 253.23 2965.57 Z M 686.65 2950.92 685.22 2955.47 682.88 2957.46 683.09 2952.13 686.01 2947.79 687.21 2948.93 686.65 2950.92 Z M 248.68 2952.7 246.9 2952.91 246.69 2951.7 248.54 2951.13 248.68 2952.7 Z M 221.23 2948.57 219.66 2948.93 219.1 2947.58 220.87 2947.01 221.23 2948.57 Z M 252.45 2943.24 250.67 2943.81 250.1 2942.46 252.23 2941.04 253.02 2941.46 252.45 2943.24 Z M 269.01 2936.7 268.02 2937.12 268.02 2936.13 270.01 2934.71 270.65 2936.48 269.01 2936.7 Z M 264.11 2922.47 263.54 2923.47 261.76 2923.68 263.33 2920.91 264.11 2922.47 Z M 257.99 2919.7 258.56 2917.57 259.56 2917.57 259.34 2919.91 257.99 2919.7 Z M 697.31 2905.9 697.45 2902.13 698.45 2900.93 698.31 2906.12 697.31 2905.9 Z M 673.99 2956.68 678.33 2961.02 678.54 2963.79 676.12 2965.36 674.34 2964.15 674.77 2962.37 673.21 2960.24 669.65 2958.25 671.78 2955.26 673.99 2956.68 Z M 181.9 2880.23 182.76 2883.36 181.12 2885.14 178.56 2884.78 176 2881.23 176.22 2880.23 179.34 2879.02 181.9 2880.23 Z M 209.21 2875.68 209.42 2877.03 207.58 2878.03 201.46 2877.81 203.1 2876.03 207.01 2874.68 209.21 2875.68 Z M 225.42 2868.57 224.78 2869.35 224 2869.14 226.21 2867.78 225.42 2868.57 Z M 234.67 2865.22 232.89 2867 229.34 2867.36 233.1 2863.59 234.88 2863.59 234.67 2865.22 Z M 713.45 2863.02 712.46 2865.79 711.53 2865.79 711.68 2862.02 712.89 2861.67 713.45 2863.02 Z M 714.45 2856.12 714.31 2858.9 712.32 2861.24 710.54 2861.67 712.32 2858.68 710.75 2855.34 714.45 2856.12 Z M 666.88 2846.66 666.09 2848.44 664.32 2848.44 665.45 2845.03 667.23 2845.24 666.88 2846.66 Z M 661.9 2842.47 658.98 2843.68 658.98 2840.69 661.54 2840.69 661.9 2842.47 Z M 248.11 2835.78 249.1 2839.69 244.55 2837.92 245.9 2835 248.11 2835.78 Z M 271.65 2826.25 270.65 2827.11 270.65 2825.33 272.21 2824.9 271.65 2826.25 Z M 287.65 2770.36 287.22 2772.35 281.32 2770.78 281.89 2769 285.01 2767.79 287.01 2768.22 287.65 2770.36 Z M 141.87 2749.45 140.23 2748.66 140.66 2747.67 142.23 2748.45 141.87 2749.45 Z M 242.35 2748.66 242.21 2747.67 243.77 2748.24 243.77 2749.02 242.35 2748.66 Z M 130.78 2739.13 130.78 2740.34 127.65 2742.76 129.35 2737.57 130.78 2739.13 Z M 261.76 2729.46 260.98 2731.24 258.35 2729.68 259.77 2727.68 261.76 2728.33 261.76 2729.46 Z M 593.21 2698.46 591.78 2698.67 591 2696.68 593.21 2696.68 593.21 2698.46 Z M 626.77 2678.12 625.99 2677.9 626.56 2677.12 631.11 2676.34 629.76 2678.54 626.77 2678.12 Z M 570.31 2656.43 570.66 2655.57 571.87 2655.57 571.09 2657.56 569.88 2657.35 570.31 2656.43 Z M 794.88 2642.34 795.23 2643.55 794.31 2643.98 792.1 2641.35 794.88 2642.34 Z M 798 2596.33 799 2599.89 798.43 2602.45 797.22 2601.1 796.23 2593.2 798 2596.33 Z M 650.66 2593.42 648.32 2594.34 648.1 2591.57 651.45 2591.43 650.66 2593.42 Z M 649.1 2586.45 646.9 2587.44 645.33 2586.09 646.68 2584.31 648.67 2584.31 649.1 2586.45 Z M 135.54 2583.67 132.77 2584.46 131.35 2584.1 131.99 2583.1 136.54 2582.89 135.54 2583.67 Z M 156.66 2583.89 157.02 2586.09 155.24 2587.23 153.67 2585.66 153.46 2581.11 155.66 2580.54 156.66 2583.89 Z M 145.78 2581.9 146.21 2584.31 142.23 2585.66 139.24 2585.1 137.89 2583.1 138.67 2581.33 141.66 2580.12 144.79 2580.33 145.78 2581.9 Z M 166.9 2579.76 167.68 2579.34 167.54 2580.9 165.55 2581.75 164.77 2579.12 165.55 2580.33 166.9 2579.76 Z M 107.24 2573.65 105.11 2575 101.34 2572.22 105.89 2572.22 107.24 2573.65 Z M 637.44 2571.09 635.87 2571.09 634.66 2571.44 636.23 2570.09 638.79 2569.88 637.44 2571.09 Z M 210.35 2538.66 207.01 2545.2 198.33 2555.08 208.43 2537.31 209.57 2537.09 210.35 2538.66 Z M 59.45 2533.89 59.1 2535.67 57.89 2532.54 58.46 2532.54 59.45 2533.89 Z M 60.09 2515.54 58.31 2517.32 56.11 2515.12 58.31 2514.55 60.09 2515.54 Z M 186.46 2565.75 183.11 2569.31 181.34 2570.09 183.9 2566.11 187.66 2563.97 186.46 2565.75 Z M 188.09 2565.11 188.09 2564.12 189.02 2564.54 190.79 2562.77 188.87 2565.75 188.09 2565.11 Z M 195.98 2513.34 195.98 2514.19 193.99 2513.77 193.78 2512.41 195.98 2513.34 Z M 189.44 2510.42 187.66 2510.21 188.23 2508.65 189.23 2508.86 189.44 2510.42 Z M 175.65 2500.32 174.44 2499.33 175.43 2498.19 176.43 2498.97 175.65 2500.32 Z M 612.34 2501.11 610.98 2498.33 613.9 2496.77 613.76 2499.97 612.34 2501.11 Z M 187.24 2494 187.24 2492.64 188.87 2491.86 187.88 2494.21 187.24 2494 Z M 227.34 2490.65 226.35 2492.43 224.78 2488.88 225.78 2486.88 227.98 2487.67 227.34 2490.65 Z M 187.66 2490.08 185.89 2489.87 185.89 2488.88 188.23 2488.09 187.66 2490.08 Z M 109.66 2576.99 108.66 2577.2 107.67 2575.57 109.66 2576.21 109.66 2576.99 Z M 173.44 2576.56 170.46 2579.12 168.46 2579.55 170.46 2576.99 176.43 2573.22 173.44 2576.56 Z M 120.32 2576.78 121.46 2578.77 117.12 2579.34 116.77 2580.33 115.99 2578.34 113.21 2578.77 112 2577.77 112.43 2576.21 120.32 2576.78 Z M 642.77 2574.64 640.21 2576.21 638.43 2576.21 641.21 2573.01 643.2 2573.01 642.77 2574.64 Z M 230.76 2471.1 227.77 2471.66 226.78 2470.1 229.34 2469.74 230.76 2471.1 Z M 519.11 2468.54 519.32 2469.32 517.55 2469.53 516.55 2467.54 519.11 2468.54 Z M 603.87 2463.56 604.44 2461.64 605.65 2461.64 606.01 2463.2 603.87 2463.56 Z M 225 2456.09 226.21 2455.52 227.34 2455.52 226.78 2456.87 224 2457.44 225 2456.09 Z M 97.21 2448.2 97.43 2446.42 98.56 2446.42 98.78 2447.56 97.21 2448.2 Z M 556.44 2437.1 556.23 2438.1 552.53 2438.67 551.11 2436.89 555.23 2436.11 556.44 2437.1 Z M 49.57 2434.76 48.57 2435.54 48 2433.76 49.57 2433.97 49.57 2434.76 Z M 51.77 2422.1 54.12 2426.65 50.99 2428.85 50 2420.75 50.78 2420.32 51.77 2422.1 Z M 66.78 2396.42 66.56 2394.86 68.34 2395.21 68.55 2396.64 66.78 2396.42 Z M 238.79 2383.41 235.45 2384.4 233.67 2382.41 237.23 2381.77 238.79 2382.2 238.79 2383.41 Z M 205.02 2370.54 203.88 2370.32 203.45 2369.54 206.65 2369.75 205.02 2370.54 Z M 66.99 2363.07 65.99 2361.86 67.35 2361.08 67.99 2362.86 66.99 2363.07 Z M 232.89 2357.52 234.24 2357.74 233.32 2359.87 230.12 2359.51 227.56 2357.74 229.55 2356.88 232.89 2357.52 Z M 51.77 2354.96 50.78 2354.96 51.35 2352.19 51.99 2352.19 51.77 2354.96 Z M 551.89 2344.08 551.54 2345.86 549.54 2346.64 550.68 2342.09 551.89 2344.08 Z M 228.91 2316.63 230.12 2318.2 228.13 2318.76 223.43 2316.99 224.43 2315.99 228.91 2316.63 Z M 583.32 2314.07 583.11 2318.62 580.76 2319.4 582.54 2308.88 583.89 2309.73 583.32 2314.07 Z M 68.55 2354.75 67.13 2354.75 67.13 2354.18 68.91 2353.97 68.55 2354.75 Z M 584.67 2307.53 583.68 2307.53 584.1 2304.97 585.31 2305.54 584.67 2307.53 Z M 584.32 2303.97 583.89 2299.99 584.67 2299.42 585.1 2302.98 584.32 2303.97 Z M 226.99 2298.85 227.56 2299.85 226.35 2299.85 225.21 2297.43 226.99 2298.85 Z M 520.89 2297.64 520.53 2299.06 517.33 2297.86 519.11 2296.08 520.32 2296.08 520.89 2297.64 Z M 65.21 2292.52 65 2293.09 63.79 2292.74 64.79 2291.31 65.78 2291.74 65.21 2292.52 Z M 127.79 2291.53 126.65 2290.53 127.43 2289.18 128.57 2290.74 127.79 2291.53 Z M 56.47 2482.55 58.46 2484.11 53.76 2482.55 53.76 2481.55 56.47 2482.55 Z M 62.01 2482.97 60.87 2482.76 60.87 2480.41 62.23 2481.55 62.01 2482.97 Z M 225.78 2481.55 225 2480.55 227.56 2480.77 227.56 2481.76 225.78 2481.55 Z M 102.33 2481.19 100.91 2481.55 101.76 2480.2 103.33 2479.99 102.33 2481.19 Z M 583.54 2271.4 583.32 2272.54 582.11 2272.54 580.98 2270.62 583.54 2270.19 583.54 2271.4 Z M 593.42 2268.84 592 2269.2 590.65 2268.63 593.99 2267.63 593.42 2268.84 Z M 76.09 2265.43 78.44 2266.07 78.79 2267.06 78.01 2267.84 74.46 2267.42 74.24 2264.64 76.09 2265.43 Z M 609.99 2249.64 606.01 2255.97 602.88 2255.75 602.24 2254.4 604.66 2252.98 607.78 2247.86 609.99 2248.5 609.99 2249.64 Z M 171.66 2250.42 172.23 2249.85 173.8 2250.07 173.44 2250.85 171.66 2250.42 Z M 195.98 2240.18 196.34 2238.62 197.34 2238.4 197.34 2239.75 195.98 2240.18 Z M 584.46 2264.86 583.89 2267.42 581.9 2267.2 581.33 2265.85 582.54 2263.65 584.46 2264.86 Z M 618.88 2234.21 617.67 2235.63 616.32 2234.28 616.53 2232.64 617.88 2229.73 619.87 2229.51 618.88 2234.21 Z M 61.23 2220.84 56.68 2221.62 54.55 2220.62 54.33 2219.06 61.02 2218.42 61.8 2219.06 61.23 2220.84 Z M 616.53 2230.51 616.67 2231.65 615.11 2231.65 614.54 2228.87 615.32 2227.73 616.53 2230.51 Z M 619.66 2226.31 619.66 2228.09 617.31 2227.73 617.31 2224.96 618.45 2224.75 619.66 2226.31 Z M 175.65 2208.39 173.8 2209.32 173.23 2207.75 174.44 2207.4 175.65 2208.39 Z M 623.43 2219.98 623 2220.98 620.44 2220.62 622.43 2218.42 623.43 2218.63 623.43 2219.98 Z M 227.34 2219.63 226.99 2218.21 228.34 2215.64 228.13 2219.2 227.34 2219.63 Z M 621.22 2216.07 621.65 2218.21 619.66 2218.85 618.24 2214.86 620.23 2214.51 621.22 2216.07 Z M 223.58 2205.97 222.22 2207.18 220.09 2206.61 221.02 2204.41 223.58 2205.97 Z M 123.88 2206.19 122.46 2204.98 125.02 2204.2 125.02 2205.76 123.88 2206.19 Z M 202.46 2183.5 200.32 2185.06 199.11 2182.72 201.67 2181.72 202.46 2183.5 Z M 65.57 2172.62 67.35 2174.4 63.43 2176.18 60.45 2175.75 58.67 2174.18 62.01 2171.62 65.57 2172.62 Z M 549.9 2171.41 549.54 2169.63 551.32 2169.85 551.54 2170.84 549.9 2171.41 Z M 218.67 2161.17 218.67 2159.75 220.66 2159.96 220.66 2160.74 218.67 2161.17 Z M 177.57 2158.4 178.35 2156.4 178.99 2156.4 178.99 2158.75 177.57 2158.4 Z M 622.22 2151.64 621.01 2149.51 623 2149.29 623.78 2151.28 622.22 2151.64 Z M 83.99 2141.97 82.21 2142.96 80.79 2141.19 82.21 2140.83 83.99 2141.97 Z M 544.78 2142.61 543.22 2142.75 542.43 2140.97 544.43 2141.19 544.78 2142.61 Z M 632.89 2137.06 632.89 2139.41 631.68 2139.83 631.54 2136.85 629.9 2137.06 631.32 2134.5 632.89 2137.06 Z M 592.21 2282.42 594.2 2283.42 593.42 2284.98 591.64 2284.98 591.64 2283.63 589.65 2283.06 589.22 2280.08 592.78 2278.09 592.21 2282.42 Z M 510.79 2280.08 511.57 2278.09 513.99 2278.51 514.2 2279.86 510.79 2280.08 Z M 596.55 2277.73 597.33 2278.3 596.76 2280.65 593.42 2280.29 594.77 2276.73 596.55 2277.73 Z M 292.77 3515.52 292.13 3515.94 292.34 3511.39 292.98 3511.39 292.77 3515.52 Z M 284.66 3512.39 282.31 3515.73 281.46 3515.52 280.68 3512.17 282.88 3512.74 285.23 3511.18 284.66 3512.39 Z M 308.13 3511.75 306.77 3513.95 306.77 3516.51 305 3516.16 304.43 3514.73 303.65 3514.73 303.79 3516.3 301.8 3516.3 302.65 3510.96 307.77 3508.97 308.13 3511.75 Z M 270.22 3512.39 269.44 3514.95 268.45 3514.95 268.66 3512.6 268.02 3514.73 266.45 3514.38 265.46 3510.18 268.66 3509.83 269.44 3510.75 270.44 3509.61 270.22 3512.39 Z M 295.33 3513.95 294.33 3515.3 293.76 3512.39 298.31 3511.18 296.68 3514.38 295.33 3513.95 Z M 278.69 3511.39 279.11 3513.17 277.9 3514.73 275.56 3514.52 273.57 3515.94 271.79 3515.16 271.43 3510.96 273.35 3511.75 278.69 3509.97 278.69 3511.39 Z M 316.66 3508.97 317.44 3511.39 313.67 3513.52 311.89 3510.75 316.09 3507.84 315.88 3505.63 317.01 3506.06 316.66 3508.97 Z M 77.02 2075.19 74.24 2074.05 76.87 2071.85 80 2071.63 80.22 2075.83 77.02 2075.19 Z M 130.99 2070.64 130.21 2073.27 127.79 2073.06 127.65 2070.07 130.99 2070.64 Z M 625.21 2070.5 623.78 2071.63 622.43 2070.28 622.65 2068.86 624.57 2069.07 625.21 2070.5 Z M 605.22 2085.5 605.65 2089.63 601.31 2088.27 600.46 2086.85 602.88 2084.51 605.22 2085.5 Z M 98.56 2078.75 95.79 2079.74 95.58 2077.82 97 2076.4 98.78 2077.18 98.56 2078.75 Z M 619.45 2081.52 621.65 2080.95 621.86 2081.95 627.2 2083.3 628.12 2084.86 626.98 2087.85 627.55 2089.63 616.53 2090.84 613.9 2089.63 614.33 2087.85 613.33 2086.85 614.33 2086.64 614.9 2083.72 617.67 2080.38 619.45 2081.52 Z M 94.44 2080.95 92.09 2082.3 90.24 2079.95 94.65 2080.74 94.44 2080.95 Z M 627.34 2079.74 626.34 2080.74 625.21 2079.17 626.98 2078.6 627.34 2079.74 Z M 578.56 2077.96 580.34 2082.73 579.34 2083.72 576.42 2082.51 577.56 2080.74 576 2079.17 572.44 2078.18 572.09 2079.39 570.88 2079.39 572.87 2077.18 578.56 2077.96 Z M 81.57 2078.39 81.78 2079.17 80.22 2078.75 79.58 2076.82 81.57 2078.39 Z M 162.21 2055.49 164.34 2059.05 164.34 2060.18 162.56 2060.18 158.65 2054.85 162.21 2055.49 Z M 604.44 2059.05 602.24 2058.05 602.88 2056.41 604.44 2056.84 604.44 2059.05 Z M 85.55 2053.85 85.12 2054.49 82.99 2054.07 83.77 2052.72 85.55 2053.85 Z M 646.54 2045.75 644.55 2048.17 642.77 2048.38 643.34 2045.75 647.32 2043.19 646.54 2045.75 Z M 629.33 2049.52 627.55 2051.72 625.78 2049.94 628.12 2046.74 629.54 2046.96 629.33 2049.52 Z M 610.98 2047.53 608.99 2047.74 608.57 2046.39 611.34 2045.39 610.98 2047.53 Z M 641.78 2033.94 638.79 2033.52 638.43 2032.73 641.99 2032.52 641.78 2033.94 Z M 648.32 2033.3 646.11 2034.51 646.33 2033.16 642.56 2033.73 642.34 2032.16 645.76 2031.74 646.54 2031.17 645.12 2031.38 645.12 2030.6 648.1 2030.17 648.32 2033.3 Z M 643.77 2027.19 642.2 2028.82 641.99 2025.62 643.2 2025.27 643.77 2027.19 Z M 239.79 2024.84 244.13 2025.41 248.11 2024.27 248.89 2025.62 247.68 2027.4 242.56 2027.19 236.09 2024.06 239.79 2024.84 Z M 614.75 2023.49 613.12 2023.49 612.9 2021.85 614.9 2021.71 614.75 2023.49 Z M 608.78 2020.07 605.44 2019.72 606.65 2016.94 609.42 2016.94 609.56 2019.93 608.78 2020.07 Z M 254.44 2022.85 254.22 2024.84 251.88 2025.05 250.88 2023.84 251.88 2020.71 253.66 2020.93 254.44 2022.85 Z M 636.23 2072.06 638.01 2073.84 638.43 2076.4 635.45 2076.97 635.87 2085.07 634.1 2085.5 630.75 2075.83 632.1 2069.71 633.88 2069.71 633.88 2062.18 635.23 2062.18 636.23 2072.06 Z M 551.11 2068.5 551.11 2066.73 552.53 2066.51 553.1 2068.29 551.11 2068.5 Z M 647.32 2054.07 646.33 2057.62 644.76 2056.27 641.99 2057.84 640.99 2062.18 639.57 2063.17 638.22 2059.61 640.42 2053.71 645.9 2052.5 647.54 2053.07 647.32 2054.07 Z M 654.65 2006.06 653.22 2006.85 654.43 2009.26 652.02 2011.4 650.1 2011.61 649.67 2006.06 651.09 2006.06 650.66 2009.41 652.02 2003.72 654.65 2006.06 Z M 655.57 2000.94 655.43 2002.29 654.01 2002.72 655 1999.17 656.42 1999.38 655.57 2000.94 Z M 267.45 1996.82 266.88 1998.95 265.1 1998.38 265.67 1995.04 267.45 1996.82 Z M 555.87 1992.62 553.67 1993.05 553.1 1991.84 554.66 1991.27 555.87 1992.62 Z M 560.57 1990.28 558.43 1990.85 558.43 1989.49 561.21 1989.28 560.57 1990.28 Z M 667.23 1989.49 668.65 1989.71 669.22 1991.84 668.23 1993.41 667.87 1991.84 665.45 1991.06 661.76 1993.05 661.12 1991.06 662.54 1988.07 664.53 1987.72 667.23 1989.49 Z M 605.01 1989.85 603.45 1989.71 604.66 1987.72 606.01 1988.5 605.01 1989.85 Z M 679.89 1984.73 680.1 1986.29 679.11 1986.51 677.76 1984.73 678.11 1982.17 679.89 1984.73 Z M 687.21 1972.85 687 1974.27 680.32 1981.6 683.09 1975.27 681.45 1974.84 683.23 1974.63 683.87 1973.49 683.23 1972.28 684.87 1972.07 687.21 1969.51 687.21 1972.85 Z M 699.09 1960.83 700.01 1961.26 699.09 1963.61 696.67 1963.61 695.68 1961.4 697.31 1958.27 698.66 1958.63 699.09 1960.83 Z M 704.42 1953.3 703 1954.72 701.79 1954.29 704.78 1951.94 704.42 1953.3 Z M 692.12 1965.95 689.35 1968.51 688.78 1968.51 688.57 1964.96 689.99 1965.6 692.33 1963.61 692.12 1965.95 Z M 693.33 1967.16 692.12 1966.17 693.12 1965.6 693.54 1964.39 693.9 1964.39 693.33 1967.16 Z M 674.34 1984.73 674.56 1988.07 672.78 1989.07 672.99 1983.16 674.34 1984.73 Z M 671.21 1983.73 670.79 1984.73 667.66 1983.95 668.44 1982.74 671.21 1983.73 Z M 722.77 1942.49 724.55 1944.48 723.98 1945.26 724.97 1945.05 724.12 1947.39 721.42 1947.82 723.13 1945.83 717.44 1945.61 717.79 1942.49 720.42 1942.84 721.42 1941.28 722.77 1942.49 Z M 730.45 1941.7 730.31 1944.05 732.87 1943.05 732.87 1944.48 730.88 1944.83 730.66 1945.83 726.33 1942.7 729.31 1943.27 728.32 1941.28 730.88 1939.5 730.45 1941.7 Z M 508.23 1930.04 507.45 1930.18 507.66 1928.83 508.87 1928.26 508.23 1930.04 Z M 529.56 1913.61 528.78 1914.39 527.64 1912.26 528.57 1912.26 529.56 1913.61 Z M 533.9 1904.15 531.77 1905.72 530.35 1903.94 531.55 1902.94 533.9 1904.15 Z M 231.11 1895.05 234.1 1897.61 234.46 1901.59 234.1 1903.73 231.9 1905.36 225.42 1901.17 224.22 1898.18 225.42 1895.62 227.98 1894.06 231.11 1895.05 Z M 767.57 1895.05 767.78 1896.4 764.23 1899.18 765.86 1892.7 767 1892.85 767.57 1895.05 Z M 769.99 1886.37 769.2 1889.93 766.64 1891.07 765.86 1887.73 767.78 1883.6 769.2 1883.6 769.99 1886.37 Z M 729.31 1879.48 727.32 1878.62 729.67 1877.27 730.09 1878.48 729.31 1879.48 Z M 539.23 1867.81 536.67 1868.6 536.11 1867.39 537.88 1866.18 539.23 1867.81 Z M 520.67 1854.16 520.32 1855.72 519.32 1855.72 520.11 1852.38 521.1 1852.81 520.67 1854.16 Z M 522.1 1844.27 522.67 1847.83 521.46 1848.82 520.67 1842.5 522.1 1842.5 522.1 1844.27 Z M 523.09 1832.25 522.45 1829.84 523.66 1829.48 523.45 1833.04 522.67 1833.39 523.09 1832.25 Z M 547.77 1824.72 545.99 1825.14 545.56 1823.72 546.99 1823.51 547.77 1824.72 Z M 554.1 1791.36 553.31 1791.5 551.68 1790.72 553.46 1789.8 554.1 1791.36 Z M 677.9 1790.94 676.33 1791.15 678.11 1789.58 680.32 1789.58 677.9 1790.94 Z M 520.53 1948.82 519.89 1947.82 522.88 1947.96 522.45 1948.82 520.53 1948.82 Z M 562.56 2008.62 561.56 2009.05 560 2007.06 563.13 2006.63 563.55 2008.27 562.56 2008.62 Z M 664.1 1762.49 662.68 1762.13 665.1 1761.14 665.31 1761.92 664.1 1762.49 Z M 661.33 1757.94 658.34 1761.14 656.78 1760.92 659.77 1756.16 661.76 1756.59 661.33 1757.94 Z M 543.43 1757.37 542.43 1758.36 542.01 1756.16 544.21 1756.37 543.43 1757.37 Z M 615.68 1728.92 614.75 1729.92 613.9 1728.14 614.9 1727.71 615.68 1728.92 Z M 579.55 1720.25 577.78 1719.25 577.99 1718.61 579.55 1719.46 579.55 1720.25 Z M 615.54 1685.83 616.1 1687.46 614.75 1689.03 611.55 1687.6 613.54 1686.25 612.34 1685.68 612.9 1684.83 615.54 1685.83 Z M 262.69 1585.12 264.32 1588.68 259.56 1588.68 258.56 1595.15 254.22 1598.57 254.65 1591.6 252.66 1585.69 256.21 1585.48 258.56 1583.7 262.69 1585.12 Z M 171.24 1585.69 172.23 1585.27 174.01 1585.27 170.46 1586.9 171.24 1585.69 Z M 592.99 1523.47 593.99 1524.46 594.34 1529.01 589.65 1534.7 582.9 1537.26 577.42 1534.92 576.57 1531.36 584.89 1528.8 587.45 1526.24 588.87 1522.47 592.99 1523.47 Z M 193.42 1497.37 194.21 1499.14 192 1500.14 188.66 1499.14 190.79 1496.37 192.43 1496.23 193.42 1497.37 Z M 232.32 1581.57 240.43 1583.13 242.78 1584.34 240 1585.48 227.34 1580.79 232.32 1581.57 Z M 215.33 1580.93 216.32 1581.36 215.68 1582.56 203.88 1581.14 206.44 1579.79 213.34 1579.79 215.33 1580.93 Z M 145.78 1482.15 146.21 1483.14 144.79 1484.35 142.79 1482.57 144.22 1480.8 145.78 1482.15 Z M 156.87 1492.46 158.79 1494.45 158.79 1495.02 156.23 1493.81 155.1 1491.68 156.87 1492.46 Z M 175.43 1470.7 173.66 1472.9 172.09 1468.92 174.44 1468.78 175.43 1470.7 Z M 142.65 1455.48 141.66 1454.13 144.22 1454.34 144.22 1454.91 142.65 1455.48 Z M 281.67 1454.55 280.32 1454.91 279.11 1453.7 281.89 1453.7 281.67 1454.55 Z M 156.23 1454.34 154.88 1453.91 154.88 1453.35 156.87 1453.13 156.23 1454.34 Z M 280.89 1449.36 279.89 1448.37 281.89 1448.01 281.89 1449.22 280.89 1449.36 Z M 172.23 1443.46 171.24 1444.03 169.89 1444.03 172.87 1442.46 172.23 1443.46 Z M 304.57 1432.37 305.99 1434.14 305 1435.14 300.66 1433.36 299.88 1431.58 304.57 1432.37 Z M 309.9 1424.9 311.33 1425.89 310.54 1427.25 307.77 1427.1 305.42 1425.47 306.35 1423.69 309.9 1424.9 Z M 312.68 1417.22 315.24 1418.57 317.44 1421.77 313.89 1421.56 309.55 1416.79 310.54 1416.22 312.68 1417.22 Z M 196.13 1404.77 193.99 1405.13 192 1403.35 196.34 1402.99 196.13 1404.77 Z M 336.43 1402.35 337.42 1405.34 334.44 1405.13 332.87 1403.35 334.01 1401.36 336.43 1402.35 Z M 340.77 1397.8 342.33 1400.36 339.56 1400.01 337.78 1397.02 340.77 1397.8 Z M 205.23 1494.24 204.45 1496.02 201.46 1496.02 203.1 1491.68 205.23 1491.68 205.23 1494.24 Z M 224.43 1490.11 225.21 1491.46 223.58 1492.25 222.01 1489.47 224.43 1490.11 Z M 219.45 1491.46 220.45 1493.24 219.24 1493.81 215.9 1495.02 213.55 1493.81 214.33 1491.46 216.32 1491.89 217.46 1490.11 219.45 1491.46 Z M 353.42 1385.36 355.34 1386.99 353.57 1389.13 348.23 1387.78 346.45 1386.14 347.45 1384.79 353.42 1385.36 Z M 297.46 1383.01 298.1 1384.58 296.89 1384.79 293.76 1382.44 297.46 1383.01 Z M 256.43 1373.91 256.43 1376.47 253.66 1374.69 254.01 1372.77 256.43 1373.91 Z M 353 1369.78 351.79 1369.21 351.57 1368.79 353.78 1369 353.99 1370 353 1369.78 Z M 375.89 1366.58 374.12 1366.58 373.76 1365.66 375.11 1365.44 375.89 1366.58 Z M 320.21 1351.58 320.43 1353.36 318.44 1353.36 316.45 1351.22 318.65 1350.65 320.21 1351.58 Z M 347.45 1365.23 347.88 1366.58 346.24 1367.01 343.89 1364.66 346.1 1364.24 347.45 1365.23 Z M 353 1362.46 354.21 1363.45 353.78 1364.8 351.01 1364.02 350.22 1361.46 353 1362.46 Z M 348.66 1344.89 349.87 1346.46 349.23 1348.02 346.67 1347.88 344.68 1346.1 346.1 1343.9 348.66 1344.89 Z M 368.57 1345.25 367.57 1345.46 366.44 1344.32 368 1344.11 368.57 1345.25 Z M 372.76 1336.78 371.56 1337.35 370.35 1335.58 372.34 1335.58 372.76 1336.78 Z M 378.45 1332.23 377.32 1331.88 377.67 1330.46 379.09 1330.88 378.45 1332.23 Z M 626.34 1325.34 624.99 1325.9 624.42 1324.55 625.99 1324.91 626.34 1325.34 Z M 152.89 1323.56 153.89 1323.13 151.9 1325.55 152.11 1324.34 152.89 1323.56 Z M 183.11 1322.99 181.55 1322.99 181.12 1321.99 183.68 1321.57 184.11 1322.56 183.11 1322.99 Z M 375.11 1318.58 373.9 1319.43 373.76 1317.23 375.32 1315.02 375.11 1318.58 Z M 368.43 1313.46 367.79 1311.89 369.42 1311.68 369.42 1313.46 368.43 1313.46 Z M 275.2 1304.21 275.56 1302.79 276.98 1303 277.12 1304.21 275.2 1304.21 Z M 267.66 1303 265.89 1304.78 264.11 1303.79 263.68 1302.22 266.67 1302.01 267.66 1303 Z M 672.99 1305.56 675.55 1304.21 678.54 1303.57 673.77 1306.13 672.99 1305.56 Z M 282.67 1304.78 280.53 1304.36 280.11 1302.79 283.09 1302.79 282.67 1304.78 Z M 289.57 1304.57 287.65 1305 287.01 1302.79 289.35 1302.44 289.57 1304.57 Z M 349.23 1310.12 348.66 1308.34 349.87 1307.91 350.44 1309.69 349.23 1310.12 Z M 373.55 1308.12 372.34 1308.55 371.98 1307.13 374.12 1307.34 373.55 1308.12 Z M 172.66 1333.44 173.23 1335.01 172.09 1335.43 169.1 1333.02 170.67 1332.45 172.66 1333.44 Z M 339.98 1331.88 341.76 1333.66 341.33 1335.01 336.43 1331.45 339.98 1331.88 Z M 340.34 1296.11 336.78 1296.46 335.01 1295.32 340.13 1294.33 340.34 1296.11 Z M 299.88 1288.21 300.23 1289.56 298.67 1289.78 297.1 1287.57 299.88 1288.21 Z M 604.23 1279.89 604.23 1281.88 600.67 1280.89 598.54 1281.46 597.9 1280.46 598.33 1278.9 603.23 1278.9 604.23 1279.89 Z M 595.77 1269.65 594.77 1272 593.21 1271.43 593.56 1269.01 595.77 1269.65 Z M 718.79 1269.65 718.01 1269.65 718.65 1267.02 719.21 1267.45 718.79 1269.65 Z M 226.78 1259.91 227.2 1261.69 225.42 1262.68 221.87 1261.12 224.43 1258.98 226.78 1259.91 Z M 723.13 1256 723.98 1259.34 720.42 1263.68 721.42 1255 722.34 1254.43 723.13 1256 Z M 238.01 1256.21 236.66 1257.35 233.46 1256.57 236.66 1254.22 238.22 1255 238.01 1256.21 Z M 589.01 1260.76 590.01 1262.89 588.09 1264.1 585.67 1261.54 585.67 1259.91 589.01 1260.76 Z M 236.87 1288.57 235.24 1288.78 234.88 1287.22 236.66 1286.79 236.87 1288.57 Z M 310.54 1285.23 310.33 1286.58 307.98 1286.79 306.77 1284.87 309.12 1284.02 310.54 1285.23 Z M 724.33 1251.23 722.98 1251.66 723.13 1248.1 724.33 1248.46 724.33 1251.23 Z M 201.67 1243.55 200.46 1243.91 200.11 1241.2 201.46 1241.56 201.67 1243.55 Z M 250.24 1248.88 250.67 1247.89 252.45 1248.1 252.23 1249.24 250.24 1248.88 Z M 307.34 1247.89 307.13 1246.54 308.77 1246.68 308.77 1248.1 307.34 1247.89 Z M 548.12 1237.22 546.99 1237.22 547.55 1235.66 548.76 1236.23 548.12 1237.22 Z M 722.34 1239.57 723.98 1243.76 723.98 1237.79 726.11 1238.22 725.76 1244.9 722.77 1247.32 720.42 1239.21 721.21 1235.87 722.34 1239.57 Z M 551.89 1237.01 557.79 1243.91 562.34 1245.54 562.98 1243.55 564.98 1242.77 566.68 1246.32 560 1246.89 556.23 1245.9 556.02 1244.12 550.33 1239.43 549.12 1236.65 550.68 1236.01 551.89 1237.01 Z M 507.87 1236.87 495.57 1241.35 493.23 1240.35 493.44 1238.57 498.2 1239.43 506.88 1235.66 508.66 1236.23 507.87 1236.87 Z M 531.98 1231.67 531.2 1232.1 527.22 1232.46 532.98 1230.54 533.33 1231.32 531.98 1231.67 Z M 187.88 1228.33 187.45 1227.34 189.23 1226.13 189.23 1228.12 187.88 1228.33 Z M 244.34 1220.79 243.77 1221.79 242.56 1219.09 243.56 1219.23 244.34 1220.79 Z M 253.44 1214.68 250.88 1215.32 250.46 1213.9 253.02 1212.9 253.44 1214.68 Z M 714.45 1196.9 715.23 1198.32 713.88 1200.1 716.65 1202.87 718.65 1212.12 720.78 1212.9 720 1218.09 721.21 1224.35 720.21 1227.12 719.43 1227.12 719.64 1220.01 717.44 1209.77 711.53 1197.33 712.32 1195.9 714.45 1196.9 Z M 510.22 1200.45 511.22 1199.89 511 1202.09 509.44 1203.01 510.22 1200.45 Z M 707.98 1191.56 708.97 1192.2 708.33 1193.77 703.21 1190.57 707.98 1191.56 Z M 515.2 1197.11 513.56 1195.12 513.78 1194.34 514.77 1194.34 515.2 1197.11 Z M 699.66 1189.64 697.31 1188.65 697.1 1188.01 698.88 1188.01 699.66 1189.64 Z M 195.13 1186.44 191.65 1187.23 190.65 1185.66 194.78 1184.31 195.13 1186.44 Z M 691.77 1184.88 693.54 1186.44 690.77 1186.09 688.78 1184.31 691.77 1184.88 Z M 519.68 1181.89 519.68 1185.24 517.12 1184.88 517.76 1180.9 519.68 1181.89 Z M 217.1 1182.11 215.54 1182.32 214.76 1181.11 217.67 1180.11 217.1 1182.11 Z M 283.24 1179.55 286.44 1180.54 286.65 1181.54 276.13 1181.54 273.57 1180.11 275.98 1178.55 283.24 1179.55 Z M 166.54 1173.22 165.55 1173.43 165.34 1172.43 167.11 1171.87 166.54 1173.22 Z M 176.57 1171.65 175.65 1170.66 177.42 1170.09 177.78 1171.23 176.57 1171.65 Z M 654.43 1163.12 660.33 1166.67 660.55 1167.46 657.77 1167.67 652.66 1162.34 654.43 1163.12 Z M 198.9 1167.88 199.54 1169.23 197.76 1170.66 193.99 1169.23 195.98 1166.89 198.9 1167.88 Z M 246.33 1174.43 244.55 1176.2 241.57 1174.78 243.56 1173.43 246.33 1174.43 Z M 229.55 1172.43 229.55 1173.64 226.56 1175.42 223.58 1174.43 223.58 1172.79 225.57 1171.23 229.55 1172.43 Z M 522.67 1169.66 522.45 1176.99 521.31 1178.19 520.67 1171.23 522.88 1166.67 522.67 1169.66 Z M 286.22 1168.45 287.22 1170.44 286.44 1171.87 281.67 1171.44 278.54 1169.45 279.68 1167.46 286.22 1168.45 Z M 544.99 1154.09 544.78 1152.88 545.35 1152.66 545.78 1155.01 544.99 1154.09 Z M 186.31 1152.45 185.89 1154.66 182.76 1154.44 182.12 1153.23 183.54 1151.45 186.31 1152.45 Z M 241.42 1155.22 240.43 1155.22 239.43 1154.09 242.21 1154.09 241.42 1155.22 Z M 560.57 1149.32 559.78 1149.32 559 1146.97 560.21 1147.12 560.57 1149.32 Z M 552.89 1149.11 550.54 1151.67 549.76 1151.31 551.32 1146.97 553.46 1147.12 552.89 1149.11 Z M 176.22 1146.97 175.01 1148.89 171.88 1148.33 173.23 1146.12 176.22 1146.97 Z M 237.66 1138.87 234.88 1138.87 234.24 1137.44 237.23 1137.09 237.66 1138.87 Z M 216.54 1148.89 215.11 1150.67 212.13 1149.68 213.76 1147.76 216.54 1148.89 Z M 287.43 1149.32 285.65 1149.68 284.45 1148.33 286.79 1148.11 287.43 1149.32 Z M 255.79 1147.54 256.21 1146.33 258.35 1146.76 258.21 1147.76 255.79 1147.54 Z M 228.91 1160.56 227.77 1162.19 222.01 1162.19 225.57 1159.56 228.91 1160.56 Z M 288.21 1159.21 289.57 1160.2 288.43 1161.77 279.54 1159.56 280.53 1158.21 288.21 1159.21 Z M 536.32 1157.64 532.55 1162.34 529.21 1162.98 529.35 1160.98 533.55 1157.22 536.67 1155.86 536.32 1157.64 Z M 146.99 1136.88 145.99 1135.88 146.56 1134.53 147.77 1136.31 146.99 1136.88 Z M 135.9 1133.89 133.91 1135.45 133.12 1135.31 134.55 1132.89 136.32 1132.32 135.9 1133.89 Z M 573.44 1128.2 572.87 1129.98 571.09 1127.42 571.87 1127.2 573.44 1128.2 Z M 147.35 1125.99 145.78 1127.2 145 1126.78 145.57 1124.79 149.12 1124.43 149.34 1125.43 147.35 1125.99 Z M 119.9 1121.87 121.46 1123.22 121.32 1123.86 117.76 1121.09 119.9 1121.87 Z M 618.45 1119.31 619.66 1119.31 619.66 1122.44 618.24 1121.66 616.89 1117.67 618.45 1119.31 Z M 291.56 1120.31 292.34 1122.23 291.13 1123.01 283.88 1120.45 284.66 1119.31 291.56 1120.31 Z M 292.13 1098.54 291.34 1100.32 289.99 1100.32 287.43 1099.75 286.79 1098.12 290.99 1097.19 292.13 1098.54 Z M 205.8 1097.76 205.8 1096.77 207.79 1096.55 207.43 1098.33 205.8 1097.76 Z M 226.78 1089.23 226.99 1088.3 229.34 1088.45 229.12 1089.23 226.78 1089.23 Z M 292.13 1086.67 291.13 1087.88 287.79 1084.32 288.43 1081.97 291.56 1081.55 292.13 1086.67 Z M 292.34 1066.97 292.13 1071.66 286.22 1068.32 286.65 1066.75 291.34 1064.98 292.34 1066.97 Z M 225.42 1067.54 222.65 1067.96 222.44 1067.11 225.57 1065.55 225.42 1067.54 Z M 237.66 1065.55 236.66 1065.97 235.66 1064.34 236.87 1064.34 237.66 1065.55 Z M 292.77 1107.65 292.77 1109.42 291.34 1110.56 286.44 1108.22 289.35 1106.44 292.77 1107.65 Z M 593.56 1106.22 593.21 1107.65 589.44 1109.64 584.46 1109.99 590.65 1105.44 593.56 1106.22 Z M 156.02 1060.21 154.67 1060 154.67 1057.87 156.02 1058.43 156.02 1060.21 Z M 289.21 1051.32 289.99 1053.53 289.78 1056.66 286.01 1051.32 287.79 1046.98 289.21 1051.32 Z M 160.78 1052.1 160.22 1052.74 159.22 1050.97 160.22 1050.75 160.78 1052.1 Z M 144.57 1042.65 144 1042.86 143.01 1041.44 145 1041.44 145.35 1042.65 144.57 1042.65 Z M 249.89 1040.87 250.67 1042.08 249.46 1042.22 247.68 1040.09 249.89 1040.87 Z M 494.22 1040.09 491.66 1041.22 490.88 1038.66 493.44 1037.53 494.22 1040.09 Z M 472.46 1037.88 472.11 1039.45 470.54 1039.87 468.91 1037.31 471.32 1036.74 472.46 1037.88 Z M 228.91 1030.41 227.56 1029.99 227.56 1028.42 228.77 1028.78 228.91 1030.41 Z M 177.21 1035.53 177.99 1036.53 176.57 1037.53 174.01 1034.54 177.21 1035.53 Z M 184.46 1044 183.11 1044.42 182.33 1043 183.11 1042.65 184.46 1044 Z M 288.57 1138.08 287.43 1137.87 287.65 1135.31 289.35 1135.45 288.57 1138.08 Z M 245.55 1136.45 243.2 1137.09 242.56 1135.88 245.55 1134.88 245.55 1136.45 Z M 692.33 1300.23 689.77 1302.44 686.22 1303.79 686.43 1302.44 690.34 1299.45 692.33 1298.88 692.33 1300.23 Z M 357.12 1299.02 355.56 1300.44 353.99 1299.88 354.99 1297.24 356.55 1297.24 357.12 1299.02 Z M 701.44 1299.45 699.87 1300.23 699.23 1300.02 702.01 1297.46 701.44 1299.45 Z M 616.89 1295.32 616.53 1297.88 613.9 1297.88 613.9 1294.9 616.89 1295.32 Z M 442.1 1010.22 443.66 1013.99 443.24 1014.77 440.11 1012.21 439.11 1009.43 440.68 1008.87 442.1 1010.22 Z M 278.12 1008.87 276.34 1009.08 275.56 1007.3 277.9 1006.52 278.12 1008.87 Z M 481.78 1002.54 481.42 1005.31 479 1005.88 478.79 1001.97 480.43 1001.19 481.78 1002.54 Z M 549.54 1003.75 550.33 1003.32 547.98 1008.08 547.98 1002.32 549.54 1003.75 Z M 501.33 1007.51 499.98 1007.66 499.55 1006.52 501.76 1006.31 501.33 1007.51 Z M 554.88 990.52 554.31 996.21 551.11 997.2 553.31 985.97 555.09 986.32 554.88 990.52 Z M 154.1 984.54 154.1 983.41 156.87 983.76 156.23 984.76 154.1 984.54 Z M 424.32 990.3 424.32 988.74 426.1 988.88 425.88 990.3 424.32 990.3 Z M 213.34 979.21 212.91 980.77 211.13 980.99 209.57 978.64 212.34 977.86 213.34 979.21 Z M 513.78 975.3 515.34 976.86 516.76 982.98 511 977.08 511.22 974.3 513.78 975.3 Z M 413.23 969.96 412.02 972.53 410.31 972.1 410.1 969.96 411.88 967.97 413.44 968.19 413.23 969.96 Z M 547.98 1002.11 548.34 999.98 549.12 999.98 549.54 1001.54 547.98 1002.11 Z M 277.12 994.07 277.33 1000.19 276.13 1000.33 273.78 997.2 273.57 993.43 276.13 990.87 277.12 994.07 Z M 231.9 964.42 233.32 966.41 230.12 966.76 229.34 963.85 231.9 964.42 Z M 437.55 963.99 438.12 965.98 436.98 966.55 433 964.77 434.56 963 437.55 963.99 Z M 446.79 962.21 445.44 963.99 443.66 963.85 444.87 960.29 446.79 960.29 446.79 962.21 Z M 548.76 950.62 550.9 952.33 554.88 952.75 553.67 953.54 554.45 956.1 556.02 955.88 555.45 957.66 551.54 958.66 547.77 956.88 545.78 950.19 546.77 949.63 548.76 950.62 Z M 502.75 950.41 504.89 952.54 505.1 954.53 502.33 955.53 500.76 953.54 500.12 949.98 501.55 949.41 502.75 950.41 Z M 170.88 944.29 169.89 944.86 168.89 944.86 169.46 943.3 172.09 943.65 170.88 944.29 Z M 455.54 939.74 455.68 940.74 454.33 941.52 452.98 938.96 455.54 939.74 Z M 518.11 936.54 517.9 938.53 513.56 937.18 514.99 935.4 518.11 936.54 Z M 518.11 945.64 518.68 948.2 517.76 949.2 513.56 947.63 514.2 944.86 518.11 945.64 Z M 267.88 951.19 269.23 957.66 268.66 960.08 265.32 956.88 266.45 949.2 267.88 951.19 Z M 234.88 953.32 233.89 954.11 232.11 952.33 233.67 951.97 234.88 953.32 Z M 489.31 968.4 490.45 970.75 489.88 971.89 488.53 971.32 486.54 967.55 489.31 968.4 Z M 270.44 967.55 267.88 966.76 268.45 964.99 270.65 964.77 270.44 967.55 Z M 471.32 929.29 469.33 929.86 468.12 928.08 470.54 927.29 471.32 929.29 Z M 534.9 915.42 533.9 915.99 532.76 914.99 533.33 912.08 534.9 912.64 534.9 915.42 Z M 601.31 903.4 600.32 908.88 602.45 910.51 582.33 925.66 582.11 923.74 583.68 923.88 588.23 918.41 592.99 915.85 596.55 911.51 598.54 906.96 598.75 901.62 600.46 900.98 601.31 903.4 Z M 409.1 907.88 407.11 909.73 405.33 908.73 406.12 906.53 407.89 906.53 409.1 907.88 Z M 476.87 905.32 474.88 905.53 474.45 904.18 477.65 903.54 478.22 905.18 476.87 905.32 Z M 575.64 897.21 576 899.2 574.79 899.42 573.65 896.64 575.64 897.21 Z M 253.87 888.75 254.01 894.08 253.44 894.87 249.67 886.19 251.66 885.98 252.23 888.54 253.87 888.75 Z M 498.56 892.73 498.2 894.65 495.79 893.3 496.78 891.31 498.56 892.73 Z M 261.55 922.74 262.54 927.44 260.55 927.65 259.2 926.87 258.35 923.1 259.56 921.53 261.55 922.74 Z M 528 916.98 529.78 919.97 528.78 921.75 523.87 917.98 525.01 915.99 528 916.98 Z M 491.87 918.97 491.45 920.97 488.53 919.54 490.1 917.98 491.87 918.97 Z M 486.33 919.4 484.55 920.54 483.77 918.55 485.12 918.19 486.33 919.4 Z M 381.01 924.09 383 926.3 381.65 929.29 379.66 928.65 377.67 923.74 381.01 924.09 Z M 362.1 877.3 361.67 879.29 359.32 879.43 358.76 877.09 359.54 876.3 362.1 877.3 Z M 503.68 877.09 502.9 877.66 500.55 876.09 502.54 875.74 503.68 877.09 Z M 591.64 868.41 592.99 869.41 593.78 872.39 591.43 875.1 588.66 875.95 586.88 874.53 586.66 870.97 589.44 867.84 591.64 868.41 Z M 582.33 853.76 585.67 859.31 584.32 861.65 582.33 860.87 579.77 853.19 580.76 852.62 582.33 853.76 Z M 544.99 870.76 543.79 872.96 541.87 872.96 540.23 871.54 541.23 869.76 544.99 870.76 Z M 484.12 868.62 484.55 866.85 485.76 867.2 485.55 868.41 484.12 868.62 Z M 528 870.76 527.64 872.39 526.22 870.76 526.22 867.84 528 870.76 Z M 484.55 849.21 482.35 851.2 481.56 850.99 482.77 847.29 484.76 847.86 484.55 849.21 Z M 369 845.08 368.43 843.88 370.56 844.09 369.99 845.3 369 845.08 Z M 569.88 843.09 570.88 844.87 567.89 845.65 567.32 842.31 569.88 843.09 Z M 353 821.62 351.79 822.54 352.21 820.76 354.21 820.62 353 821.62 Z M 478.65 823.75 476.44 824.96 474.67 824.32 476.23 822.18 478.22 822.18 478.65 823.75 Z M 548.34 809.74 552.89 819.62 561.56 828.87 563.55 833.07 562.98 835.2 558.65 831.86 550.9 818.63 543.64 810.73 544.78 808.53 548.34 809.74 Z M 519.89 885.76 521.31 887.19 520.32 888.54 516.12 886.19 516.76 884.77 519.89 885.76 Z M 405.9 884.98 404.55 885.76 404.98 883.63 406.9 883.63 405.9 884.98 Z M 264.68 934.62 264.68 938.32 261.55 937.32 260.77 934.41 261.9 932.63 263.68 932.42 264.68 934.62 Z M 421.76 933.2 419.34 934.41 418.2 933.98 419.56 930.99 421.9 931.63 421.76 933.2 Z M 504.89 931.63 505.31 932.84 503.68 933.62 501.76 931.42 503.11 930.64 504.89 931.63 Z M 215.9 802.63 216.89 804.62 212.34 803.2 213.12 801.28 215.9 802.63 Z M 336.78 800.85 337.42 800.28 337.57 802.98 336.78 802.84 336.78 800.85 Z M 488.89 798.08 490.88 800.28 490.24 801.85 487.32 801.42 486.11 799.5 486.54 797.08 488.89 798.08 Z M 339.56 781.51 341.33 782.64 340.77 784.63 334.79 783.43 334.79 781.51 336.43 780.51 339.56 781.51 Z M 470.11 776.39 469.9 779.73 468.12 776.95 464.99 778.16 467.98 775.39 470.11 776.39 Z M 321.42 773.61 323.34 774.54 322.77 775.53 317.65 772.76 321.42 773.61 Z M 315.88 771.41 315.45 772.4 312.11 770.41 313.46 770.41 315.88 771.41 Z M 415.64 790.4 418.2 792.17 418.35 793.52 414.22 790.75 411.45 790.4 408.53 792.96 408.11 796.08 407.11 796.08 407.11 793.17 409.67 789.97 412.87 789.4 415.64 790.4 Z M 476.23 786.41 476.44 788.4 474.67 790.18 472.32 789.97 470.9 788.62 470.9 787.2 473.67 785.2 476.23 786.41 Z M 306.99 766.5 309.55 768.42 309.9 769.06 304.21 765.5 306.99 766.5 Z M 462.22 760.74 461.79 763.73 458.67 763.3 457.67 762.09 459.23 759.53 462.22 760.74 Z M 298.45 749.08 298.31 750.64 296.32 750.64 295.11 748.29 297.1 747.87 298.45 749.08 Z M 292.13 748.08 290.77 748.72 289.78 747.73 290.21 745.52 291.77 745.73 292.13 748.08 Z M 289.35 743.96 288.78 743.17 290.35 740.61 290.35 743.39 289.35 743.96 Z M 461.44 732.86 463.22 738.41 463.22 741.75 462.01 743.74 460.23 743.17 458.1 737.06 458.45 732.08 460.44 731.3 461.44 732.86 Z M 403.98 723.19 404.12 725.39 402.35 726.75 401.78 722.19 403.98 723.19 Z M 463.79 710.74 465.42 712.74 465.21 716.86 463.79 718.64 461.79 718.64 459.66 716.72 462.01 716.72 462.79 713.52 460.66 711.74 461.01 713.52 459.23 713.73 458.45 711.17 459.45 709.75 463.79 710.74 Z M 421.55 705.84 421.76 707.62 419.56 708.4 418.56 706.62 419.34 704.63 421.55 705.84 Z M 437.9 696.52 440.89 699.72 440.46 702.28 439.11 703.06 438.12 702.07 438.33 698.3 435.56 695.74 437.9 696.52 Z M 464.43 676.61 464.78 678.39 466.99 678.96 467.98 684.08 467.77 687.63 465.99 689.62 463.64 688.63 464.43 685.07 462.65 679.38 463.64 670.49 464.43 676.61 Z M 438.76 669.28 439.68 670.85 439.32 672.84 437.12 674.62 434.77 672.41 434.35 670.49 436.76 668.07 438.76 669.28 Z M 434.2 653.64 433.99 655.84 431.22 655.06 432 652.5 434.2 653.64 Z M 470.11 643.82 472.67 648.52 471.89 656.27 470.75 659.97 469.76 659.61 470.11 658.97 469.76 657.62 465.99 660.96 470.54 649.16 470.54 646.95 467.34 645.6 467.34 643.97 468.34 643.04 470.11 643.82 Z M 283.24 646.74 283.45 648.3 282.31 649.3 276.98 649.94 275.98 649.16 276.34 647.38 278.33 645.96 282.1 645.74 283.24 646.74 Z M 257.21 644.61 256.43 644.96 256.78 643.18 257.78 643.61 257.21 644.61 Z M 303.65 638.06 303.22 640.27 304.57 638.28 305.42 638.63 304.43 640.05 299.66 641.19 299.09 638.63 302.22 636.5 304.57 637.07 303.65 638.06 Z M 450.77 617.72 452.34 619.72 452.12 622.49 448.78 624.84 444.87 623.84 444.87 620.71 446.44 617.94 449.21 616.94 450.77 617.72 Z M 414.44 597.95 416.21 601.15 414.65 602.72 412.87 602.72 410.88 600.16 411.09 598.74 412.23 597.17 414.44 597.95 Z M 430.79 624.27 431.64 624.84 430.79 626.4 428.87 626.61 429.01 623.27 430.79 624.27 Z M 430.65 577.19 434.77 582.52 436.98 588.5 432.43 591.27 430.01 590.63 431.43 585.51 428.02 579.18 428.87 576.41 430.65 577.19 Z M 267.66 581.17 268.23 584.73 266.67 587.29 265.1 580.39 267.66 581.17 Z M 399.64 588.5 399.79 590.49 395.09 590.84 395.88 587.5 399.64 588.5 Z M 368 584.16 368.57 586.93 365.87 588.71 362.45 586.72 362.88 583.73 364.23 582.73 367 582.95 368 584.16 Z M 3.56 560.62 2.21 563.6 1 563.96 2.99 559.27 4.56 558.27 3.56 560.62 Z M 422.33 551.94 425.32 558.84 424.32 558.63 424.89 559.84 421.55 562.04 420.98 559.05 416.78 558.63 418.56 551.73 422.33 551.94 Z M 367.79 552.94 368.21 555.07 366.79 557.63 362.1 559.05 361.32 556.28 362.88 553.93 365.87 551.94 367.79 552.94 Z M 339.56 569.29 340.13 570.72 337.21 576.62 335.79 577.83 333.44 577.05 332.09 573.85 334.22 568.94 337.78 568.37 339.56 569.29 Z M 243.56 545.18 243.34 549.59 241.21 548.6 236.87 550.95 239.22 545.18 241.78 543.41 243.56 545.18 Z M 408.11 536.72 411.24 538.29 411.88 541.06 405.9 543.83 403.56 540.7 403.2 536.94 403.77 535.73 408.11 536.72 Z M 296.68 528.83 297.1 531.96 293.76 535.51 289.78 534.94 289 531.17 290.77 528.61 294.9 527.48 296.68 528.83 Z M 42.46 506.5 42.88 507.28 40.11 506.92 40.68 505.15 42.46 506.5 Z M 6.9 496.61 6.33 497.39 5.12 497.04 5.55 496.26 8.32 496.26 6.9 496.61 Z M 51.35 494.05 51.13 497.82 48.43 500.17 46.65 499.95 44.66 501.38 48.79 492.84 52.56 492.27 51.35 494.05 Z M 206.44 506.5 205.8 508.28 204.87 505.15 205.44 505.15 206.44 506.5 Z M 302.79 467.38 301.44 469.59 298.45 469.16 298.45 467.6 300.23 465.82 302.01 465.82 302.79 467.38 Z M 190.22 447.26 190.79 448.61 188.87 449.39 187.1 446.62 190.22 447.26 Z M 299.09 419.81 300.02 421.73 297.89 424.14 295.11 423.36 293.55 421.16 293.9 419.81 296.32 418.81 299.09 419.81 Z M 190.22 405.37 189.66 405.94 184.32 403.81 179.13 405.73 177.78 403.95 182.9 403.81 186.88 400.82 190.22 400.39 190.22 405.37 Z M 230.12 395.27 231.11 396.48 228.34 399.04 224 399.61 219.1 398.04 220.23 395.84 224.43 394.49 230.12 395.27 Z M 247.54 398.26 249.67 400.39 249.46 403.16 247.68 404.73 241.99 406.51 238.65 404.16 238.44 401.81 240.43 398.47 244.34 397.26 247.54 398.26 Z M 213.55 479.62 214.76 480.61 214.12 482.6 211.98 482.6 207.58 485.38 202.46 483.95 209.42 478.83 213.55 479.62 Z M 310.12 479.26 306.99 482.03 304.43 481.04 304.78 478.62 308.13 476.49 310.33 476.84 310.12 479.26 Z M 202.88 472.5 203.88 474.5 202.24 476.27 193.57 477.27 192.57 478.83 191.79 478.48 191.79 477.27 193.21 477.06 197.34 472.29 200.46 471.51 202.88 472.5 Z M 246.9 385.6 245.55 385.6 245.12 384.6 247.11 384.6 246.9 385.6 Z M 296.68 375.5 298.67 377.14 299.66 379.84 299.45 386.59 297.46 389.58 295.89 388.94 290.77 379.7 290.99 376.5 293.12 374.15 295.33 374.15 296.68 375.5 Z M 265.67 355.59 268.45 360.49 268.23 362.49 266.45 364.05 263.68 362.91 261.33 359.14 261.9 355.16 264.11 354.59 265.67 355.59 Z M 307.13 337.38 311.11 340.58 312.68 343.71 312.68 347.69 309.9 353.03 308.13 353.03 305.78 349.61 306.77 346.27 302.79 339.37 303.43 336.6 307.13 337.38 Z M 204.87 330.48 203.88 332.48 198.12 330.91 200.11 329.49 204.87 330.48 Z M 214.9 318.25 215.9 319.6 214.9 322.16 211.13 321.81 210.21 319.46 211.13 317.47 214.9 318.25 Z M 346.67 285.61 347.09 293.57 340.77 305.38 336.78 306.94 336 305.59 339.56 304.03 342.12 298.13 342.12 290.16 340.34 286.46 345.46 282.69 346.67 283.26 346.67 285.61 Z M 221.44 290.02 220.45 289.02 220.87 287.81 222.44 288.38 222.44 289.81 221.44 290.02 Z M 187.1 286.25 186.67 287.24 185.46 285.61 186.1 285.47 187.1 286.25 Z M 279.54 317.68 280.53 319.6 279.89 322.38 276.98 322.8 275.2 320.24 275.34 317.26 277.9 316.69 279.54 317.68 Z M 318.65 310.14 321 313.91 321.57 319.46 319.43 323.37 315.09 323.94 313.67 323.16 313.32 321.24 313.1 312.28 315.24 309.15 318.65 310.14 Z M 194.35 310.57 191.01 312.7 182.54 313.91 183.11 310.14 188.87 311.35 198.33 307.94 197.34 310.36 194.35 310.57 Z M 257.35 312.92 258.77 314.48 258.56 316.47 255.43 317.04 253.44 312.92 255.01 311.92 257.35 312.92 Z M 221.87 277.93 222.44 281.13 220.45 282.05 218.88 280.13 218.67 277.36 220.45 276.93 221.87 277.93 Z M 213.12 256.81 211.98 259.79 210.21 258.8 212.77 253.61 213.55 253.82 213.12 256.81 Z M 389.76 235.69 388.91 241.8 376.89 263.92 368.43 272.03 364.09 272.38 362.67 270.46 366.79 271.39 369 270.25 375.68 260.36 379.09 252.04 381.44 241.8 387.2 236.68 387.56 234.69 389.76 235.69 Z M 321.78 239.38 322.35 241.23 321.21 242.8 319.01 241.23 318.44 239.03 320 238.25 321.78 239.38 Z M 275.77 269.61 278.33 273.8 277.55 275.58 274.99 275.15 272.78 272.81 272.57 269.61 273.57 268.68 275.77 269.61 Z M 282.31 258.02 284.66 261.71 283.88 265.91 281.46 265.13 279.68 260.93 279.33 257.38 282.31 258.02 Z M 297.67 253.25 300.23 258.58 298.45 262.71 294.69 261.57 292.55 258.16 293.12 253.46 294.33 252.04 297.67 253.25 Z M 411.45 200.48 413.01 201.9 413.65 204.46 413.01 207.81 407.54 214.14 402.99 213.92 398.22 210.15 399.43 207.38 402.2 205.25 403.56 205.6 404.34 209.16 406.68 207.81 407.11 204.04 404.34 203.47 406.54 199.7 411.45 200.48 Z M 268.23 190.45 269.23 194.01 268.87 196.57 267.45 197.57 264.32 194.79 263.11 190.81 264.89 189.46 268.23 190.45 Z M 340.34 192.38 341.12 194.01 340.34 196.71 337.57 196.93 335.57 195.58 336 192.38 337.78 191.59 340.34 192.38 Z M 369.21 194.79 371.2 198.14 375.11 199.7 373.9 202.26 369 202.9 368.78 201.48 366.65 200.91 366.01 194.79 367.43 193.8 369.21 194.79 Z M 378.24 189.6 379.66 191.24 379.88 194.15 377.88 195.93 375.11 193.02 374.54 190.24 375.89 188.68 378.24 189.6 Z M 344.32 230.14 346.88 236.25 348.87 238.25 348.66 239.03 345.46 238.46 342.54 235.83 342.33 228.15 343.89 228.57 344.32 230.14 Z M 298.31 228.36 298.1 231.92 295.11 231.13 295.54 227.58 298.31 228.36 Z M 424.46 130.93 425.88 135.7 426.67 146.79 426.1 163.15 424.89 168.48 420.76 169.9 417.21 169.12 415 164.57 415.22 161.58 416.43 161.01 417.78 162.79 420.34 162.36 424.11 156.82 425.1 152.12 424.46 137.26 422.9 133.92 420.12 135.13 416.43 132.71 422.12 130.15 424.46 130.93 Z M 355.2 128.23 353.78 128.37 356.91 126.59 356.76 127.59 355.2 128.23 Z M 336 152.12 339.13 152.69 341.9 159.59 341.33 162.36 338.77 161.01 337.21 154.68 334.01 152.91 334.44 151.34 336 152.12 Z M 350.01 150.56 349.44 152.91 346.67 152.27 346.88 150.56 348.45 149.56 350.01 150.56 Z M 377.1 148.35 372.55 151.34 366.44 150.7 372.34 149.35 377.46 146.15 377.1 148.35 Z M 208 109.03 208.43 112.37 206.65 113.01 202.88 112.01 202.88 109.24 204.45 107.25 207.22 107.25 208 109.03 Z M 190.01 100.92 193.21 107.46 192.43 110.45 189.66 107.04 188.87 99.78 190.01 100.92 Z M 188.09 98.57 187.24 97.36 186.88 95.8 188.66 96.23 188.87 98.57 188.09 98.57 Z M 183.68 86.34 186.31 88.47 186.1 93.45 183.33 91.67 183.11 89.68 178.78 85.7 183.68 86.34 Z M 175.43 83.78 176.57 84.14 177.21 85.34 173.44 82.78 175.43 83.78 Z M 170.1 81.15 170.67 81.58 167.54 80.01 169.32 80.37 170.1 81.15 Z M 216.68 78.59 216.68 80.01 215.54 80.37 214.33 77.59 215.33 77.24 216.68 78.59 Z M 246.54 113.58 247.68 115.36 247.33 116.56 245.34 114.93 244.91 112.8 246.54 113.58 Z M 412.44 101.35 415.43 103.34 416.57 107.46 413.44 117.13 409.67 121.69 408.32 119.91 409.67 119.91 410.88 118.13 410.45 111.8 408.89 107.68 406.68 105.68 407.68 103.69 410.31 102.34 410.31 100.71 412.44 101.35 Z M 252.87 59.67 261.33 68.77 260.77 71.9 258.77 73.89 255.57 72.47 254.01 63.58 251.88 58.68 252.87 59.67 Z M 138.31 63.37 136.68 63.58 136.11 61.45 138.46 61.02 139.1 63.23 138.31 63.37 Z M 130.78 57.11 129.78 58.04 128.43 56.47 129.35 56.12 130.78 57.11 Z M 245.34 46.44 251.1 51.14 251.66 52.13 249.32 52.13 249.32 51 245.76 47.79 241.78 47.01 242.56 45.45 245.34 46.44 Z M 160.57 74.25 163.13 76.24 162.99 77.02 159.79 75.67 158.01 73.47 160.57 74.25 Z M 154.1 69.91 155.1 71.12 151.54 70.34 150.33 68.92 154.1 69.91 Z M 212.77 67.78 213.12 69.56 210.21 70.34 210.21 67.35 212.77 67.78 Z M 201.1 68.56 200.11 68.35 200.46 66.57 201.46 67.14 201.1 68.56 Z M 238.65 41.25 239.43 43.24 238.01 45.02 236.23 41.25 238.65 41.25 Z M 225.21 36.56 227.34 37.55 227.56 39.12 226.35 40.26 225 39.9 222.79 35.56 225.21 36.56 Z M 125.87 21.7 124.87 25.68 122.67 26.03 125.23 20.7 125.87 21.7 Z M 202.67 10.46 209.21 16.22 211.34 19.56 211.34 21.7 208 24.47 205.66 23.9 203.1 16.79 203.24 11.88 201.67 10.46 198.76 11.24 199.11 10.03 201.46 9.46 202.67 10.46 Z M 189.8 2.14 186.1 4.13 183.11 3.13 182.9 1.36 185.89 2 189.66 1 189.8 2.14 Z M 172.87 9.68 173.44 11.24 170.88 12.45 170.46 8.89 172.09 8.25 172.87 9.68 Z M 255.22 185.69 257.78 188.25 257.57 190.24 254.79 190.24 252.45 184.91 254.01 184.48 255.22 185.69 Z M 295.54 185.26 295.54 188.46 297.67 191.24 297.32 192.23 294.9 191.59 293.12 188.46 293.76 184.91 295.68 183.7 295.54 185.26 Z M 368.21 184.13 367.57 185.9 365.87 185.69 364.87 183.13 367 182.56 368.21 184.13 Z M 248.68 179.36 248.54 182.7 246.12 185.12 245.12 182.56 246.12 178.37 247.9 178.15 248.68 179.36 Z M 533.9 815.64 531.98 815.29 532.12 813.51 533.76 813.86 533.9 815.64 Z M 522.1 811.3 523.09 813.51 521.88 814.5 518.68 813.86 516.91 811.87 517.55 810.31 522.1 811.3 Z M 227.77 810.52 228.13 812.09 226.99 813.86 224 813.51 221.44 811.3 225.78 808.74 227.77 810.52 Z M 538.88 810.09 539.45 811.52 538.45 812.73 536.11 811.09 536.89 809.17 538.88 810.09 Z M 506.67 806.54 505.46 808.53 502.11 808.53 502.9 805.4 505.67 805.4 506.67 806.54 Z M 348.09 809.74 347.66 811.52 345.67 811.3 345.89 807.96 347.24 808.17 348.09 809.74 Z M 455.11 1025.29 456.32 1028.64 453.33 1029.63 450.77 1024.87 452.76 1024.3 455.11 1025.29 Z M 281.46 1022.31 281.89 1026.86 279.11 1026.43 277.76 1024.44 278.12 1022.09 279.89 1021.31 281.46 1022.31 Z M 534.9 1019.89 536.11 1020.53 535.11 1023.44 529.56 1027.07 532.98 1018.96 534.9 1019.89 Z M 148.55 1023.87 147.77 1022.31 149.34 1021.88 149.55 1023.87 148.55 1023.87 Z M 569.88 2124.4 567.54 2125.61 567.68 2123.62 570.66 2121.63 569.88 2124.4 Z M 79.01 2123.41 77.66 2124.4 77.02 2122.84 78.01 2122.41 79.01 2123.41 Z M 583.54 2123.05 582.9 2121.63 583.89 2121.27 584.1 2122.84 583.54 2123.05 Z" fill-rule="evenodd" transform="translate(-1,-1) "/></svg>