<svg xmlns="http://www.w3.org/2000/svg" viewBox="0 0 36.58001708984375 34.42999267578125"><path d="M 409.37 324.01 409.37 324.3 409.38 324.58 409.38 324.87 409.38 325.16 409.38 325.16 409.38 325.45 409.38 325.73 409.38 326.02 409.38 326.31 409.38 326.59 409.38 326.72 409.38 326.88 409.38 327.16 409.38 327.45 409.38 327.74 409.39 328.02 409.39 328.31 409.39 328.59 409.39 328.74 409.39 328.98 409.36 329 409.34 329 409.32 329.01 409.31 329.05 409.3 329.09 409.31 329.32 409.3 329.34 409.28 329.39 409.27 329.41 409.27 329.55 409.27 329.86 409.27 330.06 409.27 330.31 409.26 330.37 409.23 330.4 409.13 330.44 409.08 330.49 409.03 330.53 409 330.58 408.8 331.07 408.79 331.13 408.8 331.2 408.83 331.26 408.83 331.27 408.83 331.27 408.83 331.27 408.83 331.28 408.83 331.29 408.83 331.3 408.83 331.3 408.7 331.43 408.67 331.48 408.65 331.53 408.63 331.75 408.62 331.84 408.59 331.91 408.58 331.92 408.53 331.99 408.44 332.03 408.27 332.07 408.18 332.11 408.01 332.3 407.82 332.42 407.79 332.48 407.77 332.74 407.73 332.74 407.72 332.73 407.49 332.69 407.08 332.62 406.81 332.58 406.72 332.58 406.69 332.59 406.67 332.6 406.67 332.62 406.66 332.66 406.66 332.75 406.65 332.78 406.54 332.78 406.33 332.79 406.11 332.8 405.9 332.8 405.68 332.81 405.47 332.82 405.26 332.83 405.04 332.83 404.83 332.84 404.61 332.85 404.4 332.85 404.19 332.86 403.97 332.87 403.76 332.88 403.54 332.88 403.33 332.89 403.11 332.9 402.95 332.9 402.88 332.92 402.82 332.96 402.67 333.1 402.49 333.26 402.34 333.4 402.16 333.57 402.1 333.6 402.04 333.61 401.71 333.62 401.64 333.65 401.58 333.67 401.52 333.69 401.49 333.69 401.14 333.57 401.07 333.57 400.93 333.62 400.86 333.64 400.78 333.63 400.49 333.56 400.47 333.58 400.47 333.64 400.48 333.75 399.93 333.56 399.93 333.56 399.63 333.44 399.48 333.4 399.34 333.43 399.2 333.51 399.12 333.55 399.06 333.55 399.03 333.52 398.98 333.38 398.96 333.37 398.89 333.37 398.4 333.37 398.33 333.39 398.29 333.42 398.26 333.44 398.15 333.56 398.15 333.56 397.69 333.97 397.69 333.97 397.61 334.02 397.52 334.05 397.1 334.16 397.01 334.2 396.24 334.7 396.08 334.73 395.93 334.74 395.75 334.72 395.64 334.73 395.57 334.76 395.56 334.82 395.51 335.37 395.51 335.4 395.49 335.41 395.38 335.46 395.34 335.48 395.3 335.49 395.23 335.47 394.71 335.22 394.54 335.19 394.42 335.22 394.24 335.32 394.19 335.36 394.07 335.5 394.03 335.55 393.7 335.73 393.64 335.82 393.66 335.82 393.66 335.83 393.67 335.83 393.67 335.83 393.58 336.13 393.54 336.19 393.51 336.28 393.52 336.4 393.58 336.62 393.5 336.65 393.43 336.67 393.41 336.68 393.4 336.67 393.38 336.66 393.36 336.65 393.31 336.65 393.29 336.65 393.26 336.67 393.23 336.71 393.2 336.72 393.18 336.68 393.18 336.65 393.17 336.63 393.13 336.59 393.07 336.56 393.03 336.56 392.98 336.57 392.92 336.56 392.82 336.49 392.76 336.47 392.71 336.51 392.76 336.55 392.77 336.6 392.77 336.73 392.75 336.78 392.72 336.86 392.8 337.43 392.77 337.45 392.4 337.47 392.36 337.49 392.35 337.55 392.37 337.63 392.38 337.67 392.35 337.71 392.33 337.72 392.3 337.71 392.21 337.7 392.16 337.7 392.14 337.7 392.12 337.68 392.09 337.65 392.07 337.64 392.04 337.64 392.03 337.64 391.85 337.5 391.74 337.44 391.58 337.3 391.54 337.29 391.45 337.26 391.37 337.23 391.34 337.23 391.29 337.23 391.25 337.23 391.2 337.22 391.17 337.19 391.2 337.17 391.22 337.16 391.26 337.11 391.28 337.11 391.3 337.1 391.31 337.09 391.32 337.07 391.3 337.06 391.25 337.05 391.23 337.05 391.22 337.03 391.21 336.99 391.21 336.98 391.2 336.97 391.19 336.96 391.18 336.96 391.17 336.96 391.17 336.97 391.14 337 391.15 337.01 391.18 337.01 391.2 337.03 391.18 337.05 391.16 337.07 391.12 337.1 391.1 337.1 391.07 337.11 391.04 337.15 391.02 337.16 390.96 337.18 390.94 337.19 390.9 337.22 390.88 337.27 390.84 337.36 390.81 337.41 390.77 337.46 390.74 337.47 390.72 337.47 390.7 337.47 390.68 337.47 390.64 337.5 390.6 337.53 390.57 337.57 390.56 337.61 390.58 337.63 390.62 337.65 390.63 337.67 390.61 337.69 390.59 337.7 390.45 337.69 390.41 337.71 390.38 337.78 390.37 337.8 390.36 337.82 390.36 337.85 390.37 337.87 390.43 337.93 390.49 338.06 390.52 338.1 390.58 338.15 390.63 338.21 390.64 338.27 390.64 338.4 390.66 338.5 390.66 338.53 390.61 338.67 390.59 338.7 390.59 338.7 390.56 338.72 390.52 338.73 390.47 338.74 390.44 338.73 390.38 338.69 390.32 338.68 390.24 338.68 390.17 338.7 390.1 338.73 390.1 338.73 390.08 338.73 390.07 338.73 390.06 338.73 390.04 338.85 390.06 338.89 390.16 338.96 390.2 339 390.24 339.1 390.26 339.13 390.27 339.14 390.28 339.15 390.26 339.18 390.23 339.22 390.19 339.26 390.15 339.31 390.13 339.36 390.21 339.56 390.23 339.65 390.17 339.67 390.15 339.65 390.13 339.62 390.11 339.61 390.08 339.61 390.05 339.62 390.05 339.64 390.05 339.66 390.04 339.69 390.04 339.72 390.04 339.73 390.03 339.74 389.84 339.9 389.89 340.01 389.87 340.03 389.8 340.04 389.72 340.08 389.7 340.12 389.7 340.16 389.69 340.18 389.68 340.19 389.64 340.21 389.62 340.21 389.57 340.21 389.55 340.21 389.53 340.23 389.51 340.26 389.5 340.29 389.48 340.31 389.45 340.33 389.38 340.34 389.34 340.35 389.3 340.32 389.26 340.32 389.16 340.35 389.11 340.35 389.07 340.34 389.02 340.33 388.97 340.35 388.95 340.37 388.93 340.38 388.91 340.39 388.88 340.39 388.84 340.39 388.75 340.39 388.72 340.39 388.69 340.41 388.61 340.45 388.54 340.47 388.51 340.5 388.45 340.57 388.37 340.64 388.32 340.7 388.31 340.71 388.29 340.71 388.28 340.71 388.27 340.7 388.25 340.69 388.24 340.69 388.23 340.7 388.22 340.71 388.21 340.71 388.13 340.72 388.13 340.73 388.11 340.75 388.1 340.75 388.08 340.74 388.06 340.73 388.05 340.72 388.02 340.73 388 340.73 388 340.74 388.02 340.77 388.03 340.77 388.09 340.81 388.1 340.81 388.13 340.81 388.15 340.81 388.18 340.82 388.22 340.83 388.25 340.86 388.28 340.89 388.3 340.93 388.3 340.97 388.29 341.02 388.28 341.11 388.26 341.13 388.25 341.15 388.23 341.18 388.23 341.2 388.25 341.23 388.27 341.23 388.29 341.23 388.32 341.24 388.4 341.3 388.42 341.38 388.42 341.56 388.43 341.61 388.43 341.64 388.41 341.66 388.37 341.69 388.33 341.72 388.32 341.76 388.34 341.99 388.33 342.03 388.31 342.07 388.24 342.14 388.22 342.2 388.2 342.29 388.18 342.32 388.13 342.35 388.09 342.37 388.05 342.38 387.83 342.41 387.8 342.43 387.79 342.46 387.8 342.48 387.82 342.6 387.8 342.66 387.85 342.65 387.88 342.71 387.93 342.86 387.95 342.91 387.96 342.94 387.93 343.07 387.93 343.09 387.93 343.11 387.91 343.12 387.89 343.13 387.88 343.15 387.87 343.18 387.85 343.3 387.85 343.32 387.86 343.36 387.86 343.37 387.9 343.39 387.87 343.41 387.86 343.44 387.86 343.48 387.87 343.49 387.88 343.51 387.85 343.63 387.8 343.71 387.79 343.73 387.77 343.85 387.76 343.88 387.7 343.86 387.65 343.82 387.62 343.81 387.6 343.81 387.54 343.83 387.41 343.84 387.13 343.91 386.97 343.99 386.94 344.01 386.91 344.05 386.9 344.09 386.91 344.21 386.89 344.23 386.78 344.2 386.76 344.22 386.75 344.27 386.73 344.32 386.71 344.36 386.66 344.41 386.47 344.41 386.3 344.35 386.27 344.33 386.23 344.28 386.2 344.26 386.17 344.27 386.16 344.18 386.17 344.15 386.19 344.12 386.2 344.13 386.21 344.14 386.22 344.14 386.24 344.14 386.25 344.12 386.24 344.11 386.24 344.1 386.24 344.09 386.29 344.03 386.26 344 386.27 343.96 386.3 343.89 386.26 343.85 386.26 343.83 386.26 343.81 386.28 343.77 386.29 343.75 386.28 343.73 386.27 343.72 386.25 343.72 386.22 343.73 386.21 343.72 386.19 343.71 386.18 343.69 386.17 343.68 386.15 343.68 386.13 343.69 386.12 343.68 386.12 343.65 386.13 343.63 386.17 343.6 386.19 343.58 386.19 343.55 386.18 343.52 386.17 343.49 386.19 343.47 386.21 343.46 386.24 343.45 386.25 343.42 386.24 343.4 386.22 343.39 386.2 343.37 386.15 343.36 386.15 343.34 386.16 343.25 386.16 343.22 386.13 343.2 386.08 343.21 386.03 343.23 385.99 343.26 385.94 343.28 385.89 343.28 385.84 343.27 385.79 343.28 385.75 343.29 385.74 343.34 385.73 343.42 385.75 343.45 385.77 343.47 385.8 343.48 385.82 343.5 385.81 343.56 385.77 343.58 385.71 343.59 385.66 343.59 385.54 343.57 385.51 343.56 385.42 343.51 385.37 343.48 385.34 343.45 385.29 343.37 385.27 343.35 385.22 343.37 385.22 343.37 385.19 343.43 385.18 343.43 385.17 343.47 385.17 343.51 385.17 343.53 385.18 343.55 385.19 343.56 385.18 343.67 385.15 343.74 385.16 343.78 385.19 343.82 385.2 343.83 385.23 343.84 385.25 343.85 385.26 343.86 385.26 343.89 385.25 343.91 385.24 343.92 385.23 343.94 385.22 344.01 385.22 344.02 385.2 344.05 385.15 344.07 385.1 344.06 385.01 344.01 384.97 344 384.92 344 384.79 344.06 384.74 344.07 384.62 344.05 384.57 344.06 384.54 344.09 384.49 344.26 384.49 344.29 384.52 344.31 384.55 344.33 384.57 344.36 384.57 344.42 384.55 344.46 384.5 344.5 384.45 344.52 384.39 344.52 384.35 344.48 384.32 344.43 384.29 344.39 384.25 344.37 384.03 344.31 383.85 344.28 383.71 344.28 383.68 344.27 383.66 344.24 383.66 344.18 383.67 344.09 383.66 344.06 383.61 344.06 383.55 344.08 383.53 344.08 383.5 344.08 383.5 344.07 383.5 344.05 383.5 344.02 383.46 343.96 383.45 343.94 383.45 343.92 383.45 343.9 383.45 343.87 383.44 343.84 383.42 343.82 383.4 343.81 383.37 343.8 383.34 343.81 383.29 343.87 383.27 343.89 383.25 343.9 383.21 343.9 383.19 343.9 383.14 343.89 383.06 343.84 383.01 343.85 383 343.87 382.99 343.9 382.98 343.92 382.96 343.93 382.93 343.93 382.91 343.93 382.88 343.95 382.88 343.97 382.87 343.97 382.85 343.98 382.88 344.02 382.85 344.05 382.8 344.08 382.76 344.09 382.79 344.13 382.76 344.18 382.76 344.21 382.75 344.23 382.73 344.24 382.72 344.25 382.71 344.27 382.7 344.29 382.65 344.36 382.62 344.37 382.6 344.39 382.58 344.4 382.53 344.4 382.51 344.42 382.46 344.45 382.42 344.47 382.38 344.48 382.33 344.48 382.29 344.47 382.34 344.36 382.35 344.31 382.35 344.25 382.33 344.2 382.31 344.14 382.27 344.1 382.23 344.07 382.11 344.07 382.05 344.05 382.01 344.02 382 344 382 343.94 381.99 343.91 381.97 343.87 381.95 343.87 381.93 343.88 381.9 343.89 381.85 343.9 381.8 343.9 381.76 343.88 381.7 343.78 381.64 343.69 381.61 343.63 381.58 343.18 381.57 343.14 381.51 343.12 381.51 343.08 381.56 342.95 381.58 342.93 381.59 342.91 381.59 342.87 381.59 342.64 381.58 342.59 381.54 342.54 381.5 342.49 381.45 342.47 381.42 342.47 381.38 342.49 381.36 342.5 381.32 342.48 381.3 342.48 381.27 342.49 381.23 342.49 381.18 342.47 381.15 342.47 381.09 342.59 381.07 342.63 381.03 342.65 380.99 342.67 380.95 342.67 380.91 342.67 380.87 342.66 380.83 342.67 380.79 342.69 380.76 342.7 380.72 342.67 380.71 342.64 380.72 342.6 380.74 342.56 380.76 342.53 380.86 342.43 380.89 342.39 380.89 342.36 380.88 342.34 380.88 342.32 380.9 342.29 380.92 342.28 380.97 342.28 380.99 342.27 381 342.24 381.02 342.16 381.04 342.12 381.06 342.11 381.1 342.09 381.12 342.08 381.13 342.07 381.15 342.07 381.16 342.07 381.16 342.05 381.16 342.04 381.15 342.03 381.15 342.02 381.17 341.97 381.2 341.95 381.28 341.97 381.32 341.98 381.37 341.97 381.41 341.96 381.43 341.93 381.44 341.87 381.42 341.86 381.38 341.87 381.34 341.86 381.32 341.83 381.35 341.8 381.39 341.78 381.43 341.77 381.39 341.73 381.32 341.69 381.18 341.65 381.12 341.65 381.1 341.64 381.08 341.61 381.07 341.57 381.06 341.52 381.05 341.49 380.99 341.54 380.93 341.53 380.81 341.48 380.79 341.44 380.76 341.4 380.74 341.36 380.74 341.32 380.69 341.15 380.66 341.13 380.63 341.14 380.59 341.16 380.54 341.16 380.5 341.15 380.47 341.13 380.43 341.11 380.39 341.11 380.5 340.54 380.5 340.51 380.49 340.49 380.47 340.47 380.46 340.45 380.46 340.4 380.46 340.35 380.45 340.32 380.41 340.28 380.36 340.27 380.31 340.28 380.26 340.28 380.22 340.24 380.21 340.2 380.22 340.15 380.26 340.06 380.26 340.01 380.24 339.96 380.21 339.92 380.18 339.9 380.13 339.92 380.11 339.92 380.09 339.9 380.08 339.87 380.06 339.84 380.06 339.82 380.06 339.76 380.08 339.71 380.11 339.66 380.13 339.61 380.13 339.56 380.1 339.51 380.06 339.47 379.99 339.43 379.72 339.3 379.63 339.27 379.46 339.23 379.43 339.23 379.42 339.25 379.4 339.25 379.37 339.24 379.34 339.23 379.32 339.22 379.31 339.23 379.27 339.25 379.17 339.28 379.14 339.32 379.15 339.34 379.18 339.38 379.22 339.42 379.28 339.45 379.29 339.47 379.29 339.49 379.3 339.51 379.31 339.52 379.35 339.53 379.36 339.54 379.37 339.57 379.36 339.61 379.34 339.65 379.31 339.65 379.31 339.71 379.3 339.74 379.25 339.79 379.12 339.77 379.08 339.77 378.99 339.81 378.95 339.84 378.91 339.88 378.66 339.96 378.59 340.01 378.55 340.04 378.54 340.08 378.53 340.12 378.54 340.16 378.53 340.19 378.5 340.23 378.45 340.29 378.32 340.28 378.28 340.27 378.26 340.26 378.23 340.23 378.2 340.22 378.19 340.22 378.14 340.23 378.12 340.23 378.08 340.21 378 340.15 377.96 340.14 377.92 340.13 377.84 340.09 377.8 340.07 377.77 340.06 377.73 340.03 377.7 340.01 377.68 340.01 377.64 340.01 377.63 340 377.62 340 377.6 339.99 377.57 339.96 377.55 339.95 377.53 339.95 377.48 339.95 377.43 339.94 377.36 339.91 377.28 339.89 377.27 339.88 377.26 339.86 377.24 339.85 377.16 339.89 377.14 339.91 377.14 339.91 377.13 339.9 377.12 339.89 377.11 339.89 377.1 339.92 377.08 339.93 377.06 339.93 377.05 339.94 377.05 339.97 377.02 339.96 377 339.95 376.99 339.94 376.96 339.96 376.88 340.02 376.87 340.04 376.85 340.07 376.74 340.06 376.7 340.08 376.7 340.1 376.72 340.15 376.71 340.15 376.69 340.16 376.69 340.19 376.69 340.21 376.69 340.23 376.65 340.26 376.6 340.28 376.58 340.31 376.59 340.36 376.56 340.37 376.51 340.39 376.47 340.42 376.46 340.44 376.45 340.47 376.43 340.51 376.4 340.55 376.38 340.57 376.35 340.59 376.26 340.59 376.19 340.53 376.1 340.35 376.04 340.29 376.03 340.27 376.04 340.25 376.06 340.21 376.06 340.19 376.05 340.13 376.01 340.1 375.96 340.07 375.91 340.03 375.82 339.89 375.78 339.87 375.72 339.85 375.68 339.85 375.58 339.88 375.53 339.88 375.5 339.89 375.48 339.91 375.46 340.01 375.43 340.04 375.36 340.09 375.36 340.09 375.35 340.1 375.31 340.15 375.3 340.16 375.28 340.16 375.26 340.17 375.25 340.24 375.23 340.28 375.19 340.31 375.16 340.32 375.12 340.32 375.05 340.35 375.01 340.35 374.96 340.34 374.92 340.31 374.87 340.29 374.84 340.25 374.75 340.13 374.71 340.1 374.57 340.04 374.53 340 374.49 339.91 374.53 339.85 374.59 339.78 374.63 339.69 374.63 339.64 374.62 339.55 374.63 339.5 374.66 339.48 374.71 339.48 374.76 339.48 374.76 339.44 374.76 339.38 374.77 339.32 374.78 339.26 374.75 339.22 374.75 339.24 374.73 339.26 374.72 339.24 374.71 339.21 374.71 339.19 374.69 339.15 374.68 339.16 374.66 339.18 374.66 339.2 374.65 339.18 374.62 339.14 374.6 339.13 374.58 339.12 374.6 339.11 374.64 339.08 374.65 339.06 374.64 339.04 374.64 339.03 374.64 339 374.65 338.93 374.65 338.91 374.64 338.89 374.62 338.87 374.6 338.87 374.59 338.86 374.59 338.83 374.61 338.81 374.62 338.8 374.65 338.74 374.68 338.73 374.71 338.72 374.73 338.7 374.72 338.67 374.7 338.63 374.7 338.62 374.71 338.61 374.72 338.58 374.72 338.55 374.71 338.53 374.7 338.51 374.69 338.5 374.69 338.49 374.68 338.48 374.68 338.48 374.67 338.48 374.66 338.48 374.66 338.46 374.66 338.45 374.67 338.44 374.67 338.43 374.67 338.39 374.67 338.37 374.69 338.35 374.7 338.32 374.69 338.31 374.68 338.3 374.67 338.29 374.67 338.27 374.68 338.27 374.7 338.27 374.71 338.28 374.72 338.28 374.74 338.26 374.76 338.25 374.76 338.24 374.76 338.18 374.75 338.16 374.74 338.13 374.73 338.11 374.72 338.15 374.7 338.18 374.68 338.19 374.64 338.18 374.65 338.16 374.66 338.12 374.66 338.1 374.66 338.09 374.68 338.08 374.68 338.07 374.66 338.06 374.65 338.05 374.64 338.04 374.63 338.01 374.6 337.97 374.6 337.95 374.62 337.94 374.62 337.92 374.6 337.91 374.56 337.9 374.53 337.88 374.5 337.86 374.47 337.85 374.44 337.84 374.42 337.8 374.42 337.72 374.4 337.69 374.38 337.67 374.35 337.64 374.35 337.6 374.36 337.57 374.38 337.53 374.39 337.51 374.38 337.49 374.33 337.44 374.27 337.37 374.26 337.32 374.26 337.27 374.24 337.28 374.21 337.29 374.19 337.29 374.18 337.26 374.19 337.23 374.18 337.22 374.12 337.22 374.08 337.23 374.06 337.23 374.03 337.21 374.02 337.19 374.01 337.17 373.97 337.17 373.94 337.19 373.92 337.22 373.9 337.27 373.9 337.31 373.81 337.38 373.79 337.4 373.78 337.4 373.75 337.37 373.74 337.36 373.73 337.31 373.72 337.3 373.71 337.28 373.65 337.26 373.63 337.25 373.62 337.23 373.65 337.1 373.66 337.06 373.64 337.04 373.63 337.03 373.6 337.03 373.58 337.02 373.57 337 373.55 336.97 373.54 336.95 373.41 336.86 373.37 336.81 373.32 336.74 373.29 336.65 373.24 336.57 373.21 336.52 373.18 336.5 373.37 336.39 373.45 336.31 373.48 336.21 373.5 336.12 373.5 336.07 373.48 336.03 373.44 335.99 373.4 335.95 373.37 335.92 373.34 335.86 373.34 335.76 373.39 335.59 373.41 335.5 373.41 335.45 373.32 335.26 373.3 335.22 373.27 335.2 373.18 335.17 373.16 335.15 373.13 335.12 373.12 335.09 373.15 335.08 373.16 335.05 373.14 335.02 372.94 334.94 372.91 334.94 372.91 334.84 372.91 334.79 372.88 334.69 372.88 334.65 372.89 334.61 372.93 334.58 372.95 334.57 372.95 334.54 372.96 334.51 372.96 334.49 372.98 334.47 373.02 334.42 373.03 334.41 373.03 334.37 373.02 334.35 372.99 334.35 372.98 334.33 372.97 334.31 372.98 334.29 372.99 334.28 373 334.25 372.98 334.25 372.94 334.24 372.91 334.23 372.89 334.2 372.88 334.17 372.83 334.13 372.81 334.06 372.85 334.08 372.9 334.09 372.95 334.08 373.04 334.05 373.09 334.04 373.13 334.06 373.22 334.14 373.24 334.16 373.26 334.13 373.27 334.09 373.29 334.08 373.33 334.09 373.38 334.09 373.42 334.08 373.46 334.05 373.51 333.98 373.54 333.95 373.63 333.93 373.67 333.91 373.7 333.88 373.72 333.85 373.73 333.83 373.74 333.82 373.75 333.81 373.76 333.79 373.77 333.79 373.79 333.79 373.8 333.78 373.8 333.76 373.78 333.74 373.78 333.73 373.77 333.72 373.79 333.64 373.8 333.6 373.81 333.56 373.81 333.56 373.82 333.52 373.81 333.49 373.8 333.46 373.77 333.44 373.76 333.44 373.74 333.45 373.73 333.46 373.71 333.44 373.71 333.43 373.72 333.36 373.74 333.27 373.75 333.24 373.74 333.21 373.74 333.19 373.74 333.14 373.78 333.02 373.8 332.91 373.81 332.88 373.88 332.72 373.92 332.55 373.94 332.48 374 332.42 374.01 332.39 374.01 332.32 374.06 332.32 374.07 332.33 374.13 332.35 374.19 332.35 374.25 332.32 374.33 332.23 374.37 332.21 374.43 332.19 374.45 332.18 374.47 332.16 374.48 332.15 374.48 332.14 374.48 332.12 374.47 332.11 374.46 332.11 374.46 332.1 374.45 332.09 374.45 332.08 374.45 332.08 374.47 332.08 374.6 332.11 374.65 332.13 374.71 332.18 374.91 332.48 374.96 332.52 375.52 332.94 375.59 333 375.65 333.12 375.73 333.2 375.8 333.32 375.82 333.28 375.86 333.15 375.88 333.11 375.94 333.05 375.96 333.02 375.98 332.93 376 332.9 376.04 332.86 376.06 332.85 376.08 332.85 376.1 332.85 376.13 332.81 376.16 332.79 376.18 332.77 376.2 332.73 376.19 332.63 376.2 332.59 376.23 332.56 376.26 332.56 376.4 332.58 376.49 332.58 376.53 332.58 376.54 332.57 376.61 332.55 376.65 332.54 376.69 332.55 376.72 332.55 376.95 332.55 377.01 332.56 377.12 332.55 377.15 332.56 377.34 332.63 377.36 332.63 377.4 332.63 377.42 332.63 377.46 332.65 377.54 332.7 377.59 332.72 377.68 332.72 377.94 332.68 378.2 332.7 378.28 332.68 378.41 332.61 378.45 332.59 378.56 332.57 379.11 332.55 379.08 332.42 379.08 332.42 379.05 332.27 379.05 332.21 379.08 332.15 379.22 331.99 379.26 331.96 379.31 331.98 379.32 332.06 379.29 332.21 379.28 332.42 379.66 332.42 379.74 332.42 380.01 332.42 380.04 332.42 380.25 332.42 380.4 332.42 380.56 332.42 380.74 332.42 380.93 332.42 381.22 332.42 381.54 332.42 381.88 332.42 382.23 332.42 382.59 332.42 382.96 332.42 383.34 332.42 383.72 332.42 384.1 332.42 384.47 332.42 384.84 332.42 385.21 332.42 385.56 332.42 385.89 332.42 385.99 332.42 386.21 332.42 386.51 332.42 386.68 332.42 386.84 332.42 386.99 332.42 387.13 332.42 387.42 332.42 387.77 332.42 387.77 332.42 387.77 332.42 387.78 332.42 387.78 332.42 387.78 332.42 387.78 332.42 387.78 332.43 387.78 332.43 387.78 332.43 387.78 332.43 387.78 332.43 387.78 332.43 387.78 332.43 387.78 332.43 387.78 332.43 387.78 332.43 387.78 332.43 387.78 332.42 387.78 332.42 387.78 332.42 387.78 332.42 387.78 332.42 387.78 332.42 387.78 332.42 387.78 332.42 387.78 332.42 387.78 332.42 387.78 332.42 387.78 332.42 387.78 332.42 387.78 332.42 387.78 332.42 387.79 332.41 387.79 332.4 387.79 332.39 387.79 332.39 387.79 332.37 387.83 332.15 387.88 331.93 387.92 331.71 387.96 331.49 388 331.27 388.04 331.05 388.08 330.84 388.12 330.62 388.13 330.55 388.13 330.54 388.13 330.52 388.12 330.51 388.11 330.5 388.02 330.44 387.93 330.37 387.84 330.31 387.74 330.25 387.66 330.19 387.57 330.13 387.55 330.09 387.53 330.06 387.53 329.96 387.5 329.76 387.48 329.55 387.46 329.34 387.44 329.13 387.42 328.93 387.39 328.72 387.37 328.51 387.35 328.3 387.33 328.09 387.31 327.89 387.28 327.68 387.26 327.47 387.24 327.26 387.22 327.05 387.2 326.84 387.17 326.63 387.15 326.42 387.13 326.2 387.11 325.99 387.08 325.77 387.06 325.56 387.04 325.34 387.02 325.13 386.99 324.91 386.97 324.7 386.95 324.48 386.93 324.26 386.9 324.05 386.89 323.91 386.87 323.78 386.86 323.64 386.85 323.5 386.81 323.18 386.81 323.18 386.81 323.18 386.81 323.18 386.78 322.89 386.75 322.6 386.72 322.31 386.69 322.01 386.65 321.72 386.62 321.43 386.59 321.13 386.56 320.84 386.53 320.58 386.51 320.45 386.48 320.14 386.45 319.84 386.43 319.7 386.4 319.42 386.37 319.13 386.34 318.85 386.31 318.56 386.28 318.28 386.25 317.99 386.21 317.7 386.18 317.42 386.15 317.13 386.12 316.84 386.09 316.56 386.06 316.27 386.03 315.98 385.99 315.69 385.96 315.4 385.93 315.12 385.9 314.83 385.88 314.6 385.87 314.54 385.84 314.25 385.81 313.96 385.78 313.67 385.74 313.38 385.71 313.09 385.68 312.8 385.67 312.65 385.63 312.32 385.6 311.99 385.58 311.84 385.58 311.83 385.56 311.63 385.54 311.44 385.51 311.25 385.49 311.05 385.47 310.86 385.45 310.67 385.43 310.48 385.41 310.28 385.39 310.09 385.88 310.09 386.37 310.09 386.86 310.09 387.35 310.09 387.84 310.09 388.33 310.09 388.82 310.09 389.31 310.09 389.31 310.09 389.31 310.09 389.31 310.09 389.48 310.2 389.65 310.32 389.82 310.43 389.99 310.55 390.24 310.73 390.41 310.85 390.59 310.98 390.77 311.11 390.94 311.23 391.12 311.36 391.3 311.48 391.47 311.61 391.65 311.74 391.83 311.86 392 311.99 392.18 312.11 392.36 312.24 392.53 312.37 392.71 312.49 392.89 312.62 393.06 312.74 393.25 312.88 393.45 313.02 393.64 313.15 393.83 313.29 394.02 313.42 394.21 313.56 394.41 313.7 394.6 313.83 394.79 313.97 394.98 314.1 395.18 314.24 395.37 314.38 395.56 314.51 395.75 314.65 395.94 314.78 396.14 314.92 396.33 315.05 396.52 315.19 396.71 315.33 396.9 315.46 397.1 315.6 397.29 315.73 397.48 315.87 397.67 316 397.86 316.14 398.06 316.27 398.25 316.41 398.44 316.54 398.63 316.68 398.82 316.81 399.02 316.95 399.21 317.08 399.4 317.22 399.59 317.35 399.78 317.48 399.98 317.62 400.01 317.64 400.17 317.75 400.36 317.89 400.55 318.02 400.75 318.16 400.94 318.29 401.13 318.43 401.32 318.56 401.51 318.69 401.71 318.83 401.9 318.96 402.09 319.1 402.28 319.23 402.54 319.41 402.57 319.46 402.61 319.61 402.62 319.66 402.59 319.92 402.54 320.13 402.54 320.18 402.54 320.24 402.56 320.27 402.59 320.28 402.64 320.29 402.69 320.28 402.78 320.27 402.82 320.26 402.87 320.28 402.91 320.3 402.95 320.39 402.99 320.43 403.02 320.46 403.12 320.49 403.21 320.5 403.25 320.51 403.29 320.54 403.37 320.55 403.46 320.6 403.6 320.71 403.64 320.77 403.66 320.86 403.66 321.03 403.68 321.07 403.94 321.29 403.99 321.31 404.04 321.31 404.08 321.31 404.11 321.31 404.15 321.34 404.17 321.38 404.18 321.43 404.19 321.46 404.24 321.46 404.27 321.45 404.3 321.41 404.33 321.4 404.36 321.41 404.38 321.42 404.4 321.43 404.42 321.45 404.56 321.5 404.59 321.5 404.65 321.48 404.74 321.39 404.79 321.36 404.84 321.35 404.88 321.36 404.92 321.38 405.05 321.49 405.13 321.58 405.21 321.68 405.3 321.84 405.32 321.87 405.35 321.88 405.41 321.89 405.45 321.91 405.53 321.95 405.57 321.96 405.6 321.97 405.8 322.01 405.92 322.01 406.53 322.14 406.81 322.26 406.94 322.36 406.98 322.38 407.06 322.41 407.09 322.42 407.12 322.45 407.13 322.48 407.09 322.96 407.09 323.05 407.12 323.13 407.13 323.15 407.14 323.15 407.16 323.16 407.16 323.18 407.16 323.2 407.15 323.24 407.15 323.27 407.17 323.31 407.2 323.34 407.22 323.38 407.23 323.43 407.21 323.49 407.17 323.52 407.12 323.54 407.08 323.58 407.06 323.62 407.05 323.71 407.04 323.75 406.99 323.8 406.96 323.82 406.95 323.84 406.93 323.89 406.9 323.94 406.88 323.98 406.88 324.02 406.92 324.08 406.96 324.11 407 324.15 407.05 324.18 407.15 324.22 407.28 324.35 407.33 324.38 407.36 324.39 407.39 324.4 407.45 324.39 407.62 324.35 407.62 324.35 407.86 324.3 408.24 324.23 408.4 324.2 408.62 324.16 408.99 324.08 409.37 324.01 Z" id="Mali" transform="translate(-372.80999755859375,-310.0899963378906) "/></svg>