<svg xmlns="http://www.w3.org/2000/svg" viewBox="0 0 798 603"><path d="M 733.48 515.3 727.38 515.3 721.07 508.59 705.81 510.21 705.2 514.69 709.68 514.69 711.51 521.61 700.73 523.84 705.2 534.63 713.75 530.56 724.53 540.12 729.62 540.73 722.7 532.19 726.16 530.56 736.94 535.03 738.57 540.73 744.88 538.49 736.33 547.04 732.47 542.97 730.63 552.12 723.31 557.62 707.44 563.92 667.97 562.29 638.46 549.88 613.64 548.66 607.54 544.8 591.67 547.44 580.88 544.19 573.56 537.88 556.06 534.63 545.28 537.88 522.69 528.93 517.6 530.56 508.65 523.23 475.69 519.37 470.2 514.28 468.98 507.37 447.61 502.28 445.17 504.52 440.08 499.02 433.37 499.43 430.52 488.45 408.75 478.07 398.98 477.26 394.91 472.17 382.5 466.88 376.19 459.96 362.56 453.66 360.12 447.76 351.98 441.86 342.42 439.01 345.88 433.31 332.25 432.91 320.85 426.6 308.44 412.56 310.68 401.17 304.98 387.13 293.79 377.37 297.66 367.19 292.57 359.87 293.18 357.63 318.61 359.26 314.75 356.62 312.92 349.09 303.35 344.21 301.73 333.42 305.59 324.27 315.15 324.88 320.44 330.57 324.92 329.35 324.92 319.18 316.37 319.79 314.75 314.71 327.16 313.69 323.09 309.62 327.16 303.92 316.99 303.31 312.92 297.82 297.25 294.97 293.79 287.04 300.5 280.32 309.05 280.32 312.92 267.3 319.83 262.22 313.53 260.39 311.9 252.05 315.76 250.22 307.42 244.72 312.92 240.04 309.66 231.7 283.62 233.94 274.05 227.63 281.38 214.21 291.55 211.36 297.25 202.81 303.35 202.2 303.96 199.36 291.55 196.1 293.18 188.78 296.64 188.17 294.4 192.03 296.64 194.27 316.99 196.1 322.68 193.86 330.62 196.51 330.01 192.03 336.72 192.03 340.79 194.88 342.42 185.32 356.46 189.18 358.7 184.1 367.85 184.71 362.77 181.25 362.16 175.76 365 173.52 372.33 175.76 373.96 170.67 383.72 180.84 383.72 186.54 391.45 190.4 392.06 194.88 367.85 202.2 367.85 206.27 356.46 214.61 340.18 221.94 338.96 228.85 345.27 236.79 372.94 233.94 397.15 225.4 401.83 232.72 411.39 228.85 415.26 232.72 435 233.33 431.13 238.42 435.61 242.48 431.13 247.98 433.98 252.45 420.35 252.45 423.81 255.91 422.58 259.98 416.89 268.93 407.32 274.63 407.94 279.71 419.74 277.48 436.83 268.32 440.08 271.17 456.56 270.15 457.78 265.07 473.45 261.61 474.67 256.52 480.78 252.45 490.54 248.59 501.12 248.59 501.73 251.44 493.8 250.83 489.93 261.61 490.95 267.92 483.63 281.34 489.93 273.41 502.95 267.3 506.21 260.39 515.37 261 523.3 266.08 530.63 266.08 541.41 282.56 546.5 281.34 545.28 275.24 549.75 274.63 553.21 289.28 558.91 286.43 563.38 294.97 583.73 298.43 593.29 293.14 606.93 297.82 607.54 302.91 614.25 306.77 625.65 309.01 628.9 313.69 624.42 317.55 635.21 318.57 631.75 321.01 633.38 333.42 628.29 333.83 630.53 338.51 636.84 340.75 640.7 333.83 649.86 336.68 659.42 341.76 658.81 347.46 674.68 358.85 666.75 361.09 653.72 354.38 639.07 358.24 638.06 361.7 657.18 362.72 656.57 367.8 652.1 370.04 635.82 366.18 644.16 372.28 644.16 377.37 639.07 379.6 639.07 383.67 668.58 367.19 684.24 365.57 680.38 377.98 672.44 379.6 660.64 395.47 643.55 404.63 647.21 410.53 638.26 411.75 645.59 415.21 650.06 413.58 648.64 407.48 655.56 401.78 667.97 398.32 676.92 409.1 670.82 391.61 679.77 394.46 685.06 404.42 685.47 396.69 677.33 388.15 680.17 385.91 686.48 393.23 697.27 395.47 689.94 388.76 696.66 384.89 691.16 380.21 690.55 372.89 698.49 378.59 704.59 376.96 714.76 382.05 726.77 383.06 736.94 392.62 747.12 395.47 752.2 402.39 756.07 402.8 758.31 409.1 771.94 412.97 797.37 437.99 769.09 445.32 784.96 443.08 799 450.4 788.83 459.96 774.18 465.05 772.55 468.51 777.64 473.59 787.81 474 780.89 484.17 788.83 488.85 791.68 494.35 784.96 497.19 779.87 491.09 772.55 489.87 769.09 492.72 771.33 497.19 764.61 499.43 765.63 503.5 773.57 506.35 769.7 511.43 773.16 522.62 770.72 527.71 766.24 527.3 770.72 529.95 766.85 532.19 767.87 537.88 761.77 535.64 757.29 526.69 758.31 519.37 744.27 497.19 733.48 494.96 738.57 508.59 733.48 515.3 Z M 463.89 601.15 462.26 604 455.34 602.98 457.78 598.91 463.89 601.15 Z M 449.24 237.6 442.52 241.47 436.83 241.87 439.68 237.2 455.95 236.18 449.24 237.6 Z M 318.61 129.37 322.68 136.7 328.79 136.7 339.57 146.26 341.2 149.72 337.33 156.43 284.23 162.13 295.42 150.73 285.85 144.63 284.84 136.7 280.77 133.85 282.4 129.98 296.03 128.15 297.66 132.22 299.49 128.15 302.74 128.15 312.51 133.85 312.51 127.74 318.61 129.37 Z M 281.99 140.15 284.23 146.87 280.16 143.41 272.22 143.41 270.59 138.93 281.99 140.15 Z M 178.42 136.7 157.47 146.87 151.97 141.17 144.65 141.17 139.56 133.24 101.11 129.98 94.19 124.9 78.32 127.54 71.6 125.51 71.6 121.23 65.5 120.01 57.36 112.49 64.89 113.1 63.46 110.04 67.33 106.99 61.84 109.03 51.66 101.5 37.42 99.26 20.13 101.91 9.55 98.86 5.48 94.38 12.19 86.85 11.58 76.88 18.7 74.44 16.46 70.98 7.71 70.98 12.8 67.32 8.94 59.39 17.07 52.06 13.82 40.67 1 36.4 2.02 18.09 28.88 17.68 36.81 13.41 39.25 8.32 65.5 3.85 75.67 6.09 78.52 1.61 92.56 4.46 94.19 1 109.04 1 139.97 5.68 137.73 10.15 151.97 13 151.97 21.95 155.23 21.95 158.69 16.87 171.1 19.11 183.51 34.36 190.84 36.2 200.6 44.13 206.1 43.52 212.4 34.36 218.1 33.96 224.2 42.3 231.53 44.54 237.84 51.45 249.03 47.38 259.81 48.61 262.66 62.03 266.73 63.25 267.14 67.73 273.44 65.49 281.38 67.73 310.68 97.23 311.9 103.33 308.44 106.18 284.63 112.49 279.55 117.57 236.62 115.33 235.6 118.59 240.07 119.2 222.58 129.98 215.86 128.76 208.33 133.85 196.53 133.24 194.9 136.7 180.66 134.46 178.42 136.7 Z" fill-rule="evenodd" transform="translate(-1,-1) "/></svg>