<svg xmlns="http://www.w3.org/2000/svg" viewBox="0 0 798 932"><path d="M 690.21 930.91 689.83 933 685.46 931.86 685.46 924.07 688.69 924.07 690.21 930.91 Z M 757.23 877.55 756.28 880.78 752.48 879.64 756.28 873.94 757.23 877.55 Z M 768.24 851.35 765.77 856.47 758.37 853.81 761.41 849.64 768.24 851.35 Z M 782.1 782.6 788.94 795.33 797.86 795.33 799 798.55 785.71 795.9 787.23 799.5 780.39 799.5 774.13 805.39 775.08 809.57 770.52 811.66 772.61 824.38 768.24 838.05 765.2 843.37 759.32 843.37 756.28 848.12 752.48 848.12 753.62 857.04 748.88 859.7 751.34 865.02 738.24 869.2 734.64 867.11 737.67 866.54 735.02 860.27 724 859.13 721.92 868.63 726.09 866.54 726.09 871.85 733.5 870.14 730.84 880.21 744.51 882.3 743.56 889.13 735.59 890.84 732.55 886.1 726.09 886.1 712.42 902.43 710.9 908.69 714.51 910.78 709.76 916.67 704.07 914.58 702.36 918.19 700.27 915.53 696.09 918.19 697.61 912.87 693.44 912.49 693.44 916.1 683.94 919.9 677.11 916.1 673.88 918.19 666.47 916.67 666.47 914.01 671.79 912.87 670.65 907.74 652.8 900.91 653.94 894.45 648.63 892.93 648.63 889.13 652.8 889.13 652.23 884.39 637.62 873.94 638.56 869.2 642.74 869.2 650.72 860.27 653.94 850.21 663.44 837.48 661.73 829.7 656.03 823.81 656.03 812.23 660.21 812.23 668.18 821.15 671.22 816.4 675.97 818.49 675.97 813.75 672.36 815.46 671.22 812.23 673.88 811.66 678.63 799.5 679.77 804.25 692.3 805.96 686.6 797.99 696.09 793.24 690.78 789.06 692.3 784.69 679.77 791.15 679.77 785.83 684.89 781.65 679.77 779 675.59 786.97 668.56 786.97 675.02 779 673.31 775.39 670.27 775.77 667.04 783.74 661.35 784.31 644.45 799.12 640.08 804.82 640.08 811.09 627.93 820.2 623.76 818.11 623.76 811.09 614.83 806.34 605.91 796.47 602.11 796.85 603.25 779.57 600.02 782.6 591.67 779.95 589.96 783.74 582.74 783.17 559.01 792.67 556.92 788.49 545.72 790.01 544.77 785.26 537.75 783.74 518.38 786.97 515.72 781.08 510.98 782.22 502.43 772.73 495.22 773.11 495.22 776.91 483.45 782.22 476.23 776.34 480.79 767.41 477.18 764.75 476.61 768.36 473 767.98 476.61 760.96 472.43 755.83 465.03 764.18 464.08 773.11 457.62 765.32 452.5 763.61 455.54 767.41 456.67 779.95 452.88 785.26 448.13 781.08 440.73 781.65 435.03 777.48 435.03 770.45 429.14 760.58 425.54 761.53 421.36 770.45 424.02 775.39 419.08 774.82 407.5 765.7 402.75 758.49 380.16 761.53 354.34 774.25 348.07 781.08 348.45 790.58 343.71 801.59 330.6 809 315.8 804.82 307.82 797.42 307.44 785.26 300.04 779 288.45 782.6 280.48 777.86 279.34 764.75 285.23 761.53 284.09 739.88 279.91 736.84 273.08 738.36 264.72 734.75 265.67 725.64 272.51 721.46 275.73 724.12 276.3 716.14 270.99 708.36 263.58 705.7 254.66 709.3 245.17 706.65 252 695.06 250.48 686.71 255.61 680.44 256.18 673.98 264.15 671.33 264.72 667.72 269.47 668.67 268.33 656.13 283.14 650.82 291.11 640.18 295.86 643.41 310.48 644.55 319.97 624.42 330.6 624.99 335.92 619.11 333.26 616.07 327.95 616.45 328.52 612.27 334.21 610.75 335.92 602.2 338.58 602.77 338.58 609.04 344.27 607.52 339.53 623.28 354.91 619.11 359.08 612.27 365.35 613.79 364.4 623.28 366.49 625.56 360.6 630.31 353.2 631.26 355.29 642.46 366.49 640.75 369.15 643.41 371.81 639.23 378.64 642.46 375.98 650.25 381.11 649.3 384.34 652.91 393.83 644.55 394.4 646.64 402.37 646.07 404.46 654.43 409.78 654.05 418.7 640.18 428.19 644.55 435.03 635.06 446.61 631.26 445.47 627.65 438.64 625.94 436.55 621.76 451.36 622.33 451.93 619.67 442.81 616.45 441.3 612.84 445.09 609.04 440.73 605.43 432.37 608.09 429.71 604.48 420.79 603.34 418.7 606.95 414.9 606 415.47 594.42 409.21 590.62 408.64 585.3 416.99 575.81 416.04 572.2 407.12 578.09 402.75 574.29 403.32 570.68 409.21 571.25 405.98 564.8 390.22 562.14 390.22 545.81 398.01 545.81 402.75 539.54 400.66 533.08 388.13 532.7 389.08 529.48 397.06 527.96 393.83 525.87 392.88 508.4 388.13 507.83 380.16 518.46 360.6 520.55 365.92 544.86 360.03 540.11 351.68 540.11 343.14 550.55 338.96 546.95 342.76 537.45 332.69 535.74 324.72 545.24 319.97 542.2 321.11 538.4 319.02 538.97 319.97 530.61 315.8 528.91 312.19 530.04 313.71 535.36 311.05 536.31 306.3 528.53 297.95 533.65 295.29 532.7 297.95 529.48 292.63 529.48 292.63 526.82 279.91 531.56 262.06 533.08 263.01 530.99 250.86 517.32 246.11 504.6 238.9 500.99 238.33 496.24 225.04 486.18 225.04 483.14 210.8 478.39 208.71 474.03 202.45 476.68 189.16 470.42 189.16 467.19 178.14 469.28 171.31 460.35 169.79 449.34 146.06 438.33 146.44 428.64 143.4 424.46 136.56 424.08 134.85 411.36 130.11 409.27 126.5 396.55 117.96 389.71 97.45 356.48 94.22 355.91 93.84 346.99 83.21 322.68 89.48 306.92 94.79 279.95 100.68 273.69 100.11 253.56 84.35 232.48 71.06 219.76 66.31 219.76 59.48 214.06 46.38 189.19 28.34 185.58 16.76 165.45 14.67 155.57 4.04 144.94 6.32 136.58 1.57 128.61 1 109.05 6.32 90.06 10.49 87.4 12.01 77.91 20.56 70.12 20.94 61.58 30.05 57.97 27.77 53.79 32.52 50.56 36.88 40.5 41.63 38.98 40.49 35.18 61 31 68.02 23.03 79.98 22.08 81.12 17.33 84.35 19.42 89.48 17.9 93.27 7.84 101.63 11.44 123.27 3.09 142.83 4.61 155.93 1 165.42 4.61 172.45 2.52 179.66 8.41 195.61 8.41 206.05 13.53 208.14 18.28 219.34 16.19 227.13 22.65 235.67 23.6 240.99 29.86 250.48 30.43 265.1 48.85 278.39 49.99 291.11 63.67 296.81 63.29 301.56 68.41 314.28 68.41 317.31 77.91 322.63 79.05 328.9 86.45 342.76 88.54 355.29 80 366.49 93.86 380.16 92.15 381.68 98.99 376.93 106.39 389.08 106.39 398.58 114.94 397.06 125.38 401.23 132.79 413.96 138.1 424.97 128.61 422.31 133.93 433.89 133.93 430.28 141.33 431.23 145.51 427.06 147.6 429.14 155.95 438.64 162.41 440.73 174.94 451.93 179.31 459.33 192.98 462.37 194.5 471.86 190.89 475.09 193.55 475.66 197.73 468.83 198.3 469.78 203.43 473.57 204 477.75 211.97 484.02 210.83 484.02 219.76 497.31 227.16 499.77 233.05 497.31 241.41 502.05 249.38 508.89 252.04 505.66 254.13 506.8 266.85 516.29 272.55 524.65 265.71 525.79 249.38 540.03 237.23 540.4 232.48 546.29 233.62 557.87 228.87 559.01 224.7 574.77 224.13 576.29 221.47 578.95 222.04 581.61 229.44 586.92 230.96 593.76 225.08 601.73 223.56 603.25 217.67 599.07 218.24 599.07 216.15 601.73 214.06 605.91 215.58 606.86 209.31 609.52 209.88 610.08 215.2 621.67 214.63 623.76 208.74 629.07 208.74 639.7 201.91 647.49 189.19 653.37 189.19 653.37 196.59 658.12 192.98 661.35 196.59 665.53 195.07 666.47 198.68 674.45 195.64 671.22 203.05 677.68 205.71 671.22 216.72 678.06 227.16 677.68 230.39 669.13 229.25 667.61 238.94 663.44 235.71 665.53 229.25 658.69 222.04 660.21 217.67 656.98 212.54 652.23 216.15 641.22 215.2 637.62 223.56 631.73 224.7 633.25 231.53 643.88 234.57 647.49 239.89 643.31 249.38 635.34 247.86 633.82 252.04 636.48 254.13 629.64 252.61 628.5 256.79 633.25 261.53 642.74 261.53 644.45 266.28 641.79 268.94 644.83 272.17 642.74 274.64 634.39 271.03 635.34 276.73 632.68 277.87 631.16 274.64 623.76 276.35 622.24 272.17 616.92 271.03 606.86 275.78 600.02 256.22 573.63 245.77 568.88 247.86 556.35 245.77 548.95 260.4 544.77 258.31 542.11 269.51 545.15 273.69 553.13 273.69 556.92 280.52 544.2 278.44 539.46 284.13 540.4 295.34 551.61 300.08 554.26 308.44 560.53 311.1 567.37 298.94 571.54 300.65 572.11 297.42 575.34 297.42 578.38 300.08 578.38 303.69 572.68 303.12 570.59 306.92 572.68 312.24 562.62 317.93 562.62 323.25 569.45 326.86 580.09 324.2 586.35 322.11 592.24 311.1 594.33 313.19 600.02 311.1 596.41 322.68 601.16 328 596.98 331.23 599.07 335.4 606.86 341.67 624.89 335.4 620.15 341.1 625.46 341.67 623.76 350.22 611.22 351.16 610.08 358.57 603.82 364.84 601.16 357.43 591.1 358.57 586.35 365.41 578 362.18 574.2 364.46 571.16 373.38 580.47 379.65 579.52 383.45 576.29 380.79 567.93 382.88 562.62 374.9 559.39 376.04 557.3 373.38 552.56 390.28 544.77 393.32 545.15 401.3 559.01 407.56 569.45 426.55 577.43 428.26 586.92 422.94 595.28 408.7 603.25 404.9 608.57 411.36 612.74 409.65 614.26 403.39 620.15 404.52 621.1 410.22 624.89 406.61 631.73 406.61 629.07 414.02 635.91 414.02 637.62 417.63 642.17 416.68 640.65 408.13 644.83 404.9 656.98 404.9 660.21 408.13 658.69 419.72 653.94 420.86 653.37 431.3 645.97 425.6 644.45 436.62 634.96 435.1 631.73 439.85 621.1 432.44 622.24 437.76 615.97 438.71 615.4 442.5 629.07 445.16 633.82 452 641.22 451.43 643.88 448.2 648.06 451.43 638 454.66 637.05 463.58 642.17 462.44 640.65 468.9 643.31 471.37 635.34 471.37 635.91 477.25 630.21 476.68 631.16 485.23 628.12 487.32 628.12 492.07 637.05 494.15 649.2 488.84 650.15 500.99 652.8 500.99 656.03 493.59 662.87 496.81 668.56 490.55 675.02 495.67 682.8 494.72 683.37 497.38 671.79 500.42 667.04 505.17 673.31 515.8 684.51 520.55 686.03 530.04 680.33 529.48 678.06 537.45 686.03 543.72 686.03 547.89 696.66 547.33 702.36 550.55 707.11 549.98 717.74 540.49 717.17 545.81 721.35 551.12 719.83 557.39 723.43 561.19 727.23 560.05 727.8 563.85 719.26 563.28 716.6 568.59 735.02 571.06 714.51 575.81 713.56 579.04 716.6 590.24 722.86 586.44 727.23 587.96 730.27 583.22 734.64 584.35 728.75 592.71 722.48 594.42 726.09 598.6 738.24 593.85 738.24 600.12 730.27 608.09 736.72 608.09 757.23 589.67 765.2 591.19 757.8 598.03 757.8 608.09 752.48 610.18 751.91 613.79 746.79 613.41 747.74 622.9 742.42 626.51 745.65 632.4 753.05 632.4 755.14 638.09 765.2 644.55 763.5 656.13 750.39 654.05 746.79 658.22 750.96 656.7 758.75 659.74 767.86 657.08 770.52 666.01 766.72 680.82 759.32 675.5 750.39 678.16 753.62 681.39 753.05 687.28 748.31 689.37 746.22 697.15 751.34 701.52 757.23 693.54 766.72 692.4 772.61 700.38 769.38 709.87 772.04 715.19 771.47 730 776.79 735.13 782.1 730.38 783.05 736.84 786.85 736.27 788.37 739.88 786.85 746.71 795.2 757.92 789.89 769.5 783.05 774.82 777.74 774.25 778.3 767.98 775.65 766.84 772.61 775.39 780.96 776.34 782.1 782.6 Z M 749.83 591.76 743.56 595.94 741.47 594.99 748.31 586.44 750.96 587.96 749.83 591.76 Z M 696.66 519.98 694.01 522.07 691.92 518.46 696.09 516.37 696.66 519.98 Z M 717.17 505.17 716.6 508.97 721.35 510.49 720.78 513.71 707.68 509.35 706.54 513.14 697.61 514.66 706.16 506.31 715.65 502.51 718.31 503.08 717.17 505.17 Z M 705.59 490.55 701.41 495.67 692.3 496.24 702.93 488.27 705.59 490.55 Z M 729.32 482 724 487.32 719.83 483.52 725.14 477.25 729.32 482 Z M 716.03 480.48 710.9 482 714.51 474.6 716.6 474.6 716.03 480.48 Z M 404.84 628.03 403.89 632.4 395.92 632.78 392.31 630.31 401.23 624.42 405.98 624.99 404.84 628.03 Z M 244.03 548.46 239.85 549.03 239.28 546.95 244.6 545.81 244.03 548.46 Z M 651.86 467.19 656.98 469.28 647.49 475.17 644.45 465.1 648.63 463.58 651.86 467.19 Z M 608 370.15 603.82 371.29 606.86 363.89 609.14 364.46 608 370.15 Z M 660.21 395.98 661.35 398.64 656.41 399.21 656.41 395.03 660.21 395.98 Z M 626.98 367.5 623.76 370.15 621.1 365.98 627.55 364.84 626.98 367.5 Z M 659.07 363.89 659.64 368.07 656.98 368.63 654.89 361.8 659.07 363.89 Z M 650.15 349.08 663.82 353.25 664.96 356.48 658.69 354.39 651.29 357.43 648.06 355.91 647.11 360.09 643.31 360.09 640.65 354.39 633.82 352.3 629.07 346.99 633.25 349.65 648.06 346.99 650.15 349.08 Z M 506.23 201.34 507.75 204.57 504.71 205.52 503.57 200.39 506.23 201.34 Z M 456.67 177.6 453.45 173.42 459.71 172.85 458.76 178.17 456.67 177.6 Z" fill-rule="evenodd" transform="translate(-1,-1) "/></svg>