<svg xmlns="http://www.w3.org/2000/svg" viewBox="0 0 27.16998291015625 29.70001220703125"><path d="M 363.66 322.94 363.65 322.94 363.66 322.9 363.74 322.76 363.82 322.64 363.85 322.63 363.86 322.65 363.84 322.69 363.8 322.73 363.77 322.76 363.74 322.83 363.66 322.94 Z M 363.47 322.74 363.46 322.76 363.44 322.74 363.43 322.69 363.44 322.65 363.48 322.63 363.49 322.63 363.49 322.66 363.49 322.71 363.47 322.74 Z M 363.79 322.34 363.72 322.65 363.66 322.8 363.57 322.94 363.54 322.88 363.53 322.87 363.53 322.85 363.54 322.83 363.54 322.81 363.52 322.78 363.5 322.74 363.52 322.7 363.58 322.6 363.59 322.59 363.59 322.52 363.59 322.5 363.61 322.46 363.63 322.42 363.67 322.41 363.7 322.44 363.74 322.35 363.77 322.31 363.79 322.34 Z M 363.54 320.65 363.53 320.66 363.5 320.65 363.48 320.61 363.49 320.57 363.52 320.56 363.53 320.56 363.54 320.58 363.54 320.65 Z M 386.37 319.13 386.4 319.42 386.43 319.7 386.45 319.84 386.48 320.14 386.51 320.45 386.53 320.58 386.56 320.84 386.59 321.13 386.62 321.43 386.65 321.72 386.69 322.01 386.72 322.31 386.75 322.6 386.78 322.89 386.81 323.18 386.81 323.18 386.81 323.18 386.81 323.18 386.85 323.5 386.86 323.64 386.87 323.78 386.89 323.91 386.9 324.05 386.93 324.26 386.95 324.48 386.97 324.7 386.99 324.91 387.02 325.13 387.04 325.34 387.06 325.56 387.08 325.77 387.11 325.99 387.13 326.2 387.15 326.42 387.17 326.63 387.2 326.84 387.22 327.05 387.24 327.26 387.26 327.47 387.28 327.68 387.31 327.89 387.33 328.09 387.35 328.3 387.37 328.51 387.39 328.72 387.42 328.93 387.44 329.13 387.46 329.34 387.48 329.55 387.5 329.76 387.53 329.96 387.53 330.06 387.55 330.09 387.57 330.13 387.66 330.19 387.74 330.25 387.84 330.31 387.93 330.37 388.02 330.44 388.11 330.5 388.12 330.51 388.13 330.52 388.13 330.54 388.13 330.55 388.12 330.62 388.08 330.84 388.04 331.05 388 331.27 387.96 331.49 387.92 331.71 387.88 331.93 387.83 332.15 387.79 332.37 387.79 332.39 387.79 332.39 387.79 332.4 387.79 332.41 387.78 332.42 387.78 332.42 387.78 332.42 387.78 332.42 387.78 332.42 387.78 332.42 387.78 332.42 387.78 332.42 387.78 332.42 387.78 332.42 387.78 332.42 387.78 332.42 387.78 332.42 387.78 332.42 387.78 332.42 387.78 332.43 387.78 332.43 387.78 332.43 387.78 332.43 387.78 332.43 387.78 332.43 387.78 332.43 387.78 332.43 387.78 332.43 387.78 332.43 387.78 332.43 387.78 332.42 387.78 332.42 387.78 332.42 387.78 332.42 387.77 332.42 387.77 332.42 387.77 332.42 387.42 332.42 387.13 332.42 386.99 332.42 386.84 332.42 386.68 332.42 386.51 332.42 386.21 332.42 385.99 332.42 385.89 332.42 385.56 332.42 385.21 332.42 384.84 332.42 384.47 332.42 384.1 332.42 383.72 332.42 383.34 332.42 382.96 332.42 382.59 332.42 382.23 332.42 381.88 332.42 381.54 332.42 381.22 332.42 380.93 332.42 380.74 332.42 380.56 332.42 380.4 332.42 380.25 332.42 380.04 332.42 380.01 332.42 379.74 332.42 379.66 332.42 379.28 332.42 379.29 332.21 379.32 332.06 379.31 331.98 379.26 331.96 379.22 331.99 379.08 332.15 379.05 332.21 379.05 332.27 379.08 332.42 379.08 332.42 379.11 332.55 378.56 332.57 378.45 332.59 378.41 332.61 378.28 332.68 378.2 332.7 377.94 332.68 377.68 332.72 377.59 332.72 377.54 332.7 377.46 332.65 377.42 332.63 377.4 332.63 377.36 332.63 377.34 332.63 377.15 332.56 377.12 332.55 377.01 332.56 376.95 332.55 376.72 332.55 376.69 332.55 376.65 332.54 376.61 332.55 376.54 332.57 376.53 332.58 376.49 332.58 376.4 332.58 376.26 332.56 376.23 332.56 376.2 332.59 376.19 332.63 376.2 332.73 376.18 332.77 376.16 332.79 376.13 332.81 376.1 332.85 376.08 332.85 376.06 332.85 376.04 332.86 376 332.9 375.98 332.93 375.96 333.02 375.94 333.05 375.88 333.11 375.86 333.15 375.82 333.28 375.8 333.32 375.73 333.2 375.65 333.12 375.59 333 375.52 332.94 374.96 332.52 374.91 332.48 374.71 332.18 374.65 332.13 374.6 332.11 374.47 332.08 374.45 332.08 374.45 332.08 374.45 332.09 374.46 332.1 374.46 332.11 374.47 332.11 374.48 332.12 374.48 332.14 374.48 332.15 374.47 332.16 374.45 332.18 374.43 332.19 374.37 332.21 374.33 332.23 374.25 332.32 374.19 332.35 374.13 332.35 374.07 332.33 374.06 332.32 374.01 332.32 374.01 332.39 374 332.42 373.94 332.48 373.92 332.55 373.88 332.72 373.81 332.88 373.8 332.91 373.78 333.02 373.74 333.14 373.74 333.19 373.74 333.21 373.75 333.24 373.74 333.27 373.72 333.36 373.71 333.43 373.71 333.44 373.73 333.46 373.74 333.45 373.76 333.44 373.77 333.44 373.8 333.46 373.81 333.49 373.82 333.52 373.81 333.56 373.81 333.56 373.8 333.6 373.79 333.64 373.77 333.72 373.78 333.73 373.78 333.74 373.8 333.76 373.8 333.78 373.79 333.79 373.77 333.79 373.76 333.79 373.75 333.81 373.74 333.82 373.73 333.83 373.72 333.85 373.7 333.88 373.67 333.91 373.63 333.93 373.54 333.95 373.51 333.98 373.46 334.05 373.42 334.08 373.38 334.09 373.33 334.09 373.29 334.08 373.27 334.09 373.26 334.13 373.24 334.16 373.22 334.14 373.13 334.06 373.09 334.04 373.04 334.05 372.95 334.08 372.9 334.09 372.85 334.08 372.81 334.06 372.69 333.97 372.55 333.9 372.51 333.87 372.44 333.78 372.41 333.76 372.41 333.74 372.35 333.56 372.34 333.53 372.33 333.51 372.3 333.5 372.25 333.49 372.23 333.47 372.19 333.44 372.07 333.37 372.04 333.34 372.02 333.32 372 333.31 371.96 333.32 371.89 333.34 371.87 333.34 371.87 333.34 371.81 333.32 371.75 333.25 371.73 333.24 371.67 333.22 371.67 333.21 371.66 333.19 371.66 333.17 371.67 333.11 371.67 333.1 371.67 333.08 371.66 333.06 371.63 333.05 371.61 333.04 371.59 333.04 371.54 333.05 371.52 333.05 371.5 333.05 371.48 333.03 371.43 332.98 371.42 332.95 371.44 332.93 371.52 332.94 371.55 332.94 371.56 332.9 371.55 332.87 371.52 332.84 371.39 332.75 371.36 332.72 371.34 332.68 371.34 332.65 371.34 332.57 371.33 332.55 371.32 332.53 371.3 332.5 371.29 332.49 371.28 332.43 371.28 332.41 371.26 332.39 371.23 332.37 371.19 332.38 371.16 332.4 371.13 332.42 371.1 332.44 371.07 332.44 371 332.43 370.98 332.42 370.98 332.4 370.97 332.38 370.97 332.36 370.99 332.27 370.98 332.24 370.96 332.21 370.94 332.19 370.91 332.17 370.86 332.16 370.85 332.15 370.8 332.12 370.79 332.12 370.76 332.12 370.69 332.13 370.66 332.13 370.64 332.07 370.63 332.05 370.63 332.03 370.64 332.01 370.68 331.96 370.68 331.94 370.68 331.93 370.67 331.91 370.64 331.87 370.63 331.86 370.61 331.84 370.58 331.82 370.56 331.81 370.55 331.79 370.55 331.77 370.55 331.75 370.56 331.74 370.56 331.72 370.56 331.67 370.55 331.63 370.53 331.6 370.49 331.55 370.48 331.54 370.48 331.52 370.48 331.5 370.49 331.46 370.49 331.44 370.48 331.43 370.47 331.41 370.41 331.37 370.39 331.35 370.38 331.32 370.36 331.3 370.33 331.22 370.33 331.2 370.33 331.16 370.32 331.15 370.31 331.13 370.25 331.09 370.24 331.08 370.22 331.05 370.21 331.03 370.17 331.03 370.09 331.06 370.07 331.05 370.08 331.01 370.11 330.94 370.11 330.91 370.09 330.91 370.08 330.91 370.07 330.91 370.04 330.92 369.92 330.95 369.85 330.98 369.84 330.98 369.83 330.98 369.79 330.99 369.78 330.99 369.72 331.02 369.7 331.02 369.69 331.02 369.68 331.02 369.67 331.01 369.66 331 369.65 331 369.64 330.99 369.64 330.99 369.63 330.98 369.63 330.98 369.62 330.97 369.6 330.96 369.59 330.96 369.58 330.93 369.59 330.9 369.6 330.86 369.61 330.83 369.59 330.83 369.57 330.83 369.55 330.84 369.53 330.85 369.51 330.86 369.47 330.92 369.46 330.94 369.42 330.97 369.38 330.99 369.37 330.99 369.35 330.99 369.33 330.99 369.31 330.98 369.29 330.96 369.28 330.94 369.27 330.92 369.25 330.86 369.24 330.84 369.22 330.82 369.19 330.8 369.17 330.79 369.08 330.76 369.05 330.74 369.04 330.7 369.05 330.66 369.05 330.64 369.04 330.62 369.02 330.59 369.01 330.58 369.02 330.56 369.03 330.52 369.03 330.51 369.02 330.49 369 330.48 368.95 330.46 368.93 330.45 368.89 330.4 368.88 330.39 368.8 330.35 368.67 330.23 368.6 330.14 368.55 330.1 368.53 330.09 368.49 330.04 368.47 330.03 368.45 330.02 368.4 330.02 368.37 330.01 368.36 329.99 368.36 329.95 368.35 329.93 368.33 329.92 368.24 329.93 368.22 329.92 368.22 329.9 368.23 329.86 368.23 329.83 368.22 329.82 368.21 329.81 368.07 329.75 368.02 329.75 368 329.76 367.94 329.8 367.92 329.81 367.9 329.81 367.87 329.82 367.85 329.81 367.76 329.8 367.74 329.8 367.64 329.82 367.62 329.82 367.59 329.82 367.53 329.79 367.51 329.78 367.49 329.78 367.42 329.8 367.39 329.81 367.01 329.78 366.94 329.8 366.9 329.79 366.88 329.76 366.86 329.73 366.86 329.72 366.83 329.69 366.81 329.68 366.76 329.7 366.73 329.72 366.72 329.74 366.71 329.77 366.71 329.78 366.7 329.8 366.68 329.81 366.67 329.81 366.65 329.82 366.64 329.81 366.61 329.79 366.6 329.76 366.58 329.74 366.54 329.73 366.51 329.74 366.49 329.76 366.49 329.79 366.5 329.82 366.54 329.86 366.54 329.87 366.54 329.89 366.53 329.9 366.52 329.91 366.47 329.93 366.23 329.97 366.2 329.97 366.09 329.95 366.02 329.95 365.99 329.96 365.89 330 365.86 330.01 365.83 330.01 365.8 330 365.79 329.98 365.78 329.95 365.76 329.94 365.72 329.93 365.69 329.95 365.66 329.97 365.61 330.05 365.59 330.07 365.56 330.08 365.53 330.08 365.43 330.07 365.4 330.07 365.37 330.09 365.32 330.13 365.29 330.15 365.26 330.16 365.23 330.16 365.19 330.16 365.14 330.13 365.12 330.12 365.05 330.12 364.95 330.09 364.91 330.09 364.86 330.1 364.84 330.1 364.76 330.08 364.73 330.08 364.64 330.12 364.63 330.12 364.61 330.12 364.58 330.11 364.57 330.11 364.55 330.11 364.53 330.12 364.52 330.13 364.46 330.14 364.41 330.13 364.37 330.11 364.33 330.07 364.3 330.03 364.29 330.01 364.27 330 364.24 329.99 364.21 330 364.19 330.01 364.12 330.06 364.1 330.07 364.08 330.07 364.05 330.07 363.98 330.06 363.93 330.07 363.88 330.1 363.84 330.13 363.81 330.18 363.79 330.22 363.78 330.31 363.69 330.7 363.68 330.73 363.67 330.75 363.63 330.77 363.55 330.79 363.52 330.82 363.5 330.87 363.49 331.02 363.45 331.12 363.42 331.22 363.41 331.24 363.4 331.49 363.38 331.62 363.33 331.7 363.36 331.32 363.36 331.12 363.34 330.65 363.36 330.5 363.38 330.46 363.44 330.35 363.46 330.23 363.47 330.2 363.5 330.14 363.5 329.89 363.52 329.79 363.69 329.34 363.74 329.26 363.77 329.1 363.81 329.03 363.92 328.88 364.11 328.46 364.12 328.41 364.15 328.37 364.36 327.71 364.42 327.43 364.44 327.12 364.48 326.75 364.46 326.33 364.38 325.54 364.35 325.46 364.24 325.2 364.19 324.91 364.15 324.82 364.17 324.76 364.17 324.7 364.08 324.38 364.07 324.35 364 324.2 363.91 324.03 363.78 323.88 363.73 323.84 363.72 323.84 363.72 323.82 363.7 323.82 363.68 323.81 363.66 323.81 363.62 323.78 363.53 323.76 363.5 323.73 363.48 323.71 363.44 323.61 363.44 323.57 363.41 323.52 363.37 323.49 363.35 323.45 363.38 323.41 363.51 323.45 363.63 323.43 363.74 323.37 363.82 323.27 363.87 323.18 363.88 323.13 363.9 323.1 363.91 323.09 363.9 323.07 363.88 323.06 363.87 323.06 363.86 323.07 363.85 323.07 363.73 323.21 363.67 323.26 363.76 323.06 363.73 323.08 363.64 323.16 363.6 323.19 363.59 323.21 363.58 323.24 363.57 323.27 363.58 323.29 363.58 323.31 363.56 323.35 363.56 323.37 363.55 323.38 363.54 323.39 363.52 323.39 363.51 323.38 363.5 323.38 363.5 323.37 363.5 323.37 363.5 323.35 363.49 323.33 363.49 323.28 363.5 323.26 363.52 323.22 363.58 323.16 363.59 323.12 363.6 323.07 363.62 323.05 363.65 323.03 363.68 323 363.89 322.68 363.91 322.67 363.92 322.66 363.93 322.64 363.94 322.62 363.94 322.58 363.95 322.56 363.96 322.55 363.97 322.54 364 322.5 364.02 322.49 364.02 322.46 364.01 322.44 364 322.42 363.98 322.41 364 322.39 364.01 322.37 364.02 322.35 364.02 322.33 363.98 322.35 363.97 322.36 363.96 322.32 363.99 322.26 363.98 322.23 363.94 322.2 363.91 322.22 363.9 322.26 363.89 322.28 363.86 322.3 363.84 322.29 363.84 322.26 363.85 322.23 363.86 322.2 363.87 322.18 364 322.05 364.04 321.99 364.06 321.92 364.05 321.87 363.98 321.75 363.95 321.68 363.97 321.68 363.99 321.68 364 321.68 364.02 321.67 364.06 321.59 364.08 321.54 364.09 321.5 364.09 321.45 364.07 321.42 364.01 321.32 363.99 321.31 363.96 321.31 363.94 321.3 363.93 321.28 363.92 321.26 363.91 321.25 363.88 321.23 363.82 321.07 363.8 321.05 363.78 321.04 363.76 321.02 363.76 321 363.76 320.99 363.78 320.99 363.78 320.98 363.78 320.97 363.77 320.96 363.76 320.93 363.75 320.88 363.67 320.66 363.64 320.63 363.61 320.62 363.59 320.59 363.59 320.53 363.58 320.49 363.54 320.51 363.5 320.48 363.5 320.46 363.6 320.43 363.63 320.42 363.58 320.41 363.5 320.42 363.47 320.42 363.44 320.38 363.45 320.36 363.42 320.3 363.41 320.29 363.36 320.27 363.34 320.37 363.36 320.6 363.33 320.68 363.31 320.65 363.28 320.62 363.22 320.59 363.21 320.57 363.18 320.51 363.16 320.48 363.13 320.46 363.06 320.43 363.04 320.41 363.04 320.38 363.05 320.37 363.07 320.37 363.07 320.36 363.07 320.34 363.06 320.32 363.06 320.31 363.05 320.27 363.02 320.24 362.96 320.19 362.95 320.17 362.95 320.13 362.94 320.11 362.91 320.07 362.88 319.96 362.87 319.93 362.84 319.9 362.83 319.87 362.82 319.83 362.82 319.8 362.81 319.81 362.79 319.82 362.79 319.83 362.75 319.8 362.74 319.76 362.73 319.72 362.72 319.68 362.71 319.67 362.69 319.65 362.67 319.63 362.66 319.59 362.65 319.57 362.6 319.5 362.59 319.46 362.58 319.43 362.57 319.39 362.54 319.33 362.5 319.27 362.47 319.29 362.41 319.4 362.32 319.53 362.29 319.55 362.28 319.58 362.3 319.62 362.32 319.61 362.33 319.65 362.31 319.73 362.31 319.81 362.3 319.83 362.28 319.84 362.23 319.86 362.21 319.88 362.21 319.9 362.22 319.92 362.24 319.94 362.25 319.98 362.25 319.99 362.25 320.02 362.23 320.12 362.21 320.17 362.19 320.2 362.14 319.95 362.15 319.88 362.2 319.66 362.21 319.59 362.31 319.32 362.35 319.09 362.39 318.88 362.41 318.86 362.67 318.86 362.76 318.86 363.02 318.86 363.42 318.86 363.94 318.86 364.56 318.86 365.25 318.86 365.98 318.86 366.75 318.86 367.51 318.86 368.24 318.86 368.31 318.86 368.93 318.86 369.55 318.86 370.07 318.86 370.47 318.86 370.73 318.86 370.82 318.86 371.15 318.86 371.13 318.48 371.11 318.27 371.05 317.29 371.01 316.7 370.98 316.1 370.95 315.95 370.84 315.64 370.82 315.49 370.85 315.33 370.92 315.18 371.11 314.91 371.11 314.91 371.15 314.86 371.37 314.7 371.65 314.51 371.89 314.35 372.03 314.25 372.16 314.2 372.54 314.15 372.62 314.13 373.1 313.89 373.33 313.83 373.36 313.79 373.37 313.71 373.37 313.52 373.37 313.34 373.37 313.15 373.37 312.97 373.37 312.79 373.37 312.61 373.37 312.42 373.37 312.24 373.37 312.06 373.37 311.88 373.37 311.69 373.37 311.51 373.37 311.33 373.37 311.15 373.37 310.96 373.37 310.78 373.37 310.6 373.37 310.41 373.37 310.23 373.37 310.04 373.37 309.86 373.37 309.68 373.37 309.49 373.37 309.31 373.37 309.12 373.37 308.94 373.37 308.76 373.37 308.57 373.37 308.39 373.37 308.2 373.37 308.02 373.37 307.83 373.37 307.65 373.59 307.65 373.81 307.65 374.04 307.65 374.26 307.65 374.48 307.65 374.71 307.65 374.93 307.65 375.15 307.65 375.38 307.65 375.6 307.65 375.82 307.65 376.05 307.65 376.27 307.65 376.49 307.65 376.72 307.65 376.94 307.65 377.16 307.65 377.38 307.65 377.61 307.65 377.83 307.65 378.05 307.65 378.28 307.65 378.5 307.65 378.72 307.65 378.95 307.65 379.17 307.65 379.39 307.65 379.62 307.65 379.84 307.65 380.06 307.65 380.29 307.65 380.51 307.65 380.7 307.65 380.74 307.63 380.76 307.6 380.76 307.49 380.76 307.46 380.76 307.36 380.76 307.21 380.76 307.02 380.76 306.79 380.76 306.54 380.76 306.26 380.76 305.98 380.76 305.7 380.76 305.42 380.76 305.17 380.75 304.94 380.75 304.74 380.75 304.59 380.75 304.5 380.75 304.46 381.19 304.75 381.63 305.04 382.07 305.33 382.51 305.62 382.95 305.9 383.39 306.19 383.82 306.48 384.26 306.76 384.7 307.05 385.14 307.33 385.58 307.62 386.02 307.91 386.39 308.15 386.76 308.39 387.13 308.63 387.45 308.83 387.5 308.87 387.77 309.04 388.16 309.3 388.54 309.57 388.93 309.83 389.31 310.09 388.82 310.09 388.33 310.09 387.84 310.09 387.35 310.09 386.86 310.09 386.37 310.09 385.88 310.09 385.39 310.09 385.41 310.28 385.43 310.48 385.45 310.67 385.47 310.86 385.49 311.05 385.51 311.25 385.54 311.44 385.56 311.63 385.58 311.83 385.58 311.84 385.6 311.99 385.63 312.32 385.67 312.65 385.68 312.8 385.71 313.09 385.74 313.38 385.78 313.67 385.81 313.96 385.84 314.25 385.87 314.54 385.88 314.6 385.9 314.83 385.93 315.12 385.96 315.4 385.99 315.69 386.03 315.98 386.06 316.27 386.09 316.56 386.12 316.84 386.15 317.13 386.18 317.42 386.21 317.7 386.25 317.99 386.28 318.28 386.31 318.56 386.34 318.85 386.37 319.13 Z" fill-rule="evenodd" id="Mauritania" transform="translate(-362.1400146484375,-304.4599914550781) "/></svg>