<svg xmlns="http://www.w3.org/2000/svg" viewBox="0 0 798 1047"><path d="M 343.44 1041.49 341.18 1048 334.96 1043.19 341.18 1029.05 344.29 1029.05 343.44 1041.49 Z M 308.95 838.94 330.15 847.43 359.28 842.05 369.46 830.17 366.35 812.91 370.31 809.8 370.31 793.11 364.65 790.85 363.24 774.44 350.51 761.71 351.36 754.07 340.33 750.11 335.81 719.27 323.08 716.16 319.97 707.68 308.95 698.06 299.61 698.91 284.63 684.76 266.53 646.29 243.62 644.87 241.36 638.37 232.88 636.95 222.42 620.26 209.97 612.62 214.78 606.12 226.37 606.96 239.95 585.75 247.58 589.71 271.34 587.44 279.82 580.37 268.79 569.34 234.29 562.27 243.06 530.87 239.95 524.36 247.58 517.57 249.28 508.8 243.62 496.07 237.4 496.07 231.18 485.88 232.03 459.29 239.95 453.07 249.28 453.92 254.65 446.56 224.96 443.45 222.42 430.15 213.08 417.71 234.29 408.94 235.14 388.57 240.51 386.31 233.44 376.69 235.14 369.61 228.07 368.77 220.15 381.5 209.12 383.76 206.86 375.27 184.81 365.09 173.78 371.31 158.22 368.2 155.68 358.58 144.65 348.4 133.91 345.29 129.95 333.4 121.18 327.18 118.07 331.14 107.04 329.73 95.45 343.02 88.94 327.18 83.57 328.88 71.69 320.96 69.43 305.96 81.03 291.25 94.6 288.71 102.23 280.22 109.59 269.19 111 255.04 105.63 249.38 89.79 246.27 61.51 247.12 61.51 242.31 70.85 241.46 83.57 228.17 85.83 217.98 91.49 215.72 95.45 203.84 88.38 191.39 95.45 185.73 94.6 180.36 128.25 184.32 143.24 174.13 140.13 163.1 148.61 165.36 152 162.25 156.53 144.15 148.61 136.22 141.54 137.07 136.17 129.15 175.47 130.85 183.96 121.23 182.54 100.01 191.03 95.49 192.72 85.3 213.08 77.38 211.67 59.28 228.07 63.24 246.17 39.76 254.09 49.94 242.21 56.17 241.36 68.05 253.24 71.16 250.98 76.53 221 82.76 204.6 91.53 202.06 97.75 206.01 101.71 224.96 102.56 228.07 110.48 239.95 115.01 249.28 113.59 240.51 123.78 240.51 130 257.76 132.26 260.31 140.19 268.79 141.88 272.18 148.96 266.53 155.18 273.6 167.63 309.79 183.47 320.82 181.77 320.82 194.5 304.99 193.65 301.88 207.8 319.13 225.05 323.08 245.42 333.26 251.08 331.85 257.3 357.58 259.57 364.09 254.19 365.5 259 377.38 262.96 377.94 275.41 393.78 277.67 405.66 259.57 418.1 251.93 411.03 236.94 419.79 231.28 432.24 250.23 447.22 261.27 470.69 255.61 502.08 268.34 509.15 265.23 516.22 268.34 522.73 263.53 541.39 277.67 549.31 277.67 551.57 271.45 557.22 271.45 557.22 280.78 551 290.4 558.07 297.48 571.36 298.89 575.32 305.11 590.88 304.55 597.1 316.15 621.7 331.14 624.81 349.25 630.18 355.47 620 364.24 614.63 389.42 605.86 390.83 610.67 403.56 624.81 410.63 624.81 423.93 615.19 426.19 608.12 421.67 587.76 431 579.28 441.19 569.1 443.45 564.29 471.17 552.42 476.55 546.2 487.58 538.28 491.54 528.1 513.61 528.95 521.25 508.59 529.17 499.82 543.31 502.08 548.97 513.11 549.54 495.01 577.26 506.04 589.71 501.52 599.04 509.15 618.85 517.92 615.73 524.99 632.99 539.13 641.48 552.42 642.33 547.04 661.28 556.38 669.77 569.67 663.54 579.28 665.24 577.58 679.39 570.52 678.54 562.6 693.53 562.6 698.91 569.67 701.17 565.71 709.94 557.22 710.79 542.24 727.2 515.66 735.12 508.59 750.68 509.15 766.52 515.66 774.44 512.55 786.89 528.95 802.73 538.28 803.58 541.39 808.1 516.22 805.84 496.71 796.5 475.5 798.77 472.39 805.84 474.65 819.14 460.51 820.83 448.92 840.35 459.67 856.76 462.21 874.3 441 867.79 433.93 870.34 429.13 878.83 433.93 894.67 451.18 911.93 453.45 930.88 473.24 945.03 488.79 945.03 500.67 959.74 516.22 955.21 529.8 956.62 519.33 970.77 520.18 976.43 502.93 986.61 498.97 997.64 473.24 985.76 461.36 988.87 455.14 1003.87 459.67 1015.75 446.38 1018.86 442.42 987.46 434.5 976.99 434.5 969.92 418.95 960.58 394.63 976.99 398.59 1000.76 376.53 1031.31 355.32 1029.89 352.21 1033.01 338.92 1006.13 328.74 1005.28 323.08 1014.05 307.53 1020.28 301.88 1004.72 304.14 986.61 282.36 978.69 274.45 980.39 266.53 990.57 261.16 1014.05 256.35 1014.05 247.02 992.83 254.65 979.54 249.28 957.47 261.16 939.37 257.76 921.26 244.47 915.89 235.99 930.88 213.93 938.52 205.17 937.1 191.88 923.81 171.52 926.07 172.36 920.41 190.46 907.97 214.78 900.04 232.88 879.68 235.99 851.39 241.36 848.27 242.21 836.39 235.99 824.79 222.42 821.68 206.01 831.87 194.42 832.43 201.21 818.29 192.72 811.22 184.81 811.22 171.52 781.51 168.4 761.14 149.46 754.07 149.46 745.3 188.76 739.08 232.88 739.93 243.62 761.14 239.95 792.54 243.62 802.73 251.54 807.54 250.98 812.91 269.64 813.76 270.49 819.14 277.56 817.72 287.74 826.21 302.72 827.91 308.95 838.94 Z M 354.47 797.07 359.28 804.99 343.44 811.22 348.25 797.07 354.47 797.07 Z M 519.33 838.94 524.99 839.51 523.29 849.12 507.74 840.35 509.15 836.39 519.33 838.94 Z M 610.67 734.27 613.78 746.15 610.67 753.22 604.45 754.07 597.1 746.15 599.64 735.12 601.06 732 610.67 734.27 Z M 656.2 577.83 644.32 578.67 635.84 573.3 654.5 572.45 656.2 577.83 Z M 614.63 568.49 622.26 572.45 622.26 576.41 607.56 571.6 610.67 565.38 614.63 568.49 Z M 664.68 540.2 669.49 542.46 670.34 544.16 664.68 545.01 661.57 540.2 664.68 540.2 Z M 618.59 479.66 630.18 492.39 631.88 500.03 620.85 513.61 608.12 514.17 605.86 505.69 600.49 504.84 605.86 496.07 601.9 485.32 613.78 475.7 618.59 479.66 Z M 788.82 425.63 786.56 438.08 790.52 453.92 781.19 463.25 770.16 464.1 758.28 476.55 756.58 496.92 765.35 511.06 765.35 515.02 758.28 516.72 752.62 505.69 737.07 497.77 735.37 477.11 729.44 467.21 722.08 464.1 716.71 446 700.03 434.11 689.28 434.11 682.78 422.23 667.23 418.27 666.38 413.75 672.6 407.52 685.89 412.05 692.96 394.79 698.61 396.49 697.77 403.56 704.83 402.71 737.92 371.31 752.06 346.98 758.28 346.13 781.19 373.57 781.75 394.79 792.78 399.6 799 420.82 790.52 420.25 788.82 425.63 Z M 665.53 379.23 666.38 382.91 657.61 387.72 661 376.69 665.53 379.23 Z M 662.42 348.4 657.61 349.25 653.09 344.44 662.42 345.29 662.42 348.4 Z M 715.01 323.22 709.64 324.92 709.64 321.8 715.01 318.69 715.01 323.22 Z M 313.75 153.48 312.06 148.96 319.97 149.52 319.13 153.48 313.75 153.48 Z M 119.77 114.16 112.7 119.82 104.78 116.71 121.18 109.63 119.77 114.16 Z M 273.6 105.67 285.47 108.78 286.32 117.55 264.27 115.86 263.42 109.63 273.6 105.67 Z M 91.49 102.56 97.71 110.48 96.86 114.16 79.61 100.01 87.53 98.6 91.49 102.56 Z M 29.28 1 45.11 8.92 47.38 15.99 55.29 19.11 60.67 27.88 71.69 29.29 71.69 33.25 53.6 42.87 44.27 59.28 32.39 56.17 30.13 63.24 24.47 64.65 23.91 58.43 34.09 49.09 34.09 42.02 19.95 31.84 1.85 33.25 1 23.07 18.25 12.03 22.21 1.85 29.28 1 Z" fill-rule="evenodd" transform="translate(-1,-1) "/></svg>