<svg xmlns="http://www.w3.org/2000/svg" viewBox="0 0 7.790008544921875 9.800003051757812"><path d="M 462.51 254.22 462.45 254.15 462.43 254.11 462.43 254.01 462.43 254 462.42 253.99 462.42 253.98 462.38 253.91 462.33 253.87 462.2 253.8 462.23 253.77 462.27 253.73 462.31 253.71 462.33 253.7 462.41 253.7 462.44 253.68 462.43 253.64 462.43 253.59 462.41 253.27 462.39 253.24 462.35 253.17 462.32 253.07 462.31 252.98 462.32 252.96 462.35 252.94 462.36 252.92 462.35 252.91 462.33 252.87 462.33 252.85 462.33 252.82 462.34 252.8 462.34 252.77 462.33 252.75 462.32 252.73 462.32 252.71 462.31 252.67 462.26 252.51 462.25 252.47 462.25 252.44 462.28 252.33 462.28 252.31 462.27 252.3 462.27 252.28 462.27 252.27 462.29 252.25 462.31 252.21 462.31 252.19 462.35 252.08 462.36 252.01 462.39 251.93 462.38 251.9 462.37 251.88 462.35 251.86 462.31 251.8 462.31 251.77 462.33 251.76 462.36 251.75 462.36 251.73 462.36 251.68 462.37 251.66 462.39 251.65 462.41 251.64 462.43 251.63 462.46 251.6 462.49 251.53 462.49 251.52 462.49 251.48 462.48 251.42 462.49 251.4 462.52 251.39 462.53 251.37 462.54 251.28 462.55 251.26 462.57 251.25 462.57 251.25 462.58 251.23 462.57 251.19 462.6 251.17 462.61 251.15 462.61 251.12 462.61 251.02 462.61 251 462.6 250.99 462.59 251 462.59 250.99 462.56 250.93 462.55 250.91 462.56 250.79 462.56 250.76 462.59 250.75 462.57 250.7 462.58 250.65 462.6 250.61 462.61 250.57 462.62 250.53 462.61 250.5 462.61 250.48 462.59 250.4 462.46 250.15 462.46 250.09 462.37 249.93 462.34 249.84 462.34 249.82 462.34 249.78 462.34 249.75 462.32 249.72 462.32 249.68 462.32 249.65 462.28 249.62 462.3 249.57 462.3 249.57 462.29 249.52 462.25 249.4 462.22 249.34 462.15 249.26 462.15 249.25 462.13 249.2 462.09 249.22 462.04 249.2 461.98 249.17 461.93 249.16 461.93 249.11 461.9 249.08 461.84 249.04 461.77 248.97 461.75 248.95 461.73 248.95 461.72 248.94 461.73 248.91 461.73 248.89 461.64 248.84 461.61 248.8 461.64 248.79 461.64 248.78 461.63 248.76 461.63 248.73 461.62 248.73 461.6 248.64 461.54 248.57 461.52 248.53 461.52 248.49 461.48 248.41 461.45 248.39 461.4 248.37 461.38 248.36 461.36 248.35 461.34 248.33 461.28 248.32 461.26 248.31 461.23 248.26 461.18 248.13 461.16 248.11 461.15 248.11 461.12 248.09 461.14 247.99 461.1 247.95 461.1 247.91 461.11 247.88 461.12 247.86 461.14 247.84 461.13 247.81 461.1 247.78 461.07 247.76 461.03 247.75 461.03 247.75 460.97 247.75 460.96 247.75 460.95 247.74 460.94 247.73 460.92 247.73 460.9 247.71 460.88 247.66 460.87 247.57 460.86 247.57 460.84 247.57 460.83 247.56 460.83 247.55 460.83 247.52 460.82 247.5 460.82 247.48 460.81 247.44 460.8 247.42 460.8 247.41 460.73 247.39 460.67 247.33 460.52 247.13 460.47 247.05 460.45 246.98 460.5 246.96 460.5 246.94 460.49 246.92 460.5 246.89 460.49 246.86 460.49 246.85 460.48 246.84 460.44 246.81 460.43 246.8 460.42 246.77 460.39 246.72 460.36 246.67 460.34 246.65 460.41 246.6 460.39 246.58 460.37 246.56 460.34 246.56 460.32 246.54 460.32 246.52 460.32 246.42 460.32 246.4 460.28 246.35 460.23 246.33 460.21 246.3 460.25 246.24 460.25 246.23 460.25 246.22 460.23 246.21 460.18 246.18 460.21 246.15 460.23 246.12 460.22 246.09 460.2 246.06 460.17 246.08 460.15 246.04 460.12 245.99 460.06 246.02 460.06 246.01 460.05 246 460.05 245.99 460.05 245.97 460.09 245.95 460.09 245.93 460.03 245.89 459.98 245.85 459.94 245.78 459.93 245.7 459.93 245.68 459.96 245.65 459.96 245.64 459.96 245.63 459.94 245.62 459.92 245.6 459.91 245.59 459.88 245.61 459.84 245.6 459.78 245.56 459.78 245.54 459.82 245.54 459.84 245.51 459.84 245.49 459.77 245.46 459.75 245.42 459.74 245.38 459.71 245.36 459.69 245.38 459.67 245.42 459.65 245.43 459.64 245.37 459.62 245.35 459.53 245.25 459.51 245.27 459.46 245.2 459.42 245.18 459.33 245.2 459.28 245.19 459.26 245.14 459.23 245.18 459.21 245.17 459.16 245.13 459.11 245.13 459 245.18 459 245.15 459.02 245.1 459.04 245.06 459.12 245.01 459.13 244.97 459.14 244.94 459.18 244.96 459.21 244.99 459.24 245.04 459.26 245.07 459.31 245.09 459.35 245.09 459.38 245.06 459.38 245.02 459.38 244.96 459.37 244.89 459.36 244.85 459.36 244.82 459.38 244.79 459.39 244.79 459.43 244.8 459.44 244.81 459.46 244.79 459.47 244.76 459.48 244.74 459.5 244.73 459.58 244.76 459.65 244.83 459.72 244.87 459.81 244.86 459.83 244.84 459.85 244.84 459.86 244.85 459.88 244.85 459.91 244.85 459.92 244.84 459.92 244.83 459.91 244.81 459.91 244.8 459.91 244.77 459.91 244.75 459.91 244.72 459.93 244.71 459.96 244.72 460 244.75 460.24 244.84 460.31 244.84 460.4 244.8 460.41 244.78 460.53 244.63 460.61 244.59 460.65 244.6 460.71 244.66 460.74 244.67 460.78 244.65 460.92 244.54 460.97 244.47 460.97 244.47 461.06 244.47 461.08 244.46 461.14 244.42 461.19 244.43 461.2 244.52 461.24 244.54 461.52 244.54 461.59 244.57 461.73 244.68 461.77 244.72 461.81 244.78 461.84 244.82 461.86 244.84 461.9 244.91 461.99 244.95 462.07 244.96 462.19 244.97 462.24 244.99 462.27 245.04 462.28 245.1 462.24 245.23 462.27 245.25 462.32 245.25 462.36 245.24 462.43 245.19 462.46 245.18 462.48 245.24 462.49 245.3 462.51 245.34 462.55 245.35 462.6 245.34 462.65 245.31 462.68 245.28 462.72 245.25 462.82 245.24 462.86 245.25 462.88 245.27 462.89 245.34 462.87 245.41 462.85 245.44 462.82 245.46 462.78 245.5 462.77 245.54 462.77 245.59 462.8 245.62 462.84 245.61 462.88 245.57 462.9 245.52 462.93 245.48 462.98 245.47 463.01 245.5 463.04 245.54 463.03 245.59 463 245.63 463.06 245.76 463.09 245.79 463.13 245.82 463.15 245.82 463.16 245.79 463.16 245.73 463.17 245.68 463.18 245.66 463.18 245.66 463.22 245.54 463.27 245.52 463.34 245.52 463.54 245.61 463.7 245.61 463.78 245.63 463.84 245.67 463.85 245.69 463.86 245.72 463.86 245.74 463.87 245.76 463.9 245.85 463.91 245.94 463.91 245.96 463.93 245.98 463.96 246.01 463.98 246.04 464.02 246.11 464.09 246.19 464.14 246.23 464.17 246.25 464.24 246.28 464.32 246.26 464.42 246.14 464.49 246.1 464.53 246.1 464.56 246.12 464.59 246.14 464.61 246.18 464.63 246.24 464.65 246.35 464.67 246.4 464.7 246.42 464.78 246.45 464.81 246.46 464.8 246.51 464.77 246.55 464.72 246.6 464.7 246.64 464.68 246.69 464.68 246.73 464.7 246.75 464.78 246.78 464.8 246.81 464.81 246.84 464.79 246.88 464.72 246.97 464.71 247.07 464.71 247.19 464.69 247.31 464.63 247.41 464.57 247.48 464.54 247.57 464.57 247.7 464.57 247.7 464.57 247.7 464.57 247.7 464.59 247.73 464.59 247.74 464.63 247.84 464.65 247.88 464.69 247.91 464.71 247.89 464.73 247.85 464.77 247.84 464.8 247.86 464.84 247.92 464.91 247.97 464.92 248 464.93 248.04 464.95 248.08 464.98 248.1 465.02 248.1 465.05 248.12 465.08 248.16 465.09 248.21 465.09 248.26 465.1 248.31 465.11 248.32 465.13 248.36 465.16 248.38 465.19 248.4 465.23 248.4 465.26 248.39 465.3 248.35 465.32 248.31 465.33 248.26 465.35 248.21 465.39 248.2 465.44 248.21 465.48 248.22 465.52 248.25 465.55 248.31 465.57 248.39 465.57 248.46 465.54 248.52 465.49 248.55 465.48 248.62 465.5 248.79 465.49 248.87 465.46 248.91 465.41 248.92 465.35 248.93 465.34 248.94 465.34 248.95 465.34 248.96 465.35 248.97 465.42 249.09 465.44 249.11 465.46 249.09 465.48 249.05 465.51 249.01 465.55 249.01 465.58 249.03 465.6 249.07 465.62 249.11 465.62 249.16 465.6 249.2 465.58 249.23 465.55 249.27 465.54 249.39 465.53 249.43 465.52 249.44 465.52 249.48 465.54 249.52 465.55 249.52 465.61 249.52 465.63 249.53 465.67 249.57 465.68 249.58 465.72 249.6 465.79 249.6 465.83 249.62 465.86 249.65 465.91 249.74 465.96 249.77 466.03 249.78 466.09 249.77 466.15 249.78 466.22 249.83 466.23 249.85 466.24 249.91 466.26 249.93 466.28 249.93 466.3 249.92 466.32 249.91 466.34 249.92 466.35 249.94 466.35 250.01 466.35 250.04 466.36 250.07 466.38 250.11 466.39 250.14 466.4 250.2 466.38 250.4 466.37 250.43 466.36 250.46 466.35 250.49 466.35 250.54 466.36 250.57 466.38 250.63 466.39 250.67 466.36 250.73 466.31 250.74 466.28 250.75 466.28 250.82 466.31 250.86 466.41 250.9 466.42 250.91 466.43 250.94 466.43 250.95 466.45 250.94 466.48 250.92 466.49 250.92 466.51 250.94 466.52 250.96 466.55 251.01 466.53 251.04 466.63 251.12 466.67 251.17 466.69 251.15 466.73 251.14 466.76 251.15 466.79 251.17 466.74 251.27 466.68 251.32 466.58 251.34 466.32 251.32 466.28 251.33 466.24 251.35 466.16 251.43 466.12 251.43 466.07 251.38 466.07 251.36 466.07 251.3 466.07 251.27 466.06 251.24 466.01 251.17 465.89 251.06 465.87 251.01 465.87 251.1 465.84 251.15 465.8 251.17 465.73 251.17 465.72 251.19 465.73 251.27 465.71 251.32 465.68 251.35 465.65 251.36 465.61 251.36 465.58 251.34 465.55 251.3 465.52 251.23 465.48 251.2 465.45 251.19 465.38 251.17 465.35 251.16 465.34 251.14 465.33 251.11 465.34 251.09 465.35 251.06 465.36 251.04 465.37 251.02 465.36 251 465.35 250.98 465.3 250.97 465.3 250.97 465.25 250.99 465.21 251.04 465.11 251.19 465.09 251.19 465.05 251.13 464.99 251.02 464.96 251.01 464.92 251.07 464.92 251.11 464.93 251.18 464.93 251.21 464.91 251.25 464.9 251.25 464.88 251.25 464.86 251.26 464.78 251.35 464.73 251.38 464.69 251.34 464.69 251.31 464.71 251.28 464.73 251.25 464.74 251.22 464.74 251.18 464.74 250.91 464.73 250.84 464.69 250.8 464.69 250.8 464.64 250.8 464.45 250.91 464.41 250.92 464.33 250.95 464.16 251.06 464.12 251.13 464.1 251.22 464.12 251.34 464.16 251.49 464.16 251.54 464.15 251.6 464.13 251.65 464.14 251.69 464.17 251.74 464.17 251.74 464.25 251.81 464.31 251.86 464.32 251.93 464.29 252.01 464.24 252.09 464.16 252.18 464.15 252.23 464.15 252.31 464.19 252.45 464.19 252.51 464.13 252.54 463.75 252.64 463.71 252.66 463.68 252.71 463.68 252.76 463.71 252.87 463.72 252.93 463.72 252.99 463.7 253.03 463.68 253.06 463.63 253.08 463.57 253.1 463.55 253.11 463.55 253.13 463.56 253.16 463.56 253.19 463.55 253.22 463.49 253.26 463.35 253.27 463.31 253.33 463.32 253.35 463.32 253.39 463.31 253.41 463.25 253.43 463.21 253.46 463.18 253.49 463.13 253.56 463.12 253.6 463.14 253.62 463.17 253.64 463.2 253.67 463.21 253.72 463.22 253.76 463.23 253.8 463.26 253.85 463.2 253.87 463.19 253.89 463.18 253.89 463.17 253.91 463.17 253.92 463.18 253.93 463.19 254.03 463.18 254.07 463.13 254.09 462.99 254.09 462.82 254.04 462.67 254.03 462.67 254.03 462.55 254.12 462.55 254.12 462.55 254.12 462.53 254.16 462.51 254.2 462.51 254.22 Z" id="Moldova" transform="translate(-459,-244.4199981689453) "/></svg>