<svg xmlns="http://www.w3.org/2000/svg" viewBox="0 0 798 970"><path d="m356 804-1 29h2v5l26 12 4 6-6 4-31 19-40 27-9 9 1 1 1 2v1l-3 2h-2l-2-1-27 27 2 2v3l-3 2h-2l-2-2-6 5-12 13-7-5-6-4-8-6-21-15-34-24-46-31-13-10-22-16-3-3-8-5-3-2-8-6-4-2-4-4-3-2-14-9-4-3-1-1-1-1-2-1-3-1-1-1-5-4-8-5-6-4h-1l-1-1-8-5-1-1 1-1 2-3 1-4 1-1 1-2 2-3 1-2 1-1 3-2 2-3 2-3 1-4 8-12 2-3 3-3 3-2 1-1h1l1-1 1-2 1-2h3l2-2 1-1 2-1 1-1 2-1 4-2 3-2 3-3 3-2 4-1 3-1 2-1h8l1 1h4l2 1h3l4-1v-1l1-1h2l1-1 1 1 1-1 1-4 1-2v-13l1-2v-11l1-1 1-6v-7l-1-1-1-3-4-4-3-6-2-3 1-7v-3l1-2v-2l2-4v-1l-2-2-2-1-1-1-1-1-4-4-4-4 2-2 3-2 3-2 1-2 1-1v-3l1-1 5-5 24-21 7-6 10-11 11-12 2-2 7-5 2-2 1-1 9-7 7-6 23-18 19-17v-1l32-28 8-7 8-8 8-6 5-4v-1l7-5 9-7 1 2 4-4 22-27 2-2-3-3 2-4 2-4 3-7h2l4-6 3-4 4 1 16-11h1l7 6 3 2 7 5 16 12 6 5 13-27 4 4 3 2 1-1 1-1 2-5 2-3 5-2 4-4 3-4 2-6 2-3 4-3 10-12 1-2v-4l1-2 1-2 4-8 2-2 2-3 8-4 6-6 6-7 1-1 3-5 2-5v-17l4-7 3-6 4-3v-4l2-2v-4l1-5v-2l-1-3-1-2v-4l1-6-1-4 1-5 3-9 1-2v-4l3-2 9-7 1-1 13-42 1-1 15-5 1-1v-4l1-9 1-2 1-1 2-3v-9h2v1l1 1h1l1 1h3l4 1 2-1h3l2-1h1l1 1 5 2 1 1h3l3-1 2-1 1-1 2-1v-1l4-5 2-3 2-1 2-1 16-4 6-1 3-1 1-1 5-1 5-2 1-1 9-4 9-4 4-2 3-1 9-1 8-2 11-1 42-43-3-1-4-2-3-3h-2l-3-2-3-2v-1l-3-3v-1l3-11h2l4 2 5 2 2 1 6-1h1l5 3 18 14 2 2 1 1v12l-1 4-5 9v7l2 3 1 2v4l1 6v2l-1 2-1 2-2 3-2 3-1 2 1 1v4l18 8 2 5 6 29 6 30 2 4 1 4 3 10 1 6-1 5-5 4-5 4-6 2-8 2-5 1-4 1-7-1-5-1-5-2-5-4-4-5-6-9-4-7-12-23-2-1-2 1-4 1-5 2-2 2-3 4-1 4-3 8 7 9 5-4-1-2 1-1h1l2 1v1l1 1-1 1-2 2-4 4-1 2-1 2-1 3-2 3-2 2-3 2-3 1-2 1-2-1-1-2v-2l1-1h2l1 2 6-4 4-7-3-2-5-3-5-1-5-1h-5l-7 1-4 2-3 1-2 2-2 2-3 2-2 3-2 2-3 6-1 4-1 1-1 1 10 13 6-4-1-1 1-1 1-1 1 1h1l1 2v2l-1 1-2 2-5 5-4 3-2 1-1 1h-1l-2-1v-1l-1-1 1-1v-1l1-1 2 2 5-5-10-13-9 3-6 2-3 2-3 2-3 3-3 4-3 7-1 8-1 7 3 7 3 5 5-1 5-6-1-1h-1l1-1v-1h2l2 1v1l1 1-3 4-2 4-1 1-1 1-2 1-4 1-3 1-1 2-2 1-1 1-1 2-2 2v2l1 2 1 6-1 7v6l-2 6-2 3-5 7-8 10-9 13-8 14-14 27-2 6-1 2-1 3 1 1v2l-1 1h-2l-1 1v1l-2 19v1h1l5 10-3 5 3 6-6 7 3 5-8 10 3 5-11 15 5 12-12 16-1-1v1h-1l-2 2 1 1-2 3-2 1 18 42 45-4 7 5-37 46-18 22-16 20-1 1 4 2-10 11-11 14-7 9-3 4-1 11-2 2v2l2 1v1l-2 2v2h2v1l-1 1 1 1 1 1h1l-1 1h-2l-3 1-1 1-1 3-5 5v1l1 1v1l-2 1h-1v3l-2 9v4l-21 24-2 1h-3l-4-1-5-1-3-2-1-1-3 3-3 3-1 1-6 2-3 3-3 1-4 4-2 3-4 3-1 4v2l-1 2h-4l-2 1h-3l-1 2-2 2-2 3-2 2v1l-1 1-1 2h-6v2h-1l-1-1-1-1h-9l-1 1h-2v1h-1v-1l-1-1v1l-1-1h-3v1-1h-3v1h-2v-1l-4 1v-1h-2Z"/></svg>