<svg xmlns="http://www.w3.org/2000/svg" viewBox="0 0 71.30999755859375 34.220001220703125"><path d="M 621.68 233.24 621.88 233.21 622.13 233.26 622.8 233.25 622.93 233.33 623.08 233.38 624.04 233.87 624.14 233.96 624.24 233.99 624.33 233.99 624.42 234.01 624.5 234.09 624.58 234.19 624.66 234.24 624.74 234.24 624.95 234.16 625.05 234.15 625.15 234.17 625.31 234.24 625.43 234.23 625.49 234.24 625.53 234.26 625.65 234.35 625.7 234.37 625.88 234.36 625.92 234.37 626 234.44 626.04 234.46 626.21 234.47 626.27 234.51 626.3 234.54 626.51 234.69 626.53 234.74 626.5 234.82 626.4 234.98 626.4 235.01 626.41 235.05 626.43 235.11 626.43 235.17 626.43 235.23 626.42 235.35 626.42 235.48 626.47 235.62 626.53 235.75 626.59 235.85 626.61 235.9 626.61 235.95 626.6 236 626.58 236.04 626.63 236.13 626.61 236.23 626.57 236.33 626.55 236.43 626.58 236.53 626.64 236.6 626.78 236.71 626.83 236.81 626.81 236.89 626.76 236.96 626.71 237.05 626.7 237.15 626.73 237.26 626.77 237.35 626.83 237.41 626.93 237.46 627.15 237.49 627.24 237.56 627.4 237.87 627.47 237.92 627.47 237.92 627.79 238.01 628.07 238.21 628.16 238.26 628.26 238.28 628.6 238.23 628.76 238.28 628.85 238.46 628.88 238.56 628.93 238.62 629 238.65 629.22 238.62 629.29 238.64 629.37 238.67 629.5 238.77 629.65 238.84 629.8 238.85 630.06 238.66 630.19 238.66 630.48 238.79 630.62 238.82 630.8 238.79 630.97 238.72 631.08 238.59 631.13 238.51 631.25 238.42 631.31 238.36 631.37 238.3 631.43 238.26 631.58 238.22 631.81 238.23 631.89 238.22 631.94 238.18 632.02 238.1 632.08 238.08 632.28 238.08 632.35 238.06 632.48 237.98 632.53 237.96 632.6 237.94 632.86 237.98 632.92 237.97 632.98 237.95 633.04 237.93 633.28 237.72 633.37 237.67 633.48 237.66 634.17 237.84 634.48 237.82 634.54 237.84 634.64 237.88 634.75 237.91 634.87 237.91 634.93 237.92 635.05 238.02 635.06 238.04 635.06 238.07 635.07 238.11 635.07 238.13 635.09 238.15 635.27 238.17 635.32 238.2 635.41 238.27 635.46 238.29 635.51 238.3 635.94 238.17 636.18 238.14 636.42 238.17 636.62 238.24 636.71 238.3 637.04 238.58 637.12 238.62 637.15 238.66 637.18 238.79 637.2 238.82 637.24 238.87 637.26 238.89 637.27 238.93 637.29 239.01 637.31 239.05 637.34 239.07 637.41 239.11 637.44 239.13 637.55 239.24 637.61 239.28 637.68 239.31 637.75 239.3 637.8 239.27 637.86 239.27 637.99 239.38 638.8 239.4 638.83 239.41 638.85 239.42 638.93 239.48 638.97 239.49 639.04 239.48 639.07 239.49 639.17 239.52 639.28 239.53 639.3 239.56 639.29 239.65 639.28 239.71 639.26 239.76 639.24 239.81 639.25 239.88 639.29 240.05 639.3 240.17 639.3 240.22 639.29 240.26 639.24 240.39 639.24 240.43 639.27 240.45 639.32 240.46 639.41 240.45 639.44 240.48 639.42 240.56 639.41 240.61 639.43 240.66 639.47 240.71 639.64 240.83 639.68 240.85 639.87 240.87 639.92 240.9 639.96 240.93 639.98 240.98 639.99 241.02 640.01 241.07 640.14 241.23 640.45 241.5 640.59 241.6 640.66 241.6 640.75 241.61 641.06 241.55 641.3 241.55 641.46 241.52 641.69 241.6 641.75 241.59 641.97 241.53 642.25 241.56 642.31 241.58 642.36 241.61 642.48 241.66 642.53 241.68 642.62 241.67 642.64 241.69 642.65 241.71 642.66 241.77 642.67 241.79 642.71 241.82 642.76 241.84 643.23 241.8 643.36 241.85 643.43 241.93 643.46 241.94 643.64 241.98 644.24 242.16 644.33 242.15 644.43 242.11 644.52 242.04 644.6 241.96 644.63 241.91 644.66 241.89 644.68 241.89 644.79 242.02 644.83 242.05 644.96 242.08 645.17 242.21 645.26 242.24 645.36 242.25 645.45 242.24 645.7 242.16 645.97 242 646.36 241.72 646.66 241.61 646.7 241.59 646.76 241.5 646.8 241.47 646.85 241.46 646.9 241.48 647 241.53 647.06 241.54 647.11 241.54 647.17 241.53 647.42 241.4 647.52 241.36 648.33 241.31 648.55 241.21 649.22 240.91 649.32 240.89 649.56 240.92 649.75 241.02 649.82 241.04 649.89 241.04 649.99 241.01 650.19 240.9 650.32 240.78 650.37 240.75 650.42 240.73 650.47 240.71 650.58 240.71 650.62 240.68 650.64 240.61 650.65 240.49 650.65 240.43 650.68 240.37 650.83 240.06 650.89 239.98 650.95 239.91 651.4 239.57 651.46 239.49 651.5 239.45 651.61 239.37 651.65 239.33 651.77 239.23 652.15 239.03 652.2 239.02 652.29 239.04 652.34 239.04 652.37 239.02 652.64 238.75 652.69 238.72 652.78 238.69 652.82 238.67 652.96 238.53 653.14 238.42 653.33 238.35 653.44 238.36 653.64 238.47 653.75 238.49 654.16 238.43 654.37 238.49 654.91 238.8 654.95 238.84 654.98 238.89 655.03 238.99 655.06 239.03 655.38 239.4 655.73 239.66 655.78 239.68 655.91 239.67 655.97 239.69 656.04 239.69 656.2 239.67 656.43 239.72 656.5 239.72 656.58 239.7 657.25 239.31 657.43 239.25 657.62 239.25 657.8 239.33 658.41 239.57 658.5 239.65 658.58 239.77 658.65 239.91 658.18 240.95 658.15 241.04 657.68 242.09 657.22 243.14 657.21 243.2 657.24 243.32 657.24 243.38 657.2 243.48 656.69 244.28 656.67 244.33 656.66 244.4 656.66 244.47 656.71 245.13 656.69 245.24 656.63 245.3 656.11 245.54 656.06 245.6 656.06 245.63 656.13 246.06 656.16 246.26 656.19 246.33 656.25 246.41 656.81 247.01 656.94 247.08 657.07 246.99 657.32 246.67 657.54 246.53 657.67 246.49 658.08 246.58 658.24 246.58 658.8 246.45 658.96 246.44 659.02 246.46 659.29 246.57 659.46 246.63 659.5 246.66 660.05 247.18 660.15 247.19 660.24 247.07 660.32 246.92 660.4 246.84 660.52 246.74 660.99 246.11 661.05 246.06 661.16 246.02 661.51 246.04 661.56 246.04 661.71 245.97 661.84 245.95 661.97 245.94 662.02 245.96 662.13 246.03 662.19 246.04 662.61 246.07 662.77 246.15 662.91 246.32 663.15 246.72 663.27 246.84 663.72 247.04 663.92 247.11 663.97 247.15 664 247.2 664.01 247.26 664.04 247.5 664.05 247.55 664.08 247.59 664.13 247.62 664.34 247.7 664.43 247.73 664.47 247.76 664.49 247.8 664.48 247.84 664.42 247.91 664.41 247.96 664.49 247.98 664.84 248.3 664.87 248.34 664.9 248.4 664.92 248.45 664.95 248.49 665.09 248.53 665.18 248.61 665.33 248.79 665.4 248.89 665.45 249 665.47 249.07 665.47 249.26 665.48 249.29 665.48 249.31 665.49 249.33 665.52 249.38 665.6 249.45 665.63 249.49 665.64 249.52 665.64 249.55 665.65 249.57 665.67 249.6 665.7 249.6 665.73 249.6 665.76 249.61 665.77 249.63 665.76 249.67 665.75 249.69 665.74 249.72 665.74 249.76 665.74 249.77 665.75 249.79 665.76 249.8 665.77 249.8 665.78 249.82 665.78 249.83 665.78 249.85 665.77 249.87 665.78 249.95 665.75 250.05 665.74 250.1 665.75 250.13 665.79 250.19 665.79 250.22 665.79 250.25 665.77 250.27 665.76 250.29 665.72 250.36 665.68 250.41 665.63 250.43 665.59 250.43 665.55 250.41 665.52 250.42 665.49 250.46 665.46 250.52 665.42 250.55 665.38 250.59 665.33 250.61 665.29 250.62 665.24 250.61 665.17 250.54 665.12 250.53 665.06 250.54 664.89 250.51 664.79 250.51 664.59 250.56 664.49 250.56 663.92 250.4 663.87 250.38 663.81 250.33 663.75 250.2 663.71 250.15 663.67 250.16 663.61 250.23 663.58 250.25 663.54 250.23 663.52 250.19 663.51 250.13 663.49 250.09 663.44 250.06 663.38 250.09 663.32 250.15 663.24 250.3 663.16 250.35 663.08 250.33 663 250.28 662.92 250.26 662.89 250.27 662.83 250.31 662.79 250.32 662.61 250.32 662.53 250.3 662.39 250.23 662.31 250.2 662.23 250.2 662.16 250.2 662.09 250.23 662.02 250.27 661.94 250.34 661.91 250.36 661.79 250.36 661.75 250.38 661.58 250.51 661.51 250.52 661.4 250.55 661.35 250.57 661.3 250.61 661.25 250.66 661.2 250.78 661.16 250.83 661.12 250.85 660.89 250.88 660.84 250.87 660.74 250.8 660.7 250.76 660.64 250.62 660.61 250.59 660.58 250.59 660.48 250.67 660.46 250.67 660.44 250.66 660.4 250.65 660.22 250.69 660.26 250.79 660.26 250.84 660.25 250.88 660.17 251 660.14 251.08 660.13 251.3 660.1 251.38 660.02 251.4 659.26 251.35 658.98 251.28 658.94 251.28 658.92 251.29 658.87 251.35 658.73 251.47 658.7 251.48 658.56 251.5 658.47 251.53 658.42 251.57 658.39 251.59 658.35 251.69 658.33 251.75 658.3 251.79 657.93 252.18 657.61 252.81 657.59 252.89 657.62 252.99 657.67 253.06 657.69 253.14 657.64 253.25 657.51 253.44 657.45 253.48 657.34 253.54 657.31 253.55 657.27 253.55 657.16 253.53 657.14 253.54 657.1 253.59 656.62 254 656.45 254.2 656.4 254.24 656.33 254.27 655.97 254.37 655.66 254.43 655.2 254.43 654.78 254.5 654.71 254.48 654.33 254.33 654.26 254.33 654.18 254.34 653.88 254.46 653.86 254.47 653.85 254.5 653.83 254.65 653.81 254.72 653.75 254.85 653.63 255.04 653.17 255.47 653.06 255.54 653.03 255.57 653.01 255.61 652.97 255.69 652.9 255.79 652.82 255.85 652.74 255.89 652.64 255.92 652.51 255.93 652.45 255.95 652.34 256.08 652.11 256.24 651.97 256.39 651.89 256.46 651.82 256.48 651.66 256.46 651.63 256.45 651.57 256.39 651.53 256.38 650.72 256.31 650.52 256.22 650.42 256.22 649.93 256.09 649.63 255.95 649.57 255.9 649.52 255.84 649.43 255.69 649.25 255.5 649.18 255.46 649.11 255.45 648.51 255.46 648.29 255.39 648.23 255.39 648.21 255.39 648.17 255.4 648.15 255.42 648.13 255.45 648.1 255.48 648.06 255.5 647.96 255.52 647.92 255.54 647.79 255.64 647.74 255.7 647.69 255.77 647.27 256.62 647.25 256.7 647.25 256.75 647.26 256.85 647.26 256.91 647.24 256.96 647.23 257 647.18 257.08 647.12 257.2 647.1 257.24 647.09 257.24 647.04 257.3 646.99 257.38 646.95 257.48 646.93 257.57 646.93 257.7 646.96 257.76 647.1 257.84 647.14 257.89 647.15 257.95 647.17 258.07 647.2 258.18 647.26 258.28 647.46 258.56 647.53 258.64 647.78 258.8 647.85 258.87 647.91 258.95 648.11 259.31 648.14 259.42 648.15 259.51 648.15 259.61 648.12 259.69 648.07 259.73 648.03 259.73 647.92 259.78 647.76 259.77 647.72 259.79 647.37 260.22 647.31 260.28 647.24 260.32 647 260.34 646.94 260.36 646.8 260.48 646.26 260.7 645.99 260.85 645.9 260.94 645.6 261.36 645.34 261.63 645.31 261.69 645.25 261.84 645.18 261.97 645.09 262.08 644.88 262.24 644.83 262.3 644.78 262.45 644.73 262.5 644.14 262.76 644.07 262.81 644.04 262.84 644.02 262.86 644 262.88 643.97 262.89 643.93 262.9 643.81 262.9 643.64 262.92 643.1 263.16 642.77 263.41 642.75 263.41 642.74 263.41 642.73 263.42 642.71 263.44 642.7 263.45 642.69 263.46 642.35 263.49 642.24 263.52 642.18 263.53 641.6 263.46 641.53 263.47 641.31 263.58 641.24 263.61 641.17 263.61 640.59 263.5 640.11 263.51 639.92 263.46 639.79 263.45 639.51 263.49 638.56 263.64 637.62 263.8 636.67 263.95 635.67 264.38 634.68 264.82 633.8 265.27 633.64 265.36 633.54 265.44 633.51 265.45 633.47 265.46 633.36 265.53 633.23 265.55 633.2 265.56 632.78 266 632.69 266.03 632.61 265.92 632.56 265.87 632.51 265.85 631.87 265.85 631.65 265.82 631.64 265.79 631.64 265.18 630.78 265.35 629.91 265.52 629.85 265.51 629.2 265.17 628.55 264.82 628.55 264.82 628.55 264.82 628.48 264.79 627.71 264.61 626.94 264.43 626.18 264.25 626.04 264.18 625.85 263.97 625.51 263.43 625.3 263.26 625.05 263.2 624.79 263.17 624.37 263.22 623.48 263.07 622.59 262.93 621.7 262.78 621.6 262.78 620.83 263.02 620.5 263.12 619.6 263 618.7 262.88 617.8 262.76 616.9 262.64 616.17 262.54 615.45 262.45 615.44 262.45 614.65 262.53 613.85 262.61 613.64 262.65 613.61 262.64 613.59 262.64 613.58 262.59 613.55 262.21 613.53 262.14 613.51 262.08 613.45 262.01 612.6 261.16 612.52 261.06 612.48 260.94 612.46 260.82 612.45 260.68 612.43 260.57 612.12 259.89 611.89 259.16 611.77 258.89 611.71 258.83 611.64 258.8 611.52 258.8 611.31 258.74 611.29 258.71 611.29 258.64 611.31 258.46 611.3 258.31 611.3 258.28 611.31 258.24 611.34 258.19 611.35 258.1 611.38 258.05 611.45 257.96 611.46 257.9 611.42 257.88 610.66 257.98 610.57 257.96 610.37 257.86 609.96 257.73 609.91 257.7 609.88 257.66 609.86 257.61 609.82 257.56 609.67 257.42 609.39 257.24 609.32 257.21 609.18 257.21 609.12 257.18 609.08 257.13 609.02 257 608.98 256.94 608.8 256.74 608.77 256.72 608.73 256.71 608.7 256.7 608.6 256.75 608.5 256.75 608.31 256.72 608.21 256.68 608.09 256.56 607.73 256.06 607.68 256.01 607.31 255.82 607.08 255.81 607.04 255.79 606.95 255.73 606.91 255.71 606.85 255.71 606.75 255.73 606.69 255.72 606.52 255.64 606.46 255.64 606.32 255.65 606.27 255.66 606.22 255.64 606.18 255.64 606.14 255.64 606.09 255.65 606.03 255.65 605.96 255.62 605.84 255.55 605.81 255.54 605.74 255.56 605.7 255.56 605.6 255.55 605.35 255.62 605.2 255.63 604.99 255.67 604.95 255.67 604.85 255.63 604.81 255.63 604.7 255.64 604.67 255.64 604.57 255.61 604.53 255.61 604.42 255.63 604.36 255.62 604.17 255.48 604.1 255.45 604.03 255.43 603.95 255.43 603.88 255.44 603.75 255.46 603.37 255.44 603.32 255.45 603.23 255.48 603.19 255.48 602.97 255.43 602.94 255.43 602.92 255.44 602.9 255.44 602.87 255.42 602.73 255.24 602.69 255.21 602.64 255.21 602.6 255.24 602.57 255.28 602.53 255.31 602.49 255.31 602.27 255.26 602.13 255.19 602.09 255.15 602.04 255.08 602.02 255.05 601.94 255.01 601.84 254.99 601.74 254.98 601.66 254.99 601.51 255.08 601.44 255.08 601.4 254.99 601.41 254.94 601.42 254.91 601.42 254.87 601.39 254.82 601.36 254.79 601.27 254.75 601.25 254.71 601.25 254.61 601.22 254.52 601.19 254.44 601.17 254.35 601.14 254.28 600.99 254.17 600.94 254.12 601.04 253.37 601.08 253.3 601.54 252.67 601.66 252.56 601.69 252.54 601.72 252.45 601.73 252.3 601.71 252.15 601.66 252.07 601.6 251.98 601.49 251.62 601.49 251.55 601.51 251.5 601.57 251.42 601.66 251.19 601.69 251.13 601.72 251 601.75 250.94 601.8 250.83 601.82 250.75 601.82 250.71 601.79 250.66 601.74 250.64 601.71 250.61 601.71 250.53 601.74 250.39 601.75 250.31 601.75 250.27 601.73 250.15 601.66 250.04 601.58 249.96 601.55 249.91 601.54 249.84 601.55 249.82 601.57 249.77 601.58 249.75 601.57 249.71 601.55 249.69 601.53 249.68 601.52 249.65 601.5 249.6 601.48 249.54 601.46 249.49 601.43 249.44 601.38 249.39 601.34 249.36 601.29 249.35 601.23 249.35 601.15 249.33 601.08 249.26 600.54 248.3 600.53 248.28 600.54 248.26 600.55 248.23 600.58 248.19 600.59 248.13 600.58 248.08 600.55 248.04 600.49 247.99 600.48 247.91 600.48 247.8 600.48 247.7 600.45 247.66 600.37 247.6 600.35 247.55 600.28 247.39 600.25 247.34 600.23 247.28 600.25 247.23 600.27 247.2 600.26 247.16 600.22 247.12 600.17 247.1 599.96 247.04 599.86 246.99 599.77 246.93 599.68 246.84 599.66 246.8 599.63 246.73 599.62 246.66 599.62 246.6 599.64 246.53 599.63 246.47 599.6 246.43 599.51 246.43 599.42 246.4 599.38 246.42 599.36 246.46 599.36 246.51 599.35 246.55 599.33 246.59 599.25 246.62 599.02 246.64 598.95 246.62 598.92 246.58 598.9 246.48 598.89 246.44 598.85 246.4 598.77 246.39 598.74 246.37 598.71 246.32 598.69 246.27 598.67 246.22 598.64 246.2 598.61 246.19 598.58 246.16 598.56 246.12 598.56 246.06 598.55 245.97 598.48 245.93 598.4 245.94 598.34 245.96 598.23 245.97 598.19 245.96 598.1 245.91 598.07 245.91 598.02 245.93 597.92 246.02 597.88 246.06 597.82 246.1 597.77 246.11 597.65 246.09 597.45 246.09 597.39 246.06 597.38 246.06 597.38 246.06 597.13 245.72 597.1 245.69 597.04 245.67 596.91 245.69 596.85 245.69 596.79 245.64 596.64 245.49 596.58 245.46 596.52 245.47 596.48 245.46 596.39 245.38 596.35 245.34 596.34 245.28 596.33 245.21 596.31 245.15 596.31 245.08 596.34 244.96 596.32 244.9 596.18 244.74 596.13 244.71 596.08 244.72 596.04 244.73 595.99 244.73 595.92 244.68 595.8 244.53 595.74 244.48 595.59 244.4 595.55 244.4 595.47 244.4 595.43 244.4 595.4 244.38 595.32 244.32 595.26 244.29 595.23 244.25 595.21 244.24 595.18 244.23 595.13 244.25 595.1 244.25 595.03 244.2 594.96 244.13 594.94 244.05 595.01 243.99 595.04 243.96 595.06 243.93 595.07 243.89 595.09 243.87 595.19 243.8 595.21 243.77 595.2 243.68 595.14 243.61 595.01 243.52 594.96 243.51 594.86 243.51 594.72 243.44 594.67 243.41 594.64 243.37 594.63 243.34 594.62 243.27 594.61 243.24 594.6 243.22 594.57 243.2 594.52 243.18 594.49 243.14 594.48 243.08 594.5 243.02 594.53 242.97 594.7 242.89 594.78 242.81 594.78 242.69 594.75 242.65 594.71 242.63 594.67 242.61 594.66 242.53 594.67 242.46 594.69 242.41 594.7 242.36 594.7 242.29 594.66 242.18 594.66 242.14 594.71 242.16 594.75 242.17 594.97 242.13 595.01 242.11 595.05 242.06 595.13 241.98 595.31 241.87 595.39 241.79 595.4 241.7 595.35 241.6 595.32 241.5 595.37 241.4 595.39 241.36 595.43 241.25 595.45 241.2 595.51 241.17 595.91 241.09 595.96 241.09 596.07 241.13 596.12 241.13 596.26 241.12 596.3 241.11 596.4 241.05 596.43 241.04 596.43 241.03 596.47 241.04 596.5 241.07 596.56 241.15 596.61 241.19 596.66 241.2 597 241.23 597.01 241.21 596.96 241.1 596.96 240.97 596.97 240.92 596.99 240.88 597.04 240.87 597.08 240.89 597.1 240.93 597.12 240.99 597.15 241.04 597.17 241.07 597.18 241.11 597.2 241.14 597.23 241.16 597.31 241.14 597.64 241 597.72 240.94 597.76 240.86 597.73 240.77 597.68 240.68 597.7 240.6 597.76 240.55 597.84 240.57 597.97 240.69 598.04 240.74 598.11 240.73 598.17 240.67 598.21 240.59 598.26 240.52 598.34 240.52 598.44 240.45 598.65 240.38 598.8 240.3 598.84 240.26 598.86 240.21 598.84 240.15 598.8 240.12 598.7 240.07 598.67 240.03 598.67 240 598.71 239.96 598.71 239.92 598.7 239.9 598.66 239.87 598.65 239.84 598.65 239.8 598.66 239.67 598.67 239.64 598.69 239.62 598.76 239.55 598.88 239.51 599.2 239.5 599.32 239.47 599.43 239.41 599.49 239.33 599.49 239.29 599.5 239.22 599.51 239.13 599.55 239.06 599.61 239.01 599.9 238.95 599.99 238.91 600.26 238.7 600.31 238.68 600.4 238.67 600.44 238.66 600.55 238.56 600.65 238.55 600.84 238.59 600.94 238.59 600.98 238.58 601.02 238.56 601.05 238.53 601.08 238.48 601.09 238.43 601.09 238.33 601.11 238.29 601.19 238.25 601.36 238.19 601.44 238.13 601.6 237.93 601.66 237.87 601.74 237.83 602 237.83 602.08 237.81 602.29 237.69 602.38 237.69 602.56 237.73 602.64 237.71 602.68 237.65 602.69 237.58 602.72 237.51 602.77 237.45 602.99 237.36 603.05 237.3 603.16 237.09 603.22 237.03 603.38 236.93 603.54 236.87 603.71 236.85 604.07 236.92 604.29 236.92 604.47 236.81 604.59 236.56 604.59 236.49 604.59 236.43 604.6 236.38 604.63 236.33 604.68 236.31 604.73 236.29 604.79 236.3 604.82 236.35 604.86 236.49 604.92 236.58 604.99 236.63 605.08 236.67 605.16 236.73 605.29 236.92 605.37 236.97 605.42 236.96 605.47 236.94 605.52 236.9 605.56 236.86 605.59 236.8 605.6 236.69 605.62 236.63 605.7 236.57 605.83 236.54 605.98 236.55 606.07 236.61 606.09 236.73 606.09 236.9 606.13 237.03 606.16 237.1 606.18 237.14 606.2 237.17 606.24 237.19 606.38 237.23 606.46 237.23 606.57 237.23 607.08 237.19 607.34 237.28 608.12 237.31 608.89 237.35 608.94 237.37 608.97 237.42 608.98 237.47 608.99 237.6 609.08 237.82 609.09 237.91 609.1 238.26 609.13 238.44 609.15 238.53 609.18 238.6 609.24 238.66 609.42 238.74 609.46 238.78 609.47 238.82 609.48 238.87 609.5 238.92 609.52 238.96 609.62 239.06 609.64 239.1 609.68 239.2 609.7 239.23 609.75 239.25 609.81 239.24 610.02 239.16 610.41 239.14 610.48 239.16 610.54 239.22 610.59 239.33 610.63 239.4 610.65 239.43 610.75 239.49 611.37 239.48 611.47 239.51 611.57 239.59 611.61 239.64 611.64 239.66 611.65 239.67 611.69 239.69 611.74 239.68 611.77 239.64 611.83 239.55 611.88 239.52 612.09 239.49 612.18 239.44 612.27 239.32 612.33 239.26 612.42 239.23 612.51 239.25 612.56 239.33 612.56 239.33 612.59 239.42 612.63 239.49 612.68 239.51 612.74 239.46 612.77 239.42 612.8 239.38 612.83 239.35 612.86 239.33 612.89 239.31 612.92 239.31 612.96 239.31 612.99 239.33 612.99 239.33 612.99 239.33 612.99 239.33 613.32 239.48 613.42 239.55 613.52 239.65 613.57 239.68 613.63 239.69 613.68 239.67 613.79 239.6 613.85 239.57 613.92 239.57 613.96 239.59 614 239.64 614.03 239.71 614.06 239.78 614.1 239.79 614.14 239.77 614.19 239.74 614.31 239.61 614.36 239.6 614.95 239.69 615.03 239.76 615.11 239.91 615.14 239.94 615.21 239.97 615.24 239.98 615.28 240.01 615.3 240.07 615.36 240.16 615.47 240.21 615.6 240.24 615.69 240.24 615.78 240.21 615.88 240.16 616.07 240.03 616.22 239.91 616.29 239.82 616.31 239.72 616.28 239.66 616.27 239.61 616.27 239.59 616.44 239.54 616.64 239.44 616.69 239.43 616.74 239.45 616.81 239.54 616.86 239.56 616.9 239.54 616.96 239.46 617.03 239.39 617.34 239.22 617.47 239.08 617.82 238.32 617.83 238.27 617.84 238.2 617.83 238.14 617.81 238.03 617.82 237.92 617.89 237.71 617.9 237.6 617.9 237.6 617.9 237.6 617.88 237.51 617.84 237.44 617.79 237.4 617.73 237.37 617.6 237.35 617.53 237.33 617.37 237.19 617.32 237.15 617.29 237.08 617.18 236.8 617.11 236.62 617.12 236.54 617.21 236.4 617.2 236.36 617.13 236.31 617.1 236.27 617.08 236.22 617.05 236.19 616.95 236.12 616.87 236.04 616.81 235.93 616.8 235.82 616.95 235.52 616.98 235.4 617 235.29 617.01 235.23 617.08 235.07 617.08 235.02 617.07 234.94 617.05 234.82 617.05 234.77 617.06 234.7 617.09 234.66 617.15 234.57 617.18 234.53 617.28 234.29 617.32 234.21 617.35 234.18 617.38 234.17 617.48 234.12 617.54 234.11 617.72 234.15 617.74 234.09 617.75 234 617.73 233.85 617.74 233.77 617.76 233.7 617.82 233.58 617.84 233.51 617.97 233.28 618.18 233.19 618.6 233.06 618.68 233 618.75 232.92 618.81 232.83 618.95 232.53 618.99 232.36 619.01 232.3 619.09 232.19 619.11 232.14 619.12 232.07 619.12 231.95 619.13 231.89 619.2 231.81 619.29 231.81 619.31 231.83 619.37 231.87 619.39 231.99 619.44 232.07 619.51 232.11 619.89 232.25 619.97 232.3 620.02 232.36 620.06 232.42 620.1 232.48 620.17 232.51 620.68 232.67 620.96 232.68 621.02 232.71 621.19 232.86 621.33 233.03 621.48 233.17 621.68 233.24 Z" id="Mongolia" transform="translate(-594.47998046875,-231.80999755859375) "/></svg>