<svg xmlns="http://www.w3.org/2000/svg" viewBox="0 0 798 1227"><path d="M 753.85 927.41 748.92 959.44 792.43 1013.64 799 1050.6 712.8 1177.9 680.78 1194.33 661.9 1226.36 546.14 1226.36 487.02 1205.83 477.17 1223.89 432.02 1228 381.94 1189.4 381.94 1171.33 352.38 1168.87 293.27 1114.66 271.93 1114.66 256.33 1068.67 217.74 1043.21 203.78 1004.61 158.63 993.11 130.72 897.84 1 833.78 51.08 799.29 83.1 683.49 56.01 642.42 56.01 614.5 83.1 598.9 151.24 505.27 180.8 423.14 188.19 354.15 208.71 336.08 256.33 233.42 283.42 220.28 299.84 183.33 279.31 153.76 302.3 135.69 293.27 112.7 306.41 76.56 299.84 48.63 335.96 5.93 354.85 1 367.98 21.53 395.9 16.6 500.16 62.6 525.61 119.27 525.61 139.8 505.09 153.76 500.16 206.32 528.07 235.89 546.14 320.48 591.29 361.54 602.78 441.21 648.76 482.27 651.22 507.73 673.39 520.87 714.44 519.23 744.81 566.87 737.43 589.86 755.49 593.97 744.81 628.46 764.52 653.1 764.52 676.1 742.35 696.63 728.4 737.69 730.86 804.22 764.52 831.32 780.94 877.31 753.85 927.41 Z" transform="translate(-1,-1) "/></svg>