<svg xmlns="http://www.w3.org/2000/svg" viewBox="0 0 4.260009765625 5.0999755859375"><path d="M 445.1 262.33 444.92 262.36 444.83 262.39 444.82 262.4 444.8 262.43 444.8 262.46 444.8 262.49 444.8 262.52 444.74 262.58 444.66 262.56 444.58 262.51 444.5 262.49 444.48 262.5 444.46 262.52 444.41 262.55 444.39 262.58 444.39 262.64 444.41 262.69 444.42 262.69 444.54 262.81 444.56 262.84 444.56 262.85 444.53 262.93 444.51 262.98 444.5 263 444.5 263.05 444.51 263.09 444.5 263.13 444.48 263.17 444.42 263.14 444.37 263.17 444.29 263.28 444.24 263.29 444.13 263.29 444.07 263.33 444.07 263.33 444.07 263.33 444.05 263.35 443.97 263.4 443.95 263.4 443.93 263.41 443.89 263.4 443.86 263.39 443.78 263.33 443.74 263.24 443.74 263.21 443.74 263.19 443.74 263.14 443.74 263.12 443.76 263.09 443.77 263.07 443.77 263.07 443.77 263.04 443.77 263.01 443.75 262.94 443.72 262.87 443.67 262.84 443.62 262.87 443.58 262.91 443.55 262.93 443.49 262.99 443.46 263.05 443.45 263.1 443.43 263.17 443.42 263.21 443.39 263.24 443.36 263.26 443.33 263.28 443.32 263.33 443.32 263.33 443.3 263.38 443.26 263.43 443.23 263.48 443.18 263.51 443.16 263.55 443.04 263.69 443.03 263.7 443.01 263.75 443 263.77 443.01 263.81 443 263.83 442.79 264.16 442.73 264.23 442.72 264.26 442.74 264.31 442.74 264.31 442.78 264.35 442.9 264.44 442.94 264.48 442.94 264.49 442.95 264.52 442.91 264.61 442.9 264.66 442.89 264.72 442.9 264.77 442.92 264.82 442.92 264.82 442.94 264.84 442.93 264.89 442.91 264.9 442.9 264.9 442.88 264.91 442.9 264.98 442.89 265 442.89 265.02 442.88 265.03 442.88 265.05 442.88 265.07 442.89 265.08 442.91 265.1 442.93 265.13 442.92 265.21 442.93 265.24 442.93 265.24 442.89 265.2 442.8 265.11 442.77 265.09 442.6 265.04 442.57 265.02 442.51 265 442.49 264.98 442.48 264.95 442.48 264.94 442.48 264.92 442.47 264.89 442.46 264.89 442.44 264.87 442.42 264.84 442.43 264.83 442.43 264.82 442.43 264.67 442.3 264.56 442.28 264.52 442.3 264.47 442.29 264.46 442.26 264.44 442.22 264.38 442.14 264.39 442.12 264.35 442.12 264.32 442.11 264.31 442.09 264.31 442.08 264.3 442.05 264.24 442.01 264.21 441.92 264.14 441.9 264.09 441.88 263.99 441.86 263.95 441.83 263.94 441.79 263.94 441.76 263.95 441.74 263.97 441.73 263.96 441.72 263.95 441.71 263.93 441.68 263.95 441.66 263.97 441.65 263.98 441.64 263.98 441.63 263.99 441.61 263.98 441.59 263.93 441.52 263.87 441.48 263.83 441.48 263.79 441.47 263.78 441.45 263.76 441.44 263.75 441.44 263.73 441.44 263.69 441.4 263.65 441.36 263.65 441.35 263.71 441.33 263.71 441.32 263.7 441.27 263.7 441.26 263.7 441.25 263.68 441.22 263.66 441.19 263.64 441.16 263.63 441.17 263.62 441.17 263.62 441.17 263.61 441.18 263.61 441.13 263.57 441.11 263.54 441.12 263.5 441.15 263.49 441.33 263.55 441.36 263.56 441.42 263.6 441.45 263.63 441.47 263.58 441.47 263.55 441.42 263.43 441.41 263.4 441.42 263.36 441.35 263.45 441.25 263.47 441.01 263.44 441.01 263.46 441.06 263.49 441.04 263.58 441.07 263.61 441.03 263.59 441 263.56 441 263.52 440.99 263.48 440.95 263.46 440.94 263.45 440.91 263.41 440.88 263.38 440.87 263.33 440.87 263.28 440.88 263.18 440.87 263.13 440.89 263.11 440.92 263.1 440.94 263.1 440.97 263.12 440.99 263.12 441 263.1 440.99 263.07 440.98 263.04 441.02 263.01 441.05 263 441.09 262.95 441.1 262.93 441.12 262.89 441.12 262.81 441.1 262.72 441.06 262.67 441.01 262.63 440.94 262.5 440.91 262.43 440.89 262.36 440.88 262.3 440.91 262.27 440.93 262.25 440.95 262.22 440.94 262.16 440.88 262.06 440.86 262 440.86 261.94 440.9 261.83 440.97 261.76 441.09 261.73 441.23 261.73 441.32 261.74 441.28 261.51 441.28 261.44 441.28 261.43 441.29 261.34 441.33 261.26 441.43 261.13 441.37 261.1 441.41 261.05 441.69 260.84 441.75 260.82 441.74 260.81 441.73 260.78 441.72 260.77 441.76 260.75 441.89 260.74 441.95 260.76 442.01 260.8 442.02 260.82 442.02 260.84 442.02 260.86 442.03 260.89 442.05 260.92 442.09 260.98 442.09 260.98 442.1 261 442.12 260.98 442.14 260.95 442.15 260.92 442.17 260.91 442.17 260.9 442.2 260.89 442.26 260.88 442.27 260.87 442.2 260.74 442.14 260.56 442.06 260.46 442.05 260.45 442 260.46 442 260.45 442.01 260.42 442.01 260.4 441.98 260.35 441.96 260.34 441.93 260.33 441.91 260.32 441.91 260.29 441.92 260.27 441.94 260.25 441.98 260.23 442.03 260.17 442.07 260.15 442.12 260.14 442.15 260.18 442.17 260.22 442.2 260.26 442.24 260.27 442.29 260.27 442.33 260.25 442.39 260.18 442.44 260.17 442.55 260.19 442.51 260.26 442.51 260.35 442.54 260.43 442.6 260.48 442.91 260.62 442.94 260.64 443.03 260.78 443.17 260.92 443.19 260.96 443.23 261.04 443.25 261.08 443.33 261.14 443.34 261.15 443.4 261.24 443.44 261.27 443.49 261.3 443.59 261.33 443.63 261.33 443.66 261.32 443.68 261.3 443.7 261.31 443.76 261.42 443.8 261.48 443.85 261.51 443.9 261.53 443.97 261.54 444.05 261.53 444.08 261.52 444.13 261.46 444.15 261.45 444.18 261.46 444.19 261.49 444.21 261.52 444.22 261.55 444.24 261.57 444.38 261.66 444.45 261.74 444.46 261.74 444.59 261.88 444.62 261.89 444.65 261.89 444.76 261.91 444.83 261.93 444.94 262.02 445.08 262.09 445.12 262.13 445.12 262.21 445.1 262.33 Z" id="Montenegro" transform="translate(-440.8599853515625,-260.1400146484375) "/></svg>