<svg xmlns="http://www.w3.org/2000/svg" viewBox="0 0 35.41998291015625 36.600006103515625"><path d="M 388.03 282.06 388.05 282.12 388.08 282.18 388.11 282.23 388.16 282.27 388.16 282.27 388.15 282.31 388.16 282.38 388.19 282.52 388.2 282.63 388.21 282.67 388.22 282.69 388.24 282.71 388.25 282.71 388.29 282.71 388.3 282.71 388.31 282.73 388.3 282.77 388.3 282.79 388.34 282.93 388.36 282.98 388.41 283.03 388.5 283.1 388.58 283.17 388.77 283.44 388.8 283.46 388.86 283.47 388.9 283.49 388.94 283.52 389.02 283.59 389.08 283.67 389.12 283.72 389.22 283.75 389.34 283.86 389.43 283.91 389.74 284.01 390.04 284.08 390.04 284.08 390.3 284.16 390.36 284.16 390.41 284.15 390.54 284.07 390.84 284.01 391.03 283.93 391.22 283.89 391.31 283.84 391.33 283.88 391.33 283.89 391.3 283.9 391.29 283.91 391.3 283.92 391.31 283.94 391.35 283.99 391.38 284 391.42 284.01 391.49 284.01 391.53 284.01 391.6 284 391.65 283.98 391.68 283.93 391.69 283.85 391.74 283.8 391.8 283.78 391.86 283.79 391.9 283.82 391.99 283.9 392.04 283.94 392.21 283.96 392.27 284 392.29 284 392.32 283.99 392.34 283.99 392.37 284 392.41 284.02 392.43 284.03 392.55 284.04 392.64 284.02 392.92 283.92 392.96 283.89 393.06 283.79 393.09 283.77 393.11 283.77 393.13 283.78 393.15 283.79 393.18 283.79 393.25 283.72 393.34 283.5 393.39 283.42 393.39 283.39 393.4 283.37 393.42 283.36 393.45 283.37 393.46 283.4 393.44 283.44 393.45 283.47 393.43 283.56 393.46 283.66 393.47 283.67 393.47 283.67 393.47 283.67 393.42 283.72 393.43 283.79 393.48 283.84 393.54 283.82 393.57 283.86 393.55 283.89 393.54 283.93 393.54 283.97 393.55 284.06 393.56 284.1 393.58 284.13 393.61 284.17 393.67 284.21 393.75 284.24 393.91 284.25 393.81 284.17 393.64 283.98 393.61 283.92 393.62 283.9 393.65 283.92 393.76 284.04 393.77 284.07 393.88 284.18 393.97 284.23 394.09 284.27 394.32 284.31 394.42 284.3 394.47 284.28 394.51 284.26 394.56 284.21 394.6 284.17 394.64 284.16 394.85 284.24 394.9 284.25 394.96 284.27 395.02 284.3 395.07 284.32 395.08 284.43 395.1 284.5 395.14 284.55 395.2 284.58 395.29 284.64 395.36 284.71 395.43 284.75 395.53 284.76 395.56 284.78 395.57 284.82 395.57 284.85 395.58 284.89 395.61 284.93 395.73 285 395.8 285.07 396.04 285.22 396.08 285.26 396.07 285.28 396.04 285.3 395.99 285.42 395.87 285.6 395.85 285.65 396.12 285.92 396.2 285.95 396.23 285.96 395.99 286.25 396.07 286.35 396.13 286.47 396.29 286.96 396.29 287 396.3 287.03 396.29 287.08 396.19 287.51 396.18 287.64 396.2 287.77 396.23 287.84 396.22 287.87 396.21 287.91 396.19 287.94 396.16 287.96 396.14 287.99 396.13 288.03 396.14 288.07 396.18 288.1 396.25 288.12 396.29 288.15 396.32 288.18 396.41 288.42 396.43 288.51 396.4 288.58 396.36 288.63 396.32 288.78 396.29 288.85 396.27 288.91 396.27 289.17 396.29 289.26 396.4 289.37 396.44 289.44 396.47 289.53 396.52 289.59 396.57 289.64 396.64 289.69 396.68 289.73 396.69 289.78 396.69 289.84 396.68 289.9 396.68 289.93 396.67 289.95 396.66 289.97 396.64 289.99 396.54 290.06 396.84 290.56 396.92 290.62 397.06 290.68 397.68 291.15 397.71 291.21 397.58 291.35 397.51 291.41 397.43 291.44 397.34 291.46 397.3 291.48 397.26 291.52 397.24 291.57 397.21 291.66 397.18 291.9 397.17 291.93 397.17 291.96 397.17 291.98 397.16 292.01 397.14 292.02 397.11 292.05 397.1 292.06 397.11 292.11 397.14 292.11 397.23 292.07 397.27 292.07 397.31 292.09 397.35 292.12 397.36 292.17 397.32 292.27 397.23 292.29 397.06 292.28 397.04 292.28 396.99 292.28 396.91 292.27 396.8 292.27 396.66 292.26 396.51 292.25 396.34 292.25 396.16 292.24 395.97 292.23 395.77 292.22 395.58 292.21 395.39 292.2 395.2 292.19 395.03 292.18 394.87 292.18 394.73 292.17 394.42 292.16 394.02 292.27 393.61 292.3 393.49 292.37 393.64 292.78 393.73 293.03 393.34 293.09 392.86 293.23 392.22 293.35 392.13 293.36 392.04 293.33 391.89 293.41 391.86 294.08 391.69 294.09 391.57 294.18 391.54 294.22 391.53 294.26 391.55 294.46 391.54 294.52 391.5 294.6 391.48 294.65 391.49 294.69 391.52 294.72 391.55 294.72 391.59 294.7 391.66 294.64 391.69 294.62 391.73 294.63 391.76 294.67 391.82 294.76 391.86 294.8 391.94 294.84 391.97 294.86 391.99 294.91 392 294.96 392 295.01 392.12 295.2 392 295.4 391.89 295.5 391.9 295.67 391.92 295.83 391.5 296.04 391.13 296.13 390.79 296.15 390.52 296.22 390.31 296.35 390.06 296.67 389.75 296.92 389.42 297.06 389.19 297.19 389.01 297.33 388.76 297.54 388.53 297.7 388.31 297.93 388.15 298.24 387.95 298.55 387.72 298.86 387.5 298.93 387.32 298.86 387.24 298.63 386.96 298.66 386.7 298.71 386.42 298.71 386.09 298.71 385.78 298.75 385.46 298.84 385.15 298.87 384.96 299.05 384.58 298.89 384.33 298.87 384.16 298.89 383.91 299 383.71 299.21 383.46 299.19 383.41 299.21 383.36 299.22 383.31 299.22 383.21 299.2 383.11 299.19 383.03 299.23 382.9 299.37 382.87 299.39 382.76 299.45 382.62 299.57 382.39 299.73 382.19 299.93 382.11 299.98 381.86 300.09 381.71 300.19 381.56 300.33 381.53 300.35 381.45 300.39 381.42 300.41 381.34 300.55 381.31 300.58 381.21 300.63 381.11 300.71 380.83 300.87 380.79 300.9 380.76 300.95 380.75 301.02 380.75 301.13 380.75 301.28 380.75 301.43 380.75 301.58 380.75 301.73 380.75 301.88 380.75 302.03 380.75 302.18 380.75 302.33 380.75 302.48 380.75 302.63 380.75 302.78 380.75 302.93 380.75 303.08 380.75 303.23 380.75 303.38 380.75 303.53 380.6 303.53 380.46 303.53 380.46 303.53 380.45 303.53 380.46 303.65 380.53 303.86 380.55 304.03 380.52 304.14 380.49 304.28 380.5 304.41 380.55 304.55 380.6 304.7 380.6 304.8 380.51 304.87 380.3 304.91 380.05 304.95 379.87 304.95 379.59 304.92 379.42 304.93 379.27 304.93 379.14 304.95 378.97 305.05 378.79 305.19 378.56 305.39 378.42 305.52 378.24 305.54 378.06 305.54 377.88 305.44 377.76 305.39 377.69 305.4 377.56 305.47 377.42 305.52 377.28 305.52 377.05 305.42 376.77 305.27 376.61 305.19 376.39 305.17 376.16 305.12 376 305.15 375.79 305.15 375.52 305.25 375.29 305.32 375.03 305.39 374.75 305.46 374.82 305.68 374.92 305.8 374.92 305.95 374.87 306.08 374.73 306.2 374.58 306.36 374.48 306.48 374.39 306.65 374.32 306.75 374.21 306.91 374.1 307.11 374.07 307.24 374.03 307.38 373.95 307.42 373.67 307.46 373.49 307.51 373.33 307.56 373.28 307.64 373.27 307.66 373.22 307.83 373.22 307.95 373.18 308.05 373.11 308.29 373.02 308.51 372.96 308.81 372.89 309.05 372.8 309.44 372.71 309.81 372.6 310.15 372.51 310.37 372.45 310.49 372.29 310.63 372.16 310.73 372 310.85 371.83 310.97 371.58 311.12 371.38 311.24 371.3 311.3 371.21 311.36 371.05 311.53 370.92 311.77 370.83 311.97 370.67 312.28 370.56 312.45 370.5 312.54 370.32 312.64 370.12 312.71 369.9 312.81 369.72 312.91 369.48 313 369.32 313.1 369.21 313.24 369.12 313.41 369.01 313.65 368.92 313.91 368.88 314.08 368.74 314.66 368.7 314.99 368.66 315.21 368.59 315.47 368.55 315.88 368.55 316.21 368.5 316.4 368.48 316.55 368.37 316.71 368.28 316.83 368.12 317 367.99 317.09 367.95 317.19 367.81 317.31 367.68 317.5 367.57 317.61 367.59 317.71 367.61 317.88 367.55 318.04 367.48 318.23 367.3 318.47 367.11 318.59 366.82 318.61 366.42 318.61 366.11 318.59 365.73 318.59 365.4 318.54 365.09 318.49 364.71 318.47 364.44 318.47 364.11 318.51 363.25 318.51 362.92 318.54 362.43 318.63 362.29 318.66 362.29 318.6 362.38 318.25 362.39 318.15 362.38 318.06 362.39 318 362.43 317.94 362.43 317.91 362.44 317.88 362.43 317.85 362.43 317.84 362.4 317.82 362.39 317.8 362.4 317.77 362.41 317.7 362.45 317.6 362.47 317.5 362.49 317.45 362.72 316.97 362.8 316.89 362.82 316.87 362.82 316.85 362.84 316.8 362.86 316.78 362.89 316.76 362.91 316.74 362.94 316.66 362.97 316.63 363.02 316.61 363.03 316.59 363.05 316.58 363.07 316.58 363.09 316.59 363.11 316.6 363.13 316.63 363.38 316.53 363.42 316.5 363.46 316.44 363.5 316.38 363.58 316.11 363.58 316.07 363.6 316.04 363.71 315.93 363.74 315.89 363.77 315.74 363.78 315.54 363.79 315.49 363.81 315.4 363.83 315.36 363.88 315.3 363.88 315.28 363.87 315.26 363.86 315.24 363.86 315.21 363.87 315.2 363.89 315.15 363.89 315.14 363.9 315.13 363.95 315.12 364 315.11 364.08 315.05 364.15 314.96 364.17 314.91 364.19 314.87 364.2 314.81 364.2 314.76 364.18 314.7 364.14 314.69 364.05 314.72 364.06 314.67 364.1 314.6 364.12 314.57 364.22 314.47 364.23 314.45 364.4 314.07 364.42 314.04 364.45 314.03 364.48 314 364.58 313.83 364.61 313.67 364.63 313.62 364.66 313.58 364.74 313.43 364.85 313.31 364.86 313.3 364.89 313.27 364.91 313.25 364.92 313.23 364.93 313.18 364.94 313.15 364.98 313.1 365.01 313.05 365.04 313.01 365.05 312.95 365.05 312.84 365.05 312.8 365.02 312.74 365.02 312.73 365.03 312.71 365.01 312.73 365 312.76 365.01 312.79 365 312.82 364.99 312.84 364.93 312.88 364.91 312.89 364.88 312.89 364.86 312.89 364.84 312.89 364.8 312.92 364.78 312.95 364.77 312.98 364.73 313.06 364.7 313.11 364.7 313.13 364.69 313.16 364.67 313.21 364.67 313.23 364.65 313.26 364.54 313.35 364.51 313.33 364.53 313.29 364.58 313.23 364.59 313.19 364.67 313.04 364.8 312.85 364.82 312.81 364.85 312.77 364.89 312.73 365.05 312.59 365.12 312.57 365.21 312.51 365.24 312.48 365.32 312.47 365.38 312.43 365.42 312.38 365.46 312.33 365.55 312.22 365.61 312.13 365.69 312.07 365.73 312.03 365.75 311.99 365.76 311.96 365.97 311.79 366.09 311.66 366.24 311.43 366.3 311.37 366.37 311.3 366.41 311.27 366.45 311.25 366.5 311.24 366.6 311.22 366.64 311.19 366.72 311.14 366.72 311.08 366.72 311.07 366.75 311.01 366.8 310.94 366.86 310.9 366.91 310.87 366.95 310.84 366.98 310.79 367 310.63 367.06 310.49 367.07 310.37 367.11 310.3 367.11 310.27 367.11 310.23 367.1 310.2 367.1 310.16 367.11 310.12 367.1 310.1 367.11 310.07 367.12 310.03 367.13 309.99 367.13 309.95 367.12 309.91 367.1 309.86 367.1 309.83 367.1 309.61 367.08 309.55 367.15 309.27 367.17 309.23 367.23 308.99 367.33 308.84 367.36 308.82 367.38 308.79 367.45 308.63 367.46 308.52 367.47 308.51 367.49 308.47 367.5 308.39 367.59 308.16 367.76 307.93 367.82 307.82 367.83 307.79 367.83 307.74 367.87 307.63 367.89 307.6 367.88 307.56 367.9 307.42 367.9 307.38 367.87 307.31 367.88 307.28 367.9 307.26 367.92 307.18 367.93 307.16 368.06 306.99 368.08 306.98 368.18 306.96 368.3 306.89 368.49 306.71 368.52 306.67 368.54 306.63 368.57 306.59 368.62 306.57 368.86 306.54 368.91 306.52 369.14 306.4 369.54 306.11 369.81 305.94 369.94 305.79 370.07 305.52 370.12 305.39 370.16 305.19 370.23 305.04 370.29 304.73 370.33 304.64 370.52 304.37 370.52 304.35 370.5 304.33 370.5 304.32 370.53 304.3 370.65 304.02 370.72 303.76 370.73 303.71 370.74 303.67 370.78 303.57 370.79 303.53 370.79 303.53 370.79 303.52 370.8 303.47 370.83 303.45 370.89 303.41 370.97 303.35 371.05 303.33 371.08 303.28 371.18 303.13 371.23 302.95 371.25 302.9 371.29 302.86 371.33 302.84 371.54 302.76 371.94 302.69 372.26 302.7 372.66 302.57 373.26 302.46 373.29 302.45 373.34 302.39 373.35 302.39 373.39 302.38 373.88 302.16 374.54 301.87 374.61 301.81 374.67 301.75 374.75 301.6 374.79 301.56 374.83 301.53 374.86 301.49 374.87 301.44 374.89 301.4 375.03 301.31 375.13 301.18 375.15 301.14 375.24 301.08 375.26 301.06 375.27 301.03 375.29 301.01 375.36 300.95 375.37 300.94 375.41 300.87 375.48 300.8 375.51 300.78 376.14 300.45 376.29 300.35 376.48 300.26 376.56 300.2 376.83 299.95 377.06 299.6 377.12 299.53 377.16 299.49 377.25 299.46 377.28 299.42 377.34 299.34 377.39 299.27 377.42 299.22 377.43 299.17 377.44 299.15 377.52 299.1 377.53 299.08 377.55 299.03 377.64 298.89 377.65 298.86 377.66 298.81 377.67 298.75 377.69 298.7 377.72 298.66 377.82 298.56 377.84 298.53 377.85 298.49 377.94 298.37 378.23 298.05 378.46 297.65 378.6 297.32 378.62 297.23 378.66 296.9 378.7 296.73 378.7 296.68 378.69 296.61 378.67 296.58 378.64 296.56 378.6 296.52 378.57 296.47 378.52 296.34 378.5 296.26 378.48 296.25 378.46 296.24 378.43 296.24 378.41 296.22 378.37 296.15 378.21 296.04 378.16 296.04 378.11 296.03 378.08 295.99 378.08 295.89 378.13 295.79 378.19 295.7 378.23 295.62 378.25 295.56 378.25 295.53 378.24 295.51 378.22 295.48 378.22 295.47 378.23 295.45 378.23 295.42 378.22 294.91 378.21 294.87 378.17 294.77 378.2 294.71 378.26 294.35 378.26 294.2 378.25 294.14 378.23 294.11 378.2 294.08 378.17 294.05 378.24 293.96 378.29 293.87 378.34 293.71 378.37 293.68 378.41 293.64 378.42 293.62 378.44 293.58 378.47 293.54 378.48 293.51 378.51 293.47 378.52 293.45 378.55 293.24 378.57 293.2 378.77 292.98 378.86 292.85 378.88 292.83 378.91 292.81 378.93 292.79 378.95 292.76 378.97 292.72 378.98 292.7 379.24 292.43 379.27 292.38 379.28 292.34 379.31 292.24 379.31 292.19 379.32 292.16 379.4 292.06 379.43 291.99 379.45 291.91 379.46 291.64 379.45 291.63 379.41 291.61 379.4 291.59 379.41 291.53 379.42 291.49 379.48 291.37 379.5 291.32 379.5 291.27 379.49 291.23 379.47 291.2 379.45 291.16 379.43 291.12 379.43 291.08 379.47 291 379.8 290.72 380.05 290.42 380.27 290.27 380.34 290.2 380.59 289.86 380.87 289.55 380.89 289.52 380.89 289.49 380.89 289.43 380.91 289.4 381.09 289.18 381.11 289.17 381.13 289.17 381.15 289.2 381.17 289.2 381.23 289.2 381.27 289.19 381.35 289.15 381.43 289.08 381.56 288.92 381.64 288.86 381.73 288.82 382.03 288.75 382.24 288.66 382.35 288.61 382.45 288.58 382.51 288.56 382.56 288.5 382.61 288.47 382.76 288.43 382.85 288.38 382.89 288.37 382.93 288.35 382.97 288.3 383 288.27 383.05 288.28 383.07 288.26 383.09 288.27 383.12 288.28 383.14 288.28 383.16 288.27 383.2 288.25 383.26 288.23 383.31 288.22 383.35 288.19 383.38 288.17 383.46 288.07 383.52 288.04 383.58 287.97 383.63 287.95 383.61 287.97 383.65 287.99 383.7 287.97 383.73 287.95 383.89 287.85 383.98 287.77 384.06 287.73 384.15 287.69 384.22 287.68 384.22 287.68 384.26 287.67 384.33 287.6 384.41 287.58 384.64 287.39 384.88 287.14 385.07 286.81 385.22 286.49 385.46 286.13 385.49 286.08 385.52 285.98 385.57 285.89 386.05 284.89 386.24 284.23 386.65 283.21 386.66 283.16 386.66 283.09 386.67 283.05 386.72 282.95 386.77 282.8 386.77 282.78 386.78 282.75 386.81 282.71 386.81 282.68 386.83 282.56 386.84 282.49 386.86 282.45 386.9 282.41 386.98 282.39 387.18 282.42 387.21 282.42 387.27 282.36 387.3 282.34 387.34 282.32 387.38 282.31 387.41 282.32 387.45 282.3 387.5 282.3 387.55 282.31 387.59 282.34 387.72 282.26 387.76 282.23 387.84 282.14 387.88 282.1 387.92 282.08 387.94 282.08 387.95 282.09 387.98 282.1 388 282.1 388.01 282.08 388.01 282.06 388.02 282.06 388.03 282.06 388.03 282.06 Z" id="Morocco" transform="translate(-362.2900085449219,-282.05999755859375) "/></svg>