<svg xmlns="http://www.w3.org/2000/svg" viewBox="0 0 23.579986572265625 38.27001953125"><path d="M 473.09 426.29 473.07 426.36 473.06 426.38 473.04 426.4 473.04 426.4 473.03 426.39 473.01 426.38 473 426.37 473 426.35 472.99 426.34 472.96 426.35 472.96 426.36 472.94 426.41 472.92 426.34 472.97 426.28 473.05 426.22 473.11 426.2 473.11 426.22 473.09 426.29 Z M 478.59 416.1 478.55 416.11 478.53 416.07 478.53 416.03 478.55 415.85 478.62 415.55 478.65 415.51 478.67 415.51 478.68 415.54 478.68 415.6 478.67 415.77 478.59 416.1 Z M 488.45 403.58 488.4 403.59 488.35 403.58 488.3 403.53 488.26 403.45 488.27 403.37 488.3 403.33 488.36 403.29 488.47 403.27 488.54 403.28 488.55 403.33 488.54 403.38 488.48 403.44 488.46 403.51 488.46 403.55 488.45 403.58 Z M 472.91 428.35 472.57 428.36 472.26 428.37 471.97 428.38 471.71 428.39 471.59 428.37 471.43 428.34 471.36 428.34 471.25 428.35 471.19 428.34 471.19 427.7 471.17 427.5 471.07 427.29 471.05 427.22 471.02 426.97 471.03 426.9 471.11 426.7 471.11 426.64 471.1 426.55 471.07 426.46 471.06 426.37 471.09 426.3 470.94 426.26 470.88 426.22 470.82 426.17 470.73 425.89 470.72 425.81 470.74 425.75 470.83 425.5 470.85 425.47 470.88 425.44 470.9 425.43 470.91 425.42 470.92 425.38 470.92 425.33 470.9 425.18 470.89 425.13 470.87 425.08 470.86 425 470.86 424.92 470.87 424.86 470.91 424.74 470.91 424.21 470.9 423.82 470.9 423.53 470.9 423.12 470.9 422.78 470.92 422.62 470.9 422.43 470.85 422.25 470.77 422.08 470.64 421.8 470.63 421.7 470.62 421.32 470.61 421.28 470.6 421.24 470.58 421.21 470.43 421.11 470.39 421.07 470.36 421.02 470.27 420.8 470.18 420.5 470.14 420.42 469.93 420.19 469.89 420.1 469.87 420 469.92 419.45 469.91 419.38 469.75 418.91 469.66 418.62 469.55 418.27 469.43 417.91 469.34 417.61 469.36 417.57 469.53 417.44 469.68 417.34 469.79 417.21 469.91 417.08 470.03 416.95 470.14 416.82 470.26 416.69 470.37 416.57 470.49 416.44 470.61 416.31 470.72 416.18 470.84 416.05 470.96 415.92 471.07 415.79 471.19 415.66 471.3 415.53 471.42 415.41 471.54 415.28 471.65 415.15 471.76 415.03 471.84 414.94 471.92 415 471.92 414.98 471.92 414.97 471.76 414.7 471.76 414.69 471.77 414.68 471.78 414.66 471.78 414.64 471.77 414.64 471.76 414.64 471.75 414.64 471.73 414.61 471.7 414.59 471.69 414.57 471.86 414.35 471.97 414.21 472.02 414.1 472.04 414.01 472.01 413.77 471.97 413.52 471.98 413.42 472 413.32 472.07 413.23 472.17 413.22 472.27 413.23 472.37 413.21 472.42 413.15 472.49 413.01 472.56 412.87 472.71 412.7 472.81 412.58 472.82 412.55 472.84 412.51 472.85 412.44 472.85 412.42 472.84 412.39 472.83 412.37 472.84 412.35 472.87 412.29 472.88 412.26 472.9 412.14 472.92 412.12 472.95 412.12 472.99 412.11 473 412.07 473.02 412 473.05 411.97 473.17 411.98 473.16 411.96 473.15 411.9 473.15 411.73 473.2 411.59 473.2 411.5 473.22 411.44 473.22 411.4 473.2 411.37 473.15 411.35 473.1 411.32 473.07 411.28 473.05 411.24 473.07 411.15 473.06 411.1 473.02 411.08 472.98 411.1 472.92 411.16 472.87 411.18 472.82 411.17 472.78 411.17 472.75 411.14 472.74 411.09 472.75 411.06 472.76 411.04 472.77 411.02 472.77 410.99 472.76 410.97 472.76 410.95 472.78 410.78 472.78 410.73 472.76 410.68 472.73 410.67 472.69 410.68 472.65 410.68 472.63 410.65 472.62 410.6 472.64 410.51 472.63 410.44 472.64 410.41 472.72 410.32 472.75 410.27 472.77 410.23 472.78 410.19 472.78 410.13 472.84 409.84 472.83 409.76 472.81 409.74 472.79 409.72 472.77 409.7 472.76 409.68 472.76 409.65 472.75 409.63 472.74 409.62 472.71 409.61 472.68 409.61 472.54 409.63 472.51 409.63 472.48 409.62 472.47 409.6 472.46 409.57 472.46 409.54 472.46 409.51 472.44 409.46 472.45 409.43 472.47 409.41 472.5 409.4 472.52 409.38 472.49 409.36 472.48 409.33 472.46 409.2 472.47 409.18 472.68 409.08 472.75 409.07 472.84 409.08 472.9 409.07 472.93 409.04 472.96 408.99 472.97 408.93 472.98 408.85 472.96 408.79 472.89 408.66 472.87 408.57 472.86 408.53 472.86 408.49 472.89 408.45 472.93 408.44 472.97 408.43 473.01 408.41 473.05 408.38 473.1 408.36 473.14 408.33 473.16 408.28 473.15 408.26 473.12 408.22 473.12 408.2 473.12 408.2 473.17 408.13 473.23 408.09 473.24 408.06 473.23 408.02 473.19 407.97 473.08 407.89 473.05 407.84 473.04 407.8 473.04 407.78 473.06 407.77 473.07 407.74 473.09 407.69 473.1 407.67 473.09 407.59 473.01 407.35 473.01 407.3 473.02 407.26 473.02 407.24 472.99 407.2 472.99 407.18 473 407.16 473.02 407.15 473.04 407.14 473.04 407.11 473.04 407.06 473.01 407 473.01 406.95 473.02 406.91 473.03 406.86 473.05 406.82 473.09 406.81 473.15 406.77 473.16 406.68 473.15 406.58 473.16 406.49 473.2 406.41 473.2 406.36 473.2 406.32 473.16 406.27 473.08 406.24 473.04 406.21 473.03 406.19 473.01 406.11 473.01 406.08 473.02 406.07 473.04 406.06 473.06 406.04 473.14 405.87 473.18 405.82 473.19 405.8 473.2 405.77 473.2 405.73 473.18 405.71 473.13 405.68 473.11 405.67 473.09 405.62 473.08 405.57 473.08 405.55 473.08 405.46 473.05 405.32 472.99 405.19 472.9 405.02 472.77 404.8 472.77 404.79 472.93 404.63 472.96 404.58 473 404.51 473.06 404.27 473.08 404.2 473.05 404.21 473.02 404.22 472.95 404.26 472.91 404.27 472.84 404.27 472.71 404.24 472.64 404.23 472.6 404.24 472.57 404.25 472.55 404.26 472.55 404.26 472.54 404.26 472.48 404.21 472.46 404.12 472.46 404.07 472.45 404.04 472.42 404.01 472.16 403.91 471.81 403.77 471.58 403.67 471.4 403.65 470.96 403.66 470.73 403.62 470.7 403.6 470.68 403.57 470.67 403.48 470.65 403.44 470.62 403.42 470.53 403.37 470.49 403.33 470.35 403.19 470.29 403.14 470.24 403.11 469.87 403.09 469.78 403.05 469.75 403.02 469.7 403.02 469.66 403.02 469.61 403.01 469.61 403 469.61 402.99 469.61 402.98 469.6 402.98 469.59 402.98 469.58 402.98 469.57 402.98 469.55 402.96 469.55 402.94 469.54 402.92 469.52 402.91 469.47 402.88 469.44 402.85 469.4 402.77 469.37 402.73 469.33 402.71 469.29 402.69 469.07 402.64 468.97 402.63 468.91 402.67 468.9 402.7 468.88 402.7 468.86 402.68 468.84 402.68 468.81 402.7 468.77 402.74 468.74 402.76 468.69 402.79 468.66 402.78 468.62 402.76 468.59 402.72 468.5 402.65 468.4 402.63 468.16 402.64 467.8 402.64 467.64 402.64 467.39 402.64 467.39 402.48 467.39 402.21 467.38 401.99 467.38 401.81 467.41 401.79 467.41 401.79 467.39 401.72 467.38 401.7 467.31 401.63 467.31 401.6 467.32 401.55 467.36 401.47 467.37 401.45 467.36 401.43 467.33 401.38 467.32 401.36 467.32 401.21 467.31 401.16 467.29 401.12 467.27 401.08 467.24 401.05 467.21 401.04 467.14 400.99 467.08 400.88 467 400.6 466.99 400.5 466.99 400.4 466.97 400.33 466.98 400.31 466.98 400.31 467.01 400.3 467.21 400.28 467.37 400.2 467.58 400.09 467.81 400.01 468 399.94 468.31 399.83 468.53 399.77 468.84 399.7 468.88 399.7 469.11 399.64 469.4 399.57 469.63 399.52 469.82 399.45 470.02 399.34 470.18 399.26 470.49 399.15 470.78 399.06 471.01 398.98 471.17 398.91 471.26 398.88 471.44 398.85 471.64 398.78 471.88 398.7 472.21 398.58 472.58 398.46 472.97 398.33 473.25 398.23 473.44 398.17 473.6 398.11 473.72 398.18 473.77 398.22 473.8 398.28 473.78 398.39 473.79 398.44 473.85 398.53 473.87 398.55 473.9 398.57 473.92 398.58 473.94 398.59 473.94 398.6 473.97 398.66 474.01 398.72 474.12 398.94 474.16 399 474.19 399.02 474.29 399.06 474.32 399.09 474.33 399.12 474.34 399.14 474.36 399.17 474.39 399.19 474.45 399.22 474.47 399.24 474.49 399.27 474.52 399.36 474.53 399.39 474.55 399.42 474.58 399.45 474.62 399.46 474.64 399.44 474.65 399.4 474.65 399.32 474.67 399.26 474.7 399.21 474.75 399.19 474.87 399.28 474.93 399.29 474.99 399.27 475.12 399.19 475.18 399.17 475.25 399.17 475.48 399.2 475.5 399.19 475.52 399.14 475.54 399.11 475.61 399.08 475.77 399.08 475.99 399 476.01 399 476.04 399 476.06 399 476.08 398.99 476.09 398.97 476.11 398.96 476.13 398.96 476.19 398.99 476.21 399.02 476.24 399.06 476.31 399.21 476.36 399.27 476.48 399.39 476.52 399.46 476.52 399.54 476.49 399.67 476.51 399.75 476.55 399.82 476.57 399.89 476.58 399.96 476.58 400.13 476.59 400.17 476.6 400.21 476.62 400.25 476.65 400.28 476.66 400.32 476.66 400.36 476.64 400.39 476.6 400.45 476.58 400.48 476.59 400.52 476.6 400.55 476.61 400.57 476.59 400.6 476.58 400.64 476.61 400.81 476.63 400.97 476.62 401.03 476.58 401.09 476.55 401.11 476.52 401.13 476.49 401.15 476.47 401.18 476.46 401.21 476.45 401.27 476.43 401.3 476.39 401.32 476.34 401.39 476.3 401.41 476.28 401.45 476.28 401.53 476.3 401.67 476.29 401.76 476.26 401.83 476.13 402.02 476.12 402.02 476.1 402.04 476.05 402.05 476.02 402.07 475.98 402.1 475.91 402.17 475.89 402.22 475.88 402.3 475.88 402.39 475.91 402.45 475.94 402.47 476.01 402.51 476.04 402.53 476.23 402.72 476.26 402.78 476.27 402.84 476.23 402.99 476.22 403.07 476.31 403.27 476.36 403.31 476.43 403.31 476.53 403.33 476.58 403.38 476.64 403.54 476.67 403.57 476.69 403.6 476.76 403.66 476.78 403.67 476.79 403.69 476.82 403.76 476.83 403.77 476.85 403.78 476.99 403.85 477.02 403.88 477.06 403.96 477.08 403.99 477.18 404.08 477.2 404.11 477.22 404.16 477.24 404.19 477.27 404.22 477.31 404.23 477.33 404.25 477.35 404.26 477.36 404.28 477.36 404.32 477.37 404.34 477.39 404.35 477.42 404.35 477.44 404.36 477.47 404.38 477.49 404.4 477.53 404.46 477.59 404.51 477.66 404.52 477.72 404.51 477.8 404.51 477.85 404.55 477.87 404.62 477.87 404.71 477.86 404.78 477.83 404.84 477.79 404.88 477.73 404.91 477.68 404.95 477.66 405.02 477.74 405.13 477.73 405.19 477.76 405.22 477.88 405.24 478.1 405.25 478.23 405.23 478.23 405.23 478.25 405.21 478.26 405.17 478.27 405.14 478.26 405.09 478.24 405 478.25 404.97 478.27 404.92 478.28 404.89 478.27 404.87 478.2 404.83 478.18 404.82 478.18 404.81 478.19 404.79 478.21 404.78 478.22 404.77 478.21 404.69 478.22 404.64 478.27 404.59 478.26 404.53 478.22 404.44 478.21 404.4 478.2 404.25 478.19 404.23 478.14 404.18 478.13 404.17 478.11 404.16 478.11 404.16 478.1 404.15 478.09 404.12 478.08 404.11 478.06 404.1 478.01 404.08 477.99 404.08 477.97 404.07 477.96 404.05 477.95 404.03 477.91 403.97 477.88 403.87 477.9 403.85 478.06 403.75 478.09 403.72 478.1 403.68 478.1 403.58 478.11 403.55 478.11 403.54 478.16 403.48 478.17 403.46 478.15 403.39 478.14 403.37 478.16 403.26 478.2 403.17 478.25 403.12 478.26 403.1 478.41 402.96 478.46 402.93 478.51 402.92 478.55 402.92 478.59 402.93 478.63 402.96 478.65 403 478.67 403.02 478.7 403.03 478.72 403.03 478.74 403.01 478.75 402.97 478.76 402.96 478.81 402.96 479.02 402.89 479.04 402.89 479.09 402.9 479.11 402.9 479.13 402.88 479.29 402.77 479.32 402.74 479.34 402.69 479.35 402.65 479.33 402.58 479.33 402.54 479.35 402.49 479.37 402.4 479.39 402.07 479.41 401.87 479.43 401.58 479.44 401.4 479.44 401.4 479.45 401.31 479.38 401.05 479.33 400.84 479.32 400.8 479.32 400.75 479.34 400.69 479.44 400.44 479.5 400.29 479.59 400.1 479.54 400.1 479.51 400.09 479.5 400.07 479.47 399.6 479.46 399.56 479.44 399.52 479.33 399.41 479.25 399.31 479.17 399.21 478.93 398.92 478.74 398.68 478.59 398.39 478.4 398.16 478.2 397.92 477.96 397.64 477.77 397.41 477.58 397.23 477.35 397.02 477.28 396.98 477.28 396.98 477.21 396.95 477.13 396.94 476.85 396.95 476.81 396.94 476.79 396.93 476.78 396.92 476.78 396.91 476.77 396.88 476.72 396.8 476.7 396.77 476.66 396.73 476.65 396.72 476.65 396.72 476.58 396.55 476.57 396.37 476.58 396.17 476.56 395.95 476.53 395.68 476.49 395.36 476.46 395.11 476.34 394.68 476.21 394.22 476.15 394.02 476.15 394.01 476.16 393.91 476.21 393.79 476.45 393.43 476.62 393.18 476.71 392.96 476.72 392.87 476.73 392.78 476.71 392.68 476.71 392.64 476.73 392.61 476.81 392.59 477.5 392.6 478.43 392.61 478.52 392.61 478.53 392.62 478.54 392.63 478.56 392.64 478.62 392.64 478.63 392.64 478.66 392.63 478.66 392.63 478.67 392.62 478.68 392.62 478.69 392.62 478.71 392.64 478.72 392.65 478.73 392.67 478.74 392.68 478.76 392.69 478.76 392.65 478.79 392.65 478.82 392.66 478.86 392.67 478.91 392.64 478.92 392.64 479.03 392.61 479.06 392.6 479.07 392.55 479.09 392.52 479.12 392.49 479.14 392.47 479.13 392.42 479.17 392.4 479.28 392.38 479.32 392.35 479.39 392.26 479.42 392.24 479.51 392.26 479.57 392.28 479.58 392.29 479.67 392.29 479.7 392.3 479.73 392.35 479.71 392.4 479.73 392.44 479.77 392.46 479.82 392.45 479.85 392.45 479.9 392.47 479.98 392.52 480 392.53 480.05 392.54 480.07 392.55 480.09 392.56 480.1 392.58 480.12 392.59 480.14 392.6 480.17 392.61 480.18 392.65 480.19 392.71 480.2 392.75 480.19 392.78 480.2 392.83 480.22 392.87 480.24 392.89 480.33 392.87 480.36 392.88 480.4 392.9 480.42 392.9 480.45 392.9 480.53 392.88 480.6 392.87 480.62 392.86 480.63 392.85 480.64 392.84 480.9 392.84 480.91 392.85 480.93 392.91 480.94 392.92 480.95 392.92 481.01 392.95 481.05 392.96 481.19 392.93 481.22 392.92 481.28 392.92 481.3 392.9 481.31 392.89 481.33 392.87 481.41 392.84 481.44 392.83 481.46 392.81 481.52 392.72 481.62 392.6 481.66 392.59 481.68 392.6 481.72 392.6 481.78 392.64 481.81 392.64 482.01 392.63 482.03 392.62 482.05 392.6 482.09 392.58 482.12 392.65 482.18 392.73 482.25 392.79 482.33 392.83 482.52 392.87 482.62 392.88 482.7 392.87 482.72 392.86 482.73 392.85 482.75 392.84 482.77 392.84 482.8 392.85 482.84 392.9 482.86 392.9 482.97 392.94 483.02 392.94 483.06 392.93 483.07 392.92 483.09 392.9 483.1 392.88 483.12 392.85 483.13 392.82 483.16 392.81 483.21 392.8 483.29 392.76 483.33 392.75 483.41 392.75 483.45 392.74 483.49 392.72 483.59 392.64 483.75 392.57 483.8 392.54 483.83 392.51 483.85 392.48 483.84 392.45 483.83 392.43 483.82 392.4 483.83 392.35 483.88 392.25 483.88 392.21 483.9 392.18 483.94 392.08 483.94 392.05 483.96 392.03 484.1 391.95 484.13 391.94 484.22 391.94 484.24 391.93 484.26 391.91 484.39 391.89 484.44 391.89 484.46 391.89 484.46 391.89 484.46 391.88 484.48 391.87 484.49 391.87 484.49 391.88 484.5 391.9 484.51 391.9 484.53 391.91 484.58 391.94 484.6 391.95 484.63 391.95 484.68 391.93 484.7 391.92 484.8 391.94 484.88 391.99 485 392.12 485.08 392.16 485.26 392.2 485.32 392.24 485.32 392.24 485.38 392.17 485.6 392.03 485.65 391.96 485.68 391.93 485.75 391.91 485.79 391.89 485.82 391.89 485.85 391.89 485.89 391.9 485.92 391.9 485.96 391.88 486.05 391.8 486.08 391.78 486.12 391.77 486.16 391.74 486.22 391.69 486.3 391.67 486.58 391.67 486.66 391.66 486.73 391.63 486.78 391.64 486.87 391.69 486.92 391.7 486.98 391.7 487.03 391.69 487.09 391.66 487.52 391.31 487.56 391.29 487.59 391.28 487.76 391.27 488.14 391.19 488.19 391.16 488.41 391.01 488.64 390.91 488.68 390.89 488.96 390.67 489.02 390.65 489.05 390.63 489.09 390.57 489.22 390.44 489.31 390.38 489.45 390.33 489.53 390.27 489.6 390.2 489.64 390.14 489.67 390.12 489.71 390.13 489.72 390.15 489.7 390.18 489.74 390.19 489.8 390.14 489.83 390.17 489.85 390.21 489.82 390.25 489.79 390.28 489.77 390.31 489.79 390.34 489.83 390.36 489.88 390.37 489.91 390.38 489.93 390.42 489.93 390.49 489.95 390.53 489.98 390.55 490.07 390.56 490.1 390.57 490.12 390.61 490.09 390.62 490 390.61 489.93 390.63 489.74 390.78 489.76 390.86 489.78 390.85 489.79 390.83 489.8 390.82 489.8 390.8 489.85 390.83 490 390.91 490.04 390.96 490 391 489.88 391.06 489.84 391.09 489.79 391.15 489.77 391.21 489.79 391.3 489.77 391.37 489.79 391.4 489.81 391.39 489.84 391.33 489.86 391.32 489.92 391.34 489.92 391.41 489.89 391.48 489.86 391.53 489.79 391.6 489.77 391.63 489.77 391.66 489.79 391.71 489.79 391.73 489.76 391.77 489.61 391.88 489.6 391.91 489.57 391.99 489.55 392.01 489.52 392.02 489.47 392.02 489.44 392.02 489.46 392.06 489.48 392.1 489.5 392.12 489.52 392.07 489.55 392.09 489.58 392.12 489.61 392.16 489.64 392.19 489.7 392.18 489.71 392.25 489.7 392.32 489.68 392.41 489.66 392.48 489.64 392.51 489.61 392.54 489.61 392.58 489.63 392.61 489.67 392.64 489.68 392.67 489.67 392.7 489.62 392.75 489.61 392.77 489.64 392.81 489.65 392.83 489.65 392.9 489.66 392.95 489.7 392.99 489.71 393 489.71 393.01 489.72 393.12 489.73 393.16 489.76 393.2 489.78 393.19 489.79 393.18 489.82 393.2 489.76 393.26 489.74 393.32 489.76 393.39 489.79 393.46 489.86 393.55 489.86 393.57 489.82 393.61 489.81 393.63 489.8 393.7 489.78 393.81 489.77 393.84 489.78 393.88 489.82 393.95 489.83 393.98 489.83 394.02 489.81 394.07 489.79 394.11 489.76 394.12 489.73 394.11 489.69 394.1 489.67 394.11 489.67 394.15 489.72 394.14 489.77 394.18 489.81 394.24 489.82 394.29 489.81 394.32 489.8 394.35 489.79 394.38 489.8 394.42 489.82 394.43 489.85 394.44 489.91 394.43 489.9 394.46 489.89 394.47 489.87 394.49 489.82 394.5 489.81 394.52 489.79 394.57 489.73 394.65 489.73 394.69 489.76 394.72 489.78 394.73 489.81 394.74 489.9 394.74 489.91 394.75 489.91 394.91 489.92 394.94 489.94 394.96 489.96 394.96 490.03 394.99 490.04 395.01 490.02 395.04 490 395.04 489.96 395 489.94 395 489.93 395.02 489.93 395.05 489.95 395.15 489.97 395.15 489.99 395.14 490.02 395.14 490.03 395.16 490.05 395.22 490.06 395.24 490.09 395.24 490.1 395.26 490.1 395.29 490.09 395.31 490.06 395.35 490.01 395.36 489.96 395.35 489.93 395.31 489.92 395.33 489.93 395.35 489.93 395.37 489.94 395.37 489.91 395.39 489.85 395.39 489.83 395.41 489.85 395.42 489.88 395.44 489.9 395.47 489.89 395.51 489.86 395.57 489.85 395.59 489.83 395.61 489.82 395.61 489.82 395.6 489.8 395.59 489.81 395.57 489.8 395.56 489.77 395.54 489.75 395.54 489.74 395.55 489.68 395.58 489.63 395.61 489.59 395.65 489.58 395.68 489.58 395.73 489.59 395.75 489.7 395.85 489.74 395.86 489.77 395.85 489.8 395.81 489.79 395.78 489.77 395.75 489.76 395.71 489.78 395.7 489.81 395.7 489.85 395.71 489.87 395.72 489.9 395.73 489.94 395.72 489.97 395.72 489.99 395.76 489.97 395.83 489.92 395.96 489.91 396.04 489.92 396.08 489.94 396.16 489.94 396.19 489.93 396.36 489.91 396.41 489.88 396.44 489.85 396.46 489.83 396.49 489.84 396.52 489.87 396.51 489.93 396.46 489.93 396.64 489.94 396.64 489.96 396.63 489.97 396.63 489.96 396.68 489.9 396.75 489.88 396.79 489.87 396.89 489.86 396.94 489.83 396.97 489.83 396.97 489.87 397 489.91 397.04 489.94 397.08 489.99 397.09 489.99 397.11 489.96 397.14 489.89 397.21 489.86 397.25 489.87 397.31 489.93 397.44 489.94 397.48 489.98 397.75 490 397.81 490.01 397.83 490.01 397.86 490.04 397.89 490.06 397.91 490.07 397.93 490.08 397.95 490.08 398.01 490.1 398.1 490.11 398.15 490.1 398.21 490.07 398.24 489.99 398.27 490.01 398.29 490.03 398.31 490.04 398.34 490.04 398.37 490.02 398.39 489.99 398.4 489.93 398.41 489.86 398.45 489.88 398.49 489.91 398.54 489.9 398.6 489.93 398.59 489.95 398.55 489.97 398.55 489.99 398.57 489.98 398.59 489.97 398.61 490 398.63 489.97 398.66 489.95 398.66 489.98 398.68 490 398.68 490.02 398.67 490.05 398.65 490.05 398.58 490.1 398.54 490.21 398.49 490.24 398.51 490.26 398.54 490.28 398.58 490.27 398.65 490.28 398.67 490.32 398.69 490.3 398.73 490.29 398.77 490.28 398.81 490.29 398.85 490.26 398.86 490.21 398.9 490.18 398.91 490.15 398.9 490.11 398.86 490.08 398.85 490.12 399.1 490.08 399.09 490.06 399.1 490.06 399.13 490.09 399.15 490.05 399.19 490.05 399.21 490.06 399.22 490.07 399.23 490.08 399.22 490.06 399.33 490.06 399.37 490.11 399.32 490.14 399.27 490.2 399.08 490.22 399.06 490.35 399 490.38 398.99 490.44 399.01 490.5 399.07 490.53 399.13 490.51 399.2 490.48 399.22 490.41 399.24 490.38 399.25 490.35 399.27 490.35 399.29 490.38 399.31 490.41 399.3 490.43 399.29 490.45 399.27 490.48 399.25 490.5 399.27 490.51 399.3 490.51 399.34 490.47 399.47 490.47 399.5 490.49 399.54 490.5 399.54 490.51 399.55 490.52 399.56 490.53 399.58 490.54 399.6 490.54 399.63 490.54 399.65 490.55 399.68 490.52 399.81 490.51 399.83 490.51 399.84 490.53 399.86 490.53 399.87 490.53 399.88 490.53 399.89 490.52 399.9 490.41 399.95 490.4 399.96 490.38 399.98 490.31 400.07 490.28 400.1 490.24 400.11 490.2 400.13 490.16 400.13 490.14 400.11 490.12 400.05 490.09 400.02 490.1 400.06 490.1 400.11 490.12 400.14 490.15 400.18 490.19 400.18 490.29 400.18 490.32 400.18 490.34 400.21 490.37 400.26 490.38 400.31 490.38 400.35 490.35 400.32 490.33 400.32 490.31 400.33 490.28 400.33 490.15 400.3 490.13 400.34 490.16 400.41 490.24 400.52 490.18 400.54 490.11 400.55 490.05 400.58 490 400.65 489.97 400.63 489.92 400.62 489.88 400.62 489.85 400.63 489.84 400.65 489.82 400.73 489.8 400.77 489.88 400.78 489.92 400.79 489.95 400.82 489.97 400.75 490.02 400.72 490.08 400.73 490.13 400.76 490.16 400.81 490.18 400.88 490.17 400.95 490.12 400.97 490.15 401.01 490.14 401.04 490.06 401.13 490.05 401.14 490.06 401.18 490.05 401.2 490.04 401.22 490.02 401.23 489.98 401.27 489.97 401.29 489.97 401.3 489.97 401.34 489.96 401.36 489.94 401.39 489.94 401.42 489.94 401.45 489.97 401.44 489.96 401.48 489.94 401.51 489.91 401.53 489.88 401.55 489.85 401.57 489.83 401.57 489.77 401.55 489.77 401.61 489.73 401.65 489.64 401.72 489.61 401.76 489.47 401.99 489.03 402.44 488.94 402.5 488.92 402.52 488.92 402.55 488.91 402.57 488.88 402.59 488.86 402.59 488.84 402.6 488.81 402.61 488.8 402.63 488.83 402.66 488.87 402.63 488.95 402.55 488.97 402.61 488.95 402.65 488.92 402.68 488.91 402.73 488.9 402.78 488.87 402.82 488.8 402.89 488.71 403.06 488.65 403.15 488.57 403.18 488.43 403.19 488.39 403.2 488.25 403.27 488.19 403.33 488.18 403.34 488.18 403.36 488.2 403.37 488.22 403.37 488.23 403.4 488.22 403.46 488.22 403.48 488.24 403.53 488.27 403.57 488.31 403.6 488.35 403.62 488.25 403.69 488.21 403.7 488.21 403.69 488.2 403.66 488.19 403.64 488.17 403.65 488.15 403.65 488.13 403.66 488.1 403.65 488.12 403.67 488.14 403.69 488.15 403.7 488.09 403.72 488.07 403.74 488.04 403.76 488.05 403.77 488.05 403.78 488.05 403.8 488.04 403.82 488 403.86 487.95 403.89 487.86 403.94 487.8 404 487.71 404.02 487.69 404.04 487.63 404.1 487.24 404.3 486.9 404.51 486.87 404.55 486.81 404.63 486.78 404.65 486.74 404.63 486.74 404.64 486.74 404.68 486.71 404.71 486.67 404.73 486.63 404.74 486.67 404.75 486.7 404.74 486.72 404.74 486.72 404.79 486.71 404.83 486.68 404.87 486.65 404.9 486.62 404.92 486.54 404.92 486.46 404.92 486.38 404.93 486.26 405.01 486.17 405.04 485.83 405.07 485.79 405.06 485.74 405 485.7 404.99 485.75 405.06 485.71 405.11 485.63 405.14 485.55 405.15 485.56 405.11 485.46 405.22 485.42 405.21 485.4 405.2 485.38 405.18 485.37 405.18 485.35 405.19 485.34 405.21 485.34 405.23 485.35 405.25 484.73 405.5 484.7 405.52 484.65 405.58 484.62 405.6 484.58 405.6 484.54 405.54 484.54 405.39 484.5 405.34 484.52 405.39 484.49 405.4 484.46 405.4 484.44 405.39 484.41 405.37 484.44 405.42 484.5 405.48 484.52 405.53 484.47 405.56 484.52 405.59 484.47 405.63 484.32 405.69 484.03 405.75 483.91 405.82 483.62 406.01 483.6 406.02 483.61 405.99 483.55 406.01 483.47 406.08 483.38 406.14 483.3 406.13 483.25 406.19 482.96 406.36 482.9 406.42 482.87 406.45 482.84 406.45 482.82 406.43 482.78 406.49 482.76 406.51 482.73 406.51 482.67 406.51 482.64 406.53 482.64 406.56 482.61 406.6 482.55 406.63 482.49 406.65 482.44 406.64 482.43 406.72 482.36 406.8 482.21 406.94 482.05 407.21 481.98 407.27 481.98 407.25 481.97 407.21 481.95 407.23 481.93 407.2 481.91 407.17 481.89 407.16 481.86 407.14 481.83 407.12 481.82 407.09 481.82 407.06 481.81 407.02 481.77 406.97 481.7 406.95 481.65 406.96 481.62 407.02 481.69 406.97 481.74 407.01 481.77 407.09 481.78 407.16 481.8 407.25 481.81 407.28 481.89 407.3 481.91 407.31 481.94 407.33 481.97 407.35 481.9 407.48 481.87 407.52 481.81 407.58 481.79 407.61 481.78 407.65 481.77 407.68 481.73 407.68 481.67 407.66 481.63 407.66 481.6 407.68 481.58 407.71 481.54 407.78 481.58 407.77 481.65 407.72 481.68 407.7 481.65 407.75 481.5 407.94 481.41 408.02 481.2 408.26 481.1 408.35 481.02 408.37 481.01 408.46 480.99 408.5 480.98 408.49 480.93 408.47 480.94 408.51 480.95 408.53 480.92 408.53 480.88 408.53 480.85 408.53 480.85 408.55 480.86 408.58 480.85 408.61 480.81 408.66 480.73 408.84 480.69 408.89 480.69 408.86 480.69 408.84 480.68 408.84 480.66 408.85 480.65 408.86 480.64 408.92 480.63 408.97 480.64 408.97 480.66 408.96 480.66 408.94 480.67 408.95 480.68 408.96 480.69 408.96 480.69 408.97 480.69 408.99 480.72 409.04 480.7 409.07 480.67 409.08 480.64 409.09 480.6 409.11 480.55 409.09 480.5 409.07 480.45 409.05 480.4 409 480.33 408.85 480.33 408.93 480.37 409.09 480.39 409.17 480.35 409.25 480.37 409.25 480.39 409.26 480.4 409.28 480.4 409.3 480.39 409.31 480.37 409.31 480.34 409.29 480.27 409.31 480.2 409.33 480.13 409.33 480.09 409.3 480.08 409.17 480.09 409.15 480.1 409.13 480.1 409.11 480.07 409.1 480.05 409.11 480.04 409.11 479.97 409.19 479.87 409.35 479.82 409.38 479.75 409.39 479.76 409.34 479.75 409.32 479.73 409.32 479.7 409.34 479.69 409.38 479.68 409.42 479.67 409.46 479.64 409.48 479.59 409.5 479.57 409.48 479.55 409.45 479.52 409.44 479.5 409.44 479.48 409.45 479.47 409.47 479.46 409.49 479.47 409.52 479.48 409.51 479.5 409.5 479.52 409.5 479.51 409.54 479.19 409.76 479.17 409.78 479.13 409.83 479.11 409.85 479.08 409.85 479.05 409.88 479 409.96 479.02 409.96 479.03 409.95 479.06 409.95 479.06 409.96 479 410 478.94 410.05 478.84 410.16 478.88 410.16 478.86 410.19 478.76 410.3 478.75 410.31 478.72 410.32 478.7 410.32 478.69 410.34 478.69 410.37 478.68 410.39 478.56 410.54 478.34 410.78 478.08 410.99 477.86 411.21 477.79 411.25 477.73 411.26 477.61 411.39 477.54 411.44 477.52 411.41 477.5 411.43 477.44 411.5 477.32 411.58 477.25 411.56 477.23 411.54 477.21 411.5 477.2 411.44 477.19 411.4 477.17 411.39 477.16 411.38 477.06 411.29 476.96 411.25 476.93 411.24 476.84 411.1 476.83 411.08 476.79 411.07 476.78 411.03 476.77 410.99 476.76 410.96 476.73 410.94 476.7 410.93 476.66 410.91 476.63 410.91 476.59 410.92 476.57 410.99 476.54 411 476.54 411.02 476.58 411.02 476.62 410.98 476.66 410.97 476.7 410.98 476.73 410.99 476.75 411.02 476.76 411.09 476.78 411.13 476.9 411.3 476.91 411.31 476.94 411.32 476.98 411.33 477 411.33 477.01 411.35 477.03 411.39 477.08 411.45 477.09 411.47 477.08 411.53 477.05 411.6 477 411.64 476.94 411.63 476.94 411.67 476.97 411.67 476.99 411.65 477.01 411.65 477.05 411.66 477.06 411.68 477.04 411.74 477.05 411.78 477.06 411.86 477.06 411.89 477.06 411.91 477.06 411.92 477.05 411.93 477.04 411.94 477.03 411.97 477.03 411.99 477.04 412 477.04 412.02 477.04 412.07 477.04 412.1 477.05 412.12 477.07 412.15 477.08 412.18 477.09 412.22 477.09 412.24 477.08 412.26 477.07 412.28 477.06 412.3 477.04 412.33 477 412.31 476.93 412.27 476.89 412.28 476.86 412.3 476.84 412.29 476.82 412.26 476.82 412.28 476.82 412.29 476.82 412.31 476.85 412.34 477.01 412.43 477.01 412.45 477 412.47 476.98 412.5 476.96 412.53 476.94 412.61 476.93 412.63 476.89 412.68 476.87 412.72 476.93 412.75 476.92 412.78 476.88 412.8 476.85 412.81 476.82 412.81 476.79 412.79 476.79 412.82 476.81 412.85 476.82 412.89 476.84 412.91 476.87 412.93 476.92 412.94 476.94 412.95 476.95 412.96 476.95 413 476.96 413.04 476.95 413.07 476.86 413.14 476.85 413.17 476.93 413.13 476.97 413.12 477.01 413.13 477.01 413.19 477.03 413.22 477.06 413.19 477.08 413.24 477.11 413.26 477.15 413.28 477.19 413.31 477.21 413.34 477.23 413.37 477.24 413.41 477.24 413.46 477.25 413.48 477.32 413.43 477.35 413.45 477.35 413.49 477.32 413.51 477.29 413.53 477.3 413.58 477.31 413.56 477.33 413.54 477.35 413.54 477.38 413.53 477.48 413.54 477.5 413.56 477.57 413.62 477.58 413.64 477.58 413.67 477.58 413.74 477.6 413.72 477.62 413.72 477.63 413.74 477.64 413.77 477.63 413.79 477.6 413.82 477.59 413.84 477.6 413.88 477.67 413.95 477.7 413.98 477.68 414.01 477.67 414.04 477.67 414.07 477.67 414.11 477.73 414.06 477.76 414.05 477.8 414.08 477.82 414.09 477.82 414.1 477.83 414.1 477.83 414.13 477.83 414.14 477.83 414.14 477.82 414.16 477.82 414.17 477.85 414.18 477.83 414.23 477.82 414.25 477.8 414.27 477.78 414.26 477.76 414.25 477.74 414.27 477.73 414.3 477.74 414.31 477.75 414.32 477.77 414.32 477.77 414.32 477.78 414.33 477.77 414.35 477.77 414.42 477.76 414.46 477.73 414.48 477.69 414.48 477.68 414.47 477.66 414.46 477.64 414.45 477.62 414.48 477.62 414.52 477.63 414.53 477.65 414.54 477.69 414.56 477.7 414.57 477.7 414.57 477.71 414.58 477.71 414.59 477.71 414.61 477.7 414.61 477.7 414.61 477.7 414.64 477.7 414.66 477.71 414.68 477.73 414.69 477.72 414.72 477.73 414.73 477.76 414.74 477.77 414.76 477.78 414.79 477.76 414.8 477.74 414.81 477.71 414.82 477.69 414.85 477.7 414.86 477.72 414.87 477.74 414.89 477.75 414.91 477.74 415.01 477.8 414.96 477.86 414.68 477.87 414.72 477.85 414.87 477.83 414.94 477.85 415.15 477.92 415.33 478.05 415.56 478.09 415.6 478.12 415.62 478.18 415.78 478.19 415.88 478.18 416.08 478.2 416.19 478.27 416.33 478.27 416.37 478.29 416.52 478.31 416.64 478.33 416.83 478.26 417.44 478.26 417.55 478.27 417.6 478.31 417.63 478.35 417.65 478.38 417.67 478.42 417.75 478.46 417.78 478.47 417.76 478.47 417.65 478.48 417.62 478.53 417.59 478.48 417.5 478.45 417.38 478.45 417.27 478.49 417.18 478.48 417.16 478.48 417.14 478.49 417.13 478.5 417.11 478.53 417.18 478.55 417.2 478.58 417.16 478.52 417.06 478.5 417.05 478.51 417.02 478.56 416.95 478.56 416.94 478.56 416.92 478.56 416.91 478.57 416.9 478.58 416.9 478.59 416.89 478.6 416.88 478.61 416.88 478.62 416.85 478.64 416.84 478.67 416.84 478.68 416.85 478.69 416.87 478.69 416.9 478.68 416.96 478.73 417.36 478.75 417.32 478.76 417.28 478.76 417.14 478.78 417.09 478.79 417.05 478.81 417.05 478.78 417.34 478.78 417.39 478.79 417.55 478.79 417.6 478.68 417.97 478.67 418.27 478.74 418.79 478.78 418.88 478.8 418.85 478.8 418.84 478.81 418.81 478.84 418.83 478.88 418.83 478.9 418.82 478.88 418.8 478.88 418.78 478.93 418.8 478.92 418.87 478.83 419.04 478.79 419.11 478.7 419.32 478.66 419.39 478.64 419.43 478.64 419.48 478.64 419.53 478.66 419.62 478.67 419.67 478.65 419.77 478.52 420.16 478.49 420.47 478.49 420.68 478.48 420.73 478.47 420.78 478.45 420.8 478.43 420.75 478.43 420.71 478.44 420.66 478.43 420.63 478.37 420.62 478.34 420.63 478.35 420.65 478.37 420.67 478.38 420.67 478.4 420.73 478.4 420.75 478.39 420.8 478.37 420.89 478.37 420.94 478.37 421.02 478.37 421.05 478.36 421.08 478.34 421.11 478.34 421.13 478.34 421.15 478.35 421.2 478.35 421.22 478.35 421.25 478.33 421.3 478.32 421.32 478.34 421.32 478.44 421.2 478.41 421.12 478.4 421.07 478.43 421.03 478.46 421.03 478.49 421.05 478.55 421.1 478.59 421.12 478.62 421.12 478.63 421.1 478.65 420.93 478.64 420.9 478.64 420.88 478.73 420.91 478.75 420.93 478.76 421.04 478.77 421.06 478.78 421.07 478.79 421.08 478.66 421.5 478.65 421.55 478.66 421.58 478.68 421.63 478.68 421.65 478.68 421.68 478.66 421.69 478.65 421.71 478.64 421.72 478.63 421.77 478.6 421.81 478.26 422.32 478.01 422.59 478 422.61 478 422.65 478 422.67 477.98 422.69 477.82 422.85 477.17 423.2 476.81 423.38 476.44 423.47 476.43 423.47 476.14 423.59 476.08 423.61 475.84 423.72 475.71 423.74 475.22 423.92 474.77 424.09 474.45 424.25 474.18 424.35 473.85 424.53 473.76 424.55 473.76 424.54 473.8 424.52 473.84 424.5 473.87 424.47 473.89 424.43 473.86 424.44 473.77 424.49 473.75 424.51 473.72 424.53 473.67 424.54 473.63 424.55 473.64 424.6 473.65 424.6 473.69 424.58 473.65 424.64 473.6 424.67 473.49 424.72 473.44 424.75 472.87 425.16 472.81 425.23 472.69 425.39 472.64 425.49 472.6 425.65 472.57 425.7 472.58 425.82 472.57 425.85 472.58 425.83 472.57 425.81 472.56 425.79 472.55 425.79 472.53 425.81 472.51 425.83 472.49 425.84 472.49 425.87 472.48 425.9 472.48 425.93 472.47 425.96 472.46 425.99 472.35 426.09 472.34 426.12 472.32 426.13 472.26 426.18 472.24 426.2 472.22 426.2 472.2 426.19 472.15 426.16 472.12 426.15 472.08 426.15 472.04 426.16 472.01 426.19 471.99 426.23 472 426.28 472.02 426.31 472.05 426.29 472.04 426.28 472.05 426.2 472.06 426.19 472.09 426.2 472.13 426.21 472.15 426.22 472.16 426.24 472.17 426.28 472.18 426.29 472.21 426.31 472.25 426.33 472.28 426.35 472.29 426.37 472.31 426.43 472.33 426.46 472.35 426.47 472.36 426.49 472.38 426.5 472.39 426.58 472.43 426.68 472.44 426.73 472.48 426.7 472.54 426.71 472.59 426.74 472.62 426.77 472.67 426.83 472.7 426.88 472.73 426.93 472.78 426.97 472.8 426.98 472.82 426.97 472.85 426.96 472.88 426.95 472.86 426.87 472.86 426.81 472.87 426.74 472.9 426.67 472.92 426.55 472.94 426.52 472.96 426.5 473.05 426.47 473.05 426.53 472.99 426.92 472.97 427.61 472.94 427.8 472.92 427.85 472.91 427.88 472.93 427.98 472.91 428.18 472.91 428.2 472.88 428.27 472.89 428.29 472.91 428.33 472.91 428.35 Z M 476.69 393.72 476.72 393.72 476.77 393.68 476.79 393.6 476.76 393.53 476.69 393.49 476.61 393.51 476.61 393.51 476.57 393.55 476.57 393.59 476.63 393.65 476.66 393.69 476.69 393.72 Z M 476.84 393.68 476.82 393.73 476.82 393.78 476.85 393.83 476.89 393.84 476.94 393.83 476.99 393.81 477.03 393.76 477.05 393.71 477.06 393.65 477.04 393.61 477 393.58 476.95 393.56 476.91 393.56 476.88 393.58 476.84 393.68 Z" fill-rule="evenodd" id="Mozambique" transform="translate(-466.9700012207031,-390.1199951171875) "/></svg>