<svg xmlns="http://www.w3.org/2000/svg" viewBox="0 0 19.95001220703125 43.959991455078125"><path d="M 617.36 345.28 617.32 345.3 617.27 345.29 617.25 345.26 617.27 345.22 617.3 345.2 617.34 345.21 617.36 345.24 617.36 345.28 Z M 617.8 344.69 617.84 344.71 617.85 344.7 617.86 344.7 617.89 344.71 617.89 344.72 617.85 344.72 617.84 344.72 617.84 344.74 617.84 344.75 617.86 344.77 617.87 344.78 617.89 344.79 617.87 344.81 617.83 344.82 617.81 344.86 617.79 344.9 617.77 344.92 617.74 344.93 617.66 344.98 617.63 344.98 617.62 345.01 617.61 345.03 617.61 345.04 617.61 345.06 617.56 345.15 617.53 345.18 617.52 345.13 617.5 345.14 617.49 345.09 617.5 345.03 617.5 345 617.51 344.98 617.52 344.92 617.55 344.91 617.56 344.9 617.57 344.88 617.58 344.87 617.59 344.87 617.6 344.85 617.61 344.83 617.61 344.81 617.63 344.8 617.69 344.77 617.75 344.71 617.8 344.69 Z M 617.67 344.67 617.65 344.74 617.65 344.56 617.64 344.55 617.62 344.52 617.61 344.5 617.62 344.47 617.64 344.45 617.64 344.43 617.63 344.42 617.63 344.4 617.67 344.4 617.73 344.43 617.77 344.44 617.77 344.45 617.76 344.46 617.76 344.46 617.75 344.46 617.74 344.47 617.74 344.48 617.74 344.49 617.75 344.51 617.72 344.53 617.69 344.54 617.68 344.57 617.67 344.67 Z M 617.03 343.77 617.05 343.77 617.07 343.77 617.08 343.78 617.09 343.8 617.11 343.84 617.1 343.85 617.09 343.86 617.07 343.86 617.05 343.86 617.07 343.9 617.08 343.91 617.03 343.93 617 343.92 616.99 343.89 617.02 343.85 617.01 343.82 617 343.78 617 343.74 617.04 343.72 617.02 343.76 617.03 343.77 Z M 617.69 343.75 617.66 343.75 617.64 343.71 617.65 343.68 617.68 343.66 617.72 343.65 617.75 343.65 617.75 343.65 617.74 343.66 617.74 343.67 617.73 343.72 617.69 343.75 Z M 618.46 342.97 618.43 343.05 618.4 343.07 618.36 343.07 618.34 343.05 618.35 343.03 618.37 343.02 618.39 343.02 618.4 343.02 618.4 342.99 618.4 342.98 618.38 342.97 618.36 342.98 618.34 342.99 618.34 342.96 618.33 342.92 618.32 342.89 618.32 342.86 618.33 342.84 618.38 342.86 618.44 342.91 618.46 342.97 Z M 617.03 342.91 616.98 342.94 616.99 342.92 617 342.9 617 342.87 616.99 342.85 617 342.79 617.04 342.76 617.08 342.76 617.13 342.77 617.1 342.83 617.07 342.88 617.03 342.91 Z M 617.73 342.76 617.73 342.8 617.74 342.84 617.75 342.88 617.77 342.91 617.8 342.93 617.83 342.96 617.83 343 617.83 343.04 617.85 343.07 617.89 343.08 617.87 343.11 617.86 343.14 617.87 343.16 617.89 343.19 617.88 343.18 617.87 343.19 617.87 343.2 617.87 343.2 617.85 343.25 617.83 343.27 617.79 343.28 617.76 343.27 617.75 343.25 617.75 343.17 617.76 343.18 617.77 343.19 617.8 343.16 617.79 343.14 617.75 343.11 617.75 343.08 617.77 343.01 617.77 342.97 617.76 342.96 617.73 342.95 617.72 342.95 617.72 342.93 617.72 342.91 617.71 342.91 617.67 342.86 617.63 342.82 617.63 342.83 617.62 342.84 617.61 342.85 617.6 342.77 617.58 342.76 617.56 342.76 617.54 342.77 617.54 342.8 617.52 342.81 617.46 342.86 617.43 342.86 617.4 342.84 617.42 342.81 617.48 342.75 617.48 342.74 617.51 342.72 617.52 342.71 617.53 342.7 617.54 342.66 617.55 342.64 617.57 342.63 617.61 342.64 617.66 342.66 617.69 342.68 617.71 342.72 617.73 342.76 Z M 618.21 342.67 618.19 342.67 618.19 342.64 618.19 342.61 618.21 342.58 618.23 342.59 618.24 342.62 618.23 342.65 618.21 342.67 Z M 618.43 342.62 618.44 342.68 618.43 342.69 618.42 342.7 618.41 342.69 618.4 342.67 618.4 342.65 618.38 342.66 618.37 342.67 618.36 342.69 618.36 342.71 618.31 342.69 618.29 342.65 618.29 342.61 618.31 342.57 618.35 342.54 618.36 342.53 618.37 342.51 618.38 342.49 618.37 342.45 618.37 342.43 618.4 342.4 618.41 342.4 618.42 342.44 618.44 342.52 618.44 342.56 618.43 342.62 Z M 617.84 342.03 617.86 342.04 617.88 342.03 617.89 342.03 617.9 342.05 617.89 342.07 617.85 342.09 617.78 342.11 617.78 342.08 617.77 342.05 617.75 342.02 617.73 342 617.72 341.99 617.75 341.98 617.79 341.97 617.86 341.97 617.84 342.02 617.84 342.03 Z M 617.86 341.45 617.84 341.51 617.83 341.5 617.82 341.51 617.82 341.52 617.81 341.53 617.81 341.54 617.79 341.52 617.76 341.48 617.75 341.46 617.74 341.48 617.73 341.49 617.73 341.51 617.74 341.53 617.7 341.53 617.68 341.54 617.69 341.56 617.72 341.57 617.7 341.58 617.67 341.59 617.65 341.59 617.62 341.58 617.6 341.57 617.6 341.56 617.6 341.53 617.62 341.53 617.64 341.53 617.66 341.52 617.68 341.5 617.67 341.48 617.66 341.43 617.65 341.41 617.65 341.39 617.67 341.37 617.69 341.36 617.71 341.35 617.7 341.33 617.69 341.32 617.68 341.31 617.68 341.29 617.68 341.27 617.71 341.25 617.73 341.2 617.74 341.2 617.76 341.19 617.77 341.19 617.77 341.16 617.75 341.12 617.75 341.1 617.76 341.05 617.83 340.93 617.84 340.83 617.85 340.8 617.88 340.8 617.91 340.85 617.94 340.91 617.95 340.95 617.94 340.97 617.93 340.98 617.91 340.98 617.9 340.99 617.9 341.01 617.9 341.08 617.88 341.17 617.87 341.22 617.89 341.26 617.86 341.32 617.86 341.45 Z M 616.07 340.82 616.08 340.84 616.05 340.83 616.03 340.83 616 340.79 616.04 340.8 616.07 340.82 Z M 618.44 340.8 618.45 340.81 618.46 340.84 618.46 340.86 618.47 340.89 618.46 340.96 618.44 341.02 618.45 341.2 618.44 341.22 618.41 341.26 618.4 341.29 618.41 341.32 618.42 341.37 618.42 341.4 618.4 341.39 618.36 341.34 618.34 341.33 618.32 341.32 618.29 341.31 618.26 341.3 618.25 341.28 618.21 341.32 618.19 341.32 618.18 341.28 618.19 341.23 618.17 341.25 618.16 341.25 618.15 341.23 618.15 341.22 618.16 341.17 618.14 341.14 618.11 341.12 618.1 341.1 618.07 341.04 618.08 341.01 618.13 341 618.12 340.98 618.08 340.95 618.07 340.93 618.08 340.91 618.09 340.89 618.1 340.89 618.12 340.88 618.13 340.88 618.14 340.87 618.15 340.85 618.12 340.85 618.1 340.85 618.08 340.85 618.07 340.84 618.06 340.82 618.11 340.81 618.2 340.82 618.24 340.82 618.23 340.81 618.23 340.8 618.22 340.79 618.25 340.79 618.31 340.8 618.34 340.8 618.39 340.78 618.42 340.79 618.44 340.8 Z M 617.35 340.91 617.36 340.95 617.42 340.94 617.41 340.97 617.4 340.99 617.38 341.01 617.36 341.02 617.37 341.03 617.38 341.04 617.38 341.06 617.37 341.08 617.41 341.12 617.42 341.14 617.43 341.17 617.38 341.14 617.36 341.12 617.36 341.11 617.34 341.1 617.31 341.05 617.27 341.03 617.26 341.01 617.29 341 617.3 340.98 617.3 340.94 617.28 340.89 617.25 340.88 617.26 340.82 617.23 340.7 617.26 340.65 617.26 340.73 617.26 340.76 617.28 340.77 617.33 340.82 617.35 340.85 617.35 340.91 Z M 616.49 340.65 616.51 340.71 616.5 340.71 616.46 340.69 616.44 340.64 616.44 340.61 616.49 340.56 616.51 340.58 616.52 340.6 616.52 340.62 616.5 340.64 616.49 340.65 Z M 617.86 340.65 617.84 340.67 617.81 340.67 617.8 340.66 617.8 340.61 617.8 340.56 617.82 340.55 617.86 340.58 617.87 340.61 617.86 340.65 Z M 617.81 340.51 617.8 340.52 617.78 340.51 617.74 340.45 617.76 340.42 617.79 340.4 617.81 340.41 617.82 340.43 617.83 340.47 617.83 340.49 617.81 340.51 Z M 618.39 340.33 618.43 340.36 618.47 340.34 618.51 340.36 618.57 340.42 618.66 340.44 618.69 340.46 618.69 340.49 618.69 340.48 618.63 340.5 618.5 340.5 618.46 340.52 618.42 340.55 618.38 340.58 618.33 340.6 618.29 340.59 618.26 340.52 618.25 340.49 618.25 340.46 618.26 340.44 618.28 340.41 618.28 340.39 618.28 340.37 618.27 340.36 618.25 340.35 618.23 340.33 618.22 340.32 618.21 340.31 618.21 340.29 618.21 340.22 618.19 340.15 618.19 340.12 618.21 340.09 618.22 340.12 618.28 340.17 618.33 340.23 618.36 340.31 618.39 340.33 Z M 617.45 339.9 617.45 339.92 617.47 339.91 617.5 339.9 617.53 339.9 617.54 339.92 617.54 340.01 617.54 340.03 617.52 340 617.49 339.97 617.46 339.96 617.42 339.99 617.4 339.98 617.4 339.98 617.4 339.97 617.36 339.92 617.32 339.88 617.31 339.85 617.32 339.81 617.34 339.75 617.36 339.71 617.39 339.69 617.44 339.69 617.47 339.7 617.5 339.72 617.51 339.76 617.51 339.78 617.5 339.83 617.49 339.85 617.48 339.86 617.46 339.88 617.45 339.9 Z M 617.45 339.52 617.43 339.53 617.41 339.53 617.4 339.53 617.38 339.52 617.38 339.53 617.34 339.6 617.32 339.62 617.3 339.63 617.28 339.64 617.26 339.65 617.25 339.66 617.23 339.74 617.21 339.7 617.2 339.69 617.19 339.65 617.17 339.65 617.13 339.66 617.11 339.65 617.12 339.62 617.15 339.59 617.17 339.57 617.16 339.54 617.13 339.56 617.12 339.57 617.11 339.58 617.1 339.58 617.1 339.52 617.13 339.49 617.18 339.48 617.25 339.44 617.27 339.44 617.29 339.45 617.27 339.47 617.25 339.49 617.24 339.5 617.25 339.52 617.26 339.54 617.29 339.53 617.31 339.53 617.33 339.54 617.33 339.51 617.33 339.49 617.33 339.47 617.37 339.45 617.39 339.42 617.39 339.4 617.4 339.38 617.43 339.39 617.46 339.43 617.47 339.48 617.45 339.52 Z M 618.36 339.42 618.33 339.43 618.3 339.42 618.28 339.39 618.32 339.23 618.34 339.19 618.37 339.23 618.38 339.26 618.37 339.39 618.36 339.42 Z M 617.86 339.21 617.81 339.23 617.76 339.2 617.74 339.18 617.74 339.16 617.75 339.1 617.76 339.09 617.77 339.09 617.79 339.08 617.8 339.07 617.8 339.05 617.82 339.06 617.83 339.08 617.83 339.09 617.88 339.16 617.86 339.21 Z M 616.93 339.08 616.9 339.13 616.9 339.12 616.9 339.12 616.89 339.11 616.88 339.11 616.88 339.09 616.88 339.09 616.87 339.09 616.86 339.09 616.86 339.07 616.87 339.06 616.86 339.05 616.85 339.04 616.84 339.02 616.85 339.01 616.87 339 616.89 339 616.9 339 616.91 339.04 616.92 339.06 616.93 339.08 Z M 618.12 339.06 618.18 339.15 618.18 339.09 618.2 339.02 618.23 338.98 618.27 339.03 618.28 339.09 618.28 339.18 618.26 339.26 618.24 339.31 618.1 339.53 618.01 339.61 617.9 339.58 617.92 339.53 617.93 339.52 617.94 339.47 617.97 339.38 617.98 339.33 617.97 339.31 617.95 339.28 617.95 339.25 617.94 339.24 617.93 339.23 617.94 339.22 617.96 339.2 617.97 339.19 617.97 339.18 617.93 339.1 617.9 339 617.9 338.89 617.93 338.8 617.97 338.83 618.09 338.86 618.13 338.9 618.13 338.93 618.12 339.02 618.12 339.06 Z M 616.93 338.62 616.91 338.62 616.87 338.6 616.87 338.56 616.88 338.53 616.91 338.53 616.93 338.56 616.94 338.6 616.93 338.62 Z M 617.89 337.9 617.91 337.9 617.92 337.89 617.94 337.88 617.96 337.9 617.98 337.92 617.97 337.94 617.95 337.96 617.94 337.98 617.92 337.99 617.91 338 617.9 338.02 617.9 338.04 617.9 338.12 617.93 338.21 617.93 338.26 617.9 338.29 617.9 338.24 617.87 338.19 617.87 338.15 617.86 338.1 617.83 337.96 617.78 337.82 617.77 337.77 617.76 337.73 617.77 337.63 617.78 337.6 617.81 337.61 617.83 337.64 617.87 337.87 617.89 337.9 Z M 617.07 336.32 617.05 336.32 617.04 336.28 617.04 336.21 617.05 336.16 617.08 336.14 617.1 336.16 617.08 336.19 617.07 336.23 617.07 336.32 Z M 607.03 335.65 606.98 335.68 607 335.51 607.01 335.48 607.02 335.48 607.03 335.51 607.04 335.61 607.03 335.65 Z M 607.71 333.85 607.68 333.87 607.65 333.87 607.67 333.84 607.69 333.8 607.71 333.77 607.76 333.75 607.76 333.76 607.74 333.8 607.71 333.85 Z M 616.5 332.37 616.49 332.4 616.47 332.36 616.46 332.2 616.47 332.21 616.48 332.23 616.49 332.24 616.49 332.26 616.51 332.3 616.51 332.33 616.5 332.37 Z M 610.15 331.73 610.09 331.74 610.02 331.73 609.97 331.7 609.97 331.68 610.02 331.65 610.05 331.6 610.1 331.51 610.16 331.42 610.19 331.39 610.2 331.42 610.2 331.42 610.21 331.46 610.23 331.52 610.23 331.55 610.22 331.58 610.18 331.64 610.15 331.73 Z M 609.28 331.63 609.26 331.63 609.26 331.62 609.29 331.56 609.27 331.48 609.21 331.34 609.23 331.26 609.29 331.22 609.37 331.19 609.44 331.13 609.47 331.09 609.5 331.02 609.52 330.99 609.58 330.92 609.72 330.76 609.79 330.7 609.83 330.76 609.85 330.87 609.82 330.99 609.76 331.09 609.65 331.24 609.63 331.25 609.59 331.27 609.47 331.31 609.44 331.33 609.43 331.34 609.43 331.36 609.43 331.38 609.43 331.4 609.4 331.43 609.36 331.47 609.33 331.49 609.34 331.53 609.33 331.56 609.28 331.63 Z M 616.28 330.76 616.23 330.81 616.16 330.79 616.15 330.68 616.12 330.65 616.03 330.58 616.06 330.5 616.09 330.48 616.09 330.43 616.08 330.37 616.06 330.33 616.04 330.29 616.02 330.26 616.02 330.24 616.03 330.22 616.04 330.21 616.05 330.2 616.04 330.17 616.06 330.14 616.09 330.12 616.13 330.1 616.17 330.09 616.26 330.14 616.31 330.15 616.36 330.16 616.37 330.2 616.37 330.24 616.32 330.31 616.32 330.35 616.33 330.44 616.32 330.49 616.31 330.51 616.3 330.53 616.28 330.55 616.28 330.58 616.28 330.6 616.27 330.68 616.28 330.76 Z M 607.67 324.64 607.72 324.65 607.8 324.64 607.81 324.65 607.82 324.71 607.8 324.78 607.8 324.8 607.81 324.83 607.83 324.88 607.83 324.91 607.83 324.96 607.81 325.02 607.77 325.06 607.73 325.09 607.69 325.1 607.63 325.09 607.58 325.08 607.56 325.07 607.55 325.04 607.52 325.01 607.47 324.96 607.25 324.71 607.24 324.69 607.22 324.63 607.43 324.61 607.48 324.59 607.5 324.56 607.53 324.55 607.57 324.6 607.62 324.63 607.64 324.64 607.67 324.64 Z M 607.93 323.2 607.97 323.24 608 323.22 608.05 323.21 608.1 323.22 608.14 323.25 608.18 323.28 608.27 323.33 608.3 323.37 608.31 323.4 608.31 323.45 608.29 323.49 608.26 323.51 608.23 323.53 608.18 323.6 608.15 323.63 608.14 323.63 608.14 323.64 608.12 323.64 608.11 323.64 608.1 323.62 608.1 323.61 608.09 323.61 608.06 323.62 608.06 323.64 608.07 323.66 608.07 323.68 608.05 323.69 608.02 323.69 607.98 323.69 607.93 323.69 607.92 323.69 607.89 323.67 607.87 323.64 607.81 323.56 607.8 323.53 607.8 323.51 607.78 323.48 607.77 323.45 607.77 323.45 607.76 323.44 607.76 323.44 607.76 323.42 607.76 323.41 607.77 323.41 607.78 323.41 607.79 323.4 607.77 323.36 607.74 323.34 607.66 323.32 607.63 323.3 607.61 323.27 607.57 323.19 607.6 323.19 607.61 323.18 607.6 323.16 607.59 323.14 607.68 323.03 607.69 323.03 607.71 323.04 607.75 323.04 607.77 323.05 607.79 323.06 607.8 323.08 607.81 323.1 607.82 323.12 607.93 323.2 Z M 607.3 322.56 607.28 322.6 607.16 322.5 607.13 322.44 607.05 322.19 607.04 322.11 607.09 322.12 607.13 322.15 607.16 322.17 607.17 322.19 607.18 322.2 607.19 322.22 607.22 322.24 607.26 322.27 607.27 322.3 607.26 322.41 607.27 322.45 607.3 322.52 607.3 322.56 Z M 606.21 322.41 606.19 322.41 606.18 322.36 606.17 322.26 606.15 322.22 606.12 322.18 605.99 321.92 605.98 321.88 605.97 321.87 605.96 321.86 605.95 321.85 605.95 321.83 605.95 321.8 605.97 321.79 605.98 321.8 605.99 321.81 606.03 321.84 606.05 321.85 606.06 321.87 606.07 321.89 606.07 321.92 606.08 321.95 606.18 322.22 606.2 322.31 606.21 322.41 Z M 624.24 318.34 624.24 318.39 624.23 318.42 624.2 318.44 623.89 318.69 623.68 318.8 623.65 318.81 623.58 318.89 623.55 318.91 623.47 318.94 623.42 318.95 623.38 318.93 623.36 318.92 623.34 318.91 623.32 318.91 623.3 318.91 623.27 318.91 623.27 318.93 623.27 318.96 623.27 318.99 623.19 319.27 623.08 319.49 623.05 319.52 623.01 319.55 622.91 319.57 622.87 319.59 622.9 319.65 622.9 319.67 622.89 319.68 622.85 319.71 622.84 319.72 622.84 319.78 622.81 319.87 622.81 319.92 622.85 319.95 623.05 319.91 623.11 319.93 623.11 319.94 623.06 320 623.01 320.03 622.99 320.04 622.93 320.08 622.86 320.1 622.8 320.11 622.71 320.08 622.52 320.05 622.48 320.06 622.45 320.09 622.42 320.12 622.4 320.15 622.31 320.18 622.28 320.21 622.22 320.28 622.16 320.33 622.14 320.36 622.13 320.4 622.12 320.43 622.07 320.5 622.05 320.54 622.05 320.57 622.02 320.63 622 320.71 621.97 320.92 621.95 321 621.94 321.05 621.93 321.09 621.91 321.12 621.89 321.15 621.88 321.18 621.88 321.22 621.89 321.26 621.79 321.19 621.77 321.17 621.76 321.15 621.75 321.13 621.72 321.11 621.69 321.1 621.66 321.1 621.64 321.09 621.61 321.06 621.59 321.04 621.58 321.02 621.58 321 621.56 320.98 621.54 320.96 621.53 320.96 621.52 320.96 621.4 320.98 621.35 321 621.31 321.02 621.28 321.06 621.25 321.14 621.23 321.18 621.19 321.22 621.16 321.23 621.07 321.23 621.02 321.24 620.94 321.27 620.9 321.28 620.87 321.28 620.84 321.25 620.82 321.25 620.8 321.24 620.76 321.25 620.74 321.25 620.56 321.19 620.46 321.12 620.43 321.11 620.38 321.12 620.4 321.16 620.48 321.25 620.5 321.29 620.53 321.43 620.6 321.5 620.62 321.54 620.6 321.6 620.58 321.64 620.58 321.64 620.56 321.66 620.53 321.67 620.5 321.7 620.43 321.76 620.16 321.85 620.11 321.86 620.06 321.83 619.97 321.76 619.94 321.74 619.84 321.72 619.8 321.71 619.71 321.73 619.61 321.76 619.53 321.83 619.49 321.91 619.46 322.07 619.47 322.09 619.48 322.13 619.48 322.15 619.47 322.17 619.46 322.18 619.45 322.19 619.45 322.22 619.46 322.27 619.47 322.32 619.47 322.36 619.45 322.42 619.42 322.47 619.39 322.5 619.31 322.53 619.23 322.59 619.19 322.6 619.15 322.53 619.12 322.51 619.09 322.49 619.02 322.46 618.89 322.56 618.85 322.57 618.66 322.6 618.62 322.62 618.6 322.63 618.56 322.68 618.54 322.69 618.49 322.7 618.45 322.72 618.43 322.74 618.42 322.76 618.41 322.76 618.38 322.74 618.35 322.72 618.34 322.7 618.32 322.69 618.29 322.69 618.29 322.69 618.21 322.73 618.11 322.74 618 322.73 617.91 322.73 617.82 322.77 617.76 322.79 617.72 322.76 617.71 322.73 617.72 322.69 617.71 322.66 617.69 322.65 617.61 322.63 617.53 322.55 617.48 322.52 617.42 322.53 617.39 322.52 617.37 322.48 617.33 322.45 617.29 322.46 617.27 322.5 617.24 322.65 617.25 322.69 617.26 322.78 617.26 322.82 617.25 322.85 617.23 322.85 617.21 322.85 617.19 322.86 617.17 322.88 617.14 322.92 617.12 322.93 616.98 323 616.94 323.01 616.9 323.01 616.88 323.04 616.88 323.09 616.88 323.13 616.89 323.16 616.9 323.17 616.9 323.19 616.88 323.22 616.86 323.25 616.79 323.31 616.72 323.41 616.72 323.43 616.73 323.47 616.74 323.5 616.75 323.55 616.78 323.6 616.8 323.64 616.79 323.68 616.76 323.69 616.74 323.69 616.72 323.69 616.71 323.72 616.72 323.74 616.78 323.79 616.8 323.81 616.82 323.85 616.82 323.89 616.81 324.08 616.8 324.11 616.77 324.15 616.63 324.25 616.61 324.3 616.59 324.39 616.58 324.42 616.54 324.46 616.5 324.49 616.47 324.51 616.48 324.54 616.53 324.59 616.59 324.63 616.61 324.65 616.62 324.68 616.61 324.74 616.61 324.76 616.64 324.85 616.65 324.89 616.65 324.94 616.66 325.03 616.68 325.12 616.7 325.22 616.68 325.31 616.67 325.34 616.66 325.34 616.65 325.34 616.55 325.37 616.43 325.36 616.39 325.38 616.23 325.48 616.15 325.52 616.04 325.52 615.99 325.53 615.96 325.53 615.94 325.51 615.93 325.49 615.92 325.47 615.88 325.4 615.86 325.39 615.84 325.39 615.8 325.38 615.81 325.41 615.86 325.45 615.88 325.5 615.89 325.53 615.94 325.64 616 325.73 616.01 325.78 616.01 325.83 616.02 325.89 616.05 325.94 616.1 325.98 616.14 326.02 616.19 326.05 616.21 326.03 616.22 326.01 616.26 325.9 616.26 325.89 616.29 325.89 616.4 325.93 616.43 325.95 616.44 325.99 616.44 326.03 616.43 326.06 616.39 326.08 616.39 326.1 616.41 326.15 616.52 326.31 616.53 326.32 616.54 326.34 616.54 326.36 616.54 326.38 616.56 326.43 616.57 326.45 616.56 326.46 616.55 326.49 616.55 326.5 616.56 326.52 616.56 326.52 616.57 326.52 616.58 326.52 616.61 326.54 616.62 326.55 616.62 326.58 616.66 326.65 616.67 326.67 616.67 326.68 616.68 326.71 616.69 326.73 616.68 326.74 616.67 326.75 616.61 326.79 616.55 326.9 616.54 326.94 616.57 327.05 616.52 327.05 616.53 327.09 616.56 327.11 616.58 327.14 616.59 327.17 616.61 327.19 616.66 327.24 616.68 327.26 616.68 327.29 616.68 327.31 616.69 327.34 616.7 327.37 616.72 327.4 617.03 327.69 617.09 327.74 617.12 327.77 617.17 327.79 617.2 327.8 617.21 327.83 617.22 327.86 617.27 327.94 617.3 328 617.31 328.04 617.34 328.07 617.37 328.08 617.4 328.09 617.43 328.11 617.44 328.14 617.44 328.17 617.43 328.22 617.44 328.25 617.46 328.27 617.65 328.45 617.68 328.47 617.72 328.51 617.8 328.62 617.85 328.66 617.83 328.68 617.82 328.7 617.83 328.72 617.89 328.72 617.89 328.74 617.88 328.76 617.87 328.77 617.9 328.82 617.93 328.85 617.97 328.86 618.08 328.86 618.12 328.88 618.16 328.9 618.2 328.94 618.22 328.98 618.26 329.05 618.29 329.08 618.3 329.11 618.3 329.15 618.31 329.19 618.34 329.2 618.36 329.22 618.38 329.25 618.4 329.31 618.37 329.29 618.34 329.29 618.33 329.3 618.32 329.33 618.33 329.36 618.35 329.37 618.37 329.38 618.39 329.4 618.38 329.42 618.35 329.45 618.32 329.47 618.29 329.48 618.26 329.52 618.24 329.57 618.25 329.61 618.31 329.66 618.32 329.68 618.34 329.75 618.37 329.79 618.45 329.84 618.48 329.89 618.49 329.91 618.49 329.93 618.49 329.95 618.48 329.98 618.48 330 618.5 330.02 618.63 330.2 618.65 330.25 618.65 330.27 618.63 330.32 618.63 330.34 618.66 330.41 618.69 330.57 618.7 330.61 618.75 330.64 618.78 330.61 618.85 330.51 618.98 330.41 619.01 330.35 619.03 330.26 619.05 330.22 619.09 330.18 619.1 330.26 619.14 330.3 619.2 330.33 619.23 330.39 619.24 330.43 619.21 330.53 619.2 330.64 619.19 330.67 619.13 330.75 619.1 330.79 619.09 330.83 619.08 330.88 619.09 330.94 619.07 330.96 619.02 331.01 619 331.03 618.97 331.03 618.95 331.02 618.94 331.01 618.91 330.99 618.78 330.98 618.74 330.98 618.69 331 618.67 331.04 618.66 331.08 618.63 331.13 618.61 331.15 618.59 331.16 618.57 331.16 618.54 331.16 618.52 331.15 618.49 331.14 618.47 331.14 618.45 331.16 618.45 331.19 618.51 331.27 618.53 331.32 618.52 331.36 618.49 331.45 618.5 331.5 618.51 331.6 618.51 331.64 618.44 331.87 618.43 331.93 618.44 332.01 618.44 332.05 618.44 332.18 618.49 332.52 618.49 332.63 618.47 332.74 618.42 332.81 618.41 332.76 618.38 332.72 618.33 332.7 618.29 332.68 618.24 332.7 618.21 332.71 618.13 332.73 618.11 332.74 618.11 332.76 618.12 332.8 618.12 332.82 618.11 332.83 618.09 332.84 618.08 332.84 618.08 332.85 618.07 332.86 618.07 332.88 618.08 332.88 618.09 332.89 618.1 332.9 618.11 332.91 618.11 332.95 618.1 332.96 618.09 332.97 618.05 332.95 617.98 332.91 617.94 332.89 617.89 332.88 617.86 332.89 617.78 333 617.75 333.03 617.71 333.05 617.69 333.05 617.63 333.05 617.63 333.07 617.63 333.08 617.64 333.11 617.66 333.14 617.65 333.18 617.6 333.26 617.59 333.31 617.61 333.36 617.61 333.36 617.67 333.43 617.67 333.43 617.69 333.48 617.68 333.51 617.67 333.53 617.66 333.55 617.66 333.57 617.66 333.58 617.67 333.6 617.71 333.68 617.72 333.73 617.72 333.81 617.73 333.86 617.73 333.87 617.76 333.89 617.76 333.91 617.76 333.92 617.76 333.95 617.77 334 617.89 334.19 618.16 334.45 618.19 334.49 618.21 334.54 618.22 334.59 618.24 334.63 618.26 334.64 618.29 334.65 618.45 334.97 618.55 335.1 618.57 335.11 618.6 335.13 618.61 335.14 618.65 335.15 618.66 335.15 618.68 335.17 618.7 335.21 618.72 335.22 618.75 335.22 618.78 335.21 618.8 335.21 618.85 335.32 618.9 335.37 619.17 335.57 619.21 335.59 619.27 335.61 619.31 335.63 619.33 335.67 619.33 335.72 619.35 335.76 619.42 335.85 619.44 335.89 619.47 335.94 619.49 335.97 619.56 336.02 619.57 336.03 619.58 336.07 619.59 336.08 619.6 336.09 619.63 336.09 619.64 336.1 619.65 336.12 619.65 336.14 619.65 336.15 619.65 336.18 619.65 336.22 619.67 336.33 619.69 336.36 619.76 336.43 619.78 336.45 619.79 336.47 619.79 336.53 619.78 336.58 619.79 336.77 619.87 337.12 619.87 337.17 619.86 337.28 619.86 337.32 619.86 337.35 619.86 337.37 619.84 337.39 619.83 337.41 619.83 337.44 619.86 337.52 619.87 337.57 619.87 337.61 619.86 337.61 619.83 337.64 619.75 337.65 619.7 337.66 619.68 337.7 619.68 337.75 619.68 337.8 619.68 337.85 619.66 337.91 619.65 337.96 619.66 338 619.71 338.04 619.74 338.06 619.78 338.1 619.82 338.15 619.82 338.19 619.81 338.21 619.8 338.23 619.79 338.26 619.79 338.29 619.79 338.31 619.82 338.37 619.83 338.44 619.84 338.47 619.86 338.49 619.9 338.53 619.92 338.56 619.93 338.61 619.92 338.65 619.92 338.69 619.95 338.73 619.97 338.74 620.02 338.75 620.04 338.76 620.05 338.78 620.06 338.83 620.06 338.84 620.08 338.86 620.14 338.87 620.15 338.89 620.17 338.91 620.19 338.94 620.21 338.96 620.32 339.02 620.34 339.05 620.35 339.07 620.35 339.1 620.35 339.15 620.35 339.2 620.34 339.22 620.31 339.27 620.31 339.3 620.32 339.34 620.37 339.43 620.38 339.48 620.39 339.61 620.4 339.65 620.41 339.68 620.44 339.72 620.46 339.74 620.46 339.77 620.46 339.81 620.46 339.83 620.47 339.86 620.49 339.9 620.5 339.92 620.5 339.95 620.48 339.97 620.46 339.99 620.44 340.01 620.45 340.05 620.48 340.06 620.61 340.02 620.63 340.02 620.65 340.03 620.66 340.05 620.65 340.07 620.65 340.09 620.64 340.12 620.61 340.22 620.6 340.29 620.63 340.32 620.68 340.33 620.71 340.36 620.72 340.4 620.72 340.44 620.69 340.53 620.68 340.58 620.69 340.63 620.72 340.66 620.76 340.7 620.8 340.73 620.84 340.74 620.85 340.76 620.81 340.91 620.8 340.96 620.65 341.15 620.63 341.17 620.53 341.18 620.48 341.19 620.45 341.21 620.43 341.25 620.42 341.3 620.43 341.39 620.42 341.43 620.4 341.48 620.37 341.51 620.31 341.58 620.29 341.61 620.27 341.67 620.27 341.71 620.26 341.75 620.17 341.84 620.15 341.87 620.12 341.96 620.09 342.01 620.02 342.1 619.99 342.15 619.92 342.35 619.91 342.37 619.86 342.38 619.84 342.4 619.82 342.42 619.8 342.46 619.79 342.48 619.76 342.5 619.75 342.52 619.66 342.56 619.62 342.6 619.61 342.62 619.59 342.69 619.57 342.71 619.55 342.71 619.53 342.7 619.5 342.69 619.47 342.69 619.46 342.68 619.45 342.69 619.43 342.71 619.42 342.73 619.41 342.75 619.41 342.78 619.4 342.8 619.41 342.83 619.43 342.87 619.43 342.9 619.42 342.95 619.41 342.97 619.39 342.99 619.38 342.99 619.3 343.02 619.28 343.02 619.26 343.01 619.24 343.01 619.21 343.02 619.19 343.04 619.18 343.07 619.17 343.09 619.16 343.11 619.14 343.11 619.09 343.11 619.07 343.12 619.03 343.16 618.93 343.29 618.91 343.34 618.89 343.44 618.9 343.46 618.94 343.5 618.96 343.53 618.99 343.67 618.99 343.71 618.95 343.8 618.93 343.91 618.89 344.05 618.87 344.05 618.86 344.06 618.85 344.08 618.83 344.13 618.79 344.24 618.78 344.33 618.76 344.36 618.71 344.42 618.66 344.48 618.54 344.74 618.48 344.83 618.44 344.86 618.42 344.84 618.42 344.82 618.4 344.78 618.39 344.77 618.39 344.74 618.39 344.7 618.39 344.68 618.37 344.6 618.37 344.5 618.33 344.43 618.32 344.4 618.32 344.39 618.32 344.37 618.36 344.28 618.37 344.25 618.38 344.14 618.4 344.06 618.4 344.02 618.37 343.88 618.33 343.82 618.33 343.77 618.34 343.68 618.33 343.58 618.26 343.42 618.25 343.32 618.25 343.23 618.26 343.2 618.29 343.19 618.34 343.19 618.37 343.21 618.4 343.28 618.43 343.25 618.43 343.22 618.41 343.19 618.39 343.17 618.41 343.16 618.44 343.16 618.46 343.18 618.48 343.2 618.5 343.17 618.51 343.11 618.53 343.08 618.56 343.03 618.57 343 618.56 342.96 618.58 342.96 618.6 342.95 618.62 342.94 618.63 342.93 618.61 342.92 618.55 342.91 618.53 342.9 618.52 342.89 618.52 342.87 618.52 342.86 618.59 342.84 618.62 342.81 618.64 342.78 618.67 342.77 618.68 342.78 618.7 342.8 618.73 342.8 618.73 342.8 618.76 342.79 618.79 342.78 618.8 342.79 618.81 342.76 618.82 342.72 618.82 342.68 618.81 342.65 618.83 342.63 618.82 342.61 618.78 342.59 618.77 342.57 618.77 342.55 618.79 342.54 618.8 342.53 618.82 342.52 618.83 342.49 618.83 342.46 618.81 342.42 618.8 342.37 618.76 342.38 618.73 342.37 618.69 342.3 618.79 342.27 618.84 342.24 618.86 342.2 618.86 342.13 618.89 342.06 618.9 342.01 618.91 342 618.92 341.99 618.89 341.95 618.84 341.84 618.83 341.81 618.83 341.77 618.85 341.73 618.79 341.74 618.78 341.72 618.8 341.64 618.82 341.6 618.86 341.58 618.95 341.57 618.93 341.54 618.93 341.45 618.91 341.42 618.89 341.41 618.85 341.43 618.83 341.42 618.82 341.4 618.84 341.36 618.83 341.34 618.86 341.3 618.87 341.27 618.86 341.19 618.86 341.15 618.88 341.1 618.9 341.06 618.94 341.06 618.96 341.05 618.98 341.06 619 341.07 619.02 341.08 619.04 341.07 619.05 341.05 619.05 341.02 619.06 341 619.09 341 619.13 341 619.17 341.02 619.19 341.03 619.21 341.03 619.18 340.97 619.02 340.94 618.97 340.9 618.99 340.84 619.03 340.79 619.06 340.74 619.03 340.68 619.04 340.72 619.03 340.75 619.01 340.76 618.99 340.79 618.94 340.88 618.92 340.88 618.88 340.88 618.88 340.89 618.87 340.89 618.84 340.92 618.84 340.93 618.81 340.94 618.8 340.96 618.8 341 618.79 341.03 618.77 341.05 618.75 341.06 618.73 341.05 618.67 341.02 618.6 340.97 618.59 340.95 618.58 340.93 618.57 340.9 618.57 340.88 618.58 340.86 618.6 340.82 618.62 340.81 618.63 340.81 618.63 340.81 618.63 340.79 618.57 340.79 618.61 340.74 618.62 340.73 618.63 340.72 618.65 340.72 618.67 340.72 618.68 340.73 618.7 340.69 618.71 340.65 618.74 340.62 618.8 340.62 618.77 340.59 618.73 340.59 618.63 340.62 618.45 340.62 618.47 340.57 618.51 340.55 618.62 340.56 618.66 340.55 618.71 340.52 618.74 340.5 618.76 340.45 618.79 340.44 618.82 340.43 618.83 340.43 618.83 340.35 618.83 340.33 618.81 340.29 618.8 340.26 618.79 340.24 618.81 340.2 618.71 340.21 618.69 340.19 618.66 340.17 618.64 340.14 618.64 340.12 618.65 340.09 618.64 340.07 618.63 340.05 618.63 340.02 618.65 340 618.68 340 618.73 339.99 618.73 339.97 618.69 339.97 618.71 339.94 618.78 339.91 618.81 339.88 618.82 339.86 618.81 339.83 618.79 339.81 618.78 339.8 618.7 339.81 618.65 339.84 618.61 339.87 618.56 339.91 618.54 339.9 618.5 339.89 618.48 339.88 618.45 339.84 618.43 339.8 618.43 339.76 618.46 339.72 618.49 339.69 618.54 339.68 618.73 339.63 618.78 339.61 618.8 339.56 618.78 339.53 618.75 339.5 618.68 339.48 618.62 339.42 618.61 339.41 618.58 339.4 618.57 339.38 618.59 339.33 618.59 339.28 618.6 339.25 618.63 339.24 618.68 339.23 618.76 339.23 618.79 339.22 618.8 339.21 618.81 339.19 618.79 339.18 618.77 339.18 618.74 339.16 618.73 339.15 618.7 339.15 618.68 339.15 618.65 339.15 618.63 339.13 618.61 339.09 618.63 339.04 618.66 338.99 618.68 338.94 618.68 338.93 618.7 338.94 618.72 338.94 618.73 338.94 618.72 338.92 618.71 338.89 618.71 338.82 618.73 338.8 618.74 338.77 618.76 338.76 618.77 338.74 618.77 338.71 618.76 338.7 618.7 338.72 618.67 338.71 618.66 338.7 618.65 338.69 618.66 338.67 618.68 338.66 618.7 338.67 618.73 338.66 618.74 338.64 618.72 338.63 618.62 338.64 618.6 338.62 618.6 338.59 618.61 338.6 618.62 338.6 618.64 338.58 618.66 338.58 618.67 338.57 618.68 338.55 618.64 338.36 618.62 338.35 618.57 338.29 618.54 338.27 618.56 338.22 618.58 338.2 618.59 338.19 618.59 338.18 618.56 338.1 618.53 338.05 618.53 338.03 618.52 337.94 618.52 337.92 618.54 337.9 618.53 337.83 618.52 337.67 618.49 337.63 618.46 337.62 618.34 337.53 618.33 337.44 618.32 337.42 618.3 337.45 618.29 337.43 618.28 337.4 618.28 337.38 618.28 337.36 618.25 337.29 618.25 337.25 618.28 337.23 618.28 337.22 618.28 337.2 618.28 337.16 618.26 337.17 618.25 337.19 618.24 337.23 618.24 337.19 618.23 337.16 618.22 337.13 618.21 337.11 618.2 337.1 618.18 337.09 618.17 337.08 618.16 337.06 618.16 337.04 618.18 337.02 618.19 337.01 618.18 336.98 618.13 336.91 618.11 336.86 618.08 336.84 618.05 336.82 618.03 336.81 618.03 336.79 618.02 336.77 617.98 336.74 617.98 336.69 617.9 336.57 617.87 336.52 617.89 336.53 617.9 336.5 617.85 336.49 617.8 336.49 617.78 336.47 617.77 336.4 617.79 336.32 617.8 336.28 617.79 336.25 617.78 336.22 617.78 336.19 617.8 336.16 617.78 336.14 617.75 336.01 617.75 335.91 617.75 335.89 617.74 335.87 617.74 335.85 617.75 335.83 617.75 335.82 617.73 335.8 617.7 335.76 617.67 335.72 617.66 335.68 617.65 335.68 617.64 335.71 617.63 335.75 617.63 335.78 617.64 335.79 617.67 335.83 617.68 335.84 617.67 335.91 617.66 335.93 617.64 335.97 617.63 336 617.67 336.08 617.68 336.12 617.67 336.17 617.65 336.24 617.63 336.43 617.66 336.54 617.67 336.58 617.66 336.62 617.65 336.66 617.64 336.67 617.63 336.68 617.62 336.69 617.61 336.72 617.61 336.75 617.61 336.77 617.61 336.81 617.64 336.84 617.65 336.86 617.63 336.87 617.61 336.87 617.6 336.86 617.57 336.83 617.57 336.85 617.56 336.86 617.55 336.87 617.55 336.85 617.55 336.82 617.55 336.79 617.53 336.78 617.52 336.77 617.53 336.75 617.55 336.73 617.57 336.72 617.56 336.71 617.55 336.68 617.54 336.67 617.57 336.66 617.58 336.64 617.58 336.6 617.57 336.57 617.61 336.57 617.61 336.55 617.59 336.53 617.56 336.52 617.51 336.52 617.49 336.52 617.46 336.5 617.47 336.49 617.48 336.45 617.49 336.44 617.44 336.42 617.42 336.35 617.43 336.29 617.48 336.3 617.46 336.2 617.46 336.11 617.48 336.07 617.48 336.05 617.47 336.04 617.46 336.03 617.44 336.02 617.42 336.01 617.42 336 617.41 335.94 617.38 335.85 617.37 335.8 617.38 335.75 617.43 335.68 617.45 335.65 617.45 335.62 617.47 335.58 617.48 335.55 617.47 335.52 617.45 335.44 617.48 335.44 617.47 335.41 617.46 335.39 617.44 335.39 617.43 335.41 617.33 335.27 617.27 335.15 617.22 335.08 617.2 335.02 617.19 334.97 617.19 334.92 617.19 334.87 617.22 334.8 617.23 334.76 617.21 334.78 617.2 334.8 617.18 334.82 617.16 334.81 617.15 334.79 617.13 334.68 617.06 334.56 617.04 334.49 617.07 334.43 617.01 334.39 616.98 334.33 616.98 334.27 617.02 334.21 617.11 334.19 617.16 334.24 617.22 334.32 617.29 334.35 617.22 334.25 617.19 334.2 617.23 334.18 617.2 334.17 617.17 334.15 617.15 334.13 617.17 334.09 617.16 334.08 617.14 334.06 617.13 334.03 617.13 334.02 617.12 334.01 617.11 334.02 617.1 334.04 617.1 334.05 617.11 334.06 617.11 334.08 617.11 334.09 617.08 334.12 617.05 334.1 617.03 334.06 617.02 334.01 617.01 334.01 617 334.05 617.02 334.15 617 334.17 616.99 334.17 616.97 334.19 616.96 334.2 616.93 334.2 616.91 334.19 616.9 334.18 616.89 334.17 616.88 334.15 616.82 333.89 616.78 333.82 616.78 333.82 616.79 333.8 616.8 333.78 616.79 333.72 616.8 333.7 616.82 333.66 616.83 333.65 616.82 333.59 616.8 333.55 616.77 333.53 616.73 333.51 616.75 333.49 616.76 333.48 616.78 333.48 616.81 333.48 616.8 333.46 616.79 333.43 616.78 333.42 616.81 333.38 616.81 333.33 616.81 333.15 616.81 333.12 616.84 333.07 616.78 333.08 616.75 333.07 616.72 333.04 616.66 332.94 616.66 332.92 616.66 332.89 616.66 332.83 616.65 332.8 616.63 332.78 616.63 332.76 616.64 332.74 616.66 332.73 616.68 332.73 616.7 332.65 616.72 332.66 616.73 332.65 616.78 332.62 616.76 332.59 616.7 332.43 616.71 332.4 616.73 332.34 616.72 332.31 616.66 332.17 616.67 332.16 616.67 332.14 616.67 332.12 616.67 332.1 616.66 332.09 616.67 332.07 616.67 332.03 616.65 332 616.64 331.97 616.63 331.95 616.63 331.93 616.64 331.91 616.64 331.89 616.64 331.88 616.61 331.84 616.6 331.82 616.6 331.81 616.62 331.79 616.63 331.78 616.63 331.63 616.62 331.6 616.58 331.59 616.6 331.52 616.55 331.47 616.43 331.38 616.37 331.3 616.31 331.25 616.29 331.23 616.29 331.22 616.28 331.12 616.28 331.1 616.28 331.08 616.3 331.07 616.32 331.07 616.35 331.05 616.37 331.02 616.39 330.98 616.43 330.72 616.45 330.67 616.46 330.64 616.46 330.62 616.45 330.59 616.43 330.55 616.41 330.46 616.4 330.36 616.41 330.26 616.43 330.17 616.46 330.1 616.51 330.04 616.58 330 616.66 329.98 616.66 329.98 616.65 329.97 616.63 329.95 616.62 329.94 616.6 329.94 616.58 329.95 616.46 330.03 616.41 330.05 616.38 330.05 616.23 330.03 616.18 330.04 616.12 330.05 616.11 330.05 616.1 330.06 616.09 330.07 616.07 330.08 616.06 330.08 616.03 330.07 616.02 330.06 615.95 330.07 615.91 330.08 615.87 330.11 615.84 330.16 615.76 329.82 615.76 329.76 615.75 329.71 615.71 329.77 615.65 329.75 615.58 329.66 615.55 329.59 615.53 329.5 615.53 329.44 615.56 329.39 615.54 329.36 615.53 329.34 615.53 329.32 615.55 329.26 615.53 329.26 615.51 329.31 615.51 329.34 615.5 329.37 615.48 329.35 615.47 329.33 615.47 329.29 615.47 329.26 615.5 329.2 615.49 329.18 615.47 329.18 615.44 329.2 615.42 329.15 615.43 329.09 615.46 328.98 615.46 328.94 615.45 328.92 615.41 328.88 615.4 328.86 615.38 328.83 615.37 328.8 615.37 328.77 615.4 328.71 615.47 328.73 615.53 328.75 615.6 328.72 615.51 328.68 615.47 328.67 615.42 328.66 615.37 328.67 615.34 328.7 615.33 328.74 615.31 328.79 615.27 328.74 615.24 328.66 615.23 328.59 615.26 328.55 615.26 328.53 615.21 328.52 615.2 328.49 615.19 328.44 615.17 328.39 615.12 328.37 615.07 328.35 615.03 328.33 615.05 328.28 614.81 328.1 614.79 328.08 614.77 328.06 614.77 328.02 614.77 327.95 614.76 327.92 614.73 327.95 614.71 328.04 614.7 328.07 614.69 328.06 614.67 328.04 614.67 328.03 614.65 328.03 614.64 328.04 614.63 328.05 614.62 328.06 614.64 328.07 614.69 328.14 614.76 328.19 614.82 328.24 614.82 328.31 614.77 328.37 614.72 328.42 614.68 328.48 614.7 328.58 614.78 328.74 614.82 328.82 614.82 328.91 614.81 328.95 614.77 329.02 614.75 329.12 614.72 329.13 614.65 329.12 614.66 329.14 614.67 329.16 614.68 329.18 614.7 329.2 614.67 329.19 614.62 329.18 614.59 329.18 614.59 329.2 614.62 329.21 614.65 329.23 614.67 329.26 614.68 329.29 614.68 329.33 614.64 329.38 614.63 329.43 614.6 329.51 614.57 329.52 614.55 329.53 614.55 329.55 614.58 329.57 614.54 329.63 614.5 329.67 614.41 329.73 614.39 329.76 614.35 329.82 614.31 329.95 614.22 330.02 614.17 330.08 614.04 330.13 613.9 330.16 613.77 330.17 613.69 330.11 613.64 330.1 613.59 330.08 613.44 329.97 613.41 329.93 613.39 329.9 613.39 329.84 613.38 329.8 613.37 329.76 613.32 329.67 613.31 329.62 613.3 329.57 613.3 329.52 613.32 329.48 613.41 329.42 613.44 329.4 613.37 329.39 613.26 329.48 613.18 329.5 613.19 329.52 613.23 329.56 613.24 329.58 613.25 329.67 613.28 329.71 613.33 329.77 613.35 329.82 613.34 329.85 613.32 329.89 613.31 329.92 613.32 329.94 613.35 329.99 613.45 330.14 613.49 330.2 613.53 330.23 613.55 330.26 613.51 330.31 613.48 330.33 613.43 330.43 613.29 330.48 613.16 330.5 613.12 330.52 613.06 330.53 613.02 330.51 613 330.46 612.97 330.44 612.81 330.38 612.95 330.5 612.95 330.56 612.84 330.68 612.76 330.75 612.72 330.77 612.67 330.76 612.67 330.75 612.69 330.72 612.69 330.68 612.65 330.71 612.63 330.75 612.6 330.78 612.54 330.79 612.55 330.77 612.56 330.71 612.4 330.86 612.35 330.93 612.3 330.94 612.26 330.93 612.24 330.9 612.23 330.87 612.23 330.82 612.21 330.78 612.19 330.76 612.21 330.97 612.19 331.02 612.13 331.12 612.11 331.16 612.11 331.26 612.11 331.29 612.06 331.38 611.74 331.72 611.61 331.81 611.54 331.88 611.51 331.9 611.46 331.92 611.41 331.92 611.27 331.9 611.24 331.89 611.22 331.86 611.21 331.64 611.23 331.62 611.25 331.6 611.28 331.57 611.29 331.53 611.28 331.49 611.33 331.44 611.37 331.38 611.39 331.3 611.4 331.23 611.4 331.18 611.39 331.14 611.36 331.07 611.35 331.03 611.36 331 611.37 330.97 611.38 330.93 611.37 330.93 611.35 330.95 611.33 330.97 611.32 330.99 611.31 331.02 611.32 331.06 611.35 331.13 611.36 331.17 611.35 331.27 611.34 331.3 611.27 331.39 611.24 331.49 611.19 331.55 611.14 331.57 611.11 331.51 611.13 331.46 611.17 331.4 611.19 331.33 611.19 331.26 611.11 331.38 611.08 331.45 611.07 331.53 611.08 331.7 611.05 331.76 610.97 331.78 610.9 331.75 610.86 331.68 610.84 331.6 610.84 331.51 610.89 331.25 610.87 331.18 610.82 331.3 610.8 331.21 610.83 331.11 610.89 331.04 610.97 331.01 611.04 331.01 611.07 331.01 611.08 330.99 611.08 330.98 611.05 330.98 611.03 330.97 611.01 330.97 611 330.95 610.99 330.94 610.98 330.95 610.94 330.96 610.93 330.96 610.91 330.96 610.9 330.96 610.88 330.93 610.87 330.93 610.85 330.96 610.79 331.05 610.74 331.09 610.73 331.16 610.75 331.27 610.75 331.33 610.71 331.62 610.69 331.67 610.66 331.71 610.64 331.72 610.61 331.73 610.58 331.73 610.57 331.75 610.56 331.77 610.55 331.79 610.54 331.8 610.53 331.81 610.47 331.81 610.45 331.81 610.37 331.78 610.27 331.76 610.24 331.75 610.27 331.7 610.29 331.69 610.32 331.68 610.34 331.66 610.35 331.63 610.35 331.62 610.35 331.59 610.33 331.58 610.32 331.57 610.28 331.62 610.26 331.63 610.25 331.58 610.25 331.51 610.25 331.48 610.22 331.41 610.22 331.38 610.23 331.35 610.25 331.32 610.28 331.29 610.3 331.27 610.34 331.27 610.38 331.25 610.41 331.22 610.42 331.18 610.34 331.23 610.33 331.18 610.32 331.08 610.28 331.01 610.28 330.97 610.29 330.94 610.33 330.87 610.36 330.85 610.4 330.83 610.45 330.82 610.49 330.81 610.53 330.78 610.55 330.73 610.57 330.69 610.56 330.71 610.53 330.74 610.52 330.75 610.51 330.76 610.46 330.77 610.42 330.79 610.37 330.79 610.35 330.79 610.29 330.87 610.29 330.88 610.26 330.9 610.25 330.95 610.25 331.05 610.25 331.07 610.27 331.12 610.28 331.14 610.28 331.15 610.29 331.16 610.29 331.17 610.27 331.22 610.26 331.23 610.24 331.27 610.11 331.35 610.08 331.4 610.02 331.54 610 331.57 609.97 331.59 609.93 331.61 609.88 331.62 609.83 331.6 609.81 331.57 609.8 331.52 609.78 331.48 609.77 331.52 609.75 331.51 609.72 331.48 609.7 331.45 609.76 331.41 609.84 331.36 609.93 331.31 609.99 331.23 610.01 331.11 610.03 331.09 610.05 331.08 610.06 331.05 610.07 331.03 610.08 331.01 610.08 330.97 610.09 330.96 610.11 330.95 610.12 330.93 610.13 330.9 610.08 330.92 610.06 330.95 610.03 331.02 609.97 331.12 609.96 331.16 609.93 331.22 609.89 331.25 609.85 331.27 609.73 331.4 609.67 331.42 609.62 331.41 609.61 331.35 609.67 331.27 609.79 331.16 609.84 331.08 609.87 330.99 609.89 330.89 609.88 330.79 609.85 330.71 609.84 330.68 609.86 330.64 609.89 330.6 609.93 330.46 609.94 330.44 609.96 330.44 609.99 330.44 609.99 330.42 609.97 330.4 609.93 330.18 609.93 330.16 609.94 330.13 609.96 330.11 609.97 330.11 609.99 330.1 609.99 330.06 609.91 330.1 609.88 330.09 609.87 330.05 609.85 330.1 609.88 330.3 609.88 330.43 609.87 330.47 609.82 330.53 609.81 330.56 609.79 330.62 609.76 330.67 609.71 330.71 609.66 330.72 609.66 330.71 609.68 330.67 609.73 330.61 609.78 330.52 609.76 330.48 609.74 330.48 609.71 330.52 609.69 330.59 609.68 330.62 609.66 330.64 609.64 330.64 609.61 330.64 609.59 330.63 609.58 330.61 609.56 330.6 609.52 330.59 609.51 330.61 609.52 330.7 609.51 330.75 609.5 330.8 609.49 330.83 609.38 331.02 609.32 331.1 609.25 331.13 609.2 331.14 609.17 331.15 609.15 331.19 609.14 331.25 609.12 331.27 609.08 331.29 609.03 331.29 609 331.27 608.96 331.32 608.92 331.34 608.9 331.32 608.84 331.23 608.83 331.2 608.83 331.16 608.84 330.91 608.89 330.64 608.89 330.47 608.89 330.44 608.9 330.43 608.93 330.4 608.94 330.38 608.97 330.2 608.96 330.06 608.97 330.03 609.05 330.06 609.1 330.05 609.12 330.01 609.14 329.94 609.13 329.91 609.09 329.89 609.09 329.88 609.15 329.85 609.17 329.81 609.17 329.69 609.17 329.66 609.19 329.59 609.2 329.57 609.21 329.53 609.25 329.49 609.26 329.46 609.25 329.36 609.25 329.32 609.22 329.26 609.21 329.23 609.21 329.2 609.23 329.18 609.25 329.19 609.28 329.2 609.3 329.2 609.33 329.18 609.4 329.09 609.35 329.09 609.37 329.05 609.38 329.01 609.38 328.85 609.38 328.83 609.39 328.81 609.43 328.76 609.44 328.73 609.45 328.68 609.44 328.64 609.38 328.62 609.37 328.59 609.37 328.55 609.4 328.53 609.5 328.58 609.52 328.57 609.52 328.56 609.54 328.55 609.56 328.54 609.56 328.52 609.55 328.5 609.53 328.49 609.51 328.48 609.5 328.47 609.49 328.44 609.5 328.34 609.52 328.31 609.55 328.3 609.58 328.29 609.58 328.23 609.61 328.24 609.64 328.25 609.66 328.27 609.68 328.3 609.65 328.14 609.63 327.9 609.62 327.87 609.63 327.83 609.63 327.8 609.62 327.77 609.61 327.74 609.6 327.73 609.59 327.72 609.59 327.69 609.61 327.63 609.65 327.64 609.69 327.68 609.73 327.71 609.72 327.68 609.68 327.6 609.68 327.58 609.69 327.55 609.67 327.52 609.64 327.49 609.61 327.44 609.6 327.4 609.59 327.29 609.57 327.24 609.48 327.15 609.46 327.08 609.45 326.95 609.44 326.89 609.36 326.72 609.35 326.69 609.37 326.65 609.43 326.63 609.46 326.6 609.46 326.55 609.45 326.49 609.43 326.44 609.39 326.38 609.39 326.35 609.39 326.33 609.38 326.3 609.37 326.28 609.34 326.25 609.33 326.24 609.32 326.15 609.3 326.1 609.27 326.08 609.17 326.09 609.12 326.09 609.09 326.06 609.09 326.04 609.09 326.01 609.09 325.98 609.1 325.96 609.12 325.95 609.14 325.98 609.18 325.97 609.21 326 609.23 326 609.25 325.99 609.27 325.94 609.29 325.93 609.27 325.9 609.25 325.85 609.23 325.82 609.18 325.81 609.14 325.79 609.13 325.75 609.12 325.71 609.1 325.67 608.99 325.55 608.94 325.48 608.91 325.41 608.94 325.42 608.95 325.4 608.93 325.2 608.92 325.18 608.7 324.96 608.7 324.95 608.71 324.95 608.75 324.98 608.84 324.98 608.99 324.95 608.95 324.93 608.93 324.92 608.87 324.95 608.84 324.94 608.77 324.84 608.71 324.76 608.69 324.71 608.7 324.65 608.67 324.66 608.66 324.7 608.66 324.73 608.67 324.76 608.63 324.77 608.58 324.75 608.54 324.73 608.52 324.69 608.49 324.7 608.48 324.71 608.45 324.67 608.44 324.6 608.45 324.53 608.48 324.49 608.46 324.41 608.45 324.37 608.46 324.34 608.48 324.3 608.48 324.29 608.51 324.24 608.51 324.24 608.51 324.22 608.5 324.21 608.5 324.19 608.56 324.15 608.58 324.13 608.54 324.13 608.49 324.15 608.47 324.15 608.43 324.13 608.43 324.12 608.44 324.09 608.45 324.05 608.45 324.03 608.44 323.98 608.44 323.94 608.45 323.91 608.48 323.85 608.48 323.82 608.47 323.63 608.48 323.59 608.5 323.57 608.52 323.52 608.53 323.47 608.52 323.43 608.49 323.49 608.43 323.6 608.42 323.67 608.44 323.79 608.44 323.86 608.42 323.89 608.39 323.92 608.35 323.97 608.31 324 608.25 323.97 608.24 323.94 608.24 323.88 608.23 323.86 608.2 323.85 608.18 323.86 608.17 323.89 608.17 323.93 608.18 323.94 608.25 324.01 608.27 324.04 608.27 324.06 608.26 324.08 608.26 324.11 608.26 324.26 608.27 324.31 608.29 324.34 608.33 324.38 608.33 324.41 608.33 324.44 608.32 324.47 608.32 324.49 608.31 324.52 608.26 324.58 608.25 324.58 608.23 324.59 608.23 324.6 608.23 324.61 608.23 324.63 608.24 324.64 608.24 324.65 608.21 324.67 608.19 324.65 608.16 324.61 608.07 324.58 607.95 324.47 607.91 324.45 607.81 324.41 607.78 324.38 607.76 324.36 607.75 324.34 607.73 324.31 607.71 324.3 607.69 324.29 607.67 324.3 607.65 324.29 607.63 324.26 607.63 324.24 607.64 324.18 607.63 324.16 607.61 324.14 607.6 324.11 607.59 324.08 607.59 324.06 607.57 324.03 607.5 323.96 607.47 323.93 607.41 323.8 607.38 323.78 607.25 323.61 607.23 323.56 607.22 323.52 607.22 323.42 607.24 323.39 607.28 323.35 607.33 323.33 607.38 323.33 607.39 323.35 607.4 323.37 607.41 323.39 607.43 323.4 607.51 323.4 607.55 323.47 607.56 323.52 607.53 323.56 607.62 323.63 607.67 323.65 607.74 323.65 607.75 323.71 607.82 323.76 607.92 323.79 608 323.78 608.07 323.75 608.21 323.64 608.26 323.59 608.26 323.58 608.25 323.55 608.26 323.54 608.26 323.54 608.28 323.53 608.29 323.53 608.32 323.47 608.34 323.44 608.34 323.39 608.33 323.32 608.35 323.29 608.35 323.27 608.33 323.26 608.32 323.26 608.25 323.27 608.2 323.26 608.18 323.24 608.19 323.21 608.23 323.19 608.2 323.18 608.18 323.17 608.13 323.17 608.11 323.17 608.05 323.11 607.96 323.05 607.91 323.01 607.89 322.96 607.87 322.93 607.79 322.9 607.77 322.86 607.79 322.82 607.83 322.8 607.88 322.79 607.92 322.81 607.91 322.77 607.93 322.73 607.96 322.7 607.98 322.66 607.95 322.61 607.94 322.6 607.92 322.66 607.89 322.73 607.84 322.76 607.77 322.76 607.75 322.74 607.73 322.71 607.72 322.67 607.73 322.63 607.74 322.6 607.79 322.58 607.82 322.55 607.75 322.54 607.72 322.58 607.71 322.62 607.69 322.65 607.59 322.65 607.56 322.62 607.56 322.57 607.53 322.63 607.51 322.65 607.48 322.66 607.48 322.51 607.49 322.48 607.61 322.3 607.66 322.28 607.71 322.27 607.79 322.28 607.77 322.25 607.76 322.22 607.77 322.2 607.8 322.2 607.79 322.18 607.78 322.16 607.76 322.15 607.74 322.15 607.73 322.16 607.73 322.19 607.72 322.2 607.61 322.2 607.58 322.2 607.56 322.21 607.54 322.21 607.51 322.21 607.5 322.22 607.48 322.26 607.47 322.28 607.44 322.28 607.41 322.27 607.38 322.25 607.36 322.23 607.37 322.22 607.39 322.21 607.4 322.2 607.32 322.17 607.3 322.14 607.33 322.12 607.3 322.1 607.28 322.07 607.3 322.05 607.33 322.04 607.32 322.02 607.32 322 607.29 322.02 607.27 322.03 607.25 322.05 607.24 322.08 607.23 322.07 607.2 322.05 607.19 322.04 607.18 322.09 607.16 322.11 607.14 322.12 607.11 322.11 607.09 322.08 607.07 322.05 607.06 322.03 607.05 321.97 607 321.85 607 321.79 606.98 321.79 606.98 321.88 606.97 321.93 606.95 321.94 606.94 321.91 606.91 321.76 606.89 321.76 606.87 321.81 606.84 321.85 606.8 321.87 606.75 321.89 606.69 321.88 606.63 321.86 606.57 321.85 606.54 321.88 606.51 321.86 606.48 321.84 606.45 321.81 606.43 321.78 606.44 321.83 606.45 321.86 606.5 321.94 606.54 322.1 606.67 322.36 606.68 322.42 606.63 322.38 606.6 322.32 606.54 322.2 606.51 322.08 606.48 322.02 606.44 321.99 606.39 322.02 606.38 322.09 606.39 322.16 606.43 322.25 606.44 322.32 606.45 322.36 606.48 322.39 606.49 322.4 606.5 322.41 606.5 322.41 606.52 322.45 606.52 322.45 606.48 322.4 606.46 322.4 606.45 322.39 606.43 322.36 606.4 322.3 606.28 322.12 606.27 322.08 606.26 322.01 606.24 321.97 606.18 321.91 606.13 321.84 606.11 321.82 606.1 321.8 606.09 321.73 606.08 321.7 606.12 321.71 606.24 321.7 606.27 321.69 606.29 321.66 606.33 321.6 606.33 321.61 606.34 321.62 606.34 321.63 606.34 321.65 606.36 321.65 606.41 321.53 606.42 321.5 606.42 321.49 606.35 321.51 606.26 321.61 606.19 321.65 606.13 321.64 606.12 321.56 606.15 321.44 606.19 321.4 606.24 321.22 606.27 321.18 606.33 321.16 606.35 321.11 606.37 320.99 606.33 321.02 606.31 321.12 606.28 321.15 606.25 321.15 606.23 321.1 606.22 321.04 606.22 320.99 606.31 320.84 606.34 320.75 606.31 320.7 606.3 320.74 606.28 320.8 606.26 320.85 606.23 320.89 606.2 320.94 606.19 321.01 606.21 321.14 606.19 321.24 606.14 321.33 606.01 321.5 605.92 321.68 605.92 321.69 605.9 321.7 605.89 321.71 605.86 321.72 605.84 321.71 605.83 321.7 605.81 321.67 605.67 321.56 605.64 321.53 605.65 321.49 605.66 321.46 605.68 321.43 605.71 321.39 605.85 321.3 605.93 321.28 606.02 321.25 606 321.24 605.98 321.23 605.94 321.23 605.91 321.23 605.91 321.22 605.9 321.2 605.89 321.18 605.83 321.14 605.81 321.12 605.8 321.09 605.78 320.88 605.77 320.84 605.74 320.82 605.69 320.81 605.7 320.87 605.67 320.92 605.64 320.93 605.61 320.89 605.65 320.88 605.66 320.88 605.6 320.83 605.58 320.76 605.57 320.68 605.53 320.61 605.48 320.55 605.4 320.41 605.34 320.36 605.4 320.47 605.49 320.62 605.5 320.64 605.52 320.83 605.57 320.96 605.57 321 605.55 321.1 605.57 321.35 605.55 321.39 605.54 321.37 605.5 321.31 605.48 321.28 605.38 321.02 605.34 320.95 605.13 320.76 605.11 320.73 605.09 320.62 605.06 320.57 604.98 320.49 604.96 320.47 604.95 320.45 604.94 320.43 604.91 320.43 604.88 320.42 604.84 320.39 604.82 320.38 604.78 320.36 604.76 320.31 604.73 320.2 604.61 319.84 604.57 319.78 604.56 319.75 604.53 319.53 604.52 319.51 604.43 319.43 604.42 319.39 604.4 319.36 604.35 319.31 604.33 319.28 604.32 319.24 604.33 319.2 604.34 319.13 604.34 319.08 604.33 318.99 604.33 318.94 604.34 318.9 604.4 318.81 604.43 318.71 604.46 318.66 604.49 318.66 604.56 318.66 604.65 318.56 604.72 318.58 604.75 318.62 604.76 318.66 604.76 318.7 604.78 318.74 604.8 318.76 604.82 318.77 604.87 318.79 604.97 318.8 605.04 318.78 605.1 318.8 605.14 318.89 605.16 318.99 605.17 319.04 605.2 319.07 605.24 319.06 605.3 319.03 605.34 318.98 605.36 318.95 605.35 318.92 605.35 318.9 605.27 318.66 605.25 318.54 605.24 318.48 605.21 317.91 605.25 317.55 605.24 317.48 605.21 317.34 605.23 317.33 605.24 317.32 605.26 317.31 605.27 317.29 605.3 317.26 605.32 317.25 605.35 317.25 605.38 317.24 605.39 317.2 605.39 317.17 605.39 317.14 605.39 317.1 605.4 317.06 605.41 317.06 605.42 317.06 605.43 317.06 605.43 317.03 605.42 316.96 605.43 316.93 605.45 316.92 605.5 316.93 605.64 317.04 605.79 317.17 605.83 317.23 605.84 317.29 605.86 317.36 605.88 317.38 605.9 317.36 605.93 317.29 605.94 317.24 605.97 317.23 606.01 317.25 606.04 317.29 606.05 317.31 606.07 317.31 606.08 317.31 606.09 317.3 606.1 317.3 606.1 317.29 606.11 317.28 606.1 317.26 606.1 317.24 606.09 317.23 606.08 317.2 606.07 317.16 606.08 317.13 606.12 317.05 606.14 317.04 606.17 317.03 606.21 317.01 606.2 317 606.2 316.83 606.2 316.82 606.2 316.8 606.23 316.79 606.25 316.79 606.31 316.8 606.35 316.81 606.38 316.84 606.41 316.85 606.46 316.84 606.42 316.76 606.42 316.73 606.43 316.73 606.44 316.73 606.49 316.71 606.51 316.71 606.52 316.7 606.54 316.67 606.54 316.64 606.52 316.36 606.49 316.27 606.41 316.18 606.39 316.14 606.37 316.06 606.37 316.01 606.39 315.91 606.4 315.86 606.38 315.82 606.33 315.73 606.31 315.68 606.31 315.63 606.33 315.44 606.4 315.38 606.41 315.38 606.43 315.33 606.51 315.23 606.54 315.18 606.54 315.14 606.53 315.09 606.49 315 606.47 314.95 606.46 314.89 606.46 314.82 606.49 314.78 606.54 314.76 606.59 314.77 606.62 314.8 606.65 314.85 606.7 314.89 606.75 314.88 606.81 314.86 606.86 314.82 606.89 314.77 606.98 314.59 606.98 314.56 606.98 314.53 606.98 314.49 606.99 314.33 606.98 314.23 606.99 314.19 607 314.15 607.04 314.09 607.05 314.07 607.05 314.04 607.05 314.02 607.04 313.88 607.04 313.81 607.11 313.35 607.1 313.27 607.09 313.24 607.06 313.2 607.05 313.17 606.98 313.12 606.94 312.84 606.95 312.76 606.94 312.72 606.93 312.7 606.92 312.69 606.9 312.67 606.85 312.59 606.83 312.55 606.82 312.51 606.82 312.46 606.82 312.41 606.82 312.4 606.84 312.34 606.86 312.3 606.92 312.28 606.97 312.31 607.03 312.41 607.05 312.43 607.12 312.51 607.14 312.54 607.15 312.57 607.16 312.59 607.2 312.6 607.25 312.59 607.32 312.56 607.35 312.54 607.37 312.55 607.38 312.57 607.39 312.58 607.42 312.57 607.43 312.56 607.44 312.54 607.45 312.53 607.45 312.51 607.51 312.47 607.61 312.47 607.73 312.48 607.8 312.51 607.89 312.63 607.93 312.65 608.11 312.63 608.17 312.64 608.23 312.67 608.31 312.69 608.36 312.7 608.49 312.77 608.52 312.79 608.56 312.84 608.59 312.88 608.63 312.88 608.65 312.85 608.66 312.84 608.67 312.79 608.66 312.74 608.67 312.69 608.69 312.64 608.79 312.51 608.8 312.47 608.81 312.38 608.82 312.36 608.84 312.33 608.85 312.29 608.86 312.2 608.89 312.11 608.99 311.85 609 311.81 609.01 311.73 609.02 311.69 609.04 311.67 609.08 311.64 609.1 311.62 609.1 311.6 609.09 311.56 609.1 311.54 609.12 311.51 609.15 311.5 609.17 311.47 609.17 311.37 609.19 311.34 609.21 311.32 609.25 311.3 609.28 311.18 609.29 311.14 609.32 311.12 609.42 311.05 609.45 311 609.49 310.83 609.51 310.79 609.54 310.78 609.57 310.79 609.6 310.78 609.63 310.76 609.66 310.73 609.67 310.69 609.68 310.64 609.68 310.6 609.69 310.53 609.78 310.41 609.82 310.34 609.86 310.14 609.9 310.09 609.94 310.01 609.95 309.91 609.93 309.81 609.89 309.74 609.81 309.7 609.73 309.68 609.65 309.65 609.59 309.58 609.59 309.48 609.71 309.11 609.76 309.03 609.81 308.99 609.83 308.96 609.9 308.91 609.94 308.9 610.02 308.89 610.06 308.88 610.1 308.84 610.16 308.75 610.19 308.71 610.21 308.7 610.25 308.7 610.27 308.69 610.28 308.68 610.26 308.66 610.26 308.65 610.27 308.64 610.29 308.62 610.3 308.62 610.5 308.32 610.51 308.3 610.54 308.3 610.58 308.29 610.6 308.28 610.62 308.23 610.61 308.18 610.57 307.92 610.57 307.88 610.58 307.82 610.61 307.8 610.69 307.77 610.73 307.75 610.82 307.64 610.89 307.56 610.92 307.51 610.92 307.46 610.89 307.43 610.81 307.4 610.78 307.38 610.76 307.21 610.77 307.19 610.78 307.17 610.79 307.15 610.78 307.14 610.77 307.13 610.75 307.12 610.73 307.12 610.71 307.1 610.69 307.02 610.68 306.93 610.68 306.83 610.7 306.75 610.73 306.67 610.73 306.63 610.72 306.58 610.68 306.5 610.67 306.46 610.7 306.42 610.7 306.42 610.74 306.39 610.8 306.32 610.83 306.28 610.84 306.25 610.84 306.23 610.84 306.22 610.85 306.15 610.86 306.13 610.88 306.11 610.9 306.1 610.95 306.08 610.97 306.07 610.99 306.06 611.02 306.01 611.04 305.99 611.08 305.98 611.11 306.04 611.13 306.04 611.16 306.04 611.2 306.03 611.28 305.99 611.45 305.93 611.49 305.91 611.56 305.82 611.61 305.72 611.67 305.64 611.76 305.61 611.81 305.62 611.86 305.62 611.89 305.61 611.92 305.56 611.94 305.5 611.97 305.47 612 305.45 612.1 305.44 612.13 305.43 612.16 305.4 612.21 305.3 612.31 305.18 612.37 305.16 612.49 305.14 612.55 305.1 612.61 305.04 612.66 304.97 612.74 304.82 612.83 304.7 612.96 304.6 613.12 304.53 613.7 304.43 613.85 304.44 613.89 304.45 613.93 304.45 613.98 304.43 614.01 304.41 614.06 304.36 614.08 304.31 614.1 304.29 614.16 304.31 614.18 304.32 614.19 304.33 614.21 304.34 614.24 304.34 614.26 304.32 614.3 304.28 614.32 304.27 614.36 304.28 614.41 304.29 614.48 304.32 614.52 304.35 614.55 304.38 614.6 304.46 614.62 304.49 614.69 304.55 614.71 304.57 614.69 304.62 614.67 304.66 614.67 304.7 614.72 304.75 615.02 304.89 615.04 304.91 615.06 304.93 615.08 304.94 615.1 304.96 615.12 304.95 615.15 304.94 615.17 304.93 615.19 304.93 615.22 304.94 615.23 304.96 615.25 304.97 615.28 304.95 615.29 304.94 615.31 304.87 615.32 304.86 615.3 304.83 615.28 304.81 615.26 304.8 615.25 304.78 615.24 304.76 615.24 304.72 615.23 304.7 615.17 304.63 614.81 304.16 614.75 304.07 614.74 304.02 614.77 303.95 614.77 303.91 614.76 303.89 614.75 303.85 614.75 303.82 614.74 303.8 614.72 303.76 614.71 303.74 614.71 303.68 614.73 303.63 614.76 303.59 614.79 303.56 614.88 303.5 614.92 303.46 615 303.37 615.03 303.35 615.1 303.33 615.13 303.32 615.14 303.32 615.15 303.31 615.15 303.28 615.16 303.25 615.18 303.24 615.22 303.22 615.23 303.21 615.25 303.17 615.27 303.16 615.29 303.15 615.31 303.14 615.42 303.04 615.46 303 615.48 302.96 615.51 302.94 615.55 302.92 615.59 302.91 615.63 302.91 615.66 302.94 615.66 302.97 615.67 302.99 615.71 302.97 615.76 302.95 615.77 302.93 615.76 302.9 615.76 302.85 615.77 302.81 615.81 302.73 615.82 302.7 615.8 302.63 615.7 302.51 615.67 302.45 615.68 302.36 615.75 302.21 615.73 302.14 615.76 302.1 615.84 302.05 615.85 302.03 615.87 301.97 615.9 301.96 615.94 301.97 615.98 301.97 616.01 301.94 616.02 301.89 616.02 301.8 616.01 301.77 616.01 301.75 616 301.73 616.01 301.71 616.05 301.67 616.06 301.65 616.07 301.62 616.1 301.58 616.13 301.49 616.16 301.45 616.19 301.36 616.23 301.34 616.27 301.37 616.32 301.45 616.38 301.48 616.44 301.44 616.5 301.41 616.57 301.46 616.66 301.73 616.71 301.8 616.78 301.83 616.92 301.76 617.01 301.8 617.11 301.94 617.19 301.98 617.22 302.01 617.22 302.05 617.2 302.13 617.21 302.15 617.3 302.17 617.34 302.19 617.49 302.33 617.5 302.33 617.51 302.38 617.52 302.42 617.5 302.65 617.5 302.7 617.47 302.75 617.49 302.78 617.56 302.82 617.6 302.86 617.63 302.9 617.63 302.94 617.58 302.96 617.54 302.99 617.56 303.03 617.59 303.08 617.67 303.13 617.68 303.15 617.67 303.18 617.67 303.23 617.68 303.26 617.7 303.27 617.7 303.28 617.68 303.34 617.69 303.37 617.76 303.48 617.8 303.56 617.84 303.76 617.89 303.84 617.96 303.87 618.04 303.85 618.08 303.79 618.1 303.71 618.12 303.63 618.11 303.54 618.12 303.49 618.14 303.47 618.17 303.48 618.29 303.54 618.32 303.57 618.39 303.54 618.44 303.58 618.48 303.67 618.52 303.7 618.57 303.7 618.6 303.69 618.62 303.67 618.64 303.65 618.67 303.65 618.69 303.67 618.71 303.69 618.73 303.72 618.74 303.74 618.74 303.79 618.72 303.89 618.71 303.99 618.73 304.21 618.73 304.24 618.75 304.24 618.77 304.25 618.78 304.26 618.8 304.33 618.79 304.42 618.74 304.58 618.73 304.66 618.72 304.74 618.75 304.9 618.77 304.94 618.79 304.96 618.82 304.97 618.85 305 618.87 305.05 618.86 305.09 618.83 305.14 618.81 305.18 618.86 305.4 618.87 305.42 618.86 305.45 618.83 305.49 618.82 305.51 618.83 305.56 618.88 305.64 618.9 305.68 618.89 305.74 618.86 305.83 618.86 305.88 618.89 305.96 618.89 305.98 618.89 306 618.89 306.02 618.9 306.04 618.91 306.1 618.89 306.14 618.85 306.23 618.83 306.31 618.82 306.63 618.81 306.68 618.8 306.72 618.78 306.76 618.69 306.87 618.67 306.92 618.66 306.97 618.66 307.01 618.67 307.03 618.71 307.02 618.73 307.05 618.79 307.16 618.8 307.2 618.79 307.23 618.77 307.24 618.76 307.25 618.76 307.31 618.74 307.33 618.66 307.39 618.63 307.4 618.62 307.37 618.62 307.28 618.61 307.28 618.57 307.29 618.48 307.31 618.45 307.34 618.44 307.37 618.45 307.42 618.46 307.46 618.5 307.55 618.51 307.59 618.51 307.64 618.52 307.68 618.55 307.68 618.57 307.68 618.6 307.68 618.62 307.71 618.69 307.82 618.71 307.86 618.72 307.87 618.75 307.88 618.76 307.9 618.77 307.93 618.76 307.96 618.75 307.99 618.74 308.02 618.62 308.11 618.59 308.12 618.56 308.12 618.54 308.11 618.48 308.08 618.43 308.04 618.4 308.03 618.36 308.03 618.34 308.05 618.29 308.11 618.26 308.14 618.24 308.18 618.21 308.26 618.19 308.28 618.17 308.29 618.16 308.31 618.16 308.34 618.16 308.37 618.15 308.39 618.07 308.49 618.05 308.52 618.03 308.63 618 308.67 617.97 308.69 617.93 308.72 617.87 308.73 617.85 308.73 617.78 308.66 617.75 308.64 617.57 308.58 617.54 308.58 617.54 308.61 617.54 308.73 617.53 308.77 617.51 308.8 617.47 308.84 617.45 308.86 617.45 308.87 617.47 308.94 617.47 308.96 617.48 308.98 617.48 309.07 617.48 309.11 617.47 309.13 617.43 309.13 617.4 309.16 617.37 309.21 617.33 309.31 617.31 309.34 617.22 309.39 617.18 309.41 617.08 309.54 617.03 309.57 616.99 309.57 616.96 309.55 616.95 309.52 616.92 309.48 616.84 309.44 616.79 309.5 616.74 309.69 616.69 309.8 616.65 309.85 616.62 309.88 616.58 309.89 616.57 309.92 616.58 310 616.58 310.17 616.59 310.25 616.62 310.32 616.7 310.39 616.73 310.43 616.71 310.48 616.68 310.5 616.63 310.5 616.54 310.48 616.49 310.49 616.44 310.52 616.36 310.59 616.21 310.69 616.21 310.69 616.2 310.75 616.21 311.05 616.16 311.38 616.15 311.44 616.17 311.46 616.35 311.43 616.4 311.43 616.43 311.43 616.45 311.45 616.46 311.47 616.47 311.5 616.47 311.52 616.49 311.55 616.53 311.58 616.54 311.61 616.55 311.66 616.51 311.67 616.47 311.68 616.43 311.7 616.45 311.77 616.61 311.83 616.62 311.91 616.61 311.93 616.59 311.94 616.58 311.96 616.57 311.99 616.58 312.01 616.61 312.06 616.62 312.08 616.61 312.14 616.59 312.19 616.16 312.63 616.2 312.68 616.29 312.72 616.37 312.78 616.38 312.8 616.39 312.82 616.4 312.87 616.43 312.82 616.45 312.81 616.47 312.8 616.52 312.79 616.56 312.77 616.68 312.65 616.72 312.62 616.77 312.61 616.8 312.61 616.83 312.6 616.87 312.56 616.96 312.46 616.99 312.44 617.47 312.25 617.64 312.21 617.72 312.21 617.88 312.25 617.97 312.26 618 312.24 618.07 312.2 618.11 312.19 618.2 312.18 618.29 312.19 618.35 312.2 618.44 312.27 618.5 312.3 618.53 312.31 618.56 312.3 618.59 312.28 618.65 312.25 618.74 312.24 618.82 312.2 619.05 312.18 619.13 312.16 619.15 312.14 619.16 312.15 619.17 312.22 619.13 312.29 618.93 312.43 618.82 312.52 618.78 312.54 618.74 312.55 618.7 312.57 618.69 312.59 618.71 312.61 618.73 312.65 618.73 312.67 618.71 312.73 618.71 312.76 618.72 312.94 618.71 312.96 618.7 312.97 618.7 312.99 618.73 313.01 618.75 313.01 618.8 313.01 618.87 313.04 618.96 313.05 618.99 313.08 619 313.11 619.01 313.24 619.02 313.28 619.12 313.42 619.13 313.43 619.13 313.45 619.12 313.48 619.1 313.5 619 313.56 618.97 313.59 618.96 313.62 619.01 313.75 619.03 313.76 619.07 313.75 619.12 313.75 619.15 313.78 619.17 313.83 619.21 313.92 619.21 313.97 619.21 314.02 619.19 314.06 619.17 314.07 619.14 314.08 619.12 314.1 619.13 314.12 619.14 314.13 619.22 314.12 619.25 314.19 619.14 314.39 619.14 314.47 619.3 314.49 619.39 314.51 619.43 314.51 619.47 314.51 619.51 314.51 619.52 314.55 619.54 314.59 619.57 314.64 619.62 314.65 619.65 314.66 619.74 314.64 619.76 314.65 619.81 314.66 619.85 314.67 619.86 314.67 619.86 314.67 619.88 314.67 619.89 314.68 619.89 314.72 619.9 314.74 619.91 314.75 619.93 314.76 619.95 314.76 619.97 314.75 620.02 314.71 620.04 314.7 620.08 314.69 620.1 314.67 620.12 314.63 620.15 314.6 620.19 314.59 620.23 314.61 620.29 314.7 620.34 314.73 620.51 314.74 620.54 314.76 620.55 314.79 620.54 314.83 620.54 314.87 620.56 314.91 620.64 315.02 620.64 315.07 620.59 315.12 620.52 315.11 620.4 315.05 620.37 315.06 620.36 315.09 620.37 315.2 620.37 315.24 620.34 315.28 620.29 315.34 620.25 315.44 620.23 315.45 620.2 315.46 620.18 315.47 620.15 315.49 620.13 315.51 620.13 315.57 620.24 315.83 620.24 315.88 620.22 315.97 620.21 316.01 620.22 316.04 620.24 316.08 620.24 316.1 620.23 316.13 620.21 316.16 620.08 316.3 619.99 316.35 619.98 316.38 619.98 316.4 620 316.41 620 316.44 619.99 316.47 619.95 316.52 619.93 316.55 619.91 316.66 619.89 316.7 619.82 316.8 619.8 316.84 619.84 316.88 619.77 316.92 619.82 316.97 619.92 317.02 620.01 317.04 620.18 317.06 620.26 317.05 620.39 316.99 620.42 316.99 620.54 317.03 620.57 317.04 620.64 317.03 620.85 317.08 620.87 317.09 620.89 317.11 620.91 317.15 620.92 317.17 620.97 317.19 620.99 317.17 621.01 317.14 621.05 317.11 621.09 317.12 621.22 317.19 621.24 317.21 621.25 317.23 621.27 317.24 621.3 317.24 621.32 317.22 621.32 317.17 621.33 317.15 621.37 317.15 621.54 317.17 621.52 317.21 621.52 317.24 621.53 317.27 621.56 317.29 621.59 317.37 621.57 317.46 621.49 317.63 621.48 317.69 621.49 317.73 621.53 317.81 621.56 317.94 621.58 317.98 621.66 318.03 621.85 318.03 621.93 318.06 621.97 318.08 621.98 318.1 621.99 318.12 621.99 318.14 621.97 318.14 621.95 318.15 621.92 318.16 621.9 318.19 621.88 318.23 621.86 318.27 621.86 318.31 621.86 318.35 621.87 318.4 621.88 318.45 621.91 318.48 621.95 318.51 622.03 318.62 622.08 318.64 622.11 318.63 622.18 318.57 622.21 318.55 622.28 318.53 622.31 318.51 622.34 318.48 622.34 318.48 622.34 318.48 622.34 318.48 622.36 318.44 622.39 318.41 622.42 318.4 622.47 318.39 622.52 318.4 622.55 318.42 622.62 318.48 622.63 318.52 622.65 318.55 622.68 318.58 622.72 318.57 622.77 318.56 622.88 318.58 622.93 318.57 623.04 318.54 623.1 318.52 623.13 318.48 623.13 318.48 623.13 318.48 623.13 318.48 623.23 318.43 623.34 318.3 623.43 318.17 623.52 318.1 623.61 318.05 623.83 317.98 623.87 317.97 623.98 317.89 624.01 317.87 624.04 317.85 624.07 317.84 624.15 317.85 624.16 317.89 624.17 318.01 624.19 318.03 624.21 318.05 624.24 318.09 624.26 318.14 624.25 318.18 624.27 318.2 624.26 318.23 624.23 318.26 624.23 318.31 624.24 318.34 Z" fill-rule="evenodd" id="Myanmar" transform="translate(-604.3200073242188,-301.3399963378906) "/></svg>