<svg xmlns="http://www.w3.org/2000/svg" viewBox="0 0 30.019989013671875 28.79998779296875"><path d="M 451.83 406.41 451.92 406.4 452 406.38 452.04 406.38 452.1 406.37 452.2 406.35 452.3 406.33 452.39 406.31 452.48 406.29 452.58 406.27 452.67 406.25 452.77 406.23 452.86 406.21 452.96 406.19 453.05 406.17 453.15 406.15 453.24 406.13 453.34 406.11 453.43 406.09 453.53 406.07 453.62 406.05 453.69 406.04 453.73 406.04 453.77 406.04 453.89 406.05 453.91 406.06 453.93 406.05 454.02 406.03 454.06 406.02 454.1 406.03 454.2 406.06 454.26 406.08 454.3 406.1 454.36 406.11 454.38 406.12 454.39 406.13 454.41 406.15 454.45 406.16 454.47 406.17 454.49 406.16 454.51 406.15 454.54 406.12 454.57 406.11 454.58 406.09 454.6 406.08 454.62 406.07 454.72 406.07 454.91 406.1 454.92 406.11 454.93 406.12 454.94 406.13 454.97 406.13 455.04 406.13 455.19 406.16 455.25 406.19 455.28 406.23 455.32 406.21 455.35 406.23 455.35 406.23 455.38 406.26 455.41 406.29 455.43 406.29 455.48 406.28 455.5 406.28 455.51 406.28 455.49 406.32 455.49 406.34 455.51 406.36 455.52 406.36 455.53 406.37 455.56 406.37 455.57 406.38 455.61 406.41 455.61 406.42 455.63 406.49 455.64 406.5 455.66 406.5 455.67 406.51 455.68 406.53 455.69 406.54 455.71 406.52 455.72 406.52 455.76 406.55 455.76 406.57 455.76 406.59 455.76 406.61 455.77 406.62 455.8 406.63 455.81 406.64 455.84 406.68 455.86 406.68 455.89 406.69 455.92 406.69 455.95 406.71 455.98 406.74 455.99 406.77 455.85 406.74 455.76 406.74 455.68 406.81 455.61 406.84 455.54 406.85 455.52 406.8 455.46 406.84 455.43 406.84 455.41 406.81 455.38 406.83 455.36 406.82 455.35 406.8 455.32 406.78 455.34 406.75 455.31 406.75 455.3 406.77 455.3 406.78 455.28 406.8 455.26 406.81 455.1 406.86 455.06 406.86 455.02 406.87 454.97 406.92 454.92 406.93 454.91 406.93 454.89 406.97 454.88 406.97 454.86 406.98 454.84 406.98 454.82 406.99 454.81 407 454.75 407.08 454.67 407.13 454.64 407.16 454.53 407.29 454.52 407.3 454.51 407.31 454.48 407.35 454.47 407.36 454.45 407.37 454.35 407.38 454.32 407.38 454.25 407.31 454.24 407.28 454.23 407.26 454.22 407.26 454.2 407.24 454.16 407.17 454.13 407.14 454.09 407.13 454.01 407.13 453.98 407.14 453.94 407.18 453.88 407.29 453.86 407.3 453.84 407.3 453.8 407.28 453.77 407.27 453.73 407.27 453.68 407.27 453.61 407.31 453.5 407.44 453.43 407.5 453.34 407.51 453.33 407.52 453.26 407.58 453.24 407.6 453.18 407.62 453.15 407.64 453.14 407.65 453.14 407.67 453.13 407.66 453.12 407.66 453.1 407.65 453.09 407.66 453.01 407.71 453.01 407.79 452.97 407.82 452.91 407.87 452.88 407.89 452.84 407.95 452.81 407.98 452.78 407.99 452.57 408.22 452.54 408.24 452.49 408.24 452.44 408.31 452.42 408.32 452.41 408.32 452.34 408.35 452.3 408.35 452.27 408.33 452.25 408.23 452.21 408.13 452.2 408.1 452.23 408.05 452.21 408 452.13 407.92 452.15 407.89 452.14 407.87 452.12 407.85 452.1 407.82 452.1 407.79 452.07 407.78 452.04 407.78 452.01 407.77 452 407.75 451.97 407.71 451.94 407.68 451.91 407.7 451.89 407.7 451.87 407.69 451.86 407.69 451.86 407.68 451.86 407.64 451.86 407.62 451.85 407.6 451.78 407.52 451.75 407.46 451.73 407.43 451.72 407.42 451.72 407.4 451.72 407.34 451.72 407.34 451.7 407.33 451.68 407.33 451.68 407.31 451.68 407.28 451.67 407.27 451.66 407.26 451.63 407.24 451.55 407.24 451.4 407.25 451.2 407.27 450.94 407.29 450.75 407.33 450.56 407.36 450.37 407.4 450.19 407.44 450 407.47 449.81 407.51 449.63 407.55 449.44 407.58 449.25 407.62 449.07 407.65 448.88 407.69 448.69 407.73 448.5 407.76 448.32 407.8 448.13 407.84 447.94 407.87 447.76 407.91 447.72 407.92 447.68 407.92 447.64 407.93 447.6 407.94 447.56 407.94 447.52 407.94 447.42 407.95 447.31 407.95 447.21 407.95 447.1 407.96 446.98 407.96 446.85 407.97 446.73 407.97 446.6 407.98 446.54 407.98 446.49 407.98 446.49 408.05 446.49 408.14 446.49 408.24 446.49 408.33 446.49 408.43 446.49 408.52 446.49 408.62 446.49 408.71 446.49 408.81 446.49 408.9 446.49 409 446.49 409.09 446.49 409.19 446.49 409.28 446.49 409.38 446.49 409.47 446.49 409.57 446.5 409.86 446.5 409.97 446.5 410.15 446.5 410.44 446.5 410.73 446.5 411.03 446.5 411.32 446.5 411.61 446.5 411.9 446.5 412.2 446.5 412.49 446.5 412.73 446.5 412.78 446.51 413.08 446.51 413.37 446.51 413.67 446.51 413.96 446.51 414.25 446.51 414.26 446.51 414.39 446.51 414.53 446.51 414.66 446.51 414.8 446.51 414.94 446.51 415.07 446.51 415.21 446.51 415.35 446.51 415.48 446.51 415.62 446.51 415.76 446.51 415.89 446.51 416.03 446.52 416.17 446.52 416.3 446.52 416.44 446.52 416.54 446.49 416.62 446.36 416.62 445.84 416.62 445.32 416.62 444.8 416.62 444.29 416.62 444.29 416.83 444.29 417.19 444.29 417.54 444.29 417.9 444.29 418.26 444.29 418.67 444.29 419.08 444.29 419.5 444.29 419.75 444.29 419.91 444.29 420.32 444.29 420.74 444.29 421.08 444.29 421.15 444.29 421.56 444.29 421.98 444.29 422.4 444.29 422.81 444.29 423.23 444.29 423.26 444.29 423.4 444.29 423.53 444.29 423.67 444.29 423.8 444.29 423.94 444.29 424.08 444.29 424.21 444.29 424.35 444.29 424.49 444.29 424.62 444.29 424.76 444.29 424.9 444.29 425.03 444.29 425.17 444.29 425.31 444.29 425.34 444.29 425.44 444.29 425.58 444.29 425.72 444.29 425.86 444.29 425.99 444.29 426.13 444.29 426.27 444.29 426.41 444.29 426.54 444.29 426.68 444.29 426.82 444.29 426.96 444.29 427.09 444.29 427.23 444.29 427.37 444.29 427.51 444.29 427.65 444.29 427.78 444.29 427.92 444.29 428.06 444.29 428.2 444.29 428.34 444.3 428.48 444.3 428.61 444.3 428.75 444.3 428.89 444.3 429.03 444.3 429.17 444.3 429.31 444.3 429.45 444.3 429.59 444.3 429.73 444.3 429.86 444.3 430 444.3 430.14 444.3 430.28 444.3 430.42 444.3 430.56 444.3 430.7 444.3 430.84 444.3 430.98 444.3 431.12 444.3 431.26 444.3 431.4 444.3 431.54 444.3 431.68 444.3 431.82 444.3 431.96 444.3 432.1 444.3 432.2 444.29 432.28 444.22 432.29 444.2 432.3 444.13 432.29 444.1 432.29 444.05 432.32 443.95 432.41 443.88 432.43 443.77 432.44 443.72 432.46 443.68 432.49 443.64 432.51 443.42 432.53 443.4 432.53 443.38 432.55 443.36 432.57 443.35 432.59 443.33 432.61 443.32 432.63 443.3 432.68 443.29 432.69 443.26 432.69 443.25 432.72 443.19 432.92 443.16 432.95 443.13 432.99 443.08 433.01 442.9 433.05 442.87 433.07 442.84 433.06 442.79 433.02 442.76 433.02 442.73 433.05 442.71 433.08 442.67 433.15 442.66 433.2 442.67 433.26 442.76 433.4 442.76 433.43 442.73 433.45 442.66 433.45 442.64 433.46 442.62 433.5 442.6 433.52 442.47 433.59 442.38 433.62 442.3 433.62 442.26 433.58 442.25 433.57 442.23 433.56 442.15 433.55 442.13 433.54 442.11 433.51 442.05 433.43 442.02 433.39 441.55 433.32 441.13 433.39 441.05 433.43 441 433.45 440.99 433.44 440.96 433.42 440.95 433.41 440.94 433.41 440.92 433.42 440.91 433.43 440.87 433.44 440.84 433.44 440.82 433.45 440.78 433.47 440.73 433.46 440.63 433.43 440.58 433.42 440.39 433.45 440.31 433.48 440.27 433.48 440.08 433.41 440 433.37 439.86 433.26 439.79 433.21 439.71 433.18 439.34 433.09 439.27 433.1 439.24 433.11 439.2 433.14 439.18 433.15 439.15 433.15 439.08 433.13 439.03 433.11 439.02 433.06 439.02 433 439.01 432.95 438.98 432.92 438.94 432.93 438.9 432.95 438.85 432.96 438.76 432.97 438.66 433 438.58 432.98 438.57 432.91 438.6 432.8 438.62 432.7 438.59 432.65 438.51 432.62 438.49 432.58 438.48 432.52 438.42 432.44 438.4 432.4 438.41 432.36 438.44 432.33 438.48 432.3 438.52 432.29 438.55 432.27 438.57 432.21 438.57 432.14 438.57 432.09 438.56 432.06 438.52 432.01 438.51 431.98 438.5 431.95 438.5 431.93 438.49 431.9 438.47 431.87 438.46 431.85 438.46 431.82 438.45 431.79 438.42 431.78 438.37 431.78 438.23 431.81 438.16 431.8 438.11 431.74 438.1 431.62 438.1 431.57 438.1 431.51 438.08 431.47 438.03 431.45 437.99 431.43 437.96 431.38 437.93 431.33 437.9 431.3 437.88 431.29 437.85 431.29 437.81 431.3 437.78 431.31 437.71 431.36 437.65 431.35 437.63 431.36 437.59 431.39 437.57 431.4 437.54 431.4 437.52 431.37 437.51 431.36 437.49 431.38 437.45 431.42 437.45 431.43 437.43 431.62 437.41 431.65 437.4 431.65 437.39 431.64 437.36 431.64 437.35 431.63 437.34 431.63 437.32 431.64 437.32 431.65 437.33 431.67 437.36 431.72 437.36 431.74 437.33 431.74 437.28 431.74 437.27 431.75 437.26 431.78 437.27 431.79 437.29 431.82 437.3 431.85 437.29 431.88 437.27 431.9 437.25 431.89 437.23 431.87 437.21 431.86 437.17 431.88 437.16 431.93 437.17 431.98 437.19 432.02 437.23 432.09 437.25 432.13 437.23 432.15 437.19 432.18 437.18 432.23 437.18 432.28 437.17 432.33 437.15 432.37 437.11 432.42 437.06 432.46 437.03 432.46 437.02 432.43 437.01 432.4 437 432.37 436.98 432.36 436.96 432.37 436.79 432.54 436.71 432.56 436.64 432.59 436.59 432.63 436.55 432.65 436.51 432.68 436.48 432.72 436.45 432.75 436.4 432.74 436.37 432.72 436.24 432.61 436.17 432.53 436.13 432.48 435.9 432.24 435.86 432.22 435.84 432.21 435.71 432.03 435.56 431.86 435.27 431.65 435.21 431.59 435.1 431.44 434.94 431.31 434.91 431.28 434.84 431.17 434.77 431.09 434.75 431.08 434.75 431.05 434.77 431 434.77 430.97 434.74 430.89 434.68 430.81 434.46 430.59 434.43 430.55 434.42 430.49 434.42 430.36 434.42 430.34 434.4 430.31 434.19 429.97 434.16 429.89 434.13 429.85 434.09 429.83 434.07 429.81 434.01 429.68 433.92 429.56 433.9 429.53 433.87 429.34 433.86 429.31 433.85 429.29 433.83 429.27 433.83 429.24 433.84 429.14 433.81 428.98 433.83 428.95 433.78 428.85 433.77 428.81 433.77 428.75 433.77 428.65 433.76 428.6 433.72 428.56 433.71 428.55 433.67 428.55 433.65 428.54 433.64 428.53 433.63 428.5 433.61 428.48 433.6 428.48 433.6 428.43 433.58 428.38 433.51 428.23 433.5 428.19 433.51 428.12 433.48 428.07 433.45 428.02 433.43 427.98 433.43 427.92 433.44 427.88 433.45 427.84 433.49 427.83 433.51 427.82 433.53 427.81 433.55 427.81 433.56 427.84 433.56 427.93 433.57 427.93 433.58 427.88 433.62 427.75 433.62 427.73 433.61 427.69 433.56 427.54 433.54 427.4 433.48 427.3 433.41 427.23 433.33 427.17 433.2 427.12 433.18 427.09 433.16 426.9 433.17 426.72 433.12 426.65 433.12 426.63 433.12 426.6 433.14 426.6 433.15 426.61 433.18 426.6 433.21 426.52 433.2 426.42 433.18 426.31 433.15 426.23 433.05 426.06 433.03 425.98 433.07 425.89 433.05 425.89 432.94 425.76 432.9 425.69 432.9 425.66 432.9 425.64 432.9 425.61 432.9 425.42 432.91 425.37 432.98 425.24 432.98 425.2 432.98 425.14 432.97 425.09 432.92 425.05 432.91 424.98 432.9 424.87 432.85 424.72 432.83 424.61 432.81 424.52 432.81 424.47 432.88 424.29 432.87 424.26 432.92 424.09 432.92 423.99 432.9 423.89 432.87 423.83 432.83 423.74 432.8 423.64 432.79 423.45 432.76 423.35 432.64 423.11 432.58 423.04 432.47 422.93 432.44 422.86 432.37 422.77 432.35 422.71 432.36 422.68 432.39 422.65 432.4 422.63 432.4 422.53 432.39 422.49 432.34 422.4 432.29 422.27 432.17 422.04 432.13 421.87 432.08 421.79 432.07 421.68 432.05 421.65 432.06 421.6 432.06 421.52 432.05 421.43 432.04 421.38 432.05 421.35 432.07 421.28 432.08 421.25 432.1 421.24 432.12 421.24 432.13 421.23 432.14 421.21 432.17 421.15 432.16 421.12 432.16 420.98 432.12 420.87 432.11 420.83 432.14 420.48 432.13 420.39 432.11 420.33 432.02 420.11 432 420 432 419.98 432.02 419.96 432.07 419.86 432.1 419.83 432.1 419.88 432.11 419.9 432.12 419.89 432.13 419.84 432.12 419.75 432.08 419.47 432.06 419.38 432.02 419.32 431.99 419.25 431.97 419.18 431.95 419.09 431.94 418.94 431.95 418.91 431.96 418.89 431.98 418.85 431.99 418.82 431.99 418.72 432 418.72 432.01 418.72 432.02 418.73 432 418.75 432.01 418.76 432.03 418.79 432.04 418.8 432.02 418.84 432.02 418.89 432.03 418.92 432.08 418.9 432.08 418.92 432.05 419 432.08 418.96 432.13 418.87 432.17 418.85 432.19 418.82 432.21 418.77 432.22 418.66 432.2 418.24 432.16 417.93 432.11 417.84 432.08 417.74 432 417.57 431.96 417.43 431.89 417.28 431.88 417.26 431.73 417.1 431.69 417.02 431.68 416.96 431.68 416.94 431.34 416.49 431.17 416.34 431.15 416.3 430.97 416.13 430.93 416.11 430.93 416.08 430.94 416.06 430.94 416.05 430.96 415.99 430.96 415.97 430.95 415.94 430.94 415.92 430.76 415.65 430.73 415.5 430.66 415.33 430.43 415.03 430.29 414.8 430.21 414.7 430.15 414.63 429.95 414.27 429.86 414.15 429.83 414.06 429.8 414.03 429.74 413.98 429.7 413.9 429.68 413.82 429.65 413.63 429.59 413.42 429.4 413.04 429.35 412.83 429.33 412.73 429.29 412.54 429.21 412.35 429.16 412.26 429.07 412.24 428.97 412.17 428.9 412.04 428.83 411.75 428.66 411.42 428.64 411.35 428.54 411.23 428.38 410.93 428.36 410.88 428.34 410.84 428.28 410.73 428.26 410.7 428.16 410.52 428.13 410.45 428.12 410.41 428.11 410.3 428.08 410.25 428.01 410.16 427.96 410.07 427.86 409.8 427.81 409.73 427.74 409.65 427.66 409.59 427.64 409.56 427.62 409.39 427.6 409.34 427.24 408.86 426.99 408.7 426.88 408.58 426.87 408.56 426.83 408.51 426.8 408.5 426.78 408.48 426.67 408.42 426.64 408.29 426.63 408.25 426.6 408.18 426.6 408.15 426.6 408.13 426.59 408.11 426.6 408.08 426.55 408.01 426.46 407.78 426.45 407.77 426.27 407.58 426.23 407.47 426.22 407.33 426.18 407.22 426.15 407.14 426.12 406.92 426.07 406.75 426.04 406.51 426.01 406.39 425.99 406.32 425.97 406.19 425.98 406.01 426.06 405.55 426.08 405.52 426.08 405.52 426.11 405.52 426.15 405.54 426.17 405.55 426.21 405.54 426.22 405.53 426.22 405.52 426.24 405.5 426.28 405.47 426.37 405.43 426.47 405.35 426.56 405.31 426.66 405.28 426.77 405.26 426.78 405.26 426.8 405.26 426.81 405.26 426.83 405.27 426.91 405.29 426.94 405.29 426.95 405.28 426.96 405.27 426.98 405.28 426.99 405.29 427 405.31 427 405.32 427.01 405.34 427.02 405.36 427.04 405.37 427.07 405.38 427.09 405.39 427.11 405.4 427.12 405.42 427.13 405.44 427.14 405.45 427.3 405.44 427.44 405.44 427.47 405.43 427.5 405.41 427.53 405.4 427.58 405.43 427.62 405.45 427.75 405.46 427.83 405.48 427.86 405.48 427.91 405.45 428.01 405.36 428.06 405.34 428.12 405.33 428.16 405.31 428.24 405.25 428.34 405.2 428.41 405.18 428.43 405.16 428.45 405.12 428.47 405.11 428.48 405.1 428.52 405.09 428.54 405.07 428.55 405.05 428.56 405.03 428.57 405 428.62 404.99 428.66 404.97 428.73 404.95 428.85 404.88 429.09 404.84 429.14 404.83 429.19 404.82 429.23 404.85 429.26 404.84 429.27 404.85 429.29 404.87 429.31 404.88 429.36 404.89 429.39 404.89 429.41 404.88 429.41 404.9 429.47 404.87 429.5 404.87 429.52 404.88 429.53 404.88 429.58 404.86 429.62 404.85 429.66 404.87 429.74 404.92 429.78 404.93 429.83 404.94 429.88 404.96 429.91 404.99 429.94 405.08 429.97 405.11 429.99 405.15 429.97 405.22 430.16 405.32 430.36 405.48 430.57 405.6 430.78 405.72 430.8 405.74 430.91 405.88 430.94 405.9 430.99 405.91 431.02 405.91 431.05 405.88 431.07 405.88 431.1 405.88 431.14 405.89 431.19 405.9 431.22 405.91 431.25 405.91 431.27 405.9 431.31 405.88 431.32 405.88 431.42 405.89 431.47 405.89 431.49 405.84 431.49 405.83 431.52 405.83 431.52 405.83 431.67 405.83 432.24 405.83 432.81 405.83 433.38 405.83 433.95 405.83 434.49 405.83 434.51 405.83 435.08 405.83 435.65 405.83 436.22 405.83 436.79 405.83 437.36 405.83 437.93 405.83 438.3 405.83 438.49 405.83 439.06 405.83 439.63 405.83 439.9 405.83 440.2 405.83 440.77 405.83 440.89 405.83 440.91 405.83 440.91 405.85 440.92 405.87 440.93 405.88 440.95 405.89 440.98 405.98 440.99 406 440.99 406.01 441.05 406.02 441.12 406.17 441.13 406.19 441.16 406.21 441.27 406.31 441.28 406.32 441.29 406.36 441.3 406.39 441.32 406.41 441.37 406.43 441.39 406.44 441.51 406.58 441.56 406.63 441.59 406.66 441.68 406.68 441.87 406.78 442.16 406.83 442.35 406.82 442.43 406.79 442.47 406.78 442.5 406.78 442.56 406.8 442.66 406.79 442.7 406.81 443.05 406.92 443.43 406.91 443.56 406.89 443.61 406.88 443.65 406.89 443.67 406.93 443.69 406.95 443.74 406.97 443.79 406.99 443.83 406.99 443.84 406.98 443.86 406.93 443.88 406.93 444.23 406.93 444.31 406.97 444.39 407 444.41 407 444.54 406.99 444.6 406.99 444.63 406.99 444.66 406.97 444.68 406.99 444.71 406.96 444.76 406.95 444.82 406.95 444.87 406.97 444.95 406.91 444.97 406.92 445 406.92 445.08 406.91 445.1 406.92 445.19 406.99 445.25 406.98 445.3 407 445.35 407.04 445.4 407.09 445.42 407.11 445.49 407.15 445.56 407.2 445.59 407.21 445.64 407.19 445.73 407.19 445.81 407.2 445.85 407.22 445.86 407.24 445.9 407.25 445.93 407.26 445.95 407.25 445.97 407.23 446.01 407.24 446.07 407.27 446.12 407.32 446.18 407.31 446.24 407.29 446.32 407.27 446.35 407.21 446.52 407.16 446.55 407.16 446.76 407.1 446.79 407.12 446.83 407.11 446.87 407.09 446.91 407.08 446.94 407.09 447.03 407.08 447.07 407.09 447.17 407.15 447.29 407.19 447.36 407.23 447.39 407.27 447.41 407.28 447.45 407.27 447.61 407.23 448.16 407.13 448.72 407.02 449.28 406.91 449.83 406.81 450.29 406.72 450.74 406.63 451.19 406.54 451.64 406.45 451.83 406.41 Z" id="Namibia" transform="translate(-425.9700012207031,-404.82000732421875) "/></svg>