<svg xmlns="http://www.w3.org/2000/svg" viewBox="0 0 18.03997802734375 10.21002197265625"><path d="M 581.28 296.73 581.33 296.72 581.37 296.71 581.42 296.7 581.52 296.74 581.59 296.73 581.64 296.74 581.66 296.76 581.68 296.79 581.7 296.81 581.72 296.81 581.74 296.8 581.76 296.79 581.78 296.79 581.88 296.78 581.93 296.78 581.96 296.8 581.97 296.84 581.95 296.99 581.96 297.06 581.98 297.1 582.02 297.13 582.08 297.15 582.11 297.18 582.1 297.23 582.05 297.33 582.05 297.36 582.07 297.42 582.09 297.47 582.11 297.5 582.15 297.5 582.19 297.49 582.23 297.48 582.33 297.54 582.38 297.55 582.42 297.55 582.47 297.56 582.49 297.58 582.52 297.62 582.54 297.64 582.57 297.64 582.61 297.64 582.64 297.64 582.67 297.66 582.7 297.7 582.74 297.73 582.78 297.76 582.82 297.78 582.93 297.82 582.97 297.84 583.14 298.05 583.18 298.08 583.2 298.08 583.25 298.06 583.27 298.07 583.29 298.08 583.29 298.1 583.28 298.13 583.28 298.16 583.3 298.2 583.43 298.31 583.47 298.37 583.5 298.39 583.52 298.41 583.55 298.42 583.57 298.43 583.59 298.46 583.62 298.51 583.67 298.49 583.72 298.46 583.76 298.44 583.78 298.45 583.81 298.48 583.83 298.5 583.86 298.5 583.9 298.49 583.93 298.5 584.06 298.61 584.07 298.63 584.1 298.7 584.13 298.71 584.16 298.71 584.17 298.69 584.18 298.65 584.19 298.62 584.21 298.62 584.26 298.6 584.32 298.6 584.34 298.6 584.37 298.61 584.4 298.63 584.41 298.64 584.41 298.68 584.42 298.69 584.44 298.7 584.48 298.71 584.49 298.72 584.54 298.77 584.56 298.81 584.57 298.85 584.56 298.87 584.55 298.88 584.53 298.9 584.53 298.93 584.57 298.98 584.71 298.95 584.77 299.01 584.78 299.06 584.77 299.1 584.77 299.13 584.84 299.18 584.85 299.21 584.84 299.24 584.85 299.28 584.88 299.3 584.91 299.32 584.93 299.34 584.95 299.41 584.98 299.43 585.04 299.45 585.08 299.48 585.1 299.52 585.12 299.61 585.12 299.67 585.13 299.69 585.14 299.71 585.17 299.73 585.23 299.73 585.25 299.75 585.28 299.77 585.37 299.79 585.4 299.79 585.44 299.77 585.44 299.77 585.45 299.74 585.46 299.69 585.48 299.65 585.53 299.61 585.58 299.59 585.64 299.59 585.69 299.59 585.74 299.59 585.84 299.54 585.89 299.52 585.91 299.51 585.93 299.48 585.94 299.47 586.01 299.45 586.05 299.44 586.08 299.44 586.11 299.45 586.13 299.46 586.14 299.48 586.15 299.51 586.17 299.5 586.2 299.49 586.23 299.5 586.25 299.52 586.28 299.55 586.32 299.55 586.36 299.53 586.4 299.53 586.42 299.55 586.43 299.62 586.45 299.65 586.48 299.66 586.51 299.65 586.54 299.66 586.56 299.69 586.54 299.73 586.51 299.77 586.49 299.81 586.51 299.86 586.55 299.91 586.57 299.93 586.58 299.95 586.59 300.03 586.64 300.06 586.69 300.08 586.71 300.11 586.66 300.33 586.7 300.39 586.72 300.43 586.83 300.5 586.98 300.53 587.01 300.54 587.03 300.56 587.07 300.62 587.12 300.66 587.14 300.68 587.17 300.8 587.2 300.85 587.25 300.86 587.31 300.86 587.34 300.88 587.38 300.9 587.42 300.92 587.55 300.94 587.57 300.95 587.59 300.99 587.6 301.01 587.65 301.03 587.69 301.04 587.71 301.06 587.7 301.17 587.73 301.19 587.83 301.2 587.88 301.22 587.93 301.29 587.97 301.32 588 301.33 588.03 301.33 588.15 301.33 588.18 301.33 588.21 301.34 588.24 301.35 588.26 301.34 588.28 301.32 588.3 301.26 588.32 301.25 588.38 301.21 588.4 301.21 588.42 301.2 588.44 301.18 588.46 301.13 588.47 301.11 588.49 301.1 588.54 301.09 588.58 301.1 588.66 301.16 588.77 301.2 588.79 301.23 588.76 301.35 588.76 301.37 588.74 301.39 588.73 301.41 588.69 301.42 588.68 301.44 588.67 301.46 588.67 301.5 588.66 301.54 588.6 301.57 588.59 301.6 588.61 301.73 588.61 301.78 588.6 301.86 588.59 301.89 588.61 301.93 588.66 301.96 588.71 301.96 588.76 301.93 588.8 301.92 588.87 301.99 588.91 302.01 588.96 302.02 588.99 302.02 589.02 302.01 589.08 301.98 589.11 301.98 589.14 301.99 589.16 302.01 589.18 302.03 589.22 302.04 589.25 302.02 589.31 301.96 589.34 301.94 589.37 301.94 589.41 301.96 589.47 301.99 589.52 301.98 589.57 301.98 589.62 301.98 589.67 302 589.71 302.03 589.74 302.06 589.77 302.06 589.83 301.97 589.85 301.95 589.9 301.93 589.91 301.92 589.92 301.9 589.92 301.87 589.92 301.85 589.95 301.85 589.96 301.9 589.97 302.01 590 302.08 590.04 302.13 590.09 302.18 590.15 302.22 590.25 302.26 590.3 302.29 590.33 302.33 590.34 302.35 590.35 302.41 590.39 302.46 590.39 302.48 590.39 302.51 590.39 302.54 590.41 302.6 590.43 302.63 590.51 302.7 590.54 302.75 590.54 302.79 590.53 302.84 590.53 302.89 590.55 302.96 590.59 302.97 590.69 302.96 590.75 302.97 590.75 302.96 590.77 302.96 590.8 302.95 590.87 302.88 590.88 302.87 590.88 302.84 590.87 302.82 590.86 302.81 590.85 302.79 590.84 302.76 590.85 302.74 590.85 302.72 590.83 302.7 590.83 302.7 590.83 302.7 590.83 302.7 590.81 302.68 590.81 302.67 590.81 302.65 590.81 302.63 590.82 302.59 590.82 302.58 590.81 302.56 590.79 302.52 590.79 302.49 590.98 302.29 591.02 302.3 591.05 302.35 591.05 302.41 591.03 302.46 591.02 302.51 591.02 302.53 591.04 302.55 591.05 302.58 591.07 302.65 591.08 302.68 591.12 302.7 591.12 302.7 591.12 302.7 591.16 302.71 591.21 302.72 591.25 302.73 591.29 302.75 591.34 302.82 591.36 302.84 591.38 302.84 591.4 302.83 591.42 302.82 591.44 302.82 591.46 302.83 591.53 302.89 591.58 302.91 591.61 302.91 591.69 302.87 591.73 302.84 591.76 302.8 591.78 302.76 591.78 302.76 591.78 302.7 591.78 302.65 591.79 302.63 591.81 302.6 591.83 302.57 591.83 302.53 591.83 302.49 591.84 302.45 591.86 302.43 591.9 302.42 591.93 302.44 591.96 302.47 591.99 302.49 592.02 302.48 592.07 302.43 592.1 302.42 592.14 302.42 592.18 302.44 592.22 302.47 592.26 302.49 592.26 302.52 592.26 302.6 592.27 302.63 592.34 302.66 592.5 302.65 592.56 302.7 592.56 302.7 592.58 302.76 592.61 302.8 592.66 302.82 592.72 302.83 592.78 302.82 592.81 302.81 592.83 302.8 592.86 302.81 592.92 302.84 592.99 302.91 593.11 303.07 593.2 303.12 593.25 303.12 593.37 303.11 593.49 303.14 593.55 303.11 593.59 303.07 593.66 303.05 593.7 303.06 593.69 303.1 593.67 303.14 593.67 303.17 593.71 303.17 593.9 303.12 593.99 303.1 594.03 303.09 594.07 303.1 594.08 303.12 594.09 303.14 594.1 303.16 594.12 303.17 594.16 303.17 594.23 303.14 594.26 303.13 594.31 303.13 594.35 303.15 594.4 303.17 594.46 303.17 594.53 303.13 594.58 303.09 594.62 303.03 594.65 302.96 594.68 302.92 594.7 302.91 594.75 302.94 594.92 302.95 594.95 302.95 594.99 302.98 595.02 302.98 595.05 302.98 595.11 302.95 595.13 302.95 595.18 302.97 595.28 303.02 595.33 303.03 595.38 303.05 595.41 303.06 595.43 303.07 595.44 303.1 595.41 303.15 595.42 303.25 595.4 303.31 595.37 303.38 595.31 303.58 595.17 303.82 595.12 303.94 595.12 303.97 595.12 303.99 595.13 304.04 595.13 304.05 595.15 304.07 595.16 304.08 595.15 304.11 595.14 304.12 595.13 304.13 595.12 304.15 595.1 304.21 595.1 304.23 595.1 304.27 595.11 304.29 595.14 304.34 595.14 304.37 595.13 304.43 595.08 304.55 595.04 304.63 595.03 304.8 595 304.88 595 304.9 595 304.92 595.01 304.93 595.05 304.97 595.09 305.06 595.13 305.08 595.16 305.1 595.19 305.13 595.24 305.19 595.28 305.27 595.31 305.36 595.33 305.4 595.38 305.47 595.4 305.51 595.41 305.55 595.42 305.66 595.44 305.76 595.44 305.8 595.44 305.85 595.43 305.9 595.39 306.01 595.29 306.2 595.26 306.31 595.24 306.36 595.24 306.39 595.25 306.42 595.25 306.42 595.23 306.52 595.16 306.64 595.08 306.72 595.01 306.73 594.98 306.7 594.91 306.66 594.88 306.63 594.86 306.61 594.85 306.56 594.84 306.54 594.83 306.54 594.78 306.5 594.78 306.49 594.74 306.5 594.67 306.56 594.63 306.56 594.59 306.54 594.55 306.52 594.53 306.54 594.51 306.59 594.5 306.62 594.46 306.64 594.43 306.64 594.4 306.61 594.36 306.59 594.31 306.61 594.29 306.63 594.23 306.67 594.15 306.7 594.07 306.68 593.91 306.59 593.85 306.58 593.77 306.58 593.7 306.6 593.64 306.64 593.61 306.68 593.57 306.77 593.55 306.79 593.52 306.78 593.42 306.74 593.39 306.72 593.37 306.69 593.36 306.65 593.34 306.63 593.27 306.65 593.15 306.66 593.09 306.64 593.03 306.57 593 306.49 592.98 306.42 592.98 306.42 592.98 306.42 592.95 306.3 592.95 306.25 592.94 306.21 592.92 306.21 592.88 306.23 592.82 306.3 592.79 306.33 592.71 306.35 592.64 306.38 592.58 306.42 592.55 306.47 592.51 306.52 592.46 306.56 592.4 306.57 592.38 306.57 592.3 306.54 592.27 306.54 592.25 306.57 592.24 306.6 592.22 306.61 592.17 306.61 592.02 306.51 591.87 306.44 591.83 306.42 591.83 306.42 591.8 306.38 591.77 306.35 591.73 306.34 591.69 306.33 591.62 306.3 591.48 306.22 591.42 306.2 591.4 306.2 591.35 306.21 591.33 306.2 591.32 306.19 591.32 306.15 591.3 306.14 591.26 306.13 591.22 306.14 591.13 306.16 591.08 306.2 591.07 306.2 591.04 306.2 591.03 306.19 591.02 306.17 591.01 306.17 590.97 306.16 590.96 306.15 590.95 306.15 590.9 306.16 590.89 306.15 590.88 306.14 590.73 306.05 590.66 306.02 590.58 306.05 590.53 306.05 590.49 306.08 590.34 306.21 590.29 306.24 590.25 306.24 590.24 306.23 590.23 306.21 590.23 306.19 590.23 306.17 590.21 306.15 590.19 306.16 590.17 306.17 590.15 306.16 590.03 306.07 590 306.03 589.97 305.94 589.99 305.76 589.97 305.67 589.94 305.64 589.77 305.54 589.74 305.53 589.57 305.6 589.47 305.65 589.39 305.69 589.35 305.71 589.31 305.7 589.27 305.69 589.24 305.73 589.2 305.76 589.2 305.77 589.16 305.8 589.09 305.82 589.05 305.82 588.85 305.77 588.78 305.7 588.78 305.61 588.78 305.54 588.69 305.5 588.64 305.51 588.51 305.56 588.46 305.55 588.45 305.52 588.46 305.48 588.42 305.46 588.39 305.46 588.36 305.45 588.31 305.42 588.29 305.38 588.28 305.33 588.25 305.28 588.2 305.25 588.09 305.21 588.04 305.18 588.04 305.18 588.01 305.14 587.98 305.14 587.94 305.15 587.91 305.17 587.89 305.17 587.62 305.1 587.59 305.08 587.58 305.03 587.6 304.97 587.63 304.91 587.65 304.86 587.66 304.76 587.66 304.67 587.64 304.57 587.6 304.48 587.54 304.4 587.48 304.36 586.84 304.24 586.79 304.21 586.75 304.15 586.73 304.1 586.7 304.08 586.63 304.09 586.61 304.08 586.59 304.02 586.57 304 586.51 303.98 586.49 303.96 586.47 303.94 586.46 303.9 586.42 303.89 586.38 303.91 586.26 304.05 586.22 304.08 586.15 304.08 586.06 304.06 586.03 304.06 586.03 304.06 585.98 304.07 585.88 304.08 585.83 304.09 585.85 304.13 585.91 304.21 585.92 304.23 585.93 304.25 585.93 304.27 585.91 304.28 585.89 304.29 585.88 304.32 585.87 304.31 585.86 304.3 585.76 304.26 585.45 304.1 585.29 304.04 585.05 304.01 584.84 304 584.78 304.02 584.77 304.05 584.77 304.08 584.77 304.11 584.81 304.15 584.8 304.18 584.79 304.21 584.74 304.29 584.7 304.32 584.66 304.35 584.61 304.35 584.56 304.33 584.54 304.31 584.52 304.27 584.5 304.23 584.47 304.19 584.36 304.1 584.28 304.07 584.01 304.07 583.87 304.04 583.76 303.98 583.71 303.96 583.43 303.94 583.38 303.89 583.36 303.79 583.34 303.61 583.31 303.51 583.27 303.45 583.26 303.44 583.21 303.42 582.93 303.5 582.74 303.52 582.66 303.49 582.54 303.37 582.37 303.28 582.1 303.06 582 303.03 581.97 303 581.93 302.96 581.88 302.92 581.88 302.92 581.83 302.9 581.71 302.89 581.65 302.92 581.56 303.03 581.51 303.06 581.45 303.06 581.39 303.02 581.32 302.97 581.21 302.91 581.12 302.82 581.08 302.78 581.03 302.76 580.91 302.73 580.87 302.7 580.87 302.7 580.87 302.7 580.84 302.65 580.8 302.62 580.6 302.52 580.57 302.49 580.56 302.47 580.55 302.44 580.54 302.41 580.51 302.36 580.48 302.32 580.43 302.28 580.38 302.27 580.34 302.27 580.33 302.29 580.32 302.32 580.3 302.35 580.27 302.37 580.23 302.38 580.21 302.37 580.21 302.33 580.18 302.32 580.16 302.3 580.17 302.28 580.21 302.27 580.18 302.21 580.05 302.06 580.02 301.99 579.97 301.84 579.93 301.78 579.87 301.75 579.65 301.71 579.55 301.69 579.53 301.67 579.53 301.63 579.52 301.61 579.5 301.59 579.46 301.6 579.42 301.6 579.38 301.59 579.34 301.58 579.3 301.55 579.29 301.52 579.28 301.48 579.27 301.44 579.24 301.43 579.14 301.43 579.1 301.42 579.07 301.4 578.98 301.31 578.95 301.28 578.88 301.27 578.84 301.25 578.81 301.22 578.77 301.13 578.74 301.11 578.66 301.1 578.62 301.09 578.58 301.07 578.57 301.05 578.57 301.02 578.57 301 578.57 300.99 578.52 300.98 578.48 300.98 578.44 301.01 578.41 301.04 578.41 301.08 578.43 301.24 578.42 301.28 578.37 301.25 578.28 301.14 578.24 301.12 578.19 301.12 578.15 301.13 578.11 301.13 578.06 301.11 578.04 301.08 577.98 300.96 577.96 300.94 577.92 300.93 577.9 300.93 577.89 300.91 577.86 300.87 577.85 300.85 577.81 300.83 577.74 300.81 577.69 300.8 577.66 300.77 577.59 300.67 577.51 300.63 577.5 300.63 577.45 300.62 577.41 300.59 577.4 300.49 577.4 300.43 577.41 300.39 577.42 300.35 577.45 300.31 577.49 300.28 577.52 300.26 577.55 300.23 577.57 300.19 577.57 300.19 577.57 300.11 577.58 300 577.63 299.9 577.7 299.87 577.73 299.87 577.78 299.87 577.82 299.86 577.85 299.83 577.84 299.79 577.81 299.68 577.82 299.64 577.86 299.64 577.88 299.66 577.91 299.67 577.95 299.5 577.96 299.44 577.95 299.39 577.94 299.38 577.92 299.38 577.9 299.38 577.89 299.35 577.87 299.25 577.82 299.17 577.81 299.12 577.82 299.08 577.84 299.06 577.9 299.04 577.92 299.02 577.92 298.98 577.94 298.97 577.96 298.95 577.98 298.93 577.98 298.93 578.02 298.89 578.04 298.87 578.06 298.85 578.06 298.84 578.05 298.82 578.05 298.81 578.06 298.79 578.07 298.78 578.1 298.77 578.11 298.76 578.16 298.7 578.19 298.65 578.19 298.59 578.17 298.53 578.14 298.46 578.12 298.39 578.12 298.33 578.15 298.26 578.21 298.21 578.34 298.18 578.39 298.14 578.5 297.99 578.55 297.92 578.58 297.82 578.6 297.78 578.63 297.76 578.71 297.75 578.76 297.74 578.78 297.72 578.84 297.66 578.92 297.61 578.94 297.59 579.01 297.48 579.04 297.45 579.17 297.35 579.22 297.28 579.19 297.21 579.22 297.18 579.26 297.13 579.29 297.11 579.31 297.14 579.34 297.18 579.37 297.19 579.52 297.14 579.54 297.14 579.56 297.16 579.59 297.21 579.62 297.26 579.65 297.34 579.7 297.42 579.71 297.46 579.74 297.57 579.74 297.58 579.77 297.6 579.83 297.59 579.88 297.59 579.98 297.63 580.03 297.62 580.05 297.59 580.05 297.52 580.08 297.5 580.12 297.48 580.14 297.47 580.14 297.46 580.15 297.44 580.16 297.4 580.16 297.38 580.14 297.34 580.14 297.33 580.17 297.31 580.2 297.31 580.24 297.31 580.26 297.3 580.3 297.28 580.33 297.24 580.34 297.2 580.35 297.12 580.38 297.08 580.39 297.05 580.39 297.03 580.37 296.99 580.37 296.97 580.37 296.88 580.37 296.84 580.4 296.8 580.41 296.76 580.4 296.72 580.41 296.69 580.45 296.68 580.49 296.69 580.58 296.77 580.62 296.8 580.68 296.81 580.7 296.8 580.73 296.7 580.74 296.68 580.76 296.67 580.8 296.66 580.83 296.65 580.84 296.63 580.85 296.6 580.86 296.59 580.91 296.58 580.96 296.6 581.23 296.72 581.28 296.73 Z" id="Nepal" transform="translate(-577.4000244140625,-296.5799865722656) "/></svg>