<svg xmlns="http://www.w3.org/2000/svg" viewBox="0 0 798 584"><path d="M 547.21 578.17 542.98 577.93 537.4 577.04 526.07 578.46 521.22 575.55 516 577.22 511.19 576.65 507.23 577.45 503.1 575.45 502.54 575.51 500.99 573.37 498.97 572.31 496.49 573.45 495.09 573.66 490.51 576.91 485.22 576.89 482.87 577.82 481.98 577.24 482.03 576.83 484.89 572.13 484.05 568.11 482.15 567.43 478.14 565.18 475.67 564.68 474.02 563.11 473.44 561.61 472.98 558.49 473.07 556.82 473.91 554.26 477.67 552.66 480.11 552.64 481.28 552.28 484.54 547.33 485.31 546.96 488.67 546.71 489.68 545.42 490.47 543.54 495.65 537.66 495.63 536.96 494.53 536.34 491.6 537 490.22 536.96 488.98 536.22 489.15 535.39 496.84 529.53 498.41 525.65 497.71 525.63 497.82 525.1 499.2 522.77 498.25 521.82 496.95 521.22 497.05 520.23 500.89 514.54 503.7 515.15 504.85 514.78 504.42 512.95 505.72 511.3 504.61 509.58 505.12 508.66 506.79 508.18 509.19 508.45 511.62 507.25 511.97 506.47 511.29 505.44 508.44 504.84 507.7 504.26 507.99 503.05 509.62 501.29 513.46 500.12 516.6 497.85 513.4 496.2 511.5 493.21 510.24 493.16 509.17 493.87 508.94 494.42 500.89 494.98 501.59 493.82 500.46 492.98 501.18 491.95 500.68 491.31 500.89 490.57 496.84 489.27 493.98 488.77 488.51 490.42 485.8 490.57 474.62 489.51 473.83 486.73 458.41 483.22 454.99 480.77 453.17 472.99 445.2 467.52 441.73 466.55 440.37 466.62 438.56 468.56 431.77 470.45 430.49 471.46 428.71 472 426.17 474.1 413.15 471.67 408.3 473.55 397.01 473.38 394.01 472.91 388.98 473.94 386.85 472.87 386.48 471.63 388.38 468.58 390.05 464.99 387.43 463.38 382.68 461.23 376.76 461.83 375.97 462.24 367.55 462.88 364.6 453.68 354.98 446.46 355.15 444.48 359.46 439.57 358.9 435.36 356.28 431.65 349.86 430.7 347.02 427.84 343.96 429.84 343.03 430.87 342.41 432.21 342.85 434.09 340.7 437.39 333.35 441.33 327.99 445.06 326.15 445.97 324 445.74 315.54 442.23 304.85 443.53 297.54 443.49 294.47 442.28 292.55 439.49 295.17 438.87 300.27 440.19 305.26 440.83 304.08 437.28 306.29 433.47 306.02 428.99 299.07 425.42 293.78 424.04 288.17 425.34 285.03 427.59 282.29 430.97 281.4 431.53 279.91 431.88 278.96 433.94 273.04 436.27 272.75 437.61 273.1 440.21 269.74 439.82 269.43 440.36 265.16 440.5 263.5 439.92 259.73 439.74 254.9 438.97 243.81 440.58 242.41 435.74 246.87 430.58 243.94 427.96 234.75 428.93 231.72 428.74 229.28 429.67 224.33 430.79 217.35 433.32 214.55 435.47 213.91 441.9 215.47 444.71 220.57 448.34 221.17 450.36 220.18 452.09 214.81 453.7 204.43 453.56 202.57 449.31 190.87 449.52 190.11 450.22 178.59 450.38 181.4 447.02 180.8 446.46 179.21 445.95 177.25 445.43 175.64 445.43 174.15 444.11 168.89 445.08 165.9 446.28 164.29 446.5 162 446.28 159.25 445.43 154.21 444.92 151.45 443.99 148.81 443.76 147.9 443.02 145.83 442.63 143.77 441.41 143.54 440.67 142.61 440.15 143.42 439.28 140.22 438.77 139.87 438.03 139.06 438.38 138.84 437.98 136.19 437.16 136.32 436.6 135.74 435.67 135.86 435.22 135.39 435.22 135.29 434.54 134.94 434.54 135.29 435.22 134.94 435.41 134.94 435.9 134.61 435.9 135.06 436.02 135.16 436.54 134.94 437.28 134.61 437.28 134.48 436.71 134.83 436.54 133.57 436.44 133.33 435.9 129.9 434.25 129.2 433.22 128.17 432.7 127.48 432.7 125.32 433.86 122.45 433.9 120.71 434.89 120.03 434.48 120.16 435.06 119.46 435.28 118.65 435.28 117.74 434.77 117.16 434.99 117.52 436.09 116.71 436.48 116.94 437.18 117.52 437.51 117.52 438.15 116.94 439.12 116.03 439.76 115.78 441.24 114.75 441.99 114.75 442.5 113.61 444.28 113.16 444.5 113.16 445.25 112.36 446.46 110.87 446.69 107.42 445.95 104.9 446.4 103.75 447.25 98.71 448.11 94.01 448.4 92.04 446.85 86.66 444.34 87.13 443.76 86.88 443.18 84.59 443.31 83.11 442.73 82.76 442.28 80.14 443.08 78.88 443.08 76.46 442.34 75.31 440.38 74.5 440.03 74.05 439.57 74.17 439.28 73.01 438.25 67.85 435.8 67.52 435.12 66.49 435.12 66.82 434.42 67.28 434.35 67.4 433.74 68.08 433.45 68.43 433.9 70.27 434.02 70.72 434.48 71.53 434.6 71.65 434.93 72.44 435.06 72.56 435.51 71.98 435.8 71.65 436.48 73.14 435.96 73.24 435.63 75.08 436.25 73.59 435.16 73.59 434.64 76.34 434.02 76.81 433.51 76.69 433.16 76.01 433.05 75.31 434.02 73.59 434.54 71.76 434.48 69.34 433.28 69.59 432.93 72.79 432.31 73.24 431.78 73.72 431.84 73.82 432.41 74.5 432.25 73.82 431.38 74.62 431.16 74.85 430.58 75.2 430.52 75.08 430.06 74.17 430.99 72.91 430.52 72.09 429.55 71.65 429.55 71.53 429.77 72.11 430.13 72.56 430.99 70.95 432.19 68.56 432.93 67.17 432.58 66.72 433.22 66.02 433.32 66.02 433.74 65.11 433.45 64.53 432.64 64.08 432.58 63.95 433.22 62.12 433.9 61.89 434.83 59.27 435.45 58.69 436.44 57.99 436.66 55.14 436.89 55.24 436.48 54.67 436.38 54.21 436.54 54.44 436.89 51.92 437.18 50.89 436.77 50.31 435.63 50.66 435.34 50.21 435.22 49.73 435.51 49.86 436.09 49.63 436.19 50.31 436.48 50.08 436.83 50.54 437.22 47.67 436.99 45.27 437.51 43.89 437.06 43.54 436.44 41.72 435.28 40.34 435.22 40.11 434.77 39.31 434.83 36.32 433.32 35.18 432.58 35.18 432.25 33.12 430.52 30.93 427.65 28.86 425.94 27.61 425.32 26 425.09 20.73 422.55 18.21 420.49 17.18 420.26 17.06 419.58 16.15 419.58 16.03 418.84 17.18 416.04 22.67 414.08 23.83 413.21 25.44 412.88 28.64 411.11 33.57 409.6 41.72 406.34 45.15 405.47 46.99 405.37 52.5 405.76 55.24 406.92 56.4 407.02 58.57 406.28 62.47 406.11 62.59 405.6 67.52 404.4 67.94 400.96 65.69 400.21 65.91 399.99 67.17 400.57 67.05 400.09 66.49 400.05 66.72 399.57 64.66 399.86 64.3 399.76 65.11 399.41 67.17 399.41 67.98 398.96 68.31 398.25 70.95 396.67 70.37 396.13 70.72 395.92 71.4 395.97 71.65 396.32 72.91 395.68 74.25 395.57 75.45 393.86 74.4 393.63 74.05 392.93 75.62 392.71 75.39 390.54 73.94 390.58 72.21 390.13 69.46 388.64 67.52 386.87 67.63 386.52 66.6 384.68 66.6 382.62 67.05 381.65 68.89 379.75 68.89 379.19 71.98 377.65 74.62 377.4 84.14 374.88 89.88 374.66 94.91 375.4 96.17 375.11 96.75 374.78 96.75 373.56 97.21 372.76 98.24 372.14 102.61 370.82 103.29 369.79 103.87 369.62 105.01 367.89 105.23 367.44 104.9 367.15 105.13 365.5 102.94 361.93 103.29 361.7 103.17 361.08 103.52 360.67 104.78 360.05 105.59 359.12 109.84 358.15 113.39 357.87 122.22 355.45 126.8 354.54 127.48 354.15 130 353.97 132.54 353.29 133.68 353.45 132.77 354.03 135.29 354.32 135.74 354.54 135.64 355.35 136.32 355.86 140.22 357.7 140.22 357.06 141.48 357.29 143.65 355.7 143.89 355.18 146.99 353.86 146.87 352.6 147.09 352.32 146.64 352.25 146.29 351.39 144.93 350.42 144.68 349.68 143.77 349.28 143.65 348.81 143.09 348.75 143.09 348.23 142.16 347.55 141.58 347.55 141.35 346.71 139.87 345.84 139.19 344.81 139.77 343.65 142.16 342 142.61 341.14 143.65 340.85 143.89 340.23 143.54 339.98 144.22 339.13 144.12 338.91 142.39 337.75 140.9 337.4 133.45 338.97 132.19 338.85 129.65 339.26 127.67 335.01 125.46 332.2 124.86 329.65 126.35 327.36 128.48 325.52 134.87 324.28 137.35 324.8 138.38 324.34 140.67 324.28 140.55 325.05 145.15 325.6 149.38 327.15 151.14 327.23 153.82 325.15 153.41 324.98 154.21 324.12 155.58 323.83 160.28 321.37 161.67 319.87 162.7 319.37 163.15 318.61 164.18 318.22 165.22 316.84 165.9 316.55 169.34 313.45 172.44 311.8 175.41 309.29 177.48 308.07 178.4 307.04 178.86 307.04 179.09 306.46 180.47 305.72 180.57 305.39 182.76 304.29 190.33 298.39 191.24 298.17 190.33 297.65 190.33 297.36 191.92 297.71 196.75 294.56 197.79 293.75 197.79 293.4 203.5 289.17 209.01 284.12 209.94 283.6 217.72 275.77 220.82 271.8 224.95 267.33 226.33 265.16 227.24 264.42 232.07 258.05 232.65 256.85 235.27 253.82 237.11 250.5 239.87 247.05 240.66 245.05 242.62 242.8 243.42 241.38 243.53 240.41 247.43 234.55 248.19 232.1 248.09 230.01 247.34 227.99 246.39 226.88 243.53 227.17 242.84 226.59 242.62 225.91 242.97 225.91 243.19 226.65 243.75 227 245.13 226.94 247.55 226.26 248.23 226.59 248.58 227.29 249.61 227.17 249.12 226.75 249.43 226.3 250.38 226.34 250.44 227.06 251.08 226.3 252.32 226.22 252.13 226.48 252.63 227.02 253.82 227.39 253.18 227.1 252.59 226.3 255.56 227.25 255.68 226.98 253.16 226.13 256.03 225.45 257.29 225.47 257.97 225.1 257.13 224.92 256.94 224.36 257.52 224.07 256.84 223.95 250.19 225.27 247.94 225.16 246.21 224.9 244.87 225.33 245.59 224.88 246.7 224.88 247.88 225.12 249.28 225.06 250.98 224.2 252.01 222.81 252.36 221.78 253.29 220.81 253.29 220.23 255.1 217.49 255.58 215.43 256.26 214.79 256.94 209.86 257.52 207.63 258.2 206.66 260.26 197.42 260.74 193.07 261.3 191.93 261.3 190.9 262.23 188.26 262.45 184.42 262.8 183.91 263.13 181.5 263.71 180.75 264.17 175.24 264.87 173.92 265.09 170.21 267.39 164.31 270.94 159.38 271.39 159.26 271.74 158.19 272.42 157.38 273.93 153.54 274.26 151.81 276.1 148.26 276.9 145.58 278.06 143.79 278.06 143.11 279.42 140.14 280 137.83 280.35 129.57 280.8 126.67 281.48 125.22 283.22 123.57 285.51 122.89 288.83 122.99 290.09 122.71 293.06 122.83 293.29 122.6 295.13 122.99 294.22 123.67 294.8 123.74 294.9 124.19 295.6 124.19 295.83 124.89 296.74 124.89 297.09 124.66 296.16 124.66 296.05 124.15 297.19 123.63 296.28 123.22 296.28 122.93 298.22 122.77 298.7 124.25 298.45 124.77 297.89 124.89 298.22 125.18 296.39 126.89 296.28 128.73 296.39 129.12 297.09 129.24 296.96 130.05 298.45 131.82 298.45 132.21 299.96 133.02 299.83 133.47 300.51 133.95 304.08 135.08 306.02 136.11 308.09 136.4 311.41 137.95 313.25 138.4 320.25 137.56 320.7 136.86 325.98 135.43 326.09 135.08 326.89 134.79 326.31 134.57 326.44 134.34 327.02 134.05 328.15 134.24 329.53 133.2 330.44 132.05 331.02 130.56 332.18 129.99 336.88 129.47 339.85 128.6 341.46 129.06 343.63 128.89 345.14 127.8 344.79 127.47 346.27 127.92 346.95 127.8 346.73 127.99 346.95 128.5 347.99 128.79 347.43 128.21 348.34 128.6 349.49 128.03 349.37 127.57 350.52 127.57 351.78 126.95 380.78 111.81 380.68 110.91 381.82 110.74 381.13 111.07 381.26 111.59 399.48 101.79 401.42 101.17 408.09 100.2 407.97 99.44 408.65 99.44 409.12 99.95 410.61 99.73 416.35 96.63 417.94 96.3 418.87 93.54 419.77 92.63 421.51 92.05 421.51 91.7 422.19 91.47 423.1 90.38 424.03 88.44 424.6 85.93 425.06 85.51 424.6 85.41 424.48 84.83 425.39 82.19 425.39 80.58 423.8 79.84 423.8 79.16 425.97 78.81 425.74 78.54 424.93 78.64 424.71 78.29 425.64 77.67 426.67 77.49 427 76.52 431.35 70.62 432.51 69.71 435.48 68.33 438.47 66.43 439.05 65.75 440.31 65.59 448.9 62.08 450.05 61.23 450.16 60.76 453.83 58.92 454.99 57.05 458.99 54.34 463.02 52.63 468.51 51.37 471.6 50.11 472.18 49.48 480.66 47.87 487.89 46.03 497.3 42.9 511.29 38.77 513.81 37.74 518.74 36.58 521.94 35.22 520.46 33.9 520.58 33.65 523.1 34.93 533.3 35.16 548.78 32.35 551.54 32.35 558.42 31.49 559.9 31.43 563 32 564.61 31.2 574.47 32.17 582.38 29.82 584.09 30 585.6 30.62 587.31 30.39 587.08 30.81 589.48 30.33 590.06 30.62 589.95 30.91 590.41 30.91 596.48 29.71 598.44 29.78 600.5 30.29 605.99 32.23 608.53 33.61 609.89 33.61 612.76 32.68 613.57 32 615.05 31.78 615.53 31.32 615.4 30.62 617.47 30.68 619.18 29.94 620.21 29.94 624.24 28.91 629.85 28.62 631.01 28.23 633.63 28.04 637.76 28.04 648.55 26.68 654.04 26.56 659.78 25.98 669.75 24.27 680.42 21.34 689.25 20.08 701.06 19.34 701.52 19.98 702.09 19.5 703.58 19.75 707.03 20.53 709.54 21.63 710.58 21.69 714.02 19.79 718.25 20.88 717.92 22.56 714.7 21.79 713.57 22.21 713.57 21.63 712.99 21.69 712.64 22.21 712.76 22.43 713.8 22.27 717 22.72 716.89 23.46 715.63 23.53 717.35 24.1 720.55 24.14 720.55 23.63 718.73 23.34 718.73 22.66 719.18 22.43 719.06 21.75 719.41 21.24 723.08 22.04 728.24 25.01 728.24 25.98 727.21 27.07 726.51 27.3 726.51 28.1 726.06 28.23 726.18 29.65 725.95 30 726.28 30.91 725.95 31.32 727.32 31.94 728.93 33.65 728.24 34.52 729.05 34.69 729.38 35.16 728.93 36.48 729.83 39.06 730.54 39.22 730.18 40.03 730.54 41.06 730.18 41.22 730.76 41.68 731.11 43.18 731.67 43.35 731.9 43.8 733.18 43.8 736.83 45.87 737.99 46.09 738.09 46.44 739.12 46.44 740.63 47.31 740.73 47.87 739.37 47.76 738.67 46.9 737.99 47.58 740.51 48.67 741.99 48.67 742.69 49.12 744.06 49.25 744.41 49.66 745.09 49.41 751.98 51.54 754.38 50.63 754.27 50.92 754.73 51.37 754.05 52.28 757.24 53.09 759.89 52.8 761.83 53.6 767.92 53.54 768.82 52.8 770.43 52.63 772.5 51.83 772.72 52.05 772.39 52.47 769.63 54.01 769.17 54.86 769.63 57.33 769.05 57.56 769.05 58.14 768.27 59.44 768.72 61.01 771.59 62.59 772.39 62.59 773.08 63.11 775.14 63.63 776.05 63.4 777.08 63.75 779.85 63.81 781.56 64.66 782.71 64.6 783.75 65.01 785.91 64.72 787.87 65.63 794.85 66.49 794.52 66.14 795.62 66.53 796.03 68.33 795.59 68.29 796.92 71.16 797.06 74.35 796.81 75.03 795.08 76.52 799 78.29 794.19 78.99 791.47 82.03 791.28 84.87 789.9 86.52 789.07 86.92 789.48 89.06 790.48 89.78 789.9 90.3 794.01 92.03 793.28 98.69 796.07 113.13 797 113.96 795.35 115.36 789.63 127.51 773.76 143.42 770.17 146.37 771.28 148.78 767.01 154.41 763.62 188.96 760.79 191.17 759.51 190.74 754.79 190.34 753.43 189.91 752.6 189.29 750.62 189.4 747.15 188.36 745.54 189.29 743.75 189.31 742.45 189.89 739.43 190.1 737.49 189.64 735.57 189.71 734.77 189.31 734.4 188.28 732.06 187.87 730.91 187.33 727.34 187.5 725.95 186.96 724.18 187.62 721.52 187.87 718.56 187.19 714.75 188.08 712.56 187.79 711.48 187.21 709.63 187.46 708.82 187.04 706.2 187.27 704.26 188.24 702.38 187.85 701.27 188.47 701.08 187.99 698.89 188.57 695.63 191.05 692.31 192.28 693.18 192.39 695.32 194.02 695.82 194.8 694.08 200.25 703.99 205.44 703.97 205.86 701.02 206.35 698.58 205.75 695.63 205.51 694.56 207.55 693.59 208.15 693.55 208.52 686.28 207.55 691.34 214.36 689.75 221.37 694.46 223.27 695.16 223.29 701.19 226.01 705.62 226.88 722.07 226.88 721.72 228.88 723.64 228.57 740.11 231.85 741.41 231.56 744.39 230.09 747.52 225.66 749.65 224.83 750.45 225.25 753.3 230.07 754.4 233.17 756.71 234.49 759.54 238.66 762.8 239.19 763.6 238.96 764.28 239.32 764.24 240 765.42 241.3 767.05 244.66 767.05 249.01 763.79 251.94 763.62 253.16 761.87 254.87 762.07 255.67 761.81 256.46 760.15 257.24 760.67 257.49 757.66 261.41 757.57 262.4 758.24 263.68 757.82 264.42 758.09 265.27 758.71 265.6 760.9 268.85 765.75 271.91 764.74 273.25 760.2 274.73 756.11 275.27 752.87 274.55 749.07 275.21 749.17 275.6 748.25 276.16 747.69 278.03 746.82 279.35 744.36 281.6 744.34 282.26 742.09 284.35 734 285.13 732.91 285.54 732.7 286.62 727.46 289.5 727.79 289.52 725.89 294.43 726.02 294.83 724.69 295.28 722.3 296.85 715.26 297.3 702.73 297.2 702.11 301.18 701.6 302.11 700.57 301.9 699.41 302.48 699.64 303.12 700.61 303.61 700.79 304.05 700.11 304.77 697.57 306.27 689.13 307.28 689.56 307.8 689.4 308.4 688.08 310.05 687.52 310.19 687.69 313.45 693.26 313.45 701.08 315.78 703.46 317.08 703.89 317.81 705.15 317.99 713.24 322.08 712.48 322.71 716.36 323.02 717.14 324.53 716.98 325.97 717.66 327.5 716.75 329.09 713.67 329.21 713.42 329.58 710.58 330.18 710.08 333.3 710.29 333.54 709.63 335.07 707.98 335.88 708.57 336.21 704.67 338.97 701.52 339.61 701.45 340.23 700.79 340.83 697.88 341.36 696.95 342.58 694.7 343.1 690.91 340.99 690.99 340.37 689.71 340.27 689.3 339.05 688.16 339.24 687.05 338.99 686.96 338.68 684.96 339.03 677.35 341.4 676.66 342.11 674.83 341.92 666.61 343.57 661.47 345.57 661.41 346 660.52 346.07 659.8 345.59 659.76 345.16 658.95 345.34 659.18 345.8 658.13 345.47 657.28 346.21 654.02 347.74 652.12 347.78 649.58 348.99 649.17 348.89 649.4 349.61 648.86 350.19 644.38 351.2 643.29 351.84 641.18 351.39 638.85 349.47 637.9 349.55 637.41 349.99 634.99 350.69 634.33 350.32 634.06 349.39 632.23 349.1 630.76 348.31 628.76 348.66 626.4 347.7 625.56 349.59 625.85 350.15 626.53 350.27 628.45 351.47 629.89 351.74 630.2 352.15 628.8 353.74 629.98 355.39 628.88 355.37 629.91 357.14 628.68 357.31 626.14 356.07 623.99 355.74 622.11 356.01 620.65 355.47 620.87 355 620.09 353.49 617.32 352.5 611.81 352.34 609.03 352.79 608.39 351.86 607.77 349.63 607.31 349.47 607.44 348.93 603.43 347.65 601.43 347.65 599.78 348.89 594.06 348.48 590.2 348.95 586.18 347.55 583.97 346.13 583.29 345.22 585.25 344.91 584.86 344.6 585.19 344.04 584.09 343.82 580.75 342.04 579.9 342.56 578.19 341.24 571.65 342.66 570.1 341.96 569.46 342.79 568.86 342.5 568.38 343.36 567.06 343.84 570.2 344 574.06 345.28 574.97 346.42 575.57 348.52 576.74 349.22 580.17 350.36 579.67 350.71 579.53 351.9 579.92 352.56 580.09 354.52 573.87 353.2 566.24 352.73 565.02 352.44 558.83 349.45 558.02 351.06 556.43 351.26 557.16 352.15 552.97 354.09 552.47 354.21 551.73 353.64 549.33 354.44 549.04 355.06 548.01 355.64 544.44 356.59 539.72 356.07 538.08 355.35 534.39 358.05 537.03 359.39 536 359.89 535.03 359.52 534.55 359.8 535.15 360.42 535.03 360.61 537.88 361.39 541.24 363.52 540.46 363.85 540.93 364.14 540.09 365.11 540.58 365.25 540.5 366.03 541.49 365.83 541.99 366.22 542.58 366.03 543.2 366.45 543.78 366.41 542.32 367.33 542.54 367.5 542.09 368.36 544.01 369.13 543.78 369.91 535.71 373.52 536.08 373.71 535.92 374.82 536.47 375.71 544.19 375.61 551.75 378.27 552.39 378.66 552.55 379.17 552.92 379.13 553.05 379.92 553.67 379.83 553.56 379.46 555.03 380.06 554.41 380.82 552.22 380.91 551.19 381.65 551.5 383.49 552.06 383.92 552.31 385.07 551.56 385.71 552.45 386.87 552.06 387.07 552.08 388.29 553.36 389.18 560.71 391.03 561.35 390.81 562.13 391.1 562.21 391.51 563.41 391.24 563.91 391.86 566.3 392.21 567.04 391.76 570.14 392.62 569.64 393.22 569.91 393.72 568.34 394.54 568.74 394.91 568.03 395.53 566.38 399.22 565.8 399.88 565.14 399.64 565.23 400.96 564.57 402.98 570.78 405.68 572.7 408.09 575.9 410.16 578.15 411.06 582.28 416.84 587.17 419.34 589.52 422.06 589.97 424.14 589.71 426.66 590.99 428.12 591.85 430 591.15 434.04 591.25 435.78 589.89 435.9 590.1 438.36 588.1 445.55 589.31 445.27 592.47 445.51 590 447.6 590.35 447.78 590.08 448.03 592.41 453.6 584.92 457.95 585.6 458.92 580.54 459.27 580.69 459.97 578.62 462.06 578.66 462.84 577.59 463.79 577.55 464.55 575.55 466.57 572.53 468.84 571.44 471.32 563.29 476.93 560.75 477.92 563.45 482.05 560.85 482.09 559.78 482.48 560.87 490.21 562.73 492.57 566.4 492.9 568.61 492.11 570.96 490.59 579.8 487.86 583.04 489.51 574.39 492.22 581.95 495.27 579.32 496.44 579.47 497.27 576.21 497.31 573.69 497.97 571.75 498.03 570.84 498.55 570.76 498.9 569.66 499.27 564.71 500.12 564.15 501.11 563.68 501.29 564.03 501.58 563.16 501.97 563.72 502.26 562.98 502.41 562.42 501.95 562.34 502.76 561.41 503 561.39 503.38 558.19 504.06 556.7 505.93 553.48 507.95 549.99 508.8 549.4 508.47 548.76 509.05 547.79 509.19 545.29 510.57 543.37 512.55 541.68 513.05 541.47 513.3 541.9 513.69 539.51 515.46 539.76 516.04 539.26 516.49 539.59 516.85 539.22 517.51 539.34 518.33 538.97 518.83 537.05 519.51 537.38 520.06 537.05 520.81 534.68 520.33 532.97 520.72 532.26 519.49 530.55 518.06 529.02 514.8 527.83 514.21 524.36 516.19 523.51 516.99 518.15 517.4 518.37 518.41 520.56 520.23 520.37 521.36 519.86 521.92 520.73 523.65 520.71 524.23 521.86 525.2 522.69 525.16 524.23 525.69 524.21 527.06 526.24 527.51 525.89 530.54 523.59 532.03 524.52 533.16 526.07 533.22 528.94 532.56 532.04 531 536.5 530.36 536.91 531.06 539.18 532.19 541.78 531.45 542.56 531.66 551.19 531.41 551.29 531.76 548.96 535.66 546.84 536.88 549.21 537.76 548.86 538.73 549.5 541.5 554.33 542.34 555.15 542.82 556.25 542.4 557.3 543 556.87 543.99 557.45 544.1 559.8 544.32 560.54 543.83 562.89 544.2 564.11 544.73 565.12 544.2 564.83 544.92 562.46 546.8 561.28 549.95 561.35 550.55 562.05 551.29 562.07 552.14 563.53 552.78 563.76 553.13 563.29 553.44 563.95 554.29 563.51 554.51 563.64 554.84 562.98 555.85 562.46 555.92 562.46 556.33 561.7 556.7 561.02 559.57 557.47 558.68 557.55 557.75 557.05 557.38 554.43 558.64 549.64 559.67 549.02 561.22 549.54 561.53 549.15 562.25 549.62 563.18 550.9 563.51 550.45 563.75 551.17 565.12 550.3 565.75 550.92 566.29 549.15 567.14 547.89 568.35 546.46 568.95 542.75 567.03 541.9 567.43 541.66 568.04 540.75 568.73 540.56 569.63 541.63 570.21 543.41 570.5 544.85 571.28 544.94 571.82 546.13 572.5 551.48 574.65 549.52 576.81 550.16 578.89 554.1 580.46 553.96 582.09 552.59 583.45 552.84 583.76 552.74 584.63 553.52 584.71 553.32 585 551.6 584.2 551.65 584.65 548.14 578.11 547.21 578.17 Z M 325.08 435.12 324.46 435.61 324.29 437.63 324.68 438.81 328.03 439.49 329.45 439.02 329.27 437.2 329.68 436.27 332.65 435.45 331.72 434.23 327.72 435.06 326.42 434.83 325.08 435.12 Z M 394.9 63.23 395.36 63.4 393.56 63.52 391.91 64.04 390.01 63.96 389.64 63.61 389.84 62.95 390.96 62.74 394.9 63.23 Z M 369.43 53.95 371.97 54.41 369.33 56.12 365.43 57.89 363.82 57.89 361.98 56.92 362.43 56.63 362.79 55.56 365.43 54.12 365.53 53.77 367.72 53.66 369.43 53.95 Z M 438.7 29.14 437.09 28.97 436.74 29.65 437.21 29.59 437.32 30.06 436.86 30.11 433.77 29.71 434.45 30.23 437.9 30.81 437.9 31.26 437.21 31.59 433.64 32.17 420.93 32.11 417.13 33.03 415.19 34 413.48 35.32 410.38 36.52 407.74 36.87 406.58 37.55 404.07 37 403.49 37.55 402.13 38.03 400.39 37.78 400.87 38.13 400.39 39.06 396.62 38.42 394.9 38.87 392.61 38.54 389.74 39.9 385.39 39.97 385.26 40.42 384.46 41 384.35 41.97 381.82 41.86 379.98 43.41 378.27 43.99 375.4 43.93 370.81 42.32 370.81 41.29 371.17 40.87 377.36 36.48 378.39 35.04 379.75 33.94 416 28.56 443.51 23.11 450.73 23.11 453.38 24.14 452.12 24.39 452.34 24.85 451.66 25.18 451.19 26.5 446.73 26.97 445.12 26.91 444.89 26.56 444.77 27.36 442.15 28.17 440.87 28.04 440.99 28.52 438.7 29.14 Z M 479.4 18.37 481.47 18.53 481.59 18.99 484.11 19.98 488.24 20.66 499.47 20.43 531.81 18.76 537.2 18.82 540.52 19.46 541.1 20.02 540.07 20.66 538 20.6 535.13 21.11 526.65 21.17 523.33 22.43 518.62 22.82 517.49 23.34 505.78 25.18 499.94 25.13 499.36 26.21 498.33 26.21 499.24 25.46 498.91 24.72 488.82 24.1 487.43 25.53 484.91 26.39 484.56 26.91 481.92 26.91 481.59 27.42 479.98 27.88 474.37 27.71 469.66 26.72 467.37 25.42 466.34 24.43 466.44 21.79 469.31 19.5 471.83 18.6 475.28 17.96 477.92 17.96 479.4 18.37 Z M 555.9 16.66 559.55 17.91 559.32 19.5 556.81 19.11 553.48 20.2 551.65 20.37 548.9 19.69 550.16 18.43 554.64 16.24 555.42 16.24 555.9 16.66 Z M 668.49 7.19 668.26 8.28 667.13 8.28 665.75 7.54 665.85 6.96 668.49 7.19 Z M 664.94 3.47 666.32 3.47 669.19 3.99 665.52 4.32 663.68 3.58 663.45 3.19 664.14 3.06 664.94 3.47 Z M 558.99 21.46 559.45 21.92 559.1 22.21 556.81 22.78 556 22.78 555.77 22.37 556 21.63 558.42 20.82 558.77 20.88 558.99 21.46 Z M 618.5 10.8 616.21 11.73 613.46 11.95 609.44 13.38 603.14 14.47 601.99 15.56 600.83 15.62 600.05 16.41 596.48 17.21 591.79 17.17 586.05 18.08 579.16 17.85 578.25 18.43 579.16 18.72 578.83 19.79 577.8 20.14 577.67 20.6 576.19 21.34 575.15 21.46 574 22.08 572.74 21.57 572.18 20.43 572.18 19.21 573.32 19.11 572.74 18.47 572.29 17.11 572.51 16.53 573.09 16.41 573.67 14.47 575.03 13.5 577.22 12.98 578.48 11.99 579.86 11.66 602.11 11.15 615.4 10.28 616.44 10.57 619.88 10.28 619.88 10.63 618.5 10.8 Z M 644.42 1.23 646.24 1.93 645.21 2.2 645.11 2.73 646.94 3.06 649.81 4.38 650.49 5.25 651.52 5.54 650.14 5.87 649.46 5.25 647.27 5.64 647.97 6.05 647.05 6.09 646.72 7.02 646.14 7.31 643.62 7.7 642.81 7.54 642.24 6.28 641.66 5.87 641.66 5.25 640.85 4.84 640.98 4.51 641.89 4.09 640.63 3.52 640.4 2.55 639.72 2.2 639.72 1.8 642.81 1 644.42 1.23 Z M 86.08 473.57 84.39 473.28 83.81 472.23 82.45 471.46 78.22 471.42 76.36 471.73 73.84 471.34 69.75 469.5 64.18 467.54 59.29 467.81 48.7 464.51 46.95 465.67 46.08 467.77 44.92 467.63 42.32 466.41 41.27 466.53 40.55 467.73 38.71 467.48 37.72 468.06 35.22 467.79 32.62 468.37 34.89 476.64 30.91 477.07 20.69 477.47 17.53 477.22 15.3 476.35 13.94 474.15 10.37 473.53 7.91 471.32 5.5 470.76 5.85 468.45 4.3 467.75 3.27 462.78 4.34 460.98 6.41 459.77 6.35 458.63 5.5 457.4 3.31 455.97 3.48 454.26 1 452.14 1.35 452.01 3.77 453.68 3.56 452.77 2.78 452.24 3.29 452.18 3.54 451.72 3.06 451.21 5.36 449.89 10.41 448.79 13.86 447.6 15.68 447.49 16.83 448.34 17.51 447.82 19.8 447.31 20.28 446.85 26.12 446.22 29.67 445.02 30.25 444.63 30.47 443.99 34.73 443.99 35.53 444.34 38.63 444.34 39.76 444.85 39.89 445.31 41.95 445.76 43.44 445.7 45.6 446.4 46.41 447.49 47.34 448.05 49.63 448.4 50.31 448.24 54.21 449.66 59.95 450.63 64.66 450.69 65.91 451.21 68.31 451.37 69.11 452.24 67.98 452.47 69.69 452.82 69.59 453.72 69.82 453.85 70.15 453.79 70.04 453.43 70.37 453.17 72.56 453.97 75.08 455.75 76.34 456.01 77.27 455.79 83.33 456.26 82.3 457.33 83.46 457.85 83.33 458.14 85.07 458.72 85.85 458.55 85.85 458.14 84.26 457.68 84.82 457.56 84.94 457.85 85.63 457.91 85.98 457.4 85.63 457.33 85.63 456.82 84.94 456.94 84.82 456.14 85.52 456.59 85.63 455.85 89.42 455.62 90.46 456.59 95.49 457.62 95.72 457.97 96.98 457.33 100.55 458.84 103.07 458.84 105.59 458.59 105.94 457.91 106.97 457.52 107.3 456.55 110.17 456.36 111.2 455.33 115.22 453.68 118.88 452.98 120.49 452.98 122.22 452.18 124.39 452.36 124.62 451.1 125.32 450.4 125.19 449.27 126.35 448.53 125.77 447.66 126 445.66 127.71 444.17 130.48 444.17 131.51 444.28 131.61 444.63 132.29 444.79 136.19 445.14 136.9 445.47 136.9 445.88 137.7 445.95 138.03 446.63 139.06 446.98 139.52 448.3 140.67 449.85 141.83 450.88 141.93 451.43 143.32 452.47 150.99 452.98 156.5 455 157.64 456.08 159.6 457.23 160.41 458.43 162.35 459.17 163.25 459.07 161.09 458.59 160.41 457.56 161.09 457.17 159.25 456.14 159.48 455.68 159.13 455.46 159.83 455.23 159.83 454.94 159.25 454.65 158.09 454.82 156.15 453.79 156.03 453.43 158.22 452.75 159.93 452.75 161.67 453.27 163.15 455.17 164.64 456.14 166.35 456.55 166.6 457.17 167.63 457.91 167.96 457.52 167.16 457.23 166.83 456.3 168.54 456.14 166.02 455.97 165.22 455.68 165.44 455.23 166.93 455.52 171.06 455.33 171.28 455.11 168.89 454.94 168.08 455.23 165.79 454.88 164.18 453.1 164.41 452.53 164.18 452.01 165.09 451.78 166.7 451.95 166.6 451.56 167.05 451.33 168.54 451.1 168.66 453.43 169.8 454.07 172.44 454.76 171.99 454.24 169.45 453.39 169.12 453.17 169.12 452.59 169.57 451.85 170.38 451.56 170.48 452.65 171.41 452.69 170.83 452.59 170.73 451.04 171.28 450.53 173.47 450.3 174.28 450.63 175.41 450.59 176.44 451.15 177.15 452.03 177.66 451.62 178.8 452.53 179.04 453.87 180.53 454.22 181.87 455.5 177.87 458.34 170.81 464.95 154.48 472.7 144.7 476.81 132.87 478.19 125.19 483.41 117.29 484.54 112.73 486.93 109.03 486.48 107.4 483.92 93.3 485.7 89.32 483.57 89.49 478.23 89.8 477.18 91.51 474.83 87.11 473.42 86.08 473.57 Z M 251.55 225.74 251.91 225.56 252.59 225.45 252.36 225.97 250.98 226.03 251.55 225.74 Z M 356.49 52.22 359.59 52.69 359.69 53.66 358.43 54.63 356.72 54.18 352.47 54.8 352.11 55.27 348.92 56.76 342.04 59.05 339.28 59.62 337.34 60.47 336.76 61.17 336.88 61.56 339.85 62.14 339.85 62.49 334.82 65.07 334.69 65.52 334.12 65.81 329.41 66.91 326.44 68.49 323.92 70.39 322.08 70.91 314.73 70.74 310.96 72.62 310.73 73.14 310.05 72.97 308.32 71.36 308.32 70 309.35 69.2 312.34 68.39 323.92 63.34 331.6 59.11 338.82 56.08 343.4 54.69 346.05 53.54 351.33 52.22 356.49 52.22 Z M 277.25 121.1 274.42 121.96 273.37 123.92 271.06 123.28 269.82 122.56 269.47 121.32 269.97 120.06 270.13 120.25 270.3 119.2 272.36 118.04 275 118.33 275.06 119.51 278.61 120.35 279.23 120.79 277.25 121.1 Z M 310.61 77.9 313.37 80.03 313.37 80.71 313.93 81.12 313.7 82.38 314.63 83.35 315.89 83.12 316.57 83.51 320.37 87.35 320.37 88.21 319.79 88.38 319.79 88.83 319.09 88.96 319.34 89.41 318.76 89.64 318.41 90.73 318.41 92.22 318.06 92.79 318.06 94.69 318.53 95.5 318.06 96.82 318.31 98.92 316.34 100.43 313.25 100.94 312.9 101.73 312.9 104.04 312.11 104.59 311.08 104.72 310.96 105.87 307.99 108.33 305.34 109.19 302.02 109.3 296.05 113.94 297.31 113.94 297.19 114.35 296.28 114.91 293.99 114.97 292.26 114.17 287.8 113.2 287.45 113.65 288.93 114.8 290.77 115.09 291.35 116.23 289.41 116.68 287.1 116.74 285.96 117.67 283.77 118.35 281.03 116.81 280.57 115.84 280.8 115.38 279.77 114.35 279.42 113.07 279.42 108.9 279.87 106.95 281.61 103.34 281.48 103.01 283.77 99.44 290.89 92.11 303.96 80.42 308.67 77.9 309.47 77.61 310.61 77.9 Z" fill-rule="evenodd" transform="translate(-1,-1) "/></svg>