<svg xmlns="http://www.w3.org/2000/svg" viewBox="0 0 17.1300048828125 7.20001220703125"><path d="M 771.39 418.05 771.41 418.08 771.41 418.14 771.39 418.12 771.36 418.06 771.34 418.06 771.33 418.08 771.33 418.11 771.34 418.17 771.31 418.22 771.24 418.21 771.11 418.16 771.12 418.1 771.12 417.96 771.14 417.91 771.18 417.9 771.24 417.92 771.3 417.94 771.34 417.98 771.36 418.02 771.39 418.05 Z M 769.84 417.63 769.83 417.65 769.82 417.65 769.8 417.63 769.79 417.65 769.77 417.66 769.74 417.67 769.74 417.68 769.79 417.69 769.78 417.71 769.76 417.72 769.74 417.72 769.73 417.72 769.7 417.71 769.68 417.69 769.69 417.66 769.71 417.63 769.71 417.61 769.72 417.59 769.74 417.57 769.77 417.56 769.8 417.56 769.82 417.58 769.84 417.6 769.84 417.63 Z M 779.81 417.45 779.81 417.45 779.8 417.45 779.81 417.44 779.81 417.45 Z M 772.34 415.14 772.33 415.19 772.34 415.23 772.36 415.27 772.39 415.3 772.42 415.32 772.49 415.34 772.57 415.33 772.64 415.31 772.7 415.27 772.72 415.32 772.72 415.41 772.7 415.5 772.67 415.57 772.69 415.68 772.68 415.73 772.65 415.75 772.63 415.75 772.54 415.77 772.48 415.81 772.38 415.8 772.31 415.76 772.31 415.7 772.26 415.68 772.21 415.66 772.15 415.66 772.1 415.68 772.09 415.67 772.09 415.67 772.08 415.66 772.08 415.65 772.11 415.63 772.13 415.61 772.16 415.58 772.16 415.53 772.15 415.52 772.1 415.46 772.08 415.44 772.07 415.4 772.06 415.33 772.05 415.29 772.04 415.25 771.98 415.16 772.01 415.15 772.04 415.14 772.06 415.14 772.1 415.15 772.15 415.17 772.19 415.18 772.23 415.15 772.37 415.05 772.38 415.08 772.34 415.14 Z M 768.98 413.59 768.97 413.62 768.95 413.63 768.89 413.64 768.88 413.63 768.87 413.62 768.85 413.62 768.83 413.61 768.85 413.6 768.87 413.59 768.89 413.59 768.91 413.59 768.93 413.59 768.98 413.59 Z M 770.85 413.58 770.87 413.62 770.85 413.66 770.82 413.7 770.81 413.75 770.81 413.77 770.82 413.84 770.85 413.9 770.84 413.93 770.81 413.98 770.81 414.01 770.81 414.02 770.83 414.03 770.85 414.04 770.88 414.05 770.9 414.07 770.92 414.09 770.97 414.11 771 414.11 771.02 414.11 771.04 414.12 771.05 414.14 771.06 414.15 771.07 414.18 771.08 414.19 771.06 414.23 771.05 414.25 771.05 414.27 771.07 414.3 771.09 414.31 771.12 414.31 771.14 414.32 771.17 414.34 771.2 414.37 771.21 414.4 771.14 414.43 771.13 414.46 771.13 414.55 771.12 414.6 771.11 414.63 771.08 414.65 771.05 414.68 771.01 414.66 770.96 414.66 770.92 414.64 770.9 414.57 770.88 414.56 770.85 414.55 770.81 414.55 770.79 414.52 770.79 414.48 770.78 414.47 770.57 414.45 770.51 414.43 770.45 414.38 770.4 414.32 770.39 414.3 770.39 414.28 770.38 414.26 770.33 414.25 770.32 414.22 770.32 414.19 770.34 414.16 770.25 414.08 770.23 414.05 770.37 414.06 770.41 414.05 770.45 414.02 770.48 414 770.52 413.93 770.58 413.85 770.61 413.81 770.59 413.75 770.57 413.74 770.45 413.69 770.28 413.71 770.28 413.69 770.29 413.63 770.31 413.58 770.36 413.56 770.43 413.55 770.45 413.55 770.46 413.57 770.48 413.57 770.5 413.58 770.53 413.58 770.55 413.57 770.56 413.55 770.58 413.53 770.58 413.5 770.65 413.48 770.82 413.57 770.85 413.58 Z M 769.35 412.84 769.36 412.87 769.38 412.9 769.4 412.92 769.46 412.95 769.47 412.96 769.46 412.99 769.44 413 769.37 413 769.34 413 769.32 413.02 769.31 413.05 769.31 413.07 769.3 413.08 769.27 413.17 769.25 413.19 769.25 413.23 769.26 413.3 769.27 413.31 769.3 413.31 769.36 413.3 769.28 413.47 769.24 413.51 769.21 413.54 769.16 413.56 769.11 413.57 769.06 413.58 769.04 413.56 769.03 413.55 769.06 413.53 769.09 413.51 769.15 413.45 769.19 413.4 769.2 413.37 769.21 413.33 769.21 413.18 769.22 413.15 769.24 413.12 769.27 413.07 769.29 413.02 769.31 412.98 769.3 412.93 769.25 412.88 769.23 412.86 769.22 412.86 769.21 412.87 769.22 412.85 769.24 412.82 769.27 412.81 769.31 412.8 769.33 412.82 769.35 412.84 Z M 763.56 412.1 763.6 412.12 763.65 412.16 763.68 412.2 763.7 412.25 763.73 412.27 763.78 412.29 763.94 412.48 763.97 412.51 764.07 412.57 764.12 412.58 764.17 412.56 764.18 412.56 764.21 412.63 764.24 412.65 764.27 412.66 764.25 412.63 764.22 412.55 764.21 412.47 764.21 412.45 764.23 412.45 764.63 412.61 764.7 412.67 764.82 412.82 764.85 412.85 764.9 412.88 764.94 412.91 764.98 412.92 765.05 412.98 765.07 412.99 765.14 413.01 765.17 413.04 765.24 413.13 765.27 413.14 765.29 413.16 765.37 413.27 765.48 413.37 765.5 413.38 765.57 413.42 765.61 413.45 765.6 413.48 765.63 413.51 765.72 413.51 765.76 413.55 765.8 413.56 765.89 413.63 766.12 413.67 766.13 413.68 766.15 413.7 766.16 413.71 766.17 413.71 766.18 413.7 766.19 413.69 766.21 413.69 766.23 413.7 766.24 413.71 766.25 413.72 766.27 413.74 766.32 413.78 766.34 413.81 766.33 413.85 766.35 413.95 766.37 413.98 766.41 414 766.44 414.02 766.47 414.05 766.48 414.09 766.5 414.09 766.61 414.11 766.65 414.12 766.67 414.13 766.66 414.21 766.64 414.27 766.64 414.28 766.63 414.3 766.63 414.31 766.64 414.33 766.64 414.34 766.65 414.39 766.67 414.41 766.74 414.47 766.81 414.5 766.83 414.52 766.86 414.55 766.88 414.56 766.94 414.56 766.95 414.57 766.96 414.59 766.95 414.61 766.96 414.61 766.97 414.61 766.97 414.6 766.98 414.6 767.05 414.65 767.08 414.68 767.09 414.71 767.1 414.72 767.1 414.72 767.11 414.74 767.08 414.74 767.04 414.73 767.01 414.72 766.98 414.69 766.99 414.72 767.01 414.74 767.04 414.76 767.06 414.77 767.09 414.79 767.1 414.82 767.12 414.86 767.13 414.89 767.18 414.91 767.32 414.94 767.36 414.99 767.42 414.97 767.48 415 767.53 415.06 767.54 415.11 767.58 415.1 767.6 415.2 767.65 415.24 767.63 415.2 767.62 415.18 767.63 415.16 767.65 415.15 767.67 415.15 767.69 415.16 767.71 415.19 767.72 415.17 767.72 415.15 767.71 415.12 767.69 415.1 767.73 415.11 767.76 415.15 767.84 415.29 767.86 415.33 767.85 415.35 767.8 415.34 767.81 415.37 767.91 415.42 767.89 415.44 767.91 415.45 767.94 415.44 767.95 415.43 767.95 415.4 767.93 415.38 767.92 415.36 767.91 415.34 767.89 415.28 767.88 415.24 767.9 415.22 767.94 415.25 768.01 415.32 768.03 415.33 768.09 415.34 768.11 415.35 768.11 415.36 768.1 415.37 768.08 415.38 768.07 415.39 768.08 415.4 768.1 415.4 768.12 415.41 768.12 415.43 768.13 415.47 768.13 415.5 768.18 415.48 768.22 415.48 768.26 415.5 768.38 415.6 768.39 415.61 768.42 415.62 768.43 415.62 768.45 415.67 768.53 415.72 768.61 415.76 768.79 415.81 768.79 415.83 768.73 415.83 768.73 415.84 768.74 415.85 768.75 415.87 768.75 415.88 768.76 415.89 768.77 415.9 768.8 415.9 768.88 415.92 768.91 415.94 768.94 415.98 769.02 416.05 769.03 416.06 769.04 416.11 769.05 416.13 769.07 416.14 769.11 416.15 769.09 416.17 769.14 416.21 769.24 416.32 769.28 416.35 769.32 416.38 769.38 416.44 769.43 416.48 769.45 416.44 769.53 416.5 769.56 416.51 769.56 416.53 769.54 416.54 769.53 416.55 769.51 416.55 769.49 416.56 769.49 416.58 769.5 416.58 769.57 416.58 769.6 416.58 769.62 416.59 769.64 416.6 769.65 416.59 769.67 416.63 769.69 416.66 769.73 416.67 769.77 416.67 769.9 416.71 769.94 416.72 770.05 416.81 770.07 416.84 770.09 416.89 770.1 416.91 770.09 416.97 770.08 416.98 770.07 417 770.07 417.01 770.1 417.02 770.12 417.03 770.14 417.05 770.17 417.1 770.25 417.16 770.26 417.19 770.25 417.21 770.24 417.21 770.22 417.21 770.21 417.23 770.22 417.24 770.23 417.26 770.24 417.28 770.24 417.3 770.23 417.32 770.21 417.37 770.2 417.41 770.19 417.42 770.17 417.44 770.16 417.43 770.16 417.42 770.14 417.42 770.13 417.44 770.11 417.45 770.1 417.46 770.1 417.47 770.11 417.49 770.04 417.55 770 417.56 769.94 417.55 769.99 417.54 770.01 417.53 770.02 417.5 769.98 417.51 769.97 417.51 769.95 417.49 769.94 417.46 769.92 417.43 769.91 417.42 769.9 417.39 769.89 417.41 769.88 417.44 769.87 417.46 769.85 417.45 769.84 417.42 769.83 417.4 769.82 417.37 769.83 417.37 769.85 417.36 769.83 417.33 769.81 417.34 769.79 417.37 769.79 417.44 769.78 417.45 769.78 417.46 769.79 417.49 769.8 417.49 769.84 417.52 769.81 417.53 769.78 417.52 769.75 417.51 769.74 417.51 769.74 417.53 769.72 417.54 769.71 417.55 769.69 417.55 769.64 417.54 769.61 417.51 769.61 417.48 769.65 417.46 769.65 417.44 769.61 417.45 769.56 417.44 769.53 417.42 769.55 417.37 769.53 417.36 769.5 417.37 769.45 417.35 769.4 417.32 769.38 417.28 769.37 417.28 769.32 417.3 769.3 417.31 769.28 417.3 769.22 417.28 769.2 417.27 769.2 417.25 769.21 417.23 769.22 417.22 769.2 417.19 769.18 417.19 769.11 417.18 769.09 417.18 769.06 417.21 769.05 417.27 769.03 417.3 768.98 417.29 768.98 417.3 768.98 417.31 768.98 417.31 768.97 417.31 768.99 417.35 768.96 417.37 768.93 417.35 768.93 417.33 768.94 417.31 768.94 417.25 768.96 417.23 768.96 417.21 768.92 417.21 768.89 417.21 768.87 417.19 768.85 417.16 768.92 417.16 768.95 417.16 768.97 417.13 768.93 417.13 768.92 417.11 768.92 417.03 768.9 417.03 768.85 417.03 768.83 417.03 768.83 417.05 768.82 417.09 768.81 417.1 768.78 417.1 768.77 417.11 768.76 417.13 768.75 417.15 768.73 417.16 768.72 417.15 768.72 417.12 768.74 417.1 768.72 417.08 768.67 417.03 768.67 417.02 768.68 417.01 768.69 417 768.69 416.99 768.69 416.97 768.68 416.97 768.66 416.99 768.6 416.98 768.6 417 768.56 417.02 768.53 417 768.49 416.98 768.45 416.98 768.45 416.94 768.43 416.9 768.4 416.88 768.37 416.87 768.34 416.85 768.32 416.83 768.29 416.82 768.26 416.87 768.23 416.85 768.21 416.84 768.22 416.82 768.22 416.81 768.23 416.79 768.22 416.77 768.24 416.77 768.26 416.79 768.28 416.8 768.3 416.79 768.3 416.76 768.29 416.73 768.24 416.71 768.22 416.69 768.29 416.69 768.31 416.69 768.33 416.71 768.33 416.68 768.32 416.67 768.3 416.66 768.28 416.66 768.27 416.64 768.27 416.61 768.28 416.58 768.29 416.58 768.27 416.52 768.24 416.5 768.16 416.48 768.14 416.49 768.12 416.49 768.12 416.47 768.15 416.44 768.13 416.43 768.11 416.42 768.1 416.39 768.1 416.36 768.07 416.39 768.06 416.41 768.06 416.47 768.05 416.48 768.02 416.48 768 416.48 767.98 416.48 767.99 416.49 767.99 416.52 767.97 416.54 767.94 416.52 767.91 416.47 767.89 416.45 767.82 416.43 767.78 416.35 767.74 416.33 767.73 416.33 767.71 416.32 767.68 416.29 767.67 416.28 767.66 416.29 767.65 416.3 767.63 416.3 767.57 416.3 767.55 416.29 767.54 416.25 767.59 416.27 767.57 416.25 767.51 416.19 767.51 416.17 767.52 416.15 767.52 416.13 767.5 416.12 767.48 416.13 767.47 416.14 767.47 416.16 767.48 416.19 767.44 416.17 767.44 416.15 767.44 416.11 767.43 416.07 767.42 416.05 767.39 416.03 767.37 416 767.37 415.96 767.36 415.96 767.34 415.99 767.32 416.02 767.29 416.05 767.25 416.06 767.25 416.01 767.25 415.98 767.24 415.97 767.19 415.97 767.19 415.98 767.19 415.99 767.19 416 767.18 416.01 767.16 416.01 766.87 415.86 766.8 415.8 766.83 415.75 766.83 415.73 766.8 415.74 766.78 415.73 766.78 415.72 766.81 415.71 766.78 415.69 766.74 415.69 766.7 415.72 766.67 415.73 766.63 415.72 766.39 415.62 766.36 415.59 766.35 415.56 766.33 415.49 766.32 415.47 766.28 415.47 766.25 415.45 766.19 415.41 766.17 415.4 766.15 415.4 766.13 415.4 766.13 415.38 766.1 415.35 766.09 415.34 766.01 415.19 766 415.17 766.01 415.16 766.01 415.15 766 415.14 765.99 415.13 765.98 415.13 765.96 415.14 765.94 415.15 765.94 415.15 765.94 415.18 765.92 415.19 765.9 415.18 765.89 415.15 765.87 415.16 765.85 415.17 765.83 415.17 765.81 415.16 765.85 415.12 765.85 415.08 765.81 415.06 765.76 415.06 765.78 415.03 765.77 415.01 765.72 414.97 765.7 415 765.7 415.05 765.69 415.08 765.66 415.1 765.64 415.09 765.62 415.07 765.61 415.05 765.62 415.03 765.62 415.01 765.63 414.99 765.64 414.97 765.63 414.95 765.61 414.94 765.59 414.94 765.57 414.93 765.56 414.91 765.55 414.89 765.38 414.69 765.37 414.65 765.37 414.6 765.37 414.57 765.37 414.52 765.35 414.5 765.31 414.51 765.31 414.48 765.31 414.48 765.32 414.47 765.32 414.45 765.31 414.45 765.3 414.44 765.28 414.43 765.29 414.42 765.29 414.41 765.27 414.41 765.25 414.42 765.24 414.45 765.22 414.45 765.2 414.43 765.19 414.39 765.17 414.39 765.15 414.4 765.13 414.41 765.14 414.43 765.13 414.45 765.11 414.47 765.07 414.36 765.04 414.31 765.01 414.29 765.05 414.26 765.03 414.24 764.98 414.22 764.94 414.19 764.98 414.19 765 414.17 765 414.15 764.99 414.13 764.96 414.11 764.93 414.11 764.91 414.1 764.91 414.06 764.9 414.06 764.86 414.08 764.83 414.07 764.78 414.01 764.75 414.01 764.71 414.01 764.68 414 764.68 413.98 764.65 413.93 764.6 413.92 764.56 413.9 764.46 413.8 764.4 413.75 764.37 413.72 764.34 413.68 764.36 413.68 764.39 413.69 764.43 413.67 764.44 413.64 764.43 413.61 764.4 413.59 764.36 413.58 764.33 413.55 764.28 413.44 764.24 413.42 764.17 413.26 764.16 413.26 764.15 413.27 764.14 413.27 764.12 413.27 764.1 413.23 763.96 413.14 763.93 413.09 763.9 412.99 763.9 412.96 763.89 412.92 763.86 412.9 763.83 412.89 763.81 412.87 763.8 412.82 763.82 412.81 763.88 412.83 763.9 412.81 763.91 412.77 763.91 412.7 763.9 412.68 763.88 412.65 763.85 412.62 763.83 412.61 763.72 412.6 763.7 412.59 763.71 412.56 763.71 412.53 763.7 412.52 763.67 412.53 763.68 412.55 763.66 412.58 763.64 412.6 763.62 412.61 763.59 412.6 763.58 412.58 763.57 412.56 763.55 412.55 763.52 412.52 763.53 412.48 763.57 412.44 763.64 412.46 763.66 412.44 763.65 412.41 763.61 412.35 763.63 412.34 763.65 412.32 763.65 412.29 763.64 412.26 763.6 412.23 763.58 412.24 763.55 412.25 763.52 412.26 763.52 412.24 763.53 412.23 763.53 412.22 763.55 412.19 763.51 412.18 763.5 412.16 763.5 412.13 763.52 412.1 763.53 412.1 763.56 412.1 Z M 764.03 412.23 764.07 412.27 764.02 412.26 763.96 412.23 763.91 412.19 763.9 412.15 763.9 412.05 763.91 412.05 764.01 412.18 764.03 412.23 Z M 763.5 412.06 763.5 412.08 763.49 412.1 763.47 412.06 763.44 412.08 763.42 412.06 763.39 412 763.39 411.98 763.41 411.96 763.42 411.91 763.44 411.9 763.46 411.92 763.48 411.99 763.5 412.01 763.5 412.04 763.5 412.06 Z M 762.86 411.35 762.8 411.41 762.74 411.26 762.73 411.2 762.73 411.11 762.72 411.07 762.68 411.05 762.7 411.02 762.73 411.04 762.76 411.07 762.8 411.18 762.82 411.26 762.83 411.29 762.85 411.33 762.86 411.35 Z" fill-rule="evenodd" id="New Caledonia" transform="translate(-762.6799926757812,-411.0199890136719) "/></svg>