<svg xmlns="http://www.w3.org/2000/svg" viewBox="0 0 798 847"><path fill-rule="evenodd" d="M564 152h-1 1Zm-1 0Zm-4 1Zm0 0Zm0 0Zm0-1Zm4 0Zm0-1Zm0 0Zm0 0Zm-3 0Zm1 0h1-1Zm0 0Zm0 0Zm1 0Zm-1 0Zm0 0Zm0 0Zm-36-3v-1 1Zm-2-1Zm0 0Zm26 0Zm0 0Zm-28-1Zm34-2 1 1 1 1h-1v-1h-1v-1Zm-31-1h-1 1Zm21-2Zm-23 5Zm-1 0v-1 1Zm75-18Zm-50 11h1-1Zm4 0h-1 1v-1 1Zm-5-1Zm4-1Zm1 0h-1 1Zm0 0Zm-1 0Zm2-1v1h-1v-1h1Zm-1 1h-1 1Zm-27-4Zm30-2v1-1 1h2v3h-1v-1 1h-2l1-1-1 1v-1h-1 1v-1 1-1 1h2l-1-1h1-3 1l1-1h-1l1-1h-1 1Zm-3 2h-1 1Zm0 0v1-1Zm0 4Zm0 0Zm0 0Zm-5-6Zm-23 0Zm0 0Zm-9-1h1-1l1 1h-1v-1Zm5 1Zm0 0Zm28 55Zm0 0Zm4-8-1-1h1v1Zm-2-1Zm1-9Zm-21 0Zm20 0Zm30 0Zm-31 0Zm4-1Zm0 0Zm4 0Zm18-1h1-1Zm-19-1Zm0 0Zm9 0Zm-37-1Zm0 0Zm37 1Zm0 0Zm-21-2-1-1h1v1Zm20 0Zm10-1Zm0 0Zm0 0Zm0 0Zm-9 4Zm0 0Zm11-1-1 1v-1h1Zm-34-6Zm38-2v1-1Zm-36 0Zm20 1Zm4-2Zm-4 0Zm8 3Zm6 0v1-1Zm-28 0Zm17 0Zm-4 0Zm-2-1 1 1v1h-1v-2Zm17 0Zm-18-4h1v1h-1 1v1h-1 1l-1 1h-1v1-1l-1-1v2h-1v1-1l-1 1v-1 1h-1v-1 1-1h-1v-2h4v-1h1l1-1Zm2-1Zm0 0Zm0 0Zm4 3Zm0 0Zm0 0Zm0 0Zm11 4v1h1v-1h1v1h-1v2h1l-1 1v1h-1 1l-1-1h-1v-2h-1 2v-1h-1 1-1v-1l1 1v-1Zm-19 0h1-1Zm18-6h1-1v1h2v2l-1-1v1h-2l1 1h-1 1v2h-1v1h-1v-1l-1 1h-1 1-1l1-1h-1 1-1v-1 1h-1v1-1h-1v1-1h-1 1v-1h-1v1-1h-2 1v-1l1 1v-1h1-3 1-1v1h-1l1-1h-1v-1l-1 1v1h-1v-2h1-1v-1h2v1h1v-1 1-1l1 1v-1h1v1h3v-1h3v-1l1-1Zm-14-1h-1v-1h1v1Zm38-26h1v1l-1-1Zm-9-19Zm0 0Zm0 0Zm0 0Zm0 0Zm1 0Zm0 0Zm0 0Zm-1 0Zm0 0Zm0 0Zm0 0Zm0 0h1l-1 1h1-1v-1Zm1-1Zm0 0Zm0 0Zm0 0Zm0 0Zm0 0Zm0 0Zm0 0Zm0 0Zm0 0Zm-18-4Zm1-1h1-1Zm0 0Zm1-1Zm0 0Zm0-1Zm0 1Zm0 0Zm0 0Zm0-1Zm-4 0Zm0 0Zm4 0Zm0 0Zm-1 1v1h1-1v-1Zm0 0h-1 1Zm-3-1Zm0-1Zm1 1Zm-1 0Zm0-1Zm0 0v1-1Zm1 1Zm-1 0Zm-3-1Zm4 0Zm0 0v1l-1-1v1-1h1Zm0 0Zm-2 1Zm1 0Zm0 0h-1 1-1 1Zm-1 0Zm1 0Zm1 0Zm0 0Zm-1 0Zm0 0Zm20 8Zm0 0h-1 1Zm0 0Zm0 0Zm-48 55h1l1-2v1h1-1l1-1h1v-1h1-1v1h1-1 1v-1 1h1-1 2l1 1v-1h5v1l1 1h-1l-1 1v1h-1 1-1 1l-1 1h1-1 1v1h-1 1v1h-1 1-1v1-1h1-1 2-1 2-1v-1 1-1 1h-1v-1 1-1h1l-1-1 1 1v-1h1l-1 1 1-1v1-1h1-1v-1 1h-2v-1h1-1 1v-1h1v-1h1l-1-1h1v-1 1l1 1 1 1h1v2h-1 1v-1 1h1-1 1-1v1h1-1 1v-1 2-3 1-1h2v1-1h-1v-2h2l1 1-1-1h3v2h3-2v1l1 1h-1l1 1h-1 1v-1h1l-1 1h1l1-1h1v-1l1 1h-1 1v1h1l1-1h2v1h2l1 1v1h2v3h-1 1l1 1v5h-1 1v3h1v2l1 1h2v1h5l3-2h2l1-2h1v-1l-1-1h1-1v-1h-1v-3l1-1h-1v-4l-1-1v-1h-1l-1-2-1-1-1-1h-1v-2h-1 1v-1l-1 1v-2 1h1v-1 1h1v-1h1v1h1v-1 1-1h1-4v-1h3-2v-1 1-1h-1v1-1h3v-1h1v1l1-1v-1h-1l1-1h-1v-1h-1l-1 1h1-1l1-1v-1h1-1 1-2 1l-1-1h1-1l-1 1v-1h-1v-2l1-1v-3h2v-1h-1 1-2v-1h-1v-1h-2v-1h-2v-1h-1v-1h-1v-4h1-1 1v-1 1l1-1v1-1l1 1h2v-1 2h1v1h1l1 1h1v1-1h1-1v-1h2v1h1v1h1v1h-1 1v2h-1v1h3v1h1v4-1h-1l-1 1 1 1h1v-1h1v1h1v-1 1-1 2h1v1h-1v2h1v1h2-1v-2h1v1h1v-1h1-2l-1-1h6l1-1h2v-1h1v2h2v1h-2v1h-2l-1 1h1-1v2h-1v-1 1l-1 1-1-1v2h1l-1 1 1-1-1 1h-1l-1-1v2h1v-1 2-1l-1 1v1h1v-1l1 1h-1 1v1-1h1v1-1h-1 1v-1h-1v-2h1v-1h2v1l1-1v2-1 1h1v-1l-1 1 1-1h-1v-2h1v1h2l1 1v2-1 1-1 1-1 2h1v1h1v3-1 1h-1l1 1h-1 1v1l1 1v1-1h-1v1l-1 1v2h-2 2v-2h1v-1h1v1h1v2h1v1h-1v3-1h-1v2l1-1h1l-1 1v4h1-1v1-1l-1-1v-1h-1 1-1v1h1-1v1h1-1 1l-1 1h1v-1h1v2l1 1v2l1 1v1h1v2l1 1v4l1 1 1 2 1 1h-1v-2h-2 2v1h-2v3l-1-1v1h2v-1h-1 1-1 1v1h1v1h-1l-1 1h-2v1h1v-1l1 1h-1 2v1h-2 1l-1 1v1-1h1v1h1-1 2v-1 1h-1v1h2l-1 1-1 1h1v-1h1v1-1 2h1v-2h1v2h-1 1v-1h1l1-1v2h-1v1h-1 1v-1h1v1h-1 1v1h-1 1v-1h1v-1 1-1h1v1h1v1-1 1h2v-1h-1 4v-1 5-1h1v1h-1 2v-1h2v-1 1-1h-1v-1l-1 1h1l-2 1v-2l1 1v-1l-1-1v-2h-1v-1 1h1l1 1 3 2 3 1 4 1 3 2 2 1h2-1l-2-1v1h3l1-1v2h1l-1-1 2 1 4 3 2 1 4 1 6 2 3 1h2l4 1h3l5 2h1v1l1 1h4l3 1h-5v-1 1l-1 1h1l-1 1h1v-1 1-1h1v1h1v-1h1v1h-1 1-1v1-1h1l1 1v1-1l1 1h1v-1 1-1h-1v-2h1v1-2l-1 1 1-1h15l2-1h1l1-1h2l1-1h-1l2-1h1v-1h1v-1h1v-1h1l1-1v-2h2v-2 1h1l1-1h1v-1h-1l1-1h1v-2h-1 1v-1h2v-1h1v-2h5v-1h1-1l1-1 1 1h1l1-1h1v-1h1v-2h1v1h3v-1h1v-1h1l1-1-1-1v-2l2 2v-1h10v1-1h1l-1-1h1v1l1-1h1v1h3l1 1v-1 1h3v1h-2v1h2v1l1 1h1l2 1h7v1l2 1h1l1 1v1l-1 1v1h-1 1l-1 1h-1l-1 1v1h-1v1l-1 1v1h-1l1 1-1 1h-1l-1 1v2l-1 1v4h-1v1h-2v1l-1 1v1l1 1h2-1v2h1v1h-1v1h-2v1h-1v2l2 1h1v1h-2v2h-1v1h-1l1 1v1h1v2h2-2v1l-1 1h1v1h-1l1 1h-1l-1 1 1 1h1v2h1l-1 1h-1l-1 1-1 1v5h-1l-1 1h-1v1h-1l-1 1h-1v2h-1v1h-1l-1 1v1h-3v1h-2v2h-2v-1h-1v-1h-3l-1 1-1 1-1 1v2h1l1 1h-1l-1 1-1 1v2h-1v2l1 1v-1 1l-1 1v5h-1v6l1 1v1l2 1h1v-1h1v1h2v1l-1 1h-1l-1 1v1h-1l-1 1v1l-1 2-1 1v1h-1v1h-1v-2h-1v-3l-1-1v-1h-1 2v-2h1v-3h1l-1-1-1-1h-1v2l-1-1h-1l-3-1h-18l-4 1-6 1-5 1-4 2-4 1-3 2-3 1v3h-1v2h-1v1h-1v1h-1v1h-2v2h-2l-1 2-1 1-1 2v3l1 1h2v-1 6l2 2v2l1 1h2v1h5v-1l1 1h1l-1 1-1 1-1 1-1 1-2 2v3h-1v3h1v1h-1v1h-1v1h-1v2l-1 1-1 1v2h-1v1h-1v1l-1 2v3h1l-1 1-1 1v2h-1l-1 1v1h-1v1l-1 1-1 1-1 1h-3l-1 1-1 1h-1l-1 1h1l-1 1v2l-1 2-1 1v2l-1 1h1l-1 1v5h-6l-3 2v1h-1v2h-1v1h-2l-1 1v1l-1 1h-1v1l-1 1h1-1v1h-2v1h-1v1h-1v1l-1 1v1l-1 2h-1v2l-1 1v2h-1v1h-1v1h1v1-1 1h-1 1-2v1h-1l-1 1h-1l-1 1v1l-1 1h1-1v1l-1 1v1l-1 1v1l-1 1-1 1v2l-1 1-2 1v1h-1l-1 1v2l-1 1-1 1h-1l-2 1h-1l-1 1-1 1v2h-1v1h-1v1h-1l-1 1h-2l-1 1-1 1h-2v1h-3v1h-1v1h-1v1h-2v1h-1v1h-3v1-1 1l-1-1v1h-2v2h-1l-1 1h-1v1h-1l-1 1v-1h-4v1h-1v1h-1l-1 1h-5l-1-1v-3h-1v-1l-1-1 1-1v-3h1l-1-1v-1l-1-1-3-1-2-1-5-1-1 1h-1v1l-1-1v1h-1v1h-2l-1 1-1 1-1-2h-3v-1h1v-1h-1v-1h-1v-1l1-1 1-1v-1h1v-1h1v-2h-1l1-1h-1 1v-1h-1v1-1h-3l-2 1-1 1h-1v2h1v2h1v-1 1-2h1v2h1l-1 1-1 1v-1 1-1h-2 1-1v1-1 1l-1-1v1h-3l-1 1v-1h-2v-1h-2v-1h-1v-2h-1v-2l2-1h2v-1h1v-1h2v-2h1v-1h1l1-1 1-1v-1h1v-1h2v-1h2v1h-1 1-1v1h-1 1v1-1h1v-3l-1-1v-1h1l1-1h2l1-1v-1h1l1-1v-1l1-1v-1l1-1v-3l2-1h1v-1l1-1h1v-1l2-2 1-2 1-2 1-2 1-1v-1h1v-3l1-2 1-2 1-5v-3l1-3v-7l-1-2v-3l-1-2-1-2-1-3-1-1-2-2-1-1-1-1-1-1-2-2-2-1-1-1h-1 1-1l-1-1-1-2-2-1-3-1h-2l-1-1h-5l-1 1h-2v-1h-1v-1h-1l-2-1h-4v-1h-2l-1-1-2-1h-1v-1h-2l-1-1-2-1-1-1-1-1-1-1v-1l-1-1-1-1h-1l-1-1h-1l-1-1h-2l-1-1h-1l-1-1h-6v-1l-1 1-1-1h-2l-1-1h-4v-1h-2v-1h-2v-1h-1v-1h-1v-1h-1v-1h-2l1-1h-2v-1l-1-1h-1v-1h-1v-2h-1l1-1-1-1v-2h-1v-3h1v-1h1-1 1v-3h1v-1h1v-1h1l1-1 1-1h1l1-1h1l1-1h2l1-1h1l1-1h1l1-1h-1l1-1h1-1 1v1-1h1-1 3l1-1h1l1-1h2l1-1v-1h3l1-1 2 1h1l1-1h1l1 1h5v-1h1l1-1h1l1-2 1-1 1-1 1-1v1-1h2l1-2 1-1v-1h1v-2l1-1v-3h1-1v-1l1-1v-6h1v-9h1v-3l-1-1h1-1v-2h2v-1l1-1 1-1v-1h1v-2l1-1-1-1v-6l-1-2v-1h-1v-1h1v1h3l1-1h1v-1 1h-1 1v1h-1 1v-1h1-1v1h1-1 1v1-1 1-1l1 1h-1 1v-1l1 1h-1 2-1v1-1h1v1h-1 1v-1l1-1v1-1 1h1l-1 1h1-1 1-1 1-1 1v-1h-1l1-1h-3 1v-1h1v1-1l1 1v-1h-1 1-1v-1l1 1v-1 2h2v-1 1-1h-2 1-1v-1h4-1v-1 1-1h1-3v-1l1 1h1-1l1-1h-1v1-1h1v-1 1h-2v-1h1-2v1-2l-1 1h1l-1 1v-1h-1v1h-1 1l-1 1h-2v-3h1v-1l1-1h1v1h-1 1v1l1-1v1-1h1-1l1-1h-1 1v-1 1h1l-1-1h1-1l1-1v-1h1v1-1h-1v-1h-1v1h-1v-2 2h-2v2h1l-1 1h-1v1l-1-1v-4l-1-2v-1h-1v-1h1v-1h-1 1-1l1-1v-1h1l1-1h2v-1h2-1v1-1h1v1h1v1h-1 1v-1 1-2 1-1h-1 1v-1l1 1v1-1 1h1v-1h-1 2-1v1-1h1v-1 1h1-1 1v-1 1h1-1 1-1 1v-1 1-1h1v1-1h-1v-1l-1 1h-2v-1h4-1v-3 2-1 1h-1v-2 1l-1 1v-1h-1 1v1h-2 1v1-1 1h-1v1h1-2v-1h1-1v1l-1-1 1 1h-1 1-1v1h-2v-4h-1v-1h1-1v-3l-1-1v-2h-1v-2h-1v-4l-1-1v-1h-1l1-1h-1l-1-1v-1l-1-2v-1h-1l1-1v-2l1 1h1v-1h1v-1h1v-1h-2v2h-1l-1-1h-1l-2-4v-1h-1v-1l-1-2-1-1v-1l-1-1-1-2v-1l-1-1-1-1-1-2v-3h8v2h-1v1h1-2 2-1l1 1h-1 1v1h-1 1v1h-1 1-1 1l-1 1 1-1h1v1h1-1v1h-1 1v-1h1v1h-1 1l-1 1h1v-1 2h-1 1v-1h1v1h-1v1-1h1-1v1l1-1v1h-1 1l-1 1h1v-1h1v1h-1v1l1-1v2h1l-1-1h1-1 1v-1h-1v-1l-1-1h1v-1h-1 1-1v-2 1-1 1-1h1v1h1-1 1v1h1v1-1h-1 1l-1-1h1v1-1h1v1-1 1-1h1l1 1v-1 1l-1-1h1-4v-1h-3v-1 1-1h3l1-1 1-1v-1h1v1-1 1-1 1h-1 1v2h1-1 1-1v-1h1l-1-1h1l1-1 1-1h1v-1h1-1 1v1-1h1v2l-1-1 1 1h-1v1l1 1-1-1v-1h1v-1h1v-1 1h1-1 1l-1 1h1v1l-1 1h1v-1h1v-1 1-1l1 1v-1 2-1l1-1-1 1v-1 1-1h-2v-2h2v1-1h-1 1-1v-1 1h-1v-1h-1v1h-1v-1h1-1l-1 1v-3l-1 1v-1 1-1 1-1 1h-1v-1h-1v-1 1h-1 1-3l-1-1h-1v-1h2v-1h-3 4v-1h-1v1-1h-1v-1h3v1h1v-1 1h1v-1h-3l-1-1h-1v1h-3v-1 1-1l-1 1h1-3v1h-1v1-1h-1l1 1h-1v1-1h-1v2h-1v1h1v1h-1v-1l-1-1v1h-1v-1h-1l1 1h-1v1h-2v1h-2v1l-1-1v-4h-1v-3h-1v-3h-1v-3h-1v-2l-2-3-3-4-5-7-7-7v-3h1l1-1h2-2v3l1-2v-1h2l1 1 1 1v1l1 1h-1 1l1 1v1l1 1h3v1l1 1v1h-2 1v1h-1 1v1h-1 1v1-1 1-1 1h1v-2h-1 1v-1 2h1-1 1-1 2v1h-1v1-1h1-1 1-1 1v1-1h1l-1 1h1-1 1v-1h-1v-1h1v1h1v1h1-1l1 1h-1 1-1v1h1-1 1v1-1h-1 1v-1 1h-1v-1h1-1 1l-1-1h1l-1-1v-2h1-1 1l-1-1v1-1h-2 1v-1 1h1l-1-1v-1h2-1v-1h-1v-1h1-1v-1h1-1v-1l-1-1v-1h1-1 1l-1-1h1v-1h1v-1 1-1h-1 1-1v-1h-1l-1-1h2v-1h1-1v-1h1l-1-1h1-1l-1 1v-1h-1v1h1-1 1v1h1l-1 1h-2v1-1h1v1h-2v1-1h-1v-1h-2v-2h-1 1v1h-1 1-1l1 1h-1 1-4v-4l1-1h2l1 1h1-1 2-1 3l-1-1h1v1h1l-1-1h1v1-2h1l1-1v1-1 1h1v-1 1-1h-1 1v-1 1-1h1v-1l1 1h1v1-1 1l1-1h-1v-1h2-1v-1 1h-1 1-1v1h-1v-1h1v-1h-1 1v-1h-1 1l-1-1v1h1l-1 1h1-1v2-1h-1l-1 1-1-1h1l-1 1h1-1 1-1l-1 1h-2 1-2v2h-3v-1h-1l-1-1v1-1h-1 1-1v-1l1-1h2v1l1-1-1 1h2v1h1l1-1h-2v-1 1h-1v-1h1-1v-1l1-1-1 1h1v-1l1 1v-1h-1l1-1v1-1h1v-1h1-1 1-1v-1h1v1-1h1-1 1-2l1-1h1-1v-1h2v1h1-1v-1h-2v-1 1-1h-1v-1h-1v1h1-1 1v1h1-1 1v1h-1v1h-1 1-1 1l-1 1v1h-2v1h-1 1-1v-1h1v-1h-1v1h-2v-1h-1l1-1v1-1 1l1-1v1-1 1-1h1-2 1v-1l-1 1h-2 1-1l-1-1 1 1v1-1h-1v-2h1-1v-1h1v-1 1h1v-1 1-1l-1 1v-1 1h-2l1 1h-1v1h1-1v-3h1-1l-1 1h1-1 1l-1 1v-1h-1v1-1 1h-2 2v1h-1 1-1 1v1l1-1v1-1l1 1v-1 1l1 1h-1v-1h-1v1h-1 1v1-1h2-1v2h1v-1l1-1v1h-1 1v1-2h1v1h-1l1 1v-1 1h1l1 1h-2l-1 1v1h-2l-1-1v-1h-1 1-2v-1h-1l-1-1h1-1v-1h-1v-1h-1v-1h-3v1h-2v-1l-1-1-1-1h-2l2 1 1 1v1l1 1h1v1h1v1h1v1h1v1h1-1v1h1-1l1-1v1h2v1h1v1h-2 1-2 1v1-1h2v1h1v3-1 2h-1l-1 1-2 1-2-1-1 1-2-1h-1v-2h1l-2-4v-2l-1-1v-1l-2-2h-1v-1l-1-1-1-1-1-1-1-1-1-2-1-2-7-7v-1l-5-5h-1l-2-2v-1l-2-2-1-1-1-1h-1v-1l-4-4v-1h-1l-1-1-1-1v-1h-1v-1l-1-1v-1h1l-1 1-1-1h-1v-1h-1v-2h1v-2h1v-1h1v-1 1h1-1v-1h-1 1v-1l1-1v-2 2l1-1v1l1 1v-1h-1 2-1l-1-1v-1h1v1h1v-1h-1v1-1l1-1v1h1v1l1 1h-1 1-1v1h1v-1 1-1h1v1-1h-1v-1h-1v-1h1v-1l1 1v1h1l-1 1h1v-1h1-1 1v-1h2v2h2v-1 1-1 1h-2v-1l-1-1h-2v1-1h-1l1-1v-1h1v-2h2v1h1-1l1-1h1v-2h1-1 1v-1 1l1-1h-2v1h-1 1-1l-1 1h1l-1 1v-1h1-2 1v-1h-1v-1h-1 1-1 1v2h-1l-1-1v-1 1-2l-1-1h1l1-1h-1v-1 1h-1v2h1v1h-1v1h1l1 1-1 1h1l-1 1v1h-1l-1-1-1 1-1-1h1-1v1-1h-2 1-1l-1-1v1h2l-1 1h1l1-1v1h-1 1v1h-3 1l-1-1v1h1-1v1l-1-1h1-1v-1h-1 1l-1 1h1-1l1-1v1l-1 1v-1h-1v-1 2h1v1h1-3v-1h-1v1h1-1 2v1h-1 1v2h-1l1 1h-1v2h-1l-5-5v-1h-1 1-1v-1h-1v-1h-1 1-1v-1h-1 1v-2h2v-1h1-1 1-1 1-2l-1 1v-1h1v-1h1-1l1-1h1-1 1-1 1v-2 1h-1v1-1 1h-1 1l-1 1h-2 2v1h-2 1v2l-1 1v-1l-1-1-1-1v-1h-2l1-1h-1v-1l1 1v-1h1v1h1v-1h-1 1v-2h1-2v1h-1v1h-1v-1h-1v-1h-1l-1-1v-1h-1v-1h-1l-1-1-1-1 1-1h3v1h2v-1l1-1 1-1v-7l-1-1-1-3-4-5-9-11-3-3-1-1-2-3-3-2-1-1-3-3h-3V7l-1-1h-2V5v1h-1V5h2V4l1-1h-1 1l-1-1h2l1 1h3l1 1h3l1-1h1V2h1l-1-1 1 1V1l1 1h1V1l1 1h5V1h1V0h2v1h1-1l-1 1-1 1v5h-2V7h-2 1-1V6h1-1v1h-1l1-1h-1 1V5v1h-2 1V5h-1 1v1h-1V5h-1v1h2l-1 1h-1 1v1-1 1h1-1v1h-1V8h-2v1-1l1 1V8v1-1l1 1h-1 1l-1 1V9h-1l1 1h-2 2-1l1 1v-1h2v1-1h1-1 1V9h1l-1 1v1h-1v1l1-1h-1 1v1h-1 1l-1 1h1v-1h1v-2h1v1l1 1h-2v1-1l1 1h-1 1v1h1v1-1l1-1v-1l-1-1-1-1V9h2v2l1 3v1l1 2 1 1 1 2h1v1h1v1h2v1l1 1 1 1h1v-1 1h-1l1 1h1v1h-1l1 1h-1l-1-1v1l-1-1h1v-1h-1v-1h-1l-1-1h-1 1v2h1v1h1-1l1 1h1v1h-1 1v-1h1v2h1l2 1v1h4l1 1v1h-1 1-1v1h-1l-1 1-1-1v1h1v1h-1v2h1-1v1h1v-1 2-1 1h1l-1-1h1v-1 1h3v1h-1 2-1v-1h1v-1 1h1-1 1v1-3l1-1v-1l-1-1v-1l-1-1-1-1v-1h2v-1l1 1 2-1 1-1h1v-1h-1v-1h1v-1h1v1h-1 1-1l1 1h-1v1h2v-1 1-1 1h1v-1 1-1 1l1 1h1-1v1h-2v1h-4v2l1 2v1l2 1 1 1h5-1 3v2h1l-1-1h1-1 1v1h1-1v-1h1-1v-1h1-1v-1h-1v1l-1-1h1v-1h-1v-1h1l1-1v-1l1 1 1 1h-1 1-1 4-1 1l-1 1h2v1h1v-1h1l1-1v1h1v1h1v1h-1l1 1h1v-1l1 1h1-3v1h1-1 2-1 1v1h-1 1-1v1h-1 1-2v1-1 1h1v1-1 1l1 1v-1h1-1 1l-1-1h1l-1-1h1v-1 1h1-1 2-1v-1 1-1h1-1 1v1-1h-1 1-1l1-1h-2 1v-1h2-1 2-1 1v-1 1h1l-1-1h1v1h1v-1h1v1h-1 1v1h3-1 1l1 1v1h1v3l1 1 1 1h2v-1 1h2v-1 1h2v-1 1-1l1 1v-1l1 1 1 1v1h2v1h-2 1-2v1h-1v1-1h-1v-1 1-2h-1 2v-1 1-1 1h-1v-1 1l-1-1v2-1h-2 1l-1-1h1-1v1-1h-1v1-1l-1 1v1h1-1v-1h2v1h1l-1 1h2-1 2-1l1 1h-1l-1-1 1 1h-1v-1h-1v1h-1 1-2 1-1 1-1v1l-1-1h1v1h-1 2v-1l1 1v-1 1h1v-1 1h1-1 1l1-1v1h1-1v1h1v1h1-1v1h1v1h-1v-1h-1 1v1h-1 1v1-1h1-1 1l1 1v1-1 1h1v1h-1v1-1l1 1h-1v1h1l-1 1h1v-1 1h2-1l-1-1h-1v-1h1l1 1-1-1h1-1 1-1 1l-1-1h1-1 2l-1 1h1-1 1v-1 1h2-1v-1l1 1v-1 1-1h-1v1l-1-1h1-1 1v-1 1h1v-1 1h3l-1 1h2-1l1-1h-2l1-1-1 1v-1h1-2 2-1v-1 1h-1 1-1v-1 1h-1v-1h-1v1h-3 1l-1-1h1-1v-1h1v1h1v-1h-1 1-1v-1 1l-1-1v-1h1v1h2v1h2l-1-1v1-1 1-1h1v1h1v1-1h1v-1h-1 1-1v-1 1l-1-1v1-1h3-1l1 1h-1 3-1v-1h-1 1-1l1-1v1-1h1-1 1-1v-1h1v1h1v-1l1 1v-1h-1 1l-1-1h1v-1 1-1h2v-1 1h1-1 1l-1 1h-1v1h-1v1-1 2-1h1v1h-1v1-1h1-1 2v1h-2v1h-1 1v1h1v1h1-1l1 1h3v1h-2l1 1h1v2h-1v-2 1-1h-2l1-1h-1 1-1 1-2 1-1v-1 1-1h-1 1l-1 1h1v1-1 1h1-1 1-1v1h1v-1l1 1v2h1-1l1 1h1v1h-1v1l1-1v1-1 1-1 1h1v-1 1h2-1 1v-1h1v1h-1 1l-1 1h2v1-1 2h1v1h1v1-1 1h-1v-1 1h-1v-1 1-1h-1 1-1v1h2v2h1-1l1 1v-1 1h1v-1l1 1v-1 1h1v1h1-1 1-1 1v2h-1 1-1v1h1v-1 2h-1v-1h-1l-1 1h-1v-1 1h-1 1-2v-1h-1v1h2v1-1h1-1 1-1l1 1v-1 1-1 1-1h1l1-1v1l-1 1h1v3l1 1h-1 1-2v1h-1v1-1h2v-1h2-1v1h1v1h-2 3l-1-1h1-1 1-1l1-1h1-1v4l-1 1h1v2h1v1h1v1h-4l1-1h-1v-1 1-1h-2l1-1h-1v-1h-3 1v-1h1l-1-1v1-1 1l-1-1v1h-1v1h1-1l-1-1h-1l-1-1h-1l-1 1v-3h-2 1v2h-2v1h1v1h1-1v2h1-1v1l-1-1v1l1 1-1-1h1v1h1v-1 1-1h1-1 1v-2h1v1h-1 1v1-1 1-1l1-1v1h3l-1 1h1v-1h2v1h1v-1 1h1l-1 1-1 2v6l2 2v1l1 1h1l1 1h2v-1h1v2l1 1h-1v1l1 1h-2v-1 2-1l1 1h-1v1l1-1 1-1v-1h-1v-1h1l1 2 1 2 1 1v1l1 1 2 2 2 2h1l1 1h4v2-1h-1l1 1h-1v2h-1v-1h-2v1h-1v1l1-1h1l-1 1 1 1h-1 2-1v-1l1-1v2h1v-1l1 1 2 1h1v-1 1h-3l-1 1v-1l-1 1h-1v-1 1h-1l-1 1v-1h-1 1v-1 1-1h-1 1l-1-1v1-1 1-1 1-1 2h-1v-1 2l1-1 1 1h-1v1h1v1h2v1-1 1l1-1v1h-1v1h-1v2h-1v1-2h1l-1-1h1-1v-1 2h-1v1-2 1l1-1h-1l1-1h-1v-2 1h-1v-1 1l-1-1h-1 1-1 1v1h-1 2v1h-1 1v1h-1 1-1 2v1h-1v-1 1h1-1v1-1h-2v1l1-1v1-1h1v1-1 1h1-1 1v2h-1v3-1h-1v3h1v1h2v1-1h1v1h1v-2h3l1-1v1-1 1h1l-1 1h-1v-1h-1v2h-1v-1 1-1 1h-1l-1 1h-2v-1l-1-1h-2 1l-1 1h1v-1h1l-1 1h1v-1 1h1-1 1v1-1 2h2-1l1 1h-1 1v4l1 1v2h1-1l1 1 1 1 1 1h-3 1v-1 1-1 1h1l-1-1h1-2v1-1h1v-1l-1 1v-2 1h-1 1-1v2h-1v-1 1l-1-1v1h-2v-1l-1-1h1-1v-1h2-1l1-1h-1v1h-2 1-1v-1h1v-2h1v-1 1h-1v1h-1 1l-1 1h-2v-1 1h-2v-1 1h-1 1v1h-1v1l1-1v1-1l1-1v1-1 1l1-1v1-1 1-1h1v1h1v-1 1h-2 1-1l1 1h-1l1-1v1-1h2l-1 1h1-1 1-1v1l-1-1v1h-1 1l-1 1v1l-1 1v-1 1h1v-1 1-1h1l-1 1v1-1h1v-1h-1v-1h2v2h-1v1h1-1 1l-1 1 1-1v1h1l-1 1h2-1v-1 1-1l-1-1v-1l1 1Zm-16 278Zm22-314Zm0-1v1-1Zm2-3Zm33-4Zm0 0Zm0 0Zm0 0Zm-1-1Zm0 0Zm1-1Zm4 0h-1 1Zm-2-1h1v1h-1 1-1v1h-1v-1h-1 1-1v-1 1h2v-1Zm-3 0v1-1Zm1 0v1-1Zm13 12Zm-9-6h1-1Zm8 0h1-1Zm0 0Zm-11-1Zm0 0Zm-1-1h1-2 1Zm-1 0Zm1 1Zm1 0Zm-1 0Zm1 0Zm-15-5v1h1l1 1h-1v3h-2l-1-1h-1 1l-1-1v-1h1l1-1h1v-1Zm13 4Zm3-4Zm4-7h1v3-1h1v2-1 1h1-1v2l-1-1v1h2v1h3v1h1v1h-1v2h-1v1l1 1h-1 2l-1 1h2v1h1v1h1v1l-1 1v1h-3v-1h-1 1-1 2l-1-1h1-1v-1h-1v1h-2v-1h-1 1v-1h-1 1v-1h-3 1v-1h-1v-1 1h-2v-1h-1v-1h-3l1-1h-1 1-1l1-1h-1 1v1-1h1v2h1v-1 1-1h-1 2-1v-1l1 1-1-1v1-1h1v-1h-1 1v-1l-1 1v-1h-1 1v-1h-3 1v-1h3l1-1h-2v-1h-1l1-1v-1h-1 2v-1h2-1 1Zm-4 7Zm-1-1Zm12-2h1v1h-1 1-1v1h-1v-2l1 1-1-1h1Zm-12 1Zm3 0Zm-4 1Zm1 0Zm-1 0Zm113 242v1-1Zm-4-130h1l1 1h-2v-1Zm11 11Zm0 0v-1h1v1h-1Zm0-1h-1 1Zm-16-11Zm-1 0Zm-26-4Zm-2-1Zm47 16h-1 1Zm-6-1h1-1Zm8-31v1h-1l-1-1h2Zm-4-2v-1 1Zm-61 16Zm0 0Zm-2-1Zm2-5h-1 1Zm-1 0Zm-9 1Zm0-1Zm0 0Zm2 0-1 1v-1h1Zm2-1Zm0 0h-1v-1l1 1h1v1h-2 1v-1Zm-7 0v1h-1v-1h1Zm-4-4Zm41 7h-1l1-1v1Zm-3-4Zm-33-7 2 3 3 2 2 2 1 1 1 1v1l-1-1v-1l-1 1v-1l-1-1h-1l-1-1v2h1-1l-1-1h-2v-2h2v1l1-1h-1l-1-1v-1h-2v-1l-1-1-1-1v-2l1 1h1v1Zm8 2h-1 1Zm18 5h1v1h1-1v1h-1l-1 1h1-1l1-1v-2Zm-10-22h1v1l-1 1h1-1v1l-1-1h-1v-2h2ZM412 606v1h-1v-1h1ZM292 723Zm141-100Zm68-125-2 1-1 1-1 1-2 2-1 1v1h-1v2l-1 1 1 1v2l-3 1-1 1v1h-1v1h-1v1h-2v1h-1v1h-2l-1 1v2h-1l-1 1h-1v1h-1v2h-1l1 1v1h2v1h-2v-1 1l-1-1h-4l-1 1h-1v1h-1l-1 1h-1v1h-1 1l-1 1-1 1v3h1-1v1h-1v1h-1v2h-1l-4 8-1 1-1 1v2h-1v1l-1 1-1 1-1 1v1h1v1h-1l-1 1-2 2h-1v1h-1l-1 1h-1v1h-4v1l-3 2-1 1v1l-1-1h-1l-3 1-1 1h-1l-1 1h-3v1h-2l-1 1h-1v1h-2l-1 1-2 2-2 4-1 2-1 3v5h-1v2h1v-1l-1-1h1v3l1 3v2l2 3h-1v-1h-1v-1h-1 1l-1 1h-1v1h4v1h1v1h1v-1l1 1h-2v1l-1-1v1h-3 1-1 1-3l-1 1h-1v1h1l-1 1v1l1-1v1h-1 1l1-1v-1 1h2v-2h2-1 1v1h1l-1-1h3l1-1 1 1v-1h1v1h-1v2l-1 1h1v-1h1v-1l1-1v-1h1-1 1v1-1h1v1h-1 2v1l1-1v1l-1 1v1h-1v1h1v1-1l1-1v-1l1-1v-1l1 1h1v1h1v-1h1l1 1h-1v1l1-1v1h-1v1h1l1-2h2-1v1h1v1l1-1 1 1h-1l-1 1h2v-1l1 1h1-1 1v1l-1 1 1-1v1h1-2v1h2v2h-1v2h-1v1h1-1v1h-1v1h-1v-1h-1l1 1h-1 1-1v1-1 1l-1-1v1h1-1v1h-1l-1-1v1h1-1l-1 1 1-1h-1v1-1l-1 1v-1l-1-1h-1v-3h1v-1h1-2v-1h2l-1-1h-1 1v-1h-2v1-1h-1v2h1-1 1v1h-1 1-1v1h-1v1h1v2h1v1h1v1h-5v-1 1h-1v-1 1h-2l1-1h-2 1v-1h-1v1-1h-2l1-1h-1v1-1l-1 1v-1h-1v-1h-10l-6 1h-5l-5 1h-2l-2 1-5 1-2 1-3 1-7 2-13 6h-2l-1 1-10 4-4 2-2 1-1 1h-1l-4 2-2 1-5 3-1 2-3 2-1 2-1 1h-1 2-1v1h1v-1 2l-1 1h1l-1 1h1-1v1l-1 1-2 2v1h-1v1l-1 1v1l-1 3v4l1 4v8l-1 1v3l-1 1-1 1-1 2v1l-1 1-3 2-5 4v2h-2l-2 2v1h-1v1h-1v2h-1l-1 1v3h-1v1l-1 1v3h2v1h1-1 1-1 1-1l1 1v1-1h-1l-1 1-1 1h-1v3h1v1h-1v1l-1 1h-1v1h-1v1-1l-1 1v1l-1 1h-1l1-1-1 1h1v1l-1 1-1 1h-1l-1-1h1-1v1h1-1l-1 1v1-1l-1-1v1h1v1h1-1v1h-1 1l-1 1h1-1l-1 1h-1v1h-1v2-2h-1v1h-1v2-1l1 1v-1h3v1h-1 1-1l1 1v-2h1v1l1 1h1v-1l1 1v-1 1h1v1h1-4v1h-2v2h-1v-1l-1 1-1 1-1 1-1 1h-2l-1 1h1v-1h5v-2h4l-1-1h1v1l1-1v-1h1l1-1h1v-1h1-1l1-1v1h1-1v1h1v1h-1v2h-4 1v1l1-1h3v1h-1 1v1h-1v1l-1-1h-3 1v-1h-2v1-1 1h1v1h1-1l-1 1h-1v-1l-1 1h-9v1h-4v1h-2l-4 1-2 1h-1l-1 1h-1v1l-1 1-2 2v1h-2 1v3h-1v2l-1 1-1 1h-1v1h-1v1l-3 1h-2l-1 1-2 1v1h-1l-1 1h-1l-2 1v1h-1l-1 1h-1l-3 1-1 1h-1l-1 1-1 1h1-1l1 1h-1l1 1h1l-1 1v1h1l1 1h-3v1h-2l1 1h-1 1-3v-1h-1v1h-1v-1h-3v1h-2 3l1-1h1v1h-1 2v-1 1h2l-1 1v1l-1-1v1l-1 1h-2v1h-3 1-1v1h-1v1-1 1h-1 1-1v-1h-7l1 1h-2l-1 1-1 1h1v1-1h-2v1l-1-1v1-1h-1l-1 1h-1l1 1h-2l-1-1v1h-1 1-1v-1h-2l-1 1h-2l1 1h-2v1h-1v-1h-4 1v-1h1v-1h-1v-1 1l-1-1h-1 1l-1 1h1v1h-1 1l-2 1v1h-7v1-1h-3l-1-1h-4l-1 1h-1v-1h-1v-2h-1 1v-1l-2-1-3-1h-6l-1-1h-7 1-1 1l1 1h-1 2v1h-2 2l-5 1h-7l-1-1h-1v1h-1v-1h1l2-1h1l1 1 1-1v1h3l1 1h1v-1h-1v-1h1-2l-1-1h-6v1-1l-1 1-1-1v-1h1-1l-1-1v1h-3v2h1l-1 1h3-1l1 1v-1 1h1v1h-3v-2h-3v-1h1l-1-1h-1l-1-1v1l-1-1h1v-1h-1v-1h4v1l-1 1h1l1-1h-1 1-1v-1h2l1-1h2v-1h1l-1-1-1-1v-2 1-1h-2v1l1 1h-3v1l-1-1v-1 2h2v2h-2l-1-2-1-1-1-2-2-2-1-1-1-1-1-1h-7l-1 1h-1v-1h1l-1-1h1-2 1l-1 1v-1l-1 1v-1h-2v-1 1h1v1h1v-1 1h1l1 1h1v1h1l-1 1v-1h-4v-1h-5l-1 1h1v1h-2v-1h-1l-1-1-1 1-1 1h-1l-1-1-1-1h-1v-1h-1l1-1h-3v-1l1-1h2v-2h-1l-1-1-3-2-1-1-2-1-1-1h-2l-3-1-2-1h-6v1l-1 1-2 1v2h1l-1 1-1 1h-2l-1-1h-2v1h-3v1l-1-1h-8v-1h-4v-1h-9 1-1v-1h-5l-1 1h-1l-1-1h-6 1v-1h-1v1h-1v-1h-1 1-1v-1h1-1l-1-1h-1v-1h1-1 2v-1h1l1-1h3v-2l1-1v1h1l-1-1v-1h3v-2h-1v-1h1v-1h3l1-1h2v-1h1v-1h1l1-1v-1 1h-1l-1 1h-1 1-1l-1 1h-1l-1 1h-3 1l-1 1h-1l-1 1h-1l1 1h-1 2v2h-1v-1h-1v1l-1 1h-1 1-1v-1h1-1v-1h1l1-1v-1l-1 1h-1v1h-1v1h1-1v1-1h-1 1-2v2h-1v-1 1-1h-1 1l-1-1v1l-1-1v1h-1v1H9h1-1 1-1v-1h1v-1l1-1h-1 1-1l1-1v2h1v-2h-1 1v-1h-1 1v-1h1v-1h3l1-1h6-1v-1h1-9 1l-1-1h1v-1h1l1-1v-2h2-1v-1h1-1v1-1l-1 1-1 1v1h-1l-1 1v1h-1v1l-1 1h-1l-1 1H7v1H3v1H2v-1l-1-1h1v-2H1h1v-1H1v-1H0l1-1H0l1-1H0h1v-1H0h1v-1H0v-1h1v-1h1l-1-1h3v-1h5l1-1v1h1l-1 1H9h2l1-1h1l1-1h4l1-1h9-1 1v-1h1l1-1h4l1-1h1-2l1-1v-1h-1v2h-6v-1h-3v1h-5v-2h1l-1-1h1v-1h5l1-1h5v-1h2v-1h1l1-1h-1v1h-1l-1 1h-6l-1 1h-2l-3 1h-1v-4h1l1-1v1l1-1h1l1-1h2v-1h3v1-1 1l1-1v1h2l1-1h2v1h1v-1h-1l-1-1-1 1h-4v-1h1l1-1v1l1-1h1l2-1h1l1-1h1-2l-1 1v-1l-1 1h-1l-1 1h-4v1l-1 1h-4v1l-1-1v1h-2v1h-5v-3h1v-2h1v-1 1h1l1-1v1-1h-1v-2h1v-2h1v-1h-1 1v-1h1l1-2v-1h-1 1v-1h1v-1h1v-1h1v-1h1v-1h2v1h2v1h3v1h-1l-1 1h-1 2v-1h4l1 1h1l1 1h-1v1h-1 1-1l1 1v1h-4l-1 1h-2l1 1v-1h2l2-1h1v1h1v-1h1v-1h-1v-2h3l1 1 1 1v1h1v4h-2v1h-1 1l-1 1h-1v1h1v-1h1v-1h1l1-1h1v-1h1l-1-1v-1l-1-1v-1h-1v-1h-1v-1h-2l-1-1h-1v-1h-1v-1h1l1-1h4v-1h2l1 1v1h1l1 1h1l1-1h-3v-1l-1-1v-1h2v-1h-1l-1 1h-2 1l-1 1h-7v-3h-1l-1-1v-2 1-2h1v-1l-1-1 1-1h1v-1l1-1h1-1 1v-1h1v-1h1v-1l2-1h1-1 1l-1-1h1v-1h1l1-1v-1h1l1-1v1-1h2-1v-1h1-1 1v-1h3-1 1l-1-1h-1 1l1-1h1v-1h1v-1h2l1-1v-1h1v2l2 1v4h-1 3v2h-1v1h1v-1h1l1 1h1v-1h-1v-1h-1v-1h-2v-1h1v-1l-1-1v-1l-1-1v-1h-1v-2h1l1-1v1l1-1h-1l1-1h2v-1h4l1 1h1l1 1h-1v1h-1v1h-1v2h1l1 1h1l-1-1h-1v-1l1-1v-1h1v-1h1v-1h-2v-1h-1v-1h-1v-1h1l1-1h3l1 1 1-1v1l1 1v1h1-1 1v-1l-1-1h-1v-1h-2v-3h1v-1h1l1-1h1l1 1v1h2l-1-1v-1h-1l-1-1h3v-1h1l1-1h2l1-1h-1l1-1h3-1l1 1 1 1h3v1h1v1l2 1v2h2l-1-1h1-1 1-1 1-1v-3h-2l-1-1h-2v-1h-2l1-1h-1 1v-5h-1v-1h2v-1h1v-2h1v-1h2v-1h1v-1h1l1-1h3v-2l1-1v1l-1 1h1-1 1v1l1 1v1h1l-1 1h1l-1 1h1l1 1v4h1l1-1h-1v-4h-1v-2l-1-1h1-1l-1-1h-1l1-1h-1v-2h-1l1-1h4v1h2v-1l1-1v-1l-1-1h-1v-1h-2v-1h3l2-1v-1h1v-1h2v-1h2l1-1v-1h2v-1h1v-2h1l2-1 1-1h-1l1-1v-1l1-1h1l1-1h-1l2-1h9l1-1h1l1-1h2-1 1l1-1v2h1l1 1h4l3-1 2-1h1l2-1 1-1 2-1v-1h1l1-1h2l2-1 3-2h1l5-4 1-1 2-1 2-1 1-1h1v-1h2l1-1h1l2-1h1l2-1h1v-2h3l1-1v1h1l1-1h2l1 1v-1h1l2-1v-1h1v1h2l1-1 1-1 1-1h3v-1l2-2 1-1 1-1 1-1 1-1v-1l1-1h1l2-2h5l2-1 2-1h1l1-1 1-1 1-1v-1h1v-1h1l1-1 1-1h1l2-2h3v1-1 1-1h1-1 2-1 1v-1h-1 1-1 1l1-1 1-1v1-1h2v-1 1l-1-1h-2l-1-1 1 1h-1 1-1v1h-1 1v1h-2v1h-1v1l2-2 1-2 1-1v-1h1l1-1v-1h4l2-1 2-1 1-1 1-1 1-1h3l1-1h5l2-1 1-1 3-2h1l1-1h2l3-2 1-1h1l3-3 1-1 1-1 2-3 3-3h1l2-2 2-2 2-1 2-1v-2h1l1-2 2-1 1-3 1-1 1-3v-1h1l1-2v-1l1-1h1v-2l1-1 1-1v-1l1-1v-1h1v-7l1-1v-2l1-1v-1h1v-2l1-1h-1 2v-2l1-1v-3h1v-2l1-1h1v-1l1-2v-2l-1-3h1v-1h-1 1v-1h6l2-1v1h-1 1v1h1v-1h-1 1-1v-1l2 1h1l1-1v1l2-1h2l2-2h1-1l1-1 2-1 3-1 2-2v-1l1-1 2-1v-1l1-1 1-2 1-1 1-3h1v-1h1l1-1 1-1 1-1h1v-1l1-1v-2l1-4v1h1v-2h2-1v-1l-1 1v-20l-1-1h1l-1-1v-1h1v-2h2v-2l1-1h1v-2h2v-1h1v-1h3v-1h2v-1l2-1 2-1 1-1 1-1h1v-1l1-1h1v-1h1l1-1h2v-1h2v-1h1v-1 1h1v1l-1-1v1h1-2v1h-1 1-1l1 1v-1 1-1h1v1-1h1-1l1-1h1v1h-1 1v-1h1v1-1l1 1-1-1h1-2v-1h4v1-1h1v-1h-1 1-1v-1h1-1l-1 1v-1h-1l1 1h-2v-1 1-1 1-1 1h-1 1l-1 1h-1v-1l1-1h1v-1h1l1-1h1v-1h1l1-1v1-1 1h1v-1 1-1 1-1 1-1h4v1h2l2-1h1l3 1h6l2 1 2 1h1v1l-2-1h-1l-1-1 1 1-2-1h-3v-1h-10v1h-1 1-1v1h-1v1h-1v1l-1 1v5-1h-1 1-1v-1l-1 1v1h1-1 1v1h1v3h-1 1v1l1-1h-1v-1 1-1l1 1 1 1 1 2h1l1 1h1v1h1v1h2l1 1h4v-1h1v-1h1v1h1v1-1h1-1 1v-1h-1 1v-1h3-1l1 1h1v1h-1v1h1v2h2-1l1-1h-1 1v1h1-1 1v1-1 1h-1v1l1 1h-1v1h1-1 1-1l1 1h-1 1-1v1h1v1h-1l-1 1h-1l-1 2h1v2h-1v2h1l1 1v1l-1 1v1-1l-1 1h1-1l1 1 1 1 1 1h1-1v-1h-1v-1l1 1 1 1v1l1 1v1l1 1h1v1l-1-1v1h-2 1-1 1v1h2-1l-1 1h4l1 1v1h2v1h1l1 1v1h2l1 1h1l1 1h1l1-1h1l1-1v-1l1-1h2l1-1v-2l1-1h1v-1h1v-1h1v-1l1-1h2v-1h1v-1l1 1v-1h1l1-1v-5h1v-3 1h1v1h2l-1 1v-1 1h-1v1l1-1h2v1h1v-1h-1v-1h3v-1h3l1-1h-2 1v-1l-1 1h-1v-1 1l-1 1-1-1v1-1h-1v-1h1l1-2h1v1h1v-1h1v-1h1-1 1-1 1v-1 1h2v-1h-1 1v-1 1h1v-1l1-1h1v-1h1v1h-1v2l-1 1h3v-1h1v-1h1l1-1h-1 1l-1-1h3v-1l1-1h1v1h3l-1 1h1-1v1h-1v-2h-1l-1 1h1v1h-2v1h1-1l1 1h-1l-1-1h-1v1h-1v1h2-1v1h-3v1h-4 1v-1l1-1h-1v1l-1-1v1h-1l1 1h-1v-1h-1v1h1-2 1v1l1-1v1h1-1v1h-2v1l1-1v3h-2v1l1-1h1-1v1h-1 1v1-1h2-1 1l-1-1v1-1l1-1v1h1v-1h1v-1h-1 1v-1l1 1v-1l1 1 1-1v1h5-2v1l-1-1v1h1-1v1-1h-2 1v1l-1-1v1h-1 1l1 1v1h-1v-1 1-1h-2v1h1v1h-2 1-1v1-1h-1 1l-1 1h-2v2-1h2v-1l1 1 1-1h1l-1 1h-1 3l-1 1h1l-1 1v1h-1v1l1 1h-4v-1h-1l1 1 1 1h-5v1h2v1-1 1h1v-1l-1-1h1l1 1v1h4v-1h-1l-1 1-1-1v-1h4v-1h2v-1h2-5v-1h5l1-1v1h-1 3-1 1-1 2l1-1h2-1 1v-1h-2 2v1-1 1h1v-1h1v1-1h3v-1h-2v1h-2v-1 1-1l-1 1v-1 1-1h1v-1h-1v1h-2v1h-1l1 1h-1v-1h-1v1-1h-1 1-1 1l-1-1v1h-2v1h-3l-1 1v-1l1-1v-1h1-2v-1h2-2v-1h2l1-1h-1v-1h2v-2l1 1v-1h2v1h-1v1h-1v1h1l-1 1h1v1-1h1v-1 1h1v-1h-1 1v-1h-1l1-1v1-1l1 1v-1l1 1h2-1v-1h-1v-1h-1l1-1h-1 2l1-1h-1 1v-2h-1v1-1 1-1h-2v1h-1v1l-1 1 1-1v-1h-1v1h-1v-1h-1l-1 1v-1h1v-1h-1 4-1v-1h-1v-1h1v1h1l1-1h-1v-1h2l-1 1v2l1-1-1 1h3v-1h1v1h1v1h1v1-4l1 1 1 1h1v-1h1v-1h-1v-1h1l1 1v2l1-1h2v-1h1l-1 1v1l-1-1-1 1h1l-1 1h1-1 1v1h-1v-1h-1v1h-1 1v1h2l1 1v-2h3v-1h2v-1h1l-1-1h1v1h-1v1h-1v1h-1 1l-1 1h1-1v1h-1v1h-1v1h1v1h-2v-1 1h-1l1 1h-2v-1h-1 1-1v-1h1v-1h-1v1l-1 1-1-1v1l1 1v-1 2h3-1v1h1l-1 1h1-1v1h-1v-1h-1v-1 1-1h-1l1 1h-1 1l-1 1h1-1v1h1-2v-1h-1l1 1h-1v1-1h-1v-1h-1l1 1h-1v1h-1 1-1v-2 1l-1-1v1h1-2l1 1h-1v-1h-1v1l1 1h-1v-1h-1v1-1l-1-1h1-1v2h-1v-1h-1v1h1-1 1v1h-1v-1 1h-1 1l-1-1v1h-2l-1 1h3v-1 1h1v-1l1 1v-1 1-1h2l-1 1h1v1-1 1-1h1v-1h1v-1h1l-1 1v1-1 1h1v-1l1-1v2l1-1v1-1h-1l1-1h2v-1h1v1l1-1v1h-1 1l-1 1h1v-1h1v1h-1 1l1-1v1h1v1h1-1 1v-1h-1v-1h1v1h1v-1h2v1l1-1h-1 2-1 1l-1-1h1l1-1h1-1v1h-1v1h1-1v1h-1 1v1h-2v1-1l-1 1h-1 1v2h-2v-1l-1 1v1h-3v1h1-3 1v-1 1-1h1-1 1v-1h2v-1h-1 1v-1h1-2v1h-1v1l-1-1h1v-1h-1v1l-1-1v2h-1 1l-1 1h1-1v1h-1v1-1h-1v3l-1-1v1l-1 1v1l-1 2v1l1 1 1 1 1 1v1h-1v1h1-1 2-1 1-1 1v-1 1-1 2h1v-1 1l1-1h1l-1-1-2-1h-1v-1 1l-1-1h1l2 2h1l1 1 1 1v1l1 1v6l1 1v1h1l1 1h1v-1l1 1h3l-1 1-1 1h-1v1l-1 1-1 1h1-1l-1 1v1h-1v1h-1v1l-4 3v1l-1 1h-1l-1 1v1Zm-85 108Zm347-323Zm20-21Zm15-45ZM694 359Zm7-14Zm50-22v-2h1v1l-1 1Zm-3-10ZM502 470Zm0 0Zm0 0Zm0 0Zm0 0Zm0 0Zm-1-1v1-1Zm0 0Zm2 0Zm0 0Zm0 0Zm0 0Zm0 0Zm-1 0Zm0 0Zm0 0Zm1 0Zm-1 0Zm1 0Zm-1 0Zm0 0Zm1 0Zm-1 0Zm0 0Zm0 0Zm0 0Zm1 0Zm-1 0Zm0 0Zm0 0Zm0 0Zm-1 0Zm1 0Zm0 0Zm3 0h-1 1Zm-3-1Zm0 0Zm-1-1Zm2 2Zm-1 0Zm0 0Zm0 0Zm2 0Zm-1 0Zm0 0Zm0 0Zm0 0Zm0 0Zm-1 0Zm0 0Zm1 0Zm0 0Zm0 0Zm-1 0Zm0 0Zm0 0Zm2 0Zm-2 0Zm1 0Zm-1-1h1v1h-1 1-1v-1Zm17-20Zm0 0Zm0-1Zm2 0Zm5-6Zm0 0Zm0 0Zm0 0Zm0 0Zm0 0Zm0 1Zm0-1Zm-7 0Zm7 0Zm0 0v1-1Zm0 0Zm1 0Zm-6-2Zm0 0Zm0 0Zm0 0Zm0 0Zm5 2Zm0 0Zm0 0Zm0 0Zm0 0Zm0 0Zm-7 0Zm0 0Zm7 0Zm0 0Zm0 0Zm0 0Zm-20 15Zm-8-3Zm0 0Zm0 0Zm0-1Zm2-1Zm-2 0Zm1-6Zm-16-1h1-1Zm33 0v1h-1v-1h1Zm-3 0h1l-1 1h1v1h-2 1-1v-1h1v-1Zm-17 4Zm-1-1Zm0 0Zm18 0Zm-1 3h-1 1Zm-11-1v1-1Zm17-1Zm0 0Zm0 0Zm-17 1Zm-18-8Zm-2-1Zm3-1v-1 1Zm-9-1Zm10-1Zm-1 0Zm-10 0Zm17-2-1 1h2l-1 1v-1h-2l1-1h1Zm-16 1v1-1Zm34-1Zm-9-1Zm1 0h-1 1Zm-12-2Zm18-1h-1 1Zm-24 0v-1 1Zm17 2Zm0 0Zm0 0Zm0 0Zm0 0Zm-19-3Zm1-1Zm1 1Zm34 11h-1v1h-1v1-1h1v-1h1Zm-21 0Zm27-1v3l-1 1v3h-3 1-1v1h-1v-1h-1v1h-2v1h-1v-1 1h-1l-1-1v1h-2v1h-2v-1h1v-1h2l1-1v1h1v-1h-1 1v1-1h2-1v-1h2v-1 1l1-1h1v-1l1 1h-1v1h1v-1l1 1v-1h-1 1v-1 1-1h2v-2h-1v1h-1v1-1 1l-1-1v1-1h-3l1-1h4v-1h1v-1h1Zm-6 1h1-1Zm1 0Zm0 0Zm-2-1v1-1Zm0 0Zm-19 0Zm19-1v1h-1l1-1Zm-34-13Zm25 0Zm-25 0Zm23 0Zm0 0Zm-8-3h1-1Zm0 0h1-1Zm-1-3h-1 1Zm-10 0v-1 1Zm10-1h1-1v-1 1Zm0 0-1 1v-1h1Zm-7 0Zm-3-1Zm4 0Zm-4 0Zm1 0Zm3 0Zm0 0Zm0 7Zm2 0Zm5-1Zm-5 0Zm-8-1Zm0 0Zm0 0Zm-1-1v1-1Zm0 1Zm1 0Zm0 0Zm13-5v-1 1Zm-10 0Zm0-1v1-1Zm0 0v1-1Zm1 0Zm9 0Zm-5 0Zm0 0Zm0 0Zm0 0Zm0 0Zm0 0Zm0 0Zm0 0Zm0 0Zm0 0Zm0 0Zm-2-1h1-1Zm-1 0Zm6 1Zm-3 0Zm3 0Zm-3 0v-1 1Zm1-1Zm0 0Zm0 0Zm0 0Zm-1 1Zm0 0Zm2-3Zm1 0Zm-1 0Zm0 0v-1 1Zm1-1Zm1 0Zm1-1h1l-1 1v-1Zm-1 1Zm0 0Zm0 0Zm0 0Zm0 0Zm0 0Zm-1 1Zm0 2Zm0 0Zm0 0Zm0 0Zm-1-1Zm0 0Zm1-1Zm0 0Zm1 0Zm0 0Zm0 0Zm0 0Zm0 0Zm0 0Zm9 12Zm0 0Zm0 0Zm-16 0Zm16 0Zm-2 4-1 1h1v1h-1v2h-1v-2h1v-1h-1v-1h2Zm-21-1Zm0 0Zm0 0Zm1 0Zm-1 0Zm0 0Zm0 0Zm0 0Zm0 0Zm0 0Zm0 0Zm0 0Zm0 0Zm0 0Zm0 0Zm0-1Zm0 1Zm0 0Zm0-1Zm0 0Zm0 0Zm0-1Zm19 1Zm0 0Zm0 0Zm0 0Zm0 0Zm2 0Zm0 0Zm-2-1Zm0 1Zm0-1Zm3 0Zm0 0Zm0-1v1h1-1v-1Zm-13 1Zm-9 0Zm1 0Zm5 0Zm14 0h-1 1Zm0 0Zm-14 0Zm7 0Zm-6 0Zm14 0Zm-1 0h1v1l-1-1v1h-1v-1h1Zm-7-13v1-1 3h-1 1v2h-1v1h-1 2v1h-1v-1 1h-1v2h-1v1h-1v1h1l-1 1v-1h-1l-1 1v1h-1l-1 1v-1 1h-1 1l-1 1h-2v1h-2 1v-1l1-1v-1h-1l1-1h-1 1-1v1h-1 1v-1h-1 1l-1-1h1-1l1-1v-1h1v2-1h1v1-1h1v1h1v-1l1-1-1 1h-1 1-2v-2h-1v-1h1v-1h1v-1h1l-1-1h1-1 1l-1 1h1v-1l1-1 1-1v1h1-1v1l-1 1h1v2-1l1 1-1-1h1v-1l1 1v1-1h1-1 1-1l1-1v1h1v-1h-1 1-1v-1 1h-2v-1h2v-1 1-1h2v-1h-1 2-1v-1h1-1v-1h1Zm48-309Zm1-2h2v1h-2l-1-1v-1l1 1Zm2-4Zm-2-22Zm1-1Zm-1 22Zm0 0Zm5 0Zm-3 0Zm-2 0Zm-1 1h1-1v-1 1Zm4-1v1-1h-1v1-1h1Zm-2 0h1v1h-1v-1 1l-1-1h1-1 1Zm4 0h-1v1-1h1Zm-6 0h1-1Zm0 0Zm3-26h1-1Zm0 0Zm0-1Zm0 0Zm0 0Zm-1 0Zm1 0h-1 1Zm0 0Zm0-2v2-1h-1 1l-1-1h1-1 1Zm0 2v1-1Zm-25-5Zm0 0Zm0 0Zm0 0Zm0 0Zm0 0Zm-57-1-1 1v-1h1Zm57 1Zm0 0Zm-1-1Zm-52 0Zm53 0Zm-1 0h1-1Zm0-1Zm0 0Zm0-1Zm-50 0Zm-2 0Zm53-1Zm1 0Zm0 0Zm0 0Zm-3 0Zm3-1v1-1Zm-1 0Zm-2 0Zm-11-1h1-1Zm10 0Zm2 1Zm2 2v-1 1Zm0 0Zm0 0Zm0-1v1-1Zm0 0Zm0 0Zm-15-2Zm-3 0Zm5 0Zm-1 0Zm-3-1v-1 1Zm-1 0v-1 1Zm0-1Zm0 0Zm0 0Zm0 0Zm7-1Zm3-1Zm-9 0Zm10-2v1-1Zm-6 0Zm0 0Zm0 0Zm2 0h-1 1Zm-3 1h1-1Zm3 0Zm-1 0Zm2 0Zm-2-1v1h1-2v-1h1Zm-1 6Zm6 65Zm0-1Zm13-1Zm-18-2Zm10-1Zm0 0Zm-12 0Zm0 0Zm8 0Zm-1 0Zm3 0Zm0-1Zm3 0Zm0 0Zm-3 0Zm-4 0Zm-1-1Zm-2-4Zm1 0h-1 1Zm1 0Zm-2 0Zm25-19Zm0 0Zm-13-2Zm-1 0Zm-1 0h1-1Zm0 0Zm0 0v-1 1Zm0-1Zm14 3h1-1Zm1 0Zm-15-3h1-1Zm-1 0Zm8-1Zm6-4Zm0 0Zm0 0Zm0 0Zm0 0Zm-2-5h1-1Zm-2 0Zm0 0Zm3-2Zm-5-8Zm6 15Zm-6-15Zm-1-1Zm0 0Zm0-1Zm-1 0Zm0 0Zm1 0Zm0 0Zm0 0Zm0 1Zm0 0h1-1Zm0-2v-1 1Zm0-1Zm-5 0Zm5 0Zm-4 0Zm4 0Zm0 0Zm-4 0Zm0 0Zm4 0Zm-1 0Zm0 0Zm-2 0h-1 1-1 1Zm0 0Zm3 0Zm-5-1Zm0 0Zm-1-1v1-1Zm0 0Zm0 1Zm0 0Zm0 0Zm6 1h-1 1Zm-1 0Zm1 0Zm0 0Zm0 0Zm0 0Zm-1 1Zm-5-3ZM408 5Zm0 0Zm97 49Zm0 0Zm-1 0Zm1 0Zm8-1v2h-1 1v-1l-1 1v-1h1-1v-1h1Zm-9 1Zm-6 0Zm7 0Zm0 0Zm-5 0Zm-2 0Zm1 0Zm1 0Zm0 0Zm2-1Zm-2 0Zm0 0Zm4 0Zm0 0Zm-4 0Zm-3 0Zm7 0Zm8 0h-1 1Zm-14 0Zm7 0Zm0 0Zm6 0Zm-8 0Zm1 0Zm0 0Zm1 0Zm0 0Zm-6 0Zm12 0h1-1Zm-6 0Zm-2 0h-1 1Zm0 0Zm2 0Zm0 1v-1 1Zm-5-1v1-1Zm4 0v1h-2v-1l1 1 1-1Zm-1 0Zm0 0v1-1Zm1 0Zm-4 0Zm3 0Zm0 0Zm0 0Zm1 0Zm-1 0Zm0 0Zm2 0Zm-5 0Zm3 0Zm-3 0Zm-1 0Zm4-1Zm0 0Zm0 0Zm0 0Zm0 0Zm1 1Zm-3 0h-1 1Zm-3 0Zm7 0h-1 1Zm-1 0Zm-1-1Zm0 0Zm0-1Zm3 0Zm14 0Zm-41-7Zm0 0Zm14 0Zm0-1h1-1Zm-13 0Zm0 0Zm14-1Zm-12-1v1-1 1l-1-1 1 1v-1Zm12 1v-1 1Zm0-1Zm1 1h-1 1Zm-2 0Zm0 0Zm2-2h1-1Zm-46 0Zm3 0h-1 1Zm41 0Zm-5 0Zm0 1h1-1Zm0 0Zm6 0Zm0-1Zm-1 1Zm2-1Zm1-1Zm-35 0Zm33 0h1-1Zm1-1Zm0 0Zm-1 0Zm0 0h1-1Zm0 2Zm-7-1Zm7 0v2h-1v-2h1-1 1Zm-6 0Zm-39 0v1-1Zm0 0Zm35 0Zm2 0Zm2 0Zm0 0Zm-3 0Zm-4 2Zm13 0Zm0 0Zm-1-3h1-1Zm0 0Zm-11-1Zm-5-1Zm0 0Zm0 0Zm-2 0Zm-5-1Zm-13-9h-1 1Zm22 12Zm4 0Zm0-1v1h1-1v-1h-1 1Zm-26-11Zm0 0Zm-2-1v1-1Zm3 0Zm0 0Zm-3 0h-1 1Zm3 0Zm0 0Zm-16-1Zm0 0Zm0 0Zm0 0Zm-17-5Zm0 0h-1 1Zm-1 0h1-1Zm-5-5h-1 1Zm3-12Zm13-1v1-1Zm54 37v1l-1-1h1Zm-21 0Zm36 14Zm-1 0Zm0 0Zm0 0Zm0 0ZM277 752Zm2-1Zm-3 0h1-1Zm0 0Zm-60 43Zm0 0Zm-2 0Zm35-28Zm33-12Zm-182 67h1v1h1v2h-2l-1 1h-1v1h-1v1h-1 1v-1h2l1-1h1v-1h2l-1-1h2l1 1v1l1-1h1v1-1l1 1h4v1h-2l-1 1h-1 1-1 2v1l1-1h2-1 1v-1h1-1 2l-1-1h1-1 1v-1h-1 1v-1h1v1h-1v1h1l-1 1v1h2v1-1l1 1h-1 1-1v1h1v1h-1 1-1v1h-1l1 1h-1l-1-1h-1 1v1h-2l1 1v-1h1v1h-1 3v1h1-2 1-1v-1 1l-1-1v1-1h-1v1-1h-1v1-1h-1 1v1h1l-1 1h1-1v1-1h-1 1-2v-1l-1 1v-1 1-1h-2v-1h-1 1v1h1l1 1h1-1 2-1v1h1-2v-1h-3 1l-1 1h1-1l-1-1v1h-2 1-1l-1-1v1h-1v1h-1l-1-1v1h-1v1h-2v1h-3l1 1h-1 1-3v1h-1v-1 1l-1-1h-2v-1h-1v1h-2v-1h-1 1l-1-1h-1 1-1l1 1h-3 1l-1-1v1h1v1h-1 1v1h-3l1-1h1-1v1h-3 1-1 3-1 1l-1 1v-1 1h-1v-1 1h-1 1v1h-2v1l-1-1v1-1h-1l1 1h1l1-1h1v1-1 1h1-1 1v-1h1-1 1v-1l1 1h-1 1v1h-1 1v1h-3v1-1 1-2h-2v1-1 1l-1 1h1-2l-1 1h-1v-1l-1 1h-1v-1h-1l-1 1v-1h-1l1-1-1 1v-1h1v-2h1-1v-1h2-1 1v-1h2v-1h1l1-1 1 1v-1h1-1v-1h-1 1v-1h1-1 1-1v-1h1v-1h-1v-1h-1 1-1 2v-1h1v-1h1v-1h1v-1l1 1v-1l3 1h2-1 1v1-1h1-1l-1-1h-1 1l-1-1 1-1h-2l1-1-1-1v1-1h3l1-1h1l1-1h-1l1-1v-3h-1v-2h-1v-1h-1 1v-1h-1 1-1 1-1v-1h-1v-1h1v-1h-1v-2h1v-2h2v-1h1l1-1h1v1h4v-1h1l1 1h3v1h1l1 1h1v2h1v1h1l-1 1h1v1h2v1h2v1h2-1v1h-1 1v1l1-1 1 1h1v-1l1 1v1l-1-1v1h1v1h-2 3-1v1h-4v-1 1h-1l1-1h-2 1v1-1h-1l1 1h-1 1-1v-1 1h-1 1-1 1v1h1-1v-1 1-1 1h-1v-1h-2 1v-1h-1v-1h1-1v-1h-1l1 1h-1v1h1-4v-1h-1l1 1h1-1Zm-37 25v-1 1Zm1-1v1h-1v-1h1Zm2-1Zm0 0h1-1Zm-1 0Zm0 0Zm-4-1h-1 1Zm0 0Zm0 0Zm0 0Zm0 0Zm0 0Zm5 0h1v1h-1v-1Zm-4 0Zm-3 0v-1 1Zm0-1h1-1 1l-1 1v-1Zm7 0h1-1Zm-4 1Zm4-1h1v1h-1v-1Zm-4 0Zm0 0h1-1Zm0 1Zm1 0Zm0 0Zm-1 0h1-1Zm0-1Zm4 0Zm0 0Zm0 0Zm0 0Zm0 0Zm-4 1Zm0 0Zm0 0Zm0 0Zm0 0h-1 1Zm4 0h1-1v1h-1l-1 1h-1l-1-1h1v-1h3Zm-4 0Zm5 0h-1 1Zm-2-6Zm-1 0h1l-1 1h1-1v-1 1-1Zm0 0Zm-1 5h1-1v1l-1-1h1Zm4 0Zm45-15Zm0 0Zm-2 0Zm2 0Zm-3 0Zm3 0Zm0 0Zm-4 0Zm5-1Zm-1 1Zm-1-1Zm0 0Zm3 0Zm0 0Zm0 0Zm0 0Zm0 0Zm-2 0v-1h1l-1 1Zm0 0Zm2 0Zm0-1Zm1 0Zm-33 0v1-1h-1 1Zm31 0h-1 1Zm-1 0Zm1 0Zm-1 0Zm0 0Zm-38 11Zm38-1Zm4 0Zm1 0Zm0 0Zm-43 1Zm0 0Zm38 0Zm5-1v1l-1-1h1Zm0 0Zm-7 0Zm6 0Zm0 0Zm2-2Zm-4-1Zm-1 0Zm5 0Zm0 0h-1 1Zm-1 0Zm-2 0Zm0 0Zm-31-1Zm34-2v1-1Zm-1 0v-1 1Zm-5 6Zm5 0h-1 1Zm0-7Zm-42 9Zm0 0Zm0 0Zm0 0Zm0 0Zm0 0Zm29 0h-1 1Zm-29 0Zm-2-1Zm2 1Zm-2 0Zm0 0Zm0 0Zm0 0Zm0 0v-1 1Zm1-1Zm0 0Zm43 0Zm-4 0Zm0 0h1-1Zm-39 0Zm38 0Zm-38 0Zm0 0Zm0 0Zm39 0Zm-39 0Zm0 0Zm39 0Zm0 0Zm-39 0Zm43 0v-1 1Zm-46 11h-1 1Zm5-1Zm5-2Zm-3 1Zm-1-1v1-1Zm2 0v-1 1Zm-1-1v1-1Zm-3 0Zm1 0Zm-2 0Zm0 0Zm5 0Zm-5 0Zm4-1Zm0 0Zm2 0Zm-1 0Zm-1 1Zm0 0Zm11-2Zm0 0Zm0-1Zm-6 0Zm0 0Zm-10 0Zm13 0Zm-15-1Zm0 0Zm0 0Zm0 0Zm1 0Zm9 0Zm-9 0Zm29 0Zm-17 0Zm-10 0Zm-1 0Zm1 0Zm10-1v1-1Zm-12-1h-1 1Zm27 0Zm-27 0Zm0 0Zm2 1Zm1 0h-1 1-1 1Zm-3 1Zm12 3Zm-5-1Zm0 0Zm2 0Zm1 0Zm0 0Zm0 0Zm-2 0Zm2 0Zm0 0Zm-3 0Zm1 0Zm-12 0h-1 1Zm12 0Zm-1 0Zm1 0Zm0 0Zm-1 0h1-1Zm4 0Zm-3 0Zm4-1h1v1h-1v1-1h-1v-1h1Zm-3 2h1-1 1v1h-1v-1h-1 1Zm-4 0Zm5 0Zm-4 0Zm1 0Zm-2 0Zm-8 0Zm0 0Zm12 0Zm1-1h1-1v1h-1v-1h1-1 1Zm-10-4h1-1Zm48-15Zm0 0Zm0 0Zm2-2Zm-2 2Zm1-3Zm0 0Zm0 0h-1 1Zm12-3Zm-14 0h1-1Zm15 0Zm0 0Zm1 0Zm-1 0Zm0 0Zm-1 0Zm0 0Zm1 0Zm-1 0Zm-3 0Zm4 0Zm0 0Zm-1 0Zm1 0Zm-15 0Zm17-1Zm1 0h-1 1Zm-18 1Zm15 0Zm0 0Zm3-1h-1 1Zm4-2h1-1v-1 1Zm-10 0Zm3 0Zm9-1Zm0 0Zm0 0Zm0 0Zm0 0Zm0 0Zm0 0Zm-14 3Zm7-1Zm4 0Zm0 0Zm0 0Zm0 0Zm0 0Zm0 0Zm0 0Zm-5 2Zm-1 0Zm1 0Zm-44-9Zm-74-71v1h2v5h1l-1 1v1l-1 1-1 1h-2 1-1 1-1v-2 1h-1 1-1l-1 1h-2 1-2v-1 1-1h2-1v-1H9v-1 1l1-1v-1H9v1H8v-1h2-1l-1-1 1-1H8v-1 2l-1 1-2 1-1 1H3v1H1h1-1v-1h1v-1h1l1-1v-1h1v-1h1v-1h1v-1h1v1l1-1v-1h2l1-1h-1 1v1h2v-1h2v1-1h1Zm18-30v1h1v1h-1v1h-1v1h1v2h1v1h1v3h1-4v-1h-1l-1-1h-1v-1h-1l-1-1h1v-1h-1 1l1-1 1-1v-1h2l-1-1h1l1-1Zm63-31Zm0 0Zm0 0Zm-7 132Zm-1-1Zm1 0Zm-1 0Zm1 0Zm0 0Zm0 0h-1 1Zm0 0Zm39-1h1-1Zm-2-3Zm-4-1Zm0 0Zm-96-1Zm97 0Zm-1 0h1-1Zm1 0Zm-1-2v1-1Zm3 0h-1 1Zm-1 0Zm-8-2Zm-14-12h1-1Zm-10 9Zm-1-1h1l-1 1v-1Zm41 8v1-1Zm-103 1v-1 1Zm101-1Zm0 0Zm1 0h1-1 1-1v1l-1-1h1Zm10 12Zm-3 0Zm-2-1h1v2h-1v1h-1 1-1v1-1h-1 1v-1h-2v1-1h-1 2v-1h-1 3l-1-1h1Zm5 1Zm0 0Zm0 0-1-1h1v1Zm-1 0Zm-8-1Zm8 1v-1 1Zm1 0Zm-60 12h-1v1l-1-1h2Zm31 0Zm-2 0Zm2 0Zm0 0Zm-4-1Zm1 1Zm-1 0h1-1Zm1 0Zm0 0Zm3 0Zm-12-1Zm9 0Zm0 0Zm0 0Zm-1 0Zm2 0h1l1 1h-3v-1h1Zm1 0Zm-2 0Zm0 0Zm0 0Zm0 0Zm0 0Zm0 0h-1 1Zm1 0Zm-1 0Zm0 0Zm0 0Zm3-1Zm-5 0Zm0 0Zm0 0Zm2 0Zm0 0Zm0 0Zm-2 0Zm4 0h1v1h-1v-1h1-1Zm4 0Zm-8 0Zm2 0h1-1Zm-7-1v1h-1v-1h1Zm4 0Zm4 0Zm0 0Zm-7 1Zm0 0Zm8-1Zm2 0Zm-10 0Zm7 0Zm5 0Zm-30-1Zm0 0Zm32 2h1-2 1v-1 1Zm-8 0Zm2-3Zm0 0Zm2 0Zm3 0h1-1Zm-1-1h1-1Zm-32-1Zm33 0v1-1Zm-41-5Zm0 0Zm6 1Zm-2 1Zm0 0Zm0 0Zm1-1h-1 1Zm-5-1Zm4 0Zm0 0Zm-4 0Zm0 0Zm0 0Zm3 0Zm-1 3Zm0 0Zm1-1h1-1Zm0 0Zm0 0Zm-3 0Zm1 0h-1 1Zm3 0Zm-3 0Zm2 0Zm-3 0Zm8-5Zm0-1Zm0 0Zm-1 0Zm0 0Zm0 0Zm0 0Zm0 0Zm0 0Zm0 0Zm0 0Zm0 0Zm0 0Zm0 0Zm1 1Zm-1 0Zm0 0Zm1-1v1h-1l1-1Zm-9 4Zm1 0Zm0 0Zm3 2v1-1h-2v-1h-1v-1h3v1h1v1h-1Zm-4-2Zm4 0Zm-3 0Zm422-506Zm-1 1Zm1-1Zm0 0Zm0 0Zm38-19Zm0 0Zm-39 20Zm0-1Zm0 0Zm-1 0Zm1 0Zm0 0Zm0 0Zm0 0Zm1 0Zm0 0Zm-1 0Zm0 0Zm-57 147h1l1 1h-1v-1h-1Zm1 0h1l1 1h-1v-1h-1Zm-3-2 2 1v1l-1-1h-1v-1Zm1 0 4 1 1 1h-1l-1-1h-1v1l-2-1-1-1v-1l1 1Zm-1 0Zm-1 0Zm0-1Zm-5-7 1 1-1-1h1-1Zm0-4-1-1 1 1Zm-1-1Zm1-1Zm0-1Zm0 0Zm2-3v1-1Zm1-1v1h-1l1-1Zm0 0Zm0-1Zm0-2Zm0 0Zm0 0Zm0 0Zm0 0Zm0-2Zm0 0Zm0 0Zm-10-6Zm0 0Zm-16-9v1-1Zm18-9h-1 1Zm-3 0v-1 1Zm-18-1Zm1 0Zm2-1Zm0 0Zm1 0Zm-1 0Zm0 0Zm0 0Zm125-166h-1 1Zm87-49Zm0 0Zm0-1h-1 1Zm-68 59h1v1h-1v-1Zm-4 0Zm-3-15Zm77-53Zm0 0v-1 1Zm1-2h1-1v1h-1v-1h1Zm-6-2Zm4-1h-1 1Zm11-1Zm0 0Zm0 0Zm0 0Zm1 0Zm-1-1Zm0 1h1-1Zm0 0Zm0 0Zm0 0Zm0-1v1-1Zm0 0Zm0 0Zm0 0Zm0 0Zm0 0Zm0 0Zm0 0Zm0 0Zm0 0Zm0 0Zm0 0Zm0-1Zm0 0Zm0 1v-1 1Zm0-1v1-1Zm-1 0h-1 1-1 1Zm1 0Zm0 0Zm0 0Zm0 0Zm0 0Zm0 0Zm0 0Zm1 0Zm0 0Zm-1 0v1-1 1-1Zm1 0h-1 1Zm-1 0Zm2 0Zm-4 0Zm4 0Zm-1 0Zm-1 0Zm1 0Zm-3 0Zm1 0Zm0 0Zm1 0Zm0 0Zm1 0Zm-3 0h1-1Zm3 0Zm-1 0Zm1 0Zm0 0Zm-1 0Zm-14-1Zm14-1Zm0 0Zm0 0Zm-25-2Zm-18-1Zm31 0v-1 1Zm-32-1Zm0 0Zm0 0Zm0 0Zm44 6Zm1 0Zm0 0Zm-18-7v1-1Zm-26 0h-1 1Zm26 0Zm-26 0Zm26 0Zm0-1Zm-27 0v-1 1Zm27 0Zm0 0Zm-2-1Zm-25 0Zm0-1v1-1Zm25 1h1-1Zm1 0Zm-22 1Zm23 0Zm-5-2Zm1 0h-1v-1l1 1Zm-24-22h1-1Zm-4-3Zm30 1h-1 1Zm-1 0h1v1l-1-1v1-1 1h-1v-1h1Zm-21 22v2l-1-1v1h-1v-1h1v-1l1 1v-1Zm2 1Zm-3 0h-1v-1 1h1Zm0-1Zm-2-1h1v1h-1v-1Zm3 0Zm10 0Zm-12 0Zm-2 0Zm1 0Zm27 0Zm0-1Zm-27 0h-1v1-1h1Zm0 0Zm27 1Zm0 0Zm0 0Zm0-1v1-1Zm0 0Zm-24 0Zm28-1v1-1Zm-4 0Zm4 0v-1 1Zm-4 0Zm0-1Zm2 2h-1 1Zm-1 0Zm0 0Zm0-1v1-1Zm0 0v1-1Zm0 0Zm0 0Zm0 0Zm-28 1h1-1Zm30-2Zm-17 0Zm-14 0Zm0 0h-1 1Zm0-1h-1 1Zm0 1Zm0-1v1-1Zm1 0Zm0-1Zm29-1Zm-31 0Zm1 1Zm0 0h1-1Zm-1 1Zm15 0Zm-16-3Zm1 1h-1 1Zm31 0Zm-27-1Zm21-2Zm0 0Zm8 1Zm4-1v1h-1v-1h1Zm-2 1Zm0-1v1h-1v-1h1Zm2 0Zm-11 2Zm0 0Zm8-1Zm-3 0Zm1 1h-1l1-1v1Zm1-1Zm-6-4Zm0 0Zm-21-5Zm-3-1Zm-1 0Zm25 6Zm-25-7Zm-1 0h1-1Zm26 8v1l1 1h2v1h-1v1l-1-1v1h-1v-1 1-1h-1 1v-2h-1 1-1v-1 1-1 1h-2l1-1h-1 2l1-1v1Zm1 1h-1 1Zm-1 0h1-1Zm-3 0Zm0 0Zm0-1Zm1 0Zm0 0Zm1 0Zm0 0Zm0 0Zm5 4Zm0 0Zm3-1-1 1h1-1v-1h1Zm-73 292v1h-1l1-1Zm8-12Zm0 0v-1 1Zm1-1Zm1-4h1v1h-1v1l-1 1h-1v1l-1 1h-1l-1-1h1-1 1v-1h1l1-1 1-1v-1h1Zm-2 29Zm0-1Zm-3 0Zm-6 7Zm3 0v-1 1Zm1-2Zm-2-1Zm5-1Zm-1-2Zm0 0Zm3 0Zm-8 0Zm0 0Zm0 0ZM161 622Zm0 0Zm0 0h1-1Zm1 0Zm0 0Zm-1 0Zm86-43v1h-1l1-1Zm0 0Zm1-1v1h-1l1-1Zm1-1Zm0 0Zm2-1h-1 1l-2 1 1-1h1Zm74-74h-1 1Zm48-51Zm-1 0v-1h1v1h-1Z"/></svg>