<svg xmlns="http://www.w3.org/2000/svg" viewBox="0 0 10.989990234375 9.75"><path d="M 214.42 340.61 214.42 340.64 214.41 340.62 214.39 340.56 214.39 340.48 214.4 340.4 214.45 340.37 214.45 340.37 214.45 340.38 214.45 340.38 214.45 340.39 214.44 340.41 214.42 340.45 214.41 340.49 214.41 340.52 214.42 340.61 Z M 215.96 339.95 215.9 340.02 215.89 339.97 215.91 339.93 215.94 339.92 215.97 339.94 215.96 339.95 Z M 216.61 334.99 216.57 335 216.45 334.99 216.44 334.99 216.45 334.99 216.45 334.99 216.46 334.99 216.46 334.99 216.46 334.98 216.49 334.96 216.51 334.93 216.52 334.91 216.53 334.89 216.57 334.87 216.6 334.87 216.62 334.89 216.62 334.92 216.61 334.99 Z M 215.73 333.56 215.71 333.58 215.67 333.6 215.65 333.62 215.62 333.58 215.59 333.61 215.57 333.66 215.55 333.68 215.53 333.7 215.5 333.73 215.48 333.77 215.47 333.8 215.46 333.81 215.44 333.84 215.42 333.86 215.42 333.88 215.42 333.93 215.41 333.95 215.39 333.98 215.36 334 215.29 334.03 215.29 334.01 215.3 334 215.32 333.98 215.32 334 215.33 333.99 215.33 333.97 215.33 333.96 215.33 333.95 215.32 333.96 215.31 333.96 215.29 333.95 215.29 333.93 215.32 333.92 215.34 333.92 215.36 333.93 215.38 333.95 215.38 333.91 215.35 333.85 215.35 333.8 215.33 333.76 215.3 333.75 215.27 333.76 215.24 333.78 215.2 333.82 215.1 333.94 215.08 334 215.1 333.98 215.1 333.97 215.13 333.99 215.16 334.08 215.17 334.1 215.2 334.12 215.24 334.15 215.27 334.16 215.3 334.12 215.29 334.11 215.25 334.08 215.23 334.07 215.25 334.06 215.28 334.07 215.3 334.09 215.32 334.12 215.32 334.07 215.33 334.05 215.35 334.07 215.44 334.47 215.44 334.48 215.47 334.53 215.48 334.64 215.59 334.95 215.6 335.04 215.59 335.11 215.53 335.26 215.35 335.55 215.27 335.65 215.26 335.69 215.24 335.71 215.14 335.79 215.09 335.85 215.06 335.92 215.01 336.13 214.92 336.42 214.87 336.68 214.87 336.79 214.86 336.84 214.86 336.89 214.82 337 214.78 337.15 214.75 337.44 214.76 337.5 214.77 337.53 214.76 337.54 214.77 337.57 214.84 338.02 214.89 338.31 214.82 338.9 214.82 339.04 214.82 339.06 214.86 339.12 214.88 339.19 214.94 339.28 214.95 339.34 214.95 339.41 214.93 339.44 214.88 339.46 214.81 339.46 214.75 339.47 214.7 339.49 214.65 339.5 214.6 339.48 214.62 339.46 214.67 339.43 214.68 339.41 214.68 339.39 214.67 339.35 214.66 339.32 214.61 339.28 214.61 339.13 214.6 339.07 214.61 339.07 214.61 339.07 214.62 339.07 214.62 339.06 214.63 339.06 214.71 339.08 214.77 339.01 214.79 338.91 214.76 338.84 214.76 338.83 214.78 338.8 214.78 338.77 214.79 338.65 214.79 338.64 214.8 338.64 214.81 338.62 214.82 338.61 214.81 338.55 214.77 338.51 214.71 338.5 214.65 338.5 214.6 338.53 214.58 338.57 214.59 338.62 214.6 338.66 214.65 338.68 214.66 338.69 214.66 338.7 214.66 338.73 214.66 338.75 214.67 338.76 214.68 338.77 214.69 338.78 214.7 338.8 214.69 338.84 214.69 338.86 214.68 338.87 214.69 338.88 214.71 338.92 214.64 338.96 214.52 339.06 214.45 339.09 214.36 339.1 214.32 339.11 214.3 339.14 214.3 339.26 214.3 339.26 214.31 339.26 214.33 339.26 214.36 339.26 214.37 339.26 214.39 339.27 214.41 339.29 214.42 339.39 214.41 339.44 214.4 339.48 214.39 339.53 214.41 339.57 214.45 339.59 214.52 339.57 214.53 339.61 214.53 339.63 214.52 339.67 214.51 339.7 214.52 339.71 214.53 339.69 214.56 339.58 214.58 339.55 214.6 339.54 214.64 339.54 214.65 339.56 214.55 339.77 214.5 340.04 214.51 340.32 214.53 340.37 214.51 340.38 214.5 340.39 214.51 340.34 214.49 340.3 214.44 340.23 214.41 340.18 214.43 340.15 214.46 340.13 214.48 340.08 214.47 340.04 214.44 340 214.4 339.96 214.36 339.94 214.29 339.95 214.3 339.98 214.33 340 214.36 339.97 214.38 339.97 214.41 340.01 214.43 340.03 214.44 340.06 214.43 340.1 214.39 340.15 214.39 340.18 214.38 340.23 214.34 340.23 214.25 340.2 214.23 340.21 214.26 340.23 214.32 340.25 214.33 340.27 214.34 340.29 214.34 340.32 214.34 340.35 214.34 340.37 214.32 340.41 214.32 340.43 214.32 340.44 214.33 340.45 214.33 340.46 214.33 340.48 214.32 340.49 214.31 340.5 214.29 340.5 214.29 340.51 214.24 340.56 214.23 340.57 214.21 340.58 214.19 340.59 214.17 340.62 214.16 340.63 214.19 340.65 214.23 340.69 214.26 340.72 214.28 340.76 214.29 340.78 214.31 340.78 214.34 340.79 214.37 340.78 214.37 340.77 214.36 340.76 214.36 340.74 214.38 340.7 214.39 340.67 214.41 340.67 214.44 340.66 214.47 340.68 214.57 341.09 214.57 341.17 214.57 341.2 214.57 341.22 214.56 341.23 214.54 341.25 214.54 341.24 214.51 341.25 214.48 341.26 214.47 341.26 214.46 341.27 214.43 341.3 214.41 341.31 214.39 341.31 214.37 341.32 214.35 341.32 214.33 341.34 214.31 341.41 214.29 341.52 214.26 341.59 214.21 341.59 214.19 341.59 214.12 341.68 214.1 341.71 214.09 341.75 214.09 341.98 214.16 342.27 214.21 342.39 214.28 342.49 214.3 342.55 214.35 342.63 214.37 342.65 214.41 342.67 214.42 342.72 214.44 342.76 214.48 342.76 214.47 342.73 214.5 342.73 214.55 342.74 214.59 342.76 214.57 342.76 214.56 342.76 214.55 342.75 214.53 342.76 214.53 342.78 214.53 342.79 214.53 342.88 214.55 342.96 214.55 343.02 214.47 343.06 214.32 343.1 214.31 343.1 214.17 343.16 214.12 343.21 214.11 343.21 214.05 343.2 214.04 343.21 214.01 343.23 213.98 343.23 213.96 343.23 213.95 343.22 213.81 343.12 213.8 343.08 213.78 343.06 213.75 343.07 213.72 343.09 213.69 343.09 213.63 343.12 213.6 343.09 213.59 343.09 213.56 343.11 213.54 343.1 213.5 343.06 213.47 343.07 213.45 343.07 213.43 343.06 213.4 343.06 213.38 343.08 213.36 343.07 213.31 343.03 213.31 343.02 213.3 343.01 213.3 343 213.31 342.98 213.32 342.97 213.35 342.96 213.34 342.9 213.3 342.87 213.26 342.85 213.24 342.83 213.21 342.81 213.11 342.77 213.09 342.75 213.08 342.73 213.05 342.7 213.04 342.68 213.04 342.65 213.04 342.63 213.03 342.61 213.01 342.6 212.99 342.61 212.87 342.69 212.85 342.7 212.83 342.7 212.81 342.69 212.79 342.68 212.77 342.66 212.72 342.6 212.71 342.59 212.7 342.59 212.68 342.58 212.67 342.58 212.56 342.53 212.51 342.51 212.46 342.52 212.42 342.51 212.34 342.45 212.3 342.43 212.23 342.45 212.07 342.56 211.84 342.71 211.79 342.73 211.74 342.72 211.38 342.59 211.06 342.47 210.98 342.44 210.68 342.33 210.46 342.25 210.38 342.21 210.32 342.15 210.26 342.12 210.18 342.15 210.12 342.24 210.08 342.32 210.03 342.41 210.03 342.41 209.92 342.36 209.87 342.36 209.84 342.34 209.82 342.3 209.8 342.22 209.76 342.16 209.53 341.89 209.51 341.88 209.5 341.88 209.46 341.85 209.46 341.84 209.38 341.82 209.34 341.79 209.27 341.7 209.21 341.67 209.13 341.59 209.04 341.53 209.01 341.5 209 341.49 208.98 341.42 208.91 341.39 208.83 341.31 208.62 341.22 208.59 341.19 208.56 341.16 208.53 341.09 208.27 340.89 208.22 340.83 208.16 340.7 208.14 340.68 208.12 340.67 208.06 340.61 208.03 340.56 207.99 340.49 207.98 340.46 207.97 340.42 207.94 340.4 207.89 340.36 207.84 340.29 207.75 340.15 207.68 339.93 207.65 339.9 207.6 339.85 207.15 339.58 207.12 339.54 206.99 339.47 206.92 339.4 206.77 339.33 206.77 339.28 206.79 339.31 206.83 339.34 206.88 339.36 206.93 339.37 206.88 339.31 206.85 339.28 206.82 339.28 206.8 339.26 206.75 339.17 206.74 339.17 206.76 339.25 206.72 339.22 206.66 339.15 206.62 339.11 206.59 339.09 206.46 338.99 206.44 338.97 206.43 338.94 206.42 338.9 206.41 338.92 206.39 338.94 206.39 338.95 206.14 338.67 206.11 338.61 206.12 338.62 206.13 338.63 206.16 338.64 206.16 338.63 206.15 338.62 206.13 338.61 206.13 338.6 206.12 338.57 206.09 338.54 206.04 338.51 205.99 338.5 205.99 338.52 206.05 338.56 206.08 338.58 206.08 338.61 206.06 338.61 206.03 338.58 205.98 338.53 205.72 338.38 205.66 338.33 205.63 338.27 205.63 338.21 205.67 338.13 205.73 338.08 205.8 338.04 205.84 337.99 205.86 337.9 205.87 337.9 205.86 337.95 205.86 337.96 205.88 337.96 205.91 337.96 205.94 337.97 205.95 337.98 205.96 337.99 206.01 338.04 206.03 338.05 206.07 338.1 206.08 338.11 206.11 338.12 206.11 338.13 206.12 338.14 206.11 338.18 206.11 338.19 206.19 338.27 206.28 338.29 206.51 338.27 206.51 338.25 206.39 338.26 206.33 338.25 206.31 338.23 206.33 338.19 206.44 338.14 206.45 338.13 206.96 338.1 207 338.1 207.05 338.13 207.07 338.14 207.08 338.1 207.13 338.08 207.19 338.04 207.21 338.01 207.26 337.93 207.28 337.92 207.31 337.91 207.32 337.89 207.33 337.87 207.32 337.86 207.31 337.86 207.3 337.84 207.32 337.73 207.32 337.72 207.3 337.68 207.29 337.67 207.3 337.66 207.31 337.6 207.33 337.57 207.35 337.55 207.45 337.46 207.48 337.44 207.52 337.43 207.56 337.43 207.69 337.49 207.71 337.5 207.73 337.49 207.74 337.48 207.76 337.47 207.79 337.44 207.81 337.41 207.81 337.38 207.8 337.31 207.79 337.3 207.78 337.27 207.76 337.26 207.75 337.26 207.73 337.25 207.73 337.23 207.73 337.19 207.76 337.13 207.76 337.1 207.69 336.82 207.69 336.79 207.7 336.71 207.7 336.68 207.69 336.66 207.67 336.65 207.66 336.64 207.66 336.63 207.65 336.61 207.66 336.49 207.66 336.45 207.66 336.42 207.67 336.4 207.68 336.39 207.7 336.38 207.75 336.35 207.8 336.35 207.9 336.36 208.08 336.32 208.17 336.32 208.24 336.36 208.28 336.37 208.31 336.36 208.34 336.35 208.37 336.34 208.41 336.38 208.42 336.39 208.44 336.39 208.46 336.39 208.57 336.39 208.61 336.38 208.65 336.36 208.67 336.33 208.68 336.3 208.7 336.23 208.74 336.18 208.88 336.02 208.96 335.9 208.98 335.89 209.01 335.88 209.03 335.86 209.06 335.83 209.08 335.81 209.09 335.78 209.1 335.76 209.12 335.74 209.15 335.73 209.32 335.7 209.32 335.73 209.3 335.77 209.3 335.83 209.46 335.95 209.51 336.01 209.52 336.02 209.55 336.04 209.57 336.03 209.59 336.02 209.62 336.02 209.67 336.04 209.7 336.08 209.72 336.13 209.76 336.17 209.81 336.19 209.86 336.19 209.9 336.19 209.93 336.22 209.94 336.22 209.94 336.23 209.94 336.22 209.96 336.21 209.98 336.17 209.98 336.14 209.97 336.11 209.93 336.1 209.93 336.08 209.94 336.04 209.96 335.97 209.96 335.92 209.97 335.9 209.99 335.91 210.03 335.91 210.06 335.9 210.11 335.86 210.13 335.87 210.14 335.87 210.14 335.86 210.14 335.85 210.15 335.85 210.15 335.85 210.15 335.83 210.22 335.8 210.25 335.78 210.27 335.75 210.32 335.73 210.34 335.73 210.37 335.72 210.41 335.71 210.43 335.68 210.44 335.64 210.45 335.61 210.53 335.59 210.57 335.57 210.63 335.52 210.65 335.49 210.68 335.45 210.69 335.41 210.71 335.35 210.73 335.31 210.76 335.28 210.78 335.26 210.79 335.26 210.81 335.26 210.82 335.26 210.83 335.25 210.83 335.23 210.85 335.21 210.86 335.2 210.87 335.19 210.89 335.18 210.94 335.16 210.97 335.15 211.05 335.15 211.11 335.14 211.16 335.12 211.21 335.09 211.23 335.06 211.23 335.01 211.2 334.96 211.16 334.92 211.13 334.9 211.19 334.85 211.19 334.84 211.19 334.81 211.19 334.79 211.24 334.74 211.25 334.72 211.25 334.61 211.26 334.54 211.28 334.51 211.32 334.52 211.35 334.56 211.39 334.59 211.44 334.57 211.52 334.49 211.53 334.46 211.53 334.45 211.48 334.45 211.49 334.43 211.54 334.39 211.48 334.34 211.46 334.32 211.5 334.31 211.51 334.3 211.52 334.29 211.53 334.21 211.55 334.17 211.58 334.14 211.58 334.14 211.62 334.12 211.66 334.09 211.76 333.99 211.8 333.97 211.93 333.94 211.99 333.94 212.04 333.96 212.09 334 212.13 334.05 212.12 334.06 212.1 334.08 212.1 334.08 212.14 334.09 212.15 334.12 212.15 334.15 212.19 334.18 212.22 334.21 212.25 334.29 212.29 334.27 212.33 334.27 212.42 334.31 212.47 334.32 212.63 334.32 212.62 334.34 212.62 334.39 212.65 334.38 212.67 334.39 212.7 334.41 212.73 334.42 212.75 334.41 212.81 334.38 212.89 334.35 212.94 334.3 212.97 334.24 213 334.2 213.02 334.22 213.03 334.28 213.05 334.29 213.08 334.3 213.14 334.31 213.16 334.31 213.21 334.29 213.22 334.24 213.21 334.13 213.22 334.1 213.25 334.1 213.28 334.11 213.3 334.12 213.32 334.14 213.37 334.19 213.39 334.2 213.43 334.2 213.48 334.18 213.49 334.18 213.5 334.17 213.51 334.16 213.53 334.15 213.55 334.16 213.56 334.16 213.57 334.16 213.59 334.15 213.59 334.14 213.57 334.12 213.55 334.1 213.53 334.04 213.55 334.02 213.57 334.02 213.62 334.05 213.62 334.06 213.63 334.07 213.66 334.07 213.69 334.07 213.71 334.08 213.71 334.1 213.75 334.1 213.97 334.09 213.96 334.07 213.96 334.05 213.97 334 213.99 334.01 214.03 334.05 214.06 334.06 214.05 334.05 214.04 334.03 214.06 334.03 214.07 334.04 214.08 334.04 214.09 334.06 214.12 334.03 214.16 334.01 214.2 334 214.24 334 214.22 333.99 214.21 333.98 214.2 333.95 214.32 333.94 214.37 333.92 214.36 333.89 214.39 333.89 214.41 333.89 214.43 333.9 214.44 333.92 214.45 333.92 214.43 333.85 214.44 333.83 214.48 333.81 214.53 333.8 214.58 333.81 214.62 333.82 214.64 333.84 214.65 333.84 214.66 333.81 214.67 333.78 214.68 333.76 214.73 333.74 214.79 333.69 214.82 333.68 214.81 333.68 214.81 333.66 214.8 333.65 214.84 333.66 214.85 333.67 214.84 333.64 214.84 333.61 214.86 333.6 214.88 333.62 214.88 333.59 214.88 333.57 214.9 333.56 214.88 333.54 214.89 333.53 214.91 333.52 214.94 333.53 214.95 333.54 214.98 333.58 215 333.59 215.05 333.59 215.1 333.56 215.13 333.52 215.15 333.48 215.18 333.5 215.21 333.51 215.23 333.53 215.24 333.56 215.28 333.54 215.31 333.53 215.41 333.54 215.39 333.56 215.38 333.57 215.4 333.58 215.43 333.59 215.44 333.59 215.53 333.59 215.59 333.56 215.62 333.56 215.7 333.56 215.73 333.56 Z" fill-rule="evenodd" id="Nicaragua" transform="translate(-205.6300048828125,-333.4800109863281) "/></svg>