<svg xmlns="http://www.w3.org/2000/svg" viewBox="0 0 26.5999755859375 21.44000244140625"><path d="M 416.52 357.09 416.56 357.1 416.6 357.1 416.68 357.08 416.72 357.07 416.79 357.07 416.81 357.07 416.8 357.1 416.78 357.13 416.74 357.14 416.66 357.13 416.62 357.14 416.51 357.18 416.47 357.18 416.31 357.17 416.28 357.16 416.26 357.13 416.28 357.09 416.31 357.08 416.41 357.04 416.44 357.05 416.52 357.09 Z M 416.09 357.04 416.12 357.06 416.23 357.05 416.25 357.06 416.23 357.08 416.21 357.11 416.21 357.14 416.21 357.17 416.2 357.2 416.18 357.23 416.15 357.25 416.12 357.26 415.92 357.3 415.84 357.29 415.82 357.27 415.84 357.22 415.92 357.15 415.96 357.07 416.01 357.02 416.02 357 416.03 356.97 416.06 356.98 416.09 357.04 Z M 412.94 336.36 413.57 336.61 413.59 336.62 413.6 336.63 413.62 336.64 413.64 336.63 413.77 336.56 413.81 336.55 413.93 336.58 413.97 336.59 414.12 336.67 414.43 336.97 414.79 337.36 414.97 337.69 415.03 337.8 415.16 337.95 415.24 338.02 415.31 338.07 415.38 338.1 415.45 338.11 415.62 338.11 415.66 338.1 415.67 338.1 415.72 338.08 415.82 337.98 415.96 337.82 416.01 337.82 416.24 337.86 416.32 337.86 416.39 337.84 417.19 337.35 417.27 337.32 417.34 337.31 417.91 337.39 417.97 337.41 417.99 337.43 418.04 337.48 418.1 337.52 418.18 337.58 418.21 337.59 418.28 337.61 418.28 337.61 418.31 337.63 418.34 337.65 418.39 337.72 418.62 337.92 418.63 337.93 418.65 337.94 418.66 337.94 418.67 337.93 418.7 337.92 418.72 337.91 418.78 337.91 418.8 337.91 418.86 337.92 418.92 337.94 419.01 338.02 419.06 338.06 419.12 338.17 419.16 338.22 419.24 338.26 419.82 338.43 419.9 338.44 420.55 338.52 420.63 338.52 420.75 338.49 420.79 338.48 421.26 338.54 421.31 338.53 421.32 338.53 421.34 338.51 421.37 338.49 421.39 338.47 421.77 338.02 421.84 337.95 421.88 337.93 421.91 337.92 421.92 337.92 421.93 337.92 421.94 337.9 421.95 337.88 421.96 337.82 421.97 337.8 422.01 337.76 422.43 337.52 422.52 337.49 423.6 337.25 423.66 337.24 423.88 337.22 424.28 337.27 425.36 337.27 426.03 337.44 426.27 337.54 426.58 337.72 426.68 337.8 426.73 337.83 426.86 337.86 426.93 337.85 426.96 337.85 427.01 337.81 427.05 337.81 427.16 337.85 427.18 337.86 427.19 337.87 427.19 337.89 427.2 337.9 427.21 337.9 427.22 337.89 427.23 337.88 427.25 337.87 427.27 337.87 427.29 337.88 427.31 337.9 427.32 337.91 427.34 337.9 427.38 337.91 427.46 337.91 427.52 337.91 427.57 337.92 427.61 337.94 427.65 337.94 427.68 337.93 427.69 337.9 427.71 337.78 427.72 337.77 427.77 337.77 427.78 337.76 427.8 337.74 427.81 337.72 427.83 337.67 427.79 337.65 427.81 337.62 427.84 337.58 427.84 337.54 427.92 337.46 427.94 337.46 427.94 337.47 427.96 337.46 427.97 337.45 427.99 337.44 427.99 337.42 428 337.39 428.02 337.41 428.04 337.43 428.06 337.44 428.09 337.45 428.11 337.44 428.13 337.38 428.16 337.37 428.21 337.36 428.24 337.33 428.3 337.26 428.31 337.23 428.32 337.22 428.32 337.22 428.34 337.23 428.35 337.24 428.35 337.25 428.38 337.25 428.38 337.24 428.37 337.22 428.36 337.19 428.37 337.19 428.4 337.18 428.41 337.17 428.41 337.17 428.43 337.17 428.44 337.17 428.44 337.16 428.44 337.15 428.44 337.14 428.5 337.07 428.53 337.05 428.52 337.03 428.5 337.01 428.49 337.01 428.47 337 428.47 336.98 428.5 336.99 428.53 337.01 428.55 337 428.56 336.97 428.62 336.98 428.68 336.97 428.88 336.87 428.94 336.85 429 336.84 429 336.86 428.99 336.88 429.01 336.89 429.05 336.89 429.09 336.88 429.09 336.88 429.09 336.91 429.11 336.89 429.12 336.85 429.14 336.84 429.16 336.85 429.16 336.87 429.16 336.89 429.15 336.91 429.21 336.88 429.27 336.87 429.32 336.85 429.36 336.8 429.33 336.79 429.33 336.78 429.35 336.75 429.36 336.75 429.37 336.75 429.39 336.75 429.39 336.73 429.39 336.71 429.38 336.7 429.38 336.69 429.39 336.67 429.41 336.65 429.5 336.56 429.53 336.54 429.53 336.5 429.55 336.48 429.61 336.47 429.61 336.47 430.16 336.5 430.67 337.21 431.18 337.91 431.3 338.51 431.43 339.12 431.43 339.29 431.43 339.3 431.44 339.34 431.44 339.38 431.43 339.45 431.43 339.48 431.45 339.51 431.48 339.53 431.52 339.54 431.97 339.55 432.11 339.58 432.17 339.62 432.18 339.64 432.17 339.67 432.17 339.69 432.19 339.71 432.26 339.76 432.28 339.77 432.28 339.79 432.27 339.79 432.25 339.8 432.29 339.83 432.34 339.86 432.37 339.88 432.39 339.93 432.4 339.94 432.43 339.93 432.46 339.92 432.48 339.91 432.5 339.92 432.51 339.94 432.52 339.97 432.48 340.01 432.47 340.03 432.46 340.04 432.45 340.07 432.41 340.23 432.41 340.25 432.37 340.28 432.38 340.32 432.42 340.42 432.42 340.44 432.42 340.46 432.42 340.53 432.39 340.6 432.34 340.83 432.33 340.87 432.24 340.98 432.23 341 432.24 341.02 432.26 341.04 432.27 341.05 432.3 341.05 432.32 341.06 432.33 341.07 432.34 341.09 432.35 341.1 432.39 341.14 432.41 341.18 432.42 341.22 432.42 341.28 432.42 341.33 432.4 341.38 432.38 341.44 432.35 341.48 432.31 341.5 432.2 341.54 432.15 341.57 432.07 341.64 432.02 341.67 431.89 341.71 431.85 341.73 431.65 341.91 431.63 341.92 431.57 341.93 431.55 341.94 431.49 342 431.45 342.03 431.4 342.06 431.35 342.07 431.31 342.06 431.15 342 431.06 341.97 430.99 341.97 430.91 342.04 430.83 342.12 430.75 342.22 430.7 342.31 430.66 342.4 430.63 342.44 430.55 342.48 430.51 342.52 430.49 342.55 430.48 342.6 430.49 342.68 430.48 342.72 430.47 342.75 430.07 343.31 430.01 343.44 429.93 343.72 429.85 344.14 429.8 344.28 429.8 344.31 429.82 344.36 429.82 344.38 429.82 344.41 429.78 344.49 429.75 344.52 429.71 344.56 429.69 344.57 429.66 344.59 429.61 344.61 429.44 344.62 429.37 344.65 429.33 344.73 429.33 344.77 429.35 344.85 429.36 344.89 429.35 344.94 429.3 345.02 429.28 345.07 429.29 345.12 429.31 345.16 429.38 345.22 429.4 345.27 429.39 345.31 429.37 345.35 429.35 345.4 429.32 345.55 429.31 345.69 429.25 345.85 429.11 345.91 428.93 345.94 428.78 346 428.75 346.03 428.68 346.11 428.66 346.13 428.64 346.15 428.51 346.21 428.5 346.22 428.48 346.26 428.49 346.27 428.55 346.28 428.58 346.32 428.59 346.39 428.59 346.48 428.58 346.52 428.57 346.56 428.47 346.74 428.42 346.85 428.42 346.94 428.44 347.02 428.39 347.44 428.36 347.53 428.31 347.6 428.28 347.61 428.26 347.61 428.23 347.61 428.2 347.6 428.17 347.62 428.16 347.64 428.14 347.71 428.1 347.78 428.06 347.82 427.84 347.94 427.8 347.95 427.77 347.94 427.7 347.91 427.67 347.9 427.63 347.91 427.6 347.92 427.58 347.94 427.54 347.95 427.51 347.96 427.48 347.95 427.42 347.93 427.44 347.96 427.49 348.09 427.49 348.12 427.5 348.18 427.48 348.2 427.41 348.25 427.39 348.27 427.38 348.3 427.36 348.33 427.33 348.34 427.29 348.35 427.2 348.34 427.15 348.36 427.1 348.43 427.09 348.52 427.09 348.63 427.13 348.81 427.12 348.85 427.12 348.87 427.11 348.9 427.02 349.03 427 349.08 427.01 349.17 427.02 349.25 427.03 349.31 427.04 349.34 427.03 349.38 426.94 349.46 426.72 349.77 426.64 349.91 426.63 349.96 426.62 350.01 426.62 350.05 426.66 350.18 426.65 350.23 426.62 350.25 426.58 350.28 426.53 350.37 426.39 350.5 426.26 350.63 426.12 350.83 426.07 350.87 426.03 350.9 426.02 350.92 426.03 350.94 426.08 350.95 426.11 350.97 426.22 351.13 426.31 351.23 426.34 351.28 426.32 351.33 426.3 351.34 426.28 351.34 426.26 351.33 426.23 351.32 426.2 351.33 426.18 351.35 426.08 351.43 426.05 351.45 426.04 351.47 426.04 351.5 426.03 351.51 426.01 351.52 425.98 351.52 425.95 351.53 425.93 351.52 425.92 351.53 425.91 351.54 425.9 351.57 425.89 351.58 425.76 351.66 425.63 351.78 425.59 351.84 425.58 351.9 425.59 351.93 425.64 351.99 425.65 352.03 425.64 352.09 425.63 352.15 425.57 352.29 425.51 352.37 425.45 352.4 425.37 352.41 425.31 352.46 425.27 352.53 425.26 352.62 425.25 352.67 425.2 352.71 425.15 352.74 425.09 352.75 425.07 352.75 425.02 352.74 424.99 352.74 424.99 352.74 424.96 352.77 424.95 352.77 424.93 352.77 424.91 352.75 424.9 352.75 424.83 352.76 424.69 352.77 424.64 352.76 424.6 352.73 424.56 352.62 424.52 352.45 424.51 352.37 424.51 352.28 424.51 352.17 424.46 352.08 424.39 352.02 424.18 351.99 424.11 351.92 424.07 351.82 424.05 351.72 424.01 351.63 423.94 351.58 423.76 351.51 423.6 351.43 423.54 351.41 423.5 351.38 423.49 351.27 423.45 351.22 423.42 351.28 423.39 351.36 423.37 351.44 423.36 351.61 423.35 351.62 423.34 351.62 423.32 351.63 423.29 351.67 423.28 351.7 423.27 351.74 423.27 351.79 422.7 351.79 422.63 351.78 422.59 351.74 422.56 351.7 422.53 351.53 422.51 351.5 422.48 351.49 422.43 351.52 421.89 351.98 421.84 352 421.79 351.99 421.75 351.97 421.7 351.96 421.66 352.01 421.49 352.54 421.49 352.55 421.46 352.57 421.38 352.57 421.35 352.57 421.29 352.58 421.25 352.61 421.2 352.71 421.17 352.74 421.12 352.76 421.03 352.8 421.02 352.8 420.95 352.84 420.89 352.97 420.83 353.01 420.79 353.01 420.76 353.01 420.74 353.01 420.71 353.03 420.68 353.06 420.61 353.2 420.56 353.27 420.25 353.52 420.05 353.73 420.05 353.73 420 353.8 419.97 353.83 419.94 353.85 419.92 353.86 419.92 353.92 419.91 353.95 419.87 353.96 419.82 353.94 419.78 353.93 419.74 353.97 419.71 354.01 419.63 354.06 419.61 354.1 419.61 354.14 419.63 354.18 419.65 354.22 419.64 354.27 419.61 354.32 419.57 354.35 419.55 354.38 419.58 354.43 419.62 354.48 419.67 354.52 419.71 354.56 419.74 354.62 419.73 354.67 419.69 354.72 419.65 354.75 419.62 354.8 419.6 354.85 419.61 354.89 419.62 354.93 419.62 354.98 419.6 355.03 419.55 355.12 419.54 355.17 419.54 355.2 419.56 355.26 419.56 355.28 419.5 355.58 419.49 355.61 419.47 355.62 419.44 355.62 419.41 355.64 419.39 355.66 419.35 355.73 419.34 355.75 419.3 355.85 419.28 355.89 419.25 355.94 419.25 355.94 419.16 356.08 419.15 356.12 419.09 356.16 419.07 356.2 419.08 356.24 419.08 356.27 419.09 356.31 419.05 356.34 419.05 356.34 419.05 356.34 419.05 356.33 419.03 356.32 419.01 356.32 418.99 356.32 418.97 356.34 418.95 356.37 418.94 356.38 418.94 356.4 418.92 356.45 418.91 356.47 418.91 356.49 418.93 356.52 418.93 356.54 418.91 356.58 418.88 356.59 418.85 356.58 418.82 356.57 418.81 356.58 418.79 356.58 418.77 356.57 418.78 356.55 418.79 356.54 418.8 356.51 418.81 356.49 418.8 356.48 418.78 356.49 418.73 356.51 418.71 356.51 418.64 356.49 418.64 356.43 418.66 356.35 418.67 356.27 418.65 356.27 418.64 356.35 418.59 356.39 418.53 356.38 418.47 356.33 418.48 356.32 418.49 356.3 418.47 356.3 418.43 356.27 418.44 356.24 418.42 356.22 418.36 356.17 418.3 356.14 418.3 356.14 418.29 356.1 418.26 356.06 418.25 356.04 418.22 356.03 418.2 356.02 418.17 355.99 418.15 355.97 418.14 355.95 418.12 355.95 418.12 355.97 418.24 356.08 418.27 356.12 418.33 356.22 418.34 356.28 418.3 356.3 418.32 356.33 418.34 356.37 418.37 356.39 418.39 356.41 418.41 356.43 418.44 356.52 418.47 356.56 418.46 356.57 418.44 356.62 418.44 356.64 418.45 356.67 418.47 356.69 418.5 356.69 418.52 356.71 418.52 356.76 418.49 356.79 418.45 356.82 418.43 356.85 418.39 356.92 418.37 356.93 418.35 356.93 418.26 356.93 418.13 356.92 417.94 356.92 417.85 356.91 417.8 356.91 417.73 356.95 417.69 356.95 417.59 356.95 417.21 357 417.19 356.98 417.16 356.98 417.14 356.99 417.12 357.01 417.14 357.01 417.16 357.01 417.18 357.02 417.19 357.03 417.15 357.04 417.08 357.04 417.01 357.03 416.98 357 416.95 357 416.75 356.98 416.76 356.97 416.77 356.97 416.77 356.96 416.78 356.95 416.76 356.94 416.73 356.95 416.71 356.95 416.71 356.92 416.72 356.91 416.73 356.9 416.75 356.88 416.75 356.86 416.75 356.85 416.71 356.8 416.71 356.79 416.72 356.77 416.69 356.73 416.7 356.68 416.74 356.57 416.72 356.57 416.7 356.59 416.69 356.6 416.67 356.62 416.66 356.64 416.67 356.67 416.68 356.7 416.68 356.72 416.66 356.75 416.66 356.76 416.69 356.8 416.69 356.82 416.69 356.82 416.65 356.86 416.63 356.88 416.6 356.89 416.58 356.89 416.56 356.88 416.54 356.88 416.52 356.92 416.48 356.92 416.4 356.88 416.34 356.87 416.29 356.86 416.24 356.84 416.21 356.8 416.19 356.81 416.18 356.81 416.14 356.82 416.13 356.82 416.13 356.84 416.12 356.85 416.1 356.86 416.1 356.88 416.12 356.88 416.13 356.89 416.12 356.91 416.15 356.92 416.18 356.95 416.24 356.96 416.26 356.97 416.25 356.99 416.24 357.01 416.14 357.03 416.13 357.02 416.08 356.94 415.94 356.79 415.92 356.75 415.92 356.69 415.91 356.67 415.9 356.67 415.87 356.68 415.82 356.68 415.81 356.68 415.79 356.66 415.75 356.63 415.74 356.6 415.7 356.5 415.68 356.47 415.67 356.49 415.66 356.51 415.65 356.53 415.64 356.53 415.65 356.55 415.66 356.55 415.68 356.56 415.69 356.57 415.71 356.65 415.73 356.68 415.77 356.69 415.84 356.73 415.89 356.8 415.9 356.88 415.84 356.91 415.87 356.93 415.91 356.96 415.93 357 415.91 357.04 415.85 357.1 415.81 357.12 415.77 357.1 415.77 357.14 415.77 357.15 415.73 357.13 415.7 357.1 415.68 357.07 415.69 357.03 415.66 357.05 415.66 357.09 415.67 357.13 415.69 357.16 415.63 357.18 415.61 357.18 415.59 357.13 415.57 357.07 415.57 356.96 415.53 356.9 415.52 356.86 415.55 356.85 415.56 356.83 415.57 356.79 415.57 356.74 415.57 356.71 415.58 356.72 415.6 356.72 415.61 356.72 415.6 356.7 415.55 356.65 415.55 356.62 415.53 356.58 415.52 356.56 415.48 356.61 415.47 356.61 415.46 356.58 415.43 356.53 415.42 356.56 415.43 356.62 415.42 356.63 415.44 356.67 415.49 356.8 415.47 356.8 415.45 356.8 415.44 356.79 415.43 356.77 415.43 356.78 415.4 356.79 415.38 356.74 415.36 356.7 415.3 356.63 415.3 356.67 415.31 356.7 415.34 356.75 415.36 356.78 415.37 356.79 415.37 356.81 415.36 356.83 415.35 356.84 415.34 356.85 415.36 356.88 415.38 356.84 415.42 356.83 415.46 356.84 415.48 356.87 415.46 357.02 415.46 357.07 415.54 357.23 415.57 357.26 415.57 357.28 415.55 357.31 415.53 357.32 415.5 357.31 415.48 357.3 415.44 357.28 415.44 357.29 415.44 357.3 415.45 357.32 415.4 357.3 415.35 357.28 415.3 357.27 415.25 357.29 415.23 357.26 415.21 357.22 415.2 357.19 415.22 357.15 415.18 357.13 415.15 357.07 415.12 357 415.11 356.94 415.12 356.9 415.13 356.88 415.14 356.87 415.16 356.85 415.17 356.82 415.18 356.79 415.17 356.75 415.14 356.74 415.08 356.71 415.04 356.63 415.01 356.5 415 356.44 415.01 356.41 415.03 356.38 415.05 356.36 415.04 356.34 415.02 356.34 414.99 356.36 414.97 356.34 414.97 356.32 414.96 356.3 414.94 356.31 414.92 356.31 414.91 356.31 414.89 356.3 414.9 356.34 414.9 356.38 414.91 356.41 414.94 356.42 414.96 356.44 414.98 356.48 414.99 356.56 415 356.64 415.01 356.68 415.03 356.69 415.06 356.71 415.09 356.74 415.13 356.82 415.08 356.86 415.07 356.88 415.06 356.91 415.11 357.12 415.13 357.19 415.16 357.22 415.16 357.27 415.2 357.31 415.23 357.35 415.18 357.38 415.11 357.39 415.02 357.39 414.93 357.39 414.89 357.36 414.88 357.33 414.89 357.2 414.9 357.18 414.9 357.17 414.9 357.16 414.88 357.14 414.87 357.13 414.87 357.06 414.88 357.02 414.93 356.89 414.93 356.86 414.93 356.8 414.89 356.85 414.86 356.94 414.84 357.04 414.86 357.12 414.85 357.14 414.85 357.18 414.84 357.21 414.82 357.16 414.81 357.13 414.81 356.99 414.8 356.97 414.79 356.98 414.78 356.99 414.76 357 414.75 357.01 414.76 357.04 414.76 357.15 414.77 357.18 414.8 357.23 414.82 357.27 414.84 357.35 414.84 357.38 414.82 357.4 414.8 357.41 414.73 357.41 414.67 357.41 414.66 357.4 414.63 357.33 414.63 357.26 414.63 357.16 414.62 357.08 414.59 357.02 414.52 357.03 414.58 357.08 414.6 357.15 414.6 357.24 414.57 357.33 414.56 357.4 414.45 357.43 414.32 357.42 414.26 357.38 414.23 357.38 414.2 357.39 414.22 357.43 414.18 357.44 414.13 357.45 414.09 357.46 414.05 357.48 413.94 357.48 413.9 357.5 413.85 357.43 413.89 357.34 414.04 357.18 414.01 357.18 413.99 357.17 413.98 357.17 413.96 357.18 413.88 357.27 413.87 357.15 413.84 357.04 413.82 357.04 413.82 357.09 413.83 357.14 413.84 357.2 413.85 357.24 413.83 357.22 413.81 357.19 413.79 357.17 413.75 357.16 413.77 357.21 413.8 357.25 413.81 357.29 413.81 357.34 413.79 357.39 413.78 357.42 413.76 357.43 413.74 357.44 413.73 357.45 413.73 357.48 413.75 357.47 413.76 357.47 413.79 357.48 413.78 357.5 413.72 357.52 413.64 357.53 413.58 357.51 413.57 357.52 413.56 357.53 413.55 357.54 413.51 357.53 413.49 357.51 413.49 357.47 413.49 357.43 413.5 357.4 413.53 357.35 413.53 357.32 413.52 357.32 413.5 357.33 413.49 357.33 413.49 357.29 413.5 357.23 413.47 357.23 413.45 357.23 413.42 357.22 413.4 357.22 413.39 357.25 413.39 357.28 413.4 357.31 413.41 357.33 413.4 357.36 413.42 357.38 413.43 357.41 413.44 357.44 413.44 357.49 413.42 357.49 413.39 357.47 413.36 357.45 413.31 357.45 413.29 357.44 413.29 357.36 413.3 357.36 413.31 357.35 413.28 357.31 413.27 357.3 413.27 357.26 413.27 357.22 413.26 357.22 413.24 357.3 413.23 357.29 413.2 357.27 413.23 357.34 413.24 357.38 413.21 357.41 413.18 357.4 413.15 357.38 413.12 357.36 413.1 357.34 413.06 357.33 413.01 357.29 412.98 357.23 413 357.18 412.98 357.18 412.96 357.18 412.96 357.2 412.96 357.22 412.94 357.22 412.91 357.19 412.82 357.14 412.79 357.1 412.81 357.11 412.84 357.12 412.85 357.13 412.83 357.11 412.81 357.09 412.78 357.08 412.75 357.07 412.7 357.02 412.68 357 412.62 356.94 412.61 356.93 412.4 356.74 412.34 356.65 412.32 356.56 412.33 356.56 412.33 356.56 412.35 356.57 412.35 356.53 412.25 356.47 412.23 356.43 412.22 356.39 412.16 356.3 412.14 356.27 412.21 356.32 412.19 356.26 412.12 356.18 412.06 356.01 412.04 355.91 412.03 355.88 412 355.82 411.99 355.78 411.98 355.75 411.98 355.73 411.96 355.71 411.95 355.69 411.94 355.66 411.95 355.63 411.98 355.62 412.01 355.62 412.05 355.63 412.07 355.65 412.11 355.71 412.14 355.73 412.1 355.64 412.09 355.6 412.14 355.61 412.18 355.62 412.17 355.59 412.11 355.53 412.08 355.51 412.07 355.52 412.08 355.56 412.07 355.57 412.05 355.57 412.03 355.58 412 355.59 411.97 355.58 411.92 355.58 411.89 355.57 411.89 355.55 411.89 355.48 411.88 355.37 411.84 355.17 411.85 355.14 411.9 355.13 412.05 355.13 412.09 355.12 412.1 355.14 412.1 355.15 412.12 355.18 412.14 355.17 412.16 355.13 412.17 355.12 412.18 355.11 412.26 355.08 412.29 355.07 412.33 355.07 412.35 355.09 412.36 355.09 412.35 355.06 412.29 355.02 412.27 354.98 412.27 354.95 412.26 354.92 412.27 354.88 412.28 354.85 412.31 354.84 412.34 354.83 412.42 354.83 412.44 354.82 412.47 354.79 412.5 354.74 412.47 354.75 412.44 354.78 412.4 354.8 412.36 354.79 412.36 354.8 412.34 354.81 412.33 354.82 412.28 354.81 412.23 354.83 412.2 354.88 412.21 354.94 412.19 354.99 412.16 355.02 412.12 355.03 412.08 355.01 412.06 355 412.06 354.98 412.05 354.97 412.02 354.97 412.01 354.98 412.02 355.01 412.03 355.04 412.05 355.06 411.92 355.05 411.67 354.97 411.66 354.96 411.65 354.93 411.64 354.92 411.57 354.86 411.52 354.83 411.51 354.78 411.5 354.73 411.51 354.71 411.52 354.7 411.56 354.66 411.58 354.65 411.59 354.65 411.81 354.66 411.89 354.67 411.94 354.69 411.95 354.69 411.98 354.66 412.01 354.58 412.03 354.56 412.06 354.55 412.09 354.55 412.13 354.56 412.15 354.57 412.16 354.59 412.17 354.64 412.18 354.65 412.2 354.65 412.21 354.64 412.21 354.63 412.21 354.6 412.2 354.57 412.16 354.53 412.11 354.5 412.08 354.48 412.03 354.48 412.01 354.51 411.98 354.57 411.96 354.59 411.92 354.61 411.88 354.62 411.85 354.62 411.81 354.6 411.79 354.56 411.79 354.53 411.83 354.41 411.84 354.37 411.83 354.33 411.82 354.33 411.76 354.5 411.73 354.54 411.7 354.57 411.67 354.58 411.61 354.59 411.59 354.6 411.54 354.63 411.48 354.65 411.47 354.64 411.44 354.62 411.4 354.59 411.37 354.55 411.34 354.5 411.32 354.44 411.3 354.41 411.28 354.37 411.27 354.32 411.28 354.27 411.29 354.22 411.31 354.18 411.34 354.16 411.36 354.17 411.41 354.21 411.42 354.21 411.44 354.2 411.43 354.18 411.42 354.16 411.42 354.13 411.49 354.07 411.68 354.01 411.73 353.92 411.68 353.93 411.61 354 411.52 354.02 411.35 354.11 411.32 354.14 411.21 354.24 411.18 354.24 411.1 354.06 410.83 353.71 410.79 353.67 410.7 353.63 410.66 353.58 410.6 353.5 410.52 353.42 410.46 353.36 410.29 353.26 410.22 353.21 410.08 353.08 410 353.03 409.96 353.01 409.77 352.93 409.62 352.9 409.15 352.81 408.58 352.77 407.63 352.81 407.58 352.81 407.56 352.79 407.53 352.76 407.5 352.74 407.52 352.73 407.54 352.72 407.55 352.73 407.57 352.74 407.6 352.71 407.61 352.72 407.62 352.75 407.63 352.79 407.7 352.71 407.72 352.72 407.72 352.73 407.74 352.73 407.77 352.72 407.81 352.72 407.85 352.72 407.88 352.7 407.91 352.66 407.92 352.64 407.91 352.61 407.92 352.6 407.94 352.59 408.03 352.59 408.07 352.58 408.17 352.55 408.2 352.56 408.25 352.54 408.3 352.51 408.33 352.47 408.34 352.43 408.37 352.42 408.55 352.39 408.53 352.38 408.52 352.37 408.51 352.37 408.49 352.37 408.37 352.34 408.24 352.39 408.12 352.46 408.01 352.5 407.97 352.5 407.95 352.5 407.87 352.54 407.85 352.55 407.82 352.55 407.79 352.56 407.79 352.55 407.76 352.54 407.73 352.54 407.72 352.53 407.71 352.52 407.7 352.5 407.7 352.47 407.71 352.42 407.72 352.39 407.68 352.41 407.65 352.43 407.6 352.49 407.59 352.49 407.56 352.5 407.54 352.5 407.53 352.52 407.54 352.53 407.55 352.57 407.55 352.59 407.54 352.61 407.51 352.66 407.5 352.69 407.49 352.7 407.48 352.71 407.47 352.73 407.48 352.75 407.49 352.76 407.5 352.77 407.5 352.78 407.51 352.79 407.5 352.84 407.37 352.86 407.12 352.84 406.83 352.88 406.49 352.86 405.99 352.91 405.99 352.91 405.99 352.77 406.01 352.67 406.02 352.63 406.03 352.61 406.07 352.49 406.07 352.44 406.05 352.35 406.05 352.3 406.08 352.25 406.12 352.22 406.15 352.2 406.16 352.18 406.15 352.07 406.15 352.05 406.13 352.04 406.11 352.04 406.08 352.03 406.07 352.02 406.05 352 406.04 351.95 406.04 351.9 406.07 351.81 406.06 351.72 406.03 351.63 406.02 351.55 406.08 351.47 406.1 351.46 406.13 351.45 406.15 351.44 406.16 351.42 406.15 351.4 406.09 351.35 406.07 351.32 406.06 351.29 406.07 351.28 406.08 351.26 406.1 351.22 406.11 351.2 406.12 351.18 406.12 351.15 406.08 350.6 406.08 350.58 406.1 350.57 406.12 350.57 406.17 350.58 406.18 350.57 406.18 350.56 406.18 350.54 406.19 350.45 406.14 350.37 406.08 350.29 406.03 350.21 406.02 350.12 406.02 350.05 406.05 349.75 406.04 349.71 406.02 349.68 405.97 349.62 405.94 349.56 405.92 349.53 405.92 349.52 405.92 349.51 405.93 349.5 405.95 349.46 405.96 349.44 405.96 349.3 405.99 349.15 406 349.02 406 348.98 406.02 348.94 406.04 348.91 406.06 348.87 406.06 348.82 406.05 348.77 406 348.68 405.99 348.63 405.98 348.57 405.98 348.53 406 348.44 406 348.42 405.99 348.38 405.99 348.36 406.01 348.33 406.05 348.28 406.07 348.25 406.08 348.18 406.08 348.11 406.04 347.57 406.04 347.57 406.04 347.55 406.05 347.53 406.09 347.51 406.1 347.5 406.1 347.48 406.09 347.45 406.09 347.43 406.1 347.39 406.12 347.33 406.12 347.29 406.12 347.28 406.1 347.27 406.09 347.27 406.09 347.25 406.1 347.25 406.12 347.21 406.13 347.2 406.14 347.14 406.15 346.99 406.14 346.93 406.31 346.95 406.34 346.94 406.36 346.93 406.38 346.91 406.4 346.89 406.43 346.89 406.49 346.89 406.52 346.89 406.54 346.9 406.56 346.92 406.59 346.93 406.61 346.93 406.76 346.89 406.82 346.85 406.85 346.78 406.93 346.55 406.97 346.46 406.99 346.42 406.99 346.27 406.98 346.24 406.95 346.17 406.94 346.1 406.94 346.04 406.99 345.97 407 345.96 407.04 345.95 407.05 345.93 407.19 345.76 407.19 345.75 407.18 345.72 407.18 345.7 407.19 345.65 407.23 345.64 407.27 345.65 407.31 345.65 407.39 345.61 407.4 345.55 407.38 345.48 407.36 345.41 407.35 345.37 407.35 345.32 407.37 345.27 407.41 345.25 407.57 345.18 407.65 345.16 407.79 345.17 407.83 345.14 407.89 345.03 407.96 344.94 407.98 344.9 407.99 344.71 408.01 344.67 408.04 344.64 408.07 344.62 408.1 344.6 408.12 344.56 408.12 344.54 408.13 344.5 408.12 344.47 408.1 344.44 407.95 344.28 407.92 344.23 407.92 344.19 407.96 344.09 408.02 344 408.03 343.98 408.03 343.93 408.04 343.92 408.05 343.9 408.1 343.86 408.14 343.84 408.19 343.85 408.33 343.92 408.36 343.92 408.4 343.88 408.41 343.84 408.41 343.72 408.43 343.66 408.49 343.55 408.51 343.49 408.51 343.42 408.51 343.36 408.49 343.3 408.47 343.26 408.45 343.24 408.41 343.23 408.39 343.23 408.37 343.2 408.34 343.13 408.33 343.1 408.32 343.08 408.3 343.07 408.28 343.05 408.27 343.02 408.27 342.98 408.32 342.87 408.32 342.8 408.28 342.6 408.28 342.6 408.25 342.56 408.24 342.52 408.23 342.47 408.23 342.43 408.25 342.34 408.23 342.32 408.21 342.32 408.21 342.32 408.19 342.32 408.17 342.32 408.12 342.27 407.72 341.71 407.69 341.65 407.68 341.6 407.73 341.48 407.74 341.44 407.77 341.34 407.92 341.08 407.97 341.03 408.09 340.96 408.11 340.93 408.13 340.89 408.12 340.84 408.09 340.8 408.04 340.74 408.03 340.74 408.02 340.73 408.01 340.71 408 340.68 407.99 340.56 408 340.52 408.02 340.49 408.06 340.45 408.1 340.37 408.09 340.3 408.03 340.13 408.03 340.03 408.09 339.74 408.07 339.18 408.08 339.15 408.57 338.79 408.71 338.65 409.06 338.1 409.13 337.61 409.14 337.56 409.15 337.02 409.29 337.02 409.36 337 409.42 336.97 409.77 336.64 409.87 336.57 409.99 336.52 410.25 336.45 410.7 336.35 410.77 336.34 410.82 336.36 410.87 336.41 410.92 336.43 411.05 336.44 411.27 336.4 411.59 336.41 411.66 336.4 411.69 336.39 411.76 336.34 411.79 336.3 411.83 336.22 411.85 336.18 411.91 336.15 412.24 336.1 412.31 336.11 412.94 336.36 Z" fill-rule="evenodd" id="Nigeria" transform="translate(-405.9200134277344,-336.1000061035156) "/></svg>