<svg xmlns="http://www.w3.org/2000/svg" viewBox="0 0 35.05999755859375 27.3699951171875"><path d="M 433.21 314.91 433.23 315.06 433.26 315.21 433.29 315.36 433.31 315.51 433.34 315.66 433.37 315.81 433.39 315.96 433.42 316.11 433.45 316.25 433.47 316.4 433.5 316.55 433.53 316.7 433.55 316.85 433.58 317 433.6 317.1 433.61 317.2 433.63 317.3 433.63 317.35 433.63 317.47 433.64 317.64 433.64 317.84 433.64 318.04 433.65 318.22 433.65 318.34 433.65 318.39 433.65 318.45 433.66 318.49 433.69 318.52 433.8 318.58 433.84 318.61 433.92 318.7 433.97 318.78 434.01 318.84 434.04 318.9 434.08 318.96 434.12 319.02 434.16 319.07 434.19 319.13 434.23 319.19 434.27 319.25 434.3 319.31 434.34 319.36 434.38 319.42 434.42 319.48 434.45 319.54 434.49 319.59 434.53 319.65 434.56 319.71 434.6 319.77 434.51 319.82 434.46 319.91 434.44 320.02 434.46 320.12 434.48 320.18 434.51 320.24 434.55 320.28 434.73 320.42 434.8 320.49 434.92 320.64 435.05 320.78 435.18 320.92 435.31 321.06 435.36 321.12 435.4 321.17 435.4 321.21 435.38 321.25 435.34 321.34 435.25 321.5 435.16 321.66 435.07 321.82 434.98 321.98 434.95 322.04 434.88 322.23 434.87 322.33 434.86 322.43 434.86 322.54 434.85 322.65 434.84 322.75 434.83 322.86 434.82 322.97 434.81 323.07 434.8 323.18 434.79 323.29 434.78 323.39 434.78 323.5 434.77 323.61 434.76 323.71 434.75 323.82 434.74 323.92 434.73 324.03 434.72 324.14 434.71 324.24 434.7 324.35 434.69 324.46 434.69 324.56 434.68 324.67 434.67 324.77 434.66 324.88 434.65 324.99 434.64 325.09 434.63 325.2 434.62 325.31 434.61 325.41 434.61 325.52 434.6 325.62 434.59 325.73 434.58 325.83 434.57 325.94 434.56 326.05 434.55 326.15 434.54 326.26 434.53 326.36 434.52 326.47 434.52 326.57 434.51 326.66 434.51 326.68 434.5 326.79 434.49 326.89 434.48 327 434.47 327.1 434.46 327.21 434.45 327.31 434.44 327.42 434.44 327.52 434.43 327.63 434.42 327.74 434.41 327.84 434.4 327.95 434.39 328.05 434.38 328.16 434.37 328.26 434.36 328.37 434.35 328.47 434.35 328.58 434.34 328.68 434.33 328.79 434.32 328.89 434.31 329 434.3 329.1 434.3 329.16 434.29 329.19 434.28 329.21 434.25 329.25 434.18 329.34 434.05 329.47 433.93 329.6 433.8 329.74 433.68 329.87 433.56 330.01 433.43 330.14 433.31 330.27 433.18 330.41 433.06 330.54 432.93 330.68 432.81 330.81 432.69 330.94 432.56 331.08 432.44 331.21 432.31 331.34 432.19 331.48 432.1 331.57 431.97 331.71 431.85 331.84 431.79 331.93 431.72 332.02 431.66 332.11 431.59 332.21 431.52 332.3 431.46 332.39 431.39 332.49 431.33 332.58 431.26 332.67 431.19 332.77 431.13 332.86 431.06 332.95 430.99 333.05 430.93 333.14 430.86 333.23 430.8 333.32 430.73 333.42 430.67 333.51 430.61 333.63 430.54 333.79 430.5 333.86 430.49 333.9 430.49 333.95 430.5 333.99 430.53 334.09 430.53 334.14 430.51 334.19 430.48 334.21 430.43 334.21 430.39 334.22 430.37 334.24 430.3 334.32 430.25 334.35 430.25 334.36 430.25 334.37 430.27 334.39 430.28 334.41 430.29 334.5 430.29 334.54 430.27 334.58 430.2 334.64 430.16 334.65 430.11 334.66 430.02 334.67 429.94 334.7 429.89 334.73 429.81 334.83 429.81 334.96 429.85 335.12 429.89 335.24 429.91 335.34 429.92 335.41 429.94 335.48 429.96 335.56 429.97 335.63 429.99 335.7 430 335.77 430.02 335.85 430.04 335.92 430.05 335.99 430.07 336.06 430.08 336.14 430.1 336.21 430.12 336.28 430.13 336.35 430.15 336.42 430.16 336.5 429.61 336.47 429.61 336.47 429.55 336.48 429.53 336.5 429.53 336.54 429.5 336.56 429.41 336.65 429.39 336.67 429.38 336.69 429.38 336.7 429.39 336.71 429.39 336.73 429.39 336.75 429.37 336.75 429.36 336.75 429.35 336.75 429.33 336.78 429.33 336.79 429.36 336.8 429.32 336.85 429.27 336.87 429.21 336.88 429.15 336.91 429.16 336.89 429.16 336.87 429.16 336.85 429.14 336.84 429.12 336.85 429.11 336.89 429.09 336.91 429.09 336.88 429.09 336.88 429.05 336.89 429.01 336.89 428.99 336.88 429 336.86 429 336.84 428.94 336.85 428.88 336.87 428.68 336.97 428.62 336.98 428.56 336.97 428.55 337 428.53 337.01 428.5 336.99 428.47 336.98 428.47 337 428.49 337.01 428.5 337.01 428.52 337.03 428.53 337.05 428.5 337.07 428.44 337.14 428.44 337.15 428.44 337.16 428.44 337.17 428.43 337.17 428.41 337.17 428.41 337.17 428.4 337.18 428.37 337.19 428.36 337.19 428.37 337.22 428.38 337.24 428.38 337.25 428.35 337.25 428.35 337.24 428.34 337.23 428.32 337.22 428.32 337.22 428.31 337.23 428.3 337.26 428.24 337.33 428.21 337.36 428.16 337.37 428.13 337.38 428.11 337.44 428.09 337.45 428.06 337.44 428.04 337.43 428.02 337.41 428 337.39 427.99 337.42 427.99 337.44 427.97 337.45 427.96 337.46 427.94 337.47 427.94 337.46 427.92 337.46 427.84 337.54 427.84 337.58 427.81 337.62 427.79 337.65 427.83 337.67 427.81 337.72 427.8 337.74 427.78 337.76 427.77 337.77 427.72 337.77 427.71 337.78 427.69 337.9 427.68 337.93 427.65 337.94 427.61 337.94 427.57 337.92 427.52 337.91 427.46 337.91 427.38 337.91 427.34 337.9 427.32 337.91 427.31 337.9 427.29 337.88 427.27 337.87 427.25 337.87 427.23 337.88 427.22 337.89 427.21 337.9 427.2 337.9 427.19 337.89 427.19 337.87 427.18 337.86 427.16 337.85 427.05 337.81 427.01 337.81 426.96 337.85 426.93 337.85 426.86 337.86 426.73 337.83 426.68 337.8 426.58 337.72 426.27 337.54 426.03 337.44 425.36 337.27 424.28 337.27 423.88 337.22 423.66 337.24 423.6 337.25 422.52 337.49 422.43 337.52 422.01 337.76 421.97 337.8 421.96 337.82 421.95 337.88 421.94 337.9 421.93 337.92 421.92 337.92 421.91 337.92 421.88 337.93 421.84 337.95 421.77 338.02 421.39 338.47 421.37 338.49 421.34 338.51 421.32 338.53 421.31 338.53 421.26 338.54 420.79 338.48 420.75 338.49 420.63 338.52 420.55 338.52 419.9 338.44 419.82 338.43 419.24 338.26 419.16 338.22 419.12 338.17 419.06 338.06 419.01 338.02 418.92 337.94 418.86 337.92 418.8 337.91 418.78 337.91 418.72 337.91 418.7 337.92 418.67 337.93 418.66 337.94 418.65 337.94 418.63 337.93 418.62 337.92 418.39 337.72 418.34 337.65 418.31 337.63 418.28 337.61 418.28 337.61 418.21 337.59 418.18 337.58 418.1 337.52 418.04 337.48 417.99 337.43 417.97 337.41 417.91 337.39 417.34 337.31 417.27 337.32 417.19 337.35 416.39 337.84 416.32 337.86 416.24 337.86 416.01 337.82 415.96 337.82 415.82 337.98 415.72 338.08 415.67 338.1 415.66 338.1 415.62 338.11 415.45 338.11 415.38 338.1 415.31 338.07 415.24 338.02 415.16 337.95 415.03 337.8 414.97 337.69 414.79 337.36 414.43 336.97 414.12 336.67 413.97 336.59 413.93 336.58 413.81 336.55 413.77 336.56 413.64 336.63 413.62 336.64 413.6 336.63 413.59 336.62 413.57 336.61 412.94 336.36 412.31 336.11 412.24 336.1 411.91 336.15 411.85 336.18 411.83 336.22 411.79 336.3 411.76 336.34 411.69 336.39 411.66 336.4 411.59 336.41 411.27 336.4 411.05 336.44 410.92 336.43 410.87 336.41 410.82 336.36 410.77 336.34 410.7 336.35 410.25 336.45 409.99 336.52 409.87 336.57 409.77 336.64 409.42 336.97 409.36 337 409.29 337.02 409.15 337.02 409.14 337.56 409.13 337.61 409.06 338.1 408.71 338.65 408.57 338.79 408.08 339.15 408.07 339.18 408.09 339.74 408.03 340.03 408.03 340.13 408.09 340.3 408.1 340.37 408.06 340.45 408.02 340.49 408 340.52 407.99 340.56 408 340.68 408.01 340.71 408.02 340.73 408.03 340.74 408.04 340.74 408.09 340.8 408.12 340.84 408.13 340.89 408.11 340.93 408.09 340.96 407.97 341.03 407.96 341.02 407.94 340.98 407.92 340.97 407.91 340.95 407.91 340.93 407.9 340.92 407.89 340.88 407.88 340.86 407.87 340.85 407.86 340.85 407.84 340.83 407.77 340.73 407.75 340.71 407.72 340.69 407.64 340.66 407.54 340.6 407.52 340.59 407.49 340.58 407.47 340.58 407.44 340.59 407.41 340.61 407.38 340.6 407.35 340.58 407.33 340.56 407.3 340.53 407.25 340.44 407.23 340.4 407.22 340.35 407.22 340.3 407.21 340.29 407.18 340.27 407.17 340.26 406.79 339.91 406.7 339.78 406.68 339.73 406.67 339.72 406.65 339.72 406.58 339.71 406.55 339.7 406.53 339.69 406.51 339.67 406.5 339.62 406.48 339.59 406.46 339.56 406.41 339.54 406.3 339.45 406.28 339.48 406.23 339.48 406.2 339.49 406.16 339.48 406.14 339.49 406.11 339.5 406.08 339.55 406.06 339.56 406.03 339.57 406.01 339.55 405.99 339.56 405.97 339.58 405.97 339.59 405.96 339.61 405.96 339.63 405.93 339.68 405.9 339.69 405.83 339.67 405.81 339.67 405.78 339.69 405.77 339.7 405.76 339.7 405.74 339.68 405.73 339.68 405.65 339.7 405.64 339.71 405.62 339.73 405.61 339.74 405.59 339.74 405.59 339.73 405.58 339.72 405.58 339.71 405.55 339.71 405.53 339.71 405.52 339.71 405.5 339.74 405.49 339.76 405.48 339.76 405.47 339.75 405.45 339.74 405.44 339.75 405.42 339.78 405.42 339.78 405.39 339.79 405.34 339.78 405.31 339.79 405.25 339.81 405.23 339.85 405.24 339.9 405.26 340.03 405.33 340.24 405.34 340.26 405.36 340.28 405.38 340.3 405.41 340.31 405.43 340.31 405.44 340.33 405.45 340.35 405.45 340.39 405.43 340.4 405.41 340.39 405.38 340.39 405.37 340.41 405.35 340.44 405.34 340.45 405.32 340.46 405.3 340.46 405.28 340.46 405.27 340.49 405.27 340.52 405.29 340.55 405.3 340.58 405.18 340.48 405.01 340.23 404.85 340.02 404.69 339.79 404.59 339.65 404.55 339.57 404.55 339.51 404.59 339.48 404.71 339.45 404.72 339.45 404.74 339.43 404.75 339.42 404.76 339.42 404.79 339.43 404.8 339.43 404.93 339.42 404.96 339.41 404.98 339.39 404.97 339.34 404.97 339.33 404.98 339.3 404.98 339.3 404.97 339.28 404.94 339.25 404.93 339.23 404.91 339.2 404.9 339.17 404.88 339.03 404.88 339 404.86 338.97 404.84 338.95 404.8 338.92 404.78 338.9 404.75 338.88 404.75 338.87 404.73 338.82 404.68 338.75 404.59 338.73 404.37 338.71 404.35 338.72 404.31 338.77 404.29 338.78 404.27 338.78 404.26 338.77 404.24 338.77 404.23 338.79 404.21 338.82 404.17 338.87 404.15 338.92 404.12 338.95 404.09 338.98 404.05 338.98 403.77 338.96 403.54 338.94 403.47 338.92 403.4 338.89 403.25 338.76 403.13 338.65 402.95 338.5 402.89 338.45 402.73 338.32 402.6 338.2 402.47 338.1 402.4 338.06 402.24 338.05 402.18 338.02 402.16 337.98 402.15 337.94 402.15 337.9 402.15 337.75 402.15 337.54 402.15 337.35 402.18 337.26 402.23 337.26 402.4 337.34 402.52 337.37 402.57 337.39 402.59 337.38 402.61 337.3 402.62 337.28 402.63 337.27 402.67 337.28 402.71 337.31 402.75 337.33 402.81 337.31 402.77 337.26 402.74 337.24 402.7 337.23 402.6 337.21 402.57 337.2 402.32 337.09 402.25 337.04 402.21 336.97 402.2 336.87 402.11 336.77 401.99 336.7 401.89 336.67 401.8 336.68 401.76 336.67 401.72 336.65 401.69 336.63 401.69 336.61 401.7 336.6 401.7 336.59 401.7 336.58 401.7 336.56 401.69 336.55 401.67 336.54 401.38 336.55 401.32 336.53 401.29 336.47 401.3 336.44 401.32 336.39 401.33 336.35 401.32 336.33 401.27 336.31 401.25 336.29 401.23 336.26 401.15 336.21 401.12 336.18 401.11 336.16 401.09 336.14 401.07 336.1 401.05 336.08 401.01 336.05 400.99 336.03 400.99 336.01 401.01 335.97 401.01 335.95 400.99 335.92 400.95 335.9 400.91 335.87 400.9 335.83 400.89 335.79 400.87 335.77 400.84 335.76 400.82 335.74 400.82 335.72 400.84 335.68 400.84 335.67 400.83 335.65 400.82 335.63 400.8 335.62 400.79 335.61 400.76 335.57 400.75 335.54 400.76 335.51 400.81 335.43 400.82 335.4 400.84 335.33 400.84 335.31 400.87 335.29 400.87 335.27 400.86 335.25 400.77 335.13 400.45 334.84 400.42 334.81 400.35 334.7 400.34 334.58 400.49 334.16 400.47 334.09 400.41 333.96 400.41 333.9 400.44 333.86 400.47 333.84 400.49 333.81 400.48 333.75 400.47 333.64 400.47 333.58 400.49 333.56 400.78 333.63 400.86 333.64 400.93 333.62 401.07 333.57 401.14 333.57 401.49 333.69 401.52 333.69 401.58 333.67 401.64 333.65 401.71 333.62 402.04 333.61 402.1 333.6 402.16 333.57 402.34 333.4 402.49 333.26 402.67 333.1 402.82 332.96 402.88 332.92 402.95 332.9 403.11 332.9 403.33 332.89 403.54 332.88 403.76 332.88 403.97 332.87 404.19 332.86 404.4 332.85 404.61 332.85 404.83 332.84 405.04 332.83 405.26 332.83 405.47 332.82 405.68 332.81 405.9 332.8 406.11 332.8 406.33 332.79 406.54 332.78 406.65 332.78 406.66 332.75 406.66 332.66 406.67 332.62 406.67 332.6 406.69 332.59 406.72 332.58 406.81 332.58 407.08 332.62 407.49 332.69 407.72 332.73 407.73 332.74 407.77 332.74 407.79 332.48 407.82 332.42 408.01 332.3 408.18 332.11 408.27 332.07 408.44 332.03 408.53 331.99 408.58 331.92 408.59 331.91 408.62 331.84 408.63 331.75 408.65 331.53 408.67 331.48 408.7 331.43 408.83 331.3 408.83 331.3 408.83 331.29 408.83 331.28 408.83 331.27 408.83 331.27 408.83 331.27 408.83 331.26 408.8 331.2 408.79 331.13 408.8 331.07 409 330.58 409.03 330.53 409.08 330.49 409.13 330.44 409.23 330.4 409.26 330.37 409.27 330.31 409.27 330.06 409.27 329.86 409.27 329.55 409.27 329.41 409.28 329.39 409.3 329.34 409.31 329.32 409.3 329.09 409.31 329.05 409.32 329.01 409.34 329 409.36 329 409.39 328.98 409.39 328.74 409.39 328.59 409.39 328.31 409.39 328.02 409.38 327.74 409.38 327.45 409.38 327.16 409.38 326.88 409.38 326.72 409.38 326.59 409.38 326.31 409.38 326.02 409.38 325.73 409.38 325.45 409.38 325.16 409.38 325.16 409.38 324.87 409.38 324.58 409.37 324.3 409.37 324.01 409.79 323.92 410.21 323.84 410.63 323.75 411.05 323.67 411.27 323.62 411.75 323.53 412.24 323.43 412.46 323.38 412.74 323.33 412.84 323.29 412.94 323.22 413.11 323.06 413.25 322.94 413.39 322.81 413.53 322.68 413.67 322.56 413.81 322.43 413.95 322.3 414.09 322.18 414.23 322.05 414.37 321.92 414.51 321.79 414.65 321.67 414.79 321.54 414.93 321.41 415.07 321.29 415.21 321.16 415.35 321.03 415.48 320.91 415.56 320.84 415.73 320.69 415.89 320.55 416.05 320.42 416.21 320.28 416.37 320.14 416.59 319.95 416.88 319.77 417.03 319.67 417.18 319.58 417.33 319.48 417.48 319.39 417.63 319.3 417.78 319.2 417.93 319.11 418.08 319.01 418.23 318.92 418.39 318.82 418.54 318.73 418.69 318.63 418.84 318.54 418.99 318.44 419.14 318.35 419.29 318.25 419.44 318.16 419.59 318.06 419.74 317.97 419.89 317.87 420.05 317.78 420.2 317.68 420.35 317.59 420.5 317.49 420.65 317.4 420.8 317.3 420.95 317.2 421.1 317.11 421.25 317.01 421.4 316.92 421.55 316.82 421.7 316.73 421.85 316.63 422.01 316.54 422.16 316.44 422.31 316.35 422.46 316.25 422.61 316.15 422.76 316.06 422.91 315.96 423.06 315.87 423.21 315.77 423.36 315.68 423.51 315.58 423.66 315.48 423.82 315.39 423.97 315.29 424.12 315.2 424.27 315.1 424.42 315 424.57 314.91 424.72 314.81 424.87 314.72 425.02 314.62 425.17 314.52 425.32 314.43 425.48 314.33 425.63 314.24 425.78 314.14 425.93 314.04 426.08 313.95 426.23 313.85 426.38 313.75 426.53 313.66 426.73 313.71 426.92 313.75 427.12 313.8 427.31 313.85 427.51 313.89 427.7 313.94 427.9 313.99 428.1 314.04 428.29 314.08 428.49 314.13 428.68 314.18 428.88 314.22 429.07 314.27 429.27 314.32 429.46 314.37 429.66 314.41 429.89 314.47 430.15 314.61 430.27 314.72 430.55 314.97 430.83 315.22 431.1 315.46 431.38 315.71 431.48 315.8 431.51 315.82 431.55 315.81 431.69 315.74 432.07 315.53 432.45 315.32 432.82 315.12 433.2 314.91 433.2 314.91 433.21 314.91 Z" id="Niger" transform="translate(-400.3399963378906,-313.6600036621094) "/></svg>