<svg xmlns="http://www.w3.org/2000/svg" viewBox="0 0 798 1319"><path d="M 375.36 1156.07 448.33 1148.49 490.04 1171.23 461.6 1224.3 384.84 1224.3 366.83 1301.05 345.98 1320 316.6 1296.31 321.34 1272.62 277.74 1223.35 269.21 1177.87 286.27 1149.44 303.33 1154.18 313.76 1138.07 343.14 1145.65 381.99 1128.59 375.36 1156.07 Z M 490.98 722.09 490.98 772.31 454.02 777.05 461.6 756.2 445.49 742.94 490.98 722.09 Z M 270.16 658.6 255.94 648.18 276.79 639.65 280.58 655.76 270.16 658.6 Z M 106.2 11.42 131.79 52.17 177.28 72.07 299.54 76.8 334.61 106.18 414.22 122.29 467.29 163.98 507.1 240.73 556.38 265.37 596.18 255.89 683.38 272.95 776.25 314.64 799 308.96 799 332.65 763.93 349.7 782.89 398.03 774.36 426.45 793.31 440.67 769.62 503.21 721.29 515.52 667.26 506.05 654 519.31 656.84 540.16 692.85 566.69 685.27 600.8 528.89 604.59 516.57 645.34 474.87 667.13 448.33 651.02 467.29 633.02 421.8 611.23 277.74 609.33 258.79 640.6 217.09 658.6 184.86 624.49 192.44 599.86 179.18 578.06 106.2 550.58 53.13 561.01 45.54 543.95 82.51 501.31 45.54 461.51 55.97 416.98 35.12 382.87 64.5 345.91 48.39 290 64.5 264.42 55.02 236.94 77.77 151.66 40.81 155.45 1 135.55 42.7 114.71 66.39 28.48 51.23 14.27 73.98 18.06 74.92 1 106.2 11.42 Z" fill-rule="evenodd" transform="translate(-1,-1) "/></svg>