<svg xmlns="http://www.w3.org/2000/svg" viewBox="0 0 14.37994384765625 15.470001220703125"><path d="M 677.78 277.05 677.74 277.09 677.68 277.13 677.66 277.15 677.63 277.17 677.59 277.18 677.57 277.16 677.64 277.08 677.67 277.06 677.69 277.07 677.7 277.05 677.7 277.03 677.71 277.03 677.72 277.03 677.72 277.02 677.73 277.01 677.75 277.01 677.81 276.98 677.83 276.98 677.78 277.05 Z M 677.43 276.93 677.41 276.93 677.4 276.91 677.4 276.89 677.41 276.88 677.45 276.85 677.49 276.84 677.5 276.84 677.51 276.85 677.51 276.86 677.51 276.86 677.49 276.87 677.46 276.9 677.43 276.93 Z M 677.18 276.82 677.18 276.84 677.17 276.84 677.16 276.84 677.14 276.87 677.12 276.87 677.09 276.87 677.08 276.87 677.08 276.85 677.09 276.85 677.1 276.83 677.11 276.83 677.13 276.83 677.14 276.84 677.15 276.84 677.15 276.82 677.15 276.82 677.15 276.8 677.15 276.79 677.17 276.79 677.18 276.82 Z M 676.83 274.84 676.86 274.91 676.87 274.94 676.78 274.91 676.73 274.89 676.69 274.86 676.64 274.9 676.62 274.88 676.63 274.83 676.71 274.78 676.74 274.77 676.75 274.8 676.79 274.81 676.81 274.82 676.83 274.84 Z M 676.21 272.29 676.2 272.29 676.19 272.28 676.18 272.26 676.18 272.24 676.2 272.23 676.22 272.21 676.23 272.23 676.23 272.24 676.24 272.24 676.24 272.28 676.21 272.29 Z M 676.43 272.06 676.41 272.08 676.38 272.08 676.37 272.06 676.38 272.04 676.38 272.02 676.39 272.01 676.4 271.98 676.43 271.98 676.44 272 676.44 272.03 676.43 272.06 Z M 676.4 271.89 676.41 271.91 676.41 271.93 676.39 271.96 676.36 271.98 676.33 271.98 676.3 271.95 676.2 271.98 676.2 271.98 676.19 271.98 676.19 271.96 676.21 271.94 676.23 271.93 676.27 271.9 676.27 271.9 676.3 271.9 676.36 271.88 676.4 271.89 Z M 676.82 272.01 676.78 272.06 676.73 272.07 676.68 272.1 676.72 272.03 676.75 272.04 676.77 272.01 676.73 271.98 676.74 271.96 676.77 271.96 676.77 271.95 676.77 271.93 676.76 271.92 676.76 271.87 676.8 271.85 676.79 271.81 676.82 271.79 676.82 271.76 676.86 271.76 676.92 271.79 676.91 271.8 676.88 271.82 676.91 271.88 676.94 271.94 676.89 271.97 676.82 272.01 Z M 675.37 271.24 675.37 271.25 675.36 271.25 675.36 271.24 675.35 271.24 675.34 271.24 675.34 271.24 675.34 271.23 675.34 271.21 675.34 271.2 675.35 271.19 675.35 271.18 675.35 271.18 675.36 271.18 675.36 271.17 675.36 271.17 675.37 271.16 675.38 271.16 675.38 271.17 675.39 271.17 675.39 271.19 675.4 271.19 675.4 271.2 675.4 271.2 675.4 271.2 675.4 271.21 675.4 271.22 675.39 271.22 675.39 271.23 675.38 271.23 675.37 271.24 Z M 689.34 263.22 689.37 263.28 689.37 263.29 689.38 263.32 689.39 263.34 689.4 263.35 689.41 263.36 689.44 263.47 689.47 263.51 689.51 263.55 689.56 263.56 689.6 263.61 689.62 263.66 689.63 263.73 689.63 263.81 689.64 263.85 689.66 263.87 689.72 263.92 689.71 263.94 689.65 263.96 689.57 263.98 689.53 263.99 689.51 264.02 689.49 264.02 689.49 263.96 689.49 263.93 689.49 263.91 689.46 263.88 689.43 263.86 689.36 263.85 689.32 263.82 689.3 263.8 689.23 263.79 689.2 263.8 689.21 263.84 689.18 263.87 689.14 263.88 689.12 263.85 689.1 263.83 689.07 263.83 689.07 263.86 689.07 263.89 689.04 263.91 689.02 263.93 689.02 263.97 689.02 263.99 689.03 264.01 689.05 264.02 689.07 264.02 689.07 264.06 689.06 264.08 689.04 264.07 689.01 264.03 688.98 264.04 688.97 264.08 688.99 264.11 688.96 264.12 688.95 264.16 688.91 264.16 688.9 264.23 688.87 264.25 688.85 264.26 688.85 264.21 688.87 264.15 688.85 264.1 688.82 264.09 688.72 264.19 688.67 264.26 688.64 264.28 688.62 264.28 688.62 264.33 688.61 264.5 688.6 264.5 688.58 264.49 688.55 264.51 688.52 264.55 688.53 264.55 688.54 264.57 688.52 264.58 688.5 264.58 688.46 264.55 688.43 264.53 688.37 264.53 688.33 264.57 688.32 264.62 688.32 264.65 688.28 264.65 688.28 264.67 688.27 264.69 688.25 264.77 688.24 264.81 688.23 264.82 688.2 264.76 688.17 264.77 688.17 264.83 688.13 264.85 688.14 264.87 688.15 264.88 688.17 264.91 688.15 264.92 688.13 264.93 688.11 264.97 688.12 264.97 688.11 265 688.1 265.03 688.1 265.05 688.09 265.1 688.07 265.12 688.05 265.11 688.03 265.09 687.98 265.06 687.94 265.08 687.92 265.15 687.91 265.22 687.91 265.32 687.88 265.42 687.85 265.45 687.84 265.5 687.82 265.52 687.78 265.46 687.75 265.46 687.67 265.51 687.64 265.6 687.61 265.7 687.59 265.74 687.54 265.76 687.48 265.84 687.46 265.93 687.43 266.06 687.39 266.13 687.41 266.2 687.41 266.25 687.4 266.3 687.41 266.38 687.46 266.45 687.51 266.49 687.53 266.52 687.58 266.51 687.6 266.55 687.63 266.6 687.66 266.61 687.67 266.62 687.7 266.61 687.72 266.61 687.74 266.64 687.73 266.65 687.72 266.67 687.72 266.71 687.71 266.71 687.69 266.78 687.69 266.8 687.66 266.82 687.63 266.89 687.55 267.26 687.53 267.39 687.56 267.5 687.55 267.54 687.55 267.58 687.55 267.68 687.56 267.81 687.57 267.84 687.61 267.89 687.65 267.91 687.62 267.93 687.61 267.99 687.62 268.01 687.58 268.07 687.58 268.12 687.56 268.19 687.54 268.23 687.52 268.23 687.5 268.2 687.47 268.21 687.42 268.22 687.38 268.21 687.34 268.22 687.3 268.21 687.28 268.22 687.22 268.22 687.18 268.25 687.17 268.3 687.13 268.31 687.1 268.34 687.07 268.35 687.01 268.35 686.9 268.39 686.81 268.45 686.73 268.49 686.7 268.52 686.68 268.57 686.64 268.66 686.62 268.7 686.61 268.69 686.59 268.67 686.57 268.63 686.55 268.6 686.51 268.6 686.47 268.61 686.43 268.63 686.42 268.66 686.41 268.69 686.41 268.71 686.41 268.73 686.4 268.75 686.39 268.77 686.39 268.8 686.38 268.82 686.37 268.85 686.36 268.87 686.35 268.89 686.34 268.9 686.34 268.93 686.33 269 686.31 269.01 686.29 269.04 686.28 269.07 686.21 269.17 686.12 269.28 686.02 269.28 685.9 269.32 685.73 269.5 685.64 269.58 685.57 269.59 685.54 269.62 685.46 269.65 685.43 269.65 685.4 269.68 685.33 269.67 685.26 269.69 685.22 269.75 685.19 269.75 685.19 269.73 685.14 269.75 685.11 269.79 685.1 269.87 685.13 269.88 685.19 269.91 685.2 269.94 685.21 269.96 685.2 270 685.21 270.07 685.18 270.08 685.16 270.1 685.14 270.12 685.13 270.13 685.11 270.13 685.08 270.11 685.04 270.11 685.01 270.13 684.94 270.17 684.92 270.21 684.9 270.24 684.86 270.26 684.8 270.26 684.77 270.29 684.73 270.33 684.7 270.35 684.65 270.37 684.6 270.36 684.54 270.37 684.48 270.46 684.46 270.57 684.4 270.55 684.35 270.46 684.32 270.43 684.26 270.45 684.24 270.49 684.25 270.57 684.23 270.57 684.18 270.56 684.16 270.57 684.14 270.57 684.1 270.6 684.08 270.6 684.06 270.6 684.05 270.58 684.04 270.57 683.75 270.52 683.74 270.53 683.74 270.58 683.73 270.59 683.71 270.61 683.69 270.62 683.67 270.62 683.65 270.64 683.62 270.7 683.6 270.72 683.58 270.73 683.53 270.7 683.49 270.76 683.49 270.81 683.48 270.93 683.46 270.96 683.25 270.98 683.28 271.01 683.28 271.04 683.21 271.07 683.13 271.06 683.06 271.09 683.02 271.18 682.99 271.21 682.95 271.17 682.9 271.14 682.86 271.2 682.83 271.21 682.79 271.24 682.76 271.27 682.73 271.34 682.67 271.38 682.66 271.4 682.65 271.42 682.63 271.47 682.63 271.49 682.63 271.52 682.64 271.56 682.64 271.63 682.65 271.66 682.67 271.67 682.69 271.67 682.74 271.69 682.78 271.75 682.79 271.81 682.71 271.94 682.67 272.06 682.7 272.25 682.76 272.53 682.76 272.61 682.75 272.64 682.72 272.65 682.7 272.64 682.67 272.61 682.67 272.57 682.68 272.53 682.72 272.45 682.64 272.34 682.63 272.31 682.61 272.28 682.59 272.27 682.56 272.29 682.49 272.35 682.49 272.36 682.47 272.38 682.46 272.39 682.36 272.43 682.36 272.45 682.38 272.47 682.43 272.48 682.46 272.49 682.49 272.47 682.52 272.46 682.55 272.47 682.57 272.52 682.55 272.54 682.48 272.56 682.46 272.57 682.45 272.55 682.44 272.54 682.42 272.53 682.41 272.53 682.39 272.54 682.39 272.55 682.4 272.57 682.4 272.59 682.37 272.66 682.36 272.74 682.34 272.83 682.37 272.88 682.39 272.94 682.42 272.96 682.45 272.97 682.49 273.02 682.52 273.04 682.56 273.03 682.57 273.01 682.57 272.98 682.57 272.96 682.61 272.96 682.65 273.07 682.7 273.09 682.86 273.08 682.92 273.09 682.94 273.12 682.96 273.14 682.98 273.16 683.01 273.17 683.17 273.17 683.2 273.18 683.22 273.2 683.27 273.29 683.34 273.39 683.36 273.42 683.37 273.46 683.4 273.51 683.48 273.58 683.49 273.62 683.5 273.63 683.52 273.61 683.53 273.6 683.54 273.61 683.55 273.63 683.56 273.67 683.57 273.7 683.59 273.71 683.61 273.72 683.65 273.74 683.72 273.86 683.77 273.91 683.94 273.95 684.2 274.28 684.23 274.27 684.33 274.21 684.36 274.2 684.43 274.31 684.45 274.33 684.48 274.35 684.5 274.37 684.53 274.42 684.53 274.43 684.53 274.47 684.53 274.52 684.54 274.57 684.54 274.57 684.42 274.64 684.36 274.69 684.34 274.72 684.35 274.77 684.37 274.87 684.36 274.97 684.33 275.06 684.28 275.13 684.23 275.21 684.12 275.33 683.97 275.42 683.82 275.48 683.67 275.49 683.44 275.47 683.29 275.5 683.26 275.5 683.23 275.47 683.21 275.43 683.19 275.42 682.76 275.45 682.63 275.49 682.56 275.5 682.35 275.44 682.08 275.46 682.01 275.45 681.87 275.47 681.72 275.53 681.58 275.62 681.45 275.72 681.44 275.73 681.41 275.77 681.38 275.84 681.34 275.95 681.3 275.99 681.22 276.06 681.18 276.1 680.99 276.39 680.9 276.46 680.84 276.48 680.8 276.48 680.78 276.5 680.76 276.57 680.78 276.81 680.78 276.81 680.75 276.85 680.74 276.89 680.72 276.89 680.68 276.92 680.68 276.92 680.62 276.96 680.58 276.95 680.27 276.75 680.25 276.74 680.2 276.65 680.18 276.63 680.14 276.64 680.09 276.65 679.92 276.75 679.88 276.76 679.83 276.77 679.74 276.77 679.7 276.78 679.65 276.81 679.63 276.83 679.63 276.84 679.63 276.85 679.64 276.89 679.65 276.95 679.67 276.98 679.66 277.02 679.66 277.05 679.65 277.07 679.54 277.05 679.51 276.94 679.49 276.89 679.46 276.89 679.44 276.88 679.43 276.82 679.42 276.69 679.36 276.74 679.33 276.74 679.32 276.68 679.3 276.65 679.27 276.61 679.23 276.58 679.21 276.58 679.18 276.6 679.19 276.64 679.22 276.67 679.24 276.68 679.24 276.71 679.26 276.79 679.27 276.83 679.25 276.81 679.23 276.79 679.2 276.78 679.18 276.77 679.15 276.76 679.14 276.77 679.13 276.76 679.1 276.75 679.07 276.71 678.96 276.54 678.95 276.51 678.93 276.49 678.88 276.48 678.87 276.47 678.86 276.44 678.86 276.41 678.87 276.36 678.86 276.35 678.82 276.35 678.8 276.34 678.76 276.32 678.74 276.31 678.65 276.3 678.61 276.3 678.52 276.25 678.46 276.24 678.41 276.24 678.37 276.26 678.37 276.3 678.41 276.35 678.46 276.39 678.5 276.4 678.58 276.39 678.6 276.41 678.59 276.46 678.61 276.45 678.63 276.45 678.65 276.45 678.68 276.46 678.65 276.5 678.63 276.54 678.67 276.54 678.69 276.53 678.71 276.52 678.72 276.54 678.7 276.56 678.67 276.59 678.64 276.6 678.6 276.61 678.57 276.61 678.54 276.59 678.51 276.57 678.48 276.54 678.47 276.6 678.49 276.67 678.5 276.73 678.46 276.79 678.5 276.82 678.51 276.83 678.5 276.85 678.49 276.86 678.44 276.86 678.43 276.87 678.44 276.89 678.45 276.92 678.46 276.96 678.46 276.99 678.44 277 678.42 277 678.4 276.99 678.38 276.98 678.36 276.96 678.37 276.95 678.37 276.95 678.37 276.95 678.38 276.94 678.35 276.92 678.32 276.92 678.31 276.94 678.3 276.97 678.28 276.97 678.26 276.97 678.24 276.94 678.25 276.9 678.2 276.95 678.17 277.02 678.14 277.08 678.06 277.11 677.98 277.11 677.94 277.12 677.92 277.14 677.91 277.19 677.88 277.22 677.85 277.24 677.83 277.21 677.86 277.06 677.89 277 677.95 277.02 678.07 276.96 678.04 276.94 677.96 276.95 677.92 276.94 677.95 276.9 677.99 276.86 678.05 276.84 678.09 276.83 678.2 276.85 678.25 276.84 678.25 276.77 678.22 276.78 678.19 276.78 678.16 276.76 678.15 276.73 678.21 276.65 678.21 276.63 678.15 276.61 678.11 276.6 678.09 276.57 678.07 276.55 678.02 276.58 678.03 276.59 678.04 276.6 678.04 276.61 677.98 276.61 677.96 276.62 677.93 276.63 677.98 276.65 678.03 276.68 678.07 276.72 678.07 276.77 678.03 276.73 677.97 276.71 677.91 276.7 677.86 276.71 677.87 276.73 677.88 276.75 677.9 276.76 677.92 276.77 677.85 276.83 677.81 276.85 677.77 276.86 677.77 276.86 677.77 276.85 677.76 276.83 677.75 276.83 677.61 276.83 677.64 276.78 677.74 276.72 677.77 276.67 677.75 276.62 677.65 276.57 677.66 276.52 677.62 276.53 677.59 276.57 677.57 276.62 677.55 276.66 677.51 276.69 677.47 276.7 677.43 276.7 677.31 276.68 677.28 276.67 677.22 276.62 677.2 276.61 677.15 276.61 677.11 276.59 677.1 276.56 677.11 276.5 677.06 276.53 677.04 276.54 677.05 276.49 677.07 276.46 677.1 276.45 677.14 276.44 677.16 276.43 677.22 276.39 677.25 276.38 677.28 276.4 677.34 276.43 677.38 276.44 677.42 276.44 677.45 276.43 677.47 276.41 677.49 276.38 677.48 276.36 677.45 276.38 677.43 276.39 677.4 276.38 677.36 276.33 677.35 276.33 677.34 276.32 677.33 276.29 677.32 276.23 677.34 276.21 677.43 276.21 677.53 276.19 677.56 276.2 677.57 276.23 677.57 276.25 677.58 276.27 677.63 276.27 677.64 276.18 677.69 276.15 677.67 276.11 677.63 276.09 677.55 276.1 677.51 276.09 677.43 276.06 677.4 276.06 677.36 276.06 677.25 276.12 677.14 276.14 677.11 276.15 676.95 276.06 676.87 275.98 676.83 275.96 676.81 276.01 676.79 276.03 676.73 276.04 676.63 276.06 676.37 276.01 676.35 275.98 676.36 275.95 676.41 275.92 676.52 275.91 676.56 275.89 676.58 275.84 676.6 275.83 676.69 275.81 676.7 275.79 676.74 275.72 676.76 275.69 676.82 275.68 676.85 275.71 676.91 275.8 676.93 275.79 677.07 275.69 677.01 275.67 676.9 275.69 676.83 275.64 676.8 275.61 676.8 275.58 676.79 275.54 676.82 275.36 676.83 275.33 676.92 275.18 676.94 275.15 676.97 275.06 676.99 275.03 677.01 275.03 677.02 275.03 677.03 275.05 677.02 275.09 677.05 275.06 677.09 275 677.12 274.93 677.13 274.88 677.12 274.85 677.08 274.82 677.07 274.8 677.07 274.76 677.08 274.74 677.07 274.72 677.04 274.69 677.05 274.67 677.08 274.66 677.12 274.69 677.15 274.67 677.17 274.67 677.18 274.69 677.21 274.73 677.26 274.69 677.31 274.66 677.37 274.7 677.38 274.67 677.38 274.61 677.39 274.57 677.36 274.55 677.35 274.52 677.34 274.48 677.36 274.46 677.39 274.47 677.41 274.51 677.43 274.55 677.48 274.54 677.49 274.52 677.48 274.48 677.48 274.44 677.5 274.45 677.51 274.48 677.53 274.49 677.57 274.48 677.61 274.48 677.66 274.45 677.68 274.44 677.7 274.46 677.75 274.48 677.77 274.46 677.79 274.45 677.82 274.42 677.85 274.4 677.9 274.37 677.96 274.38 677.99 274.38 678.04 274.4 678.06 274.4 678.07 274.39 678.07 274.37 678.08 274.35 678.11 274.34 678.21 274.4 678.22 274.43 678.22 274.48 678.24 274.49 678.26 274.49 678.28 274.46 678.28 274.43 678.29 274.42 678.31 274.43 678.34 274.44 678.35 274.47 678.36 274.49 678.38 274.52 678.44 274.55 678.5 274.57 678.54 274.56 678.52 274.53 678.49 274.49 678.48 274.48 678.46 274.47 678.41 274.47 678.39 274.46 678.29 274.33 678.25 274.3 678.22 274.3 678.17 274.3 678.15 274.28 678.13 274.26 678.07 274.16 678.08 274.14 678.08 274.14 678.06 274.15 678.05 274.16 678.04 274.18 678.02 274.2 677.99 274.2 678.01 274.22 678.03 274.24 678.05 274.26 678.01 274.28 677.95 274.31 677.91 274.3 677.89 274.26 677.87 274.26 677.86 274.3 677.84 274.31 677.78 274.3 677.78 274.29 677.77 274.28 677.76 274.26 677.75 274.26 677.74 274.28 677.74 274.3 677.76 274.31 677.77 274.32 677.77 274.34 677.73 274.35 677.7 274.35 677.67 274.34 677.64 274.31 677.62 274.28 677.63 274.26 677.67 274.2 677.66 274.2 677.64 274.18 677.65 274.16 677.64 274.12 677.62 274.1 677.58 274.09 677.59 274.16 677.56 274.25 677.5 274.25 677.47 274.22 677.46 274.18 677.43 274.16 677.41 274.14 677.39 274.07 677.4 274.02 677.41 273.97 677.42 273.87 677.42 273.82 677.45 273.75 677.47 273.68 677.5 273.63 677.53 273.58 677.52 273.55 677.55 273.51 677.6 273.43 677.64 273.37 677.66 273.32 677.68 273.28 677.73 273.28 677.78 273.28 677.83 273.27 677.71 273.26 677.72 273.23 677.73 273.21 677.73 273.19 677.72 273.18 677.72 273.16 677.72 273.14 677.72 273.11 677.73 273.1 677.74 273.09 677.72 273.08 677.74 273.05 677.76 273.04 677.82 273.04 677.84 273.03 677.84 273.01 677.82 272.98 677.81 272.96 677.85 272.9 677.89 272.88 677.95 272.88 677.99 272.9 677.98 272.86 677.96 272.84 677.96 272.81 678.04 272.65 678.07 272.63 678.03 272.62 678.01 272.6 677.99 272.56 678.01 272.51 678 272.5 677.98 272.47 678 272.48 678.01 272.48 678.02 272.49 678.07 272.47 678.09 272.44 678.1 272.41 678.06 272.41 677.92 272.39 677.87 272.37 677.88 272.33 677.93 272.26 677.91 272.25 677.89 272.26 677.86 272.26 677.84 272.28 677.85 272.2 677.88 272.16 677.92 272.12 677.96 272.08 677.98 272.05 677.98 272.01 678 271.97 678.06 271.95 678.08 271.92 678.08 271.88 678.07 271.84 678.04 271.87 677.81 271.99 677.76 272.01 677.74 272.02 677.72 272.02 677.7 272.01 677.64 271.94 677.63 271.93 677.61 271.91 677.57 271.89 677.55 271.88 677.58 271.82 677.43 271.82 677.44 271.84 677.46 271.89 677.46 271.9 677.36 271.9 677.34 271.9 677.34 271.88 677.34 271.86 677.33 271.84 677.31 271.82 677.31 271.8 677.3 271.79 677.27 271.79 677.24 271.79 677.22 271.8 677.19 271.79 677.17 271.77 677.12 271.73 677.11 271.72 677.11 271.7 677.09 271.69 677.07 271.69 677.05 271.69 676.99 271.62 676.97 271.62 676.95 271.67 676.92 271.65 676.89 271.64 676.87 271.62 676.85 271.54 676.82 271.5 676.79 271.47 676.75 271.45 676.71 271.44 676.67 271.43 676.65 271.43 676.64 271.4 676.57 271.39 676.55 271.37 676.54 271.31 676.52 271.27 676.51 271.31 676.51 271.33 676.51 271.36 676.53 271.38 676.54 271.42 676.53 271.45 676.53 271.48 676.52 271.51 676.52 271.54 676.54 271.55 676.54 271.59 676.51 271.59 676.48 271.61 676.49 271.64 676.52 271.67 676.5 271.68 676.45 271.66 676.41 271.69 676.36 271.74 676.31 271.76 676.29 271.81 676.28 271.83 676.25 271.8 676.25 271.79 676.25 271.78 676.26 271.77 676.25 271.76 676.24 271.76 676.23 271.75 676.22 271.72 676.26 271.67 676.27 271.62 676.3 271.6 676.31 271.56 676.3 271.52 676.29 271.52 676.27 271.53 676.25 271.53 676.24 271.52 676.23 271.48 676.22 271.47 676.2 271.46 676.18 271.45 676.16 271.44 676.16 271.42 676.16 271.4 676.17 271.35 676.17 271.32 676.16 271.31 676.12 271.29 676.11 271.26 676.12 271.2 676.12 271.18 676.1 271.18 676.02 271.17 675.83 271.14 675.82 271.14 675.81 271.15 675.8 271.16 675.79 271.15 675.78 271.15 675.78 271.12 675.77 271.12 675.76 271.11 675.75 271.05 675.75 271.04 675.73 271.03 675.67 271.02 675.64 270.96 675.62 270.94 675.61 270.92 675.59 270.91 675.58 270.9 675.6 270.87 675.63 270.85 675.66 270.84 675.69 270.82 675.7 270.78 675.72 270.64 675.77 270.57 675.83 270.58 675.9 270.61 675.97 270.58 675.93 270.56 675.83 270.56 675.78 270.55 675.73 270.51 675.72 270.46 675.71 270.41 675.69 270.37 675.72 270.33 676.04 270.03 676.05 270.03 676.07 270.02 676.08 270.01 676.09 270 676.09 269.97 676.1 269.95 676.13 269.92 676.22 269.86 676.26 269.82 676.29 269.8 676.4 269.78 676.45 269.75 676.47 269.71 676.49 269.64 676.51 269.58 676.54 269.55 676.6 269.54 676.64 269.51 676.75 269.4 676.83 269.3 676.84 269.27 676.85 269.25 676.87 269.27 676.9 269.3 676.9 269.32 676.92 269.33 676.94 269.33 676.99 269.34 677.05 269.33 677.1 269.33 677.14 269.33 677.17 269.32 677.19 269.29 677.17 269.25 677.14 269.22 677.12 269.18 677.12 269.14 677.14 269.1 677.19 269.08 677.25 269.06 677.28 269.04 677.34 269.02 677.38 268.99 677.42 268.96 677.49 268.93 677.56 268.91 677.62 268.88 677.65 268.87 677.67 268.85 677.68 268.82 677.7 268.79 677.73 268.77 677.77 268.77 677.8 268.78 677.83 268.79 677.87 268.78 677.89 268.78 677.91 268.79 677.94 268.81 677.95 268.82 678 268.82 678.01 268.8 678 268.76 678 268.76 678.01 268.72 678.03 268.71 678.07 268.71 678.09 268.7 678.09 268.68 678.1 268.64 678.1 268.62 678.12 268.59 678.14 268.57 678.17 268.56 678.27 268.56 678.29 268.55 678.31 268.51 678.31 268.45 678.32 268.39 678.35 268.38 678.38 268.38 678.41 268.41 678.43 268.44 678.44 268.44 678.57 268.44 678.6 268.42 678.58 268.38 678.51 268.3 678.6 268.19 678.64 268.16 678.65 268.16 678.72 268.14 678.74 268.13 678.75 268.11 678.76 268.09 678.77 268.08 678.79 268.08 678.81 268.08 678.91 268.13 678.93 268.12 679.02 268.06 679.05 268.05 679.08 268.04 679.11 268.06 679.13 268.09 679.16 268.11 679.19 268.09 679.22 268.07 679.29 268.06 679.32 268.04 679.33 268.01 679.32 268 679.29 268 679.26 268 679.28 267.96 679.32 267.94 679.36 267.94 679.4 267.91 679.45 267.84 679.46 267.8 679.45 267.78 679.47 267.76 679.49 267.74 679.51 267.73 679.53 267.72 679.52 267.68 679.55 267.65 679.58 267.62 679.61 267.58 679.57 267.53 679.63 267.48 679.88 267.33 679.91 267.3 679.93 267.27 679.99 267.14 680.01 267.11 680.07 267.05 680.09 267.02 680.14 266.9 680.17 266.86 680.28 266.73 680.35 266.67 680.41 266.67 680.4 266.69 680.4 266.7 680.39 266.71 680.38 266.72 680.38 266.74 680.46 266.72 680.46 266.64 680.43 266.55 680.41 266.47 680.43 266.43 680.5 266.31 680.54 266.18 680.58 266.1 680.59 266.06 680.58 266.02 680.56 265.98 680.56 265.94 680.63 265.86 680.67 265.79 680.71 265.78 680.78 265.79 680.81 265.77 680.88 265.71 680.91 265.69 680.88 265.66 680.85 265.64 680.82 265.62 680.81 265.58 680.84 265.57 680.88 265.57 680.91 265.58 680.94 265.6 681.01 265.68 681.05 265.7 681.07 265.67 681.09 265.6 681.22 265.55 681.25 265.47 681.27 265.44 681.31 265.4 681.36 265.39 681.38 265.41 681.39 265.48 681.4 265.49 681.42 265.49 681.47 265.5 681.52 265.54 681.59 265.6 681.61 265.59 681.62 265.63 681.67 265.71 681.69 265.75 681.65 265.74 681.63 265.76 681.62 265.78 681.63 265.83 681.65 265.86 681.68 265.88 681.75 265.91 681.74 265.92 681.73 265.95 681.77 265.95 681.88 266 681.92 266.03 681.87 266.05 681.82 266.08 681.78 266.12 681.75 266.17 681.76 266.17 681.78 266.18 681.8 266.19 681.82 266.21 681.83 266.21 681.86 266.19 681.88 266.2 681.89 266.21 681.9 266.22 681.92 266.23 681.93 266.22 681.96 266.16 681.98 266.14 682.01 266.16 682.06 266.2 682.09 266.2 682.11 266.2 682.13 266.19 682.14 266.19 682.16 266.2 682.16 266.22 682.15 266.24 682.13 266.26 682.11 266.26 682.15 266.28 682.19 266.3 682.28 266.31 682.3 266.3 682.34 266.29 682.36 266.28 682.38 266.29 682.39 266.3 682.41 266.32 682.41 266.33 682.46 266.33 682.5 266.31 682.53 266.3 682.57 266.28 682.61 266.29 682.64 266.31 682.68 266.33 682.72 266.31 682.72 266.37 682.76 266.4 682.84 266.43 682.91 266.48 682.93 266.49 682.95 266.48 682.98 266.44 682.99 266.44 683.05 266.46 683.26 266.47 683.31 266.45 683.35 266.47 683.4 266.48 683.43 266.46 683.45 266.42 683.47 266.39 683.52 266.38 683.61 266.37 683.68 266.43 683.7 266.42 683.72 266.39 683.74 266.37 683.76 266.4 683.76 266.45 683.76 266.5 683.77 266.53 683.79 266.54 683.81 266.53 683.85 266.51 683.84 266.58 683.88 266.61 683.93 266.61 683.96 266.58 684 266.59 683.96 266.64 684.06 266.64 684.15 266.56 684.37 266.15 684.41 266.03 684.36 265.97 684.36 265.92 684.33 265.86 684.29 265.81 684.23 265.78 684.15 265.71 684.09 265.65 684.08 265.59 684.05 265.53 683.95 265.33 683.94 265.27 683.86 265.25 683.84 265.2 683.82 265.16 683.78 264.9 683.78 264.86 683.81 264.82 683.85 264.81 683.96 264.8 684.31 264.7 684.54 264.72 684.59 264.74 684.64 264.78 684.74 264.77 684.82 264.81 684.85 264.81 684.94 264.78 684.96 264.78 684.98 264.8 685.01 264.79 685.04 264.74 685.06 264.72 685.08 264.71 685.25 264.72 685.31 264.71 685.33 264.66 685.54 264.67 685.69 264.71 685.74 264.72 685.82 264.7 685.85 264.58 685.87 264.54 685.92 264.52 685.97 264.52 686.01 264.5 686.07 264.43 686.09 264.4 686.09 264.34 686.15 264.37 686.18 264.38 686.22 264.36 686.28 264.28 686.34 264.22 686.39 264.18 686.4 264.16 686.42 264.15 686.42 264.13 686.41 264.1 686.36 264.1 686.35 264.08 686.36 264.04 686.38 264.03 686.4 264.02 686.42 264.01 686.43 263.98 686.42 263.96 686.43 263.93 686.46 263.91 686.44 263.9 686.42 263.88 686.4 263.88 686.38 263.87 686.38 263.85 686.45 263.85 686.47 263.84 686.49 263.79 686.48 263.78 686.47 263.77 686.46 263.76 686.46 263.73 686.46 263.7 686.47 263.68 686.49 263.67 686.61 263.65 686.62 263.64 686.63 263.59 686.65 263.54 686.67 263.53 686.7 263.57 686.73 263.55 686.71 263.52 686.7 263.49 686.7 263.47 686.73 263.46 686.75 263.47 686.77 263.51 686.81 263.52 686.83 263.52 686.85 263.5 686.88 263.49 686.91 263.49 687.02 263.58 687.03 263.6 687.1 263.64 687.11 263.66 687.12 263.69 687.14 263.7 687.16 263.69 687.18 263.68 687.19 263.65 687.19 263.62 687.2 263.6 687.25 263.57 687.27 263.54 687.27 263.5 687.26 263.46 687.35 263.47 687.44 263.49 687.51 263.48 687.57 263.38 687.58 263.27 687.57 263.16 687.58 263.05 687.64 262.99 687.64 262.97 687.6 262.96 687.59 262.92 687.61 262.88 687.67 262.87 687.66 262.82 687.68 262.8 687.7 262.78 687.69 262.76 687.67 262.73 687.64 262.72 687.63 262.7 687.63 262.64 687.63 262.6 687.64 262.57 687.66 262.51 687.7 262.43 687.71 262.39 687.72 262.3 687.8 262.08 687.82 262.05 687.83 262.02 687.83 261.95 687.84 261.92 687.86 261.9 687.93 261.89 687.96 261.88 687.94 261.87 687.92 261.86 687.91 261.84 687.9 261.82 687.92 261.81 687.97 261.78 687.99 261.77 688.02 261.78 688.04 261.79 688.1 261.89 688.13 261.91 688.16 261.92 688.18 261.92 688.27 261.92 688.38 261.88 688.44 261.86 688.46 261.89 688.46 261.93 688.44 261.98 688.41 262.02 688.39 262.04 688.48 262.09 688.6 262.08 688.7 262.1 688.74 262.21 688.7 262.46 688.71 262.58 688.75 262.68 688.87 262.81 688.89 262.86 689.04 262.99 689.06 263 689.08 263 689.1 263 689.11 263.01 689.12 263.03 689.11 263.09 689.12 263.12 689.17 263.16 689.2 263.14 689.21 263.1 689.18 263.05 689.2 263.01 689.24 262.98 689.28 262.98 689.31 263.01 689.32 263.04 689.33 263.16 689.34 263.22 Z" fill-rule="evenodd" id="North Korea" transform="translate(-675.3400268554688,-261.7699890136719) "/></svg>