<svg xmlns="http://www.w3.org/2000/svg" viewBox="0 0 2.1400146484375 14.8699951171875"><path d="M 721.94 335.53 721.92 335.55 721.88 335.57 721.86 335.57 721.84 335.55 721.8 335.54 721.73 335.55 721.7 335.55 721.68 335.53 721.71 335.49 721.77 335.45 721.83 335.43 721.87 335.41 721.98 335.37 722.04 335.37 722.06 335.41 722.05 335.44 722.04 335.46 722.02 335.47 721.99 335.48 721.97 335.48 721.96 335.51 721.94 335.53 Z M 722.85 333.71 722.8 333.74 722.76 333.72 722.75 333.69 722.74 333.62 722.73 333.59 722.7 333.55 722.7 333.54 722.7 333.51 722.72 333.46 722.77 333.4 722.82 333.36 722.85 333.39 722.86 333.42 722.86 333.45 722.85 333.48 722.85 333.51 722.86 333.53 722.89 333.57 722.9 333.59 722.88 333.65 722.85 333.71 Z M 723.16 333.17 723.15 333.19 723.13 333.2 723.11 333.2 723.1 333.18 723.07 333.21 723.05 333.24 723.06 333.27 723.07 333.3 723.09 333.33 723.05 333.33 723.02 333.32 723 333.31 722.96 333.32 722.94 333.32 722.93 333.29 722.93 333.25 722.96 333.17 722.96 333.14 722.96 333.11 722.96 333.09 722.98 333.07 722.99 333.06 723.03 333.04 723.04 333.03 723.04 333.01 723.05 333 723.08 332.98 723.13 332.96 723.16 332.94 723.19 332.93 723.23 332.94 723.24 332.95 723.22 332.98 723.19 333 723.17 333.02 723.14 333.12 723.14 333.14 723.16 333.17 Z M 722.96 330.48 722.9 330.49 722.87 330.49 722.84 330.48 722.82 330.46 722.81 330.43 722.81 330.41 722.83 330.4 722.87 330.39 722.9 330.4 722.96 330.41 722.99 330.42 723.01 330.46 722.99 330.48 722.96 330.48 Z M 723.2 329.68 723.17 329.72 723.12 329.67 723.16 329.66 723.2 329.68 Z M 723.34 328.27 723.31 328.31 723.27 328.27 723.3 328.26 723.34 328.27 Z M 723.34 327.64 723.31 327.66 723.26 327.64 723.25 327.6 723.27 327.57 723.3 327.57 723.33 327.59 723.34 327.62 723.34 327.64 Z M 723.1 326.52 723.07 326.54 723.01 326.54 723 326.48 723.06 326.45 723.08 326.4 723.09 326.29 723.13 326.25 723.22 326.26 723.25 326.27 723.27 326.29 723.28 326.32 723.27 326.36 723.25 326.38 723.22 326.4 723.19 326.42 723.1 326.52 Z M 722.95 324.97 722.92 324.98 722.88 324.98 722.83 324.93 722.82 324.83 722.86 324.78 722.94 324.79 722.97 324.82 722.99 324.85 722.99 324.88 722.99 324.92 722.98 324.95 722.95 324.97 Z M 722.33 322.79 722.32 322.81 722.29 322.8 722.26 322.77 722.26 322.74 722.3 322.73 722.33 322.74 722.34 322.76 722.33 322.79 Z M 721.96 321.92 721.96 321.93 721.98 321.93 722 321.92 722.01 321.92 722.02 321.93 722.02 321.95 722.01 321.96 721.99 321.97 721.97 321.98 721.95 321.97 721.93 321.95 721.92 321.93 721.92 321.91 721.95 321.88 721.96 321.9 721.96 321.92 Z M 721.25 320.77 721.23 320.79 721.21 320.77 721.2 320.73 721.21 320.71 721.24 320.7 721.27 320.71 721.27 320.74 721.25 320.77 Z" fill-rule="evenodd" id="Northern Mariana Islands" transform="translate(-721.2000122070312,-320.70001220703125) "/></svg>