<svg xmlns="http://www.w3.org/2000/svg" viewBox="0 0 17.44000244140625 23.100006103515625"><path d="M 523.89 327.81 523.86 327.83 523.79 327.83 523.77 327.84 523.77 327.84 523.76 327.82 523.76 327.81 523.76 327.81 523.77 327.79 523.8 327.78 523.83 327.77 523.87 327.8 523.89 327.81 523.89 327.81 Z M 524.24 327.83 524.2 327.84 524.1 327.83 524.07 327.82 524.05 327.77 524.11 327.74 524.2 327.71 524.26 327.68 524.26 327.68 524.26 327.71 524.26 327.71 524.28 327.74 524.31 327.76 524.35 327.77 524.27 327.82 524.24 327.83 Z M 530.01 321.6 530.01 321.6 530 321.58 529.99 321.56 529.98 321.49 529.98 321.42 529.98 321.38 529.98 321.38 529.98 321.37 529.98 321.35 529.99 321.17 530 321.14 530.03 321.1 530.04 321.09 530.08 321.06 530.1 321.06 530.1 321.05 530.1 321.05 530.11 321 530.12 320.99 530.16 320.98 530.19 320.97 530.23 320.97 530.27 320.94 530.29 320.92 530.3 320.91 530.31 320.88 530.31 320.87 530.32 320.78 530.33 320.74 530.35 320.7 530.46 320.56 530.5 320.48 530.52 320.4 530.54 320.37 530.58 320.36 530.6 320.4 530.6 320.4 530.6 320.44 530.58 320.48 530.58 320.53 530.58 320.58 530.59 320.62 530.66 320.75 530.68 320.78 530.68 320.78 530.67 320.81 530.65 320.83 530.57 320.89 530.48 320.94 530.44 320.98 530.38 321.06 530.36 321.11 530.33 321.22 530.31 321.26 530.31 321.26 530.31 321.29 530.31 321.29 530.32 321.31 530.32 321.33 530.31 321.35 530.23 321.42 530.19 321.48 530.17 321.5 530.15 321.5 530.12 321.51 530.1 321.51 530.09 321.53 530.08 321.55 530.06 321.58 530.04 321.6 530.01 321.6 Z M 517.68 329.79 517.55 329.48 517.41 329.17 517.27 328.86 517.13 328.55 517.04 328.35 517.02 328.32 516.98 328.31 516.9 328.3 516.87 328.28 516.87 328.28 516.88 328.28 516.89 328.28 516.81 328.11 516.72 327.89 516.63 327.67 516.53 327.44 516.44 327.22 516.34 327 516.25 326.77 516.15 326.55 516.06 326.33 515.96 326.1 515.87 325.88 515.77 325.66 515.68 325.43 515.58 325.21 515.49 324.98 515.39 324.76 515.3 324.53 515.23 324.39 515.22 324.35 515.47 324.26 515.85 324.13 516.22 324 516.6 323.86 516.98 323.73 517.36 323.6 517.74 323.46 518.12 323.33 518.5 323.2 518.88 323.06 519.26 322.93 519.64 322.8 520.02 322.66 520.4 322.53 520.78 322.4 521.16 322.26 521.54 322.13 521.87 322.01 521.94 321.79 521.95 321.74 522 321.61 522.06 321.41 522.14 321.14 522.24 320.83 522.35 320.48 522.47 320.1 522.59 319.72 522.68 319.42 522.71 319.33 522.83 318.95 522.94 318.6 523.03 318.29 523.12 318.02 523.18 317.82 523.22 317.68 523.24 317.64 523.25 317.6 523.33 317.33 523.33 317.28 523.31 317.23 523.19 317.03 523.01 316.73 522.83 316.44 522.65 316.14 522.47 315.84 522.33 315.61 522.35 315.26 522.34 314.91 522.34 314.91 522.35 314.84 522.42 314.61 522.63 314.24 522.68 314.09 522.72 313.85 522.75 313.77 522.79 313.71 522.79 313.71 522.87 313.62 522.9 313.57 522.98 313.28 523 313.23 523.1 313.08 523.11 313.05 523.1 312.87 523.09 312.8 523.06 312.75 522.98 312.7 522.94 312.66 522.92 312.62 522.93 312.58 523.02 312.57 523.12 312.53 523.16 312.51 523.23 312.47 523.29 312.45 523.35 312.44 523.42 312.44 523.5 312.45 523.53 312.45 523.57 312.43 523.61 312.43 523.66 312.47 523.71 312.48 523.96 312.37 524.1 312.34 524.13 312.3 524.05 312.15 524.02 312.05 523.99 311.96 523.92 311.94 523.79 311.99 523.76 311.98 523.62 311.95 523.59 311.94 523.59 311.9 523.61 311.86 523.69 311.71 523.71 311.67 523.71 311.56 523.71 311.54 523.69 311.51 523.65 311.48 523.63 311.47 523.63 311.43 523.63 311.3 523.63 311.3 523.6 311.2 523.6 311.15 523.62 311.11 523.65 311.08 523.67 311 523.73 310.94 523.72 310.89 523.69 310.82 523.68 310.79 523.67 310.75 523.68 310.66 523.68 310.61 523.66 310.43 523.69 310.35 523.76 310.27 523.82 310.21 523.83 310.2 523.91 310.15 523.99 310.13 524.08 310.14 524.09 310.14 524.15 310.18 524.17 310.25 524.19 310.36 524.2 310.41 524.15 310.37 524.12 310.36 524.09 310.35 524.05 310.36 524.04 310.39 524.06 310.43 524.14 310.5 524.2 310.67 524.27 310.73 524.3 310.73 524.31 310.73 524.35 310.73 524.4 310.72 524.42 310.69 524.43 310.65 524.48 310.59 524.51 310.5 524.51 310.5 524.55 310.49 524.63 310.48 524.67 310.46 524.74 310.39 524.75 310.37 524.82 310.33 524.83 310.31 524.83 310.29 524.83 310.24 524.84 310.17 524.85 310.15 524.86 310.14 524.98 310.13 525.03 310.32 525.17 310.62 525.2 310.64 525.21 310.7 525.23 310.8 525.49 311.3 525.54 311.36 525.67 311.47 525.91 311.76 525.96 311.84 525.98 311.89 526 311.96 526.22 312.22 526.48 312.44 526.69 312.61 526.76 312.65 527.07 312.78 527.48 312.88 527.65 312.96 527.78 313 527.87 313.02 527.92 313.02 528.07 313.01 528.11 313.02 528.18 313.1 528.2 313.12 528.25 313.14 528.32 313.17 528.37 313.18 528.66 313.16 528.76 313.17 528.86 313.19 528.99 313.24 529.03 313.25 529.07 313.27 529.15 313.35 529.19 313.38 529.27 313.41 529.37 313.42 529.48 313.42 529.57 313.4 529.62 313.38 529.64 313.37 529.65 313.32 529.67 313.32 529.72 313.33 529.81 313.34 529.86 313.35 529.91 313.37 529.93 313.4 529.97 313.49 529.99 313.51 530 313.52 530.01 313.53 530.02 313.54 530.03 313.55 530.03 313.55 530.04 313.55 530.06 313.55 530.07 313.55 530.11 313.58 530.12 313.6 530.13 313.61 530.15 313.61 530.16 313.58 530.17 313.59 530.17 313.6 530.18 313.61 530.18 313.63 530.2 313.63 530.2 313.62 530.21 313.6 530.22 313.61 530.23 313.61 530.26 313.6 530.31 313.67 530.32 313.71 530.32 313.75 530.33 313.78 530.36 313.89 530.39 313.94 530.52 314.06 530.6 314.09 530.63 314.14 530.66 314.24 530.69 314.28 530.75 314.34 530.79 314.39 530.81 314.53 530.95 314.67 530.96 314.69 530.97 314.77 530.98 314.78 530.99 314.79 531.05 314.84 531.17 314.91 531.24 314.97 531.3 315.03 531.34 315.11 531.42 315.31 531.43 315.35 531.44 315.39 531.48 315.43 531.56 315.47 531.65 315.61 531.66 315.65 531.69 315.69 531.79 315.77 531.86 315.81 531.91 315.85 531.96 315.88 531.97 315.89 531.97 315.92 531.96 315.93 531.94 315.92 531.93 315.91 531.93 315.95 531.94 315.96 531.97 315.96 532 315.96 532.17 315.9 532.23 315.93 532.32 315.99 532.33 316 532.37 315.99 532.38 315.99 532.39 316 532.39 316.03 532.4 316.04 532.4 316.05 532.4 316.06 532.4 316.07 532.41 316.09 532.42 316.1 532.44 316.1 532.45 316.11 532.47 316.11 532.47 316.1 532.46 316.07 532.43 316.03 532.44 316 532.46 316 532.5 315.99 532.56 316.01 532.61 316.07 532.64 316.15 532.66 316.22 532.61 316.61 532.58 316.72 532.54 316.81 532.41 316.99 532.35 317.05 532.31 317.09 532.29 317.13 532.29 317.18 532.25 317.3 532.24 317.41 532.21 317.46 532.13 317.5 532.1 317.54 532.06 317.62 531.89 317.86 531.82 318.07 531.78 318.17 531.57 318.5 531.55 318.58 531.55 318.6 531.53 318.62 531.22 318.75 531.15 318.79 530.9 319 530.6 319.31 530.51 319.45 530.49 319.47 530.46 319.5 530.43 319.55 530.36 319.67 530.35 319.69 530.34 319.78 530.34 319.8 530.32 319.82 530.2 319.93 530.2 319.98 530.17 320.01 530.07 320.06 530.08 320.06 530.06 320.1 530.06 320.1 530.04 320.12 530.03 320.13 530.03 320.14 530.03 320.17 530.05 320.19 530.07 320.21 530.09 320.22 530.12 320.2 530.16 320.17 530.18 320.15 530.18 320.2 530.16 320.23 530.12 320.26 530.08 320.27 530.06 320.25 530.04 320.25 530.03 320.28 530.01 320.35 530 320.38 529.98 320.39 529.93 320.42 529.91 320.44 529.88 320.49 529.85 320.55 529.84 320.61 529.83 320.68 529.78 320.79 529.74 320.87 529.75 320.91 529.73 320.93 529.72 321.01 529.72 321.02 529.7 321.03 529.67 321.04 529.64 321.05 529.62 321.07 529.6 321.13 529.55 321.16 529.49 321.16 529.43 321.14 529.39 321.12 529.36 321.11 529.29 321.1 529.26 321.11 529.21 321.13 529.18 321.14 529.18 321.12 529.2 321.11 529.19 321.1 529.11 321.08 529.06 321.07 529.02 321.05 529.01 321.01 529.04 320.91 529.04 320.94 529.05 320.97 529.06 320.99 529.09 321.01 529.1 320.96 529.07 320.85 529.09 320.81 529.12 320.76 529.15 320.69 529.15 320.62 529.13 320.57 529.09 320.56 529.02 320.56 528.96 320.58 528.89 320.63 528.8 320.65 528.77 320.67 528.75 320.69 528.72 320.8 528.71 320.83 528.73 320.85 528.73 320.87 528.72 320.89 528.69 320.9 528.63 320.92 528.59 320.94 528.55 320.96 528.5 321.01 528.48 321.04 528.47 321.06 528.46 321.1 528.47 321.12 528.5 321.15 528.51 321.18 528.49 321.23 528.45 321.26 528.36 321.3 528.32 321.32 528.28 321.35 528.25 321.39 528.23 321.43 528.22 321.46 528.2 321.49 528.18 321.53 528.17 321.59 528.22 321.68 528.23 321.74 528.19 321.83 528.16 321.95 528.16 321.99 528.15 322.06 528.1 322.18 528.07 322.31 528.04 322.37 527.9 322.58 527.88 322.64 527.89 322.71 527.9 322.74 527.92 322.76 527.94 322.78 527.95 322.81 527.95 322.89 527.94 322.92 527.93 322.95 527.92 323.01 527.91 323.06 527.93 323.1 528.04 323.28 528.05 323.32 528.07 323.38 528.07 323.45 528.05 323.5 528.02 323.61 528.01 323.66 528.01 323.71 528.06 323.83 528.08 323.87 528.14 323.94 528.15 323.97 528.13 324.07 528.13 324.12 528.21 324.27 528.21 324.3 528.16 324.36 528.13 324.38 528.12 324.39 528.02 324.4 528.01 324.41 528 324.43 527.97 324.45 527.94 324.46 527.92 324.47 527.46 324.45 527.34 324.47 526.81 324.55 526.54 324.63 526.16 324.78 526.02 324.88 525.92 324.93 525.87 324.97 525.85 325.02 525.83 325.04 525.6 325.28 525.55 325.36 525.55 325.47 525.56 325.55 525.56 325.58 525.55 325.61 525.52 325.65 525.51 325.69 525.49 325.73 525.48 325.76 525.48 325.86 525.46 325.95 525.35 326.22 525.38 326.27 525.38 326.32 525.35 326.36 525.3 326.4 525.21 326.44 525.16 326.47 525.09 326.59 525.08 326.6 525.05 326.61 525.03 326.62 524.93 326.73 524.92 326.75 524.92 326.8 524.9 326.8 524.55 326.76 524.51 326.77 524.44 326.8 524.39 326.81 524.2 326.79 524.16 326.8 524.01 326.86 523.93 326.88 523.37 326.9 523.14 326.96 523.09 326.97 523.07 326.97 523.06 326.98 523.05 326.99 523.04 327 523 327 523 327 522.92 327.02 522.9 327.03 522.87 327.07 522.84 327.16 522.82 327.2 522.79 327.23 522.78 327.25 522.74 327.35 522.74 327.36 522.71 327.4 522.5 327.57 522.44 327.68 522.42 327.73 522.42 327.78 522.43 327.84 522.45 327.87 522.52 327.92 522.57 327.96 522.58 328.01 522.58 328.11 522.57 328.16 522.48 328.28 522.47 328.3 522.47 328.33 522.47 328.36 522.49 328.37 522.5 328.38 522.5 328.4 522.49 328.43 522.48 328.44 522.42 328.47 522.4 328.49 522.39 328.5 522.38 328.52 522.37 328.56 522.35 328.6 522.36 328.61 522.34 328.64 522.27 328.66 522.23 328.68 522.22 328.7 522.21 328.73 522.19 328.76 522.17 328.77 522.08 328.87 521.98 328.94 521.96 328.94 521.94 328.91 521.91 328.92 521.89 328.96 521.86 328.98 521.83 328.98 521.79 328.99 521.76 329 521.73 328.99 521.7 329.03 521.66 329.04 521.57 329.05 521.49 329.08 521.46 329.08 521.43 329.05 521.4 329.07 521.36 329.06 521.34 329.07 521.26 329.02 521.25 329.04 521.23 328.99 521.22 328.95 521.19 328.92 521.1 328.91 521.04 328.89 521.01 328.88 520.99 328.88 520.94 328.89 520.91 328.9 520.84 328.88 520.81 328.88 520.78 328.89 520.74 328.91 520.72 328.91 520.62 328.88 520.56 328.88 520.52 328.91 520.5 328.9 520.48 328.9 520.06 328.94 519.89 328.94 519.85 328.95 519.75 329 519.73 329.02 519.72 329.04 519.72 329.06 519.73 329.08 519.73 329.09 519.72 329.11 519.69 329.14 519.68 329.16 519.66 329.18 519.6 329.19 519.5 329.2 519.37 329.22 519.32 329.23 519.28 329.24 519.24 329.27 519.19 329.29 519.15 329.27 519.11 329.3 519.06 329.35 519.01 329.4 518.99 329.44 518.97 329.47 518.93 329.49 518.85 329.53 518.78 329.55 518.42 329.55 518.23 329.58 517.87 329.7 517.68 329.79 Z M 524.71 309.27 524.78 309.28 524.82 309.34 524.91 309.36 524.9 309.43 524.83 309.46 524.78 309.48 524.76 309.5 524.69 309.54 524.66 309.56 524.62 309.55 524.59 309.54 524.59 309.51 524.6 309.45 524.65 309.42 524.68 309.4 524.66 309.38 524.66 309.35 524.65 309.31 524.71 309.27 Z M 524.76 309.45 524.77 309.41 524.74 309.39 524.72 309.39 524.71 309.4 524.72 309.47 524.76 309.45 Z M 524.75 308.54 524.66 308.57 524.62 308.58 524.59 308.57 524.57 308.55 524.55 308.5 524.53 308.48 524.48 308.48 524.47 308.47 524.47 308.47 524.46 308.44 524.44 308.33 524.45 308.29 524.47 308.26 524.5 308.24 524.51 308.21 524.5 308.18 524.45 308.11 524.44 308.07 524.45 308.03 524.5 307.97 524.51 307.93 524.52 307.71 524.54 307.64 524.54 307.6 524.53 307.55 524.49 307.45 524.47 307.45 524.36 307.48 524.3 307.48 524.3 307.48 524.31 307.48 524.32 307.46 524.34 307.37 524.48 307.14 524.54 307.03 524.56 307.01 524.6 306.99 524.6 307 524.6 307.03 524.62 307.07 524.61 307.09 524.6 307.12 524.62 307.12 524.64 307.1 524.7 307.1 524.71 307.08 524.72 307.07 524.75 307.09 524.78 307.11 524.79 307.16 524.8 307.13 524.82 307.13 524.84 307.14 524.86 307.14 524.92 307.1 524.95 307.09 525.01 307.11 525.03 307.11 525.04 307.09 525.03 307.06 525.01 307.05 524.99 307.04 524.95 307.03 524.92 307.04 524.9 307.05 524.89 307.06 524.87 307.08 524.84 307.1 524.82 307.09 524.82 307.06 524.83 306.96 524.83 306.92 524.9 306.97 524.93 306.98 524.94 306.95 524.93 306.93 524.9 306.9 524.87 306.88 524.85 306.87 524.86 306.85 524.87 306.85 524.88 306.85 524.9 306.84 524.92 306.8 524.94 306.77 524.93 306.72 524.94 306.69 524.95 306.69 524.98 306.75 525.02 306.73 525.03 306.72 525.05 306.74 525.04 306.76 525.03 306.76 525.04 306.77 525.05 306.79 525.07 306.77 525.08 306.77 525.09 306.79 525.11 306.8 525.16 306.82 525.18 306.82 525.21 306.82 525.21 306.81 525.2 306.78 525.2 306.77 525.24 306.75 525.27 306.81 525.26 306.84 525.23 306.84 525.17 306.84 525.14 306.85 525.07 306.91 525.03 306.93 525.04 306.93 525.04 306.95 525.02 306.97 525.07 307.03 525.09 307.05 525.12 307.06 525.14 307.05 525.16 307.03 525.19 307.02 525.21 307.06 525.17 307.13 525.15 307.14 525.14 307.09 525.12 307.09 525.09 307.09 525.1 307.11 525.1 307.13 525.1 307.14 525.09 307.16 525.12 307.19 525.15 307.21 525.18 307.23 525.2 307.28 525.17 307.27 525.15 307.27 525.13 307.26 525.11 307.24 525.07 307.26 525.05 307.24 525.03 307.21 525.03 307.17 525.02 307.18 524.98 307.2 524.97 307.21 524.97 307.18 524.97 307.16 524.98 307.15 525 307.14 524.95 307.13 524.9 307.16 524.86 307.21 524.88 307.24 524.87 307.27 524.86 307.3 524.87 307.33 524.88 307.36 524.9 307.31 524.92 307.28 524.94 307.28 524.95 307.29 524.96 307.32 524.95 307.35 524.94 307.38 524.98 307.39 525.18 307.39 525.16 307.42 525.13 307.45 525.06 307.49 525 307.52 524.98 307.54 524.98 307.58 525.04 307.55 525.07 307.58 525.07 307.62 525.02 307.66 525.03 307.68 525.06 307.72 525.07 307.74 525.09 307.75 525.14 307.76 525.12 307.77 525.11 307.78 525.11 307.81 525.07 307.8 525.04 307.79 525.01 307.79 524.98 307.81 525.02 307.87 525 307.93 524.97 307.98 524.94 308.03 524.94 308.05 524.94 308.11 524.9 308.15 524.86 308.21 524.83 308.25 524.8 308.27 524.8 308.21 524.77 308.27 524.74 308.35 524.72 308.43 524.74 308.52 524.75 308.54 Z" fill-rule="evenodd" id="Oman" transform="translate(-515.219970703125,-306.69000244140625) "/></svg>