<svg xmlns="http://www.w3.org/2000/svg" viewBox="0 0 35.91998291015625 34.27001953125"><path d="M 549.58 312.37 549.59 312.38 549.59 312.38 549.55 312.4 549.54 312.43 549.52 312.46 549.46 312.48 549.42 312.46 549.39 312.43 549.37 312.4 549.36 312.38 549.35 312.34 549.38 312.38 549.43 312.38 549.53 312.34 549.58 312.37 Z M 570.19 282.82 570.49 283.54 570.79 284.27 570.78 284.28 570.73 284.33 570.74 284.4 570.76 284.47 570.75 284.56 570.71 284.6 570.58 284.71 570.54 284.76 570.51 284.78 570.47 284.77 570.42 284.73 570.36 284.72 570.28 284.72 570.2 284.75 570.15 284.79 570.13 284.85 570.14 285 570.12 285.05 569.91 285.24 569.88 285.26 569.69 285.3 569.65 285.3 569.62 285.29 569.52 285.22 569.44 285.2 569.35 285.23 569.05 285.41 568.81 285.47 568.74 285.48 568.6 285.42 568.52 285.43 568.48 285.46 568.44 285.54 568.41 285.58 568.39 285.59 568.33 285.61 568.19 285.72 568.06 285.85 568.01 285.89 567.97 285.9 567.88 285.88 567.83 285.88 567.7 285.91 567.61 285.91 567.02 285.75 566.93 285.71 566.84 285.64 566.81 285.6 566.78 285.55 566.75 285.54 566.75 285.54 566.72 285.52 566.64 285.52 566.5 285.55 566.29 285.56 565.51 285.4 564.95 285.2 564.81 285.17 564.67 285.19 564.52 285.24 564.36 285.37 564.3 285.4 563.95 285.46 563.92 285.47 563.85 285.52 563.85 285.59 563.87 285.66 563.87 285.73 563.84 285.79 563.73 285.86 563.69 285.92 563.69 285.92 563.69 286.02 563.68 286.06 563.66 286.08 563.61 286.11 563.58 286.12 563.55 286.18 563.53 286.25 563.55 286.32 563.6 286.37 563.65 286.4 563.71 286.42 563.77 286.43 563.83 286.42 563.9 286.43 563.93 286.48 563.98 286.61 564.01 286.66 564.03 286.72 564.02 286.77 563.98 286.81 563.85 286.88 563.8 286.94 563.78 287.02 563.8 287.1 563.85 287.17 563.91 287.21 563.98 287.23 564.13 287.19 564.18 287.19 564.3 287.23 564.38 287.23 564.46 287.21 564.54 287.21 564.61 287.26 564.64 287.34 564.62 287.43 564.56 287.5 564.5 287.56 564.43 287.62 564.35 287.65 564.11 287.7 564.06 287.74 563.98 287.88 563.97 287.91 563.96 287.95 563.95 287.98 563.95 288.06 563.95 288.1 563.96 288.14 563.98 288.17 564.09 288.26 564.23 288.34 564.35 288.44 564.38 288.58 564.34 288.78 564.27 288.98 564.25 289.02 564.22 289.06 564.19 289.09 564.16 289.12 564.07 289.15 564.04 289.17 564.02 289.22 564.01 289.34 564.04 289.42 564.1 289.48 564.18 289.54 564.25 289.61 564.37 289.78 564.46 289.83 564.66 289.86 564.72 289.9 564.75 289.96 564.75 290.09 564.78 290.23 564.77 290.28 564.75 290.33 564.74 290.35 564.73 290.35 564.71 290.38 564.73 290.43 564.76 290.47 564.8 290.5 564.85 290.51 564.89 290.5 564.96 290.45 565.01 290.45 565.04 290.47 565.11 290.53 565.14 290.55 565.19 290.55 565.31 290.54 565.35 290.52 565.39 290.49 565.41 290.45 565.42 290.4 565.44 290.35 565.48 290.31 565.52 290.3 565.55 290.33 565.56 290.39 565.55 290.44 565.49 290.55 565.47 290.61 565.47 290.67 565.49 290.78 565.49 290.83 565.47 290.87 565.45 290.92 565.43 290.97 565.44 291.02 565.5 291.2 565.56 291.27 565.64 291.3 565.73 291.29 565.81 291.27 565.89 291.26 566.04 291.34 566.14 291.33 566.23 291.29 566.3 291.28 566.37 291.31 566.45 291.38 566.53 291.43 566.68 291.46 566.76 291.51 566.91 291.63 566.97 291.69 567.03 291.76 567.05 291.82 567.02 291.87 566.95 291.95 566.93 292 566.91 292.08 566.9 292.11 566.83 292.11 566.8 292.11 566.75 292.13 566.68 292.17 566.63 292.21 566.64 292.27 566.61 292.27 566.56 292.26 566.54 292.27 566.51 292.29 566.49 292.3 566.48 292.3 566.34 292.25 566.3 292.25 566.32 292.33 566.29 292.33 566.24 292.32 566.22 292.34 566.2 292.36 566.19 292.38 566.18 292.4 566.15 292.42 566.1 292.42 566.05 292.42 566 292.42 565.97 292.47 565.87 292.43 565.83 292.49 565.81 292.58 565.77 292.65 565.72 292.66 565.58 292.63 565.52 292.75 565.49 292.77 565.45 292.78 565.29 292.91 565.25 292.95 565.23 292.99 565.22 293.05 565.22 293.08 565.22 293.09 565.21 293.1 565.19 293.13 565.19 293.14 565.18 293.17 565.18 293.18 565.17 293.19 565.15 293.2 565.15 293.2 565.13 293.24 565.12 293.25 565.14 293.28 565.26 293.51 565.33 293.75 565.4 293.85 565.4 293.9 565.39 293.95 565.36 293.99 565.33 294.04 565.3 294.08 565.21 294.3 565.2 294.36 565.2 294.48 565.16 294.58 565.16 294.63 565.16 294.68 565.17 294.72 565.19 294.75 565.22 294.79 565.26 294.81 565.36 294.79 565.4 294.79 565.43 294.81 565.47 294.85 565.49 294.87 565.37 294.94 565.32 294.98 565.28 295.02 565.28 295.07 565.25 295.11 565.22 295.15 565.18 295.18 565.14 295.2 565.09 295.2 565.05 295.21 565.01 295.22 564.97 295.26 564.95 295.3 564.94 295.34 564.92 295.36 564.87 295.36 564.82 295.34 564.79 295.34 564.76 295.34 564.74 295.36 564.72 295.38 564.71 295.41 564.72 295.46 564.7 295.5 564.65 295.54 564.61 295.55 564.6 295.56 564.62 295.61 564.62 295.63 564.61 295.65 564.57 295.67 564.56 295.69 564.51 295.76 564.47 295.79 564.46 295.81 564.44 295.86 564.41 295.89 564.4 295.91 564.4 295.95 564.38 295.96 564.33 295.97 564.28 295.99 564.25 296.02 564.22 296.05 564.18 296.09 564.16 296.13 564.16 296.18 564.17 296.23 564.16 296.29 564.13 296.32 564.04 296.35 564.02 296.37 564.01 296.4 563.9 296.56 563.88 296.58 563.85 296.58 563.81 296.57 563.82 296.58 563.82 296.62 563.83 296.64 563.78 296.63 563.74 296.66 563.7 296.69 563.69 296.73 563.68 296.74 563.79 296.8 563.84 296.87 563.89 296.98 563.92 297.09 563.92 297.12 563.91 297.16 563.54 297.47 563.46 297.52 563.05 297.61 562.67 297.79 562.64 297.83 562.54 298.14 562.45 298.45 562.33 298.82 562.21 299.06 562.1 299.27 561.93 299.6 561.79 299.79 561.73 299.88 561.66 300.06 561.64 300.09 561.6 300.12 561.31 300.27 561.06 300.4 560.77 300.56 560.45 300.72 560.39 300.76 560.22 300.96 560.17 301.07 560.04 301.57 559.99 301.69 559.93 301.8 559.85 301.89 559.57 302.12 559.4 302.35 559.37 302.4 559.36 302.44 559.33 302.75 559.32 302.79 559.29 302.81 558.94 302.92 558.63 303.01 558.44 303.03 558.27 303.01 558.07 303.03 557.89 303.07 557.72 303.13 557.44 303.26 557.19 303.39 557.01 303.43 556.86 303.41 556.74 303.33 556.66 303.21 556.59 303.05 556.58 303 556.59 302.91 556.57 302.86 556.54 302.83 556.48 302.77 556.41 302.69 556.35 302.65 556.29 302.61 556.22 302.59 556.18 302.59 556.14 302.6 556.05 302.63 555.96 302.64 555.92 302.66 555.88 302.68 555.76 302.82 555.61 302.93 555.59 302.96 555.39 303.16 555.37 303.2 555.2 303.68 555.15 303.75 554.96 303.94 554.83 304.15 554.57 304.4 554.43 304.5 554.23 304.7 554.13 304.86 554.08 305.05 554.03 305.35 553.98 305.65 554 305.75 554.07 305.82 554.41 305.97 554.5 306.03 554.66 306.17 554.76 306.21 555.29 306.18 555.37 306.21 555.45 306.25 555.52 306.33 555.53 306.42 555.51 306.62 555.52 306.72 555.52 306.76 555.49 306.81 555.48 306.86 555.49 306.91 555.5 307.01 555.49 307.1 555.46 307.19 555.34 307.39 555.33 307.43 555.33 307.52 555.31 307.64 555.31 307.68 555.35 307.8 555.42 307.92 555.51 308.03 555.6 308.11 555.64 308.16 555.69 308.29 555.72 308.35 555.75 308.37 555.84 308.41 555.97 308.43 556.22 308.43 556.31 308.41 556.4 308.37 556.48 308.35 556.57 308.36 556.62 308.43 556.62 308.53 556.61 308.74 556.6 309.02 556.62 309.11 556.65 309.16 556.74 309.26 556.76 309.32 556.77 309.38 556.8 309.42 556.87 309.51 557.01 309.63 557.05 309.68 557.07 309.74 557.15 310.07 557.2 310.2 557.26 310.33 557.39 310.54 557.47 310.75 557.51 310.82 557.52 310.85 557.48 310.88 557.33 310.95 557.3 311.01 557.28 311.08 557.29 311.15 557.33 311.19 557.34 311.2 557.34 311.22 557.34 311.23 557.33 311.25 557.33 311.3 557.32 311.32 557.32 311.34 557.33 311.35 557.33 311.37 557.38 311.4 557.47 311.42 557.55 311.44 557.57 311.5 557.55 311.52 557.44 311.56 557.42 311.59 557.4 311.62 557.38 311.63 557.33 311.63 557.28 311.61 557.24 311.61 557.2 311.62 557.07 311.71 557.03 311.76 557.04 311.8 557.07 311.84 557.05 311.86 557.02 311.86 556.97 311.88 556.89 311.92 556.84 311.94 556.54 311.91 556.46 311.87 556.42 311.84 556.41 311.8 556.4 311.71 556.38 311.62 556.38 311.59 556.39 311.58 556.43 311.55 556.44 311.53 556.41 311.47 556.32 311.47 556.09 311.52 555.99 311.6 555.95 311.61 555.83 311.62 555.79 311.64 555.7 311.7 555.66 311.71 555.61 311.71 555.49 311.75 555.41 311.76 555.38 311.77 555.36 311.81 555.31 311.96 555.28 312.01 555.2 312.08 555.1 312.1 554.65 312.1 554.53 312.09 554.44 312.04 554.26 311.86 554.2 311.83 553.57 311.81 553.41 311.87 553.32 311.88 553.28 311.88 553.15 311.82 553.1 311.8 553.06 311.81 552.97 311.86 552.91 311.88 552.87 311.87 552.84 311.84 552.79 311.77 552.78 311.75 552.76 311.73 552.74 311.72 552.71 311.72 552.7 311.74 552.69 311.76 552.68 311.78 552.62 311.91 552.59 311.92 552.55 311.89 552.54 311.75 552.5 311.7 552.39 311.7 552.34 311.8 552.34 311.99 552.34 312.24 552.34 312.58 552.17 312.58 551.95 312.58 551.69 312.57 551.59 312.59 551.52 312.64 551.52 312.62 551.51 312.6 551.51 312.58 551.49 312.57 551.47 312.58 551.46 312.6 551.47 312.62 551.48 312.64 551.46 312.67 551.43 312.7 551.4 312.71 551.37 312.7 551.35 312.67 551.35 312.66 551.34 312.65 551.32 312.65 551.3 312.67 551.29 312.69 551.29 312.71 551.29 312.73 551.3 312.73 551.31 312.74 551.31 312.75 551.3 312.76 551.29 312.76 551.27 312.75 551.27 312.75 551.25 312.76 551.21 312.78 551.19 312.79 551.14 312.87 551.14 312.88 551.14 312.87 551.08 312.72 551.08 312.8 551.08 312.82 551.09 312.84 551.11 312.87 551.11 312.88 551.1 312.93 551.06 313.02 551.05 313.07 551.05 313.11 551.08 313.18 551.08 313.23 551.06 313.23 551.02 313.2 550.96 313.14 550.95 313.2 550.91 313.2 550.87 313.16 550.85 313.11 550.86 313.1 550.89 313.07 550.9 313.06 550.9 313.02 550.9 313.01 550.91 312.96 550.93 312.95 550.96 312.95 550.96 312.94 550.93 312.91 550.89 312.88 550.87 312.83 550.85 312.77 550.87 312.71 550.87 312.68 550.84 312.69 550.79 312.65 550.76 312.64 550.83 312.85 550.85 312.91 550.81 313 550.79 313.04 550.76 313.05 550.75 313.04 550.74 313.01 550.73 312.98 550.73 312.96 550.72 312.95 550.7 312.95 550.67 312.97 550.67 312.97 550.65 312.97 550.62 312.96 550.6 312.94 550.6 312.91 550.59 312.9 550.57 312.9 550.55 312.9 550.53 312.89 550.52 312.87 550.52 312.83 550.51 312.81 550.49 312.81 550.48 312.82 550.44 312.86 550.43 312.82 550.43 312.73 550.41 312.71 550.4 312.76 550.38 312.92 550.36 312.95 550.3 312.95 550.23 312.93 550.11 312.87 550.14 312.89 550.16 312.92 550.17 312.96 550.14 312.99 550.1 313 550.05 312.99 549.97 312.97 549.95 312.97 549.93 312.97 549.92 312.97 549.91 312.95 549.91 312.92 549.92 312.9 549.93 312.88 549.94 312.86 549.96 312.72 549.97 312.69 549.97 312.68 549.96 312.68 549.96 312.67 549.96 312.67 549.96 312.66 549.93 312.7 549.93 312.8 549.91 312.84 549.88 312.86 549.85 312.85 549.82 312.82 549.82 312.77 549.79 312.8 549.77 312.79 549.75 312.76 549.73 312.74 549.7 312.74 549.69 312.76 549.7 312.78 549.73 312.81 549.61 312.78 549.58 312.76 549.6 312.75 549.61 312.76 549.63 312.75 549.65 312.74 549.67 312.72 549.7 312.67 549.71 312.64 549.69 312.65 549.67 312.67 549.65 312.68 549.62 312.68 549.62 312.65 549.62 312.61 549.64 312.56 549.54 312.54 549.52 312.53 549.55 312.44 549.58 312.42 549.61 312.43 549.67 312.39 549.69 312.36 549.7 312.33 549.65 312.37 549.6 312.37 549.55 312.34 549.49 312.33 549.37 312.33 549.3 312.32 549.27 312.29 549.26 312.21 549.24 312.15 549.18 312.05 549.17 312.01 549.17 311.98 549.16 311.86 549.16 311.84 549.14 311.82 549.15 311.8 549.16 311.77 549.17 311.76 549.15 311.7 549.19 311.67 549.26 311.66 549.32 311.67 549.28 311.64 549.24 311.63 549.14 311.63 549.12 311.6 549.12 311.54 549.15 311.43 549.14 311.45 549.12 311.46 549.09 311.48 549.09 311.42 549.06 311.37 549.03 311.31 548.98 311.27 549.03 311.23 549.02 311.21 548.97 311.2 548.95 311.17 548.93 311.14 548.93 311.1 548.92 311.07 548.96 311.08 549 311.09 549.04 311.08 549.08 311.07 549.01 311.03 548.98 311.01 548.94 311 548.9 311.01 548.87 311.02 548.85 311.01 548.85 310.96 548.86 310.89 548.91 310.83 548.96 310.78 549.01 310.74 549.08 310.7 549.08 310.69 549.06 310.65 549.03 310.63 549.01 310.63 548.99 310.65 548.91 310.66 548.89 310.66 548.88 310.61 548.86 310.58 548.85 310.56 548.83 310.55 548.79 310.56 548.76 310.57 548.74 310.57 548.7 310.55 548.68 310.57 548.7 310.62 548.66 310.6 548.57 310.54 548.53 310.53 548.49 310.51 548.46 310.48 548.44 310.45 548.42 310.45 548.42 310.5 548.43 310.52 548.44 310.54 548.39 310.53 548.34 310.5 548.3 310.46 548.26 310.44 548.19 310.43 548.13 310.45 548.08 310.46 548.03 310.44 548.01 310.45 547.89 310.46 547.83 310.48 547.81 310.49 547.75 310.46 547.76 310.42 547.8 310.37 547.86 310.34 547.86 310.32 547.81 310.29 547.81 310.2 547.85 310.01 547.85 309.87 547.86 309.82 547.88 309.78 547.92 309.73 547.94 309.69 547.93 309.63 547.9 309.56 547.89 309.51 547.87 309.49 547.79 309.42 547.76 309.4 547.74 309.39 547.62 309.27 547.54 309.22 547.51 309.18 547.53 309.14 547.58 309.15 547.61 309.1 547.6 309.04 547.55 309 547.52 308.96 547.5 308.88 547.48 308.81 547.44 308.84 547.43 308.82 547.42 308.81 547.42 308.8 547.39 308.81 547.38 308.79 547.37 308.76 547.36 308.74 547.28 308.65 547.27 308.62 547.21 308.64 547.16 308.63 547.13 308.6 547.13 308.55 547.1 308.58 547.05 308.59 546.97 308.6 546.95 308.6 546.9 308.58 546.87 308.58 546.86 308.59 546.85 308.6 546.83 308.61 546.75 308.63 546.71 308.66 546.67 308.69 546.65 308.74 546.6 308.82 546.59 308.84 546.57 308.85 546.54 308.87 546.52 308.89 546.51 308.92 546.57 308.92 546.74 308.89 546.77 308.88 546.8 308.86 546.83 308.82 546.84 308.81 546.84 308.81 546.85 308.8 546.87 308.8 546.87 308.8 546.87 308.78 546.87 308.76 546.87 308.75 546.92 308.73 546.99 308.72 547.05 308.73 547.07 308.74 547.08 308.77 547.11 308.78 547.14 308.79 547.16 308.8 547.18 308.82 547.21 308.88 547.24 308.9 547.27 308.88 547.31 308.87 547.35 308.87 547.39 308.9 547.31 308.97 547.4 309.03 547.43 309.07 547.4 309.1 547.37 309.1 547.33 309.07 547.27 309.02 547.1 308.94 546.99 308.92 546.92 308.94 546.86 308.92 546.79 308.94 546.71 308.97 546.65 308.99 546.45 308.99 546.31 309.03 546.13 309.05 546.04 309.05 545.99 309.06 545.91 309.09 545.86 309.11 545.78 309.15 545.69 309.17 545.57 309.23 545.53 309.24 545.48 309.23 545.17 309.14 545.12 309.14 545.07 309.15 545.02 309.17 544.97 309.18 544.93 309.17 544.94 309.16 544.96 309.12 544.89 309.12 544.83 309.14 544.78 309.16 544.73 309.19 544.66 309.15 544.6 309.17 544.55 309.23 544.5 309.32 544.48 309.34 544.46 309.35 544.43 309.35 544.4 309.35 544.34 309.34 544.28 309.33 544.21 309.31 544.18 309.3 544.04 309.3 543.91 309.28 543.84 309.27 543.78 309.3 543.73 309.28 543.66 309.27 543.52 309.29 543.46 309.31 543.41 309.35 543.37 309.4 543.35 309.45 543.34 309.52 543.34 309.55 543.35 309.57 543.37 309.58 543.41 309.59 543.44 309.61 543.44 309.64 543.42 309.64 543.32 309.67 543.29 309.67 543.23 309.65 543.2 309.65 543.26 309.56 543.26 309.52 543.22 309.46 543.18 309.44 543.12 309.42 543.06 309.4 543.02 309.4 542.99 309.42 542.96 309.48 542.93 309.49 542.9 309.49 542.86 309.5 542.84 309.5 542.79 309.49 542.72 309.41 542.67 309.39 542.57 309.36 542.48 309.35 542.46 309.35 542.43 309.32 542.41 309.3 542.27 309.3 542.08 309.26 542.08 309.22 542.1 309.18 542.1 309.14 542.09 309.12 542.07 309.11 542.05 309.09 542.04 309.06 542.05 309.03 542.07 309.02 542.1 309.02 542.13 309.02 542.18 309.03 542.2 309.02 542.21 308.99 542.2 308.97 542.18 308.97 542.15 308.97 542.05 308.99 541.99 309 541.97 308.98 541.84 309.04 541.81 309.07 541.85 309.06 541.86 309.05 541.88 309.1 541.89 309.11 541.91 309.09 541.94 309.06 541.97 309.06 542 309.1 542.04 309.19 542.01 309.23 542 309.24 541.96 309.24 541.88 309.25 541.84 309.25 541.8 309.24 541.74 309.26 541.66 309.24 541.43 309.16 541.29 309.14 541.14 309.14 540.99 309.16 540.92 309.19 540.88 309.21 540.84 309.24 540.78 309.3 540.75 309.37 540.73 309.38 540.69 309.37 540.7 309.41 540.72 309.44 540.78 309.52 540.8 309.53 540.8 309.54 540.8 309.55 540.79 309.57 540.78 309.59 540.77 309.6 540.76 309.6 540.69 309.59 540.56 309.53 540.49 309.52 540.33 309.54 540.3 309.53 540.19 309.49 540.05 309.45 539.97 309.44 539.9 309.45 539.76 309.53 539.71 309.54 539.52 309.52 539.14 309.44 538.77 309.43 538.6 309.43 538.49 309.44 538.46 309.5 538.47 309.53 538.52 309.55 538.47 309.57 538.42 309.55 538.35 309.57 538.29 309.61 538.24 309.64 538.22 309.66 538.19 309.7 538.18 309.73 538.19 309.77 538.21 309.8 538.26 309.81 538.29 309.83 538.28 309.86 538.19 309.86 538.08 309.86 538 309.83 538.05 309.79 538.06 309.78 538.07 309.78 538.08 309.77 538.1 309.76 538.12 309.76 538.13 309.76 538.14 309.73 538.11 309.67 538.09 309.62 538.04 309.59 538 309.56 537.93 309.55 537.86 309.54 537.76 309.54 537.66 309.58 537.61 309.59 537.58 309.64 537.56 309.68 537.6 309.71 537.61 309.76 537.63 309.79 537.65 309.81 537.6 309.83 537.51 309.82 537.41 309.81 537.28 309.81 537.17 309.82 537.14 309.87 537.14 309.89 537.12 309.91 537.09 309.98 537.07 309.98 537.02 310.01 536.97 310.03 536.89 310.04 536.83 310.02 536.81 309.98 536.83 309.93 536.85 309.91 536.83 309.87 536.84 309.85 536.88 309.82 536.9 309.79 536.91 309.78 536.91 309.75 536.92 309.72 536.95 309.68 536.95 309.65 536.95 309.62 536.94 309.61 536.93 309.62 536.92 309.62 536.91 309.63 536.89 309.65 536.88 309.65 536.87 309.65 536.84 309.63 536.82 309.62 536.8 309.62 536.79 309.61 536.77 309.59 536.76 309.59 536.73 309.58 536.66 309.59 536.62 309.58 536.6 309.58 536.57 309.59 536.52 309.58 536.52 309.58 536.59 309.38 536.6 309.17 536.62 308.93 536.63 308.72 536.64 308.58 536.65 308.54 536.66 308.52 536.7 308.49 536.71 308.47 536.72 308.39 536.69 308.29 536.68 308.2 536.73 308.13 536.77 308.12 536.82 308.12 536.86 308.11 536.89 308.07 536.9 308.03 536.92 307.86 536.95 307.66 536.97 307.5 536.99 307.37 537.01 307.22 537.03 307.15 537.06 307.08 537.12 307.04 537.38 306.96 537.46 306.91 537.5 306.89 537.55 306.88 537.64 306.86 537.66 306.83 537.67 306.77 537.71 306.71 537.79 306.73 537.89 306.76 537.97 306.77 538.02 306.75 538.02 306.71 538 306.67 537.99 306.61 538 306.58 538.07 306.51 538.09 306.47 538.09 306.45 538.08 306.44 538.08 306.42 538.08 306.4 538.09 306.38 538.11 306.37 538.16 306.35 538.18 306.34 538.2 306.32 538.22 306.31 538.24 306.31 538.29 306.31 538.31 306.31 538.33 306.3 538.34 306.26 538.36 306.25 538.38 306.24 538.75 306.21 538.8 306.19 538.82 306.18 538.83 306.16 538.85 306.15 538.88 306.15 538.9 306.16 538.92 306.16 538.99 306.15 539.01 306.14 539.02 306.13 539.04 306.12 539.06 306.08 539.08 306.06 539.1 306.05 539.25 306.05 539.43 306.06 539.63 306.06 539.72 306.08 539.8 306.08 539.87 306.06 539.89 306.07 539.91 306.07 539.92 306.09 539.94 306.09 539.96 306.1 540.01 306.05 540.04 305.95 540.05 305.59 540.07 305.55 540.11 305.53 540.2 305.52 540.23 305.49 540.24 305.44 540.22 305.4 540.19 305.36 540.17 305.32 540.16 305.04 540.16 305.01 540.17 304.98 540.2 304.95 540.2 304.92 540.23 304.88 540.27 304.87 540.32 304.87 540.36 304.88 540.28 304.71 540.25 304.67 540.23 304.64 540.21 304.63 540.15 304.61 540.13 304.59 540.07 304.54 540.04 304.53 540.02 304.53 539.9 304.57 539.87 304.57 539.83 304.57 539.77 304.57 539.66 304.6 539.6 304.61 539.47 304.64 539.41 304.64 539.34 304.63 539.29 304.6 539.27 304.59 539.26 304.59 539.23 304.61 539.21 304.61 539.17 304.59 539.08 304.51 539.11 304.51 539.14 304.49 539.15 304.46 539.16 304.43 539.16 304.39 539.15 304.36 539.11 304.31 539.23 304.05 539.24 303.94 539.23 303.81 539.21 303.58 539.19 303.46 539.18 303.26 539.16 303.11 539.11 302.87 539.06 302.7 539.1 302.41 539.13 302.16 539.12 302.07 539.07 302.04 538.71 302.11 538.66 302.08 538.52 301.93 538.49 301.88 538.48 301.84 538.46 301.81 538.44 301.8 538.4 301.78 538.37 301.76 538.34 301.73 538.32 301.7 538.3 301.67 538.24 301.64 537.94 301.58 537.76 301.5 537.69 301.48 537.54 301.47 537.48 301.45 537.37 301.39 537.24 301.35 537.2 301.33 537.13 301.25 536.98 301.12 536.89 301 536.66 300.79 536.6 300.71 536.54 300.57 536.47 300.5 536.46 300.46 536.46 300.42 536.44 300.37 536.35 300.16 536.33 300.13 536.3 300.11 536.28 300.1 536.26 300.09 536.25 300.07 536.26 300.06 536.28 300.04 536.3 300.02 536.3 300 536.3 299.97 536.28 299.96 536.24 299.94 536.22 299.9 536.21 299.86 536.19 299.83 536.16 299.81 536.14 299.81 536.12 299.8 536.1 299.78 536.09 299.75 536.08 299.68 536.07 299.66 536.05 299.61 535.98 299.54 535.95 299.48 535.95 299.43 535.98 299.35 535.98 299.3 535.96 299.23 535.93 299.2 535.88 299.19 535.84 299.15 535.65 298.93 535.48 298.73 535.31 298.53 535.17 298.35 535.05 298.22 534.87 298.01 534.94 298.04 535.1 298.09 535.28 298.15 535.47 298.21 535.65 298.27 535.84 298.33 536.02 298.39 536.21 298.44 536.39 298.5 536.58 298.56 536.76 298.62 536.95 298.68 537.13 298.74 537.31 298.8 537.5 298.86 537.68 298.92 537.87 298.98 538.05 299.04 538.26 299.1 538.49 299.15 538.77 299.12 538.83 299.12 538.94 299.11 539.05 299.1 539.16 299.09 539.27 299.07 539.38 299.06 539.49 299.05 539.59 299.04 539.7 299.03 539.81 299.02 539.92 299.01 540.03 299 540.14 298.99 540.25 298.98 540.35 298.97 540.46 298.96 540.57 298.95 540.91 298.92 541.4 299.01 541.8 299.09 542.06 299.2 542.12 299.18 542.2 299.02 542.25 298.95 542.33 298.91 542.93 298.74 542.97 298.74 543.38 298.74 543.68 298.74 544.05 298.81 544.16 298.81 544.49 298.72 544.61 298.68 544.74 298.64 544.87 298.61 545 298.57 545.13 298.53 545.26 298.49 545.39 298.46 545.52 298.42 545.64 298.38 545.77 298.34 545.9 298.31 546.03 298.27 546.16 298.23 546.29 298.19 546.42 298.16 546.54 298.12 546.73 298.06 546.91 297.94 546.97 297.86 547.01 297.78 547.03 297.77 547.05 297.77 547.05 297.76 547.04 297.73 546.97 297.68 546.88 297.59 546.8 297.53 546.79 297.5 546.79 297.46 546.82 297.36 546.97 297.07 546.98 297.02 546.97 296.87 547.01 296.53 547.01 296.48 547 296.42 546.98 296.39 546.92 296.32 546.89 296.22 546.89 296.11 547.11 295.28 547.13 295.25 547.17 295.23 547.47 295.17 547.52 295.15 547.73 294.93 547.77 294.87 547.85 294.58 547.9 294.54 547.98 294.53 548.04 294.49 548.09 294.43 548.16 294.37 548.31 294.3 548.39 294.28 548.52 294.27 548.55 294.29 548.57 294.33 548.57 294.38 548.57 294.4 548.56 294.42 548.55 294.44 548.55 294.46 548.57 294.47 548.59 294.48 548.65 294.49 548.69 294.49 548.78 294.47 548.82 294.46 548.86 294.48 548.94 294.52 548.99 294.54 549.03 294.54 549.14 294.54 549.28 294.55 549.32 294.54 549.48 294.48 549.61 294.46 549.69 294.42 549.81 294.4 549.85 294.39 549.99 294.3 550.02 294.27 550.05 294.25 550.09 294.24 550.18 294.24 550.21 294.23 550.23 294.18 550.22 294.07 550.14 294.04 549.96 294.07 549.92 294.05 549.87 294.03 549.84 293.99 549.83 293.89 549.8 293.84 549.77 293.8 549.75 293.76 549.78 293.72 549.85 293.72 549.99 293.75 550.06 293.74 550.13 293.72 550.18 293.68 550.25 293.63 550.38 293.48 550.45 293.45 550.48 293.45 550.54 293.46 550.63 293.45 550.66 293.44 550.68 293.4 550.72 293.37 550.84 293.31 550.85 293.29 550.86 293.24 550.87 293.21 550.94 293.15 550.95 293.13 550.97 293.1 551.01 292.99 551.04 292.96 551.09 292.95 551.14 292.97 551.19 293 551.25 293.05 551.27 293.08 551.3 293.11 551.35 293.11 551.43 293.11 551.52 293.12 551.76 293.2 551.84 293.21 551.88 293.2 551.92 293.17 551.95 293.14 551.93 293.12 551.89 293.11 551.76 293.11 551.71 293.11 551.67 293.09 551.66 293.06 551.7 293.03 551.8 292.98 551.85 292.96 551.9 292.96 551.98 292.99 552.11 293.06 552.23 293.09 552.26 293.1 552.27 293.13 552.28 293.24 552.3 293.28 552.35 293.34 552.46 293.49 552.52 293.53 552.6 293.52 552.74 293.45 552.82 293.42 552.9 293.43 552.96 293.41 553.04 293.35 553.11 293.28 553.14 293.24 553.17 293.22 553.2 293.18 553.45 292.81 553.51 292.74 553.61 292.66 553.62 292.65 553.63 292.64 553.62 292.6 553.55 292.41 553.51 292.16 553.51 292.1 553.53 291.99 553.53 291.88 553.54 291.77 553.54 291.72 553.54 291.66 553.48 291.51 553.46 291.4 553.47 291.29 553.51 291.19 553.58 291.11 553.62 291.08 553.71 291.05 553.75 291.02 553.87 290.84 553.89 290.79 553.9 290.76 553.88 290.67 553.87 290.63 553.87 290.61 553.85 290.59 553.83 290.59 553.82 290.57 553.8 290.56 553.79 290.54 553.78 290.48 553.81 290.45 553.88 290.39 553.94 290.32 554 290.27 554.01 290.26 554.03 290.19 553.99 289.9 554.01 289.86 554.03 289.81 554.09 289.74 554.16 289.69 554.25 289.68 554.3 289.68 554.37 289.66 554.39 289.67 554.41 289.68 554.43 289.68 554.47 289.67 554.57 289.6 554.66 289.58 554.81 289.66 554.9 289.65 555.07 289.55 555.09 289.54 555.16 289.55 555.18 289.54 555.2 289.52 555.27 289.37 555.3 289.36 555.35 289.38 555.4 289.39 555.44 289.36 555.82 289.05 555.84 288.96 555.8 288.88 555.68 288.75 555.67 288.73 555.66 288.68 555.64 288.67 555.58 288.65 555.56 288.64 555.53 288.6 555.51 288.55 555.5 288.5 555.51 288.45 555.55 288.28 555.55 288.22 555.54 288.2 555.53 288.19 555.49 288.17 555.47 288.15 555.46 288.14 555.45 288.1 555.43 287.99 555.41 287.96 555.31 287.98 555.19 287.93 555.16 287.93 555.11 287.92 555.07 287.9 555.05 287.85 555.03 287.79 555.01 287.76 554.96 287.68 554.94 287.64 554.91 287.53 554.89 287.5 554.83 287.44 554.81 287.4 554.84 287.36 554.88 287.32 554.89 287.28 554.88 287.24 554.88 287.19 554.92 287.16 554.98 287.14 555.1 287.12 555.17 287.12 555.65 287.29 555.78 287.3 555.85 287.34 555.89 287.35 556.07 287.36 556.26 287.4 556.32 287.4 556.62 287.36 556.92 287.36 557.08 287.33 557.12 287.26 557.13 287.22 557.15 287.22 557.21 287.23 557.25 287.24 557.28 287.23 557.31 287.2 557.33 287.17 557.38 287.15 557.49 287.13 557.52 287.1 557.53 287.05 557.52 287 557.52 286.96 557.55 286.91 557.61 286.84 557.62 286.8 557.63 286.74 557.62 286.68 557.6 286.59 557.6 286.54 557.66 286.36 557.65 286.29 557.5 286.2 557.43 286.14 557.36 286.06 557.32 285.99 557.3 285.94 557.29 285.88 557.29 285.82 557.31 285.77 557.35 285.76 557.35 285.76 557.4 285.76 557.49 285.77 557.53 285.75 557.55 285.7 557.56 285.63 557.55 285.58 557.54 285.52 557.54 285.47 557.56 285.44 557.72 285.32 557.8 285.27 557.83 285.24 557.95 285.07 557.98 284.98 558.03 284.9 558.1 284.84 558.37 284.73 558.4 284.72 558.42 284.7 558.44 284.67 558.46 284.61 558.48 284.58 558.48 284.58 558.48 284.58 558.48 284.58 558.5 284.56 558.52 284.54 558.52 284.52 558.51 284.49 558.51 284.37 558.57 284.3 558.72 284.19 558.78 284.11 558.8 284.05 558.79 284.02 558.72 283.96 558.6 283.82 558.56 283.75 558.56 283.68 558.63 283.59 558.74 283.5 558.76 283.46 558.76 283.4 558.74 283.37 558.71 283.33 558.7 283.31 558.69 283.29 558.67 283.23 558.68 283.18 558.7 283.13 558.7 283.08 558.68 283.04 558.64 283.01 558.52 282.95 558.48 282.92 558.45 282.87 558.48 282.82 558.52 282.76 558.54 282.72 558.53 282.67 558.5 282.62 558.48 282.6 558.45 282.58 558.44 282.56 558.43 282.53 558.43 282.5 558.43 282.48 558.43 282.45 558.41 282.41 558.34 282.28 558.31 282.24 558.21 282.17 558.18 282.13 558.17 282.04 558.14 282 558.08 281.97 558.01 281.96 557.95 281.93 557.9 281.87 557.87 281.85 557.79 281.8 557.76 281.78 557.76 281.77 557.75 281.73 557.77 281.69 557.84 281.62 557.85 281.59 557.87 281.53 557.88 281.51 557.96 281.46 558.03 281.42 558.05 281.41 558.07 281.38 558.08 281.33 558.09 281.31 558.23 281.26 558.28 281.22 558.45 281.03 558.48 281.01 558.52 280.99 558.58 280.98 558.62 280.96 558.61 280.92 558.59 280.88 558.6 280.84 558.65 280.78 558.67 280.76 558.69 280.71 558.71 280.63 558.74 280.6 558.78 280.6 558.82 280.62 558.95 280.7 559.02 280.77 559.05 280.79 559.08 280.78 559.12 280.77 559.14 280.74 559.14 280.7 559.1 280.63 559.1 280.54 559.14 280.51 559.29 280.5 559.32 280.49 559.35 280.47 559.38 280.44 559.41 280.41 559.51 280.35 559.55 280.31 559.6 280.29 559.69 280.27 559.72 280.23 559.72 280.21 559.72 280.18 559.71 280.16 559.73 280.14 559.76 280.12 559.81 280.11 559.94 280.09 559.98 280.07 559.96 280.02 559.93 279.97 559.94 279.93 559.98 279.91 560.07 279.86 560.27 279.82 560.37 279.81 560.46 279.78 560.56 279.79 560.61 279.78 560.75 279.66 560.85 279.61 561 279.57 561.14 279.56 561.33 279.59 561.52 279.58 561.59 279.56 561.64 279.53 561.7 279.52 561.77 279.55 561.8 279.55 561.82 279.54 561.87 279.5 561.91 279.49 562.24 279.45 562.31 279.46 562.38 279.47 562.41 279.48 562.44 279.47 562.55 279.44 562.66 279.44 562.8 279.42 562.87 279.43 562.95 279.45 563.24 279.4 563.39 279.4 563.39 279.4 563.39 279.4 563.39 279.4 563.53 279.41 563.67 279.43 563.73 279.46 563.92 279.58 563.98 279.59 564.05 279.62 564.11 279.62 564.24 279.58 564.26 279.55 564.27 279.45 564.29 279.42 564.32 279.39 564.36 279.38 564.5 279.4 564.56 279.38 564.66 279.29 564.85 279.17 564.91 279.13 565 279.1 565.05 279.1 565.09 279.11 565.1 279.12 565.11 279.13 565.15 279.19 565.19 279.23 565.22 279.21 565.24 279.13 565.25 279.11 565.25 279.09 565.25 279.07 565.24 279.05 565.28 279.03 565.42 278.99 565.5 278.96 565.54 278.97 565.57 279.01 565.63 279.07 565.79 279.07 565.86 279.13 565.86 279.13 565.92 279.22 565.94 279.26 565.95 279.34 565.97 279.37 566 279.36 566.01 279.33 566.03 279.25 566.05 279.21 566.08 279.19 566.12 279.17 566.2 279.15 566.28 279.15 566.47 279.13 566.51 279.13 566.54 279.15 566.61 279.21 566.68 279.25 566.94 279.31 567.03 279.34 567.09 279.4 567.12 279.49 567.14 279.59 567.14 279.7 567.16 279.81 567.21 279.87 567.34 279.88 567.36 279.86 567.36 279.83 567.38 279.81 567.51 279.75 567.69 279.79 567.87 279.87 568 279.97 568.13 280.09 568.19 280.16 568.41 280.59 568.42 280.59 568.42 280.64 568.44 280.7 568.4 280.92 568.4 281.03 568.41 281.07 568.47 281.14 568.49 281.18 568.5 281.23 568.47 281.25 568.43 281.27 568.4 281.3 568.4 281.33 568.42 281.38 568.41 281.41 568.4 281.43 568.39 281.45 568.28 281.52 568.25 281.54 568.23 281.59 568.25 281.68 568.29 281.77 568.36 281.84 568.43 281.87 568.6 281.88 568.67 281.91 568.72 282.01 568.74 282.12 568.75 282.23 568.77 282.33 568.83 282.38 568.89 282.39 568.99 282.36 569.04 282.35 569.09 282.36 569.12 282.37 569.16 282.37 569.24 282.32 569.28 282.32 569.32 282.32 569.36 282.32 569.38 282.3 569.4 282.25 569.42 282.24 569.45 282.23 569.47 282.22 569.52 282.22 569.58 282.21 569.66 282.12 569.7 282.13 569.72 282.22 569.69 282.44 569.73 282.53 569.81 282.57 569.97 282.63 570.04 282.69 570.09 282.76 570.12 282.79 570.16 282.82 570.19 282.82 Z" fill-rule="evenodd" id="Pakistan" transform="translate(-534.8699951171875,-278.9599914550781) "/></svg>