<svg xmlns="http://www.w3.org/2000/svg" viewBox="0 0 3.040008544921875 3.46002197265625"><path d="M 475.92 294.54 475.88 294.42 475.86 294.38 475.81 294.28 475.81 294.28 475.86 294.24 475.89 294.2 475.99 294.12 476.04 294.04 476.14 293.96 476.18 293.88 476.35 293.71 476.43 293.59 476.43 293.58 476.5 293.64 476.54 293.69 476.54 293.74 476.47 293.81 476.47 293.81 476.43 293.83 476.18 294.07 476.13 294.16 476.13 294.21 476.15 294.3 476.14 294.34 476.07 294.42 475.95 294.51 475.92 294.54 Z M 478.83 291.5 478.83 291.52 478.84 291.54 478.82 291.54 478.82 291.52 478.81 291.52 478.81 291.54 478.82 291.57 478.82 291.65 478.84 291.68 478.83 291.71 478.83 291.76 478.83 291.81 478.85 291.84 478.84 291.85 478.83 291.86 478.83 291.87 478.82 291.88 478.85 291.88 478.82 292 478.81 292.05 478.82 292.08 478.82 292.1 478.81 292.11 478.8 292.12 478.8 292.13 478.81 292.15 478.77 292.21 478.77 292.24 478.79 292.27 478.75 292.3 478.74 292.35 478.75 292.47 478.77 292.53 478.78 292.56 478.78 292.59 478.78 292.62 478.79 292.64 478.79 292.66 478.78 292.68 478.77 292.68 478.75 292.69 478.75 292.71 478.8 292.92 478.78 292.95 478.78 292.97 478.82 293.11 478.75 293.19 478.7 293.32 478.65 293.43 478.61 293.62 478.6 293.81 478.6 293.82 478.6 293.82 478.6 293.82 478.6 293.82 478.45 293.83 478.32 293.9 478.08 294.1 477.95 294.15 477.67 294.15 477.54 294.17 477.48 294.19 477.42 294.2 477.36 294.19 477.31 294.15 477.29 294.06 477.32 293.98 477.42 293.81 477.43 293.73 477.43 293.65 477.44 293.58 477.48 293.52 477.48 293.51 477.52 293.46 477.7 293.32 477.78 293.25 477.82 293.21 477.86 293.19 478 293.16 478.01 293.18 478.02 293.18 478.03 293.18 478.04 293.16 478.04 293.11 478.04 293.06 478.02 293.03 477.99 293.01 477.83 292.97 477.72 292.92 477.68 292.91 477.67 292.92 477.63 292.96 477.61 292.98 477.59 292.98 477.56 292.98 477.48 292.97 477.46 292.92 477.47 292.91 477.48 292.88 477.54 292.86 477.6 292.82 477.57 292.74 477.53 292.63 477.54 292.56 477.54 292.55 477.54 292.54 477.54 292.53 477.54 292.52 477.54 292.52 477.54 292.52 477.54 292.52 477.54 292.51 477.54 292.46 477.54 292.41 477.51 292.16 477.5 292.12 477.46 292.04 477.47 292.01 477.5 291.98 477.58 291.9 477.6 291.86 477.61 291.83 477.6 291.8 477.59 291.78 477.56 291.77 477.57 291.74 477.58 291.66 477.58 291.63 477.59 291.62 477.62 291.61 477.63 291.6 477.65 291.55 477.66 291.5 477.68 291.37 477.73 291.29 477.78 291.25 477.85 291.22 477.92 291.18 477.98 291.11 478.01 291.09 478.05 291.08 478.05 291.09 478.08 291.1 478.14 291.15 478.18 291.17 478.32 291.16 478.39 291.17 478.45 291.21 478.47 291.27 478.47 291.35 478.49 291.42 478.54 291.44 478.6 291.44 478.65 291.45 478.83 291.5 Z" fill-rule="evenodd" id="Palestine" transform="translate(-475.80999755859375,-291.0799865722656) "/></svg>