<svg xmlns="http://www.w3.org/2000/svg" viewBox="0 0 13.050003051757812 5.389984130859375"><path d="M 218.66 350.86 218.66 350.87 218.68 350.86 218.7 350.86 218.72 350.87 218.75 350.87 218.72 350.89 218.69 350.95 218.67 350.98 218.68 350.99 218.69 351.01 218.67 351.01 218.64 350.91 218.64 350.89 218.64 350.87 218.63 350.87 218.64 350.85 218.65 350.86 218.66 350.86 218.66 350.86 Z M 220.35 350.28 220.33 350.3 220.31 350.31 220.28 350.32 220.27 350.32 220.25 350.31 220.23 350.3 220.22 350.3 220.21 350.29 220.19 350.29 220.16 350.3 220.15 350.31 220.14 350.32 220.13 350.34 220.07 350.37 220.04 350.4 220.03 350.41 220.01 350.41 219.99 350.41 219.97 350.4 219.97 350.4 219.91 350.42 219.89 350.42 219.91 350.39 219.93 350.37 219.96 350.35 219.98 350.34 220.06 350.33 220.09 350.31 220.1 350.28 220.12 350.26 220.15 350.25 220.19 350.23 220.26 350.22 220.28 350.23 220.31 350.23 220.38 350.23 220.35 350.28 Z M 218.81 350.08 218.86 350.22 218.86 350.25 218.87 350.25 218.89 350.28 218.89 350.28 218.89 350.3 218.89 350.31 218.89 350.31 218.91 350.31 218.92 350.31 218.94 350.32 218.95 350.33 218.96 350.34 218.96 350.38 218.95 350.39 218.88 350.41 218.88 350.43 218.86 350.49 218.86 350.5 218.87 350.53 218.91 350.57 218.92 350.59 218.92 350.61 218.93 350.63 218.95 350.64 218.96 350.63 218.98 350.63 219 350.64 219.07 350.63 219.08 350.65 219.15 350.76 219.11 350.78 219.06 350.79 219.01 350.79 218.93 350.75 218.84 350.74 218.8 350.73 218.77 350.71 218.72 350.66 218.68 350.63 218.58 350.55 218.53 350.45 218.52 350.43 218.51 350.42 218.49 350.36 218.5 350.36 218.55 350.36 218.57 350.35 218.57 350.34 218.6 350.29 218.6 350.29 218.61 350.27 218.61 350.25 218.61 350.23 218.62 350.21 218.64 350.2 218.68 350.19 218.74 350.14 218.76 350.13 218.77 350.14 218.78 350.14 218.78 350.12 218.77 350.1 218.77 350.08 218.78 350.08 218.78 350.09 218.8 350.09 218.79 350.08 218.8 350.08 218.8 350.08 218.81 350.08 Z M 217.46 349.09 217.43 349.09 217.44 349.07 217.45 349.04 217.47 349.01 217.5 349 217.52 349 217.53 349.01 217.53 349.04 217.53 349.07 217.49 349.08 217.46 349.09 Z M 217.75 348.82 217.76 348.84 217.72 348.83 217.69 348.83 217.67 348.84 217.67 348.86 217.67 348.87 217.69 348.91 217.63 348.86 217.61 348.86 217.57 348.85 217.55 348.84 217.53 348.81 217.55 348.79 217.63 348.77 217.66 348.78 217.7 348.8 217.75 348.82 Z M 217.53 348.69 217.51 348.7 217.47 348.69 217.47 348.71 217.54 348.75 217.49 348.76 217.41 348.81 217.38 348.81 217.35 348.8 217.32 348.77 217.29 348.74 217.28 348.71 217.29 348.71 217.34 348.72 217.46 348.63 217.51 348.65 217.53 348.67 217.53 348.69 Z M 224.74 348.71 224.73 348.72 224.71 348.72 224.68 348.71 224.65 348.73 224.65 348.74 224.67 348.76 224.67 348.78 224.65 348.78 224.64 348.79 224.64 348.82 224.61 348.82 224.57 348.74 224.58 348.72 224.59 348.72 224.6 348.7 224.6 348.67 224.6 348.65 224.61 348.61 224.63 348.58 224.65 348.58 224.66 348.58 224.67 348.59 224.67 348.6 224.69 348.63 224.7 348.68 224.72 348.7 224.73 348.7 224.74 348.71 Z M 224.65 348.36 224.67 348.38 224.68 348.38 224.69 348.35 224.7 348.36 224.69 348.39 224.71 348.4 224.71 348.42 224.7 348.44 224.68 348.45 224.63 348.42 224.59 348.39 224.62 348.33 224.65 348.36 Z M 225.19 348.28 225.2 348.3 225.2 348.33 225.21 348.35 225.21 348.37 225.23 348.37 225.25 348.4 225.24 348.43 225.23 348.44 225.22 348.47 225.25 348.53 225.23 348.57 225.21 348.59 225.21 348.61 225.2 348.63 225.17 348.63 225.16 348.62 225.14 348.62 225.13 348.62 225.11 348.63 225.11 348.61 225.1 348.6 225.09 348.61 225.08 348.63 225.06 348.66 225.06 348.68 225.05 348.7 225.08 348.72 225.08 348.77 225.09 348.78 225.11 348.78 225.11 348.79 225.1 348.8 225.07 348.78 225.04 348.76 225.05 348.73 225.03 348.68 225.02 348.66 224.98 348.64 224.96 348.63 224.95 348.61 224.96 348.57 224.98 348.56 224.98 348.52 224.98 348.5 224.96 348.48 224.95 348.47 224.96 348.45 224.97 348.43 224.97 348.42 224.96 348.38 224.96 348.36 224.94 348.3 224.95 348.27 224.98 348.27 225 348.28 225.09 348.24 225.11 348.26 225.11 348.27 225.12 348.28 225.12 348.27 225.12 348.24 225.13 348.23 225.15 348.25 225.17 348.26 225.19 348.28 Z M 223.63 347.5 223.65 347.5 223.66 347.5 223.66 347.51 223.65 347.51 223.66 347.53 223.67 347.53 223.68 347.54 223.68 347.55 223.68 347.56 223.67 347.57 223.66 347.55 223.65 347.55 223.64 347.55 223.62 347.55 223.62 347.53 223.62 347.51 223.63 347.5 Z M 219.2 346.83 219.21 346.83 219.21 346.83 219.22 346.83 219.24 346.83 219.25 346.84 219.26 346.85 219.26 346.86 219.27 346.86 219.27 346.87 219.26 346.87 219.24 346.86 219.23 346.86 219.2 346.86 219.19 346.86 219.18 346.86 219.18 346.85 219.18 346.84 219.17 346.83 219.17 346.82 219.19 346.82 219.2 346.83 Z M 218.19 346.76 218.17 346.77 218.16 346.76 218.14 346.75 218.12 346.74 218.11 346.72 218.11 346.7 218.13 346.68 218.12 346.67 218.12 346.66 218.13 346.66 218.14 346.68 218.15 346.68 218.17 346.68 218.18 346.7 218.18 346.72 218.2 346.73 218.21 346.73 218.21 346.75 218.19 346.76 Z M 217.83 346.29 217.85 346.29 217.87 346.29 217.89 346.28 217.91 346.29 217.96 346.34 218.02 346.37 218.04 346.39 218.07 346.42 218.03 346.41 217.98 346.43 217.94 346.46 217.93 346.52 217.92 346.51 217.89 346.49 217.89 346.48 217.9 346.48 217.9 346.47 217.9 346.42 217.89 346.4 217.87 346.39 217.87 346.37 217.9 346.39 217.88 346.34 217.85 346.33 217.81 346.32 217.76 346.3 217.76 346.28 217.78 346.27 217.79 346.27 217.8 346.27 217.81 346.28 217.83 346.29 Z M 217.7 346.31 217.69 346.33 217.66 346.27 217.61 346.23 217.51 346.14 217.56 346.1 217.6 346.08 217.64 346.08 217.7 346.17 217.72 346.23 217.69 346.27 217.69 346.28 217.7 346.29 217.7 346.3 217.7 346.31 Z M 228.49 347.81 228.49 347.84 228.46 347.86 228.43 347.86 228.39 347.87 228.35 347.89 228.35 347.91 228.36 347.93 228.37 347.97 228.34 348.02 228.28 348.09 228.25 348.12 228.23 348.18 228.23 348.23 228.25 348.25 228.32 348.24 228.36 348.25 228.38 348.27 228.42 348.33 228.45 348.41 228.47 348.57 228.49 348.64 228.51 348.68 228.54 348.69 228.57 348.69 228.6 348.71 228.61 348.73 228.66 348.83 228.72 348.91 228.74 348.95 228.8 349.07 228.85 349.24 228.86 349.3 228.87 349.33 228.89 349.35 228.92 349.37 228.94 349.39 228.95 349.42 228.94 349.43 228.86 349.43 228.79 349.44 228.72 349.47 228.65 349.51 228.6 349.55 228.55 349.68 228.48 349.76 228.47 349.79 228.5 349.85 228.55 349.9 228.56 349.94 228.5 350 228.19 350.19 228.09 350.29 228.03 350.34 227.98 350.34 227.96 350.32 227.93 350.2 227.91 350.17 227.85 350.09 227.85 350.09 227.83 350.08 227.82 350.08 227.82 350.07 227.83 350.05 227.83 350.04 227.81 350.02 227.7 349.92 227.68 349.91 227.62 349.94 227.61 350.02 227.62 350.12 227.64 350.19 227.69 350.28 227.7 350.33 227.68 350.39 227.64 350.43 227.6 350.45 227.55 350.46 227.5 350.45 227.42 350.7 227.33 350.99 227.33 350.99 227.28 350.97 227.22 350.91 227.12 350.8 227.09 350.77 227.07 350.75 227.06 350.73 227.07 350.7 227.07 350.68 227.08 350.66 227.07 350.63 227.06 350.62 227.05 350.63 227.04 350.64 227.04 350.64 227.02 350.64 227.02 350.62 227.02 350.61 227.03 350.61 227 350.57 226.99 350.56 226.97 350.58 226.95 350.58 226.9 350.52 226.87 350.49 226.84 350.47 226.83 350.47 226.83 350.44 226.82 350.42 226.79 350.41 226.78 350.4 226.77 350.38 226.76 350.34 226.74 350.34 226.73 350.37 226.73 350.35 226.72 350.27 226.71 350.23 226.69 350.22 226.67 350.24 226.66 350.28 226.65 350.25 226.66 350.23 226.66 350.21 226.66 350.19 226.66 350.16 226.65 350.15 226.62 350.13 226.57 350.07 226.54 350.04 226.5 350.04 226.5 350.01 226.49 349.99 226.47 349.98 226.45 349.97 226.47 349.93 226.48 349.9 226.48 349.87 226.47 349.83 226.4 349.73 226.39 349.71 226.37 349.64 226.32 349.58 226.27 349.52 226.23 349.47 226.2 349.4 226.18 349.33 226.18 349.3 226.18 349.28 226.18 349.26 226.14 349.19 226.13 349.16 226.15 349.12 226.17 349.08 226.2 349.06 226.22 349.13 226.25 349.15 226.29 349.14 226.32 349.12 226.38 349.15 226.47 349.11 226.54 349.03 226.57 348.95 226.57 348.9 226.56 348.87 226.54 348.85 226.51 348.83 226.45 348.76 226.42 348.74 226.42 348.72 226.48 348.73 226.5 348.73 226.53 348.71 226.53 348.69 226.52 348.69 226.51 348.68 226.51 348.67 226.5 348.66 226.52 348.66 226.52 348.65 226.53 348.63 226.55 348.64 226.57 348.67 226.59 348.68 226.61 348.68 226.63 348.68 226.66 348.68 226.66 348.67 226.69 348.63 226.69 348.63 226.69 348.56 226.69 348.54 226.7 348.54 226.74 348.5 226.75 348.47 226.75 348.46 226.76 348.41 226.76 348.4 226.79 348.39 226.81 348.39 226.82 348.4 226.83 348.48 226.83 348.5 226.85 348.51 226.89 348.53 226.93 348.55 226.96 348.56 226.99 348.57 227.01 348.6 227.04 348.71 227.07 348.74 227.09 348.76 227.13 348.77 227.14 348.76 227.16 348.76 227.19 348.76 227.2 348.79 227.22 348.8 227.24 348.81 227.26 348.81 227.29 348.81 227.29 348.8 227.25 348.79 227.22 348.77 227.2 348.75 227.18 348.72 227.29 348.74 227.35 348.77 227.39 348.81 227.44 348.84 227.46 348.85 227.46 348.89 227.46 348.91 227.48 348.93 227.5 348.94 227.52 348.92 227.55 348.94 227.57 348.97 227.58 349.01 227.59 349.03 227.63 349.04 227.66 349.03 227.68 349 227.62 349 227.54 348.9 227.5 348.91 227.39 348.76 227.36 348.75 227.33 348.73 227.13 348.69 227.09 348.67 227.05 348.64 227.02 348.6 227.01 348.55 226.97 348.45 226.95 348.39 226.98 348.36 226.96 348.34 226.93 348.32 226.91 348.29 226.89 348.27 226.88 348.23 226.89 348.21 226.9 348.19 226.91 348.17 226.9 348.15 226.89 348.14 226.87 348.14 226.85 348.11 226.84 348.09 226.83 348.07 226.83 348.05 226.8 348.04 226.81 348.06 226.81 348.11 226.82 348.14 226.85 348.16 226.86 348.16 226.87 348.16 226.86 348.24 226.87 348.26 226.9 348.33 226.9 348.35 226.89 348.37 226.88 348.37 226.84 348.3 226.81 348.27 226.79 348.25 226.75 348.25 226.72 348.27 226.7 348.3 226.69 348.35 226.68 348.39 226.65 348.41 226.61 348.43 226.57 348.43 226.55 348.43 226.54 348.41 226.54 348.39 226.54 348.37 226.56 348.36 226.62 348.33 226.63 348.33 226.63 348.34 226.65 348.34 226.65 348.27 226.64 348.2 226.61 348.08 226.59 348.08 226.57 348.11 226.58 348.13 226.61 348.15 226.62 348.17 226.62 348.21 226.6 348.25 226.59 348.27 226.61 348.3 226.61 348.31 226.6 348.32 226.59 348.32 226.57 348.33 226.56 348.31 226.55 348.3 226.54 348.29 226.53 348.28 226.52 348.26 226.53 348.26 226.53 348.26 226.54 348.25 226.57 348.21 226.56 348.19 226.53 348.17 226.54 348.2 226.54 348.22 226.52 348.22 226.51 348.24 226.48 348.3 226.45 348.3 226.43 348.28 226.41 348.21 226.39 348.22 226.39 348.25 226.36 348.3 226.32 348.33 226.29 348.34 226.27 348.31 226.24 348.17 226.23 348.13 226.23 348.11 226.24 348.1 226.23 348.1 226.23 348.11 226.21 348.11 226.21 348.07 226.2 348.07 226.19 348.12 226.23 348.23 226.25 348.34 226.29 348.37 226.3 348.41 226.24 348.54 226.23 348.52 226.21 348.51 226.2 348.5 226.19 348.5 226.18 348.5 226.13 348.43 226.1 348.42 226.11 348.39 226.11 348.35 226.1 348.31 226.09 348.28 226.07 348.3 226.06 348.31 226.06 348.32 226.06 348.34 226.05 348.32 226.02 348.29 226.01 348.27 226.01 348.23 226.03 348.16 226.01 348.12 225.95 348.03 225.92 348.01 225.95 348.01 225.98 348.02 226 348.02 226.03 348.01 225.99 347.98 225.98 347.95 225.98 347.88 225.84 347.84 225.86 347.8 225.86 347.79 225.85 347.79 225.84 347.8 225.83 347.81 225.81 347.8 225.79 347.8 225.78 347.8 225.76 347.81 225.74 347.8 225.73 347.77 225.71 347.72 225.74 347.69 225.75 347.65 225.75 347.61 225.74 347.56 225.72 347.56 225.72 347.6 225.73 347.65 225.73 347.68 225.69 347.67 225.66 347.71 225.59 347.62 225.53 347.62 225.48 347.6 225.44 347.5 225.4 347.47 225.4 347.46 225.42 347.46 225.42 347.44 225.39 347.43 225.37 347.41 225.35 347.39 225.33 347.37 225.34 347.4 225.35 347.43 225.33 347.46 225.3 347.47 225.26 347.48 225.24 347.47 225.2 347.42 225.18 347.38 225.17 347.34 225.16 347.3 224.87 347.15 224.76 347.13 224.7 347.09 224.69 347.07 224.69 347.05 224.69 347.04 224.7 347.03 224.71 347.01 224.71 346.96 224.7 346.92 224.69 346.9 224.64 346.89 224.64 346.88 224.69 346.87 224.73 346.85 224.75 346.82 224.77 346.79 224.78 346.79 224.8 346.82 224.82 346.81 224.86 346.79 224.9 346.77 224.92 346.76 224.93 346.74 224.92 346.75 224.89 346.75 224.87 346.75 224.86 346.77 224.83 346.8 224.82 346.8 224.8 346.8 224.8 346.78 224.79 346.77 224.77 346.77 224.75 346.78 224.73 346.82 224.71 346.83 224.71 346.84 224.7 346.85 224.69 346.86 224.67 346.86 224.65 346.86 224.63 346.87 224.62 346.88 224.62 346.89 224.63 346.91 224.66 346.92 224.68 346.94 224.69 346.98 224.68 347.01 224.66 347.05 224.63 347.08 224.59 347.07 224.58 347.06 224.52 347.05 224.52 347.04 224.51 347.02 224.5 347.01 224.49 347.04 224.46 347.05 224.28 347.02 224.22 347.03 224.21 347.03 224.21 347.02 224.15 347.03 224.03 347.02 223.98 347.05 223.96 347.03 223.94 347.03 223.91 347.04 223.88 347.05 223.85 347.06 223.83 347.06 223.81 347.07 223.81 347.08 223.81 347.09 223.8 347.09 223.79 347.1 223.73 347.14 223.73 347.16 223.73 347.18 223.73 347.19 223.7 347.2 223.74 347.26 223.75 347.29 223.72 347.27 223.68 347.23 223.65 347.19 223.64 347.15 223.63 347.15 223.63 347.16 223.63 347.17 223.64 347.18 223.64 347.2 223.63 347.2 223.64 347.25 223.63 347.3 223.6 347.32 223.55 347.31 223.45 347.32 223.42 347.34 223.43 347.37 223.43 347.38 223.41 347.37 223.39 347.36 223.37 347.36 223.35 347.37 223.35 347.36 223.34 347.36 223.34 347.35 223.32 347.35 223.32 347.37 223.33 347.37 223.33 347.39 223.34 347.4 223.3 347.39 223.26 347.41 223.24 347.44 223.22 347.47 223.21 347.52 223.22 347.65 223.22 347.66 223.23 347.67 223.24 347.67 223.25 347.68 223.24 347.69 223.24 347.71 223.23 347.72 223.23 347.73 223.22 347.75 223.21 347.77 223.19 347.79 223.19 347.79 223.16 347.81 223.13 347.81 223.13 347.82 223.13 347.83 223.13 347.84 223.09 347.85 223.05 347.87 223.08 347.89 223.16 347.91 223.23 347.88 223.29 347.85 223.32 347.84 223.33 347.83 223.34 347.83 223.34 347.84 223.33 347.86 223.26 347.92 223.17 348 223.12 348.01 223.05 348.04 222.97 348.06 222.95 348.08 222.96 348.1 222.95 348.12 222.94 348.13 222.93 348.13 222.91 348.14 222.9 348.14 222.86 348.17 222.85 348.19 222.83 348.19 222.82 348.2 222.8 348.24 222.78 348.25 222.78 348.26 222.73 348.3 222.58 348.4 222.49 348.46 222.39 348.51 222.23 348.59 222.17 348.62 222.06 348.63 222.04 348.63 222.01 348.62 222 348.62 221.98 348.62 221.94 348.64 221.93 348.65 221.87 348.63 221.84 348.61 221.82 348.6 221.83 348.59 221.81 348.6 221.81 348.61 221.81 348.62 221.8 348.63 221.76 348.66 221.62 348.8 221.61 348.84 221.61 349.05 221.61 349.08 221.61 349.08 221.59 349.1 221.63 349.12 221.64 349.16 221.66 349.21 221.68 349.23 221.71 349.23 221.79 349.27 221.82 349.29 221.89 349.31 221.94 349.39 221.97 349.48 222 349.55 222.21 349.72 222.35 349.84 222.55 350.09 222.65 350.28 222.68 350.35 222.68 350.39 222.64 350.48 222.63 350.49 222.6 350.5 222.54 350.5 222.52 350.51 222.37 350.57 222.23 350.57 222.2 350.58 222.17 350.57 222.11 350.55 222.09 350.54 222.08 350.54 222.06 350.55 221.99 350.57 221.99 350.58 222.02 350.58 222.04 350.57 222.06 350.56 222.08 350.55 222.09 350.57 221.93 350.62 221.87 350.66 221.87 350.72 221.9 350.78 221.9 350.8 221.84 350.81 221.83 350.81 221.81 350.82 221.79 350.84 221.79 350.85 221.78 350.87 221.77 350.88 221.75 350.89 221.73 350.9 221.72 350.92 221.72 350.93 221.72 350.95 221.7 350.96 221.68 350.96 221.64 350.95 221.61 350.95 221.34 350.98 221.33 350.98 221.09 351.03 220.91 351.03 220.86 351.02 220.85 351.02 220.84 351.03 220.82 351.04 220.81 351.03 220.8 351.02 220.79 351.02 220.76 351.05 220.73 351.04 220.7 350.98 220.68 350.97 220.67 350.96 220.65 350.95 220.63 350.95 220.61 350.94 220.6 350.92 220.62 350.91 220.63 350.9 220.64 350.89 220.63 350.84 220.64 350.82 220.65 350.81 220.67 350.79 220.68 350.78 220.69 350.75 220.69 350.71 220.68 350.67 220.62 350.64 220.63 350.6 220.65 350.53 220.64 350.5 220.56 350.41 220.55 350.41 220.53 350.39 220.52 350.38 220.55 350.36 220.55 350.34 220.56 350.32 220.57 350.3 220.57 350.27 220.55 350.24 220.52 350.22 220.5 350.2 220.5 350.19 220.51 350.19 220.51 350.17 220.41 350.06 220.38 350.05 220.37 350.05 220.36 350.04 220.36 350.02 220.37 350 220.39 349.98 220.41 349.98 220.44 349.99 220.43 349.97 220.4 349.95 220.37 349.93 220.35 349.93 220.35 349.92 220.39 349.85 220.37 349.85 220.35 349.85 220.33 349.84 220.31 349.83 220.32 349.83 220.33 349.83 220.33 349.83 220.33 349.82 220.28 349.81 220.26 349.78 220.26 349.74 220.28 349.73 220.29 349.72 220.3 349.71 220.32 349.7 220.34 349.7 220.37 349.7 220.39 349.69 220.4 349.68 220.41 349.65 220.39 349.65 220.34 349.68 220.33 349.62 220.33 349.48 220.28 349.57 220.25 349.6 220.22 349.56 220.21 349.56 220.22 349.58 220.22 349.6 220.24 349.61 220.26 349.62 220.26 349.64 220.16 349.64 220.13 349.63 220.11 349.61 220.08 349.61 220.02 349.59 220.01 349.56 220.01 349.52 219.97 349.52 219.99 349.52 220 349.53 220 349.55 219.97 349.56 219.97 349.57 220.01 349.61 220.05 349.63 220.06 349.63 220.05 349.65 220.05 349.67 220.04 349.68 220.08 349.76 220.06 349.81 220.01 349.86 219.97 349.9 219.96 349.88 219.96 349.87 219.96 349.86 219.97 349.85 219.97 349.83 219.94 349.83 219.9 349.83 219.9 349.85 219.93 349.86 219.94 349.87 219.97 349.91 219.94 349.92 219.92 349.92 219.9 349.91 219.92 349.94 219.94 349.96 219.95 349.96 219.98 349.94 220.01 349.93 220.02 349.95 220.01 350.05 220.02 350.07 220.02 350.09 220.01 350.11 220 350.12 219.98 350.14 219.97 350.16 219.95 350.16 219.93 350.14 219.86 350.1 219.84 350.1 219.83 350.07 219.8 350.06 219.75 350.06 219.57 350.01 219.51 350.02 219.5 349.99 219.49 349.97 219.47 349.95 219.45 349.94 219.4 349.96 219.33 349.95 219.28 349.93 219.28 349.9 219.3 349.89 219.34 349.87 219.37 349.84 219.28 349.82 219.26 349.83 219.25 349.87 219.2 349.83 219.18 349.82 219.18 349.8 219.19 349.79 219.18 349.77 219.16 349.75 219.15 349.72 219.15 349.69 219.16 349.66 219.19 349.62 219.19 349.61 219.18 349.6 219.16 349.59 219.14 349.6 219.13 349.61 219.12 349.61 219.1 349.59 219.1 349.58 219.12 349.56 219.12 349.54 219.1 349.53 219.07 349.53 219.08 349.5 219.08 349.46 219.09 349.44 219.13 349.45 219.12 349.43 219.12 349.42 219.08 349.39 219.1 349.38 219.09 349.34 219.1 349.32 219.07 349.33 219.06 349.33 219.06 349.33 219.06 349.36 219.07 349.39 219.07 349.4 219.06 349.41 219.05 349.41 219.03 349.4 219.03 349.39 219.03 349.37 219.02 349.35 218.98 349.29 218.96 349.27 218.93 349.19 218.92 349.17 218.9 349.2 218.9 349.22 218.9 349.24 218.88 349.22 218.88 349.19 218.88 349.15 218.84 349.14 218.84 349.12 218.86 349.13 218.88 349.14 218.89 349.13 218.9 349.12 218.92 349.12 218.93 349.13 218.93 349.13 218.95 349.14 218.87 349 218.82 348.94 218.8 348.9 218.8 348.86 218.78 348.86 218.77 348.89 218.76 348.91 218.77 348.93 218.8 348.94 218.78 348.96 218.75 348.99 218.73 349.01 218.72 349.01 218.68 348.98 218.51 348.91 218.49 348.9 218.4 348.88 218.36 348.88 218.34 348.86 218.35 348.83 218.39 348.77 218.36 348.78 218.33 348.8 218.31 348.82 218.3 348.85 218.28 348.86 218.25 348.84 218.2 348.8 218.17 348.82 218.1 348.82 218.03 348.8 217.99 348.77 217.98 348.77 217.97 348.81 217.92 348.93 217.91 348.93 217.9 348.92 217.9 348.92 217.9 348.94 217.89 348.94 217.91 348.89 217.91 348.87 217.89 348.88 217.89 348.86 217.89 348.84 217.9 348.84 217.92 348.83 217.92 348.81 217.89 348.82 217.85 348.84 217.82 348.84 217.8 348.84 217.77 348.81 217.75 348.8 217.75 348.79 217.76 348.78 217.77 348.77 217.78 348.77 217.75 348.7 217.75 348.67 217.76 348.65 217.76 348.63 217.75 348.62 217.75 348.61 217.75 348.6 217.76 348.59 217.77 348.59 217.77 348.6 217.77 348.6 217.78 348.6 217.77 348.57 217.77 348.55 217.79 348.53 217.82 348.52 217.77 348.52 217.75 348.52 217.73 348.53 217.7 348.61 217.7 348.62 217.65 348.61 217.62 348.6 217.6 348.57 217.61 348.52 217.58 348.54 217.54 348.55 217.5 348.55 217.46 348.54 217.46 348.56 217.47 348.59 217.47 348.6 217.44 348.61 217.38 348.64 217.35 348.65 217.3 348.64 217.27 348.61 217.27 348.58 217.31 348.57 217.31 348.56 217.29 348.55 217.28 348.54 217.28 348.52 217.28 348.5 217.26 348.51 217.25 348.54 217.24 348.57 217.2 348.59 217.2 348.6 217.21 348.61 217.22 348.63 217.23 348.65 217.23 348.66 217.19 348.67 217.17 348.67 217.16 348.66 217.1 348.67 217.01 348.65 216.85 348.59 216.77 348.57 216.68 348.57 216.6 348.58 216.44 348.63 216.37 348.67 216.32 348.72 216.29 348.8 216.28 348.89 216.3 348.99 216.35 349.14 216.35 349.15 216.32 349.18 216.31 349.22 216.29 349.23 216.24 349.21 216.26 349.16 216.27 349.06 216.15 348.81 216.14 348.73 216.13 348.71 216.09 348.69 216.07 348.69 216.04 348.7 216.03 348.7 216.01 348.69 215.99 348.66 215.98 348.64 215.92 348.61 215.9 348.59 215.9 348.56 215.92 348.54 216.02 348.49 216.12 348.39 216.18 348.36 216.25 348.34 216.3 348.31 216.35 348.25 216.37 348.19 216.38 348.11 216.37 347.95 216.35 347.89 216.32 347.83 216.29 347.78 216.22 347.7 216.2 347.67 216.18 347.64 216.19 347.61 216.21 347.59 216.27 347.55 216.29 347.52 216.29 347.49 216.27 347.48 216.26 347.47 216.29 347.44 216.31 347.42 216.54 347.33 216.61 347.29 216.64 347.24 216.64 347.24 216.63 347.22 216.57 347.12 216.54 347.1 216.44 347.07 216.34 346.99 216.29 346.97 216.28 346.96 216.27 346.95 216.26 346.93 216.25 346.91 216.24 346.9 216.22 346.9 216.15 346.93 216.15 346.9 216.15 346.54 216.14 346.27 216.14 346.09 216.15 346.04 216.16 346.01 216.21 346 216.32 345.98 216.36 345.96 216.36 345.95 216.35 345.94 216.34 345.93 216.33 345.92 216.31 345.86 216.28 345.81 216.29 345.79 216.31 345.76 216.35 345.72 216.4 345.72 216.52 345.77 216.62 345.85 216.64 345.85 216.66 345.85 216.68 345.87 216.71 345.93 216.73 345.95 216.75 345.96 216.79 345.97 216.83 345.98 216.86 345.98 216.88 345.95 216.89 345.86 216.9 345.84 216.93 345.84 216.97 345.86 216.99 345.86 216.96 345.78 216.99 345.79 217.2 345.96 217.33 346.09 217.42 346.14 217.47 346.1 217.47 346.14 217.46 346.17 217.4 346.27 217.39 346.3 217.4 346.33 217.42 346.35 217.44 346.36 217.46 346.38 217.46 346.4 217.43 346.43 217.37 346.42 217.37 346.45 217.36 346.47 217.36 346.48 217.37 346.48 217.38 346.48 217.41 346.49 217.43 346.52 217.44 346.55 217.44 346.58 217.46 346.6 217.54 346.65 217.55 346.65 217.57 346.62 217.59 346.62 217.61 346.61 217.58 346.57 217.61 346.58 217.62 346.6 217.63 346.63 217.64 346.65 217.67 346.65 217.68 346.65 217.69 346.62 217.69 346.59 217.7 346.59 217.71 346.62 217.72 346.63 217.74 346.63 217.75 346.62 217.75 346.6 217.75 346.58 217.76 346.57 217.78 346.59 217.78 346.58 217.78 346.57 217.78 346.57 217.79 346.57 217.8 346.59 217.8 346.61 217.81 346.62 217.82 346.63 217.84 346.63 217.84 346.62 217.85 346.62 217.85 346.65 217.85 346.71 217.84 346.74 217.77 346.7 217.74 346.68 217.68 346.68 217.66 346.7 217.65 346.74 217.66 346.78 217.67 346.8 217.67 346.82 217.66 346.81 217.63 346.8 217.64 346.83 217.69 346.86 217.7 346.89 217.69 347.03 217.68 347.03 217.67 347.03 217.67 347.02 217.66 347.02 217.69 347.05 217.75 347.08 217.8 347.08 217.84 347.06 217.92 347.09 217.95 347.1 217.95 347.12 217.98 347.17 217.99 347.18 218 347.19 218 347.21 218.01 347.21 218.02 347.22 218.04 347.21 218.08 347.22 218.19 347.18 218.24 347.18 218.27 347.19 218.29 347.21 218.33 347.21 218.36 347.21 218.39 347.19 218.41 347.16 218.4 347.14 218.43 347.13 218.45 347.13 218.48 347.14 218.48 347.15 218.5 347.16 218.53 347.17 218.54 347.16 218.56 347.15 218.69 347.21 218.73 347.2 218.74 347.16 218.73 347.07 218.58 346.98 218.51 346.87 218.49 346.85 218.46 346.83 218.42 346.81 218.38 346.77 218.37 346.75 218.41 346.75 218.46 346.77 218.52 346.77 218.54 346.75 218.47 346.71 218.43 346.69 218.45 346.66 218.49 346.66 218.53 346.69 218.58 346.75 218.64 346.79 218.64 346.8 218.64 346.82 218.62 346.83 218.6 346.82 218.58 346.82 218.58 346.83 218.6 346.85 218.62 346.87 218.63 346.9 218.65 346.91 218.68 346.91 218.73 346.92 218.76 346.92 218.82 346.98 218.85 346.99 218.88 347.06 218.89 347.07 218.93 347.1 219.06 347.29 219.15 347.38 219.19 347.41 219.21 347.43 219.23 347.46 219.26 347.48 219.27 347.49 219.29 347.49 219.33 347.51 219.36 347.51 219.4 347.49 219.52 347.52 219.54 347.51 219.6 347.51 219.66 347.54 219.78 347.55 219.86 347.53 219.98 347.53 220.06 347.51 220.16 347.5 220.26 347.49 220.27 347.5 220.29 347.49 220.31 347.48 220.33 347.46 220.51 347.4 220.67 347.33 220.71 347.32 220.79 347.32 220.84 347.31 220.86 347.28 220.88 347.26 220.93 347.2 220.95 347.17 220.98 347.15 220.98 347.15 220.99 347.13 221 347.11 221.02 347.11 221.06 347.07 221.11 347.04 221.19 347 221.22 346.98 221.25 346.95 221.38 346.88 221.54 346.81 221.76 346.74 222.02 346.72 222.05 346.71 222.12 346.67 222.15 346.66 222.22 346.65 222.31 346.63 222.38 346.6 222.44 346.57 222.52 346.48 222.61 346.4 222.66 346.35 222.67 346.32 222.71 346.25 222.77 346.23 222.78 346.23 222.79 346.25 222.79 346.34 222.79 346.36 222.8 346.37 222.82 346.38 222.85 346.39 222.87 346.37 222.88 346.33 222.89 346.29 222.9 346.27 222.94 346.3 222.94 346.28 222.93 346.24 222.93 346.22 222.93 346.22 222.94 346.23 222.96 346.22 222.93 346.18 222.95 346.16 222.98 346.17 223.02 346.17 223.07 346.19 223.11 346.26 223.13 346.28 223.12 346.23 223.11 346.2 223.1 346.17 223.13 346.13 223.16 346.1 223.22 346.08 223.26 346.05 223.27 346.05 223.27 346.03 223.28 346.02 223.28 346.02 223.3 345.99 223.32 345.98 223.35 345.96 223.37 345.9 223.38 345.85 223.42 345.83 223.44 345.81 223.43 345.8 223.4 345.81 223.38 345.82 223.37 345.8 223.39 345.79 223.4 345.78 223.41 345.76 223.44 345.75 223.47 345.73 223.49 345.7 223.53 345.69 223.56 345.7 223.61 345.68 223.66 345.66 223.7 345.67 223.71 345.7 223.72 345.72 223.73 345.73 223.7 345.75 223.7 345.76 223.72 345.77 223.72 345.78 223.73 345.79 223.74 345.79 223.75 345.78 223.76 345.77 223.76 345.76 223.78 345.76 223.79 345.77 223.81 345.78 223.85 345.79 223.86 345.77 223.87 345.73 223.88 345.75 223.9 345.76 223.91 345.76 223.93 345.75 224.01 345.77 224.14 345.78 224.28 345.82 224.35 345.85 224.45 345.86 224.5 345.84 224.54 345.82 224.59 345.83 224.63 345.83 224.66 345.82 224.71 345.81 224.78 345.8 224.85 345.79 224.95 345.78 224.98 345.8 224.98 345.83 224.94 345.85 224.91 345.84 224.89 345.86 224.87 345.86 224.8 345.87 224.76 345.88 224.74 345.92 224.74 345.97 224.75 346.04 224.79 346.05 224.83 346.05 224.85 346.06 224.88 346.05 224.91 346.05 224.93 346.04 224.96 346.05 224.99 346.05 225.03 346.06 225.05 346.07 225.07 346.09 225.09 346.1 225.1 346.12 225.11 346.12 225.14 346.11 225.16 346.11 225.18 346.12 225.21 346.12 225.22 346.1 225.25 346.09 225.29 346.1 225.35 346.09 225.37 346.07 225.41 346.08 225.43 346.07 225.46 346.06 225.49 346.05 225.51 346.08 225.54 346.09 225.57 346.09 225.65 346.11 225.7 346.11 225.73 346.13 225.76 346.13 225.79 346.12 225.82 346.1 225.86 346.09 225.89 346.09 225.93 346.12 225.96 346.13 226.04 346.13 226.07 346.16 226.1 346.15 226.13 346.16 226.15 346.18 226.18 346.21 226.24 346.23 226.26 346.25 226.29 346.26 226.35 346.27 226.4 346.29 226.43 346.32 226.46 346.33 226.48 346.34 226.51 346.35 226.54 346.35 226.56 346.37 226.6 346.39 226.64 346.41 226.67 346.42 226.71 346.42 226.73 346.42 226.76 346.44 226.79 346.44 226.83 346.47 226.85 346.5 226.9 346.51 226.98 346.52 227.02 346.53 227.05 346.56 227.05 346.59 227.1 346.64 227.13 346.64 227.17 346.66 227.24 346.74 227.28 346.8 227.31 346.84 227.34 346.89 227.42 346.94 227.41 346.91 227.4 346.88 227.37 346.83 227.37 346.8 227.41 346.82 227.44 346.87 227.46 346.89 227.52 346.93 227.53 346.98 227.55 347.01 227.57 347.02 227.61 347.05 227.62 347.08 227.64 347.1 227.66 347.12 227.67 347.14 227.64 347.18 227.69 347.23 227.72 347.3 227.74 347.33 227.76 347.31 227.77 347.31 227.77 347.34 227.82 347.37 227.86 347.41 227.91 347.47 227.95 347.49 227.94 347.47 227.93 347.46 227.92 347.44 227.91 347.42 227.92 347.41 227.95 347.43 227.97 347.46 227.98 347.47 228.04 347.52 228.04 347.56 228.08 347.6 228.09 347.56 228.11 347.56 228.13 347.6 228.12 347.64 228.12 347.67 228.11 347.7 228.14 347.72 228.21 347.77 228.26 347.8 228.33 347.81 228.4 347.8 228.44 347.78 228.45 347.79 228.46 347.8 228.47 347.8 228.49 347.81 Z" fill-rule="evenodd" id="Panama" transform="translate(-215.89999389648438,-345.6600036621094) "/></svg>