<svg xmlns="http://www.w3.org/2000/svg" viewBox="0 0 33.510009765625 22.819976806640625"><path d="M 739.72 392.11 739.77 392.12 739.81 392.11 739.83 392.11 739.84 392.14 739.86 392.15 739.89 392.16 739.91 392.16 739.96 392.2 739.99 392.21 740.04 392.22 740.06 392.23 740.12 392.28 740.26 392.33 740.36 392.4 740.39 392.41 740.44 392.41 740.69 392.48 740.71 392.5 740.72 392.52 740.74 392.54 740.76 392.56 740.81 392.57 740.82 392.59 740.84 392.63 740.85 392.64 740.86 392.64 740.88 392.65 740.88 392.66 740.87 392.68 740.86 392.69 740.85 392.68 740.84 392.67 740.82 392.68 740.81 392.69 740.79 392.68 740.78 392.67 740.75 392.69 740.72 392.7 740.7 392.7 740.67 392.69 740.66 392.72 740.65 392.72 740.63 392.71 740.62 392.7 740.52 392.7 740.51 392.7 740.5 392.69 740.49 392.69 740.47 392.69 740.46 392.71 740.45 392.72 740.42 392.73 740.4 392.74 740.38 392.74 740.37 392.7 740.39 392.71 740.4 392.7 740.42 392.69 740.41 392.67 740.4 392.66 740.38 392.66 740.37 392.67 740.34 392.67 740.32 392.67 740.31 392.65 740.3 392.64 740.3 392.63 740.27 392.63 740.25 392.64 740.24 392.64 740.21 392.63 740.22 392.62 740.23 392.6 740.21 392.59 740.2 392.59 740.2 392.57 740.2 392.55 740.18 392.57 740.16 392.59 740.14 392.6 740.12 392.61 740.03 392.56 740 392.58 739.98 392.57 739.97 392.54 739.97 392.5 739.98 392.49 740.01 392.47 740.02 392.45 740 392.42 739.98 392.42 739.97 392.42 739.96 392.44 739.95 392.44 739.93 392.44 739.92 392.43 739.91 392.41 739.88 392.42 739.84 392.44 739.79 392.49 739.78 392.44 739.86 392.4 739.86 392.36 739.84 392.35 739.8 392.35 739.77 392.35 739.75 392.33 739.73 392.29 739.71 392.26 739.69 392.26 739.67 392.27 739.66 392.27 739.65 392.25 739.66 392.2 739.66 392.19 739.63 392.18 739.61 392.17 739.6 392.16 739.58 392.14 739.58 392.13 739.58 392.1 739.58 392.07 739.61 392.02 739.72 392.11 Z M 741.87 392.02 741.88 392.04 741.89 392.05 741.91 392.04 741.96 392.06 741.98 392.07 741.99 392.09 741.99 392.12 742 392.14 742.02 392.17 742.04 392.18 742.02 392.21 742.01 392.23 741.99 392.24 741.96 392.26 741.94 392.22 741.9 392.21 741.85 392.2 741.81 392.21 741.73 392.25 741.7 392.25 741.69 392.19 741.67 392.19 741.66 392.25 741.63 392.28 741.58 392.28 741.52 392.26 741.49 392.26 741.47 392.25 741.46 392.22 741.45 392.2 741.43 392.19 741.41 392.18 741.38 392.18 741.39 392.16 741.41 392.15 741.43 392.14 741.45 392.13 741.43 392.12 741.41 392.09 741.43 392.09 741.44 392.09 741.45 392.1 741.48 392.12 741.58 392.13 741.63 392.15 741.64 392.13 741.67 392.15 741.68 392.14 741.68 392.12 741.67 392.1 741.66 392.1 741.66 392.12 741.64 392.12 741.63 392.11 741.61 392.1 741.6 392.09 741.61 392.07 741.59 392.06 741.58 392.05 741.57 392.03 741.57 392.01 741.61 392.02 741.67 392.02 741.76 392.01 741.79 392.02 741.81 392.02 741.83 392.02 741.85 392.01 741.87 392.02 Z M 739.71 391.86 739.7 391.88 739.69 391.9 739.67 391.92 739.64 391.91 739.64 391.92 739.62 391.93 739.59 391.94 739.56 391.94 739.58 391.92 739.59 391.92 739.59 391.9 739.53 391.86 739.51 391.87 739.5 391.87 739.5 391.85 739.48 391.84 739.41 391.8 739.37 391.76 739.38 391.73 739.41 391.72 739.44 391.73 739.47 391.76 739.58 391.78 739.67 391.85 739.71 391.86 Z M 738.16 390.46 738.31 390.5 738.34 390.5 738.36 390.5 738.43 390.54 738.45 390.55 738.52 390.53 738.6 390.49 738.67 390.47 738.73 390.49 738.74 390.49 738.82 390.52 738.85 390.54 738.87 390.56 738.86 390.58 738.85 390.6 738.82 390.61 738.79 390.62 738.69 390.63 738.67 390.63 738.63 390.65 738.6 390.66 738.55 390.66 738.49 390.64 738.36 390.58 738.22 390.55 738.13 390.49 738.13 390.47 738.15 390.48 738.15 390.47 738.16 390.47 738.16 390.46 Z M 734.8 390.42 734.82 390.43 734.84 390.42 734.84 390.41 734.85 390.4 734.87 390.41 734.87 390.42 734.87 390.43 734.87 390.43 734.88 390.43 734.82 390.48 734.82 390.5 734.87 390.51 734.85 390.52 734.83 390.54 734.82 390.55 734.82 390.57 734.79 390.58 734.75 390.56 734.73 390.51 734.71 390.5 734.62 390.5 734.58 390.49 734.57 390.52 734.57 390.55 734.57 390.58 734.55 390.6 734.53 390.53 734.52 390.5 734.53 390.46 734.55 390.44 734.57 390.42 734.6 390.4 734.64 390.4 734.76 390.4 734.78 390.4 734.8 390.42 Z M 734.31 390.29 734.32 390.31 734.35 390.3 734.38 390.3 734.41 390.3 734.44 390.27 734.47 390.29 734.49 390.31 734.5 390.33 734.47 390.37 734.49 390.38 734.48 390.4 734.48 390.44 734.47 390.46 734.49 390.48 734.49 390.5 734.48 390.52 734.46 390.54 734.41 390.52 734.36 390.5 734.3 390.49 734.26 390.51 734.24 390.46 734.22 390.44 734.2 390.43 734.22 390.41 734.25 390.44 734.28 390.45 734.32 390.47 734.36 390.47 734.41 390.47 734.42 390.47 734.41 390.46 734.26 390.32 734.25 390.3 734.25 390.28 734.27 390.27 734.29 390.27 734.31 390.29 Z M 737.17 389.97 737.14 389.97 737.15 389.95 737.18 389.95 737.17 389.97 Z M 736.66 389.82 736.64 389.85 736.64 389.83 736.66 389.82 Z M 736.63 389.64 736.62 389.67 736.61 389.65 736.63 389.63 736.63 389.64 Z M 734.82 388.93 734.85 388.97 734.8 388.96 734.79 388.99 734.8 389.04 734.81 389.06 734.84 389.08 734.92 389.14 734.96 389.16 735 389.17 735.02 389.17 735.03 389.16 735.05 389.13 735.05 389.11 735.04 389.09 735.03 389.08 735.02 389.06 735.05 389.03 735.11 388.97 735.17 388.93 735.26 388.9 735.35 388.91 735.38 389 735.37 389.05 735.33 389.15 735.31 389.24 735.25 389.37 735.23 389.39 735.24 389.41 735.22 389.48 735.23 389.52 735.19 389.49 735.11 389.42 735.06 389.4 734.84 389.34 734.73 389.32 734.68 389.32 734.65 389.32 734.62 389.31 734.61 389.27 734.61 389.21 734.61 389.15 734.64 389.14 734.66 389.12 734.68 389.09 734.7 389.06 734.68 389.05 734.66 389.04 734.64 389.02 734.61 388.97 734.59 388.97 734.6 389.03 734.56 389.07 734.51 389.07 734.49 389.03 734.48 389.01 734.47 389 734.46 389 734.46 388.99 734.45 388.97 734.46 388.86 734.45 388.84 734.4 388.78 734.4 388.76 734.39 388.74 734.37 388.71 734.35 388.7 734.31 388.69 734.3 388.68 734.3 388.66 734.29 388.65 734.28 388.65 734.24 388.64 734.23 388.64 734.2 388.61 734.19 388.59 734.17 388.56 734.17 388.52 734.17 388.48 734.18 388.44 734.19 388.41 734.26 388.44 734.3 388.48 734.34 388.52 734.35 388.57 734.37 388.62 734.42 388.65 734.48 388.67 734.53 388.7 734.68 388.86 734.72 388.88 734.77 388.9 734.82 388.93 Z M 734.79 388.32 734.76 388.33 734.74 388.32 734.74 388.3 734.73 388.28 734.72 388.28 734.71 388.26 734.65 388.23 734.62 388.2 734.63 388.16 734.67 388.14 734.71 388.14 734.74 388.15 734.77 388.16 734.77 388.18 734.78 388.19 734.78 388.2 734.77 388.23 734.76 388.24 734.75 388.24 734.76 388.26 734.76 388.27 734.77 388.27 734.78 388.28 734.79 388.29 734.79 388.32 Z M 733.95 387.8 733.99 387.82 734.02 387.82 734.07 387.79 734.11 387.79 734.15 387.78 734.18 387.73 734.27 387.79 734.34 387.86 734.35 387.87 734.35 387.88 734.35 387.92 734.35 387.93 734.37 387.95 734.4 387.97 734.44 387.99 734.46 387.99 734.47 388.01 734.46 388.09 734.45 388.11 734.43 388.12 734.41 388.12 734.42 388.15 734.45 388.16 734.48 388.16 734.49 388.17 734.51 388.22 734.53 388.24 734.55 388.25 734.56 388.27 734.56 388.3 734.55 388.32 734.53 388.35 734.5 388.36 734.48 388.34 734.44 388.36 734.36 388.44 734.37 388.4 734.39 388.35 734.4 388.32 734.38 388.3 734.34 388.3 734.28 388.3 734.28 388.34 734.24 388.33 734.15 388.3 734.01 388.31 733.96 388.31 733.88 388.29 733.8 388.26 733.72 388.23 733.62 388.24 733.53 388.25 733.46 388.25 733.45 388.24 733.49 388.2 733.56 388.15 733.61 388.12 733.64 388.09 733.64 388.06 733.64 388.02 733.62 387.99 733.51 387.93 733.45 387.78 733.44 387.71 733.46 387.66 733.5 387.62 733.56 387.6 733.62 387.6 733.75 387.66 733.82 387.68 733.85 387.71 733.89 387.76 733.95 387.8 Z M 733.31 387.65 733.32 387.67 733.32 387.67 733.34 387.69 733.34 387.71 733.34 387.71 733.33 387.72 733.32 387.73 733.31 387.77 733.27 387.85 733.25 387.88 733.24 387.89 733.26 387.9 733.3 387.9 733.3 387.92 733.3 387.94 733.29 387.96 733.25 388 733.19 388 733.13 387.98 733.08 387.95 733.07 387.95 733.07 387.96 733.07 387.96 733.06 387.96 733.06 387.93 733.06 387.89 733.05 387.87 733.02 387.85 732.99 387.85 732.9 387.82 732.88 387.81 732.87 387.79 732.85 387.76 732.84 387.74 732.75 387.67 732.74 387.65 732.74 387.57 732.75 387.51 732.77 387.45 732.82 387.39 732.87 387.35 732.92 387.31 732.98 387.3 733.03 387.32 733.15 387.38 733.2 387.42 733.24 387.47 733.28 387.57 733.29 387.62 733.31 387.65 Z M 737.98 386.73 738.08 386.83 738.26 386.82 738.36 386.83 738.41 386.84 738.49 386.86 738.56 386.84 738.6 386.84 738.65 386.84 738.69 386.85 738.73 386.87 738.75 386.9 738.77 386.91 738.81 386.97 738.85 387 738.93 387.02 738.97 387 739.02 387.03 739.04 387.05 739.04 387.11 739.09 387.13 739.14 387.16 739.18 387.18 739.14 387.2 739.13 387.23 739.14 387.24 739.13 387.25 739.12 387.27 739.1 387.28 739.07 387.27 739.06 387.25 739.03 387.23 739.01 387.24 738.99 387.27 739 387.29 739.04 387.32 739.08 387.35 739.1 387.39 739.08 387.41 739.06 387.42 739.05 387.38 739.02 387.35 738.98 387.35 738.92 387.4 738.83 387.41 738.78 387.42 738.77 387.41 738.73 387.41 738.71 387.38 738.68 387.34 738.65 387.32 738.62 387.3 738.6 387.27 738.58 387.25 738.57 387.27 738.54 387.3 738.55 387.33 738.6 387.34 738.6 387.38 738.56 387.42 738.53 387.36 738.49 387.34 738.42 387.32 738.39 387.3 738.36 387.25 738.38 387.22 738.42 387.26 738.48 387.26 738.46 387.23 738.47 387.2 738.49 387.19 738.5 387.19 738.52 387.19 738.5 387.16 738.48 387.15 738.45 387.14 738.41 387.12 738.34 387.07 738.29 387.03 738.26 387 738.2 387.02 738.18 387 738.16 386.98 738.12 386.96 738.06 386.93 737.98 386.94 737.96 386.92 738.04 386.89 738.04 386.88 738.03 386.84 737.98 386.79 737.93 386.77 737.88 386.8 737.87 386.84 737.88 386.88 737.88 386.97 737.88 387 737.87 387.03 737.85 386.92 737.79 386.82 737.83 386.78 737.94 386.72 737.98 386.73 Z M 718.79 385.8 718.75 385.81 718.72 385.79 718.71 385.76 718.74 385.74 718.76 385.73 718.78 385.72 718.79 385.72 718.81 385.73 718.81 385.75 718.79 385.8 Z M 735 385.56 735 385.56 734.99 385.56 734.99 385.56 734.99 385.67 734.98 385.72 734.96 385.76 735.02 385.84 735.02 385.93 734.95 386.24 734.95 386.3 734.97 386.33 735 386.34 735.02 386.39 735.04 386.43 735.03 386.47 735.01 386.44 734.94 386.33 734.82 386.25 734.81 386.23 734.82 386.22 734.93 386.07 734.98 385.96 734.99 385.91 734.98 385.91 734.94 385.87 734.92 385.85 734.9 385.84 734.77 385.83 734.73 385.81 734.71 385.77 734.75 385.72 734.76 385.69 734.77 385.67 734.78 385.64 734.81 385.6 734.85 385.57 734.9 385.56 735 385.55 735 385.56 Z M 718.41 386.23 718.38 386.24 718.35 386.22 718.34 386.18 718.33 386.15 718.29 386.13 718.03 386.01 717.98 385.97 717.96 385.96 717.93 385.95 717.9 385.94 717.89 385.92 717.87 385.89 717.73 385.78 717.61 385.74 717.55 385.72 717.53 385.7 717.47 385.63 717.45 385.6 717.4 385.57 717.38 385.55 717.41 385.55 717.44 385.54 717.47 385.54 717.55 385.63 717.58 385.66 717.78 385.7 717.97 385.77 718.01 385.78 718.04 385.79 718.05 385.81 718.07 385.85 718.29 386.02 718.33 386.04 718.38 386.05 718.41 386.09 718.43 386.14 718.43 386.19 718.41 386.23 Z M 717.79 385.43 717.81 385.44 717.84 385.44 717.91 385.43 718.06 385.43 718.26 385.45 718.28 385.46 718.28 385.52 718.29 385.55 718.32 385.61 718.34 385.64 718.34 385.67 718.32 385.69 718.27 385.7 718.16 385.7 718.11 385.69 718.01 385.64 717.97 385.59 717.92 385.58 717.82 385.56 717.78 385.54 717.72 385.49 717.69 385.44 717.73 385.41 717.76 385.41 717.78 385.42 717.79 385.43 Z M 718.49 385.55 718.46 385.57 718.42 385.56 718.37 385.53 718.29 385.44 718.18 385.4 718.2 385.36 718.31 385.36 718.4 385.37 718.44 385.41 718.47 385.45 718.48 385.49 718.48 385.51 718.49 385.53 718.49 385.55 Z M 718.51 384.96 718.46 384.99 718.39 384.98 718.34 384.93 718.31 384.86 718.34 384.83 718.4 384.84 718.43 384.85 718.45 384.86 718.49 384.89 718.51 384.92 718.51 384.96 Z M 718.53 384.82 718.51 384.84 718.48 384.82 718.42 384.81 718.33 384.8 718.27 384.77 718.26 384.73 718.23 384.68 718.26 384.66 718.34 384.66 718.44 384.71 718.48 384.74 718.5 384.76 718.53 384.82 Z M 727.69 379.05 727.7 379.06 727.7 379.05 727.71 379.05 727.72 379.05 727.73 379.05 727.75 379.07 727.8 379.13 727.83 379.15 727.87 379.17 727.95 379.18 728.01 379.2 728.07 379.24 728.18 379.31 728.23 379.37 728.24 379.42 728.22 379.62 728.17 379.73 728.15 379.79 728.13 379.78 728.12 379.77 728.12 379.79 728.12 379.82 728.12 379.83 728.1 379.83 728.08 379.83 728.06 379.84 728.05 379.86 728.04 379.84 728.03 379.76 728.02 379.73 728 379.71 727.97 379.7 727.91 379.68 727.84 379.67 727.8 379.66 727.77 379.62 727.77 379.6 727.76 379.56 727.74 379.54 727.66 379.47 727.63 379.44 727.59 379.36 727.55 379.32 727.55 379.3 727.55 379.29 727.56 379.23 727.55 379.12 727.56 379.09 727.58 379.07 727.64 379.06 727.67 379.03 727.67 379.04 727.68 379.04 727.69 379.05 Z M 743.16 379.04 743.21 379.11 743.24 379.1 743.29 379.12 743.32 379.16 743.34 379.2 743.36 379.18 743.37 379.17 743.4 379.17 743.42 379.15 743.44 379.16 743.48 379.17 743.62 379.17 743.65 379.18 743.63 379.2 743.63 379.21 743.66 379.23 743.67 379.21 743.68 379.19 743.69 379.18 743.73 379.18 743.74 379.19 743.74 379.21 743.74 379.23 743.72 379.25 743.72 379.27 743.73 379.27 743.77 379.29 743.78 379.29 743.79 379.32 743.81 379.37 743.86 379.43 743.91 379.53 743.94 379.58 743.96 379.59 743.97 379.6 743.98 379.61 744 379.63 744.01 379.64 744.01 379.66 744 379.74 744.01 379.78 744.04 379.86 744.06 379.89 744.09 379.88 744.13 379.9 744.16 379.91 744.2 379.92 744.31 380.04 744.32 380.05 744.33 380.06 744.34 380.08 744.35 380.08 744.38 380.07 744.39 380.08 744.4 380.09 744.43 380.13 744.46 380.16 744.48 380.2 744.5 380.31 744.51 380.33 744.59 380.49 744.7 380.6 744.71 380.61 744.74 380.6 744.76 380.59 744.78 380.56 744.8 380.58 744.82 380.61 744.84 380.65 744.89 380.67 744.95 380.66 744.96 380.64 744.96 380.6 745 380.58 745 380.59 744.99 380.6 744.99 380.61 745 380.62 745.01 380.64 745.01 380.66 745.06 380.72 745.08 380.77 745.1 380.78 745.12 380.79 745.14 380.79 745.17 380.8 745.18 380.83 745.21 380.88 745.24 380.91 745.26 380.94 745.3 380.96 745.34 380.97 745.39 380.99 745.42 381.04 745.47 381.14 745.52 381.2 745.57 381.26 745.62 381.33 745.64 381.41 745.63 381.44 745.62 381.48 745.62 381.5 745.63 381.53 745.65 381.58 745.65 381.6 745.67 381.65 745.72 381.74 745.73 381.79 745.71 381.84 745.68 381.89 745.65 381.94 745.61 381.97 745.63 381.87 745.63 381.82 745.61 381.79 745.59 381.81 745.53 381.96 745.48 381.89 745.39 381.91 745.31 381.97 745.26 382.02 745.2 382.09 745.17 382.11 745.13 382.12 745.1 382.12 745.06 382.1 745.04 382.09 744.94 382.09 744.84 382.07 744.74 382.04 744.57 381.96 744.48 381.88 744.46 381.87 744.42 381.86 744.38 381.83 744.32 381.78 744.29 381.75 744.27 381.7 744 381.41 743.97 381.35 744.01 381.35 744.02 381.36 744.04 381.37 744.08 381.29 744.1 381.19 744.11 381.08 744.1 380.99 744.06 380.88 743.99 380.83 743.77 380.76 743.69 380.72 743.64 380.68 743.59 380.66 743.56 380.64 743.54 380.62 743.54 380.61 743.53 380.56 743.49 380.47 743.46 380.43 743.45 380.42 743.43 380.4 743.33 380.35 743.27 380.28 743.21 380.24 743.18 380.22 743.15 380.19 743.14 380.16 743.13 380.13 743.04 380.07 743.02 380.02 743.02 380 743.01 379.95 743.01 379.93 743.02 379.91 743.03 379.89 743.04 379.86 743.03 379.82 743 379.78 742.95 379.73 742.93 379.7 742.92 379.68 742.92 379.67 742.92 379.65 742.96 379.55 742.99 379.37 743.01 379.32 743.01 379.28 742.98 379.24 742.98 379.23 742.99 379.22 742.99 379.22 742.99 379.22 742.99 379.21 743.03 379.25 743.05 379.26 743.07 379.24 743.07 379.21 743.06 379.17 743.05 379.14 743.04 379.11 743.01 379.06 742.91 378.97 742.92 378.92 742.99 378.91 743.08 378.96 743.16 379.04 Z M 728.4 378.96 728.33 379 728.27 378.98 728.24 378.92 728.24 378.85 728.29 378.8 728.35 378.84 728.39 378.9 728.4 378.96 Z M 727.29 378.68 727.27 378.72 727.24 378.74 727.18 378.77 727.13 378.71 727.13 378.71 727.11 378.71 727.1 378.71 727.1 378.7 727.1 378.69 727.1 378.68 727.1 378.67 727.1 378.65 727.12 378.63 727.16 378.61 727.2 378.61 727.24 378.61 727.25 378.63 727.27 378.66 727.29 378.68 Z M 726.35 378.91 726.33 378.92 726.31 378.92 726.3 378.91 726.28 378.91 726.26 378.92 726.21 378.95 726.13 378.95 726.07 378.91 725.98 378.8 725.9 378.74 725.87 378.71 725.86 378.68 725.86 378.64 725.87 378.56 725.89 378.51 725.91 378.49 725.99 378.47 726.03 378.45 726.06 378.42 726.1 378.39 726.15 378.39 726.22 378.48 726.25 378.5 726.31 378.52 726.31 378.54 726.31 378.57 726.32 378.62 726.33 378.67 726.36 378.72 726.39 378.74 726.39 378.76 726.36 378.79 726.35 378.83 726.35 378.88 726.35 378.91 Z M 742.9 378.21 742.89 378.28 742.89 378.31 742.9 378.35 742.92 378.37 742.95 378.38 742.97 378.4 742.98 378.44 742.98 378.51 742.92 378.71 742.91 378.85 742.89 378.91 742.84 378.94 742.86 378.89 742.82 378.9 742.81 378.93 742.79 378.96 742.77 378.99 742.73 378.83 742.64 378.61 742.63 378.55 742.61 378.5 742.61 378.47 742.64 378.45 742.65 378.44 742.66 378.4 742.66 378.28 742.65 378.23 742.62 378.22 742.55 378.27 742.57 378.2 742.62 378.12 742.69 378.05 742.75 378 742.82 378.01 742.87 378.07 742.9 378.15 742.9 378.21 Z M 735.15 377.86 735.1 377.87 735.06 377.87 735.04 377.85 735.01 377.83 734.98 377.81 734.99 377.78 735.02 377.75 735.04 377.74 735.07 377.72 735.11 377.72 735.13 377.73 735.17 377.75 735.21 377.79 735.21 377.82 735.18 377.85 735.15 377.86 Z M 730.68 377.74 730.63 377.8 730.6 377.79 730.57 377.77 730.55 377.74 730.55 377.71 730.57 377.7 730.66 377.67 730.68 377.7 730.68 377.74 Z M 724.22 377.58 724.22 377.61 724.2 377.6 724.19 377.59 724.19 377.6 724.19 377.6 724.18 377.61 724.17 377.61 724.18 377.64 724.15 377.65 724.1 377.62 724.08 377.58 724.09 377.55 724.1 377.52 724.13 377.5 724.17 377.5 724.21 377.55 724.22 377.58 Z M 731.5 377.22 731.53 377.25 731.54 377.28 731.54 377.32 731.53 377.34 731.53 377.35 731.51 377.35 731.5 377.34 731.49 377.32 731.49 377.31 731.47 377.29 731.46 377.26 731.45 377.24 731.42 377.23 731.39 377.23 731.37 377.26 731.39 377.28 731.42 377.29 731.41 377.31 731.39 377.32 731.34 377.33 731.29 377.29 731.32 377.24 731.38 377.2 731.43 377.18 731.47 377.2 731.5 377.22 Z M 723.56 377.43 723.5 377.44 723.47 377.43 723.39 377.36 723.38 377.35 723.37 377.31 723.36 377.28 723.36 377.24 723.37 377.2 723.4 377.1 723.43 377.07 723.54 376.95 723.58 376.93 723.63 376.94 723.66 376.97 723.74 377.05 723.75 377.09 723.76 377.14 723.76 377.22 723.74 377.24 723.74 377.26 723.73 377.31 723.72 377.34 723.7 377.36 723.62 377.41 723.56 377.43 Z M 741.79 376.79 741.86 376.81 741.9 376.86 741.93 376.92 741.93 376.99 741.88 377.04 741.82 377.03 741.78 376.97 741.78 376.91 741.79 376.93 741.81 376.98 741.82 377 741.85 377.02 741.86 377.01 741.89 376.98 741.9 376.93 741.87 376.87 741.82 376.83 741.78 376.8 741.77 376.81 741.77 376.81 741.77 376.82 741.76 376.82 741.76 376.8 741.77 376.8 741.79 376.79 Z M 741.72 376.73 741.7 376.73 741.69 376.68 741.67 376.63 741.66 376.6 741.69 376.58 741.7 376.6 741.71 376.64 741.72 376.73 Z M 737.45 376.18 737.48 376.28 737.47 376.3 737.44 376.31 737.43 376.31 737.39 376.3 737.37 376.29 737.37 376.27 737.36 376.25 737.35 376.23 737.33 376.23 737.31 376.25 737.32 376.28 737.33 376.33 737.33 376.42 737.35 376.44 737.39 376.46 737.4 376.45 737.42 376.44 737.44 376.43 737.46 376.44 737.48 376.45 737.5 376.48 737.52 376.49 737.55 376.5 737.68 376.52 737.72 376.52 737.82 376.49 737.85 376.49 737.86 376.52 737.85 376.56 737.74 376.8 737.73 376.88 737.75 376.96 737.82 377.09 737.84 377.18 737.85 377.27 737.81 377.41 737.79 377.51 737.65 377.73 737.62 377.74 737.62 377.75 737.58 377.83 737.56 377.84 737.53 377.86 737.48 377.92 737.45 377.93 737.35 377.95 737.28 377.97 737.24 377.97 737.12 377.94 737.09 377.94 737.05 377.93 737.02 377.92 736.99 377.94 736.96 377.93 736.92 377.91 736.88 377.94 736.86 377.98 736.87 378.24 736.88 378.3 736.91 378.33 737.02 378.42 737.03 378.44 737.04 378.46 737.05 378.48 737.07 378.49 737.11 378.5 737.21 378.61 737.22 378.65 737.26 378.73 737.27 378.79 737.2 378.91 737.19 378.91 737.17 378.93 737.17 378.95 737.16 378.96 737.15 378.98 737.13 378.98 737.11 378.98 737.08 378.99 736.98 379.04 736.96 379.05 736.87 379.15 736.85 379.16 736.78 379.17 736.71 379.19 736.68 379.2 736.65 379.21 736.61 379.25 736.57 379.28 736.51 379.29 736.46 379.26 736.4 379.18 736.36 379.15 736.31 379.14 736.26 379.14 736.2 379.14 736.17 379.16 736.11 379.23 736.09 379.24 736.06 379.23 736.06 379.22 736.05 379.2 736.04 379.17 736 379.15 735.85 379.15 735.78 379.14 735.75 379.15 735.72 379.18 735.7 379.23 735.72 379.27 735.74 379.3 735.75 379.33 735.76 379.33 735.81 379.34 735.83 379.34 735.89 379.4 735.9 379.44 735.86 379.48 735.8 379.5 735.75 379.48 735.71 379.5 735.67 379.53 735.64 379.57 735.63 379.6 735.62 379.64 735.61 379.68 735.59 379.72 735.57 379.75 735.5 379.81 735.48 379.83 735.41 379.86 735.37 379.87 735.35 379.86 735.32 379.9 735.24 379.96 735.2 380 735.19 380.02 735.19 380.04 735.18 380.06 735.12 380.1 735.11 380.1 735.1 380.08 734.97 380.12 734.91 380.15 734.88 380.19 734.85 380.25 734.78 380.25 734.66 380.23 734.5 380.26 734.47 380.28 734.45 380.3 734.41 380.28 734.33 380.21 734.32 380.21 734.31 380.24 734.3 380.26 734.29 380.29 734.31 380.34 734.3 380.37 734.28 380.39 734.26 380.45 734.24 380.46 734.2 380.47 734.12 380.5 734.04 380.51 734.02 380.52 734 380.54 733.99 380.54 733.98 380.53 733.96 380.51 733.93 380.51 733.89 380.53 733.84 380.56 733.82 380.59 733.81 380.59 733.81 380.59 733.81 380.59 733.8 380.58 733.72 380.65 733.68 380.69 733.63 380.7 733.61 380.71 733.56 380.77 733.53 380.79 733.43 380.81 733.38 380.82 733.34 380.81 733.31 380.8 733.29 380.81 733.27 380.83 733.25 380.83 733.24 380.83 733.24 380.82 733.23 380.81 733.22 380.8 733.21 380.81 733.19 380.82 733.11 380.83 733.05 380.84 733.01 380.83 732.99 380.79 732.97 380.78 732.92 380.77 732.91 380.76 732.89 380.75 732.86 380.76 732.82 380.78 732.78 380.82 732.73 380.85 732.69 380.84 732.68 380.83 732.68 380.82 732.68 380.8 732.68 380.78 732.67 380.78 732.65 380.77 732.62 380.75 732.61 380.76 732.59 380.8 732.58 380.81 732.56 380.82 732.58 380.84 732.58 380.86 732.56 380.88 732.53 380.89 732.53 380.86 732.52 380.83 732.5 380.8 732.48 380.79 732.44 380.79 732.41 380.81 732.37 380.83 732.33 380.86 732.3 380.83 732.28 380.83 732.26 380.83 732.24 380.83 732.18 380.83 732.17 380.83 732.11 380.82 731.9 380.82 731.88 380.83 731.84 380.86 731.81 380.86 731.76 380.85 731.73 380.85 731.69 380.86 731.68 380.84 731.59 380.78 731.57 380.76 731.56 380.73 731.53 380.68 731.49 380.62 731.37 380.45 731.31 380.41 731.1 380.35 731.06 380.32 731.03 380.31 730.99 380.3 730.96 380.31 730.9 380.35 730.88 380.36 730.86 380.37 730.81 380.39 730.77 380.39 730.7 380.39 730.68 380.38 730.66 380.36 730.64 380.36 730.65 380.4 730.64 380.44 730.62 380.48 730.6 380.5 730.57 380.51 730.48 380.51 730.46 380.52 730.43 380.54 730.4 380.54 730.4 380.5 730.42 380.49 730.45 380.49 730.46 380.49 730.45 380.46 730.46 380.43 730.45 380.38 730.41 380.35 730.36 380.33 730.38 380.3 730.4 380.27 730.42 380.24 730.4 380.2 730.38 380.24 730.36 380.24 730.34 380.24 730.31 380.24 730.14 380.17 730.05 380.15 729.99 380.17 729.97 380.15 729.96 380.14 729.97 380.12 729.98 380.1 730 380.09 730.02 380.08 730.01 380.05 729.99 380.05 729.98 380.05 729.96 380.04 729.95 380.03 729.95 380.02 729.94 380 729.92 380 729.85 379.99 729.82 380 729.79 380.03 729.78 380.01 729.79 379.98 729.79 379.95 729.78 379.93 729.78 379.9 729.76 379.88 729.72 379.88 729.69 379.88 729.67 379.87 729.66 379.84 729.63 379.84 729.56 379.85 729.53 379.83 729.48 379.78 729.44 379.76 729.39 379.8 729.36 379.82 729.33 379.83 729.29 379.82 729.22 379.76 729.19 379.74 729.14 379.73 729.04 379.73 729 379.7 728.98 379.69 728.95 379.69 728.92 379.68 728.91 379.66 728.84 379.58 728.8 379.48 728.79 379.4 728.82 379.15 728.86 379.07 728.92 379.01 729 378.97 729.01 378.97 729.02 378.97 729.02 378.96 729.02 378.95 729.05 378.97 729.08 378.98 729.13 379.02 729.15 379.03 729.19 379.04 729.21 379.05 729.22 379.07 729.23 379.11 729.24 379.13 729.3 379.16 729.37 379.15 729.43 379.11 729.48 379.05 729.51 379.03 729.54 379.04 729.61 379.06 729.69 379.05 729.72 379.06 729.74 379.08 729.76 379.1 729.79 379.12 729.82 379.14 729.91 379.15 729.95 379.17 729.95 379.14 729.96 379.12 730.01 379.11 730.04 379.08 730.06 379.07 730.09 379.07 730.12 379.07 730.23 379 730.41 379.07 730.43 379.1 730.47 379.1 730.64 379.18 730.67 379.2 730.69 379.2 730.7 379.2 730.71 379.21 730.73 379.22 730.75 379.26 730.75 379.26 730.77 379.28 730.78 379.3 731.06 379.26 731.12 379.24 731.15 379.27 731.18 379.26 731.2 379.23 731.24 379.21 731.25 379.23 731.28 379.26 731.3 379.26 731.31 379.23 731.37 379.27 731.39 379.27 731.41 379.25 731.43 379.19 731.46 379.18 731.5 379.17 731.65 379.11 731.65 379.12 731.66 379.12 731.67 379.13 731.68 379.14 731.69 379.12 731.71 379.11 731.73 379.11 731.75 379.12 731.77 379.1 731.78 379.08 731.78 379.05 731.77 379.03 731.78 379.03 731.78 379.03 731.78 379.04 731.78 379.05 731.8 379.05 731.82 379.08 731.82 379.12 731.8 379.19 731.82 379.21 731.86 379.22 731.88 379.23 731.91 379.22 731.93 379.2 731.95 379.19 731.99 379.18 732.01 379.17 732.03 379.15 732.04 379.12 732.04 379.09 732.06 379.09 732.13 379.13 732.22 379.14 732.3 379.11 732.38 379.06 732.4 379.03 732.46 378.94 732.47 378.9 732.46 378.87 732.44 378.86 732.42 378.86 732.39 378.85 732.37 378.83 732.34 378.77 732.31 378.74 732.33 378.72 732.35 378.67 732.36 378.65 732.37 378.64 732.4 378.61 732.41 378.6 732.45 378.57 732.49 378.55 732.53 378.52 732.56 378.47 732.56 378.44 732.56 378.42 732.54 378.38 732.54 378.38 732.51 378.36 732.51 378.35 732.52 378.32 732.53 378.28 732.55 378.24 732.56 378.22 732.55 378.21 732.53 378.19 732.53 378.17 732.53 378.16 732.53 378.15 732.54 378.15 732.58 378.05 732.65 378 732.75 377.99 732.85 378.02 732.9 378.04 732.92 378.06 732.94 378.08 732.95 378.11 732.94 378.13 732.93 378.14 732.92 378.16 732.9 378.2 732.86 378.22 732.76 378.24 732.72 378.27 732.67 378.32 732.64 378.37 732.67 378.42 732.68 378.47 732.69 378.52 732.68 378.56 732.67 378.57 732.62 378.58 732.6 378.59 732.58 378.61 732.57 378.62 732.61 378.66 732.62 378.68 732.63 378.73 732.69 378.82 732.75 378.95 732.76 378.98 732.76 379.02 732.77 379.07 732.79 379.11 732.82 379.15 732.86 379.18 732.9 379.19 733.06 379.2 733.1 379.22 733.14 379.22 733.18 379.21 733.2 379.19 733.21 379.15 733.24 379.12 733.26 379.11 733.3 379.09 733.36 379.04 733.39 379.03 733.41 378.99 733.42 378.99 733.44 378.98 733.55 378.96 733.59 378.96 733.63 378.97 733.77 379.02 733.81 379.05 733.83 379.08 733.84 379.12 733.87 379.17 733.91 379.2 733.95 379.19 733.98 379.17 734.06 379.16 734.09 379.15 734.15 379.1 734.18 379.07 734.2 379.03 734.19 379 734.19 378.98 734.21 378.97 734.23 378.99 734.29 378.95 734.36 378.97 734.41 379.02 734.44 379.06 734.51 379.05 734.53 379.05 734.55 379.03 734.59 378.99 734.63 378.97 734.68 378.94 734.72 378.91 734.74 378.88 734.77 378.83 734.77 378.79 734.76 378.69 734.77 378.64 734.79 378.54 734.85 378.41 734.9 378.33 734.96 378.26 735.02 378.21 735.03 378.2 735.07 378.19 735.08 378.18 735.12 378.13 735.15 378.11 735.22 378.02 735.25 377.98 735.25 377.98 735.27 377.99 735.28 377.98 735.28 377.98 735.28 377.96 735.28 377.95 735.3 377.95 735.36 377.93 735.38 377.92 735.39 377.9 735.42 377.88 735.45 377.87 735.48 377.86 735.51 377.85 735.52 377.82 735.53 377.76 735.55 377.76 735.58 377.78 735.72 377.82 735.77 377.84 735.81 377.84 735.85 377.83 735.9 377.79 735.99 377.83 736.07 377.89 736.12 377.88 736.15 377.86 736.18 377.82 736.22 377.75 736.24 377.71 736.25 377.67 736.25 377.61 736.25 377.61 736.26 377.6 736.26 377.6 736.26 377.58 736.26 377.57 736.25 377.56 736.24 377.56 736.23 377.55 736.23 377.53 736.2 377.48 736.19 377.45 736.18 377.37 736.2 377.19 736.17 377.1 736.13 377.04 736.11 377 736.1 376.95 736.1 376.85 736.09 376.81 736.07 376.76 736.04 376.72 735.97 376.67 735.94 376.64 735.94 376.62 735.93 376.6 735.93 376.55 735.92 376.53 735.88 376.49 735.87 376.47 735.87 376.45 735.87 376.43 735.88 376.41 735.88 376.4 735.88 376.38 735.85 376.32 735.84 376.27 735.85 376.23 735.87 376.2 735.91 376.15 735.95 376.17 736.07 376.19 736.16 376.18 736.19 376.19 736.23 376.21 736.25 376.21 736.28 376.21 736.31 376.2 736.33 376.21 736.33 376.24 736.36 376.22 736.41 376.22 736.5 376.23 736.53 376.23 736.61 376.27 736.63 376.29 736.64 376.33 736.65 376.39 736.67 376.44 736.71 376.46 736.76 376.47 736.86 376.49 736.9 376.49 736.93 376.47 737 376.37 737.01 376.33 736.99 376.29 736.95 376.26 736.93 376.23 736.95 376.19 736.99 376.19 737.04 376.21 737.08 376.23 737.09 376.23 737.12 376.22 737.14 376.21 737.15 376.21 737.16 376.2 737.21 376.21 737.24 376.21 737.26 376.18 737.27 376.13 737.29 376.09 737.34 376.08 737.38 376.12 737.42 376.15 737.45 376.18 Z M 738.03 376.23 738.01 376.23 738 376.22 737.95 376.21 737.94 376.21 737.93 376.18 737.93 376.15 737.92 376.14 737.89 376.12 737.95 376.08 737.96 376.06 737.98 376.03 738 376.05 738.01 376.06 738.05 376.1 738.06 376.14 738.04 376.18 738.03 376.23 Z M 721.63 375.88 721.65 375.91 721.66 375.94 721.65 375.99 721.64 376.02 721.62 376.04 721.59 376.05 721.54 376.05 721.5 376.03 721.48 376 721.47 375.96 721.47 375.92 721.48 375.89 721.49 375.89 721.51 375.89 721.52 375.9 721.55 375.87 721.57 375.86 721.59 375.87 721.63 375.88 Z M 740.64 375.96 740.61 376.03 740.55 376.05 740.49 375.99 740.48 375.98 740.47 375.98 740.46 375.98 740.46 375.97 740.46 375.96 740.46 375.95 740.47 375.94 740.48 375.91 740.51 375.87 740.52 375.86 740.54 375.84 740.58 375.81 740.61 375.81 740.62 375.85 740.61 375.87 740.64 375.96 Z M 740.81 375.8 740.8 375.83 740.77 375.85 740.74 375.85 740.72 375.83 740.69 375.81 740.65 375.82 740.67 375.8 740.72 375.78 740.74 375.76 740.79 375.77 740.81 375.8 Z M 720.57 374.7 720.56 374.7 720.55 374.7 720.53 374.7 720.52 374.7 720.51 374.69 720.51 374.67 720.53 374.66 720.55 374.67 720.57 374.68 720.57 374.7 Z M 739.72 374.62 739.73 374.66 739.71 374.65 739.7 374.65 739.7 374.65 739.7 374.66 739.67 374.63 739.6 374.61 739.58 374.6 739.64 374.55 739.67 374.54 739.71 374.59 739.72 374.62 Z M 739.92 374.43 739.91 374.48 739.88 374.44 739.84 374.43 739.79 374.44 739.74 374.45 739.75 374.42 739.77 374.4 739.82 374.37 739.88 374.37 739.91 374.39 739.92 374.43 Z M 718.28 374.39 718.24 374.39 718.18 374.37 718.17 374.36 718.14 374.35 718.11 374.32 718.11 374.3 718.12 374.29 718.13 374.26 718.14 374.25 718.19 374.26 718.24 374.29 718.3 374.33 718.31 374.37 718.28 374.39 Z M 743 374.53 742.99 374.57 742.93 374.45 742.88 374.33 742.8 374.21 742.73 374.09 742.59 374.01 742.69 374.02 742.76 374.06 742.79 374.14 742.84 374.24 742.96 374.43 743 374.53 Z M 719.5 374.06 719.46 374.1 719.38 374.08 719.34 374.03 719.36 373.99 719.41 373.97 719.47 374.03 719.5 374.06 Z M 738.38 374.03 738.36 374.05 738.34 374.04 738.27 373.99 738.25 373.97 738.14 373.85 738.12 373.82 738.1 373.77 738.11 373.72 738.16 373.68 738.21 373.65 738.29 373.64 738.38 373.66 738.37 373.78 738.38 373.81 738.39 373.82 738.41 373.83 738.42 373.84 738.42 373.86 738.42 373.88 738.41 373.92 738.38 373.99 738.38 374.03 Z M 734.68 373.45 734.7 373.46 734.72 373.47 734.75 373.47 734.76 373.47 734.77 373.49 734.74 373.5 734.7 373.52 734.69 373.49 734.66 373.48 734.61 373.49 734.51 373.49 734.4 373.47 734.35 373.47 734.32 373.51 734.29 373.5 734.27 373.5 734.25 373.52 734.22 373.52 734.21 373.51 734.22 373.49 734.28 373.45 734.31 373.46 734.36 373.42 734.46 373.34 734.59 373.39 734.64 373.42 734.68 373.45 Z M 737.05 373.55 736.99 373.55 736.94 373.49 736.92 373.44 736.92 373.36 736.91 373.33 736.89 373.32 736.86 373.31 736.84 373.28 736.86 373.28 736.85 373.25 736.87 373.22 736.9 373.21 736.92 373.24 736.95 373.29 736.99 373.33 737.03 373.36 737.09 373.37 737.11 373.4 737.11 373.46 737.07 373.5 737.05 373.55 Z M 736.92 373.12 736.93 373.15 736.95 373.14 736.96 373.13 736.95 373.16 736.9 373.19 736.86 373.2 736.77 373.23 736.75 373.21 736.75 373.15 736.74 373.09 736.73 373.01 736.74 372.91 736.79 372.91 736.89 372.94 736.9 372.95 736.94 372.99 736.96 373 736.95 373.02 736.96 373.06 736.95 373.1 736.92 373.12 736.92 373.12 Z M 736.97 372.81 736.89 372.81 736.85 372.79 736.85 372.74 736.88 372.68 736.93 372.66 736.97 372.68 737 372.72 737.01 372.75 737.02 372.77 737.01 372.78 737 372.79 736.99 372.81 736.97 372.81 Z M 712.5 387.08 712.5 386.82 712.5 386.39 712.5 385.98 712.5 385.58 712.5 385 712.5 384.62 712.5 384.53 712.5 384.11 712.5 383.7 712.5 383.12 712.5 383.02 712.5 382.75 712.5 382.41 712.5 382.17 712.47 382.17 712.42 382.15 712.42 382.08 712.36 382.09 712.35 382.06 712.34 382.02 712.33 381.98 712.29 381.95 712.27 381.93 712.26 381.91 712.27 381.9 712.29 381.87 712.29 381.85 712.28 381.83 712.23 381.78 712.22 381.76 712.22 381.74 712.22 381.72 712.23 381.69 712.25 381.62 712.25 381.58 712.22 381.56 712.24 381.53 712.27 381.52 712.31 381.51 712.34 381.49 712.34 381.47 712.32 381.45 712.31 381.43 712.33 381.43 712.35 381.42 712.36 381.42 712.37 381.41 712.37 381.35 712.37 381.33 712.39 381.31 712.42 381.31 712.44 381.29 712.45 381.25 712.44 381.21 712.4 381.21 712.4 381.19 712.39 381.17 712.38 381.16 712.36 381.15 712.38 381.14 712.4 381.14 712.42 381.14 712.45 381.14 712.44 381.11 712.45 381.09 712.47 381.08 712.48 381.05 712.47 381.04 712.45 381.02 712.45 381.01 712.45 381 712.46 381 712.47 380.95 712.49 380.93 712.5 380.92 712.5 380.69 712.5 380.19 712.5 379.75 712.5 379.34 712.5 378.77 712.5 378.68 712.5 378.41 712.5 377.98 712.5 377.97 712.5 377.95 712.5 377.47 712.5 377.08 712.49 376.15 712.49 375.77 712.49 375.32 712.49 374.84 712.49 374.11 712.49 373.56 712.49 373.13 712.49 372.75 712.49 372.68 712.52 372.68 712.57 372.69 712.65 372.65 712.73 372.66 712.82 372.69 712.91 372.71 712.98 372.71 713.01 372.72 713.02 372.73 713.04 372.74 713.05 372.75 713.08 372.76 713.14 372.76 713.16 372.77 713.17 372.78 713.19 372.83 713.21 372.84 713.24 372.83 713.3 372.9 713.35 372.92 713.4 372.93 713.83 373.1 714.33 373.34 714.4 373.35 714.4 373.37 714.4 373.39 714.41 373.41 714.51 373.48 714.56 373.49 714.64 373.47 714.77 373.46 714.79 373.47 714.91 373.58 714.92 373.6 714.92 373.62 714.91 373.64 714.9 373.67 714.91 373.69 714.92 373.69 714.98 373.7 715 373.71 715.07 373.68 715.12 373.7 715.17 373.73 715.22 373.75 715.27 373.75 715.3 373.77 715.36 373.8 715.64 373.88 715.88 373.99 716.13 374.07 716.57 374.2 716.62 374.2 716.64 374.21 716.72 374.25 716.74 374.25 716.78 374.25 716.81 374.26 716.87 374.3 717.05 374.34 717.1 374.34 717.17 374.34 717.21 374.33 717.25 374.34 717.26 374.33 717.3 374.34 717.45 374.36 717.47 374.36 717.51 374.39 717.54 374.4 717.57 374.4 718.04 374.48 718.14 374.52 718.18 374.54 718.31 374.67 718.33 374.73 718.34 374.75 718.35 374.76 718.39 374.77 718.41 374.78 718.43 374.79 718.49 374.81 718.5 374.82 718.52 374.81 718.55 374.79 718.57 374.79 718.58 374.8 718.58 374.81 718.57 374.84 718.59 374.87 718.61 374.89 718.64 374.9 718.72 374.9 718.76 374.91 718.8 374.93 718.88 375.06 718.91 375.08 719 375.12 719.03 375.13 719.08 375.15 719.19 375.31 719.25 375.33 719.32 375.33 719.47 375.32 719.49 375.33 719.51 375.32 719.57 375.32 719.55 375.34 719.53 375.35 719.51 375.36 719.48 375.35 719.5 375.38 719.52 375.39 719.54 375.4 719.56 375.42 719.6 375.43 719.65 375.41 719.68 375.42 719.7 375.45 719.71 375.47 719.73 375.47 719.75 375.47 719.76 375.47 719.76 375.46 719.77 375.44 719.79 375.42 719.81 375.39 719.82 375.36 719.81 375.34 719.89 375.32 719.99 375.32 720.09 375.33 720.16 375.35 720.19 375.35 720.31 375.35 720.34 375.36 720.37 375.39 720.39 375.42 720.41 375.46 720.42 375.5 720.42 375.69 720.44 375.72 720.47 375.74 720.49 375.75 720.51 375.76 720.54 375.78 720.82 375.82 720.91 375.85 720.96 375.9 721 375.93 721.07 375.95 721.12 375.98 721.13 375.99 721.14 376 721.14 376 721.15 376.01 721.15 376.02 721.14 376.04 721.12 376.05 721.11 376.06 721.1 376.09 721.12 376.12 721.15 376.14 721.24 376.16 721.28 376.18 721.35 376.24 721.4 376.28 721.41 376.29 721.41 376.37 721.42 376.38 721.45 376.4 721.53 376.52 721.59 376.55 721.82 376.62 721.91 376.62 722 376.6 722.1 376.59 722.18 376.62 722.27 376.74 722.41 376.85 722.49 376.94 722.51 376.98 722.56 377.04 722.58 377.05 722.59 377.05 722.61 377.05 722.62 377.05 722.66 377.09 722.7 377.19 722.95 377.46 722.98 377.49 723.02 377.51 723.06 377.53 723.07 377.54 723.14 377.56 723.16 377.58 723.19 377.62 723.22 377.66 723.21 377.68 723.18 377.7 723.17 377.75 723.16 377.85 723.16 377.9 723.18 377.99 723.19 378.04 723.19 378.05 723.21 378.08 723.22 378.1 723.21 378.12 723.2 378.14 723.19 378.17 723.19 378.17 723.18 378.25 723.17 378.3 723.17 378.32 723.17 378.42 723.17 378.46 723.16 378.5 723.08 378.61 723.07 378.66 723.07 378.68 723.08 378.71 723.08 378.73 723.07 378.76 723.03 378.83 723.03 378.9 723.05 378.97 723.1 379.02 723.16 379.05 723.3 379.02 723.35 379.04 723.38 379.11 723.4 379.11 723.4 379.09 723.41 379.06 723.41 379.05 723.43 379.05 723.43 379.05 723.44 379.06 723.47 379.03 723.5 379.02 723.54 379.02 723.57 379 723.6 379.04 723.64 379.05 723.68 379.06 723.73 379.09 723.75 379.08 723.76 379.07 723.77 379.08 723.78 379.09 723.8 379.09 723.88 379.12 723.92 379.14 723.97 379.13 724 379.14 724.01 379.16 724.02 379.19 724.04 379.19 724.1 379.2 724.14 379.22 724.16 379.22 724.2 379.21 724.22 379.23 724.25 379.25 724.26 379.26 724.29 379.26 724.33 379.25 724.36 379.24 724.39 379.24 724.41 379.25 724.45 379.27 724.46 379.28 724.48 379.3 724.51 379.31 724.54 379.3 724.52 379.3 724.57 379.3 724.61 379.29 724.66 379.3 724.7 379.33 724.71 379.35 724.72 379.37 724.73 379.39 724.78 379.4 724.81 379.41 725.09 379.63 725.24 379.67 725.31 379.71 725.36 379.72 725.38 379.73 725.39 379.77 725.4 379.81 725.43 379.82 725.48 379.81 725.51 379.8 725.56 379.79 725.6 379.8 725.63 379.81 725.67 379.82 725.7 379.83 725.72 379.86 725.73 379.9 725.75 379.94 725.87 380.01 725.89 380.02 725.91 380.02 725.93 380.03 725.94 380.05 725.96 380.04 725.99 380.01 726.02 380.01 726.03 380.02 726.06 380.04 726.09 380.09 726.11 380.11 726.12 380.1 726.14 380.09 726.35 380.11 726.37 380.11 726.39 380.11 726.42 380.09 726.44 380.06 726.46 380.04 726.49 380.03 726.51 380.03 726.57 380.06 726.58 380.06 726.59 380.06 726.59 380.05 726.6 380.04 726.61 380.03 726.62 380.03 726.63 380.04 726.74 380.08 726.85 380.1 726.88 380.11 726.91 380.14 726.94 380.17 726.95 380.17 726.97 380.18 726.98 380.18 726.99 380.19 726.99 380.22 727 380.23 727.01 380.24 727.07 380.27 727.23 380.42 727.29 380.52 727.31 380.55 727.35 380.57 727.37 380.62 727.38 380.68 727.41 380.71 727.46 380.78 727.63 380.87 727.68 380.92 727.69 380.95 727.69 380.97 727.68 380.99 727.68 381.02 727.7 381.05 727.72 381.07 727.74 381.09 727.75 381.16 727.77 381.21 727.77 381.24 727.77 381.26 727.75 381.27 727.75 381.29 727.76 381.32 727.73 381.35 727.74 381.38 727.75 381.42 727.76 381.46 727.75 381.47 727.72 381.5 727.71 381.5 727.72 381.53 727.73 381.54 727.74 381.55 727.76 381.53 727.74 381.71 727.57 381.77 727.18 381.79 727.16 381.81 727.12 381.84 727.1 381.85 727.08 381.85 727.05 381.84 727.03 381.83 727.01 381.84 726.97 381.85 726.82 381.81 726.77 381.81 726.67 381.83 726.63 381.84 726.28 381.82 726.25 381.82 726.24 381.8 726.23 381.78 726.2 381.77 726.18 381.76 726.14 381.76 726.03 381.76 726 381.77 725.95 381.81 725.91 381.82 725.84 381.82 725.8 381.82 725.77 381.84 725.76 381.89 725.73 381.98 725.72 382.03 725.72 382.14 725.74 382.24 725.75 382.3 725.83 382.39 725.87 382.43 725.9 382.46 725.91 382.47 725.94 382.47 725.95 382.47 725.98 382.44 726.01 382.43 726.01 382.46 726 382.48 725.98 382.5 725.98 382.52 725.98 382.55 726 382.58 726.01 382.61 726.01 382.64 725.99 382.69 725.99 382.72 726 382.72 726.12 382.81 726.14 382.84 726.16 382.87 726.17 382.92 726.16 383.02 726.18 383.05 726.19 383.08 726.18 383.09 726.17 383.09 726.16 383.11 726.18 383.13 726.19 383.17 726.2 383.24 726.21 383.26 726.24 383.32 726.25 383.34 726.27 383.35 726.28 383.36 726.28 383.37 726.28 383.38 726.27 383.39 726.26 383.39 726.25 383.4 726.27 383.42 726.28 383.42 726.29 383.42 726.31 383.43 726.33 383.45 726.32 383.46 726.33 383.47 726.36 383.48 726.37 383.47 726.41 383.43 726.42 383.43 726.43 383.44 726.44 383.45 726.45 383.47 726.44 383.48 726.57 383.51 726.64 383.54 726.66 383.59 726.67 383.61 726.69 383.63 726.72 383.63 726.73 383.63 726.77 383.64 726.79 383.65 726.81 383.67 726.83 383.69 726.81 383.71 726.83 383.71 726.85 383.72 726.88 383.72 726.93 383.76 726.96 383.79 726.97 383.82 726.97 383.9 726.99 383.92 727.11 383.94 727.14 383.96 727.15 383.99 727.15 384.05 727.17 384.09 727.19 384.13 727.21 384.17 727.2 384.21 727.3 384.19 727.3 384.18 727.28 384.17 727.27 384.15 727.26 384.13 727.26 384.1 727.32 384.15 727.36 384.2 727.4 384.26 727.41 384.4 727.43 384.44 727.46 384.47 727.5 384.48 727.54 384.49 727.6 384.47 727.65 384.47 727.67 384.47 727.68 384.49 727.69 384.49 727.72 384.47 727.74 384.47 727.77 384.47 727.79 384.48 727.9 384.55 727.95 384.58 727.99 384.59 728.01 384.61 728.02 384.63 728.04 384.71 728.06 384.74 728.11 384.75 728.15 384.73 728.19 384.73 728.21 384.76 728.24 384.74 728.26 384.74 728.32 384.74 728.33 384.73 728.37 384.72 728.39 384.72 728.37 384.75 728.37 384.78 728.42 384.99 728.45 385.04 728.46 385.1 728.5 385.18 728.52 385.23 728.53 385.3 728.54 385.36 728.52 385.41 728.58 385.55 728.59 385.6 728.59 385.64 728.56 385.72 728.56 385.76 728.56 385.81 728.58 385.85 728.59 385.88 728.63 385.91 728.71 385.95 728.73 385.98 728.78 385.96 728.82 385.97 728.86 385.99 728.89 386.01 728.91 386.01 728.92 386.02 728.94 386.04 728.94 386.06 728.95 386.07 729.03 386.1 729.05 386.12 729.08 386.17 729.1 386.21 729.13 386.24 729.15 386.28 729.14 386.43 729.17 386.58 729.18 386.6 729.2 386.61 729.22 386.61 729.23 386.63 729.23 386.64 729.23 386.65 729.22 386.67 729.22 386.69 729.22 386.7 729.24 386.72 729.25 386.74 729.27 386.83 729.31 386.92 729.36 386.99 729.44 387.03 729.64 387.06 729.71 387.06 729.75 387.07 729.77 387.07 729.86 387.04 729.9 387.04 729.93 387.04 729.95 387.03 730 387 730.02 386.98 730.04 386.96 730.05 386.93 730.07 386.94 730.11 386.94 730.15 386.94 730.19 386.92 730.23 386.96 730.29 386.95 730.44 386.92 730.45 386.92 730.46 386.91 730.46 386.9 730.47 386.88 730.48 386.87 730.5 386.87 730.51 386.86 730.54 386.82 730.57 386.8 730.6 386.79 730.62 386.85 730.82 386.84 730.87 386.88 730.89 386.86 730.91 386.86 730.93 386.87 730.93 386.89 730.95 386.89 730.97 386.88 730.99 386.89 731 386.92 731.01 386.95 731 386.98 730.99 387 730.96 387.04 730.97 387.05 730.98 387.06 730.99 387.06 731.01 387.06 730.97 387.07 730.95 387.07 730.93 387.07 730.96 387.1 731 387.11 731.03 387.12 731.02 387.17 731 387.2 730.96 387.23 730.92 387.24 730.89 387.23 730.87 387.25 730.83 387.32 730.83 387.34 730.82 387.39 730.8 387.46 730.8 387.51 730.78 387.55 730.71 387.61 730.69 387.66 730.7 387.71 730.74 387.8 730.75 387.85 730.79 387.93 730.87 387.97 731.02 387.99 731.08 388.02 731.1 388.03 731.12 388.06 731.13 388.07 731.14 388.07 731.17 388.07 731.18 388.07 731.2 388.1 731.21 388.1 731.28 388.13 731.26 388.16 731.3 388.17 731.31 388.17 731.48 388.17 731.53 388.17 731.66 388.23 731.69 388.22 731.73 388.2 731.75 388.19 731.78 388.19 731.81 388.21 731.83 388.2 731.88 388.18 731.9 388.18 731.95 388.18 732.04 388.21 732.15 388.23 732.25 388.27 732.3 388.27 732.44 388.25 732.5 388.26 732.53 388.28 732.56 388.34 732.58 388.36 732.59 388.36 732.61 388.37 732.62 388.4 732.62 388.44 732.62 388.44 732.61 388.44 732.57 388.45 732.45 388.51 732.41 388.53 732.25 388.56 732.17 388.59 732.12 388.59 732.07 388.57 732.04 388.6 731.94 388.63 731.9 388.65 731.88 388.7 731.89 388.73 731.95 388.8 732.11 388.94 732.18 389.02 732.18 389.11 732.23 389.11 732.27 389.13 732.34 389.19 732.37 389.21 732.41 389.23 732.45 389.24 732.49 389.25 732.62 389.24 732.66 389.25 732.71 389.26 732.79 389.31 732.8 389.31 732.83 389.31 732.85 389.3 732.89 389.28 732.92 389.28 732.94 389.29 732.95 389.31 732.98 389.35 733.05 389.37 733.06 389.38 733.1 389.42 733.14 389.46 733.17 389.48 733.26 389.49 733.35 389.53 733.4 389.54 733.44 389.52 733.45 389.53 733.48 389.53 733.5 389.53 733.51 389.52 733.61 389.54 733.66 389.56 733.69 389.56 733.72 389.53 733.74 389.53 733.83 389.54 733.82 389.55 733.79 389.59 733.79 389.6 733.8 389.62 733.85 389.66 733.86 389.68 733.89 389.7 733.95 389.69 734.09 389.65 734.24 389.65 734.27 389.63 734.34 389.58 734.38 389.57 734.44 389.58 734.43 389.6 734.39 389.63 734.3 389.66 734.03 389.8 733.95 389.83 733.86 389.84 733.83 389.84 733.81 389.84 733.8 389.83 733.76 389.83 733.66 389.79 733.61 389.78 733.52 389.78 733.48 389.77 733.45 389.75 733.39 389.75 733.31 389.81 733.27 389.89 733.3 389.97 733.31 389.97 733.32 389.97 733.32 389.95 733.35 389.97 733.45 389.97 733.49 389.99 733.51 390 733.53 390.01 733.61 390.02 733.63 390.03 733.67 390.06 733.93 390.14 733.99 390.18 734 390.26 734.03 390.3 734.04 390.32 734.02 390.34 733.99 390.37 733.72 390.46 733.7 390.45 733.69 390.45 733.63 390.46 733.6 390.46 733.58 390.47 733.54 390.49 733.54 390.5 733.52 390.53 733.5 390.55 733.48 390.54 733.48 390.55 733.46 390.56 733.45 390.58 733.45 390.61 733.42 390.6 733.38 390.6 733.35 390.6 733.32 390.61 733.29 390.56 733.25 390.55 733.21 390.56 733.11 390.61 733.1 390.61 733.09 390.61 733.07 390.6 733.06 390.59 733.06 390.58 733.03 390.59 733.01 390.61 732.97 390.64 732.95 390.63 732.9 390.59 732.89 390.58 732.9 390.56 732.92 390.55 732.92 390.53 732.9 390.51 732.85 390.52 732.79 390.54 732.76 390.57 732.72 390.52 732.71 390.51 732.69 390.5 732.68 390.5 732.67 390.51 732.65 390.51 732.62 390.47 732.6 390.46 732.59 390.46 732.57 390.46 732.55 390.46 732.53 390.44 732.57 390.42 732.56 390.39 732.54 390.37 732.53 390.34 732.52 390.34 732.5 390.36 732.48 390.4 732.46 390.4 732.44 390.39 732.41 390.37 732.41 390.36 732.42 390.32 732.4 390.34 732.39 390.35 732.38 390.35 732.36 390.33 732.33 390.31 732.27 390.29 732.28 390.32 732.28 390.32 732.27 390.32 732.27 390.33 732.27 390.34 732.25 390.32 732.23 390.32 732.2 390.31 732.18 390.31 732.2 390.28 732.24 390.27 732.27 390.25 732.27 390.21 732.26 390.22 732.23 390.23 732.23 390.21 732.25 390.2 732.26 390.19 732.28 390.18 732.3 390.21 732.32 390.21 732.38 390.2 732.48 390.22 732.58 390.19 732.6 390.18 732.61 390.17 732.61 390.13 732.62 390.12 732.63 390.12 732.68 390.11 732.65 390.09 732.62 390.09 732.59 390.09 732.56 390.09 732.54 390.08 732.49 390.05 732.44 390.04 732.42 390.03 732.4 390.03 732.39 390.03 732.38 390.06 732.37 390.06 732.36 390.08 732.36 390.11 732.35 390.15 732.33 390.17 732.31 390.15 732.3 390.14 732.3 390.12 732.3 390.1 732.3 390.08 732.29 390.07 732.28 390.07 732.27 390.06 732.25 390 732.24 389.98 732.22 389.96 732.16 389.92 732.04 389.89 731.99 389.85 731.94 389.83 731.87 389.82 731.72 389.83 731.65 389.85 731.61 389.85 731.55 389.83 731.53 389.84 731.5 389.86 731.46 389.84 731.45 389.86 731.48 389.88 731.48 389.89 731.41 389.89 731.39 389.88 731.39 389.84 731.37 389.83 731.35 389.83 731.33 389.85 731.3 389.86 731.27 389.84 731.29 389.83 731.29 389.81 731.27 389.8 731.22 389.79 731.21 389.78 731.21 389.75 731.2 389.73 731.1 389.69 731.07 389.7 731.03 389.75 731.01 389.77 730.98 389.75 730.94 389.74 730.89 389.73 730.85 389.72 730.82 389.72 730.66 389.63 730.63 389.62 730.57 389.61 730.53 389.6 730.51 389.6 730.47 389.61 730.45 389.61 730.43 389.6 730.38 389.62 730.35 389.63 730.33 389.63 730.3 389.64 730.28 389.66 730.25 389.68 730.23 389.69 730.19 389.7 730.15 389.68 730 389.61 729.97 389.6 729.94 389.6 729.82 389.62 729.79 389.61 729.75 389.6 729.72 389.6 729.7 389.59 729.71 389.54 729.69 389.52 729.69 389.52 729.7 389.5 729.7 389.49 729.68 389.49 729.67 389.49 729.68 389.47 729.7 389.45 729.73 389.45 729.76 389.45 729.77 389.43 729.75 389.4 729.72 389.38 729.7 389.41 729.69 389.43 729.67 389.42 729.64 389.41 729.63 389.4 729.62 389.38 729.59 389.31 729.58 389.31 729.57 389.4 729.55 389.44 729.51 389.46 729.49 389.49 729.48 389.49 729.47 389.49 729.44 389.48 729.34 389.48 729.29 389.46 729.26 389.46 729.25 389.47 729.24 389.49 729.21 389.5 729.18 389.51 729 389.51 728.96 389.52 728.81 389.47 728.79 389.44 728.77 389.39 728.73 389.36 728.69 389.35 728.67 389.39 728.64 389.36 728.61 389.34 728.58 389.31 728.53 389.29 728.51 389.29 728.47 389.3 728.46 389.29 728.44 389.28 728.43 389.25 728.41 389.23 728.38 389.31 728.3 389.36 728.19 389.38 728.11 389.35 728.07 389.41 728.05 389.43 728.02 389.45 727.98 389.42 727.95 389.38 727.93 389.33 727.91 389.29 727.87 389.27 727.84 389.28 727.8 389.29 727.74 389.29 727.74 389.28 727.78 389.26 727.8 389.23 727.8 389.19 727.77 389.17 727.75 389.17 727.74 389.19 727.73 389.2 727.72 389.25 727.71 389.25 727.68 389.22 727.59 389.2 727.54 389.21 727.45 389.29 727.44 389.29 727.4 389.11 727.38 389.1 727.35 389.09 727.33 389.08 727.32 389.07 727.31 389.06 727.28 389.05 727.25 389.05 727.23 389.05 727.2 389.03 727.12 388.95 727.1 388.92 727.09 388.88 727.06 388.86 727.03 388.83 727 388.8 726.98 388.77 726.97 388.74 726.97 388.64 726.96 388.6 726.94 388.56 726.74 388.3 726.68 388.24 726.66 388.21 726.64 388.17 726.61 388.14 726.57 388.12 726.56 388.13 726.56 388.08 726.54 388.04 726.51 388.02 726.47 387.99 726.43 387.98 726.4 387.98 726.4 387.99 726.42 388.04 726.37 388.04 726.3 388.02 726.23 387.99 726.18 387.95 726.17 387.93 726.16 387.85 726.15 387.82 726.12 387.8 726.09 387.8 726.06 387.8 726.03 387.81 726.04 387.83 726.07 387.84 726.09 387.85 726.09 387.88 726.09 387.9 726.08 387.91 726.07 387.92 726.07 387.92 726.05 387.92 726.01 387.9 725.97 387.87 725.94 387.8 725.88 387.71 725.86 387.67 725.83 387.56 725.81 387.51 725.77 387.46 725.73 387.45 725.64 387.47 725.62 387.44 725.64 387.44 725.66 387.42 725.67 387.4 725.66 387.38 725.64 387.37 725.62 387.31 725.62 387.25 725.65 387.2 725.64 387.19 725.62 387.17 725.61 387.15 725.6 387.14 725.62 387.13 725.66 387.12 725.71 387.08 725.72 387.08 725.74 387.06 725.8 387.01 725.81 386.98 725.81 386.96 725.81 386.94 725.8 386.92 725.78 386.91 725.75 386.91 725.74 386.94 725.74 386.96 725.75 386.97 725.74 386.98 725.67 387.05 725.65 387.07 725.57 387.08 725.5 387.05 725.43 387.01 725.36 386.97 725.33 386.96 725.29 386.97 725.27 386.97 725.25 386.96 725.22 386.94 725.06 386.91 725.02 386.89 724.97 386.86 724.93 386.81 724.9 386.75 724.87 386.71 724.88 386.68 724.87 386.64 724.86 386.61 724.85 386.6 724.86 386.58 724.87 386.54 724.88 386.51 724.92 386.53 724.95 386.5 724.97 386.47 724.98 386.44 724.98 386.4 724.95 386.43 724.91 386.45 724.89 386.44 724.9 386.4 724.89 386.39 724.88 386.38 724.87 386.37 724.87 386.35 724.86 386.32 724.83 386.32 724.8 386.32 724.79 386.32 724.78 386.3 724.78 386.28 724.78 386.26 724.78 386.23 724.77 386.21 724.76 386.19 724.65 386.07 724.62 386.03 724.61 386 724.6 385.98 724.49 385.91 724.44 385.86 724.25 385.58 724.22 385.52 724.22 385.43 724.21 385.41 724.19 385.38 724.19 385.37 724.19 385.3 724.18 385.27 724.15 385.23 724.13 385.2 724.05 385.17 723.99 385.11 723.97 385.09 723.92 385.08 723.89 385.06 723.85 384.98 723.88 384.96 723.88 384.92 723.85 384.89 723.82 384.86 723.85 384.85 723.86 384.84 723.87 384.82 723.85 384.8 723.81 384.81 723.74 384.79 723.63 384.73 723.5 384.7 723.43 384.69 723.37 384.71 723.33 384.68 723.19 384.63 723.16 384.6 723.15 384.59 723.14 384.58 723.13 384.57 723.13 384.55 723.13 384.54 723.16 384.54 723.17 384.53 723.17 384.51 723.16 384.51 723.15 384.5 723.14 384.49 723.14 384.47 723.17 384.42 723.16 384.42 723.13 384.46 723.1 384.45 723.06 384.45 723.02 384.47 723.05 384.51 723.01 384.53 722.88 384.53 722.85 384.52 722.81 384.48 722.78 384.47 722.74 384.47 722.71 384.48 722.68 384.48 722.64 384.47 722.64 384.48 722.6 384.47 722.45 384.5 722.4 384.49 722.36 384.48 722.32 384.47 722.19 384.34 722.13 384.31 722.05 384.3 722.03 384.3 722 384.31 721.98 384.32 721.96 384.32 721.94 384.3 721.89 384.26 721.87 384.24 721.84 384.21 721.82 384.19 721.8 384.21 721.79 384.24 721.79 384.25 721.75 384.26 721.69 384.24 721.64 384.21 721.62 384.17 721.61 384.15 721.6 384.13 721.58 384.12 721.58 384.14 721.57 384.19 721.57 384.2 721.55 384.21 721.41 384.21 721.38 384.19 721.32 384.12 721.29 384.16 721.27 384.15 721.24 384.13 721.2 384.12 721.19 384.12 721.16 384.13 721.15 384.13 721.15 384.13 721.13 384.11 721.13 384.1 721.11 384.1 721.09 384.08 721.07 384.06 721.07 384.05 721.1 384 721.12 383.96 721.12 383.75 721.12 383.7 721.09 383.66 721.07 383.7 721.06 383.81 721.04 383.86 721.06 383.89 721.03 383.91 720.98 383.92 720.94 383.92 720.91 383.91 720.88 383.88 720.83 383.83 720.75 383.77 720.73 383.72 720.7 383.69 720.65 383.64 720.64 383.68 720.64 383.72 720.66 383.76 720.67 383.8 720.64 383.84 720.6 383.85 720.54 383.85 720.5 383.84 720.48 383.82 720.45 383.78 720.43 383.74 720.42 383.71 720.42 383.69 720.42 383.67 720.41 383.65 720.4 383.64 720.39 383.62 720.4 383.56 720.39 383.54 720.36 383.5 720.35 383.53 720.35 383.68 720.33 383.75 720.33 383.78 720.34 383.8 720.39 383.84 720.38 383.87 720.36 383.88 720.34 383.89 720.33 383.88 720.32 383.85 720.26 383.81 720.24 383.78 720.23 383.77 720.23 383.73 720.22 383.71 720.22 383.7 720.2 383.69 720.19 383.68 720.18 383.68 720.16 383.64 720.13 383.57 720.12 383.54 720.1 383.54 720.11 383.58 720.12 383.66 720.13 383.69 720.16 383.76 720.16 383.79 720.17 383.86 720.18 383.92 720.19 383.94 720.21 383.97 720.23 384 720.24 384.03 720.26 384.06 720.31 384.12 720.33 384.17 720.27 384.18 720.26 384.16 720.22 384.1 720.21 384.09 720.2 384.07 720.17 384.04 720.14 384.01 720.12 384 720.09 384.05 720.05 384.07 720.01 384.05 720 383.99 719.99 383.92 719.96 383.86 719.89 383.75 719.9 383.81 719.93 383.87 719.94 383.93 719.92 383.95 719.88 383.93 719.83 383.83 719.8 383.8 719.78 383.82 719.76 383.84 719.74 383.85 719.71 383.86 719.71 383.87 719.76 383.88 719.78 383.91 719.76 383.96 719.74 384.01 719.76 384.02 719.79 384.04 719.81 384.07 719.81 384.1 719.79 384.12 719.71 384.15 719.68 384.16 719.64 384.12 719.61 384.11 719.59 384.1 719.56 384.11 719.53 384.12 719.51 384.12 719.49 384.11 719.45 384.08 719.03 383.94 718.87 383.84 718.82 383.8 718.8 383.76 718.78 383.72 718.7 383.57 718.69 383.53 718.68 383.52 718.66 383.51 718.64 383.5 718.59 383.49 718.56 383.49 718.53 383.48 718.45 383.42 718.43 383.4 718.42 383.39 718.42 383.37 718.4 383.4 718.42 383.43 718.49 383.51 718.51 383.52 718.54 383.53 718.58 383.55 718.64 383.56 718.64 383.57 718.63 383.59 718.63 383.6 718.67 383.69 718.85 384 718.86 384.04 718.87 384.09 718.87 384.14 718.88 384.19 718.91 384.23 718.96 384.3 719.07 384.46 719.1 384.56 719.07 384.6 719.07 384.6 719.03 384.59 719 384.56 718.97 384.51 718.93 384.48 718.89 384.47 718.77 384.47 718.78 384.48 718.8 384.5 718.81 384.51 718.83 384.52 718.87 384.52 718.89 384.53 718.93 384.55 719.01 384.63 718.97 384.68 718.94 384.7 718.89 384.71 718.68 384.71 718.64 384.69 718.62 384.68 718.59 384.65 718.57 384.63 718.49 384.61 718.47 384.6 718.43 384.58 718.37 384.58 718.23 384.61 718.11 384.6 718.07 384.59 718.04 384.56 718.01 384.48 717.98 384.44 717.95 384.41 717.9 384.41 717.85 384.41 717.84 384.4 717.82 384.39 717.79 384.39 717.78 384.4 717.78 384.42 717.8 384.43 717.82 384.44 717.84 384.45 717.93 384.46 717.95 384.48 717.96 384.54 717.98 384.58 718.02 384.61 718.2 384.69 718.22 384.72 718.25 384.81 718.37 385.03 718.39 385.09 718.38 385.13 718.34 385.15 718.3 385.16 717.73 385.17 717.71 385.18 717.65 385.21 717.46 385.23 716.94 385.36 716.89 385.37 716.85 385.36 716.63 385.26 716.35 385.21 716.34 385.21 716.32 385.2 716.28 385.22 716.17 385.24 716.13 385.24 716.08 385.25 715.95 385.34 715.91 385.36 715.86 385.36 715.77 385.35 715.72 385.34 715.68 385.31 715.66 385.27 715.61 385.05 715.56 384.99 715.47 384.97 715.34 385 715.26 385 715.25 385.01 715.23 385.02 715.22 385.04 715.19 385.06 715.17 385.06 715.14 385.07 715.12 385.08 715.09 385.1 715.08 385.12 715.09 385.14 715.12 385.15 715.17 385.11 715.2 385.09 715.23 385.08 715.25 385.07 715.27 385.06 715.28 385.05 715.31 385.06 715.34 385.06 715.44 385.03 715.5 385.03 715.55 385.04 715.57 385.08 715.58 385.13 715.65 385.35 715.7 385.41 715.77 385.45 715.86 385.46 715.94 385.43 716.09 385.33 716.17 385.3 716.34 385.33 716.38 385.32 716.47 385.35 716.55 385.42 716.57 385.43 716.62 385.44 716.76 385.54 716.85 385.57 717.12 385.63 717.21 385.66 717.28 385.7 717.56 385.93 717.69 386.08 717.75 386.19 717.84 386.29 717.86 386.33 717.87 386.36 717.87 386.65 717.88 386.72 717.88 386.76 717.86 386.79 717.81 386.84 717.78 386.86 717.75 386.88 717.68 386.9 717.56 386.9 717.49 386.91 717.51 386.92 717.48 386.93 717.44 386.93 717.4 386.94 717.38 386.94 717.37 386.94 717.36 386.95 717.36 386.96 717.34 386.98 717.33 386.98 717.3 386.99 717.1 387.05 717.06 387.07 717.01 387.11 716.96 387.15 716.94 387.15 716.91 387.16 716.89 387.19 716.87 387.22 716.85 387.24 716.81 387.27 716.7 387.31 716.62 387.37 716.39 387.46 716.35 387.48 716.34 387.51 716.21 387.58 716.12 387.59 716.05 387.56 715.98 387.52 715.87 387.43 715.8 387.38 715.72 387.34 715.65 387.35 715.59 387.32 715.56 387.31 715.51 387.31 715.47 387.3 715.38 387.24 715.26 387.2 715.23 387.2 715.21 387.2 715.17 387.24 715.14 387.24 715.07 387.24 714.75 387.26 714.71 387.27 714.57 387.32 714.53 387.33 714.48 387.33 714.43 387.33 714.34 387.3 714.29 387.29 714.1 387.32 714.04 387.32 714.02 387.33 713.99 387.35 713.96 387.36 713.93 387.36 713.89 387.35 713.86 387.33 713.83 387.32 713.8 387.33 713.77 387.33 713.72 387.33 713.68 387.32 713.65 387.28 713.56 387.21 713.48 387.18 713.4 387.16 713.32 387.16 713.24 387.18 713.06 387.32 712.99 387.35 712.89 387.36 712.8 387.33 712.57 387.12 712.5 387.08 Z M 734.81 372.92 734.82 372.93 734.84 372.98 734.85 373 734.88 373.01 734.9 373.01 734.93 373.02 734.96 373.03 735.09 373.08 735.14 373.13 735.16 373.22 735.2 373.27 735.29 373.29 735.45 373.28 735.48 373.29 735.49 373.3 735.5 373.32 735.51 373.34 735.53 373.35 735.56 373.34 735.58 373.33 735.59 373.33 735.64 373.34 735.69 373.36 735.72 373.38 735.76 373.42 735.83 373.5 735.84 373.5 735.89 373.51 735.91 373.51 736.04 373.6 736.07 373.6 736.24 373.71 736.28 373.75 736.3 373.79 736.34 373.84 736.39 373.87 736.45 373.86 736.46 373.91 736.49 373.95 736.52 373.97 736.55 373.98 736.63 373.97 736.66 373.98 736.71 374 736.73 374.01 736.77 373.99 736.79 374.01 736.82 374.04 736.87 374.07 736.87 374.07 736.94 374.07 736.97 374.08 736.99 374.1 737.01 374.1 737.03 374.1 737.05 374.1 737.05 374.11 737.05 374.12 737.05 374.13 737.06 374.14 737.05 374.16 737.05 374.17 737.06 374.18 737.08 374.19 737.08 374.19 737.1 374.21 737.18 374.29 737.29 374.44 737.35 374.51 737.42 374.57 737.5 374.61 737.65 374.68 737.69 374.72 737.73 374.74 737.74 374.76 737.75 374.84 737.76 374.85 737.78 374.85 737.79 374.86 737.8 374.87 737.81 374.9 737.84 374.93 737.86 374.98 737.87 375.01 737.92 375.03 737.96 375.03 738 375.01 738.03 374.97 738.06 375.01 738.09 375.05 738.11 375.09 738.12 375.13 738.13 375.15 738.17 375.2 738.18 375.22 738.17 375.25 738.16 375.27 738.16 375.29 738.17 375.32 738.19 375.34 738.21 375.36 738.21 375.37 738.23 375.38 738.25 375.38 738.31 375.38 738.36 375.39 738.4 375.42 738.44 375.45 738.48 375.49 738.52 375.51 738.56 375.53 738.61 375.53 738.66 375.54 738.7 375.52 738.73 375.49 738.76 375.48 738.79 375.54 738.79 375.56 738.8 375.6 738.8 375.63 738.81 375.65 738.84 375.69 738.85 375.71 738.86 375.74 738.91 375.76 738.96 375.76 739 375.76 739 375.76 739.03 375.73 739.05 375.76 739.06 375.79 739.05 375.82 739.06 375.85 739.08 375.88 739.15 375.94 739.18 375.97 739.24 376.09 739.28 376.14 739.3 376.18 739.29 376.2 739.34 376.22 739.39 376.26 739.43 376.31 739.45 376.36 739.43 376.48 739.43 376.54 739.45 376.59 739.4 376.65 739.27 376.76 739.24 376.83 739.25 376.88 739.27 376.9 739.3 376.93 739.32 376.96 739.33 376.99 739.33 377.02 739.33 377.06 739.32 377.09 739.3 377.11 739.25 377.14 739.23 377.17 739.23 377.22 739.23 377.24 739.21 377.26 739.18 377.29 739.17 377.3 739.15 377.33 739.13 377.4 739.11 377.44 739.09 377.46 739.06 377.47 739.05 377.5 739.03 377.53 738.98 377.52 738.96 377.55 738.95 377.6 738.92 377.64 738.9 377.57 738.87 377.5 738.82 377.45 738.74 377.41 738.75 377.36 738.69 377.3 738.61 377.25 738.56 377.2 738.55 377.16 738.54 377.04 738.53 377.02 738.49 377 738.47 376.99 738.46 376.97 738.45 376.86 738.42 376.79 738.42 376.76 738.46 376.66 738.47 376.64 738.49 376.4 738.47 376.35 738.48 376.32 738.48 376.29 738.47 376.27 738.45 376.24 738.47 376.2 738.47 376.16 738.46 376.12 738.4 376.05 738.29 375.83 738.28 375.77 738.26 375.73 738.22 375.67 738.18 375.62 738.16 375.6 738.15 375.56 738.14 375.55 738.11 375.52 738.1 375.51 738.1 375.49 738.09 375.46 738.08 375.44 738.07 375.43 738.05 375.42 738.01 375.42 737.99 375.41 737.98 375.39 737.96 375.35 737.92 375.32 737.73 375.09 737.72 375.07 737.73 375.02 737.73 375 737.71 374.98 737.68 374.96 737.62 374.9 737.6 374.87 737.57 374.81 737.54 374.8 737.5 374.79 737.46 374.78 737.46 374.77 737.44 374.73 737.43 374.72 737.41 374.7 737.37 374.68 737.31 374.64 737.27 374.63 737.23 374.63 736.9 374.57 736.81 374.54 736.51 374.35 736.07 373.92 736.04 373.9 735.9 373.87 735.77 373.82 735.75 373.8 735.74 373.79 735.73 373.78 735.72 373.77 735.71 373.72 735.7 373.71 735.67 373.68 735.52 373.59 735.48 373.56 735.47 373.55 735.37 373.51 735.32 373.47 735.29 373.45 735.25 373.44 735.21 373.43 735.18 373.42 735.17 373.38 735.12 373.33 735.07 373.33 735.05 373.33 735.05 373.32 735.06 373.31 735.05 373.3 735.02 373.28 734.99 373.25 734.98 373.25 734.98 373.23 734.97 373.22 734.94 373.21 734.94 373.2 734.92 373.19 734.89 373.18 734.82 373.17 734.8 373.16 734.77 373.13 734.75 373.11 734.73 373.1 734.71 373.09 734.69 373.08 734.64 373.07 734.57 373.04 734.53 373.04 734.36 373.07 734.26 373.07 734.18 373.05 734.14 373 734.14 372.97 734.16 372.94 734.18 372.92 734.22 372.94 734.26 372.96 734.31 372.94 734.4 372.89 734.44 372.92 734.48 372.89 734.48 372.84 734.42 372.83 734.46 372.8 734.45 372.77 734.43 372.76 734.4 372.75 734.36 372.75 734.33 372.74 734.26 372.71 734.3 372.62 734.3 372.61 734.3 372.59 734.3 372.58 734.35 372.6 734.37 372.62 734.38 372.65 734.4 372.67 734.47 372.71 734.49 372.72 734.5 372.74 734.52 372.76 734.58 372.78 734.63 372.85 734.66 372.87 734.67 372.88 734.77 372.89 734.79 372.91 734.8 372.92 734.81 372.92 Z M 733.01 372.2 733.13 372.27 733.18 372.27 733.2 372.28 733.26 372.31 733.28 372.31 733.29 372.32 733.31 372.34 733.32 372.35 733.38 372.36 733.44 372.38 733.49 372.42 733.52 372.47 733.5 372.54 733.52 372.53 733.53 372.53 733.54 372.56 733.53 372.59 733.51 372.62 733.5 372.66 733.5 372.69 733.51 372.72 733.52 372.75 733.53 372.77 733.52 372.79 733.5 372.81 733.45 372.81 733.37 372.84 733.35 372.85 733.32 372.86 733.31 372.86 733.3 372.84 733.29 372.81 733.25 372.82 733.22 372.84 733.2 372.86 733.18 372.85 733.16 372.84 733.15 372.83 733.11 372.84 732.95 372.85 732.93 372.85 732.91 372.85 732.89 372.84 732.87 372.83 732.8 372.75 732.75 372.73 732.73 372.71 732.7 372.6 732.6 372.49 732.57 372.47 732.52 372.48 732.46 372.45 732.41 372.41 732.41 372.37 732.42 372.37 732.44 372.37 732.45 372.39 732.47 372.39 732.49 372.38 732.65 372.27 732.68 372.27 732.71 372.27 732.74 372.26 732.76 372.25 732.85 372.22 732.85 372.21 732.88 372.21 732.93 372.19 732.96 372.18 733.01 372.2 Z M 727.8 371.98 727.75 372.07 727.71 372.11 727.66 372.12 727.57 372.12 727.53 372.12 727.51 372.11 727.47 372.07 727.47 372.06 727.48 372.05 727.48 372.05 727.54 372.06 727.59 372.04 727.62 372 727.61 371.94 727.63 371.93 727.64 371.91 727.65 371.89 727.65 371.88 727.68 371.88 727.73 371.94 727.76 371.97 727.8 371.98 Z M 725.61 371.25 725.66 371.27 725.72 371.26 726.09 371.27 726.11 371.29 726.14 371.31 726.16 371.34 726.18 371.37 726.19 371.37 726.2 371.33 726.23 371.31 726.26 371.31 726.27 371.33 726.28 371.35 726.31 371.36 726.38 371.35 726.47 371.39 726.48 371.39 726.5 371.4 726.59 371.43 726.62 371.42 726.68 371.42 726.74 371.43 726.77 371.46 726.79 371.46 726.79 371.4 726.78 371.38 726.76 371.34 726.76 371.33 726.74 371.31 726.71 371.29 726.69 371.27 726.73 371.26 726.75 371.27 726.79 371.31 726.81 371.32 726.83 371.33 726.84 371.37 726.83 371.43 726.81 371.49 726.74 371.5 726.66 371.5 726.59 371.5 726.6 371.49 726.62 371.46 726.58 371.46 726.55 371.47 726.54 371.49 726.53 371.53 726.51 371.53 726.5 371.5 726.48 371.53 726.46 371.59 726.46 371.62 726.43 371.64 726.36 371.73 726.33 371.76 726.31 371.76 726.29 371.77 726.27 371.76 726.24 371.76 726.16 371.72 726.14 371.71 726.09 371.72 726.01 371.77 725.95 371.77 725.95 371.76 725.95 371.76 725.97 371.74 725.89 371.77 725.83 371.78 725.75 371.78 725.5 371.74 725.49 371.74 725.47 371.72 725.46 371.71 725.44 371.72 725.42 371.73 725.41 371.73 725.4 371.72 725.39 371.71 725.37 371.69 725.35 371.68 725.34 371.68 725.32 371.65 725.31 371.64 725.3 371.63 725.29 371.62 725.24 371.62 725.19 371.61 725.18 371.61 725.17 371.63 725.17 371.65 725.18 371.66 725.2 371.67 725.23 371.68 725.25 371.71 725.25 371.74 725.21 371.76 725.13 371.77 725.09 371.76 725.07 371.73 725.03 371.75 724.99 371.76 724.96 371.77 724.93 371.85 724.9 371.86 724.86 371.84 724.83 371.8 724.81 371.77 724.79 371.68 724.79 371.66 724.82 371.62 724.84 371.61 724.88 371.62 724.9 371.62 724.97 371.6 724.99 371.6 725 371.59 725.01 371.56 725 371.54 724.99 371.51 724.94 371.44 724.93 371.42 724.92 371.4 724.92 371.37 724.92 371.34 724.93 371.34 724.96 371.35 724.97 371.36 724.98 371.37 725 371.39 725.02 371.38 725.03 371.36 725.05 371.3 725.06 371.29 725.07 371.29 725.07 371.28 725.08 371.28 725.09 371.27 725.1 371.28 725.13 371.3 725.14 371.31 725.16 371.3 725.2 371.29 725.22 371.29 725.25 371.3 725.3 371.31 725.34 371.32 725.36 371.31 725.45 371.26 725.51 371.24 725.56 371.24 725.61 371.25 Z M 716.6 370.74 716.58 370.77 716.58 370.72 716.61 370.69 716.66 370.68 716.69 370.7 716.67 370.71 716.64 370.72 716.6 370.74 Z M 732.46 370.6 732.48 370.62 732.51 370.63 732.54 370.63 732.55 370.64 732.54 370.65 732.5 370.66 732.44 370.66 732.41 370.65 732.4 370.64 732.39 370.64 732.37 370.64 732.36 370.65 732.36 370.66 732.34 370.66 732.32 370.64 732.31 370.62 732.31 370.59 732.32 370.59 732.37 370.6 732.39 370.58 732.4 370.55 732.42 370.54 732.45 370.57 732.46 370.6 Z M 731.58 369.93 731.6 369.93 731.65 369.93 731.67 369.94 731.72 369.99 731.86 370.07 731.89 370.1 731.9 370.12 731.89 370.15 731.89 370.17 731.91 370.2 731.92 370.21 731.95 370.28 731.97 370.32 732.02 370.39 732.04 370.43 732 370.43 731.95 370.46 731.92 370.46 731.9 370.45 731.89 370.44 731.89 370.43 731.88 370.42 731.84 370.39 731.82 370.38 731.8 370.37 731.8 370.43 731.76 370.42 731.68 370.36 731.66 370.35 731.64 370.33 731.6 370.29 731.59 370.27 731.58 370.26 731.57 370.25 731.54 370.25 731.53 370.25 731.5 370.21 731.48 370.18 731.48 370.09 731.55 369.94 731.57 369.92 731.58 369.93 Z" fill-rule="evenodd" id="Papua New Guinea" transform="translate(-712.219970703125,-369.9200134277344) "/></svg>