<svg xmlns="http://www.w3.org/2000/svg" viewBox="0 0 18.6300048828125 19.959991455078125"><path d="M 271.08 412.29 271.08 412.33 271.1 412.34 271.11 412.33 271.13 412.34 271.15 412.35 271.17 412.38 271.17 412.41 271.09 412.43 271.07 412.47 271.09 412.52 271.13 412.55 271.14 412.54 271.15 412.53 271.17 412.52 271.19 412.51 271.2 412.52 271.22 412.54 271.23 412.56 271.21 412.63 271.22 412.69 271.23 412.75 271.25 412.79 271.28 412.83 271.33 412.86 271.38 412.89 271.42 412.9 271.46 412.92 271.45 412.96 271.42 413.03 271.41 413.08 271.41 413.14 271.42 413.19 271.45 413.25 271.45 413.28 271.45 413.33 271.45 413.36 271.48 413.41 271.49 413.43 271.49 413.46 271.48 413.5 271.48 413.53 271.49 413.56 271.51 413.57 271.53 413.57 271.55 413.49 271.58 413.47 271.61 413.48 271.65 413.5 271.65 413.51 271.67 413.55 271.68 413.56 271.69 413.58 271.72 413.6 271.74 413.62 271.75 413.64 271.73 413.66 271.71 413.67 271.66 413.68 271.64 413.69 271.62 413.72 271.58 413.75 271.57 413.77 271.58 413.78 271.64 413.79 271.68 413.8 271.72 413.82 271.74 413.86 271.75 413.9 271.73 413.92 271.64 413.97 271.62 414.01 271.62 414.03 271.64 414.04 271.65 414.05 271.66 414.05 271.67 414.05 271.72 414.1 271.77 414.15 271.79 414.15 271.8 414.11 271.84 414.14 271.84 414.2 271.82 414.25 271.76 414.34 271.76 414.38 271.8 414.45 271.81 414.55 271.8 414.66 271.77 414.76 271.72 414.84 271.66 414.89 271.65 414.9 271.64 414.93 271.66 414.95 271.67 414.96 271.68 414.98 271.69 415 271.73 415.01 271.75 415.04 271.74 415.1 271.59 415.33 271.55 415.41 271.55 415.46 271.55 415.51 271.57 415.55 271.61 415.57 271.63 415.59 271.61 415.63 271.58 415.69 271.57 415.73 271.58 415.77 271.6 415.81 271.63 415.85 271.65 415.86 271.66 415.88 271.57 416.04 271.57 416.09 271.58 416.13 271.58 416.18 271.55 416.23 271.53 416.27 271.55 416.3 271.58 416.34 271.6 416.4 271.59 416.43 271.54 416.52 271.52 416.54 271.51 416.57 271.46 416.71 271.46 416.74 271.46 416.77 271.46 416.8 271.49 416.81 271.49 416.81 271.52 416.84 271.54 416.87 271.57 416.9 271.64 416.93 271.67 416.93 271.7 416.91 271.72 416.91 271.74 416.92 271.77 416.96 271.78 416.96 271.81 416.96 271.84 416.93 271.86 416.93 271.89 416.93 271.9 416.93 271.93 416.92 271.93 416.91 271.93 416.9 271.93 416.89 271.94 416.88 271.94 416.88 271.96 416.89 271.97 416.88 272.02 416.87 272.05 416.87 272.08 416.88 272.12 416.88 272.15 416.87 272.16 416.87 272.18 416.86 272.2 416.87 272.23 416.97 272.26 417.01 272.29 417.04 272.33 417.05 272.38 417.04 272.4 417.04 272.41 417.03 272.42 417.03 272.45 417.03 272.46 417.04 272.52 417.07 272.6 417.05 272.62 417.05 272.67 417.07 272.69 417.07 272.72 417.08 272.8 417.13 272.81 417.13 272.82 417.11 272.84 417.12 272.87 417.14 272.9 417.14 272.91 417.13 272.91 417.11 272.91 417.1 272.95 417.11 273.05 417.13 273.09 417.12 273.15 417.08 273.18 417.07 273.19 417.08 273.19 417.12 273.21 417.13 273.23 417.13 273.24 417.12 273.26 417.11 273.27 417.11 273.31 417.12 273.37 417.14 273.4 417.15 273.4 417.16 273.4 417.17 273.41 417.18 273.45 417.18 273.46 417.19 273.47 417.19 273.49 417.18 273.52 417.18 273.59 417.18 273.63 417.18 273.68 417.2 273.7 417.2 273.73 417.18 273.73 417.22 273.74 417.23 273.76 417.22 273.78 417.23 273.82 417.25 273.84 417.25 273.86 417.19 273.89 417.22 273.91 417.28 273.92 417.31 273.97 417.32 274 417.31 274 417.31 274.05 417.25 274.06 417.23 274.07 417.22 274.08 417.21 274.11 417.22 274.12 417.22 274.19 417.2 274.21 417.2 274.21 417.21 274.22 417.22 274.24 417.2 274.25 417.19 274.27 417.14 274.28 417.13 274.32 417.15 274.39 417.24 274.43 417.25 274.44 417.23 274.42 417.19 274.43 417.17 274.45 417.16 274.47 417.16 274.55 417.1 274.57 417.07 274.61 417.01 274.61 417 274.63 416.99 274.64 416.98 274.65 416.95 274.66 416.93 274.69 416.88 274.71 416.86 274.73 416.84 274.77 416.83 274.93 416.8 274.96 416.8 274.99 416.83 275.04 416.97 275.1 417.05 275.16 417.12 275.29 417.19 275.35 417.25 275.39 417.28 275.43 417.29 275.81 417.31 275.84 417.3 275.87 417.28 275.9 417.3 275.93 417.32 275.97 417.34 276.1 417.35 276.15 417.38 276.15 417.36 276.17 417.31 276.29 417.46 276.38 417.53 276.4 417.55 276.42 417.61 276.42 417.81 276.44 417.9 276.48 417.98 276.54 418.04 276.61 418.08 276.65 418.1 276.68 418.11 276.7 418.14 276.71 418.19 276.71 418.21 276.69 418.25 276.69 418.27 276.7 418.29 276.71 418.33 276.71 418.35 276.69 418.43 276.65 418.5 276.62 418.57 276.63 418.66 276.68 418.85 276.68 418.89 276.66 418.97 276.67 419.01 276.73 419.08 276.75 419.11 276.76 419.16 276.75 419.25 276.75 419.29 276.78 419.32 276.84 419.36 276.85 419.38 276.9 419.56 276.9 419.6 276.84 419.7 276.84 419.74 276.85 419.8 276.92 419.87 276.94 419.92 276.94 419.99 276.88 420.12 276.89 420.21 276.9 420.28 276.9 420.29 276.9 420.37 276.91 420.45 276.95 420.52 277.05 420.62 277.1 420.77 277.13 421.24 277.15 421.3 277.2 421.35 277.27 421.38 277.41 421.39 277.48 421.41 277.48 421.41 277.48 421.41 277.48 421.41 277.48 421.41 277.56 421.44 277.64 421.46 277.72 421.45 277.79 421.41 277.79 421.41 277.79 421.41 277.79 421.41 277.85 421.38 277.99 421.38 278.06 421.36 278.1 421.34 278.17 421.34 278.21 421.33 278.25 421.31 278.29 421.25 278.32 421.22 278.47 421.14 278.76 421.04 278.79 421.02 278.85 420.95 278.88 420.94 278.94 420.95 279.32 421.17 279.36 421.2 279.49 421.37 279.69 421.5 279.76 421.53 279.76 421.53 279.71 421.57 279.63 421.63 279.58 421.69 279.56 421.77 279.56 421.81 279.59 421.88 279.6 421.97 279.62 422 279.67 422.07 279.69 422.13 279.72 422.2 279.72 422.27 279.7 422.35 279.67 422.4 279.58 422.53 279.56 422.61 279.56 422.68 279.59 422.85 279.59 422.93 279.51 423.18 279.48 423.26 279.41 423.36 279.4 423.4 279.3 423.84 279.28 423.92 279.27 423.97 279.27 424.01 279.29 424.05 279.35 424.15 279.35 424.19 279.33 424.24 279.26 424.31 279.23 424.35 279.18 424.51 279.13 424.6 279.09 424.65 279.02 424.71 278.97 424.8 278.95 424.88 278.94 424.91 278.94 424.96 278.95 425.02 278.97 425.06 278.99 425.11 278.98 425.17 278.97 425.23 278.97 425.23 278.97 425.27 279 425.35 279.01 425.4 278.97 425.42 278.9 425.42 278.87 425.44 278.87 425.51 278.91 425.64 278.92 425.68 278.93 425.72 278.98 425.78 279 425.81 278.99 425.86 278.97 425.91 278.95 425.94 278.94 425.98 278.95 426.1 278.96 426.14 278.94 426.18 278.92 426.18 278.86 426.19 278.85 426.2 278.83 426.22 278.83 426.25 278.84 426.27 278.85 426.35 278.88 426.43 278.87 426.48 278.83 426.64 278.84 426.68 278.88 426.72 278.89 426.75 278.87 426.78 278.85 426.82 278.83 426.85 278.83 426.86 278.82 426.87 278.83 426.92 278.83 427.03 278.79 427.11 278.79 427.12 278.79 427.13 278.76 427.28 278.75 427.32 278.73 427.36 278.67 427.43 278.6 427.49 278.57 427.53 278.55 427.57 278.55 427.61 278.56 427.64 278.57 427.69 278.57 427.74 278.56 427.8 278.54 427.86 278.51 427.9 278.49 427.91 278.48 427.9 278.47 427.89 278.45 427.88 278.35 427.88 278.3 427.89 278.26 427.93 278.24 427.98 278.21 428.09 278.19 428.14 278.17 428.17 278.14 428.21 278.1 428.23 277.99 428.24 277.95 428.25 277.8 428.4 277.79 428.44 277.82 428.54 277.81 428.59 277.78 428.62 277.73 428.63 277.64 428.62 277.6 428.61 277.56 428.59 277.51 428.57 277.46 428.57 277.35 428.63 277.25 428.64 277.2 428.66 277.17 428.68 277.13 428.73 277.1 428.77 277.09 428.82 277.08 428.94 277.06 428.98 277.01 428.98 276.94 428.98 276.9 428.98 276.87 429.02 276.87 429.07 276.85 429.11 276.82 429.13 276.76 429.15 276.76 429.19 276.81 429.29 276.82 429.32 276.82 429.34 276.82 429.37 276.79 429.42 276.79 429.44 276.8 429.46 276.79 429.49 276.77 429.55 276.74 429.59 276.69 429.62 276.63 429.63 276.57 429.67 276.49 429.77 276.41 429.83 276.28 429.76 276.22 429.74 276.19 429.73 276.17 429.7 276.14 429.61 276.1 429.56 276.06 429.55 276.01 429.55 275.95 429.56 275.94 429.56 275.9 429.56 275.85 429.55 275.7 429.49 275.7 429.49 275.65 429.48 275.59 429.47 275.53 429.51 275.49 429.54 275.41 429.63 275.36 429.65 275.3 429.67 275.25 429.7 275.23 429.75 275.24 429.82 275.23 429.88 275.21 429.93 275.17 429.97 275.12 430.04 275.09 430.11 275.05 430.17 274.98 430.19 274.98 430.19 274.91 430.16 274.84 430.11 274.79 430.04 274.74 429.97 274.66 429.86 274.65 429.86 274.51 429.84 274.45 429.86 274.35 429.89 274.24 429.97 274.16 429.99 274.16 429.99 274.08 429.94 273.94 429.8 273.86 429.77 273.86 429.77 273.78 429.78 273.7 429.81 273.48 429.93 273.41 429.95 273.32 429.95 273.3 429.94 273.25 429.94 273.25 429.94 273.23 429.93 273.21 429.92 273.15 429.87 273.12 429.86 273.12 429.86 273.02 429.83 273 429.83 272.98 429.81 272.96 429.8 272.93 429.76 272.91 429.75 272.86 429.74 272.85 429.73 272.79 429.73 272.57 429.77 272.51 429.76 272.5 429.76 272.46 429.74 272.1 429.56 272.1 429.56 272.08 429.55 271.85 429.5 271.85 429.5 271.76 429.47 271.75 429.47 271.66 429.45 271.63 429.44 271.56 429.41 271.56 429.41 271.43 429.39 271.38 429.38 271.38 429.38 271.31 429.38 271.18 429.4 271.15 429.4 270.91 429.37 270.3 429.42 270.1 429.51 270.09 429.52 270.09 429.52 270.1 429.39 270.1 429.34 270.07 429.3 270.02 429.25 269.99 429.22 269.97 429.19 269.99 429.12 270.02 429.07 270.07 429.04 270.18 429.02 270.19 429 270.19 428.96 270.19 428.91 270.19 428.89 270.2 428.87 270.21 428.85 270.22 428.84 270.24 428.82 270.25 428.82 270.26 428.83 270.26 428.85 270.26 428.86 270.27 428.87 270.28 428.88 270.28 428.88 270.3 428.88 270.31 428.87 270.31 428.83 270.31 428.81 270.32 428.79 270.34 428.76 270.38 428.71 270.4 428.67 270.37 428.64 270.36 428.61 270.38 428.58 270.41 428.56 270.51 428.53 270.56 428.51 270.58 428.48 270.6 428.46 270.7 428.45 270.73 428.42 270.72 428.38 270.68 428.35 270.65 428.32 270.68 428.26 270.72 428.25 270.76 428.26 270.79 428.27 270.82 428.24 270.82 428.22 270.8 428.19 270.8 428.16 270.83 428.15 270.86 428.15 270.88 428.15 270.88 428.14 270.89 427.94 270.9 427.9 270.91 427.87 270.92 427.87 270.93 427.87 271 427.89 271.03 427.89 271.04 427.87 271.03 427.85 271.02 427.83 271.01 427.81 271.01 427.78 271.02 427.77 271.05 427.74 271.07 427.73 271.06 427.71 271.04 427.68 271.02 427.66 270.97 427.62 270.96 427.61 270.95 427.57 270.96 427.53 270.97 427.49 270.98 427.45 270.98 427.43 271.02 427.41 271.02 427.38 270.97 427.33 270.96 427.3 270.98 427.26 271.05 427.13 271.06 427.09 271.07 427.05 271.06 426.98 271.06 426.94 271.07 426.92 271.11 426.91 271.16 426.89 271.2 426.86 271.2 426.83 271.16 426.8 271.13 426.79 271.1 426.76 271.1 426.72 271.12 426.73 271.14 426.74 271.15 426.75 271.16 426.77 271.18 426.74 271.2 426.69 271.22 426.61 271.24 426.58 271.39 426.53 271.46 426.49 271.72 426.3 271.74 426.26 271.74 426.22 271.64 426.19 271.66 426.16 271.74 426.09 271.75 426.08 271.76 426.05 271.76 426.02 271.71 426 271.7 425.99 271.71 425.97 271.76 425.95 271.8 425.93 271.83 425.9 271.85 425.89 271.87 425.86 271.84 425.78 271.83 425.73 271.86 425.71 271.9 425.69 271.95 425.66 271.99 425.62 272.01 425.59 271.99 425.58 271.96 425.58 271.95 425.56 271.93 425.54 271.98 425.47 272.01 425.44 272.05 425.42 272.08 425.42 272.1 425.42 272.12 425.42 272.14 425.41 272.15 425.39 272.16 425.33 272.17 425.32 272.23 425.33 272.27 425.33 272.28 425.32 272.29 425.26 272.32 425.24 272.35 425.23 272.37 425.21 272.39 425.16 272.42 424.95 272.41 424.91 272.4 424.88 272.37 424.85 272.23 424.74 272.23 424.71 272.16 424.54 272.16 424.54 272.09 424.49 272.05 424.43 271.98 424.27 271.95 424.24 271.88 424.2 271.85 424.18 271.75 424.07 271.72 424.04 271.68 424.02 271.5 424.02 271.47 424.01 271.46 423.99 271.45 423.96 271.43 423.94 271.41 423.93 271.36 423.94 271.34 423.94 271.19 423.86 271.16 423.86 271.14 423.83 270.94 423.69 270.9 423.69 270.86 423.72 270.8 423.78 270.77 423.8 270.74 423.81 270.72 423.82 270.69 423.81 270.68 423.8 270.67 423.78 270.66 423.75 270.51 423.59 270.46 423.52 270.43 423.49 270.38 423.47 269.89 423.37 269.88 423.36 269.88 423.34 269.86 423.33 269.85 423.32 269.83 423.31 269.8 423.3 269.69 423.3 269.64 423.29 269.21 422.97 269.14 422.95 269.12 422.93 269.08 422.89 269.06 422.88 269.04 422.87 269 422.87 268.96 422.86 268.87 422.8 268.82 422.78 268.76 422.74 268.67 422.71 268.65 422.69 268.63 422.67 268.62 422.66 268.58 422.66 268.56 422.65 268.53 422.61 268.46 422.59 268.42 422.54 268.38 422.46 268.36 422.43 268.27 422.36 268.22 422.33 268.21 422.31 268.21 422.29 268.2 422.27 268.18 422.26 268.14 422.24 268.09 422.21 268.06 422.19 268.04 422.17 268.02 422.15 267.98 422.15 267.94 422.12 267.89 422.12 267.86 422.11 267.85 422.09 267.81 422.04 267.72 421.95 266.93 421.43 266.89 421.42 266.84 421.42 266.74 421.46 266.68 421.47 266.52 421.47 266.34 421.45 266.27 421.45 266.25 421.45 266.23 421.43 266.19 421.4 266.16 421.38 266.14 421.38 266.06 421.38 265.93 421.35 265.85 421.3 265.81 421.28 265.73 421.28 265.72 421.27 265.68 421.2 265.68 421.18 265.66 421.18 265.62 421.16 265.6 421.15 265.57 421.15 265.47 421.15 265.45 421.15 265.4 421.11 265.38 421.1 265.25 421.1 265.19 421.11 265.14 421.1 265.08 421.06 265.01 421 264.92 420.96 264.84 420.98 264.77 420.94 264.75 420.92 264.72 420.87 264.7 420.85 264.7 420.82 264.67 420.77 264.64 420.72 264.58 420.69 264.54 420.63 264.52 420.61 264.54 420.57 264.55 420.51 264.54 420.46 264.51 420.44 264.47 420.43 264.44 420.4 264.41 420.37 264.38 420.34 264.37 420.34 264.32 420.34 264.31 420.34 264.29 420.33 264.24 420.28 264.22 420.28 264.18 420.26 264.16 420.23 264.14 420.19 264.13 420.16 263.98 420.1 263.93 420.09 263.9 420.09 263.88 420.07 263.85 420.05 263.82 420.02 263.78 420.01 263.74 420 263.69 420 263.67 419.98 263.65 419.93 263.62 419.9 263.62 419.88 263.63 419.85 263.64 419.83 263.6 419.83 263.57 419.83 263.55 419.82 263.44 419.7 263.41 419.68 263.31 419.68 263.28 419.68 263.26 419.66 263.22 419.63 263.19 419.6 263.16 419.59 263.13 419.57 263.12 419.53 263.12 419.48 263.12 419.45 263.1 419.43 263.08 419.4 263.05 419.38 263 419.35 262.98 419.33 262.93 419.26 262.91 419.24 262.66 419.09 262.58 419 262.55 418.96 262.55 418.95 262.55 418.93 262.56 418.88 262.55 418.86 262.53 418.82 262.49 418.73 262.45 418.68 262.41 418.63 262.39 418.61 262.38 418.58 262.37 418.58 262.35 418.56 262.33 418.54 262.33 418.54 262.31 418.53 262.3 418.51 262.3 418.49 262.29 418.47 262.23 418.4 262.21 418.38 262.2 418.35 262.19 418.33 262.16 418.32 262.15 418.31 262.18 418.25 262.13 418.23 262.14 418.2 262.15 418.14 262.14 418.12 262.13 418.11 262.12 418.12 262.09 418.11 262.04 418.08 262.01 418.06 262.01 418.03 262.04 417.99 262.05 417.95 262.03 417.9 261.98 417.85 261.97 417.84 261.96 417.84 261.94 417.84 261.94 417.82 261.94 417.8 261.94 417.79 261.93 417.77 261.91 417.76 261.89 417.76 261.81 417.75 261.79 417.74 261.75 417.73 261.6 417.62 261.56 417.58 261.54 417.55 261.52 417.53 261.43 417.5 261.41 417.49 261.35 417.42 261.32 417.39 261.26 417.37 261.24 417.37 261.21 417.36 261.18 417.35 261.16 417.33 261.17 417.31 261.18 417.29 261.19 417.26 261.18 417.23 261.19 417.23 261.18 417.21 261.17 417.19 261.15 417.18 261.13 417.18 261.18 417.06 261.24 416.84 261.3 416.62 261.39 416.3 261.47 416.03 261.58 415.69 261.65 415.44 261.73 415.16 261.81 414.9 261.88 414.65 261.96 414.41 261.96 414.26 261.96 414.26 261.96 413.91 261.96 413.69 261.95 413.48 261.95 413.26 261.97 413.2 262.05 413.08 262.1 413.01 262.15 412.94 262.25 412.8 262.34 412.66 262.44 412.51 262.54 412.37 262.58 412.31 262.62 412.26 262.65 412.2 262.69 412.15 262.72 412.09 262.73 412.06 262.75 412.03 262.78 411.97 262.8 411.9 262.8 411.9 262.87 411.73 262.93 411.56 262.99 411.39 263.05 411.22 263.1 411.1 263.11 411.07 263.15 411.06 263.35 411.03 263.39 411.02 263.5 411.01 263.6 410.99 263.65 410.98 264.4 410.82 265.15 410.66 265.9 410.5 266.65 410.33 266.99 410.26 267.17 410.26 267.59 410.25 268 410.25 268.42 410.24 268.84 410.24 269.02 410.23 269.06 410.25 269.13 410.29 269.19 410.34 269.3 410.41 269.51 410.53 269.72 410.66 269.92 410.79 270.13 410.92 270.34 411.05 270.54 411.17 270.75 411.3 270.96 411.43 271.04 411.48 271.07 411.51 271.08 411.54 271.07 411.62 271.07 411.7 271.11 411.83 271.12 411.9 271.11 411.96 271.12 412.06 271.11 412.1 271.08 412.23 271.08 412.29 Z" id="Paraguay" transform="translate(-261.1300048828125,-410.2300109863281) "/></svg>