<svg xmlns="http://www.w3.org/2000/svg" viewBox="0 0 28.050003051757812 41.010009765625"><path d="M 231.14 398.73 231.14 398.75 231.11 398.74 231.07 398.72 231.04 398.7 231.05 398.68 231.06 398.67 231.1 398.68 231.11 398.7 231.12 398.72 231.14 398.73 Z M 230.55 397.75 230.53 397.75 230.51 397.75 230.49 397.75 230.5 397.72 230.52 397.7 230.52 397.68 230.54 397.68 230.55 397.69 230.57 397.7 230.57 397.73 230.55 397.75 Z M 228.91 393.81 228.91 393.82 228.89 393.81 228.86 393.82 228.83 393.8 228.79 393.77 228.77 393.73 228.75 393.7 228.78 393.69 228.8 393.71 228.89 393.79 228.91 393.81 Z M 220.81 381.23 220.78 381.24 220.75 381.24 220.74 381.21 220.75 381.19 220.74 381.16 220.73 381.14 220.74 381.12 220.75 381.09 220.78 381.01 220.8 381.03 220.79 381.04 220.77 381.08 220.78 381.11 220.8 381.13 220.8 381.16 220.8 381.19 220.81 381.23 Z M 244.91 376.28 244.92 376.35 244.9 376.4 244.86 376.46 244.78 376.51 244.75 376.52 244.72 376.51 244.69 376.49 244.67 376.46 244.65 376.44 244.64 376.39 244.62 376.35 244.58 376.33 244.53 376.34 244.48 376.36 244.46 376.4 244.42 376.48 244.38 376.52 244.35 376.49 244.34 376.45 244.32 376.43 244.3 376.43 244.28 376.43 244.26 376.42 244.15 376.34 244.13 376.31 244.13 376.27 244.15 376.18 244.14 376.14 244.13 376.11 244.1 376.08 244.07 376.07 244.03 376.13 244.01 376.13 243.95 376.08 243.91 376.06 243.88 376.06 243.85 376.07 243.81 376.08 243.72 376.15 243.69 376.17 243.67 376.15 243.66 376.12 243.65 376.09 243.61 376.07 243.58 376.09 243.56 376.13 243.56 376.17 243.54 376.19 243.43 376.13 243.43 376.1 243.44 376.06 243.43 376.03 243.4 376.02 243.36 376.03 243.34 376.06 243.32 376.12 243.29 376.14 243.25 376.14 243.12 376.1 243.09 376.11 242.99 376.16 242.96 376.18 242.95 376.21 242.97 376.27 242.97 376.29 242.93 376.3 242.9 376.32 242.88 376.35 242.87 376.39 242.85 376.42 242.78 376.49 242.75 376.52 242.73 376.57 242.69 376.61 242.64 376.57 242.6 376.53 242.59 376.58 242.55 376.61 242.44 376.57 242.38 376.59 242.35 376.64 242.33 376.65 242.3 376.64 242.28 376.63 242.26 376.58 242.24 376.56 242.2 376.58 242.17 376.64 242.14 376.67 242.08 376.6 242.03 376.59 241.98 376.6 241.94 376.63 241.94 376.66 241.94 376.68 241.94 376.71 241.92 376.73 241.91 376.73 241.9 376.73 241.88 376.72 241.87 376.73 241.85 376.76 241.84 376.76 241.81 376.78 241.79 376.76 241.78 376.74 241.76 376.72 241.73 376.72 241.63 376.73 241.56 376.74 241.53 376.74 241.49 376.75 241.48 376.77 241.47 376.82 241.45 376.83 241.44 376.83 241.38 376.82 241.35 376.82 241.25 376.87 241.26 376.82 241.23 376.83 241.19 376.87 241.16 376.88 241.14 376.88 241.12 376.87 241.1 376.85 241.07 376.83 241.04 376.83 241.02 376.85 240.98 376.86 240.95 376.85 240.9 376.83 240.88 376.82 240.86 376.83 240.85 376.85 240.85 376.86 240.84 376.87 240.83 376.88 240.64 376.9 240.61 376.91 240.55 376.95 240.44 377.05 240.38 377.07 240.34 377.1 240.32 377.11 240.3 377.12 240.28 377.11 240.26 377.1 240.24 377.1 240.23 377.12 240.19 377.2 240.16 377.23 240.12 377.26 240 377.33 239.88 377.41 239.84 377.44 239.8 377.45 239.77 377.45 239.69 377.44 239.66 377.45 239.65 377.46 239.65 377.48 239.64 377.49 239.54 377.52 239.52 377.54 239.5 377.66 239.48 377.7 239.44 377.72 239.4 377.75 239.38 377.75 239.35 377.75 239.34 377.76 239.34 377.77 239.34 377.78 239.34 377.79 239.33 377.8 239.32 377.82 239.32 377.84 239.3 377.85 239.27 377.85 239.23 377.86 239.19 377.88 239.15 377.9 239.1 377.96 239.04 377.99 239.01 378.02 239 378.04 239 378.07 238.99 378.08 238.97 378.1 238.95 378.11 238.83 378.11 238.78 378.1 238.74 378.09 238.71 378.11 238.69 378.15 238.65 378.17 238.56 378.18 238.55 378.18 238.52 378.17 238.51 378.17 238.5 378.19 238.5 378.22 238.5 378.23 238.47 378.24 238.45 378.25 238.42 378.25 238.37 378.26 238.36 378.3 238.37 378.33 238.39 378.37 238.4 378.4 238.42 378.54 238.41 378.57 238.39 378.6 238.37 378.63 238.35 378.66 238.34 378.76 238.33 378.79 238.26 378.93 238.24 379 238.25 379.07 238.27 379.14 238.27 379.21 238.23 379.41 238.21 379.48 238.18 379.54 237.95 379.84 237.87 379.91 237.75 380.19 237.7 380.27 237.66 380.35 237.66 380.46 237.68 380.51 237.79 380.63 237.8 380.67 237.83 380.85 237.84 380.9 237.89 381 237.9 381.05 237.9 381.1 237.89 381.15 237.86 381.24 237.8 381.33 237.74 381.39 237.67 381.43 237.57 381.46 237.41 381.46 237.36 381.47 237.28 381.54 237.2 381.6 237.05 381.73 236.87 381.83 236.76 381.92 236.69 381.96 236.66 381.98 236.64 382.04 236.62 382.06 236.52 382.12 236.5 382.15 236.49 382.18 236.48 382.31 236.43 382.51 236.4 382.57 236.38 382.63 236.4 382.66 236.4 382.68 236.56 382.9 236.58 382.99 236.6 383.03 236.6 383.07 236.58 383.12 236.54 383.14 236.5 383.15 236.41 383.14 236.35 383.15 236.31 383.16 236.23 383.21 236.18 383.23 236.14 383.22 236.05 383.19 236 383.19 236.01 383.23 236.08 383.34 236.09 383.39 236.08 383.43 236.06 383.46 236.06 383.51 236.03 383.56 236 383.57 235.93 383.6 235.95 383.64 236.03 383.69 236.32 384 236.39 384.04 236.46 384.07 236.54 384.09 236.6 384.15 236.63 384.23 236.6 384.32 236.53 384.36 236.46 384.34 236.42 384.34 236.42 384.38 236.44 384.48 236.46 384.52 236.52 384.57 236.62 384.6 236.7 384.65 236.74 384.72 236.75 384.77 236.83 384.87 236.85 384.92 236.85 384.96 236.84 385.05 236.85 385.09 236.87 385.14 236.94 385.22 236.96 385.28 236.97 385.37 236.98 385.42 237.02 385.45 237.19 385.54 237.22 385.56 237.25 385.61 237.27 385.63 237.3 385.64 237.34 385.64 237.36 385.65 237.39 385.68 237.41 385.72 237.41 385.77 237.39 385.87 237.39 385.91 237.41 385.95 237.5 386.07 237.54 386.11 237.59 386.13 237.72 386.16 237.76 386.18 237.8 386.22 237.82 386.26 237.86 386.36 238.03 386.61 238.06 386.63 238.15 386.69 238.18 386.72 238.24 386.81 238.25 386.85 238.27 387.03 238.26 387.1 238.25 387.14 238.22 387.17 238.12 387.25 238.12 387.31 238.11 387.34 238.08 387.36 238.04 387.37 238.01 387.37 237.98 387.39 237.96 387.42 237.92 387.49 237.87 387.56 237.75 387.68 237.71 387.75 238.6 387.76 238.87 387.81 238.88 387.82 238.9 387.84 238.91 387.84 238.92 387.84 238.94 387.82 238.95 387.82 238.99 387.83 239.08 387.86 239.17 387.9 239.21 387.92 239.31 387.93 239.45 387.92 239.49 387.93 239.54 387.95 239.6 388 239.64 388.03 239.66 388.03 239.68 388.03 239.71 388.03 239.72 388.05 239.72 388.07 239.72 388.14 239.73 388.18 239.75 388.22 239.81 388.29 239.82 388.33 239.81 388.37 239.79 388.46 239.81 388.54 239.97 388.64 240.01 388.73 240.02 388.75 240.04 388.8 240.04 388.82 240.04 388.85 240 388.89 239.99 388.92 239.99 388.96 239.99 389 239.99 389.04 239.97 389.09 240.09 389.09 240.48 389.09 240.88 389.09 241.27 389.09 241.67 389.09 241.75 389.09 241.79 389.08 241.81 389.06 241.82 389.05 241.83 389.03 241.86 389.03 241.89 389.04 241.9 389.05 241.92 389.06 241.95 389.06 242 389.04 242.07 388.98 242.18 388.94 242.21 388.9 242.23 388.84 242.26 388.8 242.3 388.77 242.45 388.7 242.58 388.67 242.62 388.64 242.64 388.61 242.67 388.55 242.69 388.53 242.71 388.51 242.77 388.47 242.79 388.45 242.86 388.36 242.89 388.32 243 388.26 243.05 388.22 243.13 388.14 243.18 388.1 243.32 388.02 243.37 387.98 243.44 387.88 243.49 387.84 243.53 387.82 243.58 387.81 243.67 387.8 243.67 387.83 243.67 387.84 243.65 387.88 243.64 387.92 243.63 387.94 243.59 387.96 243.59 387.97 243.6 387.99 243.6 387.99 243.57 388 243.56 388.02 243.55 388.05 243.58 388.1 243.56 388.11 243.53 388.1 243.52 388.1 243.46 388.1 243.45 388.1 243.47 388.15 243.49 388.22 243.5 388.26 243.53 388.29 243.59 388.34 243.62 388.38 243.63 388.42 243.63 388.46 243.61 388.5 243.58 388.54 243.58 388.55 243.57 388.58 243.56 388.59 243.55 388.6 243.53 388.58 243.51 388.58 243.49 388.59 243.47 388.61 243.45 388.63 243.44 388.65 243.42 388.74 243.42 388.88 243.42 388.98 243.42 389.16 243.42 389.45 243.42 389.73 243.42 390.02 243.41 390.3 243.41 390.59 243.41 390.87 243.41 391.16 243.41 391.34 243.6 391.19 243.65 391.17 243.71 391.23 243.81 391.34 243.86 391.4 243.97 391.45 244.08 391.46 244.19 391.46 244.3 391.44 244.39 391.41 244.93 391.13 245.02 391.14 245.07 391.15 245.11 391.15 245.2 391.15 245.26 391.15 245.3 391.17 245.38 391.22 245.45 391.23 245.73 391.21 245.77 391.21 245.78 391.22 245.79 391.23 245.79 391.25 245.8 391.26 245.81 391.28 245.82 391.29 245.83 391.3 245.83 391.32 246.06 391.72 246.3 392.13 246.53 392.54 246.76 392.94 246.99 393.35 247.22 393.76 247.45 394.17 247.68 394.57 247.74 394.67 247.75 394.69 247.73 394.7 247.71 394.72 247.7 394.77 247.68 394.8 247.66 394.83 247.63 394.86 247.56 394.9 247.53 394.92 247.51 394.96 247.51 394.99 247.53 395.02 247.6 395.04 247.62 395.06 247.57 395.16 247.55 395.18 247.37 395.23 247.32 395.26 247.29 395.31 247.26 395.37 247.21 395.37 247.19 395.41 247.16 395.46 247.09 395.52 247.08 395.57 247.08 395.66 247.11 395.89 247.11 395.92 247.1 396.19 247.1 396.28 247.13 396.46 247.11 396.9 247.11 396.95 247.1 397.01 247.08 397.06 247.06 397.09 247.02 397.14 247 397.17 246.99 397.2 247 397.22 247 397.25 246.98 397.28 246.95 397.28 246.88 397.27 246.86 397.27 246.82 397.32 246.87 397.39 246.99 397.49 247.01 397.52 247.01 397.55 247 397.57 247 397.61 247 397.64 247.03 397.73 247.07 397.78 247.07 397.86 247.07 397.94 247.09 398.02 247.12 398.06 247.24 398.14 247.26 398.17 247.27 398.2 247.29 398.28 247.34 398.43 247.35 398.51 247.31 398.56 247.16 398.58 247.08 398.6 247.03 398.64 247.02 398.68 247.01 398.72 247.01 398.81 247.03 398.85 247.06 398.89 247.07 398.94 247.03 398.98 246.88 399.06 246.84 399.09 246.75 399.19 246.74 399.2 246.7 399.21 246.69 399.22 246.68 399.26 246.69 399.37 246.67 399.39 246.62 399.39 246.57 399.38 246.53 399.38 246.5 399.43 246.49 399.72 246.46 399.79 246.42 399.81 246.3 399.84 246.25 399.87 246.23 399.9 246.23 399.94 246.23 400.13 246.23 400.14 246.19 400.23 246.18 400.27 246.2 400.31 246.25 400.36 246.28 400.39 246.41 400.59 246.45 400.62 246.58 400.72 246.61 400.76 246.67 400.83 246.72 400.89 246.72 400.93 246.68 400.96 246.63 400.95 246.59 400.95 246.56 401.04 246.48 401.07 246.44 401.11 246.4 401.15 246.39 401.19 246.42 401.26 246.42 401.28 246.4 401.29 246.34 401.31 246.32 401.32 246.29 401.36 246.28 401.41 246.27 401.45 246.26 401.5 246.12 401.71 246.1 401.78 246.11 401.85 246.14 401.92 246.23 402.16 246.32 402.39 246.42 402.63 246.51 402.86 246.56 402.99 246.64 403.09 246.68 403.12 246.73 403.15 246.78 403.17 246.84 403.17 246.86 403.16 246.91 403.12 246.93 403.12 246.96 403.12 247.03 403.14 247.09 403.12 247.14 403.15 247.23 403.25 247.35 403.3 247.4 403.33 247.42 403.39 247.37 403.47 247.12 403.57 247.05 403.61 246.99 403.68 246.97 403.72 246.96 403.77 246.97 403.9 246.96 403.97 246.97 404.01 247.03 404.09 247 404.13 246.97 404.18 246.93 404.2 246.8 404.27 246.76 404.28 246.68 404.29 246.65 404.31 246.63 404.34 246.58 404.47 246.55 404.52 246.33 404.76 246.27 404.88 246.24 404.91 246.15 404.97 246.13 404.99 246.13 405.01 246.13 405.02 246.15 405.03 246.16 405.04 246.15 405.08 246.1 405.13 246.04 405.16 245.98 405.17 245.92 405.19 245.85 405.24 245.73 405.35 245.72 405.35 245.68 405.36 245.67 405.36 245.65 405.41 245.61 405.54 245.57 405.6 245.58 405.6 245.69 405.61 245.73 405.63 245.82 405.7 245.86 405.74 245.89 405.79 245.92 405.85 245.92 405.94 245.92 406.1 245.92 406.1 245.92 406.1 245.64 406.38 245.53 406.45 245.43 406.46 245.33 406.45 245.24 406.46 245.17 406.53 245.15 406.63 245.17 406.71 245.21 406.79 245.23 406.89 245.24 406.95 245.25 406.99 245.3 407.07 245.32 407.11 245.32 407.16 245.31 407.2 245.18 407.51 245.13 407.58 245.09 407.62 245 407.7 244.9 407.82 244.86 407.86 244.81 407.88 244.75 407.88 244.69 407.89 244.54 407.98 244.48 408 244.37 408.01 244.13 407.99 244.01 408 243.96 408.03 243.9 407.98 243.79 407.91 243.66 407.81 243.59 407.76 243.51 407.72 243.43 407.68 243.32 407.62 243.21 407.51 243.2 407.5 243.19 407.48 243.18 407.46 243.17 407.46 243.14 407.45 243.13 407.45 243 407.33 242.96 407.31 242.89 407.28 242.86 407.26 242.83 407.17 242.81 407.12 242.77 407.1 242.74 407.09 242.65 407.01 242.6 406.99 242.47 406.95 242.42 406.94 242.31 406.83 242.26 406.8 242.23 406.77 242.17 406.69 242.13 406.67 242.02 406.62 241.94 406.56 241.89 406.54 241.85 406.53 241.77 406.54 241.76 406.54 241.76 406.52 241.78 406.49 241.81 406.45 241.82 406.4 241.81 406.35 241.8 406.3 241.78 406.07 241.77 406.03 241.74 405.94 241.73 405.86 241.72 405.85 241.71 405.84 241.69 405.83 241.63 405.75 241.55 405.7 241.54 405.69 241.51 405.62 241.48 405.59 241.44 405.58 241.35 405.56 241.3 405.55 241.28 405.53 241.24 405.5 241.21 405.47 241.19 405.47 240.83 405.38 240.74 405.34 240.67 405.28 240.57 405.16 240.51 405.1 240.39 405.03 240.35 405.01 240.3 405 240.16 404.99 240.14 404.98 240.13 404.96 240.13 404.91 240.12 404.88 240.09 404.85 240 404.8 239.99 404.78 239.96 404.74 239.91 404.72 239.8 404.69 239.75 404.66 239.74 404.62 239.74 404.57 239.72 404.53 239.6 404.39 239.55 404.35 239.52 404.34 239.5 404.34 239.48 404.34 239.46 404.32 239.44 404.29 239.42 404.28 239.4 404.27 239.39 404.27 239.34 404.23 239.32 404.22 239.23 404.21 239.1 404.15 238.87 404.15 238.67 404.08 238.43 403.91 238.05 403.77 237.98 403.69 237.88 403.64 237.8 403.59 237.76 403.57 237.67 403.57 237.63 403.56 237.59 403.54 237.56 403.53 237.53 403.55 237.51 403.51 237.48 403.42 237.46 403.4 237.44 403.39 237.37 403.37 237.25 403.31 237.12 403.28 236.86 403.19 236.68 403.16 236.63 403.2 236.63 403.14 236.59 403.11 236.57 403.09 236.55 403.07 236.47 403.05 236.32 402.97 236.25 402.93 236.11 402.84 235.96 402.72 235.89 402.67 235.89 402.64 235.9 402.61 235.89 402.58 235.86 402.55 235.8 402.51 235.61 402.41 235.57 402.4 235.48 402.39 235.44 402.37 235.41 402.33 235.41 402.31 235.38 402.29 235.32 402.27 235.24 402.29 235.16 402.27 235.08 402.24 234.99 402.18 234.98 402.16 234.97 402.12 234.97 402.09 234.95 402.08 234.95 402.04 234.94 402.01 234.88 401.99 234.77 401.96 234.46 401.82 234.3 401.73 234.09 401.65 234.04 401.58 233.8 401.45 233.74 401.41 233.71 401.4 233.67 401.4 233.66 401.41 233.64 401.4 233.61 401.38 233.54 401.31 233.51 401.29 233.47 401.27 233.43 401.26 233.39 401.25 233.38 401.21 233.37 401.21 233.33 401.2 233.33 401.18 233.33 401.17 233.36 401.16 233.41 401.14 233.41 401.11 233.38 401.06 233.32 401.02 233.23 400.98 233.17 400.92 233.21 400.93 233.23 400.91 233.24 400.89 233.24 400.86 233.23 400.84 233.22 400.82 233.11 400.72 233.06 400.7 232.95 400.68 232.92 400.66 232.9 400.62 232.88 400.57 232.77 400.42 232.76 400.37 232.74 400.35 232.66 400.3 232.64 400.27 232.63 400.26 232.64 400.18 232.63 400.17 232.53 400.09 232.35 400 232.29 399.97 232.24 399.95 232.19 399.91 232.09 399.83 231.98 399.78 231.97 399.77 231.95 399.75 231.93 399.74 231.91 399.74 231.89 399.73 231.87 399.71 231.86 399.68 231.84 399.66 231.83 399.65 231.81 399.63 231.72 399.59 231.69 399.55 231.69 399.5 231.69 399.45 231.68 399.4 231.65 399.35 231.61 399.29 231.59 399.28 231.59 399.25 231.6 399.23 231.61 399.2 231.6 399.18 231.58 399.13 231.53 399.1 231.45 399.05 231.42 399.03 231.38 398.97 231.35 398.94 231.33 398.93 231.27 398.92 231.25 398.91 231.24 398.9 231.22 398.82 231.28 398.82 231.29 398.8 231.3 398.77 231.28 398.74 231.26 398.7 231.25 398.68 231.23 398.63 231.2 398.59 231.17 398.57 231.13 398.56 231.11 398.53 231.1 398.49 231.09 398.46 231.06 398.44 230.98 398.41 230.98 398.46 230.93 398.54 230.89 398.46 230.91 398.4 230.91 398.31 230.89 398.26 230.91 398.25 230.91 398.21 230.94 398.19 230.93 398.17 230.93 398.15 230.94 398.12 230.92 398.1 230.9 398.06 230.93 398.05 230.93 397.99 230.92 397.95 230.88 397.93 230.87 397.9 230.88 397.89 230.88 397.87 230.88 397.85 230.87 397.84 230.85 397.83 230.84 397.84 230.83 397.88 230.81 397.9 230.79 397.89 230.75 397.9 230.71 397.87 230.66 397.87 230.66 397.81 230.67 397.78 230.7 397.71 230.72 397.68 230.71 397.65 230.73 397.63 230.77 397.64 230.81 397.61 230.85 397.61 230.88 397.61 230.89 397.64 230.87 397.67 230.86 397.7 230.88 397.72 230.91 397.73 230.95 397.76 230.97 397.74 230.97 397.69 230.98 397.64 231.02 397.54 231.04 397.48 231.03 397.43 231.04 397.37 231.07 397.29 231.09 397.22 231.13 397.04 231.12 396.87 231.1 396.78 231.04 396.62 230.93 396.46 230.85 396.4 230.71 396.21 230.53 395.98 230.46 395.9 230.45 395.84 230.41 395.79 230.39 395.69 230.4 395.61 230.39 395.52 230.35 395.46 230.33 395.44 230.18 395.31 230.14 395.25 230.04 395.07 230.02 395.04 230.02 394.98 230.02 394.96 230.01 394.93 229.97 394.9 229.9 394.8 229.8 394.74 229.76 394.71 229.73 394.65 229.78 394.59 229.8 394.5 229.78 394.42 229.7 394.35 229.64 394.24 229.43 394.12 229.3 394.07 229.28 394.07 229.27 394.06 229.23 394.02 229.22 394 229.21 393.97 229.22 393.95 229.23 393.93 229.23 393.91 229.2 393.82 229.12 393.76 229.06 393.74 229.02 393.73 228.93 393.72 228.95 393.68 228.97 393.65 229 393.61 229 393.56 228.99 393.41 228.97 393.36 228.96 393.29 228.95 393.27 228.91 393.21 228.9 393.17 228.91 393.11 228.88 393.06 228.88 393.04 228.92 393.04 228.95 393.01 228.94 392.97 228.88 392.87 228.87 392.82 228.85 392.76 228.82 392.72 228.78 392.7 228.76 392.69 228.73 392.67 228.69 392.62 228.69 392.6 228.7 392.58 228.7 392.56 228.69 392.55 228.65 392.5 228.62 392.45 228.61 392.42 228.59 392.41 228.56 392.4 228.55 392.39 228.52 392.35 228.48 392.32 228.38 392.28 228.31 392.22 227.97 392.04 227.91 391.99 227.88 391.97 227.89 391.94 227.88 391.89 227.87 391.84 227.89 391.83 227.88 391.81 227.9 391.79 227.92 391.79 227.95 391.8 227.97 391.79 227.99 391.78 228 391.74 228 391.68 227.97 391.63 227.95 391.6 227.96 391.57 227.91 391.52 227.92 391.5 227.9 391.46 227.91 391.44 227.89 391.4 227.85 391.35 227.86 391.33 227.88 391.31 227.86 391.26 227.84 391.22 227.85 391.2 227.83 391.15 227.81 391.11 227.77 391.07 227.74 391.02 227.74 390.98 227.69 390.94 227.65 390.9 227.65 390.87 227.66 390.85 227.62 390.8 227.62 390.78 227.56 390.72 227.53 390.69 227.51 390.67 227.5 390.64 227.48 390.62 227.44 390.58 227.3 390.34 227.3 390.32 227.27 390.26 227.23 390.23 227.17 390.18 227.17 390.14 227.15 390.09 227.11 390.04 227.08 390 227.07 389.98 227.09 389.96 227.09 389.93 227.06 389.91 226.98 389.85 226.97 389.81 226.97 389.75 226.93 389.72 226.91 389.69 226.91 389.66 226.89 389.61 226.9 389.59 226.88 389.55 226.87 389.52 226.82 389.48 226.73 389.39 226.71 389.35 226.7 389.32 226.69 389.3 226.71 389.3 226.73 389.28 226.72 389.26 226.7 389.23 226.71 389.21 226.71 389.19 226.71 389.17 226.67 389.12 226.66 389.07 226.65 389.04 226.63 389.01 226.62 388.99 226.6 388.98 226.59 388.97 226.58 388.97 226.58 388.96 226.58 388.94 226.59 388.93 226.59 388.91 226.59 388.88 226.59 388.85 226.58 388.82 226.56 388.8 226.56 388.76 226.57 388.71 226.59 388.68 226.59 388.61 226.5 388.54 226.43 388.45 226.42 388.4 226.38 388.36 226.36 388.32 226.34 388.3 226.31 388.25 226.28 388.22 226.27 388.15 226.28 388.08 226.24 388.06 226.23 388.02 226.24 387.99 226.21 387.96 226.2 387.91 226.22 387.88 226.25 387.85 226.23 387.81 226.2 387.81 226.15 387.78 226.14 387.72 226.15 387.68 226.17 387.66 226.18 387.65 226.16 387.64 226.14 387.62 226.12 387.6 226.11 387.57 226.08 387.56 226.05 387.57 226.03 387.58 225.98 387.52 225.97 387.5 225.97 387.48 225.95 387.46 225.93 387.44 225.95 387.43 225.97 387.41 226 387.41 226.01 387.36 226.02 387.32 226 387.27 225.96 387.24 225.91 387.23 225.88 387.24 225.86 387.25 225.85 387.27 225.86 387.29 225.87 387.32 225.88 387.36 225.87 387.39 225.85 387.38 225.82 387.32 225.78 387.27 225.75 387.24 225.75 387.21 225.74 387.2 225.75 387.19 225.78 387.2 225.84 387.22 225.85 387.2 225.86 387.17 225.86 387.13 225.84 387.07 225.82 387.04 225.79 387.02 225.76 387.01 225.72 387.02 225.7 387 225.68 386.97 225.68 386.93 225.7 386.89 225.71 386.87 225.69 386.85 225.63 386.83 225.63 386.81 225.65 386.81 225.66 386.8 225.66 386.75 225.65 386.69 225.63 386.66 225.61 386.61 225.59 386.58 225.56 386.54 225.51 386.48 225.41 386.34 225.41 386.32 225.41 386.3 225.43 386.28 225.45 386.26 225.46 386.2 225.45 386.15 225.45 386.11 225.44 386.06 225.42 385.97 225.35 385.88 225.28 385.79 225.2 385.71 225.15 385.67 225.08 385.65 225.04 385.62 225.02 385.59 225.03 385.56 225.05 385.56 225.06 385.57 225.09 385.55 225.1 385.5 225.1 385.45 224.96 385.25 224.96 385.21 224.91 385.13 224.91 385.1 224.84 385.02 224.61 384.82 224.61 384.76 224.48 384.67 224.22 384.48 224.1 384.35 224.03 384.25 224.01 384.16 223.9 384.03 223.87 384.01 223.85 383.99 223.86 383.97 223.89 383.96 223.92 383.94 223.92 383.89 223.89 383.84 223.81 383.71 223.65 383.5 223.59 383.43 223.59 383.37 223.58 383.33 223.58 383.31 223.6 383.28 223.61 383.25 223.59 383.19 223.56 383.13 223.56 383.09 223.53 382.99 223.45 382.91 223.37 382.82 223.34 382.79 223.35 382.74 223.36 382.69 223.31 382.63 223.08 382.4 222.96 382.29 222.94 382.24 222.82 382.14 222.79 382.07 222.78 382 222.75 381.93 222.69 381.86 222.66 381.82 222.4 381.62 222.29 381.55 222.01 381.39 221.65 381.21 221.05 380.91 220.91 380.85 220.78 380.71 220.61 380.6 220.42 380.49 220.23 380.34 220.16 380.26 220.11 380.13 220.12 380.04 220.12 379.94 220.12 379.92 220.16 379.88 220.18 379.84 220.19 379.83 220.24 379.82 220.26 379.77 220.26 379.74 220.28 379.71 220.32 379.71 220.37 379.78 220.43 379.81 220.51 379.84 220.58 379.85 220.66 379.77 220.75 379.62 220.77 379.41 220.71 379.24 220.6 379 220.53 378.92 220.33 378.72 220.29 378.68 220.24 378.66 220.21 378.67 220.16 378.63 220.11 378.56 220.06 378.5 220.01 378.43 220.02 378.41 220.04 378.39 220.06 378.38 220.08 378.33 220.07 378.31 220.06 378.29 220.06 378.26 220.09 378.25 220.08 378.21 220.07 378.16 220.09 378.13 220.12 378.14 220.16 378.11 220.2 378.15 220.27 378.15 220.3 378.1 220.31 378.02 220.26 377.91 220.19 377.84 220.12 377.79 220.07 377.71 220.03 377.64 219.95 377.54 219.78 377.35 219.7 377.26 219.71 377.23 219.74 377.22 219.77 377.18 219.77 377.14 219.75 377.09 219.77 376.98 219.77 376.94 219.76 376.9 219.73 376.86 219.72 376.81 219.73 376.78 219.75 376.76 219.77 376.75 219.78 376.74 219.8 376.71 219.83 376.64 219.83 376.59 219.8 376.46 219.81 376.42 219.83 376.37 219.86 376.32 219.89 376.29 220.08 376.16 220.13 376.11 220.17 376.03 220.21 376 220.25 375.99 220.29 375.98 220.31 375.95 220.35 375.88 220.47 375.7 220.54 375.63 220.62 375.56 220.71 375.51 220.74 375.48 220.76 375.44 220.76 375.39 220.78 375.34 220.82 375.26 220.88 375.19 220.96 375.12 221.31 374.92 221.37 374.85 221.46 374.72 221.48 374.67 221.5 374.66 221.52 374.66 221.54 374.65 221.57 374.64 221.73 374.64 221.77 374.63 221.81 374.61 221.85 374.58 221.87 374.54 221.87 374.52 221.9 374.47 221.91 374.45 221.91 374.43 221.93 374.43 221.96 374.45 222.05 374.47 222.08 374.5 222.07 374.54 222.06 374.58 222.06 374.63 222.08 374.64 222.11 374.66 222.13 374.67 222.13 374.69 222.13 374.71 222.13 374.75 222.11 374.81 222.11 374.83 222.13 374.85 222.15 374.85 222.17 374.86 222.17 374.88 222.17 374.91 222.19 374.95 222.19 374.97 222.19 375 222.17 375.04 222.17 375.06 222.17 375.08 222.17 375.1 222.18 375.14 222.19 375.16 222.18 375.18 222.17 375.19 222.17 375.21 222.18 375.25 222.22 375.32 222.24 375.37 222.24 375.39 222.24 375.43 222.25 375.45 222.27 375.47 222.29 375.48 222.3 375.5 222.3 375.5 222.3 375.52 222.27 375.56 222.09 375.64 222.06 375.68 222.03 375.73 221.99 375.77 221.95 375.8 221.9 375.79 221.81 375.74 221.76 375.72 221.72 375.72 221.67 375.72 221.63 375.74 221.6 375.76 221.58 375.8 221.55 375.85 221.53 375.9 221.53 375.91 221.53 375.95 221.54 375.97 221.57 376.02 221.59 376.05 221.59 376.07 221.58 376.12 221.58 376.14 221.63 376.23 221.7 376.24 221.8 376.21 221.9 376.2 221.88 376.25 221.58 376.64 221.58 376.67 221.59 376.72 221.62 376.75 221.72 376.8 221.76 376.82 221.8 376.82 221.82 376.81 221.84 376.79 221.93 376.75 222.1 376.62 222.14 376.58 222.15 376.54 222.17 376.47 222.19 376.44 222.21 376.42 222.23 376.41 222.26 376.4 222.35 376.39 222.36 376.39 222.37 376.41 222.41 376.42 222.45 376.43 222.49 376.44 222.53 376.48 222.6 376.56 222.65 376.59 222.71 376.62 222.76 376.63 222.82 376.63 222.88 376.64 222.94 376.69 222.98 376.76 223.04 376.82 223.12 376.83 223.27 376.79 223.34 376.74 223.42 376.73 223.49 376.76 223.6 376.87 223.62 376.88 223.65 376.9 223.66 376.91 223.71 376.91 223.76 376.94 223.77 376.96 223.77 376.99 223.71 377.08 223.71 377.13 223.78 377.22 223.8 377.35 223.86 377.46 223.86 377.46 223.87 377.5 223.88 377.55 223.92 377.58 223.97 377.61 224.01 377.63 224.02 377.65 224.03 377.7 224.05 377.72 224.06 377.73 224.11 377.75 224.13 377.76 224.16 377.8 224.18 377.85 224.21 377.88 224.26 377.9 224.37 377.89 224.42 377.89 224.46 377.9 224.53 377.92 224.57 377.93 224.59 377.93 224.63 377.92 224.65 377.93 224.68 377.94 224.7 377.96 224.74 378 224.81 377.94 224.86 377.88 224.88 377.84 224.9 377.73 224.93 377.69 224.97 377.68 225.03 377.68 225.08 377.67 225.1 377.63 225.09 377.57 225.04 377.47 225.04 377.41 225.07 377.35 225.11 377.3 225.21 377.2 225.3 377.15 225.5 377.07 225.53 377.05 225.59 377.01 225.61 376.98 225.61 376.94 225.61 376.89 225.62 376.85 225.65 376.8 225.68 376.76 225.69 376.72 225.63 376.69 225.61 376.65 225.59 376.57 225.59 376.48 225.61 376.44 225.65 376.4 225.67 376.36 225.69 376.26 225.82 375.98 225.85 375.89 225.84 375.75 225.85 375.72 225.88 375.69 225.9 375.69 225.93 375.69 225.96 375.68 225.99 375.66 226 375.65 226 375.64 226.02 375.47 226.03 375.43 226.06 375.39 226.07 375.38 226.1 375.37 226.12 375.35 226.17 375.3 226.18 375.26 226.15 375.12 226.15 375.09 226.16 375.08 226.17 375.07 226.19 375.07 226.21 375.06 226.21 375.04 226.2 374.99 226.2 374.91 226.21 374.87 226.22 374.82 226.26 374.73 226.27 374.72 226.3 374.64 226.31 374.54 226.31 374.52 226.3 374.47 226.3 374.46 226.32 374.42 226.36 374.41 226.41 374.41 226.5 374.44 226.53 374.46 226.55 374.49 226.58 374.64 226.6 374.68 226.63 374.66 226.66 374.63 226.7 374.62 226.74 374.61 226.76 374.56 226.75 374.5 226.72 374.47 226.69 374.45 226.66 374.41 226.66 374.36 226.69 374.33 226.77 374.27 226.8 374.23 226.87 374.1 226.9 374.06 227.01 373.98 227.23 373.68 227.39 373.54 227.43 373.52 227.52 373.49 227.58 373.46 227.86 373.37 228.14 373.27 228.42 373.17 228.7 373.08 228.98 372.98 229.25 372.88 229.53 372.79 229.81 372.69 230.02 372.62 230.05 372.6 230.15 372.54 230.27 372.44 230.41 372.34 230.54 372.24 230.67 372.14 230.8 372.04 230.93 371.94 231.07 371.84 231.2 371.74 231.33 371.64 231.44 371.51 231.55 371.38 231.66 371.25 231.77 371.13 231.88 371 232 370.87 232.11 370.74 232.22 370.61 232.31 370.51 232.43 370.4 232.46 370.36 232.48 370.34 232.51 370.26 232.54 370.13 232.61 369.87 232.67 369.61 232.74 369.35 232.81 369.09 232.84 368.99 232.85 368.97 232.91 369.02 232.94 369.06 232.96 369.08 232.98 369.1 233.03 369.1 233.12 369.09 233.23 369.09 233.25 369.09 233.25 369.07 233.23 369.05 233.21 369.03 233.19 369.01 233.19 368.99 233.19 368.95 233.19 368.93 233.09 368.6 233.09 368.57 233.11 368.53 233.11 368.51 233.11 368.48 233.1 368.44 233.1 368.42 233.11 368.4 233.13 368.38 233.16 368.37 233.16 368.37 233.18 368.35 233.18 368.33 233.18 368.31 233.18 368.29 233.17 368.28 233.18 368.19 233.17 368.15 233.15 368.11 233.14 368.11 233.12 368.12 233.11 368.11 233.1 368.1 233.08 368.08 233.08 368.07 232.99 368 232.98 367.99 232.97 367.98 232.94 367.98 232.92 367.98 232.89 367.96 232.85 367.93 232.79 367.84 232.75 367.75 232.68 367.5 232.65 367.47 232.61 367.44 232.57 367.43 232.54 367.41 232.49 367.37 232.47 367.35 232.45 367.35 232.4 367.36 232.38 367.35 232.36 367.33 232.33 367.28 232.32 367.24 232.34 367.2 232.37 367.19 232.41 367.2 232.45 367.21 232.48 367.22 232.52 367.22 232.55 367.22 232.58 367.22 232.74 367.31 232.8 367.31 232.86 367.27 232.88 367.27 232.95 367.28 232.99 367.28 233.02 367.27 233.05 367.26 233.1 367.22 233.12 367.19 233.16 367.18 233.19 367.15 233.22 367.12 233.23 367.09 233.24 367.05 233.26 367.02 233.29 367.02 233.34 367.02 233.44 367.05 233.48 367.07 233.52 367.1 233.61 367.22 233.64 367.25 233.66 367.25 233.7 367.26 233.72 367.26 233.73 367.27 233.82 367.37 233.85 367.39 233.9 367.41 233.97 367.43 234.01 367.44 234.03 367.44 234.06 367.42 234.11 367.33 234.14 367.33 234.19 367.37 234.22 367.41 234.29 367.56 234.23 367.61 234.21 367.64 234.25 367.65 234.28 367.66 234.32 367.67 234.37 367.67 234.39 367.68 234.4 367.69 234.41 367.7 234.42 367.71 234.43 367.72 234.44 367.73 234.48 367.73 234.49 367.73 234.5 367.72 234.52 367.7 234.54 367.7 234.56 367.72 234.63 367.82 234.72 367.92 234.78 367.96 234.91 368.04 234.94 368.07 234.97 368.1 234.99 368.13 235 368.14 235.03 368.14 235.04 368.15 235.04 368.17 235.05 368.19 235.05 368.19 235.05 368.21 235.16 368.44 235.15 368.46 235.12 368.48 235.11 368.5 235.11 368.54 235.13 368.57 235.2 368.66 235.22 368.67 235.24 368.67 235.28 368.67 235.3 368.68 235.28 368.72 235.29 368.74 235.31 368.77 235.33 368.79 235.31 368.82 235.28 368.82 235.25 368.81 235.22 368.82 235.2 368.84 235.22 368.86 235.27 368.9 235.29 368.93 235.33 369.03 235.38 369.09 235.43 369.12 235.57 369.15 235.7 369.2 235.76 369.2 235.8 369.13 235.82 369.16 235.87 369.31 235.88 369.33 235.9 369.34 235.93 369.35 235.94 369.35 235.95 369.34 235.98 369.33 235.99 369.32 235.99 369.3 236 369.3 236.02 369.31 236.03 369.33 236.01 369.37 236.01 369.39 236.04 369.41 236.11 369.39 236.14 369.4 236.16 369.42 236.19 369.51 236.23 369.57 236.25 369.6 236.28 369.62 236.34 369.64 236.38 369.64 236.4 369.65 236.44 369.62 236.48 369.57 236.51 369.56 236.53 369.6 236.56 369.63 236.6 369.65 236.65 369.66 236.68 369.67 236.72 369.7 236.77 369.71 236.78 369.73 236.79 369.76 236.81 369.79 236.81 369.82 236.81 369.83 236.82 369.83 236.85 369.83 236.86 369.83 236.87 369.84 236.87 369.86 236.87 369.91 236.88 369.92 236.89 369.94 236.9 369.96 236.94 369.97 236.92 370 236.89 370.04 236.91 370.07 236.99 370.11 237.02 370.15 237.06 370.18 237.08 370.21 237.09 370.23 237.09 370.25 237.09 370.28 237.11 370.37 237.11 370.41 237.06 370.45 237.04 370.48 237.01 370.55 237.01 370.64 237.05 370.69 237.19 370.78 237.2 370.79 237.2 370.82 237.21 370.82 237.22 370.83 237.24 370.82 237.27 370.83 237.3 370.82 237.33 370.83 237.35 370.85 237.41 370.89 237.43 370.9 237.45 370.87 237.48 370.84 237.52 370.83 237.59 370.85 237.6 370.85 237.61 370.79 237.64 370.79 237.7 370.85 237.72 370.87 237.74 370.88 237.76 370.89 237.77 370.91 237.75 371 237.77 371.03 237.82 371.09 237.83 371.12 237.83 371.14 237.8 371.2 237.8 371.23 237.81 371.27 237.82 371.29 237.86 371.35 237.88 371.39 237.89 371.44 237.91 371.49 237.94 371.52 237.87 371.62 237.85 371.67 237.77 371.74 237.75 371.77 237.74 371.78 237.74 371.8 237.74 371.83 237.77 371.86 237.77 371.87 237.78 371.88 237.81 371.91 237.81 371.92 237.83 371.98 237.83 372 237.87 372.02 237.96 372.05 237.98 372.07 238 372.11 238.03 372.09 238.05 372.04 238.06 372.02 238.21 372.1 238.22 372.11 238.25 372.14 238.29 372.24 238.31 372.28 238.33 372.29 238.35 372.29 238.44 372.27 238.47 372.26 238.5 372.24 238.56 372.21 238.62 372.19 238.65 372.2 238.71 372.24 238.72 372.21 238.73 372.19 238.75 372.18 238.77 372.16 238.78 372.18 238.79 372.2 238.8 372.22 238.81 372.28 238.82 372.28 238.86 372.27 238.89 372.25 238.94 372.13 238.97 372.09 239.01 372.1 239.05 372.12 239.15 372.2 239.19 372.21 239.42 372.25 239.44 372.26 239.45 372.29 239.48 372.32 239.52 372.34 239.56 372.35 239.61 372.34 239.7 372.32 239.75 372.31 239.77 372.31 239.78 372.29 239.78 372.25 239.79 372.24 239.84 372.23 239.87 372.23 240.01 372.26 240.04 372.25 240.14 372.14 240.2 372.08 240.26 372.06 240.34 372.06 240.47 372.08 240.51 372.07 240.54 372.04 240.55 371.99 240.57 371.98 240.67 371.9 240.75 371.77 240.76 371.75 240.79 371.75 240.91 371.67 240.96 371.65 240.98 371.66 240.98 371.74 241 371.77 241.04 371.77 241.11 371.73 241.16 371.74 241.21 371.76 241.25 371.8 241.3 371.82 241.42 371.85 241.45 371.86 241.46 371.91 241.46 372 241.48 372.03 241.51 372.05 241.53 372.02 241.55 371.94 241.58 371.91 241.6 371.92 241.64 371.99 241.7 372.05 241.7 372.07 241.7 372.09 241.67 372.12 241.66 372.14 241.68 372.18 241.76 372.17 241.92 372.09 241.93 372.12 241.98 372.11 242.02 372.09 242.06 372.07 242.08 372.08 242.11 372.1 242.13 372.11 242.15 372.1 242.19 372.07 242.26 372.04 242.3 371.93 242.35 371.91 242.41 371.9 242.44 371.9 242.5 371.93 242.52 371.94 242.55 371.94 242.57 371.93 242.55 371.87 242.55 371.82 242.57 371.79 242.63 371.79 242.73 371.83 242.78 371.84 242.83 371.82 242.9 371.86 243.01 371.98 243.09 372.03 243.17 372.06 243.21 372.07 243.27 372.08 243.28 372.09 243.28 372.11 243.28 372.17 243.29 372.17 243.36 372.23 243.38 372.26 243.38 372.28 243.38 372.31 243.38 372.34 243.4 372.35 243.49 372.35 243.51 372.34 243.51 372.32 243.51 372.29 243.51 372.27 243.55 372.25 243.58 372.27 243.61 372.3 243.64 372.31 243.68 372.32 243.72 372.33 243.76 372.35 243.79 372.37 243.8 372.4 243.81 372.42 243.82 372.44 243.85 372.45 243.87 372.45 243.92 372.43 243.95 372.42 243.99 372.42 244.04 372.43 244.07 372.45 244.06 372.5 244.05 372.5 244.01 372.52 244 372.53 244 372.55 244.01 372.57 244.03 372.58 244.04 372.59 244.09 372.58 244.13 372.55 244.18 372.53 244.23 372.56 244.25 372.6 244.29 372.69 244.31 372.73 244.35 372.75 244.39 372.73 244.43 372.72 244.47 372.75 244.48 372.78 244.48 372.8 244.48 372.82 244.5 372.83 244.52 372.82 244.53 372.81 244.54 372.78 244.55 372.76 244.6 372.73 244.62 372.75 244.65 372.85 244.67 372.88 244.68 372.9 244.71 372.92 244.72 372.93 244.72 372.93 244.67 373.01 244.5 373.28 244.32 373.55 244.15 373.82 243.98 374.09 243.8 374.36 243.63 374.63 243.45 374.9 243.28 375.17 243.21 375.28 243.3 375.29 243.6 375.45 243.63 375.47 243.75 375.49 243.8 375.5 243.86 375.47 243.95 375.39 244 375.36 244.06 375.36 244.14 375.39 244.23 375.45 244.3 375.52 244.35 375.6 244.38 375.67 244.39 375.75 244.42 375.83 244.47 375.89 244.7 376 244.77 376.05 244.81 376.11 244.85 376.16 244.91 376.28 Z" fill-rule="evenodd" id="Peru" transform="translate(-219.6999969482422,-367.0199890136719) "/></svg>