<svg xmlns="http://www.w3.org/2000/svg" viewBox="0 0 22.209991455078125 20.979995727539062"><path d="M 452.06 225.16 452.06 225.27 452.09 225.36 452.11 225.45 452.14 225.54 452.16 225.74 452.18 225.82 452.24 225.9 452.24 225.9 452.24 225.9 452.24 226.12 452.29 226.39 452.48 226.96 452.59 227.18 452.63 227.3 452.72 227.65 452.76 227.75 452.8 227.81 452.82 227.86 452.84 227.91 452.86 227.97 452.9 228.01 452.94 228.04 452.96 228.09 452.96 228.18 452.94 228.23 452.91 228.27 452.89 228.32 452.89 228.4 452.91 228.46 452.97 228.55 453 228.6 453 228.63 453 228.67 453 228.7 453.02 228.8 453.02 228.83 453.01 228.85 452.99 228.9 452.98 228.93 452.98 228.97 452.99 228.99 453 229.01 453.01 229.04 453.02 229.48 453.03 229.59 453 229.74 452.91 229.85 452.62 230.05 452.24 230.16 452.05 230.27 451.85 230.44 451.58 230.85 451.49 230.96 451.45 231.02 451.35 231.23 451.36 231.24 451.37 231.25 451.39 231.26 451.41 231.3 451.42 231.35 451.4 231.41 451.45 231.44 451.61 231.49 451.65 231.47 451.68 231.5 451.81 231.55 451.86 231.56 451.86 231.58 451.84 231.61 451.85 231.62 451.88 231.61 451.91 231.62 451.93 231.64 451.95 231.65 451.98 231.61 451.99 231.62 452.01 231.64 452.03 231.66 452.06 231.62 452.07 231.65 452.07 231.69 452.06 231.71 452.12 231.83 452.16 231.84 452.27 231.84 452.31 231.87 452.32 231.89 452.34 231.92 452.35 231.95 452.37 231.95 452.4 231.97 452.41 232.01 452.41 232.06 452.43 232.1 452.46 232.24 452.48 232.3 452.45 232.32 452.42 232.37 452.38 232.47 452.36 232.54 452.36 232.65 452.35 232.69 452.36 232.7 452.36 232.7 452.36 232.7 452.36 232.72 452.34 232.73 452.33 232.81 452.3 232.84 452.34 232.9 452.38 232.96 452.35 233.04 452.31 233.08 452.26 233.11 452.23 233.16 452.22 233.18 452.21 233.22 452.2 233.3 452.2 233.32 452.22 233.35 452.22 233.37 452.2 233.38 452.19 233.39 452.2 233.41 452.21 233.43 452.23 233.45 452.2 233.49 452.18 233.49 452.16 233.5 452.16 233.52 452.19 233.55 452.19 233.58 452.18 233.68 452.19 233.73 452.21 233.78 452.26 233.87 452.24 233.87 452.23 233.87 452.25 233.92 452.29 233.93 452.32 233.95 452.33 234 452.33 234.02 452.35 234.07 452.38 234.1 452.42 234.11 452.45 234.13 452.42 234.2 452.42 234.23 452.51 234.36 452.53 234.4 452.5 234.41 452.49 234.44 452.49 234.47 452.5 234.52 452.46 234.54 452.42 234.58 452.39 234.63 452.38 234.68 452.39 234.75 452.43 234.77 452.47 234.77 452.51 234.8 452.63 235.07 452.68 235.13 452.79 235.2 452.9 235.31 452.92 235.35 452.89 235.37 452.88 235.4 452.91 235.47 452.97 235.56 452.99 235.61 453.01 235.75 453.01 235.78 453 235.8 453.02 235.82 453.05 235.83 453.08 235.85 453.1 235.88 453.11 235.91 453.11 235.95 453.12 235.99 453.15 236.05 453.3 236.18 453.49 236.29 453.52 236.33 453.49 236.39 453.42 236.41 453.35 236.41 453.3 236.43 453.25 236.39 453.18 236.4 453.13 236.44 453.11 236.5 453.11 236.57 453.14 236.61 453.2 236.64 453.26 236.64 453.26 236.66 453.23 236.73 453.26 236.78 453.32 236.82 453.38 236.83 453.37 236.91 453.38 236.98 453.44 237.12 453.44 237.12 453.39 237.21 453.41 237.38 453.43 237.42 453.44 237.43 453.44 237.44 453.41 237.48 453.37 237.52 453.22 237.6 453.22 237.64 453.22 237.71 453.22 237.75 453.21 237.79 453.16 237.9 453.04 237.95 452.64 237.96 452.56 237.98 452.53 238 452.5 238.03 452.47 238.08 452.44 238.17 452.44 238.18 452.41 238.22 452.24 238.41 452.17 238.46 452.17 238.46 452.17 238.46 452.17 238.46 452.05 238.56 451.95 238.63 451.44 239.18 451.38 239.29 451.3 239.35 451.21 239.45 450.97 239.8 450.88 239.9 450.86 239.92 450.85 239.99 450.84 240.02 450.82 240.04 450.78 240.05 450.76 240.06 450.74 240.09 450.6 240.34 450.56 240.38 450.54 240.39 450.49 240.4 450.47 240.42 450.45 240.45 450.41 240.56 450.24 240.78 450.19 240.91 450.23 241.03 450.24 241.08 450.26 241.23 450.27 241.27 450.27 241.29 450.3 241.33 450.35 241.38 450.36 241.41 450.37 241.46 450.4 241.77 450.39 241.82 450.36 241.93 450.32 242.05 450.29 242.12 450.28 242.16 450.29 242.18 450.3 242.17 450.33 242.13 450.37 242.16 450.36 242.16 450.35 242.16 450.43 242.21 450.49 242.3 450.53 242.33 450.63 242.38 450.66 242.42 450.66 242.45 450.64 242.51 450.64 242.56 450.65 242.59 450.68 242.65 450.68 242.66 450.69 242.67 450.66 242.72 450.62 242.7 450.57 242.66 450.53 242.64 450.5 242.63 450.46 242.57 450.44 242.55 450.42 242.55 450.37 242.56 450.29 242.56 450.24 242.56 450.19 242.56 450.14 242.52 450.05 242.43 450.01 242.41 449.96 242.46 449.89 242.42 449.71 242.41 449.63 242.39 449.52 242.28 449.47 242.26 449.35 242.26 449.25 242.23 449.23 242.22 449.22 242.2 449.23 242.17 449.23 242.15 449.21 242.12 449.19 242.12 449.13 242.13 449.11 242.12 449.09 242.11 449.01 242.07 448.86 242.04 448.79 241.99 448.78 241.88 448.75 241.76 448.69 241.66 448.61 241.59 448.49 241.53 448.41 241.45 448.37 241.43 448.32 241.44 448.28 241.47 448.25 241.51 448.23 241.52 448.2 241.5 448.12 241.38 448.08 241.34 448.06 241.34 448.03 241.34 448.01 241.34 447.99 241.33 447.95 241.29 447.92 241.27 447.88 241.26 447.72 241.28 447.69 241.29 447.65 241.31 447.62 241.3 447.54 241.32 447.5 241.32 447.28 241.26 447.16 241.19 447.13 241.18 447.09 241.21 447.02 241.31 446.98 241.35 446.93 241.36 446.9 241.33 446.87 241.3 446.83 241.27 446.79 241.27 446.7 241.29 446.67 241.3 446.62 241.35 446.65 241.38 446.7 241.41 446.73 241.46 446.71 241.5 446.67 241.5 446.62 241.5 446.59 241.51 446.54 241.56 446.47 241.66 446.42 241.7 446.37 241.72 446.33 241.71 446.29 241.69 446.26 241.65 446.22 241.62 446.18 241.62 446.14 241.62 446.09 241.61 446.06 241.58 445.86 241.35 445.83 241.34 445.74 241.36 445.7 241.35 445.68 241.35 445.65 241.36 445.62 241.41 445.59 241.43 445.54 241.45 445.49 241.44 445.3 241.34 445.27 241.35 445.27 241.41 445.15 241.41 445.06 241.38 445.04 241.38 445.01 241.4 445.01 241.42 445 241.45 444.99 241.5 444.97 241.54 444.96 241.56 444.79 241.57 444.76 241.59 444.71 241.65 444.69 241.67 444.64 241.66 444.63 241.66 444.62 241.68 444.58 241.77 444.57 241.81 444.55 241.85 444.52 241.88 444.51 242 444.49 242.09 444.45 242.12 444.37 242.08 444.26 241.98 444.2 241.94 444.12 241.95 444.08 241.98 444.04 242.03 444.01 242.06 443.96 242.08 443.86 242.07 443.8 242.05 443.77 242.01 443.77 242.01 443.78 241.96 443.87 241.83 443.88 241.82 443.89 241.81 443.9 241.81 443.91 241.79 443.91 241.77 443.9 241.77 443.89 241.76 443.89 241.75 443.88 241.75 443.88 241.75 443.85 241.72 443.85 241.71 443.85 241.71 443.85 241.7 443.86 241.67 443.87 241.66 443.85 241.49 443.84 241.44 443.82 241.37 443.82 241.37 443.8 241.36 443.73 241.39 443.68 241.39 443.63 241.39 443.51 241.34 443.51 241.34 443.51 241.3 443.51 241.25 443.51 241.23 443.52 241.21 443.44 241.21 443.39 241.2 443.35 241.17 443.34 241.14 443.3 241.04 443.26 240.86 443.24 240.8 443.18 240.76 443.17 240.74 443.13 240.68 443.11 240.67 443.1 240.66 443.09 240.67 443.08 240.69 442.89 240.9 442.87 240.91 442.84 240.93 442.82 240.93 442.75 240.93 442.7 240.94 442.67 240.96 442.64 240.99 442.61 241.03 442.57 241.14 442.57 241.15 442.58 241.16 442.59 241.18 442.58 241.2 442.57 241.21 442.54 241.21 442.54 241.21 442.52 241.27 442.52 241.32 442.5 241.34 442.43 241.37 442.38 241.38 442.35 241.38 442.33 241.37 442.29 241.34 442.27 241.33 442.22 241.34 442.13 241.39 442.08 241.4 442.03 241.39 442.02 241.35 442.03 241.24 442.02 241.19 442.01 241.14 442.01 241.09 442.03 241.04 441.97 241 441.75 240.98 441.76 240.92 441.75 240.85 441.72 240.7 441.71 240.67 441.68 240.61 441.67 240.58 441.66 240.46 441.65 240.44 441.61 240.41 441.58 240.42 441.55 240.43 441.51 240.44 441.49 240.42 441.44 240.37 441.41 240.34 441.38 240.33 441.31 240.33 441.28 240.31 441.27 240.28 441.25 240.18 441.19 240.07 441.16 239.97 441.16 239.88 441.22 239.81 441.16 239.78 441.15 239.73 441.15 239.68 441.14 239.62 441.11 239.6 441.02 239.66 440.97 239.66 440.8 239.56 440.72 239.53 440.63 239.55 440.63 239.55 440.64 239.55 440.64 239.55 440.64 239.56 440.58 239.61 440.55 239.62 440.5 239.58 440.49 239.56 440.48 239.51 440.47 239.49 440.44 239.47 440.39 239.46 440.36 239.44 440.29 239.38 440.26 239.37 440.12 239.34 440.09 239.31 440.1 239.24 439.97 239.16 439.94 239.15 439.91 239.14 439.92 239.22 439.93 239.22 439.94 239.22 439.96 239.22 439.98 239.24 439.98 239.28 439.97 239.29 439.9 239.31 439.81 239.32 439.77 239.33 439.71 239.38 439.62 239.41 439.54 239.39 439.4 239.25 439.38 239.21 439.36 239.17 439.35 239.13 439.33 239.09 439.31 239.06 439.29 239.04 439.28 239.02 439.29 239 439.31 238.99 439.31 238.98 439.31 238.98 439.31 238.98 439.31 238.97 439.27 238.97 439.21 238.94 439.19 238.93 439.16 238.94 439.14 238.95 439.12 238.95 439.09 238.94 438.98 238.8 438.97 238.77 438.99 238.74 439.01 238.73 439.12 238.72 439.18 238.7 439.27 238.64 439.32 238.6 439.34 238.55 439.31 238.49 439.28 238.46 439.28 238.43 439.28 238.4 439.31 238.33 439.31 238.32 439.31 238.31 439.31 238.3 439.31 238.3 439.27 238.24 439.25 238.23 439.22 238.21 439.2 238.22 439.2 238.25 439.18 238.28 439.12 238.37 439.08 238.4 439.03 238.41 438.83 238.38 438.72 238.39 438.66 238.46 438.65 238.47 438.64 238.47 438.62 238.47 438.61 238.46 438.59 238.4 438.54 238.36 438.49 238.36 438.47 238.43 438.44 238.41 438.43 238.37 438.42 238.33 438.42 238.28 438.41 238.27 438.4 238.26 438.4 238.25 438.39 238.24 438.43 238.22 438.39 238.2 438.28 238.21 438.23 238.19 438.15 238.14 438.13 238.12 438.12 238.09 438.1 238.04 438.09 238 438.1 237.99 438.07 237.99 438.01 238 437.98 238 437.95 237.99 437.9 237.94 437.87 237.93 437.64 237.86 437.59 237.87 437.56 237.85 437.5 237.81 437.45 237.81 437.39 237.84 437.39 237.89 437.46 238 437.48 238.06 437.5 238.13 437.52 238.2 437.56 238.24 437.62 238.27 437.66 238.32 437.68 238.38 437.68 238.46 437.71 238.5 437.72 238.55 437.7 238.58 437.68 238.57 437.65 238.53 437.64 238.51 437.63 238.5 437.6 238.5 437.59 238.51 437.59 238.55 437.58 238.57 437.56 238.57 437.52 238.55 437.5 238.55 437.48 238.57 437.44 238.62 437.42 238.64 437.39 238.65 437.37 238.65 437.32 238.65 437.28 238.66 437.23 238.7 437.19 238.76 437.17 238.81 437.14 238.85 437.09 238.88 437.02 238.97 436.93 238.98 436.84 238.93 436.76 238.86 436.72 238.81 436.7 238.77 436.68 238.65 436.65 238.59 436.59 238.52 436.56 238.46 436.53 238.42 436.47 238.32 436.44 238.27 436.39 238.24 436.29 238.2 436.25 238.15 436.24 238.12 436.25 238.09 436.24 238.06 436.23 238.02 436.21 238.02 436.11 238.02 436.08 238.03 436.06 238.04 436.05 238.04 436.02 238.02 436.01 238 435.98 237.91 435.91 237.9 435.89 237.84 435.91 237.78 435.95 237.79 435.95 237.78 435.93 237.74 435.95 237.74 435.97 237.73 435.98 237.72 436.02 237.69 436.05 237.67 436.09 237.64 436.1 237.6 436.14 237.59 436.21 237.61 436.25 237.6 436.27 237.57 436.31 237.52 436.33 237.5 436.33 237.5 436.33 237.48 436.33 237.45 436.33 237.43 436.34 237.41 436.35 237.4 436.35 237.39 436.34 237.37 436.41 237.34 436.39 237.27 436.2 237.07 436.13 237.03 436.06 237.02 435.98 237.01 435.95 237.02 435.94 237.05 435.92 237.1 435.89 237.13 435.86 237.14 435.82 237.13 435.75 237.07 435.66 237.06 435.52 237.2 435.43 237.21 435.42 237.2 435.42 237.19 435.42 237.18 435.43 237.17 435.46 237.14 435.46 237.1 435.45 237.05 435.43 237.01 435.4 236.95 435.37 236.92 435.34 236.92 435.21 236.97 435.14 236.97 435.13 236.96 435.02 236.77 435.01 236.75 435.01 236.73 434.95 236.72 434.77 236.77 434.74 236.76 434.73 236.74 434.7 236.7 434.67 236.68 434.23 236.53 434.14 236.53 434.12 236.56 434.1 236.6 434.07 236.62 434.07 236.62 434.04 236.61 434.03 236.58 434.03 236.55 434.03 236.52 434.03 236.48 434.01 236.42 433.97 236.39 433.93 236.37 433.89 236.34 433.86 236.3 433.84 236.24 433.82 236.18 433.81 236.13 433.83 236.06 433.85 236.03 433.85 235.99 433.81 235.94 433.75 235.91 433.63 235.9 433.61 235.85 433.6 235.8 433.57 235.79 433.54 235.81 433.52 235.85 433.52 235.85 433.51 235.89 433.49 235.89 433.46 235.88 433.43 235.85 433.41 235.82 433.3 235.79 433.26 235.75 433.25 235.78 433.24 235.8 433.21 235.82 433.2 235.83 433.19 235.83 433.17 235.84 433.16 235.85 433.16 235.85 433.17 235.89 433.21 235.92 433.24 235.97 433.25 236.07 433.24 236.09 433.22 236.11 433.21 236.13 433.21 236.15 433.21 236.16 433.21 236.17 433.21 236.29 433.21 236.32 432.96 236.3 432.88 236.32 432.83 236.32 432.83 236.26 432.86 236.21 432.94 236.12 433.05 235.85 433.15 235.6 433.16 235.56 433.16 235.49 433.16 235.46 433.17 235.44 433.19 235.42 433.21 235.4 433.21 235.35 433.21 235.26 433.23 235.16 433.26 235.07 433.3 234.99 433.29 234.98 433.28 234.97 433.29 234.87 433.26 234.8 433.21 234.74 433.17 234.67 433.16 234.65 433.15 234.58 433.15 234.58 433.14 234.43 433.13 234.34 433.15 234.29 433.13 234.24 433.09 234.2 433.05 234.17 433 234.15 432.9 234.12 432.85 234.09 432.85 234.09 432.8 234.05 432.66 234.01 432.61 233.95 432.6 233.92 432.6 233.89 432.61 233.82 432.66 233.75 432.68 233.68 432.68 233.59 432.66 233.5 432.63 233.44 432.52 233.35 432.47 233.29 432.45 233.2 432.44 233.1 432.41 233.06 432.37 233.03 432.33 232.98 432.33 232.9 432.35 232.84 432.48 232.71 432.52 232.66 432.56 232.59 432.58 232.52 432.58 232.3 432.59 232.27 432.64 232.18 432.65 232.15 432.66 232.12 432.66 232.08 432.68 232.05 432.72 232 432.58 231.89 432.55 231.84 432.57 231.75 432.59 231.68 432.6 231.63 432.57 231.58 432.57 231.56 432.61 231.5 432.61 231.43 432.58 231.36 432.52 231.34 432.45 231.32 432.38 231.28 432.33 231.23 432.34 231.16 432.3 231.06 432.24 230.9 432.23 230.76 432.34 230.65 432.4 230.57 432.44 230.48 432.42 230.45 432.38 230.41 432.4 230.32 432.46 230.19 432.39 230.14 432.38 230.12 432.25 229.98 432.12 229.92 432.06 229.84 432.01 229.82 431.99 229.79 431.91 229.65 431.88 229.6 431.65 229.43 431.58 229.4 431.51 229.31 431.47 229.29 431.42 229.29 431.37 229.28 431.33 229.25 431.31 229.19 431.37 229.14 431.39 229.1 431.4 229.03 431.39 228.98 431.37 228.85 431.35 228.82 431.35 228.79 431.46 228.71 431.6 228.64 431.73 228.54 431.79 228.47 431.82 228.4 431.83 228.37 431.9 228.16 431.89 228.11 431.88 228.06 431.87 228 431.88 227.95 431.89 227.9 431.91 227.87 431.94 227.86 431.95 227.83 432.01 227.72 431.98 227.69 431.97 227.67 431.94 227.64 431.93 227.62 431.92 227.58 431.92 227.52 431.92 227.48 431.9 227.41 431.85 227.2 431.83 227.01 431.78 226.93 431.76 226.85 431.71 226.77 431.69 226.69 431.69 226.61 431.7 226.47 431.69 226.44 431.65 226.29 431.61 226.22 431.62 226.16 431.62 226.05 431.62 226.05 431.62 226.05 431.64 226.05 431.68 226.03 431.71 226.01 431.71 225.98 431.67 225.95 431.69 225.94 431.7 225.92 431.69 225.91 431.67 225.9 431.69 225.87 431.71 225.89 431.74 225.91 431.77 225.93 431.79 226 431.82 226.02 431.88 226.05 431.93 226.1 431.95 226.12 432.05 226.14 432.17 226.18 432.21 226.21 432.24 226.26 432.32 226.4 432.34 226.43 432.35 226.42 432.36 226.36 432.37 226.33 432.39 226.3 432.42 226.28 432.41 226.27 432.41 226.25 432.42 226.23 432.39 226.22 432.34 226.22 432.31 226.2 432.24 226.04 432.26 225.96 432.31 225.79 432.34 225.82 432.36 225.81 432.38 225.8 432.42 225.79 432.4 225.7 432.41 225.62 432.42 225.56 432.43 225.49 432.42 225.49 432.41 225.53 432.39 225.56 432.34 225.62 432.35 225.64 432.33 225.63 432.32 225.62 432.31 225.61 432.29 225.59 432.31 225.58 432.33 225.55 432.34 225.54 432.31 225.48 432.26 225.45 432.01 225.42 431.98 225.38 432 225.31 432 225.3 432 225.3 431.99 225.3 431.99 225.28 431.97 225.32 431.95 225.33 431.93 225.32 431.91 225.31 431.89 225.32 431.87 225.33 431.86 225.36 431.84 225.38 431.9 225.4 431.94 225.41 431.96 225.44 431.95 225.48 431.93 225.51 431.9 225.53 431.88 225.51 431.82 225.55 431.79 225.56 431.76 225.56 431.76 225.59 431.79 225.6 431.79 225.61 431.76 225.62 431.74 225.61 431.71 225.59 431.68 225.59 431.64 225.56 431.54 225.41 431.48 225.39 431.48 225.39 431.48 225.39 431.46 225.33 431.42 225.28 431.44 225.28 431.46 225.26 431.5 225.16 431.54 225.18 431.56 225.2 431.63 225.22 431.85 225.24 431.94 225.22 432.02 225.18 432.18 225.06 432.77 224.8 433.27 224.67 433.89 224.41 434.29 224.3 434.73 224.18 435.16 223.99 435.51 223.94 435.76 223.86 435.73 223.89 435.62 223.94 435.67 223.97 435.86 223.94 435.86 223.91 435.85 223.91 435.85 223.89 435.95 223.89 435.95 223.87 435.95 223.86 435.95 223.87 435.94 223.86 435.94 223.8 435.89 223.8 435.77 223.83 435.85 223.8 435.94 223.74 436.08 223.58 436.05 223.63 436 223.68 435.98 223.71 436 223.7 436.04 223.7 436.08 223.68 436.11 223.65 436.18 223.61 436.21 223.58 436.19 223.52 436.14 223.52 436.12 223.54 436.09 223.58 436.18 223.41 436.44 223.08 436.44 223.11 436.43 223.14 436.45 223.15 436.49 223.14 436.52 223.11 436.53 223.06 436.52 223.04 436.49 223.05 436.46 223.08 436.5 222.99 436.58 222.91 436.73 222.82 437.19 222.75 437.37 222.68 437.47 222.66 437.55 222.63 437.76 222.4 438.43 222.09 439.27 221.93 439.65 221.8 440.24 221.74 440.6 221.74 440.65 221.76 440.73 221.83 440.76 221.85 440.81 221.86 441.57 222.31 441.7 222.49 441.73 222.53 441.75 222.59 441.75 222.65 441.71 222.66 441.7 222.65 441.69 222.62 441.68 222.6 441.64 222.57 441.61 222.5 441.57 222.45 441.47 222.27 441.45 222.26 441.37 222.24 441.35 222.24 441.33 222.2 441.27 222.18 441.13 222.09 441 222.02 440.98 221.99 440.91 221.94 440.89 221.93 440.87 221.94 440.85 221.96 440.82 222.07 440.82 222.1 440.82 222.15 440.83 222.17 440.88 222.19 440.89 222.21 440.92 222.25 440.95 222.32 440.95 222.35 440.94 222.38 440.94 222.4 440.97 222.43 440.96 222.5 440.98 222.54 441.02 222.53 441.06 222.48 441.05 222.54 441.06 222.59 441.09 222.64 441.15 222.81 441.16 222.85 441.16 222.93 441.16 223.08 441.17 223.23 441.2 223.29 441.24 223.3 441.31 223.35 441.34 223.37 441.37 223.37 441.41 223.38 441.44 223.4 441.45 223.43 441.49 223.49 441.86 223.61 441.95 223.61 442.02 223.58 442.03 223.59 442.06 223.61 442.12 223.63 442.95 223.5 443.14 223.41 443.22 223.39 443.29 223.36 443.43 223.22 443.47 223.2 443.51 223.24 443.62 223.28 443.8 223.29 444.26 223.31 445.11 223.36 445.75 223.39 446.39 223.43 447.19 223.47 448.15 223.52 448.76 223.55 449.38 223.59 449.9 223.61 450.31 223.63 450.47 223.58 450.51 223.55 450.57 223.45 450.57 223.44 450.62 223.41 450.67 223.42 450.8 223.49 450.83 223.49 450.88 223.48 450.9 223.49 450.92 223.51 450.94 223.54 450.95 223.57 450.96 223.6 450.99 223.61 451.06 223.62 451.08 223.64 451.07 223.68 451.05 223.72 451.05 223.76 451.09 223.82 451.15 223.82 451.2 223.79 451.24 223.78 451.28 223.8 451.42 223.92 451.51 223.97 451.68 224.04 451.73 224.08 451.77 224.11 451.79 224.14 451.83 224.22 451.85 224.25 451.87 224.27 451.92 224.28 451.94 224.29 451.98 224.35 452.01 224.42 452.03 224.51 452.05 224.59 452.08 224.76 452.08 224.85 452.05 224.91 452.02 224.93 452.01 224.94 452 224.96 452 225 452.01 225.03 452.03 225.06 452.05 225.08 452.06 225.1 452.07 225.12 452.07 225.14 452.06 225.16 Z" id="Poland" transform="translate(-431.30999755859375,-221.74000549316406) "/></svg>