<svg xmlns="http://www.w3.org/2000/svg" viewBox="0 0 798 1234"><path fill-rule="evenodd" d="m181.34 388.24 1.79-6.68 2.21-6.34.28-2.17 3.33-9.03.55-4.23-2.14-.47 2.09.33.66-.85 1.71.14 2-1.66h.38l1.07 1.45h.59l-.19-.86.46-.67-1-.92.81-.19-.15-.41.53-.26 1.92-.26 1.26.26 1.12.81.45 1.05.93.66.33 1.31 1.59 1.19 3.49-.65-1.18-.33-2.31.52-1.07-1.25-1.31-2.97 1.12-1.98 1.45-.14 1.78-2.11 2.12-.46 1.92-1.06.26-.79-.88.93-.85.19.28-.38-.21-.22-1.12.67.41-1.19-.26-.85.52-.74 1.23-.31.55.64h.45l-.38-.38.31-.14 1.26.74-.4-.86 1.07-.26h-1.33l-.34-.41-1.19.41-.52-1.26.26-.74h-.45l.41-1.04-.67.33-.4-1.33 1.59-1.05.66-.88 2.9-.52.79.41.52-.19v-.41l-.86-.26-.19-.81 1.12.15 1.78 1.11 1.86-.38 1.45.86 2.3-1.26-.59-.6h1.26l-.93-.4-1.45.14 2.12-.85-.86-.22-.47-.59-2.64 1.07.07.78-.41.48-1.56.45-2.64-1.64-1.47.19-1.64-.26-.41-.41.07.86-1.11.4-1.79-1.59-.99-1.9.4-3.44-.52-.86-.22-1.9-.92-.14.54-3.04 2.12-1.53.05-.38 1.85-.73 5.27-4.35.55-.07.12-.52.86-.27.07-.4 2.35.45-1.57-.85.48-1.45-1.26.52-.6-.19 1.71-.93-2.04.41-.59 1.52-1.05-.93-.55-1.85.74-.53-.07-.47.55-.26.38-.86-.46-.52-.73.93-.12.85-.67.14-.26.53.12 1.26 1.07 1.97-.14.71-2.83 2.45-1.66.74-.72-.34.07-2.3.57-.33.34-1.38 1.52-2.12-.45-2.71.59-1.07-.14-.59 1-.67.12-.9-.46-1.92-.59.4-.07 2.38-.71.71-.53 1.52.45 2.38-.92.59-.34.81-.19 2.09-1.33 3.18-.04 2.24-.34.52-2.92 1.78-1.57 2.52-.07 1.05-.59.26-1.12 2.18v1.07l1.26 3.23v1.38l-.81 1.52.26 1.98-1.9 1.14-3.11 3.68-.26 1.45.66 2.52-.21 1.23-1.71 1.79.26.87-.38.65-2.38 1.4-.92 2.37-3.12.05-1.9.67-.47-.05 2.37-.81.74-1.59 2.38-6.8 1.25-4.94 4.95-12.4 2.18-7.2 1.83-4.49 1.19-4.61.81-1.45 1.12-4.04.59-.79.33-2.25.79-1.5-.17-1.57-.33-.12 1.57-3.2 2.83-10.08-.08-.45-.45-.07.88-1.9-.5-.17 1-2.11-.52-.27.52-.3.33-1.22-.42-.28.3-.05 1.31-3.06.1-.65-.6-.09.5-.21.31-1.48-.64-.21.74-.17.28-1.47-.52-.17.66-.28.19-1.21-.33-.6-.45.07-.36-.09.79-.14.23-.65.12-1.42-.31-.38-.49.19.68-.36.31-1.42 2.43.16-2.28-.16.02-2.24-.45-.43.02-1.28-2.28-4.63-.12-2.16-.33-.36.19-1.24-.48-.28.46-5.13-.65-1.17.1-.62-.69-.59.05-.83-.72-.41.41-.11-.43-.41.52-2.09-1.21-1.09-.71-3.04.78-1.26-2.97-3.73-.88-.79-.26.22-.19-1.24-1.19-1.4.6-.29-.55-1.11-1.42-.98-1.17.5-.33.03-.19-.08-.36-.23.88.26 1.24-.79-.26-.47-.62.33-.05-.07.59-.29-.66.1.4-.38-.45.26-.05-.07 1.55-1.4-1.31.59v.52l-1.26-.45-.71.19-.41 1 .72 2.04-.6-.78-.59-1.92 1.66-.93.12-.45-1.12-1.86-1.78-1.64.48-1.18-.07-2.97-1.26-1.52-.07-1.07-.46-.12-.78-1.78v-.53l.71-.73.07-2.71-.99-1.78.21-1.38-1.59-4.76-.86-1.33v-1.78l-.47-.05.33-.61-.67-.86.15-5.35-1.52-1.97-.46-.07-.52 1.05-.12-.86-1.21-.62.29-1.09-.36-.88.14-.9-.76-1.26-.74-.36.05-.73-.38-.15-.19-.35.41.14.04-.38-1.02-.38-.45-.59.95.61.31-1.33-1.09-.5.16.45-.28.15.28.16-.57-.02-.54.86-.15-.05.74-1.24-.17-.83-.64-1.26-.59-.33v-1.31l-.93-1.14.26-1.16-2.11-2.85-.12-.86.66-1.19.08-2.37 1.23-4.02.81-5.35-.26-2.66-.74-.31-1.12-1.33-.21-1.45-.71-.92.38-3.5-.86-1.99-.19-1.83.33.05.15.92.57.6.21-2.76-.66-1.59-1-.14.21-1.71-.47-1.79-1.31-3.82-.52-.41-.93-2.11.12-2.09-.45-.67-.61-4.08-.2.11-.86-2.18-1.37-1.12.11-1.45-.52-1.78-1.5-2.4.5-3.11-.21-2.02-1.47-1.81-.98-.24-.26.53.26-.64.22-.15-1.03-.64.81-.74-.35-.04 1.97-.81-2 .71-.62-.54-.07.42-.38-.69.29.72-.57-.22.57 1.12-.69-.17-.55.38.6 2.09-.15.19-1.11-4.41-.79-1.31-.81-.14-1.04-1.26-4.23-9.89.14-.33-.59-.6v-1.4l.85-.71-.47-1.26.52-.93.59-.26 1-2.11-.07-2.38-1.12-1.78-.07-.71 1.52-.93 1-2.26.6.41.4-.26-1.4-.74-1.97-1.78.19-1.45-.67-.93.07-1.45.86-1.26 1.33-.78.19-.86-.38-2.37-1.36-2.52 1.88-1 .57.5 2.85-1.21 5.42-5.23.86-1.62 1.47-1.28 3.56-.9 2.31.02 1.85-.55 7.04-3.75 2.04-2.38.26-1.73-.45-2.47 1.05-1.21 6.65-3.4 4.14-.86 2.37-1.49 2.4-.29 1.97-1.85 1.93-.83 1.16-3.76-.42-1.69.23-.9.98-.95 1.8-.76 1.55-2.16 2.76-1.19 6.51-.95 1.33-.55.81.12 1.28.91 1.26.16 8.36-.54 4.66-1.98.24-.64-.64-2.26.4-.57 1.57-.59 3.83.45 4.18-1 1.87.29 8.37-.41 2.09 1.19.62 1 .64.21 2.26-.19 3.47-1.73 2.8.09.57 1.15 2.14-.29 2.52-2.83 1.88-.5 2.33.15 2.52 1.21 2.56.21 1.59-1.35.43-2.66 1.5-.91.88.36 2.26-.21 1.8-.93.33-.79 1-.19.38-.61 3.69-2.28 2.52.76.92-.1.81-1.28-.09-1.88 2.51-1.23 1.29.16 2.21 1.47 2.11-.28.95-1.07 2.69-.57 1.5-1.85-.27-.98.65-.33.54.38.24 1.07.93 1.28.83-.19-.67.81.76.64-.47.55.24.35-1.07.86-.05.93.52 1.9-.16.88.71.78.69 3.09-.48 1.38.72 2.04-.39.57.27 1.19-.65.59 1.43 2.1 1.57-.05 1.21-.48 2.57-2.02 2.37-.83 2.78.83 3.93-1.66 5.89 2.49 2 3.5.9 2.44.4 4.54-.78 2.78-1.69 1.12-5.2 1.64-2.31-.4-.74.23-3.06 4.02-5.3 1.42.05 1.69-1.52 2.24-.08.76-.97.14-.62.83.31.93-1.23.31-4.23 3.37.02.47-1.12 1.22-.43 1.28-1.4.81-.42 1.19-1.15 1.21v1.95l.6.97-.24.71 2.33 1.07 1 1.33.19 1.26.62.79-.67.31.17 1.06 1.78-.68 2.28.38 2.66-.98.57.62.69 3.35 1.12.33-.41 6.99-.92 5.67.05-.02.49-2.44 1.69-.05 6.42 2.23 1.54.07 1.86-.97 2.87.21 2.52.91.14-.74.69-.31.74-.12.81.52 1.19-.69 1.3.1 1.88-1 1.88.41.57-.27.43-.9.55.33-.03-.07 1.3-1.09 1.05-.26-.07-.62.69-.52 2.04.09 2.57-.59 1.47.62.24-1.21 1.5-2.38-.05-.6.71-.76 1.74-.52.31-.4-.29-.91 1.47-.35-.11-.71.52-1.6 3.13-1.45.72-.26.54.48 1.72.05.23-.34.69.03.48.54 1.73.53 4.83-1.62h1.73l.36-.57-.38-.38 2.66-6.06.09-3.61.81-1.09 4.37.07.77.59.23 1.4-.88 2.64.72 4.33-.1 1.94-.85 2.66.04.86-.95 1.57 1.02.93 1.5-.12 2.09 2.66.22-1.24 1.33-2.09 1.73-.38.15-.5 2.13.22 1.88-1.14-.88-3.52 10.08-.14 3.78-.53 2.04-.66 3.52-2.88 2.45.19.8.81 1.14.4 2.78.19 2.67-1.92 5.06-1.73 3.09 1.3 2.3 2.14 2.35-.02.67 1.3 2.76 1.57 6.75.31 1.66-1.23 2.57 1.33 3.82-.29 1.02.29.34-.57.59.76-.19.71-1.07.52-.17.57-2.13.43-.84.67.57.42-.16 1.02-1.69 1.86.26.92h-.83l-.45.48-.76 3.35.19.69.59.12 3-.93 5.91.81 1.83-.76 1.72-.36 1.92.17.43-.5 1.19.1.02-.34.81-.16.5.21 4.16-1.28 3.66-2.09-.48-1.14-1.35-1.55.47-.76 2.16-.97 2.59-.43 1.45 2.35 2.62-.59 5.15-.31 1.64 1.73-.76 1.19.31 1.88.91 1.3 3.92 1.5.33.69-.14.93-.93.35-.14.46 1.47 1.52-1.14.97.4 1.19 1.6-.93 1.14-.07.14-.45 1.64-.76 1.45-1.21.02-.88 1.19-.22.57-.73.1-.88.76-.43.28-1.73 1 .23 3.23-1.83.71.05.91-.95h.45l1.78 2.92 5.11-1.09 4.66.62 2.42-1.14.98-1.02 4.08-.15 2.81-1.76 2.33-.76 1.04-.73 3.04-.69 3.09.36 2.97-1.31 2.67-1.71 1.85.12.9-.12 1.55-1.95 1.19-1.95.85-2.85-.09-1.07 2.02-1.47-1.24-.45.76-.38-.66-.65-.41-1.52-.9-.31-.33-.57.45-.54-.6-.05-.31-.86-.57-.02 1.36-.74-.86-.66 1.26-1.02-.28-1.17h-1.05l.64-1.3-.42-.86.07-.93 1.97-2.47 3.16.12 1.54.81.95-.9.6-1.57 2.49-.98 1.98.65 3.35.33 1.87 1.07 5.61 2.04.69 2.26 1.83 2.87 2.05.69 1.45-.35 2.61.23 1.21-1.21.74-.09 1.57.92 6.08.41 1.09-.29 1.76-2.9 2.28-1.21 1.5-1.31.86-.09 5.11 1.16 1.78 3.59.73.67.69 1.52.67.16 1.97-.59 1.74.59 3.39-.04 4.66 1.02 1.64-.12 2.47-.83 1.24-1.1 4.92 1.43 3.59-.45.76.19 2.11-.6 2.76-5.58-.31-5.46 3.18.92 2.95-.02 3.99 1.09.34 2.24 3.96 7.39 5.8 1.56 2.71-.42.07.28 3.45 1.02 15.28-2.06 3.4.54 1.04-.35.43-.91 1.31-.73 2.45-.05 2.44-3.47.19-1.09.86.28 8.39 5.18.69 1.21.14 2.05-.95.35.55.38-.6.41.31.64-2.11 3.09.19.69-1.05 2.73-1.07.45-1.28 2.5 7.93 1.61 4.8.38.5.83-1.09 1.62-1.33 1.12.78 1.42-1.21 1.02-.19.69.55.93-.95.74-.52 1.07.04.54.79.55-.38.47.47.15-.76 1.33.98.42-2 .65.64.59-.05.38-1.26.31.36 1.23-1.35.48.88 1-.98.24.05.92-.95.33.85 1.41-.09 1.23-.81.93.86.36-1.45.4-.1.9-1.19 1.38-.02 2.31-.71.97-1.55.45-1 1.88.57.45 1.22-.02.52.8.76.24-.4.69.57 2.21.85-.31.69.24-1.45 1.07 1.14.57-.85.43 1.21.59.07.36-.45.31 1 .9-.27.83.95.05.15.69-.67.59-1.52-.9-.57.26-.19.64.48.76-.22.5 1.31 1.83 3.33 2.14 1.59.31 2.04 1.52 1.55 1.83 3.09.97 2.56-.09 4.59-2.07 2.87-.1 1.15-2.09.04-1.3 1.9-.93.91.09 1.02.88.45-.33 2.07.64 2.83.22 1.83-.57 2.37.88 5.11.83 4.73-.64 12.43 3.46 4.59 2.26 6.79 4.59 4.42 6.18 1.36.78 5.08 1.09 1.74 1.1 1.07 1.18.21 1.17 1.64 2.33-2.9 1.57-2.47 2.16-1.33 2.04-.03 1.85-2.18 1.93-2.45 3.16-1.35.5-.76.81-2.83.4-.07.52 1.66 2.78-1.14.74-2.38-.26-.5.93 1.45 1.78-1.61-.07-3.66 1.92-.45 2.97-2.45 1.59-2.16 2.4.09.79 2.4 2.42-1.23 1.78-2.38 2.21-2.14.93-1.85-.21-1.55 1.44.22 1.22 2.92 1.02.69.9-.1.76.53.9-.53 1.05-1.95-.26-3.68 1.61-2.66.41-2.19-1.21-.95-1.17-.21-1.21-1.12.33-1.14 1.1-3.21.64-.78 1.4-.14 2.14 1.94 1.59 1.76-.14.41.5-.15.54-.68.72-2.95 1.52-3.09-.1-2.42.57-2.67 3.47 2 1.71-3.73 1.4-1.24 1.64-.12.67.57.62-.11.61-2.78 1.55-2.4.26-2.24-.86-2.04 1.5-2.26.88-.78.62-.27.9 2.29 1.31.78.85-.47.55-3.78 1.76-3.62.4-1.23-2.23-1.4-.43-.55 1.07-1.28 1-4 2.11-1.06 2.95-3.66.71-1.03.86-1.99.02-1.17-.5-.54-1.19.07-1.52-1.19-.66-.86.55-.35 1.66-.74.57-1.76-1.4-3.11.42-2 1.14-1.68-.3-1.45-.91-1.55.1-1.07 2.9-1.99.47-2.4 2.4-1.93.79-1.28 1.83-1.55.61-.02.62.76 1.02-.55 1.62-.4.66-1.71.17.66.88-.19.97-.69.86-1.9.95-.16 1.05-2.52 1.61-2.66 1.02-1.55 1.55-.93 1.59-.99.31-1.71 1.54-1.45.19-2.17 1.17-.76 1.11.1 1.45 2.23 2.4.41 1.45 1.28.91-1.07 1.47-.93.47-.19.91-1.38.83-1.21 2.71-3.92 4.89-4.32 2.81.33 1.16-.31.78-5.92 1.91-8.24.38-2.71-.31-8.61-2.43-3.61 2.14.41 1.33-.48 1.67 1.66 1.37.72 2.02 3.04.86 1.26 2.19 3.11 2.04.31 1.19 2.45 2.33.78 1.28 1.9.69 1.79 1.71 1.8 3.42-.19 1.24 1.33 1.56-.28.43.35 1.17-.4.87-.02 2.71 1.52 1.26 1 1.67 1.94 1.18 1.86.15.59.92 2.62-.33 1.02 2.78-.12 1.31.78 1.07-.5.83.65 1.09-.15.74.41.21-.41.72-1.35-.05-1.55.9-.52-.45-.59.43-.5-.41-.5.17-.43-.48-.5 1.14.67.05.69.76.04.81-.57-.19v1.69l-.4.31.48.42-.15 1.48 1.52 2.47-.21 1.35.31 1.12-.64.62.09.47-.71 1.17-.83.64.07.83-.57 1.26.45 1.97-1.26 3.57.62 1.94-.45.43.45 1.02.88.34.05 1.71 1.14.42.14.58.45.04 1.57 2.05-.57 2.02.45 1.54 1.02.95.05 1.09.43.1-.19.55.97 3.01-.93 2.24 2.76 1.71-1.31 1.61-1.59 5.18-2.18 3.45-2.9 3.61-2.5 2.09.31 2.28-.24 1.12-.83.78-.97 2.55 3.66.68 1.61 1.15 3.54.9.64-.12.24 1.07.88.02-1.07 2.26.05 1.16.24 1.12 1.61 2.09.5 2.62-3.68 1.47-.93.85-.78 1.67.09 1.07-1.21 1.64-2.97 1.85-3.45 5.68 2.62 8.74 1 1.67 2.99 2.87 2.23 1.12.72.85-.24.57.31.29 1.31.52 2.44 2.24 2.19.52.76 1.28-2.04 1.09-1.03 1.07.86 5.04-.9 1.38-2.36.95-3.09-.21-1.06.68-.74-.09-.48.93-1.35.38-.57.66-1.28.19-1.81 1.62-3.26 1.73-.59.81-.14 2.38.5 2.16-1.33 3.04-3.81 1.52-1.4-.62-3.44.79-.69.78-2.24-.52-.62.16-1.61-.68-1.81.28-1.04-.38-1.45.52-1.71-.26-.88 1.38.16.62-1.68 1.47-.43 1.14-2.05.41-1.07-.98h-.64l-2.33 1-2.23.26-3.42 2.35.47.6-1.94 4.08v2l-1.45.71-.79.81-.4 1.07.35.88.72.45.99.07 1.15.95-.41.24.1 1.28-1 .64 1.8 2.19-.38 1.02.41 1.1-.83.28-.81 1 .97.31.36 1.07.45.12-.36.45.62.38-.47.54.64-.09.69.5-.93.95 1.36.24-.03.54.88-.28.17.64h.85l-.12.52 1.55-.05.07 1.62.62-.24.14-1 .76-.33 1.07.5.83-.47.6.61 1.64.36 1.64-.5.35.36-.31.61.31.43.67-.14.9-.93 1.4 1.33 1.76-.59-.02 1.33-.57.24.09.45 2.19.12.5 1.8 2.59 2.1.47 1.04.36 3.95 1.88-.27.42.95.93.43 2.71.29-1.16 1.92 2.52 1.28 1.35 1.19-.38 1.98 1.95 2.28-.71 1.33 2.51.71.69.76-.47.55-1.9.52-.15.81.41.9-.29 1.28-3.04 3.71.22.57 1.47 1.21-1.83 1.57-.29 1 .91 1.47-.24.9.43 1.22-.26 1.23-1.36.74-.5 1.21-1.97.4-.07.74-1.24.93.72.64-.88.33-.05.43.78.26 1.12 1.45-.67 1.19.69 1.14-1.57 2.52.96.88-.5 2.4.31.8-.19.58-.93.45-.48 1.35-.64.19-.5.83-2.28.24-1.47 1-1.4 2.56.42.48-.16.52-1 .31-.24.76-.88-.38-.47.33-.62 1.62-2.33.88-.45-.31-2.57.02-1 1.31-1.4-.12-.76 1.38.07.9-.78.1-.19 2.21.33.59-.69.83 1.43.95.43 2.1 1.02.99.14 1.29-1.73.99-.74 1.17.05 2.14-.67.47-.97 2.83.5 1.12-.5.95 1.56.95-1.52 1.38-.38 1.23-.99.57-.69 2.14-.72.81.38 1.14-.69 1.23-.14 1.69-1.42 1.28-.53 2.12-11.76 2.95-1.95-.05-3.85-1.24-7.94-.09-1.23.26-3.52 2.11-2.04.17-11.91-2.16-3.37.54-8.51-1.64-8.32 1.45-2.07 1.5-5.51 1.4-2.04 1.38-1.59.45-9.87-2.37-3.94.26-2.66.81-5.3-1.15-3.42-1.82-3.76-.86-5.08-.1-3.55-.71-9.48-.35-1.9.45-2.83 1.85 2.36-1.45 1.07.55 1.21-.19.09.9.98.59v2l.69 1.12-.65 1.87 1.6 2.07 2.52 1.76.54 2.88.76.57.17.83.9.33.17 2.33 1.07.83 1.57-.17 2.23 1.9 2.85.43.33.74 1.03.26.33 1.43 1.71.97 1.09 2.59.81.12-.45.76.71.24.43.92 2.71 2.07.85.43 1.12-.43.86.71 1.87-.19 1.03.41 1.45-.76 2.23.97-.5.6 1.02.76-.09 2.42.28.81-.54.59-.1 1.12.76.4.19.74 1.74.47.07.46-.74.78 4.02 1.19.02.95.57.19.48-.48 3.01-1.09.05 1.09.91 1.26 1.35-.21 1.31.66 2.28.36.9 1.14 2.4.55 1.12.88 1.02.19 1.38 1.49-.38.72-2.31 1.83-.12 1.64.29.35-.88 1.76 1.71 1.81-.36.66.43.71-.52.41.17.71-.69.26-.72 1.55.24.4-.64 1.05-.78-.24-.34 1.28-1.54 1.78-.33 1.26.4.79.78-.03.53 1.41.97.28.24.48.02 1.73.98 1.28.07 1.24-1.02 2.4.66 1.16 1.83 1.31 1.78.43.36.66.69.31-.02.38 1.54.6 2.12 2.21.87.45-.3 1.23.76.76 8.43 5.4-3.92 5.91.52 1.83.91.84.07 1.85-.71.59-.15 1.02 1.26 2.31-.35 2.28 3.18 1.81 1.76 1.94 2.52.72.52.52 1.66.33 1.72-.33 1.4.95 1.57.45 4.23.29.92.78 2.07.52.57.6 1.85-.1 1.41.34.14 1.07.45.47-.52.4.35.48-1.78 2.57 1 1.3-.43.79-.97.52-.38 2.8-1.36 1.38.34 1.69.95 1.4 9.19 2.23 1.24-1.37 5.2-1.03 2.47-.92.74.09 2.14-.64.52-.52 4.97.09 3.99 1.9 1.62 1.22 3.09 1.16 3.59 2.73.9 1.71 1.59 1.9.36 1.38 1.4 1.33.85 1.6-1.99 3.56 3.97 3.78-3.19 2.99-1.64 3.04-.88.81-2.73 4.4-1.35.99-1.64 2.24-2.78 2.59-2.26 2.78-1.69 4.09-1.23 1.09-4.64 2.68.79 1.03.97.23.74.91.59 1.56-.31 1.79 1.17.07.61 1.11.03.36-.71.31-.88 1.43.07 1.25-1.14.36-.29-.45-1.88 1.69-1.9-.03-1 .91-.76.02-3.99 5.56-.9 2.33-1.71 1.19-.74.16-1.52-.4-4.63.4-3.52 2.24-3.11 2.56-2 3.26-1.85 1.09-2.78.78-1 .79-.83-.12.16.4-.64-.19-.28.55-1.15.59.27.91-.43.71-1.19 1.43-.47.02-.15-.05.34.19-2.48 1.81-3.35 1.66-2.49.03-4.35 2.42-.79 1.4.58 1.71-2.17 3.28-.43 2.8.65 1.55-.95 3.52.09 4.3-.64 2.4 1.64 2.63 4.47-.04.73.88-2.44 1.59-1.45 1.47.16 1.69-.95 2.21-.12 1.57-1.35.78-1.45 2.16h-2.07l-.55 1.05.17 1.85-.71 1.24-3.42 3.56.59 3.85-.4 1.38-2.86 1.71-.19 4.13-1.28 2.64-.19 1.69.52.83 1.45.17 1.33-1.64 1.74-.48 1.04.9-.61 2.29-1.22 1.28-2.28.9-.28.48.47.9-.61 1.31-3.62 1.09-1.33 2.07.5.26.88-.81.38.36.12-.53 1.35-.28.91.21.33-.28.57.26.07.95.98-.14-.1.5.95.21-.09.4.92-.19.17.55.55.14.07.72 1.21.04.09-.54.69.09-.38.33.22.55.97-.26.05.57.83-.14.33.59-.21.38.97-.12-.04 1.52 2.06 4.4 2.67 2.99.83.43 1.99 2.59 3.81 3.04 2.97 3.38 1.23.38 2.9 2.82.74 1.88 3.85 5.75 1.78 2 1.66 1.02-.28 1.16 1.35-.47.74.45h-.26l1.54.14-.02.69 1.19.03-.67.52.38.31-.4.4.19.64.64-.14.02-.38.57.02.12.26-.4.1.66.76-.3.62.52-.22.47.46-.52.83.6.62-.5 1.11.38.48.07 1.97 2.02 3.21 2.52 2.4.42 1.02 1 .31.48 1.19.73.02-.21.69.71 1.04.17 1.29.67.23.02 1-.47.1 1.42.21 1.24 1.86 2.13.26.65 1.97.38.17 2.21-1.74 2.13-.59v-1.79l1.95-.02.48.31.19.52-1.12.81.12.48.78-.6 1 .17.95-.34 1.05-1.52 1.47.22 2.07.92 1.76-.99.97-1.22.1-1.28 1.5.33.26-.61-.6-1.07.15-.38 3.8.16 3.49-1.78.57 1.07 1.45 1.12 3.66-3.54 2.12-.17-.46 1.17.74.26 1-1.52 1.54-.48-.64 2.95.6.23 1.07-.38-.55 1.53-2.09 2.04-2.62 1.66-1.85 2.26-1 2.11-.85.38.19 1.67 1.4 1.09 1.07-.38 1.38.83-1.62.64.17 1.1-.74 1.18.81.84-.34.83-1.3.35.24.19-.43.34.21.47-.69.6-1.11 2.49.42 1.02-1.11.62-.07.88-.79-.21-.93.54-.92-.28-.26.47-.5 2.85.59 3.59-.78 1.93.21 2.66-2.38 1.45-.54 1.14-.12.52.85 1.55-.95 1.42.24 1.81-.57-.17-.66.55-1.79-.07-2.44-.86-3.09 1.69-1.17.26-.43.59-.5-.07-.38-.26.12-.55-2.16-.31-.59.41-.95-.55-.15-.76.48-.92-.5-.08-.02-.33-.57.24-.38-.86.26-.61-.98-.08-.59.41-1.55-.69-.59.33.17-.54-1.9-.5-.17-.55-.52.07-.1-.4-1.26-.48-1.16.69h-1.12l-.59 1.12-.36-.36-.69.29.31.16-.52.95-.36-.19-.43.45-.35-.54-1.76.83-.03.55.84.54-.53.67-1.16.12 1.02.45-.33 2.11 1.99 1.48-1.02.04-2.92 1.29-1.88-.93-1.09.48-.17.73-1.35.91-.88-.31-.74.28-.45-.43-2.04.74-.93-1.33-1.57.43.07-.41-.78-1.04-1.45.47-2.19-.64-1.12.74.31.62-2.44.4-.62.81-1.93 1.07-.95-.81-.43.43-3.13-.6-1.02 1.57-.81.05-.62.95-.76-.1-.17.55-.59-.09.14.57 2.88 2.51-.5 1.72.83 1.23-.59.45-.12.98-.83.66.47.29.07.71-.45.55.31.16-1.12 1.29.64 2.47-.73.14-.88-.52.12 1.45-1.55 1.33-.38 1.49-1.09.43-.19.62.31.66-2.05.34-.09 2.25.71 2.78-.59.5-.33 1.31-1.43 1.83-1.93 1.07-.87 3.59-2.1 1.38-.9 1.66-1.52 1.26-.21 1.09-.76.74-2.17.78-1.97 1.4-1.16.27-1.17 1.16-1.31.43-.8 1.21-1.33.24-.6 1.26-2.42 1.21-.91 1.73-1.97.88-1.38 1.74-2.59-.76-.42.14-.15.9-.78.71-1.93.22-.3.92.92 1.48.03 1.19-2.36.66-.02.93.55.73-1.17 3.19-1.16.55-.95 2.85.19 1.4-.43.16-.59-.54-.98 1.07.95 2.11-.9 1.64-1.12 1.02.81.65 1.26 2.4-2.85.57 1 .85-.77.9.36 1.5-.31.5-.85.02-1.38-.8-.81.07.86 1.78-.74 1.12-1.02.54.16 2.35-1.8-.19-1.05.41.62 1.35-1.57 1.45.17.64-.76 1.33-.5.12-1.47-.85-1.6.54.83 1.79.91.61-.24.98-1.02 1.26.12 1.73-1.52.48-1.52 1-.34.71.5.69.76-.38.64.16.15 2.38-1.38-.81-1.59.17-.79.88.62 1.99 1.85 2.28-.04 2.74.95.78 1.56.22 1.57-.31.74.28.45.9-.14 2.26 1.61 2.52 1.05.69 2.11.5 1.67 1.45-.03.81-1.28 1.25.12 2.38.86 1.78 2.02 2.05-.6 2.97.41 2.52 2.85 2.35-.6.92-3.16.57-.33.98.4.55 2.86 1.35 2.02 2.38.99 7.03-.35 1.43-1.67 2.11v1.09l1.38 3.57-.76 3.7 2.12 5.52 2.75 3.39-.31.91-2.13 2.52-.38 2.21.61 1.16 2.71 1.69 1.45 3.02-.05 3.51 1.53 6.46.87 1.36-.68.47 1.56 2.86-.85-1.33-.93-.6-8.24-1.33h-4.09l-8.25 1.4-4.42 1.26-7.79 3.28-.53-.12 1.53-.4v-.26l-4.64.92-2.64 1.05-1.64 1.14-1.99.59-.6.65-2.75.66-4.71 3.83-1.97.07.26.59-1.05.41-.59 1.25-2.26 1.83-2.16-.33-2.66.86.07.33 2.64-.9 1.85.45 1-.14.97-.6 2.33-2.9 1.64-.33.86.67-10.36 6.39-1.45.33-5.82 2.71-.53.66-3.68 1.52-.81-.19.33-.66-.12-.93 1.86-1-2.19.67v1l-.92.85-.53 1.45-3.7 1.19-.86.59 3.42-1.06.6.07.14.47-1.52.38-9.96 5.3-1.66.19.21.41-.33.59-4.16 2.38-2.45.38-1-2.05.07-.33 1.05-.12.59-1.4 1-.12.53.33.73-.66.33-.93-.52-.33-2.18 1.59-.74 1.45h-.9l-.88-.86-3.31.12-2.09 1.19h-1l-.59.74-2.78.78-2.16 1.85h-1.74l-1.3-.99-1.86.14 2.19.26.92 1-1.25 1.85-1.26-.88-.67.22 1.26.59-.45.98.45.99 1.97 1.33-3.42.91-.93-.19-2.97-2.71-2.11-.53-.33-1.11-.53.07-.52-.48-1.26-.26-1.71 1h-1.45l-1-.93.19-.66-.78-1-1.12.93-3.3-.26-1.45.52-2.05-.31-1.07.71-1.45-.19-2.18-1.78-1.78-.74-.19-1.04-.46.07-.14.71-2.75-1.59-1.07-1.12.45 1 1.4 1.12 6.13 3.16 2.26 1.92 2.23 1.19.33.41-.26.19-5.6-3.9-20.82-11.95-4.02-1.98-3.28-.92-.24-.43-.45.33.1-.33-.33-.12-.24.36v-.5l-.45.31.11-.33-.35-.15-.26.38.14-.38-.38-.12-.21.36-.17-.48-.43.65.33-1.12.48-.02.4-.67-.4-.33-1.02.69.38.33-.62.14.14 1.14-.33-1-14.02-4.03-2.81.61-1.33-.26-2.61.29-1.28.88-2.02-.38-1.62.78-2.4-.76-2.21-.21-2.19 1.11.22.5-3.11.52-.74.5-.24.38-.45-.16-.43.12-.24.33-.45-.17-.21.38-.31-.33-.36.21-.14-.21-1.45-.12-.26.1-.26.28-2.32-.63.01.01h-.02v-.01l-.29-.08-5.15-3.38-2.78-1.33-2.36-.92-3.13-.64-1.36-.05-1.52.45-.09.4-.69-.14-1.31.48v.33l-.71-.12-.41.21.05.57-.74-.11-.59.61-4.16.22-.5.57-.64.19-.88-.29-3.37.52-.67-.14-.26-.43-.47.43-1.88-.43-.95-.76-1.31-.21-.07-.36-1.31.22-3.16-1.43-.71.19-.03-.35-2.68-.22-.21-.31-2.31.17-2.95-1.31-.69.22-.28-.36.4-.19-.21-.59-2.35.3.04-1.66-1.4-.47-1.59-.08-.21.43-.15-.26-4.44-.59-.88.4-.19.93-.31-.43-1.52.12-1.33-.86-4.97-.9h-3.61l-.4.19-.15.86-.11-.72.52-.59h1.45l1.52-1 1.71.26.52-3.42.88-.47-.21-.38.52-.22v-.97l-1.71 2.09-.86-.31.67.97v1.6l-2.31.52-3.11-.52.14-.86-.66-.47-.05-.53-.21.74.45.97-1.52.74-.38 1-1.14.45v.4l1.26-.4 1.18.26.41-.33.71.52.07.74-.33-.79-4.63.69-2.67.91-3.09 1.9-1.02 1.3.6.22.23.23-.78-.07.55.24-.34.08v.02h-.02l.01-.01-.03.01.4.54-.28.19-.46 1.05.27.83.47.4-.45.88.17.72-.93-.29.02-.24-.28-.23-.29.02-.16.17-.98-.62-1.69-.36-5.79.33-4-.59-.66.52-2 .53-1.19 1.09-1.14.14-1.57.83-4.89.53-.74.54-1.28.12-1.09 1.33-.76.07-.31-.52-.72-.19-3.09-.17-3.99.41-3.47.95-3.56 1.4-.41 1.4-1.73 1.64-1.81-1.12-.95.69-.73-.64-.74.86-.79-.26-.54.54-1.88-.05-.05 1.41-.61.69h-.62l-1.24 2.13-.43.12-.26.29-.02-.57-.98.69-1.75-.1-1.5.74-.83 1.83.57.05-.5.16.52-.02-.26.31.76-.05.36-.59-.57 1.3-1.1 1.19-.83-.93-1.78.17-1.17 1.07.17 1.35-.38.22-.59-.19.07-.69-.36-.24.95-1.38-.33-1.04-.81-.22-.19-1.21-.85-.12-.41-.97-.35.19.09-.79-.97-.19v-.71l-.86-.28-1.16.45-.88-.17v-.38l-.98.17-.33-.31-.4.38-.22-.26-.28.66.31.55-.53.81-.52-1.31-.83.86-.6-.57-.64.02 1.93-1.97.47.19-.09-.62-.76-.1 1-.42 1.66-2.12-.02-.64-1.15-.64.88-.19.38-1.59 1.17-.55.07-.5.33-.07.95-.81-.09-.92.62.3.9-.64-.19-.4.57-.48-.05-1.16-.66-.64.59-.22.33-1.68.6-.41-.26-.69 1.16-.14-.02-.64.52-.24.76.12.74-.95-.31-.14 1.97-1.36 2.76-4.44.35-1.54 1.33-.95.38-1.1-.52-.71.81-.05-.17-.5.43.07.52-.54-.19-.69 1.12-.45-.31-.62.31-.64.69-.24.76-1.19.02-1.23-1.23-.53.05-.52-.55.02.4-1.33-1.14-.64h.31l-.09-.57.69-.35-.29-.24.4-.31-.59-.12.14-.28-.9-.36-.74-.9.79-.08.83-.57 1.71.22 1.95-1.88 2.59-3.52 1.4-2.94 2.07-2.95 2.45-5.56-.5-1.5-.98-.54.19-1.14-.5-.26.76-1.31-.26-1.09-1-.5-1.28.33-.38-.36.86-.97-.74-.31.05-.33.62.07-.34-.83-.54-.17.42.02.24-.42-.28-.29.61.12.27-.52-.62-.24-.12-.64-.57.12.43-.41-.34-.35-.4-.15.38-.23-.21-.43 1.47-.24 3.47-3.82.12-.65 1.38-.92.23-1.26.72.24.52-.72-.36-.78 1.14-.83 1.14-2.26.55-.4-.24-.46.5-.07-.21-.52.4-.17-.12-.38.69-.02.67-.9-.19-.41.62-.33 2.06-3.37.48-1.88.52-.21.98-1.72.09-.33-.28-.71.47-.05-.33-.35.4-.72-.4-.4-.05-.48.26.19.1-.31-.41-.61.57-.15-.14-.19.36-.38-.07-.54.5-.19-.29-.43.36.17 1.73-1.43h-.81l.43-.28-.59.04-.45-.69.54-.04-.38-1.07.5-.03-.28-.66.61-.72-.09-.61-.55-.34.41-.14-.19-.31.57.15.14-.29-.76-.76.43-.36-.74-1.3.76.19-.31-.86.4-.09-.54-.55.64.05.69-.81-.45-.43.38-.26-.19-.78-.83-.57.76.21.47-.36-.69-1.56.45.07-.26-.65.93.05-.48-.5.6-.21.16-.67-.95-.9 1.17-.88-.12-.66.71-.29-.76-.78.93-.1.05-.47-.53-.29.15-.47-.6-.17.98-.38.21-.81-.14-.78-.57-.38-.05-1.28-.48-.12.22-.55-1-1 .52-.35-.8-.76-.05-.34h.45l-.21-.45.66-.21-.97-.34.16-.26-.64-.54.29-.67-.95-.07-.27-.5.27-.26-.95-.93.38-.38-2.21-1.26.16-.31-.28.05-.15-.57.65-.09-.36-.64h-.38l.21-.36-.85-.71-.26-.76.26-.19-.69-.79h.5l-.34-.81.38.29.5-.41-.54-.95.52.29-.07-.4.88-.55.12-1.5-.36-.45.67-.59-.31-.5.47-.29-.59-1.49.62-.12.11-.55-.42-.5.31.19.33-.38-.24-.43.33-.04.34-2.57.71-.19.24-1.55.47-.3-.54-.34-.12-.64.4-.16-.07-.6 1.35-2.26-.31-1.28.46-.4-.26-.69.59-.41v-1.16l.43-.83-.26-.22.21-.59-.69-.31.14-.62-.42-.57 1.02-.38.4-1.11 1-.88-.31-.91-1.45-.57.21-.9-1.09-1.85.02-1.02-3.11-1.34-.47-.64.31-.85-.41-.22 1.26-.85-.38-.74.59-.95-.28-1.12.71-1.04-.52-.36h.48l-.6-.52.05-.86.97-.42.22-.64.04-3.57.84-1.5 1.26-4.23.09-3.32.64-1-.73-1.02.14-.93-.6-.02.74-.9-.83.14-.19-.24.36-.12-.36-.28.59-.74-.28-.31.57-.28-.48-.1.24-.36-.4-.21.61-1.26-.9-3.16-.33-3.71-.45-.52.23-.43-.4-2.21-1.64-3.87-.4-.5-.34.33.5-.66-.59.64.47-.66-.59.59.4-.55-.83-.33.74-.19h-.64l-.24.38.05-.4-.67-.43-4.89-1.64-1.93.43.24-.6-.59.19.16.29-1.02-.17-1.47 1.31-1.17-.86 1.02.62.93-.52-1.35-.91.57.22.33-.41-.19-.66-.69-.55.1-.38-.65-.02.12.36-.9-.98-.36.14-.43-.28.41.19.38-.14-.4.02.35-.43-.76-.52-1.28.4.73.36-.95-.17-1.16.6-.55-.07.05-.29-.66.1.04.64-.19-.91-.88-.19-.26.53.17 2.06-.29-.04-.14-2.07.71-.9-.31-.91 1.38-1.47-.28-.36.62.22.49-.29.1-.61 1.24-.11v-.04h.02v.04l.45-.04 1.64-2.04 1.19-.86.14-.92 1.05-1.31 2.44-5.16 2.97-5.08 5.02-11.41 1.38-4.49 2.52-6.08 2.97-10.95 1.33-8.84.38-7.32-.52-9.91-.6-2.64.19-1.45-1.78-8.31.33-.86-.52-.07-.67-1.45-.19-1.78-.99-1.67-.08-.92-1.78-4.35-.52-.52v-.67l-.52-.26-.15-.93-3.42-6.01-1.07-1.38h-.52l.07-.52-1.78-1.66.07-.33-.33.07-2.12-1.9-1.38-.74-3.23-2.78-4.11-2.42-1.31-1.6-1.92-1.33-.05-.59-.47.14-1.05-1.04-1.07-1.93.48-.52h1.78l2.04.71.07 1.45 1.12.4-.4 1.07h.4l.52-.92-1.04-.67-.07-.47 1.78.59.05.86 1.4 1.26.45-.12.81 1.64 2.97 2.56 7.17 3.3 1.15 4.16-.55.15 1.73 1.71.26 1.33 1.79 1.64.19.85.73.48-.14.38.52.07-.07 1.66.6.79.33-1.19.81-.19-.48-1.67.48-1.18-.55-.38.74-.34.52.46h.67l-1.38-1.19.66.26.64-.07-.85-.26-.33-.72h-.79l-1.11-.66-.08-.45.79.12.66-.41-1.04-.26.38-.33-1.24.21-1.33-.81.19-3.23 1.14-.59h1.24l.21.4h.45l-.45 1.05.86-.72.85.46-.33.26.67.28-.34.57.93.6-.21.66.28.41-.59 1.18.9-1.18.4.26-.07.45.41-.26 1.19.26-.74.07v.48l1.19.07 1.52-.74.73.33.12.67-.59.92-.26-.14.26-.66-.38.14v-.52l-.33.45-.48-.19-.52.38-.12.4.31.14-.71.65h.59l.12.66.92-1.12h1.15l.38.98.33-.31.59.26-.78-.74.19-.78.47.26.05.6 2.78-.74-.12-1.12.53-.26-.08-.33 1.79 1.38 2.37-.26 2.64.59h4.94l.48-.26 4.56 1.59.98-1.71-2.57-1.74-.26-.71-2.26-2.11-1.64-1-2.71-.05-.92.86-1.53-.6.34-.4-.26-1.33.33-.19-.07-2.24-.6-1.44.34-.41-.15-.93-1.57-.99 1.45-.6.08-.92-.74.87-1.12.12-.66 1-.26-.14.14-.86 1.64-.66 1-1.19-.67-1.97.19-1.78-1.12-2.9.79-.41 2.45.53 1.71-1.12-.19-.59-.86.07-.26.71-.81-.12.14.59-1.18-.19-1.19-.73 1.04-.26v-1.07l-.64.28-.4-.81-.15.53-.78-.12.4 1.52h-1.06l-1.53-1.19-.04-2.19-.55-1.3.74-.55.26-1.31.66-.52-.59-.07-.59-.74.11-.97-.64-1.14 1.52-1.83 2.69-.55-.98-.04-.14-.67-.33.71-1.24.29v-.55l.26.26.39-.19-.86-.45-.38.79-1.26.14-1.12.85-.21.31.4.29.72-.48-.46.74.27 1.57-.53.14.26.33-.19.53-1.4.59-1.64 2.64-.19 1.71-.88-.53.22 1.26-1.86-.26-1.04-1h-.81l-1.05-1.78-1.18-.78 1.37 2.11-.26.79.53.78-1.98-.12.34-.66-.34-1.33.72-.19-.46-.41-.73.22-.38.92.12.65.26-.72.59.41-.78 1.18 1.26.6 1.3-.07 1.19.38-1.11 2.11-1.31.74-2.92.59-.86-.19-.05-.33h.57l-.38-.59-.52.33.52 1.04-.85.15-1.12-.41 1.64 1 .45-.59.67-.15.4.08-.07.59.67.07 1.85-1h.85l.27.45h1.3l.67.74.26-.19-.38-.59 2.49.64 1.72-.12-.19.26.92.59.07 1.19-.66.07.66.05-.33 2.26-.52.66-.86-.14-1.92.52-.6-.19-.07-1.59-.33 1.67-.64-.34-.29-.66-.04.66.52.6-.86.45v.66l-.81.08.22.59.19-.33.33.14-.14.64-1.71.14-.34-.59-.11.74-1.74-.22-.05.52-.47.27.07-.72-.67-.19-.19-1.92h.41l.19-.45h1.04l.27-.26-.19-.55-3.31-.12.41 2.11-.41.86-.45-.66.33-1.34-.8-.45-.79.19.52-.78-1.18.12-1.05-.45-.4-.6-1.86-.59-1.78-1.45-.64-.14.12-.46-1.12-.92-1.92-.67-.65-.71-.92.12v.4l-.81-.07-.33-.33.33-.79-4.85-1.44.38-.22-3.68.52.31-.09-.17-.17-2.54 1.21-.98 1.05h-1.28l-1.59.95-.38-.33-.43-.1.69.83-.74.57-.33 1.69-.78.83-.03.88-2.97 1.19-.52-.31-2.88-.07-1.87.31-.22.76-2.73.31-.76.69.38.62-3.4 3.06-2.38 1.14-2.56.43-2.64 1.95-1.57-.57-1.54.28-.65.76-2.16 1-.14-.31-1.74.1-.61 1.37-.36-.16-.31.14-.28-.05h-.03l-1.49-.26-.85.02-.01.01v-.01h-.07v.01-.01l-.17.01-.28-.08h-.48l-3.06-1.18-3.07-.36-1.81.86.36.35-.17.43.67-.52-.33.28.5.03h-.53l.31.16-.62.07.1.31 1.76-.92-1.5.92-2.21.24-.66.33-1.07-.19-.98.93-2.71-.43-.42.31-2.67-.33-2.44.31-.67.73-.85.1-1.19 1.19-1.6.57-.59.66.07.62-1.64.93-5.92-.79-.45-.35.72-.12.04-.5-.28-.03.83-.42-.26-.72.88-.42-.76-.91 1.95-2.3-.22-.81.76-.74.36-1.23 1-.33v-.53l.69-.31-.03-.69 1.19-1.3.9-2.02 1.38-4.26.17-2.75.45-1.33 3.23-1.52.6-.93 1.11-.07.86-1.05.55.27 2.3-.46.33-.59-2.18.38-.26.33-1.6-.59-3.63 2.33-1.38-.62-.12-2.97-1.54-6.42-3.57-7.1-1.85-4.78-4.85-6.86-.71-.24.19-.22-.69-.4-.14-.55-.31.1.23-.14-.35-.53-.53-.02.22-.14-.36-.53-.38.1.31-.24-.43-.52-.31.14.29-.16-.43-.57-.33.11.31-.19-.31-.42-2-1.69-1.57-.52.91-.1.35-.47.79-.24-.36.21 1.47-.12.48-.47-.86-1.17.29-.04.81 1.21.47-.14.98-1.57 1.54.31 2.57-.57.69.21 3.04-.48 1.12-.45 5.41-.04 8.04-2.21.19.35-.38.03.59.47-.55.83 1.17.34-1.88 1.56.93.08-1.21.23.26.36.45-.19-.29.4.57-.21-.54.24.19.28.66-.26-.64.29.55.09-.22.38.76.17v-.31l.38.31.19-1.33.05 1.33.69 1.4 1.97.76.1.02.19-.33.05.02-.22.38 1.14.53 2.64.66 2.59.07.52.41-3.3 1.11-3.11-1.92.66 2.11-.66-.38h-1.12l-.26.38-1.26-.04-.07.52 2.11.05v-.45l.34-.08.92.86 2.57.59.33.67-.19.93.93.92.33 1.31.41.14.31-1.85-.31-1.19.11-1.78-.4-.38.93-.55 1.52.29-.19-.48h.4l-.07-.26 1.31.59 1.92-.07.67.41-1 .12-.52.99 1.9-.73.59.14.93 1.64 1.78 1.73-.12 1.12.98 1.38 1 .59.07 1.07.38.53.54-.15.46.81.35-.28.05-1.43-1.07-1.5-.62-.26.6-1.38v-1.09l-1.86-1.52-1.3.31.54-1.57-.26-1.92-1.78-.91-.86.36-.95-.19.29-1.09-.6-.67-.26.52.45.34-.45.4-1-.14-.64-.72-.33.22.45.12-.66.12.28-1.1.45-.42 3.45-.88-.22-.43.67.09-.02-.38.28.43.36-.14-.29-.33-.9-.38 3.83-1.19-.58-1.52.81-.45.91 1.49 1.47-.21.52.33.93-.45-.38.64.31.88-.12 1.19 1.04 1.45.6-.33.14-.53.71.26-.45.53.15.85h.78l-.19-.59.31-.52-.52-1.34 1.85.08.78-.53 1.14 1.19 1.17.07.33.53.55.07.26.92 1.26.64.19.81.66.26.27-.33.33.41-.31-1.15-.55-.11v-1.45l-.73-1.26-2.64-.53.71-3.04.48-.78 1.11-.22.19-.45 2.07 1.57-.07-.59-.74-.19-.12-.41.53-.38 1.45-.14-.93-.26v-.45h2.38l.73.59-.14.38 1.12.74-1.45-1.97-1.98-.67.93-.74 4.09-.07-1.93-.19-.11-.73-1.45.54-1.45-.26-1.41.71-1.26-.26-1.23.26-.67-.71-2.44.52-2.97-.07-4.09 2.57.19-3.75.52-1.86.93-1.04 2.45-1.33 4.63-1.24v-.74l.52-.66 2.71-1.64 2.76-.41.92-.59 2.71-.52.41-.81.78-.12 1.07-1.26 3.83-1.11 3.63-.08.57.15.15.45.64-.07.45 2.33-.14-1.86-.48-.73-2.07-1.31.08-.81-.6-.38.14-.4-.73.07.14-.26-1-.6.07-.47-.52.07.93-1 1.04.14.79-.59.47.14.12-.4-.78-.41.99-.19-.07-.52-2.37-.26.66-.48v-.45l1.38-.07v-.4l-2.64-4.09-2.37-1.59-.26-.79-1.07-.14-.38.41-.55-.72-1.05.31-.52-.31.22-.66-.36.59-.71-.74-.55.15-.38-2.38-.6.19-.59-.59-1.07-2.31-.71.12-.07-1.12 1.71-1.52.85-1.52-.52-.92-2.71-1.64-.66-1.33.4-1.12-.12-2.31 1.12-1.92.26-2.3-1.19-2.76v-1.4l.52-1.05-1.18-.85-1.72 1.97-1.06 2.9-1.12.8-.71 1.12-1.07 3.04.21 1.71-.33 1.05-2.64 2.64-1.59 2.44-4.49 1.72-2.38 2.06-1.66 3.54-2.69 3.85-1.14 4.61.21.86-.59.07.52 1.04-.4 1.26-.19 4.3.26.46-.33.33-.45-.26-.15.59.86.14-.07 1.64-.45-.4-.93 3.68-1.88 3.09-4.09 4.09-3.04 1.59-.12-.24-1.66.53-1.5-.19-2.02.33-1.09.52h1.14l-1.45.48-12.52 2.06-.76-.42-1.29.16-4.11-1.5-1.85-.09-.36.4-.88-.5-1.71-.04-3.33.66-1.16-.4-2 .74-.92 1.11-.6.03.53.04-1.12.22-1.55 1.07-2.18.28-.76 1.55-1.59.49v.53l-.77-.26v-.41l-3.49-1.3-1.21.19-.74-.79-2.02-.57-1.87-1.33-1.07-.4-.38.38-.22-.41-3.44-1.23-1.05-.72-1.64.12-1.59-.5-.64.55-2.02.29-.74.9 1.24.88-1.05.62-.5-.41.17.38-.64.17-1.62-.12-2.26-1.4-1.35.31-3.35-.1-3.69-1.73-.59.09-.71-.52.19-.24-1.52-.69-.1-.57.52-1.21 1.24-1.16-.17-.65.62-.38.26-.61-.24-.36.39-.12.8-1.78-.4-.86.43-.28-.31-.55.35-.59-.35-.38.38-.07-.05-.43-.59-.19.31-.24-.24-.4-.41-.07-.35.16.24-.4-.46-.12-.16.19.09-.36-.35-.16-.31.19-.03-.36-.19-.09-.12-.03-.09.05-.05-.02-.12.09-.21-1-.64.26-.1-.45-.81-.14.08-.71-.55-.31-.07.24.02-.53-.4-.04.04-1.19.39-.43-1.17-.24-.55-1 1.14-1.23-.19-.52 1-.53-.28-.57h.38l-.43-.28.93-.29-.24-.19.33-.16-.02-.95 1.16-.43.07-1.26 1-.57.93-1.26v-.6l.71-.85-.07-.67.55-.33.57.41-.36-1.03.67-1.61 1.21-1.24 3.04-5.18-.43-1.19 1.71-1.78.03-1.28 1.11-1.74.05-1.52.64-.99.41.23-.17-.85 1.02-2.76 1.19-1.52.62-2.02.95-1.33-.29-.52.62-1.86.41-.21.04.55 1.41.71-1.19-1.26.04-1.4-.54-1.57.4-.09-.02-.69-1.07-.38.38-.53-.29-.47-.78.35.81-.54-.41-1.02.31-1.52-.57-.67.1-.74.76-.83-1.67-2.33.38-.88-.78-.66.1-.55.54-.07-.4-.95 1.16-.74-.73-1.68.33-.41-.1-.73 1.24-2.02-.19-.83.83-1.74-.43-1.78.62-1.5-.21-1.59-1.38-2.59 1.76-2.78-.07-.52 2.11-2.07 2.73-3.54.38-1.12-.33-1.07 4.59-5.77 1.95-3.78 1.68-2.21.41-1.23-.29-.31h.55l.14-.36-.5-.69 1.24-1.47 1.78-3.64.07-1.38-.47-.92.66-.15 1.12-2.82v-.79l-.38-.33.33-.33-.07-1.26-.85-1 .78-1.05.26-1.97 1.19-2.06v-.38h-.45v-4.5l-.41-.14-.07-.66-1.11-.26-.08-.53.56-.55-.03.01-.45-.38.19-.79-1.12-.85.4-.57-.33-1.95-2.52-1.97-.64-1.05-.67-.07.34-.48.64.15V670l-1.57-3.42-1-.33-.33-.67-.45.14-.07-.59-.53.45-.52-.07.59 1.12-.28.14-.79-1.05-.92.05-.03-.38-2.04.31-4.11-1.69 1.43-1.83 1.52-.71 2.78-.19 1.68.52.29-.69-.52-.97 1.8 1.31-.4.99 1.21 1 2.59.43 2.47-.74 1.33-.66.55-.74-.02-.5-.65-.31.17-1.59.38 1.09 1.28.31 2.62-.35 2.85-1.07 8.03-4.61 6.87-5.16 1.14-.4.52-.79 1.83.15 1.74 1.23h.71l.81 2.12.71.66 1.19.26v.41l-1.12.66-1.59.45.14.26 1.45-.07.26.34-1.78 1.45-.78 1.52 1.19-1.05h.45l.21-.52.57-.07.22-.53.59.12 1.05-.52.21-.74 2.16.27.33-.91 1.19-.33 1.07.71.86-.19-.14-.47-1.05-.45-.07-.46-.86.79-2.04.19-1-4.21-1.19-1.07-1.11-.07-.53-.52-1.26.14-.8-.47-.46-.67.08-.9 1.37-1.52.22-.81 2.3-2.38.6-1.37 1.21-1.38.05-1.31 1.99-.47 1.83-2.29.76-.21.83-1.4 1-.9 1.17-.39v-.95l1.04-.64 1.33-.19 2.12-1.23 1.71.12-.76 1.07.81.38 1.02.07.85-.45.43-.65-.05-.76-.35-.5-1.17.65-.52-.19.74-.79-1-1.85 1.26.19 2.23-1.31.62-.66.78-2.19 2.05-.71 1.12-.93 8.46-10.1.9.98-.12-.72-.67-.4.6-.97-.33-2.33-2.05-.38-.73.26-.12-.33.85-.74-.26-1.05.26-2.71 2.9-6.13 1.07-3.49 1.19-2.4.19-1.57.45-.33-.26-.74 2.38-3.87-.12-1.07-.41-.26.41-.19.26-1.07-.33-1.9 2.3-4.16 1.45-3.56.55-.48-.22-.85.41-1.93 3.11-4.73 10.55-20.57.57-1.24-.16-.38 3.68-7.13.5-1.23-.17-.74.48.07 3.35-6.34 3.11-7.54 2.64-4.94 1.64-4.49 2.71-5.61.85-.78-.12-.4.53-2.71.78-1 2.78-6.46.19-1.26.52-.38 1.14-3.12.34-.12 1.38-7.12-.53-.55-2.37-.64.26-.26 1.71.52.45-1-.86-.4-1.9.4.95-.33-.14-1.78-.78-1.76-3.26-1.62-2.33-1.78-1.83-.57-.73-2.11 1.18-2.97.41-.6.59-.14 5.09-10.24 8.15-20.06 14.42-45.07Zm24.29-40.87.67-.12.26.38-.33.81.26.78-2.05.79-.85 1.52h-.53l-.14.8 3.16-2.32.34-.05.47.66-2.04.53-.81 1.45-1.26.19-1.64 1.59-3.42.26-.22-.52.53-.41.8.26-.52-.78.05-1.59 1.4-.6 2.76-.33 1.59-2.3.45.14-.26-.6.48-.8.78-.27.07.53Zm1.05-3.5.54.53v.66l-3.37.34-.45 1.33-.93.64.12.59h-.38l.97.33-.92 1.45-.6-.33-.92.88-2.43.19.33-1.52 1.12.14.45-1.19 1.67-.14-1.86-.19-.47 1.12-.91.07-.14-1.52.33-.6 2.71-1.06.34-.65-.26-.4 3.01-.67-.33.22.21.12.72-.6 1.45.26Zm-1.71 2.21.14.24 1.04-.07v.19l-1.71.14-.66 1.38-.93-.33 1.33-2.04h.52l.27.49Zm3.77.1.27.74-1.19.26.26-1.12.33-.26.33.38Zm-7.67-.97.07.26-1.78.66-.53-.07.19-.47h-.52l.41-.72.59.41.78-1 .34.93h.45Zm-.12-2.19-.59.59.19.26h-.79l1.19-1.25.97-.12-.97.52Zm7.65-1.52.86.26-1.26.86h-.38l-.22-.53-.52.26-.45-.33.71-.78 1.26.26Zm-29.11 712.91-.07.19-.33-.66h.21l.19.47Zm216.59 177.48-1 .21-.07-.48 1.07-.59v.86Zm-265.47-12.43.05-.05.02.07h-.05l-.02-.02Zm28.04-50.11v-.05h.05v.02l-.05.03Zm2.49-10.53-.02.05-.02.02v-.07h.04Zm-11.76 19.29v-.02l.05.07h-.02l-.03-.05Zm.07-.14h.03v.02h-.03v-.02Zm.5-.09-.02-.03.12.03-.03.02-.07-.02Zm.69 3.01-.02.03-.05-.03.09-.04.05.02-.07.02Zm.05-.16-.03.02v-.05l.03.03Zm.43-.76-.03-.03h.03v.03Zm-.15-.53h.03v.03l-.03-.03Zm-.19-.14h-.02v-.02l.02.02Zm-.28-.16v.02l-.05-.02h.05Zm-.67-.58h.03v.03l-.03-.03Zm-.47-.35h-.03v-.03l.03.03Zm313.59 15.54-.81.45-.38-.33.79-.79.4.67Zm1.19-.6-1 .34-.26-.48 1.45-.66-.19.8Zm1.38-1.18 1.37-.74 1.19-.33-2.64 1.4.08-.33Zm-313.48-5.37.03.02-.05.02v-.04h.02Zm.15-2.57v.05h-.03v-.03l.03-.02Zm.11-.02.03-.05-.03.09v-.04Zm-.04 0h-.03v-.03l.03-.02v.05Zm.02-.08.02-.02.03.02-.03.03-.02-.03Zm-.85-.57-.08.05-.04-.02.02-.05.1.02Zm.14-.09h-.03l.03-.02v.02Zm-.76-.45.04-.03h.08l-.05.05-.07-.02Zm.19 0-.03-.07.24-.05-.09.09-.12.03Zm-.03-.26-.02.02v-.02h.02Zm0-.05.05-.05.02.07-.04.03-.03-.05Zm.19-.1-.07.03-.02-.03.12-.07-.03.07Zm.1-.04h-.02v-.03h.02v.03Zm9.96-23.69v.02l-.03.02-.02-.07.05.03Zm-.15-.07.07.02-.11.07v-.02l.04-.07Zm.6-1.74h-.03l.03-.02v.02Zm-.07-.21.04-.03.05-.02-.09.07v-.02Zm-.08-.05h.03v.02h-.03v-.02Zm-.45-2h-.02l.02-.02v.02Zm-2.33-.07.03.03.02.04-.05-.04v-.03Zm2.31.03-.02.02-.03-.02v-.03l.05.03Zm-2.09-.29h.02l-.02.02v-.02Zm.35-.09h.03v.02h-.03v-.02Zm-.04.04-.15-.09v-.03l.17.03-.02.09Zm-.05.12-.02.03-.03-.05h.03l.02.02Zm-.21.36-.24-.24.07-.07.24.19-.07.12Zm1.94-.14v-.03h.03v.03h-.03Zm-1.8-.08-.03.1-.04-.05v-.09l.07.04Zm.07.03v.07h-.02v-.05l.02-.02Zm-.07-.03-.05-.16.14.09-.02.05-.07.02Zm-.03-.42h-.04v-.03l.02-.02.02.05Zm.24-.05.03.02.02.03h-.02l-.03-.05Zm-.07-.05v.05l-.05-.07.03.02h.02Zm.57-.35.03.07h-.08l.03-.05.02-.02Zm-.19-.24v-.03h.03l-.03.03Zm-.26-.07h.05l.04.02-.04.02-.05-.04Zm.36.38.02.02v.05l-.02-.05v-.02Zm-.38-.83h-.03l-.02-.03h.02l.03.03Zm-.08-.05v-.03l.03.03h-.03Zm.22-1.02.02.04-.07-.04h.05Zm-.05-.17.02-.05.05.07-.07-.02Zm.69-.52v-.03h.02l-.02.03Zm-.43-.5h-.04v-.03h.04v.03Zm-.28-.12h-.03v-.02h.03v.02Zm0-.05-.03-.02h.03v.02Zm-.03-.07h.03v.02l-.03-.02Zm-.07-.02v-.03l.03.03h-.03Zm-.38-.1-.02-.02.02-.03v.05Zm.26-.57.07-.07.05.12-.07.02-.05-.07Zm-.21.55v-.03h.02v.03h-.02Zm.45.35-.02.03-.03-.03.03-.02.02.02Zm-.12-.02h-.02v-.02h.02v.02Zm.17-.05v.05h-.03v-.05h.03Zm-.22-1.02-.02.02v-.02h.02Zm-.3-.07.07-.02.07.14h-.07l-.07-.12Zm.23.17h-.02v-.03l.02-.02v.05Zm-.26-.86.05.02-.02.05-.05-.05.02-.02Zm.29.67-.03.02-.02-.02.05-.03v.03Zm0-.05-.03.02h-.02v-.02h.05Zm-.43-.98.07.22-.36-.36.1-.05.19.19Zm11.64-13.61h-.07l-.02-.03h.09v.03Zm0-.07-.02.02v-.02h.02Zm-.02.28h.05l-.03.03-.02-.03Zm0 0h-.05l.05-.02v.02Zm-11.69 13.74.02.02-.02.02-.05-.07.05.03Zm0-.05.02.02.03.05-.05-.07Zm0 0-.03-.1.17.1-.02.02-.12-.02Zm13.21-16.06h.05v.02l-.05-.02Zm.19-.29-.05.03h-.02l.02-.03h.05Zm2.71-5.27.02.02-.07.05.03-.07h.02Zm.55-.74.02.02h-.02v-.02Zm-.12-.07-.03-.05.15.1-.07-.03-.05-.02Zm.14-.05.02-.02.05.07h-.02l-.05-.05Zm.17-2.78-.03-.02h.03l.02.02h-.02Zm-.26.98.04-.03.03.05h-.03l-.04-.02Zm.04-.05.05.02.05.05-.07-.05-.03-.02Zm.41-2.05-.07-.04.07-.05.04.05-.04.04Zm.04-.26.05-.04.07.02-.07.09-.05-.07Zm-.04-.02-.1-.02.12-.12.1.07-.12.07Zm-.31 2.52.02.02h-.02v-.02Zm0 0-.03-.07.08.07h-.05Zm.54-2.81-.02-.04.14.14h-.02l-.1-.1Zm.12-.52h.03v.02h-.03v-.02Zm.05-.02v-.03l.02.03h-.02Zm-.31.64.03-.02.07.09h-.03l-.07-.07Zm.12-.05-.02-.05.12.12h-.03l-.07-.07Zm-4.11 10.88h.02v.03l-.04-.03h.02Zm.07-.04.02.02v.02l-.07-.04h.05Zm205.35 95.61 1.19.93.26.38-2.31-1.64.86.33Zm13.21-1.85.59.33-.99-.14-.41-.45.81.26Zm-240.59-5.13.03.02-.03.02-.02-.04h.02Zm.07-.1.05-.05.05.05-.17.05.07-.05Zm-.97-.24-.02-.02h.07l-.03.02h-.02Zm-.1.03h.08l.02.02-.05.05-.05-.07Zm.5-.03-.07.22-.24-.12.1-.21.21.11Zm.26.08-.11.19-.08-.03.05-.19.14.03Zm.15.14h-.07l-.05-.05.09-.07.03.12Zm249.97 2.09-.45-.22.97.08-.19.21-.33-.07Zm10.17.78-.14.41.33.26.48-.67.93.41 1.44-.6.27.53-1.6 1.37-10.69 4.49-.45.67-1 .4v.91l-.52 1.26-.41.21.67-1.47-.14-1.79 2.33-1.71.52-1.18 1.12-.98 1.78-.93 2.45-.66.66-1.07 1.97.14Zm-29.84-.52 1.78-.14.07.92 1 1.19 1.85.33-.07 1.64.19-.64.4-.14-.33-.93.19-.45.86-.4 1.4.07 1.57 1.97 2.25.86 1.38 1.45-1.52.33 1.93.4 1.9 1-.26.6-2.9.92-1.31-.14-.33-.45-.81-.14.59.73 2.19.26 2.52-.8.26.47.97.19 1.34-.78.85.45.33 1.19-.92-.27-3.43.86-8.65-1.97-.21-.74-1.45-.59-.26-1.24-.86.05.72-.86-.98.53-2.18-.19-.34-.72-1.04-.54.07-.26h.93l.04-.38-1.83.11-1.14-.33-.07-.92H376l.14-1.38-.74.47-.12.57-1.33-.26-1.19-.78.22-.53.78-.4 1.78.26 1.86-.52 2.76.07Zm32.36-.14-.47.4-.26-.07.52-.59.47.14-.26.12Zm-12.47.47.3 1.05 1.67.66-.52 1.05-.67.21-.07-.4-.33 1.12-.6.59-.97-.07-1.74-.9-.71-.93.05-.6 1.14-.47 1.11-1.71 1.6.19-.26.21Zm12.19-5.27.47.31-.26 1.59 1.19 1.19-1.33-.12-1.57.57-.21.4-5.02 1.19-2.49 1.33-1.52-.55-.15-1.83 1.33-.92 1.9-.93 1.12-.07 2.85-1.9 2.5-.55 1.19.29Zm-279.02 1.83v.02h-.02v-.02h.02Zm-1.12-2.85-.07.23-.47-.02.19-.21h.35Zm2.33-5.07.05-.02.03.1h-.05l-.03-.08Zm.17-.68h.02l.05.02h-.07v-.02Zm-.26-.12h.05l.02.04-.1-.04h.03Zm.12-.07v-.05l.09.09-.07-.04h-.02Zm.24-.27.02-.02.05.02v.05l-.07-.05Zm-.05.27h.02l.03.04-.05.03v-.07Zm15.04 9.1-.05-.03.12-.02v.05h-.07Zm.64-.74h.05l-.02.05-.03-.03v-.02Zm1.71-.62-.02.03v-.03h.02Zm-.09-.07-.03.05h-.02l.05-.07v.02Zm.33-.09v-.03l.02.03v.02l-.02-.02Zm-17.47-8.06.05.05.03.02-.08-.05v-.02Zm.69-.17-.02.05-.07-.09h.07l.02.04Zm161.34-3.2-.1.02-.04-.05.07-.07.07.1Zm2.47-.05.07-.05.02.03-.07.07-.02-.05Zm-162.95 2.42.02.03v.02l-.05-.02.03-.03Zm-.05.05-.02-.02h-.07l.07-.03.02.05Zm163.57-2.59h.05l-.05.05-.02-.03.02-.02Zm-1.19-.02v.02h-.02v-.02h.02Zm-.24-.03.08-.05h.04l-.09.08-.03-.03Zm-1.28-.12h-.02v-.02l.02.02Zm3.35-.02h-.05l.05-.02v.02Zm.88-.14.02.02-.02.02-.02-.02.02-.02Zm-.81.02v-.07l.07.09h-.04l-.03-.02Zm-.88.36.03.02-.03.03-.02-.05h.02Zm-.21-.03-.02.03v-.03h.02Zm-4.85-.52h-.05l.03-.02.02.02Zm-.09-.02h-.03l.03-.03v.03Zm7.29-.29v.03h-.02l.02-.03Zm.07-.02v.02h-.02l.02-.02Zm2.12-.64.05-.05.02.05-.12.04.05-.04Zm-169.06 5.18-.05.04-.02-.09.07.05Zm-.12-.07h.03l.02.04h-.02l-.03-.04Zm74.36-5.42-.07-.07.02-.03.1.07-.05.03Zm-.14-.07.02-.03.02.07h-.02l-.02-.04Zm-1.02-.1.02.05h-.05v-.02l.03-.03Zm-.46-.26-.02.02h-.02l.02-.02h.02Zm-15.06-.12.02.03-.07.04v-.02l.05-.05Zm119.44-.07v.02l-.03-.02h.03Zm.47.02-.05-.02.03-.02h.02v.04Zm.29-.07h.04l-.04.03v-.03Zm-1.26-.07h.02v.05l-.02-.02v-.03Zm1.18 0h-.02v-.02h.02v.02Zm-103.44-.07.02-.05.05.05-.05.07-.02-.07Zm-.05 0h-.02l.02-.02v.02Zm104.14-.24v-.02h.02l-.02.02Zm-103.97-.09h.02l-.02.02v-.02Zm103.92.04v.05h-.02v-.02l.02-.03Zm-.05-.02.03.02-.03.03-.02-.03.02-.02Zm.05-.05.02-.02.03.02h-.05Zm2.95-.12-.03.03v-.05h.03v.02Zm-106.94-.14v.03l-.03-.03h.03Zm.09-.02-.02-.03v-.02h.05l-.03.05Zm.03-.1v.03h-.05v-.03h.05Zm53.63-.09v.02H263l-.03-.02h.05Zm-53.9-.05h-.04l.02-.02.02.02Zm-.02-.05-.07-.02v-.02l.09-.03-.02.07Zm-.24-.28v.02h-.02v-.02h.02Zm60.27-.05.02.02-.02.03-.02-.05h.02Zm-60.01.1h-.04l.02-.03.02.03Zm-.16-.22h-.03l.03-.02v.02Zm-.22-.12v-.02h.03l-.03.02Zm63.45-.02.05-.05-.02.12h-.03v-.07Zm1.31-.19h-.02l.02-.02.03.02h-.03Zm-64.76-.12-.02.02-.02-.02h.04Zm65.24-.17.02-.04.02.09h-.04v-.05Zm-64.67-.09v-.02h.05l-.02.04-.03-.02Zm-.52.07v.05l-.02-.03v-.02h.02Zm.05-.17h.02v.03l-.02-.03Zm.31-.04h.02v.02l-.05-.02h.03Zm-.1-.05-.02.02v-.02h.02Zm0 0v-.02l-.02-.03.07.03v.09l-.05-.02v-.05Zm.15-.55-.05-.02v-.03h.05v.05Zm.09-.12.07-.02.03.05h-.08l-.02-.03Zm-68.3-.42v.02h-.04v-.02h.04Zm-.16-.17-.03.02h-.02l.02-.02h.03Zm.04.09.05-.02.03.02-.05.05-.03-.05Zm.12-.02v.05h-.04l.02-.03.02-.02Zm-.16-.02.04-.03v.05l-.04.02v-.04Zm107.2-.57.02-.05.12.02-.05.05-.09-.02Zm-3.28-.95.07-.05.05.07-.1.02-.02-.04Zm3.11.92.02.03h-.04v-.03h.02Zm-2.95-1.28.05.02-.02.03h-.03v-.05Zm213.69-2.33.38.45v.22l-.71-.79.33.12Zm1.64-1.59-1.26.59 1.85-1.9.79.07-1.38 1.24ZM10.03 649.54l.93.52-.72 1.19-1.19.41-.8 1.04-.46-.19.08-.4h-.81l.21-1.05.86-1.26h.71l.81-.52.38.26ZM.14 637.21v-.29l.45-.26v.6l-.45-.05Zm1.12-1.59.45.19-1.12.59-.59-.07.26-.9 1 .19Zm57.7 194.91-.26-.14.05-.52.54.12v.47l-.33.07Zm-43.63-23.47v.02l-.05-.02h.05Zm96.1-13.36-.93.38v-1.5l.86-1.59 2.3-2.56 1.79-4.04 1.14-1.05 4.27-1.52.74-.59 1.19-2.05 1-.47-.55 2.3-2.57 3.52-1.66 3.9-7.58 5.27Zm19.01-16.37 1.07 1.64 2.83 1.85-.41 1.33-3.3 1.45-1.78-.26-4.09.71.26-1.52 2.64-4.23 2.19-1.37.59.4Zm.19-8.79.33 1.52-.59 1.59-.26 2.5-1.38 2.32-1.26.65.86-5.07-.19-1.85 2.04-2.37.45.71ZM16.44 807.86l-.09.05-.05-.05.22-.07-.08.07Zm-.57-.33.05-.12.07-.02-.12.21v-.07Zm-.64-.21h-.09l.05-.1.04.1Zm.26-.15h.03l-.03.1h-.02l.02-.1Zm.62.43-.02-.02h.02v.02Zm-.09-.02v-.03h.02l-.02.03Zm.09.02.07-.09h.05l-.05.07-.07.02Zm-.83-.43.02.03-.02.02-.02-.02.02-.03Zm1.71.95v.03h-.02v-.03h.02Zm-.45-.19v-.07l.07-.02-.02.05-.05.04Zm.07-.02.02-.07h.05v.05l-.07.02Zm3.99 14.02h.03l-.03.02v-.02Zm-3.58-8.08h-.12l.07-.02.05.02Zm-.17-.07.05-.02v.02h-.05Zm.52-2.61h.05l-.02.02-.03-.02Zm0 0v.02l-.05-.02.03-.03.02.03Zm.07-.17h.05l.02.02h-.04l-.03-.02Zm.19-.05h.03l.04.03-.02.02-.05-.05Zm-.07-.73h.03l.02.02h-.05v-.02Zm.05-.12-.02.02v-.02h.02Zm-.21-1.57h.02l.05.02h-.03l-.04-.02Zm.09-.05h.05v.02l-.05-.02Zm-.38-.28v.02l-.02.02v-.02l.02-.02Zm.45 1.71.03.02h-.05l.02-.02Zm.07-.05v.02l-.04.03v-.03l.04-.02Zm-.61-1.71.02-.05h.05l-.07.1v-.05Zm127.16-7.2-.19.21h-.41l.86-.4-.26.19Zm-.07-5.87-.27.45-1.04-.19.64-.52.67.26Zm-5.8-3.42-.55-.07 1-.26-.07.26-.38.07Zm40.06 234.95-.35.43-.45-.55.59-.26.21.38Zm-21.84-29.39h-.02v-.03l.02.03Zm-.26-.07-.07.02-.19-.05.14-.02.12.05Zm.22-.15h.02l.02.05h-.04V997Zm.14-.14.05.03v.02l-.05-.02v-.03Zm.17-.47v.07l-.12-.07h.12Zm-.29.78-.14.07-.07-.07.07-.02.14.02Zm.02.02-.02-.02h.02v.02Zm0-.9.05.05-.21-.07h.09l.07.02Zm.79-.36.05.05-.12.1-.07-.07.14-.08Zm.09 0v.03h-.02v-.03h.02Zm.22-.11h-.07l.04.02-.07.02.03-.07.07.03Zm.52-.46.05-.02.02.05h-.05l-.02-.03Zm.19-.16.02-.03.05.03-.05.02-.02-.02ZM85.1 888.79v.03l-.02-.03h.02Zm96.51-3.42.33.45-.14.15-.46-.34.27-.26Zm-20.58 107.95h.04l-.02.02-.02-.02Zm-.03-.02h-.02l.02.07-.07-.1.07.03Zm.03.02v-.02h.02l-.02.02Zm-62.05-108.9.05.03.02.07-.05-.03-.02-.07Zm1.38.07v.03l-.03-.03h.03Zm-.6 0v.03h-.05v-.03h.05Zm0 0-.05-.04h.08l.04.02-.07.02Zm-.05-.09h.03l.07.02h-.1v-.02Zm.5.02.1.03.02.02h-.07l-.05-.05Zm89.12-.38.12.6 1.4-.19-.59.59.19.93-.53.26-.47-.07-.45-.72-.34-1.85.67.45Zm-16.45-.5.69.95-.19.74-.71-.62-.05-1.09.26.02Zm-72.36.84h-.02v-.03l.02.03Zm13.26-.58.03-.04.04.02-.04.07-.03-.05Zm-1.66-.21v.02l-.02-.02v-.02l.02.02Zm-.1-.02v.02h-.04l.02-.02h.02Zm-.09-.05v-.02h.02v.02h-.02Zm-4.42-.76.02.02-.04.03v-.03l.02-.02Zm.26 0-.14-.02-.03-.08.22.05-.05.05Zm2.95.71h.02v.05l-.05-.02.03-.03Zm.31 0 .02.03.02.02-.04-.02v-.03Zm83.84-3.89v-.22l.47-.19-.14.6-.33-.19Zm-63.72-2.26h.05l-.02.02-.03-.02Zm61.48-9.84v.48l-.59-.15-.41.48-.19-.48.67-.66.52.33Zm-.85 9.98.19.38.78-.33.93.47.59-.14.14-.45.53.19-.53.47-2.11.34-.93-.93-.52.05-.26.66.71.48.26.97.81-.33v-.45l1.64.4.67-1.26.52-.4.26.21-1.19 2.31-2.04-.41-.67.48-.71-.4.19-.67-1.19-1.45 1.12-.45.81.26Zm-5.35-10.83-.48.26-.59-.34.59-.19.48.27Zm-3.97-5.28.33.59-1.07-.85h.22l.52.26Zm4.61 3.75.33.41.55 1.19-1.4.14.14-.33-1.07-.81.74-.98.71.38Zm-1.9-1.85 1.59 1.07-1.66.33-.6 1.05-.99-.26.26-.26-.31-.19.12-.34-1.05-.14.6-1.19 2.04-.07Zm-68.25-24.62-.21.29-.53-.55h.67l.07.26Zm-15.07-4.2-.33.19-.26-.45.4-.07.19.33Zm10.48-6.54-.04-.02h.02l.02.02Zm-36.31-1.23h.03v.02l-.03-.02Zm45.7-2.33-.26.38-.52-.12.4-.81h.38v.55Z"/></svg>