<svg xmlns="http://www.w3.org/2000/svg" viewBox="0 0 5.970001220703125 1.389984130859375"><path d="M 249.55 326.54 249.53 326.54 249.51 326.54 249.5 326.53 249.48 326.51 249.42 326.47 249.4 326.44 249.42 326.41 249.44 326.4 249.57 326.39 249.59 326.4 249.61 326.42 249.61 326.43 249.6 326.45 249.58 326.49 249.57 326.5 249.56 326.51 249.56 326.53 249.55 326.54 Z M 255.31 326.34 255.29 326.35 255.23 326.35 255.22 326.35 255.17 326.38 255.16 326.4 255.15 326.4 255.13 326.38 255.09 326.38 255.05 326.4 254.88 326.44 254.84 326.46 254.8 326.44 254.73 326.45 254.66 326.44 254.63 326.38 254.66 326.38 254.68 326.38 254.72 326.37 254.76 326.36 254.8 326.33 254.84 326.31 254.86 326.3 255.03 326.27 255.06 326.27 255.14 326.3 255.25 326.3 255.28 326.32 255.31 326.34 Z M 255.35 325.91 255.37 325.95 255.37 325.95 255.34 325.95 255.36 325.97 255.34 325.97 255.32 325.96 255.3 325.95 255.3 325.93 255.28 325.93 255.3 325.97 255.31 325.99 255.3 326.01 255.27 325.97 255.18 325.88 255.18 325.87 255.23 325.87 255.29 325.88 255.35 325.91 Z M 251.46 325.49 251.69 325.54 251.92 325.51 251.95 325.51 252.03 325.54 252.07 325.54 252.15 325.52 252.28 325.51 252.34 325.52 252.4 325.54 252.43 325.53 252.58 325.53 252.66 325.56 252.85 325.52 253.03 325.57 253.13 325.54 253.25 325.58 253.27 325.56 253.3 325.57 253.32 325.59 253.32 325.6 253.34 325.61 253.36 325.6 253.38 325.57 253.4 325.58 253.4 325.61 253.44 325.63 253.45 325.66 253.46 325.69 253.49 325.69 253.57 325.67 253.57 325.65 253.53 325.64 253.49 325.62 253.46 325.59 253.43 325.56 253.58 325.61 253.61 325.62 253.64 325.62 253.67 325.63 253.71 325.62 253.72 325.59 253.77 325.6 253.88 325.63 253.91 325.6 253.94 325.61 253.96 325.63 254.04 325.65 254.08 325.67 254.12 325.71 254.14 325.7 254.16 325.67 254.17 325.68 254.17 325.69 254.16 325.7 254.15 325.72 254.17 325.72 254.19 325.71 254.21 325.7 254.24 325.75 254.28 325.77 254.31 325.75 254.37 325.8 254.45 325.81 254.49 325.78 254.5 325.77 254.52 325.75 254.54 325.76 254.54 325.77 254.52 325.89 254.51 325.99 254.52 326.01 254.51 326.04 254.53 326.06 254.55 326.07 254.58 326.05 254.57 326.07 254.58 326.09 254.6 326.13 254.58 326.14 254.58 326.16 254.56 326.16 254.54 326.13 254.51 326.13 254.5 326.15 254.53 326.18 254.51 326.2 254.48 326.2 254.44 326.18 254.4 326.19 254.36 326.21 254.32 326.22 254.28 326.24 254.24 326.28 254.16 326.4 254.16 326.46 254.13 326.5 254.12 326.5 254.07 326.52 254.05 326.53 254.08 326.6 254.03 326.64 253.95 326.69 253.84 326.73 253.79 326.73 253.73 326.72 253.69 326.71 253.66 326.72 253.6 326.74 253.58 326.75 253.51 326.74 253.47 326.76 253.34 326.82 253.31 326.83 253.29 326.83 253.26 326.83 253.25 326.84 253.24 326.82 253.23 326.82 253.23 326.81 253.26 326.8 253.26 326.79 253.25 326.78 253.23 326.76 253.19 326.8 253.17 326.81 253.13 326.8 253.07 326.79 253.05 326.79 253.04 326.77 253.03 326.76 253.02 326.74 252.99 326.73 252.97 326.72 252.94 326.73 252.89 326.74 252.82 326.78 252.78 326.78 252.73 326.74 252.7 326.7 252.66 326.68 252.62 326.69 252.59 326.69 252.56 326.7 252.53 326.71 252.46 326.71 252.44 326.72 252.41 326.74 252.39 326.75 252.35 326.73 252.34 326.74 252.32 326.74 252.3 326.72 252.27 326.71 252.18 326.73 252.16 326.72 252.09 326.7 252 326.7 252 326.67 251.98 326.66 251.95 326.66 251.93 326.68 251.93 326.7 251.96 326.7 251.93 326.73 251.89 326.76 251.84 326.77 251.79 326.78 251.72 326.77 251.69 326.78 251.66 326.78 251.65 326.78 251.64 326.79 251.64 326.8 251.64 326.82 251.6 326.82 251.56 326.8 251.52 326.74 251.47 326.74 251.42 326.73 251.37 326.73 251.33 326.72 251.3 326.75 251.27 326.77 251.24 326.78 251.21 326.77 251.13 326.77 251.08 326.74 251.06 326.76 251.08 326.81 251.05 326.81 251.02 326.76 251.01 326.74 251.01 326.67 251.06 326.65 251.08 326.64 251.1 326.63 251.11 326.63 251.12 326.61 251.11 326.6 251.09 326.58 251.06 326.59 251.03 326.58 251.04 326.53 251.05 326.51 251.07 326.5 251.06 326.47 251.05 326.44 251.08 326.41 251.08 326.34 251.1 326.25 251.12 326.23 251.13 326.22 251.15 326.19 251.13 326.16 251.1 326.14 251.07 326.03 251.05 325.99 251 325.98 250.96 325.97 250.92 325.9 250.9 325.86 250.88 325.82 250.89 325.81 250.95 325.79 251 325.77 251.04 325.75 251.07 325.73 251.13 325.68 251.13 325.63 251.11 325.59 251.11 325.53 251.15 325.48 251.26 325.45 251.38 325.45 251.46 325.49 Z" fill-rule="evenodd" id="Puerto Rico" transform="translate(-249.39999389648438,-325.45001220703125) "/></svg>