<svg xmlns="http://www.w3.org/2000/svg" viewBox="0 0 1.91998291015625 3.9000244140625"><path d="M 513.53 310.98 513.38 311.1 513.26 311.14 513.14 311.14 513 311.12 512.89 311.08 512.79 310.96 512.62 310.69 512.67 310.68 512.72 310.63 512.74 310.57 512.72 310.34 512.7 310.28 512.61 310.1 512.6 310.07 512.62 310 512.63 309.95 512.63 309.91 512.61 309.89 512.55 309.85 512.54 309.77 512.53 309.68 512.51 309.62 512.53 309.58 512.53 309.53 512.52 309.47 512.51 309.42 512.53 309.29 512.53 309.24 512.5 309.05 512.52 308.95 512.53 308.9 512.5 308.87 512.56 308.79 512.6 308.78 512.63 308.81 512.63 308.86 512.65 308.88 512.65 308.92 512.71 308.94 512.68 308.84 512.67 308.8 512.67 308.75 512.67 308.72 512.68 308.69 512.68 308.66 512.67 308.63 512.65 308.62 512.6 308.61 512.57 308.6 512.6 308.57 512.63 308.56 512.66 308.56 512.69 308.54 512.7 308.53 512.71 308.49 512.72 308.48 512.73 308.49 512.75 308.51 512.76 308.52 512.78 308.53 512.77 308.58 512.76 308.64 512.76 308.69 512.76 308.71 512.78 308.76 512.79 308.77 512.8 308.78 512.83 308.78 512.83 308.77 512.83 308.76 512.84 308.7 512.84 308.64 512.85 308.62 512.87 308.59 512.89 308.6 512.91 308.62 512.94 308.62 512.95 308.6 512.98 308.53 513 308.5 512.94 308.52 512.88 308.53 512.84 308.51 512.8 308.45 512.8 308.41 512.82 308.3 512.82 308.29 512.84 308.27 512.85 308.26 512.85 308.25 512.83 308.23 512.83 308.22 512.83 308.15 512.86 308.16 512.87 308.14 512.88 308.11 512.9 308.1 512.92 308.11 512.93 308.13 512.94 308.15 512.94 308.18 512.97 308.16 512.99 308.13 513 308.09 512.99 308.05 512.97 308.06 512.94 308.03 512.94 307.98 513 307.84 513.01 307.79 513.02 307.68 513.03 307.69 513.04 307.7 513.05 307.71 513.06 307.71 513.11 307.57 513.16 307.5 513.22 307.48 513.25 307.47 513.35 307.43 513.36 307.42 513.38 307.38 513.43 307.33 513.44 307.29 513.48 307.31 513.53 307.29 513.61 307.24 513.78 307.34 513.82 307.38 513.82 307.42 513.82 307.48 513.82 307.54 513.84 307.56 513.88 307.58 513.9 307.62 513.9 307.67 513.91 307.71 513.95 307.75 513.97 307.75 513.99 307.75 514.09 307.75 514.14 307.75 514.18 307.77 514.22 307.79 514.26 307.81 514.29 307.84 514.31 307.88 514.33 307.92 514.37 308.19 514.37 308.23 514.36 308.25 514.34 308.27 514.33 308.26 514.32 308.22 514.3 308.21 514.28 308.22 514.27 308.25 514.26 308.28 514.26 308.3 514.28 308.32 514.3 308.31 514.31 308.3 514.32 308.28 514.36 308.34 514.33 308.4 514.28 308.41 514.28 308.35 514.25 308.36 514.17 308.4 514.2 308.41 514.24 308.43 514.26 308.46 514.28 308.48 514.27 308.54 514.24 308.56 514.2 308.57 514.17 308.58 514.15 308.57 514.14 308.57 514.14 308.7 514.14 308.73 514.14 308.74 514.13 308.76 514.11 308.78 514.1 308.8 514.1 308.83 514.18 308.97 514.2 309 514.2 309.04 514.19 309.14 514.18 309.27 514.19 309.32 514.2 309.35 514.23 309.36 514.36 309.38 514.38 309.41 514.4 309.45 514.4 309.5 514.41 309.54 514.42 309.74 514.39 309.99 514.4 310.02 514.39 310.04 514.35 310.19 514.32 310.23 514.25 310.32 514.22 310.38 514.2 310.39 514.18 310.4 514.17 310.4 514.16 310.43 514.1 310.65 514.1 310.66 514.09 310.68 514.06 310.7 514.05 310.75 514.03 310.85 514 310.89 513.91 310.94 513.9 310.96 513.88 311.02 513.86 311.05 513.83 311.08 513.8 311.12 513.78 311.08 513.79 311.05 513.81 311.01 513.82 310.96 513.8 310.93 513.76 310.93 513.68 310.94 513.68 310.89 513.67 310.89 513.64 310.91 513.61 310.92 513.58 310.92 513.54 310.94 513.52 310.96 513.53 310.98 513.53 310.98 Z" id="Qatar" transform="translate(-512.5,-307.239990234375) "/></svg>