<svg xmlns="http://www.w3.org/2000/svg" viewBox="0 0 16.67999267578125 19.220001220703125"><path d="M 441.29 359.3 441.31 359.36 441.32 359.63 441.3 359.95 441.28 360 441.27 360.03 441.26 360.06 441.22 360.09 441.15 360.13 441.1 360.16 441.07 360.2 441 360.42 440.96 360.48 440.95 360.5 440.95 360.55 440.94 360.57 440.9 360.63 440.84 360.74 440.84 360.77 440.83 360.83 440.77 360.98 440.6 361.26 440.6 361.28 440.57 361.29 440.45 361.41 440.42 361.44 440.4 361.48 440.37 361.61 440.36 361.65 440.34 361.69 440.32 361.73 440.29 361.81 440.26 361.84 440.23 361.85 440.22 361.88 440.16 361.94 440.15 361.97 440.06 362.2 440.06 362.23 440.07 362.3 440.08 362.36 440.07 362.58 440.08 362.68 440.08 362.71 440.07 362.75 440.05 362.82 440.05 362.86 440.06 363.49 440.06 363.54 439.93 363.82 439.91 363.87 439.9 363.95 439.83 364.19 439.82 364.33 439.8 364.37 439.71 364.53 439.66 364.58 439.62 364.66 439.6 364.71 439.63 364.87 439.63 365.04 439.7 365.32 439.7 365.38 439.66 365.55 439.66 365.61 439.68 365.67 439.72 365.77 439.75 365.79 439.78 365.83 439.79 365.87 439.79 365.91 439.78 366.12 439.77 366.16 439.58 366.42 439.4 366.89 439.36 366.97 439.27 367.38 439.27 367.44 439.27 367.49 439.33 367.71 439.34 368.1 439.33 368.13 439.3 368.17 439.16 368.3 439.14 368.32 439.13 368.33 439.13 368.37 439.13 368.37 439.12 368.38 439.09 368.4 439.06 368.43 439.02 368.47 438.89 368.62 438.6 368.97 438.54 369.03 438.49 369.08 438.48 369.09 438.42 369.12 438.41 369.14 438.37 369.19 438.34 369.2 438.23 369.23 438.12 369.25 438.07 369.26 437.92 369.32 437.82 369.35 437.75 369.36 437.73 369.37 437.71 369.38 437.7 369.39 437.69 369.4 437.64 369.46 437.55 369.54 437.48 369.62 437.38 369.7 437.33 369.73 437.31 369.75 437.3 369.76 437.28 369.82 437.23 369.91 437.19 369.99 437.16 370.05 437.07 370.21 437 370.3 436.95 370.41 436.92 370.45 436.88 370.52 436.86 370.56 436.85 370.59 436.85 370.62 436.85 370.69 436.83 370.76 436.81 370.81 436.63 371.04 436.63 371.05 436.61 371.08 436.61 371.11 436.59 371.11 436.55 371.14 436.52 371.16 436.51 371.16 436.49 371.18 436.45 371.22 436.31 371.36 436.22 371.43 436.1 371.55 436.03 371.59 435.98 371.64 435.93 371.71 435.9 371.76 435.88 371.81 435.88 371.86 435.89 371.87 435.89 371.89 435.86 371.99 435.85 372.02 435.86 372.06 435.88 372.09 435.89 372.1 435.89 372.12 435.89 372.23 435.97 372.75 435.92 373.08 435.87 373.24 435.86 373.27 435.86 373.3 435.87 373.43 435.88 373.51 435.88 373.62 435.89 373.74 435.88 373.86 435.89 373.9 435.91 373.94 435.91 373.99 435.9 374.08 435.91 374.13 435.93 374.16 435.96 374.17 435.97 374.2 435.97 374.25 435.96 374.29 435.93 374.36 435.82 374.54 435.77 374.66 435.72 374.76 435.58 374.92 435.49 375.11 435.48 375.16 435.45 375.19 435.41 375.29 435.34 375.41 435.33 375.43 435.31 375.45 435.27 375.58 435.22 375.63 435.21 375.64 435.12 375.69 435.02 375.72 434.92 375.73 434.83 375.75 434.51 375.85 434.47 375.86 434.43 375.89 434.41 375.93 434.34 376.15 434.33 376.17 434.28 376.22 434.27 376.23 434.25 376.24 434.19 376.27 434.11 376.3 433.86 376.43 433.82 376.45 433.76 376.48 433.7 376.51 433.68 376.55 433.67 376.58 433.58 376.7 433.47 376.87 433.42 376.91 433.3 376.97 433.28 376.99 433.27 377.02 433.1 377.19 432.92 377.49 432.9 377.53 432.88 377.56 432.84 377.59 432.74 377.64 432.59 377.73 432.52 377.75 432.44 377.76 432.42 377.75 432.35 377.71 432.32 377.7 432.31 377.69 432.29 377.66 432.28 377.65 432.26 377.65 432.21 377.65 432.2 377.64 432.19 377.62 432.14 377.62 432.1 377.63 432.08 377.64 432.03 377.69 432 377.71 431.96 377.71 431.92 377.72 431.91 377.65 431.95 377.48 431.94 377.46 431.93 377.44 431.92 377.42 431.92 377.39 431.92 377.37 431.94 377.33 431.94 377.31 431.94 377.25 431.91 377.22 431.88 377.19 431.84 377.15 431.83 377.06 431.81 377.01 431.81 377 431.83 376.96 431.86 376.93 431.95 376.9 431.97 376.87 432 376.84 432.04 376.8 432.07 376.75 432.07 376.71 432.06 376.7 431.98 376.65 431.94 376.6 431.9 376.54 431.89 376.51 431.89 376.5 431.9 376.49 431.91 376.45 431.91 376.43 431.91 376.4 431.9 376.38 431.89 376.37 431.85 376.38 431.75 376.43 431.65 376.45 431.61 376.48 431.53 376.56 431.44 376.6 431.36 376.62 431.16 376.65 431.08 376.68 431.01 376.77 431.01 376.77 431.01 376.78 430.97 376.8 430.93 376.85 430.91 376.86 430.89 376.86 430.82 376.84 430.82 376.84 430.76 376.85 430.74 376.84 430.71 376.82 430.68 376.76 430.66 376.74 430.61 376.7 430.57 376.7 430.43 376.75 430.4 376.76 430.39 376.79 430.42 377 430.41 377.04 430.37 377.13 430.37 377.18 430.4 377.28 430.38 377.3 430.36 377.29 430.35 377.29 430.33 377.3 430.32 377.32 430.33 377.36 430.31 377.38 430.29 377.38 430.24 377.37 430.22 377.36 430.18 377.39 430.13 377.48 430.1 377.49 430.08 377.5 430.06 377.49 430.01 377.44 429.98 377.43 429.96 377.43 429.89 377.47 429.91 377.49 429.92 377.51 429.91 377.53 429.89 377.54 429.77 377.62 429.71 377.7 429.69 377.72 429.64 377.62 429.62 377.54 429.61 377.52 429.59 377.5 429.56 377.48 429.42 377.43 429.38 377.4 429.28 377.31 429.22 377.28 429.2 377.26 429.17 377.18 429.13 377.13 429.11 377.09 429.07 377.04 429.01 377.04 428.98 377.09 428.98 377.17 428.88 377.11 428.73 376.94 428.64 376.87 428.6 376.82 428.56 376.72 428.53 376.67 428.49 376.65 428.47 376.66 428.44 376.67 428.41 376.67 428.38 376.67 428.33 376.65 428.32 376.64 428.29 376.63 428.24 376.66 428.21 376.71 428.19 376.76 428.16 376.8 428.12 376.82 428.09 376.85 428.06 376.88 428.01 376.97 427.98 377 427.95 377.01 427.7 377.05 427.55 377.1 427.52 377.11 427.46 377.1 427.44 377.13 427.44 377.22 427.43 377.27 427.34 377.45 427.31 377.48 427.28 377.49 427.21 377.5 427.17 377.51 427.14 377.52 427.12 377.54 427.09 377.49 427.07 377.46 427.05 377.45 427.03 377.45 427.02 377.46 426.95 377.68 426.89 377.78 426.64 377.99 426.62 378.01 426.59 377.98 426.56 377.95 426.51 377.86 426.42 377.76 426.37 377.71 426.35 377.65 426.22 377.52 426.2 377.5 426.2 377.48 426.21 377.47 426.22 377.47 426.25 377.5 426.26 377.5 426.27 377.47 426.27 377.42 426.21 377.35 426.12 377.26 426.11 377.24 426.11 377.21 426.16 377.22 426.2 377.17 426.21 377.12 426.17 377.04 425.92 376.79 425.69 376.59 425.49 376.41 425.38 376.35 425.27 376.25 425.23 376.18 425.22 376.17 425.19 376.12 425.19 376.1 425.19 376.05 425.19 376.03 425.18 376.01 424.98 375.85 424.77 375.71 424.69 375.66 424.64 375.62 424.67 375.56 424.82 375.16 424.85 375.1 424.91 375.05 424.99 375 425.05 374.94 425.13 374.9 425.22 374.88 425.3 374.85 425.35 374.79 425.39 374.72 425.45 374.68 425.56 374.7 425.65 374.76 425.82 375.04 425.86 375.08 425.91 375.1 426.03 375.08 426.07 375.09 426.2 375.12 426.24 375.13 426.25 375.12 426.29 375.11 426.33 375.07 426.37 375.03 426.39 374.98 426.38 374.93 426.33 374.91 426.28 374.89 426.23 374.86 426.21 374.82 426.22 374.77 426.34 374.47 426.37 374.42 426.47 374.34 426.5 374.3 426.48 374.23 426.39 374.19 426.29 374.16 426.21 374.12 426.12 374.05 426.07 374.02 425.94 373.97 425.93 373.95 425.91 373.93 425.9 373.93 425.91 373.91 425.91 373.76 425.92 373.72 425.95 373.67 425.97 373.65 426 373.66 426.05 373.65 426.11 373.62 426.11 373.57 426.08 373.52 425.91 373.34 425.83 373.23 425.79 373.19 425.75 373.18 425.69 373.2 425.6 373.26 425.56 373.26 425.55 373.21 425.57 373.13 425.57 373.11 425.74 372.85 425.76 372.79 425.77 372.75 425.77 372.7 425.76 372.65 425.73 372.6 425.68 372.51 425.66 372.46 425.66 372.42 425.68 372.3 425.67 372.25 425.62 372.12 425.64 372.08 425.64 372.08 425.73 372.08 425.84 372.12 425.87 372.13 425.88 372.15 425.89 372.17 425.91 372.19 425.98 372.24 426.02 372.27 426.06 372.27 426.1 372.25 426.17 372.18 426.22 372.16 426.3 372.14 426.39 372.11 426.46 372.08 426.49 372.09 426.53 372.12 426.6 372.22 426.67 372.26 426.74 372.27 427.62 372.08 427.59 372.03 427.61 371.96 427.64 371.89 427.65 371.82 427.64 371.73 427.64 371.7 427.66 371.67 427.7 371.6 427.71 371.57 427.62 371.53 427.58 371.46 427.56 371.37 427.54 371.13 427.55 371.1 427.57 371.11 427.6 371.13 427.64 371.18 427.68 371.19 427.71 371.17 427.72 371.15 427.72 371.13 427.72 371.11 427.74 371.08 427.75 371.07 427.76 371.05 427.87 370.98 427.89 370.97 428 370.97 428.1 371.01 428.24 371.11 428.25 371.12 428.35 371.15 428.38 371.18 428.41 371.23 428.46 371.39 428.48 371.44 428.49 371.45 428.53 371.49 428.54 371.5 428.54 371.55 428.54 371.55 428.54 371.56 428.54 371.57 428.54 371.59 428.58 371.6 428.58 371.61 428.57 371.62 428.57 371.63 428.56 371.65 428.56 371.66 428.56 371.68 428.59 371.71 428.6 371.72 428.6 371.75 428.61 371.79 428.64 371.78 428.7 371.76 428.72 371.78 428.76 371.84 428.78 371.87 428.79 371.93 428.79 371.95 428.81 371.96 428.82 371.96 428.83 371.96 428.84 371.99 428.82 372.01 428.81 372.03 428.8 372.05 428.8 372.07 428.8 372.09 428.79 372.11 428.78 372.12 428.75 372.14 428.74 372.16 428.75 372.18 428.78 372.17 428.8 372.15 428.84 372.11 428.87 372.1 428.93 372.11 429.07 372.17 429.12 372.19 429.14 372.18 429.18 372.16 429.21 372.15 429.23 372.16 429.62 372.3 429.66 372.3 429.7 372.29 429.75 372.3 429.76 372.3 429.79 372.29 429.8 372.3 429.82 372.32 429.83 372.33 429.86 372.31 429.87 372.3 429.87 372.27 429.89 372.25 429.91 372.23 429.98 372.18 430 372.16 430.03 372.12 430.05 372.1 430.08 372.09 430.13 372.07 430.15 372.06 430.16 372.04 430.17 371.99 430.19 371.97 430.35 371.81 430.37 371.78 430.38 371.76 430.38 371.72 430.39 371.69 430.41 371.65 430.46 371.58 430.46 371.57 430.47 371.57 430.49 371.59 430.53 371.62 430.55 371.66 430.57 371.71 430.59 371.8 430.64 371.9 430.67 371.94 430.71 371.98 430.72 372 430.73 372.06 430.75 372.08 430.77 372.09 430.8 372.11 430.83 372.15 430.82 372.16 430.79 372.18 430.76 372.24 430.71 372.27 430.7 372.29 430.69 372.37 430.69 372.38 430.73 372.41 430.78 372.43 430.83 372.43 430.88 372.42 430.92 372.4 430.94 372.39 430.96 372.39 430.98 372.41 430.99 372.45 431 372.46 431.02 372.46 431.12 372.43 431.13 372.43 431.16 372.43 431.19 372.45 431.21 372.46 431.23 372.45 431.25 372.44 431.26 372.41 431.27 372.37 431.29 372.35 431.31 372.33 431.33 372.31 431.32 372.26 431.33 372.23 431.35 372.21 431.4 372.18 431.42 372.17 431.44 372.16 431.54 372.13 431.55 372.14 431.54 372.07 431.37 371.93 431.36 371.85 431.39 371.83 431.47 371.8 431.5 371.77 431.5 371.75 431.48 371.71 431.49 371.69 431.5 371.68 431.54 371.67 431.55 371.65 431.56 371.62 431.57 371.5 431.59 371.46 431.59 371.44 431.58 371.42 431.56 371.41 431.55 371.39 431.55 371.38 431.56 371.36 431.56 371.34 431.57 371.32 431.58 371.3 431.59 371.28 431.85 371.18 431.86 371.18 431.91 371.15 431.93 371.12 431.91 371.02 431.91 371 431.93 370.95 431.93 370.77 431.95 370.72 431.98 370.7 432.03 370.66 432.01 370.65 431.96 370.64 431.93 370.63 431.9 370.54 431.86 370.52 431.84 370.5 431.86 370.48 431.91 370.47 431.93 370.46 431.95 370.44 431.96 370.42 431.97 370.39 431.99 370.37 432.06 370.36 432.06 370.33 432.03 370.29 432.01 370.26 432.03 370.2 432.04 370.14 432.04 370.12 432.07 370.1 432.1 370.08 432.11 370.05 432.1 370.01 432.02 369.96 431.99 369.92 431.98 369.88 431.98 369.86 432 369.84 432.02 369.83 432.03 369.81 432.05 369.79 432.05 369.77 432.06 369.72 432.07 369.65 432.06 369.63 432.05 369.6 432.01 369.56 432 369.55 431.98 369.53 431.98 369.51 431.99 369.47 432 369.45 431.99 369.42 431.97 369.38 431.9 369.2 431.9 369.17 431.93 369.13 431.94 369.03 431.95 368.98 431.98 368.93 432.02 368.88 432.05 368.84 432.04 368.77 432.02 368.71 432.02 368.66 432.03 368.61 432.12 368.41 432.14 368.34 432.12 368.27 432.07 368.17 432.04 368.14 431.95 368.08 431.9 368.01 431.83 367.97 431.74 367.93 431.68 367.91 431.64 367.92 431.61 367.93 431.58 367.95 431.54 367.94 431.5 367.92 431.46 367.92 431.42 367.93 431.39 367.95 431.38 367.87 431.37 367.78 431.34 367.69 431.3 367.62 431.24 367.56 431.16 367.52 431.07 367.51 430.99 367.53 430.98 367.51 430.96 367.49 430.94 367.48 430.86 367.48 430.84 367.48 430.83 367.5 430.83 367.51 430.82 367.52 430.79 367.53 430.77 367.54 430.76 367.53 430.66 367.4 430.66 367.34 430.68 367.29 430.79 367.15 430.81 367.12 430.84 367.1 430.86 367.07 430.86 367.05 430.84 367.02 430.84 366.99 430.85 366.97 430.88 366.93 430.88 366.9 430.87 366.88 430.84 366.87 430.81 366.87 430.8 366.86 430.79 366.7 430.78 366.64 430.76 366.58 430.75 366.52 430.76 366.47 430.83 366.36 430.91 366.18 430.96 366.13 431.12 366.04 431.16 365.99 431.17 365.95 431.16 365.9 431.13 365.86 431.2 365.77 431.31 365.75 431.44 365.76 431.55 365.76 431.58 365.75 431.59 365.74 431.6 365.73 431.76 365.59 431.78 365.54 431.78 365.43 431.85 365.33 431.95 365.25 432.03 365.16 432.01 365.05 432 365.03 432.02 365.01 432.05 364.99 432.07 364.97 432.07 364.94 432.05 364.92 432 364.9 431.96 364.86 431.92 364.82 431.89 364.77 431.87 364.72 431.83 364.6 431.8 364.56 431.7 364.51 431.66 364.46 431.64 364.41 431.64 364.24 431.64 364.19 431.61 364.05 431.59 364.02 431.57 364 431.54 363.99 431.52 363.98 431.52 363.97 431.52 363.96 431.49 363.95 431.47 363.94 431.46 363.93 431.44 363.91 431.35 363.89 431.31 363.88 431.27 363.9 431.19 363.93 431.14 363.92 431.11 363.9 431.08 363.87 431.04 363.84 431 363.83 430.58 363.8 430.55 363.8 430.55 363.81 430.52 363.87 430.5 363.92 430.49 363.93 430.47 363.94 430.46 363.93 430.43 363.92 430.42 363.92 430.41 363.93 430.38 363.95 430.37 363.95 430.33 363.96 430.31 363.96 430.28 363.96 430.24 363.96 430.21 363.99 430.18 364.01 430.1 364.04 430.05 364.11 430.02 364.13 429.95 364.14 429.88 364.14 429.81 364.13 429.73 364.1 429.7 364.1 429.65 364.1 429.61 364.12 429.59 364.13 429.58 364.17 429.54 364.18 429.5 364.19 429.46 364.24 429.42 364.25 429.37 364.26 429.3 364.26 429.25 364.26 429.23 364.26 429.23 364.26 429.22 364.23 429.2 364.22 429.17 364.21 429.15 364.19 429.19 364.18 429.21 364.16 429.22 364.12 429.23 364.11 429.27 364.11 429.3 364.09 429.33 364.07 429.36 364.03 429.37 364.02 429.37 364.01 429.36 363.98 429.35 363.97 429.35 363.95 429.35 363.93 429.35 363.83 429.35 363.81 429.31 363.79 429.27 363.68 429.23 363.66 429.24 363.63 429.24 363.6 429.22 363.57 429.2 363.55 429.18 363.57 429.14 363.51 429.1 363.45 429.14 363.4 429.15 363.35 429.14 363.25 429.14 363.2 429.16 363.16 429.17 363.12 429.15 363.09 429.18 363.07 429.2 363.04 429.22 363.01 429.24 362.93 429.24 362.89 429.23 362.87 429.22 362.85 429.2 362.81 429.18 362.77 429.19 362.76 429.21 362.75 429.23 362.72 429.24 362.69 429.26 362.68 429.27 362.66 429.28 362.65 429.29 362.62 429.27 362.58 429.28 362.56 429.3 362.56 429.31 362.55 429.35 362.5 429.36 362.49 429.44 362.45 429.46 362.4 429.47 362.33 429.47 362.2 429.85 362.2 430.19 362.2 430.28 362.2 430.64 362.21 431.04 362.21 431.39 362.21 431.63 362.21 431.65 362.21 431.74 362.17 431.88 362.19 431.92 362.21 431.96 362.25 431.99 362.26 432.01 362.25 432.05 362.23 432.23 362.19 432.25 362.18 432.25 362.16 432.25 362.14 432.25 362.12 432.27 362.1 432.28 362.09 432.34 362.11 432.41 362.19 432.46 362.21 432.44 362.25 432.47 362.26 432.52 362.25 432.55 362.27 432.6 362.32 432.63 362.33 432.62 362.28 432.63 362.27 432.69 362.3 432.66 362.33 432.65 362.33 432.67 362.34 432.69 362.34 432.71 362.33 432.72 362.33 432.72 362.35 432.72 362.4 432.73 362.41 432.87 362.39 432.9 362.38 432.91 362.36 432.92 362.34 432.92 362.31 432.93 362.29 432.97 362.33 432.99 362.37 433 362.39 433.04 362.42 433.02 362.48 433.01 362.54 433.1 362.54 433.15 362.54 433.17 362.53 433.19 362.47 433.21 362.48 433.31 362.56 433.35 362.57 433.39 362.56 433.42 362.6 433.45 362.58 433.49 362.55 433.51 362.51 433.52 362.51 433.56 362.52 433.59 362.46 433.66 362.49 433.69 362.47 433.72 362.46 433.77 362.48 433.78 362.49 433.79 362.53 433.8 362.54 433.81 362.55 433.89 362.58 433.9 362.59 433.92 362.61 433.92 362.62 433.92 362.65 433.92 362.67 433.92 362.67 433.94 362.69 433.95 362.69 434 362.72 434 362.72 434.02 362.72 434.07 362.7 434.11 362.68 434.22 362.62 434.32 362.6 434.42 362.62 434.61 362.68 434.82 362.7 434.83 362.71 434.85 362.72 434.88 362.73 434.93 362.74 434.95 362.75 435.03 362.86 435.06 362.87 435.12 362.89 435.17 362.93 435.19 362.94 435.21 362.95 435.21 362.99 435.22 363 435.25 363 435.28 362.99 435.3 362.98 435.31 363.01 435.34 363.03 435.39 363.04 435.42 363.05 435.45 363.04 435.47 363.04 435.5 363.05 435.52 363.07 435.53 363.1 435.52 363.12 435.52 363.14 435.52 363.16 435.53 363.2 435.62 363.31 435.72 363.17 435.74 363.16 435.79 363.18 435.81 363.17 435.82 363.13 435.77 362.89 435.69 362.7 435.65 362.63 435.63 362.61 435.62 362.61 435.61 362.6 435.61 362.51 435.61 362.49 435.65 362.45 435.65 362.43 435.64 362.41 435.64 362.39 435.64 362.39 435.63 362.38 435.63 362.37 435.64 362.36 435.64 362.35 435.65 362.35 435.66 362.35 435.67 362.35 435.67 362.31 435.67 362.29 435.66 362.27 435.65 362.25 435.66 362.22 435.68 362.17 435.7 362.12 435.73 362.1 435.78 362.11 435.82 362.15 435.91 362.08 435.93 362.06 435.92 362.04 435.9 362.03 436.02 361.79 436.12 361.58 436.19 361.43 436.29 361.21 436.38 361.01 436.41 360.95 436.47 360.84 436.53 360.71 436.54 360.65 436.52 360.61 436.49 360.58 436.46 360.54 436.45 360.44 436.54 360.28 436.55 360.2 436.54 360.15 436.51 360.1 436.5 360.06 436.5 360 436.52 359.95 436.6 359.85 436.61 359.8 436.61 359.74 436.67 359.61 436.69 359.42 436.73 359.32 436.79 359.24 436.88 359.18 436.99 359.15 437.04 359.15 437.08 359.15 437.27 359.2 437.31 359.19 437.36 359.17 437.36 359.15 437.35 359.13 437.36 359.11 437.39 359.11 437.41 359.11 437.45 359.13 437.47 359.13 437.53 359.13 437.56 359.13 437.58 359.14 437.6 359.16 437.61 359.17 437.64 359.16 437.66 359.16 437.69 359.16 437.7 359.16 437.72 359.15 437.75 359.13 437.76 359.12 437.8 359.1 437.82 359.1 437.88 359.1 437.91 359.1 437.97 359.07 438 359.07 438.09 359.07 438.12 359.06 438.16 359.05 438.18 359.03 438.2 359 438.23 358.98 438.26 358.97 438.29 358.97 438.34 358.99 438.42 358.98 438.47 358.94 438.52 358.88 438.6 358.84 438.63 358.83 438.66 358.8 438.7 358.79 438.75 358.79 438.76 358.8 438.77 358.83 438.78 358.84 438.81 358.84 438.82 358.85 438.9 358.92 438.98 358.95 439.07 358.97 439.26 358.97 439.27 358.96 439.29 358.95 439.31 358.95 439.32 358.96 439.35 358.98 439.36 358.99 439.38 358.99 439.42 358.98 439.44 358.99 439.48 359.01 439.5 359.04 439.52 359.08 439.54 359.12 439.55 359.16 439.58 359.16 439.62 359.15 439.71 359.11 439.72 359.1 439.73 359.1 439.81 359.15 439.83 359.16 439.86 359.16 439.93 359.13 440 359.11 440.08 359.1 440.16 359.13 440.2 359.17 440.23 359.26 440.25 359.29 440.3 359.29 440.35 359.27 440.39 359.24 440.41 359.2 440.42 359.18 440.44 359.11 440.45 359.08 440.47 359.07 440.49 359.08 440.51 359.08 440.69 359.06 440.7 359.07 440.73 359.08 440.74 359.08 440.75 359.07 440.76 359.04 440.77 359.03 440.79 359.03 440.83 359.03 440.85 359.02 440.89 358.98 440.92 358.95 440.95 358.95 441 359 441.04 359.04 441.13 359.19 441.16 359.27 441.19 359.29 441.29 359.3 Z" id="Republic of Congo" transform="translate(-424.6400146484375,-358.7900085449219) "/></svg>