<svg xmlns="http://www.w3.org/2000/svg" viewBox="0 0 20.959991455078125 14.699981689453125"><path d="M 463.35 259.55 463.03 259.57 462.56 259.49 462.1 259.28 462.02 259.22 461.92 258.87 461.87 258.78 461.87 258.78 461.75 258.8 461.6 258.88 461.45 258.92 461.36 258.8 461.35 258.78 461.3 258.69 461.25 258.67 461.12 258.71 460.7 258.72 460.68 258.7 460.63 258.62 460.61 258.6 460.48 258.54 460.44 258.49 460.45 258.42 460.41 258.39 460.41 258.39 460.35 258.39 460.31 258.36 460.07 258.32 459.91 258.22 459.85 258.25 459.59 258.28 459.38 258.41 459.3 258.43 459.2 258.43 459.18 258.44 459.13 258.46 459.11 258.47 459.07 258.48 458.99 258.5 458.56 258.57 458.37 258.59 458.32 258.6 458.15 258.68 457.97 258.72 457.89 258.77 457.81 258.86 457.77 258.92 457.75 258.96 457.49 259.16 457.47 259.2 457.45 259.24 457.34 259.37 457.28 259.41 457.2 259.49 457.2 259.5 457.15 259.58 457.06 259.62 457.04 259.62 456.9 259.63 456.87 259.66 456.83 259.69 456.78 259.72 456.73 259.74 456.69 259.75 456.65 259.77 456.6 259.78 456.5 259.77 456.49 259.77 456.45 259.78 456.36 259.82 456.31 259.83 456.21 259.82 456.13 259.77 456.06 259.71 456.05 259.71 455.98 259.67 455.89 259.64 455.6 259.62 455.34 259.53 454.87 259.56 454.76 259.55 454.67 259.51 454.31 259.38 454.23 259.37 454.16 259.39 454.03 259.49 453.99 259.5 453.95 259.5 453.55 259.52 453.53 259.51 452.76 259.32 452.63 259.24 452.58 259.23 452.39 259.28 452.36 259.27 452.3 259.26 452.06 259.13 451.7 259.11 451.5 259.14 451.42 259.18 451.34 259.2 451.28 259.23 451.1 259.24 450.81 259.27 450.74 259.25 450.68 259.21 450.65 259.15 450.65 259.08 450.71 258.85 450.73 258.78 450.77 258.75 450.82 258.74 450.91 258.71 450.96 258.71 451.03 258.66 451.07 258.57 451.05 258.48 451 258.45 450.96 258.43 450.86 258.42 450.78 258.38 450.3 258.06 450.3 258.06 450.29 258.01 450.3 257.86 450.28 257.82 450.24 257.8 450.14 257.79 450.06 257.75 449.98 257.69 449.93 257.61 449.89 257.52 449.88 257.49 449.89 257.45 449.89 257.42 449.88 257.4 449.83 257.36 449.82 257.33 449.82 257.29 449.83 257.25 449.84 257.22 449.86 257.21 449.88 257.2 449.95 257.2 449.98 257.18 450 257.15 450.01 257.1 450.02 257.05 450.05 257.02 450.1 257 450.14 257.01 450.19 257.03 450.27 257.08 450.32 257.09 450.36 257.08 450.41 257.06 450.45 257.02 450.46 256.96 450.35 256.84 450.32 256.82 450.14 256.79 450.07 256.76 449.99 256.7 449.84 256.53 449.81 256.51 449.77 256.5 449.71 256.5 449.69 256.51 449.61 256.6 449.57 256.63 449.48 256.65 449.44 256.67 449.43 256.72 449.18 257.17 449.15 257.2 449.1 257.22 449.05 257.21 449 257.19 448.96 257.15 448.94 257.06 448.92 257.04 448.89 257.03 448.87 257.01 448.85 256.98 448.85 256.94 448.84 256.92 448.84 256.9 448.78 256.75 448.75 256.73 448.68 256.72 448.48 256.61 448.45 256.61 448.41 256.62 448.33 256.65 448.23 256.67 448.11 256.67 448 256.64 447.92 256.56 447.9 256.5 447.89 256.45 447.87 256.4 447.83 256.36 447.79 256.35 447.65 256.36 447.46 256.34 447.43 256.32 447.39 256.24 447.35 256.21 447.35 256.21 447.31 256.19 447.32 256.15 447.34 256.11 447.37 256.09 447.43 256.07 447.56 256.07 447.62 256.06 447.71 256.04 447.74 256.01 447.75 255.95 447.73 255.9 447.69 255.87 447.62 255.84 447.56 255.81 447.46 255.8 447.4 255.76 447.4 255.74 447.41 255.72 447.4 255.71 447.36 255.71 447.33 255.7 447.33 255.67 447.34 255.64 447.36 255.61 447.38 255.6 447.43 255.6 447.46 255.59 447.49 255.57 447.49 255.55 447.49 255.53 447.5 255.49 447.51 255.47 447.53 255.45 447.53 255.44 447.54 255.42 447.54 255.4 447.53 255.38 447.53 255.38 447.55 255.35 447.57 255.33 447.59 255.32 447.62 255.32 447.65 255.29 447.65 255.25 447.64 255.21 447.62 255.19 447.57 255.12 447.51 255.08 447.45 255.04 447.21 254.97 447.12 254.96 447.08 254.95 447.01 254.9 446.97 254.85 446.9 254.74 446.86 254.72 446.84 254.72 446.8 254.76 446.78 254.77 446.75 254.76 446.73 254.75 446.71 254.73 446.69 254.71 446.59 254.66 446.51 254.62 446.48 254.6 446.39 254.48 446.25 254.35 446.17 254.25 446.14 254.21 446.11 254.2 446.07 254.18 446.03 254.16 446.02 254.12 446.07 254.08 446.1 254.05 446.11 254 446.08 253.93 446.01 253.82 446.01 253.76 446.02 253.69 446.05 253.63 446.06 253.6 446.06 253.56 446.06 253.39 446.07 253.36 446.07 253.33 446.08 253.3 446.06 253.27 446.03 253.26 446 253.27 445.99 253.29 445.97 253.33 445.94 253.35 445.91 253.36 445.89 253.35 445.86 253.33 445.84 253.29 445.79 253.22 445.77 253.19 445.76 253.17 445.76 253.16 445.75 253.09 445.74 253.06 445.73 253.04 445.69 253.02 445.68 253 445.6 252.87 445.57 252.84 445.53 252.82 445.44 252.81 445.4 252.79 445.28 252.68 445.24 252.66 445.16 252.62 445.12 252.59 445.08 252.54 445.04 252.39 445.01 252.35 444.87 252.17 444.96 252.06 445.32 252.05 445.37 251.96 445.46 251.98 445.55 252.02 445.61 252.08 445.64 252.09 445.66 252.1 445.68 252.1 445.81 252.08 445.85 252.05 445.88 252.02 445.89 251.99 445.89 251.98 445.9 251.94 445.91 251.92 445.92 251.91 445.95 251.92 445.97 251.92 445.98 251.9 445.98 251.88 445.96 251.81 445.96 251.78 445.97 251.76 446.06 251.69 446.08 251.68 446.1 251.66 446.15 251.65 446.19 251.65 446.22 251.66 446.26 251.7 446.27 251.7 446.3 251.7 446.33 251.68 446.34 251.68 446.38 251.69 446.47 251.72 446.51 251.72 446.53 251.71 446.55 251.71 446.57 251.72 446.58 251.74 446.62 251.78 446.66 251.76 446.77 251.63 446.78 251.63 446.85 251.63 446.87 251.61 446.9 251.56 446.91 251.5 446.92 251.36 446.95 251.29 446.98 251.25 447.03 251.23 447.12 251.23 447.17 251.19 447.16 251.12 447.09 250.99 447.1 250.93 447.13 250.88 447.17 250.83 447.2 250.77 447.2 250.65 447.22 250.58 447.25 250.54 447.3 250.53 447.38 250.54 447.43 250.51 447.47 250.45 447.49 250.41 447.49 250.4 447.52 250.36 447.58 250.35 447.62 250.32 447.66 250.26 447.67 250.2 447.61 250.16 447.6 250.15 447.6 250.15 447.59 250.14 447.59 250.12 447.6 250.1 447.61 250.08 447.62 250.07 447.66 249.94 447.69 249.88 447.74 249.84 447.82 249.82 447.84 249.8 447.86 249.76 447.86 249.72 447.85 249.69 447.85 249.65 447.85 249.61 447.86 249.6 447.87 249.6 447.97 249.51 447.99 249.49 448.03 249.33 448.04 249.33 448.04 249.32 448.02 249.29 448 249.27 447.98 249.27 447.96 249.26 447.96 249.24 447.95 249.23 448.04 249.13 448.09 249.08 448.2 249.01 448.24 248.97 448.26 248.94 448.27 248.88 448.28 248.85 448.3 248.82 448.35 248.77 448.37 248.75 448.38 248.71 448.38 248.68 448.38 248.65 448.38 248.61 448.38 248.57 448.41 248.53 448.42 248.5 448.45 248.38 448.46 248.34 448.55 248.22 448.59 248.17 448.63 248.15 448.73 248.12 448.77 248.03 448.77 247.92 448.75 247.8 448.74 247.7 448.78 247.62 448.85 247.55 448.99 247.45 449.1 247.42 449.11 247.41 449.13 247.4 449.14 247.37 449.14 247.37 449.14 247.35 449.14 247.32 449.15 247.3 449.2 247.22 449.21 247.2 449.22 247.14 449.23 247.11 449.24 247.09 449.28 247.06 449.3 247.05 449.35 246.97 449.37 246.95 449.41 246.92 449.45 246.91 449.48 246.91 449.58 246.92 449.61 246.92 449.64 246.91 449.67 246.88 449.71 246.75 449.77 246.74 449.94 246.82 450.01 246.84 450.1 246.82 450.18 246.79 450.25 246.73 450.3 246.66 450.33 246.64 450.37 246.62 450.42 246.61 450.43 246.61 450.45 246.57 450.45 246.54 450.44 246.52 450.44 246.49 450.46 246.45 450.49 246.43 450.58 246.39 450.62 246.36 450.68 246.26 450.71 246.21 450.76 246.2 450.8 246.17 450.82 246.13 450.8 246.06 450.82 246.02 450.85 246.02 450.89 246.04 450.92 246.06 450.96 246.08 450.99 246.09 451.03 246.09 451.12 246.01 451.15 245.96 451.2 245.8 451.25 245.73 451.29 245.71 451.34 245.72 451.5 245.77 451.53 245.8 451.63 245.91 451.73 246 451.78 246.06 451.8 246.07 451.81 246.07 451.83 246.07 451.85 246.06 451.85 246.06 451.85 246.06 451.86 246.06 451.86 246.06 452 246.13 452.05 246.13 452.06 246.12 452.07 246.12 452.08 246.1 452.09 246.08 452.1 246.06 452.12 246.04 452.15 246.03 452.23 246.02 452.27 246.03 452.42 246.05 452.51 246.08 452.56 246.09 452.71 246.08 452.75 246.1 452.86 246.2 452.88 246.25 452.93 246.25 453.15 246.16 453.22 246.17 453.26 246.19 453.37 246.22 453.41 246.24 453.49 246.32 453.53 246.33 453.53 246.32 453.66 246.37 453.71 246.38 453.86 246.3 453.97 246.3 454.06 246.22 454.11 246.2 454.15 246.19 454.28 246.22 454.4 246.22 454.45 246.23 454.46 246.24 454.55 246.29 454.6 246.34 454.64 246.38 454.65 246.44 454.66 246.48 454.67 246.52 454.71 246.56 454.78 246.61 454.96 246.68 454.99 246.71 455.02 246.75 455.09 246.88 455.15 246.96 455.19 246.99 455.26 246.98 455.29 246.97 455.46 246.94 455.59 246.88 455.59 246.88 455.59 246.88 455.69 246.79 455.9 246.44 456 246.37 457.08 246.25 457.23 246.19 457.35 246.18 457.41 246.15 457.45 246.14 457.56 246.15 457.7 246.11 457.86 246.11 457.91 246.11 458.02 246.06 458.04 246.03 458.09 245.91 458.11 245.88 458.17 245.83 458.2 245.8 458.23 245.73 458.27 245.62 458.29 245.52 458.29 245.45 458.31 245.34 458.32 245.34 458.37 245.35 458.4 245.34 458.48 245.3 458.51 245.29 458.62 245.28 458.66 245.27 458.94 245.21 459 245.18 459.11 245.13 459.16 245.13 459.21 245.17 459.23 245.18 459.26 245.14 459.28 245.19 459.33 245.2 459.42 245.18 459.46 245.2 459.51 245.27 459.53 245.25 459.62 245.35 459.64 245.37 459.65 245.43 459.67 245.42 459.69 245.38 459.71 245.36 459.74 245.38 459.75 245.42 459.77 245.46 459.84 245.49 459.84 245.51 459.82 245.54 459.78 245.54 459.78 245.56 459.84 245.6 459.88 245.61 459.91 245.59 459.92 245.6 459.94 245.62 459.96 245.63 459.96 245.64 459.96 245.65 459.93 245.68 459.93 245.7 459.94 245.78 459.98 245.85 460.03 245.89 460.09 245.93 460.09 245.95 460.05 245.97 460.05 245.99 460.05 246 460.06 246.01 460.06 246.02 460.12 245.99 460.15 246.04 460.17 246.08 460.2 246.06 460.22 246.09 460.23 246.12 460.21 246.15 460.18 246.18 460.23 246.21 460.25 246.22 460.25 246.23 460.25 246.24 460.21 246.3 460.23 246.33 460.28 246.35 460.32 246.4 460.32 246.42 460.32 246.52 460.32 246.54 460.34 246.56 460.37 246.56 460.39 246.58 460.41 246.6 460.34 246.65 460.36 246.67 460.39 246.72 460.42 246.77 460.43 246.8 460.44 246.81 460.48 246.84 460.49 246.85 460.49 246.86 460.5 246.89 460.49 246.92 460.5 246.94 460.5 246.96 460.45 246.98 460.47 247.05 460.52 247.13 460.67 247.33 460.73 247.39 460.8 247.41 460.8 247.42 460.81 247.44 460.82 247.48 460.82 247.5 460.83 247.52 460.83 247.55 460.83 247.56 460.84 247.57 460.86 247.57 460.87 247.57 460.88 247.66 460.9 247.71 460.92 247.73 460.94 247.73 460.95 247.74 460.96 247.75 460.97 247.75 461.03 247.75 461.03 247.75 461.07 247.76 461.1 247.78 461.13 247.81 461.14 247.84 461.12 247.86 461.11 247.88 461.1 247.91 461.1 247.95 461.14 247.99 461.12 248.09 461.15 248.11 461.16 248.11 461.18 248.13 461.23 248.26 461.26 248.31 461.28 248.32 461.34 248.33 461.36 248.35 461.38 248.36 461.4 248.37 461.45 248.39 461.48 248.41 461.52 248.49 461.52 248.53 461.54 248.57 461.6 248.64 461.62 248.73 461.63 248.73 461.63 248.76 461.64 248.78 461.64 248.79 461.61 248.8 461.64 248.84 461.73 248.89 461.73 248.91 461.72 248.94 461.73 248.95 461.75 248.95 461.77 248.97 461.84 249.04 461.9 249.08 461.93 249.11 461.93 249.16 461.98 249.17 462.04 249.2 462.09 249.22 462.13 249.2 462.15 249.25 462.15 249.26 462.22 249.34 462.25 249.4 462.29 249.52 462.3 249.57 462.3 249.57 462.28 249.62 462.32 249.65 462.32 249.68 462.32 249.72 462.34 249.75 462.34 249.78 462.34 249.82 462.34 249.84 462.37 249.93 462.46 250.09 462.46 250.15 462.59 250.4 462.61 250.48 462.61 250.5 462.62 250.53 462.61 250.57 462.6 250.61 462.58 250.65 462.57 250.7 462.59 250.75 462.56 250.76 462.56 250.79 462.55 250.91 462.56 250.93 462.59 250.99 462.59 251 462.6 250.99 462.61 251 462.61 251.02 462.61 251.12 462.61 251.15 462.6 251.17 462.57 251.19 462.58 251.23 462.57 251.25 462.57 251.25 462.55 251.26 462.54 251.28 462.53 251.37 462.52 251.39 462.49 251.4 462.48 251.42 462.49 251.48 462.49 251.52 462.49 251.53 462.46 251.6 462.43 251.63 462.41 251.64 462.39 251.65 462.37 251.66 462.36 251.68 462.36 251.73 462.36 251.75 462.33 251.76 462.31 251.77 462.31 251.8 462.35 251.86 462.37 251.88 462.38 251.9 462.39 251.93 462.36 252.01 462.35 252.08 462.31 252.19 462.31 252.21 462.29 252.25 462.27 252.27 462.27 252.28 462.27 252.3 462.28 252.31 462.28 252.33 462.25 252.44 462.25 252.47 462.26 252.51 462.31 252.67 462.32 252.71 462.32 252.73 462.33 252.75 462.34 252.77 462.34 252.8 462.33 252.82 462.33 252.85 462.33 252.87 462.35 252.91 462.36 252.92 462.35 252.94 462.32 252.96 462.31 252.98 462.32 253.07 462.35 253.17 462.39 253.24 462.41 253.27 462.43 253.59 462.43 253.64 462.44 253.68 462.41 253.7 462.33 253.7 462.31 253.71 462.27 253.73 462.23 253.77 462.2 253.8 462.33 253.87 462.38 253.91 462.42 253.98 462.42 253.99 462.43 254 462.43 254.01 462.43 254.11 462.45 254.15 462.51 254.22 462.54 254.25 462.54 254.25 462.59 254.25 462.66 254.29 462.7 254.34 462.69 254.41 462.76 254.58 462.8 254.65 462.85 254.69 462.89 254.7 462.96 254.74 463.16 254.79 463.35 254.89 463.64 254.96 463.72 254.95 463.79 254.94 463.82 254.93 463.85 254.9 463.78 254.87 463.77 254.86 463.76 254.84 463.75 254.81 463.75 254.78 463.82 254.75 463.81 254.7 463.82 254.66 463.88 254.64 463.91 254.66 463.97 254.7 464.02 254.71 464.05 254.73 464.08 254.77 464.13 254.79 464.18 254.77 464.19 254.75 464.2 254.69 464.21 254.66 464.23 254.65 464.24 254.65 464.29 254.64 464.32 254.63 464.44 254.54 464.53 254.51 464.57 254.49 464.6 254.46 464.62 254.45 464.67 254.45 464.68 254.44 464.69 254.42 464.71 254.39 464.74 254.36 464.79 254.34 464.83 254.34 464.86 254.34 464.91 254.34 464.93 254.34 464.95 254.32 464.96 254.31 464.98 254.29 465 254.27 465.02 254.28 465.05 254.29 465.07 254.3 465.24 254.32 465.55 254.43 465.65 254.52 465.68 254.54 465.72 254.58 465.76 254.69 465.77 254.81 465.74 254.9 465.76 254.92 465.76 254.94 465.76 254.97 465.74 254.99 465.74 254.99 465.72 254.99 465.67 254.99 465.67 255.01 465.7 255.05 465.72 255.11 465.76 255.15 465.83 255.16 465.78 255.21 465.76 255.3 465.74 255.58 465.73 255.63 465.7 255.72 465.69 255.76 465.69 255.81 465.68 255.86 465.67 255.89 465.68 255.95 465.62 256.04 465.65 256.1 465.64 256.14 465.62 256.15 465.6 256.15 465.58 256.16 465.55 256.21 465.53 256.23 465.48 256.2 465.46 256.21 465.44 256.22 465.42 256.23 464.98 256.29 464.71 256.31 464.63 256.34 464.41 256.49 464.34 256.56 464.29 256.64 464.27 256.61 464.27 256.57 464.24 256.51 464.23 256.46 464.28 256.44 464.33 256.43 464.41 256.39 464.5 256.37 464.55 256.33 464.59 256.28 464.6 256.21 464.59 256.17 464.56 256.13 464.5 256.06 464.51 256.11 464.51 256.13 464.51 256.16 464.48 256.16 464.45 256.18 464.42 256.19 464.39 256.14 464.38 256.09 464.38 255.9 464.4 255.84 464.5 255.8 464.53 255.76 464.51 255.73 464.41 255.66 464.38 255.65 464.32 255.65 464.25 255.63 464.22 255.63 464.22 255.65 464.21 255.68 464.2 255.7 464.17 255.72 464.12 255.72 464.1 255.73 464.02 255.81 463.99 255.84 463.98 255.91 463.98 255.93 464 255.94 464.01 255.96 464.01 255.98 464 255.99 463.99 255.99 463.98 256 463.99 256.03 464 256.06 464.02 256.07 464.07 256.09 464.18 256.21 464.15 256.24 464.14 256.25 464.12 256.25 464.14 256.27 464.15 256.27 464.15 256.29 464.12 256.31 464.12 256.34 464.13 256.37 464.16 256.4 464.14 256.41 464.11 256.42 464.02 256.42 463.99 256.43 463.86 256.52 463.84 256.54 463.82 256.58 463.81 256.62 463.83 256.64 463.86 256.61 463.85 256.65 463.81 256.66 463.8 256.71 463.8 256.76 463.82 256.77 463.94 256.75 463.99 256.72 464.04 256.67 464.09 256.61 464.06 256.55 464.21 256.6 464.25 256.62 464.26 256.68 464.24 256.74 464.2 256.79 464.15 256.8 464.19 256.75 464.22 256.69 464.23 256.64 464.18 256.61 464.18 256.64 464.19 256.66 464.19 256.67 464.15 256.68 464.12 256.66 464.1 256.65 464.09 256.66 464.08 256.68 464.07 256.7 464.03 256.73 463.96 256.8 463.92 256.83 463.81 256.88 463.78 256.91 463.82 256.84 463.83 256.8 463.8 256.8 463.77 256.81 463.75 256.83 463.74 256.87 463.77 256.87 463.75 256.9 463.76 256.92 463.78 256.94 463.81 256.95 463.72 256.98 463.69 257.01 463.69 257.06 463.7 257.04 463.72 257.03 463.72 257.02 463.75 257.03 463.78 257.06 463.76 257.1 463.74 257.18 463.72 257.26 463.73 257.32 463.75 257.33 463.77 257.31 463.78 257.27 463.79 257.2 463.81 257.17 463.86 257.14 463.92 257.05 463.96 257.01 464 256.99 464.04 256.98 464.08 256.95 464.09 256.91 464.12 256.85 464.1 256.91 464.08 256.96 463.94 257.24 463.83 257.32 463.63 257.59 463.61 257.66 463.6 257.7 463.57 257.67 463.54 257.69 463.51 257.72 463.49 257.75 463.47 257.79 463.47 257.83 463.47 257.95 463.47 257.99 463.51 258.05 463.54 258.15 463.55 258.2 463.54 258.22 463.56 258.24 463.53 258.23 463.5 258.23 463.48 258.26 463.47 258.29 463.48 258.34 463.52 258.59 463.55 258.75 463.56 258.77 463.55 258.8 463.53 258.82 463.52 258.88 463.49 258.97 463.48 259.01 463.43 259.12 463.42 259.15 463.38 259.32 463.37 259.34 463.36 259.37 463.37 259.4 463.36 259.43 463.36 259.46 463.36 259.49 463.36 259.52 463.35 259.55 Z" id="Romania" transform="translate(-444.8699951171875,-245.1300048828125) "/></svg>