<svg xmlns="http://www.w3.org/2000/svg" viewBox="0 0 4.5 3.899993896484375"><path d="M 467.55 369.3 467.53 369.32 467.51 369.34 467.5 369.37 467.51 369.39 467.54 369.41 467.55 369.44 467.55 369.46 467.54 369.47 467.53 369.48 467.54 369.5 467.56 369.51 467.57 369.51 467.59 369.5 467.6 369.5 467.62 369.51 467.63 369.53 467.64 369.59 467.66 369.62 467.7 369.68 467.71 369.73 467.73 369.76 467.73 369.77 467.73 369.78 467.73 369.79 467.72 369.8 467.72 369.82 467.73 369.85 467.76 369.88 467.82 369.9 467.85 369.92 467.88 369.95 467.9 369.96 468.05 370.02 468.09 370.02 468.13 370.05 468.15 370.11 468.14 370.16 468.14 370.19 468.12 370.2 468.14 370.23 468.17 370.28 468.2 370.31 468.21 370.33 468.23 370.4 468.25 370.45 468.29 370.48 468.34 370.46 468.36 370.51 468.36 370.56 468.33 370.74 468.33 370.76 468.33 370.77 468.35 370.8 468.36 370.82 468.33 370.88 468.34 370.91 468.36 371 468.35 371.03 468.32 371.07 468.31 371.1 468.33 371.14 468.29 371.17 468.28 371.18 468.27 371.2 468.33 371.21 468.34 371.27 468.31 371.4 468.35 371.39 468.39 371.41 468.43 371.44 468.45 371.47 468.47 371.54 468.39 371.78 468.37 371.88 468.38 372.03 468.37 372.07 468.35 372.12 468.32 372.14 468.28 372.15 468.25 372.17 468.22 372.18 468.2 372.19 468.18 372.19 468.16 372.19 468.05 372.13 468.02 372.13 468 372.13 467.97 372.15 467.94 372.21 467.91 372.23 467.87 372.23 467.82 372.22 467.77 372.21 467.73 372.24 467.66 372.23 467.58 372.2 467.46 372.1 467.45 372.08 467.44 372.05 467.43 372.04 467.42 372.04 467.35 372.03 467.34 372.02 467.3 372.03 467.28 372.05 467.27 372.06 467.26 372.08 467.23 372.1 467.2 372.12 467.16 372.13 467.12 372.14 467.08 372.14 467.05 372.14 466.99 372.1 466.96 372.1 466.95 372.12 466.95 372.14 466.95 372.15 466.85 372.28 466.81 372.3 466.76 372.31 466.71 372.29 466.66 372.26 466.63 372.22 466.56 372.14 466.53 372.12 466.5 372.11 466.48 372.11 466.46 372.11 466.45 372.11 466.41 372.08 466.4 372.08 466.39 372.06 466.37 372.05 466.35 372.05 466.34 372.07 466.34 372.09 466.33 372.2 466.34 372.37 466.3 372.53 466.29 372.76 466.29 372.78 466.27 372.83 466.25 372.88 466.23 372.93 466.2 372.97 466.15 373.01 466.11 373.04 466.06 373.05 466.01 373.04 465.96 373.03 465.93 373.03 465.92 373.05 465.91 373.1 465.9 373.12 465.88 373.13 465.83 373.14 465.79 373.13 465.7 373.1 465.67 373.09 465.66 373.09 465.59 373.11 465.57 373.12 465.56 373.13 465.53 373.13 465.48 373.14 465.44 373.16 465.4 373.18 465.35 373.15 465.27 373.13 465.23 373.12 465.19 373.13 465.09 373.17 465.04 373.18 465.02 373.13 465.01 373.11 464.99 373.06 464.99 373.03 465 373.01 465.03 372.97 465.03 372.95 465.02 372.92 464.97 372.88 464.97 372.87 464.96 372.85 464.96 372.82 464.96 372.81 464.94 372.79 464.9 372.77 464.85 372.75 464.76 372.74 464.71 372.73 464.57 372.67 464.53 372.66 464.41 372.67 464.36 372.72 464.32 372.94 464.28 372.9 464.24 372.88 464.17 372.88 464.14 372.86 464.06 372.81 464.04 372.79 464.06 372.62 464.04 372.57 464.02 372.55 463.99 372.54 463.98 372.52 463.97 372.5 463.97 372.47 464.01 372.43 464.01 372.41 463.98 372.37 463.97 372.32 463.97 372.28 463.99 372.22 464.02 372.19 464.08 372.17 464.12 372.16 464.16 372.13 464.19 372.1 464.22 372.06 464.24 372.03 464.24 372.01 464.25 371.99 464.27 371.97 464.29 371.96 464.35 371.96 464.45 371.94 464.53 371.88 464.58 371.79 464.62 371.69 464.63 371.59 464.63 371.51 464.57 371.17 464.56 371.09 464.57 371.01 464.61 370.91 464.7 370.78 464.75 370.69 464.8 370.6 464.83 370.56 464.93 370.48 464.96 370.45 465.02 370.32 465.04 370.29 465.08 370.28 465.25 370.27 465.25 370.27 465.26 370.26 465.26 370.26 465.27 370.25 465.31 370.18 465.39 370.1 465.48 370.04 465.56 370.01 465.65 370.01 465.7 370.01 465.74 370 465.79 369.97 465.82 369.95 465.86 369.93 465.91 369.92 465.94 369.93 465.99 369.95 466 369.96 466.02 369.95 466.03 369.91 466.05 369.88 466.07 369.87 466.09 369.86 466.11 369.87 466.11 369.87 466.14 369.88 466.2 369.97 466.21 370.01 466.21 370.11 466.24 370.15 466.27 370.19 466.32 370.2 466.36 370.19 466.41 370.18 466.56 370.09 466.59 370.09 466.61 370.04 466.63 370.01 466.65 370.01 466.71 369.97 466.8 369.94 466.83 369.91 466.84 369.88 466.85 369.79 466.87 369.76 466.88 369.75 466.9 369.75 466.92 369.75 466.94 369.74 466.97 369.72 467.07 369.63 467.1 369.59 467.12 369.55 467.13 369.54 467.13 369.51 467.14 369.5 467.14 369.49 467.15 369.48 467.19 369.47 467.2 369.45 467.22 369.42 467.23 369.33 467.25 369.3 467.28 369.29 467.32 369.29 467.36 369.3 467.39 369.31 467.43 369.3 467.46 369.29 467.49 369.28 467.52 369.29 467.55 369.3 Z" id="Rwanda" transform="translate(-463.9700012207031,-369.2799987792969) "/></svg>