<svg xmlns="http://www.w3.org/2000/svg" viewBox="0 0 798 666"><path d="M 478.05 645.92 475.23 644.12 463.41 649.13 454.93 649.39 447.09 645.15 435.65 644.12 430.26 647.97 428.46 646.3 429.23 643.09 424.22 638.72 420.24 639.88 413.17 633.45 397.11 631.65 368.59 617.64 350.73 616.99 347.9 617.64 347.9 619.44 344.3 619.44 343.92 615.84 337.88 613.4 338.91 609.15 337.49 611.21 333.51 611.6 332.1 608.77 326.44 609.15 313.98 605.17 306.14 596.94 306.4 591.54 301.13 588.46 275.05 585.89 269.01 583.44 255.01 574.83 247.94 561.98 236.12 551.31 233.3 546.29 226.87 542.7 212.87 537.04 186.91 530.23 158 527.01 148.37 516.99 152.61 511.97 149.01 506.57 150.17 503.1 146.96 496.29 138.73 490.89 134.11 490.25 135.52 488.45 134.11 484.46 125.5 480.86 117.66 470.58 111.24 470.58 99.42 462.35 98 453.1 93.76 448.47 89.14 432.4 83.36 429.19 82.97 427 86.57 422.38 86.18 418.39 88.37 417.75 91.97 402.32 91.19 387.41 89.14 382.78 91.19 372.37 83.74 362.73 71.66 358.49 70.51 335.22 66.27 333.81 65.24 329.57 60.23 328.41 55.86 319.54 47.38 312.34 49.44 307.33 41.6 302.7 38.77 297.43 20.27 284.57 14.11 274.16 7.3 267.35 7.68 235.6 10.89 234.57 3.83 225.19 1 217.34 1.26 211.3 4.21 211.3 7.04 206.29 12.31 203.46 12.05 199.6 15.26 199.86 22.33 189.58 28.37 187.39 31.32 190.22 45.58 189.58 70.12 175.57 80.53 163.87 86.18 134.17 78.35 111.04 83.36 102.04 85.54 87.38 89.4 85.58 90.94 87.38 89.14 88.16 91.58 88.8 92.99 85.58 91.58 83.14 87.6 83.53 87.34 71.06 93.76 69.26 95.82 72.09 104.81 72.09 110.21 75.94 120.49 77.1 124.09 74.53 132.95 73.11 134.11 76.71 127.94 79.16 137.32 78.51 139.76 80.31 136.55 71.06 138.99 73.5 148.37 73.11 163.66 67.07 170.47 61.03 174.32 53.19 187.56 47.02 195.39 36.35 204.77 33.14 211.2 26.32 220.45 23.88 228.93 14.63 266.06 4.21 288.29 7.04 298.95 1 305.37 1.77 310.77 7.43 326.06 16.68 348.16 19.25 370 13.86 427.05 30.95 442.72 25.3 460.96 28.12 468.8 33.52 486.02 31.72 521.61 51.39 532.4 49.59 534.84 52.03 541.65 51.65 552.7 54.86 578.78 69.9 586.23 81.34 601.65 94.97 611.93 112.71 617.97 119.52 624.39 140.22 622.59 148.44 626.58 188.16 630.43 189.84 630.43 197.81 633.39 201.66 646.24 205.26 652.66 212.07 657.67 224.93 663.71 226.34 662.94 228.14 664.35 226.34 666.54 227.37 666.54 231.74 662.68 235.21 662.68 241.38 669.36 253.47 683.37 269.92 688.63 272.36 692.23 277.76 695.06 278.15 701.48 292.67 715.1 302.7 725.12 321.72 729.36 325.58 734.76 326.99 740.41 324.17 747.86 326.99 759.3 335.22 763.92 342.42 770.09 344.48 773.95 343.45 786.41 350.52 786.79 360.93 790.01 363.12 792.19 369.16 796.04 370.19 797.2 372.76 794.37 379.57 794.37 387.41 799 402.07 792.58 405.92 783.2 404.89 782.94 414.53 785.77 417.36 782.94 429.45 779.34 433.43 774.33 435.23 769.32 441.27 768.68 448.47 761.87 459.91 762.25 468.01 760.46 475.85 757.89 478.04 757.89 487.68 753.65 501.3 756.86 515.57 754.67 529.07 759.68 541.28 756.47 562.75 757.24 572.65 762.9 594.5 761.48 599.51 752.62 609.15 748.25 616.99 737.59 621.62 727.18 631.26 714.07 636.28 693.65 633.45 689.02 639.1 675.14 641.29 665.51 640.52 645.46 648.75 636.21 650.16 598.7 648.36 595.48 649.13 594.46 653.76 591.63 654.14 587.01 659.16 569.79 658 555.53 667 549.87 665.2 547.69 659.8 541.27 658 524.18 658.39 518.78 662.63 505.16 664.04 497.32 660.19 492.06 653.37 479.85 649.13 478.05 645.92 Z" transform="translate(-1,-1) "/></svg>