<svg xmlns="http://www.w3.org/2000/svg" viewBox="0 0 798 348"><path d="M 606.65 313.9 596.25 318.66 573.72 302.63 542.96 311.73 508.31 297.43 497.48 305.66 445.49 272.29 396.1 274.46 381.37 293.53 357.54 302.2 326.35 334.7 260.5 349 165.19 315.63 88.51 311.73 62.52 318.66 57.75 298.29 31.33 285.29 6.2 281.39 1 274.46 27.86 248.89 30.03 240.66 23.96 234.59 44.76 225.05 71.18 225.05 121.44 251.49 150.46 227.22 166.06 227.22 167.36 212.92 174.72 209.45 181.65 210.32 180.36 222.45 170.82 225.92 178.19 231.99 176.89 240.66 163.89 247.59 170.82 265.79 209.38 283.99 241.87 285.29 251.4 274.46 287.79 258.42 289.96 239.36 314.22 210.32 310.32 196.02 294.73 186.48 294.73 169.58 310.32 164.82 331.12 139.68 345.41 140.55 356.24 150.51 370.54 137.08 344.11 138.38 339.35 115.41 354.94 116.71 362.31 97.21 386.14 115.41 419.93 104.58 435.52 87.68 436.82 38.27 445.49 28.74 476.68 40.87 487.51 55.17 495.74 49.1 490.98 21.37 501.81 8.37 517.4 13.13 526.07 8.37 530.83 16.6 534.3 8.37 557.26 4.47 575.02 16.6 587.15 16.6 580.22 30.04 580.22 55.17 596.68 72.07 587.15 84.21 572.86 76.84 562.03 82.91 562.03 93.74 574.16 105.88 574.16 128.41 566.79 129.71 565.49 141.85 580.22 166.98 612.71 191.25 619.65 181.72 628.31 185.18 616.18 194.72 605.35 218.99 596.68 206.85 583.69 223.75 591.92 247.59 618.78 261.02 608.81 280.09 625.71 305.66 625.71 316.5 619.65 319.96 606.65 313.9 Z M 588.45 95.04 583.69 101.98 580.22 101.11 582.39 92.44 588.45 95.04 Z M 618.78 85.07 606.65 90.28 596.68 101.11 593.22 78.14 614.88 75.54 618.78 85.07 Z M 627.01 151.38 624.41 168.28 617.48 171.75 614.88 158.75 627.01 151.38 Z M 799 1 794.23 10.53 784.7 11.83 795.53 23.97 782.1 44.34 769.11 39.57 730.55 46.94 724.49 56.47 708.89 59.94 719.72 43.04 716.25 30.04 744.85 22.67 749.61 16.6 746.15 5.77 799 1 Z" fill-rule="evenodd" transform="translate(-1,-1) "/></svg>