<svg xmlns="http://www.w3.org/2000/svg" viewBox="0 0 798 1130"><path d="M 246.65 548.74 233.81 593.24 232.38 642.88 241.8 675.41 259.2 698.23 271.18 695.09 304.85 704.22 317.69 719.05 332.24 727.04 364.19 715.06 387.59 715.06 427.25 738.74 455.21 730.75 461.48 743.59 455.21 749.86 460.34 758.99 458.06 764.41 472.04 776.11 473.18 781.24 481.17 783.81 475.75 793.51 484.31 810.91 474.89 818.9 478.89 823.47 476.6 827.46 482.88 832.31 466.05 861.69 432.1 887.08 401.85 901.35 375.04 921.03 332.24 933.59 288.59 963.83 250.07 979.23 218.12 1012.04 205.56 1008.9 193.58 1021.74 161.06 1034 163.91 1029.15 158.77 1024.02 161.91 1016.32 153.07 1012.89 157.92 1001.77 141.66 996.92 134.24 1002.62 131.67 992.64 118.26 986.93 98.57 1005.76 90.87 994.92 92.58 987.79 82.6 982.94 93.72 964.11 93.72 951.84 101.71 942.43 97.72 938.44 103.14 930.45 99.15 914.76 79.46 905.06 46.93 905.06 20.69 911.33 15.55 923.89 10.42 925.03 6.14 920.46 19.26 904.49 8.13 897.35 1 885.37 27.25 859.41 65.19 832.31 67.48 822.9 123.68 805.78 141.94 804.64 149.93 794.94 165.05 788.66 182.45 767.84 184.74 726.19 195.01 714.2 212.7 711.92 222.11 685.68 221.26 604.94 199 523.35 178.46 485.98 178.46 478.85 128.82 395.83 111.13 386.99 95.72 392.12 93.44 390.12 99.15 386.99 97.72 383.85 79.46 378.14 73.75 366.16 66.05 362.45 64.34 353.61 68.05 349.9 57.21 329.07 62.06 303.68 46.93 262.6 56.35 234.65 65.76 224.09 62.91 221.24 65.19 196.7 50.07 165.04 48.36 157.05 52.36 149.06 47.79 132.51 33.24 121.96 18.4 121.96 13.55 115.97 18.97 89.44 30.67 82.59 40.66 64.33 39.8 56.34 49.22 46.93 61.2 41.51 64.34 43.79 68.33 36.66 73.75 40.65 80.89 34.38 97.72 40.08 115.98 29.53 121.4 31.24 128.53 20.68 141.94 19.26 172.18 1 182.45 5.85 180.74 37.52 145.08 47.79 127.68 67.47 102.28 78.6 70.61 84.3 77.75 117.39 96.86 134.8 111.13 140.5 108.85 145.92 101.71 147.63 59.49 147.63 58.06 160.19 70.61 188.72 71.47 221.24 81.74 209.54 81.74 195.28 111.13 166.75 113.41 159.62 109.42 149.06 160.2 131.66 177.03 135.65 197.58 149.92 216.41 153.91 242.65 179.3 276.89 195.28 344.79 216.67 394.15 222.95 420.11 232.36 424.96 241.78 435.24 240.35 442.37 283.14 439.23 293.41 449.5 299.69 449.5 305.4 437.52 315.67 440.94 319.66 421.83 343.34 391.01 417.8 371.04 435.2 366.19 445.47 355.35 443.19 337.09 448.61 309.13 463.73 301.43 474.85 282.31 467.72 317.12 444.9 317.12 436.05 301.43 422.93 307.7 406.96 273.75 409.81 264.05 413.52 261.77 419.79 241.8 421.79 137.38 400.39 168.76 449.18 179.32 475.71 195.01 491.4 219.54 494.82 264.91 462.87 264.91 469.43 270.33 473.43 288.59 476.56 272.04 496.25 246.65 548.74 Z M 687.16 939.29 712.84 956.12 721.11 978.37 717.97 989.79 721.4 993.21 690.58 1010.61 680.03 1022.88 695.15 1025.73 680.03 1033.43 670.61 1047.7 659.49 1052.55 673.75 1061.96 677.75 1055.69 709.41 1054.83 702.57 1066.24 704.56 1070.24 729.96 1075.66 730.81 1089.06 703.14 1097.62 685.73 1098.19 681.74 1105.61 666.62 1098.48 678.6 1100.19 676.89 1096.2 662.34 1093.91 658.63 1099.9 662.91 1111.03 659.49 1117.59 651.78 1110.17 653.21 1104.47 635.52 1105.9 624.39 1112.74 612.7 1109.6 613.27 1099.33 607.27 1094.2 613.55 1081.93 604.14 1080.22 585.02 1098.48 551.07 1095.34 541.65 1099.62 538.52 1107.32 541.94 1114.74 531.67 1121.59 527.96 1131 521.97 1121.02 509.7 1115.59 507.7 1111.32 512.84 1103.33 505.71 1100.19 508.56 1094.48 499.43 1091.35 486.88 1096.2 468.62 1091.35 470.9 1082.79 491.44 1079.93 488.87 1076.23 497.43 1071.95 507.7 1053.12 519.4 1045.42 524.82 1027.16 534.24 1022.59 550.21 999.49 563.34 995.78 573.89 982.08 588.16 979.8 604.99 956.69 647.79 945.57 675.46 944.71 687.16 939.29 Z M 759.34 1007.47 759.34 1012.89 742.79 1022.59 745.08 1025.73 737.66 1031.72 734.81 1041.42 714.26 1036.86 714.26 1029.73 732.52 1020.03 734.81 1010.61 746.79 1013.75 749.07 1006.62 759.34 1007.47 Z M 777.6 1019.17 790.44 1005.76 799 1012.04 795.86 1018.6 777.6 1019.17 Z M 700 914.76 711.13 919.32 698.29 927.31 682.6 929.02 661.2 923.32 672.32 916.18 700 914.76 Z" fill-rule="evenodd" transform="translate(-1,-1) "/></svg>