<svg xmlns="http://www.w3.org/2000/svg" viewBox="0 0 798 454"><path d="M 684.71 452.99 688.74 450.47 690.75 453.99 690.75 455 684.71 452.99 Z M 683.2 435.37 686.22 444.93 689.24 448.96 674.64 434.87 683.2 435.37 Z M 747.65 326.15 697.8 351.82 693.27 391.58 677.66 399.63 666.08 377.99 658.53 380.51 644.94 368.43 626.81 376.48 623.29 395.61 613.22 390.57 607.18 406.68 584.52 383.02 573.45 387.55 562.37 415.74 553.31 416.24 510.01 364.9 507.49 349.3 477.79 331.69 472.75 319.61 477.79 313.57 494.4 331.69 499.44 327.16 461.68 265.75 439.52 266.76 393.71 227.5 390.18 209.88 371.05 203.34 400.76 191.76 396.73 175.65 379.11 170.12 406.8 161.56 405.29 182.2 425.43 207.36 438.52 197.3 443.05 207.87 460.16 210.89 493.9 196.29 500.44 220.45 523.6 223.97 519.07 241.59 528.13 255.18 544.75 256.19 538.2 277.33 558.84 292.93 577.98 289.91 575.46 278.33 599.63 260.21 606.67 259.21 613.22 272.8 636.88 267.26 657.52 238.57 657.02 220.45 671.12 208.87 682.2 229.51 704.85 218.94 710.39 233.03 695.79 249.64 702.84 255.68 733.55 237.06 728.01 255.18 740.6 264.74 756.71 244.11 765.27 280.35 799 253.67 799 283.87 783.9 302.49 782.89 337.22 766.78 319.61 747.65 326.15 Z M 461.17 332.19 462.68 333.2 462.68 334.71 460.16 333.7 461.17 332.19 Z M 357.96 324.64 357.46 319.61 362.49 319.1 363 325.65 357.96 324.64 Z M 439.02 309.04 440.03 309.04 440.53 311.05 438.52 311.05 439.02 309.04 Z M 439.02 303 442.54 303 439.52 307.02 438.52 306.02 439.02 303 Z M 463.69 337.73 465.2 338.73 466.21 340.24 463.69 339.74 463.69 337.73 Z M 758.72 213.4 746.64 214.91 743.62 219.44 750.67 202.33 758.22 200.32 758.72 213.4 Z M 593.58 101.16 560.86 121.8 555.82 118.78 559.85 104.18 568.41 106.7 583.51 95.63 593.58 101.16 Z M 652.49 100.66 655.51 98.65 658.03 101.67 656.01 103.68 652.49 100.66 Z M 656.52 86.57 654.5 96.13 644.94 92.61 649.47 86.57 656.52 86.57 Z M 654 79.02 652.99 85.06 647.96 84.05 651.48 77 654 79.02 Z M 502.96 141.93 479.8 157.03 468.72 153.51 469.73 136.9 494.4 121.29 510.01 123.81 502.96 141.93 Z M 350.91 204.85 350.91 202.83 352.93 207.36 350.91 207.36 350.91 204.85 Z M 358.97 205.35 364.51 200.32 367.02 206.86 364.51 207.87 358.97 205.35 Z M 6.54 50.83 1 55.86 5.53 41.27 11.07 48.82 6.54 50.83 Z M 388.17 25.16 372.06 32.21 370.04 21.13 372.06 19.62 388.17 25.16 Z M 230.58 7.54 253.24 19.12 248.2 29.69 229.58 36.74 225.55 50.83 216.99 43.78 226.05 21.13 210.44 15.6 190.3 21.13 189.8 12.07 194.33 4.52 214.97 1 230.58 7.54 Z M 410.32 24.15 403.27 26.17 400.76 23.15 404.28 21.13 410.32 24.15 Z M 184.77 23.65 183.26 19.62 190.81 24.15 187.28 25.66 184.77 23.65 Z M 253.74 21.13 258.27 18.11 264.31 19.62 258.27 23.15 253.74 21.13 Z" fill-rule="evenodd" transform="translate(-1,-1) "/></svg>