<svg xmlns="http://www.w3.org/2000/svg" viewBox="0 0 798 798"><path d="M 244.06 68.59 265.2 87.02 272.08 85.05 274.05 91.2 282.16 95.13 290.27 93.9 297.15 104.22 303.29 102.75 299.18 112.69 305.99 101.27 307.47 112.33 322.46 119.21 324.43 126.59 339.66 137.65 340.89 144.28 344.33 143.79 346.3 151.9 351.22 150.43 355.89 166.89 382.43 192.21 353.18 203.51 382.43 192.7 386.61 200.32 396.93 205.23 396.19 211.87 406.51 238.66 427.65 258.32 424.21 277.49 431.09 284.37 443.87 285.6 440.67 295.92 444.61 297.88 445.34 304.52 446.08 327.38 452.96 332.05 459.11 328.61 469.92 346.55 506.79 365.47 512.19 373.83 511.7 381.2 517.11 385.38 523.99 381.94 532.84 394.22 539.47 394.22 546.35 414.62 554.71 416.1 561.34 400.37 571.67 409.22 589.36 414.13 586.66 419.54 590.84 420.77 598.95 439.2 579.29 454.44 580.51 461.07 587.4 464.51 583.96 473.36 573.63 473.36 570.93 465.25 566.26 463.78 551.76 473.36 547.83 484.91 538.24 472.13 531.36 472.13 526.69 479.51 521.78 479.51 523.25 502.12 514.4 507.52 508.26 506.29 501.38 497.94 505.56 490.56 499.9 480.24 501.38 472.87 491.06 469.43 489.83 460.34 504.08 450.26 508.75 440.67 502.12 422.98 509.49 413.39 502.12 398.89 501.38 388.08 491.06 373.83 468.45 357.36 457.63 352.69 445.34 352.69 433.06 338.19 399.63 336.22 385.87 321.97 378.5 327.38 383.17 319.27 377.76 316.32 381.2 308.94 377.02 306.73 354.66 305.5 355.15 312.38 349.74 313.61 337.45 307.47 330.57 308.21 319.02 321.97 314.84 315.09 304.77 318.53 295.18 316.32 296.41 312.38 290.27 310.17 256.35 310.91 248.73 305.5 237.18 307.47 227.6 301.33 219.98 303.54 218.01 294.69 210.39 290.51 193.43 283.63 185.32 285.6 181.15 274.05 171.56 266.67 185.08 254.14 172.3 264.95 169.6 252.91 160.75 244.8 95.13 217.52 53.84 180.65 40.57 173.04 40.57 158.04 27.54 138.14 1 119.21 1 76.7 5.67 68.34 32.95 81.12 5.67 65.88 11.81 64.41 15.25 51.63 22.87 51.63 29.51 45.48 37.86 29.02 49.42 25.58 50.89 18.2 56.79 20.17 68.59 12.55 84.31 16.73 97.83 12.06 100.54 5.18 107.42 2.47 118.97 1 125.85 4.44 133.96 1.74 146.98 15.99 155.83 29.02 173.04 21.4 179.92 29.02 183.11 26.31 184.59 30.25 201.54 36.64 207.2 34.42 231.77 61.7 244.06 68.59 Z M 798.26 681.03 797.53 688.41 792.86 690.62 797.53 711.02 792.12 709.54 791.38 715.19 785.24 719.86 785.24 730.19 778.6 742.47 779.83 748.62 765.58 770.49 755.99 771.72 748.37 765.58 738.79 766.31 728.71 773.19 705.85 776.64 681.52 784.75 675.38 793.59 642.69 799 622.05 789.42 618.85 781.3 600.91 768.28 600.42 764.35 587.4 763.61 593.54 758.69 594.28 749.85 582.48 734.86 577.07 718.63 568.96 711.75 567.49 701.43 600.18 700.94 574.37 700.69 576.34 674.4 581.25 664.57 577.07 641.46 580.51 607.3 590.84 586.17 602.39 573.88 605.83 564.29 603.62 558.15 615.41 545.12 622.79 536.28 618.85 528.66 629.67 522.51 650.07 525.95 672.68 517.84 676.85 522.02 699.96 518.58 717.65 530.13 729.45 547.83 760.66 550.53 760.17 559.38 780.57 577.81 786.71 589.61 786.71 618.12 793.59 637.29 791.38 651.54 792.86 662.6 799 670.71 798.26 681.03 Z" fill-rule="evenodd" transform="translate(-1,-1) "/></svg>