<svg xmlns="http://www.w3.org/2000/svg" viewBox="0 0 798 1531"><path d="M 126.28 653.56 138.81 648.25 129.7 638 153.61 609.53 157.03 585.99 179.05 571.57 189.68 546.13 207.52 551.45 190.82 534.36 203.35 492.23 201.07 471.35 221.19 477.42 243.21 471.35 243.21 486.91 261.43 477.42 258.02 466.03 246.63 467.17 242.45 453.13 244.35 441.74 250.8 438.7 242.45 404.91 249.66 400.74 245.49 392.01 253.08 380.62 260.29 385.93 271.68 383.66 277 355.18 283.45 361.64 295.22 361.64 300.16 375.3 314.96 380.62 338.5 371.13 330.91 365.81 318.38 368.85 311.92 357.46 295.98 356.32 294.08 341.52 281.55 337.34 284.59 327.85 300.16 323.68 311.92 326.71 320.28 339.24 343.43 336.2 374.18 319.5 380.64 300.52 390.89 300.52 409.11 274.7 407.97 235.98 398.48 219.28 402.66 202.2 392.03 198.02 392.03 186.63 400.38 185.49 397.34 161.2 405.69 160.06 407.97 167.65 415.19 160.06 428.85 161.2 444.8 145.25 466.06 149.81 479.72 125.51 474.41 87.55 451.25 70.47 429.99 78.06 431.13 59.08 477.45 68.57 478.59 53.77 492.25 52.63 490.35 42 504.02 30.61 502.88 11.63 512.37 8.21 513.51 1 529.08 12.39 556.41 8.21 570.46 11.63 574.63 23.02 590.2 14.67 600.83 26.05 614.5 27.19 618.67 36.68 613.36 43.14 614.5 59.08 619.81 59.84 620.95 69.33 581.85 73.51 577.67 86.41 580.71 93.63 599.69 93.63 607.28 108.43 603.11 114.89 616.77 127.41 626.26 125.51 635.76 113.75 645.25 116.02 635.76 129.69 650.56 130.45 654.74 139.94 638.79 141.08 645.25 161.2 635.76 169.55 641.07 174.87 637.65 188.53 660.05 170.69 669.54 173.73 682.07 165.37 698.78 171.83 699.91 179.04 715.86 186.63 726.49 204.48 748.51 223.46 737.12 235.98 730.67 272.05 698.02 269.77 720.04 284.57 718.9 292.93 698.78 303.56 720.04 303.56 733.7 310.77 733.7 334.3 725.35 349.87 742.05 352.15 746.23 365.81 733.7 397.32 747.37 433.39 753.82 436.42 753.82 448.95 778.12 462.62 781.16 489.19 775.84 497.54 786.47 511.21 786.47 519.94 779.26 522.97 786.47 534.36 769.77 555.24 775.84 568.15 783.43 562.83 789.51 567.01 769.77 590.55 792.93 588.27 799 595.86 782.3 600.8 779.26 611.43 787.61 622.06 783.43 628.51 769.77 630.41 767.49 636.86 782.3 641.04 779.26 671.41 764.45 694.94 732.56 694.94 731.8 701.02 724.21 701.02 726.49 722.27 741.3 737.08 749.65 737.08 754.96 748.47 730.67 759.1 723.07 775.8 746.23 787.57 746.23 799.34 763.31 801.24 767.49 813 767.49 827.81 754.96 833.88 761.04 846.79 745.47 850.97 751.55 867.67 739.02 867.67 740.16 872.98 751.55 875.26 750.79 882.47 731.8 877.16 731.8 870.71 705.23 876.02 704.09 884.75 715.86 885.51 715.86 891.96 694.6 899.56 700.56 913.71 701.05 913.22 730.67 912.08 734.84 905.63 761.04 909.05 760.28 913.22 745.47 913.22 744.33 921.57 737.12 925.75 744.33 927.65 741.3 942.45 764.45 931.06 775.84 931.06 775.84 938.28 766.35 943.59 764.45 954.22 746.23 959.54 733.7 955.36 741.3 962.57 740.16 970.17 760.28 967.89 759.14 975.1 742.05 980.41 747.37 993.32 740.16 997.5 740.16 1006.99 752.68 1010.03 752.68 1017.62 751.55 1022.55 740.16 1021.79 737.88 1027.87 753.82 1043.81 732.56 1041.53 739.02 1050.26 711.68 1049.13 710.54 1058.62 727.63 1060.51 740.16 1070 730.67 1081.77 703.33 1074.56 687.39 1076.46 698.02 1077.6 707.51 1087.09 698.02 1088.99 706.37 1094.3 707.51 1107.21 718.9 1099.62 741.3 1104.93 744.33 1113.28 707.51 1117.84 713.58 1123.91 706.37 1126.19 703.33 1135.68 707.51 1144.03 683.21 1217.68 688.53 1225.27 709.41 1218.82 708.65 1241.21 690.42 1237.8 703.33 1253.74 689.66 1257.92 672.58 1251.46 689.66 1268.55 679.03 1270.44 679.03 1278.79 687.39 1286.39 673.72 1285.25 672.58 1278.79 665.37 1278.04 664.23 1287.53 673.72 1302.33 666.13 1313.72 654.74 1311.82 652.46 1303.09 645.25 1307.27 650.56 1326.63 633.48 1332.7 626.26 1308.4 605 1311.82 603.11 1298.91 591.34 1297.02 586.02 1300.05 591.34 1307.27 579.95 1308.4 577.67 1319.03 564 1320.17 565.14 1326.63 562.3 1327.99 565.9 1326.63 589.44 1331.56 590.2 1340.29 581.85 1340.29 578.81 1349.78 571.22 1351.68 561.73 1378.25 547.3 1386.61 533.25 1411.66 541.98 1438.23 524.9 1443.55 515.41 1459.11 508.96 1460.25 508.96 1478.09 519.59 1495.18 537.43 1503.53 540.85 1520.61 536.67 1526.69 504.78 1532 486.94 1516.06 477.45 1527.82 460.74 1520.61 461.5 1505.81 477.45 1504.67 485.04 1492.14 485.8 1481.51 474.41 1483.41 480.48 1478.09 478.59 1472.02 470.23 1472.02 458.46 1450.76 433.03 1445.45 400.38 1450.76 381.4 1435.2 382.16 1409.76 379.5 1425.71 357.1 1428.74 344.57 1424.57 341.54 1411.66 328.63 1406.73 329.77 1388.5 317.24 1381.29 320.28 1369.52 314.96 1364.21 285.73 1362.31 281.55 1372.94 267.51 1363.45 243.21 1368.76 240.17 1359.27 210.56 1360.03 181.33 1348.64 174.87 1339.15 164.24 1342.19 157.03 1324.35 124.38 1303.09 97.81 1255.64 88.32 1256.78 76.93 1237.8 46.18 1219.95 40.86 1211.6 48.45 1184.27 42.76 1175.54 60.6 1166.43 42.38 1175.54 16.57 1164.15 7.07 1154.66 7.07 1142.89 36.69 1114.42 54.53 1106.07 62.88 1090.12 62.12 1073.42 47.32 1066.97 44.28 1039.64 62.12 1025.97 68.2 989.91 77.69 980.41 75.79 972.06 66.3 967.89 66.3 959.54 44.28 964.85 33.65 947.77 1 940.55 7.07 931.06 4.04 865.77 25.3 824.39 33.65 814.14 40.86 778.08 55.67 766.69 46.18 752.64 48.45 743.15 72.75 731.76 78.83 714.68 75.79 705.19 88.32 696.84 77.69 686.21 83 669.51 87.18 664.19 113.75 669.51 126.28 653.56 Z M 600.83 1307.27 600.83 1317.14 589.44 1313.72 595.51 1306.51 600.83 1307.27 Z M 570.46 1461.39 569.32 1475.06 559.83 1476.2 556.79 1464.43 570.46 1461.39 Z" fill-rule="evenodd" transform="translate(-1,-1) "/></svg>