<svg xmlns="http://www.w3.org/2000/svg" viewBox="0 0 798 1851"><path d="M 657.8 6.29 658.49 2.38 661.02 5.6 667.92 1 701.95 5.6 718.51 22.16 736.91 10.66 740.13 13.19 740.13 22.16 734.38 23.31 736.22 28.6 744.73 29.75 745.19 34.35 749.1 29.06 759.45 29.75 759.9 36.19 763.81 37.57 758.07 43.78 752.32 42.63 751.63 45.16 756.23 55.28 762.43 57.35 758.07 64.94 764.5 77.82 763.81 83.57 768.18 92.31 778.53 98.06 780.37 109.1 790.03 123.13 790.72 165.91 796.47 188.22 796.93 211.22 795.78 239.27 789.34 246.4 794.4 276.3 799 284.12 790.03 285.96 795.09 313.56 793.94 324.37 798.31 332.65 781.06 345.99 775.31 356.8 777.15 367.15 771.4 368.99 770.71 391.3 767.72 393.37 768.18 398.43 763.12 398.43 759.45 410.62 762.43 419.59 751.63 422.81 752.32 431.09 747.95 431.55 745.19 451.56 739.44 451.56 736.22 459.84 732.54 498.71 733.23 519.87 725.41 538.96 720.35 538.27 719.66 545.4 713.91 548.62 704.48 545.4 699.19 547.24 693.44 563.8 686.54 569.78 687.69 574.84 678.96 581.05 677.58 590.02 684.7 591.4 689.07 597.84 676.2 595.31 677.58 599.68 669.3 602.21 657.11 601.06 652.05 593.93 646.99 601.06 643.08 595.31 637.33 593.93 638.02 602.21 634.8 601.52 634.11 596.46 630.89 601.06 623.3 598.53 616.86 602.21 614.33 598.53 618.24 597.15 619.39 588.87 608.58 581.74 601.45 581.74 595.71 573.46 584.9 567.71 578.46 569.09 578.46 561.96 572.71 558.74 551.09 561.96 544.65 569.09 534.53 561.96 541.43 552.99 545.34 539.65 541.43 537.81 540.28 530.68 529.24 523.55 520.5 519.87 516.62 522.38 516.6 523.09 506.48 529.3 500.5 524.93 494.29 525.62 496.13 516.65 488.54 510.21 497.97 507.68 494.75 499.4 489.69 498.71 484.63 489.28 473.82 491.81 478.19 484.68 468.07 480.77 469.91 473.87 454.73 471.8 448.29 465.59 449.44 460.99 441.85 463.06 441.85 450.87 447.6 444.43 441.85 436.15 433.58 437.3 434.27 428.56 439.33 425.34 434.73 416.6 444.97 414.3 441.16 412.92 432.2 417.52 420.01 418.21 423.92 409.93 419.55 403.49 423.92 397.74 420.01 396.59 423.92 396.59 422.08 391.99 428.52 385.55 422.08 369.68 430.36 356.34 426.45 351.74 429.67 349.9 430.36 340.24 425.3 326.21 429.67 320.46 425.99 317.24 437.26 312.87 432.2 294.93 440.47 293.55 440.47 289.87 445.76 291.71 451.51 277.68 463.47 272.62 451.97 260.43 456.57 257.21 455.88 252.15 457.27 252.2 464.16 242.03 457.26 232.38 460.94 220.88 484.63 221.57 489.69 216.28 495.44 216.28 497.51 206.16 505.79 213.75 520.5 204.32 524.18 195.81 519.82 179.94 520.96 164.53 539.59 153.72 549.71 118.07 555 115.54 556.84 105.19 562.59 104.5 567.65 98.75 566.5 83.57 573.4 82.19 579.84 73.91 573.4 69.31 578.46 66.78 576.62 62.41 584.9 54.13 588.81 38.03 597.78 36.19 596.4 28.6 612.95 31.13 633.42 9.28 638.71 11.81 645.61 7.44 649.52 11.81 657.8 6.29 Z M 59.18 1846.71 60.56 1851.31 54.81 1852 58.03 1843.49 59.18 1846.71 Z M 146.8 1827.62 153.01 1832.68 160.14 1829.46 169.8 1834.06 161.29 1835.9 163.36 1842.34 152.55 1836.59 149.79 1843.03 147.95 1839.12 142.2 1839.81 138.98 1831.53 142.2 1825.78 146.8 1827.62 Z M 53.43 1767.59 58.49 1771.96 55.96 1782.77 63.09 1788.75 62.4 1792.43 68.84 1790.59 70.68 1793.81 80.34 1794.5 84.02 1790.59 100.12 1794.5 104.49 1789.9 112.77 1796.34 115.3 1803.24 104.03 1811.06 100.81 1821.87 89.77 1823.71 77.12 1820.49 67.46 1828.31 65.62 1823.71 69.99 1816.81 63.09 1816.81 40.78 1831.53 38.03 1837.74 29.29 1838.43 3.53 1829.46 1 1825.09 4.22 1817.96 30.44 1807.84 32.28 1802.78 32.97 1790.59 18.25 1788.06 18.94 1779.09 24.69 1775.18 43.31 1776.56 47.68 1766.21 53.43 1767.59 Z M 124.26 1800.25 123.8 1802.09 116.68 1802.78 121.27 1797.49 124.26 1800.25 Z M 236.26 1724.81 231.66 1730.56 227.29 1729.18 229.13 1724.12 236.26 1721.59 236.26 1724.81 Z M 156.92 1694.68 170.26 1696.06 179.23 1702.96 183.14 1711.93 179.23 1715.84 165.89 1715.84 158.3 1724.12 153.01 1721.59 152.55 1726.65 157.61 1731.71 156.23 1737.46 143.58 1737.46 150.48 1726.65 146.11 1713.31 154.39 1704.34 151.86 1695.37 156.92 1694.68 Z M 238.1 1710.78 238.79 1718.37 231.66 1720.21 228.44 1715.84 234.19 1715.15 234.88 1707.56 238.1 1710.78 Z M 168.42 1688.93 165.89 1692.15 162.67 1690.77 165.2 1684.56 168.42 1688.93 Z M 139.67 1660.87 142.2 1665.24 135.76 1664.78 136.45 1659.49 139.67 1660.87 Z M 261.79 1592.57 257.19 1593.72 258.57 1588.66 261.79 1587.97 261.79 1592.57 Z M 345.5 1484.47 350.56 1482.63 349.18 1489.76 358.84 1481.94 358.84 1487.69 364.58 1487 363.2 1491.6 358.84 1490.91 362.74 1492.75 358.84 1498.04 354.93 1495.97 358.15 1502.41 355.62 1508.85 362.74 1515.75 352.4 1532.54 340.9 1533 339.52 1527.94 331.24 1526.1 326.87 1531.85 321.12 1528.63 319.74 1535.07 325.49 1536.91 318.59 1558.07 322.96 1570.03 317.9 1570.03 320.43 1575.32 312.84 1580.38 308.93 1588.66 302.49 1587.28 301.34 1579.69 291.68 1579 283.4 1582.22 276.97 1591.19 271.91 1591.19 262.25 1574.63 246.38 1569.57 245.69 1563.82 250.29 1561.29 253.51 1567.04 273.75 1575.78 283.4 1570.72 286.62 1562.44 290.53 1568.19 298.12 1568.88 303.87 1561.75 311.46 1559.22 311.46 1546.57 305.71 1544.04 304.56 1538.29 305.71 1525.41 293.06 1512.53 296.74 1510 293.06 1506.78 294.9 1487.69 303.18 1483.32 305.02 1490.91 311.46 1488.38 311 1492.75 322.96 1501.72 329.4 1497.35 331.93 1489.07 336.99 1487 336.53 1482.63 347.34 1480.79 345.5 1484.47 Z M 363.89 1504.25 362.74 1508.16 360.67 1508.16 362.74 1501.03 363.89 1504.25 Z M 428.98 1357.51 434.73 1357.51 432.2 1360.04 434.27 1365.1 427.14 1361.88 418.86 1369.01 414.49 1365.1 415.64 1354.29 425.99 1356.82 429.67 1353.6 428.98 1357.51 Z M 617.55 1250.79 624.45 1249.41 625.14 1255.16 616.17 1265.28 604.21 1250.1 608.58 1246.19 610.42 1248.72 616.86 1246.19 617.55 1250.79 Z M 661.02 1191.22 655.96 1191.91 655.96 1189.38 662.17 1187.54 661.02 1191.22 Z M 670.45 1130.05 675.05 1133.73 671.14 1140.17 679.42 1145.92 675.05 1152.36 666.08 1151.67 655.27 1158.11 654.58 1171.44 648.14 1176.5 652.05 1190.53 646.3 1191.91 650.21 1196.28 646.3 1197.66 641.7 1207.32 643.77 1213.07 639.17 1215.6 637.33 1204.79 629.74 1205.94 629.05 1199.5 622.61 1202.03 625.83 1195.13 618.7 1185.01 624.45 1185.01 624.45 1182.25 620.08 1179.03 616.17 1183.63 617.55 1177.88 630.2 1166.38 630.2 1163.16 624.45 1163.85 627.67 1157.42 623.3 1150.98 635.49 1137.64 632.27 1130.51 638.02 1124.76 641.24 1124.3 642.39 1131.89 655.96 1133.73 657.11 1127.98 662.17 1126.83 660.33 1122.23 667.46 1126.83 669.3 1121.77 670.45 1130.05 Z M 657.11 1094.17 647.45 1092.33 641.24 1096.01 640.55 1093.48 646.3 1089.11 655.96 1088.42 657.11 1094.17 Z M 579.15 1322.78 579.84 1328.53 574.09 1333.13 574.78 1321.63 579.15 1322.78 Z M 430.36 1001.48 434.73 1005.39 434.27 1009.76 427.14 1006.08 426.45 1000.33 430.36 1001.48 Z M 495.44 962.61 501.19 965.83 491.76 969.05 500.04 972.73 500.04 975.95 486.01 979.17 486.47 991.36 492.22 995.73 490.38 998.95 484.63 1001.02 478.19 997.11 473.13 1001.02 466 991.36 455.88 1002.86 446.91 1000.33 446.22 993.2 474.97 984.92 484.63 972.04 486.47 962.61 495.44 962.61 Z M 511.54 944.67 514.07 947.89 493.6 949.73 496.82 938.92 503.26 940.76 511.54 937.77 511.54 944.67 Z M 667.92 1084.51 667.46 1089.11 660.33 1086.58 664.7 1082.67 667.92 1084.51 Z M 738.29 1069.33 743.35 1067.95 744.04 1071.17 740.13 1075.08 732.54 1071.17 735.07 1067.26 738.29 1069.33 Z M 727.94 981.01 736.22 979.17 729.32 1002.17 741.51 1001.48 748.41 1014.36 746.57 1020.8 736.22 1017.58 730.01 1023.33 726.79 1021.95 728.63 1011.14 724.26 1009.3 717.82 987.45 723.57 976.64 727.94 981.01 Z M 768.87 962.61 773.93 965.83 765.19 977.33 755.54 981.01 747.95 976.64 758.07 960.54 768.87 957.55 768.87 962.61 Z M 589.96 772.17 595.25 774.01 598.93 782.29 596.4 788.73 592.03 787.58 593.18 791.95 588.12 796.55 589.96 802.3 587.43 803.45 593.18 807.36 589.96 809.2 591.34 813.8 580.53 813.8 578 820.7 571.56 820.7 568.34 827.14 560.06 826.45 558.68 832.2 562.59 836.11 556.84 832.89 548.56 836.11 549.25 841.86 566.5 844.39 562.59 853.36 564.43 864.17 554.31 866.7 559.37 872.45 558.68 878.2 563.28 876.36 564.43 878.2 561.21 885.33 547.18 887.86 538.21 899.36 533.84 896.83 534.53 912.7 525.56 914.54 526.71 904.42 520.5 900.05 509.01 904.42 501.88 919.83 487.16 918.45 475.66 912.7 458.41 912.01 453.35 909.48 456.57 905.8 445.76 908.33 437.26 903.04 427.83 902.58 413.8 908.33 402.3 906.95 427.14 900.05 432.2 893.61 440.02 897.98 451.97 891.54 494.98 892.23 500.04 883.95 507.63 881.42 518.44 861.64 509.47 854.51 494.29 859.11 488.54 854.51 488.54 843.01 515.22 829.67 518.44 822.08 524.87 821.39 533.15 809.89 542.12 808.51 549.25 798.39 574.09 792.64 578 777.23 583.06 772.17 589.96 772.17 Z M 492.91 193.97 497.51 199.03 496.13 203.63 489.69 195.35 492.91 193.97 Z M 595.71 580.59 595.71 587.49 589.96 589.56 593.18 587.49 591.34 580.59 595.71 580.59 Z" fill-rule="evenodd" transform="translate(-1,-1) "/></svg>