<svg xmlns="http://www.w3.org/2000/svg" viewBox="0 0 798 362"><path d="M 484.99 304.84 484.76 301.66 481.13 298.2 480.39 296.1 479.26 289.51 474.83 285.42 472.62 281.9 471.37 281.61 468.87 283.32 469.66 286.95 471.08 288.6 469.04 289.17 465.98 292.41 465.18 291.55 463.82 291.84 462.06 289 463.19 287.58 463.02 285.36 460.64 284.45 460.64 282.86 459.56 282.24 455.31 282.81 455.25 279.46 451.05 277.98 451.05 276.84 453.26 276.11 453.15 274.74 454.62 273.78 454.68 272.58 451.67 270.71 447.42 269.63 441.57 270.09 437.03 268.21 435.73 266.79 431.81 266.45 427.1 264.58 419.49 258.1 420.35 256.57 419.38 257.93 420.12 253.84 418.08 249.24 416.37 247.54 415.81 243 421.54 239.36 423.86 235.78 430.56 242.2 423.92 235.56 426.59 232.89 431.98 229.88 436.07 222.78 437.71 222.38 440.66 220.11 444.58 219.94 446.28 219.03 451.22 221.98 453.89 222.15 467.51 221.13 473.3 221.64 477.84 219.6 484.48 214.09 487.94 213.92 490.61 211.08 494.69 211.25 501.79 207.61 503.38 208.07 506.67 207.16 509.5 204.6 510.98 205.11 513.14 204.32 514.44 206.19 520.06 206.82 523.86 203.69 526.42 204.32 529.71 203.69 530.67 204.6 533.79 202.56 536.46 204.21 536.97 205.46 539.41 204.72 540.15 202.96 541.63 202.73 542.48 205.11 545.71 204.6 546.39 203.69 547.81 204.43 549.57 202.28 551.96 202.73 553.49 201.48 556.21 205.4 557.91 204.6 560.01 205.51 561.72 208.07 563.99 208.24 566.6 210.17 566.14 213.92 569.61 215.45 570.4 217.38 572.73 217.27 575.56 220.85 577.95 220.73 581.58 222.15 584.25 221.02 584.08 219.31 580.96 215.05 582.2 213.92 583.79 215.17 586.8 220.56 588.22 221.64 589.92 221.19 591.17 223.86 592.48 224.2 593.56 222.44 592.02 219.26 594.52 219.48 596.85 221.81 599.85 221.81 600.31 223.17 602.41 223.86 603.32 227.66 605.08 229.54 611.04 229.08 614.84 230.67 615.8 234.31 621.14 236.69 623.01 241.52 624.43 241.69 628.46 239.36 630.16 240.44 635.72 241.92 637.48 240.84 646.11 240.67 647.53 239.93 648.15 242.31 656.78 248.45 658.82 248.33 661.26 246.4 665.52 246.86 667.28 247.88 667.62 249.7 669.21 250.78 670.17 252.88 672.04 253.67 677.61 249.75 680.56 246.29 681.86 247.37 687.99 247.2 693.1 249.75 692.86 249.87 693.21 249.75 693.95 250.55 692.18 253.43 692.14 253.73 692.25 256.85 694.75 257.76 697.13 256.68 698.89 257.31 700.93 254.81 701.73 255.6 701.16 259.47 703.49 259.64 703.71 263.38 706.89 262.7 705.13 266.22 705.3 267.7 709.96 268.84 710.86 267.47 713.36 266.79 715.46 268.55 715.4 270.88 720.62 269.52 719.35 270.33 712.91 277.47 704.68 281.79 701.04 285.25 701.22 286.04 705.36 286.84 712.4 285.87 715.23 286.84 718.24 285.53 718.35 283.89 723.29 281.27 725.68 278.32 727.38 278.32 728.17 279.23 727.66 282.24 730.1 284.91 732.94 284.57 733.51 285.7 735.44 285.08 736.8 285.65 736.86 286.9 734.02 287.12 731.8 290.3 732.77 291.55 736.57 291.21 738.1 291.72 742.36 290.76 744.12 291.16 746.05 293.54 748.32 291.67 748.55 294.22 750.53 292.69 752.24 293.48 752.29 296.27 755.75 297.86 756.27 299.9 758.59 300.24 758.14 304.16 759.27 305.41 763.47 306.55 764.61 305.3 766.65 307.17 767.33 303.76 774.43 305.24 775.73 307.97 775.45 309.22 777.38 310.64 776.41 312.51 778.46 312.51 778.97 314.1 782.09 316.49 784.36 321.48 784.3 330.68 779.59 337.5 776.58 344.71 778.34 347.21 772.67 345.51 766.65 345.51 763.64 344.54 761.32 344.66 759.56 345.79 756.66 343.92 747.01 342.21 736.63 343.58 732.77 342.84 729.31 343.35 725.51 341.93 718.24 344.88 716.71 344.37 715.74 345 714.5 343.86 707.23 345.28 704.05 344.26 696.62 344.54 694.29 345.51 692.13 343.63 681.58 342.78 678.68 340 675.73 338.81 670 340.91 664.04 341.42 653.71 344.2 649.85 342.33 640.38 341.53 638.5 339.83 635.67 339.37 633.79 337.16 629.42 335.91 626.42 336.25 625.22 339.03 618.3 339.54 611.89 344.37 607.8 344.83 603.83 344.09 600.31 344.84 600.31 344.88 600.22 344.86 600.05 344.89 600.06 344.81 596.28 343.75 592.53 344.66 589.3 343.46 587.94 340.11 590.26 337.56 588.28 335.91 586.06 335.4 584.42 329.55 582.55 328.58 581.24 326.03 580.1 325.97 580.05 327.05 576.47 324.38 568.58 325.18 564.38 323.76 554.91 323.81 549.69 318.3 548.27 314.78 551.22 317.62 553.26 318.36 553.2 320.23 555.3 322.45 559.05 321.37 555.87 320.46 553.03 316.54 552.98 313.08 551.67 311.32 550.14 313.99 547.7 312.68 541.91 313.25 540.09 310.35 538.33 309.9 535.04 313.14 531.13 313.82 525.11 316.94 520.63 320.8 513.65 320.23 512.57 322.28 509.28 322.34 504.17 321.82 495.66 312.85 493.1 313.02 489.75 310.98 485.9 307 484.99 304.84 Z M 398.78 232.21 400.09 234.42 397.53 240.55 391.46 237.09 390.04 232.66 387.71 231.41 396 228.51 398.78 232.21 Z M 373.13 216.3 374.55 217.38 374.6 219.31 372.67 221.93 370.91 222.44 368.7 220.9 369.21 216.81 370.69 216.02 373.13 216.3 Z M 793.32 360.84 794.57 363 792.13 362.37 789.69 360.16 792.19 358.74 793.15 359.25 793.32 360.84 Z M 787.31 352.55 787.93 353.23 786.8 354.88 788.84 356.01 787.82 358.17 785.72 359.08 781.41 355.39 781.63 353.06 782.2 352.27 785.1 351.98 787.31 352.55 Z M 788.9 333.81 787.88 331.2 789.81 329.43 789.81 333.81 788.9 333.81 Z M 798.26 328.58 797.24 326.42 799 325.8 798.15 326.94 798.26 328.58 Z M 310.25 46.44 311.04 48.25 316.94 53.42 322.22 59.84 323.92 66.2 327.78 67.68 328.69 68.93 328.69 74.77 333.29 77.96 337.37 79.38 338.74 81.36 337.66 82.56 335.9 82.73 341.18 89.14 345.21 103.63 347.25 104.93 345.32 110.16 348.44 113.11 348.44 114.93 350.48 116.74 351.33 121.74 354.57 127.25 358.77 130.49 355.48 136.74 347.87 142.7 347.59 144.35 344.64 147.58 345.21 149.06 342.14 151.84 343.45 154.29 342.14 155.93 345.6 157.81 346.17 160.99 332.66 169.45 334.08 174.22 331.41 177.74 336.18 185.41 337.37 193.19 335.84 196.2 336.12 200.17 332.21 202.5 328.58 207.1 325.06 207.44 322.45 206.53 319.27 207.95 314.39 203.24 312.12 202.96 308.49 204.72 304.29 203.41 303.04 202.45 302.7 199.72 299.35 195.01 296.97 193.53 295.89 191.03 293.9 189.61 295.09 186.83 293.11 184.67 292.82 182.17 287.03 183.02 281.87 180.35 277.33 182.97 275.4 182.91 272.39 186.83 272.22 190.29 269.33 193.42 259.28 193.19 258.49 192.68 257.58 190.63 256.33 190.18 252.07 191.2 249.29 190.46 249.01 191.6 245.55 193.87 240.1 192.62 235.45 195.74 230.85 196.99 226.82 197.16 222.56 195.01 219.04 197.73 208.89 199.72 204.23 199.78 200.15 202.79 198.33 202.39 193.39 198.81 187.94 198.36 179.94 204.26 169.56 204.94 166.26 203.13 164.16 207.1 159.62 206.76 157.47 207.73 151.05 205.85 146.63 203.24 144.02 197.79 144.36 194.44 142.82 192.34 129.49 186.15 128.75 183.42 126.59 180.98 126.31 175.41 122.34 173.82 118.93 170.58 118.59 160.87 119.56 159.74 117.17 154.29 112.24 151.67 112.41 150.37 110.53 148.49 105.37 146.56 102.42 144.35 101.62 142.24 97.93 140.37 97.65 138.61 90.67 130.55 89.48 125.95 86.3 124.3 83.8 121.29 81.82 121.57 80.79 120.21 78.58 119.47 75.46 113.17 71.66 110.95 72 107.15 69.73 105.1 69.1 103.34 66.49 102.38 64.34 103.97 62.92 101.64 57.75 99.93 53.33 95.5 52.53 95.33 48.22 92.49 44.76 87.55 43.91 84.26 39.99 79.09 33.46 76.82 31.19 73.98 25.63 73.01 14.34 62.17 11.1 60.86 10.14 56.66 8.09 55.52 8.04 51.89 1 44.45 5.43 40.47 7.47 36.04 8.66 35.7 8.66 36.67 12.52 30.93 19.79 31.27 23.47 33.83 24.89 33.15 26.54 29.91 28.35 29.57 31.87 33.43 37.32 34.17 40.73 36.95 41.92 39.11 49.01 43.65 53.89 43.88 59.68 46.26 62.63 44.84 63.26 43.08 64.39 43.94 65.87 43.08 66.55 43.94 69.22 40.47 72.39 41.32 72.11 42.8 72.96 43.71 76.14 40.53 81.65 38.2 84.94 39.96 85.85 42.12 89.59 45.13 95.27 45.47 98.56 41.38 96.57 40.64 96.06 38.71 97.48 36.55 101.28 36.21 105.03 32.58 109.06 30.76 113.37 31.56 117.34 30.7 124.55 32.75 129.15 28.66 137.89 25.14 143.34 24.46 148.67 21.11 157.13 19.8 159.85 21.22 165.92 22.24 169.9 19.8 174.1 19.34 176.93 16.96 180.51 16.51 183.8 13.32 187.83 13.44 193.96 17.13 199.58 15.99 202.93 17.7 204.91 16.9 216.32 17.07 219.1 15.31 221.94 6.57 227.05 7.3 237.38 4.47 242.94 4.64 246.51 5.94 251.17 6.23 254.74 1 260.87 2.31 266.15 5.37 271.2 6.34 271.03 4.75 266.66 3.33 267.11 2.48 268.82 2.53 281.3 9.8 292.43 23.26 296.06 30.82 299.52 33.88 301.9 37.8 304.06 39.56 307.41 40.42 308.88 45.47 310.25 46.44 Z M 600.71 222.66 600.76 221.53 602.01 222.15 601.33 222.83 600.71 222.66 Z" fill-rule="evenodd" transform="translate(-1,-1) "/></svg>