<svg xmlns="http://www.w3.org/2000/svg" viewBox="0 0 798 983"><path d="M 91.99 628.18 76.56 639.26 60.32 602.14 3.82 557.2 1 451.67 28.54 445.8 68.79 452.65 123.17 394.99 233.34 394.99 304.66 300.18 368.93 293.34 323.73 292.36 468.5 165.28 629.51 97.81 655.64 66.52 694.48 53.81 710.02 21.54 741.09 1.98 772.16 13.71 784.88 1 788.41 33.27 792.64 68.48 754.51 106.61 770.75 181.9 729.09 204.38 740.39 264.99 750.27 287.47 734.03 330.48 771.46 387.17 799 459.49 791.94 518.11 744.62 564.04 712.14 659.78 654.94 696.9 637.99 727.17 644.34 751.59 639.18 752.57 643.64 752.57 642.22 788.71 656.35 810.19 613.98 884.41 603.38 935.18 477.68 946.9 429.66 967.4 425.42 981.07 364.69 984 332.21 965.45 320.2 938.11 323.73 915.65 284.89 882.46 263 887.34 247.46 913.7 229.1 911.75 234.01 894.77 209.33 925.42 171.19 914.68 122.47 949.83 68.09 949.83 35.6 937.14 68.09 875.62 33.49 762.34 39.84 734.01 77.98 683.22 80.09 655.87 119.64 650.01 83.62 654.89 91.99 628.18 Z" transform="translate(-1,-1) "/></svg>