<svg xmlns="http://www.w3.org/2000/svg" viewBox="0 0 46.69000244140625 38.240020751953125"><path d="M 492.87 329.54 492.89 329.55 492.97 329.54 493 329.58 493.04 329.59 493.09 329.57 493.12 329.57 493.15 329.6 493.15 329.62 493.18 329.62 493.24 329.59 493.18 329.58 493.15 329.53 493.18 329.49 493.19 329.42 493.21 329.4 493.24 329.4 493.25 329.4 493.27 329.41 493.33 329.45 493.33 329.49 493.36 329.53 493.36 329.56 493.41 329.57 493.43 329.61 493.51 329.65 493.51 329.68 493.51 329.72 493.49 329.77 493.5 329.81 493.52 329.88 493.5 329.92 493.5 329.93 493.45 329.92 493.38 329.85 493.33 329.83 493.29 329.83 493.26 329.81 493.32 329.78 493.36 329.75 493.35 329.7 493.29 329.67 493.23 329.68 493.17 329.69 493.12 329.7 493.08 329.72 493.05 329.74 493 329.73 492.95 329.68 492.92 329.65 492.87 329.64 492.81 329.59 492.75 329.55 492.73 329.51 492.71 329.43 492.67 329.41 492.63 329.41 492.61 329.4 492.61 329.39 492.61 329.34 492.58 329.29 492.56 329.25 492.56 329.21 492.59 329.22 492.61 329.24 492.63 329.26 492.72 329.3 492.77 329.35 492.79 329.38 492.8 329.44 492.8 329.46 492.84 329.51 492.87 329.54 Z M 492.98 329.1 492.98 329.15 492.97 329.2 492.98 329.24 493.05 329.26 493.07 329.31 492.98 329.31 492.95 329.34 492.96 329.38 493.02 329.4 493.05 329.42 493.09 329.44 493.1 329.49 493.1 329.52 493.04 329.48 492.96 329.46 492.92 329.45 492.89 329.42 492.86 329.38 492.8 329.31 492.75 329.25 492.73 329.22 492.73 329.22 492.76 329.2 492.81 329.19 492.85 329.18 492.88 329.16 492.9 329.12 492.93 329.12 492.93 329.12 492.93 329.12 492.94 329.07 492.92 329.02 492.89 329 492.87 328.99 492.84 328.99 492.79 328.98 492.76 328.98 492.75 328.97 492.75 328.97 492.77 328.95 492.79 328.94 492.8 328.96 492.87 328.97 492.93 328.99 492.96 329.03 492.96 329.04 492.98 329.1 Z M 482.02 308.93 482.04 308.98 482.05 308.98 482.06 308.96 482.06 308.97 482.08 309.05 482.1 309.07 482.11 309.08 482.11 309.08 482.1 309.08 482.08 309.08 482.08 309.09 482.09 309.1 482.07 309.1 482.02 309.07 482.01 309.05 482.02 309.03 482 309.03 481.97 309.03 481.95 309.01 481.94 308.98 481.92 308.98 481.9 309 481.89 308.98 481.91 308.94 481.93 308.91 481.96 308.91 481.99 308.91 482.02 308.93 Z M 481.63 308.95 481.67 308.98 481.74 309.01 481.78 309.02 481.81 309.02 481.83 309.04 481.84 309.05 481.79 309.05 481.79 309.09 481.8 309.11 481.83 309.11 481.86 309.08 481.89 309.06 481.92 309.05 481.93 309.06 481.89 309.09 481.87 309.1 481.85 309.13 481.83 309.17 481.79 309.2 481.75 309.16 481.71 309.12 481.67 309.09 481.58 308.99 481.57 308.98 481.56 308.97 481.56 308.96 481.57 308.96 481.57 308.96 481.57 308.94 481.55 308.92 481.52 308.88 481.52 308.86 481.54 308.87 481.57 308.89 481.61 308.94 481.63 308.95 Z M 481.7 308.77 481.68 308.78 481.66 308.77 481.63 308.74 481.64 308.71 481.66 308.69 481.7 308.69 481.72 308.72 481.72 308.74 481.7 308.77 Z M 481.41 308.7 481.52 308.77 481.53 308.79 481.54 308.82 481.58 308.84 481.61 308.85 481.66 308.88 481.74 308.95 481.76 308.97 481.75 308.98 481.75 308.98 481.75 308.99 481.74 308.99 481.7 308.96 481.67 308.94 481.65 308.94 481.64 308.92 481.63 308.89 481.61 308.88 481.59 308.89 481.57 308.88 481.55 308.86 481.53 308.85 481.52 308.84 481.51 308.84 481.5 308.82 481.5 308.8 481.48 308.79 481.45 308.78 481.44 308.78 481.45 308.78 481.45 308.77 481.43 308.74 481.39 308.72 481.35 308.72 481.34 308.73 481.33 308.74 481.31 308.75 481.31 308.73 481.33 308.69 481.37 308.68 481.41 308.7 Z M 481.86 308.65 481.85 308.67 481.84 308.67 481.83 308.66 481.83 308.66 481.83 308.68 481.83 308.69 481.83 308.69 481.84 308.72 481.86 308.79 481.85 308.81 481.82 308.77 481.81 308.76 481.8 308.74 481.79 308.67 481.79 308.65 481.79 308.62 481.81 308.6 481.83 308.6 481.85 308.61 481.86 308.63 481.86 308.65 Z M 481.06 308.55 481.12 308.61 481.15 308.63 481.18 308.64 481.2 308.63 481.2 308.64 481.21 308.65 481.21 308.67 481.23 308.68 481.25 308.68 481.26 308.68 481.25 308.68 481.25 308.67 481.26 308.66 481.28 308.66 481.31 308.68 481.31 308.69 481.3 308.72 481.28 308.73 481.27 308.73 481.24 308.71 481.06 308.62 481.01 308.6 481 308.64 480.97 308.63 480.93 308.59 480.9 308.55 480.89 308.5 480.91 308.46 480.96 308.4 480.99 308.37 481.01 308.36 481.01 308.38 481 308.4 480.96 308.46 480.96 308.48 480.98 308.5 480.99 308.51 481.01 308.52 481.02 308.52 481.03 308.54 481.05 308.55 481.06 308.55 Z M 481.1 308.33 481.12 308.35 481.15 308.34 481.15 308.34 481.14 308.36 481.12 308.38 481.09 308.37 481.05 308.33 481.02 308.32 481.01 308.29 481 308.27 481 308.22 481 308.12 481.04 308.03 481.09 307.98 481.11 307.97 481.08 308 481.06 308.04 481.04 308.08 481.03 308.13 481.05 308.17 481.09 308.22 481.11 308.22 481.13 308.22 481.12 308.24 481.11 308.27 481.1 308.31 481.1 308.32 481.1 308.33 Z M 509.87 304.3 509.91 304.32 510.03 304.35 510.14 304.38 510.1 304.4 510.07 304.39 510.04 304.38 510 304.37 509.96 304.37 509.93 304.39 509.9 304.41 509.87 304.43 509.85 304.41 509.85 304.42 509.84 304.42 509.82 304.4 509.81 304.4 509.81 304.4 509.81 304.38 509.84 304.37 509.84 304.36 509.84 304.36 509.84 304.34 509.83 304.33 509.82 304.32 509.79 304.31 509.77 304.32 509.75 304.33 509.73 304.33 509.7 304.34 509.67 304.37 509.64 304.41 509.63 304.45 509.62 304.39 509.66 304.32 509.73 304.28 509.79 304.26 509.82 304.27 509.84 304.28 509.87 304.3 Z M 503.15 299.94 503.39 299.97 503.64 300 503.89 300.03 504.14 300.06 504.36 300.09 504.58 300.12 504.8 300.15 505.02 300.17 505.14 300.19 505.14 300.19 505.15 300.19 505.15 300.19 505.17 300.24 505.28 300.42 505.4 300.76 505.41 300.82 505.42 300.95 505.44 301.03 505.47 301.1 505.51 301.16 505.55 301.21 505.6 301.24 505.65 301.28 505.66 301.35 505.78 301.35 506.18 301.35 506.57 301.34 506.97 301.34 507.36 301.33 507.36 301.33 507.41 301.39 507.44 301.41 507.5 301.43 507.51 301.45 507.53 301.56 507.53 301.65 507.51 301.7 507.46 301.68 507.44 301.7 507.44 301.71 507.44 301.72 507.48 301.72 507.52 301.71 507.55 301.69 507.56 301.65 507.59 301.67 507.59 301.69 507.56 301.73 507.55 301.8 507.55 301.83 507.56 301.89 507.59 301.94 507.77 302.14 507.78 302.17 507.75 302.22 507.73 302.27 507.73 302.32 507.74 302.37 507.77 302.41 507.84 302.51 507.85 302.53 507.85 302.56 507.85 302.57 507.88 302.59 507.96 302.63 507.98 302.63 508.06 302.63 508.08 302.63 508.12 302.66 508.15 302.66 508.16 302.67 508.15 302.68 508.15 302.7 508.14 302.71 508.12 302.72 508.11 302.72 508.09 302.71 508.06 302.73 508.05 302.75 508.05 302.78 508.07 302.82 508.11 302.86 508.17 302.9 508.21 302.92 508.21 302.93 508.26 303 508.35 303.09 508.36 303.12 508.34 303.17 508.33 303.2 508.34 303.23 508.34 303.24 508.34 303.26 508.32 303.3 508.29 303.34 508.26 303.36 508.28 303.33 508.28 303.31 508.27 303.25 508.28 303.22 508.29 303.2 508.3 303.18 508.29 303.14 508.26 303.17 508.22 303.27 508.18 303.29 508.23 303.19 508.23 303.16 508.22 303.11 508.2 303.11 508.18 303.15 508.14 303.32 508.14 303.36 508.13 303.37 508.13 303.38 508.13 303.4 508.15 303.4 508.17 303.38 508.18 303.34 508.2 303.33 508.2 303.44 508.21 303.46 508.23 303.46 508.25 303.44 508.26 303.41 508.28 303.44 508.28 303.47 508.27 303.52 508.3 303.53 508.32 303.51 508.34 303.49 508.35 303.46 508.35 303.51 508.35 303.52 508.34 303.53 508.35 303.56 508.34 303.57 508.33 303.58 508.31 303.58 508.33 303.64 508.34 303.65 508.28 303.62 508.26 303.62 508.24 303.65 508.29 303.67 508.33 303.67 508.36 303.64 508.38 303.6 508.4 303.6 508.41 303.64 508.38 303.66 508.38 303.71 508.39 303.75 508.43 303.75 508.44 303.73 508.43 303.72 508.42 303.7 508.41 303.68 508.43 303.66 508.45 303.65 508.5 303.64 508.55 303.63 508.58 303.65 508.66 303.72 508.74 303.76 508.76 303.79 508.72 303.82 508.75 303.84 508.78 303.83 508.79 303.82 508.78 303.79 508.81 303.8 508.85 303.81 508.94 303.82 508.96 303.82 508.99 303.79 509.01 303.79 509.04 303.79 509.08 303.8 509.1 303.81 509.15 303.82 509.18 303.85 509.23 303.92 509.25 303.94 509.27 303.95 509.28 303.96 509.29 303.98 509.3 303.99 509.3 304.04 509.31 304.06 509.28 304.06 509.27 304.05 509.26 304.02 509.26 303.99 509.25 303.99 509.2 304.05 509.08 304.04 509.04 304.08 509.02 304.08 509 304.03 508.97 304.03 508.88 304.08 508.9 304.09 508.95 304.1 508.97 304.11 508.99 304.13 509.01 304.14 509.02 304.15 509.05 304.16 509.06 304.18 509.08 304.19 509.09 304.19 509.13 304.15 509.13 304.14 509.14 304.13 509.14 304.12 509.15 304.11 509.16 304.12 509.18 304.14 509.2 304.14 509.19 304.18 509.16 304.2 509.14 304.21 509.13 304.23 509.12 304.26 509.12 304.32 509.11 304.35 509.14 304.34 509.16 304.33 509.19 304.31 509.21 304.29 509.23 304.28 509.26 304.29 509.31 304.32 509.29 304.36 509.3 304.41 509.32 304.46 509.32 304.51 509.32 304.62 509.33 304.66 509.37 304.66 509.37 304.7 509.38 304.72 509.41 304.71 509.43 304.69 509.42 304.65 509.44 304.63 509.47 304.63 509.51 304.66 509.52 304.64 509.53 304.67 509.52 304.69 509.51 304.72 509.51 304.75 509.5 304.77 509.48 304.78 509.45 304.78 509.43 304.77 509.45 304.8 509.5 304.81 509.52 304.84 509.54 304.83 509.56 304.81 509.58 304.76 509.58 304.77 509.58 304.77 509.59 304.77 509.6 304.77 509.57 304.82 509.59 304.82 509.65 304.81 509.68 304.81 509.74 304.84 509.78 304.84 509.72 304.78 509.7 304.74 509.73 304.71 509.76 304.7 509.78 304.72 509.8 304.73 509.82 304.74 509.84 304.73 509.88 304.69 509.88 304.73 509.86 304.79 509.85 304.83 509.87 304.88 509.88 304.91 509.89 304.93 509.93 304.95 509.97 304.99 510.1 305.19 510.17 305.27 510.19 305.29 510.25 305.32 510.27 305.33 510.3 305.37 510.33 305.38 510.46 305.45 510.55 305.51 510.6 305.52 510.65 305.51 510.71 305.52 510.77 305.56 510.84 305.62 510.95 305.77 510.99 305.84 511.15 305.96 511.18 306 511.19 306.06 511.09 305.97 511.04 305.94 510.92 305.92 510.89 305.91 510.86 305.88 510.85 305.79 510.83 305.81 510.81 305.85 510.8 305.89 510.8 305.92 510.8 305.95 510.8 305.98 510.82 306 510.84 306.03 510.85 306.04 510.84 306.19 510.84 306.23 510.9 306.42 510.93 306.46 510.96 306.49 511 306.52 511.19 306.58 511.26 306.64 511.3 306.73 511.31 306.84 511.31 307.11 511.3 307.16 511.28 307.21 511.24 307.24 511.24 307.2 511.22 307.19 511.2 307.2 511.18 307.23 511.19 307.29 511.18 307.38 511.17 307.48 511.15 307.54 511.11 307.52 511.1 307.48 511.1 307.45 511.1 307.41 511.08 307.38 511.06 307.36 511.04 307.34 511.03 307.33 511.01 307.32 511 307.32 511 307.31 510.99 307.24 510.99 307.23 510.98 307.21 510.96 307.18 510.93 307.16 510.91 307.14 510.88 307.15 510.82 307.26 510.8 307.28 510.78 307.29 510.79 307.32 510.81 307.36 510.83 307.37 510.83 307.39 510.85 307.42 510.86 307.44 510.85 307.45 510.83 307.46 510.82 307.47 510.81 307.48 510.82 307.52 510.82 307.56 510.83 307.59 510.81 307.63 510.85 307.64 510.88 307.62 510.9 307.59 510.89 307.54 510.91 307.55 510.92 307.56 510.95 307.6 510.96 307.6 510.97 307.6 510.98 307.6 510.98 307.62 510.98 307.63 510.98 307.64 510.99 307.64 511 307.65 511.06 307.66 511.08 307.69 511.09 307.74 511.12 307.78 511.12 307.8 511.07 307.84 511.1 307.96 511.15 308.08 511.19 308.17 511.33 308.33 511.38 308.42 511.4 308.53 511.39 308.53 511.35 308.42 511.34 308.4 511.31 308.39 511.28 308.38 511.25 308.36 511.22 308.32 511.19 308.29 511.15 308.29 511.15 308.33 511.16 308.37 511.22 308.41 511.24 308.43 511.25 308.41 511.25 308.4 511.27 308.4 511.35 308.57 511.6 308.9 511.66 308.95 511.66 308.92 511.64 308.88 511.64 308.85 511.66 308.84 511.68 308.82 511.69 308.83 511.7 308.88 511.71 308.9 511.72 308.9 511.72 308.91 511.74 308.94 511.78 308.96 511.86 308.99 511.88 309.01 511.92 309.12 511.9 309.14 511.93 309.17 511.96 309.24 511.99 309.31 512 309.36 511.99 309.39 511.98 309.45 511.98 309.48 511.99 309.51 512 309.53 512.01 309.55 512.02 309.59 512.05 309.65 512.06 309.69 512.04 309.79 512.06 309.88 512.08 309.94 512.1 309.97 512.12 309.92 512.18 309.97 512.24 310.05 512.26 310.09 512.3 310.12 512.34 310.28 512.4 310.32 512.44 310.36 512.46 310.45 512.47 310.6 512.48 310.63 512.5 310.67 512.52 310.71 512.54 310.74 512.58 310.74 512.62 310.69 512.79 310.96 512.89 311.08 513 311.12 513.14 311.14 513.26 311.14 513.38 311.1 513.53 310.98 513.53 311 513.65 310.99 513.67 311 513.68 311.02 513.7 311.04 513.73 311.02 513.73 311.04 513.73 311.06 513.72 311.08 513.71 311.08 513.69 311.1 513.7 311.12 513.71 311.15 513.71 311.15 513.71 311.23 513.72 311.25 513.76 311.23 513.79 311.21 513.85 311.1 513.88 311.07 513.91 311.05 513.93 311.02 513.93 310.97 513.96 310.99 514 310.99 514.03 311 514.05 311.03 514.06 311.06 514.09 311.06 514.12 311.06 514.15 311.08 514.15 311.1 514.12 311.12 514.07 311.13 514.03 311.15 514.02 311.19 514.01 311.19 513.96 311.25 513.95 311.27 513.94 311.3 513.93 311.32 513.8 311.41 513.77 311.44 513.77 311.45 513.74 311.49 513.73 311.52 513.72 311.54 513.72 311.59 513.71 311.62 513.71 311.63 513.72 311.65 513.71 311.66 513.71 311.67 513.68 311.66 513.67 311.67 513.67 311.67 513.67 311.73 513.67 311.75 513.68 311.76 513.81 311.78 513.87 311.76 513.89 311.75 513.91 311.73 513.93 311.72 513.97 311.71 514.11 311.75 514.15 311.78 514.22 311.85 514.31 311.88 514.33 311.97 514.33 312.03 514.32 312.19 514.33 312.25 514.37 312.31 514.49 312.47 514.61 312.62 514.72 312.77 514.84 312.92 514.95 313.07 515.07 313.22 515.19 313.37 515.3 313.52 515.42 313.66 515.53 313.81 515.65 313.96 515.76 314.11 515.88 314.26 515.99 314.41 516.11 314.56 516.23 314.71 516.34 314.85 516.46 315.01 516.5 315.05 516.56 315.06 516.92 315.11 517.22 315.15 517.53 315.19 517.84 315.23 518.15 315.27 518.46 315.31 518.76 315.36 519.07 315.4 519.38 315.44 519.69 315.48 520 315.52 520.31 315.56 520.61 315.6 520.92 315.64 521.23 315.68 521.54 315.72 521.85 315.76 522.15 315.8 522.18 315.8 522.33 315.61 522.47 315.84 522.65 316.14 522.83 316.44 523.01 316.73 523.19 317.03 523.31 317.23 523.33 317.28 523.33 317.33 523.25 317.6 523.24 317.64 523.22 317.68 523.18 317.82 523.12 318.02 523.03 318.29 522.94 318.6 522.83 318.95 522.71 319.33 522.68 319.42 522.59 319.72 522.47 320.1 522.35 320.48 522.24 320.83 522.14 321.14 522.06 321.41 522 321.61 521.95 321.74 521.94 321.79 521.87 322.01 521.54 322.13 521.16 322.26 520.78 322.4 520.4 322.53 520.02 322.66 519.64 322.8 519.26 322.93 518.88 323.06 518.5 323.2 518.12 323.33 517.74 323.46 517.36 323.6 516.98 323.73 516.6 323.86 516.22 324 515.85 324.13 515.47 324.26 515.22 324.35 514.87 324.4 514.51 324.45 514.16 324.5 513.8 324.55 513.45 324.6 513.09 324.65 512.74 324.7 512.38 324.75 512.03 324.8 511.67 324.85 511.32 324.9 510.96 324.95 510.61 325 510.25 325.05 509.9 325.1 509.54 325.15 509.19 325.2 508.9 325.24 508.7 325.32 508.6 325.37 508.28 325.53 507.9 325.72 507.47 325.94 507.09 326.14 506.81 326.28 506.76 326.32 506.59 326.53 506.39 326.78 506.04 327.22 505.7 327.63 505.49 327.9 505.45 327.97 505.35 328.26 505.2 328.67 505.13 328.76 505.13 328.76 504.88 328.91 504.61 329.06 504.54 329.09 504.47 329.1 504.18 329.09 504.15 329.09 504.12 329.07 503.93 328.81 503.77 328.58 503.62 328.38 503.54 328.34 503.05 328.4 502.68 328.45 502.14 328.4 501.72 328.36 501.17 328.3 500.7 328.25 500.6 328.22 500.24 328.01 500.12 327.98 499.74 327.98 499.69 327.98 499.42 327.98 498.97 327.97 498.92 327.98 498.78 328.04 498.72 328.04 498.56 328.01 498.43 328 498.21 328.03 498.04 328.07 498 328.07 497.91 328.04 497.86 328.04 497.83 328.06 497.8 328.12 497.76 328.16 497.72 328.18 497.66 328.17 497.58 328.13 497.54 328.12 497.49 328.15 497.46 328.19 497.43 328.23 497.4 328.27 497.35 328.27 497.32 328.27 497.31 328.26 497.3 328.25 497.29 328.23 497.3 328.19 497.3 328.16 497.28 328.15 497.23 328.17 497.19 328.17 497.1 328.16 497.02 328.17 496.98 328.17 496.94 328.16 496.84 328.08 496.69 327.91 496.6 327.86 496.43 327.79 496.4 327.78 496.32 327.77 496.28 327.76 496.23 327.77 496.18 327.79 495.99 327.91 495.8 328.08 495.69 328.21 495.68 328.22 495.81 328.26 495.85 328.29 495.88 328.34 495.87 328.39 495.82 328.41 495.77 328.43 495.71 328.45 495.66 328.49 495.65 328.53 495.65 328.59 495.64 328.63 495.59 328.72 495.58 328.77 495.59 328.81 495.61 328.85 495.62 328.9 495.62 328.95 495.61 328.99 495.57 329.08 495.56 329.14 495.57 329.18 495.61 329.27 495.64 329.35 495.67 329.37 495.75 329.39 495.77 329.41 495.79 329.44 495.79 329.47 495.78 329.49 495.76 329.5 495.74 329.51 495.72 329.53 495.69 329.57 495.7 329.61 495.72 329.64 495.73 329.69 495.73 329.7 495.72 329.74 495.68 329.75 495.59 329.72 495.53 329.71 495.51 329.72 495.49 329.75 495.49 329.8 495.48 329.85 495.42 330 495.4 330.04 495.35 330.07 495.25 330.13 495.22 330.14 495.13 330.16 495.11 330.17 495.1 330.2 495.11 330.23 495.11 330.27 495.09 330.31 495.03 330.35 494.96 330.38 494.85 330.42 494.85 330.41 494.85 330.33 494.83 330.3 494.86 330.23 494.85 330.18 494.74 330.06 494.72 330.01 494.71 329.97 494.71 329.87 494.74 329.77 494.73 329.73 494.69 329.72 494.71 329.7 494.68 329.67 494.66 329.64 494.66 329.61 494.68 329.59 494.67 329.57 494.6 329.51 494.59 329.49 494.56 329.45 494.51 329.4 494.49 329.38 494.42 329.35 494.4 329.34 494.38 329.36 494.3 329.25 494.33 329.15 494.32 329.11 494.32 329 494.31 328.96 494.28 328.95 494.26 328.94 494.25 328.9 494.24 328.88 494.2 328.88 494.15 328.88 494.12 328.88 494.09 328.86 494.07 328.82 494.04 328.76 494.03 328.72 494.02 328.64 494.01 328.61 493.99 328.59 493.89 328.55 493.9 328.59 493.91 328.63 493.95 328.69 493.91 328.72 493.93 328.87 493.9 328.91 493.89 328.86 493.89 328.71 493.88 328.66 493.85 328.57 493.81 328.26 493.8 328.2 493.79 328.16 493.8 328.05 493.8 328 493.78 327.95 493.77 327.92 493.75 327.92 493.72 327.91 493.71 327.91 493.7 327.9 493.69 327.88 493.68 327.85 493.44 327.65 493.42 327.64 493.41 327.65 493.4 327.63 493.37 327.58 493.33 327.52 493.32 327.48 493.31 327.47 493.29 327.46 493.24 327.47 493.22 327.46 493.21 327.43 493.2 327.41 493.1 327.31 493.1 327.32 493.08 327.33 493.07 327.33 493.05 327.33 493.03 327.31 492.96 327.21 492.94 327.2 492.81 327.08 492.76 327.1 492.68 327.04 492.63 327.05 492.61 326.99 492.57 326.95 492.52 326.91 492.48 326.87 492.38 326.75 492.37 326.71 492.37 326.68 492.38 326.66 492.38 326.64 492.35 326.63 492.33 326.63 492.33 326.61 492.33 326.59 492.33 326.57 492.23 326.49 492.2 326.44 492.22 326.4 492.18 326.35 492.16 326.32 492.16 326.29 492.15 326.28 492.13 326.27 492.12 326.26 492.13 326.22 492.08 326.22 492.04 326.21 492.05 326.2 492.05 326.19 492.05 326.18 492.07 326.17 492.05 326.15 492.03 326.13 492.01 326.13 491.98 326.14 491.99 326.12 492 326.1 492 326.08 491.99 326.06 492.01 326.03 491.99 326.01 491.96 326.01 491.93 326.01 491.94 325.98 491.93 325.94 491.91 325.89 491.89 325.86 491.88 325.84 491.87 325.75 491.86 325.73 491.86 325.71 491.85 325.58 491.85 325.57 491.84 325.56 491.83 325.55 491.82 325.55 491.81 325.54 491.8 325.52 491.8 325.5 491.8 325.49 491.72 325.43 491.7 325.42 491.7 325.39 491.69 325.37 491.67 325.34 491.64 325.33 491.62 325.31 491.61 325.3 491.61 325.3 491.6 325.3 491.57 325.33 491.57 325.33 491.54 325.32 491.52 325.31 491.49 325.29 491.48 325.27 491.42 325.13 491.39 325.1 491.36 325.07 491.35 325.04 491.35 325.01 491.35 324.96 491.41 324.81 491.41 324.76 491.42 324.75 491.43 324.74 491.44 324.72 491.41 324.69 491.41 324.69 491.36 324.66 491.35 324.66 491.26 324.64 491.24 324.56 491.24 324.55 491.2 324.49 491.19 324.49 491.18 324.46 491.19 324.44 491.2 324.39 491.21 324.37 491.22 324.35 491.23 324.33 491.24 324.29 491.25 324.24 491.27 324.18 491.26 324.15 491.21 324.12 491.17 324.1 491.07 324.07 491.04 324.05 491.01 323.98 490.98 323.93 490.97 323.91 490.97 323.88 490.99 323.83 490.99 323.81 490.98 323.77 490.97 323.74 490.96 323.72 490.92 323.7 490.91 323.68 490.9 323.63 490.88 323.6 490.85 323.59 490.79 323.54 490.79 323.53 490.79 323.5 490.79 323.48 490.77 323.44 490.76 323.42 490.76 323.4 490.75 323.36 490.75 323.33 490.76 323.31 490.78 323.29 490.79 323.27 490.78 323.26 490.78 323.23 490.78 323.21 490.77 323.19 490.76 323.16 490.57 323.09 490.52 323.06 490.41 322.95 490.35 322.92 490.35 322.9 490.38 322.91 490.43 322.94 490.44 322.84 490.44 322.72 490.42 322.67 490.32 322.52 490.27 322.5 490.16 322.48 490.12 322.48 490.1 322.51 490.12 322.57 490.09 322.54 490.06 322.49 490.04 322.44 490.04 322.42 490.01 322.4 489.92 322.27 489.85 322.23 489.83 322.21 489.84 322.2 489.86 322.13 489.85 322.09 489.83 322.07 489.76 322.04 489.67 321.99 489.65 321.98 489.63 321.95 489.61 321.94 489.59 321.93 489.54 321.85 489.52 321.84 489.47 321.83 489.45 321.83 489.41 321.82 489.36 321.79 489.26 321.71 489.18 321.62 489.2 321.58 489.16 321.56 489.1 321.54 489.03 321.53 489.02 321.52 489 321.49 488.96 321.46 488.94 321.44 488.95 321.43 488.92 321.41 488.85 321.35 488.82 321.33 488.77 321.33 488.71 321.34 488.67 321.36 488.65 321.38 488.6 321.36 488.5 321.3 488.45 321.28 488.45 321.31 488.47 321.33 488.49 321.34 488.5 321.35 488.51 321.36 488.54 321.37 488.55 321.39 488.54 321.39 488.5 321.38 488.28 321.25 488.25 321.22 488.22 321.21 488.18 321.2 488.13 321.18 488.1 321.11 488.06 321.07 487.94 320.98 487.88 320.92 487.75 320.71 487.71 320.67 487.71 320.65 487.73 320.65 487.75 320.65 487.76 320.64 487.77 320.62 487.73 320.61 487.71 320.6 487.65 320.55 487.64 320.52 487.63 320.45 487.62 320.43 487.54 320.34 487.54 320.3 487.57 320.25 487.49 320.22 487.46 320.22 487.47 320.24 487.48 320.25 487.49 320.26 487.51 320.27 487.47 320.25 487.42 320.22 487.39 320.19 487.4 320.15 487.38 320.14 487.37 320.13 487.38 320.11 487.39 320.09 487.4 320.11 487.42 320.12 487.44 320.13 487.46 320.14 487.45 320.11 487.45 320.09 487.45 320.08 487.44 320.06 487.43 320.06 487.42 320.06 487.4 320.06 487.37 320.01 487.36 320.01 487.36 320.06 487.31 320.02 487.25 319.97 487.2 319.92 487.21 319.86 487.21 319.87 487.23 319.89 487.25 319.89 487.25 319.88 487.24 319.85 487.23 319.84 487.22 319.83 487.2 319.82 487.18 319.81 487.15 319.82 487.13 319.82 487.11 319.83 487.11 319.82 487.05 319.72 487.03 319.69 487.03 319.65 487.02 319.59 487.02 319.57 486.99 319.55 486.98 319.53 486.98 319.5 486.97 319.49 486.95 319.49 486.86 319.42 486.84 319.39 486.82 319.33 486.8 319.28 486.8 319.25 486.8 319.24 486.82 319.21 486.83 319.2 486.81 319.16 486.73 319.04 486.7 319.02 486.63 318.91 486.8 318.75 486.83 318.7 486.83 318.62 486.82 318.55 486.78 318.52 486.78 318.5 486.81 318.48 486.8 318.45 486.77 318.37 486.74 318.42 486.72 318.43 486.69 318.4 486.67 318.35 486.69 318.34 486.65 318.29 486.65 318.22 486.65 318.14 486.65 318.08 486.62 318.01 486.63 317.98 486.67 317.96 486.68 317.95 486.69 317.92 486.69 317.88 486.67 317.85 486.66 317.9 486.65 317.92 486.63 317.93 486.6 317.93 486.59 317.92 486.59 317.9 486.58 317.88 486.57 317.87 486.56 317.86 486.55 317.86 486.54 317.84 486.53 317.81 486.53 317.77 486.52 317.76 486.52 317.75 486.49 317.74 486.49 317.73 486.48 317.71 486.48 317.71 486.4 317.61 486.34 317.47 486.3 317.27 486.3 317.22 486.36 317.2 486.42 317.28 486.46 317.28 486.47 317.23 486.47 317.18 486.48 317.15 486.49 317.14 486.52 317.12 486.52 317.11 486.53 317.07 486.55 316.97 486.55 316.92 486.54 316.92 486.51 317 486.49 316.97 486.5 316.94 486.52 316.92 486.52 316.88 486.52 316.79 486.54 316.72 486.61 316.64 486.64 316.54 486.65 316.51 486.67 316.49 486.69 316.47 486.72 316.4 486.76 316.36 486.77 316.35 486.77 316.32 486.75 316.3 486.73 316.28 486.7 316.29 486.69 316.31 486.67 316.38 486.66 316.4 486.61 316.41 486.6 316.34 486.63 316.24 486.61 316.11 486.63 315.98 486.61 315.92 486.6 315.88 486.54 315.8 486.48 315.67 486.43 315.59 486.42 315.56 486.42 315.53 486.48 315.47 486.48 315.46 486.37 315.34 486.33 315.3 486.31 315.31 486.32 315.33 486.36 315.37 486.37 315.39 486.38 315.41 486.38 315.44 486.39 315.46 486.4 315.49 486.39 315.5 486.36 315.44 486.29 315.34 486.23 315.27 486.12 315.07 486.12 315.03 486.18 315.07 486.26 315.23 486.3 315.24 486.32 315.26 486.34 315.25 486.36 315.24 486.37 315.21 486.35 315.18 486.31 315.11 486.29 315.09 486.27 315.09 486.25 315.07 486.24 315.05 486.23 315.02 486.21 314.98 486.17 314.96 486.12 314.95 486.08 314.93 486.04 314.94 486.01 314.9 485.96 314.8 485.99 314.78 486 314.74 486.02 314.71 486.02 314.67 486.02 314.61 486 314.57 486 314.54 485.98 314.53 485.96 314.56 485.93 314.51 485.89 314.46 485.85 314.38 485.81 314.33 485.79 314.28 485.77 314.24 485.76 314.21 485.74 314.17 485.74 314.14 485.72 314.06 485.69 314.01 485.67 313.94 485.65 313.84 485.65 313.78 485.63 313.72 485.63 313.68 485.59 313.64 485.57 313.61 485.57 313.57 485.56 313.54 485.51 313.56 485.49 313.55 485.47 313.55 485.48 313.59 485.5 313.61 485.55 313.63 485.55 313.65 485.48 313.64 485.43 313.6 485.43 313.48 485.33 313.35 485.28 313.19 485.26 313.13 485.25 313.07 485.24 313.02 485.2 312.97 485.18 312.96 485.16 312.96 485.12 312.94 485.1 312.92 485.09 312.88 485.07 312.84 485.04 312.81 485.01 312.8 484.97 312.79 484.94 312.77 484.92 312.75 484.9 312.71 484.86 312.67 484.84 312.66 484.81 312.63 484.76 312.61 484.73 312.61 484.67 312.58 484.64 312.55 484.6 312.51 484.56 312.46 484.51 312.42 484.48 312.39 484.41 312.33 484.39 312.32 484.37 312.31 484.35 312.32 484.33 312.33 484.28 312.3 484.25 312.27 484.16 312.21 484.09 312.16 484.1 312.13 484.14 312.1 484.2 312.1 484.17 312.07 484.14 312.08 484.1 312.11 484.08 312.08 484.11 312.03 484.12 312 484.09 311.99 484.08 312 484.05 312.01 484.04 312.03 484.05 312.05 484.06 312.07 484.06 312.1 484.06 312.12 484.05 312.13 484 312.12 483.94 312.13 483.83 312.06 483.8 312.03 483.72 311.96 483.7 311.91 483.67 311.89 483.63 311.87 483.59 311.85 483.56 311.82 483.52 311.79 483.46 311.79 483.44 311.79 483.4 311.82 483.4 311.85 483.41 311.9 483.32 311.9 483.29 311.86 483.23 311.83 483.18 311.85 483.13 311.8 483.1 311.74 483.05 311.68 482.97 311.61 482.94 311.53 482.97 311.48 482.98 311.48 483.03 311.51 483.04 311.47 483.03 311.43 482.72 310.99 482.59 310.8 482.52 310.71 482.52 310.64 482.53 310.63 482.53 310.6 482.53 310.58 482.52 310.56 482.5 310.55 482.48 310.58 482.45 310.59 482.41 310.56 482.38 310.52 482.35 310.44 482.4 310.44 482.45 310.45 482.5 310.45 482.56 310.43 482.59 310.39 482.59 310.26 482.64 310.16 482.63 310.11 482.59 310 482.57 309.95 482.59 309.8 482.58 309.75 482.57 309.7 482.55 309.65 482.53 309.6 482.49 309.55 482.46 309.53 482.44 309.51 482.42 309.49 482.4 309.45 482.38 309.43 482.33 309.39 482.29 309.35 482.25 309.29 482.22 309.24 482.22 309.21 482.21 309.16 482.21 309.14 482.19 309.11 482.16 309.08 482.15 309.05 482.19 309.02 482.16 308.97 482.06 308.87 482.04 308.84 482 308.73 481.99 308.72 481.96 308.7 481.95 308.68 481.95 308.67 481.95 308.64 481.94 308.63 481.92 308.6 481.89 308.53 481.88 308.5 481.85 308.48 481.78 308.45 481.75 308.43 481.67 308.29 481.61 308.23 481.56 308.22 481.56 308.25 481.57 308.28 481.58 308.3 481.56 308.32 481.53 308.31 481.46 308.26 481.43 308.25 481.41 308.24 481.36 308.17 481.34 308.15 481.34 308.13 481.34 308.08 481.34 308.07 481.31 308.06 481.3 308.05 481.27 307.99 481.27 307.93 481.29 307.87 481.34 307.82 481.36 307.77 481.37 307.7 481.36 307.63 481.34 307.58 481.29 307.52 481.22 307.49 481.14 307.47 481.07 307.46 480.99 307.43 480.94 307.36 480.8 307.03 480.74 306.94 480.65 306.81 480.48 306.41 480.31 306.1 480.2 305.96 480.08 305.85 480.02 305.78 479.98 305.67 479.91 305.55 479.87 305.4 479.83 305.41 479.8 305.38 479.75 305.3 479.6 305.17 479.43 304.94 479.36 304.82 479.36 304.8 479.35 304.77 479.36 304.75 479.38 304.72 479.39 304.7 479.37 304.67 479.32 304.59 479.13 304.37 479.03 304.29 479 304.27 478.95 304.2 478.89 304.11 478.82 304.04 478.74 303.89 478.72 303.82 478.71 303.77 478.71 303.68 478.69 303.63 478.67 303.6 478.6 303.52 478.56 303.46 478.5 303.31 478.46 303.24 478.44 303.23 478.39 303.21 478.37 303.2 478.36 303.18 478.35 303.15 478.33 303.1 478.32 303.03 478.3 302.99 478.18 302.87 478.15 302.8 478.13 302.78 478.09 302.76 477.99 302.68 477.99 302.7 477.97 302.7 477.95 302.66 477.97 302.64 478.02 302.62 478.06 302.59 478.09 302.6 478.08 302.59 478.06 302.55 478.05 302.54 477.99 302.53 477.97 302.52 477.96 302.52 477.96 302.54 477.94 302.54 477.93 302.52 477.92 302.51 477.9 302.49 477.89 302.49 477.85 302.49 477.83 302.49 477.8 302.46 477.7 302.39 477.68 302.4 477.65 302.4 477.63 302.4 477.63 302.42 477.64 302.43 477.65 302.44 477.63 302.43 477.6 302.41 477.58 302.4 477.55 302.41 477.53 302.43 477.46 302.45 477.44 302.46 477.43 302.47 477.42 302.49 477.41 302.49 477.41 302.47 477.39 302.47 477.36 302.48 477.32 302.47 477.27 302.47 477.24 302.51 477.24 302.5 477.24 302.49 477.23 302.49 477.23 302.47 477.24 302.47 477.24 302.45 477.23 302.44 477.25 302.42 477.27 302.41 477.29 302.4 477.27 302.39 477.24 302.39 477.22 302.4 477.2 302.4 477.2 302.42 477.21 302.42 477.21 302.44 477.19 302.45 477.17 302.46 477.15 302.51 477.14 302.5 477.14 302.49 477.13 302.49 477.12 302.49 477.13 302.47 477.14 302.46 477.16 302.45 477.18 302.44 477.18 302.43 477.18 302.42 477.18 302.4 477.15 302.4 477.13 302.41 477.11 302.42 477.11 302.45 477.09 302.45 477.09 302.45 477.09 302.45 477.08 302.45 477.07 302.45 477.08 302.43 477.08 302.42 477.06 302.42 477.06 302.44 477.04 302.44 477.03 302.42 477.02 302.41 477.01 302.41 477 302.42 476.98 302.41 476.97 302.4 476.96 302.38 476.95 302.37 476.94 302.34 476.93 302.34 476.92 302.35 476.92 302.36 476.91 302.37 476.88 302.35 476.87 302.36 476.87 302.38 476.86 302.4 476.85 302.41 476.82 302.43 476.8 302.44 476.8 302.45 476.85 302.49 476.85 302.51 476.83 302.51 476.83 302.51 476.82 302.52 476.82 302.52 476.8 302.51 476.79 302.55 476.79 302.58 476.77 302.6 476.73 302.61 476.73 302.6 476.73 302.6 476.74 302.6 476.74 302.59 476.73 302.57 476.72 302.54 476.71 302.51 476.71 302.45 476.69 302.43 476.64 302.45 476.65 302.42 476.64 302.4 476.67 302.36 476.69 302.34 476.71 302.33 476.71 302.32 476.72 302.31 476.74 302.29 476.76 302.28 476.74 302.27 476.75 302.25 476.76 302.24 476.77 302.24 476.79 302.23 476.79 302.24 476.78 302.25 476.77 302.25 476.77 302.25 476.79 302.26 476.81 302.27 476.82 302.26 476.83 302.23 476.82 302.23 476.82 302.22 476.8 302.2 476.81 302.18 476.82 302.17 476.85 302.16 476.85 302.15 476.84 302.12 476.86 302.01 476.87 302.01 476.89 302.02 476.89 302.03 476.89 302.02 476.89 301.99 476.88 302 476.88 302.01 476.86 301.99 476.91 301.95 476.95 301.87 476.99 301.78 477.01 301.66 477.05 301.59 477.07 301.52 477.08 301.48 477.15 301.37 477.13 301.25 477.13 301.13 477.09 301.02 477.13 300.87 477.16 300.79 477.2 300.72 477.2 300.7 477.18 300.7 477.22 300.64 477.23 300.61 477.21 300.58 477.21 300.57 477.24 300.49 477.23 300.46 477.2 300.44 477.2 300.43 477.23 300.37 477.26 300.27 477.28 300.16 477.26 300.1 477.26 300.06 477.28 300.02 477.3 299.96 477.35 299.74 477.36 299.7 477.38 299.65 477.38 299.63 477.38 299.6 477.4 299.57 477.45 299.55 477.44 299.5 477.43 299.45 477.44 299.41 477.47 299.42 477.47 299.42 477.47 299.41 477.47 299.41 477.48 299.41 477.47 299.37 477.46 299.33 477.47 299.29 477.72 299.33 477.98 299.38 478.33 299.44 478.63 299.49 478.96 299.55 479.22 299.59 479.35 299.61 479.61 299.66 479.84 299.7 479.9 299.7 479.95 299.67 480.19 299.47 480.43 299.28 480.69 299.07 480.86 298.93 481 298.69 481.14 298.45 481.24 298.28 481.36 298.07 481.42 298.02 481.48 297.99 481.67 297.95 481.87 297.91 482.18 297.84 482.5 297.77 482.8 297.71 483.06 297.66 483.11 297.62 483.21 297.38 483.28 297.2 483.36 297.01 483.42 296.85 483.45 296.8 483.5 296.76 483.74 296.62 484.01 296.47 484.17 296.38 484.19 296.37 484.19 296.37 484.19 296.37 484.19 296.37 484.08 296.24 483.84 295.96 483.6 295.67 483.35 295.39 483.11 295.1 483.1 295.09 483.09 295.08 483.09 295.08 483.08 295.07 482.79 294.76 482.51 294.45 482.5 294.44 482.22 294.13 481.93 293.82 482.01 293.79 482.48 293.66 483.03 293.49 483.57 293.33 483.7 293.29 484.12 293.16 484.2 293.14 484.62 293.02 485.12 292.88 485.62 292.73 486.12 292.59 486.37 292.51 486.37 292.51 486.37 292.51 486.45 292.48 486.71 292.23 486.75 292.2 486.77 292.19 486.78 292.19 486.79 292.19 486.79 292.19 486.8 292.18 487.24 292.26 487.68 292.33 488.11 292.41 488.55 292.48 488.73 292.51 488.73 292.51 488.73 292.51 488.73 292.51 489.49 292.66 489.61 292.71 489.73 292.78 489.96 292.91 490.15 293.03 490.35 293.15 490.54 293.26 490.74 293.38 490.93 293.49 491.13 293.61 491.32 293.73 491.51 293.84 491.71 293.96 491.9 294.07 492.1 294.19 492.29 294.3 492.49 294.42 492.68 294.53 492.88 294.65 493.07 294.76 493.27 294.88 493.41 295.01 493.6 295.17 493.79 295.33 493.98 295.49 494.16 295.65 494.37 295.84 494.58 296.02 494.79 296.2 494.84 296.24 495 296.38 495 296.38 495 296.38 495 296.38 495.24 296.57 495.43 296.73 495.63 296.89 495.82 297.05 496.02 297.21 496.27 297.41 496.53 297.62 496.78 297.83 497.04 298.03 497.14 298.12 497.29 298.24 497.54 298.44 497.8 298.65 498.05 298.85 498.26 299.02 498.47 299.19 498.69 299.36 498.9 299.53 499.07 299.67 499.08 299.67 499.1 299.68 499.11 299.68 499.12 299.69 499.33 299.71 499.5 299.72 499.68 299.74 499.86 299.76 500.03 299.77 500.26 299.79 500.49 299.81 500.71 299.83 500.94 299.85 501.17 299.87 501.4 299.9 501.62 299.92 501.85 299.94 502.02 299.95 502.19 299.97 502.36 299.98 502.53 300 502.76 300.02 502.86 300 502.91 299.99 502.95 299.98 503.05 299.96 503.15 299.94 Z" fill-rule="evenodd" id="Saudi Arabia" transform="translate(-476.6400146484375,-292.17999267578125) "/></svg>