<svg xmlns="http://www.w3.org/2000/svg" viewBox="0 0 13.649993896484375 9.980010986328125"><path d="M 372.81 334.06 372.83 334.13 372.88 334.17 372.89 334.2 372.91 334.23 372.94 334.24 372.98 334.25 373 334.25 372.99 334.28 372.98 334.29 372.97 334.31 372.98 334.33 372.99 334.35 373.02 334.35 373.03 334.37 373.03 334.41 373.02 334.42 372.98 334.47 372.96 334.49 372.96 334.51 372.95 334.54 372.95 334.57 372.93 334.58 372.89 334.61 372.88 334.65 372.88 334.69 372.91 334.79 372.91 334.84 372.91 334.94 372.94 334.94 373.14 335.02 373.16 335.05 373.15 335.08 373.12 335.09 373.13 335.12 373.16 335.15 373.18 335.17 373.27 335.2 373.3 335.22 373.32 335.26 373.41 335.45 373.41 335.5 373.39 335.59 373.34 335.76 373.34 335.86 373.37 335.92 373.4 335.95 373.44 335.99 373.48 336.03 373.5 336.07 373.5 336.12 373.48 336.21 373.45 336.31 373.37 336.39 373.18 336.5 373.21 336.52 373.24 336.57 373.29 336.65 373.32 336.74 373.37 336.81 373.41 336.86 373.54 336.95 373.55 336.97 373.57 337 373.58 337.02 373.6 337.03 373.63 337.03 373.64 337.04 373.66 337.06 373.65 337.1 373.62 337.23 373.63 337.25 373.65 337.26 373.71 337.28 373.72 337.3 373.73 337.31 373.74 337.36 373.75 337.37 373.78 337.4 373.79 337.4 373.81 337.38 373.9 337.31 373.9 337.27 373.92 337.22 373.94 337.19 373.97 337.17 374.01 337.17 374.02 337.19 374.03 337.21 374.06 337.23 374.08 337.23 374.12 337.22 374.18 337.22 374.19 337.23 374.18 337.26 374.19 337.29 374.21 337.29 374.24 337.28 374.26 337.27 374.26 337.32 374.27 337.37 374.33 337.44 374.38 337.49 374.39 337.51 374.38 337.53 374.36 337.57 374.35 337.6 374.35 337.64 374.38 337.67 374.4 337.69 374.42 337.72 374.42 337.8 374.44 337.84 374.47 337.85 374.5 337.86 374.53 337.88 374.56 337.9 374.6 337.91 374.62 337.92 374.62 337.94 374.6 337.95 374.6 337.97 374.63 338.01 374.64 338.04 374.65 338.05 374.66 338.06 374.68 338.07 374.68 338.08 374.66 338.09 374.66 338.1 374.66 338.12 374.65 338.16 374.64 338.18 374.68 338.19 374.7 338.18 374.72 338.15 374.73 338.11 374.74 338.13 374.75 338.16 374.76 338.18 374.76 338.24 374.76 338.25 374.74 338.26 374.72 338.28 374.71 338.28 374.7 338.27 374.68 338.27 374.67 338.27 374.67 338.29 374.68 338.3 374.69 338.31 374.7 338.32 374.69 338.35 374.67 338.37 374.67 338.39 374.67 338.43 374.67 338.44 374.66 338.45 374.66 338.46 374.66 338.48 374.67 338.48 374.68 338.48 374.68 338.48 374.69 338.49 374.69 338.5 374.7 338.51 374.71 338.53 374.72 338.55 374.72 338.58 374.71 338.61 374.7 338.62 374.7 338.63 374.72 338.67 374.73 338.7 374.71 338.72 374.68 338.73 374.65 338.74 374.62 338.8 374.61 338.81 374.59 338.83 374.59 338.86 374.6 338.87 374.62 338.87 374.64 338.89 374.65 338.91 374.65 338.93 374.64 339 374.64 339.03 374.64 339.04 374.65 339.06 374.64 339.08 374.6 339.11 374.58 339.12 374.6 339.13 374.62 339.14 374.65 339.18 374.66 339.2 374.66 339.18 374.68 339.16 374.69 339.15 374.71 339.19 374.71 339.21 374.72 339.24 374.73 339.26 374.75 339.24 374.75 339.22 374.78 339.26 374.77 339.32 374.76 339.38 374.76 339.44 374.69 339.43 374.55 339.38 374.47 339.37 374.28 339.39 374.19 339.4 374.02 339.47 373.94 339.48 373.76 339.47 373.71 339.46 373.58 339.41 373.57 339.4 373.57 339.4 373.55 339.4 373.54 339.41 373.52 339.42 373.43 339.47 373.41 339.47 373.36 339.47 373.22 339.43 373.17 339.43 373.13 339.45 373.06 339.51 372.97 339.56 372.6 339.66 372.56 339.64 372.5 339.54 372.46 339.51 372.37 339.48 372.32 339.47 372.28 339.47 372.24 339.47 372.2 339.49 372.14 339.53 372.12 339.53 372.12 339.53 372.08 339.53 372.08 339.52 372.07 339.51 372.06 339.48 372 339.42 371.96 339.39 371.92 339.37 371.87 339.36 371.73 339.37 371.69 339.36 371.67 339.35 371.66 339.32 371.63 339.31 371.56 339.3 371.54 339.29 371.52 339.27 371.51 339.25 371.52 339.24 371.52 339.23 371.46 339.18 371.38 339.14 371.3 339.14 371.26 339.23 371.25 339.27 371.23 339.29 371.19 339.3 371.15 339.28 371.11 339.28 371.07 339.28 371.04 339.26 371.01 339.23 371 339.18 371.01 339.15 371.04 339.07 371.05 339.03 371.05 338.99 371.04 338.94 371.01 338.91 370.98 338.91 370.94 338.91 370.9 338.91 370.86 338.89 370.84 338.92 370.82 338.91 370.81 338.91 370.79 338.91 370.77 338.91 370.74 338.92 370.74 338.92 370.73 338.91 370.7 338.89 370.69 338.88 370.68 338.88 370.64 338.9 370.62 338.9 370.6 338.9 370.57 338.88 370.55 338.87 370.53 338.87 370.47 338.89 370.46 338.89 370.45 338.9 370.45 338.9 370.43 338.9 370.42 338.9 370.4 338.89 370.39 338.88 370.39 338.88 370.29 338.85 369.57 338.83 368.78 338.82 368.21 338.82 368 338.82 367.21 338.82 367.03 338.82 366.43 338.81 366.32 338.81 366.25 338.82 366.2 338.85 366.07 338.94 365.93 339 365.82 339.09 365.81 339.09 365.25 339.36 365.17 339.37 364.79 339.35 364.77 339.35 364.59 339.36 364.55 339.35 364.41 339.31 364.33 339.3 364.17 339.33 364.15 339.33 364.14 339.34 364.13 339.35 364.11 339.34 364.06 339.32 364.04 339.32 364.02 339.32 363.86 339.41 363.69 339.5 363.62 339.53 363.51 339.53 363.39 339.56 363.35 339.56 363.05 339.54 362.97 339.56 362.92 339.6 362.9 339.57 362.89 339.54 362.88 339.49 362.87 339.48 362.84 339.45 362.79 339.4 362.76 339.37 362.75 339.35 362.75 339.25 362.76 339.23 362.78 339.21 362.79 339.19 362.8 339.17 362.91 339.1 362.96 339.1 363.03 339.11 363.1 339.06 363.13 339.04 363.14 339.02 363.15 339 363.16 338.98 363.25 338.92 363.29 338.97 363.32 339.05 363.35 339.07 363.35 339.04 363.38 339.01 363.41 339 363.46 339.01 363.53 339.05 363.6 339.07 363.67 339.1 363.71 339.11 363.75 339.08 363.81 339.02 363.85 339 363.9 339 363.94 339.02 363.99 339.02 364.04 338.99 364.06 338.98 364.08 339 364.09 339.03 364.11 339.04 364.28 338.98 364.32 338.97 364.37 338.97 364.41 338.96 364.43 338.94 364.47 338.92 364.52 338.92 364.55 338.94 364.61 338.99 364.65 339.02 364.67 339.04 364.69 339.04 364.84 339.04 364.85 339.05 364.88 339.08 364.89 339.09 364.91 339.09 364.96 339.07 364.99 339.06 365.01 339.03 365.05 339.01 365.09 339.03 365.1 339.02 365.12 339.01 365.13 339.01 365.16 339.03 365.18 339.03 365.19 339.03 365.2 339.03 365.22 339.05 365.23 339.09 365.24 339.11 365.26 339.12 365.27 339.13 365.29 339.13 365.32 339.13 365.35 339.13 365.45 339.09 365.49 339.05 365.56 338.96 365.58 338.94 365.6 338.93 365.62 338.91 365.63 338.88 365.61 338.87 365.59 338.86 365.58 338.84 365.59 338.83 365.57 338.78 365.55 338.71 365.55 338.64 365.56 338.58 365.59 338.56 365.62 338.56 365.65 338.57 365.69 338.56 365.72 338.55 365.74 338.53 365.75 338.51 365.76 338.49 365.81 338.53 365.85 338.54 365.88 338.52 365.88 338.46 365.85 338.49 365.82 338.49 365.78 338.48 365.75 338.47 365.71 338.49 365.66 338.53 365.62 338.53 365.6 338.53 365.56 338.54 365.53 338.55 365.52 338.59 365.52 338.72 365.54 338.8 365.55 338.83 365.55 338.86 365.55 338.88 365.54 338.9 365.49 338.94 365.47 338.96 365.36 339.07 365.33 339.08 365.3 339.09 365.28 339.08 365.26 339.06 365.27 338.99 365.21 338.96 365.05 338.94 364.94 339 364.9 339.01 364.89 339.01 364.89 338.99 364.87 338.97 364.84 338.97 364.82 338.97 364.78 338.99 364.75 339 364.73 338.99 364.69 338.97 364.64 338.94 364.63 338.92 364.64 338.91 364.64 338.89 364.63 338.89 364.6 338.88 364.59 338.88 364.58 338.87 364.56 338.86 364.53 338.8 364.52 338.79 364.51 338.78 364.5 338.78 364.5 338.73 364.48 338.7 364.47 338.7 364.47 338.72 364.47 338.73 364.44 338.77 364.43 338.79 364.42 338.87 364.36 338.9 364.27 338.92 364.25 338.93 364.2 338.96 364.19 338.97 364.17 338.96 364.11 338.95 364.03 338.95 364 338.96 363.96 338.97 363.94 338.98 363.91 338.98 363.84 338.97 363.82 338.97 363.78 338.99 363.76 339 363.76 339.01 363.75 339.03 363.73 339.06 363.71 339.07 363.62 339.04 363.55 339 363.51 338.97 363.5 338.94 363.49 338.94 363.47 338.93 363.45 338.92 363.44 338.9 363.44 338.88 363.46 338.86 363.48 338.85 363.5 338.84 363.5 338.83 363.46 338.83 363.44 338.81 363.43 338.78 363.42 338.75 363.41 338.94 363.39 338.94 363.36 338.9 363.28 338.83 363.27 338.78 363.24 338.8 363.23 338.83 363.21 338.85 363.17 338.86 363.14 338.85 363.13 338.84 363.12 338.81 363.12 338.78 363.15 338.72 363.19 338.68 363.22 338.63 363.21 338.55 363.2 338.61 363.2 338.63 363.18 338.65 363.17 338.66 363.16 338.66 363.12 338.7 363.1 338.73 363.09 338.76 363.09 338.8 363.1 338.88 363.1 338.92 363.03 338.95 362.94 339.03 362.86 339.06 362.82 339.03 362.8 338.97 362.8 338.9 362.81 338.82 362.85 338.74 362.9 338.69 362.98 338.72 362.98 338.69 362.95 338.66 362.91 338.65 362.87 338.66 362.82 338.72 362.8 338.74 362.77 338.73 362.78 338.71 362.79 338.69 362.78 338.68 362.77 338.66 362.82 338.59 362.83 338.56 362.82 338.52 362.8 338.52 362.79 338.54 362.77 338.55 362.76 338.54 362.75 338.51 362.76 338.48 362.77 338.45 362.85 338.34 362.86 338.31 362.86 338.28 362.85 338.23 362.84 338.2 362.85 338.15 362.87 338.06 362.88 338 362.87 337.96 362.86 337.94 362.87 337.89 362.87 337.87 362.89 337.85 362.92 337.81 362.93 337.79 362.96 337.74 363.04 337.72 363.14 337.72 363.5 337.72 363.84 337.73 364.33 337.73 364.62 337.73 364.76 337.73 364.82 337.73 364.9 337.74 364.92 337.72 364.92 337.56 364.92 337.53 364.93 337.37 364.94 337.34 364.96 337.32 365.12 337.31 365.22 337.27 365.24 337.27 365.39 337.29 365.43 337.29 365.5 337.26 365.55 337.24 365.6 337.22 365.67 337.22 365.91 337.27 365.99 337.27 366.06 337.26 366.14 337.23 366.2 337.19 366.25 337.13 366.26 337.07 366.27 336.93 366.3 336.88 366.35 336.82 366.39 336.78 366.44 336.76 366.51 336.79 366.61 336.89 366.72 336.97 366.72 336.97 366.72 336.97 366.72 336.97 366.86 337.04 366.94 337.06 367.02 337.07 367.05 337.08 367.13 337.12 367.17 337.14 367.21 337.15 367.24 337.16 367.28 337.22 367.35 337.28 367.42 337.31 367.5 337.32 367.58 337.31 367.65 337.29 367.68 337.3 367.74 337.36 367.76 337.38 367.79 337.4 367.82 337.4 367.89 337.41 367.92 337.42 367.95 337.44 367.97 337.46 367.99 337.48 368.01 337.5 368.09 337.54 368.15 337.56 368.21 337.56 368.34 337.55 368.46 337.57 368.52 337.57 368.57 337.55 368.67 337.47 368.71 337.45 368.75 337.45 368.84 337.42 368.93 337.42 369.02 337.39 369.19 337.38 369.3 337.33 369.36 337.23 369.37 337.12 369.32 337.01 369.29 336.99 369.24 336.96 369.23 336.95 369.22 336.95 369.21 336.93 369.2 336.88 369.19 336.86 369.15 336.83 369.1 336.81 369.04 336.79 368.99 336.78 368.96 336.78 368.92 336.81 368.89 336.82 368.87 336.83 368.83 336.82 368.81 336.82 368.76 336.83 368.66 336.89 368.53 336.92 368.49 336.93 368.37 337.01 368.24 337.06 368.2 337.07 368.16 337.06 368.1 337.04 367.94 336.92 367.92 336.91 367.9 336.88 367.89 336.85 367.86 336.76 367.84 336.71 367.81 336.67 367.76 336.64 367.67 336.6 367.58 336.59 367.49 336.61 367.35 336.69 367.32 336.7 367.29 336.69 367.2 336.63 367.19 336.61 367.14 336.47 367.12 336.43 367.1 336.39 367.06 336.36 367.02 336.32 366.94 336.3 366.71 336.29 366.58 336.24 366.53 336.23 366.37 336.29 366.2 336.4 366.16 336.41 366.14 336.4 366.1 336.34 366.08 336.32 365.98 336.3 365.88 336.34 365.78 336.41 365.71 336.49 365.69 336.53 365.67 336.57 365.65 336.62 365.65 336.64 365.64 336.67 365.64 336.76 365.6 336.77 365.49 336.77 365.36 336.77 365.22 336.77 365.08 336.77 364.94 336.77 364.8 336.77 364.67 336.77 364.53 336.77 364.39 336.77 364.34 336.77 364.25 336.77 364.12 336.77 363.98 336.76 363.84 336.76 363.7 336.76 363.57 336.76 363.43 336.76 363.29 336.76 363.29 336.76 363.27 336.73 363.26 336.7 363.26 336.64 363.3 336.61 363.35 336.58 363.41 336.53 363.4 336.53 363.37 336.51 363.36 336.5 363.39 336.48 363.41 336.44 363.41 336.41 363.36 336.41 363.37 336.45 363.36 336.49 363.33 336.52 363.3 336.52 363.28 336.57 363.25 336.6 363.21 336.61 363.16 336.6 363.12 336.56 363.11 336.51 363.13 336.42 363.14 336.37 363.14 336.35 363.16 336.32 363.24 336.22 363.26 336.19 363.27 336.2 363.3 336.22 363.32 336.22 363.31 336.21 363.3 336.18 363.38 336.16 363.38 336.21 363.4 336.25 363.42 336.27 363.45 336.27 363.44 336.22 363.43 336.16 363.42 336.11 363.39 336.1 363.4 336.07 363.45 335.86 363.45 335.82 363.41 335.89 363.39 335.93 363.37 336.03 363.34 336.08 363.32 336.12 363.29 336.11 363.27 336.11 363.25 336.14 363.21 336.16 363.16 336.16 363.12 336.18 363.1 336.2 363.09 336.21 363.08 336.23 363.07 336.25 363.06 336.27 363.04 336.28 363.02 336.29 363 336.33 362.98 336.35 362.96 336.34 362.95 336.32 362.95 336.29 362.95 336.26 362.93 336.25 362.9 336.23 362.89 336.19 362.89 336.14 362.91 336.11 362.89 336.08 362.88 336.05 362.88 335.97 362.88 335.94 362.89 335.91 362.9 335.9 362.95 335.86 362.98 335.85 363 335.85 363.07 335.85 363.1 335.86 363.12 335.88 363.12 335.91 363.15 335.88 363.17 335.85 363.21 335.83 363.26 335.85 363.25 335.8 363.27 335.78 363.3 335.76 363.33 335.74 363.3 335.75 363.27 335.76 363.25 335.75 363.22 335.73 363.32 335.66 363.36 335.63 363.42 335.56 363.45 335.53 363.52 335.51 363.55 335.47 363.58 335.46 363.6 335.47 363.62 335.49 363.64 335.5 363.66 335.48 363.67 335.47 363.71 335.46 363.72 335.44 363.59 335.44 363.53 335.42 363.53 335.37 363.49 335.39 363.48 335.42 363.49 335.45 363.51 335.48 363.49 335.49 363.46 335.49 363.44 335.48 363.41 335.48 363.4 335.48 363.39 335.5 363.38 335.52 363.38 335.54 363.32 335.64 363.3 335.66 363.28 335.67 363.23 335.68 363.2 335.7 363.18 335.73 363.16 335.78 363.13 335.8 363.08 335.82 363.04 335.81 362.99 335.79 362.94 335.79 362.99 335.7 362.99 335.68 363.03 335.67 363.09 335.6 363.06 335.61 363.03 335.65 363 335.66 362.96 335.66 362.94 335.67 362.92 335.68 362.95 335.71 362.94 335.73 362.91 335.77 362.9 335.79 362.89 335.82 362.88 335.84 362.84 335.89 362.83 335.91 362.82 335.98 362.83 336.19 362.82 336.19 362.8 335.76 362.79 335.69 362.75 335.58 362.71 335.5 362.69 335.48 362.67 335.46 362.61 335.45 362.59 335.43 362.57 335.4 362.56 335.27 362.54 335.24 362.52 335.21 362.48 335.16 362.46 335.15 362.45 335.15 362.44 335.14 362.43 335.11 362.44 335.09 362.45 335.04 362.45 335.02 362.44 334.98 362.41 334.94 362.34 334.87 362.18 334.79 362.16 334.77 362.15 334.74 362.07 334.62 362.01 334.46 361.92 334.34 361.86 334.28 361.82 334.26 361.78 334.24 361.73 334.23 361.69 334.22 361.6 334.17 361.58 334.15 361.51 334.15 361.45 334.15 361.39 334.15 361.34 334.18 361.36 334.21 361.39 334.21 361.37 334.25 361.34 334.26 361.35 334.27 361.36 334.28 361.37 334.29 361.36 334.32 361.35 334.33 361.34 334.34 361.31 334.32 361.16 334.14 361.13 334.1 361.49 334.01 361.6 333.92 361.93 333.78 362.01 333.72 362.36 333.3 362.43 333.19 362.59 333.02 362.89 332.47 363.05 332.27 363.34 331.78 363.35 331.76 363.35 331.74 363.33 331.7 363.38 331.62 363.4 331.49 363.41 331.24 363.42 331.22 363.45 331.12 363.49 331.02 363.5 330.87 363.52 330.82 363.55 330.79 363.63 330.77 363.67 330.75 363.68 330.73 363.69 330.7 363.78 330.31 363.79 330.22 363.81 330.18 363.84 330.13 363.88 330.1 363.93 330.07 363.98 330.06 364.05 330.07 364.08 330.07 364.1 330.07 364.12 330.06 364.19 330.01 364.21 330 364.24 329.99 364.27 330 364.29 330.01 364.3 330.03 364.33 330.07 364.37 330.11 364.41 330.13 364.46 330.14 364.52 330.13 364.53 330.12 364.55 330.11 364.57 330.11 364.58 330.11 364.61 330.12 364.63 330.12 364.64 330.12 364.73 330.08 364.76 330.08 364.84 330.1 364.86 330.1 364.91 330.09 364.95 330.09 365.05 330.12 365.12 330.12 365.14 330.13 365.19 330.16 365.23 330.16 365.26 330.16 365.29 330.15 365.32 330.13 365.37 330.09 365.4 330.07 365.43 330.07 365.53 330.08 365.56 330.08 365.59 330.07 365.61 330.05 365.66 329.97 365.69 329.95 365.72 329.93 365.76 329.94 365.78 329.95 365.79 329.98 365.8 330 365.83 330.01 365.86 330.01 365.89 330 365.99 329.96 366.02 329.95 366.09 329.95 366.2 329.97 366.23 329.97 366.47 329.93 366.52 329.91 366.53 329.9 366.54 329.89 366.54 329.87 366.54 329.86 366.5 329.82 366.49 329.79 366.49 329.76 366.51 329.74 366.54 329.73 366.58 329.74 366.6 329.76 366.61 329.79 366.64 329.81 366.65 329.82 366.67 329.81 366.68 329.81 366.7 329.8 366.71 329.78 366.71 329.77 366.72 329.74 366.73 329.72 366.76 329.7 366.81 329.68 366.83 329.69 366.86 329.72 366.86 329.73 366.88 329.76 366.9 329.79 366.94 329.8 367.01 329.78 367.39 329.81 367.42 329.8 367.49 329.78 367.51 329.78 367.53 329.79 367.59 329.82 367.62 329.82 367.64 329.82 367.74 329.8 367.76 329.8 367.85 329.81 367.87 329.82 367.9 329.81 367.92 329.81 367.94 329.8 368 329.76 368.02 329.75 368.07 329.75 368.21 329.81 368.22 329.82 368.23 329.83 368.23 329.86 368.22 329.9 368.22 329.92 368.24 329.93 368.33 329.92 368.35 329.93 368.36 329.95 368.36 329.99 368.37 330.01 368.4 330.02 368.45 330.02 368.47 330.03 368.49 330.04 368.53 330.09 368.55 330.1 368.6 330.14 368.67 330.23 368.8 330.35 368.88 330.39 368.89 330.4 368.93 330.45 368.95 330.46 369 330.48 369.02 330.49 369.03 330.51 369.03 330.52 369.02 330.56 369.01 330.58 369.02 330.59 369.04 330.62 369.05 330.64 369.05 330.66 369.04 330.7 369.05 330.74 369.08 330.76 369.17 330.79 369.19 330.8 369.22 330.82 369.24 330.84 369.25 330.86 369.27 330.92 369.28 330.94 369.29 330.96 369.31 330.98 369.33 330.99 369.35 330.99 369.37 330.99 369.38 330.99 369.42 330.97 369.46 330.94 369.47 330.92 369.51 330.86 369.53 330.85 369.55 330.84 369.57 330.83 369.59 330.83 369.61 330.83 369.6 330.86 369.59 330.9 369.58 330.93 369.59 330.96 369.6 330.96 369.62 330.97 369.63 330.98 369.63 330.98 369.64 330.99 369.64 330.99 369.65 331 369.66 331 369.67 331.01 369.68 331.02 369.69 331.02 369.7 331.02 369.72 331.02 369.78 330.99 369.79 330.99 369.83 330.98 369.84 330.98 369.85 330.98 369.92 330.95 370.04 330.92 370.07 330.91 370.08 330.91 370.09 330.91 370.11 330.91 370.11 330.94 370.08 331.01 370.07 331.05 370.09 331.06 370.17 331.03 370.21 331.03 370.22 331.05 370.24 331.08 370.25 331.09 370.31 331.13 370.32 331.15 370.33 331.16 370.33 331.2 370.33 331.22 370.36 331.3 370.38 331.32 370.39 331.35 370.41 331.37 370.47 331.41 370.48 331.43 370.49 331.44 370.49 331.46 370.48 331.5 370.48 331.52 370.48 331.54 370.49 331.55 370.53 331.6 370.55 331.63 370.56 331.67 370.56 331.72 370.56 331.74 370.55 331.75 370.55 331.77 370.55 331.79 370.56 331.81 370.58 331.82 370.61 331.84 370.63 331.86 370.64 331.87 370.67 331.91 370.68 331.93 370.68 331.94 370.68 331.96 370.64 332.01 370.63 332.03 370.63 332.05 370.64 332.07 370.66 332.13 370.69 332.13 370.76 332.12 370.79 332.12 370.8 332.12 370.85 332.15 370.86 332.16 370.91 332.17 370.94 332.19 370.96 332.21 370.98 332.24 370.99 332.27 370.97 332.36 370.97 332.38 370.98 332.4 370.98 332.42 371 332.43 371.07 332.44 371.1 332.44 371.13 332.42 371.16 332.4 371.19 332.38 371.23 332.37 371.26 332.39 371.28 332.41 371.28 332.43 371.29 332.49 371.3 332.5 371.32 332.53 371.33 332.55 371.34 332.57 371.34 332.65 371.34 332.68 371.36 332.72 371.39 332.75 371.52 332.84 371.55 332.87 371.56 332.9 371.55 332.94 371.52 332.94 371.44 332.93 371.42 332.95 371.43 332.98 371.48 333.03 371.5 333.05 371.52 333.05 371.54 333.05 371.59 333.04 371.61 333.04 371.63 333.05 371.66 333.06 371.67 333.08 371.67 333.1 371.67 333.11 371.66 333.17 371.66 333.19 371.67 333.21 371.67 333.22 371.73 333.24 371.75 333.25 371.81 333.32 371.87 333.34 371.87 333.34 371.89 333.34 371.96 333.32 372 333.31 372.02 333.32 372.04 333.34 372.07 333.37 372.19 333.44 372.23 333.47 372.25 333.49 372.3 333.5 372.33 333.51 372.34 333.53 372.35 333.56 372.41 333.74 372.41 333.76 372.44 333.78 372.51 333.87 372.55 333.9 372.69 333.97 372.81 334.06 Z" id="Senegal" transform="translate(-361.1300048828125,-329.67999267578125) "/></svg>