<svg xmlns="http://www.w3.org/2000/svg" viewBox="0 0 9.180023193359375 12.139999389648438"><path d="M 442.55 260.19 442.6 260.19 442.63 260.14 442.65 260.07 442.68 260.02 442.7 260.01 442.76 260.02 442.78 260.02 442.81 260.01 442.86 259.97 442.88 259.96 442.92 259.98 442.96 260.03 442.99 260.09 443.01 260.14 443.03 260.17 443.05 260.14 443.07 260.07 443.1 260.07 443.18 260.11 443.2 260.09 443.21 260.08 443.2 260.07 443.18 260.05 443.17 260.02 443.17 259.98 443.18 259.93 443.18 259.9 443.24 259.84 443.24 259.76 443.18 259.59 443.14 259.49 442.91 259.25 442.79 259.05 442.73 258.97 442.65 258.91 442.63 258.89 442.65 258.87 442.66 258.85 442.64 258.81 442.64 258.79 442.66 258.76 442.68 258.74 442.72 258.72 442.75 258.72 442.78 258.73 442.84 258.77 442.9 258.83 442.92 258.84 442.96 258.84 442.99 258.83 443.11 258.82 443.23 258.84 443.29 258.83 443.34 258.81 443.43 258.74 443.47 258.7 443.49 258.65 443.47 258.59 443.44 258.57 443.42 258.58 443.41 258.6 443.4 258.6 443.38 258.59 443.35 258.54 443.27 258.5 443.26 258.48 443.22 258.42 443.19 258.39 443.17 258.37 443.17 258.32 443.15 258.29 443.14 258.29 443.11 258.32 443.1 258.32 443.08 258.31 443.06 258.29 442.96 258.22 442.92 258.17 442.91 258.13 442.9 258.07 442.87 258.01 442.84 257.95 442.8 257.92 442.77 257.91 442.7 257.93 442.67 257.93 442.65 257.92 442.6 257.9 442.51 257.88 442.46 257.86 442.42 257.81 442.38 257.7 442.36 257.64 442.35 257.58 442.37 257.52 442.4 257.48 442.43 257.43 442.43 257.35 442.4 257.21 442.4 257.16 442.48 257.14 442.5 257.12 442.51 257.1 442.53 257.08 442.53 257.06 442.53 257.01 442.53 256.99 442.55 256.97 442.57 256.96 442.58 256.95 442.68 256.77 442.72 256.68 442.73 256.65 442.76 256.62 442.8 256.58 442.82 256.55 442.84 256.5 442.92 256.12 442.93 256.11 442.94 256.1 442.95 256.09 442.95 256.06 442.94 256.04 442.93 256.02 442.92 256.01 442.91 255.99 442.9 255.98 442.9 255.98 442.89 255.99 442.87 255.99 442.85 255.98 442.8 255.94 442.78 255.94 442.77 255.95 442.75 255.95 442.65 255.93 442.63 255.94 442.59 255.95 442.56 255.95 442.55 255.94 442.54 255.91 442.53 255.89 442.5 255.9 442.3 256.04 442.27 256.06 442.22 256.06 442.15 256.09 442.1 255.99 442.1 255.93 442.16 255.9 442.19 255.91 442.23 255.96 442.26 255.96 442.29 255.94 442.31 255.92 442.35 255.86 442.37 255.85 442.39 255.83 442.41 255.81 442.4 255.76 442.38 255.74 442.33 255.76 442.31 255.74 442.31 255.71 442.31 255.67 442.32 255.63 442.33 255.6 442.33 255.57 442.31 255.48 442.3 255.4 442.29 255.37 442.28 255.33 442.26 255.31 442.24 255.29 442.22 255.26 442.22 255.24 442.25 255.21 442.37 255.22 442.42 255.21 442.43 255.16 442.4 255.1 442.39 255.05 442.44 255.04 442.46 255.06 442.5 255.12 442.53 255.14 442.57 255.16 442.62 255.16 442.71 255.15 442.72 255.14 442.73 255.13 442.74 255.11 442.75 255.1 442.76 255.11 442.78 255.14 442.79 255.15 442.98 255.14 442.99 255.13 443.02 255.1 443.02 255.03 443 254.97 442.95 254.95 442.92 254.89 442.48 254.77 442.39 254.73 442.34 254.66 442.33 254.64 442.33 254.6 442.32 254.57 442.3 254.56 442.21 254.56 442.16 254.55 442.12 254.52 442.09 254.48 442.06 254.43 442.18 254.37 442.2 254.34 442.19 254.31 442.14 254.26 442.12 254.24 442.11 254.18 442.14 254.1 442.16 254.1 442.29 254.12 442.35 254.06 442.33 254.02 442.3 254 442.27 253.99 442.23 253.98 442.21 253.96 442.2 253.94 442.19 253.93 442.18 253.9 442.16 253.89 442.14 253.89 442.12 253.9 442.08 253.93 442.06 253.95 442.03 253.97 441.99 253.98 441.97 253.95 441.92 253.88 441.9 253.87 441.91 253.84 441.91 253.78 441.92 253.72 441.95 253.7 441.97 253.68 442.03 253.59 442.05 253.57 442.03 253.52 442 253.49 441.96 253.47 441.93 253.45 441.91 253.41 441.91 253.31 441.9 253.26 441.83 253.18 441.82 253.15 441.78 253.12 441.77 253.1 441.78 253.09 441.78 253.07 441.79 253.05 441.8 252.97 441.87 252.96 441.89 252.96 441.91 252.93 441.9 252.91 441.88 252.88 441.83 252.85 441.86 252.82 441.87 252.81 441.91 252.78 441.9 252.73 442.03 252.74 442.08 252.76 442.09 252.76 442.09 252.75 442.09 252.73 442.07 252.71 442.07 252.69 442.07 252.68 442.08 252.67 442.13 252.63 442.19 252.64 442.22 252.63 442.23 252.54 442.26 252.48 442.31 252.46 442.36 252.47 442.4 252.54 442.4 252.54 442.44 252.57 442.64 252.59 442.7 252.57 442.73 252.54 442.74 252.5 442.75 252.46 442.78 252.45 442.8 252.43 442.84 252.42 442.92 252.42 442.96 252.41 442.98 252.38 443 252.35 443.01 252.32 443.04 252.31 443.07 252.31 443.09 252.3 443.12 252.27 443.14 252.25 443.15 252.22 443.17 252.2 443.22 252.17 443.22 252.14 443.2 252.11 443.2 252.09 443.23 252.05 443.28 252.02 443.34 251.99 443.38 251.99 443.42 251.99 443.55 251.96 443.6 251.96 443.65 251.98 443.69 252.01 443.83 252.1 443.87 252.1 444.05 252.03 444.09 252.01 444.18 251.99 444.32 252.01 444.41 252.06 444.47 252.05 444.53 252.02 444.55 252.02 444.59 252.03 444.6 252.04 444.62 252.07 444.64 252.08 444.66 252.08 444.71 252.05 444.75 252.07 444.87 252.17 445.01 252.35 445.04 252.39 445.08 252.54 445.12 252.59 445.16 252.62 445.24 252.66 445.28 252.68 445.4 252.79 445.44 252.81 445.53 252.82 445.57 252.84 445.6 252.87 445.68 253 445.69 253.02 445.73 253.04 445.74 253.06 445.75 253.09 445.76 253.16 445.76 253.17 445.77 253.19 445.79 253.22 445.84 253.29 445.86 253.33 445.89 253.35 445.91 253.36 445.94 253.35 445.97 253.33 445.99 253.29 446 253.27 446.03 253.26 446.06 253.27 446.08 253.3 446.07 253.33 446.07 253.36 446.06 253.39 446.06 253.56 446.06 253.6 446.05 253.63 446.02 253.69 446.01 253.76 446.01 253.82 446.08 253.93 446.11 254 446.1 254.05 446.07 254.08 446.02 254.12 446.03 254.16 446.07 254.18 446.11 254.2 446.14 254.21 446.17 254.25 446.25 254.35 446.39 254.48 446.48 254.6 446.51 254.62 446.59 254.66 446.69 254.71 446.71 254.73 446.73 254.75 446.75 254.76 446.78 254.77 446.8 254.76 446.84 254.72 446.86 254.72 446.9 254.74 446.97 254.85 447.01 254.9 447.08 254.95 447.12 254.96 447.21 254.97 447.45 255.04 447.51 255.08 447.57 255.12 447.62 255.19 447.64 255.21 447.65 255.25 447.65 255.29 447.62 255.32 447.59 255.32 447.57 255.33 447.55 255.35 447.53 255.38 447.53 255.38 447.54 255.4 447.54 255.42 447.53 255.44 447.53 255.45 447.51 255.47 447.5 255.49 447.49 255.53 447.49 255.55 447.49 255.57 447.46 255.59 447.43 255.6 447.38 255.6 447.36 255.61 447.34 255.64 447.33 255.67 447.33 255.7 447.36 255.71 447.4 255.71 447.41 255.72 447.4 255.74 447.4 255.76 447.46 255.8 447.56 255.81 447.62 255.84 447.69 255.87 447.73 255.9 447.75 255.95 447.74 256.01 447.71 256.04 447.62 256.06 447.56 256.07 447.43 256.07 447.37 256.09 447.34 256.11 447.32 256.15 447.31 256.19 447.35 256.21 447.35 256.21 447.39 256.24 447.43 256.32 447.46 256.34 447.65 256.36 447.79 256.35 447.83 256.36 447.87 256.4 447.89 256.45 447.9 256.5 447.92 256.56 448 256.64 448.11 256.67 448.23 256.67 448.33 256.65 448.41 256.62 448.45 256.61 448.48 256.61 448.68 256.72 448.75 256.73 448.78 256.75 448.84 256.9 448.84 256.92 448.85 256.94 448.85 256.98 448.87 257.01 448.89 257.03 448.92 257.04 448.94 257.06 448.96 257.15 449 257.19 449.05 257.21 449.1 257.22 449.15 257.2 449.18 257.17 449.43 256.72 449.44 256.67 449.48 256.65 449.57 256.63 449.61 256.6 449.69 256.51 449.71 256.5 449.77 256.5 449.81 256.51 449.84 256.53 449.99 256.7 450.07 256.76 450.14 256.79 450.32 256.82 450.35 256.84 450.46 256.96 450.45 257.02 450.41 257.06 450.36 257.08 450.32 257.09 450.27 257.08 450.19 257.03 450.14 257.01 450.1 257 450.05 257.02 450.02 257.05 450.01 257.1 450 257.15 449.98 257.18 449.95 257.2 449.88 257.2 449.86 257.21 449.84 257.22 449.83 257.25 449.82 257.29 449.82 257.33 449.83 257.36 449.88 257.4 449.89 257.42 449.89 257.45 449.88 257.49 449.89 257.52 449.93 257.61 449.98 257.69 450.06 257.75 450.14 257.79 450.24 257.8 450.28 257.82 450.3 257.86 450.29 258.01 450.3 258.06 450.3 258.06 450.2 258.1 450.19 258.12 450.15 258.18 450.12 258.22 450.11 258.23 450.11 258.24 450.11 258.26 450.11 258.27 450.12 258.27 450.09 258.36 450.09 258.4 450.09 258.43 450.11 258.49 450.11 258.52 450.08 258.57 450.04 258.57 450 258.57 449.95 258.59 449.93 258.62 449.91 258.67 449.88 258.7 449.83 258.7 449.8 258.71 449.73 258.72 449.68 258.74 449.65 258.78 449.65 258.82 449.65 258.91 449.64 258.96 449.64 258.97 449.61 259.01 449.61 259.03 449.6 259.12 449.58 259.21 449.55 259.28 449.54 259.35 449.57 259.43 449.63 259.5 449.63 259.53 449.62 259.58 449.62 259.6 449.63 259.64 449.65 259.68 449.66 259.72 449.68 259.75 449.71 259.78 449.78 259.81 449.8 259.84 449.81 259.88 449.82 259.95 449.83 259.98 449.83 259.99 449.84 259.99 449.83 259.99 449.83 259.99 449.83 260 449.82 260.01 449.83 260.02 449.83 260.03 449.84 260.04 449.84 260.05 449.84 260.06 449.83 260.06 449.83 260.08 449.83 260.09 449.83 260.11 449.85 260.17 449.9 260.31 449.92 260.37 449.95 260.4 450.02 260.43 450.04 260.45 450.07 260.49 450.09 260.51 450.11 260.51 450.16 260.51 450.18 260.51 450.2 260.53 450.22 260.58 450.23 260.59 450.24 260.6 450.26 260.61 450.3 260.61 450.32 260.61 450.36 260.63 450.37 260.64 450.39 260.65 450.55 260.81 450.58 260.85 450.59 260.88 450.59 260.93 450.6 260.95 450.61 260.97 450.67 261.03 450.73 261.11 450.76 261.14 450.8 261.16 450.91 261.19 450.94 261.2 450.95 261.24 450.95 261.28 450.93 261.38 450.89 261.48 450.84 261.55 450.82 261.56 450.78 261.58 450.77 261.6 450.75 261.62 450.74 261.67 450.73 261.7 450.63 261.78 450.6 261.83 450.6 261.83 450.6 261.83 450.6 261.83 450.58 261.84 450.51 261.85 450.49 261.87 450.47 261.89 450.46 261.93 450.42 262.08 450.41 262.11 450.4 262.12 450.38 262.15 450.31 262.18 450.24 262.19 450.08 262.15 450.02 262.15 449.99 262.18 449.97 262.19 449.97 262.19 449.96 262.2 449.92 262.2 449.89 262.2 449.87 262.21 449.83 262.27 449.81 262.29 449.75 262.32 449.73 262.34 449.72 262.36 449.71 262.37 449.71 262.38 449.72 262.39 449.77 262.52 449.8 262.56 449.83 262.59 449.84 262.6 449.84 262.61 449.84 262.62 449.83 262.63 449.8 262.65 449.75 262.76 449.76 262.81 449.75 262.88 449.74 262.91 449.72 263.03 449.71 263.09 449.72 263.1 449.83 263.2 449.9 263.25 449.93 263.29 449.95 263.33 449.95 263.33 449.96 263.37 449.95 263.44 449.92 263.55 449.89 263.59 449.87 263.61 449.84 263.62 449.81 263.63 449.77 263.68 449.74 263.79 449.71 263.83 449.67 263.84 449.57 263.84 449.53 263.87 449.49 263.86 449.45 263.85 449.41 263.82 449.38 263.78 449.37 263.76 449.37 263.71 449.36 263.7 449.34 263.7 449.28 263.76 448.98 263.89 448.9 263.9 448.87 263.9 448.83 263.9 448.76 263.87 448.64 263.81 448.61 263.8 448.59 263.81 448.51 263.88 448.49 263.88 448.41 263.88 448.36 263.89 448.14 264.02 448.12 264.04 448.08 264.08 448.05 264.1 448.05 264.1 448.01 264.1 447.93 264.08 447.82 264.08 447.8 264.07 447.78 263.98 447.69 263.85 447.69 263.78 447.74 263.73 447.87 263.69 447.92 263.65 447.93 263.6 447.92 263.51 447.92 263.46 447.94 263.43 448.03 263.34 448.14 263.16 448.16 263.09 448.16 263.08 448.15 263.05 448.14 263.04 448.15 263.03 448.16 263.02 448.17 263.01 448.17 263.01 448.18 262.95 448.18 262.94 448.2 262.92 448.23 262.91 448.25 262.89 448.26 262.87 448.24 262.8 448.2 262.77 448.19 262.76 448.12 262.75 448.07 262.75 447.98 262.79 447.95 262.79 447.91 262.77 447.84 262.68 447.8 262.65 447.75 262.63 447.53 262.6 447.48 262.6 447.45 262.6 447.41 262.59 447.39 262.58 447.39 262.57 447.4 262.56 447.41 262.54 447.42 262.5 447.45 262.4 447.46 262.35 447.46 262.28 447.46 262.27 447.43 262.24 447.39 262.24 447.32 262.23 447.3 262.21 447.25 262.17 447.23 262.16 447.2 262.15 447.15 262.15 447.13 262.15 447.07 262.07 447.05 261.98 447.05 261.89 447.02 261.82 446.98 261.81 446.95 261.83 446.92 261.85 446.88 261.83 446.86 261.79 446.82 261.63 446.79 261.56 446.76 261.53 446.61 261.52 446.56 261.51 446.54 261.49 446.36 261.39 446.19 261.29 446.18 261.27 446.19 261.26 446.19 261.22 446.2 261.18 446.2 261.16 446.22 261.14 446.24 261.15 446.25 261.15 446.23 261.11 446.21 261.09 446.19 261.06 446.15 261.03 446.13 261.02 446.09 261.01 446.04 261.02 445.99 261.04 445.81 261.17 445.76 261.19 445.69 261.19 445.67 261.21 445.66 261.25 445.66 261.28 445.69 261.34 445.71 261.4 445.72 261.43 445.73 261.45 445.75 261.46 445.78 261.45 445.8 261.46 445.82 261.47 445.81 261.55 445.76 261.65 445.7 261.74 445.66 261.78 445.63 261.79 445.6 261.78 445.58 261.78 445.56 261.8 445.54 261.84 445.53 261.86 445.51 261.88 445.47 261.9 445.43 261.9 445.39 261.91 445.35 261.96 445.33 262.04 445.37 262.08 445.42 262.11 445.43 262.15 445.44 262.17 445.39 262.24 445.28 262.29 445.1 262.33 445.12 262.21 445.12 262.13 445.08 262.09 444.94 262.02 444.83 261.93 444.76 261.91 444.65 261.89 444.62 261.89 444.59 261.88 444.46 261.74 444.45 261.74 444.38 261.66 444.24 261.57 444.22 261.55 444.21 261.52 444.19 261.49 444.18 261.46 444.15 261.45 444.13 261.46 444.08 261.52 444.05 261.53 443.97 261.54 443.9 261.53 443.85 261.51 443.8 261.48 443.76 261.42 443.7 261.31 443.68 261.3 443.66 261.32 443.63 261.33 443.59 261.33 443.49 261.3 443.44 261.27 443.4 261.24 443.34 261.15 443.33 261.14 443.25 261.08 443.23 261.04 443.19 260.96 443.17 260.92 443.03 260.78 442.94 260.64 442.91 260.62 442.6 260.48 442.54 260.43 442.51 260.35 442.51 260.26 442.55 260.19 Z" id="Republic of Serbia" transform="translate(-441.7699890136719,-251.9600067138672) "/></svg>