<svg xmlns="http://www.w3.org/2000/svg" viewBox="0 0 6.69000244140625 6.850006103515625"><path d="M 372.08 350.15 372.1 350.16 372.19 350.16 372.23 350.17 372.26 350.19 372.28 350.21 372.31 350.25 372.28 350.26 372.28 350.29 372.29 350.35 372.29 350.39 372.27 350.42 372.25 350.44 372.23 350.47 372.23 350.51 372.25 350.58 372.25 350.61 372.22 350.64 372.18 350.64 372.15 350.63 372.13 350.6 372.17 350.6 372.14 350.54 372.1 350.49 372.06 350.45 372.01 350.43 371.98 350.43 371.78 350.37 371.71 350.34 371.52 350.31 371.29 350.25 371.29 350.23 371.37 350.21 371.38 350.18 371.41 350.15 371.44 350.14 371.53 350.13 371.77 350.13 371.81 350.12 371.89 350.1 372.02 350.09 372.07 350.09 372.11 350.11 372.08 350.15 Z M 375.25 345.09 375.26 345.11 375.43 345.22 375.52 345.31 375.59 345.4 375.65 345.51 375.67 345.58 375.69 345.6 375.7 345.61 375.73 345.62 375.75 345.64 375.76 345.65 375.77 345.71 375.79 345.73 375.85 345.77 375.87 345.79 375.88 345.81 375.89 345.87 375.9 345.89 375.93 345.91 375.94 345.92 375.94 345.95 375.93 346.01 375.94 346.05 375.96 346.08 376 346.12 376.03 346.14 376.03 346.15 376.01 346.17 375.99 346.19 376.02 346.2 376.06 346.2 376.07 346.2 376.09 346.2 376.12 346.2 376.14 346.2 376.16 346.24 376.19 346.27 376.22 346.29 376.24 346.3 376.34 346.38 376.34 346.41 376.33 346.43 376.32 346.46 376.31 346.48 376.31 346.5 376.32 346.54 376.31 346.56 376.3 346.59 376.27 346.6 376.25 346.61 376.23 346.63 376.19 346.7 376.16 346.79 376.18 346.88 376.26 346.9 376.35 346.9 376.44 346.91 376.49 346.92 376.52 346.94 376.52 346.96 376.52 346.97 376.52 346.97 376.49 347.11 376.48 347.18 376.48 347.35 376.48 347.37 376.5 347.43 376.51 347.44 376.5 347.47 376.5 347.47 376.51 347.48 376.53 347.49 376.53 347.5 376.62 347.62 376.66 347.64 376.67 347.66 376.77 347.79 376.75 347.84 376.72 347.88 376.68 347.91 376.62 347.92 376.58 347.92 376.54 347.96 376.5 348.01 376.47 348.07 376.43 348.1 376.42 348.13 376.41 348.16 376.41 348.19 376.41 348.2 376.38 348.21 376.35 348.4 376.32 348.45 376.28 348.5 376.23 348.58 376.2 348.65 376.25 348.69 376.26 348.61 376.31 348.57 376.37 348.55 376.44 348.55 376.48 348.56 376.54 348.61 376.56 348.61 376.6 348.59 376.68 348.54 376.81 348.42 376.84 348.38 376.89 348.27 376.92 348.24 376.94 348.22 376.97 348.2 377 348.19 377.07 348.18 377.09 348.18 377.15 348.2 377.16 348.21 377.18 348.21 377.21 348.21 377.21 348.32 377.14 348.6 377.1 348.68 377.09 348.73 377.11 348.8 377.13 348.84 377.12 348.88 377.07 348.93 377.02 348.96 376.98 348.97 376.94 348.98 376.76 348.98 376.71 348.99 376.66 349.01 376.63 349.05 376.58 349.15 376.55 349.17 376.5 349.2 376.48 349.22 376.47 349.24 376.46 349.26 376.47 349.8 376.42 349.81 376.4 349.81 376.3 349.87 376.21 349.94 375.92 350.3 375.89 350.33 375.87 350.35 375.84 350.36 375.76 350.38 375.67 350.43 375.34 350.69 375.3 350.74 375.15 350.93 375.13 350.94 374.95 351.03 374.91 351.03 374.84 351.15 374.8 351.19 374.79 351.2 374.8 351.22 374.83 351.27 374.83 351.3 374.83 351.32 374.82 351.33 374.8 351.34 374.75 351.34 374.75 351.36 374.75 351.4 374.75 351.44 374.74 351.48 374.71 351.52 374.65 351.55 374.64 351.59 374.65 351.64 374.63 351.65 374.56 351.69 374.52 351.66 374.43 351.64 374.39 351.61 374.35 351.58 374.31 351.55 374.33 351.55 374.34 351.55 374.35 351.54 374.36 351.52 374.3 351.52 374.27 351.53 374.25 351.54 374.24 351.54 374.22 351.49 374.19 351.46 374.07 351.36 373.76 351.18 373.24 350.99 372.7 350.78 372.28 350.64 372.34 350.59 372.43 350.58 372.51 350.61 372.58 350.64 372.58 350.62 372.57 350.61 372.55 350.6 372.53 350.6 372.51 350.59 372.49 350.57 372.48 350.55 372.43 350.54 372.41 350.53 372.37 350.55 372.35 350.54 372.33 350.53 372.32 350.52 372.31 350.5 372.33 350.46 372.36 350.42 372.4 350.38 372.42 350.35 372.45 350.32 372.49 350.34 372.51 350.33 372.54 350.32 372.6 350.32 372.61 350.32 372.63 350.31 372.65 350.31 372.67 350.31 372.69 350.33 372.7 350.34 372.75 350.32 372.78 350.3 372.83 350.28 372.89 350.28 372.88 350.27 372.88 350.26 372.87 350.25 372.91 350.24 372.95 350.23 372.98 350.21 372.99 350.17 372.98 350.17 372.96 350.17 372.95 350.17 372.93 350.18 372.92 350.19 372.9 350.17 372.9 350.16 372.88 350.16 372.85 350.16 372.83 350.16 372.82 350.18 372.82 350.2 372.8 350.21 372.76 350.22 372.74 350.23 372.7 350.23 372.67 350.24 372.63 350.26 372.58 350.27 372.53 350.29 372.51 350.29 372.49 350.29 372.45 350.28 372.42 350.28 372.37 350.26 372.36 350.22 372.34 350.17 372.31 350.14 372.31 350.13 372.32 350.12 372.32 350.1 372.33 350.09 372.32 350.06 372.31 350.08 372.29 350.09 372.28 350.09 372.26 350.08 372.25 350.08 372.25 350.11 372.19 350.06 372.22 349.98 372.31 349.87 372.34 349.88 372.36 349.9 372.37 349.88 372.36 349.85 372.35 349.82 372.37 349.8 372.4 349.79 372.35 349.76 372.31 349.79 372.25 349.9 372.14 349.96 372.07 349.99 372.03 349.96 372.02 349.97 371.87 349.94 371.86 349.94 371.85 349.94 371.82 349.93 371.73 349.87 371.7 349.85 371.68 349.83 371.66 349.79 371.65 349.75 371.65 349.72 371.68 349.7 371.72 349.68 371.68 349.69 371.56 349.74 371.46 349.67 371.43 349.61 371.41 349.59 371.37 349.58 371.35 349.57 371.32 349.54 371.27 349.48 371.32 349.48 371.39 349.43 371.43 349.42 371.47 349.43 371.51 349.44 371.58 349.47 371.53 349.43 371.48 349.39 371.43 349.34 371.39 349.23 371.39 349.23 371.38 349.22 371.38 349.2 371.4 349.17 371.4 349.14 371.42 349.11 371.44 349.08 371.46 349.06 371.39 349.05 371.36 349.02 371.34 348.98 371.31 348.92 371.28 348.9 371.25 348.89 371.23 348.87 371.22 348.84 371.22 348.81 371.22 348.78 371.23 348.75 371.25 348.72 371.23 348.73 371.21 348.74 371.2 348.75 371.18 348.75 371.17 348.76 371.16 348.76 371.15 348.75 371.13 348.75 371.03 348.77 370.98 348.79 370.92 348.82 370.87 348.87 370.83 348.91 370.82 348.91 370.82 348.87 370.82 348.78 370.81 348.73 370.81 348.7 370.82 348.68 370.79 348.66 370.72 348.53 370.71 348.53 370.71 348.52 370.7 348.52 370.69 348.52 370.68 348.5 370.67 348.48 370.61 348.4 370.6 348.39 370.59 348.37 370.58 348.35 370.55 348.34 370.58 348.3 370.59 348.29 370.59 348.26 370.59 348.24 370.56 348.2 370.55 348.17 370.59 348.18 370.61 348.19 370.62 348.18 370.63 348.19 370.64 348.21 370.68 348.19 370.72 348.19 370.76 348.2 370.79 348.22 370.82 348.25 370.86 348.33 370.94 348.37 370.99 348.42 371.05 348.46 371.09 348.45 371.11 348.45 371.11 348.43 371.08 348.43 371.06 348.42 371.04 348.4 371.03 348.37 371.06 348.37 371.06 348.36 371 348.34 370.94 348.32 370.9 348.29 370.93 348.24 370.95 348.22 371.02 348.19 371.05 348.17 371.06 348.15 371.08 348.13 371.09 348.12 371.12 348.13 371.12 348.1 371.13 348.08 371.14 348.06 371.15 348.04 371.18 348.04 371.32 348.05 371.36 348.07 371.39 348.07 371.41 348.06 371.45 348.03 371.47 348.02 371.43 348.01 371.38 348.02 371.34 348.01 371.34 347.99 371.34 347.99 371.38 347.94 371.46 347.76 371.4 347.83 371.37 347.89 371.32 347.94 371.25 347.96 371.21 347.96 371.17 347.95 371.14 347.95 371.09 347.99 371.05 347.99 371.01 347.98 370.99 347.95 371.04 347.94 371.06 347.91 371.09 347.88 371.12 347.85 371.12 347.84 371.1 347.84 371.09 347.83 371.08 347.82 371.08 347.81 371.06 347.81 371.04 347.88 371.03 347.9 371 347.92 370.97 347.9 370.93 347.88 370.89 347.82 370.87 347.84 370.85 347.83 370.84 347.82 370.83 347.79 370.82 347.83 370.84 347.86 370.87 347.87 370.91 347.88 370.88 347.9 370.94 347.95 370.95 348 370.91 348.04 370.87 348.08 370.87 348.1 370.87 348.12 370.86 348.14 370.84 348.14 370.82 348.14 370.81 348.12 370.75 348.02 370.73 347.99 370.72 347.92 370.7 347.88 370.68 347.84 370.66 347.82 370.65 347.79 370.65 347.76 370.65 347.69 370.66 347.69 370.65 347.45 370.71 347.38 370.74 347.37 370.75 347.38 370.76 347.4 370.77 347.41 370.94 347.41 370.98 347.4 371.02 347.38 371.09 347.38 371.22 347.38 371.12 347.35 371.11 347.36 371.09 347.37 371.05 347.37 371.01 347.36 370.99 347.35 370.96 347.36 370.93 347.37 370.89 347.36 370.88 347.34 370.87 347.33 370.86 347.32 370.84 347.32 370.83 347.32 370.83 347.3 370.84 347.3 370.85 347.29 370.87 347.25 370.91 347.23 370.97 347.22 371.02 347.21 371.02 347.2 370.98 347.19 370.93 347.19 370.83 347.23 370.78 347.23 370.73 347.22 370.68 347.19 370.67 347.14 370.66 347.15 370.65 347.15 370.65 347.15 370.65 347.17 370.62 347.14 370.61 347.14 370.6 347.15 370.6 347.16 370.59 347.17 370.54 347.13 370.55 347.02 370.52 346.98 370.52 346.97 370.57 346.93 370.67 346.9 370.72 346.89 370.76 346.9 370.84 346.95 370.89 346.97 370.93 346.96 370.99 346.91 371.08 346.87 371.12 346.85 371.15 346.81 371.18 346.74 371.2 346.71 371.22 346.68 371.23 346.67 371.27 346.67 371.27 346.67 371.27 346.65 371.24 346.61 371.23 346.59 371.24 346.52 371.28 346.45 371.32 346.42 371.37 346.47 371.41 346.44 371.46 346.44 371.5 346.44 371.55 346.43 371.58 346.4 371.64 346.31 371.68 346.3 371.71 346.29 371.71 346.27 371.7 346.25 371.7 346.23 371.72 346.21 371.73 346.2 371.77 346.18 371.78 346.18 371.79 346.19 371.8 346.19 371.81 346.17 371.81 346.16 371.82 346.15 371.83 346.14 371.84 346.12 371.92 345.88 371.92 345.87 371.92 345.86 371.92 345.85 371.93 345.84 371.95 345.84 371.95 345.84 371.96 345.83 371.97 345.82 371.98 345.75 372 345.73 372.02 345.72 372.04 345.72 372.05 345.72 372.06 345.7 372.07 345.61 372.07 345.6 372.11 345.54 372.13 345.52 372.2 345.48 372.21 345.47 372.21 345.47 372.21 345.44 372.21 345.43 372.22 345.43 372.24 345.43 372.24 345.42 372.24 345.41 372.23 345.39 372.23 345.38 372.26 345.21 372.26 345.19 372.26 345.18 372.26 345.16 372.27 345.14 372.35 345.1 372.45 345.06 372.79 344.99 372.84 344.99 372.88 345.02 372.92 345.05 372.97 345.08 373.01 345.1 373.05 345.11 373.09 345.11 373.16 345.09 373.57 345 373.59 344.98 373.6 344.85 374.54 344.84 375.01 344.84 375.07 344.84 375.14 344.87 375.17 344.87 375.2 344.89 375.21 344.94 375.25 345.09 Z" fill-rule="evenodd" id="Sierra Leone" transform="translate(-370.5199890136719,-344.8399963378906) "/></svg>