<svg xmlns="http://www.w3.org/2000/svg" viewBox="0 0 798 511"><path d="M 400.59 418.51 402.43 417 407.11 421.69 404.94 432.08 392.89 419.52 396.23 416.33 400.59 418.51 Z M 421.68 414.99 424.36 415.5 424.69 419.18 415.82 413.82 419.17 411.98 421.68 414.99 Z M 406.95 404.94 417.66 401.59 417.16 405.78 410.63 406.95 409.79 411.14 413.64 412.31 418 419.35 415.65 425.72 408.96 419.35 406.95 410.97 403.26 407.79 398.91 410.8 402.93 406.45 397.07 401.93 406.95 404.94 Z M 381.67 402.43 383.18 401.25 387.03 407.62 386.52 407.96 381.67 402.43 Z M 377.32 434.26 378.15 429.74 380.5 429.57 381 432.08 377.32 434.26 Z M 373.97 429.57 374.47 427.39 376.82 427.39 376.31 430.57 373.97 429.57 Z M 338.65 356.52 351.2 357.02 366.6 364.9 382 366.57 384.35 364.56 390.88 365.74 390.71 368.25 398.24 366.57 401.59 368.75 392.38 383.5 375.48 393.38 362.42 383.16 358.23 375.62 332.12 357.02 338.65 356.52 Z M 388.53 354.18 391.71 359.87 381.5 364.56 365.6 360.71 362.42 355.18 372.63 347.81 382 347.81 388.53 354.18 Z M 339.65 350.83 340.15 347.31 343.33 349.65 342.5 350.99 339.65 350.83 Z M 520.38 284.19 520.44 284.48 476.75 299.56 446.12 319.33 437.25 310.11 431.72 298.39 432.06 292.19 441.43 289.17 440.59 283.47 436.41 281.63 428.37 290.01 426.53 294.2 428.37 305.42 424.69 306.26 423.69 309.95 433.56 316.14 440.09 325.86 421.01 340.44 409.46 332.9 408.79 352.17 406.61 355.01 401.09 349.65 396.9 354.68 384.68 343.12 373.97 343.96 363.76 350.49 354.05 352 340.32 344.29 327.77 349.48 318.22 341.61 309.02 338.93 284.24 323.52 274.03 342.11 240.55 321.67 243.23 314.13 250.59 316.81 248.42 314.3 250.26 313.63 254.11 317.48 259.8 315.47 262.82 320 270.01 320.67 271.35 317.99 269.85 314.3 254.61 303.58 254.11 298.39 257.29 295.2 250.93 289.67 257.46 285.99 250.43 289.51 247.08 295.54 240.55 296.54 222.47 290.01 204.39 287.33 198.7 276.1 198.7 270.07 207.07 256.5 207.57 250.47 200.21 260.19 193.18 276.6 198.2 283.98 197.36 286.66 182.96 277.95 181.46 279.29 187.99 285.82 186.65 288.67 184.3 290.51 175.93 287.66 171.25 276.94 168.57 279.79 168.9 284.48 165.22 286.82 158.69 286.32 154.17 281.63 151.83 288.67 146.14 290.51 144.3 281.63 143.46 288.67 128.56 290.01 125.21 289.51 122.7 280.79 123.37 291.01 117.68 293.69 104.79 278.45 102.44 285.65 111.82 296.04 112.32 299.73 104.79 301.23 98.26 308.61 91.4 301.74 87.21 302.57 84.87 298.89 83.03 299.73 83.03 294.7 78.84 296.04 59.76 276.6 66.62 270.07 64.28 266.72 60.59 266.72 57.58 278.95 50.89 280.63 49.55 276.6 48.04 277.44 42.35 291.52 64.95 303.24 65.62 310.11 56.74 311.62 50.38 338.09 21.76 351.83 21.26 359.37 11.88 366.74 22.76 392.54 16.23 394.39 22.76 416.17 1 423.71 3.85 410.3 15.23 406.78 12.38 394.89 7.36 391.54 4.35 370.26 16.74 355.85 17.57 351.33 10.88 342.11 22.59 309.44 14.06 301.74 13.72 295.54 20.08 285.65 42.85 222.15 40.67 216.96 43.35 210.93 41.18 203.05 48.54 200.71 49.88 204.9 61.26 214.61 69.97 216.96 69.3 223.16 71.81 227.68 78 227.52 80.01 223.83 76 224 73.65 214.45 61.1 203.72 54.74 194.01 60.26 190.82 61.6 185.8 71.81 183.12 76.83 184.46 73.48 174.74 78.17 166.36 101.11 166.2 104.29 175.58 109.48 175.08 109.98 169.88 105.29 162.01 108.64 156.48 114.83 155.31 109.48 154.13 106.63 148.94 90.39 151.28 85.2 148.6 81.52 151.28 81.02 149.44 89.89 133.19 89.89 126.66 87.21 123.81 90.39 119.62 90.56 112.08 95.41 105.21 102.78 102.2 109.64 79.74 116 72.21 139.72 64.71 139.11 64.33 146.47 61.32 165.22 42.72 176.6 36.85 195.52 34.51 204.39 37.36 217.62 54.61 213.93 68.85 217.11 71.03 212.59 85.78 202.72 95.33 192 100.02 185.31 100.18 178.28 96 169.57 99.51 161.54 99.68 160.2 102.53 169.41 101.02 172.75 104.04 177.27 99.18 181.63 105.21 191.17 103.03 195.69 104.88 197.19 109.4 192.84 122.3 194.01 126.49 186.31 132.69 186.82 134.87 197.03 128 200.71 115.1 205.23 119.12 211.76 134.53 212.59 124.48 202.89 104.37 218.96 90.47 220.13 86.45 231.18 72.21 224.82 54.11 227.83 52.94 237.37 58.3 244.4 55.62 256.45 55.79 269.51 38.19 291.78 27.47 314.04 8.88 330.78 2.34 354.55 3.18 358.23 6.36 352.54 10.22 352.21 14.07 357.56 9.04 362.25 10.05 368.95 1 372.63 4.35 371.79 7.53 405.11 27.47 406.11 35.35 397.74 39.03 411.63 39.2 414.82 47.58 408.96 54.95 416.66 51.1 424.69 60.65 425.19 65.34 400.59 104.37 393.56 108.06 375.48 103.54 370.29 106.72 367.61 113.92 368.95 115.43 373.13 110.91 379.16 109.73 378.99 122.8 386.19 124.14 390.71 117.94 394.89 118.95 396.57 114.59 417.16 98.17 422.85 90.13 426.03 82.09 430.72 79.24 440.93 80.58 447.46 89.29 454.82 93.99 455.66 99.85 456.16 93.82 459.34 92.14 478.09 97.67 478.09 103.7 466.04 113.59 466.04 117.44 480.6 109.9 478.59 107.56 485.46 91.47 501.86 84.77 509.56 84.6 509.9 102.7 523.79 119.28 511.91 144.25 516.26 135.7 529.99 124.31 540.03 121.13 546.39 124.14 551.08 136.71 564.81 146.26 573.01 149.94 588.74 151.79 600.8 151.45 597.28 149.44 597.78 144.75 604.82 144.75 614.86 132.69 634.95 132.69 648.34 137.38 654.87 135.54 662.9 158.82 669.26 165.69 666.08 169.04 666.08 178.76 653.19 204.06 639.97 239.58 648.84 244.94 646 249.13 652.19 252.81 678.64 247.62 709.27 245.78 710.28 252.81 713.96 256 710.28 262.03 711.62 271.41 709.27 271.91 707.43 266.22 700.4 260.19 702.74 257.84 700.4 255.16 693.54 257 695.38 266.72 701.41 269.57 699.56 272.75 693.04 269.07 691.7 263.03 674.96 262.03 656.37 271.41 639.97 264.88 635.45 269.07 627.41 260.19 617.7 262.7 610.84 260.69 590.75 264.88 581.38 269.74 567.32 270.74 544.72 279.79 520.38 284.19 Z M 695.88 178.26 719.99 192.83 716.3 198.87 711.11 198.36 708.44 189.99 705.59 192.33 700.07 189.99 704.08 194.85 703.58 203.56 698.73 207.58 697.72 212.77 686 208.08 678.64 213.27 681.82 200.21 679.98 198.36 673.11 217.46 668.93 220.65 668.93 225.34 661.4 236.9 659.05 231.87 662.4 224.83 660.06 222.49 673.11 195.01 669.77 191.83 671.11 186.64 678.14 178.76 673.11 191.33 676.3 192.83 679.14 189.48 683.33 196.02 689.35 182.95 695.88 178.26 Z M 218.79 77.06 219.79 78.4 215.94 81.59 216.61 75.39 218.79 77.06 Z M 428.37 57.29 420.67 47.58 421.01 43.39 415.82 36.35 420 37.36 430.38 50.76 431.22 56.79 428.37 57.29 Z M 524.13 97.84 537.85 112.25 538.02 116.6 532 111.41 528.15 112.25 527.31 108.06 514.25 93.99 524.13 97.84 Z M 471.23 79.24 484.79 89.46 479.1 96.5 461.02 90.3 468.72 78.91 471.23 79.24 Z M 457.17 90.97 452.82 89.96 437.75 77.9 438.75 72.04 444.95 67.68 452.82 67.68 467.88 77.4 457.17 90.97 Z M 576.86 121.13 566.98 112.25 563.8 107.56 567.99 108.56 578.7 121.97 576.86 121.13 Z M 754.47 67.85 775.56 70.36 788.62 80.58 795.32 88.29 797.83 95.16 794.82 95.83 795.32 98.01 799 103.7 794.31 107.72 794.31 117.94 788.29 135.2 782.76 137.55 772.89 135.2 751.46 144.58 748.44 151.12 739.57 152.96 723.33 132.02 724.67 128.16 718.98 127.33 716.64 118.45 702.74 108.73 707.43 98.17 702.07 99.18 701.91 94.49 707.6 94.32 703.25 78.91 706.09 77.06 718.48 78.4 725.18 74.22 726.52 70.03 742.75 70.87 747.44 67.35 754.47 67.85 Z M 551.75 76.23 578.87 86.61 576.36 88.29 579.7 91.31 604.15 87.79 618.37 90.8 638.13 90.13 641.81 94.82 639.13 101.69 641.81 106.89 628.92 109.23 618.71 107.39 611.68 110.07 611.68 113.92 606.99 117.11 584.73 120.79 575.35 109.23 575.35 103.2 573.01 103.2 570.67 108.73 568.82 104.04 553.59 96.16 556.77 90.64 551.25 95.33 547.06 95.33 544.72 90.13 538.69 91.47 531.16 82.76 543.71 73.88 550.24 73.38 551.75 76.23 Z M 692.03 85.27 698.56 88.96 700.4 96.83 697.22 100.18 690.69 100.18 683.33 94.15 686.51 81.92 692.03 85.27 Z M 211.09 497.59 223.31 498.93 218.29 512 209.41 511.16 205.23 502.78 200.21 500.77 207.07 495.75 211.09 497.59 Z M 260.97 437.61 270.35 441.3 285.75 435.77 289.77 441.97 289.43 455.71 280.06 461.23 279.72 466.93 269.85 474.81 262.48 471.96 273.19 470.62 277.38 465.42 276.37 460.4 263.82 452.86 254.95 460.9 260.14 470.11 252.27 462.74 253.61 458.55 249.42 447.83 250.76 428.23 252.27 426.89 257.29 437.11 260.97 437.61 Z M 314.04 440.79 324.25 450.51 322.58 454.53 307.51 448.67 305.84 442.47 308.01 437.61 311.19 437.11 314.04 440.79 Z M 234.02 416.67 232.68 412.48 237.37 412.48 236.37 417.51 234.02 416.67 Z M 201.21 470.78 206.23 476.65 201.55 477.99 199.2 483.68 185.14 488.71 180.62 477.15 188.99 477.15 192.17 470.11 201.21 470.78 Z M 194.01 437.95 202.38 436.61 203.72 439.79 200.21 442.13 206.74 444.65 209.41 450.34 180.79 452.02 164.89 448 176.44 436.61 190.83 432.42 194.01 437.95 Z M 169.41 300.73 171.75 302.57 173.09 300.23 177.27 304.42 192.17 304.42 200.21 316.98 208.58 324.02 212.09 323.85 219.63 331.06 219.63 334.24 212.76 341.61 196.86 336.75 195.19 340.27 197.7 342.11 197.19 346.47 189.66 354.34 173.76 346.97 168.57 339.77 164.38 340.77 161.54 345.46 166.22 353.34 175.1 356.19 177.27 364.56 168.57 362.22 159.19 369.09 151.33 370.6 145.3 368.75 141.11 359.37 141.11 347.31 138.77 346.3 135.93 349.65 128.89 343.45 119.85 351.66 125.38 358.53 115.17 376.96 119.85 380.98 129.4 366.07 137.6 387.85 117.18 406.95 114.5 400.75 118.52 385.17 112.99 380.98 108.97 384.33 93.24 374.11 97.42 370.76 79.68 338.76 125.38 306.59 132.74 302.57 139.27 303.58 141.95 298.39 143.79 299.73 137.43 309.44 137.77 313.97 124.88 329.05 129.4 334.24 140.11 325.36 139.27 333.23 143.46 335.24 146.14 323.01 143.79 318.49 151.33 311.96 156.85 315.64 164.72 329.05 170.58 328.71 172.92 324.69 164.72 320.67 159.7 305.42 164.72 298.39 169.41 300.73 Z M 241.05 415.16 239.21 412.48 239.21 411.47 242.06 411.98 241.05 415.16 Z M 260.64 387.68 269.34 393.38 285.25 410.13 284.74 416.67 276.88 414.83 270.85 407.29 268 412.31 259.63 413.82 247.08 406.78 243.4 401.76 243.9 395.22 248.08 393.38 252.6 398.91 254.11 395.73 251.77 390.53 255.45 386.85 260.64 387.68 Z M 238.21 395.89 238.21 399.91 232.18 403.1 224.82 403.6 219.12 399.41 225.32 394.22 222.97 391.54 225.32 388.69 233.69 389.69 237.37 387.35 238.21 395.89 Z M 198.53 112.58 199.54 110.4 200.21 110.57 200.37 113.25 198.53 112.58 Z M 70.14 170.55 68.96 166.03 76.16 162.84 76.5 168.21 72.48 171.56 70.14 170.55 Z M 78.17 155.98 79.34 152.96 80.35 152.79 77.17 157.99 78.17 155.98 Z M 170.41 99.68 169.07 99.68 169.57 99.51 171.08 99.01 170.41 99.68 Z M 127.05 63.83 126.72 62.66 129.56 61.99 128.22 64.16 127.05 63.83 Z" fill-rule="evenodd" transform="translate(-1,-1) "/></svg>