<svg xmlns="http://www.w3.org/2000/svg" viewBox="0 0 6.97998046875 4.589996337890625"><path d="M 436.61 250.91 436.56 250.87 436.53 250.86 436.51 250.85 436.46 250.86 436.44 250.86 436.42 250.84 436.39 250.8 436.37 250.79 436.34 250.79 436.31 250.79 436.29 250.79 436.26 250.77 436.25 250.79 436.25 250.79 436.23 250.77 436.22 250.78 436.2 250.8 436.16 250.82 436.12 250.84 436.05 250.87 436.05 250.87 435.99 250.94 435.99 250.97 435.98 250.99 435.99 251.03 436.02 251.12 436.02 251.14 436.02 251.2 436.02 251.22 436.04 251.24 436.07 251.26 436.08 251.28 436.09 251.31 436.09 251.32 436.08 251.32 436.03 251.32 435.95 251.34 435.93 251.34 435.89 251.34 435.86 251.32 435.81 251.27 435.79 251.26 435.76 251.26 435.74 251.28 435.72 251.31 435.7 251.32 435.68 251.33 435.66 251.33 435.6 251.31 435.59 251.37 435.6 251.41 435.6 251.46 435.58 251.5 435.58 251.51 435.55 251.53 435.51 251.56 435.46 251.59 435.45 251.59 435.43 251.6 435.35 251.61 435.29 251.65 435.21 251.69 435.2 251.69 435.2 251.69 435.1 251.69 435.06 251.7 435.03 251.72 435.02 251.72 435 251.74 434.95 251.82 434.91 251.84 434.75 251.83 434.72 251.83 434.67 251.85 434.64 251.89 434.63 251.9 434.59 251.98 434.56 252.07 434.56 252.15 434.59 252.23 434.63 252.27 434.65 252.29 434.68 252.31 434.74 252.33 434.77 252.35 434.79 252.38 434.8 252.4 434.79 252.43 434.76 252.47 434.74 252.54 434.74 252.54 434.75 252.6 434.75 252.7 434.75 252.75 434.74 252.79 434.72 252.83 434.71 252.87 434.72 252.91 434.75 252.97 434.75 253.02 434.73 253.05 434.68 253.07 434.64 253.09 434.55 253.09 434.47 253.08 434.41 253.07 434.39 253.08 434.35 253.11 434.33 253.12 434.3 253.11 434.28 253.11 434.25 253.1 434.23 253.11 434.22 253.14 434.22 253.18 434.23 253.21 434.2 253.23 434.2 253.23 433.98 253.3 433.92 253.32 433.83 253.37 433.82 253.39 433.8 253.42 433.8 253.43 433.81 253.44 433.82 253.45 433.84 253.47 433.87 253.51 433.88 253.53 433.9 253.54 433.93 253.55 433.94 253.55 433.94 253.54 433.95 253.53 433.98 253.52 433.98 253.52 433.99 253.52 434.03 253.56 434.03 253.57 434.07 253.63 434.08 253.66 434.03 253.66 434 253.67 433.97 253.68 433.91 253.7 433.9 253.72 433.89 253.75 433.87 253.76 433.85 253.78 433.85 253.8 433.86 253.84 433.88 253.87 433.88 253.88 433.89 253.96 433.91 254.03 433.94 254.08 434.05 254.15 434.03 254.17 433.99 254.23 433.97 254.25 433.95 254.25 433.87 254.25 433.75 254.3 433.66 254.33 433.56 254.32 433.4 254.18 433.37 254.16 433.27 254.16 433.24 254.14 433.22 254.13 433.2 254.12 433.17 254.12 433.13 254.08 433.08 254.05 433.04 254.05 433.03 254.12 432.99 254.19 432.89 254.23 432.8 254.21 432.77 254.12 432.77 254.12 432.77 254.12 432.76 254.12 432.56 254.03 432.52 253.99 432.51 253.97 432.52 253.92 432.52 253.89 432.51 253.88 432.5 253.88 432.49 253.87 432.47 253.86 432.4 253.8 432.37 253.77 432.35 253.73 432.35 253.69 432.35 253.63 432.35 253.58 432.32 253.57 432.29 253.58 432.28 253.58 432.27 253.6 432.24 253.67 432.22 253.7 432.16 253.76 432.14 253.79 432.12 253.83 432.12 253.85 432.11 253.92 432.1 253.96 432.07 254.02 431.99 254.08 431.94 254.12 431.86 254.17 431.76 254.18 431.65 254.16 431.57 254.12 431.52 254.11 431.46 254.12 431.36 254.17 431.3 254.18 431.29 254.18 431.29 254.18 431.24 254.18 431.18 254.16 431.13 254.12 431.13 254.12 431.1 254.09 431.06 254.07 431.01 254.06 430.97 254.05 430.96 254.06 430.95 254.09 430.95 254.12 430.99 254.18 430.97 254.21 430.86 254.26 430.83 254.29 430.81 254.32 430.79 254.34 430.67 254.32 430.63 254.31 430.6 254.28 430.5 254.21 430.28 254.22 430.21 254.23 430.12 254.13 430.13 254.12 430.12 254.09 430.14 254.06 430.14 254.04 430.12 254.04 430.1 254.02 430.09 254 430.08 253.97 430.12 253.99 430.31 253.96 430.49 253.93 430.49 253.91 430.46 253.88 430.43 253.84 430.39 253.8 430.5 253.79 430.59 253.84 430.7 253.83 430.74 253.78 430.78 253.72 430.8 253.68 430.8 253.68 430.8 253.67 430.78 253.67 430.74 253.65 430.72 253.63 430.54 253.33 430.39 253.26 430.37 253.24 430.28 253.18 430.24 253.16 430.17 253.15 430.11 253.12 430.09 253.09 430.07 253.05 430.08 252.95 430.15 252.79 430.16 252.75 430.18 252.69 430.2 252.62 430.16 252.56 430.15 252.56 430.08 252.58 430.01 252.61 429.95 252.62 429.89 252.55 429.88 252.55 429.88 252.54 429.88 252.54 429.88 252.54 429.87 252.53 429.84 252.5 429.87 252.46 429.89 252.46 429.9 252.43 429.91 252.41 429.9 252.39 429.89 252.37 429.94 252.31 429.98 252.28 430.18 252.12 430.25 252 430.24 251.97 430.23 251.94 430.21 251.94 430.18 251.93 430.11 251.94 430.06 251.93 429.99 251.86 429.95 251.83 429.89 251.82 429.85 251.8 429.79 251.8 429.75 251.79 429.79 251.84 429.73 251.85 429.71 251.83 429.7 251.78 429.67 251.74 429.67 251.74 429.67 251.74 429.66 251.66 429.64 251.62 429.63 251.59 429.68 251.55 429.69 251.54 429.73 251.48 429.75 251.42 429.78 251.39 429.81 251.38 429.84 251.37 429.89 251.33 429.99 251.28 430.05 251.22 430.09 251.15 430.15 251.1 430.22 251.09 430.28 251.09 430.32 251.07 430.34 251.03 430.34 251.02 430.35 250.94 430.36 250.92 430.37 250.9 430.37 250.88 430.37 250.86 430.4 250.86 430.55 250.89 430.58 250.89 430.72 250.87 430.79 250.88 430.99 250.98 431.03 250.98 431.07 250.97 431.11 250.97 431.14 250.97 431.18 250.98 431.21 251 431.34 251.1 431.36 251.11 431.37 251.11 431.57 251.12 431.84 251.12 431.91 251.11 431.93 251.11 431.94 251.13 431.95 251.15 431.96 251.16 432 251.18 432.03 251.19 432.07 251.2 432.15 251.18 432.18 251.22 432.2 251.28 432.23 251.31 432.27 251.29 432.28 251.27 432.29 251.24 432.31 251.18 432.34 251.13 432.36 251.12 432.41 251.12 432.43 251.11 432.46 251.09 432.5 251.05 432.51 251.05 432.52 251.05 432.54 251.05 432.56 251.01 432.58 250.98 432.59 250.96 432.61 250.94 432.64 250.93 432.66 250.94 432.72 250.93 432.77 250.91 432.78 250.9 432.8 250.86 432.82 250.8 432.84 250.75 432.86 250.7 432.88 250.65 432.92 250.59 432.95 250.58 432.98 250.59 433.02 250.58 433.02 250.58 433.07 250.55 433.1 250.53 433.13 250.54 433.18 250.6 433.26 250.48 433.39 250.44 433.44 250.44 433.48 250.45 433.63 250.46 433.7 250.47 433.99 250.46 434.11 250.45 434.18 250.48 434.22 250.51 434.23 250.52 434.28 250.55 434.34 250.54 434.38 250.51 434.39 250.49 434.4 250.47 434.4 250.44 434.4 250.44 434.43 250.39 434.46 250.37 434.51 250.35 434.55 250.35 434.59 250.36 434.62 250.35 434.63 250.35 434.64 250.34 434.65 250.31 434.65 250.27 434.66 250.22 434.7 250.24 434.87 250.27 434.92 250.26 434.99 250.24 435.07 250.2 435.14 250.2 435.2 250.21 435.35 250.28 435.44 250.3 435.46 250.32 435.5 250.37 435.5 250.37 435.5 250.37 435.5 250.3 435.47 250.25 435.43 250.22 435.4 250.14 435.4 250.08 435.4 250.03 435.4 250.02 435.42 249.92 435.42 249.9 435.41 249.89 435.4 249.89 435.43 249.86 435.44 249.86 435.53 249.83 435.54 249.83 435.58 249.8 435.68 249.75 435.76 249.77 435.77 249.77 435.86 249.76 436.07 249.75 436.09 249.76 436.13 249.8 436.14 249.81 436.16 249.82 436.19 249.83 436.2 249.84 436.19 249.87 436.18 249.91 436.16 249.95 436.16 249.96 436.14 250 436.13 250.02 436.13 250.03 436.13 250.04 436.16 250.14 436.19 250.17 436.21 250.21 436.23 250.23 436.26 250.22 436.26 250.28 436.28 250.29 436.28 250.29 436.29 250.29 436.33 250.29 436.36 250.32 436.38 250.38 436.36 250.39 436.35 250.41 436.3 250.43 436.28 250.46 436.29 250.48 436.3 250.5 436.34 250.54 436.42 250.58 436.5 250.71 436.58 250.77 436.61 250.91 Z" id="Slovenia" transform="translate(-429.6300048828125,-249.75) "/></svg>