<svg xmlns="http://www.w3.org/2000/svg" viewBox="0 0 12.6199951171875 6.1999969482421875"><path d="M 449.96 242.46 449.95 242.52 449.93 242.59 449.92 242.67 449.92 242.73 449.89 242.76 449.8 242.77 449.76 242.8 449.71 242.94 449.69 243 449.68 243.02 449.68 243.06 449.68 243.08 449.66 243.11 449.61 243.16 449.59 243.18 449.58 243.19 449.57 243.23 449.57 243.25 449.57 243.28 449.58 243.39 449.57 243.42 449.56 243.46 449.54 243.48 449.52 243.5 449.5 243.52 449.49 243.57 449.5 243.64 449.48 243.71 449.45 243.77 449.42 243.82 449.39 243.84 449.33 243.85 449.31 243.87 449.29 243.9 449.27 243.95 449.25 243.97 449.11 244.09 449.07 244.15 449.07 244.21 449.1 244.35 449.09 244.4 449.06 244.46 449.06 244.7 449.02 244.75 448.98 244.78 448.94 244.79 448.81 244.78 448.77 244.78 448.73 244.8 448.61 244.8 448.58 244.81 448.51 244.85 448.41 244.87 448.3 244.93 448.23 244.93 448.16 244.91 448.1 244.86 448.05 244.8 447.93 244.61 447.91 244.58 447.88 244.44 447.86 244.4 447.82 244.39 447.74 244.39 447.71 244.38 447.69 244.35 447.67 244.29 447.66 244.26 447.64 244.24 447.6 244.23 447.52 244.18 447.49 244.17 447.38 244.21 447.3 244.21 447.26 244.22 447.22 244.25 447.2 244.28 447.19 244.31 447.16 244.35 447.13 244.37 447.11 244.36 447.08 244.33 447.04 244.32 446.96 244.33 446.79 244.41 446.74 244.4 446.69 244.36 446.63 244.33 446.56 244.32 446.51 244.32 446.43 244.32 446.31 244.24 446.24 244.23 446.21 244.23 446.14 244.17 446.11 244.15 446.07 244.15 445.6 244.26 445.47 244.27 445.4 244.29 445.4 244.32 445.4 244.34 445.4 244.4 445.4 244.41 445.4 244.43 445.4 244.44 445.4 244.45 445.37 244.49 445.37 244.5 445.3 244.57 445.27 244.61 445.24 244.67 445.15 244.93 445.11 245.03 445.05 245.11 444.99 245.18 444.94 245.2 444.91 245.19 444.89 245.16 444.84 245.14 444.82 245.15 444.75 245.21 444.71 245.23 444.67 245.23 444.65 245.22 444.63 245.22 444.6 245.25 444.6 245.28 444.58 245.34 444.57 245.37 444.55 245.38 444.51 245.4 444.42 245.45 444.41 245.46 444.33 245.48 444.28 245.51 444.18 245.61 444.12 245.63 444.08 245.61 443.99 245.53 443.94 245.51 443.86 245.55 443.84 245.54 443.82 245.51 443.82 245.48 443.83 245.45 443.83 245.42 443.79 245.37 443.74 245.37 443.64 245.39 443.62 245.37 443.57 245.31 443.54 245.29 443.52 245.29 443.5 245.29 443.29 245.34 443.26 245.36 443.23 245.41 443.21 245.54 443.18 245.59 443.18 245.59 443.18 245.59 443.18 245.6 443.18 245.6 443.19 245.62 443.19 245.63 443.19 245.65 443.18 245.67 443.07 245.75 442.77 245.75 442.63 245.83 442.61 245.84 442.34 245.8 442.2 245.82 442.16 245.82 442.11 245.82 442.08 245.83 441.97 245.86 441.76 245.9 441.72 245.94 441.66 246.06 441.64 246.08 441.6 246.09 441.58 246.1 441.55 246.13 441.55 246.14 441.57 246.16 441.57 246.2 441.55 246.33 441.55 246.4 441.56 246.46 441.62 246.53 441.71 246.59 441.71 246.59 441.65 246.61 441.6 246.62 441.56 246.65 441.49 246.74 441.44 246.77 441.37 246.78 441.31 246.76 441.22 246.73 441.12 246.72 440.67 246.77 440.51 246.84 440.42 246.85 440.15 246.82 439.64 246.85 439.51 246.86 439.33 246.81 439.28 246.78 439.18 246.73 439.16 246.71 439.14 246.67 439.1 246.63 439.06 246.6 439.02 246.58 439 246.59 438.98 246.6 438.95 246.6 438.93 246.57 438.85 246.46 438.83 246.45 438.77 246.43 438.75 246.42 438.73 246.4 438.5 246.1 438.43 246.04 438.29 246.02 438.26 246.01 438.17 245.99 438.09 245.97 438.01 246.02 437.96 245.97 437.89 245.95 437.84 245.92 437.85 245.87 437.82 245.84 437.81 245.84 437.83 245.78 437.84 245.74 437.86 245.71 437.83 245.68 437.82 245.66 437.79 245.6 437.77 245.59 437.73 245.58 437.7 245.57 437.64 245.5 437.63 245.45 437.63 245.38 437.62 245.32 437.58 245.2 437.58 245.19 437.58 245.15 437.58 245.13 437.57 245.12 437.56 245.12 437.54 245.09 437.52 245.09 437.5 245.07 437.49 245.05 437.49 245.04 437.48 245.02 437.47 245 437.47 245 437.46 244.99 437.46 244.97 437.47 244.95 437.48 244.94 437.47 244.91 437.44 244.89 437.42 244.87 437.41 244.86 437.36 244.86 437.35 244.85 437.34 244.83 437.34 244.79 437.34 244.77 437.35 244.76 437.36 244.74 437.37 244.57 437.38 244.52 437.41 244.47 437.46 244.39 437.48 244.35 437.49 244.31 437.53 244.28 437.57 244.25 437.57 244.23 437.58 244.19 437.56 244.03 437.57 243.97 437.6 243.92 437.63 243.88 437.74 243.56 437.79 243.46 437.87 243.4 437.9 243.36 437.92 243.29 437.94 243.26 438.05 243.17 438.15 243.15 438.26 243.18 438.51 243.31 438.55 243.3 438.59 243.27 438.64 243.25 438.69 243.23 438.72 243.25 438.79 243.32 438.87 243.33 439.3 243.16 439.33 243.13 439.41 243 439.45 242.97 439.5 242.96 439.55 242.97 439.59 242.97 439.63 242.93 439.65 242.88 439.67 242.78 439.68 242.73 439.71 242.67 439.76 242.64 439.81 242.63 439.93 242.64 440 242.6 440.07 242.54 440.11 242.47 440.13 242.39 440.13 242.24 440.12 242.22 440.13 242.13 440.16 242.02 440.2 241.92 440.26 241.83 440.32 241.77 440.62 241.65 440.7 241.59 440.75 241.55 440.76 241.39 440.82 241.4 440.87 241.37 440.97 241.25 441.04 241.21 441.06 241.19 441.07 241.16 441.08 241.1 441.09 241.07 441.13 241.04 441.23 241.06 441.29 241.03 441.31 241.02 441.32 241.03 441.4 241.06 441.46 241.08 441.52 241.08 441.61 240.99 441.66 240.98 441.75 240.98 441.97 241 442.03 241.04 442.01 241.09 442.01 241.14 442.02 241.19 442.03 241.24 442.02 241.35 442.03 241.39 442.08 241.4 442.13 241.39 442.22 241.34 442.27 241.33 442.29 241.34 442.33 241.37 442.35 241.38 442.38 241.38 442.43 241.37 442.5 241.34 442.52 241.32 442.52 241.27 442.54 241.21 442.54 241.21 442.57 241.21 442.58 241.2 442.59 241.18 442.58 241.16 442.57 241.15 442.57 241.14 442.61 241.03 442.64 240.99 442.67 240.96 442.7 240.94 442.75 240.93 442.82 240.93 442.84 240.93 442.87 240.91 442.89 240.9 443.08 240.69 443.09 240.67 443.1 240.66 443.11 240.67 443.13 240.68 443.17 240.74 443.18 240.76 443.24 240.8 443.26 240.86 443.3 241.04 443.34 241.14 443.35 241.17 443.39 241.2 443.44 241.21 443.52 241.21 443.51 241.23 443.51 241.25 443.51 241.3 443.51 241.34 443.51 241.34 443.63 241.39 443.68 241.39 443.73 241.39 443.8 241.36 443.82 241.37 443.82 241.37 443.84 241.44 443.85 241.49 443.87 241.66 443.86 241.67 443.85 241.7 443.85 241.71 443.85 241.71 443.85 241.72 443.88 241.75 443.88 241.75 443.89 241.75 443.89 241.76 443.9 241.77 443.91 241.77 443.91 241.79 443.9 241.81 443.89 241.81 443.88 241.82 443.87 241.83 443.78 241.96 443.77 242.01 443.77 242.01 443.8 242.05 443.86 242.07 443.96 242.08 444.01 242.06 444.04 242.03 444.08 241.98 444.12 241.95 444.2 241.94 444.26 241.98 444.37 242.08 444.45 242.12 444.49 242.09 444.51 242 444.52 241.88 444.55 241.85 444.57 241.81 444.58 241.77 444.62 241.68 444.63 241.66 444.64 241.66 444.69 241.67 444.71 241.65 444.76 241.59 444.79 241.57 444.96 241.56 444.97 241.54 444.99 241.5 445 241.45 445.01 241.42 445.01 241.4 445.04 241.38 445.06 241.38 445.15 241.41 445.27 241.41 445.27 241.35 445.3 241.34 445.49 241.44 445.54 241.45 445.59 241.43 445.62 241.41 445.65 241.36 445.68 241.35 445.7 241.35 445.74 241.36 445.83 241.34 445.86 241.35 446.06 241.58 446.09 241.61 446.14 241.62 446.18 241.62 446.22 241.62 446.26 241.65 446.29 241.69 446.33 241.71 446.37 241.72 446.42 241.7 446.47 241.66 446.54 241.56 446.59 241.51 446.62 241.5 446.67 241.5 446.71 241.5 446.73 241.46 446.7 241.41 446.65 241.38 446.62 241.35 446.67 241.3 446.7 241.29 446.79 241.27 446.83 241.27 446.87 241.3 446.9 241.33 446.93 241.36 446.98 241.35 447.02 241.31 447.09 241.21 447.13 241.18 447.16 241.19 447.28 241.26 447.5 241.32 447.54 241.32 447.62 241.3 447.65 241.31 447.69 241.29 447.72 241.28 447.88 241.26 447.92 241.27 447.95 241.29 447.99 241.33 448.01 241.34 448.03 241.34 448.06 241.34 448.08 241.34 448.12 241.38 448.2 241.5 448.23 241.52 448.25 241.51 448.28 241.47 448.32 241.44 448.37 241.43 448.41 241.45 448.49 241.53 448.61 241.59 448.69 241.66 448.75 241.76 448.78 241.88 448.79 241.99 448.86 242.04 449.01 242.07 449.09 242.11 449.11 242.12 449.13 242.13 449.19 242.12 449.21 242.12 449.23 242.15 449.23 242.17 449.22 242.2 449.23 242.22 449.25 242.23 449.35 242.26 449.47 242.26 449.52 242.28 449.63 242.39 449.71 242.41 449.89 242.42 449.96 242.46 Z" id="Slovakia" transform="translate(-437.3399963378906,-240.66000366210938) "/></svg>