<svg xmlns="http://www.w3.org/2000/svg" viewBox="0 0 29.51995849609375 12.699981689453125"><path d="M 774.21 394.2 774.18 394.21 774.17 394.19 774.19 394.18 774.2 394.16 774.22 394.16 774.23 394.19 774.21 394.2 Z M 770.1 392.77 770.06 392.78 770.05 392.75 770.06 392.72 770.09 392.69 770.13 392.69 770.15 392.69 770.15 392.71 770.14 392.75 770.1 392.77 Z M 769.89 392.64 769.95 392.65 770.04 392.68 770.01 392.75 770.02 392.78 770.01 392.83 770.14 392.82 770.15 392.91 769.98 392.92 769.94 392.92 769.9 392.92 769.84 392.91 769.8 392.87 769.78 392.85 769.75 392.83 769.73 392.82 769.7 392.77 769.67 392.74 769.67 392.7 769.69 392.68 769.71 392.66 769.75 392.64 769.79 392.64 769.84 392.64 769.89 392.64 Z M 754.78 392.42 754.81 392.43 754.86 392.42 754.88 392.43 754.93 392.47 754.97 392.5 755.1 392.56 755.16 392.61 755.24 392.65 755.3 392.7 755.35 392.72 755.45 392.75 755.54 392.79 755.78 392.97 755.92 393.05 755.96 393.1 755.91 393.14 755.88 393.14 755.86 393.13 755.84 393.13 755.81 393.14 755.8 393.15 755.79 393.2 755.77 393.21 755.74 393.21 755.71 393.18 755.69 393.14 755.66 393.12 755.63 393.13 755.62 393.14 755.6 393.13 755.52 393.07 755.51 393.06 755.48 392.96 755.46 392.92 755.42 392.89 755.4 392.88 755.35 392.88 755.33 392.87 755.3 392.86 755.29 392.84 755.3 392.83 755.3 392.81 755.3 392.79 755.3 392.77 755.29 392.75 755.27 392.73 755.25 392.73 755.22 392.72 755.2 392.72 755.18 392.72 755.17 392.73 755.15 392.77 755.13 392.78 755.11 392.78 755.09 392.78 755.04 392.78 755 392.77 754.92 392.72 754.87 392.7 754.88 392.68 754.89 392.67 754.85 392.64 754.81 392.65 754.78 392.66 754.76 392.67 754.72 392.66 754.69 392.64 754.63 392.56 754.62 392.53 754.61 392.51 754.59 392.49 754.59 392.48 754.6 392.44 754.61 392.42 754.66 392.38 754.67 392.35 754.68 392.36 754.69 392.36 754.7 392.36 754.71 392.36 754.74 392.4 754.76 392.41 754.78 392.42 Z M 754.34 392 754.34 392.04 754.29 392.02 754.25 392.01 754.21 391.99 754.17 391.95 754.19 391.95 754.21 391.95 754.22 391.96 754.23 391.97 754.27 391.97 754.31 391.98 754.34 392 Z M 769.22 391.9 769.2 391.95 769.15 392 769.13 392.01 769.11 392.01 769.09 392.01 769.08 392 769.08 391.98 769.08 391.96 769.09 391.94 769.1 391.93 769.1 391.9 769.06 391.92 769.04 391.94 769.03 391.92 769.03 391.87 769.06 391.83 769.1 391.79 769.13 391.78 769.16 391.79 769.2 391.82 769.22 391.85 769.22 391.9 Z M 768.1 390.54 768.14 390.56 768.15 390.57 768.16 390.58 768.22 390.57 768.28 390.57 768.29 390.63 768.27 390.65 768.26 390.7 768.18 390.73 768.15 390.75 768.11 390.77 768.09 390.79 768.04 390.79 768.03 390.79 767.97 390.77 767.94 390.79 767.92 390.81 767.9 390.8 767.82 390.81 767.73 390.92 767.66 391.02 767.63 390.99 767.64 390.93 767.61 390.9 767.59 390.89 767.52 390.95 767.46 390.95 767.43 390.89 767.42 390.8 767.42 390.76 767.46 390.73 767.48 390.7 767.51 390.66 767.53 390.66 767.52 390.74 767.55 390.77 767.57 390.78 767.58 390.75 767.59 390.72 767.59 390.66 767.63 390.61 767.7 390.54 767.8 390.54 767.95 390.55 768.03 390.52 768.1 390.54 Z M 767.4 390.02 767.38 390.02 767.36 390.02 767.35 390 767.35 389.97 767.36 389.96 767.37 389.95 767.4 389.95 767.42 389.98 767.42 390.01 767.4 390.02 Z M 768.5 389.57 768.5 389.68 768.52 389.67 768.53 389.67 768.56 389.67 768.59 389.69 768.57 389.73 768.52 389.77 768.49 389.77 768.49 389.74 768.49 389.71 768.48 389.71 768.47 389.69 768.49 389.65 768.5 389.6 768.5 389.56 768.5 389.57 Z M 758.59 389.7 758.54 389.72 758.53 389.72 758.52 389.71 758.52 389.7 758.53 389.68 758.54 389.66 758.53 389.65 758.51 389.65 758.5 389.65 758.47 389.59 758.47 389.56 758.5 389.54 758.55 389.58 758.59 389.64 758.59 389.7 Z M 757.63 389.54 757.64 389.55 757.76 389.53 758 389.64 758.23 389.78 758.37 389.89 758.41 389.87 758.44 389.89 758.48 389.96 758.51 389.98 758.55 389.98 758.58 389.98 758.61 389.98 758.64 390 758.7 390.04 758.71 390.05 758.74 390.07 758.78 390.08 758.84 390.06 758.87 390.04 758.95 390.07 758.99 390.07 759.02 390.06 759.04 390.08 759.07 390.12 759.09 390.14 759.12 390.14 759.19 390.14 759.23 390.14 759.24 390.14 759.25 390.09 759.27 390.08 759.29 390.08 759.31 390.08 759.35 390.1 759.41 390.18 759.44 390.2 759.46 390.21 759.48 390.25 759.53 390.37 759.54 390.38 759.55 390.4 759.57 390.4 759.58 390.41 759.59 390.48 759.61 390.52 759.64 390.54 759.72 390.6 759.74 390.62 759.75 390.66 759.75 390.79 759.74 390.8 759.73 390.8 759.71 390.81 759.7 390.83 759.69 390.84 759.7 390.9 759.77 390.91 759.86 390.91 759.93 390.92 759.95 390.91 759.97 390.93 759.97 390.95 759.94 390.97 759.91 390.96 759.88 390.95 759.86 390.95 759.83 390.97 759.81 390.96 759.79 390.95 759.75 390.95 759.72 390.94 759.56 390.88 759.51 390.89 759.46 390.93 759.43 390.92 759.41 390.92 759.35 390.92 759.32 390.91 759.31 390.9 759.29 390.89 759.28 390.87 759.18 390.83 759.14 390.81 759.12 390.8 759.1 390.8 759.03 390.82 759.01 390.82 758.99 390.81 758.9 390.78 758.9 390.78 758.89 390.79 758.86 390.8 758.85 390.79 758.82 390.77 758.81 390.76 758.79 390.76 758.78 390.74 758.76 390.7 758.75 390.74 758.75 390.75 758.7 390.72 758.67 390.71 758.64 390.72 758.63 390.71 758.62 390.69 758.61 390.67 758.59 390.68 758.57 390.67 758.56 390.65 758.56 390.63 758.54 390.6 758.52 390.6 758.49 390.6 758.46 390.6 758.44 390.58 758.44 390.55 758.42 390.53 758.39 390.52 758.38 390.51 758.35 390.48 758.32 390.46 758.31 390.47 758.29 390.49 758.27 390.47 758.23 390.43 758.23 390.41 758.22 390.4 758.2 390.39 758.18 390.38 758.19 390.37 758.18 390.35 758.17 390.33 758.15 390.32 758.14 390.34 758.11 390.35 758.08 390.35 758.05 390.34 758.09 390.2 758.07 390.18 758.06 390.16 758.07 390.14 758.05 390.11 758.04 390.11 758 390.12 757.97 390.12 757.99 390.1 758.01 390.06 758.01 390.03 757.97 390.01 757.99 389.96 758.01 389.93 758.02 389.92 758.04 389.92 758.03 389.91 758.02 389.89 758 389.89 757.97 389.89 757.96 389.89 757.94 389.88 757.93 389.86 757.92 389.85 757.89 389.84 757.83 389.84 757.8 389.84 757.79 389.82 757.78 389.81 757.75 389.81 757.7 389.81 757.68 389.82 757.67 389.83 757.66 389.84 757.65 389.84 757.63 389.84 757.62 389.83 757.56 389.82 757.53 389.82 757.51 389.8 757.51 389.77 757.52 389.72 757.51 389.69 757.53 389.68 757.53 389.67 757.54 389.67 757.55 389.66 757.53 389.63 757.53 389.58 757.55 389.54 757.59 389.52 757.6 389.53 757.62 389.53 757.63 389.54 Z M 770.61 388.84 770.59 388.84 770.57 388.82 770.55 388.78 770.56 388.76 770.58 388.76 770.61 388.79 770.62 388.82 770.61 388.84 Z M 770.42 388.64 770.41 388.64 770.39 388.64 770.42 388.63 770.42 388.64 Z M 759.05 388.37 759.05 388.39 759.05 388.4 759.04 388.42 759.03 388.44 759.03 388.44 759.02 388.45 759.03 388.48 759.06 388.67 759.06 388.7 759.05 388.74 759.02 388.72 758.99 388.67 758.97 388.61 758.94 388.45 758.94 388.42 758.97 388.39 758.99 388.38 759.02 388.39 759.05 388.37 Z M 757.83 387.76 757.89 387.85 757.95 387.97 757.98 388 757.99 388.02 758.01 388.07 758.02 388.09 758.05 388.12 758.06 388.14 758.09 388.19 758.11 388.23 758.11 388.27 758.11 388.35 758.12 388.39 758.15 388.46 758.15 388.51 758.14 388.56 758.12 388.6 758.1 388.61 758.09 388.57 758 388.47 757.98 388.41 757.97 388.39 757.94 388.37 757.92 388.38 757.9 388.44 757.88 388.48 757.84 388.44 757.8 388.39 757.77 388.34 757.76 388.29 757.76 388.15 757.76 388.02 757.75 387.97 757.75 387.95 757.79 387.88 757.78 387.85 757.77 387.81 757.76 387.76 757.75 387.77 757.72 387.77 757.71 387.78 757.71 387.73 757.7 387.69 757.65 387.61 757.67 387.6 757.68 387.6 757.7 387.63 757.73 387.66 757.8 387.7 757.82 387.73 757.83 387.76 Z M 754.53 387.81 754.58 387.81 754.67 387.81 754.69 387.81 754.71 387.8 754.73 387.78 754.74 387.77 754.76 387.77 754.79 387.77 754.84 387.79 754.89 387.81 754.91 387.81 754.93 387.81 754.96 387.8 754.99 387.77 755.02 387.76 755.06 387.77 755.13 387.79 755.18 387.79 755.19 387.79 755.21 387.77 755.22 387.76 755.24 387.76 755.25 387.78 755.27 387.78 755.43 387.78 755.44 387.78 755.46 387.76 755.48 387.76 755.48 387.77 755.49 387.78 755.51 387.79 755.55 387.81 755.6 387.87 755.68 387.9 755.72 387.94 755.78 388.04 755.87 388.03 755.97 388.07 756.06 388.14 756.12 388.21 756.13 388.24 756.14 388.29 756.15 388.38 756.16 388.4 756.18 388.4 756.22 388.39 756.25 388.39 756.27 388.41 756.32 388.44 756.39 388.46 756.41 388.47 756.41 388.49 756.41 388.52 756.42 388.55 756.44 388.56 756.45 388.57 756.45 388.59 756.45 388.64 756.46 388.66 756.47 388.68 756.49 388.69 756.5 388.71 756.49 388.78 756.44 388.82 756.27 388.85 756.18 388.88 756.14 388.9 756.1 388.93 755.94 388.89 755.79 388.83 755.75 388.82 755.65 388.83 755.63 388.83 755.61 388.81 755.59 388.78 755.57 388.76 755.56 388.76 755.54 388.76 755.53 388.76 755.52 388.75 755.51 388.72 755.5 388.71 755.43 388.68 755.41 388.67 755.38 388.66 755.13 388.65 754.94 388.68 754.84 388.68 754.78 388.67 754.76 388.67 754.74 388.68 754.72 388.67 754.67 388.67 754.62 388.65 754.58 388.65 754.53 388.64 754.45 388.6 754.42 388.59 754.37 388.6 754.34 388.61 754.3 388.61 754.26 388.58 754.15 388.48 754.11 388.45 754.05 388.42 754.05 388.41 754.05 388.38 754.05 388.37 754.04 388.36 754.03 388.36 754.01 388.35 754.01 388.33 754 388.31 754 388.29 753.98 388.28 753.95 388.28 753.94 388.26 753.95 388.24 753.95 388.22 753.93 388.17 753.9 388.12 753.87 388.08 753.83 388.05 753.8 388.02 753.78 388.01 753.78 387.99 753.81 387.97 753.83 387.95 753.84 387.93 753.84 387.91 753.8 387.86 753.79 387.84 753.79 387.81 753.81 387.76 753.81 387.73 753.8 387.7 753.79 387.68 753.77 387.66 753.76 387.65 753.77 387.63 753.79 387.61 753.8 387.53 753.82 387.5 753.85 387.49 753.88 387.48 754.02 387.39 754.1 387.42 754.18 387.47 754.3 387.58 754.39 387.64 754.4 387.66 754.41 387.7 754.43 387.73 754.46 387.77 754.49 387.79 754.53 387.81 Z M 754.3 387.07 754.31 387.12 754.32 387.17 754.32 387.21 754.29 387.23 754.26 387.21 754.24 387.18 754.23 387.13 754.25 387.09 754.26 387.09 754.27 387.09 754.28 387.08 754.3 387.07 Z M 755.56 387.16 755.53 387.22 755.5 387.24 755.48 387.26 755.43 387.24 755.39 387.22 755.34 387.2 755.3 387.21 755.31 387.24 755.28 387.26 755.22 387.27 755.18 387.27 755.19 387.26 755.19 387.24 755.17 387.23 755.15 387.23 755.16 387.21 755.18 387.2 755.23 387.2 755.25 387.19 755.28 387.17 755.3 387.15 755.31 387.14 755.34 387.03 755.36 386.98 755.4 386.98 755.46 387.09 755.49 387.11 755.52 387.11 755.55 387.11 755.57 387.12 755.58 387.14 755.56 387.16 Z M 752.93 387.01 752.94 387.02 752.97 387.01 752.97 387.07 752.93 387.1 752.84 387.15 752.84 387.09 752.85 387.05 752.88 386.97 752.91 386.97 752.95 386.91 752.97 386.89 752.97 386.9 752.97 386.91 752.96 386.92 752.96 386.92 752.96 386.95 752.95 386.95 752.96 386.97 752.94 386.99 752.93 387.01 Z M 755.01 386.83 755.05 386.85 755.09 386.84 755.13 386.85 755.16 386.89 755.18 386.89 755.2 386.86 755.24 386.86 755.28 386.89 755.32 386.93 755.33 386.98 755.32 387.04 755.29 387.1 755.25 387.14 755.25 387.12 755.24 387.11 755.23 387.11 755.21 387.12 755.21 387.09 755.19 387.07 755.17 387.06 755.15 387.06 755.15 387.07 755.16 387.11 755.15 387.11 755.11 387.05 755.08 387.02 755.05 387.04 755.01 387.05 754.97 387.05 754.93 387.04 754.9 387.03 754.9 387.02 754.9 387 754.89 386.98 754.88 386.97 754.86 386.97 754.85 386.96 754.84 386.95 754.84 386.93 754.86 386.93 754.9 386.92 754.94 386.91 754.96 386.88 754.98 386.89 754.99 386.88 754.99 386.86 754.99 386.85 754.98 386.83 754.99 386.82 754.99 386.82 755.01 386.83 Z M 752.75 386.82 752.76 386.85 752.76 386.87 752.77 386.89 752.79 386.91 752.8 386.91 752.82 386.88 752.84 386.88 752.88 386.89 752.81 387.04 752.78 387.07 752.67 387.11 752.65 387.09 752.64 387.07 752.62 387.06 752.59 387.07 752.54 387 752.54 386.97 752.61 386.97 752.6 386.94 752.6 386.92 752.62 386.91 752.65 386.92 752.65 386.89 752.66 386.9 752.7 386.91 752.7 386.88 752.69 386.86 752.67 386.85 752.65 386.83 752.69 386.83 752.71 386.84 752.72 386.84 752.74 386.83 752.75 386.82 Z M 754.92 386.79 754.92 386.83 754.89 386.82 754.87 386.83 754.84 386.89 754.81 386.87 754.82 386.85 754.83 386.82 754.84 386.79 754.83 386.73 754.84 386.72 754.87 386.71 754.91 386.76 754.92 386.79 Z M 749.33 386.2 749.35 386.22 749.36 386.24 749.38 386.25 749.43 386.27 749.46 386.32 749.46 386.37 749.4 386.39 749.38 386.38 749.3 386.34 749.19 386.31 749.07 386.26 749.02 386.22 749.03 386.19 749.11 386.2 749.14 386.2 749.18 386.19 749.19 386.21 749.21 386.18 749.22 386.16 749.24 386.16 749.26 386.16 749.27 386.17 749.28 386.18 749.29 386.19 749.33 386.2 Z M 750.68 386.47 750.65 386.48 750.61 386.41 750.6 386.4 750.57 386.39 750.57 386.36 750.59 386.3 750.6 386.28 750.66 386.23 750.68 386.21 750.69 386.19 750.69 386.16 750.7 386.13 750.71 386.13 750.71 386.17 750.73 386.21 750.74 386.26 750.75 386.31 750.74 386.34 750.8 386.36 750.8 386.39 750.79 386.4 750.78 386.41 750.73 386.43 750.68 386.47 Z M 750.26 385.83 750.29 385.84 750.32 385.83 750.34 385.81 750.36 385.79 750.41 385.78 750.46 385.78 750.51 385.8 750.53 385.83 750.53 385.88 750.53 385.89 750.51 385.91 750.49 385.92 750.47 385.92 750.45 385.92 750.44 385.94 750.43 385.95 750.38 385.96 750.38 385.98 750.39 385.99 750.43 386 750.45 386.01 750.46 386 750.47 386 750.5 385.99 750.47 386.03 750.45 386.04 750.44 386.05 750.49 386.1 750.47 386.15 750.38 386.23 750.35 386.28 750.34 386.29 750.32 386.3 750.28 386.31 750.26 386.32 750.23 386.32 750.18 386.31 750.14 386.3 750.12 386.29 750.11 386.27 750.1 386.26 750.07 386.25 750.06 386.24 750.05 386.22 750.04 386.21 749.98 386.15 749.97 386.14 749.97 386.02 749.98 385.94 749.99 385.93 750 385.92 750.01 385.9 750.01 385.87 750.07 385.9 750.1 385.91 750.1 385.87 750.12 385.87 750.13 385.88 750.13 385.9 750.15 385.87 750.15 385.85 750.13 385.83 750.13 385.79 750.15 385.78 750.22 385.75 750.24 385.74 750.25 385.74 750.25 385.73 750.27 385.75 750.27 385.76 750.25 385.78 750.24 385.79 750.25 385.81 750.26 385.83 Z M 748.86 385.88 748.85 385.89 748.84 385.9 748.83 385.9 748.82 385.9 748.81 385.9 748.8 385.9 748.79 385.89 748.78 385.89 748.77 385.9 748.76 385.91 748.77 385.96 748.75 386.02 748.75 386.06 748.76 386.09 748.84 386.18 748.88 386.21 748.93 386.22 748.93 386.23 748.9 386.24 748.86 386.24 748.82 386.23 748.79 386.21 748.76 386.19 748.75 386.18 748.73 386.17 748.71 386.17 748.71 386.14 748.71 386.12 748.71 386.1 748.69 386.07 748.63 385.99 748.61 385.98 748.57 385.96 748.52 385.94 748.48 385.9 748.46 385.88 748.47 385.84 748.48 385.82 748.5 385.79 748.52 385.78 748.58 385.75 748.62 385.72 748.66 385.64 748.72 385.58 748.79 385.53 748.83 385.54 748.87 385.56 748.9 385.6 748.93 385.66 748.93 385.72 748.93 385.74 748.89 385.78 748.87 385.85 748.87 385.86 748.86 385.87 748.86 385.88 Z M 753.91 385.69 753.98 385.75 754 385.77 754 385.78 753.98 385.81 753.96 385.82 753.94 385.82 753.91 385.82 753.89 385.81 753.86 385.79 753.84 385.78 753.81 385.75 753.78 385.7 753.76 385.7 753.73 385.72 753.7 385.68 753.67 385.66 753.64 385.64 753.64 385.58 753.66 385.52 753.69 385.48 753.73 385.46 753.79 385.46 753.86 385.47 753.88 385.51 753.87 385.61 753.88 385.66 753.91 385.69 Z M 760.75 385.48 760.74 385.48 760.72 385.46 760.73 385.45 760.75 385.45 760.78 385.46 760.77 385.47 760.76 385.47 760.75 385.48 Z M 756.44 385.41 756.46 385.43 756.48 385.47 756.49 385.5 756.5 385.52 756.5 385.54 756.5 385.55 756.54 385.57 756.55 385.58 756.62 385.69 756.73 385.82 756.82 385.89 756.88 385.96 756.9 386 756.91 386.04 756.89 386.09 756.85 386.12 756.8 386.13 756.76 386.16 756.77 386.19 756.78 386.22 756.78 386.24 756.74 386.31 756.74 386.33 756.75 386.36 756.76 386.39 756.77 386.43 756.81 386.47 756.82 386.49 756.83 386.51 756.86 386.5 756.91 386.48 756.93 386.49 756.99 386.53 757.01 386.56 757.02 386.57 757.01 386.58 757 386.6 757.01 386.62 757.03 386.63 757.05 386.63 757.06 386.62 757.06 386.62 757.11 386.64 757.17 386.68 757.22 386.73 757.26 386.79 757.23 386.77 757.21 386.79 757.2 386.82 757.22 386.83 757.25 386.84 757.27 386.87 757.28 386.9 757.27 386.94 757.29 386.95 757.3 386.96 757.3 386.98 757.3 387.01 757.31 387.03 757.32 387.03 757.33 387.03 757.35 387.04 757.36 387.05 757.38 387.06 757.39 387.07 757.4 387.1 757.39 387.11 757.33 387.15 757.37 387.17 757.39 387.18 757.4 387.2 757.42 387.19 757.45 387.19 757.46 387.21 757.46 387.24 757.47 387.24 757.51 387.26 757.51 387.27 757.45 387.29 757.43 387.29 757.42 387.3 757.43 387.33 757.44 387.35 757.45 387.36 757.46 387.38 757.47 387.46 757.5 387.49 757.47 387.5 757.46 387.49 757.45 387.47 757.43 387.46 757.41 387.47 757.41 387.49 757.43 387.52 757.52 387.61 757.54 387.65 757.61 387.82 757.63 387.84 757.65 387.86 757.69 387.9 757.73 387.98 757.75 388.15 757.75 388.2 757.74 388.23 757.72 388.24 757.68 388.22 757.57 388.14 757.55 388.14 757.54 388.1 757.52 388.07 757.44 387.95 757.43 387.93 757.42 387.91 757.42 387.87 757.41 387.84 757.39 387.8 757.28 387.69 757.13 387.62 757.08 387.56 756.97 387.54 756.98 387.5 756.92 387.43 756.89 387.41 756.88 387.41 756.84 387.41 756.82 387.4 756.82 387.39 756.82 387.35 756.82 387.33 756.76 387.29 756.64 387.23 756.59 387.18 756.43 386.89 756.39 386.78 756.36 386.72 756.37 386.71 756.38 386.69 756.37 386.68 756.36 386.66 756.36 386.63 756.33 386.52 756.29 386.47 756.2 386.29 756.19 386.26 756.19 386.14 756.19 386.12 756.12 385.96 756.16 385.93 756.22 385.88 756.26 385.87 756.26 385.85 756.21 385.73 756.12 385.62 756.11 385.59 756.08 385.58 756.01 385.51 755.98 385.47 755.95 385.37 756 385.34 756.08 385.35 756.16 385.38 756.21 385.42 756.22 385.43 756.25 385.42 756.27 385.41 756.29 385.39 756.28 385.37 756.21 385.33 756.22 385.31 756.23 385.3 756.25 385.29 756.27 385.29 756.27 385.3 756.32 385.31 756.35 385.32 756.39 385.38 756.42 385.4 756.44 385.41 Z M 748.35 385.35 748.35 385.37 748.29 385.33 748.26 385.25 748.22 385.17 748.13 385.15 748.14 385.15 748.15 385.13 748.16 385.12 748.12 385.11 748.08 385.08 748.07 385.05 748.1 385.03 748.13 385.05 748.18 385.06 748.24 385.07 748.27 385.11 748.27 385.14 748.29 385.23 748.31 385.3 748.32 385.33 748.35 385.35 Z M 748.23 384.97 748.29 384.99 748.34 384.99 748.39 384.99 748.43 385.03 748.45 385.08 748.47 385.13 748.48 385.2 748.48 385.26 748.46 385.26 748.46 385.23 748.44 385.22 748.42 385.22 748.4 385.21 748.39 385.2 748.37 385.14 748.35 385.1 748.33 385.06 748.29 385.04 748.25 385.01 748.27 385 748.24 385 748.23 384.99 748.23 384.98 748.23 384.97 Z M 747.6 384.74 747.6 384.78 747.63 384.77 747.66 384.87 747.61 384.87 747.54 384.81 747.55 384.74 747.6 384.74 Z M 749.43 385.04 749.45 385.07 749.44 385.1 749.43 385.13 749.43 385.15 749.45 385.14 749.46 385.14 749.48 385.15 749.5 385.15 749.51 385.15 749.54 385.13 749.56 385.12 749.6 385.11 749.64 385.11 749.67 385.13 749.73 385.17 749.74 385.18 749.75 385.2 749.76 385.21 749.77 385.26 749.8 385.3 749.85 385.33 749.88 385.37 749.87 385.42 749.88 385.44 749.89 385.46 749.92 385.49 749.94 385.5 749.95 385.54 749.97 385.62 749.98 385.66 749.99 385.66 750.01 385.67 750.02 385.67 750.03 385.69 750.03 385.71 750.02 385.73 749.98 385.8 749.97 385.81 749.97 385.84 749.96 385.86 749.97 385.88 749.97 385.9 749.98 385.91 749.84 385.86 749.78 385.85 749.78 385.87 749.81 385.89 749.84 385.91 749.84 385.95 749.83 385.99 749.81 385.99 749.81 385.95 749.79 385.93 749.78 385.92 749.77 385.91 749.76 385.87 749.74 385.84 749.69 385.79 749.63 385.76 749.51 385.75 749.46 385.72 749.36 385.66 749.31 385.59 749.3 385.59 749.29 385.55 749.28 385.5 749.27 385.47 749.27 385.34 749.28 385.36 749.29 385.39 749.3 385.45 749.31 385.48 749.36 385.49 749.37 385.51 749.38 385.53 749.4 385.53 749.41 385.51 749.42 385.48 749.41 385.46 749.35 385.41 749.33 385.34 749.31 385.28 749.27 385.23 749.24 385.2 749.21 385.19 749.19 385.2 749.17 385.21 749.13 385.21 749.12 385.21 749.1 385.19 749.08 385.19 749.07 385.21 749.05 385.2 749.03 385.2 748.99 385.21 748.99 385.22 748.97 385.23 748.96 385.23 748.89 385.23 748.81 385.22 748.78 385.23 748.76 385.26 748.75 385.3 748.72 385.34 748.68 385.37 748.64 385.36 748.56 385.31 748.54 385.32 748.52 385.32 748.51 385.11 748.52 385.1 748.55 385.06 748.56 385.05 748.59 385.05 748.62 385.04 748.64 385.03 748.66 385.01 748.67 385.04 748.69 385.05 748.7 385.05 748.72 385.03 748.73 385.01 748.73 384.96 748.74 384.94 748.73 384.91 748.74 384.88 748.79 384.82 748.81 384.79 748.84 384.72 748.87 384.69 748.96 384.59 748.99 384.57 749.03 384.56 749.1 384.54 749.13 384.53 749.13 384.54 749.13 384.54 749.14 384.54 749.15 384.54 749.3 384.63 749.36 384.63 749.34 384.67 749.35 384.7 749.36 384.73 749.37 384.76 749.37 384.85 749.37 384.89 749.39 384.92 749.37 384.96 749.38 384.99 749.43 385.04 Z M 747.14 385.04 747.1 385.06 747.08 385.03 747.03 384.87 746.99 384.82 746.99 384.77 747 384.66 746.98 384.55 746.98 384.5 747.02 384.48 747.05 384.51 747.08 384.54 747.09 384.57 747.1 384.62 747.13 384.67 747.14 384.71 747.15 384.75 747.15 384.78 747.17 384.84 747.17 384.87 747.15 384.89 747.17 384.94 747.17 385 747.14 385.04 Z M 756.1 384.45 756.09 384.46 756.07 384.45 756.03 384.4 756.01 384.37 756.02 384.34 756.05 384.34 756.06 384.35 756.08 384.37 756.1 384.45 Z M 748.43 384.85 748.39 384.92 748.34 384.95 748.29 384.89 748.28 384.9 748.27 384.9 748.25 384.89 748.14 384.9 748.02 384.81 747.93 384.68 747.9 384.57 747.9 384.54 747.91 384.52 747.93 384.47 747.98 384.39 747.99 384.37 748.02 384.34 748.09 384.31 748.17 384.29 748.22 384.28 748.32 384.34 748.39 384.42 748.44 384.51 748.46 384.62 748.47 384.72 748.46 384.76 748.43 384.85 Z M 747.03 384.21 746.99 384.23 746.95 384.21 746.95 384.19 746.97 384.17 746.99 384.15 747.01 384.15 747.02 384.16 747.04 384.18 747.03 384.21 Z M 747.15 383.66 747.16 383.68 747.17 383.7 747.2 383.72 747.21 383.73 747.2 383.74 747.21 383.75 747.24 383.75 747.25 383.76 747.25 383.77 747.25 383.79 747.26 383.8 747.28 383.81 747.3 383.82 747.32 383.87 747.34 383.89 747.38 383.9 747.37 383.92 747.4 383.95 747.45 383.93 747.5 383.95 747.55 383.98 747.59 384 747.61 384.03 747.57 384.1 747.49 384.21 747.45 384.24 747.4 384.3 747.36 384.36 747.38 384.41 747.4 384.44 747.4 384.47 747.38 384.48 747.35 384.5 747.35 384.49 747.33 384.47 747.3 384.47 747.28 384.48 747.26 384.48 747.26 384.44 747.27 384.39 747.26 384.36 747.16 384.33 747.15 384.29 747.17 384.2 747.16 384.18 747.14 384.17 747.12 384.16 747.11 384.15 747.08 384.09 747.07 384.07 747.03 384.06 747.03 384.06 747.01 384.05 747.01 384.05 747.01 384.04 746.99 383.99 746.97 383.98 746.94 384 746.9 383.89 746.92 383.8 746.98 383.71 747.07 383.66 747.09 383.67 747.12 383.68 747.13 383.68 747.15 383.66 Z M 751.17 383.68 751.2 383.72 751.23 383.74 751.28 383.75 751.31 383.75 751.34 383.76 751.38 383.8 751.4 383.83 751.39 383.86 751.36 383.86 751.33 383.84 751.3 383.81 751.29 383.78 751.26 383.81 751.22 383.8 751.14 383.75 751.14 383.77 751.17 383.83 751.15 383.83 751.09 383.81 751.04 383.81 751.04 383.8 751.03 383.77 751 383.74 750.96 383.72 750.95 383.71 750.94 383.7 750.94 383.68 750.95 383.68 750.97 383.68 751 383.69 751.01 383.69 751.02 383.69 751.04 383.7 751.05 383.69 751.04 383.67 751.04 383.66 751.05 383.65 751.07 383.65 751.09 383.66 751.12 383.67 751.17 383.68 Z M 751.55 383.7 751.58 383.7 751.6 383.67 751.62 383.65 751.65 383.66 751.66 383.65 751.67 383.65 751.67 383.64 751.68 383.64 751.7 383.69 751.73 383.71 751.82 383.75 751.83 383.74 751.84 383.72 751.86 383.71 751.87 383.7 751.9 383.71 751.91 383.74 751.92 383.76 751.93 383.79 751.98 383.83 752 383.85 752.02 383.86 752.04 383.87 752.07 383.94 752.11 383.96 752.15 384.01 752.17 384.03 752.19 384.04 752.27 384.07 752.31 384.1 752.38 384.15 752.43 384.18 752.4 384.22 752.42 384.26 752.46 384.28 752.49 384.27 752.58 384.31 752.6 384.32 752.62 384.35 752.63 384.38 752.64 384.4 752.67 384.39 752.73 384.44 752.78 384.41 752.82 384.41 752.86 384.41 752.91 384.42 752.88 384.43 752.89 384.45 752.91 384.47 752.93 384.48 752.97 384.49 752.99 384.5 753.01 384.52 753.02 384.54 753.06 384.51 753.08 384.53 753.1 384.57 753.12 384.59 753.19 384.59 753.22 384.59 753.23 384.56 753.27 384.58 753.29 384.59 753.31 384.6 753.34 384.58 753.37 384.6 753.38 384.65 753.41 384.69 753.44 384.71 753.51 384.75 753.53 384.77 753.54 384.77 753.57 384.79 753.57 384.79 753.58 384.81 753.58 384.82 753.68 384.9 753.89 385.02 754.32 385.34 754.33 385.36 754.28 385.41 754.23 385.48 754.22 385.49 754.2 385.48 754.17 385.47 754.15 385.47 754.13 385.49 754.13 385.5 754.16 385.53 754.18 385.56 754.2 385.56 754.22 385.55 754.24 385.53 754.26 385.55 754.33 385.64 754.35 385.68 754.35 385.71 754.36 385.75 754.42 385.8 754.45 385.84 754.42 385.87 754.4 385.86 754.33 385.82 754.32 385.82 754.29 385.82 754.28 385.82 754.27 385.81 754.26 385.8 754.26 385.78 754.22 385.77 754.19 385.73 754.15 385.71 754.13 385.7 754.1 385.66 754.03 385.6 754.01 385.58 754 385.56 754.01 385.54 754 385.52 753.97 385.52 753.94 385.5 753.84 385.41 753.66 385.37 753.58 385.33 753.52 385.3 753.47 385.26 753.44 385.24 753.4 385.23 753.37 385.24 753.29 385.2 753.25 385.19 753.22 385.2 753.19 385.15 753.17 385.12 753.15 385.11 753.12 385.1 753.09 385.09 753.07 385.08 753.06 385.05 753.02 385.06 752.97 385.05 752.92 385.03 752.72 384.88 752.7 384.88 752.67 384.88 752.65 384.88 752.64 384.86 752.64 384.84 752.64 384.83 752.64 384.82 752.62 384.81 752.61 384.82 752.61 384.83 752.59 384.83 752.53 384.8 752.52 384.8 752.49 384.8 752.47 384.8 752.47 384.8 752.46 384.77 752.46 384.76 752.43 384.74 752.41 384.74 752.4 384.73 752.4 384.69 752.38 384.71 752.33 384.73 752.33 384.68 752.31 384.65 752.28 384.63 752.24 384.62 752.11 384.56 752.1 384.47 752.08 384.43 752.04 384.44 751.97 384.43 751.94 384.41 751.96 384.38 751.93 384.35 751.91 384.33 751.89 384.33 751.87 384.36 751.85 384.33 751.82 384.25 751.79 384.22 751.76 384.2 751.72 384.18 751.68 384.19 751.66 384.15 751.57 384.1 751.53 384.07 751.52 384.04 751.52 384.02 751.53 384 751.53 383.97 751.53 383.88 751.36 383.74 751.24 383.68 751.22 383.64 751.22 383.6 751.24 383.58 751.27 383.58 751.32 383.61 751.54 383.68 751.55 383.7 Z M 750.91 383.47 750.92 383.49 750.95 383.48 750.98 383.49 751.03 383.54 751.06 383.52 751.1 383.52 751.16 383.54 751.2 383.57 751.18 383.58 751.16 383.59 751.16 383.62 751.17 383.64 751.07 383.62 751.04 383.61 751.02 383.59 751.01 383.57 750.98 383.55 750.92 383.53 750.87 383.5 750.84 383.49 750.82 383.48 750.82 383.45 750.83 383.43 750.85 383.43 750.87 383.45 750.89 383.45 750.91 383.47 Z M 749.15 383.26 749.2 383.27 749.27 383.27 749.32 383.27 749.36 383.31 749.37 383.29 749.39 383.31 749.38 383.33 749.37 383.35 749.38 383.38 749.39 383.4 749.33 383.36 749.33 383.39 749.3 383.4 749.23 383.4 749.23 383.39 749.25 383.38 749.27 383.36 749.28 383.36 749.19 383.33 749.17 383.32 749.15 383.31 749.09 383.32 749.07 383.31 749.11 383.28 749.15 383.26 Z M 750.83 383.26 750.83 383.32 750.84 383.32 750.85 383.31 750.86 383.31 750.85 383.33 750.85 383.35 750.84 383.38 750.85 383.4 750.81 383.38 750.8 383.37 750.79 383.45 750.75 383.42 750.74 383.39 750.71 383.37 750.66 383.37 750.66 383.36 750.69 383.32 750.71 383.32 750.73 383.33 750.79 383.27 750.83 383.26 Z M 749.77 383.42 749.78 383.45 749.72 383.45 749.69 383.45 749.66 383.43 749.64 383.44 749.63 383.44 749.61 383.45 749.59 383.44 749.58 383.42 749.56 383.42 749.52 383.39 749.54 383.34 749.62 383.25 749.72 383.29 749.74 383.3 749.74 383.34 749.77 383.42 Z M 744.85 383.11 744.88 383.13 744.91 383.16 744.93 383.18 744.95 383.2 744.91 383.25 744.86 383.26 744.75 383.25 744.71 383.23 744.72 383.19 744.79 383.11 744.8 383.12 744.81 383.12 744.85 383.11 Z M 745.39 382.44 745.46 382.46 745.48 382.47 745.51 382.5 745.51 382.53 745.49 382.57 745.49 382.6 745.47 382.62 745.43 382.63 745.39 382.63 745.36 382.63 745.33 382.66 745.29 382.66 745.25 382.65 745.21 382.67 745.19 382.66 745.17 382.64 745.15 382.63 745.09 382.61 745.07 382.6 745.08 382.57 745.14 382.44 745.15 382.45 745.16 382.42 745.17 382.38 745.21 382.37 745.2 382.35 745.21 382.34 745.21 382.32 745.24 382.33 745.32 382.4 745.39 382.44 Z M 746.03 382.13 746.02 382.16 746.05 382.2 746.06 382.22 746.08 382.23 746.12 382.24 746.14 382.24 746.12 382.26 746.09 382.26 746.07 382.26 746.05 382.24 746.04 382.28 746.03 382.31 746.01 382.34 745.99 382.37 745.98 382.35 745.98 382.34 745.97 382.33 745.97 382.32 745.96 382.34 745.94 382.35 745.92 382.36 745.89 382.35 745.93 382.33 745.96 382.3 745.97 382.28 745.96 382.27 745.95 382.25 745.94 382.23 745.95 382.2 745.96 382.19 745.98 382.19 745.99 382.18 745.98 382.17 745.96 382.15 745.96 382.16 745.93 382.11 745.9 382.07 745.91 382.02 745.97 381.99 746.02 381.99 746.02 382 745.99 382.01 745.96 382.03 745.95 382.05 745.94 382.09 745.96 382.1 746 382.11 746.03 382.13 Z M 747.09 381.62 747.11 381.62 747.13 381.61 747.14 381.61 747.23 381.63 747.28 381.68 747.4 381.81 747.43 381.83 747.53 381.9 747.62 381.93 747.76 382.02 747.86 382.06 747.94 382.08 747.97 382.1 748 382.11 748.03 382.12 748.04 382.15 748.04 382.16 748.06 382.17 748.09 382.16 748.11 382.17 748.13 382.19 748.18 382.25 748.27 382.32 748.28 382.35 748.29 382.39 748.29 382.49 748.32 382.59 748.35 382.67 748.38 382.7 748.4 382.72 748.42 382.75 748.43 382.79 748.47 382.77 748.48 382.76 748.49 382.8 748.52 382.83 748.56 382.85 748.61 382.85 748.64 382.87 748.66 382.9 748.67 382.94 748.68 382.97 748.69 382.99 748.72 383 748.78 383.02 748.81 383.04 748.83 383.06 748.86 383.09 748.87 383.11 748.89 383.11 748.89 383.08 748.91 383.08 748.93 383.09 748.96 383.1 749 383.1 749.03 383.09 749.11 383.06 749.15 383.06 749.18 383.08 749.19 383.14 749.19 383.19 749.18 383.22 749.15 383.23 749.09 383.23 749.07 383.25 749.01 383.36 749.01 383.33 749 383.32 748.98 383.31 748.96 383.32 748.94 383.3 748.88 383.29 748.78 383.28 748.74 383.27 748.71 383.24 748.7 383.2 748.72 383.14 748.7 383.15 748.69 383.16 748.66 383.19 748.64 383.18 748.63 383.19 748.63 383.22 748.59 383.2 748.51 383.17 748.46 383.14 748.34 383.13 748.32 383.14 748.31 383.16 748.28 383.16 748.25 383.13 748.22 383.07 748.2 383.03 748.17 383.01 748.14 382.99 748.12 383 748.08 383.02 748.05 383.02 748.07 382.99 748.05 382.96 748.01 382.93 747.97 382.91 747.92 382.9 747.89 382.89 747.86 382.86 747.65 382.62 747.64 382.6 747.63 382.57 747.62 382.55 747.6 382.54 747.57 382.53 747.56 382.51 747.54 382.46 747.45 382.34 747.42 382.32 747.4 382.3 747.32 382.17 747.29 382.14 747.18 382.09 747.15 382.08 747.12 382.07 746.87 381.85 746.87 381.84 746.82 381.81 746.81 381.77 746.79 381.65 746.79 381.61 746.81 381.58 746.88 381.52 746.92 381.51 746.97 381.52 747.01 381.53 747.04 381.56 747.06 381.57 747.07 381.58 747.08 381.6 747.09 381.62 Z" fill-rule="evenodd" id="Solomon Islands" transform="translate(-744.7100219726562,-381.510009765625) "/></svg>