<svg xmlns="http://www.w3.org/2000/svg" viewBox="0 0 23.15997314453125 30.32000732421875"><path d="M 492.07 370.69 492.07 370.64 492.08 370.5 492.07 370.46 492.04 370.41 491.96 370.3 491.85 370.16 491.73 370.02 491.62 369.87 491.51 369.73 491.41 369.6 491.29 369.45 491.17 369.3 491.06 369.16 491.01 369.09 490.95 369.01 490.9 368.94 490.84 368.87 490.84 368.7 490.83 368.55 490.83 368.39 490.83 368.15 490.83 367.91 490.82 367.67 490.82 367.44 490.82 367.29 490.82 367.14 490.81 366.96 490.81 366.68 490.81 366.41 490.81 366.13 490.81 365.86 490.81 365.58 490.81 365.31 490.81 365.03 490.81 364.76 490.81 364.48 490.81 364.24 490.81 364.21 490.81 363.93 490.81 363.66 490.81 363.38 490.81 363.11 490.81 362.83 490.81 362.56 490.81 362.32 490.81 362.09 490.81 361.85 490.81 361.62 490.81 361.45 490.81 361.16 490.81 360.87 490.81 360.76 490.84 360.7 490.91 360.62 491.1 360.44 491.28 360.26 491.46 360.08 491.64 359.9 491.76 359.74 491.87 359.58 491.99 359.41 492.1 359.25 492.29 358.99 492.47 358.72 492.66 358.46 492.85 358.19 492.87 358.15 492.91 358.12 492.92 358.1 492.92 358.03 492.93 357.99 492.97 357.95 493.13 357.86 493.25 357.76 493.33 357.72 493.4 357.7 493.59 357.7 493.76 357.7 494.02 357.65 494.36 357.59 494.69 357.54 494.85 357.51 494.94 357.47 495.03 357.42 495.03 357.42 495.09 357.34 495.13 357.27 495.17 357.12 495.2 357.05 495.21 357.02 495.23 357 495.4 356.86 495.58 356.71 495.83 356.59 496.09 356.47 496.33 356.36 496.49 356.28 496.74 356.23 496.9 356.19 497.12 356.14 497.19 356.12 497.38 356.06 497.46 356.04 497.6 356.04 497.71 356.05 497.83 356.06 497.94 356.06 498.06 356.07 498.17 356.08 498.29 356.08 498.4 356.09 498.52 356.1 498.63 356.1 498.75 356.11 498.86 356.12 498.86 356.12 498.98 356.12 499.09 356.13 499.21 356.14 499.32 356.14 499.44 356.15 499.56 356.16 499.62 356.13 499.8 355.94 499.8 355.94 499.92 355.8 500.16 355.54 500.4 355.29 500.64 355.03 500.87 354.77 500.9 354.74 501.11 354.51 501.35 354.25 501.59 353.99 501.82 353.73 501.96 353.59 502.09 353.45 502.23 353.32 502.37 353.18 502.5 353.04 502.64 352.9 502.77 352.76 502.91 352.62 503 352.53 503.05 352.49 503.09 352.44 503.19 352.35 503.29 352.25 503.34 352.21 503.45 352.1 503.55 352 503.66 351.9 503.77 351.79 503.88 351.69 503.98 351.58 504.09 351.48 504.2 351.38 504.31 351.27 504.41 351.17 504.52 351.06 504.63 350.96 504.74 350.86 504.85 350.75 504.95 350.65 505.06 350.54 505.17 350.44 505.28 350.34 505.36 350.25 505.38 350.23 505.49 350.13 505.6 350.02 505.71 349.92 505.81 349.82 505.92 349.71 506.03 349.61 506.14 349.5 506.25 349.4 506.35 349.3 506.49 349.09 506.62 348.89 506.75 348.69 506.89 348.49 507.02 348.28 507.15 348.08 507.29 347.88 507.42 347.68 507.55 347.47 507.68 347.27 507.82 347.07 507.95 346.87 508.08 346.66 508.22 346.46 508.35 346.26 508.48 346.06 508.48 345.81 508.48 345.8 508.48 345.55 508.48 345.3 508.48 345.05 508.48 344.8 508.48 344.55 508.48 344.3 508.48 344.05 508.48 343.8 508.48 343.54 508.48 343.29 508.48 343.04 508.48 342.79 508.48 342.54 508.48 342.28 508.48 342.03 508.48 342.03 508.57 342.03 508.86 341.97 509.15 341.92 509.23 341.88 509.27 341.83 509.29 341.82 509.32 341.83 509.34 341.84 509.36 341.84 509.5 341.83 509.55 341.82 509.58 341.8 509.7 341.73 509.74 341.73 509.77 341.71 509.82 341.61 509.85 341.57 509.9 341.56 509.95 341.55 510.05 341.56 510.06 341.55 510.09 341.53 510.11 341.53 510.14 341.53 510.2 341.54 510.4 341.56 510.5 341.55 510.57 341.5 510.59 341.5 510.63 341.47 510.65 341.46 510.66 341.46 510.69 341.44 510.71 341.43 510.72 341.44 510.74 341.44 510.75 341.45 510.75 341.45 510.95 341.44 510.99 341.45 511.12 341.38 511.17 341.34 511.19 341.33 511.27 341.33 511.29 341.32 511.31 341.31 511.33 341.29 511.43 341.27 511.47 341.24 511.66 341.09 511.76 341.07 511.8 341.04 511.88 340.96 511.94 340.9 511.97 340.86 511.98 340.81 511.98 340.76 511.99 340.71 512.01 340.66 512.03 340.62 512.08 340.55 512.11 340.52 512.14 340.51 512.17 340.51 512.22 340.48 512.23 340.46 512.24 340.45 512.25 340.45 512.27 340.45 512.29 340.46 512.3 340.46 512.35 340.45 512.44 340.41 512.52 340.39 512.54 340.38 512.6 340.37 512.76 340.47 512.98 340.5 513.12 340.6 513.16 340.62 513.33 340.62 513.38 340.63 513.45 340.67 513.49 340.68 513.54 340.68 513.6 340.69 513.64 340.71 513.7 340.72 513.66 340.79 513.64 340.89 513.6 340.95 513.62 341.06 513.6 341.13 513.56 341.16 513.52 341.23 513.45 341.29 513.38 341.39 513.33 341.44 513.32 341.46 513.32 341.48 513.33 341.52 513.33 341.53 513.33 341.59 513.31 341.63 513.24 341.79 513.23 341.83 513.23 341.97 513.21 342.07 513.24 342.17 513.34 342.23 513.44 342.24 513.47 342.28 513.41 342.33 513.37 342.44 513.34 342.47 513.32 342.5 513.31 342.55 513.31 342.61 513.33 342.92 513.36 343.32 513.41 343.49 513.39 343.52 513.34 343.52 513.29 343.54 513.28 343.58 513.29 343.68 513.28 343.72 513.25 343.75 513.22 343.77 513.17 343.77 513.13 343.78 513.09 343.82 513.07 343.86 513.09 343.89 513.13 343.9 513.47 343.83 513.5 343.84 513.52 343.84 513.54 343.84 513.55 343.82 513.54 343.8 513.52 343.79 513.5 343.78 513.49 343.76 513.48 343.71 513.48 343.66 513.46 343.62 513.44 343.57 513.48 343.6 513.51 343.63 513.54 343.66 513.58 343.68 513.6 343.69 513.62 343.7 513.67 343.74 513.7 343.76 513.74 343.77 513.77 343.77 513.79 343.77 513.82 343.76 513.84 343.75 513.89 343.75 513.93 343.76 513.94 343.81 513.97 343.83 513.96 343.87 513.93 343.94 513.9 343.95 513.89 343.96 513.88 343.98 513.88 344.01 513.86 344.01 513.82 343.99 513.8 343.99 513.76 343.98 513.72 344 513.65 343.98 513.64 343.94 513.63 343.92 513.62 343.89 513.58 343.88 513.25 343.92 513.09 343.98 512.89 344.1 512.85 344.17 512.83 344.31 512.86 344.43 512.79 344.6 512.8 344.71 512.83 344.78 512.83 344.8 512.83 344.83 512.81 344.86 512.78 345.02 512.79 345.04 512.76 345.09 512.75 345.13 512.73 345.24 512.7 345.32 512.68 345.35 512.69 345.41 512.69 345.43 512.68 345.47 512.66 345.61 512.62 345.67 512.62 345.74 512.64 345.85 512.69 346 512.7 346.04 512.69 346.09 512.67 346.13 512.54 346.35 512.49 346.39 512.4 346.42 512.36 346.45 512.33 346.48 512.27 346.59 512.25 346.62 512.27 346.77 512.27 346.82 512.24 346.9 512.17 346.98 511.93 347.17 511.86 347.24 511.81 347.31 511.77 347.38 511.74 347.47 511.7 347.66 511.66 347.73 511.56 347.86 511.54 347.91 511.55 348.04 511.54 348.08 511.51 348.17 511.48 348.2 511.44 348.22 511.4 348.24 511.38 348.27 511.36 348.32 511.34 348.36 511.2 348.55 511.18 348.57 511.15 348.65 511.08 348.84 511.04 348.93 510.96 349 510.68 349.17 510.48 349.37 510.44 349.43 510.42 349.52 510.4 349.67 510.41 349.7 510.44 349.72 510.45 349.77 510.45 349.83 510.43 349.87 510.37 349.96 510.3 350.03 510.28 350.06 510.28 350.16 510.27 350.2 510.04 350.6 509.92 350.81 509.77 350.98 509.43 351.45 509.27 351.77 509.16 351.93 509.06 352.23 508.78 352.8 508.78 352.85 508.78 352.9 508.8 352.99 508.81 353.04 508.77 353.24 508.7 353.4 508.51 353.73 508.28 354.11 507.94 354.64 507.83 354.87 507.77 354.95 507.62 355.11 507.39 355.47 507.13 355.76 506.85 356.14 506.52 356.79 506.29 357.13 506.05 357.39 505.46 358.01 505.27 358.28 504.93 358.63 504.64 358.93 504.27 359.31 504.21 359.37 503.82 359.83 503.52 360.1 503.35 360.29 503.05 360.55 502.89 360.71 502.75 360.81 502.74 360.83 502.73 360.85 502.72 360.87 502.71 360.88 502.67 360.89 502.65 360.93 502.63 360.97 502.61 361.02 502.58 361.04 502.49 361.08 502.28 361.3 502.26 361.33 502.22 361.4 502.2 361.43 502.11 361.48 502.07 361.55 502.03 361.58 501.58 361.87 501.33 362.01 501.09 362.15 500.34 362.58 500.26 362.62 500.22 362.63 500.19 362.64 499.75 362.84 499.38 363.1 499.36 363.12 499.33 363.13 499.03 363.35 498.75 363.52 498.27 363.89 498.02 364.14 497.97 364.17 497.88 364.22 497.86 364.25 497.85 364.26 497.84 364.29 497.84 364.33 497.83 364.34 497.79 364.35 497.78 364.36 497.76 364.38 497.61 364.54 497.56 364.57 497.51 364.58 497.49 364.6 497.38 364.73 497.13 364.86 497.05 364.92 496.94 365.07 496.91 365.09 496.88 365.1 496.78 365.18 496.35 365.59 495.95 366.04 495.73 366.26 495.52 366.46 495.08 366.95 494.81 367.24 494.68 367.34 494.54 367.46 494.39 367.61 494.33 367.68 494.33 367.71 494.33 367.73 494.32 367.74 494.27 367.75 494.25 367.77 494.16 367.88 494.15 367.92 494.18 367.94 494.16 367.98 494.15 367.99 494.15 367.97 494.15 367.96 494.14 367.95 494.13 367.94 494.01 368.03 494 368.05 493.98 368.09 493.95 368.13 493.88 368.2 493.65 368.46 493.65 368.48 493.65 368.5 493.64 368.51 493.62 368.51 493.62 368.52 493.53 368.66 493.47 368.72 493.44 368.74 493.4 368.76 493.36 368.77 493.29 368.77 493.26 368.78 493.24 368.8 493.28 368.81 493.28 368.85 493.26 368.9 493.25 368.92 493.21 368.94 493.18 368.98 493.16 369.02 493.15 369.07 493.14 369.08 493.06 369.14 493.04 369.15 493.03 369.14 493.02 369.05 493.02 368.96 493.01 368.92 493 368.92 493 368.95 492.99 368.98 492.98 369 492.98 369.03 492.98 369.05 492.99 369.09 493 369.11 493 369.14 493.02 369.15 493.03 369.16 493.04 369.18 493.04 369.21 493.01 369.25 493.01 369.28 493 369.3 492.94 369.35 492.93 369.37 492.93 369.4 492.92 369.42 492.9 369.44 492.82 369.54 492.81 369.56 492.82 369.58 492.84 369.58 492.86 369.57 492.87 369.56 492.85 369.61 492.8 369.62 492.75 369.59 492.73 369.52 492.72 369.52 492.72 369.57 492.75 369.65 492.75 369.69 492.74 369.73 492.51 370.1 492.45 370.17 492.41 370.23 492.33 370.4 492.29 370.43 492.24 370.46 492.16 370.59 492.11 370.63 492.13 370.63 492.07 370.69 Z" id="Somalia" transform="translate(-490.80999755859375,-340.3699951171875) "/></svg>