<svg xmlns="http://www.w3.org/2000/svg" viewBox="0 0 26.149993896484375 19.410003662109375"><path d="M 475.52 346.05 475.55 346.6 475.58 347.25 475.61 347.89 475.6 347.95 475.6 348 475.57 348.05 475.52 348.1 475.3 348.3 475.26 348.32 475.22 348.34 475.09 348.34 475.01 348.34 474.98 348.35 474.94 348.37 474.92 348.39 474.83 348.46 474.82 348.47 474.79 348.47 474.69 348.46 474.64 348.4 474.59 348.32 474.53 348.26 474.48 348.26 474.45 348.27 474.42 348.29 474.37 348.29 474.34 348.28 474.31 348.25 474.27 348.23 474.22 348.23 474.24 348.25 474.24 348.26 474.22 348.27 474.07 348.29 474.04 348.28 474.02 348.28 474 348.29 473.97 348.31 473.95 348.32 473.71 348.27 473.67 348.27 473.61 348.33 473.61 348.34 473.62 348.35 473.6 348.37 473.57 348.37 473.54 348.39 473.53 348.4 473.52 348.42 473.52 348.46 473.52 348.47 473.51 348.48 473.51 348.5 473.51 348.5 473.53 348.52 473.54 348.52 473.53 348.55 473.51 348.59 473.51 348.61 473.51 348.64 473.53 348.66 473.55 348.67 473.56 348.7 473.58 348.71 473.61 348.72 473.61 348.75 473.59 348.76 473.57 348.77 473.55 348.79 473.54 348.81 473.53 348.83 473.52 348.85 473.52 348.88 473.53 348.9 473.56 348.92 473.57 348.93 473.56 348.97 473.54 349.01 473.52 349.03 473.48 349.05 473.41 349.06 473.4 349.07 473.4 349.09 473.39 349.11 473.37 349.13 473.25 349.26 473.22 349.3 473.21 349.32 473.2 349.36 473.19 349.38 473.18 349.39 473.17 349.41 473.17 349.42 473.14 349.45 473.13 349.47 473.18 349.62 473.2 349.65 473.24 349.68 473.25 349.7 473.26 349.72 473.26 349.73 473.28 349.74 473.34 349.74 473.39 349.76 473.42 349.77 473.43 349.75 473.44 349.75 473.51 349.73 473.53 349.73 473.6 349.76 473.67 349.77 473.69 349.77 473.72 349.8 473.76 349.84 473.8 349.88 473.92 349.91 473.95 349.91 474 349.88 474.02 349.87 474.12 349.85 474.17 349.84 474.21 349.86 474.23 349.87 474.27 349.89 474.3 349.9 474.32 349.92 474.35 349.96 474.37 349.97 474.42 349.99 474.56 349.97 474.59 349.98 474.65 350.02 474.72 350.04 474.74 350.05 474.77 350.08 474.84 350.18 474.95 350.26 474.97 350.27 475.02 350.27 475.04 350.28 475.11 350.32 475.38 350.6 475.42 350.66 475.43 350.73 475.44 350.94 475.44 350.95 475.46 350.96 475.56 351.04 475.62 351.11 475.66 351.15 475.7 351.14 475.74 351.12 475.77 351.14 475.79 351.18 475.8 351.22 475.8 351.29 475.8 351.31 475.81 351.36 475.82 351.39 475.84 351.39 475.85 351.41 475.88 351.43 475.97 351.5 475.98 351.51 475.99 351.55 476 351.56 476.02 351.57 476.03 351.58 476.34 351.65 476.48 351.75 476.5 351.78 476.52 351.81 476.53 351.85 476.53 351.9 476.53 351.9 476.5 351.92 476.5 351.92 476.5 351.93 476.51 351.96 476.51 351.96 476.53 352.06 476.56 352.08 476.59 352.09 476.69 352.09 476.74 352.09 476.78 352.11 476.93 352.21 476.94 352.23 476.95 352.27 476.98 352.3 476.99 352.31 477.01 352.4 477.04 352.49 477.09 352.62 477.11 352.74 477.12 352.79 477.21 352.94 477.23 353 477.23 353.13 477.24 353.17 477.32 353.31 477.36 353.42 477.4 353.46 477.44 353.5 477.48 353.54 477.49 353.59 477.51 353.7 477.52 353.73 477.49 353.78 477.49 353.8 477.48 353.83 477.5 353.85 477.53 353.89 477.54 353.92 477.53 353.95 477.53 353.97 477.52 354 477.53 354.03 477.55 354.07 477.73 354.33 477.76 354.39 477.78 354.52 477.8 354.56 477.9 354.63 478.08 354.73 478.16 354.8 478.18 354.85 478.19 354.87 478.18 354.9 478.16 354.92 478.14 354.95 478.14 354.97 478.15 354.99 478.22 355.11 478.25 355.14 478.29 355.16 478.35 355.16 478.4 355.12 478.49 355.02 478.54 354.99 478.58 354.98 478.62 354.98 478.67 354.99 478.71 355 478.76 355.03 478.86 355.1 478.91 355.12 478.96 355.11 479 355.09 479.04 355.08 479.1 355.1 479.24 355.18 479.37 355.23 479.38 355.25 479.32 355.34 479.3 355.39 479.31 355.43 479.35 355.52 479.37 355.57 479.37 355.61 479.35 355.66 479.27 355.77 479.26 355.79 479.25 356.26 479.27 356.36 479.32 356.45 479.62 356.77 479.48 356.77 479.32 356.77 479.31 356.64 479.22 356.64 479.16 356.68 479.15 356.77 479.15 356.77 479.14 356.84 478.94 356.77 478.94 356.77 478.83 356.58 478.74 356.42 478.85 356.15 478.68 356.1 478.46 356.1 478.54 355.93 478.5 355.87 478.32 355.96 478.17 356.05 478.13 355.97 477.97 356.03 477.79 356.1 477.59 356.18 477.41 356.24 477.24 356.31 477.06 356.38 476.84 356.45 476.69 356.53 476.54 356.6 476.39 356.68 476.21 356.77 475.99 356.99 475.76 357.22 475.54 357.44 475.32 357.66 475.14 357.84 474.95 358.02 474.71 358.27 474.49 358.48 474.33 358.64 474.32 358.65 474.24 358.69 474.14 358.71 473.79 358.69 473.58 358.68 473.51 358.66 473.47 358.64 473.19 358.41 473.14 358.39 473.1 358.41 472.97 358.51 472.8 358.6 472.61 358.65 472.26 358.68 471.85 358.71 471.76 358.74 471.35 358.98 471.32 359.01 471.32 359.04 471.33 359.12 471.33 359.15 471.32 359.18 471.32 359.2 471.31 359.22 471.28 359.22 471.14 359.19 471.1 359.17 471.07 359.14 471.05 359.11 471.03 359.07 471 359.06 470.98 359.05 470.81 359.04 470.78 359.03 470.76 358.99 470.76 358.89 470.75 358.85 470.72 358.79 470.56 358.62 470.51 358.57 470.49 358.57 470.45 358.55 470.44 358.55 470.44 358.56 470.26 358.76 470.24 358.78 470.2 358.79 469.97 358.83 469.93 358.85 469.9 358.88 469.9 358.88 469.88 358.9 469.84 358.89 469.55 358.74 469.37 358.64 469.28 358.61 469.19 358.6 469.09 358.6 469.03 358.62 468.95 358.68 468.89 358.73 468.87 358.73 468.83 358.74 468.81 358.75 468.74 358.8 468.71 358.82 468.69 358.82 468.64 358.82 468.62 358.83 468.59 358.85 468.58 358.87 468.58 358.9 468.57 358.92 468.42 359.14 468.37 359.23 468.36 359.27 468.33 359.22 468.36 359.11 468.32 359.07 468.26 359.04 468.23 359.02 468.21 358.99 468.21 358.91 468.2 358.89 468.16 358.86 468.12 358.88 468.08 358.93 468.04 358.95 467.98 358.95 467.95 358.96 467.91 358.97 467.84 359.01 467.81 359.02 467.77 359.02 467.75 359.02 467.73 359.01 467.7 359 467.7 358.98 467.72 358.97 467.73 358.94 467.75 358.86 467.75 358.81 467.69 358.49 467.66 358.43 467.64 358.43 467.62 358.43 467.6 358.44 467.58 358.44 467.53 358.44 467.51 358.43 467.43 358.41 467.25 358.3 467.1 358.25 466.96 358.25 466.92 358.24 466.9 358.22 466.9 358.2 466.9 358.17 466.89 358.15 466.88 358.12 466.83 358.06 466.81 358.01 466.79 357.96 466.77 357.92 466.72 357.89 466.63 357.87 466.6 357.85 466.56 357.8 466.51 357.7 466.48 357.66 466.42 357.63 466.4 357.63 466.37 357.63 466.35 357.62 466.33 357.6 466.33 357.57 466.34 357.55 466.36 357.53 466.37 357.51 466.35 357.46 466.3 357.42 466.24 357.38 466.19 357.38 466.09 357.38 466.03 357.33 466 357.25 466.01 357.15 466.02 357.08 466.03 357.06 466.02 357.04 466.01 357 466.01 356.99 466.02 356.96 466.03 356.95 466.04 356.94 466.05 356.91 466.02 356.9 466 356.89 465.95 356.86 465.94 356.85 465.89 356.87 465.87 356.86 465.84 356.84 465.77 356.79 465.75 356.77 465.65 356.73 465.63 356.72 465.56 356.72 465.49 356.69 465.47 356.68 465.46 356.69 465.42 356.7 465.41 356.7 465.39 356.67 465.38 356.67 465.33 356.66 465.3 356.66 465.28 356.69 465.27 356.77 465.27 356.81 465.27 356.83 465.26 356.85 465.22 356.89 465.21 356.92 465.19 356.97 465.18 357.01 465.15 357.05 465.03 357.15 465.01 357.18 464.99 357.23 464.96 357.29 464.92 357.3 464.88 357.29 464.82 357.29 464.8 357.31 464.79 357.35 464.77 357.39 464.72 357.4 464.67 357.37 464.53 357.23 464.5 357.21 464.41 357.18 464.41 357.18 464.4 357.15 464.38 357.14 464.27 357.07 464.25 357.05 464.12 357.08 464.07 357.09 463.96 357.08 463.9 357.09 463.87 357.09 463.82 357.06 463.81 357.02 463.8 356.97 463.77 356.93 463.74 356.92 463.72 356.93 463.7 356.95 463.67 356.96 463.63 356.96 463.61 356.97 463.52 357.14 463.48 357.19 463.45 357.21 463.36 357.23 463.33 357.25 463.32 357.27 463.32 357.3 463.3 357.32 463.28 357.32 463.26 357.32 463.24 357.32 463.22 357.32 463.17 357.33 463.14 357.35 463.05 357.46 463.01 357.5 462.96 357.53 462.91 357.53 462.86 357.52 462.84 357.5 462.83 357.47 462.81 357.42 462.74 357.36 462.65 357.37 462.55 357.39 462.46 357.38 462.42 357.35 462.38 357.3 462.32 357.23 462.31 357.18 462.29 357.17 462.26 357.16 462.24 357.18 462.2 357.21 462.18 357.22 462.11 357.12 462.1 357.1 462.09 357.08 462.09 357.06 462.09 357.04 462.09 356.99 462.1 356.95 462.1 356.93 461.98 356.91 461.96 356.91 461.94 356.91 461.92 356.89 461.91 356.88 461.89 356.89 461.88 356.9 461.88 356.9 461.88 356.91 461.88 356.92 461.88 356.93 461.86 356.93 461.83 356.92 461.81 356.91 461.75 356.92 461.73 356.92 461.71 356.91 461.67 356.86 461.64 356.84 461.63 356.84 461.57 356.83 461.56 356.83 461.55 356.79 461.54 356.74 461.53 356.65 461.55 356.52 461.54 356.47 461.53 356.45 461.52 356.43 461.5 356.4 461.48 356.39 461.46 356.39 461.42 356.4 461.4 356.4 461.37 356.38 461.36 356.34 461.34 356.25 461.31 356.2 461.27 356.17 461.08 356.15 461.03 356.14 460.99 356.11 460.98 356.08 460.97 356.04 460.96 356.02 460.94 355.99 460.87 355.94 460.86 355.93 460.84 355.93 460.83 355.92 460.82 355.91 460.83 355.81 460.83 355.78 460.81 355.75 460.74 355.7 460.71 355.62 460.64 355.57 460.52 355.48 460.47 355.42 460.44 355.36 460.38 355.22 460.37 355.19 460.36 355.08 460.34 355.02 460.33 354.99 460.34 354.96 460.43 354.72 460.42 354.7 460.43 354.66 460.42 354.64 460.4 354.62 460.38 354.63 460.37 354.63 460.36 354.64 460.35 354.64 460.34 354.64 460.33 354.64 460.32 354.62 460.32 354.6 460.33 354.57 460.33 354.53 460.34 354.52 460.33 354.51 460.3 354.48 460.29 354.47 460.28 354.46 460.28 354.44 460.27 354.4 460.25 354.37 460.23 354.34 460.2 354.33 460.15 354.31 460.14 354.29 460.14 354.27 460.12 354.23 460.1 354.22 460.01 354.18 459.99 354.19 459.95 354.2 459.93 354.2 459.92 354.19 459.9 354.15 459.86 354.12 459.83 354.06 459.81 354.03 459.71 354.06 459.66 354.06 459.64 354.02 459.62 353.97 459.59 353.96 459.55 353.98 459.5 353.98 459.45 353.96 459.43 353.92 459.42 353.82 459.39 353.79 459.35 353.76 459.2 353.7 459.04 353.71 458.97 353.7 458.84 353.65 458.8 353.63 458.78 353.59 458.76 353.54 458.74 353.5 458.7 353.49 458.61 353.55 458.58 353.56 458.57 353.52 458.58 353.47 458.62 353.43 458.66 353.4 458.71 353.38 458.74 353.35 458.76 353.31 458.76 353.27 458.73 353.23 458.7 353.22 458.66 353.23 458.64 353.21 458.64 353.16 458.64 353.1 458.6 353.08 458.51 353.06 458.47 353.03 458.41 352.96 458.38 352.92 458.33 352.9 458.3 352.89 458.28 352.87 458.26 352.82 458.27 352.78 458.28 352.74 458.27 352.71 458.23 352.69 458.25 352.67 458.27 352.65 458.29 352.64 458.31 352.62 458.35 352.53 458.42 352.44 458.46 352.37 458.48 352.35 458.47 352.32 458.47 352.28 458.36 352.22 458.23 352.17 458.16 352.13 458.12 352.09 458.03 352.03 457.96 351.94 457.93 351.93 457.89 351.91 457.84 351.88 457.81 351.86 457.8 351.83 457.8 351.81 457.79 351.78 457.79 351.77 457.8 351.75 457.8 351.74 457.79 351.73 457.77 351.73 457.76 351.74 457.75 351.74 457.73 351.73 457.71 351.68 457.7 351.57 457.69 351.52 457.59 351.51 457.57 351.5 457.56 351.49 457.56 351.47 457.55 351.45 457.52 351.44 457.48 351.44 457.46 351.43 457.39 351.39 457.38 351.37 457.37 351.33 457.36 351.31 457.32 351.3 457.23 351.29 457.19 351.27 457.17 351.24 457.17 351.21 457.16 351.19 457.1 351.19 457.08 351.18 457.04 351.15 457.02 351.14 456.98 351.14 456.96 351.13 456.91 351.09 456.87 351.07 456.73 351.04 456.69 351.02 456.6 350.93 456.56 350.91 456.53 350.9 456.48 350.92 456.43 350.89 456.34 350.82 456.21 350.76 456.19 350.74 456.16 350.71 456.15 350.68 456.14 350.61 456.12 350.58 456.1 350.57 456.07 350.56 456.05 350.55 456.04 350.54 456.01 350.5 456 350.48 455.97 350.46 455.84 350.4 455.79 350.28 455.78 350.25 455.78 350.22 455.83 350.18 455.98 350.13 456.03 350.08 456.04 350.04 456.03 350.01 456.02 349.98 456.01 349.95 456.02 349.85 456.02 349.82 456 349.78 455.97 349.72 455.95 349.65 455.93 349.62 455.9 349.59 455.84 349.57 455.83 349.56 455.82 349.55 455.8 349.54 455.75 349.53 455.71 349.53 455.65 349.54 455.62 349.54 455.55 349.52 455.48 349.47 455.38 349.35 455.36 349.34 455.34 349.33 455.32 349.31 455.31 349.3 455.31 349.26 455.26 349.21 455.26 349.13 455.23 349.09 455.04 348.92 454.97 348.89 454.85 348.87 454.78 348.83 454.73 348.83 454.69 348.83 454.56 348.8 454.41 348.83 454.34 348.83 454.27 348.78 454.25 348.78 454.23 348.77 454.22 348.75 454.21 348.73 454.16 348.68 454.08 348.69 453.94 348.74 453.92 348.73 453.89 348.71 453.87 348.7 453.86 348.69 453.82 348.69 453.78 348.69 453.77 348.69 453.69 348.67 453.66 348.66 453.6 348.63 453.54 348.58 453.49 348.52 453.47 348.46 453.48 348.39 453.5 348.31 453.63 348.1 453.65 348.08 453.74 348.02 453.76 348 453.74 347.97 453.68 347.92 453.67 347.89 453.68 347.86 453.72 347.8 453.72 347.77 453.68 347.75 453.6 347.75 453.58 347.75 453.59 347.74 453.59 347.71 453.61 347.69 453.73 347.59 453.8 347.56 454.04 347.41 454.09 347.4 454.29 347.38 454.4 347.34 454.43 347.33 454.44 347.31 454.44 347.08 454.44 347.06 454.45 347.03 454.65 346.69 454.66 346.67 454.67 346.66 454.71 346.23 454.72 346.19 454.74 346.16 454.8 346.1 454.94 345.95 454.96 345.9 454.96 345.88 454.96 345.28 454.97 345.23 454.97 345.22 454.98 345.21 454.99 345.21 455.01 345.21 455.03 345.2 455.05 345.2 455.07 345.18 455.15 345.12 455.23 345.07 455.25 345.04 455.32 344.96 455.35 344.93 455.36 344.9 455.38 344.86 455.4 344.82 455.45 344.7 455.48 344.64 455.48 344.62 455.48 344.61 455.48 344.6 455.47 344.57 455.46 344.53 455.45 344.52 455.45 344.5 455.45 344.48 455.45 344.45 455.57 344.22 455.59 344.19 455.6 344.17 455.62 344.17 455.65 344.16 455.68 344.15 455.71 344.14 455.76 344.15 455.79 344.14 455.84 344.12 455.86 344.12 455.88 344.12 455.9 344.12 455.92 344.11 455.93 344.11 455.95 344.11 455.97 344.11 455.99 344.12 456.01 344.13 456.02 344.13 456.03 344.13 456.05 344.13 456.06 344.13 456.08 344.12 456.09 344.12 456.12 344.12 456.13 344.12 456.14 344.12 456.18 344.1 456.2 344.1 456.22 344.1 456.24 344.1 456.26 344.09 456.28 344.09 456.31 344.08 456.34 344.07 456.36 344.06 456.39 344.06 456.48 344.06 456.5 344.06 456.53 344.05 456.54 344.05 456.7 343.99 456.8 343.97 456.81 343.97 456.88 343.96 456.93 343.96 456.97 343.95 456.98 343.94 457.07 343.95 457.09 343.95 457.11 343.94 457.15 343.92 457.25 343.89 457.28 343.89 457.29 343.9 457.38 344.02 457.39 344.03 457.4 344.04 457.4 344.06 457.41 344.4 457.42 344.42 457.42 344.42 457.44 344.44 457.46 344.45 457.54 344.5 457.57 344.52 457.63 344.53 457.64 344.54 457.65 344.55 457.66 344.56 457.67 344.57 457.8 344.79 457.83 344.82 457.86 344.86 457.86 344.86 458.03 344.92 458.45 345.41 458.87 345.9 458.97 345.96 459.02 345.99 459.15 346 459.17 346 460.03 345.71 460.6 345.7 460.7 345.71 461.02 345.71 461.2 345.73 461.21 345.73 461.26 345.72 461.27 345.72 461.56 345.76 461.77 345.75 461.81 345.74 461.83 345.73 462.06 346.2 462.17 346.32 463.05 346.33 463.93 346.34 463.94 346.34 463.91 346.28 463.9 346.2 463.9 346.11 463.95 346.02 464.09 345.88 464.26 345.75 464.3 345.72 464.58 345.57 464.84 345.48 465.35 345.36 465.54 345.18 465.64 345.02 465.65 344.7 465.72 344.65 465.84 344.57 466.43 344.29 466.53 344.23 467.05 344.56 467.57 344.89 468.16 345.42 468.2 345.45 468.23 345.46 468.26 345.44 468.28 345.41 468.33 345.4 468.36 345.39 468.61 345.38 468.61 345.38 469.08 345.36 469.24 345.29 469.71 344.82 470.19 344.35 470.43 344.05 470.49 343.99 470.63 343.77 470.78 343.41 470.81 343.36 471.33 342.92 471.85 342.48 471.89 342.41 471.9 342.35 471.74 342.05 471.71 341.9 471.7 341.67 471.73 341.3 471.72 341.07 471.72 341.05 471.71 341.01 471.7 341 471.12 340.35 471.85 340.34 472.59 340.34 472.59 340.28 472.59 340.26 472.59 340.23 472.56 340.15 472.54 340.05 472.54 340.02 472.54 339.99 472.55 339.94 472.55 339.91 472.55 339.89 472.55 339.88 472.55 339.87 472.56 339.86 473.61 339.87 473.6 340.06 473.47 340.49 473.47 340.75 473.44 341.05 473.44 341.07 473.41 341.14 473.38 341.18 473.35 341.21 473.34 341.22 473.33 341.25 473.33 341.28 473.44 342.11 473.55 342.94 473.55 342.98 473.54 343.01 473.48 343.12 473.46 343.15 473.46 343.18 473.48 343.19 473.97 343.37 474 343.39 474.01 343.4 474.19 343.61 474.67 344.01 475.15 344.4 475.18 344.44 475.28 344.69 475.29 344.72 475.3 344.78 475.29 344.83 475.27 344.98 475.28 345.04 475.29 345.09 475.31 345.14 475.31 345.15 475.31 345.17 475.3 345.19 475.16 345.48 475.11 345.68 475.1 345.85 475.1 345.95 475.12 346.01 475.13 346.03 475.13 346.04 475.14 346.04 475.15 346.05 475.52 346.05 Z" id="South Sudan" transform="translate(-453.4700012207031,-339.8599853515625) "/></svg>