<svg xmlns="http://www.w3.org/2000/svg" viewBox="0 0 47.66998291015625 67.56997680664062"><path d="M 483.93 484.41 483.87 484.46 483.8 484.49 483.79 484.48 483.75 484.47 483.5 484.46 483.47 484.46 483.39 484.45 483.35 484.43 483.32 484.4 483.31 484.37 483.3 484.33 483.29 484.29 483.33 484.25 483.38 484.17 483.4 484.16 483.42 484.14 483.46 484.07 483.49 484.04 483.56 484.02 483.63 484.03 483.84 484.09 483.94 484.22 484 484.24 483.98 484.33 483.93 484.41 Z M 484.18 483.45 484.1 483.48 483.99 483.47 483.93 483.42 483.93 483.35 484.01 483.31 484.11 483.3 484.18 483.36 484.18 483.45 Z M 469.36 417.57 469.34 417.61 469.43 417.91 469.55 418.27 469.66 418.62 469.75 418.91 469.91 419.38 469.92 419.45 469.87 420 469.89 420.1 469.93 420.19 470.14 420.42 470.18 420.5 470.27 420.8 470.36 421.02 470.39 421.07 470.43 421.11 470.58 421.21 470.6 421.24 470.61 421.28 470.62 421.32 470.63 421.7 470.64 421.8 470.77 422.08 470.85 422.25 470.9 422.43 470.92 422.62 470.9 422.78 470.9 423.12 470.9 423.53 470.9 423.82 470.91 424.21 470.91 424.74 470.87 424.86 470.86 424.92 470.86 425 470.87 425.08 470.89 425.13 470.9 425.18 470.92 425.33 470.92 425.38 470.91 425.42 470.9 425.43 470.88 425.44 470.85 425.47 470.83 425.5 470.74 425.75 470.72 425.81 470.73 425.89 470.82 426.17 470.69 426.23 470.63 426.25 470.57 426.23 470.37 426.1 470.34 426.08 470.13 425.95 469.9 425.8 469.66 425.64 469.61 425.63 469.54 425.63 469.46 425.65 469.4 425.68 469.18 425.88 468.98 426.05 468.95 426.1 468.92 426.23 468.8 426.52 468.65 426.78 468.49 426.99 468.49 426.99 468.28 427.25 468.24 427.43 468.24 427.69 468.24 428.03 468.26 428.2 468.28 428.26 468.32 428.26 468.35 428.25 468.39 428.23 468.43 428.2 468.45 428.17 468.46 428.2 468.5 428.32 468.53 428.36 468.59 428.43 468.62 428.47 468.63 428.51 468.63 428.58 468.6 428.67 468.61 428.73 468.66 428.82 468.89 429.03 469 429.19 469.03 429.22 469.06 429.24 469.26 429.31 469.34 429.34 469.51 429.4 469.74 429.47 469.88 429.5 470.13 429.51 470.45 429.51 470.66 429.52 470.86 429.52 470.86 429.48 470.86 429.46 470.84 429.43 470.83 429.4 470.82 429.37 470.81 429.18 470.81 429.14 470.81 428.98 470.84 428.76 470.88 428.55 470.92 428.33 470.91 428.26 471.06 428.26 471.1 428.27 471.15 428.32 471.19 428.34 471.25 428.35 471.36 428.34 471.43 428.34 471.59 428.37 471.71 428.39 471.97 428.38 472.26 428.37 472.57 428.36 472.91 428.35 472.89 428.45 472.85 428.78 472.81 428.93 472.81 428.99 472.79 429.04 472.71 429.15 472.71 429.17 472.7 429.24 472.69 429.26 472.67 429.3 472.66 429.37 472.43 430.03 472.28 430.75 472.28 430.81 472.27 430.84 472.25 430.89 472.24 430.92 472.24 430.95 472.26 431 472.26 431.03 472.15 431.65 472.14 431.69 471.95 431.99 471.94 432.03 471.93 432.08 471.91 432.14 471.87 432.17 471.82 432.19 471.83 432.21 471.84 432.22 471.85 432.22 471.86 432.21 471.88 432.29 471.86 432.39 471.82 432.48 471.8 432.56 471.77 432.6 471.58 432.8 471.55 432.82 471.48 432.86 471.45 432.88 471.43 432.9 471.39 432.98 471.36 433.01 471.12 433.22 471.06 433.17 470.97 433.19 470.92 433.24 470.97 433.31 470.99 433.29 471.02 433.26 471.05 433.24 471.09 433.24 471.05 433.32 470.96 433.39 470.69 433.54 470.61 433.55 470.52 433.55 470.42 433.53 470.42 433.55 470.43 433.57 470.44 433.58 470.45 433.58 470.45 433.6 470.38 433.64 469.95 434.14 469.85 434.23 469.81 434.25 469.8 434.26 469.79 434.27 469.79 434.32 469.78 434.33 469.75 434.35 469.66 434.46 469.63 434.49 469.56 434.54 469.53 434.57 469.51 434.59 469.5 434.64 469.48 434.66 469.46 434.68 469.44 434.7 469.42 434.74 469.13 435.14 468.84 435.73 468.82 435.83 468.84 435.92 468.75 435.92 468.73 435.94 468.72 436.01 468.75 435.99 468.83 435.97 468.86 435.94 468.86 435.96 468.85 435.98 468.85 436 468.83 436.03 468.77 436.1 468.54 436.31 468.47 436.39 468.37 436.57 468.24 436.87 467.92 437.43 467.88 437.54 467.87 437.58 467.85 437.61 467.75 437.73 467.37 438.43 467.31 438.52 467.27 438.55 467.24 438.57 467.21 438.59 467.14 438.74 466.93 439.02 466.77 439.23 466.71 439.28 466.64 439.43 466.52 439.57 466.2 439.88 466.16 439.9 466.02 439.94 465.97 439.96 465.93 440 465.91 440.04 465.77 440.21 465.73 440.23 465.71 440.25 465.69 440.3 465.67 440.32 465.66 440.33 465.65 440.34 465.6 440.35 465.56 440.38 465.48 440.46 465.45 440.48 465.36 440.51 465.3 440.55 465.29 440.56 465.26 440.56 465.24 440.57 465.23 440.57 465.21 440.57 465.2 440.57 465.18 440.58 465.19 440.6 465.19 440.61 465.2 440.62 465.15 440.72 465.09 440.75 465.07 440.77 465.07 440.83 465.04 440.87 464.97 440.92 464.9 441 464.86 441.05 464.85 441.09 464.84 441.12 464.8 441.19 464.78 441.2 464.77 441.21 464.77 441.22 464.76 441.25 464.76 441.26 464.61 441.33 464.59 441.36 464.58 441.4 464.56 441.45 464.5 441.54 464.22 441.84 464 442.15 463.88 442.23 463.86 442.25 463.56 442.53 463.51 442.6 463.49 442.62 463.45 442.64 463.43 442.65 463.35 442.74 463.31 442.79 463.3 442.84 463.28 442.87 463.04 443.06 462.98 443.09 462.91 443.16 462.87 443.17 462.86 443.22 462.81 443.26 462.7 443.32 462.6 443.39 462.53 443.43 462.41 443.46 462.36 443.52 462.31 443.59 462.3 443.67 462.28 443.72 462.23 443.78 462 443.97 461.93 443.99 461.91 444.01 461.88 444.06 461.85 444.07 461.85 444.08 461.85 444.1 461.85 444.11 461.84 444.12 461.73 444.17 461.69 444.22 461.66 444.23 461.62 444.24 461.51 444.28 461.47 444.31 461.28 444.52 461.2 444.58 461.05 444.64 461.02 444.66 461.01 444.66 460.96 444.74 460.94 444.75 460.92 444.75 460.91 444.75 460.88 444.74 460.87 444.81 460.81 444.86 460.69 444.96 460.64 444.99 460.63 444.99 460.62 444.99 460.61 444.98 460.61 444.98 460.6 444.98 460.59 445.01 460.36 445.18 460.33 445.2 460.17 445.28 460.13 445.31 460.12 445.33 460.11 445.35 460.1 445.37 460.09 445.39 460.07 445.4 460.05 445.41 460.01 445.42 459.82 445.52 459.77 445.53 459.72 445.54 459.67 445.55 459.55 445.66 459.5 445.67 459.39 445.69 459.32 445.73 459.11 445.82 459.08 445.83 459.06 445.84 459.05 445.89 459.04 445.9 458.99 445.91 458.78 446.01 458.69 446.04 458.6 446.04 458.41 446.01 458.35 446.02 458.31 446.04 458.27 446.04 458.22 446.02 458.13 445.97 457.84 445.91 457.53 445.9 457.34 445.93 457.16 445.98 456.99 446.06 456.92 446.12 456.86 446.19 456.82 446.28 456.79 446.43 456.78 446.49 456.79 446.52 456.83 446.54 456.84 446.56 456.85 446.58 456.92 446.63 456.96 446.7 456.98 446.72 456.97 446.74 456.97 446.75 456.96 446.76 456.89 446.73 456.84 446.75 456.8 446.78 456.74 446.79 456.67 446.78 456.56 446.75 456.49 446.74 456.38 446.75 456.33 446.75 456.27 446.72 456.19 446.7 456.11 446.65 456.03 446.61 455.84 446.56 455.64 446.56 455.44 446.59 455.31 446.62 455.26 446.65 455.22 446.69 455.26 446.8 455.23 446.86 455.19 446.9 455.17 446.92 455.06 447.02 455.05 447.06 455.06 447.09 455.08 447.11 455.1 447.12 455.11 447.14 455.1 447.16 455.06 447.19 455.05 447.21 455.03 447.21 455.01 447.17 454.96 447.16 454.81 447.15 454.69 447.12 454.63 447.11 454.49 447.14 454.45 447.14 454.26 447.08 454.16 447.03 454.09 446.96 454.04 446.95 453.77 446.91 453.74 446.89 453.71 446.87 453.56 446.81 453.17 446.77 453.12 446.76 453.02 446.73 452.79 446.7 452.39 446.61 452.29 446.61 451.93 446.7 451.88 446.72 451.84 446.75 451.81 446.78 451.78 446.84 451.8 446.89 451.84 446.93 451.89 446.94 451.89 446.96 451.12 446.88 451.11 446.87 451.1 446.79 451.09 446.77 451.03 446.77 451 446.76 450.98 446.74 450.99 446.78 451 446.79 451.02 446.8 451.05 446.82 451.07 446.86 451.07 446.88 451.05 446.89 451.04 446.88 451.01 446.87 450.95 446.86 450.92 446.87 450.9 446.88 450.88 446.89 450.84 446.88 450.66 446.83 450.59 446.78 450.57 446.77 450.54 446.76 450.52 446.72 450.52 446.69 450.52 446.68 450.53 446.67 450.57 446.67 450.53 446.64 450.48 446.62 450.39 446.61 450.41 446.65 450.44 446.69 450.47 446.72 450.51 446.74 450.47 446.75 450.41 446.74 450.16 446.65 450.12 446.65 450.06 446.65 450.02 446.66 449.98 446.67 449.87 446.77 449.78 446.82 449.68 446.84 449.47 446.82 449.38 446.82 449.19 446.86 449.14 446.89 449.11 446.91 449.04 446.98 449.01 447.04 449.02 447.08 449.05 447.12 449.09 447.14 449.06 447.16 449.02 447.18 448.73 447.22 448.65 447.26 448.59 447.32 448.59 447.36 448.6 447.45 448.58 447.48 448.53 447.56 448.52 447.57 448.39 447.65 448.3 447.68 448.2 447.7 448.11 447.71 447.87 447.66 447.79 447.61 447.74 447.59 447.69 447.6 447.6 447.64 447.52 447.66 447.51 447.67 447.5 447.69 447.49 447.71 447.47 447.72 447.32 447.78 447.23 447.8 447.13 447.79 446.77 447.65 446.68 447.63 446.46 447.61 446.36 447.62 446.27 447.67 446.29 447.67 446.16 447.7 446.12 447.73 446.18 447.74 446.23 447.78 446.26 447.83 446.24 447.89 446.2 447.9 445.81 447.83 445.5 447.88 445.4 447.92 445.33 447.98 445.21 448.14 445.16 448.18 445.12 448.2 445.09 448.21 445.07 448.23 445.06 448.25 445.04 448.27 445.02 448.28 444.95 448.31 444.91 448.34 444.87 448.38 444.84 448.42 444.83 448.47 444.8 448.46 444.75 448.47 444.66 448.51 444.49 448.63 444.43 448.72 444.46 448.79 444.46 448.81 444.43 448.82 444.37 448.85 444.33 448.86 444.3 448.86 444.26 448.84 444.23 448.83 444.09 448.72 444.06 448.69 444.02 448.67 443.66 448.68 443.63 448.69 443.6 448.72 443.56 448.73 443.54 448.73 443.53 448.71 443.52 448.69 443.51 448.68 443.39 448.61 443.22 448.44 443.11 448.37 443.08 448.35 443.04 448.3 443 448.27 442.95 448.26 442.89 448.28 442.85 448.31 442.83 448.3 442.81 448.3 442.79 448.3 442.77 448.31 442.78 448.28 442.91 448.1 442.93 448.07 442.92 448 442.88 447.91 442.83 447.83 442.79 447.78 442.76 447.75 442.73 447.75 442.58 447.78 442.44 447.77 442.41 447.76 442.38 447.73 442.34 447.66 442.31 447.63 442.31 447.61 442.36 447.6 442.39 447.56 442.4 447.51 442.43 447.45 442.39 447.47 442.34 447.56 442.31 447.58 442.14 447.57 442.11 447.57 442.05 447.59 441.83 447.63 441.79 447.66 441.78 447.68 441.76 447.69 441.73 447.68 441.71 447.67 441.69 447.64 441.69 447.61 441.71 447.58 441.7 447.49 441.7 447.47 441.7 447.44 441.71 447.43 441.73 447.42 441.74 447.39 441.76 447.34 441.76 447.3 441.73 447.21 441.72 447.16 441.74 447.13 441.77 447.11 441.8 447.06 441.71 446.92 441.67 446.9 441.54 446.87 441.33 446.85 441.13 446.86 441.1 446.87 441.08 446.89 441 446.92 440.96 446.95 440.94 446.97 440.92 446.99 440.89 447.03 440.88 447.05 440.88 447.08 440.88 447.11 440.89 447.13 440.91 447.14 440.92 447.16 440.95 447.27 440.96 447.29 440.96 447.32 440.94 447.49 440.95 447.55 440.98 447.58 440.94 447.59 440.89 447.56 440.83 447.51 440.8 447.47 440.75 447.36 440.74 447.33 440.74 447.31 440.75 447.28 440.76 447.26 440.75 447.25 440.74 447.24 440.73 447.24 440.72 447.23 440.7 447.16 440.69 447.13 440.62 447.11 440.6 447.08 440.6 447.05 440.6 447.01 440.62 446.99 440.64 446.98 440.66 446.97 440.66 446.93 440.67 446.89 440.67 446.86 440.68 446.84 440.69 446.81 440.66 446.81 440.65 446.82 440.63 446.83 440.6 446.78 440.6 446.74 440.62 446.71 440.65 446.67 440.68 446.62 440.7 446.52 440.72 446.46 440.8 446.41 440.88 446.41 440.95 446.4 440.98 446.3 440.97 446.25 440.93 446.18 440.92 446.15 440.92 446.09 440.86 445.86 440.8 445.74 440.79 445.69 440.77 445.68 440.66 445.56 440.63 445.53 440.61 445.52 440.6 445.49 440.6 445.38 440.6 445.33 440.58 445.28 440.53 445.19 440.46 445.12 440.22 444.96 440.25 444.91 440.23 444.86 440.18 444.76 440.15 444.69 440.09 444.61 440.09 444.59 440.07 444.55 439.97 444.45 439.93 444.43 439.88 444.41 439.85 444.37 439.83 444.32 439.8 444.29 439.86 444.26 439.89 444.25 439.91 444.26 439.93 444.29 439.94 444.32 439.96 444.34 439.98 444.36 439.97 444.39 439.99 444.41 440.05 444.46 440.09 444.52 440.12 444.55 440.15 444.56 440.18 444.54 440.17 444.51 440.13 444.46 440.11 444.44 440.11 444.39 440.1 444.38 440.09 444.37 440.07 444.37 440.06 444.36 440.01 444.31 439.99 444.29 439.98 444.26 439.99 444.15 439.98 444.11 439.95 444.06 439.9 444.03 439.83 444.03 439.77 444.04 439.79 444.08 439.8 444.09 439.77 444.1 439.75 444.11 439.71 444.14 439.68 444.12 439.67 444.09 439.66 444.06 439.66 444.05 439.65 444.02 439.64 444 439.63 443.97 439.65 443.93 439.64 443.91 439.61 443.83 439.6 443.78 439.59 443.75 439.6 443.73 439.62 443.7 439.64 443.67 439.62 443.64 439.57 443.57 439.56 443.56 439.55 443.56 439.55 443.53 439.56 443.53 439.58 443.53 439.59 443.53 439.6 443.52 439.61 443.52 439.64 443.49 439.65 443.48 439.67 443.47 439.68 443.47 439.68 443.45 439.68 443.43 439.69 443.41 439.68 443.33 439.69 443.3 439.72 443.28 439.77 443.25 439.83 443.24 439.86 443.24 439.84 443.26 439.87 443.3 439.98 443.41 440.08 443.44 440.16 443.42 440.24 443.37 440.51 443.09 440.56 442.99 440.59 442.9 440.64 442.69 440.65 442.58 440.64 442.4 440.63 442.36 440.6 442.3 440.61 442.26 440.66 442.19 440.67 442.08 440.59 441.74 440.56 441.46 440.52 441.35 440.51 441.29 440.52 441.18 440.51 441.13 440.49 441.07 440.46 441.04 440.44 440.99 440.42 440.96 440.42 440.93 440.42 440.91 440.42 440.89 440.37 440.71 440.34 440.62 440.28 440.53 440.18 440.4 440.16 440.36 440.16 440.34 440.06 440.19 439.95 440.08 439.94 440.04 439.92 440 439.89 439.96 439.81 439.89 439.73 439.76 439.66 439.71 439.64 439.64 439.62 439.52 439.59 439.49 439.5 439.42 439.48 439.39 439.47 439.36 439.35 439.16 439.34 439.15 439.31 439.09 439.3 439.07 439.28 439.03 439.23 438.91 439.21 438.87 439.05 438.65 438.93 438.4 438.92 438.37 438.9 438.27 438.87 438.18 438.74 438 438.68 437.89 438.69 437.8 438.64 437.73 438.51 437.5 438.49 437.44 438.45 437.39 438.31 437.15 438.3 437.12 438.29 437.05 438.27 436.97 438.26 436.95 438.26 436.88 438.14 436.68 438.11 436.6 438.1 436.5 438.05 436.29 437.91 435.97 437.9 435.88 437.89 435.87 437.88 435.85 437.87 435.84 437.87 435.81 437.87 435.78 437.81 435.57 437.82 435.57 437.81 435.54 437.81 435.47 437.81 435.44 437.75 435.29 437.75 435.26 437.73 435.24 437.71 435.19 437.7 435.09 437.64 434.91 437.62 434.88 437.54 434.63 437.53 434.61 437.48 434.57 437.48 434.54 437.47 434.53 437.43 434.48 437.38 434.33 437.37 434.31 437.35 434.28 437.34 434.26 437.34 434.2 437.33 434.18 437.31 434.14 437.29 434.08 437.28 434.02 437.29 433.98 437.26 433.92 437.12 433.8 437.1 433.77 437.06 433.67 437.05 433.64 436.95 433.5 436.8 433.37 436.77 433.31 436.75 433.22 436.74 433.14 436.75 433.08 436.74 433.07 436.72 433.02 436.71 433 436.71 432.99 436.69 432.99 436.67 432.99 436.65 432.98 436.61 432.87 436.57 432.84 436.51 432.78 436.51 432.77 436.53 432.75 436.55 432.72 436.55 432.68 436.55 432.65 436.59 432.63 436.64 432.59 436.71 432.56 436.79 432.54 436.96 432.37 436.98 432.36 437 432.37 437.01 432.4 437.02 432.43 437.03 432.46 437.06 432.46 437.11 432.42 437.15 432.37 437.17 432.33 437.18 432.28 437.18 432.23 437.19 432.18 437.23 432.15 437.25 432.13 437.23 432.09 437.19 432.02 437.17 431.98 437.16 431.93 437.17 431.88 437.21 431.86 437.23 431.87 437.25 431.89 437.27 431.9 437.29 431.88 437.3 431.85 437.29 431.82 437.27 431.79 437.26 431.78 437.27 431.75 437.28 431.74 437.33 431.74 437.36 431.74 437.36 431.72 437.33 431.67 437.32 431.65 437.32 431.64 437.34 431.63 437.35 431.63 437.36 431.64 437.39 431.64 437.4 431.65 437.41 431.65 437.43 431.62 437.45 431.43 437.45 431.42 437.49 431.38 437.51 431.36 437.52 431.37 437.54 431.4 437.57 431.4 437.59 431.39 437.63 431.36 437.65 431.35 437.71 431.36 437.78 431.31 437.81 431.3 437.85 431.29 437.88 431.29 437.9 431.3 437.93 431.33 437.96 431.38 437.99 431.43 438.03 431.45 438.08 431.47 438.1 431.51 438.1 431.57 438.1 431.62 438.11 431.74 438.16 431.8 438.23 431.81 438.37 431.78 438.42 431.78 438.45 431.79 438.46 431.82 438.46 431.85 438.47 431.87 438.49 431.9 438.5 431.93 438.5 431.95 438.51 431.98 438.52 432.01 438.56 432.06 438.57 432.09 438.57 432.14 438.57 432.21 438.55 432.27 438.52 432.29 438.48 432.3 438.44 432.33 438.41 432.36 438.4 432.4 438.42 432.44 438.48 432.52 438.49 432.58 438.51 432.62 438.59 432.65 438.62 432.7 438.6 432.8 438.57 432.91 438.58 432.98 438.66 433 438.76 432.97 438.85 432.96 438.9 432.95 438.94 432.93 438.98 432.92 439.01 432.95 439.02 433 439.02 433.06 439.03 433.11 439.08 433.13 439.15 433.15 439.18 433.15 439.2 433.14 439.24 433.11 439.27 433.1 439.34 433.09 439.71 433.18 439.79 433.21 439.86 433.26 440 433.37 440.08 433.41 440.27 433.48 440.31 433.48 440.39 433.45 440.58 433.42 440.63 433.43 440.73 433.46 440.78 433.47 440.82 433.45 440.84 433.44 440.87 433.44 440.91 433.43 440.92 433.42 440.94 433.41 440.95 433.41 440.96 433.42 440.99 433.44 441 433.45 441.05 433.43 441.13 433.39 441.55 433.32 442.02 433.39 442.05 433.43 442.11 433.51 442.13 433.54 442.15 433.55 442.23 433.56 442.25 433.57 442.26 433.58 442.3 433.62 442.38 433.62 442.47 433.59 442.6 433.52 442.62 433.5 442.64 433.46 442.66 433.45 442.73 433.45 442.76 433.43 442.76 433.4 442.67 433.26 442.66 433.2 442.67 433.15 442.71 433.08 442.73 433.05 442.76 433.02 442.79 433.02 442.84 433.06 442.87 433.07 442.9 433.05 443.08 433.01 443.13 432.99 443.16 432.95 443.19 432.92 443.25 432.72 443.26 432.69 443.29 432.69 443.3 432.68 443.32 432.63 443.33 432.61 443.35 432.59 443.36 432.57 443.38 432.55 443.4 432.53 443.42 432.53 443.64 432.51 443.68 432.49 443.72 432.46 443.77 432.44 443.88 432.43 443.95 432.41 444.05 432.32 444.1 432.29 444.13 432.29 444.2 432.3 444.22 432.29 444.29 432.28 444.3 432.2 444.3 432.1 444.3 431.96 444.3 431.82 444.3 431.68 444.3 431.54 444.3 431.4 444.3 431.26 444.3 431.12 444.3 430.98 444.3 430.84 444.3 430.7 444.3 430.56 444.3 430.42 444.3 430.28 444.3 430.14 444.3 430 444.3 429.86 444.3 429.73 444.3 429.59 444.3 429.45 444.3 429.31 444.3 429.17 444.3 429.03 444.3 428.89 444.3 428.75 444.3 428.61 444.3 428.48 444.29 428.34 444.29 428.2 444.29 428.06 444.29 427.92 444.29 427.78 444.29 427.65 444.29 427.51 444.29 427.37 444.29 427.23 444.29 427.09 444.29 426.96 444.29 426.82 444.29 426.68 444.29 426.54 444.29 426.41 444.29 426.27 444.29 426.13 444.29 425.99 444.29 425.86 444.29 425.72 444.29 425.58 444.29 425.44 444.29 425.34 444.29 425.31 444.29 425.17 444.29 425.03 444.29 424.9 444.29 424.76 444.29 424.62 444.29 424.49 444.29 424.35 444.29 424.21 444.29 424.08 444.29 423.94 444.29 423.8 444.29 423.67 444.29 423.53 444.29 423.4 444.29 423.26 444.29 423.23 444.3 423.27 444.32 423.29 444.36 423.32 444.4 423.38 444.51 423.47 444.57 423.54 444.6 423.56 444.62 423.56 444.66 423.57 444.69 423.57 444.86 423.67 445.14 423.91 445.17 423.94 445.24 424.09 445.3 424.19 445.32 424.24 445.32 424.28 445.3 424.32 445.32 424.35 445.36 424.37 445.4 424.39 445.41 424.45 445.41 424.47 445.42 424.49 445.46 424.51 445.48 424.52 445.48 424.54 445.47 424.56 445.46 424.57 445.47 424.59 445.47 424.61 445.5 424.64 445.51 424.66 445.52 424.73 445.54 424.76 445.57 424.78 445.64 424.81 445.65 424.84 445.66 424.88 445.69 424.88 445.69 424.9 445.68 424.93 445.68 424.96 445.7 424.97 445.72 424.96 445.74 424.95 445.76 424.94 445.79 424.97 445.72 425.01 445.71 425.05 445.7 425.12 445.8 425.21 445.82 425.27 445.81 425.3 445.76 425.32 445.75 425.34 445.75 425.37 445.78 425.38 445.8 425.38 445.82 425.4 445.82 425.42 445.8 425.48 445.8 425.5 445.82 425.53 445.88 425.55 445.9 425.57 445.92 425.62 445.97 425.78 445.95 425.83 445.94 425.85 445.97 425.84 446 425.83 446.01 425.83 446.03 425.86 446.03 425.87 446.09 426.01 446.11 426.22 446.11 426.4 446.12 426.45 446.2 426.59 446.19 426.63 446.1 426.77 446.05 426.86 446 426.95 445.88 427.11 445.81 427.23 445.78 427.27 445.71 427.32 445.7 427.35 445.68 427.48 445.67 427.55 445.68 427.62 445.69 427.65 445.72 427.7 445.74 427.73 445.73 427.79 445.68 427.96 445.68 428.03 445.7 428.12 445.72 428.21 445.75 428.28 445.76 428.3 445.78 428.31 445.81 428.34 445.83 428.36 445.85 428.44 445.86 428.47 445.87 428.46 445.92 428.43 446.06 428.36 446.16 428.29 446.22 428.26 446.35 428.24 446.44 428.28 446.53 428.34 446.82 428.4 446.89 428.4 447.08 428.34 447.11 428.34 447.18 428.35 447.21 428.35 447.39 428.3 447.5 428.3 447.55 428.31 447.66 428.35 447.84 428.36 447.98 428.39 448.02 428.4 448.07 428.38 448.2 428.29 448.24 428.25 448.26 428.21 448.27 428.16 448.27 428.11 448.25 428 448.25 427.97 448.28 427.94 448.34 427.92 448.41 427.91 448.62 427.9 448.76 427.87 448.89 427.79 449.01 427.68 449.09 427.55 449.16 427.35 449.2 427.26 449.29 427.17 449.32 427.12 449.34 427.11 449.44 427.09 449.47 427.08 449.53 427.05 449.64 426.94 449.72 426.83 449.77 426.79 449.84 426.77 449.94 426.8 449.98 426.78 450.02 426.72 450.05 426.63 450.08 426.6 450.12 426.57 450.14 426.55 450.15 426.54 450.24 426.4 450.24 426.37 450.23 426.34 450.23 426.32 450.26 426.3 450.32 426.28 450.34 426.26 450.36 426.23 450.37 426.19 450.38 426.13 450.38 426.08 450.37 426.05 450.34 426 450.36 425.96 450.41 425.92 450.44 425.89 450.46 425.85 450.46 425.83 450.45 425.8 450.43 425.77 450.42 425.77 450.41 425.76 450.41 425.73 450.42 425.67 450.45 425.62 450.55 425.51 450.56 425.48 450.57 425.46 450.57 425.42 450.57 425.4 450.56 425.37 450.56 425.35 450.59 425.33 450.61 425.31 450.6 425.28 450.58 425.26 450.57 425.23 450.57 425.21 450.58 425.19 450.59 425.15 450.64 425 450.65 424.98 450.71 424.96 450.73 424.93 450.77 424.83 450.79 424.8 450.81 424.78 450.83 424.77 450.86 424.75 450.89 424.74 450.9 424.72 450.9 424.7 450.91 424.67 451 424.59 451.05 424.56 451.1 424.57 451.12 424.59 451.13 424.61 451.14 424.62 451.17 424.61 451.19 424.59 451.36 424.51 451.46 424.48 451.57 424.47 451.69 424.5 451.79 424.53 451.83 424.54 451.87 424.54 451.94 424.51 451.97 424.51 452 424.52 452.02 424.54 452.06 424.59 452.08 424.62 452.11 424.64 452.17 424.67 452.23 424.7 452.46 424.88 452.48 424.91 452.51 424.94 452.63 424.98 452.65 424.99 452.67 425.04 452.69 425.07 452.71 425.08 452.75 425.09 452.77 425.11 452.86 425.22 452.96 425.29 452.99 425.34 453.03 425.36 453.15 425.34 453.17 425.34 453.2 425.35 453.22 425.37 453.22 425.39 453.21 425.41 453.21 425.43 453.26 425.42 453.49 425.36 453.61 425.36 453.7 425.41 453.86 425.59 453.95 425.66 454.06 425.68 454.12 425.67 454.17 425.65 454.21 425.64 454.31 425.68 454.48 425.74 454.6 425.82 454.67 425.84 454.84 425.82 454.91 425.84 454.97 425.85 455.04 425.85 455.17 425.81 455.21 425.79 455.35 425.69 455.45 425.64 455.53 425.63 455.62 425.64 455.72 425.68 455.81 425.69 456.27 425.64 456.43 425.56 456.72 425.34 456.77 425.19 456.86 424.96 456.89 424.9 456.96 424.58 457.15 424.15 457.2 423.99 457.27 423.87 457.27 423.78 457.34 423.63 457.36 423.55 457.36 423.46 457.34 423.28 457.34 423.22 457.35 423.21 457.37 423.2 457.44 423.18 457.56 423.18 457.59 423.17 457.66 423.11 458 423.01 458.25 422.93 458.36 422.91 458.4 422.92 458.44 422.93 458.48 422.93 458.53 422.94 458.53 422.94 458.67 422.79 458.69 422.76 458.76 422.59 458.81 422.52 458.87 422.47 459.02 422.37 459.15 422.23 459.17 422.2 459.22 422.17 459.41 422.11 459.46 422.08 459.49 422.05 459.52 422.01 459.56 421.8 459.56 421.69 459.72 421.05 459.73 420.98 459.71 420.93 459.78 420.82 459.77 420.8 459.77 420.78 459.78 420.73 459.82 420.65 459.86 420.56 459.88 420.54 459.9 420.55 459.92 420.58 459.93 420.6 459.97 420.61 460.01 420.58 460 420.55 459.99 420.5 459.99 420.46 460 420.46 460.02 420.47 460.02 420.45 460.04 420.44 460.08 420.41 460.06 420.41 460.08 420.38 460.1 420.36 460.13 420.36 460.15 420.37 460.16 420.35 460.15 420.33 460.13 420.31 460.12 420.28 460.13 420.27 460.16 420.26 460.18 420.27 460.2 420.29 460.21 420.28 460.22 420.26 460.23 420.24 460.25 420.26 460.26 420.27 460.28 420.27 460.31 420.26 460.27 420.21 460.3 420.19 460.38 420.16 460.47 420.12 460.51 420.09 460.54 420.05 460.59 419.97 460.63 419.94 460.65 420.02 460.67 420.01 460.69 419.98 460.7 419.96 460.73 419.95 460.76 419.94 460.78 419.94 460.76 419.98 460.79 420 460.81 419.98 460.83 419.95 460.85 419.93 460.88 419.92 460.97 419.91 461.02 419.9 461.07 419.87 461.1 419.83 461.11 419.77 461.11 419.76 461.1 419.74 461.1 419.72 461.1 419.72 461.11 419.71 461.12 419.7 461.13 419.69 461.13 419.68 461.14 419.64 461.18 419.59 461.2 419.53 461.22 419.53 461.25 419.54 461.28 419.55 461.31 419.54 461.4 419.47 461.46 419.54 461.49 419.55 461.52 419.54 461.53 419.51 461.57 419.42 461.57 419.42 461.59 419.41 461.59 419.4 461.6 419.4 461.6 419.39 461.59 419.38 461.58 419.37 461.58 419.36 461.57 419.34 461.56 419.32 461.57 419.31 461.59 419.31 461.64 419.31 461.67 419.3 461.66 419.26 461.74 419.24 461.84 419.2 461.91 419.14 461.95 419.08 461.93 418.97 461.93 418.92 461.95 418.9 462 418.89 462.04 418.87 462.09 418.85 462.12 418.83 462.15 418.79 462.18 418.75 462.19 418.69 462.17 418.64 462.17 418.62 462.21 418.6 462.26 418.58 462.3 418.57 462.31 418.55 462.32 418.52 462.33 418.5 462.35 418.49 462.37 418.49 462.39 418.48 462.41 418.46 462.43 418.43 462.43 418.41 462.42 418.39 462.42 418.36 462.42 418.33 462.43 418.31 462.5 418.22 462.52 418.21 462.55 418.2 462.6 418.2 462.62 418.18 462.7 418.09 462.74 418.06 462.82 418.01 462.9 417.99 463.09 417.98 463.22 418.01 463.26 418 463.31 417.96 463.35 417.96 463.39 417.96 463.45 417.96 463.53 417.94 463.69 417.85 463.78 417.82 463.83 417.81 463.88 417.8 463.91 417.77 463.92 417.72 463.94 417.69 463.99 417.69 464.09 417.7 464.13 417.67 464.18 417.58 464.2 417.55 464.21 417.53 464.2 417.36 464.25 417.29 464.29 417.25 464.32 417.23 464.32 417.22 464.37 417.15 464.39 417.15 464.66 417.13 464.7 417.12 464.73 417.08 464.78 417.05 464.83 417.05 464.95 417.07 465.02 417.08 465.06 417.07 465.07 417.08 465.09 417.08 465.12 417.08 465.17 417.05 465.25 417.01 465.3 417 465.41 417.03 465.46 417.03 465.49 417.01 465.5 416.97 465.55 416.96 465.62 416.97 465.7 416.93 465.75 416.92 465.79 416.95 465.82 416.94 465.97 416.93 466.01 416.95 466.14 417.03 466.22 417.05 466.27 417.08 466.35 417.08 466.38 417.09 466.44 417.13 466.46 417.14 466.51 417.15 466.53 417.16 466.58 417.21 466.58 417.22 466.58 417.23 466.65 417.23 466.68 417.25 466.75 417.29 466.8 417.32 466.84 417.32 466.94 417.31 466.99 417.31 467.03 417.33 467.07 417.35 467.1 417.37 467.17 417.42 467.24 417.44 467.32 417.44 467.41 417.42 467.46 417.41 467.54 417.37 467.58 417.36 467.62 417.36 467.77 417.37 467.83 417.37 467.85 417.38 467.89 417.4 467.9 417.41 467.94 417.4 467.99 417.36 468.04 417.34 468.29 417.32 468.36 417.29 468.42 417.31 468.56 417.33 468.8 417.38 468.87 417.42 468.91 417.42 468.93 417.42 468.95 417.41 469.02 417.38 469.05 417.37 469.08 417.39 469.12 417.44 469.14 417.46 469.16 417.46 469.19 417.48 469.21 417.49 469.23 417.49 469.26 417.47 469.28 417.47 469.31 417.49 469.36 417.57 Z M 462.81 432.93 462.77 432.97 462.73 432.99 462.67 433 462.62 432.99 462.58 432.97 462.55 432.97 462.43 432.99 462.41 432.98 462.39 433.01 462.36 433.05 462.3 433.14 462.29 433.15 462.19 433.25 462.11 433.37 462.1 433.39 462.1 433.41 462.1 433.42 462.08 433.43 462.02 433.43 461.99 433.41 461.97 433.39 461.94 433.36 461.9 433.36 461.87 433.38 461.85 433.41 461.84 433.45 461.82 433.49 461.76 433.51 461.51 433.5 461.52 433.54 461.5 433.56 461.46 433.57 461.45 433.59 461.45 433.63 461.44 433.65 461.44 433.66 461.43 433.67 461.43 433.68 461.43 433.69 461.43 433.7 461.42 433.7 461.41 433.7 461.4 433.7 461.36 433.77 461.33 433.79 461.3 433.81 461.27 433.82 461.28 433.84 461.3 433.87 461.32 433.89 461.31 433.9 461.29 433.91 461.28 433.91 461.26 433.89 461.25 433.91 461.26 433.96 461.26 433.97 461.21 434.06 461.08 434.22 461.07 434.23 461.04 434.24 461.02 434.25 461.01 434.27 461 434.3 461.02 434.36 461.02 434.39 461 434.4 460.98 434.41 460.89 434.44 460.85 434.46 460.85 434.48 460.84 434.54 460.84 434.57 460.82 434.59 460.8 434.61 460.78 434.61 460.76 434.63 460.75 434.65 460.76 434.66 460.77 434.68 460.78 434.7 460.78 434.73 460.77 434.74 460.75 434.75 460.66 434.86 460.64 434.89 460.63 434.94 460.61 434.95 460.56 434.95 460.55 434.96 460.55 434.99 460.54 435.01 460.52 435.04 460.52 435.04 460.51 435.05 460.43 435.09 460.39 435.11 460.32 435.13 460.28 435.15 460.26 435.16 460.2 435.16 460.13 435.19 460.12 435.2 460.05 435.27 460.04 435.28 460.02 435.27 460.02 435.26 460.01 435.24 459.99 435.24 459.98 435.25 459.96 435.3 459.94 435.31 459.92 435.28 459.9 435.28 459.88 435.31 459.88 435.35 459.85 435.41 459.87 435.42 459.9 435.45 459.93 435.46 459.96 435.49 460.03 435.59 460.05 435.62 460.05 435.62 460.05 435.62 460.23 436.06 460.29 436.21 460.33 436.25 460.44 436.34 460.47 436.4 460.5 436.52 460.52 436.55 460.54 436.6 460.56 436.6 460.59 436.6 460.64 436.6 460.67 436.61 460.7 436.62 460.69 436.65 460.66 436.68 460.61 436.8 460.62 436.88 460.67 437.01 460.66 437.05 460.69 437.06 460.69 437.06 460.73 437.07 460.75 437.07 460.77 437.07 460.82 437.05 460.85 437.05 460.87 437.07 460.88 437.13 460.91 437.17 460.94 437.2 461.02 437.23 461.03 437.26 461.04 437.29 461.1 437.35 461.15 437.42 461.16 437.44 461.16 437.47 461.16 437.49 461.18 437.51 461.31 437.61 461.43 437.75 461.5 437.79 461.58 437.82 461.67 437.83 461.69 437.83 461.73 437.8 461.75 437.8 461.78 437.81 461.8 437.82 461.81 437.84 461.84 437.86 461.88 437.88 461.93 437.9 462.19 437.92 462.24 437.94 462.24 437.89 462.24 437.85 462.23 437.81 462.25 437.76 462.26 437.73 462.28 437.72 462.3 437.71 462.32 437.7 462.33 437.67 462.34 437.66 462.38 437.54 462.38 437.52 462.38 437.49 462.35 437.45 462.34 437.43 462.36 437.4 462.55 437.25 462.58 437.21 462.6 437.16 462.59 437.1 462.56 437.08 462.53 437.06 462.51 437.03 462.51 436.98 462.55 436.94 462.59 436.91 462.63 436.9 462.7 436.89 462.72 436.88 462.73 436.86 462.76 436.82 462.78 436.81 462.82 436.77 462.85 436.7 462.87 436.67 462.92 436.63 462.97 436.62 463.08 436.63 463.13 436.61 463.23 436.56 463.26 436.55 463.3 436.55 463.41 436.59 463.48 436.59 463.68 436.52 463.83 436.49 463.97 436.43 464.23 436.26 464.32 436.21 464.49 436.1 464.52 436.09 464.58 436.07 464.6 436.06 464.62 436.03 464.61 436.01 464.59 435.96 464.58 435.92 464.58 435.9 464.58 435.88 464.55 435.86 464.52 435.82 464.52 435.76 464.53 435.69 464.54 435.63 464.54 435.62 464.58 435.55 464.6 435.48 464.64 435.41 464.71 435.36 464.88 435.31 464.9 435.28 464.9 435.24 464.9 435.2 464.94 435.17 464.91 435.13 464.89 435.07 464.89 435.06 464.89 435.01 464.91 434.95 464.96 434.91 465.02 434.88 465.09 434.86 465.14 434.83 465.17 434.81 465.19 434.79 465.2 434.76 465.2 434.73 465.2 434.69 465.24 434.63 465.25 434.59 465.24 434.58 465.21 434.55 465.2 434.53 465.2 434.51 465.2 434.48 465.2 434.46 465.18 434.41 465.12 434.32 465.09 434.23 465.08 434.19 465.05 434.16 465.01 434.13 464.99 434.1 464.97 433.95 464.91 433.93 464.82 433.92 464.75 433.9 464.56 433.71 464.49 433.67 464.44 433.66 464.41 433.64 464.39 433.61 464.39 433.56 464.37 433.53 464.33 433.51 464.27 433.5 464.24 433.5 464.12 433.37 464.03 433.22 464 433.18 463.97 433.16 463.97 433.16 463.94 433.13 463.9 433.12 463.9 433.12 463.83 433.11 463.81 433.09 463.75 432.97 463.72 432.95 463.62 432.94 463.59 432.91 463.58 432.8 463.56 432.76 463.54 432.71 463.51 432.68 463.47 432.65 463.44 432.65 463.31 432.74 463.27 432.75 462.96 432.77 462.92 432.79 462.87 432.83 462.81 432.93 Z" fill-rule="evenodd" id="South Africa" transform="translate(-436.510009765625,-416.9200134277344) "/></svg>