<svg xmlns="http://www.w3.org/2000/svg" viewBox="0 0 16.07000732421875 14.79998779296875"><path d="M 681.13 288.41 681.15 288.45 681.18 288.47 681.29 288.52 681.32 288.55 681.35 288.63 681.37 288.66 681.38 288.65 681.39 288.64 681.4 288.63 681.41 288.66 681.4 288.67 681.38 288.68 681.37 288.7 681.37 288.71 681.38 288.74 681.38 288.75 681.37 288.76 681.36 288.79 681.35 288.8 681.31 288.84 681.24 288.9 681.21 288.95 681.18 289.01 681.18 289.03 681.16 289.07 681.11 289.07 681.09 289.09 681.03 289.08 680.94 289.15 680.72 289.19 680.65 289.25 680.55 289.27 680.46 289.26 680.34 289.28 680.25 289.26 680.04 289.26 679.97 289.29 679.93 289.36 679.9 289.37 679.86 289.35 679.81 289.27 679.75 289.24 679.68 289.18 679.66 289.09 679.7 288.99 679.73 288.92 679.76 288.9 679.83 288.85 679.9 288.74 679.96 288.72 679.99 288.66 680.09 288.63 680.32 288.56 680.37 288.51 680.59 288.49 680.74 288.43 680.77 288.44 680.95 288.41 681.06 288.4 681.13 288.41 Z M 682.17 287.08 682.18 287.09 682.17 287.11 682.17 287.14 682.2 287.19 682.21 287.2 682.23 287.2 682.24 287.21 682.23 287.23 682.2 287.21 682.17 287.2 682.17 287.19 682.16 287.18 682.15 287.15 682.15 287.15 682.14 287.14 682.13 287.12 682.14 287.11 682.14 287.1 682.14 287.09 682.14 287.09 682.15 287.09 682.16 287.09 682.17 287.08 682.17 287.08 Z M 677.39 287.1 677.38 287.12 677.37 287.11 677.37 287.11 677.36 287.1 677.31 287.06 677.29 287.05 677.28 287.03 677.29 287 677.31 286.99 677.33 286.99 677.35 287.02 677.39 287.08 677.39 287.1 Z M 680.56 286.79 680.57 286.79 680.59 286.79 680.62 286.79 680.63 286.79 680.65 286.8 680.67 286.82 680.66 286.83 680.65 286.83 680.64 286.82 680.64 286.84 680.63 286.83 680.61 286.82 680.59 286.82 680.58 286.83 680.57 286.85 680.55 286.86 680.52 286.88 680.49 286.9 680.45 286.9 680.42 286.87 680.42 286.83 680.44 286.79 680.48 286.76 680.52 286.76 680.56 286.79 Z M 680.77 286.92 680.75 286.93 680.74 286.92 680.74 286.91 680.73 286.9 680.72 286.9 680.71 286.86 680.72 286.8 680.73 286.77 680.72 286.75 680.71 286.74 680.73 286.72 680.73 286.72 680.75 286.72 680.79 286.74 680.79 286.76 680.77 286.78 680.77 286.8 680.79 286.83 680.8 286.84 680.81 286.85 680.8 286.86 680.79 286.86 680.79 286.88 680.79 286.9 680.77 286.92 Z M 681.34 286.8 681.33 286.82 681.3 286.83 681.27 286.84 681.24 286.83 681.22 286.81 681.21 286.81 681.2 286.82 681.19 286.82 681.18 286.78 681.2 286.75 681.2 286.72 681.21 286.7 681.22 286.69 681.26 286.67 681.29 286.68 681.32 286.71 681.34 286.73 681.35 286.75 681.34 286.78 681.34 286.8 Z M 680.61 286.76 680.59 286.77 680.56 286.76 680.54 286.75 680.54 286.74 680.53 286.73 680.52 286.73 680.52 286.72 680.53 286.69 680.53 286.68 680.54 286.67 680.53 286.66 680.53 286.66 680.54 286.65 680.55 286.65 680.54 286.64 680.53 286.62 680.54 286.62 680.56 286.62 680.58 286.63 680.62 286.64 680.65 286.65 680.66 286.66 680.67 286.67 680.67 286.7 680.65 286.71 680.64 286.74 680.61 286.74 680.59 286.74 680.61 286.76 Z M 679.37 286.4 679.45 286.42 679.48 286.41 679.5 286.42 679.49 286.45 679.5 286.47 679.49 286.48 679.47 286.49 679.45 286.5 679.44 286.49 679.43 286.48 679.43 286.48 679.42 286.49 679.41 286.49 679.36 286.48 679.35 286.45 679.35 286.44 679.36 286.43 679.36 286.41 679.37 286.4 Z M 681.17 286.31 681.19 286.31 681.2 286.31 681.2 286.31 681.23 286.31 681.26 286.32 681.28 286.33 681.28 286.35 681.26 286.37 681.26 286.37 681.26 286.39 681.24 286.41 681.22 286.4 681.2 286.41 681.19 286.42 681.18 286.43 681.16 286.43 681.15 286.42 681.15 286.4 681.14 286.38 681.12 286.37 681.1 286.38 681.07 286.39 681.05 286.39 681.04 286.38 681.03 286.38 680.98 286.35 680.98 286.34 681 286.34 681.02 286.34 681.03 286.33 681.04 286.33 681.06 286.33 681.08 286.34 681.1 286.33 681.13 286.3 681.16 286.3 681.17 286.31 Z M 681.62 286.29 681.64 286.29 681.67 286.29 681.69 286.28 681.7 286.29 681.71 286.3 681.72 286.32 681.73 286.33 681.73 286.34 681.72 286.34 681.7 286.33 681.68 286.33 681.66 286.33 681.67 286.34 681.68 286.35 681.66 286.37 681.63 286.4 681.6 286.41 681.6 286.38 681.61 286.37 681.63 286.36 681.62 286.35 681.57 286.34 681.58 286.33 681.57 286.31 681.56 286.3 681.52 286.3 681.5 286.3 681.5 286.29 681.5 286.29 681.52 286.28 681.53 286.27 681.55 286.25 681.57 286.23 681.57 286.22 681.58 286.23 681.6 286.24 681.61 286.26 681.62 286.29 Z M 680.95 286.38 680.99 286.42 681 286.43 681.01 286.46 681 286.47 680.99 286.47 680.98 286.47 680.96 286.46 680.94 286.45 680.93 286.45 680.93 286.46 680.92 286.47 680.9 286.46 680.87 286.45 680.83 286.44 680.83 286.42 680.85 286.41 680.84 286.39 680.82 286.38 680.8 286.39 680.77 286.38 680.75 286.36 680.73 286.34 680.72 286.31 680.72 286.28 680.72 286.25 680.73 286.21 680.75 286.19 680.77 286.18 680.79 286.17 680.82 286.17 680.85 286.18 680.87 286.19 680.9 286.22 680.92 286.28 680.93 286.32 680.93 286.34 680.95 286.35 680.95 286.38 Z M 681.21 286.18 681.21 286.19 681.19 286.2 681.15 286.18 681.13 286.19 681.12 286.2 681.06 286.23 681.04 286.26 681.03 286.29 681.02 286.3 681.01 286.28 681.01 286.25 681 286.23 680.99 286.22 680.98 286.22 680.97 286.21 680.98 286.19 680.99 286.18 681 286.14 681.03 286.1 681.08 286.08 681.12 286.07 681.15 286.07 681.16 286.09 681.16 286.11 681.15 286.12 681.15 286.12 681.18 286.14 681.19 286.16 681.21 286.18 Z M 682.6 286 682.6 286.01 682.61 286.01 682.63 285.99 682.65 285.99 682.7 286.04 682.71 286.07 682.71 286.08 682.69 286.1 682.65 286.13 682.61 286.14 682.6 286.13 682.6 286.11 682.58 286.09 682.56 286.08 682.55 286.07 682.56 286.06 682.53 286.04 682.52 286.03 682.53 286.01 682.53 286 682.52 285.99 682.53 285.98 682.55 285.99 682.56 286 682.6 286 Z M 681.98 286.11 681.89 286.13 681.86 286.12 681.83 286.11 681.78 286.07 681.78 286.05 681.79 286.04 681.79 286.03 681.78 286.01 681.76 286 681.79 285.98 681.83 285.96 681.9 285.95 681.97 285.94 682.01 285.94 682.04 285.96 682.06 286 682.05 286.05 682.02 286.09 681.98 286.11 Z M 683.24 285.94 683.23 285.94 683.22 285.93 683.21 285.92 683.19 285.91 683.16 285.9 683.14 285.88 683.13 285.86 683.12 285.84 683.1 285.83 683.09 285.82 683.1 285.79 683.13 285.78 683.17 285.77 683.2 285.79 683.24 285.86 683.23 285.88 683.23 285.88 683.25 285.89 683.27 285.9 683.28 285.91 683.27 285.93 683.24 285.94 Z M 680 285.8 680.01 285.82 680.02 285.81 680.07 285.78 680.08 285.8 680.14 285.91 680.15 285.95 680.14 285.99 680.13 286.03 680.08 286.12 680.07 286.15 680.04 286.16 680.04 286.16 680 286.12 679.99 286.11 679.99 286.13 679.98 286.17 679.77 286.28 679.74 286.29 679.65 286.3 679.62 286.29 679.62 286.27 679.63 286.25 679.64 286.24 679.65 286.22 679.64 286.2 679.58 286.16 679.58 286.22 679.53 286.17 679.56 286.08 679.62 286.01 679.68 286 679.7 285.94 679.71 285.92 679.74 285.9 679.76 285.89 679.78 285.88 679.8 285.87 679.8 285.83 679.83 285.86 679.86 285.87 679.89 285.85 679.91 285.81 679.89 285.77 679.83 285.73 679.85 285.71 679.89 285.7 679.92 285.72 679.95 285.75 679.98 285.76 679.98 285.77 679.99 285.79 680 285.8 Z M 679.43 285.82 679.4 285.82 679.38 285.82 679.37 285.8 679.38 285.8 679.4 285.8 679.41 285.79 679.42 285.78 679.42 285.77 679.37 285.76 679.38 285.74 679.41 285.74 679.44 285.74 679.47 285.72 679.48 285.69 679.47 285.66 679.45 285.63 679.43 285.58 679.45 285.57 679.48 285.59 679.49 285.61 679.52 285.62 679.52 285.65 679.53 285.65 679.53 285.67 679.53 285.69 679.52 285.72 679.52 285.75 679.51 285.76 679.49 285.78 679.47 285.79 679.43 285.82 Z M 679.38 285.72 679.36 285.73 679.35 285.72 679.34 285.62 679.34 285.57 679.36 285.55 679.39 285.61 679.42 285.64 679.43 285.68 679.43 285.71 679.41 285.72 679.38 285.72 Z M 684.33 285.55 684.34 285.55 684.39 285.53 684.39 285.54 684.39 285.55 684.37 285.58 684.36 285.59 684.34 285.59 684.32 285.58 684.31 285.59 684.28 285.6 684.27 285.61 684.26 285.61 684.25 285.6 684.26 285.58 684.26 285.57 684.25 285.56 684.24 285.56 684.23 285.55 684.23 285.54 684.24 285.53 684.24 285.51 684.25 285.5 684.26 285.5 684.33 285.54 684.33 285.55 Z M 678.05 285.38 678.05 285.4 678.07 285.4 678.1 285.4 678.1 285.41 678.08 285.43 678.07 285.44 678.07 285.45 678.03 285.49 678.02 285.51 678.01 285.54 678 285.55 677.99 285.56 677.97 285.55 677.95 285.51 677.96 285.48 677.97 285.45 677.98 285.42 678 285.39 678.02 285.38 678.04 285.37 678.05 285.38 Z M 683.29 285.69 683.26 285.7 683.24 285.68 683.16 285.6 683.15 285.57 683.16 285.52 683.17 285.51 683.21 285.48 683.22 285.46 683.24 285.39 683.2 285.36 683.21 285.34 683.23 285.33 683.26 285.32 683.28 285.33 683.29 285.36 683.28 285.39 683.25 285.41 683.27 285.42 683.29 285.45 683.31 285.49 683.33 285.56 683.33 285.6 683.32 285.63 683.31 285.67 683.29 285.69 Z M 679.3 285.43 679.26 285.48 679.25 285.49 679.23 285.49 679.21 285.49 679.21 285.48 679.18 285.46 679.14 285.45 679.13 285.45 679.11 285.4 679.13 285.38 679.19 285.36 679.23 285.3 679.25 285.29 679.26 285.3 679.28 285.33 679.3 285.36 679.31 285.37 679.31 285.39 679.31 285.41 679.3 285.43 Z M 679.56 285.18 679.58 285.19 679.6 285.21 679.61 285.22 679.64 285.22 679.66 285.22 679.68 285.24 679.69 285.25 679.68 285.26 679.69 285.28 679.69 285.31 679.69 285.33 679.68 285.36 679.65 285.36 679.63 285.34 679.61 285.31 679.58 285.31 679.57 285.32 679.56 285.32 679.55 285.32 679.53 285.31 679.53 285.29 679.51 285.25 679.46 285.21 679.45 285.18 679.48 285.19 679.49 285.19 679.51 285.18 679.53 285.18 679.56 285.18 Z M 679.32 285.15 679.32 285.21 679.31 285.21 679.28 285.2 679.27 285.19 679.25 285.22 679.22 285.22 679.19 285.21 679.18 285.22 679.18 285.25 679.16 285.29 679.14 285.31 679.12 285.32 679.09 285.32 679.07 285.3 679.06 285.27 679.06 285.24 679.06 285.2 679.08 285.18 679.11 285.16 679.13 285.15 679.16 285.17 679.2 285.16 679.28 285.13 679.29 285.13 679.3 285.13 679.31 285.14 679.32 285.15 Z M 679.65 285.2 679.62 285.2 679.6 285.19 679.57 285.17 679.53 285.15 679.51 285.14 679.53 285.12 679.58 285.11 679.61 285.09 679.63 285.08 679.65 285.09 679.67 285.11 679.67 285.12 679.67 285.13 679.66 285.15 679.66 285.18 679.65 285.2 Z M 684.57 285.04 684.59 285.05 684.61 285.04 684.64 285.03 684.68 285.03 684.7 285.05 684.71 285.08 684.7 285.11 684.71 285.12 684.7 285.13 684.67 285.13 684.67 285.13 684.67 285.14 684.68 285.14 684.7 285.16 684.69 285.17 684.67 285.2 684.63 285.2 684.62 285.18 684.61 285.16 684.59 285.16 684.6 285.14 684.59 285.12 684.56 285.12 684.55 285.11 684.57 285.09 684.58 285.07 684.55 285.06 684.51 285.04 684.49 285.05 684.47 285.05 684.47 285.03 684.49 285.01 684.51 285.01 684.55 285.02 684.57 285.04 Z M 684.27 285.1 684.26 285.11 684.24 285.1 684.23 285.1 684.2 285.08 684.19 285.06 684.19 285.05 684.21 285.02 684.24 285 684.27 285.01 684.3 285.04 684.31 285.06 684.3 285.08 684.28 285.08 684.27 285.08 684.27 285.1 Z M 679.62 284.89 679.63 284.9 679.64 284.91 679.64 284.93 679.61 284.95 679.62 284.99 679.62 285.01 679.6 285.02 679.58 285.02 679.56 285.04 679.56 285.07 679.56 285.09 679.53 285.11 679.51 285.11 679.51 285.09 679.51 285.08 679.48 285.04 679.46 285.02 679.44 284.99 679.45 284.97 679.48 284.95 679.51 284.95 679.53 284.96 679.55 284.96 679.56 284.94 679.55 284.91 679.57 284.89 679.6 284.89 679.62 284.89 Z M 683.76 284.92 683.77 284.92 683.79 284.9 683.81 284.85 683.84 284.85 683.84 284.87 683.85 284.88 683.86 284.89 683.87 284.92 683.88 284.96 683.89 284.98 683.9 284.99 683.92 285.01 683.89 285.01 683.79 284.99 683.74 285 683.71 285 683.67 284.98 683.65 284.94 683.67 284.9 683.7 284.86 683.72 284.82 683.74 284.8 683.77 284.79 683.78 284.82 683.77 284.86 683.76 284.89 683.76 284.92 Z M 680.1 284.94 680.1 285 680.06 285.04 680.03 285.03 680.05 285.02 680.06 285 680.05 284.99 679.99 284.96 679.98 284.95 679.91 284.96 679.88 284.98 679.85 284.98 679.83 284.97 679.81 284.96 679.82 284.94 679.86 284.94 679.9 284.92 679.91 284.91 679.92 284.91 679.92 284.89 679.95 284.89 679.96 284.87 679.96 284.85 679.94 284.83 679.94 284.8 679.96 284.79 680 284.8 680.04 284.82 680.07 284.84 680.06 284.86 680.04 284.86 680.01 284.88 680.01 284.9 680.01 284.91 680.01 284.93 680.02 284.93 680.06 284.93 680.1 284.94 Z M 679.5 284.8 679.5 284.84 679.5 284.88 679.48 284.91 679.45 284.93 679.42 284.94 679.4 284.94 679.39 284.92 679.37 284.92 679.3 284.93 679.27 284.93 679.27 284.92 679.29 284.9 679.33 284.83 679.36 284.81 679.38 284.81 679.4 284.81 679.42 284.81 679.42 284.8 679.43 284.76 679.46 284.76 679.48 284.77 679.5 284.8 Z M 679.85 284.79 679.83 284.8 679.8 284.8 679.79 284.77 679.79 284.75 679.81 284.74 679.85 284.74 679.86 284.74 679.86 284.76 679.85 284.78 679.85 284.79 Z M 683.62 285.04 683.65 285.08 683.69 285.08 683.75 285.05 683.8 285.04 683.87 285.06 683.89 285.06 683.9 285.09 683.89 285.12 683.88 285.15 683.87 285.18 683.88 285.24 683.88 285.27 683.87 285.28 683.85 285.29 683.87 285.35 683.86 285.38 683.82 285.38 683.79 285.36 683.76 285.35 683.71 285.37 683.68 285.37 683.66 285.32 683.63 285.21 683.6 285.19 683.57 285.21 683.55 285.26 683.54 285.31 683.53 285.34 683.49 285.34 683.46 285.33 683.44 285.31 683.43 285.29 683.42 285.27 683.42 285.24 683.42 285.21 683.36 285.01 683.35 284.96 683.36 284.92 683.38 284.87 683.4 284.86 683.41 284.85 683.43 284.84 683.44 284.78 683.45 284.77 683.49 284.74 683.52 284.73 683.55 284.74 683.58 284.76 683.6 284.8 683.59 284.83 683.57 284.87 683.52 284.92 683.53 284.94 683.54 284.98 683.56 285.01 683.57 285.02 683.62 285.04 Z M 685.34 284.69 685.35 284.71 685.36 284.74 685.36 284.77 685.35 284.81 685.32 284.9 685.36 284.88 685.38 284.87 685.39 284.87 685.39 284.92 685.39 284.95 685.38 284.98 685.36 285 685.33 284.99 685.34 285.02 685.37 285.09 685.38 285.13 685.36 285.13 685.32 285.12 685.28 285.1 685.25 285.08 685.25 285.12 685.24 285.14 685.2 285.18 685.19 285.22 685.22 285.24 685.25 285.25 685.27 285.27 685.24 285.3 685.08 285.35 685.03 285.36 685.1 285.3 685.07 285.29 685.06 285.26 685.06 285.23 685.07 285.19 685 285.23 684.98 285.21 684.97 285.18 684.98 285.15 684.99 285.14 685.04 285.13 685.06 285.1 685.06 285.05 685.07 285.01 685.04 284.99 685.02 285.02 684.94 285.05 684.91 285.08 684.88 285.04 684.85 285.01 684.82 284.97 684.82 284.92 684.83 284.89 684.86 284.86 684.89 284.84 684.92 284.82 685.01 284.81 685.03 284.81 685.06 284.82 685.09 284.84 685.12 284.86 685.16 284.86 685.16 284.84 685.12 284.81 685.1 284.77 685.09 284.73 685.09 284.69 685.12 284.69 685.27 284.6 685.24 284.55 685.26 284.5 685.29 284.48 685.33 284.49 685.34 284.51 685.34 284.54 685.33 284.64 685.33 284.66 685.34 284.69 Z M 679.62 284.41 679.64 284.42 679.67 284.42 679.69 284.42 679.7 284.43 679.7 284.45 679.7 284.46 679.7 284.49 679.69 284.49 679.68 284.5 679.67 284.5 679.65 284.47 679.64 284.47 679.63 284.47 679.62 284.47 679.62 284.46 679.61 284.46 679.6 284.46 679.59 284.45 679.61 284.44 679.6 284.44 679.59 284.44 679.58 284.43 679.59 284.42 679.6 284.41 679.62 284.41 Z M 685.58 284.58 685.57 284.58 685.56 284.57 685.55 284.53 685.53 284.51 685.53 284.49 685.53 284.48 685.52 284.45 685.51 284.43 685.52 284.41 685.54 284.4 685.57 284.4 685.59 284.4 685.6 284.44 685.6 284.51 685.59 284.56 685.58 284.58 Z M 679.72 284.29 679.74 284.3 679.76 284.3 679.78 284.29 679.79 284.29 679.8 284.3 679.81 284.3 679.82 284.3 679.83 284.32 679.81 284.33 679.79 284.33 679.78 284.34 679.78 284.36 679.81 284.38 679.83 284.39 679.85 284.39 679.87 284.41 679.87 284.44 679.88 284.45 679.89 284.47 679.88 284.5 679.87 284.51 679.86 284.5 679.84 284.49 679.83 284.48 679.82 284.46 679.82 284.44 679.82 284.42 679.81 284.42 679.75 284.41 679.74 284.4 679.72 284.4 679.71 284.4 679.7 284.39 679.69 284.38 679.68 284.37 679.65 284.31 679.67 284.29 679.69 284.28 679.72 284.29 Z M 679.55 284.4 679.55 284.43 679.53 284.43 679.47 284.41 679.45 284.42 679.45 284.41 679.44 284.41 679.43 284.4 679.42 284.4 679.44 284.31 679.45 284.29 679.47 284.28 679.49 284.27 679.52 284.26 679.53 284.24 679.55 284.21 679.59 284.18 679.63 284.17 679.67 284.18 679.6 284.22 679.58 284.24 679.58 284.27 679.59 284.29 679.62 284.34 679.6 284.35 679.57 284.38 679.55 284.4 Z M 679.98 282.9 679.99 282.91 679.98 282.93 679.94 282.97 679.91 283 679.89 283.01 679.88 283.02 679.87 283.02 679.86 283.01 679.86 282.99 679.86 282.98 679.88 282.97 679.88 282.96 679.87 282.95 679.87 282.95 679.89 282.94 679.89 282.93 679.91 282.93 679.92 282.92 679.91 282.91 679.92 282.91 679.95 282.91 679.96 282.9 679.97 282.89 679.98 282.9 Z M 680.2 280.54 680.19 280.56 680.19 280.57 680.2 280.6 680.22 280.65 680.25 280.7 680.26 280.74 680.24 280.73 680.14 280.74 680.11 280.73 680.1 280.69 680.11 280.67 680.13 280.66 680.14 280.63 680.08 280.67 680.06 280.66 680.07 280.62 680.11 280.56 680.09 280.54 680.06 280.58 680.05 280.55 680.03 280.57 680.04 280.5 680.03 280.4 680.02 280.34 680 280.26 680.02 280.24 680.06 280.2 680.1 280.19 680.13 280.23 680.13 280.25 680.12 280.27 680.11 280.28 680.11 280.3 680.14 280.39 680.15 280.41 680.14 280.44 680.15 280.46 680.18 280.47 680.2 280.51 680.15 280.51 680.15 280.52 680.17 280.53 680.2 280.54 Z M 692.3 278.44 692.29 278.44 692.29 278.44 692.29 278.44 692.3 278.44 Z M 679.65 278.47 679.64 278.49 679.62 278.51 679.6 278.52 679.57 278.53 679.55 278.52 679.53 278.49 679.53 278.48 679.52 278.48 679.51 278.49 679.5 278.49 679.5 278.48 679.5 278.43 679.52 278.39 679.53 278.37 679.55 278.38 679.57 278.41 679.58 278.42 679.64 278.45 679.65 278.47 Z M 680.36 278.44 680.34 278.46 680.32 278.47 680.3 278.46 680.28 278.46 680.27 278.45 680.26 278.42 680.26 278.38 680.28 278.35 680.32 278.33 680.37 278.34 680.4 278.35 680.4 278.39 680.39 278.4 680.37 278.41 680.36 278.43 680.36 278.44 Z M 680.57 278.34 680.58 278.36 680.61 278.38 680.65 278.39 680.66 278.4 680.67 278.42 680.67 278.44 680.66 278.47 680.55 278.56 680.5 278.56 680.5 278.55 680.52 278.52 680.52 278.5 680.51 278.48 680.54 278.45 680.54 278.42 680.53 278.37 680.51 278.35 680.5 278.33 680.5 278.32 680.54 278.34 680.57 278.31 680.58 278.31 680.57 278.34 Z M 680.58 277.72 680.59 277.74 680.59 277.75 680.58 277.76 680.56 277.77 680.55 277.78 680.52 277.79 680.5 277.79 680.47 277.8 680.42 277.82 680.4 277.85 680.38 277.87 680.28 277.95 680.26 277.94 680.24 277.94 680.23 277.94 680.22 277.91 680.21 277.9 680.2 277.9 680.19 277.91 680.19 277.9 680.19 277.89 680.19 277.88 680.17 277.88 680.16 277.89 680.15 277.9 680.13 277.89 680.11 277.89 680.12 277.87 680.12 277.86 680.09 277.83 680.09 277.82 680.1 277.8 680.11 277.79 680.13 277.8 680.23 277.73 680.3 277.73 680.35 277.73 680.39 277.7 680.41 277.64 680.44 277.63 680.47 277.65 680.48 277.66 680.49 277.67 680.5 277.67 680.52 277.67 680.53 277.68 680.55 277.68 680.56 277.69 680.57 277.71 680.58 277.72 Z M 690.15 277.83 690.11 277.85 690.06 277.84 690 277.8 689.96 277.76 689.95 277.7 689.97 277.66 690.01 277.64 690.09 277.62 690.14 277.6 690.17 277.6 690.21 277.63 690.2 277.7 690.18 277.77 690.15 277.83 Z M 678.62 277.3 678.61 277.3 678.6 277.29 678.59 277.25 678.59 277.23 678.61 277.23 678.63 277.23 678.65 277.25 678.64 277.28 678.62 277.3 Z M 680.12 277.28 680.08 277.29 679.93 277.17 679.94 277.15 679.95 277.13 679.97 277.08 679.97 277.06 679.98 277.05 680 277.04 680.01 277.04 680.02 277.04 680.02 277.05 680.03 277.06 680.03 277.11 680.04 277.12 680.05 277.14 680.06 277.16 680.09 277.18 680.12 277.2 680.14 277.23 680.14 277.25 680.12 277.28 Z M 679.91 276.86 679.95 276.88 680 276.88 680.04 276.89 680.06 276.91 680.04 276.96 680.01 276.99 679.96 277 679.86 276.98 679.84 276.99 679.82 277 679.8 277 679.79 276.97 679.79 276.96 679.82 276.88 679.85 276.86 679.88 276.85 679.91 276.86 Z M 680.47 277.38 680.45 277.44 680.43 277.46 680.41 277.46 680.4 277.45 680.37 277.43 680.36 277.42 680.34 277.42 680.33 277.43 680.33 277.43 680.21 277.44 680.17 277.42 680.12 277.36 680.19 277.34 680.2 277.33 680.22 277.3 680.22 277.29 680.21 277.28 680.2 277.26 680.12 277.11 680.11 277.09 680.12 277.06 680.12 276.93 680.13 276.9 680.15 276.89 680.2 276.83 680.24 276.82 680.28 276.85 680.31 276.89 680.35 276.92 680.42 276.95 680.44 276.98 680.46 277.03 680.45 277.05 680.44 277.09 680.44 277.1 680.44 277.12 680.47 277.16 680.47 277.18 680.48 277.28 680.47 277.3 680.48 277.32 680.49 277.35 680.5 277.36 680.47 277.38 Z M 676.45 276.86 676.43 276.87 676.42 276.87 676.4 276.87 676.39 276.89 676.38 276.89 676.38 276.88 676.38 276.88 676.38 276.86 676.36 276.84 676.37 276.82 676.4 276.79 676.43 276.76 676.44 276.76 676.45 276.76 676.47 276.77 676.48 276.78 676.47 276.81 676.46 276.84 676.45 276.86 Z M 676.49 276.38 676.52 276.41 676.51 276.46 676.48 276.48 676.44 276.45 676.38 276.46 676.37 276.46 676.37 276.49 676.39 276.5 676.42 276.51 676.43 276.52 676.38 276.55 676.29 276.54 676.23 276.48 676.25 276.38 676.31 276.4 676.43 276.36 676.49 276.38 Z M 680.78 276.81 680.76 276.57 680.78 276.5 680.8 276.48 680.84 276.48 680.9 276.46 680.99 276.39 681.18 276.1 681.22 276.06 681.3 275.99 681.34 275.95 681.38 275.84 681.41 275.77 681.44 275.73 681.45 275.72 681.58 275.62 681.72 275.53 681.87 275.47 682.01 275.45 682.08 275.46 682.35 275.44 682.56 275.5 682.63 275.49 682.76 275.45 683.19 275.42 683.21 275.43 683.23 275.47 683.26 275.5 683.29 275.5 683.44 275.47 683.67 275.49 683.82 275.48 683.97 275.42 684.12 275.33 684.23 275.21 684.28 275.13 684.33 275.06 684.36 274.97 684.37 274.87 684.35 274.77 684.34 274.72 684.36 274.69 684.42 274.64 684.54 274.57 684.61 274.7 684.71 274.91 684.73 275 684.79 275.13 684.98 275.52 685.13 275.92 685.16 275.97 685.24 276.07 685.27 276.15 685.64 276.67 685.78 276.88 685.95 277.07 685.98 277.09 686.09 277.23 686.1 277.28 686.1 277.35 686.11 277.41 686.19 277.45 686.21 277.5 686.28 277.71 686.31 277.76 686.34 277.78 686.37 277.81 686.47 278.01 686.53 278.08 686.55 278.13 686.56 278.17 686.58 278.21 686.68 278.33 686.72 278.43 686.75 278.64 686.79 278.75 686.9 278.91 686.91 278.94 686.9 278.97 686.88 279 686.87 279.03 686.86 279.06 686.88 279.15 686.9 279.39 686.92 279.51 686.99 279.74 687 279.85 686.98 279.96 686.93 280.05 686.89 280.17 686.89 280.17 686.9 280.28 686.93 280.39 686.94 280.51 686.93 280.74 686.91 280.79 686.85 280.87 686.82 280.92 686.81 280.97 686.8 281.3 686.81 281.35 686.82 281.37 686.83 281.38 686.85 281.4 686.86 281.49 686.87 281.56 686.89 281.57 686.9 281.59 686.9 281.63 686.88 281.66 686.86 281.67 686.83 281.67 686.8 281.7 686.79 281.74 686.84 281.79 686.87 281.82 686.91 281.87 686.95 281.87 687.01 281.83 687.15 281.68 687.18 281.63 687.22 281.66 687.22 281.71 687.24 281.75 687.25 281.81 687.22 281.86 687.14 282.02 687.13 282.09 687.11 282.28 687.05 282.44 687.05 282.54 686.99 282.72 686.95 282.8 686.93 282.84 686.95 282.89 686.97 282.92 686.99 282.94 686.98 283 686.97 283.07 686.96 283.18 686.94 283.22 686.9 283.27 686.87 283.29 686.85 283.24 686.84 283.18 686.81 283.13 686.78 283.13 686.76 283.18 686.79 283.19 686.81 283.21 686.82 283.24 686.82 283.28 686.81 283.32 686.79 283.32 686.76 283.33 686.74 283.34 686.75 283.36 686.75 283.41 686.76 283.47 686.74 283.5 686.72 283.53 686.74 283.56 686.75 283.57 686.75 283.61 686.7 283.63 686.66 283.65 686.6 283.71 686.55 283.71 686.54 283.75 686.53 283.8 686.52 283.82 686.5 283.85 686.52 283.88 686.52 283.9 686.49 283.95 686.46 284.02 686.42 284.07 686.4 284.12 686.38 284.15 686.35 284.14 686.32 284.14 686.29 284.15 686.27 284.15 686.24 284.16 686.22 284.16 686.21 284.2 686.23 284.23 686.24 284.26 686.22 284.29 686.17 284.32 686.13 284.28 686.11 284.26 686.09 284.24 686.03 284.3 686.01 284.35 686 284.4 685.98 284.42 685.97 284.39 685.94 284.36 685.95 284.39 685.95 284.44 685.93 284.44 685.93 284.42 685.92 284.42 685.89 284.43 685.87 284.45 685.86 284.43 685.84 284.37 685.85 284.31 685.86 284.24 685.87 284.21 685.86 284.2 685.84 284.23 685.77 284.34 685.74 284.35 685.74 284.29 685.74 284.24 685.72 284.24 685.7 284.28 685.69 284.34 685.63 284.34 685.49 284.34 685.48 284.29 685.46 284.27 685.44 284.34 685.42 284.35 685.37 284.33 685.35 284.28 685.32 284.28 685.29 284.31 685.29 284.19 685.28 284.18 685.26 284.19 685.24 284.21 685.24 284.25 685.21 284.22 685.18 284.19 685.15 284.16 685.1 284.18 685.11 284.14 685.09 284.09 685.1 284.07 685.08 284 685.07 283.99 685.04 284.01 685.01 284.05 685.01 284.08 685.04 284.14 685.06 284.21 685.07 284.24 685.09 284.27 685.12 284.32 685.13 284.34 685.12 284.38 685.14 284.38 685.16 284.4 685.18 284.4 685.16 284.41 685.14 284.42 685.1 284.42 685.07 284.41 685.06 284.4 685.06 284.38 685.06 284.36 685.03 284.34 685.02 284.33 684.9 284.29 684.87 284.28 684.79 284.3 684.77 284.31 684.77 284.33 684.8 284.36 684.76 284.37 684.68 284.41 684.6 284.43 684.58 284.47 684.58 284.5 684.56 284.53 684.56 284.55 684.78 284.43 684.82 284.43 684.82 284.47 684.84 284.51 684.84 284.54 684.82 284.58 684.79 284.59 684.75 284.6 684.71 284.6 684.68 284.58 684.66 284.61 684.67 284.62 684.69 284.64 684.71 284.66 684.71 284.67 684.71 284.69 684.71 284.75 684.69 284.86 684.71 284.88 684.73 284.87 684.75 284.85 684.76 284.82 684.79 284.86 684.75 284.91 684.7 284.99 684.65 285 684.58 285 684.58 284.96 684.63 284.96 684.64 284.95 684.66 284.93 684.52 284.92 684.49 284.91 684.46 284.86 684.45 284.84 684.48 284.83 684.53 284.81 684.48 284.71 684.44 284.74 684.4 284.81 684.35 284.82 684.31 284.75 684.28 284.74 684.23 284.73 684.21 284.75 684.2 284.78 684.19 284.82 684.19 284.86 684.15 284.85 684.04 284.86 684 284.83 684 284.82 684 284.78 683.99 284.77 683.98 284.77 683.96 284.77 683.93 284.76 683.88 284.76 683.86 284.75 683.85 284.73 683.85 284.71 683.85 284.69 683.86 284.67 683.85 284.47 683.86 284.44 683.86 284.42 683.87 284.4 683.88 284.38 683.89 284.34 683.85 284.38 683.82 284.43 683.79 284.47 683.74 284.47 683.78 284.57 683.75 284.59 683.69 284.59 683.63 284.62 683.61 284.56 683.59 284.53 683.57 284.51 683.56 284.6 683.54 284.67 683.49 284.71 683.43 284.71 683.41 284.7 683.39 284.7 683.37 284.7 683.36 284.71 683.32 284.69 683.3 284.68 683.29 284.68 683.2 284.68 683.17 284.67 683.15 284.66 683.15 284.64 683.14 284.61 683.11 284.59 683.11 284.61 683.11 284.64 683.11 284.66 683.1 284.71 683.09 284.72 683.07 284.75 682.98 284.82 682.94 284.84 682.9 284.81 682.86 284.72 682.83 284.71 682.8 284.74 682.79 284.8 682.79 284.84 682.82 284.89 682.85 284.95 682.89 285 682.92 285.03 682.95 285.06 682.97 285.07 683 285.05 683.07 284.99 683.12 284.98 683.16 284.99 683.19 284.99 683.24 284.97 683.23 285.02 683.23 285.06 683.2 285.14 683.18 285.27 683.16 285.3 683.08 285.33 683.02 285.3 682.97 285.29 682.93 285.38 682.92 285.37 682.91 285.37 682.91 285.37 682.9 285.38 682.92 285.41 682.93 285.45 682.95 285.57 682.94 285.59 682.91 285.58 682.88 285.54 682.82 285.53 682.79 285.51 682.76 285.47 682.75 285.41 682.76 285.36 682.79 285.3 682.81 285.25 682.8 285.2 682.78 285.18 682.75 285.1 682.74 285.09 682.73 285.09 682.71 285.09 682.7 285.08 682.7 285.07 682.71 285.05 682.71 285.04 682.68 284.97 682.67 284.94 682.68 284.93 682.69 284.9 682.69 284.89 682.68 284.87 682.67 284.86 682.66 284.86 682.66 284.87 682.65 284.87 682.61 284.97 682.6 284.99 682.59 285 682.58 285 682.5 285.02 682.46 285.03 682.36 285.03 682.33 285.04 682.36 285.06 682.41 285.09 682.46 285.1 682.46 285.12 682.37 285.15 682.32 285.17 682.31 285.21 682.33 285.23 682.37 285.21 682.39 285.22 682.41 285.24 682.4 285.25 682.39 285.26 682.39 285.26 682.42 285.37 682.48 285.43 682.55 285.47 682.6 285.54 682.57 285.54 682.54 285.54 682.52 285.54 682.61 285.58 682.63 285.61 682.63 285.66 682.61 285.68 682.59 285.7 682.55 285.7 682.52 285.71 682.42 285.64 682.39 285.63 682.36 285.64 682.32 285.66 682.29 285.68 682.28 285.7 682.28 285.71 682.31 285.76 682.34 285.77 682.36 285.78 682.44 285.76 682.49 285.8 682.39 285.89 682.35 285.95 682.31 285.93 682.24 285.98 682.25 286.02 682.28 286.05 682.22 286.05 682.13 285.93 682.1 285.87 682.01 285.78 681.99 285.79 681.9 285.83 681.91 285.86 681.91 285.87 681.88 285.86 681.84 285.85 681.81 285.84 681.79 285.8 681.79 285.76 681.8 285.74 681.85 285.71 681.87 285.69 681.91 285.63 681.94 285.58 681.96 285.56 681.99 285.54 681.99 285.58 681.98 285.63 681.94 285.71 682.01 285.7 682.06 285.68 682.1 285.64 682.1 285.56 682.08 285.53 682.07 285.51 682.05 285.49 682.05 285.45 682.06 285.43 682.13 285.36 682.15 285.37 682.16 285.39 682.17 285.41 682.16 285.43 682.17 285.47 682.19 285.49 682.21 285.5 682.25 285.49 682.26 285.47 682.29 285.4 682.31 285.38 682.28 285.33 682.27 285.28 682.25 285.26 682.21 285.29 682.16 285.31 682.12 285.28 682.07 285.19 682.04 285.24 681.99 285.36 681.96 285.39 681.93 285.41 681.9 285.41 681.84 285.39 681.82 285.4 681.79 285.43 681.75 285.48 681.74 285.49 681.66 285.54 681.61 285.57 681.58 285.59 681.56 285.6 681.54 285.61 681.54 285.63 681.54 285.66 681.53 285.69 681.52 285.71 681.5 285.73 681.49 285.76 681.5 285.8 681.38 285.92 681.39 286.03 681.36 286.05 681.31 286.02 681.29 286.04 681.28 286.07 681.28 286.1 681.29 286.13 681.26 286.12 681.2 286.07 681.11 286.05 681.1 286.04 681.08 285.99 681.09 285.85 681.08 285.8 681.09 285.76 681.09 285.72 681.07 285.69 681.05 285.67 681.02 285.68 681 285.7 680.98 285.73 680.97 285.75 680.98 285.79 681 285.82 681 285.84 680.93 285.87 680.94 285.9 680.99 285.96 680.9 286.01 680.87 286.04 680.9 286.05 680.91 286.06 680.91 286.07 680.91 286.09 680.9 286.09 680.89 286.09 680.87 286.08 680.86 286.07 680.83 286.08 680.82 286.09 680.82 286.11 680.81 286.14 680.79 286.15 680.73 286.16 680.7 286.19 680.7 286.2 680.64 286.38 680.64 286.41 680.64 286.44 680.58 286.43 680.48 286.46 680.46 286.46 680.45 286.43 680.47 286.36 680.47 286.33 680.45 286.31 680.42 286.31 680.36 286.31 680.36 286.29 680.37 286.28 680.38 286.27 680.38 286.23 680.39 286.22 680.4 286.23 680.41 286.22 680.44 286.16 680.45 286.14 680.44 286.11 680.43 286.1 680.41 286.1 680.38 286.09 680.35 286.09 680.35 286.07 680.36 286.06 680.36 286.05 680.36 286.02 680.37 285.99 680.37 285.97 680.33 285.98 680.34 285.92 680.39 285.88 680.45 285.87 680.5 285.87 680.49 285.85 680.48 285.83 680.46 285.82 680.44 285.82 680.47 285.79 680.5 285.76 680.5 285.74 680.47 285.72 680.46 285.73 680.44 285.75 680.43 285.76 680.41 285.76 680.38 285.74 680.36 285.74 680.35 285.76 680.34 285.77 680.33 285.8 680.31 285.8 680.29 285.8 680.27 285.8 680.23 285.8 680.2 285.8 680.17 285.82 680.16 285.77 680.14 285.75 680.09 285.72 680.09 285.71 680.08 285.69 680.07 285.68 680.06 285.7 680.05 285.71 680.04 285.72 680.02 285.72 680.01 285.71 679.96 285.67 679.95 285.67 679.95 285.64 679.95 285.63 679.96 285.63 679.97 285.62 679.98 285.63 680 285.63 680.02 285.62 680.01 285.59 679.95 285.56 679.9 285.52 679.9 285.45 679.92 285.36 679.94 285.3 679.94 285.28 679.94 285.26 679.94 285.24 679.96 285.23 679.98 285.23 680 285.23 680.01 285.24 680.02 285.27 680.09 285.38 680.07 285.4 680.06 285.43 680.07 285.46 680.07 285.49 680.12 285.62 680.15 285.63 680.26 285.65 680.3 285.68 680.33 285.68 680.35 285.63 680.32 285.64 680.31 285.63 680.26 285.62 680.24 285.59 680.21 285.56 680.22 285.5 680.19 285.5 680.18 285.54 680.16 285.54 680.14 285.49 680.14 285.43 680.15 285.39 680.14 285.34 680.2 285.33 680.29 285.36 680.3 285.38 680.3 285.41 680.3 285.42 680.3 285.43 680.3 285.45 680.33 285.46 680.34 285.48 680.37 285.5 680.41 285.52 680.43 285.54 680.46 285.56 680.49 285.58 680.5 285.56 680.45 285.5 680.48 285.5 680.52 285.52 680.57 285.55 680.64 285.57 680.68 285.56 680.64 285.55 680.6 285.53 680.53 285.47 680.55 285.45 680.5 285.41 680.43 285.32 680.39 285.3 680.33 285.29 680.27 285.3 680.22 285.27 680.16 285.28 680.11 285.26 680.11 285.24 680.14 285.2 680.17 285.19 680.24 285.2 680.32 285.16 680.42 285.23 680.46 285.23 680.46 285.23 680.47 285.24 680.48 285.24 680.49 285.25 680.48 285.2 680.48 285.15 680.51 285.11 680.56 285.1 680.66 285.13 680.71 285.13 680.7 285.1 680.73 285.08 680.75 285.08 680.77 285.08 680.74 285.04 680.69 285.03 680.58 285.04 680.59 285.02 680.58 285 680.58 284.98 680.58 284.95 680.58 284.94 680.6 284.92 680.61 284.91 680.61 284.88 680.59 284.84 680.56 284.83 680.53 284.85 680.5 284.88 680.5 284.9 680.51 284.95 680.52 284.97 680.51 284.97 680.49 285.03 680.46 285.12 680.44 285.15 680.39 285.15 680.39 285.15 680.38 285.14 680.39 285.12 680.4 285.09 680.41 285.08 680.38 285.07 680.36 285.07 680.34 285.09 680.31 285.1 680.25 285.09 680.23 285.1 680.23 285.12 680.2 285.12 680.15 285.14 680.13 285.13 680.12 285.1 680.14 285.07 680.18 285.03 680.2 285 680.21 284.98 680.21 284.96 680.21 284.94 680.21 284.9 680.21 284.88 680.24 284.86 680.21 284.84 680.19 284.79 680.18 284.74 680.18 284.7 680.21 284.67 680.25 284.64 680.27 284.61 680.21 284.6 680.19 284.61 680.17 284.62 680.16 284.63 680.14 284.64 680.12 284.65 680.12 284.68 680.14 284.71 680.14 284.73 680.11 284.76 680.07 284.76 680.03 284.75 680 284.73 680.02 284.72 680.03 284.71 680.01 284.7 679.99 284.68 679.98 284.66 679.97 284.64 679.99 284.63 680.02 284.63 680.07 284.64 680.07 284.58 680.13 284.52 680.11 284.46 680.05 284.38 680.01 284.34 679.97 284.33 679.99 284.39 679.97 284.42 679.94 284.42 679.91 284.38 679.93 284.35 679.87 284.28 679.86 284.23 679.9 284.19 679.94 284.19 679.98 284.21 680 284.25 680.03 284.23 680.04 284.2 680.06 284.14 680.08 284.17 680.08 284.2 680.07 284.25 680.06 284.27 680.06 284.29 680.06 284.3 680.07 284.3 680.08 284.3 680.09 284.31 680.1 284.34 680.1 284.36 680.11 284.37 680.14 284.38 680.16 284.39 680.2 284.39 680.21 284.4 680.2 284.43 680.2 284.46 680.22 284.49 680.24 284.51 680.3 284.39 680.3 284.34 680.3 284.29 680.29 284.28 680.25 284.27 680.23 284.26 680.22 284.24 680.2 284.18 680.12 284.1 680.11 284.06 680.11 284.04 680.12 284.03 680.13 284.02 680.14 283.99 680.11 283.98 680.1 283.96 680.11 283.92 680.08 283.93 680.05 283.93 679.98 283.94 680.01 283.9 680.05 283.9 680.1 283.89 680.14 283.88 680.12 283.88 680.12 283.87 680.11 283.87 680.09 283.86 680.1 283.84 680.11 283.82 680.13 283.81 680.14 283.8 680.15 283.78 680.15 283.76 680.14 283.74 680.14 283.72 680.14 283.68 680.16 283.64 680.21 283.57 680.22 283.58 680.26 283.62 680.3 283.63 680.32 283.63 680.31 283.61 680.24 283.53 680.23 283.5 680.24 283.44 680.28 283.36 680.34 283.22 680.39 283.15 680.46 283.12 680.55 283.1 680.62 283.1 680.65 283.07 680.68 283.03 680.73 283.02 680.76 283.06 680.81 283.11 680.84 283.12 680.81 283.02 680.79 282.97 680.75 282.95 680.44 283.01 680.33 282.94 680.33 282.86 680.34 282.84 680.39 282.81 680.43 282.77 680.48 282.72 680.54 282.68 680.62 282.63 680.69 282.55 680.7 282.47 680.73 282.45 680.75 282.43 680.77 282.42 680.85 282.41 680.93 282.42 680.97 282.46 681.01 282.47 681.03 282.51 681.04 282.49 681.05 282.45 681.05 282.42 681.02 282.4 681 282.38 680.96 282.36 680.91 282.33 680.87 282.3 680.85 282.29 680.86 282.27 680.88 282.24 680.9 282.23 680.92 282.22 681.04 282.23 681.07 282.23 681.09 282.22 681.1 282.19 681.11 282.17 681.12 282.16 681.15 282.15 681.16 282.15 681.14 282.13 681.12 282.11 681.1 282.1 681.09 282.1 680.93 282.17 680.87 282.17 680.76 282.16 680.66 282.15 680.66 282.11 680.65 282.04 680.63 282.02 680.56 282 680.47 282.02 680.46 281.94 680.66 281.91 680.77 281.9 680.88 281.89 680.91 281.87 680.95 281.88 681 281.86 681.08 281.8 681.18 281.76 681.23 281.73 681.23 281.69 681.1 281.73 681.05 281.74 681.01 281.77 680.97 281.81 680.93 281.83 680.88 281.83 680.84 281.86 680.8 281.84 680.79 281.82 680.79 281.79 680.77 281.76 680.76 281.73 680.72 281.68 680.7 281.65 680.73 281.62 680.72 281.61 680.69 281.59 680.66 281.58 680.61 281.5 680.57 281.48 680.54 281.5 680.52 281.5 680.52 281.47 680.47 281.44 680.43 281.44 680.42 281.49 680.41 281.51 680.39 281.5 680.4 281.42 680.48 281.38 680.54 281.36 680.64 281.39 680.6 281.33 680.59 281.31 680.56 281.29 680.55 281.29 680.53 281.3 680.52 281.29 680.5 281.27 680.49 281.26 680.53 281.13 680.56 281.07 680.59 281.05 680.57 281.02 680.47 280.99 680.44 280.97 680.47 280.94 680.57 280.92 680.59 280.89 680.58 280.85 680.54 280.84 680.47 280.84 680.45 280.83 680.43 280.8 680.41 280.79 680.41 280.77 680.44 280.77 680.41 280.71 680.45 280.68 680.49 280.67 680.53 280.61 680.63 280.58 680.67 280.56 680.54 280.56 680.51 280.58 680.46 280.65 680.43 280.66 680.4 280.63 680.38 280.58 680.37 280.53 680.37 280.5 680.42 280.44 680.44 280.41 680.43 280.39 680.39 280.41 680.37 280.39 680.35 280.38 680.34 280.38 680.33 280.35 680.34 280.33 680.34 280.3 680.33 280.26 680.32 280.24 680.31 280.22 680.35 280.22 680.39 280.2 680.44 280.2 680.44 280.17 680.45 280.14 680.43 280.12 680.41 280.11 680.37 280.08 680.39 280.04 680.43 280.02 680.41 279.98 680.35 279.97 680.34 279.93 680.36 279.89 680.41 279.88 680.38 279.85 680.37 279.83 680.36 279.81 680.34 279.82 680.31 279.86 680.28 279.87 680.27 279.89 680.27 279.91 680.29 279.94 680.29 279.98 680.27 280.04 680.28 280.11 680.26 280.17 680.24 280.19 680.2 280.16 680.16 280.16 680.11 280.13 680.12 279.98 680.14 279.93 680.11 279.92 680.12 279.85 680.1 279.82 680.06 279.83 680.04 279.86 680.03 279.91 680.02 279.94 679.97 279.94 679.99 279.98 680.03 280.05 680.04 280.09 680.02 280.11 680.02 280.13 680.06 280.19 680.03 280.19 680 280.21 679.97 280.23 679.95 280.26 679.95 280.24 679.95 280.22 679.95 280.2 679.94 280.19 679.97 280.12 679.91 280.01 679.92 279.96 679.91 279.88 679.87 279.91 679.81 279.98 679.76 280 679.74 280 679.72 280.01 679.69 280.01 679.67 280 679.66 279.98 679.65 279.96 679.65 279.93 679.66 279.92 679.75 279.92 679.77 279.91 679.77 279.86 679.75 279.82 679.72 279.8 679.68 279.79 679.65 279.77 679.64 279.8 679.63 279.87 679.62 279.9 679.59 279.93 679.59 279.9 679.59 279.84 679.58 279.77 679.59 279.75 679.65 279.68 679.66 279.65 679.67 279.62 679.67 279.64 679.68 279.67 679.7 279.69 679.71 279.71 679.72 279.7 679.74 279.7 679.75 279.71 679.77 279.71 679.75 279.68 679.73 279.64 679.79 279.66 679.82 279.65 679.83 279.62 679.78 279.61 679.74 279.6 679.74 279.56 679.77 279.51 679.72 279.46 679.73 279.43 679.76 279.39 679.82 279.38 679.8 279.44 679.81 279.46 679.84 279.47 679.9 279.47 679.91 279.46 679.92 279.43 679.93 279.37 679.92 279.29 679.93 279.22 679.98 279.2 679.98 279.24 679.98 279.3 679.99 279.36 680.02 279.43 680 279.46 679.98 279.48 679.97 279.51 679.97 279.53 679.98 279.57 679.98 279.58 679.97 279.6 679.93 279.62 679.92 279.63 679.93 279.65 679.93 279.68 679.95 279.69 679.96 279.68 680 279.65 680.03 279.65 680.09 279.69 680.04 279.59 680.03 279.53 680.05 279.51 680.09 279.55 680.11 279.56 680.12 279.54 680.13 279.53 680.15 279.52 680.2 279.51 680.2 279.49 680.18 279.49 680.14 279.47 680.14 279.45 680.19 279.44 680.22 279.39 680.23 279.33 680.21 279.28 680.19 279.27 680.13 279.27 680.11 279.26 680.08 279.23 680.08 279.21 680.09 279.2 680.12 279.22 680.13 279.18 680.12 279.15 680.08 279.14 680.04 279.15 680.06 279.13 680.08 279.11 680.11 279.11 680.13 279.12 680.15 279.14 680.17 279.14 680.18 279.13 680.17 279.11 680.17 279.09 680.25 279.09 680.29 279.1 680.3 279.14 680.29 279.16 680.27 279.18 680.26 279.22 680.27 279.26 680.29 279.24 680.32 279.23 680.34 279.23 680.35 279.25 680.35 279.27 680.36 279.29 680.36 279.31 680.36 279.31 680.34 279.34 680.33 279.35 680.33 279.48 680.34 279.51 680.36 279.54 680.37 279.55 680.38 279.54 680.39 279.47 680.43 279.33 680.44 279.27 680.45 279.25 680.48 279.27 680.52 279.32 680.53 279.34 680.54 279.37 680.56 279.39 680.59 279.39 680.59 279.38 680.58 279.35 680.56 279.3 680.54 279.27 680.4 279.13 680.39 279.12 680.4 279.09 680.42 279.09 680.44 279.11 680.48 279.16 680.5 279.17 680.52 279.18 680.55 279.18 680.57 279.17 680.57 279.15 680.56 279.14 680.52 279.13 680.48 279.11 680.44 279.07 680.41 279 680.41 278.96 680.45 278.96 680.49 278.97 680.52 279 680.56 279.03 680.6 279.06 680.62 279.08 680.66 279.1 680.69 279.12 680.71 279.16 680.7 279.2 680.68 279.22 680.68 279.24 680.7 279.28 680.71 279.31 680.7 279.35 680.72 279.34 680.73 279.32 680.74 279.29 680.73 279.23 680.74 279.2 680.75 279.18 680.77 279.14 680.81 279.13 680.85 279.12 680.88 279.13 680.93 279.15 680.98 279.16 681.02 279.18 681.07 279.23 681.07 279.29 681.03 279.41 681.06 279.39 681.1 279.34 681.12 279.34 681.14 279.36 681.15 279.4 681.15 279.48 681.15 279.49 681.14 279.53 681.14 279.55 681.14 279.58 681.16 279.61 681.18 279.7 681.18 279.72 681.14 279.73 681.15 279.75 681.15 279.77 681.17 279.78 681.19 279.79 681.2 279.73 681.22 279.69 681.23 279.65 681.21 279.58 681.26 279.6 681.31 279.6 681.23 279.52 681.21 279.47 681.25 279.45 681.29 279.44 681.39 279.4 681.46 279.35 681.49 279.34 681.52 279.31 681.53 279.24 681.53 279.23 681.51 279.21 681.5 279.2 681.52 279.19 681.53 279.19 681.54 279.19 681.57 279.17 681.59 279.17 681.6 279.16 681.61 279.13 681.48 279.17 681.46 279.19 681.46 279.28 681.45 279.3 681.4 279.32 681.32 279.3 681.24 279.25 681.16 279.18 681.13 279.1 681.26 279.09 681.26 279.07 681.25 279.07 681.23 279.05 681.25 279.05 681.28 279.05 681.3 279.06 681.32 279.07 681.31 279.02 681.28 278.97 681.26 278.92 681.27 278.85 681.25 278.83 681.23 278.86 681.22 278.9 681.21 278.95 681.2 279 681.18 279.01 681.16 278.99 681.12 279 681.08 279.01 680.97 278.98 680.97 278.94 680.97 278.92 680.97 278.88 680.97 278.83 680.99 278.79 681.03 278.74 681.06 278.73 681.1 278.71 681.15 278.71 681.21 278.7 681.23 278.68 681.23 278.63 681.22 278.62 681.19 278.63 681.14 278.67 681.11 278.67 681.09 278.65 681.08 278.63 681.08 278.6 681.03 278.62 680.98 278.66 680.9 278.74 680.88 278.76 680.86 278.77 680.83 278.77 680.82 278.75 680.82 278.73 680.83 278.7 680.87 278.65 680.8 278.67 680.78 278.66 680.77 278.63 680.79 278.6 680.81 278.58 680.84 278.57 680.87 278.56 680.89 278.52 680.89 278.51 680.83 278.52 680.81 278.51 680.79 278.48 680.78 278.44 680.76 278.41 680.77 278.4 680.78 278.4 680.79 278.39 680.81 278.4 680.83 278.4 680.87 278.39 680.91 278.4 680.94 278.41 680.97 278.42 681 278.41 681 278.44 681 278.47 681.01 278.49 681.03 278.5 681.06 278.49 681.07 278.47 681.08 278.41 681.12 278.35 681.15 278.36 681.18 278.38 681.23 278.37 681.22 278.35 681.21 278.33 681.19 278.32 681.17 278.31 681.14 278.31 681.12 278.29 681.09 278.29 681.06 278.29 681.04 278.29 681 278.29 680.93 278.26 680.83 278.19 680.82 278.16 680.87 278.1 680.9 278.07 680.89 278.05 680.77 278.03 680.72 278.1 680.66 278.06 680.69 278.01 680.72 277.96 680.7 277.93 680.66 277.91 680.62 277.89 680.63 277.84 680.62 277.8 680.64 277.76 680.7 277.75 680.72 277.74 680.73 277.71 680.7 277.7 680.69 277.73 680.64 277.73 680.63 277.71 680.63 277.65 680.64 277.59 680.63 277.56 680.61 277.52 680.59 277.49 680.57 277.45 680.54 277.43 680.54 277.39 680.53 277.33 680.51 277.24 680.48 277.02 680.49 276.98 680.52 276.97 680.64 277.02 680.68 277.01 680.71 276.99 680.74 276.99 680.77 277.01 680.78 277.04 680.78 277.09 680.78 277.14 680.77 277.18 680.77 277.24 680.83 277.3 680.92 277.34 680.97 277.34 680.93 277.3 680.8 277.21 680.84 277.11 680.85 277.05 680.84 277.01 680.82 276.96 680.82 276.94 680.82 276.91 680.83 276.85 680.85 276.81 680.84 276.79 680.81 276.79 680.78 276.81 680.78 276.81 Z" fill-rule="evenodd" id="South Korea" transform="translate(-676.22998046875,-274.57000732421875) "/></svg>