<svg xmlns="http://www.w3.org/2000/svg" viewBox="0 0 26.269989013671875 22.21002197265625"><path d="M 339.81 531.08 339.68 531.08 339.63 531.06 339.59 531.02 339.6 530.97 339.61 530.95 339.64 530.93 339.85 530.93 339.85 530.96 339.83 531 339.82 531.04 339.81 531.08 Z M 339.48 531.08 339.46 531.08 339.43 531.08 339.41 531.07 339.39 531.05 339.33 531.01 339.27 530.96 339.25 530.91 339.31 530.87 339.42 530.88 339.42 530.89 339.42 530.91 339.42 530.93 339.43 530.97 339.44 531.02 339.45 531.06 339.48 531.08 Z M 341.1 529.32 341.05 529.33 340.97 529.31 340.92 529.24 340.91 529.14 340.97 529.07 341.05 529.05 341.12 529.07 341.26 529.18 341.21 529.24 341.16 529.29 341.1 529.32 Z M 341.82 526.86 341.82 526.9 341.81 526.89 341.81 526.88 341.8 526.88 341.7 526.81 341.41 526.71 341.35 526.6 341.36 526.58 341.37 526.54 341.39 526.5 341.4 526.45 341.41 526.42 341.45 526.41 341.67 526.41 341.75 526.43 341.82 526.5 341.79 526.64 341.8 526.68 341.83 526.74 341.84 526.77 341.82 526.86 Z M 341.47 523.91 341.51 523.92 341.58 523.92 341.54 523.96 341.51 523.99 341.43 524.03 341.36 524.02 341.31 523.99 341.26 523.93 341.23 523.86 341.31 523.75 341.35 523.72 341.4 523.75 341.41 523.77 341.43 523.85 341.44 523.89 341.47 523.91 Z M 340.93 521.02 340.91 521.02 340.91 521.02 340.9 521.03 340.9 521.04 340.88 521.02 340.85 521.02 340.82 521 340.74 520.93 340.79 520.89 340.84 520.9 340.89 520.95 340.93 521.02 Z M 337.56 519.54 337.52 519.58 337.47 519.58 337.46 519.53 337.51 519.49 337.55 519.5 337.56 519.54 Z M 339.91 519.54 339.79 519.58 339.71 519.56 339.69 519.53 339.68 519.48 339.7 519.44 339.73 519.41 339.78 519.39 339.82 519.38 339.85 519.39 339.9 519.42 339.94 519.46 339.95 519.5 339.91 519.54 Z M 338.92 517.92 338.89 517.96 338.86 517.93 338.82 517.86 338.8 517.84 338.83 517.79 338.88 517.77 338.93 517.78 338.98 517.82 338.98 517.84 338.95 517.86 338.92 517.92 Z M 317.94 510.85 317.94 510.88 317.93 510.88 317.92 510.89 317.91 510.9 317.9 510.91 317.84 510.92 317.82 510.92 317.79 510.91 317.79 510.88 317.84 510.88 317.74 510.83 317.74 510.78 317.76 510.76 317.78 510.75 317.8 510.74 317.83 510.73 317.88 510.77 317.94 510.85 Z M 315.62 508.98 315.6 508.99 315.57 508.99 315.59 508.94 315.63 508.93 315.71 508.93 315.62 508.98 Z M 316.46 508.95 316.45 508.99 316.89 508.98 317.05 508.92 317.14 508.91 317.14 508.93 317 509.01 317.02 509.04 317 509.09 316.96 509.09 317 509.14 317.04 509.16 317.08 509.17 317.13 509.17 317.15 509.16 317.19 509.14 317.21 509.14 317.33 509.14 317.47 509.23 317.49 509.23 317.5 509.17 317.53 509.16 317.57 509.16 317.61 509.14 317.6 509.1 317.64 509.09 317.68 509.09 317.71 509.09 317.67 509.15 317.69 509.16 317.72 509.16 317.74 509.17 317.74 509.21 317.72 509.24 317.67 509.27 317.68 509.31 317.68 509.34 317.67 509.37 317.65 509.4 317.71 509.4 317.76 509.35 317.8 509.28 317.85 509.22 317.9 509.19 317.97 509.17 318.03 509.18 318.05 509.25 317.95 509.34 317.91 509.39 317.94 509.43 317.99 509.42 318.17 509.3 318.16 509.29 318.14 509.26 318.12 509.25 318.17 509.23 318.22 509.24 318.34 509.27 318.4 509.31 318.41 509.32 318.42 509.36 318.39 509.41 318.4 509.45 318.39 509.48 318.4 509.51 318.42 509.52 318.45 509.5 318.45 509.48 318.46 509.38 318.47 509.35 318.53 509.33 318.75 509.37 318.73 509.4 318.77 509.4 318.8 509.41 318.82 509.43 318.82 509.45 318.8 509.48 318.8 509.5 318.79 509.53 318.75 509.51 318.71 509.5 318.68 509.52 318.64 509.55 318.7 509.57 318.73 509.58 318.72 509.61 318.69 509.62 318.64 509.62 318.61 509.63 318.67 509.67 318.74 509.66 318.87 509.61 319 509.58 319.02 509.6 319.04 509.64 319.06 509.66 319.1 509.63 319.11 509.66 319.11 509.67 319.11 509.69 319.1 509.71 319.06 509.68 319.03 509.68 318.96 509.71 318.93 509.74 318.74 509.88 318.73 509.88 318.71 509.89 318.7 509.92 318.71 509.93 318.72 509.96 318.72 509.98 318.7 510.02 318.76 510.03 318.8 510.02 318.84 510 318.99 509.87 319.05 509.85 319.08 509.89 319.11 509.86 319.14 509.88 319.16 509.92 319.15 509.98 319.13 509.99 319.11 509.99 319.09 510 319.08 510.03 319.09 510.06 319.1 510.07 319.11 510.08 319.1 510.13 319.12 510.16 319.12 510.2 319.11 510.24 319.1 510.28 319.18 510.18 319.23 510.15 319.27 510.16 319.33 510.27 319.37 510.32 319.42 510.33 319.45 510.3 319.45 510.25 319.43 510.19 319.42 510.11 319.41 510.08 319.36 510.02 319.34 509.99 319.33 509.97 319.33 509.94 319.33 509.89 319.47 509.95 319.54 509.99 319.55 510.04 319.58 510.04 319.6 510.04 319.62 510.05 319.63 510.09 319.63 510.13 319.64 510.16 319.64 510.18 319.61 510.2 319.68 510.25 319.68 510.27 319.65 510.3 319.63 510.37 319.66 510.39 319.84 510.38 319.84 510.43 319.83 510.48 319.82 510.52 319.78 510.54 319.79 510.58 319.81 510.6 319.83 510.61 319.86 510.62 319.86 510.65 319.88 510.68 319.9 510.69 319.93 510.7 319.95 510.69 319.98 510.67 319.99 510.68 320.03 510.72 320.09 510.72 320.11 510.73 320.12 510.76 320.12 510.81 320.14 510.83 320.16 510.85 320.13 510.88 320.08 510.92 319.98 511.04 320 511.06 320.05 511.12 320.07 511.14 320.1 511.15 320.31 511.14 320.34 511.12 320.4 511.06 320.43 511.05 320.45 511.06 320.44 511.1 320.4 511.22 320.35 511.31 320.34 511.32 320.4 511.5 320.4 511.58 320.34 511.59 320.39 511.69 320.48 511.77 320.59 511.83 320.68 511.85 320.68 511.88 320.65 511.89 320.62 511.91 320.59 511.93 320.58 511.97 320.57 511.98 320.52 511.97 320.45 511.95 320.41 512.03 320.34 512.05 320.27 512.04 320.21 512.01 320.1 511.92 320.03 511.89 319.96 511.88 319.99 511.92 320.01 511.95 320.05 511.97 320.08 511.98 320.1 511.99 320.15 512.06 320.18 512.08 320.2 512.1 320.22 512.1 320.28 512.11 320.3 512.12 320.35 512.17 320.37 512.19 320.37 512.21 320.35 512.22 320.32 512.22 320.3 512.21 320.28 512.19 320.29 512.21 320.29 512.25 320.3 512.27 320.23 512.27 320.21 512.25 320.19 512.21 320.18 512.26 320.18 512.28 320.19 512.32 320.16 512.32 320.12 512.3 320.09 512.29 320.08 512.31 320.06 512.33 320.04 512.35 319.97 512.35 319.94 512.34 319.92 512.31 319.9 512.27 319.92 512.27 319.94 512.26 319.96 512.24 319.87 512.19 319.77 512.06 319.73 512.04 319.68 511.99 319.6 511.9 319.59 511.85 319.57 511.85 319.54 511.8 319.55 511.74 319.53 511.67 319.51 511.59 319.43 511.45 319.27 511.22 319.23 511.19 319.21 511.19 319.17 511.18 319.14 511.16 319.13 511.13 319.14 511.09 319.17 511.04 319.17 511.01 319.15 510.96 319.09 510.91 319.04 510.87 319 510.85 318.94 510.85 318.91 510.86 318.87 510.92 318.84 510.93 318.81 510.92 318.78 510.91 318.74 510.86 318.71 510.82 318.68 510.78 318.46 510.67 318.44 510.67 318.42 510.67 318.4 510.67 318.4 510.66 318.4 510.64 318.41 510.6 318.41 510.59 318.41 510.57 318.43 510.54 318.43 510.53 318.43 510.5 318.42 510.5 318.41 510.5 318.4 510.49 318.36 510.45 318.32 510.42 318.28 510.41 318.23 510.41 318.25 510.38 318.2 510.36 318.21 510.32 318.24 510.3 318.26 510.3 318.29 510.31 318.24 510.24 318.15 510.24 317.98 510.28 317.95 510.27 317.87 510.23 317.82 510.19 317.8 510.17 317.79 510.15 317.79 510.13 317.8 510.09 317.81 510.06 317.78 510.04 317.76 510.04 317.72 510.01 317.69 509.98 317.66 509.96 317.64 509.95 317.6 509.96 317.58 509.96 317.54 509.93 317.49 509.92 317.45 509.92 317.38 509.96 317.25 509.97 317.21 509.99 317.17 510.02 317.15 510 317.14 509.98 317.11 509.98 317.09 509.99 317.07 509.94 317.08 509.91 317.24 509.84 317.28 509.84 317.23 509.78 317.11 509.73 317.08 509.66 317.17 509.66 317.27 509.63 317.46 509.53 317.4 509.51 317.2 509.51 317.12 509.53 317.09 509.52 317.04 509.49 317.02 509.48 316.81 509.48 316.76 509.49 316.74 509.53 316.75 509.56 316.8 509.58 316.76 509.6 316.59 509.64 316.5 509.63 316.45 509.63 316.46 509.62 316.48 509.59 316.48 509.58 316.46 509.56 316.38 509.48 316.46 509.43 316.5 509.39 316.53 509.35 316.49 509.34 316.42 509.34 316.38 509.32 316.52 509.25 316.58 509.2 316.62 509.12 316.36 509.12 316.23 509.14 316.19 509.13 316.15 509.1 316.12 509.09 316 509.14 315.93 509.15 315.87 509.1 315.83 509.08 315.74 509.17 315.69 509.17 315.7 509.13 315.71 509.1 315.73 509.07 315.76 509.06 315.74 509.03 315.73 509.02 315.72 509.01 315.69 509.01 315.73 508.99 315.85 508.99 315.96 508.94 316.01 508.93 316.05 508.95 316.13 509 316.17 509.01 316.21 509 316.26 508.98 316.31 508.95 316.35 508.91 316.35 508.87 316.39 508.87 316.46 508.89 316.5 508.91 316.48 508.92 316.47 508.93 316.46 508.95 Z" fill-rule="evenodd" id="South Georgia and South Sandwich Islands" transform="translate(-315.57000732421875,-508.8699951171875) "/></svg>