<svg xmlns="http://www.w3.org/2000/svg" viewBox="0 0 49.879974365234375 44.189971923828125"><path d="M 360.35 303.19 360.26 303.33 360.26 303.34 360.26 303.36 360.26 303.37 360.25 303.39 360.24 303.39 360.23 303.4 360.22 303.41 360.22 303.42 360.21 303.43 360.19 303.45 360.18 303.47 360.17 303.49 360.16 303.55 360.15 303.58 360.11 303.58 360.07 303.55 360.03 303.51 360.01 303.48 359.98 303.46 359.82 303.43 359.78 303.41 359.74 303.38 359.73 303.29 359.79 303.26 359.88 303.27 359.97 303.29 360.01 303.27 360.09 303.19 360.11 303.16 360.11 303.14 360.12 303.13 360.17 303.1 360.25 303.05 360.29 303.06 360.33 303.08 360.36 303.12 360.37 303.15 360.35 303.19 Z M 365.83 302.33 365.83 302.4 365.84 302.5 365.85 302.52 365.85 302.55 365.86 302.58 365.88 302.61 365.9 302.62 365.94 302.65 365.94 302.66 365.94 302.7 365.92 302.75 365.92 302.79 365.94 302.83 365.94 302.85 365.92 302.86 365.9 302.88 365.88 302.94 365.9 302.97 365.92 303.02 365.91 303.05 365.88 303.07 365.85 303.09 365.78 303.18 365.75 303.21 365.59 303.26 365.56 303.27 365.55 303.27 365.5 303.34 365.47 303.35 365.45 303.34 365.43 303.32 365.4 303.31 365.31 303.3 365.27 303.29 365.23 303.28 365.11 303.17 365.09 303.15 365.08 303.13 365.04 303.1 365.02 303.09 365.01 303.07 364.94 302.93 364.93 302.88 364.94 302.83 364.93 302.8 364.93 302.76 364.93 302.73 364.94 302.7 364.96 302.67 365.05 302.63 365.09 302.6 365.14 302.54 365.18 302.48 365.17 302.42 365.19 302.4 365.2 302.35 365.2 302.3 365.18 302.27 365.21 302.27 365.23 302.27 365.26 302.27 365.28 302.28 365.31 302.28 365.43 302.32 365.59 302.32 365.73 302.35 365.79 302.33 365.78 302.25 365.84 302.24 365.85 302.24 365.86 302.27 365.86 302.29 365.84 302.3 365.83 302.33 Z M 361.86 302.62 361.8 302.64 361.75 302.62 361.63 302.55 361.56 302.44 361.56 302.35 361.57 302.26 361.63 302.17 361.74 302.14 361.85 302.17 361.94 302.23 362.06 302.32 362.09 302.38 362.1 302.43 362.06 302.48 362.02 302.51 361.95 302.57 361.91 302.61 361.86 302.62 Z M 364.27 301.25 364.25 301.32 364.18 301.37 364.02 301.46 363.98 301.53 363.94 301.58 363.88 301.64 363.82 301.69 363.78 301.71 363.75 301.73 363.72 301.78 363.72 301.83 363.73 301.87 363.74 301.9 363.73 301.92 363.71 301.94 363.69 301.96 363.68 302.02 363.6 302.16 363.58 302.27 363.59 302.31 363.56 302.35 363.52 302.4 363.38 302.54 363.34 302.59 363.32 302.63 363.25 302.61 363.13 302.66 363.08 302.68 363.03 302.69 363 302.69 362.97 302.65 362.97 302.63 362.97 302.6 362.95 302.59 362.94 302.57 362.93 302.55 362.92 302.51 362.92 302.49 362.89 302.45 362.8 302.37 362.79 302.33 362.77 302.27 362.74 302.23 362.7 302.2 362.68 302.16 362.66 302.05 362.66 302.03 362.62 301.98 362.6 301.92 362.52 301.85 362.5 301.8 362.56 301.76 362.68 301.71 362.72 301.73 362.77 301.76 362.8 301.77 362.83 301.77 362.89 301.75 362.94 301.73 363.01 301.7 363.06 301.68 363.1 301.69 363.19 301.69 363.24 301.68 363.28 301.65 363.34 301.64 363.36 301.63 363.41 301.62 363.45 301.59 363.56 301.5 363.6 301.46 363.62 301.44 363.62 301.4 363.63 301.38 363.67 301.36 363.69 301.35 363.73 301.33 363.78 301.32 363.82 301.3 363.83 301.25 363.87 301.27 364.08 301.27 364.22 301.23 364.27 301.25 Z M 368.42 302.36 368.37 302.45 368.3 302.52 368.21 302.56 368.15 302.56 368.06 302.52 368.02 302.51 367.87 302.52 367.84 302.51 367.85 302.5 367.86 302.47 367.87 302.44 367.87 302.43 367.88 302.43 367.96 302.44 368 302.43 368.08 302.41 368.21 302.35 368.37 302.25 368.43 302.18 368.47 302.14 368.49 302.1 368.51 302.05 368.52 301.93 368.54 301.88 368.59 301.8 368.64 301.63 368.65 301.6 368.68 301.58 368.75 301.47 368.8 301.34 368.89 301.22 368.91 301.09 368.94 301.01 368.96 300.92 368.97 300.89 368.99 300.86 369.03 300.84 369.11 300.81 369.19 300.8 369.27 300.82 369.33 300.89 369.36 300.98 369.36 301.09 369.35 301.31 369.33 301.36 369.29 301.45 369.28 301.49 369.28 301.57 369.28 301.6 369.29 301.61 369.31 301.65 369.31 301.67 369.3 301.69 369.26 301.73 369.26 301.74 369.25 301.77 369.25 301.79 369.24 301.81 369.21 301.87 369.19 301.91 369.16 301.99 369.11 302.08 369.04 302.12 368.81 302.15 368.7 302.18 368.63 302.24 368.54 302.26 368.5 302.28 368.42 302.36 Z M 360.4 300.58 360.45 300.59 360.54 300.56 360.58 300.57 360.62 300.61 360.64 300.63 360.64 300.68 360.65 300.74 360.67 300.79 360.72 300.81 360.72 300.86 360.65 300.93 360.62 300.99 360.64 301.04 360.66 301.13 360.65 301.18 360.63 301.24 360.58 301.31 360.54 301.41 360.5 301.5 360.47 301.55 360.46 301.55 360.45 301.52 360.4 301.5 360.38 301.45 360.37 301.32 360.34 301.29 360.32 301.25 360.28 301.19 360.27 301.14 360.18 301 360.17 300.94 360.16 300.9 360.15 300.86 360.12 300.84 360.1 300.81 360.11 300.73 360.17 300.65 360.24 300.58 360.3 300.54 360.34 300.57 360.4 300.58 Z M 370.17 299.81 370.16 299.84 370.17 299.88 370.18 299.92 370.18 299.96 370.18 299.98 370.16 300.01 370.15 300.03 370.15 300.05 370.15 300.1 370.15 300.12 370.11 300.18 370.05 300.23 369.98 300.27 369.88 300.3 369.85 300.32 369.84 300.35 369.81 300.36 369.77 300.36 369.72 300.37 369.69 300.38 369.61 300.39 369.55 300.44 369.5 300.5 369.47 300.58 369.45 300.58 369.43 300.55 369.38 300.53 369.28 300.53 369.26 300.52 369.25 300.49 369.24 300.46 369.25 300.44 369.27 300.44 369.29 300.42 369.31 300.38 369.32 300.33 369.33 300.21 369.34 300.18 369.41 300.06 369.45 300.01 369.48 299.99 369.52 299.97 369.56 299.96 369.61 299.96 369.65 299.95 369.73 299.88 369.77 299.86 369.81 299.84 369.85 299.84 369.96 299.84 369.99 299.83 370.02 299.8 370.04 299.74 370.07 299.65 370.09 299.61 370.11 299.57 370.15 299.56 370.19 299.59 370.26 299.65 370.24 299.7 370.23 299.74 370.21 299.78 370.17 299.81 Z M 370.09 299.57 370.04 299.61 369.98 299.6 369.98 299.58 370.02 299.54 370.04 299.49 370.06 299.45 370.1 299.46 370.12 299.51 370.09 299.57 Z M 390.48 284.1 390.47 284.1 390.47 284.1 390.47 284.1 390.46 284.1 390.47 284.1 390.47 284.1 390.47 284.1 390.48 284.1 Z M 394.62 284.07 394.61 284.08 394.6 284.08 394.6 284.07 394.61 284.06 394.62 284.07 Z M 391.35 283.98 391.35 283.99 391.35 283.98 391.35 283.98 391.35 283.98 391.35 283.98 Z M 391.36 283.98 391.36 283.98 391.35 283.98 391.35 283.98 391.35 283.98 391.35 283.98 391.35 283.98 391.36 283.98 Z M 393.54 283.82 393.48 283.84 393.43 283.79 393.42 283.72 393.47 283.67 393.52 283.79 393.54 283.82 393.54 283.82 393.54 283.82 Z M 387.99 282.09 387.99 282.1 387.99 282.1 387.98 282.09 387.99 282.08 387.99 282.09 Z M 388.16 282.27 388.11 282.23 388.08 282.18 388.05 282.12 388.03 282.06 388.03 282.06 388.06 282.06 388.1 282.06 388.15 282.09 388.19 282.12 388.23 282.13 388.29 282.1 388.27 282.15 388.17 282.23 388.16 282.27 Z M 398.36 277.16 398.39 277.26 398.34 277.21 398.33 277.13 398.34 277.04 398.33 276.96 398.34 276.96 398.34 276.96 398.34 276.97 398.34 276.98 398.35 276.99 398.37 277.02 398.38 277.03 398.36 277.1 398.36 277.16 Z M 403.19 274.22 403.29 274.38 403.38 274.42 403.47 274.38 403.51 274.43 403.51 274.49 403.45 274.5 403.38 274.5 403.27 274.43 403.23 274.41 403.19 274.44 403.17 274.46 403.13 274.51 403.1 274.53 403.07 274.52 403.08 274.47 403.07 274.44 403.07 274.42 403.08 274.4 403.09 274.37 403.09 274.35 403.07 274.34 403.07 274.33 403.08 274.31 403.11 274.27 403.12 274.29 403.14 274.28 403.17 274.25 403.17 274.2 403.18 274.2 403.18 274.21 403.18 274.21 403.19 274.22 Z M 403.5 273.21 403.52 273.22 403.54 273.23 403.56 273.25 403.55 273.28 403.56 273.33 403.6 273.43 403.56 273.43 403.53 273.45 403.51 273.49 403.51 273.53 403.49 273.55 403.42 273.6 403.35 273.71 403.32 273.73 403.26 273.76 403.23 273.79 403.23 273.78 403.21 273.77 403.2 273.76 403.17 273.8 403.14 273.82 403.11 273.92 403.11 273.99 403.04 273.99 403.02 273.93 402.98 273.9 402.95 273.91 402.93 273.91 402.92 273.91 402.92 273.91 402.9 273.91 402.88 273.88 402.85 273.87 402.81 273.88 402.79 273.91 402.72 273.87 402.7 273.84 402.69 273.78 402.71 273.72 402.72 273.67 402.7 273.64 402.72 273.62 402.74 273.61 402.77 273.61 402.79 273.62 402.81 273.61 402.83 273.6 402.88 273.6 402.86 273.48 402.87 273.42 402.89 273.39 402.92 273.37 402.95 273.35 403.01 273.29 403.02 273.29 403.04 273.31 403.09 273.27 403.11 273.29 403.15 273.25 403.22 273.22 403.28 273.2 403.32 273.21 403.34 273.19 403.38 273.17 403.41 273.17 403.44 273.2 403.46 273.21 403.5 273.21 Z M 406.61 273.11 406.57 273.18 406.5 273.17 406.46 273.08 406.52 273.02 406.61 272.98 406.62 273.04 406.61 273.11 Z M 407.05 270.74 407.08 270.78 407.09 270.77 407.1 270.76 407.12 270.78 407.1 270.8 407.02 270.83 406.99 270.84 406.96 270.86 406.93 270.89 406.91 270.91 406.88 270.9 406.86 270.9 406.86 270.99 406.94 271.01 407.11 270.96 407.11 270.98 407.09 270.99 407.08 271.01 407.09 271.03 407.08 271.05 407.06 271.07 407.05 271.08 407.02 271.09 406.95 271.11 406.93 271.13 406.93 271.19 406.95 271.26 407.01 271.31 407.08 271.35 407.15 271.37 407.3 271.37 407.34 271.35 407.4 271.29 407.44 271.27 407.5 271.29 407.62 271.36 407.7 271.37 407.69 271.4 407.69 271.42 407.7 271.44 407.7 271.47 407.69 271.48 407.68 271.49 407.67 271.51 407.69 271.55 407.66 271.63 407.63 271.67 407.6 271.68 407.57 271.7 407.54 271.73 407.53 271.78 407.55 271.82 407.46 271.9 407.37 272.02 407.3 272.15 407.28 272.31 407.25 272.3 407.25 272.29 407.21 272.41 407.14 272.49 406.94 272.61 406.85 272.68 406.83 272.71 406.83 272.72 406.81 272.74 406.78 272.74 406.78 272.73 406.72 272.64 406.7 272.63 406.67 272.62 406.65 272.61 406.64 272.58 406.64 272.55 406.63 272.52 406.62 272.51 406.59 272.5 406.56 272.48 406.54 272.47 406.51 272.47 406.48 272.49 406.46 272.49 406.26 272.47 406.18 272.44 406.12 272.37 406.1 272.21 406.07 272.19 406.07 272.15 406.11 272.08 406.08 272.02 406.02 271.96 405.94 271.92 405.89 271.9 405.84 271.92 405.69 272 405.67 272.03 405.64 272.11 405.59 272.16 405.53 272.17 405.48 272.1 405.48 272.09 405.47 272.07 405.48 272.05 405.5 272.04 405.44 271.98 405.42 272 405.4 272.01 405.39 272.01 405.38 271.98 405.32 272.01 405.3 272.02 405.28 272 405.26 271.95 405.22 271.92 405.21 271.87 405.21 271.81 405.23 271.76 405.39 271.67 405.43 271.65 405.47 271.63 405.58 271.51 405.61 271.49 405.66 271.49 405.7 271.47 405.73 271.44 405.8 271.37 405.81 271.36 405.83 271.32 405.83 271.31 405.84 271.31 405.87 271.31 405.88 271.31 405.93 271.26 405.94 271.24 405.95 271.24 405.99 271.18 406.01 271.17 406.02 271.17 406.09 271.13 406.12 271.11 406.15 271.08 406.17 271.06 406.21 271.05 406.21 271.05 406.23 271.02 406.24 271.02 406.28 271.02 406.3 271.02 406.37 270.99 406.5 270.9 406.57 270.88 406.69 270.87 406.82 270.83 407.05 270.74 Z M 409.13 270.48 409.18 270.52 409.17 270.53 409.17 270.55 409.17 270.57 409.18 270.58 409.2 270.57 409.21 270.55 409.23 270.52 409.23 270.48 409.24 270.46 409.26 270.48 409.25 270.52 409.26 270.54 409.32 270.58 409.34 270.6 409.35 270.61 409.37 270.64 409.38 270.64 409.42 270.65 409.43 270.66 409.45 270.69 409.47 270.74 409.47 270.78 409.43 270.79 409.47 270.81 409.5 270.81 409.53 270.82 409.54 270.86 409.55 270.91 409.6 270.99 409.61 271.03 409.6 271.03 409.59 271.01 409.58 271 409.56 270.98 409.54 270.97 409.53 271.16 409.42 271.18 409.26 271.1 408.9 270.86 408.83 270.83 408.74 270.83 408.58 270.86 408.49 270.83 408.5 270.8 408.5 270.76 408.51 270.72 408.54 270.7 408.52 270.68 408.47 270.66 408.45 270.65 408.43 270.61 408.43 270.6 408.44 270.58 408.44 270.55 408.47 270.51 408.63 270.48 408.68 270.5 408.89 270.48 408.98 270.48 409.01 270.48 409.04 270.46 409.08 270.43 409.1 270.42 409.11 270.46 409.13 270.48 Z M 404.4 263.48 404.4 263.48 404.35 263.48 404.32 263.46 404.31 263.42 404.34 263.36 404.36 263.35 404.39 263.38 404.41 263.43 404.43 263.48 404.42 263.48 404.4 263.48 Z M 396.02 260.64 396.02 260.67 396.02 260.74 396.02 260.77 396.08 260.8 396.11 260.84 396.12 260.9 396.12 260.91 396.13 260.93 396.15 260.92 396.18 260.91 396.22 260.9 396.27 260.88 396.29 260.89 396.33 260.91 396.35 260.92 396.35 260.94 396.35 260.95 396.35 260.98 396.37 261.03 396.38 261.05 396.4 261.06 396.43 261.06 396.46 261.06 396.48 261.04 396.49 261.02 396.51 260.97 396.54 260.95 396.59 260.95 396.66 260.97 396.75 261.02 396.77 261.01 396.8 261 396.83 261 396.89 261.07 396.9 261.18 396.87 261.3 396.84 261.4 396.81 261.43 396.72 261.53 396.7 261.56 396.73 261.62 396.77 261.67 396.82 261.7 396.87 261.71 396.93 261.72 396.97 261.71 396.99 261.66 397 261.59 397.01 261.52 397.05 261.48 397.1 261.46 397.15 261.48 397.1 261.52 397.08 261.56 397.09 261.6 397.13 261.64 397.17 261.66 397.3 261.69 397.38 261.73 397.45 261.79 397.53 261.78 397.55 261.79 397.59 261.81 397.61 261.83 397.68 261.84 397.72 261.85 397.75 261.88 397.82 261.94 397.91 261.96 398.09 261.98 398.26 261.95 398.32 261.97 398.35 262.05 398.36 262.07 398.36 262.1 398.35 262.11 398.35 262.13 398.36 262.15 398.38 262.18 398.4 262.18 398.43 262.17 398.45 262.18 398.52 262.23 398.56 262.26 398.65 262.37 398.65 262.39 398.65 262.4 398.65 262.41 398.66 262.42 398.7 262.42 398.71 262.42 398.72 262.44 398.72 262.46 398.72 262.48 398.74 262.49 398.76 262.49 398.79 262.46 398.81 262.46 398.82 262.38 398.87 262.39 398.99 262.44 399.06 262.44 399.11 262.4 399.22 262.32 399.24 262.34 399.26 262.33 399.27 262.31 399.28 262.28 399.32 262.31 399.32 262.32 399.45 262.39 399.48 262.45 399.54 262.46 399.6 262.44 399.64 262.42 399.64 262.47 399.65 262.53 399.68 262.57 399.71 262.6 399.73 262.62 399.73 262.64 399.74 262.66 399.76 262.67 399.79 262.68 399.8 262.69 399.81 262.71 399.83 262.72 399.91 262.75 399.99 262.75 400.16 262.68 400.3 262.66 400.34 262.64 400.38 262.63 400.49 262.66 400.53 262.68 400.58 262.76 400.61 262.8 400.64 262.8 400.71 262.71 400.74 262.67 400.79 262.66 400.85 262.71 400.85 262.72 400.85 262.73 400.85 262.74 400.86 262.75 400.91 262.76 400.95 262.76 401.04 262.74 401.07 262.75 401.35 262.75 401.43 262.76 401.46 262.75 401.47 262.72 401.48 262.71 401.48 262.66 401.46 262.62 401.44 262.59 401.4 262.57 401.42 262.54 401.43 262.53 401.44 262.52 401.42 262.48 401.45 262.4 401.44 262.34 401.45 262.29 401.51 262.27 401.57 262.27 401.61 262.27 401.68 262.3 401.72 262.31 401.76 262.31 401.8 262.31 401.9 262.37 401.96 262.4 401.98 262.41 402.02 262.45 402.04 262.46 402.06 262.44 402.08 262.43 402.11 262.42 402.13 262.43 402.16 262.46 402.18 262.47 402.37 262.48 402.41 262.49 402.45 262.53 402.48 262.57 402.49 262.62 402.51 262.66 402.55 262.69 402.58 262.69 402.65 262.67 402.92 262.67 402.98 262.68 402.97 262.73 402.98 262.74 403 262.74 403.02 262.75 403.06 262.82 403.1 262.88 403.14 262.98 403.17 263.02 403.16 263.04 403.15 263.07 403.14 263.1 403.16 263.11 403.16 263.12 403.13 263.19 403.12 263.22 403.17 263.21 403.21 263.25 403.21 263.3 403.17 263.33 403.16 263.33 403.12 263.35 403.18 263.45 403.18 263.49 403.21 263.5 403.34 263.52 403.36 263.52 403.39 263.51 403.4 263.49 403.41 263.47 403.42 263.46 403.56 263.44 403.63 263.41 403.66 263.33 403.67 263.32 403.67 263.32 403.68 263.32 403.68 263.33 403.71 263.34 403.74 263.34 403.76 263.33 403.78 263.3 403.79 263.31 403.79 263.31 403.8 263.32 403.8 263.33 403.84 263.34 403.97 263.36 404.02 263.38 404.14 263.47 404.2 263.48 404.24 263.48 404.27 263.5 404.3 263.55 404.33 263.66 404.35 263.71 404.4 263.74 404.42 263.76 404.45 263.77 404.51 263.76 404.55 263.75 404.57 263.73 404.61 263.69 404.66 263.65 404.67 263.64 404.69 263.59 404.7 263.58 404.74 263.56 404.84 263.57 404.98 263.53 405.05 263.52 405.11 263.56 405.14 263.58 405.27 263.64 405.33 263.66 405.37 263.66 405.39 263.71 405.42 263.75 405.46 263.79 405.5 263.8 405.55 263.82 405.57 263.83 405.6 263.83 405.61 263.82 405.63 263.77 405.65 263.75 405.69 263.75 405.79 263.78 405.84 263.79 405.9 263.79 405.9 263.78 405.87 263.75 405.85 263.69 405.87 263.66 405.96 263.59 406 263.57 406.05 263.57 406.14 263.58 406.18 263.57 406.22 263.55 406.28 263.48 406.32 263.46 406.36 263.46 406.39 263.46 406.43 263.45 406.5 263.4 406.57 263.43 406.61 263.4 406.64 263.41 406.7 263.41 406.72 263.41 406.73 263.44 406.75 263.47 406.77 263.5 406.8 263.51 406.84 263.53 406.9 263.53 406.96 263.53 407.05 263.51 407.05 263.55 407.03 263.62 407.04 263.67 407.04 263.72 407.07 263.76 407.1 263.79 407.15 263.78 407.2 263.78 407.23 263.82 407.25 263.82 407.27 263.8 407.3 263.8 407.35 263.84 407.3 263.94 407.29 263.97 407.29 264.02 407.27 264.04 407.25 264.06 407.23 264.09 407.2 264.07 407.12 264.09 407.05 264.06 407.03 264.03 406.99 264.04 406.94 264.09 406.91 264.15 406.91 264.26 406.91 264.33 406.92 264.38 406.96 264.42 407.03 264.47 407.08 264.52 407.13 264.6 407.12 264.63 407.09 264.66 407.08 264.7 407.1 264.75 407.11 264.81 407.11 264.83 407.12 264.85 407.16 264.88 407.17 264.9 407.16 264.96 407.11 265.06 407.08 265.13 407.05 265.17 406.98 265.26 406.91 265.25 406.82 265.31 406.8 265.4 406.74 265.43 406.54 265.59 406.5 265.65 406.43 265.67 406.38 265.68 406.32 265.7 406.3 265.71 406.29 265.71 406.25 265.74 406.24 265.76 406.24 265.78 406.21 265.78 406.19 265.78 406.16 265.85 405.88 265.97 405.43 266.18 405.38 266.22 405.26 266.31 405.09 266.38 405.03 266.43 404.97 266.51 404.86 266.7 404.8 266.79 404.72 266.86 404.57 266.94 404.48 266.97 404.33 266.98 404.18 267.02 404.13 267.05 404.11 267.06 404.03 267.05 403.6 267.18 403.41 267.2 402.86 267.41 402.7 267.44 402.68 267.46 402.64 267.52 402.63 267.55 402.62 267.56 402.6 267.58 402.55 267.54 402.53 267.54 402.43 267.54 402.34 267.56 402.26 267.6 402.2 267.63 401.95 267.88 401.82 268.04 401.58 268.29 401.54 268.37 401.6 268.41 401.66 268.43 401.69 268.43 401.7 268.42 401.69 268.39 401.66 268.37 401.7 268.38 401.73 268.39 401.76 268.42 401.81 268.48 401.87 268.53 401.89 268.53 401.94 268.54 401.93 268.6 401.9 268.66 401.88 268.69 401.74 268.74 401.68 268.79 401.57 268.96 401.5 269.01 401.44 269.04 401.37 269.05 401.31 268.97 401.42 268.95 401.47 268.99 401.54 268.94 401.62 268.82 401.58 268.81 401.51 268.81 401.33 268.87 401.29 268.9 401.25 268.94 401.22 268.99 401.15 269.16 401.11 269.25 401.07 269.31 401.03 269.35 401 269.4 400.99 269.47 400.93 269.53 400.78 269.83 400.75 269.86 400.69 269.91 400.66 269.94 400.59 270.04 400.46 270.16 400.32 270.42 400.26 270.49 400.15 270.56 400.09 270.64 399.99 270.85 399.94 270.93 399.8 271.09 399.57 271.47 399.56 271.5 399.55 271.57 399.54 271.62 399.51 271.65 399.46 271.71 399.43 271.75 399.4 271.8 399.39 271.85 399.38 271.89 399.31 271.99 399.28 272.04 399.27 272.14 399.27 272.28 399.29 272.4 399.33 272.59 399.47 272.9 399.5 272.94 399.52 272.99 399.49 273.01 399.46 273.04 399.48 273.09 399.5 273.19 399.53 273.29 399.59 273.39 399.65 273.5 399.73 273.65 399.77 273.69 399.85 273.76 399.93 273.84 399.98 273.88 400.04 273.89 400.14 273.9 400.25 273.94 400.34 273.99 400.41 274.07 400.4 274.07 400.38 274.09 400.41 274.1 400.42 274.12 400.48 274.17 400.5 274.16 400.52 274.2 400.52 274.24 400.5 274.26 400.46 274.26 400.43 274.27 400.39 274.29 400.36 274.32 400.33 274.38 400.33 274.39 400.32 274.4 400.28 274.4 400.26 274.41 400.23 274.44 400.21 274.45 400.18 274.47 400.16 274.51 400.18 274.56 400.13 274.54 400.1 274.55 400.07 274.57 400.03 274.57 399.97 274.57 399.94 274.58 399.9 274.61 399.88 274.66 399.88 274.7 399.88 274.74 399.87 274.78 399.83 274.81 399.8 274.83 399.71 274.83 399.61 274.85 399.55 274.87 399.48 274.92 399.27 275.01 399.24 275.03 399.22 275.07 399.2 275.08 399.12 275.17 399.1 275.21 399.09 275.26 399.09 275.29 399.08 275.31 399.01 275.31 398.98 275.32 398.96 275.34 398.95 275.38 398.87 275.38 398.85 275.49 398.88 275.75 398.86 275.78 398.82 275.79 398.74 275.79 398.69 275.8 398.65 275.83 398.62 275.87 398.59 275.92 398.58 275.96 398.57 276 398.56 276.12 398.55 276.31 398.55 276.36 398.53 276.38 398.47 276.41 398.43 276.45 398.41 276.49 398.32 276.71 398.31 276.76 398.31 276.76 398.32 276.87 398.31 276.9 398.25 276.83 398.2 276.97 398.17 277 398.12 277.01 398.1 277.05 398.11 277.1 398.18 277.23 398.2 277.26 398.28 277.31 398.33 277.33 398.37 277.34 398.39 277.3 398.43 277.33 398.45 277.36 398.44 277.39 398.4 277.42 398.39 277.44 398.37 277.45 398.35 277.45 398.33 277.43 398.31 277.45 398.25 277.47 398.21 277.48 398.15 277.51 398.06 277.51 398.03 277.52 398 277.53 397.95 277.57 397.93 277.56 397.84 277.51 397.77 277.5 397.63 277.49 397.59 277.5 397.55 277.51 397.53 277.53 397.52 277.56 397.52 277.59 397.55 277.64 397.48 277.62 397.41 277.6 397.4 277.57 397.39 277.55 397.34 277.54 397.28 277.51 397.25 277.5 397.21 277.54 397.2 277.56 397.14 277.56 397.07 277.55 397 277.59 396.97 277.61 396.87 277.71 396.83 277.73 396.79 277.74 396.77 277.75 396.76 277.76 396.74 277.77 396.73 277.79 396.73 277.8 396.7 277.89 396.7 277.91 396.68 277.93 396.67 277.92 396.66 277.91 396.64 277.91 396.62 277.92 396.58 277.96 396.56 277.97 396.52 277.98 396.41 278.02 396.36 278.06 396.35 278.09 396.34 278.11 396.3 278.1 396.28 278.13 396.26 278.18 396.23 278.23 396.17 278.33 396.04 278.46 395.98 278.54 395.94 278.65 395.93 278.75 395.9 278.82 395.89 278.9 395.82 279.07 395.77 279.14 395.77 279.18 395.78 279.2 395.79 279.22 395.79 279.25 395.79 279.27 395.78 279.29 395.76 279.29 395.71 279.3 395.7 279.3 395.67 279.33 395.59 279.39 395.56 279.42 395.54 279.54 395.51 279.57 395.48 279.6 395.44 279.63 395.43 279.66 395.42 279.71 395.41 279.73 395.39 279.74 395.36 279.75 395.34 279.76 395.32 279.81 395.29 279.84 395.24 279.86 395.2 279.86 395.12 279.84 395.05 279.77 395 279.7 394.94 279.63 394.86 279.59 394.81 279.57 394.76 279.56 394.72 279.57 394.65 279.61 394.61 279.62 394.59 279.61 394.53 279.59 394.5 279.58 394.32 279.61 394.29 279.63 394.24 279.74 394.2 279.86 394.14 279.92 394.13 279.93 394.11 279.95 394.05 279.98 393.97 279.99 393.93 279.97 393.89 279.99 393.83 279.95 393.79 279.92 393.75 279.9 393.73 279.91 393.71 279.93 393.69 279.94 393.66 279.92 393.6 279.84 393.54 279.8 393.5 279.8 393.38 279.84 393.18 279.8 393 279.82 392.84 279.79 392.62 279.81 392.59 279.84 392.56 279.87 392.51 279.9 392.43 279.95 392.29 279.95 392.21 279.88 392.16 279.89 392.13 279.9 392.05 279.86 392.02 279.82 391.95 279.82 391.87 279.83 391.84 279.86 391.73 279.87 391.57 279.82 391.49 279.79 391.38 279.82 391.22 279.86 391.01 279.81 390.96 279.82 390.89 279.87 390.7 279.9 390.64 279.9 390.24 279.87 390.2 279.88 390.17 279.91 390.11 280.02 390.1 280.04 390.07 280.07 390.04 280.11 390.04 280.16 389.97 280.27 389.83 280.28 389.77 280.4 389.69 280.45 389.67 280.47 389.63 280.49 389.53 280.51 389.44 280.5 389.18 280.47 389.13 280.47 389.11 280.48 389.09 280.5 388.93 280.6 388.78 280.62 388.68 280.68 388.65 280.69 388.57 280.7 388.53 280.71 388.5 280.73 388.47 280.77 388.41 280.88 388.41 280.9 388.37 281 388.35 281.04 388.34 281.06 388.33 281.07 388.31 281.08 388.27 281.1 388.27 281.12 388.28 281.14 388.26 281.18 388.19 281.31 388.18 281.34 388.17 281.47 388.12 281.47 388.1 281.41 388.07 281.38 388.02 281.37 387.97 281.36 387.97 281.39 387.95 281.41 387.94 281.45 387.94 281.49 387.95 281.52 387.94 281.54 387.95 281.59 387.96 281.61 387.97 281.63 387.96 281.67 387.94 281.68 387.93 281.7 387.88 281.72 387.66 281.8 387.63 281.82 387.56 281.84 387.52 281.75 387.43 281.7 387.39 281.67 387.34 281.69 387.29 281.68 387.25 281.65 387.15 281.62 387.12 281.59 387.07 281.52 386.93 281.38 386.88 281.35 386.84 281.35 386.74 281.37 386.62 281.34 386.56 281.26 386.52 281.17 386.47 281.09 386.35 281.02 386.33 280.98 386.33 280.94 386.31 280.89 386.29 280.84 386.22 280.75 386.16 280.63 386.13 280.55 386.08 280.46 386.03 280.42 386.01 280.39 386.04 280.38 386.06 280.38 386.13 280.45 386.15 280.47 386.14 280.5 386.15 280.52 386.19 280.56 386.21 280.56 386.23 280.54 386.26 280.5 386.3 280.45 386.29 280.45 386.24 280.46 386.2 280.46 386.18 280.42 386.2 280.33 386.18 280.28 386.07 280.18 386.05 280.17 385.9 280.16 385.86 280.15 385.83 280.11 385.8 280 385.77 279.95 385.74 279.9 385.73 279.85 385.74 279.8 385.78 279.75 385.82 279.73 385.9 279.7 385.93 279.68 385.96 279.61 385.94 279.5 385.95 279.43 386.03 279.37 386.21 279.38 386.27 279.3 386.23 279.33 386.17 279.35 386.11 279.35 386.07 279.32 385.98 279.35 385.94 279.38 385.92 279.44 385.93 279.61 385.92 279.64 385.84 279.64 385.78 279.56 385.71 279.38 385.66 279.29 385.59 279.22 385.05 278.83 384.99 278.8 384.94 278.79 384.9 278.77 384.81 278.69 384.76 278.67 384.72 278.65 384.68 278.59 384.67 278.52 384.68 278.48 384.71 278.46 384.78 278.34 384.81 278.29 384.7 278.42 384.64 278.46 384.57 278.46 384.57 278.48 384.61 278.56 384.64 278.6 384.64 278.63 384.61 278.64 384.42 278.54 384.35 278.52 384.26 278.49 384.2 278.52 384.26 278.52 384.29 278.54 383.76 278.55 383.72 278.57 383.68 278.61 383.64 278.61 383.6 278.6 383.56 278.58 383.53 278.46 383.52 278.39 383.54 278.35 383.51 278.26 383.5 278.04 383.46 277.95 383.46 277.92 383.46 277.86 383.44 277.79 383.43 277.74 383.42 277.72 383.38 277.69 383.36 277.67 383.34 277.65 383.34 277.64 383.34 277.63 383.33 277.61 383.32 277.57 383.31 277.57 383.31 277.57 383.31 277.54 383.32 277.53 383.34 277.5 383.34 277.49 383.35 277.47 383.35 277.46 383.34 277.44 383.36 277.43 383.42 277.37 383.44 277.34 383.45 277.3 383.47 277.17 383.5 277.08 383.54 277.03 383.74 276.86 383.8 276.75 383.83 276.65 383.88 276.52 383.89 276.47 383.89 276.44 383.88 276.42 383.88 276.39 383.89 276.38 383.96 276.36 383.99 276.35 384.02 276.35 384.05 276.36 384.07 276.36 384.1 276.35 384.13 276.34 384.15 276.33 384.17 276.3 384.19 276.24 384.21 276.22 384.25 276.22 384.37 276.27 384.43 276.27 384.45 276.2 384.47 276.16 384.49 276.08 384.53 275.99 384.56 275.9 384.58 275.86 384.6 275.78 384.59 275.77 384.56 275.75 384.5 275.76 384.44 275.77 384.44 275.77 384.42 275.77 384.4 275.81 384.34 275.83 384.29 275.84 384.25 275.84 384.22 275.81 384.2 275.79 384.11 275.57 384.1 275.55 384.06 275.53 384.05 275.51 384.04 275.49 384.02 275.45 384.01 275.44 383.78 275.14 383.72 275.09 383.69 275.08 383.72 275.04 383.74 275.01 383.74 274.98 383.72 274.94 383.74 274.91 383.78 274.77 383.87 274.63 383.88 274.59 383.88 274.57 383.86 274.56 383.85 274.55 383.84 274.53 383.84 274.51 383.83 274.48 383.84 274.42 383.85 274.32 383.86 274.3 383.88 274.26 383.88 274.25 383.98 274.17 384.01 274.15 384.05 274.13 384.08 274.1 384.11 274.07 384.13 274.04 384.15 274.02 384.25 274 384.29 273.98 384.31 273.95 384.34 273.93 384.36 273.92 384.36 273.88 384.37 273.84 384.34 273.78 384.38 273.74 384.43 273.67 384.51 273.53 384.53 273.5 384.54 273.47 384.54 273.44 384.51 273.42 384.53 273.38 384.52 273.32 384.48 273.27 384.45 273.23 384.4 273.2 384.34 273.18 384.28 273.19 384.23 273.22 384.2 273.23 384.17 273.23 384.13 273.21 384.11 273.19 384.11 273.16 384.13 273.11 384.14 273.08 384.11 273.02 384.06 273 384 272.98 383.94 272.95 383.91 272.91 383.89 272.85 383.9 272.79 383.93 272.74 383.82 272.61 383.78 272.57 383.76 272.54 383.75 272.48 383.75 272.41 383.76 272.37 383.78 272.33 383.79 272.27 383.79 272.21 383.77 272.18 383.68 272.15 383.63 272.13 383.6 272.1 383.58 272.04 383.56 272.02 383.48 271.98 383.45 271.94 383.38 271.85 383.34 271.82 383.27 271.62 383.25 271.58 383.25 271.57 383.73 271.59 383.76 271.58 383.79 271.57 383.83 271.56 383.92 271.56 383.96 271.55 384.01 271.58 384.08 271.58 384.4 271.54 384.44 271.53 384.46 271.47 384.46 271.45 384.45 271.43 384.45 271.4 384.46 271.37 384.49 271.33 384.5 271.3 384.5 271.28 384.49 271.25 384.48 271.22 384.5 271.18 384.52 271.16 384.57 271.14 384.59 271.13 384.64 271.05 384.65 271.02 384.65 270.97 384.66 270.95 384.66 270.93 384.65 270.9 384.65 270.89 384.66 270.87 384.68 270.86 384.68 270.85 384.7 270.77 384.71 270.75 384.7 270.72 384.71 270.69 384.75 270.62 384.66 270.46 384.61 270.4 384.58 270.35 384.56 270.33 384.53 270.32 384.48 270.31 384.45 270.31 384.42 270.27 384.41 270.17 384.39 270.13 384.41 270.09 384.43 270.03 384.45 270 384.49 269.98 384.58 269.92 384.61 269.91 384.63 269.91 384.67 269.92 384.71 269.91 384.75 269.88 384.76 269.87 384.76 269.84 384.76 269.82 384.77 269.8 384.78 269.78 384.88 269.71 384.9 269.69 384.94 269.62 384.86 269.55 384.81 269.47 384.8 269.37 384.84 269.27 384.89 269.2 384.9 269.16 384.89 269.11 384.86 269.07 384.84 269.05 384.82 269.02 384.81 268.97 384.83 268.92 384.88 268.83 384.9 268.78 384.9 268.74 384.89 268.69 384.87 268.59 384.84 268.5 384.84 268.46 384.84 268.4 384.84 268.37 384.85 268.35 384.85 268.34 384.85 268.31 384.84 268.29 384.85 268.21 384.88 268.2 384.89 268.17 384.88 268.13 384.86 268.11 384.82 268.1 384.8 268.08 384.79 268.02 384.74 267.9 384.71 267.84 384.64 267.77 384.62 267.74 384.61 267.7 384.63 267.66 384.64 267.61 384.64 267.61 384.69 267.58 384.83 267.6 384.89 267.59 384.92 267.56 385 267.43 385.02 267.38 385.02 267.3 385.03 267.28 385.05 267.25 385.13 267.18 385.15 267.15 385.16 267.11 385.24 266.99 385.27 266.96 385.31 266.96 385.45 266.95 385.47 266.94 385.6 266.88 385.67 266.83 385.74 266.75 385.81 266.64 385.82 266.64 385.85 266.64 385.86 266.64 385.86 266.62 385.87 266.6 385.87 266.58 385.86 266.58 385.89 266.56 385.92 266.55 385.99 266.54 385.99 266.52 386.07 266.38 386.07 266.36 386.07 266.34 386.07 266.32 386.08 266.29 386.14 266.23 386.24 266.07 386.22 266.04 386.19 266 386.1 265.9 386 265.84 385.89 265.8 385.71 265.76 385.68 265.76 385.66 265.77 385.65 265.79 385.62 265.81 385.58 265.83 385.56 265.83 385.5 265.81 385.47 265.76 385.46 265.71 385.45 265.65 385.44 265.62 385.43 265.6 385.42 265.57 385.43 265.54 385.45 265.52 385.46 265.49 385.51 265.25 385.54 265.19 385.48 265.17 385.44 265.17 385.42 265.15 385.44 265.02 385.43 264.97 385.4 264.93 385.35 264.91 385.32 264.98 385.24 265 385.09 265.01 385.02 264.99 384.94 264.86 384.87 264.85 384.86 264.94 384.8 264.97 384.67 264.98 384.61 264.97 384.55 264.93 384.52 264.91 384.5 264.9 384.45 264.94 384.37 264.97 384.3 264.94 384.23 264.88 384.16 264.84 384.13 264.84 384.09 264.86 384.06 264.89 384.04 264.91 384.04 264.95 384.05 265.05 384.04 265.09 384.02 265.13 384 265.16 383.93 265.2 383.77 265.26 383.73 265.27 383.65 265.26 383.61 265.27 383.58 265.29 383.53 265.35 383.5 265.38 383.49 265.33 383.47 265.28 383.44 265.24 383.41 265.23 383.39 265.22 383.36 265.2 383.34 265.2 383.32 265.22 383.32 265.23 383.32 265.25 383.31 265.27 383.27 265.3 383.23 265.31 383.18 265.32 383.14 265.32 383.1 265.3 383.1 265.27 383.14 265.18 383.02 265.17 382.98 265.15 382.92 265.11 382.88 265.1 382.82 265.13 382.68 265.16 382.62 265.16 382.6 265.17 382.59 265.19 382.58 265.2 382.57 265.22 382.5 265.22 382.48 265.14 382.47 265.06 382.43 265.07 382.42 265.11 382.41 265.16 382.39 265.19 382.35 265.2 382.31 265.19 382.28 265.2 382.25 265.23 382.23 265.27 382.16 265.34 382.15 265.35 382.06 265.37 381.87 265.36 381.87 265.36 381.88 265.28 381.87 265.25 381.86 265.22 381.78 265.19 381.75 265.14 381.76 265.08 381.78 265.03 381.86 264.9 381.93 264.84 381.99 264.8 382.03 264.77 382.05 264.73 382.06 264.68 382.04 264.63 382 264.6 381.96 264.58 381.92 264.59 381.88 264.61 381.84 264.62 381.81 264.59 381.81 264.55 381.81 264.42 381.79 264.37 381.77 264.34 381.71 264.39 381.67 264.41 381.63 264.41 381.61 264.41 381.59 264.43 381.54 264.48 381.5 264.5 381.16 264.55 381.11 264.57 381.04 264.62 381 264.64 380.92 264.64 380.88 264.65 380.84 264.68 380.82 264.71 380.8 264.77 380.78 264.8 380.73 264.83 380.68 264.85 380.63 264.87 380.6 264.89 380.58 264.94 380.54 264.99 380.5 265.02 380.46 265.03 380.42 265.06 380.39 265.1 380.35 265.13 380.31 265.12 380.32 265.08 380.27 264.5 380.28 264.45 380.31 264.43 380.39 264.42 380.43 264.41 380.45 264.38 380.44 264.36 380.4 264.34 380.39 264.32 380.4 264.31 380.46 264.28 380.46 264.27 380.47 264.24 380.48 264.21 380.5 264.2 380.51 264.19 380.56 264.14 380.67 264.05 380.7 264.04 380.71 264.03 380.78 263.96 380.82 263.95 380.87 263.92 380.88 263.9 380.89 263.88 380.89 263.79 380.89 263.77 380.88 263.76 380.86 263.77 380.83 263.8 380.8 263.86 380.77 263.91 380.72 263.93 380.67 263.94 380.55 264 380.53 264.03 380.5 264.03 380.39 264.02 380.34 264.04 380.35 264 380.37 263.93 380.38 263.89 380.39 263.89 380.42 263.94 380.43 263.92 380.43 263.82 380.43 263.8 380.43 263.78 380.43 263.78 380.46 263.77 380.54 263.79 380.56 263.78 380.57 263.74 380.66 263.64 380.69 263.61 380.77 263.56 380.8 263.53 380.81 263.48 380.79 263.49 380.78 263.49 380.75 263.48 380.73 263.49 380.73 263.49 380.72 263.49 380.67 263.52 380.62 263.57 380.59 263.59 380.54 263.6 380.47 263.61 380.4 263.6 380.34 263.56 380.33 263.53 380.32 263.47 380.3 263.44 380.27 263.43 380.19 263.41 380.18 263.4 380.19 263.37 380.23 263.35 380.28 263.33 380.31 263.32 380.34 263.33 380.36 263.35 380.36 263.38 380.33 263.4 380.35 263.41 380.38 263.43 380.41 263.43 380.43 263.42 380.44 263.39 380.44 263.36 380.44 263.32 380.46 263.3 380.44 263.2 380.43 263.15 380.44 263.1 380.46 263.07 380.49 263.04 380.52 263.03 380.55 263 380.63 262.81 380.65 262.74 380.63 262.74 380.62 262.79 380.6 262.84 380.57 262.87 380.53 262.89 380.48 262.87 380.46 262.83 380.44 262.79 380.41 262.76 380.37 262.82 380.37 262.86 380.39 262.89 380.34 262.96 380.31 262.97 380.28 262.95 380.3 262.92 380.26 262.93 380.19 262.99 380.22 263.03 380.2 263.05 380.12 263.07 380.11 263.09 380.09 263.16 380.07 263.16 380.06 263.18 380.02 263.22 379.99 263.18 379.99 263.12 379.98 263.08 379.93 263.05 379.89 263.02 379.9 262.95 379.94 262.87 379.96 262.83 379.96 262.79 379.97 262.75 379.98 262.69 380.01 262.65 380.02 262.63 380.04 262.61 380.06 262.6 380.07 262.59 380.13 262.56 380.19 262.48 380.22 262.44 380.28 262.43 380.29 262.41 380.31 262.36 380.3 262.31 380.25 262.29 380.24 262.36 380.21 262.4 380.16 262.42 380.1 262.43 379.99 262.42 379.94 262.42 379.95 262.47 379.9 262.53 379.87 262.54 379.83 262.54 379.8 262.51 379.78 262.47 379.77 262.42 379.75 262.37 379.78 262.37 379.8 262.36 379.81 262.34 379.83 262.31 379.81 262.27 379.78 262.25 379.74 262.24 379.73 262.21 379.72 262.17 379.72 262.15 379.73 262.14 379.75 262.12 379.75 262.1 379.75 262.07 379.75 262.05 379.74 262.04 379.7 262.04 379.68 262.03 379.64 261.97 379.62 261.96 379.62 261.98 379.63 262.01 379.62 262.03 379.6 262.03 379.58 262.03 379.57 261.99 379.55 261.99 379.53 262 379.51 262.02 379.49 262.05 379.47 262.11 379.46 262.13 379.44 262.13 379.42 262.06 379.4 262.04 379.4 262.02 379.42 261.99 379.46 261.87 379.46 261.85 379.47 261.82 379.48 261.8 379.49 261.78 379.49 261.76 379.48 261.74 379.45 261.71 379.43 261.64 379.45 261.62 379.48 261.62 379.49 261.6 379.51 261.54 379.53 261.51 379.56 261.5 379.57 261.46 379.6 261.49 379.63 261.5 379.66 261.49 379.69 261.46 379.7 261.44 379.71 261.43 379.72 261.41 379.74 261.4 379.75 261.39 379.77 261.38 379.81 261.38 379.81 261.36 379.77 261.38 379.72 261.39 379.69 261.38 379.69 261.36 379.62 261.39 379.59 261.39 379.57 261.34 379.67 261.24 379.74 261.2 379.83 261.23 379.87 261.23 379.91 261.22 379.93 261.21 379.96 261.19 379.99 261.17 380.01 261.13 380.02 261.08 380.04 261.08 380.08 261.12 380.14 261.12 380.2 261.09 380.24 261.06 380.19 261.07 380.16 261.05 380.13 260.98 380.12 260.98 380.09 260.97 380.08 260.95 380.09 260.94 380.11 260.94 380.2 260.9 380.3 260.84 380.37 260.82 380.38 260.79 380.4 260.78 380.43 260.77 380.46 260.79 380.53 260.86 380.56 260.88 380.6 260.88 380.69 260.91 380.73 260.92 380.79 260.89 380.87 260.85 380.95 260.82 381.03 260.86 381.15 260.8 381.16 260.78 381.17 260.76 381.19 260.73 381.21 260.72 381.26 260.71 381.27 260.69 381.27 260.68 381.28 260.67 381.41 260.64 381.41 260.68 381.43 260.71 381.48 260.75 381.51 260.72 381.52 260.69 381.51 260.62 381.53 260.58 381.58 260.58 381.64 260.63 381.67 260.64 381.69 260.66 381.7 260.7 381.71 260.73 381.76 260.78 381.79 260.81 381.8 260.86 381.82 260.81 381.82 260.76 381.8 260.67 381.8 260.62 381.81 260.6 381.84 260.57 381.88 260.54 381.83 260.52 381.79 260.52 381.72 260.52 381.68 260.51 381.63 260.45 381.59 260.44 381.63 260.41 381.86 260.38 381.87 260.37 381.89 260.36 381.9 260.34 381.89 260.31 381.88 260.31 381.83 260.34 381.7 260.36 381.7 260.35 381.71 260.34 381.73 260.34 381.72 260.33 381.7 260.31 381.67 260.35 381.63 260.37 381.53 260.38 381.55 260.33 381.55 260.27 381.56 260.22 381.59 260.23 381.62 260.19 381.6 260.17 381.58 260.15 381.57 260.12 381.57 260.09 381.58 260.09 381.62 260.09 381.64 260.09 381.69 260.09 381.75 260.06 382.07 259.81 382.08 259.85 382.1 259.86 382.13 259.87 382.15 259.86 382.13 259.86 382.12 259.86 382.12 259.84 382.13 259.83 382.14 259.82 382.15 259.81 382.11 259.78 382.1 259.75 382.11 259.71 382.12 259.68 382.14 259.65 382.17 259.64 382.24 259.64 382.31 259.63 382.37 259.59 382.43 259.54 382.47 259.48 382.53 259.49 382.56 259.53 382.57 259.59 382.61 259.63 382.61 259.64 382.59 259.64 382.57 259.63 382.56 259.63 382.54 259.65 382.53 259.68 382.53 259.71 382.55 259.73 382.52 259.75 382.52 259.74 382.5 259.73 382.49 259.74 382.48 259.75 382.47 259.75 382.47 259.77 382.58 259.78 382.6 259.76 382.56 259.69 382.59 259.67 382.61 259.67 382.67 259.69 382.66 259.68 382.66 259.66 382.65 259.64 382.68 259.61 382.72 259.58 382.77 259.55 382.86 259.53 382.9 259.5 382.94 259.45 382.96 259.41 382.96 259.39 382.98 259.4 383 259.43 383 259.46 382.99 259.48 382.94 259.54 382.94 259.58 382.95 259.6 382.97 259.59 382.99 259.58 382.99 259.58 382.99 259.56 382.99 259.55 383.01 259.54 383.02 259.54 383.06 259.52 383.07 259.56 383.12 259.67 383.12 259.72 383.14 259.71 383.17 259.67 383.18 259.63 383.21 259.64 383.23 259.62 383.25 259.6 383.28 259.58 383.37 259.59 383.4 259.6 383.58 259.71 383.67 259.74 383.81 259.99 383.91 260.04 383.91 260.05 383.9 260.06 383.9 260.07 383.88 260.08 383.88 260.1 383.91 260.12 383.93 260.11 383.95 260.09 383.97 260.08 384.01 260.08 384.05 260.1 384.14 260.11 384.27 260.1 384.31 260.08 384.35 260.1 384.39 260.11 384.41 260.13 384.41 260.19 384.4 260.22 384.38 260.26 384.36 260.3 384.38 260.35 384.39 260.35 384.4 260.35 384.41 260.3 384.42 260.25 384.43 260.21 384.46 260.19 384.48 260.12 384.61 260.09 384.82 260.08 384.86 260.09 384.99 260.08 385.08 260.11 385.14 260.12 385.26 260.05 385.38 260.06 385.49 260.1 385.57 260.15 385.59 260.13 385.62 260.12 385.67 260.12 385.67 260.11 385.66 260.07 385.66 260.06 385.69 260.07 385.74 260.1 385.77 260.1 385.89 260.08 386 260.08 386.03 260.08 386.09 260.05 386.15 260.03 386.16 260.02 386.18 260 386.21 260 386.28 260.05 386.31 260.06 386.48 260.08 386.51 260.06 386.55 260.08 386.58 260.06 386.61 260.04 386.65 260.02 386.91 260.02 386.92 259.99 386.9 259.97 386.89 259.95 386.92 259.91 386.92 259.9 386.91 259.88 386.91 259.87 386.98 259.87 387 259.86 387.01 259.82 387.03 259.79 387.06 259.8 387.13 259.83 387.18 259.87 387.3 260.02 387.35 260.08 387.36 260.08 387.37 260.04 387.39 260.05 387.41 260.1 387.53 260.12 387.98 260.1 388.04 260.12 388.05 260.16 388.02 260.21 387.98 260.25 388 260.27 388.02 260.26 388.07 260.24 388.09 260.23 388.11 260.21 388.11 260.19 388.13 260.17 388.16 260.17 388.25 260.18 388.29 260.19 388.45 260.3 388.52 260.32 388.71 260.33 388.77 260.35 388.79 260.39 388.82 260.37 388.97 260.42 388.99 260.41 389.02 260.38 389.05 260.38 389.07 260.38 389.12 260.41 389.28 260.44 389.46 260.53 389.5 260.54 390 260.59 390.01 260.59 390.07 260.64 390.11 260.6 390.17 260.59 390.24 260.6 390.28 260.64 390.29 260.64 390.32 260.61 390.34 260.6 390.44 260.61 390.72 260.58 390.78 260.53 390.92 260.49 390.97 260.48 391.07 260.48 391.08 260.47 391.08 260.46 391.09 260.44 391.11 260.43 391.12 260.44 391.17 260.48 391.19 260.46 391.2 260.46 391.21 260.46 391.22 260.46 391.21 260.45 391.19 260.43 391.19 260.42 391.27 260.36 391.3 260.34 391.34 260.35 391.37 260.34 391.38 260.34 391.39 260.35 391.45 260.31 391.52 260.3 391.58 260.31 391.65 260.35 391.55 260.4 391.51 260.42 391.48 260.46 391.5 260.49 391.51 260.49 391.52 260.5 391.52 260.5 391.51 260.5 391.51 260.51 391.51 260.52 391.53 260.52 391.55 260.52 391.58 260.5 391.6 260.49 391.63 260.44 391.64 260.43 391.66 260.44 391.68 260.47 391.7 260.48 391.71 260.47 391.7 260.44 391.69 260.41 391.68 260.4 391.68 260.38 391.71 260.38 391.72 260.39 391.73 260.4 391.74 260.38 391.74 260.38 391.75 260.38 391.73 260.35 391.76 260.34 391.82 260.34 391.85 260.32 391.87 260.3 391.9 260.29 392.07 260.23 392.12 260.24 392.12 260.29 392.16 260.29 392.18 260.32 392.21 260.34 392.23 260.35 392.38 260.38 392.39 260.39 392.4 260.41 392.4 260.43 392.4 260.45 392.39 260.46 392.38 260.45 392.36 260.46 392.35 260.45 392.33 260.44 392.31 260.43 392.3 260.45 392.29 260.46 392.27 260.48 392.24 260.5 392.28 260.51 392.31 260.54 392.33 260.56 392.36 260.5 392.38 260.54 392.41 260.54 392.48 260.52 392.51 260.53 392.62 260.56 392.75 260.58 392.85 260.62 392.88 260.63 392.91 260.64 392.96 260.7 393.02 260.72 393.06 260.73 393.1 260.73 393.15 260.7 393.22 260.74 393.33 260.83 393.33 260.81 393.31 260.74 393.3 260.7 393.29 260.68 393.29 260.67 393.3 260.65 393.33 260.64 393.35 260.61 393.45 260.55 393.48 260.54 393.48 260.52 393.47 260.52 393.47 260.5 393.51 260.48 393.56 260.47 393.67 260.48 393.78 260.47 393.82 260.45 393.86 260.43 393.89 260.44 393.94 260.48 393.98 260.52 394 260.55 394.03 260.63 394.03 260.69 394.04 260.68 394.06 260.63 394.06 260.61 394.06 260.59 394.06 260.58 394.07 260.56 394.1 260.56 394.13 260.57 394.15 260.58 394.22 260.59 394.35 260.64 394.45 260.66 394.49 260.68 394.54 260.75 394.75 260.85 394.84 260.88 394.94 260.89 395.03 260.88 395.11 260.86 395.13 260.85 395.14 260.86 395.16 260.88 395.18 260.91 395.21 260.92 395.21 260.91 395.22 260.91 395.23 260.9 395.25 260.89 395.26 260.9 395.26 260.92 395.27 260.93 395.28 260.94 395.35 260.89 395.38 260.88 395.42 260.87 395.58 260.81 395.63 260.78 395.65 260.77 395.69 260.77 395.71 260.79 395.73 260.82 395.75 260.83 395.78 260.81 395.77 260.8 395.75 260.78 395.73 260.77 395.82 260.73 395.9 260.65 395.99 260.61 396.02 260.64 Z" fill-rule="evenodd" id="Spain" transform="translate(-359.7300109863281,-259.3900146484375) "/></svg>