<svg xmlns="http://www.w3.org/2000/svg" viewBox="0 0 4.95001220703125 8.680023193359375"><path d="M 581.37 350.42 581.34 350.44 581.31 350.42 581.3 350.41 581.3 350.41 581.29 350.39 581.29 350.38 581.29 350.38 581.29 350.38 581.3 350.24 581.3 350.19 581.27 350.17 581.26 350.15 581.19 350.04 581.18 350.02 581.18 350 581.16 349.98 581.16 349.96 581.16 349.93 581.17 349.91 581.17 349.89 581.17 349.89 581.16 349.87 581.16 349.87 581.19 349.89 581.21 349.96 581.23 349.99 581.24 350 581.26 350.05 581.31 350.14 581.34 350.18 581.37 350.37 581.37 350.37 581.37 350.42 Z M 577.07 346.94 577.15 347.02 577.15 347.02 577.11 347.01 577.05 346.98 577.01 346.97 577.07 347.03 577.11 347.09 577.13 347.12 577.08 347.11 577.05 347.09 577.02 347.06 577 347.05 576.98 347.03 576.89 346.95 576.84 346.93 576.8 346.91 576.77 346.9 576.75 346.9 576.7 346.89 576.67 346.88 576.66 346.86 576.67 346.84 576.7 346.83 576.8 346.83 576.84 346.84 576.89 346.85 576.98 346.89 577.07 346.94 Z M 576.7 345.98 576.65 345.98 576.59 345.97 576.57 345.94 576.57 345.85 576.58 345.82 576.59 345.83 576.61 345.85 576.62 345.87 576.65 345.88 576.7 345.88 576.71 345.89 576.74 345.95 576.74 345.95 576.72 345.96 576.7 345.98 Z M 577.12 345.55 577.13 345.55 577.17 345.55 577.18 345.55 577.18 345.59 577.19 345.6 577.21 345.62 577.25 345.63 577.27 345.65 577.28 345.65 577.28 345.67 577.27 345.69 577.24 345.69 577.21 345.68 577.19 345.66 577.17 345.66 577.13 345.68 577.1 345.68 577.1 345.68 577.07 345.66 577.03 345.61 576.98 345.5 577 345.46 577.01 345.41 577.02 345.37 577.07 345.36 577.1 345.37 577.1 345.37 577.1 345.39 577.09 345.42 577.09 345.45 577.09 345.48 577.09 345.5 577.09 345.5 577.09 345.51 577.1 345.53 577.11 345.54 577.12 345.55 Z M 578.37 345.77 578.98 346.26 578.99 346.26 579 346.29 579.03 346.32 579.07 346.37 579.1 346.4 579.08 346.42 579.08 346.42 579.06 346.41 579.06 346.41 579.06 346.41 579.04 346.38 579.02 346.37 579.02 346.37 578.98 346.37 578.97 346.37 578.97 346.39 578.98 346.4 579.09 346.5 579.14 346.53 579.14 346.53 579.12 346.5 579.11 346.48 579.11 346.48 579.11 346.46 579.15 346.45 579.16 346.46 579.18 346.53 579.2 346.57 579.29 346.74 579.29 346.74 579.27 346.73 579.23 346.71 579.2 346.71 579.18 346.75 579.2 346.75 579.24 346.76 579.27 346.78 579.27 346.78 579.27 346.83 579.27 346.83 579.29 346.83 579.3 346.82 579.3 346.81 579.31 346.81 579.32 346.8 579.32 346.8 579.33 346.85 579.33 346.85 579.36 346.92 579.41 346.99 579.45 347.02 579.45 347.02 579.46 347.02 579.46 347.04 579.45 347.05 579.43 347.06 579.42 347.05 579.4 347.02 579.37 347 579.31 346.99 579.27 346.97 579.29 346.99 579.3 347 579.38 347.08 579.38 347.12 579.41 347.14 579.41 347.14 579.38 347.16 579.36 347.19 579.36 347.19 579.4 347.21 579.43 347.21 579.46 347.18 579.49 347.14 579.5 347.11 579.5 347.11 579.58 347.2 579.65 347.32 579.68 347.35 579.72 347.37 579.76 347.39 579.8 347.51 579.82 347.52 579.83 347.53 579.83 347.53 579.88 347.56 579.91 347.62 579.94 347.73 579.95 347.71 579.95 347.7 579.97 347.71 579.97 347.71 579.99 347.72 579.98 347.74 580.04 347.81 580.06 347.84 580.06 347.88 580.05 347.9 580.02 347.91 580 347.93 580 347.93 580.02 347.93 580.04 347.92 580.04 347.92 580.05 347.92 580.05 347.92 580.1 348.02 580.1 348.07 580.05 348.08 580.05 348.08 580.06 348.05 580.04 348.02 580.04 348.02 580.02 348.01 580 348.05 580.01 348.08 580.02 348.1 580.03 348.13 580.02 348.16 580.02 348.16 580 348.15 579.98 348.13 579.94 348.11 579.9 348.1 579.87 348.11 579.84 348.15 579.85 348.17 579.88 348.17 579.93 348.13 579.96 348.16 579.99 348.2 580.02 348.24 580.07 348.25 580.17 348.25 580.21 348.23 580.18 348.17 580.24 348.15 580.27 348.14 580.29 348.14 580.29 348.14 580.32 348.16 580.34 348.18 580.36 348.22 580.38 348.3 580.41 348.42 580.41 348.45 580.41 348.48 580.39 348.46 580.36 348.4 580.33 348.39 580.33 348.4 580.34 348.48 580.34 348.48 580.35 348.51 580.37 348.52 580.38 348.52 580.38 348.52 580.41 348.52 580.43 348.53 580.45 348.62 580.47 348.68 580.47 348.69 580.47 348.72 580.47 348.72 580.48 348.75 580.53 348.9 580.54 349 580.5 349.06 580.5 349.06 580.48 348.97 580.48 348.95 580.44 348.86 580.43 348.86 580.43 348.93 580.43 348.95 580.43 348.95 580.43 348.96 580.43 348.96 580.43 348.97 580.43 348.98 580.44 348.99 580.45 349 580.45 349 580.46 349.01 580.48 349.05 580.52 349.08 580.52 349.08 580.55 349.08 580.57 349.03 580.58 349.03 580.59 349.06 580.6 349.06 580.62 349.14 580.63 349.17 580.66 349.2 580.67 349.23 580.7 349.29 580.71 349.28 580.73 349.27 580.73 349.26 580.74 349.28 580.73 349.29 580.74 349.3 580.74 349.3 580.74 349.3 580.75 349.31 580.75 349.32 580.75 349.32 580.76 349.31 580.78 349.3 580.79 349.29 580.79 349.29 580.8 349.3 580.8 349.32 580.8 349.33 580.79 349.35 580.79 349.37 580.79 349.38 580.81 349.41 580.84 349.43 580.85 349.44 580.87 349.47 580.86 349.47 580.85 349.48 580.85 349.48 580.84 349.48 580.84 349.48 580.83 349.51 580.83 349.53 580.85 349.61 580.87 349.63 580.9 349.66 580.9 349.66 580.95 349.65 580.96 349.65 580.98 349.7 580.99 349.73 581 349.74 581.09 349.84 581.13 349.88 581.13 349.93 581.08 349.94 581.08 349.94 581.06 349.93 581 349.86 580.98 349.83 580.94 349.82 580.94 349.82 580.93 349.82 580.91 349.82 580.89 349.85 580.87 349.9 580.9 349.91 580.92 349.91 580.94 349.9 580.96 349.88 580.99 349.89 581.01 349.9 581.02 349.91 581.02 349.92 581.02 349.92 581.02 349.94 581.05 349.97 581.08 350 581.1 350.02 581.13 350.06 581.13 350.06 581.12 350.08 581.11 350.09 581.12 350.11 581.13 350.13 581.14 350.11 581.13 350.08 581.13 350.08 581.16 350.09 581.21 350.13 581.22 350.14 581.26 350.25 581.26 350.25 581.26 350.25 581.25 350.31 581.25 350.31 581.25 350.31 581.26 350.34 581.26 350.35 581.25 350.36 581.24 350.37 581.23 350.39 581.24 350.41 581.25 350.42 581.26 350.43 581.26 350.43 581.26 350.45 581.28 350.46 581.25 350.48 581.25 350.48 581.26 350.49 581.26 350.49 581.28 350.5 581.29 350.47 581.31 350.47 581.31 350.47 581.33 350.56 581.33 350.6 581.33 350.6 581.34 350.6 581.34 350.6 581.34 350.57 581.35 350.53 581.36 350.51 581.37 350.49 581.37 350.47 581.37 350.47 581.36 350.46 581.37 350.45 581.38 350.46 581.4 350.47 581.41 350.49 581.41 350.54 581.45 350.59 581.5 350.78 581.49 351.3 581.5 351.34 581.52 351.42 581.52 351.46 581.51 351.55 581.41 351.9 581.4 351.94 581.4 351.99 581.39 352.03 581.36 352.09 581.35 352.12 581.34 352.16 581.3 352.22 581.28 352.25 581.28 352.25 581.29 352.31 581.29 352.31 581.27 352.37 581.06 352.7 580.99 352.77 580.86 352.86 580.82 352.87 580.76 352.9 580.35 353.22 580.27 353.27 580 353.36 580 353.36 580 353.33 580 353.33 579.98 353.32 579.98 353.32 579.98 353.32 579.97 353.32 579.96 353.34 579.95 353.38 579.94 353.39 579.92 353.4 579.9 353.41 579.85 353.44 579.8 353.46 579.57 353.51 579.46 353.54 579.33 353.57 579.28 353.59 579.24 353.63 579.18 353.62 579.15 353.64 579.13 353.65 579.04 353.71 578.96 353.77 578.92 353.82 578.83 353.81 578.83 353.81 578.79 353.82 578.76 353.83 578.73 353.84 578.67 353.88 578.66 353.89 578.64 353.89 578.61 353.88 578.57 353.86 578.54 353.85 578.53 353.85 578.4 353.86 578.36 353.85 578.35 353.84 578.33 353.81 578.32 353.8 578.32 353.79 578.32 353.79 578.28 353.81 578.25 353.81 578.19 353.8 578.17 353.8 578.16 353.8 578.15 353.79 578.15 353.78 578.13 353.77 578.12 353.77 578.11 353.78 578.1 353.79 578.09 353.79 578.09 353.78 578.08 353.78 578.07 353.76 578.06 353.76 578.06 353.76 578.06 353.76 578.04 353.75 577.95 353.72 577.91 353.71 577.88 353.7 577.83 353.66 577.82 353.66 577.8 353.65 577.8 353.65 577.79 353.66 577.74 353.63 577.56 353.44 577.55 353.43 577.55 353.43 577.55 353.43 577.54 353.42 577.54 353.41 577.54 353.41 577.54 353.39 577.53 353.38 577.53 353.37 577.51 353.35 577.4 353.13 577.4 353.11 577.4 353.11 577.4 353.09 577.4 353.08 577.4 353.08 577.4 353.06 577.38 353.03 577.36 352.92 577.32 352.85 577.29 352.75 577.28 352.71 577.28 352.7 577.27 352.7 577.26 352.69 577.25 352.68 577.26 352.67 577.27 352.66 577.28 352.66 577.28 352.66 577.28 352.66 577.27 352.55 577.27 352.54 577.22 352.42 577.03 351.94 577 351.77 577 351.75 577 351.59 577 351.59 577.02 351.53 577.03 351.51 577.03 351.48 577.03 351.48 576.92 351.11 576.93 351.05 576.93 351.09 576.94 351.11 576.95 351.12 576.97 351.14 576.99 351.22 577 351.23 577.01 351.23 577.01 351.21 577.02 351.2 577.03 351.2 577.03 351.2 577.03 351.2 577.03 351.2 577.03 351.14 577.03 351.14 577.02 351.11 577.01 351.08 577 351.08 576.97 351.07 576.96 351.06 576.96 351.06 576.95 351.04 576.95 351.02 576.96 351.01 576.97 350.99 576.86 350.2 576.84 350.17 576.85 350.16 576.86 350.16 576.87 350.17 576.88 350.13 576.89 350.09 576.89 350.07 576.89 350.04 576.88 350.01 576.87 349.98 576.86 349.96 576.86 349.94 576.86 349.86 576.81 349.61 576.8 349.58 576.78 349.53 576.75 349.41 576.72 349.32 576.66 349.07 576.66 349 576.67 349 576.67 349 576.67 349 576.67 349.01 576.68 349.01 576.68 348.97 576.67 348.84 576.66 348.8 576.7 348.78 576.73 348.73 576.76 348.68 576.77 348.64 576.78 348.61 576.84 348.51 576.84 348.51 576.81 348.59 576.77 348.66 576.78 348.68 576.78 348.68 576.79 348.7 576.82 348.71 576.84 348.71 576.82 348.77 576.8 348.81 576.79 348.82 576.78 348.82 576.77 348.83 576.77 348.85 576.77 348.91 576.77 348.92 576.73 349.04 576.73 349.06 576.73 349.11 576.77 349.15 576.78 349.17 576.74 349.26 576.81 349.31 576.91 349.32 576.97 349.28 576.96 349.24 576.94 349.21 576.93 349.2 576.92 349.19 576.9 349.16 576.88 349.15 576.88 349.13 576.95 348.98 576.95 348.96 576.94 348.94 576.93 348.92 576.92 348.91 576.92 348.88 576.92 348.83 576.92 348.81 576.92 348.81 576.92 348.81 576.91 348.79 576.91 348.79 576.9 348.79 576.9 348.78 576.9 348.75 576.92 348.73 576.94 348.69 576.95 348.67 576.95 348.62 576.98 348.53 577 348.31 577.01 348.29 577.02 348.28 577.04 348.26 577.04 348.23 577.04 348.14 577.05 348.09 577.08 348.06 577.12 348.04 577.15 348.01 577.15 348 577.17 347.93 577.18 347.92 577.18 347.92 577.18 347.9 577.2 347.86 577.22 347.64 577.17 347.5 577.17 347.48 577.18 347.32 577.18 347.32 577.18 347.32 577.17 347.27 577.17 347.24 577.16 347.22 577.15 347.2 577.17 347.19 577.2 347.18 577.22 347.18 577.34 347.06 577.41 347.03 577.44 347 577.45 346.95 577.48 346.89 577.5 346.82 577.57 346.63 577.57 346.62 577.58 346.6 577.59 346.54 577.59 346.41 577.6 346.39 577.59 346.38 577.59 346.38 577.57 346.37 577.5 346.34 577.48 346.32 577.47 346.28 577.46 346.27 577.45 346.22 577.45 346.19 577.48 346.16 577.53 346.14 577.58 346.12 577.63 346.11 577.65 346.1 577.69 346.04 577.7 346.03 577.71 346.03 577.72 346.02 577.74 346.01 577.77 346.01 577.75 345.97 577.74 345.95 577.72 345.93 577.69 345.9 577.65 345.87 577.48 345.77 577.45 345.73 577.52 345.73 577.59 345.76 577.72 345.84 577.85 345.87 577.88 345.89 577.94 345.94 577.95 345.96 577.95 345.96 577.92 345.98 577.93 345.99 577.94 346.01 577.92 346.02 577.92 346.02 577.97 346.05 578.08 346.03 578.28 345.95 578.33 345.95 578.45 345.98 578.59 346.05 578.7 346.07 578.7 346.07 578.55 345.96 578.49 345.94 578.45 345.93 578.44 345.93 578.43 345.92 578.39 345.89 578.38 345.88 578.36 345.88 578.35 345.88 578.32 345.88 578.3 345.89 578.3 345.89 578.29 345.9 578.28 345.91 578.25 345.89 578.24 345.88 578.17 345.89 578.15 345.88 577.99 345.74 577.93 345.7 577.92 345.7 577.9 345.69 577.79 345.64 577.75 345.62 577.72 345.61 577.72 345.67 577.74 345.69 577.76 345.7 577.78 345.73 577.76 345.75 577.75 345.76 577.73 345.75 577.71 345.74 577.67 345.72 577.59 345.64 577.54 345.62 577.54 345.62 577.57 345.65 577.61 345.69 577.63 345.72 577.58 345.7 577.53 345.68 577.42 345.62 577.34 345.56 577.29 345.54 577.28 345.54 577.26 345.52 577.24 345.52 577.24 345.53 577.22 345.52 577.21 345.49 577.2 345.47 577.19 345.44 577.18 345.41 577.17 345.4 577.15 345.37 577.13 345.35 577.18 345.32 577.27 345.24 577.31 345.23 577.31 345.23 577.48 345.24 577.57 345.23 577.6 345.23 577.62 345.26 577.62 345.31 577.62 345.33 577.64 345.33 577.66 345.34 577.71 345.35 577.72 345.36 577.73 345.38 577.76 345.37 577.78 345.37 577.78 345.37 577.79 345.37 577.8 345.36 577.8 345.36 577.82 345.37 577.83 345.38 577.89 345.45 578.08 345.66 578.15 345.7 578.31 345.78 578.32 345.78 578.32 345.78 578.32 345.76 578.24 345.72 578.04 345.56 577.88 345.38 577.8 345.33 577.8 345.33 577.67 345.3 577.64 345.28 577.64 345.25 577.68 345.23 577.7 345.22 577.74 345.22 577.84 345.21 577.88 345.22 577.91 345.24 577.93 345.31 577.95 345.34 578.24 345.68 578.28 345.72 578.37 345.77 Z" fill-rule="evenodd" id="Sri Lanka" transform="translate(-576.5700073242188,-345.2099914550781) "/></svg>