<svg xmlns="http://www.w3.org/2000/svg" viewBox="0 0 37.230010986328125 31.029998779296875"><path d="M 482.6 320.24 482.58 320.24 482.56 320.19 482.56 320.11 482.56 320.11 482.57 320.04 482.6 319.99 482.63 320.01 482.64 320.01 482.65 320.04 482.62 320.2 482.6 320.24 Z M 481.76 317.29 481.75 317.33 481.75 317.34 481.74 317.34 481.7 317.35 481.66 317.36 481.72 317.4 481.74 317.43 481.74 317.72 481.79 318.05 481.77 318.11 481.8 318.13 481.81 318.16 481.81 318.19 481.82 318.22 481.85 318.24 481.86 318.27 481.98 318.55 482.27 318.99 482.46 319.17 482.69 319.47 482.71 319.51 482.71 319.56 482.69 319.6 482.66 319.62 482.62 319.6 482.58 319.64 482.54 319.6 482.47 319.5 482.46 319.48 482.44 319.45 482.44 319.42 482.45 319.41 482.48 319.42 482.5 319.44 482.51 319.46 482.52 319.48 482.57 319.52 482.6 319.53 482.62 319.52 482.62 319.5 482.56 319.44 482.53 319.35 482.5 319.32 482.47 319.33 482.4 319.28 482.39 319.31 482.37 319.3 482.36 319.28 482.35 319.25 482.35 319.22 482.37 319.19 482.37 319.16 482.35 319.13 482.29 319.12 482.25 319.16 482.23 319.22 482.24 319.28 482.25 319.29 482.28 319.3 482.28 319.31 482.28 319.34 482.27 319.36 482.28 319.42 482.28 319.45 482.27 319.47 482.25 319.5 482.22 319.5 482.21 319.52 482.21 319.55 482.22 319.58 482.28 319.65 482.34 319.79 482.37 319.94 482.39 320.25 482.42 320.39 482.52 320.68 482.53 320.83 482.52 320.87 482.51 320.9 482.49 320.93 482.42 320.92 482.41 320.95 482.42 321.02 482.4 321.18 482.42 321.28 482.42 321.31 482.47 321.45 482.49 321.53 482.5 321.61 482.52 321.72 482.48 321.81 482.48 321.83 482.47 321.85 482.45 321.89 482.44 321.91 482.44 321.97 482.45 322.05 482.59 322.42 482.6 322.5 482.6 322.65 482.6 322.7 482.59 322.72 482.55 322.77 482.54 322.81 482.56 322.95 482.56 322.99 482.56 323.01 482.57 323.04 482.6 323.1 482.65 323.23 482.74 323.73 482.76 323.97 482.76 323.99 482.78 324.01 482.8 324.02 482.82 324.04 482.82 324.05 482.81 324.09 482.8 324.1 482.86 324.18 482.88 324.29 482.93 324.44 482.96 324.54 482.98 324.66 483.01 324.7 483.06 324.79 483.11 324.88 483.18 324.95 483.19 324.97 483.21 325 483.24 325.01 483.27 325 483.29 324.99 483.31 324.99 483.44 324.97 483.51 324.94 483.52 324.98 483.57 325.01 483.61 325.02 483.66 325.02 483.67 325.04 483.68 325.08 483.71 325.11 483.7 325.2 483.73 325.18 483.76 325.18 483.78 325.2 483.82 325.23 484.07 325.3 484.16 325.39 484.22 325.5 484.32 325.59 484.38 325.63 484.48 325.67 484.5 325.7 484.48 325.74 484.42 325.77 484.4 325.85 484.46 325.98 484.57 326.08 484.69 326.11 484.78 326.1 484.79 326.01 484.83 326 484.91 325.95 484.93 325.97 484.91 325.99 484.88 326.01 484.85 326.03 484.85 326.05 484.85 326.07 484.85 326.1 484.82 326.13 484.79 326.14 484.76 326.13 484.73 326.14 484.72 326.16 484.74 326.16 484.82 326.14 484.85 326.15 484.87 326.16 484.89 326.17 484.91 326.19 484.94 326.2 485 326.2 485.03 326.21 485.07 326.22 485.09 326.21 485.09 326.19 485.07 326.17 485.1 326.14 485.14 326.19 485.22 326.3 485.2 326.33 485.23 326.35 485.29 326.36 485.32 326.33 485.35 326.37 485.35 326.46 485.37 326.49 485.41 326.5 485.43 326.46 485.43 326.41 485.4 326.36 485.44 326.39 485.53 326.48 485.54 326.52 485.54 326.55 485.55 326.58 485.57 326.63 485.57 326.65 485.25 326.91 485.19 327 485.06 327.36 485 327.46 484.95 327.49 484.84 327.54 484.8 327.58 484.79 327.63 484.79 327.67 484.79 327.72 484.75 327.76 484.7 327.77 484.66 327.74 484.63 327.71 484.59 327.68 484.51 327.71 484.5 327.71 484.49 327.73 484.49 327.75 484.5 327.76 484.5 327.79 484.47 327.83 484.44 327.86 484.4 327.86 484.39 327.81 484.39 327.77 484.39 327.73 484.37 327.71 484.32 327.71 484.27 327.72 484.27 327.73 484.12 327.83 484.05 327.92 484 327.95 483.95 327.96 483.9 327.95 483.83 327.88 483.79 327.87 483.71 327.91 483.61 328.08 483.52 328.13 483.43 328.14 483.14 328.24 483.12 328.25 483.11 328.28 483.14 328.38 483.14 328.42 483.13 328.52 483.11 328.57 483.06 328.65 483.05 328.71 483.04 328.75 482.91 328.9 482.7 328.84 482.64 328.85 482.53 328.91 482.47 328.92 482.43 328.91 482.31 328.93 482.29 328.93 482.21 328.88 482.18 328.87 482.13 328.86 482.09 328.84 482.05 328.82 482.02 328.8 481.97 328.81 481.96 328.83 481.96 328.83 481.95 328.85 481.96 328.87 482 328.93 482.01 328.97 482 329.02 481.95 329.09 481.95 329.12 481.98 329.14 482 329.17 482 329.2 482 329.29 482 329.3 482.01 329.32 482.02 329.33 482.01 329.34 482 329.36 481.99 329.37 481.98 329.51 481.93 329.65 481.91 329.68 481.83 329.73 481.8 329.76 481.78 329.81 481.77 329.85 481.78 329.92 481.77 329.97 481.74 330.06 481.74 330.09 481.76 330.14 481.79 330.18 481.82 330.22 481.85 330.26 481.86 330.27 481.87 330.31 481.87 330.35 481.86 330.39 481.86 330.44 481.87 330.49 481.91 330.58 481.92 330.63 481.89 330.69 481.8 330.78 481.76 330.84 481.69 331.05 481.59 331.34 481.48 331.64 481.42 331.74 481.31 331.85 481.29 331.9 481.17 332.34 481.16 332.43 481.19 332.53 481.12 332.58 481.08 332.65 480.96 332.99 480.92 333.05 480.76 333.21 480.74 333.25 480.74 333.3 480.76 333.51 480.81 333.9 480.82 334.02 480.85 334.24 480.88 334.53 480.92 334.81 480.97 335.23 480.77 335.85 480.76 335.89 480.76 335.95 480.77 336.01 480.81 336.12 480.82 336.23 480.78 336.33 480.68 336.56 480.68 336.61 480.67 336.73 480.65 336.8 480.32 337.27 480.1 338.02 480.11 338.06 480.12 338.1 480.13 338.12 480.13 338.13 480.11 338.17 480.08 338.2 480.05 338.24 480.06 338.29 480.11 338.38 480.12 338.41 480.12 338.47 480.07 338.72 480.06 338.76 480.02 338.78 479.96 338.76 479.94 338.75 479.93 338.74 479.91 338.73 479.89 338.73 479.87 338.73 479.2 338.83 479.14 338.84 479.14 338.85 479.11 338.86 479.1 338.87 479.1 338.88 479.09 338.94 479.08 338.96 479.07 338.98 479.05 339.01 479.03 339.02 478.99 339.02 478.97 339.03 478.95 339.05 478.53 339.74 478.51 339.81 478.5 339.87 478.5 339.9 478.48 339.93 478.45 339.95 478.41 339.97 478.38 339.99 478.37 340.02 478.33 340.11 478.31 340.24 478.29 340.29 478.24 340.34 478.16 340.39 478.14 340.41 478.13 340.43 478.13 340.44 478.13 340.48 478.13 340.5 478.06 340.58 477.91 340.63 477.86 340.65 477.78 340.71 477.74 340.75 477.71 340.8 477.69 340.86 477.67 340.91 477.67 340.96 477.69 341.04 477.69 341.14 477.7 341.18 477.75 341.27 477.75 341.31 477.75 341.36 477.47 341.97 477.46 342.02 477.48 342.08 477.52 342.13 477.55 342.17 477.54 342.24 477.39 342.67 477.39 342.7 477.41 342.73 477.48 342.77 477.49 342.81 477.47 342.88 477.44 342.94 477.32 343.03 477.28 343.07 477.27 343.09 477.27 343.12 477.25 343.16 477.23 343.2 477.2 343.2 477.17 343.19 477.14 343.2 477.11 343.22 477.08 343.29 477.06 343.31 477.04 343.3 477.04 343.27 477.04 343.2 477.03 343.17 477 343.14 476.94 343.1 476.67 342.86 476.64 342.85 476.6 342.87 476.34 343.05 476.3 343.08 476.26 343.13 476.18 343.3 475.99 343.56 475.97 343.64 475.98 343.74 476.09 344.23 476.09 344.33 476.07 344.42 476.06 344.44 476.04 344.46 476.04 344.47 476.04 344.5 476.04 344.55 476.04 344.58 475.99 344.65 475.86 344.77 475.58 345.55 475.51 345.88 475.52 346.05 475.15 346.05 475.14 346.04 475.13 346.04 475.13 346.03 475.12 346.01 475.1 345.95 475.1 345.85 475.11 345.68 475.16 345.48 475.3 345.19 475.31 345.17 475.31 345.15 475.31 345.14 475.29 345.09 475.28 345.04 475.27 344.98 475.29 344.83 475.3 344.78 475.29 344.72 475.28 344.69 475.18 344.44 475.15 344.4 474.67 344.01 474.19 343.61 474.01 343.4 474 343.39 473.97 343.37 473.48 343.19 473.46 343.18 473.46 343.15 473.48 343.12 473.54 343.01 473.55 342.98 473.55 342.94 473.44 342.11 473.33 341.28 473.33 341.25 473.34 341.22 473.35 341.21 473.38 341.18 473.41 341.14 473.44 341.07 473.44 341.05 473.47 340.75 473.47 340.49 473.6 340.06 473.61 339.87 472.56 339.86 472.55 339.87 472.55 339.88 472.55 339.89 472.55 339.91 472.55 339.94 472.54 339.99 472.54 340.02 472.54 340.05 472.56 340.15 472.59 340.23 472.59 340.26 472.59 340.28 472.59 340.34 471.85 340.34 471.12 340.35 471.7 341 471.71 341.01 471.72 341.05 471.72 341.07 471.73 341.3 471.7 341.67 471.71 341.9 471.74 342.05 471.9 342.35 471.89 342.41 471.85 342.48 471.33 342.92 470.81 343.36 470.78 343.41 470.63 343.77 470.49 343.99 470.43 344.05 470.19 344.35 469.71 344.82 469.24 345.29 469.08 345.36 468.61 345.38 468.61 345.38 468.36 345.39 468.33 345.4 468.28 345.41 468.26 345.44 468.23 345.46 468.2 345.45 468.16 345.42 467.57 344.89 467.05 344.56 466.53 344.23 466.43 344.29 465.84 344.57 465.72 344.65 465.65 344.7 465.64 345.02 465.54 345.18 465.35 345.36 464.84 345.48 464.58 345.57 464.3 345.72 464.26 345.75 464.09 345.88 463.95 346.02 463.9 346.11 463.9 346.2 463.91 346.28 463.94 346.34 463.93 346.34 463.05 346.33 462.17 346.32 462.06 346.2 461.83 345.73 461.81 345.74 461.77 345.75 461.56 345.76 461.27 345.72 461.26 345.72 461.21 345.73 461.2 345.73 461.02 345.71 460.7 345.71 460.6 345.7 460.03 345.71 459.17 346 459.15 346 459.02 345.99 458.97 345.96 458.87 345.9 458.45 345.41 458.03 344.92 457.86 344.86 457.86 344.86 457.83 344.82 457.8 344.79 457.67 344.57 457.66 344.56 457.65 344.55 457.64 344.54 457.63 344.53 457.57 344.52 457.54 344.5 457.46 344.45 457.44 344.44 457.42 344.42 457.42 344.42 457.41 344.4 457.4 344.06 457.4 344.04 457.39 344.03 457.38 344.02 457.29 343.9 457.28 343.89 457.25 343.89 457.15 343.92 457.11 343.94 457.09 343.95 457.07 343.95 456.98 343.94 456.97 343.95 456.93 343.96 456.88 343.96 456.81 343.97 456.8 343.97 456.7 343.99 456.54 344.05 456.53 344.05 456.5 344.06 456.48 344.06 456.39 344.06 456.36 344.06 456.34 344.07 456.31 344.08 456.28 344.09 456.26 344.09 456.24 344.1 456.22 344.1 456.2 344.1 456.18 344.1 456.14 344.12 456.13 344.12 456.12 344.12 456.09 344.12 456.08 344.12 456.06 344.13 456.05 344.13 456.03 344.13 456.02 344.13 456.01 344.13 455.99 344.12 455.97 344.11 455.95 344.11 455.93 344.11 455.92 344.11 455.9 344.12 455.88 344.12 455.86 344.12 455.84 344.12 455.79 344.14 455.76 344.15 455.71 344.14 455.68 344.15 455.65 344.16 455.62 344.17 455.6 344.17 455.59 344.19 455.57 344.22 455.45 344.45 455.45 344.48 455.45 344.5 455.45 344.52 455.46 344.53 455.47 344.57 455.48 344.6 455.48 344.61 455.48 344.62 455.48 344.64 455.45 344.7 455.4 344.82 455.38 344.86 455.36 344.9 455.35 344.93 455.32 344.96 455.25 345.04 455.23 345.07 455.15 345.12 455.07 345.18 455.05 345.2 455.03 345.2 455.01 345.21 454.99 345.21 454.98 345.21 454.97 345.22 454.97 345.23 454.96 345.28 454.96 345.88 454.96 345.9 454.94 345.95 454.8 346.1 454.74 346.16 454.72 346.19 454.71 346.23 454.67 346.66 454.66 346.67 454.65 346.69 454.45 347.03 454.44 347.06 454.44 347.08 454.44 347.31 454.43 347.33 454.4 347.34 454.29 347.38 454.09 347.4 454.04 347.41 453.8 347.56 453.73 347.59 453.61 347.69 453.59 347.71 453.59 347.74 453.58 347.75 453.45 347.77 453.22 347.73 453.16 347.74 453.12 347.74 453.03 347.7 452.9 347.71 452.76 347.68 452.69 347.68 452.62 347.71 452.58 347.73 452.51 347.71 452.44 347.71 452.41 347.7 452.38 347.67 452.34 347.66 452.31 347.65 452.26 347.66 452.23 347.68 452.18 347.72 452.15 347.73 452.1 347.71 452.07 347.66 452.05 347.6 452.05 347.54 452.08 347.49 452.17 347.38 452.21 347.32 452.24 347.2 452.24 347.12 452.23 347.07 452.19 347.07 452.1 347.15 452.04 347.15 451.98 347.12 451.95 347.07 451.95 347.02 452 346.74 452.01 346.72 452.03 346.68 452.07 346.67 452.14 346.67 452.18 346.66 452.2 346.65 452.25 346.6 452.34 346.49 452.37 346.47 452.38 346.44 452.38 346.41 452.36 346.34 452.36 346.3 452.42 346.13 452.42 346.11 452.4 346.1 452.39 346.09 452.37 346.09 452.36 346.06 452.35 346.04 452.35 345.97 452.35 345.94 452.33 345.89 452.33 345.86 452.35 345.8 452.44 345.67 452.47 345.61 452.48 345.52 452.41 345.14 452.37 345.04 452 344.44 451.63 343.85 451.23 343.46 451 343.29 450.68 342.83 450.68 342.77 450.76 342.46 450.78 342.43 450.81 342.4 450.82 342.37 450.82 342.33 450.83 342.28 450.84 342.24 450.88 342.16 450.89 342.12 450.88 342.06 450.88 342.03 450.82 341.86 450.79 341.7 450.76 341.68 450.71 341.67 450.5 341.7 450.48 341.69 450.48 341.62 450.47 341.6 450.41 341.55 450.24 341.48 450.16 341.45 450.08 341.37 450.01 341.28 449.97 341.17 449.96 341.06 450.08 340.37 450.12 340.26 450.13 340.22 450.12 340.18 450.11 340.17 450.09 340.2 450.06 340.18 449.98 340.2 449.83 340.25 449.81 340.26 449.8 340.27 449.78 340.28 449.84 340.03 449.84 340 449.84 339.97 449.83 339.95 449.67 339.44 449.6 339.33 449.59 339.3 449.64 339.23 449.75 338.97 449.73 338.94 449.5 338.85 449.22 338.67 449.16 338.76 449.09 338.83 449 338.88 448.9 338.91 448.81 338.92 448.72 338.92 448.62 338.9 448.55 338.87 448.5 338.82 448.41 338.66 448.35 338.58 448.34 338.56 448.35 338.54 448.39 338.47 448.44 338.3 448.62 337.96 448.69 337.87 448.76 337.79 448.8 337.77 449.04 337.68 449.08 337.65 449.28 337.44 449.36 337.33 449.38 337.24 449.35 337.19 449.27 337.09 449.24 337.04 449.23 336.99 449.23 336.86 449.2 336.78 449.06 336.64 449.02 336.56 449.02 336.51 449.02 336.47 449.02 336.44 448.98 336.39 448.93 336.34 448.93 336.32 448.99 336.24 449.17 336.01 449.19 335.98 449.24 335.92 449.31 335.88 449.66 335.71 449.7 335.68 449.78 335.61 449.83 335.58 449.89 335.57 449.94 335.55 449.98 335.51 449.98 335.44 449.97 335.37 449.95 335.32 449.91 335.3 449.78 335.28 449.74 335.26 449.72 335.22 449.7 335.18 449.69 335.15 449.69 335.13 449.71 335.09 449.72 335.08 449.75 335.07 449.76 335.06 449.77 335.04 449.76 335.03 449.75 335.02 449.74 335 449.71 334.76 449.69 334.73 449.62 334.67 449.57 334.59 449.61 334.51 449.7 334.44 449.8 334.4 450.24 334.28 450.27 334.26 450.28 334.23 450.27 334.21 450.24 334.14 450.23 334.1 450.21 333.97 450.21 333.91 450.23 333.88 450.31 333.82 450.35 333.78 450.36 333.74 450.37 333.7 450.38 333.64 450.4 333.6 450.6 333.39 450.65 333.35 450.7 333.32 450.77 333.29 450.79 333.27 450.89 333.09 450.91 333.04 450.94 332.78 450.93 332.7 450.91 332.63 450.86 332.56 450.81 332.51 450.78 332.45 450.76 332.39 450.78 332.32 450.82 332.26 450.99 332.16 451.14 331.98 451.19 331.94 451.25 331.94 451.35 331.92 451.69 332 451.86 331.98 452.15 331.87 452.3 331.84 452.55 331.84 452.82 331.88 453.08 331.97 453.14 331.97 453.17 331.9 453.17 331.9 453.17 331.77 453.17 331.24 453.16 330.71 453.16 330.17 453.16 329.64 453.16 329.11 453.16 328.57 453.16 328.03 453.16 327.5 453.16 326.96 453.16 326.42 453.16 325.88 453.16 325.35 453.16 324.81 453.16 324.26 453.16 323.72 453.16 323.18 453.16 322.89 453.16 322.6 453.16 322.31 453.16 322.01 453.52 322.01 453.71 322.01 453.96 322.01 454.25 322.01 454.53 322.01 454.8 322.01 455.12 322.01 455.35 322.01 455.35 322.01 455.36 322.01 455.36 322.01 455.37 322.01 455.37 322.01 455.37 322 455.37 322 455.37 322 455.37 321.98 455.37 321.72 455.37 321.5 455.37 321.27 455.37 321.05 455.37 320.83 455.37 320.53 455.37 320.24 455.37 319.95 455.37 319.65 455.37 319.36 455.37 319.07 455.37 318.77 455.37 318.48 455.37 318.18 455.37 317.89 455.38 317.59 455.38 317.29 455.59 317.29 455.81 317.29 456.02 317.29 456.24 317.29 456.45 317.29 456.67 317.29 456.89 317.29 457.1 317.29 457.32 317.29 457.53 317.29 457.75 317.29 457.96 317.29 458.18 317.29 458.4 317.29 458.61 317.29 458.83 317.29 459.04 317.29 459.26 317.29 459.47 317.29 459.69 317.29 459.91 317.29 460.12 317.29 460.34 317.29 460.55 317.29 460.77 317.29 460.98 317.29 461.2 317.29 461.42 317.29 461.63 317.29 461.85 317.29 462.06 317.29 462.28 317.29 462.49 317.29 462.71 317.3 462.93 317.3 463.14 317.3 463.36 317.3 463.57 317.3 463.79 317.3 464 317.3 464.22 317.3 464.44 317.3 464.65 317.3 464.87 317.3 465.08 317.3 465.3 317.3 465.51 317.3 465.73 317.3 465.95 317.3 466.16 317.3 466.38 317.3 466.59 317.3 466.81 317.3 467.03 317.3 467.24 317.3 467.46 317.3 467.67 317.3 467.89 317.3 468.1 317.3 468.32 317.3 468.54 317.3 468.75 317.3 468.97 317.3 469.18 317.3 469.27 317.3 469.3 317.28 469.41 317.06 469.41 317.04 469.51 316.84 469.57 316.77 469.61 316.75 469.65 316.74 469.7 316.75 469.74 316.77 469.79 316.82 469.81 316.87 469.8 316.93 469.75 317.08 469.68 317.29 469.81 317.29 469.87 317.29 470.1 317.29 470.33 317.29 470.55 317.29 470.78 317.29 471.01 317.29 471.23 317.29 471.46 317.29 471.69 317.29 471.92 317.29 472.1 317.29 472.14 317.29 472.37 317.29 472.6 317.29 472.82 317.29 473.05 317.29 473.28 317.29 473.5 317.29 473.5 317.29 473.55 317.29 474.02 317.29 474.54 317.29 475.05 317.29 475.55 317.29 475.57 317.29 476.08 317.29 476.6 317.29 477.11 317.29 477.63 317.29 478.15 317.29 478.66 317.29 479.18 317.29 479.69 317.29 480.21 317.29 480.72 317.29 481.24 317.29 481.76 317.29 Z" fill-rule="evenodd" id="Sudan" transform="translate(-448.3399963378906,-316.739990234375) "/></svg>