<svg xmlns="http://www.w3.org/2000/svg" viewBox="0 0 9.04998779296875 9.220001220703125"><path d="M 273.42 360.92 273.43 360.9 273.45 360.87 273.45 360.85 273.43 360.83 273.35 360.85 273.35 360.85 273.33 360.81 273.37 360.73 273.35 360.72 273.33 360.72 273.28 360.74 273.26 360.75 273.24 360.74 273.23 360.72 273.22 360.7 273.2 360.69 273.19 360.66 273.16 360.55 273.18 360.53 273.22 360.5 273.24 360.47 273.23 360.44 273.16 360.43 273.13 360.41 273.15 360.38 273.16 360.36 273.16 360.35 273.15 360.33 273.15 360.3 273.16 360.29 273.19 360.29 273.19 360.28 273.19 360.27 273.18 360.24 273.18 360.22 273.16 360.17 273.12 360.14 273.1 360.1 273.13 360.03 273.13 360.03 273.12 360.03 273.12 360.03 273.12 360.02 273.1 360.03 273.08 360.05 273.06 360.05 273.04 360.05 273.02 360.03 273.02 360.02 273.03 360 273.04 359.97 273.02 359.92 273.01 359.9 273.01 359.87 273.03 359.83 273.03 359.8 273.02 359.77 273.01 359.76 273 359.74 273.02 359.71 273.02 359.7 273.03 359.62 273.02 359.59 272.97 359.48 272.9 359.53 272.84 359.54 272.78 359.52 272.71 359.49 272.71 359.53 272.69 359.55 272.63 359.57 272.63 359.58 272.61 359.59 272.59 359.6 272.59 359.59 272.58 359.58 272.57 359.57 272.55 359.57 272.53 359.57 272.52 359.56 272.49 359.54 272.46 359.54 272.44 359.58 272.42 359.58 272.4 359.58 272.33 359.54 272.33 359.54 272.29 359.52 272.23 359.5 272.21 359.5 272.2 359.49 272.19 359.48 272.18 359.45 272.18 359.43 272.18 359.41 272.19 359.37 272.19 359.35 272.19 359.33 272.19 359.31 272.22 359.25 272.22 359.21 272.19 359.17 272.14 359.14 272.13 359.14 272.13 359.13 272.1 359.13 272.09 359.12 272.08 359.11 272.08 359.1 272.08 359.1 272.06 359.06 272.05 359.02 272.04 359.01 271.96 358.95 271.85 358.91 271.81 358.89 271.79 358.85 271.77 358.8 271.77 358.7 271.76 358.66 271.71 358.56 271.6 358.39 271.56 358.35 271.42 358.24 271.36 358.17 271.34 358.09 271.31 357.9 271.28 357.81 271.29 357.76 271.32 357.72 271.51 357.52 271.54 357.48 271.55 357.44 271.55 357.38 271.55 357.35 271.54 357.31 271.53 357.28 271.54 357.24 271.56 357.2 271.59 357.18 271.61 357.15 271.62 357.07 271.66 356.98 271.7 356.91 271.74 356.8 271.78 356.74 271.79 356.71 271.8 356.66 271.78 356.62 271.72 356.55 271.69 356.46 271.65 356.43 271.62 356.41 271.6 356.38 271.61 356.31 271.65 356.26 271.69 356.22 271.72 356.18 271.77 356.1 271.78 356.09 271.81 356.08 271.83 356.09 271.85 356.1 271.88 356.1 271.93 356.1 271.96 356.08 271.99 356.01 272.05 355.96 272.13 355.92 272.21 355.92 272.3 355.95 272.39 355.92 272.45 355.91 272.5 355.91 272.51 355.91 272.55 355.95 272.56 355.95 272.59 355.95 272.63 355.94 272.8 355.92 272.86 355.91 272.88 355.9 272.9 355.89 272.92 355.88 272.95 355.88 272.97 355.88 272.99 355.89 273.01 355.89 273.03 355.88 272.95 355.8 272.94 355.78 272.94 355.75 272.95 355.72 272.98 355.65 272.99 355.59 273.01 355.56 273.03 355.54 273.07 355.54 273.1 355.55 273.12 355.58 273.13 355.62 273.17 355.61 273.2 355.59 273.23 355.56 273.24 355.53 273.22 355.49 273.15 355.4 273.13 355.36 273.13 355.35 273.12 355.34 273.1 355.33 273.08 355.33 273.06 355.35 273.05 355.37 273.06 355.39 273.09 355.41 273.08 355.43 273.07 355.44 273.05 355.44 273.03 355.44 273.02 355.42 273.01 355.41 273.01 355.25 273 355.25 272.99 355.25 272.97 355.24 272.93 355.25 272.91 355.25 272.91 355.23 272.91 355.21 272.93 355.19 273.04 355.08 273.06 355.04 273.07 354.99 273.07 354.94 273.08 354.91 273.1 354.86 273.13 354.83 273.15 354.81 273.22 354.79 273.25 354.76 273.27 354.73 273.29 354.7 273.34 354.46 273.35 354.25 273.37 354.18 273.37 354.13 273.4 354.04 273.42 353.97 273.48 353.88 273.49 353.85 273.5 353.83 273.52 353.82 273.57 353.81 273.59 353.8 273.6 353.79 273.61 353.79 273.62 353.78 273.65 353.75 273.66 353.74 273.68 353.73 273.71 353.73 273.73 353.7 273.75 353.7 273.81 353.71 273.94 353.75 274.03 353.75 274.14 353.75 274.31 353.76 274.4 353.77 274.44 353.78 274.51 353.83 274.55 353.84 274.59 353.85 274.7 353.86 274.94 353.92 275.08 353.96 275.19 353.96 275.3 353.99 275.37 354.01 275.44 354.03 275.59 354.06 275.68 354.09 275.74 354.1 275.78 354.11 275.87 354.14 276.01 354.16 276.05 354.2 276.08 354.22 276.09 354.25 276.09 354.44 276.09 354.44 276.11 354.44 276.12 354.4 276.13 354.37 276.12 354.29 276.12 354.26 276.08 354.17 276.05 354.12 276.09 354.07 276.07 354.05 276.04 354.05 276.01 354.06 275.98 354.03 275.97 353.99 275.98 353.95 276.02 353.91 276.04 353.88 276.07 353.85 276.09 353.83 276.12 353.8 276.16 353.79 276.21 353.78 276.27 353.77 276.47 353.76 276.58 353.76 276.67 353.75 277.21 353.78 277.34 353.81 277.4 353.85 277.44 353.86 277.48 353.88 277.5 353.89 277.52 353.9 277.54 353.92 277.57 353.94 277.57 353.94 277.59 353.94 277.61 353.94 277.63 353.95 277.67 353.95 277.69 353.94 277.72 353.93 277.76 353.93 277.79 353.95 277.84 353.99 277.85 354.02 277.83 354.08 277.8 354.12 277.8 354.12 277.86 354.1 277.88 354.05 277.88 354 277.89 353.98 277.94 353.98 278.02 354.03 278.06 354.04 278.09 354.04 278.11 354.02 278.13 354.02 278.17 354.05 278.19 354.05 278.21 354.05 278.23 354.04 278.25 354.03 278.26 354.02 278.28 354 278.3 354 278.33 354 278.35 354.01 278.39 354.04 278.38 354.02 278.36 354.01 278.34 353.99 278.33 353.98 278.3 353.98 278.28 353.98 278.26 354 278.23 354.01 278.18 354.02 278.15 353.99 278.12 353.99 278.08 354.01 278.05 354.01 278.01 353.98 277.98 353.96 277.85 353.92 277.8 353.9 277.77 353.88 277.75 353.85 277.74 353.83 277.73 353.82 277.74 353.79 277.76 353.78 277.82 353.76 277.89 353.74 277.98 353.74 278.05 353.74 278.59 353.76 278.63 353.77 278.72 353.78 278.81 353.79 279.25 353.85 279.53 353.91 279.74 353.96 279.92 354.02 280.08 354.06 280.14 354.07 280.16 354.08 280.22 354.07 280.23 354.09 280.25 354.1 280.27 354.12 280.26 354.14 280.32 354.25 280.33 354.29 280.31 354.31 280.26 354.41 280.23 354.45 280.22 354.54 280.19 354.71 280.16 354.8 280.14 354.85 280.1 354.9 280.06 354.93 280.04 354.96 280.03 354.98 280.02 355.02 279.92 355.16 279.88 355.21 279.7 355.34 279.61 355.44 279.59 355.46 279.56 355.5 279.54 355.59 279.52 355.6 279.49 355.63 279.48 355.64 279.47 355.67 279.47 355.68 279.35 355.82 279.31 355.88 279.29 355.92 279.29 355.95 279.31 356.04 279.3 356.07 279.29 356.09 279.23 356.13 279.22 356.15 279.23 356.17 279.24 356.2 279.24 356.47 279.25 356.5 279.26 356.52 279.29 356.52 279.31 356.54 279.33 356.58 279.34 356.61 279.33 356.66 279.33 356.71 279.36 356.78 279.36 356.81 279.36 356.9 279.35 356.94 279.31 357.02 279.3 357.07 279.34 357.31 279.41 357.45 279.43 357.55 279.43 357.6 279.41 357.64 279.39 357.68 279.4 357.72 279.42 357.75 279.45 357.77 279.53 357.79 279.55 357.81 279.56 357.85 279.55 357.88 279.52 357.96 279.51 358 279.52 358.05 279.54 358.09 279.61 358.15 279.63 358.18 279.65 358.25 279.67 358.27 279.7 358.3 279.71 358.31 279.77 358.41 279.81 358.44 279.82 358.46 279.82 358.45 279.84 358.48 279.86 358.52 279.88 358.55 279.9 358.56 279.92 358.57 280 358.59 280.02 358.61 280.07 358.68 280.09 358.7 280.14 358.86 280.19 358.93 280.19 358.95 280.21 358.94 280.24 358.94 280.26 358.93 280.28 358.94 280.31 358.97 280.32 359 280.32 359.03 280.3 359.08 280.29 359.18 280.29 359.34 280.26 359.43 280.18 359.51 280.17 359.54 280.16 359.58 280.15 359.63 280.12 359.66 280.12 359.67 280.05 359.72 279.99 359.81 279.91 359.9 279.88 359.95 279.83 360.07 279.88 360.06 279.91 360.09 279.91 360.14 279.91 360.19 279.9 360.19 279.89 360.2 279.88 360.2 279.88 360.22 279.88 360.22 279.9 360.23 279.91 360.24 279.92 360.29 279.93 360.32 279.92 360.34 279.89 360.35 279.9 360.38 279.93 360.41 279.94 360.41 279.94 360.44 279.92 360.51 279.92 360.52 279.89 360.57 279.88 360.59 279.88 360.62 279.88 360.63 279.89 360.65 279.92 360.67 279.9 360.68 279.88 360.7 279.85 360.81 279.83 360.84 279.67 361.06 279.59 361.21 279.5 361.43 279.47 361.48 279.36 361.59 279.33 361.6 279.3 361.61 279.25 361.61 279.23 361.62 279.21 361.63 279.15 361.78 279.12 361.8 279.08 361.81 279 361.78 278.97 361.79 278.94 361.83 278.89 361.84 278.85 361.85 278.81 361.85 278.77 361.85 278.74 361.83 278.73 361.82 278.74 361.8 278.73 361.77 278.71 361.72 278.73 361.68 278.73 361.68 278.74 361.68 278.75 361.67 278.76 361.66 278.76 361.65 278.75 361.62 278.74 361.61 278.74 361.57 278.73 361.56 278.7 361.54 278.65 361.52 278.62 361.52 278.58 361.54 278.54 361.56 278.43 361.6 278.35 361.56 278.13 361.35 278.12 361.33 278.13 361.3 278.17 361.26 278.19 361.23 278.17 361.21 278.13 361.21 278.04 361.25 278 361.28 277.91 361.35 277.83 361.39 277.82 361.39 277.8 361.39 277.78 361.37 277.79 361.33 277.78 361.31 277.7 361.32 277.52 361.45 277.47 361.45 277.45 361.42 277.41 361.41 277.37 361.41 277.33 361.42 277.3 361.46 277.29 361.5 277.28 361.54 277.26 361.58 277.2 361.6 277.12 361.6 277.03 361.59 276.95 361.59 276.82 361.6 276.78 361.59 276.73 361.59 276.65 361.63 276.48 361.68 276.43 361.67 276.41 361.65 276.39 361.6 276.37 361.58 276.35 361.57 276.19 361.53 276.15 361.51 276.03 361.41 275.98 361.39 275.93 361.38 275.9 361.39 275.89 361.4 275.87 361.44 275.85 361.54 275.85 361.63 275.84 361.67 275.77 361.77 275.76 361.79 275.73 361.8 275.7 361.8 275.68 361.78 275.66 361.77 275.64 361.78 275.61 361.82 275.57 361.88 275.55 361.94 275.54 361.99 275.57 362 275.66 362.01 275.71 362.02 275.75 362.06 275.77 362.14 275.8 362.19 275.86 362.23 275.88 362.25 275.96 362.35 276.03 362.41 276.05 362.44 276.05 362.47 276.05 362.49 276.04 362.51 276.04 362.54 276.04 362.63 276.05 362.72 276.04 362.8 275.97 362.87 275.82 362.92 275.68 362.89 275.54 362.83 275.4 362.8 275.29 362.8 275.26 362.8 275.22 362.78 275.14 362.73 275.1 362.71 275.05 362.71 274.99 362.72 274.95 362.73 274.91 362.72 274.8 362.68 274.79 362.65 274.78 362.63 274.76 362.62 274.71 362.6 274.69 362.59 274.68 362.57 274.67 362.56 274.58 362.51 274.36 362.51 274.3 362.48 274.09 362.18 274.07 362.12 274.06 362.07 274.04 361.97 274.01 361.93 273.99 361.92 273.94 361.91 273.92 361.9 273.91 361.88 273.91 361.8 273.88 361.75 273.8 361.68 273.79 361.64 273.8 361.61 273.8 361.59 273.79 361.57 273.76 361.53 273.75 361.51 273.74 361.48 273.74 361.46 273.76 361.44 273.76 361.41 273.74 361.39 273.69 361.43 273.66 361.44 273.65 361.42 273.66 361.34 273.66 361.33 273.6 361.26 273.59 361.24 273.59 361.2 273.6 361.18 273.6 361.15 273.59 361.12 273.54 361.15 273.53 361.13 273.51 361.05 273.49 361.01 273.43 360.95 273.42 360.92 Z" id="Suriname" transform="translate(-271.2799987792969,-353.70001220703125) "/></svg>