<svg xmlns="http://www.w3.org/2000/svg" viewBox="0 0 28.94000244140625 66.260009765625"><path d="M 434.75 216.74 434.76 216.75 434.79 216.75 434.81 216.76 434.84 216.76 434.86 216.75 434.86 216.77 434.83 216.8 434.8 216.8 434.8 216.82 434.81 216.87 434.81 216.9 434.81 216.92 434.79 216.93 434.77 216.92 434.76 216.92 434.69 216.86 434.67 216.81 434.7 216.75 434.73 216.73 434.75 216.74 Z M 437.85 211.81 437.86 211.82 437.89 211.81 437.9 211.77 437.91 211.77 437.91 211.79 437.92 211.8 437.92 211.81 437.93 211.83 437.94 211.85 437.95 211.87 437.96 211.89 437.96 211.91 437.9 211.92 437.85 211.97 437.78 212.11 437.83 212.23 437.83 212.29 437.8 212.39 437.8 212.43 437.79 212.45 437.78 212.45 437.75 212.47 437.75 212.47 437.73 212.51 437.73 212.57 437.72 212.61 437.62 212.79 437.61 212.85 437.6 212.96 437.56 213 437.51 213.02 437.46 213.06 437.47 213.09 437.49 213.12 437.51 213.13 437.54 213.14 437.49 213.18 437.46 213.23 437.4 213.34 437.41 213.39 437.43 213.47 437.42 213.55 437.39 213.59 437.37 213.63 437.33 213.84 437.31 213.92 437.3 213.92 437.2 213.98 437.18 214 437.17 214.04 437.16 214.07 437.16 214.11 437.15 214.15 437.14 214.23 437.02 214.65 437 214.73 436.99 214.82 436.98 214.85 436.96 214.89 436.94 214.93 436.92 214.94 436.89 214.96 436.88 214.99 436.87 215.08 436.87 215.1 436.88 215.11 436.88 215.13 436.88 215.15 436.86 215.2 436.85 215.21 436.85 215.28 436.84 215.33 436.83 215.37 436.8 215.44 436.77 215.52 436.74 215.61 436.73 215.68 436.73 215.71 436.73 215.8 436.72 215.84 436.69 215.9 436.68 215.94 436.67 216 436.55 216.27 436.51 216.32 436.46 216.35 436.42 216.36 436.38 216.31 436.38 216.27 436.38 216.18 436.38 216.14 436.35 216.04 436.37 215.95 436.37 215.85 436.37 215.68 436.38 215.62 436.37 215.55 436.35 215.47 436.33 215.39 436.35 215.05 436.36 215.01 436.4 214.89 436.45 214.79 436.46 214.76 436.47 214.68 436.84 213.73 436.88 213.69 436.93 213.67 437 213.67 437.06 213.65 437.09 213.6 437.13 213.45 437.23 213.2 437.34 212.97 437.44 212.73 437.48 212.43 437.48 212.39 437.5 212.37 437.55 212.35 437.58 212.31 437.59 212.27 437.6 212.04 437.61 211.97 437.66 211.92 437.73 211.81 437.76 211.77 437.8 211.75 437.83 211.75 437.85 211.81 Z M 441.64 209.76 441.68 209.82 441.7 209.72 441.73 209.66 441.77 209.62 441.79 209.55 441.78 209.52 441.76 209.49 441.76 209.46 441.79 209.45 441.92 209.42 441.92 209.45 441.89 209.52 441.93 209.56 441.99 209.56 441.99 209.51 442.02 209.48 442.06 209.47 442.11 209.46 442.14 209.48 442.12 209.51 442.13 209.54 442.15 209.59 442.17 209.63 442.21 209.65 442.23 209.67 442.29 209.78 442.31 209.82 442.15 209.84 442.09 209.9 442.08 210.05 442.05 210.01 442.02 209.99 442 210 442 210.05 441.98 210.08 441.97 210.13 441.97 210.17 441.99 210.22 441.9 210.24 441.82 210.25 441.79 210.24 441.74 210.2 441.72 210.19 441.69 210.2 441.69 210.23 441.69 210.26 441.7 210.3 441.67 210.45 441.63 210.55 441.62 210.59 441.61 210.61 441.6 210.65 441.59 210.69 441.6 210.7 441.7 210.73 441.68 210.79 441.66 210.85 441.65 210.9 441.65 210.97 441.63 211.03 441.6 211.08 441.59 211.14 441.62 211.18 441.6 211.24 441.61 211.28 441.64 211.3 441.68 211.29 441.67 211.32 441.65 211.38 441.74 211.42 441.83 211.44 441.83 211.42 441.84 211.39 441.85 211.38 441.88 211.39 441.91 211.42 441.93 211.43 441.94 211.46 441.95 211.51 441.96 211.56 441.95 211.61 441.92 211.63 441.85 211.63 441.84 211.63 441.82 211.61 441.8 211.6 441.79 211.61 441.76 211.65 441.75 211.66 441.68 211.68 441.61 211.73 441.54 211.79 441.49 211.87 441.41 211.95 441.38 212 441.39 212.08 441.41 212.09 441.46 212.08 441.48 212.1 441.48 212.22 441.4 212.26 441.41 212.28 441.21 212.32 441.15 212.36 441.15 212.39 441.18 212.39 441.18 212.42 441.13 212.43 440.86 212.59 440.8 212.63 440.76 212.69 440.91 212.69 440.86 212.74 440.7 212.82 440.66 212.88 440.65 213.09 440.67 213.14 440.71 213.17 440.79 213.2 440.66 213.2 440.66 213.22 440.69 213.25 440.64 213.31 440.61 213.34 440.59 213.42 440.56 213.45 440.35 213.56 440.28 213.57 440.21 213.53 440.35 213.27 440.36 213.23 440.35 213.19 440.35 213.14 440.37 213.11 440.46 213.08 440.49 213.04 440.51 212.99 440.53 212.88 440.54 212.84 440.49 212.87 440.44 212.93 440.4 212.97 440.35 212.95 440.35 212.92 440.37 212.88 440.4 212.83 440.4 212.78 440.38 212.75 440.38 212.73 440.4 212.69 440.41 212.67 440.31 212.62 440.25 212.28 440.12 212.16 440.12 212.08 440.16 212 440.24 211.94 440.27 211.86 440.28 211.78 440.27 211.72 440.3 211.66 440.29 211.64 440.27 211.62 440.25 211.6 440.25 211.59 440.22 211.55 440.22 211.53 440.22 211.47 440.22 211.45 440.19 211.39 440.17 211.31 440.15 211.22 440.15 211.12 440.18 210.97 440.26 210.85 440.62 210.46 440.93 209.92 441.01 209.82 441.12 209.77 441.15 209.77 441.18 209.79 441.22 209.8 441.25 209.78 441.26 209.75 441.28 209.69 441.29 209.65 441.32 209.57 441.36 209.51 441.4 209.46 441.45 209.42 441.5 209.42 441.55 209.44 441.58 209.49 441.61 209.56 441.61 209.59 441.6 209.6 441.59 209.62 441.59 209.63 441.6 209.66 441.61 209.67 441.62 209.68 441.62 209.69 441.63 209.73 441.64 209.76 Z M 442.61 209.14 442.62 209.21 442.65 209.22 442.72 209.19 442.79 209.2 442.83 209.21 442.87 209.25 442.85 209.27 442.84 209.28 442.82 209.28 442.81 209.28 442.77 209.33 442.67 209.3 442.62 209.32 442.57 209.37 442.48 209.41 442.43 209.48 442.46 209.51 442.47 209.53 442.48 209.56 442.47 209.6 442.41 209.71 442.4 209.73 442.37 209.73 442.33 209.71 442.3 209.68 442.28 209.65 442.2 209.49 442.2 209.44 442.22 209.41 442.27 209.35 442.28 209.31 442.29 209.27 442.31 209.23 442.33 209.19 442.37 209.18 442.45 209.18 442.48 209.15 442.5 209.15 442.53 209.16 442.57 209.17 442.61 209.14 Z M 426.02 208.85 426.02 208.92 426.02 208.95 426.04 208.97 426.01 209.08 426.01 209.11 425.98 209.13 425.96 209.13 425.95 209.1 425.96 209.05 425.92 209.03 425.89 209.07 425.86 209.14 425.85 209.25 425.83 209.28 425.8 209.3 425.76 209.29 425.74 209.31 425.72 209.34 425.7 209.37 425.67 209.36 425.65 209.35 425.64 209.32 425.62 209.31 425.57 209.3 425.55 209.29 425.55 209.24 425.54 209.2 425.53 209.16 425.52 209.13 425.53 209.09 425.55 209.07 425.61 209.09 425.64 209.08 425.6 209.06 425.55 209.06 425.5 209.04 425.49 208.98 425.5 208.9 425.55 208.89 425.64 208.91 425.85 208.91 425.89 208.89 425.93 208.85 425.97 208.83 426.02 208.85 Z M 426.13 208.07 426.17 208.13 426.19 208.21 426.19 208.31 426.19 208.49 426.17 208.57 426.12 208.59 426.06 208.6 425.95 208.69 425.83 208.65 425.78 208.68 425.74 208.6 425.68 208.58 425.62 208.6 425.57 208.65 425.54 208.69 425.54 208.72 425.53 208.74 425.51 208.74 425.48 208.72 425.41 208.65 425.41 208.8 425.4 208.8 425.38 208.69 425.38 208.66 425.31 208.58 425.28 208.55 425.29 208.49 425.33 208.42 425.55 208.21 425.63 208.18 425.69 208.12 425.72 208.1 425.75 208.1 425.82 208.12 425.85 208.1 425.84 208.06 425.85 208.02 425.86 207.98 425.88 207.96 425.87 207.92 425.87 207.9 425.9 207.88 425.94 207.88 426.02 207.9 426.05 208 426.09 208.03 426.13 208.07 Z M 437.39 207.95 437.36 207.96 437.35 207.94 437.32 207.88 437.31 207.82 437.34 207.8 437.39 207.82 437.41 207.84 437.42 207.87 437.42 207.92 437.39 207.95 Z M 442.76 207.63 442.67 207.66 442.59 207.61 442.53 207.44 442.61 207.44 442.67 207.48 442.79 207.51 442.85 207.55 442.76 207.63 Z M 437.37 207.42 437.38 207.43 437.38 207.45 437.35 207.49 437.33 207.5 437.3 207.5 437.34 207.54 437.34 207.55 437.32 207.55 437.3 207.57 437.31 207.6 437.34 207.65 437.4 207.7 437.44 207.7 437.48 207.68 437.5 207.69 437.5 207.69 437.49 207.69 437.48 207.72 437.47 207.73 437.45 207.75 437.42 207.77 437.38 207.77 437.34 207.76 437.3 207.72 437.27 207.67 437.26 207.64 437.25 207.62 437.24 207.59 437.24 207.57 437.23 207.54 437.21 207.5 437.22 207.46 437.26 207.44 437.28 207.44 437.31 207.42 437.32 207.42 437.33 207.42 437.36 207.41 437.37 207.42 Z M 440.68 205 440.65 205.04 440.6 205.07 440.59 205.09 440.57 205.1 440.55 205.09 440.54 205.12 440.56 205.15 440.6 205.16 440.6 205.18 440.54 205.19 440.5 205.21 440.43 205.23 440.38 205.27 440.36 205.27 440.34 205.26 440.33 205.24 440.33 205.21 440.37 205.14 440.4 205.1 440.48 205.04 440.51 205.03 440.54 205.03 440.56 205.02 440.58 205.01 440.61 205 440.68 204.95 440.69 204.96 440.68 205 Z M 440.38 204.76 440.38 204.78 440.3 204.81 440.3 204.82 440.31 204.81 440.33 204.81 440.34 204.82 440.33 204.87 440.32 204.89 440.3 204.87 440.29 204.86 440.27 204.88 440.25 204.87 440.23 204.84 440.22 204.85 440.23 204.89 440.23 204.93 440.23 204.96 440.22 205 440.19 205.02 440.16 205 440.12 204.95 440.11 204.96 440.09 204.97 440.06 205.01 440.03 205.04 440.01 205.03 440.01 205.01 440.02 204.99 440.03 204.93 440.04 204.9 440.07 204.89 440.08 204.88 440.08 204.85 440.08 204.82 440.11 204.79 440.13 204.77 440.18 204.77 440.23 204.75 440.28 204.75 440.38 204.76 Z M 439.21 205.19 439.19 205.2 439.2 205.23 439.22 205.29 439.2 205.29 439.14 205.2 439.14 205.22 439.12 205.21 439.1 205.16 439.1 205.09 439.09 205.05 439.07 205.05 439.07 205.02 439.07 204.94 439.09 204.87 439.12 204.82 439.12 204.79 439.12 204.76 439.12 204.72 439.11 204.6 439.13 204.56 439.15 204.55 439.16 204.59 439.17 204.61 439.18 204.62 439.19 204.62 439.21 204.65 439.22 204.7 439.24 204.76 439.25 204.83 439.25 204.89 439.24 204.93 439.24 204.96 439.24 205.01 439.24 205.06 439.24 205.1 439.23 205.14 439.22 205.17 439.21 205.19 Z M 440.91 204.62 440.87 204.65 440.86 204.68 440.85 204.7 440.85 204.73 440.85 204.75 440.84 204.77 440.83 204.79 440.82 204.81 440.8 204.83 440.78 204.82 440.77 204.82 440.76 204.83 440.74 204.83 440.71 204.82 440.69 204.8 440.66 204.75 440.66 204.72 440.67 204.7 440.68 204.71 440.7 204.7 440.69 204.67 440.68 204.64 440.68 204.62 440.69 204.62 440.71 204.62 440.73 204.59 440.74 204.56 440.72 204.55 440.73 204.53 440.82 204.46 440.86 204.42 440.9 204.38 440.93 204.36 440.96 204.36 440.98 204.41 440.98 204.44 440.98 204.46 440.99 204.48 440.98 204.5 440.97 204.51 440.91 204.62 Z M 441.54 204.01 441.38 204.11 441.36 204.1 441.38 204.05 441.4 204.01 441.43 203.96 441.46 203.95 441.49 203.96 441.55 203.97 441.56 203.98 441.54 204.01 Z M 441.63 203.74 441.62 203.76 441.62 203.77 441.62 203.78 441.61 203.78 441.59 203.78 441.57 203.76 441.55 203.75 441.53 203.75 441.52 203.75 441.5 203.73 441.51 203.69 441.54 203.63 441.58 203.59 441.62 203.58 441.65 203.58 441.67 203.59 441.68 203.6 441.7 203.62 441.69 203.64 441.67 203.66 441.65 203.69 441.63 203.74 Z M 441.06 203.62 441.26 203.75 441.14 203.75 441.09 203.74 441.04 203.69 441.05 203.79 441.08 203.82 441.18 203.81 441.12 203.89 441.05 203.88 440.94 203.78 440.85 203.75 440.85 203.74 440.83 203.68 440.82 203.66 440.78 203.63 440.66 203.57 440.92 203.58 441.06 203.62 Z M 441.45 203.25 441.46 203.26 441.49 203.28 441.52 203.34 441.54 203.35 441.54 203.35 441.55 203.38 441.56 203.43 441.54 203.48 441.51 203.52 441.41 203.57 441.4 203.57 441.39 203.55 441.4 203.52 441.41 203.51 441.42 203.5 441.42 203.47 441.41 203.43 441.4 203.4 441.37 203.37 441.35 203.33 441.34 203.31 441.31 203.28 441.33 203.26 441.43 203.26 441.43 203.25 441.45 203.25 Z M 440.45 203.28 440.42 203.29 440.4 203.29 440.35 203.28 440.36 203.3 440.39 203.35 440.37 203.39 440.32 203.4 440.27 203.39 440.21 203.36 440.17 203.32 440.16 203.29 440.15 203.26 440.13 203.23 440.14 203.2 440.17 203.18 440.43 203.25 440.45 203.28 Z M 441.82 203.18 441.8 203.2 441.78 203.18 441.78 203.15 441.79 203.13 441.82 203.14 441.83 203.16 441.82 203.18 Z M 442 203.23 441.98 203.25 441.94 203.23 441.91 203.19 441.9 203.18 441.89 203.16 441.89 203.13 441.91 203.11 441.94 203.11 441.97 203.14 441.99 203.16 442 203.19 442 203.23 Z M 441.92 203.06 441.88 203.11 441.83 203.1 441.81 203.03 441.84 202.96 441.89 202.94 441.92 202.93 441.93 202.94 441.95 202.96 441.95 202.99 441.92 203.06 Z M 441.42 202.55 441.43 202.56 441.44 202.55 441.54 202.52 441.53 202.55 441.41 202.61 441.36 202.67 441.33 202.68 441.31 202.7 441.3 202.75 441.28 202.75 441.25 202.73 441.24 202.73 441.24 202.75 441.23 202.76 441.22 202.76 441.24 202.85 441.23 202.89 441.21 202.91 441.19 202.89 441.18 202.86 441.19 203 441.17 203 441.15 203.01 441.13 203.04 441.12 203.04 441.11 203.01 441.1 202.97 441.09 202.93 441.07 202.9 441.05 202.86 441.05 202.81 441.04 202.79 441.03 202.77 441.04 202.74 441.06 202.72 441.09 202.72 441.12 202.73 441.14 202.78 441.14 202.78 441.13 202.76 441.14 202.74 441.15 202.73 441.17 202.73 441.18 202.72 441.18 202.72 441.16 202.72 441.15 202.72 441.14 202.71 441.13 202.7 441.12 202.71 441.11 202.69 441.12 202.66 441.14 202.62 441.19 202.57 441.21 202.53 441.25 202.5 441.3 202.48 441.35 202.48 441.4 202.5 441.42 202.53 441.42 202.55 Z M 442.06 202.16 442.05 202.18 442.02 202.19 441.98 202.18 441.96 202.17 441.92 202.3 441.91 202.34 441.89 202.35 441.86 202.36 441.81 202.33 441.8 202.28 441.83 202.24 441.98 202.05 442.01 202.03 442.04 202.06 442.07 202.12 442.08 202.12 442.09 202.14 442.08 202.16 442.07 202.16 442.06 202.16 Z M 441.64 202.38 441.61 202.39 441.58 202.38 441.58 202.37 441.62 202.35 441.66 202.31 441.71 202.26 441.73 202.22 441.82 202.12 441.95 202.02 441.95 202.05 441.91 202.12 441.8 202.25 441.79 202.26 441.74 202.3 441.73 202.31 441.74 202.33 441.73 202.34 441.71 202.34 441.69 202.34 441.64 202.38 Z M 442.1 201.33 442.1 201.35 442.11 201.35 442.11 201.34 442.11 201.35 442.12 201.36 442.12 201.39 442.11 201.41 442.09 201.43 442.05 201.45 442.02 201.44 441.99 201.43 441.97 201.42 441.97 201.43 441.95 201.45 441.93 201.44 441.88 201.45 441.86 201.41 441.89 201.34 441.99 201.18 442.01 201.12 442.03 201.11 442.05 201.12 442.07 201.13 442.09 201.17 442.11 201.21 442.11 201.27 442.1 201.33 Z M 441.64 199.73 441.64 199.73 441.65 199.72 441.66 199.72 441.67 199.72 441.69 199.76 441.69 199.79 441.63 199.83 441.59 199.84 441.53 199.83 441.51 199.82 441.5 199.79 441.48 199.74 441.48 199.7 441.48 199.67 441.49 199.64 441.5 199.63 441.52 199.63 441.52 199.62 441.48 199.56 441.49 199.54 441.54 199.55 441.57 199.58 441.59 199.6 441.6 199.64 441.61 199.65 441.63 199.66 441.65 199.69 441.65 199.72 441.64 199.73 Z M 440.87 198.48 440.93 198.53 440.95 198.59 440.91 198.58 440.86 198.54 440.83 198.53 440.85 198.59 440.95 198.8 440.97 198.88 441 198.92 441.03 198.92 441.07 198.87 441.08 198.93 441.09 198.97 441.12 199.05 441.13 199.06 441.14 199.07 441.16 199.08 441.16 199.1 441.16 199.14 441.14 199.14 441.04 199.08 440.92 198.93 440.79 198.86 440.76 198.77 440.75 198.65 440.76 198.42 440.76 198.37 440.73 198.28 440.74 198.24 440.76 198.23 440.8 198.25 440.81 198.27 440.84 198.32 440.85 198.34 440.85 198.36 440.84 198.38 440.84 198.41 440.85 198.43 440.87 198.48 Z M 440.11 187.81 440.13 187.82 440.18 187.79 440.23 187.8 440.25 187.81 440.26 187.85 440.25 187.92 440.23 187.96 440.23 187.99 440.22 188.01 440.19 188 440.17 188.01 440.16 188.03 440.18 188.04 440.19 188.07 440.18 188.1 440.08 188.14 439.96 188.11 439.91 188.01 439.94 187.93 439.96 187.87 439.96 187.82 439.99 187.78 440.04 187.76 440.08 187.78 440.11 187.81 Z M 446.2 183.41 446.16 183.41 446.17 183.36 446.25 183.25 446.26 183.25 446.26 183.28 446.25 183.33 446.23 183.38 446.2 183.41 Z M 446.35 183.15 446.32 183.18 446.3 183.18 446.28 183.18 446.25 183.22 446.24 183.16 446.29 182.92 446.3 182.88 446.32 182.86 446.34 182.85 446.37 182.81 446.41 182.77 446.44 182.76 446.43 182.77 446.42 182.78 446.42 182.8 446.43 182.83 446.42 182.85 446.41 182.87 446.4 182.9 446.41 182.94 446.41 182.99 446.4 183.05 446.38 183.12 446.35 183.15 Z M 446.37 182.76 446.27 182.86 446.29 182.83 446.27 182.78 446.25 182.76 446.22 182.77 446.19 182.79 446.25 182.65 446.34 182.66 446.37 182.76 Z M 449.69 174.11 449.68 174.15 449.63 174.19 449.6 174.21 449.42 174.22 449.4 174.21 449.4 174.15 449.42 174.09 449.45 174.08 449.47 174.1 449.48 174.12 449.5 174.14 449.55 174.11 449.59 174.06 449.63 174.06 449.67 174.08 449.69 174.11 Z M 449.28 174.25 449.28 174.28 449.25 174.27 449.23 174.25 449.21 174.24 449.11 174.21 449.1 174.19 449.08 174.13 449.09 174.08 449.09 174.06 449.09 174.01 449.11 173.98 449.15 173.98 449.23 174.02 449.24 174.05 449.23 174.08 449.22 174.11 449.25 174.15 449.27 174.18 449.28 174.21 449.28 174.25 Z M 450.13 173.78 450.11 173.79 450.07 173.78 450.02 173.75 449.99 173.68 450.01 173.64 450.05 173.66 450.07 173.69 450.09 173.69 450.12 173.71 450.13 173.75 450.13 173.78 Z M 449.44 173.72 449.46 173.72 449.47 173.71 449.49 173.73 449.51 173.77 449.56 173.82 449.56 173.87 449.53 173.89 449.5 173.89 449.48 173.84 449.45 173.81 449.42 173.78 449.38 173.77 449.37 173.79 449.37 173.83 449.37 173.84 449.37 173.86 449.37 173.89 449.4 173.93 449.4 173.95 449.39 173.96 449.36 173.94 449.25 173.8 449.19 173.7 449.18 173.64 449.21 173.62 449.24 173.6 449.27 173.61 449.44 173.72 Z M 450.19 173.36 450.18 173.42 450.14 173.43 450.13 173.46 450.12 173.5 450.11 173.53 450.09 173.55 450.07 173.55 450.04 173.53 450.03 173.53 450.04 173.55 450.03 173.55 449.96 173.5 449.95 173.48 449.94 173.43 449.95 173.41 449.98 173.4 450.01 173.41 450.05 173.4 450.15 173.34 450.19 173.36 Z M 450.11 173.3 450.07 173.34 450.03 173.33 450 173.3 450 173.28 450.03 173.24 450.09 173.24 450.11 173.3 Z M 450.95 172.77 450.94 172.8 450.92 172.79 450.9 172.79 450.9 172.82 450.9 172.87 450.92 172.95 450.89 172.93 450.82 172.85 450.76 172.76 450.72 172.66 450.73 172.57 450.77 172.54 450.83 172.54 450.89 172.59 450.89 172.63 450.86 172.64 450.86 172.65 450.9 172.68 450.93 172.72 450.95 172.77 Z M 452.76 172.53 452.76 172.58 452.74 172.62 452.73 172.64 452.72 172.66 452.72 172.67 452.7 172.71 452.62 172.79 452.53 172.73 452.49 172.65 452.49 172.54 452.51 172.51 452.53 172.56 452.55 172.58 452.56 172.55 452.57 172.49 452.58 172.5 452.6 172.53 452.63 172.54 452.65 172.55 452.68 172.53 452.7 172.5 452.72 172.51 452.73 172.53 452.73 172.52 452.74 172.48 452.75 172.48 452.76 172.5 452.76 172.53 Z M 450.57 172.69 450.55 172.74 450.45 172.72 450.41 172.7 450.39 172.67 450.38 172.64 450.38 172.61 450.39 172.56 450.39 172.49 450.4 172.41 450.42 172.39 450.52 172.5 450.55 172.58 450.57 172.69 Z M 453.56 172.11 453.51 172.21 453.43 172.22 453.27 172.18 453.29 172.21 453.29 172.23 453.3 172.24 453.32 172.25 453.26 172.28 453.16 172.26 453.1 172.29 453.09 172.32 453.08 172.41 453.06 172.44 453.04 172.44 453.02 172.43 453 172.41 452.97 172.39 452.95 172.37 452.93 172.34 452.92 172.31 452.92 172.26 452.9 172.26 452.88 172.29 452.77 172.29 452.72 172.27 452.69 172.2 452.67 172.11 452.62 172.07 452.51 172.07 452.48 172.09 452.42 172.21 452.39 172.25 452.37 172.25 452.35 172.23 452.34 172.2 452.33 172.18 452.15 172.18 452.06 172.15 452.07 172.07 452.06 172.05 452.03 172.05 452 172.07 452 172.08 451.98 172.15 451.97 172.16 451.95 172.17 451.93 172.18 451.92 172.22 451.94 172.24 451.95 172.27 451.95 172.31 451.95 172.37 451.94 172.41 451.93 172.42 451.91 172.41 451.87 172.4 451.84 172.36 451.81 172.28 451.8 172.19 451.81 172.11 451.77 172.12 451.73 172.16 451.71 172.21 451.68 172.25 451.63 172.25 451.58 172.21 451.49 172.11 451.46 172.08 451.42 172.09 451.39 172.12 451.39 172.22 451.41 172.29 451.44 172.33 451.51 172.4 451.48 172.43 451.33 172.5 451.31 172.52 451.27 172.59 451.27 172.69 451.21 172.74 451.16 172.73 451.18 172.62 451.11 172.47 451.09 172.44 450.96 172.42 450.86 172.36 450.84 172.35 450.79 172.25 450.76 172.24 450.71 172.26 450.67 172.25 450.62 172.19 450.55 171.97 450.51 171.88 450.26 171.66 450.21 171.64 450.17 171.66 450.2 171.72 450.26 171.79 450.28 171.85 450.29 171.89 450.29 172.03 450.3 172.1 450.31 172.15 450.32 172.21 450.31 172.29 450.29 172.36 450.27 172.42 450.24 172.46 450.2 172.47 450.21 172.35 450.16 172.28 450.03 172.25 450 172.27 449.93 172.36 449.9 172.37 449.89 172.32 449.9 172.26 449.93 172.21 449.95 172.18 449.92 172.11 449.88 172.06 449.81 172 449.81 171.98 449.82 171.92 449.67 171.89 449.59 171.9 449.58 172 449.49 172.03 449.58 172.18 449.57 172.24 449.55 172.25 449.47 172.22 449.5 172.27 449.53 172.39 449.57 172.44 449.49 172.58 449.4 172.54 449.31 172.45 449.23 172.44 449.28 172.53 449.32 172.58 449.37 172.61 449.52 172.64 449.57 172.68 449.6 172.77 449.63 172.92 449.6 172.91 449.57 172.92 449.54 172.93 449.52 172.96 449.5 172.83 449.45 172.77 449.39 172.76 449.34 172.81 449.35 172.83 449.36 172.87 449.36 172.91 449.34 172.96 449.35 172.99 449.37 173.03 449.4 173.14 449.35 173.17 449.19 173.18 449.35 173.24 449.43 173.24 449.47 173.14 449.46 173.08 449.41 173.01 449.4 172.96 449.42 172.91 449.45 172.93 449.49 172.99 449.51 173.03 449.49 173.06 449.61 173.12 449.62 173.16 449.52 173.24 449.51 173.28 449.53 173.33 449.58 173.37 449.66 173.4 449.68 173.42 449.69 173.47 449.72 173.58 449.67 173.62 449.62 173.57 449.59 173.51 449.54 173.47 449.48 173.46 449.43 173.43 449.38 173.37 449.35 173.36 449.32 173.4 449.34 173.47 449.27 173.46 449.05 173.29 448.88 173.21 448.81 173.12 448.78 173.08 448.69 173.06 448.61 172.97 448.47 172.92 448.44 172.89 448.42 172.86 448.37 172.75 448.34 172.71 448.27 172.66 448.24 172.62 448.3 172.84 448.43 172.98 448.7 173.14 448.88 173.32 449.03 173.39 449.06 173.42 449.09 173.47 449.14 173.56 449.17 173.58 449.22 173.58 449.16 173.63 449.03 173.63 448.97 173.65 448.95 173.67 448.95 173.69 448.95 173.71 448.93 173.75 448.91 173.76 448.89 173.74 448.87 173.71 448.85 173.71 448.79 173.75 448.49 173.64 448.44 173.65 448.55 173.83 448.61 173.9 448.66 173.87 448.61 173.81 448.59 173.8 448.65 173.79 448.78 173.96 448.84 174.02 448.82 174.09 448.81 174.15 448.79 174.2 448.76 174.23 448.73 174.23 448.69 174.19 448.64 174.09 448.62 174.15 448.62 174.21 448.64 174.26 448.64 174.31 448.61 174.35 448.56 174.36 448.52 174.33 448.5 174.27 448.44 174.33 448.37 174.37 448.3 174.37 448.11 174.3 448.08 174.31 448.11 174.38 448 174.39 447.95 174.37 447.9 174.27 447.85 174.28 447.76 174.31 447.76 174.34 447.85 174.39 447.88 174.38 447.88 174.42 447.72 174.39 447.63 174.41 447.59 174.49 447.61 174.5 447.63 174.52 447.64 174.53 447.55 174.6 447.59 174.62 447.64 174.65 447.68 174.7 447.72 174.77 447.75 174.81 447.8 174.82 447.84 174.79 447.85 174.71 447.89 174.73 447.93 174.76 448 174.86 448.07 174.92 448.11 174.98 448.1 175.05 448.03 175.15 447.93 175.22 447.83 175.23 447.76 175.18 447.73 175.13 447.69 174.99 447.67 174.93 447.64 174.88 447.6 174.83 447.56 174.8 447.52 174.79 447.46 174.73 447.39 174.61 447.32 174.52 447.24 174.53 447.25 174.54 447.28 174.56 447.29 174.56 447.26 174.63 447.17 174.64 447.14 174.71 447.42 174.79 447.49 174.86 447.62 175.11 447.74 175.27 447.9 175.6 447.92 175.71 447.88 175.75 447.76 175.76 447.79 175.8 447.8 175.84 447.8 175.9 447.76 176.05 447.77 176.08 447.77 176.08 447.77 176.08 447.8 176.09 447.85 176.12 447.8 176.16 447.61 176.16 447.59 176.19 447.61 176.27 447.65 176.35 447.67 176.37 447.6 176.43 447.58 176.44 447.55 176.44 447.51 176.41 447.49 176.41 447.49 176.42 447.48 176.44 447.48 176.47 447.47 176.48 447.43 176.51 447.4 176.55 447.39 176.6 447.42 176.66 447.39 176.69 447.12 176.71 447.09 176.73 447.09 176.77 447.1 176.8 447.11 176.84 447.1 176.89 447.08 176.93 447.06 176.97 447.03 177.01 447 177.01 447.02 177.15 446.98 177.21 446.93 177.25 446.95 177.34 446.92 177.37 446.84 177.41 446.8 177.41 446.77 177.38 446.75 177.33 446.75 177.27 446.74 177.23 446.7 177.21 446.67 177.23 446.64 177.28 446.63 177.36 446.64 177.42 446.67 177.45 446.74 177.48 446.73 177.53 446.73 177.55 446.77 177.6 446.8 177.62 446.89 177.63 447.03 177.58 447.17 177.65 447.23 177.69 447.24 177.77 447.21 177.79 447.1 177.78 447.06 177.8 447.1 177.89 447.14 177.96 447.24 178.05 447.24 178.09 447.21 178.09 447.19 178.11 447.2 178.15 447.23 178.19 447.23 178.22 447.17 178.2 447.06 178.08 447.01 178.05 446.96 178.01 446.92 177.93 446.87 177.88 446.82 177.89 446.79 177.96 446.8 178.05 446.82 178.13 446.86 178.19 446.92 178.21 447 178.22 447.06 178.25 447.1 178.34 447.06 178.34 447.06 178.39 447.09 178.45 447.13 178.48 447.18 178.48 447.2 178.49 447.23 178.51 447.24 178.53 447.26 178.6 447.26 178.61 447.28 178.63 447.31 178.7 447.33 178.72 447.35 178.71 447.36 178.68 447.36 178.65 447.35 178.65 447.36 178.59 447.37 178.54 447.38 178.52 447.42 178.55 447.47 178.62 447.52 178.71 447.56 178.76 447.59 178.63 447.61 178.63 447.63 178.65 447.64 178.67 447.64 178.79 447.66 178.85 447.69 178.89 447.73 178.9 447.77 178.9 447.75 178.93 447.72 178.96 447.68 178.97 447.65 178.95 447.59 178.85 447.58 178.83 447.47 178.93 447.41 178.97 447.38 178.92 447.37 178.88 447.36 178.86 447.34 178.86 447.33 178.88 447.32 178.91 447.33 178.93 447.36 178.93 447.41 179.03 447.43 179.05 447.46 179.02 447.49 179 447.58 178.99 447.61 179 447.61 179.02 447.63 179.11 447.64 179.14 447.61 179.22 447.61 179.28 447.64 179.31 447.68 179.32 447.7 179.31 447.73 179.23 447.74 179.22 447.79 179.23 447.83 179.25 447.82 179.18 447.85 179.18 447.87 179.21 447.89 179.25 447.89 179.32 447.88 179.37 447.85 179.38 447.83 179.38 447.8 179.41 447.77 179.45 447.72 179.48 447.69 179.52 447.56 179.74 447.47 179.83 447.43 179.9 447.38 179.95 447.33 179.9 447.29 179.82 447.26 179.77 447.27 179.82 447.27 179.86 447.27 179.91 447.26 179.95 447.27 179.97 447.28 179.99 447.28 180 447.29 180.03 447.25 180.04 447.19 180.09 447.15 180.1 447.12 180.08 447.1 180.06 447.09 180.07 446.81 180.5 446.8 180.51 446.73 180.48 446.73 180.48 446.71 180.5 446.65 180.65 446.48 180.87 446.44 180.97 446.46 181.05 446.45 181.15 446.36 181.34 446.36 181.36 446.35 181.38 446.35 181.45 446.35 181.44 446.36 181.46 446.36 181.48 446.36 181.5 446.36 181.52 446.35 181.52 446.34 181.53 446.33 181.55 446.33 181.66 446.32 181.71 446.31 181.73 446.28 181.74 446.26 181.76 446.25 181.79 446.25 181.8 446.2 181.83 446.16 181.9 446.12 182.07 446.08 182.24 446.06 182.28 445.95 182.38 445.85 182.39 445.83 182.42 445.82 182.48 445.84 182.52 445.87 182.53 445.9 182.52 445.86 182.64 445.83 182.68 445.81 182.67 445.76 182.56 445.73 182.53 445.69 182.52 445.59 182.64 445.58 182.7 445.56 182.75 445.54 182.75 445.51 182.72 445.53 182.67 445.53 182.63 445.51 182.59 445.46 182.53 445.45 182.52 445.34 182.77 445.3 182.83 445.25 182.79 445.26 182.83 445.26 182.86 445.25 182.89 445.25 182.93 445.27 183.04 445.27 183.07 445.25 183.13 445.23 183.18 445.21 183.23 445.18 183.24 445.14 183.23 445.12 183.19 445.12 183.12 445.14 183.05 445.14 183 445.11 182.94 445.08 182.88 445.05 182.86 445.04 182.93 445.04 183.24 445.02 183.36 444.99 183.37 444.95 183.33 444.93 183.28 444.93 183.22 444.94 183.17 444.96 183.1 444.97 183.03 444.96 182.97 444.92 183.03 444.88 183.14 444.86 183.26 444.87 183.38 444.82 183.36 444.67 183.38 444.65 183.39 444.63 183.41 444.6 183.42 444.58 183.39 444.56 183.34 444.55 183.32 444.54 183.31 444.5 183.3 444.45 183.31 444.41 183.35 444.38 183.39 444.36 183.46 444.36 183.52 444.4 183.62 444.23 183.53 444.2 183.53 444.16 183.57 444.08 183.61 444.07 183.63 444.03 183.76 443.95 183.85 443.86 183.92 443.79 184.01 443.78 184.06 443.82 184.19 443.83 184.3 443.82 184.32 443.77 184.34 443.75 184.36 443.72 184.4 443.67 184.45 443.64 184.47 443.53 184.4 443.53 184.33 443.54 184.28 443.53 184.23 443.48 184.2 443.48 184.18 443.49 184.14 443.49 184.13 443.46 184.11 443.4 184.02 443.28 183.98 443.25 183.94 443.21 183.86 443.16 183.82 443.11 183.82 443.05 183.89 443.07 183.91 443.1 183.93 443.16 183.96 443.12 184.08 443.15 184.12 443.21 184.14 443.28 184.2 443.22 184.24 443.18 184.26 443.15 184.26 443.14 184.28 443.16 184.32 443.25 184.46 443.26 184.49 443.26 184.55 443.24 184.56 443.2 184.54 443.12 184.47 442.94 184.23 442.88 184.2 442.88 184.24 442.94 184.4 442.9 184.42 442.85 184.38 442.81 184.32 442.77 184.29 442.74 184.33 442.73 184.41 442.73 184.58 442.73 184.63 442.72 184.71 442.71 184.76 442.71 184.91 442.69 184.97 442.66 185 442.63 184.99 442.62 184.91 442.58 184.99 442.46 185.02 442.41 185.07 442.43 185.09 442.46 185.14 442.43 185.18 442.39 185.29 442.36 185.35 442.41 185.35 442.38 185.43 442.33 185.42 442.24 185.31 442.21 185.42 442.24 185.48 442.31 185.5 442.36 185.51 442.35 185.57 442.32 185.57 442.29 185.57 442.27 185.6 442.25 185.65 442.25 185.69 442.23 185.71 442.2 185.71 442.19 185.69 442.13 185.61 442.11 185.6 442.1 185.56 442.05 185.52 442.03 185.48 442.04 185.42 442.02 185.38 441.98 185.36 441.95 185.33 441.91 185.28 441.86 185.25 441.83 185.27 441.85 185.35 441.82 185.36 441.7 185.31 441.6 185.3 441.57 185.31 441.53 185.35 441.58 185.4 441.92 185.55 441.88 185.62 441.81 185.65 441.67 185.65 441.68 185.7 441.68 185.71 441.65 185.76 441.61 185.76 441.59 185.72 441.58 185.65 441.57 185.57 441.62 185.55 441.73 185.55 441.73 185.51 441.52 185.45 441.45 185.48 441.48 185.51 441.5 185.55 441.5 185.6 441.51 185.65 441.56 185.77 441.58 185.81 441.26 185.71 441.15 185.71 441.15 185.75 441.2 185.75 441.25 185.78 441.29 185.82 441.33 185.87 441.34 185.92 441.36 185.98 441.35 186.03 441.32 186.05 441.27 186.03 441.23 185.99 441.18 185.98 441.13 186.02 441.12 186.06 441.11 186.12 441.09 186.17 441.06 186.22 441.13 186.22 441.04 186.3 441.01 186.32 440.99 186.34 440.98 186.46 440.96 186.49 440.94 186.47 440.86 186.35 440.83 186.33 440.8 186.31 440.76 186.32 440.72 186.35 440.8 186.41 440.84 186.45 440.86 186.52 440.72 186.49 440.71 186.48 440.69 186.42 440.68 186.4 440.66 186.39 440.66 186.41 440.65 186.44 440.65 186.45 440.65 186.46 440.62 186.52 440.56 186.55 440.44 186.59 440.49 186.63 441.06 186.62 441.12 186.65 441.16 186.72 441.18 186.79 441.16 186.81 441.13 186.79 441.11 186.72 441.09 186.72 441.07 186.81 441.02 186.83 440.96 186.81 440.83 186.73 440.79 186.76 440.77 186.85 440.87 186.93 440.91 186.95 440.99 186.92 441.03 186.91 441.06 186.95 441.04 187.05 440.95 187.06 440.79 187.02 440.82 187.08 440.93 187.13 440.95 187.18 440.94 187.23 440.93 187.26 440.9 187.28 440.85 187.29 440.83 187.31 440.81 187.34 440.79 187.35 440.74 187.38 440.71 187.38 440.67 187.36 440.63 187.36 440.62 187.35 440.61 187.34 440.61 187.32 440.6 187.29 440.53 187.19 440.49 187.15 440.45 187.15 440.46 187.17 440.47 187.22 440.36 187.22 440.36 187.25 440.38 187.27 440.39 187.3 440.38 187.34 440.36 187.38 440.41 187.41 440.48 187.32 440.53 187.35 440.47 187.5 440.44 187.56 440.4 187.58 440.38 187.6 440.36 187.64 440.33 187.67 440.31 187.64 440.31 187.6 440.32 187.57 440.33 187.53 440.35 187.52 440.31 187.5 440.29 187.54 440.27 187.6 440.25 187.65 440.21 187.69 440.17 187.7 440.07 187.68 440.08 187.64 440.09 187.62 440.05 187.59 440.01 187.58 439.92 187.58 439.98 187.5 440.17 187.53 440.22 187.45 440.13 187.41 440.09 187.37 440.06 187.32 440.06 187.31 440.07 187.3 440.07 187.3 440.07 187.29 440.02 187.3 439.94 187.36 439.87 187.43 439.84 187.5 439.83 187.52 439.79 187.5 439.76 187.47 439.74 187.45 439.73 187.41 439.74 187.23 439.73 187.22 439.71 187.18 439.71 187.15 439.71 187.13 439.73 187.08 439.74 187.07 439.73 186.99 439.7 186.99 439.66 187.02 439.63 187.02 439.62 186.98 439.58 186.8 439.56 186.76 439.54 186.73 439.51 186.7 439.48 186.69 439.49 186.66 439.53 186.59 439.48 186.59 439.41 186.67 439.37 186.69 439.33 186.66 439.29 186.62 439.26 186.59 439.22 186.62 439.5 186.87 439.56 186.97 439.6 187.06 439.66 187.22 439.68 187.37 439.65 187.45 439.65 187.48 439.74 187.55 439.77 187.58 439.8 187.62 439.8 187.64 439.8 187.73 439.82 187.79 439.89 187.91 439.91 188 439.9 188.05 439.88 188.13 439.88 188.16 439.89 188.21 439.89 188.23 439.87 188.24 439.84 188.25 439.83 188.24 439.78 188.19 439.75 188.18 439.62 188.18 439.66 188.24 440 188.39 440 188.45 440.01 188.49 440.02 188.52 440.04 188.54 439.99 188.56 439.83 188.71 439.82 188.7 439.81 188.64 439.8 188.49 439.8 188.46 439.79 188.45 439.76 188.45 439.75 188.46 439.74 188.5 439.71 188.65 439.71 188.69 439.71 188.72 439.7 188.76 439.68 188.78 439.63 188.8 439.66 188.87 439.59 189 439.55 189.05 439.51 189.07 439.48 189.05 439.45 188.99 439.43 188.97 439.31 188.97 439.22 189.01 439.17 189.05 439.14 189.1 439.15 189.19 439.18 189.21 439.23 189.24 439.25 189.3 438.96 189.29 438.93 189.27 438.9 189.25 438.86 189.18 438.85 189.17 438.75 188.97 438.65 188.82 438.63 188.8 438.58 188.83 438.56 188.95 438.52 188.97 438.48 188.98 438.44 189.01 438.42 189.06 438.42 189.13 438.51 189.3 438.52 189.32 438.52 189.36 438.53 189.4 438.52 189.43 438.51 189.45 438.48 189.46 438.45 189.46 438.43 189.46 438.46 189.49 438.48 189.53 438.5 189.58 438.48 189.64 438.48 189.69 438.5 189.75 438.53 189.8 438.55 189.82 438.62 189.8 438.65 189.81 438.69 189.85 438.71 189.9 438.72 189.95 438.74 189.99 438.77 190.02 438.77 190.05 438.74 190.05 438.73 190.05 438.7 190.08 438.89 190.2 438.94 190.17 439.01 190.2 439.08 190.24 439.13 190.28 438.95 190.41 438.89 190.42 438.88 190.4 438.95 190.28 438.91 190.25 438.87 190.26 438.83 190.3 438.81 190.34 438.8 190.41 438.8 190.49 438.81 190.56 438.81 190.6 438.8 190.66 438.79 190.68 438.75 190.76 438.74 190.83 438.73 190.92 438.73 190.98 438.72 191.02 438.67 191.05 438.72 191.08 438.7 191.15 438.63 191.25 438.65 191.27 438.69 191.32 438.7 191.36 438.68 191.38 438.58 191.4 438.55 191.41 438.54 191.46 438.54 191.51 438.54 191.56 438.49 191.57 438.47 191.59 438.46 191.62 438.45 191.67 438.45 191.73 438.46 191.79 438.49 191.88 438.49 191.91 438.48 191.94 438.45 191.97 438.45 191.99 438.44 191.98 438.44 192.02 438.44 192.06 438.45 192.05 438.45 192.06 438.46 192.07 438.47 192.09 438.45 192.14 438.44 192.16 438.43 192.18 438.43 192.2 438.44 192.23 438.47 192.25 438.58 192.22 438.57 192.26 438.55 192.29 438.53 192.31 438.51 192.31 438.51 192.35 438.54 192.37 438.55 192.42 438.54 192.49 438.54 192.57 438.55 192.65 438.57 192.68 438.68 192.65 438.72 192.63 438.75 192.62 438.8 192.66 438.82 192.72 438.84 192.77 438.84 192.82 438.82 192.88 438.8 192.94 438.8 193.02 438.78 193.09 438.75 193.12 438.71 193.11 438.67 193.1 438.64 193.07 438.61 193.02 438.53 192.82 438.49 192.74 438.42 192.7 438.42 192.76 438.43 192.81 438.46 192.89 438.38 192.87 438.35 192.83 438.36 192.76 438.27 192.68 438.18 192.66 437.99 192.66 438.02 192.72 438.05 192.73 438.13 192.73 438.28 192.83 438.26 192.9 438.19 192.96 438.11 192.98 438.05 192.99 438.05 193.02 438.07 193.02 438.11 193.05 438.05 193.08 437.95 193.04 437.9 193.08 438.18 193.15 438.23 193.21 438.18 193.24 438.15 193.23 438.07 193.18 438.02 193.17 437.87 193.18 437.87 193.21 437.95 193.2 437.98 193.22 438.01 193.27 437.91 193.32 437.81 193.33 437.87 193.38 438.1 193.43 438.1 193.46 437.88 193.45 437.86 193.48 437.88 193.5 437.93 193.52 437.97 193.56 438.03 193.58 438.05 193.59 438.05 193.62 437.96 193.62 437.96 193.65 438.05 193.69 438.07 193.72 438.08 193.77 438.06 193.8 438.04 193.83 438.02 193.88 438.03 193.92 438.04 193.95 438.06 193.99 438.08 194.01 438.11 194.01 438.12 193.98 438.14 193.95 438.16 193.94 438.17 193.95 438.17 193.99 438.16 194.02 438.14 194.03 438.12 194.04 438.09 194.05 438.07 194.07 438.05 194.1 438.04 194.06 438.01 194.02 437.99 194 437.97 194.09 437.92 194.13 437.91 194.18 437.93 194.21 437.99 194.32 438.05 194.38 438.13 194.42 438.13 194.47 438.3 194.57 438.23 194.59 438.16 194.58 438.02 194.51 438.05 194.6 438.11 194.64 438.18 194.66 438.23 194.7 438.14 194.69 438.1 194.68 437.98 194.56 437.95 194.55 437.9 194.54 437.9 194.57 437.95 194.6 438.02 194.67 438.08 194.75 438.13 194.82 438.15 194.94 438.12 194.98 438.06 195.01 438.02 195.08 438.1 195.14 438.09 195.25 438.07 195.29 438.04 195.33 438.08 195.39 438.09 195.45 438.06 195.49 438.01 195.49 438.03 195.5 438.09 195.5 438.11 195.52 438.12 195.54 438.13 195.57 438.12 195.6 438.1 195.61 438.08 195.63 438.07 195.68 438.06 195.74 438.05 195.8 438.06 195.82 438.08 195.84 438.1 195.86 438.05 195.91 438.04 195.92 438.15 195.9 438.21 195.91 438.23 195.96 438.1 195.99 438.06 196.05 438.04 196.17 438.03 196.23 438.03 196.25 438.08 196.3 438.12 196.3 438.14 196.31 438.13 196.37 438.14 196.4 438.16 196.46 438.16 196.47 438.2 196.45 438.22 196.46 438.23 196.48 438.31 196.74 438.29 196.74 438.27 196.76 438.26 196.77 438.25 196.8 438.26 196.85 438.27 196.85 438.29 196.84 438.31 196.86 438.31 196.92 438.31 196.97 438.31 197.01 438.34 197.05 438.38 197.06 438.42 197.06 438.43 197.07 438.4 197.14 438.37 197.17 438.3 197.21 438.24 197.29 438.16 197.35 438.11 197.37 438.1 197.39 438.1 197.41 438.11 197.42 438.14 197.41 438.19 197.39 438.21 197.39 438.26 197.4 438.3 197.47 438.37 197.5 438.49 197.6 438.4 197.67 438.4 197.7 438.44 197.72 438.48 197.73 438.52 197.72 438.53 197.72 438.56 197.68 438.6 197.66 438.9 197.61 438.96 197.61 439 197.65 439.03 197.69 439.11 197.74 439.14 197.79 439.12 197.83 439.04 197.88 439.02 197.9 439.03 197.96 439.06 198.07 439.07 198.11 439.1 198.21 439.17 198.26 439.33 198.28 439.33 198.25 439.3 198.12 439.37 197.99 439.49 197.89 439.72 197.83 439.79 197.83 439.84 197.88 439.89 198.04 439.89 198.09 439.87 198.14 439.85 198.17 439.83 198.19 439.83 198.22 439.89 198.23 439.94 198.27 440.04 198.38 440.12 198.43 440.13 198.46 440.14 198.53 440.15 198.56 440.22 198.66 440.3 198.73 440.48 198.8 440.44 198.83 440.39 198.89 440.36 198.93 440.36 198.96 440.39 199 440.41 199.02 440.42 199.05 440.46 199.02 440.52 198.95 440.56 198.93 440.59 198.92 440.62 198.92 440.69 198.96 440.85 198.95 440.89 198.99 440.89 199 440.89 199.04 440.89 199.08 440.89 199.11 440.9 199.13 440.95 199.17 440.95 199.2 440.92 199.21 440.9 199.21 440.87 199.21 440.85 199.23 441.15 199.35 441.24 199.45 441.15 199.5 440.79 199.35 440.72 199.27 440.6 199.08 440.63 199.24 440.72 199.36 440.82 199.46 440.89 199.57 440.85 199.57 440.82 199.55 440.77 199.48 440.79 199.58 440.83 199.65 440.94 199.72 440.99 199.79 441.02 199.82 441.06 199.81 441.09 199.8 441.11 199.78 441.11 199.74 441.12 199.73 441.12 199.87 441.12 199.93 441.13 199.97 441.17 200.11 441.18 200.18 441.2 200.18 441.21 200.11 441.21 200.03 441.2 199.94 441.18 199.88 441.23 199.85 441.29 199.84 441.34 199.85 441.42 199.93 441.5 199.95 441.53 200 441.54 200.07 441.54 200.22 441.55 200.29 441.65 200.43 441.67 200.48 441.63 200.37 441.59 200.26 441.57 200.14 441.6 200.01 441.68 199.97 441.71 199.98 441.72 200 441.71 200.07 441.72 200.15 441.73 200.2 441.82 200.53 441.9 200.74 441.94 200.8 442.04 200.83 442.09 200.86 442.13 200.9 442.14 200.91 442.14 200.92 442.14 200.95 442.14 200.96 442.17 201.02 442.19 201.03 442.21 201.03 442.21 201.01 442.2 200.96 442.2 200.94 442.24 200.94 442.28 200.96 442.27 201.03 442.26 201.2 442.27 201.24 442.19 201.23 442.16 201.21 442 200.95 441.93 200.85 441.86 200.82 441.89 200.87 441.96 201.01 441.97 201.09 441.95 201.16 441.81 201.37 441.77 201.41 441.72 201.42 441.62 201.41 441.57 201.43 441.54 201.46 441.53 201.52 441.57 201.52 441.65 201.48 442.21 201.45 442.31 201.51 442.28 201.61 442.24 201.67 442.2 201.7 442.06 201.74 442.02 201.74 441.99 201.72 441.97 201.69 441.94 201.62 441.92 201.6 441.9 201.67 441.85 201.73 441.8 201.77 441.63 201.82 441.58 201.87 441.58 201.93 441.5 201.93 441.48 201.94 441.48 201.98 441.47 202.01 441.46 202.03 441.44 202.05 441.54 202.05 441.53 202.08 441.5 202.12 441.47 202.16 441.45 202.17 441.43 202.16 441.41 202.13 441.39 202.11 441.36 202.11 441.41 202.19 441.42 202.24 441.4 202.26 441.37 202.27 441.32 202.34 441.22 202.38 441.1 202.5 440.97 202.55 440.91 202.61 440.82 202.74 440.74 202.8 440.66 202.82 440.5 202.8 440.5 202.83 440.57 202.89 440.54 202.92 440.48 202.91 440.45 202.92 440.49 202.94 440.53 202.98 440.51 203.04 440.55 203.08 440.6 203.09 440.65 203.1 440.58 203.15 440.45 203.15 440.32 203.1 440.25 203.04 440.28 203.02 440.31 203.01 440.33 203.02 440.36 203.04 440.35 203 440.34 202.91 440.33 202.89 440.3 202.88 440.25 202.93 440.22 202.95 440.21 202.94 440.18 202.9 440.16 202.89 440.15 202.9 440.12 202.94 440.11 202.95 440.09 202.97 440.09 203.02 440.1 203.07 440.12 203.1 440.05 203.15 440.02 203.16 439.99 203.15 439.95 203.11 439.92 203.1 440.22 203.4 440.15 203.41 440.11 203.4 440.11 203.45 440.28 203.45 440.34 203.42 440.36 203.43 440.38 203.48 440.39 203.48 440.46 203.3 440.61 203.24 440.76 203.27 440.89 203.34 440.88 203.35 440.86 203.38 440.85 203.4 440.91 203.42 440.94 203.41 440.97 203.36 440.91 203.22 440.89 203.16 441 203.16 440.91 203.09 440.87 203.05 440.85 202.98 440.97 202.99 441.03 203.01 441.09 203.07 441.09 203.08 441.1 203.14 441.11 203.16 441.26 203.25 441.23 203.3 441.19 203.3 441.15 203.28 441.11 203.27 441.16 203.3 441.23 203.33 441.3 203.37 441.33 203.44 441.32 203.5 441.27 203.53 441.16 203.54 441.12 203.55 441.09 203.57 441.05 203.58 441.01 203.56 440.99 203.54 440.92 203.52 440.89 203.51 440.71 203.54 440.65 203.51 440.65 203.49 440.66 203.44 440.66 203.42 440.62 203.42 440.58 203.44 440.55 203.47 440.51 203.51 440.54 203.53 440.57 203.56 440.59 203.6 440.6 203.63 440.6 203.66 440.53 203.66 440.51 203.68 440.52 203.74 440.65 203.81 440.7 203.83 440.76 203.87 440.81 203.94 440.85 204.02 440.64 203.85 440.6 203.86 440.59 203.91 440.63 203.94 440.68 203.96 440.71 203.96 440.73 203.99 440.74 204.04 440.76 204.08 440.8 204.05 440.79 204.07 440.79 204.08 440.78 204.09 440.77 204.11 440.77 204.14 440.83 204.11 440.85 204.11 440.86 204.15 440.86 204.2 440.84 204.24 440.82 204.26 440.79 204.24 440.75 204.23 440.66 204.25 440.58 204.3 440.54 204.35 440.57 204.34 440.59 204.34 440.61 204.36 440.62 204.4 440.41 204.5 440.35 204.52 440.37 204.49 440.44 204.45 440.47 204.43 440.44 204.4 440.45 204.38 440.47 204.37 440.47 204.35 440.43 204.34 440.4 204.35 440.36 204.37 440.34 204.41 440.31 204.44 440.24 204.45 440.21 204.46 440.19 204.49 440.14 204.59 440.11 204.61 440 204.61 440 204.63 440.01 204.68 440.01 204.7 439.96 204.67 439.93 204.67 439.91 204.7 439.94 204.77 439.91 204.84 439.85 204.92 439.81 205.02 439.82 205.07 439.83 205.1 439.83 205.14 439.81 205.2 439.79 205.23 439.75 205.25 439.71 205.25 439.68 205.23 439.67 205.28 439.66 205.34 439.66 205.46 439.63 205.43 439.61 205.39 439.6 205.34 439.62 205.28 439.6 205.23 439.59 205.21 439.57 205.19 439.56 205.19 439.54 205.2 439.53 205.2 439.49 205.17 439.47 205.15 439.43 205.06 439.4 205.03 439.4 205.09 439.43 205.18 439.46 205.26 439.44 205.33 439.43 205.36 439.41 205.37 439.4 205.35 439.4 205.31 439.41 205.26 439.42 205.23 439.34 205.19 439.34 205.11 439.35 205.01 439.33 204.93 439.33 204.9 439.36 204.84 439.37 204.7 439.37 204.58 439.36 204.52 439.36 204.5 439.39 204.4 439.39 204.35 439.36 204.32 439.33 204.34 439.31 204.37 439.3 204.41 439.29 204.55 439.28 204.61 439.26 204.64 439.24 204.62 439.16 204.52 439.17 204.45 439.21 204.36 439.22 204.3 439.21 204.25 439.19 204.2 439.17 204.17 439.14 204.14 439.18 204.28 439.15 204.35 439.12 204.4 439.08 204.44 439.04 204.46 439.06 204.55 439.05 204.64 439.05 204.73 439.08 204.79 439.06 204.85 439.05 204.95 439.03 205.01 439.01 204.99 438.98 205.01 438.98 205.01 438.97 205.03 438.96 205.05 438.98 205.07 439 205.09 439.02 205.1 439.04 205.11 439.04 205.14 439.02 205.17 439.04 205.19 439.07 205.22 439.05 205.28 439.01 205.32 438.96 205.31 438.92 205.29 438.87 205.28 438.89 205.34 438.92 205.38 438.99 205.43 438.99 205.46 438.95 205.46 438.96 205.48 438.98 205.49 438.92 205.49 438.75 205.35 438.67 205.31 438.67 205.34 438.71 205.37 438.72 205.42 438.7 205.55 438.68 205.62 438.68 205.65 438.7 205.67 438.71 205.67 438.77 205.72 438.7 205.76 438.43 205.69 438.51 205.81 438.52 205.87 438.48 205.93 438.36 205.92 438.3 205.94 438.3 206.02 438.04 206.01 437.98 205.99 437.95 205.96 437.91 205.89 437.88 205.87 437.85 205.88 437.79 205.92 437.75 205.93 437.78 205.95 437.85 205.96 437.87 205.99 437.87 206.02 437.85 206.06 437.84 206.09 437.82 206.1 437.87 206.13 437.96 206.12 438.01 206.13 438.01 206.16 437.96 206.22 437.92 206.28 437.89 206.31 437.84 206.31 437.71 206.22 437.63 206.21 437.58 206.28 437.69 206.28 437.73 206.32 437.76 206.4 437.71 206.4 437.52 206.46 436.75 206.37 435.98 206.28 435.98 206.31 436.01 206.32 436.04 206.35 436.05 206.39 436.03 206.43 436 206.43 435.91 206.41 435.86 206.43 435.86 206.45 435.89 206.44 435.92 206.43 435.94 206.44 435.95 206.48 436 206.45 436.1 206.5 436.15 206.47 436.18 206.42 436.21 206.41 436.23 206.42 436.28 206.48 436.29 206.48 436.29 206.5 436.29 206.56 436.3 206.59 436.33 206.61 436.35 206.6 436.37 206.59 436.39 206.53 436.4 206.47 436.42 206.4 436.44 206.37 436.47 206.38 436.59 206.44 436.61 206.47 436.88 206.46 436.92 206.48 436.97 206.53 437 206.55 437.09 206.56 437.13 206.6 437.12 206.58 437.11 206.53 437.11 206.51 437.19 206.54 437.22 206.54 437.19 206.62 437.21 206.69 437.25 206.73 437.31 206.74 437.29 206.77 437.28 206.78 437.28 206.8 437.34 206.8 437.34 206.83 437.32 206.87 437.34 206.89 437.43 206.92 437.55 207.03 437.5 207.07 437.39 207.07 437.34 207.09 437.36 207.15 437.31 207.2 437.23 207.23 437.18 207.24 437.16 207.25 437.14 207.29 437.13 207.3 437.11 207.29 437.08 207.27 437.06 207.26 436.79 207.21 436.66 207.13 436.45 207.05 436.38 207.09 436.46 207.1 436.93 207.36 437 207.36 437.03 207.39 437.05 207.44 437.05 207.48 437.04 207.51 437.04 207.55 437.05 207.59 437.07 207.58 437.1 207.57 437.13 207.54 437.14 207.53 437.17 207.55 437.18 207.57 437.18 207.67 436.87 207.61 436.9 207.66 436.98 207.72 437.02 207.76 437.01 207.8 437.02 207.83 437.04 207.85 437.07 207.84 437.08 207.82 437.08 207.8 437.06 207.76 437.19 207.73 437.24 207.74 437.22 207.82 437.2 207.82 437.17 207.81 437.15 207.82 437.15 207.83 437.15 207.86 437.15 207.88 437.14 207.9 437.11 207.92 437.03 207.93 437.03 207.96 437.08 207.97 437.25 208.07 437.23 208.1 437.22 208.1 437.25 208.13 437.27 208.17 437.29 208.23 437.29 208.29 437.29 208.35 437.28 208.36 437.26 208.34 437.23 208.34 437.21 208.35 437.22 208.37 437.24 208.4 437.26 208.42 437.19 208.55 437.07 208.47 436.93 208.32 436.84 208.25 436.87 208.32 436.96 208.41 436.99 208.48 436.97 208.48 436.94 208.48 436.93 208.48 436.98 208.56 437.05 208.66 437.1 208.74 437.05 208.76 437.06 208.82 437.05 208.85 437.02 208.86 436.99 208.85 437.03 208.89 437.07 208.91 437.11 208.93 437.14 208.99 437.12 209.03 437.1 209.04 437.08 209.02 437.06 208.99 437 209.04 436.99 209.06 437.02 209.11 436.97 209.08 436.93 208.95 436.9 208.94 436.87 208.98 436.88 209.04 436.93 209.14 436.96 209.13 436.99 209.14 436.99 209.14 437.01 209.22 437.03 209.26 437.06 209.24 437.08 209.21 437.1 209.21 437.11 209.26 437.11 209.32 437.12 209.35 437.18 209.42 437.2 209.45 437.16 209.45 437.08 209.39 437.1 209.46 437.16 209.52 437.17 209.56 437.15 209.61 437.11 209.61 437.07 209.58 437.04 209.55 437 209.45 436.98 209.44 436.97 209.52 436.95 209.55 436.91 209.55 436.82 209.54 436.83 209.5 436.83 209.46 436.82 209.43 436.81 209.39 436.83 209.39 436.85 209.4 436.88 209.41 436.9 209.42 436.61 209.1 436.59 209.1 436.57 209.13 436.56 209.16 436.57 209.19 436.59 209.22 436.65 209.3 436.77 209.37 436.76 209.38 436.74 209.41 436.73 209.42 436.74 209.47 436.75 209.51 436.74 209.54 436.71 209.56 436.67 209.52 436.63 209.49 436.53 209.45 436.56 209.51 436.55 209.54 436.53 209.52 436.49 209.51 436.49 209.54 436.96 210.08 437.03 210.13 437.02 210.16 436.98 210.15 436.87 210.07 436.84 210.04 436.67 209.77 436.4 209.54 436.41 209.61 436.44 209.66 436.52 209.73 436.64 209.82 436.74 209.95 436.75 209.98 436.77 210.02 436.78 210.04 436.81 210.05 436.84 210.07 436.91 210.15 436.94 210.19 436.91 210.22 436.96 210.22 437 210.24 437.03 210.27 437.05 210.33 437 210.33 437 210.36 437.03 210.36 437.03 210.39 436.88 210.38 436.82 210.35 436.75 210.3 436.76 210.34 436.8 210.39 436.82 210.42 436.84 210.48 436.84 210.52 436.81 210.52 436.76 210.5 436.78 210.54 436.8 210.55 436.83 210.56 436.85 210.59 436.86 210.64 436.85 210.66 436.83 210.66 436.81 210.69 436.79 210.71 436.73 210.77 436.71 210.79 436.7 210.77 436.7 210.73 436.7 210.69 436.7 210.64 436.68 210.67 436.66 210.67 436.64 210.66 436.62 210.64 436.64 210.69 436.65 210.71 436.67 210.73 436.64 210.78 436.62 210.79 436.62 210.81 436.67 210.84 436.67 210.87 436.61 210.87 436.61 210.9 436.78 210.9 436.86 210.93 436.92 211.11 436.97 211.21 436.99 211.29 436.93 211.27 436.96 211.34 436.94 211.35 436.91 211.36 436.88 211.38 436.87 211.43 436.88 211.47 436.91 211.5 436.96 211.52 436.92 211.54 436.88 211.55 436.85 211.58 436.87 211.66 436.74 211.63 436.68 211.65 436.65 211.74 436.73 211.8 436.71 211.84 436.68 211.85 436.68 211.87 436.71 211.91 436.54 212.01 436.51 212.09 436.56 212.22 436.5 212.28 436.48 212.38 436.5 212.49 436.53 212.58 436.6 212.7 436.62 212.72 436.64 212.74 436.66 212.73 436.67 212.73 436.69 212.77 436.73 212.86 436.7 212.88 436.71 212.93 436.74 212.99 436.76 213.03 436.73 213.03 436.65 213 436.65 212.99 436.65 212.97 436.65 212.96 436.64 212.95 436.62 212.95 436.61 212.96 436.61 212.97 436.61 212.97 436.6 212.99 436.59 213.01 436.59 213.03 436.58 213.04 436.58 213.05 436.57 213.04 436.56 213.03 436.52 213.03 436.47 213 436.44 213 436.46 213.03 436.48 213.06 436.5 213.07 436.52 213.09 436.52 213.12 436.47 213.12 436.44 213.16 436.43 213.22 436.44 213.31 436.46 213.36 436.49 213.39 436.5 213.42 436.49 213.46 436.43 213.57 436.43 213.6 436.44 213.71 436.44 213.75 436.43 213.79 436.37 213.99 436.37 214.03 436.39 214.07 436.42 214.09 436.44 214.08 436.47 214.05 436.49 214.03 436.51 214.05 436.52 214.08 436.51 214.11 436.5 214.14 436.47 214.15 436.41 214.12 436.38 214.11 436.35 214.12 436.3 214.16 436.27 214.17 436.26 214.19 436.27 214.24 436.3 214.32 436.31 214.45 436.31 214.52 436.29 214.58 436.26 214.61 436.22 214.62 436.19 214.62 436.13 214.57 436.11 214.58 436.08 214.6 436.05 214.61 436.03 214.63 436.01 214.66 435.96 214.77 435.96 214.79 435.96 214.81 435.95 214.86 435.94 214.94 435.94 215.04 435.93 215.08 435.86 215.08 435.85 215.12 435.83 215.2 435.73 215.41 435.68 215.55 435.61 215.89 435.55 216.21 435.54 216.23 435.51 216.24 435.5 216.27 435.49 216.31 435.48 216.35 435.44 216.4 435.35 216.48 435.32 216.53 435.19 216.81 435.14 216.88 435.1 216.87 435.06 216.83 435 216.8 435.06 216.66 435.08 216.59 435.04 216.55 434.93 216.6 434.87 216.6 434.83 216.53 434.81 216.54 434.79 216.53 434.78 216.51 434.76 216.5 434.74 216.49 434.7 216.46 434.69 216.45 434.65 216.48 434.61 216.55 434.56 216.58 434.53 216.53 434.54 216.5 434.56 216.46 434.57 216.41 434.55 216.39 434.52 216.4 434.44 216.47 434.34 216.52 434.33 216.54 434.32 216.6 434.31 216.62 434.27 216.58 434.25 216.56 434.23 216.53 434.21 216.51 434.18 216.5 434.15 216.51 434.12 216.53 434.09 216.58 434.07 216.62 434.07 216.65 434.06 216.66 433.96 216.67 433.93 216.66 433.9 216.64 433.95 216.61 433.97 216.61 433.95 216.57 433.9 216.47 433.86 216.54 433.77 216.6 433.68 216.61 433.61 216.57 433.59 216.55 433.57 216.56 433.56 216.57 433.54 216.58 433.46 216.58 433.44 216.57 433.43 216.5 433.42 216.47 433.4 216.48 433.35 216.5 433.33 216.5 433.33 216.52 433.35 216.59 433.36 216.61 433.22 216.55 433.15 216.53 433.09 216.57 433.04 216.58 432.97 216.57 432.91 216.57 432.92 216.64 432.87 216.65 432.84 216.62 432.8 216.58 432.75 216.55 432.64 216.56 432.59 216.58 432.55 216.64 432.55 216.67 432.54 216.71 432.55 216.76 432.56 216.77 432.59 216.79 432.61 216.82 432.62 216.85 432.63 216.88 432.69 216.98 432.71 217.03 432.74 217.1 432.71 217.11 432.68 217.13 432.66 217.16 432.64 217.19 432.62 217.21 432.61 217.19 432.6 217.15 432.55 217.15 432.54 217.18 432.53 217.2 432.51 217.19 432.49 217.18 432.47 217.18 432.41 217.18 432.39 217.18 432.38 217.16 432.42 217.12 432.4 217.1 432.38 217.07 432.37 217.04 432.37 216.99 432.32 217.05 432.3 217.02 432.29 217 432.29 216.99 432.27 217 432.22 217.04 432.2 217.05 432.14 217.06 432.09 217.09 432.02 217.21 431.94 217.31 431.89 217.35 431.85 217.37 431.8 217.4 431.77 217.48 431.75 217.55 431.72 217.59 431.63 217.64 431.55 217.76 431.5 217.92 431.47 218.09 431.46 218.24 431.47 218.3 431.49 218.37 431.53 218.41 431.61 218.48 431.64 218.53 431.64 218.57 431.64 218.61 431.65 218.66 431.66 218.7 431.69 218.73 431.74 218.78 431.83 218.93 431.85 219.01 431.84 219.09 431.81 219.14 431.69 219.28 431.65 219.31 431.62 219.33 431.52 219.52 431.48 219.58 431.43 219.61 431.38 219.62 431.24 219.62 431.18 219.61 431.11 219.58 430.94 219.47 430.88 219.45 430.81 219.44 430.77 219.44 430.72 219.48 430.68 219.49 430.65 219.49 430.55 219.47 430.25 219.49 430.21 219.5 430.19 219.53 430.17 219.57 430.14 219.6 430.1 219.62 430.01 219.6 429.93 219.62 429.73 219.76 429.66 219.78 429.51 219.8 429.44 219.79 429.07 219.65 428.95 219.65 428.91 219.63 428.88 219.63 428.87 219.62 428.84 219.59 428.82 219.57 428.77 219.56 428.72 219.57 428.7 219.59 428.67 219.62 428.64 219.63 428.62 219.62 428.59 219.6 428.57 219.6 428.52 219.62 428.48 219.64 428.45 219.64 428.44 219.57 428.51 219.44 428.52 219.44 428.53 219.44 428.55 219.45 428.57 219.48 428.61 219.5 428.66 219.5 428.71 219.48 428.74 219.44 428.73 219.39 428.74 219.36 428.76 219.36 428.78 219.39 428.76 219.28 428.66 219.11 428.63 219 428.66 218.88 428.72 218.8 428.88 218.69 428.9 218.65 428.93 218.61 428.95 218.55 428.95 218.5 428.94 218.42 428.91 218.38 428.88 218.35 428.84 218.29 428.8 218.3 428.76 218.3 428.74 218.22 428.69 218.22 428.65 218.21 428.62 218.15 428.65 218.14 428.67 218.13 428.68 218.1 428.68 218.05 428.65 217.87 428.58 217.8 428.49 217.75 428.42 217.67 428.4 217.61 428.39 217.57 428.39 217.52 428.38 217.5 428.37 217.48 428.35 217.46 428.34 217.45 428.31 217.42 428.3 217.36 428.28 217.29 428.27 217.23 428.23 217.19 428.19 217.17 428.17 217.14 428.16 217.06 428.15 217.02 427.95 216.76 427.93 216.73 427.85 216.54 427.83 216.5 427.81 216.37 427.8 216.34 427.74 216.22 427.72 216.13 427.63 216.06 427.6 216.01 428.03 216.2 428.05 216.21 428.08 216.27 428.09 216.28 428.11 216.29 428.14 216.33 428.16 216.34 428.18 216.33 428.21 216.31 428.23 216.31 428.32 216.32 428.37 216.31 428.41 216.28 428.43 216.23 428.45 216.17 428.44 216.11 428.34 216.05 428.29 215.97 428.22 215.79 428.03 215.65 427.98 215.55 428.06 215.41 428.18 215.36 428.45 215.46 428.57 215.41 428.6 215.36 428.64 215.29 428.67 215.2 428.68 215.12 428.67 215.04 428.6 214.86 428.56 214.68 428.53 214.63 428.47 214.61 428.41 214.62 428.32 214.65 428.29 214.65 428.26 214.65 428.22 214.64 428.11 214.51 428.09 214.46 428.07 214.37 428.04 214.32 428 214.29 427.96 214.22 427.92 214.07 427.93 213.98 427.93 213.94 427.78 213.84 427.77 213.82 427.77 213.81 427.77 213.79 427.77 213.78 427.75 213.77 427.72 213.76 427.71 213.75 427.66 213.67 427.64 213.65 427.57 213.63 427.51 213.6 427.43 213.57 427.39 213.52 427.37 213.45 427.36 213.36 427.36 213.34 427.38 213.31 427.39 213.3 427.39 213.27 427.38 213.23 427.37 213.21 427.37 213.19 427.36 213.16 427.34 213.13 427.27 213.09 427.2 213.04 427.15 212.97 427.14 212.89 427.13 212.88 427.08 212.84 427.13 212.77 427.12 212.72 427.05 212.61 427.05 212.58 427.04 212.5 427.04 212.46 427.02 212.46 426.96 212.46 426.93 212.45 427 212.38 427.02 212.35 427 212.33 426.95 212.33 426.91 212.32 426.87 212.29 426.82 212.25 426.89 212.25 426.92 212.24 426.95 212.22 426.92 212.2 426.88 212.19 426.81 212.19 426.81 212.17 426.83 212.14 426.85 212.11 426.87 212.09 426.92 212.07 426.93 212.05 426.93 212.02 426.92 212 426.92 211.95 426.9 211.91 426.88 211.88 426.85 211.86 426.85 211.85 426.84 211.83 426.83 211.81 426.82 211.8 426.8 211.81 426.76 211.83 426.75 211.83 426.71 211.78 426.74 211.73 426.8 211.67 426.84 211.6 426.73 211.6 426.78 211.57 426.8 211.53 426.8 211.49 426.73 211.34 426.72 211.32 426.7 211.33 426.68 211.35 426.67 211.37 426.65 211.38 426.61 211.44 426.58 211.72 426.55 211.8 426.54 211.73 426.49 211.74 426.45 211.74 426.48 211.63 426.45 211.63 426.43 211.63 426.41 211.62 426.39 211.6 426.41 211.57 426.41 211.51 426.39 211.45 426.39 211.38 426.39 211.31 426.41 211.27 426.44 211.24 426.48 211.21 426.44 211.18 426.4 211.15 426.42 211.15 426.45 211.12 426.4 211.08 426.39 211.07 426.42 211.01 426.4 210.78 426.42 210.67 426.41 210.66 426.38 210.65 426.37 210.64 426.36 210.7 426.33 210.73 426.31 210.73 426.29 210.69 426.29 210.62 426.27 210.58 426.25 210.54 426.23 210.5 426.26 210.41 426.4 210.4 426.43 210.33 426.38 210.36 426.32 210.37 426.26 210.37 426.2 210.36 426.09 210.29 426.04 210.29 426.05 210.36 426.02 210.37 425.98 210.37 425.95 210.35 425.94 210.3 425.95 210.25 426.16 210.04 426.18 210.01 426.17 209.98 426.13 209.97 426.08 209.98 426.05 209.99 426 209.92 425.95 209.83 425.91 209.77 425.84 209.77 425.89 209.71 425.91 209.69 425.94 209.68 425.92 209.59 425.95 209.55 426.07 209.51 426.07 209.48 426.04 209.48 426.04 209.45 426.06 209.44 426.07 209.43 426.08 209.39 426.02 209.35 426.03 209.28 426.13 209.11 426.16 209 426.16 208.94 426.15 208.89 426.13 208.85 426.12 208.81 426.13 208.77 426.16 208.74 426.15 208.72 426.15 208.71 426.14 208.68 426.2 208.67 426.22 208.59 426.24 208.31 426.25 208.29 426.27 208.28 426.3 208.27 426.32 208.26 426.34 208.24 426.36 208.19 426.32 208.2 426.29 208.18 426.27 208.15 426.26 208.04 426.23 208 426.21 207.97 426.19 207.93 426.18 207.83 426.21 207.77 426.34 207.7 426.31 207.65 426.27 207.66 426.17 207.73 426.05 207.71 425.99 207.73 425.99 207.79 425.96 207.81 425.89 207.81 425.78 207.92 425.76 207.93 425.74 207.95 425.69 208.02 425.67 208.05 425.64 208.05 425.61 208.05 425.58 208.04 425.55 208.02 425.56 208.04 425.58 208.1 425.5 208.08 425.48 208.01 425.5 207.92 425.53 207.82 425.58 207.7 425.64 207.61 425.76 207.47 425.73 207.44 425.76 207.39 425.8 207.36 425.87 207.32 425.83 207.26 425.78 207.29 425.73 207.35 425.69 207.41 425.67 207.36 425.62 207.21 425.61 207.15 425.6 207.15 425.61 207.27 425.61 207.42 425.58 207.57 425.54 207.69 425.48 207.79 425.42 207.86 425.26 207.99 425.28 207.93 425.31 207.88 425.33 207.84 425.37 207.82 425.37 207.79 425.33 207.79 425.27 207.83 425.25 207.82 425.23 207.76 425.25 207.72 425.27 207.68 425.3 207.67 425.38 207.66 425.36 207.63 425.32 207.57 425.32 207.47 425.29 207.47 425.26 207.51 425.25 207.56 425.23 207.61 425.2 207.64 425.17 207.65 425.15 207.65 425.16 207.6 425.24 207.43 425.29 207.34 425.3 207.3 425.32 207.24 425.3 207.28 425.21 207.42 425.17 207.45 425.16 207.47 425.15 207.49 425.13 207.54 425.12 207.55 425.06 207.59 425 207.56 424.95 207.56 424.9 207.67 424.87 207.64 424.87 207.62 424.88 207.59 424.88 207.54 424.87 207.5 424.84 207.41 424.85 207.34 424.88 207.31 424.96 207.32 424.94 207.24 424.96 207.2 425 207.17 425.03 207.12 424.95 207.07 424.94 207.05 424.94 207.02 424.92 206.99 424.91 206.96 424.92 206.94 424.93 206.93 424.94 206.92 424.94 206.92 424.94 206.79 424.95 206.76 424.97 206.73 424.99 206.72 425.01 206.7 425.02 206.66 424.97 206.66 424.98 206.6 424.97 206.59 424.95 206.57 424.94 206.54 424.94 206.5 424.96 206.46 424.96 206.43 424.94 206.36 424.85 206.24 424.86 206.15 424.87 206.11 424.85 206.1 424.8 206.1 424.78 206.07 424.78 205.99 424.8 205.92 424.85 205.9 424.84 205.84 424.85 205.81 424.88 205.77 424.9 205.72 424.9 205.69 424.9 205.53 424.89 205.51 424.86 205.5 424.83 205.49 424.82 205.45 424.82 205.34 424.82 205.3 424.8 205.26 424.81 205.24 424.82 205.23 424.82 205.2 424.71 205.16 424.65 205.12 424.62 205.06 424.64 205 424.69 204.96 424.79 204.9 424.7 204.91 424.66 204.89 424.64 204.83 424.65 204.77 424.67 204.73 424.81 204.52 424.87 204.48 425.09 204.44 425.17 204.47 425.2 204.59 425.22 204.68 425.26 204.78 425.3 204.86 425.34 204.9 425.35 204.9 425.35 204.9 425.35 204.9 425.35 204.9 425.39 205.03 425.39 205.31 425.45 205.35 425.6 205.36 425.74 205.32 425.86 205.21 425.92 204.98 425.94 204.87 425.95 204.77 426.01 204.58 426.04 204.47 426.04 204.26 426.1 203.99 426.12 203.92 426.16 203.85 426.18 203.79 426.18 203.79 426.18 203.7 426.17 203.6 426.12 203.31 425.88 202.44 425.87 202.35 425.88 202.23 425.92 202.17 426.22 202 426.27 201.94 426.36 201.8 426.37 201.77 426.37 201.69 426.39 201.52 426.38 201.45 426.36 201.38 426.34 201.36 426.28 201.28 426.25 201.22 426.27 201.07 426.32 201.01 426.36 200.98 426.47 200.94 426.83 200.97 426.92 200.95 427.24 200.69 427.59 200.28 427.67 200.15 427.73 199.98 427.76 199.79 427.76 199.63 427.7 199.34 427.68 199.19 427.69 199.12 427.72 199.06 427.84 198.9 427.88 198.83 427.92 198.75 427.94 198.64 427.96 198.48 427.95 198.34 427.92 198.21 427.67 197.57 427.44 197.13 427.38 196.95 427.34 196.79 427.29 196.46 427.25 196.31 427.17 196.1 427.16 196.01 427.22 195.94 427.73 195.79 427.86 195.78 428.11 195.83 428.16 195.8 428.18 195.75 428.18 195.73 428.22 195.42 428.24 195.36 428.26 195.32 428.42 195.07 428.46 194.97 428.49 194.84 428.57 194.41 428.57 194.35 428.54 194.31 427.96 193.5 427.89 193.43 427.82 193.4 427.67 193.39 427.59 193.37 427.52 193.33 427.35 193.1 427.25 193.01 426.99 192.73 426.96 192.67 427.13 191.47 427.3 190.27 427.3 190.09 427.3 190.02 427.23 189.79 427.22 189.75 426.8 188.59 426.8 188.49 426.83 188.36 426.91 188.12 426.94 187.99 426.95 187.88 426.82 187.14 426.81 187.03 426.83 186.96 427.09 186.58 426.73 185.58 426.58 185.17 427.05 184.35 427.09 184.25 427.09 184.14 426.98 183.64 427.25 183.35 427.67 182.58 428.11 181.85 428.27 181.67 428.78 181.33 429.34 181.17 430.12 181.37 430.9 181.58 430.95 181.58 430.99 181.53 431.36 180.77 431.39 180.68 431.39 180.58 431.29 179.38 431.25 179.26 431.17 179.2 430.99 179.16 430.9 179.12 430.24 178.65 430.83 177.59 431.42 176.53 431.42 176.53 431.72 176.04 431.77 175.89 431.77 175.88 431.78 175.84 431.84 175.35 431.88 175.22 431.92 175.14 432.1 174.96 432.17 174.81 432.18 174.56 432.17 174.28 432.16 174.03 432.28 172.76 432.3 172.68 432.45 172.33 432.47 172.22 432.46 172 432.23 170.46 432.8 170.39 433.37 170.31 434.32 169.64 434.34 169.57 434.34 169.46 434.32 169.28 434.31 169.2 434.2 168.6 434.19 168.45 434.73 167.85 435.55 166.23 435.75 165.97 436.16 165.54 436.29 165.46 436.35 165.39 436.39 165.3 436.45 164.56 436.44 164.46 435.75 163.18 435.87 162.75 435.91 162.69 436.28 162.61 436.42 162.54 436.54 162.4 436.77 162 436.82 161.88 437.16 160.53 437.2 160.42 437.26 160.34 438.17 159.57 438.35 159.23 438.4 159.19 439.03 159.59 439.67 159.99 439.72 159.97 439.79 159.86 439.86 159.71 440.27 158.87 440.32 158.63 440.2 157.45 440.2 157.27 440.25 156.71 440.26 156.64 440.28 156.61 440.32 156.59 440.87 156.38 440.97 156.45 441.33 156.82 441.45 156.85 442.2 156.79 443.18 157.28 444.18 157.73 444.27 157.72 444.36 157.64 444.88 156.96 444.25 156.57 444.67 156.18 444.86 155.86 445.08 155.21 445.11 155.09 445.12 154.97 445.11 154.43 445.09 154.32 444.56 153.63 445.14 153.59 445.71 153.54 445.83 153.66 446.1 153.7 446.25 153.85 446.35 153.89 446.41 153.97 446.4 154.08 446.37 154.18 446.3 154.22 446.29 154.34 446.34 154.42 446.71 154.57 446.89 154.74 447.03 154.89 447.16 155.14 447.19 155.18 447.2 155.19 447.22 155.25 447.23 155.27 447.25 155.28 447.41 155.28 447.45 155.31 447.47 155.37 447.48 155.44 447.55 155.63 447.58 155.69 447.65 155.76 447.82 155.81 448.02 156.01 448.14 156.1 448.18 156.29 448.59 156.41 448.69 156.54 448.7 156.58 448.76 156.67 448.79 156.72 448.82 156.76 448.83 156.77 448.85 156.78 448.85 156.82 448.85 156.87 448.85 156.89 448.93 156.96 449.44 156.97 449.59 157.01 449.6 157.03 449.6 157.09 449.6 157.1 449.78 157.11 449.92 157.2 450.02 157.21 450.11 157.28 450.15 157.28 450.19 157.26 450.23 157.26 450.3 157.33 450.36 157.43 450.43 157.51 450.56 157.46 450.61 157.52 450.71 157.72 450.77 157.81 451.1 158.04 451.13 158.08 451.15 158.13 451.15 158.18 451.16 158.23 451.19 158.29 451.29 158.42 451.33 158.52 451.31 158.66 451.33 158.7 451.34 158.75 451.33 158.9 451.32 158.95 451.31 158.98 451.32 159.04 451.33 159.05 451.34 159.05 451.35 159.09 451.4 159.09 451.59 158.95 451.66 158.95 451.69 158.99 451.72 159.05 451.81 159.41 451.81 159.46 451.83 159.51 452 159.67 452.06 159.72 452.26 159.97 452.41 160.03 452.45 160.1 452.45 160.21 452.39 160.32 452.32 160.38 452.16 160.44 452.09 160.5 452.05 160.61 452.04 160.74 452.05 160.89 452.06 161.01 452.06 161.35 452.07 161.43 452.09 161.52 452.12 161.75 452.13 161.85 452.19 162 452.2 162.09 452.21 162.23 452.17 162.29 452.09 162.35 452.03 162.41 452.06 162.48 452.02 162.6 451.97 162.71 451.94 162.82 451.97 162.96 452.04 163.06 452.12 163.05 452.21 163.01 452.3 163 452.45 163.1 452.6 163.13 452.65 163.15 452.68 163.19 452.68 163.32 452.65 163.49 452.65 163.62 452.72 163.67 452.68 163.85 452.61 163.94 452.36 164.06 452.32 164.11 452.3 164.2 452.29 164.31 452.31 164.36 452.35 164.38 452.33 164.45 452.31 164.51 452.28 164.57 452.26 164.61 452.27 164.73 452.31 164.8 452.36 164.86 452.42 164.98 452.44 165 452.46 165.04 452.47 165.1 452.47 165.17 452.47 165.22 452.48 165.26 452.5 165.31 452.58 165.5 452.63 165.59 452.67 165.63 452.74 165.66 452.79 165.73 452.92 166.02 453.01 166.14 453.05 166.22 453.11 166.38 453.2 166.65 453.21 166.69 453.2 166.74 453.17 166.76 453.11 166.76 453.07 166.77 453.03 166.88 452.96 167 452.96 167.04 452.98 167.25 452.99 167.36 452.98 167.47 452.96 167.58 452.94 167.67 452.95 167.76 452.96 167.86 452.96 167.96 452.94 168.05 452.89 168.1 452.77 168.18 452.77 168.24 452.73 168.3 452.66 168.33 452.6 168.38 452.6 168.47 452.55 168.49 452.48 168.54 452.43 168.63 452.41 168.75 452.42 168.82 452.46 168.92 452.47 168.98 452.47 169.05 452.48 169.15 452.48 169.23 452.48 169.29 452.46 169.36 452.45 169.41 452.46 169.47 452.49 169.6 452.51 169.74 452.59 170.02 452.65 170.11 452.72 170.18 452.95 170.27 453 170.34 453.12 170.7 453.14 170.75 453.17 170.79 453.22 170.84 453.24 170.88 453.27 170.96 453.32 171.23 453.33 171.31 453.32 171.43 453.37 171.54 453.43 171.64 453.48 171.86 453.56 172.01 453.56 172.11 Z" fill-rule="evenodd" id="Sweden" transform="translate(-424.6199951171875,-153.5399932861328) "/></svg>