<svg xmlns="http://www.w3.org/2000/svg" viewBox="0 0 10 6.3899993896484375"><path d="M 421.16 247.57 421.18 247.62 421.18 247.64 421.25 247.74 421.33 247.78 421.39 247.84 421.39 247.97 421.37 248.02 421.28 248.13 421.27 248.16 421.26 248.22 421.25 248.24 421.18 248.33 421.11 248.45 421.07 248.52 421.03 248.63 421.03 248.73 421.04 248.79 421.07 248.84 421.08 248.89 421.09 248.96 421.06 249 421.03 249.03 421 249.07 421.01 249.1 421.06 249.11 421.19 249.14 421.24 249.12 421.28 249.13 421.4 249.12 421.43 249.12 421.85 249.26 421.85 249.29 421.86 249.3 421.87 249.3 421.88 249.31 421.88 249.33 421.87 249.36 421.87 249.44 421.86 249.47 421.86 249.5 421.89 249.54 421.94 249.58 422.18 249.66 422.27 249.74 422.32 249.77 422.41 249.8 422.44 249.8 422.46 249.8 422.52 249.79 422.61 249.74 422.64 249.7 422.64 249.68 422.64 249.65 422.65 249.61 422.69 249.55 422.72 249.55 422.77 249.56 422.82 249.56 422.82 249.5 422.86 249.42 422.92 249.36 422.98 249.32 422.99 249.32 423.01 249.32 423.02 249.33 423.02 249.33 423.02 249.33 423.04 249.35 423.09 249.43 423.16 249.49 423.18 249.51 423.19 249.57 423.17 249.68 423.17 249.75 423.16 249.85 423.15 249.88 423.14 249.9 423.09 249.96 423.1 250 423.11 250.05 423.12 250.1 423.09 250.14 423.05 250.16 423.04 250.19 423.05 250.23 423.04 250.27 423.02 250.31 423 250.33 422.99 250.36 423 250.43 423.04 250.47 423.14 250.48 423.18 250.52 423.2 250.58 423.2 250.67 423.18 250.75 423.17 250.77 423.15 250.8 423.11 250.81 422.95 250.76 422.87 250.77 422.85 250.77 422.82 250.75 422.81 250.74 422.8 250.72 422.78 250.71 422.69 250.68 422.68 250.64 422.69 250.58 422.68 250.54 422.65 250.51 422.59 250.51 422.38 250.57 422.36 250.58 422.35 250.61 422.32 250.71 422.31 250.74 422.26 250.78 422.24 250.81 422.24 250.84 422.24 250.91 422.23 250.94 422.23 250.97 422.23 250.99 422.25 251.01 422.26 251.02 422.23 251.09 422.26 251.13 422.32 251.16 422.42 251.18 422.46 251.19 422.48 251.23 422.46 251.3 422.45 251.32 422.4 251.36 422.38 251.39 422.37 251.44 422.37 251.47 422.38 251.49 422.4 251.53 422.49 251.62 422.52 251.68 422.49 251.74 422.43 251.78 422.33 251.81 422.26 251.81 422.26 251.74 422.24 251.69 422.15 251.61 422.12 251.57 422.1 251.5 422.1 251.43 422.09 251.38 422.03 251.34 421.99 251.33 421.94 251.33 421.85 251.34 421.7 251.42 421.65 251.44 421.62 251.43 421.57 251.4 421.55 251.4 421.52 251.42 421.52 251.46 421.52 251.5 421.52 251.52 421.49 251.57 421.44 251.59 421.19 251.58 421.14 251.56 421.09 251.53 421.06 251.49 421.02 251.38 421 251.36 420.95 251.33 420.94 251.32 420.93 251.3 420.93 251.25 420.92 250.94 420.91 250.92 420.9 250.93 420.86 250.95 420.85 250.97 420.84 251 420.83 251.02 420.8 251.03 420.79 251.02 420.73 250.97 420.73 250.93 420.68 250.91 420.58 250.93 420.53 250.97 420.49 251.04 420.48 251.12 420.5 251.17 420.53 251.19 420.53 251.22 420.53 251.26 420.53 251.3 420.56 251.42 420.56 251.46 420.55 251.53 420.48 251.66 420.45 251.78 420.43 251.81 420.4 251.84 420.38 251.85 420.35 251.87 420.34 251.9 420.33 251.93 420.31 251.96 420.31 251.97 420.15 252.08 420.11 252.14 420.1 252.18 420.11 252.25 420.1 252.29 420.08 252.32 420.06 252.33 420.01 252.35 419.95 252.39 419.95 252.43 419.98 252.54 419.91 252.6 419.91 252.61 419.91 252.62 419.91 252.63 419.91 252.64 419.94 252.66 419.95 252.72 419.97 252.75 420 252.76 420.04 252.77 420.06 252.78 420.09 252.84 420.08 252.89 420.03 253 419.96 253.08 419.89 253.07 419.82 253.04 419.73 253.07 419.74 253.02 419.75 252.98 419.76 252.94 419.76 252.89 419.74 252.84 419.72 252.8 419.69 252.73 419.66 252.68 419.65 252.66 419.63 252.65 419.51 252.58 419.47 252.57 419.44 252.57 419.44 252.56 419.45 252.55 419.49 252.46 419.55 252.38 419.58 252.3 419.53 252.23 419.49 252.22 419.43 252.22 419.39 252.21 419.37 252.2 419.36 252.17 419.35 252.17 419.34 252.17 419.32 252.17 419.29 252.2 419.27 252.21 419.24 252.21 419.13 252.15 419.09 252.14 419.07 252.12 418.93 251.92 418.86 251.85 418.8 251.82 418.75 251.8 418.7 251.77 418.68 251.71 418.67 251.64 418.68 251.55 418.72 251.39 418.72 251.3 418.72 251.2 418.71 251.13 418.68 251.08 418.62 251.07 418.59 251.08 418.49 251.1 418.43 251.13 418.39 251.18 418.37 251.22 418.38 251.24 418.39 251.25 418.39 251.28 418.38 251.31 418.36 251.33 418.33 251.35 418.27 251.39 418.16 251.53 418.11 251.56 418.02 251.58 417.97 251.61 417.93 251.65 417.9 251.68 417.9 251.71 417.9 251.72 417.95 251.76 418.02 251.89 418.03 252.01 417.98 252.11 417.88 252.2 417.86 252.2 417.81 252.21 417.79 252.23 417.77 252.26 417.77 252.29 417.77 252.33 417.76 252.42 417.75 252.43 417.73 252.47 417.73 252.48 417.7 252.52 417.69 252.53 417.66 252.54 417.51 252.57 417.48 252.6 417.45 252.64 417.45 252.7 417.4 252.71 417.4 252.71 417.39 252.74 417.39 252.76 417.39 252.77 417.36 252.79 417.35 252.79 417.31 252.77 417.25 252.78 417.14 252.74 417.12 252.74 417.1 252.75 417.08 252.75 417.06 252.74 417.05 252.73 417.01 252.67 416.98 252.64 416.94 252.62 416.72 252.57 416.68 252.59 416.66 252.62 416.63 252.65 416.59 252.66 416.52 252.69 416.39 252.78 416.32 252.81 416.15 252.79 416.12 252.8 416.06 252.84 415.92 252.9 415.86 252.91 415.78 252.91 415.72 252.89 415.67 252.86 415.57 252.75 415.55 252.73 415.54 252.7 415.52 252.64 415.5 252.57 415.49 252.54 415.48 252.53 415.33 252.36 415.28 252.34 415.26 252.35 415.24 252.36 415.23 252.38 415.21 252.37 415.19 252.36 415.18 252.35 415.19 252.33 415.19 252.31 415.19 252.31 415.19 252.27 415.19 252.24 415.18 252.24 415.19 252.23 415.21 252.21 415.22 252.18 415.23 252.16 415.19 252.13 415.02 252.09 415 252.03 415.02 251.92 415.06 251.81 415.13 251.66 415.08 251.57 415.01 251.49 414.96 251.41 414.98 251.38 415.03 251.31 415.05 251.25 415.05 251.22 415.04 251.19 415.02 251.16 415.02 251.16 414.99 251.15 414.66 251.06 414.51 251.06 414.37 251.08 414.18 251.21 414.11 251.23 414.04 251.23 413.97 251.26 413.9 251.32 413.83 251.4 413.79 251.47 413.77 251.51 413.78 251.54 413.8 251.6 413.81 251.61 413.83 251.66 413.84 251.68 413.86 251.69 413.9 251.67 413.91 251.68 413.92 251.75 413.87 251.81 413.72 251.9 413.61 252.04 413.54 252.07 413.46 252.04 413.36 252.04 413.26 252.07 413.21 252.1 413.24 252.03 413.26 252 413.26 251.97 413.22 251.92 413.2 251.88 413.21 251.84 413.26 251.81 413.4 251.74 413.4 251.74 413.4 251.74 413.41 251.74 413.42 251.75 413.44 251.75 413.45 251.75 413.5 251.73 413.51 251.71 413.51 251.68 413.51 251.65 413.52 251.55 413.53 251.53 413.56 251.46 413.6 251.37 413.6 251.33 413.57 251.29 413.54 251.25 413.43 251.18 413.42 251.18 413.45 251.15 413.45 251.13 413.45 251.11 413.45 251.09 413.44 251.08 413.44 251.06 413.43 251.05 413.43 251.03 413.44 251.01 413.47 250.98 413.54 250.85 413.62 250.75 413.57 250.69 413.56 250.65 413.59 250.61 413.89 250.34 414.05 250.25 414.07 250.23 414.13 250.17 414.2 250.13 414.23 250.11 414.25 250.08 414.26 250.05 414.26 250 414.24 249.98 414.23 249.96 414.22 249.95 414.23 249.93 414.26 249.83 414.28 249.8 414.28 249.79 414.29 249.77 414.29 249.72 414.29 249.69 414.26 249.63 414.25 249.6 414.28 249.49 414.39 249.43 414.63 249.35 414.78 249.24 414.83 249.16 414.8 249.1 414.83 249.05 414.85 249.03 414.91 249.01 414.91 248.99 414.92 248.99 414.95 248.97 414.95 248.91 415.02 248.89 415.16 248.76 415.16 248.76 415.2 248.69 415.27 248.62 415.42 248.51 415.41 248.43 415.42 248.36 415.47 248.32 415.49 248.32 415.5 248.31 415.53 248.27 415.55 248.26 415.58 248.25 415.6 248.24 415.61 248.2 415.59 248.17 415.56 248.14 415.53 248.11 415.48 248.13 415.22 248.16 415.23 248.11 415.26 248.06 415.29 248.02 415.35 247.99 415.35 247.93 415.41 247.91 415.45 247.89 415.48 247.86 415.5 247.84 415.49 247.8 415.46 247.75 415.46 247.72 415.5 247.7 415.52 247.69 415.54 247.68 415.56 247.69 415.58 247.7 415.64 247.71 415.75 247.69 415.8 247.7 415.83 247.72 415.83 247.72 415.86 247.72 415.92 247.72 415.88 247.81 415.89 247.86 415.94 247.89 416 247.91 416.01 247.92 416.02 247.93 416.03 247.94 416.04 247.95 416.06 247.95 416.14 247.91 416.2 247.9 416.26 247.9 416.36 247.91 416.38 247.9 416.42 247.88 416.45 247.84 416.46 247.82 416.47 247.79 416.46 247.78 416.45 247.76 416.45 247.75 416.44 247.73 416.44 247.71 416.46 247.7 416.5 247.72 416.51 247.72 416.52 247.73 416.55 247.74 416.59 247.71 416.59 247.7 416.59 247.69 416.59 247.69 416.59 247.68 416.59 247.68 416.58 247.65 416.57 247.64 416.57 247.63 416.59 247.62 416.61 247.63 416.63 247.62 416.64 247.6 416.64 247.57 416.63 247.57 416.59 247.54 416.59 247.54 416.67 247.47 416.68 247.46 416.74 247.43 416.81 247.4 416.82 247.4 416.93 247.37 416.98 247.36 416.95 247.45 416.93 247.47 416.87 247.47 416.87 247.47 416.95 247.51 416.98 247.53 417.03 247.54 417.13 247.51 417.22 247.5 417.26 247.47 417.29 247.43 417.33 247.37 417.36 247.38 417.51 247.39 417.52 247.41 417.53 247.44 417.53 247.47 417.54 247.48 417.83 247.48 417.93 247.46 417.95 247.44 417.96 247.43 417.97 247.41 417.99 247.39 418 247.38 418.05 247.35 418.09 247.34 418.11 247.32 418.12 247.31 418.13 247.3 418.25 247.28 418.29 247.28 418.35 247.3 418.37 247.3 418.38 247.31 418.4 247.35 418.41 247.38 418.43 247.39 418.52 247.41 418.66 247.42 418.67 247.41 418.73 247.4 418.73 247.39 418.76 247.33 418.82 247.29 418.89 247.28 418.93 247.31 418.95 247.36 418.96 247.36 418.98 247.39 419.01 247.38 419.01 247.37 419.02 247.35 419.02 247.33 419.02 247.3 419.02 247.28 419.02 247.27 419.02 247.26 419.01 247.24 419.02 247.22 419.03 247.22 419.04 247.21 419.05 247.21 419.05 247.22 419.05 247.24 419.07 247.25 419.08 247.17 419.06 247.17 419.05 247.16 419.02 247.15 418.99 247.15 418.89 247.16 418.85 247.18 418.82 247.2 418.79 247.22 418.75 247.22 418.7 247.2 418.65 247.15 418.64 247.15 418.6 247.14 418.61 247.1 418.61 247.07 418.6 247.05 418.6 247.03 418.62 247 418.68 246.97 418.7 246.95 418.72 246.88 418.73 246.86 418.76 246.81 418.78 246.8 418.8 246.81 418.92 246.78 418.96 246.76 418.94 246.71 418.97 246.69 419.03 246.7 419.07 246.71 419.07 246.74 419.07 246.78 419.08 246.82 419.1 246.84 419.13 246.82 419.14 246.75 419.16 246.73 419.19 246.74 419.21 246.77 419.23 246.81 419.24 246.83 419.27 246.84 419.29 246.83 419.31 246.84 419.33 246.87 419.32 246.88 419.29 246.93 419.29 246.95 419.3 246.97 419.31 247 419.32 247.02 419.32 247.04 419.44 247.04 419.42 247.02 419.44 246.96 419.5 246.96 419.57 247 419.63 247.06 419.59 247.06 419.59 247.09 419.62 247.12 419.62 247.12 419.69 247.17 419.74 247.18 419.83 247.17 419.91 247.15 419.94 247.11 419.99 247.09 420.23 247.12 420.36 247.12 420.39 247.17 420.47 247.17 420.56 247.19 421.16 247.57 Z" id="Switzerland" transform="translate(-413.20001220703125,-246.69000244140625) "/></svg>