<svg xmlns="http://www.w3.org/2000/svg" viewBox="0 0 14.75 13.470001220703125"><path d="M 493.89 278.81 493.91 278.84 493.92 278.87 493.94 278.9 493.94 278.94 493.94 278.94 493.87 278.99 493.72 279.13 493.72 279.13 493.72 279.13 493.72 279.13 493.5 279.37 493.05 279.85 492.75 280.16 492.7 280.21 492.63 280.24 491.95 280.39 491.8 280.41 491.74 280.44 491.69 280.5 491.69 280.5 491.69 280.5 491.69 280.5 491.5 280.89 491.48 280.96 491.41 281.64 491.41 281.69 491.42 281.74 491.47 281.87 491.47 281.87 491.47 281.87 491.65 282.24 491.67 282.33 491.68 282.42 491.69 282.79 491.68 282.88 491.64 282.96 491.57 283.07 491.46 283.23 491.46 283.23 491.46 283.23 491.46 283.23 491.44 283.31 491.42 283.58 491.33 283.91 491.31 284.07 491.31 284.14 491.32 284.58 491.34 285.05 491.34 285.12 491.32 285.19 490.94 285.92 490.94 285.92 490.86 286.1 490.81 286.17 490.74 286.21 490.2 286.36 489.87 286.55 489.63 286.7 489.38 286.85 489.14 287 489.05 287.05 488.89 287.14 488.65 287.29 488.4 287.44 488.16 287.59 487.91 287.73 487.67 287.88 487.42 288.03 487.18 288.17 486.93 288.32 486.69 288.47 486.44 288.61 486.2 288.76 485.95 288.91 485.41 289.24 484.93 289.54 484.75 289.66 484.36 289.9 484.36 289.9 484.08 290.08 483.7 290.33 483.32 290.57 483.11 290.7 482.94 290.81 482.56 291.05 482.31 291.21 482.31 291.21 482.31 291.21 482.31 291.21 481.97 291.43 481.62 291.67 481.59 291.68 481.56 291.68 481.42 291.65 481.37 291.64 481.33 291.67 481.25 291.61 480.95 291.57 480.86 291.56 480.83 291.54 480.7 291.52 480.66 291.51 480.63 291.49 480.43 291.31 480.29 291.21 480.22 291.14 480.19 291.12 480.18 291.13 480.16 291.15 480.15 291.16 480.13 291.15 480.11 291.15 480.1 291.14 480.01 291.15 479.98 291.15 479.95 291.15 479.95 291.15 479.95 291.14 479.93 291.11 479.83 290.96 479.81 290.91 479.81 290.86 479.82 290.82 479.81 290.79 479.76 290.79 479.72 290.79 479.7 290.78 479.68 290.77 479.66 290.74 479.67 290.74 479.68 290.73 479.68 290.71 479.68 290.7 479.67 290.69 479.64 290.69 479.63 290.69 479.59 290.65 479.57 290.64 479.33 290.58 479.31 290.56 479.31 290.56 479.31 290.56 479.31 290.56 479.3 290.55 479.29 290.55 479.28 290.55 479.26 290.56 479.32 290.47 479.43 290.34 479.45 290.27 479.44 290.24 479.47 290.16 479.5 290.09 479.52 290.09 479.55 290.03 479.5 289.94 479.49 289.91 479.46 289.66 479.47 289.63 479.38 289.59 479.38 289.55 479.41 289.51 479.43 289.46 479.42 289.39 479.37 289.35 479.36 289.23 479.3 289.19 479.29 289.17 479.36 289.06 479.28 289 479.33 288.98 479.34 288.96 479.38 288.94 479.38 288.9 479.39 288.89 479.39 288.84 479.41 288.83 479.4 288.81 479.46 288.78 479.51 288.75 479.55 288.72 479.62 288.67 479.66 288.58 479.63 288.53 479.65 288.49 479.7 288.48 479.76 288.48 479.8 288.46 479.84 288.43 479.88 288.39 479.89 288.34 479.87 288.31 479.83 288.28 479.79 288.26 479.76 288.25 479.7 288.22 479.66 288.21 479.63 288.2 479.63 288.14 479.64 288.13 479.67 288.12 479.68 288.11 479.69 288.08 479.68 288.04 479.69 288.01 479.7 287.99 479.74 287.95 479.76 287.92 479.79 287.88 479.86 287.81 479.89 287.76 479.91 287.73 479.95 287.71 479.99 287.7 480.03 287.69 480.11 287.64 480.12 287.65 480.15 287.68 480.17 287.69 480.21 287.69 480.25 287.67 480.28 287.65 480.31 287.63 480.35 287.64 480.47 287.7 480.55 287.72 480.59 287.71 480.62 287.67 480.61 287.62 480.58 287.6 480.49 287.58 480.42 287.53 480.41 287.51 480.4 287.49 480.39 287.48 480.44 287.38 480.47 287.34 480.5 287.29 480.59 287.22 480.67 287.12 480.71 287.1 480.74 287.1 480.79 287.12 480.82 287.12 480.85 287.1 480.87 287.07 480.87 287.04 480.88 287 480.93 286.95 481.03 286.87 481.08 286.78 481.14 286.71 481.14 286.71 481.13 286.68 481.07 286.63 481.06 286.59 481.05 286.54 481.06 286.51 481.09 286.48 481.09 286.44 481.08 286.42 481.06 286.42 481.05 286.42 481.03 286.41 481.01 286.39 480.96 286.32 480.95 286.3 480.94 286.28 480.95 286.25 480.95 286.24 480.96 286.23 480.97 286.21 480.97 286.17 480.98 286.14 480.96 286.11 480.93 286.09 480.91 286.09 480.9 286.08 480.86 286.04 480.83 286.03 480.8 286 480.78 285.97 480.76 285.92 480.76 285.92 480.73 285.91 480.67 285.91 480.6 285.91 480.56 285.92 480.56 285.92 480.55 285.92 480.54 285.92 480.54 285.92 480.53 285.91 480.51 285.87 480.55 285.83 480.61 285.8 480.65 285.76 480.66 285.72 480.66 285.68 480.66 285.65 480.69 285.63 480.73 285.64 480.75 285.66 480.77 285.64 480.78 285.56 480.72 285.58 480.67 285.58 480.61 285.56 480.57 285.52 480.52 285.43 480.48 285.4 480.44 285.44 480.43 285.46 480.43 285.51 480.42 285.53 480.4 285.56 480.38 285.57 480.25 285.57 480.23 285.57 480.21 285.55 480.2 285.54 480.18 285.55 480.16 285.56 480.15 285.57 480.05 285.56 479.99 285.56 479.93 285.56 479.88 285.56 479.84 285.55 479.8 285.52 479.78 285.51 479.76 285.5 479.73 285.51 479.72 285.46 479.68 285.37 479.67 285.3 479.65 285.26 479.64 285.24 479.64 285.13 479.64 285.11 479.6 285.04 479.59 285.02 479.58 284.96 479.5 284.77 479.52 284.76 479.52 284.75 479.53 284.73 479.54 284.71 479.53 284.69 479.52 284.68 479.52 284.66 479.53 284.65 479.53 284.64 479.53 284.64 479.52 284.62 479.54 284.58 479.55 284.56 479.57 284.55 479.58 284.51 479.57 284.47 479.56 284.43 479.55 284.4 479.55 284.27 479.57 284.24 479.67 284.08 479.72 284.03 479.7 283.96 479.61 283.79 479.64 283.7 479.63 283.65 479.62 283.48 479.62 283.44 479.6 283.42 479.49 283.27 479.45 283.25 479.42 283.23 479.41 283.2 479.4 283.19 479.36 283.2 479.33 283.21 479.32 283.22 479.29 283.2 479.29 283.17 479.31 283.14 479.31 283.1 479.29 283.09 479.22 283.05 479.22 283.03 479.23 283.01 479.23 282.99 479.22 282.99 479.19 283.01 479.19 282.99 479.23 282.98 479.28 282.95 479.31 282.91 479.32 282.86 479.32 282.83 479.3 282.79 479.29 282.76 479.3 282.74 479.36 282.72 479.44 282.56 479.45 282.54 479.45 282.48 479.44 282.43 479.41 282.36 479.38 282.3 479.35 282.26 479.46 282.27 479.51 282.26 479.54 282.22 479.55 282.17 479.6 282.08 479.62 282.09 479.67 282.08 479.71 282.06 479.76 282.05 479.78 282.09 479.78 282.12 479.78 282.16 479.78 282.19 479.81 282.21 479.84 282.22 479.91 282.22 479.98 282.25 480.11 282.35 480.14 282.34 480.15 282.34 480.17 282.26 480.19 282.07 480.24 281.99 480.31 281.96 480.36 281.98 480.4 281.97 480.41 281.87 480.41 281.87 480.42 281.87 480.42 281.87 480.46 281.85 480.55 281.89 480.59 281.87 480.59 281.79 480.6 281.4 480.6 281.36 480.61 281.34 480.63 281.32 480.63 281.3 480.6 281.26 480.63 281.23 480.65 281.27 480.68 281.29 480.71 281.3 480.77 281.31 480.79 281.31 480.8 281.31 480.82 281.3 480.83 281.28 480.83 281.27 480.84 281.25 480.86 281.24 480.91 281.23 481.07 281.26 481.12 281.26 481.27 281.23 481.29 281.21 481.28 281.15 481.28 281.11 481.26 281.06 481.24 281.02 481.24 281.02 481.21 280.99 481.18 280.98 481.1 280.97 481.08 280.95 481.09 280.94 481.1 280.92 481.12 280.88 481.12 280.85 481.12 280.83 481.11 280.82 481.1 280.8 481.09 280.79 481.05 280.77 481.04 280.76 481.03 280.74 480.98 280.59 480.98 280.54 480.99 280.5 481.05 280.4 481.06 280.28 481.06 280.16 481.09 280.04 481.12 279.98 481.13 279.92 481.13 279.87 481.14 279.81 481.16 279.75 481.2 279.71 481.23 279.65 481.22 279.58 481.24 279.58 481.26 279.59 481.26 279.59 481.67 279.73 481.81 279.74 481.85 279.75 481.9 279.77 481.94 279.79 481.97 279.82 482.04 279.88 482.06 279.92 482.06 279.98 482.04 280.06 482.05 280.1 482.09 280.13 482.13 280.16 482.15 280.15 482.17 280.13 482.21 280.09 482.25 280.07 482.28 280.08 482.32 280.09 482.36 280.09 482.5 280.06 482.55 280.05 482.91 280.12 483.01 280.12 483.33 279.91 483.47 279.85 483.83 279.77 484.19 279.61 484.25 279.59 484.29 279.57 484.51 279.43 484.65 279.37 484.73 279.36 484.88 279.38 485.3 279.51 485.41 279.57 485.64 279.82 485.71 279.88 485.84 279.95 486 279.97 486.36 279.96 486.41 279.94 486.52 279.93 486.86 280.05 486.98 280.04 487.43 279.96 488.15 279.82 488.62 279.64 488.84 279.51 488.92 279.48 489.01 279.47 489.09 279.43 489.25 279.32 489.54 279.13 489.58 279.1 489.63 279.08 489.68 279.07 489.73 279.07 489.83 279.04 490.13 278.87 490.24 278.83 490.65 278.77 491.18 278.88 491.28 278.92 491.33 278.93 491.95 278.9 492.87 278.68 493.12 278.62 493.22 278.57 493.38 278.41 493.5 278.26 493.53 278.24 493.57 278.21 493.59 278.24 493.6 278.27 493.59 278.3 493.59 278.31 493.63 278.32 493.69 278.35 493.7 278.34 493.72 278.33 493.73 278.32 493.75 278.32 493.76 278.34 493.77 278.36 493.78 278.38 493.85 278.44 493.87 278.45 493.88 278.48 493.84 278.64 493.87 278.67 493.89 278.69 493.89 278.73 493.89 278.81 Z" id="Syria" transform="translate(-479.19000244140625,-278.2099914550781) "/></svg>