<svg xmlns="http://www.w3.org/2000/svg" viewBox="0 0 798 1364"><path d="M 664.42 284.78 665.06 287.01 662.19 289 661.32 285.89 664.42 284.78 Z M 656.86 253.83 657.1 255.34 654.87 256.3 654.47 253.83 656.86 253.83 Z M 752.2 7.21 754.19 8.96 757.06 8.08 759.05 10.31 762.15 9.43 767.64 11.82 769.63 14.52 772.98 12.06 775.36 14.29 777.59 14.29 780.22 12.06 780.46 8.32 781.97 7.68 785.31 11.18 787.54 11.18 788.65 13.81 791.28 15.8 799 17.15 798.84 20.65 797.01 21.76 798.6 27.09 796.37 27.09 792.39 23.12 789.53 22.48 784.91 27.09 785.07 29.56 788.42 31.95 783.8 33.54 778.71 32.42 775.6 33.7 772.26 40.38 769.87 41.65 766.05 47.46 769 49.45 771.86 45.23 777.11 44.76 778.23 42.37 779.82 42.53 780.93 44.12 780.46 46.11 783.08 48.97 784.2 48.5 785.07 50.48 787.54 50.48 788.42 48.5 793.27 49.61 790.64 55.18 793.99 56.29 794.15 54.06 795.5 53.83 796.37 56.93 798.6 57.41 799 61.54 793.99 65.12 793.27 67.51 790.17 70.21 788.89 70.37 787.78 68.38 782.05 68.23 774.73 77.06 772.1 78.57 769.87 78.17 768.28 86.52 773.37 92.97 773.61 97.82 770.75 103.55 772.1 104.18 772.26 106.41 769.39 106.65 769 109.52 767.17 111.11 770.51 115.48 770.27 117.95 766.29 120.18 763.9 118.82 763.66 115.24 759.69 115.08 752.2 123.04 749.1 123.68 750.61 128.53 753.72 132.27 753.08 137.36 749.98 140.46 748.38 139.59 747.27 129.88 744.64 129.4 738.04 131.63 737.8 134.02 735.81 135.13 736.45 132.75 733.34 129.64 734.06 126.06 729.6 122.56 730.08 121.69 726.1 124.55 724.99 123.2 723 124.15 713.29 113.49 706.6 115.24 706.2 119.22 701.99 119.22 702.62 117.95 700.87 116.36 699.76 112.38 700 109.99 701.35 110.15 701.99 108.64 700 104.9 700.87 101.16 700 98.06 697.37 96.07 696.49 93.6 696.26 90.98 698.25 86.13 691.56 82.55 690.92 78.41 692.67 77.69 693.39 75.31 696.41 74.35 701.51 76.34 704.21 80.4 707.08 79.28 709.71 80.56 714.8 80.16 717.03 77.29 720.29 77.45 720.37 72.2 721.4 69.5 724.75 66.87 724.99 63.77 723.63 56.93 720.53 54.46 720.77 48.1 724.51 44.99 726.5 44.76 727.21 43.01 724.51 37.28 721.64 37.28 724.51 31.07 722.12 25.58 723.87 23.75 723.39 17.15 726.1 14.76 732.94 18.26 740.43 16.91 741.3 14.92 745.52 13.17 743.77 6.73 746.39 7.44 747.75 9.19 749.74 8.72 750.85 6.33 752.2 7.21 Z M 774.49 147.54 776.48 149.77 774.73 153.03 772.5 151.28 772.5 152.63 771.15 152.4 769 150.41 770.99 147.78 774.49 147.54 Z M 752.6 1 752.84 4.1 750.21 6.33 750.21 1.87 752.6 1 Z M 56.23 1351.71 55.12 1355.69 54.24 1355.06 53.61 1355.45 56.71 1358.79 55.12 1359.43 52.49 1365 44.77 1364.76 44.77 1361.42 41.67 1361.02 43.18 1356.17 46.76 1354.82 47.88 1352.59 50.5 1353.7 50.74 1351.95 52.25 1352.83 54.72 1351.08 56.23 1351.71 Z M 17.95 1249.8 17.08 1251.39 15.56 1250.92 16.92 1248.53 18.19 1248.77 17.95 1249.8 Z M 20.42 1244.31 19.94 1245.67 16.92 1245.19 17.55 1243.84 20.42 1244.31 Z M 170.99 1229.91 172.98 1231.03 172.51 1232.38 168.29 1231.03 166.14 1234.37 167.41 1237.23 170.76 1236.83 170.76 1238.58 169 1238.35 159.93 1244.07 156.35 1244.95 155.47 1246.94 157.07 1250.04 154.84 1251.15 149.98 1250.04 149.11 1251.39 149.35 1254.5 155.95 1258.71 155.95 1266.19 154.36 1268.66 150.22 1269.69 142.42 1269.29 141.39 1270.81 141.79 1273.91 136.93 1274.62 134.31 1273.67 133.59 1275.74 134.94 1277.89 132.32 1276.61 130.72 1277.73 129.61 1276.61 124.99 1284.73 122.13 1285.44 121.65 1286.96 124.36 1289.82 116.16 1288.94 113.69 1287.43 110.83 1289.58 111.7 1294.04 108.6 1293.56 107.09 1291.81 104.62 1291.81 103.98 1294.27 102.23 1294.04 101.12 1293.4 102.23 1291.41 100.48 1290.3 100.48 1287.83 98.01 1287.83 96.9 1289.42 95.15 1286.08 88.3 1286.96 87.19 1288.94 87.59 1292.05 83.85 1297.14 85.44 1300.88 84.33 1306.21 86.08 1309.71 83.85 1310.42 83.61 1313.69 82.1 1312.81 79.23 1315.04 80.11 1317.03 78.36 1318.78 78.99 1320.77 80.11 1320.77 79.23 1325.62 76.13 1327.37 74.78 1324.74 71.75 1325.22 70.64 1327.37 69.05 1326.1 68.65 1321.24 66.82 1320.77 64.43 1316.15 62.44 1316.15 60.21 1318.38 61.8 1320.53 60.21 1322.12 60.21 1325.38 61.96 1326.34 62.2 1328.48 59.97 1328.32 59.97 1331.83 57.11 1333.81 53.84 1333.18 51.85 1335.17 48.91 1334.93 46.52 1339.38 42.54 1336.44 41.83 1333.81 42.94 1331.59 43.18 1323.39 40.95 1318.38 37.69 1316.79 37.45 1314.8 39.68 1311.46 42.94 1312.81 44.77 1311.3 43.42 1306.45 45.41 1305.33 44.53 1302.87 45.89 1299.6 42.54 1297.62 45.17 1297.14 45.41 1294.27 47.16 1292.68 45.41 1288.94 46.52 1285.44 44.06 1283.85 43.66 1280.59 45.65 1278.6 45.89 1275.9 41.67 1269.05 33.23 1269.93 30.84 1265.71 25.27 1265.71 26.63 1262.85 29.25 1261.97 29.97 1255.37 27.02 1251.79 23.76 1251.15 19.94 1248.29 23.76 1244.55 20.9 1243.44 17.55 1238.58 15.33 1238.35 17.31 1229.52 16.92 1225.06 14.93 1223.07 16.2 1221.8 14.45 1219.33 15.8 1215.99 13.81 1214.72 12.94 1211.61 11.11 1211.14 9.83 1207.4 7.61 1206.05 8.08 1201.43 6.49 1197.45 2.99 1198.33 5.14 1195.07 6.49 1195.23 5.14 1191.09 6.97 1189.1 3.63 1183.13 5.14 1179.31 1.88 1175.34 4.1 1173.59 3.15 1172.47 3.87 1170.48 5.62 1170.09 5.62 1165.87 3.63 1164.76 4.1 1163.64 2.27 1163.4 3.15 1161.41 1 1160.54 3.15 1159.66 2.99 1156.8 5.14 1154.33 6.09 1145.34 8.08 1141.53 12.46 1137.55 16.92 1138.02 18.43 1135.4 20.9 1124.5 23.76 1121.48 23.05 1116.15 25.27 1111.53 24 1106.44 26.39 1101.11 36.81 1097.61 39.84 1094.51 41.19 1090.53 45.65 1089.42 50.9 1090.29 55.83 1079.47 63.71 1076.61 65.78 1069.92 68.41 1067.94 72.15 1067.06 81.86 1068.81 91.65 1063.08 96.66 1055.13 101.99 1051.63 103.35 1048.28 109.08 1045.42 113.69 1040.09 116.4 1039.45 119.42 1032.85 119.42 1029.99 129.85 1030.62 133.43 1027.52 139.56 1030.38 142.9 1030.62 143.54 1028.63 148.39 1029.03 150.86 1026.88 159.93 1026.65 161.28 1025.29 166.14 1026.88 167.89 1029.27 184.2 1032.85 186.19 1035 188.18 1043.19 194.15 1048.52 198.13 1049.88 203.07 1049.16 204.34 1051.15 208.08 1050.51 208.08 1053.38 209.91 1055.84 206.81 1055.84 205.93 1057.83 202.59 1058.87 203.07 1066.19 206.09 1068.41 209.04 1066.42 210.79 1066.66 213.41 1069.05 209.67 1076.61 210.55 1079.71 213.65 1082.97 218.9 1083.85 221.37 1076.61 224 1078.6 225.11 1084.96 223.84 1088.54 225.99 1089.42 225.11 1101.11 230.92 1104.85 231.56 1107.55 230.44 1110.18 233.07 1111.69 233.79 1115.03 236.65 1118.14 241.51 1119.25 241.75 1121 240.39 1121.24 240.15 1124.5 238.4 1126.73 232.67 1125.22 232.43 1129.83 228.69 1133.81 228.45 1135.4 229.81 1138.26 231.96 1139.54 231.96 1141.13 229.57 1142.64 229.57 1146.86 226.46 1147.73 226.7 1149.48 228.22 1150.2 227.34 1153.3 227.98 1158.15 230.68 1159.03 231.32 1161.26 230.92 1162.77 226.94 1165.39 228.45 1170.48 225.83 1169.21 220.5 1172.47 218.51 1178.68 214.29 1182.18 212.54 1182.18 212.78 1183.29 215.16 1183.13 214.77 1184.88 210.55 1184.88 209.19 1191.96 206.09 1191.25 202.11 1194.59 197.1 1194.11 196.86 1196.82 193.52 1198.81 194.39 1201.67 192 1203.18 191.29 1208.03 188.66 1208.03 187.31 1211.38 183.81 1211.38 181.82 1213.13 181.58 1214.48 185.08 1216.95 185.16 1218.93 181.82 1220.21 176.72 1218.93 175.61 1219.97 178.08 1223.07 178.95 1229.28 177.36 1229.52 175.21 1226.89 172.51 1226.41 170.99 1229.91 Z M 240.15 1161.89 240.87 1163.88 238.16 1163.24 238.64 1161.26 240.15 1161.89 Z M 206.81 1027.04 205.22 1030.62 201.08 1032.37 202.35 1029.03 206.81 1027.04 Z" fill-rule="evenodd" transform="translate(-1,-1) "/></svg>