<svg xmlns="http://www.w3.org/2000/svg" viewBox="0 0 8.260009765625 8.1400146484375"><path d="M 669.52 317.25 669.47 317.26 669.41 317.24 669.35 317.2 669.32 317.17 669.33 317.15 669.33 317.12 669.32 317.11 669.31 317.09 669.47 317.09 669.47 317.1 669.47 317.11 669.46 317.13 669.46 317.16 669.47 317.18 669.5 317.21 669.52 317.23 669.52 317.25 Z M 669.32 315.76 669.32 315.77 669.31 315.77 669.3 315.77 669.29 315.77 669.28 315.76 669.26 315.75 669.24 315.71 669.23 315.68 669.23 315.67 669.32 315.67 669.33 315.67 669.33 315.69 669.32 315.72 669.32 315.73 669.31 315.75 669.32 315.76 Z M 666.04 313.85 666.02 313.86 666.05 313.82 666.17 313.7 666.26 313.58 666.28 313.58 666.2 313.7 666.16 313.74 666.14 313.77 666.11 313.8 666.08 313.82 666.04 313.85 Z M 665.13 313.47 665.13 313.48 665.16 313.47 665.19 313.47 665.21 313.47 665.22 313.45 665.26 313.52 665.27 313.56 665.27 313.58 665.25 313.57 665.23 313.55 665.2 313.55 665.17 313.57 665.15 313.57 665.13 313.57 665.13 313.59 665.12 313.62 665.11 313.63 665.07 313.65 665.03 313.66 664.99 313.64 664.95 313.6 664.96 313.58 664.99 313.61 665.02 313.62 665.06 313.61 665.08 313.58 665.06 313.57 665.05 313.56 665.03 313.55 665.02 313.53 665.02 313.54 665.02 313.54 665.02 313.54 665.01 313.55 665.01 313.52 665.01 313.48 665.02 313.48 665.04 313.49 665.1 313.45 665.14 313.43 665.13 313.47 Z M 664.8 313.55 664.76 313.55 664.77 313.53 664.78 313.52 664.8 313.52 664.82 313.51 664.84 313.51 664.84 313.49 664.84 313.45 664.87 313.36 664.89 313.34 664.93 313.37 664.91 313.38 664.89 313.41 664.87 313.48 664.87 313.5 664.88 313.52 664.87 313.53 664.85 313.53 664.83 313.53 664.82 313.54 664.81 313.54 664.8 313.55 Z M 665.08 313.4 665.06 313.4 665.05 313.39 665.05 313.36 665.03 313.34 664.99 313.3 665.04 313.27 665.07 313.28 665.09 313.31 665.1 313.33 665.08 313.35 665.09 313.38 665.08 313.4 Z M 662.56 311.27 662.6 311.38 662.59 311.45 662.56 311.49 662.5 311.46 662.46 311.44 662.39 311.45 662.33 311.49 662.3 311.54 662.27 311.55 662.24 311.54 662.22 311.54 662.2 311.53 662.19 311.51 662.19 311.5 662.21 311.48 662.21 311.47 662.22 311.45 662.21 311.43 662.21 311.39 662.19 311.36 662.19 311.34 662.2 311.33 662.27 311.3 662.35 311.36 662.41 311.35 662.42 311.28 662.44 311.23 662.5 311.22 662.56 311.27 Z M 669.63 309.53 669.66 309.59 669.67 309.59 669.69 309.58 669.72 309.58 669.73 309.59 669.73 309.59 669.72 309.6 669.72 309.62 669.72 309.64 669.73 309.65 669.76 309.67 669.76 309.68 669.78 309.69 669.81 309.7 670.2 309.8 670.22 309.82 670.21 309.85 670.21 309.87 670.21 309.91 670.23 309.99 670.25 310.02 670.27 310.03 670.33 310.02 670.36 310.02 670.4 310.03 670.43 310.05 670.45 310.07 670.27 310.16 670.22 310.2 670.07 310.39 670.04 310.43 670.02 310.48 670.01 310.55 670.01 310.61 670.01 310.67 670.04 310.8 670.03 310.84 670.02 310.87 670.02 310.94 670.05 310.99 670.11 311.02 670.17 311.04 670.17 311.05 670.14 311.05 670.12 311.05 670.1 311.06 670.08 311.07 670.1 311.11 670.11 311.17 670.11 311.21 670.06 311.24 670.05 311.26 670.06 311.29 670.07 311.31 670.08 311.33 670.06 311.35 670.01 311.38 669.95 311.45 669.94 311.48 669.95 311.54 669.94 311.56 669.93 311.58 669.92 311.6 669.92 311.66 669.91 311.67 669.9 311.68 669.9 311.69 669.91 311.71 669.91 311.71 669.91 311.72 669.92 311.73 669.93 311.74 669.93 311.75 669.92 311.77 669.87 311.82 669.82 311.89 669.78 311.92 669.76 311.94 669.77 311.95 669.76 311.97 669.71 312.01 669.69 312.03 669.66 312.08 669.64 312.18 669.58 312.27 669.56 312.31 669.56 312.35 669.58 312.39 669.59 312.41 669.6 312.42 669.61 312.43 669.61 312.46 669.6 312.49 669.57 312.54 669.56 312.57 669.56 312.62 669.53 312.76 669.48 312.9 669.41 313.24 669.37 313.32 669.28 313.85 669.24 314.08 669.22 314.12 669.16 314.2 669.14 314.24 669.12 314.29 669.11 314.38 669.11 314.47 669.1 314.55 669.06 314.63 669.05 314.65 669 314.68 668.99 314.7 668.98 314.72 668.96 314.77 668.92 314.84 668.9 314.95 668.88 315 668.79 315.12 668.78 315.14 668.67 315.24 668.64 315.27 668.63 315.3 668.64 315.35 668.64 315.37 668.63 315.4 668.61 315.43 668.57 315.48 668.53 315.52 668.39 315.61 668.3 315.71 668.28 315.72 668.26 315.74 668.22 315.85 668.2 315.89 668.13 315.98 668.1 316.03 668.09 316.13 668.05 316.27 667.97 316.41 667.95 316.46 667.94 316.59 667.94 316.72 667.95 317.15 667.94 317.21 667.91 317.26 667.89 317.28 667.85 317.31 667.85 317.38 667.87 317.46 667.86 317.51 667.82 317.45 667.77 317.41 667.7 317.38 667.63 317.36 667.63 317.42 667.61 317.44 667.58 317.43 667.55 317.41 667.55 317.39 667.56 317.33 667.51 317.25 667.51 317.23 667.51 317.21 667.51 317.18 667.51 317.09 667.52 317.07 667.54 317.04 667.54 317.01 667.38 316.58 667.36 316.56 667.32 316.5 667.28 316.42 667.26 316.39 667.19 316.34 667.17 316.32 667.16 316.32 667.15 316.31 667.14 316.28 667.13 316.27 667.1 316.25 667.01 316.21 666.98 316.18 666.93 316.15 666.92 316.13 666.89 316.12 666.88 316.12 666.86 316.13 666.84 316.13 666.73 316.05 666.63 315.9 666.74 316.03 666.73 315.97 666.71 315.94 666.69 315.91 666.65 315.86 666.57 315.79 666.54 315.75 666.53 315.71 666.55 315.67 666.56 315.64 666.55 315.59 666.52 315.54 666.48 315.48 666.44 315.39 666.43 315.36 666.44 315.33 666.45 315.3 666.45 315.28 666.45 315.27 666.44 315.26 666.42 315.25 666.42 315.23 666.4 315.19 666.39 315.18 666.37 315.06 666.36 315.01 666.35 314.98 666.32 314.95 666.36 314.92 666.38 314.87 666.37 314.82 666.32 314.81 666.3 314.83 666.3 314.86 666.28 314.88 666.25 314.88 666.24 314.86 666.25 314.8 666.24 314.78 666.2 314.77 666.19 314.78 666.17 314.81 666.15 314.81 666.12 314.79 666.12 314.76 666.12 314.74 666.13 314.72 666.16 314.7 666.19 314.7 666.21 314.69 666.22 314.67 666.21 314.65 666.13 314.63 666.13 314.62 666.2 314.62 666.19 314.59 666.16 314.56 666.13 314.54 666.14 314.5 666.16 314.49 666.18 314.48 666.19 314.46 666.19 314.43 666.17 314.4 666.18 314.38 666.19 314.35 666.21 314.32 666.21 314.31 666.21 314.29 666.24 314.21 666.25 314.2 666.28 314.19 666.24 314.17 666.26 314.14 666.29 314.13 666.32 314.12 666.33 314.13 666.32 314.1 666.3 314.11 666.29 314.11 666.27 314.11 666.27 314.08 666.29 314.03 666.32 314.03 666.36 314.03 666.33 313.94 666.3 313.88 666.32 313.85 666.32 313.83 666.29 313.82 666.29 313.8 666.31 313.79 666.32 313.76 666.35 313.72 666.28 313.72 666.28 313.65 666.31 313.61 666.31 313.47 666.32 313.37 666.34 313.29 666.38 313.22 666.39 313.14 666.41 313.06 666.42 313.04 666.47 312.97 666.48 312.95 666.49 312.93 666.53 312.9 666.55 312.87 666.56 312.81 666.57 312.79 666.63 312.73 666.65 312.71 666.67 312.64 666.71 312.58 666.75 312.44 666.78 312.4 666.8 312.38 666.82 312.36 666.84 312.36 666.85 312.34 666.86 312.32 666.87 312.3 666.91 312.26 666.92 312.24 666.93 312.15 666.94 312.13 666.96 312.11 667.05 312 667.06 311.99 667.07 311.96 667.09 311.94 667.11 311.89 667.13 311.78 667.21 311.65 667.24 311.56 667.27 311.52 667.38 311.39 667.44 311.33 667.45 311.29 667.46 311.24 667.48 311.19 667.53 311.1 667.54 311.05 667.56 311.03 667.61 311.01 667.63 310.99 667.64 310.97 667.65 310.95 667.69 310.91 667.72 310.89 667.77 310.87 667.83 310.89 667.82 310.84 667.85 310.81 667.88 310.78 667.89 310.73 667.9 310.71 667.93 310.7 667.94 310.65 667.99 310.56 668.01 310.53 668.02 310.52 668.02 310.5 668.01 310.49 668 310.47 668.01 310.45 668.03 310.43 668.03 310.43 668.04 310.41 668.05 310.38 668.05 310.35 668.07 310.33 668.09 310.31 668.11 310.31 668.11 310.29 668.12 310.27 668.14 310.22 668.15 310.19 668.23 310.07 668.29 310 668.35 309.95 668.5 309.9 668.54 309.88 668.57 309.85 668.61 309.83 668.68 309.8 668.85 309.77 668.95 309.76 668.99 309.74 669.04 309.7 669.06 309.69 669.08 309.69 669.1 309.69 669.13 309.7 669.15 309.72 669.16 309.74 669.17 309.75 669.2 309.74 669.17 309.69 669.12 309.65 669.09 309.63 669.1 309.61 669.12 309.59 669.13 309.59 669.14 309.58 669.16 309.54 669.18 309.49 669.24 309.44 669.32 309.4 669.41 309.37 669.5 309.39 669.54 309.41 669.63 309.53 Z" fill-rule="evenodd" id="Taiwan" transform="translate(-662.1900024414062,-309.3699951171875) "/></svg>