<svg xmlns="http://www.w3.org/2000/svg" viewBox="0 0 17.3299560546875 12.3699951171875"><path d="M 556.54 271.08 556.62 271.08 556.69 271.05 556.72 271.06 556.73 271.11 556.73 271.16 556.71 271.18 556.63 271.2 556.57 271.23 556.46 271.32 556.44 271.31 556.38 271.2 556.36 271.18 556.28 271.12 556.25 271.08 556.24 271.03 556.24 270.99 556.27 270.99 556.54 271.08 Z M 556.59 267.89 556.6 267.94 556.55 267.93 556.52 267.89 556.45 267.8 556.41 267.77 556.41 267.76 556.39 267.7 556.42 267.69 556.48 267.72 556.53 267.77 556.56 267.82 556.59 267.89 Z M 557.29 269.96 557.34 270.03 557.3 270.1 557.23 270.16 557.16 270.18 557.04 270.15 557.01 270.16 557 270.18 556.95 270.2 556.95 270.2 556.95 270.19 556.93 270.18 556.92 270.18 556.92 270.19 556.9 270.21 556.81 270.28 556.78 270.3 556.64 270.35 556.58 270.41 556.57 270.48 556.58 270.57 556.56 270.67 556.53 270.72 556.49 270.76 556.44 270.79 556.4 270.8 556.3 270.81 556.28 270.82 556.26 270.85 556.24 270.91 556.22 270.94 556.18 270.92 556.16 270.88 556.17 270.83 556.19 270.78 556.22 270.74 556.25 270.71 556.29 270.69 556.32 270.67 556.35 270.6 556.33 270.55 556.28 270.52 556.22 270.5 556.05 270.47 555.96 270.44 555.89 270.43 555.85 270.41 555.81 270.37 555.78 270.33 555.75 270.29 555.7 270.27 555.65 270.26 555.54 270.27 555.49 270.25 555.18 270.05 555.1 270.04 554.23 270.35 554.19 270.36 554.15 270.35 554.14 270.34 554.12 270.29 554.1 270.29 554.09 270.3 554.08 270.35 554.07 270.37 554.03 270.44 553.99 270.5 553.98 270.58 553.99 270.67 554 270.69 554.01 270.7 554.01 270.72 554.01 270.74 554.06 270.84 554.06 270.87 553.85 270.95 553.74 270.77 553.68 270.69 553.65 270.69 553.64 270.69 553.64 270.71 553.63 270.74 553.59 270.83 553.48 271.14 553.46 271.25 553.45 271.37 553.47 271.42 553.5 271.46 553.54 271.49 553.57 271.53 553.59 271.58 553.6 271.63 553.58 271.97 553.62 272.04 553.7 272 553.72 271.98 553.72 271.96 553.73 271.94 553.75 271.93 553.76 271.94 553.82 272 553.86 272.01 553.96 272 554.01 272 554.05 271.99 554.09 271.98 554.13 271.95 554.2 271.89 554.24 271.87 554.43 271.86 554.52 271.87 554.61 271.9 554.7 271.96 554.79 271.98 554.96 271.95 555.05 271.96 555.12 271.99 555.14 271.97 555.17 271.92 555.21 271.89 555.26 271.87 555.3 271.88 555.35 271.89 555.42 271.93 555.46 271.94 555.5 271.93 555.52 271.9 555.58 271.77 555.61 271.74 555.63 271.77 555.64 271.82 555.64 271.87 555.62 271.98 555.62 272.02 555.66 272.03 555.7 272.02 555.9 271.88 555.93 271.87 555.95 271.87 556 271.88 556.02 271.88 556.03 271.87 556.04 271.86 556.06 271.84 556.08 271.83 556.11 271.83 556.19 271.8 556.22 271.8 556.26 271.81 556.3 271.85 556.33 271.87 556.37 271.87 556.45 271.86 556.49 271.86 556.55 271.9 556.58 271.96 556.62 272.1 556.62 272.1 556.62 272.1 556.62 272.1 556.64 272.12 556.7 272.14 556.72 272.16 556.73 272.2 556.73 272.24 556.72 272.28 556.71 272.32 556.75 272.38 556.81 272.41 556.87 272.42 556.93 272.41 557 272.38 557.03 272.37 557.06 272.37 557.08 272.37 557.1 272.36 557.13 272.33 557.17 272.31 557.22 272.33 557.27 272.37 557.33 272.39 557.4 272.35 557.44 272.27 557.48 272.18 557.52 272.1 557.6 272.05 557.69 272.02 557.78 272.02 557.91 272.04 557.94 272.04 557.96 272.03 558.03 271.95 558.06 271.92 558.14 271.88 558.15 271.87 558.18 271.83 558.2 271.82 558.22 271.82 558.28 271.8 558.36 271.77 558.4 271.76 558.48 271.81 558.51 271.84 558.52 271.84 558.55 271.89 558.56 271.93 558.55 271.98 558.49 272.06 558.47 272.1 558.52 272.2 558.61 272.24 558.72 272.25 558.95 272.2 558.99 272.2 559.02 272.23 559.04 272.3 559.05 272.37 559.04 272.43 559.02 272.47 558.99 272.5 558.96 272.54 558.96 272.6 558.98 272.65 559.01 272.7 559.05 272.73 559.09 272.74 559.17 272.73 559.25 272.7 559.47 272.54 559.51 272.53 559.59 272.51 559.67 272.47 559.71 272.46 559.75 272.49 559.77 272.55 559.79 272.62 559.79 272.68 559.81 272.73 559.86 272.75 559.95 272.76 559.97 272.77 560 272.8 560.05 272.83 560.06 272.84 560.06 272.86 560.06 272.89 560.08 272.94 560.11 272.97 560.11 272.97 560.13 272.97 560.22 272.77 560.27 272.62 560.3 272.57 560.34 272.56 560.39 272.55 560.47 272.51 560.51 272.51 560.58 272.53 560.62 272.53 560.66 272.52 560.73 272.45 560.75 272.44 560.78 272.45 560.84 272.49 560.88 272.49 560.9 272.47 560.94 272.42 560.97 272.4 561 272.39 561.04 272.39 561.45 272.5 561.49 272.49 561.58 272.47 561.63 272.48 561.77 272.51 561.8 272.52 561.84 272.52 561.95 272.46 561.97 272.45 562 272.46 562.04 272.48 562.12 272.5 562.19 272.5 562.41 272.42 562.54 272.4 562.56 272.37 562.56 272.33 562.58 272.28 562.63 272.25 562.87 272.19 562.95 272.18 563.16 272.2 563.22 272.23 563.22 272.29 563.24 272.45 563.24 272.51 563.24 272.56 563.17 272.75 563.15 272.84 563.16 272.92 563.22 273.01 563.31 273.1 563.33 273.14 563.35 273.24 563.36 273.29 563.39 273.32 563.52 273.43 563.59 273.51 563.63 273.53 563.65 273.58 563.65 273.62 563.64 273.67 563.61 273.7 563.56 273.72 563.46 273.72 563.41 273.74 563.37 273.77 563.34 273.82 563.33 273.87 563.33 273.92 563.36 273.96 563.42 274.04 563.45 274.08 563.45 274.13 563.44 274.25 563.45 274.3 563.53 274.43 563.54 274.47 563.56 274.59 563.58 274.63 563.63 274.68 563.66 274.7 563.74 274.74 563.78 274.76 563.85 274.82 563.88 274.84 564.1 274.85 564.13 274.84 564.16 274.79 564.15 274.75 564.12 274.7 564.12 274.65 564.13 274.63 564.22 274.6 564.24 274.58 564.24 274.56 564.24 274.54 564.24 274.51 564.28 274.47 564.31 274.45 564.34 274.45 564.48 274.49 564.52 274.5 564.57 274.5 564.73 274.45 564.77 274.45 565.09 274.61 565.47 274.75 565.51 274.79 565.54 274.83 565.58 274.86 565.63 274.86 565.68 274.86 565.72 274.87 565.75 274.89 565.79 274.94 565.79 274.94 565.79 274.94 565.79 274.94 565.81 274.97 565.83 274.99 565.86 275.01 565.88 275.03 565.89 275.05 565.89 275.08 565.91 275.16 565.9 275.21 565.89 275.26 565.87 275.31 565.77 275.42 565.75 275.46 565.74 275.51 565.74 275.78 565.79 276.1 565.83 276.18 565.98 276.27 566.01 276.35 566 276.52 566.01 276.6 566.01 276.62 566.01 276.63 566.04 276.65 566.06 276.66 566.05 276.68 566.02 276.74 566 276.75 565.99 276.77 566 276.8 566.01 276.82 566.02 276.84 566.14 276.9 566.16 276.93 566.17 276.98 566.17 277.01 566.15 277.03 566.11 277.08 566.1 277.11 566.09 277.13 566.09 277.16 566.08 277.18 566.05 277.22 566.02 277.26 566 277.3 565.99 277.35 566.01 277.45 566.06 277.53 566.13 277.59 566.33 277.71 566.37 277.74 566.48 277.89 566.54 277.95 566.61 278 566.51 278.04 566.45 278.06 566.43 278.11 566.42 278.21 566.4 278.25 566.2 278.32 566.14 278.33 566.1 278.36 566.08 278.4 566.06 278.45 566.01 278.47 565.95 278.43 565.84 278.26 565.78 278.19 565.5 278.02 565.43 278.06 565.21 278.07 565.19 278.07 565.17 278.07 565.09 278.04 565.04 278.02 565 278.02 564.96 278.03 564.9 278.02 564.87 278.02 564.85 278.01 564.82 277.96 564.8 277.94 564.77 277.95 564.74 277.96 564.73 277.93 564.71 278 564.65 278.01 564.59 277.99 564.53 277.99 564.49 278.03 564.49 278.13 564.45 278.17 564.4 278.2 564.15 278.25 563.98 278.31 563.93 278.32 563.81 278.38 563.72 278.39 563.67 278.4 563.59 278.48 563.55 278.49 563.52 278.48 563.47 278.47 563.45 278.48 563.41 278.51 563.39 278.51 563.37 278.5 563.34 278.46 563.33 278.44 563.28 278.44 563.19 278.47 563.15 278.44 563.14 278.39 563.17 278.33 563.22 278.29 563.26 278.27 563.35 278.27 563.38 278.25 563.42 278.22 563.46 278.17 563.47 278.13 563.47 278.02 563.47 277.99 563.49 277.92 563.41 277.91 563.31 277.92 563.16 277.88 562.89 277.78 562.79 277.78 562.66 277.86 562.62 277.85 562.58 277.82 562.53 277.82 562.47 277.82 562.43 277.84 562.39 277.86 562.29 277.98 562.26 277.99 562.21 277.97 562.19 277.98 562.11 278.05 562.07 278.09 562.04 278.17 562.01 278.21 561.97 278.24 561.81 278.25 561.65 278.35 561.6 278.41 561.54 278.43 561.44 278.45 561.35 278.5 561.29 278.59 561.18 278.81 561.09 278.95 561.08 279 561.06 279.03 560.73 279.08 560.65 279.12 560.5 279.09 560.4 279.11 560.18 279.2 560.09 279.26 560.07 279.29 560.03 279.33 560.01 279.36 559.94 279.4 559.88 279.46 559.24 279.94 559.15 279.98 559.04 280 558.93 280 558.83 279.97 558.74 279.92 558.66 279.85 558.63 279.8 558.61 279.75 558.59 279.69 558.58 279.56 558.55 279.51 558.43 279.3 558.41 279.25 558.4 279.19 558.4 279.08 558.4 279.05 558.36 278.99 558.34 278.96 558.34 278.93 558.34 278.76 558.36 278.64 558.37 278.6 558.39 278.58 558.38 278.51 558.46 278.37 558.46 278.29 558.48 278.26 558.48 278.2 558.48 278.08 558.46 277.98 558.47 277.94 558.5 277.88 558.52 277.76 558.49 277.54 558.5 277.42 558.5 277.4 558.53 277.37 558.54 277.34 558.55 277.31 558.56 277.23 558.58 277.14 558.59 277.11 558.58 277.08 558.56 277.02 558.56 277 558.58 276.95 558.66 276.89 558.69 276.84 558.7 276.79 558.7 276.73 558.7 276.67 558.69 276.63 558.71 276.61 558.64 276.53 558.57 276.49 558.49 276.48 558.22 276.57 558.18 276.6 558.14 276.63 558.09 276.61 558.01 276.54 557.98 276.54 557.97 276.54 557.96 276.54 557.95 276.5 557.95 276.47 557.97 276.41 557.99 276.34 558.05 276.21 558.08 276.1 558.12 276.02 558.14 275.93 558.18 275.81 558.19 275.75 558.18 275.62 558.12 275.54 558.05 275.49 557.87 275.42 557.73 275.27 557.64 275.21 557.58 275.18 557.55 275.17 557.53 275.17 557.51 275.18 557.49 275.18 557.47 275.16 557.46 275.14 557.44 275.09 557.42 275.07 557.4 275.04 557.38 275.02 557.35 275.01 557.33 275 557.27 275 557.26 275.02 557.27 275.08 557.24 275.11 557.19 275.1 557.1 275.06 557.07 275.06 557.06 275.07 557.05 275.09 557.04 275.09 557.02 275.09 556.98 275.08 556.96 275.08 556.89 275.08 556.85 275.08 556.84 275.1 556.81 275.15 556.68 275.17 556.64 275.19 556.64 275.21 556.68 275.24 556.67 275.28 556.59 275.34 556.57 275.35 556.52 275.34 556.5 275.36 556.49 275.38 556.49 275.41 556.49 275.44 556.49 275.46 556.46 275.56 556.44 275.57 556.41 275.58 556.38 275.59 556.36 275.66 556.29 275.79 556.24 275.94 556.21 275.99 556.19 276.02 556.11 276.05 556.09 276.06 555.99 276.17 555.89 276.3 555.87 276.31 555.83 276.33 555.82 276.34 555.81 276.36 555.8 276.38 555.77 276.39 555.75 276.4 555.73 276.4 555.72 276.43 555.72 276.45 555.73 276.48 555.75 276.5 555.69 276.52 555.64 276.53 555.59 276.52 555.55 276.48 555.52 276.55 555.53 276.64 555.56 276.72 555.6 276.78 555.63 276.79 555.7 276.81 555.71 276.84 555.72 276.88 555.74 276.91 555.76 276.94 555.78 276.96 555.76 276.99 555.77 277.03 555.79 277.11 555.79 277.15 555.79 277.18 555.78 277.2 555.78 277.24 555.75 277.28 555.74 277.28 555.73 277.29 555.73 277.32 555.73 277.34 555.73 277.36 555.72 277.38 555.71 277.39 555.7 277.4 555.69 277.4 555.65 277.4 555.65 277.4 555.61 277.48 555.61 277.5 555.59 277.51 555.52 277.61 555.45 277.63 555.39 277.62 555.32 277.6 555.26 277.59 555.27 277.61 555.2 277.6 555.18 277.59 555.18 277.58 555.16 277.57 555.15 277.55 555.14 277.54 555.11 277.53 555.07 277.51 555.04 277.48 555.02 277.43 554.99 277.4 554.93 277.4 554.84 277.44 554.8 277.46 554.77 277.47 554.75 277.49 554.73 277.5 554.71 277.49 554.69 277.47 554.64 277.46 554.62 277.46 554.57 277.46 554.47 277.5 554.42 277.51 554.12 277.49 554.08 277.51 554.04 277.62 553.99 277.67 553.89 277.74 553.89 277.75 553.87 277.79 553.86 277.8 553.85 277.82 553.81 277.84 553.8 277.85 553.79 277.9 553.78 277.95 553.79 278.06 553.79 278.07 553.81 278.07 553.82 278.08 553.82 278.1 553.81 278.1 553.81 278.11 553.8 278.11 553.8 278.14 553.81 278.17 553.81 278.19 553.82 278.21 553.84 278.25 553.86 278.34 553.88 278.37 553.86 278.43 553.9 278.45 553.94 278.46 553.93 278.49 553.85 278.62 553.82 278.66 553.73 278.71 553.69 278.75 553.67 278.78 553.64 278.79 553.63 278.79 553.58 278.8 553.54 278.82 553.49 278.82 553.28 278.68 553.27 278.68 553.22 278.64 553.2 278.62 553.16 278.52 553.12 278.49 553.07 278.45 553.03 278.41 553 278.31 552.96 278.26 552.92 278.22 552.87 278.2 552.72 278.18 552.71 278.18 552.7 278.17 552.7 278.18 552.71 278.22 552.72 278.23 552.76 278.26 552.77 278.27 552.78 278.31 552.76 278.34 552.74 278.34 552.71 278.33 552.68 278.29 552.66 278.25 552.63 278.21 552.59 278.2 552.54 278.22 552.53 278.25 552.56 278.33 552.56 278.39 552.55 278.42 552.53 278.41 552.44 278.36 552.42 278.35 552.39 278.35 552.34 278.35 552.26 278.34 552.22 278.34 552.19 278.37 552.2 278.38 552.21 278.39 552.22 278.43 552.17 278.43 552.14 278.47 552.13 278.52 552.12 278.54 552.08 278.55 552 278.57 551.96 278.58 551.94 278.59 551.91 278.64 551.89 278.66 551.87 278.66 551.77 278.68 551.63 278.69 551.66 278.76 551.65 278.8 551.6 278.82 551.54 278.83 551.5 278.82 551.46 278.8 551.41 278.79 551.37 278.83 551.36 278.87 551.36 278.93 551.37 279.04 551.35 279.08 551.3 279.08 551.2 279.05 551.15 279.06 551.11 279.09 551.07 279.13 551.03 279.15 551 279.17 550.86 279.29 550.83 279.31 550.81 279.32 550.79 279.32 550.78 279.32 550.76 279.3 550.75 279.28 550.74 279.26 550.72 279.23 550.65 279.14 550.63 279.12 550.58 279.09 550.55 279.07 550.52 279.02 550.49 278.97 550.46 278.93 550.36 278.91 550.31 278.88 550.26 278.84 550.23 278.81 550.23 278.77 550.25 278.59 550.26 278.55 550.3 278.46 550.32 278.37 550.34 278.27 550.33 278.15 550.28 277.93 550.29 277.82 550.35 277.65 550.45 277.48 550.56 277.34 550.68 277.22 550.84 277 550.91 276.87 551 276.59 551.04 276.55 551.11 276.52 551.22 276.51 551.25 276.5 551.26 276.49 551.28 276.47 551.3 276.44 551.31 276.39 551.33 276.35 551.33 276.35 551.33 276.35 551.33 276.35 551.33 276.35 551.36 276.29 551.44 276.16 551.5 276.01 551.53 275.84 551.52 275.73 551.47 275.65 551.29 275.49 551.18 275.43 551.14 275.39 551.06 275.24 550.97 275.15 550.95 275.12 550.94 275.07 550.94 274.98 550.93 274.94 550.87 274.86 550.86 274.82 550.85 274.76 550.86 274.6 550.85 274.54 550.82 274.44 550.82 274.38 550.83 274.34 550.89 274.3 550.9 274.28 550.9 274.25 550.89 274.23 550.88 274.2 550.87 274.17 550.88 274.11 550.91 274.1 550.95 274.1 551 274.09 551.03 274.06 551.07 274.03 551.1 274 551.12 273.95 551.12 273.89 551.1 273.83 551.07 273.8 551.03 273.73 550.96 273.57 550.92 273.53 550.92 273.53 550.92 273.53 550.92 273.53 550.9 273.52 550.89 273.52 550.87 273.52 550.85 273.53 550.81 273.55 550.78 273.57 550.74 273.56 550.71 273.53 550.69 273.52 550.65 273.5 550.62 273.5 550.59 273.51 550.56 273.53 550.56 273.53 550.56 273.53 550.56 273.53 550.56 273.53 550.39 273.58 550.33 273.59 550.05 273.54 550.01 273.5 550.01 273.5 550.01 273.5 550 273.43 550.02 273.21 550.02 273.17 550.02 273.17 550 273.14 549.98 273.13 549.95 273.14 549.93 273.14 549.92 273.12 549.9 273.09 549.89 273.08 549.8 273.04 549.62 273.04 549.36 272.94 549.29 272.88 549.29 272.88 549.28 272.77 549.28 272.73 549.28 272.71 549.3 272.7 549.32 272.68 549.34 272.67 549.36 272.68 549.37 272.67 549.39 272.58 549.42 272.48 549.42 272.38 549.44 272.26 549.46 272.15 549.48 272.13 549.52 272.12 549.57 272.13 549.59 272.13 549.6 272.12 549.61 272.11 549.61 272.1 549.61 272.1 549.6 271.98 549.64 271.93 549.82 271.91 550.03 271.76 550.11 271.73 550.21 271.73 550.97 271.93 551.3 271.94 551.48 272.01 551.59 272.01 551.7 272 551.84 271.97 551.88 271.95 551.88 271.95 551.86 271.91 551.86 271.89 551.89 271.85 551.98 271.79 552.03 271.73 552.06 271.68 552.08 271.61 552.1 271.14 552.12 271.08 552.15 271.08 552.18 271.1 552.25 271.03 552.29 271.06 552.35 271.15 552.38 271.17 552.39 271.15 552.4 271.12 552.4 271.11 552.4 271.1 552.41 271.06 552.42 271.06 552.44 271.05 552.45 271.05 552.48 270.99 552.48 270.95 552.43 270.84 552.41 270.78 552.4 270.73 552.42 270.71 552.46 270.74 552.51 270.84 552.54 270.96 552.59 271.04 552.69 271 552.68 270.94 552.48 270.67 552.47 270.64 552.47 270.61 552.47 270.55 552.47 270.53 552.43 270.5 552.42 270.47 552.45 270.42 552.49 270.45 552.54 270.54 552.56 270.53 552.64 270.46 552.69 270.45 552.85 270.47 552.9 270.46 552.92 270.43 552.92 270.39 552.91 270.34 552.9 270.3 552.8 270.23 552.28 270.33 552.26 270.33 552.18 270.3 552.08 270.24 552.02 270.18 552.07 270.14 552.16 270.12 552.28 270.09 552.33 270.08 552.46 270.11 552.51 270.1 552.59 270.05 552.63 270.04 552.99 269.98 553.04 269.99 553.11 270.02 553.19 270.06 553.39 270.12 553.5 270.13 553.58 270.09 553.58 270.02 553.42 269.87 553.41 269.79 553.47 269.78 553.56 269.81 553.63 269.8 553.64 269.66 553.63 269.6 553.61 269.54 553.55 269.44 553.53 269.39 553.48 269.22 553.48 269.22 553.39 269.07 553.39 269.01 553.47 268.96 553.6 268.95 553.64 268.93 553.64 268.89 553.63 268.73 553.63 268.62 553.65 268.54 553.68 268.46 553.74 268.39 553.77 268.36 553.8 268.34 553.88 268.32 553.92 268.32 553.95 268.35 553.97 268.38 554.01 268.4 554.08 268.41 554.13 268.45 554.22 268.59 554.24 268.61 554.3 268.65 554.32 268.68 554.36 268.75 554.39 268.78 554.41 268.8 554.48 268.83 554.54 268.81 554.59 268.76 554.69 268.64 554.73 268.61 554.78 268.58 555.19 268.45 555.4 268.29 555.63 268.2 555.79 268.1 555.91 267.96 555.97 267.65 556.06 267.63 556.15 267.67 556.18 267.7 556.22 267.75 556.23 267.76 556.24 267.77 556.31 267.83 556.71 268.28 556.73 268.31 556.73 268.36 556.68 268.35 556.6 268.28 556.56 268.29 556.54 268.32 556.54 268.37 556.58 268.42 556.78 268.46 556.87 268.51 556.85 268.61 556.84 268.64 556.84 268.64 556.81 268.66 556.8 268.67 556.8 268.68 556.79 268.7 556.75 268.7 556.73 268.71 556.7 268.74 556.67 268.77 556.53 268.88 556.46 268.98 556.43 269 556.4 269.02 556.36 269.02 556.33 269.04 556.3 269.07 556.25 269.16 556.23 269.19 556.2 269.2 556.05 269.23 555.99 269.28 555.95 269.33 555.95 269.39 555.96 269.41 555.96 269.41 555.99 269.46 555.99 269.46 555.99 269.46 556.01 269.48 556.02 269.5 555.99 269.6 556.1 269.64 556.15 269.66 556.2 269.65 556.24 269.64 556.28 269.64 556.33 269.66 556.39 269.75 556.42 269.89 556.46 270.01 556.55 270.07 556.64 270.08 556.73 270.07 557.05 269.98 557.25 269.96 557.29 269.96 Z" fill-rule="evenodd" id="Tajikistan" transform="translate(-549.280029296875,-267.6300048828125) "/></svg>