<svg xmlns="http://www.w3.org/2000/svg" viewBox="0 0 18.3900146484375 33.58001708984375"><path d="M 620 352.45 620.03 352.47 620.02 352.48 620 352.49 619.93 352.53 619.88 352.54 619.84 352.53 619.8 352.5 619.84 352.5 619.86 352.48 619.88 352.46 619.92 352.45 619.91 352.45 619.98 352.45 620 352.45 Z M 620.93 352.62 620.91 352.63 620.88 352.59 620.86 352.5 620.78 352.43 620.79 352.4 620.81 352.37 620.83 352.34 620.84 352.32 620.83 352.28 620.83 352.27 620.84 352.25 620.86 352.25 620.87 352.24 620.88 352.21 620.88 352.17 620.89 352.13 620.91 352.12 620.96 352.23 620.96 352.34 620.99 352.42 621.01 352.49 621.01 352.52 621 352.54 620.99 352.55 620.97 352.56 620.95 352.56 620.94 352.58 620.94 352.6 620.94 352.61 620.93 352.62 Z M 620.44 350.95 620.46 350.98 620.43 350.97 620.4 350.98 620.37 350.99 620.36 351 620.32 351.05 620.3 351.08 620.29 351.06 620.29 350.95 620.3 350.9 620.35 350.92 620.38 350.94 620.44 350.95 Z M 619.71 350.44 619.67 350.47 619.62 350.44 619.58 350.39 619.52 350.26 619.51 350.24 619.51 350.16 619.51 350.13 619.5 350.09 619.5 350.09 619.5 350.09 619.51 350.09 619.51 350.08 619.53 350.08 619.6 350.14 619.62 350.16 619.62 350.24 619.64 350.32 619.67 350.39 619.71 350.44 Z M 619.71 350.19 619.69 350.19 619.67 350.18 619.66 350.17 619.65 350.16 619.64 350.15 619.63 350.14 619.62 350.13 619.6 350.13 619.55 350.04 619.6 350.01 619.68 350.02 619.73 350.05 619.73 350.08 619.73 350.12 619.72 350.16 619.71 350.19 Z M 618.42 349.03 618.43 349.05 618.43 349.05 618.53 349.11 618.57 349.15 618.59 349.21 618.59 349.45 618.57 349.5 618.54 349.5 618.51 349.47 618.5 349.42 618.49 349.37 618.48 349.34 618.48 349.32 618.49 349.3 618.51 349.3 618.52 349.3 618.53 349.27 618.52 349.25 618.52 349.23 618.51 349.22 618.49 349.21 618.46 349.21 618.46 349.19 618.45 349.18 618.42 349.13 618.41 349.09 618.4 349.05 618.4 349.01 618.41 349.02 618.42 349.03 Z M 617.87 348.87 617.89 348.88 617.9 348.87 617.92 348.88 617.94 348.89 617.97 348.91 617.98 348.94 617.99 349.04 618.01 349.04 618.03 349.02 618.06 349.04 618.1 349.08 618.13 349.1 618.15 349.08 618.17 349.07 618.19 349.07 618.21 349.1 618.21 349.14 618.19 349.18 618.16 349.23 618.16 349.25 618.16 349.29 618.16 349.3 618.15 349.31 618.14 349.32 618.12 349.33 618.12 349.35 618.11 349.39 618.12 349.43 618.14 349.47 618.16 349.5 618.17 349.49 618.18 349.48 618.19 349.47 618.21 349.51 618.21 349.54 618.19 349.57 618.12 349.59 618.11 349.62 618.12 349.7 618.04 349.66 618 349.66 617.98 349.71 617.97 349.76 617.95 349.8 617.92 349.8 617.88 349.78 617.87 349.75 617.86 349.61 617.85 349.59 617.84 349.57 617.83 349.56 617.83 349.53 617.84 349.52 617.85 349.52 617.87 349.5 617.86 349.47 617.84 349.46 617.81 349.45 617.8 349.45 617.81 349.42 617.83 349.41 617.84 349.39 617.84 349.37 617.82 349.35 617.83 349.32 617.85 349.3 617.86 349.28 617.86 349.26 617.85 349.21 617.84 349.13 617.84 349.12 617.85 349.1 617.87 349.07 617.87 349.04 617.88 349 617.87 348.95 617.86 348.86 617.87 348.86 617.87 348.87 Z M 618.61 349.06 618.61 349.09 618.54 349.06 618.52 349.05 618.5 349.02 618.51 349.01 618.56 349 618.55 348.96 618.57 348.93 618.6 348.9 618.62 348.86 618.63 348.87 618.64 348.88 618.65 348.89 618.65 348.91 618.61 349.06 Z M 617.88 347.21 617.83 347.34 617.81 347.33 617.79 347.29 617.79 347.24 617.8 347.2 617.8 347.14 617.79 347.07 617.81 347.03 617.85 347.04 617.87 347.05 617.9 347.07 617.92 347.11 617.91 347.16 617.88 347.21 Z M 617.89 346.97 617.84 346.98 617.8 346.98 617.77 346.95 617.77 346.92 617.78 346.74 617.78 346.73 617.79 346.72 617.81 346.71 617.84 346.71 617.86 346.71 617.89 346.74 617.92 346.77 617.94 346.8 617.95 346.84 617.95 346.89 617.9 346.94 617.92 346.95 617.89 346.97 Z M 616.96 346.19 616.95 346.22 616.88 346.16 616.87 346.14 616.87 346.13 616.89 346.11 616.9 346.11 616.92 346.11 616.94 346.12 616.96 346.16 616.96 346.19 Z M 617.01 346.07 617 346.08 616.98 346.08 616.96 346.08 616.94 346.08 616.95 346.11 616.9 346.08 616.91 346.03 616.95 346.01 617 346.02 617.01 346.03 617.01 346.05 617.01 346.07 Z M 621.01 345.9 620.96 345.92 620.93 345.9 621 345.85 621.01 345.9 Z M 621.86 345.78 621.87 345.81 621.84 345.84 621.83 345.9 621.82 345.97 621.8 346.03 621.74 346.06 621.73 346.07 621.73 346.09 621.72 346.1 621.71 346.11 621.69 346.11 621.67 346.11 621.57 346.12 621.55 346.13 621.54 346.09 621.53 346 621.5 345.96 621.54 345.92 621.53 345.88 621.51 345.84 621.5 345.8 621.53 345.77 621.58 345.77 621.63 345.77 621.76 345.8 621.8 345.8 621.82 345.75 621.83 345.76 621.86 345.78 Z M 620.96 345.7 620.95 345.7 620.95 345.69 620.95 345.67 620.95 345.67 620.96 345.67 620.96 345.68 620.97 345.68 620.96 345.7 Z M 618.16 345.43 618.12 345.49 618.09 345.44 618.1 345.41 618.12 345.38 618.15 345.33 618.15 345.35 618.16 345.4 618.16 345.43 Z M 621.66 345.28 621.68 345.29 621.72 345.28 621.75 345.29 621.82 345.33 621.84 345.41 621.87 345.58 621.84 345.56 621.79 345.53 621.66 345.48 621.64 345.46 621.65 345.43 621.64 345.4 621.6 345.36 621.6 345.34 621.63 345.3 621.64 345.27 621.66 345.28 Z M 627.36 340.97 627.35 341 627.41 341 627.44 341.05 627.45 341.14 627.41 341.2 627.41 341.22 627.44 341.22 627.42 341.25 627.42 341.27 627.43 341.33 627.41 341.33 627.4 341.31 627.38 341.28 627.37 341.26 627.35 341.25 627.27 341.23 627.29 341.21 627.3 341.2 627.31 341.19 627.31 341.16 627.3 341.14 627.28 341.09 627.27 341.06 627.32 340.9 627.33 340.89 627.35 340.9 627.36 340.92 627.37 340.95 627.36 340.97 Z M 626.69 340 626.75 340.02 626.79 340.02 626.86 340.07 626.89 340.09 626.91 340.12 626.94 340.18 626.96 340.21 626.99 340.23 626.99 340.25 627 340.26 627.02 340.3 627.06 340.34 627.08 340.38 627.08 340.42 627.05 340.43 627.01 340.41 626.94 340.34 626.93 340.36 626.94 340.39 626.93 340.41 626.9 340.42 626.87 340.41 626.79 340.39 626.79 340.4 626.8 340.41 626.81 340.43 626.79 340.42 626.78 340.41 626.76 340.41 626.74 340.4 626.74 340.39 626.75 340.36 626.75 340.22 626.73 340.19 626.67 340.05 626.7 340.05 626.69 340.03 626.68 340.02 626.67 340.01 626.65 340 626.69 340 Z M 621.89 321.26 621.88 321.34 621.89 321.38 621.93 321.42 621.97 321.44 622 321.44 622.04 321.41 622.04 321.32 622.06 321.3 622.06 321.29 622.11 321.27 622.13 321.27 622.13 321.27 622.16 321.18 622.2 321.13 622.27 321.08 622.35 321.06 622.43 321.09 622.47 321.14 622.6 321.41 622.66 321.49 622.67 321.51 622.68 321.54 622.69 321.55 622.71 321.57 622.74 321.58 622.75 321.6 622.77 321.62 622.8 321.64 622.84 321.65 622.86 321.64 622.87 321.61 622.88 321.61 622.88 321.63 622.89 321.75 622.87 321.85 622.82 322.01 622.82 322.01 622.76 322.16 622.75 322.24 622.74 322.28 622.72 322.32 622.7 322.33 622.66 322.35 622.64 322.36 622.62 322.38 622.6 322.45 622.57 322.48 622.52 322.55 622.51 322.6 622.52 322.63 622.53 322.65 622.55 322.68 622.57 322.7 622.58 322.74 622.58 322.82 622.6 322.86 622.61 322.89 622.66 322.94 622.68 322.97 622.68 323.01 622.68 323.05 622.69 323.09 622.72 323.11 622.76 323.14 622.82 323.17 622.88 323.18 622.92 323.18 622.94 323.15 622.97 323.11 623.01 323.08 623.07 323.07 623.25 323.14 623.28 323.16 623.3 323.18 623.32 323.21 623.34 323.21 623.36 323.18 623.46 323.09 623.55 322.98 623.58 322.93 623.58 322.92 623.61 322.91 623.62 322.91 623.63 322.91 623.83 322.91 623.89 322.91 623.94 322.93 624.03 322.99 624.1 323.01 624.16 323.02 624.22 323.01 624.28 323 624.3 322.98 624.32 322.97 624.34 322.96 624.38 322.97 624.41 322.99 624.43 323.01 624.44 323.03 624.45 323.06 624.45 323.12 624.44 323.18 624.41 323.24 624.36 323.25 624.31 323.28 624.28 323.37 624.27 323.46 624.28 323.53 624.29 323.54 624.33 323.55 624.34 323.56 624.35 323.58 624.35 323.59 624.35 323.6 624.35 323.62 624.39 323.81 624.39 323.95 624.39 324 624.41 324.04 624.43 324.07 624.53 324.15 624.59 324.22 624.61 324.29 624.51 324.38 624.5 324.42 624.48 324.49 624.45 324.53 624.4 324.59 624.38 324.63 624.38 324.67 624.39 324.81 624.38 324.85 624.35 324.93 624.34 324.97 624.35 325.01 624.4 325.06 624.42 325.1 624.4 325.13 624.38 325.17 624.31 325.23 624.29 325.24 624.26 325.25 624.24 325.27 624.23 325.29 624.24 325.34 624.23 325.37 624.2 325.4 624.06 325.48 624.05 325.49 624.04 325.51 624.03 325.56 623.96 325.62 623.95 325.67 623.97 325.71 624 325.75 624.05 325.8 624.07 325.82 624.21 325.88 624.23 325.91 624.22 325.93 624.18 325.97 624.17 325.99 624.17 326.01 624.17 326.09 624.18 326.11 624.19 326.15 624.21 326.17 624.22 326.18 624.24 326.19 624.24 326.21 624.24 326.24 624.21 326.33 624.2 326.37 624.2 326.42 624.24 326.5 624.25 326.54 624.23 326.57 624.16 326.61 624.13 326.63 624.09 326.7 624.07 326.76 624.03 326.81 623.97 326.86 623.9 326.9 623.89 326.93 623.88 326.97 623.88 327.05 623.87 327.08 623.83 327.1 623.81 327.11 623.81 327.13 623.81 327.14 623.83 327.16 623.83 327.17 623.83 327.17 623.83 327.18 623.83 327.18 623.81 327.19 623.79 327.21 623.79 327.23 623.79 327.25 623.8 327.3 623.79 327.34 623.78 327.36 623.73 327.46 623.66 327.55 623.63 327.6 623.63 327.65 623.67 327.67 623.75 327.69 623.84 327.71 623.89 327.73 623.93 327.76 623.96 327.79 623.99 327.83 624.03 327.83 624.1 327.87 624.16 327.9 624.17 327.91 624.18 327.91 624.2 327.89 624.21 327.88 624.25 327.83 624.25 327.83 624.25 327.79 624.28 327.78 624.31 327.77 624.33 327.76 624.35 327.74 624.39 327.66 624.43 327.6 624.68 327.4 624.7 327.39 624.72 327.39 624.73 327.39 624.77 327.34 624.78 327.33 624.78 327.32 624.77 327.32 624.74 327.31 624.73 327.31 624.74 327.29 624.77 327.28 624.81 327.28 624.84 327.28 624.87 327.25 624.88 327.24 624.89 327.24 624.89 327.24 624.9 327.25 624.9 327.26 624.92 327.31 624.93 327.3 624.93 327.28 624.95 327.27 624.95 327.25 625 327.2 625.07 327.17 625.12 327.14 625.07 327.1 625.09 327.09 625.13 327.08 625.15 327.06 625.16 327.03 625.16 327 625.16 326.97 625.21 327 625.24 326.97 625.26 326.93 625.29 326.9 625.5 326.86 625.51 326.82 625.56 326.67 625.58 326.57 625.6 326.52 625.64 326.49 625.65 326.49 625.67 326.52 625.76 326.54 625.84 326.59 625.89 326.57 626.22 326.21 626.26 326.18 626.27 326.17 626.34 326.17 626.44 326.17 626.48 326.2 626.5 326.23 626.5 326.27 626.52 326.31 626.59 326.36 626.6 326.36 626.62 326.37 626.67 326.44 626.78 326.54 626.85 326.57 626.91 326.57 626.95 326.62 627.01 326.67 627.09 326.71 627.17 326.73 627.36 326.73 627.43 326.76 627.46 326.86 627.42 327.01 627.42 327.03 627.45 327.04 627.56 327.09 627.61 327.1 627.61 327.08 627.59 327.05 627.58 327.01 627.59 326.97 627.62 326.95 627.7 326.93 627.73 326.91 627.82 326.84 627.94 326.77 627.96 326.74 627.99 326.73 628.18 326.64 628.22 326.63 628.26 326.64 628.33 326.69 628.36 326.7 628.4 326.68 628.43 326.65 628.45 326.62 628.47 326.6 628.48 326.58 628.46 326.44 628.46 326.4 628.47 326.37 628.49 326.35 628.51 326.34 628.52 326.33 628.52 326.33 628.52 326.34 628.52 326.35 628.51 326.35 628.51 326.35 628.56 326.33 628.6 326.31 628.62 326.27 628.64 326.23 628.65 326.15 628.67 326.11 628.69 326.08 628.71 326.07 628.73 326.06 628.79 326.05 628.84 326.04 628.92 326.02 628.95 326.01 628.97 325.99 628.97 325.97 628.96 325.95 628.87 325.89 628.85 325.88 628.84 325.87 628.84 325.86 628.83 325.85 628.84 325.84 628.86 325.78 628.89 325.73 628.94 325.7 629 325.67 629.17 325.64 629.2 325.64 629.32 325.67 629.36 325.68 629.37 325.68 629.4 325.68 629.42 325.68 629.48 325.69 629.53 325.7 629.66 325.73 629.69 325.75 629.71 325.77 629.73 325.78 629.86 325.84 629.89 325.85 630.02 325.86 630.06 325.86 630.09 325.88 630.13 325.9 630.16 325.92 630.18 325.94 630.2 325.97 630.22 326 630.25 326 630.27 326 630.28 326 630.29 325.99 630.3 325.97 630.33 325.93 630.38 325.9 630.43 325.89 630.48 325.89 630.53 325.92 630.57 325.97 630.68 326.16 630.78 326.4 630.8 326.44 630.83 326.48 630.97 326.6 630.98 326.62 631 326.64 631.1 326.86 631.12 326.93 631.13 326.95 631.15 326.97 631.16 326.98 631.17 326.99 631.32 327.08 631.35 327.12 631.4 327.22 631.43 327.26 631.44 327.28 631.45 327.29 631.46 327.34 631.47 327.36 631.54 327.43 631.6 327.49 631.94 327.67 631.99 327.69 632.09 327.75 632.12 327.78 632.16 327.85 632.2 327.91 632.21 327.93 632.23 327.95 632.27 327.97 632.28 327.98 632.29 327.99 632.34 328.11 632.35 328.14 632.35 328.17 632.34 328.28 632.35 328.42 632.34 328.52 632.33 328.57 632.19 328.91 632.17 328.96 632.19 329.1 632.2 329.18 632.2 329.2 632.22 329.25 632.23 329.27 632.23 329.3 632.23 329.33 632.21 329.38 632.21 329.39 632.21 329.41 632.21 329.43 632.26 329.62 632.26 329.65 632.26 329.67 632.23 329.76 632.2 329.86 632.19 329.95 632.19 330.01 632.21 330.05 632.23 330.09 632.27 330.13 632.39 330.19 632.43 330.22 632.46 330.26 632.48 330.3 632.5 330.34 632.52 330.41 632.53 330.44 632.55 330.46 632.57 330.47 632.63 330.51 632.64 330.52 632.69 330.57 632.7 330.58 632.72 330.59 632.77 330.62 632.78 330.63 632.81 330.68 632.82 330.73 632.81 330.83 632.82 330.89 632.84 330.94 632.88 330.99 632.93 331.02 632.99 331.05 633.28 331.15 633.3 331.15 633.39 331.16 633.65 331.22 633.67 331.23 633.69 331.24 633.69 331.25 633.69 331.26 633.68 331.28 633.65 331.29 633.61 331.31 633.55 331.37 633.55 331.45 633.58 331.54 633.66 331.72 633.69 331.76 633.72 331.79 633.74 331.8 633.77 331.81 633.87 331.8 633.91 331.81 634.01 331.84 634.11 331.9 634.17 331.99 634.19 332.1 634.17 332.22 634.12 332.36 634.11 332.41 634.1 332.51 634.09 332.55 634.06 332.58 634.05 332.58 633.98 332.63 633.87 332.67 633.83 332.7 633.81 332.75 633.82 332.79 633.86 332.81 633.9 332.82 633.94 332.82 633.99 332.81 633.99 332.82 634 332.87 634 332.93 633.99 332.93 633.93 332.97 633.87 333.02 633.78 333.12 633.76 333.15 633.74 333.2 633.73 333.25 633.73 333.3 633.75 333.34 633.8 333.34 633.85 333.4 633.87 333.4 633.9 333.4 633.9 333.4 633.91 333.41 633.91 333.44 633.91 333.45 633.98 333.54 634.01 333.56 634.01 333.56 634.01 333.56 634.01 333.56 634.06 333.57 634.04 333.6 633.96 333.66 633.93 333.7 633.97 333.77 633.95 333.82 633.94 333.83 633.91 333.83 633.9 333.83 633.89 333.84 633.9 333.88 633.91 333.91 633.91 333.92 633.9 333.93 633.87 333.94 633.86 333.94 633.84 333.99 633.83 334.04 633.84 334.09 633.86 334.13 633.87 334.15 633.85 334.26 633.85 334.33 633.88 334.48 633.88 334.54 633.85 334.61 633.78 334.7 633.73 334.75 633.71 334.76 633.7 334.78 633.68 334.84 633.67 334.85 633.65 334.86 633.59 334.88 633.57 334.88 633.55 334.9 633.51 334.94 633.49 334.95 633.46 334.95 633.43 334.92 633.4 334.92 633.39 334.93 633.36 334.98 633.35 335 633.31 335.01 633.19 335.04 633.16 335.04 633.09 335.08 633.04 335.19 632.97 335.3 632.85 335.34 632.81 335.32 632.77 335.27 632.7 335.14 632.69 335.12 632.7 335.02 632.7 334.99 632.69 334.96 632.65 334.95 632.56 334.93 632.52 334.93 632.51 334.92 632.47 334.89 632.45 334.89 632.43 334.89 632.39 334.89 632.38 334.89 632.34 334.87 632.31 334.85 632.28 334.83 632.24 334.83 632.21 334.84 632.15 334.89 632.11 334.9 632.1 334.89 632.09 334.85 632.07 334.84 632.05 334.85 632.03 334.88 632.01 334.9 631.98 334.9 631.92 334.87 631.89 334.87 631.85 334.89 631.83 334.93 631.81 334.96 631.78 334.99 631.74 335.01 631.7 335 631.67 334.98 631.63 334.98 631.6 334.98 631.58 335 631.57 335.01 631.56 335.01 631.55 335.01 631.54 335.02 631.52 335.01 631.51 335 631.25 334.97 631.13 334.92 631.08 334.91 631.05 334.93 631.02 334.96 630.98 334.97 630.95 334.96 630.94 334.94 630.94 334.92 630.94 334.91 630.93 334.91 630.92 334.91 630.92 334.93 630.86 334.99 630.85 334.99 630.82 334.99 630.8 334.98 630.79 334.97 630.78 334.96 630.7 334.98 630.63 335.01 630.63 335.01 630.61 335.02 630.54 335.04 630.48 334.99 630.36 335 630.34 335.02 630.33 335.03 630.32 335.05 630.28 335.05 630.25 335.05 630.22 335.03 630.2 335.01 630.18 335 630.14 334.99 630.12 334.99 630.11 334.99 630.08 335 630.04 334.99 629.91 334.96 629.83 334.95 629.81 334.95 629.81 334.93 629.81 334.87 629.81 334.85 629.79 334.84 629.77 334.82 629.75 334.82 629.73 334.82 629.71 334.83 629.7 334.85 629.7 334.87 629.68 334.88 629.64 334.91 629.61 334.9 629.58 334.88 629.54 334.87 629.5 334.87 629.41 334.92 629.33 334.98 629.31 334.98 629.29 334.98 629.27 334.97 629.26 334.96 629.25 334.95 629.22 334.96 629.16 335.01 629.12 335.02 629.07 335.03 628.92 335.03 628.86 335.05 628.76 335.08 628.62 335.1 628.58 335.11 628.51 335.15 628.35 335.28 628.33 335.31 628.29 335.33 628.21 335.35 628.17 335.37 628.14 335.4 628.13 335.44 628.13 335.45 628.13 335.48 628.12 335.53 628.1 335.56 628.06 335.63 628.04 335.66 628.03 335.72 628.04 335.75 628.03 335.78 628 335.82 627.87 335.92 627.81 335.97 627.77 336.04 627.73 336.17 627.72 336.21 627.68 336.26 627.67 336.27 627.66 336.3 627.66 336.34 627.65 336.37 627.6 336.41 627.37 336.52 627.3 336.57 627.3 336.62 627.35 336.67 627.42 336.72 627.38 336.73 627.28 336.79 627.24 336.81 627.1 336.82 626.92 336.8 626.84 336.81 626.79 336.87 626.8 336.89 626.82 336.93 626.83 336.95 626.83 336.97 626.83 336.99 626.83 337 626.84 337.17 626.83 337.31 626.83 337.47 626.83 337.47 626.95 337.78 626.99 337.86 627.09 337.97 627.13 338.05 627.15 338.08 627.19 338.1 627.19 338.1 627.19 338.11 627.18 338.12 627.17 338.13 627.15 338.14 627.14 338.15 627.14 338.16 627.14 338.17 627.16 338.19 627.16 338.19 627.16 338.2 627.13 338.23 627.13 338.25 627.14 338.28 627.15 338.3 627.16 338.36 627.17 338.44 627.19 338.49 627.2 338.51 627.21 338.53 627.22 338.54 627.22 338.57 627.22 338.59 627.2 338.66 627.2 338.66 627.17 338.69 627.16 338.72 627.16 338.77 627.16 338.82 627.18 338.85 627.2 338.87 627.21 338.88 627.34 338.92 627.4 338.97 627.57 339.14 627.63 339.17 627.64 339.19 627.65 339.21 627.66 339.25 627.66 339.26 627.69 339.3 627.76 339.33 627.79 339.36 627.79 339.39 627.8 339.41 627.78 339.44 627.72 339.49 627.7 339.53 627.68 339.57 627.63 339.94 627.65 340.03 627.77 340.21 627.8 340.24 627.81 340.26 627.84 340.34 627.87 340.45 627.97 340.65 628.06 340.78 628.13 340.87 628.15 340.96 628.16 341.09 628.13 341.14 628.13 341.14 628.11 341.1 628.11 340.98 628.11 340.93 628.08 340.86 627.93 340.66 627.84 340.59 627.82 340.56 627.82 340.42 627.8 340.32 627.76 340.25 627.5 340 627.5 339.98 627.55 339.99 627.52 339.95 627.44 339.89 627.44 339.86 627.44 339.85 627.41 339.87 627.37 339.87 627.35 339.89 627.34 339.93 627.37 340.14 627.39 340.19 627.4 340.21 627.39 340.23 627.37 340.23 627.35 340.22 627.33 340.22 627.32 340.21 627.32 340.16 627.32 340.14 627.28 340.09 627.22 340.04 627.15 340.01 626.91 339.93 626.88 339.9 626.85 339.9 626.82 339.94 626.81 339.94 626.76 339.92 626.74 339.91 626.74 339.89 626.74 339.87 626.74 339.86 626.74 339.85 626.73 339.8 626.69 339.73 626.68 339.69 626.74 339.71 626.8 339.69 626.85 339.65 626.88 339.62 626.9 339.56 626.88 339.52 626.85 339.5 626.82 339.52 626.84 339.53 626.85 339.54 626.86 339.55 626.86 339.57 626.83 339.61 626.79 339.63 626.75 339.63 626.73 339.58 626.73 339.48 626.75 339.43 626.77 339.38 626.76 339.38 626.75 339.4 626.71 339.46 626.7 339.46 626.69 339.43 626.68 339.4 626.69 339.38 626.7 339.35 626.67 339.37 626.64 339.38 626.61 339.38 626.59 339.35 626.56 339.36 626.55 339.37 626.57 339.38 626.58 339.4 626.57 339.42 626.56 339.45 626.58 339.45 626.62 339.41 626.64 339.44 626.65 339.46 626.65 339.48 626.64 339.51 626.68 339.54 626.71 339.61 626.69 339.66 626.61 339.62 626.47 339.48 626.4 339.44 626.38 339.42 626.38 339.4 626.34 339.35 626.29 339.3 626.26 339.24 626.27 339.2 626.28 339.22 626.29 339.22 626.3 339.22 626.32 339.23 626.29 339.21 626.3 339.19 626.33 339.17 626.35 339.13 626.33 339.13 626.32 339.16 626.31 339.17 626.29 339.16 626.27 339.15 626.3 339.13 626.31 339.12 626.32 339.12 626.21 339.12 626.2 339.1 626.24 339.06 626.15 339.06 626.12 339.07 626.12 339.09 626.15 339.11 626.17 339.14 626.2 339.17 626.24 339.17 626.23 339.19 626.23 339.22 626.23 339.29 626.15 339.17 626.12 339.14 626.08 339.13 626.04 339.12 626.01 339.13 626.01 339.04 626.01 339.01 626 338.99 625.99 338.98 625.98 338.99 625.98 339 625.96 339.02 625.95 339.03 625.98 339.13 625.98 339.15 625.91 339.09 625.88 339.06 625.86 339.03 625.91 339.04 625.9 339.01 625.88 339 625.87 339 625.85 339 625.83 338.98 625.82 338.96 625.81 338.94 625.8 338.92 625.76 338.87 625.72 338.83 625.68 338.79 625.62 338.76 625.58 338.75 625.44 338.75 625.4 338.76 625.38 338.79 625.37 338.83 625.35 338.86 625.31 338.88 625.26 338.88 625.17 338.87 625.15 338.88 625.15 338.9 625.15 338.91 625.15 338.92 625.14 338.92 625.11 338.92 625.08 338.92 625.01 338.9 624.91 338.92 624.87 338.94 624.84 338.96 624.83 339 624.81 339 624.75 338.97 624.6 338.9 624.43 338.86 624.08 338.81 624.03 338.82 623.95 338.86 623.86 338.88 623.83 338.9 623.83 338.9 623.83 338.94 623.83 339 623.72 338.95 623.72 338.94 623.75 338.91 623.74 338.87 623.7 338.85 623.66 338.87 623.64 338.86 623.62 338.86 623.6 338.87 623.57 338.87 623.58 338.87 623.59 338.86 623.59 338.84 623.6 338.83 623.55 338.83 623.56 338.81 623.58 338.78 623.58 338.76 623.56 338.76 623.52 338.75 623.56 338.65 623.59 338.61 623.63 338.63 623.64 338.63 623.66 338.6 623.68 338.58 623.7 338.56 623.71 338.52 623.7 338.48 623.69 338.45 623.68 338.42 623.59 338.3 623.58 338.27 623.59 338.25 623.61 338.24 623.63 338.23 623.64 338.21 623.65 338.19 623.65 338.15 623.66 338.13 623.68 338.14 623.7 338.13 623.72 338.11 623.74 338.08 623.74 338.03 623.71 337.99 623.69 337.96 623.67 337.92 623.67 337.91 623.64 337.9 623.62 337.89 623.61 337.87 623.66 337.81 623.7 337.74 623.74 337.67 623.76 337.64 623.76 337.59 623.74 337.51 623.73 337.49 623.7 337.44 623.69 337.43 623.69 337.4 623.7 337.39 623.71 337.38 623.73 337.33 623.77 337.31 623.81 337.3 623.84 337.28 623.85 337.25 623.85 337.19 623.85 337.15 623.82 337.1 623.84 337.05 623.87 336.98 623.87 336.97 623.85 336.99 623.83 337.01 623.8 337.02 623.77 337.03 623.64 337.03 623.58 337.02 623.47 336.99 623.38 336.98 623.33 336.96 623.17 336.94 623.11 336.91 623.02 336.85 622.98 336.84 622.97 336.82 622.98 336.8 622.99 336.77 622.99 336.74 622.99 336.7 622.97 336.75 622.96 336.79 622.96 336.88 622.94 336.91 622.9 336.93 622.62 336.98 622.51 336.98 622.46 336.98 622.41 337 622.31 336.95 622.28 336.92 622.25 336.96 622.23 336.99 622.19 337.01 622 337.09 621.92 337.1 621.86 337.13 621.82 337.15 621.78 337.16 621.75 337.18 621.74 337.23 621.71 337.26 621.67 337.25 621.7 337.26 621.7 337.3 621.68 337.34 621.65 337.36 621.62 337.37 621.58 337.39 621.58 337.43 621.58 337.43 621.59 337.5 621.66 337.6 621.79 337.7 621.8 337.72 621.81 337.73 621.83 337.74 621.84 337.77 621.84 337.79 621.86 337.87 621.9 337.96 621.89 338 621.87 338.04 621.8 338.13 621.78 338.17 621.76 338.24 621.73 338.4 621.72 338.44 621.64 338.56 621.61 338.65 621.59 338.74 621.58 338.84 621.58 338.91 621.58 338.94 621.62 339.08 621.62 339.13 621.62 339.27 621.62 339.32 621.69 339.48 621.69 339.51 621.67 339.55 621.63 339.71 621.63 339.74 621.65 339.76 621.67 339.78 621.69 339.8 621.7 339.83 621.7 339.87 621.71 339.89 621.71 339.91 621.7 339.94 621.69 339.95 621.65 339.98 621.64 340 621.63 340.08 621.62 340.1 621.57 340.18 621.35 340.42 621.29 340.51 621.27 340.62 621.31 340.7 621.3 340.71 621.27 340.71 621.25 340.72 621.25 340.74 621.24 340.76 621.26 340.85 621.26 340.86 621.25 340.88 621.25 340.9 621.26 340.93 621.18 340.94 621.12 341 620.94 341.29 620.93 341.32 620.92 341.35 620.87 341.42 620.86 341.46 620.86 341.51 620.85 341.56 620.84 341.6 620.78 341.73 620.77 341.75 620.76 341.77 620.72 341.82 620.71 341.84 620.71 341.97 620.71 342.02 620.75 342.11 620.75 342.15 620.71 342.19 620.7 342.15 620.66 342.15 620.62 342.17 620.59 342.2 620.58 342.23 620.56 342.26 620.55 342.29 620.55 342.33 620.55 342.38 620.59 342.46 620.59 342.5 620.59 342.55 620.57 342.6 620.56 342.62 620.55 342.66 620.55 342.72 620.58 342.81 620.59 342.86 620.58 342.89 620.57 342.89 620.55 342.87 620.55 342.86 620.5 342.86 620.47 342.87 620.45 342.87 620.43 342.88 620.42 342.9 620.42 342.99 620.41 343.04 620.28 343.24 620.27 343.26 620.28 343.28 620.29 343.3 620.28 343.31 620.25 343.31 620.21 343.32 620.18 343.35 620.14 343.38 620.12 343.42 620.11 343.46 620.09 343.57 620.07 343.61 620.04 343.62 620.01 343.62 619.99 343.63 619.98 343.66 619.99 343.68 620 343.69 620.02 343.69 620.04 343.69 620.03 343.72 620.01 343.75 619.99 343.77 619.98 343.81 620 343.84 620.07 343.88 620.09 343.91 620.09 343.94 620.09 343.98 620.08 344.01 620.07 344.03 620.03 344.03 620.02 344.03 619.97 344.06 619.96 344.03 619.95 344.01 619.92 344 619.89 343.98 619.86 344 619.83 344 619.81 344.01 619.79 344.03 619.79 344.06 619.8 344.15 619.82 344.19 619.91 344.26 619.95 344.31 619.97 344.32 620.01 344.31 619.99 344.35 619.9 344.36 619.88 344.39 619.86 344.44 619.8 344.54 619.79 344.6 619.79 344.66 619.81 344.7 619.84 344.73 619.85 344.77 619.84 344.8 619.81 344.82 619.8 344.85 619.82 344.95 619.82 345.13 619.82 345.13 619.83 345.14 619.83 345.15 619.83 345.16 619.82 345.18 619.8 345.2 619.79 345.21 619.78 345.23 619.77 345.26 619.77 345.3 619.77 345.3 619.78 345.35 619.81 345.44 619.82 345.53 619.83 345.58 619.85 345.63 619.92 345.73 619.93 345.76 619.94 345.81 619.94 345.85 620.04 346.02 620.17 346.19 620.15 346.19 620.14 346.19 620.13 346.19 620.11 346.19 620.09 346.19 620.09 346.2 620.1 346.21 620.09 346.22 620.03 346.25 620.01 346.27 619.97 346.31 619.96 346.35 619.97 346.44 620.02 346.54 620.12 346.57 620.23 346.57 620.29 346.63 620.36 346.62 620.43 346.63 620.5 346.61 620.56 346.57 620.58 346.54 620.59 346.5 620.61 346.46 620.64 346.43 620.67 346.43 620.77 346.45 620.8 346.44 620.83 346.43 620.85 346.41 620.87 346.4 620.94 346.39 620.98 346.36 620.98 346.36 621.06 346.36 621.08 346.37 621.09 346.35 621.12 346.35 621.16 346.37 621.18 346.37 621.19 346.36 621.22 346.35 621.23 346.34 621.26 346.37 621.34 346.4 621.34 346.43 621.34 346.45 621.36 346.49 621.4 346.56 621.41 346.54 621.42 346.71 621.43 346.75 621.44 346.78 621.46 346.81 621.48 346.83 621.49 346.87 621.49 346.98 621.49 347 621.51 347.04 621.52 347.06 621.51 347.06 621.5 347.07 621.49 347.09 621.49 347.11 621.49 347.16 621.51 347.33 621.5 347.37 621.53 347.44 621.58 347.87 621.59 347.94 621.63 348 621.76 348.07 621.78 348.11 621.79 348.15 621.84 348.24 621.87 348.29 621.89 348.34 621.9 348.36 621.91 348.37 621.96 348.39 621.97 348.4 621.99 348.42 622.02 348.43 622.05 348.42 622.08 348.4 622.06 348.34 622.05 348.25 622.03 348.17 621.96 348.14 622 348.12 622.07 348.17 622.13 348.24 622.16 348.29 622.27 348.58 622.34 349.02 622.43 349.42 622.48 349.68 622.64 350.45 622.78 350.77 622.9 350.95 622.92 351 622.94 351.04 622.94 351.08 622.88 351.07 622.85 351.04 622.77 350.97 622.73 350.94 622.71 350.93 622.65 350.94 622.61 350.91 622.64 350.86 622.62 350.78 622.6 350.69 622.57 350.67 622.58 350.49 622.57 350.34 622.53 350.25 622.46 350.22 622.39 350.23 622.34 350.31 622.32 350.35 622.31 350.36 622.28 350.35 622.27 350.33 622.26 350.31 622.26 350.3 622.26 350.27 622.28 350.23 622.35 350.18 622.38 350.14 622.39 350.05 622.38 349.94 622.35 349.83 622.31 349.76 622.26 349.74 622.22 349.75 622.18 349.77 622.13 349.77 622.11 349.79 622.01 349.88 621.99 349.91 621.98 349.95 622.01 350.14 622.05 350.25 622.06 350.33 622.08 350.37 622.1 350.38 622.11 350.39 622.16 350.43 622.17 350.44 622.17 350.45 622.24 350.63 622.28 350.7 622.34 350.75 622.39 350.75 622.44 350.75 622.49 350.77 622.51 350.82 622.51 350.82 622.51 350.87 622.51 350.9 622.52 350.92 622.54 350.93 622.57 350.93 622.59 350.95 622.61 350.96 622.58 350.98 622.56 350.99 622.54 351 622.54 351.01 622.54 351.04 622.56 351.06 622.58 351.07 622.61 351.13 622.63 351.15 622.67 351.16 622.7 351.16 622.73 351.18 622.74 351.2 622.76 351.2 622.82 351.21 622.85 351.2 622.9 351.19 622.95 351.14 622.97 351.11 622.97 351.05 622.96 351.01 623.02 351.08 623.36 351.55 623.41 351.58 623.46 351.6 623.5 351.61 623.55 351.59 623.59 351.62 623.65 351.69 623.77 351.77 623.88 351.83 623.94 351.83 624.03 351.82 624.31 351.81 624.4 351.77 624.42 351.72 624.5 351.74 624.53 351.76 624.57 351.77 624.59 351.78 624.59 351.78 624.66 351.78 624.64 351.74 624.61 351.69 624.47 351.63 624.53 351.61 624.59 351.62 624.65 351.67 624.74 351.72 624.81 351.74 624.85 351.75 624.89 351.76 624.93 351.76 624.97 351.78 624.98 351.79 625.04 351.82 625.12 351.86 625.14 351.88 625.36 352.26 625.49 352.45 625.59 352.61 625.68 352.69 625.9 352.83 626.14 353.07 626.26 353.15 626.26 353.15 626.26 353.15 626.25 353.27 626.26 353.44 626.23 353.51 626.17 353.57 626.01 353.7 625.96 353.76 625.92 353.86 625.92 353.95 625.91 354.03 625.83 354.1 625.81 354.11 625.8 354.13 625.79 354.15 625.78 354.17 625.71 354.21 625.7 354.22 625.68 354.27 625.66 354.3 625.62 354.3 625.57 354.28 625.56 354.25 625.54 354.23 625.52 354.2 625.49 354.2 625.47 354.2 625.43 354.24 625.43 354.24 625.41 354.25 625.36 354.24 625.33 354.2 625.28 354.1 625.28 354.08 625.29 354.06 625.29 354.04 625.27 354.03 625.24 354.03 625.22 354.02 625.21 354 625.2 353.98 625.17 353.93 625.12 353.92 625.07 353.93 624.99 353.96 624.75 354.05 624.68 354.1 624.59 354.14 624.5 354.16 624.44 354.19 624.41 354.29 624.4 354.34 624.38 354.39 624.35 354.43 624.32 354.46 624.22 354.52 624.15 354.54 624.12 354.52 624.09 354.47 624.06 354.41 624.02 354.37 623.97 354.33 623.94 354.33 623.9 354.33 623.88 354.32 623.87 354.3 623.84 354.25 623.82 354.23 623.81 354.21 623.81 354.18 623.81 354.16 623.83 354.13 623.92 353.95 623.95 353.92 624 353.92 624.04 353.9 624.06 353.86 624.06 353.82 624.08 353.75 624.08 353.62 624.09 353.53 624.08 353.49 624.04 353.46 624 353.43 624 353.37 624.03 353.34 624.06 353.32 624.08 353.3 624.09 353.25 624.08 353.21 624.06 353.18 624.04 353.17 623.93 353.19 623.9 353.18 623.83 353.12 623.78 353.13 623.73 353.19 623.68 353.2 623.59 353.18 623.56 353.17 623.53 353.18 623.52 353.2 623.51 353.2 623.49 353.17 623.49 353.15 623.49 353.08 623.49 353.06 623.49 353.06 623.5 353.04 623.5 353.02 623.5 353 623.47 352.96 623.46 352.94 623.46 352.91 623.45 352.8 623.43 352.76 623.38 352.73 623.36 352.73 623.33 352.73 623.31 352.73 623.29 352.71 623.29 352.69 623.29 352.64 623.28 352.63 623.25 352.63 623.1 352.73 623.06 352.74 623.02 352.73 622.95 352.7 622.81 352.66 622.77 352.64 622.7 352.59 622.67 352.58 622.61 352.59 622.57 352.58 622.53 352.57 622.5 352.56 622.44 352.53 622.4 352.49 622.37 352.45 622.29 352.2 622.27 352.18 622.25 352.17 622.22 352.17 622.2 352.17 622.17 352.19 622.17 352.2 622.14 352.2 622.12 352.19 622.11 352.17 622.1 352.17 622.08 352.16 622.05 352.17 622.04 352.18 622.03 352.21 622.03 352.26 622.01 352.35 622.02 352.39 622.03 352.44 622.04 352.47 622.02 352.49 622 352.51 621.99 352.53 621.99 352.55 621.99 352.59 622 352.61 621.99 352.66 621.97 352.71 621.95 352.74 621.93 352.7 621.91 352.66 621.87 352.65 621.89 352.58 621.9 352.54 621.87 352.53 621.85 352.53 621.83 352.55 621.81 352.6 621.73 352.54 621.67 352.47 621.66 352.45 621.66 352.42 621.65 352.4 621.63 352.39 621.6 352.4 621.59 352.41 621.58 352.4 621.59 352.38 621.61 352.35 621.61 352.34 621.6 352.32 621.58 352.28 621.58 352.26 621.57 352.25 621.55 352.25 621.53 352.25 621.52 352.23 621.51 352.19 621.48 352.16 621.43 352.12 621.37 352.03 621.34 352 621.3 352.02 621.28 352.02 621.26 351.99 621.24 351.93 621.23 351.91 621.22 351.9 621.03 351.83 620.97 351.78 620.97 351.69 620.98 351.65 620.99 351.65 621.02 351.65 621.03 351.64 621.03 351.61 621.02 351.59 620.99 351.58 620.96 351.57 620.96 351.52 620.97 351.48 620.96 351.45 620.99 351.37 621.01 351.34 621.04 351.33 621.05 351.31 621.11 351.23 621.09 351.2 621.05 351.22 621.01 351.24 620.99 351.25 620.95 351.23 620.94 351.21 620.94 351.13 620.86 351.17 620.83 351.2 620.81 351.2 620.8 351.17 620.79 351.17 620.74 351.16 620.69 351.07 620.65 350.97 620.66 350.92 620.71 350.89 620.75 350.83 620.78 350.75 620.79 350.67 620.77 350.67 620.71 350.79 620.67 350.84 620.61 350.82 620.6 350.78 620.61 350.69 620.61 350.66 620.58 350.65 620.55 350.69 620.54 350.73 620.53 350.76 620.54 350.84 620.53 350.87 620.49 350.89 620.47 350.88 620.44 350.87 620.41 350.85 620.39 350.83 620.38 350.83 620.32 350.82 620.29 350.8 620.26 350.76 620.2 350.66 620.22 350.62 620.22 350.57 620.21 350.47 620.21 350.45 620.19 350.42 620.18 350.39 620.17 350.39 620.12 350.39 620.11 350.38 620.13 350.34 620.13 350.29 620.12 350.23 620.1 350.13 620.08 350.13 620.06 350.14 620.04 350.14 620.03 350.13 620 350.11 620 350.1 620.02 350.09 620.03 350.08 620.02 350.05 619.99 350.02 619.96 350 619.93 350 619.91 349.99 619.88 349.94 619.83 349.91 619.79 349.89 619.75 349.86 619.74 349.8 619.73 349.8 619.72 349.88 619.7 349.94 619.65 349.97 619.57 349.96 619.52 349.9 619.51 349.76 619.48 349.7 619.57 349.63 619.59 349.6 619.59 349.56 619.61 349.49 619.6 349.45 619.56 349.5 619.54 349.51 619.51 349.5 619.5 349.49 619.47 349.43 619.45 349.42 619.41 349.4 619.38 349.38 619.36 349.34 619.36 349.32 619.37 349.3 619.37 349.29 619.36 349.27 619.35 349.25 619.31 349.23 619.29 349.22 619.28 349.2 619.28 349.18 619.27 349.17 619.24 349.18 619.23 349.19 619.21 349.23 619.2 349.24 619.17 349.25 619.14 349.27 619.1 349.28 619.07 349.27 619.06 349.26 619.05 349.21 619.03 349.19 619.01 349.17 618.99 349.18 618.99 349.2 618.98 349.21 618.95 349.24 618.94 349.23 618.94 349.2 618.93 349.18 618.9 349.15 618.89 349.14 618.89 349.09 618.89 348.98 618.88 348.95 618.89 348.88 618.89 348.84 618.88 348.81 618.85 348.72 618.81 348.79 618.8 348.79 618.79 348.62 618.78 348.6 618.73 348.61 618.67 348.65 618.65 348.65 618.63 348.65 618.63 348.66 618.62 348.66 618.61 348.64 618.62 348.52 618.63 348.5 618.67 348.47 618.69 348.44 618.66 348.43 618.61 348.42 618.57 348.4 618.56 348.45 618.53 348.47 618.49 348.47 618.46 348.49 618.43 348.51 618.4 348.54 618.36 348.55 618.34 348.52 618.33 348.52 618.32 348.55 618.31 348.57 618.3 348.56 618.28 348.54 618.27 348.54 618.27 348.57 618.22 348.56 618.18 348.58 618.17 348.61 618.24 348.63 618.25 348.67 618.25 348.71 618.26 348.75 618.26 348.81 618.22 348.9 618.18 348.96 618.15 348.92 618.13 348.92 618.13 348.94 618.12 348.96 618.1 348.98 618.07 348.95 618.02 348.88 617.97 348.85 617.96 348.84 617.95 348.82 617.93 348.81 617.9 348.81 617.88 348.81 617.87 348.8 617.86 348.79 617.85 348.75 617.85 348.66 617.84 348.63 617.81 348.59 617.77 348.38 617.68 348.1 617.67 348.05 617.68 348.01 617.7 347.99 617.71 348.01 617.71 348.06 617.73 348.09 617.78 348.14 617.79 348.1 617.77 348.07 617.74 348.05 617.72 348.02 617.72 348.01 617.73 348 617.73 347.99 617.74 347.98 617.73 347.94 617.74 347.93 617.76 347.86 617.77 347.84 617.76 347.79 617.73 347.7 617.72 347.67 617.73 347.65 617.75 347.64 617.76 347.63 617.78 347.61 617.79 347.6 617.79 347.58 617.8 347.44 617.81 347.39 617.86 347.32 617.88 347.23 617.93 347.17 617.95 347.12 617.97 347.11 617.98 347.11 618.01 347.12 618.04 347.12 618.03 347.1 618.03 347.07 618.05 347.04 618.1 346.98 618.03 347.01 617.99 347.02 617.97 347 617.96 346.95 617.99 346.92 618.04 346.92 618.08 346.9 618.06 346.83 617.99 346.75 617.96 346.7 617.95 346.64 617.95 346.6 617.96 346.61 617.99 346.62 618 346.61 618.02 346.59 618.06 346.56 618.01 346.54 618.01 346.5 618.03 346.46 618.04 346.43 618.07 346.4 618.08 346.36 618.11 346.22 618.13 346.18 618.18 346.1 618.22 345.9 618.25 345.84 618.31 345.88 618.39 345.83 618.41 345.8 618.4 345.78 618.39 345.77 618.35 345.78 618.33 345.78 618.32 345.77 618.31 345.74 618.3 345.73 618.26 345.71 618.28 345.68 618.32 345.65 618.34 345.65 618.35 345.64 618.37 345.61 618.37 345.6 618.37 345.59 618.33 345.53 618.36 345.53 618.37 345.51 618.36 345.49 618.33 345.47 618.34 345.46 618.38 345.48 618.41 345.49 618.44 345.49 618.45 345.45 618.46 345.45 618.48 345.43 618.49 345.41 618.47 345.39 618.43 345.39 618.41 345.39 618.39 345.38 618.38 345.39 618.38 345.4 618.37 345.41 618.36 345.41 618.36 345.39 618.36 345.34 618.36 345.33 618.38 345.32 618.4 345.31 618.41 345.31 618.43 345.3 618.46 345.28 618.49 345.25 618.51 345.22 618.53 345.18 618.51 345.2 618.47 345.24 618.45 345.26 618.43 345.25 618.42 345.24 618.41 345.22 618.37 345.19 618.39 345.16 618.42 345.11 618.45 345.09 618.46 345.11 618.47 345.11 618.49 345.11 618.51 345.1 618.5 345.09 618.53 345.06 618.54 345.04 618.53 345.03 618.52 345.03 618.5 345.02 618.5 345.01 618.53 344.99 618.55 344.96 618.56 344.95 618.61 344.95 618.63 344.94 618.64 344.91 618.62 344.9 618.59 344.91 618.59 344.92 618.56 344.89 618.56 344.87 618.57 344.84 618.67 344.68 618.7 344.64 618.76 344.47 618.81 344.37 618.83 344.32 618.84 344.27 618.85 344.22 618.85 344.18 618.89 344.09 618.89 344.05 618.93 343.91 618.95 343.8 618.99 343.71 618.99 343.67 618.96 343.53 618.94 343.5 618.9 343.46 618.89 343.44 618.91 343.34 618.93 343.29 619.03 343.16 619.07 343.12 619.09 343.11 619.14 343.11 619.16 343.11 619.17 343.09 619.18 343.07 619.19 343.04 619.21 343.02 619.24 343.01 619.26 343.01 619.28 343.02 619.3 343.02 619.38 342.99 619.39 342.99 619.41 342.97 619.42 342.95 619.43 342.9 619.43 342.87 619.41 342.83 619.4 342.8 619.41 342.78 619.41 342.75 619.42 342.73 619.43 342.71 619.45 342.69 619.46 342.68 619.47 342.69 619.5 342.69 619.53 342.7 619.55 342.71 619.57 342.71 619.59 342.69 619.61 342.62 619.62 342.6 619.66 342.56 619.75 342.52 619.76 342.5 619.79 342.48 619.8 342.46 619.82 342.42 619.84 342.4 619.86 342.38 619.91 342.37 619.92 342.35 619.99 342.15 620.02 342.1 620.09 342.01 620.12 341.96 620.15 341.87 620.17 341.84 620.26 341.75 620.27 341.71 620.27 341.67 620.29 341.61 620.31 341.58 620.37 341.51 620.4 341.48 620.42 341.43 620.43 341.39 620.42 341.3 620.43 341.25 620.45 341.21 620.48 341.19 620.53 341.18 620.63 341.17 620.65 341.15 620.8 340.96 620.81 340.91 620.85 340.76 620.84 340.74 620.8 340.73 620.76 340.7 620.72 340.66 620.69 340.63 620.68 340.58 620.69 340.53 620.72 340.44 620.72 340.4 620.71 340.36 620.68 340.33 620.63 340.32 620.6 340.29 620.61 340.22 620.64 340.12 620.65 340.09 620.65 340.07 620.66 340.05 620.65 340.03 620.63 340.02 620.61 340.02 620.48 340.06 620.45 340.05 620.44 340.01 620.46 339.99 620.48 339.97 620.5 339.95 620.5 339.92 620.49 339.9 620.47 339.86 620.46 339.83 620.46 339.81 620.46 339.77 620.46 339.74 620.44 339.72 620.41 339.68 620.4 339.65 620.39 339.61 620.38 339.48 620.37 339.43 620.32 339.34 620.31 339.3 620.31 339.27 620.34 339.22 620.35 339.2 620.35 339.15 620.35 339.1 620.35 339.07 620.34 339.05 620.32 339.02 620.21 338.96 620.19 338.94 620.17 338.91 620.15 338.89 620.14 338.87 620.08 338.86 620.06 338.84 620.06 338.83 620.05 338.78 620.04 338.76 620.02 338.75 619.97 338.74 619.95 338.73 619.92 338.69 619.92 338.65 619.93 338.61 619.92 338.56 619.9 338.53 619.86 338.49 619.84 338.47 619.83 338.44 619.82 338.37 619.79 338.31 619.79 338.29 619.79 338.26 619.8 338.23 619.81 338.21 619.82 338.19 619.82 338.15 619.78 338.1 619.74 338.06 619.71 338.04 619.66 338 619.65 337.96 619.66 337.91 619.68 337.85 619.68 337.8 619.68 337.75 619.68 337.7 619.7 337.66 619.75 337.65 619.83 337.64 619.86 337.61 619.87 337.61 619.87 337.57 619.86 337.52 619.83 337.44 619.83 337.41 619.84 337.39 619.86 337.37 619.86 337.35 619.86 337.32 619.86 337.28 619.87 337.17 619.87 337.12 619.79 336.77 619.78 336.58 619.79 336.53 619.79 336.47 619.78 336.45 619.76 336.43 619.69 336.36 619.67 336.33 619.65 336.22 619.65 336.18 619.65 336.15 619.65 336.14 619.65 336.12 619.64 336.1 619.63 336.09 619.6 336.09 619.59 336.08 619.58 336.07 619.57 336.03 619.56 336.02 619.49 335.97 619.47 335.94 619.44 335.89 619.42 335.85 619.35 335.76 619.33 335.72 619.33 335.67 619.31 335.63 619.27 335.61 619.21 335.59 619.17 335.57 618.9 335.37 618.85 335.32 618.8 335.21 618.78 335.21 618.75 335.22 618.72 335.22 618.7 335.21 618.68 335.17 618.66 335.15 618.65 335.15 618.61 335.14 618.6 335.13 618.57 335.11 618.55 335.1 618.45 334.97 618.29 334.65 618.26 334.64 618.24 334.63 618.22 334.59 618.21 334.54 618.19 334.49 618.16 334.45 617.89 334.19 617.77 334 617.76 333.95 617.76 333.92 617.76 333.91 617.76 333.89 617.73 333.87 617.73 333.86 617.72 333.81 617.72 333.73 617.71 333.68 617.67 333.6 617.66 333.58 617.66 333.57 617.66 333.55 617.67 333.53 617.68 333.51 617.69 333.48 617.67 333.43 617.67 333.43 617.61 333.36 617.61 333.36 617.59 333.31 617.6 333.26 617.65 333.18 617.66 333.14 617.64 333.11 617.63 333.08 617.63 333.07 617.63 333.05 617.69 333.05 617.71 333.05 617.75 333.03 617.78 333 617.86 332.89 617.89 332.88 617.94 332.89 617.98 332.91 618.05 332.95 618.09 332.97 618.1 332.96 618.11 332.95 618.11 332.91 618.1 332.9 618.09 332.89 618.08 332.88 618.07 332.88 618.07 332.86 618.08 332.85 618.08 332.84 618.09 332.84 618.11 332.83 618.12 332.82 618.12 332.8 618.11 332.76 618.11 332.74 618.13 332.73 618.21 332.71 618.24 332.7 618.29 332.68 618.33 332.7 618.38 332.72 618.41 332.76 618.42 332.81 618.47 332.74 618.49 332.63 618.49 332.52 618.44 332.18 618.44 332.05 618.44 332.01 618.43 331.93 618.44 331.87 618.51 331.64 618.51 331.6 618.5 331.5 618.49 331.45 618.52 331.36 618.53 331.32 618.51 331.27 618.45 331.19 618.45 331.16 618.47 331.14 618.49 331.14 618.52 331.15 618.54 331.16 618.57 331.16 618.59 331.16 618.61 331.15 618.63 331.13 618.66 331.08 618.67 331.04 618.69 331 618.74 330.98 618.78 330.98 618.91 330.99 618.94 331.01 618.95 331.02 618.97 331.03 619 331.03 619.02 331.01 619.07 330.96 619.09 330.94 619.08 330.88 619.09 330.83 619.1 330.79 619.13 330.75 619.19 330.67 619.2 330.64 619.21 330.53 619.24 330.43 619.23 330.39 619.2 330.33 619.14 330.3 619.1 330.26 619.09 330.18 619.05 330.22 619.03 330.26 619.01 330.35 618.98 330.41 618.85 330.51 618.78 330.61 618.75 330.64 618.7 330.61 618.69 330.57 618.66 330.41 618.63 330.34 618.63 330.32 618.65 330.27 618.65 330.25 618.63 330.2 618.5 330.02 618.48 330 618.48 329.98 618.49 329.95 618.49 329.93 618.49 329.91 618.48 329.89 618.45 329.84 618.37 329.79 618.34 329.75 618.32 329.68 618.31 329.66 618.25 329.61 618.24 329.57 618.26 329.52 618.29 329.48 618.32 329.47 618.35 329.45 618.38 329.42 618.39 329.4 618.37 329.38 618.35 329.37 618.33 329.36 618.32 329.33 618.33 329.3 618.34 329.29 618.37 329.29 618.4 329.31 618.38 329.25 618.36 329.22 618.34 329.2 618.31 329.19 618.3 329.15 618.3 329.11 618.29 329.08 618.26 329.05 618.22 328.98 618.2 328.94 618.16 328.9 618.12 328.88 618.08 328.86 617.97 328.86 617.93 328.85 617.9 328.82 617.87 328.77 617.88 328.76 617.89 328.74 617.89 328.72 617.83 328.72 617.82 328.7 617.83 328.68 617.85 328.66 617.8 328.62 617.72 328.51 617.68 328.47 617.65 328.45 617.46 328.27 617.44 328.25 617.43 328.22 617.44 328.17 617.44 328.14 617.43 328.11 617.4 328.09 617.37 328.08 617.34 328.07 617.31 328.04 617.3 328 617.27 327.94 617.22 327.86 617.21 327.83 617.2 327.8 617.17 327.79 617.12 327.77 617.09 327.74 617.03 327.69 616.72 327.4 616.7 327.37 616.69 327.34 616.68 327.31 616.68 327.29 616.68 327.26 616.66 327.24 616.61 327.19 616.59 327.17 616.58 327.14 616.56 327.11 616.53 327.09 616.52 327.05 616.57 327.05 616.54 326.94 616.55 326.9 616.61 326.79 616.67 326.75 616.68 326.74 616.69 326.73 616.68 326.71 616.67 326.68 616.67 326.67 616.66 326.65 616.62 326.58 616.62 326.55 616.61 326.54 616.58 326.52 616.57 326.52 616.56 326.52 616.56 326.52 616.55 326.5 616.55 326.49 616.56 326.46 616.57 326.45 616.56 326.43 616.54 326.38 616.54 326.36 616.54 326.34 616.53 326.32 616.52 326.31 616.41 326.15 616.39 326.1 616.39 326.08 616.43 326.06 616.44 326.03 616.44 325.99 616.43 325.95 616.4 325.93 616.29 325.89 616.26 325.89 616.26 325.9 616.22 326.01 616.21 326.03 616.19 326.05 616.14 326.02 616.1 325.98 616.05 325.94 616.02 325.89 616.01 325.83 616.01 325.78 616 325.73 615.94 325.64 615.89 325.53 615.88 325.5 615.86 325.45 615.81 325.41 615.8 325.38 615.84 325.39 615.86 325.39 615.88 325.4 615.92 325.47 615.93 325.49 615.94 325.51 615.96 325.53 615.99 325.53 616.04 325.52 616.15 325.52 616.23 325.48 616.39 325.38 616.43 325.36 616.55 325.37 616.65 325.34 616.66 325.34 616.67 325.34 616.68 325.31 616.7 325.22 616.68 325.12 616.66 325.03 616.65 324.94 616.65 324.89 616.64 324.85 616.61 324.76 616.61 324.74 616.62 324.68 616.61 324.65 616.59 324.63 616.53 324.59 616.48 324.54 616.47 324.51 616.5 324.49 616.54 324.46 616.58 324.42 616.59 324.39 616.61 324.3 616.63 324.25 616.77 324.15 616.8 324.11 616.81 324.08 616.82 323.89 616.82 323.85 616.8 323.81 616.78 323.79 616.72 323.74 616.71 323.72 616.72 323.69 616.74 323.69 616.76 323.69 616.79 323.68 616.8 323.64 616.78 323.6 616.75 323.55 616.74 323.5 616.73 323.47 616.72 323.43 616.72 323.41 616.79 323.31 616.86 323.25 616.88 323.22 616.9 323.19 616.9 323.17 616.89 323.16 616.88 323.13 616.88 323.09 616.88 323.04 616.9 323.01 616.94 323.01 616.98 323 617.12 322.93 617.14 322.92 617.17 322.88 617.19 322.86 617.21 322.85 617.23 322.85 617.25 322.85 617.26 322.82 617.26 322.78 617.25 322.69 617.24 322.65 617.27 322.5 617.29 322.46 617.33 322.45 617.37 322.48 617.39 322.52 617.42 322.53 617.48 322.52 617.53 322.55 617.61 322.63 617.69 322.65 617.71 322.66 617.72 322.69 617.71 322.73 617.72 322.76 617.76 322.79 617.82 322.77 617.91 322.73 618 322.73 618.11 322.74 618.21 322.73 618.29 322.69 618.29 322.69 618.32 322.69 618.34 322.7 618.35 322.72 618.38 322.74 618.41 322.76 618.42 322.76 618.43 322.74 618.45 322.72 618.49 322.7 618.54 322.69 618.56 322.68 618.6 322.63 618.62 322.62 618.66 322.6 618.85 322.57 618.89 322.56 619.02 322.46 619.09 322.49 619.12 322.51 619.15 322.53 619.19 322.6 619.23 322.59 619.31 322.53 619.39 322.5 619.42 322.47 619.45 322.42 619.47 322.36 619.47 322.32 619.46 322.27 619.45 322.22 619.45 322.19 619.46 322.18 619.47 322.17 619.48 322.15 619.48 322.13 619.47 322.09 619.46 322.07 619.49 321.91 619.53 321.83 619.61 321.76 619.71 321.73 619.8 321.71 619.84 321.72 619.94 321.74 619.97 321.76 620.06 321.83 620.11 321.86 620.16 321.85 620.43 321.76 620.5 321.7 620.53 321.67 620.56 321.66 620.58 321.64 620.58 321.64 620.6 321.6 620.62 321.54 620.6 321.5 620.53 321.43 620.5 321.29 620.48 321.25 620.4 321.16 620.38 321.12 620.43 321.11 620.46 321.12 620.56 321.19 620.74 321.25 620.76 321.25 620.8 321.24 620.82 321.25 620.84 321.25 620.87 321.28 620.9 321.28 620.94 321.27 621.02 321.24 621.07 321.23 621.16 321.23 621.19 321.22 621.23 321.18 621.25 321.14 621.28 321.06 621.31 321.02 621.35 321 621.4 320.98 621.52 320.96 621.53 320.96 621.54 320.96 621.56 320.98 621.58 321 621.58 321.02 621.59 321.04 621.61 321.06 621.64 321.09 621.66 321.1 621.69 321.1 621.72 321.11 621.75 321.13 621.76 321.15 621.77 321.17 621.79 321.19 621.89 321.26 Z" fill-rule="evenodd" id="Thailand" transform="translate(-615.7999877929688,-320.9599914550781) "/></svg>