<svg xmlns="http://www.w3.org/2000/svg" viewBox="0 0 798 333"><path d="M 401.42 258.6 401.73 259.08 399.62 259.56 397.54 260.7 391.91 260.62 383.7 257.34 380.8 256.81 377.58 257.02 373.95 258.13 368.24 262.1 367.9 261.98 367.49 262.77 364.24 265.05 357.01 265.53 355.8 266.21 353.78 266.64 353.79 266.74 350.14 268.21 345.71 271.23 342.56 272.9 342.2 272.66 341.69 273.39 336.58 274.79 336.33 274.51 336.29 274.57 335.49 275.2 332.95 275 333.07 274.52 332.69 274.4 331.6 275.27 327.1 275.8 322.04 278.15 313.86 284.72 312.17 285.18 309.55 287.09 308.08 287.55 304.3 290.71 302.22 293.25 301.54 294.99 300.55 296.35 298.93 297.63 297.6 296.85 295.64 297.48 294.02 299.37 293.1 301.45 291.77 302.49 291.67 302.73 288.23 305.75 282.93 311.31 282.4 311.57 279.37 310.92 277.63 311.04 270.83 312.06 266.14 313.39 260.35 316.62 257.67 318.9 253.75 323.34 253.38 322.76 252.61 321.89 253.24 321.1 252.37 320.71 251.76 319.31 251.16 318.99 251.69 318.05 251.16 317.08 251.83 316.43 251.3 315.97 251.62 315.27 251.04 315.08 251.71 313.84 251.16 313.68 250.96 313.12 251.74 311.72 250.75 309.28 251.35 306.45 250.29 304.78 249.29 304.54 248.52 303.69 248.28 302.32 246.34 301.61 246.32 300.7 245.03 300.02 244.38 299.08 244.53 297.63 244.14 297.87 243.95 297.55 244.5 295.35 244.28 292.82 244.77 292.07 243.8 290.52 244.11 290.16 243.7 290.47 242.4 289.68 240.73 290.21 240.36 289.39 239.25 289.39 238.5 287.91 234.7 284.65 233.73 283.27 231.36 283.1 230.78 282.16 230.97 281.02 231.7 279.89 231.6 279.28 229.55 276.79 229.06 275.05 229.28 273.7 228.43 272.81 228.55 271.55 228.22 270.73 227.61 270.51 228 270.24 227.78 268.91 228.19 267.8 227.61 263.04 227.92 258.28 228.36 258.42 229.28 257.82 229.79 255.21 230.37 254.73 230.66 255.11 230.42 254.7 230.73 253.69 232.04 254.12 232.84 253.69 233.44 254.22 234.29 254.27 234.94 254.05 235.6 252.89 238.19 253.42 239.03 253.01 240.12 253.16 240.85 254.17 241.67 253.88 242.25 254.15 244.77 252.84 245.69 253.03 245.76 253.47 247.91 253.9 248.57 254.51 250.21 254.44 251.47 257.6 252.29 257.82 253 258.67 254.16 259.25 255.51 260.71 257.13 259.25 257.66 259.65 257.67 259.44 258.22 258.52 260.28 257.1 261.78 256.81 262.36 256.08 264.03 255.31 264.66 254.15 266.5 253.95 267.98 253.3 269.72 253.83 273.71 253.71 274.39 254.14 274.39 254 275.53 252.21 275.94 251.87 275.48 252.19 274.82 250.16 275.41 249.14 275.5 247.5 274.78 246.82 274.63 245.08 274 244.43 273.88 242.76 273.4 241.7 274.03 240.59 275.55 240.64 275.21 239.21 274.03 237.66 274.73 237.25 275.24 236.14 275.04 235.1 275.72 232.3 276.69 231.45 276.71 231.48 276.86 230.03 277.51 229.69 276.62 227.17 276.83 226.38 277.75 225.82 277.73 224.39 277.92 223.26 276.71 221.06 276.93 219.46 277.32 219.05 276.81 218.28 273.66 216.42 271.53 214.58 270.64 213.16 268 211.17 265 210.93 264.39 209.17 263.57 208.81 262.82 207.38 261.59 206.75 261.49 205.88 260.55 204.82 259.22 204.16 258.63 204.43 259.09 204 257.16 205.76 256.82 209.22 256.02 210.28 256.14 211.87 254.59 213.25 254.3 214.12 253.24 215.09 251.98 215.48 250.7 217.26 249.68 217.58 248.52 218.74 247.28 218.91 246.15 218.52 244.79 219.68 242.44 219.73 241.86 220.33 241.4 220.09 240.92 220.79 239.73 221.25 239.44 222.51 238.19 222.63 237.65 222.22 237.15 222.46 237.12 224.1 234.6 224.15 233.83 226.57 232.62 227.51 230.13 227.54 229.38 226.55 228.22 228.02 225.96 227.27 224.66 225.7 222.75 226.26 221.44 226.06 221 225.65 220.69 223.79 220.13 223.81 220.08 224.59 219.7 224.73 219.21 223.91 218.27 223.89 218.22 223.48 217.66 223.43 218.05 220.99 216.96 220.43 215.61 218.79 215.63 216.42 216.79 216.06 216.77 213.66 217.13 212.94 216.24 211.92 216.09 211.1 217.83 208.18 217.91 206.85 218.92 206.29 219.04 205.54 220.08 204.48 220.42 202.57 220.01 201.97 221.05 200.97 221.27 200.06 223.71 198.9 224.97 198.99 226.62 197.47 227.3 194.93 228.65 194.04 229.43 192.61 230.3 188.91 232.04 186.71 233.13 182.61 233.16 182.61 232.98 182 233.39 179.2 238.96 172.89 240.05 172.77 240.75 171.97 240.73 171.46 242.06 170.52 245.49 170.74 248.86 169.58 250.46 167.84 251.28 167.57 255.25 163.22 255.76 160.47 254.91 156.02 254.69 151.38 254.25 148.97 254.23 149.03 254.2 148.67 254.18 148.58 254.19 148.58 254.13 147.9 255.3 146.57 256.38 142.27 256.46 140.53 255.97 139.25 256.38 138.38 255.78 136.83 257.79 134.15 258.32 131.73 259.46 129.17 260.28 127.77 261.27 127.09 261.83 125.08 266.79 123.66 269.21 122.11 271.85 121.39 273.32 120.03 275.48 119.57 279.64 117.9 281.38 117.83 283.08 116.7 284.48 117.01 285.69 116.41 287.51 116.62 289.18 116.21 292.2 116.41 294.23 116.02 295.18 116.41 297.72 116.55 303.04 116.02 304.11 115.8 307.06 112.66 310.62 113.19 312.38 111.38 314 111.26 315.53 111.31 317.42 110.24 318.36 110.44 319.64 109.74 321.19 109.64 322.11 108.84 323.47 108.55 324.87 107.22 326.08 107.15 327.02 106.62 329.18 106.69 332.95 106.09 333.75 106.47 335.11 106.35 337.19 107.49 337.96 107.22 338.59 107.75 339.44 107.63 340.48 108.43 341.01 107.61 341.67 108.19 343.7 107.34 344.57 107.75 346.07 107.42 346.58 108.87 347.93 109.03 349.63 107.03 349.48 106.01 348.34 104.9 349.63 104.54 351.1 104.93 352.66 104.76 352.65 104.66 354.06 105.07 354.93 104.88 357.35 102.24 359.31 101.18 360.64 101.03 361.24 100.04 366.98 102.68 369.91 102.85 371.6 104.06 372.3 103.4 373.34 103.19 374.43 102.65 376.78 102.58 378.3 102.03 378.98 102.24 380.14 101.25 380.87 98.76 379.66 98.35 379.56 96.78 378.98 96.25 379.27 95.81 381.02 96.47 382.42 95.74 382.61 97.17 383.36 97.63 384.23 97.29 385.49 97.72 388.06 97.55 388.47 97.07 391.64 97.55 393.45 97.22 397.47 99.92 398.68 100.04 399.89 99.51 400.57 101.4 399.96 99.22 401.1 99.37 402.92 98.35 405.14 96.08 406.16 95.94 407.56 97.68 409.23 96.2 411.46 96.68 413.95 96.25 414.87 94.63 416.3 93.78 419.25 92.84 420.49 93.28 420.8 92.45 422.32 92.29 423.22 91.63 427.26 91.97 429.68 90.3 430.43 88.97 431.25 88.71 432.61 88.97 434.13 87.74 437.55 85.54 437.96 84.94 442.39 85.47 445.46 85.47 445.9 85.16 447.49 85.74 448.44 85.2 451.05 85.13 451.99 85.93 454.2 85.95 455.89 86.44 458.99 85.9 459.74 85.4 462.52 86.27 463.76 87.52 465.57 87.4 467.87 88.23 468.86 87.4 469.1 89.05 468.86 87.36 470.94 88.2 473.1 90.64 476.46 91.8 477.43 93.18 478.81 93.93 480.28 93.81 480.96 94.27 484.25 94 486.5 95.26 487.76 94.46 489.58 94.2 490.64 94.94 490.5 96.61 490.79 96.71 492.09 95.36 494.78 95.72 496.62 95.86 498.36 94.22 499.84 93.47 501.34 93.61 503.56 92.12 505.04 91.97 506.98 93.06 508.79 91.51 512.13 91.29 513.08 90.21 514.84 90.16 518.13 91.75 519.9 91.85 523.92 89.89 527.96 90.64 529.85 91.58 531.2 91.78 533.09 90.79 535.48 87.96 537.18 87.96 539.09 87.48 540.59 86.49 541.53 86.61 544.37 84.6 545 83.75 546.98 84.62 545.04 83.73 546.64 81.77 549.06 80.3 556.54 78.94 557.8 76.6 561.57 73.19 563.19 73.19 564.33 72.44 565.35 73.53 566.22 73.8 567.28 72.9 574.96 70.49 577.23 71.84 580.64 72.83 584.22 75.8 585.58 76 587.85 77.28 591.02 77.69 596.18 79.09 598.4 80.71 599.54 81.1 600.63 82.55 602.04 82.64 601.84 83.51 602.79 82.86 608.18 86.7 609.85 86.56 610.84 87.02 611.57 86.87 614.89 84 616.85 84.21 617.96 83.73 618.9 83.85 621.3 81.6 623.02 80.76 626.65 79.5 628.46 79.33 633.37 76.07 642.4 73.02 645.33 71.65 647.14 69.88 648.09 69.69 650.19 68.07 651.23 67.68 652.4 67.8 654.48 70.29 657.5 71.98 659.78 72.37 661.93 71.38 664.35 71.31 666.5 69.01 667.91 68.36 670.76 68.43 672.89 67.2 674.3 67.08 675.31 66.06 676.52 65.94 678.75 64.85 681.29 62.78 685.94 60.29 687.36 59.73 688.74 59.9 690.51 58.69 693 57.68 699.92 52.04 703.75 50.84 706.1 49.41 707.79 49.07 716.38 48.13 717.93 49.29 718.8 49.48 721.83 52.04 723.64 52.7 724.85 52.31 727.54 53.37 731.65 58.13 735.62 58.4 736.42 58.09 737.82 58.96 740.24 58.69 741.6 59.15 743.85 59.27 744.82 58.88 748.52 58.69 751.28 57.8 752.83 56.88 756.99 52.7 757.86 52.58 759.67 51.03 760.96 51.56 763.16 51.37 764.97 52.7 765.58 54.65 767.73 56.66 769.28 58.96 772.53 61.76 774.73 61.83 778.09 63.38 780.24 63.19 782.81 64.13 784.41 63.65 785.35 64.25 786.22 64.13 787.43 64.66 788.38 65.99 788.52 69.08 789.17 71.31 788.98 74.52 787.05 75.92 784.55 76.07 782.93 76.79 781.31 78.56 780.92 80.49 779.91 81.77 779.18 81.92 778.58 82.98 776.13 84.67 771.92 86.15 770.98 88.01 767.44 90.55 766.06 93.78 763.04 96.35 760.5 98.28 758.22 99.08 756.31 100.91 754.83 101.71 754.23 101.59 753.7 102.39 751.2 103.45 750.07 104.88 748.88 105.22 748.18 105.34 746.9 107.08 742.66 109.71 740.51 112.52 737.14 115 736.68 116.09 733.05 119.65 731.84 121.58 731.09 121.99 728.48 126.03 723.83 129.58 722.31 131.25 720.76 134.82 719.21 136.23 716.72 135.14 715.17 135.28 713.33 134.61 711.73 134.94 710.72 134.48 707.45 134.82 705.13 135.6 704.63 134.69 705.03 135.89 704.21 136.42 702.73 136.56 700.12 138.04 697.41 140.24 695.81 142.07 693.39 142.19 690.08 143.89 686.2 147.58 685.43 147.95 683.81 150.05 680.47 151.79 674.44 153.17 672.97 154.16 671.32 154.04 670.52 153.17 669.14 153.05 667.79 152.73 666.19 153.17 664.76 152.47 663.41 152.61 662.22 151.14 660.74 150.94 658.23 150.99 655.61 151.94 653.02 153.43 652.27 153.17 652.52 153.53 652.32 153.75 649.76 153.07 645.47 153.34 637.68 154.98 633.93 156.79 628.39 159.77 623.67 164.12 622.36 164.31 620.38 163.75 617.62 163.56 615.95 164.29 613.07 168.1 612.05 168.18 610.38 169.7 601.14 181.98 601.53 181.76 599.76 184.97 597.27 188.26 594.32 195.25 591.46 197.42 591.34 198.05 590.25 199.02 587.51 199.35 584.59 200.27 583.76 200.08 583.21 199.26 581.71 199.6 579.31 199.14 577.54 199.89 575.34 199.14 572.54 199.4 562.25 202.21 548.94 207.04 547.8 207.77 541.8 207.65 531.39 206.17 522.78 205.71 519.34 206.44 511.55 209.7 510.75 210.01 508.79 210.62 504.61 212.77 498.43 217.26 497.73 217.29 495.36 219.27 493.74 221.61 489.31 225.89 488.99 225.38 488.32 226.42 484.54 227.92 480.91 230 481.64 228.79 481.18 228.48 480.36 228.74 480.24 229.54 480.62 229.69 480.02 230.68 477.74 232.37 472.9 236.94 470.02 238.85 470.19 238.1 470.18 237.88 469.88 239.02 465.18 240.88 461.94 243.44 459.52 244.45 455.89 244.31 454.08 244.65 451.27 244.38 445.68 243.29 442.99 242.38 439.63 242.09 438.42 242.09 435.97 242.88 434.38 244.38 432.51 245.32 431.3 247.67 429.88 248.54 429.2 248.47 427.99 247.52 426.41 246.98 426.39 247.02 426.87 247.26 423.83 247.52 421.02 249.02 418.91 249.14 417.85 250.88 414.65 252.31 413.08 252.5 410.59 251.71 409.18 252.36 408 252.43 406.16 253.98 401.78 258.88 401.42 258.6 Z M 70.29 314.47 67.26 313.65 68.59 314.26 74.71 315.61 74.45 317.2 75.8 318.99 76.75 319.06 77.74 319.84 78.46 323.1 76.38 324.21 76 325.45 76.48 326.05 76.09 327.21 76.41 328.47 75.97 329.29 74.74 329.39 72.92 328.71 71.98 329.63 70.5 329.39 66.63 331.87 63.1 331.27 61.94 333.52 60.94 333.28 59.76 334 59.1 333.57 57.58 333.66 57.73 330.18 58.45 329.31 59.06 327.06 59.85 326.19 59.44 325.3 59.56 324.31 58.98 323.87 58.74 322.81 59.56 321.07 58.86 319.5 57 317.45 58.86 315.92 56.93 317.4 56.42 316.77 57 316.31 57.02 315.73 56.81 314.69 56.25 314.5 56.42 313.63 55.72 312.22 55.84 311.69 55.4 311.4 54.92 311.69 54.65 310.39 53.71 309.59 53.37 307.8 51.12 306.84 49.3 304.83 47.95 304.27 46.98 302.51 45.92 302.87 42.53 300.38 41.44 300.91 41.15 301.47 39.72 301.59 39.26 303.33 37.78 303.6 36.7 303.33 36.11 304.8 35.05 305.63 32.15 306.4 31.78 307.05 30.81 307.37 30.79 307.9 31.71 308.77 29.12 311.72 29.48 312.97 29.22 313.46 27.55 314.13 26.43 313.99 26.41 315.29 24.91 314.55 22.63 315.13 21.18 312.73 20.67 312.56 20.34 311.33 19.17 310.34 18.71 310.41 18.28 311.11 17.48 310.32 16.85 311.14 13.54 310.65 11.48 307.46 8.31 303.84 7.1 301.37 5.67 300.82 5.04 299.15 3.11 297.07 1.99 296.64 1 295.06 1 293.2 2.48 292.79 2.96 292.24 3.57 292.79 5.14 292.5 7.95 290.47 9.47 290.59 10.51 291.2 13.46 290.35 14.26 289.24 16.88 287.04 19.9 286.8 21.72 285.74 23.26 283.87 28.03 283.46 29.82 282.21 30.67 280.56 31.98 279.26 34.9 272.44 36.16 271.89 38.63 271.55 39.43 270.99 41.9 271.19 43.26 270.17 43.23 270.15 43.69 269.61 46.47 269.35 47.85 268.79 51.84 269.18 53.56 266.47 56.59 265.94 59.73 264.22 61.11 264.1 63.05 263.19 63.51 262.85 64.11 260.77 65.42 259.95 67.41 260.43 70.16 259.46 73.02 259.34 76.07 259.95 79.55 259.97 81.25 259.1 83.43 258.57 84.64 257.29 86.62 257.39 87.06 256.52 87.81 256.13 89.81 253.76 90.59 253.78 93.18 252.5 96.52 252.82 98.55 252.36 102.96 253.83 103.56 253.61 104.46 254.1 105.3 254.07 105.76 254.46 106.46 258.55 106.15 259.29 106.97 259.83 105.69 260.36 105.3 261.18 103.49 262.36 102.91 266.16 103.49 267.15 102.83 267.95 103.2 269.61 102.52 270.61 102.91 272.39 101.91 272.64 101.65 274.09 100.15 276.53 100.49 278.51 100.34 280.56 101.91 282.96 102.06 284.41 101.29 285.69 100.56 285.95 100.12 286.61 98.24 286.07 97.44 287.6 96.64 288.03 96.18 292.72 95.36 292.91 95.04 292.12 94.44 292.72 93.32 292.21 92.21 293.3 90.52 293.13 89.81 293.78 89.21 293.45 87.75 294.12 88 294.41 87.18 297.14 84.39 299.17 82.07 298.26 82.09 299.8 81.56 300.31 81.66 301.54 80.64 303.04 81.76 303.81 82.53 306.16 81.9 307.08 82.17 307.92 81.25 308.7 80.26 308.96 81.39 309.59 80.74 310.22 80.47 309.93 80.04 310.15 80.59 310.8 80.28 312.25 78.88 313.41 77.84 313.34 77.38 313.68 75.8 314.5 75.03 315.61 70.29 314.47 Z M 227.03 268.38 226.81 268.33 226.79 268.24 227.03 268.31 227.15 268.48 227.03 268.38 Z M 226.74 268 226.57 267.78 226.59 267.68 226.81 267.92 226.76 268.09 226.74 268 Z M 376.85 39.74 375.96 40.42 374.21 43.58 373.34 43.71 373.34 44.33 372.23 44.5 372.11 45.01 370.54 44.41 367.9 44.45 367.78 43.58 366.76 43.51 365.96 42.3 360.11 42.09 354.52 36.94 353.18 34.57 353.26 33.97 353.91 32.9 357.42 30.15 358.1 29.13 358.73 25.19 361.87 23.48 364.95 23.5 366.59 20.62 367.49 20.19 368.09 18.13 369.25 17.53 369.45 16.85 371.87 14.1 373.59 12.82 375.16 9.19 376.63 8.76 379.13 6.29 381.93 2.42 385.32 1.05 386.19 1 386.75 2.42 386.58 3.56 387.4 4.91 387.07 7.38 388.06 9.8 387.26 10.4 386.99 12.7 385.78 14.44 385.59 16.78 383.56 18.62 382.56 20.33 381.55 20.89 379.73 23.84 379.59 25.72 379.05 26.67 378.98 29.88 379.66 32.37 378.79 33.92 378.52 35.85 377.99 36.45 377.31 39.14 376.85 39.74 Z M 794.57 69.76 796.31 70.56 797.64 71.91 798.93 75 799 76.07 798.59 76.94 798.06 77.42 796.58 77.69 795.71 78.68 793.48 78.15 790.8 75.61 790.6 72.37 790.94 71.09 792.8 69.76 794.57 69.76 Z" fill-rule="evenodd" transform="translate(-1,-1) "/></svg>