<svg xmlns="http://www.w3.org/2000/svg" viewBox="0 0 4.32000732421875 11.209991455078125"><path d="M 402 342.61 401.94 342.75 401.94 342.79 401.94 342.81 401.96 342.86 401.96 342.88 401.93 342.95 401.92 342.97 401.92 343.03 401.91 343.05 401.88 343.09 401.76 343.2 401.73 343.28 401.75 343.48 401.75 343.57 401.72 343.69 401.68 343.92 401.69 343.98 401.7 344.01 401.87 344.12 402.08 344.26 402.21 344.35 402.4 344.47 402.72 344.68 402.95 344.84 402.98 344.91 402.98 344.93 402.98 345.1 402.99 345.34 402.99 345.51 403.01 345.62 403 345.64 403 345.67 403 345.71 403 345.73 402.98 345.76 402.94 345.82 402.93 345.85 402.94 345.9 402.96 345.95 403 345.99 403.03 345.97 403.06 346.03 403.07 346.26 403.11 346.35 403.15 346.41 403.16 346.43 403.34 346.61 403.47 346.76 403.52 346.84 403.54 346.89 403.55 346.95 403.55 347.23 403.56 347.47 403.56 347.68 403.56 347.98 403.56 348.04 403.57 348.07 403.58 348.1 403.64 348.17 403.64 348.19 403.64 348.23 403.56 348.35 403.56 348.37 403.56 348.41 403.55 348.46 403.56 348.47 403.56 348.47 403.57 348.47 403.58 348.5 403.6 348.69 403.6 348.94 403.59 349.3 403.6 349.65 403.6 350.09 403.6 350.13 403.6 350.32 403.6 350.54 403.6 350.87 403.6 351.19 403.6 351.51 403.56 351.53 403.4 351.53 403.44 351.68 403.46 351.72 403.47 351.72 403.5 351.75 403.52 351.77 403.52 351.8 403.51 351.89 403.51 351.93 403.52 351.97 403.54 352.02 403.55 352.07 403.54 352.1 403.52 352.13 403.49 352.17 403.47 352.22 403.49 352.25 403.51 352.27 403.54 352.31 403.54 352.33 403.54 352.35 403.53 352.37 403.54 352.39 403.55 352.41 403.57 352.43 403.59 352.44 403.61 352.45 403.63 352.46 403.65 352.45 403.67 352.46 403.67 352.48 403.67 352.5 403.71 352.53 403.73 352.55 403.73 352.57 403.72 352.62 403.73 352.64 403.74 352.65 403.79 352.67 403.81 352.69 403.87 352.78 403.91 352.95 403.95 353.11 403.9 353.11 403.62 353.18 403.57 353.2 403.59 353.25 403.59 353.25 403.59 353.25 403.17 353.32 402.82 353.43 402.66 353.5 402.64 353.5 402.63 353.5 402.63 353.42 402.61 353.39 402.42 353.37 402.39 353.35 402.37 353.32 402.34 353.28 402.32 353.26 402.31 353.25 402.29 353.24 402.27 353.23 402.24 353.18 402.18 353 402.01 353 401.97 352.99 401.94 352.97 401.86 352.88 401.81 352.85 401.7 352.79 401.65 352.75 401.62 352.69 401.59 352.64 401.58 352.59 401.58 352.54 401.58 352.53 401.6 352.5 401.61 352.48 401.61 352.46 401.58 352.43 401.56 352.43 401.5 352.43 401.48 352.43 401.46 352.39 401.43 352.37 401.4 352.34 401.39 352.29 401.41 352.18 401.41 352.15 401.39 352.11 401.36 352.08 401.32 352.06 401.28 352.05 401.26 352.03 401.2 351.91 401.17 351.89 401.15 351.88 401.14 351.86 401.16 351.81 401.21 351.73 401.21 351.7 401.18 351.65 401.12 351.6 401.1 351.57 401.13 351.56 401.16 351.55 401.25 351.53 401.28 351.51 401.33 351.44 401.33 351.34 401.32 351.24 401.32 351.16 401.38 351.02 401.4 350.92 401.43 350.84 401.43 350.79 401.4 350.64 401.38 350.62 401.3 350.65 401.26 350.66 401.22 350.66 401.15 350.6 401.11 350.5 401.1 350.39 401.11 350.26 401.12 350.23 401.13 350.21 401.15 350.19 401.18 350.17 401.22 350.16 401.25 350.15 401.26 350.12 401.26 350.06 401.26 349.99 401.29 349.94 401.36 349.96 401.35 349.91 401.36 349.8 401.34 349.67 401.34 349.54 401.34 349.53 401.31 349.38 401.32 349.3 401.31 349.25 401.29 349.17 401.29 349.07 401.27 349.01 401.29 348.99 401.3 348.98 401.32 348.95 401.31 348.92 401.3 348.9 401.28 348.89 401.27 348.86 401.27 348.83 401.28 348.83 401.3 348.82 401.32 348.81 401.39 348.75 401.43 348.72 401.53 348.68 401.56 348.66 401.58 348.63 401.57 348.57 401.56 348.56 401.54 348.56 401.53 348.55 401.53 348.54 401.53 348.52 401.52 348.49 401.52 348.46 401.52 348.44 401.43 348.37 401.4 348.28 401.37 348.2 401.22 348.13 401.16 348.09 401.11 348.04 401.07 348 400.98 347.94 400.89 347.81 400.83 347.68 400.82 347.59 400.81 347.56 400.83 347.54 400.85 347.54 400.88 347.55 400.9 347.6 400.93 347.57 400.94 347.54 400.93 347.53 400.95 347.52 400.97 347.52 401 347.53 401.03 347.53 401.05 347.52 401.06 347.49 401.06 347.46 401.07 347.43 401.07 347.43 401.12 347.36 401.09 347.25 400.99 347.07 400.99 347.07 400.99 347.07 400.96 347 400.98 346.93 401.02 346.86 401.03 346.79 401.03 346.76 401.04 346.73 401.09 346.69 401.12 346.64 401.12 346.61 401.09 346.53 401.09 346.49 401.11 346.46 401.14 346.45 401.16 346.43 401.17 346.4 401.17 346.33 401.19 346.22 401.18 346.17 401.14 346.13 401.07 346.11 401.07 346.11 401.07 346.11 401.07 346.1 401.08 346.08 401.09 346.06 401.09 346.03 401.07 346.01 400.95 345.97 400.91 345.96 400.82 345.97 400.77 345.98 400.74 345.99 400.73 346.01 400.72 346.06 400.71 346.07 400.7 346.09 400.6 346.12 400.55 346.13 400.51 346.13 400.5 346.1 400.52 346.07 400.51 346.04 400.51 346 400.6 345.99 400.63 345.97 400.66 345.95 400.67 345.93 400.65 345.91 400.62 345.9 400.56 345.92 400.54 345.91 400.52 345.89 400.5 345.88 400.5 345.87 400.49 345.85 400.5 345.79 400.51 345.78 400.62 345.79 400.68 345.79 400.71 345.76 400.75 345.78 400.79 345.79 400.82 345.78 400.84 345.75 400.82 345.7 400.77 345.69 400.68 345.72 400.62 345.71 400.58 345.66 400.58 345.6 400.61 345.53 400.67 345.59 400.71 345.62 400.75 345.61 400.77 345.58 400.78 345.54 400.77 345.5 400.76 345.47 400.75 345.45 400.73 345.43 400.72 345.41 400.71 345.36 400.76 345.19 400.76 345.17 400.75 345.08 400.76 345.05 400.78 345.01 400.8 344.98 400.82 344.97 400.82 344.95 400.81 344.9 400.78 344.85 400.78 344.84 400.78 344.82 400.79 344.8 400.79 344.79 400.78 344.77 400.81 344.76 400.85 344.76 400.87 344.76 400.87 344.75 400.88 344.71 400.88 344.67 400.86 344.65 400.83 344.65 400.81 344.63 400.78 344.57 400.8 344.41 400.79 344.34 400.81 344.31 400.81 344.27 400.82 344.24 400.88 344.2 400.83 344.16 400.81 344.15 400.72 344.17 400.68 344.17 400.7 344.12 400.68 344.08 400.64 344.05 400.62 344.01 400.62 343.99 400.63 343.97 400.63 343.94 400.61 343.92 400.58 343.92 400.56 343.92 400.54 343.93 400.52 343.94 400.5 343.94 400.44 343.91 400.43 343.92 400.43 343.93 400.42 343.95 400.4 343.95 400.39 343.94 400.28 343.73 400.24 343.69 400.13 343.62 400.11 343.6 400.08 343.55 400.07 343.53 400.05 343.51 399.98 343.49 399.96 343.48 399.94 343.46 399.93 343.45 399.87 343.45 399.85 343.44 399.82 343.43 399.8 343.41 399.78 343.37 399.78 343.32 399.8 343.26 399.8 343.23 399.82 343.14 399.83 343.1 399.86 343.06 399.91 343.03 399.93 343.01 399.93 342.99 399.92 342.94 399.92 342.92 399.97 342.7 399.98 342.67 400 342.66 400.02 342.64 400.03 342.63 400.04 342.6 400.04 342.52 400.04 342.45 400 342.4 399.93 342.37 399.89 342.37 399.81 342.39 399.77 342.39 399.73 342.38 399.69 342.36 399.65 342.33 399.63 342.29 399.74 342.31 399.86 342.34 400.13 342.39 400.64 342.49 400.83 342.53 401.08 342.58 401.08 342.59 401.09 342.59 401.09 342.6 401.08 342.61 401.08 342.62 401.08 342.63 401.07 342.64 401.11 342.65 401.08 342.74 401.36 342.64 401.5 342.62 401.71 342.61 402 342.61 Z" id="Togo" transform="translate(-399.6300048828125,-342.2900085449219) "/></svg>