<svg xmlns="http://www.w3.org/2000/svg" viewBox="0 0 5.109999656677246 15.79998779296875"><path d="M 9.41 417.43 9.4 417.43 9.39 417.42 9.38 417.41 9.38 417.39 9.39 417.39 9.41 417.4 9.43 417.41 9.42 417.42 9.41 417.43 Z M 12.27 415.3 12.26 415.33 12.23 415.31 12.21 415.27 12.18 415.24 12.12 415.19 12.12 415.18 12.13 415.17 12.15 415.16 12.14 415.14 12.13 415.1 12.15 415.08 12.19 415.06 12.2 415.04 12.23 415 12.23 414.99 12.25 414.95 12.26 414.93 12.27 414.94 12.29 415.03 12.28 415.07 12.27 415.16 12.27 415.3 Z M 11.38 414.54 11.4 414.54 11.53 414.52 11.55 414.52 11.57 414.54 11.58 414.55 11.6 414.56 11.6 414.59 11.57 414.61 11.56 414.63 11.56 414.65 11.59 414.66 11.61 414.65 11.63 414.64 11.66 414.63 11.68 414.63 11.72 414.65 11.74 414.66 11.77 414.65 11.79 414.63 11.8 414.59 11.83 414.56 11.85 414.55 11.88 414.54 11.91 414.54 11.94 414.55 11.96 414.56 11.97 414.58 11.97 414.62 11.95 414.64 11.82 414.73 11.82 414.75 11.82 414.78 11.83 414.81 11.83 414.83 11.82 414.86 11.8 414.87 11.78 414.88 11.75 414.89 11.71 414.88 11.68 414.86 11.65 414.79 11.62 414.76 11.51 414.71 11.5 414.73 11.44 414.69 11.41 414.68 11.38 414.68 11.36 414.66 11.31 414.59 11.27 414.52 11.3 414.47 11.35 414.42 11.41 414.4 11.38 414.44 11.34 414.47 11.33 414.5 11.36 414.53 11.38 414.54 Z M 13.59 411.48 13.55 411.49 13.53 411.48 13.52 411.47 13.51 411.45 13.5 411.44 13.53 411.43 13.55 411.41 13.57 411.38 13.58 411.34 13.59 411.34 13.61 411.35 13.62 411.36 13.6 411.4 13.6 411.44 13.59 411.48 Z M 11.98 411.39 11.95 411.44 11.95 411.42 11.94 411.44 11.93 411.42 11.92 411.42 11.89 411.41 11.89 411.4 11.89 411.4 11.89 411.39 11.86 411.32 11.86 411.29 11.87 411.25 11.88 411.23 11.9 411.23 11.93 411.23 11.97 411.26 11.98 411.32 11.98 411.39 Z M 13.7 411.32 13.66 411.32 13.63 411.3 13.62 411.28 13.66 411.26 13.68 411.23 13.7 411.19 13.73 411.16 13.74 411.2 13.73 411.23 13.72 411.26 13.71 411.29 13.7 411.32 Z M 13.76 411.07 13.75 411.09 13.71 411.08 13.69 411.05 13.66 410.99 13.65 410.95 13.68 410.96 13.7 410.98 13.71 411.03 13.72 411.04 13.75 411.05 13.76 411.07 Z M 12.88 409.14 12.85 409.14 12.83 409.1 12.83 409.07 12.86 409.05 12.89 409.07 12.91 409.09 12.9 409.12 12.88 409.14 Z M 14.49 408.65 14.49 408.7 14.47 408.72 14.43 408.67 14.4 408.68 14.39 408.7 14.39 408.72 14.41 408.74 14.39 408.76 14.38 408.78 14.35 408.78 14.33 408.8 14.32 408.84 14.32 408.88 14.29 408.86 14.28 408.84 14.26 408.78 14.3 408.77 14.3 408.74 14.29 408.72 14.28 408.7 14.25 408.73 14.24 408.76 14.23 408.78 14.2 408.77 14.2 408.78 14.19 408.78 14.18 408.78 14.17 408.78 14.14 408.71 14.18 408.68 14.24 408.65 14.28 408.58 14.29 408.57 14.33 408.56 14.37 408.56 14.4 408.56 14.43 408.57 14.45 408.59 14.46 408.6 14.49 408.62 14.49 408.65 Z M 10.71 401.73 10.67 401.78 10.6 401.77 10.56 401.73 10.57 401.68 10.61 401.65 10.68 401.63 10.73 401.66 10.71 401.73 Z" fill-rule="evenodd" id="Tonga" transform="translate(-9.380000114440918,-401.6300048828125) "/></svg>