<svg xmlns="http://www.w3.org/2000/svg" viewBox="0 0 3.1199951171875 2.94000244140625"><path d="M 264.99 342.96 264.89 343.12 264.78 343.27 264.74 343.26 264.71 343.3 264.7 343.37 264.7 343.43 264.74 343.57 264.75 343.63 264.69 343.69 264.69 343.75 264.7 343.79 264.72 343.92 264.73 343.95 264.75 343.98 264.79 344.03 264.87 344.09 264.81 344.16 264.78 344.28 264.78 344.41 264.79 344.52 264.74 344.51 264.69 344.53 264.64 344.56 264.6 344.59 264.56 344.62 264.51 344.64 264.41 344.66 264.39 344.66 264.36 344.67 264.22 344.64 264.17 344.65 264.03 344.68 263.86 344.66 263.67 344.68 263.67 344.67 263.58 344.66 263.56 344.66 263.49 344.69 263.47 344.69 263.43 344.7 263.4 344.71 263.37 344.7 263.35 344.69 263.33 344.67 263.3 344.66 263.26 344.65 263.22 344.64 263.02 344.64 262.97 344.65 262.93 344.67 262.9 344.69 262.86 344.72 262.81 344.74 262.77 344.74 262.72 344.7 262.75 344.67 262.82 344.64 262.83 344.63 262.85 344.62 262.92 344.61 262.94 344.59 262.96 344.56 263 344.53 263.03 344.52 263.2 344.46 263.22 344.46 263.3 344.42 263.37 344.36 263.37 344.36 263.37 344.29 263.39 344.28 263.43 344.28 263.54 344.3 263.63 344.29 263.64 344.29 263.66 344.29 263.69 344.28 263.72 344.26 263.74 344.23 263.76 344.2 263.77 344.15 263.76 344.14 263.76 344.12 263.75 344.08 263.74 344.04 263.74 344.03 263.72 344.01 263.71 344 263.71 343.99 263.72 343.98 263.73 343.98 263.73 343.98 263.73 343.96 263.71 343.92 263.71 343.9 263.7 343.87 263.71 343.82 263.74 343.75 263.76 343.67 263.76 343.58 263.74 343.5 263.68 343.43 263.7 343.42 263.61 343.36 263.57 343.34 263.5 343.31 263.46 343.3 263.34 343.29 263.33 343.29 263.32 343.27 263.3 343.25 263.42 343.17 263.45 343.16 263.54 343.16 263.64 343.14 263.7 343.14 263.71 343.14 263.73 343.13 263.75 343.11 263.76 343.1 263.77 343.12 263.79 343.12 263.79 343.12 263.79 343.09 263.8 343.09 263.81 343.11 263.81 343.11 263.81 343.12 263.82 343.12 263.8 343.14 263.82 343.14 263.84 343.13 263.84 343.12 263.85 343.11 263.89 343.11 263.9 343.11 263.91 343.09 263.96 343.05 263.97 343.03 264 343.03 264.01 343.03 264.13 343.04 264.38 343.05 264.4 343.03 264.44 343 264.57 342.99 264.61 342.97 264.9 342.94 264.99 342.96 Z M 265.84 341.82 265.84 341.88 265.83 341.94 265.82 341.99 265.79 341.99 265.78 341.99 265.77 342.02 265.75 342.02 265.72 342.02 265.7 342.02 265.7 342.03 265.67 342.07 265.66 342.07 265.61 342.11 265.59 342.12 265.57 342.13 265.54 342.13 265.51 342.13 265.49 342.13 265.36 342.19 265.32 342.2 265.26 342.25 265.22 342.27 265.2 342.23 265.17 342.25 265.14 342.25 265.12 342.22 265.13 342.19 265.15 342.18 265.18 342.18 265.2 342.16 265.22 342.13 265.24 342.11 265.43 341.98 265.47 341.94 265.49 341.93 265.52 341.91 265.59 341.88 265.65 341.87 265.68 341.86 265.71 341.85 265.74 341.87 265.76 341.87 265.8 341.82 265.82 341.8 265.84 341.82 Z" fill-rule="evenodd" id="Trinidad and Tobago" transform="translate(-262.7200012207031,-341.79998779296875) "/></svg>