<svg xmlns="http://www.w3.org/2000/svg" viewBox="0 0 9.050018310546875 18.910003662109375"><path d="M 424.23 287.52 424.29 287.6 424.36 287.66 424.41 287.69 424.45 287.71 424.49 287.73 424.52 287.77 424.37 287.91 424.33 287.92 424.32 287.93 424.31 287.96 424.29 288.04 424.27 288.04 424.28 287.97 424.29 287.95 424.25 287.96 424.22 288.05 424.19 288.11 424.15 288.15 424.13 288.2 424.1 288.16 424.1 288.11 424.11 288.07 424.07 288.01 424.03 287.99 424 287.96 423.96 287.95 423.92 287.99 423.9 288.03 423.86 288.04 423.81 288 423.79 287.96 423.78 287.88 423.78 287.81 423.82 287.74 423.8 287.63 423.8 287.55 423.88 287.52 424.06 287.56 424.16 287.56 424.23 287.52 Z M 424.6 285.51 424.51 285.58 424.46 285.57 424.42 285.55 424.35 285.52 424.3 285.49 424.33 285.47 424.35 285.45 424.61 285.45 424.63 285.48 424.6 285.51 Z M 425.01 285.2 425.06 285.26 425.04 285.29 424.83 285.38 424.71 285.45 424.67 285.47 424.65 285.42 424.69 285.39 424.72 285.35 424.76 285.29 424.77 285.26 424.77 285.24 424.77 285.22 424.78 285.2 424.79 285.23 424.82 285.25 424.88 285.24 424.88 285.18 424.87 285.15 424.88 285.12 424.91 285.09 424.93 285.06 424.95 285.03 424.98 285.05 425.05 285.06 425.06 285.09 425 285.11 424.99 285.12 424.98 285.14 424.97 285.17 424.99 285.18 425.01 285.2 Z M 421.86 278.23 421.86 278.36 421.79 278.42 421.71 278.45 421.66 278.52 421.67 278.54 421.7 278.62 421.71 278.63 421.73 278.64 421.74 278.68 421.76 278.69 421.86 278.7 421.9 278.7 421.95 278.65 421.98 278.62 422 278.57 422 278.52 421.86 278.46 421.84 278.47 421.79 278.48 421.77 278.48 421.77 278.46 421.82 278.43 421.84 278.42 421.86 278.41 421.87 278.39 421.87 278.39 421.91 278.38 422.12 278.43 422.16 278.43 422.28 278.37 422.3 278.38 422.33 278.43 422.49 278.46 422.56 278.52 422.73 278.58 422.77 278.62 422.7 278.64 422.67 278.65 422.64 278.67 422.62 278.63 422.56 278.62 422.49 278.64 422.45 278.67 422.47 278.72 422.53 278.74 422.59 278.74 422.64 278.73 422.65 278.75 422.67 278.79 422.68 278.81 422.66 278.85 422.65 278.81 422.55 278.9 422.57 279.04 422.65 279.18 422.76 279.28 422.84 279.32 422.86 279.34 422.91 279.41 422.94 279.44 422.92 279.47 422.87 279.52 422.85 279.58 422.83 279.6 422.8 279.61 422.77 279.58 422.79 279.54 422.77 279.53 422.73 279.53 422.66 279.56 422.63 279.57 422.6 279.63 422.58 279.67 422.62 279.68 422.69 279.68 422.71 279.7 422.73 279.69 422.74 279.68 422.77 279.62 422.82 279.72 422.88 279.8 422.95 279.85 423.06 279.86 423.09 279.86 423.14 279.86 423.25 279.8 423.32 279.78 423.36 279.74 423.38 279.66 423.39 279.6 423.42 279.49 423.46 279.45 423.51 279.44 423.61 279.45 423.71 279.43 423.79 279.4 423.9 279.32 423.97 279.25 423.99 279.24 424 279.21 424.01 279.2 424.13 279.09 424.15 279.07 424.16 279.04 424.15 279.02 424.15 279 424.17 278.98 424.21 278.95 424.33 278.94 424.41 278.88 424.46 278.87 424.5 278.89 424.52 278.94 424.51 278.96 424.49 278.99 424.49 279.02 424.49 279.05 424.51 279.09 424.52 279.12 424.53 279.14 424.56 279.2 424.58 279.22 424.58 279.25 424.59 279.31 424.59 279.34 424.6 279.36 424.62 279.38 424.63 279.4 424.65 279.41 424.66 279.43 424.69 279.47 424.67 279.51 424.64 279.56 424.55 279.59 424.43 279.69 424.37 279.82 424.27 279.95 424.12 280.24 424 280.54 423.94 280.62 423.76 280.67 423.54 280.79 423.46 280.77 423.39 280.82 423.32 280.93 423.29 281.04 423.26 281.15 423.23 281.26 423.22 281.4 423.22 281.55 423.23 281.64 423.26 281.73 423.27 281.78 423.29 281.8 423.3 281.82 423.31 281.88 423.32 281.91 423.36 281.98 423.4 282.02 423.43 282.04 423.46 282.07 423.52 282.25 423.55 282.28 423.7 282.43 423.7 282.43 423.75 282.46 423.82 282.48 423.95 282.44 423.97 282.44 423.99 282.45 424.03 282.49 424.01 282.53 423.99 282.58 424.01 282.64 424.03 282.67 424.12 282.72 424.32 282.8 424.41 282.79 424.47 282.84 424.51 282.9 424.42 282.94 424.41 283 424.41 283.04 424.42 283.06 424.44 283.12 424.47 283.16 424.57 283.2 424.51 283.25 424.5 283.32 424.48 283.39 424.49 283.51 424.47 283.56 424.48 283.66 424.53 283.75 424.61 283.84 424.65 283.88 424.71 283.91 424.74 283.92 424.74 283.97 424.67 283.98 424.63 284.01 424.59 284.1 424.52 284.15 424.49 284.21 424.46 284.28 424.42 284.31 424.43 284.39 424.42 284.47 424.35 284.57 424.26 284.61 424.2 284.68 424.22 284.74 424.2 284.8 424.2 284.9 424.11 284.97 424.09 284.99 424.07 285 424.06 285.02 424.09 285.07 424.1 285.11 424.02 285.15 423.97 285.19 423.89 285.26 423.86 285.33 423.82 285.37 423.8 285.42 423.76 285.47 423.72 285.49 423.57 285.54 423.55 285.55 423.54 285.57 423.54 285.6 423.53 285.63 423.51 285.66 423.51 285.71 423.49 285.74 423.49 285.79 423.46 285.82 423.41 285.84 423.2 285.87 423.12 285.92 423.01 286.11 422.9 286.14 422.88 286.14 422.86 286.13 422.83 286.13 422.81 286.14 422.79 286.15 422.78 286.17 422.74 286.23 422.71 286.25 422.69 286.26 422.58 286.3 422.54 286.34 422.45 286.37 422.39 286.43 422.37 286.51 422.29 286.67 422.24 286.75 422.21 286.76 422.19 286.78 422.19 286.78 422.18 286.79 422.2 286.83 422.21 286.89 422.21 287 422.21 287.05 422.25 287.15 422.25 287.2 422.27 287.28 422.32 287.38 422.53 287.68 422.55 287.7 422.58 287.71 422.9 288.03 422.98 288.08 423.16 288.16 423.19 288.16 423.25 288.18 423.4 288.15 423.57 288.11 423.71 288.03 423.76 288.02 423.81 288.11 423.8 288.29 423.74 288.35 423.7 288.37 423.67 288.4 423.66 288.45 423.67 288.49 423.73 288.58 423.76 288.61 423.8 288.63 423.9 288.6 424.06 288.5 424.14 288.48 424.18 288.46 424.22 288.42 424.23 288.37 424.22 288.33 424.18 288.28 424.18 288.26 424.24 288.21 424.27 288.22 424.3 288.23 424.32 288.22 424.33 288.19 424.35 288.19 424.38 288.21 424.48 288.26 424.52 288.28 424.55 288.32 424.62 288.44 424.63 288.46 424.64 288.59 424.58 288.69 424.63 288.85 424.61 288.93 424.67 288.91 424.72 288.95 424.76 289.01 424.81 289.04 424.87 289.05 424.98 289.11 425.03 289.13 425.02 289.14 425.01 289.15 425 289.15 424.79 289.08 424.68 289.07 424.65 289.15 424.67 289.18 424.71 289.21 424.75 289.25 424.76 289.3 424.78 289.33 424.83 289.33 424.93 289.31 425.02 289.33 425.21 289.4 425.31 289.4 425.34 289.38 425.33 289.34 425.29 289.31 425.25 289.3 425.23 289.28 425.2 289.24 425.16 289.2 425.36 289.35 425.49 289.4 425.5 289.41 425.5 289.41 425.51 289.53 425.44 289.78 425.44 289.82 425.44 289.96 425.4 290.14 425.41 290.41 425.38 290.69 425.38 290.84 425.43 290.94 425.57 291.08 425.63 291.18 425.63 291.29 425.59 291.37 425.55 291.41 425.52 291.44 425.37 291.54 424.79 291.82 424.1 292.14 424.04 292.21 423.95 292.42 423.88 292.49 423.8 292.54 423.73 292.6 423.68 292.61 423.64 292.6 423.6 292.57 423.56 292.57 423.51 292.62 423.49 292.83 423.46 292.91 423.37 293 423.33 293.09 423.31 293.13 423.27 293.16 423.24 293.19 423.11 293.24 422.87 293.24 422.75 293.33 422.6 293.59 422.46 293.75 422.43 293.81 422.4 293.98 422.41 294.02 422.57 294.47 422.64 294.74 422.71 294.88 422.71 294.93 422.7 295.03 422.71 295.12 422.77 295.3 422.76 295.39 422.73 295.49 422.59 295.78 422.39 296.01 422.16 296.38 421.88 296.74 421.82 296.77 421.66 296.78 421.6 296.8 421.1 297.06 421.04 296.78 420.98 296.5 420.91 296.22 420.85 295.94 420.79 295.65 420.72 295.37 420.66 295.09 420.6 294.8 420.54 294.52 420.47 294.24 420.41 293.95 420.35 293.67 420.29 293.38 420.22 293.1 420.16 292.81 420.1 292.53 420.09 292.5 420.05 292.31 420.02 292.26 419.99 292.23 419.62 291.96 419.16 291.62 418.8 291.37 418.53 291.19 418.47 291.13 418.47 291.12 418.44 291.04 418.42 290.77 418.39 290.4 418.36 290.32 418.14 289.96 417.93 289.64 417.88 289.61 417.83 289.62 417.78 289.61 417.74 289.6 417.7 289.58 417.45 289.4 417.37 289.37 417.26 289.36 417.18 289.34 417.12 289.28 417.09 289.15 417.09 288.8 417.09 288.79 417.05 288.69 416.88 288.39 416.74 288.15 416.72 288.08 416.7 287.94 416.64 287.82 416.62 287.77 416.59 287.63 416.58 287.52 416.63 287.26 416.63 287.06 416.66 286.99 416.71 286.94 416.8 286.85 416.86 286.77 416.92 286.71 417 286.67 417.14 286.64 417.19 286.62 417.21 286.59 417.23 286.55 417.32 286.23 417.36 286.14 417.45 286.07 417.64 285.99 417.73 285.92 417.94 285.83 417.96 285.81 418.05 285.73 418.1 285.7 418.12 285.68 418.13 285.66 418.15 285.61 418.16 285.59 418.24 285.54 418.26 285.51 418.2 285.42 418.21 285.38 418.23 285.34 418.3 285.26 418.31 285.26 418.32 285.24 418.33 285.2 418.29 284.93 418.29 284.83 418.31 284.72 418.36 284.58 418.4 284.38 418.43 284.29 418.53 284.17 418.67 283.97 418.69 283.91 418.61 283.85 418.52 283.82 418.44 283.78 418.39 283.69 418.37 283.58 418.38 283.48 418.4 283.38 418.48 283.19 418.48 283.11 418.46 282.88 418.45 282.8 418.41 282.71 418.3 282.53 418.28 282.44 418.27 282.32 418.28 282.11 418.33 281.94 418.34 281.9 418.34 281.75 418.39 281.55 418.42 281.51 418.44 281.46 418.43 281.41 418.41 281.36 418.4 281.3 418.41 281.19 418.52 280.9 418.52 280.88 418.53 280.84 418.53 280.73 418.53 280.68 418.51 280.63 418.47 280.61 418.43 280.6 418.39 280.57 418.2 280.55 418.11 280.51 418.11 280.51 418.11 280.42 418.16 280.35 418.23 280.31 418.37 280.26 418.64 280.1 418.69 280.04 418.74 279.94 418.76 279.85 418.71 279.79 418.63 279.75 418.65 279.71 418.72 279.67 418.8 279.66 418.89 279.67 418.96 279.65 419.12 279.59 419.16 279.56 419.16 279.53 419.08 279.41 419.07 279.38 419.08 279.35 419.07 279.28 419.07 279.28 419.11 279.26 419.27 279.2 419.32 279.18 419.51 279.18 419.56 279.17 419.65 279.09 419.72 279.06 419.74 279.05 419.79 279 419.85 278.92 419.92 278.79 419.95 278.77 419.97 278.76 420.04 278.69 420.06 278.68 420.13 278.65 420.3 278.58 420.33 278.56 420.38 278.48 420.42 278.46 420.71 278.46 420.79 278.43 420.85 278.37 420.88 278.35 420.91 278.36 420.93 278.37 420.96 278.37 420.98 278.36 421.04 278.34 421.1 278.32 421.14 278.29 421.18 278.25 421.22 278.28 421.26 278.27 421.34 278.22 421.39 278.19 421.43 278.18 421.52 278.18 421.57 278.16 421.6 278.15 421.62 278.17 421.64 278.19 421.66 278.2 421.85 278.2 421.85 278.21 421.86 278.23 Z" fill-rule="evenodd" id="Tunisia" transform="translate(-416.5799865722656,-278.1499938964844) "/></svg>