<svg xmlns="http://www.w3.org/2000/svg" viewBox="0 0 798 447"><path d="M 784.93 309.09 788.75 312.22 792.22 313.47 793.47 315.86 792.22 315.86 790.8 313.99 786.64 312.22 784.59 310 784.93 309.09 Z M 783.16 295.6 782.08 298.62 781.45 298.96 781.62 296.23 783.16 295.6 Z M 770.69 256.74 771.48 257.82 771.77 266.07 771.03 280.58 773.82 293.27 773.08 294.07 773.08 296.57 770.86 296.91 773.08 297.65 773.82 300.21 770.69 304.14 767.84 305.28 764.02 308.75 761.69 302.6 760.26 302.43 760.38 300.67 758.04 296.12 758.04 293.73 761.17 288.66 762.14 283.77 760.26 277.45 760.89 275.23 759.92 272.56 759.75 267.15 763.57 260.66 765.79 259.58 765.45 258.16 767.21 260.04 768.12 257.82 770.69 256.74 Z M 400.06 178.15 401.03 178.95 403.87 178.95 404.33 180.71 405.92 179.74 406.89 180.37 405.75 181.68 403.87 181.96 402.91 180.26 401.03 180.37 400.68 179.12 398.52 178.49 400.06 178.15 Z M 388.38 176.9 390.09 177.69 387.58 178.83 386.16 177.41 386.16 176.44 388.38 176.9 Z M 487.27 138.2 488.36 141.05 486.48 142.75 485.05 142.75 484.6 139.62 486.65 137.57 487.27 138.2 Z M 482.37 119.36 484.6 122.04 486.48 122.38 485.51 128.36 483.63 127.45 483.97 126.31 481.41 123.35 481.92 121.58 480.95 121.41 480.95 120.33 481.75 119.08 482.37 119.36 Z M 484.88 112.08 487.45 113.22 487.45 114.47 486.19 116.52 486.31 118.28 484.25 119.71 482.66 114.47 483 113.5 483.63 113.84 483.8 112.08 484.88 112.08 Z M 345.14 110.17 345.03 110.54 343.09 112.25 344.68 111.97 345.03 111 346.28 112.08 341.84 113.84 339.61 112.08 340.13 110.66 336.48 112.71 335.34 112.42 337.73 109.41 340.58 107.7 341.04 106.39 340.24 106.73 339.79 105.76 335.51 106.73 333.12 109.75 330.78 108.61 331.07 107.53 332.32 107.19 331.24 106.11 333.8 104.51 335.06 101.5 337.91 99.16 337.73 98.82 329.53 105.48 329.19 104.68 332.21 101.38 329.65 102.75 329.02 104.34 328.22 104.06 328.73 101.84 332.04 100.41 334.72 97.57 329.53 99.9 327.42 103.54 325.37 104.97 324.75 104.51 325.09 102.29 328.05 101.38 328.56 98.82 331.58 97.4 333.8 94.1 338.36 93.3 340.87 89.32 342.32 88.75 341.04 88.41 336.94 92.68 330.78 94.21 329.02 95.81 326.8 95.01 324.46 98.2 323.49 98.2 324.46 96.77 323.95 96.43 321.73 96.94 321.27 98.99 320.02 98.99 318.14 98.37 317.45 96.6 314.95 95.81 307.2 94.55 303.21 92.33 298.03 92.33 298.03 91.42 299.45 91.88 299.74 90.91 297.52 88.24 297.86 87.44 298.94 87.61 299.74 89.03 302.3 88.58 303.1 90.29 304.52 90.74 306.06 89.66 307.66 90.46 309.42 90.29 309.88 90.74 311.47 90.74 312.44 90.29 307.66 90.11 306.57 88.58 304.64 89.03 303.21 87.9 300.99 87.9 297.52 83.8 292.79 82.83 293.13 80.78 296.6 79.99 297.06 78.28 295.98 79.36 292.62 79.36 291.53 80.67 287.72 77.94 287.43 76.68 287.09 77.82 283.79 76.51 281.56 76.68 277.58 74.29 276.95 72.42 273.02 71.62 271.88 68.6 269.66 66.73 264.47 65.02 261.11 65.3 259.23 64.51 255.13 65.47 253.54 66.73 251.49 66.27 251.83 62.91 249.09 62.63 248.81 61.66 250.23 61.49 252.91 59.16 257.52 61.83 259.75 59.33 260.37 56.14 262.59 56.48 264.47 54.72 264.65 53.47 267.61 53.13 263.85 51.7 258.32 53.64 257.98 52.33 259.06 52.33 259.23 50.28 258.61 49.48 255.3 49.48 256.1 46.81 254.68 43.68 257.64 43 257.81 41.12 258.78 40.32 260.37 41.46 259.4 40.04 260.2 39.41 258.61 38.27 257.18 33.38 255.13 33.83 251.2 31.79 250.86 30.36 251.66 29.74 250.52 24.22 249.44 21.66 248.3 22.96 247.21 22.34 247.56 19.32 249.09 16.65 248.98 14.43 253.08 11.41 252.91 9.36 254.79 6.01 258.78 5.55 264.02 2.42 278.37 2.71 281.74 1 283.44 1.28 296.09 4.64 303.38 4.64 320.64 10.27 321.61 9.65 326 12.21 325.71 13.01 320.47 10.79 323.32 15.34 323.15 17.1 321.73 18.07 321.44 21.37 321.61 33.55 325.89 51.42 328.39 56.48 334.72 64.34 339.5 67.69 343.26 68.49 344.23 67.52 348.16 72.13 347.7 73.56 343.09 74.98 345.65 74.64 346.91 75.43 347.08 73.84 349.3 73.56 349.75 72.59 348.67 72.76 347.53 70.99 348.5 68.77 348.79 69.57 353.06 69.91 355.28 71.16 355.11 74.01 353.06 74.98 352.94 77.31 351.63 77.82 352.77 79.53 354.65 80.16 354.65 84.14 345.14 89.49 342.52 88.8 343.09 89.83 344.86 89.94 351.63 88.07 354.48 86.19 356.59 86.19 357.67 84.59 356.59 82.83 357.33 81.41 358.02 82.72 360.98 83.51 359.1 81.92 359.38 78.73 360.98 80.5 361.77 78.56 360.18 77.03 360.98 76.06 359.55 70.2 360.52 66.44 359.1 66.1 359.1 64.34 360.69 63.43 364.45 64.22 366.84 62.91 367.3 60.13 368.61 60.24 368.72 62.17 370.83 63.25 371.12 65.02 376.02 70.08 381.43 72.87 389.01 75.43 401.99 74.64 408.15 72.42 411.17 72.42 418.46 73.84 426.21 77.14 439.48 77.82 440.9 77.31 441.24 76.23 445.63 75.26 446.43 73.67 445.8 72.25 446.6 71.45 448.02 73.67 454.35 76.06 457.2 76.06 458.16 74.29 458.79 75.09 462.27 74.47 464.15 78.28 465.57 78.45 468.76 82.38 470.81 82.55 469.56 84.77 473.37 98.02 477.13 105.31 482.66 110.2 481.24 118.4 479.53 119.71 479.18 121.58 480.44 121.58 479.81 124.6 481.12 125.85 480.95 129.32 482.66 129.78 482.66 132.97 484.25 134.22 484.08 137.69 482.03 139.62 482.83 141.84 479.7 143.38 471.61 144.97 470.81 147.02 462.89 147.99 461.18 147.02 457.82 147.36 456.91 148.61 454.52 148.96 454.18 150.83 453.09 151.63 448.99 150.66 449.28 149.07 447.23 148.61 447.4 146.91 446.14 145.94 446.6 149.87 443.92 149.41 440.73 150.21 439.65 149.58 435.83 152.71 435.04 151.63 429.34 148.79 427.46 148.79 427.46 148.16 432.19 146.91 434.24 143.27 436.63 143.72 440.9 141.96 436.63 141.96 435.66 142.92 433.61 140.7 434.12 139.74 432.81 139.45 431.28 141.84 430.76 140.7 428.43 140.53 427.12 143.38 423.64 146.22 423.36 148.27 420.68 148.96 420 147.82 422.73 146.22 420.96 140.7 422.39 138.2 418.57 139.62 417.66 136.44 415.89 136.15 416.06 134.84 414.18 133.59 412.08 134.56 410.37 137.4 408.15 137.4 408.15 136.15 406.27 135.18 406.1 134.22 408.49 132.51 405.47 132.62 404.67 128.87 402.79 126.82 399.43 132.62 397.38 132.97 397.21 132.17 395.16 131.88 394.53 133.14 392.48 133.59 387.58 131.54 390.43 127.27 386.44 130.12 380.46 129.04 380 126.99 381.43 125.4 381.54 122.04 383.48 120.62 383.14 122.38 384.11 123.46 384.39 120.16 387.41 117.77 388.66 115.1 392.65 113.22 393.73 111.45 388.04 114.93 385.19 118.28 381.26 120.16 379.66 122.67 379.66 125.85 374.76 127.27 371.46 137.57 370.49 139.45 367.81 141.5 366.67 140.25 367.81 138.83 365.59 139.45 364.79 138.03 366.05 135.18 365.59 133.31 367.19 131.54 363.37 131.09 361.15 133.14 359.72 130.46 356.25 129.49 351.63 130.12 346.56 127.62 345.82 126.82 346.28 125.51 348.33 124.26 351.35 124.6 353.4 122.67 349.13 120.33 350.72 117.49 354.03 117.49 352.15 119.54 353.86 120.16 353.23 119.19 354.2 118.74 354.2 117.49 358.93 116.52 355.91 115.55 351.35 116.69 351.98 113.67 350.21 114.81 349.13 116.97 347.87 116.52 349.58 113.05 351.98 111.17 351.52 109.24 352.43 107.7 350.55 108.95 351.35 110.37 349.47 111.8 348.5 114.47 344.06 115.1 344.06 114.13 347.87 111.34 349.13 108.15 350.84 106.9 350.72 106.11 346.56 111.17 345.14 110.83 345.14 110.17 Z M 465.46 150.49 468.3 150.49 469.39 151.46 467.68 152.43 464.94 152.09 462.72 153.51 463.52 152.09 463.06 150.49 465.46 150.49 Z M 366.56 141.84 366.56 143.55 364.45 144.69 364.34 147.02 361.49 145.14 361.32 143.55 363.65 143.89 365.25 143.27 365.25 141.5 366.56 141.84 Z M 321.61 100.59 323.66 101.21 323.95 103.72 319.22 102.01 319.39 100.59 321.61 100.59 Z M 242.66 46.64 242.77 47.26 242.31 47.78 241.69 46.01 242.66 46.64 Z M 241.23 42.54 241.52 43.51 239.75 43 240.09 42.26 241.23 42.54 Z M 349.3 68.15 349.58 67.86 350.84 67.86 350.38 68.95 349.3 68.15 Z M 359.55 59.16 359.72 61.83 357.33 64.05 356.59 67.07 355.45 67.35 353.06 62.8 351.63 62.29 351.63 61.49 352.6 61.49 352.32 59.95 355 58.53 359.55 59.16 Z M 363.37 52.95 364.97 54.89 363.65 57.56 362.74 58.36 360.07 58.02 360.07 56.48 362.29 53.92 362.12 52.33 363.37 52.95 Z M 330.27 12.66 337.11 18.81 341.55 19.49 344.23 24.22 346.28 25.18 346.74 26.89 348.96 26.89 348.96 28.48 347.87 29.45 344.23 28.31 342.63 30.25 342.63 34.18 343.89 38.73 348.5 50.28 352.32 56.14 348.96 59.95 347.87 63.25 339.79 60.58 336.94 57.39 337.39 53.13 338.53 52.67 338.02 51.25 340.75 51.53 339.96 49.82 339.5 50.79 338.36 49.82 339.79 48.06 341.04 48.06 340.75 46.18 342.46 43.68 342.29 39.07 341.67 38.9 342.01 41.91 339.79 45.56 335.23 46.64 333.01 48.23 331.07 48.23 330.44 44.42 329.02 43.96 330.16 41.29 327.94 37.82 328.22 33.38 329.36 32.92 329.19 31.79 330.27 31.96 330.27 30.08 329.99 26.27 327.59 25.64 327.59 23.25 328.73 23.59 329.02 21.37 330.27 21.37 330.61 20.29 328.39 20.4 329.36 16.31 326.97 12.38 330.27 12.66 Z M 327.77 28.66 327.42 29.74 326.68 29.74 326.8 27.69 327.77 28.66 Z M 325.71 13.29 327.94 14.26 327.77 18.98 326.97 20.4 324.46 21.66 323.49 25.3 321.9 25.92 321.61 22 322.41 18.7 324.12 16.48 323.49 13.46 325.71 13.29 Z M 226.02 57.39 224.43 58.82 227.73 58.82 227.45 59.61 230.12 64.05 229.78 65.64 227.1 65.93 226.19 65.3 226.19 63.71 224.43 63.25 226.99 59.33 225.05 60.13 224.88 62.29 223.8 62 223.17 58.65 224.43 57.22 226.02 57.39 Z M 225.51 43 227.9 48.4 231.21 49.37 228.24 53.3 223 55.52 221.58 57.39 219.36 57.73 217.48 59.16 214.8 58.36 216.85 59.95 215.88 61.21 216.68 64.85 216.05 65.02 216.05 67.35 214.29 68.32 213.49 67.69 208.59 67.98 205.46 70.37 204.66 70.08 205.46 69.12 204.94 68.15 203.41 69.91 200.84 68.95 198.79 69.4 199.42 68.95 198.45 68.15 198.96 66.9 208.76 61.49 217.13 55.17 220.32 50.79 220.5 45.84 224.14 42.71 225.51 43 Z M 229.78 45.22 228.87 46.35 228.24 46.35 228.87 45.1 229.78 45.22 Z M 230.29 43 235.48 44.3 233.6 47.95 228.7 47.78 231.21 45.22 228.7 42.71 229.78 42.26 230.29 43 Z M 223.46 39.41 226.31 41.29 229.04 40.95 229.33 41.57 226.99 42.37 224.6 41.46 221.92 42.54 221.92 39.52 223.46 39.41 Z M 233.77 33.83 233.94 34.18 238.67 34.52 241.06 37.48 243.11 38.27 243.4 40.04 242.31 39.24 241.35 41.29 238.04 40.32 235.99 41.57 235.48 39.52 234.85 40.32 229.95 38.9 228.7 39.52 228.53 38.1 230.75 36.22 231.72 34 233.77 33.83 Z M 323.66 31.61 323.78 33.83 322.7 34.18 322.24 31.96 323.66 31.61 Z M 248.18 15.23 247.67 17.39 245.96 18.98 245.5 24.22 248.64 30.7 246.24 31.79 246.76 33.04 244.54 35.26 241.97 34.8 238.84 32.75 234.22 34 236.96 29.45 237.07 24.22 236.28 23.59 237.87 18.07 243.28 16.65 246.76 14.6 248.18 15.23 Z M 161.93 259.41 162.56 261.01 161.48 261.97 160.51 260.55 161.93 259.41 Z M 196.4 76.4 198.45 77.48 198.79 79.53 197.71 79.87 197.54 83 195.32 83.8 193.44 83.17 191.67 80.16 194.18 76.23 196.4 76.4 Z M 201.98 74.81 200.67 76.86 198.96 77.31 195.32 74.29 201.64 73.84 201.98 74.81 Z M 195.77 71.16 191.67 74.98 188.99 75.09 189.62 71.96 192.01 71.62 192.01 70.71 195.94 70.37 195.77 71.16 Z M 33.76 146.57 31.88 146.11 30.11 147.02 26.81 154.76 21.39 181.68 17.12 185.43 17.29 187.03 10.34 191.92 1 195.11 1.28 190.33 5.44 183.56 9.09 172.8 9.37 157.32 11.6 152.09 13.02 151.46 12.22 152.54 12.56 153.22 13.99 151.63 12.85 150.49 17.12 150.49 20.31 148.96 23.16 145.31 28.86 145.94 35.01 144.8 33.76 146.57 Z M 132.48 129.78 131.85 130.75 129.35 130.29 130.43 129.49 132.48 129.78 Z M 130.6 125.51 131.68 125.85 131.85 126.19 129.63 125.68 130.6 125.51 Z M 86.45 56.6 90.38 58.82 93.57 62 94.03 64.51 95.91 66.56 103.54 70.37 109.86 76.23 118.07 87.9 121.71 91.25 122.23 92.96 131.06 99.28 132.65 99.28 133.45 98.37 138.8 100.87 143.87 101.84 145.93 99.9 147.86 99.9 152.76 102.92 157.83 102.92 165.07 98.99 168.88 95.18 173.5 95.18 178.05 93.47 180.9 89.66 182.16 86.02 185.18 82.83 185.52 81.12 189.28 77.82 190.25 77.94 190.59 80.78 193.55 84.59 195.32 85.22 196.11 84.59 198.79 86.81 200.67 86.47 202.72 87.78 201.18 90.63 199.87 89.94 195.15 94.55 193.09 95.01 192.3 94.21 190.87 95.69 186.6 104.97 180.11 115.1 174.41 116.69 173.16 118.4 171.45 118.11 169.85 119.08 167.91 117.77 168.54 116.24 166.66 116.24 166.03 114.47 160.79 115.44 160.51 114.13 156.07 113.84 152.42 115.27 149.91 117.77 145.3 116.69 141.48 119.99 140.4 119.99 138.35 114.02 136.75 112.88 132.03 112.59 129.63 113.5 127.13 116.35 126.16 118.28 127.13 120.62 124.73 120.62 124.9 122.04 126.5 121.93 126.78 123.63 124.11 128.87 123.14 127.62 121.09 127.45 116.81 128.7 114.14 128.24 113.97 126.19 113.06 125.85 112.54 124.09 108.78 124.09 108.61 122.21 107.36 121.58 104.97 122.21 100.52 119.08 99.72 117.77 100.98 117.49 104.34 120.33 104.97 119.99 101.6 116.35 98.81 117.66 98.02 116.86 97.33 117.66 93.86 117.15 84.23 119.19 76.48 123.18 76.65 120.96 75.34 120.62 75.06 119.08 73.46 119.08 73.18 117.94 74.55 117.94 76.03 116.24 76.77 118.28 79.5 113.39 78.53 113.22 78.99 111.45 78.19 110.54 75.86 113.84 76.03 110.66 77.74 109.12 78.19 107.02 76.77 107.02 77.45 104.68 76.14 102.46 76.03 95.69 74.09 93.3 79.16 89.32 80.41 84.94 80.13 82.72 85.65 70.82 85.31 68.95 86.28 67.07 84.57 64.85 84.06 59.16 84.57 58.02 85.82 58.02 85.48 56.48 86.45 56.6 Z M 704.09 433.15 704.55 435.65 706.26 436.34 705.17 437.08 704.38 441.4 704.55 442.65 705.35 442.31 705.52 445.5 704.21 445.33 702.95 442.94 704.09 437.76 702.33 433.32 704.09 433.15 Z M 742.66 354.62 739.98 357.41 739.7 359.34 738.1 359.17 737.3 360.59 736.05 360.31 734.29 361.67 731.61 366.62 730.01 368.33 728.93 368.33 727.96 370.38 722.44 376.24 722.09 377.66 720.04 377.21 724.66 354.45 729.21 355.7 743.46 352.85 742.66 354.62 Z M 764.36 338.91 765.16 339.42 763.11 340.39 761.34 342.72 759.92 342.27 758.95 344.32 756.62 344.32 755.48 345.28 752.63 344.66 752.8 343.07 755.19 340.22 764.36 338.91 Z M 795.87 343.18 795.98 343.86 797.58 343.52 796.95 346.82 799 349.67 798.72 350.8 797.12 350.35 793.47 345.57 794.73 343.18 795.87 343.18 Z M 796.78 334.98 795.53 335.61 796.15 337.83 794.9 338 794.1 337.2 794.44 335.16 796.32 334.36 796.78 334.98 Z M 776.55 333.39 777.47 335.78 777.35 336.86 776.04 335.61 775.93 333.22 776.55 333.39 Z M 444.21 447.2 443.75 448 443.12 447.83 443.3 446.41 444.21 446.29 444.21 447.2 Z M 391.23 443.11 391.85 443.73 390.89 444.7 389.35 444.25 389.97 443.11 391.23 443.11 Z M 397.89 441.68 398.01 442.77 396.47 442.48 396.47 441.23 397.89 441.68 Z M 488.07 436.45 487.27 437.59 485.22 435.03 487.73 434.4 488.07 436.45 Z M 465.46 374.65 467.51 375.16 467.51 376.07 452.75 383.53 449.9 387.45 449.79 386.03 445.63 386.03 443.3 385.12 444.38 382.56 442.95 382.9 443.3 383.98 442.33 384.15 438.85 381.59 439.02 380.05 438.23 381.48 433.33 381.31 431.9 380.05 437.09 378.63 438.85 379.88 440.62 379.71 441.53 378.63 448.19 376.87 452.47 374.36 454.18 374.48 454.52 375.79 454.97 374.82 465.46 374.65 Z M 485.39 362.19 488.24 365.49 489.95 365.32 491.09 366.45 490.92 367.25 488.7 367.71 487.9 369.93 488.24 374.48 490.92 379.54 489.5 380.34 487.56 383.53 486.31 388.59 484.08 389.67 482.66 388.08 482.55 382.73 481.75 381.31 479.81 380.68 479.01 378.01 482.2 376.7 484.43 373.23 485.22 369.47 484.43 366.62 485.39 364.86 484.08 363.1 484.25 361.67 485.39 362.19 Z M 487.1 286.96 483 288.21 482.2 288.04 482.66 287.07 486.19 286.16 487.1 286.96 Z M 491.38 285.82 488.24 286.96 487.27 286.78 489.67 285.36 491.38 285.19 491.38 285.82 Z M 472.69 168.36 472.86 172 471.95 173.6 470.35 174.05 468.93 172.97 466.99 173.26 466.99 170.3 470.18 169.95 471.61 168.08 472.69 168.36 Z M 505.16 115.44 503.11 116.35 503.57 115.27 502.6 114.13 505.16 113.67 505.16 115.44 Z M 495.99 339.25 495.02 342.1 494.4 342.27 493.6 340.85 495.36 338 496.16 338.17 495.99 339.25 Z M 541.39 274.15 534.9 276.48 528.4 284.85 521.91 290.88 521.8 288.66 522.88 288.49 525.1 285.99 524.93 282.17 527.32 282 528.4 280.3 530.46 279.96 535.87 274.44 540.77 273.53 541.39 274.15 Z M 515.3 273.18 514.33 274.44 513.08 273.81 514.5 272.05 515.3 273.18 Z M 524.59 257.99 524.13 258.79 522.25 258.16 523.96 257.08 524.59 257.99 Z M 564.47 224.36 565.15 232.21 562.93 238.07 563.55 245.81 562.76 249.97 564.35 254.23 564.98 264.19 561.5 270.34 560.08 269.54 556.43 271.93 553.41 268.92 551.65 268.92 546.12 272.73 539.8 268.29 539.34 265.1 536.49 262.6 534.73 258.62 535.07 255.66 536.49 254.69 537.41 252.47 539.63 251.67 540.94 249.62 540.94 247.4 541.68 247.4 546.12 251.39 550.74 251.22 554.21 249.28 555.29 254.97 558.31 256.74 559.74 253.72 560.71 242.06 559.57 241.09 555.92 240.92 555.81 238.7 557.06 237.62 555.18 236.48 557.06 234.77 556.6 232.72 558.65 232.1 559.11 228.91 562.76 224.81 563.55 222.14 564.18 222.14 564.47 224.36 Z M 562.59 224.02 560.71 225.27 559.57 225.1 562.13 222.59 562.59 224.02 Z M 560.71 221.34 561.33 222.59 558.31 223.05 558.65 221.51 560.71 221.34 Z M 565.15 216.56 564.47 221.8 561.67 219.12 559.45 219.41 563.72 217.53 564.47 214.85 565.26 215.03 565.15 216.56 Z M 548.17 211.84 548.17 214.23 549.14 214.4 548.51 218.04 549.14 220.2 547.55 219.92 547.43 221 546.29 221.17 545.21 215.31 544.41 215.31 544.24 213.6 543.16 212.81 543.27 211.04 547.43 209.96 547.43 211.55 548.17 211.84 Z M 563.84 205.86 566.23 205.35 564.98 210.13 565.15 214.4 563.84 212.64 563.72 210.24 561.79 209.96 563.21 205.07 563.84 205.86 Z M 564.18 193.51 563.21 194.6 562.93 198.41 561.33 199.38 559.28 198.24 559.57 196.36 561.33 195.56 563.84 191.47 564.18 193.51 Z M 561.67 194.31 560.71 195.28 559.91 193.97 561.67 193.34 561.67 194.31 Z M 519.86 252.81 519.69 253.44 518.15 252.92 518.78 252.3 519.86 252.81 Z M 522.88 245.81 524.93 247.58 523.33 247.58 521.8 246.61 522.25 245.98 518.89 245.7 522.88 245.81 Z M 511.03 192.55 511.66 192.55 512.45 193.8 509.43 192.89 510.06 192.09 511.03 192.55 Z M 496.16 109.41 497.87 110.03 499.29 113.84 499.29 116.52 504.02 122.67 504.19 124.88 500.55 125.4 500.26 126.99 498.21 126.99 497.07 124.6 496.62 126.31 497.53 127.73 500.55 128.07 501.52 129.67 502.6 126.82 505.96 124.77 504.36 123.35 505.62 120.16 507.55 119.71 507.84 118.57 510.52 118.57 514.33 115.44 515.3 117.94 519.4 122.55 522.88 123.46 531.25 130.12 543.61 137.06 549.77 137.4 550.39 135.81 549.6 135.01 550.57 134.84 551.99 136.61 557.86 138.66 561.96 139.11 565.26 137.86 564.98 139 565.78 139.45 570.22 139.11 572.27 140.53 574.78 140.53 575.74 139.91 576.37 136.78 577.17 136.61 577.28 139.62 583.32 149.58 580.81 154.65 582.35 168.7 580.19 177.52 575.92 177.41 573.35 180.71 572.1 179.91 571.47 181.17 569.54 192.09 570.05 196.64 568.74 204.27 565.78 204.27 563.84 202.68 562.59 199.83 564.18 199.38 563.55 195.28 564.64 193.51 564.64 190.84 566.23 193.34 567.03 192.26 568.28 193.69 566.4 189.42 564.47 189.53 566.23 188.62 566.06 183.56 561.67 190.33 554.04 196.02 553.76 202.05 552.44 202.39 550.11 208.08 547.09 209.79 542.19 210.13 540.94 211.04 542.02 213.26 541.56 215.31 540.31 211.38 533.3 214.51 532.05 213.43 532.22 210.76 530.34 210.59 529.83 211.67 526.7 212.01 520.49 211.38 521.91 210.13 521.63 208.71 517.52 208.82 515.76 208.08 517.64 206.94 515.93 205.98 515.93 205.07 518.89 205.18 520.32 203.93 513.71 204.9 513.25 203.64 513.99 202.05 512.91 200.29 514.62 199.66 513.71 199.03 513.37 196.64 515.13 194.48 516.84 194.94 517.81 193.8 520.83 194.6 521.8 193.69 523.16 193.97 521.45 192.26 524.93 189.08 525.1 187.82 523.33 188.79 523.16 190.04 520.66 190.5 519.86 189.53 521.28 186.86 524.93 185.15 522.08 185.6 519.23 183.38 523.05 180.88 525.56 180.54 531.25 183.73 528.12 180.08 523.05 178.95 520.03 179.29 520.32 175.99 524.47 174.22 523.68 173.88 520.66 175.65 520.49 174.39 522.25 172.8 518.44 173.43 515.42 172.63 515.13 171.83 513.99 172.52 510.86 171.55 508.18 172.63 506.24 172.35 507.55 168.53 506.07 168.7 505.33 165.23 503.91 164.89 504.02 163.64 500.55 161.08 497.87 156.87 495.02 157.61 494.4 161.76 489.95 166.48 484.08 169.5 478.73 170.75 477.65 167.28 475.42 166.48 475.08 165.06 473.37 164.44 475.71 161.76 473.49 161.87 470.35 160.62 471.95 158.4 476.85 156.18 478.9 156.87 481.58 155.27 480.15 153.85 482.83 153.96 484.08 153.22 482.55 153.05 481.92 151.63 478.39 151.29 478.39 150.21 480.32 149.58 480.15 148.16 481.92 148.27 482.66 149.41 484.25 148.96 483 147.02 483.46 146.11 485.22 146.22 487.1 144.97 490.92 145.43 492.63 148.61 493.43 146.4 494.22 146.4 492 145.43 491.89 144.18 493.43 143.72 492.17 143.55 491.2 141.67 491.89 134.73 490.46 132 492 128.53 491.89 126.99 490.58 126.82 490.29 124.09 490.29 123.01 491.2 122.67 487.56 122.21 486.93 118.11 489.5 114.02 494.85 114.02 496.28 111.17 495.02 109.12 496.16 109.41 Z" fill-rule="evenodd" transform="translate(-1,-1) "/></svg>