<svg xmlns="http://www.w3.org/2000/svg" viewBox="0 0 42.42999267578125 17.839996337890625"><path d="M 457.72 271.1 457.74 271.1 457.75 271.1 457.76 271.1 457.77 271.12 457.8 271.1 457.82 271.12 457.81 271.23 457.8 271.27 457.76 271.27 457.69 271.22 457.63 271.18 457.6 271.16 457.58 271.13 457.6 271.1 457.64 271.1 457.72 271.1 Z M 457.55 270.2 457.57 270.21 457.61 270.2 457.65 270.17 457.66 270.17 457.66 270.23 457.61 270.26 457.56 270.27 457.41 270.3 457.31 270.34 457.11 270.37 457.07 270.37 457.02 270.35 456.99 270.33 456.98 270.32 456.89 270.29 456.89 270.27 456.94 270.19 457.01 270.11 457.1 270.05 457.25 270.02 457.44 269.95 457.47 269.95 457.5 269.95 457.51 269.97 457.52 269.99 457.54 270.01 457.57 270.01 457.57 270.03 457.57 270.06 457.56 270.09 457.56 270.13 457.57 270.15 457.55 270.2 Z M 461.26 269.3 461.28 269.32 461.3 269.32 461.31 269.33 461.31 269.35 461.28 269.36 461.25 269.34 461.21 269.33 461.17 269.33 461.14 269.3 461.14 269.27 461.16 269.25 461.18 269.21 461.2 269.19 461.27 269.22 461.27 269.24 461.26 269.27 461.26 269.3 Z M 461.25 268.73 461.31 268.76 461.34 268.75 461.41 268.76 461.46 268.79 461.47 268.84 461.43 268.87 461.35 268.88 461.31 268.9 461.23 268.96 461.19 268.98 461.14 268.96 461.12 268.96 461.07 268.94 461.04 268.91 461.04 268.85 461.03 268.82 461.02 268.8 461.03 268.77 461.04 268.75 461.06 268.74 461.07 268.75 461.08 268.78 461.13 268.75 461.19 268.73 461.25 268.73 Z M 457.73 268.51 457.81 268.52 457.88 268.49 457.93 268.43 457.95 268.35 457.98 268.3 458.1 268.19 458.09 268.16 458.09 268.14 458.1 268.13 458.12 268.12 458.11 268.12 458.1 268.12 458.1 268.11 458.1 268.1 458.12 268.09 458.13 268.09 458.13 268.07 458.13 268.04 458.15 268.07 458.15 268.08 458.16 268.08 458.18 268.06 458.19 268.04 458.21 267.98 458.22 267.98 458.23 268 458.24 268.01 458.26 268.02 458.28 268.02 458.31 268.01 458.31 267.99 458.29 267.97 458.29 267.96 458.31 267.93 458.38 267.9 458.41 267.88 458.43 267.85 458.42 267.84 458.4 267.83 458.38 267.8 458.37 267.77 458.38 267.76 458.4 267.74 458.43 267.74 458.45 267.72 458.46 267.69 458.46 267.66 458.4 267.63 458.38 267.6 458.35 267.53 458.35 267.49 458.39 267.41 458.37 267.4 458.34 267.39 458.34 267.37 458.38 267.3 458.35 267.25 458.35 267.2 458.35 267.14 458.38 267.08 458.34 267.03 458.37 267 458.51 266.99 458.55 266.97 458.61 266.92 458.67 266.88 458.68 266.86 458.69 266.85 458.69 266.84 458.72 266.84 458.83 266.72 458.85 266.75 458.9 266.77 458.94 266.78 458.98 266.78 459.01 266.75 459.03 266.7 459.04 266.64 459.04 266.58 459.03 266.52 459 266.37 458.99 266.26 458.98 266.21 458.95 266.17 458.97 266.14 458.96 266.06 458.97 266.03 458.96 266.01 458.96 265.99 458.95 265.97 458.95 265.95 458.91 266.01 458.89 265.99 458.79 265.94 458.66 265.84 458.68 265.8 458.69 265.76 458.65 265.75 458.61 265.74 458.53 265.71 458.47 265.66 458.43 265.65 458.37 265.65 458.35 265.62 458.33 265.56 458.34 265.5 458.37 265.42 458.47 265.34 458.69 265.35 458.8 265.32 458.83 265.28 458.85 265.23 458.86 265.17 458.86 265.15 458.86 265.13 458.86 265.12 458.87 265.09 458.87 265.08 458.87 265.07 458.84 265.05 458.84 265.04 458.85 265.02 458.86 265 458.88 264.99 458.94 264.92 458.98 264.9 459.02 264.89 459.22 264.93 459.27 264.92 459.29 264.91 459.34 264.86 459.36 264.85 459.38 264.86 459.43 264.9 459.45 264.9 459.47 264.89 459.49 264.87 459.52 264.85 459.54 264.84 459.57 264.84 459.59 264.84 459.61 264.84 459.63 264.82 459.65 264.81 459.7 264.82 459.71 264.81 459.74 264.78 459.76 264.75 459.78 264.72 459.81 264.7 459.85 264.67 459.9 264.58 459.95 264.55 459.96 264.55 460 264.55 460.04 264.57 460.07 264.59 460.11 264.62 460.13 264.61 460.18 264.62 460.24 264.63 460.24 264.63 460.25 264.62 460.25 264.6 460.3 264.54 460.33 264.52 460.38 264.51 460.46 264.53 460.53 264.57 460.59 264.63 460.68 264.77 460.73 264.83 460.78 264.88 460.95 264.97 460.98 265 461.03 265.07 461.06 265.09 461.1 265.08 461.07 265.06 461.07 265.06 461.09 265.05 461.09 265.04 461.09 265.04 461.08 265.04 461.07 265.03 461.07 265.03 461.12 265.01 461.14 264.99 461.16 264.97 461.18 264.98 461.19 264.98 461.2 264.97 461.2 264.94 461.37 264.89 461.45 264.9 461.57 264.96 461.6 264.97 461.63 264.97 461.66 264.96 461.66 264.94 461.63 264.92 461.63 264.89 461.63 264.85 461.64 264.82 461.65 264.82 461.66 264.81 461.67 264.82 461.68 264.82 461.72 264.81 461.74 264.81 461.79 264.83 461.85 264.86 461.88 264.87 461.99 264.85 462.02 264.86 462.1 264.88 462.13 265.02 462.14 265.06 462.15 265.06 462.16 265.08 462.17 265.11 462.17 265.13 462.15 265.14 462.12 265.13 462.08 265.12 462.05 265.12 462.02 265.13 462 265.17 461.99 265.25 462 265.33 462.04 265.38 462.08 265.43 462.11 265.48 462.16 265.61 462.18 265.65 462.22 265.69 462.24 265.71 462.25 265.74 462.26 265.75 462.26 265.76 462.27 265.78 462.26 265.79 462.25 265.79 462.24 265.79 462.24 265.81 462.25 265.85 462.28 265.91 462.32 265.95 462.38 265.99 462.41 266.03 462.46 266.11 462.58 266.22 462.92 266.43 463.4 266.64 464.08 266.97 464.3 267.02 464.31 267.02 464.32 267.03 464.32 267.03 464.34 267.04 464.35 267.03 464.37 267 464.38 267 464.44 267 464.49 267.03 464.53 267.06 464.5 267.13 464.48 267.19 464.44 267.24 464.4 267.26 464.37 267.27 464.38 267.29 464.4 267.31 464.41 267.33 464.42 267.35 464.43 267.36 464.44 267.37 464.44 267.38 464.43 267.4 464.42 267.4 464.41 267.46 464.4 267.51 464.38 267.55 464.35 267.59 464.33 267.6 464.3 267.62 464.28 267.63 464.26 267.66 464.26 267.67 464.26 267.68 464.26 267.7 464.27 267.71 464.27 267.72 464.25 267.74 464.24 267.74 464.2 267.74 464.18 267.72 464.16 267.72 464.15 267.73 464.13 267.75 464.12 267.76 464.1 267.77 464.06 267.79 463.97 267.81 463.95 267.82 463.94 267.83 463.93 267.84 463.91 267.85 463.89 267.86 463.83 267.86 463.81 267.85 463.8 267.83 463.77 267.81 463.72 267.81 463.45 267.84 463.39 267.81 463.4 267.72 463.38 267.69 463.36 267.68 463.34 267.68 463.36 267.61 463.34 267.55 463.29 267.51 463.24 267.5 463.25 267.54 463.3 267.59 463.31 267.64 463.31 267.67 463.31 267.71 463.29 267.75 463.27 267.78 463.2 267.77 463.09 267.65 463.03 267.62 462.96 267.61 462.8 267.55 462.73 267.54 462.65 267.54 462.63 267.53 462.61 267.5 462.59 267.5 462.51 267.52 462.47 267.52 462.45 267.51 462.43 267.5 462.33 267.54 462.31 267.55 462.29 267.55 462.17 267.6 462.13 267.61 462.1 267.63 462.06 267.65 462.04 267.68 461.99 267.76 461.97 267.8 461.98 267.82 461.94 267.83 461.76 267.81 461.72 267.79 461.69 267.76 461.66 267.74 461.57 267.72 461.49 267.71 461.01 267.78 460.94 267.82 460.9 267.92 460.84 268.15 460.79 268.24 460.58 268.45 460.49 268.61 460.29 268.76 460.28 268.77 460.25 268.81 460.24 268.82 460.22 268.83 460.17 268.83 460.11 268.87 460 268.87 459.96 268.88 459.92 268.91 459.85 269 459.83 269.02 459.77 269.03 459.74 269.03 459.65 269.06 459.53 269.14 459.49 269.17 459.45 269.2 459.32 269.22 459.28 269.24 459.2 269.3 459.17 269.32 459.15 269.33 459.13 269.42 459.1 269.45 459.03 269.49 459.02 269.52 459.01 269.56 459 269.61 458.97 269.65 458.85 269.76 458.83 269.77 458.76 269.79 458.74 269.81 458.69 269.86 458.69 269.87 458.68 269.88 458.62 269.95 458.58 269.99 458.53 270.02 458.48 270.04 458.43 270.05 458.4 270.07 458.41 270.13 458.43 270.18 458.47 270.21 458.36 270.31 458.33 270.33 458.24 270.38 458.17 270.45 458.14 270.46 458.03 270.5 458 270.51 457.98 270.49 457.99 270.46 458.01 270.42 458.02 270.41 458.05 270.38 458.08 270.32 458.1 270.26 458.11 270.23 458.21 270.09 458.24 269.99 458.23 269.91 458.18 269.84 458.12 269.79 458.14 269.77 458.15 269.75 458.14 269.74 458.11 269.73 458.1 269.72 458.12 269.69 458.15 269.67 458.16 269.66 458.19 269.64 458.3 269.6 458.35 269.6 458.38 269.54 458.49 269.47 458.59 269.38 458.72 269.33 458.82 269.25 458.88 269.21 458.95 269.17 459.01 269.16 459.12 269.17 459.15 269.16 459.18 269.13 459.23 269.05 459.26 269.02 459.31 269.04 459.38 269.02 459.44 268.97 459.47 268.91 459.4 268.76 459.39 268.74 459.36 268.74 459.22 268.76 459.16 268.79 459.14 268.8 458.98 268.8 458.92 268.82 458.75 268.92 458.69 268.88 458.66 268.86 458.62 268.86 458.59 268.87 458.55 268.89 458.52 268.9 458.46 268.87 458.42 268.88 458.3 268.91 457.89 268.91 457.84 268.9 457.8 268.88 457.79 268.83 457.77 268.78 457.75 268.74 457.77 268.69 457.76 268.63 457.74 268.57 457.71 268.52 457.72 268.52 457.73 268.51 Z M 492.04 266.24 492.27 266.34 492.3 266.34 492.37 266.34 492.42 266.31 492.44 266.31 492.44 266.32 492.44 266.35 492.44 266.37 492.45 266.39 492.48 266.4 492.54 266.41 492.57 266.42 492.66 266.5 492.69 266.51 492.71 266.5 492.8 266.42 492.87 266.32 492.9 266.3 492.98 266.26 493.14 266.32 493.22 266.3 493.25 266.28 493.29 266.28 493.32 266.28 493.35 266.3 493.42 266.28 493.45 266.28 493.48 266.3 493.52 266.33 493.57 266.34 493.68 266.33 494.07 266.48 494.1 266.48 494.13 266.48 494.17 266.45 494.24 266.35 494.29 266.3 494.31 266.25 494.33 266.13 494.35 266.08 494.4 266.05 494.4 266.05 494.41 266.04 494.45 266.03 494.57 266.02 494.88 266.05 494.92 266.07 494.9 266.09 494.89 266.12 494.89 266.15 494.88 266.18 494.86 266.2 494.82 266.24 494.8 266.27 494.86 266.3 494.9 266.35 494.94 266.36 494.99 266.3 495.02 266.28 495.04 266.3 495.05 266.33 495.07 266.37 495.09 266.38 495.15 266.4 495.17 266.41 495.18 266.43 495.19 266.44 495.21 266.45 495.22 266.47 495.29 266.59 495.32 266.62 495.48 266.74 495.59 266.83 495.66 266.86 495.72 266.87 495.73 266.89 495.7 266.93 495.67 266.96 495.55 267.02 495.61 267.04 495.65 267.03 495.7 267.04 495.74 267.09 495.8 267.22 495.83 267.24 496.03 267.18 496.1 267.18 496.17 267.2 496.23 267.23 496.29 267.29 496.32 267.36 496.29 267.44 496.28 267.5 496.3 267.6 496.34 267.68 496.38 267.72 496.47 267.73 496.57 267.78 496.66 267.85 496.73 267.94 496.75 268 496.76 268.05 496.77 268.11 496.78 268.18 496.8 268.24 496.89 268.38 496.91 268.44 496.92 268.49 496.93 268.69 496.93 268.71 496.88 268.8 496.87 268.81 496.88 268.88 496.79 268.99 496.76 269.05 496.76 269.12 496.75 269.11 496.74 269.1 496.73 269.1 496.72 269.1 496.72 269.11 496.73 269.12 496.73 269.14 496.68 269.14 496.63 269.18 496.56 269.27 496.57 269.31 496.61 269.36 496.7 269.44 496.7 269.46 496.7 269.46 496.67 269.57 496.65 269.6 496.63 269.65 496.66 269.7 496.72 269.75 496.82 269.88 496.85 269.96 496.85 269.96 496.81 269.99 496.83 270.04 496.9 270.13 496.92 270.16 496.89 270.2 496.79 270.22 496.76 270.25 496.79 270.33 496.89 270.39 497.1 270.45 497.34 270.58 497.61 270.63 497.64 270.61 497.72 270.56 497.76 270.55 497.79 270.55 497.81 270.58 497.83 270.59 497.86 270.58 497.9 270.57 497.97 270.56 498.1 270.52 498.17 270.52 498.26 270.55 498.38 270.62 498.56 270.73 498.69 270.84 498.75 270.9 498.77 270.95 498.78 270.99 498.79 271.02 498.81 271.03 498.84 271.06 498.85 271.09 498.85 271.12 498.86 271.14 498.89 271.12 498.97 271.21 499.01 271.24 499.02 271.24 499.05 271.23 499.06 271.24 499.07 271.25 499.08 271.27 499.22 271.45 499.25 271.5 499.27 271.54 499.3 271.65 499.32 271.68 499.14 271.55 499.1 271.52 498.97 271.46 498.94 271.42 498.88 271.33 498.84 271.31 498.79 271.32 498.55 271.52 498.54 271.55 498.55 271.64 498.55 271.68 498.55 271.69 498.53 271.72 498.46 271.87 498.45 271.91 498.45 271.96 498.45 272 498.46 272.04 498.46 272.07 498.44 272.1 498.43 272.1 498.43 272.1 498.42 272.17 498.43 272.22 498.43 272.27 498.39 272.33 498.35 272.36 498.24 272.41 498.19 272.42 498.13 272.42 497.98 272.34 497.92 272.34 497.8 272.37 497.75 272.38 497.7 272.37 497.67 272.37 497.64 272.38 497.59 272.41 497.57 272.44 497.58 272.48 497.64 272.55 497.64 272.55 497.65 272.58 497.66 272.64 497.69 272.69 497.69 272.71 497.68 272.73 497.68 272.76 497.69 272.78 497.72 272.84 497.72 272.86 497.7 272.92 497.71 272.94 497.76 272.99 497.86 273.04 497.95 273.1 497.97 273.17 497.92 273.25 497.91 273.3 497.93 273.41 497.91 273.44 497.87 273.47 497.84 273.53 497.84 273.53 497.85 273.55 497.86 273.57 497.87 273.61 497.88 273.63 497.9 273.65 497.92 273.66 497.92 273.69 497.92 273.71 497.93 273.74 497.94 273.76 497.96 273.82 497.99 273.86 498.03 273.9 498.14 273.95 498.15 274.04 498.09 274.24 498.08 274.3 498.09 274.33 498.1 274.37 498.11 274.42 498.1 274.44 498.08 274.46 498.07 274.48 498.1 274.49 498.14 274.5 498.16 274.51 498.18 274.53 498.19 274.58 498.19 274.64 498.18 274.75 498.2 274.89 498.2 274.94 498.17 275.06 498.17 275.09 498.18 275.16 498.18 275.19 498.17 275.23 498.18 275.26 498.2 275.27 498.23 275.29 498.34 275.31 498.41 275.26 498.44 275.26 498.47 275.27 498.51 275.3 498.53 275.34 498.55 275.38 498.55 275.42 498.5 275.5 498.42 275.56 498.36 275.63 498.37 275.76 498.36 275.82 498.35 275.87 498.33 275.92 498.32 275.94 498.28 275.95 498.26 275.97 498.26 275.99 498.27 276.05 498.26 276.06 498.22 276.09 498.19 276.11 498.17 276.14 498.15 276.2 498.13 276.25 498.08 276.31 498.06 276.35 498.06 276.35 498.06 276.35 498.04 276.38 498.02 276.42 498.02 276.45 498.03 276.49 498.03 276.53 498.01 276.56 497.99 276.59 497.99 276.6 497.98 276.62 498.02 276.68 498.1 276.69 498.24 276.67 498.27 276.68 498.35 276.72 498.37 276.74 498.38 276.76 498.39 276.8 498.41 276.83 498.43 276.86 498.45 276.87 498.46 276.86 498.48 276.86 498.49 276.87 498.49 276.89 498.49 276.93 498.48 276.95 498.5 276.98 498.53 276.98 498.57 276.97 498.6 276.95 498.66 276.95 498.72 276.97 498.77 277.02 498.85 277.12 498.86 277.15 498.84 277.18 498.76 277.25 498.74 277.27 498.73 277.36 498.78 277.41 498.83 277.44 498.84 277.49 498.82 277.55 498.8 277.62 498.8 277.68 498.81 277.74 498.81 277.74 498.82 277.79 498.79 277.87 498.8 277.92 498.83 277.93 498.91 277.94 498.95 277.97 498.98 278.05 499 278.07 499.08 278.06 499.1 278.08 499.11 278.12 499.13 278.16 499.26 278.24 499.31 278.3 499.3 278.39 499.28 278.42 499.25 278.44 499.22 278.47 499.2 278.51 499.21 278.57 499.23 278.62 499.25 278.66 499.23 278.72 499.2 278.67 499.16 278.65 498.93 278.62 498.89 278.62 498.82 278.65 498.73 278.71 498.65 278.79 498.6 278.86 498.54 278.9 498.48 278.93 498.29 278.99 498.28 279.02 498.27 279.07 498.23 279.13 498.23 279.13 498.23 279.13 498.23 279.13 498.21 279.17 498.19 279.19 498.16 279.2 498.07 279.17 498.05 279.16 498.04 279.13 497.95 278.93 497.93 278.87 497.93 278.81 497.95 278.75 497.99 278.71 498.02 278.69 498.04 278.68 498.07 278.67 498.08 278.64 498.09 278.61 498.08 278.58 498.07 278.52 498.05 278.46 498.03 278.41 497.99 278.37 497.94 278.34 497.73 278.25 497.69 278.24 497.61 278.23 497.51 278.25 497.43 278.31 497.37 278.41 497.3 278.49 497.18 278.51 497.14 278.55 497.11 278.56 497.09 278.55 497.05 278.5 497.02 278.49 496.97 278.47 496.91 278.47 496.69 278.48 496.63 278.48 496.58 278.45 496.54 278.42 496.52 278.41 496.49 278.41 496.46 278.41 496.41 278.43 496.38 278.44 496.34 278.42 496.24 278.34 496.15 278.29 496.12 278.27 496.06 278.22 496.04 278.22 495.99 278.22 495.97 278.23 495.95 278.25 495.93 278.26 495.92 278.26 495.9 278.25 495.61 278.09 495.57 278.08 495.5 278.09 495.41 278.11 495.33 278.15 495.27 278.19 495.18 278.22 495.09 278.21 494.9 278.15 494.89 278.14 494.88 278.09 494.86 278.07 494.83 278.07 494.81 278.07 494.7 278.12 494.69 278.13 494.67 278.15 494.67 278.17 494.67 278.19 494.66 278.21 494.38 278.61 494.35 278.69 494.34 278.71 494.31 278.72 494.12 278.75 493.99 278.8 493.89 278.81 493.89 278.73 493.89 278.69 493.87 278.67 493.84 278.64 493.88 278.48 493.87 278.45 493.85 278.44 493.78 278.38 493.77 278.36 493.76 278.34 493.75 278.32 493.73 278.32 493.72 278.33 493.7 278.34 493.69 278.35 493.63 278.32 493.59 278.31 493.59 278.3 493.6 278.27 493.59 278.24 493.57 278.21 493.53 278.24 493.5 278.26 493.38 278.41 493.22 278.57 493.12 278.62 492.87 278.68 491.95 278.9 491.33 278.93 491.28 278.92 491.18 278.88 490.65 278.77 490.24 278.83 490.13 278.87 489.83 279.04 489.73 279.07 489.68 279.07 489.63 279.08 489.58 279.1 489.54 279.13 489.25 279.32 489.09 279.43 489.01 279.47 488.92 279.48 488.84 279.51 488.62 279.64 488.15 279.82 487.43 279.96 486.98 280.04 486.86 280.05 486.52 279.93 486.41 279.94 486.36 279.96 486 279.97 485.84 279.95 485.71 279.88 485.64 279.82 485.41 279.57 485.3 279.51 484.88 279.38 484.73 279.36 484.65 279.37 484.51 279.43 484.29 279.57 484.25 279.59 484.19 279.61 483.83 279.77 483.47 279.85 483.33 279.91 483.01 280.12 482.91 280.12 482.55 280.05 482.5 280.06 482.36 280.09 482.32 280.09 482.28 280.08 482.25 280.07 482.21 280.09 482.17 280.13 482.15 280.15 482.13 280.16 482.09 280.13 482.05 280.1 482.04 280.06 482.06 279.98 482.06 279.92 482.04 279.88 481.97 279.82 481.94 279.79 481.9 279.77 481.85 279.75 481.81 279.74 481.67 279.73 481.26 279.59 481.26 279.59 481.24 279.58 481.22 279.58 481.23 279.65 481.2 279.71 481.16 279.75 481.14 279.81 481.13 279.87 481.13 279.92 481.12 279.98 481.09 280.04 481.06 280.16 481.06 280.28 481.05 280.4 480.99 280.5 480.98 280.54 480.98 280.59 481.03 280.74 481.04 280.76 481.05 280.77 481.09 280.79 481.1 280.8 481.11 280.82 481.12 280.83 481.12 280.85 481.12 280.88 481.1 280.92 481.09 280.94 481.08 280.95 481.1 280.97 481.18 280.98 481.21 280.99 481.24 281.02 481.24 281.02 481.26 281.06 481.28 281.11 481.28 281.15 481.29 281.21 481.27 281.23 481.12 281.26 481.07 281.26 480.91 281.23 480.86 281.24 480.84 281.25 480.83 281.27 480.83 281.28 480.82 281.3 480.8 281.31 480.79 281.31 480.77 281.31 480.71 281.3 480.68 281.29 480.65 281.27 480.63 281.23 480.6 281.26 480.63 281.3 480.63 281.32 480.61 281.34 480.6 281.36 480.6 281.4 480.59 281.79 480.59 281.87 480.55 281.89 480.46 281.85 480.42 281.87 480.42 281.87 480.41 281.87 480.41 281.87 480.4 281.97 480.36 281.98 480.31 281.96 480.24 281.99 480.19 282.07 480.17 282.26 480.15 282.34 480.14 282.34 480.11 282.35 479.98 282.25 479.91 282.22 479.84 282.22 479.81 282.21 479.78 282.19 479.78 282.16 479.78 282.12 479.78 282.09 479.76 282.05 479.71 282.06 479.67 282.08 479.62 282.09 479.6 282.08 479.6 282.08 479.63 282.04 479.72 281.87 479.75 281.85 479.75 281.8 479.69 281.62 479.53 281.36 479.5 281.32 479.47 281.27 479.45 281.19 479.42 281.15 479.38 281.12 479.35 281.09 479.33 281.02 479.33 280.98 479.39 280.89 479.41 280.87 479.43 280.85 479.46 280.85 479.48 280.84 479.49 280.83 479.52 280.77 479.54 280.75 479.58 280.73 479.6 280.71 479.61 280.69 479.62 280.63 479.65 280.61 479.66 280.6 479.67 280.58 479.76 280.55 479.78 280.54 479.88 280.41 479.9 280.38 479.92 280.38 480.16 280.23 480.2 280.22 480.22 280.2 480.25 280.15 480.27 280.1 480.28 280.05 480.28 280.02 480.27 279.99 480.26 279.97 480.25 279.94 480.25 279.92 480.25 279.75 480.24 279.7 480.22 279.66 480.09 279.47 480.01 279.39 479.93 279.34 479.84 279.31 479.77 279.34 479.69 279.41 479.56 279.57 479.53 279.59 479.5 279.6 479.48 279.62 479.4 279.7 479.37 279.73 479.28 279.75 479.1 279.76 479.02 279.79 478.99 279.81 478.97 279.87 478.94 279.88 478.95 279.86 478.95 279.85 478.95 279.84 478.93 279.83 478.91 279.87 478.87 279.9 478.85 279.94 478.87 279.98 478.9 279.93 478.95 279.95 478.96 279.9 478.97 279.91 478.98 279.92 478.98 279.93 478.99 279.94 479 279.92 479 279.9 479 279.88 478.99 279.86 479.02 279.85 479.03 279.86 479.04 279.89 479.06 279.9 479.08 279.9 479.1 279.88 479.13 279.87 479.16 279.88 479.02 279.94 478.96 279.99 478.93 280.05 478.93 280.08 478.96 280.06 479.06 279.95 479.09 279.93 479.13 279.92 479.04 280.01 479.03 280.03 479.01 280.08 479 280.1 478.99 280.13 478.99 280.16 478.98 280.19 478.97 280.21 478.94 280.21 478.91 280.24 478.89 280.24 478.82 280.25 478.79 280.24 478.72 280.18 478.7 280.17 478.67 280.17 478.65 280.19 478.64 280.22 478.67 280.22 478.68 280.23 478.76 280.26 478.67 280.23 478.57 280.22 478.55 280.23 478.5 280.26 478.49 280.27 478.48 280.29 478.46 280.3 478.41 280.32 478.35 280.37 478.35 280.37 478.33 280.36 478.29 280.31 478.27 280.3 478.24 280.29 477.68 279.95 477.61 279.93 477.54 279.88 477.5 279.86 477.46 279.86 477.44 279.86 477.43 279.86 477.39 279.87 477.36 279.88 477.37 279.87 477.38 279.83 477.35 279.81 477.26 279.71 477.08 279.62 477.06 279.64 477 279.6 476.9 279.62 476.76 279.69 476.69 279.7 476.66 279.71 476.6 279.75 476.58 279.76 476.56 279.81 476.55 279.83 476.48 279.86 476.29 280.04 476.05 280.19 475.98 280.25 475.79 280.49 475.77 280.53 475.76 280.56 475.74 280.58 475.69 280.6 475.61 280.68 475.54 280.72 475.53 280.8 475.54 280.88 475.54 280.96 475.49 280.99 475.43 281.01 475.37 281.03 475.34 281.09 475.36 281.08 475.36 281.07 475.36 281.09 475.32 281.15 475.3 281.18 475.29 281.22 475.29 281.25 475.28 281.27 475.24 281.27 475.24 281.26 475.26 281.21 475.25 281.13 475.21 281.06 475.17 281.03 475.13 281.02 475.11 281 475.08 280.99 475.05 281.02 475.01 281.09 474.99 281.11 474.95 281.12 474.96 281.13 474.97 281.13 474.98 281.15 474.95 281.17 474.92 281.23 474.89 281.24 474.87 281.24 474.8 281.27 474.78 281.29 474.71 281.36 474.7 281.39 474.69 281.46 474.68 281.48 474.67 281.46 474.61 281.38 474.61 281.34 474.58 281.33 474.56 281.34 474.52 281.35 474.47 281.39 474.42 281.46 474.37 281.51 474.33 281.5 474.36 281.48 474.36 281.46 474.3 281.45 474.21 281.43 474.17 281.42 474.12 281.43 474.04 281.47 474.01 281.48 473.92 281.45 473.87 281.45 473.83 281.49 473.79 281.5 473.69 281.5 473.62 281.52 473.6 281.52 473.57 281.51 473.52 281.49 473.5 281.48 473.45 281.5 473.42 281.53 473.4 281.57 473.37 281.61 473.34 281.63 473.34 281.63 473.33 281.62 473.31 281.61 473.28 281.61 473.21 281.61 473.06 281.57 473.02 281.57 472.88 281.65 472.85 281.66 472.83 281.69 472.71 281.78 472.62 281.77 472.42 281.73 472.34 281.69 472.2 281.6 472.19 281.59 472.11 281.59 472.07 281.57 471.9 281.48 471.88 281.45 471.86 281.42 471.82 281.4 471.78 281.39 471.74 281.37 471.64 281.23 471.62 281.23 471.61 281.21 471.57 281.19 471.56 281.17 471.55 281.09 471.55 281.07 471.49 280.99 471.36 280.88 471.33 280.8 471.33 280.77 471.32 280.75 471.29 280.72 471.27 280.68 471.26 280.67 471.23 280.66 471.23 280.66 471.19 280.57 471.16 280.53 471.13 280.51 470.99 280.37 470.98 280.36 470.96 280.36 470.93 280.36 470.91 280.35 470.89 280.34 470.88 280.33 470.86 280.32 470.77 280.32 470.73 280.32 470.71 280.29 470.69 280.26 470.63 280.24 470.57 280.23 470.53 280.24 470.51 280.22 470.42 280.19 470.38 280.12 470.35 280.1 470.32 280.1 470.28 280.09 470.11 280.02 470.07 279.99 470.04 279.95 469.62 279.76 469.56 279.75 469.55 279.68 469.47 279.64 468.58 279.51 468.22 279.53 468.16 279.51 468.11 279.48 468.02 279.41 467.89 279.5 467.83 279.56 467.8 279.64 467.77 279.69 467.76 279.71 467.76 279.8 467.75 279.89 467.75 279.94 467.78 279.98 467.78 280 467.76 280.02 467.75 280.04 467.74 280.07 467.73 280.11 467.74 280.16 467.75 280.19 467.77 280.21 467.78 280.24 467.79 280.22 467.79 280.28 467.76 280.38 467.76 280.41 467.69 280.47 467.65 280.52 467.63 280.61 467.58 280.69 467.58 280.71 467.55 280.76 467.56 280.8 467.58 280.84 467.61 280.86 467.6 280.9 467.65 280.92 467.62 280.96 467.56 281.01 467.53 281.07 467.55 281.07 467.56 281.06 467.56 281.06 467.57 281.06 467.58 281.07 467.56 281.09 467.53 281.11 467.5 281.14 467.48 281.2 467.45 281.24 467.38 281.29 467.39 281.18 467.38 281.13 467.35 281.11 467.3 281.12 467.06 281.01 467.02 281.01 466.85 281.04 466.83 281.06 466.82 281.1 466.82 281.16 466.81 281.16 466.8 281.14 466.79 281.11 466.78 281.16 466.78 281.18 466.75 281.16 466.75 281.18 466.75 281.2 466.66 281.18 466.65 281.17 466.63 281.16 466.61 281.15 466.58 281.16 466.62 281.16 466.62 281.18 466.47 281.26 466.44 281.26 466.41 281.27 466.39 281.27 466.36 281.26 466.34 281.26 466.31 281.26 466.3 281.26 466.27 281.29 466.24 281.31 466.15 281.33 466.12 281.35 466.13 281.35 466.14 281.35 466.14 281.36 466.14 281.37 466.12 281.37 466.06 281.39 466.06 281.4 466.11 281.4 466.08 281.43 466.05 281.46 466.01 281.47 465.97 281.48 465.97 281.46 465.98 281.45 465.99 281.44 466 281.43 466 281.42 465.97 281.43 465.97 281.43 465.96 281.44 465.93 281.42 465.9 281.41 465.88 281.41 465.85 281.42 465.84 281.43 465.84 281.45 465.83 281.46 465.81 281.46 465.81 281.47 465.77 281.52 465.76 281.46 465.69 281.43 465.67 281.37 465.7 281.38 465.71 281.37 465.71 281.34 465.69 281.33 465.58 281.35 465.58 281.33 465.6 281.32 465.62 281.31 465.64 281.31 465.67 281.31 465.62 281.29 465.44 281.29 465.38 281.28 465.24 281.2 465.22 281.23 465.2 281.2 465.2 281.12 465.18 281.14 465.17 281.14 465.17 281.13 465.15 281.12 465.13 281.13 465.12 281.14 465.12 281.15 465.1 281.16 465.09 281.18 465.08 281.2 465.07 281.21 465.06 281.22 465.04 281.21 465.03 281.18 465.01 281.16 465 281.18 464.86 281.05 464.85 281.04 464.83 281 464.8 280.97 464.67 280.93 464.63 280.88 464.6 280.9 464.6 280.86 464.6 280.86 464.6 280.84 464.6 280.82 464.54 280.82 464.56 280.81 464.53 280.79 464.52 280.79 464.5 280.79 464.51 280.76 464.53 280.74 464.55 280.73 464.57 280.73 464.57 280.72 464.57 280.72 464.57 280.72 464.56 280.71 464.57 280.66 464.56 280.61 464.53 280.58 464.5 280.56 464.5 280.54 464.53 280.52 464.54 280.51 464.56 280.51 464.56 280.49 464.55 280.39 464.54 280.34 464.51 280.36 464.5 280.36 464.47 280.32 464.36 280.36 464.32 280.36 464.36 280.34 464.37 280.32 464.35 280.28 464.33 280.24 464.34 280.22 464.36 280.17 464.38 280.15 464.41 280.17 464.43 280.15 464.46 280.11 464.5 280.09 464.5 280.11 464.48 280.14 464.5 280.15 464.53 280.14 464.54 280.12 464.54 280.09 464.53 280.07 464.51 280.05 464.5 280.03 464.36 279.93 464.19 279.86 464.16 279.84 464.15 279.8 464.11 279.82 464.07 279.87 464.04 279.9 464.04 279.92 464.06 279.92 464.06 279.94 464.01 279.94 464 279.95 463.98 279.96 463.97 279.98 463.98 280.01 463.98 280.03 463.95 280.03 463.96 280.06 463.97 280.06 463.98 280.07 463.97 280.09 463.99 280.12 464 280.13 464.01 280.13 464.02 280.1 464.04 280.08 464.04 280.05 464.03 280.02 464.07 280.05 464.05 280.1 464.01 280.14 463.98 280.17 463.99 280.19 463.97 280.21 463.93 280.21 463.9 280.21 463.88 280.18 463.88 280.16 463.9 280.14 463.93 280.13 463.93 280.11 463.9 280.09 463.87 280.07 463.85 280.06 463.81 280.07 463.8 280 463.72 279.94 463.62 279.92 463.56 279.96 463.54 279.96 463.53 279.91 463.51 279.89 463.48 279.9 463.45 279.94 463.43 279.92 463.4 279.85 463.42 279.81 463.43 279.75 463.43 279.7 463.4 279.68 463.4 279.66 463.41 279.66 463.41 279.66 463.42 279.66 463.42 279.65 463.41 279.64 463.41 279.63 463.42 279.62 463.4 279.62 463.39 279.64 463.39 279.66 463.39 279.68 463.38 279.67 463.38 279.66 463.37 279.64 463.34 279.61 463.28 279.6 463.23 279.63 463.24 279.69 463.21 279.67 463.19 279.67 463.17 279.67 463.15 279.66 463.18 279.64 463.18 279.62 463.13 279.62 463.09 279.61 463.08 279.58 463.07 279.53 463.09 279.53 463.1 279.52 463.1 279.52 463.1 279.5 463.09 279.49 463.09 279.49 463.08 279.48 463.08 279.45 463.07 279.43 463.06 279.43 463.05 279.46 463.03 279.48 462.99 279.5 462.93 279.51 462.9 279.51 462.9 279.53 462.92 279.55 462.93 279.56 462.95 279.56 462.96 279.56 462.99 279.56 463.01 279.58 462.98 279.62 462.97 279.66 462.94 279.69 462.9 279.69 462.79 279.63 462.76 279.62 462.75 279.62 462.76 279.66 462.76 279.68 462.71 279.68 462.68 279.67 462.67 279.65 462.68 279.62 462.71 279.61 462.76 279.6 462.76 279.58 462.74 279.56 462.71 279.54 462.67 279.52 462.64 279.54 462.61 279.58 462.59 279.63 462.6 279.67 462.63 279.69 462.62 279.75 462.71 279.82 462.72 279.88 462.69 279.86 462.66 279.85 462.63 279.86 462.61 279.9 462.6 279.9 462.58 279.88 462.58 279.9 462.58 279.9 462.58 279.91 462.57 279.92 462.58 279.92 462.58 279.93 462.58 279.94 462.47 279.98 462.43 280.01 462.39 280.07 462.36 280.13 462.31 280.2 462.26 280.24 462.2 280.22 462.19 280.24 462.19 280.25 462.18 280.25 462.16 280.26 462.16 280.27 462.17 280.29 462.17 280.3 462.15 280.31 462.12 280.31 462.11 280.3 462.1 280.28 462.07 280.32 462.05 280.32 462.02 280.31 461.99 280.28 462 280.27 462 280.25 462.01 280.24 461.99 280.23 461.99 280.22 461.98 280.21 462.14 280.21 462.19 280.19 462.21 280.16 462.23 280.13 462.27 280.09 462.24 280.05 462.19 280.09 462.17 280.11 462.17 280.09 462.19 280.07 462.2 280.03 462.2 280 462.17 279.98 462.15 279.96 462.15 279.97 462.14 280.01 462.13 280.02 462.11 280.02 462.08 280.01 462.07 280 462.05 280 462.02 280 462 279.99 461.99 279.97 462 279.96 462.08 279.94 462.07 279.92 462.11 279.92 462.13 279.92 462.14 279.91 462.15 279.9 462.16 279.89 462.16 279.88 462.24 279.88 462.27 279.86 462.26 279.91 462.29 279.91 462.32 279.89 462.33 279.85 462.3 279.83 462.26 279.83 462.25 279.81 462.25 279.79 462.27 279.77 462.3 279.75 462.31 279.73 462.32 279.75 462.33 279.76 462.36 279.79 462.34 279.74 462.34 279.68 462.33 279.66 462.3 279.65 462.28 279.66 462.26 279.67 462.22 279.73 462.17 279.76 462.15 279.76 462.14 279.73 462.11 279.76 462.02 279.79 461.99 279.81 461.98 279.81 461.96 279.77 461.94 279.78 461.92 279.81 461.88 279.83 461.87 279.79 461.86 279.79 461.84 279.81 461.82 279.83 461.81 279.82 461.79 279.8 461.78 279.79 461.76 279.83 461.75 279.83 461.72 279.8 461.68 279.78 461.64 279.77 461.6 279.79 461.6 279.77 461.57 279.78 461.54 279.78 461.52 279.77 461.48 279.77 461.44 279.78 461.4 279.84 461.37 279.86 461.37 279.88 461.37 279.91 461.34 279.99 461.34 280.05 461.26 280.02 461.22 280 461.19 280 461.15 280 461.11 280.01 461.09 280.01 461.08 279.98 460.93 280.03 460.92 280.05 460.91 280.07 460.9 280.07 460.89 280.07 460.86 280.04 460.84 280.03 460.79 280.02 460.77 280.02 460.75 280.03 460.74 280 460.72 279.98 460.7 279.98 460.67 280 460.67 279.98 460.67 279.98 460.66 279.98 460.65 279.98 460.67 279.96 460.67 279.94 460.66 279.93 460.64 279.92 460.64 279.9 460.67 279.92 460.7 279.92 460.74 279.92 460.77 279.91 460.79 279.88 460.8 279.84 460.82 279.81 460.85 279.79 460.87 279.78 460.92 279.79 461.08 279.77 461.16 279.77 461.21 279.76 461.22 279.73 461.22 279.69 461.23 279.66 461.28 279.64 461.38 279.71 461.41 279.69 461.45 279.71 461.48 279.71 461.51 279.71 461.53 279.71 461.59 279.66 461.62 279.64 461.82 279.64 461.84 279.63 461.85 279.65 461.89 279.66 461.93 279.67 461.98 279.68 462.05 279.67 462.09 279.68 462.13 279.71 462.13 279.69 462.15 279.67 462.19 279.64 462.18 279.61 462.15 279.59 462.12 279.58 462.08 279.58 462.1 279.56 462.12 279.57 462.12 279.55 462.11 279.53 462.08 279.51 462.09 279.5 462.1 279.5 462.11 279.49 462.11 279.49 462.13 279.5 462.15 279.49 462.17 279.48 462.19 279.47 462.19 279.45 462.15 279.4 462.13 279.38 462.11 279.35 462.14 279.38 462.16 279.35 462.15 279.35 462.14 279.34 462.14 279.33 462.13 279.32 462.15 279.32 462.18 279.31 462.2 279.32 462.2 279.3 462.16 279.3 462.16 279.28 462.21 279.28 462.23 279.28 462.25 279.3 462.26 279.29 462.27 279.28 462.28 279.29 462.3 279.3 462.31 279.3 462.33 279.28 462.38 279.31 462.4 279.3 462.42 279.3 462.42 279.32 462.43 279.35 462.44 279.34 462.44 279.33 462.44 279.33 462.43 279.32 462.44 279.3 462.44 279.29 462.43 279.29 462.42 279.28 462.42 279.26 462.44 279.26 462.45 279.26 462.47 279.27 462.48 279.28 462.52 279.2 462.54 279.18 462.54 279.16 462.51 279.16 462.53 279.14 462.54 279.11 462.57 279.14 462.61 279.14 462.63 279.13 462.61 279.09 462.73 279.04 462.8 279.03 462.8 279.01 462.78 278.99 462.76 278.98 462.74 278.97 462.45 279.01 462.35 279.01 462.3 279.02 462.31 279.05 462.31 279.07 462.27 279.05 462.04 279.01 462.01 279.02 461.99 279.05 461.96 279.05 461.94 279.05 461.87 279.03 461.81 279.04 461.63 279.1 461.61 279.09 461.6 279.09 461.59 279.1 461.58 279.13 461.56 279.12 461.54 279.12 461.52 279.12 461.49 279.13 461.45 279.1 461.37 279.1 461.3 279.12 461.26 279.16 461.22 279.14 461.16 279.12 461.11 279.12 461.1 279.18 461.04 279.15 461.02 279.13 460.99 279.13 460.92 279.14 460.9 279.13 460.88 279.11 460.84 279.05 460.82 279.03 460.79 279.04 460.75 279.06 460.74 279.04 460.75 279.03 460.73 279.03 460.73 279.06 460.7 279.13 460.69 279.11 460.69 279.11 460.69 279.1 460.7 279.09 460.7 279.09 460.69 279.09 460.69 279.08 460.68 279.07 460.69 279.06 460.7 279.06 460.69 279.05 460.68 279.03 460.66 279.05 460.61 279.06 460.58 279.07 460.58 279.09 460.59 279.12 460.57 279.15 460.55 279.17 460.52 279.18 460.53 279.21 460.53 279.22 460.51 279.22 460.5 279.22 460.49 279.22 460.47 279.2 460.43 279.21 460.41 279.17 460.4 279.11 460.4 279.06 460.38 279.02 460.37 278.98 460.36 278.94 460.38 278.88 460.4 278.88 460.44 278.86 460.47 278.84 460.5 278.81 460.49 278.79 460.47 278.79 460.45 278.79 460.43 278.81 460.42 278.8 460.42 278.79 460.41 278.77 460.43 278.79 460.45 278.75 460.52 278.78 460.56 278.77 460.56 278.75 460.57 278.73 460.57 278.7 460.56 278.67 460.59 278.68 460.6 278.69 460.61 278.72 460.61 278.75 460.62 278.75 460.64 278.72 460.65 278.7 460.67 278.69 460.68 278.71 460.69 278.71 460.69 278.7 460.69 278.7 460.7 278.69 460.7 278.74 460.71 278.75 460.72 278.75 460.75 278.75 460.76 278.76 460.78 278.78 460.79 278.78 460.82 278.77 460.82 278.78 460.81 278.78 460.81 278.78 460.81 278.79 460.84 278.84 460.87 278.86 460.9 278.85 460.96 278.81 461.01 278.79 461.03 278.78 461.05 278.76 461.1 278.76 461.13 278.75 461.13 278.73 461.1 278.74 461.09 278.74 461.08 278.75 461.06 278.66 461.05 278.62 461.02 278.6 461.02 278.58 461.12 278.55 461.15 278.56 461.13 278.62 461.15 278.61 461.17 278.6 461.2 278.56 461.17 278.55 461.15 278.53 461.16 278.47 461.16 278.46 461.19 278.44 461.2 278.43 461.21 278.41 461.21 278.37 461.22 278.35 461.19 278.33 461.19 278.33 461.17 278.33 461.16 278.33 461.16 278.34 461.16 278.35 461.1 278.35 461.08 278.36 461.07 278.38 461.05 278.42 461.03 278.46 460.99 278.48 460.96 278.46 461 278.43 461 278.39 460.98 278.37 460.93 278.37 460.92 278.38 460.9 278.4 460.88 278.41 460.87 278.4 460.87 278.37 460.89 278.34 460.93 278.29 460.93 278.27 460.94 278.24 460.94 278.2 460.91 278.16 460.9 278.16 460.89 278.24 460.84 278.26 460.78 278.25 460.73 278.22 460.71 278.15 460.73 278.1 460.77 278.05 460.82 278.03 460.8 277.99 460.75 277.97 460.74 277.97 460.71 277.97 460.67 277.99 460.65 278.02 460.64 278.06 460.62 278.08 460.56 278.08 460.56 278.1 460.6 278.13 460.58 278.14 460.45 278.15 460.42 278.16 460.4 278.18 460.38 278.16 460.36 278.15 460.35 278.15 460.33 278.16 460.33 278.14 460.33 278.13 460.32 278.12 460.3 278.13 460.3 278.14 460.29 278.13 460.27 278.12 460.29 278.1 460.31 278.07 460.31 278.04 460.3 278.01 460.34 277.99 460.35 277.99 460.35 277.97 460.33 277.92 460.34 277.79 460.3 277.8 460.29 277.78 460.28 277.78 460.26 277.8 460.24 277.82 460.25 277.77 460.27 277.73 460.27 277.69 460.26 277.65 460.27 277.63 460.26 277.62 460.25 277.6 460.26 277.57 460.29 277.59 460.31 277.55 460.32 277.49 460.31 277.46 460.28 277.44 460.15 277.36 459.96 277.31 459.88 277.26 459.9 277.21 459.94 277.2 460.08 277.21 460.13 277.2 460.32 277.13 460.35 277.11 460.4 277.04 460.42 277 460.43 276.94 460.43 276.88 460.43 276.84 460.41 276.82 460.39 276.79 460.38 276.76 460.38 276.71 460.39 276.7 460.42 276.67 460.43 276.65 460.43 276.63 460.44 276.6 460.44 276.58 460.43 276.56 460.46 276.53 460.44 276.47 460.38 276.36 460.32 276.38 460.24 276.38 460.16 276.37 460.11 276.35 460.1 276.33 460.09 276.31 460.08 276.29 460.05 276.29 460.04 276.29 460.02 276.28 460.01 276.27 460 276.26 459.99 276.22 459.97 276.2 459.91 276.19 459.8 276.15 459.74 276.14 459.67 276.15 459.63 276.17 459.61 276.17 459.6 276.18 459.6 276.2 459.59 276.22 459.57 276.23 459.55 276.22 459.5 276.12 459.51 276.08 459.51 276.04 459.5 276 459.48 275.96 459.46 275.92 459.41 275.87 459.39 275.85 459.35 275.87 459.34 275.83 459.35 275.75 459.32 275.72 459.28 275.72 459.25 275.74 459.2 275.75 459.06 275.75 459.04 275.76 459.01 275.94 459 275.93 459 275.93 459 275.92 458.98 275.92 458.99 275.96 458.99 276 458.98 276.03 458.95 276.04 458.94 276.03 458.91 275.96 458.89 275.92 458.89 275.98 458.87 275.99 458.84 275.96 458.79 275.92 458.78 275.89 458.78 275.87 458.78 275.83 458.72 275.84 458.67 275.8 458.61 275.74 458.56 275.71 458.57 275.76 458.57 275.77 458.56 275.77 458.55 275.75 458.5 275.7 458.5 275.67 458.51 275.65 458.51 275.62 458.5 275.6 458.48 275.6 458.46 275.67 458.42 275.69 458.36 275.67 458.29 275.61 458.27 275.6 458.15 275.56 458.15 275.54 458.16 275.5 458.22 275.53 458.25 275.49 458.27 275.44 458.32 275.42 458.32 275.4 458.27 275.37 458.27 275.32 458.29 275.29 458.32 275.33 458.32 275.3 458.32 275.29 458.33 275.28 458.35 275.27 458.35 275.3 458.36 275.33 458.35 275.36 458.33 275.38 458.34 275.39 458.35 275.4 458.37 275.4 458.38 275.4 458.4 275.41 458.41 275.42 458.41 275.43 458.42 275.44 458.45 275.44 458.49 275.44 458.5 275.42 458.48 275.38 458.48 275.37 458.52 275.39 458.53 275.39 458.56 275.38 458.58 275.37 458.64 275.33 458.66 275.33 458.69 275.3 458.69 275.24 458.67 275.19 458.63 275.15 458.63 275.13 458.69 275.16 458.72 275.19 458.74 275.19 458.77 275.11 458.74 275.09 458.68 275.04 458.64 275.03 458.61 275 458.59 275 458.57 275.01 458.55 275.05 458.54 275.06 458.49 275.05 458.49 275.04 458.51 275.01 458.53 274.96 458.52 274.93 458.45 274.83 458.47 274.84 458.46 274.81 458.43 274.72 458.43 274.71 458.43 274.69 458.41 274.58 458.41 274.54 458.41 274.5 458.42 274.47 458.44 274.46 458.48 274.45 458.53 274.42 458.55 274.42 458.61 274.42 458.67 274.44 458.71 274.46 458.75 274.49 458.83 274.58 458.87 274.63 458.88 274.67 458.93 274.75 458.98 274.83 459 274.84 459.02 274.86 459.03 274.87 459.04 274.9 459.05 274.93 459.05 274.96 459.05 274.99 459.06 275.02 459.04 275.03 459.04 275.03 459.03 275.03 459.01 275.02 458.99 275.01 458.96 275.02 458.94 275.03 458.97 275.05 458.97 275.08 458.96 275.11 458.94 275.15 458.99 275.16 459.01 275.19 459.03 275.23 459.05 275.28 459.09 275.41 459.13 275.47 459.17 275.45 459.18 275.42 459.17 275.39 459.14 275.37 459.12 275.25 459.13 275.2 459.16 275.15 459.19 275.12 459.23 275.13 459.23 275.11 459.24 275.11 459.27 275.14 459.29 275.19 459.33 275.31 459.34 275.3 459.37 275.29 459.38 275.29 459.4 275.32 459.43 275.32 459.47 275.3 459.51 275.29 459.68 275.27 459.79 275.22 459.83 275.21 459.84 275.2 459.87 275.18 459.88 275.17 459.9 275.17 459.92 275.18 459.94 275.19 459.97 275.17 459.97 275.18 459.99 275.17 460.05 275.2 460.1 275.17 460.15 275.11 460.21 275.08 460.21 275.06 460.19 275.04 460.18 275.04 460.17 275.06 460.15 275.03 460.11 275.05 460.03 275.05 460.02 275.06 459.96 275.03 459.9 275.03 459.76 275.09 459.71 275.11 459.71 275.11 459.73 275.08 459.69 275.05 459.62 274.94 459.59 274.92 459.54 274.9 459.52 274.89 459.47 274.85 459.44 274.8 459.47 274.84 459.51 274.87 459.57 274.9 459.61 274.9 459.61 274.88 459.58 274.85 459.55 274.82 459.52 274.8 459.48 274.79 459.49 274.75 459.51 274.68 459.52 274.65 459.48 274.62 459.46 274.63 459.44 274.65 459.39 274.65 459.4 274.62 459.41 274.61 459.36 274.59 459.33 274.59 459.3 274.59 459.31 274.58 459.31 274.55 459.32 274.53 459.29 274.53 459.27 274.52 459.23 274.49 459.24 274.48 459.26 274.46 459.28 274.46 459.3 274.46 459.26 274.39 459.24 274.35 459.23 274.3 459.27 274.27 459.38 274.25 459.45 274.2 459.46 274.21 459.47 274.22 459.47 274.22 459.47 274.23 459.5 274.23 459.52 274.23 459.57 274.25 459.6 274.26 459.64 274.26 459.62 274.22 459.64 274.21 459.66 274.19 459.68 274.18 459.7 274.2 459.7 274.18 459.71 274.16 459.7 274.14 459.7 274.11 459.68 274.13 459.64 274.05 459.62 274.03 459.71 273.99 459.73 274.05 459.76 274.06 459.79 274.02 459.76 273.95 459.8 273.94 459.83 273.92 459.86 273.9 459.88 273.88 459.92 273.91 459.97 273.88 459.99 273.83 459.94 273.82 459.98 273.74 459.98 273.71 459.94 273.68 459.9 273.71 459.88 273.73 459.85 273.74 459.81 273.74 459.8 273.73 459.78 273.69 459.77 273.68 459.74 273.69 459.72 273.7 459.7 273.71 459.68 273.68 459.66 273.7 459.58 273.75 459.55 273.76 459.53 273.74 459.5 273.69 459.46 273.68 459.42 273.65 459.4 273.59 459.4 273.51 459.44 273.47 459.44 273.45 459.43 273.45 459.39 273.45 459.42 273.41 459.47 273.38 459.53 273.34 459.57 273.33 459.59 273.31 459.57 273.25 459.52 273.17 459.46 273.09 459.43 273.06 459.36 273.03 459.34 273.02 459.3 272.99 459.27 272.95 459.27 272.92 459.25 272.86 459.24 272.81 459.23 272.76 459.19 272.74 459.08 272.75 459.03 272.75 458.98 272.73 459.01 272.7 459.02 272.65 459.04 272.62 459.06 272.61 459.08 272.62 459.08 272.64 459.04 272.65 459.04 272.67 459.07 272.66 459.09 272.67 459.11 272.69 459.12 272.71 459.11 272.66 459.12 272.64 459.14 272.63 459.17 272.61 459.2 272.55 459.44 272.37 459.42 272.36 459.41 272.35 459.41 272.34 459.41 272.32 459.41 272.3 459.41 272.28 459.49 272.27 459.52 272.26 459.55 272.24 459.52 272.19 459.56 272.17 459.69 272.13 459.69 272.12 459.69 272.11 459.7 272.08 459.73 271.97 459.73 271.91 459.71 271.87 459.68 271.85 459.61 271.84 459.56 271.87 459.52 271.9 459.48 271.92 459.42 271.88 459.11 271.94 458.65 272.02 458.6 272.05 458.57 272.07 458.55 272.07 458.45 272.13 458.44 272.14 458.41 272.14 458.29 272.12 458.27 272.12 458.24 272.14 458.22 272.14 458.2 272.16 458.19 272.17 458.19 272.18 458.17 272.18 458.15 272.16 457.97 272.2 457.88 272.2 457.8 272.16 457.79 272.1 457.84 271.95 457.88 271.81 457.96 271.72 457.98 271.66 458 271.5 457.99 271.47 457.95 271.39 457.94 271.35 457.94 271.33 457.95 271.32 457.96 271.31 457.97 271.29 457.97 271.23 457.98 271.15 457.97 271.12 457.94 271.12 457.95 271.08 457.98 270.94 457.98 270.92 457.97 270.87 457.97 270.84 457.97 270.82 457.99 270.78 458 270.75 458.01 270.73 458.05 270.64 458.07 270.62 458.19 270.66 458.23 270.64 458.3 270.61 458.32 270.59 458.42 270.5 458.44 270.47 458.44 270.44 458.45 270.41 458.45 270.39 458.45 270.38 458.45 270.36 458.45 270.35 458.46 270.35 458.48 270.35 458.5 270.35 458.51 270.34 458.52 270.3 458.53 270.25 458.53 270.19 458.51 270.15 458.53 270.11 458.54 270.09 458.55 270.09 458.58 270.09 458.61 270.08 458.67 270.06 458.74 270.04 458.78 270 458.88 269.87 458.9 269.86 458.92 269.85 458.95 269.83 458.98 269.81 459.22 269.52 459.26 269.48 459.36 269.48 459.55 269.49 459.62 269.48 459.65 269.48 459.7 269.52 459.83 269.53 459.88 269.52 459.94 269.47 460 269.4 460.06 269.34 460.17 269.34 460.24 269.35 460.33 269.36 460.38 269.34 460.45 269.3 460.49 269.3 460.52 269.32 460.55 269.37 460.58 269.45 460.55 269.48 460.53 269.48 460.52 269.46 460.52 269.46 460.52 269.47 460.5 269.48 460.6 269.58 460.72 269.66 460.85 269.72 461.01 269.76 461.07 269.76 461.1 269.75 461.17 269.7 461.21 269.69 461.27 269.71 461.32 269.73 461.38 269.74 461.43 269.71 461.47 269.73 461.54 269.74 461.6 269.72 461.65 269.65 461.77 269.58 461.81 269.53 461.77 269.53 461.66 269.49 461.62 269.51 461.61 269.51 461.6 269.49 461.59 269.46 461.58 269.45 461.56 269.45 461.55 269.44 461.54 269.41 461.53 269.4 461.52 269.38 461.52 269.35 461.51 269.33 461.5 269.32 461.48 269.32 461.46 269.32 461.39 269.24 461.37 269.22 461.37 269.2 461.39 269.19 461.42 269.17 461.45 269.13 461.48 269.12 461.49 269.13 461.51 269.13 461.53 269.1 461.58 269.15 461.58 269.16 461.6 269.16 461.61 269.15 461.61 269.14 461.63 269.14 462 269.2 462.1 269.23 462.14 269.28 462.1 269.35 461.91 269.45 461.85 269.49 461.86 269.57 461.94 269.59 462.13 269.58 462.31 269.51 462.84 269.48 462.95 269.5 463.15 269.49 463.12 269.5 463.1 269.51 463.09 269.53 463.08 269.55 463.17 269.52 463.28 269.52 463.38 269.55 463.48 269.6 463.49 269.58 463.5 269.58 463.51 269.59 463.53 269.6 463.54 269.59 463.57 269.56 463.59 269.55 463.71 269.53 463.74 269.51 463.78 269.49 463.82 269.49 463.9 269.52 463.96 269.52 464.03 269.53 464.06 269.55 464.11 269.58 464.15 269.6 464.19 269.6 464.36 269.6 464.4 269.59 464.43 269.56 464.45 269.53 464.47 269.45 464.48 269.42 464.51 269.43 464.55 269.43 464.59 269.41 464.62 269.4 464.58 269.35 464.53 269.3 464.48 269.27 464.43 269.26 464.31 269.26 464.29 269.27 464.24 269.31 464.22 269.32 464.1 269.29 463.9 269.17 463.78 269.14 463.82 269.05 463.9 269 464.06 268.94 464.12 268.9 464.22 268.8 464.25 268.78 464.91 268.72 465 268.69 465.09 268.64 465.14 268.6 465.15 268.6 465.17 268.62 465.19 268.64 465.21 268.66 465.23 268.65 465.25 268.64 465.28 268.62 465.31 268.61 465.32 268.59 465.33 268.57 465.35 268.55 465.37 268.54 465.39 268.54 465.42 268.54 465.45 268.56 465.49 268.59 465.5 268.65 465.52 268.65 465.95 268.55 466.21 268.54 466.29 268.58 466.33 268.57 466.37 268.52 466.34 268.45 466.26 268.44 466.08 268.46 466.06 268.47 466.05 268.47 466.03 268.48 466 268.48 465.98 268.47 465.93 268.43 465.92 268.42 465.88 268.41 465.81 268.39 465.76 268.38 465.23 268.4 465.19 268.42 465.16 268.44 465.12 268.46 465.07 268.44 465.06 268.42 465.05 268.39 465.04 268.37 465.01 268.36 465.02 268.35 465.03 268.35 465.03 268.34 465.04 268.34 465.04 268.31 465.02 268.29 465 268.27 464.98 268.26 464.97 268.28 464.95 268.26 464.93 268.28 464.91 268.29 464.85 268.3 464.85 268.28 464.87 268.28 464.88 268.27 464.89 268.25 464.89 268.22 464.91 268.23 464.92 268.24 464.92 268.23 464.92 268.22 464.93 268.22 464.94 268.22 464.91 268.18 464.87 268.13 464.85 268.11 464.82 268.09 464.77 268.1 464.73 268.06 464.6 268 464.56 267.96 464.51 267.9 464.47 267.87 464.35 267.8 464.35 267.79 464.36 267.79 464.36 267.79 464.36 267.78 464.33 267.77 464.32 267.74 464.32 267.7 464.3 267.66 464.34 267.64 464.39 267.59 464.42 267.52 464.45 267.41 464.48 267.37 464.48 267.33 464.44 267.3 464.49 267.22 464.57 267.13 464.66 267.06 464.73 267.08 464.74 267.08 464.76 267.05 464.8 267.04 465.21 267.12 465.66 267.22 466.24 267.31 466.8 267.33 466.87 267.32 466.9 267.3 466.95 267.27 466.98 267.26 467 267.24 467.02 267.21 467.03 267.18 467.05 267.2 467.07 267.17 467.1 267.13 467.13 267.12 467.16 267.14 467.25 267.16 467.32 267.22 468.05 267.39 468.12 267.46 468.16 267.48 468.35 267.51 468.92 267.5 468.97 267.47 468.99 267.46 469.02 267.46 469.07 267.48 469.09 267.48 469.18 267.46 469.2 267.46 469.22 267.48 469.23 267.48 469.25 267.47 469.25 267.46 469.26 267.45 469.27 267.44 469.36 267.4 469.43 267.36 469.56 267.24 469.59 267.2 469.61 267.16 469.61 267.11 469.62 267.05 469.62 267.02 469.64 266.96 469.65 266.93 469.64 266.91 469.59 266.88 469.59 266.86 469.61 266.82 469.66 266.8 469.76 266.8 469.77 266.78 469.81 266.73 469.82 266.72 469.84 266.71 470.18 266.58 470.65 266.27 470.92 266.13 471 266.07 471.02 266.06 471.23 265.99 471.29 265.95 471.33 265.88 471.47 265.71 471.48 265.69 471.52 265.63 471.59 265.61 471.71 265.6 471.72 265.58 471.74 265.58 471.76 265.56 471.76 265.54 471.77 265.53 471.78 265.52 471.79 265.53 471.81 265.56 471.82 265.56 471.86 265.54 471.91 265.49 471.94 265.46 472.09 265.38 472.12 265.36 472.15 265.35 472.18 265.34 472.21 265.36 472.24 265.31 472.29 265.28 472.35 265.26 472.4 265.29 472.44 265.29 472.57 265.24 472.61 265.22 472.64 265.22 472.7 265.22 472.77 265.2 472.81 265.18 472.83 265.19 472.99 265.15 473.07 265.11 473.17 265.05 473.52 264.93 473.87 264.74 473.95 264.74 474.11 264.77 474.35 264.77 474.4 264.78 474.51 264.82 474.98 264.87 475.02 264.85 475.09 264.88 475.37 264.85 476.1 264.95 476.35 264.88 476.44 264.87 476.47 264.88 476.53 264.92 476.61 264.94 476.91 264.96 477.02 264.95 477.14 264.91 477.17 264.89 477.26 264.83 477.34 264.78 477.4 264.69 477.45 264.59 477.47 264.51 477.5 264.52 477.56 264.53 477.59 264.55 477.6 264.53 477.61 264.52 477.62 264.53 477.64 264.53 477.65 264.56 477.68 264.59 477.69 264.61 477.68 264.63 477.68 264.65 477.76 264.71 477.82 264.74 477.88 264.73 477.9 264.72 477.94 264.68 477.96 264.67 478 264.67 478.02 264.69 478.06 264.73 478.06 264.75 477.94 264.74 477.89 264.74 477.84 264.78 477.82 264.82 477.8 264.89 477.79 264.96 477.79 265.01 477.8 265.06 477.86 265.17 477.93 265.26 478.05 265.36 478.05 265.38 478.02 265.38 478.03 265.42 478.05 265.47 478.08 265.51 478.15 265.54 478.21 265.62 478.24 265.64 478.38 265.7 478.47 265.71 478.51 265.74 478.58 265.81 478.66 265.85 478.76 265.88 478.86 265.9 478.96 265.89 479 265.87 479.09 265.82 479.22 265.79 479.46 265.69 479.51 265.68 479.56 265.67 479.66 265.59 479.7 265.58 479.7 265.6 479.69 265.62 479.68 265.64 479.66 265.65 479.64 265.66 479.65 265.71 479.6 265.8 479.61 265.85 479.63 265.85 479.63 265.78 479.65 265.71 479.68 265.66 479.72 265.62 479.74 265.6 479.75 265.6 479.88 265.73 479.88 265.68 479.9 265.68 480.07 265.9 480.1 265.99 480.1 266.11 480.09 266.14 480.07 266.19 480.07 266.2 480.07 266.3 480.07 266.34 480.1 266.39 480.2 266.52 480.25 266.55 480.33 266.7 480.36 266.72 480.47 266.78 480.54 266.8 480.55 266.81 480.55 266.84 480.55 266.87 480.56 266.9 480.58 266.92 480.61 266.92 480.63 266.94 480.64 266.95 480.66 266.98 480.68 267 480.7 267 480.74 267.01 480.76 267.03 480.8 267.04 480.86 267.03 480.95 266.98 481.07 266.87 481.08 266.85 481.09 266.82 481.12 266.76 481.13 266.75 481.13 266.74 481.15 266.68 481.14 266.67 481.17 266.65 481.2 266.65 481.24 266.66 481.29 266.67 481.48 266.67 481.65 266.72 481.98 266.88 482.05 266.94 482.09 267.04 482.09 267.17 482.1 267.22 482.14 267.24 482.19 267.25 482.27 267.3 482.32 267.32 482.6 267.31 482.68 267.34 482.73 267.38 482.76 267.4 482.8 267.41 482.85 267.42 482.89 267.43 482.95 267.49 482.98 267.52 483.08 267.55 483.08 267.57 483.14 267.62 483.18 267.64 483.27 267.63 483.3 267.64 483.32 267.62 483.35 267.61 483.36 267.6 483.38 267.58 483.41 267.5 483.44 267.45 483.47 267.4 483.51 267.36 483.55 267.34 483.57 267.38 483.6 267.41 483.64 267.41 483.68 267.38 483.7 267.4 483.75 267.39 483.76 267.57 483.8 267.62 483.91 267.68 483.94 267.7 483.96 267.73 484 267.8 484.09 267.76 484.19 267.78 484.46 267.87 484.59 267.89 484.68 267.92 484.73 267.92 484.83 267.89 484.87 267.9 484.97 267.99 485.01 267.99 485.1 267.96 485.18 267.99 485.24 267.99 485.26 267.97 485.43 267.96 485.46 267.94 485.54 267.86 485.57 267.84 485.65 267.82 485.67 267.82 485.69 267.83 485.72 267.88 485.74 267.9 485.76 267.89 485.8 267.89 485.82 267.88 485.84 267.87 485.86 267.85 485.88 267.83 485.91 267.82 485.95 267.77 485.96 267.75 485.97 267.74 486.02 267.72 486.17 267.69 486.21 267.67 486.25 267.64 486.29 267.62 486.54 267.62 486.72 267.58 486.74 267.57 486.8 267.52 486.82 267.51 486.9 267.52 486.94 267.53 487.01 267.59 487.06 267.6 487.09 267.59 487.15 267.55 487.2 267.54 487.22 267.53 487.34 267.46 487.36 267.45 487.36 267.44 487.38 267.43 487.4 267.42 487.54 267.45 487.57 267.48 487.63 267.56 487.76 267.67 487.85 267.72 487.93 267.74 487.98 267.73 488.02 267.7 488.07 267.7 488.13 267.74 488.15 267.74 488.2 267.74 488.22 267.75 488.35 267.85 488.39 267.87 488.44 267.88 488.47 267.85 488.61 267.81 488.67 267.8 488.79 267.92 488.86 267.96 488.95 267.98 488.98 267.97 489.05 267.95 489.1 267.93 489.18 267.9 489.23 267.87 489.33 267.84 489.7 267.6 489.77 267.63 489.84 267.64 489.9 267.62 489.97 267.58 490.05 267.51 490.08 267.5 490.15 267.49 490.19 267.48 490.21 267.46 490.35 267.28 490.5 267.17 490.53 267.16 490.56 267.16 490.65 267.2 490.71 267.19 490.79 267.13 490.83 267.12 490.88 267.11 490.93 267.09 490.98 267.07 491.02 267.04 491.11 266.94 491.15 266.91 491.21 266.9 491.27 266.89 491.31 266.88 491.52 266.71 491.57 266.69 491.62 266.66 491.64 266.65 491.72 266.64 491.75 266.63 491.79 266.6 491.82 266.55 491.85 266.49 491.85 266.42 491.88 266.41 492.01 266.29 492.04 266.24 Z" fill-rule="evenodd" id="Turkey" transform="translate(-456.8900146484375,-264.510009765625) "/></svg>