<svg xmlns="http://www.w3.org/2000/svg" viewBox="0 0 31.489990234375 21.75"><path d="M 517.71 274.2 517.69 274.2 517.69 274.14 517.62 273.89 517.59 273.82 517.57 273.77 517.57 273.75 517.57 273.67 517.57 273.59 517.55 273.46 517.54 273.4 517.55 273.34 517.57 273.28 517.61 273.24 517.66 273.23 517.68 273.25 517.68 273.26 517.68 273.27 517.61 273.32 517.6 273.43 517.63 273.66 517.66 273.9 517.71 274.13 517.7 274.16 517.7 274.18 517.71 274.2 Z M 518.6 271.84 518.61 271.84 518.62 271.82 518.63 271.89 518.63 271.9 518.68 271.97 518.67 272.01 518.64 272.04 518.61 272.06 518.57 272.06 518.56 272.04 518.54 271.95 518.52 271.91 518.51 271.87 518.52 271.84 518.55 271.82 518.57 271.8 518.59 271.82 518.6 271.84 Z M 547.45 278.1 547.41 278.13 547.38 278.16 547.34 278.2 547.32 278.21 547.3 278.22 547.27 278.2 547.24 278.15 547.22 278.14 547.16 278.15 547.01 278.2 546.95 278.19 546.91 278.16 546.87 278.12 546.86 278.11 546.84 278.1 546.82 278.1 546.78 278.07 546.76 278.07 546.69 278.07 546.66 278.07 546.62 278.04 546.58 278.01 546.52 277.92 546.48 277.89 545.98 277.7 545.94 277.67 545.92 277.65 545.9 277.63 545.87 277.54 545.85 277.53 545.8 277.52 545.77 277.51 545.77 277.55 545.75 277.62 545.72 277.64 545.63 277.64 545.59 277.65 545.57 277.67 545.54 277.7 545.52 277.74 545.52 277.74 545.52 277.74 545.52 277.74 545.49 277.8 545.47 277.86 545.46 277.92 545.48 278.04 545.48 278.1 545.47 278.15 545.44 278.19 545.38 278.26 545.27 278.4 545.19 278.44 545.16 278.44 544.22 278.47 544.06 278.52 543.66 278.74 543.59 278.78 543.55 278.85 543.54 278.96 543.58 279.17 543.59 279.28 543.56 279.37 543.48 279.52 543.24 279.96 543.21 280.05 543.18 280.15 543.17 280.21 543.17 280.27 543.18 280.32 543.21 280.43 543.22 280.48 543.21 280.59 543.18 280.7 543.14 280.79 542.97 281.06 542.93 281.11 542.85 281.17 542.78 281.2 542.61 281.24 542.57 281.25 542.54 281.28 542.51 281.31 542.48 281.42 542.46 281.44 542.43 281.43 542.39 281.42 542.3 281.4 542.22 281.42 542.14 281.46 541.99 281.57 541.97 281.6 541.95 281.65 541.95 281.7 541.97 281.82 541.97 281.86 541.76 281.78 541.69 281.76 541.66 281.77 541.62 281.77 541.56 281.79 541.35 281.92 541.26 281.94 540.99 281.96 540.94 281.97 540.9 281.99 540.87 282.02 540.82 282.09 540.78 282.12 540.6 282.21 540.41 282.25 539.93 282.24 539.88 282.25 539.85 282.28 539.84 282.33 539.85 282.36 539.87 282.4 539.88 282.45 539.9 282.48 540.01 282.58 540.04 282.63 540.06 282.64 540.11 282.66 540.13 282.67 540.12 282.69 540.11 282.72 540.05 282.76 539.88 282.82 539.82 282.88 539.82 282.92 539.82 283.05 539.83 283.09 539.87 283.12 539.87 283.15 539.85 283.23 539.84 283.33 539.83 283.38 539.8 283.42 539.75 283.43 539.66 283.43 539.62 283.45 539.47 283.52 539.27 283.68 539.26 283.68 539.12 283.75 539.06 283.81 539.03 283.85 539 283.87 538.97 283.89 538.81 283.96 538.77 283.97 538.75 283.97 538.69 283.94 538.66 283.94 538.64 283.95 538.62 283.95 538.6 283.94 538.45 283.8 538.39 283.81 538.32 283.87 538.1 284.17 538.07 284.19 538.04 284.16 538 284.06 537.99 284.02 537.99 283.91 537.99 283.86 537.98 283.81 537.95 283.77 537.92 283.74 537.8 283.68 537.74 283.64 537.51 283.42 537.45 283.38 537.38 283.35 537.25 283.34 536.99 283.44 536.86 283.45 536.56 283.4 536.41 283.34 536.31 283.23 536.16 283.1 536.15 283.09 536.13 283.08 536.11 283.08 536.09 283.07 536.07 283.05 536.06 283.03 536.06 283.02 536.07 282.99 536.07 282.98 536.03 282.95 536.03 282.95 536.02 282.95 536 282.92 536.01 282.89 536.02 282.89 536 282.87 535.98 282.86 535.96 282.86 535.84 282.88 535.81 282.89 535.76 282.81 535.73 282.75 535.72 282.68 535.73 282.66 535.76 282.63 535.77 282.61 535.77 282.56 535.77 282.55 535.78 282.48 535.78 282.46 535.77 282.44 535.78 282.37 535.78 282.33 535.78 282.29 535.77 282.19 535.75 282.14 535.73 282.1 535.71 282.06 535.67 282.02 535.63 281.98 535.59 281.96 535.53 281.95 535.5 281.94 535.53 281.9 535.58 281.87 535.6 281.84 535.6 281.81 535.6 281.76 535.6 281.72 535.62 281.71 535.64 281.7 535.66 281.69 535.66 281.66 535.67 281.63 535.67 281.61 535.68 281.58 535.69 281.56 535.71 281.53 535.71 281.52 535.71 281.5 535.71 281.42 535.67 281.25 535.64 281.2 535.63 281.17 535.63 281.11 535.63 281.08 535.62 281.05 535.61 281.03 535.6 281.02 535.58 281 535.56 280.99 535.56 280.98 535.57 280.97 535.57 280.96 535.54 280.88 535.55 280.74 535.6 280.52 535.59 280.48 535.59 280.45 535.6 280.42 535.61 280.4 535.62 280.37 535.63 280.34 535.63 280.31 535.63 280.27 535.62 280.25 535.6 280.21 535.58 280.11 535.49 280.1 535.38 280.08 535.16 280.09 534.89 280.09 534.42 280.1 534.11 280.1 533.76 280.11 533.69 280.07 533.64 279.99 533.58 279.82 533.53 279.75 533.29 279.46 533.19 279.3 533.11 279.13 533.04 279.04 532.96 279 532.78 278.97 532.7 278.92 532.55 278.8 532.23 278.7 532.21 278.7 532.19 278.71 532.16 278.75 532.15 278.76 532.12 278.77 532.09 278.74 532.08 278.7 532.07 278.65 532.05 278.6 532.02 278.56 531.98 278.56 531.91 278.59 531.89 278.58 531.88 278.58 531.86 278.56 531.84 278.55 531.81 278.54 531.8 278.52 531.81 278.49 531.81 278.48 531.81 278.47 531.82 278.46 531.82 278.44 531.81 278.43 531.77 278.38 531.63 278.26 531.6 278.23 531.56 278.03 531.56 277.98 531.56 277.95 531.58 277.92 531.59 277.89 531.58 277.87 531.57 277.84 531.57 277.78 531.56 277.74 531.52 277.68 531.48 277.64 531.42 277.63 531.3 277.68 531.25 277.68 530.96 277.47 530.88 277.39 530.86 277.38 530.8 277.37 530.77 277.36 530.73 277.34 530.65 277.3 530.48 277.26 530.34 277.18 530.33 277.2 530.32 277.24 530.3 277.28 530.27 277.29 530.25 277.29 530.2 277.28 530.18 277.28 530.16 277.29 530.15 277.31 530.13 277.32 530.08 277.33 530.03 277.32 529.93 277.28 529.82 277.18 529.78 277.16 529.74 277.17 529.71 277.19 529.68 277.23 529.66 277.28 529.63 277.32 529.59 277.34 529.39 277.36 529.36 277.35 529.3 277.31 529.27 277.3 529.1 277.27 529.06 277.26 529.03 277.23 529.01 277.2 529.01 277.16 529.01 277.11 529 277.09 528.97 277.02 528.96 277 528.97 276.98 528.97 276.96 528.95 276.94 528.91 276.92 528.88 276.91 528.8 276.91 528.66 276.87 528.31 276.71 528.23 276.69 528.2 276.69 528.16 276.7 528.12 276.7 528.09 276.69 528.08 276.67 528.06 276.63 528.04 276.61 528.02 276.61 527.99 276.61 527.98 276.61 527.97 276.61 527.94 276.6 527.91 276.57 527.88 276.55 527.85 276.55 527.82 276.56 527.71 276.56 527.59 276.53 527.56 276.53 527.52 276.53 527.49 276.54 527.45 276.55 527.13 276.42 527.08 276.35 527.12 276.2 527.12 276.15 527.11 276.1 527.07 276.04 527.04 275.95 526.97 275.87 526.94 275.83 526.9 275.74 526.85 275.65 526.84 275.63 526.84 275.6 526.83 275.59 526.81 275.57 526.76 275.55 526.74 275.55 526.71 275.55 526.67 275.57 526.66 275.59 526.65 275.6 526.6 275.68 526.58 275.71 526.51 275.75 526.48 275.78 526.44 275.8 526.39 275.8 526.3 275.76 525.97 275.7 525.93 275.69 525.86 275.64 525.77 275.57 525.75 275.57 525.64 275.59 525.47 275.67 525.43 275.67 525.4 275.66 525.37 275.64 525.34 275.62 525.3 275.61 525.1 275.61 525.02 275.64 524.95 275.7 524.81 275.83 524.79 275.86 524.85 275.93 524.86 275.98 524.85 276.03 524.83 276.08 524.8 276.1 524.61 276.14 524.57 276.13 524.5 276.1 524.49 276.1 524.4 276.09 524.09 276.14 524.05 276.14 524.02 276.13 523.96 276.1 523.92 276.09 523.81 276.09 523.78 276.08 523.69 276.03 523.55 276 523.49 276 523.05 276.09 522.91 276.1 522.85 276.12 522.69 276.24 522.64 276.27 522.6 276.3 522.57 276.31 522.47 276.34 522.42 276.37 522.4 276.41 522.38 276.42 522.25 276.45 522.21 276.46 522.19 276.48 522.16 276.54 522.15 276.56 522.12 276.57 522.09 276.57 522.06 276.59 522.05 276.62 522.04 276.65 521.93 276.77 521.6 277 521.53 277.07 521.5 277.12 521.49 277.16 521.48 277.22 521.45 277.3 521.45 277.36 521.46 277.38 521.48 277.4 521.49 277.42 521.49 277.44 521.49 277.5 521.48 277.54 521.45 277.61 521.45 277.66 521.44 277.68 521.38 277.72 521.28 277.79 521.25 277.82 521.2 277.84 521.15 277.89 521.12 277.91 521.07 277.91 520.93 277.88 520.88 277.89 520.51 278.11 520.43 278.13 520.38 278.13 520.33 278.13 520.28 278.13 520.24 278.16 520.2 278.19 520.16 278.21 520.11 278.21 519.51 278.16 519.51 278.16 519.51 278.16 519.48 277.81 519.46 277.7 519.41 277.59 519.4 277.54 519.39 277.41 519.31 277.04 519.27 276.24 519.28 276.19 519.31 276.1 519.33 275.96 519.39 275.75 519.38 275.67 519.4 275.59 519.41 275.47 519.4 275.26 519.39 275.24 519.37 275.2 519.36 275.17 519.36 275.14 519.35 275.09 519.32 274.91 519.32 274.85 519.34 274.63 519.36 274.51 519.4 274.42 519.5 274.25 519.54 274.15 519.52 274.07 519.55 274.04 519.57 273.99 519.58 273.93 519.6 273.89 519.62 273.85 519.65 273.79 519.66 273.75 519.64 273.76 519.64 273.7 519.61 273.67 519.53 273.64 519.53 273.63 519.52 273.61 519.52 273.6 519.51 273.6 519.48 273.59 519.47 273.58 519.46 273.57 519.45 273.54 519.44 273.52 519.44 273.48 519.41 273.43 519.39 273.41 519.3 273.41 519.25 273.39 519.23 273.39 519.21 273.4 519.19 273.42 519.18 273.42 519.16 273.4 519.14 273.36 519.1 273.22 519.08 273.19 519.06 273.21 519.07 273.26 519.09 273.31 519.11 273.33 519.11 273.35 519.07 273.33 519.04 273.29 519.02 273.23 519.05 273.16 519.03 273.11 519.03 273.08 519.04 273.06 519.11 273.02 519.04 273.01 519.04 272.95 519.09 272.82 519.04 272.85 518.98 272.9 518.95 272.94 518.98 272.96 519 273.27 518.97 273.23 518.92 273.16 518.89 273.12 518.88 273.06 518.88 273.01 518.87 272.97 518.82 272.96 518.83 272.92 518.84 272.88 518.83 272.84 518.81 272.82 518.8 272.84 518.76 272.93 518.74 272.96 518.73 272.89 518.74 272.81 518.79 272.65 518.73 272.71 518.76 272.61 518.77 272.57 518.76 272.58 518.71 272.59 518.74 272.53 518.73 272.5 518.7 272.52 518.67 272.57 518.65 272.55 518.62 272.56 518.53 272.57 518.49 272.6 518.47 272.6 518.47 272.55 518.45 272.55 518.44 272.58 518.41 272.6 518.38 272.62 518.35 272.63 518.36 272.61 518.38 272.55 518.36 272.55 518.33 272.55 518.32 272.55 518.31 272.55 518.29 272.57 518.28 272.57 518.28 272.56 518.26 272.54 518.25 272.53 518.23 272.54 518.17 272.57 518.13 272.57 518.13 272.55 518.15 272.53 518.14 272.52 518.12 272.51 518.1 272.51 518.07 272.51 518.04 272.48 518.01 272.47 517.97 272.47 517.86 272.51 517.82 272.53 517.9 272.58 517.92 272.59 517.88 272.65 517.87 272.69 517.86 272.74 517.86 272.78 517.89 272.9 517.89 272.97 517.86 273.01 517.84 273 517.79 272.6 517.77 272.56 517.68 272.42 517.67 272.37 517.69 272.31 517.71 272.29 517.78 272.23 517.79 272.2 517.8 272.16 517.81 272.13 517.85 272.09 517.88 272.04 517.96 271.82 518.02 271.7 518.09 271.61 518.18 271.63 518.13 271.66 518.1 271.69 518.03 271.78 518.03 271.8 518 271.88 518 271.89 517.95 271.94 517.96 272.01 518.05 272.02 518.29 271.98 518.43 271.98 518.47 272 518.5 272.03 518.52 272.08 518.54 272.12 518.57 272.14 518.61 272.15 518.7 272.16 518.74 272.18 518.76 272.18 518.77 272.15 518.77 272.12 518.76 272.1 518.75 272.09 518.73 272.08 518.76 272.01 518.78 272.02 518.81 272.06 518.85 272.1 518.89 272.1 518.95 272.04 519 272.02 519.02 272.03 519.07 272.06 519.09 272.06 519.12 272.03 519.11 272.01 519.08 271.98 519.06 271.96 519.01 271.94 518.92 271.92 518.88 271.88 518.91 271.87 518.93 271.85 518.94 271.82 518.92 271.78 518.89 271.75 518.86 271.74 518.75 271.75 518.74 271.73 518.74 271.68 518.73 271.65 518.72 271.61 518.69 271.58 518.67 271.57 518.68 271.67 518.68 271.71 518.67 271.71 518.59 271.58 518.53 271.52 518.47 271.51 518.48 271.53 518.5 271.59 518.48 271.58 518.45 271.56 518.44 271.55 518.44 271.6 518.48 271.66 518.48 271.71 518.41 271.66 518.4 271.55 518.44 271.33 518.41 271.35 518.38 271.35 518.36 271.35 518.33 271.33 518.33 271.31 518.4 271.28 518.52 271.11 518.59 271.04 518.58 271.02 518.57 270.99 518.56 270.98 518.58 270.97 518.6 270.96 518.64 270.96 518.67 270.95 518.67 270.93 518.66 270.91 518.65 270.9 518.67 270.87 518.71 270.83 518.74 270.8 518.76 270.74 518.74 270.75 518.74 270.75 518.73 270.75 518.73 270.76 518.69 270.72 518.66 270.72 518.57 270.72 518.54 270.71 518.49 270.66 518.45 270.64 518.41 270.63 518.37 270.63 518.34 270.64 518.3 270.66 518.21 270.77 518.17 270.78 518.16 270.79 518.13 270.82 518.11 270.82 518.09 270.82 518.05 270.79 518.03 270.78 518.01 270.77 517.87 270.66 517.83 270.67 517.79 270.7 517.76 270.72 517.6 270.74 517.61 270.72 517.63 270.7 517.64 270.68 517.66 270.66 517.51 270.71 517.43 270.72 517.36 270.7 517.32 270.62 517.29 270.59 517.25 270.62 517.25 270.65 517.27 270.69 517.31 270.75 517.31 270.79 517.33 270.95 517.34 270.97 517.4 271.06 517.43 271.08 517.51 271.23 517.58 271.3 517.6 271.31 517.6 271.33 517.5 271.27 517.53 271.3 517.59 271.37 517.57 271.39 517.5 271.32 517.47 271.28 517.41 271.13 517.38 271.09 517.3 271.06 517.27 271.01 517.26 270.95 517.25 270.84 517.23 270.81 517.01 270.64 516.94 270.56 516.9 270.5 516.92 270.37 516.94 270.3 516.96 270.26 516.97 270.21 516.95 270.15 516.89 270.07 516.91 270.05 516.9 270.02 516.86 269.97 516.82 269.86 516.82 269.75 516.9 269.25 516.93 269.15 516.98 269.06 517.11 268.87 517.18 268.74 517.19 268.64 517.17 268.62 517.11 268.61 517.1 268.59 517.11 268.56 517.12 268.51 517.12 268.5 517.11 268.49 517.14 268.47 517.18 268.46 517.19 268.46 517.2 268.43 517.19 268.4 517.18 268.37 517.18 268.36 517.23 268.14 517.31 267.92 517.33 267.82 517.3 267.62 517.3 267.5 517.32 267.52 517.38 267.55 517.4 267.57 517.41 267.6 517.4 267.64 517.39 267.67 517.39 267.7 517.41 267.76 517.51 267.88 517.53 267.93 517.55 268.04 517.57 268.08 517.64 268.13 517.65 268.14 517.7 268.14 517.73 268.14 517.75 268.12 517.72 268.16 517.66 268.18 517.63 268.2 517.64 268.25 517.66 268.27 517.69 268.3 517.71 268.32 517.71 268.35 517.71 268.38 517.72 268.41 517.75 268.42 517.85 268.43 517.89 268.42 517.94 268.4 518.04 268.29 518.07 268.28 518.04 268.36 518.03 268.4 518.05 268.42 518.22 268.4 518.24 268.39 518.24 268.35 518.24 268.32 518.25 268.29 518.28 268.24 518.3 268.23 518.33 268.24 518.33 268.26 518.32 268.31 518.32 268.34 518.33 268.39 518.37 268.44 518.41 268.47 518.46 268.48 518.47 268.49 518.51 268.52 518.53 268.52 518.55 268.51 518.57 268.5 518.6 268.48 518.68 268.44 518.71 268.41 518.73 268.35 518.72 268.22 518.73 268.18 518.79 268.06 518.8 268.06 518.83 268.06 518.85 268.06 518.87 268.08 518.89 268.09 518.89 268.11 518.9 268.12 518.93 268.13 518.94 268.14 518.94 268.16 518.93 268.18 518.93 268.19 518.92 268.2 518.94 268.26 518.95 268.28 518.97 268.3 518.95 268.34 518.94 268.36 518.92 268.38 518.95 268.43 518.98 268.55 519.02 268.6 519.04 268.61 519.06 268.62 519.08 268.63 519.09 268.66 519.08 268.68 519.05 268.74 519.05 268.77 519.08 268.84 519.17 268.84 519.27 268.82 519.4 268.84 519.43 268.8 519.47 268.76 519.56 268.71 519.58 268.7 519.61 268.7 519.67 268.74 519.72 268.75 519.77 268.73 519.81 268.71 519.88 268.69 519.9 268.67 519.91 268.65 519.91 268.63 519.9 268.63 519.84 268.6 519.82 268.58 519.95 268.58 520.01 268.57 520.08 268.54 520.21 268.54 520.22 268.55 520.21 268.57 520.19 268.64 520.18 268.65 520.19 268.66 520.26 268.69 520.59 268.7 520.55 268.67 520.5 268.66 520.53 268.62 520.62 268.6 520.65 268.56 520.43 268.56 520.41 268.56 520.39 268.53 520.38 268.47 520.37 268.42 520.33 268.34 520.32 268.26 520.3 268.21 520.29 268.19 520.29 268.17 520.3 268.16 520.31 268.14 520.31 268.12 520.29 268.12 520.27 268.12 520.25 268.11 520.25 268.08 520.25 268.07 520.27 268.06 520.29 268.06 520.31 268.06 520.36 267.99 520.39 267.97 520.44 267.96 520.5 267.99 520.63 268.1 520.67 268.1 520.73 268.14 520.74 268.18 520.71 268.23 520.67 268.28 520.75 268.3 521.01 268.25 521.08 268.23 521.12 268.22 521.16 268.15 521.25 268.1 521.27 268.08 521.35 267.94 521.38 267.9 521.38 267.85 521.38 267.8 521.36 267.76 521.3 267.69 521.23 267.57 521.2 267.56 521.2 267.54 521.25 267.55 521.31 267.57 521.4 267.64 521.39 267.61 521.34 267.58 521.32 267.56 521.3 267.53 521.3 267.51 521.29 267.5 521.3 267.48 521.31 267.46 521.32 267.45 521.32 267.46 521.29 267.41 521.23 267.39 521.16 267.38 521.11 267.36 521.11 267.27 521.03 267.18 520.59 266.84 520.39 266.76 520.35 266.73 520.27 266.64 520.17 266.59 520.12 266.55 520.11 266.54 520.09 266.49 520.04 266.41 520.02 266.4 519.94 266.38 519.9 266.35 519.86 266.31 519.84 266.27 519.79 266.18 519.77 266.07 519.76 265.96 519.76 265.7 519.74 265.6 519.72 265.5 519.68 265.4 519.58 265.22 519.56 265.17 519.55 265.14 519.53 265.13 519.5 265.13 519.48 265.12 519.48 265.08 519.48 265.05 519.49 265.03 519.5 265 519.5 264.98 519.49 264.92 519.48 264.88 519.51 264.81 519.52 264.78 519.51 264.73 519.51 264.67 519.49 264.61 519.47 264.57 519.4 264.5 519.3 264.43 519.19 264.4 519.09 264.43 518.99 264.37 518.32 264.49 518.19 264.56 518.14 264.57 517.97 264.56 517.85 264.49 517.75 264.53 517.67 264.61 517.62 264.67 517.4 264.85 517.34 264.93 517.09 265.5 517.05 265.56 517.02 265.58 517 265.61 516.98 265.69 516.97 265.76 516.98 265.81 517.01 265.8 517.07 265.71 517.11 265.68 517.22 265.7 517.27 265.72 517.3 265.77 517.3 265.81 517.26 265.87 517.25 265.9 517.26 265.93 517.27 265.99 517.27 266.02 517.26 266.08 517.11 266.46 517.1 266.52 517.07 266.61 517.07 266.63 517.07 266.66 517.1 266.74 517.12 266.86 517.14 267.04 517.15 267.09 517.27 267.34 517.28 267.39 517.27 267.45 517.22 267.54 517.22 267.6 517.21 267.6 517.2 267.57 517.16 267.54 517.15 267.52 517.14 267.49 517.16 267.4 517.16 267.33 517.15 267.27 517.14 267.21 517.12 267.16 517.1 267.14 517.08 267.11 517.07 267.1 517.06 267.06 517.07 267.01 517.07 266.98 517.02 266.81 517.02 266.78 516.99 266.75 516.95 266.64 516.92 266.61 516.89 266.61 516.87 266.59 516.86 266.56 516.86 266.52 516.85 266.5 516.84 266.48 516.8 266.44 516.78 266.43 516.72 266.42 516.7 266.4 516.62 266.3 516.58 266.27 516.54 266.25 516.51 266.22 516.51 266.15 516.52 266.14 516.56 266.06 516.57 266.04 516.57 266 516.57 265.94 516.57 265.92 516.59 265.89 516.59 265.87 516.58 265.85 516.57 265.84 516.56 265.83 516.55 265.83 516.54 265.77 516.52 265.74 516.51 265.73 516.49 265.72 516.46 265.72 516.44 265.72 516.42 265.68 516.41 265.67 516.37 265.65 516.34 265.61 516.32 265.6 516.26 265.59 516.24 265.54 516.24 265.54 516.33 265.45 516.67 265.11 516.96 264.82 516.96 264.82 516.96 264.82 517.44 264.42 517.78 264.3 517.91 264.23 518.4 264.03 518.54 264 518.93 263.93 519.27 263.87 519.8 263.77 519.97 263.79 520.13 263.85 520.48 264.08 520.85 264.33 521.07 264.48 521.34 264.66 521.71 265 521.76 265.07 521.79 265.13 521.78 265.18 521.78 265.23 521.77 265.29 521.78 265.35 521.81 265.41 522.04 265.72 522.14 265.85 522.28 266.11 522.42 266.36 522.49 266.44 522.57 266.51 522.71 266.61 522.74 266.65 522.77 266.7 522.83 266.84 522.87 266.9 522.91 266.93 522.98 266.97 523.05 266.99 523.33 266.97 523.46 266.92 523.66 266.89 523.86 266.8 523.93 266.79 524.09 266.8 524.45 266.82 524.86 266.85 525.32 266.87 525.4 266.88 525.89 266.9 526.1 266.95 526.37 267 526.42 266.98 526.48 266.85 526.53 266.8 526.63 266.75 526.68 266.72 526.7 266.69 526.71 266.67 526.69 266.66 526.58 266.63 526.55 266.61 526.51 266.59 526.47 266.53 526.42 266.46 526.39 266.38 526.38 266.3 526.39 266.19 526.38 266.11 526.35 266.03 526.3 265.95 526.26 265.85 526.26 265.75 526.28 265.66 526.29 265.55 526.24 265.31 526.24 265.2 526.3 265.11 526.51 265.01 526.61 264.94 526.69 264.82 526.69 264.82 526.81 264.59 526.99 264.42 527.2 264.31 527.41 264.3 527.72 264.36 527.83 264.34 527.95 264.28 527.99 264.27 528.14 264.28 528.19 264.27 528.24 264.23 528.23 264.2 528.2 264.17 528.18 264.12 528.2 264.08 528.29 264.06 528.32 264.02 528.41 263.81 528.43 263.75 528.42 263.7 528.38 263.6 528.36 263.52 528.4 263.49 528.46 263.46 528.52 263.39 528.54 263.36 528.56 263.33 528.6 263.31 528.65 263.3 528.7 263.3 528.74 263.32 528.78 263.35 528.83 263.42 528.86 263.45 528.9 263.44 528.98 263.41 529.02 263.4 529.07 263.41 529.29 263.51 529.36 263.57 529.42 263.64 529.44 263.75 529.43 263.81 529.42 263.86 529.42 263.9 529.45 263.94 529.48 263.95 529.63 263.93 529.65 263.91 529.66 263.89 529.65 263.86 529.63 263.84 529.54 263.73 529.37 263.47 529.31 263.33 529.25 263.22 529.17 263.16 528.89 263.03 528.85 262.99 528.84 262.94 528.86 262.89 528.9 262.86 528.98 262.83 529.1 262.75 529.14 262.74 529.19 262.74 529.43 262.84 529.55 262.87 529.66 262.87 529.75 262.85 529.8 262.76 529.83 262.5 529.87 262.44 529.92 262.47 530.4 263.03 530.55 263.17 530.71 263.24 530.8 263.25 530.87 263.25 530.93 263.23 531 263.2 531.05 263.2 531.11 263.23 531.25 263.38 531.28 263.43 531.3 263.48 531.33 263.71 531.36 263.76 531.42 263.8 531.53 263.81 531.58 263.83 531.67 263.93 531.73 263.95 531.84 263.95 532.31 263.88 532.5 263.9 532.6 263.88 532.7 263.89 532.77 263.97 532.84 264.07 532.91 264.14 533.01 264.18 533.06 264.21 533.09 264.25 533.08 264.3 533.05 264.32 533 264.34 532.96 264.37 532.94 264.51 532.99 264.65 532.99 264.77 532.86 264.82 532.86 264.82 532.86 264.82 532.86 264.82 532.82 264.83 532.8 264.86 532.79 264.9 532.82 264.94 532.85 264.96 532.96 264.95 533.2 265.04 533.26 265.1 533.31 265.17 533.34 265.21 533.37 265.25 533.48 265.31 533.51 265.34 533.53 265.37 533.56 265.41 533.56 265.45 533.53 265.49 533.5 265.5 533.46 265.48 533.38 265.43 533.3 265.4 533.23 265.41 533.17 265.45 533.11 265.53 533.13 265.63 533.2 265.77 533.35 265.97 533.37 266.03 533.33 266.07 533.24 266.11 533.21 266.15 533.18 266.19 533.16 266.24 533.13 266.47 533.15 266.54 533.21 266.6 533.45 266.73 533.66 266.84 533.8 266.94 533.92 267.06 533.98 267.1 534.06 267.13 534.19 267.12 534.46 267.03 534.91 267.01 535.06 267.04 535.17 267.15 535.18 267.14 535.2 267.13 535.23 267.08 535.24 267.05 535.25 267.06 535.25 267.09 535.27 267.11 535.4 267.09 535.44 267.09 535.67 267.25 535.76 267.29 535.84 267.29 535.92 267.25 535.98 267.18 536.02 267.09 536.08 267.06 536.1 266.95 536.13 266.89 536.18 266.87 536.26 266.88 536.47 266.93 536.67 267.02 537.16 267.38 537.21 267.43 537.37 267.7 537.39 267.75 537.4 267.81 537.4 268.02 537.41 268.06 537.4 268.08 537.42 268.14 537.49 268.38 537.51 268.52 537.53 268.58 537.56 268.62 537.63 268.7 537.66 268.74 537.7 268.92 537.73 268.98 537.81 269.09 537.83 269.12 537.84 269.18 537.85 269.19 537.86 269.21 537.91 269.24 538.01 269.27 538.2 269.38 538.22 269.41 538.22 269.53 538.24 269.58 538.29 269.7 538.31 269.75 538.32 269.81 538.32 269.88 538.33 269.94 538.4 270.09 538.41 270.15 538.4 270.2 538.38 270.26 538.37 270.32 538.37 270.38 538.41 270.55 538.44 270.62 538.6 270.82 538.62 270.84 538.75 270.97 539.01 271.15 539.31 271.37 539.67 271.62 540.4 272.14 540.71 272.36 540.85 272.5 541.09 272.83 541.22 272.97 541.47 273.14 541.78 273.36 542.13 273.62 542.2 273.65 542.27 273.67 542.32 273.65 542.49 273.57 542.56 273.56 542.61 273.59 542.68 273.68 542.81 273.84 543.27 274.24 543.56 274.4 543.89 274.51 544.03 274.61 544.33 274.88 544.54 275.07 544.84 275.27 545.06 275.42 545.42 275.66 545.57 275.71 545.72 275.7 545.78 275.67 545.89 275.58 545.95 275.56 546.03 275.56 546.25 275.67 546.4 275.7 546.46 275.73 546.6 275.84 546.74 275.88 546.81 275.91 546.88 275.97 546.98 276.1 547.21 276.21 547.27 276.23 547.44 276.23 547.53 276.25 547.61 276.29 547.68 276.35 547.68 276.35 547.68 276.35 547.71 276.42 547.73 276.48 547.65 276.64 547.53 276.8 547.45 276.94 547.44 277.05 547.46 277.27 547.45 277.38 547.4 277.56 547.39 277.66 547.42 277.74 547.47 277.78 547.5 277.82 547.51 277.86 547.48 277.92 547.44 277.96 547.4 278.01 547.4 278.06 547.45 278.1 Z" fill-rule="evenodd" id="Turkmenistan" transform="translate(-516.239990234375,-262.44000244140625) "/></svg>