<svg xmlns="http://www.w3.org/2000/svg" viewBox="0 0 798 1136"><path d="M 646.88 1068.28 647.39 1070.32 646.93 1074.14 643.56 1076.29 636.68 1074.45 622.3 1080.11 618.01 1078.27 615.11 1080.41 614.19 1085.16 605.62 1086.07 604.4 1088.06 595.98 1086.07 586.95 1091.12 584.51 1086.84 579 1087.76 563.7 1098.77 560.18 1094.03 549.63 1090.2 549.46 1089.74 537.69 1089.44 531.73 1093.26 531.73 1098.77 527.44 1103.81 530.96 1115.28 525.3 1105.5 523.62 1096.63 519.49 1095.71 524.53 1105.95 521.17 1109.78 513.83 1096.17 509.69 1097.39 514.28 1103.81 513.06 1107.64 508.01 1104.27 505.87 1097.85 498.99 1100.45 498.99 1106.41 496.84 1107.64 484.6 1087.3 481.54 1091.58 490.88 1099.23 493.94 1106.87 492.71 1113.14 478.64 1104.73 470.99 1103.05 468.08 1105.5 463.34 1101.21 454.01 1102.59 448.5 1106.87 435.34 1104.73 419.12 1113.14 407.65 1113.6 405.17 1115.96 405.51 1116.97 399.24 1116.51 380.42 1127.67 378.73 1127.21 377.97 1117.88 372.46 1115.28 356.7 1115.74 347.37 1118.65 333.76 1116.51 331.15 1119.11 326.87 1117.88 319.68 1120.79 311.11 1117.42 289.08 1131.49 285.26 1137 280.97 1128.44 281.43 1124.31 296.73 1109.32 308.66 1091.88 311.57 1077.05 307.29 1073.69 310.81 1072.46 310.68 1068.53 310.35 1068.64 294.59 1026.89 295.05 1022.3 298.87 1019.24 302.7 1002.72 309.89 997.22 313.71 997.22 314.17 992.17 319.22 988.65 326.56 986.97 336.2 988.35 341.4 992.94 345.54 992.48 353.64 996.76 374.91 997.68 378.28 1001.04 388.07 1000.12 392.35 996.76 403.37 994.16 422.18 984.83 426.77 975.5 431.82 973.82 444.21 975.2 451.86 973.05 453.09 970 469.3 966.17 485.83 972.6 498.53 971.68 504.19 974.74 502.04 977.18 501.62 986.58 504.19 981.92 508.78 981.01 512.14 983.15 512.14 973.36 509.69 972.14 516.89 967.4 519.49 967.4 527.9 981.01 533.87 981.47 536.77 992.48 541.98 995.99 542.74 999.82 556.05 1004.86 556.36 1008.69 561.1 1010.37 564.47 1015.11 572.11 1015.88 573.03 1020.16 577.62 1023.52 585.27 1021.84 592.16 1025.66 594.6 1025.2 595.62 1021.78 595.06 1020.92 600.57 1017.25 601.49 1011.29 615.11 1012.51 620.92 1004.41 624.44 1002.72 632.39 1006.09 634.53 1001.04 654.58 1005.32 657.18 1003.18 655.8 1000.12 659.32 998.44 685.63 1005.63 688.54 1003.95 696.19 1005.63 698.79 1002.72 703.84 1005.32 714.09 1005.63 719.14 1002.26 724.65 1003.64 727.25 1001.81 730.61 1009.91 737.5 1012.51 745.15 1012.05 746.37 1008.69 756.16 1009.91 759.07 1007.01 767.18 1006.55 771 1001.5 775.75 1005.32 785.38 1003.64 788.9 1007.46 796.86 1007.77 799 1010.37 795.18 1016.79 788.9 1017.56 780.34 1026.89 777.73 1023.06 768.1 1027.8 762.89 1023.98 752.8 1023.98 747.6 1027.35 741.32 1026.58 732.3 1038.36 730.61 1046.46 726.02 1042.64 719.6 1042.64 714.09 1048.15 709.04 1049.52 705.98 1047.69 703.38 1051.66 700.93 1050.75 693.28 1055.03 691.6 1059.62 686.09 1062.98 668.65 1059.62 651.67 1065.12 647.85 1070.32 646.88 1068.28 Z M 642.64 996.76 641.88 995.08 646.47 990.79 644.79 995.54 642.64 996.76 Z M 710.27 957.76 725.11 960.21 727.71 962.81 711.49 967.85 703.07 963.27 706.44 957.3 710.27 957.76 Z M 495.62 1116.97 500.36 1118.65 502.04 1122.17 497.3 1122.47 493.94 1119.11 495.62 1116.97 Z M 587.57 161.89 589.1 162.04 592.92 172.29 588.64 181.16 586.95 180.24 587.41 172.59 581.45 170.15 583.59 164.64 573.8 169.23 573.34 164.18 568.75 166.32 565.38 160.36 562.78 165.86 558.5 165.86 559.72 162.5 557.73 159.44 561.1 156.53 559.42 153.02 561.56 151.33 558.5 148.43 555.13 149.19 555.59 153.93 552.99 154.85 552.99 147.21 549.17 147.97 550.08 152.25 544.58 150.57 542.74 156.99 530.5 151.03 520.25 140.78 517.8 140.78 507.09 153.48 496.54 152.25 498.22 148.89 496.54 145.06 491.79 143.38 492.71 161.12 488.43 159.9 490.88 153.93 487.51 147.97 484.6 149.19 482.46 146.75 478.64 147.21 477.72 152.71 469.76 153.48 468.39 156.53 470.99 159.44 469.3 162.04 462.42 156.99 464.1 151.33 459.05 156.08 453.09 157.3 451.4 151.79 458.6 147.21 459.05 143.69 456.61 142.46 448.5 148.43 444.67 137.72 439.17 137.42 442.07 135.28 440.85 130.99 447.12 127.63 449.9 127.06 442.53 126.71 440.85 122.89 458.6 114.02 458.6 110.65 455.69 109.74 459.51 104.23 456.61 101.33 457.83 97.04 463.8 95.67 463.8 105.15 470.99 107.14 474.35 105.15 471.45 99.18 474.35 94.44 476.5 97.5 479.86 95.67 480.32 98.73 484.6 98.73 487.05 97.81 486.75 92.76 489.19 93.98 490.88 91.84 500.67 97.81 505.41 97.04 515.2 88.94 521.63 92.76 524.99 88.17 521.93 85.57 524.99 77.01 520.71 74.56 513.52 74.87 512.14 68.14 514.74 66.46 524.53 66 540.29 69.82 542.43 74.87 539.83 77.01 533.41 76.7 533.41 78.69 542.74 81.75 552.99 79.15 557.73 82.21 561.1 74.1 565.38 77.01 575.17 75.33 580.99 78.69 584.51 84.2 603.17 82.97 612.05 87.71 617.25 96.58 623.06 98.27 623.06 102.09 626.89 104.23 622.75 107.6 618.47 109.74 617.55 106.37 613.42 106.37 604.4 118.61 605.31 112.8 601.49 110.2 606.08 105.45 601.95 105.15 602.25 102.09 606.54 100.87 601.95 98.73 604.85 92.3 595.52 96.13 594.15 100.41 591.7 93.98 587.41 95.36 585.73 106.37 589.1 107.6 589.1 113.1 582.37 117.38 578.54 114.94 577.62 110.65 581.75 103.31 581.5 102.87 577.62 109.28 572.57 106.83 569.21 110.65 573.03 115.24 573.03 121.21 575.48 124.57 580.68 124.57 585.73 132.22 592.92 130.99 592.16 141.55 596.75 144.15 596.75 146.75 588.64 151.03 593.38 159.44 590.01 158.98 587.57 161.89 Z M 451.4 94.9 453.55 98.27 451.86 99.95 447.12 97.5 448.96 94.44 451.4 94.9 Z M 505.41 68.9 508.32 69.82 507.55 73.18 499.44 71.96 505.41 68.9 Z M 609.14 151.33 612.96 153.02 613.73 154.85 610.36 156.08 609.44 153.48 606.08 153.48 609.14 151.33 Z M 670.33 135.28 669.88 139.86 666.82 141.24 665.59 137.72 668.96 133.9 670.33 135.28 Z M 626.89 104.23 629.95 105.15 632.85 100.41 636.68 103.77 640.2 103.47 639.28 109.74 646.47 110.65 645.7 108.51 646.47 108.05 652.43 110.65 653.66 118.3 648.61 117.84 650.75 127.17 643.56 121.21 641.42 131.45 633.31 133.14 629.95 128.85 625.2 130.54 629.49 124.57 632.09 114.94 629.95 111.42 624.9 112.34 621.84 110.2 626.89 104.23 Z M 133.49 163.72 136.55 170.91 129.67 173.05 128.44 170.15 131.35 163.26 133.49 163.72 Z M 252.58 130.27 245.79 133.14 245.79 130.23 250.38 127.17 247.01 124.57 246.55 118.3 243.64 116.92 240.58 119.07 236.76 116.62 228.34 119.52 223.6 126.25 217.33 126.25 215.19 123.81 210.44 125.03 207.08 130.23 203.25 130.99 200.19 137.42 193 136.96 190.56 142.01 185.81 136.04 188.41 131.45 187.5 123.81 181.22 124.27 181.22 129.77 176.02 134.36 171.74 124.57 158.27 125.03 157.36 120.75 165.77 119.98 171.2 111.18 168.83 112.34 162.1 108.51 161.79 104.84 161.18 108.51 154.76 108.05 151.85 101.63 140.83 99.49 131.35 108.51 122.47 109.28 117.43 114.02 109.78 108.51 108.4 111.88 101.67 110.65 96.16 116.16 90.19 114.48 88.05 109.28 80.86 107.14 68.93 97.81 69.85 92.76 72.75 96.58 79.18 97.81 83.46 91.08 81.63 85.57 89.73 85.57 91.42 81.75 94.94 83.43 97.38 81.75 98.76 83.89 122.02 81.75 124.62 77.93 122.93 73.18 132.27 76.7 134.41 81.29 141.6 84.66 141.6 78.69 145.42 76.7 146.8 67.22 154.76 68.9 162.41 66.46 169.29 67.68 168.22 71.81 168.43 72.71 171.74 66.46 184.13 73.18 188.72 67.68 191.78 71.96 195.15 67.68 196.83 71.5 205.85 72.42 207.08 65.54 204.48 59.27 222.38 71.04 224.98 79.61 244.87 88.17 250.38 83.43 252.52 77.47 251.29 74.56 231.71 60.95 222.38 51.62 224.98 50.7 247.01 62.63 254.2 70.28 264.45 75.33 282.35 77.47 290 80.83 291.68 85.11 293.82 80.53 302.24 83.43 303.16 91.08 299.33 102.55 302.24 94.44 306.52 91.54 316.77 93.22 316.77 97.81 321.36 97.04 320.9 99.49 330.39 98.73 336.2 102.55 343.55 102.09 344.31 104.69 335.9 107.14 346.45 108.97 347.37 114.48 350.28 114.48 355.02 119.52 362.21 116.62 361.75 123.81 371.08 130.99 369.86 135.74 364.81 137.42 368.94 142.46 386.84 136.5 391.43 139.86 390.21 142.46 379.65 140.78 373.23 142.92 375.83 147.97 381.34 148.89 381.79 152.25 385.16 154.39 379.19 155.16 377.05 151.03 372 151.03 369.86 155.62 373.69 158.68 369.86 161.12 366.8 156.99 358.39 154.39 355.33 149.19 342.17 151.79 340.49 154.39 337.12 153.93 334.52 149.65 329.47 156.53 330.39 164.64 336.66 167.09 344.77 166.32 344.77 169.23 334.98 169.69 332.84 165.86 331.61 169.23 334.06 172.29 324.88 173.05 319.22 175.65 316.31 166.63 307.29 164.95 301.47 157.76 295.51 160.66 290.76 159.44 289.08 163.72 283.57 162.8 282.66 160.36 277.15 162.5 276.38 156.53 270.88 156.08 258.48 147.97 251.75 148.89 250.38 143.38 252.52 139.1 247.47 133.14 249.76 132.52 252.58 130.27 Z M 361.29 282.25 362.98 284.85 359.61 284.85 357.47 281.33 361.29 282.25 Z M 398.32 155.62 397.09 158.68 405.05 157.76 404.28 162.04 401.22 161.12 396.18 165.86 398.32 169.69 385.16 171.83 385.16 169.23 388.07 169.23 392.35 162.8 388.98 155.62 400.46 152.25 398.32 155.62 Z M 408.11 85.57 415.76 85.57 415.76 89.85 399.54 86.8 389.75 89.4 388.98 91.84 385.16 90.16 378.28 91.54 388.98 86.34 408.11 85.57 Z M 417.44 183.76 420.04 186.2 415.3 185.75 415.3 187.89 411.93 186.2 411.93 182.38 417.44 183.76 Z M 402.91 174.73 408.11 183.3 404.28 183.76 400.92 180.24 397.86 182.84 394.03 181.92 394.95 175.65 400 175.96 401.68 172.59 402.91 174.73 Z M 441.15 79.15 442.53 81.29 437.48 85.11 428 85.11 425.09 88.48 419.58 83.89 433.96 81.29 436.11 78.38 441.15 79.15 Z M 440.39 73.18 433.2 76.7 426.31 75.78 438.25 72.42 440.39 73.18 Z M 334.06 81.29 336.66 84.2 345.99 86.34 355.02 85.11 358.39 81.75 363.89 84.2 366.8 90.62 360.07 94.9 358.39 91.54 340.95 90.62 336.2 87.25 329.47 88.48 322.59 85.57 323.05 83.89 330.7 85.11 331.61 80.83 334.06 81.29 Z M 174.8 45.66 177.7 48.1 183.67 48.1 182.91 53.61 187.04 60.03 185.81 61.71 173.57 54.07 170.51 45.96 174.8 45.66 Z M 173.57 22.26 184.13 34.65 183.67 36.63 175.56 38.47 171.43 34.95 170.51 22.26 173.57 22.26 Z M 267.05 15.83 280.21 21.34 288.32 32.05 288.62 36.33 280.97 37.55 277.15 45.66 273.32 43.52 265.67 32.05 267.05 25.16 261.85 23.48 259.4 18.89 259.71 16.75 267.05 15.83 Z M 274.7 3.6 282.35 9.11 282.35 15.07 276.84 16.29 272.56 13.39 269.96 6.96 273.32 4.36 271.64 1.46 275.01 1 274.7 3.6 Z M 297.96 210.06 303.16 214.19 307.75 213.43 309.12 215.57 304.84 218.47 300.56 214.19 297.19 214.19 295.51 218.01 290.76 218.93 292.45 213.89 287.86 212.51 297.96 210.06 Z M 216.41 133.59 221.92 136.04 221.15 143.38 223.6 144.61 225.28 151.33 220.69 151.03 221.15 147.21 218.09 144.61 215.95 149.65 213.81 145.83 211.67 146.29 207.54 148.89 205.4 165.86 201.57 168.46 194.69 166.63 196.06 161.12 202.34 159.9 193 157.3 200.19 153.02 198.21 147.21 206.16 143.69 210.44 136.96 216.41 133.59 Z M 231.25 123.35 240.28 136.5 236.45 143.69 230.49 136.96 229.57 128.85 225.74 127.17 228.8 122.89 231.25 123.35 Z M 62.66 84.66 67.25 86.03 66.02 92.76 62.66 91.08 62.2 86.8 57.91 86.03 62.66 84.66 Z M 51.49 80.53 58.37 82.21 55.77 87.71 46.44 81.29 51.49 80.53 Z M 19.66 106.37 20.12 119.07 16.76 117.84 14.16 123.35 11.1 121.21 1 126.41 3.45 117.84 6.97 118.3 6.97 113.1 17.06 105.91 19.66 106.37 Z M 43.07 54.53 40.47 58.81 35.73 58.81 34.96 54.53 41.7 51.93 43.07 54.53 Z M 44.3 17.21 45.21 20.58 37.56 19.66 40.01 16.29 44.3 17.21 Z" fill-rule="evenodd" transform="translate(-1,-1) "/></svg>