<svg xmlns="http://www.w3.org/2000/svg" viewBox="0 0 12.100006103515625 12.540008544921875"><path d="M 467.55 369.3 467.52 369.29 467.49 369.28 467.46 369.29 467.43 369.3 467.39 369.31 467.36 369.3 467.32 369.29 467.28 369.29 467.25 369.3 467.23 369.33 467.22 369.42 467.2 369.45 467.19 369.47 467.15 369.48 467.14 369.49 467.14 369.5 467.13 369.51 467.13 369.54 467.12 369.55 467.1 369.59 467.07 369.63 466.97 369.72 466.94 369.74 466.92 369.75 466.9 369.75 466.88 369.75 466.87 369.76 466.85 369.79 466.84 369.88 466.83 369.91 466.8 369.94 466.71 369.97 466.65 370.01 466.63 370.01 466.61 370.04 466.59 370.09 466.56 370.09 466.41 370.18 466.36 370.19 466.32 370.2 466.27 370.19 466.24 370.15 466.21 370.11 466.21 370.01 466.2 369.97 466.14 369.88 466.11 369.87 466.11 369.87 466.09 369.86 466.07 369.87 466.05 369.88 466.03 369.91 466.02 369.95 466 369.96 465.99 369.95 465.94 369.93 465.91 369.92 465.86 369.93 465.82 369.95 465.79 369.97 465.74 370 465.7 370.01 465.65 370.01 465.56 370.01 465.59 369.88 465.58 369.84 465.58 369.81 465.55 369.77 465.55 369.74 465.57 369.69 465.57 369.67 465.56 369.62 465.54 369.59 465.52 369.55 465.52 369.5 465.54 369.36 465.55 369.32 465.54 369.28 465.51 369.2 465.5 369.16 465.51 369.13 465.51 369.13 465.52 369.11 465.53 369.09 465.52 369.06 465.51 369.02 465.51 369 465.52 368.98 465.54 368.94 465.61 368.92 465.63 368.89 465.64 368.85 465.64 368.72 465.64 368.68 465.62 368.59 465.62 368.54 465.65 368.37 465.66 368.36 465.67 368.35 465.68 368.34 465.68 368.32 465.68 368.31 465.66 368.28 465.66 368.27 465.66 368.25 465.68 368.24 465.71 368.24 465.73 368.23 465.73 368.2 465.72 368.06 465.71 368.03 465.69 367.98 465.68 367.97 465.68 367.93 465.73 367.65 465.73 367.61 465.77 367.39 465.78 367.32 465.82 367.09 465.86 367.01 465.87 366.97 465.86 366.93 465.84 366.83 465.84 366.79 465.86 366.73 465.96 366.6 465.97 366.57 466 366.58 466.01 366.6 466.03 366.6 466.05 366.59 466.06 366.57 466.13 366.21 466.14 366.16 466.17 366.12 466.29 365.99 466.33 365.94 466.34 365.92 466.37 365.86 466.36 365.77 466.32 365.59 466.32 365.55 466.35 365.36 466.34 365.25 466.34 365.22 466.38 365.14 466.41 365.12 466.46 365.08 466.49 365.06 466.59 365.02 466.82 364.96 466.84 364.95 466.87 364.92 466.91 364.85 466.91 364.84 466.92 364.81 466.97 364.75 466.99 364.71 466.98 364.62 466.98 364.58 467.01 364.56 467.01 364.54 467.02 364.51 467.02 364.47 467.03 364.45 467.1 364.38 467.12 364.37 467.14 364.37 467.16 364.37 467.18 364.39 467.22 364.41 467.24 364.38 467.27 364.34 467.31 364.31 467.33 364.3 467.39 364.31 467.41 364.31 467.46 364.3 467.49 364.28 467.52 364.26 467.56 364.23 467.73 364.01 467.82 363.89 468.01 363.65 468.31 363.41 468.62 363.16 468.77 363.04 468.93 362.84 468.98 362.78 469.12 362.6 469.25 362.44 469.32 362.32 469.34 362.22 469.34 362.21 469.33 362.21 469.31 362.17 469.18 362.1 469.14 362.06 469.12 362.02 469.11 361.98 469.11 361.88 469 361.92 468.97 361.93 468.94 361.93 468.84 361.91 468.81 361.89 468.8 361.87 468.8 361.86 468.82 361.86 468.82 361.85 468.81 361.83 468.81 361.82 468.68 361.68 468.65 361.66 468.56 361.66 468.53 361.72 468.5 361.79 468.43 361.82 468.4 361.8 468.35 361.76 468.32 361.72 468.29 361.69 468.29 361.65 468.29 361.62 468.28 361.59 468.26 361.58 468.11 361.58 468.08 361.57 468.07 361.53 468.09 361.49 468.12 361.44 468.13 361.41 468.14 361.37 468.13 361.28 468.13 361.24 468.14 361.22 468.18 361.15 468.19 361.14 468.19 361.13 468.19 361.1 468.27 360.9 468.27 360.89 468.27 360.87 468.28 360.86 468.29 360.85 468.31 360.84 468.32 360.84 468.34 360.82 468.39 360.67 468.39 360.58 468.37 360.49 468.32 360.41 468.28 360.37 468.18 360.3 468.15 360.27 468.15 360.22 468.16 360.18 468.19 360.07 468.28 359.8 468.32 359.73 468.33 359.72 468.36 359.72 468.37 359.71 468.37 359.7 468.38 359.68 468.38 359.67 468.43 359.59 468.49 359.52 468.51 359.5 468.52 359.48 468.53 359.43 468.53 359.41 468.5 359.36 468.5 359.34 468.52 359.27 468.52 359.25 468.49 359.2 468.45 359.21 468.41 359.25 468.36 359.27 468.37 359.23 468.42 359.14 468.57 358.92 468.58 358.9 468.58 358.87 468.59 358.85 468.62 358.83 468.64 358.82 468.69 358.82 468.71 358.82 468.74 358.8 468.81 358.75 468.83 358.74 468.87 358.73 468.89 358.73 468.95 358.68 469.03 358.62 469.09 358.6 469.19 358.6 469.28 358.61 469.37 358.64 469.55 358.74 469.84 358.89 469.88 358.9 469.9 358.88 469.9 358.88 469.93 358.85 469.97 358.83 470.2 358.79 470.24 358.78 470.26 358.76 470.44 358.56 470.44 358.55 470.45 358.55 470.49 358.57 470.51 358.57 470.56 358.62 470.72 358.79 470.75 358.85 470.76 358.89 470.76 358.99 470.78 359.03 470.81 359.04 470.98 359.05 471 359.06 471.03 359.07 471.05 359.11 471.07 359.14 471.1 359.17 471.14 359.19 471.28 359.22 471.31 359.22 471.32 359.2 471.32 359.18 471.33 359.15 471.33 359.12 471.32 359.04 471.32 359.01 471.35 358.98 471.76 358.74 471.85 358.71 472.26 358.68 472.61 358.65 472.8 358.6 472.97 358.51 473.1 358.41 473.14 358.39 473.19 358.41 473.47 358.64 473.51 358.66 473.58 358.68 473.79 358.69 474.14 358.71 474.24 358.69 474.32 358.65 474.33 358.64 474.49 358.48 474.71 358.27 474.95 358.02 475.14 357.84 475.32 357.66 475.38 357.69 475.43 357.73 475.46 357.78 475.45 357.85 475.46 357.88 475.48 357.9 475.5 357.92 475.52 357.95 475.53 357.97 475.53 358 475.52 358.05 475.51 358.08 475.5 358.1 475.5 358.12 475.52 358.16 475.55 358.18 475.58 358.21 475.6 358.23 475.61 358.27 475.59 358.32 475.56 358.37 475.55 358.41 475.61 358.43 475.64 358.42 475.73 358.39 475.77 358.39 475.82 358.42 475.83 358.45 475.8 358.48 475.7 358.53 475.7 358.55 475.74 358.56 475.76 358.59 475.72 358.62 475.7 358.64 475.73 358.65 475.75 358.65 475.79 358.64 475.83 358.63 475.88 358.62 475.9 358.62 475.9 358.63 475.95 358.69 475.98 358.78 476.01 358.8 476.02 358.79 476.03 358.77 476.05 358.74 476.11 358.73 476.15 358.74 476.23 358.82 476.27 358.84 476.31 358.85 476.34 358.87 476.36 358.92 476.35 359.1 476.33 359.19 476.29 359.25 476.27 359.26 476.24 359.27 476.22 359.28 476.21 359.3 476.21 359.32 476.24 359.37 476.25 359.39 476.25 359.41 476.22 359.47 476.22 359.49 476.22 359.52 476.24 359.54 476.26 359.56 476.28 359.59 476.31 359.67 476.33 359.95 476.35 360 476.4 360.03 476.5 360.06 476.55 360.09 476.58 360.13 476.58 360.13 476.64 360.47 476.66 360.5 476.73 360.58 476.77 360.63 476.79 360.66 476.82 360.66 476.83 360.66 476.86 360.64 476.86 360.63 476.87 360.63 476.88 360.61 476.89 360.61 476.89 360.61 476.9 360.62 476.9 360.63 476.91 360.63 476.91 360.64 476.97 360.67 476.99 360.67 477 360.69 477.01 360.71 477.05 360.85 477.09 361.04 477.18 361.23 477.2 361.25 477.23 361.26 477.25 361.24 477.27 361.22 477.29 361.22 477.31 361.25 477.32 361.36 477.33 361.4 477.39 361.46 477.41 361.5 477.41 361.55 477.38 361.59 477.33 361.61 477.29 361.64 477.27 361.7 477.29 361.78 477.37 361.99 477.41 362.09 477.51 362.33 477.51 362.37 477.49 362.47 477.49 362.51 477.49 362.55 477.5 362.6 477.52 362.64 477.53 362.66 477.59 362.71 477.6 362.73 477.59 362.76 477.55 362.81 477.54 362.84 477.54 363.26 477.52 363.31 477.45 363.46 477.44 363.48 477.41 363.51 477.39 363.52 477.35 363.52 477.32 363.54 477.27 363.61 477.23 363.79 477.09 363.9 477.1 363.93 477.1 363.97 477.14 364.06 477.16 364.15 477.14 364.24 477.06 364.27 476.88 364.29 476.84 364.32 476.76 364.39 476.65 364.42 476.64 364.46 476.63 364.51 476.62 364.52 476.61 364.55 476.61 364.55 476.56 364.55 476.53 364.53 476.49 364.53 476.45 364.57 476.42 364.61 476.41 364.65 476.39 364.7 476.39 364.8 476.38 364.84 476.32 364.99 476.26 365.07 476.23 365.16 476.19 365.19 476.05 365.26 476.03 365.28 476.02 365.31 476.01 365.36 475.98 365.45 475.93 365.51 475.85 365.55 475.76 365.58 475.7 365.62 475.66 365.69 475.66 365.7 475.61 365.92 475.6 365.93 475.58 365.96 475.54 366 475.53 366.02 475.54 366.06 475.56 366.14 475.56 366.19 475.54 366.22 475.46 366.28 475.28 366.52 475.26 366.54 475.13 366.71 475.12 366.75 475.19 366.98 475.26 367.21 475.26 367.29 475.22 367.64 475.17 368.1 475.13 368.41 475.14 368.71 475.15 369.16 474.97 369.16 474.57 369.16 474.55 369.16 474.16 369.16 474.1 369.16 473.76 369.16 473.35 369.16 472.94 369.16 472.81 369.16 472.54 369.16 472.53 369.16 472.13 369.16 471.73 369.16 471.32 369.16 470.91 369.16 470.9 369.16 470.51 369.16 470.1 369.16 469.7 369.16 469.34 369.16 469.29 369.16 468.89 369.16 468.48 369.16 468.34 369.16 468.3 369.14 468.22 369.12 468.14 369.17 468.06 369.19 468.02 369.21 467.94 369.29 467.92 369.31 467.86 369.3 467.81 369.29 467.7 369.3 467.66 369.31 467.63 369.31 467.62 369.31 467.61 369.3 467.59 369.29 467.57 369.28 467.55 369.3 467.55 369.3 Z" id="Uganda" transform="translate(-465.5,-357.6600036621094) "/></svg>