<svg xmlns="http://www.w3.org/2000/svg" viewBox="0 0 39.959991455078125 26.639999389648438"><path d="M 466.07 253.74 465.9 253.81 466.02 253.75 466.06 253.71 466.08 253.68 466.09 253.65 466.12 253.64 466.15 253.64 466.18 253.63 466.22 253.6 466.28 253.53 466.32 253.5 466.67 253.17 466.78 253.11 466.3 253.57 466.07 253.74 Z M 472.35 252.32 472.67 252.37 472.82 252.34 472.89 252.34 472.96 252.39 473.05 252.35 473.1 252.35 473.13 252.38 473.15 252.4 473.25 252.39 473.28 252.44 473.24 252.48 472.31 252.32 472.32 252.31 472.33 252.3 472.35 252.32 Z M 471.27 252.02 471.3 252.04 471.25 252.03 471.16 251.98 470.35 251.81 470 251.68 469.93 251.62 469.87 251.52 469.86 251.46 469.84 251.38 469.83 251.32 469.87 251.34 469.91 251.48 469.95 251.57 470 251.64 470.09 251.69 470.8 251.86 471.09 251.93 471.27 252.02 Z M 484.71 248.97 484.71 248.97 484.67 249.02 484.55 249.18 484.47 249.22 484.52 249.12 484.52 249.06 484.46 249.04 484.39 248.98 484.38 248.99 484.37 249 484.31 249.03 484.29 249.04 484.21 249.01 484.15 249 484.12 249.01 483.93 248.98 483.69 249.06 483.59 249.07 483.3 249.01 483.23 249.04 483.09 249.19 482.85 249.52 482.8 249.63 482.76 249.69 482.71 249.71 482.72 249.63 482.67 249.56 482.59 249.52 482.52 249.51 482.48 249.52 482.38 249.6 482.12 249.7 482.08 249.71 482.06 249.72 481.98 249.78 481.96 249.8 481.88 249.83 481.76 249.94 481.69 249.95 481.71 250.03 481.68 250.1 481.64 250.17 481.62 250.25 481.6 250.34 481.56 250.42 481.51 250.48 481.45 250.46 481.45 250.44 481.47 250.44 481.51 250.46 481.55 250.37 481.58 250.25 481.58 250.2 481.56 250.18 481.48 250.09 481.45 250.07 481.37 250.04 481.34 250.02 481.31 250.04 481.27 250.04 481.21 250.02 481.17 250.03 481.14 250.05 481.13 250.08 481.11 250.09 480.96 250.09 480.87 250.14 480.76 250.16 480.69 250.2 480.62 250.25 480.47 250.41 480.43 250.48 480.42 250.57 480.4 250.57 480.4 250.53 480.39 250.52 480.37 250.53 480.35 250.54 480.35 250.56 480.34 250.56 480.33 250.53 480.34 250.52 480.34 250.5 480.34 250.48 480.32 250.47 480.31 250.46 480.29 250.42 480.28 250.41 480.27 250.4 480.22 250.38 480.18 250.38 480.1 250.4 479.94 250.37 479.64 250.43 479.58 250.43 479.42 250.52 479.29 250.59 479.23 250.65 479.05 250.86 478.98 250.92 478.72 251.06 478.67 251.09 478.64 251.12 478.57 251.22 478.54 251.25 478.46 251.31 478.43 251.34 478.21 251.69 478.2 251.7 478.17 251.74 478.05 251.97 477.99 252.05 477.94 252.11 477.85 252.14 477.8 252.18 477.72 252.2 477.67 252.24 477.58 252.28 477.54 252.27 477.55 252.24 477.62 252.16 477.7 252.11 477.69 252.1 477.68 252.06 477.91 251.99 478.03 251.93 478.09 251.81 478.14 251.75 478.16 251.7 478.23 251.58 478.31 251.5 478.34 251.44 478.35 251.36 478.31 251.41 478.27 251.44 478.23 251.44 478.18 251.4 478.16 251.32 478.17 251.24 478.21 251.12 478.2 251.11 478.16 251.11 478.14 251.1 478.12 251.09 478.09 251.06 478.06 251.04 478.03 250.99 478.01 250.94 478 250.88 477.95 250.94 477.97 251 478.01 251.06 478.03 251.11 478.04 251.15 478.05 251.17 478.06 251.2 478.05 251.25 478.03 251.29 477.96 251.36 477.82 251.57 477.82 251.57 477.75 251.65 477.65 251.71 477.44 251.77 477.42 251.77 477.39 251.76 477.38 251.74 477.38 251.71 477.37 251.7 477.35 251.71 477.33 251.74 477.33 251.78 477.32 251.81 477.23 251.85 477.22 251.87 477.18 251.92 477.17 251.95 477.17 251.99 477.17 252.01 477.18 252.06 477.19 252.27 477.2 252.31 477.23 252.36 477.3 252.75 477.33 252.79 477.35 252.83 477.37 252.87 477.49 253.18 477.68 253.56 478.32 254.5 478.65 254.73 478.73 254.74 479.12 254.63 479.17 254.6 479.23 254.54 479.24 254.5 479.24 254.48 479.25 254.46 479.28 254.45 479.3 254.44 479.33 254.39 479.34 254.37 479.35 254.32 479.37 254.26 479.39 254.21 479.43 254.19 479.48 254.19 479.49 254.23 479.47 254.27 479.46 254.33 479.48 254.37 479.51 254.4 479.68 254.5 479.77 254.53 479.85 254.51 479.91 254.43 479.94 254.33 479.95 254.32 480.01 254.28 480.06 254.23 480.1 254.22 480.36 254.22 480.39 254.2 480.43 254.17 480.47 254.18 480.48 254.22 480.46 254.28 480.49 254.28 480.51 254.26 480.53 254.24 480.55 254.23 480.6 254.24 480.67 254.29 480.71 254.3 480.84 254.27 480.89 254.28 480.94 254.35 480.98 254.38 481.02 254.37 481.06 254.33 481.09 254.33 481.13 254.35 481.16 254.38 481.2 254.49 481.22 254.57 481.2 254.6 481.13 254.62 481.1 254.62 481.07 254.61 481.01 254.58 480.96 254.57 480.91 254.58 480.88 254.61 480.87 254.68 480.88 254.7 480.9 254.71 480.9 254.72 480.89 254.75 480.87 254.76 480.82 254.77 480.8 254.77 480.77 254.81 480.74 254.88 480.73 254.95 480.71 255.13 480.71 255.2 480.72 255.26 480.78 255.33 480.81 255.38 480.81 255.43 480.78 255.46 480.62 255.51 480.42 255.52 480.39 255.53 480.37 255.54 480.36 255.56 480.35 255.62 480.34 255.63 480.3 255.64 480.1 255.6 479.98 255.52 479.98 255.54 479.91 255.51 479.86 255.56 479.82 255.64 479.79 255.67 479.62 255.66 479.46 255.69 479.42 255.67 479.4 255.6 479.39 255.57 479.32 255.49 479.29 255.46 479.15 255.37 478.99 255.31 478.89 255.29 478.8 255.29 478.71 255.31 478.62 255.35 478.51 255.44 478.49 255.47 478.48 255.51 478.47 255.53 478.46 255.56 478.47 255.59 478.48 255.6 478.55 255.63 478.55 255.65 478.52 255.66 478.45 255.66 478.41 255.67 478.39 255.71 478.38 255.75 478.4 255.84 478.29 255.76 478.28 255.77 478.26 255.79 478.24 255.8 478.19 255.77 478.15 255.8 478.1 255.9 478.06 255.93 477.96 255.96 477.93 255.97 477.87 256.08 477.82 256.21 477.76 256.31 477.67 256.29 477.64 256.26 477.62 256.22 477.6 256.18 477.55 256.16 477.48 256.16 477.45 256.16 477.43 256.18 477.41 256.19 477.4 256.21 477.38 256.23 477.34 256.23 477.27 256.22 477.23 256.24 477.2 256.25 477.04 256.23 476.96 256.26 476.81 256.36 476.73 256.4 476.55 256.44 476.48 256.47 476.42 256.53 476.42 256.52 476.42 256.51 476.42 256.51 476.41 256.51 476.32 256.63 476.31 256.65 476.29 256.68 476.21 256.81 476.12 257.04 476.1 257.08 476.08 257.09 476.03 257.08 476 257.08 475.98 257.08 475.97 257.08 475.96 257.09 475.96 257.1 475.96 257.11 475.95 257.12 475.91 257.2 475.88 257.22 475.77 257.24 475.74 257.28 475.72 257.32 475.69 257.38 475.67 257.4 475.59 257.45 475.56 257.46 475.51 257.47 475.27 257.58 475.23 257.59 475.18 257.58 475.04 257.53 475.01 257.53 474.96 257.54 474.94 257.55 474.79 257.54 474.75 257.53 474.58 257.45 474.55 257.42 474.54 257.37 474.52 257.34 474.46 257.25 474.43 257.23 474.39 257.23 474.34 257.25 474.3 257.25 474.26 257.22 474.23 257.19 473.99 257.02 473.98 256.98 473.97 256.95 473.97 256.95 473.98 256.96 474.05 256.94 474.07 256.93 474.12 256.89 474.14 256.89 474.18 256.89 474.21 256.89 474.23 256.88 474.26 256.87 474.37 256.87 474.42 256.85 474.39 256.84 474.31 256.82 474.29 256.8 474.29 256.76 474.31 256.72 474.34 256.69 474.36 256.65 474.37 256.6 474.36 256.57 474.34 256.51 474.33 256.42 474.31 256.38 474.29 256.34 474.31 256.32 474.32 256.31 474.33 256.29 474.34 256.23 474.36 256.17 474.39 256.13 474.48 256.1 474.5 256.07 474.52 256.01 474.52 255.95 474.52 255.88 474.5 255.76 474.49 255.71 474.49 255.69 474.45 255.61 474.44 255.58 474.43 255.5 474.4 255.37 474.34 255.3 474.19 255.2 474.07 255.09 474.03 255.07 473.94 255.09 473.85 255.12 473.78 255.16 473.73 255.18 473.7 255.15 473.68 255.1 473.63 255.08 473.53 255.05 473.5 255.02 473.42 254.92 473.37 254.89 473.35 254.86 473.32 254.82 473.3 254.8 473.26 254.78 473.25 254.77 473.1 254.65 473.02 254.59 472.93 254.56 472.6 254.53 472.55 254.54 472.51 254.56 472.43 254.65 472.4 254.66 472.24 254.66 472.2 254.65 472.12 254.61 472.07 254.6 472.01 254.43 472 254.38 472.03 254.3 472.1 254.23 472.36 254.03 472.4 254.02 472.45 254.01 472.5 254 472.53 253.98 472.56 253.95 472.58 253.93 472.6 253.91 472.61 253.89 472.65 253.89 472.67 253.89 472.71 253.91 472.74 253.91 472.77 253.9 472.77 253.88 472.77 253.85 472.76 253.82 472.77 253.8 472.77 253.78 472.79 253.76 472.86 253.69 473.01 253.59 473.51 253.35 473.54 253.33 473.55 253.29 473.54 253.28 473.52 253.27 473.5 253.25 473.51 253.22 473.53 253.2 473.55 253.21 473.58 253.26 473.66 253.31 473.74 253.3 473.9 253.2 473.98 253.16 473.99 253.14 474.06 253.07 474.09 253.05 474.19 252.99 474.22 252.98 474.24 252.98 474.28 253.01 474.3 253.02 474.33 253.02 474.38 253 474.43 252.93 474.48 252.9 474.5 252.89 474.52 252.89 474.55 252.9 474.57 252.91 474.59 252.93 474.6 252.95 474.61 252.96 474.64 252.96 474.68 252.96 474.69 252.92 474.68 252.85 474.69 252.79 474.72 252.8 474.76 252.78 474.83 252.76 474.87 252.74 474.83 252.7 474.79 252.68 474.66 252.65 474.61 252.65 474.58 252.66 474.57 252.68 474.55 252.69 474.52 252.67 474.57 252.62 474.58 252.58 474.58 252.56 474.55 252.55 474.55 252.53 474.56 252.5 474.58 252.47 474.57 252.44 474.55 252.34 474.54 252.3 474.57 252.27 474.59 252.23 474.58 252.18 474.51 252.05 474.47 252.02 474.42 252.04 474.37 252.08 474.33 252.13 474.33 252.18 474.39 252.21 474.39 252.24 474.33 252.24 474.27 252.26 474.25 252.3 474.29 252.37 474.27 252.37 474.23 252.35 474.09 252.35 474.07 252.33 474 252.24 473.94 252.19 473.88 252.17 473.84 252.24 473.83 252.22 473.82 252.22 473.81 252.22 473.79 252.21 473.83 252.18 473.85 252.13 473.85 252.1 473.8 252.08 473.63 252.11 473.64 252.06 473.65 252.02 473.67 251.8 473.62 251.86 473.58 251.95 473.54 252.03 473.47 252.06 473.45 252.07 473.42 252.08 473.4 252.08 473.38 252.07 473.33 252.04 473.2 251.97 473.22 252.07 473.19 252.11 472.96 252.15 472.93 252.15 472.91 252.14 472.89 252.13 472.88 252.13 472.82 252.13 472.81 252.13 472.68 252.09 472.63 252.08 472.6 252.09 472.52 252.13 472.24 252.18 472.21 252.19 472.19 252.21 472.15 252.25 472.14 252.26 472.05 252.27 471.6 252.14 471.56 252.11 471.53 252.11 471.52 252.11 471.51 252.09 471.5 252.05 471.5 252.04 471.49 252.02 471.48 251.97 471.47 251.95 471.51 251.91 471.52 251.89 471.53 251.86 471.46 251.89 471.41 251.9 471.35 251.89 471.25 251.85 471.22 251.85 471.19 251.83 471.11 251.72 471.04 251.67 470.97 251.69 470.86 251.64 470.68 251.5 470.68 251.53 470.69 251.57 470.69 251.61 470.67 251.63 470.53 251.62 470.49 251.61 470.46 251.58 470.43 251.55 470.42 251.5 470.45 251.46 470.49 251.42 470.53 251.41 470.57 251.4 470.7 251.43 470.86 251.4 470.88 251.38 471 251.27 471.03 251.27 471.06 251.27 471.07 251.26 471.05 251.22 470.95 251.08 470.92 251.07 470.83 251.08 470.74 251.06 470.43 250.93 470.38 250.92 470.33 250.92 470.29 250.93 470.26 250.97 470.25 250.99 470.24 251.01 470.24 251.04 470.24 251.14 470.19 251.01 470.17 250.99 470.14 250.98 469.88 250.71 469.84 250.64 469.91 250.69 469.97 250.76 470.01 250.77 470.39 250.74 470.47 250.77 470.6 250.84 470.6 250.85 470.63 250.86 470.82 250.86 471.01 250.9 471.14 250.88 471.18 250.88 471.42 250.93 471.55 251.01 471.64 251.03 471.73 251.02 471.82 250.99 471.88 250.92 471.84 250.86 471.9 250.78 472.05 250.65 472.1 250.62 472.2 250.61 472.24 250.58 472.27 250.55 472.31 250.52 472.34 250.49 472.36 250.44 472.31 250.46 472.25 250.51 472.19 250.54 472.14 250.53 471.84 250.7 471.68 250.72 471.53 250.64 471.5 250.58 471.48 250.57 471.46 250.58 471.42 250.63 471.4 250.64 471.38 250.64 471.33 250.66 471.31 250.66 471.26 250.73 471.23 250.69 471.19 250.58 471.16 250.55 471.02 250.52 470.98 250.5 470.95 250.47 470.92 250.41 470.89 250.35 470.88 250.29 470.87 250.23 470.85 250.19 470.82 250.14 470.8 250.09 470.79 249.95 470.83 249.85 470.89 249.76 470.94 249.65 470.95 249.58 470.95 249.53 470.92 249.5 470.81 249.48 470.79 249.45 470.8 249.41 470.86 249.31 470.88 249.28 470.87 249.25 470.81 249.25 470.71 249.26 470.67 249.26 470.63 249.22 470.7 249.09 470.7 249.01 470.67 248.92 470.64 248.89 470.61 248.89 470.59 248.87 470.57 248.82 470.57 248.76 470.57 248.73 470.56 248.7 470.53 248.67 470.4 248.61 470.38 248.57 470.39 248.5 470.38 248.48 470.36 248.47 470.35 248.48 470.32 248.54 470.31 248.55 470.33 248.59 470.36 248.63 470.41 248.66 470.5 248.68 470.53 248.72 470.52 248.91 470.53 248.93 470.59 248.94 470.6 248.96 470.62 248.97 470.63 248.98 470.65 249 470.64 249.06 470.61 249.11 470.59 249.13 470.57 249.28 470.64 249.31 470.74 249.3 470.82 249.31 470.75 249.38 470.72 249.43 470.71 249.49 470.73 249.54 470.77 249.56 470.82 249.54 470.86 249.51 470.87 249.58 470.85 249.68 470.81 249.76 470.76 249.8 470.71 249.81 470.66 249.86 470.63 249.93 470.63 250.02 470.72 250.13 470.73 250.15 470.71 250.29 470.72 250.35 470.73 250.37 470.73 250.4 470.71 250.44 470.69 250.46 470.65 250.49 470.62 250.5 470.52 250.52 470.43 250.51 470.21 250.43 470.08 250.44 470.04 250.46 470.02 250.5 470 250.54 469.95 250.55 469.93 250.54 469.9 250.51 469.88 250.5 469.83 250.51 469.81 250.5 469.79 250.49 469.78 250.45 469.8 250.39 469.93 250.19 469.96 250.12 469.96 250.09 469.98 250.06 470.09 249.91 470.06 249.87 470.04 249.89 470.03 249.93 470.01 249.97 470 249.99 469.95 250.01 469.93 250.02 469.92 250.03 469.88 250.1 469.88 250.11 469.87 250.12 469.84 250.13 469.82 250.11 469.78 250.09 469.75 250.01 469.73 249.97 469.69 249.95 469.72 250.03 469.72 250.05 469.73 250.1 469.74 250.12 469.76 250.13 469.83 250.19 469.84 250.21 469.82 250.25 469.78 250.32 469.78 250.33 469.74 250.36 469.67 250.48 469.64 250.5 469.6 250.51 469.5 250.57 469.47 250.59 469.43 250.58 469.37 250.57 469.34 250.55 469.33 250.57 469.29 250.54 469.13 250.5 469.07 250.5 468.96 250.54 468.84 250.56 468.75 250.59 468.7 250.59 468.68 250.61 468.63 250.65 468.61 250.65 468.58 250.64 468.55 250.65 468.42 250.74 468.39 250.75 468.3 250.73 468.28 250.73 468.25 250.75 468.19 250.84 468.17 250.87 468.18 250.91 468.22 250.99 468.23 251.06 468.24 251.06 468.26 251.07 468.27 251.09 468.26 251.1 468.25 251.11 468.24 251.12 468.24 251.14 468.22 251.24 468.21 251.25 468.12 251.37 468.08 251.41 467.96 251.4 467.95 251.42 467.96 251.43 468.01 251.47 468.02 251.5 468.02 251.53 468.01 251.56 467.95 251.69 467.79 251.91 467.75 252 467.71 252.04 467.68 252.06 467.66 252.09 467.62 252.22 467.6 252.26 467.32 252.52 467.08 252.85 466.95 252.97 466.81 253.09 466.81 253.05 466.8 252.87 466.78 252.86 466.76 252.88 466.75 252.91 466.73 252.95 466.73 253.03 466.72 253.05 466.71 253.07 466.71 253.09 466.71 253.1 466.69 253.11 466.69 253.1 466.67 253.09 466.66 253.08 466.65 253.1 466.64 253.11 466.53 253.02 466.48 253 466.43 253.03 466.41 253.09 466.41 253.17 466.4 253.24 466.37 253.2 466.35 253.17 466.35 253.15 466.37 253.12 466.36 253.1 466.34 253.11 466.32 253.15 466.32 253.2 466.33 253.25 466.35 253.28 466.37 253.3 466.35 253.39 466.34 253.36 466.32 253.34 466.27 253.3 466.27 253.29 466.27 253.28 466.27 253.27 466.25 253.26 466.24 253.27 466.23 253.28 466.23 253.3 466.22 253.3 466.17 253.3 466.11 253.32 466.06 253.35 466.05 253.41 466.06 253.45 466.09 253.47 466.15 253.5 466.19 253.53 466.2 253.55 466.19 253.56 466.15 253.58 466.12 253.61 466.08 253.63 466.03 253.61 466.03 253.63 466.02 253.64 466.02 253.64 466.03 253.67 466 253.69 465.94 253.71 465.91 253.74 465.91 253.65 465.89 253.57 465.85 253.5 465.8 253.48 465.8 253.45 465.79 253.3 465.8 253.25 465.82 253.23 465.82 253.21 465.8 253.17 465.79 253.16 465.79 253.15 465.78 253.15 465.73 253.11 465.72 253.09 465.71 253.06 465.7 253.07 465.69 253.08 465.68 253.11 465.69 253.13 465.72 253.17 465.73 253.18 465.72 253.21 465.68 253.27 465.67 253.3 465.66 253.35 465.67 253.38 465.68 253.4 465.7 253.44 465.62 253.49 465.61 253.62 465.61 253.77 465.59 253.91 465.65 253.94 465.68 253.95 465.72 253.95 465.76 253.95 465.79 253.92 465.85 253.87 465.82 253.9 465.75 254.02 465.72 254.04 465.7 254.05 465.68 254.08 465.67 254.11 465.66 254.13 465.62 254.14 465.63 254.17 465.66 254.24 465.68 254.26 465.7 254.28 465.73 254.28 465.74 254.25 465.73 254.21 465.74 254.18 465.77 254.17 465.77 254.24 465.78 254.26 465.79 254.25 465.81 254.24 465.8 254.23 465.82 254.24 465.84 254.23 465.85 254.25 465.86 254.3 465.88 254.25 465.89 254.2 465.91 254.17 465.94 254.21 465.96 254.26 465.96 254.32 465.94 254.37 465.9 254.36 465.93 254.4 465.95 254.46 465.95 254.53 465.96 254.66 465.96 254.69 465.95 254.71 465.93 254.76 465.93 254.78 465.9 254.86 465.9 254.89 465.9 254.92 465.9 254.92 465.9 254.92 465.85 254.97 465.82 254.99 465.78 255 465.74 254.99 465.76 254.97 465.76 254.94 465.76 254.92 465.74 254.9 465.77 254.81 465.76 254.69 465.72 254.58 465.68 254.54 465.65 254.52 465.55 254.43 465.24 254.32 465.07 254.3 465.05 254.29 465.02 254.28 465 254.27 464.98 254.29 464.96 254.31 464.95 254.32 464.93 254.34 464.91 254.34 464.86 254.34 464.83 254.34 464.79 254.34 464.74 254.36 464.71 254.39 464.69 254.42 464.68 254.44 464.67 254.45 464.62 254.45 464.6 254.46 464.57 254.49 464.53 254.51 464.44 254.54 464.32 254.63 464.29 254.64 464.24 254.65 464.23 254.65 464.21 254.66 464.2 254.69 464.19 254.75 464.18 254.77 464.13 254.79 464.08 254.77 464.05 254.73 464.02 254.71 463.97 254.7 463.91 254.66 463.88 254.64 463.82 254.66 463.81 254.7 463.82 254.75 463.75 254.78 463.75 254.81 463.76 254.84 463.77 254.86 463.78 254.87 463.85 254.9 463.82 254.93 463.79 254.94 463.72 254.95 463.64 254.96 463.35 254.89 463.16 254.79 462.96 254.74 462.89 254.7 462.85 254.69 462.8 254.65 462.76 254.58 462.69 254.41 462.7 254.34 462.66 254.29 462.59 254.25 462.54 254.25 462.54 254.25 462.51 254.22 462.51 254.2 462.53 254.16 462.55 254.12 462.55 254.12 462.55 254.12 462.67 254.03 462.67 254.03 462.82 254.04 462.99 254.09 463.13 254.09 463.18 254.07 463.19 254.03 463.18 253.93 463.17 253.92 463.17 253.91 463.18 253.89 463.19 253.89 463.2 253.87 463.26 253.85 463.23 253.8 463.22 253.76 463.21 253.72 463.2 253.67 463.17 253.64 463.14 253.62 463.12 253.6 463.13 253.56 463.18 253.49 463.21 253.46 463.25 253.43 463.31 253.41 463.32 253.39 463.32 253.35 463.31 253.33 463.35 253.27 463.49 253.26 463.55 253.22 463.56 253.19 463.56 253.16 463.55 253.13 463.55 253.11 463.57 253.1 463.63 253.08 463.68 253.06 463.7 253.03 463.72 252.99 463.72 252.93 463.71 252.87 463.68 252.76 463.68 252.71 463.71 252.66 463.75 252.64 464.13 252.54 464.19 252.51 464.19 252.45 464.15 252.31 464.15 252.23 464.16 252.18 464.24 252.09 464.29 252.01 464.32 251.93 464.31 251.86 464.25 251.81 464.17 251.74 464.17 251.74 464.14 251.69 464.13 251.65 464.15 251.6 464.16 251.54 464.16 251.49 464.12 251.34 464.1 251.22 464.12 251.13 464.16 251.06 464.33 250.95 464.41 250.92 464.45 250.91 464.64 250.8 464.69 250.8 464.69 250.8 464.73 250.84 464.74 250.91 464.74 251.18 464.74 251.22 464.73 251.25 464.71 251.28 464.69 251.31 464.69 251.34 464.73 251.38 464.78 251.35 464.86 251.26 464.88 251.25 464.9 251.25 464.91 251.25 464.93 251.21 464.93 251.18 464.92 251.11 464.92 251.07 464.96 251.01 464.99 251.02 465.05 251.13 465.09 251.19 465.11 251.19 465.21 251.04 465.25 250.99 465.3 250.97 465.3 250.97 465.35 250.98 465.36 251 465.37 251.02 465.36 251.04 465.35 251.06 465.34 251.09 465.33 251.11 465.34 251.14 465.35 251.16 465.38 251.17 465.45 251.19 465.48 251.2 465.52 251.23 465.55 251.3 465.58 251.34 465.61 251.36 465.65 251.36 465.68 251.35 465.71 251.32 465.73 251.27 465.72 251.19 465.73 251.17 465.8 251.17 465.84 251.15 465.87 251.1 465.87 251.01 465.89 251.06 466.01 251.17 466.06 251.24 466.07 251.27 466.07 251.3 466.07 251.36 466.07 251.38 466.12 251.43 466.16 251.43 466.24 251.35 466.28 251.33 466.32 251.32 466.58 251.34 466.68 251.32 466.74 251.27 466.79 251.17 466.76 251.15 466.73 251.14 466.69 251.15 466.67 251.17 466.63 251.12 466.53 251.04 466.55 251.01 466.52 250.96 466.51 250.94 466.49 250.92 466.48 250.92 466.45 250.94 466.43 250.95 466.43 250.94 466.42 250.91 466.41 250.9 466.31 250.86 466.28 250.82 466.28 250.75 466.31 250.74 466.36 250.73 466.39 250.67 466.38 250.63 466.36 250.57 466.35 250.54 466.35 250.49 466.36 250.46 466.37 250.43 466.38 250.4 466.4 250.2 466.39 250.14 466.38 250.11 466.36 250.07 466.35 250.04 466.35 250.01 466.35 249.94 466.34 249.92 466.32 249.91 466.3 249.92 466.28 249.93 466.26 249.93 466.24 249.91 466.23 249.85 466.22 249.83 466.15 249.78 466.09 249.77 466.03 249.78 465.96 249.77 465.91 249.74 465.86 249.65 465.83 249.62 465.79 249.6 465.72 249.6 465.68 249.58 465.67 249.57 465.63 249.53 465.61 249.52 465.55 249.52 465.54 249.52 465.52 249.48 465.52 249.44 465.53 249.43 465.54 249.39 465.55 249.27 465.58 249.23 465.6 249.2 465.62 249.16 465.62 249.11 465.6 249.07 465.58 249.03 465.55 249.01 465.51 249.01 465.48 249.05 465.46 249.09 465.44 249.11 465.42 249.09 465.35 248.97 465.34 248.96 465.34 248.95 465.34 248.94 465.35 248.93 465.41 248.92 465.46 248.91 465.49 248.87 465.5 248.79 465.48 248.62 465.49 248.55 465.54 248.52 465.57 248.46 465.57 248.39 465.55 248.31 465.52 248.25 465.48 248.22 465.44 248.21 465.39 248.2 465.35 248.21 465.33 248.26 465.32 248.31 465.3 248.35 465.26 248.39 465.23 248.4 465.19 248.4 465.16 248.38 465.13 248.36 465.11 248.32 465.1 248.31 465.09 248.26 465.09 248.21 465.08 248.16 465.05 248.12 465.02 248.1 464.98 248.1 464.95 248.08 464.93 248.04 464.92 248 464.91 247.97 464.84 247.92 464.8 247.86 464.77 247.84 464.73 247.85 464.71 247.89 464.69 247.91 464.65 247.88 464.63 247.84 464.59 247.74 464.59 247.73 464.57 247.7 464.57 247.7 464.57 247.7 464.57 247.7 464.54 247.57 464.57 247.48 464.63 247.41 464.69 247.31 464.71 247.19 464.71 247.07 464.72 246.97 464.79 246.88 464.81 246.84 464.8 246.81 464.78 246.78 464.7 246.75 464.68 246.73 464.68 246.69 464.7 246.64 464.72 246.6 464.77 246.55 464.8 246.51 464.81 246.46 464.78 246.45 464.7 246.42 464.67 246.4 464.65 246.35 464.63 246.24 464.61 246.18 464.59 246.14 464.56 246.12 464.53 246.1 464.49 246.1 464.42 246.14 464.32 246.26 464.24 246.28 464.17 246.25 464.14 246.23 464.09 246.19 464.02 246.11 463.98 246.04 463.96 246.01 463.93 245.98 463.91 245.96 463.91 245.94 463.9 245.85 463.87 245.76 463.86 245.74 463.86 245.72 463.85 245.69 463.84 245.67 463.78 245.63 463.7 245.61 463.54 245.61 463.34 245.52 463.27 245.52 463.22 245.54 463.18 245.66 463.18 245.66 463.17 245.68 463.16 245.73 463.16 245.79 463.15 245.82 463.13 245.82 463.09 245.79 463.06 245.76 463 245.63 463.03 245.59 463.04 245.54 463.01 245.5 462.98 245.47 462.93 245.48 462.9 245.52 462.88 245.57 462.84 245.61 462.8 245.62 462.77 245.59 462.77 245.54 462.78 245.5 462.82 245.46 462.85 245.44 462.87 245.41 462.89 245.34 462.88 245.27 462.86 245.25 462.82 245.24 462.72 245.25 462.68 245.28 462.65 245.31 462.6 245.34 462.55 245.35 462.51 245.34 462.49 245.3 462.48 245.24 462.46 245.18 462.43 245.19 462.36 245.24 462.32 245.25 462.27 245.25 462.24 245.23 462.28 245.1 462.27 245.04 462.24 244.99 462.19 244.97 462.07 244.96 461.99 244.95 461.9 244.91 461.86 244.84 461.84 244.82 461.81 244.78 461.77 244.72 461.73 244.68 461.59 244.57 461.52 244.54 461.24 244.54 461.2 244.52 461.19 244.43 461.14 244.42 461.08 244.46 461.06 244.47 460.97 244.47 460.97 244.47 460.92 244.54 460.78 244.65 460.74 244.67 460.71 244.66 460.65 244.6 460.61 244.59 460.53 244.63 460.41 244.78 460.4 244.8 460.31 244.84 460.24 244.84 460 244.75 459.96 244.72 459.93 244.71 459.91 244.72 459.91 244.75 459.91 244.77 459.91 244.8 459.91 244.81 459.92 244.83 459.92 244.84 459.91 244.85 459.88 244.85 459.86 244.85 459.85 244.84 459.83 244.84 459.81 244.86 459.72 244.87 459.65 244.83 459.58 244.76 459.5 244.73 459.48 244.74 459.47 244.76 459.46 244.79 459.44 244.81 459.43 244.8 459.39 244.79 459.38 244.79 459.36 244.82 459.36 244.85 459.37 244.89 459.38 244.96 459.38 245.02 459.38 245.06 459.35 245.09 459.31 245.09 459.26 245.07 459.24 245.04 459.21 244.99 459.18 244.96 459.14 244.94 459.13 244.97 459.12 245.01 459.04 245.06 459.02 245.1 459 245.15 459 245.18 458.94 245.21 458.66 245.27 458.62 245.28 458.51 245.29 458.48 245.3 458.4 245.34 458.37 245.35 458.32 245.34 458.31 245.34 458.29 245.45 458.29 245.52 458.27 245.62 458.23 245.73 458.2 245.8 458.17 245.83 458.11 245.88 458.09 245.91 458.04 246.03 458.02 246.06 457.91 246.11 457.86 246.11 457.7 246.11 457.56 246.15 457.45 246.14 457.41 246.15 457.35 246.18 457.23 246.19 457.08 246.25 456 246.37 455.9 246.44 455.69 246.79 455.59 246.88 455.59 246.88 455.59 246.88 455.46 246.94 455.29 246.97 455.26 246.98 455.19 246.99 455.15 246.96 455.09 246.88 455.02 246.75 454.99 246.71 454.96 246.68 454.78 246.61 454.71 246.56 454.67 246.52 454.66 246.48 454.65 246.44 454.64 246.38 454.6 246.34 454.55 246.29 454.46 246.24 454.45 246.23 454.4 246.22 454.28 246.22 454.15 246.19 454.11 246.2 454.06 246.22 453.97 246.3 453.86 246.3 453.71 246.38 453.66 246.37 453.53 246.32 453.53 246.33 453.49 246.32 453.41 246.24 453.37 246.22 453.26 246.19 453.22 246.17 453.15 246.16 452.93 246.25 452.88 246.25 452.86 246.2 452.75 246.1 452.71 246.08 452.56 246.09 452.51 246.08 452.42 246.05 452.27 246.03 452.23 246.02 452.15 246.03 452.12 246.04 452.1 246.06 452.09 246.08 452.08 246.1 452.07 246.12 452.06 246.12 452.05 246.13 452 246.13 451.86 246.06 451.86 246.06 451.85 246.06 451.85 246.06 451.85 246.06 451.83 246.07 451.81 246.07 451.8 246.07 451.78 246.06 451.73 246 451.63 245.91 451.53 245.8 451.5 245.77 451.34 245.72 451.29 245.71 451.25 245.73 451.2 245.8 451.15 245.96 451.12 246.01 451.03 246.09 450.99 246.09 450.96 246.08 450.92 246.06 450.89 246.04 450.85 246.02 450.82 246.02 450.8 246.06 450.82 246.13 450.8 246.17 450.76 246.2 450.71 246.21 450.63 246.15 450.61 246.11 450.65 246.06 450.65 246.01 450.67 245.98 450.68 245.94 450.66 245.88 450.64 245.84 450.61 245.8 450.54 245.74 450.46 245.69 450.46 245.68 450.42 245.65 450.38 245.66 450.34 245.69 450.3 245.7 450.14 245.7 450.11 245.72 450.11 245.72 450.1 245.7 450.06 245.62 450.03 245.52 450 245.45 449.83 245.23 449.82 245.23 449.82 245.23 449.81 245.23 449.76 245.25 449.73 245.25 449.69 245.25 449.65 245.23 449.64 245.23 449.63 245.23 449.62 245.23 449.61 245.25 449.59 245.25 449.57 245.25 449.56 245.23 449.45 245.06 449.43 245 449.42 244.95 449.43 244.91 449.43 244.88 449.41 244.85 449.4 244.85 449.34 244.85 449.34 244.8 449.37 244.7 449.29 244.66 449.21 244.65 449.14 244.68 449.12 244.7 449.12 244.7 449.12 244.7 449.11 244.7 449.06 244.7 449.06 244.46 449.09 244.4 449.1 244.35 449.07 244.21 449.07 244.15 449.11 244.09 449.25 243.97 449.27 243.95 449.29 243.9 449.31 243.87 449.33 243.85 449.39 243.84 449.42 243.82 449.45 243.77 449.48 243.71 449.5 243.64 449.49 243.57 449.5 243.52 449.52 243.5 449.54 243.48 449.56 243.46 449.57 243.42 449.58 243.39 449.57 243.28 449.57 243.25 449.57 243.23 449.58 243.19 449.59 243.18 449.61 243.16 449.66 243.11 449.68 243.08 449.68 243.06 449.68 243.02 449.69 243 449.71 242.94 449.76 242.8 449.8 242.77 449.89 242.76 449.92 242.73 449.92 242.67 449.93 242.59 449.95 242.52 449.96 242.46 450.01 242.41 450.05 242.43 450.14 242.52 450.19 242.56 450.24 242.56 450.29 242.56 450.37 242.56 450.42 242.55 450.44 242.55 450.46 242.57 450.5 242.63 450.53 242.64 450.57 242.66 450.62 242.7 450.66 242.72 450.69 242.67 450.68 242.66 450.68 242.65 450.65 242.59 450.64 242.56 450.64 242.51 450.66 242.45 450.66 242.42 450.63 242.38 450.53 242.33 450.49 242.3 450.43 242.21 450.35 242.16 450.36 242.16 450.37 242.16 450.33 242.13 450.3 242.17 450.29 242.18 450.28 242.16 450.29 242.12 450.32 242.05 450.36 241.93 450.39 241.82 450.4 241.77 450.37 241.46 450.36 241.41 450.35 241.38 450.3 241.33 450.27 241.29 450.27 241.27 450.26 241.23 450.24 241.08 450.23 241.03 450.19 240.91 450.24 240.78 450.41 240.56 450.45 240.45 450.47 240.42 450.49 240.4 450.54 240.39 450.56 240.38 450.6 240.34 450.74 240.09 450.76 240.06 450.78 240.05 450.82 240.04 450.84 240.02 450.85 239.99 450.86 239.92 450.88 239.9 450.97 239.8 451.21 239.45 451.3 239.35 451.38 239.29 451.44 239.18 451.95 238.63 452.05 238.56 452.17 238.46 452.17 238.46 452.17 238.46 452.17 238.46 452.24 238.41 452.41 238.22 452.44 238.18 452.44 238.17 452.47 238.08 452.5 238.03 452.53 238 452.56 237.98 452.64 237.96 453.04 237.95 453.16 237.9 453.21 237.79 453.22 237.75 453.22 237.71 453.22 237.64 453.22 237.6 453.37 237.52 453.41 237.48 453.44 237.44 453.44 237.43 453.43 237.42 453.41 237.38 453.39 237.21 453.44 237.12 453.44 237.12 453.38 236.98 453.37 236.91 453.38 236.83 453.32 236.82 453.26 236.78 453.23 236.73 453.26 236.66 453.26 236.64 453.2 236.64 453.14 236.61 453.11 236.57 453.11 236.5 453.13 236.44 453.18 236.4 453.25 236.39 453.3 236.43 453.35 236.41 453.42 236.41 453.49 236.39 453.52 236.33 453.49 236.29 453.3 236.18 453.15 236.05 453.12 235.99 453.11 235.95 453.11 235.91 453.1 235.88 453.08 235.85 453.05 235.83 453.02 235.82 453 235.8 453.01 235.78 453.01 235.75 452.99 235.61 452.97 235.56 452.91 235.47 452.88 235.4 452.89 235.37 452.92 235.35 452.9 235.31 452.79 235.2 452.68 235.13 452.63 235.07 452.51 234.8 452.47 234.77 452.43 234.77 452.39 234.75 452.38 234.68 452.39 234.63 452.42 234.58 452.46 234.54 452.5 234.52 452.49 234.47 452.49 234.44 452.5 234.41 452.53 234.4 452.51 234.36 452.42 234.23 452.42 234.2 452.45 234.13 452.42 234.11 452.38 234.1 452.35 234.07 452.33 234.02 452.33 234 452.35 234.02 452.37 234.01 452.38 233.95 452.37 233.92 452.31 233.75 452.3 233.72 452.3 233.69 452.33 233.64 452.35 233.62 452.38 233.6 452.59 233.55 452.65 233.55 452.8 233.6 452.86 233.6 452.94 233.64 453.01 233.71 453.07 233.77 453.16 233.76 453.49 233.46 453.74 233.29 453.8 233.2 453.86 232.96 453.89 232.89 453.97 232.77 454.02 232.72 454.07 232.71 454.62 232.66 454.75 232.7 454.8 232.7 455.42 232.6 455.62 232.49 455.72 232.46 455.82 232.46 456.2 232.56 456.63 232.57 456.93 232.57 457.12 232.53 457.59 232.62 457.75 232.62 457.81 232.63 457.96 232.76 458.02 232.79 458.54 232.81 458.56 232.83 458.56 232.85 458.56 232.88 458.56 232.92 458.59 232.96 458.62 232.97 459.11 232.99 459.53 233.17 459.67 233.2 459.9 233.12 460.09 233.13 460.18 233.15 460.24 233.18 460.26 233.24 460.25 233.31 460.25 233.41 460.27 233.48 460.3 233.51 460.35 233.52 460.4 233.51 460.47 233.52 460.46 233.59 460.43 233.66 460.41 233.72 460.44 233.75 460.49 233.75 460.58 233.72 460.71 233.74 460.76 233.74 460.81 233.71 460.87 233.64 460.91 233.62 460.99 233.62 460.99 233.62 461.23 233.72 461.35 233.72 461.39 233.74 461.41 233.82 461.4 233.91 461.32 234.09 461.33 234.1 461.34 234.12 461.37 234.15 461.4 234.18 461.43 234.19 461.47 234.19 461.49 234.16 461.6 234.02 461.61 234 461.62 233.95 461.62 233.91 461.61 233.88 461.61 233.83 461.62 233.76 461.65 233.7 461.69 233.66 461.74 233.65 461.79 233.68 461.92 233.82 461.97 233.85 462.01 233.86 462.22 233.86 462.27 233.84 462.32 233.79 462.39 233.66 462.44 233.59 462.48 233.55 462.53 233.52 462.58 233.52 462.61 233.56 462.62 233.6 462.62 233.63 462.62 233.66 462.64 233.7 462.66 233.73 462.73 233.77 462.76 233.8 462.77 233.83 462.79 233.93 462.81 233.96 462.84 233.97 462.86 233.96 462.92 233.9 463.03 233.83 463.09 233.81 463.15 233.81 463.35 233.85 463.41 233.87 463.42 233.92 463.43 233.99 463.47 234.19 463.48 234.24 463.5 234.28 463.54 234.3 463.57 234.28 463.6 234.26 463.63 234.27 463.64 234.31 463.66 234.38 463.68 234.41 463.72 234.37 463.73 234.31 463.73 234.18 463.73 234.12 463.78 234.02 463.84 233.95 463.91 233.89 463.98 233.85 464.05 233.84 464.18 233.84 464.24 233.81 464.28 233.77 464.34 233.66 464.38 233.61 464.42 233.6 464.47 233.6 464.56 233.62 464.61 233.65 464.64 233.69 464.69 233.82 464.76 233.94 464.79 233.99 464.79 234.09 464.77 234.18 464.79 234.22 464.83 234.25 464.87 234.3 464.9 234.37 464.91 234.45 464.94 234.51 464.99 234.54 465.04 234.52 465.07 234.5 465.13 234.45 465.18 234.43 465.27 234.47 465.32 234.47 465.35 234.41 465.38 234.33 465.4 234.28 465.43 234.27 465.49 234.26 465.54 234.24 465.58 234.2 465.61 234.15 465.65 234.11 465.7 234.09 465.75 234.09 465.8 234.09 465.83 234.12 465.87 234.18 465.89 234.24 465.92 234.28 466.12 234.31 466.16 234.3 466.18 234.28 466.22 234.21 466.25 234.19 466.27 234.19 466.31 234.21 466.33 234.21 466.47 234.14 466.52 234.13 466.83 234.12 466.89 234.13 466.96 234.18 467.04 234.29 467.07 234.33 467.18 234.38 467.21 234.41 467.22 234.43 467.23 234.46 467.23 234.48 467.23 234.52 467.23 234.55 467.21 234.62 467.2 234.63 467.22 234.66 467.29 234.75 467.32 234.78 467.35 234.79 467.42 234.79 467.45 234.8 467.48 234.83 467.53 234.9 467.57 234.92 467.6 234.91 467.63 234.92 467.65 234.94 467.68 234.97 467.7 235 467.72 234.99 467.73 234.97 467.73 234.97 467.73 234.89 467.74 234.88 467.78 234.81 467.79 234.76 467.85 234.71 467.91 234.64 467.9 234.54 467.93 234.53 467.93 234.51 467.91 234.49 467.9 234.47 467.88 234.37 467.87 234.35 467.84 234.33 467.82 234.33 467.8 234.32 467.79 234.28 467.8 234.23 467.82 234.21 467.84 234.2 467.87 234.2 467.87 234.18 467.85 234.17 467.82 234.15 467.81 234.13 467.79 234.08 467.81 234.05 467.8 234.03 467.77 234 467.75 233.98 467.77 233.97 467.78 233.95 467.79 233.91 467.76 233.89 467.68 233.87 467.66 233.84 467.66 233.82 467.67 233.81 467.68 233.8 467.69 233.8 467.7 233.79 467.7 233.77 467.68 233.76 467.64 233.72 467.64 233.69 467.71 233.63 467.73 233.62 467.73 233.59 467.72 233.57 467.73 233.56 467.75 233.54 467.76 233.52 467.75 233.47 467.78 233.4 467.76 233.35 467.79 233.34 467.86 233.34 467.89 233.33 467.9 233.29 467.9 233.25 467.91 233.21 467.93 233.18 467.93 233.16 467.91 233.15 467.87 233.13 467.9 233.1 467.95 233.07 467.99 233.03 467.98 232.97 467.97 232.94 467.97 232.92 467.98 232.91 467.99 232.89 468.04 232.82 468.05 232.81 468.06 232.8 468.07 232.78 468.08 232.75 468.13 232.73 468.13 232.7 468.14 232.67 468.14 232.64 468.16 232.64 468.23 232.64 468.25 232.63 468.27 232.61 468.3 232.57 468.3 232.55 468.28 232.53 468.28 232.51 468.28 232.5 468.34 232.47 468.37 232.45 468.4 232.43 468.43 232.4 468.45 232.37 468.45 232.36 468.45 232.34 468.45 232.32 468.47 232.3 468.49 232.28 468.5 232.28 468.51 232.28 468.53 232.3 468.59 232.3 468.61 232.25 468.58 232.2 468.52 232.2 468.53 232.18 468.53 232.16 468.54 232.14 468.55 232.13 468.54 232.06 468.57 232.03 468.63 232.01 468.93 231.99 469.02 232 469.07 232.03 469.17 232.12 469.22 232.14 469.28 232.12 469.31 232.06 469.35 231.99 469.39 231.93 469.57 231.85 469.77 231.85 470.16 231.93 470.41 231.92 470.55 231.9 470.62 231.92 470.67 231.97 470.68 232.03 470.68 232.09 470.69 232.15 470.73 232.17 470.77 232.17 470.89 232.11 470.97 232.1 471.1 232.13 471.15 232.13 471.45 231.99 471.55 231.91 471.61 231.77 471.64 231.55 471.66 231.49 471.68 231.47 471.71 231.45 471.73 231.43 471.75 231.39 471.74 231.36 471.7 231.28 471.69 231.24 471.72 231.12 471.81 231.1 472 231.17 472.1 231.14 472.54 231.37 472.61 231.37 472.74 231.33 472.8 231.33 472.84 231.35 472.91 231.4 472.95 231.41 472.99 231.39 473.22 231.18 473.26 231.16 473.28 231.17 473.31 231.18 473.33 231.18 473.34 231.16 473.37 231.11 473.39 231.09 473.43 231.08 473.46 231.05 473.52 230.98 473.56 230.95 473.59 230.95 473.8 230.99 473.95 230.99 473.98 231 474.04 231.04 474.04 231.04 474.08 231.06 474.12 231.05 474.15 231.03 474.18 231.01 474.22 230.99 474.26 231.05 474.24 231.19 474.28 231.24 474.33 231.24 474.48 231.09 474.68 230.99 474.78 230.98 474.88 230.98 474.93 231 474.96 231.03 474.98 231.08 475.01 231.15 475.05 231.19 475.15 231.25 475.19 231.31 475.24 231.43 475.27 231.47 475.42 231.56 475.45 231.61 475.49 231.66 475.51 231.71 475.52 231.74 475.53 231.78 475.53 231.82 475.49 231.9 475.49 231.92 475.5 231.98 475.51 232.1 475.52 232.17 475.54 232.23 475.59 232.3 475.6 232.37 475.58 232.42 475.58 232.45 475.69 232.45 475.74 232.48 475.82 232.59 475.83 232.6 475.86 232.62 475.87 232.64 475.88 232.66 475.89 232.7 475.89 232.71 475.91 232.72 475.95 232.7 475.98 232.7 476.02 232.73 476.09 232.81 476.14 232.84 476.19 232.9 476.22 232.93 476.28 233.07 476.28 233.22 476.2 233.32 476.16 233.33 476.03 233.33 475.65 233.42 475.56 233.47 475.54 233.55 475.57 233.59 475.65 233.61 475.68 233.63 475.69 233.66 475.7 233.73 475.71 233.76 475.72 233.79 475.82 233.9 475.84 233.95 475.86 234.01 475.87 234.09 475.86 234.12 475.84 234.19 475.84 234.22 475.84 234.26 475.85 234.29 475.85 234.32 475.85 234.36 475.83 234.38 475.78 234.39 475.77 234.41 475.78 234.44 475.8 234.47 475.84 234.51 475.88 234.53 475.91 234.55 475.95 234.55 475.99 234.55 476.03 234.53 476.05 234.65 476 234.77 475.91 234.86 475.78 234.95 475.94 235.02 475.99 235.03 476.03 235.01 476.11 234.94 476.19 234.92 476.27 234.94 476.43 234.99 476.5 235.02 476.65 234.99 476.72 235 476.75 235.04 476.76 235.08 476.77 235.14 476.79 235.19 476.82 235.22 476.86 235.24 477.02 235.25 477.18 235.21 477.36 235.14 477.46 235.07 477.5 235.07 477.54 235.09 477.58 235.12 477.62 235.11 477.67 235.09 477.72 235.08 477.76 235.1 477.79 235.13 477.8 235.18 477.86 235.51 477.9 235.62 477.97 235.68 478.04 235.69 478.19 235.66 478.27 235.66 478.31 235.68 478.35 235.7 478.37 235.74 478.35 235.8 478.32 235.83 478.2 235.85 478.21 235.89 478.21 235.96 478.21 235.99 478.21 236.02 478.23 236.05 478.29 236.06 478.31 236.08 478.34 236.12 478.34 236.16 478.34 236.21 478.34 236.26 478.36 236.3 478.4 236.37 478.42 236.41 478.43 236.46 478.42 236.5 478.42 236.54 478.45 236.57 478.51 236.6 478.54 236.63 478.56 236.66 478.57 236.76 478.57 236.84 478.57 236.92 478.62 236.99 478.45 237.06 478.42 237.11 478.42 237.15 478.53 237.57 478.57 237.66 478.65 237.69 478.7 237.7 478.74 237.71 478.78 237.75 478.81 237.8 478.83 237.89 478.83 237.95 478.85 238 478.9 238.06 478.94 238.09 478.98 238.11 479.03 238.12 479.08 238.13 479.12 238.11 479.13 238.11 479.16 238.07 479.18 238.03 479.22 237.98 479.24 237.98 479.28 237.97 479.3 237.97 479.32 237.94 479.37 237.88 479.4 237.85 479.44 237.84 479.65 237.82 480.03 237.85 480.1 237.88 480.11 237.94 480.18 237.98 480.4 238.33 480.45 238.36 480.5 238.35 480.55 238.33 480.6 238.3 480.64 238.25 480.66 238.24 480.69 238.24 480.71 238.25 480.75 238.28 480.8 238.29 480.86 238.33 480.94 238.35 480.96 238.36 480.99 238.38 480.99 238.39 480.99 238.4 480.98 238.48 480.98 238.51 480.99 238.54 481.02 238.57 481.07 238.59 481.12 238.6 481.17 238.59 481.21 238.56 481.23 238.54 481.26 238.46 481.28 238.43 481.31 238.4 481.68 238.18 481.83 238.13 481.97 238.12 482.13 238.14 482.45 238.05 482.52 238 482.65 237.87 482.71 237.84 482.94 237.81 482.98 237.83 483.01 237.92 483.04 238.04 483.08 238.13 483.28 238.22 483.34 238.3 483.35 238.44 483.33 238.52 483.32 238.56 483.33 238.6 483.34 238.62 483.42 238.7 483.63 239.03 483.71 239.09 483.88 239.17 483.97 239.22 484.05 239.29 484.11 239.38 484.19 239.5 484.19 239.51 484.22 239.57 484.22 239.62 484.23 239.65 484.28 239.61 484.38 239.55 484.41 239.54 484.43 239.55 484.47 239.57 484.5 239.58 484.6 239.51 484.61 239.36 484.6 239.2 484.62 239.09 484.65 239.09 484.8 239.1 484.86 239.09 484.9 239.09 484.93 239.13 485 239.33 485.02 239.37 485.07 239.39 485.16 239.4 485.2 239.41 485.26 239.45 485.34 239.48 485.5 239.45 485.61 239.47 485.63 239.46 485.65 239.45 485.7 239.43 485.71 239.42 485.71 239.43 485.72 239.5 485.73 239.55 485.74 239.58 485.76 239.6 485.89 239.69 486.12 239.76 486.2 239.83 486.25 239.92 486.31 239.98 486.52 239.96 486.56 239.95 486.6 239.91 486.67 239.81 486.71 239.77 486.8 239.73 486.85 239.78 486.86 239.79 486.98 240.11 487.03 240.18 487.09 240.22 487.18 240.24 487.26 240.22 487.35 240.18 487.43 240.16 487.51 240.21 487.56 240.23 487.69 240.25 487.71 240.28 487.74 240.36 487.77 240.51 487.83 240.62 487.9 240.67 487.98 240.69 488.07 240.74 488.18 240.85 488.23 240.87 488.29 240.87 488.36 240.86 488.42 240.83 488.48 240.8 488.61 240.66 488.66 240.64 488.71 240.64 488.92 240.7 488.93 240.71 488.96 240.74 488.95 240.81 488.91 240.86 488.83 240.91 488.79 240.94 488.74 241.05 488.76 241.16 488.8 241.26 488.89 241.4 488.99 241.52 489.02 241.58 489.02 241.64 488.98 241.75 488.98 241.87 488.96 241.91 488.91 241.93 488.87 241.97 488.79 242.09 488.75 242.13 488.62 242.22 488.56 242.28 488.51 242.36 488.5 242.41 488.5 242.51 488.49 242.54 488.46 242.56 488.43 242.56 488.36 242.55 488.29 242.55 488.11 242.61 488 242.61 487.96 242.63 487.94 242.8 487.97 242.85 488.02 242.88 488.06 242.92 488.09 242.98 488.11 243.02 488.13 243.05 488.18 243.08 488.36 243.12 488.44 243.11 488.46 243.11 488.49 243.13 488.53 243.19 488.56 243.2 488.61 243.17 488.64 243.12 488.69 243.08 488.74 243.09 488.79 243.14 488.78 243.21 488.75 243.27 488.71 243.33 488.61 243.41 488.52 243.42 488.28 243.32 488.23 243.33 488.18 243.35 488.13 243.4 488.12 243.44 488.1 243.47 488.08 243.5 488.03 243.53 488.01 243.55 487.87 244.01 487.85 244.09 487.94 244.08 487.98 244.07 488.24 244.1 488.3 244.13 488.35 244.19 488.36 244.28 488.36 244.3 488.37 244.32 488.38 244.34 488.38 244.35 488.37 244.37 488.35 244.38 488.33 244.38 488.32 244.38 488.32 244.43 488.34 244.46 488.37 244.48 488.44 244.63 488.46 244.72 488.48 244.76 488.5 244.79 488.45 244.84 488.41 244.89 488.26 245.02 488.41 245.11 488.46 245.11 488.57 245.07 488.62 245.08 488.65 245.13 488.65 245.2 488.62 245.26 488.58 245.3 488.47 245.38 488.43 245.43 488.32 245.64 488.29 245.71 488.29 245.78 488.32 245.89 488.32 245.92 488.31 245.92 488.3 245.92 488.18 245.94 488.15 245.96 488.13 245.99 488.14 246 488.16 246.02 488.18 246.06 488.21 246.13 488.21 246.16 488.21 246.22 488.2 246.24 488.18 246.29 488.17 246.32 488.17 246.35 488.18 246.39 488.19 246.41 488.17 246.51 488.13 246.59 488.08 246.64 488 246.66 487.78 246.6 487.71 246.59 487.58 246.62 487.51 246.61 487.46 246.59 487.37 246.62 487.32 246.62 487.28 246.6 487.2 246.55 487.16 246.54 486.83 246.57 486.75 246.6 486.7 246.6 486.66 246.59 486.54 246.51 486.53 246.51 486.18 246.49 486.08 246.54 486 246.63 485.94 246.76 485.9 246.91 485.89 247.05 485.86 247.1 485.81 247.1 485.74 247.07 485.7 247.08 485.66 247.11 485.58 247.2 485.54 247.24 485.48 247.27 485.02 247.33 484.94 247.38 484.88 247.47 484.84 247.59 484.81 247.7 484.82 247.94 484.81 248.03 484.75 248.13 484.68 248.22 484.66 248.28 484.65 248.33 484.68 248.36 484.72 248.37 484.8 248.36 484.84 248.36 484.88 248.37 484.9 248.41 484.89 248.48 484.86 248.52 484.82 248.56 484.77 248.58 484.73 248.61 484.68 248.68 484.67 248.78 484.68 248.88 484.71 248.97 Z" fill-rule="evenodd" id="Ukraine" transform="translate(-449.05999755859375,-230.9499969482422) "/></svg>