<svg xmlns="http://www.w3.org/2000/svg" viewBox="0 0 34.27999878 42.8999939"><path fill-rule="evenodd" d="m16.4100061 42.88999329-.02.01-.03-.01.01-.05.02-.03.01.01.02.04-.01.03Zm-.08-.12-.02.02-.02-.01-.01-.04v-.03l.01.01.01.01h.01l.01.01.01.03Zm11.15-2.86.33.14h.08l.03.02v.05h.03l.05.07v.03h-.02l-.01.01v.01l-.09.03-.03.01-.06.06-.02.02v.13l-.01.01-.25.08-.08-.03-.29-.2-.01-.02-.07-.06-.03-.01-.08.01-.04.02-.04.02.05-.09.09-.08.2-.09-.01.01-.01.02v.02l.05-.01.06-.04.07-.1.06-.03.05-.01Zm.79-.05v.02l-.18-.02v-.03l.05-.02.05-.1.03.01.02.01.01.03-.01.01-.02.02v.02l.01.01.02.03.02.01Zm-8.26-1.32-.01.01-.02-.02v-.09l.02-.01v.03l.01.01v.07Zm12.42-.73-.06.02-.26-.02-.04-.02-.04-.04-.03-.04-.02-.05.03-.09.01-.03h.03l.27.09.03.01.02.02.05.05.02.06-.01.04Zm-12.4-7.05h.03l.04-.01.01.02.03.03.03.04.03.04v.05l.01.02.02.03.02.03-.02.04h-.01l-.03-.01-.04-.04-.05-.08-.02-.03h-.1l-.03-.07v-.03l.05-.05.03.02Zm1 .08h.06l.05-.02h.03l.01-.01.02-.03.01-.01h.02l.03.02H21.3300061l.03.01.03.02-.05.05-.07.14-.06.04-.05.01-.06.02-.05.05-.04.04-.01.02h-.01v.08h-.02l-.07.05-.04.05-.14.08-.02.01-.03-.01-.06-.02v.01l-.01.01-.02.01-.01-.01v-.09l.01-.01.01-.02.03-.03.01-.04-.02-.01-.04.02-.05.07-.03.01v-.01l-.07-.07h-.01l-.02.01v-.01l-.01-.01.01-.03v-.02l-.01-.02v-.03l-.05-.04-.07-.15-.04-.05v-.03l.01-.03v-.14l.02-.12-.01-.06-.02-.05.04-.03.28-.1h.03l.15.03h.04l.09.05.02.02.01.04.01.05v.03l.03.02.03.01.01.01.01.01-.01.03v.02l.01.01v.01l.04.04.01.04v.04l.01.02Zm-4.58-2.99-.03-.03-.03.01-.04.01-.03.01-.02-.02-.02-.02-.02-.01-.03.05v.03l.01.03v.03l-.01.03-.02.01-.05.01-.06.02h-.01l-.02-.01-.01-.02-.01-.01v-.01l-.06.01-.19.07-.02-.01-.03-.01h-.02l-.01.02-.01.01-.01.02-.02.01-.03-.02-.06-.07-.03-.03.03-.09.01-.04-.03-.04.05-.07.02-.07-.01-.06-.02-.02-.03-.04-.05-.04-.02-.02h-.03l-.02.01-.02.03-.01.02h-.03l-.05-.04-.05-.04-.04-.05-.04-.06-.01-.03-.01-.04-.01-.03-.02-.03-.08-.04.04-.02.02-.04v-.05l-.03-.07-.02-.06-.01-.02h-.03l-.02-.01-.02-.06-.01-.03-.14-.11-.08-.04h-.07l-.06.07-.11.17-.07.05H14.4100061v.01l-.01.01.01.03.01.02-.01.04h-.01l-.01.01h-.03l.01.04.07.04-.01.05.08.07-.03.04.01.06-.04.04-.13.03-.02.02-.02.02-.01.02-.02.04.02.01.02.02v.02l-.04.02.01.04-.01.04-.02.03-.02.02-.03.02-.01-.01.01-.04v-.08l.01-.02-.01-.01-.07.04-.02.02v.02l.06.11h-.04l-.11-.03h-.04l-.01-.02-.01-.03h-.04l-.01-.01.02-.03h-.05l-.09.07-.05.01-.24-.06-.02-.02-.01-.03v-.03l-.02-.03-.16-.12h-.04l-.13.01-.12-.02-.05-.03-.02-.06-.01-.16-.02-.06-.03-.03-.09-.01-.01-.01-.02-.01-.04-.04-.03-.05-.05-.12h-.06l-.06-.03-.05-.06-.09-.13-.06-.06-.02-.03v-.03l-.01-.03-.03-.03h.01l.04-.03.12-.03.06-.03.02-.03.01-.01.03-.06.05-.06.04-.06.17.04.09.01.08-.04.22-.21.09-.03v-.08h-.03l-.03.02-.04.02-.03-.01-.07-.07-.03-.01h-.02l-.03.03h-.02l-.02-.02-.02-.05-.02-.01-.04-.01-.04-.03-.01-.04.01-.05-.01-.01-.04-.03.11-.06.08-.07h.03l.06.05.08.04h.07l.08-.05.07-.07.04-.03.08.02.07-.02.04.03h.02l.03-.01v-.01l-.01-.02-.01-.02v-.1l.02-.05.16-.2.03-.07.03-.08v-.04l-.01-.1.01-.05.01-.02.05-.02.02-.03v-.03l-.01-.1.01-.03h.01v-.04l.06-.1.02-.02.03-.02.14-.03.02-.02.01-.02.02-.03.05-.01-.03.07h.04l.1-.03h.04l.1.05.07.01.08-.01.02-.02.05-.06.04-.02-.01-.05.02-.07.03-.07.02-.02.03-.04.01-.17.02-.06h.03l.1.06.04.02.29-.01.25-.12.15-.01.04-.03.03-.05.05-.04.05-.02.05-.01.07.05.06.02.08-.06.06.01.21.13.04.01.05-.01.08-.04h.05l.08.01.05.02.02.03.01.01.09.09.02.04-.01.22-.02.06-.03.09.02.03.04.01.04-.01.03.01.04.01.02.03.02.03v.07l-.04.15v.02l.07.01.05.04.06.04.04.07.01.03.02.06.01.03.01.01.04.04.02.01.02.03.02.04.01.05.01.06.02.1.06.04.06.02.06.08h.01l-.04-.08-.14-.15.03-.07.07.02.07.06.04.07.03.12-.01.11-.03.08-.05.06-.07.03-.13.04-.06.03-.06.05-.04.06-.05.1-.03.05.03.02.01.03v.04l.01.02h.02l.02-.02.01-.02.03-.03.05-.08.02-.02.07-.04.08-.06.05-.02.03.01.04.03h.05l.26-.04.02.01.02.06.02.01.03.01v.02l.01.03v.04l.04.14.02.05.04.02.02.03.01.15.01.06.07.1.01.01-.01.04v.02l.01.02v.02l-.02.02-.04.07-.01.04.01.07-.01.06-.02.03-.03.02-.01.03.03.05-.03.01-.03.06h-.03l-.02-.02-.02-.06-.03-.07-.02-.02-.03-.03-.01-.04-.01-.04.02-.05.05-.06.01-.06-.01-.12-.02-.09-.04-.06-.15-.15-.06-.03-.07-.01v.03l.02.04-.01.03-.02.04-.02.02h.03l.03.02.02.02.01.01h.08l.03.03-.04.01-.04.01-.02.02.07.03-.01.05v.04l.01.04.03.01v.01l-.01.01-.01.03.02.02-.06.2-.02.04-.08.06-.02.04.09-.03.1-.06.09-.03.07.07.02.14-.03.11-.06.09-.07.08h-.01l-.03-.01-.01.01-.01.07-.02.01-.02.01h-.01l-.01-.03-.03-.03-.13-.01-.09.01-.1.04h-.04l-.04.02-.02.05.01.13v.01l-.01.07-.01.08-.02.08-.02.06-.04.05-.1.04-.07.08-.09.07-.03.01-.09.01-.03-.01-.04-.03v-.02l.04-.02h.02l-.17-.07h-.03l-.02-.07-.06-.02-.07-.01-.04-.01-.02.02Zm.21-4.61.01.04-.01.05-.03.04-.01.03v-.07l.01-.02-.05-.04h-.11l-.05-.01.03-.02.02-.02.03-.01h.03l.11.02.02.01Zm2.35-.53-.11.02-.12-.01-.1-.04-.09-.06-.09-.08v-.05l-.02-.11-.01-.03v-.02l.01-.01.01-.01v-.01l.01-.02-.05-.08-.05-.08-.02-.09.02-.13.03-.08.05-.09.07-.06.07-.01v-.02l-.01-.03v-.01H18.6800061l.15.07.04.04.04.07.03.09.05.19-.03.05.1.1v.09l-.02.01-.03.01-.02.01.01.05.02.02.09.04-.05.03v.05l.03.06v.07l-.03.03-.05.03Zm.24-1.13-.02.02h-.03l-.02-.03-.02-.07-.15-.14-.02-.07-.03-.11v-.05l-.08-.05-.01-.03-.02-.06-.03-.07v-.06l.08-.04.07.06.06.08.02.01h.02l.02.01.01.09.02.02.02.01.02.02.02.05.02.05.02.06.02.12v.02l-.02.02-.02.06.02.01.02.03.01.04Zm-2.43-.4.01.11.01.04.03.04.04.03.02.02.01.01-.01.03-.01.04v.02l.01.02.02.02.03.02v.09l.01.04.01.03v.02l-.03.02-.02.01-.02.02-.01.04-.01-.03-.04.06-.05.05-.06.03-.06.02-.1-.02-.03.02-.01.08-.01.02-.02.02-.06.05-.06.02-.05-.02-.03-.09.01-.09.05-.05.12-.07-.05-.14-.02-.03-.09-.05h-.02l.01-.07.05-.07.11-.1-.05-.03-.07-.01-.06.01-.04.04-.06.14-.03.06-.07.05-.07.11-.03.03-.06.01-.03-.04.01-.06.02-.07-.01-.01-.01-.01-.01-.01.03-.06.1-.15-.08-.05.03-.03.02-.02.01-.04v-.06l.01-.05.01-.03.08-.06.12-.06.03-.03.03-.02.02.02-.01.02-.03.11v.03l.02.07.01.03.03.01v-.03l-.02-.08.05-.09.07-.07.08-.05.06-.07.03-.02.03-.01.03-.02.03-.02.02-.03.02.01.02.01v.03l.01.17.03.22Zm-.07-1.12-.07.13-.02.08v.07l-.04.03-.06.02h-.06l-.05-.03.04-.03.01-.04.01-.06.02-.04.05-.06.01-.03.02-.01.04.01.01-.01v-.02l-.01-.01v-.02l.03-.01.04-.02.02.01.01.04Zm.79.37-.19.37-.05.16-.02-.01-.06.07-.03.02-.02.03-.02.15-.02.06-.05.04-.09-.01-.08-.05-.03-.1-.02-.19v-.07l.02-.06.04-.03.03-.02.04-.04.07-.05.17-.03.07-.07h-.05l-.08.03h-.08l-.03-.07.03-.09.06-.1.07-.08.04-.04.07-.02.17-.17.11-.11.07-.05.05.03.01.03v.11l-.04.03-.03.06-.04.05-.09.22Zm.12-.57-.05.01.02-.06.04-.04.07-.06.02.03.01.06-.04.04-.07.02Zm.25-.4v.06l-.01.06-.03.05-.02.13-.02-.03-.04-.1.02-.04.03-.1.02-.03.02.02.01.01h.01l.01-.03Zm.06-.24-.01.04-.02.04-.02.03.02.05-.05.03-.04-.02-.02-.07.03-.08.03-.02.05.01.03-.01Zm.18-.38-.03.06-.04.05-.05.02h-.06l.01-.04.01-.02.04-.05.07.01.03-.01.02-.02Zm-1.45-.2-.12.01-.06-.01-.05-.05.02-.04.02-.03.03-.01.03-.01.04.04.06.05.03.05Zm-1.6.1h-.05l-.14-.06-.02-.05-.01-.06-.02-.07.04-.02.15-.03.05-.02.09-.05.05-.01.11-.05.06.01.02.07-.03.05-.13.01-.01.07-.04.04-.05.01-.05.02-.04.07.02.07Zm1.88-.7.05.08.09.22.01.03v.04l.03.01h.22l.02.02.01.02.02.02.03-.03h.05l.01.01.05.08.02.02.02.01.04-.01h.02l.02.02.03.04.03.04.01.05.01.01.04-.01.02.02-.01.08-.02-.02h-.02l-.04-.01.02.03.03.05.02.06-.03.02-.07.01-.03-.02v-.04l-.01-.02-.02-.01h-.03l.01.05-.03.05-.07.07v.03l.03-.03.04-.02.09-.01.03.02-.01.04-.04.05-.2.13-.08.02-.07-.04.01-.02.02-.02.02-.04.01-.03-.02-.02h-.03l-.05.02-.01.01-.02.03-.01.03-.02.01-.08.02-.17.09-.04.04-.03.02-.02-.01-.03-.01-.03-.01h-.02l-.05.04-.03.01h-.2l-.01.02-.01.02-.02.03-.02.01h-.03l-.05-.01-.06-.04-.04-.04-.03-.07-.01-.07.02-.06.05-.03.05-.01.05.01.03.04.03.06.03.03.04-.03v-.02l-.01-.01h-.01l-.01-.01-.01-.01.04-.02.1.02.03-.01.04-.04.15-.03.1-.07.04-.05-.01-.02-.04.01-.13.08-.11.02h-.06l-.04-.04-.01-.04.01-.04.02-.03.03-.01.02-.01.02-.02.03-.08.01-.03.01-.03.02-.02.02-.01.08.01.13-.07.03-.02.01-.04v-.04l-.01-.03-.02-.03-.14.08-.05.01-.01.01-.02.01-.02.01-.02-.02-.04-.08-.02-.04-.03-.03-.04-.02-.21-.04-.04-.02-.04-.03-.03-.03.11-.08-.02-.04-.05-.05-.01-.05h.08l.04-.02.03-.03.02.03.02.01h.02l.02-.01v-.08l.07-.05.08-.03.08-.01.03.02.1.04v.01l-.01.05v.02h.07Zm-1.18.08-.12.1-.03.01-.06-.02h-.02l-.01.03-.01.05-.02-.03-.02-.05-.02-.03.06-.02.06-.05.1-.17.03-.03.07-.05.05-.03.07-.06.03-.01.07-.01.02.01-.02.04-.02.04-.03.09-.02.03-.01.02-.02.02-.02.01h-.03l-.08.11Zm-1.81-1.57.02.02h-.07l-.02.02-.02.02-.01.02-.02.01-.02.01.02.04-.02.03-.04.01-.03.01-.15-.03-.03-.02v-.04l.03-.03.03-.02.03-.02.01-.04-.01-.05-.02-.03.06-.04.05-.01.04-.04.02-.11.01.01.02.02h.01l.02.01.01.01v.01l-.03.07-.01.02.07.03.02.02.01.03.01.03.01.03Zm2.46-.12v.03h.06l-.03.15-.04.08-.06.04-.09.01-.04-.02-.03-.1-.04-.02-.03-.02-.07-.07-.04-.02.13-.16.07-.05.09-.02.12.08.04.06-.04.03Zm-.54-.13-.08.01h-.07l-.05-.02.03-.03.08-.04.04-.01.02.02.06.01.02.02-.05.04Zm1.31-.99-.08.03-.06-.02-.05-.05-.01-.06.05-.03.08.01.06.06.01.06Zm-3.17-.47.2.14-.02.01h-.02l-.04-.01v.03h.05l.07.07.05.01v.03l-.06.03-.05-.02-.04-.04-.09-.06-.05-.06-.04-.05-.05.03.01.01.02.02.01.02.01.02v.03l.02.01h.04l.05.03.01.01.03.05.03.01.07.01.03.01.03.02.02.04.02.02h.04l-.01.06-.02.02-.03.01-.02.04-.02.03-.02.09-.02.03-.04.02-.17-.05v.03l.14.04.04.04.02.07.01.08v.08l-.03.05-.04-.02-.04-.01h-.08v.03l.04.01.08-.01h.03l.04.03.02.05.03.03h.04v.03l-.05.05-.18-.03-.07.04-.06-.08-.02-.04-.06-.22-.01-.06.01-.05v-.03l-.03-.05-.03-.02-.03-.01.03-.03.02-.03.03-.08.01-.04v-.04l.01-.02.03-.01.02-.06-.03-.12-.06-.19.05-.03.1-.05h.02Zm.14-.32.01.01h.05v.02h-.01l-.01.01.02.01h.02l.02-.01h.03l.07.05-.02.03-.03-.02-.05.05h-.04l.01.04.02.02h.05l.03.01.02.03v.02l-.19.06-.06-.01-.17-.11-.03-.05.01-.07.03-.07.04-.04h.06l.02.02.03.01.03-.01.02-.02.02.02Zm2.9-.05-.01.06-.04.12-.03.15v.12l.02.03.03.07.01.07-.03.03-.04.01-.04.03-.03.01-.04-.02.01-.03v-.01l.01-.02-.03-.04v-.06l.02-.27.01-.07.04-.03.06-.01v-.03l-.01-.01-.01-.03-.02-.04.02-.03h.02l.05.03v-.03l-.03-.06.02.01.01.01.02.02.01.02Zm.03-.15v.07l-.03-.02-.02-.05.01-.05.02-.05-.01-.01v-.02l.01-.03.02-.02h.01l.02.02-.03.16Zm-17.11-.26h-.01.01Zm14.4-.24.04.02.07-.03.03.02h.08l.04.03.02.05-.02.02-.04.07-.02.02-.03-.01-.02-.03-.02-.03-.01-.02h-.03l-.05-.05h-.1v.03h.03l.02.01v.01l-.01.03v.03h.06l.02.02.01.05.01.04h.04l.07-.02-.05.09-.05.03-.13.02h-.01l-.04.02h-.01l-.02-.01-.02-.06-.01-.01-.02.01-.1.07v.04h.16l.13-.04h.05l.03.02.02.01.01.03-.01.03-.05.08h-.13l-.04.03-.04-.02h-.07l-.04-.01-.02-.01-.01-.01-.03-.05-.01-.02-.01-.02-.01-.02.02-.01.04-.03h-.08l-.13-.09-.07-.02-.01.03-.02.02-.01.01-.02-.01-.03-.02-.03-.01-.1-.07v-.03l.05-.04.03-.07.03-.08.04-.07.04.03.16-.03v.03h-.02l-.05.03.04.05.07-.07.07-.1.05-.05v.03l-.01.01-.01.02-.02.05.12.05.04.01v-.03h-.01l-.03-.03.05-.02.1-.08.06-.01.03.04.01.04-.02.03-.04.03Zm1.95-.2.02.05.02.02.05.05.02.02.06.1v.02l.1.08.05.06.02.04.01.03.02.29.02.12v.12l-.02.09-.01.06-.01.03-.06.06-.02.03.03-.02.04-.03.04-.01.03.01.02.04-.01.04-.03.03-.01.03.01.07.03.04.04.03.01.03-.02.03-.07.05-.03.03.19-.03.05.02.01.03-.03.04-.05.02v.03l.06-.01.05-.02.04-.01.05.06.02.01h.09l.03.02.02.03.02.04.01.02.03.01.02-.02.02-.03.01-.01h.09l.06-.06.06-.03h.07l.04.05h.16l-.03.11v.02l.01.05-.01.04-.02.03-.04.06-.09.07-.03.02-.09.01-.01.02-.01.09-.02.06-.04.04-.05.02-.02.02-.02.04-.13.18-.04.04-.04.02-.11.03-.04-.02-.02-.05.01-.07.06-.09-.01-.03v-.03l.02-.01v-.01l.01-.04.01-.02.01-.02.04-.08.02-.02.03-.03.21-.11v-.02l-.06.03-.06.02h-.19l-.01-.01v-.02l-.01-.03v-.02l-.05-.09-.03-.04-.03-.01.01.04.01.03.03.07-.03.06-.01.02-.02.03.01.03-.02.03-.02.05-.02.04-.04.01-.02-.03-.02-.07-.01-.08v-.06l-.02-.03h-.01l-.01.01-.02.02-.02-.03-.01-.02-.02-.01h-.03v.03l.04.03-.04.03-.32.08v-.03l.03-.02.07-.09v-.03h-.04l-.04.01-.04.02-.04.03-.04-.07-.03-.08.02-.01.02-.01.02-.02.01-.04-.1.01-.03-.01-.11-.14-.01-.01-.01-.04v-.02l-.01-.02-.01-.01-.01-.01-.01-.03.1-.07.05-.02.05.01.04.03.04.05.04.04.06.02-.03-.06-.14-.11-.03-.04-.01-.01-.03-.01-.02.01-.05.02h-.03l.04-.03v-.03h-.02l-.04-.02.01-.01.01-.01v-.01l-.02-.01-.01-.03-.01-.03.02-.04h-.04l-.04.06-.03.02.01-.04v-.04l-.01-.03-.02-.03-.01.05-.03.02-.03.01-.02.03v.05l.02.07v.05l-.04.03-.2-.07-.05-.03-.04-.05-.02-.06-.02-.11-.09-.07-.03-.09h.14l-.03-.04-.02-.04-.01-.05.02-.05.03-.05.02-.01.02.01.12.18.02.04.02.02.04.03.02.01-.01-.05v-.03l.01-.01.01-.01.01-.01-.04-.04v-.01l-.01-.01-.02-.03v-.04l.02-.01.01-.01.01-.02h.04l.07.03-.02-.07-.06-.07-.07-.04-.05-.02.03-.04.02-.06.01-.06-.03-.03v-.03h.05l.03.03.02.04.05.03.01.03v.04l.01.03.02.02.02.02.1.05.02.02.03.04.03.04.03-.01.03-.01h.04l-.05.12h.02l.05-.06.02-.08.03.02.17.22v-.03l-.01-.01-.01-.03-.01-.01v-.06l-.03-.05-.08-.09-.03-.09v-.04l.03-.04.03-.08h-.05l-.02-.02-.02-.01.01-.06-.01-.03-.02-.03-.01-.02v-.07h.02l.09-.06.01-.01.02-.05.01-.05.02-.03.03.01.02-.01.01-.02Zm-1.9-.05-.07.03-.05-.01.09-.1.05-.01.02.04-.04.05Zm-3.1-.38-.05.01-.05-.03-.02-.09.03.03.09.01.03.02-.03.05Zm3.48-.45v.09l-.03.02-.08-.05v.04l-.02.03-.02.01-.03.01V12.82999329l.09-.09.05-.03.04.03Zm.3-1.41.07.08.03-.02.02.02.01.03.02.03.01.04h-.19v-.03h.03v-.03l-.02-.01-.03-.04v-.05l.01-.04.04.02Zm1.48-.44.03.01h.03v.03l-.05.03-.1.07-.03.05.01.03-.01.03-.01.02h-.03l-.03.02-.02.06-.06.02-.01.03.01.04-.01.03-.02.02-.02.01h-.06l.04.07.08.03.09-.01.06-.03.11-.11.03-.02.04-.02h.03l-.02.04v.02h.01l-.01.02-.01.03-.01.01v.02l.02.04-.06.03-.02.01-.02.02-.02.04-.01.01-.04.03-.03-.01-.06-.04-.04-.02-.1.02-.04-.02-.06-.04h-.04l.05.15.03.05-.02.02-.01.01v.03l.01.03-.04.03-.11.02-.07.1-.04.02h-.02l-.03-.03h-.02l-.06.06-.12.03h-.03v.02l.08.01.29-.07.07-.04.03-.01.03.02.02.04.01.06v.05l.01.01.02.02-.02.03-.02.01-.02.01-.02.01.03.01.02.02h.06l-.04.04-.03.05-.04.04-.05.01-.21-.04-.05-.02h-.01l-.01.03.02.02.05.02.03.04.08.02.03.04v.03l-.02.02-.04.07-.02.02-.04.03h-.02l-.03-.01-.04-.02v.04h.01l.01.02h.01v.03l-.05.03-.04-.01-.04-.03-.02-.04-.02-.06-.02-.02-.02-.01-.01.02.01.05.03.05.01.02-.01.03-.07-.04-.03-.02-.01-.02-.01-.05-.06-.12-.02-.06v-.06l.03-.11.06-.06.08-.03h.09v-.03h-.22v.03l-.01.05-.05.06-.06.06-.04.03.03.05.04.12.03.03.03.01.02.04.03.03.02.03-.02.01v.01l-.02.01h-.01l.01.03.02.01.02.01.01.01.01.03v.09l-.18-.05-.07-.04-.02.01-.02.02-.01.03-.02.03.03.01.05.02.02.02.05.09.01.03-.01.03-.03.02-.04.01-.04-.01v.03h.01v.03l-.05-.01-.1-.08-.02.03.02.01.02.03.01.02-.02.04-.03.02-.06.05.01.01.01.01.01.01-.04.05-.14.09-.04.05-.01-.01-.12-.14-.02-.01-.13-.17-.03-.02-.01-.03-.01-.03v-.02l.03-.01h.03l.02.02.01.04.01.05.18-.17.03-.05.05-.02.1.01-.1-.09v-.02l.11-.07.07-.02.06.02.05.04-.03-.03-.02-.01-.02-.02v-.01l-.01-.02.04-.02.02-.01v-.02h-.13l-.03-.02-.06-.06-.03-.01h-.13l-.06-.02-.02-.07-.02.03h-.02l-.11-.08.04-.03.03-.04.02-.02h.05v-.03l-.01-.01-.01-.02.07-.01.07-.02.14-.08-.21.06h-.07l.01-.04.02-.02.02-.01.03.01v-.03h-.06l.02-.01.02-.02.01-.02.01-.04-.1.08h-.01l-.07-.14-.02-.02.02-.05-.02-.02-.02-.01-.01-.02.01-.05.02-.04v-.04l.02-.01.01-.01.01-.01.01-.03h-.02l-.01-.02-.02-.01v-.02l.17-.02.05-.02-.06-.02-.03-.03-.01-.05.01-.05.01-.03.04-.05.04.03.08.05h.02l.02-.02.12.06v.03l-.07-.01.02.06.04.07.03.04v.06l.02.09.04.08.02.04v-.12l-.01-.02-.03-.08-.02-.04.02-.01.01-.03.01-.03v-.02l.1-.02.02-.02.04-.01.06.03.05.05.03.06.06-.09-.06-.03-.02-.02-.01-.03-.01-.06-.01-.03h-.01l-.03.01-.02-.01v-.01l-.01-.04v-.01l-.03-.04-.01-.02-.01-.02.01-.01.01-.01.01-.01h.02l-.02-.03-.01-.02-.01-.01h-.02l.18-.16.04-.07.03.02.02-.01.01-.02.02-.02h.08l.05-.01.14-.08.02-.02.06-.07.39-.31.11-.14.07-.07.05.01.05.05.03.07.03.09.01.06.04.07.01.05-.04.02-.02.02-.05.17.02.03.03.02Zm6.31-1.25.02.02h.06l.15-.05.09-.01.11.09h.08l.14-.03.08.03-.02.08-.04.08-.01.07-.02.03-.04.08-.02.04-.06.05-.01.03-.03.08v.07l.03.05.04.03h.03l.03-.02h.02l.01.02.01.05-.01.04-.02.02-.02.01-.02.15-.1.19-.12.17-.08.1-.09.05-.2.07-.07.05-.12.12-.02.04-.02.07-.04.07-.09.1-.49.41-.16.08-.04.04-.02.05-.03.08-.01.03-.02.02-.05.03-.07.02-.15.1-.02.01-.01.03-.01.03v.05l-.04-.03-.01-.01.02-.02-.03-.02-.06-.01-.06-.03-.01.01v.04l.02.03.03.03h.07l.04.02.01.02.05.08-.05.08-.01.04.01.05h-.03l-.07-.03h-.03l-.02.02-.04.05-.02.02-.06-.01-.13-.06-.06-.02-.18.05-.05-.04-.07-.1-.04-.03-.05-.02.12.18.07.06.09.01.09-.04.04-.01.04.04.04.05.05.04.04-.01-.01-.07.14.1.07.02.13-.1.07.02.04.05-.03.06.07.02.08-.04.08-.08.07-.09.03-.04.03.01.01.04v.07l-.02.03-.3.4-.05.04-.06.09-.03.03-.04.01-.04-.02-.01-.04.03-.06-.06-.06-.08.03-.17.15-.03.02h-.06l-.14.04-.04-.01-.04.01-.02.04-.01.06-.03.03-.04.01-.14.15-.02.02-.02.05-.02.06h.01l.03-.02.07-.03.03-.03.04-.04.02-.04.02-.04.11-.06.08-.09.1-.05h.01l.03.01.03.03.11.03h.05l.03-.03.03-.03.1-.06.03-.01.01.05-.04.09-.07.08-.06.05-.08.13.01.02v.01l.01.01.01.01-.1.01-.04.03-.04.05.02.04h-.02l-.05-.02h-.12v.04l.06-.01.04.01.02.02-.04.1-.02.04-.03.03.08.02h.04l.05-.02.03-.05.02-.02v-.01l.05-.01.03-.01.04-.06.03-.03.03-.03.04-.01.04-.02-.03-.04-.08-.08.06.01.2-.03.22.02.06-.02.34-.26.13-.03-.01.05-.01.02-.02.02.03.02h.03l.03-.02h.03l-.05-.11.09.02.04.01.04-.01.03-.02.04-.05.02-.05-.01-.05.02-.04h.02l.02.01h.03l.03-.01.06-.03.02-.01.28.01.16.11.3.1h.09l.09-.02.14-.1.04-.02h.35l.01.01.02.04.03.01.02-.01.02-.01h.02l.02.02.08-.04.19.07h.07l.03.05h.02l.01-.03.03-.02h.04l.11.06.01-.04.02.01.02.02.02.01.03-.02.04-.04h.02l.04.02.03.01.01-.02.01-.02.01-.02.02-.02.02-.01.05.01.1.06.04.02.06-.02.13-.1.04-.01.24.01v.02l.02.03.02.04.02.03h.02l.04-.03h.03l.01.01.03.06.18.21.02.07.01.08.01.07.04.07v.02l-.01.05.02.05.07.07h-.04l-.01.03v.04l.02.02.03.01-.01.02-.06.05-.09.12-.04.08v.05l-.23.22-.06.09-.14.38-.06.21-.01.09.01.07.04.03.01.04-.04.07v.01l-.2.32-.07.15-.03.14.01.04.01.02.01.03v.05l-.01.02-.04.06-.01.02-.01.07-.03.04-.08.07-.06.08-.05.1-.04.04-.12.08-.04.03-.04.05-.02.04-.01.03-.02.17-.03.05-.03.04-.02.06v.03l.01.06v.02l-.01.03-.04.04-.02.07-.04.05-.21.15-.03.08-.05.03-.08.04-.02.04-.05.1-.02.01-.01-.01-.02-.01-.03-.01-.12.01-.52.08h-.01l-.09.04-.08.06-.23.24-.09.04-.1-.03.03.03.04.02h.09l.05-.01.09-.06.09-.02.44-.23.02-.02.02-.04.05-.03.05-.01.04.02.04.04.08.01.03.05v.07l-.01.08-.03.05-.04.05h.05l.01.01.01.05.01.02.02.01h.02l.02.01.01.03.21.02.04.02.08.07.02.01.08.07v.03l-.12.11-.04.08-.05.03-.11.02-.14.1-.05.01-.05-.01-.14-.07h-.11l-.05.01-.02.03-.02.04-.12.08-.12.15-.04.02-.04.01-.03.05-.03.13-.02.06-.04.02-.15.01-.04.02-.08.05-.09.04-.09.02-.08-.01-.36-.11-.2.01-.08-.03-.08-.06-.08-.08-.05-.05-.03-.03h-.05v.03l.14.09.02.03.01.01.08.14.01.03h.08l.01.02.01.03.02.02.03.01.12-.03h.05l.38.11h.11l.03-.02h.03l.02.03.04.04.4.03.02.01.04.06.01.01.03.01.14-.02.16-.07.05-.04.04-.07.04-.04.05-.01-.01-.05v-.02l-.01-.01.04-.04.06-.08.05-.02.37.03.04.02.06.09.04.02-.02.07-.01.02.03.01.06-.01.03.02.01-.01.03-.02.01-.02.03.03.09.07.09.02.14.12.09.06.36.07.02.01.01.03.01.04v.02l.02.02.05.02.04.04.13.26.03.05.29.38.03.09.02.05.05.03.01.03.01.03.01.01h.02l.02-.02.01-.02.01-.01h.02l.03.02.03.03.02.06h-.05v.02l.03.02.08-.02h.04l.16.11v.03l-.02.02.01.03.01.03.03.03-.03.02v.03l.01.01.05.04v.03l-.02.03.01.02.02.01.02.02.01.05v.3l-.01.06v.05l.01.09.06.1V23.22999329l-.01.01v.02l-.01.02-.01.03v.02l.01.03.01.02.01.05.03.04.05.06-.02.05.01.02.02.02.02.04-.01.04-.01.03-.01.04.01.04.03.06.01.02.01.09.02.08.01.02.01.01.03.01v.01l.01.01.01.03.03.1.02.03.01.04.01.05.02.04.02.02.01.01.06.07.02.04v.18l.02.02-.01.03.14.48.04.12.08.1.03.03.12.05v.03h-.04v.03l.01.02.01.03.01.03.01.02.02.03-.02.03-.02.02-.05.02v.03l.01.01.02.01h.03v-.03l.01.01.01.01.01.02v.02h.02l.02-.02.02-.11.04.05.03.03.05.02.09.01.11.07.45.15.5.31.06.07.03.05v.06l.01.04.02.03.07.06.03.03.04.06.04.09.02.1v.07l.01.03.01.02.02.02.02.01-.01.04v.01l.02.02.04.07.02.02.09.02.02.02.02.02.06.03.01.04.02.1v.01l.06.07.27.1.08.08-.19.11-.07.08-.06.14.05.11.07.25.04.11.23.37.4.59.03.12-.03.12-.01.02-.05.04.05-.12.01-.06-.03-.03-.05-.02-.1-.07-.04-.01-.05.01-.08.05-.05.01h-.05l-.05-.02-.05-.02-.04-.03-.21-.28-.08-.06-.08-.01h-.02l-.28.09h-.17l-.08.02-.01-.01-.06-.05v-.01l-.13-.02-.05.02-.15.1.02.01.02.01.02.01.02.02.03-.06.06-.03h.07l.05.01.09.07.02.03.04.02.03-.02.06-.05.4-.07.06.03.04.07.16.25.1.05.07.08.04.03.07.01.04.02.1.13.21.17.05.02.04.01.04.02.03.04.01.03v.04l.01.03.01.02h.02l.07.05-.02.02.04.03.03.05.03.06.01.05.18.5.03.14v.16l-.05.19-.01.03-.02.01-.05.01-.03.02-.2.2-.04.02-.03.02-.18.26-.04.05-.06.02-.03.03-.03.05v.04l.07.01.12-.03.02.01.07.05.03.02.05.03.11.18.06.06.04-.02.04-.01.09.01.04.02.06.09.03.01v-.02l-.01-.06.05-.07.05-.06.03-.05.01-.09.03-.1.04-.09.03-.06.07-.08.11-.05.12-.02h.11l-.02-.03.05-.01.05.01.05.02.04.01h.19l.09.02.1.05.11.03.1-.05-.03-.01-.02-.01-.03-.01-.03.01v-.03l.69.17.26.13.55.43.07.07.05.09.04.17.04.11.03.11-.01.07.01.06.01.07-.01.13.06.17-.01.04-.03.03-.06.19.01.03-.01.04-.1.26-.07.13-.02.02-.03.04v.1l.01.16-.02.07-.04.12-.01.07-.03.09v.05l-.01.02-.18.08-.03.04-.04-.03-.01.03-.01.05-.01.02-.02.02-.05.08-.16.17-.02.04-.03.01-.15-.19-.06-.02-.11-.09-.06-.02v.03l.08.07.04.04.1.02.03.01.01.02v.06l-.01.01-.05-.01-.02.01-.05.01h-.06l-.06-.04h-.05l-.1.03-.06.01.06.03.37.03.04-.03-.01.07-.17.18.03.02.03.01.08.01.03-.02.01-.03.01-.01.01.08-.03.05-.13.12-.11.08-.07.03-.16.02h-.04l-.02-.02-.04-.08-.07-.09-.02-.05v.07l-.04.03-.08.04-.07.07-.01.01-.01.02v.04l-.01.04-.01.02-.03.01-.03.03-.03.01h-.02l-.05-.02-.02-.01-.06.01-.1.04-.05.03.03.02h.04l.04.02.03.06.06-.07.14-.03.07-.03.06-.05.04-.01.04.04v.03l-.01.03-.01.03v.04l.01.02.02.05-.02.02-.01.03v.08l-.01.02-.02.02-.03.02h.06l.02.01.01.02-.06.1-.11.1-.1.06-.03.02-.1.03-.18-.03-.06.01-.03-.01-.01.01h-.01l-.04.04-.03.01-.03.01h-.03l-.03.03-.03-.03h-.07l-.15.04-.01.03-.01.03-.01.04-.03.04-.03.02-.04.01-.03.02.14-.03.02-.01.01-.02.01-.03.01-.01.15-.04.35.05.03.03.03.05v.03l-.02.02-.05.01-.07-.02h-.04l-.07.07-.08.02-.04.02.02.02.01.03.02.02.02.01h.19l.09.02-.02-.04-.01-.05.01-.03h.05v.04l.03.07.03.06.02.02.48.06.27-.09.72-.07.05.04-.02.11-.01.03-.01.02-.01.01-.02.02-.07-.01-.02.02.01.07.02.06.03.1.02.14-.02.13-.04.11-.06.08-.15.05-.06.04-.03.01-.04-.01-.03.01-.02.02-.02.03-.02.02-.04.02h-.15l-.04.01-.04.03-.09.08-.12.17-.02.04.01.09.02.13-.07.03-.17-.05-.15-.05-.09.03-.22.21-.09.04-.48.11-.08.03h-.01l-.02.03-.03.04v.01l-.08.05-.08.12h-.13l-.1-.04-.02-.01h-.08l-.02-.01-.04-.04-.04-.01-.09-.01-.04-.01-.42-.15-.08-.01-.06.03-.08-.03-.28.1h-.38l-.36.12h-.02l-.02-.02-.02-.01-.02.01-.01.03.01.06-.01.04-.04.02-.05-.01-.2-.13-.02-.02.01-.04.03-.02.07-.03v-.02l-.03-.02-.04-.04-.03-.01-.01.01-.02.01h-.02l.02-.05-.02-.01-.02-.01-.07-.02H28.1300061l-.04.02-.03.06-.02.08-.03.07h-.06l-.04-.05.02-.06.04-.06.01-.04-.04-.03-.14.01-.03.02.08.06.01.02V39.85999329l-.03.02h-.03l-.04-.01-.04-.03-.01-.02-.02-.03-.07-.04-.05-.04-.08-.03-.02-.01-.04-.05-.05-.06-.24-.13-.04-.03v.03l.02.01.04.02.03.01.05.06.18.2.02.05-.01.04-.05.01-.14.02-.03.01.01.01.02.01v.03l-.11.01-.05.03-.03.02h-.01l-.07-.02-.07.14-.01.01-.04-.01-.05-.03-.15-.03h-.05l-.05.01-.09.05-.04.01-.05-.01-.09-.02h-.05l-.04.02-.04.02-.04.03-.04.04-.02.02-.01-.02v-.04l-.01-.02-.09-.02h-.07l-.01-.02-.02-.04-.01-.01-.02.02-.08.12h.03l.03-.01.02-.02.03-.02.05.09.02.02.04.01h.04l.03.01.02.03-.02.05.03.03h.02l-.08.1v.05l-.04.02h-.18l-.04-.01-.16-.08-.41-.04-.08-.05-.05.01-.08.02-.03.04-.02.07-.02.08.02.03.06.02.01.04-.03.06-.03.05h-.01v-.13l-.06-.09-.46-.36-.38-.14h-.05l-.13.03-.04.01-.08.05h-.05l-.08-.02-.03.01-.05.04-.01.01-.04.03-.02.01h-.02l-.04-.02-.03-.01-.04.01-.08.03-.09.03-.02.03-.02.05-.04.04-.16.08-.05-.01-.03-.01-.03-.03-.03-.05-.03-.08-.01-.02-.01-.01h-.01l-.01-.01-.01.01v.03l.03.03.03.12.02.05-.04.04-.04.05-.03.05-.03.08-.02.09v.07l.04.14-.05.01-.05.01-.04.03-.01.05.01.06.04.01h.1v.02l-.02.06v.02h-.02l-.02.01-.01.02-.02.08-.02.02-.04-.01-.03-.03-.02.08-.05.03-.05.01-.02.03-.01.06-.03.07-.01.09.02.08-.03.02-.09.03h-.04l-.05-.01-.04-.02-.04-.01-.03.04-.08-.08-.13-.16-.15-.13-.02-.01h-.02l-.06.04h-.02l-.01.01-.03.04h-.04l-.03-.01-.03-.04v-.01l.01-.03-.05-.01-.05-.04-.02-.05.03-.07-.08.01-.03-.01-.02-.02-.02-.02-.01-.03-.01-.03-.02-.06.02-.05.03-.05.02-.05-.04.03-.03-.01-.02-.02-.01.03v.01l-.02.03-.02.01h-.03v.02l.04.02v.07l-.02.03-.03.01-.11-.01.04.05.12-.02.05.04-.07.02v.03l.02-.01.04.01-.02.02h.06v.02l-.02.01-.02.02v.02l.01.03v.02h-.04l-.03-.05-.02-.04-.04-.03-.19-.05-.1.01-.16.1-.08.04-.37.02v.01l-.01.01h-.02l-.03-.09h-.02l-.01.01-.01.01h-.01l-.05.01-.04.01-.03.03.02.04v.03l-.02.01-.02.03-.02.02v.04l.01.03v.01l-.02.07-.01.02-.02.02-.11-.02-.04.02-.04.05-.04.02-.1.03-.03.03-.09.16-.03-.04-.01-.12-.03-.03-.04.02v.07l-.03.03v.03l.02.01.03.03h-.02l-.01.01-.03.02-.02.01v.06l-.01.02-.02.02-.07.03h.04l.03.02h.05v.02l.01.04.01.01.01.03-.03.07-.06.09-.02.01-.05-.01h-.02l-.02.01-.06.08-.03.08-.01.02-.02-.01-.02-.01-.07-.08-.01-.02-.01-.02V42.49999329l-.02-.04-.06-.1-.04-.05-.04-.03-.13-.06-.09-.02-.08-.04-.04-.02h-.04l-.06.03-.04.03v.05l.01.06-.02.04-.04.04-.04.01-.09.03-.1.01-.09-.03-.02-.1.02-.01h.02l.01-.02v-.02l-.01-.01-.01-.01-.01-.07-.01-.04.01-.01.01-.01.04-.08.02-.01.06-.02.14-.08.08-.03.08-.06h.05l.07.07.05.02.04-.03.03-.05.02-.03.01-.03.01-.02h.08l.08-.04.25-.27.08-.06.03-.01.01-.01v-.09l-.01-.07.02-.02h.05l.16-.08v-.02l.02-.05.02-.13v-.07l.01-.06.02-.05.05-.03h.04l.02-.02.03-.03h.01l.02.02.01.04v.08l.02-.01.01-.01.04.02.09.01.04.01-.02-.04-.04-.03-.08-.02-.03-.05v-.03l.01-.03-.01-.04v-.02l.06.01.16-.01.07-.02.03-.05.03-.06.03-.06-.01-.05.01-.04.02-.02.03.01.16-.13.02-.05.02-.06.04-.04.09-.07.06-.13-.01-.3.03-.15.01-.03.03-.09v-.02l-.01-.05v-.05l.01-.03h.19l.03.01.04.04h.03l.12.02.05-.02.03-.02.15-.17.02-.02.01-.02.01-.02.02-.01-.01-.04-.03-.09v-.03l-.01-.02-.04-.06-.01-.03.07.01.02-.01.01-.03v-.04l-.02-.03-.02-.02v-.02l.17-.07.4-.04.08-.03H21.8400061l.04-.01.08-.04.04-.01.28.08.18-.01.28.07.06.06.05.02.25-.01.16-.05.08-.01.15.01.08-.02.07-.04.01.03-.03.05.03.02.04-.07.01-.03v-.07l-.01-.02-.01-.03v-.2l-.03-.04.04.01.03-.01.01-.03v-.05l.01-.04.04-.03.01-.03-.03-.04.04-.05.08.02.08-.08.15-.2.04-.04.04-.02.04-.01.05-.01.05-.02.04-.04.2-.34.02-.01.02-.01.02-.02.01-.03v-.03l.02-.03.01-.03.01-.02.13-.14.08-.1.03-.02.1-.04.04-.03.01-.04v-.04l-.04-.03-.01.06-.04.04-.05.02h-.04l-.04.02-.03.04-.03.04-.03.05-.13.09-.02.02-.02.03-.15.17-.06.08-.04.03-.11.03-.08.06-.04.02-.1.04-.18.01-.03-.01-.02-.03-.01-.02-.01-.01-.02.01-.06.08-.01.02-.13.08h-.01l-.03.01-.03.03-.06.06-.01.02-.01.04-.01.01-.02.01-.03.01-.01.01.03.07-.02.08-.04.04-.04-.01h-.04l-.15.06-.56-.05-.04-.02-.04-.06-.06-.09-.13-.1-.03-.01-.04.02-.05-.02-.05-.05-.02-.03v-.02l.01-.01h.01l-.02-.07-.01-.02-.01-.04-.03-.06-.02-.05-.02-.02-.04-.03-.02-.02-.04-.07-.02-.02-.02-.01-.08.01-.16.02-.03.01-.03.02-.02.03-.01.03.02.03.02.04.02.03h-.09v.01l-.01.01-.02.01v-.02l-.01-.01-.01-.01-.02-.01h-.02l-.02.04h-.03l-.02-.02-.06-.01h-.02l-.02.01-.02.02-.03.04-.03.01-.02-.01-.02-.01h-.02l-.01.03h-.03l-.13-.05-.04-.01-.01-.01v-.01l-.01-.02.05-.04-.01-.03-.02-.05v-.05l.08-.03v-.01l.03-.04.01-.02.02.02h-.02v.03l.02.01.01.01.07-.02.12-.01.1-.03.05-.08v-.04l-.01-.01-.03.03-.02.01-.02.01-.09-.01-.12-.07-.03.02-.18.03-.05-.02-.06-.05-.05-.06-.03-.07.09.02.04-.01.03-.03h-.05l-.04-.01-.03-.02-.02-.05h.01l.01-.03.01-.03v-.03l-.02-.03-.01.01-.02.04-.01.01-.02.03-.01.01-.02-.01-.02-.01-.02-.03-.04.01-.01.02.01.04.04.03-.08.04-.08.01-.17-.03-.06.01-.08.02-.02.01-.07.05v.09h-.02l-.01.01v.04l-.05.1-.02-.01-.03-.02-.01.01-.04.04-.2-.01-.03.01-.04.02-.01.03-.02.03-.02.03-.04.02-.02.03-.02.01-.01-.01-.03-.01-.14-.05-.05-.04.02-.04-.04-.07-.11-.02-.04-.05.02-.03.17.03-.01-.02v-.02l-.01-.01h.03l.06.02h.03l.03-.01.08-.04.1-.02.06-.04.02-.01.03.02v-.02l-.06-.06-.02-.09.04-.07.09-.02v-.03l-.03.02-.06.02-.13.01-.03.02h.04l.03.02.01.03-.02.05.04.03-.01.04-.04.04-.17.04h-.05l-.3-.04-.04.01.02.06-.03.03h-.03l.01-.04v-.02l-.11-.09-.05-.01h.05l.03-.01.03-.02.02-.03.03-.03.08-.02.04-.01.03-.04.01-.03-.01-.09v-.06l-.01-.05-.02-.05-.03-.03-.02.03-.04-.04-.08-.01-.04-.02-.04.02-.12.02h-.04l.01-.01.02-.01v-.02l-.01-.02v-.02l.02-.02v-.02l-.01-.04.02-.03h.08l.04-.02.06-.07.03-.01.07-.01.09-.04.07-.06.01-.09h.03v-.02l-.03-.03.01-.02.02-.02.04-.01.06.01.02.01.12.06h.04l.07-.03-.02-.05.04.01.09.04h.05l.02-.01v-.04l-.01-.04v-.03l.01-.01.08-.02.04-.03.03-.04.06-.09.04-.04h.03l.07.06v-.11l.08-.04.27.01.03-.01.01-.02.02-.02.01-.03.07-.02.04-.03.04-.04.07-.08.03-.02.04-.01h.04l.04-.01.27-.23.13-.18.06-.13.03-.08.02-.15.02-.09.02-.07.03-.05-.01-.04-.01-.04v-.04l.02-.04h.02l.04.03h.03l.04-.01.11-.09v-.02h-.06l-.11.04-.06.01-.04-.03-.1-.14-.02-.06v-.09l.04-.09.05-.07.03-.02.01-.01.01-.05.01-.02h.01l.02-.01.09-.07.03-.04-.06.01-.04.03-.03.01-.17-.21-.05-.09-.01-.04.01-.02.04-.02.02-.02v-.06l-.02-.06-.01-.02v-.05l.01-.03.01-.01.13-.1h-.01l-.01-.01-.01-.01-.02.02-.03.02h-.02l-.02-.04-.06.04h-.06l-.12-.02-.16.05-.04.03-.04.02h-.16l-.04.02-.05.04-.07.09v.01l.01.02-.04.02-.02.04v.05l.03.04-.03.03-.02.01-.01.01-.03-.01-.03-.03-.05-.02-.04-.03-.02-.01h-.03l-.02.02-.01.02-.01.01-.05.01-.13-.01-.03.02-.03.03-.03.02-.04-.02.03-.04v-.01l-.01-.03.01-.01.03-.06.31-.36.04-.02h.04l.04-.02.04-.02.18-.14.04-.07.15-.1.02-.05.01-.06v-.16l.01-.04.01-.01h.02v.03l.01.02.02-.03.02-.04v-.01l.09-.11.02-.02.04-.02.03-.04.05-.09.05-.06.06-.04.06-.02.07-.01.02.01.02.01h.02l.02-.02.05-.02.05-.01.08-.07.24-.1h.08l-.03-.07-.06-.06-.02-.05.04.01.05.01.04.02.02.04.05-.03.05.02.04.04.04.06.03.02.26-.01.08-.02.43-.21h.09l.08.04.05.04.02.03.02.03.29.19.03.04.03.04.02.02v-.15l-.02-.04-.04-.06-.05-.11-.08-.11-.03-.06v-.05l.02-.04.04-.02.1-.02.04-.01.08-.07.05.01.05.06.13.34.04.06.06.04.06.03h.07v-.01l.01-.01v-.02l.02-.01h.02l.03.02h.06l.03-.01.06-.04-.01-.04v-.04l.02-.02.02-.02.02.01.02-.01.02-.01.02-.02h-.04l-.11.02-.02.02-.02.05-.04.02h-.02l-.07-.01-.1-.03-.08-.06-.07-.08-.06-.08-.25-.57-.02-.05.01-.05.03-.06.14-.24.12-.15.02-.02.02-.04.09-.06.02-.04h-.19l-.08-.04-.06-.09-.01-.12.02-.28-.03-.11.04-.06.05-.03.2-.08.04-.01.03.03h.02v-.01l.01-.03.02-.02.02-.01.01-.01-.02-.04.08-.08.01-.06-.04.03-.04.01-.07.01-.01-.01-.03-.08-.01-.03.02-.02.02-.02.02-.02.04-.08.03-.03.07-.03.03-.04.04-.1-.04-.06-.05-.1-.03-.07-.01-.03.05-.02.05-.05.03-.07v-.07h-.01l-.01.06-.03.04-.07.06-.08.04-.04.03-.02.04-.01.06-.05.03h-.09l-.03-.02-.04-.06-.01-.06.02-.04-.01-.04-.02-.04-.03-.01-.03.01.01.05-.01.06-.01.05-.01.04-.01.03-.06.08-.04.08-.02.04-.06.03-.01.05.01.05v.04l-.08-.11-.02-.02h-.04l-.03-.01-.02-.02-.02-.02v-.06l.01-.07v-.05l-.03-.03v-.02l.07-.03.02-.11v-.2l-.03.02-.02.04-.02.09.02.08-.04.01h-.05l-.03.01-.05.02-.05-.05-.08-.14-.06-.09-.03-.05-.02-.06.01-.03.01-.03v-.03l-.01-.06-.01-.04-.06-.03-.07-.16-.05-.04-.21-.3-.04-.02-.01-.01-.02-.06-.03-.02.02-.03.02-.03.01-.01.05-.13.06-.3.07-.17.04-.09.01-.04.02-.01.05-.02.02-.02.03-.04.04-.06.01-.07-.02-.07.08-.22.04-.11.05-.06.05-.01.02.02.02.03.04.01h.02l.1-.05-.03-.02-.11-.06.05-.06.04-.03.14-.04.02.01.02.01.01.02.02.01.08.03h.05l.18-.05.04-.03h-.15v-.03l.04-.01.04-.02.03-.01.04.02v-.03l-.05-.03h-.01l-.19.06-.71-.06-.03-.01-.04-.02-.03-.01-.03.01v.01h.01v.02l-.04.02-.03-.01-.06-.06-.03.11.01.04.02.07v.15l-.03.06-.04.02-.2-.02-.06.01-.05.08-.16-.02.01.02.01.01-.02.01h-.02l-.01-.02-.01-.02.02-.05.01.01.01.01v-.04l-.01-.01-.03.04-.03.04.01.04v.01l-.01.01-.03.02.07.08-.02.01-.11.06-.18.13-.1.01h-.07v-.03h-.01l-.01-.01-.01-.01.01-.01v-.06l.01-.05-.01-.04-.03-.01v-.02l-.03.03-.03.05v.07l.02.06-.09.02-.11-.08-.08-.13.02-.15-.03.02-.06.07-.03.01h-.04l-.16-.08-.03-.02-.02-.03-.02-.05-.01-.04-.01-.03-.04-.01-.01.02-.02.04-.02.04v.05l.02.09.02.05.01.03h.04l.03.01.03.02.02.03.01.05-.02.05-.01.04.03.06-.03.05.01.08.01.08-.01.03-.02.01-.01.01-.01.02-.02.01-.05-.01-.05-.02-.06-.04-.02-.01h-.08l-.02-.01-.13-.2-.07-.07-.26-.17-.1-.03-.05-.03-.04-.1-.05-.02h-.08l-.05.02-.05.04-.05.05-.03.05-.02.03-.01.02v.08l.01.05.02.04.02.02.02.04.02.09.04.09.06.05v.04l-.01.07v.05l.03.06-.05-.01-.09-.05-.05-.01-.02-.03-.01-.06v-.06l.02-.04-.01-.02-.01-.03v-.03l.01-.02-.04-.01-.02-.01-.02-.01-.01-.03-.01-.06-.01-.05-.02-.02-.05-.02-.21-.26-.06-.11-.04-.14-.01-.15v-.14l.02-.07.03-.03h.07l.01-.01.01-.05.02.02.02.04.01.03.04.05.01.04.01.04.01.04-.01.09.01.04.03.04.04.03.04.01.04-.04v-.02l.01-.01v-.03l-.08-.16-.01-.03-.01-.03v-.01l-.03-.08v-.15l.01-.04.04-.09.01-.05.01-.08.02-.07.04-.05.09-.06.15-.19.01-.01.02-.01.01-.01-.01-.04.01-.02.05-.13.01-.04v-.03l-.01-.09.01-.03.01-.03.07-.09.04-.03.02-.03.01-.04.02-.09.02-.04.07-.07.15-.07.06-.07.01-.11-.02-.09-.05-.07-.08-.03.05-.07-.01-.09-.05-.08-.07-.05-.12-.06h-.07l-.02-.01.02-.04v-.03l-.13-.08-.07-.07-.05-.06.1-.11.03-.08v-.13l-.02-.05-.01-.04-.01-.04-.02-.17-.01-.11.02-.1.03-.07.05-.05.07-.03h.07l.14.07h.04l.03-.01.04.03.37.06.06-.04-.25-.05-.08-.02-.1-.06-.11-.14-.09-.04-.04-.04-.04-.05-.02-.05-.03-.12v-.02l-.04-.01-.01.03v.04l.02.05.1.16.03.07-.02.03-.04.01h-.05l-.05-.02-.03-.06v-.07l-.01-.15.01-.03.08-.23.16-.26.01-.05-.01-.02-.03.02-.03.04-.12.27-.03.04-.05.01-.02-.04V19.85999329l-.03-.04-.03-.01-.03.03.03.08.03.14.02.13-.01.06-.03.01v.03l.01.08v.13l.01.05-.03.02-.03-.02-.03-.02-.04-.01v.03l.03.01.02.02.03.03.01.05-.01.06-.02.04-.03.03-.02.03-.01.05v.04l-.01.03-.02.04-.04.04h-.02l-.07-.01-.04-.05-.03-.1-.02-.11-.01-.08-.09-.12-.01-.05-.02-.03-.03.03.03.06.09.22.01.08-.02.04-.04-.02-.14-.12-.02-.05v-.08l-.03.03-.02.05-.01.06v.04l-.01.03-.07.09.05.11.03.06.01.07h-.04l-.1-.05-.07-.03-.02-.03-.02-.1-.01-.01-.02-.01-.02-.02v-.17l.02-.04.01-.04-.01-.03-.02-.12.05-.06.24-.42.13-.06.09-.07.03-.02.07-.19.04-.05.07-.04.08-.04.08-.06.04-.1-.04.02-.08.1-.04.02h-.09l-.03.02-.04.03-.02.05-.05.14-.02.03-.27.18-.18.28-.02.01-.04.01-.02.01v.02l-.01.05-.01.05h-.01l-.02.04-.05.02-.05-.01-.04-.01-.01-.02v-.06l-.02.01-.01.02v.05l-.01.21.01.01.03.02h.01l.02.08.01.05v.03l.01.04.03.02v.03h-.02v.02l.01.01.03.02-.01.01-.02.01-.01.01.13.13.05.09.02.1-.01.06-.03.02-.08.03-.03.02-.1.12-.03.04-.02.04-.02.05v.03l-.01.07v.03l-.05.04v.01l.01.02.01.01-.01.09.02.03h.03l.02.04-.02.06-.03.01-.03.02.02.08-.05.09-.01.04-.01.02.01.07-.01.03v.01l-.01-.01-.01.01-.05.13-.04.06-.05.03v.02h.03l.02.01.02.02.02.03.04.08v.02l.03.03-.03.05-.07.11-.04.04-.04.03-.05.03-.05.01-.02-.01-.05-.02h-.02l-.03.01-.05.04H17.5900061l-.04-.01-.02-.05-.02-.17-.01-.09.01-.07.06-.05.09-.1.02-.04v-.09l-.01-.08v-.09l.03-.12-.01-.02-.02-.03v-.07l.06-.12.04-.14.01-.08-.02-.05.12-.1.01-.05.02-.05.03-.07.04-.06.03-.02.06-.03.08-.07.07-.1.04-.12-.22.24-.08.07-.02.01h-.03l.01-.05-.06-.02-.03-.02-.03-.04-.01-.06-.01-.1-.01-.03.1-.14.01-.04.01-.05.04-.04.04-.04.03-.04-.05.02-.07.09-.06.03-.04.05h-.02l-.02-.03-.01-.05-.01-.04.25-.38.01-.05v-.02l.01-.01.01-.02-.03-.01-.03.01-.03.03-.03.02-.01.08-.1.11v.08l-.03.08-.01.01-.02-.01-.01-.02v-.03l.01-.03.01-.1.08-.16.17-.25.01-.01v-.02l.01-.01.01-.01h.02l.01.01.02.01v.01l.02.02h.02v-.03l-.01-.02-.01-.02-.02-.01-.02-.06v-.04l.01-.02.07-.12.01-.03.02-.06-.07.02-.05.06-.04.07-.06.04.02-.08.03-.08.03-.07.05-.07-.02-.05.02-.04.05-.03.04-.01.03-.01v-.03l-.01-.03-.03-.02-.09.03-.02.02-.02.02-.02.02h-.03l-.01-.04.01-.04.02-.08.03-.15.02-.06.04-.04.04.02h.06l.11-.05v-.02h-.05l-.1.03-.04-.01.04-.13.02-.03.02-.02.03-.01.02-.02-.01-.03.05-.08.08-.04.22-.02.18.05.07-.02.06-.05.14-.19.08-.17.04-.06-.05.02-.02.06-.03.08-.03.06-.09.08-.05.08-.03.03-.09.01-.24-.05-.06.05-.04-.02-.03-.16-.03.02-.03.03-.04.09-.03-.02.08-.2.01-.05.05.05.06.02h.05l.04-.02.1-.08.06-.03.03-.02.02-.03-.07.04-.03.01h-.05l-.04.03-.02.01-.05.04-.03.01-.03-.01-.03-.05h-.03l.01-.03v-.01l.01-.01.02-.02.01-.02v-.03l.01-.02.06-.11.02-.02.09-.09.01-.02.02-.03-.05-.03v-.03l.02-.01.05-.04h.09l.06-.06h.05l.1.03.04-.01.09-.06.18-.04.04-.03-.37.08-.17-.08v-.02l.02-.06.01-.02.15-.17.04-.06.04-.08-.13.12-.02.03-.01.03-.02.02-.03.01-.02.01-.02.01-.01.03v.04l-.01.03-.03.06-.03.03-.03.02h-.04l-.02.01-.02.04-.05.01-.02.03-.02.05-.06.08-.04.02-.04.01-.03.02-.03.07-.02.02h-.03l-.02.02-.03.03-.09.14-.14.17-.15.13h-.02l-.02-.01-.02-.06-.03-.01h-.03l-.05-.02-.03-.03-.03-.03.03-.07.01-.03.01-.04h-.02l-.08.12-.14-.03-.33-.28-.01-.03v-.06l.02-.03.04-.01.11-.01.07.01.08.04.06.06.01-.03-.05-.04-.02-.03v-.04l.23-.16h.06l.14.07.05.01.12-.01.06-.01.05-.04-.2.03-.05-.01-.11-.07-.1-.02-.24.13-.08.03h-.02l-.03-.02-.05-.03-.03-.01-.16.01-.16-.04h-.05l-.05.05-.04.02-.05-.01-.05-.03-.03-.03-.02-.02-.01-.02v-.09h.01l.02.01.01-.01.05-.08.03-.02.34-.04.03-.01.07-.06.04-.02.03.01.03.03.02.02.03.03.12.05.02.02v-.05l-.02-.04-.02-.03-.04-.01v-.03h.06l.02.01.03.02.03-.04.05-.01.06.01.04.01-.17-.08-.04-.05v-.04l.03-.04.23-.03.09-.04.07-.07-.03-.02-.04.01-.03.02-.04.07-.04-.01-.09-.02.02-.04.09-.1-.1-.02-.21.05-.11-.03.08-.02h.08v-.03l-.02-.01-.04-.05.03-.05.03-.08.02-.1.02-.08.04-.05.06-.04.07-.02.06.01.02.02.05.08.02.03.03.03.04.02.07.01.12-.03.11-.06v-.02l-.04.01-.04.02-.03.01-.03-.02-.05.04-.05-.01-.04-.04-.05-.01-.03-.03.01-.05v-.05l-.05-.04h-.02l-.04.02-.03.01-.02-.01-.04-.04-.02-.01-.03-.03.04-.07.09-.12.02-.04.02-.02h.03l.06.01.03-.02.04-.02.05.02.09.07.05.02.22.01.01-.02.01-.02.04-.01.04.01.01.01h.02v-.03l-.04-.03-.19.03-.05.03h-.03l-.02-.01-.05-.08-.03-.02-.19-.06-.02-.04.01-.07.08-.11.03-.06-.04-.07.05-.07.09-.06.08-.02.07.05.07.09.08.05.08-.02v-.03l-.09-.02-.02-.02-.03-.06-.02-.03-.02-.01-.03-.03.03-.06.06-.06.05-.02v-.03l-.05-.02-.04.03-.03.05-.03.03-.03.01-.08.06-.05.01-.04-.01-.09-.03-.04-.01-.1.03-.04-.01-.02-.05.01-.02.05-.12.02-.02.05-.03.02-.02.02-.02.01.02.01.02.02.02.05-.01.25-.12.09-.09.02-.12-.03-.01-.06.06-.1.15-.06.04-.05-.01-.06-.02-.06-.01.05-.04.02-.03v-.03l-.02-.05-.01-.03h-.01l-.03.04-.15.2-.06.02-.11.02-.05-.02-.04-.17v.01l.01-.01.01-.01.01-.01-.01-.02-.02-.03V14.71999329l.03-.02-.02-.02-.07-.02-.02-.01v-.04l-.02-.07-.01-.06.01-.02.03-.07.01-.03v-.11l.01-.03h.03v-.02l-.01-.05v-.02l.04-.01h.04l.03.03.12.12.04.03.02-.02.04.06.02.02.06.05h.03l-.01-.02-.01-.02-.01-.02v-.02l.16-.03.09.02h.05l.01-.03-.07-.06-.1-.02-.1.01-.06.06-.07-.09.01-.02.02-.04-.08-.01-.04-.07-.02-.08-.04-.06-.04-.02h-.03l-.03-.02-.01-.05.01-.05.05-.05-.02-.04v-.03l.09-.05h.04l.06.07h.03l.03-.03.01-.05h-.02l-.02-.02-.01-.03-.02-.03-.03-.01-.19-.05v-.04l.01-.11-.01-.05.01-.03-.02-.09v-.05l.01-.04.01-.04.03-.04.03-.02.05-.03h.06l.06.02.05.04-.01.05.01.09.02.08.01.06.02.04.03.04.04.01h.03l-.01-.02-.01-.02-.02-.05h.03l.02.01.04.02-.01-.08.01-.06v-.05l-.03-.07-.09-.08-.02-.04.02-.05h-.02l-.01-.01v-.01l.02-.04.05-.07.02-.04.03.04.02.02h.09l-.02.11.07.09.09.05.07.01-.02-.03.03-.04.03-.12.02-.04h.03l.1.04.03.03.06.07.08.05.16.06-.04-.05-.02-.03-.07-.03-.09-.1-.15-.07-.01-.01-.01-.03v-.02l.01-.02.01-.01.02.02h.01l.01-.05.05.03.06.09.05.03h.02l.04-.02.03-.01.03.01.05.04.02.01.03.01.08.08.09.05.06.11.05.03-.01-.02-.02-.04-.01-.04-.01-.03-.01-.03-.22-.19-.05-.02v-.03h.04l.02-.03-.01-.04-.02-.06-.02-.02-.07-.02-.04-.03-.06-.01-.09-.12-.06-.01v-.01l.01-.01.01-.01-.04-.04-.04-.02-.09.01.01-.02v-.02l.01-.01.01-.01v-.03l-.07-.14.04-.05.08.02.05.11.05-.04.05.02h.05l.05-.06h-.01l.01-.05v-.03l-.01-.04-.02-.03h.03v-.03l-.04-.03.03-.02.06-.01.03-.02v-.03h-.07l-.04-.01-.03-.02.02-.03-.02-.02-.02-.01-.02-.02h-.02l.01-.02v-.05l.01-.02h-.03l-.02-.02-.1-.16v-.07l.03-.01.05.02.1.07.04.01.03-.01.09-.06.05-.02.05.01.04.04.02-.03.03-.03.03-.02.02-.01.04.01.07.06.03.02.11-.01.03.01.15.11-.02-.04-.02-.03-.06-.04.03-.03.06-.01.03-.02-.14-.03h-.05l-.01.01-.03.04-.02.01-.02-.01-.05-.04-.02-.01-.04-.02-.06-.1-.03-.02v-.02l-.04-.06-.01-.01-.02-.06v-.03l-.01-.03h.05l-.03-.04.01-.04.01-.05.02-.04v-.07l.01-.01h.02l.03.02h.01l.13.09h.09l-.06-.05-.02-.03.01-.03-.02-.04-.02.03-.02.01h-.05v-.04l.02.01.01-.01v-.02l-.02-.01h-.01l-.02-.03.13-.07.05.03.07.04-.25-.21v-.08l.01-.03.01-.02.12-.07.03-.04.03-.07h-.01l.01-.08.01-.09.02-.07.03-.05.29.07.05.03.04.05v.02l.01.07.02.06v-.01.05l-.01.04-.01.03-.01.03.04-.03.02-.04v-.09l.01-.06.02-.03.01-.03-.01-.07.04.04.07.09.04.02.06.05h.03l.02.02v.03l-.01.04-.01.03-.02.03-.08.08-.04.11-.04.08-.02.06.04-.01.13-.15.02-.01.02-.07.03-.03.05-.02.04-.04.02-.07.01-.08.03-.06.05-.02.1.02.09.04.11.08v.03l-.01.02.01.04-.05.06-.04.08-.03.09-.03.09.03-.02.04-.04.06-.09v-.05l.01-.01h.01l.09-.1.01-.01.08-.06.06-.03h.02l.05.01.06.07.05.01-.03-.03.03-.02.01-.02.01-.03.01-.01.03-.01.04.02.03.01.02-.01.02-.06.02-.01h.09l.04.01h.02l.03-.01.02-.03.03-.07.02-.02h.02v-.01.01l.04.09.02.01.04-.01.19.03.19-.03.1-.05.15-.12.09-.04.14-.02h.07l.05.02-.02.03h-.01l.05.05h.06l.13-.05.12.06h.06l.03-.09-.04-.01-.04-.03-.03-.05-.03-.05.06-.07.03-.03.04.01v.02l.01.04.01.04Zm1.02-.72-.06.05-.01.01-.01.04.02.03v.02l-.03.03.03.07.01.06-.02.04-.05.04-.1-.12v-.03l.03-.03-.03-.06-.06-.11.02.02h.06l.02-.02v-.04h-.15v-.02l.09-.04.09-.02.11.01.05.02-.01.05Zm-.8-.32.12.18-.03.03v.03h.03l.01.01.04.05v.02l-.05.01-.05.02-.04.04-.03.05h.07l.13-.06h.06l-.06.09-.11.03h-.2l-.01-.02-.05-.11-.01-.04-.02-.02-.02-.02-.02-.02-.05-.09v-.02l.01-.02v-.02l-.01-.03h-.01l-.03.02h-.01l-.02-.02h-.04l-.01-.04.03-.09.01-.01.05-.05.1-.04h.02l.04.02.07.08.05.01.04.03Zm.2-1.06.08.08h.03l.03-.01.02-.01.03.02.03.05.02.02-.03.03h-.02l.05.05.12.07-.01.01h-.01l-.01.02.01.01.01.01.01.01-.13.05-.02-.01-.02.07-.04.06-.05.05-.04.01.03.03.04.02.09.01.03-.03.04-.05.03-.03.09.08.03-.01.03-.03.03-.01.03.02.03.04.02.02.04-.03-.01.02v.05l-.01.02.05.01.04-.02.03-.03.04-.02h.06l.02.01.01.02-.02.05-.09.06-.03.04.03.05.03.04.03.01.05-.01-.03-.09-.02-.03h.04l.08-.05.03-.01.03.02.02.03v.11l-.02.03-.04.03-.08.02-.03.02-.05.09-.04.03h-.03l-.17-.07-.03-.03-.02-.03-.08-.18-.02-.02h-.03l-.03.04-.03.04-.04-.01-.03.02-.02-.01-.02-.01h-.03l.03.06-.06-.01-.03.02-.01.05-.06-.03-.13.02-.06-.05-.02-.1.01-.09.03-.08.03-.06v-.02l-.02-.03-.01-.03-.01-.03-.01-.03-.02.01-.01.02-.01.03.02.03v.03l-.02-.02h-.04l-.02.02.02.01.01.03-.01.03.01.01.01.06-.02.04-.05.05v.03l-.08-.03-.06-.11-.03-.15.03-.12.02-.03-.02-.2.06-.12.1-.07.11-.02h.11l.05.02Zm1.2-.04v.02l.06-.01.03.01.01.02-.02-.01-.03.03v.04l.02.04h.03l.03-.01.05-.03v.03h-.01v.01l-.02.05.01.02.07.04-.04.04-.1.02-.05.03v-.1l-.04-.05h-.04l-.04.03.01.07-.05.01-.03-.03.04-.08.03-.02h.04l.03-.02.01-.05-.02-.02-.07-.08-.02-.01.09-.04.03.01v.03l-.01.01Zm-.91-.13h.01l.09-.02h.03l.03.02.01.02h-.01l-.01.01-.04.05.01.07-.01.06-.06.02h-.07l-.07-.02-.05-.04-.05-.07-.02-.08.04-.06.07-.03.05.01.01.02.01.02.01.02h.02Zm.57-.27v.03l.03-.01.03.01.02.02.01.04-.01.04-.05.07-.01.02v.13l.02.03.04.01v.03l-.07.02-.04.01-.01-.02-.01-.06-.02-.04-.03-.02-.03-.01v-.09l.03.02h.02l.02-.02h.02l.01-.02-.02-.07.01-.03-.01-.06.01-.04.02-.03.04.01v.03h-.02Zm.83-.22.01.04-.11.01-.04.02-.02.05-.02.02-.05.1-.01.03-.02.01-.01-.09h-.04l-.09.12.01-.05v-.04l-.04.03-.02-.01-.01-.02-.08.12-.05.04-.04-.01v.06l-.02.03-.01-.01v-.05l.01-.06.02-.03.02-.01.03-.02.02-.03.03-.06.02-.03.03-.01h.02l.02-.02.01-.06-.02-.01-.03-.05h.05l.09-.05.06-.01v.03l-.03.02-.04.03-.05.07.01.01.01.01.01.01.02-.02.08-.02.06-.06.03-.01h.03l.04-.01.04-.08.04-.03.01.01.02.09Zm-1.22-.23h-.02l-.02.04v.02l.01.03-.05.01-.01-.01v.03l.17.06.03.02.04.11.02.02.02.02h.03l.02.01.02.03v.03h-.05l-.02.02-.06.07.01-.04v-.03l.01-.02.02-.03-.11-.11-.06-.03-.06-.01v.03l.01.02.02.04-.03-.03-.02.04-.02.01h-.02l-.02-.02-.01-.01-.01-.02-.04-.1v-.02l-.01-.02-.02-.04-.02-.01h-.02l-.01-.01-.01-.04h.05l.07.02.03-.02.06-.09.04-.02.04.03v.02Zm2.97-.87-.01.04h.03v.03l-.04.03-.04.04-.03.01-.01-.07.02-.07.04-.04.05-.02h.04v.03h-.01l-.03.01-.01.01Zm.63-2.4v.02l.01-.02h.02l.01.03-.01.05-.02.04-.02.07-.02.03h-.01v-.03l.01-.05V3.45999329v.03l-.01.02-.03.06-.03.03-.01-.02.03-.04.01-.05.01-.06.02-.05v-.03l-.02-.02.01-.02.04-.01.01-.02h.01l.01.04-.02.06Zm-1.61-.16-.03.05-.06-.02-.04-.04-.01-.03v-.03l.02-.02.03-.02.05-.01.03.01.01.03v.08Zm2.16-.24v.05l.01.04h.01l.03-.03v.1l-.02.05-.01.03-.02.1-.02.01-.07-.05-.02-.03.01-.14-.04-.06v-.05h.05l.04.02.01-.01.01-.04.02-.01.01.02Zm.22-.7-.09.03-.04-.03.01-.02.01-.02.01-.02.01-.03.02-.04.02-.01h.03l.02-.02.02-.02.07-.01.03-.01.02-.01v.02l-.01.03-.03.04-.04.05-.06.07Zm.37-1.2h.02l.01-.01.01-.01.01-.01.04.01.02.02.01.04-.02.05-.05.05-.06-.02-.07-.03h-.06v.04l.01.01.01.01v.02l.01.01-.06-.01-.05-.07-.07-.16v-.03h.26l.02.01v.06l.01.02Zm-1.07.04-.01.03-.01.02h-.02l.02.11-.02.04-.03.04-.03.06h.04l-.01.02-.01.01h-.02l.01.01.01.01.01.01h.01l-.04.15h.02l.02-.01.02-.02.02-.03.01.03-.03.07-.01.03.01.02v.04l-.04.02-.06.15-.04.04v.04h.03l.03-.01.02-.01.03-.02-.01-.08.07-.04.14-.03-.11-.08-.03-.04.02-.04.03-.02.02.01.01.07.02-.02.04-.08.01-.03.02-.01.04.02.03.05-.01.05.02.01.03.02.01.04.01.05-.01.02v.01l.03.03-.03.02-.05-.03-.02.02-.02.04-.02.02-.02.01v.01h.03l.05-.03-.01.01-.02.02v.04l.08-.05.02.02.01.09h.01l.01-.05h.02l.02-.01.01-.03v-.03l.02-.04.01-.03.01.01.01.02v.03l.02-.07.03-.05.04-.03h.05l-.03.08-.16.18-.01.04v.03l.01.01.02-.02.02-.04.01-.02.03-.02h.03l.02.05-.01.03v.04l-.01.05-.02.02-.18.02-.03.01.05.05.11.02.06.05-.11.11-.02.01-.01.01v.05l.01.02.01.01.01-.02h.01l.02.01h.03l.01.02-.08.08-.04.02-.04-.01-.02-.06-.02-.03h-.02l-.02.02v.03l.02.02.01.02v.03h-.04l-.03.03v.03h.09l-.02.03-.01.03-.02.06.04-.06.02-.02.03-.01-.06.15-.01.06.03-.05.05-.02.02.02-.03.08.08.06v.03h-.06v.04h.01v.03l-.03-.03-.03.02-.02.03h-.04l.03.04-.01.03-.01.02-.02.01h-.02v.03h.02l.04.03-.03.05.02.06.04.04h.02l-.01.06-.04.04h-.04l-.03-.01.01.06.05.13-.02.05-.03-.01-.07-.04v.18l-.02.08-.03.07-.01-.03h-.01l.02.05.01.05-.01.05-.02.06.03.03v.07l-.03.02v-.02l-.04-.07-.02.04h-.02v-.03l.03-.04v-.03l-.04-.03-.07.01-.03-.02-.03-.05.04-.06-.01-.07.01-.03.03-.02.02-.01h.03v-.02l-.04-.05-.02-.02v-.03h.06l-.02-.07.03-.07.03-.08.04-.21.03-.09.02-.08-.01-.12-.01-.02h-.03l-.01-.05v-.01l.01-.02.04-.1h-.03l-.03.03-.01.01h-.02l-.01-.02.01-.03.03-.12.02-.04.02-.04.02-.02v-.03l-.04-.01-.04.05-.06.14-.03-.1-.03-.08-.05-.05-.07-.01v.03l.04.02.04.04.03.05.03.07-.02.06-.04-.04-.02-.02h-.03v.08l-.01.06-.02.01-.01-.06-.03.03-.01.04-.01.05-.02.03h-.02l-.08-.06-.01-.01-.04-.05h-.01l-.02-.04.01-.02.01-.03.02-.03.07-.01.03-.02-.03-.02-.05-.09-.01.03-.01.06-.03.04-.03.01-.01-.04-.01-.04-.03.01-.07.04-.05.01-.02-.01-.01-.01-.01-.03v-.02h-.02l-.04-.01-.02-.03-.02-.11-.03-.09.01-.03.03-.04.04-.03.04-.02.04-.01h.04l.03.03.02.04.03.03.04-.01-.02-.06.08.03v-.03h-.02v-.03l.11-.01.03.03v.14l.01-.01.03-.02v-.01l-.01-.02-.01-.05-.01-.02h.05l-.01-.02-.01-.04.06-.02.05.01.05.06.03.1.03-.05.03-.04-.06-.06.04-.12.02.02h.01l.03.01-.02-.05.04-.02.11.01-.06-.04-.06-.02-.05-.03-.02-.1-.04.05-.02.02-.03-.01-.02-.03-.01-.04.01-.05.02-.03v-.03h-.07l-.03-.01-.02-.02.01-.06-.01-.08-.02-.14-.02.09-.03.05-.02.02-.04-.02v-.03l.01-.05.03-.03h-.05l-.03.01h-.04l-.03-.04-.02.05-.03.02h-.08l-.01-.03.01-.05.02-.05.02-.03.06.01.01-.01.01-.03v-.06l.01-.03.02-.04.03-.04h.02l.03.05.03.09.07.08.09.03.07-.05-.02-.02-.04-.01h-.05l-.02-.01-.02-.04-.02-.03-.04-.01.02-.03.03-.08.01-.02h.02l.07-.05-.02-.03-.01-.01.02-.03.01-.02-.01-.02v-.02l.05-.03.06.01.06.04.05.04.01-.02.01-.01-.04-.04.01-.05.05-.1.02.09v.04l-.01.03.01.04Zm.47-.62.02.08.03-.05.04-.01h.1v.08l-.02.01v.04h.01l.01.02.01.01-.02.05v.04l.04.09-.01.05-.02.05-.07-.09-.04-.03-.04-.01.02.04.03.05.05.13-.03.02-.03.01-.03-.01-.03-.02.01.05.03.03.03.01h.04l-.01.02-.01.01.04.05v.05l-.03.05-.04.01.03.08.01.03.01.06-.01.05-.02.01-.05-.02h-.05l-.03-.01-.01-.03h-.01l-.01.02-.01.02.03.03v.03l-.08-.02-.05-.05-.03-.1-.03-.42.02-.1.08-.02v.03l-.01.06.02.05.04.03.02-.01v-.02l-.03-.12-.01-.06.01-.03.02-.07-.01-.01-.01-.02v-.09l.01-.03.02-.05.03-.04.03-.01Zm.67-.25-.04.03-.03.03.01.05v.04h-.04l.01.01.02.01.01.01v.03l-.09.1-.01.02.01.06.03.05.02.04-.03.04h-.03l-.01-.01-.02-.01-.02-.01-.04-.01-.04.01-.06.01-.04-.01-.03-.03.01-.04v-.09l-.01-.03.04.03.01-.03-.01-.07-.01-.05.04-.02.02-.06v-.07l-.03-.03v-.04l.03-.02.05-.04.03-.05-.01-.05.03-.04h.02l.02.03.01.06-.01.05-.02.03-.02.03-.03.04.01.01.03-.01.03-.03.02-.02.05-.17.02-.03.01.02h.02l.03.01.02.01.03.02.02.04v.05l-.01.01-.05.02.05.03h.01l-.03.04Z"/></svg>