<svg xmlns="http://www.w3.org/2000/svg" viewBox="0 0 10.66998291015625 8.3499755859375"><path d="M 519.4 311.93 519.45 311.96 519.46 311.97 519.54 311.99 519.55 311.99 519.6 312.01 519.62 312.08 519.59 312.13 519.52 312.16 519.44 312.15 519.38 312.13 519.38 312.11 519.37 312.08 519.34 312.07 519.32 312.11 519.33 312.13 519.27 312.17 519.2 312.18 519.13 312.17 519.06 312.15 519.02 312.13 519.02 312.13 519 312.12 518.94 312.11 518.9 312.11 518.88 312.1 518.87 312.08 518.91 312.05 518.93 312.03 518.94 312.03 518.94 312.03 518.99 312.01 519.02 312 519.06 311.96 519.07 311.95 519.09 311.94 519.1 311.94 519.12 311.93 519.14 311.93 519.17 311.94 519.18 311.94 519.19 311.95 519.21 311.94 519.26 311.9 519.32 311.87 519.34 311.86 519.36 311.83 519.38 311.86 519.37 311.87 519.36 311.88 519.36 311.88 519.39 311.92 519.4 311.93 Z M 520.14 311.88 520.12 311.95 520.1 311.9 520.05 311.88 520 311.87 519.95 311.84 519.93 311.78 519.93 311.78 519.96 311.73 520 311.71 520.02 311.72 520.03 311.73 520.09 311.8 520.12 311.83 520.14 311.88 520.14 311.88 Z M 520.25 311.81 520.23 311.82 520.21 311.82 520.19 311.81 520.15 311.76 520.13 311.74 520.11 311.74 520.1 311.72 520.11 311.68 520.13 311.66 520.15 311.64 520.18 311.63 520.22 311.63 520.23 311.67 520.26 311.71 520.31 311.76 520.29 311.78 520.27 311.8 520.25 311.81 Z M 516.62 311.85 516.58 311.88 516.55 311.85 516.53 311.81 516.5 311.75 516.5 311.71 516.54 311.67 516.57 311.63 516.62 311.59 516.67 311.61 516.7 311.65 516.71 311.71 516.7 311.75 516.66 311.81 516.62 311.85 Z M 520.44 311.62 520.45 311.65 520.42 311.72 520.38 311.74 520.32 311.63 520.32 311.62 520.33 311.61 520.36 311.62 520.38 311.63 520.39 311.64 520.39 311.63 520.39 311.61 520.35 311.59 520.35 311.57 520.38 311.56 520.42 311.59 520.44 311.62 Z M 518.43 311.7 518.34 311.74 518.3 311.77 518.25 311.78 518.22 311.8 518.22 311.83 518.2 311.86 518.17 311.82 518.14 311.82 518.1 311.8 518.07 311.83 517.99 311.82 517.96 311.82 517.91 311.83 517.9 311.83 517.9 311.83 517.89 311.82 517.89 311.8 517.9 311.79 517.91 311.77 517.91 311.76 518 311.78 518.02 311.78 518.08 311.75 518.09 311.74 518.1 311.73 518.17 311.7 518.21 311.68 518.23 311.68 518.25 311.72 518.28 311.73 518.3 311.72 518.3 311.7 518.3 311.67 518.28 311.65 518.28 311.65 518.37 311.53 518.41 311.5 518.41 311.51 518.42 311.54 518.42 311.55 518.47 311.58 518.47 311.58 518.46 311.67 518.43 311.7 Z M 520.74 311.47 520.71 311.48 520.65 311.47 520.55 311.43 520.44 311.4 520.44 311.36 520.44 311.36 520.53 311.28 520.56 311.23 520.58 311.23 520.58 311.23 520.56 311.28 520.56 311.28 520.58 311.33 520.62 311.36 520.7 311.4 520.74 311.44 520.74 311.47 Z M 515.99 311.33 515.96 311.35 515.93 311.33 515.92 311.31 515.91 311.31 515.89 311.29 515.89 311.26 515.91 311.24 515.93 311.21 515.95 311.19 516 311.23 516.02 311.28 515.99 311.33 Z M 524.76 309.45 524.72 309.47 524.71 309.4 524.72 309.39 524.74 309.39 524.77 309.41 524.76 309.45 Z M 524.75 308.54 524.75 308.54 524.8 308.57 524.85 308.59 524.89 308.6 524.9 308.63 524.95 308.79 524.94 309.02 524.94 309.04 524.95 309.11 524.95 309.13 524.93 309.16 524.93 309.18 524.95 309.22 524.96 309.24 524.97 309.26 524.98 309.28 524.98 309.29 524.98 309.31 524.98 309.34 524.97 309.39 524.97 309.46 524.94 309.57 524.94 309.91 524.94 309.94 524.98 310.13 524.86 310.14 524.85 310.15 524.84 310.17 524.83 310.24 524.83 310.29 524.83 310.31 524.82 310.33 524.75 310.37 524.74 310.39 524.67 310.46 524.63 310.48 524.55 310.49 524.51 310.5 524.51 310.5 524.48 310.59 524.43 310.65 524.42 310.69 524.4 310.72 524.35 310.73 524.31 310.73 524.3 310.73 524.27 310.73 524.2 310.67 524.14 310.5 524.06 310.43 524.04 310.39 524.05 310.36 524.09 310.35 524.12 310.36 524.15 310.37 524.2 310.41 524.19 310.36 524.17 310.25 524.15 310.18 524.09 310.14 524.08 310.14 523.99 310.13 523.91 310.15 523.83 310.2 523.82 310.21 523.76 310.27 523.69 310.35 523.66 310.43 523.68 310.61 523.68 310.66 523.67 310.75 523.68 310.79 523.69 310.82 523.72 310.89 523.73 310.94 523.67 311 523.65 311.08 523.62 311.11 523.6 311.15 523.6 311.2 523.63 311.3 523.63 311.3 523.63 311.43 523.63 311.47 523.65 311.48 523.69 311.51 523.71 311.54 523.71 311.56 523.71 311.67 523.69 311.71 523.61 311.86 523.59 311.9 523.59 311.94 523.62 311.95 523.76 311.98 523.79 311.99 523.92 311.94 523.99 311.96 524.02 312.05 524.05 312.15 524.13 312.3 524.1 312.34 523.96 312.37 523.71 312.48 523.66 312.47 523.61 312.43 523.57 312.43 523.53 312.45 523.5 312.45 523.42 312.44 523.35 312.44 523.29 312.45 523.23 312.47 523.16 312.51 523.12 312.53 523.02 312.57 522.93 312.58 522.92 312.62 522.94 312.66 522.98 312.7 523.06 312.75 523.09 312.8 523.1 312.87 523.11 313.05 523.1 313.08 523 313.23 522.98 313.28 522.9 313.57 522.87 313.62 522.79 313.71 522.79 313.71 522.75 313.77 522.72 313.85 522.68 314.09 522.63 314.24 522.42 314.61 522.35 314.84 522.34 314.91 522.34 314.91 522.35 315.26 522.33 315.61 522.18 315.8 522.15 315.8 521.85 315.76 521.54 315.72 521.23 315.68 520.92 315.64 520.61 315.6 520.31 315.56 520 315.52 519.69 315.48 519.38 315.44 519.07 315.4 518.76 315.36 518.46 315.31 518.15 315.27 517.84 315.23 517.53 315.19 517.22 315.15 516.92 315.11 516.56 315.06 516.5 315.05 516.46 315.01 516.34 314.85 516.23 314.71 516.11 314.56 515.99 314.41 515.88 314.26 515.76 314.11 515.65 313.96 515.53 313.81 515.42 313.66 515.3 313.52 515.19 313.37 515.07 313.22 514.95 313.07 514.84 312.92 514.72 312.77 514.61 312.62 514.49 312.47 514.37 312.31 514.33 312.25 514.32 312.19 514.33 312.03 514.33 311.97 514.31 311.88 514.36 311.81 514.36 311.7 514.32 311.62 514.37 311.57 514.39 311.61 514.43 311.68 514.44 311.72 514.44 311.86 514.46 311.95 514.49 311.97 514.52 311.93 514.54 311.82 514.56 311.85 514.58 311.93 514.59 311.95 514.6 311.96 514.62 311.96 514.64 311.96 514.65 311.95 514.66 311.93 514.65 311.93 514.69 311.83 514.73 311.79 514.78 311.86 514.78 311.92 514.76 312.07 514.76 312.13 514.79 312.25 514.79 312.27 514.79 312.35 514.8 312.38 514.82 312.43 514.82 312.45 514.84 312.49 514.9 312.51 515 312.51 515.03 312.52 515.05 312.53 515.09 312.57 515.11 312.58 515.13 312.58 515.13 312.57 515.12 312.55 515.11 312.52 515.16 312.52 515.29 312.52 515.3 312.52 515.32 312.52 515.35 312.55 515.42 312.58 515.43 312.58 515.53 312.57 515.57 312.58 515.59 312.56 515.61 312.58 515.65 312.56 515.68 312.56 515.72 312.56 515.76 312.56 515.8 312.54 515.89 312.49 515.92 312.49 515.99 312.49 516.02 312.48 516.05 312.46 516.08 312.43 516.1 312.4 516.14 312.39 516.17 312.39 516.22 312.37 516.25 312.34 516.27 312.32 516.28 312.29 516.35 312.26 516.38 312.24 516.41 312.21 516.45 312.18 516.49 312.16 516.52 312.15 516.54 312.13 516.55 312.09 516.55 312.04 516.55 312.01 516.6 311.99 516.64 312 516.67 312.04 516.75 312.15 516.78 312.16 516.79 312.15 516.79 312.14 516.81 312.13 516.86 312.13 516.95 312.16 517 312.16 517.03 312.16 517.08 312.14 517.1 312.13 517.13 312.13 517.15 312.13 517.16 312.14 517.18 312.15 517.37 312.16 517.39 312.16 517.47 312.13 517.48 312.12 517.48 312.11 517.48 312.1 517.5 312.1 517.51 312.1 517.52 312.11 517.52 312.12 517.53 312.13 517.59 312.18 517.63 312.2 517.72 312.16 517.77 312.18 517.81 312.2 517.85 312.19 517.82 312.18 517.81 312.15 517.81 312.13 517.8 312.1 517.85 312.08 517.91 312.11 517.96 312.15 518 312.19 518.03 312.24 518.05 312.26 518.17 312.26 518.45 312.21 518.47 312.21 518.49 312.22 518.52 312.25 518.54 312.27 518.58 312.28 518.61 312.27 518.63 312.26 518.67 312.29 518.7 312.31 518.72 312.31 518.73 312.32 518.76 312.36 518.77 312.38 518.79 312.38 518.82 312.38 518.84 312.38 518.88 312.36 518.9 312.36 518.92 312.37 518.94 312.38 519.01 312.35 519.02 312.34 519.04 312.33 519.06 312.33 519.08 312.34 519.11 312.34 519.38 312.35 519.43 312.34 519.46 312.32 519.59 312.25 519.73 312.22 519.78 312.2 519.82 312.19 519.88 312.16 519.95 312.15 519.97 312.15 520 312.13 520.04 312.1 520.08 312.06 520.09 312.02 520.11 312 520.26 311.96 520.38 311.88 520.4 311.87 520.42 311.84 520.46 311.84 520.55 311.88 520.56 311.85 520.65 311.79 520.69 311.73 520.78 311.56 520.76 311.5 520.77 311.47 520.81 311.45 520.79 311.44 520.78 311.43 520.78 311.42 520.81 311.42 520.87 311.44 520.9 311.45 520.88 311.42 520.85 311.38 520.84 311.35 520.87 311.37 520.91 311.38 520.94 311.39 520.96 311.42 520.97 311.42 520.97 311.35 520.92 311.33 520.87 311.33 520.81 311.32 520.68 311.23 520.63 311.22 520.63 311.2 520.65 311.19 520.68 311.18 520.7 311.15 520.71 311.17 520.71 311.19 520.73 311.2 520.73 311.18 520.73 311.16 520.76 311.12 520.78 311.12 520.79 311.19 520.84 311.25 520.89 311.29 520.94 311.28 520.93 311.28 520.9 311.25 520.92 311.25 520.97 311.27 520.99 311.27 521 311.26 521.02 311.22 521.03 311.22 521.11 311.05 521.07 311.03 521.06 311.01 521.07 310.99 521.1 310.99 521.13 310.97 521.13 310.94 521.15 310.9 521.19 310.89 521.19 310.87 521.17 310.86 521.16 310.83 521.15 310.8 521.14 310.77 521.15 310.75 521.14 310.74 521.12 310.72 521.13 310.68 521.15 310.66 521.23 310.6 521.24 310.59 521.25 310.56 521.27 310.55 521.34 310.58 521.34 310.59 521.37 310.58 521.4 310.56 521.41 310.52 521.38 310.49 521.63 310.34 521.73 310.27 521.8 310.2 521.85 310.17 521.9 310.16 521.91 310.16 521.92 310.15 521.92 310.15 521.93 310.15 521.94 310.14 521.95 310.14 521.95 310.13 521.96 310.13 521.97 310.13 522.03 310.09 522.02 310.04 522.09 310.03 522.1 310.03 522.26 309.84 522.49 309.55 522.5 309.51 522.5 309.48 522.54 309.44 522.58 309.45 522.61 309.49 522.62 309.53 522.61 309.56 522.58 309.6 522.65 309.58 522.66 309.54 522.64 309.49 522.6 309.4 522.59 309.39 522.6 309.36 522.67 309.29 522.69 309.28 522.72 309.29 522.71 309.25 522.71 309.23 522.73 309.2 522.75 309.19 522.77 309.2 522.82 309.17 522.89 309.07 522.9 309.07 522.91 309.1 522.93 309.1 522.94 309.08 522.95 309.05 522.96 309.07 522.99 308.98 523.02 308.94 523.04 308.92 523.01 308.9 523.03 308.87 523.05 308.83 523.07 308.79 523.08 308.75 523.1 308.7 523.14 308.66 523.18 308.65 523.16 308.69 523.13 308.72 523.12 308.75 523.13 308.78 523.17 308.8 523.21 308.79 523.26 308.78 523.3 308.77 523.32 308.75 523.35 308.65 523.37 308.62 523.43 308.55 523.47 308.53 523.54 308.5 523.6 308.42 523.62 308.4 523.64 308.4 523.67 308.39 523.7 308.37 523.71 308.36 523.72 308.35 523.78 308.33 523.86 308.27 523.98 308.12 524.04 308.06 524.03 308.09 524.02 308.14 523.99 308.18 524 308.19 524.02 308.2 524.03 308.19 524.03 308.15 524.05 308.09 524.06 308.04 524.07 308.02 524.17 307.93 524.18 307.9 524.2 307.88 524.22 307.84 524.22 307.8 524.21 307.8 524.2 307.82 524.19 307.84 524.17 307.85 524.15 307.86 524.21 307.76 524.26 307.66 524.3 307.5 524.3 307.48 524.36 307.48 524.47 307.45 524.49 307.45 524.53 307.55 524.54 307.6 524.54 307.64 524.52 307.71 524.51 307.93 524.5 307.97 524.45 308.03 524.44 308.07 524.45 308.11 524.5 308.18 524.51 308.21 524.5 308.24 524.47 308.26 524.45 308.29 524.44 308.33 524.46 308.44 524.47 308.47 524.47 308.47 524.48 308.48 524.53 308.48 524.55 308.5 524.57 308.55 524.59 308.57 524.62 308.58 524.66 308.57 524.75 308.54 Z M 524.71 309.27 524.65 309.31 524.66 309.35 524.66 309.38 524.68 309.4 524.65 309.42 524.6 309.45 524.59 309.51 524.59 309.54 524.62 309.55 524.66 309.56 524.69 309.54 524.76 309.5 524.78 309.48 524.83 309.46 524.9 309.43 524.91 309.36 524.82 309.34 524.78 309.28 524.71 309.27 Z" fill-rule="evenodd" id="United Arab Emirates" transform="translate(-514.3099975585938,-307.45001220703125) "/></svg>