<svg xmlns="http://www.w3.org/2000/svg" viewBox="0 0 11.80999755859375 12.759979248046875"><path d="M 274.1 436.58 274.15 436.64 274.17 436.67 274.3 436.77 274.37 436.8 274.41 436.82 274.44 436.86 274.46 436.89 274.47 436.94 274.46 436.97 274.47 436.99 274.5 437.01 274.53 437.01 274.55 437.01 274.57 437.02 274.59 437.03 274.6 437.05 274.62 437.08 274.71 437.17 274.73 437.19 274.77 437.23 274.89 437.3 274.93 437.34 274.98 437.43 275.01 437.47 275.04 437.5 275.14 437.56 275.27 437.67 275.35 437.7 275.39 437.75 275.46 437.83 275.47 437.86 275.48 437.88 275.49 437.91 275.51 437.93 275.56 437.96 275.57 437.98 275.59 438 275.66 438.14 275.7 438.18 275.84 438.3 275.88 438.37 275.89 438.45 275.88 438.52 275.84 438.59 275.83 438.65 275.83 438.82 275.82 438.94 275.82 438.99 275.83 439.01 275.84 439.03 275.84 439.03 275.9 439.02 276.05 439.03 276.11 439.02 276.17 439.02 276.19 439.01 276.21 439 276.22 438.98 276.22 438.97 276.24 438.95 276.36 438.87 276.39 438.84 276.41 438.8 276.43 438.71 276.46 438.68 276.5 438.67 276.56 438.68 276.61 438.69 276.64 438.66 276.64 438.61 276.63 438.51 276.64 438.46 276.68 438.43 276.72 438.42 276.77 438.43 276.83 438.5 276.91 438.55 276.95 438.58 277 438.64 277.1 438.73 277.27 438.91 277.3 438.96 277.31 439.01 277.32 439.1 277.33 439.14 277.36 439.17 277.43 439.21 277.46 439.25 277.49 439.36 277.51 439.41 277.54 439.45 277.58 439.47 277.67 439.51 277.71 439.53 277.81 439.63 277.86 439.65 277.89 439.66 277.92 439.64 277.95 439.6 277.99 439.52 278.02 439.51 278.06 439.56 278.09 439.62 278.15 439.7 278.21 439.76 278.3 439.8 278.33 439.83 278.36 439.87 278.39 439.9 278.42 439.91 278.48 439.94 278.85 439.99 278.93 439.99 278.96 440 278.99 440.03 279.03 440.11 279.05 440.15 279.17 440.24 279.2 440.28 279.23 440.33 279.24 440.37 279.24 440.48 279.26 440.53 279.27 440.55 279.33 440.61 279.41 440.66 279.47 440.73 279.54 440.81 279.69 440.95 279.82 441.03 279.92 441.13 279.98 441.17 280 441.17 280.02 441.14 280.06 441.1 280.1 441.09 280.15 441.09 280.19 441.11 280.23 441.14 280.24 441.16 280.26 441.2 280.28 441.21 280.3 441.22 280.38 441.23 280.41 441.24 280.45 441.26 280.51 441.3 280.53 441.33 280.54 441.35 280.55 441.38 280.56 441.41 280.59 441.43 280.61 441.46 280.68 441.5 280.81 441.53 280.84 441.55 280.85 441.58 280.85 441.68 280.92 441.83 281.03 441.99 281.06 442.07 281.07 442.16 281.08 442.29 281.09 442.33 281.11 442.37 281.17 442.42 281.19 442.45 281.23 442.51 281.27 442.58 281.32 442.63 281.46 442.73 281.6 442.88 281.72 442.92 281.82 442.98 281.85 442.99 281.93 442.99 282 443.03 282.07 443.07 282.1 443.09 282.25 443.25 282.27 443.29 282.26 443.34 282.24 443.38 282.16 443.44 282.11 443.49 282.06 443.55 281.92 443.66 281.85 443.73 281.84 443.78 281.83 443.87 281.82 443.92 281.79 443.95 281.52 444.13 281.45 444.2 281.38 444.28 281.38 444.28 281.38 444.28 281.36 444.35 281.33 444.47 281.33 444.66 281.38 445.06 281.33 445.5 281.32 445.73 281.38 445.84 281.43 445.84 281.47 445.83 281.5 445.83 281.54 445.86 281.56 445.9 281.58 445.95 281.61 445.98 281.68 445.98 281.64 446 281.6 446.04 281.52 446.14 281.47 446.22 281.44 446.32 281.4 446.54 281.35 446.67 281.34 446.79 281.32 446.83 281.24 446.88 281.21 446.92 281.1 447.06 280.98 447.15 280.94 447.19 280.86 447.35 280.84 447.38 280.84 447.41 280.79 447.56 280.82 447.66 280.82 447.7 280.73 447.73 280.53 447.85 280.36 447.96 280.02 448.29 280 448.33 279.99 448.38 279.99 448.42 279.98 448.45 279.78 448.49 279.72 448.5 279.73 448.47 279.75 448.46 279.79 448.42 279.77 448.41 279.76 448.39 279.74 448.37 279.74 448.35 279.74 448.31 279.77 448.25 279.77 448.24 279.74 448.21 279.68 448.18 279.62 448.16 279.57 448.16 279.6 448.18 279.68 448.22 279.66 448.25 279.63 448.29 279.58 448.32 279.55 448.33 279.54 448.35 279.54 448.38 279.55 448.41 279.59 448.41 279.58 448.39 279.62 448.39 279.66 448.43 279.68 448.49 279.66 448.52 279.62 448.55 279.12 448.82 279.1 448.83 278.96 448.87 278.89 448.93 278.84 448.95 278.75 448.98 278.37 449.17 278.32 449.18 278.27 449.19 278.22 449.26 278.18 449.27 278.19 449.24 278.19 449.22 278.19 449.21 278.17 449.18 278.14 449.15 278.1 449.13 278.01 449.12 278 449.11 278.01 449.09 277.99 449.06 277.97 449.05 277.95 449.04 277.9 449.03 277.8 449.03 277.59 449.08 277.51 449.06 277.45 449.01 277.33 448.85 277.25 448.81 277.19 448.8 277.05 448.79 276.95 448.8 276.84 448.77 276.75 448.73 276.65 448.75 276.55 448.71 276.41 448.76 276.33 448.73 276.18 448.78 276.11 448.81 275.97 448.91 275.86 448.99 275.71 449.07 275.63 449.07 275.57 449.11 275.53 449.13 275.52 449.18 275.47 449.11 275.44 449.11 275.39 449.09 275.41 449.07 275.42 449.04 275.39 449.02 275.36 449.01 275.34 449.05 275.3 449.09 275.28 449.09 275.23 449.08 275.18 449.09 275.11 449.03 274.97 448.95 274.94 448.92 274.93 448.88 274.97 448.85 275.01 448.81 275.07 448.79 275.03 448.76 274.99 448.74 274.87 448.69 274.79 448.68 274.71 448.68 274.67 448.71 274.63 448.71 274.6 448.69 274.51 448.64 274.47 448.62 274.43 448.59 274.29 448.55 274.1 448.53 273.93 448.45 273.89 448.43 273.86 448.36 273.83 448.33 273.75 448.27 273.7 448.21 273.66 448.17 273.62 448.14 273.56 448.1 273.52 448.07 273.53 448.03 273.51 448.02 273.48 447.99 273.47 447.98 273.42 447.93 273.38 447.9 273.31 447.87 273.2 447.84 273 447.84 272.88 447.85 272.84 447.81 272.74 447.81 272.68 447.85 272.65 447.81 272.6 447.81 272.54 447.84 272.46 447.87 272.39 447.8 272.33 447.8 272.27 447.81 272.18 447.85 272.05 447.9 272.01 447.89 271.96 447.93 271.89 447.92 271.83 447.93 271.75 447.92 271.78 447.9 271.76 447.86 271.69 447.84 271.65 447.77 271.66 447.67 271.6 447.61 271.56 447.53 271.4 447.34 271.32 447.3 271.3 447.26 271.26 447.18 271.22 447.14 271.17 447.11 271.11 447.1 271.06 447.1 271 447.09 270.97 447.06 270.94 446.96 270.92 446.9 270.73 446.63 270.69 446.59 270.61 446.54 270.57 446.51 270.54 446.46 270.52 446.4 270.47 446.09 270.46 445.86 270.49 445.64 270.48 445.58 270.47 445.53 270.46 445.47 270.47 445.41 270.5 445.36 270.58 445.26 270.59 445.2 270.58 445.15 270.52 445.1 270.5 445.05 270.52 445 270.55 444.96 270.63 444.88 270.66 444.82 270.66 444.76 270.62 444.54 270.62 444.42 270.65 444.34 270.75 444.31 270.95 444.32 271.05 444.31 271.13 444.27 271.21 444.19 271.25 444.14 271.26 444.1 271.27 444.04 271.28 443.99 271.31 443.89 271.33 443.79 271.31 443.71 271.26 443.65 271.17 443.54 271.14 443.5 271.13 443.45 271.13 443.4 271.13 443.28 271.13 443.22 271.11 443.17 271.13 443.15 271.11 443.09 271.08 442.9 271.06 442.87 271.04 442.83 271 442.63 270.99 442.57 270.99 442.57 270.99 442.56 271.01 442.54 271.07 442.42 271.21 442.22 271.22 442.14 271.2 442.06 271.04 441.86 271.02 441.8 271.03 441.75 271.08 441.67 271.1 441.57 271.11 441.45 271.1 441.34 271.08 441.26 271.01 441.18 270.98 441.13 271 441.07 271.06 441 271.09 440.98 271.14 440.96 271.25 440.94 271.3 440.91 271.33 440.88 271.46 440.48 271.48 440.36 271.46 440.25 271.4 440.17 271.35 440.13 271.32 440.11 271.27 440.04 271.29 439.96 271.34 439.93 271.42 439.88 271.46 439.85 271.48 439.8 271.49 439.68 271.51 439.63 271.52 439.61 271.56 439.58 271.58 439.57 271.62 439.47 271.64 439.44 271.64 439.37 271.63 439.26 271.66 439.14 271.71 439.06 271.75 438.97 271.74 438.85 271.64 438.71 271.63 438.68 271.65 438.64 271.69 438.61 271.78 438.59 271.83 438.59 271.86 438.58 271.87 438.54 271.89 438.48 271.89 438.45 271.89 438.35 271.88 438.28 271.87 438.24 271.86 438.17 271.84 438.08 271.82 438.02 271.77 437.91 271.74 437.87 271.69 437.77 271.68 437.67 271.71 437.57 271.77 437.5 272.2 437.1 272.25 437.02 272.27 436.92 272.24 436.81 272.23 436.75 272.24 436.73 272.29 436.73 272.35 436.78 272.39 436.91 272.46 436.96 272.52 436.97 272.61 436.95 272.67 436.95 272.7 436.96 272.73 437.01 272.77 437.02 272.79 437.01 272.84 436.97 272.87 436.95 272.91 436.95 272.94 436.97 272.96 436.99 272.99 437.01 273.01 437 273.04 436.97 273.05 436.96 273.07 436.97 273.1 437 273.11 437.01 273.18 436.99 273.24 436.94 273.29 436.87 273.3 436.79 273.32 436.72 273.36 436.64 273.42 436.57 273.48 436.53 273.5 436.53 273.54 436.55 273.57 436.55 273.61 436.53 273.63 436.52 273.71 436.51 273.75 436.51 273.86 436.54 273.94 436.52 274.02 436.52 274.1 436.58 Z" id="Uruguay" transform="translate(-270.4599914550781,-436.510009765625) "/></svg>