<svg xmlns="http://www.w3.org/2000/svg" viewBox="0 0 38.07000732421875 24.69000244140625"><path d="M 559.06 270.93 559.03 270.94 558.97 270.92 558.93 270.9 558.88 270.86 558.86 270.82 558.89 270.78 558.95 270.78 558.99 270.76 559.07 270.7 559.12 270.68 559.13 270.71 559.08 270.89 559.06 270.93 Z M 557.76 270.53 557.78 270.53 557.79 270.52 557.81 270.51 557.82 270.5 557.88 270.48 557.91 270.49 557.92 270.52 557.91 270.56 557.81 270.63 557.77 270.67 557.78 270.74 557.87 270.85 557.87 270.94 557.85 270.97 557.81 270.98 557.74 270.98 557.64 271.01 557.6 271.01 557.58 270.98 557.57 270.95 557.56 270.93 557.52 270.93 557.49 270.94 557.46 270.97 557.43 270.99 557.4 270.98 557.4 270.91 557.5 270.76 557.48 270.67 557.46 270.65 557.4 270.64 557.37 270.62 557.35 270.59 557.29 270.47 557.28 270.42 557.28 270.37 557.29 270.32 557.33 270.23 557.4 270.19 557.45 270.23 557.49 270.3 557.52 270.38 557.56 270.42 557.62 270.46 557.74 270.51 557.75 270.52 557.76 270.53 Z M 557.27 264.06 557.32 264.02 557.41 263.94 557.48 263.93 557.56 263.96 557.87 264.19 557.94 264.21 557.94 264.21 557.91 264.32 557.83 264.38 557.65 264.43 557.33 264.67 557.24 264.69 557.13 264.69 557.04 264.71 557 264.82 557 264.99 556.97 265.04 556.89 265.07 556.67 265.09 556.61 265.13 556.39 265.32 556.29 265.44 556.22 265.58 556.17 265.65 556.11 265.7 556.03 265.73 555.9 265.84 555.54 266.05 555.5 266.12 555.54 266.22 555.62 266.26 555.93 266.3 555.93 266.3 555.93 266.3 555.93 266.3 556.01 266.35 556.05 266.38 556.08 266.42 556.14 266.53 556.17 266.56 556.21 266.56 556.22 266.56 556.3 266.53 556.57 266.38 556.65 266.36 556.69 266.39 556.73 266.44 556.85 266.65 556.87 266.71 556.88 266.78 556.84 266.96 556.85 267.01 556.87 267.05 556.91 267.04 556.95 267.02 557 267.02 557.05 267.04 557.09 267.06 557.12 267.1 557.15 267.14 557.19 267.18 557.24 267.19 557.33 267.17 557.44 267.19 557.49 267.21 557.53 267.25 557.57 267.27 557.66 267.28 557.69 267.31 557.75 267.41 557.78 267.43 557.8 267.37 557.8 267.31 557.79 267.26 557.79 267.22 557.84 267.19 557.89 267.2 557.92 267.23 557.95 267.34 557.97 267.39 558 267.42 558.03 267.41 558.05 267.36 558.1 267.29 558.26 267.42 558.31 267.37 558.32 267.27 558.3 266.77 558.31 266.73 558.34 266.74 558.45 266.84 558.54 266.88 558.62 266.86 558.68 266.8 558.76 266.64 558.79 266.54 558.8 266.48 558.79 266.43 558.73 266.35 558.7 266.3 558.7 266.3 558.7 266.3 558.7 266.3 558.75 266.18 558.77 266.15 558.82 266.13 558.87 266.14 558.9 266.18 558.91 266.24 558.91 266.3 558.87 266.46 558.87 266.5 558.89 266.51 558.91 266.48 558.92 266.45 558.93 266.43 558.95 266.44 558.96 266.49 558.98 266.5 559 266.49 559 266.42 559.02 266.41 559.04 266.42 559.05 266.43 559.26 266.75 559.3 266.83 559.31 266.93 559.3 267.05 559.32 267.18 559.37 267.21 559.55 267.18 559.6 267.22 559.64 267.27 559.67 267.29 559.74 267.25 559.79 267.21 559.84 267.17 559.89 267.16 559.95 267.2 559.98 267.25 559.99 267.33 559.99 267.42 560.01 267.57 560.01 267.63 560 267.68 559.97 267.75 560.03 267.73 560.16 267.69 560.24 267.68 560.26 267.67 560.28 267.59 560.3 267.57 560.34 267.53 560.37 267.55 560.43 267.65 560.48 267.68 560.54 267.7 560.66 267.71 560.67 267.72 560.67 267.73 560.68 267.75 560.67 267.77 560.67 267.83 560.71 267.85 560.77 267.86 560.81 267.87 560.9 268.02 560.97 268.1 561.06 268.14 561.15 268.15 561.44 268.12 561.53 268.14 561.54 268.23 561.53 268.28 561.56 268.27 561.66 268.2 561.82 268.13 561.86 268.15 561.89 268.19 561.94 268.23 562.07 268.22 562.12 268.23 562.13 268.23 562.13 268.23 562.15 268.29 562.08 268.38 561.97 268.44 561.77 268.52 561.58 268.64 561.42 268.68 561.34 268.71 561.28 268.79 561.26 268.99 561.19 269.02 561.11 268.98 561.07 268.98 561.06 269.03 561.05 269.07 561.04 269.11 561.02 269.15 560.99 269.17 560.9 269.18 560.74 269.07 560.66 269.06 560.59 269.03 560.52 268.94 560.45 268.88 560.38 268.91 560.37 268.96 560.37 268.96 560.42 269.04 560.42 269.04 560.42 269.09 560.41 269.14 560.41 269.17 560.41 269.17 560.43 269.19 560.52 269.26 560.52 269.26 560.53 269.29 560.54 269.32 560.54 269.32 560.54 269.39 560.52 269.46 560.47 269.52 560.42 269.54 560.36 269.51 560.23 269.44 560.2 269.42 560.1 269.43 560.07 269.42 560.07 269.42 560.08 269.39 560.11 269.39 560.14 269.38 560.18 269.37 560.18 269.34 560.18 269.34 560.16 269.33 560.12 269.32 560.11 269.32 560.01 269.33 559.97 269.34 559.82 269.42 559.8 269.45 559.79 269.5 559.75 269.58 559.7 269.64 559.5 269.74 559.49 269.78 559.49 269.78 559.51 269.82 559.55 269.85 559.61 269.88 559.63 269.89 559.64 269.9 559.66 269.93 559.64 269.96 559.61 269.97 559.58 269.96 559.55 269.95 559.53 269.94 559.52 269.95 559.49 269.95 559.41 269.95 559.32 269.93 559.24 269.93 559.17 270 559.13 270.09 559.1 270.13 559.07 270.17 558.95 270.23 558.92 270.24 558.88 270.22 558.86 270.18 558.86 270.06 558.85 270 558.82 269.94 558.78 269.9 558.74 269.94 558.72 269.99 558.72 270.04 558.7 270.08 558.64 270.08 558.54 270.06 558.49 270.04 558.44 270.01 558.4 269.97 558.38 269.93 558.36 269.9 558.26 269.87 558.19 269.8 558.15 269.8 558.08 269.8 558.04 269.8 558.01 269.79 557.99 269.76 557.97 269.73 557.95 269.71 557.91 269.72 557.88 269.78 557.86 269.84 557.83 269.89 557.76 269.9 557.5 269.86 557.37 269.88 557.29 269.96 557.25 269.96 557.05 269.98 556.73 270.07 556.64 270.08 556.55 270.07 556.46 270.01 556.42 269.89 556.39 269.75 556.33 269.66 556.28 269.64 556.24 269.64 556.2 269.65 556.15 269.66 556.1 269.64 555.99 269.6 556.02 269.5 556.01 269.48 555.99 269.46 555.99 269.46 555.99 269.46 555.96 269.41 555.96 269.41 555.95 269.39 555.95 269.33 555.99 269.28 556.05 269.23 556.2 269.2 556.23 269.19 556.25 269.16 556.3 269.07 556.33 269.04 556.36 269.02 556.4 269.02 556.43 269 556.46 268.98 556.53 268.88 556.67 268.77 556.7 268.74 556.73 268.71 556.75 268.7 556.79 268.7 556.8 268.68 556.8 268.67 556.81 268.66 556.84 268.64 556.84 268.64 556.85 268.61 556.87 268.51 556.78 268.46 556.58 268.42 556.54 268.37 556.54 268.32 556.56 268.29 556.6 268.28 556.68 268.35 556.73 268.36 556.73 268.31 556.71 268.28 556.31 267.83 556.24 267.77 556.23 267.76 556.22 267.75 556.18 267.7 556.15 267.67 556.06 267.63 555.97 267.65 555.91 267.96 555.79 268.1 555.63 268.2 555.4 268.29 555.19 268.45 554.78 268.58 554.73 268.61 554.69 268.64 554.59 268.76 554.54 268.81 554.48 268.83 554.41 268.8 554.39 268.78 554.36 268.75 554.32 268.68 554.3 268.65 554.24 268.61 554.22 268.59 554.13 268.45 554.08 268.41 554.01 268.4 553.97 268.38 553.95 268.35 553.92 268.32 553.88 268.32 553.8 268.34 553.77 268.36 553.74 268.39 553.68 268.46 553.65 268.54 553.63 268.62 553.63 268.73 553.64 268.89 553.64 268.93 553.6 268.95 553.47 268.96 553.39 269.01 553.39 269.07 553.48 269.22 553.48 269.22 553.53 269.39 553.55 269.44 553.61 269.54 553.63 269.6 553.64 269.66 553.63 269.8 553.56 269.81 553.47 269.78 553.41 269.79 553.42 269.87 553.58 270.02 553.58 270.09 553.5 270.13 553.39 270.12 553.19 270.06 553.11 270.02 553.04 269.99 552.99 269.98 552.63 270.04 552.59 270.05 552.51 270.1 552.46 270.11 552.33 270.08 552.28 270.09 552.16 270.12 552.07 270.14 552.02 270.18 552.08 270.24 552.18 270.3 552.26 270.33 552.28 270.33 552.8 270.23 552.9 270.3 552.91 270.34 552.92 270.39 552.92 270.43 552.9 270.46 552.85 270.47 552.69 270.45 552.64 270.46 552.56 270.53 552.54 270.54 552.49 270.45 552.45 270.42 552.42 270.47 552.43 270.5 552.47 270.53 552.47 270.55 552.47 270.61 552.47 270.64 552.48 270.67 552.68 270.94 552.69 271 552.59 271.04 552.54 270.96 552.51 270.84 552.46 270.74 552.42 270.71 552.4 270.73 552.41 270.78 552.43 270.84 552.48 270.95 552.48 270.99 552.45 271.05 552.44 271.05 552.42 271.06 552.41 271.06 552.4 271.1 552.4 271.11 552.4 271.12 552.39 271.15 552.38 271.17 552.35 271.15 552.29 271.06 552.25 271.03 552.18 271.1 552.15 271.08 552.12 271.08 552.1 271.14 552.08 271.61 552.06 271.68 552.03 271.73 551.98 271.79 551.89 271.85 551.86 271.89 551.86 271.91 551.88 271.95 551.88 271.95 551.84 271.97 551.7 272 551.59 272.01 551.48 272.01 551.3 271.94 550.97 271.93 550.21 271.73 550.11 271.73 550.03 271.76 549.82 271.91 549.64 271.93 549.6 271.98 549.61 272.1 549.61 272.1 549.61 272.11 549.6 272.12 549.59 272.13 549.57 272.13 549.52 272.12 549.48 272.13 549.46 272.15 549.44 272.26 549.42 272.38 549.42 272.48 549.39 272.58 549.37 272.67 549.36 272.68 549.34 272.67 549.32 272.68 549.3 272.7 549.28 272.71 549.28 272.73 549.28 272.77 549.29 272.88 549.29 272.88 549.36 272.94 549.62 273.04 549.8 273.04 549.89 273.08 549.9 273.09 549.92 273.12 549.93 273.14 549.95 273.14 549.98 273.13 550 273.14 550.02 273.17 550.02 273.17 550.02 273.21 550 273.43 550.01 273.5 550.01 273.5 550.01 273.5 550.05 273.54 550.33 273.59 550.39 273.58 550.56 273.53 550.56 273.53 550.56 273.53 550.56 273.53 550.56 273.53 550.59 273.51 550.62 273.5 550.65 273.5 550.69 273.52 550.71 273.53 550.74 273.56 550.78 273.57 550.81 273.55 550.85 273.53 550.87 273.52 550.89 273.52 550.9 273.52 550.92 273.53 550.92 273.53 550.92 273.53 550.92 273.53 550.96 273.57 551.03 273.73 551.07 273.8 551.1 273.83 551.12 273.89 551.12 273.95 551.1 274 551.07 274.03 551.03 274.06 551 274.09 550.95 274.1 550.91 274.1 550.88 274.11 550.87 274.17 550.88 274.2 550.89 274.23 550.9 274.25 550.9 274.28 550.89 274.3 550.83 274.34 550.82 274.38 550.82 274.44 550.85 274.54 550.86 274.6 550.85 274.76 550.86 274.82 550.87 274.86 550.93 274.94 550.94 274.98 550.94 275.07 550.95 275.12 550.97 275.15 551.06 275.24 551.14 275.39 551.18 275.43 551.29 275.49 551.47 275.65 551.52 275.73 551.53 275.84 551.5 276.01 551.44 276.16 551.36 276.29 551.33 276.35 551.33 276.35 551.33 276.35 551.33 276.35 551.33 276.35 551.31 276.39 551.3 276.44 551.28 276.47 551.26 276.49 551.25 276.5 551.22 276.51 551.11 276.52 551.04 276.55 551 276.59 550.91 276.87 550.84 277 550.68 277.22 550.56 277.34 550.45 277.48 550.35 277.65 550.29 277.82 550.28 277.93 550.33 278.15 550.34 278.27 550.32 278.37 550.3 278.46 550.26 278.55 550.25 278.59 550.24 278.54 550.21 278.5 550.17 278.48 550.13 278.46 550.05 278.47 550.02 278.46 549.99 278.45 549.95 278.42 549.92 278.41 549.9 278.41 549.85 278.42 549.83 278.43 549.82 278.44 549.8 278.47 549.79 278.49 549.76 278.5 549.72 278.47 549.68 278.36 549.63 278.33 549.59 278.34 549.55 278.37 549.47 278.45 549.43 278.48 549.38 278.5 549.34 278.52 549.28 278.52 549.23 278.53 549.14 278.59 549.09 278.6 549.04 278.58 549.02 278.54 549 278.48 548.98 278.44 548.93 278.4 548.83 278.36 548.79 278.33 548.77 278.29 548.73 278.17 548.71 278.14 548.66 278.13 548.57 278.07 548.53 278.05 548.42 278.04 548.22 278.09 547.93 278.1 547.91 278.11 547.86 278.15 547.84 278.16 547.78 278.16 547.75 278.15 547.6 278.09 547.55 278.08 547.49 278.09 547.45 278.1 547.4 278.06 547.4 278.01 547.44 277.96 547.48 277.92 547.51 277.86 547.5 277.82 547.47 277.78 547.42 277.74 547.39 277.66 547.4 277.56 547.45 277.38 547.46 277.27 547.44 277.05 547.45 276.94 547.53 276.8 547.65 276.64 547.73 276.48 547.71 276.42 547.68 276.35 547.68 276.35 547.68 276.35 547.61 276.29 547.53 276.25 547.44 276.23 547.27 276.23 547.21 276.21 546.98 276.1 546.88 275.97 546.81 275.91 546.74 275.88 546.6 275.84 546.46 275.73 546.4 275.7 546.25 275.67 546.03 275.56 545.95 275.56 545.89 275.58 545.78 275.67 545.72 275.7 545.57 275.71 545.42 275.66 545.06 275.42 544.84 275.27 544.54 275.07 544.33 274.88 544.03 274.61 543.89 274.51 543.56 274.4 543.27 274.24 542.81 273.84 542.68 273.68 542.61 273.59 542.56 273.56 542.49 273.57 542.32 273.65 542.27 273.67 542.2 273.65 542.13 273.62 541.78 273.36 541.47 273.14 541.22 272.97 541.09 272.83 540.85 272.5 540.71 272.36 540.4 272.14 539.67 271.62 539.31 271.37 539.01 271.15 538.75 270.97 538.62 270.84 538.6 270.82 538.44 270.62 538.41 270.55 538.37 270.38 538.37 270.32 538.38 270.26 538.4 270.2 538.41 270.15 538.4 270.09 538.33 269.94 538.32 269.88 538.32 269.81 538.31 269.75 538.29 269.7 538.24 269.58 538.22 269.53 538.22 269.41 538.2 269.38 538.01 269.27 537.91 269.24 537.86 269.21 537.85 269.19 537.84 269.18 537.83 269.12 537.81 269.09 537.73 268.98 537.7 268.92 537.66 268.74 537.63 268.7 537.56 268.62 537.53 268.58 537.51 268.52 537.49 268.38 537.42 268.14 537.4 268.08 537.41 268.06 537.4 268.02 537.4 267.81 537.39 267.75 537.37 267.7 537.21 267.43 537.16 267.38 536.67 267.02 536.47 266.93 536.26 266.88 536.18 266.87 536.13 266.89 536.1 266.95 536.08 267.06 536.02 267.09 535.98 267.18 535.92 267.25 535.84 267.29 535.76 267.29 535.67 267.25 535.44 267.09 535.4 267.09 535.27 267.11 535.25 267.09 535.25 267.06 535.24 267.05 535.23 267.08 535.2 267.13 535.18 267.14 535.17 267.15 535.06 267.04 534.91 267.01 534.46 267.03 534.19 267.12 534.06 267.13 533.98 267.1 533.92 267.06 533.8 266.94 533.66 266.84 533.45 266.73 533.21 266.6 533.15 266.54 533.13 266.47 533.16 266.24 533.18 266.19 533.21 266.15 533.24 266.11 533.33 266.07 533.37 266.03 533.35 265.97 533.2 265.77 533.13 265.63 533.11 265.53 533.17 265.45 533.23 265.41 533.3 265.4 533.38 265.43 533.46 265.48 533.5 265.5 533.53 265.49 533.56 265.45 533.56 265.41 533.53 265.37 533.51 265.34 533.48 265.31 533.37 265.25 533.34 265.21 533.31 265.17 533.26 265.1 533.2 265.04 532.96 264.95 532.85 264.96 532.82 264.94 532.79 264.9 532.8 264.86 532.82 264.83 532.86 264.82 532.86 264.82 532.86 264.82 532.86 264.82 532.99 264.77 532.99 264.65 532.94 264.51 532.96 264.37 533 264.34 533.05 264.32 533.08 264.3 533.09 264.25 533.06 264.21 533.01 264.18 532.91 264.14 532.84 264.07 532.77 263.97 532.7 263.89 532.6 263.88 532.5 263.9 532.31 263.88 531.84 263.95 531.73 263.95 531.67 263.93 531.58 263.83 531.53 263.81 531.42 263.8 531.36 263.76 531.33 263.71 531.3 263.48 531.28 263.43 531.25 263.38 531.11 263.23 531.05 263.2 531 263.2 530.93 263.23 530.87 263.25 530.8 263.25 530.71 263.24 530.55 263.17 530.4 263.03 529.92 262.47 529.87 262.44 529.83 262.5 529.8 262.76 529.75 262.85 529.66 262.87 529.55 262.87 529.43 262.84 529.19 262.74 529.14 262.74 529.1 262.75 528.98 262.83 528.9 262.86 528.86 262.89 528.84 262.94 528.85 262.99 528.89 263.03 529.17 263.16 529.25 263.22 529.31 263.33 529.37 263.47 529.54 263.73 529.63 263.84 529.65 263.86 529.66 263.89 529.65 263.91 529.63 263.93 529.48 263.95 529.45 263.94 529.42 263.9 529.42 263.86 529.43 263.81 529.44 263.75 529.42 263.64 529.36 263.57 529.29 263.51 529.07 263.41 529.02 263.4 528.98 263.41 528.9 263.44 528.86 263.45 528.83 263.42 528.78 263.35 528.74 263.32 528.7 263.3 528.65 263.3 528.6 263.31 528.56 263.33 528.54 263.36 528.52 263.39 528.46 263.46 528.4 263.49 528.36 263.52 528.38 263.6 528.42 263.7 528.43 263.75 528.41 263.81 528.32 264.02 528.29 264.06 528.2 264.08 528.18 264.12 528.2 264.17 528.23 264.2 528.24 264.23 528.19 264.27 528.14 264.28 527.99 264.27 527.95 264.28 527.83 264.34 527.72 264.36 527.41 264.3 527.2 264.31 526.99 264.42 526.81 264.59 526.69 264.82 526.69 264.82 526.61 264.94 526.51 265.01 526.3 265.11 526.24 265.2 526.24 265.31 526.29 265.55 526.28 265.66 526.26 265.75 526.26 265.85 526.3 265.95 526.35 266.03 526.38 266.11 526.39 266.19 526.38 266.3 526.39 266.38 526.42 266.46 526.47 266.53 526.51 266.59 526.55 266.61 526.58 266.63 526.69 266.66 526.71 266.67 526.7 266.69 526.68 266.72 526.63 266.75 526.53 266.8 526.48 266.85 526.42 266.98 526.37 267 526.1 266.95 525.89 266.9 525.4 266.88 525.32 266.87 524.86 266.85 524.45 266.82 524.09 266.8 524.09 266.13 524.08 265.45 524.08 264.77 524.08 264.09 524.08 263.4 524.08 262.71 524.08 262.02 524.08 261.33 524.08 260.63 524.08 259.94 524.08 259.23 524.08 258.53 524.08 257.82 524.08 257.11 524.08 256.4 524.08 255.69 524.08 255.69 524.08 255.69 524.08 255.69 524.08 255.69 524.08 255.69 524.08 255.69 524.08 255.69 524.08 255.69 524.08 255.69 524.08 255.69 524.08 255.68 524.08 255.68 524.08 255.68 524.08 255.68 524.08 255.68 524.08 255.68 524.08 255.68 524.08 255.68 524.08 255.68 524.08 255.68 524.08 255.68 524.08 255.68 524.08 255.68 524.08 255.68 524.08 255.68 524.08 255.68 524.08 255.68 524.08 255.68 524.08 255.68 524.08 255.68 524.08 255.68 524.08 255.68 524.08 255.68 524.08 255.68 524.08 255.68 524.08 255.68 524.08 255.68 524.08 255.68 524.08 255.68 524.08 255.68 524.08 255.68 524.08 255.68 524.08 255.68 524.08 255.68 524.08 255.68 524.08 255.68 524.08 255.68 524.08 255.68 524.08 255.68 524.08 255.68 524.08 255.68 524.08 255.68 524.08 255.68 524.08 255.68 524.08 255.68 524.08 255.68 524.08 255.68 524.09 255.68 524.09 255.68 524.09 255.68 524.29 255.61 524.5 255.54 524.71 255.48 524.92 255.41 525.12 255.35 525.33 255.28 525.54 255.21 525.7 255.16 525.75 255.15 525.96 255.08 526.16 255.01 526.37 254.95 526.58 254.88 526.79 254.81 526.99 254.74 527.2 254.68 527.41 254.61 527.69 254.53 527.96 254.44 528.24 254.36 528.52 254.27 528.65 254.23 528.77 254.2 528.9 254.16 529.03 254.12 529.16 254.08 529.3 254.04 529.43 254 529.57 253.96 529.74 253.91 529.8 253.92 529.86 253.94 530.03 254.06 530.08 254.09 530.21 254.19 530.43 254.33 530.71 254.52 530.91 254.65 531.05 254.75 531.43 255.01 531.85 255.28 532.28 255.58 532.73 255.87 533.17 256.17 533.6 256.46 534.01 256.73 534.38 256.97 534.7 257.19 534.96 257.36 535.16 257.49 535.3 257.58 535.35 257.65 535.39 257.73 535.41 257.8 535.42 257.96 535.44 258.04 535.58 258.25 535.83 258.52 535.95 258.65 536.07 258.78 536.23 258.96 536.35 259.11 536.48 259.25 536.61 259.4 536.74 259.55 536.86 259.69 536.99 259.83 537.11 259.98 537.24 260.12 537.4 260.31 537.45 260.33 537.49 260.35 537.5 260.35 537.68 260.31 537.76 260.3 537.84 260.29 537.91 260.27 537.99 260.26 538.12 260.23 538.24 260.21 538.37 260.19 538.49 260.17 538.69 260.13 538.9 260.1 539.1 260.07 539.3 260.03 539.5 260 539.71 259.97 539.91 259.94 540.11 259.9 540.45 259.93 540.79 259.96 541.12 259.99 541.46 260.02 541.77 260.05 542.08 260.08 542.38 260.11 542.69 260.14 542.81 260.15 542.85 260.14 542.89 260.12 543.11 260 543.33 259.88 543.55 259.76 543.76 259.64 543.8 259.63 543.84 259.61 543.88 259.62 543.91 259.62 543.95 259.66 543.99 259.69 544.23 260 544.46 260.31 544.57 260.43 544.68 260.54 544.91 260.69 545.14 260.83 545.19 260.87 545.23 260.91 545.42 261.29 545.54 261.54 545.7 261.88 545.85 262.18 545.87 262.18 545.88 262.18 546.2 262.01 546.52 261.84 546.48 262.58 546.43 263.33 546.42 263.41 546.42 263.49 546.41 263.51 546.4 263.54 546.37 263.55 546.34 263.56 546.34 263.58 546.33 263.6 546.33 263.69 546.32 264.18 546.31 264.76 546.32 264.78 546.32 264.79 546.33 264.8 546.34 264.81 546.61 264.81 546.85 264.81 547.09 264.81 547.36 264.81 547.37 264.81 547.37 264.81 547.38 264.81 547.39 264.81 547.4 264.81 547.41 264.81 547.41 264.82 547.42 264.82 547.46 265.19 547.49 265.57 547.57 265.93 547.64 266.3 547.73 266.73 547.83 267.16 547.88 267.22 547.92 267.28 547.98 267.3 548.02 267.31 548.11 267.33 548.36 267.32 548.58 267.3 548.9 267.28 549.14 267.27 549.42 267.25 549.6 267.24 549.89 267.23 550.18 267.21 550.2 267.22 550.23 267.22 550.27 267.25 550.32 267.27 550.34 267.28 550.37 267.29 550.39 267.29 550.41 267.28 550.47 267.24 550.54 267.2 550.57 267.18 550.59 267.16 550.61 267.2 550.62 267.24 550.62 267.25 550.63 267.25 550.63 267.26 550.64 267.28 550.69 267.34 550.74 267.41 550.75 267.44 550.76 267.46 550.77 267.52 550.78 267.57 550.79 267.6 550.81 267.62 550.82 267.61 550.84 267.6 550.85 267.59 550.86 267.59 550.88 267.59 550.89 267.59 550.9 267.61 550.92 267.62 550.93 267.59 550.95 267.56 550.97 267.55 550.99 267.55 551 267.58 551 267.61 551 267.62 551 267.62 551 267.63 551 267.65 551.01 267.65 551.02 267.65 551.02 267.66 551.02 267.66 551 267.68 550.97 267.7 550.96 267.7 550.95 267.71 550.96 267.71 550.97 267.72 550.98 267.72 550.98 267.73 550.99 267.75 551 267.77 551 267.81 551 267.85 550.99 267.9 550.98 267.95 550.96 267.99 550.95 268.04 550.93 268.08 550.91 268.12 550.9 268.14 550.89 268.16 550.87 268.18 550.85 268.19 550.84 268.21 550.82 268.22 550.78 268.24 550.74 268.26 550.73 268.27 550.72 268.28 550.72 268.29 550.71 268.3 550.72 268.3 550.73 268.31 550.77 268.32 550.82 268.33 550.85 268.35 550.88 268.37 550.98 268.47 551.09 268.57 551.16 268.63 551.23 268.68 551.32 268.73 551.5 268.82 551.76 268.96 551.76 268.95 551.76 268.94 551.78 268.93 551.79 268.92 551.81 268.92 551.82 268.92 551.83 268.91 551.84 268.9 551.85 268.88 551.85 268.87 551.86 268.87 551.87 268.86 551.89 268.86 551.9 268.86 551.94 268.88 551.99 268.91 552.02 268.91 552.05 268.92 552.07 268.9 552.09 268.89 552.1 268.87 552.11 268.85 552.09 268.84 552.07 268.83 552.09 268.78 552.12 268.74 552.12 268.73 552.12 268.72 552.11 268.7 552.11 268.69 552.1 268.67 552.09 268.65 552.09 268.63 552.08 268.61 552.08 268.59 552.08 268.58 552.06 268.57 552.03 268.56 552.02 268.56 552.01 268.55 552 268.54 551.99 268.53 551.98 268.5 551.97 268.47 551.96 268.35 551.95 268.23 551.96 268.21 551.96 268.18 551.97 268.18 551.97 268.17 551.98 268.16 551.99 268.16 551.99 268.14 552 268.13 552 268.11 552 268.1 552 268.06 552 268.03 552 268.02 552 268 552 268 552.01 268.01 552.02 268.01 552.03 268.01 552.03 268.02 552.04 268.02 552.05 267.99 552.06 267.95 552.09 267.93 552.13 267.91 552.17 267.89 552.19 267.88 552.26 267.85 552.28 267.82 552.31 267.79 552.35 267.68 552.39 267.56 552.42 267.53 552.45 267.49 552.52 267.46 552.6 267.43 552.63 267.38 552.66 267.33 552.67 267.31 552.68 267.29 552.71 267.28 552.73 267.28 552.78 267.27 552.83 267.26 552.87 267.24 552.91 267.23 552.94 267.2 552.98 267.17 553 267.15 553.02 267.14 553.03 267.12 553.04 267.1 553.05 266.96 553.07 266.82 553.07 266.8 553.07 266.77 553.07 266.76 553.06 266.74 553.06 266.73 553.06 266.73 553.05 266.73 553.05 266.72 553.04 266.71 553.03 266.7 553.02 266.68 553.02 266.67 553.03 266.66 553.03 266.65 553.04 266.64 553.05 266.64 553.1 266.61 553.15 266.58 553.17 266.58 553.19 266.57 553.21 266.58 553.23 266.59 553.25 266.56 553.26 266.53 553.28 266.5 553.31 266.47 553.37 266.44 553.43 266.4 553.45 266.39 553.47 266.39 553.5 266.4 553.53 266.41 553.55 266.41 553.57 266.41 553.61 266.38 553.65 266.35 553.67 266.35 553.68 266.34 553.75 266.36 553.82 266.37 553.83 266.36 553.84 266.35 553.84 266.34 553.84 266.32 553.82 266.29 553.8 266.26 553.8 266.24 553.79 266.22 553.81 266.19 553.82 266.15 553.85 266.13 553.88 266.1 553.94 266.08 554.01 266.06 554.12 265.98 554.23 265.89 554.26 265.85 554.3 265.81 554.32 265.8 554.33 265.78 554.48 265.74 554.63 265.7 554.76 265.69 554.88 265.69 554.93 265.67 554.97 265.65 555.01 265.61 555.04 265.57 555.06 265.55 555.07 265.53 555.09 265.51 555.1 265.5 555.17 265.48 555.23 265.45 555.32 265.38 555.41 265.32 555.44 265.28 555.47 265.25 555.54 265.12 555.62 264.99 555.64 264.97 555.65 264.96 555.67 264.95 555.69 264.94 555.71 264.93 555.73 264.92 555.75 264.91 555.77 264.9 555.78 264.89 555.79 264.87 555.8 264.84 555.81 264.82 555.84 264.76 555.87 264.7 555.91 264.66 555.96 264.62 556.07 264.57 556.18 264.52 556.19 264.52 556.21 264.53 556.23 264.54 556.25 264.56 556.27 264.58 556.28 264.6 556.29 264.62 556.3 264.64 556.31 264.66 556.32 264.69 556.33 264.71 556.35 264.73 556.37 264.74 556.4 264.74 556.42 264.75 556.45 264.75 556.48 264.74 556.52 264.72 556.54 264.67 556.57 264.63 556.59 264.58 556.61 264.52 556.63 264.47 556.66 264.43 556.69 264.39 556.72 264.35 556.73 264.33 556.74 264.31 556.75 264.28 556.76 264.26 556.78 264.23 556.79 264.21 556.82 264.21 556.85 264.21 556.9 264.23 556.95 264.24 556.99 264.23 557.03 264.23 557.08 264.21 557.12 264.18 557.19 264.12 557.27 264.06 Z M 556.59 267.89 556.56 267.82 556.53 267.77 556.48 267.72 556.42 267.69 556.39 267.7 556.41 267.76 556.41 267.77 556.45 267.8 556.52 267.89 556.55 267.93 556.6 267.94 556.59 267.89 Z" fill-rule="evenodd" id="Uzbekistan" transform="translate(-524.0800170898438,-253.91000366210938) "/></svg>