<svg xmlns="http://www.w3.org/2000/svg" viewBox="0 0 7.489990234375 16.540008544921875"><path d="M 776.47 412.49 776.46 412.5 776.44 412.48 776.41 412.46 776.35 412.45 776.28 412.42 776.25 412.39 776.25 412.34 776.26 412.28 776.29 412.24 776.32 412.23 776.38 412.22 776.44 412.22 776.48 412.23 776.52 412.27 776.56 412.29 776.59 412.31 776.61 412.35 776.59 412.41 776.57 412.44 776.55 412.46 776.52 412.48 776.47 412.49 Z M 775.6 411.08 775.58 411.1 775.54 411.1 775.45 411.07 775.41 411.05 775.32 410.94 775.3 410.92 775.25 410.92 775.23 410.92 775.23 410.9 775.22 410.88 775.2 410.86 775.19 410.84 775.18 410.84 775.18 410.82 775.1 410.71 775.09 410.69 775.09 410.65 775.09 410.59 775.1 410.53 775.13 410.51 775.15 410.5 775.15 410.47 775.14 410.41 775.15 410.38 775.16 410.36 775.17 410.35 775.2 410.33 775.24 410.32 775.33 410.32 775.36 410.3 775.4 410.33 775.4 410.36 775.39 410.4 775.38 410.45 775.41 410.63 775.43 410.66 775.48 410.68 775.53 410.7 775.58 410.72 775.65 410.75 775.68 410.78 775.73 410.8 775.72 410.83 775.64 410.92 775.62 411.03 775.6 411.08 Z M 775.03 408.95 775.12 408.96 775.12 408.96 775.13 408.95 775.15 408.95 775.16 408.94 775.17 408.95 775.17 408.97 775.18 408.98 775.2 409 775.21 409.01 775.21 409.03 775.19 409.03 775.04 409.07 775.1 409.14 775.11 409.16 775.12 409.16 775.19 409.2 775.21 409.22 775.28 409.25 775.33 409.29 775.35 409.34 775.36 409.41 775.34 409.47 775.3 409.5 775.25 409.53 775.23 409.56 775.18 409.53 774.99 409.42 774.96 409.42 774.93 409.43 774.91 409.43 774.84 409.41 774.82 409.4 774.8 409.38 774.75 409.34 774.71 409.32 774.59 409.28 774.58 409.24 774.62 409.14 774.62 409.1 774.61 409.08 774.6 409.05 774.58 409.03 774.58 409.01 774.59 408.85 774.61 408.8 774.63 408.75 774.7 408.7 774.79 408.68 774.88 408.68 774.95 408.72 774.98 408.76 774.99 408.8 774.99 408.89 775 408.93 775.03 408.95 Z M 773.14 406.2 773.15 406.22 773.19 406.19 773.34 406.17 773.37 406.17 773.41 406.19 773.41 406.21 773.42 406.25 773.43 406.26 773.45 406.26 773.46 406.27 773.48 406.31 773.5 406.35 773.51 406.39 773.53 406.43 773.57 406.45 773.59 406.47 773.6 406.52 773.62 406.53 773.64 406.53 773.66 406.53 773.68 406.52 773.69 406.51 773.7 406.55 773.63 406.69 773.61 406.75 773.6 406.77 773.57 406.79 773.51 406.8 773.51 406.8 773.5 406.81 773.49 406.82 773.47 406.83 773.46 406.82 773.45 406.81 773.44 406.8 773.44 406.8 773.28 406.84 773.26 406.84 773.22 406.81 773.21 406.8 773.21 406.77 773.2 406.77 773.18 406.8 773.17 406.78 773.16 406.75 773.16 406.74 773.15 406.74 773.15 406.74 773.15 406.74 773.15 406.75 773.13 406.74 773.11 406.75 773.1 406.75 773.09 406.77 773.1 406.69 773.09 406.69 773.06 406.72 773.03 406.73 772.95 406.75 772.95 406.74 772.99 406.71 773.04 406.69 773.08 406.67 773.09 406.62 773.07 406.63 773.05 406.63 773.04 406.62 773.04 406.57 773.03 406.57 773.01 406.57 772.99 406.56 772.96 406.54 772.93 406.54 772.9 406.54 772.87 406.56 772.86 406.58 772.83 406.63 772.81 406.64 772.79 406.64 772.77 406.64 772.77 406.61 772.74 406.59 772.74 406.56 772.8 406.45 772.82 406.42 772.88 406.38 772.9 406.35 772.99 406.22 773.05 406.17 773.12 406.16 773.13 406.18 773.14 406.2 Z M 772.87 406.25 772.86 406.28 772.86 406.2 772.93 406.14 773.01 406.11 773.05 406.15 773.03 406.16 772.98 406.19 772.95 406.19 772.9 406.23 772.87 406.25 Z M 773.22 406.04 773.19 406.05 773.14 406.02 773.12 405.97 773.13 405.9 773.15 405.89 773.18 405.91 773.21 405.96 773.22 406.04 Z M 773.16 405.15 773.14 405.15 773.12 405.14 773.13 405.11 773.15 405.09 773.17 405.07 773.26 405.03 773.29 405.03 773.34 405.04 773.32 405.06 773.27 405.09 773.26 405.1 773.25 405.12 773.23 405.13 773.16 405.15 Z M 773.66 404.79 773.64 404.81 773.6 404.8 773.58 404.79 773.57 404.77 773.59 404.74 773.58 404.69 773.63 404.66 773.68 404.65 773.72 404.69 773.66 404.79 Z M 772.81 403.96 772.82 403.97 772.83 403.98 772.83 403.99 772.85 404.01 772.89 404.09 772.91 404.11 772.91 404.13 772.92 404.16 772.93 404.2 772.95 404.22 772.97 404.22 773 404.2 773.02 404.19 773.04 404.19 773.06 404.2 773.08 404.21 773.09 404.22 773.11 404.26 773.12 404.29 773.14 404.32 773.18 404.33 773.19 404.34 773.2 404.37 773.22 404.4 773.26 404.41 773.38 404.41 773.43 404.42 773.47 404.48 773.44 404.49 773.44 404.52 773.46 404.56 773.45 404.59 773.43 404.57 773.41 404.59 773.29 404.52 773.25 404.48 773.22 404.46 773.17 404.45 773.14 404.44 773.05 404.46 772.98 404.5 772.92 404.53 772.83 404.51 772.8 404.49 772.73 404.43 772.72 404.4 772.72 404.34 772.72 404.32 772.68 404.29 772.67 404.27 772.67 404.25 772.68 404.22 772.68 404.13 772.69 404.1 772.7 404.08 772.72 404.07 772.73 404.05 772.74 404.02 772.73 404 772.73 403.99 772.72 403.95 772.74 403.97 772.76 403.97 772.77 403.96 772.79 403.95 772.81 403.96 Z M 773.18 403.88 773.13 403.88 773.1 403.87 773.08 403.84 773.05 403.78 773.12 403.77 773.15 403.77 773.17 403.78 773.2 403.82 773.2 403.85 773.18 403.88 Z M 772.94 403.77 772.9 403.8 772.87 403.8 772.85 403.77 772.87 403.73 772.89 403.65 772.92 403.63 772.98 403.62 772.96 403.66 772.96 403.74 772.94 403.77 Z M 773.11 403.37 773.04 403.43 772.8 403.44 772.77 403.44 772.74 403.46 772.71 403.47 772.68 403.46 772.66 403.44 772.63 403.42 772.6 403.41 772.57 403.42 772.51 403.38 772.48 403.37 772.45 403.39 772.43 403.36 772.35 403.31 772.32 403.29 772.29 403.27 772.25 403.25 772.22 403.23 772.24 403.2 772.21 403.17 772.24 403.14 772.29 403.12 772.35 403.1 772.39 403.08 772.41 403.07 772.51 403.07 772.55 403.05 772.64 402.97 772.67 402.95 772.68 402.93 772.71 402.84 772.73 402.83 772.78 402.82 772.82 402.87 772.86 402.95 772.9 403.09 772.91 403.16 772.95 403.2 773.11 403.29 773.13 403.31 773.13 403.34 773.11 403.37 Z M 771.12 402.89 771.17 402.91 771.2 402.94 771.23 402.95 771.23 402.94 771.23 402.92 771.22 402.88 771.23 402.87 771.25 402.9 771.28 402.95 771.28 402.97 771.26 402.99 771.26 403.01 771.31 403.03 771.32 403.04 771.34 403.04 771.35 403.03 771.35 403.02 771.36 403.02 771.37 403.01 771.37 403.04 771.38 403.06 771.4 403.09 771.41 403.11 771.44 403.12 771.49 403.14 771.52 403.15 771.57 403.2 771.6 403.24 771.63 403.26 771.69 403.23 771.71 403.24 771.72 403.25 771.72 403.26 771.7 403.3 771.74 403.34 771.84 403.42 771.9 403.41 771.93 403.46 771.94 403.57 771.9 403.65 771.9 403.69 771.93 403.72 771.94 403.67 771.94 403.64 771.96 403.62 771.98 403.6 772.01 403.6 772.02 403.63 772.04 403.66 772.05 403.69 772 403.74 771.98 403.75 771.96 403.76 771.94 403.77 771.93 403.79 771.91 403.82 771.89 403.84 771.9 403.86 771.89 403.88 771.87 403.89 771.83 403.89 771.82 403.87 771.81 403.85 771.79 403.83 771.77 403.82 771.71 403.81 771.7 403.81 771.69 403.78 771.66 403.78 771.62 403.79 771.6 403.79 771.56 403.77 771.51 403.79 771.47 403.82 771.44 403.84 771.46 403.86 771.46 403.87 771.47 403.87 771.49 403.88 771.47 403.9 771.44 403.92 771.39 403.92 771.34 403.97 771.33 403.97 771.31 403.96 771.3 403.96 771.29 403.99 771.28 403.99 771.26 403.96 771.2 403.94 771.17 403.89 771.14 403.86 771.12 403.83 771.11 403.78 771.13 403.78 771.14 403.8 771.15 403.81 771.17 403.82 771.19 403.83 771.18 403.79 771.17 403.74 771.15 403.7 771.09 403.63 771.08 403.6 771.08 403.57 771.08 403.53 771.08 403.51 771.07 403.5 771.06 403.49 771.04 403.49 771.04 403.48 771.03 403.43 771.03 403.29 771.04 403.26 771.02 403.15 771.02 403.14 771.02 403.1 771.01 403.08 771 403.08 770.99 403.07 770.99 403.07 770.98 403.03 770.9 402.9 770.86 402.92 770.85 402.93 770.84 402.92 770.8 402.96 770.7 403.03 770.65 402.98 770.62 402.97 770.59 402.98 770.58 402.96 770.57 402.93 770.57 402.91 770.56 402.89 770.55 402.86 770.53 402.85 770.51 402.83 770.5 402.8 770.51 402.74 770.58 402.62 770.57 402.47 770.57 402.44 770.58 402.42 770.59 402.4 770.59 402.39 770.62 402.38 770.68 402.33 770.93 402.43 770.93 402.51 771.06 402.68 771.02 402.76 771.05 402.77 771.07 402.79 771.08 402.81 771.06 402.84 771.08 402.85 771.1 402.88 771.12 402.89 Z M 770.7 402.05 770.64 402.07 770.6 402.07 770.56 402.05 770.5 402.01 770.47 401.99 770.41 401.98 770.38 401.96 770.34 401.9 770.35 401.84 770.39 401.79 770.46 401.77 770.62 401.79 770.7 401.82 770.71 401.86 770.68 401.93 770.7 402 770.7 402.05 Z M 770.65 401.71 770.62 401.74 770.56 401.73 770.56 401.73 770.55 401.74 770.53 401.74 770.5 401.74 770.48 401.73 770.43 401.69 770.53 401.58 770.57 401.57 770.6 401.57 770.61 401.58 770.58 401.58 770.58 401.6 770.6 401.61 770.61 401.62 770.61 401.63 770.59 401.65 770.65 401.67 770.65 401.71 Z M 772.9 402.62 772.85 402.62 772.83 402.61 772.82 402.57 772.81 402.48 772.77 402.34 772.74 402.17 772.69 402.04 772.67 401.96 772.67 401.87 772.68 401.77 772.73 401.59 772.74 401.41 772.79 401.41 772.81 401.51 772.81 401.54 772.83 401.56 772.84 401.56 772.85 401.57 772.86 401.61 772.84 401.75 772.84 401.79 772.87 401.86 772.87 401.93 772.88 401.96 772.93 402.11 772.95 402.22 772.96 402.26 772.99 402.31 772.99 402.35 773 402.44 772.99 402.52 772.97 402.58 772.9 402.62 Z M 772.09 401.44 772.04 401.46 771.81 401.46 771.76 401.44 771.69 401.41 771.67 401.38 771.7 401.34 771.97 401.08 772.01 401.07 772.05 401.06 772.16 401.02 772.35 400.99 772.41 401 772.41 401.02 772.36 401.07 772.33 401.1 772.3 401.15 772.28 401.2 772.27 401.25 772.26 401.29 772.24 401.32 772.09 401.44 Z M 770.51 400.27 770.49 400.28 770.47 400.28 770.46 400.27 770.41 400.22 770.4 400.19 770.44 400.2 770.49 400.25 770.53 400.25 770.51 400.27 Z M 772.81 401.19 772.8 401.25 772.77 401.24 772.74 401.24 772.69 401.25 772.7 401.2 772.7 401.14 772.67 401.04 772.69 400.96 772.69 400.71 772.67 400.66 772.61 400.31 772.62 400.29 772.62 400.28 772.62 400.27 772.61 400.25 772.6 400.22 772.61 400.2 772.63 400.17 772.65 400.16 772.67 400.18 772.7 400.22 772.71 400.26 772.72 400.29 772.72 400.35 772.75 400.47 772.75 400.5 772.75 400.54 772.75 400.57 772.78 400.64 772.78 400.67 772.78 400.75 772.79 400.77 772.82 400.8 772.83 400.82 772.82 400.98 772.83 401.01 772.83 401.06 772.81 401.12 772.81 401.19 Z M 769.77 400.72 769.83 400.72 769.93 400.71 769.98 400.71 770.01 400.71 770.02 400.69 770.05 400.65 770.07 400.63 770.09 400.61 770.1 400.59 770.11 400.56 770.12 400.31 770.12 400.28 770.1 400.24 770.13 400.21 770.17 400.19 770.2 400.18 770.37 400.19 770.37 400.21 770.33 400.21 770.31 400.23 770.3 400.26 770.31 400.36 770.3 400.38 770.27 400.41 770.31 400.41 770.33 400.44 770.34 400.52 770.37 400.63 770.38 400.68 770.43 400.64 770.46 400.63 770.5 400.65 770.49 400.69 770.53 400.87 770.52 400.91 770.5 400.92 770.5 400.92 770.52 400.96 770.53 400.96 770.56 400.98 770.58 400.99 770.59 401 770.61 401.05 770.6 401.09 770.59 401.13 770.58 401.14 770.56 401.11 770.55 401.11 770.56 401.19 770.6 401.31 770.66 401.41 770.71 401.46 770.73 401.47 770.73 401.49 770.73 401.52 770.72 401.54 770.7 401.55 770.69 401.55 770.67 401.54 770.65 401.54 770.56 401.54 770.53 401.55 770.5 401.58 770.41 401.68 770.39 401.69 770.37 401.7 770.35 401.71 770.33 401.71 770.3 401.7 770.26 401.68 770.24 401.68 770.16 401.67 770.06 401.67 769.98 401.69 769.93 401.74 769.95 401.76 769.93 401.77 769.88 401.76 769.85 401.77 769.84 401.79 769.84 401.81 769.82 401.83 769.77 401.86 769.72 401.85 769.68 401.83 769.64 401.79 769.67 401.74 769.67 401.69 769.64 401.64 769.57 401.6 769.53 401.57 769.49 401.49 769.46 401.42 769.45 401.4 769.39 401.35 769.38 401.32 769.37 401.3 769.34 401.25 769.33 401.23 769.34 401.21 769.36 401.16 769.37 401.1 769.4 401 769.41 400.96 769.41 400.85 769.39 400.8 769.34 400.72 769.33 400.68 769.32 400.58 769.3 400.49 769.3 400.46 769.32 400.43 769.28 400.41 769.26 400.38 769.25 400.34 769.24 400.29 769.23 400.25 769.18 400.18 769.17 400.14 769.13 399.97 769.13 399.93 769.14 399.9 769.15 399.84 769.15 399.79 769.14 399.75 769.2 399.63 769.19 399.57 769.2 399.55 769.27 399.53 769.28 399.51 769.29 399.5 769.32 399.52 769.33 399.54 769.35 399.6 769.36 399.61 769.37 399.62 769.39 399.65 769.39 399.68 769.39 399.7 769.4 399.7 769.45 399.77 769.47 399.83 769.49 399.85 769.53 399.87 769.62 399.94 769.6 399.96 769.61 400.02 769.65 400.13 769.67 400.23 769.68 400.35 769.68 400.38 769.69 400.39 769.71 400.4 769.71 400.42 769.74 400.7 769.77 400.72 Z M 771.35 398.4 771.48 398.47 771.5 398.49 771.52 398.51 771.51 398.63 771.5 398.65 771.49 398.66 771.43 398.76 771.4 398.79 771.37 398.8 771.35 398.81 771.2 398.79 771.17 398.8 771.14 398.8 771.11 398.79 771.09 398.78 771.07 398.77 771.06 398.76 771.07 398.73 771.09 398.69 771.08 398.56 771.09 398.52 771.1 398.5 771.12 398.49 771.18 398.45 771.19 398.44 771.21 398.45 771.25 398.44 771.27 398.44 771.3 398.41 771.32 398.4 771.35 398.4 Z M 771.46 397.73 771.47 397.74 771.48 397.73 771.49 397.74 771.49 397.75 771.48 397.76 771.47 397.76 771.46 397.76 771.44 397.76 771.41 397.79 771.37 397.81 771.32 397.82 771.26 397.82 771.27 397.83 771.28 397.83 771.28 397.84 771.26 397.85 771.29 397.91 771.26 397.95 771.21 397.95 771.19 397.89 771.19 397.85 771.18 397.82 771.15 397.79 771.11 397.76 771.06 397.68 771.05 397.64 771.05 397.57 771.07 397.53 771.1 397.49 771.14 397.46 771.23 397.42 771.27 397.42 771.3 397.44 771.34 397.48 771.4 397.6 771.43 397.62 771.4 397.66 771.39 397.67 771.4 397.7 771.42 397.71 771.44 397.72 771.46 397.73 Z M 771.71 397.35 771.66 397.36 771.63 397.36 771.61 397.38 771.59 397.38 771.59 397.36 771.67 397.25 771.7 397.23 771.74 397.22 771.76 397.23 771.77 397.26 771.77 397.3 771.76 397.33 771.74 397.34 771.71 397.35 Z M 770.93 397 770.95 397.01 770.98 397 771.01 396.99 771 397.04 770.97 397.07 770.93 397.07 770.88 397.06 770.86 397.03 770.84 396.99 770.84 396.96 770.87 396.92 770.93 396.91 770.96 396.93 770.96 396.96 770.91 396.97 770.93 397 Z M 769.49 396.77 769.46 396.84 769.43 396.75 769.46 396.74 769.49 396.77 Z M 769.36 396.41 769.33 396.42 769.29 396.41 769.27 396.4 769.26 396.39 769.25 396.37 769.24 396.35 769.28 396.32 769.32 396.3 769.37 396.3 769.39 396.33 769.39 396.37 769.36 396.41 Z M 769.21 396.23 769.2 396.24 769.16 396.22 769.14 396.2 769.13 396.17 769.14 396.12 769.15 396.06 769.15 396.03 769.15 396.01 769.13 396 769.12 395.99 769.12 395.96 769.2 395.98 769.21 395.99 769.22 396.02 769.23 396.07 769.24 396.09 769.24 396.1 769.23 396.11 769.23 396.13 769.23 396.14 769.24 396.16 769.23 396.17 769.23 396.18 769.23 396.19 769.23 396.21 769.22 396.22 769.22 396.23 769.21 396.23 Z" fill-rule="evenodd" id="Vanuatu" transform="translate(-769.1199951171875,-395.9599914550781) "/></svg>