<svg xmlns="http://www.w3.org/2000/svg" viewBox="0 0 30.089996337890625 33.569976806640625"><path d="M 263.92 348 263.96 348.02 264.02 348.01 264.09 348.02 264.11 348.06 264.11 348.1 264.11 348.14 264.14 348.17 264.17 348.18 264.21 348.21 264.21 348.24 264.2 348.27 264.17 348.29 264.13 348.27 264.08 348.23 264.06 348.19 264.03 348.15 263.97 348.15 263.9 348.16 263.82 348.14 263.78 348.11 263.74 348.08 263.7 348.06 263.66 348.06 263.59 348.03 263.6 348.01 263.64 348.01 263.73 348.03 263.81 348.02 263.86 347.99 263.92 348 Z M 264.8 348 264.77 348.06 264.72 348.08 264.67 348.05 264.67 348.08 264.69 348.11 264.69 348.13 264.5 348.16 264.27 348.14 264.18 348.14 264.21 348.09 264.24 348.05 264.28 348.02 264.34 348.01 264.38 348.02 264.45 348.08 264.5 348.1 264.48 348.06 264.47 348.06 264.48 348.04 264.49 348.03 264.5 348.02 264.5 348.01 264.57 347.95 264.59 347.94 264.74 347.93 264.75 347.93 264.76 347.93 264.77 347.94 264.78 347.94 264.79 347.95 264.8 348 Z M 265.5 347.75 265.52 347.76 265.59 347.76 265.64 347.77 265.66 347.79 265.65 347.83 265.63 347.87 265.6 347.88 265.56 347.88 265.51 347.86 265.46 347.86 265.42 347.87 265.37 347.87 265.32 347.87 265.29 347.88 265.25 347.88 265.21 347.88 265.2 347.86 265.23 347.83 265.26 347.79 265.29 347.74 265.31 347.69 265.35 347.69 265.39 347.68 265.42 347.65 265.45 347.63 265.48 347.6 265.5 347.59 265.51 347.6 265.5 347.62 265.48 347.66 265.48 347.71 265.5 347.75 Z M 265.39 347.33 265.37 347.36 265.38 347.38 265.41 347.39 265.42 347.43 265.42 347.45 265.45 347.48 265.48 347.53 265.45 347.56 265.4 347.59 265.34 347.6 265.29 347.64 265.26 347.7 265.23 347.74 265.21 347.79 265.17 347.84 265.12 347.87 265.04 347.87 264.96 347.86 264.9 347.88 264.85 347.89 264.78 347.86 264.66 347.87 264.58 347.88 264.54 347.9 264.49 347.93 264.47 347.95 264.45 347.96 264.41 347.96 264.39 347.94 264.4 347.9 264.4 347.87 264.41 347.81 264.41 347.73 264.44 347.68 264.5 347.6 264.57 347.55 264.65 347.51 264.71 347.49 264.79 347.46 264.84 347.45 264.89 347.45 264.99 347.43 265.04 347.42 265.07 347.38 265.09 347.35 265.16 347.35 265.28 347.35 265.32 347.32 265.38 347.3 265.39 347.33 Z M 264.63 347.45 264.58 347.46 264.71 347.37 264.75 347.33 264.82 347.22 264.85 347.14 264.87 347.12 264.9 347.1 264.92 347.08 264.93 347.06 264.93 347.04 264.93 347.02 264.96 347 265.01 346.99 265.06 347 265.1 347.03 265.14 347.06 265.1 347.07 265.08 347.07 265.11 347.13 265.08 347.19 265.02 347.25 264.93 347.32 264.63 347.45 Z M 265.1 346.91 265.1 346.92 265.1 346.91 265.08 346.95 265.06 346.96 265.03 346.97 264.98 346.97 264.95 346.98 264.91 347 264.72 347.18 264.71 347.2 264.7 347.24 264.69 347.26 264.61 347.3 264.59 347.31 264.57 347.28 264.58 347.24 264.6 347.19 264.61 347.14 264.63 347.11 264.68 347.09 264.73 347.08 264.78 347.06 264.82 347.02 264.9 346.91 264.94 346.89 264.99 346.89 265.11 346.85 265.11 346.87 265.11 346.89 265.1 346.91 Z M 265.09 346.78 265.06 346.82 265.06 346.8 265.03 346.84 264.92 346.88 264.87 346.91 264.91 346.83 264.91 346.76 264.92 346.7 264.99 346.65 265.07 346.63 265.11 346.63 265.13 346.66 265.12 346.7 265.11 346.74 265.09 346.78 Z M 265.39 346.63 265.36 346.64 265.33 346.64 265.29 346.64 265.23 346.68 265.22 346.71 265.2 346.75 265.17 346.79 265.13 346.8 265.14 346.75 265.16 346.64 265.19 346.6 265.22 346.58 265.27 346.55 265.32 346.55 265.35 346.59 265.36 346.6 265.37 346.62 265.39 346.63 Z M 261.86 345.14 261.84 345.18 261.82 345.17 261.79 345.12 261.79 345.06 261.79 345.02 261.81 345 261.82 345 261.83 345.01 261.85 345.03 261.87 345.09 261.86 345.14 Z M 261.69 344.88 261.66 344.89 261.63 344.87 261.62 344.83 261.6 344.76 261.6 344.73 261.62 344.72 261.65 344.75 261.67 344.82 261.69 344.82 261.7 344.84 261.69 344.88 Z M 261.93 344.86 261.91 344.87 261.9 344.84 261.93 344.78 261.97 344.73 262.01 344.71 262.03 344.71 262.04 344.73 262.06 344.77 262.05 344.8 262.02 344.82 261.99 344.84 261.96 344.85 261.93 344.86 Z M 261.1 344.14 261.09 344.14 261.09 344.11 261.08 344.09 261.05 344.06 261.03 344.04 260.99 344 260.92 343.95 260.86 343.91 260.82 343.87 260.81 343.83 260.81 343.79 260.82 343.77 260.82 343.74 260.84 343.73 260.84 343.73 260.91 343.8 260.97 343.87 261.09 344.01 261.11 344.02 261.13 344.06 261.12 344.1 261.1 344.14 Z M 258.33 343.18 258.28 343.19 258.23 343.16 258.23 343.12 258.17 343.12 258.14 343.11 258.12 343.09 258.12 343.07 258.14 343.04 258.16 343.02 258.19 343.02 258.23 343.04 258.29 343.06 258.35 343.09 258.37 343.14 258.33 343.18 Z M 257.71 342.98 257.75 342.98 257.76 342.98 257.78 342.98 257.79 343.01 257.75 343.04 257.69 343.05 257.64 343.03 257.65 342.99 257.68 342.98 257.71 342.98 Z M 255.37 342.69 255.41 342.69 255.43 342.69 255.45 342.69 255.46 342.7 255.44 342.73 255.47 342.77 255.46 342.81 255.43 342.83 255.37 342.85 255.38 342.83 255.39 342.82 255.34 342.83 255.3 342.84 255.21 342.84 255.17 342.82 255.13 342.8 255.09 342.79 255.06 342.8 255 342.76 255.03 342.71 255.08 342.67 255.13 342.66 255.19 342.64 255.24 342.64 255.35 342.69 255.37 342.69 Z M 258.59 342.59 258.6 342.65 258.53 342.63 258.53 342.65 258.53 342.68 258.53 342.69 258.5 342.67 258.48 342.66 258.47 342.67 258.47 342.69 258.42 342.73 258.36 342.85 258.23 342.83 258.19 342.84 258.04 342.89 258 342.91 258.01 342.84 257.97 342.84 257.92 342.84 257.88 342.75 257.83 342.72 257.78 342.69 257.74 342.66 257.68 342.72 257.64 342.73 257.47 342.71 257.46 342.7 257.45 342.7 257.44 342.69 257.38 342.7 257.36 342.69 257.27 342.67 257.23 342.66 257.28 342.55 257.29 342.52 257.29 342.47 257.31 342.45 257.34 342.45 257.39 342.45 257.42 342.44 257.44 342.44 257.46 342.41 257.49 342.4 257.53 342.42 257.59 342.39 257.65 342.39 257.69 342.39 257.71 342.43 257.71 342.45 257.72 342.49 257.73 342.51 257.81 342.54 257.89 342.59 257.93 342.6 258.02 342.61 258.06 342.6 258.09 342.56 258.1 342.53 258.09 342.47 258.11 342.44 258.14 342.42 258.15 342.4 258.16 342.38 258.16 342.36 258.16 342.35 258.19 342.33 258.2 342.32 258.26 342.32 258.28 342.31 258.31 342.28 258.36 342.21 258.4 342.19 258.4 342.23 258.43 342.25 258.46 342.27 258.47 342.29 258.48 342.33 258.51 342.42 258.52 342.46 258.59 342.59 Z M 251.91 340.9 251.89 340.91 251.87 340.92 251.81 340.91 251.81 340.9 251.85 340.91 251.89 340.9 251.9 340.9 251.91 340.9 252.04 340.85 252.07 340.83 252.09 340.83 252.09 340.84 251.98 340.88 251.97 340.89 251.91 340.9 Z M 252.35 340.83 252.39 340.83 252.4 340.83 252.36 340.87 252.28 340.88 252.19 340.87 252.14 340.83 252.21 340.85 252.26 340.84 252.3 340.8 252.34 340.74 252.36 340.76 252.37 340.78 252.37 340.81 252.35 340.83 Z M 253.46 340.74 253.47 340.75 253.48 340.8 253.45 340.84 253.38 340.84 253.31 340.8 253.27 340.75 253.3 340.74 253.34 340.74 253.41 340.74 253.46 340.74 Z M 251.89 340.63 252.07 340.64 252.11 340.64 252.12 340.64 252.07 340.65 252.06 340.65 252.03 340.65 251.99 340.65 251.97 340.65 251.96 340.64 251.89 340.63 251.89 340.63 Z M 256.91 340.74 256.89 340.76 256.79 340.75 256.74 340.75 256.7 340.73 256.7 340.71 256.7 340.7 256.7 340.7 256.7 340.68 256.72 340.66 256.76 340.59 256.79 340.57 256.82 340.59 256.89 340.64 256.9 340.67 256.91 340.7 256.91 340.74 Z M 250.07 340.39 250.05 340.39 250.01 340.39 249.99 340.38 249.99 340.37 249.99 340.36 250 340.36 250.01 340.37 250.02 340.38 250.04 340.38 250.07 340.39 Z M 249.98 340.28 249.98 340.29 249.97 340.29 249.98 340.28 Z M 249.98 340.28 249.98 340.28 249.98 340.28 249.98 340.28 249.98 340.28 Z M 249.99 340.24 249.98 340.24 249.98 340.24 249.98 340.23 249.99 340.24 Z M 249.97 340.2 249.97 340.21 249.97 340.2 249.97 340.2 Z M 249.96 340.19 249.96 340.2 249.96 340.19 249.96 340.19 Z M 266.95 348.05 266.95 348.05 267.09 348.25 267.32 348.5 267.41 348.65 267.41 348.69 267.38 348.74 267.34 348.78 267.29 348.8 267.24 348.8 267.13 348.82 267.1 348.84 267.07 348.87 267.01 348.91 267 348.95 267 348.98 267 349.01 267 349.03 266.98 349.06 266.96 349.15 266.93 349.19 266.9 349.21 266.85 349.22 266.76 349.21 266.71 349.22 266.67 349.26 266.63 349.29 266.59 349.33 266.49 349.37 266.46 349.4 266.44 349.43 266.41 349.46 266.4 349.47 266.29 349.54 266.24 349.59 266.22 349.64 266.17 349.68 266.07 349.69 265.88 349.69 265.83 349.7 265.8 349.73 265.76 349.81 265.71 349.87 265.7 349.89 265.7 349.91 265.7 349.96 265.7 349.98 265.67 350.04 265.68 350.07 265.67 350.1 265.65 350.12 265.61 350.11 265.6 350.12 265.58 350.15 265.55 350.21 265.51 350.25 265.41 350.28 265.38 350.34 265.38 350.38 265.4 350.41 265.45 350.5 265.47 350.51 265.51 350.52 265.54 350.54 265.55 350.56 265.55 350.57 265.54 350.58 265.54 350.6 265.55 350.62 265.57 350.63 265.59 350.64 265.61 350.65 265.62 350.68 265.65 350.75 265.67 350.78 265.67 350.79 265.67 350.81 265.67 350.83 265.65 350.84 265.6 350.89 265.57 350.95 265.57 351.02 265.61 351.08 265.63 351.11 265.79 351.23 265.81 351.23 265.86 351.14 265.9 351.11 265.95 351.09 266 351.09 266.03 351.1 266.05 351.12 266.08 351.13 266.11 351.13 266.15 351.12 266.18 351.13 266.2 351.14 266.23 351.17 266.23 351.17 266.31 351.21 266.34 351.24 266.35 351.27 266.35 351.31 266.34 351.35 266.33 351.39 266.31 351.42 266.27 351.44 266.24 351.47 266.2 351.5 266.18 351.53 266.16 351.64 266.13 351.62 266.07 351.64 265.78 351.81 265.62 351.85 265.58 351.87 265.55 351.9 265.48 351.99 265.45 352.02 265.4 352.04 265.37 352.03 265.29 351.98 265.24 351.96 265.21 351.97 265.16 351.98 265.14 351.98 265.12 351.97 265.1 351.96 265.08 351.94 265.07 351.93 265.02 351.92 264.99 351.92 264.98 351.93 264.98 351.95 265 351.98 265.01 352 265.01 352.02 265 352.03 264.94 352.09 264.93 352.1 264.88 352.11 264.78 352.1 264.74 352.13 264.69 352.11 264.65 352.11 264.63 352.15 264.59 352.13 264.54 352.13 264.5 352.14 264.47 352.16 264.4 352.24 264.36 352.32 264.33 352.4 264.31 352.48 264.32 352.53 264.34 352.55 264.37 352.56 264.4 352.6 264.42 352.63 264.44 352.69 264.47 352.73 264.47 352.75 264.48 352.76 264.48 352.78 264.47 352.8 264.45 352.83 264.44 352.86 264.43 352.97 264.43 352.99 264.45 353.05 264.46 353.07 264.5 353.1 264.51 353.11 264.51 353.13 264.52 353.13 264.53 353.14 264.53 353.16 264.52 353.24 264.52 353.27 264.51 353.31 264.49 353.32 264.46 353.31 264.43 353.32 264.4 353.34 264.37 353.4 264.35 353.43 264.33 353.44 264.29 353.46 264.22 353.47 264.19 353.49 264.17 353.52 264.14 353.59 264.03 353.75 264 353.78 263.93 353.82 263.9 353.84 263.94 353.93 264.01 354.01 264.18 354.2 264.35 354.38 264.52 354.57 264.69 354.75 264.85 354.93 265.02 355.12 265.19 355.3 265.36 355.49 265.42 355.5 265.48 355.52 265.53 355.56 265.67 355.94 265.69 356.05 265.64 356.15 265.49 356.34 265.41 356.41 265.31 356.48 265.09 356.57 265.07 356.57 265.03 356.57 265.01 356.58 265 356.6 264.94 356.73 264.92 356.83 264.9 356.88 264.83 356.96 264.76 357 264.57 357.02 264.45 357.06 264.41 357.06 264.37 357.05 264.3 357.01 264.26 357 264.12 356.99 264.08 356.99 264.07 357.02 264.13 357.11 264.13 357.15 264.1 357.19 264.04 357.21 263.99 357.22 263.94 357.22 263.81 357.21 263.77 357.22 263.67 357.25 263.64 357.31 263.63 357.48 263.62 357.51 263.6 357.54 263.58 357.56 263.56 357.58 263.53 357.59 263.51 357.59 263.49 357.58 263.46 357.58 263.43 357.59 263.39 357.6 263.36 357.61 263.34 357.6 263.27 357.58 263.19 357.58 263.15 357.59 263.11 357.6 263.06 357.63 262.94 357.75 262.91 357.78 262.86 357.8 262.81 357.81 262.77 357.82 262.72 357.82 262.68 357.81 262.64 357.79 262.59 357.77 262.49 357.79 262.32 357.91 262.23 357.94 262.14 357.93 261.72 357.76 261.62 357.74 261.54 357.76 261.53 357.77 261.53 357.81 261.51 357.82 261.49 357.83 261.43 357.85 261.38 357.87 261.36 357.89 261.35 357.93 261.35 357.97 261.32 358.06 261.26 358.07 261.08 358.05 260.95 358.06 260.92 358.07 260.87 358.1 260.86 358.13 260.87 358.17 260.87 358.22 260.85 358.27 260.83 358.32 260.82 358.36 260.83 358.42 260.84 358.45 260.85 358.46 260.86 358.48 260.87 358.53 260.91 358.62 260.93 358.71 260.93 358.8 260.91 358.89 260.86 358.97 260.82 359.01 260.8 359.03 260.78 359.03 260.74 359.03 260.72 359.04 260.68 359.07 260.63 359.1 260.6 359.11 260.55 359.11 260.5 359.1 260.46 359.09 260.41 359.06 260.36 359.03 260.33 358.99 260.29 358.94 260.06 358.67 259.92 358.57 259.79 358.39 259.72 358.32 259.57 358.23 259.48 358.2 259.41 358.21 259.36 358.28 259.34 358.36 259.31 358.43 259.22 358.46 259.12 358.42 258.97 358.28 258.86 358.26 258.82 358.27 258.7 358.3 258.64 358.3 258.6 358.29 258.51 358.25 258.41 358.25 258.32 358.3 258.23 358.36 258.14 358.4 258.05 358.4 257.99 358.34 257.96 358.25 257.92 358.09 257.89 358.01 257.86 357.95 257.81 357.9 257.75 357.87 257.6 357.83 257.32 357.81 256.83 357.88 256.79 357.86 256.76 357.82 256.72 357.72 256.7 357.68 256.67 357.64 256.58 357.56 256.48 357.51 256.38 357.51 256.35 357.54 256.33 357.58 256.33 357.63 256.33 357.68 256.36 357.73 256.4 357.75 256.44 357.77 256.49 357.79 256.52 357.83 256.54 357.87 256.57 357.96 256.66 358.15 256.66 358.15 256.66 358.15 256.66 358.15 256.71 358.2 256.81 358.28 256.86 358.33 256.96 358.46 257.17 358.63 257.26 358.68 257.36 358.72 257.41 358.75 257.54 358.91 257.64 358.99 257.68 359.04 257.7 359.09 257.7 359.17 257.69 359.21 257.68 359.25 257.62 359.33 257.6 359.37 257.59 359.42 257.65 359.7 257.65 359.79 257.63 359.98 257.64 360.07 257.68 360.15 257.75 360.23 257.83 360.37 257.9 360.46 258.07 360.79 258.11 360.91 258.13 360.95 258.14 360.97 258.14 360.99 258.12 361.05 258.12 361.18 258.11 361.22 258.02 361.37 258.01 361.43 258.01 361.47 258.03 361.51 258.06 361.53 258.11 361.52 258.24 361.53 258.51 361.61 258.65 361.6 258.79 361.59 259.08 361.59 259.22 361.61 259.5 361.62 259.54 361.64 259.55 361.67 259.53 361.75 259.52 361.78 259.53 361.93 259.52 361.96 259.49 362.03 259.46 362.1 259.45 362.13 259.46 362.17 259.44 362.22 259.37 362.25 259.22 362.28 259.2 362.28 259.13 362.27 259.1 362.27 258.98 362.33 258.66 362.58 258.61 362.6 258.57 362.61 258.31 362.61 258.23 362.61 258.14 362.64 258.05 362.71 258.01 362.78 258 362.97 257.96 363.11 257.97 363.24 257.97 363.29 257.95 363.33 257.93 363.38 257.89 363.43 257.85 363.48 257.74 363.54 257.62 363.66 257.46 363.77 257.42 363.82 257.38 363.91 257.35 363.95 257.31 363.96 257.27 363.94 257.26 363.89 257.27 363.83 257.28 363.79 257.33 363.7 257.33 363.66 257.28 363.63 257.23 363.63 257.17 363.66 257.08 363.73 256.96 363.79 256.91 363.83 256.87 363.88 256.82 363.98 256.79 364.02 256.51 364.21 256.47 364.22 256.42 364.21 256.31 364.16 256.27 364.16 256.24 364.18 256.19 364.23 256.14 364.27 256.11 364.28 256.07 364.28 256.01 364.3 255.99 364.31 255.92 364.37 255.91 364.38 255.89 364.39 255.88 364.39 255.87 364.4 255.87 364.43 255.87 364.44 255.78 364.46 255.69 364.45 255.61 364.47 255.56 364.57 255.54 364.76 255.52 364.85 255.47 364.92 255.42 364.94 255.38 364.94 255.29 364.93 255.23 364.93 255.19 364.95 255.05 365.11 255.03 365.16 255.01 365.21 255.01 365.23 255.01 365.29 255 365.32 254.96 365.37 254.92 365.43 254.87 365.47 254.81 365.5 254.76 365.52 254.71 365.52 254.67 365.51 254.64 365.48 254.62 365.43 254.61 365.33 254.67 365.24 254.73 365.16 254.77 365.05 254.77 365 254.75 364.95 254.73 364.91 254.68 364.84 254.65 364.82 254.62 364.8 254.6 364.79 254.57 364.78 254.52 364.79 254.36 364.79 254.32 364.79 254.26 364.81 254.18 364.86 253.98 364.95 253.94 364.98 253.89 365.03 253.8 365.13 253.76 365.18 253.71 365.2 253.67 365.21 253.57 365.22 253.52 365.24 253.45 365.32 253.4 365.34 253.35 365.34 253.32 365.32 253.28 365.29 253.24 365.27 253.19 365.27 253.07 365.31 252.93 365.28 252.8 365.19 252.7 365.1 252.66 365.07 252.56 364.97 252.41 364.84 252.23 364.68 252.06 364.53 251.91 364.39 251.8 364.3 251.76 364.26 251.71 364.17 251.7 364.12 251.74 364.03 251.74 363.98 251.72 363.93 251.7 363.88 251.68 363.86 251.65 363.84 251.63 363.82 251.62 363.79 251.64 363.7 251.63 363.65 251.61 363.6 251.56 363.52 251.54 363.47 251.53 363.43 251.53 363.33 251.53 363.29 251.34 362.78 251.3 362.71 251.29 362.68 251.28 362.67 251.24 362.64 251.22 362.61 251.21 362.59 251.19 362.57 251.18 362.54 251.22 362.5 251.23 362.48 251.24 362.44 251.23 362.32 251.22 362.29 251.18 362.27 251.14 362.26 251.11 362.24 251.09 362.21 251.05 362.12 251.04 362.05 251 361.96 251 361.92 251.03 361.89 251.07 361.85 251.1 361.81 251.08 361.76 251.07 361.74 251.07 361.7 251.06 361.68 251.05 361.66 250.97 361.62 250.89 361.59 250.87 361.58 250.83 361.54 250.81 361.52 250.78 361.52 250.76 361.5 250.75 361.48 250.74 361.45 250.73 361.43 250.71 361.41 250.66 361.38 250.64 361.37 250.62 361.34 250.61 361.32 250.6 361.3 250.57 361.29 250.56 361.28 250.52 361.24 250.52 361.22 250.51 361.21 250.46 361.18 250.44 361.17 250.43 361.15 250.42 361.11 250.41 361.09 250.37 361.06 250.33 361.05 250.23 361.05 250.21 361.03 250.19 360.98 250.18 360.88 250.17 360.84 250.13 360.79 250.09 360.76 250.05 360.77 250.01 360.78 249.95 360.77 249.86 360.73 249.84 360.7 249.82 360.69 249.78 360.72 249.75 360.72 249.7 360.72 249.66 360.73 249.64 360.75 249.62 360.78 249.59 360.81 249.59 360.66 249.62 360.6 249.68 360.55 249.77 360.46 249.87 360.37 249.96 360.28 250.06 360.2 250.15 360.11 250.25 360.02 250.34 359.94 250.44 359.85 250.48 359.81 250.51 359.8 250.56 359.79 250.58 359.78 250.61 359.76 250.74 359.59 250.8 359.5 250.81 359.41 250.73 359.33 250.65 359.3 250.62 359.28 250.59 359.23 250.44 358.85 250.38 358.76 250.29 358.73 250.25 358.73 250.21 358.74 250.16 358.74 250.12 358.71 250.08 358.67 250.07 358.62 250.05 358.51 250.03 358.45 249.95 358.3 249.93 358.25 249.93 358.12 249.91 358.06 249.89 358.06 249.89 358.05 249.9 358.02 249.89 357.98 249.86 357.95 249.84 357.88 249.8 357.84 249.76 357.8 249.74 357.76 249.73 357.69 249.71 357.62 249.7 357.55 249.71 357.47 249.75 357.39 249.76 357.37 249.75 357.34 249.72 357.29 249.71 357.26 249.71 357.24 249.73 357.21 249.73 357.2 249.72 357.18 249.69 357.17 249.68 357.16 249.66 357.09 249.65 357.06 249.6 357.03 249.6 357.04 249.58 357.03 249.57 357.01 249.55 356.99 249.54 356.97 249.55 356.94 249.56 356.92 249.58 356.91 249.59 356.89 249.59 356.87 249.59 356.8 249.6 356.74 249.61 356.62 249.62 356.57 249.64 356.54 249.66 356.5 249.66 356.4 249.68 356.36 249.67 356.34 249.67 356.33 249.68 356.31 249.68 356.29 249.67 356.27 249.65 356.23 249.65 356.22 249.65 356.17 249.67 356.08 249.7 356 249.7 355.95 249.7 355.86 249.7 355.84 249.71 355.83 249.72 355.82 249.73 355.79 249.72 355.78 249.68 355.73 249.66 355.71 249.66 355.69 249.65 355.67 249.65 355.65 249.65 355.62 249.66 355.59 249.68 355.54 249.68 355.52 249.68 355.47 249.67 355.43 249.65 355.4 249.63 355.36 249.61 355.28 249.63 355.18 249.69 355.1 249.77 355.03 249.78 355.03 249.81 355.03 249.82 355.03 249.83 355.02 249.85 354.99 249.86 354.98 249.93 354.96 249.95 354.95 249.99 354.9 250.01 354.88 250.04 354.88 250.05 354.87 250.07 354.79 250.09 354.77 250.1 354.76 250.12 354.74 250.12 354.71 250.11 354.7 250.08 354.67 250.07 354.66 250.07 354.61 250.04 354.48 250.04 354.38 250.06 354.29 250.1 354.2 250.15 354.12 250.28 354 250.3 353.96 250.41 353.85 250.44 353.83 250.52 353.79 250.55 353.77 250.56 353.73 250.55 353.68 250.53 353.64 250.48 353.6 250.39 353.47 250.39 353.38 250.4 353.35 250.43 353.33 250.47 353.3 250.49 353.28 250.48 353.28 250.4 353.28 250.33 353.23 250.28 353.17 250.21 353.13 249.86 353.05 249.71 353.04 249.67 353.03 249.65 353.03 249.62 353.04 249.58 353.08 249.56 353.1 249.53 353.11 249.5 353.11 249.48 353.11 249.47 353.14 249.46 353.16 249.45 353.19 249.43 353.2 249.41 353.21 249.39 353.21 249.32 353.24 249.22 353.25 248.94 353.23 248.84 353.24 248.59 353.33 248.51 353.33 248.37 353.29 248.32 353.29 248.27 353.29 248.11 353.34 247.97 353.35 247.95 353.36 247.89 353.41 247.86 353.42 247.81 353.42 247.71 353.37 247.67 353.36 247.62 353.36 247.48 353.31 247.43 353.31 247.29 353.31 247.24 353.31 247.19 353.29 247.14 353.27 247.1 353.29 247.01 353.25 246.97 353.24 246.91 353.24 246.87 353.26 246.81 353.32 246.76 353.35 246.63 353.47 246.5 353.54 246.45 353.51 246.36 353.4 246.32 353.38 246.26 353.39 246.15 353.44 246.09 353.45 246.09 353.45 246.07 353.45 246 353.37 245.83 353.16 245.67 352.95 245.5 352.74 245.33 352.53 245.16 352.31 244.99 352.1 244.83 351.89 244.66 351.68 244.62 351.63 244.55 351.57 244.48 351.55 244.4 351.56 244.32 351.58 244.2 351.65 244.13 351.64 243.9 351.53 243.86 351.52 243.86 351.52 243.84 351.5 243.83 351.49 243.81 351.49 243.76 351.5 243.74 351.5 243.7 351.49 243.68 351.47 243.57 351.33 243.55 351.32 243.52 351.32 243.45 351.34 243.42 351.34 243.34 351.33 243.32 351.32 243.29 351.29 243.27 351.29 243.21 351.29 243.08 351.32 242.98 351.33 242.89 351.35 242.85 351.36 242.83 351.37 242.82 351.39 242.8 351.42 242.7 351.49 242.59 351.53 242.47 351.54 242.32 351.53 242.29 351.54 242.28 351.56 242.25 351.58 242.21 351.59 242.19 351.58 242.17 351.57 242.14 351.56 242.04 351.55 242.01 351.54 241.99 351.52 241.99 351.49 241.99 351.47 241.97 351.45 241.93 351.45 241.84 351.46 241.81 351.46 241.73 351.44 241.7 351.44 241.66 351.45 241.61 351.47 241.58 351.48 241.54 351.44 241.49 351.43 241.45 351.44 241.44 351.44 241.44 351.45 241.4 351.44 241.4 351.44 241.4 351.44 241.39 351.42 241.38 351.42 241.36 351.42 241.33 351.44 241.31 351.44 241.3 351.44 241.27 351.42 241.26 351.4 241.24 351.39 241.17 351.39 241.14 351.39 241.12 351.41 241.13 351.45 241.07 351.43 241.02 351.43 240.96 351.44 240.9 351.44 240.91 351.48 240.89 351.49 240.87 351.49 240.84 351.49 240.82 351.51 240.79 351.52 240.77 351.54 240.74 351.54 240.66 351.54 240.48 351.49 240.41 351.48 240.41 351.48 240.39 351.47 240.34 351.42 240.31 351.4 240.25 351.38 240.22 351.36 240.18 351.32 240.06 351.08 240.04 351.02 240.02 350.95 240.01 350.89 240.02 350.87 240.04 350.78 240.03 350.77 240.02 350.76 239.94 350.66 239.87 350.64 239.69 350.64 239.58 350.62 239.52 350.6 239.48 350.59 239.4 350.53 239.34 350.43 239.33 350.38 239.35 350.33 239.36 350.29 239.37 350.24 239.37 350.2 239.34 350.11 239.33 350.07 239.35 349.83 239.39 349.7 239.4 349.66 239.39 349.56 239.38 349.52 239.37 349.5 239.32 349.45 239.31 349.43 239.32 349.4 239.34 349.39 239.36 349.38 239.39 349.37 239.42 349.34 239.45 349.31 239.46 349.27 239.48 349.23 239.5 349.19 239.54 349.18 239.59 349.19 239.62 349.19 239.66 349.14 239.66 349.06 239.61 348.9 239.53 348.77 239.52 348.72 239.52 348.68 239.54 348.61 239.55 348.57 239.54 348.53 239.53 348.5 239.51 348.46 239.48 348.44 239.48 348.44 239.46 348.43 239.44 348.42 239.41 348.41 239.39 348.39 239.34 348.33 239.29 348.29 239.25 348.24 239.21 348.19 239.16 348.14 239.12 348.1 239.08 348.05 239.03 348 238.99 347.96 238.95 347.91 238.9 347.84 238.88 347.75 238.85 347.65 238.83 347.55 238.8 347.46 238.78 347.36 238.75 347.26 238.73 347.17 238.7 347.07 238.68 346.97 238.66 346.93 238.63 346.88 238.66 346.83 238.65 346.81 238.61 346.79 238.57 346.75 238.55 346.76 238.53 346.76 238.52 346.76 238.49 346.76 238.46 346.76 238.44 346.77 238.37 346.82 238.32 346.84 238.28 346.83 238.24 346.78 238.23 346.73 238.24 346.63 238.23 346.58 238.22 346.57 238.2 346.55 238.19 346.54 238.19 346.53 238.2 346.51 238.2 346.5 238.18 346.42 238.16 346.4 238.11 346.41 238.01 346.5 237.96 346.52 237.91 346.54 237.87 346.56 237.79 346.64 237.71 346.68 237.62 346.69 237.38 346.69 237.35 346.69 237.32 346.68 237.32 346.63 237.34 346.59 237.42 346.53 237.46 346.49 237.49 346.45 237.57 346.26 237.75 345.99 237.79 345.9 237.82 345.87 237.91 345.81 237.94 345.77 237.97 345.73 238.02 345.58 238.15 345.39 238.22 345.25 238.23 345.19 238.22 345.15 238.2 345.11 238.19 345.05 238.19 345.01 238.21 344.92 238.21 344.83 238.33 344.44 238.37 343.95 238.37 343.9 238.37 343.87 238.37 343.86 238.39 343.82 238.42 343.77 238.46 343.73 238.49 343.69 238.53 343.58 238.67 343.42 238.73 343.32 238.83 343.01 238.89 342.91 238.94 342.85 239.04 342.78 239.08 342.74 239.12 342.69 239.2 342.5 239.22 342.47 239.26 342.43 239.28 342.41 239.28 342.38 239.28 342.34 239.29 342.32 239.33 342.29 239.38 342.29 239.48 342.28 239.6 342.24 239.64 342.23 239.69 342.23 239.77 342.25 239.81 342.24 239.83 342.21 239.9 342.09 239.96 341.97 240.03 341.85 240.1 341.72 240.16 341.6 240.23 341.48 240.29 341.35 240.36 341.23 240.38 341.19 240.42 341.13 240.46 341.11 240.52 341.09 240.65 341.06 240.78 341.02 240.91 340.99 241.04 340.96 241.17 340.92 241.3 340.89 241.43 340.85 241.56 340.82 241.62 340.8 241.71 340.77 241.78 340.7 241.82 340.68 241.89 340.68 241.86 340.74 241.85 340.78 241.87 340.82 241.81 340.83 241.79 340.83 241.78 340.85 241.78 340.87 241.78 340.89 241.76 340.9 241.71 340.9 241.58 340.97 241.49 341 241.12 341.05 240.71 341.18 240.62 341.2 240.57 341.22 240.52 341.24 240.49 341.26 240.46 341.35 240.47 341.44 240.53 341.74 240.72 342.1 240.85 342.3 240.91 342.35 241.17 342.5 241.2 342.53 241.23 342.56 241.23 342.59 241.21 342.6 241.11 342.62 241.12 342.58 241.1 342.55 241.07 342.53 241.01 342.52 240.99 342.51 240.97 342.51 240.96 342.52 240.95 342.53 240.94 342.54 240.91 342.56 240.93 342.58 241.01 342.66 241.03 342.69 241.03 342.71 241.02 342.74 241.02 342.77 241.04 342.86 241.08 342.96 241.12 343.03 241.18 343.11 241.25 343.17 241.34 343.22 241.32 343.27 241.3 343.35 241.26 343.4 241.27 343.42 241.28 343.44 241.27 343.47 241.26 343.49 241.27 343.53 241.26 343.57 241.23 343.62 241.22 343.67 241.22 343.79 241.22 343.81 241.22 343.81 241.2 343.83 241.19 343.84 241.13 343.86 241.08 343.91 241.07 343.92 241.04 343.93 241 343.95 240.94 344 240.89 344.07 240.76 344.31 240.64 344.47 240.63 344.52 240.59 344.54 240.5 344.57 240.47 344.59 240.44 344.63 240.42 344.68 240.4 344.77 240.35 344.86 240.3 344.99 240.16 345.15 240.12 345.22 240.13 345.25 240.17 345.34 240.2 345.38 240.35 345.53 240.4 345.6 240.52 345.85 240.48 345.83 240.46 345.79 240.45 345.74 240.43 345.7 240.41 345.72 240.42 345.72 240.42 345.73 240.43 345.75 240.41 345.75 240.4 345.76 240.39 345.77 240.38 345.78 240.41 345.79 240.45 345.82 240.48 345.86 240.49 345.91 240.47 345.95 240.44 345.95 240.4 345.93 240.37 345.9 240.36 345.94 240.38 345.98 240.41 346.04 240.44 346.01 240.49 345.97 240.54 345.95 240.56 345.99 240.58 345.99 240.58 345.95 240.6 345.96 240.66 346.03 240.69 346.04 240.71 346.05 240.73 346.06 240.74 346.08 240.68 346.07 240.62 346.09 240.59 346.14 240.61 346.2 240.63 346.13 240.64 346.11 240.77 346.11 240.83 346.15 240.88 346.21 240.93 346.25 240.99 346.2 240.98 346.24 240.97 346.25 241 346.27 241 346.29 240.99 346.3 240.96 346.3 240.96 346.31 240.99 346.34 240.99 346.38 240.98 346.42 240.96 346.45 240.94 346.43 240.89 346.46 240.81 346.54 240.83 346.56 240.85 346.54 240.88 346.53 240.9 346.56 240.91 346.55 240.93 346.54 240.94 346.53 240.94 346.51 240.97 346.53 240.96 346.56 240.96 346.58 240.99 346.6 240.95 346.61 240.95 346.64 240.99 346.69 240.94 346.75 240.93 346.77 240.93 346.79 240.95 346.8 240.97 346.81 240.97 346.82 240.99 346.82 241.02 346.84 241.04 346.85 241.03 346.86 241.02 346.87 241.05 346.89 241.1 346.92 241.18 346.95 241.28 346.97 241.38 346.97 241.48 346.95 241.79 346.85 242.01 346.76 242.08 346.71 242.13 346.66 242.16 346.54 242.2 346.51 242.26 346.44 242.28 346.42 242.3 346.41 242.36 346.4 242.37 346.4 242.39 346.39 242.4 346.38 242.42 346.37 242.46 346.36 242.48 346.33 242.49 346.29 242.49 346.25 242.45 346.13 242.44 345.94 242.43 345.9 242.42 345.87 242.42 345.85 242.42 345.82 242.43 345.81 242.47 345.75 242.47 345.72 242.51 345.56 242.51 345.46 242.52 345.44 242.53 345.43 242.54 345.41 242.54 345.4 242.52 345.36 242.5 345.33 242.46 345.29 242.43 345.25 242.42 345.2 242.44 345.19 242.46 345.18 242.46 345.16 242.46 345.15 242.42 345.1 242.38 345.04 242.26 344.9 242.21 344.86 242.16 344.87 242.11 344.67 242.07 344.57 242.02 344.49 241.94 344.4 241.89 344.37 241.81 344.34 241.79 344.3 241.76 344.21 241.75 344.18 241.7 344.13 241.68 344.06 241.66 344.03 241.61 343.97 241.59 343.95 241.58 343.93 241.57 343.91 241.56 343.89 241.58 343.85 241.59 343.74 241.58 343.71 241.55 343.68 241.45 343.61 241.42 343.57 241.41 343.51 241.43 343.49 241.5 343.43 241.51 343.42 241.5 343.42 241.44 343.32 241.43 343.29 241.43 343.26 241.45 343.21 241.45 343.17 241.44 343.15 241.42 343.13 241.38 343.09 241.36 343.06 241.35 343.04 241.32 343.03 241.32 343.02 241.49 343.01 241.56 343.02 241.63 343.05 241.65 343 241.64 342.95 241.62 342.91 241.61 342.88 241.63 342.84 241.68 342.81 241.7 342.77 241.65 342.77 241.62 342.77 241.6 342.76 241.58 342.74 241.53 342.69 241.51 342.68 241.6 342.65 241.69 342.64 241.87 342.63 241.97 342.62 241.99 342.61 242.23 342.51 242.33 342.46 242.35 342.44 242.48 342.39 242.91 342.15 243.25 342.06 243.31 342.03 243.36 342.06 243.44 342.05 243.69 342.02 243.73 342 243.77 341.94 243.75 341.95 243.73 341.96 243.72 341.98 243.71 342 243.7 341.95 243.76 341.93 243.87 341.95 243.94 341.92 244.11 341.84 244.2 341.79 244.24 341.79 244.32 341.8 244.43 341.75 244.48 341.69 244.51 341.63 244.51 341.59 244.51 341.57 244.49 341.56 244.47 341.55 244.49 341.54 244.52 341.54 244.55 341.55 244.57 341.58 244.59 341.61 244.61 341.63 244.64 341.62 244.65 341.6 244.66 341.56 244.68 341.57 244.7 341.58 244.73 341.59 244.74 341.6 244.75 341.6 244.76 341.58 244.76 341.56 244.75 341.54 244.74 341.53 244.73 341.53 244.73 341.52 244.73 341.51 244.74 341.5 244.71 341.48 244.71 341.45 244.62 341.42 244.57 341.42 244.56 341.41 244.57 341.4 244.59 341.4 244.62 341.4 244.6 341.38 244.58 341.37 244.55 341.36 244.52 341.35 244.48 341.32 244.56 341.34 244.62 341.37 244.68 341.4 244.72 341.42 244.74 341.43 244.78 341.44 244.82 341.43 244.85 341.44 244.89 341.46 244.93 341.45 244.95 341.42 245 341.44 245.01 341.48 245.03 341.48 245.06 341.48 245.07 341.52 245.11 341.54 245.15 341.56 245.18 341.61 245.25 341.64 245.29 341.61 245.3 341.58 245.37 341.54 245.39 341.51 245.4 341.46 245.35 341.38 245.36 341.34 245.35 341.31 245.31 341.21 245.3 341.14 245.24 341.03 245.23 341.03 245.22 341.08 245.2 341.07 245.18 341.05 245.17 341.03 245.14 341.04 245.12 341.06 245.11 341.07 245.1 341.08 244.99 341.11 244.94 341.12 244.95 341.08 244.87 341.12 244.84 341.13 244.77 341.13 244.74 341.14 244.72 341.15 244.67 341.17 244.53 341.19 244.42 341.24 244.36 341.22 244.32 341.18 244.32 341.13 244.32 341.11 244.35 341.08 244.36 341.06 244.36 341.05 244.36 341.04 244.35 341.03 244.35 341.02 244.35 340.96 244.34 340.95 244.32 340.93 244.32 340.91 244.33 340.92 244.36 340.93 244.38 340.94 244.38 340.88 244.37 340.85 244.36 340.83 244.34 340.82 244.33 340.84 244.32 340.86 244.3 340.88 244.29 340.84 244.24 340.76 244.23 340.74 244.22 340.74 244.21 340.73 244.21 340.68 244.2 340.67 244.19 340.66 244.16 340.66 244.18 340.63 244.19 340.55 244.2 340.52 244.2 340.48 244.25 340.41 244.25 340.36 244.27 340.33 244.34 340.25 244.36 340.22 244.37 340.18 244.37 340.11 244.38 340.09 244.47 340.09 244.51 340.08 244.55 340.05 244.69 339.94 244.74 339.91 244.79 339.9 244.83 339.91 244.85 339.93 244.96 339.95 245 339.99 245.2 340.31 245.23 340.4 245.24 340.5 245.24 340.69 245.26 340.79 245.39 341.17 245.5 341.38 245.57 341.47 245.67 341.54 245.75 341.55 245.8 341.52 245.86 341.47 245.94 341.45 246.13 341.48 246.22 341.48 246.31 341.45 246.37 341.41 246.41 341.39 246.45 341.39 246.47 341.4 246.52 341.43 246.54 341.43 246.62 341.43 246.64 341.43 246.78 341.49 246.81 341.49 246.82 341.51 246.85 341.54 246.89 341.56 246.91 341.57 247.01 341.59 247.35 341.57 247.39 341.59 247.43 341.61 247.5 341.69 247.55 341.72 247.59 341.75 247.67 341.78 247.71 341.79 247.74 341.79 247.75 341.78 247.76 341.79 247.81 341.81 247.83 341.83 247.85 341.87 247.9 341.91 248.07 342 248.12 342.03 248.16 342.07 248.17 342.1 248.19 342.13 248.34 342.19 248.35 342.17 248.36 342.16 248.36 342.14 248.37 342.14 248.38 342.16 248.4 342.19 248.4 342.2 248.38 342.25 248.41 342.3 248.49 342.43 248.63 342.7 248.65 342.76 248.63 342.79 248.61 342.78 248.59 342.76 248.56 342.73 248.52 342.73 248.5 342.73 248.47 342.74 248.45 342.76 248.43 342.77 248.51 342.79 248.68 342.81 248.74 342.85 248.71 342.89 248.68 342.91 248.58 342.91 248.54 342.93 248.53 342.97 248.53 343.02 248.56 343.16 248.63 343.36 248.66 343.41 248.71 343.5 248.73 343.54 248.8 343.63 248.89 343.7 248.98 343.74 249.25 343.74 249.29 343.75 249.34 343.77 249.4 343.79 249.43 343.78 249.47 343.76 249.5 343.75 249.53 343.76 249.55 343.76 249.56 343.78 249.56 343.8 249.56 343.81 249.57 343.82 249.58 343.8 249.6 343.78 249.6 343.77 249.67 343.74 249.76 343.72 250.05 343.7 250.24 343.65 250.42 343.64 250.61 343.62 250.76 343.6 250.94 343.61 251.11 343.59 251.23 343.52 251.32 343.5 251.41 343.47 251.46 343.46 251.74 343.47 251.98 343.45 252.5 343.41 252.75 343.42 252.78 343.42 252.8 343.44 252.92 343.46 252.96 343.46 252.99 343.44 253.01 343.41 253.05 343.38 253.09 343.37 253.14 343.38 253.28 343.45 253.42 343.48 253.47 343.52 253.57 343.53 253.6 343.54 253.58 343.57 253.53 343.6 253.47 343.62 253.43 343.62 253.43 343.64 253.43 343.7 253.44 343.72 253.51 343.79 253.67 343.92 253.69 343.94 253.76 343.98 253.8 344.04 253.96 344.14 253.93 344.14 253.9 344.13 253.87 344.12 253.86 344.11 253.84 344.12 253.82 344.14 253.87 344.2 253.93 344.19 253.99 344.22 254.08 344.31 254.14 344.33 254.2 344.33 254.33 344.34 254.26 344.3 254.04 344.2 253.99 344.14 254.63 344.42 254.9 344.5 254.97 344.51 255.23 344.56 255.54 344.61 255.63 344.66 255.71 344.68 255.74 344.69 255.74 344.71 255.57 344.65 255.53 344.64 255.55 344.67 255.59 344.7 255.63 344.72 255.73 344.72 255.75 344.72 255.77 344.71 255.81 344.69 255.88 344.68 255.96 344.63 256 344.61 256.04 344.61 256.16 344.63 256.33 344.64 256.41 344.63 256.48 344.59 256.5 344.56 256.52 344.53 256.54 344.44 256.54 344.41 256.53 344.35 256.54 344.32 256.56 344.34 256.58 344.35 256.61 344.36 256.63 344.35 256.62 344.37 256.61 344.38 256.59 344.38 256.61 344.41 256.65 344.41 256.68 344.39 256.65 344.37 256.68 344.35 256.73 344.28 256.77 344.27 256.83 344.25 256.86 344.24 256.86 344.26 256.85 344.27 256.85 344.28 256.86 344.27 256.88 344.27 256.89 344.26 256.91 344.29 256.92 344.28 256.94 344.27 256.95 344.27 256.96 344.26 256.98 344.27 257.03 344.29 257.05 344.29 257.1 344.27 257.16 344.21 257.23 344.19 257.27 344.17 257.28 344.17 257.3 344.16 257.3 344.14 257.29 344.12 257.23 344.15 257.17 344.15 257.12 344.13 257.09 344.11 257.11 344.09 257.13 344.09 257.16 344.1 257.18 344.11 257.21 344.1 257.26 344.07 257.29 344.06 257.28 344.03 257.28 344.02 257.29 344 257.24 344 257.24 343.98 257.29 343.97 257.31 343.98 257.32 344 257.32 344.04 257.33 344.07 257.34 344.07 257.36 344.05 257.38 344.02 257.38 343.96 257.47 343.92 257.59 343.89 257.67 343.85 257.69 343.81 257.7 343.78 257.72 343.76 257.77 343.75 257.82 343.76 257.85 343.76 257.88 343.77 257.98 343.82 258.02 343.83 258.07 343.83 258.12 343.83 258.26 343.8 258.3 343.8 258.39 343.83 258.44 343.83 258.53 343.83 258.83 343.76 258.9 343.72 258.85 343.72 258.79 343.72 258.73 343.72 258.68 343.69 258.64 343.66 258.53 343.6 258.47 343.59 258.36 343.58 258.3 343.58 258.25 343.55 258.21 343.53 258.15 343.53 258.03 343.55 258.04 343.54 258.06 343.51 258.03 343.51 258.01 343.52 257.99 343.54 257.97 343.55 257.94 343.56 257.79 343.55 257.76 343.55 257.69 343.59 257.67 343.6 257.66 343.61 257.64 343.67 257.61 343.68 257.58 343.67 257.57 343.64 257.56 343.6 257.56 343.58 257.54 343.53 257.5 343.49 257.47 343.44 257.48 343.4 257.51 343.39 257.52 343.37 257.53 343.35 257.53 343.32 257.55 343.32 257.57 343.36 257.6 343.38 257.7 343.4 257.73 343.41 257.78 343.44 257.81 343.45 257.84 343.44 257.97 343.38 257.99 343.37 258.02 343.37 258.04 343.38 258.05 343.39 258.05 343.4 258.06 343.4 258.27 343.4 258.32 343.42 258.35 343.4 258.44 343.38 258.47 343.37 258.5 343.35 258.51 343.32 258.53 343.28 258.53 343.23 258.55 343.23 258.58 343.28 258.62 343.32 258.67 343.34 258.9 343.4 259.12 343.42 259.17 343.42 259.26 343.36 259.32 343.34 259.35 343.36 259.37 343.36 259.38 343.33 259.4 343.33 259.42 343.33 259.45 343.34 259.46 343.33 259.48 343.28 259.49 343.27 259.51 343.28 259.52 343.29 259.54 343.29 259.55 343.28 259.57 343.29 259.55 343.31 259.6 343.32 259.62 343.3 259.65 343.3 259.68 343.31 259.72 343.32 259.72 343.32 259.73 343.3 259.75 343.29 259.77 343.3 259.79 343.31 259.82 343.3 259.97 343.19 259.99 343.19 260 343.2 260.01 343.22 260.02 343.24 260.05 343.25 260.07 343.25 260.09 343.25 260.11 343.24 260.13 343.22 260.17 343.23 260.32 343.22 260.37 343.22 260.46 343.26 260.51 343.27 260.56 343.26 260.65 343.22 260.73 343.21 260.97 343.13 261 343.12 261.05 343.15 261.08 343.16 261.11 343.16 261.15 343.17 261.37 343.17 261.69 343.23 261.86 343.25 261.96 343.27 262.12 343.27 262.19 343.29 262.22 343.29 262.25 343.28 262.31 343.24 262.34 343.23 262.49 343.23 262.55 343.22 262.61 343.19 262.63 343.21 262.69 343.19 262.71 343.22 262.75 343.19 262.81 343.17 262.87 343.16 262.91 343.17 262.87 343.19 262.84 343.21 262.82 343.25 262.83 343.29 262.82 343.31 262.79 343.29 262.77 343.3 262.75 343.33 262.7 343.34 262.7 343.34 262.67 343.36 262.65 343.37 262.62 343.37 262.6 343.37 262.58 343.37 262.56 343.39 262.42 343.4 262.37 343.42 262.18 343.39 262.04 343.4 262.01 343.42 261.98 343.44 261.87 343.6 261.82 343.64 261.78 343.64 261.73 343.61 261.68 343.61 261.64 343.63 261.59 343.63 261.56 343.63 261.52 343.61 261.5 343.6 261.47 343.6 261.44 343.61 261.41 343.62 261.37 343.61 261.22 343.57 261.1 343.56 260.58 343.63 260.52 343.64 260.49 343.67 260.47 343.71 260.42 343.75 260.36 343.78 260.33 343.8 260.33 343.82 260.39 343.79 260.52 343.69 260.58 343.65 260.67 343.64 260.7 343.69 260.71 343.75 260.71 343.81 260.72 343.88 260.72 343.92 260.71 343.94 260.7 343.94 260.66 343.95 260.65 343.95 260.63 343.95 260.59 343.92 260.58 343.91 260.43 343.9 260.36 343.92 260.34 343.97 260.36 343.96 260.4 343.94 260.42 343.99 260.43 344.02 260.45 344.03 260.42 344.05 260.39 344.09 260.36 344.11 260.4 344.13 260.39 344.16 260.37 344.18 260.34 344.21 260.47 344.21 260.5 344.19 260.51 344.15 260.47 344.06 260.48 344.02 260.45 344 260.45 343.97 260.45 343.94 260.48 343.92 260.52 343.92 260.55 343.94 260.62 344 260.64 343.98 260.66 343.98 260.68 343.98 260.71 343.97 260.78 343.93 260.79 343.92 260.83 343.93 260.87 343.95 260.91 343.97 260.93 343.98 260.94 344 260.94 344.04 260.95 344.06 260.97 344.08 261.02 344.11 261.05 344.14 261.07 344.17 261.08 344.21 261.09 344.26 261.07 344.33 261.07 344.35 261.1 344.4 261.1 344.42 261.11 344.43 261.12 344.44 261.14 344.45 261.15 344.49 261.17 344.53 261.18 344.54 261.17 344.57 261.14 344.61 261.11 344.65 261.08 344.66 261.05 344.66 261.01 344.67 260.99 344.68 260.96 344.67 260.94 344.66 260.93 344.65 260.92 344.64 260.88 344.64 260.84 344.64 260.81 344.65 260.8 344.68 260.79 344.7 260.78 344.72 260.76 344.73 260.74 344.74 260.73 344.73 260.72 344.68 260.71 344.67 260.68 344.65 260.62 344.68 260.58 344.68 260.58 344.66 260.58 344.64 260.58 344.61 260.57 344.6 260.55 344.6 260.53 344.61 260.51 344.63 260.49 344.64 260.49 344.62 260.47 344.6 260.45 344.59 260.43 344.58 260.4 344.61 260.37 344.61 260.31 344.6 260.32 344.61 260.33 344.62 260.36 344.65 260.39 344.68 260.4 344.67 260.41 344.65 260.43 344.63 260.45 344.63 260.46 344.65 260.47 344.76 260.49 344.81 260.53 344.81 260.5 344.78 260.5 344.75 260.51 344.73 260.5 344.7 260.5 344.68 260.51 344.66 260.52 344.65 260.54 344.64 260.55 344.66 260.54 344.69 260.55 344.71 260.58 344.73 260.61 344.72 260.64 344.71 260.68 344.71 260.7 344.72 260.72 344.74 260.75 344.76 260.8 344.77 260.77 344.82 260.79 344.84 260.83 344.83 260.84 344.79 260.82 344.72 260.83 344.67 260.87 344.66 260.89 344.67 260.93 344.71 260.95 344.72 260.98 344.72 261.1 344.69 261.15 344.66 261.2 344.63 261.22 344.58 261.22 344.53 261.19 344.44 261.18 344.39 261.19 344.33 261.23 344.31 261.28 344.33 261.33 344.35 261.42 344.42 261.47 344.49 261.53 344.68 261.55 344.71 261.57 344.75 261.59 344.78 261.59 344.83 261.61 344.87 261.62 344.9 261.61 344.93 261.59 344.98 261.63 344.98 261.66 345 261.69 345.03 261.73 345.09 261.85 345.31 261.86 345.35 261.86 345.39 261.85 345.42 261.84 345.45 261.85 345.46 261.86 345.49 261.92 345.43 261.97 345.35 262.03 345.18 262.03 345.11 262 344.97 262 344.89 262.04 344.92 262.07 344.97 262.16 345.13 262.17 345.17 262.18 345.49 262.15 345.58 262.09 345.64 262.16 345.61 262.21 345.54 262.22 345.44 262.21 345.16 262.2 345.11 262.15 345.03 262.13 344.98 262.26 345 262.3 345.01 262.32 345.03 262.33 345.06 262.35 345.09 262.37 345.1 262.44 345.12 262.48 345.12 262.5 345.12 262.51 345.11 262.48 345.09 262.46 345.08 262.4 345.06 262.37 345.06 262.37 345.05 262.3 344.98 262.27 344.96 262.24 344.95 262.1 344.95 262.08 344.94 262.04 344.9 262.07 344.86 262.09 344.82 262.11 344.8 262.13 344.79 262.32 344.84 262.43 344.88 262.51 344.93 262.73 345.1 262.77 345.13 262.84 345.22 262.9 345.27 262.94 345.3 262.94 345.33 262.95 345.34 262.98 345.37 262.99 345.39 262.98 345.42 262.96 345.48 262.92 345.56 262.91 345.61 262.92 345.61 262.98 345.49 263.02 345.36 263.05 345.37 263.09 345.41 263.11 345.47 263.14 345.5 263.12 345.54 263.14 345.73 263.16 345.69 263.16 345.64 263.17 345.54 263.16 345.51 263.15 345.49 263.14 345.48 263.13 345.46 263.11 345.44 263.1 345.39 263.09 345.36 263.08 345.36 263.03 345.34 263.02 345.33 263.01 345.32 262.98 345.27 262.96 345.25 262.96 345.23 262.95 345.22 262.97 345.21 263.03 345.21 263.12 345.23 263.29 345.28 263.31 345.28 263.47 345.32 263.51 345.29 263.5 345.26 263.47 345.23 263.45 345.19 263.43 345.19 263.42 345.18 263.38 345.15 263.38 345.14 263.37 345.12 263.34 345.11 263.31 345.09 263.3 345.06 263.31 345.05 263.37 345.06 263.39 345.07 263.43 345.08 263.49 345.12 263.58 345.17 263.65 345.22 263.73 345.27 263.76 345.31 263.85 345.42 263.84 345.36 263.78 345.29 263.77 345.25 263.7 345.22 263.67 345.19 263.68 345.18 263.71 345.21 263.74 345.22 263.78 345.22 263.81 345.24 263.83 345.26 263.89 345.33 263.93 345.36 263.96 345.39 264 345.43 264.03 345.47 264.06 345.5 264.11 345.53 264.21 345.61 264.26 345.65 264.28 345.72 264.33 345.77 264.36 345.76 264.32 345.72 264.38 345.71 264.49 345.79 264.54 345.76 264.55 345.77 264.63 345.76 264.67 345.77 264.75 345.81 264.83 345.84 264.87 345.86 264.88 345.9 264.87 345.9 264.86 345.89 264.85 345.87 264.85 345.94 264.85 345.96 264.87 345.97 264.88 345.97 264.9 345.97 264.92 345.96 264.96 345.97 265.01 345.99 265.05 346.02 265.09 346.04 265.11 346.07 265.14 346.11 265.17 346.15 265.18 346.16 265.19 346.17 265.19 346.18 265.19 346.19 265.22 346.19 265.23 346.2 265.25 346.25 265.26 346.31 265.26 346.36 265.23 346.4 265.23 346.39 265.22 346.38 265.2 346.36 265.19 346.39 265.19 346.43 265.18 346.45 265.15 346.47 265.11 346.47 265.06 346.5 265.04 346.51 265.02 346.51 264.99 346.52 264.96 346.53 264.94 346.54 264.93 346.57 264.92 346.58 264.91 346.59 264.9 346.59 264.85 346.6 264.73 346.72 264.68 346.74 264.64 346.77 264.59 346.83 264.54 346.97 264.57 346.96 264.6 346.93 264.62 346.9 264.63 346.87 264.64 346.85 264.82 346.69 264.87 346.66 264.88 346.69 264.87 346.72 264.84 346.75 264.82 346.77 264.82 346.79 264.81 346.84 264.8 346.85 264.79 346.87 264.78 346.89 264.78 346.93 264.77 346.95 264.75 346.97 264.72 346.97 264.7 346.98 264.62 347.07 264.61 347.07 264.6 347.09 264.56 347.15 264.55 347.18 264.52 347.28 264.52 347.31 264.53 347.36 264.54 347.38 264.5 347.48 264.38 347.65 264.35 347.75 264.34 347.85 264.32 347.93 264.27 347.98 264.17 347.98 264.04 347.94 264.01 347.93 263.62 347.96 263.53 347.94 263.44 347.88 263.4 347.89 263.35 347.89 263.32 347.92 263.32 347.96 263.34 347.98 263.46 348.05 263.54 348.07 263.56 348.08 263.57 348.09 263.58 348.11 263.59 348.11 263.62 348.12 263.65 348.1 263.68 348.1 263.68 348.11 263.7 348.13 263.74 348.17 263.75 348.17 263.78 348.17 263.79 348.18 263.81 348.21 263.82 348.22 263.86 348.23 263.95 348.21 263.99 348.21 264.01 348.22 264.02 348.25 264.04 348.29 264.05 348.31 264.07 348.34 264.13 348.37 264.15 348.4 264.22 348.36 264.25 348.33 264.26 348.29 264.28 348.26 264.31 348.23 264.35 348.21 264.38 348.19 264.43 348.18 264.57 348.19 264.68 348.17 264.72 348.17 264.73 348.21 264.69 348.24 264.61 348.25 264.59 348.29 264.59 348.34 264.59 348.36 264.6 348.38 264.62 348.39 264.63 348.37 264.63 348.31 264.64 348.27 264.65 348.26 264.67 348.25 264.69 348.25 264.72 348.25 264.74 348.24 264.75 348.23 264.75 348.21 264.76 348.19 264.77 348.17 264.8 348.15 264.8 348.12 264.81 348.07 264.81 348.05 264.81 348.03 264.82 348.02 264.84 348.01 264.88 348.02 264.92 348.01 264.97 348 265.19 347.97 265.47 347.94 265.51 347.97 265.52 347.99 265.55 348.02 265.59 348.04 265.61 348.05 265.66 348.06 265.79 348.07 265.94 348.1 265.98 348.1 265.98 348.09 266.01 348.04 266.05 347.99 266.11 347.9 266.18 347.87 266.56 347.9 266.65 347.92 266.74 347.96 266.81 348.01 266.86 348.03 266.95 348.05 Z M 258.94 331.96 258.94 331.97 258.93 331.96 258.92 331.95 258.93 331.95 258.94 331.95 258.94 331.96 Z" fill-rule="evenodd" id="Venezuela" transform="translate(-237.32000732421875,-331.95001220703125) "/></svg>