<svg xmlns="http://www.w3.org/2000/svg" viewBox="0 0 16.29998779296875 34.010009765625"><path d="M 636.45 347.61 636.44 347.61 636.42 347.61 636.43 347.62 636.43 347.63 636.44 347.64 636.38 347.65 636.38 347.67 636.41 347.7 636.42 347.73 636.39 347.72 636.37 347.72 636.35 347.73 636.32 347.73 636.3 347.74 636.3 347.76 636.3 347.79 636.3 347.81 636.3 347.82 636.3 347.83 636.3 347.84 636.26 347.84 636.25 347.83 636.21 347.78 636.21 347.77 636.23 347.72 636.29 347.66 636.36 347.61 636.43 347.58 636.44 347.59 636.44 347.59 636.45 347.6 636.45 347.61 Z M 635.43 345.68 635.46 345.7 635.59 345.73 635.61 345.75 635.61 345.81 635.6 345.85 635.57 345.87 635.51 345.87 635.51 345.85 635.52 345.81 635.49 345.77 635.44 345.72 635.4 345.7 635.39 345.72 635.42 345.76 635.46 345.79 635.47 345.8 635.43 345.81 635.4 345.79 635.33 345.67 635.27 345.6 635.25 345.56 635.24 345.52 635.23 345.48 635.21 345.44 635.16 345.38 635.17 345.36 635.18 345.38 635.19 345.38 635.2 345.39 635.31 345.55 635.42 345.65 635.43 345.68 Z M 636.17 345.19 636.15 345.21 636.12 345.19 636.07 345.11 636.01 345.08 635.9 344.98 635.9 344.97 635.91 344.97 635.95 344.98 636.04 345.05 636.07 345.07 636.14 345.15 636.17 345.19 Z M 636.6 344.32 636.57 344.32 636.56 344.31 636.54 344.29 636.5 344.27 636.21 344.21 636.1 344.17 636.14 344.17 636.21 344.2 636.27 344.21 636.52 344.21 636.57 344.23 636.62 344.24 636.64 344.25 636.65 344.28 636.63 344.3 636.6 344.32 Z M 630.54 343.82 630.57 343.85 630.55 343.83 630.72 344 630.72 344.04 630.72 344.28 630.64 344.49 630.61 344.62 630.65 344.68 630.63 344.72 630.63 344.75 630.64 344.77 630.65 344.81 630.61 344.79 630.6 344.78 630.56 344.76 630.53 344.66 630.5 344.48 630.44 344.31 630.39 344.24 630.33 344.18 630.25 344.14 630.22 344.11 630.2 344.02 630.19 344 630.2 343.99 630.34 344.01 630.39 344.01 630.41 343.99 630.41 343.98 630.43 343.95 630.44 343.94 630.46 343.93 630.47 343.91 630.47 343.88 630.48 343.86 630.5 343.84 630.52 343.82 630.54 343.82 Z M 637.63 343.85 637.65 343.88 637.64 343.87 637.63 343.87 637.63 343.87 637.62 343.86 637.6 343.86 637.6 343.89 637.58 343.9 637.57 343.91 637.55 343.96 637.53 343.97 637.48 343.98 637.45 344.01 637.41 344.08 637.38 344.11 637.35 344 637.36 343.96 637.45 343.93 637.52 343.9 637.53 343.89 637.53 343.86 637.54 343.83 637.55 343.81 637.56 343.79 637.63 343.85 Z M 637.07 343.7 637.06 343.76 637.01 343.88 637.03 343.88 637.04 343.85 637.09 343.88 637.11 343.9 637.13 343.92 637.02 343.95 636.98 343.97 636.95 344 636.93 344 636.93 343.96 636.92 343.93 636.91 343.9 636.9 343.88 636.91 343.84 636.94 343.79 636.95 343.75 636.93 343.75 636.93 343.79 636.92 343.73 636.94 343.7 636.98 343.68 637.02 343.66 637.07 343.7 Z M 641.54 343.67 641.53 343.71 641.48 343.7 641.46 343.68 641.45 343.64 641.46 343.61 641.49 343.6 641.53 343.63 641.54 343.67 Z M 637.01 343.53 637.02 343.56 637.03 343.58 637.03 343.6 637.01 343.62 637 343.61 636.99 343.59 636.97 343.54 636.95 343.54 636.96 343.57 636.98 343.61 636.98 343.64 636.97 343.66 636.94 343.65 636.91 343.63 636.89 343.62 636.89 343.61 636.86 343.57 636.86 343.57 636.86 343.55 636.88 343.53 636.89 343.52 636.9 343.47 636.89 343.45 636.86 343.43 636.86 343.42 636.88 343.41 636.91 343.41 636.93 343.41 636.94 343.43 636.99 343.46 637 343.48 637.01 343.48 637.02 343.49 637.03 343.49 637.03 343.51 637.02 343.52 637.01 343.52 637.01 343.53 Z M 636.88 343.74 636.9 343.79 636.9 343.8 636.87 343.79 636.84 343.78 636.81 343.77 636.78 343.79 636.8 343.79 636.8 343.79 636.8 343.79 636.81 343.79 636.85 343.82 636.87 343.86 636.87 343.91 636.83 343.92 636.78 343.9 636.72 343.85 636.67 343.79 636.65 343.74 636.64 343.7 636.64 343.68 636.65 343.62 636.65 343.61 636.64 343.6 636.63 343.56 636.64 343.56 636.68 343.55 636.69 343.54 636.71 343.48 636.69 343.43 636.63 343.34 636.68 343.34 636.71 343.35 636.72 343.37 636.75 343.4 636.76 343.41 636.82 343.43 636.85 343.46 636.86 343.49 636.86 343.52 636.84 343.54 636.83 343.55 636.83 343.58 636.83 343.59 636.86 343.62 636.87 343.63 636.89 343.65 636.9 343.68 636.88 343.7 636.83 343.71 636.83 343.72 636.86 343.73 636.88 343.74 Z M 642.34 339.85 642.36 339.85 642.38 339.86 642.38 339.88 642.39 339.89 642.38 339.9 642.36 339.92 642.34 339.92 642.33 339.91 642.32 339.9 642.3 339.9 642.28 339.91 642.29 339.91 642.29 339.91 642.29 339.91 642.3 339.92 642.25 339.92 642.21 339.9 642.18 339.87 642.16 339.85 642.16 339.83 642.18 339.84 642.21 339.84 642.22 339.85 642.22 339.84 642.22 339.81 642.26 339.83 642.34 339.85 Z M 642.51 339.06 642.5 339.09 642.47 339.08 642.39 339.02 642.37 339 642.36 338.99 642.33 338.98 642.31 338.96 642.33 338.93 642.38 338.92 642.43 338.93 642.47 338.94 642.48 338.96 642.49 338.99 642.51 339.03 642.51 339.06 Z M 638.04 320.09 638.03 320.12 638.03 320.13 638.02 320.11 638 320.1 637.98 320.11 637.96 320.1 637.94 320.05 637.94 320.02 637.95 320.02 637.97 320.05 638 320.06 638.03 320.08 638.04 320.09 Z M 637.17 320 637.19 320.02 637.21 320.02 637.21 319.98 637.23 319.98 637.26 319.99 637.29 320.01 637.29 320.02 637.28 320.05 637.31 320.07 637.34 320.07 637.36 320.07 637.38 320.07 637.39 320.09 637.4 320.1 637.41 320.11 637.42 320.12 637.38 320.11 637.36 320.1 637.36 320.12 637.37 320.13 637.38 320.14 637.39 320.15 637.37 320.15 637.35 320.13 637.33 320.09 637.32 320.11 637.32 320.13 637.33 320.14 637.35 320.15 637.35 320.17 637.32 320.18 637.3 320.18 637.28 320.17 637.25 320.15 637.27 320.2 637.33 320.24 637.35 320.28 637.33 320.28 637.33 320.27 637.32 320.27 637.31 320.31 637.29 320.35 637.29 320.3 637.27 320.3 637.26 320.31 637.25 320.31 637.25 320.3 637.24 320.31 637.23 320.3 637.22 320.3 637.22 320.28 637.27 320.28 637.27 320.27 637.26 320.26 637.26 320.26 637.26 320.26 637.25 320.25 637.24 320.25 637.24 320.27 637.22 320.27 637.22 320.25 637.2 320.24 637.19 320.23 637.18 320.23 637.19 320.26 637.19 320.27 637.19 320.28 637.15 320.25 637.1 320.18 637.07 320.15 637.01 320.11 636.98 320.08 636.99 320.03 637.04 320.02 637.06 320.01 637.07 319.99 637.06 319.97 637.07 319.96 637.09 319.94 637.07 319.96 637.1 319.99 637.17 320 Z M 637.95 319.91 637.96 319.92 637.97 319.92 637.99 319.91 638.03 319.91 638.05 319.92 638.06 319.94 638.05 319.95 638.05 319.95 638.05 319.96 638.05 319.96 638.04 319.97 638.01 319.98 638 319.98 637.98 319.98 637.97 319.97 637.94 319.94 637.94 319.94 637.93 319.94 637.92 319.93 637.92 319.91 637.94 319.91 637.95 319.91 Z M 636.83 319.93 636.84 319.97 636.92 320.07 636.93 320.13 636.9 320.15 636.86 320.14 636.85 320.13 636.83 320.09 636.79 320 636.78 319.94 636.77 319.96 636.77 319.98 636.77 320 636.78 320.02 636.77 320.02 636.74 320 636.7 320 636.67 319.98 636.66 319.94 636.68 319.87 636.71 319.81 636.79 319.85 636.82 319.88 636.83 319.93 Z M 638.24 320.09 638.21 320.09 638.25 320.01 638.25 319.97 638.23 319.94 638.23 319.93 638.27 319.92 638.3 319.92 638.33 319.9 638.35 319.86 638.4 319.75 638.41 319.72 638.42 319.72 638.42 319.73 638.42 319.75 638.41 319.8 638.39 319.84 638.29 320 638.27 320.02 638.26 320.07 638.24 320.09 Z M 638.94 319.67 638.94 319.68 638.92 319.67 638.91 319.67 638.9 319.67 638.91 319.71 638.89 319.75 638.86 319.78 638.82 319.8 638.86 319.72 638.87 319.69 638.85 319.68 638.83 319.66 638.82 319.64 638.84 319.6 638.86 319.61 638.94 319.67 Z M 639.02 319.68 639 319.68 638.99 319.64 639.01 319.59 639.05 319.57 639.08 319.57 639.07 319.6 639.06 319.62 639.02 319.68 Z M 638.36 319.55 638.36 319.6 638.39 319.57 638.41 319.56 638.42 319.57 638.41 319.6 638.38 319.68 638.36 319.77 638.34 319.8 638.32 319.83 638.29 319.85 638.25 319.86 638.2 319.86 638.1 319.89 638.06 319.89 638.06 319.88 638.12 319.85 638.18 319.82 638.23 319.78 638.27 319.73 638.27 319.71 638.27 319.67 638.3 319.6 638.31 319.61 638.34 319.62 638.34 319.6 638.36 319.55 Z M 638.49 319.63 638.47 319.69 638.42 319.68 638.45 319.67 638.45 319.66 638.44 319.64 638.44 319.61 638.45 319.59 638.48 319.56 638.49 319.53 638.49 319.48 638.49 319.46 638.5 319.44 638.51 319.43 638.56 319.38 638.58 319.37 638.58 319.37 638.58 319.39 638.5 319.56 638.49 319.63 Z M 638.36 319.17 638.36 319.18 638.38 319.18 638.39 319.17 638.47 319.15 638.52 319.13 638.53 319.14 638.52 319.17 638.49 319.19 638.42 319.24 638.4 319.28 638.38 319.28 638.35 319.27 638.3 319.32 638.23 319.42 638.2 319.44 638.15 319.46 638.12 319.47 638.04 319.54 638.01 319.51 638.02 319.46 638.06 319.4 638.08 319.35 638.08 319.32 638.1 319.26 638.11 319.19 638.13 319.19 638.14 319.21 638.15 319.2 638.15 319.18 638.16 319.17 638.18 319.17 638.17 319.15 638.17 319.11 638.17 319.05 638.18 319.02 638.18 319.01 638.19 319 638.2 319 638.21 319 638.22 319 638.23 319 638.25 319.02 638.3 319.09 638.32 319.1 638.33 319.1 638.34 319.11 638.35 319.13 638.35 319.14 638.35 319.16 638.36 319.17 Z M 638.98 318.83 638.76 318.92 638.77 318.92 638.79 318.89 638.92 318.81 638.96 318.79 638.99 318.8 638.99 318.8 639 318.81 639 318.82 638.99 318.83 638.98 318.83 Z M 639.4 318.71 639.31 318.77 639.28 318.78 639.26 318.76 639.24 318.76 639.23 318.77 639.08 318.82 639.05 318.83 639.05 318.8 639.06 318.78 639.08 318.8 639.08 318.81 639.09 318.79 639.1 318.78 639.12 318.77 639.07 318.76 639.02 318.78 639.02 318.76 639.09 318.74 639.11 318.73 639.4 318.7 639.4 318.71 Z M 639.38 318.5 639.33 318.53 639.29 318.58 639.24 318.6 639.21 318.57 639.21 318.54 639.23 318.53 639.24 318.52 639.24 318.51 639.24 318.49 639.24 318.48 639.23 318.47 639.23 318.46 639.22 318.43 639.2 318.41 639.17 318.39 639.14 318.39 639.14 318.41 639.14 318.42 639.12 318.44 639.11 318.44 639.1 318.4 639.08 318.42 639.06 318.48 639.04 318.5 639.02 318.48 639.01 318.45 639.02 318.41 639 318.41 638.99 318.42 638.99 318.44 639 318.45 639 318.45 639 318.48 638.99 318.48 638.97 318.45 638.96 318.47 638.95 318.42 638.92 318.41 638.88 318.42 638.85 318.44 638.85 318.45 638.89 318.45 638.91 318.46 638.93 318.48 638.94 318.52 638.91 318.5 638.91 318.52 638.92 318.55 638.93 318.57 638.9 318.57 638.88 318.57 638.87 318.59 638.86 318.6 638.88 318.61 638.84 318.68 638.8 318.68 638.78 318.68 638.77 318.69 638.76 318.71 638.73 318.71 638.7 318.7 638.68 318.68 638.67 318.68 638.66 318.69 638.65 318.7 638.65 318.71 638.67 318.74 638.65 318.76 638.62 318.76 638.59 318.74 638.6 318.76 638.6 318.76 638.6 318.77 638.61 318.78 638.61 318.79 638.59 318.8 638.58 318.81 638.59 318.83 638.61 318.84 638.59 318.84 638.56 318.86 638.57 318.86 638.57 318.86 638.57 318.86 638.58 318.87 638.57 318.87 638.53 318.86 638.52 318.92 638.51 318.94 638.49 318.96 638.46 318.95 638.43 318.95 638.41 318.93 638.4 318.91 638.39 318.88 638.38 318.85 638.37 318.83 638.34 318.83 638.34 318.84 638.35 318.86 638.36 318.89 638.35 318.91 638.35 318.92 638.37 318.94 638.35 318.94 638.3 318.95 638.26 318.94 638.25 318.94 638.23 318.93 638.21 318.92 638.2 318.9 638.18 318.89 638.1 318.87 638.09 318.91 638.11 318.92 638.17 318.96 638.17 318.97 638.12 318.99 638.05 318.99 638 319 638 319.02 638.01 319.04 638.01 319.05 637.99 319.07 637.98 319.09 637.98 319.17 637.97 319.2 637.99 319.21 638.01 319.22 638.02 319.22 638.04 319.21 638.03 319.32 638.02 319.38 637.98 319.41 638 319.43 638 319.44 637.99 319.45 637.97 319.46 637.98 319.49 637.98 319.53 637.99 319.56 638.01 319.57 638.01 319.59 637.98 319.61 637.95 319.63 637.92 319.64 637.87 319.64 637.83 319.64 637.8 319.65 637.77 319.64 637.73 319.64 637.68 319.65 637.65 319.67 637.66 319.67 637.67 319.68 637.68 319.68 637.7 319.68 637.7 319.7 637.66 319.71 637.61 319.76 637.62 319.8 637.59 319.8 637.56 319.81 637.54 319.81 637.51 319.8 637.51 319.81 637.48 319.78 637.37 319.76 637.33 319.75 637.33 319.73 637.39 319.65 637.51 319.57 637.51 319.55 637.48 319.56 637.46 319.56 637.43 319.57 637.41 319.59 637.4 319.6 637.39 319.62 637.39 319.63 637.37 319.64 637.36 319.63 637.36 319.61 637.37 319.59 637.38 319.59 637.37 319.58 637.37 319.58 637.36 319.57 637.34 319.61 637.32 319.63 637.31 319.62 637.32 319.57 637.3 319.57 637.3 319.6 637.3 319.62 637.29 319.64 637.29 319.65 637.29 319.62 637.28 319.59 637.27 319.57 637.24 319.57 637.24 319.59 637.25 319.59 637.26 319.61 637.27 319.62 637.26 319.62 637.24 319.62 637.27 319.65 637.24 319.65 637.22 319.64 637.18 319.6 637.17 319.64 637.23 319.68 637.24 319.72 637.22 319.75 637.19 319.77 637.14 319.77 637.1 319.77 637.07 319.76 637.03 319.75 637 319.73 636.98 319.72 636.93 319.67 636.9 319.66 636.89 319.68 636.88 319.67 636.87 319.67 636.86 319.67 636.92 319.74 636.95 319.77 637 319.79 637.01 319.8 637.02 319.81 637.02 319.83 637.03 319.85 637.06 319.86 637.06 319.88 637 319.88 636.97 319.87 636.94 319.84 636.92 319.8 636.9 319.8 636.91 319.82 636.91 319.84 636.92 319.85 636.93 319.86 636.89 319.93 636.87 319.91 636.86 319.86 636.81 319.83 636.82 319.82 636.82 319.81 636.81 319.8 636.8 319.8 636.75 319.81 636.7 319.79 636.68 319.75 636.72 319.73 636.76 319.73 636.78 319.72 636.79 319.71 636.78 319.68 636.77 319.67 636.75 319.66 636.74 319.65 636.77 319.62 636.75 319.6 636.74 319.59 636.72 319.59 636.69 319.59 636.7 319.59 636.7 319.61 636.71 319.62 636.66 319.61 636.62 319.59 636.59 319.58 636.54 319.6 636.54 319.62 636.56 319.62 636.56 319.64 636.47 319.6 636.43 319.59 636.39 319.6 636.41 319.61 636.41 319.61 636.48 319.64 636.48 319.65 636.47 319.65 636.42 319.64 636.42 319.65 636.44 319.67 636.45 319.7 636.45 319.72 636.47 319.75 636.49 319.76 636.54 319.76 636.59 319.79 636.62 319.79 636.64 319.8 636.65 319.84 636.64 319.87 636.62 319.9 636.62 319.93 636.6 319.93 636.56 319.88 636.52 319.93 636.54 319.96 636.58 319.98 636.62 320.01 636.64 320.06 636.63 320.11 636.6 320.13 636.56 320.1 636.57 320.15 636.6 320.19 636.64 320.24 636.68 320.27 636.69 320.25 636.72 320.29 636.75 320.41 636.71 320.38 636.69 320.35 636.68 320.34 636.67 320.33 636.64 320.34 636.62 320.35 636.61 320.36 636.59 320.37 636.58 320.37 636.56 320.38 636.53 320.38 636.46 320.36 636.44 320.36 636.44 320.38 636.49 320.4 636.52 320.42 636.53 320.45 636.48 320.49 636.45 320.51 636.42 320.52 636.38 320.53 636.34 320.52 636.32 320.51 636.29 320.46 636.27 320.44 636.28 320.48 636.28 320.48 636.3 320.5 636.33 320.54 636.34 320.55 636.35 320.55 636.36 320.55 636.36 320.58 636.36 320.59 636.35 320.61 636.34 320.62 636.31 320.63 636.26 320.67 636.12 320.73 636.16 320.75 636.19 320.75 636.25 320.72 636.25 320.73 636.23 320.77 636.24 320.8 636.26 320.84 636.25 320.88 636.24 320.88 636.18 320.9 636.17 320.91 636.16 320.92 636.14 320.94 636.13 320.96 636.12 320.98 636.13 320.98 636.16 320.95 636.21 320.93 636.26 320.93 636.28 320.95 636.28 321.05 636.26 321.11 636.24 321.14 636.23 321.11 636.22 321.1 636.22 321.11 636.22 321.12 636.22 321.12 636.21 321.12 636.25 321.16 636.25 321.18 636.26 321.21 636.26 321.25 636.27 321.29 636.28 321.36 636.26 321.38 636.21 321.33 636.19 321.3 636.16 321.28 636.12 321.27 636.08 321.28 636.07 321.28 636.08 321.3 636.09 321.3 636.1 321.31 636.12 321.3 636.13 321.28 636.18 321.32 636.19 321.33 636.2 321.35 636.22 321.39 636.24 321.42 636.23 321.46 636.2 321.47 636.17 321.47 636.14 321.48 636.09 321.49 636.02 321.5 635.99 321.5 635.84 321.52 635.84 321.5 635.86 321.5 635.86 321.49 635.84 321.49 635.83 321.49 635.81 321.5 635.81 321.52 635.83 321.54 635.81 321.55 635.77 321.57 635.75 321.59 635.72 321.65 635.64 321.75 635.6 321.78 635.54 321.86 635.49 321.89 635.44 321.95 635.4 321.97 635.42 321.92 635.43 321.91 635.42 321.89 635.4 321.92 635.37 321.99 635.36 322.02 635.32 322.04 635.24 322.06 635.2 322.08 635.19 322.05 635.2 322.01 635.21 321.97 635.22 321.92 635.2 321.92 635.2 321.96 635.16 322.06 635.15 322.08 635.12 322.08 635.08 322.06 635.05 322.03 635.04 322 635.02 322 635.01 322.03 634.99 322.06 634.89 322.15 634.87 322.18 634.85 322.21 634.85 322.23 634.87 322.27 634.87 322.29 634.82 322.36 634.82 322.39 634.82 322.46 634.81 322.49 634.8 322.48 634.78 322.45 634.76 322.48 634.73 322.5 634.67 322.53 634.69 322.55 634.72 322.54 634.78 322.53 634.81 322.52 634.8 322.55 634.76 322.6 634.75 322.64 634.73 322.65 634.7 322.65 634.67 322.65 634.66 322.69 634.65 322.72 634.6 322.8 634.58 322.84 634.58 322.88 634.58 322.94 634.57 322.97 634.56 322.91 634.53 322.91 634.5 322.93 634.51 322.97 634.51 322.95 634.53 322.93 634.54 322.92 634.55 322.94 634.55 322.96 634.55 322.99 634.56 323 634.57 323 634.57 323.09 634.54 323.26 634.55 323.35 634.52 323.33 634.49 323.4 634.46 323.38 634.46 323.4 634.48 323.42 634.49 323.45 634.51 323.51 634.55 323.59 634.55 323.62 634.51 323.59 634.51 323.61 634.52 323.64 634.54 323.63 634.55 323.64 634.54 323.69 634.54 323.7 634.54 323.7 634.52 323.72 634.5 323.72 634.48 323.72 634.46 323.79 634.43 323.79 634.4 323.79 634.4 323.8 634.37 323.94 634.37 324.03 634.38 324.09 634.33 324.11 634.31 324.13 634.29 324.15 634.23 324.13 634.18 324.19 634.14 324.27 634.11 324.34 634.11 324.37 634.12 324.39 634.13 324.41 634.13 324.44 634.15 324.52 634.16 324.55 634.19 324.59 634.24 324.63 634.29 324.66 634.34 324.68 634.34 324.69 634.31 324.72 634.3 324.7 634.29 324.69 634.27 324.68 634.25 324.68 634.27 324.73 634.28 324.74 634.29 324.75 634.33 324.74 634.35 324.75 634.39 324.8 634.42 324.84 634.43 324.87 634.4 324.96 634.41 324.98 634.43 325 634.43 325.04 634.42 325.09 634.41 325.12 634.46 325.1 634.46 325.05 634.45 324.91 634.44 324.9 634.49 324.93 634.5 324.99 634.5 325.06 634.51 325.09 634.53 325.12 634.58 325.28 634.7 325.48 634.78 325.56 634.85 325.57 634.86 325.61 634.88 325.66 634.9 325.7 634.92 325.73 634.97 325.77 634.98 325.78 635.07 325.89 635.18 325.99 635.21 326.02 635.22 326.05 635.17 326.06 635.2 326.08 635.23 326.07 635.28 326.05 635.33 326.05 635.37 326.06 635.48 326.15 635.5 326.16 635.55 326.18 635.57 326.19 635.63 326.27 635.7 326.32 635.73 326.35 635.75 326.4 635.74 326.4 635.71 326.38 635.68 326.39 635.66 326.41 635.65 326.43 635.67 326.44 635.68 326.44 635.69 326.43 635.72 326.43 635.71 326.46 635.71 326.48 635.74 326.52 635.74 326.49 635.74 326.47 635.75 326.44 635.77 326.43 635.79 326.42 635.8 326.42 635.82 326.43 635.84 326.43 635.86 326.41 635.9 326.36 635.93 326.37 635.93 326.4 635.9 326.44 635.91 326.49 635.94 326.54 636.12 326.76 636.13 326.78 636.13 326.79 636.08 326.82 636.04 326.86 636.02 326.89 636 326.91 635.98 326.93 635.93 326.93 635.93 326.95 635.96 326.96 635.97 326.97 635.96 326.99 635.95 327.02 635.97 327.06 635.99 327.12 636.01 327.24 636.02 327.27 636.06 327.31 636.07 327.33 636.05 327.35 636.03 327.35 635.96 327.32 635.93 327.26 635.91 327.25 635.88 327.25 635.8 327.2 635.65 327.19 635.61 327.17 635.6 327.19 635.63 327.21 635.68 327.23 635.74 327.25 635.81 327.25 635.92 327.28 635.92 327.3 635.9 327.3 635.86 327.28 635.82 327.31 635.81 327.36 635.87 327.39 635.86 327.37 635.85 327.36 635.84 327.35 635.89 327.32 635.96 327.33 636.04 327.36 636.08 327.39 636.11 327.42 636.16 327.52 636.22 327.59 636.33 327.77 636.35 327.85 636.37 327.89 636.38 327.89 636.43 327.92 636.43 327.93 636.44 327.94 636.47 327.98 636.66 328.2 637.07 328.5 637.2 328.6 637.43 328.77 637.47 328.83 637.45 328.93 637.48 328.95 637.6 329.12 637.63 329.14 637.64 329.16 637.63 329.17 637.61 329.17 637.6 329.18 637.59 329.2 637.58 329.21 637.5 329.26 637.5 329.27 637.55 329.27 637.58 329.27 637.6 329.26 637.61 329.25 637.6 329.23 637.6 329.22 637.64 329.19 637.66 329.18 637.68 329.2 637.69 329.22 637.7 329.23 637.74 329.25 638.02 329.49 638.1 329.54 638.29 329.69 638.52 329.9 638.59 329.92 638.59 329.94 638.5 329.91 638.23 329.77 638.17 329.78 638.34 329.88 638.39 329.89 638.41 329.9 638.43 329.93 638.46 329.94 638.48 329.93 638.5 329.92 638.52 329.94 638.54 329.96 638.59 329.98 638.59 330 638.57 329.99 638.56 329.98 638.55 329.98 638.54 329.99 638.54 330 638.53 330.02 638.56 330.02 638.59 330.01 638.65 330 638.64 330.02 638.63 330.03 638.62 330.05 638.62 330.07 638.63 330.07 638.65 330.09 638.66 330.12 638.65 330.13 638.67 330.13 638.69 330.12 638.69 330.1 638.71 330.09 638.73 330.07 638.74 330.09 638.75 330.11 638.76 330.13 638.84 330.18 638.87 330.2 638.92 330.29 638.96 330.31 639 330.38 639.05 330.4 639.04 330.4 639.03 330.41 639.02 330.41 639 330.4 638.99 330.39 638.97 330.38 638.95 330.38 638.94 330.4 638.97 330.53 638.98 330.55 639.01 330.57 639.06 330.6 639.08 330.6 639.1 330.58 639.12 330.59 639.13 330.6 639.14 330.63 639.16 330.61 639.17 330.63 639.25 330.57 639.26 330.55 639.25 330.48 639.24 330.46 639.28 330.45 639.38 330.52 639.43 330.53 639.45 330.52 639.46 330.5 639.47 330.48 639.5 330.47 639.5 330.49 639.52 330.57 639.54 330.61 639.61 330.72 639.55 330.68 639.52 330.67 639.5 330.7 639.52 330.73 639.56 330.74 639.6 330.75 639.62 330.74 639.64 330.74 639.68 330.76 639.74 330.77 639.8 330.77 639.85 330.77 639.84 330.78 639.82 330.81 639.74 330.87 639.72 330.93 639.72 330.99 639.75 331.03 639.8 331.06 639.84 331.1 639.87 331.07 639.89 331.06 639.91 331.06 639.92 331.14 639.93 331.15 639.92 331.18 639.89 331.21 639.87 331.24 639.84 331.26 639.88 331.24 639.92 331.22 639.95 331.21 639.97 331.24 639.95 331.12 639.94 331.09 639.93 331.06 639.95 331.02 639.95 330.98 639.9 330.97 639.9 330.96 639.92 330.94 639.93 330.93 639.94 330.91 639.94 330.9 639.96 330.9 639.96 330.91 639.97 330.91 639.97 330.9 639.99 330.9 640.01 330.91 640.03 330.94 640.07 330.95 640.1 330.96 640.11 330.95 640.12 330.93 640.13 330.91 640.14 330.92 640.15 330.93 640.17 330.96 640.15 330.98 640.12 330.99 640.1 331.01 640.1 331.04 640.08 331.02 640.02 331.03 639.99 331.02 639.97 331.1 639.99 331.19 640.02 331.28 640.03 331.29 640.05 331.34 640.08 331.37 640.2 331.46 640.23 331.48 640.26 331.5 640.28 331.54 640.25 331.54 640.24 331.55 640.23 331.57 640.25 331.57 640.26 331.56 640.28 331.55 640.29 331.54 640.31 331.54 640.32 331.57 640.34 331.71 640.41 331.85 640.77 332.34 640.83 332.38 640.92 332.37 640.9 332.43 640.88 332.45 640.85 332.42 640.83 332.43 640.8 332.44 640.78 332.47 640.79 332.51 640.85 332.55 640.88 332.53 640.93 332.43 640.95 332.43 640.96 332.48 640.96 332.54 640.97 332.55 641.03 332.6 641.04 332.61 641.05 332.62 641.09 332.65 641.1 332.65 641.11 332.67 641.12 332.7 641.11 332.72 641.11 332.75 641.13 332.78 641.12 332.79 641.12 332.8 641.11 332.81 641.13 332.81 641.13 332.8 641.14 332.76 641.16 332.77 641.18 332.77 641.22 332.76 641.22 332.75 641.17 332.74 641.15 332.7 641.16 332.65 641.21 332.62 641.21 332.61 641.19 332.6 641.19 332.59 641.17 332.57 641.19 332.58 641.21 332.58 641.22 332.58 641.23 332.57 641.25 332.61 641.26 332.7 641.27 332.72 641.29 332.72 641.35 332.77 641.36 332.78 641.35 332.87 641.37 332.9 641.42 332.95 641.45 332.97 641.47 332.97 641.5 332.97 641.51 332.98 641.49 333.01 641.47 333.03 641.44 333.04 641.4 333.04 641.4 333.06 641.42 333.06 641.44 333.06 641.45 333.07 641.45 333.09 641.42 333.07 641.41 333.1 641.4 333.17 641.39 333.2 641.35 333.19 641.32 333.19 641.31 333.2 641.33 333.23 641.34 333.23 641.36 333.22 641.38 333.23 641.39 333.25 641.39 333.28 641.4 333.28 641.4 333.26 641.41 333.25 641.42 333.22 641.44 333.42 641.49 333.6 641.63 333.92 641.58 333.92 641.6 333.94 641.64 333.96 641.65 333.98 641.7 334.04 641.71 334.06 641.8 334.17 641.81 334.2 641.83 334.31 641.81 334.3 641.8 334.29 641.79 334.27 641.79 334.3 641.8 334.45 641.81 334.47 641.81 334.49 641.81 334.5 641.79 334.49 641.77 334.52 641.76 334.53 641.75 334.54 641.77 334.57 641.78 334.53 641.78 334.51 641.86 334.72 641.9 334.77 641.91 334.8 641.9 334.92 641.91 334.95 641.92 334.99 641.95 335.06 642.02 335.13 642.04 335.16 642.05 335.2 642.06 335.29 642.04 335.32 642.07 335.4 642.15 335.52 642.1 335.52 642.09 335.5 642.08 335.47 642.05 335.44 642 335.43 642 335.47 642.02 335.52 642.09 335.55 642.12 335.59 642.18 335.75 642.21 336.01 642.23 336.04 642.29 336.08 642.3 336.11 642.28 336.28 642.29 336.37 642.27 336.38 642.21 336.38 642.21 336.36 642.22 336.22 642.19 336.11 642.17 336.07 642.15 336.1 642.14 336.12 642.13 336.21 642.11 336.25 642.11 336.27 642.13 336.25 642.15 336.31 642.16 336.33 642.19 336.33 642.17 336.36 642.14 336.38 642.12 336.41 642.11 336.46 642.14 336.51 642.14 336.51 642.15 336.53 642.15 336.59 642.15 336.63 642.17 336.68 642.19 336.72 642.21 336.74 642.22 336.75 642.24 336.77 642.27 336.78 642.28 336.78 642.29 336.8 642.29 336.82 642.28 336.83 642.25 336.83 642.25 336.84 642.26 336.85 642.27 336.86 642.27 336.89 642.25 336.87 642.2 336.78 642.18 336.73 642.12 336.66 642.1 336.63 642.08 336.63 642.08 336.66 642.09 336.68 642.11 336.69 642.13 336.7 642.14 336.73 642.15 336.77 642.16 336.8 642.19 336.82 642.21 336.84 642.21 336.85 642.2 336.86 642.19 336.86 642.21 336.88 642.25 336.94 642.27 336.94 642.28 336.93 642.29 336.92 642.31 336.91 642.31 336.93 642.29 336.96 642.28 336.98 642.29 337 642.31 337.02 642.33 337.03 642.36 337.01 642.37 337.04 642.35 337.07 642.36 337.09 642.34 337.13 642.32 337.15 642.3 337.17 642.28 337.15 642.23 337.14 642.22 337.11 642.23 337.1 642.26 337.09 642.28 337.08 642.28 337.05 642.27 337.03 642.2 336.98 642.18 336.98 642.16 336.99 642.15 337.01 642.13 337.05 642.14 337.06 642.14 337.08 642.14 337.1 642.16 337.12 642.14 337.14 642.14 337.16 642.13 337.2 642.17 337.22 642.21 337.27 642.24 337.29 642.26 337.27 642.28 337.27 642.3 337.29 642.3 337.32 642.29 337.33 642.28 337.34 642.25 337.34 642.25 337.36 642.26 337.37 642.27 337.38 642.27 337.4 642.27 337.42 642.26 337.41 642.23 337.4 642.22 337.39 642.21 337.41 642.21 337.41 642.19 337.42 642.22 337.49 642.24 337.53 642.27 337.56 642.27 337.49 642.27 337.46 642.3 337.45 642.3 337.43 642.29 337.42 642.29 337.4 642.3 337.4 642.31 337.42 642.32 337.44 642.33 337.46 642.33 337.5 642.32 337.52 642.3 337.57 642.3 337.6 642.31 337.64 642.31 337.68 642.3 337.71 642.29 337.75 642.3 337.79 642.32 337.82 642.34 337.85 642.35 337.88 642.34 337.9 642.37 337.92 642.39 337.94 642.44 338.02 642.5 338.08 642.54 338.15 642.63 338.26 642.65 338.29 642.65 338.32 642.65 338.36 642.64 338.4 642.63 338.42 642.62 338.43 642.58 338.44 642.57 338.44 642.57 338.42 642.58 338.41 642.59 338.4 642.6 338.39 642.61 338.39 642.61 338.38 642.61 338.37 642.59 338.36 642.54 338.39 642.53 338.41 642.52 338.44 642.51 338.46 642.49 338.46 642.47 338.46 642.47 338.46 642.45 338.47 642.43 338.49 642.45 338.5 642.45 338.53 642.45 338.56 642.45 338.6 642.55 338.79 642.58 338.83 642.62 338.83 642.66 338.86 642.66 338.87 642.66 338.88 642.65 338.89 642.63 338.89 642.62 338.9 642.61 338.94 642.62 339.03 642.62 339.06 642.59 339.07 642.57 339.05 642.54 338.98 642.53 338.97 642.52 338.96 642.51 338.95 642.51 338.93 642.52 338.92 642.56 338.89 642.56 338.87 642.51 338.8 642.51 338.82 642.49 338.83 642.48 338.83 642.45 338.83 642.46 338.85 642.46 338.87 642.46 338.88 642.45 338.9 642.44 338.88 642.42 338.87 642.4 338.86 642.37 338.86 642.41 338.8 642.42 338.79 642.43 338.78 642.45 338.77 642.47 338.76 642.48 338.74 642.47 338.71 642.43 338.65 642.42 338.63 642.42 338.56 642.41 338.55 642.39 338.55 642.38 338.57 642.38 338.58 642.37 338.6 642.29 338.65 642.27 338.67 642.21 338.74 642.18 338.77 642.15 338.78 642.13 338.8 642.07 338.89 642.07 338.91 642.08 339 642.06 339.01 642.06 339.05 642.07 339.08 642.07 339.11 642.08 339.11 642.08 339.11 642.09 339.11 642.08 339.12 642.1 339.12 642.11 339.1 642.11 339.07 642.12 339.05 642.15 339.04 642.15 339.03 642.13 339.03 642.13 339.01 642.17 339.03 642.16 339.06 642.14 339.09 642.13 339.13 642.14 339.17 642.17 339.2 642.28 339.27 642.29 339.29 642.27 339.33 642.27 339.36 642.28 339.37 642.29 339.38 642.32 339.39 642.36 339.42 642.38 339.45 642.36 339.48 642.37 339.49 642.36 339.51 642.33 339.48 642.32 339.5 642.3 339.53 642.28 339.55 642.24 339.54 642.22 339.52 642.19 339.46 642.09 339.35 642.03 339.31 641.96 339.32 641.97 339.33 641.99 339.36 641.99 339.37 641.97 339.36 641.96 339.35 641.95 339.35 641.96 339.38 641.99 339.42 642.01 339.45 642.05 339.44 642.07 339.47 642.08 339.53 642.08 339.58 642.09 339.6 642.11 339.62 642.12 339.64 642.15 339.66 642.15 339.68 642.14 339.69 642.11 339.68 642.1 339.68 642.09 339.69 642.07 339.75 642.02 339.73 642.01 339.72 642.02 339.74 642.04 339.76 642.08 339.78 642.07 339.82 642.08 339.85 642.1 339.87 642.11 339.89 642.06 339.88 642.03 339.88 642.03 339.91 642.04 339.89 642.04 339.89 642.07 339.91 642.08 339.93 642.08 339.96 642.09 339.97 642.09 339.98 642.09 339.99 642.11 340.01 642.12 340.03 642.11 340.05 642.08 340.08 642.08 340.1 642.09 340.19 642.11 340.23 642.17 340.35 642.19 340.37 642.25 340.42 642.25 340.43 642.25 340.47 642.25 340.48 642.21 340.51 642.21 340.55 642.22 340.58 642.24 340.61 642.27 340.62 642.27 340.63 642.23 340.65 642.2 340.65 642.17 340.63 642.15 340.6 642.14 340.61 642.12 340.61 642.11 340.62 642.1 340.55 642.11 340.39 642.08 340.31 642.1 340.31 642.05 340.18 642.03 340.08 642.01 340.05 641.98 340.09 642.01 340.15 642.02 340.15 642.02 340.16 642.01 340.23 642.02 340.25 642.07 340.3 642.08 340.33 642.08 340.4 642.06 340.46 642.02 340.52 641.96 340.57 641.92 340.58 641.9 340.65 641.91 340.73 641.98 340.74 641.99 340.72 642.02 340.68 642.06 340.64 642.07 340.64 642.06 340.67 642.05 340.7 642.04 340.73 642.07 340.77 642.07 340.82 642.07 340.83 642.16 340.94 642.13 340.99 642.11 340.97 642.1 340.99 642.08 341.03 642.04 341.08 642.04 341.1 642.03 341.12 642.03 341.16 642.01 341.17 641.97 341.21 641.96 341.23 641.96 341.25 641.95 341.28 641.92 341.31 641.9 341.31 641.88 341.29 641.84 341.29 641.81 341.29 641.77 341.28 641.74 341.25 641.72 341.17 641.71 341.16 641.66 341.17 641.66 341.2 641.69 341.23 641.71 341.24 641.7 341.27 641.69 341.3 641.69 341.34 641.71 341.37 641.66 341.37 641.64 341.37 641.68 341.43 641.68 341.53 641.66 341.68 641.67 341.77 641.66 341.79 641.63 341.82 641.57 341.86 641.54 341.89 641.51 341.9 641.47 341.89 641.37 341.85 641.34 341.84 641.3 341.84 641.26 341.85 641.22 341.86 641.15 341.92 641.12 341.94 641.1 341.97 641.08 342.01 641.05 342.13 641.04 342.17 641.02 342.18 640.99 342.19 640.95 342.19 640.93 342.18 640.88 342.16 640.85 342.16 640.83 342.16 640.79 342.18 640.76 342.19 640.68 342.19 640.67 342.2 640.64 342.23 640.58 342.25 640.54 342.28 640.51 342.32 640.49 342.36 640.47 342.45 640.45 342.47 640.39 342.48 640.37 342.49 640.29 342.53 640.27 342.53 640.23 342.53 640.22 342.54 640.2 342.57 640.18 342.67 640.16 342.69 640.12 342.7 640.1 342.72 640.07 342.79 640.05 342.79 640.03 342.72 639.97 342.7 639.7 342.75 639.64 342.77 639.61 342.81 639.6 342.83 639.55 342.89 639.53 342.92 639.53 342.95 639.5 343.01 639.48 343.1 639.4 343.27 639.38 343.27 639.36 343.25 639.26 343.22 639.22 343.22 639.17 343.22 639.14 343.23 639.01 343.28 638.92 343.36 638.89 343.38 638.8 343.4 638.66 343.48 638.61 343.49 638.56 343.5 638.48 343.55 638.47 343.55 638.45 343.57 638.39 343.63 638.38 343.65 638.36 343.68 638.32 343.71 638.18 343.77 638.14 343.78 638.04 343.79 637.95 343.82 637.92 343.82 637.91 343.84 637.84 343.9 637.79 343.98 637.75 343.98 637.66 343.93 637.6 343.92 637.62 343.9 637.63 343.9 637.65 343.89 637.67 343.88 637.66 343.86 637.65 343.84 637.64 343.82 637.63 343.82 637.62 343.81 637.57 343.76 637.56 343.76 637.54 343.76 637.51 343.76 637.5 343.75 637.5 343.79 637.48 343.79 637.46 343.76 637.41 343.73 637.36 343.73 637.33 343.75 637.32 343.75 637.32 343.73 637.32 343.72 637.32 343.69 637.3 343.74 637.28 343.76 637.25 343.77 637.24 343.73 637.24 343.71 637.21 343.72 637.19 343.74 637.18 343.75 637.16 343.75 637.17 343.72 637.19 343.7 637.21 343.69 637.22 343.69 637.24 343.68 637.26 343.65 637.26 343.63 637.25 343.47 637.25 343.46 637.22 343.43 637.21 343.4 637.22 343.41 637.24 343.42 637.24 343.41 637.24 343.36 637.21 343.32 637.15 343.27 637.14 343.3 637.16 343.32 637.19 343.34 637.21 343.36 637.19 343.42 637.19 343.45 637.22 343.46 637.24 343.48 637.23 343.52 637.21 343.57 637.22 343.59 637.23 343.6 637.24 343.61 637.24 343.63 637.23 343.64 637.21 343.62 637.18 343.6 637.19 343.59 637.16 343.55 637.16 343.54 637.18 343.52 637.18 343.49 637.18 343.43 637.16 343.43 637.15 343.49 637.15 343.56 637.17 343.62 637.21 343.66 637.19 343.67 637.17 343.68 637.12 343.77 637.1 343.79 637.09 343.78 637.09 343.76 637.1 343.73 637.1 343.71 637.09 343.69 637.08 343.67 637.07 343.67 637.06 343.65 637.05 343.6 637.05 343.56 637.06 343.49 636.94 343.39 636.92 343.37 636.89 343.39 636.85 343.41 636.8 343.42 636.78 343.4 636.77 343.37 636.74 343.34 636.73 343.32 636.71 343.31 636.68 343.29 636.67 343.3 636.67 343.3 636.62 343.32 636.61 343.33 636.6 343.36 636.62 343.37 636.64 343.38 636.65 343.4 636.65 343.42 636.68 343.48 636.67 343.51 636.66 343.52 636.65 343.53 636.63 343.54 636.62 343.58 636.62 343.59 636.61 343.62 636.59 343.66 636.56 343.68 636.49 343.7 636.46 343.7 636.44 343.66 636.42 343.66 636.43 343.7 636.44 343.71 636.45 343.72 636.42 343.73 636.4 343.74 636.38 343.76 636.36 343.8 636.34 343.82 636.31 343.83 636.28 343.85 636.29 343.81 636.28 343.78 636.27 343.76 636.25 343.74 636.26 343.82 636.27 343.85 636.29 343.86 636.33 343.85 636.36 343.83 636.39 343.8 636.41 343.77 636.42 343.77 636.43 343.8 636.44 343.84 636.45 343.86 636.5 343.86 636.51 343.84 636.55 343.78 636.57 343.77 636.61 343.78 636.63 343.82 636.65 343.85 636.67 343.89 636.7 343.92 636.71 343.95 636.73 344.14 636.72 344.19 636.69 344.21 636.64 344.21 636.53 344.18 636.29 344.18 636.13 344.15 636.05 344.15 636 344.14 635.97 344.12 635.94 344.11 635.9 344.12 636.03 344.2 636.56 344.38 636.58 344.39 636.61 344.42 636.63 344.43 636.64 344.43 636.65 344.44 636.66 344.46 636.69 344.46 636.71 344.46 636.72 344.47 636.73 344.48 636.74 344.5 636.73 344.55 636.72 344.58 636.6 344.71 636.56 344.73 636.53 344.72 636.54 344.7 636.54 344.68 636.54 344.66 636.53 344.64 636.51 344.64 636.5 344.68 636.5 344.69 636.47 344.72 636.45 344.74 636.45 344.76 636.46 344.76 636.47 344.78 636.48 344.8 636.47 344.81 636.44 344.82 636.43 344.83 636.43 344.84 636.42 344.86 636.41 344.88 636.41 344.89 636.4 344.89 636.31 344.89 636.28 344.87 636.25 344.85 636.21 344.82 636.18 344.8 636.07 344.75 636.01 344.7 635.95 344.63 635.76 344.34 635.7 344.27 635.61 344.24 635.63 344.26 635.64 344.26 635.65 344.27 635.72 344.32 635.74 344.35 635.76 344.44 635.78 344.48 635.99 344.75 636.04 344.8 636.21 344.88 636.33 344.97 636.45 345.03 636.49 345.04 636.51 345.06 636.5 345.11 636.48 345.15 636.45 345.18 636.45 345.16 636.46 345.15 636.47 345.13 636.46 345.11 636.45 345.09 636.44 345.09 636.42 345.17 636.38 345.22 636.32 345.24 636.27 345.23 636.22 345.18 636.08 345.04 636.03 345 635.84 344.89 635.29 344.32 635.27 344.31 635.25 344.29 635.24 344.29 635.23 344.3 635.22 344.31 635.23 344.32 635.25 344.33 635.27 344.34 635.32 344.39 635.33 344.43 635.35 344.5 635.37 344.53 635.4 344.56 635.44 344.61 635.51 344.66 635.59 344.72 635.61 344.74 635.63 344.76 635.65 344.79 635.66 344.81 635.77 344.92 635.79 344.93 635.83 344.98 636.02 345.14 636.08 345.2 636.12 345.27 636.14 345.36 636.16 345.39 636.21 345.39 636.24 345.41 636.25 345.45 636.25 345.5 636.24 345.62 636.22 345.69 636.17 345.76 636.12 345.81 636.07 345.84 636.04 345.84 636.02 345.83 636 345.82 635.97 345.83 635.94 345.85 635.85 345.85 635.82 345.84 635.71 345.76 635.52 345.65 635.11 345.27 634.9 345.01 634.82 344.93 634.75 344.88 634.68 344.86 634.61 344.82 634.57 344.81 634.61 344.88 634.75 345.02 635.13 345.39 635.14 345.43 635.15 345.47 635.17 345.52 635.4 345.85 635.42 345.89 635.43 345.92 635.43 346.01 635.42 346.04 635.34 346.13 635.36 346.15 635.38 346.16 635.4 346.17 635.4 346.2 635.4 346.24 635.37 346.25 635.31 346.27 635.01 346.36 634.67 346.49 634.43 346.59 633.94 346.77 633.89 346.82 633.79 346.92 633.73 346.97 633.71 347 633.7 347.04 633.69 347.04 633.67 347.05 633.65 347.06 633.65 347.07 633.66 347.1 633.65 347.11 633.49 347.42 633.45 347.48 633.4 347.53 633.32 347.6 633.23 347.61 633.16 347.64 633.09 347.72 633.03 347.82 632.97 347.88 632.83 347.92 632.43 348.03 632.38 348.02 632.37 348.01 632.36 348 632.34 347.99 632.2 347.97 632.15 347.95 632.14 347.95 632.13 347.92 632.15 347.92 632.17 347.93 632.22 347.92 632.33 347.85 632.35 347.83 632.37 347.83 632.38 347.82 632.39 347.79 632.38 347.77 632.36 347.76 632.35 347.75 632.38 347.73 632.41 347.73 632.55 347.76 632.59 347.76 632.62 347.74 632.65 347.71 632.67 347.69 632.62 347.71 632.54 347.73 632.48 347.73 632.42 347.7 632.41 347.68 632.42 347.67 632.45 347.66 632.49 347.66 632.54 347.66 632.56 347.65 632.59 347.62 632.59 347.61 632.57 347.57 632.56 347.53 632.58 347.49 632.44 347.55 632.34 347.57 632.29 347.54 632.25 347.47 632.27 347.38 632.3 347.3 632.33 347.2 632.33 347.12 632.32 346.96 632.33 346.77 632.35 346.63 632.36 346.3 632.36 346.17 632.38 345.91 632.39 345.82 632.43 345.42 632.47 345.29 632.51 345.16 632.62 345.17 632.68 345.16 632.7 345.12 632.74 345.08 632.87 344.98 632.92 344.96 632.94 344.97 632.95 345.01 633 345.15 633 345.12 632.99 345.03 632.99 344.94 632.97 344.89 632.94 344.84 632.84 344.71 632.76 344.62 632.71 344.6 632.67 344.59 632.58 344.61 632.53 344.61 632.46 344.57 632.41 344.5 632.36 344.43 632.32 344.37 632.24 344.32 632.17 344.31 632.1 344.33 632.04 344.38 632.04 344.41 632.04 344.42 632.03 344.44 632.01 344.44 631.99 344.45 631.98 344.5 631.98 344.51 631.9 344.5 631.89 344.51 631.88 344.49 631.88 344.47 631.89 344.46 631.89 344.43 631.88 344.41 631.85 344.38 631.85 344.36 631.85 344.3 631.84 344.25 631.82 344.22 631.76 344.17 631.75 344.18 631.74 344.19 631.74 344.2 631.72 344.2 631.72 344.14 631.7 344.09 631.65 344.03 631.64 344 631.65 344 631.66 344 631.68 343.98 631.7 343.96 631.71 343.94 631.71 343.92 631.7 343.89 631.68 343.89 631.66 343.93 631.64 343.95 631.61 343.97 631.57 343.98 631.54 343.98 631.54 343.96 631.54 343.92 631.53 343.89 631.57 343.9 631.61 343.9 631.63 343.87 631.72 343.74 631.74 343.7 631.76 343.67 631.79 343.65 631.82 343.64 631.92 343.64 632.09 343.66 632.14 343.66 632.25 343.68 632.35 343.67 632.43 343.64 632.48 343.59 632.57 343.45 632.6 343.42 632.63 343.39 632.84 343.28 632.9 343.23 632.9 343.16 632.82 343.01 632.78 342.93 632.78 342.85 632.79 342.82 632.81 342.78 632.84 342.76 632.84 342.76 632.87 342.74 632.92 342.71 632.94 342.72 632.94 342.75 632.97 342.78 633 342.79 633.21 342.83 633.31 342.85 633.35 342.87 633.42 342.94 633.45 342.95 633.48 342.93 633.54 342.8 633.63 342.69 633.66 342.67 633.67 342.68 633.73 342.7 633.78 342.72 633.8 342.72 633.91 342.7 634.12 342.66 634.15 342.65 634.2 342.63 634.24 342.6 634.24 342.6 634.3 342.57 634.36 342.55 634.42 342.56 634.46 342.6 634.5 342.67 634.57 342.77 634.59 342.81 634.61 342.88 634.63 342.92 634.66 342.95 634.7 342.98 634.74 342.98 634.76 342.95 634.79 342.91 634.81 342.86 634.81 342.82 634.89 342.88 634.91 342.91 634.95 342.95 635.01 343 635.07 343.03 635.13 343.05 635.25 343.06 635.31 343.07 635.36 343.11 635.3 342.9 635.25 342.8 635.24 342.76 635.24 342.75 635.24 342.7 635.24 342.69 635.25 342.67 635.26 342.66 635.3 342.66 635.34 342.66 635.37 342.66 635.38 342.64 635.36 342.6 635.32 342.47 635.3 342.43 635.26 342.4 635.22 342.4 635.18 342.42 635.16 342.46 635.14 342.42 635.11 342.38 635.03 342.32 635 342.28 634.94 342.19 634.91 342.16 634.79 342.14 634.74 342.1 634.72 342.04 634.72 342.04 634.72 341.99 634.69 341.97 634.65 341.96 634.62 341.94 634.62 341.91 634.66 341.74 634.68 341.66 634.69 341.63 634.68 341.6 634.65 341.48 634.65 341.42 634.65 341.39 634.64 341.36 634.62 341.35 634.56 341.33 634.53 341.32 634.51 341.28 634.5 341.27 634.51 341.23 634.53 341.19 634.56 341.16 634.57 341.15 634.61 341.11 634.65 341.11 634.76 341.14 634.82 341.15 634.85 341.12 634.87 341.07 634.93 341 634.94 340.98 634.95 340.95 634.95 340.92 635 340.86 635.1 340.88 635.22 340.91 635.31 340.92 635.46 340.96 635.51 340.99 635.52 341.01 635.55 341.06 635.57 341.07 635.6 341.08 635.73 341.04 635.75 341.04 635.77 341.05 635.8 341.06 635.85 341.09 635.88 341.11 635.91 341.1 635.93 341.07 635.93 341.07 635.91 341.02 635.85 340.92 635.85 340.88 635.86 340.85 635.88 340.82 635.89 340.79 635.9 340.77 635.9 340.73 635.9 340.71 635.93 340.66 635.94 340.65 635.93 340.6 635.86 340.47 635.84 340.42 635.84 340.41 635.89 340.4 635.92 340.4 635.95 340.4 635.97 340.42 635.98 340.44 635.99 340.45 636.02 340.45 636.09 340.4 636.19 340.41 636.38 340.43 636.36 340.4 636.48 340.42 636.52 340.41 636.57 340.35 636.59 340.28 636.63 340.23 636.68 340.2 636.72 340.19 636.75 340.19 636.92 340.2 637 340.19 637.08 340.16 637.13 340.13 637.29 339.97 637.36 339.89 637.41 339.85 637.44 339.82 637.46 339.79 637.52 339.72 637.65 339.66 637.69 339.65 637.8 339.61 637.89 339.6 637.95 339.64 638.01 339.74 638.05 339.78 638.11 339.77 638.18 339.67 638.23 339.63 638.29 339.61 638.32 339.57 638.34 339.52 638.35 339.46 638.42 339.28 638.42 339.23 638.42 339.23 638.42 339.23 638.4 339.2 638.41 339.17 638.42 339.15 638.43 339.12 638.44 339.05 638.44 338.98 638.38 338.73 638.38 338.66 638.38 338.6 638.37 338.54 638.34 338.48 638.28 338.41 638.26 338.38 638.25 338.35 638.25 338.28 638.22 338.22 638.22 338.2 638.22 338.17 638.23 338.15 638.25 338.14 638.25 338.13 638.25 338.12 638.24 338.1 638.21 338.07 638.2 338.04 638.43 337.5 638.46 337.43 638.53 337.25 638.54 337.18 638.52 336.96 638.51 336.88 638.32 336.52 638.28 336.47 638.23 336.41 638.23 336.4 638.21 336.37 638.17 336.32 638.15 336.28 638.16 336.26 638.17 336.21 638.17 336.19 638.15 336.12 638.16 336.08 638.17 336.06 638.18 336.03 638.17 336 638.17 335.99 638.14 335.93 638.14 335.9 638.14 335.88 638.14 335.86 638.12 335.84 638.09 335.83 638.01 335.83 637.97 335.82 637.94 335.78 637.94 335.73 637.95 335.69 637.95 335.64 637.92 335.6 637.9 335.58 637.89 335.55 637.9 335.5 637.98 335.28 637.99 335.2 637.99 335.18 637.98 335.16 637.96 335.12 637.96 335.1 637.96 335.05 637.98 335.01 638.02 334.93 638.03 334.91 638.03 334.89 638.04 334.87 638.06 334.85 638.09 334.84 638.1 334.85 638.11 334.87 638.12 334.87 638.17 334.86 638.19 334.84 638.21 334.81 638.24 334.75 638.25 334.72 638.25 334.7 638.26 334.67 638.29 334.62 638.3 334.6 638.31 334.56 638.3 334.49 638.3 334.46 638.35 334.34 638.36 334.28 638.34 334.22 638.34 334.19 638.32 334.17 638.3 334.15 638.29 334.13 638.31 334.1 638.3 334.07 638.28 334.03 638.27 334 638.29 333.97 638.38 333.88 638.41 333.83 638.42 333.81 638.4 333.79 638.27 333.69 638.23 333.67 638.21 333.65 638.19 333.62 638.18 333.59 638.18 333.56 638.17 333.52 638.17 333.49 638.19 333.47 638.23 333.47 638.3 333.45 638.33 333.44 638.37 333.44 638.43 333.45 638.46 333.44 638.49 333.42 638.49 333.39 638.47 333.35 638.47 333.33 638.48 333.31 638.51 333.29 638.53 333.28 638.55 333.24 638.56 333.2 638.57 333.12 638.57 333.1 638.59 333.08 638.61 333.09 638.62 333.1 638.63 333.1 638.64 333.08 638.66 332.97 638.66 332.94 638.64 332.91 638.61 332.87 638.51 332.8 638.48 332.77 638.47 332.73 638.46 332.64 638.46 332.63 638.45 332.61 638.41 332.6 638.32 332.62 638.28 332.59 638.27 332.55 638.27 332.5 638.26 332.45 638.23 332.44 638.22 332.45 638.2 332.45 638.2 332.44 638.19 332.42 638.19 332.42 638.18 332.39 638.17 332.39 638.15 332.4 638.14 332.4 638.1 332.39 638.08 332.39 638.06 332.41 638.04 332.43 638.03 332.44 638 332.42 637.88 332.21 637.86 332.18 637.77 332.14 637.73 332.11 637.71 332.08 637.7 332.04 637.69 331.95 637.68 331.91 637.66 331.89 637.54 331.82 637.51 331.79 637.52 331.74 637.57 331.61 637.6 331.59 637.62 331.58 637.65 331.59 637.67 331.6 637.69 331.6 637.71 331.6 637.86 331.5 637.9 331.48 637.98 331.47 638.02 331.45 638.05 331.41 638.11 331.3 638.14 331.28 638.17 331.24 638.17 331.22 638.15 331.2 638.14 331.18 638.14 331.14 638.14 331.13 638.15 331.11 638.14 331.1 638.1 331.1 637.97 331.13 637.91 331.14 637.85 331.12 637.79 331.07 637.71 330.97 637.66 330.93 637.62 330.92 637.59 330.92 637.56 330.91 637.53 330.89 637.5 330.86 637.48 330.84 637.48 330.84 637.47 330.81 637.44 330.68 637.42 330.65 637.38 330.62 637.34 330.6 637.33 330.6 637.3 330.59 637.22 330.58 637.14 330.58 637.11 330.58 637.09 330.56 637.08 330.55 637.07 330.5 637.06 330.47 637.05 330.46 636.99 330.43 636.96 330.4 636.94 330.37 636.91 330.31 636.9 330.31 636.89 330.32 636.87 330.32 636.86 330.32 636.86 330.3 636.87 330.29 636.88 330.29 636.88 330.28 636.89 330.2 636.88 330.11 636.84 330.05 636.79 330.05 636.74 330.13 636.73 330.17 636.71 330.19 636.65 330.23 636.64 330.25 636.64 330.27 636.63 330.28 636.63 330.28 636.61 330.3 636.59 330.31 636.58 330.31 636.57 330.3 636.57 330.27 636.5 330.29 636.45 330.25 636.42 330.19 636.39 330.1 636.38 330.07 636.39 329.95 636.39 329.92 636.35 329.9 636.32 329.9 636.28 329.88 636.24 329.86 636.19 329.8 636.17 329.75 636.15 329.7 636.15 329.08 636.15 329.03 636.13 328.99 636.07 329.05 636.02 329.04 635.98 329.03 635.94 329.01 635.9 329 635.88 328.98 635.88 328.98 635.87 328.96 635.86 328.94 635.82 328.86 635.83 328.85 635.84 328.83 635.84 328.81 635.82 328.77 635.71 328.67 635.65 328.56 635.63 328.53 635.64 328.5 635.65 328.47 635.66 328.45 635.65 328.43 635.62 328.4 635.61 328.38 635.6 328.36 635.6 328.33 635.6 328.31 635.57 328.3 635.54 328.3 635.53 328.32 635.53 328.34 635.52 328.36 635.48 328.39 635.46 328.41 635.43 328.4 635.38 328.38 635.01 328.06 634.82 327.83 634.82 327.83 634.77 327.78 634.63 327.59 634.57 327.54 634.5 327.49 634.38 327.44 634.35 327.42 634.33 327.38 634.3 327.29 634.28 327.25 634.23 327.19 634.18 327.08 634.09 327 634.07 326.92 634.09 326.74 634.09 326.73 634.06 326.67 634.06 326.67 634.01 326.64 633.99 326.63 633.98 326.6 633.97 326.55 633.96 326.52 633.94 326.51 633.9 326.48 633.89 326.47 633.85 326.39 633.84 326.38 633.82 326.37 633.81 326.37 633.81 326.36 633.81 326.35 633.82 326.34 633.82 326.33 633.8 326.26 633.78 326.24 633.75 326.21 633.71 326.2 633.66 326.19 633.62 326.21 633.61 326.23 633.6 326.28 633.59 326.3 633.57 326.31 633.56 326.31 633.56 326.3 633.54 326.29 633.5 326.28 633.46 326.27 633.43 326.24 633.4 326.21 633.4 326.18 633.42 326.13 633.41 326.1 633.4 326.08 633.39 326.07 633.38 326.08 633.32 326.09 633.3 326.09 633.27 326.08 633.26 326.07 633.24 326.03 633.23 326.02 633.12 325.95 633.1 325.92 633.1 325.87 633.11 325.84 633.11 325.81 633.07 325.77 633 325.72 632.95 325.67 632.93 325.61 632.94 325.51 632.97 325.38 633 325.31 633.03 325.27 633.06 325.27 633.09 325.28 633.11 325.27 633.13 325.23 633.13 325.23 633.13 325.2 633.11 325.18 633.06 325.15 633 325.04 632.97 325.03 632.95 325.04 632.92 325.04 632.89 325.04 632.84 325.02 632.73 324.96 632.69 324.95 632.65 324.96 632.61 324.96 632.57 324.95 632.55 324.93 632.53 324.87 632.47 324.86 632.34 324.87 632.31 324.86 632.22 324.84 632.13 324.82 632.11 324.81 632.09 324.8 632.06 324.76 632.05 324.75 632.03 324.74 631.99 324.73 631.97 324.73 631.93 324.71 631.87 324.64 631.84 324.62 631.77 324.58 631.74 324.56 631.66 324.44 631.64 324.41 631.6 324.39 631.56 324.38 631.49 324.39 631.45 324.38 631.42 324.36 631.36 324.26 631.32 324.23 631.29 324.21 631.25 324.2 631.2 324.18 631.17 324.15 631.14 324.12 631.11 324.1 631.11 324.1 631.06 324.08 631 324.1 630.98 324.08 630.98 324.04 630.97 324 630.95 323.97 630.86 323.91 630.61 323.8 630.57 323.79 630.52 323.79 630.48 323.81 630.47 323.81 630.41 323.77 630.35 323.74 630.34 323.73 630.32 323.71 630.3 323.65 630.26 323.65 630.22 323.65 630.2 323.64 630.22 323.6 630.25 323.58 630.32 323.54 630.36 323.52 630.4 323.45 630.43 323.43 630.48 323.42 630.53 323.39 630.58 323.37 630.61 323.37 630.62 323.38 630.62 323.37 630.64 323.34 630.64 323.32 630.65 323.26 630.67 323.24 630.69 323.23 630.71 323.22 630.73 323.21 630.74 323.18 630.74 323.18 630.74 323.18 630.74 323.18 630.72 323.15 630.71 323.11 630.71 323.07 630.69 323.03 630.67 323.01 630.6 322.97 630.57 322.94 630.53 322.82 630.52 322.79 630.54 322.75 630.56 322.74 630.58 322.75 630.69 322.8 630.73 322.82 630.78 322.81 630.79 322.8 630.81 322.76 630.82 322.75 630.84 322.73 630.88 322.73 630.98 322.71 631.04 322.69 631.07 322.72 631.15 322.74 631.19 322.81 631.29 322.74 631.33 322.73 631.38 322.74 631.4 322.76 631.42 322.79 631.45 322.82 631.47 322.83 631.53 322.86 631.65 322.93 631.69 322.94 631.74 322.93 631.76 322.93 631.8 322.9 631.82 322.9 631.84 322.9 631.87 322.92 631.9 322.92 631.91 322.9 631.98 322.71 632 322.68 632.03 322.65 632.07 322.62 632.09 322.61 632.12 322.61 632.17 322.6 632.22 322.55 632.27 322.52 632.32 322.49 632.34 322.42 632.34 322.38 632.34 322.36 632.33 322.34 632.29 322.33 632.22 322.33 632.21 322.31 632.22 322.27 632.26 322.22 632.39 322.15 632.44 322.11 632.46 322.07 632.46 322.05 632.47 322.04 632.51 322.04 632.58 322.04 632.61 322.04 632.63 322.02 632.64 322.01 632.65 321.98 632.64 321.95 632.64 321.92 632.63 321.88 632.63 321.86 632.63 321.84 632.63 321.84 632.66 321.83 632.67 321.82 632.65 321.79 632.57 321.73 632.54 321.69 632.54 321.63 632.55 321.61 632.55 321.59 632.35 321.48 632.26 321.49 632.16 321.52 632.06 321.54 631.99 321.5 631.98 321.47 631.98 321.42 631.98 321.38 631.99 321.35 632.01 321.33 632.03 321.33 632.04 321.33 632.06 321.3 632.06 321.27 632.06 321.25 632.05 321.22 632.04 321.2 632.01 321.18 631.93 321.14 631.89 321.12 631.84 321.05 631.81 321.03 631.49 321.04 631.4 321.01 631.33 320.97 631.35 320.93 631.47 320.84 631.47 320.84 631.52 320.75 631.57 320.79 631.63 320.8 631.69 320.78 631.74 320.74 631.88 320.55 631.89 320.49 631.9 320.48 631.86 320.45 631.74 320.41 631.62 320.35 631.59 320.31 631.57 320.24 631.54 320.21 631.49 320.2 631.44 320.2 631.4 320.19 631.38 320.17 631.36 320.13 631.35 320.11 631.33 320.1 631.3 320.09 631.28 320.08 631.25 320.04 631.21 319.97 631.19 319.93 631.17 319.92 631.15 319.91 631.13 319.9 631.11 319.89 631.09 319.89 631.04 319.9 631.02 319.9 631.02 319.89 630.99 319.84 630.98 319.83 630.96 319.82 630.9 319.79 630.88 319.79 630.83 319.79 630.81 319.78 630.79 319.78 630.75 319.75 630.74 319.74 630.66 319.75 630.56 319.87 630.48 319.88 630.45 319.88 630.43 319.89 630.38 319.91 630.22 319.96 630.2 319.97 630.17 320 630.15 320.01 630.13 320.01 630.08 320.01 630.06 320.01 630.04 320.04 630.01 320.08 629.99 320.13 629.99 320.17 629.99 320.22 630 320.24 629.99 320.26 629.94 320.28 629.92 320.29 629.9 320.3 629.88 320.31 629.87 320.34 629.88 320.36 629.9 320.4 629.9 320.42 629.89 320.44 629.86 320.45 629.84 320.46 629.82 320.46 629.79 320.46 629.78 320.45 629.78 320.44 629.73 320.4 629.64 320.3 629.6 320.28 629.46 320.25 629.46 320.25 629.46 320.25 629.46 320.25 629.44 320.25 629.42 320.24 629.4 320.23 629.38 320.22 629.36 320.19 629.32 320.11 629.29 320.08 629.26 320.07 629.25 320.08 629.24 320.09 629.23 320.11 629.18 320.13 629.18 320.14 629.12 320.15 629.11 320.15 629.09 320.15 629.03 320.13 628.9 320.06 628.86 320.05 628.84 320.05 628.82 320.06 628.8 320.06 628.78 320.06 628.75 320.06 628.72 320.03 628.71 320.02 628.68 320.02 628.64 320.01 628.62 320 628.6 319.99 628.57 319.96 628.51 319.88 628.47 319.81 628.4 319.66 628.35 319.55 628.31 319.51 628.26 319.49 628.23 319.5 628.21 319.49 628.2 319.47 628.19 319.45 628.17 319.41 628.15 319.32 628.15 319.32 628.13 319.28 628.1 319.26 628.09 319.26 628.07 319.26 628.06 319.23 628.06 319.21 628.08 319.16 628.08 319.14 628.07 319.11 628.05 319.09 628.02 319.07 627.98 319.06 627.94 319.05 627.89 319.06 627.88 319.05 627.9 319 627.94 318.98 628.01 318.96 628.04 318.93 628.05 318.89 628.05 318.78 628.06 318.73 628.13 318.61 628.14 318.59 628.1 318.58 628.06 318.6 628.02 318.63 627.98 318.65 628.08 318.48 628.13 318.44 628.21 318.33 628.26 318.29 628.26 318.28 628.26 318.28 628.26 318.27 628.26 318.26 628.24 318.21 628.23 318.15 628.23 317.99 628.23 317.96 628.22 317.94 628.2 317.91 628.19 317.9 628.18 317.91 628.02 317.98 627.98 317.98 627.95 317.96 627.94 317.91 627.95 317.82 627.93 317.71 627.89 317.67 627.85 317.71 627.84 317.9 627.82 317.98 627.77 318.04 627.7 318.09 627.67 318.09 627.56 318.09 627.55 318.1 627.54 318.09 627.53 318.07 627.51 318.03 627.5 317.98 627.5 317.93 627.51 317.79 627.49 317.69 627.41 317.52 627.34 317.46 627.24 317.43 627.16 317.38 627.13 317.29 627.14 317.28 627.14 317.28 627.14 317.27 627.15 317.26 627.17 317.23 627.14 317.2 627.08 317.17 627.04 317.13 627.02 317.11 627 317.05 626.98 317.02 626.96 317 626.89 316.96 626.74 316.81 626.6 316.74 626.56 316.7 626.54 316.65 626.51 316.62 626.47 316.59 626.44 316.56 626.44 316.54 626.45 316.52 626.45 316.5 626.44 316.49 626.42 316.48 626.41 316.47 626.39 316.39 626.38 316.37 626.36 316.34 626.39 316.31 626.43 316.28 626.46 316.27 626.51 316.28 626.55 316.3 626.58 316.31 626.61 316.27 626.62 316.23 626.64 316.15 626.66 316.1 626.94 315.82 626.95 315.79 626.95 315.78 626.94 315.76 626.93 315.74 626.91 315.73 626.89 315.71 626.89 315.69 626.9 315.67 626.93 315.67 626.95 315.67 626.98 315.66 627 315.63 627.02 315.59 627.04 315.51 627.04 315.51 627.08 315.46 627.14 315.45 627.2 315.47 627.24 315.51 627.27 315.55 627.27 315.6 627.29 315.63 627.34 315.63 627.35 315.62 627.36 315.6 627.38 315.58 627.4 315.58 627.41 315.59 627.44 315.62 627.46 315.64 627.5 315.65 627.59 315.67 627.64 315.69 627.77 315.79 627.81 315.81 627.9 315.83 627.94 315.85 627.97 315.89 627.99 315.93 628 315.97 628.08 316.12 628.1 316.15 628.14 316.17 628.22 316.19 628.29 316.24 628.34 316.26 628.38 316.26 628.42 316.23 628.43 316.2 628.42 316.16 628.41 316.12 628.45 316.1 628.48 316.1 628.52 316.08 628.63 316 628.64 315.98 628.64 315.96 628.61 315.93 628.6 315.91 628.63 315.84 628.69 315.79 628.82 315.72 628.86 315.69 628.88 315.67 628.92 315.56 629 315.41 629.03 315.4 629.08 315.42 629.11 315.43 629.13 315.46 629.16 315.48 629.18 315.51 629.21 315.52 629.21 315.56 629.21 315.6 629.21 315.64 629.23 315.68 629.31 315.81 629.37 315.87 629.39 315.89 629.43 315.9 629.46 315.88 629.53 315.78 629.54 315.76 629.54 315.74 629.52 315.64 629.53 315.61 629.58 315.56 629.6 315.52 629.61 315.48 629.62 315.45 629.66 315.43 629.75 315.38 629.78 315.39 629.93 315.58 630.08 315.71 630.1 315.74 630.11 315.76 630.16 315.83 630.17 315.85 630.19 315.86 630.24 315.91 630.25 315.92 630.29 315.92 630.3 315.93 630.32 315.95 630.35 316.01 630.37 316.03 630.4 316.03 630.42 316.05 630.44 316.08 630.48 316.06 630.5 316.03 630.51 316 630.5 315.96 630.5 315.93 630.51 315.89 630.54 315.82 630.55 315.78 630.56 315.64 630.59 315.57 630.63 315.51 630.65 315.49 630.68 315.44 630.7 315.42 630.73 315.4 630.75 315.39 630.82 315.38 631.01 315.32 631.07 315.32 631.05 315.37 631.04 315.42 631.04 315.47 631.06 315.51 631.09 315.55 631.21 315.6 631.25 315.63 631.29 315.65 631.32 315.64 631.34 315.63 631.53 315.51 631.57 315.46 631.72 315.34 631.76 315.3 631.76 315.29 631.78 315.29 631.78 315.31 631.78 315.32 631.79 315.33 631.8 315.34 631.81 315.35 631.82 315.36 631.84 315.36 631.85 315.35 631.87 315.33 631.89 315.32 631.93 315.33 632 315.35 632.05 315.35 632.09 315.33 632.12 315.31 632.15 315.28 632.22 315.17 632.25 315.15 632.36 315.08 632.37 315.06 632.37 315.01 632.3 314.69 632.33 314.67 632.39 314.66 632.44 314.61 632.45 314.58 632.45 314.54 632.46 314.51 632.49 314.49 632.52 314.49 632.57 314.53 632.61 314.53 632.63 314.52 632.71 314.44 632.78 314.4 632.85 314.35 632.89 314.34 633.07 314.29 633.07 314.28 633.08 314.27 633.08 314.26 633.1 314.26 633.1 314.26 633.12 314.27 633.12 314.28 633.14 314.28 633.15 314.29 633.17 314.29 633.2 314.29 633.23 314.26 633.25 314.22 633.25 314.18 633.27 314.13 633.29 314.11 633.37 314.04 633.4 314.02 633.44 314.02 633.46 314.05 633.47 314.09 633.49 314.14 633.51 314.17 633.55 314.2 633.58 314.22 633.61 314.24 633.63 314.24 633.65 314.23 633.67 314.23 633.69 314.24 633.71 314.26 633.73 314.31 633.73 314.31 633.73 314.31 633.78 314.4 633.8 314.43 633.9 314.5 633.91 314.51 633.92 314.53 633.94 314.57 633.94 314.66 633.94 314.67 633.95 314.72 633.97 314.76 634 314.77 634.16 314.78 634.22 314.79 634.28 314.79 634.3 314.81 634.35 314.85 634.37 314.86 634.4 314.87 634.42 314.88 634.45 314.91 634.45 314.91 634.45 314.91 634.45 314.91 634.48 314.96 634.6 315.1 634.64 315.13 634.66 315.12 634.67 315.1 634.68 315.08 634.69 315.07 634.72 315.07 634.75 315.08 634.77 315.08 634.84 315.07 634.88 315.06 634.91 315.04 634.94 314.97 634.97 314.96 635.14 314.94 635.26 314.96 635.34 314.98 635.42 315.02 635.46 315.11 635.47 315.2 635.49 315.22 635.53 315.25 635.58 315.25 635.62 315.25 635.67 315.25 635.98 315.16 636.02 315.14 636.03 315.09 636.05 315.08 636.08 315.09 636.11 315.1 636.22 315.13 636.26 315.15 636.28 315.18 636.29 315.22 636.32 315.25 636.37 315.26 636.39 315.25 636.4 315.22 636.42 315.21 636.45 315.22 636.46 315.23 636.49 315.26 636.55 315.31 636.59 315.38 636.59 315.38 636.62 315.38 636.67 315.38 636.72 315.38 636.74 315.41 636.72 315.44 636.65 315.49 636.62 315.51 636.61 315.55 636.6 315.63 636.58 315.67 636.53 315.74 636.51 315.78 636.47 315.9 636.45 315.93 636.4 315.93 636.36 315.9 636.34 315.86 636.31 315.83 636.27 315.84 636.25 315.87 636.23 315.91 636.18 316.16 636.17 316.18 636.14 316.21 636.13 316.24 636.13 316.26 636.15 316.32 636.15 316.34 636.16 316.42 636.17 316.46 636.2 316.49 636.25 316.51 636.34 316.51 636.37 316.55 636.38 316.58 636.44 316.75 636.43 316.78 636.41 316.79 636.38 316.83 636.39 316.86 636.4 316.89 636.42 316.91 636.43 316.94 636.43 316.96 636.43 317 636.43 317.02 636.43 317.03 636.45 317.05 636.46 317.06 636.46 317.13 636.45 317.18 636.4 317.29 636.4 317.31 636.41 317.34 636.41 317.36 636.43 317.37 636.46 317.37 636.5 317.35 636.57 317.27 636.58 317.26 636.61 317.27 636.63 317.28 636.64 317.31 636.65 317.32 636.7 317.34 636.74 317.35 636.83 317.35 636.88 317.36 636.91 317.38 636.93 317.42 636.96 317.45 637.01 317.48 637.05 317.47 637.08 317.45 637.12 317.44 637.17 317.44 637.2 317.46 637.23 317.49 637.23 317.54 637.21 317.58 637.18 317.61 637.15 317.65 637.16 317.7 637.19 317.73 637.24 317.75 637.33 317.77 637.39 317.81 637.57 317.96 637.65 317.98 637.72 317.96 637.79 317.95 637.86 318.02 637.91 318.19 637.92 318.2 637.96 318.23 638.03 318.19 638.09 318.12 638.13 318.11 638.17 318.12 638.2 318.16 638.21 318.24 638.23 318.25 638.27 318.27 638.29 318.28 638.31 318.27 638.33 318.26 638.35 318.22 638.36 318.21 638.4 318.21 638.5 318.22 638.54 318.22 638.67 318.19 638.71 318.17 638.8 318.11 638.83 318.1 638.87 318.09 638.91 318.1 638.98 318.12 639.03 318.14 639.04 318.16 639.06 318.19 639.08 318.23 639.11 318.26 639.17 318.3 639.25 318.39 639.28 318.4 639.38 318.5 Z" fill-rule="evenodd" id="Vietnam" transform="translate(-626.3599853515625,-314.0199890136719) "/></svg>