<svg xmlns="http://www.w3.org/2000/svg" viewBox="0 0 18.680023193359375 16.670013427734375"><path d="M 380.75 303.53 380.75 303.76 380.75 304 380.75 304.23 380.75 304.46 380.75 304.5 380.75 304.59 380.75 304.74 380.75 304.94 380.76 305.17 380.76 305.42 380.76 305.7 380.76 305.98 380.76 306.26 380.76 306.54 380.76 306.79 380.76 307.02 380.76 307.21 380.76 307.36 380.76 307.46 380.76 307.49 380.76 307.6 380.74 307.63 380.7 307.65 380.51 307.65 380.29 307.65 380.06 307.65 379.84 307.65 379.62 307.65 379.39 307.65 379.17 307.65 378.95 307.65 378.72 307.65 378.5 307.65 378.28 307.65 378.05 307.65 377.83 307.65 377.61 307.65 377.38 307.65 377.16 307.65 376.94 307.65 376.72 307.65 376.49 307.65 376.27 307.65 376.05 307.65 375.82 307.65 375.6 307.65 375.38 307.65 375.15 307.65 374.93 307.65 374.71 307.65 374.48 307.65 374.26 307.65 374.04 307.65 373.81 307.65 373.59 307.65 373.37 307.65 373.37 307.83 373.37 308.02 373.37 308.2 373.37 308.39 373.37 308.57 373.37 308.76 373.37 308.94 373.37 309.12 373.37 309.31 373.37 309.49 373.37 309.68 373.37 309.86 373.37 310.04 373.37 310.23 373.37 310.41 373.37 310.6 373.37 310.78 373.37 310.96 373.37 311.15 373.37 311.33 373.37 311.51 373.37 311.69 373.37 311.88 373.37 312.06 373.37 312.24 373.37 312.42 373.37 312.61 373.37 312.79 373.37 312.97 373.37 313.15 373.37 313.34 373.37 313.52 373.37 313.71 373.36 313.79 373.33 313.83 373.1 313.89 372.62 314.13 372.54 314.15 372.16 314.2 372.03 314.25 371.89 314.35 371.65 314.51 371.37 314.7 371.15 314.86 371.11 314.91 371.11 314.91 370.92 315.18 370.85 315.33 370.82 315.49 370.84 315.64 370.95 315.95 370.98 316.1 371.01 316.7 371.05 317.29 371.11 318.27 371.13 318.48 371.15 318.86 370.82 318.86 370.73 318.86 370.47 318.86 370.07 318.86 369.55 318.86 368.93 318.86 368.31 318.86 368.24 318.86 367.51 318.86 366.75 318.86 365.98 318.86 365.25 318.86 364.56 318.86 363.94 318.86 363.42 318.86 363.02 318.86 362.76 318.86 362.67 318.86 362.41 318.86 362.39 318.88 362.35 319.09 362.31 319.32 362.21 319.59 362.2 319.66 362.15 319.88 362.14 319.95 362.19 320.2 362.17 320.14 362.09 320.03 362.08 319.97 362.09 319.94 362.11 319.89 362.12 319.85 362.12 319.74 362.13 319.7 362.17 319.58 362.26 318.87 362.28 318.79 362.28 318.75 362.29 318.66 362.43 318.63 362.92 318.54 363.25 318.51 364.11 318.51 364.44 318.47 364.71 318.47 365.09 318.49 365.4 318.54 365.73 318.59 366.11 318.59 366.42 318.61 366.82 318.61 367.11 318.59 367.3 318.47 367.48 318.23 367.55 318.04 367.61 317.88 367.59 317.71 367.57 317.61 367.68 317.5 367.81 317.31 367.95 317.19 367.99 317.09 368.12 317 368.28 316.83 368.37 316.71 368.48 316.55 368.5 316.4 368.55 316.21 368.55 315.88 368.59 315.47 368.66 315.21 368.7 314.99 368.74 314.66 368.88 314.08 368.92 313.91 369.01 313.65 369.12 313.41 369.21 313.24 369.32 313.1 369.48 313 369.72 312.91 369.9 312.81 370.12 312.71 370.32 312.64 370.5 312.54 370.56 312.45 370.67 312.28 370.83 311.97 370.92 311.77 371.05 311.53 371.21 311.36 371.3 311.3 371.38 311.24 371.58 311.12 371.83 310.97 372 310.85 372.16 310.73 372.29 310.63 372.45 310.49 372.51 310.37 372.6 310.15 372.71 309.81 372.8 309.44 372.89 309.05 372.96 308.81 373.02 308.51 373.11 308.29 373.18 308.05 373.22 307.95 373.22 307.83 373.27 307.66 373.28 307.64 373.33 307.56 373.49 307.51 373.67 307.46 373.95 307.42 374.03 307.38 374.07 307.24 374.1 307.11 374.21 306.91 374.32 306.75 374.39 306.65 374.48 306.48 374.58 306.36 374.73 306.2 374.87 306.08 374.92 305.95 374.92 305.8 374.82 305.68 374.75 305.46 375.03 305.39 375.29 305.32 375.52 305.25 375.79 305.15 376 305.15 376.16 305.12 376.39 305.17 376.61 305.19 376.77 305.27 377.05 305.42 377.28 305.52 377.42 305.52 377.56 305.47 377.69 305.4 377.76 305.39 377.88 305.44 378.06 305.54 378.24 305.54 378.42 305.52 378.56 305.39 378.79 305.19 378.97 305.05 379.14 304.95 379.27 304.93 379.42 304.93 379.59 304.92 379.87 304.95 380.05 304.95 380.3 304.91 380.51 304.87 380.6 304.8 380.6 304.7 380.55 304.55 380.5 304.41 380.49 304.28 380.52 304.14 380.55 304.03 380.53 303.86 380.46 303.65 380.45 303.53 380.46 303.53 380.46 303.53 380.6 303.53 380.75 303.53 Z" id="Western Sahara" transform="translate(-362.0799865722656,-303.5299987792969) "/></svg>