<svg xmlns="http://www.w3.org/2000/svg" viewBox="0 0 26.59002685546875 15.739990234375"><path d="M 518.17 340.08 518.17 340.09 518.1 340.09 518.07 340.09 518.03 340.07 518.08 340.05 518.12 340.06 518.14 340.07 518.17 340.08 Z M 517.57 339.94 517.6 339.95 517.63 339.95 517.67 339.97 517.68 340.01 517.67 340.04 517.64 340.05 517.61 340.06 517.54 340.03 517.5 339.99 517.45 339.98 517.46 339.96 517.49 339.95 517.52 339.95 517.54 339.94 517.57 339.94 Z M 515.66 339.86 515.71 339.88 515.75 339.88 515.81 339.89 515.91 339.89 515.97 339.92 516.1 339.89 516.13 339.9 516.13 339.9 516.14 339.92 516.11 339.93 516.09 339.96 516.11 339.97 516.13 340.01 516.06 340 516.04 340 516 340.02 515.9 340 515.8 339.99 515.79 339.97 515.76 339.94 515.75 339.94 515.74 339.94 515.69 339.95 515.67 339.96 515.66 339.95 515.63 339.91 515.63 339.9 515.61 339.9 515.57 339.88 515.54 339.89 515.52 339.9 515.5 339.89 515.49 339.88 515.42 339.84 515.41 339.81 515.44 339.8 515.48 339.8 515.53 339.8 515.59 339.82 515.66 339.86 Z M 496.31 338.87 496.31 338.91 496.28 338.92 496.27 338.91 496.24 338.89 496.23 338.87 496.2 338.88 496.19 338.87 496.18 338.84 496.2 338.83 496.22 338.83 496.27 338.83 496.3 338.84 496.3 338.85 496.31 338.87 Z M 518.76 338.76 518.83 338.77 518.88 338.76 518.93 338.76 519.02 338.84 519.17 338.95 519.27 338.97 519.36 339 519.4 338.94 519.43 338.89 519.49 338.87 519.53 338.88 519.57 338.9 519.64 338.89 519.72 338.89 519.8 338.84 519.83 338.83 519.88 338.8 519.91 338.77 519.96 338.76 519.99 338.79 520.02 338.82 520.07 338.85 520.11 338.84 520.13 338.82 520.14 338.83 520.17 338.85 520.18 338.87 520.23 338.88 520.28 338.89 520.3 338.92 520.33 338.93 520.41 338.97 520.5 338.99 520.59 339.04 520.64 339.05 520.74 339.12 520.8 339.11 520.84 339.09 520.87 339.09 520.9 339.11 520.87 339.13 520.8 339.15 520.76 339.17 520.71 339.18 520.69 339.19 520.69 339.25 520.59 339.29 520.52 339.31 520.43 339.35 520.33 339.34 520.25 339.37 520.23 339.39 520.18 339.45 520.16 339.46 520.11 339.48 520.04 339.53 520.01 339.55 519.95 339.55 519.84 339.56 519.81 339.55 519.77 339.56 519.72 339.6 519.67 339.59 519.67 339.59 519.63 339.57 519.57 339.59 519.47 339.61 519.2 339.66 519.1 339.67 518.98 339.65 518.85 339.62 518.75 339.59 518.71 339.55 518.67 339.5 518.64 339.46 518.6 339.41 518.55 339.39 518.45 339.33 518.22 339.18 518.17 339.13 518.16 339.12 518.18 339.1 518.24 339.12 518.29 339.12 518.34 339.09 518.35 339.08 518.35 339.06 518.37 339.02 518.38 339 518.36 338.87 518.39 338.85 518.43 338.85 518.53 338.83 518.55 338.8 518.57 338.76 518.59 338.74 518.63 338.73 518.76 338.76 Z M 494.63 336.59 494.63 336.59 494.62 336.56 494.62 336.55 494.62 336.55 494.64 336.51 494.69 336.41 494.79 336.34 494.83 336.32 494.86 336.35 494.86 336.39 494.79 336.46 494.77 336.51 494.75 336.53 494.63 336.59 Z M 494.85 335.99 494.83 336.01 494.77 336.01 494.8 335.94 494.8 335.94 494.75 335.92 494.7 335.9 494.68 335.88 494.65 335.85 494.65 335.84 494.63 335.8 494.65 335.76 494.7 335.72 494.75 335.69 494.79 335.68 494.8 335.66 494.86 335.74 494.88 335.77 494.88 335.8 494.85 335.88 494.84 335.95 494.84 335.95 494.85 335.99 Z M 494.39 332.66 494.41 332.66 494.44 332.65 494.47 332.64 494.49 332.64 494.49 332.67 494.47 332.76 494.46 332.79 494.46 332.81 494.46 332.82 494.45 332.84 494.45 332.84 494.46 332.84 494.46 332.85 494.42 332.92 494.39 332.94 494.36 332.94 494.34 332.92 494.31 332.88 494.31 332.83 494.33 332.77 494.34 332.65 494.37 332.62 494.39 332.59 494.42 332.57 494.42 332.55 494.43 332.53 494.48 332.51 494.5 332.51 494.51 332.53 494.45 332.57 494.45 332.59 494.46 332.59 494.46 332.6 494.45 332.61 494.43 332.63 494.4 332.65 494.39 332.66 Z M 517.68 329.79 517.68 329.79 517.64 329.82 517.53 329.85 517.45 329.83 517.43 329.85 517.4 329.85 517.37 329.85 517.35 329.87 517.31 329.91 517.28 329.93 517.23 329.95 517.15 329.99 517.06 330.01 517.02 330.03 516.93 330.08 516.9 330.09 516.59 330.17 516.45 330.24 516.2 330.42 515.97 330.6 515.92 330.66 515.89 330.71 515.85 330.79 515.77 330.87 515.76 330.9 515.75 330.93 515.75 330.95 515.75 330.98 515.76 331 515.76 331.01 515.75 331.05 515.7 331.11 515.67 331.2 515.62 331.26 515.61 331.3 515.63 331.35 515.66 331.4 515.68 331.45 515.66 331.55 515.69 331.58 515.76 331.62 515.77 331.65 515.75 331.81 515.76 331.91 515.78 332.01 515.79 332.02 515.8 332.04 515.81 332.05 515.81 332.06 515.8 332.08 515.79 332.1 515.79 332.11 515.78 332.13 515.77 332.14 515.76 332.15 515.71 332.16 515.37 332.25 515.35 332.27 515.34 332.28 515.32 332.29 515.3 332.3 515.27 332.3 515.25 332.31 515.07 332.38 514.99 332.43 514.99 332.48 514.99 332.49 514.98 332.49 514.98 332.49 514.97 332.49 514.98 332.52 514.97 332.52 514.96 332.52 514.94 332.51 514.93 332.5 514.91 332.49 514.89 332.48 514.86 332.5 514.84 332.51 514.73 332.53 514.56 332.63 514.53 332.66 514.52 332.69 514.53 332.74 514.55 332.76 514.55 332.78 514.5 332.79 514.27 332.81 514.23 332.83 514.19 332.85 514.15 332.87 514.1 332.93 514.06 332.94 514.04 332.94 514.03 332.96 514.01 332.96 513.9 333.01 513.87 333.03 513.81 333.01 513.75 333.03 513.69 333.07 513.65 333.09 513.2 333.21 512.72 333.3 512.3 333.42 512.06 333.44 511.85 333.53 511.79 333.56 511.63 333.7 511.59 333.72 511.5 333.74 511.37 333.81 511.23 333.91 511.2 333.91 511.16 333.89 511.1 333.91 511.01 333.95 510.97 333.96 510.95 333.96 510.93 333.97 510.91 333.92 510.9 333.89 510.88 333.89 510.85 333.91 510.71 333.92 510.39 334.02 509.9 334.15 509.64 334.29 509.54 334.33 509.44 334.35 509.4 334.37 509.31 334.43 509.12 334.52 509.04 334.58 509.02 334.65 509 334.65 508.96 334.63 508.92 334.62 508.87 334.62 508.82 334.65 508.79 334.68 508.68 334.83 508.64 334.91 508.62 335.01 508.63 335.02 508.64 335.05 508.63 335.07 508.62 335.09 508.6 335.11 508.51 335.14 508.49 335.16 508.47 335.21 508.44 335.23 508.4 335.24 508.37 335.26 508.36 335.27 508.35 335.29 508.35 335.34 508.34 335.36 508.33 335.37 508.31 335.38 508.29 335.45 508.25 335.47 508.17 335.51 508.04 335.67 507.99 335.7 507.98 335.7 507.96 335.72 507.94 335.73 507.93 335.73 507.91 335.73 507.65 335.72 507.62 335.73 507.52 335.82 507.49 335.83 507.48 335.83 507.46 335.83 507.44 335.85 507.4 335.8 507.32 335.79 507.15 335.79 507.16 335.8 507.17 335.82 507.07 335.82 506.82 335.9 506.83 335.84 506.79 335.8 506.74 335.78 506.71 335.76 506.7 335.77 506.63 335.74 506.44 335.7 506.4 335.71 506.29 335.75 506.25 335.76 506.22 335.78 506.1 335.91 506 335.97 505.66 336.08 505.61 336.11 505.43 336.3 505.15 336.56 505.07 336.61 504.55 336.77 503.99 336.88 503.79 337.01 503.52 337.12 503.48 337.12 503.44 337.12 503.36 337.09 503.31 337.09 503.26 337.11 503.16 337.15 503.12 337.16 502.66 337.15 502.56 337.14 502.52 337.11 502.49 337.1 502.47 337.11 502.46 337.12 502.4 337.14 502.21 337.17 501.84 337.19 501.8 337.2 501.72 337.23 501.69 337.23 501.6 337.23 501.56 337.23 501.53 337.25 501.23 337.32 501.15 337.36 500.94 337.57 500.88 337.62 500.85 337.65 500.82 337.73 500.71 337.87 500.64 337.93 500.56 337.97 500.18 338.06 500.09 338.11 500.01 338.18 499.98 338.21 499.97 338.23 499.96 338.26 499.96 338.26 499.94 338.3 499.94 338.34 499.93 338.35 499.88 338.48 499.88 338.5 499.89 338.59 499.88 338.63 499.84 338.64 499.79 338.63 499.74 338.61 499.7 338.58 499.71 338.55 499.74 338.53 499.79 338.54 499.83 338.53 499.84 338.49 499.84 338.49 499.8 338.45 499.8 338.44 499.79 338.43 499.8 338.42 499.8 338.41 499.78 338.41 499.77 338.41 499.77 338.42 499.77 338.43 499.77 338.44 499.75 338.47 499.75 338.47 499.73 338.47 499.71 338.46 499.7 338.46 499.65 338.46 499.63 338.46 499.62 338.48 499.6 338.51 499.57 338.54 499.52 338.55 499.49 338.52 499.47 338.53 499.46 338.55 499.47 338.61 499.48 338.59 499.5 338.59 499.56 338.6 499.57 338.61 499.57 338.63 499.56 338.66 499.52 338.68 499.49 338.7 499.46 338.69 499.39 338.67 499.38 338.66 499.36 338.64 499.36 338.63 499.36 338.62 499.33 338.61 499.27 338.6 499.23 338.62 499.15 338.67 499.14 338.66 499.14 338.65 499.13 338.64 499.14 338.62 499.13 338.59 499.1 338.56 499.07 338.53 498.98 338.5 498.89 338.5 498.8 338.52 498.74 338.55 498.62 338.65 498.49 338.78 498.49 338.79 498.47 338.82 498.45 338.83 498.45 338.8 498.44 338.8 498.38 338.82 498.32 338.84 498.18 338.9 498.13 338.91 498.08 338.9 498.04 338.91 497.96 338.95 497.91 338.95 497.86 338.94 497.84 338.9 497.87 338.91 497.92 338.92 497.95 338.92 497.97 338.9 497.97 338.87 497.96 338.86 497.93 338.87 497.87 338.87 497.8 338.89 497.67 338.97 497.61 338.98 497.57 338.98 497.52 338.97 497.45 338.99 497.41 339 497.37 338.97 497.33 338.89 497.3 338.87 497.25 338.87 497.22 338.85 497.16 338.81 497.12 338.79 497.08 338.78 497.03 338.77 496.98 338.76 496.95 338.75 496.87 338.7 496.82 338.69 496.74 338.69 496.72 338.68 496.69 338.66 496.67 338.64 496.65 338.64 496.62 338.65 496.49 338.78 496.48 338.79 496.45 338.81 496.4 338.81 496.35 338.8 496.34 338.78 496.38 338.6 496.39 338.51 496.37 338.44 496.32 338.36 496.25 338.3 496.24 338.28 496.24 338.25 496.22 338.23 496.21 338.22 496.2 338.2 496.2 338.16 496.19 338.11 496.17 338.07 496.15 338.04 496.07 337.95 496.06 337.92 496.06 337.9 496.03 337.85 496.01 337.79 496 337.77 495.87 337.61 495.82 337.45 495.85 337.38 495.87 337.3 495.88 336.9 495.93 336.83 495.93 336.81 495.94 336.79 495.95 336.78 495.97 336.77 495.94 336.69 495.95 336.54 495.94 336.46 495.87 336.32 495.86 336.29 495.83 336.11 495.82 336.09 495.68 335.93 495.63 335.81 495.58 335.71 495.53 335.64 495.5 335.46 495.48 335.38 495.46 335.32 495.42 335.2 495.36 334.99 495.34 334.94 495.33 334.87 495.3 334.81 495.29 334.73 495.29 334.71 495.28 334.7 495.24 334.67 495.23 334.66 495.23 334.63 495.24 334.62 495.26 334.63 495.28 334.64 495.3 334.69 495.33 334.79 495.36 334.82 495.37 334.76 495.36 334.72 495.35 334.7 495.38 334.6 495.36 334.53 495.31 334.46 495.29 334.39 495.29 334.37 495.31 334.35 495.32 334.33 495.32 334.32 495.31 334.31 495.31 334.31 495.3 334.28 495.28 334.27 495.27 334.26 495.26 334.25 495.25 334.24 495.24 334.23 495.23 334.22 495.21 334.14 495.21 334.11 495.19 334.03 495.08 333.9 495.06 333.82 495.05 333.77 495.06 333.74 495.08 333.75 495.09 333.77 495.08 333.78 495.08 333.8 495.08 333.82 495.09 333.87 495.12 333.91 495.15 333.95 495.2 333.98 495.2 333.95 495.21 333.87 495.21 333.83 495.19 333.74 495.18 333.67 495.17 333.64 495.15 333.62 495.09 333.56 495.07 333.53 495.05 333.49 495.05 333.44 495.06 333.32 495.05 333.28 495.02 333.24 494.94 333.21 494.87 333.14 494.82 333.11 494.77 333.09 494.73 333.07 494.68 333.06 494.63 333.06 494.6 333.08 494.59 333.13 494.56 333.14 494.51 333.12 494.47 333.08 494.47 333.03 494.45 333 494.48 332.99 494.55 333.01 494.59 333 494.61 332.99 494.63 332.97 494.63 332.93 494.63 332.91 494.61 332.88 494.6 332.85 494.66 332.74 494.68 332.72 494.69 332.74 494.69 332.78 494.67 332.82 494.65 332.84 494.69 332.86 494.73 332.88 494.82 332.96 494.83 332.97 494.83 333 494.83 333.05 494.83 333.06 494.86 333.07 494.86 333.06 494.86 333.04 494.85 333.04 494.85 333.03 494.88 332.99 494.89 332.94 494.89 332.77 494.87 332.69 494.83 332.62 494.82 332.59 494.82 332.56 494.83 332.54 494.83 332.51 494.83 332.48 494.83 332.46 494.82 332.43 494.78 332.37 494.69 332.25 494.7 332.23 494.73 332.2 494.7 332.18 494.68 332.15 494.67 332.12 494.66 332.08 494.69 332 494.68 331.97 494.63 331.95 494.65 331.91 494.67 331.89 494.7 331.88 494.73 331.85 494.74 331.83 494.75 331.81 494.76 331.79 494.76 331.75 494.77 331.69 494.8 331.64 494.84 331.61 494.88 331.59 494.92 331.55 494.94 331.51 494.95 331.46 494.97 331.15 494.96 331.04 494.9 330.72 494.89 330.55 494.89 330.53 494.88 330.49 494.88 330.49 494.88 330.48 494.88 330.47 494.88 330.46 494.87 330.44 494.85 330.42 494.85 330.42 494.96 330.38 495.03 330.35 495.09 330.31 495.11 330.27 495.11 330.23 495.1 330.2 495.11 330.17 495.13 330.16 495.22 330.14 495.25 330.13 495.35 330.07 495.4 330.04 495.42 330 495.48 329.85 495.49 329.8 495.49 329.75 495.51 329.72 495.53 329.71 495.59 329.72 495.68 329.75 495.72 329.74 495.73 329.7 495.73 329.69 495.72 329.64 495.7 329.61 495.69 329.57 495.72 329.53 495.74 329.51 495.76 329.5 495.78 329.49 495.79 329.47 495.79 329.44 495.77 329.41 495.75 329.39 495.67 329.37 495.64 329.35 495.61 329.27 495.57 329.18 495.56 329.14 495.57 329.08 495.61 328.99 495.62 328.95 495.62 328.9 495.61 328.85 495.59 328.81 495.58 328.77 495.59 328.72 495.64 328.63 495.65 328.59 495.65 328.53 495.66 328.49 495.71 328.45 495.77 328.43 495.82 328.41 495.87 328.39 495.88 328.34 495.85 328.29 495.81 328.26 495.68 328.22 495.69 328.21 495.8 328.08 495.99 327.91 496.18 327.79 496.23 327.77 496.28 327.76 496.32 327.77 496.4 327.78 496.43 327.79 496.6 327.86 496.69 327.91 496.84 328.08 496.94 328.16 496.98 328.17 497.02 328.17 497.1 328.16 497.19 328.17 497.23 328.17 497.28 328.15 497.3 328.16 497.3 328.19 497.29 328.23 497.3 328.25 497.31 328.26 497.32 328.27 497.35 328.27 497.4 328.27 497.43 328.23 497.46 328.19 497.49 328.15 497.54 328.12 497.58 328.13 497.66 328.17 497.72 328.18 497.76 328.16 497.8 328.12 497.83 328.06 497.86 328.04 497.91 328.04 498 328.07 498.04 328.07 498.21 328.03 498.43 328 498.56 328.01 498.72 328.04 498.78 328.04 498.92 327.98 498.97 327.97 499.42 327.98 499.69 327.98 499.74 327.98 500.12 327.98 500.24 328.01 500.6 328.22 500.7 328.25 501.17 328.3 501.72 328.36 502.14 328.4 502.68 328.45 503.05 328.4 503.54 328.34 503.62 328.38 503.77 328.58 503.93 328.81 504.12 329.07 504.15 329.09 504.18 329.09 504.47 329.1 504.54 329.09 504.61 329.06 504.88 328.91 505.13 328.76 505.13 328.76 505.2 328.67 505.35 328.26 505.45 327.97 505.49 327.9 505.7 327.63 506.04 327.22 506.39 326.78 506.59 326.53 506.76 326.32 506.81 326.28 507.09 326.14 507.47 325.94 507.9 325.72 508.28 325.53 508.6 325.37 508.7 325.32 508.9 325.24 509.19 325.2 509.54 325.15 509.9 325.1 510.25 325.05 510.61 325 510.96 324.95 511.32 324.9 511.67 324.85 512.03 324.8 512.38 324.75 512.74 324.7 513.09 324.65 513.45 324.6 513.8 324.55 514.16 324.5 514.51 324.45 514.87 324.4 515.22 324.35 515.23 324.39 515.3 324.53 515.39 324.76 515.49 324.98 515.58 325.21 515.68 325.43 515.77 325.66 515.87 325.88 515.96 326.1 516.06 326.33 516.15 326.55 516.25 326.77 516.34 327 516.44 327.22 516.53 327.44 516.63 327.67 516.72 327.89 516.81 328.11 516.89 328.28 516.88 328.28 516.87 328.28 516.87 328.28 516.9 328.3 516.98 328.31 517.02 328.32 517.04 328.35 517.13 328.55 517.27 328.86 517.41 329.17 517.55 329.48 517.68 329.79 Z" fill-rule="evenodd" id="Yemen" transform="translate(-494.30999755859375,-324.3500061035156) "/></svg>