<svg xmlns="http://www.w3.org/2000/svg" viewBox="0 0 25.920013427734375 22.350006103515625"><path d="M 467.38 401.81 467.29 401.84 467.23 401.84 467.16 401.81 467.12 401.8 467.07 401.79 467.05 401.8 467.01 401.83 466.99 401.84 466.96 401.84 466.93 401.84 466.88 401.8 466.79 401.78 466.7 401.79 466.61 401.81 466.52 401.83 466.43 401.82 466.24 401.77 466.14 401.76 466.09 401.77 466 401.81 465.9 401.83 465.77 401.87 465.72 401.88 465.68 401.87 465.63 401.86 465.59 401.85 465.53 401.86 465.45 401.94 465.41 401.96 465.22 401.98 465.19 401.98 464.7 402.21 464.62 402.29 464.6 402.31 464.55 402.32 464.51 402.34 464.47 402.37 464.45 402.4 464.41 402.49 464.38 402.52 464.32 402.53 464.22 402.53 464.18 402.54 464.17 402.54 464.13 402.56 464.06 402.63 464.01 402.69 464 402.7 463.97 402.75 463.97 402.78 463.97 402.8 463.98 402.81 463.99 402.83 464 402.84 463.99 402.92 463.96 403.01 463.94 403.1 463.98 403.17 463.93 403.29 463.92 403.34 463.93 403.38 463.97 403.48 463.97 403.53 463.91 403.62 463.9 403.63 463.89 403.72 463.86 403.75 463.77 403.82 463.75 403.86 463.71 403.9 463.69 403.92 463.66 403.92 463.6 403.92 463.49 403.94 462.69 404.26 462.54 404.36 462.32 404.54 462.12 404.62 461.78 404.77 461.66 404.84 461.57 404.94 461.27 405.39 461.24 405.47 461.19 405.66 461.13 405.77 461.01 405.89 460.79 406.1 460.2 406.71 460.18 406.74 460.17 406.77 460.17 406.82 460.18 406.88 460.11 406.97 460.02 407.05 459.96 407.11 459.9 407.15 459.86 407.16 459.76 407.16 459.74 407.17 459.66 407.23 459.6 407.21 459.39 407.3 459.34 407.31 459.3 407.32 459.27 407.34 459.21 407.4 459.19 407.4 459.15 407.4 459.03 407.36 458.99 407.34 458.96 407.31 458.93 407.27 458.9 407.25 458.86 407.24 458.8 407.23 458.71 407.2 458.54 407.1 458.44 407.08 458.35 407.1 458.34 407.09 458.32 407.08 458.31 407.07 458.29 407.06 458.18 407.04 458.16 407.04 458.15 407.02 458.14 407 458.12 406.98 458.1 406.97 458.08 406.98 458 407.04 457.98 407.05 457.93 407.06 457.9 407.09 457.86 407.1 457.84 407.1 457.84 407.11 457.85 407.14 457.84 407.15 457.81 407.16 457.77 407.16 457.74 407.17 457.72 407.19 457.71 407.18 457.59 407.24 457.56 407.25 457.47 407.24 457.33 407.18 457.31 407.15 457.29 407.11 457.3 407.08 457.33 407.07 457.3 407.03 457.2 406.98 457.18 406.95 457.16 406.92 457.11 406.9 457.07 406.87 456.98 406.85 456.96 406.83 456.93 406.81 456.87 406.81 456.76 406.86 456.61 406.89 456.59 406.9 456.57 406.92 456.56 406.93 456.55 406.92 456.53 406.91 456.52 406.91 456.35 406.91 456.32 406.9 456.25 406.88 456.18 406.88 456.16 406.88 456.12 406.86 456.05 406.8 456.01 406.78 455.99 406.77 455.98 406.74 455.95 406.71 455.92 406.69 455.89 406.69 455.86 406.68 455.84 406.68 455.81 406.64 455.8 406.63 455.77 406.62 455.76 406.61 455.76 406.59 455.76 406.57 455.76 406.55 455.72 406.52 455.71 406.52 455.69 406.54 455.68 406.53 455.67 406.51 455.66 406.5 455.64 406.5 455.63 406.49 455.61 406.42 455.61 406.41 455.57 406.38 455.56 406.37 455.53 406.37 455.52 406.36 455.51 406.36 455.49 406.34 455.49 406.32 455.51 406.28 455.5 406.28 455.48 406.28 455.43 406.29 455.41 406.29 455.38 406.26 455.35 406.23 455.35 406.23 455.32 406.21 455.28 406.23 455.25 406.19 455.19 406.16 455.04 406.13 454.97 406.13 454.94 406.13 454.93 406.12 454.92 406.11 454.91 406.1 454.72 406.07 454.62 406.07 454.6 406.08 454.58 406.09 454.57 406.11 454.54 406.12 454.51 406.15 454.49 406.16 454.47 406.17 454.45 406.16 454.41 406.15 454.39 406.13 454.38 406.12 454.36 406.11 454.3 406.1 454.26 406.08 454.2 406.06 454.1 406.03 454.06 406.02 454.02 406.03 453.93 406.05 453.91 406.06 453.89 406.05 453.77 406.04 453.73 406.04 453.69 406.04 453.62 406.05 453.53 406.07 453.43 406.09 453.34 406.11 453.24 406.13 453.15 406.15 453.05 406.17 452.96 406.19 452.86 406.21 452.77 406.23 452.67 406.25 452.58 406.27 452.48 406.29 452.39 406.31 452.3 406.33 452.2 406.35 452.1 406.37 452.04 406.38 452 406.38 451.92 406.4 451.83 406.41 451.82 406.38 451.81 406.35 451.83 406.32 451.78 406.28 451.74 406.23 451.69 406.19 451.66 406.18 451.63 406.17 451.56 406.16 451.52 406.17 451.48 406.18 451.44 406.18 451.4 406.17 451.38 406.14 451.38 406.11 451.38 406.07 451.37 406.04 451.35 406.01 451.25 405.97 451.2 405.93 451.15 405.87 451.1 405.8 451.09 405.74 451.07 405.71 450.98 405.61 450.95 405.59 450.84 405.56 450.71 405.51 450.65 405.47 450.56 405.39 450.49 405.35 450.46 405.33 450.44 405.29 450.42 405.18 450.39 405.12 450.34 405.06 450.24 404.95 450.21 404.93 450.08 404.88 450.05 404.88 450.04 404.87 450.03 404.85 450.03 404.81 450.02 404.79 450 404.76 449.93 404.74 449.89 404.72 449.87 404.69 449.85 404.62 449.69 404.37 449.67 404.35 449.65 404.34 449.62 404.33 449.6 404.32 449.59 404.31 449.58 404.28 449.54 404.24 449.53 404.21 449.51 404.18 449.45 404.17 449.44 404.17 449.42 404.15 449.41 404.14 449.4 404.15 449.4 404.16 449.37 404.16 449.34 404.17 449.32 404.18 449.29 404.17 449.1 404.01 449.09 403.98 449.08 403.94 449.07 403.91 449.05 403.89 449.01 403.89 449 403.87 449 403.84 449 403.81 448.99 403.78 448.95 403.72 448.94 403.69 448.95 403.65 448.96 403.61 448.98 403.57 449 403.54 449 403.51 448.96 403.49 448.89 403.47 448.89 403.46 448.89 403.41 448.88 403.39 448.87 403.38 448.85 403.35 448.84 403.34 448.83 403.31 448.82 403.28 448.82 403.25 448.79 403.22 448.81 403.22 448.87 403.22 448.79 403.09 448.73 403.02 448.73 402.97 448.73 402.93 448.73 402.79 448.73 402.65 448.72 402.64 448.72 402.54 448.72 402.3 448.73 402.07 448.73 401.84 448.73 401.6 448.73 401.5 448.73 401.43 448.73 401.39 448.73 401.29 448.73 400.95 448.73 400.61 448.73 400.26 448.72 399.92 448.72 399.58 448.72 399.23 448.72 398.89 448.72 398.55 448.72 398.21 448.72 397.86 448.72 397.52 448.72 397.39 448.72 397.18 448.72 396.84 448.72 396.5 448.72 396.16 448.72 395.82 449 395.82 449.27 395.82 449.55 395.82 449.82 395.82 450.1 395.82 450.37 395.82 450.65 395.82 450.93 395.82 451.2 395.82 451.48 395.82 451.75 395.82 452.03 395.82 452.3 395.82 452.58 395.82 452.85 395.82 453.13 395.82 453.2 395.82 453.18 395.74 453.14 395.66 453.09 395.6 452.97 395.48 452.92 395.41 452.9 395.34 452.92 395.25 452.96 395.15 453 394.98 453.04 394.83 453.07 394.76 453.17 394.61 453.24 394.5 453.26 394.47 453.27 394.43 453.25 394.33 453.24 394.19 453.21 394.13 453.16 394.07 453.11 394 453.1 393.9 453.11 393.59 453.13 393.3 453.17 393.19 453.18 393.16 453.17 393.11 453.16 392.94 453.14 392.89 453.12 392.84 453.1 392.8 453.1 392.74 453.11 392.7 453.15 392.61 453.21 392.51 453.22 392.49 453.22 392.45 453.22 392.4 453.22 392.37 453.22 392.34 453.25 392.31 453.32 392.26 453.34 392.23 453.34 392.2 453.24 391.98 453.22 391.93 453.23 391.61 453.19 391.6 453.18 391.57 453.19 391.48 453.19 391.36 453.19 391.32 453.21 391.27 453.2 391.24 453.16 391.18 453.14 391.14 453.13 391.03 453.2 391.03 453.31 391.05 453.4 391.08 453.45 391.13 453.45 391.15 453.44 391.19 453.44 391.21 453.44 391.24 453.46 391.28 453.46 391.31 453.46 391.38 453.48 391.41 453.52 391.4 453.56 391.39 453.6 391.39 453.68 391.41 453.73 391.42 453.81 391.42 453.85 391.43 453.9 391.45 453.97 391.49 454.02 391.54 454.05 391.58 454.04 391.61 454.02 391.63 454 391.65 454 391.68 454.01 391.71 454.05 391.74 454.07 391.76 454.08 391.8 454.08 391.85 454.08 391.9 454.07 391.94 454.05 391.98 453.98 392.09 453.95 392.12 453.86 392.14 453.83 392.17 453.85 392.21 453.89 392.23 453.98 392.23 454.02 392.23 454.07 392.26 454.15 392.33 454.19 392.35 454.24 392.36 454.29 392.35 454.38 392.31 454.4 392.31 454.43 392.32 454.45 392.31 454.47 392.29 454.47 392.27 454.48 392.25 454.5 392.23 454.52 392.21 454.54 392.2 454.58 392.19 454.61 392.18 454.63 392.16 454.67 392.1 454.69 392.08 454.78 392.04 454.95 392.04 455.03 392.03 455.2 391.94 455.29 391.92 455.38 391.92 455.69 391.89 455.82 391.87 456.03 391.76 456.1 391.75 456.13 391.77 456.14 391.82 456.13 391.88 456.14 391.93 456.14 391.95 456.12 391.97 456.07 391.98 456.05 392 456.06 392.02 456.08 392.04 456.1 392.06 456.08 392.1 456.05 392.12 456.03 392.15 456.04 392.2 456.05 392.25 456.1 392.34 456.12 392.37 456.12 392.4 456.09 392.43 456.08 392.45 456.08 392.47 456.08 392.51 456.14 392.7 456.16 392.74 456.18 392.76 456.2 392.76 456.22 392.77 456.24 392.77 456.27 392.77 456.29 392.79 456.3 392.81 456.32 392.82 456.44 392.89 456.48 392.92 456.49 392.93 456.49 392.94 456.49 392.96 456.47 393.01 456.48 393.04 456.52 393.06 456.56 393.06 456.58 393.04 456.59 393.03 456.61 393.02 456.64 393.01 456.66 393 456.67 392.98 456.68 392.96 456.69 392.95 456.79 392.95 456.87 393 456.94 393.06 457.03 393.11 457.07 393.12 457.19 393.12 457.22 393.12 457.26 393.1 457.28 393.09 457.3 393.1 457.31 393.1 457.32 393.11 457.44 393.21 457.49 393.23 457.52 393.25 457.55 393.32 457.59 393.34 457.62 393.35 458 393.34 458.05 393.36 458.1 393.39 458.14 393.41 458.22 393.4 458.27 393.43 458.29 393.43 458.32 393.42 458.36 393.39 458.39 393.38 458.47 393.36 458.55 393.36 458.61 393.38 458.64 393.41 458.68 393.44 458.72 393.47 458.8 393.5 458.98 393.51 459.06 393.53 459.1 393.55 459.14 393.58 459.18 393.6 459.22 393.59 459.26 393.56 459.28 393.52 459.32 393.49 459.37 393.49 459.48 393.5 459.57 393.48 459.66 393.43 459.73 393.36 459.78 393.27 459.79 393.08 459.81 393 459.84 392.95 459.87 392.91 459.9 392.88 459.9 392.82 459.87 392.73 459.87 392.68 459.9 392.65 459.92 392.65 459.97 392.65 459.99 392.65 460.08 392.63 460.17 392.62 460.23 392.59 460.25 392.59 460.29 392.65 460.31 392.75 460.32 392.86 460.32 392.93 460.37 393.13 460.78 393.38 460.89 393.56 460.9 393.65 461 393.96 461.04 394.01 461.16 394.11 461.17 394.12 461.26 394.22 461.33 394.24 461.43 394.25 461.53 394.25 461.6 394.23 461.64 394.19 461.66 394.16 461.69 394.15 461.75 394.15 461.79 394.17 461.92 394.24 461.95 394.28 461.96 394.34 461.98 394.39 462.02 394.4 462.06 394.4 462.1 394.39 462.26 394.41 462.28 394.42 462.29 394.44 462.29 394.46 462.3 394.48 462.36 394.53 462.39 394.51 462.42 394.48 462.48 394.47 462.52 394.49 462.55 394.52 462.59 394.54 462.65 394.54 462.7 394.54 462.74 394.54 462.78 394.55 462.82 394.57 463 394.73 463.03 394.78 463.08 394.89 463.1 394.94 463.18 395.02 463.2 395.07 463.2 395.12 463.18 395.16 463.14 395.19 463.12 395.22 463.13 395.28 463.18 395.34 463.23 395.39 463.26 395.44 463.27 395.56 463.29 395.58 463.33 395.58 463.36 395.56 463.38 395.54 463.41 395.47 463.44 395.45 463.55 395.47 463.64 395.57 463.79 395.76 463.83 395.8 463.84 395.82 463.86 395.9 463.87 395.91 463.9 395.92 463.91 395.93 463.91 395.94 463.9 395.97 463.9 395.98 463.9 395.99 463.89 396.01 463.9 396.02 463.91 396.03 463.92 396.04 463.93 396.04 463.94 396.05 463.96 396.12 463.98 396.14 464.02 396.14 464.04 396.15 464.07 396.18 464.14 396.51 464.17 396.61 464.24 396.67 464.27 396.71 464.31 396.72 464.35 396.71 464.39 396.69 464.43 396.69 464.45 396.69 464.5 396.68 464.55 396.68 464.6 396.71 464.62 396.74 464.64 396.77 464.66 396.8 464.69 396.8 464.72 396.79 464.76 396.74 464.79 396.72 464.84 396.7 464.97 396.61 465.28 396.49 465.33 396.47 465.45 396.34 465.5 396.32 465.56 396.32 465.6 396.35 465.64 396.38 465.68 396.41 465.7 396.41 465.72 396.4 465.74 396.4 465.76 396.43 465.77 396.45 465.76 396.47 465.75 396.5 465.74 396.51 465.73 396.53 465.69 396.54 465.67 396.55 465.67 396.57 465.67 396.62 465.67 396.64 465.66 396.65 465.63 396.65 465.62 396.66 465.62 396.69 465.63 396.72 465.64 396.74 465.65 396.77 465.67 396.79 465.71 396.81 465.75 396.83 465.84 396.85 465.98 396.85 466.02 396.85 466.05 396.77 466.05 396.52 466.05 396.19 466.05 395.87 466.05 395.53 466.05 395.13 466.05 394.8 466.05 394.42 466.06 394.16 466.06 393.92 466.06 393.92 466.06 393.91 466.06 393.91 465.96 393.91 465.91 393.93 465.84 393.99 465.72 394.04 465.68 394.05 465.66 394.03 465.62 393.99 465.59 393.98 465.56 393.98 465.54 393.99 465.51 394.02 465.47 394.05 465.37 394.08 465.33 394.11 465.32 394.13 465.29 394.22 465.28 394.28 465.28 394.3 465.27 394.31 465.28 394.33 465.35 394.42 465.38 394.43 465.42 394.43 465.44 394.44 465.45 394.48 465.45 394.53 465.42 394.56 465.39 394.58 465.35 394.58 465.33 394.58 465.32 394.57 465.31 394.56 465.3 394.55 465.29 394.55 465.26 394.56 465.24 394.55 465.18 394.53 465.09 394.48 465.07 394.48 464.98 394.48 464.96 394.47 464.94 394.46 464.91 394.44 464.87 394.4 464.85 394.38 464.67 394.39 464.61 394.4 464.57 394.42 464.53 394.45 464.51 394.4 464.47 394.41 464.43 394.43 464.4 394.42 464.38 394.41 464.36 394.41 464.35 394.41 464.35 394.38 464.34 394.35 464.16 394.02 464.1 393.95 463.97 393.88 463.95 393.85 463.94 393.81 463.92 393.77 463.89 393.73 463.86 393.71 463.78 393.66 463.75 393.64 463.74 393.61 463.73 393.54 463.71 393.52 463.63 393.54 463.59 393.52 463.48 393.46 463.45 393.44 463.41 393.36 463.38 393.34 463.33 393.37 463.32 393.34 463.3 393.3 463.28 393.29 463.26 393.27 463.25 393.26 463.22 393.26 463.19 393.27 463.17 393.24 463.15 393.13 463.12 393.11 463.09 393.1 463.07 393.07 463.05 392.91 463.04 392.89 463.01 392.86 462.99 392.84 463 392.83 463 392.81 462.97 392.67 462.95 392.65 462.92 392.62 462.9 392.6 462.88 392.53 462.87 392.51 462.86 392.48 462.85 392.36 462.86 392.32 462.97 392.15 462.98 392.14 463.03 392.1 463.04 392.09 463.02 392.01 463.03 391.96 463.05 391.93 463.08 391.9 463.12 391.82 463.11 391.74 463.12 391.72 463.12 391.71 463.14 391.68 463.15 391.66 463.15 391.63 463.12 391.51 463.12 391.49 463.15 391.44 463.18 391.39 463.19 391.37 463.19 391.34 463.19 391.3 463.19 391.27 463.21 391.25 463.24 391.21 463.25 391.19 463.26 391.17 463.28 391.12 463.28 391.1 463.28 391 463.3 390.94 463.32 390.89 463.34 390.84 463.38 390.8 463.4 390.78 463.41 390.73 463.45 390.68 463.46 390.67 463.47 390.66 463.5 390.66 463.51 390.66 463.54 390.64 463.58 390.6 463.61 390.56 463.62 390.51 463.61 390.5 463.55 390.46 463.54 390.44 463.55 390.41 463.56 390.36 463.56 390.34 463.5 390.28 463.47 390.24 463.47 390.21 463.48 390.18 463.46 390.15 463.47 390.13 463.49 390.11 463.5 390.08 463.5 390.06 463.5 390.03 463.48 389.98 463.46 389.95 463.44 389.91 463.44 389.85 463.44 389.81 463.46 389.77 463.46 389.74 463.45 389.69 463.45 389.69 463.43 389.68 463.42 389.68 463.41 389.66 463.41 389.64 463.41 389.63 463.33 389.57 463.35 389.52 463.41 389.46 463.44 389.39 463.46 389.3 463.47 389.13 463.45 388.97 463.46 388.92 463.53 388.77 463.55 388.68 463.57 388.64 463.61 388.62 463.62 388.61 463.56 388.55 463.55 388.52 463.54 388.5 463.52 388.5 463.5 388.48 463.47 388.44 463.45 388.39 463.45 388.29 463.45 388.27 463.43 388.22 463.42 388.2 463.41 388.17 463.37 388.12 463.36 388.1 463.37 388.09 463.42 388.07 463.44 388.05 463.37 388.06 463.34 388.05 463.33 388.02 463.33 387.98 463.32 387.95 463.31 387.92 463.3 387.9 463.25 387.86 463.22 387.84 463.21 387.8 463.21 387.77 463.22 387.73 463.21 387.69 463.16 387.63 463.09 387.59 462.98 387.57 462.88 387.53 462.85 387.45 462.89 387.37 462.99 387.3 463.19 387.21 463.39 387.06 463.76 386.7 464.05 386.32 464.13 386.13 464.14 385.93 464.05 385.73 464.04 385.69 464.1 385.67 464.36 385.63 464.74 385.57 465.09 385.52 465.56 385.45 465.6 385.44 466.19 385.35 466.77 385.26 467.22 385.19 467.79 385.11 468.17 385.05 468.23 385.26 468.34 385.48 468.48 385.68 468.63 385.84 468.7 385.9 468.79 385.95 468.89 385.99 468.98 385.99 469.03 385.97 469.07 385.93 469.12 385.91 469.18 385.91 469.2 385.93 469.24 385.98 469.27 386 469.3 386.01 469.31 386 469.33 385.99 469.45 385.95 469.47 385.94 469.49 385.93 469.49 385.93 469.5 385.92 469.52 385.93 469.53 385.95 469.54 385.99 469.54 386 469.57 386.02 469.6 386.03 469.63 386.02 469.66 386.03 469.7 386.04 469.75 386.1 469.78 386.12 469.87 386.15 469.91 386.18 469.93 386.24 469.93 386.32 469.94 386.42 469.99 386.49 470.21 386.65 470.25 386.66 470.29 386.66 470.34 386.65 470.41 386.61 470.46 386.6 470.79 386.69 470.75 386.78 470.75 386.89 470.8 386.98 470.89 387 470.94 386.98 470.97 386.96 471 386.95 471.06 386.95 471.12 386.99 471.15 387 471.17 386.99 471.21 386.98 471.23 386.99 471.26 387 471.28 387.01 471.36 387.09 471.4 387.13 471.45 387.14 471.49 387.15 471.78 387.14 471.87 387.16 471.95 387.22 471.98 387.25 472.02 387.35 472.05 387.4 472.08 387.42 472.16 387.43 472.36 387.47 472.51 387.48 472.54 387.49 472.57 387.53 472.58 387.54 472.59 387.58 472.6 387.59 472.62 387.6 472.66 387.6 472.67 387.6 472.77 387.67 472.94 387.73 472.97 387.75 472.98 387.88 472.99 387.91 473.01 387.93 473.03 387.93 473.04 387.92 473.07 387.91 473.08 387.92 473.11 387.95 473.13 387.96 473.13 388.02 473.09 388.18 473.12 388.24 473.15 388.25 473.17 388.24 473.2 388.23 473.23 388.22 473.25 388.23 473.26 388.25 473.27 388.28 473.28 388.3 473.33 388.32 473.35 388.28 473.36 388.21 473.37 388.16 473.42 388.18 473.54 388.19 473.58 388.22 473.62 388.27 473.63 388.3 473.63 388.34 473.62 388.36 473.61 388.38 473.6 388.4 473.61 388.43 473.63 388.46 473.69 388.5 473.71 388.52 473.74 388.59 473.76 388.61 473.79 388.64 473.81 388.65 473.9 388.68 473.91 388.7 473.95 388.79 473.96 388.85 473.94 388.9 473.88 389 473.84 389.1 473.83 389.16 473.82 389.22 473.85 389.26 474.03 389.34 474.08 389.38 474.12 389.42 474.16 389.45 474.22 389.47 474.26 389.52 474.3 389.56 474.33 389.59 474.34 389.66 474.32 389.79 474.33 389.84 474.39 389.98 474.41 390 474.47 390.06 474.49 390.08 474.53 390.18 474.56 390.22 474.63 390.23 474.63 390.29 474.64 390.33 474.64 390.35 474.64 390.36 474.64 390.37 474.61 390.42 474.57 390.45 474.49 390.51 474.46 390.53 474.43 390.55 474.32 390.67 474.28 390.76 474.26 390.8 474.22 390.82 474.18 390.83 474.14 390.87 474.11 390.88 474.08 390.88 474 390.87 473.97 390.87 473.94 390.88 473.89 390.9 473.86 390.91 473.83 390.93 473.79 390.99 473.76 391.01 473.73 391.01 473.71 391.01 473.69 391.01 473.67 391.05 473.66 391.08 473.68 391.1 473.71 391.1 473.74 391.09 473.77 391.12 473.79 391.19 473.8 391.26 473.8 391.32 473.82 391.39 473.86 391.45 473.9 391.51 473.95 391.56 474.02 391.68 474 391.75 473.97 391.81 473.81 392.05 473.81 392.07 473.82 392.09 473.81 392.11 473.8 392.12 473.77 392.13 473.76 392.14 473.75 392.17 473.76 392.2 473.76 392.23 473.74 392.26 473.68 392.22 473.66 392.25 473.67 392.44 473.67 392.47 473.65 392.51 473.62 392.58 473.63 392.6 473.67 392.61 473.7 392.61 473.74 392.61 473.78 392.61 473.81 392.65 473.82 392.68 473.85 393.05 473.84 393.13 473.81 393.21 473.81 393.25 473.83 393.3 473.84 393.33 473.84 393.37 473.82 393.4 473.8 393.52 473.72 393.72 473.71 393.8 473.71 393.87 473.73 393.91 473.79 393.97 473.81 394 473.84 394.07 473.88 394.23 473.92 394.3 474 394.33 474.17 394.28 474.25 394.31 474.29 394.31 474.32 394.31 474.32 394.36 474.3 394.4 474.29 394.4 474.23 394.44 474.22 394.48 474.18 394.48 474.17 394.5 474.17 394.55 474.15 394.58 474.08 394.61 474.06 394.63 474.02 394.68 473.98 394.73 473.93 394.76 473.88 394.77 473.86 394.77 473.84 394.75 473.82 394.74 473.79 394.74 473.73 394.75 473.72 394.76 473.69 394.79 473.65 394.86 473.62 394.89 473.6 394.89 473.59 394.9 473.58 394.91 473.57 394.92 473.55 394.93 473.54 394.95 473.53 394.96 473.51 394.96 473.5 394.95 473.48 394.9 473.46 394.88 473.44 394.88 473.42 394.88 473.39 394.89 473.37 394.9 473.35 394.91 473.33 394.92 473.31 394.91 473.31 394.89 473.29 394.88 473.28 394.87 473.26 394.88 473.23 394.91 473.21 394.94 473.14 395.08 473.06 395.19 473.03 395.26 473.02 395.3 473.03 395.46 473.05 395.49 473.11 395.52 473.16 395.57 473.18 395.63 473.17 395.69 473.11 395.83 473.07 396.08 473.08 396.12 473.09 396.16 473.1 396.19 473.14 396.25 473.15 396.27 473.13 396.3 473.07 396.32 473.01 396.39 472.97 396.48 472.94 396.61 472.91 396.73 472.87 396.82 472.81 396.85 472.77 396.86 472.75 396.88 472.74 396.92 472.75 396.96 472.74 397.01 472.71 397.03 472.63 397.04 472.6 397.06 472.54 397.11 472.51 397.12 472.47 397.1 472.43 397.1 472.41 397.12 472.4 397.16 472.43 397.24 472.5 397.25 472.58 397.25 472.64 397.28 472.72 397.4 472.74 397.42 472.72 397.45 472.64 397.49 472.61 397.51 472.62 397.57 472.69 397.6 472.77 397.62 472.84 397.64 472.87 397.67 472.98 397.81 472.99 397.84 473 397.88 473.01 397.91 473.03 397.93 473.07 397.92 473.08 397.93 473.1 397.95 473.1 397.97 473.09 397.98 473.09 398.09 473.1 398.13 473.15 398.19 473.19 398.18 473.26 398.07 473.29 398.04 473.32 398.02 473.4 398 473.42 397.98 473.44 397.92 473.46 397.91 473.49 397.94 473.56 398.07 473.6 398.11 473.44 398.17 473.25 398.23 472.97 398.33 472.58 398.46 472.21 398.58 471.88 398.7 471.64 398.78 471.44 398.85 471.26 398.88 471.17 398.91 471.01 398.98 470.78 399.06 470.49 399.15 470.18 399.26 470.02 399.34 469.82 399.45 469.63 399.52 469.4 399.57 469.11 399.64 468.88 399.7 468.84 399.7 468.53 399.77 468.31 399.83 468 399.94 467.81 400.01 467.58 400.09 467.37 400.2 467.21 400.28 467.01 400.3 466.98 400.31 466.98 400.31 466.97 400.33 466.99 400.4 466.99 400.5 467 400.6 467.08 400.88 467.14 400.99 467.21 401.04 467.24 401.05 467.27 401.08 467.29 401.12 467.31 401.16 467.32 401.21 467.32 401.36 467.33 401.38 467.36 401.43 467.37 401.45 467.36 401.47 467.32 401.55 467.31 401.6 467.31 401.63 467.38 401.7 467.39 401.72 467.41 401.79 467.41 401.79 467.38 401.81 Z" id="Zambia" transform="translate(-448.7200012207031,-385.04998779296875) "/></svg>