<svg xmlns="http://www.w3.org/2000/svg" viewBox="0 0 17.339996337890625 15.80999755859375"><path d="M 467.38 401.81 467.38 401.99 467.39 402.21 467.39 402.48 467.39 402.64 467.64 402.64 467.8 402.64 468.16 402.64 468.4 402.63 468.5 402.65 468.59 402.72 468.62 402.76 468.66 402.78 468.69 402.79 468.74 402.76 468.77 402.74 468.81 402.7 468.84 402.68 468.86 402.68 468.88 402.7 468.9 402.7 468.91 402.67 468.97 402.63 469.07 402.64 469.29 402.69 469.33 402.71 469.37 402.73 469.4 402.77 469.44 402.85 469.47 402.88 469.52 402.91 469.54 402.92 469.55 402.94 469.55 402.96 469.57 402.98 469.58 402.98 469.59 402.98 469.6 402.98 469.61 402.98 469.61 402.99 469.61 403 469.61 403.01 469.66 403.02 469.7 403.02 469.75 403.02 469.78 403.05 469.87 403.09 470.24 403.11 470.29 403.14 470.35 403.19 470.49 403.33 470.53 403.37 470.62 403.42 470.65 403.44 470.67 403.48 470.68 403.57 470.7 403.6 470.73 403.62 470.96 403.66 471.4 403.65 471.58 403.67 471.81 403.77 472.16 403.91 472.42 404.01 472.45 404.04 472.46 404.07 472.46 404.12 472.48 404.21 472.54 404.26 472.55 404.26 472.55 404.26 472.57 404.25 472.6 404.24 472.64 404.23 472.71 404.24 472.84 404.27 472.91 404.27 472.95 404.26 473.02 404.22 473.05 404.21 473.08 404.2 473.06 404.27 473 404.51 472.96 404.58 472.93 404.63 472.77 404.79 472.77 404.8 472.9 405.02 472.99 405.19 473.05 405.32 473.08 405.46 473.08 405.55 473.08 405.57 473.09 405.62 473.11 405.67 473.13 405.68 473.18 405.71 473.2 405.73 473.2 405.77 473.19 405.8 473.18 405.82 473.14 405.87 473.06 406.04 473.04 406.06 473.02 406.07 473.01 406.08 473.01 406.11 473.03 406.19 473.04 406.21 473.08 406.24 473.16 406.27 473.2 406.32 473.2 406.36 473.2 406.41 473.16 406.49 473.15 406.58 473.16 406.68 473.15 406.77 473.09 406.81 473.05 406.82 473.03 406.86 473.02 406.91 473.01 406.95 473.01 407 473.04 407.06 473.04 407.11 473.04 407.14 473.02 407.15 473 407.16 472.99 407.18 472.99 407.2 473.02 407.24 473.02 407.26 473.01 407.3 473.01 407.35 473.09 407.59 473.1 407.67 473.09 407.69 473.07 407.74 473.06 407.77 473.04 407.78 473.04 407.8 473.05 407.84 473.08 407.89 473.19 407.97 473.23 408.02 473.24 408.06 473.23 408.09 473.17 408.13 473.12 408.2 473.12 408.2 473.12 408.22 473.15 408.26 473.16 408.28 473.14 408.33 473.1 408.36 473.05 408.38 473.01 408.41 472.97 408.43 472.93 408.44 472.89 408.45 472.86 408.49 472.86 408.53 472.87 408.57 472.89 408.66 472.96 408.79 472.98 408.85 472.97 408.93 472.96 408.99 472.93 409.04 472.9 409.07 472.84 409.08 472.75 409.07 472.68 409.08 472.47 409.18 472.46 409.2 472.48 409.33 472.49 409.36 472.52 409.38 472.5 409.4 472.47 409.41 472.45 409.43 472.44 409.46 472.46 409.51 472.46 409.54 472.46 409.57 472.47 409.6 472.48 409.62 472.51 409.63 472.54 409.63 472.68 409.61 472.71 409.61 472.74 409.62 472.75 409.63 472.76 409.65 472.76 409.68 472.77 409.7 472.79 409.72 472.81 409.74 472.83 409.76 472.84 409.84 472.78 410.13 472.78 410.19 472.77 410.23 472.75 410.27 472.72 410.32 472.64 410.41 472.63 410.44 472.64 410.51 472.62 410.6 472.63 410.65 472.65 410.68 472.69 410.68 472.73 410.67 472.76 410.68 472.78 410.73 472.78 410.78 472.76 410.95 472.76 410.97 472.77 410.99 472.77 411.02 472.76 411.04 472.75 411.06 472.74 411.09 472.75 411.14 472.78 411.17 472.82 411.17 472.87 411.18 472.92 411.16 472.98 411.1 473.02 411.08 473.06 411.1 473.07 411.15 473.05 411.24 473.07 411.28 473.1 411.32 473.15 411.35 473.2 411.37 473.22 411.4 473.22 411.44 473.2 411.5 473.2 411.59 473.15 411.73 473.15 411.9 473.16 411.96 473.17 411.98 473.05 411.97 473.02 412 473 412.07 472.99 412.11 472.95 412.12 472.92 412.12 472.9 412.14 472.88 412.26 472.87 412.29 472.84 412.35 472.83 412.37 472.84 412.39 472.85 412.42 472.85 412.44 472.84 412.51 472.82 412.55 472.81 412.58 472.71 412.7 472.56 412.87 472.49 413.01 472.42 413.15 472.37 413.21 472.27 413.23 472.17 413.22 472.07 413.23 472 413.32 471.98 413.42 471.97 413.52 472.01 413.77 472.04 414.01 472.02 414.1 471.97 414.21 471.86 414.35 471.69 414.57 471.7 414.59 471.73 414.61 471.75 414.64 471.76 414.64 471.77 414.64 471.78 414.64 471.78 414.66 471.77 414.68 471.76 414.69 471.76 414.7 471.92 414.97 471.92 414.98 471.92 415 471.84 414.94 471.76 415.03 471.65 415.15 471.54 415.28 471.42 415.41 471.3 415.53 471.19 415.66 471.07 415.79 470.96 415.92 470.84 416.05 470.72 416.18 470.61 416.31 470.49 416.44 470.37 416.57 470.26 416.69 470.14 416.82 470.03 416.95 469.91 417.08 469.79 417.21 469.68 417.34 469.53 417.44 469.36 417.57 469.31 417.49 469.28 417.47 469.26 417.47 469.23 417.49 469.21 417.49 469.19 417.48 469.16 417.46 469.14 417.46 469.12 417.44 469.08 417.39 469.05 417.37 469.02 417.38 468.95 417.41 468.93 417.42 468.91 417.42 468.87 417.42 468.8 417.38 468.56 417.33 468.42 417.31 468.36 417.29 468.29 417.32 468.04 417.34 467.99 417.36 467.94 417.4 467.9 417.41 467.89 417.4 467.85 417.38 467.83 417.37 467.77 417.37 467.62 417.36 467.58 417.36 467.54 417.37 467.46 417.41 467.41 417.42 467.32 417.44 467.24 417.44 467.17 417.42 467.1 417.37 467.07 417.35 467.03 417.33 466.99 417.31 466.94 417.31 466.84 417.32 466.8 417.32 466.75 417.29 466.68 417.25 466.65 417.23 466.58 417.23 466.58 417.22 466.58 417.21 466.53 417.16 466.51 417.15 466.46 417.14 466.44 417.13 466.38 417.09 466.35 417.08 466.27 417.08 466.22 417.05 466.14 417.03 466.01 416.95 465.97 416.93 465.82 416.94 465.79 416.95 465.75 416.92 465.7 416.93 465.62 416.97 465.55 416.96 465.5 416.97 465.49 417.01 465.46 417.03 465.41 417.03 465.3 417 465.25 417.01 465.17 417.05 465.12 417.08 465.09 417.08 465.07 417.08 465.06 417.07 464.89 416.92 464.88 416.9 464.86 416.85 464.85 416.83 464.83 416.8 464.81 416.79 464.6 416.8 464.52 416.79 464.44 416.74 464.37 416.67 464.33 416.58 464.31 416.48 464.32 416.38 464.35 416.33 464.38 416.27 464.41 416.22 464.41 416.17 464.37 416.14 464.28 416.11 464.24 416.09 464.18 416.07 464.04 416.06 463.97 416.05 463.65 415.89 463.55 415.86 463.46 415.79 463.43 415.78 463.37 415.78 463.29 415.76 463.27 415.76 463.25 415.77 463.17 415.8 463.13 415.81 463.1 415.82 463.05 415.81 462.87 415.71 462.78 415.68 462.7 415.67 462.43 415.66 462.27 415.63 462.14 415.62 462.1 415.61 462.07 415.59 462.05 415.56 462.03 415.54 462.01 415.49 462 415.47 461.99 415.46 461.97 415.46 461.96 415.46 461.95 415.44 461.97 415.41 461.96 415.39 461.94 415.39 461.93 415.38 461.94 415.36 461.96 415.33 461.96 415.31 461.96 415.29 461.89 415.15 461.85 415.12 461.84 415.09 461.84 415.08 461.84 415.04 461.83 415.02 461.81 414.99 461.73 414.89 461.68 414.8 461.61 414.72 461.46 414.61 461.42 414.57 461.35 414.47 461.33 414.42 461.33 414.38 461.36 414.26 461.36 414.21 461.34 414.07 461.34 414.05 461.35 414 461.35 413.97 461.35 413.94 461.36 413.92 461.38 413.9 461.39 413.87 461.42 413.68 461.42 413.59 461.36 413.4 461.38 413.32 461.41 413.23 461.41 413.14 461.4 413.1 461.37 413.07 461.33 413.05 461.24 413.05 461.16 413.01 461.03 413.04 460.86 413.01 460.61 413.01 460.53 413.02 460.44 413.07 460.48 412.73 460.44 412.45 460.33 412.16 460.3 412.12 460.26 412.1 460.21 412.08 460.16 412.07 460.14 412.07 460.12 412.08 460.09 412.07 460.07 412.06 460.04 412.04 460 411.99 459.98 411.97 459.91 411.93 459.84 411.92 459.76 411.92 459.68 411.9 459.43 411.78 459.35 411.76 459.3 411.76 459.25 411.75 459.22 411.73 459.18 411.7 459.15 411.66 459.13 411.64 459.13 411.63 459.1 411.61 458.99 411.58 458.95 411.56 458.92 411.53 458.91 411.48 458.89 411.44 458.85 411.4 458.76 411.34 458.72 411.32 458.63 411.3 458.59 411.29 458.55 411.25 458.49 411.15 458.44 411.12 458.37 411.11 458.35 411.1 458.33 411.09 458.33 411.08 458.34 411.07 458.36 411.05 458.37 411 458.37 410.98 458.35 410.95 458.33 410.93 458.31 410.91 458.28 410.9 458.16 410.9 458.06 410.87 457.98 410.82 457.92 410.74 457.71 410.13 457.66 410.03 457.59 409.94 457.54 409.85 457.52 409.81 457.51 409.75 457.52 409.7 457.55 409.62 457.56 409.57 457.56 409.57 457.5 409.38 457.22 409.13 457.14 408.96 457.13 408.79 457.11 408.71 457.05 408.66 456.96 408.61 456.9 408.56 456.8 408.41 456.77 408.37 456.69 408.32 456.54 408.17 456.52 408.12 456.5 408.09 456.48 407.99 456.47 407.95 456.39 407.83 456.32 407.65 456.28 407.57 456.21 407.51 456.13 407.47 456.07 407.4 455.98 407.25 455.92 407.09 455.9 407.03 455.9 406.97 455.99 406.77 456.01 406.78 456.05 406.8 456.12 406.86 456.16 406.88 456.18 406.88 456.25 406.88 456.32 406.9 456.35 406.91 456.52 406.91 456.53 406.91 456.55 406.92 456.56 406.93 456.57 406.92 456.59 406.9 456.61 406.89 456.76 406.86 456.87 406.81 456.93 406.81 456.96 406.83 456.98 406.85 457.07 406.87 457.11 406.9 457.16 406.92 457.18 406.95 457.2 406.98 457.3 407.03 457.33 407.07 457.3 407.08 457.29 407.11 457.31 407.15 457.33 407.18 457.47 407.24 457.56 407.25 457.59 407.24 457.71 407.18 457.72 407.19 457.74 407.17 457.77 407.16 457.81 407.16 457.84 407.15 457.85 407.14 457.84 407.11 457.84 407.1 457.86 407.1 457.9 407.09 457.93 407.06 457.98 407.05 458 407.04 458.08 406.98 458.1 406.97 458.12 406.98 458.14 407 458.15 407.02 458.16 407.04 458.18 407.04 458.29 407.06 458.31 407.07 458.32 407.08 458.34 407.09 458.35 407.1 458.44 407.08 458.54 407.1 458.71 407.2 458.8 407.23 458.86 407.24 458.9 407.25 458.93 407.27 458.96 407.31 458.99 407.34 459.03 407.36 459.15 407.4 459.19 407.4 459.21 407.4 459.27 407.34 459.3 407.32 459.34 407.31 459.39 407.3 459.6 407.21 459.66 407.23 459.74 407.17 459.76 407.16 459.86 407.16 459.9 407.15 459.96 407.11 460.02 407.05 460.11 406.97 460.18 406.88 460.17 406.82 460.17 406.77 460.18 406.74 460.2 406.71 460.79 406.1 461.01 405.89 461.13 405.77 461.19 405.66 461.24 405.47 461.27 405.39 461.57 404.94 461.66 404.84 461.78 404.77 462.12 404.62 462.32 404.54 462.54 404.36 462.69 404.26 463.49 403.94 463.6 403.92 463.66 403.92 463.69 403.92 463.71 403.9 463.75 403.86 463.77 403.82 463.86 403.75 463.89 403.72 463.9 403.63 463.91 403.62 463.97 403.53 463.97 403.48 463.93 403.38 463.92 403.34 463.93 403.29 463.98 403.17 463.94 403.1 463.96 403.01 463.99 402.92 464 402.84 463.99 402.83 463.98 402.81 463.97 402.8 463.97 402.78 463.97 402.75 464 402.7 464.01 402.69 464.06 402.63 464.13 402.56 464.17 402.54 464.18 402.54 464.22 402.53 464.32 402.53 464.38 402.52 464.41 402.49 464.45 402.4 464.47 402.37 464.51 402.34 464.55 402.32 464.6 402.31 464.62 402.29 464.7 402.21 465.19 401.98 465.22 401.98 465.41 401.96 465.45 401.94 465.53 401.86 465.59 401.85 465.63 401.86 465.68 401.87 465.72 401.88 465.77 401.87 465.9 401.83 466 401.81 466.09 401.77 466.14 401.76 466.24 401.77 466.43 401.82 466.52 401.83 466.61 401.81 466.7 401.79 466.79 401.78 466.88 401.8 466.93 401.84 466.96 401.84 466.99 401.84 467.01 401.83 467.05 401.8 467.07 401.79 467.12 401.8 467.16 401.81 467.23 401.84 467.29 401.84 467.38 401.81 Z" id="Zimbabwe" transform="translate(-455.8999938964844,-401.760009765625) "/></svg>